<svg height="512pt" viewBox="0 0 512 512" width="512pt" xmlns="http://www.w3.org/2000/svg"><path d="m195.148438 355.398438-5.996094 1.339843c-5.394532 1.203125-8.792969 6.550781-7.585938 11.945313 1.039063 4.660156 5.171875 7.828125 9.753906 7.828125.722657 0 1.457032-.082031 2.191407-.242188l7.726562-1.726562c3.320313 6.941406 7.5 13.4375 12.429688 19.371093l-4.140625 3.109376c-4.417969 3.316406-5.308594 9.589843-1.992188 14.007812 1.96875 2.617188 4.972656 3.996094 8.011719 3.996094 2.089844 0 4.199219-.652344 6-2.003906l6.605469-4.960938c4.96875 3.941406 10.355468 7.457031 16.105468 10.480469l-1.5 8.53125c-.953124 5.441406 2.683594 10.628906 8.125 11.585937.585938.101563 1.167969.152344 1.742188.152344 4.769531 0 8.992188-3.421875 9.84375-8.28125l.773438-4.410156c3.488281.839844 6.734374 1.222656 9.730468 1.222656 11.792969 0 19.753906-5.882812 23.742188-12.820312 5.949218-10.34375 3.71875-23.691407-5.195313-31.058594-.566406-.460938-1.148437-.898438-1.742187-1.320313l1.402344-1.292969c4.058593-3.75 4.308593-10.082031.558593-14.140624-3.75-4.058594-10.078125-4.308594-14.136719-.558594l-7.054687 6.519531c-6.476563-3.183594-12.273437-7.175781-16.042969-14.574219l6.957032-5.226562c4.417968-3.316406 5.308593-9.589844 1.988281-14.007813-3.316407-4.417969-9.589844-5.308593-14.007813-1.992187l-1.039062.777344c-2.898438-5.875-8.1875-10.410157-15.105469-12.679688-10.898437-3.570312-23.277344-.746094-30.808594 7.035156-3.667969 3.789063-8.652343 11.308594-7.339843 23.394532zm21.714843-9.472657c2.210938-2.285156 6.59375-3.117187 10.191407-1.9375 2.265624.746094 3.535156 1.992188 3.769531 3.722657 4.324219 31.570312 24.953125 40.507812 38.605469 46.421874 3.859374 1.671876 7.5 3.25 9.351562 4.773438 1.40625 1.164062 1.675781 3.75.585938 5.644531-1.929688 3.351563-7.84375 3.695313-15.4375.894531-22.816407-8.425781-39.625-24.730468-47.324219-45.910156-1.320313-3.621094-3.039063-10.203125.257812-13.609375zm0 0"/><path d="m250.136719 259.058594c-3.910157-3.90625-10.242188-3.90625-14.152344 0-3.90625 3.90625-3.90625 10.242187 0 14.152344l138.132813 138.128906c-33.859376 25.757812-75.398438 39.832031-118.132813 39.832031-107.609375 0-195.15625-87.5625-195.15625-195.1875 0-42.773437 14.082031-84.328125 39.855469-118.164063l79.289062 78.695313c3.921875 3.894531 10.257813 3.871094 14.152344-.050781 3.890625-3.921875 3.867188-10.257813-.054688-14.152344l-87.160156-86.507812c-1.976562-1.960938-4.667968-3.015626-7.460937-2.898438-2.785157.117188-5.390625 1.382812-7.199219 3.503906-33.164062 38.851563-51.433594 88.421875-51.433594 139.574219 0 118.660156 96.527344 215.199219 215.171875 215.199219 51.117188 0 100.683594-18.265625 139.574219-51.429688 2.121094-1.8125 3.390625-4.429687 3.503906-7.21875.109375-2.789062-.949218-5.496094-2.921875-7.472656zm0 0"/><path d="m437.011719 74.976562c-48.238281-48.234374-112.371094-74.863281-180.601563-74.976562h-.839844c-68.296874.113281-132.484374 26.789062-180.734374 75.117188-48.261719 48.332031-74.835938 112.5625-74.835938 180.867187 0 68.382813 26.625 132.671875 74.972656 181.027344 48.351563 48.355469 112.632813 74.988281 181.011719 74.988281 68.304687 0 132.542969-26.578125 180.882813-74.84375 48.335937-48.257812 75.019531-112.441406 75.132812-180.746094v-.839844c-.113281-68.21875-26.746094-132.355468-74.988281-180.59375zm54.976562 181.417969c-.21875 129.90625-106.085937 235.59375-236.003906 235.59375-130.113281 0-235.972656-105.871093-235.972656-236.003906 0-129.898437 105.6875-235.753906 235.578125-235.972656h.804687c129.691407.21875 235.375 105.902343 235.59375 235.578125zm0 0"/><path d="m255.984375 40.816406c-47.78125 0-93.042969 15.347656-130.894531 44.386719-2.285156 1.753906-3.703125 4.410156-3.894532 7.285156-.1875 2.875.875 5.691407 2.910157 7.730469l209.769531 209.746094c.066406.070312.121094.144531.1875.210937l24.203125 24.179688 53.515625 53.507812c1.882812 1.882813 4.433594 2.933594 7.078125 2.933594.214844 0 .433594-.007813.65625-.023437 2.875-.1875 5.527344-1.605469 7.28125-3.890626 29.039063-37.851562 44.386719-83.113281 44.386719-130.898437 0-118.644531-96.539063-215.167969-215.199219-215.167969zm99.726563 262.679688c16.660156-17.5625 15.910156-37.367188 15.390624-51.066406-.003906-.078126-.007812-.15625-.007812-.234376 0-.019531 0-.042968 0-.066406 0-.144531-.015625-.285156-.019531-.429687-.175781-4.660157-.304688-9.011719.375-11.738281.683593-2.746094 3.871093-4.773438 7.121093-4.527344 5.261719.402344 8.96875 6.703125 9.914063 16.859375v.015625c1.050781 11.097656.332031 21.835937-2.035156 31.929687-.179688.539063-.324219 1.082031-.410157 1.628907-3.003906 11.824218-8.285156 22.730468-15.734374 32.222656zm61.917968 61.917968-33.101562-33.101562c7.484375-9.15625 13.355468-19.539062 17.460937-30.714844l4.0625 2.015625c1.425781.707031 2.941407 1.042969 4.4375 1.042969 3.683594 0 7.222657-2.039062 8.972657-5.558594 2.453124-4.953125.433593-10.957031-4.519532-13.410156l-7.695312-3.820312c1.152344-6.683594 1.726562-13.542969 1.695312-20.496094h5.75c5.527344 0 10.003906-4.480469 10.003906-10.003906 0-5.527344-4.476562-10.007813-10.003906-10.007813h-7.808594c-4.460937-17.722656-16.238281-25.074219-26.792968-25.878906-12.949219-.984375-25.011719 7.449219-28.058594 19.644531-.5625 2.269531-.855469 4.605469-.996094 7h-6.1875c-5.527344 0-10.003906 4.480469-10.003906 10.007812 0 5.523438 4.476562 10.003907 10.003906 10.003907h6.433594c-.136719 9.277343-1.808594 18.546875-9.746094 27.1875l-194.976562-194.957031c32.335937-21.976563 69.929687-33.539063 109.425781-33.539063 107.625 0 195.1875 87.546875 195.1875 195.15625 0 39.496094-11.5625 77.09375-33.542969 109.429687zm0 0"/><path d="m119.457031 350.679688c2.347657.550781 4.71875.820312 7.070313.820312 5.640625 0 11.183594-1.5625 16.101562-4.605469 6.972656-4.316406 11.84375-11.085937 13.714844-19.0625 1.871094-7.976562.519531-16.210937-3.804688-23.179687-4.324218-6.96875-11.097656-11.835938-19.070312-13.707032-7.980469-1.871093-16.210938-.523437-23.175781 3.792969-6.972657 4.320313-11.84375 11.097657-13.710938 19.082031-1.875 7.980469-.519531 16.207032 3.808594 23.171876 4.320313 6.953124 11.09375 11.8125 19.066406 13.6875zm-3.390625-32.292969c.648438-2.78125 2.34375-5.136719 4.769532-6.640625 1.707031-1.058594 3.636718-1.605469 5.601562-1.605469.816406 0 1.640625.097656 2.457031.289063 2.773438.648437 5.132813 2.347656 6.640625 4.773437 1.503906 2.425781 1.976563 5.285156 1.324219 8.058594-1.339844 5.71875-7.097656 9.28125-12.832031 7.933593-5.730469-1.34375-9.304688-7.089843-7.960938-12.808593zm0 0"/><path d="m144.203125 222.761719c-4.320313-6.964844-11.09375-11.835938-19.070313-13.707031-7.976562-1.871094-16.207031-.527344-23.171874 3.792968-6.972657 4.320313-11.84375 11.097656-13.714844 19.082032-1.871094 7.976562-.519532 16.210937 3.804687 23.179687s11.097657 11.835937 19.070313 13.707031c2.351562.550782 4.695312.816406 7.011718.816406 13.921876 0 26.558594-9.5625 29.878907-23.691406 1.871093-7.976562.519531-16.207031-3.808594-23.179687zm-15.675781 18.605469c-1.347656 5.738281-7.101563 9.3125-12.832032 7.96875-2.773437-.652344-5.132812-2.347657-6.636718-4.777344-1.507813-2.425782-1.976563-5.285156-1.328125-8.0625.652343-2.777344 2.347656-5.136719 4.769531-6.640625 1.710938-1.058594 3.640625-1.605469 5.601562-1.605469.820313 0 1.644532.097656 2.460938.289062 2.773438.648438 5.128906 2.347657 6.636719 4.773438 1.507812 2.425781 1.976562 5.289062 1.328125 8.054688zm0 0"/><path d="m254.503906 102.449219c-7.980468-1.875-16.210937-.527344-23.175781 3.789062-6.972656 4.320313-11.84375 11.101563-13.710937 19.085938-1.875 7.980469-.527344 16.207031 3.792968 23.167969 4.320313 6.957031 11.097656 11.820312 19.058594 13.683593 2.363281.5625 4.746094.839844 7.117188.839844 5.617187 0 11.144531-1.5625 16.050781-4.59375 6.984375-4.316406 11.863281-11.09375 13.738281-19.085937 3.867188-16.472657-6.394531-33.019532-22.871094-36.886719zm3.390625 32.3125c-.652343 2.777343-2.351562 5.136719-4.78125 6.640625-2.417969 1.492187-5.269531 1.957031-8.054687 1.292968-2.785156-.648437-5.144532-2.339843-6.644532-4.757812-1.5-2.414062-1.964843-5.269531-1.316406-8.046875.652344-2.78125 2.347656-5.136719 4.769532-6.640625 1.710937-1.058594 3.640624-1.605469 5.601562-1.605469.820312 0 1.644531.09375 2.460938.289063 5.734374 1.34375 9.308593 7.101562 7.964843 12.828125zm0 0"/><path d="m330.105469 135.671875c-7.609375-1.792969-15.464844-.511719-22.113281 3.617187-6.644532 4.121094-11.28125 10.585938-13.050782 18.171876-1.792968 7.609374-.507812 15.464843 3.617188 22.113281 4.125 6.644531 10.585937 11.28125 18.171875 13.046875 2.246093.53125 4.511719.792968 6.761719.792968 5.375 0 10.65625-1.492187 15.335937-4.394531 6.636719-4.113281 11.277344-10.570312 13.066406-18.183593 3.695313-15.6875-6.078125-31.460938-21.789062-35.164063zm2.308593 30.574219v.007812c-.566406 2.414063-2.03125 4.460938-4.128906 5.757813-2.089844 1.296875-4.5625 1.699219-6.988281 1.125-2.394531-.558594-4.429687-2.019531-5.730469-4.113281-1.300781-2.097657-1.707031-4.578126-1.136718-7 .558593-2.394532 2.019531-4.429688 4.113281-5.730469 1.480469-.917969 3.152343-1.390625 4.851562-1.390625.707031 0 1.417969.082031 2.125.246094 2.410157.570312 4.453125 2.039062 5.757813 4.136718 1.296875 2.09375 1.703125 4.566406 1.136718 6.960938zm0 0"/><path d="m215.03125 247.765625c2.195312 0 4.402344-.714844 6.246094-2.191406 4.316406-3.453125 5.015625-9.75 1.5625-14.066407l-.113282-.140624c-3.453124-4.3125-9.75-5.015626-14.066406-1.5625-4.3125 3.453124-5.011718 9.75-1.558594 14.0625l.113282.144531c1.976562 2.46875 4.882812 3.753906 7.816406 3.753906zm0 0"/></svg>