<?xml version="1.0" encoding="utf-8"?>
<!-- Generator: Adobe Illustrator 19.0.0, SVG Export Plug-In . SVG Version: 6.00 Build 0)  -->
<svg version="1.1" id="Warstwa_1" xmlns="http://www.w3.org/2000/svg" xmlns:xlink="http://www.w3.org/1999/xlink" x="0px" y="0px"
	 viewBox="6 -6 512 512" style="enable-background:new 6 -6 512 512;" xml:space="preserve">
<style type="text/css">
	.st0{fill:#23C495;}
</style>
<path class="st0" d="M201.1,349.4l-6,1.3c-5.4,1.2-8.8,6.6-7.6,11.9c1,4.7,5.2,7.8,9.8,7.8c0.7,0,1.5-0.1,2.2-0.2l7.7-1.7
	c3.3,6.9,7.5,13.4,12.4,19.4l-4.1,3.1c-4.4,3.3-5.3,9.6-2,14c2,2.6,5,4,8,4c2.1,0,4.2-0.7,6-2l6.6-5c5,3.9,10.4,7.5,16.1,10.5
	l-1.5,8.5c-1,5.4,2.7,10.6,8.1,11.6c0.6,0.1,1.2,0.2,1.7,0.2c4.8,0,9-3.4,9.8-8.3l0.8-4.4c3.5,0.8,6.7,1.2,9.7,1.2
	c11.8,0,19.8-5.9,23.7-12.8c5.9-10.3,3.7-23.7-5.2-31.1c-0.6-0.5-1.1-0.9-1.7-1.3l1.4-1.3c4.1-3.8,4.3-10.1,0.6-14.1
	s-10.1-4.3-14.1-0.6l-7.1,6.5c-6.5-3.2-12.3-7.2-16-14.6l7-5.2c4.4-3.3,5.3-9.6,2-14c-3.3-4.4-9.6-5.3-14-2l-1,0.8
	c-2.9-5.9-8.2-10.4-15.1-12.7c-10.9-3.6-23.3-0.7-30.8,7C204.8,329.8,199.8,337.3,201.1,349.4z M222.9,339.9
	c2.2-2.3,6.6-3.1,10.2-1.9c2.3,0.7,3.5,2,3.8,3.7c4.3,31.6,25,40.5,38.6,46.4c3.9,1.7,7.5,3.2,9.4,4.8c1.4,1.2,1.7,3.8,0.6,5.6
	c-1.9,3.4-7.8,3.7-15.4,0.9c-22.8-8.4-39.6-24.7-47.3-45.9C221.3,349.9,219.6,343.3,222.9,339.9z"/>
<path class="st0" d="M256.1,253.1c-3.9-3.9-10.2-3.9-14.2,0c-3.9,3.9-3.9,10.2,0,14.2l138.1,138.1c-33.9,25.8-75.4,39.8-118.1,39.8
	c-107.6,0-195.2-87.6-195.2-195.2c0-42.8,14.1-84.3,39.9-118.2l79.3,78.7c3.9,3.9,10.3,3.9,14.2-0.1c3.9-3.9,3.9-10.3-0.1-14.2
	l-87.2-86.5c-2-2-4.7-3-7.5-2.9c-2.8,0.1-5.4,1.4-7.2,3.5C65.1,149.3,46.8,198.8,46.8,250c0,118.7,96.5,215.2,215.2,215.2
	c51.1,0,100.7-18.3,139.6-51.4c2.1-1.8,3.4-4.4,3.5-7.2c0.1-2.8-0.9-5.5-2.9-7.5L256.1,253.1z"/>
<path class="st0" d="M443,69C394.8,20.7,330.6-5.9,262.4-6h-0.8C193.3-5.9,129.1,20.8,80.8,69.1C32.6,117.4,6,181.7,6,250
	c0,68.4,26.6,132.7,75,181c48.4,48.4,112.6,75,181,75c68.3,0,132.5-26.6,180.9-74.8c48.3-48.3,75-112.4,75.1-180.7v-0.8
	C517.9,181.4,491.3,117.2,443,69z M498,250.4C497.8,380.3,391.9,486,262,486C131.9,486,26,380.1,26,250
	C26,120.1,131.7,14.2,261.6,14h0.8C392.1,14.2,497.8,119.9,498,249.6V250.4z"/>
<path class="st0" d="M262,34.8c-47.8,0-93,15.3-130.9,44.4c-2.3,1.8-3.7,4.4-3.9,7.3c-0.2,2.9,0.9,5.7,2.9,7.7L339.9,304
	c0.1,0.1,0.1,0.1,0.2,0.2l24.2,24.2l53.5,53.5c1.9,1.9,4.4,2.9,7.1,2.9c0.2,0,0.4,0,0.7,0c2.9-0.2,5.5-1.6,7.3-3.9
	c29-37.9,44.4-83.1,44.4-130.9C477.2,131.3,380.6,34.8,262,34.8z M361.7,297.5c16.7-17.6,15.9-37.4,15.4-51.1c0-0.1,0-0.2,0-0.2
	c0,0,0,0,0-0.1c0-0.1,0-0.3,0-0.4c-0.2-4.7-0.3-9,0.4-11.7c0.7-2.7,3.9-4.8,7.1-4.5c5.3,0.4,9,6.7,9.9,16.9v0
	c1.1,11.1,0.3,21.8-2,31.9c-0.2,0.5-0.3,1.1-0.4,1.6c-3,11.8-8.3,22.7-15.7,32.2L361.7,297.5z M423.6,359.4l-33.1-33.1
	c7.5-9.2,13.4-19.5,17.5-30.7l4.1,2c1.4,0.7,2.9,1,4.4,1c3.7,0,7.2-2,9-5.6c2.5-5,0.4-11-4.5-13.4l-7.7-3.8
	c1.2-6.7,1.7-13.5,1.7-20.5h5.8c5.5,0,10-4.5,10-10c0-5.5-4.5-10-10-10h-7.8c-4.5-17.7-16.2-25.1-26.8-25.9
	c-12.9-1-25,7.4-28.1,19.6c-0.6,2.3-0.9,4.6-1,7h-6.2c-5.5,0-10,4.5-10,10c0,5.5,4.5,10,10,10h6.4c-0.1,9.3-1.8,18.5-9.7,27.2
	l-195-195c32.3-22,69.9-33.5,109.4-33.5c107.6,0,195.2,87.5,195.2,195.2C457.2,289.5,445.6,327.1,423.6,359.4z"/>
<path class="st0" d="M125.5,344.7c2.3,0.6,4.7,0.8,7.1,0.8c5.6,0,11.2-1.6,16.1-4.6c7-4.3,11.8-11.1,13.7-19.1s0.5-16.2-3.8-23.2
	s-11.1-11.8-19.1-13.7c-8-1.9-16.2-0.5-23.2,3.8c-7,4.3-11.8,11.1-13.7,19.1c-1.9,8-0.5,16.2,3.8,23.2
	C110.7,337.9,117.5,342.8,125.5,344.7z M122.1,312.4c0.6-2.8,2.3-5.1,4.8-6.6c1.7-1.1,3.6-1.6,5.6-1.6c0.8,0,1.6,0.1,2.5,0.3
	c2.8,0.6,5.1,2.3,6.6,4.8c1.5,2.4,2,5.3,1.3,8.1c-1.3,5.7-7.1,9.3-12.8,7.9C124.3,323.9,120.7,318.1,122.1,312.4z"/>
<path class="st0" d="M150.2,216.8c-4.3-7-11.1-11.8-19.1-13.7s-16.2-0.5-23.2,3.8c-7,4.3-11.8,11.1-13.7,19.1
	c-1.9,8-0.5,16.2,3.8,23.2s11.1,11.8,19.1,13.7c2.4,0.6,4.7,0.8,7,0.8c13.9,0,26.6-9.6,29.9-23.7C155.9,232,154.5,223.7,150.2,216.8
	z M134.5,235.4c-1.3,5.7-7.1,9.3-12.8,8c-2.8-0.7-5.1-2.3-6.6-4.8c-1.5-2.4-2-5.3-1.3-8.1c0.7-2.8,2.3-5.1,4.8-6.6
	c1.7-1.1,3.6-1.6,5.6-1.6c0.8,0,1.6,0.1,2.5,0.3c2.8,0.6,5.1,2.3,6.6,4.8S135.2,232.6,134.5,235.4z"/>
<path class="st0" d="M260.5,96.4c-8-1.9-16.2-0.5-23.2,3.8c-7,4.3-11.8,11.1-13.7,19.1c-1.9,8-0.5,16.2,3.8,23.2
	c4.3,7,11.1,11.8,19.1,13.7c2.4,0.6,4.7,0.8,7.1,0.8c5.6,0,11.1-1.6,16.1-4.6c7-4.3,11.9-11.1,13.7-19.1
	C287.2,116.9,277,100.3,260.5,96.4z M263.9,128.8c-0.7,2.8-2.4,5.1-4.8,6.6c-2.4,1.5-5.3,2-8.1,1.3c-2.8-0.6-5.1-2.3-6.6-4.8
	c-1.5-2.4-2-5.3-1.3-8c0.7-2.8,2.3-5.1,4.8-6.6c1.7-1.1,3.6-1.6,5.6-1.6c0.8,0,1.6,0.1,2.5,0.3C261.7,117.3,265.2,123,263.9,128.8z"
	/>
<path class="st0" d="M336.1,129.7c-7.6-1.8-15.5-0.5-22.1,3.6c-6.6,4.1-11.3,10.6-13.1,18.2c-1.8,7.6-0.5,15.5,3.6,22.1
	c4.1,6.6,10.6,11.3,18.2,13c2.2,0.5,4.5,0.8,6.8,0.8c5.4,0,10.7-1.5,15.3-4.4c6.6-4.1,11.3-10.6,13.1-18.2
	C361.6,149.1,351.8,133.4,336.1,129.7z M338.4,160.2L338.4,160.2c-0.6,2.4-2,4.5-4.1,5.8c-2.1,1.3-4.6,1.7-7,1.1
	c-2.4-0.6-4.4-2-5.7-4.1c-1.3-2.1-1.7-4.6-1.1-7c0.6-2.4,2-4.4,4.1-5.7c1.5-0.9,3.2-1.4,4.9-1.4c0.7,0,1.4,0.1,2.1,0.2
	c2.4,0.6,4.5,2,5.8,4.1C338.6,155.4,339,157.9,338.4,160.2z"/>
<path class="st0" d="M221,241.8c2.2,0,4.4-0.7,6.2-2.2c4.3-3.5,5-9.8,1.6-14.1l-0.1-0.1c-3.5-4.3-9.8-5-14.1-1.6
	c-4.3,3.5-5,9.8-1.6,14.1l0.1,0.1C215.2,240.5,218.1,241.8,221,241.8z"/>
</svg>
