<?xml version="1.0"?>
<svg xmlns="http://www.w3.org/2000/svg" id="Line_stroke_cutting_expand" data-name="Line stroke cutting expand" width="512" height="512" viewBox="0 0 512 512"><g><path d="M474.9651,324.002A27.8442,27.8442,0,0,0,480,308V292a28.0314,28.0314,0,0,0-28-28h-8a28.0314,28.0314,0,0,0-28,28v16a27.8442,27.8442,0,0,0,5.0349,16.002A38.0436,38.0436,0,0,0,400,358v18h16V358a22.0248,22.0248,0,0,1,22-22h20a22.0248,22.0248,0,0,1,22,22v18h16V358A38.0436,38.0436,0,0,0,474.9651,324.002ZM444,320a12.0134,12.0134,0,0,1-12-12V292a12.0134,12.0134,0,0,1,12-12h8a12.0134,12.0134,0,0,1,12,12v16a12.0134,12.0134,0,0,1-12,12Z"/><path d="M474.9651,204.002A27.8442,27.8442,0,0,0,480,188V172a28.0314,28.0314,0,0,0-28-28h-8a28.0314,28.0314,0,0,0-28,28v16a27.8442,27.8442,0,0,0,5.0349,16.002A38.0436,38.0436,0,0,0,400,238v18h16V238a22.0248,22.0248,0,0,1,22-22h20a22.0248,22.0248,0,0,1,22,22v18h16V238A38.0436,38.0436,0,0,0,474.9651,204.002ZM444,200a12.0134,12.0134,0,0,1-12-12V172a12.0134,12.0134,0,0,1,12-12h8a12.0134,12.0134,0,0,1,12,12v16a12.0134,12.0134,0,0,1-12,12Z"/><path d="M96,358v18h16V358a38.0436,38.0436,0,0,0-21.0349-33.998A27.8442,27.8442,0,0,0,96,308V292a28.0314,28.0314,0,0,0-28-28H60a28.0314,28.0314,0,0,0-28,28v16a27.8442,27.8442,0,0,0,5.0349,16.002A38.0436,38.0436,0,0,0,16,358v18H32V358a22.0248,22.0248,0,0,1,22-22H74A22.0248,22.0248,0,0,1,96,358ZM60,320a12.0134,12.0134,0,0,1-12-12V292a12.0134,12.0134,0,0,1,12-12h8a12.0134,12.0134,0,0,1,12,12v16a12.0134,12.0134,0,0,1-12,12Z"/><path d="M344,110a22.0248,22.0248,0,0,1,22-22h20a22.0248,22.0248,0,0,1,22,22v18h16V110a38.0436,38.0436,0,0,0-21.0349-33.998A27.8442,27.8442,0,0,0,408,60V44a28.0314,28.0314,0,0,0-28-28h-8a28.0314,28.0314,0,0,0-28,28V60a27.8442,27.8442,0,0,0,5.0349,16.002A38.0436,38.0436,0,0,0,328,110v18h16Zm16-66a12.0134,12.0134,0,0,1,12-12h8a12.0134,12.0134,0,0,1,12,12V60a12.0134,12.0134,0,0,1-12,12h-8a12.0134,12.0134,0,0,1-12-12Z"/><path d="M104,110a22.0248,22.0248,0,0,1,22-22h20a22.0248,22.0248,0,0,1,22,22v18h16V110a38.0436,38.0436,0,0,0-21.0349-33.998A27.8442,27.8442,0,0,0,168,60V44a28.0314,28.0314,0,0,0-28-28h-8a28.0314,28.0314,0,0,0-28,28V60a27.8442,27.8442,0,0,0,5.0349,16.002A38.0436,38.0436,0,0,0,88,110v18h16Zm16-66a12.0134,12.0134,0,0,1,12-12h8a12.0134,12.0134,0,0,1,12,12V60a12.0134,12.0134,0,0,1-12,12h-8a12.0134,12.0134,0,0,1-12-12Z"/><path d="M224,110a22.0248,22.0248,0,0,1,22-22h20a22.0248,22.0248,0,0,1,22,22v18h16V110a38.0436,38.0436,0,0,0-21.0349-33.998A27.8442,27.8442,0,0,0,288,60V44a28.0314,28.0314,0,0,0-28-28h-8a28.0314,28.0314,0,0,0-28,28V60a27.8442,27.8442,0,0,0,5.0349,16.002A38.0436,38.0436,0,0,0,208,110v18h16Zm16-66a12.0134,12.0134,0,0,1,12-12h8a12.0134,12.0134,0,0,1,12,12V60a12.0134,12.0134,0,0,1-12,12h-8a12.0134,12.0134,0,0,1-12-12Z"/><path d="M402.9651,444.002A27.8442,27.8442,0,0,0,408,428V412a28.0314,28.0314,0,0,0-28-28h-8a28.0314,28.0314,0,0,0-28,28v16a27.8442,27.8442,0,0,0,5.0349,16.002A38.0436,38.0436,0,0,0,328,478v18h16V478a22.0248,22.0248,0,0,1,22-22h20a22.0248,22.0248,0,0,1,22,22v18h16V478A38.0436,38.0436,0,0,0,402.9651,444.002ZM372,440a12.0134,12.0134,0,0,1-12-12V412a12.0134,12.0134,0,0,1,12-12h8a12.0134,12.0134,0,0,1,12,12v16a12.0134,12.0134,0,0,1-12,12Z"/><path d="M162.9651,444.002A27.8442,27.8442,0,0,0,168,428V412a28.0314,28.0314,0,0,0-28-28h-8a28.0314,28.0314,0,0,0-28,28v16a27.8442,27.8442,0,0,0,5.0349,16.002A38.0436,38.0436,0,0,0,88,478v18h16V478a22.0248,22.0248,0,0,1,22-22h20a22.0248,22.0248,0,0,1,22,22v18h16V478A38.0436,38.0436,0,0,0,162.9651,444.002ZM132,440a12.0134,12.0134,0,0,1-12-12V412a12.0134,12.0134,0,0,1,12-12h8a12.0134,12.0134,0,0,1,12,12v16a12.0134,12.0134,0,0,1-12,12Z"/><path d="M282.9651,444.002A27.8442,27.8442,0,0,0,288,428V412a28.0314,28.0314,0,0,0-28-28h-8a28.0314,28.0314,0,0,0-28,28v16a27.8442,27.8442,0,0,0,5.0349,16.002A38.0436,38.0436,0,0,0,208,478v18h16V478a22.0248,22.0248,0,0,1,22-22h20a22.0248,22.0248,0,0,1,22,22v18h16V478A38.0436,38.0436,0,0,0,282.9651,444.002ZM252,440a12.0134,12.0134,0,0,1-12-12V412a12.0134,12.0134,0,0,1,12-12h8a12.0134,12.0134,0,0,1,12,12v16a12.0134,12.0134,0,0,1-12,12Z"/><path d="M32,238a22.0248,22.0248,0,0,1,22-22H74a22.0248,22.0248,0,0,1,22,22v18h16V238a38.0436,38.0436,0,0,0-21.0349-33.998A27.8442,27.8442,0,0,0,96,188V172a28.0314,28.0314,0,0,0-28-28H60a28.0314,28.0314,0,0,0-28,28v16a27.8442,27.8442,0,0,0,5.0349,16.002A38.0436,38.0436,0,0,0,16,238v18H32Zm16-66a12.0134,12.0134,0,0,1,12-12h8a12.0134,12.0134,0,0,1,12,12v16a12.0134,12.0134,0,0,1-12,12H60a12.0134,12.0134,0,0,1-12-12Z"/><path d="M315.0635,190.7412a8.0018,8.0018,0,0,0-3.0293-5.811A89.5713,89.5713,0,0,0,256,165.5,90.6022,90.6022,0,0,0,165.5,256a89.577,89.577,0,0,0,19.43,56.0347,8.0019,8.0019,0,0,0,5.81,3.0293q.236.0138.4688.0136a8.0009,8.0009,0,0,0,5.6572-2.3432L312.7344,196.8662A8,8,0,0,0,315.0635,190.7412ZM192.2988,294.6743A73.6784,73.6784,0,0,1,181.5,256,74.5845,74.5845,0,0,1,256,181.5a73.6728,73.6728,0,0,1,38.6738,10.7988Z"/><path d="M321.251,208.1484,208.1484,321.251a8.0009,8.0009,0,0,0,1.56,12.5278A90.52,90.52,0,0,0,333.7793,209.7075a8,8,0,0,0-12.5283-1.5591ZM256,330.5a74.5774,74.5774,0,0,1-28.7285-5.7451l97.4844-97.4834A74.5356,74.5356,0,0,1,256,330.5Z"/><path d="M256,136A120,120,0,1,0,376,256,120.1362,120.1362,0,0,0,256,136Zm0,224A104,104,0,1,1,360,256,104.1179,104.1179,0,0,1,256,360Z"/></g></svg>
