<?xml version="1.0" encoding="utf-8"?>
<!-- Generator: Adobe Illustrator 19.0.0, SVG Export Plug-In . SVG Version: 6.00 Build 0)  -->
<svg version="1.1" id="Line_stroke_cutting_expand" xmlns="http://www.w3.org/2000/svg" xmlns:xlink="http://www.w3.org/1999/xlink"
	 x="0px" y="0px" viewBox="6 -6 512 512" style="enable-background:new 6 -6 512 512;" xml:space="preserve">
<style type="text/css">
	.st0{fill:#23C495;}
</style>
<g>
	<path class="st0" d="M481,318c3.3-4.7,5-10.3,5-16v-16c0-15.5-12.5-28-28-28h-8c-15.5,0-28,12.5-28,28v16c0,5.7,1.8,11.3,5,16
		c-12.9,6.4-21,19.6-21,34v18h16v-18c0-12.1,9.9-22,22-22h20c12.1,0,22,9.9,22,22v18h16v-18C502,337.6,493.8,324.4,481,318z
		 M450,314c-6.6,0-12-5.4-12-12v-16c0-6.6,5.4-12,12-12h8c6.6,0,12,5.4,12,12v16c0,6.6-5.4,12-12,12H450z"/>
	<path class="st0" d="M481,198c3.3-4.7,5-10.3,5-16v-16c0-15.5-12.5-28-28-28h-8c-15.5,0-28,12.5-28,28v16c0,5.7,1.8,11.3,5,16
		c-12.9,6.4-21,19.6-21,34v18h16v-18c0-12.1,9.9-22,22-22h20c12.1,0,22,9.9,22,22v18h16v-18C502,217.6,493.8,204.4,481,198z
		 M450,194c-6.6,0-12-5.4-12-12v-16c0-6.6,5.4-12,12-12h8c6.6,0,12,5.4,12,12v16c0,6.6-5.4,12-12,12H450z"/>
	<path class="st0" d="M102,352v18h16v-18c0-14.4-8.2-27.6-21-34c3.3-4.7,5-10.3,5-16v-16c0-15.5-12.5-28-28-28h-8
		c-15.5,0-28,12.5-28,28v16c0,5.7,1.8,11.3,5,16c-12.9,6.4-21,19.6-21,34v18h16v-18c0-12.1,9.9-22,22-22h20
		C92.1,330,102,339.9,102,352z M66,314c-6.6,0-12-5.4-12-12v-16c0-6.6,5.4-12,12-12h8c6.6,0,12,5.4,12,12v16c0,6.6-5.4,12-12,12H66z
		"/>
	<path class="st0" d="M350,104c0-12.1,9.9-22,22-22h20c12.1,0,22,9.9,22,22v18h16v-18c0-14.4-8.2-27.6-21-34c3.3-4.7,5-10.3,5-16V38
		c0-15.5-12.5-28-28-28h-8c-15.5,0-28,12.5-28,28v16c0,5.7,1.8,11.3,5,16c-12.9,6.4-21,19.6-21,34v18h16V104z M366,38
		c0-6.6,5.4-12,12-12h8c6.6,0,12,5.4,12,12v16c0,6.6-5.4,12-12,12h-8c-6.6,0-12-5.4-12-12V38z"/>
	<path class="st0" d="M110,104c0-12.1,9.9-22,22-22h20c12.1,0,22,9.9,22,22v18h16v-18c0-14.4-8.2-27.6-21-34c3.3-4.7,5-10.3,5-16V38
		c0-15.5-12.5-28-28-28h-8c-15.5,0-28,12.5-28,28v16c0,5.7,1.8,11.3,5,16c-12.9,6.4-21,19.6-21,34v18h16V104z M126,38
		c0-6.6,5.4-12,12-12h8c6.6,0,12,5.4,12,12v16c0,6.6-5.4,12-12,12h-8c-6.6,0-12-5.4-12-12V38z"/>
	<path class="st0" d="M230,104c0-12.1,9.9-22,22-22h20c12.1,0,22,9.9,22,22v18h16v-18c0-14.4-8.2-27.6-21-34c3.3-4.7,5-10.3,5-16V38
		c0-15.5-12.5-28-28-28h-8c-15.5,0-28,12.5-28,28v16c0,5.7,1.8,11.3,5,16c-12.9,6.4-21,19.6-21,34v18h16V104z M246,38
		c0-6.6,5.4-12,12-12h8c6.6,0,12,5.4,12,12v16c0,6.6-5.4,12-12,12h-8c-6.6,0-12-5.4-12-12V38z"/>
	<path class="st0" d="M409,438c3.3-4.7,5-10.3,5-16v-16c0-15.5-12.5-28-28-28h-8c-15.5,0-28,12.5-28,28v16c0,5.7,1.8,11.3,5,16
		c-12.9,6.4-21,19.6-21,34v18h16v-18c0-12.1,9.9-22,22-22h20c12.1,0,22,9.9,22,22v18h16v-18C430,457.6,421.8,444.4,409,438z
		 M378,434c-6.6,0-12-5.4-12-12v-16c0-6.6,5.4-12,12-12h8c6.6,0,12,5.4,12,12v16c0,6.6-5.4,12-12,12H378z"/>
	<path class="st0" d="M169,438c3.3-4.7,5-10.3,5-16v-16c0-15.5-12.5-28-28-28h-8c-15.5,0-28,12.5-28,28v16c0,5.7,1.8,11.3,5,16
		c-12.9,6.4-21,19.6-21,34v18h16v-18c0-12.1,9.9-22,22-22h20c12.1,0,22,9.9,22,22v18h16v-18C190,457.6,181.8,444.4,169,438z
		 M138,434c-6.6,0-12-5.4-12-12v-16c0-6.6,5.4-12,12-12h8c6.6,0,12,5.4,12,12v16c0,6.6-5.4,12-12,12H138z"/>
	<path class="st0" d="M289,438c3.3-4.7,5-10.3,5-16v-16c0-15.5-12.5-28-28-28h-8c-15.5,0-28,12.5-28,28v16c0,5.7,1.8,11.3,5,16
		c-12.9,6.4-21,19.6-21,34v18h16v-18c0-12.1,9.9-22,22-22h20c12.1,0,22,9.9,22,22v18h16v-18C310,457.6,301.8,444.4,289,438z
		 M258,434c-6.6,0-12-5.4-12-12v-16c0-6.6,5.4-12,12-12h8c6.6,0,12,5.4,12,12v16c0,6.6-5.4,12-12,12H258z"/>
	<path class="st0" d="M38,232c0-12.1,9.9-22,22-22h20c12.1,0,22,9.9,22,22v18h16v-18c0-14.4-8.2-27.6-21-34c3.3-4.7,5-10.3,5-16v-16
		c0-15.5-12.5-28-28-28h-8c-15.5,0-28,12.5-28,28v16c0,5.7,1.8,11.3,5,16c-12.9,6.4-21,19.6-21,34v18h16V232z M54,166
		c0-6.6,5.4-12,12-12h8c6.6,0,12,5.4,12,12v16c0,6.6-5.4,12-12,12h-8c-6.6,0-12-5.4-12-12V166z"/>
	<path class="st0" d="M321.1,184.7c-0.1-2.3-1.2-4.4-3-5.8c-15.9-12.7-35.7-19.5-56-19.4c-50,0.1-90.4,40.5-90.5,90.5
		c-0.1,20.3,6.8,40.1,19.4,56c1.4,1.8,3.5,2.9,5.8,3c0.2,0,0.3,0,0.5,0c2.1,0,4.2-0.8,5.7-2.3l115.9-115.9
		C320.3,189.3,321.2,187,321.1,184.7z M198.3,288.7c-7.1-11.6-10.8-25-10.8-38.7c0-41.1,33.4-74.5,74.5-74.5
		c13.6-0.1,27,3.7,38.7,10.8L198.3,288.7z"/>
	<path class="st0" d="M327.3,202.1L214.1,315.3c-3.1,3.1-3.1,8.2,0,11.3c0.5,0.5,1,0.9,1.6,1.2c43,25.6,98.5,11.4,124.1-31.5
		c17-28.5,17-64,0-92.5c-2.3-3.8-7.2-5-11-2.8C328.2,201.3,327.7,201.7,327.3,202.1z M262,324.5c-9.9,0-19.6-1.9-28.7-5.7l97.5-97.5
		c15.8,38-2.1,81.6-40.1,97.5C281.6,322.5,271.8,324.5,262,324.5z"/>
	<path class="st0" d="M262,130c-66.3,0-120,53.7-120,120s53.7,120,120,120s120-53.7,120-120C381.9,183.8,328.2,130.1,262,130z
		 M262,354c-57.4,0-104-46.6-104-104s46.6-104,104-104s104,46.6,104,104C365.9,307.4,319.4,353.9,262,354z"/>
</g>
</svg>
