<svg height="512" viewBox="0 0 61 60" width="512" xmlns="http://www.w3.org/2000/svg"><g id="Page-1" fill="none" fill-rule="evenodd"><g id="030---Webcam-Streaming" fill="rgb(0,0,0)" fill-rule="nonzero" transform="translate(0 -1)"><path id="Shape" d="m31 26c3.8659932 0 7-3.1340068 7-7s-3.1340068-7-7-7-7 3.1340068-7 7c.0044086 3.8641657 3.1358343 6.9955914 7 7zm0-12c2.7614237 0 5 2.2385763 5 5s-2.2385763 5-5 5-5-2.2385763-5-5c.0033061-2.7600532 2.2399468-4.9966939 5-5z"/><path id="Shape" d="m31 22c1.6568542 0 3-1.3431458 3-3s-1.3431458-3-3-3-3 1.3431458-3 3 1.3431458 3 3 3zm0-4c.5522847 0 1 .4477153 1 1s-.4477153 1-1 1-1-.4477153-1-1 .4477153-1 1-1z"/><path id="Shape" d="m51 21c.0123821-10.1400588-7.5656968-18.68479255-17.6345955-19.8840529-10.0688987-1.19926036-19.4419553 5.32650133-21.8116046 15.1857969-2.36964925 9.8592955 3.0140688 19.9317995 12.5282001 23.439256l-8.894 12.292c-.8678882 1.1927403-.7362617 2.8401944.31 3.88l4.209 4.208c.5610959.5647128 1.3249322.8812673 2.121.879h18.344c.7960678.0022673 1.5599041-.3142872 2.121-.879l4.207-4.208c1.0460036-1.0403272 1.1775994-2.6878212.31-3.881l-8.892-12.291c7.8512294-2.8959529 13.0703207-10.3727141 13.082-18.741zm-11-15.564v13.564c0 4.9705627-4.0294373 9-9 9s-9-4.0294373-9-9v-13.564c5.5604593-3.247919 12.4395407-3.247919 18 0zm-27 15.564c.0043739-5.5673601 2.5898359-10.8180639 7-14.216v12.216c0 6.0751322 4.9248678 11 11 11s11-4.9248678 11-11v-12.216c4.5326425 3.4886689 7.1308091 8.929023 6.9950954 14.6471731-.1357138 5.7181501-2.9890506 11.029119-7.6820954 14.2988269-3.1158889-1.8537576-6.6880351-2.7993563-10.313-2.73-3.6249649-.0693563-7.1971111.8762424-10.313 2.73-4.8134951-3.3605553-7.6831627-8.859476-7.687-14.73zm18 18c-2.9197367.0008169-5.7952159-.7136753-8.375-2.081 2.6002161-1.2941227 5.4707277-1.9518555 8.375-1.919 2.9042723-.0328555 5.7747839.6248773 8.375 1.919-2.5797841 1.3673247-5.4552633 2.0818169-8.375 2.081zm9.879 19.707c-.1880463.1867195-.4420009.2919651-.707.293h-18.344c-.2649991-.0010349-.5189537-.1062805-.707-.293l-3.707-3.707h27.172zm4.163-5.707h-28.084l9.142-12.633c3.2121935.8436718 6.5878065.8436718 9.8 0z"/><path id="Shape" d="m28 50c0 .5522847.4477153 1 1 1h4c.5522847 0 1-.4477153 1-1s-.4477153-1-1-1h-4c-.5522847 0-1 .4477153-1 1z"/><path id="Shape" d="m4.465 12.515c-4.67875071 4.6891928-4.67875071 12.2808072 0 16.97.39237889.3789722 1.01608478.3735524 1.40181858-.0121814.38573379-.3857338.39115363-1.0094397.01218142-1.4018186-3.90018973-3.9072817-3.90018973-10.2347183 0-14.142.37897221-.3923789.37355237-1.0160848-.01218142-1.4018186-.3857338-.3857338-1.00943969-.3911536-1.40181858-.0121814z"/><path id="Shape" d="m8.707 15.343c-.39049985-.3903819-1.02350015-.3903819-1.414 0-3.1188771 3.1265087-3.1188771 8.1874913 0 11.314.25107447.2599566.62287789.3642126.97250732.2726972.34962944-.0915155.6226744-.3645604.71418984-.7141899.09151544-.3496294-.01274058-.7214328-.27269716-.9725073-2.33921535-2.3450529-2.33921535-6.1409471 0-8.486.39038194-.3904999.39038194-1.0235001 0-1.414z"/><path id="Shape" d="m56.076 28.071c-.2599566.2510745-.3642126.6228779-.2726972.9725073.0915155.3496295.3645604.6226744.7141899.7141899.3496294.0915154.7214328-.0127406.9725073-.2726972 4.6787507-4.6891928 4.6787507-12.2808072 0-16.97-.3923789-.3789722-1.0160848-.3735524-1.4018186.0121814s-.3911536 1.0094397-.0121814 1.4018186c3.9001897 3.9072817 3.9001897 10.2347183 0 14.142z"/><path id="Shape" d="m53.248 26.657c.3904999.3903819 1.0235001.3903819 1.414 0 3.1188771-3.1265087 3.1188771-8.1874913 0-11.314-.3923789-.3789722-1.0160848-.3735524-1.4018186.0121814s-.3911536 1.0094397-.0121814 1.4018186c2.3392154 2.3450529 2.3392154 6.1409471 0 8.486-.3903819.3904999-.3903819 1.0235001 0 1.414z"/></g></g></svg>