<?xml version="1.0" encoding="utf-8"?>
<!-- Generator: Adobe Illustrator 19.0.0, SVG Export Plug-In . SVG Version: 6.00 Build 0)  -->
<svg version="1.1" id="Warstwa_1" xmlns="http://www.w3.org/2000/svg" xmlns:xlink="http://www.w3.org/1999/xlink" x="0px" y="0px"
	 viewBox="6 -6 512 512" style="enable-background:new 6 -6 512 512;" xml:space="preserve">
<style type="text/css">
	.st0{fill:#23C495;}
</style>
<g id="Page-1">
	<g id="_x30_30---Webcam-Streaming" transform="translate(0 -1)">
		<path id="Shape" class="st0" d="M266.2,209c32.4,0,58.8-26.3,58.8-58.8s-26.3-58.8-58.8-58.8s-58.8,26.3-58.8,58.8
			C207.5,182.7,233.8,209,266.2,209z M266.2,108.3c23.2,0,42,18.8,42,42s-18.8,42-42,42s-42-18.8-42-42
			C224.3,127.1,243,108.3,266.2,108.3z"/>
		<path id="Shape_1_" class="st0" d="M266.2,175.5c13.9,0,25.2-11.3,25.2-25.2c0-13.9-11.3-25.2-25.2-25.2
			c-13.9,0-25.2,11.3-25.2,25.2C241,164.2,252.3,175.5,266.2,175.5z M266.2,141.9c4.6,0,8.4,3.8,8.4,8.4c0,4.6-3.8,8.4-8.4,8.4
			s-8.4-3.8-8.4-8.4C257.8,145.6,261.6,141.9,266.2,141.9z"/>
		<path id="Shape_2_" class="st0" d="M434.1,167.1c0.1-85.1-63.5-156.8-148-166.9C201.5-9.9,122.9,44.9,103,127.6
			s25.3,167.3,105.2,196.7l-74.7,103.2c-7.3,10-6.2,23.8,2.6,32.6l35.3,35.3c4.7,4.7,11.1,7.4,17.8,7.4h154c6.7,0,13.1-2.6,17.8-7.4
			l35.3-35.3c8.8-8.7,9.9-22.6,2.6-32.6l-74.6-103.2C390.2,300.1,434,237.3,434.1,167.1L434.1,167.1z M341.7,36.4v113.8
			c0,41.7-33.8,75.5-75.5,75.5s-75.5-33.8-75.5-75.5V36.4C237.3,9.2,295.1,9.2,341.7,36.4z M115.1,167.1
			c0-46.7,21.7-90.8,58.8-119.3v102.5c0,51,41.3,92.3,92.3,92.3s92.3-41.3,92.3-92.3V47.7c38,29.3,59.9,74.9,58.7,122.9
			c-1.1,48-25.1,92.6-64.5,120c-26.2-15.6-56.1-23.5-86.6-22.9c-30.4-0.6-60.4,7.4-86.6,22.9C139.2,262.5,115.1,216.3,115.1,167.1z
			 M266.2,318.1c-24.5,0-48.6-6-70.3-17.5c21.8-10.9,45.9-16.4,70.3-16.1c24.4-0.3,48.5,5.2,70.3,16.1
			C314.8,312.2,290.7,318.2,266.2,318.1z M349.1,483.6c-1.6,1.6-3.7,2.5-5.9,2.5h-154c-2.2,0-4.4-0.9-5.9-2.5l-31.1-31.1h228.1
			L349.1,483.6z M384.1,435.7H148.3l76.7-106c27,7.1,55.3,7.1,82.3,0L384.1,435.7z"/>
		<path id="Shape_3_" class="st0" d="M241,410.5c0,4.6,3.8,8.4,8.4,8.4H283c4.6,0,8.4-3.8,8.4-8.4s-3.8-8.4-8.4-8.4h-33.6
			C244.8,402.1,241,405.8,241,410.5z"/>
		<path id="Shape_4_" class="st0" d="M43.5,95.8c-39.3,39.4-39.3,103.1,0,142.4c3.3,3.2,8.5,3.1,11.8-0.1c3.2-3.2,3.3-8.5,0.1-11.8
			c-32.7-32.8-32.7-85.9,0-118.7c3.2-3.3,3.1-8.5-0.1-11.8S46.8,92.7,43.5,95.8z"/>
		<path id="Shape_5_" class="st0" d="M79.1,119.6c-3.3-3.3-8.6-3.3-11.9,0c-26.2,26.2-26.2,68.7,0,95c2.1,2.2,5.2,3.1,8.2,2.3
			c2.9-0.8,5.2-3.1,6-6c0.8-2.9-0.1-6.1-2.3-8.2c-19.6-19.7-19.6-51.5,0-71.2C82.4,128.2,82.4,122.9,79.1,119.6L79.1,119.6z"/>
		<path id="Shape_6_" class="st0" d="M476.7,226.4c-2.2,2.1-3.1,5.2-2.3,8.2s3.1,5.2,6,6c2.9,0.8,6.1-0.1,8.2-2.3
			c39.3-39.4,39.3-103.1,0-142.4c-3.3-3.2-8.5-3.1-11.8,0.1s-3.3,8.5-0.1,11.8C509.4,140.5,509.4,193.6,476.7,226.4L476.7,226.4z"/>
		<path id="Shape_7_" class="st0" d="M452.9,214.5c3.3,3.3,8.6,3.3,11.9,0c26.2-26.2,26.2-68.7,0-95c-3.3-3.2-8.5-3.1-11.8,0.1
			s-3.3,8.5-0.1,11.8c19.6,19.7,19.6,51.5,0,71.2C449.7,206,449.7,211.3,452.9,214.5L452.9,214.5z"/>
	</g>
</g>
</svg>
