<?xml version="1.0" encoding="utf-8"?>
<!-- Generator: Adobe Illustrator 19.0.0, SVG Export Plug-In . SVG Version: 6.00 Build 0)  -->
<svg version="1.1" id="Capa_1" xmlns="http://www.w3.org/2000/svg" xmlns:xlink="http://www.w3.org/1999/xlink" x="0px" y="0px"
	 viewBox="6 -6 512 512" style="enable-background:new 6 -6 512 512;" xml:space="preserve">
<style type="text/css">
	.st0{fill:#23C495;}
</style>
<g>
	<path class="st0" d="M513.6,416.8l-86.5-86.5l42.4-42.4c3.7-3.7,5.2-9,4-14.1s-4.9-9.1-9.9-10.8l-254.6-84.9
		c-5.4-1.8-11.3-0.4-15.4,3.6c-4,4-5.4,10-3.6,15.4L275,451.7c1.6,4.9,5.7,8.7,10.8,9.9c5.1,1.2,10.4-0.3,14.1-4l42.4-42.4
		l86.5,86.5c2.9,2.9,6.8,4.4,10.6,4.4s7.7-1.5,10.6-4.4l63.6-63.6C519.5,432.1,519.5,422.6,513.6,416.8z M439.4,469.8l-86.5-86.5
		c-5.9-5.9-15.4-5.9-21.2,0l-35.9,35.9l-67.7-203.1l203.1,67.7l-35.9,35.9c-5.9,5.9-5.9,15.4,0,21.2l86.5,86.5L439.4,469.8z"/>
	<path class="st0" d="M201,114c8.3,0,15-6.7,15-15V9c0-8.3-6.7-15-15-15s-15,6.7-15,15v90C186,107.3,192.7,114,201,114z"/>
	<path class="st0" d="M84.3,51.1c-5.9-5.9-15.4-5.9-21.2,0c-5.9,5.9-5.9,15.4,0,21.2l63.6,63.6c5.9,5.9,15.4,5.9,21.2,0
		c5.9-5.9,5.9-15.4,0-21.2L84.3,51.1z"/>
	<path class="st0" d="M126.8,242l-63.6,63.6c-5.9,5.9-5.9,15.4,0,21.2c5.9,5.9,15.4,5.9,21.2,0l63.6-63.6c5.9-5.9,5.9-15.4,0-21.2
		C142.1,236.2,132.6,236.2,126.8,242z"/>
	<path class="st0" d="M275.2,136l63.6-63.6c5.9-5.9,5.9-15.4,0-21.2c-5.9-5.9-15.4-5.9-21.2,0L254,114.8c-5.9,5.9-5.9,15.4,0,21.2
		C259.9,141.8,269.4,141.8,275.2,136z"/>
	<path class="st0" d="M126,189c0-8.3-6.7-15-15-15H21c-8.3,0-15,6.7-15,15s6.7,15,15,15h90C119.3,204,126,197.3,126,189z"/>
</g>
</svg>
