<?xml version="1.0" encoding="utf-8"?>
<!-- Generator: Adobe Illustrator 19.0.0, SVG Export Plug-In . SVG Version: 6.00 Build 0)  -->
<svg version="1.1" id="Outline" xmlns="http://www.w3.org/2000/svg" xmlns:xlink="http://www.w3.org/1999/xlink" x="0px" y="0px"
	 viewBox="6 -6 512 512" style="enable-background:new 6 -6 512 512;" xml:space="preserve">
<style type="text/css">
	.st0{fill:#23C495;}
</style>
<g>
	<path class="st0" d="M463.3,74l-61.6-32.7l-7.5,14.1l63.3,33.6c1.2,0.6,2.4,0.9,3.7,0.9h40V74H463.3z"/>
	<path class="st0" d="M460.6,154l-48.1,4.4c-22.6,2-44.8-6.7-60-23.5l-24.9-27.7c-7.8-8.7-8.2-21.6-1.1-30.8l42.4,28.3
		c3.7,2.5,8.6,1.5,11.1-2.1s1.5-8.6-2.1-11.1c0,0-0.1-0.1-0.1-0.1l-48-32l0,0l0,0c-1.3-0.9-2.9-1.3-4.5-1.3h-88
		c-18.9,0-35.1-13.4-38.7-32h140l39.6,21l7.5-14.1l-41.3-21.9c-1.2-0.6-2.4-0.9-3.7-0.9H190c-4.4,0-7.9,3.5-8,7.9
		c-0.4,30.6,24,55.7,54.6,56.1c0.3,0,0.5,0,0.8,0h71.9c-6.9,14.6-4.4,31.9,6.4,43.9l24.9,27.7c16.7,18.5,40.5,29.1,65.5,29.1
		c2.6,0,5.2-0.1,7.9-0.4l47.7-4.3h39.6v-16h-40C461.1,154,460.9,154,460.6,154L460.6,154z"/>
	<path class="st0" d="M286.7,426H254v16h32.7c18.9,0,35.1,13.4,38.7,32h-140L66.4,410.9c-1.2-0.6-2.4-0.9-3.7-0.9h-40v16h38
		l118.9,63.1c1.2,0.6,2.4,0.9,3.7,0.9H334c4.4,0,7.9-3.5,8-7.9c0.4-30.6-24-55.7-54.6-56.1C287.2,426,286.9,426,286.7,426L286.7,426
		z"/>
	<path class="st0" d="M63.4,346l48.1-4.4c22.6-2,44.8,6.7,60,23.5l24.9,27.7c7.8,8.7,8.2,21.6,1.1,30.8l-42.4-28.3
		c-3.7-2.5-8.6-1.5-11.1,2.1c-2.5,3.7-1.5,8.6,2.1,11.1c0,0,0.1,0.1,0.1,0.1l48,32l0,0l0,0c1.3,0.9,2.8,1.3,4.4,1.3H238v-16h-23.3
		c6.9-14.6,4.4-31.9-6.4-43.9l-24.9-27.7c-18.6-20.6-45.8-31.2-73.4-28.8L62.3,330H22.7v16h40C62.9,346,63.1,346,63.4,346L63.4,346z
		"/>
	<path class="st0" d="M294,146h-64c-4.4,0-8,3.6-8,8v56h-16v16h24c4.4,0,8-3.6,8-8v-56h48v56c0,4.4,3.6,8,8,8h56v48h-56
		c-4.4,0-8,3.6-8,8v56h-48v-56c0-4.4-3.6-8-8-8h-56v-48h16v-16h-24c-4.4,0-8,3.6-8,8v64c0,4.4,3.6,8,8,8h56v56c0,4.4,3.6,8,8,8h64
		c4.4,0,8-3.6,8-8v-56h56c4.4,0,8-3.6,8-8v-64c0-4.4-3.6-8-8-8h-56v-56C302,149.6,298.4,146,294,146z"/>
	<path class="st0" d="M110,250c0,17,2.8,33.9,8.4,50l15.1-5.3c-5-14.4-7.6-29.5-7.6-44.7c0-75,61-136,136-136
		c5.1,0,10.1,0.3,15.1,0.8l1.8-15.9c-5.6-0.6-11.2-0.9-16.9-0.9C178.2,98,110,166.2,110,250L110,250z"/>
	<path class="st0" d="M262,386c-5.1,0-10.1-0.3-15.1-0.8l-1.8,15.9c5.6,0.6,11.2,0.9,16.9,0.9c83.8,0,152-68.2,152-152
		c0-17-2.8-33.9-8.4-50l-15.1,5.3c5,14.4,7.6,29.5,7.6,44.7C398,325,337,386,262,386L262,386z"/>
	<path class="st0" d="M434.9,195.6c-2.6,2-3.8,5.3-3,8.5c21.1,78.6-14.3,161.5-85.8,200.5l7.7,14c71.7-39.1,110.8-119.2,97.6-199.8
		l22.3,13.9l8.5-13.6l-38.3-24C441.1,193.5,437.6,193.6,434.9,195.6z"/>
	<path class="st0" d="M82.4,298c4.4,0,8-3.6,8-8c0-0.6-0.1-1.2-0.2-1.7C72.4,208.5,111.9,127,185.5,91.5l-7-14.4
		C103.9,113.1,60.9,193,71.6,275.1L41.8,259L34.2,273l44.4,24C79.7,297.7,81,298,82.4,298z"/>
</g>
</svg>
