<?xml version="1.0" encoding="utf-8"?>
<!-- Generator: Adobe Illustrator 19.0.0, SVG Export Plug-In . SVG Version: 6.00 Build 0)  -->
<svg version="1.1" id="Outline" xmlns="http://www.w3.org/2000/svg" xmlns:xlink="http://www.w3.org/1999/xlink" x="0px" y="0px"
	 viewBox="6 -6 512 512" style="enable-background:new 6 -6 512 512;" xml:space="preserve">
<style type="text/css">
	.st0{fill:#23C495;}
</style>
<g>
	<path class="st0" d="M444.5,100.2l-95.7-65.8c-8-5.5-17.5-8.5-27.2-8.4h-57.2c-7.2-10-18.7-15.9-31-16h-24.1
		c-9.2,0-18.1,3.3-25,9.4L156.2,44l10.5,12l28.1-24.6c4-3.5,9.2-5.4,14.5-5.4h24.1c9.1,0,17.2,5.6,20.5,14.1l30.3,78.8l-90.6,60.4
		L118.9,226H118v0.6l-40,25V148.2c0-9.2,4-18,10.9-24.1l66.3-58l-10.5-12l-66.3,58C68,121.1,62,134.3,62,148.2V266c0,4.4,3.6,8,8,8
		c1.5,0,3-0.4,4.2-1.2l3.8-2.4V284c0,19,14,35.1,32.9,37.7l-0.5,14.6c-0.3,7.8,1.8,15.5,6.1,22l0.1,0.1l21.5,32.1l0.2-0.1
		c1.2,20,9.2,39,22.6,53.9l33.3,36.6c5.3,5.8,12.8,9.2,20.7,9.2H270v-16h-55.2c-3.4,0-6.6-1.4-8.9-3.9l-33.3-36.6
		c-21.6-23.9-24.8-59.2-7.8-86.6l6.2-9.9l90.9-22.7l90.9,22.7l6.2,9.9c17,27.4,13.8,62.7-7.8,86.6L318,470.1
		c-2.3,2.5-5.5,3.9-8.9,3.9H286v16h23.2c7.9,0,15.4-3.3,20.7-9.2l33.3-36.6c13.1-14.4,21-32.7,22.5-52.1l21.9-33.9
		c4.2-6.5,6.4-14.2,6.1-22l-0.5-14.6C432,319.1,446,303,446,284v-28c0-8.3-2.7-16.4-7.8-23c6.4-5.4,10.9-12.8,12.7-21l5.2-24.3
		l-15.6-3.4l-5.2,24.3c-1.2,5.7-4.6,10.6-9.5,13.8l0,0l0,0c-3.6,2.3-7.7,3.6-12,3.6h-10.6l-32.6-71.7c-4.3-9.4-12.1-16.6-21.8-20.1
		L300.7,117l-28.9-75h49.8c6.5,0,12.8,2,18.1,5.6l95.7,65.8c10.7,7.3,15.9,20.4,13.2,33.1l-4.7,21.8l15.6,3.4l4.7-21.8
		C468.3,130.8,460.5,111.2,444.5,100.2z M94,284v-23.6l24-15V306h-2C103.9,306,94,296.1,94,284z M151.3,338.4
		c-5.1,8.2-8.9,17.3-11.1,26.7l-10.5-15.6c-2.4-3.8-3.6-8.2-3.5-12.7l0.5-13.9l27.3,10.9L151.3,338.4z M394.2,349.6l-10.3,16
		c-2.2-9.6-5.9-18.8-11.2-27.2l-2.8-4.5l27.3-10.9l0.5,13.9C397.8,341.4,396.6,345.8,394.2,349.6L394.2,349.6z M413.7,242
		c3.4,0,6.7-0.5,10-1.4c4,4.1,6.2,9.6,6.2,15.4v28c0,12.1-9.9,22-22,22h-2v-64H413.7z M356,160.9l34,74.9v72.9l-32.6,13l-93.5-23.4
		c-1.3-0.3-2.6-0.3-3.9,0l-93.5,23.4l-32.6-13v-73.1l68.2-42.6c0.1,0,0.1-0.1,0.2-0.1l91.5-61l49.4,17.6
		C348.9,151.3,353.5,155.5,356,160.9z"/>
	<path class="st0" d="M200,234h4c5.5,0,10,4.5,10,10v20c0,5.5-4.5,10-10,10h-4c-5.5,0-10-4.5-10-10v-20C190,238.5,194.5,234,200,234
		z"/>
	<path class="st0" d="M320,234h4c5.5,0,10,4.5,10,10v20c0,5.5-4.5,10-10,10h-4c-5.5,0-10-4.5-10-10v-20C310,238.5,314.5,234,320,234
		z"/>
	<path class="st0" d="M315.8,377.7l4.4-15.4l-56-16c-1.4-0.4-3-0.4-4.4,0l-56,16l4.4,15.4l53.8-15.4L315.8,377.7z"/>
	<path class="st0" d="M208.2,417.7l53.8-15.4l53.8,15.4l4.4-15.4l-56-16c-1.4-0.4-3-0.4-4.4,0l-56,16L208.2,417.7z"/>
	<rect x="238" y="434" class="st0" width="48" height="16"/>
</g>
</svg>
