<?xml version="1.0" encoding="utf-8"?>
<!-- Generator: Adobe Illustrator 19.0.0, SVG Export Plug-In . SVG Version: 6.00 Build 0)  -->
<svg version="1.1" id="Capa_1" xmlns="http://www.w3.org/2000/svg" xmlns:xlink="http://www.w3.org/1999/xlink" x="0px" y="0px"
	 viewBox="6 -6 512 512" style="enable-background:new 6 -6 512 512;" xml:space="preserve">
<style type="text/css">
	.st0{fill:#23C495;}
</style>
<g>
	<circle class="st0" cx="43.5" cy="121.5" r="7.5"/>
	<circle class="st0" cx="480.5" cy="121.5" r="7.5"/>
	<path class="st0" d="M487.8,84.7C484.3,34.1,442-6,390.5-6h-257C82-6,39.7,34.1,36.2,84.7C19,88.1,6,103.3,6,121.5v257
		C6,448.8,63.2,506,133.5,506h257c70.3,0,127.5-57.2,127.5-127.5v-257C518,103.3,505,88.1,487.8,84.7z M133.5,9h257
		c43,0,78.3,33,82.1,75h-15.1c-3.7-33.7-32.4-60-67.1-60h-257c-34.7,0-63.3,26.3-67.1,60H51.4C55.2,42,90.5,9,133.5,9L133.5,9z
		 M103.5,69h317c9.8,0,18.1,6.3,21.2,15H82.3C85.4,75.3,93.7,69,103.5,69L103.5,69z M96.1,54.7C105.6,45,118.9,39,133.5,39h257
		c14.6,0,27.9,6,37.4,15.7c-2.4-0.5-4.9-0.7-7.4-0.7h-317C101,54,98.5,54.3,96.1,54.7z M43.5,99h437c12.4,0,22.5,10.1,22.5,22.5V144
		H21v-22.5C21,109.1,31.1,99,43.5,99z M133.5,491C71.5,491,21,440.5,21,378.5V159h45v189.5c0,4.1,3.4,7.5,7.5,7.5s7.5-3.4,7.5-7.5
		V159h362v219.5c0,62-50.5,112.5-112.5,112.5h-137C131.5,491,81,440.5,81,378.5c0-4.1-3.4-7.5-7.5-7.5s-7.5,3.4-7.5,7.5
		C66,427.1,93.4,469.5,133.5,491L133.5,491z M390.5,491L390.5,491c40.1-21.5,67.5-63.9,67.5-112.5V159h45v219.5
		C503,440.5,452.5,491,390.5,491z"/>
</g>
</svg>
