<?xml version="1.0" encoding="utf-8"?>
<!-- Generator: Adobe Illustrator 19.0.0, SVG Export Plug-In . SVG Version: 6.00 Build 0)  -->
<svg version="1.1" id="Warstwa_1" xmlns="http://www.w3.org/2000/svg" xmlns:xlink="http://www.w3.org/1999/xlink" x="0px" y="0px"
	 viewBox="6 -6 512 512" style="enable-background:new 6 -6 512 512;" xml:space="preserve">
<style type="text/css">
	.st0{fill:#23C495;}
</style>
<g id="Outline">
	<path class="st0" d="M324.3,346.9c6.4-15.3-5.7-33.2-22.3-32.9h-72v-20c0-15.5-12.5-28-28-28h-4.8c9.5-27.1-20.9-51-45-35.1
		L25.6,315.3c-2.2,1.5-3.6,4-3.6,6.7v128c0,4.4,3.6,8,8,8h56v8c-0.1,20.7,24.9,31.6,40,17.9c8.7,8.1,23.3,8.1,32,0
		c8.7,8.1,23.3,8.1,32,0c15.1,13.8,40.1,2.8,40-17.9v-8h64c16.4,0.2,28.2-16.6,22.6-32c21.4,1,33.4-24,19.3-40
		C347.9,372.9,341.2,351.2,324.3,346.9L324.3,346.9z M214,294v40c-0.7,15.9-23.3,15.9-24,0v-12c0-2.1-0.8-4.2-2.3-5.7L169.3,298
		l16-16H202C208.6,282,214,287.4,214,294z M110,474c-4.4,0-8-3.6-8-8v-32c0-4.4,3.6-8,8-8s8,3.6,8,8v32C118,470.4,114.4,474,110,474
		z M142,474c-4.4,0-8-3.6-8-8v-48c0.4-10.6,15.6-10.6,16,0v48C150,470.4,146.4,474,142,474z M174,474c-4.4,0-8-3.6-8-8v-48
		c0.4-10.6,15.6-10.6,16,0v48C182,470.4,178.4,474,174,474z M214,466c-0.4,10.6-15.6,10.6-16,0v-32c0.4-10.6,15.6-10.6,16,0V466z
		 M323.7,375.6c-1.5,1.5-3.5,2.4-5.7,2.4h-72c-10.6,0.4-10.6,15.6,0,16h72c10.6,0.3,10.6,15.7,0,16h-72c-4.4,0-8,3.6-8,8s3.6,8,8,8
		h48c7-0.1,10.7,8.8,5.7,13.6c-1.5,1.5-3.5,2.4-5.7,2.4h-64v-8c0.4-16.6-17.6-28.7-32.9-22.3c-4.5-17-26.1-23.5-39.1-11.6
		c-13.1-12-34.7-5.4-39.2,11.6c-15.2-6.4-33.2,5.7-32.8,22.3v8H38V326.3l123.1-82c9.1-6.3,22,0.6,21.9,11.7c0,3.7-1.5,7.3-4.1,10
		l-2.5,2.5l-24,24c-3.1,3.1-3.1,8.2,0,11.3c0,0,0,0,0,0l21.7,21.6v8.7c0,15.5,12.5,28,28,28c17.5-0.1,29.5-14.9,28-32h72
		c10.6,0.4,10.6,15.6,0,16h-56c-4.4,0-8,3.6-8,8s3.6,8,8,8h72C325,361.9,328.7,370.8,323.7,375.6L323.7,375.6z M470,122.8V98
		c0-4.4-3.6-8-8-8V18c0-4.4-3.6-8-8-8h-48c-4.4,0-8,3.6-8,8v8h-88c-2.1,0-4.2,0.8-5.7,2.3l-40,40c-3.1,3.1-3.1,8.2,0,11.3
		c0,0,0,0,0,0l24,24c3.1,3.1,8.2,3.1,11.3,0c0,0,0,0,0,0L329.3,74H398v16c-4.4,0-8,3.6-8,8v24.8c-18.6,3.8-32,20.2-32,39.2v320
		c0,4.4,3.6,8,8,8h128c4.4,0,8-3.6,8-8V162C502,143,488.6,126.6,470,122.8L470,122.8z M486,266c-17.1-13.4-43.5-9.4-56,8
		c-12.5-17.4-38.9-21.4-56-8v-96h112V266z M486,298c0,13.3-10.7,24-24,24c-31.8-1.3-31.8-46.7,0-48C475.3,274,486,284.7,486,298z
		 M406,106h48v16h-48V106z M326,58c-2.1,0-4.2,0.8-5.7,2.3L294,86.7L281.3,74l32-32H398v16L326,58z M414,66V26h32v64h-32V66z
		 M398,138h64c10.2,0,19.2,6.4,22.6,16H375.4C378.8,144.4,387.8,138,398,138z M374,474V298c0-13.3,10.7-24,24-24s24,10.7,24,24
		c0,22.1,17.9,40,40,40c8.7,0,17.1-2.8,24-8v144H374z M230,213.3c16.9,17.6,47.2,17.6,64.1,0c15.2-15.3,17.6-39.2,5.7-57.2l-31-46.6
		c-2.4-3.7-7.4-4.7-11.1-2.2c-0.9,0.6-1.6,1.3-2.2,2.2l-31,46.6C212.5,174.1,214.8,198,230,213.3z M237.6,165l24.4-36.6l24.4,36.6
		c13,19.2-1.2,45.8-24.4,45.6C238.8,210.8,224.7,184.2,237.6,165z M110,146c26.5,0,48-21.5,48-48c-2.6-63.7-93.4-63.7-96,0
		C62,124.5,83.5,146,110,146z M110,66c17.7,0,32,14.3,32,32l0,0c-1.8,42.4-62.2,42.4-64,0C78,80.3,92.3,66,110,66z M22,202
		c0-4.4,3.6-8,8-8h8v-8c0-4.4,3.6-8,8-8s8,3.6,8,8v8h8c4.4,0,8,3.6,8,8s-3.6,8-8,8h-8v8c0,4.4-3.6,8-8,8s-8-3.6-8-8v-8h-8
		C25.6,210,22,206.4,22,202z M182,50c0-4.4,3.6-8,8-8h8v-8c0-4.4,3.6-8,8-8s8,3.6,8,8v8h8c4.4,0,8,3.6,8,8s-3.6,8-8,8h-8v8
		c0,4.4-3.6,8-8,8s-8-3.6-8-8v-8h-8C185.6,58,182,54.4,182,50z M342,266c0,4.4-3.6,8-8,8h-8v8c0,4.4-3.6,8-8,8s-8-3.6-8-8v-8h-8
		c-4.4,0-8-3.6-8-8s3.6-8,8-8h8v-8c0-4.4,3.6-8,8-8s8,3.6,8,8v8h8C338.4,258,342,261.6,342,266z M406,354c-13.3,0-24,10.7-24,24
		c1.3,31.8,46.7,31.8,48,0C430,364.7,419.3,354,406,354z M406,386c-4.4,0-8-3.6-8-8c0.4-10.6,15.6-10.6,16,0
		C414,382.4,410.4,386,406,386z M454,434c0,4.4-3.6,8-8,8c-10.6-0.4-10.6-15.6,0-16C450.4,426,454,429.6,454,434z M414,218
		c0-4.4,3.6-8,8-8c10.6,0.4,10.6,15.6,0,16C417.6,226,414,222.4,414,218z M390,298c0-4.4,3.6-8,8-8c10.6,0.4,10.6,15.6,0,16
		C393.6,306,390,302.4,390,298z"/>
</g>
</svg>
