<?xml version="1.0" encoding="utf-8"?>
<!-- Generator: Adobe Illustrator 19.0.0, SVG Export Plug-In . SVG Version: 6.00 Build 0)  -->
<svg version="1.1" id="Warstwa_1" xmlns="http://www.w3.org/2000/svg" xmlns:xlink="http://www.w3.org/1999/xlink" x="0px" y="0px"
	 viewBox="6 -6 512 512" style="enable-background:new 6 -6 512 512;" xml:space="preserve">
<style type="text/css">
	.st0{fill:#23C495;}
</style>
<path class="st0" d="M321.5,199.2c-16,0-29,13-29,29c0,16,13,29,29,29c16,0,29-13,29-29C350.5,212.3,337.4,199.2,321.5,199.2z
	 M321.5,242.2c-7.7,0-14-6.3-14-14c0-7.7,6.3-14,14-14c7.7,0,14,6.3,14,14C335.4,236,329.2,242.2,321.5,242.2z"/>
<path class="st0" d="M234.1,126.6c-4.1,0.8-6.7,4.8-5.8,8.9c0.6,2.7,0.8,5.4,0.8,8.2c0,22-17.9,39.8-39.8,39.8
	c-22,0-39.8-17.9-39.8-39.8s17.9-39.8,39.8-39.8c9.1,0,17.7,3,24.8,8.7c3.2,2.6,8,2,10.5-1.2s2-8-1.2-10.5
	c-9.6-7.7-21.8-11.9-34.1-11.9c-30.2,0-54.8,24.6-54.8,54.8s24.6,54.8,54.8,54.8s54.8-24.6,54.8-54.8c0-3.8-0.4-7.6-1.2-11.3
	C242.1,128.3,238.2,125.7,234.1,126.6z"/>
<path class="st0" d="M43.9,482.5H13.5c-4.1,0-7.5,3.4-7.5,7.5s3.4,7.5,7.5,7.5h30.4c4.1,0,7.5-3.4,7.5-7.5S48,482.5,43.9,482.5z"/>
<path class="st0" d="M121.2,482.5H90.8c-4.1,0-7.5,3.4-7.5,7.5s3.4,7.5,7.5,7.5h30.4c4.1,0,7.5-3.4,7.5-7.5S125.4,482.5,121.2,482.5
	z"/>
<path class="st0" d="M483.8,470.2c1.4,1.7,3.5,2.6,5.7,2.6h18.2c2.6,0,5.1-1.4,6.4-3.6s1.4-5,0.2-7.4l-30.5-58
	c-0.8-1.5-1-3.2-0.6-4.8l13.5-54.4c0,0,0,0,0,0l0,0c0,0,0-0.1,0-0.1c0-0.2,0.1-0.3,0.1-0.5c0-0.1,0-0.1,0-0.2c0,0,0,0,0,0
	c0,0,0-0.1,0-0.1c0-0.1,0-0.3,0-0.4c0-0.1,0-0.1,0-0.2c0-0.2,0-0.3,0-0.5v-14.1c0-4.1-3.4-7.5-7.5-7.5s-7.5,3.4-7.5,7.5v3.1
	l-32.6-13.4l0.7-42.7l4.3,2.6c3.5,2.2,8.2,1,10.3-2.5c2.2-3.5,1-8.2-2.5-10.3l-15.5-9.4c-0.1,0-0.1-0.1-0.2-0.1l-49-29.8
	c-7.9-4.8-12.8-13.1-13.6-22l74.8,40.6c0.4,0.2,0.8,0.5,1.2,0.7l1.3,0.6l10.7,5.8c6.3,3.4,10.2,10,10.2,17.2v29.4
	c0,4.1,3.4,7.5,7.5,7.5s7.5-3.4,7.5-7.5V269c0-8.2-2.9-15.9-7.9-22c3-2.1,5.4-4.9,7.2-8.2l8-15.6c2.7-5.3,3.2-11.4,1.4-17.1
	c-1.8-5.7-5.8-10.4-11.1-13.1l-6.2-3.2c-11-5.6-24.6-1.3-30.2,9.7l-8,15.6c-1.1,2.1-1.8,4.3-2.2,6.6l-59.4-32.2
	c1.2-3.9,0.2-8.4-2.9-11.4l-13.2-13.2c-4.3-4.3-11.2-4.5-15.7-0.6l-11.3,9.7c-0.5-0.2-1-0.5-1.6-0.7l-0.9-15
	c-0.4-6.1-5.4-10.9-11.5-10.9h-18.7c-4.3,0-8,2.4-10,5.9v-22.3c0-6.9-5.4-12.8-12.3-13.3l-14.7-1.1c-1.4-4.6-3.2-9-5.4-13.3l10-11.2
	c4.7-5.3,4.4-13.3-0.6-18.3l-19.1-19.1c-4.9-4.9-12.9-5.2-18.2-0.7L231,63.5c-4.2-2.2-8.7-4.1-13.2-5.6l-0.9-15
	c-0.4-7-6.3-12.6-13.3-12.6h-27c-6.9,0-12.8,5.4-13.3,12.3l-1.1,14.7c-5,1.6-9.9,3.6-14.5,6l-11.2-9.6c-5.3-4.5-13.2-4.2-18.2,0.7
	L99.1,73.7c-5,5-5.2,13-0.6,18.3l10,11.2c-2.2,4.3-4,8.7-5.4,13.3l-14.8,1.1c-6.9,0.5-12.3,6.4-12.3,13.3v27
	c0,7.1,5.5,12.9,12.6,13.3l15,0.9c1.5,4.5,3.4,8.9,5.6,13.2l-9.6,11.2c-4.5,5.3-4.2,13.2,0.7,18.2l19.1,19.1c5,5,13,5.2,18.3,0.6
	l11.2-10c4.3,2.1,8.7,3.9,13.3,5.4l1.1,14.6l-38.7,4.1c-0.5,0.1-1.1-0.1-1.6-0.3l-37-23.7c3.7-3.6,6.2-8.4,6.7-14l1.7-17.5
	c0.6-6-1.2-11.8-5.1-16.4c-3.8-4.6-9.2-7.5-15.2-8l-6.9-0.7c-6-0.6-11.8,1.2-16.4,5.1c-4.6,3.8-7.5,9.2-8,15.2l-1.7,17.5
	c-0.5,5.5,1,10.9,4.2,15.3c-1,0.9-2,1.8-2.9,2.8l-3.5,3.9c-6.4,7.2-9.9,16.5-10,26.1l-0.5,59.2L9.1,463.3c-0.3,2.1,0.4,4.3,1.8,5.9
	c1.4,1.6,3.5,2.5,5.6,2.5H36c3.2,0,6.1-2,7.1-5.1l48.2-139.8l44.9,46.7c2.5,2.5,3,6.5,1.1,9.5c-0.2,0.3-0.4,0.7-0.5,1l-29.9,72.7
	H103l13.2-58.8c1.4-4.1,0.7-8.5-1.8-12c-0.2-0.3-0.4-0.5-0.6-0.7l-13.8-14.7c-2.8-3-7.6-3.2-10.6-0.3c-3,2.8-3.2,7.6-0.3,10.6
	l12.7,13.4l-15.4,68.4c-0.5,2.2,0,4.6,1.5,6.3c1.4,1.8,3.6,2.8,5.9,2.8h18.3c3,0,5.8-1.8,6.9-4.6l31.6-76.8c5-8.9,3.6-20-3.5-27.2
	l-51.2-53.2l0.4-30.4l15.2,8.5c3.3,1.8,7,2.5,10.7,2.1l38.3-4.7c15.5-1.9,27.7-13.6,30.7-28.3h12.6c7.1,0,12.9-5.5,13.3-12.6l0.9-15
	c4.1-1.4,8.1-3,11.9-4.9l10.9,9.6v4.1c0,6.1,4.8,11.2,10.9,11.5l15,0.9c0.2,0.5,0.4,1.1,0.7,1.6l-9.7,11.3
	c-3.9,4.6-3.6,11.5,0.6,15.7l13.3,13.3c4.3,4.3,11.3,4.5,15.8,0.5l11.2-9.9c0.5,0.2,1.1,0.4,1.6,0.6l1.1,14.8
	c0.4,6,5.5,10.7,11.5,10.7h18.7c6.1,0,11.2-4.8,11.5-10.9l0.9-15c0.2-0.1,0.5-0.2,0.7-0.3l11.2,9.9c4.6,4,11.5,3.8,15.9-0.5
	l13.2-13.2c4.2-4.2,4.5-11.1,0.6-15.7l-9.7-11.3c0.2-0.5,0.5-1,0.7-1.6l15-0.9c3.5-0.2,6.5-2,8.5-4.6l35.2,21.4l-0.8,54.3
	l-42.1,58.6c-3.3,4.6-4.8,10.2-4.2,15.9l7.4,70.9c0.4,3.8,3.6,6.7,7.5,6.7H420c3.9,0,7.2-3,7.5-6.9l4.5-56.6
	c0.1-0.6,0.2-1.2,0.4-1.8c1,3,2.6,5.8,4.7,8.2L483.8,470.2z M462.9,227.7c-0.6-1.9-0.4-3.9,0.5-5.7l8-15.6c1.9-3.6,6.4-5.1,10-3.2
	l6.2,3.2c1.8,0.9,3.1,2.4,3.7,4.3s0.4,3.9-0.5,5.7l-8,15.6c-0.9,1.8-2.4,3.1-4.3,3.7c-1.9,0.6-3.9,0.4-5.7-0.5l-4.7-2.4l-2.2-1.2
	C464.5,230.6,463.5,229.3,462.9,227.7z M300.6,164.9l-0.6,8c-0.8,0.3-1.6,0.7-2.5,1l-3.9-3.4C296.5,169.5,299,167.5,300.6,164.9z
	 M56.1,207l1.7-17.5c0.2-2,1.1-3.8,2.7-5c1.3-1.1,3-1.7,4.7-1.7c0.2,0,0.5,0,0.7,0l6.9,0.7c2,0.2,3.8,1.1,5,2.7
	c1.3,1.5,1.9,3.5,1.7,5.4l-1.7,17.5c-0.4,3.7-3.4,6.6-7.1,6.7c-3.3-1-6.6-1.4-10-1.2C57.8,213.5,55.8,210.4,56.1,207z M30.6,456.8
	h-5.5L42.6,321l35-0.5L30.6,456.8z M158.5,270.4l-38.3,4.7c-0.5,0.1-1.1,0-1.5-0.3l-26.1-14.5c-0.1,0-0.2-0.1-0.2-0.1l-17.7-9.8
	c-3.6-2-8.2-0.7-10.2,2.9c-2,3.6-0.7,8.2,2.9,10.2l13.9,7.7l-0.5,34.3L43.6,306l0.4-52c0-6,2.3-11.8,6.2-16.3l3.5-3.9
	c1.7-2,4-3.3,6.4-3.8c0.4,0.1,0.9,0.1,1.3,0.2l6.3,0.6c0.5,0.2,1,0.5,1.6,0.8l45.8,29.3c0,0,0.1,0,0.1,0.1c3.3,2,7.2,2.9,11.1,2.5
	l48.8-5.2C172,264.7,165.9,269.4,158.5,270.4z M227,208.8c-5.8,3.3-11.9,5.9-18.3,7.6c-3.1,0.8-5.4,3.6-5.6,6.8l-1.1,18.7h-23.9
	l-1.4-18.4c-0.2-3.2-2.5-5.9-5.7-6.7c-6.8-1.7-13.3-4.4-19.5-7.9c-2.8-1.6-6.3-1.3-8.7,0.9l-14,12.4l-16.9-16.9l12.1-14
	c2.1-2.5,2.4-6,0.7-8.8c-3.6-6-6.4-12.5-8.2-19.3c-0.8-3.1-3.6-5.4-6.8-5.6l-18.7-1.1v-23.9l18.4-1.4c3.2-0.2,5.9-2.5,6.7-5.7
	c1.7-6.8,4.3-13.3,7.9-19.5c1.6-2.8,1.3-6.3-0.9-8.7l-12.4-14l16.9-16.9l14,12.1c2.5,2.1,6,2.4,8.8,0.7c6.4-3.8,13.3-6.7,20.5-8.5
	c3.1-0.8,5.4-3.5,5.7-6.7l1.4-18.4h23.9l1.1,18.7c0.2,3.2,2.4,6,5.6,6.8c6.8,1.8,13.3,4.6,19.3,8.2c2.8,1.7,6.3,1.4,8.8-0.7l14-12.1
	l16.9,16.9l-12.4,14c-2.1,2.4-2.5,5.9-0.9,8.7c3.5,6.1,6.2,12.7,7.9,19.5c0.8,3.1,3.5,5.4,6.7,5.7l18.5,1.4v23.9l-18.7,1.1
	c-3.2,0.2-6,2.4-6.8,5.6c-1.8,6.8-4.6,13.3-8.2,19.3c-1.7,2.8-1.4,6.3,0.7,8.8l12.1,14l-16.9,16.9l-14-12.4
	C233.4,207.6,229.8,207.2,227,208.8z M370.6,235.9c-3.1,0.2-5.8,2.3-6.7,5.3c-0.9,2.9-2.1,5.8-3.6,8.5c-1.5,2.7-1.2,6.1,0.9,8.5
	l10.8,12.6l-8.7,8.7l-12.5-11.1c-2.4-2.1-5.8-2.5-8.5-1c-2.5,1.3-5.1,2.4-7.8,3.2c-3,0.9-5.1,3.6-5.3,6.7l-1,16.7h-12.3l-1.3-16.6
	c-0.2-3.1-2.4-5.8-5.4-6.6c-3-0.9-5.8-2-8.5-3.4c-2.8-1.5-6.2-1.1-8.5,1l-12.5,11.1l-8.7-8.7l10.8-12.6c2-2.4,2.4-5.8,0.9-8.5
	c-1.5-2.7-2.7-5.5-3.6-8.4c-0.9-3-3.6-5.1-6.7-5.3l-14.4-0.9c0.5-0.4,1-0.8,1.4-1.2c0,0,22.9-26.2,23-26.4c1.5-2.8,1-6.1-1-8.5
	l-5.5-6.2l-0.1-0.1c0,0-0.1-0.1-0.1-0.1l-0.1-0.1l-5.2-6.1l8.6-8.6l12.6,10.8c2.4,2,5.8,2.4,8.5,0.9c2.8-1.6,5.9-2.8,9.1-3.8
	c3-0.9,5.2-3.5,5.4-6.6l1.3-16.6h12.3l1,16.7c0.2,3.1,2.3,5.8,5.3,6.7c2.9,0.9,5.8,2.1,8.5,3.6c2.7,1.5,6.1,1.2,8.5-0.9l12.6-10.8
	l8.6,8.6c-0.8,0.7-1.4,1.5-1.9,2.4l-9.1,10.3c-2.1,2.4-2.5,5.7-1,8.5c1.4,2.7,2.6,5.5,3.4,8.5c0.9,3,3.5,5.1,6.6,5.4l2.8,0.2
	c2.6,5.1,6.3,9.7,10.8,13.5L370.6,235.9z M495.3,457.8h-2.4l-44.6-51.9c-1.6-1.9-2.4-4.3-2.3-6.8l2.8-64.9l31.8,13l-11.9,48.1
	c-1.3,5.2-0.6,10.7,1.9,15.4L495.3,457.8z M424.3,393c-4.3,3.9-6.9,9.3-7.4,15.1l-3.9,49.7h-3.5l-6.7-64.1c-0.2-2,0.3-4,1.5-5.6
	l28.8-40.1l-1.7,38.2L424.3,393z"/>
<path class="st0" d="M510.5,482.5h-30.4c-4.1,0-7.5,3.4-7.5,7.5s3.4,7.5,7.5,7.5h30.4c4.1,0,7.5-3.4,7.5-7.5
	S514.6,482.5,510.5,482.5z"/>
<path class="st0" d="M421.1,482.5h-30.4c-4.1,0-7.5,3.4-7.5,7.5s3.4,7.5,7.5,7.5h30.4c4.1,0,7.5-3.4,7.5-7.5
	S425.2,482.5,421.1,482.5z"/>
<path class="st0" d="M334.1,127.3c27,0,51.9,12.2,68.3,32.8l-5.6-1.4c-4-1-8.1,1.5-9.1,5.5s1.5,8.1,5.5,9.1l23.3,5.6
	c3.8,1.2,8.5-0.6,9.7-5.4l5.4-22.1c1-4-1.5-8.1-5.5-9.1c-4-1-8.1,1.5-9.1,5.5l-1.2,4.9c-19.2-25.4-49.1-40.6-81.7-40.6
	c-4.1,0-7.5,3.4-7.5,7.5S330,127.3,334.1,127.3z"/>
<path class="st0" d="M44,88.1c0.6,4.4,6.1,7.5,10.2,6l24.7-9c3.9-1.4,5.9-5.7,4.5-9.6c-1.4-3.9-5.7-5.9-9.6-4.5l-7.3,2.7
	C89.4,34.5,131.3,10,177.6,10c4.1,0,7.5-3.4,7.5-7.5S181.8-5,177.6-5C125.2-5,77.9,23,52.6,67.7l-2.9-8c-1.4-3.9-5.7-5.9-9.6-4.5
	c-3.9,1.4-5.9,5.7-4.5,9.6L44,88.1z"/>
</svg>
