<?xml version="1.0" encoding="utf-8"?>
<!-- Generator: Adobe Illustrator 19.0.0, SVG Export Plug-In . SVG Version: 6.00 Build 0)  -->
<svg version="1.1" id="Warstwa_1" xmlns="http://www.w3.org/2000/svg" xmlns:xlink="http://www.w3.org/1999/xlink" x="0px" y="0px"
	 viewBox="6 -6 512 512" style="enable-background:new 6 -6 512 512;" xml:space="preserve">
<style type="text/css">
	.st0{fill:#23C495;}
</style>
<g id="Page-1">
	<g id="_x30_46---Important-Message">
		<path id="Shape" class="st0" d="M424.1,225.4V28.1C424.1,9.3,408.9-6,390-6H40.1C21.3-6,6,9.3,6,28.1v273.1
			c0,18.9,15.3,34.1,34.1,34.1h25.6v58.9c0,4.8,1.9,9.3,5.2,12.7c3.4,3.4,7.9,5.2,12.7,5.2c3.5,0,6.8-1,9.8-2.9l115-73.9h21.9
			c-13.6,75.5,33.9,148.5,108.4,166.6c74.5,18.2,150.2-24.8,172.9-98.1S495.9,252.4,424.1,225.4L424.1,225.4z M210.8,318.3h-59.7
			c-4.7,0-8.5,3.8-8.5,8.5s3.8,8.5,8.5,8.5h25.7l-92.6,59.5c-0.1,0.1-0.5,0.3-1.4-0.6v-58.9h34.1c4.7,0,8.5-3.8,8.5-8.5
			s-3.8-8.5-8.5-8.5H40.1c-9.4,0-17.1-7.6-17.1-17.1V28.1c0-9.4,7.6-17.1,17.1-17.1H390c9.4,0,17.1,7.6,17.1,17.1v192
			c-74.5-18.4-150.4,24.7-172.8,98.1L210.8,318.3z M372.9,488.9c-70.7,0-128-57.3-128-128s57.3-128,128-128s128,57.3,128,128
			C500.9,431.6,443.6,488.9,372.9,488.9z"/>
		<path id="Shape_1_" class="st0" d="M317.5,264.9c-22.9,13.2-40.3,34.2-49.1,59.1c-1.1,2.9-0.5,6.1,1.5,8.5c2,2.3,5.1,3.4,8.1,2.9
			c3-0.6,5.5-2.7,6.5-5.6c7.5-21.1,22.2-38.8,41.6-50c3.9-2.4,5.2-7.5,2.9-11.5C326.6,264.1,321.5,262.7,317.5,264.9L317.5,264.9z"
			/>
		<path id="Shape_2_" class="st0" d="M57.2,62.3h315.7c4.7,0,8.5-3.8,8.5-8.5s-3.8-8.5-8.5-8.5H57.2c-4.7,0-8.5,3.8-8.5,8.5
			S52.5,62.3,57.2,62.3z"/>
		<path id="Shape_3_" class="st0" d="M372.9,87.9H108.4c-4.7,0-8.5,3.8-8.5,8.5c0,4.7,3.8,8.5,8.5,8.5h264.5c4.7,0,8.5-3.8,8.5-8.5
			C381.5,91.7,377.6,87.9,372.9,87.9z"/>
		<path id="Shape_4_" class="st0" d="M57.2,104.9h17.1c4.7,0,8.5-3.8,8.5-8.5c0-4.7-3.8-8.5-8.5-8.5H57.2c-4.7,0-8.5,3.8-8.5,8.5
			C48.7,101.1,52.5,104.9,57.2,104.9z"/>
		<path id="Shape_5_" class="st0" d="M372.9,130.5h-34.1c-4.7,0-8.5,3.8-8.5,8.5c0,4.7,3.8,8.5,8.5,8.5h34.1c4.7,0,8.5-3.8,8.5-8.5
			C381.5,134.4,377.6,130.5,372.9,130.5z"/>
		<path id="Shape_6_" class="st0" d="M57.2,147.6h247.5c4.7,0,8.5-3.8,8.5-8.5c0-4.7-3.8-8.5-8.5-8.5H57.2c-4.7,0-8.5,3.8-8.5,8.5
			C48.7,143.8,52.5,147.6,57.2,147.6z"/>
		<path id="Shape_7_" class="st0" d="M372.9,173.2H151.1c-4.7,0-8.5,3.8-8.5,8.5c0,4.7,3.8,8.5,8.5,8.5h221.9c4.7,0,8.5-3.8,8.5-8.5
			C381.5,177,377.6,173.2,372.9,173.2z"/>
		<path id="Shape_8_" class="st0" d="M57.2,190.3h59.7c4.7,0,8.5-3.8,8.5-8.5c0-4.7-3.8-8.5-8.5-8.5H57.2c-4.7,0-8.5,3.8-8.5,8.5
			C48.7,186.4,52.5,190.3,57.2,190.3z"/>
		<path id="Shape_9_" class="st0" d="M262,215.9h-42.7c-4.7,0-8.5,3.8-8.5,8.5s3.8,8.5,8.5,8.5H262c4.7,0,8.5-3.8,8.5-8.5
			S266.7,215.9,262,215.9z"/>
		<path id="Shape_10_" class="st0" d="M57.2,232.9h119.5c4.7,0,8.5-3.8,8.5-8.5s-3.8-8.5-8.5-8.5H57.2c-4.7,0-8.5,3.8-8.5,8.5
			S52.5,232.9,57.2,232.9z"/>
		<path id="Shape_11_" class="st0" d="M202.3,258.5H57.2c-4.7,0-8.5,3.8-8.5,8.5s3.8,8.5,8.5,8.5h145.1c4.7,0,8.5-3.8,8.5-8.5
			S207,258.5,202.3,258.5z"/>
		<path id="Shape_12_" class="st0" d="M372.9,412.1c-14.1,0-25.6,11.5-25.6,25.6c0,14.1,11.5,25.6,25.6,25.6s25.6-11.5,25.6-25.6
			C398.5,423.6,387.1,412.1,372.9,412.1z M372.9,446.3c-4.7,0-8.5-3.8-8.5-8.5c0-4.7,3.8-8.5,8.5-8.5s8.5,3.8,8.5,8.5
			C381.5,442.4,377.6,446.3,372.9,446.3z"/>
		<path id="Shape_13_" class="st0" d="M372.9,258.5c-14.1,0-25.6,11.5-25.6,25.6v85.3c0,14.1,11.5,25.6,25.6,25.6
			s25.6-11.5,25.6-25.6v-85.3C398.5,270,387.1,258.5,372.9,258.5z M381.5,369.5c0,4.7-3.8,8.5-8.5,8.5s-8.5-3.8-8.5-8.5v-85.3
			c0-4.7,3.8-8.5,8.5-8.5s8.5,3.8,8.5,8.5V369.5z"/>
		<circle id="Oval" class="st0" cx="270.5" cy="360.9" r="8.5"/>
	</g>
</g>
</svg>
