<svg id="Outline" height="512" viewBox="0 0 512 512" width="512" xmlns="http://www.w3.org/2000/svg"><g><path d="m264 285.333v-8.373a18 18 0 0 0 8-14.96v-20a18.026 18.026 0 0 0 -16-17.889v-56.111a8 8 0 0 0 -8-8h-48a8 8 0 0 0 -8 8v56.111a18.026 18.026 0 0 0 -16 17.889v20a18 18 0 0 0 8 14.96v8.373l-20.4 27.2a18.11 18.11 0 0 0 -3.6 10.8v154.667a18.021 18.021 0 0 0 18 18h92a18.021 18.021 0 0 0 18-18v-154.667a18.11 18.11 0 0 0 -3.6-10.8zm-56-109.333h32v48h-32zm-16 66a2 2 0 0 1 2-2h60a2 2 0 0 1 2 2v20a2 2 0 0 1 -2 2h-60a2 2 0 0 1 -2-2zm80 236a2 2 0 0 1 -2 2h-92a2 2 0 0 1 -2-2v-154.667a2.021 2.021 0 0 1 .4-1.2l22-29.333a8 8 0 0 0 1.6-4.8v-8h48v8a8 8 0 0 0 1.6 4.8l22 29.333a2.021 2.021 0 0 1 .4 1.2z"/><path d="m216 192h16v16h-16z"/><path d="m192 408h40v16h-40z"/><path d="m240 408h16v16h-16z"/><path d="m192 432h64v16h-64z"/><path d="m224 328a32 32 0 1 0 32 32 32.036 32.036 0 0 0 -32-32zm0 48a16 16 0 1 1 16-16 16.019 16.019 0 0 1 -16 16z"/><path d="m496 240v-30.632a27.926 27.926 0 0 0 -10.075-21.511l-39.055-32.546-5.2-15.614a17.968 17.968 0 0 0 6.33-13.697v-20a18.021 18.021 0 0 0 -18-18h-6v-32a8 8 0 0 0 8-8v-14a18.021 18.021 0 0 0 -18-18h-28a18.021 18.021 0 0 0 -18 18v6h-8a8 8 0 0 0 -4.8 1.6l-32 24 9.6 12.8 29.867-22.4h13.333v32h-6a18.021 18.021 0 0 0 -18 18v20a17.968 17.968 0 0 0 6.334 13.7l-5.2 15.614-39.056 32.546a27.928 27.928 0 0 0 -10.078 21.508v258.632a28.032 28.032 0 0 0 28 28h136a28.032 28.032 0 0 0 28-28v-212h-16v212a12.013 12.013 0 0 1 -12 12h-136a12.013 12.013 0 0 1 -12-12v-258.632a11.97 11.97 0 0 1 4.317-9.219l40.8-34a8 8 0 0 0 2.469-3.616l6.18-18.533h52.468l6.176 18.53a8 8 0 0 0 2.469 3.616l40.8 34a11.971 11.971 0 0 1 4.318 9.22v30.634zm-112-206a2 2 0 0 1 2-2h28a2 2 0 0 1 2 2v6h-32zm8 22h16v32h-16zm-22 72a2 2 0 0 1 -2-2v-20a2 2 0 0 1 2-2h60a2 2 0 0 1 2 2v20a2 2 0 0 1 -2 2z"/><path d="m384 440v16h72a8 8 0 0 0 8-8v-48a8 8 0 0 0 -8-8h-112a8 8 0 0 0 -8 8v48a8 8 0 0 0 8 8h24v-16h-16v-32h96v32z"/><path d="m336 328h120v16h-120z"/><path d="m336 360h64v16h-64z"/><path d="m416 360h40v16h-40z"/><path d="m456 256a56 56 0 1 0 -56 56 56.063 56.063 0 0 0 56-56zm-96 0a40 40 0 1 1 40 40 40.045 40.045 0 0 1 -40-40z"/><path d="m408 280v-16h16v-16h-16v-16h-16v16h-16v16h16v16z"/><path d="m136 371.04v-41.04a18.021 18.021 0 0 0 -18-18h-76a18.021 18.021 0 0 0 -18 18v41.04a18 18 0 0 0 -8 14.96v30h16v-30a2 2 0 0 1 2-2h92a2 2 0 0 1 2 2v14h-56a8 8 0 0 0 -8 8v48a8 8 0 0 0 8 8h56v14a2 2 0 0 1 -2 2h-92a2 2 0 0 1 -2-2v-46h-16v46a18.021 18.021 0 0 0 18 18h92a18.021 18.021 0 0 0 18-18v-92a18 18 0 0 0 -8-14.96zm-43.1-43.04-2.666 8h-20.468l-2.666-8zm-52.9 40v-38a2 2 0 0 1 2-2h8.234l6.176 18.53a8 8 0 0 0 7.59 5.47h32a8 8 0 0 0 7.59-5.47l6.176-18.53h8.234a2 2 0 0 1 2 2v38zm40 80v-32h48v32z"/><path d="m140.161 103.019 23.8 13.018 13.018 23.8a8 8 0 0 0 14.038 0l13.018-23.8 23.8-13.018a8 8 0 0 0 0-14.038l-23.8-13.018-13.018-23.8a8 8 0 0 0 -14.038 0l-13.018 23.8-23.8 13.018a8 8 0 0 0 0 14.038zm33.539-14.142a8 8 0 0 0 3.18-3.18l7.12-13.025 7.124 13.028a8 8 0 0 0 3.18 3.18l13.024 7.12-13.028 7.123a8 8 0 0 0 -3.18 3.18l-7.12 13.025-7.124-13.028a8 8 0 0 0 -3.18-3.18l-13.024-7.12z"/><path d="m20.161 59.019 16.045 8.775 8.775 16.045a8 8 0 0 0 14.038 0l8.775-16.045 16.045-8.775a8 8 0 0 0 0-14.038l-16.045-8.775-8.775-16.045a8 8 0 0 0 -14.038 0l-8.775 16.045-16.045 8.775a8 8 0 0 0 0 14.038zm25.778-9.9a8 8 0 0 0 3.18-3.181l2.881-5.266 2.881 5.267a8 8 0 0 0 3.18 3.181l5.267 2.88-5.267 2.88a8 8 0 0 0 -3.18 3.181l-2.881 5.267-2.881-5.267a8 8 0 0 0 -3.18-3.181l-5.267-2.88z"/><path d="m68.161 204.981a8 8 0 0 0 0 14.038l16.045 8.775 8.775 16.045a8 8 0 0 0 14.038 0l8.775-16.045 16.045-8.775a8 8 0 0 0 0-14.038l-16.045-8.775-8.775-16.045a8 8 0 0 0 -14.038 0l-8.775 16.045zm25.778 4.139a8 8 0 0 0 3.18-3.181l2.881-5.267 2.881 5.267a8 8 0 0 0 3.18 3.181l5.267 2.88-5.267 2.88a8 8 0 0 0 -3.18 3.181l-2.881 5.267-2.881-5.267a8 8 0 0 0 -3.18-3.181l-5.267-2.88z"/></g></svg>