<?xml version="1.0" encoding="utf-8"?>
<!-- Generator: Adobe Illustrator 19.0.0, SVG Export Plug-In . SVG Version: 6.00 Build 0)  -->
<svg version="1.1" id="Outline" xmlns="http://www.w3.org/2000/svg" xmlns:xlink="http://www.w3.org/1999/xlink" x="0px" y="0px"
	 viewBox="6 -6 512 512" style="enable-background:new 6 -6 512 512;" xml:space="preserve">
<style type="text/css">
	.st0{fill:#23C495;}
</style>
<g>
	<path class="st0" d="M270,279.3V271c5-3.3,8-9,8-15v-20c0-9.2-6.9-16.9-16-17.9V162c0-4.4-3.6-8-8-8h-48c-4.4,0-8,3.6-8,8v56.1
		c-9.1,1-16,8.7-16,17.9v20c0,6,3,11.6,8,15v8.4l-20.4,27.2c-2.3,3.1-3.6,6.9-3.6,10.8V472c0,9.9,8.1,18,18,18h92
		c9.9,0,18-8.1,18-18V317.3c0-3.9-1.3-7.7-3.6-10.8L270,279.3z M214,170h32v48h-32V170z M198,236c0-1.1,0.9-2,2-2h60
		c1.1,0,2,0.9,2,2v20c0,1.1-0.9,2-2,2h-60c-1.1,0-2-0.9-2-2V236z M278,472c0,1.1-0.9,2-2,2h-92c-1.1,0-2-0.9-2-2V317.3
		c0-0.4,0.1-0.9,0.4-1.2l22-29.3c1-1.4,1.6-3.1,1.6-4.8v-8h48v8c0,1.7,0.6,3.4,1.6,4.8l22,29.3c0.3,0.3,0.4,0.8,0.4,1.2V472z"/>
	<path class="st0" d="M222,186h16v16h-16V186z"/>
	<path class="st0" d="M198,402h40v16h-40V402z"/>
	<path class="st0" d="M246,402h16v16h-16V402z"/>
	<path class="st0" d="M198,426h64v16h-64V426z"/>
	<path class="st0" d="M230,322c-17.7,0-32,14.3-32,32s14.3,32,32,32s32-14.3,32-32C262,336.3,247.7,322,230,322z M230,370
		c-8.8,0-16-7.2-16-16s7.2-16,16-16s16,7.2,16,16C246,362.8,238.8,370,230,370z"/>
	<path class="st0" d="M502,234v-30.6c0-8.3-3.7-16.2-10.1-21.5l-39.1-32.5l-5.2-15.6c4-3.4,6.3-8.4,6.3-13.7v-20c0-9.9-8.1-18-18-18
		h-6V50c4.4,0,8-3.6,8-8V28c0-9.9-8.1-18-18-18h-28c-9.9,0-18,8.1-18,18v6h-8c-1.7,0-3.4,0.6-4.8,1.6l-32,24l9.6,12.8L368.7,50H382
		v32h-6c-9.9,0-18,8.1-18,18v20c0,5.3,2.3,10.3,6.3,13.7l-5.2,15.6l-39.1,32.5c-6.4,5.3-10.1,13.2-10.1,21.5V462
		c0,15.5,12.5,28,28,28h136c15.5,0,28-12.5,28-28V250h-16v212c0,6.6-5.4,12-12,12H338c-6.6,0-12-5.4-12-12V203.4
		c0-3.6,1.6-6.9,4.3-9.2l40.8-34c1.1-1,2-2.2,2.5-3.6l6.2-18.5h52.5l6.2,18.5c0.5,1.4,1.3,2.7,2.5,3.6l40.8,34
		c2.7,2.3,4.3,5.7,4.3,9.2V234L502,234z M390,28c0-1.1,0.9-2,2-2h28c1.1,0,2,0.9,2,2v6h-32V28z M398,50h16v32h-16V50z M376,122
		c-1.1,0-2-0.9-2-2v-20c0-1.1,0.9-2,2-2h60c1.1,0,2,0.9,2,2v20c0,1.1-0.9,2-2,2H376z"/>
	<path class="st0" d="M390,434v16h72c4.4,0,8-3.6,8-8v-48c0-4.4-3.6-8-8-8H350c-4.4,0-8,3.6-8,8v48c0,4.4,3.6,8,8,8h24v-16h-16v-32
		h96v32H390z"/>
	<path class="st0" d="M342,322h120v16H342V322z"/>
	<path class="st0" d="M342,354h64v16h-64V354z"/>
	<path class="st0" d="M422,354h40v16h-40V354z"/>
	<path class="st0" d="M462,250c0-30.9-25.1-56-56-56s-56,25.1-56,56s25.1,56,56,56C436.9,306,462,280.9,462,250z M366,250
		c0-22.1,17.9-40,40-40s40,17.9,40,40s-17.9,40-40,40C383.9,290,366,272.1,366,250z"/>
	<path class="st0" d="M414,274v-16h16v-16h-16v-16h-16v16h-16v16h16v16H414z"/>
	<path class="st0" d="M142,365v-41c0-9.9-8.1-18-18-18H48c-9.9,0-18,8.1-18,18v41c-5,3.3-8,9-8,15v30h16v-30c0-1.1,0.9-2,2-2h92
		c1.1,0,2,0.9,2,2v14H78c-4.4,0-8,3.6-8,8v48c0,4.4,3.6,8,8,8h56v14c0,1.1-0.9,2-2,2H40c-1.1,0-2-0.9-2-2v-46H22v46
		c0,9.9,8.1,18,18,18h92c9.9,0,18-8.1,18-18v-92C150,374,147,368.4,142,365z M98.9,322l-2.7,8H75.8l-2.7-8H98.9z M46,362v-38
		c0-1.1,0.9-2,2-2h8.2l6.2,18.5c1.1,3.3,4.1,5.5,7.6,5.5h32c3.4,0,6.5-2.2,7.6-5.5l6.2-18.5h8.2c1.1,0,2,0.9,2,2v38H46z M86,442v-32
		h48v32H86z"/>
	<path class="st0" d="M146.2,97l23.8,13l13,23.8c2.1,3.9,7,5.3,10.9,3.2c1.3-0.7,2.4-1.8,3.2-3.2l13-23.8l23.8-13
		c3.9-2.1,5.3-7,3.2-10.9c-0.7-1.3-1.8-2.4-3.2-3.2L210,70l-13-23.8c-2.1-3.9-7-5.3-10.9-3.2c-1.3,0.7-2.4,1.8-3.2,3.2L170,70
		l-23.8,13c-3.9,2.1-5.3,7-3.2,10.9C143.7,95.2,144.8,96.3,146.2,97z M179.7,82.9c1.3-0.7,2.4-1.8,3.2-3.2l7.1-13l7.1,13
		c0.7,1.3,1.8,2.4,3.2,3.2l13,7.1l-13,7.1c-1.3,0.7-2.4,1.8-3.2,3.2l-7.1,13l-7.1-13c-0.7-1.3-1.8-2.4-3.2-3.2l-13-7.1L179.7,82.9z"
		/>
	<path class="st0" d="M26.2,53l16,8.8l8.8,16c2.1,3.9,7,5.3,10.9,3.2c1.3-0.7,2.4-1.8,3.2-3.2l8.8-16l16-8.8c3.9-2.1,5.3-7,3.2-10.9
		c-0.7-1.3-1.8-2.4-3.2-3.2l-16-8.8l-8.8-16c-2.1-3.9-7-5.3-10.9-3.2c-1.3,0.7-2.4,1.8-3.2,3.2l-8.8,16l-16,8.8
		c-3.9,2.1-5.3,7-3.2,10.9C23.7,51.2,24.8,52.3,26.2,53z M51.9,43.1c1.3-0.7,2.4-1.8,3.2-3.2l2.9-5.3l2.9,5.3
		c0.7,1.3,1.8,2.4,3.2,3.2l5.3,2.9l-5.3,2.9c-1.3,0.7-2.4,1.8-3.2,3.2L58,57.3l-2.9-5.3c-0.7-1.3-1.8-2.4-3.2-3.2L46.7,46L51.9,43.1
		z"/>
	<path class="st0" d="M74.2,199c-3.9,2.1-5.3,7-3.2,10.9c0.7,1.3,1.8,2.4,3.2,3.2l16,8.8l8.8,16c2.1,3.9,7,5.3,10.9,3.2
		c1.3-0.7,2.4-1.8,3.2-3.2l8.8-16l16-8.8c3.9-2.1,5.3-7,3.2-10.9c-0.7-1.3-1.8-2.4-3.2-3.2l-16-8.8l-8.8-16c-2.1-3.9-7-5.3-10.9-3.2
		c-1.3,0.7-2.4,1.8-3.2,3.2l-8.8,16L74.2,199z M99.9,203.1c1.3-0.7,2.4-1.8,3.2-3.2l2.9-5.3l2.9,5.3c0.7,1.3,1.8,2.4,3.2,3.2
		l5.3,2.9l-5.3,2.9c-1.3,0.7-2.4,1.8-3.2,3.2l-2.9,5.3l-2.9-5.3c-0.7-1.3-1.8-2.4-3.2-3.2l-5.3-2.9L99.9,203.1z"/>
</g>
</svg>
