<?xml version="1.0" encoding="utf-8"?>
<!-- Generator: Adobe Illustrator 22.1.0, SVG Export Plug-In . SVG Version: 6.00 Build 0)  -->
<svg version="1.1" id="Capa_1" xmlns="http://www.w3.org/2000/svg" xmlns:xlink="http://www.w3.org/1999/xlink" x="0px" y="0px"
	 viewBox="0 0 512 512" style="enable-background:new 0 0 512 512;" xml:space="preserve">
<g>
	<path d="M480.5,42.1c-17.4,0-31.5,14.2-31.5,31.5v72.7H63.1V73.7c0-17.4-14.2-31.5-31.5-31.5S0,56.3,0,73.7V218
		c0,34.1,27,62.1,60.8,63.5C90,361,166.5,417.9,256,417.9S422,361,451.2,281.5C485,280,512,252.1,512,218V73.7
		C512,56.3,497.8,42.1,480.5,42.1L480.5,42.1z M15,218V73.7c0-9.1,7.4-16.5,16.5-16.5s16.5,7.4,16.5,16.5V210
		c0,19.4,2.7,38.2,7.7,56C32.7,262.2,15,242.1,15,218z M63.1,161.3h385.8v17.1h-40.6c-4.1,0-7.5,3.4-7.5,7.5s3.4,7.5,7.5,7.5h35.1
		c-8.1,12.4-24.8,24.2-48.6,33.9c-37,15-86.3,23.3-138.9,23.3s-101.9-8.3-138.9-23.3c-23.8-9.6-40.5-21.5-48.6-33.9h307.7
		c4.1,0,7.5-3.4,7.5-7.5s-3.4-7.5-7.5-7.5H63.1L63.1,161.3z M256,402.9c-63.2,0-119.4-30.5-154.6-77.6c2.6,2.5,5.2,4.9,7.9,7.3
		c39.2,34.3,91.3,53.2,146.6,53.2s107.4-18.9,146.6-53.2c2.7-2.4,5.3-4.8,7.9-7.3C375.3,372.4,319.2,402.9,256,402.9z M157.5,313.2
		c30,10.8,64.1,16.5,98.5,16.5c55,0,106.8-14.1,145.8-39.8c14.6-9.6,26.8-20.4,36.5-32.1c-26.2,65.7-98,112.9-182.3,112.9
		c-84.3,0-156.2-47.4-182.4-113.1c12.6,15.4,29.6,29.2,50.5,40.6c1.1,0.6,2.4,0.9,3.6,0.9c2.7,0,5.2-1.4,6.6-3.9
		c2-3.6,0.7-8.2-3-10.2c-33.9-18.5-56.5-43.6-64.8-71c10.7,10.1,25.7,19.3,44.9,27c38.7,15.7,90.1,24.4,144.5,24.4
		s105.8-8.7,144.5-24.4c19.1-7.8,34.2-16.9,44.9-27c-17.1,57.2-95.5,100.6-189.4,100.6c-32.7,0-65-5.4-93.4-15.6
		c-3.9-1.4-8.2,0.6-9.6,4.5C151.6,307.5,153.6,311.8,157.5,313.2L157.5,313.2z M497,218c0,24.1-17.7,44.2-40.8,48
		c5-17.8,7.7-36.6,7.7-56V73.7c0-9.1,7.4-16.5,16.5-16.5S497,64.6,497,73.7V218z"/>
</g>
</svg>
