<?xml version="1.0" encoding="utf-8"?>
<!-- Generator: Adobe Illustrator 19.0.0, SVG Export Plug-In . SVG Version: 6.00 Build 0)  -->
<svg version="1.1" id="Capa_1" xmlns="http://www.w3.org/2000/svg" xmlns:xlink="http://www.w3.org/1999/xlink" x="0px" y="0px"
	 viewBox="6 -6 512 512" style="enable-background:new 6 -6 512 512;" xml:space="preserve">
<style type="text/css">
	.st0{fill:#23C495;}
</style>
<g>
	<path class="st0" d="M514.3,84.1c7.9-24.8,3.2-48.2-13.1-66.1C483.6-1.1,454.7-10,429.3-4.3c-23.9,5.4-41.3,22.2-49,47.3l-3,9.7
		c-59.1,43.8-99.9,53.2-132.7,60.7c-29.2,6.7-54.4,12.5-80.5,38.7c-26.3,26.1-32.1,51.3-38.8,80.5c-7.5,32.8-16.9,73.6-60.8,132.7
		l-9.6,2.9c-25,7.7-41.8,25.1-47.2,49C2,442.7,10.9,471.6,30,489.1C42.2,500.3,57,506,73,506c7.5,0,15.2-1.2,23.1-3.7l79.5-25.3
		c0,0,0.1,0,0.1,0c25.7,11.2,55.6,16.9,88.5,16.9c12.5,0,25.5-0.8,38.8-2.5c57.9-7.3,116.7-30.9,143.1-57.2
		c26.4-26.4,49.9-85.2,57.2-143.1c6.1-48.3,1-91.8-14.4-127.3c0,0,0-0.1,0-0.1L514.3,84.1z M144.9,237.1
		c6.5-28.3,11.2-48.7,33.4-70.8c22-22.2,42.5-26.9,70.8-33.4c33.9-7.8,75.7-17.4,135.9-61l39.7,39.7
		c-71.8,29.4-133.3,69.3-182.9,118.5c-50,49.7-89.8,110.9-118.6,182.2l-39.3-39.3C127.5,312.8,137.1,270.9,144.9,237.1L144.9,237.1z
		 M90,483.2c-22.6,7.2-37.8-0.8-46.5-8.8c-14-12.9-20.6-34-16.3-52.7c2.7-11.8,10.7-27.2,33.6-34.3l7-2.2l58.5,58.5
		c7.5,7.5,15.7,14.1,24.7,20L90,483.2z M483.5,288.5c-7.6,60.1-31.7,111.6-51.5,131.5c-19.8,19.8-71.4,43.9-131.4,51.5
		c-2.5,0.3-5.2,0.6-7.9,0.9c49.1-78.6,112.1-141.4,191.8-191.2C484,283.7,483.8,286.1,483.5,288.5L483.5,288.5z M485.7,256.9
		c-45.5,27.2-86.7,59-122.6,94.7c-36.1,35.9-68,77-94.9,122.1c-20.3,0.3-43.6-1.6-66.6-8.5c23.8-47.3,52.3-90.3,84.9-128.1
		c3.6-4.2,3.1-10.5-1-14.1c-4.2-3.6-10.5-3.1-14.1,1c-34.1,39.6-63.9,84.7-88.6,134.2c-15.1-6.7-29.6-15.9-42.3-28.6l-2-2
		c56-144.4,154.7-242.9,301.5-300.8l1.6,1.6c12.8,12.8,22.1,27.4,28.8,42.7c-49.7,25-94.8,54.8-134.2,88.4
		c-4.2,3.6-4.7,9.9-1.1,14.1c2,2.3,4.8,3.5,7.6,3.5c2.3,0,4.6-0.8,6.5-2.4c37.6-32.2,80.7-60.6,128.1-84.7
		C484.2,213.1,486.1,236.6,485.7,256.9L485.7,256.9z M475.8,139.1c-5.8-9-12.5-17.2-20-24.7l-6.1-6.1c0,0,0,0,0,0l-52.4-52.4l2.1-7
		c7-22.9,22.5-30.9,34.3-33.6c18.7-4.2,39.9,2.3,52.7,16.3c8,8.7,16,23.9,8.8,46.5L475.8,139.1z"/>
	<path class="st0" d="M302.5,290.7c-3.9,3.9-3.8,10.3,0.1,14.1c1.9,1.9,4.5,2.9,7,2.9c2.6,0,5.2-1,7.1-3l0,0
		c3.9-3.9,3.8-10.3-0.1-14.1C312.8,286.7,306.4,286.8,302.5,290.7z"/>
</g>
</svg>
