<?xml version="1.0" encoding="utf-8"?>
<!-- Generator: Adobe Illustrator 19.0.0, SVG Export Plug-In . SVG Version: 6.00 Build 0)  -->
<svg version="1.1" id="Capa_1" xmlns="http://www.w3.org/2000/svg" xmlns:xlink="http://www.w3.org/1999/xlink" x="0px" y="0px"
	 viewBox="6 -6 512 512" style="enable-background:new 6 -6 512 512;" xml:space="preserve">
<style type="text/css">
	.st0{fill:#23C495;}
</style>
<g>
	<path class="st0" d="M486.5,36.1c-17.4,0-31.5,14.2-31.5,31.5v72.7H69.1V67.7c0-17.4-14.2-31.5-31.5-31.5S6,50.3,6,67.7V212
		c0,34.1,27,62.1,60.8,63.5C96,355,172.5,411.9,262,411.9S428,355,457.2,275.5C491,274,518,246.1,518,212V67.7
		C518,50.3,503.8,36.1,486.5,36.1L486.5,36.1z M21,212V67.7c0-9.1,7.4-16.5,16.5-16.5S54,58.6,54,67.7V204c0,19.4,2.7,38.2,7.7,56
		C38.7,256.2,21,236.1,21,212z M69.1,155.3h385.8v17.1h-40.6c-4.1,0-7.5,3.4-7.5,7.5s3.4,7.5,7.5,7.5h35.1
		c-8.1,12.4-24.8,24.2-48.6,33.9c-37,15-86.3,23.3-138.9,23.3S160,236.3,123,221.3c-23.8-9.6-40.5-21.5-48.6-33.9h307.7
		c4.1,0,7.5-3.4,7.5-7.5s-3.4-7.5-7.5-7.5h-313V155.3z M262,396.9c-63.2,0-119.4-30.5-154.6-77.6c2.6,2.5,5.2,4.9,7.9,7.3
		c39.2,34.3,91.3,53.2,146.6,53.2s107.4-18.9,146.6-53.2c2.7-2.4,5.3-4.8,7.9-7.3C381.3,366.4,325.2,396.9,262,396.9z M163.5,307.2
		c30,10.8,64.1,16.5,98.5,16.5c55,0,106.8-14.1,145.8-39.8c14.6-9.6,26.8-20.4,36.5-32.1c-26.2,65.7-98,112.9-182.3,112.9
		S105.8,317.3,79.6,251.6c12.6,15.4,29.6,29.2,50.5,40.6c1.1,0.6,2.4,0.9,3.6,0.9c2.7,0,5.2-1.4,6.6-3.9c2-3.6,0.7-8.2-3-10.2
		c-33.9-18.5-56.5-43.6-64.8-71c10.7,10.1,25.7,19.3,44.9,27c38.7,15.7,90.1,24.4,144.5,24.4s105.8-8.7,144.5-24.4
		c19.1-7.8,34.2-16.9,44.9-27c-17.1,57.2-95.5,100.6-189.4,100.6c-32.7,0-65-5.4-93.4-15.6c-3.9-1.4-8.2,0.6-9.6,4.5
		C157.6,301.5,159.6,305.8,163.5,307.2L163.5,307.2z M503,212c0,24.1-17.7,44.2-40.8,48c5-17.8,7.7-36.6,7.7-56V67.7
		c0-9.1,7.4-16.5,16.5-16.5S503,58.6,503,67.7V212z"/>
</g>
</svg>
