<?xml version="1.0" encoding="utf-8"?>
<!-- Generator: Adobe Illustrator 19.0.0, SVG Export Plug-In . SVG Version: 6.00 Build 0)  -->
<svg version="1.1" id="Outline" xmlns="http://www.w3.org/2000/svg" xmlns:xlink="http://www.w3.org/1999/xlink" x="0px" y="0px"
	 viewBox="6 -6 512 512" style="enable-background:new 6 -6 512 512;" xml:space="preserve">
<style type="text/css">
	.st0{fill:#23C495;}
</style>
<g>
	<path class="st0" d="M420,146h4c21,0,38-17,38-38V96c0-21-17-38-38-38h-4c-21,0-38,17-38,38v12C382,129,399,146,420,146z M398,96
		c0-12.1,9.9-22,22-22h4c12.1,0,22,9.9,22,22v12c0,12.1-9.9,22-22,22h-4c-12.1,0-22-9.9-22-22V96z"/>
	<path class="st0" d="M474,154H370c-15.5,0-28,12.5-28,28v80c0,15.5,12.5,28,28,28h4v124c0,15.5,12.5,28,28,28h40
		c15.5,0,28-12.5,28-28v-36h-16v36c0,6.6-5.4,12-12,12h-12V290h-16v136h-12c-6.6,0-12-5.4-12-12V202h-16v72h-4c-6.6,0-12-5.4-12-12
		v-80c0-6.6,5.4-12,12-12h104c6.6,0,12,5.4,12,12v80c0,6.6-5.4,12-12,12h-4v-72h-16v160h16v-72h4c15.5,0,28-12.5,28-28v-80
		C502,166.5,489.5,154,474,154z"/>
	<path class="st0" d="M414,186h16v24h-16V186z"/>
	<path class="st0" d="M414,226h16v16h-16V226z"/>
	<path class="st0" d="M100,146h4c21,0,38-17,38-38V96c0-21-17-38-38-38h-4c-21,0-38,17-38,38v12C62,129,79,146,100,146z M78,96
		c0-12.1,9.9-22,22-22h4c12.1,0,22,9.9,22,22v12c0,12.1-9.9,22-22,22h-4c-12.1,0-22-9.9-22-22V96z"/>
	<path class="st0" d="M182,262v-80c0-15.5-12.5-28-28-28H50c-15.5,0-28,12.5-28,28v20h16v-20c0-6.6,5.4-12,12-12h104
		c6.6,0,12,5.4,12,12v80c0,6.6-5.4,12-12,12h-4v-72h-16v212c0,6.6-5.4,12-12,12h-12V290H94v136H82c-6.6,0-12-5.4-12-12V202H54v72h-4
		c-6.6,0-12-5.4-12-12v-44H22v44c0,15.5,12.5,28,28,28h4v124c0,15.5,12.5,28,28,28h40c15.5,0,28-12.5,28-28V290h4
		C169.5,290,182,277.5,182,262z"/>
	<path class="st0" d="M94,186h16v24H94V186z"/>
	<path class="st0" d="M94,226h16v16H94V226z"/>
	<path class="st0" d="M342,418H182v-8h-16v32h16v-8h160v8h16v-32h-16V418z"/>
</g>
</svg>
