<?xml version="1.0" encoding="utf-8"?>
<!-- Generator: Adobe Illustrator 19.0.0, SVG Export Plug-In . SVG Version: 6.00 Build 0)  -->
<svg version="1.1" id="Capa_1" xmlns="http://www.w3.org/2000/svg" xmlns:xlink="http://www.w3.org/1999/xlink" x="0px" y="0px"
	 viewBox="6 -6 512 512" style="enable-background:new 6 -6 512 512;" xml:space="preserve">
<style type="text/css">
	.st0{fill:#23C495;}
</style>
<g>
	<g>
		<path class="st0" d="M503.4,64c-7.5-7.5-19.8-7.6-27.3,0L244.6,294.8l-83.5-90.7c-7.2-7.8-19.4-8.3-27.3-1.1
			c-7.8,7.2-8.3,19.4-1.1,27.3l97.1,105.5c3.6,3.9,8.5,6.1,13.8,6.2c0.1,0,0.3,0,0.4,0c5.1,0,10-2,13.6-5.6L503.3,91.3
			C510.9,83.8,510.9,71.5,503.4,64z"/>
	</g>
</g>
<g>
	<g>
		<path class="st0" d="M498.7,230.7c-10.7,0-19.3,8.6-19.3,19.3c0,119.9-97.5,217.4-217.4,217.4c-119.9,0-217.4-97.5-217.4-217.4
			c0-119.9,97.5-217.4,217.4-217.4c10.7,0,19.3-8.6,19.3-19.3C281.3,2.6,272.7-6,262-6C120.8-6,6,108.8,6,250
			c0,141.2,114.8,256,256,256c141.2,0,256-114.8,256-256C518,239.3,509.4,230.7,498.7,230.7z"/>
	</g>
</g>
</svg>
