<?xml version="1.0" encoding="utf-8"?>
<!-- Generator: Adobe Illustrator 19.0.0, SVG Export Plug-In . SVG Version: 6.00 Build 0)  -->
<svg version="1.1" id="Warstwa_1" xmlns="http://www.w3.org/2000/svg" xmlns:xlink="http://www.w3.org/1999/xlink" x="0px" y="0px"
	 viewBox="6 -6 512 512" style="enable-background:new 6 -6 512 512;" xml:space="preserve">
<style type="text/css">
	.st0{fill:#23C495;}
</style>
<path class="st0" d="M262,224.4c-1.2,0-2.5-0.3-3.6-0.8l-145.1-68.3c-3-1.4-4.9-4.4-4.9-7.7c0-3.3,1.9-6.3,4.9-7.7l145.1-68.3
	c2.3-1.1,5-1.1,7.3,0l145.1,68.3c3,1.4,4.9,4.4,4.9,7.7c0,3.3-1.9,6.3-4.9,7.7l-145.1,68.3C264.5,224.1,263.2,224.4,262,224.4
	L262,224.4z M137,147.6l125,58.8l125-58.8L262,88.8L137,147.6z"/>
<path class="st0" d="M262,292.7c-1.3,0-2.6-0.3-3.8-0.9l-102.4-51.2c-2.9-1.5-4.7-4.4-4.7-7.6v-65.3c0-2.9,1.5-5.6,4-7.2
	c2.5-1.6,5.6-1.7,8.2-0.5l98.8,46.5l98.8-46.5c2.6-1.2,5.7-1,8.2,0.5c2.5,1.6,4,4.3,4,7.2v65.3c0,3.2-1.8,6.2-4.7,7.6l-102.4,51.2
	C264.6,292.4,263.3,292.7,262,292.7L262,292.7z M168.1,227.7l93.9,46.9l93.9-46.9v-46.5l-90.2,42.5c-2.3,1.1-5,1.1-7.3,0l-90.2-42.5
	V227.7z"/>
<path class="st0" d="M407.1,156.1H262c-4.7,0-8.5-3.8-8.5-8.5c0-4.7,3.8-8.5,8.5-8.5h145.1c4.7,0,8.5,3.8,8.5,8.5
	C415.6,152.3,411.8,156.1,407.1,156.1z"/>
<path class="st0" d="M407.1,232.9c-4.7,0-8.5-3.8-8.5-8.5v-76.8c0-4.7,3.8-8.5,8.5-8.5s8.5,3.8,8.5,8.5v76.8
	C415.6,229.1,411.8,232.9,407.1,232.9z"/>
<path class="st0" d="M262,173.2c-4.7,0-8.5-3.8-8.5-8.5v-34.1c0-4.7,3.8-8.5,8.5-8.5c4.7,0,8.5,3.8,8.5,8.5v34.1
	C270.5,169.4,266.7,173.2,262,173.2z"/>
<path class="st0" d="M390,258.5c-1.6,0-3.3-0.5-4.7-1.4c-3.9-2.6-5-7.9-2.4-11.8l17.1-25.6c2.6-3.9,7.9-5,11.8-2.4
	c3.9,2.6,5,7.9,2.4,11.8l-17.1,25.6C395.5,257.2,392.7,258.5,390,258.5z"/>
<path class="st0" d="M424.1,258.5c-2.8,0-5.5-1.3-7.1-3.8L400,229.1c-2.6-3.9-1.6-9.2,2.4-11.8c3.9-2.6,9.2-1.6,11.8,2.4l17.1,25.6
	c2.6,3.9,1.6,9.2-2.4,11.8C427.4,258.1,425.8,258.5,424.1,258.5z"/>
<path class="st0" d="M262,250c-4.7,0-8.5-3.8-8.5-8.5v-25.6c0-4.7,3.8-8.5,8.5-8.5c4.7,0,8.5,3.8,8.5,8.5v25.6
	C270.5,246.2,266.7,250,262,250z"/>
<path class="st0" d="M509.5,326.8H14.5c-4.7,0-8.5-3.8-8.5-8.5V36.7C6,17.9,21.3,2.5,40.1,2.5h443.7c18.8,0,34.1,15.3,34.1,34.1
	v281.6C518,323,514.2,326.8,509.5,326.8z M23.1,309.7h477.9V36.7c0-9.4-7.7-17.1-17.1-17.1H40.1c-9.4,0-17.1,7.7-17.1,17.1
	L23.1,309.7z"/>
<path class="st0" d="M483.9,395.1H40.1C21.3,395.1,6,379.7,6,360.9v-42.7c0-4.7,3.8-8.5,8.5-8.5h494.9c4.7,0,8.5,3.8,8.5,8.5v42.7
	C518,379.7,502.7,395.1,483.9,395.1z M23.1,326.8v34.1c0,9.4,7.7,17.1,17.1,17.1h443.7c9.4,0,17.1-7.7,17.1-17.1v-34.1H23.1z"/>
<path class="st0" d="M287.6,360.9h-51.2c-4.7,0-8.5-3.8-8.5-8.5c0-4.7,3.8-8.5,8.5-8.5h51.2c4.7,0,8.5,3.8,8.5,8.5
	C296.1,357.1,292.3,360.9,287.6,360.9z"/>
<path class="st0" d="M475.3,326.8H48.7c-4.7,0-8.5-3.8-8.5-8.5V45.2c0-4.7,3.8-8.5,8.5-8.5h426.7c4.7,0,8.5,3.8,8.5,8.5v273.1
	C483.9,323,480,326.8,475.3,326.8z M57.2,309.7h409.6v-256H57.2V309.7z"/>
<path class="st0" d="M372.9,497.5H151.1c-14.1,0-25.6-11.5-25.6-25.6c0-14.1,11.5-25.6,25.6-25.6h221.9c14.1,0,25.6,11.5,25.6,25.6
	C398.5,486,387,497.5,372.9,497.5z M151.1,463.3c-4.7,0-8.5,3.8-8.5,8.5c0,4.7,3.8,8.5,8.5,8.5h221.9c4.7,0,8.5-3.8,8.5-8.5
	c0-4.7-3.8-8.5-8.5-8.5H151.1z"/>
<path class="st0" d="M355.9,463.3H168.1c-4.7,0-8.5-3.8-8.5-8.5s3.8-8.5,8.5-8.5c28.3,0,42.7-20.1,42.7-59.7c0-4.7,3.8-8.5,8.5-8.5
	h85.3c4.7,0,8.5,3.8,8.5,8.5c0,39.6,14.4,59.7,42.7,59.7c4.7,0,8.5,3.8,8.5,8.5S360.6,463.3,355.9,463.3z M209.7,446.3h104.6
	c-10.5-11.6-16.7-29-17.9-51.2h-68.7C226.4,417.3,220.2,434.6,209.7,446.3z"/>
</svg>
