<?xml version="1.0" encoding="utf-8"?>
<!-- Generator: Adobe Illustrator 25.2.0, SVG Export Plug-In . SVG Version: 6.00 Build 0)  -->
<svg version="1.1" id="Capa_1" xmlns="http://www.w3.org/2000/svg" xmlns:xlink="http://www.w3.org/1999/xlink" x="0px" y="0px"
	 viewBox="0 0 651.14 651.14" style="enable-background:new 0 0 651.14 651.14;" xml:space="preserve">
<style type="text/css">
	.st0{fill:#32B08E;}
</style>
<g>
	<path class="st0" d="M218.28,558.81c12.61,5.9,26.49,6.54,39.09,1.8c11.79-4.43,21.05-13.15,26.06-24.54
		c6.84-15.54,4.53-33.93-5.71-48.14l6.37-14.03l11.15-11.1c0.87-0.86,2.15-1.23,3.42-0.99c13.57,2.61,27.43,3.22,41.23,1.83
		l9.91,11.76l7.61,23.74c-4.45,8.54-5.16,18.42-1.88,27.65c5.94,16.7,24.04,26.37,41.21,22.02c9.42-2.39,17.22-8.37,21.89-16.84
		c4.63-8.35,5.62-18.36,2.7-27.45c-2.85-8.91-9.05-16.14-17.28-20.33l-7.61-23.74l1.25-15.58c21.17-12.33,38.81-29.96,51.21-51.17
		l17.44-0.8l15.76,5.15c2.87,16.58,14.28,30.03,30.18,35.01c23.87,7.49,50.13-6.61,58.54-31.41c4.24-12.49,3.39-25.63-2.39-37
		c-5.41-10.65-14.6-18.47-25.86-22c-15.02-4.71-31.32-1.1-43.62,9.39l-17.41-5.69l-13.82-11.11c1.34-14.28,0.52-28.61-2.44-42.7
		l6.88-8.32l13.8-6c8.79,2.99,18.37,2.36,26.79-1.87c15.71-7.89,23.04-26.3,17.04-42.83c-3.32-9.13-10.04-16.27-18.94-20.1
		c-8.77-3.77-18.83-3.76-27.58,0.05c-9.05,3.94-15.96,11.55-19.07,20.81l-11.56,5.03l-10.26-0.61c-0.45-0.03-0.87-0.25-1.13-0.62
		c-12.06-16.71-27.32-30.34-45.34-40.52c-3.34-1.88-6.8-3.66-10.31-5.28c-0.54-0.25-0.9-0.72-0.95-1.26l-2.18-20.76l4.23-19.89
		c13.88-5.84,24.06-18.18,27.02-33.16c0.06-0.3,0.11-0.6,0.16-0.9l0.04-0.25c0.71-4.19-2.1-8.15-6.29-8.87
		c-4.18-0.71-8.15,2.1-8.87,6.29l-0.06,0.38c-0.02,0.13-0.04,0.25-0.06,0.38c-2.16,10.94-10.14,19.76-20.81,23.02
		c-1.91,0.58-3.49,1.88-4.45,3.57c-0.38,0.67-0.66,1.41-0.83,2.18l-5.37,25.25c-0.17,0.79-0.21,1.6-0.13,2.4l2.31,21.97
		c0.62,5.89,4.37,11.1,9.79,13.61c3.13,1.45,6.22,3.03,9.2,4.71c16.08,9.08,29.68,21.24,40.44,36.14c2.98,4.12,7.6,6.66,12.68,6.97
		l12.1,0.72c1.21,0.07,2.41-0.14,3.52-0.62l16.62-7.23c2.29-1,3.96-3.04,4.46-5.49c1.28-6.17,5.48-11.35,11.24-13.85
		c4.95-2.15,10.41-2.16,15.38-0.03c4.96,2.13,8.71,6.12,10.56,11.22c3.28,9.05-0.88,19.52-9.49,23.85
		c-5.31,2.66-11.44,2.77-16.82,0.3c-1.99-0.91-4.27-0.94-6.27-0.06l-18.41,8c-1.11,0.48-2.09,1.22-2.86,2.15l-10.45,12.64
		c-1.54,1.86-2.11,4.33-1.55,6.68c3.55,14.93,4.4,30.18,2.51,45.32c-0.33,2.65,0.73,5.27,2.81,6.94l18.2,14.63
		c0.72,0.58,1.55,1.03,2.43,1.32l23.07,7.54c2.8,0.92,5.88,0.15,7.92-1.97c8.51-8.84,20.6-12.2,31.54-8.77
		c7.28,2.28,13.23,7.36,16.76,14.29c3.89,7.65,4.43,16.57,1.54,25.1c-5.76,16.96-23.42,26.69-39.38,21.68
		c-11.43-3.59-19.3-14.02-20.05-26.58c-0.19-3.15-2.29-5.87-5.29-6.85l-21.76-7.11c-0.88-0.29-1.81-0.41-2.74-0.37l-20.88,0.95
		c-4.03,0.18-7.62,2.39-9.62,5.92l0,0c-11.38,20.14-28.03,36.78-48.13,48.11c-3.37,1.9-5.57,5.33-5.88,9.17l-1.53,19.1
		c-0.08,1,0.04,2.01,0.34,2.96l9.13,28.46c0.72,2.23,2.41,4.02,4.61,4.85c5.57,2.1,9.81,6.55,11.62,12.21
		c1.65,5.14,1.11,10.58-1.51,15.3c-2.65,4.69-6.96,8.06-12.22,9.39c-9.56,2.42-19.63-2.97-22.94-12.27
		c-2.08-5.83-1.29-12.14,2.16-17.29c1.3-1.95,1.65-4.39,0.93-6.62l-9.13-28.46c-0.31-0.96-0.8-1.84-1.44-2.61l-12.2-14.47
		c-2.51-2.97-6.32-4.48-10.2-4.03c-12.91,1.49-25.89,1.01-38.57-1.43c-6.28-1.21-12.7,0.73-17.17,5.19L272.25,464
		c-0.66,0.65-1.19,1.42-1.58,2.27l-8.9,19.59c-1.25,2.76-0.77,5.99,1.23,8.26c8.95,10.15,11.44,24.19,6.34,35.77
		c-3.33,7.57-9.51,13.38-17.4,16.34c-8.69,3.27-18.34,2.79-27.17-1.34c-5.83-2.73-10.87-6.91-14.58-12.09
		c-2.47-3.45-7.27-4.25-10.72-1.78c-3.45,2.47-4.25,7.27-1.78,10.72C202.94,549.06,210.06,554.97,218.28,558.81L218.28,558.81z"/>
	<path class="st0" d="M204.17,506.41c0.44-2.23,1.13-4.4,2.03-6.45c5.38-12.24,17.91-19.44,31.93-18.35
		c3.22,0.25,6.26-1.54,7.59-4.49l8.35-18.39c0.38-0.85,0.61-1.75,0.67-2.68l1.09-16.83c0.41-6.37-2.41-12.53-7.54-16.46
		c-7.65-5.85-14.62-12.58-20.73-20c-3.65-4.43-9-6.99-14.68-7.01l-11.08-0.05c-1.21-0.01-2.4,0.27-3.48,0.82l-16.2,8.14
		c-2.23,1.12-3.78,3.26-4.15,5.73c-0.93,6.23-4.84,11.63-10.45,14.45c-4.82,2.42-10.28,2.74-15.35,0.88
		c-5.07-1.86-9.04-5.63-11.17-10.62c-3.78-8.85-0.2-19.54,8.16-24.33c5.15-2.95,11.27-3.4,16.78-1.23c2.03,0.8,4.31,0.7,6.27-0.28
		l17.94-9.01c1.08-0.54,2.02-1.33,2.74-2.31l6.27-8.51c3.51-4.76,4.68-10.82,3.22-16.62c-2.84-11.26-4.13-22.83-3.85-34.39
		c0.16-6.73-3.27-13.2-8.96-16.91l-17.85-11.62c-0.67-0.43-1.39-0.76-2.16-0.97l-26.04-7.14c-2.66-0.73-5.51,0.02-7.46,1.97
		c-6.58,6.56-16.23,9.12-25.17,6.66c-6.81-1.87-12.44-6.3-15.85-12.48c-3.41-6.18-4.15-13.31-2.09-20.08
		c3.84-12.62,16.96-20.47,29.86-17.86c9.75,1.97,17.4,9.15,19.97,18.74c0.71,2.64,2.76,4.7,5.39,5.42l26.2,7.18
		c0.77,0.21,1.56,0.3,2.35,0.27l19.37-0.81c7.85-0.33,14.87-4.66,18.82-11.66c0,0,0.01-0.01,0.01-0.01
		c4.09-7.24,8.89-14.08,14.27-20.34c5.13-5.97,6.82-13.98,4.54-21.43l-5.77-18.8c-0.23-0.76-0.58-1.48-1.04-2.13L207,167.76
		c-1.35-1.94-3.52-3.15-5.87-3.29c-6-0.34-11.4-3.36-14.82-8.28c-3.08-4.44-4.16-9.8-3.04-15.09c1.12-5.29,4.31-9.75,8.96-12.56
		c8.18-4.95,19.24-2.94,25.16,4.57c3.95,5.01,5.18,11.39,3.39,17.5c-0.66,2.23-0.27,4.64,1.06,6.55L241.88,186
		c0.45,0.65,1,1.23,1.63,1.71l17.02,13.05c5.27,4.04,12.35,5.05,18.48,2.64c13.8-5.43,28.29-8.42,43.07-8.87
		c6.47-0.2,12.53-3.84,15.8-9.51l10.6-18.35c0.41-0.7,0.69-1.46,0.86-2.25l5.06-23.79c0.63-2.98-0.55-6.04-3.01-7.83
		c-9.67-7-14.31-19.05-11.83-30.71c3.42-16.08,19.31-26.53,35.43-23.29c6.41,1.29,12.11,4.59,16.5,9.55
		c2.82,3.18,7.67,3.47,10.85,0.66c3.18-2.82,3.47-7.67,0.66-10.85c-6.63-7.48-15.26-12.47-24.98-14.42
		c-19.72-3.97-39.21,5.63-48.65,22.33c-2.21,3.91-3.87,8.22-4.85,12.83c-3.38,15.92,2.02,32.32,13.87,43.13l-3.83,18.02l-9.99,17.3
		c-0.63,1.09-1.77,1.79-2.96,1.83c-16.55,0.51-32.78,3.85-48.23,9.93c-1.14,0.45-2.48,0.24-3.49-0.54l-16.06-12.32l-17.41-25.05
		c1.71-9.69-0.78-19.77-6.94-27.59c-10.81-13.72-30.24-17.25-45.19-8.21c-8.33,5.03-14.02,13.03-16.04,22.51
		c-1.99,9.35,0,19.21,5.45,27.06c5.38,7.75,13.5,12.86,22.67,14.41l17.24,24.81l5.42,17.66c0.73,2.37,0.17,4.95-1.5,6.9
		c-6.03,7.02-11.41,14.69-16.04,22.88l0,0.01c-1.28,2.27-3.54,3.69-6.04,3.79l-18.17,0.76l-21.07-5.77
		c-5.07-13.07-16.36-22.67-30.36-25.5c-17.65-3.57-35.54,5.11-44.14,20.33c-1.43,2.53-2.61,5.25-3.48,8.12
		c-3.28,10.78-2.09,22.13,3.34,31.98c5.43,9.85,14.4,16.91,25.25,19.89c12.76,3.5,26.4,0.61,36.64-7.53l20.87,5.72l16.85,10.96
		c1.25,0.81,2.01,2.21,1.97,3.64c-0.32,12.96,1.13,25.92,4.31,38.52c0.33,1.33,0.08,2.69-0.69,3.74l-5.18,7.03l-13.45,6.75
		c-8.94-2.5-18.47-1.34-26.64,3.35c-15.25,8.75-21.55,27.54-14.64,43.71c3.82,8.94,10.93,15.69,20.02,19.02
		c8.97,3.28,19.01,2.71,27.54-1.58c8.82-4.43,15.29-12.41,17.89-21.83l11.27-5.66l9.24,0.04c1.1,0.01,2.15,0.52,2.88,1.41
		c6.86,8.33,14.68,15.88,23.26,22.44c1.05,0.8,1.63,2.02,1.55,3.25l-1,15.43l-5.67,12.49c-18.36,0.54-34.37,10.96-41.69,27.62
		c-1.35,3.07-2.37,6.32-3.03,9.64c-0.83,4.16,1.88,8.21,6.04,9.04C199.3,513.28,203.34,510.57,204.17,506.41L204.17,506.41z"/>
	<path class="st0" d="M404.8,394.78c5.61-6.08,10.54-12.85,14.63-20.1c29.2-51.67,10.91-117.46-40.75-146.65
		c-51.67-29.2-117.46-10.91-146.65,40.75s-10.91,117.46,40.75,146.65c32.31,18.26,71.14,18.67,103.89,1.12
		c3.74-2.01,5.15-6.67,3.14-10.41c-2.01-3.74-6.66-5.15-10.41-3.14c-28.08,15.05-61.37,14.7-89.06-0.95
		c-44.29-25.03-59.96-81.42-34.93-125.71s81.42-59.96,125.71-34.93s59.96,81.42,34.93,125.71c-3.52,6.22-7.74,12.02-12.55,17.24
		c-2.88,3.12-2.68,7.98,0.44,10.86C397.06,398.1,401.92,397.9,404.8,394.78L404.8,394.78z"/>
	<path class="st0" d="M559.96,260.94c-9.81,17.35-3.67,39.45,13.69,49.26C591,320,613.1,313.86,622.9,296.5
		c9.81-17.35,3.67-39.45-13.69-49.26C591.86,237.44,569.77,243.58,559.96,260.94z M609.52,288.94c-5.64,9.97-18.34,13.5-28.31,7.87
		s-13.5-18.34-7.87-28.31c5.64-9.97,18.34-13.5,28.31-7.87C611.62,266.27,615.15,278.97,609.52,288.94z"/>
	<path class="st0" d="M291.69,100.41c7.18-12.71,2.69-28.91-10.03-36.09c-12.71-7.18-28.91-2.69-36.09,10.03
		c-7.18,12.71-2.69,28.9,10.03,36.09C268.31,117.62,284.5,113.12,291.69,100.41z M258.95,81.91c3.01-5.33,9.81-7.22,15.14-4.21
		c5.33,3.01,7.22,9.81,4.21,15.14c-3.01,5.33-9.81,7.22-15.14,4.21C257.83,94.04,255.94,87.24,258.95,81.91z"/>
	<path class="st0" d="M102.73,390.09c9.6-16.98,3.59-38.61-13.4-48.2c-16.98-9.6-38.61-3.59-48.2,13.4s-3.59,38.61,13.4,48.2
		C71.51,413.09,93.14,407.08,102.73,390.09z M54.52,362.85c5.43-9.6,17.65-13,27.26-7.57s13,17.65,7.57,27.26
		c-5.43,9.6-17.65,13-27.26,7.57S49.09,372.45,54.52,362.85z"/>
	<path class="st0" d="M348.34,337.75c16.08,9.09,36.56,3.4,45.65-12.69s3.4-36.56-12.69-45.65s-36.56-3.4-45.65,12.69
		S332.25,328.66,348.34,337.75L348.34,337.75z M349.03,299.67c4.92-8.7,16-11.78,24.7-6.86s11.78,16,6.86,24.7
		c-4.92,8.7-16,11.78-24.7,6.86S344.12,308.37,349.03,299.67z"/>
	<path class="st0" d="M262.82,274.75c-6.85,12.13-2.56,27.56,9.56,34.42c12.13,6.85,27.56,2.56,34.42-9.56
		c6.85-12.13,2.56-27.56-9.56-34.42C285.11,258.34,269.67,262.63,262.82,274.75z M293.42,292.04c-2.68,4.75-8.72,6.42-13.47,3.74
		c-4.75-2.68-6.42-8.72-3.74-13.47s8.72-6.42,13.47-3.74C294.42,281.25,296.1,287.3,293.42,292.04z"/>
	<path class="st0" d="M314.52,341.56c-10.77-6.09-24.49-2.28-30.58,8.5c-6.09,10.77-2.28,24.49,8.5,30.58
		c10.77,6.09,24.49,2.28,30.58-8.5C329.11,361.37,325.3,347.65,314.52,341.56L314.52,341.56z M309.64,364.58
		c-1.92,3.39-6.24,4.59-9.63,2.68c-3.39-1.92-4.59-6.24-2.68-9.63c1.92-3.39,6.24-4.59,9.63-2.68
		C310.35,356.87,311.55,361.19,309.64,364.58z"/>
</g>
</svg>
