<?xml version="1.0" encoding="utf-8"?>
<!-- Generator: Adobe Illustrator 19.0.0, SVG Export Plug-In . SVG Version: 6.00 Build 0)  -->
<svg version="1.1" id="Capa_1" xmlns="http://www.w3.org/2000/svg" xmlns:xlink="http://www.w3.org/1999/xlink" x="0px" y="0px"
	 viewBox="76 -75.1 651.1 651.1" style="enable-background:new 76 -75.1 651.1 651.1;" xml:space="preserve">
<style type="text/css">
	.st0{fill:#23C495;}
</style>
<g>
	<path class="st0" d="M294.3,483.7c12.6,5.9,26.5,6.5,39.1,1.8c11.8-4.4,21-13.2,26.1-24.5c6.8-15.5,4.5-33.9-5.7-48.1l6.4-14
		l11.1-11.1c0.9-0.9,2.1-1.2,3.4-1c13.6,2.6,27.4,3.2,41.2,1.8l9.9,11.8l7.6,23.7c-4.5,8.5-5.2,18.4-1.9,27.6
		c5.9,16.7,24,26.4,41.2,22c9.4-2.4,17.2-8.4,21.9-16.8c4.6-8.3,5.6-18.4,2.7-27.5c-2.9-8.9-9-16.1-17.3-20.3l-7.6-23.7l1.2-15.6
		c21.2-12.3,38.8-30,51.2-51.2l17.4-0.8l15.8,5.1c2.9,16.6,14.3,30,30.2,35c23.9,7.5,50.1-6.6,58.5-31.4c4.2-12.5,3.4-25.6-2.4-37
		c-5.4-10.6-14.6-18.5-25.9-22c-15-4.7-31.3-1.1-43.6,9.4l-17.4-5.7l-13.8-11.1c1.3-14.3,0.5-28.6-2.4-42.7l6.9-8.3l13.8-6
		c8.8,3,18.4,2.4,26.8-1.9c15.7-7.9,23-26.3,17-42.8c-3.3-9.1-10-16.3-18.9-20.1c-8.8-3.8-18.8-3.8-27.6,0.1
		c-9.1,3.9-16,11.6-19.1,20.8l-11.6,5l-10.3-0.6c-0.5,0-0.9-0.2-1.1-0.6c-12.1-16.7-27.3-30.3-45.3-40.5c-3.3-1.9-6.8-3.7-10.3-5.3
		c-0.5-0.2-0.9-0.7-1-1.3l-2.2-20.8l4.2-19.9c13.9-5.8,24.1-18.2,27-33.2c0.1-0.3,0.1-0.6,0.2-0.9l0-0.2c0.7-4.2-2.1-8.2-6.3-8.9
		c-4.2-0.7-8.1,2.1-8.9,6.3l-0.1,0.4c0,0.1,0,0.2-0.1,0.4c-2.2,10.9-10.1,19.8-20.8,23c-1.9,0.6-3.5,1.9-4.5,3.6
		c-0.4,0.7-0.7,1.4-0.8,2.2l-5.4,25.2c-0.2,0.8-0.2,1.6-0.1,2.4l2.3,22c0.6,5.9,4.4,11.1,9.8,13.6c3.1,1.4,6.2,3,9.2,4.7
		c16.1,9.1,29.7,21.2,40.4,36.1c3,4.1,7.6,6.7,12.7,7l12.1,0.7c1.2,0.1,2.4-0.1,3.5-0.6l16.6-7.2c2.3-1,4-3,4.5-5.5
		c1.3-6.2,5.5-11.4,11.2-13.9c5-2.1,10.4-2.2,15.4,0c5,2.1,8.7,6.1,10.6,11.2c3.3,9.1-0.9,19.5-9.5,23.9c-5.3,2.7-11.4,2.8-16.8,0.3
		c-2-0.9-4.3-0.9-6.3-0.1l-18.4,8c-1.1,0.5-2.1,1.2-2.9,2.1L527,210.5c-1.5,1.9-2.1,4.3-1.5,6.7c3.5,14.9,4.4,30.2,2.5,45.3
		c-0.3,2.6,0.7,5.3,2.8,6.9l18.2,14.6c0.7,0.6,1.5,1,2.4,1.3l23.1,7.5c2.8,0.9,5.9,0.1,7.9-2c8.5-8.8,20.6-12.2,31.5-8.8
		c7.3,2.3,13.2,7.4,16.8,14.3c3.9,7.6,4.4,16.6,1.5,25.1c-5.8,17-23.4,26.7-39.4,21.7c-11.4-3.6-19.3-14-20-26.6
		c-0.2-3.1-2.3-5.9-5.3-6.9l-21.8-7.1c-0.9-0.3-1.8-0.4-2.7-0.4l-20.9,1c-4,0.2-7.6,2.4-9.6,5.9l0,0c-11.4,20.1-28,36.8-48.1,48.1
		c-3.4,1.9-5.6,5.3-5.9,9.2l-1.5,19.1c-0.1,1,0,2,0.3,3l9.1,28.5c0.7,2.2,2.4,4,4.6,4.9c5.6,2.1,9.8,6.5,11.6,12.2
		c1.6,5.1,1.1,10.6-1.5,15.3c-2.6,4.7-7,8.1-12.2,9.4c-9.6,2.4-19.6-3-22.9-12.3c-2.1-5.8-1.3-12.1,2.2-17.3c1.3-2,1.6-4.4,0.9-6.6
		l-9.1-28.5c-0.3-1-0.8-1.8-1.4-2.6l-12.2-14.5c-2.5-3-6.3-4.5-10.2-4c-12.9,1.5-25.9,1-38.6-1.4c-6.3-1.2-12.7,0.7-17.2,5.2
		l-12.2,12.1c-0.7,0.6-1.2,1.4-1.6,2.3l-8.9,19.6c-1.2,2.8-0.8,6,1.2,8.3c9,10.1,11.4,24.2,6.3,35.8c-3.3,7.6-9.5,13.4-17.4,16.3
		c-8.7,3.3-18.3,2.8-27.2-1.3c-5.8-2.7-10.9-6.9-14.6-12.1c-2.5-3.5-7.3-4.2-10.7-1.8s-4.2,7.3-1.8,10.7
		C278.9,473.9,286.1,479.8,294.3,483.7L294.3,483.7z"/>
	<path class="st0" d="M280.2,431.3c0.4-2.2,1.1-4.4,2-6.5c5.4-12.2,17.9-19.4,31.9-18.4c3.2,0.2,6.3-1.5,7.6-4.5l8.4-18.4
		c0.4-0.9,0.6-1.8,0.7-2.7l1.1-16.8c0.4-6.4-2.4-12.5-7.5-16.5c-7.6-5.9-14.6-12.6-20.7-20c-3.6-4.4-9-7-14.7-7l-11.1,0
		c-1.2,0-2.4,0.3-3.5,0.8l-16.2,8.1c-2.2,1.1-3.8,3.3-4.1,5.7c-0.9,6.2-4.8,11.6-10.4,14.5c-4.8,2.4-10.3,2.7-15.4,0.9
		s-9-5.6-11.2-10.6c-3.8-8.9-0.2-19.5,8.2-24.3c5.1-3,11.3-3.4,16.8-1.2c2,0.8,4.3,0.7,6.3-0.3l17.9-9c1.1-0.5,2-1.3,2.7-2.3
		l6.3-8.5c3.5-4.8,4.7-10.8,3.2-16.6c-2.8-11.3-4.1-22.8-3.9-34.4c0.2-6.7-3.3-13.2-9-16.9l-17.8-11.6c-0.7-0.4-1.4-0.8-2.2-1
		l-26-7.1c-2.7-0.7-5.5,0-7.5,2c-6.6,6.6-16.2,9.1-25.2,6.7c-6.8-1.9-12.4-6.3-15.9-12.5c-3.4-6.2-4.1-13.3-2.1-20.1
		c3.8-12.6,17-20.5,29.9-17.9c9.8,2,17.4,9.1,20,18.7c0.7,2.6,2.8,4.7,5.4,5.4l26.2,7.2c0.8,0.2,1.6,0.3,2.4,0.3l19.4-0.8
		c7.8-0.3,14.9-4.7,18.8-11.7l0,0c4.1-7.2,8.9-14.1,14.3-20.3c5.1-6,6.8-14,4.5-21.4l-5.8-18.8c-0.2-0.8-0.6-1.5-1-2.1L283,92.6
		c-1.4-1.9-3.5-3.1-5.9-3.3c-6-0.3-11.4-3.4-14.8-8.3c-3.1-4.4-4.2-9.8-3-15.1c1.1-5.3,4.3-9.8,9-12.6c8.2-4.9,19.2-2.9,25.2,4.6
		c4,5,5.2,11.4,3.4,17.5c-0.7,2.2-0.3,4.6,1.1,6.6l20,28.8c0.5,0.6,1,1.2,1.6,1.7l17,13.1c5.3,4,12.4,5.1,18.5,2.6
		c13.8-5.4,28.3-8.4,43.1-8.9c6.5-0.2,12.5-3.8,15.8-9.5l10.6-18.4c0.4-0.7,0.7-1.5,0.9-2.2l5.1-23.8c0.6-3-0.5-6-3-7.8
		c-9.7-7-14.3-19.1-11.8-30.7C419,10.9,434.9,0.4,451,3.7c6.4,1.3,12.1,4.6,16.5,9.6c2.8,3.2,7.7,3.5,10.9,0.7
		c3.2-2.8,3.5-7.7,0.7-10.8c-6.6-7.5-15.3-12.5-25-14.4c-19.7-4-39.2,5.6-48.6,22.3c-2.2,3.9-3.9,8.2-4.9,12.8
		c-3.4,15.9,2,32.3,13.9,43.1l-3.8,18l-10,17.3c-0.6,1.1-1.8,1.8-3,1.8c-16.5,0.5-32.8,3.9-48.2,9.9c-1.1,0.4-2.5,0.2-3.5-0.5
		l-16.1-12.3l-17.4-25.1c1.7-9.7-0.8-19.8-6.9-27.6c-10.8-13.7-30.2-17.2-45.2-8.2c-8.3,5-14,13-16,22.5c-2,9.4,0,19.2,5.4,27.1
		c5.4,7.8,13.5,12.9,22.7,14.4l17.2,24.8l5.4,17.7c0.7,2.4,0.2,4.9-1.5,6.9c-6,7-11.4,14.7-16,22.9v0c-1.3,2.3-3.5,3.7-6,3.8
		l-18.2,0.8l-21.1-5.8c-5.1-13.1-16.4-22.7-30.4-25.5c-17.7-3.6-35.5,5.1-44.1,20.3c-1.4,2.5-2.6,5.2-3.5,8.1
		c-3.3,10.8-2.1,22.1,3.3,32c5.4,9.9,14.4,16.9,25.2,19.9c12.8,3.5,26.4,0.6,36.6-7.5l20.9,5.7l16.9,11c1.2,0.8,2,2.2,2,3.6
		c-0.3,13,1.1,25.9,4.3,38.5c0.3,1.3,0.1,2.7-0.7,3.7l-5.2,7l-13.4,6.8c-8.9-2.5-18.5-1.3-26.6,3.4c-15.2,8.8-21.6,27.5-14.6,43.7
		c3.8,8.9,10.9,15.7,20,19c9,3.3,19,2.7,27.5-1.6c8.8-4.4,15.3-12.4,17.9-21.8l11.3-5.7l9.2,0c1.1,0,2.2,0.5,2.9,1.4
		c6.9,8.3,14.7,15.9,23.3,22.4c1,0.8,1.6,2,1.5,3.2l-1,15.4l-5.7,12.5c-18.4,0.5-34.4,11-41.7,27.6c-1.4,3.1-2.4,6.3-3,9.6
		c-0.8,4.2,1.9,8.2,6,9C275.3,438.1,279.3,435.4,280.2,431.3L280.2,431.3z"/>
	<path class="st0" d="M480.8,319.6c5.6-6.1,10.5-12.9,14.6-20.1c29.2-51.7,10.9-117.5-40.8-146.6C403,123.7,337.2,142,308,193.6
		s-10.9,117.5,40.8,146.6c32.3,18.3,71.1,18.7,103.9,1.1c3.7-2,5.1-6.7,3.1-10.4c-2-3.7-6.7-5.1-10.4-3.1c-28.1,15-61.4,14.7-89.1-1
		c-44.3-25-60-81.4-34.9-125.7s81.4-60,125.7-34.9s60,81.4,34.9,125.7c-3.5,6.2-7.7,12-12.5,17.2c-2.9,3.1-2.7,8,0.4,10.9
		C473.1,323,477.9,322.8,480.8,319.6L480.8,319.6z"/>
	<path class="st0" d="M636,185.8c-9.8,17.4-3.7,39.5,13.7,49.3c17.3,9.8,39.4,3.7,49.2-13.7c9.8-17.4,3.7-39.5-13.7-49.3
		C667.9,162.3,645.8,168.4,636,185.8z M685.5,213.8c-5.6,10-18.3,13.5-28.3,7.9s-13.5-18.3-7.9-28.3c5.6-10,18.3-13.5,28.3-7.9
		C687.6,191.1,691.2,203.8,685.5,213.8z"/>
	<path class="st0" d="M367.7,25.3c7.2-12.7,2.7-28.9-10-36.1c-12.7-7.2-28.9-2.7-36.1,10c-7.2,12.7-2.7,28.9,10,36.1
		C344.3,42.5,360.5,38,367.7,25.3z M335,6.8c3-5.3,9.8-7.2,15.1-4.2c5.3,3,7.2,9.8,4.2,15.1s-9.8,7.2-15.1,4.2S331.9,12.1,335,6.8z"
		/>
	<path class="st0" d="M178.7,314.9c9.6-17,3.6-38.6-13.4-48.2c-17-9.6-38.6-3.6-48.2,13.4s-3.6,38.6,13.4,48.2
		C147.5,337.9,169.1,331.9,178.7,314.9z M130.5,287.7c5.4-9.6,17.6-13,27.3-7.6s13,17.6,7.6,27.3c-5.4,9.6-17.7,13-27.3,7.6
		S125.1,297.3,130.5,287.7z"/>
	<path class="st0" d="M424.3,262.6c16.1,9.1,36.6,3.4,45.6-12.7s3.4-36.6-12.7-45.6s-36.6-3.4-45.6,12.7S408.2,253.5,424.3,262.6
		L424.3,262.6z M425,224.5c4.9-8.7,16-11.8,24.7-6.9s11.8,16,6.9,24.7s-16,11.8-24.7,6.9S420.1,233.2,425,224.5z"/>
	<path class="st0" d="M338.8,199.6c-6.9,12.1-2.6,27.6,9.6,34.4c12.1,6.9,27.6,2.6,34.4-9.6c6.9-12.1,2.6-27.6-9.6-34.4
		C361.1,183.2,345.7,187.5,338.8,199.6z M369.4,216.9c-2.7,4.8-8.7,6.4-13.5,3.7c-4.8-2.7-6.4-8.7-3.7-13.5s8.7-6.4,13.5-3.7
		C370.4,206.1,372.1,212.2,369.4,216.9z"/>
	<path class="st0" d="M390.5,266.4c-10.8-6.1-24.5-2.3-30.6,8.5c-6.1,10.8-2.3,24.5,8.5,30.6c10.8,6.1,24.5,2.3,30.6-8.5
		C405.1,286.2,401.3,272.5,390.5,266.4L390.5,266.4z M385.6,289.4c-1.9,3.4-6.2,4.6-9.6,2.7c-3.4-1.9-4.6-6.2-2.7-9.6
		c1.9-3.4,6.2-4.6,9.6-2.7C386.4,281.7,387.5,286,385.6,289.4z"/>
</g>
</svg>
