<?xml version="1.0" encoding="utf-8"?>
<!-- Generator: Adobe Illustrator 19.0.0, SVG Export Plug-In . SVG Version: 6.00 Build 0)  -->
<svg version="1.1" id="Outline" xmlns="http://www.w3.org/2000/svg" xmlns:xlink="http://www.w3.org/1999/xlink" x="0px" y="0px"
	 viewBox="6 -6 512 512" style="enable-background:new 6 -6 512 512;" xml:space="preserve">
<style type="text/css">
	.st0{fill:#23C495;}
</style>
<g>
	<path class="st0" d="M100.7,248.5c-12.9,26.9-6.8,59.1,15.1,79.3l10.9-11.7c-19-17.6-22.1-46.6-7.3-67.9c1.4-1.9,1.8-4.4,1.2-6.6
		c-0.1-0.5-0.3-1-0.4-1.5c-0.9-3.5-3.9-6-7.5-6.1c-24.3-0.7-43.4-21-42.7-45.3C70.6,164.9,90.2,146,114,146c1.2,0,2.4,0,3.5,0.1
		c4.4,0.3,8.3-2.9,8.6-7.3c0.1-1.4-0.1-2.8-0.8-4.1c-4.9-10.2-7.4-21.4-7.4-32.7c0-42,34-76,76-76c24.3,0,47.1,11.6,61.4,31.2
		c2.5,3.4,7.2,4.3,10.7,2c19.5-12.2,44.2-12.3,63.7-0.1l8.5-13.6c-22.5-14-50.7-15.3-74.4-3.4C230.7,3.6,172.6-0.8,134,32.3
		c-28.1,24.2-39,62.9-27.6,98.2c-32.9,4.2-56.2,34.2-52,67.1C57.7,222.6,76.1,242.9,100.7,248.5L100.7,248.5z"/>
	<path class="st0" d="M364.3,106.1c14.5,1.3,25.6,13.4,25.7,27.9c0,6.4-2.2,12.7-6.3,17.6c-2.4,2.9-2.4,7.1,0,10.1
		c22.2,27.5,18,67.8-9.5,90c-3.7,3-7.7,5.6-12,7.7c-4,2-5.6,6.8-3.6,10.7c0.1,0.1,0.1,0.3,0.2,0.4c8.3,14.8,9.5,32.7,3.1,48.5
		l14.8,6c7.1-17.7,7-37.5-0.5-55.1c37.5-23.4,49-72.8,25.6-110.3c-0.7-1.1-1.4-2.1-2.1-3.2c12.4-20.9,5.6-47.9-15.3-60.3
		c-4-2.4-8.3-4.1-12.9-5.1c-2.9-11.1-8.2-21.5-15.7-30.2l-12.2,10.4c6.9,8.1,11.5,17.9,13.3,28.3
		C357.7,103.1,360.7,105.8,364.3,106.1L364.3,106.1z"/>
	<path class="st0" d="M181.2,57.6c0,31.1,25.3,56.4,56.4,56.4V98c-22.3,0-40.4-18.1-40.4-40.4H181.2z"/>
	<path class="st0" d="M251.3,95.6l5.4,15.1c6.9-2.5,13.2-6.3,18.6-11.2l-10.7-11.9C260.8,91.1,256.2,93.8,251.3,95.6z"/>
	<path class="st0" d="M39.3,477.6c-0.8,1.3-1.3,2.8-1.3,4.4v8h16v-5.6l50.7-78l-13.4-8.7L39.3,477.6z"/>
	<path class="st0" d="M174.4,479.6c-0.2,0.8-0.4,1.6-0.4,2.4v8h16v-6.8l34.6-110.8l-15.3-4.8L174.4,479.6z"/>
	<path class="st0" d="M323.8,138c-9.1-2.4-18.8-0.1-25.8,6.1l-4.3,3.8l10.6,12l4.3-3.8c5-4.4,12.5-4,16.9,1c1.1,1.2,1.9,2.6,2.4,4.2
		l11,33.2c1.6,4.8,1.5,10-0.3,14.7l-8.3,22.1l15,5.6l8.3-22.1c3-8.2,3.2-17.1,0.5-25.4l-11-33.2C340.2,147.3,332.9,140.5,323.8,138
		L323.8,138z"/>
	<path class="st0" d="M446,122h16v16h-16V122z"/>
	<path class="st0" d="M446,154h16v16h-16V154z"/>
	<path class="st0" d="M430,138h16v16h-16V138z"/>
	<path class="st0" d="M462,138h16v16h-16V138z"/>
	<path class="st0" d="M62,322h16v16H62V322z"/>
	<path class="st0" d="M62,354h16v16H62V354z"/>
	<path class="st0" d="M46,338h16v16H46V338z"/>
	<path class="st0" d="M78,338h16v16H78V338z"/>
	<path class="st0" d="M390,318c0,19.9,16.1,36,36,36c19.9,0,36-16.1,36-36c0-3.7-0.6-7.3-1.7-10.8c11.7-10.1,13-27.8,2.8-39.5
		c-10.1-11.7-27.8-13-39.5-2.8c-5.6,4.9-9.1,11.8-9.6,19.2C399.7,289.1,390,302.7,390,318z M423.5,298.2c4.4-0.6,7.5-4.6,6.9-8.9
		c0-0.2-0.1-0.5-0.1-0.7c-1.4-6.5,2.7-12.9,9.2-14.3c6.5-1.4,12.9,2.7,14.3,9.2c1.2,5.5-1.6,11.1-6.7,13.4c-4,1.8-5.8,6.6-3.9,10.6
		c0.1,0.2,0.2,0.4,0.3,0.6c5.4,9.6,2.1,21.8-7.5,27.3s-21.8,2.1-27.3-7.5c-5.4-9.6-2.1-21.8,7.5-27.3
		C418.4,299.3,420.9,298.5,423.5,298.2L423.5,298.2z"/>
	<path class="st0" d="M483.9,476.6l-57.6-64l-11.9,10.7l55.5,61.7v4.9h16v-8C486,480,485.3,478.1,483.9,476.6z"/>
	<path class="st0" d="M333.9,257c-0.1-0.8-0.3-1.6-0.7-2.4l-40.1-86.9c-6-13-17.4-22.6-31.2-26.3l-62.1-16.6
		c-14.9-4-30.3,4.9-34.3,19.8c-1.6,6.1-1.2,12.5,1.3,18.2l30.4,70.8L185.7,244l-7.4-22.3c-3.8-11.3-12.7-20.2-24-24l-9.8-3.3
		c-4.2-1.4-8.7,0.9-10.1,5.1c-0.1,0.2-0.1,0.4-0.2,0.6l-16,64c-0.4,1.7-0.3,3.5,0.4,5.1l22.3,52.1l-39.3,60.4l13.4,8.7l41.6-64
		c1.5-2.2,1.7-5.1,0.6-7.5l-22.9-53.5l13.3-53l1.6,0.5c6.6,2.2,11.7,7.4,13.9,13.9l6.5,19.5c-2,0.3-4.1,0.8-6,1.5l-8.1,2.7
		c-4.2,1.4-6.5,5.9-5.1,10.1c0,0.1,0.1,0.3,0.2,0.4l32,80c0.8,2.1,2.5,3.7,4.6,4.5l62.2,23.3L358,485.2v4.8h16v-8c0-2-0.8-4-2.2-5.5
		l-112-120c-0.8-0.9-1.9-1.6-3-2l-60.7-22.8l-27.5-68.8l0.1,0c7.2-2.4,15.2-0.9,21,4l35.2,29.3c3.4,2.8,8.4,2.4,11.3-1
		c1.9-2.3,2.4-5.5,1.2-8.3l-55.8-130.2c-2.6-6.1,0.2-13.2,6.3-15.8c1.8-0.8,3.7-1.1,5.7-0.9l45.1,105.2l14.7-6.3L213.1,145l17.8,4.7
		l39.8,87.6l14.6-6.6l-34.4-75.6l6.9,1.8c9.2,2.4,16.8,8.9,20.8,17.5l39.6,85.8l7.3,58.2l-28.3,21.2l9.6,12.8l26.1-19.6l67.1,74.6
		l11.9-10.7l-70.3-78.1L333.9,257z M200,254.6c-0.4-0.3-0.7-0.6-1.1-0.9l5-4.4l5.7,13.2L200,254.6z"/>
	<path class="st0" d="M242.3,258.8l16-8l7.2,14.3l-16,8L242.3,258.8z"/>
	<path class="st0" d="M274.2,250.8l16-8l7.2,14.3l-16,8L274.2,250.8z"/>
</g>
</svg>
