<?xml version="1.0" encoding="utf-8"?>
<!-- Generator: Adobe Illustrator 19.0.0, SVG Export Plug-In . SVG Version: 6.00 Build 0)  -->
<svg version="1.1" id="Warstwa_1" xmlns="http://www.w3.org/2000/svg" xmlns:xlink="http://www.w3.org/1999/xlink" x="0px" y="0px"
	 viewBox="-4792 4701 413.3 600" style="enable-background:new -4792 4701 413.3 600;" xml:space="preserve">
<style type="text/css">
	.st0{fill:#1D2821;}
	.st1{fill:#313B31;}
	.st2{fill:#DED6A2;}
	.st3{fill:#CBAB75;}
</style>
<g id="Warstwa_2">
</g>
<g id="XMLID_152_">
	<path id="XMLID_38_" class="st0" d="M-4792,4715.3c14.6-2.3,32.3-3.6,47.5-3.6c156.2,0,282.7,126.6,282.7,282.7
		s-126.6,282.7-282.7,282.7c-14.9,0-33.2-1.2-47.5-3.5"/>
	<path id="XMLID_118_" class="st1" d="M-4614.2,4756.8c0,0-9.1,12.3-13,8.3s-17.3-8.3-17.3-8.3s49.3,51.2,14.4,108l10.9-6.1
		c0,0,14.7-21.3,9.8-47.2l8.3-7.3L-4614.2,4756.8z"/>
	<path id="XMLID_115_" class="st1" d="M-4589.6,4828.2c0,0-6.9-7.1-5.6-10.8c1.3-3.6-5.4-1.1-6-4.5c-0.6-3.4,0-8.8,0-8.8l23.2,6.9
		c0,0,7.6,15,1.9,16.3C-4581.7,4828.6-4589.6,4828.2-4589.6,4828.2z"/>
	<path id="XMLID_102_" class="st1" d="M-4680.6,5031.5c0,0,10.9-30.5,15-31.2s0.7,4.8,35.4,4c34.7-0.7,30.1,44.3,30.1,44.3
		s-6.2-36.9-39.9-34.5S-4680.6,5031.5-4680.6,5031.5z"/>
	<path id="XMLID_60_" class="st1" d="M-4744.5,5022c0,0-42.7,34.3-39.3,50.4c0,0,31.6-65.9,71.9,3l15.5-15.1c0,0-8.1-10.5-4.7-15.7
		c3.4-5.2-12.1,4.1-12.1,4.1l-0.5-5l-9.3-10.3v-3.2l-12.6-8.2H-4744.5z"/>
	<path id="XMLID_103_" class="st1" d="M-4705.2,5031.5c0,0,47.7-12,49.3-44.5c1.6-32.6,1.2-32.2-10-33.6s-19.3-21-30.4-18.2
		c-11.2,2.8-43.4,6.4-47.7,28.8C-4748.4,4986.4-4705.2,5031.5-4705.2,5031.5z"/>
	<polygon id="XMLID_101_" class="st1" points="-4733.7,4868.1 -4727.5,4862.6 -4728.5,4858.1 -4731.5,4857.6 -4732.6,4854.9 
		-4738.5,4854.2 -4738.9,4847.1 -4744.1,4847.7 -4747.2,4849.8 -4746.6,4858.1 	"/>
	<path id="XMLID_105_" class="st1" d="M-4733.7,4868.1l22.4-3.2l2.6,3.2l3.4-1.6l2.2,1.6l-2.2,4.3c0,0,10.7,5.4,11.1,12.1
		c0.4,6.6,11.5,45.5-31.6,48.8C-4725.7,4933.2-4674.5,4888.9-4733.7,4868.1z"/>
	<path id="XMLID_104_" class="st1" d="M-4729.6,5234.1l-6-7.4l1.3-3.5l6.2,0.9l-8.8-3.6l-2.2-3.1l22.9-15.5l7,7.7l7.6-10.1l21.6,4.2
		l1.6,10.8l10.2,2.4l12.6,17.3l-2.5,16C-4658.2,5250.1-4686.2,5213.6-4729.6,5234.1z"/>
	<path id="XMLID_107_" class="st1" d="M-4707.5,5187.5l10.1,12.8l21-4.1c0,0-4.9-20-3.3-19.9
		C-4678.1,5176.3-4707.5,5187.5-4707.5,5187.5z"/>
	<polygon id="XMLID_108_" class="st1" points="-4701,5148.6 -4715.3,5176.3 -4713,5178.4 -4706.3,5167 -4700.9,5167 -4699.3,5160.5 
		-4697.1,5165.2 -4687,5161.5 -4687,5155.1 -4691.6,5149 	"/>
	<path id="XMLID_110_" class="st1" d="M-4711.7,5143.9c0,0-10.7,3.9-9.8,7.5s5.5,3.2,9.8,1.3
		C-4707.5,5150.9-4711.7,5143.9-4711.7,5143.9z"/>
	<path id="XMLID_111_" class="st1" d="M-4769.5,5123.1l11.2-2.1c0,0,21.8,1.7,24.6,6.7c2.8,5,32.7,31.6,27.7,57.6
		c-5,26-40.4,32.7-40.4,32.7L-4769.5,5123.1z"/>
	<path id="XMLID_109_" class="st1" d="M-4640,5141.5l15.6-7.1c0,0,21.5-2.1,24.5,3.6c3,5.7,13.8,17.7,16.4,14.9
		c2.6-2.8,17.9-29.1,17.9-29.1s25.7-10.9,34.4-2.7c8.7,8.2,13.1,21,13.1,21l-68.3,33.5L-4640,5141.5z"/>
	<path id="XMLID_113_" class="st1" d="M-4566.9,4900.6c0,0,41.8,2.4,43.2,35.5l-3.4,8.1l-53.1-40.7L-4566.9,4900.6z"/>
	<path id="XMLID_112_" class="st1" d="M-4562.2,5007.4l20.5-24.2l13.3-2.4l12.6-7c0,0,18.7-1.4,22.9,3.1c4.2,4.5,9.9,11.6,9.9,11.6
		l10.8,15.6l-0.5,11.9L-4562.2,5007.4z"/>
	<path id="XMLID_117_" class="st1" d="M-4790,5103.6v24.8c0,0,9.7-3.9,9.7-9.8c0-5.9-5.3-8.4-4.6-10.9c0.7-2.5,7.8-4.5,7.8-4.5
		l-3.4-5.5L-4790,5103.6z"/>
	<path id="XMLID_122_" class="st1" d="M-4696.7,4783.3c0,0,1.1,11.1,13.2,9.2c12.1-1.9,18-8.1,19.6-9.2c1.6-1.1,12-15.4,12-15.4
		v-6.8L-4696.7,4783.3z"/>
	<path id="XMLID_123_" class="st1" d="M-4720.3,4717.4l-9.2,5.1c0,0-22-1.9-21.3-5.1c0.7-3.2,7.9-5.7,7.9-5.7l22.8,1L-4720.3,4717.4
		z"/>
	<path id="XMLID_121_" class="st1" d="M-4754.9,4711.9c0,0-18.1,20.1-35.1,23.6v-20.2C-4790,4715.3-4781.2,4711.8-4754.9,4711.9z"/>
	<path id="XMLID_41_" class="st2" d="M-4577.3,4903.9c0,0-16.3-0.5-21.6,0c-5.2,0.5-26.2,18.5-34.1,20.8c-7.9,2.2-32.6,35.6-9.7,66
		c22.9,30.4,48.4,31.5,63.4,24c15-7.5,28.9-24.7,32.6-26.6s29.2-30.4,16.1-57S-4568.9,4902.2-4577.3,4903.9z"/>
	<path id="XMLID_42_" class="st2" d="M-4521.2,4985.2c0,0-58.4,11.2-50,60.1s73.6,23.6,73.6,23.6s13.5,1.7,18-5.6
		c4.5-7.3,4.5-25.8,4.5-25.8S-4454.9,4990.2-4521.2,4985.2z"/>
	<path id="XMLID_40_" class="st2" d="M-4485.3,4881.3c0,0-38.4-14.6-41.6,28.6s61.3,38,55.3,9.9
		C-4471.7,4919.8-4483.8,4884.6-4485.3,4881.3z"/>
	<path id="XMLID_43_" class="st2" d="M-4580.2,4826.3c0,0,39-4.2,40.7,27.8c1.7,32-22,48.9-40.7,49.3s-33.4-1.6-32.4-38.7
		S-4580.2,4826.3-4580.2,4826.3z"/>
	<path id="XMLID_45_" class="st2" d="M-4462.2,5011.2c0,0-23.6-10.9-23.6-38s20.4-24.7,20.4-24.7S-4460.5,4980.6-4462.2,5011.2z"/>
	<path id="XMLID_44_" class="st2" d="M-4559.9,4780.2l-23.7,30.8c0,0-26.5-2-32-30.8s11.3-31.5,11.3-31.5
		S-4579.6,4761.5-4559.9,4780.2z"/>
	<path id="XMLID_47_" class="st2" d="M-4534.6,4850.3c0,0,14.8-13.9,27.2-9.9c0,0,16.4,28.3,19.2,34.6c0,0-23.1,7.1-27.3-10.2
		c0,0-9.4-0.4-9.4-6.8C-4524.8,4858.1-4533.9,4868.8-4534.6,4850.3z"/>
	<path id="XMLID_46_" class="st2" d="M-4616.8,4901c0,0-19.3,46.6-52.5,34.7c-33.2-11.9-27.2-55-20.8-61.4
		c6.4-6.4,18.3-28.7,41.6-18.8C-4625.2,4865.3-4613.4,4894.1-4616.8,4901z"/>
	<path id="XMLID_48_" class="st2" d="M-4644.5,4756.8c0,0,50.5,48,14.4,108l-61.4-42.1L-4644.5,4756.8z"/>
	<path id="XMLID_49_" class="st2" d="M-4683.7,5047.1c0,0,5,41.1,53,28.2s26.4-43.8,20.8-52.5c-5.6-8.8-37.2-20.8-52.5-7.4
		C-4677.7,5028.8-4684.2,5028.3-4683.7,5047.1z"/>
	<path id="XMLID_51_" class="st2" d="M-4720.3,4712.7c0,0,1,25.6,24.3,27.9c23.3,2.2-17.3,22.6-14.1,33.9c3.3,11.2,43.1,18,52.4-3.9
		c9.4-21.8,16.9-12.9,23.9-5.1c6.9,7.8,21.2-21.2,21.2-21.2S-4672.7,4711-4720.3,4712.7z"/>
	<path id="XMLID_53_" class="st2" d="M-4641.9,5141.9c0,0-56.2,15.3-32,59.3c24.2,44,71.8,25.5,84.3,0
		C-4577,5175.7-4595.2,5131.1-4641.9,5141.9z"/>
	<path id="XMLID_52_" class="st2" d="M-4572,5140.2c-14.1,8.6-30.1,48.5,17.5,63.6c0,0,26.7-23.1,43.2-49.4
		C-4498.4,5133.7-4558.7,5132.1-4572,5140.2z"/>
	<path id="XMLID_54_" class="st2" d="M-4620.2,5071.9c0,0-14.3,44.6,20.1,55.3c0,0,10.8-10.1,10.5-30.6c0,0,3.8,25-4.3,33.4
		c0,0,37.4,12.1,45.9-20.5c8.5-32.6,7.7-27.9,5.7-34.1c-2-6.2-23-37.2-44.1-29.6C-4607.5,5053.5-4612.7,5054.4-4620.2,5071.9z"/>
	<path id="XMLID_55_" class="st2" d="M-4497.6,5068.9c0,0-35.2,5.6-43.4,21.3s6,35.5,12.8,42.1c6.8,6.5,23.3,11.7,23.3,11.7
		s30.2-49.3,29-68.5C-4475.9,5075.4-4485.5,5069.3-4497.6,5068.9z"/>
	<path id="XMLID_56_" class="st2" d="M-4570.4,4798.8l-1.6-2.9l2.8-3.6l2,1.2l14.3-6.9c0,0,44.5,43.3,44.3,52
		c0,0-44.2-1.3-70.3-12.4C-4595.6,4819-4570.4,4798.8-4570.4,4798.8z"/>
	<path id="XMLID_58_" class="st1" d="M-4554.5,5203.9c0,0-12.7-6.7-22,5c-9.3,11.7-6.6,17.8-6.6,17.8S-4557.4,5206.4-4554.5,5203.9z
		"/>
	<path id="XMLID_57_" class="st2" d="M-4658.2,5263.8c0,0,3.8-7.1,3.2-8.5c-0.7-1.4-12.4-15,27.2-28.7s44.7,0,44.7,0
		S-4617.3,5249.5-4658.2,5263.8z"/>
	<path id="XMLID_59_" class="st2" d="M-4721.5,5276.3c0,0-42.3-35.4,20-60.2c0,0,32.7,0.3,36.1,18.2c3.4,17.9,15.3,14.3,2,31.1
		C-4663.4,5265.4-4705,5277.6-4721.5,5276.3z"/>
	<path id="XMLID_61_" class="st2" d="M-4790,5227.7c0,0,86-0.7,61.2-65.2c-24.9-64.5-61.2-30.3-61.2-30.3V5227.7z"/>
	<path id="XMLID_64_" class="st2" d="M-4736.9,5144l3.5-11.8l-3.5-4l10.2-16.2h3.2c0,0,14.4-40.1,69.1-34.2c0,0,19.8-0.8,17.1,14
		c0,0,24.5,8.1,24.7,34.3c0,0-43.2,32.9-62.1,25.5c0,0-18.3-6.1-21.7-19.5C-4696.4,5132.2-4706.8,5145-4736.9,5144z"/>
	<path id="XMLID_62_" class="st2" d="M-4783.8,5072.3c0,0-5.7,44.4,35.4,42.7c41.2-1.7,36.5-39.7,36.5-39.7s-18.3-35.7-43.1-30.7
		C-4779.8,5049.5-4783.8,5072.3-4783.8,5072.3z"/>
	<path id="XMLID_65_" class="st2" d="M-4731.4,4868.1c0,0-25.6,4-24.9,30.2c0.7,26.2,17.5,37.6,36,34.3
		c18.5-3.4,23.2-23.5,21.2-37.3C-4701.1,4881.5-4714.6,4868.7-4731.4,4868.1z"/>
	<path id="XMLID_67_" class="st2" d="M-4790,4897.2v88c0,0,52,15.8,42.6-47.6C-4756.7,4874.2-4790,4897.2-4790,4897.2z"/>
	<path id="XMLID_68_" class="st2" d="M-4723.4,4791c0,0-3.5,50.6-61,33.7l-5.6-2.5V4759l14-2.2l70.5,16.6L-4723.4,4791z"/>
	<path id="XMLID_50_" class="st2" d="M-4729.2,4719.7c0,0,13.9,36.2,12.4,57c0,0-60.4-5-62.9-9.4
		C-4782.2,4762.8-4764.4,4705.3-4729.2,4719.7z"/>
	<path id="XMLID_66_" class="st2" d="M-4790,4826.2v54.8c0,0,43.2-3.2,55.9-12.9c0,0-49.4-37.3-50.5-43.3L-4790,4826.2z"/>
	<path id="XMLID_70_" class="st2" d="M-4733.7,4816.1c0,0-12.2,5.7-8.7,22.5c3.5,16.7,12.6,9.3,12.6,9.3s-8.7,5.2,0,7
		c8.7,1.7,7-7,7-7s2.7,11.9,11.8,5.1c0,0-2,15.3,12.3,11.9s15-25.1,15-25.1l-2.9-13.6l-5-19.7
		C-4691.6,4806.5-4718,4802.6-4733.7,4816.1z"/>
	<path id="XMLID_69_" class="st2" d="M-4790,5026v45.2c0,0,14-31.1,19.7-34.2l-2.6-3.5l11.9-11.7v-8.9h-8.7L-4790,5026z"/>
	<path id="XMLID_85_" class="st3" d="M-4579.7,4915c0,0-13.2-0.4-17.4,0c-4.2,0.4-21.2,14.9-27.5,16.8c-6.3,1.8-26.3,28.7-7.9,53.2
		c18.4,24.5,39,25.4,51.1,19.3s23.3-19.9,26.3-21.5s23.6-24.5,13-45.9C-4552.6,4915.4-4572.8,4913.7-4579.7,4915z"/>
	<path id="XMLID_84_" class="st3" d="M-4521.3,4993.8c0,0-47.1,9.1-40.3,48.5c6.8,39.4,59.3,19,59.3,19s10.9,1.4,14.5-4.5
		c3.6-5.9,3.6-20.8,3.6-20.8S-4467.8,4997.9-4521.3,4993.8z"/>
	<path id="XMLID_83_" class="st3" d="M-4578.4,4832.6c0,0,31.4-3.4,32.8,22.5s-17.7,39.4-32.8,39.8c-15.1,0.3-26.9-1.3-26.1-31.2
		S-4578.4,4832.6-4578.4,4832.6z"/>
	<path id="XMLID_82_" class="st3" d="M-4624.6,4901.4c0,0-15.6,37.5-42.3,28c-26.8-9.6-22-44.3-16.8-49.5
		c5.2-5.2,14.8-23.2,33.5-15.2C-4631.4,4872.7-4621.9,4895.8-4624.6,4901.4z"/>
	<path id="XMLID_81_" class="st3" d="M-4649.6,4767.1c0,0,42.9,40.7,12.2,91.6l-52.1-35.7L-4649.6,4767.1z"/>
	<path id="XMLID_80_" class="st3" d="M-4675.6,5048.8c0,0,4,33.2,42.7,22.8c38.7-10.4,21.3-35.3,16.8-42.3s-30-16.8-42.3-6
		S-4676,5033.7-4675.6,5048.8z"/>
	<path id="XMLID_79_" class="st3" d="M-4637.6,5150c0,0-45.3,12.3-25.8,47.8s57.9,20.6,68,0
		C-4585.3,5177.3-4599.9,5141.3-4637.6,5150z"/>
	<path id="XMLID_78_" class="st3" d="M-4614,5076.2c0,0-11.5,36,16.2,44.6c0,0,8.7-8.1,8.5-24.7c0,0,3.1,20.1-3.4,26.9
		c0,0,30.2,9.7,37-16.6c6.8-26.3,6.2-22.5,4.6-27.5c-1.6-5-18.5-30-35.6-23.8S-4607.9,5062.2-4614,5076.2z"/>
	<path id="XMLID_77_" class="st3" d="M-4716.8,5275.2c0,0-34.1-28.5,16.1-48.5c0,0,26.4,0.3,29.1,14.7c2.8,14.4,12.3,11.5,1.6,25.1
		C-4669.9,5266.5-4703.4,5276.3-4716.8,5275.2z"/>
	<path id="XMLID_75_" class="st3" d="M-4728.5,5141.9l2.8-9.5l-2.8-3.3l8.2-13.1h2.6c0,0,11.6-32.3,55.7-27.5
		c0,0,15.9-0.6,13.8,11.3c0,0,19.7,6.5,19.9,27.7c0,0-34.8,26.6-50.1,20.6c0,0-14.7-4.9-17.5-15.7
		C-4695.9,5132.4-4704.3,5142.7-4728.5,5141.9z"/>
	<path id="XMLID_74_" class="st3" d="M-4776.8,5075.8c0,0-4.6,35.8,28.6,34.4c33.2-1.3,29.4-32,29.4-32s-14.8-28.8-34.7-24.8
		C-4773.5,5057.4-4776.8,5075.8-4776.8,5075.8z"/>
	<path id="XMLID_73_" class="st3" d="M-4731.6,4874.4c0,0-20.6,3.3-20.1,24.4c0.6,21.1,14.1,30.3,29,27.6
		c14.9-2.7,18.7-19,17.1-30.1C-4707.2,4885.3-4718,4875-4731.6,4874.4z"/>
	<path id="XMLID_72_" class="st3" d="M-4728.6,4724.6c0,0,12.6,32.9,11.3,51.8c0,0-54.9-4.5-57.2-8.6
		C-4776.8,4763.7-4760.6,4711.5-4728.6,4724.6z"/>
	<path id="XMLID_71_" class="st3" d="M-4729.5,4817.9c0,0-9.8,4.6-7,18.1c2.8,13.5,10.2,7.5,10.2,7.5s-7,4.2,0,5.6
		c7,1.4,5.6-5.6,5.6-5.6s2.2,9.6,9.5,4.1c0,0-1.6,12.4,9.9,9.6c11.5-2.8,12.1-20.3,12.1-20.3l-2.4-10.9l-4-15.9
		C-4695.5,4810.2-4716.8,4807.1-4729.5,4817.9z"/>
	<path id="XMLID_100_" class="st3" d="M-4483.4,4885c0,0-33.5-12.8-36.4,25c-2.8,37.8,53.5,33.1,48.2,8.7
		C-4471.5,4918.6-4482.1,4887.9-4483.4,4885z"/>
	<path id="XMLID_99_" class="st3" d="M-4462,5008.2c0,0-20.6-9.5-20.6-33.2s17.8-21.6,17.8-21.6S-4460.6,4981.5-4462,5008.2z"/>
	<path id="XMLID_98_" class="st3" d="M-4559.8,4780.1l-20.7,26.9c0,0-23.1-1.8-28-26.9c-4.9-25.1,9.9-27.5,9.9-27.5
		S-4577,4763.8-4559.8,4780.1z"/>
	<path id="XMLID_97_" class="st3" d="M-4531.9,4850.5c0,0,14.6-12.2,25.5-8.7c0,0,14.3,24.7,16.8,30.2c0,0-20.2,6.2-23.8-8.9
		c0,0-11.1-2.4-11.1-8C-4524.6,4855.2-4531.3,4866.6-4531.9,4850.5z"/>
	<path id="XMLID_96_" class="st3" d="M-4711.2,4714.7c0,0,0.9,22.4,21.2,24.3c20.3,2-15.1,19.8-12.3,29.6
		c2.8,9.8,37.6,15.7,45.8-3.4c8.2-19.1,14.8-11.2,20.8-4.5c6.1,6.8,18.5-18.5,18.5-18.5S-4669.7,4713.2-4711.2,4714.7z"/>
	<path id="XMLID_95_" class="st3" d="M-4566.2,5143.9c-12.3,7.5-26.3,42.3,15.3,55.6c0,0,23.3-20.2,37.7-43.1
		C-4501.9,5138.3-4554.6,5136.8-4566.2,5143.9z"/>
	<path id="XMLID_94_" class="st3" d="M-4495.8,5073.9c0,0-30.7,4.9-37.9,18.6s5.2,31,11.1,36.7c5.9,5.7,20.4,10.3,20.4,10.3
		s26.3-43,25.3-59.8C-4476.9,5079.6-4485.3,5074.3-4495.8,5073.9z"/>
	<path id="XMLID_93_" class="st3" d="M-4567.5,4799.4l-1.4-2.5l2.4-3.2l1.8,1.1l14.4-6.1c0,0,36.9,37.8,36.8,45.4
		c0,0-38.5-1.1-61.4-10.8C-4589.5,4817.1-4567.5,4799.4-4567.5,4799.4z"/>
	<path id="XMLID_92_" class="st3" d="M-4556.4,5205.3c0,0-11.1-5.9-19.2,4.3c-8.1,10.2-5.7,15.6-5.7,15.6
		S-4558.9,5207.5-4556.4,5205.3z"/>
	<path id="XMLID_91_" class="st3" d="M-4650.4,5260.9c0,0,3.4-6.2,2.8-7.4c-0.6-1.2-10.8-13.1,23.7-25c34.6-11.9,39,0,39,0
		S-4614.7,5248.5-4650.4,5260.9z"/>
	<path id="XMLID_90_" class="st3" d="M-4790,5221.9c0,0,75.1-0.6,53.4-56.9c-21.7-56.3-53.4-26.4-53.4-26.4V5221.9z"/>
	<path id="XMLID_89_" class="st3" d="M-4790,4904.3v76.8c0,0,45.4,13.8,37.2-41.5C-4760.9,4884.3-4790,4904.3-4790,4904.3z"/>
	<path id="XMLID_88_" class="st3" d="M-4731.5,4790.8c0,0-2.7,44.2-52.9,29.4l-4.6-2.2v-55.2l12-1.9l61.4,14.5L-4731.5,4790.8z"/>
	<path id="XMLID_87_" class="st3" d="M-4789,4829.6v47.8c0,0,37.4-2.8,48.5-11.3c0,0-43-32.5-44-37.8L-4789,4829.6z"/>
	<path id="XMLID_86_" class="st3" d="M-4790,5025.1v39.5c0,0,12.3-27.2,17.3-29.9l-2-3.1l10.7-10.2v-7.5h-8.1L-4790,5025.1z"/>
	<path id="XMLID_63_" class="st2" d="M-4729.4,4948.4c-15.6,8.4-33.8,42.5-10.8,70.1c22.9,27.7,69.3,8.5,69.3-33.4
		S-4714.2,4940.2-4729.4,4948.4z"/>
	<path id="XMLID_76_" class="st3" d="M-4726.6,4956.5c-12.6,6.8-27.2,34.2-8.7,56.5c18.5,22.3,55.9,6.8,55.9-26.9
		S-4714.4,4949.9-4726.6,4956.5z"/>
	<path id="XMLID_106_" class="st1" d="M-4744.5,5260.9c0,0-16,3.1-16.4,15.8c0,0,29.9,0.6,39.4-0.5c0,0-15.3-16.4-14-25.2
		c0,0-4.9,0.3-4.7,6.5C-4740.2,5257.5-4740.8,5263.6-4744.5,5260.9z"/>
	<polygon id="XMLID_114_" class="st1" points="-4694,4877.4 -4694,4861.8 -4679,4852.9 -4679,4855.8 -4684,4862.6 -4684,4868 	"/>
	<path id="XMLID_116_" class="st1" d="M-4609.5,4847.1c0,0-3.5-2.9,1.1-8.6c4.6-5.6,7.2-2.9,7.2-2.9L-4609.5,4847.1z"/>
	<path id="XMLID_119_" class="st1" d="M-4790,4881v16.3c0,0,12.7-7.5,28.2-4.1c0,0-11.2-2-10.1-8.1c1.1-6.2,10.4-2.1,10.4-2.1
		l10.1-7.8L-4790,4881z"/>
	<path id="XMLID_120_" class="st1" d="M-4723,4856.1c0,0-1.4,4,2.9,3.6s2.3-3.6,2.3-3.6S-4720.7,4852.8-4723,4856.1z"/>
	<polygon id="XMLID_125_" class="st1" points="-4671.2,4747 -4703.5,4780.9 -4705.3,4779.8 	"/>
	<polygon id="XMLID_126_" class="st1" points="-4767.2,4803.8 -4761.4,4828 -4758.7,4828 	"/>
	<path id="XMLID_124_" class="st1" d="M-4766.4,4776.9c0,0-3.7,2.4-3,3.9s-9.2,22.1-9.2,22.1l10.8-21.1
		C-4767.8,4781.8-4763.4,4779.8-4766.4,4776.9z"/>
	<polygon id="XMLID_128_" class="st1" points="-4761.4,4790.3 -4737,4818.5 -4733.7,4816.1 	"/>
	<path id="XMLID_129_" class="st1" d="M-4748.4,4973.3c0,0,12.4,0.8,17.2,9.3c4.8,8.5,16.9,10,16.9,10s-16.6-6.7-17-12.3
		c-0.5-5.6-15.6-10.7-15.6-10.7L-4748.4,4973.3z"/>
	<path id="XMLID_127_" class="st1" d="M-4698.5,4963.9l-16.2,28.5C-4714.7,4992.5-4702.1,4977.2-4698.5,4963.9z"/>
	<path id="XMLID_131_" class="st1" d="M-4710.6,5007.7l-4.1-15.2c0,0,1.9-2.9,1.8-2.2C-4713.5,4994.4-4710.6,5007.7-4710.6,5007.7z"
		/>
	<polygon id="XMLID_132_" class="st1" points="-4581.7,4828.1 -4578.2,4850.5 -4577.5,4827.6 	"/>
	<path id="XMLID_130_" class="st1" d="M-4548.3,4812.5c0,0-4.3,6.9-9.5,5.7c-5.2-1.2,14-18.3,3.6-22.8l-3.9-6.4l7.4,5.9
		c0,0,4.3,4.7-0.4,15.8c0,0,5.5-8.3,7.2-8.4C-4544,4802.4-4549.2,4809.7-4548.3,4812.5z"/>
	<path id="XMLID_133_" class="st1" d="M-4566.3,4872.3c0,0,7.4,6.5,10.2,6.6c2.8,0.1,8.9,5.7,8.9,5.7l1.1-1.7
		C-4546.1,4882.9-4548.9,4879.2-4566.3,4872.3z"/>
	<path id="XMLID_134_" class="st3" d="M-4556.2,4858l-17.1,8.8c0,0,10-8.8,15.8-8.8H-4556.2z"/>
	<polygon id="XMLID_136_" class="st1" points="-4612.6,4867 -4596.9,4867 -4612.6,4868.6 	"/>
	<polygon id="XMLID_137_" class="st1" points="-4744.5,5079.6 -4712.7,5088.2 -4712.3,5086 	"/>
	<polygon id="XMLID_135_" class="st1" points="-4786.2,5156 -4768.5,5173.2 -4783.3,5191.3 -4766.9,5173.6 -4749.1,5189.9 
		-4764.7,5172.2 -4751.8,5152.8 -4767.7,5170.8 	"/>
	<polygon id="XMLID_139_" class="st1" points="-4744.5,5133.8 -4756.3,5150 -4742.2,5136.5 	"/>
	<path id="XMLID_140_" class="st1" d="M-4536.8,5121.4c0,0,11.6-10,17.7-9.6c0,0-15.3,9.5-16.7,10.9L-4536.8,5121.4z"/>
	<polygon id="XMLID_141_" class="st1" points="-4510.4,5071.8 -4504,5090.4 -4508.6,5071.3 	"/>
	<polygon id="XMLID_142_" class="st1" points="-4487.6,5070.5 -4497.4,5097.7 -4486.2,5070.9 	"/>
	<polygon id="XMLID_143_" class="st3" points="-4506.3,5111.8 -4513.6,5119.8 -4505.5,5112.9 	"/>
	<polygon id="XMLID_144_" class="st1" points="-4571.4,5028.3 -4551,5029 -4546.7,5026.9 -4538.2,5026.4 -4526,5018.5 
		-4495.1,5020.8 -4525.7,5020.4 -4536.8,5027.8 -4546.4,5029 -4550.4,5031.4 -4571.9,5032 	"/>
	<path id="XMLID_138_" class="st3" d="M-4620.2,4990.1c0,0,8-6.3,12.8-6.9c4.8-0.6,15.1-18.3,15.1-18.3s-8,19.8-14.2,19.5
		C-4609.9,4984.1-4619.3,4989-4620.2,4990.1z"/>
	<path id="XMLID_145_" class="st1" d="M-4618.7,4932.7c0,0,3.7,8.1,9.6,11.4c5.9,3.3,7.8,17.1,16.8,20.7c0,0-6.8-6.1-7.9-10.9
		s-7.9-10.8-7.9-10.8S-4614.2,4939.1-4618.7,4932.7z"/>
	<path id="XMLID_146_" class="st1" d="M-4519.1,4985.3c0,0-1.5,11.4,3,17.8c4.6,6.4,4.4,16.5,4.4,16.5s1.3-6.3-1.9-14.7
		C-4516.8,4996.4-4518.2,4996.9-4519.1,4985.3z"/>
	<polygon id="XMLID_148_" class="st1" points="-4626.1,5140 -4627.4,5161.3 -4623.7,5140 	"/>
	<path id="XMLID_149_" class="st1" d="M-4732.2,5262c0,0,21.4-10.8,29.7-9.1c0,0-24.8,5.8-28.1,11.7L-4732.2,5262z"/>
	<polygon id="XMLID_150_" class="st1" points="-4680,5251 -4659.2,5248.9 -4658.2,5251 	"/>
	<path id="XMLID_151_" class="st1" d="M-4700.6,5273.7c0,0,0.4-23.5,16.1-35.6c0,0-11.9,11.9-14,35.4L-4700.6,5273.7z"/>
	<path id="XMLID_147_" class="st1" d="M-4641.9,5014.2c0,0-2,16.4,0,22.1s5.1,6.8,5.6,16.8c0,0,2.5-7.8-4-17.4L-4641.9,5014.2z"/>
	<polygon id="XMLID_153_" class="st1" points="-4526,4909.2 -4510.6,4910.2 -4526,4911.1 	"/>
	<polygon id="XMLID_154_" class="st1" points="-4481.3,4890.6 -4500.6,4905.8 -4480.4,4893.1 	"/>
	<path id="XMLID_155_" class="st1" d="M-4651.9,5193.6c0,0,12-9.9,16.8-10.7C-4635.1,5182.8-4640.4,5189.3-4651.9,5193.6z"/>
</g>
</svg>
