<?xml version="1.0" encoding="utf-8"?>
<!-- Generator: Adobe Illustrator 19.0.0, SVG Export Plug-In . SVG Version: 6.00 Build 0)  -->
<svg version="1.1" xmlns="http://www.w3.org/2000/svg" xmlns:xlink="http://www.w3.org/1999/xlink" x="0px" y="0px"
	 viewBox="0 0 413.3 600" style="enable-background:new 0 0 413.3 600;" xml:space="preserve">
<style type="text/css">
	.st0{fill:#CCCBA2;}
	.st1{fill:#DED6A2;}
	.st2{fill:#242D26;}
	.st3{fill:#0E1A17;}
	.st4{fill:#FFFFFF;}
	.st5{fill:#16211F;}
	.st6{opacity:0.5;fill:#0E1A17;}
	.st7{fill:#1D2821;}
	.st8{opacity:0.2;fill:#7B8369;}
</style>
<g id="Warstwa_2">
</g>
<g id="Warstwa_1">
	<path class="st0" d="M0,32.1c32.1-12.6,67-19.6,103.5-19.6C259.5,12.6,386,139,386,295.1S259.5,577.6,103.5,577.6
		C67,577.6,32.1,570.6,0,558"/>
	<path class="st1" d="M0,205.6h372.1c0,0,28.9,82.8,0,179.2L268.6,453H0L0,205.6z"/>
	<path class="st2" d="M0,380.1c0,0,8.6-15.3,24.8,0l13.7,4.9c0,0,227,6.5,239.8,7.6s2.6-9.4,30.6-9.7c28.1-0.3,16.2,13.3,34,13.3
		c17.9,0,29.6-19.5,29.2-11.5c-0.4,7.8-62.4,186.7-263.1,192.7c0,0-66.6,0.9-109-19.6V380.1z"/>
	<path class="st3" d="M61.2,430c0,0-31.3,1.8-31.3,9.5c0,7.7,42.4,0.6,99.5,19.8s60.6-42.5,121.2-29.3c60.6,13.2,37.4-21.2,2.5-19.7
		S61.2,430,61.2,430z"/>
	<path class="st4" d="M25.9,310.1c0-0.1,0-0.1,0-0.2c0-3.1,2.9-5.7,6.4-5.7c1.1,0,2,0.2,2.9,0.6c2-2.2,6.6-4,12.5-4.8
		c0.9-2.1,3.6-3.6,6.8-3.6c1.9,0,3.5,0.5,4.8,1.4c0.7-5.1,5.1-9.1,10.4-9.1c4,0,7.4,2.2,9.2,5.5c2.3-1.1,5.2-1.8,8.3-1.8
		c6.4,0,11.7,2.8,13.1,6.7c11.2,0.8,19.9,5.3,19.9,10.7c0,6-10.4,10.8-23.3,10.8c-4,0-7.8-0.5-11.2-1.3c-2.9,3.6-9.8,6.2-17.9,6.2
		c-8.9,0-16.5-3.1-18.6-7.3c-2.9,1.3-7.3,2.1-12.1,2.1c-8.7,0-15.8-2.7-15.8-6C21.4,312.7,23.2,311.2,25.9,310.1z"/>
	<path class="st5" d="M143.7,436.7c0,0-31.3,9.2-55,0S58.2,429,58.2,429s-46.6-39.7,0-65.6c46.6-25.9,96.2-17.6,96.2-17.6
		s106.9,11.9,113,46.8C273.5,427.5,165.8,441.2,143.7,436.7z"/>
	<path class="st6" d="M143,344.7c0,0-54.3-2.7-50.5,11.8c3.8,14.5,86.2,9.9,90.1,0C186.5,346.6,143,344.7,143,344.7z"/>
	<path class="st5" d="M212.7,358c0,0,37.9-6.8,32.6-35.8s-96.2-26.8-96.2-26.8s-78.6-4.5-78.6,23c0,27.5,62.5,26.2,62.5,26.2
		S206,354.2,212.7,358z"/>
	<path class="st5" d="M223.1,268.8c0,0-0.8,27.4-74,27.6s-64.9-24.5-64.9-24.5s7.8-23.1,68.4-23.1
		C226.1,248.8,223.1,268.8,223.1,268.8z"/>
	<path class="st5" d="M97,259.4c0,0-25.7-12.3,2.6-36.1c28.8-24.3,108.1-3,109.7,4.3c1.5,6.8,6,18.5-22.4,22.5S142,241,97,259.4z"/>
	<path class="st5" d="M148.4,171.9c0,0-46-9.9-53.1,12.6s26.8,28.8,48.2,27.8s40.6,8.5,47-14.8C196.7,174.3,148.4,171.9,148.4,171.9
		z"/>
	<path class="st5" d="M117,170.4c0,0-20.5-19,4.3-24.9c24.9-5.9,73-2,76.2,18.9c0,0,1.9,10.9-17.8,14.7S150.9,167.6,117,170.4z"/>
	<path class="st6" d="M86,304c0,0,54.7,7.8,66.6,5.5s47.1,0,61.6-6.7C214.2,302.9,106,289,86,304z"/>
	<path class="st3" d="M109,220.4c0,0,27.7-1.8,28.6-8.1l22.4,0.1c0,0-2.3,7,30.9,7C191,219.4,134.8,237.6,109,220.4z"/>
	<path class="st6" d="M182.9,185.3c0,0-31.4,1.2-45.2-5.6s-24.5-6.8-24.5-6.8s3.8-6.2,27.2-2.8S179,177.1,182.9,185.3z"/>
	<path class="st6" d="M37.6,390c0,0,64.4-26.1,91.9-21.2s81.3,30.5,96.7,28.1s37.2,9.7,41.3-7.3c0,0,16.2,30.5-81.9,45.5
		c0,0-44,5.3-45,1c0,0-36.3,7.1-56.6-2.4c-17.4-8.2-25.9-4.5-25.9-4.5S33.7,406.9,37.6,390z"/>
	<path class="st6" d="M167.3,321.1c-8.8-4.5-93.9-16.6-95.6,1.3c-1.7,17.9,95.9,22.7,95.9,22.7l44.6,12.1c0,0,39.9-8.2,31.9-37.4
		C244.2,319.7,192.7,334.1,167.3,321.1z"/>
	<path class="st6" d="M84.2,272c0,0,115.6,18.7,137.6-6.3c0,0,7.6,29.4-69.2,30.6C75.8,297.6,84.2,272,84.2,272z"/>
	<path class="st3" d="M97,259.4c0,0-34.5-26.2,45.6-31.6c0,0,29.4-8.9,44.2,8s22.9-6,22.9-6s3.4,20.9-24.9,20.4S121,243.1,97,259.4z
		"/>
	<path class="st3" d="M190.4,198.6c-3.1,18.6-15.7,15.9-44.5,15.2c-41.4-1-52.3-16-51.6-23.1c0.6-7.2,26.4-7.2,26.4-7.2
		s16.1,0.5,21.9,3c5.8,2.4,18.3,16.6,29.1,12.2C182.6,194.3,191.5,192.1,190.4,198.6z"/>
	<path class="st6" d="M131.9,169.9c0,0-25.2-23.6,28.1-20.1c53.3,3.6,35,27.9,19.7,29.3C164.4,180.6,163.1,169.4,131.9,169.9z"/>
	<path class="st7" d="M26.4,491c0,0,18.9-46.2,34.7-15.6s15.2,15,34.3,0c19-15,26,7.9,63.7,45.8s97.6-53.8,108.5-35.7
		c11,18.1,47.6-3.4,47.6-3.4s-67.6,90.4-206.2,95.4c0,0-72.4-0.7-109-19.6l0-82.5C0,475.4,15.4,464.2,26.4,491z"/>
	<path class="st4" d="M131.9,84.6c0-0.1,0-0.2,0-0.3c0-4-3.6-7.2-8.1-7.2c-1.3,0-2.6,0.3-3.7,0.8c-2.5-2.9-8.4-5.1-15.8-6
		c-1.2-2.7-4.6-4.6-8.7-4.6c-2.4,0-4.5,0.7-6.1,1.7c-0.9-6.5-6.4-11.6-13.2-11.6c-5.1,0-9.5,2.8-11.7,7c-2.9-1.5-6.6-2.3-10.5-2.3
		c-8.1,0-14.9,3.6-16.7,8.5c-14.3,1-25.3,6.7-25.3,13.6c0,7.6,13.2,13.8,29.5,13.8c5.1,0,10-0.6,14.2-1.7c3.6,4.6,12.4,7.8,22.7,7.8
		c11.3,0,20.9-4,23.7-9.3c3.7,1.7,9.2,2.7,15.4,2.7c11.1,0,20.1-3.4,20.1-7.6C137.6,87.8,135.4,85.9,131.9,84.6z"/>
	<path class="st4" d="M339.7,243.6c0-0.1,0-0.1,0-0.2c0-3.1-2.9-5.7-6.4-5.7c-1.1,0-2,0.2-2.9,0.6c-2-2.2-6.6-4-12.5-4.8
		c-0.9-2.1-3.6-3.6-6.8-3.6c-1.9,0-3.5,0.5-4.8,1.4c-0.7-5.1-5.1-9.1-10.4-9.1c-4,0-7.4,2.2-9.2,5.5c-2.3-1.1-5.2-1.8-8.3-1.8
		c-6.4,0-11.7,2.8-13.1,6.7c-11.2,0.8-19.9,5.3-19.9,10.7c0,6,10.4,10.8,23.3,10.8c4,0,7.8-0.5,11.2-1.3c2.9,3.6,9.8,6.2,17.9,6.2
		c8.9,0,16.5-3.1,18.6-7.3c2.9,1.3,7.3,2.1,12.1,2.1c8.7,0,15.8-2.7,15.8-6C344.2,246.2,342.4,244.7,339.7,243.6z"/>
	<path class="st8" d="M152.6,146.5c0,0,0.9,13.9,28.2,12.1C208.2,156.7,152.6,146.5,152.6,146.5z"/>
	<path class="st8" d="M150.1,187.7c0,0,15.5-8.7,25.6,2C185.7,200.5,150.1,187.7,150.1,187.7z"/>
	<path class="st8" d="M182.9,227.8c0,0,18.7,9.5,22.1,0C205,227.8,195.3,220.5,182.9,227.8z"/>
	<path class="st8" d="M92.4,237c0,0,0.2-5,4.1-6.6C100.4,228.8,97.4,235.7,92.4,237z"/>
	<path class="st8" d="M109,264.7c-1.3,21.8,69.1,15.3,87.5,2.3C214.9,254,110.3,242.8,109,264.7z"/>
	<path class="st8" d="M172.5,318c0,0,27.4,10.9,57.5,0C260.1,307.1,172.5,318,172.5,318z"/>
	<path class="st8" d="M168.6,371.1c0,0,43.2,25.2,77.1,20.2s-27.5-23.2-27.5-23.2S171.3,362.6,168.6,371.1z"/>
	<path class="st8" d="M83,356.1c0,0-35.7,10.3-36.1,30.2c0,0,33.2-19.4,42.6-17.2C98.7,371.4,93.5,352.2,83,356.1z"/>
	<path class="st8" d="M98.3,183.5c0,0,6.9-10.7,16.6-7.9C124.6,178.5,98.3,183.5,98.3,183.5z"/>
	<path class="st8" d="M113.1,152.6c0,0,3.2,5.5,7.2,0C124.3,147.2,113.1,152.6,113.1,152.6z"/>
	<path class="st8" d="M74.4,318c0,0,7.3-13.3,50.1-5.1c0,0,11.5-6.2,0-5.8S78.3,295.7,74.4,318z"/>
</g>
</svg>
