<?xml version="1.0" encoding="utf-8"?>
<!-- Generator: Adobe Illustrator 19.0.0, SVG Export Plug-In . SVG Version: 6.00 Build 0)  -->
<svg version="1.1" id="Warstwa_1" xmlns="http://www.w3.org/2000/svg" xmlns:xlink="http://www.w3.org/1999/xlink" x="0px" y="0px"
	 viewBox="-4792 4701 413.3 600" style="enable-background:new -4792 4701 413.3 600;" xml:space="preserve">
<style type="text/css">
	.st0{fill:#CCCBA2;}
	.st1{opacity:0.3;fill:#FFFFFF;}
	.st2{fill:#FFFFFF;}
	.st3{fill:#DED6A2;}
	.st4{fill:#242D26;}
	.st5{fill:#1D2821;}
	.st6{fill:#313B31;}
	.st7{fill:none;stroke:#313B31;stroke-width:1.1918;stroke-miterlimit:10;}
</style>
<g id="Warstwa_2">
</g>
<path id="XMLID_555_" class="st0" d="M-4378.8,5260.3c-29,10.1-60.1,15.6-92.6,15.6c-154.8,0-280.3-125.5-280.3-280.3
	s125.5-280.3,280.3-280.3c29,0,66.2,8.3,92.6,16.5"/>
<circle id="XMLID_67_" class="st1" cx="-4494.1" cy="4890.5" r="101.5"/>
<circle id="XMLID_66_" class="st2" cx="-4494.1" cy="4890.4" r="65.6"/>
<path id="XMLID_65_" class="st3" d="M-4378.8,5001l-0.1,254.9c-31.3-11.4-54.3,24.1-86.8,24.1c-154.8,0-283.9-125.5-283.9-280.3"/>
<path id="XMLID_64_" class="st4" d="M-4717.8,5125.6c0,0,33.4-25.1,55-25.3c21.6-0.2,72.8,35.9,105.8,34c33-1.9,29.2-18.8,59.5-17
	c30.3,1.8,43.9,33.7,67.8,32.7c23.9-1,50.8-24.5,50.8-24.5l0.2,141.7c0,0-99.8,43.8-218.5-19.9
	C-4694,5195.5-4717.8,5125.6-4717.8,5125.6z"/>
<path id="XMLID_62_" class="st5" d="M-4514.7,4721.5l-3.3,35.6c0,0-27.6,51.9-17.7,115.9h4.5
	C-4531.2,4873-4505.5,4866.9-4514.7,4721.5z"/>
<path id="XMLID_61_" class="st6" d="M-4600.8,4748.2l13.5-6.9c0,0,35.8,167.5,44.4,178.1c0,0-3.3,2.6,0,13.8
	C-4539.7,4944.3-4585.7,4804.1-4600.8,4748.2z"/>
<path id="XMLID_60_" class="st5" d="M-4639.7,4783.1l101.8,113.8C-4537.8,4896.9-4594.9,4796.3-4639.7,4783.1z"/>
<path id="XMLID_59_" class="st5" d="M-4533.7,4858.1l-104.5-86.3l-7.6,5.9C-4645.8,4777.7-4562.7,4859.4-4533.7,4858.1z"/>
<path id="XMLID_58_" class="st6" d="M-4457.6,4804.9l79.6,114.5v-10.5C-4378,4908.8-4435.2,4808.8-4457.6,4804.9z"/>
<path id="XMLID_57_" class="st6" d="M-4535.7,4873c0,0-43.4,268.6-41.4,384.4l10.5,4.5c0,0,17.2-311.9,35.4-388.9H-4535.7z"/>
<path id="XMLID_56_" class="st6" d="M-4703.8,4842.2c0,0,112.8,93.2,153.8,149v6.4l-157.7-149L-4703.8,4842.2z"/>
<path id="XMLID_55_" class="st6" d="M-4689.7,4922.6l126.3,146.8l1.1-9.4C-4562.2,5060-4662.7,4946.3-4689.7,4922.6z"/>
<polygon id="XMLID_54_" class="st5" points="-4699.7,4917.3 -4740.7,4924 -4741.4,4927.9 -4709.4,4926.1 -4689.9,4922.6 "/>
<polygon id="XMLID_53_" class="st5" points="-4636.4,4966 -4639.7,4974.1 -4683.2,4928.6 "/>
<path id="XMLID_52_" class="st6" d="M-4592.9,5249.8c0,0-22.7-292.3-56.6-447c0,0,87.3,366.3,67.8,452.5L-4592.9,5249.8z"/>
<path id="XMLID_51_" class="st6" d="M-4405,5273.7c0,0-2.4-262.3-5.1-301.4l20,297.7C-4390,5270-4394.2,5273.3-4405,5273.7z"/>
<path id="XMLID_50_" class="st6" d="M-4434,5107.5c0,0-269-59.7-281.1-61.5s-4.2-9.3-4.2-9.3s157.6,36.4,183.7,39.6
	s29.4-6.9,29.4-6.9l26.6,6.9c0,0,6.1,9.8,24.7,15.9c18.6,6.1,20.9,5.1,20.9,5.1s49.8,25,55.3,45.6l-0.2,24.5
	C-4378.8,5167.3-4390,5145.1-4434,5107.5z"/>
<path id="XMLID_49_" class="st5" d="M-4576.3,5124.6c0,0-131.3-42.8-171.4-93.2l-1.2-14l65.2,42.2l13.9-3.4
	C-4669.8,5056.2-4585.1,5096.7-4576.3,5124.6z"/>
<path id="XMLID_48_" class="st6" d="M-4502.8,4958.9l-83,172c0,0,55.7-79.3,60.6-107.4C-4520.4,4995.4-4502.8,4958.9-4502.8,4958.9z
	"/>
<polygon id="XMLID_47_" class="st6" points="-4550,5259.4 -4547.4,5198.9 -4544.1,5195.5 -4542.2,5270.1 -4550,5267.6 "/>
<polygon id="XMLID_46_" class="st6" points="-4430,5279.3 -4430,5012 -4427.5,5012 -4417.9,5277.7 "/>
<path id="XMLID_45_" class="st6" d="M-4740.7,5069.3l5.4,17.5l44.9-0.2c0,0,70.3,57.6,85.7,67.4l-85.6-80.2L-4740.7,5069.3z"/>
<polygon id="XMLID_44_" class="st6" points="-4450,5281.1 -4497.6,5133.5 -4435,5279.9 "/>
<path id="XMLID_43_" class="st6" d="M-4408.1,5156c0,0-36.8-75.9-37.5-103.1c-0.7-27.2-0.6-111.6,8.2-110.3c0,0-2.7,95.3,2,111.6
	c4.8,16.3,56.6,136.3,56.6,136.3l-0.3,22L-4408.1,5156z"/>
<path id="XMLID_42_" class="st6" d="M-4566.2,5201c0,0,43.9-132,41-209.8c0,0,20.1,117.6-44.4,239.7L-4566.2,5201z"/>
<path id="XMLID_41_" class="st5" d="M-4396,4749.6c0,0-2.8,7.5,9.4,10.6C-4374.4,4763.2-4396,4749.6-4396,4749.6z"/>
<path id="XMLID_40_" class="st5" d="M-4385.3,4737.3c0,0-10.9,0.6-10.6-1.8c0.3-2.4,2.5-7.3,7.5-4.3
	C-4383.5,4734.3-4385.3,4737.3-4385.3,4737.3z"/>
<path id="XMLID_38_" class="st5" d="M-4405.3,4733.8c0,0-15.2-5.3-9.8-7.8C-4409.7,4723.6-4401.5,4731.5-4405.3,4733.8z"/>
<path id="XMLID_37_" class="st5" d="M-4405.3,4762c0,0-5.4-1.5-3.7-4.9C-4407.3,4753.8-4400.6,4760.5-4405.3,4762z"/>
<path id="XMLID_36_" class="st5" d="M-4426,4751.6c-6.6,2.4-9.3-1.8-6-3.4C-4428.6,4746.8-4426,4751.6-4426,4751.6z"/>
<path id="XMLID_35_" class="st5" d="M-4381,4777.9c0,0-9.4-2.8-7.5-7C-4386.6,4766.6-4378.9,4773.6-4381,4777.9z"/>
<path id="XMLID_34_" class="st5" d="M-4386.1,4801.3c0,0-4.9,4.3,5.2,10.1C-4380.9,4811.4-4376.9,4802.9-4386.1,4801.3z"/>
<polygon id="XMLID_33_" class="st6" points="-4411.9,4815.7 -4380.1,4870.2 -4379.8,4860.1 "/>
<path id="XMLID_32_" class="st5" d="M-4397.7,4843c0,0-24.8,1-31.3-9.3C-4435.4,4823.4-4397.7,4843-4397.7,4843z"/>
<path id="XMLID_31_" class="st5" d="M-4408.6,4875.6c0,0-6,7.7-19.2,2.7S-4408.6,4875.6-4408.6,4875.6z"/>
<path id="XMLID_30_" class="st5" d="M-4438.1,4946.8c0,0-14.1-17.8-3.7-27.1C-4431.4,4910.4-4438.1,4946.8-4438.1,4946.8z"/>
<polygon id="XMLID_29_" class="st6" points="-4600.8,5245.6 -4635.1,5125.6 -4632.3,5127.8 -4592,5250.3 "/>
<polygon id="XMLID_28_" class="st5" points="-4652.9,5139.3 -4619.8,5176.3 -4622,5169 "/>
<polygon id="XMLID_27_" class="st5" points="-4610.6,5192 -4652.9,5185 -4614,5185 "/>
<path id="XMLID_26_" class="st5" d="M-4636.4,5157.8c0,0-40.3,1.9-51.6-18.5S-4636.4,5157.8-4636.4,5157.8z"/>
<path id="XMLID_25_" class="st5" d="M-4604.9,5225.6c0,0-33.5-10.1-34.7-21.4C-4640.9,5193-4604.9,5225.6-4604.9,5225.6z"/>
<path id="XMLID_24_" class="st5" d="M-4649.5,5185.2c0,0-14-4.6-10.2-9C-4656,5171.9-4649.5,5185.2-4649.5,5185.2z"/>
<path id="XMLID_23_" class="st5" d="M-4652.9,5139.3c0,0-11.5-4.1-6.8-10.2C-4655.1,5123-4652.9,5139.3-4652.9,5139.3z"/>
<path id="XMLID_22_" class="st6" d="M-4635.1,5156.5c0,0-6.1-6.7-1.3-11.8S-4635.1,5156.5-4635.1,5156.5z"/>
<path id="XMLID_21_" class="st6" d="M-4631.8,5134.3c0,0-49.7-28.2-51.4-51.9C-4684.9,5058.7-4629.7,5122.1-4631.8,5134.3z"/>
<path id="XMLID_20_" class="st6" d="M-4618.3,5169c0,0,13.5-30.4,7.7-51.4s13,3.4,13.1,10.2S-4618.3,5169-4618.3,5169z"/>
<path id="XMLID_19_" class="st5" d="M-4468.6,5098.5c0,0,26.4,34.4,32.1,55.6s32.5,11.5,32.5,11.5s-37.6-55-56.3-65.2
	L-4468.6,5098.5z"/>
<path id="XMLID_18_" class="st5" d="M-4482.5,5121.4c0,0-2,15.3,7.9,17.9c9.9,2.6,20.5-6.5,0-30.1
	C-4495.1,5085.7-4482.5,5121.4-4482.5,5121.4z"/>
<path id="XMLID_17_" class="st5" d="M-4532.7,5139.1c0,0,28.5,59.9,44.5,69.8S-4508.5,5133.2-4532.7,5139.1z"/>
<path id="XMLID_16_" class="st5" d="M-4462.9,5169c0,0-12.1-8.8-3.4-12.5s11.3,3.6,11.3,3.6S-4450.5,5168.7-4462.9,5169z"/>
<polygon id="XMLID_15_" class="st6" points="-4461.8,5281.3 -4469.4,5259.4 -4461,5243.6 -4457.6,5254 -4461.8,5261.8 -4450,5281.1 
	"/>
<path id="XMLID_14_" class="st6" d="M-4464,5234.5c0,0-8.3,0.2-10.7-8.8c-2.4-9,3.9-11.9,3.9-11.9L-4464,5234.5z"/>
<polygon id="XMLID_13_" class="st6" points="-4418.1,5277.5 -4405,5263.4 -4405,5274.8 "/>
<polygon id="XMLID_12_" class="st6" points="-4556,5204.3 -4515.8,5259.4 -4512.1,5254 -4556,5182.5 "/>
<polygon id="XMLID_11_" class="st6" points="-4512,5253.9 -4512,5266.3 -4498.5,5277.6 "/>
<path id="XMLID_10_" class="st5" d="M-4728.4,5014.2c0,0,7.1,9.9,20.7,4.3c0,0,35.4,22,48.1,15.5c0,0-25-4.5-40.6-17.1
	C-4715.8,5004.2-4705.6,5015.9-4728.4,5014.2z"/>
<path id="XMLID_9_" class="st6" d="M-4689.7,5063c0,0,4.5-21-13.3-32l4.2-3.8l14.8,9.4v29.4L-4689.7,5063z"/>
<path id="XMLID_8_" class="st5" d="M-4508.5,5048.7c0,0-4.8,8.9,3.4,11.6C-4496.9,5062.9-4508.5,5048.7-4508.5,5048.7z"/>
<path id="XMLID_7_" class="st5" d="M-4674.4,4985.2c0,0,0,7.1-10.8,5.9C-4685.2,4991.2-4682.6,4983.1-4674.4,4985.2z"/>
<polygon id="XMLID_6_" class="st6" points="-4702.8,4858.1 -4618.3,5235.3 -4604.9,5243.2 "/>
<path id="XMLID_5_" class="st5" d="M-4466.3,4877.9l-40.5,89.1c0,0,26-73,36.6-89.1S-4466.3,4877.9-4466.3,4877.9z"/>
<path id="XMLID_4_" class="st5" d="M-4438.1,4983.3l18.9-18.7C-4419.2,4964.6-4419.4,4980.7-4438.1,4983.3z"/>
<polygon id="XMLID_3_" class="st4" points="-4411.3,4743.3 -4379,4799.1 -4379,4790.5 "/>
<line id="XMLID_1_" class="st7" x1="-4502.8" y1="5060.6" x2="-4490.9" y2="5075.6"/>
</svg>
