<?xml version="1.0" encoding="utf-8"?>
<!-- Generator: Adobe Illustrator 25.0.1, SVG Export Plug-In . SVG Version: 6.00 Build 0)  -->
<svg version="1.1" id="Warstwa_1" xmlns="http://www.w3.org/2000/svg" xmlns:xlink="http://www.w3.org/1999/xlink" x="0px" y="0px"
	 viewBox="0 0 500 68.86" style="enable-background:new 0 0 500 68.86;" xml:space="preserve">
<style type="text/css">
	.st0{fill:#231F20;}
</style>
<g>
	<g>
		<g>
			<path class="st0" d="M57.45,47.35h-6.29l-3.39-8.25h-9.82l-3.35,8.25h-6.19l12.33-28.63h4.25L57.45,47.35z M45.75,34.36
				l-2.86-6.7l-2.86,6.7H45.75z"/>
		</g>
		<path class="st0" d="M66.81,19.47l-4.62,2.95c2.19,3.48,3.45,7.6,3.45,12.01c0,12.5-10.17,22.66-22.66,22.66
			c-12.49,0-22.66-10.17-22.66-22.66c0-12.49,10.17-22.66,22.66-22.66c4.3,0,8.32,1.2,11.74,3.29l2.86-4.68
			c-4.26-2.6-9.26-4.09-14.6-4.09c-15.52,0-28.15,12.63-28.15,28.15c0,15.52,12.63,28.15,28.15,28.15
			c15.52,0,28.15-12.63,28.15-28.15C71.13,28.94,69.54,23.81,66.81,19.47z"/>
		<g>
			<g>
				<path class="st0" d="M102.96,47.35h-5.2l-2.8-6.82h-8.12l-2.77,6.82h-5.12l10.2-23.67h3.51L102.96,47.35z M93.29,36.61
					l-2.37-5.54l-2.37,5.54H93.29z"/>
				<path class="st0" d="M114.88,31.06l-0.15,3.71c-0.22-0.07-0.44-0.13-0.68-0.16c-0.24-0.04-0.48-0.05-0.74-0.05
					c-1.36,0-2.4,0.45-3.11,1.35c-0.71,0.9-1.07,2.22-1.07,3.94v7.5h-4.12V31.29h3.7v3.2c0.52-1.2,1.17-2.09,1.96-2.69
					c0.79-0.6,1.72-0.9,2.79-0.9c0.19,0,0.39,0.01,0.62,0.04C114.31,30.97,114.57,31.01,114.88,31.06z"/>
				<path class="st0" d="M123.04,26.06v5.23h3.87v3.03h-3.87v7.04c0,1.2,0.19,2.05,0.56,2.58c0.37,0.52,0.98,0.78,1.83,0.78
					c0.22,0,0.46-0.02,0.73-0.07c0.27-0.05,0.55-0.12,0.85-0.21l0.06,2.89c-0.45,0.12-0.92,0.21-1.4,0.27
					c-0.48,0.06-0.96,0.09-1.45,0.1c-1.9,0-3.26-0.47-4.08-1.41c-0.83-0.94-1.24-2.5-1.24-4.69v-7.29h-3.17v-3.03h3.36v-3.9
					L123.04,26.06z"/>
				<path class="st0" d="M161.66,35.4c0,3.35-1.14,6.21-3.43,8.59c-2.32,2.39-5.16,3.59-8.53,3.59c-3.36,0-6.2-1.2-8.51-3.59
					c-2.28-2.37-3.42-5.23-3.42-8.59c0-3.31,1.16-6.13,3.48-8.47c2.32-2.34,5.14-3.5,8.45-3.5c3.32,0,6.14,1.16,8.47,3.49
					C160.49,29.24,161.66,32.07,161.66,35.4z M156.86,35.79c0-2.24-0.64-4.11-1.93-5.62c-1.34-1.56-3.07-2.34-5.2-2.34
					c-2.11,0-3.85,0.78-5.21,2.35c-1.32,1.52-1.98,3.38-1.98,5.6c0,2,0.71,3.73,2.12,5.2c1.41,1.46,3.1,2.2,5.07,2.2
					c1.99,0,3.68-0.73,5.06-2.18C156.17,39.55,156.86,37.81,156.86,35.79z"/>
				<path class="st0" d="M169.64,44.9v9.07h-4.12V31.29h3.7v3.06c0.62-1.13,1.42-2,2.41-2.59c0.99-0.59,2.12-0.89,3.39-0.89
					c2.04,0,3.69,0.76,4.94,2.27c1.25,1.52,1.87,3.54,1.87,6.06c0,2.51-0.64,4.55-1.92,6.13c-1.28,1.58-2.92,2.37-4.92,2.37
					c-1.17,0-2.2-0.23-3.1-0.7C170.99,46.53,170.24,45.83,169.64,44.9z M173.79,34.04c-1.28,0-2.29,0.47-3.03,1.4
					c-0.74,0.93-1.11,2.21-1.11,3.83c0,1.59,0.36,2.86,1.08,3.81c0.72,0.95,1.68,1.42,2.88,1.42c1.22,0,2.18-0.48,2.89-1.43
					c0.71-0.95,1.07-2.25,1.07-3.89c0-1.56-0.35-2.8-1.04-3.74C175.83,34.51,174.92,34.04,173.79,34.04z"/>
				<path class="st0" d="M199.85,39.15v1.3h-11.31c0.11,1.35,0.64,2.42,1.57,3.19c0.93,0.78,2.16,1.17,3.69,1.17
					c0.84,0,1.65-0.1,2.44-0.29c0.79-0.2,1.55-0.49,2.28-0.88v3.17c-0.78,0.32-1.63,0.56-2.54,0.72c-0.91,0.16-1.88,0.24-2.91,0.24
					c-2.68,0-4.78-0.77-6.29-2.31c-1.51-1.54-2.27-3.68-2.27-6.41c0-2.43,0.74-4.4,2.21-5.91c1.47-1.51,3.39-2.26,5.75-2.26
					c2.33,0,4.14,0.72,5.44,2.17C199.21,34.49,199.85,36.53,199.85,39.15z M196.13,37.88c-0.11-1.36-0.49-2.42-1.14-3.18
					c-0.65-0.76-1.5-1.14-2.54-1.14c-1.06,0-1.94,0.38-2.63,1.14c-0.69,0.76-1.11,1.82-1.27,3.18H196.13z"/>
				<path class="st0" d="M218.3,37.79v9.56h-4.16v-8.68c0-1.49-0.26-2.58-0.77-3.29c-0.51-0.71-1.31-1.06-2.39-1.06
					c-1.16,0-2.07,0.45-2.75,1.35c-0.68,0.9-1.02,2.13-1.02,3.69v7.98h-4.12V31.29h3.76v2.91c0.61-1.09,1.4-1.92,2.36-2.48
					c0.96-0.56,2.08-0.84,3.35-0.84c1.89,0,3.32,0.58,4.29,1.76C217.81,33.8,218.3,35.52,218.3,37.79z"/>
			</g>
		</g>
	</g>
	<rect x="240.82" y="10.99" class="st0" width="1.84" height="46.88"/>
	<g>
		<path class="st0" d="M277.04,44.65c-0.46,0.86-1.17,1.56-2.14,2.1c-0.96,0.54-2.16,0.81-3.6,0.81c-1.39,0-2.63-0.25-3.72-0.76
			c-1.09-0.51-1.95-1.2-2.6-2.09c-0.65-0.88-1.02-1.87-1.12-2.97h2.27c0.08,0.63,0.32,1.26,0.71,1.89c0.39,0.63,0.95,1.15,1.69,1.57
			c0.74,0.42,1.63,0.62,2.67,0.62c1.37,0,2.42-0.37,3.15-1.1c0.73-0.73,1.09-1.66,1.09-2.77c0-0.95-0.24-1.73-0.72-2.33
			c-0.48-0.6-1.08-1.06-1.78-1.39c-0.71-0.32-1.67-0.68-2.9-1.07c-1.35-0.43-2.44-0.84-3.27-1.23c-0.83-0.4-1.53-0.98-2.11-1.75
			c-0.57-0.77-0.86-1.8-0.86-3.08c0-1.62,0.57-2.94,1.72-3.96c1.15-1.02,2.72-1.52,4.73-1.52c2.05,0,3.67,0.5,4.87,1.49
			c1.2,1,1.91,2.23,2.14,3.72h-2.3c-0.18-0.91-0.67-1.73-1.46-2.44c-0.79-0.71-1.87-1.07-3.24-1.07c-1.27,0-2.28,0.33-3.04,0.97
			c-0.76,0.65-1.14,1.55-1.14,2.71c0,0.91,0.24,1.66,0.71,2.22c0.47,0.57,1.05,1.01,1.74,1.31c0.69,0.3,1.62,0.65,2.81,1.04
			c1.37,0.43,2.48,0.84,3.33,1.25c0.85,0.41,1.57,1.02,2.17,1.83c0.59,0.81,0.89,1.89,0.89,3.23
			C277.73,42.87,277.5,43.79,277.04,44.65z"/>
		<path class="st0" d="M289.28,45.46v1.89h-2c-1.62,0-2.83-0.38-3.63-1.14c-0.8-0.76-1.2-2.05-1.2-3.85v-9.78h-2.55v-1.86h2.55v-4.2
			h2.18v4.2h4.61v1.86h-4.61v9.81c0,1.18,0.22,1.99,0.65,2.42c0.43,0.44,1.19,0.66,2.27,0.66H289.28z"/>
		<path class="st0" d="M307.29,30.71v16.63h-2.15v-4.11c-0.43,1.44-1.21,2.54-2.34,3.29c-1.13,0.75-2.42,1.13-3.87,1.13
			c-1.97,0-3.56-0.61-4.78-1.84c-1.22-1.23-1.83-3.03-1.83-5.41v-9.69h2.15v9.51c0,1.83,0.46,3.22,1.38,4.19
			c0.92,0.96,2.18,1.45,3.78,1.45c1.68,0,3.02-0.53,4.01-1.6c0.99-1.07,1.49-2.64,1.49-4.71v-8.84H307.29z"/>
		<path class="st0" d="M323.41,31.81c1.2,0.87,2.01,2.03,2.44,3.47V24.8H328v22.54h-2.15v-4.57c-0.43,1.44-1.24,2.6-2.44,3.47
			c-1.2,0.87-2.65,1.31-4.35,1.31c-1.52,0-2.87-0.35-4.07-1.04c-1.2-0.69-2.13-1.68-2.8-2.97c-0.67-1.29-1-2.8-1-4.52
			c0-1.75,0.33-3.26,1-4.55c0.67-1.29,1.59-2.27,2.78-2.96c1.19-0.68,2.55-1.02,4.09-1.02C320.76,30.5,322.21,30.94,323.41,31.81z
			 M315.08,34.17c-1.14,1.19-1.71,2.81-1.71,4.86c0,2.05,0.57,3.67,1.71,4.86c1.14,1.19,2.65,1.78,4.53,1.78
			c1.19,0,2.26-0.27,3.21-0.82s1.7-1.33,2.24-2.33c0.54-1.01,0.81-2.17,0.81-3.49c0-1.32-0.27-2.48-0.81-3.49
			c-0.54-1.01-1.29-1.78-2.24-2.33s-2.02-0.82-3.21-0.82C317.73,32.39,316.22,32.98,315.08,34.17z"/>
		<path class="st0" d="M332.63,24.71c0.3-0.26,0.68-0.4,1.15-0.4c0.47,0,0.85,0.13,1.14,0.4c0.29,0.26,0.43,0.62,0.43,1.07
			c0,0.43-0.14,0.77-0.43,1.04c-0.29,0.26-0.67,0.4-1.14,0.4c-0.47,0-0.86-0.13-1.15-0.4c-0.3-0.26-0.45-0.61-0.45-1.04
			C332.18,25.33,332.33,24.98,332.63,24.71z M334.86,30.71v16.63h-2.18V30.71H334.86z"/>
		<path class="st0" d="M351.41,31.52c1.26,0.68,2.25,1.67,2.97,2.96c0.72,1.29,1.08,2.81,1.08,4.55c0,1.75-0.36,3.26-1.08,4.54
			c-0.72,1.28-1.71,2.26-2.97,2.96c-1.26,0.69-2.69,1.04-4.29,1.04c-1.6,0-3.03-0.35-4.3-1.04c-1.27-0.69-2.27-1.68-3-2.97
			c-0.73-1.29-1.09-2.8-1.09-4.52c0-1.75,0.36-3.26,1.09-4.55c0.73-1.29,1.73-2.27,3-2.96c1.27-0.68,2.7-1.02,4.3-1.02
			C348.72,30.5,350.15,30.84,351.41,31.52z M344.05,33.09c-0.94,0.49-1.7,1.23-2.27,2.24c-0.57,1.01-0.86,2.24-0.86,3.7
			s0.29,2.69,0.86,3.69c0.57,1,1.33,1.74,2.27,2.22c0.94,0.49,1.97,0.73,3.07,0.73c1.09,0,2.09-0.24,3.03-0.73
			c0.93-0.49,1.69-1.23,2.26-2.22c0.57-0.99,0.86-2.22,0.86-3.69s-0.29-2.7-0.86-3.7c-0.57-1.01-1.33-1.75-2.26-2.24
			c-0.93-0.49-1.94-0.73-3.03-0.73C346.01,32.36,344.99,32.6,344.05,33.09z"/>
		<path class="st0" d="M371.86,31.38c1.09-0.65,2.41-0.97,3.96-0.97v2.32h-0.71c-1.62,0-2.96,0.43-4.03,1.29
			c-1.07,0.86-1.6,2.27-1.6,4.22v9.11h-2.18V30.71h2.18v3.44C369.98,32.96,370.77,32.03,371.86,31.38z"/>
		<path class="st0" d="M389.81,44.67c1.02-0.75,1.64-1.77,1.84-3.05h2.27c-0.31,1.77-1.16,3.2-2.55,4.3
			c-1.39,1.1-3.16,1.65-5.29,1.65c-1.6,0-3.02-0.34-4.26-1.02c-1.24-0.68-2.21-1.67-2.9-2.96c-0.7-1.29-1.04-2.81-1.04-4.55
			c0-1.75,0.35-3.26,1.04-4.55c0.7-1.29,1.66-2.27,2.9-2.96c1.24-0.68,2.66-1.02,4.26-1.02c1.64,0,3.06,0.34,4.26,1.02
			c1.2,0.68,2.11,1.59,2.74,2.73c0.62,1.14,0.94,2.38,0.94,3.72c0,0.57-0.04,1.09-0.12,1.55H380c0.02,1.4,0.31,2.57,0.88,3.52
			c0.56,0.94,1.3,1.64,2.2,2.09c0.9,0.45,1.87,0.67,2.92,0.67C387.51,45.79,388.78,45.42,389.81,44.67z M383.11,32.91
			c-0.9,0.45-1.63,1.13-2.2,2.06c-0.56,0.92-0.87,2.08-0.91,3.46h11.86c0.08-1.36-0.14-2.51-0.68-3.44
			c-0.53-0.93-1.25-1.62-2.15-2.07c-0.9-0.45-1.89-0.67-2.95-0.67C385,32.24,384.01,32.46,383.11,32.91z"/>
		<path class="st0" d="M406.86,47.35l-6.79-7.62v7.62h-2.18V24.8h2.18v13.22l6.67-7.31h2.67l-7.71,8.23l7.93,8.41H406.86z"/>
		<path class="st0" d="M414.36,24.8v22.54h-2.18V24.8H414.36z"/>
		<path class="st0" d="M430.45,31.81c1.2,0.87,2.02,2.03,2.47,3.47v-4.57h2.12v16.63h-2.12v-4.57c-0.45,1.44-1.28,2.6-2.47,3.47
			c-1.2,0.87-2.65,1.31-4.35,1.31c-1.52,0-2.87-0.35-4.07-1.04c-1.2-0.69-2.13-1.68-2.8-2.97c-0.67-1.29-1-2.8-1-4.52
			c0-1.75,0.33-3.26,1-4.55c0.67-1.29,1.59-2.27,2.78-2.96c1.19-0.68,2.55-1.02,4.09-1.02C427.8,30.5,429.25,30.94,430.45,31.81z
			 M422.12,34.17c-1.14,1.19-1.71,2.81-1.71,4.86c0,2.05,0.57,3.67,1.71,4.86c1.14,1.19,2.65,1.78,4.53,1.78
			c1.19,0,2.26-0.27,3.21-0.82c0.95-0.55,1.7-1.33,2.24-2.33c0.54-1.01,0.81-2.17,0.81-3.49c0-1.32-0.27-2.48-0.81-3.49
			c-0.54-1.01-1.29-1.78-2.24-2.33c-0.95-0.55-2.02-0.82-3.21-0.82C424.77,32.39,423.26,32.98,422.12,34.17z"/>
		<path class="st0" d="M464.78,32.25c1.2,1.23,1.8,3.03,1.8,5.41v9.69h-2.15v-9.54c0-1.79-0.44-3.16-1.31-4.11
			c-0.87-0.95-2.06-1.43-3.58-1.43c-1.62,0-2.91,0.53-3.87,1.58c-0.96,1.06-1.44,2.61-1.44,4.66v8.84h-2.12v-9.54
			c0-1.79-0.44-3.16-1.31-4.11c-0.87-0.95-2.06-1.43-3.58-1.43c-1.62,0-2.91,0.53-3.87,1.58c-0.96,1.06-1.44,2.61-1.44,4.66v8.84
			h-2.18V30.71h2.18v3.96c0.41-1.4,1.15-2.46,2.23-3.18c1.08-0.72,2.32-1.08,3.73-1.08c1.48,0,2.75,0.39,3.81,1.16
			c1.07,0.77,1.8,1.91,2.21,3.41c0.45-1.48,1.24-2.61,2.37-3.4c1.13-0.78,2.41-1.17,3.84-1.17
			C462.02,30.41,463.58,31.02,464.78,32.25z"/>
		<path class="st0" d="M471.55,30.71l5.84,13.86l5.38-13.86h2.4l-9.87,24.49h-2.46l3.38-8.04l-7.07-16.45H471.55z"/>
	</g>
</g>
</svg>
