<?xml version="1.0" encoding="utf-8"?>
<!-- Generator: Adobe Illustrator 19.0.0, SVG Export Plug-In . SVG Version: 6.00 Build 0)  -->
<svg version="1.1" id="Warstwa_1" xmlns="http://www.w3.org/2000/svg" xmlns:xlink="http://www.w3.org/1999/xlink" x="0px" y="0px"
	 viewBox="-425.6 366.1 135.6 136.3" style="enable-background:new -425.6 366.1 135.6 136.3;" xml:space="preserve">
<style type="text/css">
	.st0{fill:#00D1B2;}
	.st1{fill:#FFFFFF;}
</style>
<path class="st0" d="M-318,499.3h-79.7c-13.9,0-25.2-11.3-25.2-25.2v-79.7c0-13.9,11.3-25.2,25.2-25.2h79.7
	c13.9,0,25.2,11.3,25.2,25.2v79.7C-292.8,488-304.1,499.3-318,499.3z"/>
<g>
	<g>
		<g>
			<path class="st1" d="M-331.8,455.3H-343l-6.1-14.6h-17.5l-6.1,14.6h-11.1l22-51.1h7.5L-331.8,455.3z M-352.7,432l-5.2-12l-5.2,12
				H-352.7z"/>
		</g>
		<path class="st1" d="M-315.1,405.4l-8.2,5.4c3.9,6.3,6.1,13.6,6.1,21.4c0,22.3-18.2,40.5-40.5,40.5s-40.5-18.2-40.5-40.5
			c0-22.3,18.2-40.5,40.5-40.5c7.7,0,14.8,2.1,20.9,5.9l5.2-8.4c-7.7-4.6-16.6-7.3-26.1-7.3c-27.7,0-50.2,22.5-50.2,50.2
			c0,27.7,22.5,50.2,50.2,50.2c27.7,0,50.2-22.5,50.2-50.2C-307.5,422.4-310.1,413.3-315.1,405.4z"/>
	</g>
</g>
</svg>
