<?xml version="1.0" encoding="utf-8"?>
<!-- Generator: Adobe Illustrator 19.0.0, SVG Export Plug-In . SVG Version: 6.00 Build 0)  -->
<svg version="1.1" xmlns="http://www.w3.org/2000/svg" xmlns:xlink="http://www.w3.org/1999/xlink" x="0px" y="0px"
	 viewBox="197.1 -993.3 5548.5 2736.1" style="enable-background:new 197.1 -993.3 5548.5 2736.1;" xml:space="preserve">
<style type="text/css">
	.st0{fill:#8EFF8F;}
	.st1{fill:#272C4F;}
	.st2{fill:#FFFFFF;stroke:#000000;stroke-miterlimit:10;}
	.st3{fill:#FFFFFF;stroke:#000000;stroke-width:1.179;stroke-miterlimit:10;}
	.st4{fill:#8C1812;}
	.st5{fill:#E94B4C;}
	.st6{opacity:0.9;fill:#FFFFFF;stroke:#000000;stroke-width:1.179;stroke-miterlimit:10;}
	.st7{fill:#F1F1F1;}
</style>
<g id="Warstwa_1">
	<rect x="197.1" y="-993.3" class="st0" width="5548.5" height="2736.1"/>
</g>
<g id="Warstwa_2">
	<path class="st1" d="M4201.2,1387c0,0-67.3-25-117.3,0c0,0,38.7,106.4,155.4,95.8c0,0,52,11.6,37.7-105.8
		C4277,1377,4265.9,1432.8,4201.2,1387z"/>
	<path class="st2" d="M4760,789l32.5,112.2c0,0,26.2,75.6,67.2,69.5c0,0,16.5-4,23.6-31.2l-20.8-102.7L4760,789z"/>
	<path class="st3" d="M4846.8,879v321.5c0,0,148.7,124.7,286.1,0l10.4-362.2C5143.3,838.3,4989.1,797.5,4846.8,879z"/>
	<path class="st4" d="M4847.9,891.3c0,0,5.1,74.8,150.8,70.2c145.7-4.6,148.7-103,144.7-123.2c0,0-1.8-39.3-21.4-45.6
		c0,0-35.2,157.4-252.1,75.2C4869.8,867.9,4840.8,850.4,4847.9,891.3z"/>
	<path class="st2" d="M5120.5,780.5c0,0,33.5,148.6-231.8,96.2l-121.4-56.5c0,0,37.4,109.7,39.2,199.2c0,0-8,62.9-75.8,10
		c0,0-147.1-356.3-56.8-370.9s87.6,7.3,87.6,7.3s-0.6-76.5,46.4-81.2S5120.5,780.5,5120.5,780.5z"/>
	<path class="st4" d="M4895.1,286.5c0,0-232.1-91.6-113-433.7s284.5-290.1,305.1-385.7C5107.7-628.5,5406.7,55.5,4895.1,286.5z"/>
	<path class="st5" d="M4778.9,205.5c0,0,160.7-24,135.5-258.5s-137.8-225.9-136.8-289.5S4488.3-16.3,4778.9,205.5z"/>
	<polygon class="st6" points="4607.4,109.2 3427.5,774.3 3983,1147.4 5119.9,442 	"/>
	<path class="st2" d="M4230.1,1147.4l32.5,112.2c0,0,26.2,75.6,67.2,69.5c0,0,16.5-4,23.6-31.2l-20.8-102.7L4230.1,1147.4z"/>
	<polygon class="st3" points="4579,347.5 4579,428.5 4626.9,391.7 4626.9,317.8 	"/>
	<path class="st3" d="M4314,1191v321.5c0,0,165.1,119.7,295.1,0l1.4-362.2C4610.5,1150.3,4456.2,1109.5,4314,1191z"/>
	<path class="st4" d="M4315.1,1203.3c0,0,5.1,74.8,150.8,70.2c145.7-4.6,148.7-103,144.7-123.2c0,0-1.8-39.3-21.4-45.6
		c0,0-35.2,157.4-252.1,75.2C4337,1179.9,4308,1162.4,4315.1,1203.3z"/>
	<path class="st2" d="M4830.1,337.9l75.5,55.9c0,0,83.9-83.4,168.9-44.3s59.4,304.4,57.1,407.2c-1.5,66.9-230.3,95.8-267.3,12.8
		l0.7-189.9c0,0-48.6,78-354.1-34.1c0,0-11.4-57.3,3-64.5c68.8-34.2,310.6,139.2,330.2-25.8l-61.5-50.3c0,0-9.5-50.3-1-63.8
		c4.1-6.5,27.9-12.8,27.9-12.8L4830.1,337.9z"/>
	<path class="st2" d="M5027.2,309.7l26,61.8c0,0-56.1,51.2-104.5-9.4l-9.4-42c0,0-62.2-8-50.5-94.8c0,0,0.2-106.1,63.2-98
		c63.1,8,94,32.4,95.6,76.4C5049.3,247.6,5027.2,309.7,5027.2,309.7z"/>
	<path class="st2" d="M4591,1138.1c0,0,33.5,148.6-231.8,96.2l-121.4-56.5c0,0,37.4,109.7,39.2,199.2c0,0-8,62.9-75.8,10
		c0,0-147.1-356.3-56.8-370.9c90.3-14.6,87.6,7.3,87.6,7.3s-0.6-76.5,46.4-81.2C4325.5,937.4,4591,1138.1,4591,1138.1z"/>
	<polygon class="st2" points="3833.8,804.3 4083.9,669.6 4230.1,735.9 3969,879 	"/>
	<path class="st2" d="M4568.7,698.6c0,0-125,80.4-413.8-2.3c0,0-76.5,11.2-74,50.9c0,0,381.8,211.6,520.9,45.6L4568.7,698.6z"/>
	<polygon class="st2" points="3833.8,804.3 3763.1,627.3 4031.9,492.9 4083.9,669.6 	"/>
	<path class="st2" d="M4640.1,1050.6c-1.3-198.9-71.4-352-71.4-352l-70.5,10.2l12.1,28.6c-80.1,36.2-85,7.7-85,7.7l-85,72.5
		c-2.8,0.9-5.4,2.1-7.7,3.6c-106.8,47.8,49.1-131.7,49.1-131.7c-47.1,25.7-70.3-60.8-70.3-60.8c-258.9,343.7,2.6,298.8,2.6,298.8
		c60.3-12.2,67.7-27.4,67.7-27.4l-11.9,176c76.5,163.2,270.4,91.8,270.4,91.8C4642.7,1137.3,4640.1,1050.6,4640.1,1050.6z"/>
	<path class="st2" d="M4484.2,675.5l26,61.8c0,0-36.6,68.2-85,7.7l-9.6-35c0,0-80.8-21.6-69.2-108.4c0,0,0.2-106.1,63.2-98
		c63.1,8,94,32.4,95.6,76.4C4507,623.9,4484.2,675.5,4484.2,675.5z"/>
	<polygon class="st2" points="4410.7,474.4 4353.7,109.2 4774.3,-83.9 4804.2,259.3 	"/>
	<polygon class="st2" points="4353.7,109.2 4310.2,98.5 4731.6,-103.7 4774.3,-83.9 	"/>
	<polygon class="st2" points="4410.7,474.4 4365.7,454.6 4310.2,98.5 4353.7,109.2 	"/>
	<polygon class="st2" points="3209.2,628.3 3195,-251.6 4220.9,-810.9 4239.3,20.9 	"/>
	<polygon class="st7" points="3195,-251.6 3814.5,-127.8 4220.9,-810.9 	"/>
	<polygon class="st7" points="3427.5,774.3 3427.5,817.5 3980.8,1183.5 3983,1147.4 	"/>
</g>
</svg>
