<?xml version="1.0" encoding="utf-8"?>
<!-- Generator: Adobe Illustrator 19.0.0, SVG Export Plug-In . SVG Version: 6.00 Build 0)  -->
<svg version="1.1" id="Warstwa_1" xmlns="http://www.w3.org/2000/svg" xmlns:xlink="http://www.w3.org/1999/xlink" x="0px" y="0px"
	 viewBox="-447 145 384 512" style="enable-background:new -447 145 384 512;" xml:space="preserve">
<style type="text/css">
	.st0{fill:#00D1B2;}
	.st1{fill:#FFFFFF;}
</style>
<path class="st0" d="M-275.4,642.9C-418.4,435.5-445,414.2-445,338c0-104.3,84.7-189,189-189s189,84.7,189,189
	c0,76.2-26.6,97.5-169.6,304.9C-246,656.3-266,656.3-275.4,642.9L-275.4,642.9z"/>
<g>
	<path class="st1" d="M-186.7,404.9h-30.1l-16.2-39.5h-47l-16,39.5h-29.6l59-137.1h20.4L-186.7,404.9z M-242.7,342.7l-13.7-32.1
		l-13.7,32.1H-242.7z"/>
</g>
<path class="st1" d="M-141.9,271.4l-22.1,14.1c10.5,16.7,16.5,36.4,16.5,57.5c0,59.9-48.7,108.5-108.5,108.5S-364.5,402.8-364.5,343
	s48.7-108.5,108.5-108.5c20.6,0,39.8,5.7,56.2,15.8l13.7-22.4c-20.4-12.4-44.3-19.6-69.9-19.6c-74.3,0-134.8,60.5-134.8,134.8
	s60.5,134.8,134.8,134.8s134.8-60.5,134.8-134.8C-121.2,316.7-128.8,292.2-141.9,271.4z"/>
</svg>
