<?xml version="1.0" encoding="utf-8"?>
<!-- Generator: Adobe Illustrator 19.0.0, SVG Export Plug-In . SVG Version: 6.00 Build 0)  -->
<svg version="1.1" id="Warstwa_1" xmlns="http://www.w3.org/2000/svg" xmlns:xlink="http://www.w3.org/1999/xlink" x="0px" y="0px"
	 viewBox="-133 216.1 233 68.9" style="enable-background:new -133 216.1 233 68.9;" xml:space="preserve">
<style type="text/css">
	.st0{fill:#23C495;}
</style>
<path d="M-87.1,283c8.5-0.1,16.6-3.4,22.7-9.4c6.1-6,9.6-14,9.8-22.5c0.2-6.4-1.5-12.7-4.9-18.2c-0.4-0.7-1.2-1.1-2.1-1.1
	c-0.9,0-1.7,0.5-2.1,1.3c-0.4,0.8-0.4,1.7,0.1,2.5c3,4.8,4.4,10.3,4.1,15.9c-0.6,13.8-12.8,26-26.6,26.7c-7.9,0.4-15.5-2.6-21.1-8.2
	c-5.6-5.6-8.5-13.3-8.2-21.1c0.7-13.8,12.9-26,26.7-26.6c5.6-0.2,11.1,1.2,15.9,4.1c0.8,0.5,1.7,0.5,2.5,0.1
	c0.8-0.4,1.3-1.2,1.3-2.1c0-0.8-0.4-1.6-1.1-2.1c-5.5-3.4-11.7-5.1-18.2-4.9c-8.5,0.2-16.5,3.7-22.5,9.8c-6,6.1-9.4,14.2-9.4,22.7
	c-0.1,8.9,3.3,17.2,9.6,23.5c6.2,6.2,14.5,9.6,23.2,9.6C-87.3,283-87.2,283-87.1,283"/>
<path class="st0" d="M-87.4,230.3c-1.1,0-2,0.6-2.4,1.7l-12.4,29.7c-0.4,0.9-0.3,1.7,0.2,2.5c0.5,0.8,1.2,1.2,2.2,1.2
	c0.5,0,0.9-0.1,1.4-0.4c0.5-0.3,0.8-0.7,1-1.2l3.7-9.1h12.9l3.7,9.1c0.2,0.5,0.5,0.9,1,1.2c0.4,0.3,0.9,0.4,1.4,0.4
	c1,0,1.7-0.4,2.2-1.1c0.5-0.7,0.5-1.6,0.2-2.5l-12.5-29.7C-85.4,230.9-86.2,230.3-87.4,230.3 M-92.1,250.6l4.8-11.8l4.7,11.8H-92.1z
	"/>
<path d="M-23.7,258.4c0.4-0.6,0.4-1.2,0.1-1.9l-8.7-20.7c-0.3-0.9-1-1.3-1.8-1.3c-0.8,0-1.5,0.4-1.8,1.3l-8.7,20.7
	c-0.3,0.7-0.3,1.3,0.1,1.9c0.4,0.6,0.9,0.9,1.6,0.9c0.4,0,0.7-0.1,1-0.3c0.3-0.2,0.6-0.5,0.8-0.9l2.6-6.2h8.8l2.5,6.2
	c0.2,0.4,0.4,0.7,0.7,0.9c0.3,0.2,0.7,0.3,1.1,0.3C-24.6,259.2-24.1,258.9-23.7,258.4 M-37.2,248.6l3.1-7.7l3.1,7.7H-37.2z"/>
<path d="M-16.5,245.6c0.8-0.4,1.8-0.5,2.9-0.5c0.3,0,0.6,0,0.8-0.1c0.3-0.1,0.5-0.3,0.6-0.5c0.2-0.2,0.2-0.5,0.2-0.9
	c0-0.5-0.2-1.2-1.1-1.6c-0.7-0.3-1.6-0.4-2.7-0.1c-0.9,0.2-1.8,0.6-2.5,1.1c-0.1-0.4-0.2-0.7-0.5-1c-0.3-0.3-0.8-0.5-1.4-0.5
	c-0.6,0-1.1,0.2-1.4,0.5c-0.3,0.3-0.5,0.8-0.5,1.4v14c0,0.6,0.2,1.1,0.5,1.4c0.3,0.3,0.8,0.5,1.4,0.5c0.6,0,1.1-0.2,1.4-0.5
	c0.3-0.3,0.5-0.8,0.5-1.4V247C-17.8,246.4-17.3,245.9-16.5,245.6"/>
<path d="M-0.9,255.4h-1c-0.6,0-1-0.2-1.4-0.7c-0.4-0.5-0.6-1.1-0.6-1.8v-7.7h2.4c0.5,0,1-0.2,1.3-0.5c0.3-0.3,0.5-0.7,0.5-1.2
	c0-0.5-0.2-0.9-0.5-1.2c-0.3-0.3-0.8-0.5-1.3-0.5H-4v-3.6c0-0.5-0.2-1-0.5-1.4c-0.4-0.4-0.8-0.5-1.4-0.5c-0.5,0-1,0.2-1.4,0.5
	c-0.4,0.4-0.5,0.8-0.5,1.4v3.6h-0.9c-0.5,0-1,0.2-1.3,0.5c-0.3,0.3-0.5,0.7-0.5,1.2c0,0.5,0.2,0.9,0.5,1.2c0.3,0.3,0.8,0.5,1.3,0.5
	h0.9v7.7c0,1.2,0.3,2.3,0.7,3.2c0.5,1,1.2,1.7,2.1,2.3c0.9,0.6,1.9,0.8,3,0.8h0.6c0.6,0,1.1-0.2,1.5-0.5c0.4-0.4,0.6-0.8,0.6-1.4
	c0-0.5-0.2-1-0.5-1.3C-0.1,255.6-0.5,255.4-0.9,255.4"/>
<path d="M51.3,254.9c0.7-1.3,1.1-2.9,1.1-4.5c0-1.7-0.4-3.2-1.2-4.6c-0.8-1.3-1.8-2.4-3.2-3.2c-1.3-0.8-2.8-1.2-4.5-1.2
	c-1.7,0-3.2,0.4-4.5,1.2c-1.3,0.8-2.4,1.9-3.1,3.2c-0.8,1.3-1.2,2.9-1.2,4.6v14c0,0.5,0.2,1,0.6,1.4c0.4,0.4,0.8,0.6,1.4,0.6
	c0.6,0,1-0.2,1.4-0.6c0.4-0.4,0.5-0.8,0.5-1.4V257c0.6,0.6,1.3,1.1,2.1,1.5c1.1,0.5,2.2,0.8,3.5,0.8c1.6,0,3-0.4,4.2-1.2
	C49.6,257.3,50.6,256.2,51.3,254.9 M48,253.1c-0.5,0.8-1.1,1.5-1.8,1.9c-0.8,0.5-1.6,0.7-2.6,0.7c-1,0-1.8-0.2-2.6-0.7
	c-0.8-0.5-1.4-1.1-1.8-1.9c-0.4-0.8-0.7-1.7-0.7-2.8c0-1,0.2-2,0.7-2.8c0.4-0.8,1.1-1.5,1.8-1.9c0.8-0.5,1.6-0.7,2.6-0.7
	c1,0,1.9,0.2,2.6,0.7c0.8,0.5,1.4,1.1,1.8,1.9c0.5,0.8,0.7,1.8,0.7,2.8C48.7,251.4,48.4,252.3,48,253.1"/>
<path d="M69,256c0-0.5-0.3-0.9-0.7-1.3c-0.3-0.3-0.7-0.4-1.2-0.4c-0.4,0-0.8,0.2-1.2,0.4c-0.4,0.3-0.9,0.5-1.5,0.8
	c-0.6,0.2-1.2,0.3-1.8,0.3c-1.1,0-2.1-0.2-2.9-0.7c-0.8-0.5-1.5-1.1-2-2c-0.3-0.4-0.4-0.9-0.6-1.4h11.3c0.5,0,0.9-0.2,1.3-0.5
	c0.3-0.3,0.5-0.7,0.5-1.2c0-1.7-0.3-3.2-0.9-4.5c-0.6-1.3-1.6-2.3-2.8-3.1c-1.2-0.7-2.7-1.1-4.3-1.1c-1.7,0-3.2,0.4-4.5,1.1
	s-2.3,1.8-3.1,3.2c-0.7,1.3-1.1,2.9-1.1,4.6c0,1.7,0.4,3.3,1.2,4.6c0.8,1.3,1.9,2.4,3.2,3.2c1.4,0.8,3,1.1,4.7,1.1
	c1,0,2-0.2,3.1-0.5c1.1-0.4,2-0.8,2.7-1.4C69,256.9,69.1,256.4,69,256 M57.6,247.5c0.4-0.8,1-1.5,1.8-2c0.8-0.5,1.7-0.7,2.8-0.7
	c1,0,1.8,0.2,2.4,0.6c0.7,0.4,1.2,1,1.5,1.8c0.2,0.4,0.4,0.9,0.4,1.4h-9.4C57.3,248.2,57.4,247.8,57.6,247.5"/>
<path d="M82.5,247c0.4,0.7,0.6,1.6,0.6,2.7v7.6c0,0.5,0.2,1,0.5,1.4c0.4,0.4,0.8,0.6,1.4,0.6c0.5,0,1-0.2,1.4-0.6
	c0.4-0.4,0.6-0.8,0.6-1.4v-7.6c0-1.8-0.3-3.3-1-4.5c-0.7-1.2-1.6-2.2-2.8-2.8c-1.2-0.6-2.5-1-4-1c-1.4,0-2.7,0.3-3.8,0.9
	c-0.1,0.1-0.3,0.1-0.4,0.2c-0.1-0.2-0.2-0.3-0.3-0.5c-0.4-0.4-0.8-0.5-1.4-0.5c-0.5,0-1,0.2-1.4,0.5c-0.4,0.4-0.6,0.8-0.6,1.4v13.8
	c0,0.5,0.2,1,0.6,1.4c0.4,0.4,0.8,0.6,1.4,0.6c0.6,0,1-0.2,1.4-0.6c0.4-0.4,0.5-0.8,0.5-1.4v-10.9c0.3-0.4,0.7-0.7,1.2-0.9
	c0.6-0.3,1.4-0.5,2.2-0.5c0.9,0,1.7,0.2,2.4,0.5C81.5,245.8,82.1,246.3,82.5,247"/>
<path d="M30.3,237.6L30.3,237.6c-1.1-1.1-2.5-2-4-2.7c-1.5-0.6-3.3-0.9-5.1-0.9c-1.9,0-3.6,0.3-5.2,0.9c-1.6,0.6-2.9,1.5-4,2.7
	c-1.1,1.1-2,2.5-2.6,4.1c-0.6,1.6-0.9,3.3-0.9,5.2c0,1.9,0.3,3.6,0.9,5.2c0.6,1.6,1.5,2.9,2.6,4.1c1.1,1.1,2.5,2,4,2.7
	c1.6,0.6,3.3,0.9,5.2,0.9c1.9,0,3.6-0.3,5.1-0.9c1.5-0.6,2.9-1.5,4-2.7c1.1-1.1,2-2.5,2.6-4.1c0.6-1.6,0.9-3.3,0.9-5.2
	c0-1.9-0.3-3.6-0.9-5.2C32.3,240.1,31.4,238.7,30.3,237.6 M29.1,250.4c-0.4,1.1-1,2-1.8,2.8c-0.8,0.8-1.7,1.4-2.7,1.9
	c-1,0.5-2.2,0.7-3.5,0.7c-1.3,0-2.4-0.2-3.5-0.7c-1-0.5-2-1.1-2.7-1.9c-0.8-0.8-1.4-1.7-1.8-2.8c-0.4-1.1-0.6-2.3-0.6-3.5
	c0-1.3,0.2-2.4,0.6-3.5c0.4-1.1,1-2,1.8-2.8c0.8-0.8,1.7-1.4,2.7-1.9c1-0.4,2.2-0.7,3.5-0.7c1.3,0,2.4,0.2,3.5,0.7
	c1,0.4,2,1.1,2.7,1.9c0.8,0.8,1.4,1.7,1.8,2.8c0.4,1.1,0.6,2.3,0.6,3.5C29.7,248.1,29.5,249.3,29.1,250.4"/>
</svg>
