<?xml version="1.0" encoding="utf-8"?>
<!-- Generator: Adobe Illustrator 19.0.0, SVG Export Plug-In . SVG Version: 6.00 Build 0)  -->
<svg version="1.1" id="Warstwa_1" xmlns="http://www.w3.org/2000/svg" xmlns:xlink="http://www.w3.org/1999/xlink" x="0px" y="0px"
	 viewBox="-133 216.1 233 68.9" style="enable-background:new -133 216.1 233 68.9;" xml:space="preserve">
<style type="text/css">
	.st0{fill:#FFFFFF;}
</style>
<g>
	<path class="st0" d="M-97.8,281c7.9-0.1,15.5-3.2,21.1-8.9c5.7-5.7,9-13.1,9.2-21c0.1-6.1-1.5-11.8-4.6-17
		c-0.4-0.7-1.2-1.1-1.9-1.1c-0.8,0-1.6,0.4-2,1.2c-0.4,0.7-0.4,1.6,0,2.3c2.7,4.4,4,9.6,3.9,14.8c-0.5,12.9-12,24.4-24.8,24.9
		c-7.3,0.4-14.5-2.4-19.7-7.7c-5.3-5.3-7.9-12.4-7.7-19.7c0.7-12.9,12-24.2,24.9-24.8c5.3-0.3,10.4,1.1,14.8,3.9
		c0.7,0.4,1.6,0.4,2.3,0c0.7-0.4,1.2-1.2,1.2-2c0-0.8-0.4-1.5-1.1-1.9c-5.1-3.1-10.9-4.7-17-4.6c-7.9,0.3-15.3,3.5-21,9.2
		c-5.7,5.7-8.8,13.2-8.9,21.1c-0.1,8.3,3.1,16.2,9,21.9c5.8,5.8,13.5,9,21.7,9C-97.9,281-97.8,281-97.8,281"/>
	<path class="st0" d="M-98,231.7c-1.1,0-1.9,0.5-2.3,1.6l-11.6,27.7c-0.4,0.8-0.3,1.6,0.1,2.4c0.4,0.8,1.1,1.1,2,1.1
		c0.4,0,0.8-0.1,1.2-0.4c0.4-0.3,0.8-0.7,0.9-1.1l3.5-8.5H-92l3.4,8.5c0.1,0.4,0.5,0.8,0.9,1.1c0.4,0.3,0.8,0.4,1.3,0.4
		c0.9,0,1.6-0.4,2-1.1c0.4-0.7,0.5-1.5,0.1-2.3l-11.6-27.7C-96.2,232.3-97,231.7-98,231.7 M-102.5,250.7l4.4-11l4.4,11H-102.5z"/>
	<path class="st0" d="M-44.2,237.9c-0.4-0.9-1.1-1.5-2-1.5s-1.6,0.5-2,1.5l-9.8,23.3c-0.3,0.8-0.3,1.5,0.1,2.2
		c0.4,0.7,1.1,1.1,1.9,1.1c0.4,0,0.8-0.1,1.2-0.3c0.4-0.3,0.7-0.5,0.9-1.1l2.8-7h10l2.8,7c0.1,0.4,0.4,0.8,0.8,0.9
		c0.4,0.3,0.8,0.4,1.2,0.4c0.8,0,1.5-0.3,1.9-0.9c0.4-0.7,0.4-1.3,0.1-2.2L-44.2,237.9z M-49.7,252.5l3.5-8.6l3.5,8.6H-49.7z"/>
	<path class="st0" d="M-22.4,244.9L-22.4,244.9c-0.8-0.4-1.8-0.4-3.1-0.1c-1.1,0.3-2,0.7-2.8,1.2c-0.1-0.4-0.3-0.8-0.5-1.1
		c-0.4-0.4-0.9-0.5-1.6-0.5s-1.2,0.1-1.6,0.5c-0.4,0.4-0.5,0.9-0.5,1.6v15.9c0,0.7,0.1,1.2,0.5,1.6c0.4,0.4,0.9,0.5,1.6,0.5
		s1.2-0.1,1.6-0.5c0.4-0.4,0.5-0.9,0.5-1.6v-11.7c0.4-0.7,1.1-1.2,1.9-1.6c0.9-0.4,2-0.7,3.4-0.5c0.4,0,0.7,0,0.9-0.1
		c0.3-0.1,0.5-0.3,0.7-0.5c0.1-0.3,0.3-0.7,0.3-1.1C-21.2,246.1-21.3,245.3-22.4,244.9"/>
	<path class="st0" d="M-8.8,260.1H-10c-0.7,0-1.1-0.3-1.6-0.8c-0.4-0.5-0.7-1.2-0.7-2v-8.8h2.7c0.5,0,1.1-0.1,1.5-0.5
		c0.4-0.4,0.5-0.8,0.5-1.3s-0.1-1.1-0.5-1.3c-0.4-0.4-0.8-0.5-1.5-0.5h-2.7v-4c0-0.7-0.3-1.1-0.5-1.5c-0.4-0.4-0.9-0.5-1.5-0.5
		c-0.7,0-1.1,0.3-1.5,0.5c-0.4,0.4-0.7,0.9-0.7,1.5v4h-1.1c-0.5,0-1.1,0.1-1.5,0.5c-0.4,0.4-0.5,0.8-0.5,1.3s0.1,0.9,0.5,1.3
		c0.4,0.4,0.8,0.5,1.5,0.5h1.1v8.8c0,1.3,0.3,2.6,0.8,3.6c0.5,1.1,1.3,1.9,2.3,2.6c0.9,0.7,2.2,0.9,3.4,0.9h0.7
		c0.7,0,1.3-0.1,1.8-0.5c0.5-0.4,0.7-0.9,0.7-1.6c0-0.7-0.1-1.1-0.5-1.5C-7.8,260.4-8.2,260.1-8.8,260.1"/>
	<path class="st0" d="M46.5,245.6c-1.5-0.9-3.2-1.3-5.1-1.3c-1.9,0-3.6,0.4-5.1,1.3c-1.5,0.9-2.7,2.2-3.5,3.6
		c-0.8,1.5-1.3,3.2-1.3,5.1v15.9c0,0.7,0.3,1.1,0.7,1.6c0.4,0.4,0.9,0.7,1.6,0.7s1.2-0.3,1.6-0.7c0.4-0.4,0.5-0.9,0.5-1.6v-8.3
		c0.7,0.7,1.5,1.2,2.4,1.6c1.2,0.5,2.6,0.9,3.9,0.9c1.8,0,3.4-0.4,4.7-1.3s2.6-2.2,3.4-3.6c0.8-1.5,1.2-3.2,1.2-5.1
		s-0.4-3.6-1.3-5.1C49.2,247.8,48,246.5,46.5,245.6 M46.5,257.6c-0.5,0.9-1.2,1.6-2,2.2c-0.8,0.5-1.9,0.8-3,0.8s-2-0.3-3-0.8
		c-0.8-0.5-1.6-1.2-2-2.2c-0.5-0.9-0.8-2-0.8-3.1c0-1.2,0.3-2.3,0.8-3.2c0.5-0.9,1.2-1.6,2-2.2s1.9-0.8,3-0.8s2.2,0.3,3,0.8
		c0.8,0.5,1.6,1.2,2,2.2c0.5,0.9,0.8,2,0.8,3.2C47.2,255.6,47,256.6,46.5,257.6"/>
	<path class="st0" d="M67.4,245.6c-1.3-0.8-3-1.2-4.8-1.2c-1.9,0-3.6,0.4-5.1,1.3c-1.5,0.8-2.7,2-3.5,3.5c-0.8,1.5-1.2,3.2-1.2,5.3
		c0,1.9,0.4,3.6,1.3,5.3c0.9,1.6,2.2,2.7,3.6,3.5c1.6,0.8,3.4,1.3,5.4,1.3c1.1,0,2.3-0.3,3.5-0.7c1.2-0.4,2.3-0.9,3.1-1.6
		c0.7-0.5,0.7-1.1,0.7-1.5c0-0.5-0.3-0.9-0.8-1.5c-0.4-0.3-0.8-0.5-1.3-0.4c-0.5,0-0.9,0.1-1.3,0.5c-0.4,0.3-0.9,0.7-1.8,0.8
		c-0.7,0.3-1.3,0.4-2,0.4c-1.2,0-2.4-0.3-3.4-0.8c-0.9-0.5-1.8-1.3-2.3-2.2c-0.3-0.5-0.5-1.1-0.7-1.6h12.8c0.5,0,1.1-0.1,1.5-0.5
		s0.5-0.8,0.5-1.3c0-1.9-0.4-3.6-1.1-5C69.8,247.6,68.8,246.4,67.4,245.6 M56.9,252.5c0.1-0.4,0.3-0.9,0.4-1.3
		c0.4-0.9,1.1-1.6,2-2.2c0.8-0.5,1.9-0.8,3.2-0.8c1.1,0,2,0.3,2.7,0.7c0.8,0.5,1.3,1.2,1.8,2c0.3,0.5,0.4,0.9,0.5,1.6H56.9z"/>
	<path class="st0" d="M89.4,248.6c-0.8-1.3-1.9-2.4-3.1-3.2c-1.3-0.7-2.8-1.1-4.4-1.1c-1.6,0-3.1,0.4-4.3,1.1
		c-0.1,0.1-0.3,0.1-0.4,0.3c-0.1-0.1-0.3-0.4-0.4-0.5c-0.4-0.4-0.9-0.7-1.6-0.7c-0.7,0-1.1,0.3-1.6,0.5c-0.4,0.4-0.7,0.9-0.7,1.6
		v15.6c0,0.7,0.3,1.2,0.7,1.6c0.4,0.4,0.9,0.7,1.6,0.7c0.7,0,1.2-0.3,1.6-0.7c0.4-0.4,0.5-0.9,0.5-1.6v-12.4
		c0.4-0.4,0.8-0.8,1.3-1.1c0.7-0.4,1.6-0.5,2.4-0.5c0.9,0,1.9,0.1,2.7,0.5s1.3,0.9,1.8,1.8c0.4,0.8,0.7,1.8,0.7,3.1v8.6
		c0,0.7,0.3,1.2,0.7,1.6c0.4,0.4,0.9,0.7,1.6,0.7c0.7,0,1.1-0.3,1.6-0.7c0.4-0.4,0.7-0.9,0.7-1.6v-8.6
		C90.4,251.7,90,250.1,89.4,248.6"/>
	<path class="st0" d="M26.5,240.1L26.5,240.1c-1.3-1.3-2.8-2.3-4.6-3c-1.8-0.7-3.8-1.1-5.8-1.1c-2.2,0-4,0.4-5.8,1.1
		c-1.8,0.7-3.4,1.8-4.6,3c-1.2,1.3-2.3,2.8-3,4.6c-0.7,1.8-1.1,3.8-1.1,5.8c0,2.2,0.4,4,1.1,5.8c0.7,1.8,1.8,3.4,3,4.6
		c1.2,1.3,2.8,2.3,4.6,3s3.8,1.1,5.8,1.1c2.2,0,4-0.4,5.8-1.1s3.2-1.8,4.6-3c1.3-1.3,2.3-2.8,3-4.6c0.7-1.8,1.1-3.8,1.1-5.8
		c0-2-0.4-4-1.1-5.8C28.8,242.9,27.7,241.3,26.5,240.1 M16.1,260.6c-1.5,0-2.7-0.3-3.9-0.8c-1.2-0.5-2.2-1.2-3.1-2.2
		c-0.8-0.9-1.5-2-2-3.2c-0.5-1.2-0.7-2.6-0.7-4c0-1.5,0.3-2.8,0.7-4c0.5-1.2,1.2-2.3,2-3.2c0.8-0.9,1.9-1.6,3.1-2.2s2.6-0.8,3.9-0.8
		c1.5,0,2.7,0.3,3.9,0.8s2.3,1.2,3.1,2.2c0.8,0.9,1.5,2,2,3.2c0.4,1.2,0.7,2.6,0.7,4c0,1.5-0.3,2.8-0.7,4c-0.4,1.2-1.2,2.3-2,3.2
		c-0.8,0.9-1.9,1.6-3.1,2.2C18.8,260.3,17.5,260.6,16.1,260.6"/>
</g>
</svg>
