<?xml version="1.0" encoding="utf-8"?>
<!-- Generator: Adobe Illustrator 19.0.0, SVG Export Plug-In . SVG Version: 6.00 Build 0)  -->
<svg version="1.1" id="Warstwa_1" xmlns="http://www.w3.org/2000/svg" xmlns:xlink="http://www.w3.org/1999/xlink" x="0px" y="0px"
	 viewBox="-383.6 366.1 233 68.9" style="enable-background:new -383.6 366.1 233 68.9;" xml:space="preserve">
<g>
	<g>
		<g>
			<path d="M-326.1,413.5h-6.3l-3.4-8.2h-9.8l-3.4,8.2h-6.2l12.3-28.6h4.2L-326.1,413.5z M-337.8,400.5l-2.9-6.7l-2.9,6.7H-337.8z"
				/>
		</g>
		<path d="M-316.8,385.6l-4.6,3c2.2,3.5,3.4,7.6,3.4,12c0,12.5-10.2,22.7-22.7,22.7c-12.5,0-22.7-10.2-22.7-22.7
			s10.2-22.7,22.7-22.7c4.3,0,8.3,1.2,11.7,3.3l2.9-4.7c-4.3-2.6-9.3-4.1-14.6-4.1c-15.5,0-28.1,12.6-28.1,28.1s12.6,28.1,28.1,28.1
			c15.5,0,28.1-12.6,28.1-28.1C-312.5,395.1-314,390-316.8,385.6z"/>
		<g>
			<g>
				<path d="M-280.6,413.5h-5.2l-2.8-6.8h-8.1l-2.8,6.8h-5.1l10.2-23.7h3.5L-280.6,413.5z M-290.3,402.8l-2.4-5.5l-2.4,5.5H-290.3z"
					/>
				<path d="M-268.7,397.2l-0.2,3.7c-0.2-0.1-0.4-0.1-0.7-0.2c-0.2,0-0.5,0-0.7,0c-1.4,0-2.4,0.5-3.1,1.4c-0.7,0.9-1.1,2.2-1.1,3.9
					v7.5h-4.1v-16.1h3.7v3.2c0.5-1.2,1.2-2.1,2-2.7c0.8-0.6,1.7-0.9,2.8-0.9c0.2,0,0.4,0,0.6,0S-269,397.2-268.7,397.2z"/>
				<path d="M-260.5,392.2v5.2h3.9v3h-3.9v7c0,1.2,0.2,2.1,0.6,2.6c0.4,0.5,1,0.8,1.8,0.8c0.2,0,0.5,0,0.7-0.1
					c0.3,0,0.5-0.1,0.9-0.2l0.1,2.9c-0.5,0.1-0.9,0.2-1.4,0.3c-0.5,0.1-1,0.1-1.4,0.1c-1.9,0-3.3-0.5-4.1-1.4
					c-0.8-0.9-1.2-2.5-1.2-4.7v-7.3h-3.2v-3h3.4v-3.9L-260.5,392.2z"/>
				<path d="M-221.9,401.5c0,3.4-1.1,6.2-3.4,8.6c-2.3,2.4-5.2,3.6-8.5,3.6c-3.4,0-6.2-1.2-8.5-3.6c-2.3-2.4-3.4-5.2-3.4-8.6
					c0-3.3,1.2-6.1,3.5-8.5c2.3-2.3,5.1-3.5,8.4-3.5c3.3,0,6.1,1.2,8.5,3.5C-223.1,395.4-221.9,398.2-221.9,401.5z M-226.7,401.9
					c0-2.2-0.6-4.1-1.9-5.6c-1.3-1.6-3.1-2.3-5.2-2.3c-2.1,0-3.9,0.8-5.2,2.3c-1.3,1.5-2,3.4-2,5.6c0,2,0.7,3.7,2.1,5.2
					c1.4,1.5,3.1,2.2,5.1,2.2c2,0,3.7-0.7,5.1-2.2C-227.4,405.7-226.7,404-226.7,401.9z"/>
				<path d="M-213.9,411v9.1h-4.1v-22.7h3.7v3.1c0.6-1.1,1.4-2,2.4-2.6s2.1-0.9,3.4-0.9c2,0,3.7,0.8,4.9,2.3
					c1.2,1.5,1.9,3.5,1.9,6.1c0,2.5-0.6,4.5-1.9,6.1c-1.3,1.6-2.9,2.4-4.9,2.4c-1.2,0-2.2-0.2-3.1-0.7
					C-212.6,412.7-213.3,412-213.9,411z M-209.8,400.2c-1.3,0-2.3,0.5-3,1.4s-1.1,2.2-1.1,3.8c0,1.6,0.4,2.9,1.1,3.8
					c0.7,0.9,1.7,1.4,2.9,1.4c1.2,0,2.2-0.5,2.9-1.4s1.1-2.2,1.1-3.9c0-1.6-0.4-2.8-1-3.7C-207.8,400.7-208.7,400.2-209.8,400.2z"/>
				<path d="M-183.7,405.3v1.3H-195c0.1,1.3,0.6,2.4,1.6,3.2c0.9,0.8,2.2,1.2,3.7,1.2c0.8,0,1.6-0.1,2.4-0.3
					c0.8-0.2,1.6-0.5,2.3-0.9v3.2c-0.8,0.3-1.6,0.6-2.5,0.7c-0.9,0.2-1.9,0.2-2.9,0.2c-2.7,0-4.8-0.8-6.3-2.3s-2.3-3.7-2.3-6.4
					c0-2.4,0.7-4.4,2.2-5.9c1.5-1.5,3.4-2.3,5.8-2.3c2.3,0,4.1,0.7,5.4,2.2C-184.4,400.6-183.7,402.7-183.7,405.3z M-187.5,404
					c-0.1-1.4-0.5-2.4-1.1-3.2c-0.6-0.8-1.5-1.1-2.5-1.1c-1.1,0-1.9,0.4-2.6,1.1c-0.7,0.8-1.1,1.8-1.3,3.2H-187.5z"/>
				<path d="M-165.3,403.9v9.6h-4.2v-8.7c0-1.5-0.3-2.6-0.8-3.3c-0.5-0.7-1.3-1.1-2.4-1.1c-1.2,0-2.1,0.4-2.8,1.3
					c-0.7,0.9-1,2.1-1,3.7v8h-4.1v-16h3.8v2.9c0.6-1.1,1.4-1.9,2.4-2.5s2.1-0.8,3.4-0.8c1.9,0,3.3,0.6,4.3,1.8
					C-165.8,399.9-165.3,401.7-165.3,403.9z"/>
			</g>
		</g>
	</g>
</g>
</svg>
