<?xml version="1.0" encoding="utf-8"?>
<!-- Generator: Adobe Illustrator 19.0.0, SVG Export Plug-In . SVG Version: 6.00 Build 0)  -->
<svg version="1.1" id="Слой_1" xmlns="http://www.w3.org/2000/svg" xmlns:xlink="http://www.w3.org/1999/xlink" x="0px" y="0px"
	 viewBox="0 76 500 350" style="enable-background:new 0 76 500 350;" xml:space="preserve">
<style type="text/css">
	.st0{opacity:0.1;fill:#B8B8B8;enable-background:new    ;}
	.st1{opacity:0.3;fill:#869AC2;enable-background:new    ;}
	.st2{fill:#404040;}
	.st3{fill:#32866B;}
	.st4{fill:#F9FBFC;}
	.st5{fill:#FCC812;}
	.st6{fill:#43B38F;}
	.st7{fill:#FFFFFF;}
	.st8{fill:#D6D6D6;}
	.st9{fill:#EEA886;}
	.st10{fill:#E54242;}
	.st11{fill:#5C544D;}
	.st12{fill:#E2D2CA;}
	.st13{fill:#C98462;}
	.st14{fill:#DE9D7D;}
</style>
<path class="st0" d="M236.6,289.2c0,27.1-22,49.1-49.1,49.1s-49.1-22-49.1-49.1s22-49.1,49.1-49.1
	C214.6,240.1,236.6,262.1,236.6,289.2z"/>
<path class="st1" d="M155.8,254.4c0,0,61.2-7.6,73.3,57l0,0c3.5-6.6,5.5-14.1,5.5-22.1c0-26-21.1-47.1-47.1-47.1
	C175.3,242.1,164.1,246.7,155.8,254.4z"/>
<g>
	<path class="st2" d="M317.7,384.8h-154c-3.2,0-5.7-2.6-5.7-5.7v-17.8c0-3.2,2.6-5.7,5.7-5.7h154c3.2,0,5.7,2.6,5.7,5.7V379
		C323.4,382.2,320.8,384.8,317.7,384.8z"/>
	<path class="st3" d="M372,371.7H108.9c-7.9,0-14.4-6.4-14.4-14.4V120c0-6.5,5.3-11.8,11.8-11.8H375c6.5,0,11.8,5.3,11.8,11.8v237
		C386.8,365.1,380.2,371.7,372,371.7z"/>
	<g>
		<path class="st4" d="M157.5,281.3c3.7-10.3,0.2-21.4-8-27.7c-2-1.5-4.2-2.8-6.7-3.7c-7.5-2.7-15.5-1.5-21.8,2.5
			c-4.3,2.8-7.8,7-9.7,12.2c-0.2,0.5-0.4,1-0.5,1.6c-0.7,2.4-1,4.8-1,7.1c0.1,9.9,6.3,19.2,16.2,22.7
			C138.8,300.6,152.9,294,157.5,281.3z M128.1,290.2c-7.4-2.7-12-9.6-12.1-17.1c0-1.8,0.2-3.6,0.7-5.3c0.1-0.4,0.2-0.8,0.4-1.2
			c1.4-3.9,4-7.1,7.3-9.2c4.7-3,10.7-3.9,16.3-1.9c1.9,0.7,3.6,1.6,5,2.8c6.1,4.8,8.8,13.1,6,20.8
			C148.2,288.8,137.7,293.7,128.1,290.2z"/>
	</g>
	<path class="st2" d="M142.8,249.9c-7.5-2.7-15.5-1.5-21.8,2.5c-4.3,2.8-7.8,7-9.7,12.2c-0.2,0.5-0.4,1-0.5,1.6
		c-0.7,2.4-1,4.8-1,7.1l6.1-0.1c0-1.8,0.2-3.6,0.7-5.3c0.1-0.4,0.2-0.8,0.4-1.2c1.4-3.9,4-7.1,7.3-9.2c4.7-3,10.7-3.9,16.3-1.9
		c1.9,0.7,3.6,1.6,5,2.8l3.8-4.9C147.5,252,145.2,250.8,142.8,249.9z"/>
	<g>
		<path class="st4" d="M226.3,277.5c2-10.7-3.3-21.1-12.4-26.1c-2.2-1.2-4.6-2.1-7.2-2.6c-7.9-1.5-15.6,1-21.1,6
			c-3.8,3.5-6.6,8.2-7.6,13.6c-0.1,0.5-0.2,1.1-0.3,1.6c-0.3,2.4-0.2,4.9,0.2,7.2c1.7,9.8,9.3,17.9,19.6,19.8
			C211,299.6,223.8,290.8,226.3,277.5z M198.8,291c-7.7-1.5-13.4-7.6-14.7-14.9c-0.3-1.7-0.4-3.6-0.1-5.4c0-0.4,0.1-0.8,0.2-1.2
			c0.8-4.1,2.8-7.6,5.7-10.2c4.1-3.8,9.9-5.6,15.8-4.5c1.9,0.4,3.8,1,5.4,1.9c6.8,3.7,10.8,11.5,9.3,19.6
			C218.4,286.3,208.8,292.9,198.8,291z"/>
	</g>
	<path class="st5" d="M206.8,248.8c-7.9-1.5-15.6,1-21.1,6c-3.8,3.5-6.6,8.2-7.6,13.6c-0.1,0.5-0.2,1.1-0.3,1.6
		c-0.3,2.4-0.2,4.9,0.2,7.2l6.1-1.1c-0.3-1.7-0.4-3.6-0.1-5.4c0-0.4,0.1-0.8,0.2-1.2c0.8-4.1,2.8-7.6,5.7-10.2
		c4.1-3.8,9.9-5.6,15.8-4.5c1.9,0.4,3.8,1,5.4,1.9l2.9-5.4C211.8,250.2,209.4,249.3,206.8,248.8z"/>
	<g>
		<path class="st4" d="M281.6,251.3c-9.6-5.1-21.1-3.2-28.6,4c-1.8,1.7-3.4,3.8-4.6,6.1c-3.8,7.1-3.7,15.2-0.6,21.9
			c2.2,4.7,5.8,8.7,10.7,11.3c0.5,0.3,1,0.5,1.5,0.7c2.3,1,4.6,1.7,6.9,2c9.8,1.3,19.9-3.6,24.8-12.8
			C298.1,272.5,293.5,257.6,281.6,251.3z M286.3,281.6c-3.7,7-11.2,10.6-18.6,9.6c-1.8-0.2-3.5-0.7-5.2-1.5
			c-0.4-0.2-0.7-0.3-1.1-0.5c-3.7-2-6.4-5-8-8.5c-2.4-5.1-2.4-11.1,0.4-16.4c0.9-1.8,2.1-3.3,3.5-4.6c5.6-5.4,14.2-6.9,21.4-3
			C287.7,261.5,291.1,272.6,286.3,281.6z"/>
	</g>
	<path class="st6" d="M262.5,289.7c-0.4-0.2-0.7-0.3-1.1-0.5c-3.7-2-6.4-5-8-8.5c-2.4-5.1-2.4-11.1,0.4-16.4
		c0.9-1.8,2.1-3.3,3.5-4.6l-4.3-4.4c-1.8,1.7-3.4,3.8-4.6,6.1c-3.8,7.1-3.7,15.2-0.6,21.9c2.2,4.7,5.8,8.7,10.7,11.3
		c0.5,0.3,1,0.5,1.5,0.7c2.3,1,4.6,1.7,6.9,2l0.8-6.1C265.9,291,264.2,290.5,262.5,289.7z"/>
	<rect x="109.8" y="309.2" class="st4" width="49.1" height="3.8"/>
	<rect x="109.8" y="317.2" class="st4" width="36.8" height="3.8"/>
	<rect x="177.7" y="309.2" class="st4" width="27.1" height="3.8"/>
	<rect x="177.7" y="317.2" class="st4" width="40.2" height="3.8"/>
	<rect x="249.9" y="309.2" class="st4" width="30.1" height="3.8"/>
	<rect x="249.9" y="317.2" class="st4" width="34.9" height="3.8"/>
	<rect x="326.1" y="148.2" class="st4" width="35.7" height="3.6"/>
	<rect x="326.1" y="159.3" class="st4" width="41.1" height="3.6"/>
	<rect x="326.1" y="170.3" class="st4" width="21.2" height="3.6"/>
	<rect x="326.1" y="181.4" class="st4" width="32.7" height="3.6"/>
	<rect x="109.8" y="335.3" class="st7" width="156.3" height="3.7"/>
	<rect x="109.8" y="343.9" class="st7" width="168.9" height="3.7"/>
	<rect x="109.8" y="352.4" class="st7" width="109.6" height="3.7"/>
	<rect x="109.8" y="335.3" class="st5" width="81.4" height="3.7"/>
	<rect x="109.8" y="343.9" class="st5" width="87.9" height="3.7"/>
	<rect x="109.8" y="352.4" class="st5" width="57.1" height="3.7"/>
	<rect x="132.7" y="215.6" class="st4" width="31.8" height="3.9"/>
	<rect x="124.9" y="208.6" class="st4" width="47.3" height="3.9"/>
	<path class="st2" d="M156.9,154.8c0,4.5-3.7,8.2-8.2,8.2s-8.2-3.7-8.2-8.2s3.7-8.2,8.2-8.2S156.9,150.2,156.9,154.8z"/>
	<path class="st2" d="M163.5,181.6v15.6c-4.5,2.1-9.6,3.2-14.9,3.2c-5.3,0-10.4-1.1-14.9-3.2v-15.6c0-8.2,6.7-14.9,14.9-14.9
		S163.5,173.4,163.5,181.6z"/>
	<rect x="200" y="142.6" class="st4" width="76.6" height="4.9"/>
	<rect x="284.8" y="142.6" class="st4" width="29.8" height="4.9"/>
	<rect x="200" y="131.4" class="st4" width="36" height="4.9"/>
	<rect x="200.5" y="161.9" class="st4" width="0.6" height="58.5"/>
	<rect x="216.8" y="161.9" class="st4" width="0.6" height="58.5"/>
	<rect x="233.1" y="161.9" class="st4" width="0.6" height="58.5"/>
	<rect x="249.4" y="161.9" class="st4" width="0.6" height="58.5"/>
	<rect x="265.7" y="161.9" class="st4" width="0.6" height="58.5"/>
	<rect x="282" y="161.9" class="st4" width="0.6" height="58.5"/>
	<rect x="298.3" y="161.9" class="st4" width="0.6" height="58.5"/>
	<rect x="314.6" y="161.9" class="st4" width="0.6" height="58.5"/>
	<polygon class="st2" points="200.8,201 211.9,189.9 217.3,195.3 229.1,183.5 238.5,192.8 250.5,180.9 258.7,189.1 279.5,168.2 
		295.2,183.8 304.7,174.3 314.9,184.6 314.9,220.3 200.8,220.3 	"/>
	<polygon class="st5" points="200.8,208.3 209.7,199.5 215.3,205.1 221.8,198.6 234,210.8 249.3,195.5 254.8,201 270.6,185.2 
		285,199.6 314.9,169.7 314.9,220.3 200.8,220.3 	"/>
	<rect x="200.5" y="156.9" class="st4" width="6.8" height="1.4"/>
	<rect x="216.8" y="156.9" class="st4" width="4.7" height="1.4"/>
	<rect x="233.1" y="156.9" class="st4" width="5.8" height="1.4"/>
	<rect x="249.4" y="156.9" class="st4" width="4.3" height="1.4"/>
	<rect x="265.7" y="156.9" class="st4" width="3.6" height="1.4"/>
	<rect x="282" y="156.9" class="st4" width="7" height="1.4"/>
	<rect x="298.3" y="156.9" class="st4" width="4.9" height="1.4"/>
	<rect x="314.6" y="156.9" class="st4" width="3.1" height="1.4"/>
	<path class="st4" d="M379.5,363.1h-47.1c-4.8,0-8.6-3.9-8.6-8.6V248.2c0-4.8,3.9-8.6,8.6-8.6h47.1c4.8,0,8.6,3.9,8.6,8.6v106.2
		C388.1,359.2,384.2,363.1,379.5,363.1z"/>
	<rect x="333.6" y="259.8" class="st8" width="2.7" height="83.1"/>
	<rect x="348.7" y="259.8" class="st8" width="2.7" height="83.1"/>
	<rect x="363.9" y="259.8" class="st8" width="2.7" height="83.1"/>
	<rect x="332.4" y="301.3" class="st5" width="5" height="33.7"/>
	<rect x="347.6" y="273" class="st5" width="5.1" height="33.7"/>
	<rect x="362.7" y="291.9" class="st5" width="5.1" height="33.7"/>
	<path class="st4" d="M148.6,201.4c-5.3,0-10.5-1.1-15.3-3.3c-13.2-6-21.7-19.2-21.7-33.7c0-20.4,16.6-37,37-37s37,16.6,37,37
		c0,14.5-8.5,27.7-21.7,33.7C159.1,200.3,153.9,201.4,148.6,201.4z M148.6,129.3c-19.3,0-35.1,15.7-35.1,35.1
		c0,13.7,8.1,26.3,20.6,31.9c4.6,2.1,9.4,3.1,14.5,3.1s9.9-1.1,14.5-3.1c12.5-5.7,20.6-18.2,20.6-31.9
		C183.7,145,167.9,129.3,148.6,129.3z"/>
	<path class="st6" d="M48.9,291.3c0,0,6.9-15.5-1.1-14.3c0,0-2.7,2.2-5.5,6.8c-2.1,3.5-6.5,12.6-6.3,15.7c0.2,3.1,2.4,5.4,4.7,10.4
		c0,0,4.9,9.2,5.1,10.3l5.2-2.7c0,0-4.4-8.8-7.5-16.6L48.9,291.3z"/>
	
		<rect x="112.3" y="303.7" transform="matrix(0.9858 -0.168 0.168 0.9858 -50.5366 23.7541)" class="st2" width="5.7" height="13.8"/>
	<path class="st9" d="M88.6,422.9h1.3c0,0-0.4-4.9,0.8-4.9c1.2,0,4.2,4,5.9,4.6c1.8,0.6,10.9,1.1,10.9-0.5c0-1.7-3.5-2.3-4.6-2.8
		s-6.5-5.7-7.4-6.3c-1-0.6-2.6-5-2.6-5l-5.1-0.2c0,0-0.3,4-0.6,6.2c-0.1,0.8-0.2,1.5-0.2,2C87,417.8,88.6,422.9,88.6,422.9z"/>
	<path class="st9" d="M55.9,422H57v-4.5c0.9,0.1,3.9,2.9,4.9,3.8c0.9,0.8,2.2,0.8,6.2,1c3.9,0.3,4.3-2.1,3.7-2.9
		c-0.6-0.8-2.6-1.2-3.7-1.7c-1-0.5-5.2-5.2-6.3-6.3c-1.1-1.1-1.8-4.3-1.8-4.3l-4.6,0.4c0,0,0,2.9-0.5,5.3l0,0l0,0
		c0,0.2-0.1,0.4-0.1,0.6C54,416,55.9,422,55.9,422z"/>
	<path class="st5" d="M72.9,318.8c0,0,1.7,4.1,1.9,5.1c0.2,1,4.2,10.9,5.4,17.5c0.7,4,2.6,16.4,2.8,18c0.3,2.7,1.5,8.7,1.7,11.4
		c0.1,1.5,7.7,25.2,9.6,37.6c0,0-4.4,0.6-7.7-0.2c0,0-6.7-12.8-10.4-30.9C74,366.4,72,360.5,70.3,356c-1.7-4.5-11.5-17.2-12.6-18.7
		c-1-1.4-7.4-9.3-1.4-17.9C62.5,311,72.9,318.8,72.9,318.8z"/>
	<path class="st5" d="M51,355.3c0.6,3.7,0,8.5-1.2,22s2,29.8,2,29.8c4,1.4,8.6,0,8.6,0c-0.1-0.9,0-32.9,0-35.7c0-2.8,0.8-6.1,1-9.3
		c0.1-2.2,1.2-6.3,2.3-10.5c0.3-1.3,0.7-2.5,1.1-3.7l0,0c0.2-0.7,0.4-1.4,0.6-2c1.6-5.7,3.8-27.7,3.8-27.7S57,308.3,51,317.6
		s-2.9,16-2.7,17.2C48.7,335.9,50.5,351.6,51,355.3z"/>
	<path class="st2" d="M55.9,422H57v-4.5c0.9,0.1,3.9,2.9,4.9,3.8c0.9,0.8,2.2,0.8,6.2,1c3.9,0.3,4.3-2.1,3.7-2.9
		c-0.6-0.8-2.6-1.2-3.7-1.7c-4.2,0.2-9.3-5.7-11.8-5.7c-1.3,0-1.3,0.7-1.3,0.9l0,0l0,0c0,0.2-0.1,0.4-0.1,0.6
		C54,416,55.9,422,55.9,422z"/>
	<path class="st2" d="M88.6,422.9h1.3c0,0-0.4-4.9,0.8-4.9c1.2,0,4.2,4,5.9,4.6c1.8,0.6,10.9,1.1,10.9-0.5c0-1.7-3.5-2.3-4.6-2.8
		c-3.8,0-9.9-4.1-11.8-5c-1.9-0.8-3.9-0.3-3.9-0.3c-0.1,0.8-0.2,1.5-0.2,2C87,417.8,88.6,422.9,88.6,422.9z"/>
	<path class="st9" d="M62.1,267.2c0,0-2,5.2-0.4,9.2c0,0-7.2-0.5-7.4-1.3c-0.3-0.8,0.3-8.6-0.7-10.9C52.6,262,62.1,267.2,62.1,267.2
		z"/>
	<path class="st6" d="M62.8,274.7c0,0,4.2,1.5,6.1,1.9c1.9,0.4,5.9,2.3,5.6,9.4c-0.3,7.1-1.5,13.3-2,16.4
		c-0.4,3.1-0.2,10.9,0.5,14.7c0,0-10.1,2.6-22.1,0c0,0,2.1-6.5,2.1-8.1c-0.1-1.7-7-15.4-7.4-17.6c-0.3-2.2-1.7-11.8,1.5-13.9
		s5.8-1.8,7.2-2.8C55.7,273.7,60.8,274,62.8,274.7z"/>
	<path class="st9" d="M55.9,246.5c2.9-1,10.7-2,12.6,9.9c2,11.9-2.3,12.1-6.8,11.8c-4.5-0.3-11.4-8.4-12-10.8
		C49.2,254.9,47.7,249.3,55.9,246.5z"/>
	<path class="st2" d="M66.9,251.1c0,0-2.4,5.1-5.5,6.9c0,0-2,5.4-6.2,7.6c0,0-11.2-7.4-4.7-16.3C57,240.5,66.2,247.5,66.9,251.1z"/>
	<path class="st9" d="M61.7,256.2c-0.3-0.6-1.9-1.6-2.7,0.1c-0.8,1.7,2,4.7,2.7,4.5C62.5,260.7,62.7,258.6,61.7,256.2z"/>
	<path class="st2" d="M50.9,250.6c-0.2-0.4-7.7-3.8-9.2,3.4c-1.5,7.2,6,15.5,7.3,19.1s-0.6,12-0.6,12s4.5-4.3,5.9-8.8
		C55.8,271.5,56.3,259.1,50.9,250.6z"/>
	<path class="st10" d="M50.5,250.4c0,0,2.3,1.8,2.6,4.6c0,0,0.4-2.2-0.5-3.6C51.7,250.1,50.5,250.4,50.5,250.4z"/>
	<path class="st2" d="M181.1,230c-36.4,0-66,29.5-66,66c0,36.4,29.5,66,66,66c36.4,0,66-29.5,66-66S217.5,230,181.1,230z
		 M181.1,351.1c-30.5,0-55.2-24.7-55.2-55.2s24.7-55.2,55.2-55.2s55.2,24.7,55.2,55.2C236.3,326.4,211.6,351.1,181.1,351.1z"/>
	<path class="st11" d="M429.1,410.6c0,0,0.5,3.6,0.6,4.2c0.1,0.5,6-0.3,6-0.3l0.5-4.3C436.1,410.1,429.8,410.1,429.1,410.6z"/>
	<path class="st2" d="M429.6,414.3c0,0-1.9,2.2-3.7,3.1c-1.8,0.9-4.6,1.3-5.7,2.3c-0.8,0.7-2.8,3.8,4.7,3.7
		c7.5-0.1,11.1,0.4,11.9-0.7c0.8-1.2-1.2-8.6-1.2-8.6S433.9,414.7,429.6,414.3z"/>
	<path class="st11" d="M386.9,410.6c0,0,0.5,3.6,0.6,4.2c0.1,0.5,6-0.3,6-0.3l0.5-4.3C393.9,410.1,387.6,410.1,386.9,410.6z"/>
	<path class="st2" d="M387.4,414.3c0,0-1.9,2.2-3.7,3.1c-1.8,0.9-8.4,1.7-9.5,2.7c-0.8,0.7-2.1,3.6,8.5,3.3
		c7.5-0.2,11.1,0.4,11.9-0.7c0.8-1.2-1.2-8.6-1.2-8.6S391.8,414.7,387.4,414.3z"/>
	<path class="st9" d="M414.8,246.5c0,0-7.7-2.8-11.2,2.9c-3.5,5.6-3.2,16.8,0.7,18.2c3.9,1.4,9.7,0.7,11.6-2.9c2-3.5,3.8-8.6,3.7-12
		C419.5,249.3,416.8,247.5,414.8,246.5z"/>
	<path class="st9" d="M405.5,267.2c0,0,0.3,1.9-0.2,2.9s9.6,1,9.6,1s0.8-5.2,2.4-9.6S405.5,267.2,405.5,267.2z"/>
	<path class="st2" d="M417.4,261.5c0,0-0.7,1.1-3.6,0.7c-2.9-0.4-6.3-4.1-7.5-4.5c-1.2-0.4-1.2-1.1-1.2-1.1l-0.7,1.1l-1.3,0.1
		c0,0,1.2-3.3-0.6-4.6c-1.7-1.3,1.8-10.6,11-7.5c0,0,7,1.9,6.8,5.7C420,255.2,418.9,259.6,417.4,261.5z"/>
	<path class="st12" d="M404.7,270c0,0,0-1.8,0.9-2s9.4-1,10.5-0.6v2.1C416.1,269.5,414.1,270.7,404.7,270z"/>
	<path class="st9" d="M405.3,255.2c0.2-0.6,1.9-2.5,2.5-0.5c0.7,2-1,4.6-1.9,4.4C405,258.9,404.8,256.9,405.3,255.2z"/>
	<path class="st13" d="M369.8,339.6c0,0-1,1.6-1.4,2s0.9,0.7,1.5,0.3C370.4,341.4,369.8,339.6,369.8,339.6z"/>
	<path class="st14" d="M377.2,345c0,0,0.6-0.6,0.7-1c0,0,0.2-0.7,0.3-1.2c0.1-0.2,0.1-0.3,0.1-0.4c0.2-0.4,0.7-1.1,0.8-2.1
		c0.2-1,0.6-5.3,0.6-5.3l-2.7-0.7l-2.2-0.4c0,0-4.8,4.6-5,5.5c0,0.1,0,0.2-0.1,0.3c-0.1,0.8,0.1,1.4,0.1,1.8c0,0.2,0,1.7,0.4,2
		c0.5,0.4,1,0.5,1.5,0.3c0,0,1,0.7,1.9,0.7c0,0,0.9,0.7,2,0.4C375.6,344.8,376.6,345.4,377.2,345z"/>
	<path class="st5" d="M387.9,317.3c0,0-6.3,18.4-7.5,20.3c0,0-4.6-0.9-7.6-3.3l6.9-19.8L387.9,317.3z"/>
	<g>
		<path class="st6" d="M370.1,375.2H111.4c-10.4,0-18.9-11.6-18.9-25.8V101.8c0-14.2,8.5-25.8,18.9-25.8h258.7
			c10.4,0,18.9,11.6,18.9,25.8v247.5C389,363.6,380.5,375.2,370.1,375.2z M111.4,79.6c-9,0-16.3,10-16.3,22.2v247.5
			c0,12.3,7.3,22.2,16.3,22.2h258.7c9,0,16.3-10,16.3-22.2V101.8c0-12.3-7.3-22.2-16.3-22.2C370.1,79.6,111.4,79.6,111.4,79.6z"/>
		<path class="st6" d="M387.7,101.8v21.4H93.8v-21.4c0-13.3,7.9-24,17.6-24h258.7C379.8,77.8,387.7,88.6,387.7,101.8z"/>
	</g>
	<circle class="st5" cx="355.7" cy="101" r="9"/>
	<circle class="st2" cx="331" cy="101" r="9"/>
	<circle class="st4" cx="306.3" cy="101" r="9"/>
	
		<rect x="6.5" y="311" transform="matrix(0.9858 -0.1679 0.1679 0.9858 -52.8892 14.5812)" class="st5" width="106.6" height="18.1"/>
	<path class="st6" d="M46.5,328.3c17.3,4.6,31.1,0,31.1,0c-1.3-2.6-2.2-5.2-2.9-7.7l0,0c-0.5-1.8-0.8-3.5-1.1-5.1l0,0
		c-1.4-9.4,0.4-16.7,0.4-16.7c-2-16.5-26.9-21.4-28.9-16.2s3.9,27.6,4.2,29.6C49.7,314.1,46.5,328.3,46.5,328.3z"/>
	<path class="st9" d="M87.5,321.4c0,0,2.2,2.2,3,2.4c0.7,0.2,2.1-1,7.2-1.4c0.5,0,1.2,0.4,1.1,1c-0.2,0.6-2.4,2.2-3.4,2.5
		c-1,0.2-5.5,2-7.7,1.2c-2.2-0.9-3.7-3.7-3.7-3.7L87.5,321.4z"/>
	<path class="st6" d="M70.1,277c0,0,5.9,2.4,6.3,10.6c0.4,8.2,0.7,12.6,1,13.8c0.3,1.3,0.9,6.4,2.4,9.5c1.4,3,11,12.4,11,12.4
		l-4.6,4.3c0,0-13.3-13.3-14.1-15.7c-0.8-2.4-4.1-19.4-4.4-22.2C67.6,287.4,64.5,277.1,70.1,277z"/>
	<path class="st2" d="M427,317.3c0,0,3.1,9,2.7,16.7s1.6,16.2,2.5,24.3c0.9,9,4.7,30.3,4.9,35.1c0.1,4.8-0.6,20.2-0.6,20.2l-7.6,0.2
		c0,0-6.4-37.3-8-41.1c-1.7-3.8-9.8-30.9-10.1-33.9C410.4,335.7,427,317.3,427,317.3z"/>
	<path class="st2" d="M395,318.9c0,0-4.2,21.2-4.7,25.9c-0.6,4.7-0.9,22.9-1.2,25.9s-1.8,38.7-3.3,43.1h9.7c0,0,7.5-26,7.5-38.3
		s5.8-26.7,9.5-34.8c3.7-8.1,12.2-8.3,14.5-23.3C427,317.3,398.1,314.1,395,318.9z"/>
	<path class="st5" d="M404.7,270c0,0-4.7,1.6-10.2,3.9c0,0-6.3,2.3-7,8.9c-0.4,3.5-4.3,22.3-5,23.9s-9.4,27.1-9.7,27.7
		c-0.3,0.5,7.1,3.5,7.6,3.3s8.4-23.3,9.2-25c0,0,4.6-13.8,4.7-15.9c0,0,0.1,5.9,0.4,7.5c0.2,1.6-4.1,33.7-3.9,34.6
		c0.1,0.9,19.5,2,27.3,1.2s14-2.5,14-2.5s-6.1-25.3-5.9-28.1c0.4-6.1,2.5-17.6,2.5-17.6l6.3,11.5l-8.1,20.1l1.9,6.1
		c0,0,15.1-21.9,15.6-23.9s-0.7-4.6-1.5-6.2c-0.8-1.6-6-14.2-7.2-16c-1.2-1.8-3.3-8.8-8.3-10.8c-4.2-1.6-11.2-3-11.2-3L404.7,270z"
		/>
	<polygon class="st2" points="394.4,346 358.9,337.2 365.2,313.3 400.7,322.1 	"/>
</g>
</svg>
