<?xml version="1.0" encoding="utf-8"?>
<!-- Generator: Adobe Illustrator 19.0.0, SVG Export Plug-In . SVG Version: 6.00 Build 0)  -->
<svg version="1.1" id="Warstwa_1" xmlns="http://www.w3.org/2000/svg" xmlns:xlink="http://www.w3.org/1999/xlink" x="0px" y="0px"
	 viewBox="4663 -2022 10125 4644" style="enable-background:new 4663 -2022 10125 4644;" xml:space="preserve">
<style type="text/css">
	.st0{fill:#242D26;}
	.st1{fill:#0E1A17;}
	.st2{fill:#A4DCD7;}
	.st3{fill:#DED6A2;}
	.st4{fill:#A8FFCD;}
	.st5{fill:#5FBD44;}
	.st6{fill:#333333;}
	.st7{fill:#E1F1EE;stroke:#333333;stroke-width:5;stroke-miterlimit:10;}
	.st8{fill:none;stroke:#333333;stroke-width:5;stroke-miterlimit:10;}
	.st9{fill:#F6D6D9;}
	.st10{fill:#E1F1EE;stroke:#333333;stroke-width:6.001;stroke-miterlimit:10;}
	.st11{fill:none;stroke:#333333;stroke-width:6;stroke-miterlimit:10;}
	.st12{fill:#CCCBA2;}
	.st13{fill:none;stroke:#333333;stroke-width:10;stroke-miterlimit:10;}
	.st14{fill:#E1F1EE;stroke:#333333;stroke-width:5.2558;stroke-miterlimit:10;}
	.st15{fill:#E1F1EE;stroke:#333333;stroke-width:5.3582;stroke-miterlimit:10;}
	.st16{fill:#A8FFCD;stroke:#333333;stroke-width:6;stroke-miterlimit:10;}
	.st17{fill:#73C47D;}
	.st18{fill:#F6D6D9;stroke:#333333;stroke-width:5;stroke-miterlimit:10;}
	.st19{fill:#00D1B2;}
	.st20{fill:none;stroke:#333333;stroke-width:5.3582;stroke-miterlimit:10;}
	.st21{fill:#62BD41;}
	.st22{fill:none;stroke:#333333;stroke-width:15;stroke-miterlimit:10;}
	.st23{fill:none;stroke:#FFFFFF;stroke-width:6;stroke-miterlimit:10;}
	.st24{fill:#008D7F;}
	.st25{fill:#16211F;}
	.st26{opacity:0.5;fill:#0E1A17;}
	.st27{opacity:0.2;fill:#7B8369;}
	.st28{fill:#C5C5BF;stroke:#333333;stroke-width:5;stroke-miterlimit:10;}
</style>
<path id="XMLID_245_" class="st0" d="M4977,1154c0,0,9811-7.1,9811,19.9v628.7c-900.7,571.2-4351,478.2-5781,269.4
	C7409.4,1838.7,8076.1,1154,4977,1154z"/>
<path class="st1" d="M8533.2,1306.5c0,0-212.3,16.2-116.4,51s624.3,167.2,869.1,3.6c244.8-163.6-64.8-97.9-64.8-97.9L8533.2,1306.5z
	"/>
<path id="XMLID_81_" class="st2" d="M6626,1155c614.8,0,2448,0,2448,0s-245-351.8-666-351.8s-504,215.9-504,215.9
	S7795.5,470,7337,470s-621,468-621,468s-179.4-207.6-387,0c0,0-264.9-72.8-459,126.2C5787.7,1148.6,6435.7,1155,6626,1155z"/>
<circle id="XMLID_77_" class="st3" cx="7974" cy="-366" r="216"/>
<g id="XMLID_34_">
	<path id="XMLID_553_" class="st4" d="M6786.4,522.1c0-39.4,31.4-70.7,71-70.6c39.8,0,71.1,31.5,71,71.6c-0.1,39.2-32,71.1-71.1,71
		C6817.8,594,6786.4,562.2,6786.4,522.1z"/>
	<path id="XMLID_552_" class="st4" d="M6786.4,49.5c0.1-39.3,32.1-71.2,71.3-70.9c39.8,0.3,70.8,32.1,70.7,72.4
		c-0.1,38.8-31.7,70.1-70.9,70.2C6817.6,121.3,6786.4,89.8,6786.4,49.5z"/>
	<path id="XMLID_551_" class="st4" d="M7873.3,522.6c0,39.6-31,71-70.5,71.4c-39.2,0.4-71.5-31.9-71.5-71.5
		c0-39.8,31.7-71.3,71.6-71.1C7842.4,451.6,7873.3,482.9,7873.3,522.6z"/>
	<path id="XMLID_550_" class="st4" d="M5912.3,451.5c39.5,0,71.3,31.4,71.4,70.7c0.1,39.8-32.1,72.2-71.4,71.9
		c-39.5-0.3-70.6-31.8-70.6-71.5C5841.6,482.7,5872.6,451.5,5912.3,451.5z"/>
	<path id="XMLID_549_" class="st4" d="M7873.3,50.6c-0.1,39.6-31.6,70.9-71.2,70.7c-39.5-0.2-70.9-31.7-70.9-71.2
		c0-39.4,31.6-71.2,70.9-71.4C7841.8-21.6,7873.4,10.4,7873.3,50.6z"/>
	<path id="XMLID_547_" class="st4" d="M8346.2,50.1c0,39.6-31.3,71.1-70.9,71.1c-39.6,0.1-71.1-31.2-71.1-70.8
		c-0.1-40,31.8-72.1,71.3-71.8C8314.8-21.1,8346.1,10.6,8346.2,50.1z"/>
	<path id="XMLID_545_" class="st4" d="M7637.1,51.2c-0.7,39.5-32.6,70.7-71.9,70.1c-39.8-0.6-71.2-33-70.4-72.7
		c0.8-38.7,33.1-70.3,71.6-69.9C7606-21,7637.8,11.6,7637.1,51.2z"/>
	<path id="XMLID_544_" class="st4" d="M7164.9,51c-0.6,39.5-32.5,70.7-71.8,70.2c-39.8-0.5-71.2-32.9-70.5-72.5
		c0.7-38.7,33-70.3,71.5-70.1C7133.6-21.1,7165.5,11.5,7164.9,51z"/>
	<path id="XMLID_543_" class="st4" d="M6975.8,97.3c39.5,0,70.8,31.3,70.8,70.9c0,39.7-31.1,71.1-70.6,71.1
		c-39.9,0.1-71.7-31.7-71.4-71.4C6904.8,128.5,6936.3,97.3,6975.8,97.3z"/>
	<path id="XMLID_542_" class="st4" d="M7447.8,239.3c-39.4,0-70.9-31.6-71-70.9c-0.1-39.7,31.7-71.2,71.7-71.1
		c39.4,0.1,70.4,31.6,70.3,71.4C7518.7,208.2,7487.4,239.4,7447.8,239.3z"/>
	<path id="XMLID_541_" class="st4" d="M7164.9,523c-0.2,39.2-32.3,71.3-71.2,71.1c-39.1-0.2-71.1-32.3-71.1-71.3
		c0-39.7,32-71.5,71.8-71.2C7133.8,451.8,7165.1,483.4,7164.9,523z"/>
	<path id="XMLID_540_" class="st4" d="M7637.2,522.6c0,39.2-31.7,71.2-70.9,71.4c-38.8,0.2-71.2-32-71.4-71
		c-0.2-39.7,31.7-71.7,71.5-71.6C7605.7,451.6,7637.1,483.1,7637.2,522.6z"/>
	<path id="XMLID_538_" class="st4" d="M6550,50.2c-0.1-39.2,31.5-71.2,70.8-71.5c38.8-0.3,71.2,31.9,71.5,70.9
		c0.3,39.5-31.8,71.8-71.4,71.7C6581.4,121.1,6550.1,89.8,6550,50.2z"/>
	<path id="XMLID_537_" class="st4" d="M6077.8,522.4c0.2-39.6,31.6-70.9,71.1-70.9c39.7,0,71.6,32.2,71.2,71.8
		c-0.4,39.1-33.1,71.3-71.7,70.8C6109,593.5,6077.6,561.6,6077.8,522.4z"/>
	<path id="XMLID_536_" class="st4" d="M6550,522.6c0.1-39.6,31.4-71,70.9-71.1c39.7-0.1,71.7,32,71.4,71.6
		c-0.3,39.1-32.8,71.3-71.5,71C6581.6,593.7,6549.9,561.8,6550,522.6z"/>
	<path id="XMLID_535_" class="st4" d="M6786.4,286.7c0-40,31.6-71.6,71.4-71.3c39.5,0.2,70.7,31.6,70.6,71.3
		c0,39.6-31.3,70.8-71,70.8C6817.8,357.4,6786.5,326.2,6786.4,286.7z"/>
	<path id="XMLID_534_" class="st4" d="M8110,522.8c-0.1,39.1-32.2,71.3-71.2,71.3c-38.9,0-71.2-32.2-71.4-71.2
		c-0.2-39.5,32-71.6,71.7-71.4C8078.5,451.6,8110.1,483.5,8110,522.8z"/>
	<path id="XMLID_533_" class="st4" d="M8110,51c-1.2,40.3-33.2,71.3-72.8,70.2c-39.3-1-71.1-34.1-69.7-72.6
		c1.4-39.5,34.3-71.2,72.5-70C8079.5-20.1,8111.1,12.6,8110,51z"/>
	<path id="XMLID_532_" class="st4" d="M8440.3,51.9c-1.9-38.2,29.1-71,69.1-73.3c38.1-2.1,71.8,30,73.4,70
		c1.6,37.8-29.8,70.9-68.8,72.6C8474.6,122.9,8442.4,92.6,8440.3,51.9z"/>
	<path id="XMLID_531_" class="st4" d="M7873.3,286.7c-0.1,39.7-31.1,70.7-70.9,70.7c-39.9,0-71.2-31.5-71.1-71.7
		c0.1-39.1,32.3-70.7,71.6-70.4C7842.5,215.6,7873.4,246.9,7873.3,286.7z"/>
	<path id="XMLID_528_" class="st4" d="M6975.3,475.4c-39.3-0.1-71-32.1-70.8-71.4c0.3-39.4,32-70.8,71.5-70.7s70.6,31.6,70.5,71.4
		C7046.4,444.4,7015,475.6,6975.3,475.4z"/>
	<path id="XMLID_527_" class="st4" d="M7518.8,404.4c0,39.7-31.3,71-70.9,71c-39.5,0-71.1-31.6-71.1-71c0-39.3,31.7-71,71.1-71
		C7487.5,333.4,7518.8,364.7,7518.8,404.4z"/>
	<path id="XMLID_525_" class="st4" d="M6267.5,97.3c39.2,0.1,71,32.2,70.7,71.3c-0.3,39.8-32,70.9-72.1,70.7
		c-38.6-0.2-70.2-32-70.4-70.9C6195.4,129.1,6227.6,97.2,6267.5,97.3z"/>
	<path id="XMLID_524_" class="st4" d="M6738.7,239.3c-39.1-0.1-71.2-32.4-70.9-71.3c0.3-39.7,32.3-71,72.3-70.8
		c38.7,0.2,70.1,31.8,70.2,70.8C6810.6,207.7,6778.6,239.4,6738.7,239.3z"/>
	<path id="XMLID_523_" class="st4" d="M7849.6,640.4c0.2-39.3,32-71,71.2-70.9c39.6,0.1,71,32.1,70.8,72.1
		c-0.2,39.1-32.2,70.5-71.7,70.2C7880.5,711.5,7849.4,680,7849.6,640.4z"/>
	<path id="XMLID_522_" class="st4" d="M5558.1,948c-39.3,0-71.1-31.6-71.2-70.8s31.5-71.3,70.6-71.6c39.6-0.3,71.4,31.5,71.4,71.4
		C5628.9,916.5,5597.5,948,5558.1,948z"/>
	<path id="XMLID_520_" class="st4" d="M7400.7,522.5c0,39.5-31.1,71.2-70.4,71.6c-39.2,0.4-71.3-32-71.3-71.7
		c0-39.3,31.6-70.9,71-70.9C7369.3,451.5,7400.7,483,7400.7,522.5z"/>
	<path id="XMLID_519_" class="st4" d="M5912.6,688.2c39.7,0,71.1,31.2,71.1,70.6c0,39.2-31.5,70.9-70.8,71.4
		c-39.3,0.5-71.2-31.6-71.2-71.6C5841.6,718.8,5872.5,688.2,5912.6,688.2z"/>
	<path id="XMLID_518_" class="st4" d="M7873.3,759.3c-0.1,39.4-32,71.2-71.1,70.9c-39.8-0.3-71.1-32.1-71-72.1
		c0.1-39.2,31.7-70,71.7-69.9C7842.7,688.3,7873.4,719.3,7873.3,759.3z"/>
	<path id="XMLID_516_" class="st4" d="M6314.2,522.2c0-39.4,31.6-70.8,71-70.7c39.3,0.1,70.8,31.8,70.7,71.2
		c0,39.2-31.7,71.2-70.8,71.4C6345.8,594.3,6314.2,562.2,6314.2,522.2z"/>
	<path id="XMLID_515_" class="st4" d="M7613,876.5c0.3-39.2,32.3-70.9,71.4-70.8c39,0.1,71.1,32.3,71.1,71.2
		c0,39.4-32.4,71.5-72,71.1C7644.2,947.6,7612.7,915.7,7613,876.5z"/>
	<path id="XMLID_514_" class="st4" d="M6266.6,948c-39.2-0.2-71-32-71-71.2c-0.1-38.7,32.4-71.1,71.3-71.1
		c39.4,0,71.8,32.6,71.3,71.8C6337.6,917,6306,948.2,6266.6,948z"/>
	<path id="XMLID_513_" class="st4" d="M6738.9,948c-39.2-0.1-70.9-31.9-71.1-71.1c-0.1-38.7,32.3-71.1,71.2-71.2
		c39.4-0.1,71.8,32.5,71.3,71.7C6809.9,916.9,6778.3,948.1,6738.9,948z"/>
	<path id="XMLID_512_" class="st4" d="M6975.3,948c-39.4-0.3-70.9-32-70.8-71.2c0.2-39.6,32.6-71.7,71.9-71.1
		c39.8,0.6,70.5,32.4,70.1,72.7C7046.2,917.2,7014.4,948.3,6975.3,948z"/>
	<path id="XMLID_511_" class="st4" d="M7637.2,286.4c0,39.5-31.2,70.8-70.9,71c-39.3,0.2-71.3-31.3-71.4-70.5
		c-0.2-39.6,31.8-71.6,71.4-71.5C7605.6,215.5,7637.2,247.1,7637.2,286.4z"/>
	<path id="XMLID_510_" class="st4" d="M7164.9,286.3c0.1,39.5-31,70.8-70.7,71.1c-39.3,0.3-71.4-31.2-71.6-70.4
		c-0.2-39.7,31.7-71.7,71.3-71.6C7133.2,215.4,7164.8,246.9,7164.9,286.3z"/>
	<path id="XMLID_509_" class="st4" d="M8085.8,168.4c-0.1-39.4,31.5-71.1,70.8-71.1c39.9,0,71.7,31.7,71.5,71.4
		c-0.2,39.3-31.9,70.7-71.3,70.7C8117.4,239.3,8085.9,207.8,8085.8,168.4z"/>
	<path id="XMLID_507_" class="st4" d="M7140.7,876.7c0-39,32.1-71,71.2-71c39,0,71.1,32,71.3,71c0.2,39.4-32.2,71.6-71.8,71.3
		C7172.2,947.7,7140.7,916.1,7140.7,876.7z"/>
	<path id="XMLID_506_" class="st4" d="M7447.8,948c-39.4-0.2-71-31.7-71-71c0-39.5,32.4-71.8,71.7-71.3c39.4,0.4,70.4,32,70.3,71.6
		C7518.7,916.8,7487.2,948.1,7447.8,948z"/>
	<path id="XMLID_504_" class="st4" d="M5865.3,641.2c-0.2,39.4-31.8,70.7-71.2,70.7c-39.2-0.1-71.2-31.9-71.1-71
		c0.1-39.5,32.5-71.7,71.8-71.3C5834,570,5865.5,601.9,5865.3,641.2z"/>
	<path id="XMLID_503_" class="st4" d="M6975.8,711.9c-39.4,0.1-70.9-31.2-71.2-70.7c-0.3-39.4,32.1-71.8,71.4-71.6
		s70.6,31.8,70.6,71.3C7046.5,680.5,7015.3,711.8,6975.8,711.9z"/>
	<path id="XMLID_502_" class="st4" d="M7140.8,639.9c1.3-40.2,33.6-71.4,72.8-70.3c39.2,1.1,71,34.3,69.7,72.6
		c-1.4,40.4-34.2,71.1-74.3,69.6C7170.6,710.4,7139.6,677.7,7140.8,639.9z"/>
	<path id="XMLID_501_" class="st4" d="M7448.3,711.9c-39.4,0.2-71-30.9-71.5-70.5c-0.5-39.3,31.8-71.9,71.2-71.9
		c39.3,0,70.8,31.7,70.8,71.1C7518.8,680.4,7487.8,711.7,7448.3,711.9z"/>
	<path id="XMLID_500_" class="st4" d="M7613,639.9c1.2-40.2,33.6-71.4,72.8-70.3c39.2,1.1,71,34.3,69.7,72.6
		c-1.4,40.4-34.2,71.1-74.3,69.6C7642.9,710.4,7611.8,677.7,7613,639.9z"/>
	<path id="XMLID_497_" class="st4" d="M5865.3,876.8c0.1,39.4-31.3,70.9-70.7,71.2c-39.5,0.2-71.7-31.8-71.6-71.4
		c0.1-39,32.3-71,71.4-70.9C5833.6,805.8,5865.2,837.5,5865.3,876.8z"/>
	<path id="XMLID_496_" class="st4" d="M6858,688.2c39.6,0.1,70.6,31.3,70.5,71c-0.1,39.2-32.1,71.1-71.2,70.9
		c-39.8-0.2-70.9-31.9-70.9-72.1C6786.5,718.7,6817.8,688.1,6858,688.2z"/>
	<path id="XMLID_495_" class="st4" d="M7140.7,168.3c0-39.3,31.7-71,71-71c39.8,0,72,32.1,71.6,71.5s-32.1,70.6-71.5,70.6
		C7172.4,239.3,7140.8,207.6,7140.7,168.3z"/>
	<path id="XMLID_494_" class="st4" d="M6550,286.6c0-39.9,31.8-71.5,71.5-71.3c39.2,0.3,71,32.2,70.8,71.3
		c-0.2,39.3-31.9,70.8-71.2,70.8C6581.5,357.3,6550,326,6550,286.6z"/>
	<path id="XMLID_493_" class="st4" d="M7400.7,50.1c0,39.5-31.3,71-70.7,71.1c-39.3,0.1-71-31.6-71.1-70.8c0-39.8,32-72.1,71.2-71.8
		C7369.5-21,7400.7,10.7,7400.7,50.1z"/>
	<path id="XMLID_492_" class="st4" d="M7613.1,167.1c1.4-41.1,33.3-71,74.8-69.8c37.4,1.1,69.2,35.2,67.7,72.7
		c-1.7,40.9-34.1,70.7-75.4,69.4C7642.9,238.1,7611.8,204.6,7613.1,167.1z"/>
	<path id="XMLID_491_" class="st4" d="M6077.8,286.2c0.3-39.6,31.6-70.8,71.1-70.8s71.7,32.4,71.2,71.7s-32.4,70.7-71.7,70.3
		C6108.7,357,6077.5,325.6,6077.8,286.2z"/>
	<path id="XMLID_490_" class="st4" d="M8346.2,286.3c0,39.7-30.9,70.8-70.7,71.1c-40,0.2-71.4-31.1-71.3-71.3
		c0.1-39.4,31.6-70.8,71.1-70.7C8314.7,215.4,8346.1,246.9,8346.2,286.3z"/>
	<path id="XMLID_489_" class="st4" d="M6739.1,475.4c-39.2,0-71.1-31.8-71.2-70.9c-0.1-38.9,32-71,71.1-71.1
		c39.7-0.1,71.9,32,71.5,71.4C6810,444.2,6778.5,475.5,6739.1,475.4z"/>
	<path id="XMLID_488_" class="st4" d="M6267.2,711.9c-39.3,0.1-71.3-31.4-71.6-70.6c-0.4-39.1,32.3-71.9,71.5-71.7
		c39.1,0.1,71,32.1,71,71.2C6338.1,680,6306.5,711.8,6267.2,711.9z"/>
	<path id="XMLID_487_" class="st4" d="M6739.6,711.9c-39.3,0.2-71.2-31.2-71.8-70.5c-0.5-39,32.2-71.9,71.4-71.8
		c39.1,0,71,32,71.1,71.1C6810.5,679.9,6778.9,711.7,6739.6,711.9z"/>
	<path id="XMLID_486_" class="st4" d="M6266.5,475.4c-39.1-0.1-71.2-32.3-71-71.2c0.2-39.1,32.2-70.9,71.3-70.9
		c39.3,0,71,31.4,71.2,70.8C6338.4,443.7,6306.4,475.5,6266.5,475.4z"/>
	<path id="XMLID_485_" class="st4" d="M6314.2,49.7c0-39.4,32.1-71.4,71.1-71.1c39.2,0.4,70.6,32.3,70.6,71.8
		c0,39.3-32.1,71.1-71.3,70.8C6345,121,6314.1,89.6,6314.2,49.7z"/>
	<path id="XMLID_484_" class="st4" d="M6573.7,641.4c-0.1,39.5-31.6,70.7-71.1,70.4c-39.4-0.2-71-32-70.9-71.2
		c0.1-39,32.1-71,71.2-71.1C6542.4,569.4,6573.8,601.2,6573.7,641.4z"/>
	<path id="XMLID_483_" class="st4" d="M6101.4,641.6c-0.1,39-31.3,70.2-70.4,70.2c-39.7,0.1-71.8-31.9-71.6-71.4
		c0.2-39,32.3-70.9,71.4-70.9C6070.3,569.6,6101.5,601.4,6101.4,641.6z"/>
	<path id="XMLID_481_" class="st4" d="M8464.2,168.8c-0.1,39.4-31.6,70.6-71.2,70.5c-39.3-0.1-70.9-31.8-70.8-71.1
		c0-39.7,31.8-71,71.9-70.9C8433.3,97.4,8464.3,129,8464.2,168.8z"/>
	<path id="XMLID_480_" class="st4" d="M8109.7,289.4c-2.9,40.9-35.5,70.6-74.7,67.8c-39.5-2.8-70.2-36.2-67.5-73.5
		c3-41.1,36.2-71.1,75.4-68.3C8082.4,218.3,8112.4,251.5,8109.7,289.4z"/>
	<path id="XMLID_479_" class="st4" d="M7849.6,168c0.1-39.8,31.7-70.9,71.9-70.8c39.1,0.2,70.3,32,70.1,71.7
		c-0.1,39.2-31.8,70.4-71.5,70.3C7880.9,239.2,7849.5,207.6,7849.6,168z"/>
	<path id="XMLID_477_" class="st4" d="M6573.7,877.2c0,39.6-31.3,70.9-70.8,70.8c-39.3-0.1-71.1-31.7-71.2-70.9
		c-0.1-38.9,31.9-71.2,70.9-71.4C6542.2,805.5,6573.7,837.2,6573.7,877.2z"/>
	<path id="XMLID_476_" class="st4" d="M6101.4,876.9c0,39.8-31,71-70.5,71.1c-39.6,0.1-71.9-32.1-71.5-71.5
		c0.3-39.1,32.5-71,71.5-70.8C6070.3,805.9,6101.4,837.3,6101.4,876.9z"/>
	<path id="XMLID_475_" class="st4" d="M8157,475.4c-39.5,0-71.1-31.5-71.2-70.9c-0.1-39.3,31.6-71.1,71-71.1
		c39.4,0,71.3,31.7,71.3,70.9C8228.1,443.7,8196.4,475.4,8157,475.4z"/>
	<path id="XMLID_474_" class="st4" d="M6573.7,168.8c-0.1,39.6-31.3,70.6-71,70.5c-39.2-0.1-71-31.9-71-71.1c0-39.6,32-71.1,72-71
		C6542.9,97.4,6573.8,128.9,6573.7,168.8z"/>
	<path id="XMLID_470_" class="st4" d="M7613.1,405.7c-1.3-37.7,29.7-70.8,67.9-72.3c40.1-1.6,72.9,28.9,74.6,69.3
		c1.6,37.5-30.1,71.5-67.6,72.7C7646.7,476.8,7614.5,446.8,7613.1,405.7z"/>
	<path id="XMLID_469_" class="st4" d="M7140.9,402.4c2.1-40.8,34.4-70.8,74.6-69c38.5,1.7,70,35.9,67.7,73.5
		c-2.5,41.1-35.2,70.6-76.2,68.5C7169.7,473.5,7139,439.6,7140.9,402.4z"/>
	<path id="XMLID_468_" class="st4" d="M7849.6,404.4c0-39.5,31.5-71,71.1-71c39.4,0,71,31.6,70.9,71.1c0,39.5-31.6,71-71.1,70.9
		C7881.1,475.4,7849.6,443.9,7849.6,404.4z"/>
	<path id="XMLID_467_" class="st4" d="M7164.9,759c-0.2,39.4-32.2,71.3-71.2,71.1c-39.1-0.2-71.1-32.3-71.1-71.4
		c0-39.9,32.1-70.9,73.1-70.6C7134,688.5,7165.1,720.4,7164.9,759z"/>
	<path id="XMLID_466_" class="st4" d="M7566.5,688.2c39.3,0.1,70.5,31.1,70.7,70.2c0.2,39.7-32.4,72.3-71.5,71.7
		c-39.4-0.6-71-32.6-70.8-71.7C7495.1,719.2,7526.7,688.1,7566.5,688.2z"/>
	<path id="XMLID_464_" class="st4" d="M5676.4,688.2c39.1,0,70.6,31.1,71.1,70.1s-32.6,72.2-71.7,71.9
		c-39.2-0.3-71.2-32.7-70.9-71.5C5605.2,719,5636.5,688.2,5676.4,688.2z"/>
	<path id="XMLID_463_" class="st4" d="M6077.8,759.2c-0.2-39.2,30.9-70.8,69.8-71c40.4-0.2,72.4,30.9,72.5,70.4
		c0.1,39.1-31.6,71.1-70.9,71.6C6110.4,830.7,6077.9,798.5,6077.8,759.2z"/>
	<path id="XMLID_462_" class="st4" d="M6550,758.8c0-39.6,31.3-70.6,71.1-70.6c39.6,0,71.4,31.6,71.2,70.8
		c-0.2,39.2-32.3,71.2-71.3,71.2C6581.9,830.1,6550,798.1,6550,758.8z"/>
	<path id="XMLID_461_" class="st4" d="M6101.4,404.4c0,39.8-31.1,71.1-70.7,71.1c-39.4,0-71.3-31.7-71.3-70.9
		c-0.1-39.1,31.9-71,71.2-71.1C6070.2,333.3,6101.4,364.6,6101.4,404.4z"/>
	<path id="XMLID_460_" class="st4" d="M6573.7,404.9c-0.1,39.6-31.4,70.7-71.2,70.6c-39.2-0.1-71.2-32.3-70.8-71.4
		c0.3-39.2,32.3-70.7,71.7-70.6C6542.9,333.6,6573.7,364.9,6573.7,404.9z"/>
	<path id="XMLID_459_" class="st4" d="M7400.7,286.3c0,39.7-31.1,70.9-70.7,71c-39.4,0.1-71-31.4-71-70.8
		c0-39.4,31.5-71.1,70.8-71.2C7369.2,215.3,7400.7,246.9,7400.7,286.3z"/>
	<path id="XMLID_458_" class="st4" d="M6314.2,285.9c0-39.3,31.9-70.9,71.3-70.6c39.3,0.3,70.6,32.1,70.5,71.6
		c-0.1,38.9-31.5,70.2-70.6,70.5C6345.4,357.6,6314.1,326.2,6314.2,285.9z"/>
	<path id="XMLID_457_" class="st4" d="M7330.4,688.2c39.5,0.1,70.5,31.3,70.4,71.1c-0.1,38.8-31.4,70.3-70.4,70.8
		c-39.1,0.5-71.4-31.9-71.4-71.7C7259,719.1,7290.5,688.1,7330.4,688.2z"/>
	<path id="XMLID_456_" class="st4" d="M6385.5,688.2c39,0.1,70.4,31.5,70.4,70.4c0,39.3-31.4,71.1-70.7,71.5
		c-39.6,0.4-71.2-31.9-71.1-72.7C6314.3,718.7,6345.8,688.1,6385.5,688.2z"/>
</g>
<polygon id="XMLID_37_" class="st2" points="11521,1155 13159,714 13575,931 13755,607 13866.5,558 14194,255 14788,1173.9 "/>
<circle id="XMLID_31_" class="st4" cx="11909.5" cy="-343.9" r="730.1"/>
<path id="XMLID_3_" class="st3" d="M9426.3-592.8c0,0,176.7-237.2,368.4-237.2c191.7,0,190.1,83.1,190.1,83.1
	s37.8-285.2,237.7-285.2s207.9,160.4,207.9,160.4s67.6-279.3,493.1-279.3c402.3,0,445.6,410,445.6,410s173.7-145.3,267.4,101
	c0,0,105.9-133.9,219.8,41.1L9426.3-592.8z"/>
<path id="XMLID_36_" class="st5" d="M13487.3,520.5c0-161.5-131-292.5-292.5-292.5c-14.3,0-28.3,1-42,3
	c12.7-42.3,19.5-87.1,19.5-133.5c0-256-207.5-463.5-463.5-463.5c-168.3,0-315.6,89.6-396.8,223.8c-24.4-5.1-49.8-7.8-75.7-7.8
	c-203.8,0-369,165.2-369,369c0,156.1,97,289.6,234,343.5c-5.9,20-9,40.5-9,61.5c0,198.8,276,360,616.5,360
	c223.9,0,420-69.7,527.9-174C13378.4,789.6,13487.3,667.8,13487.3,520.5z"/>
<path id="XMLID_20_" class="st6" d="M11228.8,657.2c0,0,494.9-163.4,658.5,1.8c0,0,25.8,77.9-73.1,93.6
	c-98.9,15.7-197.2-11.2-197.2-11.2S11808.9,621.8,11228.8,657.2"/>
<polygon id="XMLID_243_" class="st7" points="8548,1318 8941,1320 8941,1282 8545.5,1273 "/>
<line id="XMLID_242_" class="st8" x1="8566.5" y1="1282" x2="8566" y2="1318"/>
<line id="XMLID_241_" class="st8" x1="8583" y1="1273" x2="8583" y2="1318"/>
<path id="XMLID_240_" class="st9" d="M8923.3-727l48-1.4l201,3.4c0,0,57.8,264-39.3,264S8923.3-727,8923.3-727z"/>
<path id="XMLID_239_" class="st10" d="M9163.3,976.2c0,0-65.4,198.2,81,315.2l-414-2c0,0,33.8-305,54-304.1L9163.3,976.2z"/>
<path id="XMLID_238_" class="st10" d="M8599.3,958c0,0-60.9,248.9-66,297c-5.1,48.1,119.6,31.5,405,36c0,0-132.5-62.4-63-297
	L8599.3,958z"/>
<path id="XMLID_237_" class="st6" d="M8857.3,1093c0,0-258.3-26.3-252-126c0,0,242.7,44.6,270,27
	C8875.3,994,8863.6,1022.4,8857.3,1093z"/>
<path id="XMLID_236_" class="st6" d="M9145.3,1093l22.5-112.9L8875.3,994C8890.9,1053.3,8994.5,1093,9145.3,1093z"/>
<path id="XMLID_235_" class="st9" d="M9048.2-811c0,0,56.3,65.3,111.1,33.2c54.8-32.2,37.8-249-107.7-240.1s-69.8,196.3-44.1,207
	l-36.2,82.5c0,0,68.2,102,149.5,4.3l8.1-55.5L9048.2-811z"/>
<path id="XMLID_234_" class="st11" d="M9184.3-898c0,0-50.9-9.9-27,72"/>
<circle id="XMLID_233_" class="st6" cx="9176.5" cy="-871.4" r="8.8"/>
<circle id="XMLID_232_" class="st6" cx="9110.5" cy="-869.4" r="8.8"/>
<path id="XMLID_231_" class="st6" d="M9046.2-808c0,0,25.1,67.1,75.1,81l7-42C9128.3-769,9071.1-758.7,9046.2-808z"/>
<path id="XMLID_230_" class="st9" d="M9193.4-718.1c0,0,154.7-6.5,427.1,690.2l-98.2,148.8l-191.6-255.5L9193.4-718.1z"/>
<path id="XMLID_229_" class="st12" d="M8749.1-541.8c0,0-26.1,304-23.8,570.8c1.9,220.9-246.2,823.8-232.1,915.7
	c0,0,272.2,59.2,382.3,59.1c110.1,0,300.2-2.7,300.2-2.7l168-724.2c0,0,55-997.7-171.5-1002c0,0,30.1,186.1-50.6,187
	c-70,0.7-163-188.2-163-188.2l-97.9-3.1C8860.9-729.3,8744.6-734.9,8749.1-541.8z"/>
<path id="XMLID_228_" class="st10" d="M9215.7-115.9l133.8-285l360,90l-75,480.1c0,0-87.4,60.7-121,42c-33.6-18.7-329-147-329-147
	L9215.7-115.9z"/>
<path id="XMLID_227_" class="st13" d="M9360.5-416.9c0,0-231.4-99.5-225,160"/>
<polygon id="XMLID_226_" class="st7" points="9247,1294 9247,1320.5 8940.5,1320.5 8941,1293 "/>
<path id="XMLID_225_" class="st11" d="M8875.6,1003.8c0,0,187.5-704.7,209.7-938.8"/>
<path id="XMLID_224_" class="st14" d="M9709.5-295.9c-11.2,39.9-112.1,47.9-200.2,23.1c-88.1-24.8-171-88.3-159.8-128.1
	c11.2-39.9,112.3-41.1,200.4-16.3C9638-392.4,9720.8-335.8,9709.5-295.9z"/>
<polygon id="XMLID_223_" class="st7" points="9670.3,-61 9828.8,-175.9 9828.8,-130.9 9643.6,146.2 "/>
<ellipse id="XMLID_222_" class="st15" cx="9883.4" cy="-177.5" rx="77.5" ry="90"/>
<circle id="XMLID_221_" class="st15" cx="9847.7" cy="-210.7" r="7.5"/>
<circle id="XMLID_220_" class="st15" cx="9885.7" cy="-210.7" r="7.5"/>
<circle id="XMLID_219_" class="st15" cx="9924.1" cy="-210.7" r="7.5"/>
<circle id="XMLID_218_" class="st15" cx="9847.7" cy="-175.7" r="7.5"/>
<circle id="XMLID_217_" class="st15" cx="9885.7" cy="-175.7" r="7.5"/>
<circle id="XMLID_216_" class="st15" cx="9924.1" cy="-175.7" r="7.5"/>
<circle id="XMLID_215_" class="st15" cx="9847.7" cy="-144" r="7.5"/>
<circle id="XMLID_214_" class="st15" cx="9885.7" cy="-144" r="7.5"/>
<circle id="XMLID_213_" class="st15" cx="9924.1" cy="-144" r="7.5"/>
<path id="XMLID_212_" class="st6" d="M9680.3-303c-8.1,29-101.1,30.3-165.1,12.4s-149-73.4-140.9-102.4c8.1-29,107-27,171-9
	S9688.4-332,9680.3-303z"/>
<path id="XMLID_211_" class="st9" d="M9711.8-47.7c0,0-100.9,51.3-90,135c10.9,83.7-15,105-15,105s119.8-50.1,120-90
	S9750.1,18.5,9711.8-47.7z"/>
<path id="XMLID_210_" class="st15" d="M9659.5,119c0,0-14.8-85.9-14.8-114.9"/>
<path id="XMLID_209_" class="st15" d="M9687.6,82.2c0,0-18-80.6-18-108"/>
<path id="XMLID_208_" class="st15" d="M9697.6-43.8c0,25.2,18,99,18,99"/>
<path id="XMLID_207_" class="st9" d="M8843.1-724.1c0,0,95.1-8.4,141,142.7C9030-430.3,9241.2-45.7,9313.9,1s82.3,71.7,82.3,71.7
	s1.9,23.1-86.7,15.4c-88.7-7.7,190,96.1,190,96.1s-58.9,79.3-170.7,92.8s-565.5-499.2-589.2-892.5
	C8739.6-615.5,8739.1-719.9,8843.1-724.1z"/>
<path id="XMLID_206_" class="st11" d="M9364.3,173c0,0,70.6,43.7,108,45"/>
<path id="XMLID_205_" class="st11" d="M9328.3,200c0,0,71.5,50.3,99,45"/>
<path id="XMLID_204_" class="st11" d="M9283.3,227c0,0,59.2,45.8,82,46"/>
<path id="XMLID_203_" class="st8" d="M8839.3-275c0,0,78.2-62.3,135,18c56.8,80.3-45,126-45,126"/>
<line id="XMLID_202_" class="st8" x1="8599" y1="1291" x2="8599" y2="1318"/>
<line id="XMLID_201_" class="st8" x1="8616" y1="1291" x2="8616" y2="1318"/>
<line id="XMLID_200_" class="st8" x1="8633" y1="1291" x2="8633" y2="1318"/>
<line id="XMLID_199_" class="st8" x1="8650" y1="1291" x2="8650" y2="1318"/>
<line id="XMLID_198_" class="st8" x1="8666" y1="1291" x2="8666" y2="1318"/>
<line id="XMLID_197_" class="st8" x1="8683" y1="1291" x2="8683" y2="1318"/>
<line id="XMLID_196_" class="st8" x1="8701" y1="1291" x2="8701" y2="1318"/>
<line id="XMLID_195_" class="st8" x1="8718" y1="1291" x2="8718" y2="1318"/>
<line id="XMLID_194_" class="st8" x1="8734" y1="1291" x2="8734" y2="1318"/>
<line id="XMLID_193_" class="st8" x1="8751" y1="1291" x2="8751" y2="1318"/>
<line id="XMLID_192_" class="st8" x1="8768" y1="1291" x2="8768" y2="1318"/>
<line id="XMLID_191_" class="st8" x1="8785" y1="1291" x2="8785" y2="1318"/>
<line id="XMLID_190_" class="st8" x1="8801" y1="1291" x2="8801" y2="1318"/>
<line id="XMLID_189_" class="st8" x1="8818" y1="1291" x2="8818" y2="1318"/>
<line id="XMLID_188_" class="st8" x1="8836" y1="1291" x2="8836" y2="1318"/>
<line id="XMLID_187_" class="st8" x1="8852" y1="1291" x2="8852" y2="1318"/>
<line id="XMLID_186_" class="st8" x1="8869" y1="1291" x2="8869" y2="1318"/>
<line id="XMLID_185_" class="st8" x1="8887" y1="1291" x2="8887" y2="1318"/>
<line id="XMLID_184_" class="st8" x1="8905" y1="1291" x2="8905" y2="1318"/>
<line id="XMLID_183_" class="st8" x1="8922" y1="1291" x2="8922" y2="1318"/>
<polygon id="XMLID_182_" class="st6" points="8953.5,1318 8953.5,1292 8936.5,1291 8936.5,1318 "/>
<line id="XMLID_181_" class="st8" x1="8969" y1="1293" x2="8969" y2="1320"/>
<line id="XMLID_180_" class="st8" x1="8986" y1="1293" x2="8986" y2="1320"/>
<line id="XMLID_179_" class="st8" x1="9002" y1="1293" x2="9002" y2="1320"/>
<line id="XMLID_178_" class="st8" x1="9019" y1="1293" x2="9019" y2="1320"/>
<line id="XMLID_177_" class="st8" x1="9036" y1="1293" x2="9036" y2="1320"/>
<line id="XMLID_176_" class="st8" x1="9053" y1="1293" x2="9053" y2="1320"/>
<line id="XMLID_175_" class="st8" x1="9069" y1="1293" x2="9069" y2="1320"/>
<line id="XMLID_174_" class="st8" x1="9086" y1="1293" x2="9086" y2="1320"/>
<line id="XMLID_173_" class="st8" x1="9104" y1="1293" x2="9104" y2="1320"/>
<line id="XMLID_172_" class="st8" x1="9120" y1="1293" x2="9120" y2="1320"/>
<line id="XMLID_171_" class="st8" x1="9137" y1="1293" x2="9137" y2="1320"/>
<line id="XMLID_170_" class="st8" x1="9155" y1="1293" x2="9155" y2="1320"/>
<line id="XMLID_169_" class="st8" x1="9171" y1="1295" x2="9171" y2="1322"/>
<line id="XMLID_168_" class="st8" x1="9188" y1="1295" x2="9188" y2="1322"/>
<line id="XMLID_167_" class="st8" x1="9204" y1="1295" x2="9204" y2="1322"/>
<line id="XMLID_166_" class="st8" x1="9221" y1="1295" x2="9221" y2="1322"/>
<line id="XMLID_165_" class="st8" x1="9235" y1="1295" x2="9235" y2="1322"/>
<path id="XMLID_164_" class="st16" d="M9139.3-799c0,0,9.7,14.1,18,0"/>
<path id="XMLID_59_" class="st0" d="M10787.2,1206.5c-1.9-28.7-37.4-51.5-80.9-51.5c-7.4,0-14.5,0.7-21.3,1.9
	c2.2-6.3,3.3-13,3.3-19.9c0-39.8-38.3-72-85.5-72c-14,0-27.2,2.8-38.8,7.9c-17-46.6-61.7-79.9-114.2-79.9
	c-53.4,0-98.7,34.4-115,82.3c-77.7-83.4-234-500.4-474.5-2.3c0,0-108.9-169.7-225,46c0,0-155.9-112.7-208,26
	c-52.1,138.7,54,126,54,126l1423,1C10904.3,1272,10857.2,1242.4,10787.2,1206.5z"/>
<line id="XMLID_162_" class="st13" x1="10082.3" y1="938" x2="10082.3" y2="-1033"/>
<line id="XMLID_161_" class="st13" x1="10085.4" y1="256" x2="10338.2" y2="-101"/>
<line id="XMLID_160_" class="st13" x1="10087.6" y1="761.5" x2="9835" y2="385.5"/>
<line id="XMLID_159_" class="st13" x1="10085.6" y1="-420" x2="10238" y2="-710"/>
<line id="XMLID_158_" class="st13" x1="10084.3" y1="-709" x2="9886.3" y2="-889"/>
<path id="XMLID_157_" class="st17" d="M10336-96c0,0-2.8-119.9,157.3-119.9C10493.3-215.9,10486.9-96,10336-96z"/>
<path id="XMLID_156_" class="st4" d="M9844.6,398.7c0,0-119.9,2.8-119.9-157.3C9724.7,241.4,9844.6,247.8,9844.6,398.7z"/>
<path id="XMLID_155_" class="st4" d="M10235.3-700.5c0,0-46.4-110.5,102.6-169.1C10337.9-869.6,10375.8-755.8,10235.3-700.5z"/>
<path id="XMLID_154_" class="st4" d="M10084.8-119.6c0,0-8.3-119.6,151.6-127C10236.4-246.6,10235.6-126.6,10084.8-119.6z"/>
<path id="XMLID_153_" class="st4" d="M9905.2-872.4c0,0-115.5,32.2-154.9-122.9C9750.3-995.4,9868-1018.7,9905.2-872.4z"/>
<path id="XMLID_152_" class="st17" d="M10078.6-1023.9c0,0-95.6-72.3,3.8-197.7C10082.4-1221.7,10172.4-1142.2,10078.6-1023.9z"/>
<path id="XMLID_151_" class="st6" d="M9175.3-934c0,0-36.9-30.3-36-18c1.8,24.5,10.2,64.5-117,54c0,0-71.2-20.1-14.9,87
	c0.2,0.4-64.7-36.2-66.1-96c-1-40.9,37-105.7,99-117C9157-1045.4,9175.3-934,9175.3-934z"/>
<path id="XMLID_150_" class="st18" d="M9044.5-865.9c0,0-0.3-37.7-30-30c-13.3,3.5-57,17.8,5.8,44"/>
<path id="XMLID_149_" class="st6" d="M8965.8-922.6c-18.7-67.5-247.1-120.9-312.5,78.6C8579.2-618,8984.5-855.1,8965.8-922.6z"/>
<path id="XMLID_148_" class="st17" d="M9974.5,503.4c0,0,93.4-75.1,190.8,51.9C10165.4,555.3,10066.4,623.2,9974.5,503.4z"/>
<path id="XMLID_147_" class="st4" d="M10192.7-634.1c0,0-85.6-24-47-149C10145.7-783.2,10229.1-752,10192.7-634.1z"/>
<path id="XMLID_146_" class="st4" d="M10076.9,209c0,0-97.2,12.1-109.5-105.8C9967.5,103.1,10065.4,97.7,10076.9,209z"/>
<path id="XMLID_145_" class="st17" d="M10081.1-593.8c0,0-87.6,15.2-105.5-114.4C9975.6-708.2,10064.2-716,10081.1-593.8z"/>
<path id="XMLID_4_" class="st4" d="M10252.3,19.5c0,0,100.5-65.3,184.6,70.9C10436.9,90.4,10331.6,147.9,10252.3,19.5z"/>
<path id="XMLID_143_" class="st4" d="M9885.8,452.2c0,0-60.2-77.3,34.9-148.2C9920.7,304,9975.4,385.3,9885.8,452.2z"/>
<path id="XMLID_142_" class="st4" d="M10141.6-523.3c0,0,50.2-53.1,119.6,15.5C10261.2-507.8,10207.1-458.6,10141.6-523.3z"/>
<path id="XMLID_19_" class="st9" d="M11150.3,251.1l-628,141.9c0,0-105.4,8.5-173.6-57.8c0,0-35.4-16.1-22.7,28
	c12.7,44.1,76.9,63.2,38.9,66.3c-37.9,3.1-125.5-79-149.9-86.7c-24.4-7.7-59.1,85.3,5.9,178.5s225.8,145,357.7,116.1
	c131.9-28.9,644.3-80.4,644.3-80.4S11099,416.4,11150.3,251.1z"/>
<path id="XMLID_16_" class="st19" d="M11617.1,1039.6l237.3,3.3c0,0,236.5,161,192.9,310.2c0,0-14.2,6.4-27,9
	c-55.3,11.4-187.1-37.1-187.1-37.1L11617.1,1039.6z"/>
<path id="XMLID_15_" class="st9" d="M10660.2,410.1l-398.6,505.5c0,0-76.5,72.9-171.2,64.4c0,0-37.7,9.8,0,36s99.5,0.7,72,27
	s-147.2,17.6-171,27s7.8,103.5,117,135s266.7-29.5,351-135s436-473,436-473S10724.3,570.9,10660.2,410.1z"/>
<path id="XMLID_11_" class="st9" d="M11036.3,45c59,0,45.5-10.5,53.4,43.2c7.9,53.8,185.5,25.6,237.6,16.8c0,0-94.1-330.9-254-322.1
	C10874.3-206.1,10934.4,45,11036.3,45z"/>
<circle id="XMLID_13_" class="st6" cx="10970.5" cy="-101.4" r="8.8"/>
<path id="XMLID_26_" class="st11" d="M11006.3-116c0,0-31.8-36.1-54-9"/>
<path id="XMLID_27_" class="st9" d="M10943.2-94.4l-11.6,43.4c-1.7,15.1,4.5,21.1,11.4,20l19.5-3.2c5-0.8,8.2-5.1,7.3-9.8l-7.9-40.2
	C10960.1-93.6,10945.6-94.6,10943.2-94.4z"/>
<g id="XMLID_25_">
	<g id="XMLID_350_">
		<path id="XMLID_383_" class="st6" d="M12490.3-463.8c1.9,0,1.9-3,0-3C12488.3-466.8,12488.3-463.8,12490.3-463.8L12490.3-463.8z"
			/>
	</g>
</g>
<path id="XMLID_29_" class="st13" d="M12245.3,142.6c0,0-21.8,268.3,171,268.3s171,138,171,138"/>
<path id="XMLID_6_" class="st20" d="M9987.3,1103c0,0,96.9,19.2,189-18"/>
<path id="XMLID_7_" class="st20" d="M10010.9,1144.3c0,0,115.6,12.8,179-18"/>
<path id="XMLID_8_" class="st20" d="M10063.9,1184.3c16.9,16.8,162-18,162-18"/>
<path id="XMLID_9_" class="st20" d="M10184.3,381c0,0,94.9,84.6,171,90"/>
<path id="XMLID_10_" class="st20" d="M10184.3,444c0,0,114.7,79.6,171,72"/>
<path id="XMLID_30_" class="st20" d="M10221.2,521.4c0,0,92.8,52.5,143.1,48.6"/>
<path id="XMLID_18_" class="st3" d="M11225,662.8c0,0-124.5-229.1-165.6-222.2c-8.1,1.3-167.5,171-167.5,171
	s-304.3-110.8-231.7-201.4c244.8-305.2,336.3-331.4,424.1-326.1c140.3,8.5,234-45,234-45s81.5-22.1,243,126
	c283.6,260.1,325.8,493.5,325.8,493.5C11708.6,526.7,11225,662.8,11225,662.8z"/>
<path id="XMLID_5_" class="st13" d="M12587.3,858c0,0,326.6,52.3,324-216c0,0-20.3-135,117-135s117-117,117-117"/>
<ellipse class="st1" cx="12586.8" cy="1254" rx="336.5" ry="75.3"/>
<path id="XMLID_32_" class="st13" d="M12587.3,291c0,0,135-20.6,135-189"/>
<path id="XMLID_33_" class="st13" d="M12758.3,489c0,0-12.8,180,153,180"/>
<path id="XMLID_39_" class="st21" d="M7569.1,375.5c0,0-688.8,387.6-1807-858.7C5762.1-483.2,6963.7-990.9,7569.1,375.5z"/>
<path id="XMLID_44_" class="st17" d="M5246.4,967.4c0,0-93.9-139.3,151-397.4C5397.3,570,5525.4,815.8,5246.4,967.4z"/>
<line id="XMLID_38_" class="st20" x1="10472.3" y1="642" x2="10660.2" y2="410.1"/>
<line id="XMLID_28_" class="st22" x1="12586.8" y1="1254" x2="12586.8" y2="66"/>
<path id="XMLID_144_" class="st4" d="M10074.3,416.4c0,0,16.5-118.7,174.5-93C10248.8,323.4,10223.3,440.7,10074.3,416.4z"/>
<path id="XMLID_53_" class="st17" d="M12577.6,410.4c0,0-1.6-67.6,88.7-67.6C12666.3,342.8,12662.7,410.4,12577.6,410.4z"/>
<path id="XMLID_52_" class="st4" d="M12590.8,158.5c0,0-26.2-62.3,57.8-95.4C12648.6,63.1,12670,127.3,12590.8,158.5z"/>
<path id="XMLID_51_" class="st4" d="M12260.9,295.1c0,0-4.7-67.4,85.5-71.6C12346.4,223.5,12346,291.2,12260.9,295.1z"/>
<path id="XMLID_50_" class="st4" d="M12243.6,180.5c0,0-65.1,18.2-87.4-69.3C12156.3,111.2,12222.7,98,12243.6,180.5z"/>
<path id="XMLID_49_" class="st17" d="M12244.4,158.1c0,0-53.9-40.8,2.2-111.5C12246.6,46.6,12297.3,91.4,12244.4,158.1z"/>
<path id="XMLID_48_" class="st4" d="M12590.8,74.9c0,0-48.2-13.5-26.5-84C12564.3-9.1,12611.3,8.4,12590.8,74.9z"/>
<path id="XMLID_47_" class="st4" d="M12591.1,548.5c0,0,1.1-55.2,67.9-52.5C12659,496,12654.1,551.1,12591.1,548.5z"/>
<path id="XMLID_46_" class="st4" d="M12515.2,681.4c0,0,53.5-13.8,68.8,51.3C12584,732.8,12529.7,742.9,12515.2,681.4z"/>
<path id="XMLID_12_" class="st4" d="M12726.4,140.1c0,0-0.4-41.2,54.7-40.5C12781,99.7,12778.3,140.8,12726.4,140.1z"/>
<path id="XMLID_56_" class="st4" d="M12720.9,107.4c0,0-24.9-32.8,19.6-65.1C12740.5,42.3,12762.9,77,12720.9,107.4z"/>
<path id="XMLID_57_" class="st4" d="M12697,203.8c0,0-41.2-0.9-38.7-55.9C12658.3,147.9,12699.4,152,12697,203.8z"/>
<path id="XMLID_58_" class="st4" d="M12761.3,495.6c0,0-29.9-28.3,8.8-67.4C12770.1,428.2,12797.8,458.7,12761.3,495.6z"/>
<path id="XMLID_45_" class="st18" d="M11066.3-132c0,0,63-22.1,18,54"/>
<path id="XMLID_54_" class="st8" d="M10568.3,933.1c0,0-78-62.5-12.3-135.6c65.7-73.2,132.8,16,132.8,16"/>
<path id="XMLID_61_" class="st23" d="M11633.3,1065"/>
<path id="XMLID_63_" class="st24" d="M11678.3,1051c41.6,6,82.7,69.9,108,126s70.1,200.1,14,203c-56.1,2.9-119-110.7-140-185
	S11629.2,1043.9,11678.3,1051z"/>
<path id="XMLID_65_" class="st24" d="M11811,1053.9c41.6-6,99.1,43.6,139.3,90.2c40.2,46.6,124,172,71,190.7
	s-145.6-72.4-186.7-137.7C11793.4,1131.8,11762,1061,11811,1053.9z"/>
<path id="XMLID_68_" class="st6" d="M11030.3-96c0,0,6.4-65.6-72-63c-78.4,2.6,21.3-117.1,153-99s138.8,160.3,144,180
	s-88.5,101.1-135-27C11083.2-207.4,11030.3-96,11030.3-96z"/>
<path id="XMLID_74_" class="st4" d="M12794.8,617.5c0,0-26.2-62.3,57.8-95.4C12852.6,522.1,12874,586.3,12794.8,617.5z"/>
<path id="XMLID_73_" class="st4" d="M12726.9,853.1c0,0-4.7-67.4,85.5-71.6C12812.4,781.5,12812,849.2,12726.9,853.1z"/>
<path id="XMLID_72_" class="st4" d="M12866.4,792.1c0,0,50.4-45.1,109,23.5C12975.5,815.6,12921.8,856.8,12866.4,792.1z"/>
<path id="XMLID_71_" class="st17" d="M12902.2,722.2c0,0,15-65.9,102.6-43.8C13004.8,678.4,12984.8,743.1,12902.2,722.2z"/>
<path id="XMLID_70_" class="st4" d="M12985.8,511.9c0,0-48.2-13.5-26.5-84C12959.3,427.9,13006.3,445.4,12985.8,511.9z"/>
<path id="XMLID_69_" class="st4" d="M13141.8,398.7c0,0-22.8-34.3,23.7-63.7C13165.6,335,13185.7,371,13141.8,398.7z"/>
<path id="XMLID_67_" class="st4" d="M13092.2,494.9c0,0,37.7-16.8,58.9,34C13151.1,528.9,13112.3,542.8,13092.2,494.9z"/>
<path id="XMLID_76_" class="st4" d="M12580.4,919.4c0,0-45,32-82.6-23.3C12497.8,896.1,12544.9,867.3,12580.4,919.4z"/>
<path id="XMLID_75_" class="st4" d="M12593.2,608.9c0,0-51.4,43.9-108.5-26C12484.8,582.9,12539.4,543,12593.2,608.9z"/>
<path class="st1" d="M10721.5,1263.4c0,0-29.4,127.8,275.6,123.8c305-4,513.2-32.4,562.5,10.4c84.4,73.3,254.6-9.8,254.6-9.8
	l-223.6-120.6L10721.5,1263.4z"/>
<g id="Warstwa_3">
	<rect id="XMLID_78_" x="9884.3" y="-139.7" class="st4" width="7" height="22"/>
	
		<rect id="XMLID_138_" x="9948" y="-135.1" transform="matrix(0.3299 0.944 -0.944 0.3299 6549.271 -9489.6191)" class="st4" width="22" height="7"/>
	<rect id="XMLID_83_" x="9846.3" y="-139.7" class="st4" width="7" height="22"/>
	<rect id="XMLID_84_" x="9846.3" y="-173.7" class="st4" width="7" height="22"/>
	<rect id="XMLID_85_" x="9884.3" y="-173.7" class="st4" width="7" height="22"/>
	
		<rect id="XMLID_86_" x="9918.9" y="-169" transform="matrix(0.3397 0.9405 -0.9405 0.3397 6400.9277 -9448.6064)" class="st4" width="22" height="7"/>
	
		<rect id="XMLID_137_" x="9942.9" y="-169" transform="matrix(0.3397 0.9405 -0.9405 0.3397 6416.7759 -9471.1787)" class="st4" width="22" height="7"/>
	<rect id="XMLID_87_" x="9884.3" y="-208.7" class="st4" width="7" height="22"/>
	<rect id="XMLID_88_" x="9846.3" y="-208.7" class="st4" width="7" height="22"/>
	
		<rect id="XMLID_82_" x="9924.4" y="-203.5" transform="matrix(0.7548 0.6559 -0.6559 0.7548 2304.3723 -6566.0508)" class="st4" width="22" height="6"/>
	<rect id="XMLID_90_" x="9846.3" y="-39.7" class="st4" width="7" height="22"/>
	<rect id="XMLID_89_" x="9846.3" y="-73.7" class="st4" width="7" height="22"/>
	<rect id="XMLID_79_" x="9846.3" y="-108.7" class="st4" width="7" height="22"/>
	<rect id="XMLID_94_" x="9846.3" y="62.3" class="st4" width="7" height="22"/>
	<rect id="XMLID_93_" x="9846.3" y="28.3" class="st4" width="7" height="22"/>
	<rect id="XMLID_92_" x="9846.3" y="-6.7" class="st4" width="7" height="22"/>
	<rect id="XMLID_97_" x="9846.3" y="164.3" class="st4" width="7" height="22"/>
	<rect id="XMLID_96_" x="9846.3" y="130.3" class="st4" width="7" height="22"/>
	<rect id="XMLID_95_" x="9846.3" y="95.3" class="st4" width="7" height="22"/>
	<rect id="XMLID_100_" x="9846.3" y="267.3" class="st4" width="7" height="22"/>
	<rect id="XMLID_99_" x="9846.3" y="233.3" class="st4" width="7" height="22"/>
	<rect id="XMLID_98_" x="9846.3" y="198.3" class="st4" width="7" height="22"/>
	<rect id="XMLID_112_" x="9884.3" y="-39.7" class="st4" width="7" height="22"/>
	<rect id="XMLID_111_" x="9884.3" y="-73.7" class="st4" width="7" height="22"/>
	<rect id="XMLID_110_" x="9884.3" y="-108.7" class="st4" width="7" height="22"/>
	<rect id="XMLID_109_" x="9884.3" y="62.3" class="st4" width="7" height="22"/>
	<rect id="XMLID_108_" x="9884.3" y="28.3" class="st4" width="7" height="22"/>
	<rect id="XMLID_107_" x="9884.3" y="-6.7" class="st4" width="7" height="22"/>
	<rect id="XMLID_106_" x="9884.3" y="164.3" class="st4" width="7" height="22"/>
	<rect id="XMLID_105_" x="9884.3" y="130.3" class="st4" width="7" height="22"/>
	<rect id="XMLID_104_" x="9884.3" y="95.3" class="st4" width="7" height="22"/>
	<rect id="XMLID_103_" x="9884.3" y="267.3" class="st4" width="7" height="22"/>
	<rect id="XMLID_102_" x="9884.3" y="233.3" class="st4" width="7" height="22"/>
	<rect id="XMLID_101_" x="9884.3" y="198.3" class="st4" width="7" height="22"/>
	<rect id="XMLID_124_" x="9925.3" y="-39.7" class="st4" width="7" height="22"/>
	<rect id="XMLID_123_" x="9925.3" y="-73.7" class="st4" width="7" height="22"/>
	<rect id="XMLID_122_" x="9925.3" y="-108.7" class="st4" width="7" height="22"/>
	<rect id="XMLID_91_" x="9922.3" y="-139.7" class="st4" width="7" height="22"/>
	<rect id="XMLID_121_" x="9925.3" y="62.3" class="st4" width="7" height="22"/>
	<rect id="XMLID_120_" x="9925.3" y="28.3" class="st4" width="7" height="22"/>
	<rect id="XMLID_119_" x="9925.3" y="-6.7" class="st4" width="7" height="22"/>
	<rect id="XMLID_118_" x="9925.3" y="164.3" class="st4" width="7" height="22"/>
	<rect id="XMLID_117_" x="9925.3" y="130.3" class="st4" width="7" height="22"/>
	<rect id="XMLID_116_" x="9925.3" y="95.3" class="st4" width="7" height="22"/>
	<rect id="XMLID_115_" x="9925.3" y="267.3" class="st4" width="7" height="22"/>
	<rect id="XMLID_114_" x="9925.3" y="233.3" class="st4" width="7" height="22"/>
	<rect id="XMLID_113_" x="9925.3" y="198.3" class="st4" width="7" height="22"/>
	<rect id="XMLID_136_" x="9959.3" y="-34.7" class="st4" width="7" height="22"/>
	<rect id="XMLID_135_" x="9959.3" y="-68.7" class="st4" width="7" height="22"/>
	<rect id="XMLID_134_" x="9959.3" y="-103.7" class="st4" width="7" height="22"/>
	<rect id="XMLID_133_" x="9959.3" y="67.3" class="st4" width="7" height="22"/>
	<rect id="XMLID_132_" x="9959.3" y="33.3" class="st4" width="7" height="22"/>
	<rect id="XMLID_131_" x="9959.3" y="-1.7" class="st4" width="7" height="22"/>
	<rect id="XMLID_130_" x="9959.3" y="169.3" class="st4" width="7" height="22"/>
	<rect id="XMLID_129_" x="9959.3" y="135.3" class="st4" width="7" height="22"/>
	<rect id="XMLID_128_" x="9959.3" y="100.3" class="st4" width="7" height="22"/>
	<rect id="XMLID_127_" x="9959.3" y="272.3" class="st4" width="7" height="22"/>
	<rect id="XMLID_126_" x="9959.3" y="238.3" class="st4" width="7" height="22"/>
	<rect id="XMLID_125_" x="9959.3" y="203.3" class="st4" width="7" height="22"/>
	<rect id="XMLID_336_" x="9846.3" y="340.3" class="st4" width="7" height="22"/>
	<rect id="XMLID_335_" x="9846.3" y="306.3" class="st4" width="7" height="22"/>
	<rect id="XMLID_334_" x="9846.3" y="442.3" class="st4" width="7" height="22"/>
	<rect id="XMLID_333_" x="9846.3" y="408.3" class="st4" width="7" height="22"/>
	<rect id="XMLID_280_" x="9846.3" y="373.3" class="st4" width="7" height="22"/>
	<rect id="XMLID_279_" x="9846.3" y="544.3" class="st4" width="7" height="22"/>
	<rect id="XMLID_278_" x="9846.3" y="510.3" class="st4" width="7" height="22"/>
	<rect id="XMLID_277_" x="9846.3" y="475.3" class="st4" width="7" height="22"/>
	<rect id="XMLID_276_" x="9846.3" y="647.3" class="st4" width="7" height="22"/>
	<rect id="XMLID_275_" x="9846.3" y="613.3" class="st4" width="7" height="22"/>
	<rect id="XMLID_274_" x="9846.3" y="578.3" class="st4" width="7" height="22"/>
	<rect id="XMLID_273_" x="9884.3" y="340.3" class="st4" width="7" height="22"/>
	<rect id="XMLID_272_" x="9884.3" y="306.3" class="st4" width="7" height="22"/>
	<rect id="XMLID_271_" x="9884.3" y="442.3" class="st4" width="7" height="22"/>
	<rect id="XMLID_270_" x="9884.3" y="408.3" class="st4" width="7" height="22"/>
	<rect id="XMLID_269_" x="9884.3" y="373.3" class="st4" width="7" height="22"/>
	<rect id="XMLID_268_" x="9884.3" y="544.3" class="st4" width="7" height="22"/>
	<rect id="XMLID_267_" x="9884.3" y="510.3" class="st4" width="7" height="22"/>
	<rect id="XMLID_266_" x="9884.3" y="475.3" class="st4" width="7" height="22"/>
	<rect id="XMLID_265_" x="9884.3" y="647.3" class="st4" width="7" height="22"/>
	<rect id="XMLID_264_" x="9884.3" y="613.3" class="st4" width="7" height="22"/>
	<rect id="XMLID_263_" x="9884.3" y="578.3" class="st4" width="7" height="22"/>
	<rect id="XMLID_262_" x="9925.3" y="340.3" class="st4" width="7" height="22"/>
	<rect id="XMLID_261_" x="9925.3" y="306.3" class="st4" width="7" height="22"/>
	<rect id="XMLID_260_" x="9925.3" y="442.3" class="st4" width="7" height="22"/>
	<rect id="XMLID_259_" x="9925.3" y="408.3" class="st4" width="7" height="22"/>
	<rect id="XMLID_258_" x="9925.3" y="373.3" class="st4" width="7" height="22"/>
	<rect id="XMLID_257_" x="9925.3" y="544.3" class="st4" width="7" height="22"/>
	<rect id="XMLID_256_" x="9925.3" y="510.3" class="st4" width="7" height="22"/>
	<rect id="XMLID_255_" x="9925.3" y="475.3" class="st4" width="7" height="22"/>
	<rect id="XMLID_254_" x="9925.3" y="647.3" class="st4" width="7" height="22"/>
	<rect id="XMLID_253_" x="9925.3" y="613.3" class="st4" width="7" height="22"/>
	<rect id="XMLID_252_" x="9925.3" y="578.3" class="st4" width="7" height="22"/>
	<rect id="XMLID_251_" x="9959.3" y="345.3" class="st4" width="7" height="22"/>
	<rect id="XMLID_250_" x="9959.3" y="311.3" class="st4" width="7" height="22"/>
	<rect id="XMLID_249_" x="9959.3" y="447.3" class="st4" width="7" height="22"/>
	<rect id="XMLID_248_" x="9959.3" y="413.3" class="st4" width="7" height="22"/>
	<rect id="XMLID_247_" x="9959.3" y="378.3" class="st4" width="7" height="22"/>
	<rect id="XMLID_246_" x="9959.3" y="549.3" class="st4" width="7" height="22"/>
	<rect id="XMLID_244_" x="9959.3" y="515.3" class="st4" width="7" height="22"/>
	<rect id="XMLID_163_" x="9959.3" y="480.3" class="st4" width="7" height="22"/>
	<rect id="XMLID_141_" x="9959.3" y="652.3" class="st4" width="7" height="22"/>
	<rect id="XMLID_140_" x="9959.3" y="618.3" class="st4" width="7" height="22"/>
	<rect id="XMLID_139_" x="9959.3" y="583.3" class="st4" width="7" height="22"/>
	<rect id="XMLID_380_" x="9846.3" y="716.3" class="st4" width="7" height="22"/>
	<rect id="XMLID_379_" x="9846.3" y="682.3" class="st4" width="7" height="22"/>
	<rect id="XMLID_378_" x="9846.3" y="818.3" class="st4" width="7" height="22"/>
	<rect id="XMLID_377_" x="9846.3" y="784.3" class="st4" width="7" height="22"/>
	<rect id="XMLID_376_" x="9846.3" y="749.3" class="st4" width="7" height="22"/>
	<rect id="XMLID_375_" x="9846.3" y="920.3" class="st4" width="7" height="22"/>
	<rect id="XMLID_374_" x="9846.3" y="886.3" class="st4" width="7" height="22"/>
	<rect id="XMLID_373_" x="9846.3" y="851.3" class="st4" width="7" height="22"/>
	<rect id="XMLID_372_" x="9846.3" y="1023.3" class="st4" width="7" height="22"/>
	<rect id="XMLID_371_" x="9846.3" y="989.3" class="st4" width="7" height="22"/>
	<rect id="XMLID_370_" x="9846.3" y="954.3" class="st4" width="7" height="22"/>
	<rect id="XMLID_369_" x="9884.3" y="716.3" class="st4" width="7" height="22"/>
	<rect id="XMLID_368_" x="9884.3" y="682.3" class="st4" width="7" height="22"/>
	<rect id="XMLID_367_" x="9884.3" y="818.3" class="st4" width="7" height="22"/>
	<rect id="XMLID_366_" x="9884.3" y="784.3" class="st4" width="7" height="22"/>
	<rect id="XMLID_365_" x="9884.3" y="749.3" class="st4" width="7" height="22"/>
	<rect id="XMLID_364_" x="9884.3" y="920.3" class="st4" width="7" height="22"/>
	<rect id="XMLID_363_" x="9884.3" y="886.3" class="st4" width="7" height="22"/>
	<rect id="XMLID_362_" x="9884.3" y="851.3" class="st4" width="7" height="22"/>
	<rect id="XMLID_360_" x="9884.3" y="989.3" class="st4" width="7" height="22"/>
	<rect id="XMLID_359_" x="9884.3" y="954.3" class="st4" width="7" height="22"/>
	<rect id="XMLID_358_" x="9925.3" y="716.3" class="st4" width="7" height="22"/>
	<rect id="XMLID_357_" x="9925.3" y="682.3" class="st4" width="7" height="22"/>
	<rect id="XMLID_356_" x="9925.3" y="818.3" class="st4" width="7" height="22"/>
	<rect id="XMLID_355_" x="9925.3" y="784.3" class="st4" width="7" height="22"/>
	<rect id="XMLID_354_" x="9925.3" y="749.3" class="st4" width="7" height="22"/>
	<rect id="XMLID_353_" x="9925.3" y="920.3" class="st4" width="7" height="22"/>
	<rect id="XMLID_352_" x="9925.3" y="886.3" class="st4" width="7" height="22"/>
	<rect id="XMLID_351_" x="9925.3" y="851.3" class="st4" width="7" height="22"/>
	<rect id="XMLID_348_" x="9925.3" y="954.3" class="st4" width="7" height="22"/>
	<rect id="XMLID_347_" x="9959.3" y="721.3" class="st4" width="7" height="22"/>
	<rect id="XMLID_346_" x="9959.3" y="687.3" class="st4" width="7" height="22"/>
	<rect id="XMLID_345_" x="9959.3" y="823.3" class="st4" width="7" height="22"/>
	<rect id="XMLID_344_" x="9959.3" y="789.3" class="st4" width="7" height="22"/>
	<rect id="XMLID_343_" x="9959.3" y="754.3" class="st4" width="7" height="22"/>
	<rect id="XMLID_342_" x="9959.3" y="925.3" class="st4" width="7" height="22"/>
	<rect id="XMLID_341_" x="9959.3" y="891.3" class="st4" width="7" height="22"/>
	<rect id="XMLID_340_" x="9959.3" y="856.3" class="st4" width="7" height="22"/>
</g>
<g>
	<path class="st1" d="M13146,1733.2c0,0-74,4.3-74,22.5c0,18.2,100.3,1.5,235.3,46.9s143.4-100.5,286.7-69.4s88.4-50.1,6-46.5
		C13517.6,1690.2,13146,1733.2,13146,1733.2z"/>
	<path class="st25" d="M13341,1748.9c0,0-74,21.7-130,0c-56-21.7-72.2-18-72.2-18s-110.1-93.9,0-155.2s227.4-41.5,227.4-41.5
		s252.7,28.2,267.1,110.7C13647.9,1727.2,13393.4,1759.7,13341,1748.9z"/>
	<path class="st26" d="M13339.5,1531.5c0,0-128.4-6.5-119.4,27.8c9,34.3,204,23.5,213,0
		C13442.1,1535.9,13339.5,1531.5,13339.5,1531.5z"/>
	<path class="st25" d="M13504.1,1562.9c0,0,89.6-16.2,77-84.7c-12.6-68.6-227.4-63.5-227.4-63.5s-185.9-10.5-185.9,54.4
		s147.7,61.9,147.7,61.9S13488.3,1554,13504.1,1562.9z"/>
	<path class="st25" d="M13528.7,1351.8c0,0-1.8,64.9-175.1,65.2c-173.3,0.3-153.4-57.9-153.4-57.9s18.4-54.6,161.7-54.6
		C13536,1304.5,13528.7,1351.8,13528.7,1351.8z"/>
	<path class="st25" d="M13230.6,1329.6c0,0-60.7-29,6.1-85.5c68.1-57.5,255.6-7,259.5,10.3c3.6,16.1,14.3,43.7-53.1,53.1
		S13337.1,1286.1,13230.6,1329.6z"/>
	<path class="st25" d="M13352,1122.8c0,0-108.7-23.3-125.5,29.9c-16.8,53.2,63.5,68,113.9,65.8s96.1,20.1,111.1-35
		S13352,1122.8,13352,1122.8z"/>
	<path class="st25" d="M13277.8,1119.2c0,0-48.6-44.9,10.2-58.9c58.8-14,172.7-4.7,180.1,44.8c0,0,4.4,25.7-42.1,34.8
		C13379.5,1148.9,13358.1,1112.5,13277.8,1119.2z"/>
	<path class="st26" d="M13204.5,1435.1c0,0,129.4,18.5,157.5,13.1s111.3,0.1,145.7-15.8
		C13507.7,1432.4,13251.9,1399.6,13204.5,1435.1z"/>
	<path class="st1" d="M13259,1237.5c0,0,65.4-4.1,67.7-19.1l53,0.3c0,0-5.5,16.5,73.1,16.5
		C13452.7,1235.1,13320,1278.2,13259,1237.5z"/>
	<path class="st26" d="M13433.6,1154.6c0,0-74.2,2.8-107-13.2c-32.8-16-58-16-58-16s8.9-14.6,64.2-6.5
		C13388.2,1126.9,13424.6,1135,13433.6,1154.6z"/>
	<path class="st26" d="M13090.1,1638.5c0,0,152.2-61.6,217.4-50.2c65.2,11.4,192.2,72.1,228.8,66.3c36.6-5.7,87.9,22.9,97.7-17.2
		c0,0,38.4,72.1-193.8,107.5c0,0-104.1,12.6-106.4,2.3c0,0-85.9,16.9-133.8-5.7c-41.2-19.4-61.2-10.7-61.2-10.7
		S13080.9,1678.4,13090.1,1638.5z"/>
	<path class="st26" d="M13396.9,1475.6c-20.7-10.6-222-39.3-226,3c-4,42.2,226.8,53.7,226.8,53.7l105.6,28.6
		c0,0,94.5-19.3,75.5-88.5C13578.7,1472.3,13456.9,1506.3,13396.9,1475.6z"/>
	<path class="st26" d="M13200.2,1359.6c0,0,273.5,44.3,325.3-15c0,0,18,69.4-163.6,72.5S13200.2,1359.6,13200.2,1359.6z"/>
	<path class="st1" d="M13230.6,1329.6c0,0-81.6-61.9,107.8-74.6c0,0,69.6-21,104.5,19c34.9,40,54.2-14.1,54.2-14.1s8,49.4-58.9,48.2
		C13371.4,1307,13287.3,1291.2,13230.6,1329.6z"/>
	<path class="st1" d="M13451.4,1185.8c-7.4,44.1-37.2,37.6-105.2,35.9c-97.9-2.4-123.6-37.8-122-54.7s62.5-16.9,62.5-16.9
		s38.1,1.3,51.8,7c13.7,5.7,43.2,39.3,68.9,28.9C13433,1175.7,13454,1170.5,13451.4,1185.8z"/>
	<path class="st26" d="M13313.1,1118c0,0-59.6-55.9,66.4-47.5c126,8.4,82.7,65.9,46.6,69.3
		C13390,1143.3,13386.9,1116.9,13313.1,1118z"/>
	<path class="st27" d="M13362,1062.8c0,0,2.1,32.9,66.8,28.5C13493.5,1086.9,13362,1062.8,13362,1062.8z"/>
	<path class="st27" d="M13356.1,1160.2c0,0,36.6-20.6,60.4,4.8S13356.1,1160.2,13356.1,1160.2z"/>
	<path class="st27" d="M13433.6,1255c0,0,44.1,22.6,52.3,0C13485.9,1255,13463,1237.7,13433.6,1255z"/>
	<path class="st27" d="M13219.6,1276.7c0,0,0.4-11.8,9.7-15.5C13238.7,1257.4,13231.5,1273.6,13219.6,1276.7z"/>
	<path class="st27" d="M13259,1342.2c-3,51.6,163.3,36.2,206.9,5.5S13262,1290.5,13259,1342.2z"/>
	<path class="st27" d="M13409.2,1468.2c0,0,64.9,25.7,135.9,0S13409.2,1468.2,13409.2,1468.2z"/>
	<path class="st27" d="M13399.9,1593.9c0,0,102.1,59.5,182.4,47.8c80.2-11.8-65-54.8-65-54.8S13406.3,1573.8,13399.9,1593.9z"/>
	<path class="st27" d="M13197.4,1558.5c0,0-84.3,24.2-85.5,71.4c0,0,78.6-45.9,100.6-40.7
		C13234.6,1594.4,13222.4,1549.1,13197.4,1558.5z"/>
	<path class="st27" d="M13233.6,1150.1c0,0,16.3-25.4,39.3-18.6C13295.9,1138.3,13233.6,1150.1,13233.6,1150.1z"/>
	<path class="st27" d="M13268.7,1077.2c0,0,7.6,13,17,0S13268.7,1077.2,13268.7,1077.2z"/>
	<path class="st27" d="M13177.2,1468.2c0,0,17.4-31.4,118.5-12c0,0,27.3-14.6,0-13.8C13268.4,1443.2,13186.3,1415.5,13177.2,1468.2z
		"/>
</g>
<path id="XMLID_14_" class="st10" d="M11225,662.8c0,0-580,129.6-576.7,366.2s106.6,287,243,297c136.4,10,315,0,315,0
	s-64-256.4,0-252s417.1-27.6,417.1-27.6s309.9,8.1,183.4-347.3C11806.8,699,11550.9,625.3,11225,662.8z"/>
<path id="XMLID_17_" class="st19" d="M11122.5,1037.7c0,0-128,168.5,2.8,296.3l491.9-8.4c0,0,97.9,59.9,174.1,71.4
	c98,14.8,42.2-310.7-104-365L11122.5,1037.7z"/>
<path id="XMLID_22_" class="st11" d="M11633.3,660c0,0,109.4,334-135,378"/>
<path id="XMLID_21_" class="st28" d="M11363.3,752.5h198c0,0,21.7,153.6,0,169.8s-189.2,69.4-198-35.4S11363.3,752.5,11363.3,752.5z
	"/>
<path id="XMLID_24_" class="st28" d="M11831.3,770.5h-72c0,0-18.1,152.1,36,151.8l36-8.4"/>
<path id="XMLID_23_" class="st11" d="M11228.3,1038c0,0-297.8-10.1-306,45"/>
<path id="XMLID_62_" class="st23" d="M11183.3,1335c0,0-97.7-145,9-297"/>
<path id="XMLID_64_" class="st23" d="M11624.3,1038c-37.8,155.6,82.8,336.2,108,342"/>
<path class="st1" d="M9377.8,1300c0,0,70.3-104.4,178.8-104.4s228.1,86.4,228.1,86.4s-150.2-20.8-203.4,7S9377.8,1300,9377.8,1300z"
	/>
<path class="st1" d="M9679.1,1224c0,0,54.5-68.4,105.6-46.4s72,46.4,72,46.4s-128.6-43.7-147.1,13.9L9679.1,1224z"/>
<ellipse class="st1" cx="10234" cy="1374.9" rx="205.7" ry="22.6"/>
<rect x="14085.3" y="-3706" class="st21" width="702.7" height="559.3"/>
<rect x="13225.6" y="-3706" class="st1" width="702.7" height="559.3"/>
<rect x="12374" y="-3706" class="st0" width="702.7" height="559.3"/>
<rect x="11535.8" y="-3706" class="st6" width="702.7" height="559.3"/>
<rect x="14937" y="-3706" class="st4" width="702.7" height="559.3"/>
<rect x="14937" y="-4376.3" class="st17" width="702.7" height="559.3"/>
<rect x="14085.3" y="-3057.8" class="st3" width="702.7" height="559.3"/>
<rect x="14937" y="-3057.8" class="st12" width="702.7" height="559.3"/>
<rect x="12374" y="-3057.8" class="st10" width="702.7" height="559.3"/>
<rect x="13225.6" y="-3057.8" class="st28" width="702.7" height="559.3"/>
<rect x="14085.3" y="-4376.3" class="st19" width="702.7" height="559.3"/>
<rect x="13225.6" y="-4376.3" class="st19" width="702.7" height="559.3"/>
<rect x="12374" y="-4376.3" class="st19" width="702.7" height="559.3"/>
<g id="XMLID_66_">
	<g>
		<path id="XMLID_869_" class="st0" d="M11643.2,1093.4c31.3,0,62.6,0,93.9,0c1.1,0,1.9,0.2,2.5,1.2c0.5,0.8,1.1,1.5,1.7,2.3
			c-0.4,0.1-0.6,0.1-0.9,0.1c-32.3,0-64.5,0-96.8,0c-0.2,0-0.3,0-0.5,0C11643.2,1095.8,11643.2,1094.6,11643.2,1093.4z"/>
		<path id="XMLID_868_" class="st0" d="M11676.1,1048.8c-2.3,0-4.6,0-7,0C11671.4,1048.8,11673.8,1048.8,11676.1,1048.8z"/>
		<path id="XMLID_867_" class="st0" d="M11996.6,1205.1c-0.7,0-1.2,0-1.6,0c-50.8,0-101.5,0-152.3,0c-1.1,0-1.9-0.3-2.4-1.3
			c-0.4-0.8-0.9-1.5-1.6-2.4c0.6,0,1,0,1.4,0c51,0,102,0,153,0c0.9,0,1.4,0.2,1.8,1C11995.4,1203.2,11996,1204,11996.6,1205.1z"/>
		<path id="XMLID_866_" class="st0" d="M11988.8,1193.1c-0.7,0-1.2,0-1.7,0c-50.7,0-101.3,0-152,0c-1.2,0-2-0.3-2.5-1.4
			c-0.3-0.7-0.8-1.4-1.3-2.2c0.5,0,0.8-0.1,1.2-0.1c51,0,102,0,153,0c0.8,0,1.2,0.2,1.6,0.9
			C11987.4,1191.2,11988.1,1192,11988.8,1193.1z"/>
		<path id="XMLID_865_" class="st0" d="M11847.1,1213.4c0.7,0,1.2,0,1.7,0c50.5,0,101,0,151.4,0c1.2,0,2,0.2,2.5,1.4
			c0.3,0.7,0.8,1.4,1.3,2.3c-0.7,0-1.2,0-1.7,0c-50.4,0-100.7,0-151.1,0c-1.2,0-1.9-0.3-2.5-1.3
			C11848.3,1215,11847.8,1214.3,11847.1,1213.4z"/>
		<path id="XMLID_864_" class="st0" d="M11980.5,1181.1c-0.8,0-1.3,0-1.8,0c-50.4,0-100.7,0-151.1,0c-1.2,0-2-0.3-2.5-1.5
			c-0.3-0.7-0.8-1.4-1.3-2.2c0.7,0,1.1,0,1.6,0c50.3,0,100.6,0,151,0c1.1,0,1.9,0.3,2.4,1.3
			C11979.3,1179.4,11979.9,1180.1,11980.5,1181.1z"/>
		<path id="XMLID_863_" class="st0" d="M11971.8,1169.1c-0.7,0-1.3,0-1.8,0c-49.8,0-99.7,0-149.5,0c-1.2,0-1.9-0.3-2.4-1.4
			c-0.3-0.7-0.7-1.4-1.2-2.3c0.7,0,1.1,0,1.6,0c49.7,0,99.4,0,149.1,0c1.1,0,1.8,0.3,2.4,1.2
			C11970.5,1167.4,11971.1,1168.1,11971.8,1169.1z"/>
		<path id="XMLID_862_" class="st0" d="M12011,1229.1c-0.7,0-1.2,0-1.7,0c-49.6,0-99.2,0-148.8,0c-1.2,0-2-0.3-2.6-1.3
			c-0.5-0.8-1.1-1.5-1.8-2.4c0.6,0,1,0,1.4,0c50.1,0,100.1,0,150.2,0c0.9,0,1.5,0.2,1.9,1.1
			C12010,1227.3,12010.5,1228.1,12011,1229.1z"/>
		<path id="XMLID_861_" class="st0" d="M11962.7,1157.1c-0.8,0-1.2,0-1.7,0c-49,0-98.1,0-147.1,0c-1.2,0-1.9-0.3-2.3-1.4
			c-0.3-0.7-0.7-1.4-1.2-2.3c0.6,0,1.1,0,1.6,0c48.8,0,97.6,0,146.4,0c1.1,0,1.8,0.3,2.4,1.2
			C11961.3,1155.4,11961.9,1156.1,11962.7,1157.1z"/>
		<path id="XMLID_860_" class="st0" d="M12017.5,1241.1c-0.7,0-1.2,0-1.7,0c-48.5,0-97,0-145.4,0c-1.1,0-1.9-0.2-2.5-1.2
			c-0.6-0.8-1.2-1.5-2-2.4c0.6,0,1-0.1,1.3-0.1c49.1,0,98.2,0,147.3,0c0.9,0,1.4,0.3,1.7,1.1
			C12016.5,1239.3,12017,1240.1,12017.5,1241.1z"/>
		<path id="XMLID_859_" class="st0" d="M11804.4,1141.4c0.7,0,1.2,0,1.7,0c47.4,0,94.7,0,142.1,0c1.3,0,2.1,0.3,2.8,1.3
			c0.5,0.7,1.2,1.4,1.9,2.2c-0.6,0-0.9,0.1-1.3,0.1c-48.1,0-96.2,0-144.2,0c-0.9,0-1.4-0.3-1.7-1.1
			C11805.3,1143.2,11804.9,1142.4,11804.4,1141.4z"/>
		<path id="XMLID_858_" class="st0" d="M12023.4,1253.1c-0.6,0-1.1,0-1.6,0c-47,0-94.1,0-141.1,0c-1.1,0-1.8-0.3-2.4-1.1
			c-0.6-0.8-1.4-1.5-2.2-2.5c0.5,0,0.9-0.1,1.2-0.1c47.8,0,95.5,0,143.3,0c0.8,0,1.3,0.2,1.6,1
			C12022.5,1251.3,12023,1252.1,12023.4,1253.1z"/>
		<path id="XMLID_857_" class="st0" d="M11942.4,1133.1c-0.8,0-1.2,0-1.7,0c-46.2,0-92.4,0-138.7,0c-1.3,0-1.9-0.4-2.2-1.5
			c-0.2-0.7-0.6-1.3-0.9-2.2c0.6,0,1.1,0,1.6,0c45.7,0,91.4,0,137.1,0c1,0,1.8,0.2,2.5,1.1
			C11940.8,1131.3,11941.5,1132,11942.4,1133.1z"/>
		<path id="XMLID_856_" class="st0" d="M11887.1,1261.4c0.8,0,1.3,0,1.7,0c45.6,0,91.2,0,136.7,0c1.2,0,1.9,0.3,2.2,1.5
			c0.2,0.7,0.5,1.3,0.9,2.2c-0.6,0-1.1,0-1.6,0c-44.9,0-89.8,0-134.7,0c-1.2,0-2.1-0.2-2.9-1.2
			C11888.8,1263.1,11888,1262.4,11887.1,1261.4z"/>
		<path id="XMLID_855_" class="st0" d="M11666.9,1213.4c0.7,0,1.2,0,1.7,0c43.8,0,87.6,0,131.4,0c1.3,0,2,0.3,2.2,1.6
			c0.1,0.7,0.4,1.3,0.7,2.1c-0.7,0-1.2,0-1.7,0c-43.8,0-87.7,0-131.5,0c-1.2,0-1.8-0.3-2.1-1.5
			C11667.5,1214.9,11667.2,1214.3,11666.9,1213.4z"/>
		<path id="XMLID_854_" class="st0" d="M11794.1,1117.4c0.7,0,1.2,0,1.8,0c43.4,0,86.8,0,130.2,0c1.2,0,2,0.3,2.8,1.2
			c0.7,0.8,1.6,1.3,2.4,2c-0.1,0.1-0.2,0.3-0.3,0.4c-0.4,0-0.7,0.1-1.1,0.1c-44.3,0-88.7,0-133,0c-1,0-1.5-0.2-1.7-1.2
			C11794.8,1119.1,11794.5,1118.3,11794.1,1117.4z"/>
		<path id="XMLID_853_" class="st0" d="M11663,1201.4c0.6,0,1.1,0,1.5,0c43.8,0,87.6,0,131.4,0c1.2,0,1.7,0.3,2,1.4
			c0.2,0.7,0.5,1.3,0.8,2.2c-0.5,0-0.9,0.1-1.2,0.1c-44,0-88.1,0-132.1,0c-0.9,0-1.4-0.2-1.6-1.1
			C11663.5,1203.1,11663.2,1202.4,11663,1201.4z"/>
		<path id="XMLID_852_" class="st0" d="M11671.3,1225.4c0.7,0,1.2,0,1.7,0c43.7,0,87.3,0,131,0c1.5,0,2.2,0.4,2.4,1.8
			c0.1,0.6,0.3,1.1,0.6,1.9c-0.6,0-1.1,0-1.5,0c-43.8,0-87.6,0-131.4,0c-1.1,0-1.6-0.3-1.9-1.3
			C11672,1227,11671.6,1226.3,11671.3,1225.4z"/>
		<path id="XMLID_851_" class="st0" d="M11659.5,1189.4c0.6,0,1.1,0,1.5,0c43.4,0,86.8,0,130.2,0c1.1,0,1.8,0.3,2,1.4
			c0.2,0.7,0.5,1.4,0.8,2.3c-0.6,0-1.1,0-1.6,0c-43.5,0-87,0-130.5,0c-1.2,0-1.8-0.3-1.9-1.5
			C11659.9,1190.9,11659.7,1190.2,11659.5,1189.4z"/>
		<path id="XMLID_850_" class="st0" d="M11810.7,1241.1c-0.6,0-1.1,0-1.6,0c-43.4,0-86.7,0-130.1,0c-1.1,0-1.7-0.2-2-1.3
			c-0.2-0.8-0.6-1.5-0.9-2.4c0.6,0,1.1,0,1.5,0c43.5,0,86.9,0,130.4,0c1.2,0,1.8,0.3,2,1.5
			C11810.2,1239.6,11810.5,1240.3,11810.7,1241.1z"/>
		<path id="XMLID_849_" class="st0" d="M12033.1,1277.1c-0.7,0-1.3,0-1.8,0c-42.2,0-84.5,0-126.7,0c-1.3,0-2.4-0.2-3.2-1.3
			c-0.6-0.8-1.5-1.4-2.4-2.4c0.7,0,1.1,0,1.5,0c43.4,0,86.7,0,130.1,0c1.1,0,1.6,0.3,1.8,1.3
			C12032.5,1275.5,12032.8,1276.2,12033.1,1277.1z"/>
		<path id="XMLID_848_" class="st0" d="M11657.2,1181c-0.3-1.2-0.6-2.3-0.9-3.6c0.5,0,1,0,1.4,0c42.8,0,85.7,0,128.5,0
			c1.1,0,1.7,0.3,2,1.3c0.2,0.8,0.6,1.5,1,2.3C11745.1,1181,11701.2,1181,11657.2,1181z"/>
		<path id="XMLID_847_" class="st0" d="M11814.2,1253.1c-0.6,0-1.1,0-1.6,0c-42.8,0-85.5,0-128.3,0c-1.1,0-1.7-0.3-2-1.3
			c-0.3-0.7-0.6-1.4-1-2.3c0.6,0,1.1,0,1.5,0c43,0,85.9,0,128.9,0c1.2,0,1.8,0.3,1.9,1.5
			C11813.7,1251.6,11813.9,1252.2,11814.2,1253.1z"/>
		<path id="XMLID_846_" class="st0" d="M11654.1,1169c-0.3-1.2-0.6-2.3-0.9-3.6c0.6,0,1.1,0,1.6,0c41.9,0,83.8,0,125.7,0
			c1.1,0,1.8,0.2,2.1,1.3c0.2,0.7,0.6,1.4,1,2.3C11740.4,1169,11697.3,1169,11654.1,1169z"/>
		<path id="XMLID_845_" class="st0" d="M11816.5,1261.5c0.3,1.2,0.6,2.3,0.9,3.6c-0.6,0-1.1,0-1.6,0c-41.8,0-83.6,0-125.5,0
			c-1.2,0-1.9-0.3-2.3-1.5c-0.2-0.7-0.6-1.4-1-2.1C11730.2,1261.5,11773.2,1261.5,11816.5,1261.5z"/>
		<path id="XMLID_844_" class="st0" d="M11919.2,1109.1c-0.9,0-1.3,0-1.8,0c-41.5,0-82.9,0-124.4,0c-1.4,0-2.1-0.3-2.2-1.7
			c-0.1-0.6-0.3-1.2-0.5-2c0.6,0,1.1,0,1.5,0c40.7,0,81.4,0,122.1,0c1.1,0,2,0.3,2.7,1.1
			C11917.3,1107.3,11918.1,1108.1,11919.2,1109.1z"/>
		<path id="XMLID_843_" class="st0" d="M11777.9,1157c-42.3,0-84.4,0-126.6,0c-0.3-1.2-0.5-2.3-0.8-3.6c0.6,0,1.1,0,1.6,0
			c40.8,0,81.7,0,122.5,0c1.1,0,1.8,0.2,2.2,1.3C11777,1155.5,11777.5,1156.1,11777.9,1157z"/>
		<path id="XMLID_842_" class="st0" d="M11819.4,1273.5c0.3,1.1,0.5,2.3,0.8,3.6c-0.6,0-1.1,0-1.5,0c-40.9,0-81.7,0-122.6,0
			c-1,0-1.6-0.2-1.9-1.2c-0.3-0.8-0.8-1.6-1.2-2.4C11735.1,1273.5,11777.2,1273.5,11819.4,1273.5z"/>
		<path id="XMLID_841_" class="st0" d="M11771.7,1145c-41,0-81.9,0-122.8,0c-0.2-1.1-0.4-2.3-0.7-3.6c0.6,0,1.1,0,1.6,0
			c39.6,0,79.1,0,118.7,0c1.1,0,1.7,0.3,2.1,1.3C11770.8,1143.4,11771.2,1144.1,11771.7,1145z"/>
		<path id="XMLID_840_" class="st0" d="M12036.5,1289.1c-0.6,0-1.1,0-1.6,0c-39.2,0-78.5,0-117.7,0c-0.9,0-1.7-0.2-2.4-0.9
			c-0.9-0.9-1.9-1.7-3-2.7c0.5,0,0.9-0.1,1.2-0.1c40.5,0,80.9,0,121.4,0c0.9,0,1.3,0.2,1.4,1.1
			C12036,1287.3,12036.3,1288.1,12036.5,1289.1z"/>
		<path id="XMLID_839_" class="st0" d="M11699.4,1285.4c41,0,81.7,0,122.6,0c0.2,1.1,0.5,2.3,0.8,3.6c-0.5,0-0.9,0-1.4,0
			c-39.6,0-79.2,0-118.8,0c-0.9,0-1.5-0.2-1.9-1.1C11700.4,1287.2,11699.9,1286.4,11699.4,1285.4z"/>
		<path id="XMLID_838_" class="st0" d="M11646.7,1133c-0.2-1.2-0.4-2.3-0.6-3.6c0.5,0,1,0,1.4,0c38,0,76.1,0,114.1,0
			c1,0,1.6,0.3,2,1.2c0.4,0.8,0.8,1.5,1.3,2.4C11725.5,1133,11686.1,1133,11646.7,1133z"/>
		<path id="XMLID_837_" class="st0" d="M11824.2,1297.5c0.2,1.1,0.4,2.3,0.6,3.6c-0.5,0-0.9,0-1.4,0c-37.9,0-75.8,0-113.7,0
			c-0.9,0-1.5-0.2-1.9-1.1c-0.4-0.8-0.9-1.6-1.5-2.6C11745.7,1297.5,11784.9,1297.5,11824.2,1297.5z"/>
		<path id="XMLID_836_" class="st0" d="M11906.1,1097.1c-0.8,0-1.2,0-1.7,0c-38.3,0-76.5,0-114.8,0c-1.4,0-1.9-0.4-1.9-1.7
			c0-0.6-0.2-1.3-0.3-2c0.6,0,1.1,0,1.6,0c37.1,0,74.3,0,111.4,0c1,0,1.8,0.2,2.6,1C11903.9,1095.2,11904.9,1096,11906.1,1097.1z"/>
		<path id="XMLID_835_" class="st0" d="M11644.9,1121c-0.1-1.2-0.3-2.3-0.4-3.6c0.6,0,1,0,1.5,0c36,0,72.1,0,108.1,0
			c1.1,0,1.8,0.3,2.3,1.3c0.4,0.8,0.9,1.5,1.4,2.3C11720.1,1121,11682.6,1121,11644.9,1121z"/>
		<path id="XMLID_834_" class="st0" d="M11826,1309.5c0.1,1.1,0.3,2.2,0.4,3.5c-0.6,0-1.1,0-1.6,0c-35.7,0-71.4,0-107.1,0
			c-1.1,0-1.8-0.3-2.3-1.2c-0.4-0.8-0.9-1.5-1.5-2.3C11751.3,1309.5,11788.6,1309.5,11826,1309.5z"/>
		<path id="XMLID_833_" class="st0" d="M12038.1,1297.5c0.1,1.1,0.2,2.2,0.4,3.5c-0.6,0-1.1,0-1.6,0c-34.9,0-69.8,0-104.8,0
			c-1.1,0-1.9-0.2-2.7-0.9c-1-0.9-2.1-1.6-3.3-2.6C11963.5,1297.5,12000.8,1297.5,12038.1,1297.5z"/>
		<path id="XMLID_832_" class="st0" d="M11643.7,1109c-0.1-1.2-0.2-2.3-0.3-3.6c0.5,0,1,0,1.5,0c33.8,0,67.6,0,101.4,0
			c1,0,1.5,0.3,2,1.1s1.1,1.6,1.7,2.5C11714.5,1109,11679.2,1109,11643.7,1109z"/>
		<path id="XMLID_831_" class="st0" d="M11827.2,1321.5c0.1,1.1,0.1,2.3,0.2,3.6c-0.6,0-1.1,0-1.7,0c-33.2,0-66.4,0-99.6,0
			c-1,0-1.7-0.2-2.3-1.1c-0.5-0.8-1.1-1.6-1.7-2.5C11757.2,1321.5,11792.1,1321.5,11827.2,1321.5z"/>
		<path id="XMLID_830_" class="st0" d="M11891.2,1085.1c-0.5,0-0.9,0-1.4,0c-33.9,0-67.9,0-101.8,0c-1.6,0-1.6,0-1.7-1.7
			c0-0.6,0-1.2,0-1.9c0.5,0,1,0,1.4,0c32.7,0,65.3,0,98,0c0.7,0,1.5,0.3,2.1,0.7c1.2,0.8,2.3,1.7,3.4,2.6
			C11891.3,1084.9,11891.2,1085,11891.2,1085.1z"/>
		<path id="XMLID_829_" class="st0" d="M11827.4,1337.1c-0.6,0-1.1,0-1.7,0c-30,0-60.1,0-90.1,0c-1.2,0-2-0.3-2.6-1.2
			c-0.5-0.8-1.2-1.5-1.9-2.4c32.2,0,64.2,0,96.3,0C11827.4,1334.7,11827.4,1335.8,11827.4,1337.1z"/>
		<path id="XMLID_828_" class="st0" d="M11941.9,1309.5c32.4,0,64.4,0,96.6,0c-0.1,1.2-0.3,2.3-0.4,3.6c-0.5,0-0.9,0-1.4,0
			c-29.5,0-58.9,0-88.4,0c-0.7,0-1.5-0.3-2.1-0.6C11944.9,1311.5,11943.6,1310.6,11941.9,1309.5z"/>
		<path id="XMLID_827_" class="st0" d="M11643.6,1085c0.1-1.2,0.2-2.3,0.3-3.6c0.5,0,1,0,1.4,0c27.3,0,54.6,0,82,0
			c0.9,0,1.5,0.2,2,0.9c0.7,0.9,1.4,1.7,2.3,2.7C11702.2,1085,11673,1085,11643.6,1085z"/>
		<path id="XMLID_826_" class="st0" d="M11874.6,1073c-29.1,0-58.2,0-87.5,0c0.3-1.2,0.6-2.4,0.9-3.6c0.6,0,1,0,1.5,0
			c26.1,0,52.3,0,78.4,0c1,0,1.9,0.2,2.7,0.8c1.3,0.9,2.7,1.7,4,2.6C11874.6,1072.8,11874.6,1072.9,11874.6,1073z"/>
		<path id="XMLID_825_" class="st0" d="M11741.4,1345.5c28.6,0,56.9,0,85.4,0c-0.1,1.2-0.3,2.4-0.4,3.6c-0.6,0-1.1,0-1.5,0
			c-26.2,0-52.4,0-78.6,0c-1,0-1.7-0.2-2.4-1C11743.2,1347.2,11742.4,1346.5,11741.4,1345.5z"/>
		<path id="XMLID_824_" class="st0" d="M11645.5,1073c0.3-1.1,0.6-2.1,0.9-3.1c0.1-0.2,0.4-0.3,0.6-0.4c0.3-0.1,0.6,0,1,0
			c22.3,0,44.7,0,67,0c1.1,0,1.9,0.3,2.6,1c0.8,0.8,1.7,1.6,2.7,2.5C11695.3,1073,11670.5,1073,11645.5,1073z"/>
		<path id="XMLID_823_" class="st0" d="M12035.3,1321.5c-0.1,0.2-0.1,0.3-0.1,0.4c-1.7,3.2-1.7,3.2-5.2,3.2c-20.1,0-40.2,0-60.3,0
			c-1,0-2-0.3-2.8-0.7c-1.8-0.8-3.5-1.8-5.2-2.9C11986.1,1321.5,12010.6,1321.5,12035.3,1321.5z"/>
		<path id="XMLID_822_" class="st0" d="M11753.7,1357.5c23.8,0,47.2,0,70.8,0c-0.4,1.1-0.7,2.1-1.1,3.1c-0.1,0.2-0.4,0.4-0.7,0.5
			s-0.6,0-1,0c-20.7,0-41.4,0-62.1,0c-1.2,0-2.1-0.3-3-1.1C11755.8,1359.2,11754.8,1358.4,11753.7,1357.5z"/>
		<path id="XMLID_821_" class="st0" d="M11792.8,1060.7c1.2-1,2.3-2,3.5-3c0.3-0.2,0.7-0.3,1.1-0.3c15.9,0,31.7,0,47.6,0
			c0.4,0,0.8,0,1.2,0.2c2.5,1,4.9,2.1,7.3,3.3c-20.2,0-40.4,0-60.6,0C11792.9,1060.9,11792.9,1060.8,11792.8,1060.7z"/>
		<path id="XMLID_820_" class="st0" d="M11650.1,1061c0.8-1.2,1.5-2.2,2.3-3.2c0.2-0.2,0.7-0.4,1-0.4c15.4,0,30.8,0,46.2,0
			c0.3,0,0.7,0,1,0.2c1.7,1,3.3,2.1,5.3,3.3C11687.2,1061,11668.8,1061,11650.1,1061z"/>
		<path id="XMLID_819_" class="st0" d="M11770.3,1369.5c16,0,31.9,0,47.9,0c-0.8,2.1-3,3.6-5.2,3.6c-11.6,0-23.1,0-34.7,0
			c-1.1,0-2.2-0.3-3.2-0.8c-1.7-0.8-3.3-1.7-4.9-2.6C11770.2,1369.6,11770.2,1369.5,11770.3,1369.5z"/>
		<path id="XMLID_818_" class="st0" d="M11991.3,1333.5c9.5,0,18.9,0,28.4,0C12010.2,1336.4,12000.8,1335.8,11991.3,1333.5z"/>
	</g>
</g>
<rect x="11535.8" y="-4376.3" class="st2" width="702.7" height="559.3"/>
<rect x="11535.8" y="-3057.8" class="st2" width="702.7" height="559.3"/>
</svg>
