<?xml version="1.0" encoding="utf-8"?>
<!-- Generator: Adobe Illustrator 19.0.0, SVG Export Plug-In . SVG Version: 6.00 Build 0)  -->
<svg version="1.1" xmlns="http://www.w3.org/2000/svg" xmlns:xlink="http://www.w3.org/1999/xlink" x="0px" y="0px"
	 viewBox="0 0 10125 4644" style="enable-background:new 0 0 10125 4644;" xml:space="preserve">
<style type="text/css">
	.st0{fill:#A4DCD7;}
	.st1{fill:#62BD41;}
	.st2{fill:#333333;}
	.st3{fill:#FFFF80;}
	.st4{fill:#F9819B;}
	.st5{fill:#FEDE64;}
	.st6{fill:#5FBD44;}
	.st7{fill:#E1F1EE;stroke:#333333;stroke-width:5;stroke-miterlimit:10;}
	.st8{fill:none;stroke:#333333;stroke-width:5;stroke-miterlimit:10;}
	.st9{fill:#F6D6D9;}
	.st10{fill:#E1F1EE;stroke:#333333;stroke-width:6.001;stroke-miterlimit:10;}
	.st11{fill:none;stroke:#333333;stroke-width:6;stroke-miterlimit:10;}
	.st12{fill:#128662;}
	.st13{fill:none;stroke:#333333;stroke-width:10;stroke-miterlimit:10;}
	.st14{fill:#E1F1EE;stroke:#333333;stroke-width:5.2558;stroke-miterlimit:10;}
	.st15{fill:#E1F1EE;stroke:#333333;stroke-width:5.3582;stroke-miterlimit:10;}
	.st16{fill:#A8FFCD;stroke:#333333;stroke-width:6;stroke-miterlimit:10;}
	.st17{fill:#73C47D;}
	.st18{fill:#A8FFCD;}
	.st19{fill:#F6D6D9;stroke:#333333;stroke-width:5;stroke-miterlimit:10;}
	.st20{fill:#00D1B2;}
	.st21{fill:#D8E4E4;}
	.st22{fill:#C5C5BF;stroke:#333333;stroke-width:5;stroke-miterlimit:10;}
	.st23{fill:none;stroke:#333333;stroke-width:15;stroke-miterlimit:10;}
	.st24{fill:none;stroke:#333333;stroke-width:5.3582;stroke-miterlimit:10;}
	.st25{fill:#128662;stroke:#333333;stroke-width:5;stroke-miterlimit:10;}
	.st26{fill:none;stroke:#FFFFFF;stroke-width:6;stroke-miterlimit:10;}
	.st27{fill:#008D7F;}
</style>
<g id="Warstwa_2">
	<path id="XMLID_81_" class="st0" d="M1954,3177c614.8,0,2448,0,2448,0s-245-351.8-666-351.8s-504,215.9-504,215.9
		s-108.5-549.1-567-549.1s-621,468-621,468s-179.4-207.6-387,0c0,0-264.9-72.8-459,126.2C1115.7,3170.6,1763.7,3177,1954,3177z"/>
	<circle id="XMLID_77_" class="st1" cx="3311" cy="1656" r="216"/>
	<path id="XMLID_245_" class="st2" d="M314,3176c0,0,9811-7.1,9811,19.9c0,0,0,628.7,0,628.7c-900.7,571.2-4351,478.2-5781,269.4
		C2746.4,3860.7,3413.1,3176,314,3176z"/>
	<g id="XMLID_34_">
		<path id="XMLID_553_" class="st3" d="M2199.5,2544.1c0-39.4,31.4-70.7,71-70.6c39.8,0,71.1,31.5,71,71.6
			c-0.1,39.2-32,71.1-71.1,71C2230.9,2616,2199.5,2584.2,2199.5,2544.1z"/>
		<path id="XMLID_552_" class="st3" d="M2199.5,2071.5c0.1-39.3,32.1-71.2,71.3-70.9c39.8,0.3,70.8,32.1,70.7,72.4
			c-0.1,38.8-31.7,70.1-70.9,70.2C2230.7,2143.3,2199.5,2111.8,2199.5,2071.5z"/>
		<path id="XMLID_551_" class="st3" d="M3286.4,2544.6c0,39.6-31,71-70.5,71.4c-39.2,0.4-71.5-31.9-71.5-71.5
			c0-39.8,31.7-71.3,71.6-71.1C3255.5,2473.6,3286.4,2504.9,3286.4,2544.6z"/>
		<path id="XMLID_550_" class="st3" d="M1325.4,2473.5c39.5,0,71.3,31.4,71.4,70.7c0.1,39.8-32.1,72.2-71.4,71.9
			c-39.5-0.3-70.6-31.8-70.6-71.5C1254.7,2504.7,1285.7,2473.5,1325.4,2473.5z"/>
		<path id="XMLID_549_" class="st3" d="M3286.4,2072.6c-0.1,39.6-31.6,70.9-71.2,70.7c-39.5-0.2-70.9-31.7-70.9-71.2
			c0-39.4,31.6-71.2,70.9-71.4C3254.9,2000.4,3286.5,2032.4,3286.4,2072.6z"/>
		<path id="XMLID_547_" class="st3" d="M3759.3,2072.1c0,39.6-31.3,71.1-70.9,71.1c-39.6,0.1-71.1-31.2-71.1-70.8
			c-0.1-40,31.8-72.1,71.3-71.8C3727.9,2000.9,3759.2,2032.6,3759.3,2072.1z"/>
		<path id="XMLID_545_" class="st3" d="M3050.2,2073.2c-0.7,39.5-32.6,70.7-71.9,70.1c-39.8-0.6-71.2-33-70.4-72.7
			c0.8-38.7,33.1-70.3,71.6-69.9C3019.1,2001,3050.9,2033.6,3050.2,2073.2z"/>
		<path id="XMLID_544_" class="st3" d="M2578,2073c-0.6,39.5-32.5,70.7-71.8,70.2c-39.8-0.5-71.2-32.9-70.5-72.5
			c0.7-38.7,33-70.3,71.5-70.1C2546.7,2000.9,2578.6,2033.5,2578,2073z"/>
		<path id="XMLID_543_" class="st3" d="M2388.9,2119.3c39.5,0,70.8,31.3,70.8,70.9c0,39.7-31.1,71.1-70.6,71.1
			c-39.9,0.1-71.7-31.7-71.4-71.4C2317.9,2150.5,2349.4,2119.3,2388.9,2119.3z"/>
		<path id="XMLID_542_" class="st3" d="M2860.9,2261.3c-39.4,0-70.9-31.6-71-70.9c-0.1-39.7,31.7-71.2,71.7-71.1
			c39.4,0.1,70.4,31.6,70.3,71.4C2931.8,2230.2,2900.5,2261.4,2860.9,2261.3z"/>
		<path id="XMLID_541_" class="st3" d="M2578,2545c-0.2,39.2-32.3,71.3-71.2,71.1c-39.1-0.2-71.1-32.3-71.1-71.3
			c0-39.7,32-71.5,71.8-71.2C2546.9,2473.8,2578.2,2505.4,2578,2545z"/>
		<path id="XMLID_540_" class="st3" d="M3050.3,2544.6c0,39.2-31.7,71.2-70.9,71.4c-38.8,0.2-71.2-32-71.4-71
			c-0.2-39.7,31.7-71.7,71.5-71.6C3018.8,2473.6,3050.2,2505.1,3050.3,2544.6z"/>
		<path id="XMLID_538_" class="st3" d="M1963.1,2072.2c-0.1-39.2,31.5-71.2,70.8-71.5c38.8-0.3,71.2,31.9,71.5,70.9
			c0.3,39.5-31.8,71.8-71.4,71.7C1994.5,2143.1,1963.2,2111.8,1963.1,2072.2z"/>
		<path id="XMLID_537_" class="st3" d="M1490.9,2544.4c0.2-39.6,31.6-70.9,71.1-70.9c39.7,0,71.6,32.2,71.2,71.8
			c-0.4,39.1-33.1,71.3-71.7,70.8C1522.1,2615.5,1490.7,2583.6,1490.9,2544.4z"/>
		<path id="XMLID_536_" class="st3" d="M1963.1,2544.6c0.1-39.6,31.4-71,70.9-71.1c39.7-0.1,71.7,32,71.4,71.6
			c-0.3,39.1-32.8,71.3-71.5,71C1994.7,2615.7,1963,2583.8,1963.1,2544.6z"/>
		<path id="XMLID_535_" class="st3" d="M2199.5,2308.7c0-40,31.6-71.6,71.4-71.3c39.5,0.2,70.7,31.6,70.6,71.3
			c0,39.6-31.3,70.8-71,70.8C2230.9,2379.4,2199.6,2348.2,2199.5,2308.7z"/>
		<path id="XMLID_534_" class="st3" d="M3523.1,2544.8c-0.1,39.1-32.2,71.3-71.2,71.3c-38.9,0-71.2-32.2-71.4-71.2
			c-0.2-39.5,32-71.6,71.7-71.4C3491.6,2473.6,3523.2,2505.5,3523.1,2544.8z"/>
		<path id="XMLID_533_" class="st3" d="M3523.1,2073c-1.2,40.3-33.2,71.3-72.8,70.2c-39.3-1-71.1-34.1-69.7-72.6
			c1.4-39.5,34.3-71.2,72.5-70C3492.6,2001.9,3524.2,2034.6,3523.1,2073z"/>
		<path id="XMLID_532_" class="st3" d="M3853.4,2073.9c-1.9-38.2,29.1-71,69.1-73.3c38.1-2.1,71.8,30,73.4,70
			c1.6,37.8-29.8,70.9-68.8,72.6C3887.7,2144.9,3855.5,2114.6,3853.4,2073.9z"/>
		<path id="XMLID_531_" class="st3" d="M3286.4,2308.7c-0.1,39.7-31.1,70.7-70.9,70.7c-39.9,0-71.2-31.5-71.1-71.7
			c0.1-39.1,32.3-70.7,71.6-70.4C3255.6,2237.6,3286.5,2268.9,3286.4,2308.7z"/>
		<path id="XMLID_528_" class="st3" d="M2388.4,2497.4c-39.3-0.1-71-32.1-70.8-71.4c0.3-39.4,32-70.8,71.5-70.7
			c39.5,0.1,70.6,31.6,70.5,71.4C2459.5,2466.4,2428.1,2497.6,2388.4,2497.4z"/>
		<path id="XMLID_527_" class="st3" d="M2931.9,2426.4c0,39.7-31.3,71-70.9,71c-39.5,0-71.1-31.6-71.1-71c0-39.3,31.7-71,71.1-71
			C2900.6,2355.4,2931.9,2386.7,2931.9,2426.4z"/>
		<path id="XMLID_525_" class="st3" d="M1680.6,2119.3c39.2,0.1,71,32.2,70.7,71.3c-0.3,39.8-32,70.9-72.1,70.7
			c-38.6-0.2-70.2-32-70.4-70.9C1608.5,2151.1,1640.7,2119.2,1680.6,2119.3z"/>
		<path id="XMLID_524_" class="st3" d="M2151.8,2261.3c-39.1-0.1-71.2-32.4-70.9-71.3c0.3-39.7,32.3-71,72.3-70.8
			c38.7,0.2,70.1,31.8,70.2,70.8C2223.7,2229.7,2191.7,2261.4,2151.8,2261.3z"/>
		<path id="XMLID_523_" class="st3" d="M3262.7,2662.4c0.2-39.3,32-71,71.2-70.9c39.6,0.1,71,32.1,70.8,72.1
			c-0.2,39.1-32.2,70.5-71.7,70.2C3293.6,2733.5,3262.5,2702,3262.7,2662.4z"/>
		<path id="XMLID_522_" class="st3" d="M971.2,2970c-39.3,0-71.1-31.6-71.2-70.8c-0.1-39.2,31.5-71.3,70.6-71.6
			c39.6-0.3,71.4,31.5,71.4,71.4C1042,2938.5,1010.6,2970,971.2,2970z"/>
		<path id="XMLID_520_" class="st3" d="M2813.8,2544.5c0,39.5-31.1,71.2-70.4,71.6c-39.2,0.4-71.3-32-71.3-71.7
			c0-39.3,31.6-70.9,71-70.9C2782.4,2473.5,2813.8,2505,2813.8,2544.5z"/>
		<path id="XMLID_519_" class="st3" d="M1325.7,2710.2c39.7,0,71.1,31.2,71.1,70.6c0,39.2-31.5,70.9-70.8,71.4
			c-39.3,0.5-71.2-31.6-71.2-71.6C1254.7,2740.8,1285.6,2710.2,1325.7,2710.2z"/>
		<path id="XMLID_518_" class="st3" d="M3286.4,2781.3c-0.1,39.4-32,71.2-71.1,70.9c-39.8-0.3-71.1-32.1-71-72.1
			c0.1-39.2,31.7-70,71.7-69.9C3255.8,2710.3,3286.5,2741.3,3286.4,2781.3z"/>
		<path id="XMLID_516_" class="st3" d="M1727.3,2544.2c0-39.4,31.6-70.8,71-70.7c39.3,0.1,70.8,31.8,70.7,71.2
			c0,39.2-31.7,71.2-70.8,71.4C1758.9,2616.3,1727.3,2584.2,1727.3,2544.2z"/>
		<path id="XMLID_515_" class="st3" d="M3026.1,2898.5c0.3-39.2,32.3-70.9,71.4-70.8c39,0.1,71.1,32.3,71.1,71.2
			c0,39.4-32.4,71.5-72,71.1C3057.3,2969.6,3025.8,2937.7,3026.1,2898.5z"/>
		<path id="XMLID_514_" class="st3" d="M1679.7,2970c-39.2-0.2-71-32-71-71.2c-0.1-38.7,32.4-71.1,71.3-71.1
			c39.4,0,71.8,32.6,71.3,71.8C1750.7,2939,1719.1,2970.2,1679.7,2970z"/>
		<path id="XMLID_513_" class="st3" d="M2152,2970c-39.2-0.1-70.9-31.9-71.1-71.1c-0.1-38.7,32.3-71.1,71.2-71.2
			c39.4-0.1,71.8,32.5,71.3,71.7C2223,2938.9,2191.4,2970.1,2152,2970z"/>
		<path id="XMLID_512_" class="st3" d="M2388.4,2970c-39.4-0.3-70.9-32-70.8-71.2c0.2-39.6,32.6-71.7,71.9-71.1
			c39.8,0.6,70.5,32.4,70.1,72.7C2459.3,2939.2,2427.5,2970.3,2388.4,2970z"/>
		<path id="XMLID_511_" class="st3" d="M3050.3,2308.4c0,39.5-31.2,70.8-70.9,71c-39.3,0.2-71.3-31.3-71.4-70.5
			c-0.2-39.6,31.8-71.6,71.4-71.5C3018.7,2237.5,3050.3,2269.1,3050.3,2308.4z"/>
		<path id="XMLID_510_" class="st3" d="M2578,2308.3c0.1,39.5-31,70.8-70.7,71.1c-39.3,0.3-71.4-31.2-71.6-70.4
			c-0.2-39.7,31.7-71.7,71.3-71.6C2546.3,2237.4,2577.9,2268.9,2578,2308.3z"/>
		<path id="XMLID_509_" class="st3" d="M3498.9,2190.4c-0.1-39.4,31.5-71.1,70.8-71.1c39.9,0,71.7,31.7,71.5,71.4
			c-0.2,39.3-31.9,70.7-71.3,70.7C3530.5,2261.3,3499,2229.8,3498.9,2190.4z"/>
		<path id="XMLID_507_" class="st3" d="M2553.8,2898.7c0-39,32.1-71,71.2-71c39,0,71.1,32,71.3,71c0.2,39.4-32.2,71.6-71.8,71.3
			C2585.3,2969.7,2553.8,2938.1,2553.8,2898.7z"/>
		<path id="XMLID_506_" class="st3" d="M2860.9,2970c-39.4-0.2-71-31.7-71-71c0-39.5,32.4-71.8,71.7-71.3
			c39.4,0.4,70.4,32,70.3,71.6C2931.8,2938.8,2900.3,2970.1,2860.9,2970z"/>
		<path id="XMLID_504_" class="st3" d="M1278.4,2663.2c-0.2,39.4-31.8,70.7-71.2,70.7c-39.2-0.1-71.2-31.9-71.1-71
			c0.1-39.5,32.5-71.7,71.8-71.3C1247.1,2592,1278.6,2623.9,1278.4,2663.2z"/>
		<path id="XMLID_503_" class="st3" d="M2388.9,2733.9c-39.4,0.1-70.9-31.2-71.2-70.7c-0.3-39.4,32.1-71.8,71.4-71.6
			c39.3,0.2,70.6,31.8,70.6,71.3C2459.6,2702.5,2428.4,2733.8,2388.9,2733.9z"/>
		<path id="XMLID_502_" class="st3" d="M2553.9,2661.9c1.3-40.2,33.6-71.4,72.8-70.3c39.2,1.1,71,34.3,69.7,72.6
			c-1.4,40.4-34.2,71.1-74.3,69.6C2583.7,2732.4,2552.7,2699.7,2553.9,2661.9z"/>
		<path id="XMLID_501_" class="st3" d="M2861.4,2733.9c-39.4,0.2-71-30.9-71.5-70.5c-0.5-39.3,31.8-71.9,71.2-71.9
			c39.3,0,70.8,31.7,70.8,71.1C2931.9,2702.4,2900.9,2733.7,2861.4,2733.9z"/>
		<path id="XMLID_500_" class="st3" d="M3026.1,2661.9c1.2-40.2,33.6-71.4,72.8-70.3c39.2,1.1,71,34.3,69.7,72.6
			c-1.4,40.4-34.2,71.1-74.3,69.6C3056,2732.4,3024.9,2699.7,3026.1,2661.9z"/>
		<path id="XMLID_497_" class="st3" d="M1278.4,2898.8c0.1,39.4-31.3,70.9-70.7,71.2c-39.5,0.2-71.7-31.8-71.6-71.4
			c0.1-39,32.3-71,71.4-70.9C1246.7,2827.8,1278.3,2859.5,1278.4,2898.8z"/>
		<path id="XMLID_496_" class="st3" d="M2271.1,2710.2c39.6,0.1,70.6,31.3,70.5,71c-0.1,39.2-32.1,71.1-71.2,70.9
			c-39.8-0.2-70.9-31.9-70.9-72.1C2199.6,2740.7,2230.9,2710.1,2271.1,2710.2z"/>
		<path id="XMLID_495_" class="st3" d="M2553.8,2190.3c0-39.3,31.7-71,71-71c39.8,0,72,32.1,71.6,71.5
			c-0.4,39.4-32.1,70.6-71.5,70.6C2585.5,2261.3,2553.9,2229.6,2553.8,2190.3z"/>
		<path id="XMLID_494_" class="st3" d="M1963.1,2308.6c0-39.9,31.8-71.5,71.5-71.3c39.2,0.3,71,32.2,70.8,71.3
			c-0.2,39.3-31.9,70.8-71.2,70.8C1994.6,2379.3,1963.1,2348,1963.1,2308.6z"/>
		<path id="XMLID_493_" class="st3" d="M2813.8,2072.1c0,39.5-31.3,71-70.7,71.1c-39.3,0.1-71-31.6-71.1-70.8
			c0-39.8,32-72.1,71.2-71.8C2782.6,2001,2813.8,2032.7,2813.8,2072.1z"/>
		<path id="XMLID_492_" class="st3" d="M3026.2,2189.1c1.4-41.1,33.3-71,74.8-69.8c37.4,1.1,69.2,35.2,67.7,72.7
			c-1.7,40.9-34.1,70.7-75.4,69.4C3056,2260.1,3024.9,2226.6,3026.2,2189.1z"/>
		<path id="XMLID_491_" class="st3" d="M1490.9,2308.2c0.3-39.6,31.6-70.8,71.1-70.8c39.5,0,71.7,32.4,71.2,71.7
			c-0.5,39.3-32.4,70.7-71.7,70.3C1521.8,2379,1490.6,2347.6,1490.9,2308.2z"/>
		<path id="XMLID_490_" class="st3" d="M3759.3,2308.3c0,39.7-30.9,70.8-70.7,71.1c-40,0.2-71.4-31.1-71.3-71.3
			c0.1-39.4,31.6-70.8,71.1-70.7C3727.8,2237.4,3759.2,2268.9,3759.3,2308.3z"/>
		<path id="XMLID_489_" class="st3" d="M2152.2,2497.4c-39.2,0-71.1-31.8-71.2-70.9c-0.1-38.9,32-71,71.1-71.1
			c39.7-0.1,71.9,32,71.5,71.4C2223.1,2466.2,2191.6,2497.5,2152.2,2497.4z"/>
		<path id="XMLID_488_" class="st3" d="M1680.3,2733.9c-39.3,0.1-71.3-31.4-71.6-70.6c-0.4-39.1,32.3-71.9,71.5-71.7
			c39.1,0.1,71,32.1,71,71.2C1751.2,2702,1719.6,2733.8,1680.3,2733.9z"/>
		<path id="XMLID_487_" class="st3" d="M2152.7,2733.9c-39.3,0.2-71.2-31.2-71.8-70.5c-0.5-39,32.2-71.9,71.4-71.8
			c39.1,0,71,32,71.1,71.1C2223.6,2701.9,2192,2733.7,2152.7,2733.9z"/>
		<path id="XMLID_486_" class="st3" d="M1679.6,2497.4c-39.1-0.1-71.2-32.3-71-71.2c0.2-39.1,32.2-70.9,71.3-70.9
			c39.3,0,71,31.4,71.2,70.8C1751.5,2465.7,1719.5,2497.5,1679.6,2497.4z"/>
		<path id="XMLID_485_" class="st3" d="M1727.3,2071.7c0-39.4,32.1-71.4,71.1-71.1c39.2,0.4,70.6,32.3,70.6,71.8
			c0,39.3-32.1,71.1-71.3,70.8C1758.1,2143,1727.2,2111.6,1727.3,2071.7z"/>
		<path id="XMLID_484_" class="st3" d="M1986.8,2663.4c-0.1,39.5-31.6,70.7-71.1,70.4c-39.4-0.2-71-32-70.9-71.2
			c0.1-39,32.1-71,71.2-71.1C1955.5,2591.4,1986.9,2623.2,1986.8,2663.4z"/>
		<path id="XMLID_483_" class="st3" d="M1514.5,2663.6c-0.1,39-31.3,70.2-70.4,70.2c-39.7,0.1-71.8-31.9-71.6-71.4
			c0.2-39,32.3-70.9,71.4-70.9C1483.4,2591.6,1514.6,2623.4,1514.5,2663.6z"/>
		<path id="XMLID_481_" class="st3" d="M3877.3,2190.8c-0.1,39.4-31.6,70.6-71.2,70.5c-39.3-0.1-70.9-31.8-70.8-71.1
			c0-39.7,31.8-71,71.9-70.9C3846.4,2119.4,3877.4,2151,3877.3,2190.8z"/>
		<path id="XMLID_480_" class="st3" d="M3522.8,2311.4c-2.9,40.9-35.5,70.6-74.7,67.8c-39.5-2.8-70.2-36.2-67.5-73.5
			c3-41.1,36.2-71.1,75.4-68.3C3495.5,2240.3,3525.5,2273.5,3522.8,2311.4z"/>
		<path id="XMLID_479_" class="st3" d="M3262.7,2190c0.1-39.8,31.7-70.9,71.9-70.8c39.1,0.2,70.3,32,70.1,71.7
			c-0.1,39.2-31.8,70.4-71.5,70.3C3294,2261.2,3262.6,2229.6,3262.7,2190z"/>
		<path id="XMLID_477_" class="st3" d="M1986.8,2899.2c0,39.6-31.3,70.9-70.8,70.8c-39.3-0.1-71.1-31.7-71.2-70.9
			c-0.1-38.9,31.9-71.2,70.9-71.4C1955.3,2827.5,1986.8,2859.2,1986.8,2899.2z"/>
		<path id="XMLID_476_" class="st3" d="M1514.5,2898.9c0,39.8-31,71-70.5,71.1c-39.6,0.1-71.9-32.1-71.5-71.5
			c0.3-39.1,32.5-71,71.5-70.8C1483.4,2827.9,1514.5,2859.3,1514.5,2898.9z"/>
		<path id="XMLID_475_" class="st3" d="M3570.1,2497.4c-39.5,0-71.1-31.5-71.2-70.9c-0.1-39.3,31.6-71.1,71-71.1
			c39.4,0,71.3,31.7,71.3,70.9C3641.2,2465.7,3609.5,2497.4,3570.1,2497.4z"/>
		<path id="XMLID_474_" class="st3" d="M1986.8,2190.8c-0.1,39.6-31.3,70.6-71,70.5c-39.2-0.1-71-31.9-71-71.1c0-39.6,32-71.1,72-71
			C1956,2119.4,1986.9,2150.9,1986.8,2190.8z"/>
		<path id="XMLID_470_" class="st3" d="M3026.2,2427.7c-1.3-37.7,29.7-70.8,67.9-72.3c40.1-1.6,72.9,28.9,74.6,69.3
			c1.6,37.5-30.1,71.5-67.6,72.7C3059.8,2498.8,3027.6,2468.8,3026.2,2427.7z"/>
		<path id="XMLID_469_" class="st3" d="M2554,2424.4c2.1-40.8,34.4-70.8,74.6-69c38.5,1.7,70,35.9,67.7,73.5
			c-2.5,41.1-35.2,70.6-76.2,68.5C2582.8,2495.5,2552.1,2461.6,2554,2424.4z"/>
		<path id="XMLID_468_" class="st3" d="M3262.7,2426.4c0-39.5,31.5-71,71.1-71c39.4,0,71,31.6,70.9,71.1c0,39.5-31.6,71-71.1,70.9
			C3294.2,2497.4,3262.7,2465.9,3262.7,2426.4z"/>
		<path id="XMLID_467_" class="st3" d="M2578,2781c-0.2,39.4-32.2,71.3-71.2,71.1c-39.1-0.2-71.1-32.3-71.1-71.4
			c0-39.9,32.1-70.9,73.1-70.6C2547.1,2710.5,2578.2,2742.4,2578,2781z"/>
		<path id="XMLID_466_" class="st3" d="M2979.6,2710.2c39.3,0.1,70.5,31.1,70.7,70.2c0.2,39.7-32.4,72.3-71.5,71.7
			c-39.4-0.6-71-32.6-70.8-71.7C2908.2,2741.2,2939.8,2710.1,2979.6,2710.2z"/>
		<path id="XMLID_464_" class="st3" d="M1089.5,2710.2c39.1,0,70.6,31.1,71.1,70.1c0.5,39-32.6,72.2-71.7,71.9
			c-39.2-0.3-71.2-32.7-70.9-71.5C1018.3,2741,1049.6,2710.2,1089.5,2710.2z"/>
		<path id="XMLID_463_" class="st3" d="M1490.9,2781.2c-0.2-39.2,30.9-70.8,69.8-71c40.4-0.2,72.4,30.9,72.5,70.4
			c0.1,39.1-31.6,71.1-70.9,71.6C1523.5,2852.7,1491,2820.5,1490.9,2781.2z"/>
		<path id="XMLID_462_" class="st3" d="M1963.1,2780.8c0-39.6,31.3-70.6,71.1-70.6c39.6,0,71.4,31.6,71.2,70.8
			c-0.2,39.2-32.3,71.2-71.3,71.2C1995,2852.1,1963.1,2820.1,1963.1,2780.8z"/>
		<path id="XMLID_461_" class="st3" d="M1514.5,2426.4c0,39.8-31.1,71.1-70.7,71.1c-39.4,0-71.3-31.7-71.3-70.9
			c-0.1-39.1,31.9-71,71.2-71.1C1483.3,2355.3,1514.5,2386.6,1514.5,2426.4z"/>
		<path id="XMLID_460_" class="st3" d="M1986.8,2426.9c-0.1,39.6-31.4,70.7-71.2,70.6c-39.2-0.1-71.2-32.3-70.8-71.4
			c0.3-39.2,32.3-70.7,71.7-70.6C1956,2355.6,1986.8,2386.9,1986.8,2426.9z"/>
		<path id="XMLID_459_" class="st3" d="M2813.8,2308.3c0,39.7-31.1,70.9-70.7,71c-39.4,0.1-71-31.4-71-70.8
			c0-39.4,31.5-71.1,70.8-71.2C2782.3,2237.3,2813.8,2268.9,2813.8,2308.3z"/>
		<path id="XMLID_458_" class="st3" d="M1727.3,2307.9c0-39.3,31.9-70.9,71.3-70.6c39.3,0.3,70.6,32.1,70.5,71.6
			c-0.1,38.9-31.5,70.2-70.6,70.5C1758.5,2379.6,1727.2,2348.2,1727.3,2307.9z"/>
		<path id="XMLID_457_" class="st3" d="M2743.5,2710.2c39.5,0.1,70.5,31.3,70.4,71.1c-0.1,38.8-31.4,70.3-70.4,70.8
			c-39.1,0.5-71.4-31.9-71.4-71.7C2672.1,2741.1,2703.6,2710.1,2743.5,2710.2z"/>
		<path id="XMLID_456_" class="st3" d="M1798.6,2710.2c39,0.1,70.4,31.5,70.4,70.4c0,39.3-31.4,71.1-70.7,71.5
			c-39.6,0.4-71.2-31.9-71.1-72.7C1727.4,2740.7,1758.9,2710.1,1798.6,2710.2z"/>
	</g>
	<polygon id="XMLID_37_" class="st0" points="6858,3177 8496,2736 8912,2953 9092,2629 9203.5,2580 9531,2277 10125,3195.9 	"/>
	<circle id="XMLID_31_" class="st4" cx="7035.2" cy="1678.1" r="730.1"/>
	<path id="XMLID_3_" class="st5" d="M4552,1429.2c0,0,176.7-237.2,368.4-237.2s190.1,83.1,190.1,83.1s37.8-285.2,237.7-285.2
		s207.9,160.4,207.9,160.4S5623.7,871,6049.2,871c402.3,0,445.6,410,445.6,410s173.7-145.3,267.4,101c0,0,105.9-133.9,219.8,41.1
		L4552,1429.2z"/>
	<path id="XMLID_36_" class="st6" d="M8613,2542.5c0-161.5-131-292.5-292.5-292.5c-14.3,0-28.3,1-42,3
		c12.7-42.3,19.5-87.1,19.5-133.5c0-256-207.5-463.5-463.5-463.5c-168.3,0-315.6,89.6-396.8,223.8c-24.4-5.1-49.8-7.8-75.7-7.8
		c-203.8,0-369,165.2-369,369c0,156.1,97,289.6,234,343.5c-5.9,20-9,40.5-9,61.5c0,198.8,276,360,616.5,360
		c223.9,0,420-69.7,527.9-174C8504.1,2811.6,8613,2689.8,8613,2542.5z"/>
	<path id="XMLID_20_" class="st2" d="M6354.5,2679.2c0,0,494.9-163.4,658.5,1.8c0,0,31.6,67.8-67.3,83.5s0,0,0,0
		S6934.6,2643.8,6354.5,2679.2"/>
	<polygon id="XMLID_243_" class="st7" points="3670.5,3338 4063.5,3340 4063.5,3302 3668,3293 	"/>
	<line id="XMLID_242_" class="st8" x1="3689" y1="3302" x2="3688.5" y2="3338"/>
	<line id="XMLID_241_" class="st8" x1="3705.5" y1="3293" x2="3705.5" y2="3338"/>
	<path id="XMLID_240_" class="st9" d="M4049,1295l48-1.4l201,3.4c0,0,57.8,264-39.3,264S4049,1295,4049,1295z"/>
	<path id="XMLID_239_" class="st10" d="M4289,2998.2c0,0-65.4,198.2,81,315.2l-414-2c0,0,33.8-305,54-304.1L4289,2998.2z"/>
	<path id="XMLID_238_" class="st10" d="M3725,2980c0,0-60.9,248.9-66,297s119.6,31.5,405,36c0,0-132.5-62.4-63-297L3725,2980z"/>
	<path id="XMLID_237_" class="st2" d="M3983,3115c0,0-258.3-26.3-252-126c0,0,242.7,44.6,270,27C4001,3016,3989.3,3044.4,3983,3115z
		"/>
	<path id="XMLID_236_" class="st2" d="M4271,3115l22.5-112.9L4001,3016C4016.6,3075.3,4120.2,3115,4271,3115z"/>
	<path id="XMLID_235_" class="st9" d="M4173.9,1211c0,0,56.3,65.3,111.1,33.2c54.8-32.2,37.8-249-107.7-240.1
		c-145.5,8.9-69.8,196.3-44.1,207l-36.2,82.5c0,0,68.2,102,149.5,4.3l8.1-55.5L4173.9,1211z"/>
	<path id="XMLID_234_" class="st11" d="M4310,1124c0,0-50.9-9.9-27,72"/>
	<circle id="XMLID_233_" class="st2" cx="4302.2" cy="1150.6" r="8.8"/>
	<circle id="XMLID_232_" class="st2" cx="4236.2" cy="1152.6" r="8.8"/>
	<path id="XMLID_231_" class="st2" d="M4171.9,1214c0,0,25.1,67.1,75.1,81l7-42C4254,1253,4196.8,1263.3,4171.9,1214z"/>
	<path id="XMLID_230_" class="st9" d="M4319.1,1303.9c0,0,154.7-6.5,427.1,690.2l-98.2,148.8l-191.6-255.5L4319.1,1303.9z"/>
	<path id="XMLID_229_" class="st12" d="M3874.8,1480.2c0,0-26.1,304-23.8,570.8c1.9,220.9-246.2,823.8-232.1,915.7
		c0,0,272.2,59.2,382.3,59.1c110.1,0,300.2-2.7,300.2-2.7l168-724.2c0,0,55-997.7-171.5-1002c0,0,30.1,186.1-50.6,187
		c-70,0.7-163-188.2-163-188.2l-97.9-3.1C3986.6,1292.7,3870.3,1287.1,3874.8,1480.2z"/>
	<path id="XMLID_228_" class="st10" d="M4341.4,1906.1l133.8-285l360,90l-75,480.1c0,0-87.4,60.7-121,42c-33.6-18.7-329-147-329-147
		L4341.4,1906.1z"/>
	<path id="XMLID_227_" class="st13" d="M4486.2,1605.1c0,0-231.4-99.5-225,160"/>
	<polygon id="XMLID_226_" class="st7" points="4369.5,3314 4369.5,3340.5 4063,3340.5 4063.5,3313 	"/>
	<path id="XMLID_225_" class="st11" d="M4001.3,3025.8c0,0,187.5-704.7,209.7-938.8"/>
	<path id="XMLID_224_" class="st14" d="M4835.2,1726.1c-11.2,39.9-112.1,47.9-200.2,23.1s-171-88.3-159.8-128.1
		c11.2-39.9,112.3-41.1,200.4-16.3C4763.7,1629.6,4846.5,1686.2,4835.2,1726.1z"/>
	<polygon id="XMLID_223_" class="st7" points="4796,1961 4954.5,1846.1 4954.5,1891.1 4769.3,2168.2 	"/>
	<ellipse id="XMLID_222_" class="st15" cx="5009.1" cy="1844.5" rx="77.5" ry="90"/>
	<circle id="XMLID_221_" class="st15" cx="4973.4" cy="1811.3" r="7.5"/>
	<circle id="XMLID_220_" class="st15" cx="5011.4" cy="1811.3" r="7.5"/>
	<circle id="XMLID_219_" class="st15" cx="5049.8" cy="1811.3" r="7.5"/>
	<circle id="XMLID_218_" class="st15" cx="4973.4" cy="1846.3" r="7.5"/>
	<circle id="XMLID_217_" class="st15" cx="5011.4" cy="1846.3" r="7.5"/>
	<circle id="XMLID_216_" class="st15" cx="5049.8" cy="1846.3" r="7.5"/>
	<circle id="XMLID_215_" class="st15" cx="4973.4" cy="1878" r="7.5"/>
	<circle id="XMLID_214_" class="st15" cx="5011.4" cy="1878" r="7.5"/>
	<circle id="XMLID_213_" class="st15" cx="5049.8" cy="1878" r="7.5"/>
	<path id="XMLID_212_" class="st2" d="M4806,1719c-8.1,29-101.1,30.3-165.1,12.4S4491.9,1658,4500,1629s107-27,171-9
		S4814.1,1690,4806,1719z"/>
	<path id="XMLID_211_" class="st9" d="M4846.2,1966.1c0,0-100.9,51.3-90,135c10.9,83.7-15,105-15,105s119.8-50.1,120-90
		S4884.5,2032.3,4846.2,1966.1z"/>
	<path id="XMLID_210_" class="st15" d="M4793.9,2132.8c0,0-14.8-85.9-14.8-114.9"/>
	<path id="XMLID_209_" class="st15" d="M4822,2096c0,0-18-80.6-18-108"/>
	<path id="XMLID_208_" class="st15" d="M4832,1970c0,25.2,18,99,18,99"/>
	<path id="XMLID_207_" class="st9" d="M3968.8,1297.9c0,0,95.1-8.4,141,142.7s257.1,535.7,329.8,582.4
		c72.7,46.7,82.3,71.7,82.3,71.7s1.9,23.1-86.7,15.4c-88.7-7.7,190,96.1,190,96.1s-58.9,79.3-170.7,92.8
		c-111.8,13.5-565.5-499.2-589.2-892.5C3865.3,1406.5,3864.8,1302.1,3968.8,1297.9z"/>
	<path id="XMLID_206_" class="st11" d="M4490,2195c0,0,70.6,43.7,108,45"/>
	<path id="XMLID_205_" class="st11" d="M4454,2222c0,0,71.5,50.3,99,45"/>
	<path id="XMLID_204_" class="st11" d="M4409,2249c0,0,59.2,45.8,82,46"/>
	<path id="XMLID_203_" class="st8" d="M3965,1747c0,0,78.2-62.3,135,18c56.8,80.3-45,126-45,126"/>
	<line id="XMLID_202_" class="st8" x1="3721.5" y1="3311" x2="3721.5" y2="3338"/>
	<line id="XMLID_201_" class="st8" x1="3738.5" y1="3311" x2="3738.5" y2="3338"/>
	<line id="XMLID_200_" class="st8" x1="3755.5" y1="3311" x2="3755.5" y2="3338"/>
	<line id="XMLID_199_" class="st8" x1="3772.5" y1="3311" x2="3772.5" y2="3338"/>
	<line id="XMLID_198_" class="st8" x1="3788.5" y1="3311" x2="3788.5" y2="3338"/>
	<line id="XMLID_197_" class="st8" x1="3805.5" y1="3311" x2="3805.5" y2="3338"/>
	<line id="XMLID_196_" class="st8" x1="3823.5" y1="3311" x2="3823.5" y2="3338"/>
	<line id="XMLID_195_" class="st8" x1="3840.5" y1="3311" x2="3840.5" y2="3338"/>
	<line id="XMLID_194_" class="st8" x1="3856.5" y1="3311" x2="3856.5" y2="3338"/>
	<line id="XMLID_193_" class="st8" x1="3873.5" y1="3311" x2="3873.5" y2="3338"/>
	<line id="XMLID_192_" class="st8" x1="3890.5" y1="3311" x2="3890.5" y2="3338"/>
	<line id="XMLID_191_" class="st8" x1="3907.5" y1="3311" x2="3907.5" y2="3338"/>
	<line id="XMLID_190_" class="st8" x1="3923.5" y1="3311" x2="3923.5" y2="3338"/>
	<line id="XMLID_189_" class="st8" x1="3940.5" y1="3311" x2="3940.5" y2="3338"/>
	<line id="XMLID_188_" class="st8" x1="3958.5" y1="3311" x2="3958.5" y2="3338"/>
	<line id="XMLID_187_" class="st8" x1="3974.5" y1="3311" x2="3974.5" y2="3338"/>
	<line id="XMLID_186_" class="st8" x1="3991.5" y1="3311" x2="3991.5" y2="3338"/>
	<line id="XMLID_185_" class="st8" x1="4009.5" y1="3311" x2="4009.5" y2="3338"/>
	<line id="XMLID_184_" class="st8" x1="4027.5" y1="3311" x2="4027.5" y2="3338"/>
	<line id="XMLID_183_" class="st8" x1="4044.5" y1="3311" x2="4044.5" y2="3338"/>
	<polygon id="XMLID_182_" class="st2" points="4076,3338 4076,3312 4059,3311 4059,3338 	"/>
	<line id="XMLID_181_" class="st8" x1="4091.5" y1="3313" x2="4091.5" y2="3340"/>
	<line id="XMLID_180_" class="st8" x1="4108.5" y1="3313" x2="4108.5" y2="3340"/>
	<line id="XMLID_179_" class="st8" x1="4124.5" y1="3313" x2="4124.5" y2="3340"/>
	<line id="XMLID_178_" class="st8" x1="4141.5" y1="3313" x2="4141.5" y2="3340"/>
	<line id="XMLID_177_" class="st8" x1="4158.5" y1="3313" x2="4158.5" y2="3340"/>
	<line id="XMLID_176_" class="st8" x1="4175.5" y1="3313" x2="4175.5" y2="3340"/>
	<line id="XMLID_175_" class="st8" x1="4191.5" y1="3313" x2="4191.5" y2="3340"/>
	<line id="XMLID_174_" class="st8" x1="4208.5" y1="3313" x2="4208.5" y2="3340"/>
	<line id="XMLID_173_" class="st8" x1="4226.5" y1="3313" x2="4226.5" y2="3340"/>
	<line id="XMLID_172_" class="st8" x1="4242.5" y1="3313" x2="4242.5" y2="3340"/>
	<line id="XMLID_171_" class="st8" x1="4259.5" y1="3313" x2="4259.5" y2="3340"/>
	<line id="XMLID_170_" class="st8" x1="4277.5" y1="3313" x2="4277.5" y2="3340"/>
	<line id="XMLID_169_" class="st8" x1="4293.5" y1="3315" x2="4293.5" y2="3342"/>
	<line id="XMLID_168_" class="st8" x1="4310.5" y1="3315" x2="4310.5" y2="3342"/>
	<line id="XMLID_167_" class="st8" x1="4326.5" y1="3315" x2="4326.5" y2="3342"/>
	<line id="XMLID_166_" class="st8" x1="4343.5" y1="3315" x2="4343.5" y2="3342"/>
	<line id="XMLID_165_" class="st8" x1="4357.5" y1="3315" x2="4357.5" y2="3342"/>
	<path id="XMLID_164_" class="st16" d="M4265,1223c0,0,9.7,14.1,18,0"/>
	<path id="XMLID_59_" class="st2" d="M5912.9,3228.5c-1.9-28.7-37.4-51.5-80.9-51.5c-7.4,0-14.5,0.7-21.3,1.9
		c2.2-6.3,3.3-13,3.3-19.9c0-39.8-38.3-72-85.5-72c-14,0-27.2,2.8-38.8,7.9c-17-46.6-61.7-79.9-114.2-79.9
		c-53.4,0-98.7,34.4-115,82.3c-77.7-83.4-234-500.4-474.5-2.3c0,0-108.9-169.7-225,46c0,0-155.9-112.7-208,26s54,126,54,126l1423,1
		C6030,3294,5982.9,3264.4,5912.9,3228.5z"/>
	<line id="XMLID_162_" class="st13" x1="5208" y1="2960" x2="5208" y2="989"/>
	<line id="XMLID_161_" class="st13" x1="5211.1" y1="2278" x2="5463.9" y2="1921"/>
	<line id="XMLID_160_" class="st13" x1="5213.3" y1="2783.5" x2="4960.7" y2="2407.5"/>
	<line id="XMLID_159_" class="st13" x1="5211.3" y1="1602" x2="5363.7" y2="1312"/>
	<line id="XMLID_158_" class="st13" x1="5210" y1="1313" x2="5012" y2="1133"/>
	<path id="XMLID_157_" class="st17" d="M5461.7,1926c0,0-2.8-119.9,157.3-119.9C5619,1806.1,5612.6,1926,5461.7,1926z"/>
	<path id="XMLID_156_" class="st18" d="M4970.3,2420.7c0,0-119.9,2.8-119.9-157.3C4850.4,2263.4,4970.3,2269.8,4970.3,2420.7z"/>
	<path id="XMLID_155_" class="st18" d="M5361,1321.5c0,0-46.4-110.5,102.6-169.1C5463.6,1152.4,5501.5,1266.2,5361,1321.5z"/>
	<path id="XMLID_154_" class="st18" d="M5210.5,1902.4c0,0-8.3-119.6,151.6-127C5362.1,1775.4,5361.3,1895.4,5210.5,1902.4z"/>
	<path id="XMLID_153_" class="st18" d="M5030.9,1149.6c0,0-115.5,32.2-154.9-122.9C4876,1026.6,4993.7,1003.3,5030.9,1149.6z"/>
	<path id="XMLID_152_" class="st17" d="M5204.3,998.1c0,0-95.6-72.3,3.8-197.7C5208.1,800.3,5298.1,879.8,5204.3,998.1z"/>
	<path id="XMLID_151_" class="st2" d="M4301,1088c0,0-36.9-30.3-36-18c1.8,24.5,10.2,64.5-117,54c0,0-71.2-20.1-14.9,87
		c0.2,0.4-64.7-36.2-66.1-96c-1-40.9,37-105.7,99-117C4282.7,976.6,4301,1088,4301,1088z"/>
	<path id="XMLID_150_" class="st19" d="M4170.2,1156.1c0,0-0.3-37.7-30-30c-13.3,3.5-57,17.8,5.8,44"/>
	<path id="XMLID_149_" class="st2" d="M4091.5,1099.4c-18.7-67.5-247.1-120.9-312.5,78.6C3704.9,1404,4110.2,1166.9,4091.5,1099.4z"
		/>
	<path id="XMLID_148_" class="st17" d="M4886.9,2523.1c0,0,93.4-75.1,190.8,51.9C5077.8,2575,4978.8,2642.9,4886.9,2523.1z"/>
	<path id="XMLID_147_" class="st18" d="M5318.4,1387.9c0,0-85.6-24-47-149C5271.4,1238.8,5354.8,1270,5318.4,1387.9z"/>
	<path id="XMLID_146_" class="st18" d="M5202.6,2231c0,0-97.2,12.1-109.5-105.8C5093.2,2125.1,5191.1,2119.7,5202.6,2231z"/>
	<path id="XMLID_145_" class="st17" d="M5206.8,1428.2c0,0-87.6,15.2-105.5-114.4C5101.3,1313.8,5189.9,1306,5206.8,1428.2z"/>
	<path id="XMLID_4_" class="st18" d="M5378,2041.5c0,0,100.5-65.3,184.6,70.9C5562.6,2112.4,5457.3,2169.9,5378,2041.5z"/>
	<path id="XMLID_143_" class="st18" d="M5011.5,2474.2c0,0-60.2-77.3,34.9-148.2C5046.4,2326,5101.1,2407.3,5011.5,2474.2z"/>
	<path id="XMLID_142_" class="st18" d="M5267.3,1498.7c0,0,50.2-53.1,119.6,15.5C5386.9,1514.2,5332.8,1563.4,5267.3,1498.7z"/>
	<path id="XMLID_19_" class="st9" d="M6276,2273.1l-628,141.9c0,0-105.4,8.5-173.6-57.8c0,0-35.4-16.1-22.7,28s76.9,63.2,38.9,66.3
		c-37.9,3.1-125.5-79-149.9-86.7c-24.4-7.7-59.1,85.3,5.9,178.5c65,93.2,225.8,145,357.7,116.1c131.9-28.9,644.3-80.4,644.3-80.4
		S6224.7,2438.4,6276,2273.1z"/>
	<path id="XMLID_16_" class="st20" d="M6742.8,3061.6l237.3,3.3c0,0,236.5,161,192.9,310.2c0,0-14.2,6.4-27,9
		c-55.3,11.4-187.1-37.1-187.1-37.1L6742.8,3061.6z"/>
	<path id="XMLID_15_" class="st9" d="M5785.9,2432.1l-398.6,505.5c0,0-76.5,72.9-171.2,64.4c0,0-37.7,9.8,0,36s99.5,0.7,72,27
		s-147.2,17.6-171,27s7.8,103.5,117,135s266.7-29.5,351-135s436-473,436-473S5850,2592.9,5785.9,2432.1z"/>
	<path id="XMLID_14_" class="st21" d="M6350.7,2684.8c0,0-580,129.6-576.7,366.2s106.6,287,243,297s315,0,315,0s-64-256.4,0-252
		s417.1-27.6,417.1-27.6s309.9,8.1,183.4-347.3C6932.5,2721,6676.6,2647.3,6350.7,2684.8z"/>
	<path id="XMLID_11_" class="st9" d="M6162,2067c59,0,45.5-10.5,53.4,43.2c7.9,53.8,185.5,25.6,237.6,16.8c0,0-94.1-330.9-254-322.1
		C6000,1815.9,6060.1,2067,6162,2067z"/>
	<path id="XMLID_17_" class="st20" d="M6248.2,3059.7c0,0-128,168.5,2.8,296.3l491.9-8.4c0,0,97.9,59.9,174.1,71.4
		c98,14.8,42.2-310.7-104-365L6248.2,3059.7z"/>
	<path id="XMLID_22_" class="st11" d="M6759,2682c0,0,109.4,334-135,378"/>
	<path id="XMLID_21_" class="st22" d="M6489,2774.5h198c0,0,21.7,153.6,0,169.8s-189.2,69.4-198-35.4S6489,2774.5,6489,2774.5z"/>
	<path id="XMLID_24_" class="st22" d="M6957,2792.5h-72c0,0-18.1,152.1,36,151.8l36-8.4"/>
	<path id="XMLID_23_" class="st11" d="M6354,3060c0,0-297.8-10.1-306,45"/>
	<circle id="XMLID_13_" class="st2" cx="6096.2" cy="1920.6" r="8.8"/>
	<path id="XMLID_26_" class="st11" d="M6132,1906c0,0-31.8-36.1-54-9"/>
	<path id="XMLID_27_" class="st9" d="M6068.9,1927.6l-11.6,43.4c-1.7,15.1,4.5,21.1,11.4,20l19.5-3.2c5-0.8,8.2-5.1,7.3-9.8
		l-7.9-40.2C6085.8,1928.4,6071.3,1927.4,6068.9,1927.6z"/>
	<line id="XMLID_28_" class="st23" x1="7712.5" y1="3276" x2="7712.5" y2="2088"/>
	<g id="XMLID_25_">
		<g id="XMLID_350_">
			<path id="XMLID_383_" class="st2" d="M7616,1558.2c1.9,0,1.9-3,0-3C7614,1555.2,7614,1558.2,7616,1558.2L7616,1558.2z"/>
		</g>
	</g>
	<path id="XMLID_29_" class="st13" d="M7371,2164.6c0,0-21.8,268.3,171,268.3s171,138,171,138"/>
	<path id="XMLID_6_" class="st24" d="M5113,3125c0,0,96.9,19.2,189-18"/>
	<path id="XMLID_7_" class="st24" d="M5140,3173c0,0,115.6,12.8,179-18"/>
	<path id="XMLID_8_" class="st24" d="M5193,3213c16.9,16.8,162-18,162-18"/>
	<path id="XMLID_9_" class="st24" d="M5310,2403c0,0,94.9,84.6,171,90"/>
	<path id="XMLID_10_" class="st24" d="M5310,2466c0,0,114.7,79.6,171,72"/>
	<path id="XMLID_30_" class="st24" d="M5346.9,2543.4c0,0,92.8,52.5,143.1,48.6"/>
	<path id="XMLID_18_" class="st25" d="M6350.7,2684.8c0,0-124.5-229.1-165.6-222.2c-8.1,1.3-167.5,171-167.5,171
		s-304.3-110.8-231.7-201.4c244.8-305.2,336.3-331.4,424.1-326.1c140.3,8.5,234-45,234-45s81.5-22.1,243,126
		c283.6,260.1,325.8,493.5,325.8,493.5C6834.3,2548.7,6350.7,2684.8,6350.7,2684.8z"/>
	<path id="XMLID_5_" class="st13" d="M7713,2880c0,0,326.6,52.3,324-216c0,0-20.3-135,117-135c137.3,0,117-117,117-117"/>
	<path id="XMLID_32_" class="st13" d="M7713,2313c0,0,135-20.6,135-189"/>
	<path id="XMLID_33_" class="st13" d="M7884,2511c0,0-12.8,180,153,180"/>
	<path id="XMLID_39_" class="st17" d="M2906.1,2397.5c0,0-688.8,387.6-1807-858.7C1099.1,1538.8,2300.7,1031.1,2906.1,2397.5z"/>
	<path id="XMLID_44_" class="st17" d="M905.1,3083.8c0,0-93.9-139.3,151-397.4C1056,2686.4,1184.1,2932.2,905.1,3083.8z"/>
	<line id="XMLID_38_" class="st24" x1="5598" y1="2664" x2="5785.9" y2="2432.1"/>
	<path id="XMLID_144_" class="st18" d="M5200,2438.4c0,0,16.5-118.7,174.5-93C5374.5,2345.4,5349,2462.7,5200,2438.4z"/>
	<path id="XMLID_53_" class="st17" d="M7703.3,2432.4c0,0-1.6-67.6,88.7-67.6C7792,2364.8,7788.4,2432.4,7703.3,2432.4z"/>
	<path id="XMLID_52_" class="st18" d="M7716.5,2180.5c0,0-26.2-62.3,57.8-95.4C7774.3,2085.1,7795.7,2149.3,7716.5,2180.5z"/>
	<path id="XMLID_51_" class="st18" d="M7386.6,2317.1c0,0-4.7-67.4,85.5-71.6C7472.1,2245.5,7471.7,2313.2,7386.6,2317.1z"/>
	<path id="XMLID_50_" class="st18" d="M7369.3,2202.5c0,0-65.1,18.2-87.4-69.3C7282,2133.2,7348.4,2120,7369.3,2202.5z"/>
	<path id="XMLID_49_" class="st17" d="M7370.1,2180.1c0,0-53.9-40.8,2.2-111.5C7372.3,2068.6,7423,2113.4,7370.1,2180.1z"/>
	<path id="XMLID_48_" class="st18" d="M7716.5,2096.9c0,0-48.2-13.5-26.5-84C7690,2012.9,7737,2030.4,7716.5,2096.9z"/>
	<path id="XMLID_47_" class="st18" d="M7716.8,2570.5c0,0,1.1-55.2,67.9-52.5C7784.7,2518,7779.8,2573.1,7716.8,2570.5z"/>
	<path id="XMLID_46_" class="st18" d="M7640.9,2703.4c0,0,53.5-13.8,68.8,51.3C7709.7,2754.8,7655.4,2764.9,7640.9,2703.4z"/>
	<path id="XMLID_12_" class="st18" d="M7852.1,2162.1c0,0-0.4-41.2,54.7-40.5C7906.7,2121.7,7904,2162.8,7852.1,2162.1z"/>
	<path id="XMLID_56_" class="st18" d="M7846.6,2129.4c0,0-24.9-32.8,19.6-65.1C7866.2,2064.3,7888.6,2099,7846.6,2129.4z"/>
	<path id="XMLID_57_" class="st18" d="M7822.7,2225.8c0,0-41.2-0.9-38.7-55.9C7784,2169.9,7825.1,2174,7822.7,2225.8z"/>
	<path id="XMLID_58_" class="st18" d="M7887,2517.6c0,0-29.9-28.3,8.8-67.4C7895.8,2450.2,7923.5,2480.7,7887,2517.6z"/>
	<path id="XMLID_45_" class="st19" d="M6192,1890c0,0,63-22.1,18,54"/>
	<path id="XMLID_54_" class="st8" d="M5694,2955.1c0,0-78-62.5-12.3-135.6c65.7-73.2,132.8,16,132.8,16"/>
	<path id="XMLID_62_" class="st26" d="M6309,3357c0,0-97.7-145,9-297"/>
	<path id="XMLID_61_" class="st26" d="M6759,3087"/>
	<path id="XMLID_64_" class="st26" d="M6750,3060c-37.8,155.6,82.8,336.2,108,342"/>
	<path id="XMLID_63_" class="st27" d="M6804,3073c41.6,6,82.7,69.9,108,126s70.1,200.1,14,203s-119-110.7-140-185
		S6754.9,3065.9,6804,3073z"/>
	<path id="XMLID_65_" class="st27" d="M6936.7,3075.9c41.6-6,99.1,43.6,139.3,90.2s124,172,71,190.7s-145.6-72.4-186.7-137.7
		C6919.1,3153.8,6887.7,3083,6936.7,3075.9z"/>
	<g id="XMLID_66_">
		<path id="XMLID_332_" class="st20" d="M6768.9,3115.4c31.3,0,62.6,0,93.9,0c1.1,0,1.9,0.2,2.5,1.2c0.5,0.8,1.1,1.5,1.7,2.3
			c-0.4,0.1-0.6,0.1-0.9,0.1c-32.3,0-64.5,0-96.8,0c-0.2,0-0.3,0-0.5,0C6768.9,3117.8,6768.9,3116.6,6768.9,3115.4z"/>
		<path id="XMLID_331_" class="st20" d="M6801.8,3070.8c-2.3,0-4.6,0-7,0C6797.1,3070.8,6799.5,3070.8,6801.8,3070.8z"/>
		<path id="XMLID_330_" class="st20" d="M7122.3,3227.1c-0.7,0-1.2,0-1.6,0c-50.8,0-101.5,0-152.3,0c-1.1,0-1.9-0.3-2.4-1.3
			c-0.4-0.8-0.9-1.5-1.6-2.4c0.6,0,1,0,1.4,0c51,0,102,0,153,0c0.9,0,1.4,0.2,1.8,1C7121.1,3225.2,7121.7,3226,7122.3,3227.1z"/>
		<path id="XMLID_329_" class="st20" d="M7114.5,3215.1c-0.7,0-1.2,0-1.7,0c-50.7,0-101.3,0-152,0c-1.2,0-2-0.3-2.5-1.4
			c-0.3-0.7-0.8-1.4-1.3-2.2c0.5,0,0.8-0.1,1.2-0.1c51,0,102,0,153,0c0.8,0,1.2,0.2,1.6,0.9
			C7113.1,3213.2,7113.8,3214,7114.5,3215.1z"/>
		<path id="XMLID_328_" class="st20" d="M6972.8,3235.4c0.7,0,1.2,0,1.7,0c50.5,0,101,0,151.4,0c1.2,0,2,0.2,2.5,1.4
			c0.3,0.7,0.8,1.4,1.3,2.3c-0.7,0-1.2,0-1.7,0c-50.4,0-100.7,0-151.1,0c-1.2,0-1.9-0.3-2.5-1.3
			C6974,3237,6973.5,3236.3,6972.8,3235.4z"/>
		<path id="XMLID_327_" class="st20" d="M7106.2,3203.1c-0.8,0-1.3,0-1.8,0c-50.4,0-100.7,0-151.1,0c-1.2,0-2-0.3-2.5-1.5
			c-0.3-0.7-0.8-1.4-1.3-2.2c0.7,0,1.1,0,1.6,0c50.3,0,100.6,0,151,0c1.1,0,1.9,0.3,2.4,1.3
			C7105,3201.4,7105.6,3202.1,7106.2,3203.1z"/>
		<path id="XMLID_326_" class="st20" d="M7097.5,3191.1c-0.7,0-1.3,0-1.8,0c-49.8,0-99.7,0-149.5,0c-1.2,0-1.9-0.3-2.4-1.4
			c-0.3-0.7-0.7-1.4-1.2-2.3c0.7,0,1.1,0,1.6,0c49.7,0,99.4,0,149.1,0c1.1,0,1.8,0.3,2.4,1.2
			C7096.2,3189.4,7096.8,3190.1,7097.5,3191.1z"/>
		<path id="XMLID_325_" class="st20" d="M7136.7,3251.1c-0.7,0-1.2,0-1.7,0c-49.6,0-99.2,0-148.8,0c-1.2,0-2-0.3-2.6-1.3
			c-0.5-0.8-1.1-1.5-1.8-2.4c0.6,0,1,0,1.4,0c50.1,0,100.1,0,150.2,0c0.9,0,1.5,0.2,1.9,1.1
			C7135.7,3249.3,7136.2,3250.1,7136.7,3251.1z"/>
		<path id="XMLID_324_" class="st20" d="M7088.4,3179.1c-0.8,0-1.2,0-1.7,0c-49,0-98.1,0-147.1,0c-1.2,0-1.9-0.3-2.3-1.4
			c-0.3-0.7-0.7-1.4-1.2-2.3c0.6,0,1.1,0,1.6,0c48.8,0,97.6,0,146.4,0c1.1,0,1.8,0.3,2.4,1.2
			C7087,3177.4,7087.6,3178.1,7088.4,3179.1z"/>
		<path id="XMLID_323_" class="st20" d="M7143.2,3263.1c-0.7,0-1.2,0-1.7,0c-48.5,0-97,0-145.4,0c-1.1,0-1.9-0.2-2.5-1.2
			c-0.6-0.8-1.2-1.5-2-2.4c0.6,0,1-0.1,1.3-0.1c49.1,0,98.2,0,147.3,0c0.9,0,1.4,0.3,1.7,1.1
			C7142.2,3261.3,7142.7,3262.1,7143.2,3263.1z"/>
		<path id="XMLID_322_" class="st20" d="M6930.1,3163.4c0.7,0,1.2,0,1.7,0c47.4,0,94.7,0,142.1,0c1.3,0,2.1,0.3,2.8,1.3
			c0.5,0.7,1.2,1.4,1.9,2.2c-0.6,0-0.9,0.1-1.3,0.1c-48.1,0-96.2,0-144.2,0c-0.9,0-1.4-0.3-1.7-1.1
			C6931,3165.2,6930.6,3164.4,6930.1,3163.4z"/>
		<path id="XMLID_321_" class="st20" d="M7149.1,3275.1c-0.6,0-1.1,0-1.6,0c-47,0-94.1,0-141.1,0c-1.1,0-1.8-0.3-2.4-1.1
			c-0.6-0.8-1.4-1.5-2.2-2.5c0.5,0,0.9-0.1,1.2-0.1c47.8,0,95.5,0,143.3,0c0.8,0,1.3,0.2,1.6,1
			C7148.2,3273.3,7148.7,3274.1,7149.1,3275.1z"/>
		<path id="XMLID_320_" class="st20" d="M7068.1,3155.1c-0.8,0-1.2,0-1.7,0c-46.2,0-92.4,0-138.7,0c-1.3,0-1.9-0.4-2.2-1.5
			c-0.2-0.7-0.6-1.3-0.9-2.2c0.6,0,1.1,0,1.6,0c45.7,0,91.4,0,137.1,0c1,0,1.8,0.2,2.5,1.1C7066.5,3153.3,7067.2,3154,7068.1,3155.1
			z"/>
		<path id="XMLID_319_" class="st20" d="M7012.8,3283.4c0.8,0,1.3,0,1.7,0c45.6,0,91.2,0,136.7,0c1.2,0,1.9,0.3,2.2,1.5
			c0.2,0.7,0.5,1.3,0.9,2.2c-0.6,0-1.1,0-1.6,0c-44.9,0-89.8,0-134.7,0c-1.2,0-2.1-0.2-2.9-1.2
			C7014.5,3285.1,7013.7,3284.4,7012.8,3283.4z"/>
		<path id="XMLID_318_" class="st20" d="M6792.6,3235.4c0.7,0,1.2,0,1.7,0c43.8,0,87.6,0,131.4,0c1.3,0,2,0.3,2.2,1.6
			c0.1,0.7,0.4,1.3,0.7,2.1c-0.7,0-1.2,0-1.7,0c-43.8,0-87.7,0-131.5,0c-1.2,0-1.8-0.3-2.1-1.5
			C6793.2,3236.9,6792.9,3236.3,6792.6,3235.4z"/>
		<path id="XMLID_317_" class="st20" d="M6919.8,3139.4c0.7,0,1.2,0,1.8,0c43.4,0,86.8,0,130.2,0c1.2,0,2,0.3,2.8,1.2
			c0.7,0.8,1.6,1.3,2.4,2c-0.1,0.1-0.2,0.3-0.3,0.4c-0.4,0-0.7,0.1-1.1,0.1c-44.3,0-88.7,0-133,0c-1,0-1.5-0.2-1.7-1.2
			C6920.5,3141.1,6920.2,3140.3,6919.8,3139.4z"/>
		<path id="XMLID_316_" class="st20" d="M6788.7,3223.4c0.6,0,1.1,0,1.5,0c43.8,0,87.6,0,131.4,0c1.2,0,1.7,0.3,2,1.4
			c0.2,0.7,0.5,1.3,0.8,2.2c-0.5,0-0.9,0.1-1.2,0.1c-44,0-88.1,0-132.1,0c-0.9,0-1.4-0.2-1.6-1.1
			C6789.2,3225.1,6788.9,3224.4,6788.7,3223.4z"/>
		<path id="XMLID_315_" class="st20" d="M6797,3247.4c0.7,0,1.2,0,1.7,0c43.7,0,87.3,0,131,0c1.5,0,2.2,0.4,2.4,1.8
			c0.1,0.6,0.3,1.1,0.6,1.9c-0.6,0-1.1,0-1.5,0c-43.8,0-87.6,0-131.4,0c-1.1,0-1.6-0.3-1.9-1.3
			C6797.7,3249,6797.3,3248.3,6797,3247.4z"/>
		<path id="XMLID_314_" class="st20" d="M6785.2,3211.4c0.6,0,1.1,0,1.5,0c43.4,0,86.8,0,130.2,0c1.1,0,1.8,0.3,2,1.4
			c0.2,0.7,0.5,1.4,0.8,2.3c-0.6,0-1.1,0-1.6,0c-43.5,0-87,0-130.5,0c-1.2,0-1.8-0.3-1.9-1.5
			C6785.6,3212.9,6785.4,3212.2,6785.2,3211.4z"/>
		<path id="XMLID_313_" class="st20" d="M6936.4,3263.1c-0.6,0-1.1,0-1.6,0c-43.4,0-86.7,0-130.1,0c-1.1,0-1.7-0.2-2-1.3
			c-0.2-0.8-0.6-1.5-0.9-2.4c0.6,0,1.1,0,1.5,0c43.5,0,86.9,0,130.4,0c1.2,0,1.8,0.3,2,1.5
			C6935.9,3261.6,6936.2,3262.3,6936.4,3263.1z"/>
		<path id="XMLID_312_" class="st20" d="M7158.8,3299.1c-0.7,0-1.3,0-1.8,0c-42.2,0-84.5,0-126.7,0c-1.3,0-2.4-0.2-3.2-1.3
			c-0.6-0.8-1.5-1.4-2.4-2.4c0.7,0,1.1,0,1.5,0c43.4,0,86.7,0,130.1,0c1.1,0,1.6,0.3,1.8,1.3
			C7158.2,3297.5,7158.5,3298.2,7158.8,3299.1z"/>
		<path id="XMLID_311_" class="st20" d="M6782.9,3203c-0.3-1.2-0.6-2.3-0.9-3.6c0.5,0,1,0,1.4,0c42.8,0,85.7,0,128.5,0
			c1.1,0,1.7,0.3,2,1.3c0.2,0.8,0.6,1.5,1,2.3C6870.8,3203,6826.9,3203,6782.9,3203z"/>
		<path id="XMLID_310_" class="st20" d="M6939.9,3275.1c-0.6,0-1.1,0-1.6,0c-42.8,0-85.5,0-128.3,0c-1.1,0-1.7-0.3-2-1.3
			c-0.3-0.7-0.6-1.4-1-2.3c0.6,0,1.1,0,1.5,0c43,0,85.9,0,128.9,0c1.2,0,1.8,0.3,1.9,1.5C6939.4,3273.6,6939.6,3274.2,6939.9,3275.1
			z"/>
		<path id="XMLID_309_" class="st20" d="M6779.8,3191c-0.3-1.2-0.6-2.3-0.9-3.6c0.6,0,1.1,0,1.6,0c41.9,0,83.8,0,125.7,0
			c1.1,0,1.8,0.2,2.1,1.3c0.2,0.7,0.6,1.4,1,2.3C6866.1,3191,6823,3191,6779.8,3191z"/>
		<path id="XMLID_308_" class="st20" d="M6942.2,3283.5c0.3,1.2,0.6,2.3,0.9,3.6c-0.6,0-1.1,0-1.6,0c-41.8,0-83.6,0-125.5,0
			c-1.2,0-1.9-0.3-2.3-1.5c-0.2-0.7-0.6-1.4-1-2.1C6855.9,3283.5,6898.9,3283.5,6942.2,3283.5z"/>
		<path id="XMLID_307_" class="st20" d="M7044.9,3131.1c-0.9,0-1.3,0-1.8,0c-41.5,0-82.9,0-124.4,0c-1.4,0-2.1-0.3-2.2-1.7
			c-0.1-0.6-0.3-1.2-0.5-2c0.6,0,1.1,0,1.5,0c40.7,0,81.4,0,122.1,0c1.1,0,2,0.3,2.7,1.1C7043,3129.3,7043.8,3130.1,7044.9,3131.1z"
			/>
		<path id="XMLID_306_" class="st20" d="M6903.6,3179c-42.3,0-84.4,0-126.6,0c-0.3-1.2-0.5-2.3-0.8-3.6c0.6,0,1.1,0,1.6,0
			c40.8,0,81.7,0,122.5,0c1.1,0,1.8,0.2,2.2,1.3C6902.7,3177.5,6903.2,3178.1,6903.6,3179z"/>
		<path id="XMLID_305_" class="st20" d="M6945.1,3295.5c0.3,1.1,0.5,2.3,0.8,3.6c-0.6,0-1.1,0-1.5,0c-40.9,0-81.7,0-122.6,0
			c-1,0-1.6-0.2-1.9-1.2c-0.3-0.8-0.8-1.6-1.2-2.4C6860.8,3295.5,6902.9,3295.5,6945.1,3295.5z"/>
		<path id="XMLID_304_" class="st20" d="M6897.4,3167c-41,0-81.9,0-122.8,0c-0.2-1.1-0.4-2.3-0.7-3.6c0.6,0,1.1,0,1.6,0
			c39.6,0,79.1,0,118.7,0c1.1,0,1.7,0.3,2.1,1.3C6896.5,3165.4,6896.9,3166.1,6897.4,3167z"/>
		<path id="XMLID_303_" class="st20" d="M7162.2,3311.1c-0.6,0-1.1,0-1.6,0c-39.2,0-78.5,0-117.7,0c-0.9,0-1.7-0.2-2.4-0.9
			c-0.9-0.9-1.9-1.7-3-2.7c0.5,0,0.9-0.1,1.2-0.1c40.5,0,80.9,0,121.4,0c0.9,0,1.3,0.2,1.4,1.1
			C7161.7,3309.3,7162,3310.1,7162.2,3311.1z"/>
		<path id="XMLID_302_" class="st20" d="M6825.1,3307.4c41,0,81.7,0,122.6,0c0.2,1.1,0.5,2.3,0.8,3.6c-0.5,0-0.9,0-1.4,0
			c-39.6,0-79.2,0-118.8,0c-0.9,0-1.5-0.2-1.9-1.1C6826.1,3309.2,6825.6,3308.4,6825.1,3307.4z"/>
		<path id="XMLID_301_" class="st20" d="M6772.4,3155c-0.2-1.2-0.4-2.3-0.6-3.6c0.5,0,1,0,1.4,0c38,0,76.1,0,114.1,0
			c1,0,1.6,0.3,2,1.2c0.4,0.8,0.8,1.5,1.3,2.4C6851.2,3155,6811.8,3155,6772.4,3155z"/>
		<path id="XMLID_300_" class="st20" d="M6949.9,3319.5c0.2,1.1,0.4,2.3,0.6,3.6c-0.5,0-0.9,0-1.4,0c-37.9,0-75.8,0-113.7,0
			c-0.9,0-1.5-0.2-1.9-1.1c-0.4-0.8-0.9-1.6-1.5-2.6C6871.4,3319.5,6910.6,3319.5,6949.9,3319.5z"/>
		<path id="XMLID_299_" class="st20" d="M7031.8,3119.1c-0.8,0-1.2,0-1.7,0c-38.3,0-76.5,0-114.8,0c-1.4,0-1.9-0.4-1.9-1.7
			c0-0.6-0.2-1.3-0.3-2c0.6,0,1.1,0,1.6,0c37.1,0,74.3,0,111.4,0c1,0,1.8,0.2,2.6,1C7029.6,3117.2,7030.6,3118,7031.8,3119.1z"/>
		<path id="XMLID_298_" class="st20" d="M6770.6,3143c-0.1-1.2-0.3-2.3-0.4-3.6c0.6,0,1,0,1.5,0c36,0,72.1,0,108.1,0
			c1.1,0,1.8,0.3,2.3,1.3c0.4,0.8,0.9,1.5,1.4,2.3C6845.8,3143,6808.3,3143,6770.6,3143z"/>
		<path id="XMLID_297_" class="st20" d="M6951.7,3331.5c0.1,1.1,0.3,2.2,0.4,3.5c-0.6,0-1.1,0-1.6,0c-35.7,0-71.4,0-107.1,0
			c-1.1,0-1.8-0.3-2.3-1.2c-0.4-0.8-0.9-1.5-1.5-2.3C6877,3331.5,6914.3,3331.5,6951.7,3331.5z"/>
		<path id="XMLID_296_" class="st20" d="M7163.8,3319.5c0.1,1.1,0.2,2.2,0.4,3.5c-0.6,0-1.1,0-1.6,0c-34.9,0-69.8,0-104.8,0
			c-1.1,0-1.9-0.2-2.7-0.9c-1-0.9-2.1-1.6-3.3-2.6C7089.2,3319.5,7126.5,3319.5,7163.8,3319.5z"/>
		<path id="XMLID_295_" class="st20" d="M6769.4,3131c-0.1-1.2-0.2-2.3-0.3-3.6c0.5,0,1,0,1.5,0c33.8,0,67.6,0,101.4,0
			c1,0,1.5,0.3,2,1.1c0.5,0.8,1.1,1.6,1.7,2.5C6840.2,3131,6804.9,3131,6769.4,3131z"/>
		<path id="XMLID_294_" class="st20" d="M6952.9,3343.5c0.1,1.1,0.1,2.3,0.2,3.6c-0.6,0-1.1,0-1.7,0c-33.2,0-66.4,0-99.6,0
			c-1,0-1.7-0.2-2.3-1.1c-0.5-0.8-1.1-1.6-1.7-2.5C6882.9,3343.5,6917.8,3343.5,6952.9,3343.5z"/>
		<path id="XMLID_293_" class="st20" d="M7016.9,3107.1c-0.5,0-0.9,0-1.4,0c-33.9,0-67.9,0-101.8,0c-1.6,0-1.6,0-1.7-1.7
			c0-0.6,0-1.2,0-1.9c0.5,0,1,0,1.4,0c32.7,0,65.3,0,98,0c0.7,0,1.5,0.3,2.1,0.7c1.2,0.8,2.3,1.7,3.4,2.6
			C7017,3106.9,7016.9,3107,7016.9,3107.1z"/>
		<path id="XMLID_292_" class="st20" d="M6953.1,3359.1c-0.6,0-1.1,0-1.7,0c-30,0-60.1,0-90.1,0c-1.2,0-2-0.3-2.6-1.2
			c-0.5-0.8-1.2-1.5-1.9-2.4c32.2,0,64.2,0,96.3,0C6953.1,3356.7,6953.1,3357.8,6953.1,3359.1z"/>
		<path id="XMLID_291_" class="st20" d="M7067.6,3331.5c32.4,0,64.4,0,96.6,0c-0.1,1.2-0.3,2.3-0.4,3.6c-0.5,0-0.9,0-1.4,0
			c-29.5,0-58.9,0-88.4,0c-0.7,0-1.5-0.3-2.1-0.6C7070.6,3333.5,7069.3,3332.6,7067.6,3331.5z"/>
		<path id="XMLID_290_" class="st20" d="M6769.3,3107c0.1-1.2,0.2-2.3,0.3-3.6c0.5,0,1,0,1.4,0c27.3,0,54.6,0,82,0
			c0.9,0,1.5,0.2,2,0.9c0.7,0.9,1.4,1.7,2.3,2.7C6827.9,3107,6798.7,3107,6769.3,3107z"/>
		<path id="XMLID_289_" class="st20" d="M7000.3,3095c-29.1,0-58.2,0-87.5,0c0.3-1.2,0.6-2.4,0.9-3.6c0.6,0,1,0,1.5,0
			c26.1,0,52.3,0,78.4,0c1,0,1.9,0.2,2.7,0.8c1.3,0.9,2.7,1.7,4,2.6C7000.3,3094.8,7000.3,3094.9,7000.3,3095z"/>
		<path id="XMLID_288_" class="st20" d="M6867.1,3367.5c28.6,0,56.9,0,85.4,0c-0.1,1.2-0.3,2.4-0.4,3.6c-0.6,0-1.1,0-1.5,0
			c-26.2,0-52.4,0-78.6,0c-1,0-1.7-0.2-2.4-1C6868.9,3369.2,6868.1,3368.5,6867.1,3367.5z"/>
		<path id="XMLID_287_" class="st20" d="M6771.2,3095c0.3-1.1,0.6-2.1,0.9-3.1c0.1-0.2,0.4-0.3,0.6-0.4c0.3-0.1,0.6,0,1,0
			c22.3,0,44.7,0,67,0c1.1,0,1.9,0.3,2.6,1c0.8,0.8,1.7,1.6,2.7,2.5C6821,3095,6796.2,3095,6771.2,3095z"/>
		<path id="XMLID_286_" class="st20" d="M7161,3343.5c-0.1,0.2-0.1,0.3-0.1,0.4c-1.7,3.2-1.7,3.2-5.2,3.2c-20.1,0-40.2,0-60.3,0
			c-1,0-2-0.3-2.8-0.7c-1.8-0.8-3.5-1.8-5.2-2.9C7111.8,3343.5,7136.3,3343.5,7161,3343.5z"/>
		<path id="XMLID_285_" class="st20" d="M6879.4,3379.5c23.8,0,47.2,0,70.8,0c-0.4,1.1-0.7,2.1-1.1,3.1c-0.1,0.2-0.4,0.4-0.7,0.5
			c-0.3,0.1-0.6,0-1,0c-20.7,0-41.4,0-62.1,0c-1.2,0-2.1-0.3-3-1.1C6881.5,3381.2,6880.5,3380.4,6879.4,3379.5z"/>
		<path id="XMLID_284_" class="st20" d="M6918.5,3082.7c1.2-1,2.3-2,3.5-3c0.3-0.2,0.7-0.3,1.1-0.3c15.9,0,31.7,0,47.6,0
			c0.4,0,0.8,0,1.2,0.2c2.5,1,4.9,2.1,7.3,3.3c-20.2,0-40.4,0-60.6,0C6918.6,3082.9,6918.6,3082.8,6918.5,3082.7z"/>
		<path id="XMLID_283_" class="st20" d="M6775.8,3083c0.8-1.2,1.5-2.2,2.3-3.2c0.2-0.2,0.7-0.4,1-0.4c15.4,0,30.8,0,46.2,0
			c0.3,0,0.7,0,1,0.2c1.7,1,3.3,2.1,5.3,3.3C6812.9,3083,6794.5,3083,6775.8,3083z"/>
		<path id="XMLID_282_" class="st20" d="M6896,3391.5c16,0,31.9,0,47.9,0c-0.8,2.1-3,3.6-5.2,3.6c-11.6,0-23.1,0-34.7,0
			c-1.1,0-2.2-0.3-3.2-0.8c-1.7-0.8-3.3-1.7-4.9-2.6C6895.9,3391.6,6895.9,3391.5,6896,3391.5z"/>
		<path id="XMLID_281_" class="st20" d="M7117,3355.5c9.5,0,18.9,0,28.4,0C7135.9,3358.4,7126.5,3357.8,7117,3355.5z"/>
	</g>
	<path id="XMLID_68_" class="st2" d="M6156,1926c0,0,6.4-65.6-72-63s21.3-117.1,153-99s138.8,160.3,144,180s-88.5,101.1-135-27
		C6208.9,1814.6,6156,1926,6156,1926z"/>
	<path id="XMLID_74_" class="st18" d="M7920.5,2639.5c0,0-26.2-62.3,57.8-95.4C7978.3,2544.1,7999.7,2608.3,7920.5,2639.5z"/>
	<path id="XMLID_73_" class="st18" d="M7852.6,2875.1c0,0-4.7-67.4,85.5-71.6C7938.1,2803.5,7937.7,2871.2,7852.6,2875.1z"/>
	<path id="XMLID_72_" class="st18" d="M7992.1,2814.1c0,0,50.4-45.1,109,23.5C8101.2,2837.6,8047.5,2878.8,7992.1,2814.1z"/>
	<path id="XMLID_71_" class="st17" d="M8027.9,2744.2c0,0,15-65.9,102.6-43.8C8130.5,2700.4,8110.5,2765.1,8027.9,2744.2z"/>
	<path id="XMLID_70_" class="st18" d="M8111.5,2533.9c0,0-48.2-13.5-26.5-84C8085,2449.9,8132,2467.4,8111.5,2533.9z"/>
	<path id="XMLID_69_" class="st18" d="M8267.5,2420.7c0,0-22.8-34.3,23.7-63.7C8291.3,2357,8311.4,2393,8267.5,2420.7z"/>
	<path id="XMLID_67_" class="st18" d="M8217.9,2516.9c0,0,37.7-16.8,58.9,34C8276.8,2550.9,8238,2564.8,8217.9,2516.9z"/>
	<path id="XMLID_76_" class="st18" d="M7706.1,2941.4c0,0-45,32-82.6-23.3C7623.5,2918.1,7670.6,2889.3,7706.1,2941.4z"/>
	<path id="XMLID_75_" class="st18" d="M7718.9,2630.9c0,0-51.4,43.9-108.5-26C7610.5,2604.9,7665.1,2565,7718.9,2630.9z"/>
</g>
<g id="Warstwa_3">
	<rect id="XMLID_78_" x="5008" y="1880" class="st18" width="7" height="22"/>
	
		<rect id="XMLID_138_" x="5071.5" y="1884.5" transform="matrix(-0.3299 -0.944 0.944 -0.3299 4977.1567 7308.8164)" class="st18" width="22" height="7"/>
	<rect id="XMLID_83_" x="4970" y="1880" class="st18" width="7" height="22"/>
	<rect id="XMLID_84_" x="4970" y="1846" class="st18" width="7" height="22"/>
	<rect id="XMLID_85_" x="5008" y="1846" class="st18" width="7" height="22"/>
	
		<rect id="XMLID_86_" x="5042.5" y="1850.5" transform="matrix(-0.3397 -0.9405 0.9405 -0.3397 5026.5488 7236.792)" class="st18" width="22" height="7"/>
	
		<rect id="XMLID_137_" x="5066.5" y="1850.5" transform="matrix(-0.3397 -0.9405 0.9405 -0.3397 5058.7021 7259.3647)" class="st18" width="22" height="7"/>
	<rect id="XMLID_87_" x="5008" y="1811" class="st18" width="7" height="22"/>
	<rect id="XMLID_88_" x="4970" y="1811" class="st18" width="7" height="22"/>
	
		<rect id="XMLID_82_" x="5048" y="1816" transform="matrix(-0.7548 -0.6559 0.6559 -0.7548 7684.5889 6510.3242)" class="st18" width="22" height="6"/>
	<rect id="XMLID_90_" x="4970" y="1980" class="st18" width="7" height="22"/>
	<rect id="XMLID_89_" x="4970" y="1946" class="st18" width="7" height="22"/>
	<rect id="XMLID_79_" x="4970" y="1911" class="st18" width="7" height="22"/>
	<rect id="XMLID_94_" x="4970" y="2082" class="st18" width="7" height="22"/>
	<rect id="XMLID_93_" x="4970" y="2048" class="st18" width="7" height="22"/>
	<rect id="XMLID_92_" x="4970" y="2013" class="st18" width="7" height="22"/>
	<rect id="XMLID_97_" x="4970" y="2184" class="st18" width="7" height="22"/>
	<rect id="XMLID_96_" x="4970" y="2150" class="st18" width="7" height="22"/>
	<rect id="XMLID_95_" x="4970" y="2115" class="st18" width="7" height="22"/>
	<rect id="XMLID_100_" x="4970" y="2287" class="st18" width="7" height="22"/>
	<rect id="XMLID_99_" x="4970" y="2253" class="st18" width="7" height="22"/>
	<rect id="XMLID_98_" x="4970" y="2218" class="st18" width="7" height="22"/>
	<rect id="XMLID_112_" x="5008" y="1980" class="st18" width="7" height="22"/>
	<rect id="XMLID_111_" x="5008" y="1946" class="st18" width="7" height="22"/>
	<rect id="XMLID_110_" x="5008" y="1911" class="st18" width="7" height="22"/>
	<rect id="XMLID_109_" x="5008" y="2082" class="st18" width="7" height="22"/>
	<rect id="XMLID_108_" x="5008" y="2048" class="st18" width="7" height="22"/>
	<rect id="XMLID_107_" x="5008" y="2013" class="st18" width="7" height="22"/>
	<rect id="XMLID_106_" x="5008" y="2184" class="st18" width="7" height="22"/>
	<rect id="XMLID_105_" x="5008" y="2150" class="st18" width="7" height="22"/>
	<rect id="XMLID_104_" x="5008" y="2115" class="st18" width="7" height="22"/>
	<rect id="XMLID_103_" x="5008" y="2287" class="st18" width="7" height="22"/>
	<rect id="XMLID_102_" x="5008" y="2253" class="st18" width="7" height="22"/>
	<rect id="XMLID_101_" x="5008" y="2218" class="st18" width="7" height="22"/>
	<rect id="XMLID_124_" x="5049" y="1980" class="st18" width="7" height="22"/>
	<rect id="XMLID_123_" x="5049" y="1946" class="st18" width="7" height="22"/>
	<rect id="XMLID_122_" x="5049" y="1911" class="st18" width="7" height="22"/>
	<rect id="XMLID_91_" x="5046" y="1880" class="st18" width="7" height="22"/>
	<rect id="XMLID_121_" x="5049" y="2082" class="st18" width="7" height="22"/>
	<rect id="XMLID_120_" x="5049" y="2048" class="st18" width="7" height="22"/>
	<rect id="XMLID_119_" x="5049" y="2013" class="st18" width="7" height="22"/>
	<rect id="XMLID_118_" x="5049" y="2184" class="st18" width="7" height="22"/>
	<rect id="XMLID_117_" x="5049" y="2150" class="st18" width="7" height="22"/>
	<rect id="XMLID_116_" x="5049" y="2115" class="st18" width="7" height="22"/>
	<rect id="XMLID_115_" x="5049" y="2287" class="st18" width="7" height="22"/>
	<rect id="XMLID_114_" x="5049" y="2253" class="st18" width="7" height="22"/>
	<rect id="XMLID_113_" x="5049" y="2218" class="st18" width="7" height="22"/>
	<rect id="XMLID_136_" x="5083" y="1985" class="st18" width="7" height="22"/>
	<rect id="XMLID_135_" x="5083" y="1951" class="st18" width="7" height="22"/>
	<rect id="XMLID_134_" x="5083" y="1916" class="st18" width="7" height="22"/>
	<rect id="XMLID_133_" x="5083" y="2087" class="st18" width="7" height="22"/>
	<rect id="XMLID_132_" x="5083" y="2053" class="st18" width="7" height="22"/>
	<rect id="XMLID_131_" x="5083" y="2018" class="st18" width="7" height="22"/>
	<rect id="XMLID_130_" x="5083" y="2189" class="st18" width="7" height="22"/>
	<rect id="XMLID_129_" x="5083" y="2155" class="st18" width="7" height="22"/>
	<rect id="XMLID_128_" x="5083" y="2120" class="st18" width="7" height="22"/>
	<rect id="XMLID_127_" x="5083" y="2292" class="st18" width="7" height="22"/>
	<rect id="XMLID_126_" x="5083" y="2258" class="st18" width="7" height="22"/>
	<rect id="XMLID_125_" x="5083" y="2223" class="st18" width="7" height="22"/>
	<rect id="XMLID_336_" x="4970" y="2360" class="st18" width="7" height="22"/>
	<rect id="XMLID_335_" x="4970" y="2326" class="st18" width="7" height="22"/>
	<rect id="XMLID_334_" x="4970" y="2462" class="st18" width="7" height="22"/>
	<rect id="XMLID_333_" x="4970" y="2428" class="st18" width="7" height="22"/>
	<rect id="XMLID_280_" x="4970" y="2393" class="st18" width="7" height="22"/>
	<rect id="XMLID_279_" x="4970" y="2564" class="st18" width="7" height="22"/>
	<rect id="XMLID_278_" x="4970" y="2530" class="st18" width="7" height="22"/>
	<rect id="XMLID_277_" x="4970" y="2495" class="st18" width="7" height="22"/>
	<rect id="XMLID_276_" x="4970" y="2667" class="st18" width="7" height="22"/>
	<rect id="XMLID_275_" x="4970" y="2633" class="st18" width="7" height="22"/>
	<rect id="XMLID_274_" x="4970" y="2598" class="st18" width="7" height="22"/>
	<rect id="XMLID_273_" x="5008" y="2360" class="st18" width="7" height="22"/>
	<rect id="XMLID_272_" x="5008" y="2326" class="st18" width="7" height="22"/>
	<rect id="XMLID_271_" x="5008" y="2462" class="st18" width="7" height="22"/>
	<rect id="XMLID_270_" x="5008" y="2428" class="st18" width="7" height="22"/>
	<rect id="XMLID_269_" x="5008" y="2393" class="st18" width="7" height="22"/>
	<rect id="XMLID_268_" x="5008" y="2564" class="st18" width="7" height="22"/>
	<rect id="XMLID_267_" x="5008" y="2530" class="st18" width="7" height="22"/>
	<rect id="XMLID_266_" x="5008" y="2495" class="st18" width="7" height="22"/>
	<rect id="XMLID_265_" x="5008" y="2667" class="st18" width="7" height="22"/>
	<rect id="XMLID_264_" x="5008" y="2633" class="st18" width="7" height="22"/>
	<rect id="XMLID_263_" x="5008" y="2598" class="st18" width="7" height="22"/>
	<rect id="XMLID_262_" x="5049" y="2360" class="st18" width="7" height="22"/>
	<rect id="XMLID_261_" x="5049" y="2326" class="st18" width="7" height="22"/>
	<rect id="XMLID_260_" x="5049" y="2462" class="st18" width="7" height="22"/>
	<rect id="XMLID_259_" x="5049" y="2428" class="st18" width="7" height="22"/>
	<rect id="XMLID_258_" x="5049" y="2393" class="st18" width="7" height="22"/>
	<rect id="XMLID_257_" x="5049" y="2564" class="st18" width="7" height="22"/>
	<rect id="XMLID_256_" x="5049" y="2530" class="st18" width="7" height="22"/>
	<rect id="XMLID_255_" x="5049" y="2495" class="st18" width="7" height="22"/>
	<rect id="XMLID_254_" x="5049" y="2667" class="st18" width="7" height="22"/>
	<rect id="XMLID_253_" x="5049" y="2633" class="st18" width="7" height="22"/>
	<rect id="XMLID_252_" x="5049" y="2598" class="st18" width="7" height="22"/>
	<rect id="XMLID_251_" x="5083" y="2365" class="st18" width="7" height="22"/>
	<rect id="XMLID_250_" x="5083" y="2331" class="st18" width="7" height="22"/>
	<rect id="XMLID_249_" x="5083" y="2467" class="st18" width="7" height="22"/>
	<rect id="XMLID_248_" x="5083" y="2433" class="st18" width="7" height="22"/>
	<rect id="XMLID_247_" x="5083" y="2398" class="st18" width="7" height="22"/>
	<rect id="XMLID_246_" x="5083" y="2569" class="st18" width="7" height="22"/>
	<rect id="XMLID_244_" x="5083" y="2535" class="st18" width="7" height="22"/>
	<rect id="XMLID_163_" x="5083" y="2500" class="st18" width="7" height="22"/>
	<rect id="XMLID_141_" x="5083" y="2672" class="st18" width="7" height="22"/>
	<rect id="XMLID_140_" x="5083" y="2638" class="st18" width="7" height="22"/>
	<rect id="XMLID_139_" x="5083" y="2603" class="st18" width="7" height="22"/>
	<rect id="XMLID_380_" x="4970" y="2736" class="st18" width="7" height="22"/>
	<rect id="XMLID_379_" x="4970" y="2702" class="st18" width="7" height="22"/>
	<rect id="XMLID_378_" x="4970" y="2838" class="st18" width="7" height="22"/>
	<rect id="XMLID_377_" x="4970" y="2804" class="st18" width="7" height="22"/>
	<rect id="XMLID_376_" x="4970" y="2769" class="st18" width="7" height="22"/>
	<rect id="XMLID_375_" x="4970" y="2940" class="st18" width="7" height="22"/>
	<rect id="XMLID_374_" x="4970" y="2906" class="st18" width="7" height="22"/>
	<rect id="XMLID_373_" x="4970" y="2871" class="st18" width="7" height="22"/>
	<rect id="XMLID_372_" x="4970" y="3043" class="st18" width="7" height="22"/>
	<rect id="XMLID_371_" x="4970" y="3009" class="st18" width="7" height="22"/>
	<rect id="XMLID_370_" x="4970" y="2974" class="st18" width="7" height="22"/>
	<rect id="XMLID_369_" x="5008" y="2736" class="st18" width="7" height="22"/>
	<rect id="XMLID_368_" x="5008" y="2702" class="st18" width="7" height="22"/>
	<rect id="XMLID_367_" x="5008" y="2838" class="st18" width="7" height="22"/>
	<rect id="XMLID_366_" x="5008" y="2804" class="st18" width="7" height="22"/>
	<rect id="XMLID_365_" x="5008" y="2769" class="st18" width="7" height="22"/>
	<rect id="XMLID_364_" x="5008" y="2940" class="st18" width="7" height="22"/>
	<rect id="XMLID_363_" x="5008" y="2906" class="st18" width="7" height="22"/>
	<rect id="XMLID_362_" x="5008" y="2871" class="st18" width="7" height="22"/>
	<rect id="XMLID_360_" x="5008" y="3009" class="st18" width="7" height="22"/>
	<rect id="XMLID_359_" x="5008" y="2974" class="st18" width="7" height="22"/>
	<rect id="XMLID_358_" x="5049" y="2736" class="st18" width="7" height="22"/>
	<rect id="XMLID_357_" x="5049" y="2702" class="st18" width="7" height="22"/>
	<rect id="XMLID_356_" x="5049" y="2838" class="st18" width="7" height="22"/>
	<rect id="XMLID_355_" x="5049" y="2804" class="st18" width="7" height="22"/>
	<rect id="XMLID_354_" x="5049" y="2769" class="st18" width="7" height="22"/>
	<rect id="XMLID_353_" x="5049" y="2940" class="st18" width="7" height="22"/>
	<rect id="XMLID_352_" x="5049" y="2906" class="st18" width="7" height="22"/>
	<rect id="XMLID_351_" x="5049" y="2871" class="st18" width="7" height="22"/>
	<rect id="XMLID_348_" x="5049" y="2974" class="st18" width="7" height="22"/>
	<rect id="XMLID_347_" x="5083" y="2741" class="st18" width="7" height="22"/>
	<rect id="XMLID_346_" x="5083" y="2707" class="st18" width="7" height="22"/>
	<rect id="XMLID_345_" x="5083" y="2843" class="st18" width="7" height="22"/>
	<rect id="XMLID_344_" x="5083" y="2809" class="st18" width="7" height="22"/>
	<rect id="XMLID_343_" x="5083" y="2774" class="st18" width="7" height="22"/>
	<rect id="XMLID_342_" x="5083" y="2945" class="st18" width="7" height="22"/>
	<rect id="XMLID_341_" x="5083" y="2911" class="st18" width="7" height="22"/>
	<rect id="XMLID_340_" x="5083" y="2876" class="st18" width="7" height="22"/>
</g>
</svg>
