<?xml version="1.0" encoding="utf-8"?>
<!-- Generator: Adobe Illustrator 19.0.0, SVG Export Plug-In . SVG Version: 6.00 Build 0)  -->
<svg version="1.1" id="Warstwa_1" xmlns="http://www.w3.org/2000/svg" xmlns:xlink="http://www.w3.org/1999/xlink" x="0px" y="0px"
	 viewBox="-383 145 512 512" style="enable-background:new -383 145 512 512;" xml:space="preserve">
<style type="text/css">
	.st0{fill:#FFFFFF;}
</style>
<g id="Outline">
	<path class="st0" d="M-64.7,497.9c6.4-15.3-5.7-33.2-22.3-32.9h-72v-20c0-15.5-12.5-28-28-28h-4.8c9.5-27.1-20.9-51-45-35.1
		l-126.7,84.4c-2.2,1.5-3.6,4-3.6,6.7v128c0,4.4,3.6,8,8,8h56v8c-0.1,20.7,24.9,31.6,40,17.9c8.7,8.1,23.3,8.1,32,0
		c8.7,8.1,23.3,8.1,32,0c15.1,13.8,40.1,2.8,40-17.9v-8h64c16.4,0.2,28.2-16.6,22.6-32c21.4,1,33.4-24,19.3-40
		C-41.1,523.9-47.8,502.2-64.7,497.9L-64.7,497.9z M-175,445v40c-0.7,15.9-23.3,15.9-24,0v-12c0-2.1-0.8-4.2-2.3-5.7l-18.4-18.3
		l16-16h16.7C-180.4,433-175,438.4-175,445z M-279,625c-4.4,0-8-3.6-8-8v-32c0-4.4,3.6-8,8-8c4.4,0,8,3.6,8,8v32
		C-271,621.4-274.6,625-279,625z M-247,625c-4.4,0-8-3.6-8-8v-48c0.4-10.6,15.6-10.6,16,0v48C-239,621.4-242.6,625-247,625z
		 M-215,625c-4.4,0-8-3.6-8-8v-48c0.4-10.6,15.6-10.6,16,0v48C-207,621.4-210.6,625-215,625z M-175,617c-0.4,10.6-15.6,10.6-16,0
		v-32c0.4-10.6,15.6-10.6,16,0V617z M-65.3,526.7c-1.5,1.5-3.5,2.4-5.7,2.3h-72c-10.6,0.4-10.6,15.6,0,16h72
		c10.6,0.3,10.6,15.7,0,16h-72c-4.4,0-8,3.6-8,8s3.6,8,8,8h48c7-0.1,10.7,8.8,5.7,13.7c-1.5,1.5-3.5,2.4-5.7,2.3h-64v-8
		c0.4-16.6-17.6-28.7-32.9-22.3c-4.5-17-26.1-23.5-39.1-11.6c-13.1-12-34.7-5.4-39.1,11.6c-15.2-6.4-33.2,5.7-32.9,22.3v8h-48V477.3
		l123.1-82c9.1-6.3,22,0.6,21.9,11.7c0,3.7-1.5,7.3-4.1,10l-2.5,2.5l-24,24c-3.1,3.1-3.1,8.2,0,11.3c0,0,0,0,0,0l21.7,21.6v8.7
		c0,15.5,12.5,28,28,28c17.5-0.1,29.5-14.9,28-32h72c10.6,0.4,10.6,15.6,0,16h-56c-4.4,0-8,3.6-8,8s3.6,8,8,8h72
		C-64,512.9-60.3,521.8-65.3,526.7L-65.3,526.7z M81,273.8V249c0-4.4-3.6-8-8-8v-72c0-4.4-3.6-8-8-8H17c-4.4,0-8,3.6-8,8v8h-88
		c-2.1,0-4.2,0.8-5.7,2.3l-40,40c-3.1,3.1-3.1,8.2,0,11.3c0,0,0,0,0,0l24,24c3.1,3.1,8.2,3.1,11.3,0c0,0,0,0,0,0l29.6-29.7H9v16
		c-4.4,0-8,3.6-8,8v24.8c-18.6,3.8-32,20.2-32,39.2v320c0,4.4,3.6,8,8,8h128c4.4,0,8-3.6,8-8V313C113,294,99.6,277.6,81,273.8
		L81,273.8z M97,417c-17.1-13.4-43.5-9.4-56,8c-12.5-17.4-38.9-21.4-56-8v-96H97V417z M97,449c0,13.3-10.7,24-24,24
		c-31.8-1.3-31.8-46.7,0-48C86.3,425,97,435.7,97,449z M17,257h48v16H17V257z M-63,209c-2.1,0-4.2,0.8-5.7,2.3L-95,237.7l-12.7-12.7
		l32-32H9v16H-63z M25,217v-40h32v64H25V217z M9,289h64c10.2,0,19.2,6.4,22.6,16H-13.6C-10.2,295.4-1.2,289,9,289z M-15,625V449
		c0-13.3,10.7-24,24-24s24,10.7,24,24c0,22.1,17.9,40,40,40c8.7,0,17.1-2.8,24-8v144H-15z M-159,364.3c16.9,17.6,47.2,17.6,64.1,0
		c15.2-15.3,17.6-39.2,5.7-57.2l-31-46.6c-2.4-3.7-7.4-4.7-11.1-2.2c-0.9,0.6-1.6,1.3-2.2,2.2l-31,46.6
		C-176.5,325.1-174.2,349-159,364.3z M-151.4,316l24.4-36.6l24.4,36.6c13,19.2-1.2,45.8-24.4,45.6
		C-150.2,361.8-164.3,335.2-151.4,316z M-279,297c26.5,0,48-21.5,48-48c-2.6-63.7-93.4-63.7-96,0C-327,275.5-305.5,297-279,297z
		 M-279,217c17.7,0,32,14.3,32,32l0,0c-1.8,42.5-62.2,42.4-64,0C-311,231.3-296.7,217-279,217z M-367,353c0-4.4,3.6-8,8-8h8v-8
		c0-4.4,3.6-8,8-8s8,3.6,8,8v8h8c4.4,0,8,3.6,8,8s-3.6,8-8,8h-8v8c0,4.4-3.6,8-8,8s-8-3.6-8-8v-8h-8C-363.4,361-367,357.4-367,353z
		 M-207,201c0-4.4,3.6-8,8-8h8v-8c0-4.4,3.6-8,8-8s8,3.6,8,8v8h8c4.4,0,8,3.6,8,8s-3.6,8-8,8h-8v8c0,4.4-3.6,8-8,8s-8-3.6-8-8v-8h-8
		C-203.4,209-207,205.4-207,201z M-47,417c0,4.4-3.6,8-8,8h-8v8c0,4.4-3.6,8-8,8s-8-3.6-8-8v-8h-8c-4.4,0-8-3.6-8-8s3.6-8,8-8h8v-8
		c0-4.4,3.6-8,8-8s8,3.6,8,8v8h8C-50.6,409-47,412.6-47,417z M17,505c-13.3,0-24,10.7-24,24c1.3,31.8,46.7,31.8,48,0
		C41,515.7,30.3,505,17,505z M17,537c-4.4,0-8-3.6-8-8c0.4-10.6,15.6-10.6,16,0C25,533.4,21.4,537,17,537z M65,585c0,4.4-3.6,8-8,8
		c-10.6-0.4-10.6-15.6,0-16C61.4,577,65,580.6,65,585z M25,369c0-4.4,3.6-8,8-8c10.6,0.4,10.6,15.6,0,16C28.6,377,25,373.4,25,369z
		 M1,449c0-4.4,3.6-8,8-8c10.6,0.4,10.6,15.6,0,16C4.6,457,1,453.4,1,449z"/>
</g>
</svg>
