<?xml version="1.0" encoding="utf-8"?>
<!-- Generator: Adobe Illustrator 25.2.0, SVG Export Plug-In . SVG Version: 6.00 Build 0)  -->
<svg version="1.1" id="Warstwa_1" xmlns="http://www.w3.org/2000/svg" xmlns:xlink="http://www.w3.org/1999/xlink" x="0px" y="0px"
	 viewBox="0 0 825 472" style="enable-background:new 0 0 825 472;" xml:space="preserve">
<style type="text/css">
	.st0{clip-path:url(#SVGID_2_);fill:url(#SVGID_3_);}
	.st1{fill:#FFFFFF;}
	.st2{font-family:'Montserrat-Regular';}
	.st3{font-size:45.5448px;}
	.st4{font-family:'Montserrat-Black';}
	.st5{font-size:40px;}
	.st6{letter-spacing:2;}
	.st7{fill:#207254;}
	.st8{fill:#FCC812;}
	.st9{fill:#2C8968;}
	.st10{fill:#FEE9A0;}
	.st11{fill:none;stroke:#404040;stroke-width:0.6573;stroke-miterlimit:10;}
	.st12{fill:#404040;}
	.st13{opacity:0.1;enable-background:new    ;}
	.st14{fill:none;}
	.st15{fill:none;stroke:#FFFFFF;stroke-miterlimit:10;}
	.st16{fill:none;stroke:#FFFFFF;stroke-width:1.2354;stroke-miterlimit:10;}
	.st17{font-size:14px;}
</style>
<g>
	<g>
		<g>
			<g>
				<defs>
					<rect id="SVGID_1_" y="0" width="825" height="472"/>
				</defs>
				<clipPath id="SVGID_2_">
					<use xlink:href="#SVGID_1_"  style="overflow:visible;"/>
				</clipPath>
				
					<linearGradient id="SVGID_3_" gradientUnits="userSpaceOnUse" x1="-1221.6514" y1="-744.9039" x2="-1220.0454" y2="-744.9039" gradientTransform="matrix(526.5874 0 0 526.5874 643269.5 392569.0938)">
					<stop  offset="0" style="stop-color:#379E6E"/>
					<stop  offset="1" style="stop-color:#72C6D4"/>
				</linearGradient>
				<rect x="-36.7" y="-127.98" class="st0" width="880.1" height="880.1"/>
			</g>
		</g>
	</g>
</g>
<text transform="matrix(1 0 0 1 59.62 134.558)" class="st1 st2 st3">Dlaczego warto być</text>
<text transform="matrix(1 0 0 1 59.62 182.558)" class="st1 st4 st5 st6">ECO friendly?</text>
<g>
	<path class="st7" d="M625.3,332.01c-17.65,24.01-40.51,38.95-65.14,46.61c-0.01,0.01-0.04,0.01-0.05,0.01
		c-2.18,0.68-4.37,1.3-6.57,1.86c-2.32,0.6-4.66,1.13-7.01,1.59v0.01c-33.06,6.63-68.08,1.22-97.24-12.26
		c-16.34-7.56-30.18-20.49-38.48-36.35c8.44-6.03,24.19-11.75,51.22-4.44c46.35,12.54,81.88,42.16,112.74,20.56
		C596.6,334.32,612.6,329,625.3,332.01z"/>
	<ellipse class="st8" cx="527.35" cy="419.43" rx="87.89" ry="10.2"/>
	<ellipse class="st9" cx="527.35" cy="419.43" rx="87.89" ry="10.2"/>
	<path class="st10" d="M604.81,325.93c-0.01-0.01-0.03-0.03-0.04-0.05c-0.05-0.07-0.11-0.14-0.15-0.2c-0.1-0.12-0.19-0.24-0.28-0.35
		c0,0,0-0.01-0.01-0.01l-2.91-2.95c-0.02-0.02-0.05-0.04-0.07-0.06l-9.79-9.91c-0.03-0.03-0.06-0.07-0.09-0.1
		c-0.5-0.59-4.17-4.95-5.74-7.38c-0.02-0.03-0.03-0.05-0.05-0.08c-0.16-0.24-0.29-0.46-0.39-0.65c-0.19-0.35-0.47-0.75-0.81-1.16
		c-0.03-0.03-0.05-0.05-0.07-0.08c-1.55-1.81-4.36-4.05-6.93-5.45c-0.04-0.02-0.08-0.04-0.12-0.06c-0.56-0.3-1.09-0.56-1.61-0.77
		c-0.03-0.01-0.07-0.03-0.11-0.05c0,0,1.61-0.77,1.43-2.73c-0.01-0.05-0.01-0.11-0.03-0.16c0-0.04-0.01-0.08-0.02-0.12
		c-0.01-0.03-0.01-0.07-0.02-0.09c-0.41-1.65-2.5-3.89-4.36-5.17c-0.16-0.1-0.31-0.2-0.47-0.31c-0.14-0.09-0.28-0.18-0.41-0.24
		c-0.06-0.03-0.12-0.07-0.18-0.1h-0.01v-0.01l-0.52-4.95h-0.9l-0.26-3.05c0,0,0.02-1.2,0.07-3.12c0.01-0.1,0.01-0.2,0.01-0.31
		c0.12-4.61,0.39-12.9,0.88-18.83v-0.02c0.71-8.64,1.74-18.24,2.12-23.5c0.01-0.05,0.01-0.11,0.01-0.16c0-0.03,0-0.06,0.01-0.09
		c0.02-0.3,0.05-0.6,0.07-0.89c0.03-0.26,0.05-0.53,0.07-0.79c0.33-3.77,0.74-7.24,0.15-8.75c-0.12-0.31-0.28-0.54-0.5-0.68
		c-1.19-0.75-3.07,4.06-4.48,8.76v0.01c-0.27,0.92-0.53,1.84-0.76,2.71c-0.03,0.12-0.07,0.23-0.1,0.35
		c-1.02,3.88-3.48,13.44-4.84,21.02c-0.64,3.51-1.03,6.59-0.94,8.49c-0.01,0.01-0.01,0.02,0,0.03c0.3,6.07,0.72,6.59,2.2,11.19
		c1.41,4.36,1.7,7.12,1.73,7.38v0.02l-0.71,0.13l-0.57,0.11l-0.45,2.88c0,0-1.59-0.07-2.99,0.6c-0.5,0.23-0.98,0.57-1.36,1.03
		l-0.03-0.01c-0.08-0.02-0.31-0.07-0.68-0.15c0,0-0.01-0.01-0.01,0c-0.9-0.18-2.6-0.44-4.78-0.5c-1.58-0.03-3.41,0.03-5.38,0.33
		c-0.02,0-0.04,0.01-0.06,0.01c-5.39,0.83-10.12,2.57-11.83,3.61c-0.06,0.03-0.12,0.07-0.17,0.1c0,0-0.01,0-0.01,0.01
		c-0.06,0.03-0.12,0.07-0.18,0.13c-0.03,0.01-0.06,0.04-0.09,0.07c-0.02,0.01-0.04,0.03-0.06,0.05s-0.05,0.04-0.07,0.07
		c-0.03,0.03-0.05,0.05-0.07,0.07c-0.54,0.65-0.99,2.17-1.15,3.74v0.03c-0.1,1-0.09,2.03,0.1,2.86c0.03,0.17,0.08,0.32,0.13,0.45
		c0.01,0.02,0.01,0.03,0.01,0.03l6.48,0.38l2.96,0.18l4,0.23v0.01l-0.59,13.39c0,0-1.65,1.2-3.62,2.9c-1.47,1.28-3.1,2.82-4.36,4.34
		c-0.12,0.14-0.22,0.27-0.33,0.41c-0.14,0.18-0.27,0.37-0.41,0.55c-0.04,0.05-0.08,0.09-0.11,0.15c-1.46,2.06-3.28,5.32-4.88,8.28
		c-1.62,3-3.03,5.69-3.62,6.51l-0.01,0.01c-0.7,0.98-1.97,3.5-3.26,5.81c-1.04,1.88-2.1,3.62-2.86,4.27
		c-0.01,0.01-0.02,0.01-0.03,0.02c-1.69,1.45-2.73,3.01-1.87,3.41c0.87,0.39,2.26,0.16,4.84-1.95c0.03-0.01,0.05-0.04,0.08-0.06
		c2.55-2.1,9.06-10.75,9.46-11.29c0.47-0.57,0.94-1.15,1.42-1.72c0.19-0.24,0.39-0.48,0.59-0.72c1.16-1.4,2.64-3.2,3.93-4.76
		c0.33-0.41,0.66-0.81,1-1.21c0.19-0.24,0.39-0.47,0.59-0.71c0.43-0.52,0.86-1.04,1.3-1.56c1.33-1.53,1.63-1.29,1.63-1.29l-0.1,2.39
		l-0.07,1.55v0.01l-2.41,87.26c2.15-0.43,4.29,0.55,6.42,0c2.02-0.52,6,0.62,8,0c0.01,0,0.03,0.01,0.05,0l-3.23-101.98v-0.16
		c0.03-0.03,0.06-0.06,0.09-0.09l1.43-1.57l7.36-8.1c0.02-0.03,0.04-0.05,0.07-0.07c0,0,0.14,0.1,0.34,0.2
		c0.33,0.17,0.85,0.34,1.28,0.07c0.69-0.45,2.12-3.58,2.12-3.58l1.9-0.49c0,0,0.01-0.01,0.05-0.01c0.01,0,0.01,0,0.02-0.01
		l0.93-0.24l0.79,0.75l4.91,4.55c0.07,0.06,0.14,0.13,0.2,0.19l26.8,24.9c0.01,0.01,0.03,0.02,0.04,0.03
		c0.16,0.19,1.69,1.85,2.67,1.36C608.03,330.24,605.83,327.24,604.81,325.93z M557.24,304.81c-0.16,0.18-0.29,0.34-0.42,0.48
		c-0.02,0.02-0.04,0.04-0.05,0.06c-0.27,0.31-0.46,0.52-0.52,0.59c-0.03,0.02-0.03,0.03-0.03,0.03v-6.39h0.03l0.58,0.01l3.52,0.02
		l0.19,0.78l0.03,0.12c-0.13,0.2-0.26,0.39-0.39,0.58C559.26,302.41,558.08,303.84,557.24,304.81z"/>
	<path class="st8" d="M573.49,298.03l-0.88,1.58l-0.8-0.74l-0.95,0.24c-0.03,0.01-0.05,0.01-0.05,0.01l-1.9,0.49
		c0,0-1.43,3.13-2.11,3.57c-0.43,0.28-0.95,0.1-1.29-0.06l0.45-1.17c0,0-1.01-3.12-4.45-2.89l-0.3,1.89c0,0-1.34-2.2-1.29-2.51
		c0.06-0.31-1.86-2.33-2.15-5.3c-0.3-2.96,1.17-8.76,8.75-7.19c0,0-2.45,0.24-3.44,4.29C562.08,294.3,568.08,297.16,573.49,298.03z"
		/>
	<polygon class="st8" points="547.3,327.73 554.52,320.22 553.82,315.57 547.75,323.06 	"/>
	<path class="st8" d="M552.45,293.56v-0.97l4.14,4.08l-0.34,2.7v6.8c-1.07,1.08-2.9,2.55-3.76,3.22
		C552.58,300.09,552.58,293.86,552.45,293.56z"/>
	<path class="st8" d="M559.45,414.89c-0.01,0.01-0.03,0-0.05,0c-1.99,0.62-5.97-0.52-8,0c0.22-12.43,0.5-62.98,0.73-78.49
		c0.07-4.47,0.13-8.85,0.18-12.98c0.01-0.32,0.01-0.63,0.01-0.94c0.03-1.77,0.05-3.49,0.07-5.16v-0.05l0.52-0.59l0.92-1.04
		l2.39-2.73l0.01-0.01L559.45,414.89z"/>
	<path class="st8" d="M607.22,330.65c-1.04,0.52-2.69-1.37-2.69-1.37l-32.73-30.41l-0.95,0.24c0.36-0.1,2.7-0.78,4.9-2.44
		c3.52,1.42,8.32,5.26,9.55,7.53c1.24,2.29,6.23,8.18,6.23,8.18l12.8,12.96C604.34,325.33,608.26,330.13,607.22,330.65z"/>
	<path class="st8" d="M557.96,290.81c0,0-19.3-1.14-21.36-0.18c-2.06,0.96-2.01,5.78-1.38,7.5l24.68,1.45l0.02-1.14l0.06-0.31
		C559.98,298.13,557.43,296.35,557.96,290.81z"/>
	<path class="st8" d="M563.89,299.37c0,0-3.56,7.71-8.26,11.04c-4.7,3.33-13.9,9.68-21.83,19.2c0,0,4.11-9.05,8.65-12.81
		c4.54-3.76,10.65-7.36,12.51-9.31c1.86-1.94,6.55-8.42,6.55-8.42L563.89,299.37z"/>
	<path class="st8" d="M568.29,231.5c-2.77,13.93-3.52,33.35-1.74,40.18s1.19,11.05,1.19,11.05h-2.83v-0.1l0.7-0.13
		c0,0-0.24-2.81-1.73-7.4c-1.49-4.6-1.91-5.12-2.21-11.19c-0.3-6.07,4.47-24.55,5.88-29.86c0.23-0.88,0.5-1.81,0.77-2.74
		C568.32,231.36,568.3,231.43,568.29,231.5z"/>
	<path class="st11" d="M563.89,285.61c-2.27,0.09-4.01,0.61-5.09,2.77c-1.59,3.17-1.43,7.39,1.19,9.76"/>
	<path class="st11" d="M568.91,299.61c4.24-0.84,8.01-3.18,8.16-5.32c0.15-2.08-2.36-4.93-5.8-6.79"/>
	<path class="st11" d="M571.59,287.69l-0.52-4.96h-6.74l-0.45,2.88c0,0,1.29-0.04,3.85,0.65"/>
	<path class="st11" d="M565.59,282.72c0,0,0.59-3.27-2.6-9.55c-3.2-6.29-0.03-21.11,2.65-31.78c2.68-10.67,4.93-18.38,7.18-18.86
		c2.25-0.47-1.89,27.16-2.13,39.14c-0.24,11.98-1.08,14.98-0.64,21.06"/>
	<path class="st11" d="M565.96,301.95c0,0-1.75-3.81-4.45-2.89c-2.28,3.53-5,7.55-8.47,10c-3.65,2.57-7.47,4.45-10.59,7.74
		c-3.05,3.22-5.47,7-7.6,10.88c-3.67,6.66-6.7,13.76-11.58,19.58c-0.41,0.49-0.86,1.17-0.53,1.72c0.37,0.63,1.33,0.42,1.97,0.07
		c4-2.13,6.45-6.14,9.25-9.54c2.22-2.7,4.43-5.41,6.65-8.1c5.1-6.19,10.23-12.35,15.44-18.45c1.97-2.3,3.95-4.6,5.98-6.86
		C562.33,305.77,566.05,302.16,565.96,301.95z"/>
	<path class="st11" d="M560.71,300.28c0,0-0.76-1.25-0.79-1.84c-0.03-0.58,1.29-2.46,1.29-2.46"/>
	<path class="st11" d="M565.17,302.91c0,0,1.3,0.6,1.79,0s2.15-3.67,2.15-3.67s-2.24-2.89-3.94-3.25"/>
	<path class="st11" d="M571.96,298.81c6.55,6.31,32.91,31.84,34.6,31.84c1.93,0-0.8-3.51-2.21-5.31
		c-1.41-1.8-14.92-13.79-18.65-20.49c-2.38-4.27-7.23-7.03-10.05-8.22"/>
	<path class="st11" d="M560.34,299.61l-5.63-0.33l-3-0.18l-7.06-0.41l-2.96-0.18l-6.48-0.38c0,0-1.11-5.93,1.38-7.5
		c1.68-1.06,6.77-2.54,10.67-3.42c1.87-0.42,3.46-0.7,4.27-0.73c0.69-0.02,1.63,0.03,2.63,0.12c1.25,0.11,2.59,0.27,3.67,0.41
		c0.5,0.06,1.35,0.08,1.7,0.13"/>
	<line class="st11" x1="548.06" y1="312.32" x2="548.65" y2="298.92"/>
	<polyline class="st11" points="547.59,323.01 547.47,326.02 547.46,326.08 547.39,327.63 547.39,327.64 544.98,414.89 
		544.98,414.89 	"/>
	<path class="st11" d="M559.4,414.89c-0.26-12.29-2.56-64.19-2.82-78.9c-0.08-4.63-0.16-9.08-0.22-13.2
		c-0.05-3.6-0.1-6.94-0.14-9.88c0-0.05,0-0.1,0-0.15v-0.01"/>
	<path class="st11" d="M556.25,299.37c-0.1-0.01-0.08,2.4-0.05,6.87"/>
	<path class="st12" d="M554.17,286.6c-1.63,0.52-7.98,2.61-8.66,3.77c-0.95,1.61-0.91,6.33-0.85,8.32l-2.96-0.18
		c-0.06-2.42-0.03-7.02,0.94-8.64c0.79-0.95,2.73-1.9,4.63-2.66c1.87-0.42,3.46-0.7,4.27-0.73
		C552.22,286.46,553.16,286.51,554.17,286.6z"/>
	<path class="st12" d="M559.54,287.25c0,0-3.81,1.74-4.5,3.59c-0.58,1.54-0.4,6.73-0.32,8.44l-3-0.18c0.01-2.16,0.06-7.28,0.37-8.61
		c0.38-1.7,5.76-3.48,5.76-3.48l1.28,0.18L559.54,287.25z"/>
	<path class="st11" d="M556.36,322.79c-0.94,0.21-2.86,0.59-5.3,0.72v12.79c0,0,2.91,0.43,5.52-0.31"/>
	<path class="st12" d="M548.65,298.92c0,0,2.79,3.46,7.6,4.06l-0.04-3.76L548.65,298.92z"/>
	<path class="st13" d="M556.22,312.91l-2.39,2.73l0,0l-0.01-0.07l-0.9,1.1l-0.01,0.01l-0.52,0.59v0.05l-4.65,5.74l-0.45,4.67
		l5.04-5.25c0,0.31-0.01,0.62-0.01,0.94c-0.05,4.13-0.12,8.51-0.18,12.98c-0.23,15.52-0.52,66.06-0.73,78.49c2.02-0.52,6,0.62,8,0
		c0.01,0,0.03,0.01,0.05,0L556.22,312.91L556.22,312.91z"/>
	<path class="st13" d="M604.34,325.33l-12.8-12.96c0,0-5-5.88-6.23-8.18c-1.22-2.26-6.03-6.11-9.55-7.53
		c-0.78,0.59-1.58,1.05-2.3,1.41l0.03-0.04c-5.41-0.87-11.41-3.73-10.41-7.79c0.99-4.05,3.44-4.29,3.44-4.29
		c-5.86-1.21-8.06,1.97-8.62,4.85c-1.2-0.07-19.3-1.1-21.3-0.17c-2.06,0.96-2.01,5.78-1.38,7.5l17.34,1.02
		c0,2.66-0.03,6.15-0.07,10.24c0.69-0.54,2.02-1.61,3.07-2.57c-0.22,0.26-0.42,0.48-0.6,0.67c-1.86,1.94-7.97,5.55-12.51,9.31
		c-4.54,3.76-8.65,12.81-8.65,12.81c7.92-9.52,17.13-15.87,21.83-19.2c4.33-3.07,7.7-9.87,8.19-10.91c1.6,0.81,2.13,2.45,2.13,2.45
		l-0.45,1.17c0.33,0.17,0.86,0.34,1.29,0.06c0.69-0.45,2.11-3.57,2.11-3.57l1.9-0.49c0,0,0.02,0,0.05-0.01l0.95-0.24l32.73,30.41
		c0,0,1.65,1.88,2.69,1.37C608.26,330.13,604.34,325.33,604.34,325.33z M559.5,297.66c-0.36-0.42-0.84-1.15-1.19-2.3
		C558.69,296.34,559.16,297.13,559.5,297.66z M556.25,306v-6.63l3.65,0.21l0.02-1.14l0,0l0,0c-0.03,0.18,0.42,1.03,0.8,1.69
		C559.66,301.58,557.73,304.18,556.25,306z M561.51,299.06L561.51,299.06c0.71-0.05,1.31,0.05,1.83,0.23L561.51,299.06z"/>
	<path class="st13" d="M563.89,275.09c1.49,4.59,1.73,7.4,1.73,7.4l-0.7,0.13v0.1h2.83c0,0,0.59-4.22-1.19-11.05
		s-1.03-26.25,1.74-40.18c0.01-0.07,0.03-0.14,0.04-0.21c-0.28,0.93-0.54,1.86-0.77,2.74c-1.41,5.31-6.18,23.79-5.88,29.86
		C561.98,269.97,562.4,270.49,563.89,275.09z"/>
	<polygon class="st14" points="506.63,275.78 509.02,272.96 506.62,275.59 	"/>
	<path class="st10" d="M572.78,274.92l-8.59-7c0,0-12.77-12.86-14.79-16.59c-1.99-3.68-5.2-6.65-10.94-8.96
		c-0.06-0.03-0.12-0.05-0.18-0.07c0,0,2.63-1.25,2.33-4.45c-0.28-3.2-5.4-8.31-8.94-10.09l-0.84-8.07h-1.46l-0.43-4.96
		c0,0,0.4-22.21,1.56-36.26c1.15-14.05,2.2-21.11,2.83-29.67c0.62-8.57,1.77-6.87-0.56-8.32c-1.95-1.21-6.99,12.76-7.37,14.19
		c-2.3,8.64-8.53,25.88-8.53,35.77c0,8.44-1.26,11.65,2.24,16.83c4.4,6.5,2.82,12.04,2.82,12.04l-1.15,0.21l-0.94,0.17l-0.42,2.67
		l-0.31,2.03c0,0-4.76-0.22-7.09,2.67c0,0-7.8-2.04-17.75-0.54s-18.52,4.94-20.2,6.46c-1.68,1.52-2.94,8.3-1.71,11.79l21.91,1.28
		v0.11l12.32,1.02v-0.04l1,0.01l5.75,0.03l0.14,0.57l0.65,0.05l-0.65-0.05l1.27,1.36c-1.53,2.39-4.37,5-5.93,6.81
		c-1,1.15-2.22,1.61-2.22,1.61v-0.11c-1.97,2.04-5.31,5.32-7.96,7.01c-2.04,1.31-4.6,3.02-6.61,4.39c-2.6,2-6.64,6.55-10.3,12.88
		c-3.82,6.62-10.75,17.9-14.43,22.48c-1.67,4.74,7.38-1.66,7.38-1.66s12.91-15.05,15.39-18.02c1.08-1.29,15.58-17.29,15.58-17.29
		l7.29-7.88l7.43-7.45c0,0,1.06,0.84,1.39,1.01c0.54,0.27,1.4,0.55,2.1,0.1c1.12-0.73,3.45-5.81,3.45-5.81l3.1-0.79
		c0,0,0.03-0.01,0.07-0.02l2.01-0.52l0.96,1.11l42.02,34.46l1.61,0.07l-0.69-2.09L572.78,274.92z"/>
	<polygon class="st10" points="499.21,274.52 497.91,304.3 495.87,350.62 493.74,414.89 515.83,399.17 512.94,259.31 	"/>
	<path class="st14" d="M506.6,264.56c0,0,0.69-0.75,1.68-1.89c0,0-0.66,0.73-1.68,1.79V264.56z"/>
	<path class="st14" d="M508.28,262.67c1.56-1.81,3.88-4.61,5.41-7l-0.21-0.89l-0.14-0.57l-5.75-0.03l-1-0.01v0.04v10.24
		C507.62,263.4,508.28,262.67,508.28,262.67z"/>
	<path class="st10" d="M512.93,257.78v-10.24l-12.32-1.02l-0.96,21.69c0,0-0.49,0.35-1.29,0.97c2.02-1.37,4.57-3.08,6.61-4.39
		C507.62,263.1,510.96,259.83,512.93,257.78z"/>
	<polygon class="st14" points="513.34,254.21 507.6,254.17 506.6,254.17 506.6,254.21 513.48,254.78 	"/>
	<path class="st14" d="M508.28,262.67c1.56-1.81,3.88-4.61,5.41-7l-0.21-0.89l-6.88-0.57v10.35
		C506.6,264.56,507.28,263.81,508.28,262.67z"/>
	<path class="st8" d="M534.77,244.59l-1.4,0.81l-1.34,0.55l-1.55,0.39c-0.05,0.01-0.07,0.02-0.07,0.02l-3.1,0.79
		c0,0-2.33,5.09-3.45,5.81c-0.7,0.45-3.07-0.34-3.61-0.61l2.05-2.52c0,0-0.57-3.85-5.66-3.4l-1.89,2.9c0,0-2.19-3.58-2.1-4.08
		s-3.03-3.79-3.51-8.62c-0.48-4.82,1.9-14.25,14.26-11.7c0,0-3.99,0.39-5.62,6.98C516.16,238.52,525.95,243.17,534.77,244.59z"/>
	<polygon class="st8" points="498.64,282.39 510.41,270.16 509.38,263.25 499.38,274.79 	"/>
	<path class="st8" d="M507.04,237.31v-1.58l6.74,6.64l-0.55,4.4v11.07c-1.75,1.76-4.73,4.15-6.13,5.24
		C507.25,247.94,507.26,237.81,507.04,237.31z"/>
	<path class="st8" d="M515.83,414.89h-11c0.28-15.16,2.68-104.85,3.23-150.33l4.84-4.64L515.83,414.89z"/>
	<path class="st8" d="M576.64,281.67c-1.7,0.84-43.92-36.01-43.92-36.01l-0.86-0.43c0.59-0.16,3.21-0.44,6.8-3.14
		c5.74,2.31,10.06,7.43,12.05,11.11c2.01,3.73,13.19,13.2,13.19,13.2l10.55,10.37C574.44,276.77,578.34,280.82,576.64,281.67z"/>
	<path class="st8" d="M509.45,232.84c0,0-31.46-1.85-34.83-0.29c-3.36,1.56-3.27,9.41-2.25,12.2l40.24,2.36l0.04-1.86l0.09-0.5
		C512.74,244.75,508.59,241.86,509.45,232.84z"/>
	<path class="st8" d="M519.11,246.76c0,0-4.78,14.42-13.47,17.97c-15.88,6.48-22.4,20.15-35.32,35.64c0,0,9.2-15.24,14.32-23.36
		c7.57-12.01,15.7-15.45,19.46-17.7c8.54-5.1,12.53-12.87,12.53-12.87L519.11,246.76z"/>
	<path class="st8" d="M523.46,201.71c3.22,11.02,1.94,17.97,1.94,17.97h-4.61v-0.17l1.15-0.21c0,0,1.37-3.06-2.2-10.05
		c-1.71-3.34-2.3-2.39-3-12.24c-0.7-9.87,7.98-44.61,13.48-54.23C530.95,141.49,517.47,181.21,523.46,201.71z"/>
	<path class="st11" d="M519.11,224.37c-3.7,0.14-6.54,1-8.31,4.5c-2.59,5.15-2.32,12.02,1.94,15.88"/>
	<path class="st11" d="M527.3,247.16c6.91-1.36,13.06-5.17,13.31-8.65c0.24-3.38-3.85-8.02-9.46-11.05"/>
	<path class="st11" d="M531.68,227.75l-0.84-8.07h-10.99l-0.73,4.69c0,0,2.1-0.07,6.28,1.06"/>
	<path class="st11" d="M522.22,219.68c0,0,0.86-4.3-3.8-12.57c-4.67-8.27-0.05-27.78,3.87-41.82c3.91-14.04,7.2-24.19,10.49-24.81
		s-2.77,35.74-3.11,51.5c-0.35,15.76-1.58,19.71-0.93,27.71"/>
	<path class="st11" d="M522.3,249.83c0,0-2.23-4.48-5.66-3.4c-2.91,4.15-6.36,8.88-10.77,11.76c-4.64,3.02-9.5,5.23-13.47,9.1
		c-3.88,3.79-6.96,8.23-9.67,12.79c-4.66,7.83-8.52,16.19-14.72,23.03c-0.52,0.58-1.09,1.37-0.68,2.02
		c0.48,0.74,1.69,0.49,2.51,0.09c5.09-2.51,8.2-7.22,11.77-11.22c2.82-3.17,5.63-6.36,8.46-9.53c6.49-7.28,13.01-14.53,19.64-21.7
		c2.51-2.71,5.03-5.41,7.6-8.07C517.69,254.33,522.42,250.07,522.3,249.83z"/>
	<path class="st11" d="M513.94,248.25c0,0-1.24-2.04-1.29-2.99c-0.05-0.95,2.1-4,2.1-4"/>
	<path class="st11" d="M521.21,252.53c0,0,2.12,0.98,2.92,0s3.5-5.98,3.5-5.98s-3.65-4.69-6.42-5.29"/>
	<path class="st11" d="M532.49,245.66c8.32,7.32,41.6,36.07,43.74,36.07c2.45,0-1.01-4.07-2.81-6.16s-18.96-15.98-23.7-23.75
		c-3.02-4.95-7.86-8.14-11.44-9.53"/>
	<path class="st11" d="M513.34,247.16l-9.18-0.54l-4.88-0.29l-11.51-0.67l-4.83-0.28l-10.56-0.62c0,0-1.8-9.65,2.25-12.2
		c2.74-1.73,11.04-4.14,17.39-5.56c3.05-0.69,5.64-1.15,6.96-1.19c1.12-0.03,2.65,0.05,4.29,0.19c2.04,0.18,4.23,0.44,5.98,0.67
		c0.81,0.1,2.2,0.13,2.77,0.21"/>
	<line class="st11" x1="500.21" y1="261.43" x2="500.85" y2="246.96"/>
	<path class="st11" d="M512.94,259.31c0.51,43.44,2.89,155.58,2.89,155.58h-22.09l5.47-140.38"/>
	<path class="st12" d="M503.27,225.99c-2.66,0.85-13.01,4.25-14.12,6.13c-1.55,2.62-1.49,10.31-1.38,13.53l-4.83-0.28
		c-0.09-3.93-0.05-11.42,1.54-14.06c1.3-1.54,4.44-3.09,7.54-4.32c3.05-0.69,5.64-1.15,6.96-1.19
		C500.1,225.77,501.63,225.85,503.27,225.99z"/>
	<path class="st12" d="M512.03,227.04c0,0-6.21,2.84-7.34,5.85c-0.94,2.51-0.66,10.95-0.53,13.73l-4.88-0.29
		c0.01-3.51,0.1-11.85,0.6-14.01c0.62-2.76,9.39-5.66,9.39-5.66l2.09,0.28L512.03,227.04z"/>
	<path class="st11" d="M513.42,291.92c-1.53,0.35-4.66,0.96-8.64,1.17v20.81c0,0,4.74,0.69,9-0.51"/>
	<path class="st12" d="M513.21,251.23c-0.61,0.67-1.28,1.37-1.87,1.98c-6.69-1.61-10.67-6.8-10.67-6.8l12.5,1.05L513.21,251.23z"/>
	<path class="st7" d="M588.95,419.43c0.45-3.47,0.69-9.86-2.81-13.34c-4.96-4.96-12.4,3.1-14.26,3.1s-2.48-4.96-8.07-9.3
		c-5.58-4.34-12.4,1.24-16.12,0s3.1-20.46-7.44-21.08s-14.26,26.04-21.69,26.04s-8.68-4.96-16.12-0.62
		c-5.83,3.4-8.99,11.74-10.09,15.2L588.95,419.43L588.95,419.43z"/>
	<line class="st11" x1="512.56" y1="419.01" x2="506.25" y2="408.76"/>
	<line class="st11" x1="536.76" y1="418.74" x2="540.08" y2="387.41"/>
	<line class="st11" x1="555.97" y1="419.01" x2="559.22" y2="407.1"/>
	<line class="st11" x1="579.58" y1="419.01" x2="582.79" y2="411.25"/>
	<polyline class="st11" points="513.46,409.04 510.14,414.86 502.37,411.81 	"/>
	<polyline class="st11" points="535.09,389.91 538.97,396.84 544.24,390.46 	"/>
	<polyline class="st11" points="532.87,401 537.87,407.1 542.86,403.22 	"/>
	<line class="st11" x1="557.83" y1="412.37" x2="564.48" y2="408.49"/>
	<line class="st11" x1="557.28" y1="414.59" x2="553.94" y2="405.99"/>
	<line class="st11" x1="581.12" y1="415.42" x2="579.45" y2="409.87"/>
	<line class="st11" x1="580.56" y1="416.53" x2="585.28" y2="414.59"/>
	<path class="st1" d="M646.44,213.26h27.11c0,0,1.32-3.99-3.49-6.62c-4.8-2.62-7-0.44-8.75-2.62s4.81-7.88-8.31-13.56
		c0,0-0.88-12.29-18.82-12.69c-17.94-0.4-13.12,12.29-17.94,15.36c-4.81,3.07-6.15-1.75-10.94,1.31s-2.62,9.22-6.56,10.06
		c-3.93,0.84-9.22-3.93-14-0.87s-4.81,5.68-7.01,5.68c-2.19,0-6.56-1.75-9.22,0s-5.7,3.94-5.7,3.94h78.07"/>
	<path class="st1" d="M405.16,291.67h62.03c0,0-1.7-1.23-3.19-2.21c-1.49-0.98-3.94,0-5.17,0s-1.25-1.47-3.93-3.19
		s-5.64,0.96-7.85,0.49c-2.2-0.47-0.99-3.92-3.67-5.64c-2.69-1.72-3.43,0.99-6.13-0.73s0-8.83-10.05-8.61s-10.54,7.11-10.54,7.11
		c-7.35,3.19-3.67,6.38-4.65,7.6c-0.98,1.22-2.21,0-4.9,1.47C404.42,289.43,405.16,291.67,405.16,291.67z"/>
	<path class="st15" d="M611.38,248.32c5.4-0.12,10.84,0.55,16.03,1.92c7.34,1.93,14.38,5.13,21.9,6.16
		c7.52,1.03,16.06-0.64,20.68-6.67"/>
	<path class="st15" d="M582.99,258.34c6.48-5.51,14.56-8.6,23.02-9.64"/>
	<path class="st15" d="M657.12,266.01c5.05-0.65,9.82-2.73,12.88-6.72"/>
	<path class="st15" d="M582.99,267.91c11.92-10.14,29.29-12.09,44.42-8.1c7.34,1.93,14.38,5.13,21.9,6.16
		c1.39,0.19,2.82,0.29,4.25,0.28"/>
	<path class="st15" d="M639.4,273.14c3.25,1.03,6.53,1.92,9.91,2.38c7.52,1.03,16.06-0.64,20.68-6.67"/>
	<path class="st15" d="M617.08,267.61c3.5,0.28,6.97,0.87,10.33,1.75c3.37,0.89,6.68,2.04,9.99,3.13"/>
	<path class="st15" d="M582.99,277.47c7.35-6.25,16.76-9.39,26.44-9.94"/>
</g>
<g>
	<g>
		<path class="st16" d="M254.37,222.43c-6.24,0.81-12.13,3.37-15.91,8.3"/>
		<path class="st16" d="M345.95,220.09c-14.73,12.53-36.18,14.93-54.88,10.01c-9.07-2.39-17.76-6.34-27.06-7.61
			c-1.72-0.23-3.48-0.36-5.25-0.35"/>
		<path class="st16" d="M276.25,213.62c-4.02-1.27-8.07-2.38-12.24-2.94c-9.29-1.27-19.85,0.79-25.55,8.24"/>
		<path class="st16" d="M303.83,220.45c-4.32-0.34-8.61-1.07-12.76-2.17c-4.16-1.1-8.25-2.52-12.35-3.87"/>
		<path class="st16" d="M345.95,208.27c-9.08,7.72-20.7,11.6-32.67,12.28"/>
	</g>
</g>
<g>
	<text transform="matrix(1 0 0 1 207.0033 57.7136)" class="st1 st2 st17">Prowadź ekologiczny biznes - dołącz do odpowiedzialnych!</text>
</g>
<g>
	<path class="st1" d="M90.63,404c7.23-0.07,14.06-2.92,19.26-8.02c5.19-5.1,8.16-11.89,8.35-19.11c0.15-5.46-1.29-10.79-4.16-15.42
		c-0.37-0.6-1.05-0.97-1.76-0.97c-0.76,0-1.44,0.4-1.81,1.06c-0.37,0.67-0.35,1.46,0.05,2.12c2.51,4.05,3.72,8.72,3.51,13.51
		c-0.51,11.72-10.85,22.09-22.57,22.64c-6.66,0.32-13.19-2.21-17.92-6.93c-4.72-4.72-7.25-11.25-6.93-17.92
		c0.55-11.72,10.92-22.05,22.65-22.57c4.79-0.21,9.46,1.01,13.51,3.51c0.66,0.41,1.45,0.43,2.12,0.05c0.67-0.37,1.06-1.05,1.06-1.81
		c0-0.71-0.37-1.39-0.97-1.76c-4.63-2.87-9.96-4.31-15.42-4.16c-7.22,0.19-14.01,3.16-19.11,8.35s-7.95,12.03-8.02,19.26
		c-0.07,7.54,2.83,14.63,8.18,19.98c5.27,5.27,12.27,8.18,19.71,8.18C90.45,404,90.54,404,90.63,404"/>
	<path class="st1" d="M90.36,359.31c-0.96,0-1.66,0.49-2.07,1.47l-10.54,25.17c-0.34,0.75-0.29,1.48,0.13,2.15
		c0.42,0.68,1.04,1.02,1.83,1.02c0.4,0,0.79-0.11,1.16-0.34c0.38-0.23,0.68-0.57,0.88-1.02l3.16-7.72h10.97l3.11,7.72
		c0.17,0.43,0.45,0.76,0.83,1c0.38,0.24,0.78,0.36,1.2,0.36c0.81,0,1.44-0.32,1.85-0.96c0.41-0.63,0.46-1.35,0.16-2.13l-10.58-25.25
		C92.07,359.81,91.37,359.31,90.36,359.31 M86.33,376.53l4.09-10l4.03,10H86.33z"/>
	<path class="st1" d="M144.4,378.04c0.31-0.48,0.35-1.01,0.12-1.6l-7.37-17.59c-0.27-0.72-0.81-1.11-1.56-1.11
		c-0.71,0-1.25,0.38-1.56,1.1l-7.34,17.53c-0.25,0.57-0.22,1.11,0.1,1.62c0.31,0.5,0.79,0.77,1.38,0.77c0.3,0,0.59-0.08,0.87-0.25
		c0.29-0.17,0.51-0.43,0.66-0.77l2.17-5.3h7.48l2.13,5.3c0.13,0.32,0.34,0.58,0.63,0.76c0.28,0.18,0.59,0.27,0.91,0.27
		C143.62,378.77,144.1,378.52,144.4,378.04 M132.97,369.75l2.66-6.51l2.62,6.51H132.97z"/>
	<path class="st1" d="M150.52,367.17c0.69-0.32,1.53-0.47,2.49-0.44c0.25,0.01,0.49-0.02,0.69-0.11c0.21-0.09,0.39-0.24,0.53-0.44
		s0.21-0.46,0.21-0.76c0.01-0.42-0.14-1-0.92-1.37c-0.58-0.28-1.34-0.32-2.33-0.12c-0.79,0.16-1.5,0.48-2.12,0.95
		c-0.05-0.34-0.18-0.61-0.39-0.81c-0.28-0.27-0.68-0.41-1.19-0.41c-0.5,0-0.9,0.14-1.18,0.43c-0.28,0.29-0.43,0.68-0.43,1.18v11.9
		c0,0.52,0.15,0.92,0.43,1.2c0.28,0.27,0.68,0.41,1.18,0.41c0.52,0,0.92-0.15,1.2-0.43c0.27-0.28,0.41-0.68,0.41-1.18v-8.8
		C149.4,367.87,149.88,367.47,150.52,367.17"/>
	<path class="st1" d="M163.73,375.55h-0.89c-0.47,0-0.85-0.19-1.18-0.59c-0.34-0.42-0.51-0.93-0.51-1.56v-6.54h2.04
		c0.44,0,0.81-0.13,1.09-0.39c0.29-0.27,0.44-0.61,0.44-1.01c0-0.43-0.15-0.79-0.44-1.06c-0.28-0.26-0.65-0.39-1.09-0.39h-2.04
		v-3.08c0-0.46-0.15-0.85-0.45-1.15s-0.69-0.45-1.15-0.45c-0.46,0-0.85,0.15-1.16,0.45c-0.3,0.3-0.45,0.69-0.45,1.15V364h-0.78
		c-0.44,0-0.81,0.13-1.09,0.39c-0.29,0.27-0.44,0.62-0.44,1.06c0,0.4,0.15,0.74,0.44,1.01c0.28,0.26,0.65,0.39,1.09,0.39h0.78v6.54
		c0,1,0.21,1.92,0.64,2.73c0.42,0.81,1.01,1.46,1.75,1.93s1.59,0.71,2.51,0.71h0.47c0.53,0,0.97-0.15,1.31-0.44
		c0.36-0.3,0.54-0.7,0.54-1.17c0-0.46-0.14-0.84-0.4-1.14C164.47,375.71,164.13,375.55,163.73,375.55"/>
	<path class="st1" d="M208.08,375.07c0.6-1.13,0.91-2.42,0.91-3.84c0-1.42-0.33-2.72-0.99-3.86c-0.66-1.14-1.56-2.05-2.68-2.71
		s-2.41-1-3.84-1c-1.41,0-2.69,0.34-3.81,1s-2.02,1.57-2.67,2.71c-0.65,1.14-0.99,2.44-1.01,3.86v11.92c0,0.46,0.16,0.86,0.47,1.17
		c0.31,0.31,0.7,0.47,1.17,0.47c0.48,0,0.88-0.16,1.18-0.47c0.3-0.31,0.45-0.7,0.45-1.16v-6.29c0.52,0.5,1.11,0.92,1.77,1.24
		c0.9,0.45,1.9,0.67,2.97,0.67c1.32,0,2.53-0.34,3.59-1C206.64,377.1,207.48,376.2,208.08,375.07 M205.25,373.57
		c-0.38,0.69-0.9,1.24-1.55,1.64c-0.64,0.4-1.39,0.6-2.22,0.6c-0.81,0-1.55-0.2-2.21-0.6s-1.18-0.95-1.55-1.64
		c-0.37-0.69-0.56-1.48-0.56-2.35c0-0.89,0.19-1.69,0.56-2.38s0.89-1.24,1.55-1.64c0.65-0.4,1.4-0.6,2.21-0.6
		c0.83,0,1.57,0.2,2.22,0.6s1.17,0.95,1.55,1.64s0.58,1.49,0.58,2.38C205.83,372.09,205.63,372.88,205.25,373.57"/>
	<path class="st1" d="M223.12,376.05c-0.02-0.4-0.21-0.76-0.58-1.08c-0.28-0.24-0.62-0.36-1-0.35c-0.37,0.01-0.71,0.13-1.02,0.36
		c-0.32,0.24-0.76,0.46-1.29,0.65s-1.06,0.28-1.56,0.28c-0.94,0-1.77-0.21-2.49-0.61c-0.72-0.41-1.29-0.97-1.69-1.67
		c-0.21-0.36-0.37-0.76-0.47-1.19h9.57c0.43,0,0.79-0.14,1.07-0.41c0.29-0.28,0.43-0.63,0.43-1.04c0-1.42-0.27-2.69-0.8-3.78
		c-0.54-1.1-1.33-1.98-2.35-2.61c-1.02-0.63-2.25-0.95-3.66-0.95c-1.42,0-2.71,0.33-3.81,0.97c-1.11,0.64-1.98,1.54-2.61,2.68
		c-0.62,1.13-0.94,2.45-0.94,3.92c0,1.46,0.33,2.77,0.99,3.9s1.59,2.03,2.76,2.67c1.16,0.64,2.51,0.97,4,0.97
		c0.83,0,1.71-0.16,2.62-0.46c0.91-0.31,1.68-0.71,2.3-1.2C223.05,376.75,223.13,376.34,223.12,376.05 M213.39,368.79
		c0.34-0.7,0.84-1.26,1.49-1.66c0.65-0.4,1.46-0.61,2.39-0.61c0.81,0,1.5,0.19,2.06,0.55c0.56,0.37,1,0.88,1.31,1.51
		c0.17,0.36,0.3,0.75,0.38,1.17h-7.97C213.13,369.4,213.25,369.08,213.39,368.79"/>
	<path class="st1" d="M234.51,368.39c0.34,0.58,0.51,1.35,0.51,2.29v6.45c0,0.47,0.16,0.86,0.47,1.17c0.31,0.31,0.7,0.47,1.17,0.47
		c0.46,0,0.86-0.16,1.17-0.47s0.47-0.71,0.47-1.17v-6.45c0-1.5-0.29-2.78-0.86-3.82s-1.37-1.85-2.37-2.39
		c-0.99-0.54-2.13-0.81-3.37-0.81c-1.2,0-2.29,0.27-3.26,0.8c-0.11,0.06-0.22,0.12-0.33,0.19c-0.07-0.15-0.17-0.28-0.29-0.4
		c-0.3-0.3-0.7-0.46-1.18-0.46c-0.46,0-0.86,0.15-1.17,0.45c-0.31,0.3-0.47,0.7-0.47,1.19v11.7c0,0.47,0.16,0.86,0.47,1.17
		c0.31,0.31,0.7,0.47,1.17,0.47c0.48,0,0.88-0.16,1.18-0.47c0.3-0.31,0.45-0.7,0.45-1.17v-9.26c0.29-0.32,0.64-0.58,1.04-0.78
		c0.55-0.27,1.17-0.41,1.85-0.41c0.75,0,1.42,0.14,2,0.43C233.72,367.38,234.17,367.81,234.51,368.39"/>
	<path class="st1" d="M190.2,360.41L190.2,360.41c-0.96-0.97-2.12-1.74-3.43-2.27s-2.78-0.8-4.37-0.8c-1.58,0-3.06,0.27-4.38,0.8
		c-1.32,0.54-2.48,1.3-3.43,2.27s-1.7,2.13-2.23,3.46c-0.52,1.32-0.79,2.79-0.79,4.38c0,1.58,0.27,3.06,0.79,4.39
		c0.53,1.33,1.28,2.5,2.23,3.47s2.11,1.74,3.43,2.27c1.32,0.53,2.79,0.8,4.38,0.8c1.58,0,3.05-0.27,4.37-0.8
		c1.31-0.53,2.47-1.3,3.43-2.27c0.96-0.97,1.72-2.14,2.24-3.47s0.79-2.8,0.79-4.39c0-1.58-0.27-3.06-0.79-4.38
		C191.92,362.55,191.16,361.38,190.2,360.41 M189.18,371.25c-0.35,0.91-0.86,1.72-1.51,2.4s-1.43,1.21-2.32,1.6
		c-0.89,0.38-1.88,0.58-2.94,0.58c-1.07,0-2.06-0.19-2.94-0.58c-0.89-0.38-1.67-0.92-2.31-1.6s-1.15-1.48-1.51-2.4
		c-0.36-0.92-0.54-1.93-0.54-3s0.18-2.08,0.54-3s0.87-1.72,1.51-2.4c0.64-0.67,1.42-1.21,2.3-1.58c0.89-0.37,1.88-0.57,2.95-0.57
		c1.07,0,2.06,0.19,2.95,0.57c0.89,0.37,1.67,0.91,2.32,1.58c0.65,0.68,1.16,1.48,1.51,2.4c0.35,0.92,0.53,1.93,0.53,3
		C189.71,369.32,189.53,370.33,189.18,371.25"/>
	<path class="st1" d="M141.19,392.09c-0.32-0.28-0.81-0.47-1.48-0.56c-0.37-0.05-0.67-0.12-0.89-0.22s-0.38-0.22-0.47-0.36
		c-0.1-0.14-0.14-0.29-0.14-0.46c0-0.31,0.13-0.55,0.38-0.71s0.59-0.24,1.01-0.24c0.24,0,0.44,0.04,0.61,0.09
		c0.17,0.06,0.31,0.14,0.43,0.24c0.12,0.1,0.22,0.21,0.3,0.32c0.04,0.07,0.1,0.12,0.19,0.14c0.08,0.02,0.16,0.02,0.24-0.02
		c0.07-0.04,0.12-0.1,0.14-0.17s0-0.15-0.05-0.23c-0.11-0.17-0.26-0.32-0.43-0.46c-0.18-0.14-0.39-0.25-0.62-0.34
		c-0.24-0.08-0.5-0.13-0.8-0.13c-0.39,0-0.74,0.06-1.04,0.18c-0.3,0.12-0.54,0.29-0.71,0.51c-0.17,0.22-0.26,0.48-0.26,0.77
		c0,0.41,0.18,0.76,0.53,1.05c0.35,0.29,0.84,0.46,1.46,0.53c0.51,0.06,0.88,0.19,1.12,0.41c0.24,0.21,0.36,0.47,0.36,0.77
		c0,0.23-0.06,0.43-0.19,0.6c-0.12,0.16-0.3,0.29-0.51,0.37c-0.22,0.08-0.47,0.13-0.75,0.13c-0.25,0-0.49-0.03-0.7-0.09
		c-0.21-0.06-0.4-0.15-0.55-0.26c-0.15-0.11-0.27-0.24-0.35-0.38c-0.04-0.07-0.09-0.12-0.16-0.15s-0.14-0.04-0.22-0.02
		c-0.1,0.02-0.16,0.07-0.2,0.14s-0.04,0.14,0,0.22c0.11,0.22,0.27,0.41,0.49,0.58c0.21,0.17,0.46,0.29,0.75,0.38s0.6,0.14,0.94,0.14
		c0.29,0,0.56-0.04,0.81-0.11c0.25-0.07,0.47-0.18,0.66-0.32s0.34-0.31,0.44-0.52s0.16-0.44,0.16-0.7
		C141.67,392.74,141.51,392.37,141.19,392.09"/>
	<path class="st1" d="M147.94,389.07h-1.9h-0.62h-1.89c-0.08,0-0.15,0.02-0.21,0.07c-0.05,0.05-0.08,0.11-0.08,0.19
		c0,0.07,0.03,0.13,0.08,0.18s0.12,0.07,0.21,0.07h1.89v4.9c0,0.08,0.03,0.14,0.09,0.2s0.13,0.08,0.22,0.08s0.16-0.03,0.22-0.08
		c0.06-0.06,0.09-0.12,0.09-0.2v-4.9h1.9c0.08,0,0.15-0.02,0.21-0.07c0.05-0.05,0.08-0.11,0.08-0.18c0-0.08-0.03-0.14-0.08-0.19
		C148.09,389.09,148.02,389.07,147.94,389.07"/>
	<path class="st1" d="M155.04,389.07c-0.09,0-0.16,0.03-0.22,0.08s-0.09,0.12-0.09,0.2v3.54c0,0.29-0.08,0.54-0.24,0.76
		s-0.37,0.39-0.65,0.52c-0.28,0.12-0.59,0.19-0.95,0.19s-0.68-0.06-0.96-0.19c-0.28-0.13-0.5-0.3-0.66-0.52s-0.23-0.47-0.23-0.76
		v-3.54c0-0.08-0.03-0.15-0.09-0.2c-0.06-0.05-0.13-0.08-0.22-0.08s-0.16,0.03-0.22,0.08s-0.09,0.12-0.09,0.2v3.54
		c0,0.39,0.1,0.74,0.31,1.04c0.21,0.3,0.5,0.54,0.88,0.71c0.37,0.17,0.8,0.26,1.29,0.26c0.48,0,0.9-0.08,1.27-0.26
		c0.37-0.17,0.66-0.41,0.87-0.71c0.21-0.3,0.31-0.65,0.31-1.04v-3.54c0-0.08-0.03-0.15-0.08-0.2
		C155.21,389.09,155.13,389.07,155.04,389.07"/>
	<path class="st1" d="M162.2,389.87c-0.28-0.26-0.6-0.45-0.98-0.59c-0.38-0.14-0.8-0.21-1.25-0.21h-1.43
		c-0.09,0-0.16,0.03-0.22,0.08s-0.09,0.12-0.09,0.2v5.14c0,0.08,0.03,0.15,0.09,0.2c0.06,0.05,0.13,0.08,0.22,0.08h1.43
		c0.46,0,0.87-0.07,1.25-0.21c0.38-0.14,0.71-0.34,0.98-0.59c0.28-0.26,0.49-0.56,0.64-0.91s0.23-0.73,0.23-1.15
		c0-0.42-0.08-0.8-0.23-1.15C162.69,390.42,162.47,390.12,162.2,389.87 M162.13,393.13c-0.21,0.35-0.51,0.63-0.88,0.83
		c-0.37,0.2-0.81,0.3-1.29,0.3h-1.12v-4.68h1.12c0.49,0,0.92,0.1,1.29,0.3c0.37,0.2,0.67,0.48,0.88,0.83
		c0.21,0.35,0.32,0.76,0.32,1.21C162.45,392.37,162.35,392.77,162.13,393.13"/>
	<path class="st1" d="M165.93,389.07c-0.09,0-0.16,0.03-0.22,0.08s-0.09,0.12-0.09,0.2v5.14c0,0.08,0.03,0.15,0.09,0.2
		c0.06,0.05,0.13,0.08,0.22,0.08s0.16-0.03,0.22-0.08s0.09-0.12,0.09-0.2v-5.14c0-0.08-0.03-0.15-0.09-0.2
		C166.1,389.09,166.02,389.07,165.93,389.07"/>
	<path class="st1" d="M174.26,389.83c-0.29-0.26-0.62-0.47-1.01-0.61c-0.39-0.15-0.81-0.22-1.27-0.22s-0.89,0.07-1.27,0.22
		c-0.39,0.15-0.72,0.35-1.01,0.61c-0.28,0.26-0.51,0.57-0.66,0.93c-0.16,0.36-0.23,0.74-0.23,1.16s0.08,0.81,0.23,1.17
		c0.16,0.36,0.38,0.66,0.66,0.93c0.28,0.26,0.62,0.47,1.01,0.61c0.39,0.15,0.81,0.22,1.27,0.22s0.88-0.07,1.27-0.22
		s0.72-0.35,1.01-0.61c0.29-0.26,0.51-0.57,0.67-0.93s0.23-0.75,0.23-1.17s-0.08-0.81-0.23-1.16
		C174.77,390.4,174.55,390.09,174.26,389.83 M174.36,392.86c-0.13,0.29-0.31,0.54-0.54,0.76s-0.5,0.38-0.82,0.5
		c-0.31,0.12-0.65,0.18-1.02,0.18c-0.37,0-0.71-0.06-1.03-0.18c-0.31-0.12-0.59-0.29-0.82-0.5c-0.23-0.22-0.41-0.47-0.54-0.76
		c-0.13-0.29-0.19-0.6-0.19-0.95c0-0.34,0.06-0.65,0.19-0.94s0.31-0.54,0.54-0.76s0.5-0.38,0.82-0.5c0.31-0.12,0.66-0.18,1.03-0.18
		s0.71,0.06,1.02,0.18s0.59,0.29,0.82,0.5c0.23,0.22,0.41,0.47,0.54,0.76s0.19,0.6,0.19,0.94
		C174.55,392.26,174.49,392.57,174.36,392.86"/>
	<path class="st1" d="M183.91,392.42c0.09-0.03,0.17-0.06,0.26-0.1c0.3-0.15,0.54-0.35,0.71-0.61c0.17-0.26,0.26-0.55,0.26-0.88
		c0-0.35-0.09-0.65-0.26-0.92c-0.17-0.26-0.41-0.47-0.71-0.62s-0.65-0.22-1.04-0.22h-1.49c-0.09,0-0.17,0.03-0.22,0.08
		c-0.06,0.05-0.09,0.12-0.09,0.2v5.14c0,0.08,0.03,0.15,0.09,0.2c0.06,0.05,0.13,0.08,0.22,0.08s0.16-0.03,0.22-0.08
		s0.09-0.12,0.09-0.2v-1.95h1.18c0.05,0,0.09,0,0.14-0.01l1.43,2.1c0.03,0.05,0.07,0.08,0.11,0.11c0.04,0.02,0.09,0.04,0.16,0.04
		c0.14,0,0.24-0.04,0.29-0.13c0.05-0.09,0.04-0.19-0.04-0.31L183.91,392.42z M183.13,391.99h-1.18v-2.38h1.18
		c0.27,0,0.51,0.05,0.72,0.15s0.38,0.24,0.5,0.43c0.12,0.18,0.18,0.39,0.18,0.63c0,0.22-0.06,0.42-0.18,0.6s-0.29,0.31-0.5,0.41
		C183.64,391.94,183.4,391.99,183.13,391.99"/>
	<path class="st1" d="M191.57,389.61c0.08,0,0.16-0.03,0.22-0.08s0.09-0.12,0.09-0.19c0-0.08-0.03-0.15-0.09-0.2
		c-0.06-0.05-0.13-0.08-0.22-0.08h-3.74c-0.09,0-0.16,0.03-0.22,0.08s-0.09,0.12-0.09,0.2v5.14c0,0.08,0.03,0.15,0.09,0.2
		c0.06,0.05,0.13,0.08,0.22,0.08h3.74c0.08,0,0.16-0.03,0.22-0.08s0.09-0.12,0.09-0.2c0-0.07-0.03-0.14-0.09-0.19
		s-0.13-0.08-0.22-0.08h-3.43v-2.04h2.49c0.09,0,0.16-0.03,0.22-0.08s0.09-0.12,0.09-0.2c0-0.08-0.03-0.14-0.09-0.2
		c-0.06-0.05-0.13-0.08-0.22-0.08h-2.49v-2.02h3.43V389.61z"/>
	<path class="st1" d="M198.37,389.34c0-0.08-0.02-0.14-0.07-0.19s-0.12-0.08-0.22-0.08c-0.05,0-0.09,0.01-0.13,0.02
		c-0.04,0.01-0.08,0.04-0.12,0.08l-2.91,2.67v-2.48c0-0.08-0.03-0.15-0.09-0.2c-0.06-0.06-0.13-0.08-0.22-0.08
		c-0.08,0-0.16,0.03-0.22,0.08c-0.06,0.06-0.09,0.12-0.09,0.2v5.14c0,0.08,0.03,0.15,0.09,0.2c0.06,0.06,0.13,0.08,0.22,0.08
		c0.08,0,0.16-0.03,0.22-0.08c0.06-0.06,0.09-0.12,0.09-0.2v-1.87l0.71-0.66l2.17,2.69c0.06,0.08,0.15,0.12,0.26,0.12
		c0.07,0,0.14-0.02,0.19-0.07c0.05-0.05,0.08-0.11,0.09-0.18s-0.01-0.14-0.06-0.2l-2.21-2.76l2.18-2
		C198.34,389.49,198.37,389.42,198.37,389.34"/>
	<path class="st1" d="M204.54,394.23h-3.11v-4.88c0-0.08-0.03-0.15-0.09-0.2c-0.06-0.06-0.13-0.08-0.22-0.08
		c-0.08,0-0.16,0.03-0.22,0.08c-0.06,0.06-0.09,0.12-0.09,0.2v5.14c0,0.08,0.03,0.15,0.09,0.2c0.06,0.05,0.13,0.08,0.22,0.08h3.43
		c0.08,0,0.16-0.02,0.22-0.08c0.06-0.05,0.09-0.12,0.09-0.19c0-0.08-0.03-0.14-0.09-0.19C204.7,394.26,204.62,394.23,204.54,394.23"
		/>
	<path class="st1" d="M209.44,389.26c-0.06-0.13-0.16-0.2-0.3-0.2s-0.24,0.07-0.3,0.2l-2.34,5.1c-0.04,0.09-0.04,0.18,0.02,0.27
		c0.05,0.09,0.14,0.14,0.26,0.14c0.06,0,0.12-0.01,0.17-0.04s0.09-0.07,0.12-0.13l0.54-1.18h3.08l0.53,1.18
		c0.03,0.06,0.07,0.1,0.12,0.13c0.05,0.03,0.11,0.04,0.17,0.04c0.11,0,0.2-0.04,0.26-0.13s0.07-0.18,0.02-0.27L209.44,389.26z
		 M207.82,392.92l1.33-2.93l1.31,2.93H207.82z"/>
	<path class="st1" d="M219.91,389.07c-0.12,0-0.21,0.05-0.28,0.15l-2.5,4.65l-2.55-4.65c-0.06-0.1-0.15-0.15-0.28-0.15
		c-0.08,0-0.16,0.03-0.22,0.08s-0.09,0.12-0.09,0.2v5.14c0,0.08,0.03,0.14,0.09,0.2s0.13,0.08,0.22,0.08c0.08,0,0.16-0.03,0.22-0.08
		c0.06-0.06,0.09-0.12,0.09-0.2v-4.07l2.21,4.05c0.06,0.12,0.15,0.18,0.29,0.18c0.12,0,0.21-0.05,0.27-0.14l2.21-4.15v4.14
		c0,0.08,0.03,0.14,0.09,0.2s0.14,0.08,0.23,0.08c0.08,0,0.16-0.03,0.21-0.08c0.06-0.06,0.09-0.12,0.09-0.2v-5.14
		c0-0.08-0.03-0.15-0.09-0.2C220.07,389.09,220,389.07,219.91,389.07"/>
	<path class="st1" d="M227.14,389.07c-0.06,0-0.12,0.01-0.16,0.04c-0.05,0.02-0.09,0.06-0.12,0.12l-1.98,2.92l-1.98-2.93
		c-0.03-0.04-0.07-0.08-0.11-0.1c-0.04-0.02-0.09-0.04-0.16-0.04c-0.08,0-0.15,0.02-0.2,0.07c-0.05,0.04-0.09,0.1-0.1,0.17
		c-0.01,0.07,0.01,0.14,0.06,0.21l2.17,3.15v1.83c0,0.08,0.03,0.14,0.09,0.2s0.13,0.08,0.22,0.08c0.08,0,0.16-0.03,0.22-0.08
		c0.06-0.06,0.09-0.12,0.09-0.2v-1.83l2.17-3.15c0.05-0.07,0.07-0.14,0.06-0.2c-0.01-0.07-0.04-0.13-0.09-0.17
		C227.27,389.09,227.21,389.07,227.14,389.07"/>
	<path class="st1" d="M238.11,391.72h-6.3c-0.09,0-0.17,0.1-0.17,0.22s0.08,0.22,0.17,0.22h6.3c0.09,0,0.17-0.1,0.17-0.22
		S238.21,391.72,238.11,391.72"/>
	<path class="st1" d="M132.99,391.72h-6.3c-0.09,0-0.17,0.1-0.17,0.22s0.08,0.22,0.17,0.22h6.3c0.09,0,0.17-0.1,0.17-0.22
		S133.09,391.72,132.99,391.72"/>
</g>
</svg>
