<?xml version="1.0" encoding="utf-8"?>
<!-- Generator: Adobe Illustrator 25.2.0, SVG Export Plug-In . SVG Version: 6.00 Build 0)  -->
<svg version="1.1" id="Warstwa_1" xmlns="http://www.w3.org/2000/svg" xmlns:xlink="http://www.w3.org/1999/xlink" x="0px" y="0px"
	 viewBox="0 0 825 472" style="enable-background:new 0 0 825 472;" xml:space="preserve">
<style type="text/css">
	.st0{clip-path:url(#SVGID_2_);fill:url(#SVGID_3_);}
	.st1{fill:#FFFFFF;}
	.st2{opacity:0.7;fill:#FFFFFF;}
	.st3{opacity:0.5;clip-path:url(#XMLID_2_);fill:#43B38F;}
	.st4{fill:#404040;}
	.st5{font-family:'Montserrat-Regular';}
	.st6{font-size:42px;}
	.st7{letter-spacing:2;}
	.st8{font-family:'Montserrat-Black';}
	.st9{font-size:37px;}
	.st10{font-size:14px;}
	.st11{opacity:0.5;clip-path:url(#XMLID_4_);fill:#FFFFFF;}
	.st12{opacity:0.5;clip-path:url(#XMLID_6_);fill:#43B38F;}
	.st13{opacity:0.7;clip-path:url(#XMLID_14_);fill:#FFFFFF;}
	.st14{opacity:0.7;clip-path:url(#XMLID_16_);fill:#BF922C;}
	.st15{opacity:0.7;clip-path:url(#XMLID_17_);fill:#BD960E;}
	.st16{fill:#FCC812;}
	.st17{opacity:0.7;fill:#BD960E;}
	.st18{fill:none;stroke:#404040;stroke-width:0.6043;stroke-linecap:round;stroke-linejoin:round;stroke-miterlimit:10;}
	.st19{fill:#FFC33A;}
	.st20{opacity:0.3;clip-path:url(#XMLID_18_);fill-opacity:0.7;}
	.st21{clip-path:url(#XMLID_19_);fill:#404040;fill-opacity:0.7;}
	.st22{opacity:0.3;clip-path:url(#XMLID_23_);fill-opacity:0.7;}
	.st23{clip-path:url(#XMLID_24_);fill:#404040;fill-opacity:0.7;}
	.st24{fill:#404040;fill-opacity:0.7;}
	.st25{fill:none;stroke:#1A2E35;stroke-width:0.6043;stroke-linecap:round;stroke-linejoin:round;stroke-miterlimit:10;}
</style>
<g>
	<defs>
		<rect id="SVGID_1_" x="0" y="0" width="825" height="472"/>
	</defs>
	<clipPath id="SVGID_2_">
		<use xlink:href="#SVGID_1_"  style="overflow:visible;"/>
	</clipPath>
	
		<linearGradient id="SVGID_3_" gradientUnits="userSpaceOnUse" x1="-1197.6713" y1="1279.5872" x2="-1196.0826" y2="1279.5872" gradientTransform="matrix(526.5874 0 0 -526.5874 630653.8125 674093.375)">
		<stop  offset="0" style="stop-color:#379E6E"/>
		<stop  offset="1" style="stop-color:#72C6D4"/>
	</linearGradient>
	<rect x="-24.77" y="-156.38" class="st0" width="870.6" height="870.6"/>
</g>
<g>
	<path class="st1" d="M595.09,327.66c15.62,18.42-112.42,107.08-217.2,13.48c19.17-35.29,67.39-76.49,133.54-59.33
		C547.2,291.09,576.7,305.96,595.09,327.66"/>
	<path class="st2" d="M391.56,321.21c24.09-28.69,66.04-53.36,119.87-39.4c31.87,8.27,58.76,20.98,77.26,39"/>
	<path class="st2" d="M389.27,324.02c0.75-0.94,1.51-1.88,2.29-2.81"/>
</g>
<g>
	<defs>
		<path id="XMLID_434_" d="M463.57,302.94c0,0-5.32-6.1-13.09-6.1c0,0-0.26-4.74-5.56-5.76s-6.33,3.71-6.33,3.71s-3.92-2.08-9.17,0
			c-5.26,2.08-4.19,8.14-4.19,8.14s-15.17-0.5-17.77,2.29h34.89h33.29C475.63,305.21,474.26,301.81,463.57,302.94z"/>
	</defs>
	<use xlink:href="#XMLID_434_"  style="overflow:visible;fill:#43B38F;"/>
	<clipPath id="XMLID_2_">
		<use xlink:href="#XMLID_434_"  style="overflow:visible;"/>
	</clipPath>
	<path class="st3" d="M463.57,302.94c0,0-5.32-6.1-13.09-6.1c0,0-0.26-4.74-5.56-5.76s-6.33,3.71-6.33,3.71s-3.92-2.08-9.17,0
		c-5.26,2.08-4.19,8.14-4.19,8.14s-15.17-0.5-17.77,2.29h34.89h33.29C475.63,305.21,474.26,301.81,463.57,302.94z"/>
</g>
<g>
	<path class="st4" d="M556.93,277.95l0.04-6.98c0-0.52,0.43-0.94,0.95-0.94s0.95,0.42,0.95,0.94l0.01,2.29"/>
	<line class="st4" x1="558.94" y1="279.81" x2="558.95" y2="282.37"/>
	<polyline class="st4" points="558.98,287.21 559.32,339.98 556.54,339.98 556.89,285.01 	"/>
	<path class="st4" d="M533.82,282.83l20.33-4.34l1.12,1.58l0.81-0.09l8.6-20.6c0.13-0.3,0.48-0.45,0.78-0.32
		c0.28,0.12,0.43,0.43,0.34,0.72l-5.95,19.92l-1.92,0.22l-0.3,0.73l13.64,17.7c0.2,0.26,0.15,0.64-0.11,0.84
		c-0.24,0.19-0.58,0.16-0.8-0.06l-14.35-15.04l0.76-1.78l-0.51-0.66l-22.26,2.35c-0.33,0.03-0.62-0.2-0.66-0.53
		C533.32,283.17,533.53,282.89,533.82,282.83z"/>
	<path class="st4" d="M555.96,280.68c0,0.32,0.26,0.58,0.58,0.58s0.58-0.26,0.58-0.58c0-0.32-0.26-0.58-0.58-0.58
		S555.96,280.36,555.96,280.68z"/>
</g>
<g>
	<path class="st1" d="M96.97,383.28c7.23-0.07,14.06-2.92,19.26-8.02c5.19-5.1,8.16-11.89,8.35-19.11
		c0.15-5.46-1.29-10.79-4.16-15.42c-0.37-0.6-1.05-0.97-1.76-0.97c-0.76,0-1.44,0.4-1.81,1.06c-0.37,0.67-0.35,1.46,0.05,2.12
		c2.51,4.05,3.72,8.72,3.51,13.51c-0.51,11.72-10.85,22.09-22.57,22.64c-6.66,0.32-13.19-2.21-17.92-6.93
		c-4.72-4.72-7.25-11.25-6.93-17.92c0.55-11.72,10.92-22.05,22.64-22.57c4.79-0.21,9.46,1.01,13.51,3.51
		c0.66,0.41,1.45,0.43,2.12,0.05c0.67-0.37,1.06-1.05,1.06-1.81c0-0.71-0.37-1.39-0.97-1.76c-4.63-2.87-9.96-4.31-15.42-4.16
		c-7.22,0.19-14.01,3.16-19.11,8.35c-5.1,5.19-7.95,12.03-8.02,19.26c-0.07,7.54,2.83,14.63,8.18,19.98
		c5.27,5.27,12.27,8.18,19.71,8.18C96.79,383.28,96.89,383.28,96.97,383.28"/>
	<path class="st1" d="M96.7,338.59c-0.96,0-1.66,0.49-2.07,1.47l-10.54,25.17c-0.34,0.75-0.29,1.48,0.13,2.15
		c0.42,0.68,1.04,1.02,1.83,1.02c0.4,0,0.79-0.11,1.16-0.34c0.38-0.23,0.68-0.57,0.88-1.02l3.16-7.72h10.97l3.11,7.72
		c0.17,0.43,0.45,0.76,0.83,1c0.38,0.24,0.78,0.36,1.2,0.36c0.81,0,1.44-0.32,1.85-0.96c0.41-0.63,0.46-1.35,0.16-2.13l-10.58-25.25
		C98.41,339.08,97.71,338.59,96.7,338.59 M92.68,355.81l4.09-10l4.03,10H92.68z"/>
	<path class="st1" d="M150.75,357.32c0.31-0.48,0.35-1.01,0.12-1.6l-7.37-17.59c-0.27-0.72-0.81-1.11-1.56-1.11
		c-0.71,0-1.25,0.38-1.56,1.1l-7.34,17.53c-0.25,0.57-0.22,1.11,0.1,1.62c0.31,0.5,0.79,0.77,1.38,0.77c0.3,0,0.59-0.08,0.87-0.25
		c0.29-0.17,0.51-0.43,0.66-0.77l2.17-5.3h7.48l2.13,5.3c0.13,0.32,0.34,0.58,0.63,0.76c0.28,0.18,0.59,0.27,0.91,0.27
		C149.96,358.05,150.44,357.8,150.75,357.32 M139.31,349.03l2.66-6.51l2.62,6.51H139.31z"/>
	<path class="st1" d="M156.86,346.45c0.69-0.32,1.53-0.47,2.49-0.44c0.25,0.01,0.49-0.02,0.69-0.11c0.21-0.09,0.39-0.24,0.53-0.44
		c0.14-0.2,0.21-0.46,0.21-0.76c0.01-0.42-0.14-1-0.92-1.37c-0.58-0.28-1.34-0.32-2.33-0.12c-0.79,0.16-1.5,0.48-2.12,0.95
		c-0.05-0.34-0.18-0.61-0.39-0.81c-0.28-0.27-0.68-0.41-1.19-0.41c-0.5,0-0.9,0.14-1.18,0.43c-0.28,0.29-0.43,0.68-0.43,1.18l0,11.9
		c0,0.52,0.15,0.92,0.43,1.2c0.28,0.27,0.68,0.41,1.18,0.41c0.52,0,0.92-0.15,1.2-0.43c0.27-0.28,0.41-0.68,0.41-1.18v-8.8
		C155.74,347.14,156.23,346.74,156.86,346.45"/>
	<path class="st1" d="M170.07,354.83h-0.89c-0.47,0-0.85-0.19-1.18-0.59c-0.34-0.42-0.51-0.93-0.51-1.56v-6.54h2.04
		c0.44,0,0.81-0.13,1.09-0.39c0.29-0.27,0.44-0.61,0.44-1.01c0-0.43-0.15-0.79-0.44-1.06c-0.28-0.26-0.65-0.39-1.09-0.39h-2.04
		v-3.08c0-0.46-0.15-0.85-0.45-1.15c-0.3-0.3-0.69-0.45-1.15-0.45c-0.46,0-0.85,0.15-1.16,0.45c-0.3,0.3-0.45,0.69-0.45,1.15v3.08
		h-0.78c-0.44,0-0.81,0.13-1.09,0.39c-0.29,0.27-0.44,0.62-0.44,1.06c0,0.4,0.15,0.74,0.44,1.01c0.28,0.26,0.65,0.39,1.09,0.39h0.78
		v6.54c0,1,0.21,1.92,0.64,2.73c0.42,0.81,1.01,1.46,1.75,1.93c0.74,0.47,1.59,0.71,2.51,0.71h0.47c0.53,0,0.97-0.15,1.31-0.44
		c0.36-0.3,0.54-0.7,0.54-1.17c0-0.46-0.14-0.84-0.4-1.14C170.82,354.99,170.47,354.83,170.07,354.83"/>
	<path class="st1" d="M214.43,354.34c0.6-1.13,0.91-2.42,0.91-3.84c0-1.42-0.33-2.72-0.99-3.86c-0.66-1.14-1.56-2.05-2.68-2.71
		c-1.12-0.66-2.41-1-3.84-1c-1.41,0-2.69,0.34-3.81,1c-1.12,0.66-2.02,1.57-2.67,2.71c-0.65,1.14-0.99,2.44-1.01,3.86v11.92
		c0,0.46,0.16,0.86,0.47,1.17c0.31,0.31,0.7,0.47,1.17,0.47c0.48,0,0.88-0.16,1.18-0.47c0.3-0.31,0.45-0.7,0.45-1.16v-6.29
		c0.52,0.5,1.11,0.92,1.77,1.24c0.9,0.45,1.9,0.67,2.97,0.67c1.32,0,2.53-0.34,3.59-1C212.98,356.38,213.82,355.47,214.43,354.34
		 M211.59,352.85c-0.38,0.69-0.9,1.24-1.55,1.64c-0.64,0.4-1.39,0.6-2.22,0.6c-0.81,0-1.55-0.2-2.21-0.6
		c-0.66-0.4-1.18-0.95-1.55-1.64c-0.37-0.69-0.56-1.48-0.56-2.35c0-0.89,0.19-1.69,0.56-2.38c0.37-0.69,0.89-1.24,1.55-1.64
		c0.65-0.4,1.4-0.6,2.21-0.6c0.83,0,1.57,0.2,2.22,0.6c0.65,0.4,1.17,0.95,1.55,1.64c0.38,0.69,0.58,1.49,0.58,2.38
		C212.17,351.37,211.98,352.16,211.59,352.85"/>
	<path class="st1" d="M229.46,355.33c-0.02-0.4-0.21-0.76-0.58-1.08c-0.28-0.24-0.62-0.36-1-0.35c-0.37,0.01-0.71,0.13-1.02,0.36
		c-0.32,0.24-0.76,0.46-1.29,0.65c-0.53,0.19-1.06,0.28-1.56,0.28c-0.94,0-1.77-0.21-2.49-0.61c-0.72-0.41-1.29-0.97-1.69-1.67
		c-0.21-0.36-0.37-0.76-0.47-1.19h9.57c0.43,0,0.79-0.14,1.07-0.41c0.29-0.28,0.43-0.63,0.43-1.04c0-1.42-0.27-2.69-0.8-3.78
		c-0.54-1.1-1.33-1.98-2.35-2.61c-1.02-0.63-2.25-0.95-3.66-0.95c-1.42,0-2.71,0.33-3.81,0.97c-1.11,0.64-1.98,1.54-2.61,2.68
		c-0.62,1.13-0.94,2.45-0.94,3.92c0,1.46,0.33,2.77,0.99,3.9c0.66,1.13,1.59,2.03,2.76,2.67c1.16,0.64,2.51,0.97,4,0.97
		c0.83,0,1.71-0.16,2.62-0.46c0.91-0.31,1.68-0.71,2.3-1.2C229.39,356.03,229.47,355.61,229.46,355.33 M219.73,348.06
		c0.34-0.7,0.84-1.26,1.49-1.66c0.65-0.4,1.46-0.61,2.39-0.61c0.81,0,1.5,0.19,2.06,0.55c0.56,0.37,1,0.88,1.31,1.51
		c0.17,0.36,0.3,0.75,0.38,1.17h-7.97C219.48,348.68,219.59,348.36,219.73,348.06"/>
	<path class="st1" d="M240.85,347.67c0.34,0.58,0.51,1.35,0.51,2.29v6.45c0,0.47,0.16,0.86,0.47,1.17c0.31,0.31,0.7,0.47,1.17,0.47
		c0.46,0,0.86-0.16,1.17-0.47c0.31-0.31,0.47-0.71,0.47-1.17v-6.45c0-1.5-0.29-2.78-0.86-3.82c-0.57-1.04-1.37-1.85-2.37-2.39
		c-0.99-0.54-2.13-0.81-3.37-0.81c-1.2,0-2.29,0.27-3.26,0.8c-0.11,0.06-0.22,0.12-0.33,0.19c-0.07-0.15-0.17-0.28-0.29-0.4
		c-0.3-0.3-0.7-0.46-1.18-0.46c-0.46,0-0.86,0.15-1.17,0.45c-0.31,0.3-0.47,0.7-0.47,1.19v11.7c0,0.47,0.16,0.86,0.47,1.17
		c0.31,0.31,0.7,0.47,1.17,0.47c0.48,0,0.88-0.16,1.18-0.47c0.3-0.31,0.45-0.7,0.45-1.17v-9.26c0.29-0.32,0.64-0.58,1.04-0.78
		c0.55-0.27,1.17-0.41,1.85-0.41c0.75,0,1.42,0.14,2,0.43C240.06,346.66,240.51,347.09,240.85,347.67"/>
	<path class="st1" d="M196.54,339.69L196.54,339.69c-0.96-0.97-2.12-1.74-3.43-2.27c-1.31-0.53-2.78-0.8-4.37-0.8
		c-1.58,0-3.06,0.27-4.38,0.8c-1.32,0.54-2.48,1.3-3.43,2.27c-0.95,0.97-1.7,2.13-2.23,3.46c-0.52,1.32-0.79,2.79-0.79,4.38
		c0,1.58,0.27,3.06,0.79,4.39c0.53,1.33,1.28,2.5,2.23,3.47c0.95,0.97,2.11,1.74,3.43,2.27c1.32,0.53,2.79,0.8,4.38,0.8
		c1.58,0,3.05-0.27,4.37-0.8c1.31-0.53,2.47-1.3,3.43-2.27c0.96-0.97,1.72-2.14,2.24-3.47c0.52-1.33,0.79-2.8,0.79-4.39
		c0-1.58-0.27-3.06-0.79-4.38C198.26,341.82,197.51,340.66,196.54,339.69 M195.52,350.53c-0.35,0.91-0.86,1.72-1.51,2.4
		c-0.65,0.68-1.43,1.21-2.32,1.6c-0.89,0.38-1.88,0.58-2.94,0.58c-1.07,0-2.06-0.19-2.94-0.58c-0.89-0.38-1.67-0.92-2.31-1.6
		c-0.64-0.68-1.15-1.48-1.51-2.4s-0.54-1.93-0.54-3c0-1.07,0.18-2.08,0.54-3c0.36-0.92,0.87-1.72,1.51-2.4
		c0.64-0.67,1.42-1.21,2.3-1.58c0.89-0.37,1.88-0.57,2.95-0.57c1.07,0,2.06,0.19,2.95,0.57c0.89,0.37,1.67,0.91,2.32,1.58
		c0.65,0.68,1.16,1.48,1.51,2.4c0.35,0.92,0.53,1.93,0.53,3C196.06,348.6,195.88,349.61,195.52,350.53"/>
	<path class="st1" d="M147.53,371.37c-0.32-0.28-0.81-0.47-1.48-0.56c-0.37-0.05-0.67-0.12-0.89-0.22c-0.22-0.1-0.38-0.22-0.47-0.36
		c-0.1-0.14-0.14-0.29-0.14-0.46c0-0.31,0.13-0.55,0.38-0.71c0.25-0.16,0.59-0.24,1.01-0.24c0.24,0,0.44,0.04,0.61,0.09
		c0.17,0.06,0.31,0.14,0.43,0.24c0.12,0.1,0.22,0.21,0.3,0.32c0.04,0.07,0.1,0.12,0.19,0.14c0.08,0.02,0.16,0.02,0.24-0.02
		c0.07-0.04,0.12-0.1,0.14-0.17c0.02-0.07,0-0.15-0.05-0.23c-0.11-0.17-0.26-0.32-0.43-0.46c-0.18-0.14-0.39-0.25-0.62-0.34
		c-0.24-0.08-0.5-0.13-0.8-0.13c-0.39,0-0.74,0.06-1.04,0.18c-0.3,0.12-0.54,0.29-0.71,0.51c-0.17,0.22-0.26,0.48-0.26,0.77
		c0,0.41,0.18,0.76,0.53,1.05c0.35,0.29,0.84,0.46,1.46,0.53c0.51,0.06,0.88,0.19,1.12,0.41c0.24,0.21,0.36,0.47,0.36,0.77
		c0,0.23-0.06,0.43-0.19,0.6c-0.12,0.16-0.3,0.29-0.51,0.37c-0.22,0.08-0.47,0.13-0.75,0.13c-0.25,0-0.49-0.03-0.7-0.09
		c-0.21-0.06-0.4-0.15-0.55-0.26c-0.15-0.11-0.27-0.24-0.35-0.38c-0.04-0.07-0.09-0.12-0.16-0.15c-0.07-0.03-0.14-0.04-0.22-0.02
		c-0.1,0.02-0.16,0.07-0.2,0.14c-0.04,0.07-0.04,0.14,0,0.22c0.11,0.22,0.27,0.41,0.49,0.58c0.21,0.17,0.46,0.29,0.75,0.38
		c0.29,0.09,0.6,0.14,0.94,0.14c0.29,0,0.56-0.04,0.81-0.11c0.25-0.07,0.47-0.18,0.66-0.32c0.19-0.14,0.34-0.31,0.44-0.52
		c0.1-0.21,0.16-0.44,0.16-0.7C148.01,372.02,147.85,371.65,147.53,371.37"/>
	<path class="st1" d="M154.28,368.34h-1.9h-0.62h-1.89c-0.08,0-0.15,0.02-0.21,0.07s-0.08,0.11-0.08,0.19
		c0,0.07,0.03,0.13,0.08,0.18c0.05,0.05,0.12,0.07,0.21,0.07h1.89v4.9c0,0.08,0.03,0.14,0.09,0.2c0.06,0.06,0.13,0.08,0.22,0.08
		c0.09,0,0.16-0.03,0.22-0.08c0.06-0.06,0.09-0.12,0.09-0.2v-4.9h1.9c0.08,0,0.15-0.02,0.21-0.07c0.05-0.05,0.08-0.11,0.08-0.18
		c0-0.08-0.03-0.14-0.08-0.19S154.37,368.34,154.28,368.34"/>
	<path class="st1" d="M161.38,368.34c-0.09,0-0.16,0.03-0.22,0.08c-0.06,0.05-0.09,0.12-0.09,0.2v3.54c0,0.29-0.08,0.54-0.24,0.76
		c-0.16,0.22-0.37,0.39-0.65,0.52c-0.28,0.12-0.59,0.19-0.95,0.19c-0.36,0-0.68-0.06-0.96-0.19c-0.28-0.13-0.5-0.3-0.66-0.52
		c-0.16-0.22-0.23-0.47-0.23-0.76v-3.54c0-0.08-0.03-0.15-0.09-0.2c-0.06-0.05-0.13-0.08-0.22-0.08s-0.16,0.03-0.22,0.08
		c-0.06,0.05-0.09,0.12-0.09,0.2v3.54c0,0.39,0.1,0.74,0.31,1.04c0.21,0.3,0.5,0.54,0.88,0.71c0.37,0.17,0.8,0.26,1.29,0.26
		c0.48,0,0.9-0.08,1.27-0.26c0.37-0.17,0.66-0.41,0.87-0.71c0.21-0.3,0.31-0.65,0.31-1.04v-3.54c0-0.08-0.03-0.15-0.08-0.2
		C161.55,368.37,161.47,368.34,161.38,368.34"/>
	<path class="st1" d="M168.54,369.14c-0.28-0.26-0.6-0.45-0.98-0.59c-0.38-0.14-0.8-0.21-1.25-0.21h-1.43
		c-0.09,0-0.16,0.03-0.22,0.08c-0.06,0.05-0.09,0.12-0.09,0.2v5.14c0,0.08,0.03,0.15,0.09,0.2c0.06,0.05,0.13,0.08,0.22,0.08h1.43
		c0.46,0,0.87-0.07,1.25-0.21c0.38-0.14,0.71-0.34,0.98-0.59c0.28-0.26,0.49-0.56,0.64-0.91c0.15-0.35,0.23-0.73,0.23-1.15
		c0-0.42-0.08-0.8-0.23-1.15C169.03,369.7,168.82,369.4,168.54,369.14 M168.48,372.4c-0.21,0.35-0.51,0.63-0.88,0.83
		c-0.37,0.2-0.81,0.3-1.29,0.3h-1.12v-4.68h1.12c0.49,0,0.92,0.1,1.29,0.3c0.37,0.2,0.67,0.48,0.88,0.83
		c0.21,0.35,0.32,0.76,0.32,1.21C168.79,371.65,168.69,372.05,168.48,372.4"/>
	<path class="st1" d="M172.27,368.34c-0.09,0-0.16,0.03-0.22,0.08c-0.06,0.05-0.09,0.12-0.09,0.2v5.14c0,0.08,0.03,0.15,0.09,0.2
		c0.06,0.05,0.13,0.08,0.22,0.08c0.09,0,0.16-0.03,0.22-0.08c0.06-0.05,0.09-0.12,0.09-0.2v-5.14c0-0.08-0.03-0.15-0.09-0.2
		C172.44,368.37,172.36,368.34,172.27,368.34"/>
	<path class="st1" d="M180.61,369.1c-0.29-0.26-0.62-0.47-1.01-0.61c-0.39-0.15-0.81-0.22-1.27-0.22c-0.46,0-0.89,0.07-1.27,0.22
		c-0.39,0.15-0.72,0.35-1.01,0.61c-0.28,0.26-0.51,0.57-0.66,0.93c-0.16,0.36-0.23,0.74-0.23,1.16c0,0.42,0.08,0.81,0.23,1.17
		c0.16,0.36,0.38,0.66,0.66,0.93c0.28,0.26,0.62,0.47,1.01,0.61c0.39,0.15,0.81,0.22,1.27,0.22c0.46,0,0.88-0.07,1.27-0.22
		c0.39-0.15,0.72-0.35,1.01-0.61c0.29-0.26,0.51-0.57,0.67-0.93c0.16-0.36,0.23-0.75,0.23-1.17c0-0.42-0.08-0.81-0.23-1.16
		C181.12,369.68,180.89,369.37,180.61,369.1 M180.7,372.14c-0.13,0.29-0.31,0.54-0.54,0.76s-0.5,0.38-0.82,0.5
		c-0.31,0.12-0.65,0.18-1.02,0.18c-0.37,0-0.71-0.06-1.03-0.18c-0.31-0.12-0.59-0.29-0.82-0.5c-0.23-0.22-0.41-0.47-0.54-0.76
		c-0.13-0.29-0.19-0.6-0.19-0.95c0-0.34,0.06-0.65,0.19-0.94c0.13-0.29,0.31-0.54,0.54-0.76c0.23-0.22,0.5-0.38,0.82-0.5
		c0.31-0.12,0.66-0.18,1.03-0.18c0.37,0,0.71,0.06,1.02,0.18c0.31,0.12,0.59,0.29,0.82,0.5c0.23,0.22,0.41,0.47,0.54,0.76
		c0.13,0.29,0.19,0.6,0.19,0.94C180.89,371.54,180.83,371.85,180.7,372.14"/>
	<path class="st1" d="M190.25,371.7c0.09-0.03,0.17-0.06,0.26-0.1c0.3-0.15,0.54-0.35,0.71-0.61c0.17-0.26,0.26-0.55,0.26-0.88
		c0-0.35-0.09-0.65-0.26-0.92c-0.17-0.26-0.41-0.47-0.71-0.62c-0.3-0.15-0.65-0.22-1.04-0.22h-1.49c-0.09,0-0.17,0.03-0.22,0.08
		c-0.06,0.05-0.09,0.12-0.09,0.2v5.14c0,0.08,0.03,0.15,0.09,0.2c0.06,0.05,0.13,0.08,0.22,0.08c0.09,0,0.16-0.03,0.22-0.08
		c0.06-0.05,0.09-0.12,0.09-0.2v-1.95h1.18c0.05,0,0.09,0,0.14-0.01l1.43,2.1c0.03,0.05,0.07,0.08,0.11,0.11
		c0.04,0.02,0.09,0.04,0.16,0.04c0.14,0,0.24-0.04,0.29-0.13c0.05-0.09,0.04-0.19-0.04-0.31L190.25,371.7z M189.47,371.27h-1.18
		v-2.38h1.18c0.27,0,0.51,0.05,0.72,0.15c0.21,0.1,0.38,0.24,0.5,0.43c0.12,0.18,0.18,0.39,0.18,0.63c0,0.22-0.06,0.42-0.18,0.6
		c-0.12,0.18-0.29,0.31-0.5,0.41C189.98,371.22,189.74,371.27,189.47,371.27"/>
	<path class="st1" d="M197.92,368.89c0.08,0,0.16-0.03,0.22-0.08c0.06-0.05,0.09-0.12,0.09-0.19c0-0.08-0.03-0.15-0.09-0.2
		c-0.06-0.05-0.13-0.08-0.22-0.08h-3.74c-0.09,0-0.16,0.03-0.22,0.08c-0.06,0.05-0.09,0.12-0.09,0.2v5.14c0,0.08,0.03,0.15,0.09,0.2
		c0.06,0.05,0.13,0.08,0.22,0.08h3.74c0.08,0,0.16-0.03,0.22-0.08c0.06-0.05,0.09-0.12,0.09-0.2c0-0.07-0.03-0.14-0.09-0.19
		c-0.06-0.05-0.13-0.08-0.22-0.08h-3.43v-2.04h2.49c0.09,0,0.16-0.03,0.22-0.08c0.06-0.05,0.09-0.12,0.09-0.2
		c0-0.08-0.03-0.14-0.09-0.2c-0.06-0.05-0.13-0.08-0.22-0.08h-2.49v-2.02H197.92z"/>
	<path class="st1" d="M204.71,368.62c0-0.08-0.02-0.14-0.07-0.19c-0.05-0.05-0.12-0.08-0.22-0.08c-0.05,0-0.09,0.01-0.13,0.02
		c-0.04,0.01-0.08,0.04-0.12,0.08l-2.91,2.67v-2.48c0-0.08-0.03-0.15-0.09-0.2c-0.06-0.06-0.13-0.08-0.22-0.08
		c-0.08,0-0.16,0.03-0.22,0.08c-0.06,0.06-0.09,0.12-0.09,0.2v5.14c0,0.08,0.03,0.15,0.09,0.2c0.06,0.06,0.13,0.08,0.22,0.08
		c0.08,0,0.16-0.03,0.22-0.08c0.06-0.06,0.09-0.12,0.09-0.2v-1.87l0.71-0.66l2.17,2.69c0.06,0.08,0.15,0.12,0.26,0.12
		c0.07,0,0.14-0.02,0.19-0.07c0.05-0.05,0.08-0.11,0.09-0.18c0.01-0.07-0.01-0.14-0.06-0.2l-2.21-2.76l2.18-2
		C204.68,368.76,204.71,368.69,204.71,368.62"/>
	<path class="st1" d="M210.88,373.51h-3.11v-4.88c0-0.08-0.03-0.15-0.09-0.2c-0.06-0.06-0.13-0.08-0.22-0.08
		c-0.08,0-0.16,0.03-0.22,0.08s-0.09,0.12-0.09,0.2v5.14c0,0.08,0.03,0.15,0.09,0.2c0.06,0.05,0.13,0.08,0.22,0.08h3.43
		c0.08,0,0.16-0.02,0.22-0.08c0.06-0.05,0.09-0.12,0.09-0.19c0-0.08-0.03-0.14-0.09-0.19C211.04,373.54,210.97,373.51,210.88,373.51
		"/>
	<path class="st1" d="M215.78,368.54c-0.06-0.13-0.16-0.2-0.3-0.2c-0.14,0-0.24,0.07-0.3,0.2l-2.34,5.1
		c-0.04,0.09-0.04,0.18,0.02,0.27c0.05,0.09,0.14,0.14,0.26,0.14c0.06,0,0.12-0.01,0.17-0.04c0.05-0.03,0.09-0.07,0.12-0.13
		l0.54-1.18h3.08l0.53,1.18c0.03,0.06,0.07,0.1,0.12,0.13c0.05,0.03,0.11,0.04,0.17,0.04c0.11,0,0.2-0.04,0.26-0.13
		c0.06-0.09,0.07-0.18,0.02-0.27L215.78,368.54z M214.16,372.2l1.33-2.93l1.31,2.93H214.16z"/>
	<path class="st1" d="M226.26,368.34c-0.12,0-0.21,0.05-0.28,0.15l-2.5,4.65l-2.55-4.65c-0.06-0.1-0.15-0.15-0.28-0.15
		c-0.08,0-0.16,0.03-0.22,0.08c-0.06,0.05-0.09,0.12-0.09,0.2v5.14c0,0.08,0.03,0.14,0.09,0.2c0.06,0.06,0.13,0.08,0.22,0.08
		c0.08,0,0.16-0.03,0.22-0.08c0.06-0.06,0.09-0.12,0.09-0.2v-4.07l2.21,4.05c0.06,0.12,0.15,0.18,0.29,0.18
		c0.12,0,0.21-0.05,0.27-0.14l2.21-4.15v4.14c0,0.08,0.03,0.14,0.09,0.2c0.06,0.06,0.14,0.08,0.23,0.08c0.08,0,0.16-0.03,0.21-0.08
		c0.06-0.06,0.09-0.12,0.09-0.2v-5.14c0-0.08-0.03-0.15-0.09-0.2C226.41,368.37,226.34,368.34,226.26,368.34"/>
	<path class="st1" d="M233.48,368.34c-0.06,0-0.12,0.01-0.16,0.04c-0.05,0.02-0.09,0.06-0.12,0.12l-1.98,2.92l-1.98-2.93
		c-0.03-0.04-0.07-0.08-0.11-0.1c-0.04-0.02-0.09-0.04-0.16-0.04c-0.08,0-0.15,0.02-0.2,0.07c-0.05,0.04-0.09,0.1-0.1,0.17
		c-0.01,0.07,0.01,0.14,0.06,0.21l2.17,3.15v1.83c0,0.08,0.03,0.14,0.09,0.2c0.06,0.06,0.13,0.08,0.22,0.08
		c0.08,0,0.16-0.03,0.22-0.08c0.06-0.06,0.09-0.12,0.09-0.2v-1.83l2.17-3.15c0.05-0.07,0.07-0.14,0.06-0.2
		c-0.01-0.07-0.04-0.13-0.09-0.17C233.62,368.37,233.55,368.34,233.48,368.34"/>
	<path class="st1" d="M244.46,371h-6.3c-0.09,0-0.17,0.1-0.17,0.22c0,0.12,0.08,0.22,0.17,0.22h6.3c0.09,0,0.17-0.1,0.17-0.22
		C244.63,371.1,244.55,371,244.46,371"/>
	<path class="st1" d="M139.34,371h-6.3c-0.09,0-0.17,0.1-0.17,0.22c0,0.12,0.08,0.22,0.17,0.22h6.3c0.09,0,0.17-0.1,0.17-0.22
		C139.51,371.1,139.43,371,139.34,371"/>
</g>
<text transform="matrix(1 0 0 1 64.0303 168.0431)"><tspan x="0" y="0" class="st1 st5 st6 st7">Ekologiczne gadżety firmowe</tspan><tspan x="0" y="44.4" class="st1 st8 st9 st7">Czy warto?</tspan></text>
<g>
	<text transform="matrix(1 0 0 1 194.7957 57.7136)" class="st1 st5 st10">Naturalne surowce świetnie nadają się do produkcji gadżetów</text>
</g>
<g>
	<g>
		<defs>
			<path id="XMLID_28_" d="M442.97,239.8c0,0-13.2-15.13-32.44-15.13c0,0-0.64-11.75-13.78-14.28c-13.14-2.53-15.69,9.19-15.69,9.19
				s-9.71-5.15-22.74,0s-10.39,20.18-10.39,20.18s-37.61-1.23-44.06,5.67h86.49h82.52C472.88,245.43,469.47,236.99,442.97,239.8z"/>
		</defs>
		<clipPath id="XMLID_3_">
			<use xlink:href="#XMLID_28_"  style="overflow:visible;"/>
		</clipPath>
	</g>
	<g>
		<defs>
			<path id="XMLID_27_" d="M442.97,239.8c0,0-13.2-15.13-32.44-15.13c0,0-0.64-11.75-13.78-14.28c-13.14-2.53-15.69,9.19-15.69,9.19
				s-9.71-5.15-22.74,0s-10.39,20.18-10.39,20.18s-37.61-1.23-44.06,5.67h86.49h82.52C472.88,245.43,469.47,236.99,442.97,239.8z"/>
		</defs>
		<use xlink:href="#XMLID_27_"  style="overflow:visible;fill:#FFFFFF;"/>
		<clipPath id="XMLID_4_">
			<use xlink:href="#XMLID_27_"  style="overflow:visible;"/>
		</clipPath>
		<path class="st11" d="M442.97,239.8c0,0-13.2-15.13-32.44-15.13c0,0-0.64-11.75-13.78-14.28c-13.14-2.53-15.69,9.19-15.69,9.19
			s-9.71-5.15-22.74,0s-10.39,20.18-10.39,20.18s-37.61-1.23-44.06,5.67h86.49h82.52C472.88,245.43,469.47,236.99,442.97,239.8z"/>
	</g>
	<g>
		<defs>
			<path id="XMLID_26_" d="M442.97,239.8c0,0-13.2-15.13-32.44-15.13c0,0-0.64-11.75-13.78-14.28c-13.14-2.53-15.69,9.19-15.69,9.19
				s-9.71-5.15-22.74,0s-10.39,20.18-10.39,20.18s-37.61-1.23-44.06,5.67h86.49h82.52C472.88,245.43,469.47,236.99,442.97,239.8z"/>
		</defs>
		<clipPath id="XMLID_5_">
			<use xlink:href="#XMLID_26_"  style="overflow:visible;"/>
		</clipPath>
	</g>
</g>
<g>
	<g>
		<path class="st4" d="M422.41,222.48l-0.11-16.79c-0.01-1.26-1.03-2.27-2.28-2.27c-1.26,0-2.28,1.01-2.28,2.27l-0.04,5.5"/>
		<line class="st4" x1="417.6" y1="226.97" x2="417.56" y2="233.13"/>
		<polyline class="st4" points="417.48,244.74 416.67,371.57 423.36,371.57 422.52,239.46 		"/>
		<path class="st4" d="M477.95,234.22l-48.86-10.43l-2.68,3.8l-1.95-0.21l-20.66-49.5c-0.3-0.73-1.14-1.08-1.87-0.77
			c-0.68,0.28-1.03,1.03-0.82,1.73l14.29,47.88l4.62,0.53l0.73,1.75l-32.78,42.54c-0.48,0.63-0.37,1.53,0.26,2.01
			c0.58,0.45,1.41,0.38,1.91-0.15l34.49-36.15l-1.83-4.27l1.21-1.58l53.5,5.64c0.79,0.08,1.49-0.49,1.58-1.27
			C479.16,235.04,478.67,234.37,477.95,234.22z"/>
		<circle class="st4" cx="423.36" cy="229.06" r="1.4"/>
	</g>
	<path class="st4" d="M417.56,233.13l3.42,1.13c0,0,1.81-6.03,1.76-6.22c-0.05-0.19-3.56-3.94-3.56-3.94l-2.49,2.07l0.93,0.8"/>
</g>
<g>
	<defs>
		<path id="XMLID_432_" d="M505.58,325.41c0,0,4.6-5.27,11.31-5.27c0,0,0.22-4.1,4.8-4.98c4.58-0.88,5.47,3.2,5.47,3.2
			s3.38-1.79,7.93,0c4.54,1.79,3.62,7.03,3.62,7.03s13.11-0.43,15.35,1.98h-30.14h-28.76C495.16,327.37,496.35,324.43,505.58,325.41
			z"/>
	</defs>
	<use xlink:href="#XMLID_432_"  style="overflow:visible;opacity:0.7;fill:#43B38F;"/>
	<clipPath id="XMLID_6_">
		<use xlink:href="#XMLID_432_"  style="overflow:visible;opacity:0.7;"/>
	</clipPath>
	<path class="st12" d="M505.58,325.41c0,0,4.6-5.27,11.31-5.27c0,0,0.22-4.1,4.8-4.98c4.58-0.88,5.47,3.2,5.47,3.2s3.38-1.79,7.93,0
		c4.54,1.79,3.62,7.03,3.62,7.03s13.11-0.43,15.35,1.98h-30.14h-28.76C495.16,327.37,496.35,324.43,505.58,325.41z"/>
</g>
<g>
	<g>
		<defs>
			<path id="XMLID_22_" d="M651.92,228.31c0,0-13.42-15.38-33-15.38c0,0-0.65-11.95-14.01-14.53c-13.36-2.57-15.96,9.34-15.96,9.34
				s-9.88-5.23-23.13,0c-13.25,5.23-10.57,20.52-10.57,20.52s-38.25-1.25-44.81,5.76h87.96h83.93
				C682.34,234.03,678.87,225.45,651.92,228.31z"/>
		</defs>
		<clipPath id="XMLID_7_">
			<use xlink:href="#XMLID_22_"  style="overflow:visible;"/>
		</clipPath>
	</g>
	<g>
		<defs>
			<path id="XMLID_21_" d="M651.92,228.31c0,0-13.42-15.38-33-15.38c0,0-0.65-11.95-14.01-14.53c-13.36-2.57-15.96,9.34-15.96,9.34
				s-9.88-5.23-23.13,0c-13.25,5.23-10.57,20.52-10.57,20.52s-38.25-1.25-44.81,5.76h87.96h83.93
				C682.34,234.03,678.87,225.45,651.92,228.31z"/>
		</defs>
		<use xlink:href="#XMLID_21_"  style="overflow:visible;fill:#FFFFFF;"/>
		<clipPath id="XMLID_14_">
			<use xlink:href="#XMLID_21_"  style="overflow:visible;"/>
		</clipPath>
		<path class="st13" d="M651.92,228.31c0,0-13.42-15.38-33-15.38c0,0-0.65-11.95-14.01-14.53c-13.36-2.57-15.96,9.34-15.96,9.34
			s-9.88-5.23-23.13,0c-13.25,5.23-10.57,20.52-10.57,20.52s-38.25-1.25-44.81,5.76h87.96h83.93
			C682.34,234.03,678.87,225.45,651.92,228.31z"/>
	</g>
	<g>
		<defs>
			<path id="XMLID_20_" d="M651.92,228.31c0,0-13.42-15.38-33-15.38c0,0-0.65-11.95-14.01-14.53c-13.36-2.57-15.96,9.34-15.96,9.34
				s-9.88-5.23-23.13,0c-13.25,5.23-10.57,20.52-10.57,20.52s-38.25-1.25-44.81,5.76h87.96h83.93
				C682.34,234.03,678.87,225.45,651.92,228.31z"/>
		</defs>
		<clipPath id="XMLID_15_">
			<use xlink:href="#XMLID_20_"  style="overflow:visible;"/>
		</clipPath>
	</g>
</g>
<g>
	<defs>
		<path id="XMLID_13_" d="M363.67,335.2c0,0,1.17,3.09,4.82,7.86c4.75,6.2,13.69,15.22,29.69,23.87
			c28.28,15.29,46.18,40.69,46.18,40.69l16.45-52.44c0,0-7.32-0.53-17.61-7.84c-7-4.97-15.37-13.06-23.75-26.24
			c-20.71-32.58-42.39-39.64-42.39-39.64"/>
	</defs>
	<use xlink:href="#XMLID_13_"  style="overflow:visible;fill:#FCC812;"/>
	<clipPath id="XMLID_16_">
		<use xlink:href="#XMLID_13_"  style="overflow:visible;"/>
	</clipPath>
	<path class="st14" d="M368.49,343.06c4.75,6.2,13.69,15.22,29.69,23.87c28.28,15.29,46.18,40.69,46.18,40.69l16.45-52.44
		c0,0-7.32-0.53-17.61-7.84c-8.43-0.23-25.9,5.49-34.83,14.11C408.37,361.45,387.75,351,368.49,343.06z"/>
	<use xlink:href="#XMLID_13_"  style="overflow:visible;fill:none;stroke:#404040;stroke-miterlimit:10;"/>
</g>
<g>
	<defs>
		<path id="XMLID_12_" d="M626.38,330.37c0,0-1.17,3.09-4.82,7.86c-4.75,6.2-13.69,15.22-29.69,23.87
			c-28.28,15.29-46.18,40.69-46.18,40.69l-16.45-52.44c0,0,7.32-0.53,17.61-7.84c7-4.97,15.37-13.06,23.75-26.24
			c20.71-32.58,42.39-39.64,42.39-39.64"/>
	</defs>
	<use xlink:href="#XMLID_12_"  style="overflow:visible;fill:#FCC812;"/>
	<clipPath id="XMLID_17_">
		<use xlink:href="#XMLID_12_"  style="overflow:visible;"/>
	</clipPath>
	<path class="st15" d="M621.56,338.22c-4.75,6.2-13.69,15.22-29.69,23.87c-28.28,15.29-46.18,40.69-46.18,40.69l-16.45-52.44
		c0,0,7.32-0.53,17.61-7.84c8.43-0.23,23.43,3.66,30.96,15.71C577.81,358.21,602.3,346.16,621.56,338.22z"/>
	<use xlink:href="#XMLID_12_"  style="overflow:visible;fill:none;stroke:#404040;stroke-miterlimit:10;"/>
</g>
<path class="st16" d="M474.24,367.73l-17.66,2.12c0,0-12.33,3.76-15.31,6.44c-2.98,2.68-6.9,9.86-6.9,9.86s-4.34,0.82-6.56,0.02
	c-0.55-0.2-0.98-0.51-1.16-0.95c-0.27-0.63-0.46-1.35-0.59-2.11c-0.54-3.12-0.1-6.82-0.1-6.82s-2.89-4.14-3.03-5.85
	c-0.13-1.63,0.5-8.69,2.25-10.65c0.08-0.08,0.15-0.17,0.24-0.23c1.93-1.55,12.97-6.45,12.97-6.45s2.48-3.73,8.56-4.83
	c6.07-1.1,19.17,2.76,19.17,2.76l1.9,3.9L474.24,367.73z"/>
<path class="st17" d="M426.05,383.11c-0.54-3.12-0.1-6.82-0.1-6.82s-2.89-4.14-3.03-5.85c-0.13-1.63,0.5-8.69,2.25-10.65
	c-2.03,4.05-1.63,10.22,1.2,8.25c3.45-2.4,7.01,2.5,7.01,2.5C429.62,372.5,426.88,379.15,426.05,383.11z"/>
<path class="st17" d="M474.24,367.73l-17.66,2.12c0,0-12.33,3.76-15.31,6.44c-2.98,2.68-6.9,9.86-6.9,9.86s-4.34,0.82-6.56,0.02
	c2.04-0.62,5.01-2.9,5.57-5.98c0.8-4.37,8.17-8.31,7.89-11.7c-0.29-3.39-5.93-8.92-5.93-8.92c3.31-0.72,6.3,1.34,6.3,1.34
	c-1.58-2.13-4.51-3.95-4.51-3.95c6.49-0.7,7.73,3.89,7.73,3.89c1.81,0.4,6.07-1.28,6.07-1.28c0-2.65,1.35-4.65,1.35-4.65l2.11,3.29
	c2.29,0,9.97-2.19,13.63-3.27L474.24,367.73z"/>
<path class="st18" d="M426.64,385.21c0.95,2.21,7.73,0.93,7.73,0.93s3.92-7.18,6.9-9.86c2.98-2.68,15.31-6.44,15.31-6.44l17.66-2.12
	l-8.14-16.69c0,0-13.11-3.86-19.18-2.76c-6.07,1.1-8.55,4.83-8.55,4.83s-11.04,4.91-12.97,6.45c-1.93,1.55-2.62,9.18-2.48,10.88
	c0.14,1.7,3.04,5.84,3.04,5.84S425.26,382.01,426.64,385.21z"/>
<path class="st19" d="M426.92,383.73c0,0,1.1-6.21,6.35-8.48c0,0,0.55-3.7-0.83-5.4c-1.38-1.7-5.38,1.61-5.52,5.4
	C426.78,379.04,426.92,383.73,426.92,383.73z"/>
<path class="st16" d="M563.64,367.73c-1.93,1.24-2.95,3.84-2.95,3.84s0.36,4.72,0,5.96c-0.36,1.24-2.99,3.59-5.06,2.27
	c-2.06-1.31-3.14-6.14-8.5-8.23l-33.57-13.36c0,0,1.23-1.93,4.04-4.28c1.94-1.62,4.64-3.44,8.2-4.96
	c8.73-3.72,19.35-6.07,24.52-4.42c2.92,0.93,6.42,4.19,9.13,7.4c2.09,2.48,3.7,4.93,4.18,6.26
	C564.75,361.25,565.58,366.48,563.64,367.73z"/>
<path class="st17" d="M563.64,367.73c-1.93,1.24-2.95,3.84-2.95,3.84s0.36,4.72,0,5.96c-0.36,1.24-2.99,3.59-5.06,2.27
	c-2.06-1.31-3.14-6.14-8.5-8.23l-33.57-13.36c0,0,1.23-1.93,4.04-4.28c4.6-0.03,10.65,0.43,15.62,2.49c0,0-0.34-3.73,1.59-3.31
	c0,0-0.49-3.77,1.6-3.96c2.08-0.18,1.6,1.2,1.6,1.2s0.02,3.8,1.68,4.57c1.65,0.77,0.7-4.48,3.93-5.21c0,0,0.18,5.91,2.08,7.83
	c0,0-2.16,6.23,0.79,9.32c2.94,3.09,8.47,6.77,9.66,6.68c1.19-0.09-3.26-5.52-3.26-5.52s0.08-5.48,3.47-6.56
	c3.38-1.08,6.33,1.68,6.33,1.68c0.08,0.51-0.47-4.99-3.22-11.18c2.09,2.48,3.7,4.93,4.18,6.26
	C564.75,361.25,565.58,366.48,563.64,367.73z"/>
<path class="st18" d="M513.56,358.21c0,0,3.51-5.52,12.24-9.24c8.73-3.73,19.35-6.07,24.53-4.41c5.17,1.66,12.21,10.62,13.31,13.66
	c1.1,3.04,1.93,8.28,0,9.52s-2.95,3.84-2.95,3.84s0.36,4.71,0,5.96s-2.98,3.59-5.05,2.28c-2.07-1.31-3.14-6.13-8.51-8.23"/>
<path class="st19" d="M552.88,368c0,0,0.41-5.38,3.03-5.1c2.62,0.28,4.59,5.93,4.78,12.35C560.69,375.25,557.85,369.66,552.88,368z"
	/>
<path class="st18" d="M544.33,369.84c0,0-3.04-9.71,3.45-13.43"/>
<path class="st18" d="M533.22,361.52"/>
<path class="st18" d="M543.62,364.97"/>
<path class="st18" d="M539.18,364.97"/>
<g>
	<defs>
		<path id="XMLID_11_" d="M499.61,309.58c0,0-9.63-5.55-1.74-25.59c7.89-20.04,31.59-26.12,36.95-32.17
			C534.83,251.83,532.66,313.38,499.61,309.58z"/>
	</defs>
	<use xlink:href="#XMLID_11_"  style="overflow:visible;fill:#43B38F;"/>
	<clipPath id="XMLID_18_">
		<use xlink:href="#XMLID_11_"  style="overflow:visible;"/>
	</clipPath>
	<path class="st20" d="M530.62,257.58c-2.71,5.14-11.04,11.63-20.19,27.25c-5.54,9.45-9.28,19.2-11.13,24.54
		c-1.46-1.08-7.35-6.51-2.89-21.18c0.18,5.2,2.02,8.12,2.02,8.12C497.85,276.12,530.62,257.58,530.62,257.58z"/>
</g>
<g>
	<defs>
		<path id="XMLID_10_" d="M488.14,362.45c0,0,4.11-72.37,38.98-99.73c0,0-32.35,26.72-34.02,99.73H488.14z"/>
	</defs>
	<use xlink:href="#XMLID_10_"  style="overflow:visible;fill:#404040;"/>
	<clipPath id="XMLID_19_">
		<use xlink:href="#XMLID_10_"  style="overflow:visible;"/>
	</clipPath>
	<path class="st21" d="M488.14,362.45c0,0,4.11-72.37,38.98-99.73c0,0-32.35,26.72-34.02,99.73H488.14z"/>
</g>
<g>
	<defs>
		<path id="XMLID_9_" d="M484.88,287.01c0,0,8.61-4.96,1.55-22.89c-7.06-17.93-28.26-23.36-33.05-28.77
			C453.38,235.35,455.31,290.41,484.88,287.01z"/>
	</defs>
	<use xlink:href="#XMLID_9_"  style="overflow:visible;fill:#43B38F;"/>
	<clipPath id="XMLID_23_">
		<use xlink:href="#XMLID_9_"  style="overflow:visible;"/>
	</clipPath>
	<path class="st22" d="M486.46,264.11c-0.38-0.97-0.82-1.91-1.36-2.8c-1.08-1.8,1.64,3.56,1.7,7.9c0.02,1.57-0.4,3.98-2.53,5.74
		c-0.54-2.84-0.84-5.82-2.19-8.38c-6.93-13.07-23.1-24.92-25.67-26.88c0.28,0.35,9.13,11.46,14.37,17.89
		c2.81,3.45,4.68,7.8,6.52,11.81c2.35,5.09,4.45,10.29,6.53,15.49c0.29,0.73,0.58,1.45,0.87,2.18c2.34-1.47,3.65-4.18,4.17-6.9
		c0.89-4.64-0.17-9.43-1.65-13.91C486.99,265.54,486.74,264.82,486.46,264.11z"/>
</g>
<g>
	<defs>
		<path id="XMLID_8_" d="M493.7,331.36c0,0-2.24-61.79-33.42-86.26c0,0,30.03,26.9,30.47,96.11c0,0,0.98,0.19,1.51-1.4"/>
	</defs>
	<use xlink:href="#XMLID_8_"  style="overflow:visible;fill:#404040;"/>
	<clipPath id="XMLID_24_">
		<use xlink:href="#XMLID_8_"  style="overflow:visible;"/>
	</clipPath>
	<path class="st23" d="M493.7,331.36c0,0-2.24-61.79-33.42-86.26c0,0,30.03,26.9,30.47,96.11c0,0,0.98,0.19,1.51-1.4"/>
</g>
<path class="st24" d="M443.13,381.71c0,0-2.08-1.64,0-6.78c1.59-3.93,6.78-3.74,7.07-7.87c2.13,0.26,3.83-1.14,4.93-2.87
	c1.1-1.73,1.99-3.79,3.83-4.69c0.57-0.28,1.2-0.43,1.76-0.73c2.18-1.16,2.93-4.3,5.3-5.01c1.39-0.42,2.99,0.16,4.3-0.49
	c1.35-0.67,1.9-2.43,3.29-3.02c0.58-0.25,1.23-0.26,1.84-0.42c2.45-0.64,4.02-3.65,6.55-3.56c0.73,0.03,1.52,0.32,2.17-0.01
	c0.51-0.26,0.82-0.84,1.35-1.04c0.44-0.16,0.92-0.04,1.38,0.05c1.33,0.26,3,0.23,4.25-0.35c1.18-0.55,1.49-2.16,2.22-2.52
	c2.93-1.44,6.22,4.18,7.92,5.59c0.99,0.82,2.11-1.29,3.4-1.24c1.17,0.05,1.77,1.86,2.93,1.71c-0.54,0.42-0.23,1.36,0.36,1.7
	c0.59,0.34,1.32,0.31,2,0.38c1.67,0.18,3.18,1.05,4.62,1.9c0.25,0.15,0.51,0.3,0.67,0.54c0.18,0.26,0.21,0.6,0.39,0.86
	c0.38,0.54,1.26,0.58,1.55,1.17c0.14,0.29,0.09,0.63,0.15,0.94c0.19,0.89,1.24,1.3,2.16,1.36c0.91,0.06,1.9-0.04,2.68,0.44
	c0.59,0.37,0.96,1.01,1.46,1.49c1.82,1.76,3.92,1.66,5.59,3.89c1.75,2.33,2.94,4.87,5.44,6.55c4.24,2.85,5.43,6.86,6.59,10.59
	c1.16,3.73-15.24,13.01-48.32,15.38C459.87,398.06,442.69,384.22,443.13,381.71z"/>
<path class="st16" d="M433.17,386.14c0,0,3.5-6.18,8.09-9.86c4.6-3.68,7.91-8.39,11.96-13.39c4.05-5,9.93-11.35,12.88-11.85
	c2.94-0.51,9.57,0.44,10.3,6.5c0,0,4.51-5.46,10.81-1.63c6.3,3.83,3.17,11,3.17,11s2.29-0.92,3.72,0
	c1.43,0.92,5.49,49.62,5.49,49.62s-3.32,0.78-6.82,2.26c-3.5,1.47-7.91,1.66-10.85,0c0,0-5.52,1.43-9.2,1.17s-13.61-0.44-17.11-1.36
	c-3.5-0.92-8.83-3.09-11.22-4.3s-5.15-4.11-6.25-6.34c-1.1-2.23-3.13-2.96-6.25-6.74C428.76,397.44,433.17,386.14,433.17,386.14z"/>
<path class="st17" d="M494.1,366.9c-1.38-0.89-3.56-0.06-3.72-0.01c0.04-0.1,0.38-0.93,0.6-2.13l-3.78,7.96c0,0-5.84,7.6-7.93,11.01
	c-2.09,3.4-0.3,3.77-2.87,9.19c-2.57,5.43-6.33,15.81-10.3,16.65c-3.98,0.85-12.42-2.05-13.99-6.12c-1.58-4.06,2.22-6.94,6.86-12.83
	c4.65-5.89,6.58-8.1,6.21-10.83c-0.36-2.65,9.08-19.19,9.66-20.19c-0.24,0.32-1.7,2.28-3.53,4.69c0.73-1.34,1.43-2.91,2.1-4.74
	l-8.69-3.66c0,0-8.55,9.1-3.95,12.58c2.53,1.91,5.03,1.95,7.36-0.01c-1.84,2.38-3.6,4.59-4.6,5.67c-2.76,3.01-3.31,6.38-4.55,8.36
	c-1.24,1.97-6.16,10.21-10.4,13.18c-4.24,2.97-6.75,3.79-10.2,1.93c-2.36-1.27-3.82-8.27-4.52-12.58c-0.44,0.69-0.68,1.12-0.68,1.12
	s-4.42,11.3-1.28,15.07c3.12,3.77,5.15,4.5,6.25,6.74c1.11,2.23,3.86,5.12,6.26,6.34c2.39,1.21,7.73,3.38,11.22,4.3
	c3.49,0.91,13.43,1.1,17.11,1.35c3.68,0.26,9.19-1.17,9.19-1.17c2.94,1.65,7.36,1.47,10.85,0c2.59-1.09,5.08-1.81,6.21-2.11
	c0.2-0.25,0.38-0.51,0.57-0.77C499.07,410.27,495.43,367.75,494.1,366.9z"/>
<path class="st17" d="M479.48,359.56c0,0-8.79,10.15-2.71,14.58c6.07,4.43,12.58-4.01,12.87-11.01L479.48,359.56z"/>
<path class="st25" d="M499.59,416.52c0,0-0.22,0.06-0.61,0.15c-1.12,0.3-3.62,1.02-6.21,2.11c-3.49,1.47-7.91,1.65-10.85,0
	c0,0-5.52,1.43-9.19,1.17c-3.68-0.25-13.62-0.44-17.11-1.35c-3.49-0.92-8.83-3.09-11.22-4.3c-2.39-1.22-5.15-4.11-6.26-6.34
	c-1.1-2.24-3.12-2.96-6.25-6.74c-3.13-3.77,1.28-15.07,1.28-15.07s0.24-0.43,0.68-1.12c1.23-1.95,4.02-6.03,7.42-8.74
	c4.6-3.68,7.91-8.39,11.96-13.4c4.05-5,9.93-11.35,12.88-11.85c2.94-0.51,9.57,0.44,10.3,6.49c0,0,4.51-5.46,10.8-1.63
	c4.13,2.51,4.21,6.45,3.78,8.87c-0.22,1.2-0.56,2.02-0.6,2.13c0.15-0.06,2.34-0.88,3.72,0.01c1.33,0.85,4.97,43.37,5.44,49
	C499.57,416.3,499.59,416.52,499.59,416.52z"/>
<path class="st18" d="M476.4,357.53c-2.02,1.64-13.06,22.48-15.13,24.96c-2.07,2.48-7.73,9.56-10.21,12.16
	c-2.48,2.6-4.41,6.56-4.41,6.56s-2.62,2.66-5.1,4.39"/>
<path class="st18" d="M490.38,366.9c0,0-3.04,5.1-4.83,9.38c-1.79,4.28-6.99,15.18-9.15,19.32c-2.16,4.14-5.61,13.66-8.09,15.18
	c-2.48,1.52-6.07,4.97-8.28,4.69"/>
<path class="st18" d="M483.47,417.37c0,0,4.97-4.75,5.66-8.23c0.69-3.48,10.45-30.82,10.45-30.82"/>
<path class="st19" d="M464.72,355.9c0,0,5.66-0.37,8.69,3.66c0,0-4.55,11.34-10.07,8.44C457.82,365.11,464.72,355.9,464.72,355.9z"
	/>
<path class="st19" d="M479.48,359.56c0,0,5.69-0.2,10.15,3.57c0,0-2.98,12.74-10.15,10.81S477.14,363.67,479.48,359.56z"/>
<path class="st19" d="M491.76,370.44c0,0-3.17,4.79-2.76,8.28c0.41,3.49,5.1,2.84,5.1,2.84"/>
<path class="st16" d="M553.29,398.63c0,0-4.42,8-9.1,10.21c-4.69,2.2-8.56,1.38-11.31,3.03c-2.76,1.65-7.45,2.48-13.8,3.59
	c-6.35,1.1-12.74,2.48-17.27,1.66c-1.53-0.28-3.03-0.82-4.49-1.58c-2.87-1.48-5.61-3.77-8.18-6.4c-2.25-2.32-2.06-6.06-0.54-8.56
	c0.76-1.27,1.87-2.23,3.17-2.5c0,0-1.52-1.21-3.23-2.74c-1.86-1.65-3.92-3.7-4.49-4.99c-1.11-2.48-0.83-6.9,3.03-10.76
	c3.86-3.86,8.55-3.31,8.55-3.31s-5.91-4.84-3.59-10.49c0.84-2.04,2.34-4.74,6.9-5.52c6.53-1.1,10.21,2.62,10.21,2.62
	s-1.03-6.48,5.55-7.86c6.58-1.38,20.93,9.1,23.69,10.48c1.99,0.99,5.11,3.26,8.04,5.07c0.24,0.15,0.47,0.29,0.7,0.43
	c0.81,0.49,1.6,0.93,2.33,1.28c3.42,2.48,4.45,6.4,6.17,7.5c1.03,0.65,2.19,0.4,3.14-0.17c0.12,0.17,0.22,0.34,0.31,0.51
	C560.47,382.62,563.78,393.11,553.29,398.63z"/>
<path class="st17" d="M553.29,398.63c0,0-4.42,8-9.1,10.21c-4.69,2.2-8.56,1.38-11.31,3.03c-2.76,1.65-7.45,2.48-13.8,3.59
	c-6.35,1.1-12.74,2.48-17.27,1.66c-1.53-0.28-3.03-0.82-4.49-1.58c3.42-0.27,6.05-1.98,7.27-4.55c1.51-3.19-2.99-3.43-4.07-1.41
	c-1.08,2.02-7.56,1.29-6.42,0c1.14-1.28-1.14-7.91-2.34-8.8c-0.52-0.39-1.84-0.36-3.17-0.19c0.76-1.27,1.87-2.23,3.17-2.5
	c0,0-1.52-1.21-3.23-2.74l4.23,2.51c0,0,9.05,7.86,14.01,11.72c4.96,3.86,14.33,2.94,16.8,0c2.46-2.95-8.72-12.14-12.21-14.93
	c-3.38-2.7-4.88-7.21-4.96-7.49c0.29,0.28,9.45,9.14,14.52,15.06c5.16,6.01,10.54,4.23,16.38,1.51c5.83-2.73,2.57-10.52,0.71-12.37
	c-1.87-1.86-10.09-9-11.38-11.17c-1.25-2.09-10.3-9.83-10.87-10.32c0.62,0.4,10.55,6.84,11.97,8.46c1.47,1.67,5.15,4.21,10.69,8.18
	c5.55,3.98,9.73,8.54,13.82,0c2.81-5.87-2.33-12.41-5.81-15.92c0.24,0.15,0.47,0.29,0.7,0.43c0.81,0.49,1.6,0.93,2.33,1.28
	c3.42,2.48,4.45,6.4,6.17,7.5c1.03,0.65,2.19,0.4,3.14-0.17c0.12,0.17,0.22,0.34,0.31,0.51
	C560.47,382.62,563.78,393.11,553.29,398.63z"/>
<path class="st17" d="M497.33,373.36c0,0,2.07-6.07,8.97-7.86c0,0,6.76,4.69,6.76,8.55c0,3.86-2.61,6.85-7.44,5.36
	C500.78,377.91,497.33,373.36,497.33,373.36z"/>
<path class="st17" d="M513.56,363.6c0,0,2.77-3.59,7.04-4.69c0,0,8.91,6.76,5.56,10.35C522.8,372.84,514.94,368.29,513.56,363.6z"/>
<path class="st17" d="M488.12,390.21c0,0,3.4-5.33,8.42-6.76c0,0,10.35,5.84,5.1,10.44C496.4,398.48,489.36,392.69,488.12,390.21z"
	/>
<path class="st18" d="M553.29,398.63c0,0-4.42,8-9.1,10.21c-4.69,2.2-8.56,1.38-11.31,3.03c-2.76,1.65-7.45,2.48-13.8,3.59
	c-6.35,1.1-12.74,2.48-17.27,1.66c-4.53-0.83-8.8-4.01-12.67-7.98c-3.4-3.49-1.24-10.23,2.62-11.06c0,0-6.62-5.25-7.72-7.73
	c-1.11-2.48-0.83-6.9,3.03-10.76c3.86-3.86,8.55-3.31,8.55-3.31s-5.91-4.84-3.59-10.49c0.84-2.04,2.34-4.74,6.9-5.52
	c6.53-1.1,10.21,2.62,10.21,2.62s-1.03-6.48,5.55-7.86c6.58-1.38,20.93,9.1,23.69,10.48c2.15,1.07,5.62,3.64,8.74,5.5
	c0.81,0.49,1.6,0.93,2.33,1.28c3.42,2.48,4.45,6.4,6.17,7.5c1.03,0.65,2.19,0.4,3.14-0.17c0.12,0.17,0.22,0.34,0.31,0.51
	C560.47,382.62,563.78,393.11,553.29,398.63z"/>
<path class="st18" d="M509.14,362.9c0.92,2.16,9.32,9.7,12.94,11.91c3.62,2.21,13.74,13.24,16.68,14.72
	c2.94,1.47,5.52,6.07,9.01,7.17"/>
<path class="st18" d="M495.62,376.28c5.06,4.23,10.76,11.41,13.52,13.43c2.76,2.02,9.01,9.01,11.77,12.51
	c2.76,3.5,4.6,5.89,15.45,7.36"/>
<path class="st18" d="M529.38,406.82"/>
<path class="st18" d="M540.23,398.91"/>
<path class="st18" d="M547.78,390.63"/>
<path class="st18" d="M552.37,379.8"/>
<path class="st18" d="M491.76,398.08c0,0,7.14,5.98,10.05,7.63c2.92,1.66,6.78,6.07,9.72,6.99c2.94,0.92,5.89,0,5.89,0"/>
<path class="st18" d="M525.05,406.32"/>
<path class="st19" d="M495.62,372.28c0,0,2.07-6.07,8.97-7.86c0,0,6.76,4.69,6.76,8.55c0,3.86-2.61,6.85-7.44,5.36
	C499.07,376.83,495.62,372.28,495.62,372.28z"/>
<path class="st19" d="M512.46,362.9c0,0,2.77-3.59,7.04-4.69c0,0,8.91,6.76,5.56,10.35C521.7,372.14,513.84,367.59,512.46,362.9z"/>
<path class="st19" d="M487.21,389.25c0,0,3.4-5.33,8.42-6.76c0,0,10.35,5.84,5.1,10.44C495.49,397.53,488.45,391.73,487.21,389.25z"
	/>
<path class="st19" d="M489.64,406.56c0,0,4.8-0.97,5.97-5.35c0,0,4.91,3.79,2.08,6.74C493.53,412.29,489.64,406.56,489.64,406.56z"
	/>
<path class="st18" d="M534.81,372.97"/>
<path class="st18" d="M531.63,377.52"/>
<polyline class="st4" points="558.94,279.81 557.8,279.23 556.89,281.14 558.52,283.2 558.95,282.37 "/>
</svg>
