<?xml version="1.0" encoding="utf-8"?>
<!-- Generator: Adobe Illustrator 19.0.0, SVG Export Plug-In . SVG Version: 6.00 Build 0)  -->
<svg version="1.1" id="Warstwa_1" xmlns="http://www.w3.org/2000/svg" xmlns:xlink="http://www.w3.org/1999/xlink" x="0px" y="0px"
	 viewBox="163 15 825 472" style="enable-background:new 163 15 825 472;" xml:space="preserve">
<style type="text/css">
	.st0{clip-path:url(#SVGID_2_);fill:url(#SVGID_3_);}
	.st1{fill:#FFFFFF;}
	.st2{fill:#207254;}
	.st3{fill:#FCC812;}
	.st4{fill:#2C8968;}
	.st5{fill:#FEE9A0;}
	.st6{fill:none;stroke:#404040;stroke-width:0.7971;stroke-miterlimit:10;}
	.st7{fill:#404040;}
	.st8{opacity:0.1;enable-background:new    ;}
	.st9{fill:none;}
	.st10{fill:none;stroke:#FFFFFF;stroke-width:1.2127;stroke-miterlimit:10;}
	.st11{fill:none;stroke:#FFFFFF;stroke-width:1.4982;stroke-miterlimit:10;}
</style>
<g>
	<g>
		<g>
			<defs>
				<rect id="SVGID_1_" x="163" y="15" width="825" height="472"/>
			</defs>
			<clipPath id="SVGID_2_">
				<use xlink:href="#SVGID_1_"  style="overflow:visible;"/>
			</clipPath>
			
				<linearGradient id="SVGID_3_" gradientUnits="userSpaceOnUse" x1="-879.9618" y1="1247.1718" x2="-878.373" y2="1247.1718" gradientTransform="matrix(526.5874 0 0 -526.5874 463517 657038.5)">
				<stop  offset="0" style="stop-color:#379E6E"/>
				<stop  offset="1" style="stop-color:#72C6D4"/>
			</linearGradient>
			<rect x="140.2" y="-141.8" class="st0" width="870.6" height="870.6"/>
		</g>
	</g>
</g>
<g>
	<path class="st1" d="M224.9,122.5c7.2-0.1,14.1-2.9,19.3-8c5.2-5.1,8.2-11.9,8.4-19.1c0.1-5.5-1.3-10.8-4.2-15.4
		c-0.4-0.6-1.1-1-1.8-1c-0.8,0-1.4,0.4-1.8,1.1c-0.4,0.7-0.4,1.5,0.1,2.1c2.5,4,3.7,8.7,3.5,13.5c-0.5,11.7-10.8,22.1-22.6,22.6
		c-6.7,0.3-13.2-2.2-17.9-6.9c-4.7-4.7-7.2-11.2-6.9-17.9c0.6-11.7,10.9-22,22.7-22.6c4.8-0.2,9.5,1,13.5,3.5c0.7,0.4,1.4,0.4,2.1,0
		c0.7-0.4,1.1-1,1.1-1.8c0-0.7-0.4-1.4-1-1.8c-4.6-2.9-10-4.3-15.4-4.2c-7.2,0.2-14,3.2-19.1,8.4c-5.1,5.2-8,12-8,19.3
		c-0.1,7.5,2.8,14.6,8.2,20c5.3,5.3,12.3,8.2,19.7,8.2C224.7,122.5,224.8,122.5,224.9,122.5"/>
	<path class="st1" d="M224.6,77.8c-1,0-1.7,0.5-2.1,1.5L212,104.4c-0.3,0.8-0.3,1.5,0.1,2.1c0.4,0.7,1,1,1.8,1
		c0.4,0,0.8-0.1,1.2-0.3c0.4-0.2,0.7-0.6,0.9-1l3.2-7.7h11l3.1,7.7c0.2,0.4,0.4,0.8,0.8,1c0.4,0.2,0.8,0.4,1.2,0.4
		c0.8,0,1.4-0.3,1.8-1c0.4-0.6,0.5-1.4,0.2-2.1l-10.6-25.2C226.3,78.3,225.6,77.8,224.6,77.8 M220.6,95l4.1-10l4,10H220.6z"/>
	<path class="st1" d="M278.6,96.5c0.3-0.5,0.4-1,0.1-1.6l-7.4-17.6c-0.3-0.7-0.8-1.1-1.6-1.1c-0.7,0-1.2,0.4-1.6,1.1l-7.3,17.5
		c-0.2,0.6-0.2,1.1,0.1,1.6c0.3,0.5,0.8,0.8,1.4,0.8c0.3,0,0.6-0.1,0.9-0.2c0.3-0.2,0.5-0.4,0.7-0.8l2.2-5.3h7.5l2.1,5.3
		c0.1,0.3,0.3,0.6,0.6,0.8c0.3,0.2,0.6,0.3,0.9,0.3C277.9,97.2,278.3,97,278.6,96.5 M267.2,88.2l2.7-6.5l2.6,6.5H267.2z"/>
	<path class="st1" d="M284.8,85.6c0.7-0.3,1.5-0.5,2.5-0.4c0.2,0,0.5,0,0.7-0.1c0.2-0.1,0.4-0.2,0.5-0.4c0.1-0.2,0.2-0.5,0.2-0.8
		c0-0.4-0.1-1-0.9-1.4c-0.6-0.3-1.3-0.3-2.3-0.1c-0.8,0.2-1.5,0.5-2.1,1c-0.1-0.3-0.2-0.6-0.4-0.8c-0.3-0.3-0.7-0.4-1.2-0.4
		c-0.5,0-0.9,0.1-1.2,0.4c-0.3,0.3-0.4,0.7-0.4,1.2v11.9c0,0.5,0.1,0.9,0.4,1.2c0.3,0.3,0.7,0.4,1.2,0.4c0.5,0,0.9-0.1,1.2-0.4
		c0.3-0.3,0.4-0.7,0.4-1.2v-8.8C283.6,86.3,284.1,85.9,284.8,85.6"/>
	<path class="st1" d="M298,94h-0.9c-0.5,0-0.9-0.2-1.2-0.6c-0.3-0.4-0.5-0.9-0.5-1.6v-6.5h2c0.4,0,0.8-0.1,1.1-0.4
		c0.3-0.3,0.4-0.6,0.4-1c0-0.4-0.1-0.8-0.4-1.1c-0.3-0.3-0.6-0.4-1.1-0.4h-2v-3.1c0-0.5-0.1-0.9-0.4-1.1c-0.3-0.3-0.7-0.5-1.1-0.5
		c-0.5,0-0.9,0.1-1.2,0.5c-0.3,0.3-0.5,0.7-0.5,1.1v3.1h-0.8c-0.4,0-0.8,0.1-1.1,0.4c-0.3,0.3-0.4,0.6-0.4,1.1c0,0.4,0.1,0.7,0.4,1
		c0.3,0.3,0.6,0.4,1.1,0.4h0.8v6.5c0,1,0.2,1.9,0.6,2.7c0.4,0.8,1,1.5,1.8,1.9c0.7,0.5,1.6,0.7,2.5,0.7h0.5c0.5,0,1-0.1,1.3-0.4
		c0.4-0.3,0.5-0.7,0.5-1.2c0-0.5-0.1-0.8-0.4-1.1C298.7,94.2,298.4,94,298,94"/>
	<path class="st1" d="M342.3,93.5c0.6-1.1,0.9-2.4,0.9-3.8c0-1.4-0.3-2.7-1-3.9c-0.7-1.1-1.6-2-2.7-2.7s-2.4-1-3.8-1
		c-1.4,0-2.7,0.3-3.8,1s-2,1.6-2.7,2.7c-0.6,1.1-1,2.4-1,3.9v11.9c0,0.5,0.2,0.9,0.5,1.2c0.3,0.3,0.7,0.5,1.2,0.5
		c0.5,0,0.9-0.2,1.2-0.5s0.4-0.7,0.4-1.2v-6.3c0.5,0.5,1.1,0.9,1.8,1.2c0.9,0.5,1.9,0.7,3,0.7c1.3,0,2.5-0.3,3.6-1
		C340.9,95.6,341.7,94.7,342.3,93.5 M339.5,92c-0.4,0.7-0.9,1.2-1.5,1.6c-0.6,0.4-1.4,0.6-2.2,0.6c-0.8,0-1.6-0.2-2.2-0.6
		s-1.2-1-1.5-1.6s-0.6-1.5-0.6-2.4c0-0.9,0.2-1.7,0.6-2.4s0.9-1.2,1.5-1.6c0.6-0.4,1.4-0.6,2.2-0.6c0.8,0,1.6,0.2,2.2,0.6
		s1.2,1,1.5,1.6s0.6,1.5,0.6,2.4C340.1,90.6,339.9,91.3,339.5,92"/>
	<path class="st1" d="M357.4,94.5c0-0.4-0.2-0.8-0.6-1.1c-0.3-0.2-0.6-0.4-1-0.4c-0.4,0-0.7,0.1-1,0.4c-0.3,0.2-0.8,0.5-1.3,0.6
		s-1.1,0.3-1.6,0.3c-0.9,0-1.8-0.2-2.5-0.6c-0.7-0.4-1.3-1-1.7-1.7c-0.2-0.4-0.4-0.8-0.5-1.2h9.6c0.4,0,0.8-0.1,1.1-0.4
		c0.3-0.3,0.4-0.6,0.4-1c0-1.4-0.3-2.7-0.8-3.8c-0.5-1.1-1.3-2-2.4-2.6c-1-0.6-2.2-1-3.7-1c-1.4,0-2.7,0.3-3.8,1
		c-1.1,0.6-2,1.5-2.6,2.7c-0.6,1.1-0.9,2.5-0.9,3.9c0,1.5,0.3,2.8,1,3.9s1.6,2,2.8,2.7c1.2,0.6,2.5,1,4,1c0.8,0,1.7-0.2,2.6-0.5
		c0.9-0.3,1.7-0.7,2.3-1.2C357.3,95.2,357.4,94.8,357.4,94.5 M347.6,87.2c0.3-0.7,0.8-1.3,1.5-1.7c0.6-0.4,1.5-0.6,2.4-0.6
		c0.8,0,1.5,0.2,2.1,0.5c0.6,0.4,1,0.9,1.3,1.5c0.2,0.4,0.3,0.8,0.4,1.2h-8C347.4,87.9,347.5,87.5,347.6,87.2"/>
	<path class="st1" d="M368.7,86.8c0.3,0.6,0.5,1.4,0.5,2.3v6.5c0,0.5,0.2,0.9,0.5,1.2c0.3,0.3,0.7,0.5,1.2,0.5
		c0.5,0,0.9-0.2,1.2-0.5s0.5-0.7,0.5-1.2v-6.5c0-1.5-0.3-2.8-0.9-3.8s-1.4-1.9-2.4-2.4c-1-0.5-2.1-0.8-3.4-0.8
		c-1.2,0-2.3,0.3-3.3,0.8c-0.1,0.1-0.2,0.1-0.3,0.2c-0.1-0.1-0.2-0.3-0.3-0.4c-0.3-0.3-0.7-0.5-1.2-0.5c-0.5,0-0.9,0.1-1.2,0.5
		c-0.3,0.3-0.5,0.7-0.5,1.2v11.7c0,0.5,0.2,0.9,0.5,1.2c0.3,0.3,0.7,0.5,1.2,0.5c0.5,0,0.9-0.2,1.2-0.5s0.4-0.7,0.4-1.2v-9.3
		c0.3-0.3,0.6-0.6,1-0.8c0.5-0.3,1.2-0.4,1.9-0.4c0.8,0,1.4,0.1,2,0.4C368,85.8,368.4,86.3,368.7,86.8"/>
	<path class="st1" d="M324.4,78.9L324.4,78.9c-1-1-2.1-1.7-3.4-2.3s-2.8-0.8-4.4-0.8c-1.6,0-3.1,0.3-4.4,0.8
		c-1.3,0.5-2.5,1.3-3.4,2.3c-1,1-1.7,2.1-2.2,3.5c-0.5,1.3-0.8,2.8-0.8,4.4c0,1.6,0.3,3.1,0.8,4.4c0.5,1.3,1.3,2.5,2.2,3.5
		c0.9,1,2.1,1.7,3.4,2.3s2.8,0.8,4.4,0.8c1.6,0,3-0.3,4.4-0.8c1.3-0.5,2.5-1.3,3.4-2.3s1.7-2.1,2.2-3.5c0.5-1.3,0.8-2.8,0.8-4.4
		c0-1.6-0.3-3.1-0.8-4.4C326.2,81,325.4,79.8,324.4,78.9 M323.4,89.7c-0.4,0.9-0.9,1.7-1.5,2.4s-1.4,1.2-2.3,1.6
		c-0.9,0.4-1.9,0.6-2.9,0.6c-1.1,0-2.1-0.2-2.9-0.6c-0.9-0.4-1.7-0.9-2.3-1.6c-0.6-0.7-1.1-1.5-1.5-2.4c-0.4-0.9-0.5-1.9-0.5-3
		s0.2-2.1,0.5-3c0.4-0.9,0.9-1.7,1.5-2.4c0.6-0.7,1.4-1.2,2.3-1.6c0.9-0.4,1.9-0.6,3-0.6s2.1,0.2,2.9,0.6c0.9,0.4,1.7,0.9,2.3,1.6
		c0.6,0.7,1.2,1.5,1.5,2.4c0.4,0.9,0.5,1.9,0.5,3C324,87.8,323.8,88.8,323.4,89.7"/>
	<path class="st1" d="M275.4,110.5c-0.3-0.3-0.8-0.5-1.5-0.6c-0.4,0-0.7-0.1-0.9-0.2s-0.4-0.2-0.5-0.4c-0.1-0.1-0.1-0.3-0.1-0.5
		c0-0.3,0.1-0.5,0.4-0.7s0.6-0.2,1-0.2c0.2,0,0.4,0,0.6,0.1c0.2,0.1,0.3,0.1,0.4,0.2c0.1,0.1,0.2,0.2,0.3,0.3c0,0.1,0.1,0.1,0.2,0.1
		c0.1,0,0.2,0,0.2,0c0.1,0,0.1-0.1,0.1-0.2c0-0.1,0-0.1,0-0.2c-0.1-0.2-0.3-0.3-0.4-0.5c-0.2-0.1-0.4-0.2-0.6-0.3
		c-0.2-0.1-0.5-0.1-0.8-0.1c-0.4,0-0.7,0.1-1,0.2c-0.3,0.1-0.5,0.3-0.7,0.5c-0.2,0.2-0.3,0.5-0.3,0.8c0,0.4,0.2,0.8,0.5,1
		c0.4,0.3,0.8,0.5,1.5,0.5c0.5,0.1,0.9,0.2,1.1,0.4c0.2,0.2,0.4,0.5,0.4,0.8c0,0.2-0.1,0.4-0.2,0.6c-0.1,0.2-0.3,0.3-0.5,0.4
		c-0.2,0.1-0.5,0.1-0.8,0.1c-0.2,0-0.5,0-0.7-0.1c-0.2-0.1-0.4-0.1-0.6-0.3c-0.1-0.1-0.3-0.2-0.4-0.4c0-0.1-0.1-0.1-0.2-0.1
		s-0.1,0-0.2,0c-0.1,0-0.2,0.1-0.2,0.1c0,0.1,0,0.1,0,0.2c0.1,0.2,0.3,0.4,0.5,0.6c0.2,0.2,0.5,0.3,0.8,0.4c0.3,0.1,0.6,0.1,0.9,0.1
		c0.3,0,0.6,0,0.8-0.1c0.2-0.1,0.5-0.2,0.7-0.3s0.3-0.3,0.4-0.5s0.2-0.4,0.2-0.7C275.9,111.2,275.8,110.8,275.4,110.5"/>
	<path class="st1" d="M282.2,107.5h-1.9h-0.6h-1.9c-0.1,0-0.1,0-0.2,0.1c-0.1,0-0.1,0.1-0.1,0.2c0,0.1,0,0.1,0.1,0.2
		c0,0,0.1,0.1,0.2,0.1h1.9v4.9c0,0.1,0,0.1,0.1,0.2s0.1,0.1,0.2,0.1s0.2,0,0.2-0.1c0.1-0.1,0.1-0.1,0.1-0.2V108h1.9
		c0.1,0,0.1,0,0.2-0.1c0.1,0,0.1-0.1,0.1-0.2c0-0.1,0-0.1-0.1-0.2C282.3,107.6,282.3,107.5,282.2,107.5"/>
	<path class="st1" d="M289.3,107.5c-0.1,0-0.2,0-0.2,0.1s-0.1,0.1-0.1,0.2v3.5c0,0.3-0.1,0.5-0.2,0.8s-0.4,0.4-0.6,0.5
		c-0.3,0.1-0.6,0.2-1,0.2c-0.4,0-0.7-0.1-1-0.2s-0.5-0.3-0.7-0.5s-0.2-0.5-0.2-0.8v-3.5c0-0.1,0-0.1-0.1-0.2c-0.1,0-0.1-0.1-0.2-0.1
		s-0.2,0-0.2,0.1s-0.1,0.1-0.1,0.2v3.5c0,0.4,0.1,0.7,0.3,1c0.2,0.3,0.5,0.5,0.9,0.7c0.4,0.2,0.8,0.3,1.3,0.3c0.5,0,0.9-0.1,1.3-0.3
		c0.4-0.2,0.7-0.4,0.9-0.7c0.2-0.3,0.3-0.6,0.3-1v-3.5c0-0.1,0-0.1-0.1-0.2C289.4,107.6,289.4,107.5,289.3,107.5"/>
	<path class="st1" d="M296.4,108.3c-0.3-0.3-0.6-0.5-1-0.6c-0.4-0.1-0.8-0.2-1.2-0.2h-1.4c-0.1,0-0.2,0-0.2,0.1s-0.1,0.1-0.1,0.2
		v5.1c0,0.1,0,0.1,0.1,0.2c0.1,0,0.1,0.1,0.2,0.1h1.4c0.5,0,0.9-0.1,1.2-0.2c0.4-0.1,0.7-0.3,1-0.6c0.3-0.3,0.5-0.6,0.6-0.9
		s0.2-0.7,0.2-1.1c0-0.4-0.1-0.8-0.2-1.1C296.9,108.9,296.7,108.6,296.4,108.3 M296.4,111.6c-0.2,0.4-0.5,0.6-0.9,0.8
		c-0.4,0.2-0.8,0.3-1.3,0.3h-1.1V108h1.1c0.5,0,0.9,0.1,1.3,0.3c0.4,0.2,0.7,0.5,0.9,0.8c0.2,0.4,0.3,0.8,0.3,1.2
		C296.7,110.8,296.6,111.2,296.4,111.6"/>
	<path class="st1" d="M300.2,107.5c-0.1,0-0.2,0-0.2,0.1s-0.1,0.1-0.1,0.2v5.1c0,0.1,0,0.1,0.1,0.2c0.1,0,0.1,0.1,0.2,0.1
		s0.2,0,0.2-0.1s0.1-0.1,0.1-0.2v-5.1c0-0.1,0-0.1-0.1-0.2C300.3,107.6,300.3,107.5,300.2,107.5"/>
	<path class="st1" d="M308.5,108.3c-0.3-0.3-0.6-0.5-1-0.6c-0.4-0.1-0.8-0.2-1.3-0.2c-0.5,0-0.9,0.1-1.3,0.2c-0.4,0.1-0.7,0.4-1,0.6
		c-0.3,0.3-0.5,0.6-0.7,0.9c-0.2,0.4-0.2,0.7-0.2,1.2s0.1,0.8,0.2,1.2c0.2,0.4,0.4,0.7,0.7,0.9c0.3,0.3,0.6,0.5,1,0.6
		c0.4,0.1,0.8,0.2,1.3,0.2c0.5,0,0.9-0.1,1.3-0.2c0.4-0.1,0.7-0.4,1-0.6c0.3-0.3,0.5-0.6,0.7-0.9s0.2-0.8,0.2-1.2s-0.1-0.8-0.2-1.2
		C309,108.9,308.8,108.5,308.5,108.3 M308.6,111.3c-0.1,0.3-0.3,0.5-0.5,0.8c-0.2,0.2-0.5,0.4-0.8,0.5c-0.3,0.1-0.6,0.2-1,0.2
		s-0.7-0.1-1-0.2c-0.3-0.1-0.6-0.3-0.8-0.5c-0.2-0.2-0.4-0.5-0.5-0.8s-0.2-0.6-0.2-1c0-0.3,0.1-0.6,0.2-0.9s0.3-0.5,0.5-0.8
		c0.2-0.2,0.5-0.4,0.8-0.5c0.3-0.1,0.7-0.2,1-0.2s0.7,0.1,1,0.2s0.6,0.3,0.8,0.5c0.2,0.2,0.4,0.5,0.5,0.8s0.2,0.6,0.2,0.9
		S308.7,111,308.6,111.3"/>
	<path class="st1" d="M318.2,110.9c0.1,0,0.2-0.1,0.3-0.1c0.3-0.1,0.5-0.4,0.7-0.6c0.2-0.3,0.3-0.5,0.3-0.9c0-0.4-0.1-0.6-0.3-0.9
		c-0.2-0.3-0.4-0.5-0.7-0.6c-0.3-0.1-0.6-0.2-1-0.2h-1.5c-0.1,0-0.2,0-0.2,0.1c-0.1,0-0.1,0.1-0.1,0.2v5.1c0,0.1,0,0.1,0.1,0.2
		c0.1,0,0.1,0.1,0.2,0.1s0.2,0,0.2-0.1s0.1-0.1,0.1-0.2v-2h1.2c0,0,0.1,0,0.1,0l1.4,2.1c0,0,0.1,0.1,0.1,0.1c0,0,0.1,0,0.2,0
		c0.1,0,0.2,0,0.3-0.1c0.1-0.1,0-0.2,0-0.3L318.2,110.9z M317.4,110.4h-1.2v-2.4h1.2c0.3,0,0.5,0,0.7,0.1c0.2,0.1,0.4,0.2,0.5,0.4
		c0.1,0.2,0.2,0.4,0.2,0.6c0,0.2-0.1,0.4-0.2,0.6s-0.3,0.3-0.5,0.4C317.9,110.4,317.6,110.4,317.4,110.4"/>
	<path class="st1" d="M325.8,108.1c0.1,0,0.2,0,0.2-0.1s0.1-0.1,0.1-0.2c0-0.1,0-0.1-0.1-0.2c-0.1,0-0.1-0.1-0.2-0.1h-3.7
		c-0.1,0-0.2,0-0.2,0.1s-0.1,0.1-0.1,0.2v5.1c0,0.1,0,0.1,0.1,0.2c0.1,0,0.1,0.1,0.2,0.1h3.7c0.1,0,0.2,0,0.2-0.1s0.1-0.1,0.1-0.2
		c0-0.1,0-0.1-0.1-0.2s-0.1-0.1-0.2-0.1h-3.4v-2h2.5c0.1,0,0.2,0,0.2-0.1s0.1-0.1,0.1-0.2c0-0.1,0-0.1-0.1-0.2
		c-0.1,0-0.1-0.1-0.2-0.1h-2.5v-2L325.8,108.1L325.8,108.1z"/>
	<path class="st1" d="M332.6,107.8c0-0.1,0-0.1-0.1-0.2c0,0-0.1-0.1-0.2-0.1c0,0-0.1,0-0.1,0c0,0-0.1,0-0.1,0.1l-2.9,2.7v-2.5
		c0-0.1,0-0.1-0.1-0.2c-0.1-0.1-0.1-0.1-0.2-0.1c-0.1,0-0.2,0-0.2,0.1c-0.1,0.1-0.1,0.1-0.1,0.2v5.1c0,0.1,0,0.1,0.1,0.2
		c0.1,0.1,0.1,0.1,0.2,0.1c0.1,0,0.2,0,0.2-0.1c0.1-0.1,0.1-0.1,0.1-0.2v-1.9l0.7-0.7l2.2,2.7c0.1,0.1,0.1,0.1,0.3,0.1
		c0.1,0,0.1,0,0.2-0.1c0,0,0.1-0.1,0.1-0.2c0-0.1,0-0.1-0.1-0.2l-2.2-2.8l2.2-2C332.6,107.9,332.6,107.9,332.6,107.8"/>
	<path class="st1" d="M338.8,112.7h-3.1v-4.9c0-0.1,0-0.1-0.1-0.2c-0.1-0.1-0.1-0.1-0.2-0.1c-0.1,0-0.2,0-0.2,0.1
		c-0.1,0.1-0.1,0.1-0.1,0.2v5.1c0,0.1,0,0.1,0.1,0.2c0.1,0,0.1,0.1,0.2,0.1h3.4c0.1,0,0.2,0,0.2-0.1c0.1,0,0.1-0.1,0.1-0.2
		c0-0.1,0-0.1-0.1-0.2C338.9,112.7,338.9,112.7,338.8,112.7"/>
	<path class="st1" d="M343.7,107.7c-0.1-0.1-0.2-0.2-0.3-0.2c-0.1,0-0.2,0.1-0.3,0.2l-2.3,5.1c0,0.1,0,0.2,0,0.3
		c0,0.1,0.1,0.1,0.3,0.1c0.1,0,0.1,0,0.2,0c0,0,0.1-0.1,0.1-0.1l0.5-1.2h3.1l0.5,1.2c0,0.1,0.1,0.1,0.1,0.1s0.1,0,0.2,0
		c0.1,0,0.2,0,0.3-0.1s0.1-0.2,0-0.3L343.7,107.7z M342.1,111.4l1.3-2.9l1.3,2.9H342.1z"/>
	<path class="st1" d="M354.2,107.5c-0.1,0-0.2,0-0.3,0.1l-2.5,4.6l-2.5-4.6c-0.1-0.1-0.1-0.1-0.3-0.1c-0.1,0-0.2,0-0.2,0.1
		s-0.1,0.1-0.1,0.2v5.1c0,0.1,0,0.1,0.1,0.2s0.1,0.1,0.2,0.1c0.1,0,0.2,0,0.2-0.1c0.1-0.1,0.1-0.1,0.1-0.2v-4.1l2.2,4
		c0.1,0.1,0.1,0.2,0.3,0.2c0.1,0,0.2,0,0.3-0.1l2.2-4.1v4.1c0,0.1,0,0.1,0.1,0.2s0.1,0.1,0.2,0.1c0.1,0,0.2,0,0.2-0.1
		c0.1-0.1,0.1-0.1,0.1-0.2v-5.1c0-0.1,0-0.1-0.1-0.2C354.3,107.6,354.2,107.5,354.2,107.5"/>
	<path class="st1" d="M361.4,107.5c-0.1,0-0.1,0-0.2,0c0,0-0.1,0.1-0.1,0.1l-2,2.9l-2-2.9c0,0-0.1-0.1-0.1-0.1c0,0-0.1,0-0.2,0
		c-0.1,0-0.1,0-0.2,0.1c0,0-0.1,0.1-0.1,0.2c0,0.1,0,0.1,0.1,0.2l2.2,3.1v1.8c0,0.1,0,0.1,0.1,0.2s0.1,0.1,0.2,0.1
		c0.1,0,0.2,0,0.2-0.1c0.1-0.1,0.1-0.1,0.1-0.2v-1.8l2.2-3.1c0.1-0.1,0.1-0.1,0.1-0.2c0-0.1,0-0.1-0.1-0.2
		C361.5,107.5,361.5,107.5,361.4,107.5"/>
	<path class="st1" d="M372.4,110.2h-6.3c-0.1,0-0.2,0.1-0.2,0.2s0.1,0.2,0.2,0.2h6.3c0.1,0,0.2-0.1,0.2-0.2S372.4,110.2,372.4,110.2
		"/>
	<path class="st1" d="M267.2,110.2h-6.3c-0.1,0-0.2,0.1-0.2,0.2s0.1,0.2,0.2,0.2h6.3c0.1,0,0.2-0.1,0.2-0.2S267.3,110.2,267.2,110.2
		"/>
</g>
<g>
	<path class="st2" d="M792.7,296.2c-21.4,29.1-49.1,47.2-79,56.5c0,0,0,0-0.1,0c-2.6,0.8-5.3,1.6-8,2.3c-2.8,0.7-5.7,1.4-8.5,1.9v0
		c-40.1,8-82.6,1.5-117.9-14.9c-19.8-9.2-36.6-24.8-46.7-44.1c10.2-7.3,29.3-14.2,62.1-5.4c56.2,15.2,99.3,51.1,136.7,24.9
		C757.9,299,777.3,292.6,792.7,296.2z"/>
	<ellipse class="st3" cx="674" cy="402.3" rx="106.6" ry="12.4"/>
	<ellipse class="st4" cx="674" cy="402.3" rx="106.6" ry="12.4"/>
	<path class="st5" d="M767.9,288.9C767.9,288.9,767.9,288.8,767.9,288.9c-0.1-0.1-0.2-0.2-0.2-0.3c-0.1-0.1-0.2-0.3-0.3-0.4
		c0,0,0,0,0,0l-3.5-3.6c0,0-0.1,0-0.1-0.1l-11.9-12c0,0-0.1-0.1-0.1-0.1c-0.6-0.7-5.1-6-7-8.9c0,0,0-0.1-0.1-0.1
		c-0.2-0.3-0.4-0.6-0.5-0.8c-0.2-0.4-0.6-0.9-1-1.4c0,0-0.1-0.1-0.1-0.1c-1.9-2.2-5.3-4.9-8.4-6.6c0,0-0.1,0-0.1-0.1
		c-0.7-0.4-1.3-0.7-2-0.9c0,0-0.1,0-0.1-0.1c0,0,2-0.9,1.7-3.3c0-0.1,0-0.1,0-0.2c0,0,0-0.1,0-0.1c0,0,0-0.1,0-0.1
		c-0.5-2-3-4.7-5.3-6.3c-0.2-0.1-0.4-0.2-0.6-0.4c-0.2-0.1-0.3-0.2-0.5-0.3c-0.1,0-0.1-0.1-0.2-0.1h0v0l-0.6-6h-1.1l-0.3-3.7
		c0,0,0-1.5,0.1-3.8c0-0.1,0-0.2,0-0.4c0.1-5.6,0.5-15.6,1.1-22.8v0c0.9-10.5,2.1-22.1,2.6-28.5c0-0.1,0-0.1,0-0.2c0,0,0-0.1,0-0.1
		c0-0.4,0.1-0.7,0.1-1.1c0-0.3,0.1-0.6,0.1-1c0.4-4.6,0.9-8.8,0.2-10.6c-0.1-0.4-0.3-0.7-0.6-0.8c-1.4-0.9-3.7,4.9-5.4,10.6v0
		c-0.3,1.1-0.6,2.2-0.9,3.3c0,0.1-0.1,0.3-0.1,0.4c-1.2,4.7-4.2,16.3-5.9,25.5c-0.8,4.3-1.2,8-1.1,10.3c0,0,0,0,0,0
		c0.4,7.4,0.9,8,2.7,13.6c1.7,5.3,2.1,8.6,2.1,8.9v0l-0.9,0.2l-0.7,0.1l-0.5,3.5c0,0-1.9-0.1-3.6,0.7c-0.6,0.3-1.2,0.7-1.6,1.2l0,0
		c-0.1,0-0.4-0.1-0.8-0.2c0,0,0,0,0,0c-1.1-0.2-3.2-0.5-5.8-0.6c-1.9,0-4.1,0-6.5,0.4c0,0,0,0-0.1,0c-6.5,1-12.3,3.1-14.3,4.4
		c-0.1,0-0.1,0.1-0.2,0.1c0,0,0,0,0,0c-0.1,0-0.1,0.1-0.2,0.2c0,0-0.1,0-0.1,0.1c0,0,0,0-0.1,0.1c0,0-0.1,0-0.1,0.1
		c0,0-0.1,0.1-0.1,0.1c-0.7,0.8-1.2,2.6-1.4,4.5v0c-0.1,1.2-0.1,2.5,0.1,3.5c0,0.2,0.1,0.4,0.2,0.5c0,0,0,0,0,0l7.9,0.5l3.6,0.2
		l4.9,0.3v0l-0.7,16.2c0,0-2,1.5-4.4,3.5c-1.8,1.6-3.8,3.4-5.3,5.3c-0.1,0.2-0.3,0.3-0.4,0.5c-0.2,0.2-0.3,0.4-0.5,0.7
		c0,0.1-0.1,0.1-0.1,0.2c-1.8,2.5-4,6.5-5.9,10c-2,3.6-3.7,6.9-4.4,7.9l0,0c-0.8,1.2-2.4,4.2-4,7c-1.3,2.3-2.5,4.4-3.5,5.2
		c0,0,0,0,0,0c-2,1.8-3.3,3.7-2.3,4.1c1.1,0.5,2.7,0.2,5.9-2.4c0,0,0.1,0,0.1-0.1c3.1-2.5,11-13,11.5-13.7c0.6-0.7,1.1-1.4,1.7-2.1
		c0.2-0.3,0.5-0.6,0.7-0.9c1.4-1.7,3.2-3.9,4.8-5.8c0.4-0.5,0.8-1,1.2-1.5c0.2-0.3,0.5-0.6,0.7-0.9c0.5-0.6,1-1.3,1.6-1.9
		c1.6-1.9,2-1.6,2-1.6l-0.1,2.9l-0.1,1.9v0l-2.9,105.8c2.6-0.5,5.2,0.7,7.8,0c2.4-0.6,7.3,0.8,9.7,0c0,0,0,0,0.1,0l-3.9-123.7V273
		c0,0,0.1-0.1,0.1-0.1l1.7-1.9l8.9-9.8c0,0,0-0.1,0.1-0.1c0,0,0.2,0.1,0.4,0.2c0.4,0.2,1,0.4,1.6,0.1c0.8-0.5,2.6-4.3,2.6-4.3
		l2.3-0.6c0,0,0,0,0.1,0c0,0,0,0,0,0l1.1-0.3l1,0.9l6,5.5c0.1,0.1,0.2,0.2,0.2,0.2l32.5,30.2c0,0,0,0,0,0c0.2,0.2,2,2.2,3.2,1.6
		C771.8,294.1,769.1,290.5,767.9,288.9z M710.2,263.3c-0.2,0.2-0.4,0.4-0.5,0.6c0,0,0,0-0.1,0.1c-0.3,0.4-0.6,0.6-0.6,0.7
		c0,0,0,0,0,0v-7.7h0l0.7,0l4.3,0l0.2,0.9l0,0.1c-0.2,0.2-0.3,0.5-0.5,0.7C712.7,260.3,711.2,262.1,710.2,263.3z"/>
	<path class="st3" d="M729.9,255l-1.1,1.9l-1-0.9l-1.2,0.3c0,0-0.1,0-0.1,0l-2.3,0.6c0,0-1.7,3.8-2.6,4.3c-0.5,0.3-1.2,0.1-1.6-0.1
		l0.5-1.4c0,0-1.2-3.8-5.4-3.5l-0.4,2.3c0,0-1.6-2.7-1.6-3c0.1-0.4-2.3-2.8-2.6-6.4c-0.4-3.6,1.4-10.6,10.6-8.7c0,0-3,0.3-4.2,5.2
		C716.1,250.5,723.4,254,729.9,255z"/>
	<polygon class="st3" points="698.2,291 706.9,281.9 706.1,276.3 698.7,285.4 	"/>
	<path class="st3" d="M704.4,249.6v-1.2l5,4.9l-0.4,3.3v8.2c-1.3,1.3-3.5,3.1-4.6,3.9C704.6,257.5,704.6,250,704.4,249.6z"/>
	<path class="st3" d="M712.9,396.7C712.9,396.8,712.9,396.7,712.9,396.7c-2.5,0.8-7.3-0.6-9.8,0c0.3-15.1,0.6-76.4,0.9-95.2
		c0.1-5.4,0.2-10.7,0.2-15.7c0-0.4,0-0.8,0-1.1c0-2.1,0.1-4.2,0.1-6.3v-0.1l0.6-0.7l1.1-1.3l2.9-3.3l0,0L712.9,396.7z"/>
	<path class="st3" d="M770.8,294.6c-1.3,0.6-3.3-1.7-3.3-1.7L727.9,256l-1.2,0.3c0.4-0.1,3.3-0.9,5.9-3c4.3,1.7,10.1,6.4,11.6,9.1
		c1.5,2.8,7.6,9.9,7.6,9.9l15.5,15.7C767.3,288.1,772.1,294,770.8,294.6z"/>
	<path class="st3" d="M711.1,246.3c0,0-23.4-1.4-25.9-0.2c-2.5,1.2-2.4,7-1.7,9.1l29.9,1.8l0-1.4l0.1-0.4
		C713.5,255.2,710.4,253,711.1,246.3z"/>
	<path class="st3" d="M718.3,256.7c0,0-4.3,9.4-10,13.4c-5.7,4-16.9,11.7-26.5,23.3c0,0,5-11,10.5-15.5c5.5-4.6,12.9-8.9,15.2-11.3
		c2.3-2.4,7.9-10.2,7.9-10.2L718.3,256.7z"/>
	<path class="st3" d="M723.6,174.3c-3.4,16.9-4.3,40.4-2.1,48.7c2.2,8.3,1.4,13.4,1.4,13.4h-3.4v-0.1l0.8-0.2c0,0-0.3-3.4-2.1-9
		c-1.8-5.6-2.3-6.2-2.7-13.6c-0.4-7.4,5.4-29.8,7.1-36.2c0.3-1.1,0.6-2.2,0.9-3.3C723.6,174.2,723.6,174.3,723.6,174.3z"/>
	<path class="st6" d="M718.3,240c-2.8,0.1-4.9,0.7-6.2,3.4c-1.9,3.8-1.7,9,1.4,11.8"/>
	<path class="st6" d="M724.4,256.9c5.1-1,9.7-3.9,9.9-6.5c0.2-2.5-2.9-6-7-8.2"/>
	<path class="st6" d="M727.6,242.5l-0.6-6h-8.2l-0.5,3.5c0,0,1.6,0,4.7,0.8"/>
	<path class="st6" d="M720.3,236.5c0,0,0.7-4-3.2-11.6c-3.9-7.6,0-25.6,3.2-38.5c3.3-12.9,6-22.3,8.7-22.9
		c2.7-0.6-2.3,32.9-2.6,47.5c-0.3,14.5-1.3,18.2-0.8,25.5"/>
	<path class="st6" d="M720.8,259.8c0,0-2.1-4.6-5.4-3.5c-2.8,4.3-6.1,9.2-10.3,12.1c-4.4,3.1-9.1,5.4-12.8,9.4
		c-3.7,3.9-6.6,8.5-9.2,13.2c-4.5,8.1-8.1,16.7-14,23.7c-0.5,0.6-1,1.4-0.6,2.1c0.4,0.8,1.6,0.5,2.4,0.1c4.9-2.6,7.8-7.4,11.2-11.6
		c2.7-3.3,5.4-6.6,8.1-9.8c6.2-7.5,12.4-15,18.7-22.4c2.4-2.8,4.8-5.6,7.3-8.3C716.4,264.4,720.9,260,720.8,259.8z"/>
	<path class="st6" d="M714.4,257.8c0,0-0.9-1.5-1-2.2c0-0.7,1.6-3,1.6-3"/>
	<path class="st6" d="M719.8,260.9c0,0,1.6,0.7,2.2,0c0.6-0.7,2.6-4.5,2.6-4.5s-2.7-3.5-4.8-3.9"/>
	<path class="st6" d="M728.1,256c7.9,7.7,39.9,38.6,42,38.6c2.3,0-1-4.3-2.7-6.4c-1.7-2.2-18.1-16.7-22.6-24.8
		c-2.9-5.2-8.8-8.5-12.2-10"/>
	<path class="st6" d="M714,256.9l-6.8-0.4l-3.6-0.2l-8.6-0.5l-3.6-0.2l-7.9-0.5c0,0-1.3-7.2,1.7-9.1c2-1.3,8.2-3.1,12.9-4.1
		c2.3-0.5,4.2-0.8,5.2-0.9c0.8,0,2,0,3.2,0.1c1.5,0.1,3.1,0.3,4.5,0.5c0.6,0.1,1.6,0.1,2.1,0.2"/>
	<line class="st6" x1="699.1" y1="272.4" x2="699.8" y2="256.1"/>
	<polyline class="st6" points="698.5,285.3 698.4,289 698.3,289 698.3,290.9 698.3,290.9 695.3,396.7 695.3,396.7 	"/>
	<path class="st6" d="M712.8,396.7c-0.3-14.9-3.1-77.8-3.4-95.7c-0.1-5.6-0.2-11-0.3-16c-0.1-4.4-0.1-8.4-0.2-12c0-0.1,0-0.1,0-0.2
		v0"/>
	<path class="st6" d="M709,256.7c-0.1,0-0.1,2.9-0.1,8.3"/>
	<path class="st7" d="M706.5,241.2c-2,0.6-9.7,3.2-10.5,4.6c-1.2,2-1.1,7.7-1,10.1l-3.6-0.2c-0.1-2.9,0-8.5,1.1-10.5
		c1-1.2,3.3-2.3,5.6-3.2c2.3-0.5,4.2-0.8,5.2-0.9C704.1,241,705.3,241.1,706.5,241.2z"/>
	<path class="st7" d="M713,242c0,0-4.6,2.1-5.5,4.4c-0.7,1.9-0.5,8.2-0.4,10.2l-3.6-0.2c0-2.6,0.1-8.8,0.4-10.4c0.5-2.1,7-4.2,7-4.2
		l1.6,0.2L713,242z"/>
	<path class="st6" d="M709.1,285.1c-1.1,0.3-3.5,0.7-6.4,0.9v15.5c0,0,3.5,0.5,6.7-0.4"/>
	<path class="st7" d="M699.8,256.1c0,0,3.4,4.2,9.2,4.9l0-4.6L699.8,256.1z"/>
	<path class="st8" d="M709,273.1l-2.9,3.3l0,0l0-0.1l-1.1,1.3l0,0l-0.6,0.7v0.1l-5.6,7l-0.5,5.7l6.1-6.4c0,0.4,0,0.8,0,1.1
		c-0.1,5-0.1,10.3-0.2,15.7c-0.3,18.8-0.6,80.1-0.9,95.2c2.4-0.6,7.3,0.8,9.7,0c0,0,0,0,0.1,0L709,273.1L709,273.1z"/>
	<path class="st8" d="M767.3,288.1l-15.5-15.7c0,0-6.1-7.1-7.6-9.9c-1.5-2.7-7.3-7.4-11.6-9.1c-0.9,0.7-1.9,1.3-2.8,1.7l0,0
		c-6.6-1.1-13.8-4.5-12.6-9.4c1.2-4.9,4.2-5.2,4.2-5.2c-7.1-1.5-9.8,2.4-10.5,5.9c-1.5-0.1-23.4-1.3-25.8-0.2
		c-2.5,1.2-2.4,7-1.7,9.1l21,1.2c0,3.2,0,7.5-0.1,12.4c0.8-0.7,2.4-2,3.7-3.1c-0.3,0.3-0.5,0.6-0.7,0.8c-2.3,2.4-9.7,6.7-15.2,11.3
		c-5.5,4.6-10.5,15.5-10.5,15.5c9.6-11.5,20.8-19.2,26.5-23.3c5.3-3.7,9.3-12,9.9-13.2c1.9,1,2.6,3,2.6,3l-0.5,1.4
		c0.4,0.2,1,0.4,1.6,0.1c0.8-0.5,2.6-4.3,2.6-4.3l2.3-0.6c0,0,0,0,0.1,0l1.2-0.3l39.7,36.9c0,0,2,2.3,3.3,1.7
		C772.1,294,767.3,288.1,767.3,288.1z M713,254.6c-0.4-0.5-1-1.4-1.4-2.8C712,253,712.5,253.9,713,254.6z M709,264.7v-8l4.4,0.3
		l0-1.4l0,0l0,0c0,0.2,0.5,1.2,1,2C713.1,259.3,710.8,262.5,709,264.7z M715.4,256.3L715.4,256.3c0.9-0.1,1.6,0.1,2.2,0.3
		L715.4,256.3z"/>
	<path class="st8" d="M718.3,227.2c1.8,5.6,2.1,9,2.1,9l-0.8,0.2v0.1h3.4c0,0,0.7-5.1-1.4-13.4s-1.2-31.8,2.1-48.7
		c0-0.1,0-0.2,0-0.3c-0.3,1.1-0.7,2.3-0.9,3.3c-1.7,6.4-7.5,28.9-7.1,36.2C716,221,716.5,221.6,718.3,227.2z"/>
	<polygon class="st9" points="648.8,228 651.7,224.6 648.8,227.8 	"/>
	<path class="st5" d="M729.1,227l-10.4-8.5c0,0-15.5-15.6-17.9-20.1c-2.4-4.5-6.3-8.1-13.3-10.9c-0.1,0-0.1-0.1-0.2-0.1
		c0,0,3.2-1.5,2.8-5.4c-0.3-3.9-6.5-10.1-10.8-12.2l-1-9.8h-1.8l-0.5-6c0,0,0.5-26.9,1.9-44c1.4-17,2.7-25.6,3.4-36
		c0.8-10.4,2.1-8.3-0.7-10.1c-2.4-1.5-8.5,15.5-8.9,17.2c-2.8,10.5-10.3,31.4-10.3,43.4c0,10.2-1.5,14.1,2.7,20.4
		c5.3,7.9,3.4,14.6,3.4,14.6l-1.4,0.3l-1.1,0.2l-0.5,3.2l-0.4,2.5c0,0-5.8-0.3-8.6,3.2c0,0-9.5-2.5-21.5-0.7
		c-12.1,1.8-22.5,6-24.5,7.8c-2,1.8-3.6,10.1-2.1,14.3l26.6,1.6v0.1l14.9,1.2v0l1.2,0l7,0l0.2,0.7l0.8,0.1l-0.8-0.1l1.5,1.6
		c-1.9,2.9-5.3,6.1-7.2,8.3c-1.2,1.4-2.7,2-2.7,2v-0.1c-2.4,2.5-6.4,6.5-9.7,8.5c-2.5,1.6-5.6,3.7-8,5.3c-3.2,2.4-8.1,7.9-12.5,15.6
		c-4.6,8-13,21.7-17.5,27.3c-2,5.7,8.9-2,8.9-2s15.7-18.3,18.7-21.9c1.3-1.6,18.9-21,18.9-21l8.8-9.6l9-9c0,0,1.3,1,1.7,1.2
		c0.7,0.3,1.7,0.7,2.5,0.1c1.4-0.9,4.2-7,4.2-7l3.8-1c0,0,0,0,0.1,0l2.4-0.6l1.2,1.3l51,41.8l2,0.1l-0.8-2.5L729.1,227z"/>
	<polygon class="st5" points="639.8,226.5 638.3,262.6 635.8,318.8 633.2,396.7 660,377.7 656.5,208.1 	"/>
	<path class="st9" d="M648.8,214.4c0,0,0.8-0.9,2-2.3c0,0-0.8,0.9-2,2.2V214.4z"/>
	<path class="st9" d="M650.8,212.1c1.9-2.2,4.7-5.6,6.6-8.5l-0.3-1.1l-0.2-0.7l-7,0l-1.2,0v0v12.4C650,213,650.8,212.1,650.8,212.1z
		"/>
	<path class="st5" d="M656.5,206.2v-12.4l-14.9-1.2l-1.2,26.3c0,0-0.6,0.4-1.6,1.2c2.4-1.7,5.5-3.7,8-5.3
		C650,212.7,654.1,208.7,656.5,206.2z"/>
	<polygon class="st9" points="657,201.9 650,201.8 648.8,201.8 648.8,201.9 657.1,202.6 	"/>
	<path class="st9" d="M650.8,212.1c1.9-2.2,4.7-5.6,6.6-8.5l-0.3-1.1l-8.3-0.7v12.6C648.8,214.4,649.6,213.5,650.8,212.1z"/>
	<path class="st3" d="M683,190.2l-1.7,1l-1.6,0.7l-1.9,0.5c-0.1,0-0.1,0-0.1,0l-3.8,1c0,0-2.8,6.2-4.2,7c-0.8,0.5-3.7-0.4-4.4-0.7
		l2.5-3.1c0,0-0.7-4.7-6.9-4.1l-2.3,3.5c0,0-2.7-4.3-2.5-4.9c0.1-0.6-3.7-4.6-4.3-10.5c-0.6-5.8,2.3-17.3,17.3-14.2
		c0,0-4.8,0.5-6.8,8.5C660.4,182.9,672.3,188.5,683,190.2z"/>
	<polygon class="st3" points="639.1,236.1 653.4,221.2 652.2,212.9 640,226.8 	"/>
	<path class="st3" d="M649.3,181.4v-1.9l8.2,8.1l-0.7,5.3v13.4c-2.1,2.1-5.7,5-7.4,6.4C649.6,194.3,649.6,182,649.3,181.4z"/>
	<path class="st3" d="M660,396.7h-13.3c0.3-18.4,3.3-127.2,3.9-182.3l5.9-5.6L660,396.7z"/>
	<path class="st3" d="M733.7,235.2c-2.1,1-53.3-43.7-53.3-43.7l-1-0.5c0.7-0.2,3.9-0.5,8.2-3.8c7,2.8,12.2,9,14.6,13.5
		c2.4,4.5,16,16,16,16l12.8,12.6C731.1,229.2,735.8,234.2,733.7,235.2z"/>
	<path class="st3" d="M652.3,176c0,0-38.2-2.2-42.2-0.4c-4.1,1.9-4,11.4-2.7,14.8l48.8,2.9l0-2.3l0.1-0.6
		C656.2,190.4,651.2,186.9,652.3,176z"/>
	<path class="st3" d="M664,192.9c0,0-5.8,17.5-16.3,21.8c-19.3,7.9-27.2,24.4-42.8,43.2c0,0,11.2-18.5,17.4-28.3
		c9.2-14.6,19-18.7,23.6-21.5c10.4-6.2,15.2-15.6,15.2-15.6L664,192.9z"/>
	<path class="st3" d="M669.2,138.2c3.9,13.4,2.4,21.8,2.4,21.8H666v-0.2l1.4-0.3c0,0,1.7-3.7-2.7-12.2c-2.1-4.1-2.8-2.9-3.6-14.8
		c-0.8-12,9.7-54.1,16.3-65.8C678.3,65.2,662,113.4,669.2,138.2z"/>
	<path class="st6" d="M664,165.7c-4.5,0.2-7.9,1.2-10.1,5.5c-3.1,6.2-2.8,14.6,2.4,19.3"/>
	<path class="st6" d="M673.9,193.3c8.4-1.6,15.8-6.3,16.1-10.5c0.3-4.1-4.7-9.7-11.5-13.4"/>
	<path class="st6" d="M679.2,169.8l-1-9.8h-13.3l-0.9,5.7c0,0,2.5-0.1,7.6,1.3"/>
	<path class="st6" d="M667.7,160c0,0,1-5.2-4.6-15.2c-5.7-10-0.1-33.7,4.7-50.7c4.7-17,8.7-29.3,12.7-30.1c4-0.8-3.4,43.3-3.8,62.5
		c-0.4,19.1-1.9,23.9-1.1,33.6"/>
	<path class="st6" d="M667.8,196.6c0,0-2.7-5.4-6.9-4.1c-3.5,5-7.7,10.8-13.1,14.3c-5.6,3.7-11.5,6.3-16.3,11
		c-4.7,4.6-8.4,10-11.7,15.5c-5.7,9.5-10.3,19.6-17.9,27.9c-0.6,0.7-1.3,1.7-0.8,2.4c0.6,0.9,2,0.6,3,0.1c6.2-3,9.9-8.8,14.3-13.6
		c3.4-3.8,6.8-7.7,10.3-11.6c7.9-8.8,15.8-17.6,23.8-26.3c3-3.3,6.1-6.6,9.2-9.8C662.2,202,668,196.9,667.8,196.6z"/>
	<path class="st6" d="M657.7,194.7c0,0-1.5-2.5-1.6-3.6c-0.1-1.2,2.5-4.9,2.5-4.9"/>
	<path class="st6" d="M666.5,199.8c0,0,2.6,1.2,3.5,0c1-1.2,4.2-7.3,4.2-7.3s-4.4-5.7-7.8-6.4"/>
	<path class="st6" d="M680.2,191.5c10.1,8.9,50.4,43.7,53,43.7c3,0-1.2-4.9-3.4-7.5c-2.2-2.5-23-19.4-28.7-28.8
		c-3.7-6-9.5-9.9-13.9-11.6"/>
	<path class="st6" d="M657,193.3l-11.1-0.7l-5.9-0.4l-14-0.8l-5.9-0.3l-12.8-0.8c0,0-2.2-11.7,2.7-14.8c3.3-2.1,13.4-5,21.1-6.7
		c3.7-0.8,6.8-1.4,8.4-1.4c1.4,0,3.2,0.1,5.2,0.2c2.5,0.2,5.1,0.5,7.3,0.8c1,0.1,2.7,0.2,3.4,0.3"/>
	<line class="st6" x1="641" y1="210.6" x2="641.8" y2="193.1"/>
	<path class="st6" d="M656.5,208.1c0.6,52.7,3.5,188.7,3.5,188.7h-26.8l6.6-170.2"/>
	<path class="st7" d="M644.8,167.7c-3.2,1-15.8,5.2-17.1,7.4c-1.9,3.2-1.8,12.5-1.7,16.4l-5.9-0.3c-0.1-4.8-0.1-13.8,1.9-17.1
		c1.6-1.9,5.4-3.7,9.1-5.2c3.7-0.8,6.8-1.4,8.4-1.4C640.9,167.4,642.8,167.5,644.8,167.7z"/>
	<path class="st7" d="M655.4,168.9c0,0-7.5,3.4-8.9,7.1c-1.1,3-0.8,13.3-0.6,16.7l-5.9-0.4c0-4.3,0.1-14.4,0.7-17
		c0.8-3.3,11.4-6.9,11.4-6.9l2.5,0.3L655.4,168.9z"/>
	<path class="st6" d="M657.1,247.6c-1.9,0.4-5.7,1.2-10.5,1.4v25.2c0,0,5.7,0.8,10.9-0.6"/>
	<path class="st7" d="M656.8,198.3c-0.7,0.8-1.6,1.7-2.3,2.4c-8.1-2-12.9-8.2-12.9-8.2l15.2,1.3L656.8,198.3z"/>
	<path class="st2" d="M748.7,402.3c0.5-4.2,0.8-12-3.4-16.2c-6-6-15,3.8-17.3,3.8s-3-6-9.8-11.3c-6.8-5.3-15,1.5-19.5,0
		c-4.5-1.5,3.8-24.8-9-25.6c-12.8-0.8-17.3,31.6-26.3,31.6s-10.5-6-19.5-0.8c-7.1,4.1-10.9,14.2-12.2,18.4L748.7,402.3L748.7,402.3z
		"/>
	<line class="st6" x1="656" y1="401.7" x2="648.4" y2="389.3"/>
	<line class="st6" x1="685.4" y1="401.4" x2="689.4" y2="363.4"/>
	<line class="st6" x1="708.7" y1="401.7" x2="712.6" y2="387.3"/>
	<line class="st6" x1="737.3" y1="401.7" x2="741.2" y2="392.3"/>
	<polyline class="st6" points="657.1,389.7 653.1,396.7 643.7,393 	"/>
	<polyline class="st6" points="683.3,366.5 688.1,374.9 694.4,367.1 	"/>
	<polyline class="st6" points="680.7,379.9 686.7,387.3 692.8,382.6 	"/>
	<line class="st6" x1="710.9" y1="393.7" x2="719" y2="389"/>
	<line class="st6" x1="710.3" y1="396.4" x2="706.2" y2="386"/>
	<line class="st6" x1="739.2" y1="397.4" x2="737.1" y2="390.7"/>
	<line class="st6" x1="738.5" y1="398.7" x2="744.2" y2="396.4"/>
	<path class="st1" d="M818.4,152.2h32.9c0,0,1.6-4.8-4.2-8c-5.8-3.2-8.5-0.5-10.6-3.2c-2.1-2.6,5.8-9.6-10.1-16.4
		c0,0-1.1-14.9-22.8-15.4c-21.8-0.5-15.9,14.9-21.8,18.6c-5.8,3.7-7.5-2.1-13.3,1.6c-5.8,3.7-3.2,11.2-8,12.2
		c-4.8,1-11.2-4.8-17-1.1s-5.8,6.9-8.5,6.9c-2.7,0-8-2.1-11.2,0c-3.2,2.1-6.9,4.8-6.9,4.8h94.7"/>
	<path class="st1" d="M525.8,247.3H601c0,0-2.1-1.5-3.9-2.7c-1.8-1.2-4.8,0-6.3,0c-1.5,0-1.5-1.8-4.8-3.9c-3.3-2.1-6.8,1.2-9.5,0.6
		c-2.7-0.6-1.2-4.8-4.5-6.8c-3.3-2.1-4.2,1.2-7.4-0.9c-3.3-2.1,0-10.7-12.2-10.4c-12.2,0.3-12.8,8.6-12.8,8.6
		c-8.9,3.9-4.5,7.7-5.6,9.2s-2.7,0-5.9,1.8C524.9,244.6,525.8,247.3,525.8,247.3z"/>
	<path class="st10" d="M775.9,194.7c6.5-0.1,13.1,0.7,19.4,2.3c8.9,2.3,17.4,6.2,26.6,7.5c9.1,1.2,19.5-0.8,25.1-8.1"/>
	<path class="st10" d="M741.4,206.9c7.9-6.7,17.7-10.4,27.9-11.7"/>
	<path class="st10" d="M831.3,216.2c6.1-0.8,11.9-3.3,15.6-8.1"/>
	<path class="st10" d="M741.4,218.5c14.5-12.3,35.5-14.7,53.9-9.8c8.9,2.3,17.4,6.2,26.6,7.5c1.7,0.2,3.4,0.4,5.2,0.3"/>
	<path class="st10" d="M809.8,224.8c3.9,1.2,7.9,2.3,12,2.9c9.1,1.2,19.5-0.8,25.1-8.1"/>
	<path class="st10" d="M782.8,218.1c4.2,0.3,8.5,1.1,12.5,2.1c4.1,1.1,8.1,2.5,12.1,3.8"/>
	<path class="st10" d="M741.4,230.1c8.9-7.6,20.3-11.4,32.1-12.1"/>
</g>
<g>
	<g>
		<path class="st11" d="M342.9,163.3c-7.6,1-14.7,4.1-19.3,10.1"/>
		<path class="st11" d="M454,160.5c-17.9,15.2-43.9,18.1-66.6,12.1c-11-2.9-21.5-7.7-32.8-9.2c-2.1-0.3-4.2-0.4-6.4-0.4"/>
		<path class="st11" d="M369.4,152.7c-4.9-1.5-9.8-2.9-14.8-3.6c-11.3-1.5-24.1,1-31,10"/>
		<path class="st11" d="M402.9,160.9c-5.2-0.4-10.4-1.3-15.5-2.6c-5-1.3-10-3.1-15-4.7"/>
		<path class="st11" d="M454,146.2c-11,9.4-25.1,14.1-39.6,14.9"/>
	</g>
</g>
</svg>
