<?xml version="1.0" encoding="utf-8"?>
<!-- Generator: Adobe Illustrator 19.0.0, SVG Export Plug-In . SVG Version: 6.00 Build 0)  -->
<svg version="1.1" id="Warstwa_1" xmlns="http://www.w3.org/2000/svg" xmlns:xlink="http://www.w3.org/1999/xlink" x="0px" y="0px"
	 viewBox="-383 145 512 512" style="enable-background:new -383 145 512 512;" xml:space="preserve">
<style type="text/css">
	.st0{fill:#00D1B2;}
</style>
<path class="st0" d="M81,209h-416c-26.5,0-48,21.5-48,48v288c0,26.5,21.5,48,48,48H81c26.5,0,48-21.5,48-48V257
	C129,230.5,107.5,209,81,209z M81,257v40.8c-22.4,18.3-58.2,46.7-134.6,106.5c-16.8,13.2-50.2,45.1-73.4,44.7
	c-23.2,0.4-56.6-31.5-73.4-44.7c-76.4-59.8-112.2-88.2-134.6-106.5V257H81z M-335,545V359.4c22.9,18.3,55.4,43.9,104.9,82.6
	c21.9,17.2,60.1,55.2,103.1,55c42.7,0.2,80.5-37.2,103.1-54.9c49.5-38.8,82-64.4,104.9-82.7V545H-335z"/>
</svg>
