<?xml version="1.0" encoding="utf-8"?>
<!-- Generator: Adobe Illustrator 19.0.0, SVG Export Plug-In . SVG Version: 6.00 Build 0)  -->
<svg version="1.1" id="Warstwa_1" xmlns="http://www.w3.org/2000/svg" xmlns:xlink="http://www.w3.org/1999/xlink" x="0px" y="0px"
	 viewBox="-351 145 576 512" style="enable-background:new -351 145 576 512;" xml:space="preserve">
<style type="text/css">
	.st0{fill:#00D1B2;}
</style>
<path class="st0" d="M221.5,386.4C167.3,280.6,59.9,209-63,209s-230.3,71.6-284.5,177.4c-4.6,9.2-4.6,20,0,29.2
	C-293.3,521.4-185.9,593-63,593s230.3-71.6,284.5-177.4C226.2,406.4,226.2,395.6,221.5,386.4z M-63,545c-79.5,0-144-64.5-144-144
	s64.5-144,144-144S81,321.5,81,401c0,79.5-64.4,144-143.9,144C-62.9,545-63,545-63,545z M-63,305c-8.6,0.1-17.1,1.4-25.3,3.8
	c15.7,21.3,11.1,51.2-10.2,66.9c-16.9,12.4-39.9,12.4-56.7,0c-13.9,51.1,16.3,103.7,67.3,117.5c51.1,13.9,103.7-16.3,117.5-67.3
	c13.9-51.1-16.3-103.7-67.3-117.5C-45.9,306.1-54.5,305-63,305z"/>
</svg>
