<?xml version="1.0" encoding="utf-8"?>
<!-- Generator: Adobe Illustrator 19.0.0, SVG Export Plug-In . SVG Version: 6.00 Build 0)  -->
<svg version="1.1" id="Warstwa_1" xmlns="http://www.w3.org/2000/svg" xmlns:xlink="http://www.w3.org/1999/xlink" x="0px" y="0px"
	 viewBox="163 15 825 472" style="enable-background:new 163 15 825 472;" xml:space="preserve">
<style type="text/css">
	.st0{clip-path:url(#SVGID_2_);fill:url(#SVGID_3_);}
	.st1{fill:#FFFFFF;}
	.st2{fill:none;stroke:#FFFFFF;stroke-width:1.0885;stroke-miterlimit:10;}
	.st3{opacity:0.7;fill:#FFFFFF;enable-background:new    ;}
	.st4{fill:#43B38F;}
	.st5{opacity:0.5;clip-path:url(#SVGID_5_);fill:#43B38F;enable-background:new    ;}
	.st6{fill:#404040;}
	.st7{fill:none;}
	.st8{opacity:0.5;clip-path:url(#SVGID_7_);fill:#FFFFFF;enable-background:new    ;}
	.st9{opacity:0.5;clip-path:url(#SVGID_9_);fill:#43B38F;enable-background:new    ;}
	.st10{opacity:0.7;clip-path:url(#SVGID_11_);fill:#FFFFFF;enable-background:new    ;}
	.st11{fill:#FCC812;}
	.st12{opacity:0.7;clip-path:url(#SVGID_13_);fill:#BF922C;enable-background:new    ;}
	.st13{fill:none;stroke:#404040;stroke-width:1.5254;stroke-miterlimit:10;}
	.st14{opacity:0.7;clip-path:url(#SVGID_15_);fill:#BD960E;enable-background:new    ;}
	.st15{opacity:0.7;fill:#BD960E;enable-background:new    ;}
	.st16{fill:none;stroke:#404040;stroke-width:0.9218;stroke-linecap:round;stroke-linejoin:round;stroke-miterlimit:10;}
	.st17{fill:#FFC33A;}
	.st18{opacity:0.3;clip-path:url(#SVGID_17_);fill-opacity:0.7;enable-background:new    ;}
	.st19{clip-path:url(#SVGID_19_);fill:#404040;fill-opacity:0.7;}
	.st20{opacity:0.3;clip-path:url(#SVGID_21_);fill-opacity:0.7;enable-background:new    ;}
	.st21{clip-path:url(#SVGID_23_);fill:#404040;fill-opacity:0.7;}
	.st22{fill:#404040;fill-opacity:0.7;}
	.st23{fill:none;stroke:#1A2E35;stroke-width:0.9218;stroke-linecap:round;stroke-linejoin:round;stroke-miterlimit:10;}
</style>
<g>
	<g>
		<g>
			<defs>
				<rect id="SVGID_1_" x="163" y="15" width="825" height="472"/>
			</defs>
			<clipPath id="SVGID_2_">
				<use xlink:href="#SVGID_1_"  style="overflow:visible;"/>
			</clipPath>
			
				<linearGradient id="SVGID_3_" gradientUnits="userSpaceOnUse" x1="-879.9618" y1="1247.1718" x2="-878.373" y2="1247.1718" gradientTransform="matrix(526.5874 0 0 -526.5874 463517 657038.5)">
				<stop  offset="0" style="stop-color:#379E6E"/>
				<stop  offset="1" style="stop-color:#72C6D4"/>
			</linearGradient>
			<rect x="140.2" y="-141.8" class="st0" width="870.6" height="870.6"/>
		</g>
	</g>
</g>
<g>
	<path class="st1" d="M224.9,122.5c7.2-0.1,14.1-2.9,19.3-8c5.2-5.1,8.2-11.9,8.4-19.1c0.1-5.5-1.3-10.8-4.2-15.4
		c-0.4-0.6-1.1-1-1.8-1c-0.8,0-1.4,0.4-1.8,1.1c-0.4,0.7-0.4,1.5,0.1,2.1c2.5,4,3.7,8.7,3.5,13.5c-0.5,11.7-10.8,22.1-22.6,22.6
		c-6.7,0.3-13.2-2.2-17.9-6.9c-4.7-4.7-7.2-11.2-6.9-17.9c0.6-11.7,10.9-22,22.7-22.6c4.8-0.2,9.5,1,13.5,3.5c0.7,0.4,1.4,0.4,2.1,0
		c0.7-0.4,1.1-1,1.1-1.8c0-0.7-0.4-1.4-1-1.8c-4.6-2.9-10-4.3-15.4-4.2c-7.2,0.2-14,3.2-19.1,8.4c-5.1,5.2-8,12-8,19.3
		c-0.1,7.5,2.8,14.6,8.2,20c5.3,5.3,12.3,8.2,19.7,8.2C224.7,122.5,224.8,122.5,224.9,122.5"/>
	<path class="st1" d="M224.6,77.8c-1,0-1.7,0.5-2.1,1.5L212,104.4c-0.3,0.8-0.3,1.5,0.1,2.1c0.4,0.7,1,1,1.8,1
		c0.4,0,0.8-0.1,1.2-0.3c0.4-0.2,0.7-0.6,0.9-1l3.2-7.7h11l3.1,7.7c0.2,0.4,0.4,0.8,0.8,1c0.4,0.2,0.8,0.4,1.2,0.4
		c0.8,0,1.4-0.3,1.8-1c0.4-0.6,0.5-1.4,0.2-2.1l-10.6-25.2C226.3,78.3,225.6,77.8,224.6,77.8 M220.6,95l4.1-10l4,10H220.6z"/>
	<path class="st1" d="M278.6,96.5c0.3-0.5,0.4-1,0.1-1.6l-7.4-17.6c-0.3-0.7-0.8-1.1-1.6-1.1c-0.7,0-1.2,0.4-1.6,1.1l-7.3,17.5
		c-0.2,0.6-0.2,1.1,0.1,1.6c0.3,0.5,0.8,0.8,1.4,0.8c0.3,0,0.6-0.1,0.9-0.2c0.3-0.2,0.5-0.4,0.7-0.8l2.2-5.3h7.5l2.1,5.3
		c0.1,0.3,0.3,0.6,0.6,0.8c0.3,0.2,0.6,0.3,0.9,0.3C277.9,97.2,278.3,97,278.6,96.5 M267.2,88.2l2.7-6.5l2.6,6.5H267.2z"/>
	<path class="st1" d="M284.8,85.6c0.7-0.3,1.5-0.5,2.5-0.4c0.2,0,0.5,0,0.7-0.1c0.2-0.1,0.4-0.2,0.5-0.4c0.1-0.2,0.2-0.5,0.2-0.8
		c0-0.4-0.1-1-0.9-1.4c-0.6-0.3-1.3-0.3-2.3-0.1c-0.8,0.2-1.5,0.5-2.1,1c-0.1-0.3-0.2-0.6-0.4-0.8c-0.3-0.3-0.7-0.4-1.2-0.4
		c-0.5,0-0.9,0.1-1.2,0.4c-0.3,0.3-0.4,0.7-0.4,1.2v11.9c0,0.5,0.1,0.9,0.4,1.2c0.3,0.3,0.7,0.4,1.2,0.4c0.5,0,0.9-0.1,1.2-0.4
		c0.3-0.3,0.4-0.7,0.4-1.2v-8.8C283.6,86.3,284.1,85.9,284.8,85.6"/>
	<path class="st1" d="M298,94h-0.9c-0.5,0-0.9-0.2-1.2-0.6c-0.3-0.4-0.5-0.9-0.5-1.6v-6.5h2c0.4,0,0.8-0.1,1.1-0.4
		c0.3-0.3,0.4-0.6,0.4-1c0-0.4-0.1-0.8-0.4-1.1c-0.3-0.3-0.6-0.4-1.1-0.4h-2v-3.1c0-0.5-0.1-0.9-0.4-1.1c-0.3-0.3-0.7-0.5-1.1-0.5
		c-0.5,0-0.9,0.1-1.2,0.5c-0.3,0.3-0.5,0.7-0.5,1.1v3.1h-0.8c-0.4,0-0.8,0.1-1.1,0.4c-0.3,0.3-0.4,0.6-0.4,1.1c0,0.4,0.1,0.7,0.4,1
		c0.3,0.3,0.6,0.4,1.1,0.4h0.8v6.5c0,1,0.2,1.9,0.6,2.7c0.4,0.8,1,1.5,1.8,1.9c0.7,0.5,1.6,0.7,2.5,0.7h0.5c0.5,0,1-0.1,1.3-0.4
		c0.4-0.3,0.5-0.7,0.5-1.2c0-0.5-0.1-0.8-0.4-1.1C298.7,94.2,298.4,94,298,94"/>
	<path class="st1" d="M342.3,93.5c0.6-1.1,0.9-2.4,0.9-3.8c0-1.4-0.3-2.7-1-3.9c-0.7-1.1-1.6-2-2.7-2.7s-2.4-1-3.8-1
		c-1.4,0-2.7,0.3-3.8,1s-2,1.6-2.7,2.7c-0.6,1.1-1,2.4-1,3.9v11.9c0,0.5,0.2,0.9,0.5,1.2c0.3,0.3,0.7,0.5,1.2,0.5
		c0.5,0,0.9-0.2,1.2-0.5s0.4-0.7,0.4-1.2v-6.3c0.5,0.5,1.1,0.9,1.8,1.2c0.9,0.5,1.9,0.7,3,0.7c1.3,0,2.5-0.3,3.6-1
		C340.9,95.6,341.7,94.7,342.3,93.5 M339.5,92c-0.4,0.7-0.9,1.2-1.5,1.6c-0.6,0.4-1.4,0.6-2.2,0.6c-0.8,0-1.6-0.2-2.2-0.6
		s-1.2-1-1.5-1.6s-0.6-1.5-0.6-2.4c0-0.9,0.2-1.7,0.6-2.4s0.9-1.2,1.5-1.6c0.6-0.4,1.4-0.6,2.2-0.6c0.8,0,1.6,0.2,2.2,0.6
		s1.2,1,1.5,1.6s0.6,1.5,0.6,2.4C340.1,90.6,339.9,91.3,339.5,92"/>
	<path class="st1" d="M357.4,94.5c0-0.4-0.2-0.8-0.6-1.1c-0.3-0.2-0.6-0.4-1-0.4c-0.4,0-0.7,0.1-1,0.4c-0.3,0.2-0.8,0.5-1.3,0.6
		s-1.1,0.3-1.6,0.3c-0.9,0-1.8-0.2-2.5-0.6c-0.7-0.4-1.3-1-1.7-1.7c-0.2-0.4-0.4-0.8-0.5-1.2h9.6c0.4,0,0.8-0.1,1.1-0.4
		c0.3-0.3,0.4-0.6,0.4-1c0-1.4-0.3-2.7-0.8-3.8c-0.5-1.1-1.3-2-2.4-2.6c-1-0.6-2.2-1-3.7-1c-1.4,0-2.7,0.3-3.8,1
		c-1.1,0.6-2,1.5-2.6,2.7c-0.6,1.1-0.9,2.5-0.9,3.9c0,1.5,0.3,2.8,1,3.9s1.6,2,2.8,2.7c1.2,0.6,2.5,1,4,1c0.8,0,1.7-0.2,2.6-0.5
		c0.9-0.3,1.7-0.7,2.3-1.2C357.3,95.2,357.4,94.8,357.4,94.5 M347.6,87.2c0.3-0.7,0.8-1.3,1.5-1.7c0.6-0.4,1.5-0.6,2.4-0.6
		c0.8,0,1.5,0.2,2.1,0.5c0.6,0.4,1,0.9,1.3,1.5c0.2,0.4,0.3,0.8,0.4,1.2h-8C347.4,87.9,347.5,87.5,347.6,87.2"/>
	<path class="st1" d="M368.7,86.8c0.3,0.6,0.5,1.4,0.5,2.3v6.5c0,0.5,0.2,0.9,0.5,1.2c0.3,0.3,0.7,0.5,1.2,0.5
		c0.5,0,0.9-0.2,1.2-0.5s0.5-0.7,0.5-1.2v-6.5c0-1.5-0.3-2.8-0.9-3.8s-1.4-1.9-2.4-2.4c-1-0.5-2.1-0.8-3.4-0.8
		c-1.2,0-2.3,0.3-3.3,0.8c-0.1,0.1-0.2,0.1-0.3,0.2c-0.1-0.1-0.2-0.3-0.3-0.4c-0.3-0.3-0.7-0.5-1.2-0.5c-0.5,0-0.9,0.1-1.2,0.5
		c-0.3,0.3-0.5,0.7-0.5,1.2v11.7c0,0.5,0.2,0.9,0.5,1.2c0.3,0.3,0.7,0.5,1.2,0.5c0.5,0,0.9-0.2,1.2-0.5s0.4-0.7,0.4-1.2v-9.3
		c0.3-0.3,0.6-0.6,1-0.8c0.5-0.3,1.2-0.4,1.9-0.4c0.8,0,1.4,0.1,2,0.4C368,85.8,368.4,86.3,368.7,86.8"/>
	<path class="st1" d="M324.4,78.9L324.4,78.9c-1-1-2.1-1.7-3.4-2.3s-2.8-0.8-4.4-0.8c-1.6,0-3.1,0.3-4.4,0.8
		c-1.3,0.5-2.5,1.3-3.4,2.3c-1,1-1.7,2.1-2.2,3.5c-0.5,1.3-0.8,2.8-0.8,4.4c0,1.6,0.3,3.1,0.8,4.4c0.5,1.3,1.3,2.5,2.2,3.5
		c0.9,1,2.1,1.7,3.4,2.3s2.8,0.8,4.4,0.8c1.6,0,3-0.3,4.4-0.8c1.3-0.5,2.5-1.3,3.4-2.3s1.7-2.1,2.2-3.5c0.5-1.3,0.8-2.8,0.8-4.4
		c0-1.6-0.3-3.1-0.8-4.4C326.2,81,325.4,79.8,324.4,78.9 M323.4,89.7c-0.4,0.9-0.9,1.7-1.5,2.4s-1.4,1.2-2.3,1.6
		c-0.9,0.4-1.9,0.6-2.9,0.6c-1.1,0-2.1-0.2-2.9-0.6c-0.9-0.4-1.7-0.9-2.3-1.6c-0.6-0.7-1.1-1.5-1.5-2.4c-0.4-0.9-0.5-1.9-0.5-3
		s0.2-2.1,0.5-3c0.4-0.9,0.9-1.7,1.5-2.4c0.6-0.7,1.4-1.2,2.3-1.6c0.9-0.4,1.9-0.6,3-0.6s2.1,0.2,2.9,0.6c0.9,0.4,1.7,0.9,2.3,1.6
		c0.6,0.7,1.2,1.5,1.5,2.4c0.4,0.9,0.5,1.9,0.5,3C324,87.8,323.8,88.8,323.4,89.7"/>
	<path class="st1" d="M275.4,110.5c-0.3-0.3-0.8-0.5-1.5-0.6c-0.4,0-0.7-0.1-0.9-0.2s-0.4-0.2-0.5-0.4c-0.1-0.1-0.1-0.3-0.1-0.5
		c0-0.3,0.1-0.5,0.4-0.7s0.6-0.2,1-0.2c0.2,0,0.4,0,0.6,0.1c0.2,0.1,0.3,0.1,0.4,0.2c0.1,0.1,0.2,0.2,0.3,0.3c0,0.1,0.1,0.1,0.2,0.1
		c0.1,0,0.2,0,0.2,0c0.1,0,0.1-0.1,0.1-0.2c0-0.1,0-0.1,0-0.2c-0.1-0.2-0.3-0.3-0.4-0.5c-0.2-0.1-0.4-0.2-0.6-0.3
		c-0.2-0.1-0.5-0.1-0.8-0.1c-0.4,0-0.7,0.1-1,0.2c-0.3,0.1-0.5,0.3-0.7,0.5c-0.2,0.2-0.3,0.5-0.3,0.8c0,0.4,0.2,0.8,0.5,1
		c0.4,0.3,0.8,0.5,1.5,0.5c0.5,0.1,0.9,0.2,1.1,0.4c0.2,0.2,0.4,0.5,0.4,0.8c0,0.2-0.1,0.4-0.2,0.6c-0.1,0.2-0.3,0.3-0.5,0.4
		c-0.2,0.1-0.5,0.1-0.8,0.1c-0.2,0-0.5,0-0.7-0.1c-0.2-0.1-0.4-0.1-0.6-0.3c-0.1-0.1-0.3-0.2-0.4-0.4c0-0.1-0.1-0.1-0.2-0.1
		s-0.1,0-0.2,0c-0.1,0-0.2,0.1-0.2,0.1c0,0.1,0,0.1,0,0.2c0.1,0.2,0.3,0.4,0.5,0.6c0.2,0.2,0.5,0.3,0.8,0.4c0.3,0.1,0.6,0.1,0.9,0.1
		c0.3,0,0.6,0,0.8-0.1c0.2-0.1,0.5-0.2,0.7-0.3s0.3-0.3,0.4-0.5s0.2-0.4,0.2-0.7C275.9,111.2,275.8,110.8,275.4,110.5"/>
	<path class="st1" d="M282.2,107.5h-1.9h-0.6h-1.9c-0.1,0-0.1,0-0.2,0.1c-0.1,0-0.1,0.1-0.1,0.2c0,0.1,0,0.1,0.1,0.2
		c0,0,0.1,0.1,0.2,0.1h1.9v4.9c0,0.1,0,0.1,0.1,0.2s0.1,0.1,0.2,0.1s0.2,0,0.2-0.1c0.1-0.1,0.1-0.1,0.1-0.2V108h1.9
		c0.1,0,0.1,0,0.2-0.1c0.1,0,0.1-0.1,0.1-0.2c0-0.1,0-0.1-0.1-0.2C282.3,107.6,282.3,107.5,282.2,107.5"/>
	<path class="st1" d="M289.3,107.5c-0.1,0-0.2,0-0.2,0.1s-0.1,0.1-0.1,0.2v3.5c0,0.3-0.1,0.5-0.2,0.8s-0.4,0.4-0.6,0.5
		c-0.3,0.1-0.6,0.2-1,0.2c-0.4,0-0.7-0.1-1-0.2s-0.5-0.3-0.7-0.5s-0.2-0.5-0.2-0.8v-3.5c0-0.1,0-0.1-0.1-0.2c-0.1,0-0.1-0.1-0.2-0.1
		s-0.2,0-0.2,0.1s-0.1,0.1-0.1,0.2v3.5c0,0.4,0.1,0.7,0.3,1c0.2,0.3,0.5,0.5,0.9,0.7c0.4,0.2,0.8,0.3,1.3,0.3c0.5,0,0.9-0.1,1.3-0.3
		c0.4-0.2,0.7-0.4,0.9-0.7c0.2-0.3,0.3-0.6,0.3-1v-3.5c0-0.1,0-0.1-0.1-0.2C289.4,107.6,289.4,107.5,289.3,107.5"/>
	<path class="st1" d="M296.4,108.3c-0.3-0.3-0.6-0.5-1-0.6c-0.4-0.1-0.8-0.2-1.2-0.2h-1.4c-0.1,0-0.2,0-0.2,0.1s-0.1,0.1-0.1,0.2
		v5.1c0,0.1,0,0.1,0.1,0.2c0.1,0,0.1,0.1,0.2,0.1h1.4c0.5,0,0.9-0.1,1.2-0.2c0.4-0.1,0.7-0.3,1-0.6c0.3-0.3,0.5-0.6,0.6-0.9
		s0.2-0.7,0.2-1.1c0-0.4-0.1-0.8-0.2-1.1C296.9,108.9,296.7,108.6,296.4,108.3 M296.4,111.6c-0.2,0.4-0.5,0.6-0.9,0.8
		c-0.4,0.2-0.8,0.3-1.3,0.3h-1.1V108h1.1c0.5,0,0.9,0.1,1.3,0.3c0.4,0.2,0.7,0.5,0.9,0.8c0.2,0.4,0.3,0.8,0.3,1.2
		C296.7,110.8,296.6,111.2,296.4,111.6"/>
	<path class="st1" d="M300.2,107.5c-0.1,0-0.2,0-0.2,0.1s-0.1,0.1-0.1,0.2v5.1c0,0.1,0,0.1,0.1,0.2c0.1,0,0.1,0.1,0.2,0.1
		s0.2,0,0.2-0.1s0.1-0.1,0.1-0.2v-5.1c0-0.1,0-0.1-0.1-0.2C300.3,107.6,300.3,107.5,300.2,107.5"/>
	<path class="st1" d="M308.5,108.3c-0.3-0.3-0.6-0.5-1-0.6c-0.4-0.1-0.8-0.2-1.3-0.2c-0.5,0-0.9,0.1-1.3,0.2c-0.4,0.1-0.7,0.4-1,0.6
		c-0.3,0.3-0.5,0.6-0.7,0.9c-0.2,0.4-0.2,0.7-0.2,1.2s0.1,0.8,0.2,1.2c0.2,0.4,0.4,0.7,0.7,0.9c0.3,0.3,0.6,0.5,1,0.6
		c0.4,0.1,0.8,0.2,1.3,0.2c0.5,0,0.9-0.1,1.3-0.2c0.4-0.1,0.7-0.4,1-0.6c0.3-0.3,0.5-0.6,0.7-0.9s0.2-0.8,0.2-1.2s-0.1-0.8-0.2-1.2
		C309,108.9,308.8,108.5,308.5,108.3 M308.6,111.3c-0.1,0.3-0.3,0.5-0.5,0.8c-0.2,0.2-0.5,0.4-0.8,0.5c-0.3,0.1-0.6,0.2-1,0.2
		s-0.7-0.1-1-0.2c-0.3-0.1-0.6-0.3-0.8-0.5c-0.2-0.2-0.4-0.5-0.5-0.8s-0.2-0.6-0.2-1c0-0.3,0.1-0.6,0.2-0.9s0.3-0.5,0.5-0.8
		c0.2-0.2,0.5-0.4,0.8-0.5c0.3-0.1,0.7-0.2,1-0.2s0.7,0.1,1,0.2s0.6,0.3,0.8,0.5c0.2,0.2,0.4,0.5,0.5,0.8s0.2,0.6,0.2,0.9
		S308.7,111,308.6,111.3"/>
	<path class="st1" d="M318.2,110.9c0.1,0,0.2-0.1,0.3-0.1c0.3-0.1,0.5-0.4,0.7-0.6c0.2-0.3,0.3-0.5,0.3-0.9c0-0.4-0.1-0.6-0.3-0.9
		c-0.2-0.3-0.4-0.5-0.7-0.6c-0.3-0.1-0.6-0.2-1-0.2h-1.5c-0.1,0-0.2,0-0.2,0.1c-0.1,0-0.1,0.1-0.1,0.2v5.1c0,0.1,0,0.1,0.1,0.2
		c0.1,0,0.1,0.1,0.2,0.1s0.2,0,0.2-0.1s0.1-0.1,0.1-0.2v-2h1.2c0,0,0.1,0,0.1,0l1.4,2.1c0,0,0.1,0.1,0.1,0.1c0,0,0.1,0,0.2,0
		c0.1,0,0.2,0,0.3-0.1c0.1-0.1,0-0.2,0-0.3L318.2,110.9z M317.4,110.4h-1.2v-2.4h1.2c0.3,0,0.5,0,0.7,0.1c0.2,0.1,0.4,0.2,0.5,0.4
		c0.1,0.2,0.2,0.4,0.2,0.6c0,0.2-0.1,0.4-0.2,0.6s-0.3,0.3-0.5,0.4C317.9,110.4,317.6,110.4,317.4,110.4"/>
	<path class="st1" d="M325.8,108.1c0.1,0,0.2,0,0.2-0.1s0.1-0.1,0.1-0.2c0-0.1,0-0.1-0.1-0.2c-0.1,0-0.1-0.1-0.2-0.1h-3.7
		c-0.1,0-0.2,0-0.2,0.1s-0.1,0.1-0.1,0.2v5.1c0,0.1,0,0.1,0.1,0.2c0.1,0,0.1,0.1,0.2,0.1h3.7c0.1,0,0.2,0,0.2-0.1s0.1-0.1,0.1-0.2
		c0-0.1,0-0.1-0.1-0.2s-0.1-0.1-0.2-0.1h-3.4v-2h2.5c0.1,0,0.2,0,0.2-0.1s0.1-0.1,0.1-0.2c0-0.1,0-0.1-0.1-0.2
		c-0.1,0-0.1-0.1-0.2-0.1h-2.5v-2L325.8,108.1L325.8,108.1z"/>
	<path class="st1" d="M332.6,107.8c0-0.1,0-0.1-0.1-0.2c0,0-0.1-0.1-0.2-0.1c0,0-0.1,0-0.1,0c0,0-0.1,0-0.1,0.1l-2.9,2.7v-2.5
		c0-0.1,0-0.1-0.1-0.2c-0.1-0.1-0.1-0.1-0.2-0.1c-0.1,0-0.2,0-0.2,0.1c-0.1,0.1-0.1,0.1-0.1,0.2v5.1c0,0.1,0,0.1,0.1,0.2
		c0.1,0.1,0.1,0.1,0.2,0.1c0.1,0,0.2,0,0.2-0.1c0.1-0.1,0.1-0.1,0.1-0.2v-1.9l0.7-0.7l2.2,2.7c0.1,0.1,0.1,0.1,0.3,0.1
		c0.1,0,0.1,0,0.2-0.1c0,0,0.1-0.1,0.1-0.2c0-0.1,0-0.1-0.1-0.2l-2.2-2.8l2.2-2C332.6,107.9,332.6,107.9,332.6,107.8"/>
	<path class="st1" d="M338.8,112.7h-3.1v-4.9c0-0.1,0-0.1-0.1-0.2c-0.1-0.1-0.1-0.1-0.2-0.1c-0.1,0-0.2,0-0.2,0.1
		c-0.1,0.1-0.1,0.1-0.1,0.2v5.1c0,0.1,0,0.1,0.1,0.2c0.1,0,0.1,0.1,0.2,0.1h3.4c0.1,0,0.2,0,0.2-0.1c0.1,0,0.1-0.1,0.1-0.2
		c0-0.1,0-0.1-0.1-0.2C338.9,112.7,338.9,112.7,338.8,112.7"/>
	<path class="st1" d="M343.7,107.7c-0.1-0.1-0.2-0.2-0.3-0.2c-0.1,0-0.2,0.1-0.3,0.2l-2.3,5.1c0,0.1,0,0.2,0,0.3
		c0,0.1,0.1,0.1,0.3,0.1c0.1,0,0.1,0,0.2,0c0,0,0.1-0.1,0.1-0.1l0.5-1.2h3.1l0.5,1.2c0,0.1,0.1,0.1,0.1,0.1s0.1,0,0.2,0
		c0.1,0,0.2,0,0.3-0.1s0.1-0.2,0-0.3L343.7,107.7z M342.1,111.4l1.3-2.9l1.3,2.9H342.1z"/>
	<path class="st1" d="M354.2,107.5c-0.1,0-0.2,0-0.3,0.1l-2.5,4.6l-2.5-4.6c-0.1-0.1-0.1-0.1-0.3-0.1c-0.1,0-0.2,0-0.2,0.1
		s-0.1,0.1-0.1,0.2v5.1c0,0.1,0,0.1,0.1,0.2s0.1,0.1,0.2,0.1c0.1,0,0.2,0,0.2-0.1c0.1-0.1,0.1-0.1,0.1-0.2v-4.1l2.2,4
		c0.1,0.1,0.1,0.2,0.3,0.2c0.1,0,0.2,0,0.3-0.1l2.2-4.1v4.1c0,0.1,0,0.1,0.1,0.2s0.1,0.1,0.2,0.1c0.1,0,0.2,0,0.2-0.1
		c0.1-0.1,0.1-0.1,0.1-0.2v-5.1c0-0.1,0-0.1-0.1-0.2C354.3,107.6,354.2,107.5,354.2,107.5"/>
	<path class="st1" d="M361.4,107.5c-0.1,0-0.1,0-0.2,0c0,0-0.1,0.1-0.1,0.1l-2,2.9l-2-2.9c0,0-0.1-0.1-0.1-0.1c0,0-0.1,0-0.2,0
		c-0.1,0-0.1,0-0.2,0.1c0,0-0.1,0.1-0.1,0.2c0,0.1,0,0.1,0.1,0.2l2.2,3.1v1.8c0,0.1,0,0.1,0.1,0.2s0.1,0.1,0.2,0.1
		c0.1,0,0.2,0,0.2-0.1c0.1-0.1,0.1-0.1,0.1-0.2v-1.8l2.2-3.1c0.1-0.1,0.1-0.1,0.1-0.2c0-0.1,0-0.1-0.1-0.2
		C361.5,107.5,361.5,107.5,361.4,107.5"/>
	<path class="st1" d="M372.4,110.2h-6.3c-0.1,0-0.2,0.1-0.2,0.2s0.1,0.2,0.2,0.2h6.3c0.1,0,0.2-0.1,0.2-0.2S372.4,110.2,372.4,110.2
		"/>
	<path class="st1" d="M267.2,110.2h-6.3c-0.1,0-0.2,0.1-0.2,0.2s0.1,0.2,0.2,0.2h6.3c0.1,0,0.2-0.1,0.2-0.2S267.3,110.2,267.2,110.2
		"/>
</g>
<g>
	<g>
		<path class="st2" d="M542.2,117.7c-5.5,0.7-10.7,3-14,7.3"/>
		<path class="st2" d="M622.9,115.6c-13,11-31.9,13.2-48.4,8.8c-8-2.1-15.6-5.6-23.8-6.7c-1.5-0.2-3.1-0.3-4.6-0.3"/>
		<path class="st2" d="M561.4,109.9c-3.5-1.1-7.1-2.1-10.8-2.6c-8.2-1.1-17.5,0.7-22.5,7.3"/>
		<path class="st2" d="M585.7,116c-3.8-0.3-7.6-0.9-11.2-1.9c-3.7-1-7.3-2.2-10.9-3.4"/>
		<path class="st2" d="M622.9,105.2c-8,6.8-18.2,10.2-28.8,10.8"/>
	</g>
</g>
<g>
	<g>
		<path class="st1" d="M740,314.6c23.8,28.1-171.5,163.3-331.3,20.6c29.2-53.8,102.8-116.7,203.7-90.5
			C667,258.8,712,281.5,740,314.6"/>
		<path class="st3" d="M429.6,304.7c36.7-43.8,100.7-81.4,182.8-60.1c48.6,12.6,89.6,32,117.8,59.5"/>
		<path class="st3" d="M426.1,309c1.1-1.4,2.3-2.9,3.5-4.3"/>
	</g>
	<g>
		<g>
			<path id="XMLID_434_" class="st4" d="M539.4,276.8c0,0-8.1-9.3-20-9.3c0,0-0.4-7.2-8.5-8.8c-8.1-1.6-9.7,5.7-9.7,5.7s-6-3.2-14,0
				c-8,3.2-6.4,12.4-6.4,12.4s-23.1-0.8-27.1,3.5H507h50.8C557.8,280.3,555.7,275.1,539.4,276.8z"/>
		</g>
		<g>
			<defs>
				<path id="SVGID_4_" d="M539.4,276.8c0,0-8.1-9.3-20-9.3c0,0-0.4-7.2-8.5-8.8c-8.1-1.6-9.7,5.7-9.7,5.7s-6-3.2-14,0
					c-8,3.2-6.4,12.4-6.4,12.4s-23.1-0.8-27.1,3.5H507h50.8C557.8,280.3,555.7,275.1,539.4,276.8z"/>
			</defs>
			<clipPath id="SVGID_5_">
				<use xlink:href="#SVGID_4_"  style="overflow:visible;"/>
			</clipPath>
			<path class="st5" d="M539.4,276.8c0,0-8.1-9.3-20-9.3c0,0-0.4-7.2-8.5-8.8c-8.1-1.6-9.7,5.7-9.7,5.7s-6-3.2-14,0
				c-8,3.2-6.4,12.4-6.4,12.4s-23.1-0.8-27.1,3.5H507h50.8C557.8,280.3,555.7,275.1,539.4,276.8z"/>
		</g>
	</g>
	<g>
		<path class="st6" d="M681.8,238.7l0.1-10.6c0-0.8,0.7-1.4,1.4-1.4s1.4,0.6,1.4,1.4l0,3.5"/>
		<line class="st7" x1="684.9" y1="241.6" x2="684.9" y2="245.5"/>
		<polyline class="st6" points="684.9,252.9 685.5,333.3 681.2,333.3 681.7,249.5 		"/>
		<path class="st6" d="M646.6,246.2l31-6.6l1.7,2.4l1.2-0.1l13.1-31.4c0.2-0.5,0.7-0.7,1.2-0.5c0.4,0.2,0.7,0.7,0.5,1.1l-9.1,30.4
			l-2.9,0.3l-0.5,1.1l20.8,27c0.3,0.4,0.2,1-0.2,1.3c-0.4,0.3-0.9,0.2-1.2-0.1l-21.9-22.9l1.2-2.7l-0.8-1l-34,3.6
			c-0.5,0-0.9-0.3-1-0.8C645.8,246.7,646.1,246.3,646.6,246.2z"/>
		<path class="st6" d="M680.3,242.9c0,0.5,0.4,0.9,0.9,0.9c0.5,0,0.9-0.4,0.9-0.9c0-0.5-0.4-0.9-0.9-0.9
			C680.7,242,680.3,242.4,680.3,242.9z"/>
	</g>
	<g>
		<g>
			<g>
				<path id="XMLID_27_" class="st1" d="M508,180.5c0,0-20.1-23.1-49.5-23.1c0,0-1-17.9-21-21.8c-20-3.9-23.9,14-23.9,14
					s-14.8-7.9-34.7,0S363,180.5,363,180.5s-57.4-1.9-67.2,8.6h131.9h125.9C553.6,189.1,548.4,176.3,508,180.5z"/>
			</g>
			<g>
				<defs>
					<path id="SVGID_6_" d="M508,180.5c0,0-20.1-23.1-49.5-23.1c0,0-1-17.9-21-21.8c-20-3.9-23.9,14-23.9,14s-14.8-7.9-34.7,0
						S363,180.5,363,180.5s-57.4-1.9-67.2,8.6h131.9h125.9C553.6,189.1,548.4,176.3,508,180.5z"/>
				</defs>
				<clipPath id="SVGID_7_">
					<use xlink:href="#SVGID_6_"  style="overflow:visible;"/>
				</clipPath>
				<path class="st8" d="M508,180.5c0,0-20.1-23.1-49.5-23.1c0,0-1-17.9-21-21.8c-20-3.9-23.9,14-23.9,14s-14.8-7.9-34.7,0
					S363,180.5,363,180.5s-57.4-1.9-67.2,8.6h131.9h125.9C553.6,189.1,548.4,176.3,508,180.5z"/>
			</g>
		</g>
	</g>
	<g>
		<g>
			<path class="st6" d="M476.6,154.1l-0.2-25.6c0-1.9-1.6-3.5-3.5-3.5c-1.9,0-3.5,1.5-3.5,3.5l-0.1,8.4"/>
			<line class="st7" x1="469.3" y1="161" x2="469.2" y2="170.4"/>
			<polyline class="st6" points="469.1,188.1 467.9,381.5 478.1,381.5 476.8,180 			"/>
			<path class="st6" d="M561.3,172l-74.5-15.9l-4.1,5.8l-3-0.3l-31.5-75.5c-0.5-1.1-1.7-1.6-2.9-1.2c-1,0.4-1.6,1.6-1.3,2.6l21.8,73
				l7,0.8l1.1,2.7l-50,64.9c-0.7,1-0.6,2.3,0.4,3.1c0.9,0.7,2.2,0.6,2.9-0.2l52.6-55.1l-2.8-6.5l1.8-2.4l81.6,8.6
				c1.2,0.1,2.3-0.7,2.4-1.9C563.2,173.3,562.4,172.3,561.3,172z"/>
			<circle class="st6" cx="478.1" cy="164.2" r="2.1"/>
		</g>
		<path class="st6" d="M469.2,170.4l5.2,1.7c0,0,2.8-9.2,2.7-9.5c-0.1-0.3-5.4-6-5.4-6l-3.8,3.2l1.4,1.2"/>
	</g>
	<g>
		<g>
			<path id="XMLID_432_" class="st4" d="M603.5,311.1c0,0,7-8,17.3-8c0,0,0.3-6.3,7.3-7.6c7-1.3,8.3,4.9,8.3,4.9s5.2-2.7,12.1,0
				c6.9,2.7,5.5,10.7,5.5,10.7s20-0.7,23.4,3h-46h-43.9C587.6,314.1,589.4,309.6,603.5,311.1z"/>
		</g>
		<g>
			<defs>
				<path id="SVGID_8_" d="M603.5,311.1c0,0,7-8,17.3-8c0,0,0.3-6.3,7.3-7.6c7-1.3,8.3,4.9,8.3,4.9s5.2-2.7,12.1,0
					c6.9,2.7,5.5,10.7,5.5,10.7s20-0.7,23.4,3h-46h-43.9C587.6,314.1,589.4,309.6,603.5,311.1z"/>
			</defs>
			<clipPath id="SVGID_9_">
				<use xlink:href="#SVGID_8_"  style="overflow:visible;"/>
			</clipPath>
			<path class="st9" d="M603.5,311.1c0,0,7-8,17.3-8c0,0,0.3-6.3,7.3-7.6c7-1.3,8.3,4.9,8.3,4.9s5.2-2.7,12.1,0
				c6.9,2.7,5.5,10.7,5.5,10.7s20-0.7,23.4,3h-46h-43.9C587.6,314.1,589.4,309.6,603.5,311.1z"/>
		</g>
	</g>
	<g>
		<g>
			<g>
				<path id="XMLID_21_" class="st1" d="M826.7,163c0,0-20.5-23.5-50.3-23.5c0,0-1-18.2-21.4-22.2c-20.4-3.9-24.3,14.2-24.3,14.2
					s-15.1-8-35.3,0c-20.2,8-16.1,31.3-16.1,31.3s-58.3-1.9-68.4,8.8h134.2h128C873.1,171.7,867.8,158.6,826.7,163z"/>
			</g>
			<g>
				<defs>
					<path id="SVGID_10_" d="M826.7,163c0,0-20.5-23.5-50.3-23.5c0,0-1-18.2-21.4-22.2c-20.4-3.9-24.3,14.2-24.3,14.2
						s-15.1-8-35.3,0c-20.2,8-16.1,31.3-16.1,31.3s-58.3-1.9-68.4,8.8h134.2h128C873.1,171.7,867.8,158.6,826.7,163z"/>
				</defs>
				<clipPath id="SVGID_11_">
					<use xlink:href="#SVGID_10_"  style="overflow:visible;"/>
				</clipPath>
				<path class="st10" d="M826.7,163c0,0-20.5-23.5-50.3-23.5c0,0-1-18.2-21.4-22.2c-20.4-3.9-24.3,14.2-24.3,14.2s-15.1-8-35.3,0
					c-20.2,8-16.1,31.3-16.1,31.3s-58.3-1.9-68.4,8.8h134.2h128C873.1,171.7,867.8,158.6,826.7,163z"/>
			</g>
		</g>
	</g>
	<g>
		<g>
			<path id="XMLID_13_" class="st11" d="M387,326.1c0,0,1.8,4.7,7.4,12c7.2,9.5,20.9,23.2,45.3,36.4c43.1,23.3,70.4,62.1,70.4,62.1
				l25.1-80c0,0-11.2-0.8-26.9-12c-10.7-7.6-23.4-19.9-36.2-40c-31.6-49.7-64.7-60.5-64.7-60.5"/>
		</g>
		<g>
			<defs>
				<path id="SVGID_12_" d="M387,326.1c0,0,1.8,4.7,7.4,12c7.2,9.5,20.9,23.2,45.3,36.4c43.1,23.3,70.4,62.1,70.4,62.1l25.1-80
					c0,0-11.2-0.8-26.9-12c-10.7-7.6-23.4-19.9-36.2-40c-31.6-49.7-64.7-60.5-64.7-60.5"/>
			</defs>
			<clipPath id="SVGID_13_">
				<use xlink:href="#SVGID_12_"  style="overflow:visible;"/>
			</clipPath>
			<path class="st12" d="M394.4,338c7.2,9.5,20.9,23.2,45.3,36.4c43.1,23.3,70.4,62.1,70.4,62.1l25.1-80c0,0-11.2-0.8-26.9-12
				c-12.9-0.4-39.5,8.4-53.1,21.5C455.2,366.1,423.7,350.2,394.4,338z"/>
		</g>
		<g>
			<path id="XMLID_1_" class="st13" d="M387,326.1c0,0,1.8,4.7,7.4,12c7.2,9.5,20.9,23.2,45.3,36.4c43.1,23.3,70.4,62.1,70.4,62.1
				l25.1-80c0,0-11.2-0.8-26.9-12c-10.7-7.6-23.4-19.9-36.2-40c-31.6-49.7-64.7-60.5-64.7-60.5"/>
		</g>
	</g>
	<g>
		<g>
			<path id="XMLID_12_" class="st11" d="M787.7,318.7c0,0-1.8,4.7-7.4,12c-7.2,9.5-20.9,23.2-45.3,36.4
				c-43.1,23.3-70.4,62.1-70.4,62.1l-25.1-80c0,0,11.2-0.8,26.9-12c10.7-7.6,23.4-19.9,36.2-40c31.6-49.7,64.7-60.5,64.7-60.5"/>
		</g>
		<g>
			<defs>
				<path id="SVGID_14_" d="M787.7,318.7c0,0-1.8,4.7-7.4,12c-7.2,9.5-20.9,23.2-45.3,36.4c-43.1,23.3-70.4,62.1-70.4,62.1l-25.1-80
					c0,0,11.2-0.8,26.9-12c10.7-7.6,23.4-19.9,36.2-40c31.6-49.7,64.7-60.5,64.7-60.5"/>
			</defs>
			<clipPath id="SVGID_15_">
				<use xlink:href="#SVGID_14_"  style="overflow:visible;"/>
			</clipPath>
			<path class="st14" d="M780.4,330.7c-7.2,9.5-20.9,23.2-45.3,36.4c-43.1,23.3-70.4,62.1-70.4,62.1l-25.1-80c0,0,11.2-0.8,26.9-12
				c12.9-0.4,35.7,5.6,47.2,24C713.7,361.2,751,342.8,780.4,330.7z"/>
		</g>
		<g>
			<path id="XMLID_2_" class="st13" d="M787.7,318.7c0,0-1.8,4.7-7.4,12c-7.2,9.5-20.9,23.2-45.3,36.4
				c-43.1,23.3-70.4,62.1-70.4,62.1l-25.1-80c0,0,11.2-0.8,26.9-12c10.7-7.6,23.4-19.9,36.2-40c31.6-49.7,64.7-60.5,64.7-60.5"/>
		</g>
	</g>
	<path class="st11" d="M555.7,375.7l-26.9,3.2c0,0-18.8,5.7-23.4,9.8c-4.5,4.1-10.5,15-10.5,15s-6.6,1.3-10,0
		c-0.8-0.3-1.5-0.8-1.8-1.4c-0.4-1-0.7-2.1-0.9-3.2c-0.8-4.8-0.2-10.4-0.2-10.4s-4.4-6.3-4.6-8.9c-0.2-2.5,0.8-13.3,3.4-16.2
		c0.1-0.1,0.2-0.3,0.4-0.4c2.9-2.4,19.8-9.8,19.8-9.8s3.8-5.7,13.1-7.4c9.3-1.7,29.2,4.2,29.2,4.2l2.9,5.9L555.7,375.7z"/>
	<path class="st15" d="M482.2,399.1c-0.8-4.8-0.2-10.4-0.2-10.4s-4.4-6.3-4.6-8.9c-0.2-2.5,0.8-13.3,3.4-16.2
		c-3.1,6.2-2.5,15.6,1.8,12.6c5.3-3.7,10.7,3.8,10.7,3.8C487.6,383,483.4,393.1,482.2,399.1z"/>
	<path class="st15" d="M555.7,375.7l-26.9,3.2c0,0-18.8,5.7-23.4,9.8c-4.5,4.1-10.5,15-10.5,15s-6.6,1.3-10,0
		c3.1-0.9,7.6-4.4,8.5-9.1c1.2-6.7,12.5-12.7,12-17.8c-0.4-5.2-9-13.6-9-13.6c5-1.1,9.6,2,9.6,2c-2.4-3.2-6.9-6-6.9-6
		c9.9-1.1,11.8,5.9,11.8,5.9c2.8,0.6,9.3-2,9.3-2c0-4,2.1-7.1,2.1-7.1l3.2,5c3.5,0,15.2-3.3,20.8-5L555.7,375.7z"/>
	<path class="st16" d="M483.1,402.3c1.4,3.4,11.8,1.4,11.8,1.4s6-11,10.5-15c4.5-4.1,23.4-9.8,23.4-9.8l26.9-3.2l-12.4-25.5
		c0,0-20-5.9-29.3-4.2c-9.3,1.7-13,7.4-13,7.4s-16.8,7.5-19.8,9.8c-2.9,2.4-4,14-3.8,16.6c0.2,2.6,4.6,8.9,4.6,8.9
		S481,397.5,483.1,402.3z"/>
	<path class="st17" d="M483.5,400.1c0,0,1.7-9.5,9.7-12.9c0,0,0.8-5.6-1.3-8.2c-2.1-2.6-8.2,2.5-8.4,8.2
		C483.3,392.9,483.5,400.1,483.5,400.1z"/>
	<path class="st11" d="M692,375.7c-2.9,1.9-4.5,5.9-4.5,5.9s0.5,7.2,0,9.1c-0.5,1.9-4.6,5.5-7.7,3.5c-3.1-2-4.8-9.4-13-12.6
		l-51.2-20.4c0,0,1.9-2.9,6.2-6.5c3-2.5,7.1-5.2,12.5-7.6c13.3-5.7,29.5-9.3,37.4-6.7c4.5,1.4,9.8,6.4,13.9,11.3
		c3.2,3.8,5.6,7.5,6.4,9.5C693.7,365.8,695,373.8,692,375.7z"/>
	<path class="st15" d="M692,375.7c-2.9,1.9-4.5,5.9-4.5,5.9s0.5,7.2,0,9.1c-0.5,1.9-4.6,5.5-7.7,3.5c-3.1-2-4.8-9.4-13-12.6
		l-51.2-20.4c0,0,1.9-2.9,6.2-6.5c7,0,16.2,0.7,23.8,3.8c0,0-0.5-5.7,2.4-5c0,0-0.7-5.8,2.4-6c3.2-0.3,2.4,1.8,2.4,1.8s0,5.8,2.6,7
		c2.5,1.2,1.1-6.8,6-7.9c0,0,0.3,9,3.2,11.9c0,0-3.3,9.5,1.2,14.2c4.5,4.7,12.9,10.3,14.7,10.2s-5-8.4-5-8.4s0.1-8.4,5.3-10
		c5.2-1.6,9.7,2.6,9.7,2.6c0.1,0.8-0.7-7.6-4.9-17.1c3.2,3.8,5.6,7.5,6.4,9.5C693.7,365.8,695,373.8,692,375.7z"/>
	<path class="st16" d="M615.7,361.2c0,0,5.4-8.4,18.7-14.1c13.3-5.7,29.5-9.3,37.4-6.7c7.9,2.5,18.6,16.2,20.3,20.8
		c1.7,4.6,2.9,12.6,0,14.5c-2.9,1.9-4.5,5.9-4.5,5.9s0.5,7.2,0,9.1c-0.5,1.9-4.5,5.5-7.7,3.5c-3.2-2-4.8-9.4-13-12.6"/>
	<path class="st17" d="M675.6,376.1c0,0,0.6-8.2,4.6-7.8c4,0.4,7,9,7.3,18.8C687.5,387.1,683.2,378.6,675.6,376.1z"/>
	<path class="st16" d="M662.6,378.9c0,0-4.6-14.8,5.3-20.5"/>
	<path class="st16" d="M645.6,366.2"/>
	<path class="st16" d="M661.5,371.5"/>
	<path class="st16" d="M654.7,371.5"/>
	<g>
		<g>
			<path id="XMLID_11_" class="st4" d="M594.4,287c0,0-14.7-8.5-2.7-39c12-30.6,48.2-39.8,56.4-49.1
				C648.1,198.9,644.8,292.8,594.4,287z"/>
		</g>
		<g>
			<defs>
				<path id="SVGID_16_" d="M594.4,287c0,0-14.7-8.5-2.7-39c12-30.6,48.2-39.8,56.4-49.1C648.1,198.9,644.8,292.8,594.4,287z"/>
			</defs>
			<clipPath id="SVGID_17_">
				<use xlink:href="#SVGID_16_"  style="overflow:visible;"/>
			</clipPath>
			<path class="st18" d="M641.7,207.7c-4.1,7.8-16.8,17.7-30.8,41.6c-8.5,14.4-14.2,29.3-17,37.4c-2.2-1.6-11.2-9.9-4.4-32.3
				c0.3,7.9,3.1,12.4,3.1,12.4C591.7,235.9,641.7,207.7,641.7,207.7z"/>
		</g>
	</g>
	<g>
		<g>
			<path id="XMLID_10_" class="st6" d="M576.9,367.6c0,0,6.3-110.4,59.5-152.1c0,0-49.3,40.8-51.9,152.1H576.9z"/>
		</g>
		<g>
			<defs>
				<path id="SVGID_18_" d="M576.9,367.6c0,0,6.3-110.4,59.5-152.1c0,0-49.3,40.8-51.9,152.1H576.9z"/>
			</defs>
			<clipPath id="SVGID_19_">
				<use xlink:href="#SVGID_18_"  style="overflow:visible;"/>
			</clipPath>
			<path class="st19" d="M576.9,367.6c0,0,6.3-110.4,59.5-152.1c0,0-49.3,40.8-51.9,152.1H576.9z"/>
		</g>
	</g>
	<g>
		<g>
			<path id="XMLID_9_" class="st4" d="M571.9,252.5c0,0,13.1-7.6,2.4-34.9c-10.8-27.3-43.1-35.6-50.4-43.9
				C523.9,173.7,526.8,257.7,571.9,252.5z"/>
		</g>
		<g>
			<defs>
				<path id="SVGID_20_" d="M571.9,252.5c0,0,13.1-7.6,2.4-34.9c-10.8-27.3-43.1-35.6-50.4-43.9
					C523.9,173.7,526.8,257.7,571.9,252.5z"/>
			</defs>
			<clipPath id="SVGID_21_">
				<use xlink:href="#SVGID_20_"  style="overflow:visible;"/>
			</clipPath>
			<path class="st20" d="M574.3,217.6c-0.6-1.5-1.3-2.9-2.1-4.3c-1.6-2.7,2.5,5.4,2.6,12.1c0,2.4-0.6,6.1-3.9,8.8
				c-0.8-4.3-1.3-8.9-3.3-12.8c-10.6-19.9-35.2-38-39.2-41c0.4,0.5,13.9,17.5,21.9,27.3c4.3,5.3,7.1,11.9,9.9,18
				c3.6,7.8,6.8,15.7,10,23.6c0.4,1.1,0.9,2.2,1.3,3.3c3.6-2.2,5.6-6.4,6.4-10.5c1.4-7.1-0.3-14.4-2.5-21.2
				C575.1,219.8,574.7,218.7,574.3,217.6z"/>
		</g>
	</g>
	<g>
		<g>
			<path id="XMLID_8_" class="st6" d="M585.4,320.2c0,0-3.4-94.3-51-131.6c0,0,45.8,41,46.5,146.6c0,0,1.5,0.3,2.3-2.1"/>
		</g>
		<g>
			<defs>
				<path id="SVGID_22_" d="M585.4,320.2c0,0-3.4-94.3-51-131.6c0,0,45.8,41,46.5,146.6c0,0,1.5,0.3,2.3-2.1"/>
			</defs>
			<clipPath id="SVGID_23_">
				<use xlink:href="#SVGID_22_"  style="overflow:visible;"/>
			</clipPath>
			<path class="st21" d="M585.4,320.2c0,0-3.4-94.3-51-131.6c0,0,45.8,41,46.5,146.6c0,0,1.5,0.3,2.3-2.1"/>
		</g>
	</g>
	<path class="st22" d="M508.2,397c0,0-3.2-2.5,0-10.3c2.4-6,10.3-5.7,10.8-12c3.2,0.4,5.8-1.7,7.5-4.4c1.7-2.6,3-5.8,5.8-7.2
		c0.9-0.4,1.8-0.7,2.7-1.1c3.3-1.8,4.5-6.6,8.1-7.6c2.1-0.6,4.6,0.2,6.6-0.7c2.1-1,2.9-3.7,5-4.6c0.9-0.4,1.9-0.4,2.8-0.6
		c3.7-1,6.1-5.6,10-5.4c1.1,0,2.3,0.5,3.3,0c0.8-0.4,1.3-1.3,2.1-1.6c0.7-0.2,1.4-0.1,2.1,0.1c2,0.4,4.6,0.4,6.5-0.5
		c1.8-0.8,2.3-3.3,3.4-3.8c4.5-2.2,9.5,6.4,12.1,8.5c1.5,1.3,3.2-2,5.2-1.9c1.8,0.1,2.7,2.8,4.5,2.6c-0.8,0.6-0.4,2.1,0.5,2.6
		c0.9,0.5,2,0.5,3.1,0.6c2.5,0.3,4.9,1.6,7,2.9c0.4,0.2,0.8,0.5,1,0.8c0.3,0.4,0.3,0.9,0.6,1.3c0.6,0.8,1.9,0.9,2.4,1.8
		c0.2,0.4,0.1,1,0.2,1.4c0.3,1.4,1.9,2,3.3,2.1c1.4,0.1,2.9-0.1,4.1,0.7c0.9,0.6,1.5,1.5,2.2,2.3c2.8,2.7,6,2.5,8.5,5.9
		c2.7,3.6,4.5,7.4,8.3,10c6.5,4.3,8.3,10.5,10.1,16.2c1.8,5.7-23.2,19.8-73.7,23.5C533.8,421.9,507.5,400.8,508.2,397z"/>
	<path class="st11" d="M493,403.8c0,0,5.3-9.4,12.3-15c7-5.6,12.1-12.8,18.2-20.4c6.2-7.6,15.1-17.3,19.6-18.1
		c4.5-0.8,14.6,0.7,15.7,9.9c0,0,6.9-8.3,16.5-2.5c9.6,5.8,4.8,16.8,4.8,16.8s3.5-1.4,5.7,0s8.4,75.7,8.4,75.7s-5.1,1.2-10.4,3.4
		c-5.3,2.2-12.1,2.5-16.6,0c0,0-8.4,2.2-14,1.8c-5.6-0.4-20.8-0.7-26.1-2.1c-5.3-1.4-13.5-4.7-17.1-6.6c-3.6-1.8-7.9-6.3-9.5-9.7
		c-1.7-3.4-4.8-4.5-9.5-10.3C486.3,421,493,403.8,493,403.8z"/>
	<path class="st15" d="M586,374.4c-2.1-1.4-5.4-0.1-5.7,0c0.1-0.2,0.6-1.4,0.9-3.2l-5.8,12.1c0,0-8.9,11.6-12.1,16.8
		c-3.2,5.2-0.5,5.8-4.4,14c-3.9,8.3-9.7,24.1-15.7,25.4c-6.1,1.3-18.9-3.1-21.3-9.3c-2.4-6.2,3.4-10.6,10.5-19.6
		c7.1-9,10-12.4,9.5-16.5c-0.5-4,13.9-29.3,14.7-30.8c-0.4,0.5-2.6,3.5-5.4,7.2c1.1-2,2.2-4.4,3.2-7.2l-13.3-5.6c0,0-13,13.9-6,19.2
		c3.9,2.9,7.7,3,11.2,0c-2.8,3.6-5.5,7-7,8.6c-4.2,4.6-5,9.7-6.9,12.8c-1.9,3-9.4,15.6-15.9,20.1c-6.5,4.5-10.3,5.8-15.6,2.9
		c-3.6-1.9-5.8-12.6-6.9-19.2c-0.7,1.1-1,1.7-1,1.7s-6.7,17.2-2,23c4.8,5.8,7.9,6.9,9.5,10.3c1.7,3.4,5.9,7.8,9.5,9.7
		c3.6,1.8,11.8,5.2,17.1,6.6c5.3,1.4,20.5,1.7,26.1,2.1c5.6,0.4,14-1.8,14-1.8c4.5,2.5,11.2,2.2,16.6,0c4-1.7,7.7-2.8,9.5-3.2
		c0.3-0.4,0.6-0.8,0.9-1.2C593.5,440.6,588,375.7,586,374.4z"/>
	<path class="st15" d="M563.7,363.2c0,0-13.4,15.5-4.1,22.2c9.3,6.8,19.2-6.1,19.6-16.8L563.7,363.2z"/>
	<path class="st23" d="M594.3,450.1c0,0-0.3,0.1-0.9,0.2c-1.7,0.5-5.5,1.6-9.5,3.2c-5.3,2.2-12.1,2.5-16.6,0c0,0-8.4,2.2-14,1.8
		c-5.6-0.4-20.8-0.7-26.1-2.1c-5.3-1.4-13.5-4.7-17.1-6.6c-3.6-1.9-7.9-6.3-9.5-9.7c-1.7-3.4-4.8-4.5-9.5-10.3c-4.8-5.8,2-23,2-23
		s0.4-0.7,1-1.7c1.9-3,6.1-9.2,11.3-13.3c7-5.6,12.1-12.8,18.2-20.4c6.2-7.6,15.1-17.3,19.6-18.1c4.5-0.8,14.6,0.7,15.7,9.9
		c0,0,6.9-8.3,16.5-2.5c6.3,3.8,6.4,9.8,5.8,13.5c-0.3,1.8-0.9,3.1-0.9,3.2c0.2-0.1,3.6-1.3,5.7,0c2,1.3,7.6,66.2,8.3,74.7
		C594.3,449.8,594.3,450.1,594.3,450.1z"/>
	<path class="st16" d="M559,360.1c-3.1,2.5-19.9,34.3-23.1,38.1c-3.2,3.8-11.8,14.6-15.6,18.5c-3.8,4-6.7,10-6.7,10s-4,4.1-7.8,6.7"
		/>
	<path class="st16" d="M580.3,374.4c0,0-4.6,7.8-7.4,14.3c-2.7,6.5-10.7,23.2-14,29.5s-8.6,20.8-12.3,23.2
		c-3.8,2.3-9.3,7.6-12.6,7.2"/>
	<path class="st16" d="M569.8,451.4c0,0,7.6-7.2,8.6-12.6c1.1-5.3,15.9-47,15.9-47"/>
	<path class="st17" d="M541.2,357.6c0,0,8.6-0.6,13.3,5.6c0,0-6.9,17.3-15.4,12.9C530.6,371.7,541.2,357.6,541.2,357.6z"/>
	<path class="st17" d="M563.7,363.2c0,0,8.7-0.3,15.5,5.4c0,0-4.5,19.4-15.5,16.5C552.7,382.2,560.1,369.5,563.7,363.2z"/>
	<path class="st17" d="M582.4,379.8c0,0-4.8,7.3-4.2,12.6c0.6,5.3,7.8,4.3,7.8,4.3"/>
	<path class="st11" d="M676.3,422.8c0,0-6.7,12.2-13.9,15.6c-7.2,3.4-13.1,2.1-17.3,4.6c-4.2,2.5-11.4,3.8-21,5.5
		c-9.7,1.7-19.4,3.8-26.3,2.5c-2.3-0.4-4.6-1.3-6.8-2.4c-4.4-2.3-8.6-5.8-12.5-9.8c-3.4-3.5-3.1-9.2-0.8-13.1
		c1.2-1.9,2.9-3.4,4.8-3.8c0,0-2.3-1.8-4.9-4.2c-2.8-2.5-6-5.6-6.8-7.6c-1.7-3.8-1.3-10.5,4.6-16.4c5.9-5.9,13-5,13-5s-9-7.4-5.5-16
		c1.3-3.1,3.6-7.2,10.5-8.4c10-1.7,15.6,4,15.6,4s-1.6-9.9,8.5-12c10-2.1,31.9,13.9,36.1,16c3,1.5,7.8,5,12.3,7.7
		c0.4,0.2,0.7,0.4,1.1,0.7c1.2,0.7,2.4,1.4,3.6,2c5.2,3.8,6.8,9.8,9.4,11.4c1.6,1,3.3,0.6,4.8-0.3c0.2,0.3,0.3,0.5,0.5,0.8
		C687.2,398.4,692.3,414.4,676.3,422.8z"/>
	<path class="st15" d="M676.3,422.8c0,0-6.7,12.2-13.9,15.6c-7.2,3.4-13.1,2.1-17.3,4.6c-4.2,2.5-11.4,3.8-21,5.5
		c-9.7,1.7-19.4,3.8-26.3,2.5c-2.3-0.4-4.6-1.3-6.8-2.4c5.2-0.4,9.2-3,11.1-6.9c2.3-4.9-4.6-5.2-6.2-2.2c-1.6,3.1-11.5,2-9.8,0
		c1.7-2-1.7-12.1-3.6-13.4c-0.8-0.6-2.8-0.5-4.8-0.3c1.2-1.9,2.9-3.4,4.8-3.8c0,0-2.3-1.8-4.9-4.2l6.5,3.8c0,0,13.8,12,21.4,17.9
		c7.6,5.9,21.9,4.5,25.6,0c3.8-4.5-13.3-18.5-18.6-22.8c-5.2-4.1-7.4-11-7.6-11.4c0.4,0.4,14.4,13.9,22.1,23
		c7.9,9.2,16.1,6.5,25,2.3c8.9-4.2,3.9-16,1.1-18.9c-2.9-2.8-15.4-13.7-17.4-17c-1.9-3.2-15.7-15-16.6-15.7
		c0.9,0.6,16.1,10.4,18.3,12.9c2.2,2.5,7.9,6.4,16.3,12.5c8.5,6.1,14.8,13,21.1,0c4.3-9-3.6-18.9-8.9-24.3c0.4,0.2,0.7,0.4,1.1,0.7
		c1.2,0.7,2.4,1.4,3.6,2c5.2,3.8,6.8,9.8,9.4,11.4c1.6,1,3.3,0.6,4.8-0.3c0.2,0.3,0.3,0.5,0.5,0.8
		C687.2,398.4,692.3,414.4,676.3,422.8z"/>
	<path class="st15" d="M590.9,384.3c0,0,3.2-9.3,13.7-12c0,0,10.3,7.2,10.3,13s-4,10.4-11.3,8.2
		C596.2,391.2,590.9,384.3,590.9,384.3z"/>
	<path class="st15" d="M615.7,369.4c0,0,4.2-5.5,10.7-7.2c0,0,13.6,10.3,8.5,15.8C629.7,383.5,617.8,376.5,615.7,369.4z"/>
	<path class="st15" d="M576.8,410c0,0,5.2-8.1,12.8-10.3c0,0,15.8,8.9,7.8,15.9C589.5,422.6,578.7,413.7,576.8,410z"/>
	<path class="st16" d="M676.3,422.8c0,0-6.7,12.2-13.9,15.6c-7.2,3.4-13.1,2.1-17.3,4.6c-4.2,2.5-11.4,3.8-21,5.5
		c-9.7,1.7-19.4,3.8-26.3,2.5c-6.9-1.3-13.4-6.1-19.3-12.2c-5.2-5.3-1.9-15.6,4-16.9c0,0-10.1-8-11.8-11.8
		c-1.7-3.8-1.3-10.5,4.6-16.4c5.9-5.9,13-5,13-5s-9-7.4-5.5-16c1.3-3.1,3.6-7.2,10.5-8.4c10-1.7,15.6,4,15.6,4s-1.6-9.9,8.5-12
		c10-2.1,31.9,13.9,36.1,16c3.3,1.6,8.6,5.6,13.3,8.4c1.2,0.7,2.4,1.4,3.6,2c5.2,3.8,6.8,9.8,9.4,11.4c1.6,1,3.3,0.6,4.8-0.3
		c0.2,0.3,0.3,0.5,0.5,0.8C687.2,398.4,692.3,414.4,676.3,422.8z"/>
	<path class="st16" d="M608.9,368.3c1.4,3.3,14.2,14.8,19.7,18.2c5.5,3.4,21,20.2,25.4,22.5c4.5,2.2,8.4,9.3,13.7,10.9"/>
	<path class="st16" d="M588.3,388.7c7.7,6.5,16.4,17.4,20.6,20.5s13.7,13.7,18,19.1c4.2,5.3,7,9,23.6,11.2"/>
	<path class="st16" d="M639.8,435.3"/>
	<path class="st16" d="M656.3,423.2"/>
	<path class="st16" d="M667.8,410.6"/>
	<path class="st16" d="M674.9,394.1"/>
	<path class="st16" d="M582.4,422c0,0,10.9,9.1,15.3,11.6c4.5,2.5,10.3,9.3,14.8,10.7c4.5,1.4,9,0,9,0"/>
	<path class="st16" d="M633.2,434.5"/>
	<path class="st17" d="M588.3,382.6c0,0,3.2-9.3,13.7-12c0,0,10.3,7.2,10.3,13s-4,10.4-11.3,8.2
		C593.5,389.6,588.3,382.6,588.3,382.6z"/>
	<path class="st17" d="M614,368.3c0,0,4.2-5.5,10.7-7.2c0,0,13.6,10.3,8.5,15.8C628.1,382.4,616.1,375.5,614,368.3z"/>
	<path class="st17" d="M575.5,408.5c0,0,5.2-8.1,12.8-10.3c0,0,15.8,8.9,7.8,15.9C588.1,421.1,577.3,412.3,575.5,408.5z"/>
	<path class="st17" d="M579.2,434.9c0,0,7.3-1.5,9.1-8.2c0,0,7.5,5.8,3.2,10.3C585.1,443.6,579.2,434.9,579.2,434.9z"/>
	<path class="st16" d="M648.1,383.7"/>
	<path class="st16" d="M643.2,390.6"/>
	<polyline class="st6" points="684.9,241.6 683.1,240.7 681.7,243.6 684.2,246.7 684.9,245.5 	"/>
</g>
</svg>
