<?xml version="1.0" encoding="utf-8"?>
<!-- Generator: Adobe Illustrator 19.0.0, SVG Export Plug-In . SVG Version: 6.00 Build 0)  -->
<svg version="1.1" id="Warstwa_1" xmlns="http://www.w3.org/2000/svg" xmlns:xlink="http://www.w3.org/1999/xlink" x="0px" y="0px"
	 viewBox="163 15 825 472" style="enable-background:new 163 15 825 472;" xml:space="preserve">
<style type="text/css">
	.st0{clip-path:url(#SVGID_2_);fill:url(#SVGID_3_);}
	.st1{fill:#FFFFFF;}
	.st2{fill:#207254;}
	.st3{fill:#404040;}
	.st4{fill:#FCC812;}
</style>
<g>
	<g>
		<g>
			<defs>
				<rect id="SVGID_1_" x="163" y="15" width="825" height="472"/>
			</defs>
			<clipPath id="SVGID_2_">
				<use xlink:href="#SVGID_1_"  style="overflow:visible;"/>
			</clipPath>
			
				<linearGradient id="SVGID_3_" gradientUnits="userSpaceOnUse" x1="-879.9618" y1="1247.1718" x2="-878.373" y2="1247.1718" gradientTransform="matrix(526.5874 0 0 -526.5874 463517 657038.5)">
				<stop  offset="0" style="stop-color:#379E6E"/>
				<stop  offset="1" style="stop-color:#72C6D4"/>
			</linearGradient>
			<rect x="140.2" y="-141.8" class="st0" width="870.6" height="870.6"/>
		</g>
	</g>
</g>
<g>
	<path class="st1" d="M224.9,122.5c7.2-0.1,14.1-2.9,19.3-8c5.2-5.1,8.2-11.9,8.4-19.1c0.1-5.5-1.3-10.8-4.2-15.4
		c-0.4-0.6-1.1-1-1.8-1c-0.8,0-1.4,0.4-1.8,1.1c-0.4,0.7-0.4,1.5,0.1,2.1c2.5,4,3.7,8.7,3.5,13.5c-0.5,11.7-10.8,22.1-22.6,22.6
		c-6.7,0.3-13.2-2.2-17.9-6.9c-4.7-4.7-7.2-11.2-6.9-17.9c0.6-11.7,10.9-22,22.7-22.6c4.8-0.2,9.5,1,13.5,3.5c0.7,0.4,1.4,0.4,2.1,0
		c0.7-0.4,1.1-1,1.1-1.8c0-0.7-0.4-1.4-1-1.8c-4.6-2.9-10-4.3-15.4-4.2c-7.2,0.2-14,3.2-19.1,8.4c-5.1,5.2-8,12-8,19.3
		c-0.1,7.5,2.8,14.6,8.2,20c5.3,5.3,12.3,8.2,19.7,8.2C224.7,122.5,224.8,122.5,224.9,122.5"/>
	<path class="st1" d="M224.6,77.8c-1,0-1.7,0.5-2.1,1.5L212,104.4c-0.3,0.8-0.3,1.5,0.1,2.1c0.4,0.7,1,1,1.8,1
		c0.4,0,0.8-0.1,1.2-0.3c0.4-0.2,0.7-0.6,0.9-1l3.2-7.7h11l3.1,7.7c0.2,0.4,0.4,0.8,0.8,1c0.4,0.2,0.8,0.4,1.2,0.4
		c0.8,0,1.4-0.3,1.8-1c0.4-0.6,0.5-1.4,0.2-2.1l-10.6-25.2C226.3,78.3,225.6,77.8,224.6,77.8 M220.6,95l4.1-10l4,10H220.6z"/>
	<path class="st1" d="M278.6,96.5c0.3-0.5,0.4-1,0.1-1.6l-7.4-17.6c-0.3-0.7-0.8-1.1-1.6-1.1c-0.7,0-1.2,0.4-1.6,1.1l-7.3,17.5
		c-0.2,0.6-0.2,1.1,0.1,1.6c0.3,0.5,0.8,0.8,1.4,0.8c0.3,0,0.6-0.1,0.9-0.2c0.3-0.2,0.5-0.4,0.7-0.8l2.2-5.3h7.5l2.1,5.3
		c0.1,0.3,0.3,0.6,0.6,0.8c0.3,0.2,0.6,0.3,0.9,0.3C277.9,97.2,278.3,97,278.6,96.5 M267.2,88.2l2.7-6.5l2.6,6.5H267.2z"/>
	<path class="st1" d="M284.8,85.6c0.7-0.3,1.5-0.5,2.5-0.4c0.2,0,0.5,0,0.7-0.1c0.2-0.1,0.4-0.2,0.5-0.4c0.1-0.2,0.2-0.5,0.2-0.8
		c0-0.4-0.1-1-0.9-1.4c-0.6-0.3-1.3-0.3-2.3-0.1c-0.8,0.2-1.5,0.5-2.1,1c-0.1-0.3-0.2-0.6-0.4-0.8c-0.3-0.3-0.7-0.4-1.2-0.4
		c-0.5,0-0.9,0.1-1.2,0.4c-0.3,0.3-0.4,0.7-0.4,1.2v11.9c0,0.5,0.1,0.9,0.4,1.2c0.3,0.3,0.7,0.4,1.2,0.4c0.5,0,0.9-0.1,1.2-0.4
		c0.3-0.3,0.4-0.7,0.4-1.2v-8.8C283.6,86.3,284.1,85.9,284.8,85.6"/>
	<path class="st1" d="M298,94h-0.9c-0.5,0-0.9-0.2-1.2-0.6c-0.3-0.4-0.5-0.9-0.5-1.6v-6.5h2c0.4,0,0.8-0.1,1.1-0.4
		c0.3-0.3,0.4-0.6,0.4-1c0-0.4-0.1-0.8-0.4-1.1c-0.3-0.3-0.6-0.4-1.1-0.4h-2v-3.1c0-0.5-0.1-0.9-0.4-1.1c-0.3-0.3-0.7-0.5-1.1-0.5
		c-0.5,0-0.9,0.1-1.2,0.5c-0.3,0.3-0.5,0.7-0.5,1.1v3.1h-0.8c-0.4,0-0.8,0.1-1.1,0.4c-0.3,0.3-0.4,0.6-0.4,1.1c0,0.4,0.1,0.7,0.4,1
		c0.3,0.3,0.6,0.4,1.1,0.4h0.8v6.5c0,1,0.2,1.9,0.6,2.7c0.4,0.8,1,1.5,1.8,1.9c0.7,0.5,1.6,0.7,2.5,0.7h0.5c0.5,0,1-0.1,1.3-0.4
		c0.4-0.3,0.5-0.7,0.5-1.2c0-0.5-0.1-0.8-0.4-1.1C298.7,94.2,298.4,94,298,94"/>
	<path class="st1" d="M342.3,93.5c0.6-1.1,0.9-2.4,0.9-3.8c0-1.4-0.3-2.7-1-3.9c-0.7-1.1-1.6-2-2.7-2.7s-2.4-1-3.8-1
		c-1.4,0-2.7,0.3-3.8,1s-2,1.6-2.7,2.7c-0.6,1.1-1,2.4-1,3.9v11.9c0,0.5,0.2,0.9,0.5,1.2c0.3,0.3,0.7,0.5,1.2,0.5
		c0.5,0,0.9-0.2,1.2-0.5s0.4-0.7,0.4-1.2v-6.3c0.5,0.5,1.1,0.9,1.8,1.2c0.9,0.5,1.9,0.7,3,0.7c1.3,0,2.5-0.3,3.6-1
		C340.9,95.6,341.7,94.7,342.3,93.5 M339.5,92c-0.4,0.7-0.9,1.2-1.5,1.6c-0.6,0.4-1.4,0.6-2.2,0.6c-0.8,0-1.6-0.2-2.2-0.6
		s-1.2-1-1.5-1.6s-0.6-1.5-0.6-2.4c0-0.9,0.2-1.7,0.6-2.4s0.9-1.2,1.5-1.6c0.6-0.4,1.4-0.6,2.2-0.6c0.8,0,1.6,0.2,2.2,0.6
		s1.2,1,1.5,1.6s0.6,1.5,0.6,2.4C340.1,90.6,339.9,91.3,339.5,92"/>
	<path class="st1" d="M357.4,94.5c0-0.4-0.2-0.8-0.6-1.1c-0.3-0.2-0.6-0.4-1-0.4c-0.4,0-0.7,0.1-1,0.4c-0.3,0.2-0.8,0.5-1.3,0.6
		s-1.1,0.3-1.6,0.3c-0.9,0-1.8-0.2-2.5-0.6c-0.7-0.4-1.3-1-1.7-1.7c-0.2-0.4-0.4-0.8-0.5-1.2h9.6c0.4,0,0.8-0.1,1.1-0.4
		c0.3-0.3,0.4-0.6,0.4-1c0-1.4-0.3-2.7-0.8-3.8c-0.5-1.1-1.3-2-2.4-2.6c-1-0.6-2.2-1-3.7-1c-1.4,0-2.7,0.3-3.8,1
		c-1.1,0.6-2,1.5-2.6,2.7c-0.6,1.1-0.9,2.5-0.9,3.9c0,1.5,0.3,2.8,1,3.9s1.6,2,2.8,2.7c1.2,0.6,2.5,1,4,1c0.8,0,1.7-0.2,2.6-0.5
		c0.9-0.3,1.7-0.7,2.3-1.2C357.3,95.2,357.4,94.8,357.4,94.5 M347.6,87.2c0.3-0.7,0.8-1.3,1.5-1.7c0.6-0.4,1.5-0.6,2.4-0.6
		c0.8,0,1.5,0.2,2.1,0.5c0.6,0.4,1,0.9,1.3,1.5c0.2,0.4,0.3,0.8,0.4,1.2h-8C347.4,87.9,347.5,87.5,347.6,87.2"/>
	<path class="st1" d="M368.7,86.8c0.3,0.6,0.5,1.4,0.5,2.3v6.5c0,0.5,0.2,0.9,0.5,1.2c0.3,0.3,0.7,0.5,1.2,0.5
		c0.5,0,0.9-0.2,1.2-0.5s0.5-0.7,0.5-1.2v-6.5c0-1.5-0.3-2.8-0.9-3.8s-1.4-1.9-2.4-2.4c-1-0.5-2.1-0.8-3.4-0.8
		c-1.2,0-2.3,0.3-3.3,0.8c-0.1,0.1-0.2,0.1-0.3,0.2c-0.1-0.1-0.2-0.3-0.3-0.4c-0.3-0.3-0.7-0.5-1.2-0.5c-0.5,0-0.9,0.1-1.2,0.5
		c-0.3,0.3-0.5,0.7-0.5,1.2v11.7c0,0.5,0.2,0.9,0.5,1.2c0.3,0.3,0.7,0.5,1.2,0.5c0.5,0,0.9-0.2,1.2-0.5s0.4-0.7,0.4-1.2v-9.3
		c0.3-0.3,0.6-0.6,1-0.8c0.5-0.3,1.2-0.4,1.9-0.4c0.8,0,1.4,0.1,2,0.4C368,85.8,368.4,86.3,368.7,86.8"/>
	<path class="st1" d="M324.4,78.9L324.4,78.9c-1-1-2.1-1.7-3.4-2.3s-2.8-0.8-4.4-0.8c-1.6,0-3.1,0.3-4.4,0.8
		c-1.3,0.5-2.5,1.3-3.4,2.3c-1,1-1.7,2.1-2.2,3.5c-0.5,1.3-0.8,2.8-0.8,4.4c0,1.6,0.3,3.1,0.8,4.4c0.5,1.3,1.3,2.5,2.2,3.5
		c0.9,1,2.1,1.7,3.4,2.3s2.8,0.8,4.4,0.8c1.6,0,3-0.3,4.4-0.8c1.3-0.5,2.5-1.3,3.4-2.3s1.7-2.1,2.2-3.5c0.5-1.3,0.8-2.8,0.8-4.4
		c0-1.6-0.3-3.1-0.8-4.4C326.2,81,325.4,79.8,324.4,78.9 M323.4,89.7c-0.4,0.9-0.9,1.7-1.5,2.4s-1.4,1.2-2.3,1.6
		c-0.9,0.4-1.9,0.6-2.9,0.6c-1.1,0-2.1-0.2-2.9-0.6c-0.9-0.4-1.7-0.9-2.3-1.6c-0.6-0.7-1.1-1.5-1.5-2.4c-0.4-0.9-0.5-1.9-0.5-3
		s0.2-2.1,0.5-3c0.4-0.9,0.9-1.7,1.5-2.4c0.6-0.7,1.4-1.2,2.3-1.6c0.9-0.4,1.9-0.6,3-0.6s2.1,0.2,2.9,0.6c0.9,0.4,1.7,0.9,2.3,1.6
		c0.6,0.7,1.2,1.5,1.5,2.4c0.4,0.9,0.5,1.9,0.5,3C324,87.8,323.8,88.8,323.4,89.7"/>
	<path class="st1" d="M275.4,110.5c-0.3-0.3-0.8-0.5-1.5-0.6c-0.4,0-0.7-0.1-0.9-0.2s-0.4-0.2-0.5-0.4c-0.1-0.1-0.1-0.3-0.1-0.5
		c0-0.3,0.1-0.5,0.4-0.7s0.6-0.2,1-0.2c0.2,0,0.4,0,0.6,0.1c0.2,0.1,0.3,0.1,0.4,0.2c0.1,0.1,0.2,0.2,0.3,0.3c0,0.1,0.1,0.1,0.2,0.1
		c0.1,0,0.2,0,0.2,0c0.1,0,0.1-0.1,0.1-0.2c0-0.1,0-0.1,0-0.2c-0.1-0.2-0.3-0.3-0.4-0.5c-0.2-0.1-0.4-0.2-0.6-0.3
		c-0.2-0.1-0.5-0.1-0.8-0.1c-0.4,0-0.7,0.1-1,0.2c-0.3,0.1-0.5,0.3-0.7,0.5c-0.2,0.2-0.3,0.5-0.3,0.8c0,0.4,0.2,0.8,0.5,1
		c0.4,0.3,0.8,0.5,1.5,0.5c0.5,0.1,0.9,0.2,1.1,0.4c0.2,0.2,0.4,0.5,0.4,0.8c0,0.2-0.1,0.4-0.2,0.6c-0.1,0.2-0.3,0.3-0.5,0.4
		c-0.2,0.1-0.5,0.1-0.8,0.1c-0.2,0-0.5,0-0.7-0.1c-0.2-0.1-0.4-0.1-0.6-0.3c-0.1-0.1-0.3-0.2-0.4-0.4c0-0.1-0.1-0.1-0.2-0.1
		s-0.1,0-0.2,0c-0.1,0-0.2,0.1-0.2,0.1c0,0.1,0,0.1,0,0.2c0.1,0.2,0.3,0.4,0.5,0.6c0.2,0.2,0.5,0.3,0.8,0.4c0.3,0.1,0.6,0.1,0.9,0.1
		c0.3,0,0.6,0,0.8-0.1c0.2-0.1,0.5-0.2,0.7-0.3s0.3-0.3,0.4-0.5s0.2-0.4,0.2-0.7C275.9,111.2,275.8,110.8,275.4,110.5"/>
	<path class="st1" d="M282.2,107.5h-1.9h-0.6h-1.9c-0.1,0-0.1,0-0.2,0.1c-0.1,0-0.1,0.1-0.1,0.2c0,0.1,0,0.1,0.1,0.2
		c0,0,0.1,0.1,0.2,0.1h1.9v4.9c0,0.1,0,0.1,0.1,0.2s0.1,0.1,0.2,0.1s0.2,0,0.2-0.1c0.1-0.1,0.1-0.1,0.1-0.2V108h1.9
		c0.1,0,0.1,0,0.2-0.1c0.1,0,0.1-0.1,0.1-0.2c0-0.1,0-0.1-0.1-0.2C282.3,107.6,282.3,107.5,282.2,107.5"/>
	<path class="st1" d="M289.3,107.5c-0.1,0-0.2,0-0.2,0.1s-0.1,0.1-0.1,0.2v3.5c0,0.3-0.1,0.5-0.2,0.8s-0.4,0.4-0.6,0.5
		c-0.3,0.1-0.6,0.2-1,0.2c-0.4,0-0.7-0.1-1-0.2s-0.5-0.3-0.7-0.5s-0.2-0.5-0.2-0.8v-3.5c0-0.1,0-0.1-0.1-0.2c-0.1,0-0.1-0.1-0.2-0.1
		s-0.2,0-0.2,0.1s-0.1,0.1-0.1,0.2v3.5c0,0.4,0.1,0.7,0.3,1c0.2,0.3,0.5,0.5,0.9,0.7c0.4,0.2,0.8,0.3,1.3,0.3c0.5,0,0.9-0.1,1.3-0.3
		c0.4-0.2,0.7-0.4,0.9-0.7c0.2-0.3,0.3-0.6,0.3-1v-3.5c0-0.1,0-0.1-0.1-0.2C289.4,107.6,289.4,107.5,289.3,107.5"/>
	<path class="st1" d="M296.4,108.3c-0.3-0.3-0.6-0.5-1-0.6c-0.4-0.1-0.8-0.2-1.2-0.2h-1.4c-0.1,0-0.2,0-0.2,0.1s-0.1,0.1-0.1,0.2
		v5.1c0,0.1,0,0.1,0.1,0.2c0.1,0,0.1,0.1,0.2,0.1h1.4c0.5,0,0.9-0.1,1.2-0.2c0.4-0.1,0.7-0.3,1-0.6c0.3-0.3,0.5-0.6,0.6-0.9
		s0.2-0.7,0.2-1.1c0-0.4-0.1-0.8-0.2-1.1C296.9,108.9,296.7,108.6,296.4,108.3 M296.4,111.6c-0.2,0.4-0.5,0.6-0.9,0.8
		c-0.4,0.2-0.8,0.3-1.3,0.3h-1.1V108h1.1c0.5,0,0.9,0.1,1.3,0.3c0.4,0.2,0.7,0.5,0.9,0.8c0.2,0.4,0.3,0.8,0.3,1.2
		C296.7,110.8,296.6,111.2,296.4,111.6"/>
	<path class="st1" d="M300.2,107.5c-0.1,0-0.2,0-0.2,0.1s-0.1,0.1-0.1,0.2v5.1c0,0.1,0,0.1,0.1,0.2c0.1,0,0.1,0.1,0.2,0.1
		s0.2,0,0.2-0.1s0.1-0.1,0.1-0.2v-5.1c0-0.1,0-0.1-0.1-0.2C300.3,107.6,300.3,107.5,300.2,107.5"/>
	<path class="st1" d="M308.5,108.3c-0.3-0.3-0.6-0.5-1-0.6c-0.4-0.1-0.8-0.2-1.3-0.2c-0.5,0-0.9,0.1-1.3,0.2c-0.4,0.1-0.7,0.4-1,0.6
		c-0.3,0.3-0.5,0.6-0.7,0.9c-0.2,0.4-0.2,0.7-0.2,1.2s0.1,0.8,0.2,1.2c0.2,0.4,0.4,0.7,0.7,0.9c0.3,0.3,0.6,0.5,1,0.6
		c0.4,0.1,0.8,0.2,1.3,0.2c0.5,0,0.9-0.1,1.3-0.2c0.4-0.1,0.7-0.4,1-0.6c0.3-0.3,0.5-0.6,0.7-0.9s0.2-0.8,0.2-1.2s-0.1-0.8-0.2-1.2
		C309,108.9,308.8,108.5,308.5,108.3 M308.6,111.3c-0.1,0.3-0.3,0.5-0.5,0.8c-0.2,0.2-0.5,0.4-0.8,0.5c-0.3,0.1-0.6,0.2-1,0.2
		s-0.7-0.1-1-0.2c-0.3-0.1-0.6-0.3-0.8-0.5c-0.2-0.2-0.4-0.5-0.5-0.8s-0.2-0.6-0.2-1c0-0.3,0.1-0.6,0.2-0.9s0.3-0.5,0.5-0.8
		c0.2-0.2,0.5-0.4,0.8-0.5c0.3-0.1,0.7-0.2,1-0.2s0.7,0.1,1,0.2s0.6,0.3,0.8,0.5c0.2,0.2,0.4,0.5,0.5,0.8s0.2,0.6,0.2,0.9
		S308.7,111,308.6,111.3"/>
	<path class="st1" d="M318.2,110.9c0.1,0,0.2-0.1,0.3-0.1c0.3-0.1,0.5-0.4,0.7-0.6c0.2-0.3,0.3-0.5,0.3-0.9c0-0.4-0.1-0.6-0.3-0.9
		c-0.2-0.3-0.4-0.5-0.7-0.6c-0.3-0.1-0.6-0.2-1-0.2h-1.5c-0.1,0-0.2,0-0.2,0.1c-0.1,0-0.1,0.1-0.1,0.2v5.1c0,0.1,0,0.1,0.1,0.2
		c0.1,0,0.1,0.1,0.2,0.1s0.2,0,0.2-0.1s0.1-0.1,0.1-0.2v-2h1.2c0,0,0.1,0,0.1,0l1.4,2.1c0,0,0.1,0.1,0.1,0.1c0,0,0.1,0,0.2,0
		c0.1,0,0.2,0,0.3-0.1c0.1-0.1,0-0.2,0-0.3L318.2,110.9z M317.4,110.4h-1.2v-2.4h1.2c0.3,0,0.5,0,0.7,0.1c0.2,0.1,0.4,0.2,0.5,0.4
		c0.1,0.2,0.2,0.4,0.2,0.6c0,0.2-0.1,0.4-0.2,0.6s-0.3,0.3-0.5,0.4C317.9,110.4,317.6,110.4,317.4,110.4"/>
	<path class="st1" d="M325.8,108.1c0.1,0,0.2,0,0.2-0.1s0.1-0.1,0.1-0.2c0-0.1,0-0.1-0.1-0.2c-0.1,0-0.1-0.1-0.2-0.1h-3.7
		c-0.1,0-0.2,0-0.2,0.1s-0.1,0.1-0.1,0.2v5.1c0,0.1,0,0.1,0.1,0.2c0.1,0,0.1,0.1,0.2,0.1h3.7c0.1,0,0.2,0,0.2-0.1s0.1-0.1,0.1-0.2
		c0-0.1,0-0.1-0.1-0.2s-0.1-0.1-0.2-0.1h-3.4v-2h2.5c0.1,0,0.2,0,0.2-0.1s0.1-0.1,0.1-0.2c0-0.1,0-0.1-0.1-0.2
		c-0.1,0-0.1-0.1-0.2-0.1h-2.5v-2L325.8,108.1L325.8,108.1z"/>
	<path class="st1" d="M332.6,107.8c0-0.1,0-0.1-0.1-0.2c0,0-0.1-0.1-0.2-0.1c0,0-0.1,0-0.1,0c0,0-0.1,0-0.1,0.1l-2.9,2.7v-2.5
		c0-0.1,0-0.1-0.1-0.2c-0.1-0.1-0.1-0.1-0.2-0.1c-0.1,0-0.2,0-0.2,0.1c-0.1,0.1-0.1,0.1-0.1,0.2v5.1c0,0.1,0,0.1,0.1,0.2
		c0.1,0.1,0.1,0.1,0.2,0.1c0.1,0,0.2,0,0.2-0.1c0.1-0.1,0.1-0.1,0.1-0.2v-1.9l0.7-0.7l2.2,2.7c0.1,0.1,0.1,0.1,0.3,0.1
		c0.1,0,0.1,0,0.2-0.1c0,0,0.1-0.1,0.1-0.2c0-0.1,0-0.1-0.1-0.2l-2.2-2.8l2.2-2C332.6,107.9,332.6,107.9,332.6,107.8"/>
	<path class="st1" d="M338.8,112.7h-3.1v-4.9c0-0.1,0-0.1-0.1-0.2c-0.1-0.1-0.1-0.1-0.2-0.1c-0.1,0-0.2,0-0.2,0.1
		c-0.1,0.1-0.1,0.1-0.1,0.2v5.1c0,0.1,0,0.1,0.1,0.2c0.1,0,0.1,0.1,0.2,0.1h3.4c0.1,0,0.2,0,0.2-0.1c0.1,0,0.1-0.1,0.1-0.2
		c0-0.1,0-0.1-0.1-0.2C338.9,112.7,338.9,112.7,338.8,112.7"/>
	<path class="st1" d="M343.7,107.7c-0.1-0.1-0.2-0.2-0.3-0.2c-0.1,0-0.2,0.1-0.3,0.2l-2.3,5.1c0,0.1,0,0.2,0,0.3
		c0,0.1,0.1,0.1,0.3,0.1c0.1,0,0.1,0,0.2,0c0,0,0.1-0.1,0.1-0.1l0.5-1.2h3.1l0.5,1.2c0,0.1,0.1,0.1,0.1,0.1s0.1,0,0.2,0
		c0.1,0,0.2,0,0.3-0.1s0.1-0.2,0-0.3L343.7,107.7z M342.1,111.4l1.3-2.9l1.3,2.9H342.1z"/>
	<path class="st1" d="M354.2,107.5c-0.1,0-0.2,0-0.3,0.1l-2.5,4.6l-2.5-4.6c-0.1-0.1-0.1-0.1-0.3-0.1c-0.1,0-0.2,0-0.2,0.1
		s-0.1,0.1-0.1,0.2v5.1c0,0.1,0,0.1,0.1,0.2s0.1,0.1,0.2,0.1c0.1,0,0.2,0,0.2-0.1c0.1-0.1,0.1-0.1,0.1-0.2v-4.1l2.2,4
		c0.1,0.1,0.1,0.2,0.3,0.2c0.1,0,0.2,0,0.3-0.1l2.2-4.1v4.1c0,0.1,0,0.1,0.1,0.2s0.1,0.1,0.2,0.1c0.1,0,0.2,0,0.2-0.1
		c0.1-0.1,0.1-0.1,0.1-0.2v-5.1c0-0.1,0-0.1-0.1-0.2C354.3,107.6,354.2,107.5,354.2,107.5"/>
	<path class="st1" d="M361.4,107.5c-0.1,0-0.1,0-0.2,0c0,0-0.1,0.1-0.1,0.1l-2,2.9l-2-2.9c0,0-0.1-0.1-0.1-0.1c0,0-0.1,0-0.2,0
		c-0.1,0-0.1,0-0.2,0.1c0,0-0.1,0.1-0.1,0.2c0,0.1,0,0.1,0.1,0.2l2.2,3.1v1.8c0,0.1,0,0.1,0.1,0.2s0.1,0.1,0.2,0.1
		c0.1,0,0.2,0,0.2-0.1c0.1-0.1,0.1-0.1,0.1-0.2v-1.8l2.2-3.1c0.1-0.1,0.1-0.1,0.1-0.2c0-0.1,0-0.1-0.1-0.2
		C361.5,107.5,361.5,107.5,361.4,107.5"/>
	<path class="st1" d="M372.4,110.2h-6.3c-0.1,0-0.2,0.1-0.2,0.2s0.1,0.2,0.2,0.2h6.3c0.1,0,0.2-0.1,0.2-0.2S372.4,110.2,372.4,110.2
		"/>
	<path class="st1" d="M267.2,110.2h-6.3c-0.1,0-0.2,0.1-0.2,0.2s0.1,0.2,0.2,0.2h6.3c0.1,0,0.2-0.1,0.2-0.2S267.3,110.2,267.2,110.2
		"/>
</g>
<g>
	<path class="st2" d="M656.4,380.4L656.4,380.4c-37.7,24.7-82.1,37.2-127.1,35.9l-29.3-0.9c-66.5-2-118.2-58.4-114.6-124.8l0,0l0,0
		c6.2-56.2,49.8-101,105.7-108.7l69.9-9.7l136.5,46.1c19.1,6.5,37,15.8,53,27.7c25.2,18.7,24.3,56.7-1.9,73.9L656.4,380.4z"/>
	<g>
		<path id="XMLID_611_" class="st3" d="M622.8,361.3l-2,1.1c-0.2,0.1-0.6,0.1-0.8,0l-1.9-1.1c-0.2-0.1-0.3-0.3-0.1-0.5l2-1.1
			c0.2-0.1,0.6-0.1,0.8,0l1.9,1.1C623,361,623,361.2,622.8,361.3z"/>
		<path id="XMLID_610_" class="st3" d="M627.5,364l-2,1.1c-0.2,0.1-0.6,0.1-0.8,0l-1.9-1.1c-0.2-0.1-0.3-0.3-0.1-0.5l2-1.1
			c0.2-0.1,0.6-0.1,0.8,0l1.9,1.1C627.6,363.7,627.7,363.9,627.5,364z"/>
		<path id="XMLID_609_" class="st3" d="M622.6,366.8l-2,1.1c-0.2,0.1-0.6,0.1-0.8,0l-1.9-1.1c-0.2-0.1-0.3-0.3-0.1-0.5l2-1.1
			c0.2-0.1,0.6-0.1,0.8,0l1.9,1.1C622.8,366.5,622.8,366.7,622.6,366.8z"/>
		<path id="XMLID_608_" class="st3" d="M632.1,366.6l-2,1.1c-0.2,0.1-0.6,0.1-0.8,0l-1.9-1.1c-0.2-0.1-0.3-0.3-0.1-0.5l2-1.1
			c0.2-0.1,0.6-0.1,0.8,0l1.9,1.1C632.3,366.3,632.3,366.5,632.1,366.6z"/>
		<path id="XMLID_607_" class="st3" d="M627.2,369.4l-2,1.1c-0.2,0.1-0.6,0.1-0.8,0l-1.9-1.1c-0.2-0.1-0.3-0.3-0.1-0.5l2-1.1
			c0.2-0.1,0.6-0.1,0.8,0l1.9,1.1C627.4,369.1,627.4,369.3,627.2,369.4z"/>
		<path id="XMLID_606_" class="st3" d="M637,369.5l-2,1.1c-0.2,0.1-0.6,0.1-0.8,0l-1.9-1.1c-0.2-0.1-0.3-0.3-0.1-0.5l2-1.1
			c0.2-0.1,0.6-0.1,0.8,0l1.9,1.1C637.1,369.1,637.2,369.3,637,369.5z"/>
		<path id="XMLID_605_" class="st3" d="M632.1,372.3l-2,1.1c-0.2,0.1-0.6,0.1-0.8,0l-1.9-1.1c-0.2-0.1-0.3-0.3-0.1-0.5l2-1.1
			c0.2-0.1,0.6-0.1,0.8,0l1.9,1.1C632.3,371.9,632.3,372.1,632.1,372.3z"/>
		<path id="XMLID_604_" class="st3" d="M641.6,372.1l-2,1.1c-0.2,0.1-0.6,0.1-0.8,0l-1.9-1.1c-0.2-0.1-0.3-0.3-0.1-0.5l2-1.1
			c0.2-0.1,0.6-0.1,0.8,0l1.9,1.1C641.8,371.8,641.8,372,641.6,372.1z"/>
		<path id="XMLID_603_" class="st3" d="M636.7,374.9l-2,1.1c-0.2,0.1-0.6,0.1-0.8,0l-1.9-1.1c-0.2-0.1-0.3-0.3-0.1-0.5l2-1.1
			c0.2-0.1,0.6-0.1,0.8,0l1.9,1.1C636.9,374.6,636.9,374.8,636.7,374.9z"/>
		<path id="XMLID_602_" class="st3" d="M646.2,374.8l-2,1.1c-0.2,0.1-0.6,0.1-0.8,0l-1.9-1.1c-0.2-0.1-0.3-0.3-0.1-0.5l2-1.1
			c0.2-0.1,0.6-0.1,0.8,0l1.9,1.1C646.4,374.5,646.4,374.7,646.2,374.8z"/>
		<path id="XMLID_601_" class="st3" d="M655.9,374.8l-2,1.1c-0.2,0.1-0.6,0.1-0.8,0l-1.9-1.1c-0.2-0.1-0.3-0.3-0.1-0.5l2-1.1
			c0.2-0.1,0.6-0.1,0.8,0l1.9,1.1C656.1,374.5,656.1,374.7,655.9,374.8z"/>
		<path id="XMLID_598_" class="st3" d="M646.2,369.2l-2,1.1c-0.2,0.1-0.6,0.1-0.8,0l-1.9-1.1c-0.2-0.1-0.3-0.3-0.1-0.5l2-1.1
			c0.2-0.1,0.6-0.1,0.8,0l1.9,1.1C646.4,368.9,646.4,369.1,646.2,369.2z"/>
		<path id="XMLID_597_" class="st3" d="M651.1,372l-2,1.1c-0.2,0.1-0.6,0.1-0.8,0l-1.9-1.1c-0.2-0.1-0.3-0.3-0.1-0.5l2-1.1
			c0.2-0.1,0.6-0.1,0.8,0l1.9,1.1C651.3,371.7,651.3,371.9,651.1,372z"/>
		<path id="XMLID_596_" class="st3" d="M656,369.2l-2,1.1c-0.2,0.1-0.6,0.1-0.8,0l-1.9-1.1c-0.2-0.1-0.3-0.3-0.1-0.5l2-1.1
			c0.2-0.1,0.6-0.1,0.8,0l1.9,1.1C656.1,368.9,656.1,369.1,656,369.2z"/>
		<path id="XMLID_530_" class="st3" d="M607.2,385.7l-2,1.1c-0.2,0.1-0.6,0.1-0.8,0l-1.9-1.1c-0.2-0.1-0.3-0.3-0.1-0.5l2-1.1
			c0.2-0.1,0.6-0.1,0.8,0l1.9,1.1C607.3,385.4,607.4,385.6,607.2,385.7z"/>
		<path id="XMLID_529_" class="st3" d="M612,382.9l-2,1.1c-0.2,0.1-0.6,0.1-0.8,0l-1.9-1.1c-0.2-0.1-0.3-0.3-0.1-0.5l2-1.1
			c0.2-0.1,0.6-0.1,0.8,0l1.9,1.1C612.2,382.6,612.2,382.8,612,382.9z"/>
		<path id="XMLID_528_" class="st3" d="M616.9,380.1l-2,1.1c-0.2,0.1-0.6,0.1-0.8,0l-1.9-1.1c-0.2-0.1-0.3-0.3-0.1-0.5l2-1.1
			c0.2-0.1,0.6-0.1,0.8,0l1.9,1.1C617.1,379.8,617.1,380,616.9,380.1z"/>
		<path id="XMLID_523_" class="st3" d="M606.9,391.2l-2,1.1c-0.2,0.1-0.6,0.1-0.8,0l-1.9-1.1c-0.2-0.1-0.3-0.3-0.1-0.5l2-1.1
			c0.2-0.1,0.6-0.1,0.8,0l1.9,1.1C607.1,390.8,607.1,391.1,606.9,391.2z"/>
		<path id="XMLID_522_" class="st3" d="M611.8,388.4l-2,1.1c-0.2,0.1-0.6,0.1-0.8,0l-1.9-1.1c-0.2-0.1-0.3-0.3-0.1-0.5l2-1.1
			c0.2-0.1,0.6-0.1,0.8,0l1.9,1.1C611.9,388,612,388.3,611.8,388.4z"/>
		<path id="XMLID_521_" class="st3" d="M616.6,385.6l-2,1.1c-0.2,0.1-0.6,0.1-0.8,0l-1.9-1.1c-0.2-0.1-0.3-0.3-0.1-0.5l2-1.1
			c0.2-0.1,0.6-0.1,0.8,0l1.9,1.1C616.8,385.2,616.8,385.4,616.6,385.6z"/>
		<path id="XMLID_520_" class="st3" d="M621.5,382.8l-2,1.1c-0.2,0.1-0.6,0.1-0.8,0l-1.9-1.1c-0.2-0.1-0.3-0.3-0.1-0.5l2-1.1
			c0.2-0.1,0.6-0.1,0.8,0l1.9,1.1C621.7,382.4,621.7,382.6,621.5,382.8z"/>
		<polygon id="XMLID_505_" class="st3" points="703.3,322.4 576,395.9 576,395.9 576,295.1 576,295.1 703.3,221.5 703.3,221.5 
			703.3,322.3 		"/>
		<path id="XMLID_502_" class="st3" d="M576,397.2l-1.1-0.6V294.6l0.4-0.3l127.9-74l1.1,0.6v102L576,397.2z M577,295.7v98.5
			l125.3-72.4v-98.5L577,295.7z"/>
		<polygon id="XMLID_501_" class="st4" points="583.3,385 583.3,336.5 584.9,336.5 584.9,382.3 694.8,319.5 694.8,236.7 
			696.4,236.7 696.4,320.4 		"/>
		
			<rect id="XMLID_500_" x="621.5" y="258.6" transform="matrix(-0.8671 0.4981 -0.4981 -0.8671 1354.4193 157.5673)" class="st4" width="69.4" height="1.6"/>
		
			<rect id="XMLID_499_" x="598.8" y="285.3" transform="matrix(-0.8672 0.498 -0.498 -0.8672 1281.484 230.4196)" class="st4" width="22.4" height="1.6"/>
		<polygon id="XMLID_498_" class="st4" points="576,395.9 440.7,317.9 440.7,317.9 440.7,217 440.8,217 576,295.1 576,295.1 
			576,395.9 		"/>
		<path id="XMLID_495_" class="st3" d="M576,397.1l-136.3-78.7v-102l1.1-0.6L577,294.5v102L576,397.1z M441.8,317.3L575,394.2v-98.5
			l-133.2-76.9V317.3z"/>
		<rect id="XMLID_494_" x="447.3" y="230.5" class="st3" width="2.1" height="63.8"/>
		<polygon id="XMLID_493_" class="st1" points="440.8,217 576,295.1 576,295.1 703.3,221.5 703.3,221.5 568.1,143.4 568.1,143.4 
			440.8,217 		"/>
		<path id="XMLID_490_" class="st3" d="M576,296.3l-136.3-78.7v-1.2l128.4-74.2l136.3,78.6l0,1.2L576,296.3z M442.8,217L576,293.9
			l125.3-72.4l-133.2-76.9L442.8,217z"/>
		<polygon id="XMLID_489_" class="st3" points="683.2,222.4 568.1,156 462.6,217 461.5,215.2 568.1,153.6 684.2,220.6 		"/>
		
			<rect id="XMLID_488_" x="618.2" y="243.2" transform="matrix(-0.8694 0.4941 -0.4941 -0.8694 1332.3695 136.2587)" class="st3" width="60" height="2.1"/>
		<path id="XMLID_487_" class="st4" d="M534.3,212.9l49.7,28.7c6.6,3.8,18,3.3,25.6-1.1c7.6-4.4,8.4-11,1.8-14.8L561.7,197
			c-6.6-3.8-18-3.3-25.6,1.1C528.6,202.4,527.7,209.1,534.3,212.9z"/>
		<path id="XMLID_471_" class="st3" d="M542.5,211.2l44.4,25.7c3.9,2.3,10.7,2,15.2-0.6s5-6.6,1.1-8.8l-44.4-25.7
			c-3.9-2.3-10.7-2-15.2,0.6C539.1,205,538.6,208.9,542.5,211.2z"/>
		<rect id="XMLID_470_" x="553.5" y="203.6" class="st4" width="2.1" height="9.6"/>
		<rect id="XMLID_469_" x="566.3" y="209.3" class="st4" width="2.1" height="5.6"/>
		<rect id="XMLID_468_" x="596.8" y="227.3" class="st4" width="2.1" height="7.8"/>
		<g id="XMLID_460_">
			<path id="XMLID_464_" class="st3" d="M653.7,369.2c-3.1-3.8-6.5-3-15.1-4.8c-7.4-1.6-15-1.4-22.3,0.5c-7.2,1.9-11.6,3.2-14.6,6.6
				l-3.8,2l0.1,8l0,0.2c0.2,5.4,4.7,10.4,13.5,14c8.8,3.5,18.5,4,27.7,1.7c13-3.3,19.4-9.9,19.5-16.4v-8L653.7,369.2z"/>
			<path id="XMLID_461_" class="st3" d="M627.8,399.8c-5.8,0-11.5-1.1-16.7-3.1c-8.9-3.6-13.9-8.8-14.2-14.9l0-0.1l-0.1-8.8l4.2-2.2
				c3.2-3.7,8.2-5,15-6.8c7.4-2,15.2-2.2,22.8-0.6c2.4,0.5,4.3,0.8,6.1,1.1c4.4,0.7,7,1.1,9.5,4l5.3,4v8.6
				c-0.2,7.7-7.7,14.2-20.3,17.4C635.7,399.3,631.7,399.8,627.8,399.8z M598.9,374.1l0.1,7.5c0.2,5.3,4.8,9.9,12.9,13.1
				c8.3,3.3,17.9,3.9,27.1,1.6c11.4-2.9,18.6-8.8,18.7-15.5v-7.5l-4.8-3.6c-2-2.4-4.1-2.8-8.3-3.4c-1.8-0.3-3.7-0.6-6.2-1.1
				c-7.2-1.5-14.8-1.4-21.8,0.5c-7.4,2-11.4,3.2-14.1,6.3l-0.3,0.2L598.9,374.1z"/>
		</g>
		<g id="XMLID_455_">
			
				<ellipse id="XMLID_459_" transform="matrix(-1.030048e-02 -0.9999 0.9999 -1.030048e-02 261.6189 1005.254)" class="st1" cx="628.3" cy="373.2" rx="17.6" ry="30.4"/>
			<path id="XMLID_456_" class="st3" d="M627.9,391.8c-7.8,0-15.5-1.7-21.5-5c-6.1-3.4-9.5-8.1-9.6-13.2c0-5.1,3.2-9.8,9.3-13.4
				c12.1-7.1,31.8-7.3,44-0.5c6.1,3.4,9.5,8.1,9.6,13.2c0,5.1-3.2,9.8-9.3,13.4C644.3,389.9,636.1,391.8,627.9,391.8z M628.7,356.7
				c-7.8,0-15.6,1.8-21.5,5.2c-5.4,3.2-8.3,7.3-8.3,11.6c0,4.3,3.1,8.4,8.5,11.4c11.6,6.6,30.5,6.4,42-0.4c5.4-3.2,8.3-7.3,8.3-11.6
				c0-4.3-3.1-8.4-8.5-11.4C643.5,358.3,636.1,356.7,628.7,356.7z"/>
		</g>
		<g id="XMLID_450_">
			<path id="XMLID_454_" class="st3" d="M643.2,365.5c-8.3-4.1-21.8-4-30,0.3c-8.2,4.3-8.2,11,0.2,15.1c8.3,4.1,21.8,4,30-0.3
				C651.7,376.4,651.6,369.6,643.2,365.5z"/>
			<path id="XMLID_451_" class="st3" d="M628,384.9c-5.5,0-10.9-1-15.1-3.1c-4.4-2.2-6.8-5.2-6.9-8.4c0-3.3,2.3-6.3,6.7-8.6
				c8.5-4.4,22.4-4.5,31-0.3c4.4,2.2,6.8,5.2,6.9,8.4c0,3.3-2.3,6.3-6.7,8.6C639.5,383.8,633.7,384.9,628,384.9z M628.6,363.5
				c-5.4,0-10.8,1.1-14.9,3.2c-3.6,1.9-5.6,4.3-5.6,6.7c0,2.4,2.1,4.8,5.7,6.6c8.1,4,21.1,3.8,29.1-0.3c3.6-1.9,5.6-4.3,5.6-6.7
				s-2.1-4.8-5.7-6.6C638.9,364.5,633.8,363.5,628.6,363.5z"/>
		</g>
		<g id="XMLID_445_">
			<path id="XMLID_449_" class="st4" d="M643.3,370c-8.3-4.1-21.8-4-30,0.3c-3,1.5-4.9,3.4-5.7,5.4c0.8,1.9,2.8,3.8,5.8,5.3
				c8.3,4.1,21.8,4,30-0.3c3-1.5,4.9-3.4,5.7-5.4C648.2,373.3,646.3,371.5,643.3,370z"/>
			<path id="XMLID_446_" class="st3" d="M628,384.9c-5.5,0-10.9-1-15.1-3.1c-3.1-1.5-5.3-3.5-6.3-5.8l-0.2-0.4l0.2-0.4
				c0.9-2.3,3.1-4.3,6.2-5.9c8.5-4.4,22.4-4.5,31-0.3c3.1,1.5,5.3,3.5,6.3,5.8l0.2,0.4l-0.2,0.4c-0.9,2.3-3.1,4.3-6.2,5.9
				C639.5,383.8,633.7,384.9,628,384.9z M608.7,375.7c0.9,1.6,2.6,3.1,5.1,4.3c8.1,4,21.1,3.8,29.1-0.3c2.4-1.3,4.2-2.8,5-4.4
				c-0.9-1.6-2.6-3.1-5.1-4.3c-8.1-4-21.1-3.8-29.1,0.3C611.3,372.5,609.6,374,608.7,375.7z"/>
		</g>
		
			<rect id="XMLID_444_" x="648.4" y="386.2" transform="matrix(-0.9999 1.040048e-02 -1.040048e-02 -0.9999 1302.3936 772.1799)" class="st4" width="1.6" height="6.6"/>
		
			<rect id="XMLID_443_" x="630.2" y="362.7" transform="matrix(-0.9999 1.020049e-02 -1.020049e-02 -0.9999 1265.7544 723.2114)" class="st4" width="1.6" height="4.3"/>
		<g id="XMLID_438_">
			<path id="XMLID_442_" class="st3" d="M612.6,371.1l0,3.6l5,1.8l2.3-3.8l0.1,0l17.8,10c1.5-0.4,3-0.9,4.3-1.5l1.9-1.1l0-3.6
				l-23.5-9.7L612.6,371.1z"/>
			<path id="XMLID_439_" class="st3" d="M637.7,383.5l-17.4-9.8l-2.3,3.8l-6.2-2.2l0-4.7l8.6-4.7l24.4,10l0,4.6l-2.3,1.4
				c-1.4,0.6-2.9,1.1-4.5,1.6L637.7,383.5z M620,371.8l0.5,0.2l17.5,9.9c1.4-0.4,2.7-0.8,3.9-1.4l1.4-0.8l0-2.6l-22.7-9.3l-7.1,3.9
				l0,2.6l3.9,1.4l2.1-3.4L620,371.8z"/>
		</g>
		<g id="XMLID_433_">
			<polygon id="XMLID_437_" class="st1" points="620,369.1 620,369.1 617.7,372.9 612.6,371.1 615.9,365.8 620.4,363.2 644,376.5 
				638.7,379.6 			"/>
			<path id="XMLID_434_" class="st3" d="M638.7,380.5l-18.4-10.4l-2.3,3.8l-6.6-2.4l3.9-6.3l5-3l24.4,13.8v1L638.7,380.5z
				 M620,368.2l0.5,0.2l18.3,10.3l3.7-2.2l-22-12.4l-3.9,2.3l-2.7,4.3l3.5,1.3l2.1-3.4L620,368.2z"/>
		</g>
		
			<rect id="XMLID_432_" x="641" y="389.3" transform="matrix(-0.9999 1.040048e-02 -1.040048e-02 -0.9999 1287.5635 778.5172)" class="st4" width="1.6" height="6.6"/>
		
			<rect id="XMLID_431_" x="605.7" y="386.4" transform="matrix(-0.9999 1.010050e-02 -1.010050e-02 -0.9999 1216.9073 773.3607)" class="st4" width="1.6" height="6.6"/>
		<g id="XMLID_426_">
			<path id="XMLID_430_" class="st3" d="M662.4,342.1c-3.1-3.8-6.5-3-15.1-4.8c-7.4-1.6-15-1.4-22.3,0.5c-7.2,1.9-11.6,3.2-14.6,6.6
				l-3.8,2l0.1,8l0,0.2c0.2,5.4,4.7,10.4,13.5,14c8.8,3.5,18.5,4,27.7,1.7c13-3.3,19.4-9.9,19.5-16.4v-8L662.4,342.1z"/>
			<path id="XMLID_427_" class="st3" d="M636.5,372.7c-5.8,0-11.5-1.1-16.7-3.1c-8.9-3.6-13.9-8.8-14.2-14.9l0-0.1l-0.1-8.8l4.2-2.2
				c3.2-3.7,8.2-5,15-6.8c7.4-2,15.2-2.2,22.8-0.6c2.4,0.5,4.3,0.8,6.1,1.1c4.4,0.7,7,1.1,9.5,4l5.3,4v8.6
				c-0.2,7.7-7.7,14.2-20.3,17.4C644.3,372.2,640.4,372.7,636.5,372.7z M607.6,347l0.1,7.5c0.2,5.3,4.8,9.9,12.9,13.1
				c8.3,3.3,17.9,3.9,27.1,1.6c11.4-2.9,18.6-8.8,18.7-15.5v-7.5l-4.8-3.6c-2-2.4-4.1-2.8-8.3-3.4c-1.8-0.3-3.7-0.6-6.2-1.1
				c-7.2-1.5-14.8-1.4-21.8,0.5c-7.4,2-11.4,3.2-14.1,6.3l-0.3,0.2L607.6,347z"/>
		</g>
		<g id="XMLID_421_">
			<path id="XMLID_425_" class="st1" d="M658.4,333.5c11.9,6.7,12.1,17.8,0.3,24.8c-11.8,7-31.1,7.2-43,0.4s-12.1-17.8-0.3-24.8
				C627.2,326.9,646.4,326.7,658.4,333.5z"/>
			<path id="XMLID_422_" class="st3" d="M636.6,364.7c-7.8,0-15.5-1.7-21.5-5c-6.1-3.4-9.5-8.1-9.6-13.2c0-5.1,3.2-9.8,9.3-13.4
				c12.1-7.1,31.8-7.3,44-0.5c6.1,3.4,9.5,8.1,9.6,13.2c0,5.1-3.2,9.8-9.3,13.4C653,362.8,644.8,364.7,636.6,364.7z M637.4,329.6
				c-7.8,0-15.6,1.8-21.5,5.2c-5.4,3.2-8.3,7.3-8.3,11.6c0,4.3,3.1,8.4,8.5,11.4c11.6,6.6,30.5,6.4,42-0.4c5.4-3.2,8.3-7.3,8.3-11.6
				c0-4.3-3.1-8.4-8.5-11.4C652.2,331.2,644.8,329.6,637.4,329.6z"/>
		</g>
		<g id="XMLID_416_">
			<path id="XMLID_420_" class="st3" d="M651.9,338.4c-8.3-4.1-21.8-4-30,0.3c-8.2,4.3-8.2,11,0.2,15.1c8.3,4.1,21.8,4,30-0.3
				C660.3,349.3,660.3,342.5,651.9,338.4z"/>
			<path id="XMLID_417_" class="st3" d="M636.7,357.8c-5.5,0-10.9-1-15.1-3.1c-4.4-2.2-6.8-5.2-6.9-8.4c0-3.3,2.3-6.3,6.7-8.6
				c8.5-4.4,22.4-4.5,31-0.3c4.4,2.2,6.8,5.2,6.9,8.4c0,3.3-2.3,6.3-6.7,8.6C648.2,356.7,642.4,357.8,636.7,357.8z M637.3,336.4
				c-5.4,0-10.8,1.1-14.9,3.2c-3.6,1.9-5.6,4.3-5.6,6.7c0,2.4,2.1,4.8,5.7,6.6c8.1,4,21.1,3.8,29.1-0.3c3.6-1.9,5.6-4.3,5.6-6.7
				c0-2.4-2.1-4.8-5.7-6.6C647.5,337.4,642.4,336.4,637.3,336.4z"/>
		</g>
		<g id="XMLID_411_">
			<path id="XMLID_415_" class="st4" d="M652,342.9c-8.3-4.1-21.8-4-30,0.3c-3,1.5-4.9,3.4-5.7,5.4c0.8,1.9,2.8,3.8,5.8,5.3
				c8.3,4.1,21.8,4,30-0.3c3-1.5,4.9-3.4,5.7-5.4C656.9,346.2,655,344.4,652,342.9z"/>
			<path id="XMLID_412_" class="st3" d="M636.7,357.8c-5.5,0-10.9-1-15.1-3.1c-3.1-1.5-5.3-3.5-6.3-5.8l-0.2-0.4l0.2-0.4
				c0.9-2.2,3.1-4.3,6.1-5.9c8.5-4.4,22.4-4.5,31-0.3c3.1,1.5,5.3,3.5,6.3,5.8l0.2,0.4l-0.2,0.4c-0.9,2.3-3.1,4.3-6.1,5.9
				C648.2,356.7,642.4,357.8,636.7,357.8z M617.4,348.6c0.9,1.6,2.6,3.1,5.1,4.3c8.1,4,21.1,3.8,29.1-0.3c2.4-1.3,4.2-2.8,5-4.4
				c-0.9-1.6-2.6-3.1-5.1-4.3c-8.1-4-21.1-3.8-29.1,0.3C620,345.4,618.3,346.9,617.4,348.6z"/>
		</g>
		
			<rect id="XMLID_410_" x="657.1" y="359.1" transform="matrix(-0.9999 1.010050e-02 -1.010050e-02 -0.9999 1319.3464 718.1223)" class="st4" width="1.6" height="6.6"/>
		
			<rect id="XMLID_409_" x="638.9" y="335.6" transform="matrix(-0.9999 1.060046e-02 -1.060046e-02 -0.9999 1282.9567 668.7057)" class="st4" width="1.6" height="4.3"/>
		<g id="XMLID_404_">
			<path id="XMLID_408_" class="st3" d="M621.3,344l0,3.6l5,1.8l2.3-3.8l0.1,0l17.8,10c1.5-0.4,3-0.9,4.3-1.5l1.9-1.1l0-3.6
				l-23.5-9.7L621.3,344z"/>
			<path id="XMLID_405_" class="st3" d="M646.4,356.4l-17.4-9.8l-2.3,3.8l-6.2-2.2l0-4.7l8.6-4.7l24.4,10l0,4.6l-2.3,1.4
				c-1.4,0.6-2.9,1.1-4.5,1.6L646.4,356.4z M628.7,344.7l0.5,0.2l17.5,9.9c1.4-0.4,2.7-0.8,3.9-1.4l1.4-0.8l0-2.6l-22.7-9.3
				l-7.1,3.9l0,2.6l3.9,1.4l2.1-3.4L628.7,344.7z"/>
		</g>
		<g id="XMLID_399_">
			<polygon id="XMLID_403_" class="st1" points="628.7,342 628.7,342 626.4,345.8 621.3,344 624.6,338.7 629.1,336.1 652.7,349.4 
				647.4,352.5 			"/>
			<path id="XMLID_400_" class="st3" d="M647.4,353.4L629,343l-2.3,3.8l-6.6-2.4l3.9-6.3l5-3l24.3,13.7l0.2,1l-0.6,0.3L647.4,353.4z
				 M628.6,341.1l0.5,0.2l18.3,10.3l3.7-2.2l-22-12.4l-3.9,2.3l-2.7,4.3l3.5,1.3l2.1-3.4L628.6,341.1z"/>
		</g>
		
			<rect id="XMLID_398_" x="649.7" y="362.2" transform="matrix(-0.9999 1.040048e-02 -1.040048e-02 -0.9999 1304.6945 724.1943)" class="st4" width="1.6" height="6.6"/>
		
			<rect id="XMLID_397_" x="614.4" y="359.3" transform="matrix(-0.9999 1.040048e-02 -1.040048e-02 -0.9999 1234.1786 718.857)" class="st4" width="1.6" height="6.6"/>
		<path id="XMLID_396_" class="st4" d="M595.6,88.1c-0.1-0.7-0.2-1.4-0.2-2.1l6.8-6.4c0.2-0.2,0.2-0.5-0.1-0.6L584.8,69
			c-5.3-2.7-12.2-2.6-19.8,0.8c-20.9,9.4-38.6,38.5-38.6,62.1c0,10.9,3.8,18.6,9.9,22.3c0,0,15,8.6,17.5,10.1c0.2,0.1,0.5,0,0.5-0.2
			l3.5-7.2l-3.3-1.8c2.1-0.8,4.3-1.8,6.6-3.1c0.5-0.3,1.1-0.6,1.6-1c1.8,3.5,1.8,9.6,1.2,15.5c-0.1,1.3,0.3,2,1,2.1l16.3,9.4
			c0.2,0.1,0.5,0,0.6-0.2l1.7-4.5l-0.8-19.4h-8.8l16.2-36.9C594.2,107.4,596.3,97.2,595.6,88.1z"/>
		<path id="XMLID_393_" class="st3" d="M581.3,179.1c-0.2,0-0.5-0.1-0.7-0.2l-16.2-9.3c-0.6-0.2-1.8-0.9-1.6-3.2
			c0.6-6.2,0.4-11-0.7-13.9c-0.2,0.1-0.4,0.3-0.6,0.4c-1.5,0.9-3.1,1.7-4.7,2.3l2.2,1.2l-3.9,8.1c-0.2,0.4-0.5,0.6-0.9,0.8
			c-0.4,0.1-0.8,0.1-1.1-0.1c-1.9-1.1-17.6-10.1-17.6-10.1c-6.7-4-10.3-12.3-10.3-23.2c0-24.2,18.3-53.6,39.2-63.1
			c7.6-3.4,15-3.7,20.8-0.8c0,0,0.9,0.5,1.3,0.8l16,9.2c0.4,0.2,0.7,0.6,0.7,1.1c0.1,0.5-0.1,0.9-0.4,1.2l-6.4,6.1
			c0.1,0.5,0.1,1.1,0.2,1.6c0.8,8.9-1.2,19.1-5.6,29.4l-15.6,35.5h8.2l0.8,20.6l-1.8,4.7c-0.2,0.4-0.5,0.7-0.9,0.8
			C581.7,179.1,581.5,179.1,581.3,179.1z M563.1,149.5l0.5,1c1.6,3.2,2,8.6,1.3,16.1c0,0.5,0,1,0.2,1l0.2,0.1l15.6,9l1.4-3.6
			l-0.7-18.2h-9.4l16.9-38.4c4.3-10,6.2-19.8,5.4-28.5c-0.1-0.7-0.2-1.4-0.2-2.1l-0.1-0.5l6.6-6.2l-16.5-9.5
			c-5.2-2.7-11.8-2.4-18.9,0.8c-20.2,9.1-38,37.7-38,61.2c0,10.1,3.3,17.7,9.4,21.4c0.3,0.2,13.2,7.6,16.9,9.7l2.8-5.7l-4.4-2.5
			l2.2-0.8c2.1-0.8,4.3-1.8,6.4-3c0.5-0.3,1.1-0.6,1.6-1L563.1,149.5z"/>
		<path id="XMLID_392_" class="st1" d="M589.1,119.4l1-2.2c4.1-9.7,6.3-19.8,5.5-29c-0.1-0.7-0.2-1.4-0.2-2.1l6.8-6.4
			c0.2-0.2,0.2-0.5-0.1-0.6l-17.3-9.9c-5.3-2.7-12.2-2.6-19.8,0.8c-9.1,4.1-17.6,11.9-24.2,21.3L589.1,119.4z"/>
		<path id="XMLID_389_" class="st3" d="M589.6,120.8l-50.4-29.3l0.7-0.9c7.1-10,15.8-17.7,24.7-21.7c7.6-3.4,15-3.7,20.8-0.8
			c0,0,0.9,0.5,1.3,0.8l16,9.2c0.4,0.2,0.7,0.6,0.7,1.1c0.1,0.5-0.1,0.9-0.4,1.2l-6.4,6.1c0.1,0.5,0.1,1.1,0.2,1.6
			c0.8,8.9-1.2,19.1-5.6,29.4L589.6,120.8z M542.2,90.9l46.4,27l0.5-1.2c4.3-10,6.2-19.8,5.4-28.5c-0.1-0.7-0.2-1.4-0.2-2.1
			l-0.1-0.5l6.6-6.2L584.3,70c-5.2-2.7-11.8-2.4-18.9,0.8C557.1,74.6,549,81.7,542.2,90.9z"/>
		<path id="XMLID_388_" class="st3" d="M606.9,126.7c4.1-9.7,6.3-19.8,5.5-29c-1.5-17.8-14.4-25.6-30.6-18.3
			c-20.9,9.4-38.6,38.5-38.6,62.1c0,22.1,15.5,31.1,34.7,20c0.5-0.3,1.1-0.6,1.6-1c1.8,3.5,1.8,9.6,1.2,15.5
			c-0.3,3.3,3.2,2.7,4.8-0.7L606.9,126.7z"/>
		<path id="XMLID_385_" class="st3" d="M582.1,179.4c-0.2,0-0.4,0-0.6-0.1c-1-0.3-2-1.3-1.8-3.3c0.6-6.2,0.4-11-0.7-13.9
			c-0.2,0.1-0.4,0.3-0.6,0.4c-9.6,5.5-18.7,6.4-25.6,2.4c-6.9-4-10.7-12.3-10.7-23.4c0-24.2,18.3-53.6,39.2-63.1
			c8.1-3.7,15.8-3.8,21.7-0.3c6,3.5,9.7,10.4,10.4,19.4c0.8,8.9-1.2,19.1-5.6,29.4l-21.4,48.7C585.5,178,583.7,179.4,582.1,179.4z
			 M579.9,159.2l0.5,1c1.6,3.2,2,8.6,1.3,16.1c0,0.5,0,1,0.2,1c0.5,0.1,1.8-0.5,2.5-2.3l21.4-48.7c4.3-10,6.2-19.9,5.4-28.5
			c-0.7-8.3-4.1-14.7-9.4-17.8c-5.3-3.1-12.3-3-19.8,0.4c-20.2,9.1-38,37.7-38,61.2c0,10.3,3.4,18,9.6,21.6
			c6.2,3.6,14.6,2.7,23.5-2.4c0.5-0.3,1.1-0.6,1.6-1L579.9,159.2z"/>
		<path id="XMLID_384_" class="st4" d="M526.8,136.6l16.8,9.7L526.8,136.6z"/>
		
			<rect id="XMLID_383_" x="534.1" y="131.7" transform="matrix(-0.4986 0.8668 -0.8668 -0.4986 924.5975 -251.9924)" class="st3" width="2.1" height="19.4"/>
		<path id="XMLID_382_" class="st4" d="M566.2,69.4l16.8,9.7L566.2,69.4z"/>
		
			<rect id="XMLID_381_" x="573.6" y="64.6" transform="matrix(-0.4986 0.8668 -0.8668 -0.4986 925.5605 -386.7312)" class="st3" width="2.1" height="19.4"/>
		<path id="XMLID_377_" class="st4" d="M588,122.8c0,2.3-0.7,4.6-2.2,6.9c-1.4,2.2-3.5,4.3-6.1,6.1v4.5l-2.6,1.5v-4.4
			c-3.1,1.7-5.8,2.6-8.1,2.8v-5.8c1.1,0,2.4-0.2,4-0.6c1.5-0.4,2.9-0.9,4.1-1.5v-6.8l-1.3,0.2c-2.5,0.3-4.3,0.1-5.3-0.6
			c-1-0.7-1.6-2.1-1.6-4.1c0-2.1,0.7-4.3,2.1-6.5c1.4-2.2,3.4-4.2,6-5.9v-3.4l2.6-1.5v3.3c2.9-1.5,5.5-2.4,7.8-2.5l-1.8,6.1
			c-2,0.2-4,0.8-6.1,1.8v6.5c2.5-0.3,4.2-0.4,5.3-0.2c1,0.2,1.8,0.6,2.3,1.3C587.8,120.6,588,121.5,588,122.8z M574.7,117.6
			c0,0.6,0.2,1.1,0.6,1.3s1,0.3,1.9,0.2v-5.1C575.5,115.1,574.7,116.3,574.7,117.6z M582.3,126.4c0-0.6-0.2-1-0.6-1.2
			c-0.4-0.2-1.1-0.2-1.9-0.2v5.4C581.4,129.2,582.3,127.8,582.3,126.4z"/>
		<path id="XMLID_374_" class="st4" d="M578.5,149.9c-13,7.5-23.6,1.4-23.6-13.6c0-15,10.6-33.3,23.6-40.9
			c13-7.5,23.6-1.4,23.6,13.6C602.1,124,591.5,142.3,578.5,149.9z M578.5,98.2c-11.7,6.7-21.2,23.2-21.2,36.7s9.5,19,21.2,12.2
			c11.7-6.7,21.2-23.2,21.2-36.7C599.7,96.9,590.2,91.4,578.5,98.2z"/>
		<path id="XMLID_373_" class="st3" d="M520.9,174.5c-3.1-3.8-6.5-3-15.1-4.8c-7.4-1.6-15-1.4-22.3,0.5c-7.2,1.9-11.6,3.2-14.6,6.6
			l-3.8,2l0.1,8l0,0.2c0.2,5.4,4.7,10.4,13.5,14c8.8,3.5,18.5,4,27.7,1.7c13-3.3,19.4-9.9,19.5-16.4v-8L520.9,174.5z"/>
		<path id="XMLID_370_" class="st3" d="M495,205.2c-5.8,0-11.5-1.1-16.7-3.1c-8.9-3.6-13.9-8.8-14.2-14.9l0-0.1l-0.1-8.8l4.2-2.2
			c3.2-3.7,8.2-5,15-6.8c7.4-2,15.2-2.2,22.8-0.6c2.4,0.5,4.3,0.8,6.1,1.1c4.4,0.7,7,1.1,9.5,4l5.3,4v8.6
			c-0.2,7.7-7.7,14.2-20.3,17.4C502.8,204.7,498.9,205.2,495,205.2z M466.1,179.5l0.1,7.5c0.2,5.3,4.8,9.9,12.9,13.1
			c8.3,3.3,17.9,3.9,27.1,1.6c11.4-2.9,18.6-8.8,18.7-15.5v-7.5l-4.8-3.6c-2-2.4-4.1-2.8-8.3-3.4c-1.8-0.3-3.7-0.6-6.2-1.1
			c-7.2-1.5-14.8-1.4-21.8,0.5c-7.4,2-11.4,3.2-14.1,6.3l-0.3,0.2L466.1,179.5z"/>
		<path id="XMLID_369_" class="st1" d="M516.9,165.9c11.9,6.7,12.1,17.8,0.3,24.8c-11.8,7-31.1,7.2-43,0.4
			c-11.9-6.7-12.1-17.8-0.3-24.8C485.7,159.4,504.9,159.2,516.9,165.9z"/>
		<path id="XMLID_366_" class="st3" d="M495.1,197.2c-7.8,0-15.5-1.7-21.5-5c-6.1-3.4-9.5-8.1-9.6-13.2c-0.1-5.1,3.2-9.8,9.3-13.4
			c12.1-7.1,31.8-7.3,44-0.5c6.1,3.4,9.5,8.1,9.6,13.2c0.1,5.1-3.2,9.8-9.3,13.4C511.5,195.3,503.3,197.2,495.1,197.2z M495.9,162.1
			c-7.8,0-15.6,1.8-21.5,5.2c-5.4,3.2-8.3,7.3-8.3,11.6c0,4.3,3.1,8.4,8.5,11.4c11.6,6.6,30.5,6.4,42-0.4c5.4-3.2,8.3-7.3,8.3-11.6
			c0-4.3-3.1-8.4-8.5-11.4C510.7,163.7,503.3,162.1,495.9,162.1z"/>
		<path id="XMLID_365_" class="st3" d="M510.4,170.9c-8.3-4.1-21.8-4-30,0.3c-8.2,4.3-8.2,11,0.2,15.1c8.3,4.1,21.8,4,30-0.3
			C518.8,181.7,518.8,175,510.4,170.9z"/>
		<path id="XMLID_362_" class="st3" d="M495.2,190.3c-5.5,0-10.9-1-15.1-3.1c-4.4-2.2-6.8-5.2-6.9-8.4c0-3.3,2.3-6.3,6.7-8.6
			c8.5-4.4,22.4-4.5,31-0.3c4.4,2.2,6.8,5.2,6.9,8.4s-2.3,6.3-6.7,8.6C506.7,189.2,500.9,190.3,495.2,190.3z M495.8,168.9
			c-5.4,0-10.8,1.1-14.9,3.2c-3.6,1.9-5.6,4.3-5.6,6.7s2.1,4.8,5.7,6.6c8.1,4,21.1,3.8,29.1-0.3c3.6-1.9,5.6-4.3,5.6-6.7
			s-2.1-4.8-5.7-6.6C506.1,169.9,501,168.9,495.8,168.9z"/>
		<path id="XMLID_361_" class="st4" d="M510.5,175.4c-8.3-4.1-21.8-4-30,0.3c-3,1.5-4.9,3.4-5.7,5.4c0.8,1.9,2.8,3.8,5.8,5.3
			c8.3,4.1,21.8,4,30-0.3c3-1.5,4.9-3.4,5.7-5.4C515.4,178.7,513.5,176.9,510.5,175.4z"/>
		<path id="XMLID_358_" class="st3" d="M495.2,190.3c-5.5,0-10.9-1-15.1-3.1c-3.1-1.5-5.3-3.5-6.3-5.8l-0.2-0.4l0.2-0.4
			c0.9-2.3,3.1-4.3,6.1-5.9c8.5-4.4,22.4-4.5,31-0.3c3.1,1.5,5.3,3.5,6.3,5.8l0.2,0.4l-0.2,0.4c-0.9,2.3-3.1,4.3-6.1,5.9
			C506.7,189.2,500.9,190.3,495.2,190.3z M475.9,181.1c0.9,1.6,2.6,3.1,5.1,4.3c8.1,4,21.1,3.8,29.1-0.3c2.4-1.3,4.2-2.8,5-4.4
			c-0.9-1.6-2.6-3.1-5.1-4.3c-8.1-4-21.1-3.8-29.1,0.3C478.5,177.9,476.8,179.4,475.9,181.1z"/>
		
			<rect id="XMLID_357_" x="515.6" y="191.6" transform="matrix(-0.9999 1.010050e-02 -1.010050e-02 -0.9999 1034.6891 384.5326)" class="st4" width="1.6" height="6.6"/>
		
			<rect id="XMLID_356_" x="497.4" y="168.1" transform="matrix(-0.9999 1.020049e-02 -1.020049e-02 -0.9999 998.1935 335.3373)" class="st4" width="1.6" height="4.3"/>
		<path id="XMLID_355_" class="st3" d="M479.8,176.5l0,3.6l5,1.8l2.3-3.8l0.1,0l17.8,10c1.5-0.4,3-0.9,4.3-1.5l1.9-1.1l0-3.6
			l-23.5-9.7L479.8,176.5z"/>
		<path id="XMLID_352_" class="st3" d="M504.9,188.9l-17.4-9.8l-2.3,3.8l-6.2-2.2l0-4.6l8.6-4.7l24.4,10l0,4.6l-2.3,1.4
			c-1.4,0.6-2.9,1.1-4.5,1.6L504.9,188.9z M487.2,177.2l0.5,0.2l17.5,9.9c1.4-0.4,2.7-0.8,3.9-1.4l1.4-0.8l0-2.6l-22.7-9.3l-7.1,3.9
			l0,2.6l3.9,1.4l2.1-3.4L487.2,177.2z"/>
		<polygon id="XMLID_351_" class="st1" points="487.2,174.4 487.2,174.5 484.9,178.3 479.8,176.5 483.1,171.2 487.6,168.6 
			511.2,181.8 505.9,185 		"/>
		<path id="XMLID_348_" class="st3" d="M505.9,185.9l-18.4-10.4l-2.3,3.8l-6.6-2.4l3.9-6.3l5-3l24.4,13.8v1L505.9,185.9z
			 M487.2,173.6l0.5,0.2l18.3,10.3l3.7-2.2l-22-12.4l-3.9,2.3l-2.7,4.3l3.5,1.3l2.1-3.4L487.2,173.6z"/>
		
			<rect id="XMLID_347_" x="508.2" y="194.7" transform="matrix(-0.9999 1.040048e-02 -1.040048e-02 -0.9999 1019.9637 390.6929)" class="st4" width="1.6" height="6.6"/>
		
			<rect id="XMLID_346_" x="472.9" y="191.8" transform="matrix(-0.9999 1.040048e-02 -1.040048e-02 -0.9999 949.4704 385.3091)" class="st4" width="1.6" height="6.6"/>
		<path id="XMLID_345_" class="st3" d="M639.7,198.5c-3.1-3.8-6.5-3-15.1-4.8c-7.4-1.6-15-1.4-22.3,0.5c-7.2,1.9-11.6,3.2-14.6,6.6
			l-3.8,2l0.1,8l0,0.2c0.2,5.4,4.7,10.4,13.5,14c8.8,3.5,18.5,4,27.7,1.7c13-3.3,19.4-9.9,19.5-16.4v-8L639.7,198.5z"/>
		<path id="XMLID_342_" class="st3" d="M613.8,229.2c-5.8,0-11.5-1.1-16.7-3.1c-8.9-3.6-13.9-8.8-14.2-14.9l0-0.1l-0.1-8.8l4.2-2.2
			c3.2-3.7,8.2-5,15-6.8c7.4-2,15.2-2.2,22.8-0.6c2.4,0.5,4.3,0.8,6.1,1.1c4.4,0.7,7,1.1,9.5,4l5.3,4v8.6
			c-0.2,7.7-7.7,14.2-20.3,17.4C621.6,228.7,617.6,229.2,613.8,229.2z M584.9,203.5l0.1,7.5c0.2,5.3,4.8,9.9,12.9,13.1
			c8.3,3.3,17.9,3.9,27.1,1.6c11.4-2.9,18.6-8.8,18.7-15.5v-7.5l-4.8-3.6c-2-2.4-4.1-2.8-8.3-3.4c-1.8-0.3-3.7-0.6-6.2-1.1
			c-7.2-1.5-14.8-1.4-21.8,0.5c-7.4,2-11.4,3.2-14.1,6.3l-0.3,0.2L584.9,203.5z"/>
		<path id="XMLID_341_" class="st1" d="M635.6,189.9c11.9,6.7,12.1,17.8,0.3,24.8c-11.8,7-31.1,7.2-43,0.4
			c-11.9-6.7-12.1-17.8-0.3-24.8C604.4,183.4,623.7,183.2,635.6,189.9z"/>
		<path id="XMLID_338_" class="st3" d="M613.9,221.1c-7.8,0-15.5-1.7-21.5-5c-6.1-3.4-9.5-8.1-9.6-13.2c0-5.1,3.2-9.8,9.3-13.4
			c12.1-7.1,31.8-7.3,44-0.5c6.1,3.4,9.5,8.1,9.6,13.2c0,5.1-3.2,9.8-9.3,13.4C630.2,219.3,622,221.1,613.9,221.1z M614.6,186
			c-7.8,0-15.6,1.8-21.5,5.2c-5.4,3.2-8.3,7.3-8.3,11.6c0,4.3,3.1,8.4,8.5,11.4c11.6,6.6,30.5,6.4,42-0.4c5.4-3.2,8.3-7.3,8.3-11.6
			c0-4.3-3.1-8.4-8.5-11.4C629.4,187.6,622,186,614.6,186z"/>
		<path id="XMLID_337_" class="st3" d="M629.2,194.8c-8.3-4.1-21.8-4-30,0.3c-8.2,4.3-8.2,11,0.2,15.1c8.3,4.1,21.8,4,30-0.3
			C637.6,205.7,637.5,198.9,629.2,194.8z"/>
		<path id="XMLID_334_" class="st3" d="M613.9,214.3c-5.5,0-10.9-1-15.1-3.1c-4.4-2.2-6.8-5.2-6.9-8.4c0-3.3,2.3-6.3,6.7-8.6
			c8.5-4.4,22.4-4.5,31-0.3c4.4,2.2,6.8,5.2,6.9,8.4s-2.3,6.3-6.7,8.6C625.4,213.2,619.7,214.3,613.9,214.3z M614.6,192.9
			c-5.4,0-10.8,1.1-14.9,3.2c-3.6,1.9-5.6,4.3-5.6,6.7c0,2.4,2.1,4.8,5.7,6.6c8.1,4,21.1,3.8,29.1-0.3c3.6-1.9,5.6-4.3,5.6-6.7
			c0-2.4-2.1-4.8-5.7-6.6C624.8,193.8,619.7,192.9,614.6,192.9z"/>
		<path id="XMLID_333_" class="st4" d="M629.2,199.4c-8.3-4.1-21.8-4-30,0.3c-3,1.5-4.9,3.4-5.7,5.4c0.8,1.9,2.8,3.8,5.8,5.3
			c8.3,4.1,21.8,4,30-0.3c3-1.5,4.9-3.4,5.7-5.4C634.1,202.7,632.2,200.8,629.2,199.4z"/>
		<path id="XMLID_330_" class="st3" d="M613.9,214.3c-5.5,0-10.9-1-15.1-3.1c-3.1-1.5-5.3-3.5-6.3-5.8l-0.2-0.4l0.2-0.4
			c0.9-2.3,3.1-4.3,6.2-5.9c8.5-4.4,22.4-4.5,31-0.3c3.1,1.5,5.3,3.5,6.3,5.8l0.2,0.4L636,205c-0.9,2.3-3.1,4.3-6.2,5.9
			C625.4,213.2,619.7,214.3,613.9,214.3z M594.7,205c0.9,1.6,2.6,3.1,5.1,4.3c8.1,4,21.1,3.8,29.1-0.3c2.4-1.3,4.2-2.8,5-4.4
			c-0.9-1.6-2.6-3.1-5.1-4.3c-8.1-4-21.1-3.8-29.1,0.3C597.2,201.9,595.5,203.4,594.7,205z"/>
		
			<rect id="XMLID_329_" x="634.3" y="215.5" transform="matrix(-0.9999 1.040048e-02 -1.040048e-02 -0.9999 1272.4711 431.0931)" class="st4" width="1.6" height="6.6"/>
		
			<rect id="XMLID_328_" x="616.1" y="192.1" transform="matrix(-0.9999 1.020049e-02 -1.020049e-02 -0.9999 1235.8425 382.0991)" class="st4" width="1.6" height="4.3"/>
		<path id="XMLID_327_" class="st3" d="M598.6,200.5l0,3.6l5,1.8l2.3-3.8l0.1,0l17.8,10c1.5-0.4,3-0.9,4.3-1.5l1.9-1.1l0-3.6
			l-23.5-9.7L598.6,200.5z"/>
		<path id="XMLID_324_" class="st3" d="M623.7,212.9l-17.4-9.8l-2.3,3.8l-6.2-2.2l0-4.7l8.6-4.7l24.4,10l0,4.6l-2.3,1.4
			c-1.4,0.6-2.9,1.1-4.5,1.6L623.7,212.9z M605.9,201.2l0.5,0.2l17.5,9.9c1.4-0.4,2.7-0.8,3.9-1.4l1.4-0.8l0-2.6l-22.7-9.3l-7.1,3.9
			l0,2.6l3.9,1.4l2.1-3.4L605.9,201.2z"/>
		<polygon id="XMLID_323_" class="st1" points="606,198.4 605.9,198.5 603.6,202.3 598.6,200.5 601.9,195.2 606.3,192.5 
			629.9,205.8 624.6,208.9 		"/>
		<path id="XMLID_320_" class="st3" d="M624.6,209.9l-18.4-10.4l-2.3,3.8l-6.6-2.4l3.9-6.3l5-3l24.2,13.6l0.6,0.6l-0.7,0.7
			L624.6,209.9z M605.9,197.5l0.5,0.2l18.3,10.3l3.7-2.2l-22-12.4l-3.9,2.3l-2.7,4.3l3.5,1.3l2.1-3.4L605.9,197.5z"/>
		
			<rect id="XMLID_319_" x="626.9" y="218.7" transform="matrix(-0.9999 1.010050e-02 -1.010050e-02 -0.9999 1257.5513 437.618)" class="st4" width="1.6" height="6.6"/>
		
			<rect id="XMLID_318_" x="591.6" y="215.8" transform="matrix(-0.9999 1.010050e-02 -1.010050e-02 -0.9999 1187.0361 432.2701)" class="st4" width="1.6" height="6.6"/>
	</g>
</g>
</svg>
