<?xml version="1.0" encoding="utf-8"?>
<!-- Generator: Adobe Illustrator 25.2.0, SVG Export Plug-In . SVG Version: 6.00 Build 0)  -->
<svg version="1.1" id="Warstwa_1" xmlns="http://www.w3.org/2000/svg" xmlns:xlink="http://www.w3.org/1999/xlink" x="0px" y="0px"
	 viewBox="0 0 825 472" style="enable-background:new 0 0 825 472;" xml:space="preserve">
<style type="text/css">
	.st0{clip-path:url(#SVGID_2_);fill:url(#SVGID_3_);}
	.st1{fill:#FFFFFF;}
	.st2{font-family:'Montserrat-Regular';}
	.st3{font-size:14px;}
	.st4{font-size:42px;}
	.st5{letter-spacing:1;}
	.st6{font-family:'Montserrat-Black';}
	.st7{font-size:37px;}
	.st8{fill:#207254;}
	.st9{fill:#404040;}
	.st10{fill:#FCC812;}
</style>
<g>
	<g>
		<defs>
			<rect id="SVGID_1_" y="0" width="825" height="472"/>
		</defs>
		<clipPath id="SVGID_2_">
			<use xlink:href="#SVGID_1_"  style="overflow:visible;"/>
		</clipPath>
		
			<linearGradient id="SVGID_3_" gradientUnits="userSpaceOnUse" x1="-1205.6523" y1="-745.1965" x2="-1204.0636" y2="-745.1965" gradientTransform="matrix(526.5874 0 0 526.5874 634858.5 392689.5938)">
			<stop  offset="0" style="stop-color:#379E6E"/>
			<stop  offset="1" style="stop-color:#72C6D4"/>
		</linearGradient>
		<rect x="-22.8" y="-156.78" class="st0" width="870.6" height="870.6"/>
	</g>
</g>
<g>
	<text transform="matrix(1 0 0 1 152.0896 57.7136)" class="st1 st2 st3">„Aby samemu stać się lepszym nie musisz czekać na lepszy świat.”</text>
</g>
<g>
	<path class="st1" d="M631.75,383.9c7.23-0.07,14.06-2.92,19.26-8.02c5.19-5.1,8.16-11.89,8.35-19.11
		c0.15-5.46-1.29-10.79-4.16-15.42c-0.37-0.6-1.05-0.97-1.76-0.97c-0.76,0-1.44,0.4-1.81,1.06c-0.37,0.67-0.35,1.46,0.05,2.12
		c2.51,4.05,3.72,8.72,3.51,13.51c-0.51,11.72-10.85,22.09-22.57,22.65c-6.66,0.32-13.19-2.21-17.92-6.93
		c-4.72-4.72-7.25-11.25-6.93-17.92c0.55-11.72,10.92-22.05,22.64-22.57c4.79-0.21,9.46,1.01,13.51,3.51
		c0.66,0.41,1.45,0.43,2.12,0.05c0.67-0.37,1.06-1.05,1.06-1.81c0-0.71-0.37-1.39-0.97-1.76c-4.63-2.87-9.96-4.31-15.42-4.16
		c-7.22,0.19-14.01,3.16-19.11,8.35s-7.95,12.03-8.02,19.26c-0.07,7.54,2.83,14.63,8.18,19.98c5.27,5.27,12.27,8.18,19.71,8.18
		C631.57,383.91,631.66,383.91,631.75,383.9"/>
	<path class="st1" d="M631.48,339.21c-0.96,0-1.66,0.49-2.07,1.47l-10.54,25.17c-0.34,0.75-0.29,1.48,0.13,2.15
		c0.42,0.68,1.04,1.02,1.83,1.02c0.4,0,0.79-0.11,1.16-0.34c0.38-0.23,0.68-0.57,0.88-1.02l3.16-7.72H637l3.11,7.72
		c0.17,0.43,0.45,0.76,0.83,1s0.78,0.36,1.2,0.36c0.81,0,1.44-0.32,1.85-0.96c0.41-0.63,0.46-1.35,0.16-2.13l-10.58-25.25
		C633.19,339.71,632.49,339.21,631.48,339.21 M627.45,356.44l4.09-10l4.03,10H627.45z"/>
	<path class="st1" d="M685.52,357.95c0.31-0.48,0.35-1.01,0.12-1.6l-7.37-17.59c-0.27-0.72-0.81-1.11-1.56-1.11
		c-0.71,0-1.25,0.38-1.56,1.1l-7.34,17.53c-0.25,0.57-0.22,1.11,0.1,1.62c0.31,0.5,0.79,0.77,1.38,0.77c0.3,0,0.59-0.08,0.87-0.25
		c0.29-0.17,0.51-0.43,0.66-0.77l2.17-5.3h7.48l2.13,5.3c0.13,0.32,0.34,0.58,0.63,0.76c0.28,0.18,0.59,0.27,0.91,0.27
		C684.74,358.67,685.22,358.42,685.52,357.95 M674.09,349.65l2.66-6.51l2.62,6.51H674.09z"/>
	<path class="st1" d="M691.63,347.08c0.69-0.32,1.53-0.47,2.49-0.44c0.25,0.01,0.49-0.02,0.69-0.11c0.21-0.09,0.39-0.24,0.53-0.44
		s0.21-0.46,0.21-0.76c0.01-0.42-0.14-1-0.92-1.37c-0.58-0.28-1.34-0.32-2.33-0.12c-0.79,0.16-1.5,0.48-2.12,0.95
		c-0.05-0.34-0.18-0.61-0.39-0.81c-0.28-0.27-0.68-0.41-1.19-0.41c-0.5,0-0.9,0.14-1.18,0.43c-0.28,0.29-0.43,0.68-0.43,1.18v11.9
		c0,0.52,0.15,0.92,0.43,1.2c0.28,0.27,0.68,0.41,1.18,0.41c0.52,0,0.92-0.15,1.2-0.43c0.27-0.28,0.41-0.68,0.41-1.18v-8.8
		C690.52,347.77,691,347.37,691.63,347.08"/>
	<path class="st1" d="M704.85,355.46h-0.89c-0.47,0-0.85-0.19-1.18-0.59c-0.34-0.42-0.51-0.93-0.51-1.56v-6.54h2.04
		c0.44,0,0.81-0.13,1.09-0.39c0.29-0.27,0.44-0.61,0.44-1.01c0-0.43-0.15-0.79-0.44-1.06c-0.28-0.26-0.65-0.39-1.09-0.39h-2.04
		v-3.08c0-0.46-0.15-0.85-0.45-1.15s-0.69-0.45-1.15-0.45s-0.85,0.15-1.16,0.45c-0.3,0.3-0.45,0.69-0.45,1.15v3.08h-0.78
		c-0.44,0-0.81,0.13-1.09,0.39c-0.29,0.27-0.44,0.62-0.44,1.06c0,0.4,0.15,0.74,0.44,1.01c0.28,0.26,0.65,0.39,1.09,0.39h0.78v6.54
		c0,1,0.21,1.92,0.64,2.73c0.42,0.81,1.01,1.46,1.75,1.93s1.59,0.71,2.51,0.71h0.47c0.53,0,0.97-0.15,1.31-0.44
		c0.36-0.3,0.54-0.7,0.54-1.17c0-0.46-0.14-0.84-0.4-1.14C705.59,355.61,705.25,355.46,704.85,355.46"/>
	<path class="st1" d="M749.2,354.97c0.6-1.13,0.91-2.42,0.91-3.84c0-1.42-0.33-2.72-0.99-3.86c-0.66-1.14-1.56-2.05-2.68-2.71
		s-2.41-1-3.84-1c-1.41,0-2.69,0.34-3.81,1s-2.02,1.57-2.67,2.71c-0.65,1.14-0.99,2.44-1.01,3.86v11.92c0,0.46,0.16,0.86,0.47,1.17
		c0.31,0.31,0.7,0.47,1.17,0.47c0.48,0,0.88-0.16,1.18-0.47s0.45-0.7,0.45-1.16v-6.29c0.52,0.5,1.11,0.92,1.77,1.24
		c0.9,0.45,1.9,0.67,2.97,0.67c1.32,0,2.53-0.34,3.59-1C747.76,357.01,748.6,356.1,749.2,354.97 M746.37,353.48
		c-0.38,0.69-0.9,1.24-1.55,1.64c-0.64,0.4-1.39,0.6-2.22,0.6c-0.81,0-1.55-0.2-2.21-0.6c-0.66-0.4-1.18-0.95-1.55-1.64
		s-0.56-1.48-0.56-2.35c0-0.89,0.19-1.69,0.56-2.38s0.89-1.24,1.55-1.64c0.65-0.4,1.4-0.6,2.21-0.6c0.83,0,1.57,0.2,2.22,0.6
		c0.65,0.4,1.17,0.95,1.55,1.64s0.58,1.49,0.58,2.38C746.95,352,746.75,352.79,746.37,353.48"/>
	<path class="st1" d="M764.23,355.95c-0.02-0.4-0.21-0.76-0.58-1.08c-0.28-0.24-0.62-0.36-1-0.35c-0.37,0.01-0.71,0.13-1.02,0.36
		c-0.32,0.24-0.76,0.46-1.29,0.65c-0.53,0.19-1.06,0.28-1.56,0.28c-0.94,0-1.77-0.21-2.49-0.61c-0.72-0.41-1.29-0.97-1.69-1.67
		c-0.21-0.36-0.37-0.76-0.47-1.19h9.57c0.43,0,0.79-0.14,1.07-0.41c0.29-0.28,0.43-0.63,0.43-1.04c0-1.42-0.27-2.69-0.8-3.78
		c-0.54-1.1-1.33-1.98-2.35-2.61c-1.02-0.63-2.25-0.95-3.66-0.95c-1.42,0-2.71,0.33-3.81,0.97c-1.11,0.64-1.98,1.54-2.61,2.68
		c-0.62,1.13-0.94,2.45-0.94,3.92c0,1.46,0.33,2.77,0.99,3.9s1.59,2.03,2.76,2.67c1.16,0.64,2.51,0.97,4,0.97
		c0.83,0,1.71-0.16,2.62-0.46c0.91-0.31,1.68-0.71,2.3-1.2C764.17,356.66,764.25,356.24,764.23,355.95 M754.51,348.69
		c0.34-0.7,0.84-1.26,1.49-1.66c0.65-0.4,1.46-0.61,2.39-0.61c0.81,0,1.5,0.19,2.06,0.55c0.56,0.37,1,0.88,1.31,1.51
		c0.17,0.36,0.3,0.75,0.38,1.17h-7.97C754.25,349.31,754.37,348.98,754.51,348.69"/>
	<path class="st1" d="M775.62,348.29c0.34,0.58,0.51,1.35,0.51,2.29v6.45c0,0.47,0.16,0.86,0.47,1.17c0.31,0.31,0.7,0.47,1.17,0.47
		c0.46,0,0.86-0.16,1.17-0.47s0.47-0.71,0.47-1.17v-6.45c0-1.5-0.29-2.78-0.86-3.82s-1.37-1.85-2.37-2.39
		c-0.99-0.54-2.13-0.81-3.37-0.81c-1.2,0-2.29,0.27-3.26,0.8c-0.11,0.06-0.22,0.12-0.33,0.19c-0.07-0.15-0.17-0.28-0.29-0.4
		c-0.3-0.3-0.7-0.46-1.18-0.46c-0.46,0-0.86,0.15-1.17,0.45c-0.31,0.3-0.47,0.7-0.47,1.19v11.7c0,0.47,0.16,0.86,0.47,1.17
		c0.31,0.31,0.7,0.47,1.17,0.47c0.48,0,0.88-0.16,1.18-0.47s0.45-0.7,0.45-1.17v-9.26c0.29-0.32,0.64-0.58,1.04-0.78
		c0.55-0.27,1.17-0.41,1.85-0.41c0.75,0,1.42,0.14,2,0.43C774.84,347.29,775.29,347.72,775.62,348.29"/>
	<path class="st1" d="M731.32,340.32L731.32,340.32c-0.96-0.97-2.12-1.74-3.43-2.27s-2.78-0.8-4.37-0.8c-1.58,0-3.06,0.27-4.38,0.8
		c-1.32,0.54-2.48,1.3-3.43,2.27s-1.7,2.13-2.23,3.46c-0.52,1.32-0.79,2.79-0.79,4.38c0,1.58,0.27,3.06,0.79,4.39
		c0.53,1.33,1.28,2.5,2.23,3.47c0.95,0.97,2.11,1.74,3.43,2.27s2.79,0.8,4.38,0.8c1.58,0,3.05-0.27,4.37-0.8
		c1.31-0.53,2.47-1.3,3.43-2.27s1.72-2.14,2.24-3.47s0.79-2.8,0.79-4.39c0-1.58-0.27-3.06-0.79-4.38
		C733.04,342.45,732.28,341.29,731.32,340.32 M730.3,351.15c-0.35,0.91-0.86,1.72-1.51,2.4s-1.43,1.21-2.32,1.6
		c-0.89,0.38-1.88,0.58-2.94,0.58c-1.07,0-2.06-0.19-2.94-0.58c-0.89-0.38-1.67-0.92-2.31-1.6s-1.15-1.48-1.51-2.4
		c-0.36-0.92-0.54-1.93-0.54-3s0.18-2.08,0.54-3s0.87-1.72,1.51-2.4c0.64-0.67,1.42-1.21,2.3-1.58c0.89-0.37,1.88-0.57,2.95-0.57
		s2.06,0.19,2.95,0.57c0.89,0.37,1.67,0.91,2.32,1.58c0.65,0.68,1.16,1.48,1.51,2.4c0.35,0.92,0.53,1.93,0.53,3
		C730.83,349.22,730.65,350.23,730.3,351.15"/>
	<path class="st1" d="M682.31,371.99c-0.32-0.28-0.81-0.47-1.48-0.56c-0.37-0.05-0.67-0.12-0.89-0.22c-0.22-0.1-0.38-0.22-0.47-0.36
		c-0.1-0.14-0.14-0.29-0.14-0.46c0-0.31,0.13-0.55,0.38-0.71s0.59-0.24,1.01-0.24c0.24,0,0.44,0.04,0.61,0.09
		c0.17,0.06,0.31,0.14,0.43,0.24c0.12,0.1,0.22,0.21,0.3,0.32c0.04,0.07,0.1,0.12,0.19,0.14c0.08,0.02,0.16,0.02,0.24-0.02
		c0.07-0.04,0.12-0.1,0.14-0.17s0-0.15-0.05-0.23c-0.11-0.17-0.26-0.32-0.43-0.46c-0.18-0.14-0.39-0.25-0.62-0.34
		c-0.24-0.08-0.5-0.13-0.8-0.13c-0.39,0-0.74,0.06-1.04,0.18s-0.54,0.29-0.71,0.51c-0.17,0.22-0.26,0.48-0.26,0.77
		c0,0.41,0.18,0.76,0.53,1.05c0.35,0.29,0.84,0.46,1.46,0.53c0.51,0.06,0.88,0.19,1.12,0.41c0.24,0.21,0.36,0.47,0.36,0.77
		c0,0.23-0.06,0.43-0.19,0.6c-0.12,0.16-0.3,0.29-0.51,0.37c-0.22,0.08-0.47,0.13-0.75,0.13c-0.25,0-0.49-0.03-0.7-0.09
		s-0.4-0.15-0.55-0.26c-0.15-0.11-0.27-0.24-0.35-0.38c-0.04-0.07-0.09-0.12-0.16-0.15c-0.07-0.03-0.14-0.04-0.22-0.02
		c-0.1,0.02-0.16,0.07-0.2,0.14c-0.04,0.07-0.04,0.14,0,0.22c0.11,0.22,0.27,0.41,0.49,0.58c0.21,0.17,0.46,0.29,0.75,0.38
		s0.6,0.14,0.94,0.14c0.29,0,0.56-0.04,0.81-0.11c0.25-0.07,0.47-0.18,0.66-0.32s0.34-0.31,0.44-0.52s0.16-0.44,0.16-0.7
		C682.79,372.65,682.63,372.28,682.31,371.99"/>
	<path class="st1" d="M689.06,368.97h-1.9h-0.62h-1.89c-0.08,0-0.15,0.02-0.21,0.07c-0.05,0.05-0.08,0.11-0.08,0.19
		c0,0.07,0.03,0.13,0.08,0.18s0.12,0.07,0.21,0.07h1.89v4.9c0,0.08,0.03,0.14,0.09,0.2s0.13,0.08,0.22,0.08
		c0.09,0,0.16-0.03,0.22-0.08c0.06-0.06,0.09-0.12,0.09-0.2v-4.9h1.9c0.08,0,0.15-0.02,0.21-0.07c0.05-0.05,0.08-0.11,0.08-0.18
		c0-0.08-0.03-0.14-0.08-0.19C689.21,369,689.14,368.97,689.06,368.97"/>
	<path class="st1" d="M696.15,368.97c-0.09,0-0.16,0.03-0.22,0.08s-0.09,0.12-0.09,0.2v3.54c0,0.29-0.08,0.54-0.24,0.76
		s-0.37,0.39-0.65,0.52c-0.28,0.12-0.59,0.19-0.95,0.19s-0.68-0.06-0.96-0.19s-0.5-0.3-0.66-0.52s-0.23-0.47-0.23-0.76v-3.54
		c0-0.08-0.03-0.15-0.09-0.2c-0.06-0.05-0.13-0.08-0.22-0.08s-0.16,0.03-0.22,0.08s-0.09,0.12-0.09,0.2v3.54
		c0,0.39,0.1,0.74,0.31,1.04c0.21,0.3,0.5,0.54,0.88,0.71c0.37,0.17,0.8,0.26,1.29,0.26c0.48,0,0.9-0.08,1.27-0.26
		s0.66-0.41,0.87-0.71s0.31-0.65,0.31-1.04v-3.54c0-0.08-0.03-0.15-0.08-0.2C696.33,369,696.25,368.97,696.15,368.97"/>
	<path class="st1" d="M703.32,369.77c-0.28-0.26-0.6-0.45-0.98-0.59c-0.38-0.14-0.8-0.21-1.25-0.21h-1.43
		c-0.09,0-0.16,0.03-0.22,0.08s-0.09,0.12-0.09,0.2v5.14c0,0.08,0.03,0.15,0.09,0.2c0.06,0.05,0.13,0.08,0.22,0.08h1.43
		c0.46,0,0.87-0.07,1.25-0.21c0.38-0.14,0.71-0.34,0.98-0.59c0.28-0.26,0.49-0.56,0.64-0.91s0.23-0.73,0.23-1.15
		c0-0.42-0.08-0.8-0.23-1.15C703.8,370.33,703.59,370.03,703.32,369.77 M703.25,373.03c-0.21,0.35-0.51,0.63-0.88,0.83
		c-0.37,0.2-0.81,0.3-1.29,0.3h-1.12v-4.68h1.12c0.49,0,0.92,0.1,1.29,0.3c0.37,0.2,0.67,0.48,0.88,0.83
		c0.21,0.35,0.32,0.76,0.32,1.21C703.57,372.27,703.46,372.68,703.25,373.03"/>
	<path class="st1" d="M707.05,368.97c-0.09,0-0.16,0.03-0.22,0.08s-0.09,0.12-0.09,0.2v5.14c0,0.08,0.03,0.15,0.09,0.2
		c0.06,0.05,0.13,0.08,0.22,0.08c0.09,0,0.16-0.03,0.22-0.08s0.09-0.12,0.09-0.2v-5.14c0-0.08-0.03-0.15-0.09-0.2
		C707.22,369,707.14,368.97,707.05,368.97"/>
	<path class="st1" d="M715.38,369.73c-0.29-0.26-0.62-0.47-1.01-0.61c-0.39-0.15-0.81-0.22-1.27-0.22s-0.89,0.07-1.27,0.22
		c-0.39,0.15-0.72,0.35-1.01,0.61c-0.28,0.26-0.51,0.57-0.66,0.93c-0.16,0.36-0.23,0.74-0.23,1.16s0.08,0.81,0.23,1.17
		c0.16,0.36,0.38,0.66,0.66,0.93c0.28,0.26,0.62,0.47,1.01,0.61c0.39,0.15,0.81,0.22,1.27,0.22s0.88-0.07,1.27-0.22
		s0.72-0.35,1.01-0.61c0.29-0.26,0.51-0.57,0.67-0.93s0.23-0.75,0.23-1.17s-0.08-0.81-0.23-1.16
		C715.89,370.3,715.67,369.99,715.38,369.73 M715.48,372.77c-0.13,0.29-0.31,0.54-0.54,0.76s-0.5,0.38-0.82,0.5
		c-0.31,0.12-0.65,0.18-1.02,0.18s-0.71-0.06-1.03-0.18c-0.31-0.12-0.59-0.29-0.82-0.5c-0.23-0.22-0.41-0.47-0.54-0.76
		s-0.19-0.6-0.19-0.95c0-0.34,0.06-0.65,0.19-0.94s0.31-0.54,0.54-0.76s0.5-0.38,0.82-0.5c0.31-0.12,0.66-0.18,1.03-0.18
		c0.37,0,0.71,0.06,1.02,0.18s0.59,0.29,0.82,0.5c0.23,0.22,0.41,0.47,0.54,0.76s0.19,0.6,0.19,0.94
		C715.67,372.16,715.61,372.48,715.48,372.77"/>
	<path class="st1" d="M725.03,372.32c0.09-0.03,0.17-0.06,0.26-0.1c0.3-0.15,0.54-0.35,0.71-0.61c0.17-0.26,0.26-0.55,0.26-0.88
		c0-0.35-0.09-0.65-0.26-0.92c-0.17-0.26-0.41-0.47-0.71-0.62c-0.3-0.15-0.65-0.22-1.04-0.22h-1.49c-0.09,0-0.17,0.03-0.22,0.08
		c-0.06,0.05-0.09,0.12-0.09,0.2v5.14c0,0.08,0.03,0.15,0.09,0.2s0.13,0.08,0.22,0.08c0.09,0,0.16-0.03,0.22-0.08
		s0.09-0.12,0.09-0.2v-1.95h1.18c0.05,0,0.09,0,0.14-0.01l1.43,2.1c0.03,0.05,0.07,0.08,0.11,0.11c0.04,0.02,0.09,0.04,0.16,0.04
		c0.14,0,0.24-0.04,0.29-0.13s0.04-0.19-0.04-0.31L725.03,372.32z M724.25,371.89h-1.18v-2.38h1.18c0.27,0,0.51,0.05,0.72,0.15
		c0.21,0.1,0.38,0.24,0.5,0.43c0.12,0.18,0.18,0.39,0.18,0.63c0,0.22-0.06,0.42-0.18,0.6s-0.29,0.31-0.5,0.41
		C724.76,371.84,724.52,371.89,724.25,371.89"/>
	<path class="st1" d="M732.69,369.52c0.08,0,0.16-0.03,0.22-0.08s0.09-0.12,0.09-0.19c0-0.08-0.03-0.15-0.09-0.2
		c-0.06-0.05-0.13-0.08-0.22-0.08h-3.74c-0.09,0-0.16,0.03-0.22,0.08s-0.09,0.12-0.09,0.2v5.14c0,0.08,0.03,0.15,0.09,0.2
		c0.06,0.05,0.13,0.08,0.22,0.08h3.74c0.08,0,0.16-0.03,0.22-0.08s0.09-0.12,0.09-0.2c0-0.07-0.03-0.14-0.09-0.19
		s-0.13-0.08-0.22-0.08h-3.43v-2.04h2.49c0.09,0,0.16-0.03,0.22-0.08s0.09-0.12,0.09-0.2c0-0.08-0.03-0.14-0.09-0.2
		c-0.06-0.05-0.13-0.08-0.22-0.08h-2.49v-2.02h3.43V369.52z"/>
	<path class="st1" d="M739.49,369.25c0-0.08-0.02-0.14-0.07-0.19s-0.12-0.08-0.22-0.08c-0.05,0-0.09,0.01-0.13,0.02
		c-0.04,0.01-0.08,0.04-0.12,0.08l-2.91,2.67v-2.48c0-0.08-0.03-0.15-0.09-0.2c-0.06-0.06-0.13-0.08-0.22-0.08
		c-0.08,0-0.16,0.03-0.22,0.08c-0.06,0.06-0.09,0.12-0.09,0.2v5.14c0,0.08,0.03,0.15,0.09,0.2c0.06,0.06,0.13,0.08,0.22,0.08
		c0.09,0,0.16-0.03,0.22-0.08c0.06-0.06,0.09-0.12,0.09-0.2v-1.87l0.71-0.66l2.17,2.69c0.06,0.08,0.15,0.12,0.26,0.12
		c0.07,0,0.14-0.02,0.19-0.07c0.05-0.05,0.08-0.11,0.09-0.18s-0.01-0.14-0.06-0.2l-2.21-2.76l2.18-2
		C739.45,369.39,739.49,369.32,739.49,369.25"/>
	<path class="st1" d="M745.66,374.14h-3.11v-4.88c0-0.08-0.03-0.15-0.09-0.2c-0.06-0.06-0.13-0.08-0.22-0.08
		c-0.08,0-0.16,0.03-0.22,0.08c-0.06,0.06-0.09,0.12-0.09,0.2v5.14c0,0.08,0.03,0.15,0.09,0.2c0.06,0.05,0.13,0.08,0.22,0.08h3.43
		c0.08,0,0.16-0.02,0.22-0.08c0.06-0.05,0.09-0.12,0.09-0.19c0-0.08-0.03-0.14-0.09-0.19C745.82,374.16,745.74,374.14,745.66,374.14
		"/>
	<path class="st1" d="M750.56,369.17c-0.06-0.13-0.16-0.2-0.3-0.2s-0.24,0.07-0.3,0.2l-2.34,5.1c-0.04,0.09-0.04,0.18,0.02,0.27
		c0.05,0.09,0.14,0.14,0.26,0.14c0.06,0,0.12-0.01,0.17-0.04s0.09-0.07,0.12-0.13l0.54-1.18h3.08l0.53,1.18
		c0.03,0.06,0.07,0.1,0.12,0.13s0.11,0.04,0.17,0.04c0.11,0,0.2-0.04,0.26-0.13s0.07-0.18,0.02-0.27L750.56,369.17z M748.94,372.83
		l1.33-2.93l1.31,2.93H748.94z"/>
	<path class="st1" d="M761.03,368.97c-0.12,0-0.21,0.05-0.28,0.15l-2.5,4.65l-2.55-4.65c-0.06-0.1-0.15-0.15-0.28-0.15
		c-0.09,0-0.16,0.03-0.22,0.08s-0.09,0.12-0.09,0.2v5.14c0,0.08,0.03,0.14,0.09,0.2s0.13,0.08,0.22,0.08c0.08,0,0.16-0.03,0.22-0.08
		c0.06-0.06,0.09-0.12,0.09-0.2v-4.07l2.21,4.05c0.06,0.12,0.15,0.18,0.29,0.18c0.12,0,0.21-0.05,0.27-0.14l2.21-4.15v4.14
		c0,0.08,0.03,0.14,0.09,0.2s0.14,0.08,0.23,0.08c0.08,0,0.16-0.03,0.21-0.08c0.06-0.06,0.09-0.12,0.09-0.2v-5.14
		c0-0.08-0.03-0.15-0.09-0.2C761.19,369,761.12,368.97,761.03,368.97"/>
	<path class="st1" d="M768.26,368.97c-0.06,0-0.12,0.01-0.16,0.04c-0.05,0.02-0.09,0.06-0.12,0.12l-1.98,2.92l-1.98-2.93
		c-0.03-0.04-0.07-0.08-0.11-0.1c-0.04-0.02-0.09-0.04-0.16-0.04c-0.08,0-0.15,0.02-0.2,0.07s-0.09,0.1-0.1,0.17
		c-0.01,0.07,0.01,0.14,0.06,0.21l2.17,3.15v1.83c0,0.08,0.03,0.14,0.09,0.2s0.13,0.08,0.22,0.08s0.16-0.03,0.22-0.08
		c0.06-0.06,0.09-0.12,0.09-0.2v-1.83l2.17-3.15c0.05-0.07,0.07-0.14,0.06-0.2c-0.01-0.07-0.04-0.13-0.09-0.17
		C768.39,368.99,768.33,368.97,768.26,368.97"/>
	<path class="st1" d="M779.23,371.62h-6.3c-0.09,0-0.17,0.1-0.17,0.22s0.08,0.22,0.17,0.22h6.3c0.09,0,0.17-0.1,0.17-0.22
		C779.4,371.72,779.33,371.62,779.23,371.62"/>
	<path class="st1" d="M674.11,371.62h-6.3c-0.09,0-0.17,0.1-0.17,0.22s0.08,0.22,0.17,0.22h6.3c0.09,0,0.17-0.1,0.17-0.22
		C674.28,371.72,674.21,371.62,674.11,371.62"/>
</g>
<text transform="matrix(1 0 0 1 330.1587 153.7512)" class="st1 st2 st4 st5">#Gaszyn Challenge</text>
<text transform="matrix(1 0 0 1 517.8387 198.1512)" class="st1 st6 st7 st5">POMAGAMY</text>
<path class="st8" d="M309.13,395.31L309.13,395.31c-32.51,21.32-70.79,32.12-109.65,30.95l-25.26-0.76
	c-57.33-1.73-101.99-50.34-98.86-107.61l0,0l0,0c5.34-48.45,42.92-87.09,91.2-93.76l60.25-8.33l117.7,39.8
	c16.49,5.57,31.89,13.66,45.71,23.89c21.76,16.11,20.97,48.91-1.68,63.75L309.13,395.31z"/>
<g>
	<path id="XMLID_611_" class="st9" d="M275.18,361.96l-1.71,0.99c-0.18,0.1-0.48,0.09-0.68-0.03l-1.61-0.93
		c-0.2-0.12-0.22-0.29-0.05-0.4l1.71-0.99c0.18-0.1,0.48-0.09,0.68,0.03l1.61,0.93C275.33,361.68,275.36,361.85,275.18,361.96z"/>
	<path id="XMLID_610_" class="st9" d="M279.16,364.25l-1.71,0.99c-0.18,0.1-0.48,0.09-0.68-0.03l-1.61-0.93
		c-0.2-0.12-0.22-0.29-0.05-0.4l1.71-0.99c0.18-0.1,0.48-0.09,0.68,0.03l1.61,0.93C279.32,363.98,279.34,364.15,279.16,364.25z"/>
	<path id="XMLID_609_" class="st9" d="M274.97,366.68l-1.71,0.99c-0.18,0.1-0.48,0.09-0.68-0.03l-1.61-0.93
		c-0.2-0.12-0.22-0.29-0.05-0.39l1.71-0.99c0.18-0.1,0.48-0.09,0.68,0.03l1.61,0.93C275.12,366.4,275.14,366.57,274.97,366.68z"/>
	<path id="XMLID_608_" class="st9" d="M283.14,366.55l-1.71,0.99c-0.18,0.1-0.48,0.09-0.68-0.03l-1.61-0.93
		c-0.2-0.12-0.22-0.29-0.05-0.4l1.71-0.99c0.18-0.1,0.48-0.09,0.68,0.03l1.61,0.93C283.3,366.27,283.32,366.45,283.14,366.55z"/>
	<path id="XMLID_607_" class="st9" d="M278.95,368.97l-1.71,0.99c-0.18,0.1-0.48,0.09-0.68-0.03l-1.61-0.93
		c-0.2-0.12-0.22-0.29-0.05-0.4l1.71-0.99c0.18-0.1,0.48-0.09,0.68,0.03l1.61,0.93C279.1,368.7,279.12,368.87,278.95,368.97z"/>
	<path id="XMLID_606_" class="st9" d="M287.36,368.98l-1.71,0.99c-0.18,0.1-0.48,0.09-0.68-0.03l-1.61-0.93
		c-0.2-0.12-0.22-0.29-0.05-0.4l1.71-0.99c0.18-0.1,0.48-0.09,0.68,0.03l1.61,0.93C287.51,368.71,287.53,368.88,287.36,368.98z"/>
	<path id="XMLID_605_" class="st9" d="M283.16,371.41l-1.71,0.99c-0.18,0.1-0.48,0.09-0.68-0.03l-1.61-0.93
		c-0.2-0.12-0.22-0.29-0.05-0.4l1.71-0.99c0.18-0.1,0.48-0.09,0.68,0.03l1.61,0.93C283.32,371.13,283.34,371.3,283.16,371.41z"/>
	<path id="XMLID_604_" class="st9" d="M291.34,371.28l-1.71,0.99c-0.18,0.1-0.48,0.09-0.68-0.03l-1.61-0.93
		c-0.2-0.12-0.22-0.29-0.05-0.4l1.71-0.99c0.18-0.1,0.48-0.09,0.68,0.03l1.61,0.93C291.49,371,291.51,371.18,291.34,371.28z"/>
	<path id="XMLID_603_" class="st9" d="M287.14,373.7l-1.71,0.99c-0.18,0.1-0.48,0.09-0.68-0.03l-1.61-0.93
		c-0.2-0.12-0.22-0.29-0.05-0.4l1.71-0.99c0.18-0.1,0.48-0.09,0.68,0.03l1.61,0.93C287.3,373.43,287.32,373.6,287.14,373.7z"/>
	<path id="XMLID_602_" class="st9" d="M295.32,373.58l-1.71,0.99c-0.18,0.1-0.48,0.09-0.68-0.03l-1.61-0.93
		c-0.2-0.12-0.22-0.29-0.05-0.39l1.71-0.99c0.18-0.1,0.48-0.09,0.68,0.03l1.61,0.93C295.47,373.3,295.49,373.48,295.32,373.58z"/>
	<path id="XMLID_601_" class="st9" d="M303.73,373.59l-1.71,0.99c-0.18,0.1-0.48,0.09-0.68-0.03l-1.61-0.93
		c-0.2-0.12-0.22-0.29-0.05-0.39l1.71-0.99c0.18-0.1,0.48-0.09,0.68,0.03l1.61,0.93C303.88,373.31,303.9,373.49,303.73,373.59z"/>
	<path id="XMLID_598_" class="st9" d="M295.33,368.77l-1.71,0.99c-0.18,0.1-0.48,0.09-0.68-0.03l-1.61-0.93
		c-0.2-0.12-0.22-0.29-0.05-0.4l1.71-0.99c0.18-0.1,0.48-0.09,0.68,0.03l1.61,0.93C295.48,368.49,295.5,368.66,295.33,368.77z"/>
	<path id="XMLID_597_" class="st9" d="M299.54,371.2l-1.71,0.99c-0.18,0.1-0.48,0.09-0.68-0.03l-1.61-0.93
		c-0.2-0.12-0.22-0.29-0.05-0.4l1.71-0.99c0.18-0.1,0.48-0.09,0.68,0.03l1.61,0.93C299.69,370.92,299.72,371.1,299.54,371.2z"/>
	<path id="XMLID_596_" class="st9" d="M303.74,368.78l-1.71,0.99c-0.18,0.1-0.48,0.09-0.68-0.03l-1.61-0.93
		c-0.2-0.12-0.22-0.29-0.05-0.4l1.71-0.99c0.18-0.1,0.48-0.09,0.68,0.03l1.61,0.93C303.89,368.5,303.91,368.68,303.74,368.78z"/>
	<path id="XMLID_530_" class="st9" d="M261.65,382.99l-1.71,0.99c-0.18,0.1-0.48,0.09-0.68-0.03l-1.61-0.93
		c-0.2-0.12-0.22-0.29-0.05-0.4l1.71-0.99c0.18-0.1,0.48-0.09,0.68,0.03l1.61,0.93C261.8,382.71,261.82,382.89,261.65,382.99z"/>
	<path id="XMLID_529_" class="st9" d="M265.84,380.57l-1.71,0.99c-0.18,0.1-0.48,0.09-0.68-0.03l-1.61-0.93
		c-0.2-0.12-0.22-0.29-0.05-0.39l1.71-0.99c0.18-0.1,0.48-0.09,0.68,0.03l1.61,0.93C266,380.29,266.02,380.47,265.84,380.57z"/>
	<path id="XMLID_528_" class="st9" d="M270.04,378.15l-1.71,0.99c-0.18,0.1-0.48,0.09-0.68-0.03l-1.61-0.93
		c-0.2-0.12-0.22-0.29-0.05-0.4l1.71-0.99c0.18-0.1,0.48-0.09,0.68,0.03l1.61,0.93C270.19,377.87,270.21,378.05,270.04,378.15z"/>
	<path id="XMLID_523_" class="st9" d="M261.43,387.71l-1.71,0.99c-0.18,0.1-0.48,0.09-0.68-0.03l-1.61-0.93
		c-0.2-0.12-0.22-0.29-0.05-0.4l1.71-0.99c0.18-0.1,0.48-0.09,0.68,0.03l1.61,0.93C261.59,387.43,261.61,387.61,261.43,387.71z"/>
	<path id="XMLID_522_" class="st9" d="M265.63,385.29l-1.71,0.99c-0.18,0.1-0.48,0.09-0.68-0.03l-1.61-0.93
		c-0.2-0.12-0.22-0.29-0.05-0.39l1.71-0.99c0.18-0.1,0.48-0.09,0.68,0.03l1.61,0.93C265.78,385.01,265.8,385.19,265.63,385.29z"/>
	<path id="XMLID_521_" class="st9" d="M269.82,382.87l-1.71,0.99c-0.18,0.1-0.48,0.09-0.68-0.03l-1.61-0.93
		c-0.2-0.12-0.22-0.29-0.05-0.39l1.71-0.99c0.18-0.1,0.48-0.09,0.68,0.03l1.61,0.93C269.98,382.59,270,382.77,269.82,382.87z"/>
	<path id="XMLID_520_" class="st9" d="M274.02,380.45l-1.71,0.99c-0.18,0.1-0.48,0.09-0.68-0.03l-1.61-0.93
		c-0.2-0.12-0.22-0.29-0.05-0.4l1.71-0.99c0.18-0.1,0.48-0.09,0.68,0.03l1.61,0.93C274.17,380.17,274.19,380.34,274.02,380.45z"/>
	<polygon id="XMLID_505_" class="st9" points="344.61,328.36 234.8,391.82 234.77,391.81 234.77,304.85 234.78,304.84 
		344.59,241.37 344.62,241.38 344.62,328.34 	"/>
	<path id="XMLID_502_" class="st9" d="M234.79,392.87l-0.91-0.54V304.4l0.36-0.28l110.35-63.79l0.91,0.53v87.99L234.79,392.87z
		 M235.67,305.36v84.94l108.05-62.46V242.9L235.67,305.36z"/>
	<polygon id="XMLID_501_" class="st10" points="241.05,382.4 241.05,340.57 242.43,340.57 242.43,380.03 337.25,325.87 
		337.25,254.48 338.62,254.48 338.62,326.67 	"/>
	
		<rect id="XMLID_500_" x="274.04" y="273.41" transform="matrix(0.8671 -0.4981 0.4981 0.8671 -96.1424 187.8252)" class="st10" width="59.83" height="1.38"/>
	
		<rect id="XMLID_499_" x="254.46" y="296.39" transform="matrix(0.8672 -0.498 0.498 0.8672 -112.8642 170.9827)" class="st10" width="19.3" height="1.38"/>
	<polygon id="XMLID_498_" class="st10" points="234.74,391.82 118.11,324.49 118.1,324.47 118.1,237.51 118.13,237.5 234.76,304.84 
		234.77,304.85 234.77,391.81 	"/>
	<path id="XMLID_495_" class="st9" d="M234.81,392.85L117.21,325v-88.01l0.92-0.53l117.53,67.86v87.99L234.81,392.85z M119,323.96
		l114.88,66.33v-84.93L119,239.03V323.96z"/>
	<rect id="XMLID_494_" x="123.79" y="249.1" class="st9" width="1.79" height="55.04"/>
	<polygon id="XMLID_493_" class="st1" points="118.13,237.5 234.76,304.84 234.78,304.84 344.59,241.37 344.59,241.33 
		227.96,174.03 227.94,174.03 118.13,237.46 	"/>
	<path id="XMLID_490_" class="st9" d="M234.77,305.87L117.23,238v-1.02l110.73-63.99l117.53,67.83l0.01,1.06L234.77,305.87z
		 M119.89,237.48l114.89,66.33l108.05-62.46l-114.88-66.29L119.89,237.48z"/>
	<polygon id="XMLID_489_" class="st9" points="327.24,242.18 227.94,184.89 136.95,237.45 136.05,235.9 227.94,182.82 
		328.14,240.63 	"/>
	
		<rect id="XMLID_488_" x="271.14" y="260.06" transform="matrix(0.8694 -0.4941 0.4941 0.8694 -90.1464 180.8426)" class="st9" width="51.79" height="1.79"/>
	<path id="XMLID_487_" class="st10" d="M198.81,233.91l42.91,24.77c5.66,3.27,15.54,2.86,22.07-0.91c6.53-3.77,7.24-9.48,1.58-12.74
		l-42.91-24.77c-5.66-3.27-15.54-2.86-22.07,0.91C193.87,224.93,193.16,230.64,198.81,233.91z"/>
	<path id="XMLID_471_" class="st9" d="M205.89,232.47l38.32,22.13c3.37,1.95,9.26,1.7,13.15-0.55c3.89-2.25,4.32-5.65,0.94-7.59
		l-38.32-22.13c-3.37-1.95-9.26-1.7-13.15,0.55C202.94,227.12,202.51,230.52,205.89,232.47z"/>
	<rect id="XMLID_470_" x="215.41" y="225.96" class="st10" width="1.79" height="8.26"/>
	<rect id="XMLID_469_" x="226.38" y="230.83" class="st10" width="1.79" height="4.87"/>
	<rect id="XMLID_468_" x="252.76" y="246.37" class="st10" width="1.79" height="6.71"/>
	<g id="XMLID_460_">
		<path id="XMLID_464_" class="st9" d="M301.84,368.72c-2.7-3.3-5.61-2.61-13.01-4.18c-6.36-1.35-12.98-1.22-19.26,0.47
			c-6.23,1.67-10.03,2.75-12.59,5.71l-3.32,1.76l0.08,6.92l0.02,0.17c0.19,4.66,4.04,9,11.66,12.04c7.57,3.03,15.98,3.42,23.89,1.43
			c11.17-2.81,16.71-8.5,16.83-14.18v-6.92L301.84,368.72z"/>
		<path id="XMLID_461_" class="st9" d="M279.49,395.16c-4.98,0-9.89-0.91-14.39-2.71c-7.67-3.07-12.01-7.63-12.22-12.83l-0.02-0.09
			l-0.09-7.57l3.65-1.94c2.8-3.15,7.06-4.29,12.92-5.86c6.34-1.7,13.15-1.87,19.68-0.48c2.06,0.44,3.75,0.7,5.23,0.92
			c3.78,0.58,6.08,0.93,8.21,3.49l4.58,3.42v7.44c-0.14,6.64-6.66,12.25-17.5,14.98C286.23,394.74,282.84,395.16,279.49,395.16z
			 M254.57,373.02l0.09,6.44c0.19,4.54,4.13,8.54,11.1,11.33c7.19,2.88,15.48,3.37,23.34,1.39c9.86-2.48,16.04-7.59,16.16-13.33
			v-6.45l-4.11-3.1c-1.72-2.11-3.54-2.38-7.16-2.93c-1.51-0.23-3.23-0.49-5.34-0.94c-6.25-1.33-12.77-1.17-18.84,0.46
			c-6.37,1.71-9.81,2.73-12.14,5.43l-0.26,0.21L254.57,373.02z"/>
	</g>
	<g id="XMLID_455_">
		
			<ellipse id="XMLID_459_" transform="matrix(0.9999 -0.0103 0.0103 0.9999 -3.8189 2.9027)" class="st1" cx="279.89" cy="372.19" rx="26.23" ry="15.14"/>
		<path id="XMLID_456_" class="st9" d="M279.58,388.23c-6.72,0-13.41-1.44-18.56-4.34c-5.27-2.97-8.2-7.02-8.25-11.4
			c-0.04-4.38,2.8-8.48,8.01-11.57c10.41-6.15,27.45-6.33,37.98-0.39c5.27,2.97,8.2,7.02,8.25,11.4c0.04,4.38-2.8,8.49-8.01,11.57
			C293.68,386.65,286.62,388.23,279.58,388.23z M280.21,357.96c-6.71,0-13.44,1.51-18.51,4.51c-4.64,2.74-7.17,6.29-7.13,10.01
			c0.04,3.71,2.64,7.21,7.34,9.86c10.04,5.66,26.27,5.49,36.19-0.37c4.64-2.74,7.17-6.3,7.13-10.01c-0.04-3.71-2.64-7.21-7.34-9.86
			C292.99,359.33,286.61,357.96,280.21,357.96z"/>
	</g>
	<g id="XMLID_450_">
		<path id="XMLID_454_" class="st9" d="M292.78,365.55c-7.19-3.53-18.78-3.41-25.9,0.27c-7.11,3.68-7.05,9.53,0.13,13.06
			c7.19,3.53,18.79,3.41,25.9-0.27C300.03,374.93,299.97,369.08,292.78,365.55z"/>
		<path id="XMLID_451_" class="st9" d="M279.61,382.33c-4.71,0-9.39-0.88-12.99-2.65c-3.8-1.86-5.9-4.45-5.93-7.27
			c-0.03-2.82,2.02-5.45,5.78-7.39c7.33-3.79,19.3-3.91,26.71-0.27c3.8,1.86,5.9,4.45,5.93,7.27c0.03,2.82-2.02,5.45-5.78,7.39
			C289.57,381.35,284.58,382.33,279.61,382.33z M280.18,363.86c-4.67,0-9.35,0.92-12.88,2.75c-3.13,1.62-4.84,3.67-4.81,5.78
			c0.02,2.11,1.77,4.13,4.93,5.68c6.95,3.42,18.21,3.3,25.09-0.26c3.13-1.62,4.83-3.67,4.81-5.78s-1.77-4.13-4.93-5.68
			C289,364.69,284.6,363.86,280.18,363.86z"/>
	</g>
	<g id="XMLID_445_">
		<path id="XMLID_449_" class="st10" d="M292.82,369.46c-7.19-3.53-18.78-3.41-25.9,0.27c-2.57,1.33-4.19,2.94-4.89,4.63
			c0.73,1.67,2.39,3.25,4.98,4.53c7.19,3.53,18.79,3.41,25.9-0.27c2.57-1.33,4.19-2.94,4.89-4.63
			C297.07,372.32,295.42,370.74,292.82,369.46z"/>
		<path id="XMLID_446_" class="st9" d="M279.61,382.33c-4.71,0-9.39-0.88-12.99-2.65c-2.69-1.32-4.56-3.04-5.41-4.97l-0.15-0.35
			l0.15-0.35c0.81-1.95,2.64-3.7,5.31-5.08c7.33-3.79,19.3-3.91,26.71-0.27c2.69,1.32,4.56,3.04,5.41,4.97l0.15,0.35l-0.15,0.35
			c-0.81,1.95-2.64,3.7-5.31,5.08C289.57,381.35,284.58,382.33,279.61,382.33z M263.02,374.34c0.75,1.4,2.26,2.68,4.39,3.73
			c6.96,3.42,18.21,3.3,25.09-0.26c2.11-1.09,3.59-2.41,4.31-3.82c-0.75-1.4-2.26-2.69-4.39-3.73c-6.95-3.41-18.21-3.3-25.09,0.26
			C265.22,371.61,263.74,372.93,263.02,374.34z"/>
	</g>
	
		<rect id="XMLID_444_" x="297.23" y="383.41" transform="matrix(0.9999 -0.0104 0.0104 0.9999 -4.0012 3.1194)" class="st10" width="1.38" height="5.71"/>
	
		<rect id="XMLID_443_" x="281.57" y="363.17" transform="matrix(0.9999 -0.0102 0.0102 0.9999 -3.7086 2.8982)" class="st10" width="1.38" height="3.68"/>
	<g id="XMLID_438_">
		<path id="XMLID_442_" class="st9" d="M266.38,370.42l0.03,3.13l4.34,1.55l1.99-3.31l0.06-0.04l15.33,8.64
			c1.31-0.34,2.55-0.77,3.7-1.28l1.63-0.97l-0.04-3.13l-20.3-8.34L266.38,370.42z"/>
		<path id="XMLID_439_" class="st9" d="M288.03,381.13l-15.01-8.46l-1.96,3.27l-5.32-1.91l-0.04-4.02l7.39-4.09l21.04,8.64
			l0.04,3.98l-1.98,1.17c-1.24,0.55-2.52,0.99-3.88,1.35L288.03,381.13z M272.73,371l0.41,0.16l15.08,8.5
			c1.19-0.32,2.3-0.72,3.33-1.17l1.22-0.73l-0.02-2.27l-19.58-8.04l-6.09,3.37l0.02,2.24l3.36,1.2l1.79-2.97L272.73,371z"/>
	</g>
	<g id="XMLID_433_">
		<polygon id="XMLID_437_" class="st1" points="272.77,368.63 272.71,368.67 270.72,371.98 266.38,370.42 269.22,365.85 
			273.09,363.56 293.43,375.03 288.88,377.72 		"/>
		<path id="XMLID_434_" class="st9" d="M288.89,378.51l-15.91-8.97l-1.96,3.27l-5.68-2.03l3.39-5.44l4.35-2.57l21.03,11.86v0.83
			L288.89,378.51z M272.7,367.87l0.41,0.16l15.77,8.89l3.18-1.88l-18.96-10.69l-3.38,2l-2.3,3.71l3.01,1.08l1.79-2.97L272.7,367.87z
			"/>
	</g>
	
		<rect id="XMLID_432_" x="290.82" y="386.11" transform="matrix(0.9999 -0.0104 0.0104 0.9999 -4.0297 3.0528)" class="st10" width="1.38" height="5.71"/>
	
		<rect id="XMLID_431_" x="260.41" y="383.65" transform="matrix(0.9999 -0.0101 0.0101 0.9999 -3.8906 2.657)" class="st10" width="1.38" height="5.71"/>
	<g id="XMLID_426_">
		<path id="XMLID_430_" class="st9" d="M309.33,345.35c-2.7-3.3-5.61-2.61-13.01-4.18c-6.36-1.35-12.98-1.22-19.26,0.47
			c-6.23,1.67-10.03,2.75-12.59,5.71l-3.32,1.76l0.08,6.92l0.02,0.17c0.19,4.66,4.04,9,11.66,12.04c7.57,3.03,15.98,3.42,23.89,1.43
			c11.17-2.81,16.71-8.5,16.83-14.18v-6.92L309.33,345.35z"/>
		<path id="XMLID_427_" class="st9" d="M286.98,371.79c-4.98,0-9.89-0.91-14.39-2.71c-7.67-3.07-12.01-7.63-12.22-12.83l-0.02-0.09
			l-0.09-7.57l3.65-1.94c2.8-3.15,7.06-4.29,12.92-5.86c6.34-1.7,13.15-1.87,19.68-0.48c2.06,0.44,3.75,0.7,5.23,0.92
			c3.78,0.58,6.08,0.93,8.21,3.49l4.58,3.42v7.44c-0.13,6.63-6.66,12.25-17.5,14.98C293.72,371.38,290.33,371.79,286.98,371.79z
			 M262.06,349.65l0.09,6.44c0.19,4.54,4.13,8.54,11.1,11.33c7.19,2.88,15.48,3.37,23.34,1.39c9.86-2.48,16.04-7.59,16.15-13.33
			v-6.46l-4.11-3.1c-1.72-2.11-3.54-2.38-7.16-2.93c-1.51-0.23-3.23-0.49-5.34-0.94c-6.25-1.33-12.77-1.17-18.84,0.46
			c-6.37,1.71-9.81,2.73-12.14,5.43l-0.26,0.21L262.06,349.65z"/>
	</g>
	<g id="XMLID_421_">
		<path id="XMLID_425_" class="st1" d="M305.82,337.95c10.3,5.81,10.4,15.39,0.22,21.41s-26.79,6.19-37.09,0.38
			s-10.4-15.39-0.22-21.41C278.91,332.31,295.52,332.14,305.82,337.95z"/>
		<path id="XMLID_422_" class="st9" d="M287.07,364.86c-6.72,0-13.41-1.44-18.55-4.34c-5.27-2.97-8.2-7.02-8.25-11.4
			c-0.04-4.38,2.8-8.49,8.01-11.57c10.41-6.16,27.45-6.33,37.98-0.39c5.27,2.97,8.2,7.02,8.25,11.4c0.04,4.38-2.8,8.48-8.01,11.57
			C301.17,363.28,294.11,364.86,287.07,364.86z M287.7,334.59c-6.71,0-13.44,1.51-18.51,4.51c-4.64,2.74-7.17,6.3-7.13,10.01
			c0.04,3.71,2.64,7.21,7.34,9.86c10.04,5.66,26.27,5.49,36.19-0.37c4.64-2.74,7.17-6.29,7.13-10.01c-0.04-3.71-2.64-7.21-7.34-9.86
			C300.48,335.96,294.1,334.59,287.7,334.59z"/>
	</g>
	<g id="XMLID_416_">
		<path id="XMLID_420_" class="st9" d="M300.27,342.18c-7.19-3.53-18.79-3.41-25.9,0.27s-7.05,9.53,0.13,13.06
			c7.19,3.53,18.79,3.41,25.9-0.27C307.52,351.56,307.46,345.71,300.27,342.18z"/>
		<path id="XMLID_417_" class="st9" d="M287.1,358.96c-4.71,0-9.39-0.88-12.99-2.65c-3.8-1.86-5.9-4.45-5.93-7.27
			c-0.03-2.82,2.02-5.45,5.78-7.39c7.32-3.79,19.3-3.91,26.71-0.27c3.8,1.86,5.9,4.45,5.93,7.27c0.03,2.82-2.02,5.45-5.78,7.39
			C297.05,357.98,292.07,358.96,287.1,358.96z M287.67,340.49c-4.67,0-9.35,0.92-12.88,2.75c-3.13,1.62-4.84,3.67-4.81,5.78
			c0.02,2.11,1.77,4.13,4.93,5.68c6.95,3.42,18.21,3.3,25.09-0.26c3.13-1.62,4.84-3.67,4.81-5.78c-0.02-2.11-1.77-4.13-4.93-5.68
			C296.49,341.32,292.09,340.49,287.67,340.49z"/>
	</g>
	<g id="XMLID_411_">
		<path id="XMLID_415_" class="st10" d="M300.31,346.09c-7.19-3.53-18.79-3.41-25.9,0.27c-2.57,1.33-4.19,2.94-4.89,4.63
			c0.73,1.67,2.39,3.25,4.98,4.53c7.19,3.53,18.79,3.41,25.9-0.27c2.57-1.33,4.19-2.94,4.89-4.63
			C304.56,348.95,302.91,347.37,300.31,346.09z"/>
		<path id="XMLID_412_" class="st9" d="M287.1,358.96c-4.71,0-9.39-0.88-12.99-2.65c-2.69-1.32-4.56-3.04-5.41-4.97l-0.15-0.35
			l0.15-0.35c0.81-1.94,2.64-3.7,5.3-5.08c7.32-3.79,19.31-3.91,26.71-0.27c2.69,1.32,4.56,3.04,5.41,4.97l0.15,0.35l-0.15,0.35
			c-0.81,1.95-2.64,3.7-5.3,5.08C297.05,357.98,292.07,358.96,287.1,358.96z M270.51,350.97c0.75,1.4,2.26,2.69,4.39,3.73
			c6.95,3.42,18.21,3.3,25.09-0.26c2.11-1.09,3.59-2.41,4.31-3.82c-0.75-1.4-2.26-2.68-4.39-3.73c-6.95-3.42-18.21-3.3-25.09,0.26
			C272.71,348.24,271.23,349.56,270.51,350.97z"/>
	</g>
	
		<rect id="XMLID_410_" x="304.71" y="360.05" transform="matrix(0.9999 -0.0101 0.0101 0.9999 -3.6499 3.1032)" class="st10" width="1.38" height="5.71"/>
	
		<rect id="XMLID_409_" x="289.05" y="339.81" transform="matrix(0.9999 -0.0106 0.0106 0.9999 -3.6054 3.0906)" class="st10" width="1.38" height="3.68"/>
	<g id="XMLID_404_">
		<path id="XMLID_408_" class="st9" d="M273.87,347.05l0.03,3.13l4.34,1.55l1.99-3.31l0.06-0.04l15.33,8.64
			c1.31-0.34,2.55-0.77,3.7-1.28l1.63-0.97l-0.04-3.13l-20.3-8.34L273.87,347.05z"/>
		<path id="XMLID_405_" class="st9" d="M295.52,357.76l-15.01-8.46l-1.97,3.27l-5.32-1.91l-0.04-4.02l7.39-4.09l21.03,8.64
			l0.04,3.98l-1.98,1.17c-1.24,0.55-2.52,0.99-3.88,1.35L295.52,357.76z M280.22,347.63l0.41,0.16l15.08,8.5
			c1.19-0.32,2.3-0.72,3.33-1.17l1.22-0.73l-0.02-2.27l-19.58-8.04l-6.09,3.37l0.02,2.24l3.36,1.2l1.79-2.97L280.22,347.63z"/>
	</g>
	<g id="XMLID_399_">
		<polygon id="XMLID_403_" class="st1" points="280.26,345.26 280.2,345.3 278.21,348.61 273.87,347.05 276.71,342.48 
			280.58,340.19 300.91,351.66 296.37,354.35 		"/>
		<path id="XMLID_400_" class="st9" d="M296.38,355.14l-15.91-8.97l-1.96,3.27l-5.68-2.03l3.39-5.44l4.35-2.57l20.94,11.81l0.2,0.83
			l-0.49,0.25L296.38,355.14z M280.19,344.5l0.41,0.16l15.77,8.89l3.18-1.88l-18.95-10.68l-3.38,2l-2.3,3.71l3.01,1.08l1.79-2.97
			L280.19,344.5z"/>
	</g>
	
		<rect id="XMLID_398_" x="298.33" y="362.72" transform="matrix(0.9999 -0.0104 0.0104 0.9999 -3.786 3.1298)" class="st10" width="1.38" height="5.71"/>
	
		<rect id="XMLID_397_" x="267.93" y="360.26" transform="matrix(0.9999 -0.0104 0.0104 0.9999 -3.762 2.8135)" class="st10" width="1.38" height="5.71"/>
	<path id="XMLID_396_" class="st10" d="M251.66,126.29c-0.05-0.62-0.13-1.23-0.21-1.83l5.87-5.56c0.17-0.16,0.13-0.43-0.07-0.55
		l-14.89-8.54c-4.59-2.35-10.55-2.27-17.12,0.7c-18.04,8.14-33.3,33.2-33.3,53.57c0,9.39,3.25,16.02,8.51,19.21
		c0,0,12.94,7.43,15.11,8.68c0.17,0.1,0.39,0.03,0.47-0.15l3.01-6.23l-2.84-1.58c1.84-0.65,3.73-1.53,5.67-2.65
		c0.47-0.27,0.94-0.56,1.41-0.85c1.52,3.02,1.54,8.28,1.04,13.41c-0.11,1.09,0.28,1.69,0.86,1.85l14.02,8.09
		c0.18,0.11,0.42,0.02,0.49-0.18l1.46-3.9l-0.67-16.7h-7.58l14.01-31.82C250.48,142.92,252.32,134.14,251.66,126.29z"/>
	<path id="XMLID_393_" class="st9" d="M239.37,204.81c-0.21,0-0.43-0.06-0.62-0.16l-13.94-8.05c-0.5-0.18-1.58-0.8-1.39-2.76
		c0.52-5.36,0.32-9.48-0.57-12.02c-0.18,0.11-0.36,0.22-0.54,0.32c-1.33,0.77-2.68,1.44-4.02,2.01l1.92,1.07l-3.37,6.99
		c-0.15,0.31-0.42,0.55-0.75,0.65c-0.32,0.1-0.68,0.06-0.98-0.11c-1.61-0.92-15.15-8.7-15.15-8.7c-5.75-3.49-8.92-10.58-8.92-19.97
		c0-20.84,15.81-46.26,33.83-54.39c6.59-2.97,12.94-3.21,17.9-0.68c0.02,0.01,0.8,0.44,1.16,0.66l13.76,7.9
		c0.34,0.19,0.57,0.54,0.61,0.93c0.05,0.39-0.1,0.78-0.38,1.05l-5.53,5.24c0.06,0.46,0.12,0.93,0.16,1.42
		c0.66,7.71-1.01,16.49-4.82,25.4l-13.46,30.58h7.07l0.71,17.74l-1.52,4.07c-0.13,0.34-0.4,0.61-0.74,0.73
		C239.66,204.78,239.51,204.81,239.37,204.81z M223.63,179.23l0.44,0.88c1.38,2.74,1.76,7.42,1.13,13.9
		c-0.04,0.41,0.01,0.84,0.21,0.9l0.21,0.09l13.46,7.77l1.17-3.12l-0.63-15.66h-8.09l14.56-33.08c3.69-8.63,5.31-17.12,4.68-24.54
		c-0.05-0.61-0.13-1.19-0.21-1.77l-0.07-0.46l5.67-5.37l-14.23-8.17c-4.5-2.3-10.16-2.05-16.32,0.73
		c-17.46,7.88-32.78,32.53-32.78,52.76c0,8.74,2.87,15.29,8.08,18.45c0.28,0.17,11.4,6.55,14.57,8.37l2.38-4.94l-3.83-2.13
		l1.86-0.66c1.83-0.65,3.69-1.52,5.52-2.58c0.46-0.27,0.92-0.55,1.38-0.84L223.63,179.23z"/>
	<path id="XMLID_392_" class="st1" d="M246.07,153.28l0.84-1.91c3.57-8.35,5.42-17.12,4.75-24.98c-0.05-0.62-0.13-1.23-0.21-1.83
		l5.87-5.56c0.17-0.16,0.13-0.43-0.07-0.55l-14.89-8.54c-4.59-2.35-10.55-2.27-17.12,0.7c-7.83,3.53-15.14,10.26-20.91,18.41
		L246.07,153.28z"/>
	<path id="XMLID_389_" class="st9" d="M246.48,154.55l-43.44-25.25l0.57-0.8c6.1-8.63,13.66-15.27,21.27-18.71
		c6.59-2.97,12.94-3.21,17.9-0.68c0.02,0.01,0.8,0.44,1.16,0.66l13.76,7.9c0.34,0.19,0.57,0.54,0.61,0.93
		c0.05,0.39-0.09,0.78-0.38,1.05l-5.54,5.24c0.06,0.46,0.11,0.93,0.15,1.42c0.65,7.71-1.01,16.5-4.82,25.4L246.48,154.55z
		 M205.64,128.74L245.65,152l0.44-1c3.69-8.63,5.31-17.12,4.68-24.54c-0.05-0.61-0.13-1.2-0.21-1.78l-0.06-0.46l5.67-5.37
		l-14.23-8.17c-4.5-2.3-10.15-2.05-16.32,0.73C218.52,114.62,211.46,120.75,205.64,128.74z"/>
	<path id="XMLID_388_" class="st9" d="M261.44,159.63c3.57-8.35,5.42-17.12,4.75-24.98c-1.31-15.39-12.46-22.07-26.42-15.78
		c-18.04,8.14-33.3,33.2-33.3,53.57c0,19.09,13.4,26.82,29.93,17.28c0.47-0.27,0.94-0.56,1.41-0.85c1.52,3.01,1.54,8.28,1.04,13.41
		c-0.28,2.84,2.78,2.37,4.1-0.63L261.44,159.63z"/>
	<path id="XMLID_385_" class="st9" d="M240.05,205.07c-0.19,0-0.38-0.02-0.56-0.07c-0.85-0.22-1.71-1.08-1.54-2.81
		c0.52-5.36,0.33-9.48-0.57-12.02c-0.18,0.11-0.36,0.22-0.54,0.32c-8.29,4.78-16.12,5.53-22.06,2.1s-9.21-10.59-9.21-20.15
		c0-20.84,15.81-46.26,33.83-54.39c6.98-3.15,13.61-3.24,18.68-0.25c5.14,3.02,8.34,8.98,9,16.77c0.65,7.71-1.01,16.49-4.82,25.4
		l-18.5,42.04C242.95,203.86,241.43,205.07,240.05,205.07z M238.16,187.59l0.44,0.88c1.38,2.74,1.76,7.42,1.13,13.9
		c-0.04,0.41,0.01,0.85,0.21,0.9c0.41,0.11,1.51-0.46,2.18-1.98l18.5-42.03c3.69-8.64,5.31-17.13,4.68-24.54
		c-0.61-7.2-3.5-12.66-8.12-15.38c-4.56-2.68-10.61-2.56-17.04,0.34c-17.46,7.88-32.78,32.53-32.78,52.76c0,8.9,2.95,15.5,8.32,18.6
		c5.36,3.1,12.56,2.35,20.27-2.1c0.46-0.27,0.92-0.55,1.38-0.84L238.16,187.59z"/>
	<path id="XMLID_384_" class="st10" d="M192.32,168.1l14.53,8.36L192.32,168.1z"/>
	
		<rect id="XMLID_383_" x="198.68" y="163.9" transform="matrix(0.4986 -0.8668 0.8668 0.4986 -49.2711 259.3754)" class="st9" width="1.79" height="16.76"/>
	<path id="XMLID_382_" class="st10" d="M226.34,110.22l14.53,8.36L226.34,110.22z"/>
	
		<rect id="XMLID_381_" x="232.7" y="106.03" transform="matrix(0.4986 -0.8668 0.8668 0.4986 17.9537 259.851)" class="st9" width="1.79" height="16.76"/>
	<path id="XMLID_377_" class="st10" d="M245.13,156.25c0,2-0.63,3.97-1.88,5.91s-3.01,3.68-5.26,5.22v3.87l-2.24,1.29v-3.79
		c-2.66,1.47-4.99,2.28-6.99,2.42v-4.98c0.95-0.01,2.09-0.19,3.42-0.54c1.33-0.36,2.52-0.8,3.57-1.33v-5.85l-1.09,0.14
		c-2.16,0.26-3.68,0.08-4.58-0.55c-0.9-0.63-1.35-1.8-1.35-3.5c0-1.82,0.62-3.68,1.85-5.57c1.24-1.89,2.96-3.6,5.17-5.13v-2.89
		l2.24-1.29v2.81c2.49-1.31,4.75-2.04,6.76-2.17l-1.54,5.3c-1.7,0.18-3.44,0.69-5.23,1.55v5.57c2.12-0.28,3.64-0.34,4.53-0.17
		c0.9,0.17,1.56,0.55,1.98,1.14C244.92,154.3,245.13,155.15,245.13,156.25z M233.64,151.72c0,0.55,0.17,0.91,0.5,1.08
		s0.87,0.22,1.61,0.17v-4.43C234.34,149.59,233.64,150.65,233.64,151.72z M240.21,159.38c0-0.53-0.19-0.87-0.56-1.02
		c-0.37-0.15-0.93-0.21-1.67-0.17v4.7C239.47,161.74,240.21,160.57,240.21,159.38z"/>
	<path id="XMLID_374_" class="st10" d="M236.92,179.57c-11.22,6.48-20.35,1.21-20.35-11.75c0-12.95,9.13-28.76,20.35-35.24
		c11.22-6.48,20.35-1.21,20.35,11.75C257.27,157.28,248.14,173.09,236.92,179.57z M236.92,135c-10.07,5.81-18.25,20-18.25,31.62
		s8.19,16.35,18.25,10.54c10.07-5.81,18.25-20,18.25-31.62C255.18,133.91,246.99,129.18,236.92,135z"/>
	<path id="XMLID_373_" class="st9" d="M187.29,200.86c-2.7-3.3-5.61-2.61-13.01-4.18c-6.36-1.35-12.98-1.22-19.26,0.47
		c-6.23,1.67-10.03,2.75-12.59,5.71l-3.32,1.76l0.08,6.92l0.02,0.17c0.19,4.66,4.04,9,11.66,12.04c7.57,3.03,15.98,3.42,23.89,1.43
		c11.17-2.81,16.71-8.5,16.83-14.18v-6.93L187.29,200.86z"/>
	<path id="XMLID_370_" class="st9" d="M164.94,227.29c-4.98,0-9.89-0.91-14.39-2.71c-7.67-3.07-12.01-7.63-12.22-12.84l-0.02-0.08
		l-0.09-7.58l3.65-1.94c2.8-3.15,7.06-4.29,12.92-5.86c6.35-1.7,13.15-1.87,19.68-0.48c2.06,0.44,3.75,0.7,5.23,0.92
		c3.78,0.58,6.08,0.93,8.21,3.49l4.58,3.42v7.44c-0.13,6.63-6.66,12.25-17.5,14.98C171.68,226.88,168.3,227.29,164.94,227.29z
		 M140.02,205.15l0.09,6.43c0.19,4.55,4.13,8.54,11.1,11.33c7.19,2.88,15.48,3.37,23.34,1.39c9.86-2.48,16.04-7.59,16.15-13.33
		v-6.46l-4.11-3.1c-1.72-2.11-3.54-2.38-7.16-2.93c-1.51-0.23-3.23-0.49-5.34-0.94c-6.25-1.33-12.77-1.17-18.84,0.46
		c-6.37,1.71-9.81,2.73-12.14,5.43l-0.26,0.21L140.02,205.15z"/>
	<path id="XMLID_369_" class="st1" d="M183.78,193.45c10.3,5.81,10.4,15.39,0.22,21.41s-26.79,6.19-37.09,0.38
		c-10.3-5.81-10.4-15.39-0.22-21.41C156.88,187.81,173.48,187.64,183.78,193.45z"/>
	<path id="XMLID_366_" class="st9" d="M165.03,220.37c-6.72,0-13.41-1.44-18.56-4.34c-5.27-2.97-8.2-7.02-8.25-11.4
		c-0.05-4.38,2.8-8.49,8.01-11.57c10.41-6.15,27.45-6.33,37.98-0.39c5.27,2.97,8.2,7.02,8.25,11.4c0.05,4.38-2.8,8.48-8.01,11.56
		C179.13,218.78,172.07,220.37,165.03,220.37z M165.66,190.09c-6.71,0-13.44,1.51-18.51,4.51c-4.64,2.74-7.17,6.3-7.13,10.01
		c0.04,3.71,2.64,7.21,7.34,9.86c10.04,5.66,26.28,5.49,36.19-0.37c4.64-2.74,7.17-6.3,7.13-10.01c-0.04-3.71-2.64-7.21-7.34-9.86
		C178.44,191.47,172.06,190.09,165.66,190.09z"/>
	<path id="XMLID_365_" class="st9" d="M178.23,197.68c-7.19-3.53-18.78-3.41-25.9,0.27c-7.11,3.68-7.05,9.53,0.13,13.06
		c7.19,3.53,18.78,3.41,25.9-0.27C185.48,207.06,185.42,201.22,178.23,197.68z"/>
	<path id="XMLID_362_" class="st9" d="M165.06,214.46c-4.71,0-9.39-0.88-12.99-2.65c-3.8-1.87-5.9-4.45-5.93-7.27
		s2.02-5.45,5.78-7.39c7.32-3.79,19.31-3.91,26.71-0.28c3.8,1.87,5.9,4.45,5.93,7.27s-2.02,5.45-5.78,7.39
		C175.02,213.49,170.03,214.46,165.06,214.46z M165.63,196c-4.67,0-9.35,0.92-12.89,2.75c-3.13,1.62-4.83,3.67-4.81,5.78
		s1.77,4.13,4.93,5.68c6.95,3.42,18.21,3.3,25.09-0.26c3.13-1.62,4.83-3.67,4.81-5.78s-1.77-4.13-4.93-5.68
		C174.45,196.82,170.05,196,165.63,196z"/>
	<path id="XMLID_361_" class="st10" d="M178.27,201.59c-7.19-3.53-18.79-3.41-25.9,0.27c-2.57,1.33-4.19,2.94-4.89,4.63
		c0.73,1.67,2.39,3.25,4.98,4.53c7.19,3.53,18.78,3.41,25.9-0.27c2.57-1.33,4.19-2.94,4.89-4.63
		C182.52,204.45,180.87,202.87,178.27,201.59z"/>
	<path id="XMLID_358_" class="st9" d="M165.06,214.46c-4.71,0-9.39-0.88-12.99-2.65c-2.69-1.32-4.56-3.04-5.41-4.97l-0.15-0.35
		l0.15-0.35c0.81-1.95,2.64-3.7,5.3-5.08c7.33-3.79,19.31-3.91,26.71-0.27c2.69,1.32,4.56,3.04,5.41,4.97l0.15,0.35l-0.15,0.35
		c-0.81,1.95-2.64,3.7-5.3,5.08C175.02,213.49,170.03,214.46,165.06,214.46z M148.47,206.48c0.75,1.4,2.26,2.68,4.39,3.73
		c6.95,3.42,18.21,3.3,25.09-0.26c2.11-1.09,3.59-2.41,4.31-3.82c-0.75-1.4-2.26-2.69-4.39-3.73c-6.95-3.42-18.21-3.3-25.09,0.26
		C150.68,203.75,149.19,205.06,148.47,206.48z"/>
	
		<rect id="XMLID_357_" x="182.67" y="215.56" transform="matrix(0.9999 -0.0101 0.0101 0.9999 -2.1967 1.8632)" class="st10" width="1.38" height="5.71"/>
	
		<rect id="XMLID_356_" x="167.03" y="195.3" transform="matrix(0.9999 -0.0102 0.0102 0.9999 -2.0022 1.7211)" class="st10" width="1.38" height="3.68"/>
	<path id="XMLID_355_" class="st9" d="M151.83,202.56l0.03,3.13l4.34,1.55l1.99-3.31l0.06-0.04l15.33,8.64
		c1.31-0.34,2.55-0.77,3.7-1.28l1.63-0.97l-0.04-3.13l-20.3-8.34L151.83,202.56z"/>
	<path id="XMLID_352_" class="st9" d="M173.48,213.27l-15.02-8.46l-1.96,3.27l-5.32-1.91l-0.04-4.01l7.39-4.09l21.04,8.64l0.04,3.98
		l-1.98,1.17c-1.24,0.55-2.52,0.99-3.88,1.35L173.48,213.27z M158.18,203.13l0.41,0.16l15.08,8.5c1.19-0.32,2.31-0.72,3.33-1.17
		l1.22-0.73l-0.02-2.27l-19.58-8.04l-6.09,3.37l0.02,2.24l3.36,1.2l1.79-2.97L158.18,203.13z"/>
	<polygon id="XMLID_351_" class="st1" points="158.22,200.77 158.16,200.8 156.17,204.11 151.83,202.56 154.68,197.98 158.54,195.7 
		178.88,207.16 174.34,209.85 	"/>
	<path id="XMLID_348_" class="st9" d="M174.34,210.64l-15.91-8.97l-1.97,3.27l-5.68-2.03l3.38-5.44l4.35-2.57l21.03,11.86v0.83
		L174.34,210.64z M158.15,200.01l0.41,0.16l15.77,8.89l3.18-1.88l-18.95-10.69l-3.38,2l-2.31,3.71l3.01,1.08l1.79-2.97
		L158.15,200.01z"/>
	
		<rect id="XMLID_347_" x="176.28" y="218.25" transform="matrix(0.9999 -0.0104 0.0104 0.9999 -2.29 1.8526)" class="st10" width="1.38" height="5.71"/>
	
		<rect id="XMLID_346_" x="145.89" y="215.77" transform="matrix(0.9999 -0.0104 0.0104 0.9999 -2.2659 1.5364)" class="st10" width="1.38" height="5.71"/>
	<path id="XMLID_345_" class="st9" d="M289.69,221.54c-2.7-3.3-5.61-2.61-13.01-4.18c-6.36-1.35-12.98-1.22-19.26,0.47
		c-6.23,1.67-10.03,2.75-12.59,5.71l-3.32,1.76l0.08,6.92l0.02,0.17c0.19,4.66,4.04,9,11.66,12.04c7.57,3.03,15.98,3.42,23.89,1.43
		c11.17-2.81,16.71-8.5,16.83-14.18v-6.92L289.69,221.54z"/>
	<path id="XMLID_342_" class="st9" d="M267.34,247.98c-4.98,0-9.89-0.91-14.39-2.71c-7.67-3.07-12.01-7.63-12.22-12.84l-0.02-0.09
		l-0.09-7.57l3.65-1.94c2.8-3.15,7.06-4.29,12.92-5.86c6.35-1.7,13.15-1.87,19.68-0.48c2.06,0.44,3.75,0.7,5.24,0.92
		c3.78,0.57,6.07,0.93,8.21,3.49l4.58,3.42v7.44c-0.13,6.63-6.66,12.25-17.5,14.98C274.08,247.56,270.7,247.98,267.34,247.98z
		 M242.43,225.84l0.09,6.44c0.19,4.54,4.13,8.54,11.1,11.33c7.19,2.88,15.48,3.37,23.34,1.39c9.86-2.48,16.04-7.59,16.15-13.33
		v-6.46L289,222.1c-1.72-2.1-3.54-2.38-7.16-2.93c-1.51-0.23-3.23-0.49-5.34-0.94c-6.25-1.33-12.77-1.17-18.84,0.46
		c-6.37,1.71-9.81,2.73-12.14,5.43l-0.26,0.2L242.43,225.84z"/>
	<path id="XMLID_341_" class="st1" d="M286.18,214.14c10.3,5.81,10.4,15.39,0.22,21.41s-26.79,6.19-37.09,0.38
		c-10.3-5.81-10.4-15.39-0.22-21.41C259.28,208.5,275.88,208.33,286.18,214.14z"/>
	<path id="XMLID_338_" class="st9" d="M267.43,241.05c-6.72,0-13.41-1.44-18.56-4.34c-5.27-2.97-8.2-7.02-8.25-11.4
		c-0.04-4.38,2.8-8.48,8.01-11.56c10.41-6.15,27.45-6.33,37.98-0.39c5.27,2.97,8.2,7.02,8.25,11.4c0.04,4.38-2.8,8.48-8.01,11.57
		C281.53,239.47,274.47,241.05,267.43,241.05z M268.06,210.78c-6.71,0-13.44,1.51-18.51,4.51c-4.64,2.74-7.17,6.29-7.13,10.01
		c0.04,3.71,2.64,7.21,7.34,9.86c10.04,5.66,26.27,5.49,36.19-0.37c4.64-2.74,7.17-6.29,7.13-10.01c-0.04-3.71-2.64-7.21-7.34-9.86
		C280.84,212.15,274.46,210.78,268.06,210.78z"/>
	<path id="XMLID_337_" class="st9" d="M280.63,218.37c-7.19-3.53-18.78-3.41-25.9,0.27c-7.11,3.68-7.05,9.53,0.13,13.06
		c7.19,3.53,18.79,3.41,25.9-0.27C287.88,227.75,287.82,221.9,280.63,218.37z"/>
	<path id="XMLID_334_" class="st9" d="M267.47,235.15c-4.71,0-9.39-0.88-12.99-2.65c-3.8-1.87-5.9-4.45-5.93-7.27
		s2.02-5.45,5.78-7.39c7.33-3.79,19.3-3.91,26.71-0.28c3.8,1.87,5.9,4.45,5.93,7.27s-2.02,5.45-5.78,7.39
		C277.42,234.17,272.43,235.15,267.47,235.15z M268.03,216.68c-4.67,0-9.35,0.92-12.88,2.75c-3.13,1.62-4.84,3.67-4.81,5.78
		c0.02,2.11,1.77,4.13,4.93,5.68c6.95,3.42,18.21,3.3,25.09-0.26c3.13-1.62,4.83-3.67,4.81-5.78s-1.77-4.13-4.93-5.68
		C276.85,217.51,272.45,216.68,268.03,216.68z"/>
	<path id="XMLID_333_" class="st10" d="M280.67,222.28c-7.19-3.53-18.79-3.41-25.9,0.27c-2.57,1.33-4.19,2.94-4.89,4.63
		c0.73,1.67,2.39,3.25,4.98,4.53c7.19,3.53,18.79,3.41,25.9-0.27c2.57-1.33,4.19-2.94,4.89-4.63
		C284.92,225.13,283.27,223.55,280.67,222.28z"/>
	<path id="XMLID_330_" class="st9" d="M267.47,235.15c-4.71,0-9.39-0.88-12.99-2.65c-2.69-1.32-4.56-3.04-5.41-4.97l-0.15-0.35
		l0.15-0.35c0.81-1.95,2.64-3.7,5.31-5.08c7.33-3.79,19.3-3.91,26.71-0.27c2.69,1.32,4.56,3.04,5.41,4.97l0.15,0.35l-0.15,0.35
		c-0.81,1.95-2.64,3.7-5.31,5.08C277.42,234.17,272.43,235.15,267.47,235.15z M250.87,227.16c0.75,1.4,2.26,2.69,4.39,3.73
		c6.95,3.42,18.21,3.3,25.09-0.26c2.11-1.09,3.59-2.4,4.31-3.82c-0.75-1.4-2.26-2.69-4.39-3.73c-6.95-3.42-18.21-3.3-25.09,0.26
		C253.08,224.43,251.6,225.74,250.87,227.16z"/>
	
		<rect id="XMLID_329_" x="285.09" y="236.24" transform="matrix(0.9999 -0.0104 0.0104 0.9999 -2.4712 2.9852)" class="st10" width="1.38" height="5.71"/>
	
		<rect id="XMLID_328_" x="269.42" y="215.99" transform="matrix(0.9999 -0.0102 0.0102 0.9999 -2.208 2.7666)" class="st10" width="1.38" height="3.68"/>
	<path id="XMLID_327_" class="st9" d="M254.23,223.24l0.03,3.13l4.34,1.55l1.99-3.31l0.06-0.04l15.33,8.64
		c1.31-0.34,2.55-0.77,3.7-1.28l1.63-0.97l-0.04-3.13l-20.3-8.34L254.23,223.24z"/>
	<path id="XMLID_324_" class="st9" d="M275.88,233.95l-15.02-8.47l-1.96,3.27l-5.32-1.91l-0.04-4.02l7.39-4.09l21.04,8.64l0.04,3.98
		l-1.98,1.17c-1.23,0.55-2.51,0.99-3.87,1.35L275.88,233.95z M260.58,223.82l0.41,0.16l15.08,8.5c1.19-0.32,2.31-0.72,3.33-1.17
		l1.22-0.73l-0.02-2.27l-19.58-8.04l-6.09,3.37l0.02,2.24l3.36,1.2l1.79-2.97L260.58,223.82z"/>
	<polygon id="XMLID_323_" class="st1" points="260.62,221.45 260.56,221.49 258.57,224.79 254.23,223.24 257.08,218.67 
		260.94,216.38 281.28,227.85 276.74,230.53 	"/>
	<path id="XMLID_320_" class="st9" d="M276.74,231.33l-15.91-8.97l-1.96,3.27l-5.68-2.03l3.39-5.44l4.35-2.57l20.83,11.77l0.49,0.49
		l-0.62,0.6L276.74,231.33z M260.55,220.69l0.41,0.16l15.77,8.89l3.18-1.88l-18.96-10.69l-3.38,2l-2.31,3.71l3.01,1.08l1.79-2.97
		L260.55,220.69z"/>
	
		<rect id="XMLID_319_" x="278.67" y="238.94" transform="matrix(0.9999 -0.0101 0.0101 0.9999 -2.428 2.834)" class="st10" width="1.38" height="5.71"/>
	
		<rect id="XMLID_318_" x="248.27" y="236.48" transform="matrix(0.9999 -0.0101 0.0101 0.9999 -2.4047 2.5268)" class="st10" width="1.38" height="5.71"/>
</g>
</svg>
