<?xml version="1.0" encoding="utf-8"?>
<!-- Generator: Adobe Illustrator 19.0.0, SVG Export Plug-In . SVG Version: 6.00 Build 0)  -->
<svg version="1.1" id="Warstwa_1" xmlns="http://www.w3.org/2000/svg" xmlns:xlink="http://www.w3.org/1999/xlink" x="0px" y="0px"
	 viewBox="5047 -2306 10125 4644" style="enable-background:new 5047 -2306 10125 4644;" xml:space="preserve">
<style type="text/css">
	.st0{fill:#242D26;}
	.st1{fill:#0E1A17;}
	.st2{fill:#A4DCD7;}
	.st3{fill:#73C47D;}
	.st4{fill:#A8FFCD;}
	.st5{fill:#2C8968;}
	.st6{fill:#333333;}
	.st7{fill:#E1F1EE;stroke:#333333;stroke-width:5;stroke-miterlimit:10;}
	.st8{fill:none;stroke:#333333;stroke-width:5;stroke-miterlimit:10;}
	.st9{fill:#F6D6D9;}
	.st10{fill:#E1F1EE;stroke:#333333;stroke-width:6.001;stroke-miterlimit:10;}
	.st11{fill:none;stroke:#333333;stroke-width:6;stroke-miterlimit:10;}
	.st12{fill:#CCCBA2;}
	.st13{fill:none;stroke:#333333;stroke-width:10;stroke-miterlimit:10;}
	.st14{fill:#E1F1EE;stroke:#333333;stroke-width:5.2558;stroke-miterlimit:10;}
	.st15{fill:#E1F1EE;stroke:#333333;stroke-width:5.3582;stroke-miterlimit:10;}
	.st16{fill:#A8FFCD;stroke:#333333;stroke-width:6;stroke-miterlimit:10;}
	.st17{fill:#F6D6D9;stroke:#333333;stroke-width:5;stroke-miterlimit:10;}
	.st18{fill:#00D1B2;}
	.st19{fill:none;stroke:#333333;stroke-width:5.3582;stroke-miterlimit:10;}
	.st20{fill:#DED6A2;}
	.st21{fill:none;stroke:#333333;stroke-width:15;stroke-miterlimit:10;}
	.st22{fill:none;stroke:#FFFFFF;stroke-width:6;stroke-miterlimit:10;}
	.st23{fill:#008D7F;}
	.st24{fill:#16211F;}
	.st25{opacity:0.5;fill:#0E1A17;enable-background:new    ;}
	.st26{opacity:0.2;fill:#7B8369;enable-background:new    ;}
	.st27{fill:#C5C5BF;stroke:#333333;stroke-width:5;stroke-miterlimit:10;}
</style>
<path id="XMLID_245_" class="st0" d="M5320.5,708.6c0,0,9811-7.1,9811,19.9v628.7c-900.7,571.2-4351,478.2-5781,269.4
	C7752.9,1393.3,8419.6,708.6,5320.5,708.6z"/>
<path class="st1" d="M8876.7,861.1c0,0-212.3,16.2-116.4,51s624.3,167.2,869.1,3.6s-64.8-97.9-64.8-97.9L8876.7,861.1z"/>
<path id="XMLID_81_" class="st2" d="M6969.5,709.6c614.8,0,2448,0,2448,0s-245-351.8-666-351.8s-504,215.9-504,215.9
	S8139,24.6,7680.5,24.6s-621,468-621,468s-179.4-207.6-387,0c0,0-264.9-72.8-459,126.2C6131.2,703.2,6779.2,709.6,6969.5,709.6z"/>
<circle id="XMLID_77_" class="st3" cx="8317.5" cy="-811.4" r="216"/>
<g id="XMLID_34_">
	<path id="XMLID_553_" class="st4" d="M7129.9,76.7c0-39.4,31.4-70.7,71-70.6c39.8,0,71.1,31.5,71,71.6c-0.1,39.2-32,71.1-71.1,71
		C7161.3,148.6,7129.9,116.8,7129.9,76.7z"/>
	<path id="XMLID_552_" class="st4" d="M7129.9-395.9c0.1-39.3,32.1-71.2,71.3-70.9c39.8,0.3,70.8,32.1,70.7,72.4
		c-0.1,38.8-31.7,70.1-70.9,70.2C7161.1-324.1,7129.9-355.6,7129.9-395.9z"/>
	<path id="XMLID_551_" class="st4" d="M8216.8,77.2c0,39.6-31,71-70.5,71.4c-39.2,0.4-71.5-31.9-71.5-71.5
		c0-39.8,31.7-71.3,71.6-71.1C8185.9,6.2,8216.8,37.5,8216.8,77.2z"/>
	<path id="XMLID_550_" class="st4" d="M6255.8,6.1c39.5,0,71.3,31.4,71.4,70.7c0.1,39.8-32.1,72.2-71.4,71.9
		c-39.5-0.3-70.6-31.8-70.6-71.5C6185.1,37.3,6216.1,6.1,6255.8,6.1z"/>
	<path id="XMLID_549_" class="st4" d="M8216.8-394.8c-0.1,39.6-31.6,70.9-71.2,70.7c-39.5-0.2-70.9-31.7-70.9-71.2
		c0-39.4,31.6-71.2,70.9-71.4C8185.3-467,8216.9-435,8216.8-394.8z"/>
	<path id="XMLID_547_" class="st4" d="M8689.7-395.3c0,39.6-31.3,71.1-70.9,71.1c-39.6,0.1-71.1-31.2-71.1-70.8
		c-0.1-40,31.8-72.1,71.3-71.8C8658.3-466.5,8689.6-434.8,8689.7-395.3z"/>
	<path id="XMLID_545_" class="st4" d="M7980.6-394.2c-0.7,39.5-32.6,70.7-71.9,70.1c-39.8-0.6-71.2-33-70.4-72.7
		c0.8-38.7,33.1-70.3,71.6-69.9C7949.5-466.4,7981.3-433.8,7980.6-394.2z"/>
	<path id="XMLID_544_" class="st4" d="M7508.4-394.4c-0.6,39.5-32.5,70.7-71.8,70.2c-39.8-0.5-71.2-32.9-70.5-72.5
		c0.7-38.7,33-70.3,71.5-70.1C7477.1-466.5,7509-433.9,7508.4-394.4z"/>
	<path id="XMLID_543_" class="st4" d="M7319.3-348.1c39.5,0,70.8,31.3,70.8,70.9c0,39.7-31.1,71.1-70.6,71.1
		c-39.9,0.1-71.7-31.7-71.4-71.4C7248.3-316.9,7279.8-348.1,7319.3-348.1z"/>
	<path id="XMLID_542_" class="st4" d="M7791.3-206.1c-39.4,0-70.9-31.6-71-70.9c-0.1-39.7,31.7-71.2,71.7-71.1
		c39.4,0.1,70.4,31.6,70.3,71.4C7862.2-237.2,7830.9-206,7791.3-206.1z"/>
	<path id="XMLID_541_" class="st4" d="M7508.4,77.6c-0.2,39.2-32.3,71.3-71.2,71.1c-39.1-0.2-71.1-32.3-71.1-71.3
		c0-39.7,32-71.5,71.8-71.2C7477.3,6.4,7508.6,38,7508.4,77.6z"/>
	<path id="XMLID_540_" class="st4" d="M7980.7,77.2c0,39.2-31.7,71.2-70.9,71.4c-38.8,0.2-71.2-32-71.4-71
		c-0.2-39.7,31.7-71.7,71.5-71.6C7949.2,6.2,7980.6,37.7,7980.7,77.2z"/>
	<path id="XMLID_538_" class="st4" d="M6893.5-395.2c-0.1-39.2,31.5-71.2,70.8-71.5c38.8-0.3,71.2,31.9,71.5,70.9
		c0.3,39.5-31.8,71.8-71.4,71.7C6924.9-324.3,6893.6-355.6,6893.5-395.2z"/>
	<path id="XMLID_537_" class="st4" d="M6421.3,77c0.2-39.6,31.6-70.9,71.1-70.9c39.7,0,71.6,32.2,71.2,71.8
		c-0.4,39.1-33.1,71.3-71.7,70.8C6452.5,148.1,6421.1,116.2,6421.3,77z"/>
	<path id="XMLID_536_" class="st4" d="M6893.5,77.2c0.1-39.6,31.4-71,70.9-71.1c39.7-0.1,71.7,32,71.4,71.6
		c-0.3,39.1-32.8,71.3-71.5,71C6925.1,148.3,6893.4,116.4,6893.5,77.2z"/>
	<path id="XMLID_535_" class="st4" d="M7129.9-158.7c0-40,31.6-71.6,71.4-71.3c39.5,0.2,70.7,31.6,70.6,71.3
		c0,39.6-31.3,70.8-71,70.8C7161.3-88,7130-119.2,7129.9-158.7z"/>
	<path id="XMLID_534_" class="st4" d="M8453.5,77.4c-0.1,39.1-32.2,71.3-71.2,71.3c-38.9,0-71.2-32.2-71.4-71.2
		c-0.2-39.5,32-71.6,71.7-71.4C8422,6.2,8453.6,38.1,8453.5,77.4z"/>
	<path id="XMLID_533_" class="st4" d="M8453.5-394.4c-1.2,40.3-33.2,71.3-72.8,70.2c-39.3-1-71.1-34.1-69.7-72.6
		c1.4-39.5,34.3-71.2,72.5-70C8423-465.5,8454.6-432.8,8453.5-394.4z"/>
	<path id="XMLID_532_" class="st4" d="M8783.8-393.5c-1.9-38.2,29.1-71,69.1-73.3c38.1-2.1,71.8,30,73.4,70
		c1.6,37.8-29.8,70.9-68.8,72.6C8818.1-322.5,8785.9-352.8,8783.8-393.5z"/>
	<path id="XMLID_531_" class="st4" d="M8216.8-158.7c-0.1,39.7-31.1,70.7-70.9,70.7c-39.9,0-71.2-31.5-71.1-71.7
		c0.1-39.1,32.3-70.7,71.6-70.4C8186-229.8,8216.9-198.5,8216.8-158.7z"/>
	<path id="XMLID_528_" class="st4" d="M7318.8,30c-39.3-0.1-71-32.1-70.8-71.4c0.3-39.4,32-70.8,71.5-70.7s70.6,31.6,70.5,71.4
		C7389.9-1,7358.5,30.2,7318.8,30z"/>
	<path id="XMLID_527_" class="st4" d="M7862.3-41c0,39.7-31.3,71-70.9,71c-39.5,0-71.1-31.6-71.1-71c0-39.3,31.7-71,71.1-71
		C7831-112,7862.3-80.7,7862.3-41z"/>
	<path id="XMLID_525_" class="st4" d="M6611-348.1c39.2,0.1,71,32.2,70.7,71.3c-0.3,39.8-32,70.9-72.1,70.7
		c-38.6-0.2-70.2-32-70.4-70.9C6538.9-316.3,6571.1-348.2,6611-348.1z"/>
	<path id="XMLID_524_" class="st4" d="M7082.2-206.1c-39.1-0.1-71.2-32.4-70.9-71.3c0.3-39.7,32.3-71,72.3-70.8
		c38.7,0.2,70.1,31.8,70.2,70.8C7154.1-237.7,7122.1-206,7082.2-206.1z"/>
	<path id="XMLID_523_" class="st4" d="M8193.1,195c0.2-39.3,32-71,71.2-70.9c39.6,0.1,71,32.1,70.8,72.1
		c-0.2,39.1-32.2,70.5-71.7,70.2C8224,266.1,8192.9,234.6,8193.1,195z"/>
	<path id="XMLID_522_" class="st4" d="M5901.6,502.6c-39.3,0-71.1-31.6-71.2-70.8s31.5-71.3,70.6-71.6c39.6-0.3,71.4,31.5,71.4,71.4
		C5972.4,471.1,5941,502.6,5901.6,502.6z"/>
	<path id="XMLID_520_" class="st4" d="M7744.2,77.1c0,39.5-31.1,71.2-70.4,71.6c-39.2,0.4-71.3-32-71.3-71.7
		c0-39.3,31.6-70.9,71-70.9C7712.8,6.1,7744.2,37.6,7744.2,77.1z"/>
	<path id="XMLID_519_" class="st4" d="M6256.1,242.8c39.7,0,71.1,31.2,71.1,70.6c0,39.2-31.5,70.9-70.8,71.4s-71.2-31.6-71.2-71.6
		C6185.1,273.4,6216,242.8,6256.1,242.8z"/>
	<path id="XMLID_518_" class="st4" d="M8216.8,313.9c-0.1,39.4-32,71.2-71.1,70.9c-39.8-0.3-71.1-32.1-71-72.1
		c0.1-39.2,31.7-70,71.7-69.9C8186.2,242.9,8216.9,273.9,8216.8,313.9z"/>
	<path id="XMLID_516_" class="st4" d="M6657.7,76.8c0-39.4,31.6-70.8,71-70.7c39.3,0.1,70.8,31.8,70.7,71.2
		c0,39.2-31.7,71.2-70.8,71.4C6689.3,148.9,6657.7,116.8,6657.7,76.8z"/>
	<path id="XMLID_515_" class="st4" d="M7956.5,431.1c0.3-39.2,32.3-70.9,71.4-70.8c39,0.1,71.1,32.3,71.1,71.2
		c0,39.4-32.4,71.5-72,71.1C7987.7,502.2,7956.2,470.3,7956.5,431.1z"/>
	<path id="XMLID_514_" class="st4" d="M6610.1,502.6c-39.2-0.2-71-32-71-71.2c-0.1-38.7,32.4-71.1,71.3-71.1
		c39.4,0,71.8,32.6,71.3,71.8C6681.1,471.6,6649.5,502.8,6610.1,502.6z"/>
	<path id="XMLID_513_" class="st4" d="M7082.4,502.6c-39.2-0.1-70.9-31.9-71.1-71.1c-0.1-38.7,32.3-71.1,71.2-71.2
		c39.4-0.1,71.8,32.5,71.3,71.7C7153.4,471.5,7121.8,502.7,7082.4,502.6z"/>
	<path id="XMLID_512_" class="st4" d="M7318.8,502.6c-39.4-0.3-70.9-32-70.8-71.2c0.2-39.6,32.6-71.7,71.9-71.1
		c39.8,0.6,70.5,32.4,70.1,72.7C7389.7,471.8,7357.9,502.9,7318.8,502.6z"/>
	<path id="XMLID_511_" class="st4" d="M7980.7-159c0,39.5-31.2,70.8-70.9,71c-39.3,0.2-71.3-31.3-71.4-70.5
		c-0.2-39.6,31.8-71.6,71.4-71.5C7949.1-229.9,7980.7-198.3,7980.7-159z"/>
	<path id="XMLID_510_" class="st4" d="M7508.4-159.1c0.1,39.5-31,70.8-70.7,71.1c-39.3,0.3-71.4-31.2-71.6-70.4
		c-0.2-39.7,31.7-71.7,71.3-71.6C7476.7-230,7508.3-198.5,7508.4-159.1z"/>
	<path id="XMLID_509_" class="st4" d="M8429.3-277c-0.1-39.4,31.5-71.1,70.8-71.1c39.9,0,71.7,31.7,71.5,71.4
		c-0.2,39.3-31.9,70.7-71.3,70.7C8460.9-206.1,8429.4-237.6,8429.3-277z"/>
	<path id="XMLID_507_" class="st4" d="M7484.2,431.3c0-39,32.1-71,71.2-71c39,0,71.1,32,71.3,71c0.2,39.4-32.2,71.6-71.8,71.3
		C7515.7,502.3,7484.2,470.7,7484.2,431.3z"/>
	<path id="XMLID_506_" class="st4" d="M7791.3,502.6c-39.4-0.2-71-31.7-71-71c0-39.5,32.4-71.8,71.7-71.3
		c39.4,0.4,70.4,32,70.3,71.6C7862.2,471.4,7830.7,502.7,7791.3,502.6z"/>
	<path id="XMLID_504_" class="st4" d="M6208.8,195.8c-0.2,39.4-31.8,70.7-71.2,70.7c-39.2-0.1-71.2-31.9-71.1-71
		c0.1-39.5,32.5-71.7,71.8-71.3C6177.5,124.6,6209,156.5,6208.8,195.8z"/>
	<path id="XMLID_503_" class="st4" d="M7319.3,266.5c-39.4,0.1-70.9-31.2-71.2-70.7c-0.3-39.4,32.1-71.8,71.4-71.6
		s70.6,31.8,70.6,71.3C7390,235.1,7358.8,266.4,7319.3,266.5z"/>
	<path id="XMLID_502_" class="st4" d="M7484.3,194.5c1.3-40.2,33.6-71.4,72.8-70.3c39.2,1.1,71,34.3,69.7,72.6
		c-1.4,40.4-34.2,71.1-74.3,69.6C7514.1,265,7483.1,232.3,7484.3,194.5z"/>
	<path id="XMLID_501_" class="st4" d="M7791.8,266.5c-39.4,0.2-71-30.9-71.5-70.5c-0.5-39.3,31.8-71.9,71.2-71.9
		c39.3,0,70.8,31.7,70.8,71.1C7862.3,235,7831.3,266.3,7791.8,266.5z"/>
	<path id="XMLID_500_" class="st4" d="M7956.5,194.5c1.2-40.2,33.6-71.4,72.8-70.3c39.2,1.1,71,34.3,69.7,72.6
		c-1.4,40.4-34.2,71.1-74.3,69.6C7986.4,265,7955.3,232.3,7956.5,194.5z"/>
	<path id="XMLID_497_" class="st4" d="M6208.8,431.4c0.1,39.4-31.3,70.9-70.7,71.2c-39.5,0.2-71.7-31.8-71.6-71.4
		c0.1-39,32.3-71,71.4-70.9C6177.1,360.4,6208.7,392.1,6208.8,431.4z"/>
	<path id="XMLID_496_" class="st4" d="M7201.5,242.8c39.6,0.1,70.6,31.3,70.5,71c-0.1,39.2-32.1,71.1-71.2,70.9
		c-39.8-0.2-70.9-31.9-70.9-72.1C7130,273.3,7161.3,242.7,7201.5,242.8z"/>
	<path id="XMLID_495_" class="st4" d="M7484.2-277.1c0-39.3,31.7-71,71-71c39.8,0,72,32.1,71.6,71.5s-32.1,70.6-71.5,70.6
		C7515.9-206.1,7484.3-237.8,7484.2-277.1z"/>
	<path id="XMLID_494_" class="st4" d="M6893.5-158.8c0-39.9,31.8-71.5,71.5-71.3c39.2,0.3,71,32.2,70.8,71.3
		c-0.2,39.3-31.9,70.8-71.2,70.8C6925-88.1,6893.5-119.4,6893.5-158.8z"/>
	<path id="XMLID_493_" class="st4" d="M7744.2-395.3c0,39.5-31.3,71-70.7,71.1c-39.3,0.1-71-31.6-71.1-70.8
		c0-39.8,32-72.1,71.2-71.8C7713-466.4,7744.2-434.7,7744.2-395.3z"/>
	<path id="XMLID_492_" class="st4" d="M7956.6-278.3c1.4-41.1,33.3-71,74.8-69.8c37.4,1.1,69.2,35.2,67.7,72.7
		c-1.7,40.9-34.1,70.7-75.4,69.4C7986.4-207.3,7955.3-240.8,7956.6-278.3z"/>
	<path id="XMLID_491_" class="st4" d="M6421.3-159.2c0.3-39.6,31.6-70.8,71.1-70.8s71.7,32.4,71.2,71.7s-32.4,70.7-71.7,70.3
		C6452.2-88.4,6421-119.8,6421.3-159.2z"/>
	<path id="XMLID_490_" class="st4" d="M8689.7-159.1c0,39.7-30.9,70.8-70.7,71.1c-40,0.2-71.4-31.1-71.3-71.3
		c0.1-39.4,31.6-70.8,71.1-70.7C8658.2-230,8689.6-198.5,8689.7-159.1z"/>
	<path id="XMLID_489_" class="st4" d="M7082.6,30c-39.2,0-71.1-31.8-71.2-70.9c-0.1-38.9,32-71,71.1-71.1
		c39.7-0.1,71.9,32,71.5,71.4C7153.5-1.2,7122,30.1,7082.6,30z"/>
	<path id="XMLID_488_" class="st4" d="M6610.7,266.5c-39.3,0.1-71.3-31.4-71.6-70.6c-0.4-39.1,32.3-71.9,71.5-71.7
		c39.1,0.1,71,32.1,71,71.2C6681.6,234.6,6650,266.4,6610.7,266.5z"/>
	<path id="XMLID_487_" class="st4" d="M7083.1,266.5c-39.3,0.2-71.2-31.2-71.8-70.5c-0.5-39,32.2-71.9,71.4-71.8
		c39.1,0,71,32,71.1,71.1C7154,234.5,7122.4,266.3,7083.1,266.5z"/>
	<path id="XMLID_486_" class="st4" d="M6610,30c-39.1-0.1-71.2-32.3-71-71.2c0.2-39.1,32.2-70.9,71.3-70.9c39.3,0,71,31.4,71.2,70.8
		C6681.9-1.7,6649.9,30.1,6610,30z"/>
	<path id="XMLID_485_" class="st4" d="M6657.7-395.7c0-39.4,32.1-71.4,71.1-71.1c39.2,0.4,70.6,32.3,70.6,71.8
		c0,39.3-32.1,71.1-71.3,70.8C6688.5-324.4,6657.6-355.8,6657.7-395.7z"/>
	<path id="XMLID_484_" class="st4" d="M6917.2,196c-0.1,39.5-31.6,70.7-71.1,70.4c-39.4-0.2-71-32-70.9-71.2
		c0.1-39,32.1-71,71.2-71.1C6885.9,124,6917.3,155.8,6917.2,196z"/>
	<path id="XMLID_483_" class="st4" d="M6444.9,196.2c-0.1,39-31.3,70.2-70.4,70.2c-39.7,0.1-71.8-31.9-71.6-71.4
		c0.2-39,32.3-70.9,71.4-70.9C6413.8,124.2,6445,156,6444.9,196.2z"/>
	<path id="XMLID_481_" class="st4" d="M8807.7-276.6c-0.1,39.4-31.6,70.6-71.2,70.5c-39.3-0.1-70.9-31.8-70.8-71.1
		c0-39.7,31.8-71,71.9-70.9C8776.8-348,8807.8-316.4,8807.7-276.6z"/>
	<path id="XMLID_480_" class="st4" d="M8453.2-156c-2.9,40.9-35.5,70.6-74.7,67.8c-39.5-2.8-70.2-36.2-67.5-73.5
		c3-41.1,36.2-71.1,75.4-68.3C8425.9-227.1,8455.9-193.9,8453.2-156z"/>
	<path id="XMLID_479_" class="st4" d="M8193.1-277.4c0.1-39.8,31.7-70.9,71.9-70.8c39.1,0.2,70.3,32,70.1,71.7
		c-0.1,39.2-31.8,70.4-71.5,70.3C8224.4-206.2,8193-237.8,8193.1-277.4z"/>
	<path id="XMLID_477_" class="st4" d="M6917.2,431.8c0,39.6-31.3,70.9-70.8,70.8c-39.3-0.1-71.1-31.7-71.2-70.9
		c-0.1-38.9,31.9-71.2,70.9-71.4C6885.7,360.1,6917.2,391.8,6917.2,431.8z"/>
	<path id="XMLID_476_" class="st4" d="M6444.9,431.5c0,39.8-31,71-70.5,71.1c-39.6,0.1-71.9-32.1-71.5-71.5
		c0.3-39.1,32.5-71,71.5-70.8C6413.8,360.5,6444.9,391.9,6444.9,431.5z"/>
	<path id="XMLID_475_" class="st4" d="M8500.5,30c-39.5,0-71.1-31.5-71.2-70.9c-0.1-39.3,31.6-71.1,71-71.1s71.3,31.7,71.3,70.9
		C8571.6-1.7,8539.9,30,8500.5,30z"/>
	<path id="XMLID_474_" class="st4" d="M6917.2-276.6c-0.1,39.6-31.3,70.6-71,70.5c-39.2-0.1-71-31.9-71-71.1c0-39.6,32-71.1,72-71
		C6886.4-348,6917.3-316.5,6917.2-276.6z"/>
	<path id="XMLID_470_" class="st4" d="M7956.6-39.7c-1.3-37.7,29.7-70.8,67.9-72.3c40.1-1.6,72.9,28.9,74.6,69.3
		c1.6,37.5-30.1,71.5-67.6,72.7C7990.2,31.4,7958,1.4,7956.6-39.7z"/>
	<path id="XMLID_469_" class="st4" d="M7484.4-43c2.1-40.8,34.4-70.8,74.6-69c38.5,1.7,70,35.9,67.7,73.5
		c-2.5,41.1-35.2,70.6-76.2,68.5C7513.2,28.1,7482.5-5.8,7484.4-43z"/>
	<path id="XMLID_468_" class="st4" d="M8193.1-41c0-39.5,31.5-71,71.1-71c39.4,0,71,31.6,70.9,71.1c0,39.5-31.6,71-71.1,70.9
		C8224.6,30,8193.1-1.5,8193.1-41z"/>
	<path id="XMLID_467_" class="st4" d="M7508.4,313.6c-0.2,39.4-32.2,71.3-71.2,71.1c-39.1-0.2-71.1-32.3-71.1-71.4
		c0-39.9,32.1-70.9,73.1-70.6C7477.5,243.1,7508.6,275,7508.4,313.6z"/>
	<path id="XMLID_466_" class="st4" d="M7910,242.8c39.3,0.1,70.5,31.1,70.7,70.2c0.2,39.7-32.4,72.3-71.5,71.7
		c-39.4-0.6-71-32.6-70.8-71.7C7838.6,273.8,7870.2,242.7,7910,242.8z"/>
	<path id="XMLID_464_" class="st4" d="M6019.9,242.8c39.1,0,70.6,31.1,71.1,70.1s-32.6,72.2-71.7,71.9
		c-39.2-0.3-71.2-32.7-70.9-71.5C5948.7,273.6,5980,242.8,6019.9,242.8z"/>
	<path id="XMLID_463_" class="st4" d="M6421.3,313.8c-0.2-39.2,30.9-70.8,69.8-71c40.4-0.2,72.4,30.9,72.5,70.4
		c0.1,39.1-31.6,71.1-70.9,71.6C6453.9,385.3,6421.4,353.1,6421.3,313.8z"/>
	<path id="XMLID_462_" class="st4" d="M6893.5,313.4c0-39.6,31.3-70.6,71.1-70.6c39.6,0,71.4,31.6,71.2,70.8
		c-0.2,39.2-32.3,71.2-71.3,71.2C6925.4,384.7,6893.5,352.7,6893.5,313.4z"/>
	<path id="XMLID_461_" class="st4" d="M6444.9-41c0,39.8-31.1,71.1-70.7,71.1c-39.4,0-71.3-31.7-71.3-70.9
		c-0.1-39.1,31.9-71,71.2-71.1C6413.7-112.1,6444.9-80.8,6444.9-41z"/>
	<path id="XMLID_460_" class="st4" d="M6917.2-40.5c-0.1,39.6-31.4,70.7-71.2,70.6c-39.2-0.1-71.2-32.3-70.8-71.4
		c0.3-39.2,32.3-70.7,71.7-70.6C6886.4-111.8,6917.2-80.5,6917.2-40.5z"/>
	<path id="XMLID_459_" class="st4" d="M7744.2-159.1c0,39.7-31.1,70.9-70.7,71c-39.4,0.1-71-31.4-71-70.8s31.5-71.1,70.8-71.2
		C7712.7-230.1,7744.2-198.5,7744.2-159.1z"/>
	<path id="XMLID_458_" class="st4" d="M6657.7-159.5c0-39.3,31.9-70.9,71.3-70.6c39.3,0.3,70.6,32.1,70.5,71.6
		c-0.1,38.9-31.5,70.2-70.6,70.5C6688.9-87.8,6657.6-119.2,6657.7-159.5z"/>
	<path id="XMLID_457_" class="st4" d="M7673.9,242.8c39.5,0.1,70.5,31.3,70.4,71.1c-0.1,38.8-31.4,70.3-70.4,70.8
		c-39.1,0.5-71.4-31.9-71.4-71.7C7602.5,273.7,7634,242.7,7673.9,242.8z"/>
	<path id="XMLID_456_" class="st4" d="M6729,242.8c39,0.1,70.4,31.5,70.4,70.4c0,39.3-31.4,71.1-70.7,71.5
		c-39.6,0.4-71.2-31.9-71.1-72.7C6657.8,273.3,6689.3,242.7,6729,242.8z"/>
</g>
<polygon id="XMLID_37_" class="st2" points="11864.5,709.6 13502.5,268.6 13918.5,485.6 14098.5,161.6 14210,112.6 14537.5,-190.4 
	15131.5,728.5 "/>
<circle id="XMLID_31_" class="st4" cx="12253" cy="-789.3" r="730.1"/>
<path id="XMLID_3_" class="st2" d="M9769.8-1038.2c0,0,176.7-237.2,368.4-237.2s190.1,83.1,190.1,83.1s37.8-285.2,237.7-285.2
	s207.9,160.4,207.9,160.4s67.6-279.3,493.1-279.3c402.3,0,445.6,410,445.6,410s173.7-145.3,267.4,101c0,0,105.9-133.9,219.8,41.1
	L9769.8-1038.2z"/>
<path id="XMLID_36_" class="st5" d="M13830.8,75.1c0-161.5-131-292.5-292.5-292.5c-14.3,0-28.3,1-42,3
	c12.7-42.3,19.5-87.1,19.5-133.5c0-256-207.5-463.5-463.5-463.5c-168.3,0-315.6,89.6-396.8,223.8c-24.4-5.1-49.8-7.8-75.7-7.8
	c-203.8,0-369,165.2-369,369c0,156.1,97,289.6,234,343.5c-5.9,20-9,40.5-9,61.5c0,198.8,276,360,616.5,360
	c223.9,0,420-69.7,527.9-174C13721.9,344.2,13830.8,222.4,13830.8,75.1z"/>
<path id="XMLID_20_" class="st6" d="M11572.3,211.8c0,0,494.9-163.4,658.5,1.8c0,0,25.8,77.9-73.1,93.6
	c-98.9,15.7-197.2-11.2-197.2-11.2S12152.4,176.4,11572.3,211.8"/>
<polygon id="XMLID_243_" class="st7" points="8891.5,872.6 9284.5,874.6 9284.5,836.6 8889,827.6 "/>
<line id="XMLID_242_" class="st8" x1="8910" y1="836.6" x2="8909.5" y2="872.6"/>
<line id="XMLID_241_" class="st8" x1="8926.5" y1="827.6" x2="8926.5" y2="872.6"/>
<path id="XMLID_240_" class="st9" d="M9266.8-1172.4l48-1.4l201,3.4c0,0,57.8,264-39.3,264S9266.8-1172.4,9266.8-1172.4z"/>
<path id="XMLID_239_" class="st10" d="M9506.8,530.8c0,0-65.4,198.2,81,315.2l-414-2c0,0,33.8-305,54-304.1L9506.8,530.8z"/>
<path id="XMLID_238_" class="st10" d="M8942.8,512.6c0,0-60.9,248.9-66,297s119.6,31.5,405,36c0,0-132.5-62.4-63-297L8942.8,512.6z"
	/>
<path id="XMLID_237_" class="st6" d="M9200.8,647.6c0,0-258.3-26.3-252-126c0,0,242.7,44.6,270,27
	C9218.8,548.6,9207.1,577,9200.8,647.6z"/>
<path id="XMLID_236_" class="st6" d="M9488.8,647.6l22.5-112.9l-292.5,13.9C9234.4,607.9,9338,647.6,9488.8,647.6z"/>
<path id="XMLID_235_" class="st9" d="M9391.7-1256.4c0,0,56.3,65.3,111.1,33.2c54.8-32.2,37.8-249-107.7-240.1s-69.8,196.3-44.1,207
	l-36.2,82.5c0,0,68.2,102,149.5,4.3l8.1-55.5L9391.7-1256.4z"/>
<path id="XMLID_234_" class="st11" d="M9527.8-1343.4c0,0-50.9-9.9-27,72"/>
<circle id="XMLID_233_" class="st6" cx="9520" cy="-1316.8" r="8.8"/>
<circle id="XMLID_232_" class="st6" cx="9454" cy="-1314.8" r="8.8"/>
<path id="XMLID_231_" class="st6" d="M9389.7-1253.4c0,0,25.1,67.1,75.1,81l7-42C9471.8-1214.4,9414.6-1204.1,9389.7-1253.4z"/>
<path id="XMLID_230_" class="st9" d="M9536.9-1163.5c0,0,154.7-6.5,427.1,690.2l-98.2,148.8L9674.2-580L9536.9-1163.5z"/>
<path id="XMLID_229_" class="st12" d="M9092.6-987.2c0,0-26.1,304-23.8,570.8c1.9,220.9-246.2,823.8-232.1,915.7
	c0,0,272.2,59.2,382.3,59.1c110.1,0,300.2-2.7,300.2-2.7l168-724.2c0,0,55-997.7-171.5-1002c0,0,30.1,186.1-50.6,187
	c-70,0.7-163-188.2-163-188.2l-97.9-3.1C9204.4-1174.7,9088.1-1180.3,9092.6-987.2z"/>
<path id="XMLID_228_" class="st10" d="M9559.2-561.3l133.8-285l360,90l-75,480.1c0,0-87.4,60.7-121,42s-329-147-329-147
	L9559.2-561.3z"/>
<path id="XMLID_227_" class="st13" d="M9704-862.3c0,0-231.4-99.5-225,160"/>
<polygon id="XMLID_226_" class="st7" points="9590.5,848.6 9590.5,875.1 9284,875.1 9284.5,847.6 "/>
<path id="XMLID_225_" class="st11" d="M9219.1,558.4c0,0,187.5-704.7,209.7-938.8"/>
<path id="XMLID_224_" class="st14" d="M10053-741.3c-11.2,39.9-112.1,47.9-200.2,23.1c-88.1-24.8-171-88.3-159.8-128.1
	c11.2-39.9,112.3-41.1,200.4-16.3C9981.5-837.8,10064.3-781.2,10053-741.3z"/>
<polygon id="XMLID_223_" class="st7" points="10013.8,-506.4 10172.3,-621.3 10172.3,-576.3 9987.1,-299.2 "/>
<ellipse id="XMLID_222_" class="st15" cx="10226.9" cy="-622.9" rx="77.5" ry="90"/>
<circle id="XMLID_221_" class="st15" cx="10191.2" cy="-656.1" r="7.5"/>
<circle id="XMLID_220_" class="st15" cx="10229.2" cy="-656.1" r="7.5"/>
<circle id="XMLID_219_" class="st15" cx="10267.6" cy="-656.1" r="7.5"/>
<circle id="XMLID_218_" class="st15" cx="10191.2" cy="-621.1" r="7.5"/>
<circle id="XMLID_217_" class="st15" cx="10229.2" cy="-621.1" r="7.5"/>
<circle id="XMLID_216_" class="st15" cx="10267.6" cy="-621.1" r="7.5"/>
<circle id="XMLID_215_" class="st15" cx="10191.2" cy="-589.4" r="7.5"/>
<circle id="XMLID_214_" class="st15" cx="10229.2" cy="-589.4" r="7.5"/>
<circle id="XMLID_213_" class="st15" cx="10267.6" cy="-589.4" r="7.5"/>
<path id="XMLID_212_" class="st6" d="M10023.8-748.4c-8.1,29-101.1,30.3-165.1,12.4c-64-17.9-149-73.4-140.9-102.4s107-27,171-9
	S10031.9-777.4,10023.8-748.4z"/>
<path id="XMLID_211_" class="st9" d="M10055.3-493.1c0,0-100.9,51.3-90,135s-15,105-15,105s119.8-50.1,120-90
	S10093.6-426.9,10055.3-493.1z"/>
<path id="XMLID_210_" class="st15" d="M10003-326.4c0,0-14.8-85.9-14.8-114.9"/>
<path id="XMLID_209_" class="st15" d="M10031.1-363.2c0,0-18-80.6-18-108"/>
<path id="XMLID_208_" class="st15" d="M10041.1-489.2c0,25.2,18,99,18,99"/>
<path id="XMLID_207_" class="st9" d="M9186.6-1169.5c0,0,95.1-8.4,141,142.7s257.1,535.7,329.8,582.4s82.3,71.7,82.3,71.7
	s1.9,23.1-86.7,15.4c-88.7-7.7,190,96.1,190,96.1s-58.9,79.3-170.7,92.8s-565.5-499.2-589.2-892.5
	C9083.1-1060.9,9082.6-1165.3,9186.6-1169.5z"/>
<path id="XMLID_206_" class="st11" d="M9707.8-272.4c0,0,70.6,43.7,108,45"/>
<path id="XMLID_205_" class="st11" d="M9671.8-245.4c0,0,71.5,50.3,99,45"/>
<path id="XMLID_204_" class="st11" d="M9626.8-218.4c0,0,59.2,45.8,82,46"/>
<path id="XMLID_203_" class="st8" d="M9182.8-720.4c0,0,78.2-62.3,135,18s-45,126-45,126"/>
<line id="XMLID_202_" class="st8" x1="8942.5" y1="845.6" x2="8942.5" y2="872.6"/>
<line id="XMLID_201_" class="st8" x1="8959.5" y1="845.6" x2="8959.5" y2="872.6"/>
<line id="XMLID_200_" class="st8" x1="8976.5" y1="845.6" x2="8976.5" y2="872.6"/>
<line id="XMLID_199_" class="st8" x1="8993.5" y1="845.6" x2="8993.5" y2="872.6"/>
<line id="XMLID_198_" class="st8" x1="9009.5" y1="845.6" x2="9009.5" y2="872.6"/>
<line id="XMLID_197_" class="st8" x1="9026.5" y1="845.6" x2="9026.5" y2="872.6"/>
<line id="XMLID_196_" class="st8" x1="9044.5" y1="845.6" x2="9044.5" y2="872.6"/>
<line id="XMLID_195_" class="st8" x1="9061.5" y1="845.6" x2="9061.5" y2="872.6"/>
<line id="XMLID_194_" class="st8" x1="9077.5" y1="845.6" x2="9077.5" y2="872.6"/>
<line id="XMLID_193_" class="st8" x1="9094.5" y1="845.6" x2="9094.5" y2="872.6"/>
<line id="XMLID_192_" class="st8" x1="9111.5" y1="845.6" x2="9111.5" y2="872.6"/>
<line id="XMLID_191_" class="st8" x1="9128.5" y1="845.6" x2="9128.5" y2="872.6"/>
<line id="XMLID_190_" class="st8" x1="9144.5" y1="845.6" x2="9144.5" y2="872.6"/>
<line id="XMLID_189_" class="st8" x1="9161.5" y1="845.6" x2="9161.5" y2="872.6"/>
<line id="XMLID_188_" class="st8" x1="9179.5" y1="845.6" x2="9179.5" y2="872.6"/>
<line id="XMLID_187_" class="st8" x1="9195.5" y1="845.6" x2="9195.5" y2="872.6"/>
<line id="XMLID_186_" class="st8" x1="9212.5" y1="845.6" x2="9212.5" y2="872.6"/>
<line id="XMLID_185_" class="st8" x1="9230.5" y1="845.6" x2="9230.5" y2="872.6"/>
<line id="XMLID_184_" class="st8" x1="9248.5" y1="845.6" x2="9248.5" y2="872.6"/>
<line id="XMLID_183_" class="st8" x1="9265.5" y1="845.6" x2="9265.5" y2="872.6"/>
<polygon id="XMLID_182_" class="st6" points="9297,872.6 9297,846.6 9280,845.6 9280,872.6 "/>
<line id="XMLID_181_" class="st8" x1="9312.5" y1="847.6" x2="9312.5" y2="874.6"/>
<line id="XMLID_180_" class="st8" x1="9329.5" y1="847.6" x2="9329.5" y2="874.6"/>
<line id="XMLID_179_" class="st8" x1="9345.5" y1="847.6" x2="9345.5" y2="874.6"/>
<line id="XMLID_178_" class="st8" x1="9362.5" y1="847.6" x2="9362.5" y2="874.6"/>
<line id="XMLID_177_" class="st8" x1="9379.5" y1="847.6" x2="9379.5" y2="874.6"/>
<line id="XMLID_176_" class="st8" x1="9396.5" y1="847.6" x2="9396.5" y2="874.6"/>
<line id="XMLID_175_" class="st8" x1="9412.5" y1="847.6" x2="9412.5" y2="874.6"/>
<line id="XMLID_174_" class="st8" x1="9429.5" y1="847.6" x2="9429.5" y2="874.6"/>
<line id="XMLID_173_" class="st8" x1="9447.5" y1="847.6" x2="9447.5" y2="874.6"/>
<line id="XMLID_172_" class="st8" x1="9463.5" y1="847.6" x2="9463.5" y2="874.6"/>
<line id="XMLID_171_" class="st8" x1="9480.5" y1="847.6" x2="9480.5" y2="874.6"/>
<line id="XMLID_170_" class="st8" x1="9498.5" y1="847.6" x2="9498.5" y2="874.6"/>
<line id="XMLID_169_" class="st8" x1="9514.5" y1="849.6" x2="9514.5" y2="876.6"/>
<line id="XMLID_168_" class="st8" x1="9531.5" y1="849.6" x2="9531.5" y2="876.6"/>
<line id="XMLID_167_" class="st8" x1="9547.5" y1="849.6" x2="9547.5" y2="876.6"/>
<line id="XMLID_166_" class="st8" x1="9564.5" y1="849.6" x2="9564.5" y2="876.6"/>
<line id="XMLID_165_" class="st8" x1="9578.5" y1="849.6" x2="9578.5" y2="876.6"/>
<path id="XMLID_164_" class="st16" d="M9482.8-1244.4c0,0,9.7,14.1,18,0"/>
<path id="XMLID_59_" class="st0" d="M11130.7,761.1c-1.9-28.7-37.4-51.5-80.9-51.5c-7.4,0-14.5,0.7-21.3,1.9
	c2.2-6.3,3.3-13,3.3-19.9c0-39.8-38.3-72-85.5-72c-14,0-27.2,2.8-38.8,7.9c-17-46.6-61.7-79.9-114.2-79.9
	c-53.4,0-98.7,34.4-115,82.3c-77.7-83.4-234-500.4-474.5-2.3c0,0-108.9-169.7-225,46c0,0-155.9-112.7-208,26s54,126,54,126l1423,1
	C11247.8,826.6,11200.7,797,11130.7,761.1z"/>
<line id="XMLID_162_" class="st13" x1="10425.8" y1="492.6" x2="10425.8" y2="-1478.4"/>
<line id="XMLID_161_" class="st13" x1="10428.9" y1="-189.4" x2="10681.7" y2="-546.4"/>
<line id="XMLID_160_" class="st13" x1="10431.1" y1="316.1" x2="10178.5" y2="-59.9"/>
<line id="XMLID_159_" class="st13" x1="10429.1" y1="-865.4" x2="10581.5" y2="-1155.4"/>
<line id="XMLID_158_" class="st13" x1="10427.8" y1="-1154.4" x2="10229.8" y2="-1334.4"/>
<path id="XMLID_157_" class="st3" d="M10679.5-541.4c0,0-2.8-119.9,157.3-119.9C10836.8-661.3,10830.4-541.4,10679.5-541.4z"/>
<path id="XMLID_156_" class="st4" d="M10188.1-46.7c0,0-119.9,2.8-119.9-157.3C10068.2-204,10188.1-197.6,10188.1-46.7z"/>
<path id="XMLID_155_" class="st4" d="M10578.8-1145.9c0,0-46.4-110.5,102.6-169.1C10681.4-1315,10719.3-1201.2,10578.8-1145.9z"/>
<path id="XMLID_154_" class="st4" d="M10428.3-565c0,0-8.3-119.6,151.6-127C10579.9-692,10579.1-572,10428.3-565z"/>
<path id="XMLID_153_" class="st4" d="M10248.7-1317.8c0,0-115.5,32.2-154.9-122.9C10093.8-1440.8,10211.5-1464.1,10248.7-1317.8z"/>
<path id="XMLID_152_" class="st3" d="M10422.1-1469.3c0,0-95.6-72.3,3.8-197.7C10425.9-1667.1,10515.9-1587.6,10422.1-1469.3z"/>
<path id="XMLID_151_" class="st6" d="M9518.8-1379.4c0,0-36.9-30.3-36-18c1.8,24.5,10.2,64.5-117,54c0,0-71.2-20.1-14.9,87
	c0.2,0.4-64.7-36.2-66.1-96c-1-40.9,37-105.7,99-117C9500.5-1490.8,9518.8-1379.4,9518.8-1379.4z"/>
<path id="XMLID_150_" class="st17" d="M9388-1311.3c0,0-0.3-37.7-30-30c-13.3,3.5-57,17.8,5.8,44"/>
<path id="XMLID_149_" class="st6" d="M9309.3-1368c-18.7-67.5-247.1-120.9-312.5,78.6C8922.7-1063.4,9328-1300.5,9309.3-1368z"/>
<path id="XMLID_148_" class="st3" d="M10318,58c0,0,93.4-75.1,190.8,51.9C10508.9,109.9,10409.9,177.8,10318,58z"/>
<path id="XMLID_147_" class="st4" d="M10536.2-1079.5c0,0-85.6-24-47-149C10489.2-1228.6,10572.6-1197.4,10536.2-1079.5z"/>
<path id="XMLID_146_" class="st4" d="M10420.4-236.4c0,0-97.2,12.1-109.5-105.8C10311-342.3,10408.9-347.7,10420.4-236.4z"/>
<path id="XMLID_145_" class="st3" d="M10424.6-1039.2c0,0-87.6,15.2-105.5-114.4C10319.1-1153.6,10407.7-1161.4,10424.6-1039.2z"/>
<path id="XMLID_4_" class="st4" d="M10595.8-425.9c0,0,100.5-65.3,184.6,70.9C10780.4-355,10675.1-297.5,10595.8-425.9z"/>
<path id="XMLID_143_" class="st4" d="M10229.3,6.8c0,0-60.2-77.3,34.9-148.2C10264.2-141.4,10318.9-60.1,10229.3,6.8z"/>
<path id="XMLID_142_" class="st4" d="M10485.1-968.7c0,0,50.2-53.1,119.6,15.5C10604.7-953.2,10550.6-904,10485.1-968.7z"/>
<path id="XMLID_19_" class="st9" d="M11493.8-194.3l-628,141.9c0,0-105.4,8.5-173.6-57.8c0,0-35.4-16.1-22.7,28s76.9,63.2,38.9,66.3
	c-37.9,3.1-125.5-79-149.9-86.7s-59.1,85.3,5.9,178.5s225.8,145,357.7,116.1s644.3-80.4,644.3-80.4S11442.5-29,11493.8-194.3z"/>
<path id="XMLID_16_" class="st18" d="M11960.6,594.2l237.3,3.3c0,0,236.5,161,192.9,310.2c0,0-14.2,6.4-27,9
	c-55.3,11.4-187.1-37.1-187.1-37.1L11960.6,594.2z"/>
<path id="XMLID_15_" class="st9" d="M11003.7-35.3l-398.6,505.5c0,0-76.5,72.9-171.2,64.4c0,0-37.7,9.8,0,36
	c37.7,26.2,99.5,0.7,72,27c-27.5,26.3-147.2,17.6-171,27s7.8,103.5,117,135s266.7-29.5,351-135s436-473,436-473
	S11067.8,125.5,11003.7-35.3z"/>
<path id="XMLID_11_" class="st9" d="M11379.8-400.4c59,0,45.5-10.5,53.4,43.2c7.9,53.8,185.5,25.6,237.6,16.8
	c0,0-94.1-330.9-254-322.1C11217.8-651.5,11277.9-400.4,11379.8-400.4z"/>
<circle id="XMLID_13_" class="st6" cx="11314" cy="-546.8" r="8.8"/>
<path id="XMLID_26_" class="st11" d="M11349.8-561.4c0,0-31.8-36.1-54-9"/>
<path id="XMLID_27_" class="st9" d="M11286.7-539.8l-11.6,43.4c-1.7,15.1,4.5,21.1,11.4,20l19.5-3.2c5-0.8,8.2-5.1,7.3-9.8
	l-7.9-40.2C11303.6-539,11289.1-540,11286.7-539.8z"/>
<g id="XMLID_25_">
	<g id="XMLID_350_">
		<path id="XMLID_383_" class="st6" d="M12833.8-909.2c1.9,0,1.9-3,0-3C12831.8-912.2,12831.8-909.2,12833.8-909.2L12833.8-909.2z"
			/>
	</g>
</g>
<path id="XMLID_29_" class="st13" d="M12588.8-302.8c0,0-21.8,268.3,171,268.3s171,138,171,138"/>
<path id="XMLID_6_" class="st19" d="M10330.8,657.6c0,0,96.9,19.2,189-18"/>
<path id="XMLID_7_" class="st19" d="M10354.4,698.9c0,0,115.6,12.8,179-18"/>
<path id="XMLID_8_" class="st19" d="M10407.4,738.9c16.9,16.8,162-18,162-18"/>
<path id="XMLID_9_" class="st19" d="M10527.8-64.4c0,0,94.9,84.6,171,90"/>
<path id="XMLID_10_" class="st19" d="M10527.8-1.4c0,0,114.7,79.6,171,72"/>
<path id="XMLID_30_" class="st19" d="M10564.7,76c0,0,92.8,52.5,143.1,48.6"/>
<path id="XMLID_18_" class="st20" d="M11568.5,217.4c0,0-124.5-229.1-165.6-222.2c-8.1,1.3-167.5,171-167.5,171
	s-304.3-110.8-231.7-201.4c244.8-305.2,336.3-331.4,424.1-326.1c140.3,8.5,234-45,234-45s81.5-22.1,243,126
	c283.6,260.1,325.8,493.5,325.8,493.5C12052.1,81.3,11568.5,217.4,11568.5,217.4z"/>
<path id="XMLID_5_" class="st13" d="M12930.8,412.6c0,0,326.6,52.3,324-216c0,0-20.3-135,117-135s117-117,117-117"/>
<ellipse class="st1" cx="12930.3" cy="808.6" rx="336.5" ry="75.3"/>
<path id="XMLID_32_" class="st13" d="M12930.8-154.4c0,0,135-20.6,135-189"/>
<path id="XMLID_33_" class="st13" d="M13101.8,43.6c0,0-12.8,180,153,180"/>
<path id="XMLID_39_" class="st5" d="M7912.6-69.9c0,0-688.8,387.6-1807-858.7C6105.6-928.6,7307.2-1436.3,7912.6-69.9z"/>
<path id="XMLID_44_" class="st3" d="M5589.9,522c0,0-93.9-139.3,151-397.4C5740.8,124.6,5868.9,370.4,5589.9,522z"/>
<line id="XMLID_38_" class="st19" x1="10815.8" y1="196.6" x2="11003.7" y2="-35.3"/>
<line id="XMLID_28_" class="st21" x1="12930.3" y1="808.6" x2="12930.3" y2="-379.4"/>
<path id="XMLID_144_" class="st4" d="M10417.8-29c0,0,16.5-118.7,174.5-93C10592.3-122,10566.8-4.7,10417.8-29z"/>
<path id="XMLID_53_" class="st3" d="M12921.1-35c0,0-1.6-67.6,88.7-67.6C13009.8-102.6,13006.2-35,12921.1-35z"/>
<path id="XMLID_52_" class="st4" d="M12934.3-286.9c0,0-26.2-62.3,57.8-95.4C12992.1-382.3,13013.5-318.1,12934.3-286.9z"/>
<path id="XMLID_51_" class="st4" d="M12604.4-150.3c0,0-4.7-67.4,85.5-71.6C12689.9-221.9,12689.5-154.2,12604.4-150.3z"/>
<path id="XMLID_50_" class="st4" d="M12587.1-264.9c0,0-65.1,18.2-87.4-69.3C12499.8-334.2,12566.2-347.4,12587.1-264.9z"/>
<path id="XMLID_49_" class="st3" d="M12587.9-287.3c0,0-53.9-40.8,2.2-111.5C12590.1-398.8,12640.8-354,12587.9-287.3z"/>
<path id="XMLID_48_" class="st4" d="M12934.3-370.5c0,0-48.2-13.5-26.5-84C12907.8-454.5,12954.8-437,12934.3-370.5z"/>
<path id="XMLID_47_" class="st4" d="M12934.6,103.1c0,0,1.1-55.2,67.9-52.5C13002.5,50.6,12997.6,105.7,12934.6,103.1z"/>
<path id="XMLID_46_" class="st4" d="M12858.7,236c0,0,53.5-13.8,68.8,51.3C12927.5,287.4,12873.2,297.5,12858.7,236z"/>
<path id="XMLID_12_" class="st4" d="M13069.9-305.3c0,0-0.4-41.2,54.7-40.5C13124.5-345.7,13121.8-304.6,13069.9-305.3z"/>
<path id="XMLID_56_" class="st4" d="M13064.4-338c0,0-24.9-32.8,19.6-65.1C13084-403.1,13106.4-368.4,13064.4-338z"/>
<path id="XMLID_57_" class="st4" d="M13040.5-241.6c0,0-41.2-0.9-38.7-55.9C13001.8-297.5,13042.9-293.4,13040.5-241.6z"/>
<path id="XMLID_58_" class="st4" d="M13104.8,50.2c0,0-29.9-28.3,8.8-67.4C13113.6-17.2,13141.3,13.3,13104.8,50.2z"/>
<path id="XMLID_45_" class="st17" d="M11409.8-577.4c0,0,63-22.1,18,54"/>
<path id="XMLID_54_" class="st8" d="M10911.8,487.7c0,0-78-62.5-12.3-135.6c65.7-73.2,132.8,16,132.8,16"/>
<path id="XMLID_61_" class="st22" d="M11976.8,619.6"/>
<path id="XMLID_63_" class="st23" d="M12021.8,605.6c41.6,6,82.7,69.9,108,126s70.1,200.1,14,203s-119-110.7-140-185
	S11972.7,598.5,12021.8,605.6z"/>
<path id="XMLID_65_" class="st23" d="M12154.5,608.5c41.6-6,99.1,43.6,139.3,90.2s124,172,71,190.7s-145.6-72.4-186.7-137.7
	C12136.9,686.4,12105.5,615.6,12154.5,608.5z"/>
<path id="XMLID_68_" class="st6" d="M11373.8-541.4c0,0,6.4-65.6-72-63s21.3-117.1,153-99s138.8,160.3,144,180s-88.5,101.1-135-27
	C11426.7-652.8,11373.8-541.4,11373.8-541.4z"/>
<path id="XMLID_74_" class="st4" d="M13138.3,172.1c0,0-26.2-62.3,57.8-95.4C13196.1,76.7,13217.5,140.9,13138.3,172.1z"/>
<path id="XMLID_73_" class="st4" d="M13070.4,407.7c0,0-4.7-67.4,85.5-71.6C13155.9,336.1,13155.5,403.8,13070.4,407.7z"/>
<path id="XMLID_72_" class="st4" d="M13209.9,346.7c0,0,50.4-45.1,109,23.5C13319,370.2,13265.3,411.4,13209.9,346.7z"/>
<path id="XMLID_71_" class="st3" d="M13245.7,276.8c0,0,15-65.9,102.6-43.8C13348.3,233,13328.3,297.7,13245.7,276.8z"/>
<path id="XMLID_70_" class="st4" d="M13329.3,66.5c0,0-48.2-13.5-26.5-84C13302.8-17.5,13349.8,0,13329.3,66.5z"/>
<path id="XMLID_69_" class="st4" d="M13485.3-46.7c0,0-22.8-34.3,23.7-63.7C13509.1-110.4,13529.2-74.4,13485.3-46.7z"/>
<path id="XMLID_67_" class="st4" d="M13435.7,49.5c0,0,37.7-16.8,58.9,34C13494.6,83.5,13455.8,97.4,13435.7,49.5z"/>
<path id="XMLID_76_" class="st4" d="M12923.9,474c0,0-45,32-82.6-23.3C12841.3,450.7,12888.4,421.9,12923.9,474z"/>
<path id="XMLID_75_" class="st4" d="M12936.7,163.5c0,0-51.4,43.9-108.5-26C12828.3,137.5,12882.9,97.6,12936.7,163.5z"/>
<path class="st1" d="M11065,818c0,0-29.4,127.8,275.6,123.8s513.2-32.4,562.5,10.4c84.4,73.3,254.6-9.8,254.6-9.8l-223.6-120.6
	L11065,818z"/>
<g id="Warstwa_3">
	<rect id="XMLID_78_" x="10227.8" y="-585.1" class="st4" width="7" height="22"/>
	
		<rect id="XMLID_138_" x="10291.5" y="-580.6" transform="matrix(-0.3299 -0.944 0.944 -0.3299 14246.1777 8958.2256)" class="st4" width="22" height="7"/>
	<rect id="XMLID_83_" x="10189.8" y="-585.1" class="st4" width="7" height="22"/>
	<rect id="XMLID_84_" x="10189.8" y="-619.1" class="st4" width="7" height="22"/>
	<rect id="XMLID_85_" x="10227.8" y="-619.1" class="st4" width="7" height="22"/>
	
		<rect id="XMLID_86_" x="10262.3" y="-614.6" transform="matrix(-0.3397 -0.9405 0.9405 -0.3397 14338.0566 8843.626)" class="st4" width="22" height="7"/>
	
		<rect id="XMLID_137_" x="10286.3" y="-614.6" transform="matrix(-0.3397 -0.9405 0.9405 -0.3397 14370.2109 8866.1992)" class="st4" width="22" height="7"/>
	<rect id="XMLID_87_" x="10227.8" y="-654.1" class="st4" width="7" height="22"/>
	<rect id="XMLID_88_" x="10189.8" y="-654.1" class="st4" width="7" height="22"/>
	
		<rect id="XMLID_82_" x="10267.7" y="-649.1" transform="matrix(-0.7548 -0.6559 0.6559 -0.7548 18461.1016 5608.1719)" class="st4" width="22" height="6"/>
	<rect id="XMLID_90_" x="10189.8" y="-485.1" class="st4" width="7" height="22"/>
	<rect id="XMLID_89_" x="10189.8" y="-519.1" class="st4" width="7" height="22"/>
	<rect id="XMLID_79_" x="10189.8" y="-554.1" class="st4" width="7" height="22"/>
	<rect id="XMLID_94_" x="10189.8" y="-383.1" class="st4" width="7" height="22"/>
	<rect id="XMLID_93_" x="10189.8" y="-417.1" class="st4" width="7" height="22"/>
	<rect id="XMLID_92_" x="10189.8" y="-452.1" class="st4" width="7" height="22"/>
	<rect id="XMLID_97_" x="10189.8" y="-281.1" class="st4" width="7" height="22"/>
	<rect id="XMLID_96_" x="10189.8" y="-315.1" class="st4" width="7" height="22"/>
	<rect id="XMLID_95_" x="10189.8" y="-350.1" class="st4" width="7" height="22"/>
	<rect id="XMLID_100_" x="10189.8" y="-178.1" class="st4" width="7" height="22"/>
	<rect id="XMLID_99_" x="10189.8" y="-212.1" class="st4" width="7" height="22"/>
	<rect id="XMLID_98_" x="10189.8" y="-247.1" class="st4" width="7" height="22"/>
	<rect id="XMLID_112_" x="10227.8" y="-485.1" class="st4" width="7" height="22"/>
	<rect id="XMLID_111_" x="10227.8" y="-519.1" class="st4" width="7" height="22"/>
	<rect id="XMLID_110_" x="10227.8" y="-554.1" class="st4" width="7" height="22"/>
	<rect id="XMLID_109_" x="10227.8" y="-383.1" class="st4" width="7" height="22"/>
	<rect id="XMLID_108_" x="10227.8" y="-417.1" class="st4" width="7" height="22"/>
	<rect id="XMLID_107_" x="10227.8" y="-452.1" class="st4" width="7" height="22"/>
	<rect id="XMLID_106_" x="10227.8" y="-281.1" class="st4" width="7" height="22"/>
	<rect id="XMLID_105_" x="10227.8" y="-315.1" class="st4" width="7" height="22"/>
	<rect id="XMLID_104_" x="10227.8" y="-350.1" class="st4" width="7" height="22"/>
	<rect id="XMLID_103_" x="10227.8" y="-178.1" class="st4" width="7" height="22"/>
	<rect id="XMLID_102_" x="10227.8" y="-212.1" class="st4" width="7" height="22"/>
	<rect id="XMLID_101_" x="10227.8" y="-247.1" class="st4" width="7" height="22"/>
	<rect id="XMLID_124_" x="10268.8" y="-485.1" class="st4" width="7" height="22"/>
	<rect id="XMLID_123_" x="10268.8" y="-519.1" class="st4" width="7" height="22"/>
	<rect id="XMLID_122_" x="10268.8" y="-554.1" class="st4" width="7" height="22"/>
	<rect id="XMLID_91_" x="10265.8" y="-585.1" class="st4" width="7" height="22"/>
	<rect id="XMLID_121_" x="10268.8" y="-383.1" class="st4" width="7" height="22"/>
	<rect id="XMLID_120_" x="10268.8" y="-417.1" class="st4" width="7" height="22"/>
	<rect id="XMLID_119_" x="10268.8" y="-452.1" class="st4" width="7" height="22"/>
	<rect id="XMLID_118_" x="10268.8" y="-281.1" class="st4" width="7" height="22"/>
	<rect id="XMLID_117_" x="10268.8" y="-315.1" class="st4" width="7" height="22"/>
	<rect id="XMLID_116_" x="10268.8" y="-350.1" class="st4" width="7" height="22"/>
	<rect id="XMLID_115_" x="10268.8" y="-178.1" class="st4" width="7" height="22"/>
	<rect id="XMLID_114_" x="10268.8" y="-212.1" class="st4" width="7" height="22"/>
	<rect id="XMLID_113_" x="10268.8" y="-247.1" class="st4" width="7" height="22"/>
	<rect id="XMLID_136_" x="10302.8" y="-480.1" class="st4" width="7" height="22"/>
	<rect id="XMLID_135_" x="10302.8" y="-514.1" class="st4" width="7" height="22"/>
	<rect id="XMLID_134_" x="10302.8" y="-549.1" class="st4" width="7" height="22"/>
	<rect id="XMLID_133_" x="10302.8" y="-378.1" class="st4" width="7" height="22"/>
	<rect id="XMLID_132_" x="10302.8" y="-412.1" class="st4" width="7" height="22"/>
	<rect id="XMLID_131_" x="10302.8" y="-447.1" class="st4" width="7" height="22"/>
	<rect id="XMLID_130_" x="10302.8" y="-276.1" class="st4" width="7" height="22"/>
	<rect id="XMLID_129_" x="10302.8" y="-310.1" class="st4" width="7" height="22"/>
	<rect id="XMLID_128_" x="10302.8" y="-345.1" class="st4" width="7" height="22"/>
	<rect id="XMLID_127_" x="10302.8" y="-173.1" class="st4" width="7" height="22"/>
	<rect id="XMLID_126_" x="10302.8" y="-207.1" class="st4" width="7" height="22"/>
	<rect id="XMLID_125_" x="10302.8" y="-242.1" class="st4" width="7" height="22"/>
	<rect id="XMLID_336_" x="10189.8" y="-105.1" class="st4" width="7" height="22"/>
	<rect id="XMLID_335_" x="10189.8" y="-139.1" class="st4" width="7" height="22"/>
	<rect id="XMLID_334_" x="10189.8" y="-3.1" class="st4" width="7" height="22"/>
	<rect id="XMLID_333_" x="10189.8" y="-37.1" class="st4" width="7" height="22"/>
	<rect id="XMLID_280_" x="10189.8" y="-72.1" class="st4" width="7" height="22"/>
	<rect id="XMLID_279_" x="10189.8" y="98.9" class="st4" width="7" height="22"/>
	<rect id="XMLID_278_" x="10189.8" y="64.9" class="st4" width="7" height="22"/>
	<rect id="XMLID_277_" x="10189.8" y="29.9" class="st4" width="7" height="22"/>
	<rect id="XMLID_276_" x="10189.8" y="201.9" class="st4" width="7" height="22"/>
	<rect id="XMLID_275_" x="10189.8" y="167.9" class="st4" width="7" height="22"/>
	<rect id="XMLID_274_" x="10189.8" y="132.9" class="st4" width="7" height="22"/>
	<rect id="XMLID_273_" x="10227.8" y="-105.1" class="st4" width="7" height="22"/>
	<rect id="XMLID_272_" x="10227.8" y="-139.1" class="st4" width="7" height="22"/>
	<rect id="XMLID_271_" x="10227.8" y="-3.1" class="st4" width="7" height="22"/>
	<rect id="XMLID_270_" x="10227.8" y="-37.1" class="st4" width="7" height="22"/>
	<rect id="XMLID_269_" x="10227.8" y="-72.1" class="st4" width="7" height="22"/>
	<rect id="XMLID_268_" x="10227.8" y="98.9" class="st4" width="7" height="22"/>
	<rect id="XMLID_267_" x="10227.8" y="64.9" class="st4" width="7" height="22"/>
	<rect id="XMLID_266_" x="10227.8" y="29.9" class="st4" width="7" height="22"/>
	<rect id="XMLID_265_" x="10227.8" y="201.9" class="st4" width="7" height="22"/>
	<rect id="XMLID_264_" x="10227.8" y="167.9" class="st4" width="7" height="22"/>
	<rect id="XMLID_263_" x="10227.8" y="132.9" class="st4" width="7" height="22"/>
	<rect id="XMLID_262_" x="10268.8" y="-105.1" class="st4" width="7" height="22"/>
	<rect id="XMLID_261_" x="10268.8" y="-139.1" class="st4" width="7" height="22"/>
	<rect id="XMLID_260_" x="10268.8" y="-3.1" class="st4" width="7" height="22"/>
	<rect id="XMLID_259_" x="10268.8" y="-37.1" class="st4" width="7" height="22"/>
	<rect id="XMLID_258_" x="10268.8" y="-72.1" class="st4" width="7" height="22"/>
	<rect id="XMLID_257_" x="10268.8" y="98.9" class="st4" width="7" height="22"/>
	<rect id="XMLID_256_" x="10268.8" y="64.9" class="st4" width="7" height="22"/>
	<rect id="XMLID_255_" x="10268.8" y="29.9" class="st4" width="7" height="22"/>
	<rect id="XMLID_254_" x="10268.8" y="201.9" class="st4" width="7" height="22"/>
	<rect id="XMLID_253_" x="10268.8" y="167.9" class="st4" width="7" height="22"/>
	<rect id="XMLID_252_" x="10268.8" y="132.9" class="st4" width="7" height="22"/>
	<rect id="XMLID_251_" x="10302.8" y="-100.1" class="st4" width="7" height="22"/>
	<rect id="XMLID_250_" x="10302.8" y="-134.1" class="st4" width="7" height="22"/>
	<rect id="XMLID_249_" x="10302.8" y="1.9" class="st4" width="7" height="22"/>
	<rect id="XMLID_248_" x="10302.8" y="-32.1" class="st4" width="7" height="22"/>
	<rect id="XMLID_247_" x="10302.8" y="-67.1" class="st4" width="7" height="22"/>
	<rect id="XMLID_246_" x="10302.8" y="103.9" class="st4" width="7" height="22"/>
	<rect id="XMLID_244_" x="10302.8" y="69.9" class="st4" width="7" height="22"/>
	<rect id="XMLID_163_" x="10302.8" y="34.9" class="st4" width="7" height="22"/>
	<rect id="XMLID_141_" x="10302.8" y="206.9" class="st4" width="7" height="22"/>
	<rect id="XMLID_140_" x="10302.8" y="172.9" class="st4" width="7" height="22"/>
	<rect id="XMLID_139_" x="10302.8" y="137.9" class="st4" width="7" height="22"/>
	<rect id="XMLID_380_" x="10189.8" y="270.9" class="st4" width="7" height="22"/>
	<rect id="XMLID_379_" x="10189.8" y="236.9" class="st4" width="7" height="22"/>
	<rect id="XMLID_378_" x="10189.8" y="372.9" class="st4" width="7" height="22"/>
	<rect id="XMLID_377_" x="10189.8" y="338.9" class="st4" width="7" height="22"/>
	<rect id="XMLID_376_" x="10189.8" y="303.9" class="st4" width="7" height="22"/>
	<rect id="XMLID_375_" x="10189.8" y="474.9" class="st4" width="7" height="22"/>
	<rect id="XMLID_374_" x="10189.8" y="440.9" class="st4" width="7" height="22"/>
	<rect id="XMLID_373_" x="10189.8" y="405.9" class="st4" width="7" height="22"/>
	<rect id="XMLID_372_" x="10189.8" y="577.9" class="st4" width="7" height="22"/>
	<rect id="XMLID_371_" x="10189.8" y="543.9" class="st4" width="7" height="22"/>
	<rect id="XMLID_370_" x="10189.8" y="508.9" class="st4" width="7" height="22"/>
	<rect id="XMLID_369_" x="10227.8" y="270.9" class="st4" width="7" height="22"/>
	<rect id="XMLID_368_" x="10227.8" y="236.9" class="st4" width="7" height="22"/>
	<rect id="XMLID_367_" x="10227.8" y="372.9" class="st4" width="7" height="22"/>
	<rect id="XMLID_366_" x="10227.8" y="338.9" class="st4" width="7" height="22"/>
	<rect id="XMLID_365_" x="10227.8" y="303.9" class="st4" width="7" height="22"/>
	<rect id="XMLID_364_" x="10227.8" y="474.9" class="st4" width="7" height="22"/>
	<rect id="XMLID_363_" x="10227.8" y="440.9" class="st4" width="7" height="22"/>
	<rect id="XMLID_362_" x="10227.8" y="405.9" class="st4" width="7" height="22"/>
	<rect id="XMLID_360_" x="10227.8" y="543.9" class="st4" width="7" height="22"/>
	<rect id="XMLID_359_" x="10227.8" y="508.9" class="st4" width="7" height="22"/>
	<rect id="XMLID_358_" x="10268.8" y="270.9" class="st4" width="7" height="22"/>
	<rect id="XMLID_357_" x="10268.8" y="236.9" class="st4" width="7" height="22"/>
	<rect id="XMLID_356_" x="10268.8" y="372.9" class="st4" width="7" height="22"/>
	<rect id="XMLID_355_" x="10268.8" y="338.9" class="st4" width="7" height="22"/>
	<rect id="XMLID_354_" x="10268.8" y="303.9" class="st4" width="7" height="22"/>
	<rect id="XMLID_353_" x="10268.8" y="474.9" class="st4" width="7" height="22"/>
	<rect id="XMLID_352_" x="10268.8" y="440.9" class="st4" width="7" height="22"/>
	<rect id="XMLID_351_" x="10268.8" y="405.9" class="st4" width="7" height="22"/>
	<rect id="XMLID_348_" x="10268.8" y="508.9" class="st4" width="7" height="22"/>
	<rect id="XMLID_347_" x="10302.8" y="275.9" class="st4" width="7" height="22"/>
	<rect id="XMLID_346_" x="10302.8" y="241.9" class="st4" width="7" height="22"/>
	<rect id="XMLID_345_" x="10302.8" y="377.9" class="st4" width="7" height="22"/>
	<rect id="XMLID_344_" x="10302.8" y="343.9" class="st4" width="7" height="22"/>
	<rect id="XMLID_343_" x="10302.8" y="308.9" class="st4" width="7" height="22"/>
	<rect id="XMLID_342_" x="10302.8" y="479.9" class="st4" width="7" height="22"/>
	<rect id="XMLID_341_" x="10302.8" y="445.9" class="st4" width="7" height="22"/>
	<rect id="XMLID_340_" x="10302.8" y="410.9" class="st4" width="7" height="22"/>
</g>
<g>
	<path class="st1" d="M13489.5,1287.8c0,0-74,4.3-74,22.5s100.3,1.5,235.3,46.9s143.4-100.5,286.7-69.4s88.4-50.1,6-46.5
		C13861.1,1244.8,13489.5,1287.8,13489.5,1287.8z"/>
	<path class="st24" d="M13684.5,1303.5c0,0-74,21.7-130,0s-72.2-18-72.2-18s-110.1-93.9,0-155.2s227.4-41.5,227.4-41.5
		s252.7,28.2,267.1,110.7C13991.4,1281.8,13736.9,1314.3,13684.5,1303.5z"/>
	<path class="st25" d="M13683,1086.1c0,0-128.4-6.5-119.4,27.8s204,23.5,213,0C13785.6,1090.5,13683,1086.1,13683,1086.1z"/>
	<path class="st24" d="M13847.6,1117.5c0,0,89.6-16.2,77-84.7c-12.6-68.6-227.4-63.5-227.4-63.5s-185.9-10.5-185.9,54.4
		s147.7,61.9,147.7,61.9S13831.8,1108.6,13847.6,1117.5z"/>
	<path class="st24" d="M13872.2,906.4c0,0-1.8,64.9-175.1,65.2c-173.3,0.3-153.4-57.9-153.4-57.9s18.4-54.6,161.7-54.6
		C13879.5,859.1,13872.2,906.4,13872.2,906.4z"/>
	<path class="st24" d="M13574.1,884.2c0,0-60.7-29,6.1-85.5c68.1-57.5,255.6-7,259.5,10.3c3.6,16.1,14.3,43.7-53.1,53.1
		S13680.6,840.7,13574.1,884.2z"/>
	<path class="st24" d="M13695.5,677.4c0,0-108.7-23.3-125.5,29.9c-16.8,53.2,63.5,68,113.9,65.8s96.1,20.1,111.1-35
		S13695.5,677.4,13695.5,677.4z"/>
	<path class="st24" d="M13621.3,673.8c0,0-48.6-44.9,10.2-58.9s172.7-4.7,180.1,44.8c0,0,4.4,25.7-42.1,34.8
		C13723,703.5,13701.6,667.1,13621.3,673.8z"/>
	<path class="st25" d="M13548,989.7c0,0,129.4,18.5,157.5,13.1s111.3,0.1,145.7-15.8C13851.2,987,13595.4,954.2,13548,989.7z"/>
	<path class="st1" d="M13602.5,792.1c0,0,65.4-4.1,67.7-19.1l53,0.3c0,0-5.5,16.5,73.1,16.5
		C13796.2,789.7,13663.5,832.8,13602.5,792.1z"/>
	<path class="st25" d="M13777.1,709.2c0,0-74.2,2.8-107-13.2s-58-16-58-16s8.9-14.6,64.2-6.5
		C13731.7,681.5,13768.1,689.6,13777.1,709.2z"/>
	<path class="st25" d="M13433.6,1193.1c0,0,152.2-61.6,217.4-50.2s192.2,72.1,228.8,66.3c36.6-5.7,87.9,22.9,97.7-17.2
		c0,0,38.4,72.1-193.8,107.5c0,0-104.1,12.6-106.4,2.3c0,0-85.9,16.9-133.8-5.7c-41.2-19.4-61.2-10.7-61.2-10.7
		S13424.4,1233,13433.6,1193.1z"/>
	<path class="st25" d="M13740.4,1030.2c-20.7-10.6-222-39.3-226,3c-4,42.2,226.8,53.7,226.8,53.7l105.6,28.6
		c0,0,94.5-19.3,75.5-88.5C13922.2,1026.9,13800.4,1060.9,13740.4,1030.2z"/>
	<path class="st25" d="M13543.7,914.2c0,0,273.5,44.3,325.3-15c0,0,18,69.4-163.6,72.5S13543.7,914.2,13543.7,914.2z"/>
	<path class="st1" d="M13574.1,884.2c0,0-81.6-61.9,107.8-74.6c0,0,69.6-21,104.5,19s54.2-14.1,54.2-14.1s8,49.4-58.9,48.2
		C13714.9,861.6,13630.8,845.8,13574.1,884.2z"/>
	<path class="st1" d="M13794.9,740.4c-7.4,44.1-37.2,37.6-105.2,35.9c-97.9-2.4-123.6-37.8-122-54.7s62.5-16.9,62.5-16.9
		s38.1,1.3,51.8,7s43.2,39.3,68.9,28.9C13776.5,730.3,13797.5,725.1,13794.9,740.4z"/>
	<path class="st25" d="M13656.6,672.6c0,0-59.6-55.9,66.4-47.5s82.7,65.9,46.6,69.3C13733.5,697.9,13730.4,671.5,13656.6,672.6z"/>
	<path class="st26" d="M13705.5,617.4c0,0,2.1,32.9,66.8,28.5S13705.5,617.4,13705.5,617.4z"/>
	<path class="st26" d="M13699.6,714.8c0,0,36.6-20.6,60.4,4.8S13699.6,714.8,13699.6,714.8z"/>
	<path class="st26" d="M13777.1,809.6c0,0,44.1,22.6,52.3,0C13829.4,809.6,13806.5,792.3,13777.1,809.6z"/>
	<path class="st26" d="M13563.1,831.3c0,0,0.4-11.8,9.7-15.5C13582.2,812,13575,828.2,13563.1,831.3z"/>
	<path class="st26" d="M13602.5,896.8c-3,51.6,163.3,36.2,206.9,5.5S13605.5,845.1,13602.5,896.8z"/>
	<path class="st26" d="M13752.7,1022.8c0,0,64.9,25.7,135.9,0S13752.7,1022.8,13752.7,1022.8z"/>
	<path class="st26" d="M13743.4,1148.5c0,0,102.1,59.5,182.4,47.8c80.2-11.8-65-54.8-65-54.8S13749.8,1128.4,13743.4,1148.5z"/>
	<path class="st26" d="M13540.9,1113.1c0,0-84.3,24.2-85.5,71.4c0,0,78.6-45.9,100.6-40.7
		C13578.1,1149,13565.9,1103.7,13540.9,1113.1z"/>
	<path class="st26" d="M13577.1,704.7c0,0,16.3-25.4,39.3-18.6C13639.4,692.9,13577.1,704.7,13577.1,704.7z"/>
	<path class="st26" d="M13612.2,631.8c0,0,7.6,13,17,0S13612.2,631.8,13612.2,631.8z"/>
	<path class="st26" d="M13520.7,1022.8c0,0,17.4-31.4,118.5-12c0,0,27.3-14.6,0-13.8C13611.9,997.8,13529.8,970.1,13520.7,1022.8z"
		/>
</g>
<path id="XMLID_14_" class="st10" d="M11568.5,217.4c0,0-580,129.6-576.7,366.2s106.6,287,243,297s315,0,315,0s-64-256.4,0-252
	s417.1-27.6,417.1-27.6s309.9,8.1,183.4-347.3C12150.3,253.6,11894.4,179.9,11568.5,217.4z"/>
<path id="XMLID_17_" class="st18" d="M11466,592.3c0,0-128,168.5,2.8,296.3l491.9-8.4c0,0,97.9,59.9,174.1,71.4
	c98,14.8,42.2-310.7-104-365L11466,592.3z"/>
<path id="XMLID_22_" class="st11" d="M11976.8,214.6c0,0,109.4,334-135,378"/>
<path id="XMLID_21_" class="st27" d="M11706.8,307.1h198c0,0,21.7,153.6,0,169.8s-189.2,69.4-198-35.4S11706.8,307.1,11706.8,307.1z
	"/>
<path id="XMLID_24_" class="st27" d="M12174.8,325.1h-72c0,0-18.1,152.1,36,151.8l36-8.4"/>
<path id="XMLID_23_" class="st11" d="M11571.8,592.6c0,0-297.8-10.1-306,45"/>
<path id="XMLID_62_" class="st22" d="M11526.8,889.6c0,0-97.7-145,9-297"/>
<path id="XMLID_64_" class="st22" d="M11967.8,592.6c-37.8,155.6,82.8,336.2,108,342"/>
<path class="st1" d="M9721.3,854.6c0,0,70.3-104.4,178.8-104.4s228.1,86.4,228.1,86.4s-150.2-20.8-203.4,7
	S9721.3,854.6,9721.3,854.6z"/>
<path class="st1" d="M10022.6,778.6c0,0,54.5-68.4,105.6-46.4s72,46.4,72,46.4s-128.6-43.7-147.1,13.9L10022.6,778.6z"/>
<ellipse class="st1" cx="10577.5" cy="929.5" rx="205.7" ry="22.6"/>
<path id="XMLID_1_" class="st23" d="M12023.1,606.4c41.6,6,82.7,69.9,108.1,125.9c25.4,56.1,70.2,200.1,14.1,203
	c-56.1,2.9-119.2-110.7-140.1-184.9C11984.2,676.2,11974.1,599.4,12023.1,606.4z"/>
<g id="XMLID_66_">
	<g>
		<path id="XMLID_869_" class="st0" d="M11986.7,648c31.3,0,62.6,0,93.9,0c1.1,0,1.9,0.2,2.5,1.2c0.5,0.8,1.1,1.5,1.7,2.3
			c-0.4,0.1-0.6,0.1-0.9,0.1c-32.3,0-64.5,0-96.8,0c-0.2,0-0.3,0-0.5,0C11986.7,650.4,11986.7,649.2,11986.7,648z"/>
		<path id="XMLID_868_" class="st0" d="M12019.6,603.4c-2.3,0-4.6,0-7,0C12014.9,603.4,12017.3,603.4,12019.6,603.4z"/>
		<path id="XMLID_867_" class="st0" d="M12340.1,759.7c-0.7,0-1.2,0-1.6,0c-50.8,0-101.5,0-152.3,0c-1.1,0-1.9-0.3-2.4-1.3
			c-0.4-0.8-0.9-1.5-1.6-2.4c0.6,0,1,0,1.4,0c51,0,102,0,153,0c0.9,0,1.4,0.2,1.8,1C12338.9,757.8,12339.5,758.6,12340.1,759.7z"/>
		<path id="XMLID_866_" class="st0" d="M12332.3,747.7c-0.7,0-1.2,0-1.7,0c-50.7,0-101.3,0-152,0c-1.2,0-2-0.3-2.5-1.4
			c-0.3-0.7-0.8-1.4-1.3-2.2c0.5,0,0.8-0.1,1.2-0.1c51,0,102,0,153,0c0.8,0,1.2,0.2,1.6,0.9
			C12330.9,745.8,12331.6,746.6,12332.3,747.7z"/>
		<path id="XMLID_865_" class="st0" d="M12190.6,768c0.7,0,1.2,0,1.7,0c50.5,0,101,0,151.4,0c1.2,0,2,0.2,2.5,1.4
			c0.3,0.7,0.8,1.4,1.3,2.3c-0.7,0-1.2,0-1.7,0c-50.4,0-100.7,0-151.1,0c-1.2,0-1.9-0.3-2.5-1.3
			C12191.8,769.6,12191.3,768.9,12190.6,768z"/>
		<path id="XMLID_864_" class="st0" d="M12324,735.7c-0.8,0-1.3,0-1.8,0c-50.4,0-100.7,0-151.1,0c-1.2,0-2-0.3-2.5-1.5
			c-0.3-0.7-0.8-1.4-1.3-2.2c0.7,0,1.1,0,1.6,0c50.3,0,100.6,0,151,0c1.1,0,1.9,0.3,2.4,1.3C12322.8,734,12323.4,734.7,12324,735.7z
			"/>
		<path id="XMLID_863_" class="st0" d="M12315.3,723.7c-0.7,0-1.3,0-1.8,0c-49.8,0-99.7,0-149.5,0c-1.2,0-1.9-0.3-2.4-1.4
			c-0.3-0.7-0.7-1.4-1.2-2.3c0.7,0,1.1,0,1.6,0c49.7,0,99.4,0,149.1,0c1.1,0,1.8,0.3,2.4,1.2C12314,722,12314.6,722.7,12315.3,723.7
			z"/>
		<path id="XMLID_862_" class="st0" d="M12354.5,783.7c-0.7,0-1.2,0-1.7,0c-49.6,0-99.2,0-148.8,0c-1.2,0-2-0.3-2.6-1.3
			c-0.5-0.8-1.1-1.5-1.8-2.4c0.6,0,1,0,1.4,0c50.1,0,100.1,0,150.2,0c0.9,0,1.5,0.2,1.9,1.1
			C12353.5,781.9,12354,782.7,12354.5,783.7z"/>
		<path id="XMLID_861_" class="st0" d="M12306.2,711.7c-0.8,0-1.2,0-1.7,0c-49,0-98.1,0-147.1,0c-1.2,0-1.9-0.3-2.3-1.4
			c-0.3-0.7-0.7-1.4-1.2-2.3c0.6,0,1.1,0,1.6,0c48.8,0,97.6,0,146.4,0c1.1,0,1.8,0.3,2.4,1.2
			C12304.8,710,12305.4,710.7,12306.2,711.7z"/>
		<path id="XMLID_860_" class="st0" d="M12361,795.7c-0.7,0-1.2,0-1.7,0c-48.5,0-97,0-145.4,0c-1.1,0-1.9-0.2-2.5-1.2
			c-0.6-0.8-1.2-1.5-2-2.4c0.6,0,1-0.1,1.3-0.1c49.1,0,98.2,0,147.3,0c0.9,0,1.4,0.3,1.7,1.1C12360,793.9,12360.5,794.7,12361,795.7
			z"/>
		<path id="XMLID_859_" class="st0" d="M12147.9,696c0.7,0,1.2,0,1.7,0c47.4,0,94.7,0,142.1,0c1.3,0,2.1,0.3,2.8,1.3
			c0.5,0.7,1.2,1.4,1.9,2.2c-0.6,0-0.9,0.1-1.3,0.1c-48.1,0-96.2,0-144.2,0c-0.9,0-1.4-0.3-1.7-1.1
			C12148.8,697.8,12148.4,697,12147.9,696z"/>
		<path id="XMLID_858_" class="st0" d="M12366.9,807.7c-0.6,0-1.1,0-1.6,0c-47,0-94.1,0-141.1,0c-1.1,0-1.8-0.3-2.4-1.1
			c-0.6-0.8-1.4-1.5-2.2-2.5c0.5,0,0.9-0.1,1.2-0.1c47.8,0,95.5,0,143.3,0c0.8,0,1.3,0.2,1.6,1
			C12366,805.9,12366.5,806.7,12366.9,807.7z"/>
		<path id="XMLID_857_" class="st0" d="M12285.9,687.7c-0.8,0-1.2,0-1.7,0c-46.2,0-92.4,0-138.7,0c-1.3,0-1.9-0.4-2.2-1.5
			c-0.2-0.7-0.6-1.3-0.9-2.2c0.6,0,1.1,0,1.6,0c45.7,0,91.4,0,137.1,0c1,0,1.8,0.2,2.5,1.1C12284.3,685.9,12285,686.6,12285.9,687.7
			z"/>
		<path id="XMLID_856_" class="st0" d="M12230.6,816c0.8,0,1.3,0,1.7,0c45.6,0,91.2,0,136.7,0c1.2,0,1.9,0.3,2.2,1.5
			c0.2,0.7,0.5,1.3,0.9,2.2c-0.6,0-1.1,0-1.6,0c-44.9,0-89.8,0-134.7,0c-1.2,0-2.1-0.2-2.9-1.2
			C12232.3,817.7,12231.5,817,12230.6,816z"/>
		<path id="XMLID_855_" class="st0" d="M12010.4,768c0.7,0,1.2,0,1.7,0c43.8,0,87.6,0,131.4,0c1.3,0,2,0.3,2.2,1.6
			c0.1,0.7,0.4,1.3,0.7,2.1c-0.7,0-1.2,0-1.7,0c-43.8,0-87.7,0-131.5,0c-1.2,0-1.8-0.3-2.1-1.5
			C12011,769.5,12010.7,768.9,12010.4,768z"/>
		<path id="XMLID_854_" class="st0" d="M12137.6,672c0.7,0,1.2,0,1.8,0c43.4,0,86.8,0,130.2,0c1.2,0,2,0.3,2.8,1.2
			c0.7,0.8,1.6,1.3,2.4,2c-0.1,0.1-0.2,0.3-0.3,0.4c-0.4,0-0.7,0.1-1.1,0.1c-44.3,0-88.7,0-133,0c-1,0-1.5-0.2-1.7-1.2
			C12138.3,673.7,12138,672.9,12137.6,672z"/>
		<path id="XMLID_853_" class="st0" d="M12006.5,756c0.6,0,1.1,0,1.5,0c43.8,0,87.6,0,131.4,0c1.2,0,1.7,0.3,2,1.4
			c0.2,0.7,0.5,1.3,0.8,2.2c-0.5,0-0.9,0.1-1.2,0.1c-44,0-88.1,0-132.1,0c-0.9,0-1.4-0.2-1.6-1.1
			C12007,757.7,12006.7,757,12006.5,756z"/>
		<path id="XMLID_852_" class="st0" d="M12014.8,780c0.7,0,1.2,0,1.7,0c43.7,0,87.3,0,131,0c1.5,0,2.2,0.4,2.4,1.8
			c0.1,0.6,0.3,1.1,0.6,1.9c-0.6,0-1.1,0-1.5,0c-43.8,0-87.6,0-131.4,0c-1.1,0-1.6-0.3-1.9-1.3
			C12015.5,781.6,12015.1,780.9,12014.8,780z"/>
		<path id="XMLID_851_" class="st0" d="M12003,744c0.6,0,1.1,0,1.5,0c43.4,0,86.8,0,130.2,0c1.1,0,1.8,0.3,2,1.4
			c0.2,0.7,0.5,1.4,0.8,2.3c-0.6,0-1.1,0-1.6,0c-43.5,0-87,0-130.5,0c-1.2,0-1.8-0.3-1.9-1.5C12003.4,745.5,12003.2,744.8,12003,744
			z"/>
		<path id="XMLID_850_" class="st0" d="M12154.2,795.7c-0.6,0-1.1,0-1.6,0c-43.4,0-86.7,0-130.1,0c-1.1,0-1.7-0.2-2-1.3
			c-0.2-0.8-0.6-1.5-0.9-2.4c0.6,0,1.1,0,1.5,0c43.5,0,86.9,0,130.4,0c1.2,0,1.8,0.3,2,1.5C12153.7,794.2,12154,794.9,12154.2,795.7
			z"/>
		<path id="XMLID_849_" class="st0" d="M12376.6,831.7c-0.7,0-1.3,0-1.8,0c-42.2,0-84.5,0-126.7,0c-1.3,0-2.4-0.2-3.2-1.3
			c-0.6-0.8-1.5-1.4-2.4-2.4c0.7,0,1.1,0,1.5,0c43.4,0,86.7,0,130.1,0c1.1,0,1.6,0.3,1.8,1.3
			C12376,830.1,12376.3,830.8,12376.6,831.7z"/>
		<path id="XMLID_848_" class="st0" d="M12000.7,735.6c-0.3-1.2-0.6-2.3-0.9-3.6c0.5,0,1,0,1.4,0c42.8,0,85.7,0,128.5,0
			c1.1,0,1.7,0.3,2,1.3c0.2,0.8,0.6,1.5,1,2.3C12088.6,735.6,12044.7,735.6,12000.7,735.6z"/>
		<path id="XMLID_847_" class="st0" d="M12157.7,807.7c-0.6,0-1.1,0-1.6,0c-42.8,0-85.5,0-128.3,0c-1.1,0-1.7-0.3-2-1.3
			c-0.3-0.7-0.6-1.4-1-2.3c0.6,0,1.1,0,1.5,0c43,0,85.9,0,128.9,0c1.2,0,1.8,0.3,1.9,1.5C12157.2,806.2,12157.4,806.8,12157.7,807.7
			z"/>
		<path id="XMLID_846_" class="st0" d="M11997.6,723.6c-0.3-1.2-0.6-2.3-0.9-3.6c0.6,0,1.1,0,1.6,0c41.9,0,83.8,0,125.7,0
			c1.1,0,1.8,0.2,2.1,1.3c0.2,0.7,0.6,1.4,1,2.3C12083.9,723.6,12040.8,723.6,11997.6,723.6z"/>
		<path id="XMLID_845_" class="st0" d="M12160,816.1c0.3,1.2,0.6,2.3,0.9,3.6c-0.6,0-1.1,0-1.6,0c-41.8,0-83.6,0-125.5,0
			c-1.2,0-1.9-0.3-2.3-1.5c-0.2-0.7-0.6-1.4-1-2.1C12073.7,816.1,12116.7,816.1,12160,816.1z"/>
		<path id="XMLID_844_" class="st0" d="M12262.7,663.7c-0.9,0-1.3,0-1.8,0c-41.5,0-82.9,0-124.4,0c-1.4,0-2.1-0.3-2.2-1.7
			c-0.1-0.6-0.3-1.2-0.5-2c0.6,0,1.1,0,1.5,0c40.7,0,81.4,0,122.1,0c1.1,0,2,0.3,2.7,1.1C12260.8,661.9,12261.6,662.7,12262.7,663.7
			z"/>
		<path id="XMLID_843_" class="st0" d="M12121.4,711.6c-42.3,0-84.4,0-126.6,0c-0.3-1.2-0.5-2.3-0.8-3.6c0.6,0,1.1,0,1.6,0
			c40.8,0,81.7,0,122.5,0c1.1,0,1.8,0.2,2.2,1.3C12120.5,710.1,12121,710.7,12121.4,711.6z"/>
		<path id="XMLID_842_" class="st0" d="M12162.9,828.1c0.3,1.1,0.5,2.3,0.8,3.6c-0.6,0-1.1,0-1.5,0c-40.9,0-81.7,0-122.6,0
			c-1,0-1.6-0.2-1.9-1.2c-0.3-0.8-0.8-1.6-1.2-2.4C12078.6,828.1,12120.7,828.1,12162.9,828.1z"/>
		<path id="XMLID_841_" class="st0" d="M12115.2,699.6c-41,0-81.9,0-122.8,0c-0.2-1.1-0.4-2.3-0.7-3.6c0.6,0,1.1,0,1.6,0
			c39.6,0,79.1,0,118.7,0c1.1,0,1.7,0.3,2.1,1.3C12114.3,698,12114.7,698.7,12115.2,699.6z"/>
		<path id="XMLID_840_" class="st0" d="M12380,843.7c-0.6,0-1.1,0-1.6,0c-39.2,0-78.5,0-117.7,0c-0.9,0-1.7-0.2-2.4-0.9
			c-0.9-0.9-1.9-1.7-3-2.7c0.5,0,0.9-0.1,1.2-0.1c40.5,0,80.9,0,121.4,0c0.9,0,1.3,0.2,1.4,1.1
			C12379.5,841.9,12379.8,842.7,12380,843.7z"/>
		<path id="XMLID_839_" class="st0" d="M12042.9,840c41,0,81.7,0,122.6,0c0.2,1.1,0.5,2.3,0.8,3.6c-0.5,0-0.9,0-1.4,0
			c-39.6,0-79.2,0-118.8,0c-0.9,0-1.5-0.2-1.9-1.1C12043.9,841.8,12043.4,841,12042.9,840z"/>
		<path id="XMLID_838_" class="st0" d="M11990.2,687.6c-0.2-1.2-0.4-2.3-0.6-3.6c0.5,0,1,0,1.4,0c38,0,76.1,0,114.1,0
			c1,0,1.6,0.3,2,1.2c0.4,0.8,0.8,1.5,1.3,2.4C12069,687.6,12029.6,687.6,11990.2,687.6z"/>
		<path id="XMLID_837_" class="st0" d="M12167.7,852.1c0.2,1.1,0.4,2.3,0.6,3.6c-0.5,0-0.9,0-1.4,0c-37.9,0-75.8,0-113.7,0
			c-0.9,0-1.5-0.2-1.9-1.1c-0.4-0.8-0.9-1.6-1.5-2.6C12089.2,852.1,12128.4,852.1,12167.7,852.1z"/>
		<path id="XMLID_836_" class="st0" d="M12249.6,651.7c-0.8,0-1.2,0-1.7,0c-38.3,0-76.5,0-114.8,0c-1.4,0-1.9-0.4-1.9-1.7
			c0-0.6-0.2-1.3-0.3-2c0.6,0,1.1,0,1.6,0c37.1,0,74.3,0,111.4,0c1,0,1.8,0.2,2.6,1C12247.4,649.8,12248.4,650.6,12249.6,651.7z"/>
		<path id="XMLID_835_" class="st0" d="M11988.4,675.6c-0.1-1.2-0.3-2.3-0.4-3.6c0.6,0,1,0,1.5,0c36,0,72.1,0,108.1,0
			c1.1,0,1.8,0.3,2.3,1.3c0.4,0.8,0.9,1.5,1.4,2.3C12063.6,675.6,12026.1,675.6,11988.4,675.6z"/>
		<path id="XMLID_834_" class="st0" d="M12169.5,864.1c0.1,1.1,0.3,2.2,0.4,3.5c-0.6,0-1.1,0-1.6,0c-35.7,0-71.4,0-107.1,0
			c-1.1,0-1.8-0.3-2.3-1.2c-0.4-0.8-0.9-1.5-1.5-2.3C12094.8,864.1,12132.1,864.1,12169.5,864.1z"/>
		<path id="XMLID_833_" class="st0" d="M12381.6,852.1c0.1,1.1,0.2,2.2,0.4,3.5c-0.6,0-1.1,0-1.6,0c-34.9,0-69.8,0-104.8,0
			c-1.1,0-1.9-0.2-2.7-0.9c-1-0.9-2.1-1.6-3.3-2.6C12307,852.1,12344.3,852.1,12381.6,852.1z"/>
		<path id="XMLID_832_" class="st0" d="M11987.2,663.6c-0.1-1.2-0.2-2.3-0.3-3.6c0.5,0,1,0,1.5,0c33.8,0,67.6,0,101.4,0
			c1,0,1.5,0.3,2,1.1s1.1,1.6,1.7,2.5C12058,663.6,12022.7,663.6,11987.2,663.6z"/>
		<path id="XMLID_831_" class="st0" d="M12170.7,876.1c0.1,1.1,0.1,2.3,0.2,3.6c-0.6,0-1.1,0-1.7,0c-33.2,0-66.4,0-99.6,0
			c-1,0-1.7-0.2-2.3-1.1c-0.5-0.8-1.1-1.6-1.7-2.5C12100.7,876.1,12135.6,876.1,12170.7,876.1z"/>
		<path id="XMLID_830_" class="st0" d="M12234.7,639.7c-0.5,0-0.9,0-1.4,0c-33.9,0-67.9,0-101.8,0c-1.6,0-1.6,0-1.7-1.7
			c0-0.6,0-1.2,0-1.9c0.5,0,1,0,1.4,0c32.7,0,65.3,0,98,0c0.7,0,1.5,0.3,2.1,0.7c1.2,0.8,2.3,1.7,3.4,2.6
			C12234.8,639.5,12234.7,639.6,12234.7,639.7z"/>
		<path id="XMLID_829_" class="st0" d="M12170.9,891.7c-0.6,0-1.1,0-1.7,0c-30,0-60.1,0-90.1,0c-1.2,0-2-0.3-2.6-1.2
			c-0.5-0.8-1.2-1.5-1.9-2.4c32.2,0,64.2,0,96.3,0C12170.9,889.3,12170.9,890.4,12170.9,891.7z"/>
		<path id="XMLID_828_" class="st0" d="M12285.4,864.1c32.4,0,64.4,0,96.6,0c-0.1,1.2-0.3,2.3-0.4,3.6c-0.5,0-0.9,0-1.4,0
			c-29.5,0-58.9,0-88.4,0c-0.7,0-1.5-0.3-2.1-0.6C12288.4,866.1,12287.1,865.2,12285.4,864.1z"/>
		<path id="XMLID_827_" class="st0" d="M11987.1,639.6c0.1-1.2,0.2-2.3,0.3-3.6c0.5,0,1,0,1.4,0c27.3,0,54.6,0,82,0
			c0.9,0,1.5,0.2,2,0.9c0.7,0.9,1.4,1.7,2.3,2.7C12045.7,639.6,12016.5,639.6,11987.1,639.6z"/>
		<path id="XMLID_826_" class="st0" d="M12218.1,627.6c-29.1,0-58.2,0-87.5,0c0.3-1.2,0.6-2.4,0.9-3.6c0.6,0,1,0,1.5,0
			c26.1,0,52.3,0,78.4,0c1,0,1.9,0.2,2.7,0.8c1.3,0.9,2.7,1.7,4,2.6C12218.1,627.4,12218.1,627.5,12218.1,627.6z"/>
		<path id="XMLID_825_" class="st0" d="M12084.9,900.1c28.6,0,56.9,0,85.4,0c-0.1,1.2-0.3,2.4-0.4,3.6c-0.6,0-1.1,0-1.5,0
			c-26.2,0-52.4,0-78.6,0c-1,0-1.7-0.2-2.4-1C12086.7,901.8,12085.9,901.1,12084.9,900.1z"/>
		<path id="XMLID_824_" class="st0" d="M11989,627.6c0.3-1.1,0.6-2.1,0.9-3.1c0.1-0.2,0.4-0.3,0.6-0.4c0.3-0.1,0.6,0,1,0
			c22.3,0,44.7,0,67,0c1.1,0,1.9,0.3,2.6,1c0.8,0.8,1.7,1.6,2.7,2.5C12038.8,627.6,12014,627.6,11989,627.6z"/>
		<path id="XMLID_823_" class="st0" d="M12378.8,876.1c-0.1,0.2-0.1,0.3-0.1,0.4c-1.7,3.2-1.7,3.2-5.2,3.2c-20.1,0-40.2,0-60.3,0
			c-1,0-2-0.3-2.8-0.7c-1.8-0.8-3.5-1.8-5.2-2.9C12329.6,876.1,12354.1,876.1,12378.8,876.1z"/>
		<path id="XMLID_822_" class="st0" d="M12097.2,912.1c23.8,0,47.2,0,70.8,0c-0.4,1.1-0.7,2.1-1.1,3.1c-0.1,0.2-0.4,0.4-0.7,0.5
			s-0.6,0-1,0c-20.7,0-41.4,0-62.1,0c-1.2,0-2.1-0.3-3-1.1C12099.3,913.8,12098.3,913,12097.2,912.1z"/>
		<path id="XMLID_821_" class="st0" d="M12136.3,615.3c1.2-1,2.3-2,3.5-3c0.3-0.2,0.7-0.3,1.1-0.3c15.9,0,31.7,0,47.6,0
			c0.4,0,0.8,0,1.2,0.2c2.5,1,4.9,2.1,7.3,3.3c-20.2,0-40.4,0-60.6,0C12136.4,615.5,12136.4,615.4,12136.3,615.3z"/>
		<path id="XMLID_820_" class="st0" d="M11993.6,615.6c0.8-1.2,1.5-2.2,2.3-3.2c0.2-0.2,0.7-0.4,1-0.4c15.4,0,30.8,0,46.2,0
			c0.3,0,0.7,0,1,0.2c1.7,1,3.3,2.1,5.3,3.3C12030.7,615.6,12012.3,615.6,11993.6,615.6z"/>
		<path id="XMLID_819_" class="st0" d="M12113.8,924.1c16,0,31.9,0,47.9,0c-0.8,2.1-3,3.6-5.2,3.6c-11.6,0-23.1,0-34.7,0
			c-1.1,0-2.2-0.3-3.2-0.8c-1.7-0.8-3.3-1.7-4.9-2.6C12113.7,924.2,12113.7,924.1,12113.8,924.1z"/>
		<path id="XMLID_818_" class="st0" d="M12334.8,888.1c9.5,0,18.9,0,28.4,0C12353.7,891,12344.3,890.4,12334.8,888.1z"/>
	</g>
</g>
</svg>
