<?xml version="1.0" encoding="utf-8"?>
<!-- Generator: Adobe Illustrator 25.2.0, SVG Export Plug-In . SVG Version: 6.00 Build 0)  -->
<svg version="1.1" id="Capa_1" xmlns="http://www.w3.org/2000/svg" xmlns:xlink="http://www.w3.org/1999/xlink" x="0px" y="0px"
	 viewBox="0 0 70 70" style="enable-background:new 0 0 70 70;" xml:space="preserve">
<style type="text/css">
	.st0{fill:#43B38F;}
</style>
<path class="st0" d="M46.2,64.2c0,1,0.8,1.8,1.8,1.8h20.3c0.9,0,1.7-0.8,1.7-1.8l0,0c0-1-0.7-1.8-1.7-1.8H48
	C47,62.4,46.2,63.2,46.2,64.2L46.2,64.2z"/>
<path class="st0" d="M44.2,64.2c0-1-0.8-1.8-1.8-1.8H10.9c-3.7-0.1-6.8-3.1-6.8-6.9V6.1c0-1.2-0.9-2.1-2-2.1l0,0C0.9,4,0,4.9,0,6.1
	v53.1C0,62.9,3.1,66,6.8,66h35.6C43.4,66,44.2,65.2,44.2,64.2L44.2,64.2z"/>
<path class="st0" d="M69.8,17.4c-0.2-0.1-0.4-0.2-0.6-0.1l-6.7,2.5c-0.2,0.1-0.4,0.3-0.4,0.5s0,0.4,0.2,0.6l2.2,1.8L54.1,33.6
	c-0.7-0.9-1.8-1.5-3-1.3c-0.4,0.1-0.8,0.2-1.2,0.4l-8.1-7.8c0.1-0.4,0.2-0.9,0.2-1.4c-0.2-1.8-1.8-3-3.6-2.8s-3,1.8-2.8,3.6
	c0.1,0.9,0.6,1.6,1.3,2.2l-6,22.6c-0.2,0-0.3,0.1-0.4,0.1l-11-12.7c0.3-0.5,0.5-1.2,0.4-1.8c-0.2-1.8-1.8-3-3.6-2.8s-3,1.8-2.8,3.6
	c0.1,0.6,0.4,1.1,0.7,1.5L6.1,50.1l2.2,1.3l8.2-13.3c0.2,0,0.4,0.1,0.6,0c0.2,0,0.3-0.1,0.4-0.1l11,12.7c-0.3,0.5-0.4,1.1-0.4,1.8
	c0.2,1.8,1.8,3,3.6,2.8c1.8-0.2,3-1.8,2.8-3.6c-0.1-0.8-0.5-1.5-1.1-2l6-22.8c0.2,0,0.5-0.1,0.7-0.2l8.4,8c-0.1,0.4-0.1,0.7-0.1,1.1
	c0.2,1.8,1.8,3,3.6,2.8c1.4-0.2,2.4-1.2,2.7-2.5l11.2-12.2l1.9,1.5c0.1,0.1,0.3,0.1,0.4,0.1s0.1,0,0.2,0c0.2-0.1,0.4-0.3,0.4-0.5
	l1.2-7C70,17.8,69.9,17.5,69.8,17.4z M67.7,23.8l-3.9-3.2l4.7-1.7L67.7,23.8z"/>
</svg>
