<?xml version="1.0" encoding="utf-8"?>
<!-- Generator: Adobe Illustrator 25.2.0, SVG Export Plug-In . SVG Version: 6.00 Build 0)  -->
<svg version="1.1" id="Capa_1" xmlns="http://www.w3.org/2000/svg" xmlns:xlink="http://www.w3.org/1999/xlink" x="0px" y="0px"
	 viewBox="0 0 70 70" style="enable-background:new 0 0 70 70;" xml:space="preserve">
<style type="text/css">
	.st0{fill:#43B38F;}
</style>
<g>
	<g>
		<path class="st0" d="M56.4,0H23.8c-0.6,0-1,0.5-1,1s0.5,1,1,1h32.6c1.6,0,2.8,1.3,2.8,2.8v60.2c0,1.6-1.3,2.8-2.8,2.8H13.6
			c-1.6,0-2.8-1.3-2.8-2.8V4.9c0-1.6,1.3-2.8,2.8-2.8h6.1c0.6,0,1-0.5,1-1s-0.5-1-1-1h-6.1c-2.7,0-4.9,2.2-4.9,4.9v60.2
			c0,2.7,2.2,4.9,4.9,4.9h42.7c2.7,0,4.9-2.2,4.9-4.9V4.9C61.3,2.2,59.1,0,56.4,0L56.4,0z"/>
		<path class="st0" d="M35,40.5H19.1c-0.6,0-1,0.5-1,1c0,0.6,0.5,1,1,1H35c0.6,0,1-0.5,1-1C36,41,35.6,40.5,35,40.5z"/>
		<path class="st0" d="M35,46H19.1c-0.6,0-1,0.5-1,1c0,0.6,0.5,1,1,1H35c0.6,0,1-0.5,1-1C36,46.5,35.6,46,35,46z"/>
		<path class="st0" d="M15.3,31.5c0.6,0,1-0.5,1-1s-0.5-1-1-1c-0.6,0-1,0.5-1,1S14.8,31.5,15.3,31.5z"/>
		<path class="st0" d="M15.3,37c0.6,0,1-0.5,1-1s-0.5-1-1-1c-0.6,0-1,0.5-1,1S14.8,37,15.3,37z"/>
		<path class="st0" d="M15.3,42.6c0.6,0,1-0.5,1-1c0-0.6-0.5-1-1-1c-0.6,0-1,0.5-1,1C14.3,42.1,14.8,42.6,15.3,42.6z"/>
		<path class="st0" d="M15.3,48.1c0.6,0,1-0.5,1-1c0-0.6-0.5-1-1-1c-0.6,0-1,0.5-1,1C14.3,47.6,14.8,48.1,15.3,48.1z"/>
		<path class="st0" d="M35,51.6H19.1c-0.6,0-1,0.5-1,1s0.5,1,1,1H35c0.6,0,1-0.5,1-1S35.6,51.6,35,51.6z"/>
		<path class="st0" d="M15.3,53.6c0.6,0,1-0.5,1-1s-0.5-1-1-1c-0.6,0-1,0.5-1,1S14.8,53.6,15.3,53.6z"/>
		<path class="st0" d="M36,58.1c0-0.6-0.5-1-1-1H19.1c-0.6,0-1,0.5-1,1s0.5,1,1,1H35C35.6,59.1,36,58.7,36,58.1z"/>
		<path class="st0" d="M15.3,64.7h5.8c0.6,0,1-0.5,1-1c0-0.6-0.5-1-1-1h-5.8c-0.6,0-1,0.5-1,1C14.3,64.2,14.8,64.7,15.3,64.7z"/>
		<path class="st0" d="M48.1,64.7h5.8c0.6,0,1-0.5,1-1c0-0.6-0.5-1-1-1h-5.8c-0.6,0-1,0.5-1,1C47.1,64.2,47.6,64.7,48.1,64.7z"/>
		<path class="st0" d="M15.3,59.1c0.6,0,1-0.5,1-1c0-0.6-0.5-1-1-1c-0.6,0-1,0.5-1,1C14.3,58.7,14.8,59.1,15.3,59.1z"/>
	</g>
	<path class="st0" d="M35,29.4H19.1c-0.6,0-1,0.5-1,1c0,0.6,0.5,1,1,1H35c0.6,0,1-0.5,1-1C36,29.9,35.6,29.4,35,29.4z"/>
	<path class="st0" d="M36,36c0-0.6-0.5-1-1-1H19.1c-0.6,0-1,0.5-1,1s0.5,1,1,1H35C35.6,37,36,36.6,36,36z"/>
	<path class="st0" d="M53.8,17.2l-1.2-0.3v-0.6c0-0.5-0.4-0.9-0.9-1v-2.7c0-1.5-1.3-2.9-2.9-2.9h-1.5c-1.5,0-2.9,1.3-2.9,2.9v2.8
		c-0.5,0-0.9,0.4-0.9,1v30.2c0,0.1,0,0.2,0.1,0.4l3.6,8.2c0.1,0.3,0.5,0.6,0.9,0.6c0.4,0,0.7-0.2,0.9-0.6l3.6-8.2
		c0-0.1,0.1-0.2,0.1-0.4V18.9l0.7,0.2c1,0.2,1.7,1.2,1.7,2.2v7.2c0,0.5,0.4,1,1,1c0.5,0,1-0.4,1-1v-7.2
		C56.9,19.4,55.6,17.7,53.8,17.2z M45.4,44.6V17.3h5.3v27.3H45.4z M47.3,11.7h1.5c0.5,0,1,0.4,1,1v2.7h-3.5v-2.7
		C46.3,12.2,46.8,11.7,47.3,11.7z M48.1,52.4l-2.6-5.9h5.2L48.1,52.4z"/>
	<path class="st0" d="M26.6,26c0.6,0,1-0.5,1-1v-0.5h0.4c1.9,0,3.4-1.5,3.4-3.4v-1.8c0-1.9-1.5-3.4-3.4-3.4h-0.4v-4.4h0.4
		c0.7,0,1.3,0.6,1.3,1.3V13c0,0.6,0.5,1,1,1s1-0.5,1-1v-0.2c0-1.9-1.5-3.4-3.4-3.4h-0.4V8.6c0-0.6-0.5-1-1-1c-0.6,0-1,0.5-1,1v0.8
		h-0.4c-1.9,0-3.4,1.5-3.4,3.4v1.8c0,1.9,1.5,3.4,3.4,3.4h0.4v4.4h-0.4c-0.7,0-1.3-0.6-1.3-1.3c0-0.6-0.5-1-1-1s-1,0.5-1,1
		c0,1.9,1.5,3.4,3.4,3.4h0.4v0.5C25.6,25.5,26.1,26,26.6,26z M25.2,15.9c-0.7,0-1.3-0.6-1.3-1.3v-1.8c0-0.7,0.6-1.3,1.3-1.3h0.4v4.4
		L25.2,15.9z M27.7,18h0.4c0.7,0,1.3,0.6,1.3,1.3v1.8c0,0.7-0.6,1.3-1.3,1.3h-0.4V18z"/>
</g>
</svg>
