<?xml version="1.0" encoding="utf-8"?>
<!-- Generator: Adobe Illustrator 25.2.0, SVG Export Plug-In . SVG Version: 6.00 Build 0)  -->
<svg version="1.1" id="Capa_1" xmlns="http://www.w3.org/2000/svg" xmlns:xlink="http://www.w3.org/1999/xlink" x="0px" y="0px"
	 viewBox="0 0 70 70" style="enable-background:new 0 0 70 70;" xml:space="preserve">
<style type="text/css">
	.st0{fill:#43B38F;}
</style>
<g>
	<g>
		<path class="st0" d="M39.6,1.5c-1-0.1-1.8,1-1.4,1.9c0.1,0.3,0.3,0.5,0.6,0.5c0,0,0,0,0,0c7.6,0.5,14.5,5.2,17.8,12.3
			c0.2,0.5,0.8,0.9,1.4,0.7c0.8-0.2,1.1-1,0.8-1.7c-1.9-4.1-4.9-7.5-8.6-10c-2.6-1.7-5.4-2.8-8.4-3.4C41.2,1.7,40.5,1.6,39.6,1.5z"
			/>
		<path class="st0" d="M60.6,20.9c-0.1-0.7-0.8-1.1-1.5-0.9c-0.6,0.2-1,0.8-0.9,1.5c0.3,1.4,0.4,2.7,0.4,4.1
			c0,5.7-2.2,11.2-6.2,15.2c-2,2.1-4.2,4.3-4.8,7.6h-21c-0.5-3.1-2.4-5.4-4.6-7.7c-0.7-0.8-1.4-1.6-2-2.4c0,0,0,0,0,0
			c-1.2-0.5-2.3,1-1.5,2c0.6,0.7,1.2,1.4,1.8,2.1c2.2,2.3,3.8,4.2,4.1,7c0,0.1,0,7.9,0,7.9c0,2.3,1.2,4.3,3,5.4V64c0,3.3,2.7,6,6,6
			h7.4c3.3,0,6-2.7,6-6v-1.3c1.8-1.1,3-3.1,3-5.4l0.1-7.1c0,0,0,0,0,0c0-3,1.8-5.1,4.3-7.7c4.4-4.5,6.8-10.5,6.8-16.9
			C61.1,24,60.9,22.4,60.6,20.9z M44.4,64c0,2-1.6,3.6-3.6,3.6h-7.4c-2,0-3.6-1.6-3.6-3.6v-0.5c0.3,0,0.6,0.1,0.9,0.1h12.8
			c0.3,0,0.6,0,0.9-0.1V64z M47.4,54.8H35.3c-0.7,0-1.2,0.5-1.2,1.2c0,0.7,0.5,1.2,1.2,1.2h12.2v0.1c0,2.2-1.8,3.9-3.9,3.9H30.7
			c-2.2,0-3.9-1.8-3.9-3.9v-0.1h2.9c0.7,0,1.2-0.5,1.2-1.2c0-0.7-0.5-1.2-1.2-1.2h-2.9l0-4h20.6V54.8z"/>
	</g>
	<path class="st0" d="M14.3,26.3c0,0.6,0.1,1.2,0.2,1.8c0.3,2,0.6,3.6,0.8,5.1c0.1,0.6,0.6,1.1,1.1,1.2c0.2,0.1,0.5,0.1,0.7,0
		c0.9-0.2,1.4-1,1.3-1.8c-0.3-1.4-0.5-3-0.8-5c0-0.1,0-0.2,0-0.3c4.2,0.6,8.9-1.3,10.5-6.4c0.1-0.3,0.2-0.6,0.2-0.9l0-0.2
		c0.2-0.8,0.3-1.6,0.5-2.4c1.2-5.9,2.7-13.1,7-14c0.8-0.1,1.3-0.8,1.3-1.6c0-0.8-0.6-1.4-1.4-1.5c-9.7-1.4-19.1,1.4-23.7,7
		c-3.1,3.8-4,8.5-2.4,13.5C10.5,23.2,12.2,25.2,14.3,26.3z M14.5,9.3c3.3-3.9,9.4-6.2,16.2-6.2c-2.8,3.3-3.9,8.9-4.9,13.6
		c-0.2,0.8-0.3,1.6-0.5,2.5l0,0.2c0,0.2-0.1,0.4-0.2,0.6c-1.1,3.7-4.7,4.8-7.6,4.2c0.3-5.5,3-10.1,5.5-13.2c1.3-1.6-1.2-3.6-2.5-2
		c-2.6,3.2-5.4,7.9-6.1,13.6c-0.8-0.7-1.4-1.7-1.8-2.8C11.4,15.9,12,12.3,14.5,9.3z"/>
</g>
</svg>
