<?xml version="1.0" encoding="utf-8"?>
<!-- Generator: Adobe Illustrator 25.2.0, SVG Export Plug-In . SVG Version: 6.00 Build 0)  -->
<svg version="1.1" id="Capa_1" xmlns="http://www.w3.org/2000/svg" xmlns:xlink="http://www.w3.org/1999/xlink" x="0px" y="0px"
	 viewBox="0 0 70 70" style="enable-background:new 0 0 70 70;" xml:space="preserve">
<style type="text/css">
	.st0{fill:#43B38F;}
</style>
<g>
	<path class="st0" d="M52.1,57.5c-1.9,0-3.6-1-4.6-2.6c-0.7-1.2-0.9-2.6-0.5-4c0.4-1.4,1.2-2.5,2.4-3.2c0.8-0.5,1.7-0.7,2.6-0.7
		c1.9,0,3.6,1,4.5,2.6c0.7,1.2,0.9,2.6,0.5,4c-0.4,1.4-1.2,2.5-2.4,3.2C53.9,57.2,53,57.5,52.1,57.5C52.1,57.5,52.1,57.5,52.1,57.5z
		 M52.1,49c-0.6,0-1.1,0.1-1.6,0.4c-0.7,0.4-1.3,1.1-1.5,2c-0.2,0.8-0.1,1.7,0.3,2.4c0.6,1,1.6,1.6,2.8,1.6c0.6,0,1.1-0.1,1.6-0.4
		c0.7-0.4,1.3-1.1,1.5-2c0.2-0.8,0.1-1.7-0.3-2.4C54.3,49.6,53.2,49,52.1,49z"/>
	<g>
		<path class="st0" d="M59.1,19.6c-0.1-0.2-0.3-0.5-0.9-0.5h-5.3V1c0-0.6-0.5-1-1-1h-6.2c-0.6,0-1,0.5-1,1v0c0,0.6,0.5,1,1,1h5.2v17
			h-5.2c-0.5,0-0.8,0.4-0.9,0.5c-0.1,0.2-0.3,0.6,0,1L51,31.3c0.3,0.5,0.7,0.5,0.9,0.5c0.2,0,0.6,0,0.9-0.5l6.3-10.7
			C59.4,20.1,59.2,19.7,59.1,19.6z M51.9,28.8l-4.5-7.7h9L51.9,28.8z"/>
		<path class="st0" d="M20,8.8l-1-0.1V2h21.9c0.6,0,1-0.5,1-1v0c0-0.6-0.5-1-1-1H18c-0.6,0-1,0.5-1,1v7.7l-1,0.1
			C7,9.8,0,17.6,0,26.6c0,1.3,0.1,2.6,0.4,3.8c0.1,0.6,0.7,1,1.3,0.8c0.5-0.2,0.8-0.7,0.7-1.2C2.2,28.9,2,27.8,2,26.6
			c0-8.6,7.2-15.9,15.8-15.9l0.1,0c8.8,0,15.9,7.1,15.9,15.9c0,4.8-2.2,9.4-6,12.4c-1.7,1.4-2.6,3.5-2.4,6.4c0,0.2,0,0.4,0,0.5
			l-0.2,0.9h-5.9l6-20c0.1-0.4,0-0.7-0.2-1c-0.2-0.2-0.5-0.3-0.8-0.3l-12.6,0c-0.3,0-0.6,0.1-0.8,0.3c-0.3,0.3-0.4,0.6-0.2,1l6,20
			h-5.9l-0.2-0.9c0-0.2,0-0.4,0-0.7c0-1.2,0.1-4-2.7-6.3c-1.9-1.5-3.3-3.4-4.3-5.5c-0.2-0.5-0.8-0.8-1.3-0.6
			c-0.5,0.2-0.8,0.9-0.5,1.4c1.1,2.4,2.8,4.5,4.9,6.3c1.2,1,2,2.5,2,4v15.9c0,0.5,0.4,1,1,1l1.1,0l0,0.9c0,4,3.1,7.4,7.1,7.5
			c4.2,0.2,7.7-3.2,7.7-7.4l0-1.1h1.1c0.6,0,1-0.5,1-1l0-7.4c0-5.3,0-5.3,0-7l0-1.6c0-1.6,0.6-3,1.7-3.9c4.3-3.4,6.7-8.5,6.7-14
			C35.9,17.5,29.1,9.8,20,8.8z M13.1,27.6h10l-5,16.6L13.1,27.6z M23.4,62.5c0,2.9-2.4,5.3-5.4,5.3c-2.9,0-5.3-2.4-5.4-5.3l0-1.1
			h10.8L23.4,62.5z M25.5,59.4H10.6V48.8h14.9V59.4z"/>
	</g>
	<g>
		<path class="st0" d="M68,55.4l-3.9,0c-0.4,0-0.8,0.3-1,0.7c-0.5,1.4-1.2,2.6-2.1,3.7c-0.3,0.3-0.3,0.8-0.1,1.2l2,3.4l-5.6,3.2
			l-2-3.4c-0.2-0.3-0.5-0.5-0.9-0.5c-0.1,0-0.1,0-0.2,0c-0.7,0.1-1.4,0.2-2.1,0.2c-0.7,0-1.4-0.1-2.1-0.2c-0.1,0-0.1,0-0.2,0
			c-0.4,0-0.7,0.2-0.9,0.5l-2,3.4l0,0c-0.4-0.2-0.9-0.1-1.2,0.3l-0.1,0.2c-0.3,0.4-0.2,1,0.3,1.3l0.9,0.5c0.2,0.1,0.3,0.1,0.5,0.1
			c0.4,0,0.7-0.2,0.9-0.5l2.1-3.7l0.7,0.1c0.4,0,0.7,0,1.1,0c0.4,0,0.7,0,1.1,0l0.7-0.1l2.1,3.6c0.2,0.3,0.5,0.6,0.9,0.6
			c0.2,0,0.4,0,0.5-0.1l7.3-4.2c0.2-0.1,0.4-0.4,0.5-0.6c0.1-0.3,0-0.5-0.1-0.8l-2.1-3.7l0.4-0.6c0.4-0.6,0.8-1.2,1.1-1.9l0.3-0.6
			H69c0.6,0,1-0.5,1-1v-1.7c0-0.6-0.5-1-1-1l0,0c-0.6,0-1,0.5-1,1V55.4z"/>
		<path class="st0" d="M69,47h-4.2l-0.3-0.6c-0.3-0.7-0.7-1.3-1.1-1.9l-0.4-0.6l2.1-3.7c0.1-0.2,0.2-0.5,0.1-0.8
			c-0.1-0.3-0.2-0.5-0.5-0.6l-7.3-4.2c-0.2-0.1-0.4-0.2-0.6-0.1c-0.3,0-0.6,0.2-0.8,0.5l-2.1,3.6l-0.7-0.1c-0.4,0-0.7,0-1.1,0
			c-0.4,0-0.7,0-1.1,0l-0.7,0.1L48.2,35c-0.2-0.3-0.5-0.6-0.9-0.6c-0.2,0-0.4,0-0.5,0.1l-7.3,4.2c-0.2,0.1-0.4,0.4-0.5,0.6
			c-0.1,0.3,0,0.5,0.1,0.8l2.1,3.7l-0.4,0.6c-0.4,0.6-0.8,1.3-1.1,1.9L39.4,47h-4.2c-0.6,0-1,0.5-1,1v8.5c0,0.6,0.5,1,1,1h4.2
			l0.3,0.6c0.3,0.7,0.7,1.3,1.1,1.9l0.4,0.6L39,64.2c-0.1,0.2-0.2,0.5-0.1,0.8c0.1,0.3,0.2,0.5,0.5,0.6l2.6,1.5
			c0.5,0.3,1,0.1,1.3-0.3h0c0.3-0.5,0.2-1.2-0.3-1.5l-1.7-1l2-3.4c0.2-0.4,0.2-0.8-0.1-1.2c-0.9-1.1-1.7-2.3-2.1-3.7
			c-0.1-0.4-0.5-0.7-1-0.7h-3.9V49l3.9,0c0.4,0,0.8-0.3,1-0.7c0.5-1.4,1.2-2.6,2.1-3.7c0.3-0.3,0.3-0.8,0.1-1.2l-2-3.4l5.6-3.2
			l2,3.4c0.2,0.3,0.5,0.5,0.9,0.5c0.1,0,0.1,0,0.2,0c0.7-0.1,1.4-0.2,2.1-0.2c0.7,0,1.4,0.1,2.1,0.2c0.1,0,0.1,0,0.2,0
			c0.4,0,0.7-0.2,0.9-0.5l2-3.4l5.6,3.2l-2,3.4c-0.2,0.4-0.2,0.8,0.1,1.2c0.9,1.1,1.7,2.4,2.1,3.7c0.1,0.4,0.5,0.7,1,0.7H68v1.2
			c0,0.6,0.5,1,1,1l0,0c0.6,0,1-0.5,1-1V48C70,47.4,69.5,47,69,47z"/>
	</g>
</g>
</svg>
