<?xml version="1.0" encoding="utf-8"?>
<!-- Generator: Adobe Illustrator 19.0.0, SVG Export Plug-In . SVG Version: 6.00 Build 0)  -->
<svg version="1.1" id="Warstwa_1" xmlns="http://www.w3.org/2000/svg" xmlns:xlink="http://www.w3.org/1999/xlink" x="0px" y="0px"
	 viewBox="0 0 32 32" style="enable-background:new 0 0 32 32;" xml:space="preserve">
<style type="text/css">
	.st0{fill:#23C495;}
	.st1{fill:#FFFFFF;}
</style>
<path id="XMLID_1_" class="st0" d="M29.7,31.3H2.1c-0.9,0-1.6-0.7-1.6-1.6V2.1c0-0.9,0.7-1.6,1.6-1.6h27.6c0.9,0,1.6,0.7,1.6,1.6
	v27.6C31.4,30.6,30.7,31.3,29.7,31.3z"/>
<path id="XMLID_4_" class="st1" d="M16.1,29.3c3.5,0,6.8-1.4,9.3-3.8s3.9-5.7,4-9.2c0.1-2.6-0.6-5.2-2-7.4c-0.2-0.3-0.5-0.4-0.9-0.4
	s-0.7,0.2-0.9,0.5c-0.2,0.3-0.2,0.7,0,1c1.2,2,1.8,4.2,1.7,6.5C27.1,22,22.2,27,16.5,27.3c-3.2,0.2-6.3-1.1-8.6-3.3
	s-3.5-5.4-3.3-8.6C4.9,9.7,9.8,4.7,15.5,4.5C17.8,4.4,20,5,22,6.2c0.3,0.2,0.7,0.2,1,0c0.3-0.2,0.5-0.5,0.5-0.9
	c0-0.3-0.2-0.7-0.4-0.9c-2.2-1.4-4.8-2.1-7.4-2c-3.5,0.1-6.7,1.5-9.2,4s-3.8,5.8-3.8,9.3c0,3.6,1.3,7,3.9,9.6
	c2.5,2.5,5.9,3.9,9.5,3.9C16,29.3,16.1,29.3,16.1,29.3"/>
<path id="XMLID_6_" class="st1" d="M16,7.8c-0.4,0-0.8,0.2-1,0.7L10,20.6c-0.2,0.4-0.1,0.7,0.1,1c0.2,0.3,0.5,0.5,0.9,0.5
	c0.2,0,0.4,0,0.6-0.2c0.2-0.1,0.3-0.3,0.4-0.5l1.5-3.7h5.3l1.5,3.7c0.1,0.2,0.2,0.4,0.4,0.5c0.2,0.1,0.4,0.2,0.6,0.2
	c0.4,0,0.7-0.2,0.9-0.4c0.2-0.3,0.2-0.7,0.1-1L17.1,8.5C16.8,8,16.5,7.8,16,7.8 M14.1,16l2-4.8L18,16H14.1z"/>
</svg>
