<?xml version="1.0" encoding="utf-8"?>
<!-- Generator: Adobe Illustrator 19.0.0, SVG Export Plug-In . SVG Version: 6.00 Build 0)  -->
<svg version="1.1" id="Warstwa_1" xmlns="http://www.w3.org/2000/svg" xmlns:xlink="http://www.w3.org/1999/xlink" x="0px" y="0px"
	 viewBox="4813 -2072 10125 4644" style="enable-background:new 4813 -2072 10125 4644;" xml:space="preserve">
<style type="text/css">
	.st0{fill:#00D1B2;}
	.st1{fill:#A4DCD7;}
	.st2{fill:#FFFFFF;}
	.st3{fill:#242D26;}
	.st4{fill:#A8FFCD;}
	.st5{fill:#0E1A17;}
	.st6{fill:#73C47D;}
	.st7{fill:#E1F1EE;}
	.st8{fill:#DED6A2;}
	.st9{fill:#C5C5BF;}
	.st10{fill:#CCCBA2;}
	.st11{fill:#8DFF8B;}
	.st12{fill:#62BD41;}
	.st13{fill:#333333;}
	.st14{fill:#F6D6D9;}
	.st15{fill:none;stroke:#333333;stroke-width:5.4042;stroke-miterlimit:10;}
	.st16{fill:none;stroke:#333333;stroke-width:4.5035;stroke-miterlimit:10;}
	.st17{fill:#E1F1EE;stroke:#333333;stroke-width:5.4051;stroke-miterlimit:10;}
	.st18{fill:none;}
	.st19{fill:#16211F;}
	.st20{opacity:0.5;fill:#0E1A17;enable-background:new    ;}
	.st21{opacity:0.2;fill:#7B8369;enable-background:new    ;}
	.st22{fill:none;stroke:#333333;stroke-width:9.007;stroke-miterlimit:10;}
	.st23{fill:#E1F1EE;stroke:#333333;stroke-width:3.2171;stroke-miterlimit:10;}
	.st24{fill:none;stroke:#333333;stroke-width:5.361;stroke-miterlimit:10;}
	.st25{fill:#E1F1EE;stroke:#333333;stroke-width:2.8176;stroke-miterlimit:10;}
	.st26{fill:#E1F1EE;stroke:#333333;stroke-width:2.6805;stroke-miterlimit:10;}
	.st27{fill:#E1F1EE;stroke:#333333;stroke-width:2.8725;stroke-miterlimit:10;}
	.st28{fill:#019317;}
	.st29{fill:none;stroke:#FFFFFF;stroke-width:4;stroke-miterlimit:10;}
	.st30{fill:#5FBD44;}
	.st31{fill:none;stroke:#333333;stroke-width:2.8318;stroke-miterlimit:10;}
	.st32{fill:none;stroke:#333333;stroke-width:4.2478;stroke-miterlimit:10;}
</style>
<path class="st0" d="M7244,682.2l5839.4-5.4c0,0-381.1-2075.6-2679.4-2075.6C8095-1398.8,7244,682.2,7244,682.2z"/>
<polygon id="XMLID_337_" class="st1" points="6942,665.4 7477,-162.3 7772,110.6 7872.4,154.8 8034.5,446.6 8409.2,251.1 
	9884.5,648.3 "/>
<path id="XMLID_634_" class="st1" d="M7706.6-873c0,0,121.9-163.7,254.2-163.7s131.2,57.3,131.2,57.3s26.1-196.8,164-196.8
	c137.9,0,143.4,110.7,143.4,110.7s46.6-192.7,340.2-192.7c277.6,0,307.5,282.9,307.5,282.9s119.8-100.3,184.5,69.7
	c0,0,73.1-92.4,151.7,28.4L7706.6-873z"/>
<path id="XMLID_322_" class="st2" d="M7867.3,205.9c-5.7-34.9,18-68,52.9-73.5c35.4-5.6,67.6,18.1,73.5,53.9
	c5.6,34.5-17.8,67-52.6,72.9C7905.6,265.1,7873.2,241.7,7867.3,205.9z"/>
<path id="XMLID_319_" class="st2" d="M7661.8,206.4c-5.9-34.8,17.5-67.9,52.3-74c34.4-6,68,17.8,74,52.4
	c6.1,35.1-17.6,68.5-52.8,74.3C7700.2,264.7,7667.8,241.5,7661.8,206.4z"/>
<path id="XMLID_317_" class="st2" d="M7427.7,249.4c34.8-5.7,67.8,18.1,73.4,52.9c5.6,35.4-18,67.7-53.6,73.5
	c-34.3,5.5-67.1-18.1-73-52.6C7368.4,288.3,7392.2,255.2,7427.7,249.4z"/>
<path id="XMLID_316_" class="st2" d="M7852.9,381.6c-34.8,5.7-68-18.3-73.5-52.9c-5.6-35.3,18.2-67.9,53.8-73.6
	c34.4-5.5,67,17.9,72.8,52.5C7912.2,342.9,7888.4,375.8,7852.9,381.6z"/>
<path id="XMLID_315_" class="st2" d="M7692.3,451.5c-5.9-35.5,17.7-68.2,53-73.9c34.9-5.5,67.8,18.1,73.4,52.9
	c5.6,34.9-17.9,67.6-52.8,73.4C7730.7,509.7,7698.1,486.5,7692.3,451.5z"/>
<path id="XMLID_245_" class="st3" d="M6102.6,654.4c0,0,8836.7-6.4,8836.7,17.9v566.3c-487.4-779.2-1155.2,557-7959.3,182.8
	C5563.3,1372.5,8893.9,654.4,6102.6,654.4z"/>
<path id="XMLID_314_" class="st2" d="M7287.1,445.3c-5.6-35.2,17.6-67.6,52.7-73.4c35.1-5.8,68.5,18.2,73.9,53.2
	s-18.3,67.6-53.3,73.1C7325,503.6,7292.6,480.4,7287.1,445.3z"/>
<path id="XMLID_312_" class="st2" d="M7472.8,626.1c-34.8,5.7-68-18.2-73.6-52.8c-5.6-34.8,18.1-67.8,52.9-73.5
	c34.9-5.8,67.7,17.4,73.7,52.4C7532,587.3,7508.3,620.2,7472.8,626.1z"/>
<path id="XMLID_311_" class="st2" d="M7462.2,200.2c-5.8-35,18-68.2,52.7-73.7c34.9-5.4,67.5,18.3,73.3,53.4
	c5.8,34.9-18,67.9-52.9,73.4C7500.1,259,7468,235.7,7462.2,200.2z"/>
<path id="XMLID_310_" class="st2" d="M7700.4,308.2c5.8,35.2-17.4,67.4-52.7,73.1c-34.8,5.7-67.8-17.8-73.6-52.7
	c-5.9-35.2,17.9-67.9,53.5-73.7C7662.5,249.4,7694.6,272.8,7700.4,308.2z"/>
<path id="XMLID_309_" class="st2" d="M7325.5,546.8c5.9,35.4-17.1,67.8-52.3,73.6c-35,5.8-68-17.6-73.8-52.5
	c-5.9-34.7,17.8-67.8,52.8-73.7C7287.3,488.3,7319.6,511.5,7325.5,546.8z"/>
<path id="XMLID_306_" class="st2" d="M7730.8,553.1c5.8,35.2-17.4,67.5-52.8,73.3c-34.8,5.7-68-18.2-73.5-53
	c-5.5-34.9,18.2-67.6,53.3-73.3C7692.9,494.3,7724.9,517.6,7730.8,553.1z"/>
<path id="XMLID_304_" class="st2" d="M7487.2,450.6c-5.8-34.9,17.9-67.7,52.9-73.3c35-5.5,67.5,18.1,73.2,53.2
	c5.7,34.6-17.6,67-52.3,73.1C7525.5,509.7,7493,486.5,7487.2,450.6z"/>
<circle id="XMLID_297_" class="st4" cx="13631.9" cy="-430" r="526.1"/>
<path id="XMLID_295_" class="st1" d="M12720.4,664.4c553.7,0,2204.9,0,2204.9,0s-220.7-316.9-599.9-316.9s-454,194.5-454,194.5
	s-97.7-494.6-510.7-494.6S12801.5,469,12801.5,469s-161.6-187-348.6,0c0,0-238.6-65.6-413.4,113.7
	C11965.3,658.7,12549,664.4,12720.4,664.4z"/>
<path id="XMLID_296_" class="st1" d="M12048.1-164.3c343.5,0,1367.7,0,1367.7,0s-136.9-196.5-372.1-196.5s-281.6,120.6-281.6,120.6
	s-60.6-306.8-316.8-306.8c-256.2,0-346.9,261.5-346.9,261.5s-100.2-116-216.2,0c0,0-148-40.7-256.4,70.5
	C11579.8-167.8,11941.8-164.3,12048.1-164.3z"/>
<path id="XMLID_448_" class="st5" d="M12164.5,1054.7c0,0,124.5-254.7,708.5-114.3C12873,940.5,12621.5,1335.1,12164.5,1054.7z"/>
<path id="XMLID_39_" class="st6" d="M12193.7,990.4c0,0,124.5-254.7,708.5-114.3C12902.2,876.2,12650.7,1270.8,12193.7,990.4z"/>
<path id="XMLID_44_" class="st6" d="M10251.4-1247.3c0,0-61.1-121.1,161.3-303.1C10412.6-1550.4,10490.3-1340.5,10251.4-1247.3z"/>
<g>
	<polygon class="st3" points="9614.5,-944.1 9003,564.4 11013.3,668.5 11529.2,-943.4 	"/>
	<polygon class="st7" points="9658.3,-892 9092.2,503.6 9919.7,536.3 10468.6,-887.6 	"/>
	<polygon class="st8" points="9676.6,-883.6 9110.6,512.1 9938,544.8 10486.9,-879.1 	"/>
	<polygon class="st9" points="10633.8,-910.8 10088.8,513.6 10941.7,555 11419.3,-912.5 	"/>
	<polygon class="st7" points="10600.5,-897.2 10055.4,527.3 10908.4,568.7 11386,-898.8 	"/>
	<polygon class="st10" points="10567.4,-886.1 10022.4,538.4 10875.3,579.8 11352.9,-887.7 	"/>
	<polygon class="st4" points="10524.8,-877.2 9979.7,547.2 10832.7,588.6 11310.3,-878.9 	"/>
	<polygon class="st4" points="9699.7,-876.6 9133.7,511 9961.1,546.4 10510,-872.1 	"/>
	<polygon class="st7" points="10561.5,-798.4 10430.3,-467.8 11094.9,-462.7 11213.1,-798.4 	"/>
	<polygon class="st2" points="9722,-762.2 9979.7,-762.2 9911.3,-586.3 9649.6,-587.2 	"/>
	<polygon class="st11" points="10122.1,-762.2 10055.4,-583.3 10308,-586.3 10371.1,-762.2 	"/>
	<polygon class="st2" points="9636.1,-495 10234.2,-495 10197.1,-445.3 9598.7,-445.3 	"/>
	<polygon class="st7" points="9821.8,-403.7 9780.4,-344.6 10197.1,-344.6 10234.2,-400.4 	"/>
	<polygon class="st11" points="9476.9,-137.8 9256.7,392.6 9918.2,422.5 10135.1,-137.8 	"/>
	<polygon class="st12" points="10558.5,-336.8 10902.5,-336.8 10867.4,-290.8 10510.2,-283.7 	"/>
	<polygon class="st5" points="9593.8,886.1 9197.1,1001.9 10791.1,1054.4 11028.6,918.8 	"/>
	<polygon class="st2" points="10371.1,-200.7 10336.9,-156.8 10958.2,-156.8 10986.2,-196.7 	"/>
	<polygon class="st11" points="10282,-40 10223.6,94.1 10430.3,95 10486.9,-37.7 	"/>
	<polygon class="st2" points="10610.7,-37.7 10566.1,92.3 10770.7,92.5 10806,-37.5 	"/>
	<polygon class="st2" points="10190.8,212.2 10129.1,373.3 10351.7,379.2 10403.2,212.7 	"/>
	<polygon class="st11" points="10521.5,216.7 10468.6,384.2 10699.9,384.2 10741.5,216.7 	"/>
</g>
<g>
	<polygon class="st13" points="8791.7,-1151.6 8799.1,-1012.9 8721.7,-1027.1 8721.7,-1163.8 	"/>
	<path class="st5" d="M8193.6,855.2c0,0-191.2,14.6-104.8,45.9c86.4,31.3,954.7,107.3,1175.2-40.1
		c220.5-147.4-450.8-44.9-450.8-44.9L8193.6,855.2z"/>
	<polygon id="XMLID_308_" class="st4" points="8603.9,844.4 8957.8,846.2 8957.8,820 8601.6,803.8 	"/>
	<polygon id="XMLID_407_" class="st4" points="8206.9,865.5 8560.9,867.3 8560.9,841.2 8204.7,825 	"/>
	<path id="XMLID_404_" class="st14" d="M8545-976.4l43.2-1.3l181,3.1c0,0,52.1,237.8-35.4,237.8S8545-976.4,8545-976.4z"/>
	<path id="XMLID_403_" class="st0" d="M8893.2,535.5c0,0-58.9,178.5,73,283.9l-372.9-1.8c0,0,30.4-274.7,48.6-273.9L8893.2,535.5z"
		/>
	<path id="XMLID_402_" class="st0" d="M8253.1,541.3c0,0-54.9,224.2-59.4,267.5c-4.6,43.3,107.7,28.4,364.8,32.4
		c0,0-119.3-56.2-56.7-267.5L8253.1,541.3z"/>
	<path id="XMLID_401_" class="st12" d="M8485.5,662.9c0,0-232.6-23.7-227-113.5c0,0,218.6,40.2,243.2,24.3
		C8501.7,573.7,8491.2,599.3,8485.5,662.9z"/>
	<path id="XMLID_400_" class="st12" d="M8877,640.7l20.3-101.7l-263.5,12.5C8647.9,605,8741.2,640.7,8877,640.7z"/>
	<path id="XMLID_399_" class="st14" d="M8657.5-1052.1c0,0,50.7,58.8,100.1,29.9c49.4-29,34-224.3-97-216.3
		c-131.1,8-62.9,176.8-39.7,186.4l-32.6,74.3c0,0,61.4,91.9,134.7,3.9l7.3-50L8657.5-1052.1z"/>
	<path id="XMLID_398_" class="st15" d="M8780-1130.4c0,0-45.8-8.9-24.3,64.9"/>
	<circle id="XMLID_397_" class="st13" cx="8773" cy="-1106.5" r="7.9"/>
	<circle id="XMLID_396_" class="st13" cx="8713.6" cy="-1104.7" r="7.9"/>
	<path id="XMLID_395_" class="st13" d="M8655.7-1049.4c0,0,22.6,60.4,67.6,73l6.3-37.8C8729.6-1014.2,8678.1-1005,8655.7-1049.4z"/>
	<path id="XMLID_391_" class="st15" d="M8502,582.5c0,0,168.9-634.7,188.9-845.6"/>
	<path id="XMLID_307_" class="st15" d="M8739.5-1041.3c0,0,8.7,12.7,16.2,0"/>
	<path id="XMLID_305_" class="st14" d="M9121.9-496.2l-213.5-185.5l-190.2-295.9c0,0,139.5-58.6,592.2,440.5c0,0,22,19,49.6-3.1
		c27.6-22.1,69-23,64.4,0.5c-4.6,23.5-20.7,41.9-43.7,48.8c-23,6.9,127,91.6,142.9,118.3s-0.2,54.5-133.7-18.1
		c0,0-48.6,12.7-105.2,38C9228.2-327.5,9121.9-496.2,9121.9-496.2z"/>
	<path class="st13" d="M8941.9-646.5l119.4-148.1c0,0-192.3-170.9-276.5-178c-5-1.3-57.7-8.2-63-8.3c0,0,47.6,7.2,47.9,9.1
		c-1.1,0.2-1.9,1.3,0.3,2.4c3.9,28.7,18.5,162.3-46.4,163c-63,0.6-146.8-169.5-146.8-169.5l-88.2-2.8c0.2,0.1-105.8-2.7-114.1,121.3
		c0,0-31.8,284.2-29.7,524.5c1.7,199-134.3,785.4-121.6,868.2c0,0,124.8,34.1,272.9,40.3c27.3,1.1,162.7-685.9,179.2-732
		c5-14-51.4,707.8-41.4,707.8c99.2,0,295.1-3.3,295.1-3.3l-5.3-620.4c0,0,18.6-337.7-14-599.9
		C8911.3-661.7,8941.9-646.5,8941.9-646.5z M8879.8-827.9c0,0,30,157,29.9,156.2l-48.7-264"/>
	<path id="XMLID_389_" class="st14" d="M8472.7-973.8c0,0,85.7-7.6,127,128.5c41.3,136.1,231.6,482.5,297,524.6s74.1,64.6,74.1,64.6
		s1.7,20.8-78.1,13.9c-79.9-6.9,171.1,86.6,171.1,86.6s-53.1,71.4-153.7,83.6c-100.7,12.2-509.3-449.6-530.7-803.9
		C8379.5-876,8379.1-970,8472.7-973.8z"/>
	<path id="XMLID_388_" class="st16" d="M8469.3-569.3c0,0,70.4-56.1,121.6,16.2s-40.5,113.5-40.5,113.5"/>
	<path class="st13" d="M8522.7-1047.4l148.6,61.7c0,0-108.6-170,59.2-170c0,0,54.1-4.4,5.5,15.8c0,0,94.4,0.6,72.7-45.7
		C8787-1231.9,8536.4-1432,8522.7-1047.4z"/>
	<path class="st17" d="M8596.4-855.5l77.8,151.6l-231.5,117.6c0,0-101.8-283-51.8-354c50.1-71,146.9-33.6,146.9-33.6L8596.4-855.5z"
		/>
</g>
<g>
	<path class="st14" d="M11108.7-245.1c0,0,142.1,220.6,135.7,267.7c-2.7,19.6-11.3,17.5-70.4-36.6c-59.1-54.2,86.9,134.1,86.9,134.1
		s-85.6,24.3-172.8-27.4c-42.7-25.3-78.6-146.5-76.9-337.8H11108.7z"/>
	<path class="st5" d="M11276.9,1013.9c0,0-414.1-102.5-278.1,44.9c136,147.4,671.7,71.4,725,40.1s-64.7-45.9-64.7-45.9
		L11276.9,1013.9z"/>
	<polygon class="st2" points="11203.5,929.8 11203.5,815.7 11316.2,787.8 11318.4,920 	"/>
	<polygon class="st2" points="11462.5,971.8 11462.5,812.1 11575.3,773.1 11577.5,958.2 	"/>
	<path class="st0" d="M10973.4,1062.8c0,0,30.9-76.3,61.9-77.4c31-1.1,100.5-8.9,100.5-8.9l41.9-44.5l167.1-14.7l9.8,111.9l-68.1,6
		c0,0-10.8-30.1-25.3-27.2c-14.5,2.9-18.6,31.1-18.6,31.1L10973.4,1062.8z"/>
	<path class="st0" d="M11229.6,1099.5c0,0,30.9-76.3,61.9-77.4c31-1.1,100.5-8.9,100.5-8.9l41.9-44.5l167.1-14.7l9.8,111.9l-68.1,6
		c0,0-10.8-30.1-25.3-27.2c-14.5,2.9-18.6,31.1-18.6,31.1L11229.6,1099.5z"/>
	<path id="XMLID_449_" class="st17" d="M11119.1-169.2c-0.8,142,5.2,206.4,5.2,206.4l9.3,822.3c0,0,138.8,13,240-33.3l-0.4-798.5
		l19.7,824c148.1-6.2,235.6-20.5,235.6-20.5c12.7-82.8,73-810.1,74.7-1009.1L11119.1-169.2z"/>
	<polygon class="st9" points="11922.2,230.6 11883.7,193.9 11350.4,38.9 11373.7,65.3 	"/>
	<path id="XMLID_498_" class="st14" d="M11314.1-627.4c-87.5,0-35.4-237.8-35.4-237.8l181-3.1l43.2,1.3
		C11503-866.9,11401.6-627.4,11314.1-627.4z"/>
	<path id="XMLID_471_" class="st14" d="M11317.8-914.3l7.3,50c73.2,88,134.7-3.9,134.7-3.9l-32.6-74.3
		c23.1-9.6,59.2-155.2-71.8-163.2c-131.1-8-114.3,164.1-64.9,193.1c49.4,28.9,100.1-29.9,100.1-29.9L11317.8-914.3z"/>
	<path id="XMLID_465_" class="st15" d="M11292.2-956.1c21.5-73.8-24.3-64.9-24.3-64.9"/>
	<circle id="XMLID_455_" class="st13" cx="11274.9" cy="-997" r="7.9"/>
	<circle id="XMLID_454_" class="st13" cx="11334.4" cy="-995.2" r="7.9"/>
	<path id="XMLID_453_" class="st13" d="M11318.3-904.8l6.3,37.8c45-12.5,67.6-73,67.6-73C11369.9-895.5,11318.3-904.8,11318.3-904.8
		z"/>
	<path id="XMLID_451_" class="st15" d="M11292.2-931.8c7.5,12.7,16.2,0,16.2,0"/>
	<path id="XMLID_526_" class="st17" d="M11119.1-245.1"/>
	<path id="XMLID_521_" class="st17" d="M11119.1-213.6"/>
	<path id="XMLID_447_" class="st16" d="M11789.3-355.3c0,0-97.8,23.2-101.3-65.3s86.5-87,86.5-87"/>
	<polygon class="st13" points="11922.2,230.6 11373.7,65.3 11274.2,407.9 11836.2,563.7 	"/>
	<polyline class="st13" points="11628.6,55.7 11849.8,124.1 11863.7,73.2 11653.4,8.1 	"/>
	<path class="st18" d="M11593.1-92.9c0.3-35.4-3.4-79.8-5.6-120.7C11592.1-166,11594.3-123.9,11593.1-92.9z"/>
	<path class="st14" d="M11285.3-851.1c0.5,0.3,1,0.7,1.5,1c0,0,5.3,3.4,12,10.9C11292.6-843,11288.3-847.2,11285.3-851.1z"/>
	<path class="st14" d="M11251-867.1l-29.8-2C11230.4-870.2,11240.4-869.8,11251-867.1z"/>
	<path class="st14" d="M11593.1-92.9c1.2-31-1-73.1-5.6-120.7c0,0,0,0,0,0h213.4c0.8,187.9-30.9,344-73,368.9
		c-87.2,51.7-172.8,27.4-172.8,27.4s142.1-227.1,82.9-172.9c-59,54.1-80.5,65.3-101.4,46.8c-18.4-16.3,55.8-130.7,56.5-149.4
		c0,0,0,0,0,0C11593.1-92.8,11593.1-92.9,11593.1-92.9z"/>
	<path class="st13" d="M11108.7-245.1h-97.5h-0.1c0,0-7.9-624,210-624l0,0l29.8,2l27.8,1.9c0,0,0.7,6.5,6.5,14.2
		c3,3.9,7.3,8.1,13.5,11.9c11.3,6.9,29,12.6,56.5,12.9c63,0.6,115.9-40.1,115.9-40.1l88.2-2.8c-0.1,0,23.2-0.6,48.8,11.6
		c0,0,0,0,0,0c44,2.8,79.7,70.1,108.1,160.2c50.3,160.1,77.1,392.1,84.4,462.6c1.4,13.5,2.1,21.1,2.1,21.1h-1.9h-213.4c0,0,0,0,0,0
		c2.2,40.8,5.9,85.3,5.6,120.7c0,0,0,0.1,0,0.1c0,0,0,0,0,0c-0.2,0.1-213.8,58.9-357.3,52.6c-44-1.9-81.4-10-104-27.8
		C11095.9-96.2,11105.1-181.1,11108.7-245.1z"/>
	<polyline class="st13" points="11653.4,8.1 11502.3,-38.7 11487.2,13 11628.6,55.7 	"/>
	<polygon class="st13" points="11537,-27.9 11503.9,92.7 11466.1,82.1 11502.3,-38.7 	"/>
	<polygon class="st13" points="11864.6,73.3 11831.4,193.9 11793.6,183.2 11829.8,62.5 	"/>
	<polygon class="st9" points="11250.4,378.6 11274.2,407.9 11373.7,65.3 11350.4,38.9 	"/>
</g>
<path class="st10" d="M11466.1-903.3c-2.7-3.7-22.4-1.4-22.4-1.4l11.4,25.9C11455.1-878.9,11469.5-898.7,11466.1-903.3z"/>
<path class="st2" d="M11466.1-903.3l5.1,37c0,0-27.5,29.9-97.5,40.1C11373.7-826.2,11466.8-878.3,11466.1-903.3z"/>
<path class="st2" d="M11324.6-866.9c0,0-39.9,15.3-6.3,36.1c0,0-40.7-8.2-39.5-34.4c1.2-26.2,39.5-39.5,39.5-39.5L11324.6-866.9z"/>
<path class="st2" d="M11373.7-823.5l-74.9-12.9c0,0-31.5,81.3-6.8,103.8l0,0l-28.7,694.4l79-4.7l8.1-723.7
	C11364.9-793.2,11373.7-823.5,11373.7-823.5z"/>
<path class="st7" d="M11188.1-1106c0,0,61.4,78.1,168.7,39.2c0,0,24.6-3.4,16.8,52.5c0,0,69.8-69.8,70,44.7
	c0,0,79.3-98.9-21.3-168.3C11321.9-1207.4,11275-1069,11188.1-1106z"/>
<polygon class="st2" points="11282.9,-948.8 11274.9,-939 11318.5,-939 11305.8,-948.8 "/>
<ellipse class="st5" cx="13656" cy="763.7" rx="322" ry="47.6"/>
<path class="st15" d="M11396.9-1016.5c0,0,26.3-31,28.4,11.6"/>
<g>
	<path class="st5" d="M7782.4,880.6c0,0-39.9,2.3-39.9,12.1c0,9.8,54,0.8,126.7,25.3s77.2-54.1,154.4-37.4s47.6-27,3.2-25
		C7982.5,857.5,7782.4,880.6,7782.4,880.6z"/>
	<path class="st19" d="M7887.4,889.1c0,0-39.9,11.7-70,0c-30.2-11.7-38.9-9.7-38.9-9.7s-59.3-50.6,0-83.6
		c59.3-33,122.5-22.4,122.5-22.4s136.1,15.2,143.9,59.6C8052.7,877.4,7915.7,894.9,7887.4,889.1z"/>
	<path class="st20" d="M7886.6,772c0,0-69.2-3.5-64.3,15s109.9,12.7,114.7,0C7941.9,774.4,7886.6,772,7886.6,772z"/>
	<path class="st19" d="M7975.3,788.9c0,0,48.3-8.7,41.5-45.6c-6.8-36.9-122.5-34.2-122.5-34.2s-100.1-5.7-100.1,29.3
		s79.6,33.3,79.6,33.3S7966.8,784.1,7975.3,788.9z"/>
	<path class="st19" d="M7988.5,675.2c0,0-1,35-94.3,35.1c-93.3,0.2-82.6-31.2-82.6-31.2s9.9-29.4,87.1-29.4
		C7992.5,649.8,7988.5,675.2,7988.5,675.2z"/>
	<path class="st19" d="M7828,663.3c0,0-32.7-15.6,3.3-46.1c36.7-31,137.7-3.8,139.8,5.5c1.9,8.7,7.7,23.5-28.6,28.6
		C7906.1,656.4,7885.3,639.8,7828,663.3z"/>
	<path class="st19" d="M7893.4,551.9c0,0-58.5-12.5-67.6,16.1c-9,28.7,34.2,36.6,61.3,35.4s51.8,10.8,59.8-18.9
		C7955,554.9,7893.4,551.9,7893.4,551.9z"/>
	<path class="st19" d="M7853.4,549.9c0,0-26.2-24.2,5.5-31.7c31.7-7.5,93-2.5,97,24.1c0,0,2.4,13.8-22.7,18.7
		C7908.2,565.9,7896.6,546.3,7853.4,549.9z"/>
	<path class="st20" d="M7813.9,720.1c0,0,69.7,10,84.8,7.1c15.1-2.9,59.9,0.1,78.5-8.5C7977.2,718.6,7839.4,701,7813.9,720.1z"/>
	<path class="st5" d="M7843.3,613.7c0,0,35.2-2.2,36.5-10.3l28.5,0.2c0,0-3,8.9,39.4,8.9C7947.6,612.4,7876.1,635.6,7843.3,613.7z"
		/>
	<path class="st20" d="M7937.3,569c0,0-40,1.5-57.6-7.1c-17.7-8.6-31.2-8.6-31.2-8.6s4.8-7.9,34.6-3.5
		C7912.9,554.1,7932.5,558.5,7937.3,569z"/>
	<path class="st20" d="M7752.3,829.6c0,0,82-33.2,117.1-27c35.1,6.1,103.5,38.8,123.2,35.7c19.7-3.1,47.3,12.3,52.6-9.3
		c0,0,20.7,38.8-104.4,57.9c0,0-56.1,6.8-57.3,1.2c0,0-46.3,9.1-72.1-3.1c-22.2-10.4-33-5.8-33-5.8S7747.3,851.1,7752.3,829.6z"/>
	<path class="st20" d="M7917.5,741.9c-11.1-5.7-119.6-21.2-121.7,1.6c-2.2,22.7,122.2,28.9,122.2,28.9l56.9,15.4
		c0,0,50.9-10.4,40.7-47.7C8015.5,740.1,7949.9,758.4,7917.5,741.9z"/>
	<path class="st20" d="M7811.6,679.4c0,0,147.3,23.9,175.2-8.1c0,0,9.7,37.4-88.1,39C7800.9,712.1,7811.6,679.4,7811.6,679.4z"/>
	<path class="st5" d="M7828,663.3c0,0-43.9-33.3,58.1-40.2c0,0,37.5-11.3,56.3,10.2c18.8,21.5,29.2-7.6,29.2-7.6s4.3,26.6-31.7,26
		C7903.8,651.1,7858.5,642.6,7828,663.3z"/>
	<path class="st5" d="M7946.9,585.8c-4,23.8-20,20.3-56.7,19.3c-52.7-1.3-66.6-20.4-65.7-29.5c0.9-9.1,33.7-9.1,33.7-9.1
		s20.5,0.7,27.9,3.8c7.4,3.1,23.3,21.2,37.1,15.6C7937,580.4,7948.3,577.6,7946.9,585.8z"/>
	<path class="st20" d="M7872.4,549.3c0,0-32.1-30.1,35.8-25.6c67.9,4.5,44.5,35.5,25.1,37.3C7913.8,562.9,7912.2,548.7,7872.4,549.3
		z"/>
	<path class="st21" d="M7898.7,519.6c0,0,1.1,17.7,36,15.4C7969.6,532.6,7898.7,519.6,7898.7,519.6z"/>
	<path class="st21" d="M7895.6,572c0,0,19.7-11.1,32.5,2.6C7940.9,588.3,7895.6,572,7895.6,572z"/>
	<path class="st21" d="M7937.3,623.1c0,0,23.8,12.2,28.2,0C7965.5,623.1,7953.1,613.8,7937.3,623.1z"/>
	<path class="st21" d="M7822,634.8c0,0,0.2-6.4,5.2-8.3C7832.3,624.4,7828.5,633.1,7822,634.8z"/>
	<path class="st21" d="M7843.3,670.1c-1.6,27.8,88,19.5,111.4,3C7978.2,656.5,7844.9,642.2,7843.3,670.1z"/>
	<path class="st21" d="M7924.2,737.9c0,0,35,13.8,73.2,0C8035.6,724.1,7924.2,737.9,7924.2,737.9z"/>
	<path class="st21" d="M7919.2,805.6c0,0,55,32,98.2,25.7c43.2-6.4-35-29.5-35-29.5S7922.6,794.8,7919.2,805.6z"/>
	<path class="st21" d="M7810.1,786.6c0,0-45.4,13-46.1,38.5c0,0,42.3-24.7,54.2-21.9C7830.1,805.9,7823.6,781.5,7810.1,786.6z"/>
	<path class="st21" d="M7829.6,566.6c0,0,8.8-13.7,21.2-10C7863.1,560.2,7829.6,566.6,7829.6,566.6z"/>
	<path class="st21" d="M7848.5,527.3c0,0,4.1,7,9.2,0S7848.5,527.3,7848.5,527.3z"/>
	<path class="st21" d="M7799.2,737.9c0,0,9.4-16.9,63.8-6.5c0,0,14.7-7.9,0-7.4C7848.3,724.5,7804.1,709.5,7799.2,737.9z"/>
</g>
<path id="XMLID_328_" class="st11" d="M12218.4,433.3c0,0-10.5-81,98-92.5C12316.4,340.8,12320.7,422.5,12218.4,433.3z"/>
<path id="XMLID_327_" class="st6" d="M12218.2,565.3c0,0-85.1,66.4-171.2-49.2C12047,516.1,12137,456.2,12218.2,565.3z"/>
<path id="XMLID_622_" class="st4" d="M6937.5,303.3c0,0-104,29-139.5-110.7C6798,192.5,6904,171.6,6937.5,303.3z"/>
<path id="XMLID_330_" class="st4" d="M12215.9,341.6c0,0-26.5-38.3,25.5-72.5C12241.4,269.1,12264.9,309.4,12215.9,341.6z"/>
<path class="st5" d="M12082.4,802.8c0,0,60.9-82.8,133.3-82.8s138.3,66.5,138.3,66.5s-100.3-18.7-135.8,6.3
	C12182.7,817.9,12082.4,802.8,12082.4,802.8z"/>
<line id="XMLID_329_" class="st22" x1="12215.7" y1="728.3" x2="12218.2" y2="334.3"/>
<path class="st5" d="M12547.9,720c0,0,138.5,100.1,312.9,0C12860.9,720,13070.2,660,12547.9,720z"/>
<g>
	<path id="XMLID_631_" class="st23" d="M12551.9,667.7l37.7-251.9l198.9-3.3l27.7,259c0,0-36.5,39.2-56.8,42.8
		c-37.9,6.7-118.3,6.5-155.8-3.9C12582.7,704.7,12551.9,667.7,12551.9,667.7z"/>
	<path id="XMLID_630_" class="st24" d="M12593.1,405.9c0,0-137.8-38.5-124.6,85.2c4.1,38.3,32.3,104.9,91.3,123.9"/>
	<path id="XMLID_629_" class="st25" d="M12790.6,420.3c-0.3,22.2-51.4,40.3-100.5,39.7c-49.1-0.6-100.8-22-100.5-44.2
		c0.3-22.2,52.5-36.8,101.5-36.2C12740.3,380.2,12791,398,12790.6,420.3z"/>
	<path id="XMLID_623_" class="st13" d="M12774.5,420.6c-0.2,16.1-48.2,29.7-83.8,29.3s-87.3-17.4-87.2-33.5
		c0.2-16.1,51.7-28.8,87.3-28.3S12774.7,404.5,12774.5,420.6z"/>
	<polygon id="XMLID_628_" class="st26" points="12802.9,547.3 12869.1,465.9 12875.3,489.2 12817.8,658.3 	"/>
	<g>
		
			<ellipse id="XMLID_642_" transform="matrix(-0.2584 -0.966 0.966 -0.2584 15793.4658 13011.7988)" class="st27" cx="12891.3" cy="443.6" rx="48.2" ry="41.5"/>
		<circle id="XMLID_641_" class="st27" cx="12868.2" cy="431.3" r="4"/>
		<circle id="XMLID_640_" class="st27" cx="12887.9" cy="426.1" r="4"/>
		<circle id="XMLID_639_" class="st27" cx="12907.8" cy="420.7" r="4"/>
		<circle id="XMLID_638_" class="st27" cx="12873.1" cy="449.4" r="4"/>
		<circle id="XMLID_637_" class="st27" cx="12892.8" cy="444.2" r="4"/>
		<circle id="XMLID_636_" class="st27" cx="12912.6" cy="438.9" r="4"/>
		<circle id="XMLID_635_" class="st27" cx="12877.5" cy="465.9" r="4"/>
		<circle id="XMLID_633_" class="st27" cx="12897.1" cy="460.6" r="4"/>
		<circle id="XMLID_632_" class="st27" cx="12917" cy="455.3" r="4"/>
	</g>
</g>
<path class="st1" d="M12632.3,438.5c0,0,9.5,7.7,11.4-7.2c1.9-14.9,44.9,15,52.1-0.9s63-21.8,78.8-9.7
	C12781.6,426.1,12728.8,472.2,12632.3,438.5z"/>
<g id="XMLID_1_">
	<g id="XMLID_299_">
		<rect id="XMLID_303_" x="13488" y="-723" class="st2" width="263" height="392"/>
		<rect id="XMLID_301_" x="13637" y="-381" class="st7" width="97" height="29"/>
		<rect id="XMLID_300_" x="13497" y="-373" class="st7" width="9" height="25"/>
	</g>
	<g id="XMLID_2_">
		<path id="XMLID_298_" class="st12" d="M13696.1,716.2c60.8-102-139.3-285.3-349.9-299.6c-210.6-14.3-229.9,105.7-229.9,105.7
			s149.2-154.4,224.6,58.2C13427.7,825.4,13648.6,796,13696.1,716.2z"/>
		<path id="XMLID_294_" class="st28" d="M13618.3,775.3c0,0-205.3-29.8-123.9-352.6C13494.4,422.8,13748.3,613.4,13618.3,775.3z"/>
		<path id="XMLID_293_" class="st28" d="M13678.4,735.8c0,0,86.5-332.1,289.9-355.8c203.4-23.7,217.6,86,217.6,86
			s-132.1-155.2-204.8,72.6C13904.6,778.5,13678.4,735.8,13678.4,735.8z"/>
		<path id="XMLID_292_" class="st11" d="M13699.7,773.1c0,0-13.7-209,324.7-261.9C14024.4,511.2,13953,764.9,13699.7,773.1z"/>
		<path id="XMLID_291_" class="st12" d="M13678.4,773.1c0,0,43.3-157.2,141.1-89.3C13819.6,683.8,13776,778.1,13678.4,773.1z"/>
		<path id="XMLID_290_" class="st11" d="M13579.3,774.2c0,0-125.1-13.7-104-130.8C13475.3,643.3,13619.2,692.6,13579.3,774.2z"/>
		<g id="XMLID_80_">
			<polyline id="XMLID_289_" class="st8" points="13656,776 13656,214 13579.1,214 13579.6,773.9 			"/>
			<polyline id="XMLID_288_" class="st10" points="13699.2,773.6 13699,214 13656,214 13656,776 			"/>
			<path id="XMLID_287_" class="st9" d="M14108.5-86.9c-9.4-175.8-76.2-198.5-76.2-198.5l-88.8,17.8c0,0-92.5,62.8-92.5,263.9v384.8
				l258.3-106.8L14108.5-86.9z"/>
			<polygon id="XMLID_286_" class="st7" points="13253,-268 13944.2,-268 14032.3,-285.6 13333.5,-282.1 			"/>
			<path id="XMLID_285_" class="st7" d="M13944.2-268H13253c0,0-94.9,78.4-89.2,266.4l-1.8,383.6h688.9V-3.7
				C13851-3.7,13849.6-179,13944.2-268z"/>
			<rect id="XMLID_284_" x="13229" y="-29" class="st2" width="548" height="340"/>
			<polygon id="XMLID_283_" class="st13" points="13226,-57 13773,-57 13773,-93.9 13226,-95.9 			"/>
			<polygon id="XMLID_282_" class="st13" points="13910,-57.8 14074,-111.8 14074,-142 13910,-95.9 			"/>
			<polygon id="XMLID_281_" class="st13" points="13910,-29.8 13910,6.3 14074,-45.8 14074,-73.9 			"/>
		</g>
		<polygon id="XMLID_60_" class="st13" points="13465,-278 13410.7,-272 13763.3,-272 13809.9,-278 		"/>
		<line id="XMLID_55_" class="st29" x1="13749" y1="-762" x2="13749" y2="-826"/>
		<line id="XMLID_43_" class="st29" x1="13692" y1="-755" x2="13692" y2="-774"/>
		<line id="XMLID_42_" class="st29" x1="13518" y1="-826" x2="13518" y2="-762"/>
		<line id="XMLID_41_" class="st29" x1="13484" y1="-794" x2="13484" y2="-749"/>
		<line id="XMLID_40_" class="st29" x1="13763" y1="-632" x2="13763" y2="-677"/>
		<line id="XMLID_35_" class="st29" x1="13475" y1="-542" x2="13475" y2="-567"/>
	</g>
</g>
<g>
	<path id="XMLID_332_" class="st4" d="M7301.1-344.5c0,0-101.4-36.9-49-171.3C7252.1-515.8,7350.6-471.2,7301.1-344.5z"/>
	<path id="XMLID_326_" class="st6" d="M7277.3-177.3c0,0-43.6,67.2-140.2-0.3C7137.1-177.6,7186.2-240.9,7277.3-177.3z"/>
	<path id="XMLID_325_" class="st4" d="M7787.4,84.8c0,0,18.3-106.4,159.8-78.6C7947.2,6.2,7920.8,111,7787.4,84.8z"/>
	<path id="XMLID_324_" class="st4" d="M9198.6-1074.1c0,0-47.4-38.1,5-100.3C9203.6-1174.5,9248.1-1132.8,9198.6-1074.1z"/>
	<path id="XMLID_323_" class="st4" d="M9568.1-1137.3c0,0-35.8-34.5,6.8-77C9575-1214.3,9608.4-1177.4,9568.1-1137.3z"/>
	<path id="XMLID_321_" class="st4" d="M9356-1493c0,0-36.9-3.6-31-52.8C9325-1545.8,9361.6-1539.4,9356-1493z"/>
	<path id="XMLID_320_" class="st4" d="M9897.6-1170.2c0,0,1-60.9,82.2-57.7C9979.9-1228,9974.2-1167.3,9897.6-1170.2z"/>
	<path id="XMLID_318_" class="st4" d="M9839.3-1501.3c0,0,12-35.2,58.5-18.1C9897.8-1519.5,9883.3-1485.3,9839.3-1501.3z"/>
	<path id="XMLID_313_" class="st4" d="M9806.7-903.3c0,0-6.4,49.3-65.9,40.3C9740.8-863,9750.6-911.7,9806.7-903.3z"/>
</g>
<g>
	<path id="XMLID_386_" class="st30" d="M7120.3,1024.7c0-54.9-30.9-99.5-69-99.5c-3.4,0-6.7,0.3-9.9,1c3-14.4,4.6-29.6,4.6-45.4
		c0-87.1-48.9-157.6-109.3-157.6c-39.7,0-74.4,30.5-93.6,76.1c-5.8-1.7-11.7-2.7-17.8-2.7c-48.1,0-87,56.2-87,125.5
		c0,53.1,22.9,98.5,55.2,116.8c-1.4,6.8-2.1,13.8-2.1,20.9c0,67.6,65.1,122.4,145.4,122.4c52.8,0,99-23.7,124.5-59.2
		C7094.6,1116.2,7120.3,1074.8,7120.3,1024.7z"/>
	<path id="XMLID_385_" class="st31" d="M6827.4,896.1c0,0-5.1,91.3,40.3,91.3s40.3,46.9,40.3,46.9"/>
	<path id="XMLID_384_" class="st31" d="M6908,1139.4c0,0,77,17.8,76.4-73.5c0,0-4.8-45.9,27.6-45.9s27.6-39.8,27.6-39.8"/>
	<ellipse class="st5" cx="6907.9" cy="1274.1" rx="79.3" ry="25.6"/>
	<line id="XMLID_382_" class="st32" x1="6907.9" y1="1274.1" x2="6907.9" y2="870.1"/>
	<path id="XMLID_381_" class="st6" d="M6909.4,941.8c0,0-0.4-23,20.9-23C6930.4,918.8,6929.5,941.8,6909.4,941.8z"/>
	<path id="XMLID_361_" class="st4" d="M7039.9,982.6c0,0,0.3-18.8,16-17.9C7055.9,964.7,7054.7,983.5,7039.9,982.6z"/>
	<path id="XMLID_349_" class="st4" d="M6891,1043c0,0,12.6-4.7,16.2,17.4C6907.3,1060.5,6894.5,1063.9,6891,1043z"/>
	<path id="XMLID_339_" class="st4" d="M6980.6,1092.3c0,0-10.6,10.9-19.5-7.9C6961.2,1084.3,6972.3,1074.5,6980.6,1092.3z"/>
	<path id="XMLID_338_" class="st4" d="M6836.3,962c0,0-12.1,14.9-25.6-8.8C6810.8,953.2,6823.7,939.6,6836.3,962z"/>
</g>
<path class="st17" d="M8941.9-646.5l119.4-148.1c0,0-198.6-170.3-262.2-170.7c0,0,87.2,114.1,109.3,292.6L8941.9-646.5z"/>
<g>
	<path id="XMLID_410_" class="st4" d="M12985.6-696c52.4,134.3-49,171.3-49,171.3C12887.2-651.4,12985.6-696,12985.6-696z"/>
	<path id="XMLID_409_" class="st4" d="M12923.1,84.7c-85.5,64-136.9-7.6-136.9-7.6C12866.7,16.6,12923.1,84.6,12923.1,84.7z"/>
	<path id="XMLID_408_" class="st6" d="M14376,192.9c-96.6,67.5-140.2,0.3-140.2,0.3C14327,129.6,14376,192.9,14376,192.9z"/>
	<path id="XMLID_406_" class="st4" d="M12644.2-233.4c141.5-27.8,159.8,78.6,159.8,78.6C12670.7-128.6,12644.2-233.4,12644.2-233.4z
		"/>
	<path id="XMLID_405_" class="st4" d="M11524.1-1554.1c52.4,62.2,5,100.3,5,100.3C11479.6-1512.4,11524.1-1554.1,11524.1-1554.1z"/>
	<path id="XMLID_394_" class="st4" d="M11016.5-1453.9c42.7,42.5,6.8,77,6.8,77C10983.1-1417,11016.5-1453.9,11016.5-1453.9z"/>
	<path id="XMLID_393_" class="st4" d="M12171.2-911.7c5.9,49.2-31,52.8-31,52.8C12134.6-905.2,12171.2-911.7,12171.2-911.7z"/>
	<path id="XMLID_392_" class="st4" d="M10611.7-1467.5c81.2-3.2,82.2,57.7,82.2,57.7C10617.2-1406.9,10611.6-1467.6,10611.7-1467.5z
		"/>
	<path id="XMLID_390_" class="st4" d="M10693.7-1759.1c46.5-17.1,58.5,18.1,58.5,18.1C10708.2-1724.9,10693.7-1759.1,10693.7-1759.1
		z"/>
	<path id="XMLID_387_" class="st4" d="M11769.8-1123.8c-59.6,9-65.9-40.3-65.9-40.3C11760-1172.5,11769.8-1123.8,11769.8-1123.8z"/>
</g>
<path id="XMLID_412_" class="st5" d="M9153.8,1373.5c0,0-105.1,59.8-277.1-130C8876.7,1243.5,9060.2,1164.9,9153.8,1373.5z"/>
<path id="XMLID_411_" class="st4" d="M9183.1,1349.8c0,0-105.1,59.8-277.1-130C8906,1219.7,9089.4,1141.2,9183.1,1349.8z"/>
<path id="XMLID_413_" class="st5" d="M10034.6,1207.4c0,0-51.5,71.6-136.9,7.6C9897.7,1214.9,9954,1146.9,10034.6,1207.4z"/>
<path id="XMLID_331_" class="st4" d="M10042.9,1186.7c0,0-51.5,71.6-136.9,7.6C9905.9,1194.2,9962.3,1126.2,10042.9,1186.7z"/>
<rect x="13503" y="-705.2" class="st7" width="229" height="292.5"/>
</svg>
