<?xml version="1.0" encoding="utf-8"?>
<!-- Generator: Adobe Illustrator 25.2.0, SVG Export Plug-In . SVG Version: 6.00 Build 0)  -->
<svg version="1.1" id="Warstwa_1" xmlns="http://www.w3.org/2000/svg" xmlns:xlink="http://www.w3.org/1999/xlink" x="0px" y="0px"
	 viewBox="0 0 825 472" style="enable-background:new 0 0 825 472;" xml:space="preserve">
<style type="text/css">
	.st0{clip-path:url(#SVGID_2_);fill:url(#SVGID_3_);}
	.st1{fill:#FFFFFF;}
	.st2{font-family:'Montserrat-Regular';}
	.st3{font-size:14px;}
	.st4{font-size:42px;}
	.st5{font-family:'Montserrat-Black';}
	.st6{font-size:37px;}
	.st7{fill:#32866B;}
	.st8{opacity:0.7;fill:#FFFFFF;enable-background:new    ;}
	.st9{fill:none;stroke:#404040;stroke-width:0.7448;stroke-miterlimit:10;}
	.st10{fill:none;stroke:#404040;stroke-width:0.4661;stroke-miterlimit:10;}
	.st11{fill:#43B38F;}
	.st12{fill:none;stroke:#404040;stroke-width:0.2423;stroke-miterlimit:10;}
	.st13{fill:#404040;}
	.st14{fill:#FCC812;}
	.st15{fill:#666666;}
	.st16{fill:#8C8C8C;}
	.st17{fill:#BD960C;}
	.st18{fill:#666666;stroke:#1A2E35;stroke-width:0.0693;stroke-linecap:round;stroke-linejoin:round;stroke-miterlimit:10;}
	.st19{fill:#404040;stroke:#404040;stroke-width:0.1253;stroke-miterlimit:10;}
	.st20{fill:#303030;}
	.st21{fill:#FFFFFF;stroke:#1A2E35;stroke-width:0.2149;stroke-linecap:round;stroke-linejoin:round;stroke-miterlimit:10;}
	.st22{fill:#666666;stroke:#1A2E35;stroke-width:0.0876;stroke-linecap:round;stroke-linejoin:round;stroke-miterlimit:10;}
	.st23{fill:#404040;stroke:#404040;stroke-width:0.1927;stroke-miterlimit:10;}
	.st24{fill:none;stroke:#43B38F;stroke-width:0.4661;stroke-miterlimit:10;}
	.st25{fill:none;stroke:#43B38F;stroke-width:0.4661;stroke-miterlimit:10;stroke-dasharray:0.6223,1.0371;}
	.st26{fill:none;stroke:#43B38F;stroke-width:0.4661;stroke-miterlimit:10;stroke-dasharray:0.6294,1.0488;}
	.st27{fill:#666666;stroke:#1A2E35;stroke-width:0.0748;stroke-linecap:round;stroke-linejoin:round;stroke-miterlimit:10;}
	.st28{fill:#404040;stroke:#404040;stroke-width:0.1352;stroke-miterlimit:10;}
	.st29{fill:#8E7109;}
	.st30{fill:none;stroke:#FCC812;stroke-width:0.1914;stroke-miterlimit:10;}
	.st31{opacity:0.5;fill:#32866B;enable-background:new    ;}
</style>
<g>
	<g>
		<g>
			<defs>
				<rect id="SVGID_1_" y="0" width="825" height="472"/>
			</defs>
			<clipPath id="SVGID_2_">
				<use xlink:href="#SVGID_1_"  style="overflow:visible;"/>
			</clipPath>
			
				<linearGradient id="SVGID_3_" gradientUnits="userSpaceOnUse" x1="-1213.6371" y1="1279.3562" x2="-1212.0483" y2="1279.3562" gradientTransform="matrix(526.5874 0 0 -526.5874 639063.1875 673971.375)">
				<stop  offset="0" style="stop-color:#379E6E"/>
				<stop  offset="1" style="stop-color:#72C6D4"/>
			</linearGradient>
			<rect x="-22.8" y="-156.78" class="st0" width="870.6" height="870.6"/>
		</g>
	</g>
</g>
<g>
	<text transform="matrix(1 0 0 1 217.811 57.7136)" class="st1 st2 st3">Skomponuj swój autorski projekt kalendarza lub notesu</text>
</g>
<g>
	<path class="st1" d="M86.28,433.2c7.23-0.07,14.06-2.91,19.26-8.02c5.19-5.1,8.16-11.89,8.35-19.11
		c0.15-5.46-1.29-10.79-4.16-15.42c-0.37-0.6-1.05-0.97-1.76-0.97c-0.76,0-1.44,0.4-1.81,1.06c-0.37,0.67-0.35,1.46,0.05,2.12
		c2.51,4.05,3.72,8.72,3.51,13.51c-0.51,11.72-10.85,22.09-22.57,22.65c-6.66,0.32-13.19-2.21-17.92-6.93
		c-4.72-4.72-7.25-11.25-6.93-17.92c0.55-11.72,10.92-22.05,22.65-22.57c4.79-0.21,9.46,1.01,13.51,3.51
		c0.66,0.41,1.45,0.43,2.12,0.05c0.67-0.37,1.06-1.05,1.06-1.81c0-0.71-0.37-1.39-0.97-1.76c-4.63-2.87-9.96-4.31-15.42-4.16
		c-7.22,0.19-14.01,3.16-19.11,8.35s-7.95,12.03-8.02,19.26c-0.07,7.54,2.83,14.63,8.18,19.98c5.27,5.27,12.27,8.18,19.71,8.18
		C86.1,433.2,86.19,433.2,86.28,433.2"/>
	<path class="st1" d="M86,388.51c-0.96,0-1.66,0.49-2.07,1.47l-10.54,25.17c-0.34,0.75-0.29,1.48,0.13,2.15
		c0.42,0.68,1.04,1.02,1.83,1.02c0.4,0,0.79-0.11,1.16-0.34c0.38-0.23,0.68-0.57,0.88-1.02l3.16-7.72h10.97l3.11,7.72
		c0.17,0.43,0.45,0.76,0.83,1c0.38,0.24,0.78,0.36,1.2,0.36c0.81,0,1.44-0.32,1.85-0.96c0.41-0.63,0.46-1.35,0.16-2.13l-10.58-25.25
		C87.72,389,87.02,388.51,86,388.51 M81.98,405.73l4.09-10l4.03,10H81.98z"/>
	<path class="st1" d="M140.05,407.24c0.31-0.48,0.35-1.01,0.12-1.6l-7.37-17.59c-0.27-0.72-0.81-1.11-1.56-1.11
		c-0.71,0-1.25,0.38-1.56,1.1l-7.34,17.53c-0.25,0.57-0.22,1.11,0.1,1.62c0.31,0.5,0.79,0.77,1.38,0.77c0.3,0,0.59-0.08,0.87-0.25
		c0.29-0.17,0.51-0.43,0.66-0.77l2.17-5.3H135l2.13,5.3c0.13,0.32,0.34,0.58,0.63,0.76c0.28,0.18,0.59,0.27,0.91,0.27
		C139.26,407.97,139.74,407.72,140.05,407.24 M128.62,398.94l2.66-6.51l2.62,6.51H128.62z"/>
	<path class="st1" d="M146.16,396.37c0.69-0.32,1.53-0.47,2.49-0.44c0.25,0.01,0.49-0.02,0.69-0.11c0.21-0.09,0.39-0.24,0.53-0.44
		s0.21-0.46,0.21-0.76c0.01-0.42-0.14-1-0.92-1.37c-0.58-0.28-1.34-0.32-2.33-0.12c-0.79,0.16-1.5,0.48-2.12,0.95
		c-0.05-0.34-0.18-0.61-0.39-0.81c-0.28-0.27-0.68-0.41-1.19-0.41c-0.5,0-0.9,0.14-1.18,0.43c-0.28,0.29-0.43,0.68-0.43,1.18v11.9
		c0,0.52,0.15,0.92,0.43,1.2c0.28,0.27,0.68,0.41,1.18,0.41c0.52,0,0.92-0.15,1.2-0.43c0.27-0.28,0.41-0.68,0.41-1.18v-8.8
		C145.05,397.06,145.53,396.66,146.16,396.37"/>
	<path class="st1" d="M159.37,404.75h-0.89c-0.47,0-0.85-0.19-1.18-0.59c-0.34-0.42-0.51-0.93-0.51-1.56v-6.54h2.04
		c0.44,0,0.81-0.13,1.09-0.39c0.29-0.27,0.44-0.61,0.44-1.01c0-0.43-0.15-0.79-0.44-1.06c-0.28-0.26-0.65-0.39-1.09-0.39h-2.04
		v-3.08c0-0.46-0.15-0.85-0.45-1.15s-0.69-0.45-1.15-0.45c-0.46,0-0.85,0.15-1.16,0.45c-0.3,0.3-0.45,0.69-0.45,1.15v3.08h-0.78
		c-0.44,0-0.81,0.13-1.09,0.39c-0.29,0.27-0.44,0.62-0.44,1.06c0,0.4,0.15,0.74,0.44,1.01c0.28,0.26,0.65,0.39,1.09,0.39h0.78v6.54
		c0,1,0.21,1.92,0.64,2.73c0.42,0.81,1.01,1.46,1.75,1.93s1.59,0.71,2.51,0.71h0.47c0.53,0,0.97-0.15,1.31-0.44
		c0.36-0.3,0.54-0.7,0.54-1.17c0-0.46-0.14-0.84-0.4-1.14C160.12,404.9,159.78,404.75,159.37,404.75"/>
	<path class="st1" d="M203.73,404.26c0.6-1.13,0.91-2.42,0.91-3.84c0-1.42-0.33-2.72-0.99-3.86c-0.66-1.14-1.56-2.05-2.68-2.71
		s-2.41-1-3.84-1c-1.41,0-2.69,0.34-3.81,1s-2.02,1.57-2.67,2.71c-0.65,1.14-0.99,2.44-1.01,3.86v11.92c0,0.46,0.16,0.86,0.47,1.17
		c0.31,0.31,0.7,0.47,1.17,0.47c0.48,0,0.88-0.16,1.18-0.47c0.3-0.31,0.45-0.7,0.45-1.16v-6.29c0.52,0.5,1.11,0.92,1.77,1.24
		c0.9,0.45,1.9,0.67,2.97,0.67c1.32,0,2.53-0.34,3.59-1C202.28,406.3,203.12,405.39,203.73,404.26 M200.9,402.77
		c-0.38,0.69-0.9,1.24-1.55,1.64c-0.64,0.4-1.39,0.6-2.22,0.6c-0.81,0-1.55-0.2-2.21-0.6s-1.18-0.95-1.55-1.64
		c-0.37-0.69-0.56-1.48-0.56-2.35c0-0.89,0.19-1.69,0.56-2.38s0.89-1.24,1.55-1.64c0.65-0.4,1.4-0.6,2.21-0.6
		c0.83,0,1.57,0.2,2.22,0.6s1.17,0.95,1.55,1.64s0.58,1.49,0.58,2.38C201.48,401.29,201.28,402.08,200.9,402.77"/>
	<path class="st1" d="M218.76,405.24c-0.02-0.4-0.21-0.76-0.58-1.08c-0.28-0.24-0.62-0.36-1-0.35c-0.37,0.01-0.71,0.13-1.02,0.36
		c-0.32,0.24-0.76,0.46-1.29,0.65s-1.06,0.28-1.56,0.28c-0.94,0-1.77-0.21-2.49-0.61c-0.72-0.41-1.29-0.97-1.69-1.67
		c-0.21-0.36-0.37-0.76-0.47-1.19h9.57c0.43,0,0.79-0.14,1.07-0.41c0.29-0.28,0.43-0.63,0.43-1.04c0-1.42-0.27-2.69-0.8-3.78
		c-0.54-1.1-1.33-1.98-2.35-2.61c-1.02-0.63-2.25-0.95-3.66-0.95c-1.42,0-2.71,0.33-3.81,0.97c-1.11,0.64-1.98,1.54-2.61,2.68
		c-0.62,1.13-0.94,2.45-0.94,3.92c0,1.46,0.33,2.77,0.99,3.9s1.59,2.03,2.76,2.67c1.16,0.64,2.51,0.97,4,0.97
		c0.83,0,1.71-0.16,2.62-0.46c0.91-0.31,1.68-0.71,2.3-1.2C218.7,405.95,218.78,405.53,218.76,405.24 M209.03,397.98
		c0.34-0.7,0.84-1.26,1.49-1.66c0.65-0.4,1.46-0.61,2.39-0.61c0.81,0,1.5,0.19,2.06,0.55c0.56,0.37,1,0.88,1.31,1.51
		c0.17,0.36,0.3,0.75,0.38,1.17h-7.97C208.78,398.6,208.89,398.27,209.03,397.98"/>
	<path class="st1" d="M230.15,397.59c0.34,0.58,0.51,1.35,0.51,2.29v6.45c0,0.47,0.16,0.86,0.47,1.17c0.31,0.31,0.7,0.47,1.17,0.47
		c0.46,0,0.86-0.16,1.17-0.47s0.47-0.71,0.47-1.17v-6.45c0-1.5-0.29-2.78-0.86-3.82s-1.37-1.85-2.37-2.39
		c-0.99-0.54-2.13-0.81-3.37-0.81c-1.2,0-2.29,0.27-3.26,0.8c-0.11,0.06-0.22,0.12-0.33,0.19c-0.07-0.15-0.17-0.28-0.29-0.4
		c-0.3-0.3-0.7-0.46-1.18-0.46c-0.46,0-0.86,0.15-1.17,0.45c-0.31,0.3-0.47,0.7-0.47,1.19v11.7c0,0.47,0.16,0.86,0.47,1.17
		c0.31,0.31,0.7,0.47,1.17,0.47c0.48,0,0.88-0.16,1.18-0.47c0.3-0.31,0.45-0.7,0.45-1.17v-9.26c0.29-0.32,0.64-0.58,1.04-0.78
		c0.55-0.27,1.17-0.41,1.85-0.41c0.75,0,1.42,0.14,2,0.43C229.36,396.58,229.82,397.01,230.15,397.59"/>
	<path class="st1" d="M185.85,389.61L185.85,389.61c-0.96-0.97-2.12-1.74-3.43-2.27s-2.78-0.8-4.37-0.8c-1.58,0-3.06,0.27-4.38,0.8
		c-1.32,0.54-2.48,1.3-3.43,2.27s-1.7,2.13-2.23,3.46c-0.52,1.32-0.79,2.79-0.79,4.38c0,1.58,0.27,3.06,0.79,4.39
		c0.53,1.33,1.28,2.5,2.23,3.47s2.11,1.74,3.43,2.27c1.32,0.53,2.79,0.8,4.38,0.8c1.58,0,3.05-0.27,4.37-0.8
		c1.31-0.53,2.47-1.3,3.43-2.27c0.96-0.97,1.72-2.14,2.24-3.47s0.79-2.8,0.79-4.39c0-1.58-0.27-3.06-0.79-4.38
		C187.56,391.74,186.81,390.58,185.85,389.61 M184.83,400.44c-0.35,0.91-0.86,1.72-1.51,2.4s-1.43,1.21-2.32,1.6
		c-0.89,0.38-1.88,0.58-2.94,0.58c-1.07,0-2.06-0.19-2.94-0.58c-0.89-0.38-1.67-0.92-2.31-1.6s-1.15-1.48-1.51-2.4
		s-0.54-1.93-0.54-3s0.18-2.08,0.54-3s0.87-1.72,1.51-2.4c0.64-0.67,1.42-1.21,2.3-1.58c0.89-0.37,1.88-0.57,2.95-0.57
		c1.07,0,2.06,0.19,2.95,0.57c0.89,0.37,1.67,0.91,2.32,1.58c0.65,0.68,1.16,1.48,1.51,2.4c0.35,0.92,0.53,1.93,0.53,3
		C185.36,398.51,185.18,399.52,184.83,400.44"/>
	<path class="st1" d="M136.83,421.28c-0.32-0.28-0.81-0.47-1.48-0.56c-0.37-0.05-0.67-0.12-0.89-0.22s-0.38-0.22-0.47-0.36
		c-0.1-0.14-0.14-0.29-0.14-0.46c0-0.31,0.13-0.55,0.38-0.71s0.59-0.24,1.01-0.24c0.24,0,0.44,0.04,0.61,0.09
		c0.17,0.06,0.31,0.14,0.43,0.24c0.12,0.1,0.22,0.21,0.3,0.32c0.04,0.07,0.1,0.12,0.19,0.14c0.08,0.02,0.16,0.02,0.24-0.02
		c0.07-0.04,0.12-0.1,0.14-0.17s0-0.15-0.05-0.23c-0.11-0.17-0.26-0.32-0.43-0.46c-0.18-0.14-0.39-0.25-0.62-0.34
		c-0.24-0.08-0.5-0.13-0.8-0.13c-0.39,0-0.74,0.06-1.04,0.18s-0.54,0.29-0.71,0.51s-0.26,0.48-0.26,0.77c0,0.41,0.18,0.76,0.53,1.05
		c0.35,0.29,0.84,0.46,1.46,0.53c0.51,0.06,0.88,0.19,1.12,0.41c0.24,0.21,0.36,0.47,0.36,0.77c0,0.23-0.06,0.43-0.19,0.6
		c-0.12,0.16-0.3,0.29-0.51,0.37c-0.21,0.08-0.47,0.13-0.75,0.13c-0.25,0-0.49-0.03-0.7-0.09c-0.21-0.06-0.4-0.15-0.55-0.26
		c-0.15-0.11-0.27-0.24-0.35-0.38c-0.04-0.07-0.09-0.12-0.16-0.15s-0.14-0.04-0.22-0.02c-0.1,0.02-0.16,0.07-0.2,0.14
		s-0.04,0.14,0,0.22c0.11,0.22,0.27,0.41,0.49,0.58c0.21,0.17,0.46,0.29,0.75,0.38s0.6,0.14,0.94,0.14c0.29,0,0.56-0.04,0.81-0.11
		c0.25-0.07,0.47-0.18,0.66-0.32s0.34-0.31,0.44-0.52s0.16-0.44,0.16-0.7C137.32,421.94,137.16,421.57,136.83,421.28"/>
	<path class="st1" d="M143.59,418.26h-1.9h-0.62h-1.89c-0.08,0-0.15,0.02-0.21,0.07c-0.05,0.05-0.08,0.11-0.08,0.19
		c0,0.07,0.03,0.13,0.08,0.18s0.12,0.07,0.21,0.07h1.89v4.9c0,0.08,0.03,0.14,0.09,0.2s0.13,0.08,0.22,0.08s0.16-0.03,0.22-0.08
		c0.06-0.06,0.09-0.12,0.09-0.2v-4.9h1.9c0.08,0,0.15-0.02,0.21-0.07s0.08-0.11,0.08-0.18c0-0.08-0.03-0.14-0.08-0.19
		C143.74,418.29,143.67,418.26,143.59,418.26"/>
	<path class="st1" d="M150.68,418.26c-0.09,0-0.16,0.03-0.22,0.08s-0.09,0.12-0.09,0.2v3.54c0,0.29-0.08,0.54-0.24,0.76
		s-0.37,0.39-0.65,0.52c-0.28,0.12-0.59,0.19-0.95,0.19s-0.68-0.06-0.96-0.19c-0.28-0.13-0.5-0.3-0.66-0.52s-0.23-0.47-0.23-0.76
		v-3.54c0-0.08-0.03-0.15-0.09-0.2c-0.06-0.05-0.13-0.08-0.22-0.08s-0.16,0.03-0.22,0.08s-0.09,0.12-0.09,0.2v3.54
		c0,0.39,0.1,0.74,0.31,1.04c0.21,0.3,0.5,0.54,0.88,0.71c0.37,0.17,0.8,0.26,1.29,0.26c0.48,0,0.9-0.08,1.27-0.26
		c0.37-0.17,0.66-0.41,0.87-0.71c0.21-0.3,0.31-0.65,0.31-1.04v-3.54c0-0.08-0.03-0.15-0.08-0.2
		C150.85,418.29,150.78,418.26,150.68,418.26"/>
	<path class="st1" d="M157.84,419.06c-0.28-0.26-0.6-0.45-0.98-0.59c-0.38-0.14-0.8-0.21-1.25-0.21h-1.43
		c-0.09,0-0.16,0.03-0.22,0.08s-0.09,0.12-0.09,0.2v5.14c0,0.08,0.03,0.15,0.09,0.2c0.06,0.05,0.13,0.08,0.22,0.08h1.43
		c0.46,0,0.87-0.07,1.25-0.21c0.38-0.14,0.71-0.34,0.98-0.59c0.28-0.26,0.49-0.56,0.64-0.91s0.23-0.73,0.23-1.15
		c0-0.42-0.08-0.8-0.23-1.15C158.33,419.62,158.12,419.32,157.84,419.06 M157.78,422.32c-0.21,0.35-0.51,0.63-0.88,0.83
		c-0.37,0.2-0.81,0.3-1.29,0.3h-1.12v-4.68h1.12c0.49,0,0.92,0.1,1.29,0.3c0.37,0.2,0.67,0.48,0.88,0.83
		c0.21,0.35,0.32,0.76,0.32,1.21C158.1,421.57,157.99,421.97,157.78,422.32"/>
	<path class="st1" d="M161.58,418.26c-0.09,0-0.16,0.03-0.22,0.08s-0.09,0.12-0.09,0.2v5.14c0,0.08,0.03,0.15,0.09,0.2
		c0.06,0.05,0.13,0.08,0.22,0.08s0.16-0.03,0.22-0.08s0.09-0.12,0.09-0.2v-5.14c0-0.08-0.03-0.15-0.09-0.2
		C161.74,418.29,161.67,418.26,161.58,418.26"/>
	<path class="st1" d="M169.91,419.02c-0.29-0.26-0.62-0.47-1.01-0.61c-0.39-0.15-0.81-0.22-1.27-0.22s-0.89,0.07-1.27,0.22
		c-0.39,0.15-0.72,0.35-1.01,0.61c-0.28,0.26-0.51,0.57-0.66,0.93c-0.16,0.36-0.23,0.74-0.23,1.16s0.08,0.81,0.23,1.17
		c0.16,0.36,0.38,0.66,0.66,0.93c0.28,0.26,0.62,0.47,1.01,0.61c0.39,0.15,0.81,0.22,1.27,0.22s0.88-0.07,1.27-0.22
		s0.72-0.35,1.01-0.61c0.29-0.26,0.51-0.57,0.67-0.93s0.23-0.75,0.23-1.17s-0.08-0.81-0.23-1.16
		C170.42,419.6,170.2,419.29,169.91,419.02 M170.01,422.06c-0.13,0.29-0.31,0.54-0.54,0.76s-0.5,0.38-0.82,0.5
		c-0.31,0.12-0.65,0.18-1.02,0.18c-0.37,0-0.71-0.06-1.03-0.18c-0.31-0.12-0.59-0.29-0.82-0.5c-0.23-0.22-0.41-0.47-0.54-0.76
		c-0.13-0.29-0.19-0.6-0.19-0.95c0-0.34,0.06-0.65,0.19-0.94s0.31-0.54,0.54-0.76s0.5-0.38,0.82-0.5c0.31-0.12,0.66-0.18,1.03-0.18
		s0.71,0.06,1.02,0.18s0.59,0.29,0.82,0.5c0.23,0.22,0.41,0.47,0.54,0.76c0.13,0.29,0.19,0.6,0.19,0.94
		C170.2,421.45,170.13,421.77,170.01,422.06"/>
	<path class="st1" d="M179.56,421.62c0.09-0.03,0.17-0.06,0.26-0.1c0.3-0.15,0.54-0.35,0.71-0.61c0.17-0.26,0.26-0.55,0.26-0.88
		c0-0.35-0.09-0.65-0.26-0.92c-0.17-0.26-0.41-0.47-0.71-0.62s-0.65-0.22-1.04-0.22h-1.49c-0.09,0-0.17,0.03-0.22,0.08
		c-0.06,0.05-0.09,0.12-0.09,0.2v5.14c0,0.08,0.03,0.15,0.09,0.2c0.06,0.05,0.13,0.08,0.22,0.08s0.16-0.03,0.22-0.08
		s0.09-0.12,0.09-0.2v-1.95h1.18c0.05,0,0.09,0,0.14-0.01l1.43,2.1c0.03,0.05,0.07,0.08,0.11,0.11c0.04,0.02,0.09,0.04,0.16,0.04
		c0.14,0,0.24-0.04,0.29-0.13c0.05-0.09,0.04-0.19-0.04-0.31L179.56,421.62z M178.78,421.19h-1.18v-2.38h1.18
		c0.27,0,0.51,0.05,0.72,0.15s0.38,0.24,0.5,0.43c0.12,0.18,0.18,0.39,0.18,0.63c0,0.22-0.06,0.42-0.18,0.6s-0.29,0.31-0.5,0.41
		C179.29,421.14,179.05,421.19,178.78,421.19"/>
	<path class="st1" d="M187.22,418.81c0.08,0,0.16-0.03,0.22-0.08s0.09-0.12,0.09-0.19c0-0.08-0.03-0.15-0.09-0.2
		c-0.06-0.05-0.13-0.08-0.22-0.08h-3.74c-0.09,0-0.16,0.03-0.22,0.08s-0.09,0.12-0.09,0.2v5.14c0,0.08,0.03,0.15,0.09,0.2
		c0.06,0.05,0.13,0.08,0.22,0.08h3.74c0.08,0,0.16-0.03,0.22-0.08s0.09-0.12,0.09-0.2c0-0.07-0.03-0.14-0.09-0.19
		s-0.13-0.08-0.22-0.08h-3.43v-2.04h2.49c0.09,0,0.16-0.03,0.22-0.08s0.09-0.12,0.09-0.2c0-0.08-0.03-0.14-0.09-0.2
		c-0.06-0.05-0.13-0.08-0.22-0.08h-2.49v-2.02h3.43V418.81z"/>
	<path class="st1" d="M194.02,418.54c0-0.08-0.02-0.14-0.07-0.19s-0.12-0.08-0.22-0.08c-0.05,0-0.09,0.01-0.13,0.02
		c-0.04,0.01-0.08,0.04-0.12,0.08l-2.91,2.67v-2.48c0-0.08-0.03-0.15-0.09-0.2c-0.06-0.06-0.13-0.08-0.22-0.08
		c-0.08,0-0.16,0.03-0.22,0.08c-0.06,0.06-0.09,0.12-0.09,0.2v5.14c0,0.08,0.03,0.15,0.09,0.2c0.06,0.06,0.13,0.08,0.22,0.08
		c0.08,0,0.16-0.03,0.22-0.08c0.06-0.06,0.09-0.12,0.09-0.2v-1.87l0.71-0.66l2.17,2.69c0.06,0.08,0.15,0.12,0.26,0.12
		c0.07,0,0.14-0.02,0.19-0.07c0.05-0.05,0.08-0.11,0.09-0.18s-0.01-0.14-0.06-0.2l-2.21-2.76l2.18-2
		C193.98,418.68,194.01,418.61,194.02,418.54"/>
	<path class="st1" d="M200.19,423.43h-3.11v-4.88c0-0.08-0.03-0.15-0.09-0.2c-0.06-0.06-0.13-0.08-0.22-0.08
		c-0.08,0-0.16,0.03-0.22,0.08c-0.06,0.06-0.09,0.12-0.09,0.2v5.14c0,0.08,0.03,0.15,0.09,0.2c0.06,0.05,0.13,0.08,0.22,0.08h3.43
		c0.08,0,0.16-0.02,0.22-0.08c0.06-0.05,0.09-0.12,0.09-0.19c0-0.08-0.03-0.14-0.09-0.19C200.34,423.46,200.27,423.43,200.19,423.43
		"/>
	<path class="st1" d="M205.09,418.46c-0.06-0.13-0.16-0.2-0.3-0.2s-0.24,0.07-0.3,0.2l-2.34,5.1c-0.04,0.09-0.04,0.18,0.02,0.27
		c0.05,0.09,0.14,0.14,0.26,0.14c0.06,0,0.12-0.01,0.17-0.04s0.09-0.07,0.12-0.13l0.54-1.18h3.08l0.53,1.18
		c0.03,0.06,0.07,0.1,0.12,0.13c0.05,0.03,0.11,0.04,0.17,0.04c0.11,0,0.2-0.04,0.26-0.13s0.07-0.18,0.02-0.27L205.09,418.46z
		 M203.47,422.12l1.33-2.93l1.31,2.93H203.47z"/>
	<path class="st1" d="M215.56,418.26c-0.12,0-0.21,0.05-0.28,0.15l-2.5,4.65l-2.55-4.65c-0.06-0.1-0.15-0.15-0.28-0.15
		c-0.08,0-0.16,0.03-0.22,0.08s-0.09,0.12-0.09,0.2v5.14c0,0.08,0.03,0.14,0.09,0.2s0.13,0.08,0.22,0.08c0.08,0,0.16-0.03,0.22-0.08
		c0.06-0.06,0.09-0.12,0.09-0.2v-4.07l2.21,4.05c0.06,0.12,0.15,0.18,0.29,0.18c0.12,0,0.21-0.05,0.27-0.14l2.21-4.15v4.14
		c0,0.08,0.03,0.14,0.09,0.2s0.14,0.08,0.23,0.08c0.08,0,0.16-0.03,0.21-0.08c0.06-0.06,0.09-0.12,0.09-0.2v-5.14
		c0-0.08-0.03-0.15-0.09-0.2C215.72,418.29,215.64,418.26,215.56,418.26"/>
	<path class="st1" d="M222.78,418.26c-0.06,0-0.12,0.01-0.16,0.04c-0.05,0.02-0.09,0.06-0.12,0.12l-1.98,2.92l-1.98-2.93
		c-0.03-0.04-0.07-0.08-0.11-0.1c-0.04-0.02-0.09-0.04-0.16-0.04c-0.08,0-0.15,0.02-0.2,0.07c-0.05,0.04-0.09,0.1-0.1,0.17
		c-0.01,0.07,0.01,0.14,0.06,0.21l2.17,3.15v1.83c0,0.08,0.03,0.14,0.09,0.2s0.13,0.08,0.22,0.08c0.08,0,0.16-0.03,0.22-0.08
		c0.06-0.06,0.09-0.12,0.09-0.2v-1.83l2.17-3.15c0.05-0.07,0.07-0.14,0.06-0.2c-0.01-0.07-0.04-0.13-0.09-0.17
		C222.92,418.29,222.86,418.26,222.78,418.26"/>
	<path class="st1" d="M233.76,420.92h-6.3c-0.09,0-0.17,0.1-0.17,0.22s0.08,0.22,0.17,0.22h6.3c0.09,0,0.17-0.1,0.17-0.22
		C233.93,421.02,233.85,420.92,233.76,420.92"/>
	<path class="st1" d="M128.64,420.92h-6.3c-0.09,0-0.17,0.1-0.17,0.22s0.08,0.22,0.17,0.22h6.3c0.09,0,0.17-0.1,0.17-0.22
		C128.81,421.02,128.73,420.92,128.64,420.92"/>
</g>
<text transform="matrix(1 0 0 1 53.3268 143.3633)" class="st1 st2 st4">Kreator kalendarzy</text>
<text transform="matrix(1 0 0 1 53.3268 187.7633)" class="st1 st5 st6">ONLINE</text>
<g>
	<ellipse class="st7" cx="568.12" cy="392.79" rx="154.76" ry="3.26"/>
	<g>
		<g>
			<path class="st1" d="M717.01,298.54c0,0-6.53-69.46-59.2-96.49s-80.18-18.65-113.74-3.26s-46.18,43.13-75.05,56.4
				c-28.87,13.28-70.85,22.38-72.72,54.07s9.32,53.14,25.17,61.53s31.23,8.39,31.23,8.39h243.33
				C696.03,379.18,726.33,363.8,717.01,298.54z"/>
			<path class="st8" d="M717.01,298.54c0,0-6.53-69.46-59.2-96.49s-80.18-18.65-113.74-3.26s-46.18,43.13-75.05,56.4
				c-28.87,13.28-70.85,22.38-72.72,54.07s9.32,53.14,25.17,61.53s31.23,8.39,31.23,8.39h243.33
				C696.03,379.18,726.33,363.8,717.01,298.54z"/>
		</g>
	</g>
	<path class="st9" d="M348.23,250.92c0,0,35.58,25.56,90.7,38.23c61.01,14.02,160.28,126.35,245.78,99.06
		c54.7-17.46,48.84-93.62-11.21-98.75c-82.2-7.02,26.8-67.5,26.8-67.5"/>
	<g>
		<line class="st10" x1="491.08" y1="373.43" x2="533.04" y2="373.43"/>
		<line class="st10" x1="283.18" y1="373.43" x2="485.96" y2="373.43"/>
		<line class="st10" x1="219.32" y1="373.43" x2="278.99" y2="373.43"/>
	</g>
	<g>
		<g>
			<g>
				<g>
					<path class="st11" d="M410.05,339.68c0,0,6.39,5.07,9.44,10.36c3.05,5.28,2.96,8.86,2.96,8.86s-9.01-6.44-11.05-10.8
						C409.35,343.75,410.05,339.68,410.05,339.68z"/>
					<path class="st11" d="M437.03,332.61c0,0,1.4,9.1-1.95,14.71s-12.57,11.43-12.57,11.43s-1.33-4.09,3.51-10.31
						C430.85,342.23,437.03,332.61,437.03,332.61z"/>
					<path class="st11" d="M422.03,348.66c0,0,0.09-7,4.44-14.22s9.56-14.54,10.78-17.65s1.97-6.6,1.97-6.6s1.81,6-1.58,13.99
						C434.25,332.16,422.03,348.66,422.03,348.66z"/>
					<path class="st11" d="M422.35,345.78c0,0-5.13-6.53-8.68-14s-2.98-15.22-2.98-15.22s6.66,8.63,8.77,15.37
						C421.59,338.67,422.35,345.78,422.35,345.78z"/>
					<path class="st11" d="M423.37,331.02c0,0,1.21-10.73,4.1-16.68c2.89-5.95,8.81-15.15,8.81-15.15s0.73,10.3-3.93,18.51
						C427.7,325.92,423.37,331.02,423.37,331.02z"/>
					<path class="st11" d="M423.61,324.86c0,0-6.02-8.96-7.66-15.37s-3.08-17.25-3.08-17.25s7.22,7.38,8.98,16.66
						C423.62,318.17,423.61,324.86,423.61,324.86z"/>
					<path class="st11" d="M420.62,286.17c0,0,5.65,4.17,4.76,12.91c-0.89,8.75-1.75,11.7-1.75,11.7
						C424.52,304.8,420.62,286.17,420.62,286.17z"/>
				</g>
			</g>
		</g>
		<g>
			<path class="st12" d="M422.61,361.68c0,0-0.52-1.38-0.52-11.94c0-10.55,1.38-14.7,1.38-25.08s0.69-20.07,0.69-20.07"/>
			<path class="st12" d="M423.41,329.99c0,0,3.76-8.1,5.35-11.14c1.47-2.81,3.18-7.38,3.18-7.38"/>
			<path class="st12" d="M430.56,333.31c-2.31,4.28-7.59,13.99-8.54,15.34"/>
			<path class="st12" d="M431.65,331.3c0,0-0.24,0.45-0.66,1.22"/>
			<line class="st12" x1="416.55" y1="331.23" x2="415.3" y2="328.26"/>
			<line class="st12" x1="422.1" y1="344.46" x2="417.11" y2="332.55"/>
			<path class="st12" d="M418.16,353.49c-1.08-1.33-2.2-2.82-3.14-4.26"/>
			<path class="st12" d="M428.32,351.17c-2.5,3.02-6.21,6.89-6.21,6.89s-1.3-1.39-2.93-3.34"/>
			<path class="st12" d="M430.2,348.66c-0.22,0.37-0.54,0.81-0.93,1.31"/>
			<line class="st12" x1="420.05" y1="312.02" x2="419.21" y2="309.16"/>
			<line class="st12" x1="423.41" y1="323.34" x2="420.5" y2="313.53"/>
		</g>
		<polygon class="st13" points="415.17,356.63 430.27,356.63 430.27,362.02 428.85,362.02 427.01,373.88 418.44,373.88 
			416.6,362.02 415.17,362.02 		"/>
	</g>
	<g>
		<g id="XMLID_84_">
			<path class="st14" d="M552.71,360.13c0,0,5.03,21.65,2.84,25.21c-2.87,4.65-33.38,7.46-33.38,7.46h67.29c0,0,8.43-2.37,5.9-9.14
				c-1.96-5.25-11.37-23.52-11.37-23.52L552.71,360.13L552.71,360.13z"/>
			<path class="st14" d="M551.24,360.13c0,0,5.37,21.83,2.84,25.21c-2.53,3.38-31.91,5.96-31.91,5.96h67.61c0,0,5.69-2.3,4.11-7.64
				c-1.58-5.35-11.37-23.52-11.37-23.52L551.24,360.13L551.24,360.13z"/>
			<path class="st13" d="M582.51,360.13h-31.28c0,0,3.18,12.93,3.49,20.43h37.99C589.64,373.36,582.51,360.13,582.51,360.13z"/>
			<rect x="522.17" y="391.4" class="st14" width="67.29" height="1.39"/>
			<path id="XMLID_88_" class="st14" d="M666.73,362.26H471.6c-2.18,0-3.95-1.77-3.95-3.95V213.94c0-2.18,1.77-3.95,3.95-3.95
				h195.12c2.18,0,3.95,1.77,3.95,3.95V358.3C670.68,360.49,668.91,362.26,666.73,362.26z"/>
			<path id="XMLID_87_" class="st13" d="M661.94,362.26H466.82c-2.18,0-3.95-1.77-3.95-3.95V213.94c0-2.18,1.77-3.95,3.95-3.95
				h195.12c2.18,0,3.95,1.77,3.95,3.95V358.3C665.89,360.49,664.12,362.26,661.94,362.26z"/>
			<path id="XMLID_86_" class="st14" d="M661.94,362.26H466.82c-2.18,0-3.95-1.77-3.95-3.95V338.6H665.9v19.71
				C665.89,360.49,664.12,362.26,661.94,362.26z"/>
			<path id="XMLID_85_" class="st13" d="M568.12,350.43c0-2.07-1.68-3.74-3.74-3.74c-2.07,0-3.74,1.68-3.74,3.74
				c0,2.07,1.68,3.74,3.74,3.74C566.45,354.17,568.12,352.5,568.12,350.43z"/>
		</g>
		<g>
			<rect id="XMLID_83_" x="473.08" y="219.46" class="st15" width="182.61" height="107.58"/>
			<g>
				<rect id="XMLID_82_" x="650.68" y="219.46" class="st16" width="5" height="107.58"/>
				<rect x="651.13" y="260.33" class="st13" width="4.11" height="27.97"/>
			</g>
			<rect id="XMLID_81_" x="473.08" y="219.46" class="st16" width="182.61" height="8.7"/>
			<rect x="487.08" y="221.71" class="st13" width="83.4" height="4.74"/>
		</g>
	</g>
	<path id="XMLID_80_" class="st17" d="M531.49,323v-88.6c0-0.99,0.8-1.8,1.8-1.8h65.55c0.99,0,1.8,0.8,1.8,1.8V323
		c0,0.99-0.8,1.8-1.8,1.8h-65.55C532.29,324.8,531.49,323.99,531.49,323z"/>
	<path id="XMLID_79_" class="st14" d="M528.12,323v-88.6c0-0.99,0.8-1.8,1.8-1.8h65.55c0.99,0,1.8,0.8,1.8,1.8V323
		c0,0.99-0.8,1.8-1.8,1.8h-65.55C528.93,324.8,528.12,323.99,528.12,323z"/>
	<g>
		<path id="XMLID_78_" class="st18" d="M622.65,225.61v-33.48c0-1.01,0.82-1.82,1.82-1.82h173.37c1.01,0,1.82,0.82,1.82,1.82v33.48
			c0,1.01-0.82,1.82-1.82,1.82H624.47C623.47,227.44,622.65,226.62,622.65,225.61z"/>
		<path id="XMLID_77_" class="st19" d="M613.75,225.58v-33.42c0-1.02,0.83-1.85,1.85-1.85h179.03c1.02,0,1.85,0.83,1.85,1.85v33.42
			c0,1.02-0.83,1.85-1.85,1.85H615.6C614.58,227.44,613.75,226.61,613.75,225.58z"/>
		<path id="XMLID_76_" class="st17" d="M622.55,221.36v-24.98c0-0.32,0.26-0.59,0.59-0.59h24.98c0.32,0,0.59,0.26,0.59,0.59v24.98
			c0,0.32-0.26,0.59-0.59,0.59h-24.98C622.81,221.95,622.55,221.69,622.55,221.36z"/>
		<path id="XMLID_75_" class="st14" d="M621.31,221.36v-24.98c0-0.32,0.26-0.59,0.59-0.59h24.98c0.32,0,0.59,0.26,0.59,0.59v24.98
			c0,0.32-0.26,0.59-0.59,0.59H621.9C621.57,221.95,621.31,221.69,621.31,221.36z"/>
		<path id="XMLID_74_" class="st7" d="M668.46,221.36v-24.98c0-0.32,0.26-0.59,0.59-0.59h24.98c0.32,0,0.59,0.26,0.59,0.59v24.98
			c0,0.32-0.26,0.59-0.59,0.59h-24.98C668.73,221.95,668.46,221.69,668.46,221.36z"/>
		<path id="XMLID_73_" class="st11" d="M667.22,221.36v-24.98c0-0.32,0.26-0.59,0.59-0.59h24.98c0.32,0,0.59,0.26,0.59,0.59v24.98
			c0,0.32-0.26,0.59-0.59,0.59h-24.98C667.49,221.95,667.22,221.69,667.22,221.36z"/>
		<path id="XMLID_72_" class="st18" d="M714.38,221.36v-24.98c0-0.32,0.26-0.59,0.59-0.59h24.98c0.33,0,0.59,0.26,0.59,0.59v24.98
			c0,0.32-0.26,0.59-0.59,0.59h-24.98C714.64,221.95,714.38,221.69,714.38,221.36z"/>
		<path id="XMLID_71_" class="st20" d="M713.14,221.36v-24.98c0-0.32,0.26-0.59,0.59-0.59h24.98c0.32,0,0.59,0.26,0.59,0.59v24.98
			c0,0.32-0.26,0.59-0.59,0.59h-24.98C713.4,221.95,713.14,221.69,713.14,221.36z"/>
		<path id="XMLID_70_" class="st18" d="M760.29,221.36v-24.98c0-0.32,0.26-0.59,0.59-0.59h24.98c0.32,0,0.59,0.26,0.59,0.59v24.98
			c0,0.32-0.26,0.59-0.59,0.59h-24.98C760.56,221.95,760.29,221.69,760.29,221.36z"/>
		<path id="XMLID_69_" class="st21" d="M759.05,221.36v-24.98c0-0.32,0.26-0.59,0.59-0.59h24.98c0.32,0,0.59,0.26,0.59,0.59v24.98
			c0,0.32-0.26,0.59-0.59,0.59h-24.98C759.32,221.95,759.05,221.69,759.05,221.36z"/>
	</g>
	<path id="XMLID_68_" class="st22" d="M295.21,251.41v-63.89c0-1.55,1.26-2.8,2.8-2.8H516c1.55,0,2.8,1.26,2.8,2.8v63.89
		c0,1.55-1.26,2.8-2.8,2.8H298.01C296.47,254.21,295.21,252.95,295.21,251.41z"/>
	<path id="XMLID_67_" class="st23" d="M283.97,251.36v-63.8c0-1.57,1.28-2.85,2.85-2.85h225.12c1.57,0,2.85,1.28,2.85,2.85v63.8
		c0,1.57-1.28,2.85-2.85,2.85H286.82C285.25,254.21,283.97,252.93,283.97,251.36z"/>
	<path id="XMLID_66_" class="st17" d="M292.24,245.66v-52.79c0-0.59,0.48-1.07,1.07-1.07h39.06c0.59,0,1.07,0.48,1.07,1.07v52.79
		c0,0.59-0.48,1.07-1.07,1.07h-39.06C292.71,246.73,292.24,246.25,292.24,245.66z"/>
	<path id="XMLID_65_" class="st14" d="M290.23,245.66v-52.79c0-0.59,0.48-1.07,1.07-1.07h39.06c0.59,0,1.07,0.48,1.07,1.07v52.79
		c0,0.59-0.48,1.07-1.07,1.07H291.3C290.71,246.73,290.23,246.25,290.23,245.66z"/>
	<path id="XMLID_64_" class="st17" d="M406.22,245.66v-52.79c0-0.59,0.48-1.07,1.07-1.07h39.06c0.59,0,1.07,0.48,1.07,1.07v52.79
		c0,0.59-0.48,1.07-1.07,1.07h-39.06C406.7,246.73,406.22,246.25,406.22,245.66z"/>
	<path id="XMLID_63_" class="st14" d="M404.22,245.66v-52.79c0-0.59,0.48-1.07,1.07-1.07h39.06c0.59,0,1.07,0.48,1.07,1.07v52.79
		c0,0.59-0.48,1.07-1.07,1.07h-39.06C404.7,246.73,404.22,246.25,404.22,245.66z"/>
	<path id="XMLID_62_" class="st17" d="M350.23,245.66v-52.79c0-0.59,0.48-1.07,1.07-1.07h39.06c0.59,0,1.07,0.48,1.07,1.07v52.79
		c0,0.59-0.48,1.07-1.07,1.07H351.3C350.71,246.73,350.23,246.25,350.23,245.66z"/>
	<path id="XMLID_61_" class="st14" d="M348.23,245.66v-52.79c0-0.59,0.48-1.07,1.07-1.07h39.06c0.59,0,1.07,0.48,1.07,1.07v52.79
		c0,0.59-0.48,1.07-1.07,1.07H349.3C348.71,246.73,348.23,246.25,348.23,245.66z"/>
	<path id="XMLID_60_" class="st17" d="M464.22,245.66v-52.79c0-0.59,0.48-1.07,1.07-1.07h39.06c0.59,0,1.07,0.48,1.07,1.07v52.79
		c0,0.59-0.48,1.07-1.07,1.07h-39.06C464.7,246.73,464.22,246.25,464.22,245.66z"/>
	<path id="XMLID_59_" class="st14" d="M462.22,245.66v-52.79c0-0.59,0.48-1.07,1.07-1.07h39.06c0.59,0,1.07,0.48,1.07,1.07v52.79
		c0,0.59-0.48,1.07-1.07,1.07h-39.06C462.69,246.73,462.22,246.25,462.22,245.66z"/>
	<path class="st11" d="M348.23,207.56c6.47,0,11.71,5.24,11.71,11.71s-5.24,11.71-11.71,11.71"/>
	<g>
		<g>
			<line class="st24" x1="404.22" y1="204.2" x2="404.53" y2="204.2"/>
			<line class="st25" x1="405.57" y1="204.2" x2="446.54" y2="204.2"/>
			<line class="st24" x1="447.05" y1="204.2" x2="447.37" y2="204.2"/>
		</g>
	</g>
	<path id="XMLID_58_" class="st11" d="M469.19,246.45v-54.37c0-0.15,0.13-0.28,0.28-0.28h2.27c0.15,0,0.28,0.13,0.28,0.28v54.37
		c0,0.15-0.13,0.28-0.28,0.28h-2.27C469.31,246.73,469.19,246.6,469.19,246.45z"/>
	<g id="XMLID_56_">
		<g>
			<path class="st24" d="M333.24,243.77c-0.06,0.08-0.14,0.16-0.23,0.21"/>
			<path class="st26" d="M331.99,244.14H296.9c-0.52,0-0.94-0.42-0.94-0.94v-45.11c0-0.52,0.42-0.94,0.94-0.94h35.47"/>
			<path class="st24" d="M332.88,197.23c0.1,0.04,0.18,0.1,0.26,0.18"/>
		</g>
	</g>
	<rect x="293.82" y="194.74" class="st11" width="6.3" height="6.3"/>
	<g>
		<path id="XMLID_55_" class="st27" d="M587.23,345.21V309.1c0-1.09,0.88-1.97,1.97-1.97h186.98c1.09,0,1.97,0.88,1.97,1.97v36.11
			c0,1.09-0.88,1.97-1.97,1.97H589.2C588.11,347.17,587.23,346.29,587.23,345.21z"/>
		<path id="XMLID_54_" class="st28" d="M577.63,345.18v-36.05c0-1.1,0.89-2,2-2h193.09c1.1,0,2,0.89,2,2v36.05c0,1.1-0.89,2-2,2
			H579.63C578.53,347.17,577.63,346.28,577.63,345.18z"/>
		<g>
			<path class="st29" d="M594.59,329.94v1.24h-7.19v-0.97l4.07-3.93c1.06-1.03,1.26-1.66,1.26-2.29c0-1.03-0.73-1.66-2.13-1.66
				c-1.07,0-2.31,0.13-2.92,0.88l-0.61-0.63c0.77-0.96,2.1-1.51,3.66-1.51c2.09,0,3.43,1.07,3.43,2.79c0,0.97-0.29,1.84-1.64,3.14
				l-3.06,2.94H594.59z"/>
			<path class="st29" d="M595.72,326.18c0-3.26,1.74-5.12,4.09-5.12c2.33,0,4.07,1.86,4.07,5.12s-1.74,5.12-4.07,5.12
				C597.46,331.3,595.72,329.44,595.72,326.18z M602.45,326.18c0-2.56-1.09-3.84-2.64-3.84c-1.57,0-2.66,1.29-2.66,3.84
				c0,2.56,1.09,3.84,2.66,3.84C601.36,330.03,602.45,328.74,602.45,326.18z"/>
			<path class="st29" d="M612.24,329.94v1.24h-7.19v-0.97l4.07-3.93c1.06-1.03,1.26-1.66,1.26-2.29c0-1.03-0.73-1.66-2.13-1.66
				c-1.07,0-2.25,0.08-2.86,0.82l-0.67-0.58c0.77-0.96,2.1-1.51,3.66-1.51c2.09,0,3.43,1.07,3.43,2.79c0,0.97-0.29,1.84-1.64,3.14
				l-3.06,2.94L612.24,329.94L612.24,329.94z"/>
			<path class="st29" d="M616.51,321.18v10h-1.41v-8.76h-2.26v-1.24H616.51z"/>
		</g>
		<g>
			<path class="st14" d="M594.03,329.94v1.24h-7.19v-0.97l4.07-3.93c1.06-1.03,1.26-1.66,1.26-2.29c0-1.03-0.73-1.66-2.13-1.66
				c-1.07,0-1.94,0.34-2.56,1.09l-0.97-0.84c0.77-0.96,2.1-1.51,3.66-1.51c2.09,0,3.43,1.07,3.43,2.79c0,0.97-0.29,1.84-1.64,3.14
				l-3.06,2.94H594.03z"/>
			<path class="st14" d="M595.16,326.18c0-3.26,1.74-5.12,4.09-5.12c2.33,0,4.07,1.86,4.07,5.12s-1.74,5.12-4.07,5.12
				C596.91,331.3,595.16,329.44,595.16,326.18z M601.89,326.18c0-2.56-1.09-3.84-2.64-3.84c-1.57,0-2.66,1.29-2.66,3.84
				c0,2.56,1.09,3.84,2.66,3.84C600.81,330.03,601.89,328.74,601.89,326.18z"/>
			<path class="st14" d="M611.68,329.94v1.24h-7.19v-0.97l4.07-3.93c1.06-1.03,1.26-1.66,1.26-2.29c0-1.03-0.73-1.66-2.13-1.66
				c-1.07,0-1.94,0.34-2.56,1.09l-0.97-0.84c0.77-0.96,2.1-1.51,3.66-1.51c2.09,0,3.43,1.07,3.43,2.79c0,0.97-0.29,1.84-1.64,3.14
				l-3.06,2.94H611.68z"/>
			<path class="st14" d="M615.95,321.18v10h-1.41v-8.76h-2.26v-1.24H615.95z"/>
		</g>
		<path id="XMLID_53_" class="st30" d="M703.16,327.79v13.43c0,0.32-0.26,0.57-0.57,0.57H681.8c-0.32,0-0.57-0.26-0.57-0.57v-13.43"
			/>
		<path id="XMLID_52_" class="st30" d="M681.23,325.21v-12.45c0-0.32,0.26-0.57,0.57-0.57h20.79c0.32,0,0.57,0.26,0.57,0.57v12.45"
			/>
		<path id="XMLID_32_" class="st30" d="M702.09,327.79v13.43c0,0.32-0.24,0.57-0.55,0.57h-19.77c-0.3,0-0.55-0.26-0.55-0.57v-13.43"
			/>
		<path id="XMLID_30_" class="st30" d="M681.23,325.21v-12.45c0-0.32,0.24-0.57,0.55-0.57h19.77c0.3,0,0.55,0.26,0.55,0.57v12.45"/>
		<g>
			<path class="st29" d="M691.48,322.26v1.05h-6.05v-0.82l3.43-3.31c0.89-0.87,1.06-1.39,1.06-1.92c0-0.87-0.61-1.39-1.79-1.39
				c-0.9,0-1.89,0.06-2.41,0.69l-0.56-0.49c0.65-0.81,1.77-1.27,3.08-1.27c1.76,0,2.89,0.9,2.89,2.34c0,0.82-0.24,1.55-1.38,2.65
				l-2.57,2.48L691.48,322.26L691.48,322.26z"/>
			<path class="st29" d="M692.43,319.1c0-2.74,1.47-4.3,3.44-4.3c1.96,0,3.43,1.56,3.43,4.3s-1.47,4.3-3.43,4.3
				C693.89,323.4,692.43,321.84,692.43,319.1z M698.09,319.1c0-2.15-0.91-3.23-2.22-3.23c-1.32,0-2.24,1.08-2.24,3.23
				c0,2.15,0.91,3.23,2.24,3.23C697.18,322.33,698.09,321.25,698.09,319.1z"/>
			<path class="st29" d="M693.25,336.69v1.05h-6.05v-0.82l3.43-3.31c0.89-0.87,1.06-1.39,1.06-1.92c0-0.87-0.61-1.39-1.79-1.39
				c-0.9,0-1.86,0.03-2.38,0.66l-0.59-0.46c0.65-0.81,1.77-1.27,3.08-1.27c1.76,0,2.89,0.9,2.89,2.34c0,0.82-0.24,1.55-1.38,2.65
				l-2.57,2.48L693.25,336.69L693.25,336.69z"/>
			<path class="st29" d="M696.84,329.32v8.42h-1.19v-7.37h-1.9v-1.05L696.84,329.32L696.84,329.32z"/>
		</g>
		<g>
			<path class="st14" d="M691.01,322.26v1.05h-6.05v-0.82l3.43-3.31c0.89-0.87,1.06-1.39,1.06-1.92c0-0.87-0.61-1.39-1.79-1.39
				c-0.9,0-1.64,0.29-2.15,0.91l-0.82-0.71c0.65-0.81,1.77-1.27,3.08-1.27c1.76,0,2.89,0.9,2.89,2.34c0,0.82-0.24,1.55-1.38,2.65
				l-2.57,2.48L691.01,322.26L691.01,322.26z"/>
			<path class="st14" d="M691.96,319.1c0-2.74,1.47-4.3,3.44-4.3c1.96,0,3.43,1.56,3.43,4.3s-1.47,4.3-3.43,4.3
				C693.43,323.4,691.96,321.84,691.96,319.1z M697.62,319.1c0-2.15-0.91-3.23-2.22-3.23c-1.32,0-2.24,1.08-2.24,3.23
				c0,2.15,0.91,3.23,2.24,3.23C696.71,322.33,697.62,321.25,697.62,319.1z"/>
			<path class="st14" d="M692.78,336.69v1.05h-6.05v-0.82l3.43-3.31c0.89-0.87,1.06-1.39,1.06-1.92c0-0.87-0.61-1.39-1.79-1.39
				c-0.9,0-1.64,0.29-2.15,0.91l-0.82-0.71c0.65-0.81,1.77-1.27,3.08-1.27c1.76,0,2.89,0.9,2.89,2.34c0,0.82-0.24,1.55-1.38,2.65
				l-2.57,2.48L692.78,336.69L692.78,336.69z"/>
			<path class="st14" d="M696.37,329.32v8.42h-1.19v-7.37h-1.9v-1.05L696.37,329.32L696.37,329.32z"/>
		</g>
		<g>
			<path class="st29" d="M634.76,330.06l3.34-2.26c1.43-0.97,2.32-1.73,2.32-2.74c0-1.15-0.97-1.59-2.05-1.59
				c-1.15,0-2.32-0.02-3.36,0.8v-0.97c0.66-0.52,2.05-1.15,3.4-1.15c2.07,0,3.58,1.13,3.58,2.76c0,1.49-0.95,2.44-2.17,3.2
				l-2.78,1.71h5.26v1.35h-7.53v-1.11L634.76,330.06L634.76,330.06z"/>
			<path class="st29" d="M644.33,326.84c0-2.78,2.19-4.69,4.79-4.69c2.58,0,4.77,1.91,4.77,4.69c0,2.8-2.19,4.69-4.77,4.69
				C646.52,331.53,644.33,329.63,644.33,326.84z M652.36,326.84c0-2.11-1.45-3.46-3.24-3.46c-1.83,0-3.26,1.35-3.26,3.46
				c0,2.13,1.43,3.46,3.26,3.46C650.91,330.3,652.36,328.97,652.36,326.84z"/>
			<path class="st29" d="M655.89,330.06l3.34-2.26c1.43-0.97,2.32-1.73,2.32-2.74c0-1.15-0.97-1.59-2.05-1.59
				c-1.15,0-2.32-0.02-3.36,0.8v-0.97c0.66-0.52,2.05-1.15,3.4-1.15c2.07,0,3.58,1.13,3.58,2.76c0,1.49-0.95,2.44-2.17,3.2
				l-2.78,1.71h5.26v1.35h-7.53v-1.11L655.89,330.06L655.89,330.06z"/>
			<path class="st29" d="M666.66,323.98h-1.29v-1.09l2.82-0.64v8.94h-1.53V323.98z"/>
		</g>
		<g>
			<path class="st14" d="M633.98,330.06l3.34-2.26c1.43-0.97,2.32-1.73,2.32-2.74c0-1.15-0.97-1.59-2.05-1.59
				c-1.15,0-2.32,0.52-3.36,1.35v-1.51c0.66-0.52,2.05-1.15,3.4-1.15c2.07,0,3.58,1.13,3.58,2.76c0,1.49-0.95,2.44-2.17,3.2
				l-2.78,1.71h5.26v1.35h-7.53v-1.12L633.98,330.06L633.98,330.06z"/>
			<path class="st14" d="M643.54,326.84c0-2.78,2.19-4.69,4.79-4.69c2.58,0,4.77,1.91,4.77,4.69c0,2.8-2.19,4.69-4.77,4.69
				C645.74,331.53,643.54,329.63,643.54,326.84z M651.58,326.84c0-2.11-1.45-3.46-3.24-3.46c-1.83,0-3.26,1.35-3.26,3.46
				c0,2.13,1.43,3.46,3.26,3.46C650.13,330.3,651.58,328.97,651.58,326.84z"/>
			<path class="st14" d="M655.1,330.06l3.34-2.26c1.43-0.97,2.32-1.73,2.32-2.74c0-1.15-0.97-1.59-2.05-1.59
				c-1.15,0-2.32,0.52-3.36,1.35v-1.51c0.66-0.52,2.05-1.15,3.4-1.15c2.07,0,3.58,1.13,3.58,2.76c0,1.49-0.95,2.44-2.17,3.2
				l-2.78,1.71h5.26v1.35h-7.53v-1.12L655.1,330.06L655.1,330.06z"/>
			<path class="st14" d="M665.88,323.98h-1.29v-1.09l2.82-0.64v8.94h-1.53V323.98z"/>
		</g>
		<g>
			<path class="st29" d="M744.02,322.35v1.03h-5.93v-0.8l3.36-3.24c0.87-0.85,1.04-1.37,1.04-1.89c0-0.85-0.6-1.37-1.76-1.37
				c-0.88,0-1.84,0.05-2.35,0.66l-0.57-0.46c0.64-0.79,1.73-1.25,3.02-1.25c1.72,0,2.83,0.88,2.83,2.3c0,0.8-0.24,1.52-1.36,2.6
				l-2.52,2.43h4.24V322.35z"/>
			<path class="st29" d="M744.95,319.25c0-2.69,1.44-4.22,3.37-4.22c1.92,0,3.36,1.53,3.36,4.22s-1.44,4.22-3.36,4.22
				C746.39,323.47,744.95,321.94,744.95,319.25z M750.51,319.25c0-2.11-0.9-3.17-2.18-3.17c-1.3,0-2.19,1.06-2.19,3.17
				c0,2.11,0.9,3.17,2.19,3.17C749.61,322.42,750.51,321.36,750.51,319.25z"/>
			<path class="st29" d="M745.76,336.5v1.03h-5.93v-0.8l3.36-3.24c0.87-0.85,1.04-1.37,1.04-1.89c0-0.85-0.6-1.37-1.76-1.37
				c-0.88,0-1.86,0.06-2.36,0.68l-0.55-0.48c0.64-0.79,1.73-1.25,3.02-1.25c1.72,0,2.83,0.88,2.83,2.3c0,0.8-0.24,1.52-1.36,2.6
				l-2.52,2.43L745.76,336.5L745.76,336.5z"/>
			<path class="st29" d="M749.28,329.27v8.26h-1.17v-7.23h-1.86v-1.03H749.28z"/>
		</g>
		<g>
			<path class="st14" d="M743.56,322.35v1.03h-5.93v-0.8l3.36-3.24c0.87-0.85,1.04-1.37,1.04-1.89c0-0.85-0.6-1.37-1.76-1.37
				c-0.88,0-1.6,0.28-2.11,0.9l-0.8-0.7c0.64-0.79,1.73-1.25,3.02-1.25c1.72,0,2.83,0.88,2.83,2.3c0,0.8-0.24,1.52-1.36,2.6
				l-2.52,2.43L743.56,322.35L743.56,322.35z"/>
			<path class="st14" d="M744.5,319.25c0-2.69,1.44-4.22,3.37-4.22c1.92,0,3.36,1.53,3.36,4.22s-1.44,4.22-3.36,4.22
				C745.94,323.47,744.5,321.94,744.5,319.25z M750.05,319.25c0-2.11-0.9-3.17-2.18-3.17c-1.3,0-2.19,1.06-2.19,3.17
				c0,2.11,0.9,3.17,2.19,3.17S750.05,321.36,750.05,319.25z"/>
			<path class="st14" d="M745.3,336.5v1.03h-5.93v-0.8l3.36-3.24c0.87-0.85,1.04-1.37,1.04-1.89c0-0.85-0.6-1.37-1.76-1.37
				c-0.88,0-1.6,0.28-2.11,0.9l-0.8-0.7c0.64-0.79,1.73-1.25,3.02-1.25c1.72,0,2.83,0.88,2.83,2.3c0,0.8-0.24,1.52-1.36,2.6
				l-2.52,2.43L745.3,336.5L745.3,336.5z"/>
			<path class="st14" d="M748.83,329.27v8.26h-1.17v-7.23h-1.86v-1.03H748.83z"/>
		</g>
		<circle class="st30" cx="744.73" cy="326.99" r="14.62"/>
		<path class="st30" d="M745.26,312.37c8.25,0,14.94,6.55,14.94,14.62s-6.69,14.62-14.94,14.62"/>
	</g>
	<path class="st11" d="M447.42,203.96v-11.1c0-0.59-0.5-1.07-1.12-1.07h-40.96c-0.62,0-1.12,0.48-1.12,1.07v11.1H447.42z"/>
	<path class="st31" d="M444.48,191.8c0.56,0,1.02,0.48,1.02,1.07v11.1h1.92v-11.1c0-0.59-0.48-1.07-1.08-1.07H444.48z"/>
</g>
</svg>
