<?xml version="1.0" encoding="utf-8"?>
<!-- Generator: Adobe Illustrator 19.0.0, SVG Export Plug-In . SVG Version: 6.00 Build 0)  -->
<svg version="1.1" id="Warstwa_1" xmlns="http://www.w3.org/2000/svg" xmlns:xlink="http://www.w3.org/1999/xlink" x="0px" y="0px"
	 viewBox="163 15 825 472" style="enable-background:new 163 15 825 472;" xml:space="preserve">
<style type="text/css">
	.st0{clip-path:url(#SVGID_2_);fill:url(#SVGID_3_);}
	.st1{fill:#FFFFFF;}
	.st2{fill:#32866B;}
	.st3{opacity:0.7;fill:#FFFFFF;enable-background:new    ;}
	.st4{fill:none;stroke:#404040;stroke-width:0.9146;stroke-miterlimit:10;}
	.st5{fill:none;stroke:#404040;stroke-width:0.5723;stroke-miterlimit:10;}
	.st6{fill:#43B38F;}
	.st7{fill:none;stroke:#404040;stroke-width:0.2975;stroke-miterlimit:10;}
	.st8{fill:#404040;}
	.st9{fill:#FCC812;}
	.st10{fill:#666666;}
	.st11{fill:#8C8C8C;}
	.st12{fill:#BD960C;}
	.st13{fill:#666666;stroke:#1A2E35;stroke-width:8.509662e-02;stroke-linecap:round;stroke-linejoin:round;stroke-miterlimit:10;}
	.st14{fill:#404040;stroke:#404040;stroke-width:0.1539;stroke-miterlimit:10;}
	.st15{fill:#303030;}
	.st16{fill:#FFFFFF;stroke:#1A2E35;stroke-width:0.2639;stroke-linecap:round;stroke-linejoin:round;stroke-miterlimit:10;}
	.st17{fill:#666666;stroke:#1A2E35;stroke-width:0.1076;stroke-linecap:round;stroke-linejoin:round;stroke-miterlimit:10;}
	.st18{fill:#404040;stroke:#404040;stroke-width:0.2366;stroke-miterlimit:10;}
	.st19{fill:none;stroke:#43B38F;stroke-width:0.5723;stroke-miterlimit:10;}
	.st20{fill:none;stroke:#43B38F;stroke-width:0.5723;stroke-miterlimit:10;stroke-dasharray:0.7642,1.2735;}
	.st21{fill:none;stroke:#43B38F;stroke-width:0.5723;stroke-miterlimit:10;stroke-dasharray:0.7729,1.2879;}
	.st22{fill:#666666;stroke:#1A2E35;stroke-width:9.185031e-02;stroke-linecap:round;stroke-linejoin:round;stroke-miterlimit:10;}
	.st23{fill:#404040;stroke:#404040;stroke-width:0.166;stroke-miterlimit:10;}
	.st24{fill:#8E7109;}
	.st25{fill:none;stroke:#FCC812;stroke-width:0.235;stroke-miterlimit:10;}
	.st26{opacity:0.5;fill:#32866B;enable-background:new    ;}
</style>
<g>
	<g>
		<g>
			<defs>
				<rect id="SVGID_1_" x="163" y="15" width="825" height="472"/>
			</defs>
			<clipPath id="SVGID_2_">
				<use xlink:href="#SVGID_1_"  style="overflow:visible;"/>
			</clipPath>
			
				<linearGradient id="SVGID_3_" gradientUnits="userSpaceOnUse" x1="-879.9618" y1="1247.1718" x2="-878.373" y2="1247.1718" gradientTransform="matrix(526.5874 0 0 -526.5874 463517 657038.5)">
				<stop  offset="0" style="stop-color:#379E6E"/>
				<stop  offset="1" style="stop-color:#72C6D4"/>
			</linearGradient>
			<rect x="140.2" y="-141.8" class="st0" width="870.6" height="870.6"/>
		</g>
	</g>
</g>
<g>
	<path class="st1" d="M224.9,122.5c7.2-0.1,14.1-2.9,19.3-8c5.2-5.1,8.2-11.9,8.4-19.1c0.1-5.5-1.3-10.8-4.2-15.4
		c-0.4-0.6-1.1-1-1.8-1c-0.8,0-1.4,0.4-1.8,1.1c-0.4,0.7-0.4,1.5,0.1,2.1c2.5,4,3.7,8.7,3.5,13.5c-0.5,11.7-10.8,22.1-22.6,22.6
		c-6.7,0.3-13.2-2.2-17.9-6.9c-4.7-4.7-7.2-11.2-6.9-17.9c0.6-11.7,10.9-22,22.7-22.6c4.8-0.2,9.5,1,13.5,3.5c0.7,0.4,1.4,0.4,2.1,0
		c0.7-0.4,1.1-1,1.1-1.8c0-0.7-0.4-1.4-1-1.8c-4.6-2.9-10-4.3-15.4-4.2c-7.2,0.2-14,3.2-19.1,8.4c-5.1,5.2-8,12-8,19.3
		c-0.1,7.5,2.8,14.6,8.2,20c5.3,5.3,12.3,8.2,19.7,8.2C224.7,122.5,224.8,122.5,224.9,122.5"/>
	<path class="st1" d="M224.6,77.8c-1,0-1.7,0.5-2.1,1.5L212,104.4c-0.3,0.8-0.3,1.5,0.1,2.1c0.4,0.7,1,1,1.8,1
		c0.4,0,0.8-0.1,1.2-0.3c0.4-0.2,0.7-0.6,0.9-1l3.2-7.7h11l3.1,7.7c0.2,0.4,0.4,0.8,0.8,1c0.4,0.2,0.8,0.4,1.2,0.4
		c0.8,0,1.4-0.3,1.8-1c0.4-0.6,0.5-1.4,0.2-2.1l-10.6-25.2C226.3,78.3,225.6,77.8,224.6,77.8 M220.6,95l4.1-10l4,10H220.6z"/>
	<path class="st1" d="M278.6,96.5c0.3-0.5,0.4-1,0.1-1.6l-7.4-17.6c-0.3-0.7-0.8-1.1-1.6-1.1c-0.7,0-1.2,0.4-1.6,1.1l-7.3,17.5
		c-0.2,0.6-0.2,1.1,0.1,1.6c0.3,0.5,0.8,0.8,1.4,0.8c0.3,0,0.6-0.1,0.9-0.2c0.3-0.2,0.5-0.4,0.7-0.8l2.2-5.3h7.5l2.1,5.3
		c0.1,0.3,0.3,0.6,0.6,0.8c0.3,0.2,0.6,0.3,0.9,0.3C277.9,97.2,278.3,97,278.6,96.5 M267.2,88.2l2.7-6.5l2.6,6.5H267.2z"/>
	<path class="st1" d="M284.8,85.6c0.7-0.3,1.5-0.5,2.5-0.4c0.2,0,0.5,0,0.7-0.1c0.2-0.1,0.4-0.2,0.5-0.4c0.1-0.2,0.2-0.5,0.2-0.8
		c0-0.4-0.1-1-0.9-1.4c-0.6-0.3-1.3-0.3-2.3-0.1c-0.8,0.2-1.5,0.5-2.1,1c-0.1-0.3-0.2-0.6-0.4-0.8c-0.3-0.3-0.7-0.4-1.2-0.4
		c-0.5,0-0.9,0.1-1.2,0.4c-0.3,0.3-0.4,0.7-0.4,1.2v11.9c0,0.5,0.1,0.9,0.4,1.2c0.3,0.3,0.7,0.4,1.2,0.4c0.5,0,0.9-0.1,1.2-0.4
		c0.3-0.3,0.4-0.7,0.4-1.2v-8.8C283.6,86.3,284.1,85.9,284.8,85.6"/>
	<path class="st1" d="M298,94h-0.9c-0.5,0-0.9-0.2-1.2-0.6c-0.3-0.4-0.5-0.9-0.5-1.6v-6.5h2c0.4,0,0.8-0.1,1.1-0.4
		c0.3-0.3,0.4-0.6,0.4-1c0-0.4-0.1-0.8-0.4-1.1c-0.3-0.3-0.6-0.4-1.1-0.4h-2v-3.1c0-0.5-0.1-0.9-0.4-1.1c-0.3-0.3-0.7-0.5-1.1-0.5
		c-0.5,0-0.9,0.1-1.2,0.5c-0.3,0.3-0.5,0.7-0.5,1.1v3.1h-0.8c-0.4,0-0.8,0.1-1.1,0.4c-0.3,0.3-0.4,0.6-0.4,1.1c0,0.4,0.1,0.7,0.4,1
		c0.3,0.3,0.6,0.4,1.1,0.4h0.8v6.5c0,1,0.2,1.9,0.6,2.7c0.4,0.8,1,1.5,1.8,1.9c0.7,0.5,1.6,0.7,2.5,0.7h0.5c0.5,0,1-0.1,1.3-0.4
		c0.4-0.3,0.5-0.7,0.5-1.2c0-0.5-0.1-0.8-0.4-1.1C298.7,94.2,298.4,94,298,94"/>
	<path class="st1" d="M342.3,93.5c0.6-1.1,0.9-2.4,0.9-3.8c0-1.4-0.3-2.7-1-3.9c-0.7-1.1-1.6-2-2.7-2.7s-2.4-1-3.8-1
		c-1.4,0-2.7,0.3-3.8,1s-2,1.6-2.7,2.7c-0.6,1.1-1,2.4-1,3.9v11.9c0,0.5,0.2,0.9,0.5,1.2c0.3,0.3,0.7,0.5,1.2,0.5
		c0.5,0,0.9-0.2,1.2-0.5s0.4-0.7,0.4-1.2v-6.3c0.5,0.5,1.1,0.9,1.8,1.2c0.9,0.5,1.9,0.7,3,0.7c1.3,0,2.5-0.3,3.6-1
		C340.9,95.6,341.7,94.7,342.3,93.5 M339.5,92c-0.4,0.7-0.9,1.2-1.5,1.6c-0.6,0.4-1.4,0.6-2.2,0.6c-0.8,0-1.6-0.2-2.2-0.6
		s-1.2-1-1.5-1.6s-0.6-1.5-0.6-2.4c0-0.9,0.2-1.7,0.6-2.4s0.9-1.2,1.5-1.6c0.6-0.4,1.4-0.6,2.2-0.6c0.8,0,1.6,0.2,2.2,0.6
		s1.2,1,1.5,1.6s0.6,1.5,0.6,2.4C340.1,90.6,339.9,91.3,339.5,92"/>
	<path class="st1" d="M357.4,94.5c0-0.4-0.2-0.8-0.6-1.1c-0.3-0.2-0.6-0.4-1-0.4c-0.4,0-0.7,0.1-1,0.4c-0.3,0.2-0.8,0.5-1.3,0.6
		s-1.1,0.3-1.6,0.3c-0.9,0-1.8-0.2-2.5-0.6c-0.7-0.4-1.3-1-1.7-1.7c-0.2-0.4-0.4-0.8-0.5-1.2h9.6c0.4,0,0.8-0.1,1.1-0.4
		c0.3-0.3,0.4-0.6,0.4-1c0-1.4-0.3-2.7-0.8-3.8c-0.5-1.1-1.3-2-2.4-2.6c-1-0.6-2.2-1-3.7-1c-1.4,0-2.7,0.3-3.8,1
		c-1.1,0.6-2,1.5-2.6,2.7c-0.6,1.1-0.9,2.5-0.9,3.9c0,1.5,0.3,2.8,1,3.9s1.6,2,2.8,2.7c1.2,0.6,2.5,1,4,1c0.8,0,1.7-0.2,2.6-0.5
		c0.9-0.3,1.7-0.7,2.3-1.2C357.3,95.2,357.4,94.8,357.4,94.5 M347.6,87.2c0.3-0.7,0.8-1.3,1.5-1.7c0.6-0.4,1.5-0.6,2.4-0.6
		c0.8,0,1.5,0.2,2.1,0.5c0.6,0.4,1,0.9,1.3,1.5c0.2,0.4,0.3,0.8,0.4,1.2h-8C347.4,87.9,347.5,87.5,347.6,87.2"/>
	<path class="st1" d="M368.7,86.8c0.3,0.6,0.5,1.4,0.5,2.3v6.5c0,0.5,0.2,0.9,0.5,1.2c0.3,0.3,0.7,0.5,1.2,0.5
		c0.5,0,0.9-0.2,1.2-0.5s0.5-0.7,0.5-1.2v-6.5c0-1.5-0.3-2.8-0.9-3.8s-1.4-1.9-2.4-2.4c-1-0.5-2.1-0.8-3.4-0.8
		c-1.2,0-2.3,0.3-3.3,0.8c-0.1,0.1-0.2,0.1-0.3,0.2c-0.1-0.1-0.2-0.3-0.3-0.4c-0.3-0.3-0.7-0.5-1.2-0.5c-0.5,0-0.9,0.1-1.2,0.5
		c-0.3,0.3-0.5,0.7-0.5,1.2v11.7c0,0.5,0.2,0.9,0.5,1.2c0.3,0.3,0.7,0.5,1.2,0.5c0.5,0,0.9-0.2,1.2-0.5s0.4-0.7,0.4-1.2v-9.3
		c0.3-0.3,0.6-0.6,1-0.8c0.5-0.3,1.2-0.4,1.9-0.4c0.8,0,1.4,0.1,2,0.4C368,85.8,368.4,86.3,368.7,86.8"/>
	<path class="st1" d="M324.4,78.9L324.4,78.9c-1-1-2.1-1.7-3.4-2.3s-2.8-0.8-4.4-0.8c-1.6,0-3.1,0.3-4.4,0.8
		c-1.3,0.5-2.5,1.3-3.4,2.3c-1,1-1.7,2.1-2.2,3.5c-0.5,1.3-0.8,2.8-0.8,4.4c0,1.6,0.3,3.1,0.8,4.4c0.5,1.3,1.3,2.5,2.2,3.5
		c0.9,1,2.1,1.7,3.4,2.3s2.8,0.8,4.4,0.8c1.6,0,3-0.3,4.4-0.8c1.3-0.5,2.5-1.3,3.4-2.3s1.7-2.1,2.2-3.5c0.5-1.3,0.8-2.8,0.8-4.4
		c0-1.6-0.3-3.1-0.8-4.4C326.2,81,325.4,79.8,324.4,78.9 M323.4,89.7c-0.4,0.9-0.9,1.7-1.5,2.4s-1.4,1.2-2.3,1.6
		c-0.9,0.4-1.9,0.6-2.9,0.6c-1.1,0-2.1-0.2-2.9-0.6c-0.9-0.4-1.7-0.9-2.3-1.6c-0.6-0.7-1.1-1.5-1.5-2.4c-0.4-0.9-0.5-1.9-0.5-3
		s0.2-2.1,0.5-3c0.4-0.9,0.9-1.7,1.5-2.4c0.6-0.7,1.4-1.2,2.3-1.6c0.9-0.4,1.9-0.6,3-0.6s2.1,0.2,2.9,0.6c0.9,0.4,1.7,0.9,2.3,1.6
		c0.6,0.7,1.2,1.5,1.5,2.4c0.4,0.9,0.5,1.9,0.5,3C324,87.8,323.8,88.8,323.4,89.7"/>
	<path class="st1" d="M275.4,110.5c-0.3-0.3-0.8-0.5-1.5-0.6c-0.4,0-0.7-0.1-0.9-0.2s-0.4-0.2-0.5-0.4c-0.1-0.1-0.1-0.3-0.1-0.5
		c0-0.3,0.1-0.5,0.4-0.7s0.6-0.2,1-0.2c0.2,0,0.4,0,0.6,0.1c0.2,0.1,0.3,0.1,0.4,0.2c0.1,0.1,0.2,0.2,0.3,0.3c0,0.1,0.1,0.1,0.2,0.1
		c0.1,0,0.2,0,0.2,0c0.1,0,0.1-0.1,0.1-0.2c0-0.1,0-0.1,0-0.2c-0.1-0.2-0.3-0.3-0.4-0.5c-0.2-0.1-0.4-0.2-0.6-0.3
		c-0.2-0.1-0.5-0.1-0.8-0.1c-0.4,0-0.7,0.1-1,0.2c-0.3,0.1-0.5,0.3-0.7,0.5c-0.2,0.2-0.3,0.5-0.3,0.8c0,0.4,0.2,0.8,0.5,1
		c0.4,0.3,0.8,0.5,1.5,0.5c0.5,0.1,0.9,0.2,1.1,0.4c0.2,0.2,0.4,0.5,0.4,0.8c0,0.2-0.1,0.4-0.2,0.6c-0.1,0.2-0.3,0.3-0.5,0.4
		c-0.2,0.1-0.5,0.1-0.8,0.1c-0.2,0-0.5,0-0.7-0.1c-0.2-0.1-0.4-0.1-0.6-0.3c-0.1-0.1-0.3-0.2-0.4-0.4c0-0.1-0.1-0.1-0.2-0.1
		s-0.1,0-0.2,0c-0.1,0-0.2,0.1-0.2,0.1c0,0.1,0,0.1,0,0.2c0.1,0.2,0.3,0.4,0.5,0.6c0.2,0.2,0.5,0.3,0.8,0.4c0.3,0.1,0.6,0.1,0.9,0.1
		c0.3,0,0.6,0,0.8-0.1c0.2-0.1,0.5-0.2,0.7-0.3s0.3-0.3,0.4-0.5s0.2-0.4,0.2-0.7C275.9,111.2,275.8,110.8,275.4,110.5"/>
	<path class="st1" d="M282.2,107.5h-1.9h-0.6h-1.9c-0.1,0-0.1,0-0.2,0.1c-0.1,0-0.1,0.1-0.1,0.2c0,0.1,0,0.1,0.1,0.2
		c0,0,0.1,0.1,0.2,0.1h1.9v4.9c0,0.1,0,0.1,0.1,0.2s0.1,0.1,0.2,0.1s0.2,0,0.2-0.1c0.1-0.1,0.1-0.1,0.1-0.2V108h1.9
		c0.1,0,0.1,0,0.2-0.1c0.1,0,0.1-0.1,0.1-0.2c0-0.1,0-0.1-0.1-0.2C282.3,107.6,282.3,107.5,282.2,107.5"/>
	<path class="st1" d="M289.3,107.5c-0.1,0-0.2,0-0.2,0.1s-0.1,0.1-0.1,0.2v3.5c0,0.3-0.1,0.5-0.2,0.8s-0.4,0.4-0.6,0.5
		c-0.3,0.1-0.6,0.2-1,0.2c-0.4,0-0.7-0.1-1-0.2s-0.5-0.3-0.7-0.5s-0.2-0.5-0.2-0.8v-3.5c0-0.1,0-0.1-0.1-0.2c-0.1,0-0.1-0.1-0.2-0.1
		s-0.2,0-0.2,0.1s-0.1,0.1-0.1,0.2v3.5c0,0.4,0.1,0.7,0.3,1c0.2,0.3,0.5,0.5,0.9,0.7c0.4,0.2,0.8,0.3,1.3,0.3c0.5,0,0.9-0.1,1.3-0.3
		c0.4-0.2,0.7-0.4,0.9-0.7c0.2-0.3,0.3-0.6,0.3-1v-3.5c0-0.1,0-0.1-0.1-0.2C289.4,107.6,289.4,107.5,289.3,107.5"/>
	<path class="st1" d="M296.4,108.3c-0.3-0.3-0.6-0.5-1-0.6c-0.4-0.1-0.8-0.2-1.2-0.2h-1.4c-0.1,0-0.2,0-0.2,0.1s-0.1,0.1-0.1,0.2
		v5.1c0,0.1,0,0.1,0.1,0.2c0.1,0,0.1,0.1,0.2,0.1h1.4c0.5,0,0.9-0.1,1.2-0.2c0.4-0.1,0.7-0.3,1-0.6c0.3-0.3,0.5-0.6,0.6-0.9
		s0.2-0.7,0.2-1.1c0-0.4-0.1-0.8-0.2-1.1C296.9,108.9,296.7,108.6,296.4,108.3 M296.4,111.6c-0.2,0.4-0.5,0.6-0.9,0.8
		c-0.4,0.2-0.8,0.3-1.3,0.3h-1.1V108h1.1c0.5,0,0.9,0.1,1.3,0.3c0.4,0.2,0.7,0.5,0.9,0.8c0.2,0.4,0.3,0.8,0.3,1.2
		C296.7,110.8,296.6,111.2,296.4,111.6"/>
	<path class="st1" d="M300.2,107.5c-0.1,0-0.2,0-0.2,0.1s-0.1,0.1-0.1,0.2v5.1c0,0.1,0,0.1,0.1,0.2c0.1,0,0.1,0.1,0.2,0.1
		s0.2,0,0.2-0.1s0.1-0.1,0.1-0.2v-5.1c0-0.1,0-0.1-0.1-0.2C300.3,107.6,300.3,107.5,300.2,107.5"/>
	<path class="st1" d="M308.5,108.3c-0.3-0.3-0.6-0.5-1-0.6c-0.4-0.1-0.8-0.2-1.3-0.2c-0.5,0-0.9,0.1-1.3,0.2c-0.4,0.1-0.7,0.4-1,0.6
		c-0.3,0.3-0.5,0.6-0.7,0.9c-0.2,0.4-0.2,0.7-0.2,1.2s0.1,0.8,0.2,1.2c0.2,0.4,0.4,0.7,0.7,0.9c0.3,0.3,0.6,0.5,1,0.6
		c0.4,0.1,0.8,0.2,1.3,0.2c0.5,0,0.9-0.1,1.3-0.2c0.4-0.1,0.7-0.4,1-0.6c0.3-0.3,0.5-0.6,0.7-0.9s0.2-0.8,0.2-1.2s-0.1-0.8-0.2-1.2
		C309,108.9,308.8,108.5,308.5,108.3 M308.6,111.3c-0.1,0.3-0.3,0.5-0.5,0.8c-0.2,0.2-0.5,0.4-0.8,0.5c-0.3,0.1-0.6,0.2-1,0.2
		s-0.7-0.1-1-0.2c-0.3-0.1-0.6-0.3-0.8-0.5c-0.2-0.2-0.4-0.5-0.5-0.8s-0.2-0.6-0.2-1c0-0.3,0.1-0.6,0.2-0.9s0.3-0.5,0.5-0.8
		c0.2-0.2,0.5-0.4,0.8-0.5c0.3-0.1,0.7-0.2,1-0.2s0.7,0.1,1,0.2s0.6,0.3,0.8,0.5c0.2,0.2,0.4,0.5,0.5,0.8s0.2,0.6,0.2,0.9
		S308.7,111,308.6,111.3"/>
	<path class="st1" d="M318.2,110.9c0.1,0,0.2-0.1,0.3-0.1c0.3-0.1,0.5-0.4,0.7-0.6c0.2-0.3,0.3-0.5,0.3-0.9c0-0.4-0.1-0.6-0.3-0.9
		c-0.2-0.3-0.4-0.5-0.7-0.6c-0.3-0.1-0.6-0.2-1-0.2h-1.5c-0.1,0-0.2,0-0.2,0.1c-0.1,0-0.1,0.1-0.1,0.2v5.1c0,0.1,0,0.1,0.1,0.2
		c0.1,0,0.1,0.1,0.2,0.1s0.2,0,0.2-0.1s0.1-0.1,0.1-0.2v-2h1.2c0,0,0.1,0,0.1,0l1.4,2.1c0,0,0.1,0.1,0.1,0.1c0,0,0.1,0,0.2,0
		c0.1,0,0.2,0,0.3-0.1c0.1-0.1,0-0.2,0-0.3L318.2,110.9z M317.4,110.4h-1.2v-2.4h1.2c0.3,0,0.5,0,0.7,0.1c0.2,0.1,0.4,0.2,0.5,0.4
		c0.1,0.2,0.2,0.4,0.2,0.6c0,0.2-0.1,0.4-0.2,0.6s-0.3,0.3-0.5,0.4C317.9,110.4,317.6,110.4,317.4,110.4"/>
	<path class="st1" d="M325.8,108.1c0.1,0,0.2,0,0.2-0.1s0.1-0.1,0.1-0.2c0-0.1,0-0.1-0.1-0.2c-0.1,0-0.1-0.1-0.2-0.1h-3.7
		c-0.1,0-0.2,0-0.2,0.1s-0.1,0.1-0.1,0.2v5.1c0,0.1,0,0.1,0.1,0.2c0.1,0,0.1,0.1,0.2,0.1h3.7c0.1,0,0.2,0,0.2-0.1s0.1-0.1,0.1-0.2
		c0-0.1,0-0.1-0.1-0.2s-0.1-0.1-0.2-0.1h-3.4v-2h2.5c0.1,0,0.2,0,0.2-0.1s0.1-0.1,0.1-0.2c0-0.1,0-0.1-0.1-0.2
		c-0.1,0-0.1-0.1-0.2-0.1h-2.5v-2L325.8,108.1L325.8,108.1z"/>
	<path class="st1" d="M332.6,107.8c0-0.1,0-0.1-0.1-0.2c0,0-0.1-0.1-0.2-0.1c0,0-0.1,0-0.1,0c0,0-0.1,0-0.1,0.1l-2.9,2.7v-2.5
		c0-0.1,0-0.1-0.1-0.2c-0.1-0.1-0.1-0.1-0.2-0.1c-0.1,0-0.2,0-0.2,0.1c-0.1,0.1-0.1,0.1-0.1,0.2v5.1c0,0.1,0,0.1,0.1,0.2
		c0.1,0.1,0.1,0.1,0.2,0.1c0.1,0,0.2,0,0.2-0.1c0.1-0.1,0.1-0.1,0.1-0.2v-1.9l0.7-0.7l2.2,2.7c0.1,0.1,0.1,0.1,0.3,0.1
		c0.1,0,0.1,0,0.2-0.1c0,0,0.1-0.1,0.1-0.2c0-0.1,0-0.1-0.1-0.2l-2.2-2.8l2.2-2C332.6,107.9,332.6,107.9,332.6,107.8"/>
	<path class="st1" d="M338.8,112.7h-3.1v-4.9c0-0.1,0-0.1-0.1-0.2c-0.1-0.1-0.1-0.1-0.2-0.1c-0.1,0-0.2,0-0.2,0.1
		c-0.1,0.1-0.1,0.1-0.1,0.2v5.1c0,0.1,0,0.1,0.1,0.2c0.1,0,0.1,0.1,0.2,0.1h3.4c0.1,0,0.2,0,0.2-0.1c0.1,0,0.1-0.1,0.1-0.2
		c0-0.1,0-0.1-0.1-0.2C338.9,112.7,338.9,112.7,338.8,112.7"/>
	<path class="st1" d="M343.7,107.7c-0.1-0.1-0.2-0.2-0.3-0.2c-0.1,0-0.2,0.1-0.3,0.2l-2.3,5.1c0,0.1,0,0.2,0,0.3
		c0,0.1,0.1,0.1,0.3,0.1c0.1,0,0.1,0,0.2,0c0,0,0.1-0.1,0.1-0.1l0.5-1.2h3.1l0.5,1.2c0,0.1,0.1,0.1,0.1,0.1s0.1,0,0.2,0
		c0.1,0,0.2,0,0.3-0.1s0.1-0.2,0-0.3L343.7,107.7z M342.1,111.4l1.3-2.9l1.3,2.9H342.1z"/>
	<path class="st1" d="M354.2,107.5c-0.1,0-0.2,0-0.3,0.1l-2.5,4.6l-2.5-4.6c-0.1-0.1-0.1-0.1-0.3-0.1c-0.1,0-0.2,0-0.2,0.1
		s-0.1,0.1-0.1,0.2v5.1c0,0.1,0,0.1,0.1,0.2s0.1,0.1,0.2,0.1c0.1,0,0.2,0,0.2-0.1c0.1-0.1,0.1-0.1,0.1-0.2v-4.1l2.2,4
		c0.1,0.1,0.1,0.2,0.3,0.2c0.1,0,0.2,0,0.3-0.1l2.2-4.1v4.1c0,0.1,0,0.1,0.1,0.2s0.1,0.1,0.2,0.1c0.1,0,0.2,0,0.2-0.1
		c0.1-0.1,0.1-0.1,0.1-0.2v-5.1c0-0.1,0-0.1-0.1-0.2C354.3,107.6,354.2,107.5,354.2,107.5"/>
	<path class="st1" d="M361.4,107.5c-0.1,0-0.1,0-0.2,0c0,0-0.1,0.1-0.1,0.1l-2,2.9l-2-2.9c0,0-0.1-0.1-0.1-0.1c0,0-0.1,0-0.2,0
		c-0.1,0-0.1,0-0.2,0.1c0,0-0.1,0.1-0.1,0.2c0,0.1,0,0.1,0.1,0.2l2.2,3.1v1.8c0,0.1,0,0.1,0.1,0.2s0.1,0.1,0.2,0.1
		c0.1,0,0.2,0,0.2-0.1c0.1-0.1,0.1-0.1,0.1-0.2v-1.8l2.2-3.1c0.1-0.1,0.1-0.1,0.1-0.2c0-0.1,0-0.1-0.1-0.2
		C361.5,107.5,361.5,107.5,361.4,107.5"/>
	<path class="st1" d="M372.4,110.2h-6.3c-0.1,0-0.2,0.1-0.2,0.2s0.1,0.2,0.2,0.2h6.3c0.1,0,0.2-0.1,0.2-0.2S372.4,110.2,372.4,110.2
		"/>
	<path class="st1" d="M267.2,110.2h-6.3c-0.1,0-0.2,0.1-0.2,0.2s0.1,0.2,0.2,0.2h6.3c0.1,0,0.2-0.1,0.2-0.2S267.3,110.2,267.2,110.2
		"/>
</g>
<g>
	<ellipse class="st2" cx="625.3" cy="412.9" rx="190" ry="4"/>
	<g>
		<g>
			<path class="st1" d="M808.1,297.2c0,0-8-85.3-72.7-118.5s-98.5-22.9-139.7-4s-56.7,53-92.2,69.3c-35.5,16.3-87,27.5-89.3,66.4
				c-2.3,38.9,11.4,65.3,30.9,75.6s38.3,10.3,38.3,10.3h298.8C782.4,396.2,819.6,377.3,808.1,297.2z"/>
			<path class="st3" d="M808.1,297.2c0,0-8-85.3-72.7-118.5s-98.5-22.9-139.7-4s-56.7,53-92.2,69.3c-35.5,16.3-87,27.5-89.3,66.4
				c-2.3,38.9,11.4,65.3,30.9,75.6s38.3,10.3,38.3,10.3h298.8C782.4,396.2,819.6,377.3,808.1,297.2z"/>
		</g>
	</g>
	<path class="st4" d="M355.3,238.7c0,0,43.7,31.4,111.4,46.9c74.9,17.2,196.8,155.2,301.8,121.6c67.2-21.4,60-115-13.8-121.3
		c-100.9-8.6,32.9-82.9,32.9-82.9"/>
	<g>
		<line class="st5" x1="530.7" y1="389.1" x2="582.2" y2="389.1"/>
		<line class="st5" x1="275.4" y1="389.1" x2="524.4" y2="389.1"/>
		<line class="st5" x1="197" y1="389.1" x2="270.3" y2="389.1"/>
	</g>
	<g>
		<g>
			<g>
				<g>
					<path class="st6" d="M431.2,347.7c0,0,7.8,6.2,11.6,12.7c3.7,6.5,3.6,10.9,3.6,10.9s-11.1-7.9-13.6-13.3
						C430.3,352.7,431.2,347.7,431.2,347.7z"/>
					<path class="st6" d="M464.3,339c0,0,1.7,11.2-2.4,18.1s-15.4,14-15.4,14s-1.6-5,4.3-12.7C456.7,350.8,464.3,339,464.3,339z"/>
					<path class="st6" d="M445.9,358.7c0,0,0.1-8.6,5.5-17.5c5.3-8.9,11.7-17.9,13.2-21.7c1.5-3.8,2.4-8.1,2.4-8.1s2.2,7.4-1.9,17.2
						C460.9,338.5,445.9,358.7,445.9,358.7z"/>
					<path class="st6" d="M446.3,355.2c0,0-6.3-8-10.7-17.2s-3.7-18.7-3.7-18.7s8.2,10.6,10.8,18.9
						C445.4,346.5,446.3,355.2,446.3,355.2z"/>
					<path class="st6" d="M447.6,337.1c0,0,1.5-13.2,5-20.5c3.5-7.3,10.8-18.6,10.8-18.6s0.9,12.6-4.8,22.7
						C452.9,330.8,447.6,337.1,447.6,337.1z"/>
					<path class="st6" d="M447.9,329.5c0,0-7.4-11-9.4-18.9s-3.8-21.2-3.8-21.2s8.9,9.1,11,20.5
						C447.9,321.3,447.9,329.5,447.9,329.5z"/>
					<path class="st6" d="M444.2,282c0,0,6.9,5.1,5.8,15.9c-1.1,10.7-2.1,14.4-2.1,14.4C449,304.9,444.2,282,444.2,282z"/>
				</g>
			</g>
		</g>
		<g>
			<path class="st7" d="M446.6,374.7c0,0-0.6-1.7-0.6-14.7c0-13,1.7-18.1,1.7-30.8c0-12.7,0.8-24.6,0.8-24.6"/>
			<path class="st7" d="M447.6,335.8c0,0,4.6-9.9,6.6-13.7c1.8-3.5,3.9-9.1,3.9-9.1"/>
			<path class="st7" d="M456.4,339.9c-2.8,5.3-9.3,17.2-10.5,18.8"/>
			<path class="st7" d="M457.7,337.4c0,0-0.3,0.6-0.8,1.5"/>
			<line class="st7" x1="439.2" y1="337.3" x2="437.6" y2="333.7"/>
			<line class="st7" x1="446" y1="353.6" x2="439.9" y2="338.9"/>
			<path class="st7" d="M441.2,364.7c-1.3-1.6-2.7-3.5-3.9-5.2"/>
			<path class="st7" d="M453.6,361.8c-3.1,3.7-7.6,8.5-7.6,8.5s-1.6-1.7-3.6-4.1"/>
			<path class="st7" d="M455.9,358.7c-0.3,0.5-0.7,1-1.1,1.6"/>
			<line class="st7" x1="443.5" y1="313.7" x2="442.5" y2="310.2"/>
			<line class="st7" x1="447.6" y1="327.6" x2="444" y2="315.6"/>
		</g>
		<polygon class="st8" points="437.5,368.5 456,368.5 456,375.1 454.3,375.1 452,389.7 441.5,389.7 439.2,375.1 437.5,375.1 		"/>
	</g>
	<g>
		<g id="XMLID_84_">
			<path class="st9" d="M606.4,372.8c0,0,6.2,26.6,3.5,31c-3.5,5.7-41,9.2-41,9.2h82.6c0,0,10.4-2.9,7.2-11.2
				c-2.4-6.4-14-28.9-14-28.9L606.4,372.8L606.4,372.8z"/>
			<path class="st9" d="M604.6,372.8c0,0,6.6,26.8,3.5,31c-3.1,4.2-39.2,7.3-39.2,7.3h83c0,0,7-2.8,5-9.4c-1.9-6.6-14-28.9-14-28.9
				L604.6,372.8L604.6,372.8z"/>
			<path class="st8" d="M643,372.8h-38.4c0,0,3.9,15.9,4.3,25.1h46.6C651.7,389.1,643,372.8,643,372.8z"/>
			<rect x="568.9" y="411.2" class="st9" width="82.6" height="1.7"/>
			<path id="XMLID_88_" class="st9" d="M746.4,375.4H506.8c-2.7,0-4.9-2.2-4.9-4.9V193.3c0-2.7,2.2-4.9,4.9-4.9h239.6
				c2.7,0,4.9,2.2,4.9,4.9v177.3C751.2,373.2,749.1,375.4,746.4,375.4z"/>
			<path id="XMLID_87_" class="st8" d="M740.5,375.4H500.9c-2.7,0-4.9-2.2-4.9-4.9V193.3c0-2.7,2.2-4.9,4.9-4.9h239.6
				c2.7,0,4.9,2.2,4.9,4.9v177.3C745.4,373.2,743.2,375.4,740.5,375.4z"/>
			<path id="XMLID_86_" class="st9" d="M740.5,375.4H500.9c-2.7,0-4.9-2.2-4.9-4.9v-24.2h249.3v24.2
				C745.4,373.2,743.2,375.4,740.5,375.4z"/>
			<path id="XMLID_85_" class="st8" d="M625.3,360.9c0-2.5-2.1-4.6-4.6-4.6c-2.5,0-4.6,2.1-4.6,4.6c0,2.5,2.1,4.6,4.6,4.6
				C623.3,365.5,625.3,363.4,625.3,360.9z"/>
		</g>
		<g>
			<rect id="XMLID_83_" x="508.6" y="200.1" class="st10" width="224.2" height="132.1"/>
			<g>
				<rect id="XMLID_82_" x="726.7" y="200.1" class="st11" width="6.1" height="132.1"/>
				<rect x="727.2" y="250.3" class="st8" width="5" height="34.3"/>
			</g>
			<rect id="XMLID_81_" x="508.6" y="200.1" class="st11" width="224.2" height="10.7"/>
			<rect x="525.8" y="202.8" class="st8" width="102.4" height="5.8"/>
		</g>
	</g>
	<path id="XMLID_80_" class="st12" d="M580.3,327.2V218.4c0-1.2,1-2.2,2.2-2.2H663c1.2,0,2.2,1,2.2,2.2v108.8c0,1.2-1,2.2-2.2,2.2
		h-80.5C581.3,329.4,580.3,328.4,580.3,327.2z"/>
	<path id="XMLID_79_" class="st9" d="M576.2,327.2V218.4c0-1.2,1-2.2,2.2-2.2h80.5c1.2,0,2.2,1,2.2,2.2v108.8c0,1.2-1,2.2-2.2,2.2
		h-80.5C577.2,329.4,576.2,328.4,576.2,327.2z"/>
	<g>
		<path id="XMLID_78_" class="st13" d="M692.3,207.6v-41.1c0-1.2,1-2.2,2.2-2.2h212.9c1.2,0,2.2,1,2.2,2.2v41.1c0,1.2-1,2.2-2.2,2.2
			H694.5C693.3,209.9,692.3,208.9,692.3,207.6z"/>
		<path id="XMLID_77_" class="st14" d="M681.3,207.6v-41c0-1.3,1-2.3,2.3-2.3h219.8c1.3,0,2.3,1,2.3,2.3v41c0,1.3-1,2.3-2.3,2.3
			H683.6C682.4,209.9,681.3,208.8,681.3,207.6z"/>
		<path id="XMLID_76_" class="st12" d="M692.1,202.4v-30.7c0-0.4,0.3-0.7,0.7-0.7h30.7c0.4,0,0.7,0.3,0.7,0.7v30.7
			c0,0.4-0.3,0.7-0.7,0.7h-30.7C692.5,203.1,692.1,202.8,692.1,202.4z"/>
		<path id="XMLID_75_" class="st9" d="M690.6,202.4v-30.7c0-0.4,0.3-0.7,0.7-0.7H722c0.4,0,0.7,0.3,0.7,0.7v30.7
			c0,0.4-0.3,0.7-0.7,0.7h-30.7C690.9,203.1,690.6,202.8,690.6,202.4z"/>
		<path id="XMLID_74_" class="st2" d="M748.5,202.4v-30.7c0-0.4,0.3-0.7,0.7-0.7h30.7c0.4,0,0.7,0.3,0.7,0.7v30.7
			c0,0.4-0.3,0.7-0.7,0.7h-30.7C748.8,203.1,748.5,202.8,748.5,202.4z"/>
		<path id="XMLID_73_" class="st6" d="M747,202.4v-30.7c0-0.4,0.3-0.7,0.7-0.7h30.7c0.4,0,0.7,0.3,0.7,0.7v30.7
			c0,0.4-0.3,0.7-0.7,0.7h-30.7C747.3,203.1,747,202.8,747,202.4z"/>
		<path id="XMLID_72_" class="st13" d="M804.9,202.4v-30.7c0-0.4,0.3-0.7,0.7-0.7h30.7c0.4,0,0.7,0.3,0.7,0.7v30.7
			c0,0.4-0.3,0.7-0.7,0.7h-30.7C805.2,203.1,804.9,202.8,804.9,202.4z"/>
		<path id="XMLID_71_" class="st15" d="M803.4,202.4v-30.7c0-0.4,0.3-0.7,0.7-0.7h30.7c0.4,0,0.7,0.3,0.7,0.7v30.7
			c0,0.4-0.3,0.7-0.7,0.7h-30.7C803.7,203.1,803.4,202.8,803.4,202.4z"/>
		<path id="XMLID_70_" class="st13" d="M861.3,202.4v-30.7c0-0.4,0.3-0.7,0.7-0.7h30.7c0.4,0,0.7,0.3,0.7,0.7v30.7
			c0,0.4-0.3,0.7-0.7,0.7H862C861.6,203.1,861.3,202.8,861.3,202.4z"/>
		<path id="XMLID_69_" class="st16" d="M859.8,202.4v-30.7c0-0.4,0.3-0.7,0.7-0.7h30.7c0.4,0,0.7,0.3,0.7,0.7v30.7
			c0,0.4-0.3,0.7-0.7,0.7h-30.7C860.1,203.1,859.8,202.8,859.8,202.4z"/>
	</g>
	<path id="XMLID_68_" class="st17" d="M290.2,239.3v-78.5c0-1.9,1.5-3.4,3.4-3.4h267.7c1.9,0,3.4,1.5,3.4,3.4v78.5
		c0,1.9-1.5,3.4-3.4,3.4H293.6C291.7,242.7,290.2,241.2,290.2,239.3z"/>
	<path id="XMLID_67_" class="st18" d="M276.4,239.2v-78.3c0-1.9,1.6-3.5,3.5-3.5h276.4c1.9,0,3.5,1.6,3.5,3.5v78.3
		c0,1.9-1.6,3.5-3.5,3.5H279.9C278,242.7,276.4,241.2,276.4,239.2z"/>
	<path id="XMLID_66_" class="st12" d="M286.5,232.2v-64.8c0-0.7,0.6-1.3,1.3-1.3h48c0.7,0,1.3,0.6,1.3,1.3v64.8
		c0,0.7-0.6,1.3-1.3,1.3h-48C287.1,233.6,286.5,233,286.5,232.2z"/>
	<path id="XMLID_65_" class="st9" d="M284.1,232.2v-64.8c0-0.7,0.6-1.3,1.3-1.3h48c0.7,0,1.3,0.6,1.3,1.3v64.8
		c0,0.7-0.6,1.3-1.3,1.3h-48C284.7,233.6,284.1,233,284.1,232.2z"/>
	<path id="XMLID_64_" class="st12" d="M426.5,232.2v-64.8c0-0.7,0.6-1.3,1.3-1.3h48c0.7,0,1.3,0.6,1.3,1.3v64.8
		c0,0.7-0.6,1.3-1.3,1.3h-48C427.1,233.6,426.5,233,426.5,232.2z"/>
	<path id="XMLID_63_" class="st9" d="M424,232.2v-64.8c0-0.7,0.6-1.3,1.3-1.3h48c0.7,0,1.3,0.6,1.3,1.3v64.8c0,0.7-0.6,1.3-1.3,1.3
		h-48C424.6,233.6,424,233,424,232.2z"/>
	<path id="XMLID_62_" class="st12" d="M357.7,232.2v-64.8c0-0.7,0.6-1.3,1.3-1.3h48c0.7,0,1.3,0.6,1.3,1.3v64.8
		c0,0.7-0.6,1.3-1.3,1.3h-48C358.3,233.6,357.7,233,357.7,232.2z"/>
	<path id="XMLID_61_" class="st9" d="M355.3,232.2v-64.8c0-0.7,0.6-1.3,1.3-1.3h48c0.7,0,1.3,0.6,1.3,1.3v64.8
		c0,0.7-0.6,1.3-1.3,1.3h-48C355.9,233.6,355.3,233,355.3,232.2z"/>
	<path id="XMLID_60_" class="st12" d="M497.7,232.2v-64.8c0-0.7,0.6-1.3,1.3-1.3h48c0.7,0,1.3,0.6,1.3,1.3v64.8
		c0,0.7-0.6,1.3-1.3,1.3h-48C498.3,233.6,497.7,233,497.7,232.2z"/>
	<path id="XMLID_59_" class="st9" d="M495.3,232.2v-64.8c0-0.7,0.6-1.3,1.3-1.3h48c0.7,0,1.3,0.6,1.3,1.3v64.8
		c0,0.7-0.6,1.3-1.3,1.3h-48C495.8,233.6,495.3,233,495.3,232.2z"/>
	<path class="st6" d="M355.3,185.5c7.9,0,14.4,6.4,14.4,14.4s-6.4,14.4-14.4,14.4"/>
	<g>
		<g>
			<line class="st19" x1="424" y1="181.3" x2="424.4" y2="181.3"/>
			<line class="st20" x1="425.7" y1="181.3" x2="476" y2="181.3"/>
			<line class="st19" x1="476.6" y1="181.3" x2="477" y2="181.3"/>
		</g>
	</g>
	<path id="XMLID_58_" class="st6" d="M503.8,233.2v-66.8c0-0.2,0.2-0.3,0.3-0.3h2.8c0.2,0,0.3,0.2,0.3,0.3v66.8
		c0,0.2-0.2,0.3-0.3,0.3h-2.8C504,233.6,503.8,233.4,503.8,233.2z"/>
	<g id="XMLID_56_">
		<g>
			<path class="st19" d="M336.9,229.9c-0.1,0.1-0.2,0.2-0.3,0.3"/>
			<path class="st21" d="M335.3,230.4h-43.1c-0.6,0-1.2-0.5-1.2-1.2v-55.4c0-0.6,0.5-1.2,1.2-1.2h43.6"/>
			<path class="st19" d="M336.4,172.8c0.1,0,0.2,0.1,0.3,0.2"/>
		</g>
	</g>
	<rect x="288.5" y="169.7" class="st6" width="7.7" height="7.7"/>
	<g>
		<path id="XMLID_55_" class="st22" d="M648.8,354.5v-44.3c0-1.3,1.1-2.4,2.4-2.4h229.6c1.3,0,2.4,1.1,2.4,2.4v44.3
			c0,1.3-1.1,2.4-2.4,2.4H651.2C649.9,356.9,648.8,355.8,648.8,354.5z"/>
		<path id="XMLID_54_" class="st23" d="M637,354.4v-44.3c0-1.4,1.1-2.5,2.5-2.5h237.1c1.4,0,2.5,1.1,2.5,2.5v44.3
			c0,1.4-1.1,2.5-2.5,2.5H639.4C638.1,356.9,637,355.8,637,354.4z"/>
		<g>
			<path class="st24" d="M657.8,335.7v1.5H649v-1.2l5-4.8c1.3-1.3,1.5-2,1.5-2.8c0-1.3-0.9-2-2.6-2c-1.3,0-2.8,0.2-3.6,1.1l-0.7-0.8
				c0.9-1.2,2.6-1.9,4.5-1.9c2.6,0,4.2,1.3,4.2,3.4c0,1.2-0.4,2.3-2,3.9l-3.8,3.6H657.8z"/>
			<path class="st24" d="M659.2,331.1c0-4,2.1-6.3,5-6.3c2.9,0,5,2.3,5,6.3s-2.1,6.3-5,6.3C661.3,337.4,659.2,335.1,659.2,331.1z
				 M667.5,331.1c0-3.1-1.3-4.7-3.2-4.7c-1.9,0-3.3,1.6-3.3,4.7c0,3.1,1.3,4.7,3.3,4.7C666.1,335.8,667.5,334.3,667.5,331.1z"/>
			<path class="st24" d="M679.5,335.7v1.5h-8.8v-1.2l5-4.8c1.3-1.3,1.5-2,1.5-2.8c0-1.3-0.9-2-2.6-2c-1.3,0-2.8,0.1-3.5,1l-0.8-0.7
				c0.9-1.2,2.6-1.9,4.5-1.9c2.6,0,4.2,1.3,4.2,3.4c0,1.2-0.4,2.3-2,3.9l-3.8,3.6L679.5,335.7L679.5,335.7z"/>
			<path class="st24" d="M684.7,325v12.3H683v-10.8h-2.8V325H684.7z"/>
		</g>
		<g>
			<path class="st9" d="M657.1,335.7v1.5h-8.8v-1.2l5-4.8c1.3-1.3,1.5-2,1.5-2.8c0-1.3-0.9-2-2.6-2c-1.3,0-2.4,0.4-3.1,1.3l-1.2-1
				c0.9-1.2,2.6-1.9,4.5-1.9c2.6,0,4.2,1.3,4.2,3.4c0,1.2-0.4,2.3-2,3.9l-3.8,3.6H657.1z"/>
			<path class="st9" d="M658.5,331.1c0-4,2.1-6.3,5-6.3c2.9,0,5,2.3,5,6.3s-2.1,6.3-5,6.3C660.7,337.4,658.5,335.1,658.5,331.1z
				 M666.8,331.1c0-3.1-1.3-4.7-3.2-4.7c-1.9,0-3.3,1.6-3.3,4.7c0,3.1,1.3,4.7,3.3,4.7C665.4,335.8,666.8,334.3,666.8,331.1z"/>
			<path class="st9" d="M678.8,335.7v1.5H670v-1.2l5-4.8c1.3-1.3,1.5-2,1.5-2.8c0-1.3-0.9-2-2.6-2c-1.3,0-2.4,0.4-3.1,1.3l-1.2-1
				c0.9-1.2,2.6-1.9,4.5-1.9c2.6,0,4.2,1.3,4.2,3.4c0,1.2-0.4,2.3-2,3.9l-3.8,3.6H678.8z"/>
			<path class="st9" d="M684,325v12.3h-1.7v-10.8h-2.8V325H684z"/>
		</g>
		<path id="XMLID_53_" class="st25" d="M791.1,333.1v16.5c0,0.4-0.3,0.7-0.7,0.7h-25.5c-0.4,0-0.7-0.3-0.7-0.7v-16.5"/>
		<path id="XMLID_52_" class="st25" d="M764.2,329.9v-15.3c0-0.4,0.3-0.7,0.7-0.7h25.5c0.4,0,0.7,0.3,0.7,0.7v15.3"/>
		<path id="XMLID_32_" class="st25" d="M789.8,333.1v16.5c0,0.4-0.3,0.7-0.7,0.7h-24.3c-0.4,0-0.7-0.3-0.7-0.7v-16.5"/>
		<path id="XMLID_30_" class="st25" d="M764.2,329.9v-15.3c0-0.4,0.3-0.7,0.7-0.7h24.3c0.4,0,0.7,0.3,0.7,0.7v15.3"/>
		<g>
			<path class="st24" d="M776.8,326.3v1.3h-7.4v-1l4.2-4.1c1.1-1.1,1.3-1.7,1.3-2.4c0-1.1-0.7-1.7-2.2-1.7c-1.1,0-2.3,0.1-3,0.8
				l-0.7-0.6c0.8-1,2.2-1.6,3.8-1.6c2.2,0,3.5,1.1,3.5,2.9c0,1-0.3,1.9-1.7,3.3l-3.2,3L776.8,326.3L776.8,326.3z"/>
			<path class="st24" d="M778,322.4c0-3.4,1.8-5.3,4.2-5.3c2.4,0,4.2,1.9,4.2,5.3s-1.8,5.3-4.2,5.3C779.7,327.7,778,325.8,778,322.4
				z M784.9,322.4c0-2.6-1.1-4-2.7-4c-1.6,0-2.8,1.3-2.8,4c0,2.6,1.1,4,2.8,4C783.8,326.4,784.9,325.1,784.9,322.4z"/>
			<path class="st24" d="M779,344v1.3h-7.4v-1l4.2-4.1c1.1-1.1,1.3-1.7,1.3-2.4c0-1.1-0.7-1.7-2.2-1.7c-1.1,0-2.3,0-2.9,0.8
				l-0.7-0.6c0.8-1,2.2-1.6,3.8-1.6c2.2,0,3.5,1.1,3.5,2.9c0,1-0.3,1.9-1.7,3.3l-3.2,3L779,344L779,344z"/>
			<path class="st24" d="M783.4,335v10.3h-1.5v-9h-2.3V335L783.4,335L783.4,335z"/>
		</g>
		<g>
			<path class="st9" d="M776.2,326.3v1.3h-7.4v-1l4.2-4.1c1.1-1.1,1.3-1.7,1.3-2.4c0-1.1-0.7-1.7-2.2-1.7c-1.1,0-2,0.4-2.6,1.1
				l-1-0.9c0.8-1,2.2-1.6,3.8-1.6c2.2,0,3.5,1.1,3.5,2.9c0,1-0.3,1.9-1.7,3.3l-3.2,3L776.2,326.3L776.2,326.3z"/>
			<path class="st9" d="M777.4,322.4c0-3.4,1.8-5.3,4.2-5.3c2.4,0,4.2,1.9,4.2,5.3s-1.8,5.3-4.2,5.3
				C779.2,327.7,777.4,325.8,777.4,322.4z M784.3,322.4c0-2.6-1.1-4-2.7-4c-1.6,0-2.8,1.3-2.8,4c0,2.6,1.1,4,2.8,4
				C783.2,326.4,784.3,325.1,784.3,322.4z"/>
			<path class="st9" d="M778.4,344v1.3H771v-1l4.2-4.1c1.1-1.1,1.3-1.7,1.3-2.4c0-1.1-0.7-1.7-2.2-1.7c-1.1,0-2,0.4-2.6,1.1l-1-0.9
				c0.8-1,2.2-1.6,3.8-1.6c2.2,0,3.5,1.1,3.5,2.9c0,1-0.3,1.9-1.7,3.3l-3.2,3L778.4,344L778.4,344z"/>
			<path class="st9" d="M782.8,335v10.3h-1.5v-9H779V335L782.8,335L782.8,335z"/>
		</g>
		<g>
			<path class="st24" d="M707.1,335.9l4.1-2.8c1.8-1.2,2.8-2.1,2.8-3.4c0-1.4-1.2-2-2.5-2c-1.4,0-2.8,0-4.1,1v-1.2
				c0.8-0.6,2.5-1.4,4.2-1.4c2.5,0,4.4,1.4,4.4,3.4c0,1.8-1.2,3-2.7,3.9l-3.4,2.1h6.5v1.7h-9.2L707.1,335.9L707.1,335.9L707.1,335.9
				z"/>
			<path class="st24" d="M718.9,331.9c0-3.4,2.7-5.8,5.9-5.8c3.2,0,5.9,2.3,5.9,5.8c0,3.4-2.7,5.8-5.9,5.8
				C721.6,337.7,718.9,335.4,718.9,331.9z M728.7,331.9c0-2.6-1.8-4.2-4-4.2c-2.2,0-4,1.7-4,4.2c0,2.6,1.8,4.2,4,4.2
				C727,336.2,728.7,334.5,728.7,331.9z"/>
			<path class="st24" d="M733.1,335.9l4.1-2.8c1.8-1.2,2.8-2.1,2.8-3.4c0-1.4-1.2-2-2.5-2c-1.4,0-2.8,0-4.1,1v-1.2
				c0.8-0.6,2.5-1.4,4.2-1.4c2.5,0,4.4,1.4,4.4,3.4c0,1.8-1.2,3-2.7,3.9l-3.4,2.1h6.5v1.7h-9.2L733.1,335.9L733.1,335.9L733.1,335.9
				z"/>
			<path class="st24" d="M746.3,328.4h-1.6v-1.3l3.5-0.8v11h-1.9V328.4z"/>
		</g>
		<g>
			<path class="st9" d="M706.2,335.9l4.1-2.8c1.8-1.2,2.8-2.1,2.8-3.4c0-1.4-1.2-2-2.5-2c-1.4,0-2.8,0.6-4.1,1.7v-1.9
				c0.8-0.6,2.5-1.4,4.2-1.4c2.5,0,4.4,1.4,4.4,3.4c0,1.8-1.2,3-2.7,3.9l-3.4,2.1h6.5v1.7h-9.2L706.2,335.9L706.2,335.9L706.2,335.9
				z"/>
			<path class="st9" d="M717.9,331.9c0-3.4,2.7-5.8,5.9-5.8c3.2,0,5.9,2.3,5.9,5.8c0,3.4-2.7,5.8-5.9,5.8
				C720.6,337.7,717.9,335.4,717.9,331.9z M727.8,331.9c0-2.6-1.8-4.2-4-4.2c-2.2,0-4,1.7-4,4.2c0,2.6,1.8,4.2,4,4.2
				C726,336.2,727.8,334.5,727.8,331.9z"/>
			<path class="st9" d="M732.1,335.9l4.1-2.8c1.8-1.2,2.8-2.1,2.8-3.4c0-1.4-1.2-2-2.5-2c-1.4,0-2.8,0.6-4.1,1.7v-1.9
				c0.8-0.6,2.5-1.4,4.2-1.4c2.5,0,4.4,1.4,4.4,3.4c0,1.8-1.2,3-2.7,3.9l-3.4,2.1h6.5v1.7h-9.2L732.1,335.9L732.1,335.9L732.1,335.9
				z"/>
			<path class="st9" d="M745.3,328.4h-1.6v-1.3l3.5-0.8v11h-1.9V328.4z"/>
		</g>
		<g>
			<path class="st24" d="M841.3,326.4v1.3H834v-1l4.1-4c1.1-1,1.3-1.7,1.3-2.3c0-1-0.7-1.7-2.2-1.7c-1.1,0-2.3,0.1-2.9,0.8l-0.7-0.6
				c0.8-1,2.1-1.5,3.7-1.5c2.1,0,3.5,1.1,3.5,2.8c0,1-0.3,1.9-1.7,3.2l-3.1,3L841.3,326.4L841.3,326.4z"/>
			<path class="st24" d="M842.4,322.6c0-3.3,1.8-5.2,4.1-5.2c2.4,0,4.1,1.9,4.1,5.2c0,3.3-1.8,5.2-4.1,5.2
				C844.2,327.8,842.4,325.9,842.4,322.6z M849.3,322.6c0-2.6-1.1-3.9-2.7-3.9c-1.6,0-2.7,1.3-2.7,3.9c0,2.6,1.1,3.9,2.7,3.9
				C848.2,326.5,849.3,325.2,849.3,322.6z"/>
			<path class="st24" d="M843.4,343.8v1.3h-7.3v-1l4.1-4c1.1-1,1.3-1.7,1.3-2.3c0-1-0.7-1.7-2.2-1.7c-1.1,0-2.3,0.1-2.9,0.8
				l-0.7-0.6c0.8-1,2.1-1.5,3.7-1.5c2.1,0,3.5,1.1,3.5,2.8c0,1-0.3,1.9-1.7,3.2l-3.1,3L843.4,343.8L843.4,343.8z"/>
			<path class="st24" d="M847.8,334.9v10.1h-1.4v-8.9H844v-1.3H847.8z"/>
		</g>
		<g>
			<path class="st9" d="M840.7,326.4v1.3h-7.3v-1l4.1-4c1.1-1,1.3-1.7,1.3-2.3c0-1-0.7-1.7-2.2-1.7c-1.1,0-2,0.3-2.6,1.1l-1-0.9
				c0.8-1,2.1-1.5,3.7-1.5c2.1,0,3.5,1.1,3.5,2.8c0,1-0.3,1.9-1.7,3.2l-3.1,3L840.7,326.4L840.7,326.4z"/>
			<path class="st9" d="M841.9,322.6c0-3.3,1.8-5.2,4.1-5.2c2.4,0,4.1,1.9,4.1,5.2c0,3.3-1.8,5.2-4.1,5.2
				C843.7,327.8,841.9,325.9,841.9,322.6z M848.7,322.6c0-2.6-1.1-3.9-2.7-3.9c-1.6,0-2.7,1.3-2.7,3.9c0,2.6,1.1,3.9,2.7,3.9
				S848.7,325.2,848.7,322.6z"/>
			<path class="st9" d="M842.9,343.8v1.3h-7.3v-1l4.1-4c1.1-1,1.3-1.7,1.3-2.3c0-1-0.7-1.7-2.2-1.7c-1.1,0-2,0.3-2.6,1.1l-1-0.9
				c0.8-1,2.1-1.5,3.7-1.5c2.1,0,3.5,1.1,3.5,2.8c0,1-0.3,1.9-1.7,3.2l-3.1,3L842.9,343.8L842.9,343.8z"/>
			<path class="st9" d="M847.2,334.9v10.1h-1.4v-8.9h-2.3v-1.3H847.2z"/>
		</g>
		<circle class="st25" cx="842.2" cy="332.1" r="18"/>
		<path class="st25" d="M842.8,314.2c10.1,0,18.3,8,18.3,18s-8.2,18-18.3,18"/>
	</g>
	<path class="st6" d="M477.1,181v-13.6c0-0.7-0.6-1.3-1.4-1.3h-50.3c-0.8,0-1.4,0.6-1.4,1.3V181H477.1z"/>
	<path class="st26" d="M473.5,166.1c0.7,0,1.3,0.6,1.3,1.3V181h2.4v-13.6c0-0.7-0.6-1.3-1.3-1.3H473.5z"/>
</g>
</svg>
