<?xml version="1.0" encoding="utf-8"?>
<!-- Generator: Adobe Illustrator 19.0.0, SVG Export Plug-In . SVG Version: 6.00 Build 0)  -->
<svg version="1.1" id="Warstwa_1" xmlns="http://www.w3.org/2000/svg" xmlns:xlink="http://www.w3.org/1999/xlink" x="0px" y="0px"
	 viewBox="0 0 512 512" style="enable-background:new 0 0 512 512;" xml:space="preserve">
<style type="text/css">
	.st0{fill:#00D1B2;}
</style>
<g>
	<path class="st0" d="M256,8C119,8,8,119,8,256s111,248,248,248s248-111,248-248S393,8,256,8z M190.6,367.5h-51.3V202.3h51.3V367.5z
		 M165,179.7c-16.4,0-29.7-13.6-29.7-30c0-16.4,13.3-29.7,29.7-29.7c16.4,0,29.7,13.3,29.7,29.7C194.7,166.1,181.4,179.7,165,179.7z
		 M382.7,367.5h-51.2v-80.4c0-19.2-0.4-43.8-26.7-43.8c-26.7,0-30.8,20.8-30.8,42.4v81.8h-51.3V202.3H272v22.5h0.7
		c6.9-13,23.6-26.7,48.6-26.7c51.9,0,61.5,34.2,61.5,78.6L382.7,367.5z"/>
</g>
</svg>
