<?xml version="1.0" encoding="utf-8"?>
<!-- Generator: Adobe Illustrator 19.0.0, SVG Export Plug-In . SVG Version: 6.00 Build 0)  -->
<svg version="1.1" id="Warstwa_1" xmlns="http://www.w3.org/2000/svg" xmlns:xlink="http://www.w3.org/1999/xlink" x="0px" y="0px"
	 viewBox="0 0 500 500" style="enable-background:new 0 0 500 500;" xml:space="preserve">
<style type="text/css">
	.st0{fill:#404040;}
	.st1{fill:#23C495;}
</style>
<path id="XMLID_3_" class="st0" d="M252,470.2c58.2-0.7,113.6-23.3,155.3-64.3s65.7-95.8,67-153.9c1.4-43.8-10.3-86.9-33.5-124.5
	c-2.7-4.8-8.2-7.5-14.4-7.5c-6.2,0-11.6,3.4-14.4,8.9c-2.7,5.5-2.7,11.6,0.7,17.1c20.5,32.8,30.1,70.5,28,108.8
	c-4.1,94.4-87.6,177.9-182,182.7c-54,2.7-106-17.8-144.4-56.1s-58.2-91-56.1-144.4c4.8-94.4,88.3-177.9,182.7-182
	c38.3-1.4,75.9,8.2,108.8,28c5.5,3.4,11.6,3.4,17.1,0.7c5.5-2.7,8.9-8.2,8.9-14.4c0-5.5-2.7-10.9-7.5-14.4
	c-37.6-23.3-80-34.9-124.5-33.5c-58.2,1.4-112.9,25.3-153.9,67s-64.3,97.1-64.3,155.3c-0.7,60.9,22.6,117.7,65.7,160.8
	c42.4,42.4,99.2,65.7,158.7,65.7C250.6,470.2,251.3,470.2,252,470.2"/>
<path id="XMLID_5_" class="st1" d="M250,109.7c-7.5,0-13.7,4.1-16.4,11.6l-84.8,203.2c-2.7,6.2-2.1,11.6,1.4,17.1
	c3.4,5.5,8.2,8.2,15.1,8.2c3.4,0,6.2-0.7,9.6-2.7c3.4-2.1,5.5-4.8,6.8-8.2l25.3-62.3h88.3l25.3,62.3c1.4,3.4,3.4,6.2,6.8,8.2
	c2.7,2.1,6.2,2.7,9.6,2.7c6.8,0,11.6-2.7,15.1-7.5c3.4-4.8,3.4-10.9,1.4-17.1L267.7,122C263.6,113.8,258.2,109.7,250,109.7
	 M217.8,248.5l32.8-80.7l32.2,80.7H217.8z"/>
</svg>
