<?xml version="1.0" encoding="utf-8"?>
<!-- Generator: Adobe Illustrator 19.0.0, SVG Export Plug-In . SVG Version: 6.00 Build 0)  -->
<svg version="1.1" id="Warstwa_1" xmlns="http://www.w3.org/2000/svg" xmlns:xlink="http://www.w3.org/1999/xlink" x="0px" y="0px"
	 viewBox="-351 145 576 512" style="enable-background:new -351 145 576 512;" xml:space="preserve">
<style type="text/css">
	.st0{fill:#00D1B2;}
</style>
<path class="st0" d="M-63,145c-69.6,0-126,56.4-126,126c0,56.3,82.4,158.8,113.9,196c6.4,7.5,17.8,7.5,24.2,0
	C-19.4,429.8,63,327.3,63,271C63,201.4,6.6,145-63,145z M-63,313c-23.2,0-42-18.8-42-42s18.8-42,42-42s42,18.8,42,42
	S-39.8,313-63,313z M-330.9,361c-12.1,4.9-20.1,16.6-20.1,29.7V641c0,11.3,11.4,19.1,21.9,14.9L-191,593V359.9
	c-8.8-16-16.1-31.5-21.2-46.4L-330.9,361z M-63,504.7c-14.1,0-27.4-6.2-36.5-17c-19.7-23.2-40.6-49.6-59.5-76.7v182l192,64V411
	c-18.9,27.1-39.8,53.5-59.5,76.7C-35.6,498.5-48.9,504.7-63,504.7z M203.1,306.2L65,369v288l139.9-56c12.2-4.9,20.1-16.6,20.1-29.7
	V321C225,309.7,213.6,302,203.1,306.2L203.1,306.2z"/>
</svg>
