<?xml version="1.0" encoding="utf-8"?>
<!-- Generator: Adobe Illustrator 19.0.0, SVG Export Plug-In . SVG Version: 6.00 Build 0)  -->
<svg version="1.1" id="Warstwa_1" xmlns="http://www.w3.org/2000/svg" xmlns:xlink="http://www.w3.org/1999/xlink" x="0px" y="0px"
	 viewBox="221.6 -39.6 687.2 674.2" style="enable-background:new 221.6 -39.6 687.2 674.2;" xml:space="preserve">
<style type="text/css">
	.st0{clip-path:url(#SVGID_2_);fill:url(#SVGID_3_);}
	.st1{fill:#FFFFFF;}
	.st2{font-family:'Montserrat-Regular';}
	.st3{font-size:52.7952px;}
	.st4{letter-spacing:2;}
	.st5{font-family:'Montserrat-Black';}
	.st6{font-size:78.0929px;}
	.st7{letter-spacing:4;}
	.st8{fill:#FDC912;}
	.st9{opacity:0.2;enable-background:new    ;}
	.st10{fill:#D9D9D9;}
	.st11{opacity:0.5;fill:#C4C4C4;enable-background:new    ;}
	.st12{fill:#091B31;}
	.st13{fill:url(#SVGID_4_);}
	.st14{fill:#DBA521;}
	.st15{fill:#E9BF47;}
	.st16{fill:url(#SVGID_5_);}
	.st17{fill:url(#SVGID_6_);}
	.st18{fill:url(#SVGID_7_);}
	.st19{fill:url(#SVGID_8_);}
	.st20{opacity:0.3;enable-background:new    ;}
	.st21{opacity:0.1;enable-background:new    ;}
	.st22{fill:#D4BA9E;}
	.st23{fill:#F2E8BF;}
	.st24{fill:#231F20;}
	.st25{font-family:'ArialMT';}
	.st26{font-size:14.4593px;}
	.st27{font-family:'Montserrat-ExtraBold';}
	.st28{font-size:15.9065px;}
	.st29{font-size:18.8309px;}
</style>
<g>
	<g>
		<defs>
			<rect id="SVGID_1_" x="220.1" y="-39.6" width="688.7" height="674.2"/>
		</defs>
		<clipPath id="SVGID_2_">
			<use xlink:href="#SVGID_1_"  style="overflow:visible;"/>
		</clipPath>
		
			<linearGradient id="SVGID_3_" gradientUnits="userSpaceOnUse" x1="-871.8237" y1="-777.5557" x2="-870.5684" y2="-777.5557" gradientTransform="matrix(526.5874 0 0 526.5874 459312.3125 409748.5)">
			<stop  offset="0" style="stop-color:#379E6E"/>
			<stop  offset="1" style="stop-color:#72C6D4"/>
		</linearGradient>
		<polygon class="st0" points="221,-39.6 908.8,-39.6 908.8,634.6 222.6,634.6 		"/>
	</g>
</g>
<g>
	<g>
		<text transform="matrix(1 0 0 1 462.0594 209.034)" class="st1 st2 st3 st4">OFERTA</text>
		<text transform="matrix(1 0 0 1 462.0594 284.934)" class="st1 st5 st6 st7">PRACY!</text>
		<g>
			<g>
				<g>
					<path class="st1" d="M756.5,174.3c0,3.8-3.1,6.9-6.9,6.9c-3.8,0-6.9-3.1-6.9-6.9c0-3.8,3.1-6.9,6.9-6.9
						C753.4,167.4,756.5,170.5,756.5,174.3z"/>
					<path class="st1" d="M762.1,195.3v-0.4c0-6.6-5.4-12-11.9-12h-1.1c-6.6,0-11.9,5.4-11.9,12v0.4H762.1z"/>
				</g>
				<g>
					<path class="st1" d="M722.6,182c0,14.9,12.1,27,27,27s27-12.1,27-27s-12.1-27-27-27C734.7,155,722.6,167.1,722.6,182z
						 M725.2,182c0-13.5,11-24.4,24.4-24.4c13.5,0,24.4,11,24.4,24.4c0,13.5-11,24.4-24.4,24.4C736.1,206.4,725.2,195.5,725.2,182z"
						/>
				</g>
			</g>
			<g>
				<path class="st8" d="M767.2,351.8H490.3v-37.4c0,0,210.1,0,245.3,0C770.9,314.4,767.2,351.8,767.2,351.8z"/>
			</g>
			<path class="st9" d="M471.4,224.4h-0.6l0.5,2.4v-2.4H471.4z M471.4,257.5v-20.3h-14.8v24.9c8.5,0,15.6-0.1,20.1-0.1
				c0.2,0,0.5,0,0.7,0c0.7,0,1.3,0,1.8,0h0.3c0.7,0,1.2,0,1.6,0c2.9,0,5-1.9,6.2-4.6h-15.9V257.5z"/>
			<g>
				<g>
					<path class="st9" d="M307.9,351.7c0,2.1,39.5,3.8,88.1,3.8c48.7,0,88.1-1.7,88.1-3.8c0-2.1-39.5-3.8-88.1-3.8
						S307.9,349.6,307.9,351.7z"/>
					<g>
						<g>
							<path class="st10" d="M468,245l-7-31.9c-1.3-6.1-4.1-8.2-10.6-8.2h-40.6l0,0c-2.4,0-4.4-2-4.4-4.4s2-4.4,4.4-4.4l0,0h40.7
								c10.7,0,16.9,5,19.2,15.1l7,31.9l0,0c0.5,2.4-1,4.7-3.4,5.3C470.9,248.9,468.5,247.4,468,245L468,245z"/>
						</g>
						<path class="st11" d="M475,244.8l-7-31.9c-2.3-10.2-8.6-15.2-19.2-15.2h-40.7c-0.8,0-1.5,0.2-2.2,0.6c0.8-1.3,2.2-2.2,3.8-2.2
							h40.7c10.7,0,16.9,5,19.2,15.1l7,31.9c0.4,1.9-0.5,3.8-2.1,4.8C475,247,475.2,245.9,475,244.8z"/>
						<rect x="396.3" y="254.5" class="st10" width="7.7" height="55.4"/>
						<rect x="393.8" y="281.4" class="st12" width="12.8" height="35.1"/>
						<rect x="393.8" y="261" class="st12" width="12.8" height="8.6"/>
						<g>
							<rect x="458.4" y="332.3" class="st12" width="2.8" height="12.6"/>
							<path class="st12" d="M463.3,347.8c0,3.4-2.8,6.1-6.1,6.1c-3.4,0-6.1-2.8-6.1-6.1c0-3.4,2.7-6.1,6.1-6.1
								C460.5,341.7,463.3,344.4,463.3,347.8z"/>
							<path class="st10" d="M462.1,347.8c0,2.8-2.2,5-5,5s-5-2.2-5-5s2.2-5,5-5C459.9,342.8,462.1,345.1,462.1,347.8z"/>
						</g>
						<g>
							<rect x="434.4" y="331.3" class="st12" width="2.8" height="13.6"/>
							<path class="st12" d="M439.3,347.8c0,3.4-2.8,6.1-6.1,6.1c-3.4,0-6.1-2.8-6.1-6.1c0-3.4,2.7-6.1,6.1-6.1
								S439.3,344.4,439.3,347.8z"/>
							<path class="st10" d="M438.2,347.8c0,2.8-2.2,5-5,5s-5-2.2-5-5s2.2-5,5-5S438.2,345.1,438.2,347.8z"/>
						</g>
						<g>
							<rect x="363" y="331.3" class="st12" width="2.8" height="13.6"/>
							<path class="st12" d="M360.9,347.8c0,3.4,2.8,6.1,6.1,6.1c3.4,0,6.2-2.8,6.2-6.1c0-3.4-2.8-6.1-6.2-6.1
								C363.7,341.7,360.9,344.4,360.9,347.8z"/>
							<path class="st10" d="M362.1,347.8c0,2.8,2.2,5,5,5c2.8,0,5-2.2,5-5s-2.2-5-5-5C364.3,342.8,362.1,345.1,362.1,347.8z"/>
						</g>
						<g>
							<rect x="339.2" y="331.3" class="st12" width="2.8" height="13.6"/>
							<path class="st12" d="M337.2,347.8c0,3.4,2.7,6.1,6.1,6.1s6.1-2.8,6.1-6.1c0-3.4-2.8-6.1-6.1-6.1
								C339.9,341.7,337.2,344.4,337.2,347.8z"/>
							<path class="st10" d="M338.3,347.8c0,2.8,2.2,5,5,5c2.8,0,5-2.2,5-5s-2.2-5-5-5C340.6,342.8,338.3,345.1,338.3,347.8z"/>
						</g>
						<path class="st12" d="M424.9,256.4c-0.2,4.2-3.7,7.6-8,7.6h-33.1c-4.3,0-7.8-3.3-8-7.6H424.9z"/>
						<g>
							
								<linearGradient id="SVGID_4_" gradientUnits="userSpaceOnUse" x1="1035.3895" y1="308.4803" x2="1057.9475" y2="269.6799" gradientTransform="matrix(-1 0 0 -1 1434.0341 504)">
								<stop  offset="0" style="stop-color:#DBA521"/>
								<stop  offset="1" style="stop-color:#C28524"/>
							</linearGradient>
							<path class="st13" d="M316,142.3c0,0,69.7,0,71.1,0c8.4,0,12.8,5.4,15.1,12.6c1.7,5.5,16,54.5,20,65.7s9.5,11.8,13.5,11.8
								h31.4c16.2,0,16.4,24.8,5.7,24.8c-10.7,0-114.4,0.5-114.4,0.5L316,142.3z"/>
							<path class="st14" d="M472.6,257.1c-6.7,0-49.5,0.2-80.8,0.4l4-25.2h71.1C483.2,232.3,483.4,257.1,472.6,257.1z"/>
							<path class="st15" d="M303.7,152.1c1.2,4.1,20.2,66.3,27.3,89.4c1.4,4.7,5,16.3,17.4,16.3c9.1,0,41.2-0.4,51.9-0.4
								s11.7-25.1-4.5-25.1c-16.2,0-27.4,0-31.3,0c-4,0-9.5-0.6-13.5-11.8c-4-11.1-18.2-60.2-20-65.7c-3.3-10.4-9.8-13.5-19.9-12.4
								C307.3,142.7,301.9,145.8,303.7,152.1z"/>
							<g>
								<g>
									<g>
										
											<linearGradient id="SVGID_5_" gradientUnits="userSpaceOnUse" x1="1046.8251" y1="337.6" x2="1051.1532" y2="337.6" gradientTransform="matrix(-1 0 0 -1 1434.0341 504)">
											<stop  offset="0" style="stop-color:#DBA521"/>
											<stop  offset="1" style="stop-color:#C28524"/>
										</linearGradient>
										<path class="st16" d="M382.9,166.3c0.2,1.7,1.3,3.1,2.4,3.1c1.2,0.1,2-1.2,1.8-2.9c-0.2-1.7-1.3-3.1-2.4-3.1
											C383.6,163.3,382.8,164.6,382.9,166.3z"/>
									</g>
									<g>
										
											<linearGradient id="SVGID_6_" gradientUnits="userSpaceOnUse" x1="1079.6696" y1="337.6" x2="1084.0055" y2="337.6" gradientTransform="matrix(-1 0 0 -1 1434.0341 504)">
											<stop  offset="0" style="stop-color:#DBA521"/>
											<stop  offset="1" style="stop-color:#C28524"/>
										</linearGradient>
										<path class="st17" d="M350.1,166.3c0.2,1.7,1.3,3.1,2.5,3.1c1.2,0.1,2-1.2,1.8-2.9c-0.2-1.7-1.3-3.1-2.4-3.1
											C350.8,163.3,349.9,164.6,350.1,166.3z"/>
									</g>
									<g>
										
											<linearGradient id="SVGID_7_" gradientUnits="userSpaceOnUse" x1="1033.5626" y1="301.6973" x2="1037.8984" y2="301.6973" gradientTransform="matrix(-1 0 0 -1 1434.0341 504)">
											<stop  offset="0" style="stop-color:#DBA521"/>
											<stop  offset="1" style="stop-color:#C28524"/>
										</linearGradient>
										<path class="st18" d="M396.2,202.2c0.2,1.7,1.3,3.1,2.4,3.1c1.2,0.1,2-1.2,1.8-2.9c-0.2-1.7-1.3-3.1-2.4-3.1
											C396.9,199.3,396,200.6,396.2,202.2z"/>
									</g>
									<g>
										
											<linearGradient id="SVGID_8_" gradientUnits="userSpaceOnUse" x1="1066.4106" y1="301.6973" x2="1070.7446" y2="301.6973" gradientTransform="matrix(-1 0 0 -1 1434.0341 504)">
											<stop  offset="0" style="stop-color:#DBA521"/>
											<stop  offset="1" style="stop-color:#C28524"/>
										</linearGradient>
										<path class="st19" d="M363.4,202.2c0.2,1.7,1.3,3.1,2.4,3.1c1.2,0.1,2-1.2,1.8-2.9c-0.2-1.7-1.3-3.1-2.4-3.1
											C364,199.3,363.2,200.6,363.4,202.2z"/>
									</g>
								</g>
							</g>
						</g>
						<g>
							<path class="st12" d="M395.2,265.4c0.5,0.5,0.4,1.3-0.1,1.8l-4,3.4c-0.2,0.2-0.5,0.3-0.8,0.3h-16.4c-0.7,0-1.3-0.6-1.3-1.3
								c0-0.7,0.6-1.3,1.3-1.3c0,0,15.1,0,16,0c0.6-0.5,3.6-3.1,3.6-3.1C394,264.8,394.8,264.9,395.2,265.4z"/>
						</g>
						<path class="st20" d="M327.8,200.3c0,3.8,3.1,6.8,6.8,6.8c3.8,0,6.8-3.1,6.8-6.8c0-3.8-3.1-6.8-6.8-6.8
							C330.9,193.4,327.8,196.5,327.8,200.3z"/>
						<path class="st20" d="M390.1,243.8c0,3.8,3.1,6.8,6.8,6.8c3.8,0,6.8-3.1,6.8-6.8c0-3.8-3.1-6.8-6.8-6.8
							S390.1,240.1,390.1,243.8z"/>
						<g>
							<path class="st10" d="M392.7,245l-7-31.9c-1.3-6.1-4.1-8.2-10.6-8.2h-40.7l0,0c-2.4,0-4.4-2-4.4-4.4s2-4.4,4.4-4.4l0,0h40.7
								c10.7,0,16.9,5,19.2,15.1l7,31.9l0,0c0.5,2.4-1,4.7-3.4,5.3C395.6,248.9,393.2,247.4,392.7,245L392.7,245z"/>
						</g>
						<path class="st11" d="M399.7,244.8l-7-31.9c-2.2-10.2-8.5-15.1-19.2-15.1h-40.7c-0.8,0-1.5,0.2-2.2,0.6
							c0.8-1.3,2.2-2.2,3.8-2.2h40.7c10.7,0,16.9,5,19.2,15.1l7,31.9c0.4,1.9-0.5,3.8-2.1,4.8C399.7,247,399.9,245.9,399.7,244.8z"
							/>
						<path class="st12" d="M463.4,330.4l-57.7-16.3v-3.7c0-1-0.8-1.8-1.8-1.8h-7.4c-1,0-1.8,0.8-1.8,1.8v3.8l-57.6,16.2v3.3
							l57.6-2.7v0.5c0,1,0.8,1.8,1.8,1.8h7.4c1,0,1.8-0.8,1.8-1.8V331l57.7,2.8L463.4,330.4L463.4,330.4z"/>
					</g>
				</g>
				<path class="st21" d="M301.1,215.6l59.4-5.9c0.8-0.1,1.4,0.5,1.5,1.2l1.9,19.3c0.1,0.8-0.5,1.4-1.2,1.5l-59.4,5.9
					c-0.8,0.1-1.4-0.5-1.5-1.2l-1.9-19.3C299.8,216.3,300.3,215.7,301.1,215.6z"/>
				<g>
					<path class="st22" d="M300.1,235.3c0.1,0.8,0.8,1.3,1.5,1.2l59.4-6.1c0.7-0.1,1.3-0.8,1.2-1.5l-1.8-17.7
						c-0.1-0.8-0.8-1.3-1.5-1.2l-59.4,6.1c-0.7,0.1-1.3,0.8-1.2,1.5L300.1,235.3z"/>
				</g>
				<g>
					<path class="st23" d="M300,233.8c0.1,0.8,0.8,1.3,1.5,1.2l59.4-6.1c0.8-0.1,1.3-0.8,1.2-1.5l-1.8-17.7
						c-0.1-0.8-0.8-1.3-1.5-1.2l-59.4,6.1c-0.8,0.1-1.3,0.8-1.2,1.5L300,233.8z"/>
				</g>
				<g>
					<path class="st12" d="M331.2,150.6c3.2,7,24.7,60.1,24.9,60.7c0.1,0.2,0,0.4-0.2,0.5c-0.2,0.1-0.4,0-0.5-0.2
						c-0.2-0.5-21.7-53.7-24.9-60.6c-3.7-7.9-9.3-8.6-10.9-8.6c-0.2,0-0.5,0.1-0.5-0.1c0-0.2,0.6-0.3,0.8-0.3
						C321.7,141.8,327.3,142.2,331.2,150.6z"/>
				</g>
				<path class="st12" d="M307.5,165.7c0-0.1,0-0.6,0.1-0.6l0.6,1.8l-4.1,50c0,0.2-0.2,0.4-0.4,0.3c-0.2,0-0.4-0.2-0.3-0.4
					L307.5,165.7z"/>
			</g>
			<g>
				<path class="st1" d="M413.4,165.2c-0.8,0.2-1,1-0.8,2.3l6.5,21.7c0.2,0.8,1.1,1.2,1.9,1c0.8-0.2,1.2-1.1,1-1.9l-6.5-21.7
					C415.2,165.4,414.2,165,413.4,165.2z"/>
			</g>
			<g>
				<path class="st1" d="M304.6,132.8c-0.8,0-1.5,0.7-1.5,1.5s0.7,1.5,1.5,1.5h7.2c0.8,0,1.5-0.7,1.5-1.5s-0.7-1.5-1.5-1.5H304.6z"
					/>
			</g>
			<g>
				<path class="st1" d="M323.2,132.8c-0.8,0-1.5,0.7-1.5,1.5s0.7,1.5,1.5,1.5h63.9c5.9,0,16.5,2.2,21.2,17.1c0.3,0.8,1.1,1.2,1.9,1
					c0.8-0.3,1.2-1.1,1-1.9c-5.3-16.7-17.4-19.2-24.1-19.2C387.1,132.8,323.2,132.8,323.2,132.8z"/>
			</g>
			<g>
				<path class="st1" d="M489.9,359.6c-0.8,0-1.5,0.7-1.5,1.5s0.7,1.5,1.5,1.5h24.2c0.8,0,1.5-0.7,1.5-1.5s-0.7-1.5-1.5-1.5H489.9z"
					/>
			</g>
			<g>
				<path class="st1" d="M332.7,292.6c-0.8,0-1.5,0.7-1.5,1.5s0.7,1.5,1.5,1.5h24.2c0.8,0,1.5-0.7,1.5-1.5s-0.7-1.5-1.5-1.5H332.7z"
					/>
			</g>
			<g>
				<path class="st1" d="M367.2,292.6c-0.8,0-1.5,0.7-1.5,1.5s0.7,1.5,1.5,1.5h7.2c0.8,0,1.5-0.7,1.5-1.5s-0.7-1.5-1.5-1.5H367.2z"
					/>
			</g>
			<g>
				<g>
					<path class="st1" d="M650.3,143.1c-0.8,0-1.5,0.7-1.5,1.5s0.7,1.5,1.5,1.5h24.2c0.8,0,1.5-0.7,1.5-1.5s-0.7-1.5-1.5-1.5H650.3z
						"/>
				</g>
				<g>
					<path class="st1" d="M684.8,143.1c-0.8,0-1.5,0.7-1.5,1.5s0.7,1.5,1.5,1.5h7.2c0.8,0,1.5-0.7,1.5-1.5s-0.7-1.5-1.5-1.5H684.8z"
						/>
				</g>
			</g>
			<g>
				<g>
					<path class="st1" d="M811.3,209.7c-0.8,0-1.5,0.7-1.5,1.5s0.7,1.5,1.5,1.5h24.2c0.8,0,1.5-0.7,1.5-1.5s-0.7-1.5-1.5-1.5H811.3z
						"/>
				</g>
				<g>
					<path class="st1" d="M845.8,209.7c-0.8,0-1.5,0.7-1.5,1.5s0.7,1.5,1.5,1.5h7.2c0.8,0,1.5-0.7,1.5-1.5s-0.7-1.5-1.5-1.5H845.8z"
						/>
				</g>
			</g>
			<g>
				<path class="st1" d="M526,359.6c-0.8,0-1.5,0.7-1.5,1.5s0.7,1.5,1.5,1.5h85.2c0.8,0,1.5-0.7,1.5-1.5s-0.7-1.5-1.5-1.5H526z"/>
			</g>
			<g>
				<path class="st1" d="M625.8,359.6c-0.8,0-1.5,0.7-1.5,1.5s0.7,1.5,1.5,1.5h12.6c0.8,0,1.5-0.7,1.5-1.5s-0.7-1.5-1.5-1.5H625.8z"
					/>
			</g>
			<g>
				<path class="st1" d="M733.7,151.1c-11.7,6-18.9,17.9-18.9,31c0,0.8,0.7,1.5,1.5,1.5s1.5-0.7,1.5-1.5c0-12,6.6-22.8,17.3-28.3
					c0.7-0.4,1-1.3,0.6-2C735.3,151,734.4,150.7,733.7,151.1z"/>
			</g>
			<g>
				<path class="st1" d="M748.1,148.7c0,0.8,0.7,1.5,1.5,1.5c17.6,0,31.8,14.3,31.8,31.8c0,8.5-3.3,16.5-9.3,22.5
					c-0.6,0.6-0.6,1.5,0,2.1s1.5,0.6,2.1,0c6.6-6.6,10.2-15.3,10.2-24.6c0-19.2-15.6-34.8-34.8-34.8
					C748.8,147.2,748.1,147.9,748.1,148.7z"/>
			</g>
			<g>
				<path class="st1" d="M326.5,249.2c-0.8,0.1-1.3,0.9-1.2,1.7c0,0.2,3.2,16.1,21.6,16.2c0.8,0,1.5-0.7,1.5-1.5
					c0-0.8-0.7-1.5-1.5-1.5c-15.9-0.1-18.6-13.2-18.7-13.8C328.1,249.6,327.3,249.1,326.5,249.2z"/>
			</g>
		</g>
	</g>
	<text transform="matrix(0.9941 -0.1086 0.1086 0.9941 302.6541 229.4037)" class="st24 st25 st26">WOLNE</text>
	<text transform="matrix(1 0 0 1 503.6059 338.599)" class="st24 st27 st28">REKRUTACJA@ARTOPEN.PL</text>
	<text transform="matrix(1 0 0 1 772.4091 327.9665)" class="st1 st27 st29">WYŚLIJ </text>
	<text transform="matrix(1 0 0 1 772.4091 353.0665)" class="st1 st27 st29">NAM CV</text>
</g>
<g>
	<path class="st1" d="M576.3,467c-0.5,0-0.8,0.5-0.8,1.4v34.3c0,0.8,0.3,1.4,0.8,1.4s0.8-0.5,0.8-1.4v-34.3
		C577.1,467.5,576.8,467,576.3,467"/>
	<path class="st1" d="M415.8,506.8c5.9-0.1,11.5-2.4,15.7-6.6s6.7-9.7,6.8-15.6c0.1-4.5-1.1-8.8-3.4-12.6c-0.3-0.5-0.9-0.8-1.4-0.8
		c-0.6,0-1.2,0.3-1.5,0.9c-0.3,0.5-0.3,1.2,0,1.7c2,3.3,3,7.1,2.9,11c-0.4,9.6-8.9,18.1-18.4,18.5c-5.4,0.3-10.8-1.8-14.6-5.7
		c-3.9-3.9-5.9-9.2-5.7-14.6c0.5-9.6,8.9-18,18.5-18.4c3.9-0.2,7.7,0.8,11,2.9c0.5,0.3,1.2,0.3,1.7,0s0.9-0.9,0.9-1.5
		s-0.3-1.1-0.8-1.4c-3.8-2.3-8.1-3.5-12.6-3.4c-5.9,0.2-11.4,2.6-15.6,6.8c-4.2,4.2-6.5,9.8-6.6,15.7c-0.1,6.2,2.3,12,6.7,16.3
		c4.3,4.3,10,6.7,16.1,6.7C415.7,506.8,415.8,506.8,415.8,506.8"/>
	<path class="st1" d="M415.6,470.2c-0.8,0-1.4,0.4-1.7,1.2l-8.6,20.6c-0.3,0.6-0.2,1.2,0.1,1.8c0.3,0.6,0.8,0.8,1.5,0.8
		c0.3,0,0.6-0.1,0.9-0.3c0.3-0.2,0.6-0.5,0.7-0.8l2.6-6.3h9l2.5,6.3c0.1,0.3,0.4,0.6,0.7,0.8c0.3,0.2,0.6,0.3,1,0.3
		c0.7,0,1.2-0.3,1.5-0.8s0.4-1.1,0.1-1.7l-8.6-20.6C417,470.6,416.4,470.2,415.6,470.2 M412.3,484.3l3.3-8.2l3.3,8.2H412.3z"/>
	<path class="st1" d="M455.6,474.8c-0.3-0.7-0.8-1.1-1.5-1.1s-1.2,0.4-1.5,1.1l-7.3,17.3c-0.2,0.6-0.2,1.1,0.1,1.6
		c0.3,0.5,0.8,0.8,1.4,0.8c0.3,0,0.6-0.1,0.9-0.2c0.3-0.2,0.5-0.4,0.7-0.8l2.1-5.2h7.4l2.1,5.2c0.1,0.3,0.3,0.6,0.6,0.7
		c0.3,0.2,0.6,0.3,0.9,0.3c0.6,0,1.1-0.2,1.4-0.7s0.3-1,0.1-1.6L455.6,474.8z M451.5,485.6l2.6-6.4l2.6,6.4H451.5z"/>
	<path class="st1" d="M471.8,480L471.8,480c-0.6-0.3-1.3-0.3-2.3-0.1c-0.8,0.2-1.5,0.5-2.1,0.9c-0.1-0.3-0.2-0.6-0.4-0.8
		c-0.3-0.3-0.7-0.4-1.2-0.4s-0.9,0.1-1.2,0.4c-0.3,0.3-0.4,0.7-0.4,1.2V493c0,0.5,0.1,0.9,0.4,1.2c0.3,0.3,0.7,0.4,1.2,0.4
		s0.9-0.1,1.2-0.4c0.3-0.3,0.4-0.7,0.4-1.2v-8.7c0.3-0.5,0.8-0.9,1.4-1.2c0.7-0.3,1.5-0.5,2.5-0.4c0.3,0,0.5,0,0.7-0.1
		s0.4-0.2,0.5-0.4c0.1-0.2,0.2-0.5,0.2-0.8C472.7,480.9,472.6,480.3,471.8,480"/>
	<path class="st1" d="M481.9,491.3H481c-0.5,0-0.8-0.2-1.2-0.6c-0.3-0.4-0.5-0.9-0.5-1.5v-6.5h2c0.4,0,0.8-0.1,1.1-0.4
		c0.3-0.3,0.4-0.6,0.4-1s-0.1-0.8-0.4-1c-0.3-0.3-0.6-0.4-1.1-0.4h-2v-3c0-0.5-0.2-0.8-0.4-1.1c-0.3-0.3-0.7-0.4-1.1-0.4
		c-0.5,0-0.8,0.2-1.1,0.4c-0.3,0.3-0.5,0.7-0.5,1.1v3h-0.8c-0.4,0-0.8,0.1-1.1,0.4c-0.3,0.3-0.4,0.6-0.4,1s0.1,0.7,0.4,1
		s0.6,0.4,1.1,0.4h0.8v6.5c0,1,0.2,1.9,0.6,2.7c0.4,0.8,1,1.4,1.7,1.9s1.6,0.7,2.5,0.7h0.5c0.5,0,1-0.1,1.3-0.4
		c0.4-0.3,0.5-0.7,0.5-1.2s-0.1-0.8-0.4-1.1C482.6,491.5,482.3,491.3,481.9,491.3"/>
	<path class="st1" d="M523,480.5c-1.1-0.7-2.4-1-3.8-1c-1.4,0-2.7,0.3-3.8,1c-1.1,0.7-2,1.6-2.6,2.7c-0.6,1.1-1,2.4-1,3.8v11.8
		c0,0.5,0.2,0.8,0.5,1.2c0.3,0.3,0.7,0.5,1.2,0.5s0.9-0.2,1.2-0.5s0.4-0.7,0.4-1.2v-6.2c0.5,0.5,1.1,0.9,1.8,1.2
		c0.9,0.4,1.9,0.7,2.9,0.7c1.3,0,2.5-0.3,3.5-1s1.9-1.6,2.5-2.7c0.6-1.1,0.9-2.4,0.9-3.8s-0.3-2.7-1-3.8
		C525,482.1,524.1,481.2,523,480.5 M523,489.4c-0.4,0.7-0.9,1.2-1.5,1.6c-0.6,0.4-1.4,0.6-2.2,0.6s-1.5-0.2-2.2-0.6
		c-0.6-0.4-1.2-0.9-1.5-1.6c-0.4-0.7-0.6-1.5-0.6-2.3c0-0.9,0.2-1.7,0.6-2.4c0.4-0.7,0.9-1.2,1.5-1.6c0.6-0.4,1.4-0.6,2.2-0.6
		c0.8,0,1.6,0.2,2.2,0.6c0.6,0.4,1.2,0.9,1.5,1.6c0.4,0.7,0.6,1.5,0.6,2.4C523.5,487.9,523.3,488.7,523,489.4"/>
	<path class="st1" d="M538.5,480.5c-1-0.6-2.2-0.9-3.6-0.9c-1.4,0-2.7,0.3-3.8,1c-1.1,0.6-2,1.5-2.6,2.6c-0.6,1.1-0.9,2.4-0.9,3.9
		c0,1.4,0.3,2.7,1,3.9s1.6,2,2.7,2.6c1.2,0.6,2.5,1,4,1c0.8,0,1.7-0.2,2.6-0.5c0.9-0.3,1.7-0.7,2.3-1.2c0.5-0.4,0.5-0.8,0.5-1.1
		c0-0.4-0.2-0.7-0.6-1.1c-0.3-0.2-0.6-0.4-1-0.3c-0.4,0-0.7,0.1-1,0.4c-0.3,0.2-0.7,0.5-1.3,0.6c-0.5,0.2-1,0.3-1.5,0.3
		c-0.9,0-1.8-0.2-2.5-0.6s-1.3-1-1.7-1.6c-0.2-0.4-0.4-0.8-0.5-1.2h9.5c0.4,0,0.8-0.1,1.1-0.4c0.3-0.3,0.4-0.6,0.4-1
		c0-1.4-0.3-2.7-0.8-3.7C540.3,482,539.5,481.1,538.5,480.5 M530.7,485.6c0.1-0.3,0.2-0.7,0.3-1c0.3-0.7,0.8-1.2,1.5-1.6
		c0.6-0.4,1.4-0.6,2.4-0.6c0.8,0,1.5,0.2,2,0.5c0.6,0.4,1,0.9,1.3,1.5c0.2,0.4,0.3,0.7,0.4,1.2H530.7z"/>
	<path class="st1" d="M554.8,482.7c-0.6-1-1.4-1.8-2.3-2.4c-1-0.5-2.1-0.8-3.3-0.8c-1.2,0-2.3,0.3-3.2,0.8c-0.1,0.1-0.2,0.1-0.3,0.2
		c-0.1-0.1-0.2-0.3-0.3-0.4c-0.3-0.3-0.7-0.5-1.2-0.5s-0.8,0.2-1.2,0.4c-0.3,0.3-0.5,0.7-0.5,1.2v11.6c0,0.5,0.2,0.9,0.5,1.2
		c0.3,0.3,0.7,0.5,1.2,0.5s0.9-0.2,1.2-0.5c0.3-0.3,0.4-0.7,0.4-1.2v-9.2c0.3-0.3,0.6-0.6,1-0.8c0.5-0.3,1.2-0.4,1.8-0.4
		c0.7,0,1.4,0.1,2,0.4c0.6,0.3,1,0.7,1.3,1.3c0.3,0.6,0.5,1.3,0.5,2.3v6.4c0,0.5,0.2,0.9,0.5,1.2c0.3,0.3,0.7,0.5,1.2,0.5
		s0.8-0.2,1.2-0.5c0.3-0.3,0.5-0.7,0.5-1.2v-6.4C555.6,485,555.3,483.8,554.8,482.7"/>
	<path class="st1" d="M508.1,476.4L508.1,476.4c-1-1-2.1-1.7-3.4-2.2s-2.8-0.8-4.3-0.8c-1.6,0-3,0.3-4.3,0.8s-2.5,1.3-3.4,2.2
		c-0.9,1-1.7,2.1-2.2,3.4s-0.8,2.8-0.8,4.3c0,1.6,0.3,3,0.8,4.3s1.3,2.5,2.2,3.4c0.9,1,2.1,1.7,3.4,2.2s2.8,0.8,4.3,0.8
		c1.6,0,3-0.3,4.3-0.8s2.4-1.3,3.4-2.2c1-1,1.7-2.1,2.2-3.4s0.8-2.8,0.8-4.3s-0.3-3-0.8-4.3S509,477.3,508.1,476.4 M500.4,491.6
		c-1.1,0-2-0.2-2.9-0.6s-1.6-0.9-2.3-1.6c-0.6-0.7-1.1-1.5-1.5-2.4s-0.5-1.9-0.5-3s0.2-2.1,0.5-3c0.4-0.9,0.9-1.7,1.5-2.4
		c0.6-0.7,1.4-1.2,2.3-1.6s1.9-0.6,2.9-0.6c1.1,0,2,0.2,2.9,0.6s1.7,0.9,2.3,1.6c0.6,0.7,1.1,1.5,1.5,2.4c0.3,0.9,0.5,1.9,0.5,3
		s-0.2,2.1-0.5,3s-0.9,1.7-1.5,2.4c-0.6,0.7-1.4,1.2-2.3,1.6S501.4,491.6,500.4,491.6"/>
	<path class="st1" d="M604.4,487.9c-0.6-0.6-1.6-0.9-2.8-1.1c-0.6-0.1-1.1-0.2-1.5-0.4c-0.3-0.2-0.6-0.3-0.7-0.5
		c-0.1-0.2-0.2-0.4-0.2-0.6c0-0.5,0.2-0.8,0.5-1c0.4-0.3,1-0.4,1.6-0.4c0.4,0,0.7,0.1,1,0.2s0.5,0.2,0.7,0.4
		c0.2,0.2,0.4,0.3,0.5,0.5c0.1,0.2,0.3,0.3,0.5,0.4s0.4,0.1,0.7-0.1c0.2-0.1,0.4-0.3,0.4-0.5s0-0.4-0.1-0.7
		c-0.2-0.3-0.5-0.6-0.9-0.9c-0.3-0.3-0.8-0.5-1.2-0.7c-0.5-0.2-1-0.3-1.5-0.3c-0.7,0-1.4,0.1-2,0.3c-0.6,0.2-1.1,0.6-1.4,1
		c-0.4,0.5-0.5,1-0.5,1.6c0,0.8,0.4,1.6,1.1,2.1c0.7,0.6,1.6,0.9,2.8,1c0.8,0.1,1.5,0.3,1.8,0.7c0.4,0.3,0.5,0.7,0.5,1.1
		c0,0.3-0.1,0.6-0.3,0.9c-0.2,0.2-0.4,0.4-0.8,0.6c-0.4,0.1-0.8,0.2-1.2,0.2c-0.4,0-0.8-0.1-1.2-0.2c-0.3-0.1-0.6-0.2-0.9-0.4
		c-0.2-0.2-0.4-0.4-0.5-0.6c-0.1-0.2-0.3-0.3-0.4-0.4c-0.2-0.1-0.4-0.1-0.6-0.1c-0.3,0.1-0.5,0.2-0.6,0.4c-0.1,0.2-0.1,0.5,0,0.7
		c0.2,0.4,0.5,0.8,1,1.2c0.4,0.3,0.9,0.6,1.5,0.7c0.6,0.2,1.2,0.3,1.8,0.3c0.5,0,1.1-0.1,1.5-0.2c0.5-0.1,0.9-0.4,1.3-0.6
		c0.4-0.3,0.7-0.6,0.9-1s0.3-0.9,0.3-1.4C605.3,489.2,605,488.5,604.4,487.9"/>
	<path class="st1" d="M616.3,482.4h-7.9c-0.2,0-0.4,0.1-0.6,0.2c-0.2,0.2-0.3,0.4-0.3,0.6s0.1,0.4,0.3,0.6c0.2,0.1,0.4,0.2,0.6,0.2
		h3.1v8.5c0,0.2,0.1,0.4,0.3,0.6s0.4,0.2,0.6,0.2s0.5-0.1,0.6-0.2c0.2-0.2,0.3-0.4,0.3-0.6V484h3.1c0.2,0,0.4-0.1,0.6-0.2
		c0.2-0.2,0.3-0.3,0.3-0.6c0-0.2-0.1-0.4-0.3-0.6C616.7,482.4,616.5,482.4,616.3,482.4"/>
	<path class="st1" d="M629.1,482.4c-0.2,0-0.5,0.1-0.6,0.2c-0.2,0.2-0.3,0.4-0.3,0.6v6.4c0,0.5-0.1,0.8-0.4,1.2
		c-0.2,0.3-0.6,0.6-1,0.8c-0.5,0.2-1,0.3-1.6,0.3c-0.6,0-1.1-0.1-1.6-0.3c-0.4-0.2-0.8-0.5-1-0.8s-0.4-0.7-0.4-1.2v-6.4
		c0-0.2-0.1-0.5-0.3-0.6c-0.3-0.3-0.9-0.3-1.2,0c-0.2,0.2-0.3,0.4-0.3,0.6v6.4c0,0.8,0.2,1.5,0.6,2.1c0.4,0.6,1,1.1,1.7,1.4
		s1.5,0.5,2.5,0.5c0.9,0,1.7-0.2,2.4-0.5c0.7-0.3,1.3-0.8,1.7-1.4s0.6-1.3,0.6-2.1v-6.4c0-0.2-0.1-0.4-0.3-0.6
		C629.6,482.4,629.4,482.4,629.1,482.4"/>
	<path class="st1" d="M642.2,483.9c-0.5-0.5-1.2-0.9-1.9-1.1c-0.7-0.3-1.5-0.4-2.4-0.4h-2.6c-0.2,0-0.5,0.1-0.6,0.2
		c-0.2,0.2-0.3,0.4-0.3,0.6v9.3c0,0.2,0.1,0.5,0.3,0.6c0.2,0.2,0.4,0.2,0.6,0.2h2.6c0.9,0,1.7-0.1,2.4-0.4s1.4-0.6,1.9-1.1
		s0.9-1.1,1.2-1.7c0.3-0.7,0.4-1.4,0.4-2.2c0-0.8-0.1-1.5-0.4-2.2C643.2,485,642.7,484.4,642.2,483.9 M642.1,487.8
		c0,0.8-0.2,1.4-0.5,2s-0.8,1-1.5,1.4c-0.6,0.3-1.4,0.5-2.2,0.5h-1.7v-7.8h1.7c0.8,0,1.6,0.2,2.2,0.5c0.6,0.3,1.1,0.8,1.5,1.4
		C641.9,486.4,642.1,487.1,642.1,487.8"/>
	<path class="st1" d="M648.1,482.6c-0.2,0.2-0.3,0.4-0.3,0.6v9.3c0,0.2,0.1,0.5,0.3,0.6c0.2,0.2,0.4,0.2,0.6,0.2s0.5-0.1,0.6-0.2
		c0.2-0.2,0.3-0.4,0.3-0.6v-9.3c0-0.2-0.1-0.5-0.3-0.6C649,482.3,648.4,482.3,648.1,482.6"/>
	<path class="st1" d="M663.9,483.8c-0.5-0.5-1.2-0.9-1.9-1.2c-0.7-0.3-1.5-0.4-2.4-0.4c-0.9,0-1.7,0.1-2.4,0.4
		c-0.7,0.3-1.4,0.7-1.9,1.2s-1,1.1-1.3,1.8c-0.3,0.7-0.5,1.4-0.5,2.2c0,0.8,0.2,1.6,0.5,2.2c0.3,0.7,0.7,1.3,1.3,1.8
		c0.5,0.5,1.2,0.9,1.9,1.2c0.7,0.3,1.5,0.4,2.4,0.4c0.9,0,1.7-0.1,2.4-0.4s1.4-0.7,1.9-1.2s1-1.1,1.3-1.8c0.3-0.7,0.5-1.4,0.5-2.2
		c0-0.8-0.2-1.5-0.5-2.2S664.5,484.3,663.9,483.8 M663.9,487.8c0,0.6-0.1,1.1-0.3,1.6s-0.5,0.9-0.9,1.3c-0.4,0.4-0.8,0.6-1.4,0.8
		c-1.1,0.4-2.4,0.4-3.5,0c-0.5-0.2-1-0.5-1.4-0.8c-0.4-0.4-0.7-0.8-0.9-1.3s-0.3-1-0.3-1.6s0.1-1.1,0.3-1.6c0.2-0.5,0.5-0.9,0.9-1.3
		c0.4-0.4,0.8-0.6,1.4-0.8c0.5-0.2,1.1-0.3,1.7-0.3c0.6,0,1.2,0.1,1.7,0.3c0.5,0.2,1,0.5,1.4,0.8c0.4,0.4,0.7,0.8,0.9,1.3
		C663.8,486.7,663.9,487.3,663.9,487.8"/>
	<path class="st1" d="M681.6,488.9C681.6,488.9,681.7,488.9,681.6,488.9c0.7-0.3,1.2-0.7,1.5-1.3c0.3-0.5,0.5-1.1,0.5-1.8
		c0-0.7-0.2-1.3-0.5-1.8s-0.8-0.9-1.4-1.2c-0.6-0.3-1.3-0.4-2-0.4H677c-0.2,0-0.5,0.1-0.6,0.2c-0.2,0.2-0.3,0.4-0.3,0.6v9.3
		c0,0.2,0.1,0.5,0.3,0.6c0.3,0.3,0.9,0.3,1.2,0c0.2-0.2,0.3-0.4,0.3-0.6v-3.2h1.8h0.1l2.5,3.6c0.1,0.1,0.2,0.2,0.3,0.3
		c0.1,0.1,0.3,0.1,0.5,0.1c0.5,0,0.7-0.2,0.8-0.4c0.1-0.2,0.2-0.5-0.1-0.9L681.6,488.9z M677.9,487.6V484h1.8c0.4,0,0.8,0.1,1.2,0.2
		c0.3,0.2,0.6,0.4,0.8,0.7c0.2,0.3,0.3,0.6,0.3,1c0,0.3-0.1,0.6-0.3,0.9s-0.4,0.5-0.8,0.6c-0.3,0.2-0.7,0.2-1.2,0.2L677.9,487.6
		L677.9,487.6z"/>
	<path class="st1" d="M694.9,484c0.2,0,0.4-0.1,0.6-0.2c0.2-0.2,0.3-0.4,0.3-0.6s-0.1-0.5-0.3-0.6s-0.4-0.2-0.6-0.2h-6.7
		c-0.2,0-0.5,0.1-0.6,0.2c-0.2,0.2-0.3,0.4-0.3,0.6v9.3c0,0.2,0.1,0.5,0.3,0.6c0.2,0.2,0.4,0.2,0.6,0.2h6.7c0.2,0,0.4-0.1,0.6-0.2
		c0.2-0.2,0.3-0.4,0.3-0.6s-0.1-0.4-0.3-0.6c-0.2-0.1-0.4-0.2-0.6-0.2h-5.8v-3h4.2c0.2,0,0.5-0.1,0.6-0.2c0.2-0.2,0.3-0.4,0.3-0.6
		s-0.1-0.4-0.3-0.6s-0.4-0.2-0.6-0.2h-4.2v-3L694.9,484L694.9,484z"/>
	<path class="st1" d="M707.5,483.2c0-0.2-0.1-0.4-0.2-0.6c-0.1-0.1-0.3-0.3-0.6-0.3c-0.1,0-0.2,0-0.3,0.1c-0.1,0-0.2,0.1-0.3,0.2
		l-4.7,4.3v-3.7c0-0.2-0.1-0.4-0.3-0.6c-0.3-0.3-0.9-0.3-1.2,0c-0.2,0.2-0.3,0.4-0.3,0.6v9.3c0,0.2,0.1,0.4,0.3,0.6
		c0.3,0.3,0.9,0.3,1.2,0c0.2-0.2,0.3-0.4,0.3-0.6v-3.2l0.9-0.8l3.7,4.6c0.1,0.2,0.3,0.4,0.7,0.4c0.2,0,0.4-0.1,0.6-0.2
		c0.2-0.1,0.2-0.3,0.3-0.5c0-0.2,0-0.4-0.2-0.6l-3.8-4.7l3.7-3.4C707.4,483.6,707.5,483.4,707.5,483.2"/>
	<path class="st1" d="M718.3,491.7H713v-8.5c0-0.2-0.1-0.4-0.3-0.6c-0.3-0.3-0.9-0.3-1.2,0c-0.2,0.2-0.3,0.4-0.3,0.6v9.3
		c0,0.2,0.1,0.5,0.3,0.6c0.2,0.2,0.4,0.2,0.6,0.2h6.2c0.2,0,0.4-0.1,0.6-0.2c0.2-0.2,0.3-0.4,0.3-0.6s-0.1-0.4-0.3-0.6
		C718.7,491.7,718.5,491.7,718.3,491.7"/>
	<path class="st1" d="M727.4,482.9c-0.2-0.4-0.5-0.6-0.8-0.6c-0.4,0-0.7,0.2-0.8,0.5l-4.2,9.2c-0.1,0.3-0.1,0.5,0,0.8
		c0.2,0.3,0.4,0.4,0.8,0.4c0.2,0,0.3,0,0.5-0.1s0.3-0.2,0.3-0.4l0.9-1.9h5.1l0.9,2c0.1,0.2,0.2,0.3,0.3,0.4s0.3,0.1,0.5,0.1
		c0.3,0,0.6-0.1,0.7-0.4c0.2-0.3,0.2-0.6,0.1-0.8L727.4,482.9z M728.4,489.3h-3.7l1.9-4.1L728.4,489.3z"/>
	<path class="st1" d="M745.9,482.4c-0.3,0-0.6,0.1-0.8,0.4l-4.2,7.8l-4.3-7.8c-0.1-0.2-0.3-0.4-0.8-0.4c-0.2,0-0.4,0.1-0.6,0.2
		c-0.2,0.2-0.3,0.4-0.3,0.6v9.3c0,0.2,0.1,0.4,0.3,0.6c0.3,0.3,0.9,0.3,1.2,0c0.2-0.2,0.3-0.4,0.3-0.6v-6l3.3,6.1
		c0.2,0.3,0.4,0.5,0.8,0.5c0.4,0,0.7-0.2,0.8-0.4l3.4-6.3v6.1c0,0.2,0.1,0.4,0.3,0.6s0.4,0.2,0.6,0.2c0.2,0,0.5-0.1,0.6-0.2
		c0.2-0.2,0.3-0.4,0.3-0.6v-9.3c0-0.2-0.1-0.5-0.3-0.6C746.4,482.4,746.2,482.4,745.9,482.4"/>
	<path class="st1" d="M759.8,483.1c0-0.2-0.1-0.4-0.3-0.5c-0.3-0.2-0.7-0.3-1-0.1c-0.1,0.1-0.2,0.2-0.3,0.3l-3.3,4.9l-3.3-4.9
		c-0.1-0.1-0.2-0.2-0.3-0.3c-0.3-0.2-0.7-0.2-1,0.1c-0.2,0.1-0.3,0.3-0.3,0.5c0,0.1,0,0.4,0.2,0.6l3.8,5.6v3.2
		c0,0.2,0.1,0.4,0.3,0.6s0.4,0.2,0.6,0.2s0.4-0.1,0.6-0.2c0.2-0.2,0.3-0.4,0.3-0.6v-3.2l3.9-5.6
		C759.7,483.5,759.8,483.3,759.8,483.1"/>
</g>
</svg>
