<?xml version="1.0" encoding="utf-8"?>
<!-- Generator: Adobe Illustrator 19.0.0, SVG Export Plug-In . SVG Version: 6.00 Build 0)  -->
<svg version="1.1" id="Warstwa_1" xmlns="http://www.w3.org/2000/svg" xmlns:xlink="http://www.w3.org/1999/xlink" x="0px" y="0px"
	 viewBox="5047 -2306 10125 4644" style="enable-background:new 5047 -2306 10125 4644;" xml:space="preserve">
<style type="text/css">
	.st0{fill:#242D26;}
	.st1{fill:#0E1A17;}
	.st2{fill:#A4DCD7;}
	.st3{fill:#73C47D;}
	.st4{fill:#A8FFCD;}
	.st5{fill:#2C8968;}
	.st6{fill:#333333;}
	.st7{fill:#E1F1EE;stroke:#333333;stroke-width:5;stroke-miterlimit:10;}
	.st8{fill:none;stroke:#333333;stroke-width:5;stroke-miterlimit:10;}
	.st9{fill:#F6D6D9;}
	.st10{fill:#E1F1EE;stroke:#333333;stroke-width:6.001;stroke-miterlimit:10;}
	.st11{fill:none;stroke:#333333;stroke-width:6;stroke-miterlimit:10;}
	.st12{fill:#CCCBA2;}
	.st13{fill:none;stroke:#333333;stroke-width:10;stroke-miterlimit:10;}
	.st14{fill:#E1F1EE;stroke:#333333;stroke-width:5.2558;stroke-miterlimit:10;}
	.st15{fill:#E1F1EE;stroke:#333333;stroke-width:5.3582;stroke-miterlimit:10;}
	.st16{fill:#A8FFCD;stroke:#333333;stroke-width:6;stroke-miterlimit:10;}
	.st17{fill:#F6D6D9;stroke:#333333;stroke-width:5;stroke-miterlimit:10;}
	.st18{fill:#00D1B2;}
	.st19{fill:none;stroke:#333333;stroke-width:5.3582;stroke-miterlimit:10;}
	.st20{fill:#DED6A2;}
	.st21{fill:none;stroke:#333333;stroke-width:15;stroke-miterlimit:10;}
	.st22{fill:none;stroke:#FFFFFF;stroke-width:6;stroke-miterlimit:10;}
	.st23{fill:#008D7F;}
	.st24{fill:#16211F;}
	.st25{opacity:0.5;fill:#0E1A17;enable-background:new    ;}
	.st26{opacity:0.2;fill:#7B8369;enable-background:new    ;}
	.st27{fill:#C5C5BF;stroke:#333333;stroke-width:5;stroke-miterlimit:10;}
</style>
<path id="XMLID_245_" class="st0" d="M5356,530.8c0,0,9811-7.1,9811,19.9v628.7c-900.7,571.2-4351,478.2-5781,269.4
	C7788.4,1215.5,8455.1,530.8,5356,530.8z"/>
<path class="st1" d="M8912.2,683.3c0,0-212.3,16.2-116.4,51c95.9,34.8,624.3,167.2,869.1,3.6s-64.8-97.9-64.8-97.9L8912.2,683.3z"/>
<path id="XMLID_81_" class="st2" d="M7005,531.8c614.8,0,2448,0,2448,0S9208,180,8787,180s-504,215.9-504,215.9
	s-108.5-549.1-567-549.1s-621,468-621,468s-179.4-207.6-387,0c0,0-264.9-72.8-459,126.2C6166.7,525.4,6814.7,531.8,7005,531.8z"/>
<circle id="XMLID_77_" class="st3" cx="8353" cy="-989.2" r="216"/>
<g id="XMLID_34_">
	<path id="XMLID_553_" class="st4" d="M7165.4-101.1c0-39.4,31.4-70.7,71-70.6c39.8,0,71.1,31.5,71,71.6c-0.1,39.2-32,71.1-71.1,71
		C7196.8-29.2,7165.4-61,7165.4-101.1z"/>
	<path id="XMLID_552_" class="st4" d="M7165.4-573.7c0.1-39.3,32.1-71.2,71.3-70.9c39.8,0.3,70.8,32.1,70.7,72.4
		c-0.1,38.8-31.7,70.1-70.9,70.2C7196.6-501.9,7165.4-533.4,7165.4-573.7z"/>
	<path id="XMLID_551_" class="st4" d="M8252.3-100.6c0,39.6-31,71-70.5,71.4c-39.2,0.4-71.5-31.9-71.5-71.5
		c0-39.8,31.7-71.3,71.6-71.1C8221.4-171.6,8252.3-140.3,8252.3-100.6z"/>
	<path id="XMLID_550_" class="st4" d="M6291.3-171.7c39.5,0,71.3,31.4,71.4,70.7c0.1,39.8-32.1,72.2-71.4,71.9
		c-39.5-0.3-70.6-31.8-70.6-71.5C6220.6-140.5,6251.6-171.7,6291.3-171.7z"/>
	<path id="XMLID_549_" class="st4" d="M8252.3-572.6c-0.1,39.6-31.6,70.9-71.2,70.7c-39.5-0.2-70.9-31.7-70.9-71.2
		c0-39.4,31.6-71.2,70.9-71.4C8220.8-644.8,8252.4-612.8,8252.3-572.6z"/>
	<path id="XMLID_547_" class="st4" d="M8725.2-573.1c0,39.6-31.3,71.1-70.9,71.1c-39.6,0.1-71.1-31.2-71.1-70.8
		c-0.1-40,31.8-72.1,71.3-71.8C8693.8-644.3,8725.1-612.6,8725.2-573.1z"/>
	<path id="XMLID_545_" class="st4" d="M8016.1-572c-0.7,39.5-32.6,70.7-71.9,70.1c-39.8-0.6-71.2-33-70.4-72.7
		c0.8-38.7,33.1-70.3,71.6-69.9C7985-644.2,8016.8-611.6,8016.1-572z"/>
	<path id="XMLID_544_" class="st4" d="M7543.9-572.2c-0.6,39.5-32.5,70.7-71.8,70.2c-39.8-0.5-71.2-32.9-70.5-72.5
		c0.7-38.7,33-70.3,71.5-70.1C7512.6-644.3,7544.5-611.7,7543.9-572.2z"/>
	<path id="XMLID_543_" class="st4" d="M7354.8-525.9c39.5,0,70.8,31.3,70.8,70.9c0,39.7-31.1,71.1-70.6,71.1
		c-39.9,0.1-71.7-31.7-71.4-71.4C7283.8-494.7,7315.3-525.9,7354.8-525.9z"/>
	<path id="XMLID_542_" class="st4" d="M7826.8-383.9c-39.4,0-70.9-31.6-71-70.9c-0.1-39.7,31.7-71.2,71.7-71.1
		c39.4,0.1,70.4,31.6,70.3,71.4C7897.7-415,7866.4-383.8,7826.8-383.9z"/>
	<path id="XMLID_541_" class="st4" d="M7543.9-100.2c-0.2,39.2-32.3,71.3-71.2,71.1c-39.1-0.2-71.1-32.3-71.1-71.3
		c0-39.7,32-71.5,71.8-71.2C7512.8-171.4,7544.1-139.8,7543.9-100.2z"/>
	<path id="XMLID_540_" class="st4" d="M8016.2-100.6c0,39.2-31.7,71.2-70.9,71.4c-38.8,0.2-71.2-32-71.4-71
		c-0.2-39.7,31.7-71.7,71.5-71.6C7984.7-171.6,8016.1-140.1,8016.2-100.6z"/>
	<path id="XMLID_538_" class="st4" d="M6929-573c-0.1-39.2,31.5-71.2,70.8-71.5c38.8-0.3,71.2,31.9,71.5,70.9
		c0.3,39.5-31.8,71.8-71.4,71.7C6960.4-502.1,6929.1-533.4,6929-573z"/>
	<path id="XMLID_537_" class="st4" d="M6456.8-100.8c0.2-39.6,31.6-70.9,71.1-70.9c39.7,0,71.6,32.2,71.2,71.8
		c-0.4,39.1-33.1,71.3-71.7,70.8C6488-29.7,6456.6-61.6,6456.8-100.8z"/>
	<path id="XMLID_536_" class="st4" d="M6929-100.6c0.1-39.6,31.4-71,70.9-71.1c39.7-0.1,71.7,32,71.4,71.6
		c-0.3,39.1-32.8,71.3-71.5,71C6960.6-29.5,6928.9-61.4,6929-100.6z"/>
	<path id="XMLID_535_" class="st4" d="M7165.4-336.5c0-40,31.6-71.6,71.4-71.3c39.5,0.2,70.7,31.6,70.6,71.3
		c0,39.6-31.3,70.8-71,70.8C7196.8-265.8,7165.5-297,7165.4-336.5z"/>
	<path id="XMLID_534_" class="st4" d="M8489-100.4c-0.1,39.1-32.2,71.3-71.2,71.3c-38.9,0-71.2-32.2-71.4-71.2
		c-0.2-39.5,32-71.6,71.7-71.4C8457.5-171.6,8489.1-139.7,8489-100.4z"/>
	<path id="XMLID_533_" class="st4" d="M8489-572.2c-1.2,40.3-33.2,71.3-72.8,70.2c-39.3-1-71.1-34.1-69.7-72.6
		c1.4-39.5,34.3-71.2,72.5-70C8458.5-643.3,8490.1-610.6,8489-572.2z"/>
	<path id="XMLID_532_" class="st4" d="M8819.3-571.3c-1.9-38.2,29.1-71,69.1-73.3c38.1-2.1,71.8,30,73.4,70
		c1.6,37.8-29.8,70.9-68.8,72.6C8853.6-500.3,8821.4-530.6,8819.3-571.3z"/>
	<path id="XMLID_531_" class="st4" d="M8252.3-336.5c-0.1,39.7-31.1,70.7-70.9,70.7c-39.9,0-71.2-31.5-71.1-71.7
		c0.1-39.1,32.3-70.7,71.6-70.4C8221.5-407.6,8252.4-376.3,8252.3-336.5z"/>
	<path id="XMLID_528_" class="st4" d="M7354.3-147.8c-39.3-0.1-71-32.1-70.8-71.4c0.3-39.4,32-70.8,71.5-70.7s70.6,31.6,70.5,71.4
		C7425.4-178.8,7394-147.6,7354.3-147.8z"/>
	<path id="XMLID_527_" class="st4" d="M7897.8-218.8c0,39.7-31.3,71-70.9,71c-39.5,0-71.1-31.6-71.1-71c0-39.3,31.7-71,71.1-71
		C7866.5-289.8,7897.8-258.5,7897.8-218.8z"/>
	<path id="XMLID_525_" class="st4" d="M6646.5-525.9c39.2,0.1,71,32.2,70.7,71.3c-0.3,39.8-32,70.9-72.1,70.7
		c-38.6-0.2-70.2-32-70.4-70.9C6574.4-494.1,6606.6-526,6646.5-525.9z"/>
	<path id="XMLID_524_" class="st4" d="M7117.7-383.9c-39.1-0.1-71.2-32.4-70.9-71.3c0.3-39.7,32.3-71,72.3-70.8
		c38.7,0.2,70.1,31.8,70.2,70.8C7189.6-415.5,7157.6-383.8,7117.7-383.9z"/>
	<path id="XMLID_523_" class="st4" d="M8228.6,17.2c0.2-39.3,32-71,71.2-70.9c39.6,0.1,71,32.1,70.8,72.1
		c-0.2,39.1-32.2,70.5-71.7,70.2C8259.5,88.3,8228.4,56.8,8228.6,17.2z"/>
	<path id="XMLID_522_" class="st4" d="M5937.1,324.8c-39.3,0-71.1-31.6-71.2-70.8s31.5-71.3,70.6-71.6c39.6-0.3,71.4,31.5,71.4,71.4
		C6007.9,293.3,5976.5,324.8,5937.1,324.8z"/>
	<path id="XMLID_520_" class="st4" d="M7779.7-100.7c0,39.5-31.1,71.2-70.4,71.6c-39.2,0.4-71.3-32-71.3-71.7
		c0-39.3,31.6-70.9,71-70.9C7748.3-171.7,7779.7-140.2,7779.7-100.7z"/>
	<path id="XMLID_519_" class="st4" d="M6291.6,65c39.7,0,71.1,31.2,71.1,70.6c0,39.2-31.5,70.9-70.8,71.4s-71.2-31.6-71.2-71.6
		C6220.6,95.6,6251.5,65,6291.6,65z"/>
	<path id="XMLID_518_" class="st4" d="M8252.3,136.1c-0.1,39.4-32,71.2-71.1,70.9c-39.8-0.3-71.1-32.1-71-72.1
		c0.1-39.2,31.7-70,71.7-69.9C8221.7,65.1,8252.4,96.1,8252.3,136.1z"/>
	<path id="XMLID_516_" class="st4" d="M6693.2-101c0-39.4,31.6-70.8,71-70.7c39.3,0.1,70.8,31.8,70.7,71.2
		c0,39.2-31.7,71.2-70.8,71.4C6724.8-28.9,6693.2-61,6693.2-101z"/>
	<path id="XMLID_515_" class="st4" d="M7992,253.3c0.3-39.2,32.3-70.9,71.4-70.8c39,0.1,71.1,32.3,71.1,71.2
		c0,39.4-32.4,71.5-72,71.1C8023.2,324.4,7991.7,292.5,7992,253.3z"/>
	<path id="XMLID_514_" class="st4" d="M6645.6,324.8c-39.2-0.2-71-32-71-71.2c-0.1-38.7,32.4-71.1,71.3-71.1
		c39.4,0,71.8,32.6,71.3,71.8C6716.6,293.8,6685,325,6645.6,324.8z"/>
	<path id="XMLID_513_" class="st4" d="M7117.9,324.8c-39.2-0.1-70.9-31.9-71.1-71.1c-0.1-38.7,32.3-71.1,71.2-71.2
		c39.4-0.1,71.8,32.5,71.3,71.7C7188.9,293.7,7157.3,324.9,7117.9,324.8z"/>
	<path id="XMLID_512_" class="st4" d="M7354.3,324.8c-39.4-0.3-70.9-32-70.8-71.2c0.2-39.6,32.6-71.7,71.9-71.1
		c39.8,0.6,70.5,32.4,70.1,72.7C7425.2,294,7393.4,325.1,7354.3,324.8z"/>
	<path id="XMLID_511_" class="st4" d="M8016.2-336.8c0,39.5-31.2,70.8-70.9,71c-39.3,0.2-71.3-31.3-71.4-70.5
		c-0.2-39.6,31.8-71.6,71.4-71.5C7984.6-407.7,8016.2-376.1,8016.2-336.8z"/>
	<path id="XMLID_510_" class="st4" d="M7543.9-336.9c0.1,39.5-31,70.8-70.7,71.1c-39.3,0.3-71.4-31.2-71.6-70.4
		c-0.2-39.7,31.7-71.7,71.3-71.6C7512.2-407.8,7543.8-376.3,7543.9-336.9z"/>
	<path id="XMLID_509_" class="st4" d="M8464.8-454.8c-0.1-39.4,31.5-71.1,70.8-71.1c39.9,0,71.7,31.7,71.5,71.4
		c-0.2,39.3-31.9,70.7-71.3,70.7C8496.4-383.9,8464.9-415.4,8464.8-454.8z"/>
	<path id="XMLID_507_" class="st4" d="M7519.7,253.5c0-39,32.1-71,71.2-71c39,0,71.1,32,71.3,71c0.2,39.4-32.2,71.6-71.8,71.3
		C7551.2,324.5,7519.7,292.9,7519.7,253.5z"/>
	<path id="XMLID_506_" class="st4" d="M7826.8,324.8c-39.4-0.2-71-31.7-71-71c0-39.5,32.4-71.8,71.7-71.3
		c39.4,0.4,70.4,32,70.3,71.6C7897.7,293.6,7866.2,324.9,7826.8,324.8z"/>
	<path id="XMLID_504_" class="st4" d="M6244.3,18c-0.2,39.4-31.8,70.7-71.2,70.7c-39.2-0.1-71.2-31.9-71.1-71
		c0.1-39.5,32.5-71.7,71.8-71.3C6213-53.2,6244.5-21.3,6244.3,18z"/>
	<path id="XMLID_503_" class="st4" d="M7354.8,88.7c-39.4,0.1-70.9-31.2-71.2-70.7c-0.3-39.4,32.1-71.8,71.4-71.6
		s70.6,31.8,70.6,71.3C7425.5,57.3,7394.3,88.6,7354.8,88.7z"/>
	<path id="XMLID_502_" class="st4" d="M7519.8,16.7c1.3-40.2,33.6-71.4,72.8-70.3c39.2,1.1,71,34.3,69.7,72.6
		c-1.4,40.4-34.2,71.1-74.3,69.6C7549.6,87.2,7518.6,54.5,7519.8,16.7z"/>
	<path id="XMLID_501_" class="st4" d="M7827.3,88.7c-39.4,0.2-71-30.9-71.5-70.5c-0.5-39.3,31.8-71.9,71.2-71.9
		c39.3,0,70.8,31.7,70.8,71.1C7897.8,57.2,7866.8,88.5,7827.3,88.7z"/>
	<path id="XMLID_500_" class="st4" d="M7992,16.7c1.2-40.2,33.6-71.4,72.8-70.3c39.2,1.1,71,34.3,69.7,72.6
		c-1.4,40.4-34.2,71.1-74.3,69.6C8021.9,87.2,7990.8,54.5,7992,16.7z"/>
	<path id="XMLID_497_" class="st4" d="M6244.3,253.6c0.1,39.4-31.3,70.9-70.7,71.2c-39.5,0.2-71.7-31.8-71.6-71.4
		c0.1-39,32.3-71,71.4-70.9C6212.6,182.6,6244.2,214.3,6244.3,253.6z"/>
	<path id="XMLID_496_" class="st4" d="M7237,65c39.6,0.1,70.6,31.3,70.5,71c-0.1,39.2-32.1,71.1-71.2,70.9
		c-39.8-0.2-70.9-31.9-70.9-72.1C7165.5,95.5,7196.8,64.9,7237,65z"/>
	<path id="XMLID_495_" class="st4" d="M7519.7-454.9c0-39.3,31.7-71,71-71c39.8,0,72,32.1,71.6,71.5s-32.1,70.6-71.5,70.6
		C7551.4-383.9,7519.8-415.6,7519.7-454.9z"/>
	<path id="XMLID_494_" class="st4" d="M6929-336.6c0-39.9,31.8-71.5,71.5-71.3c39.2,0.3,71,32.2,70.8,71.3
		c-0.2,39.3-31.9,70.8-71.2,70.8C6960.5-265.9,6929-297.2,6929-336.6z"/>
	<path id="XMLID_493_" class="st4" d="M7779.7-573.1c0,39.5-31.3,71-70.7,71.1c-39.3,0.1-71-31.6-71.1-70.8
		c0-39.8,32-72.1,71.2-71.8C7748.5-644.2,7779.7-612.5,7779.7-573.1z"/>
	<path id="XMLID_492_" class="st4" d="M7992.1-456.1c1.4-41.1,33.3-71,74.8-69.8c37.4,1.1,69.2,35.2,67.7,72.7
		c-1.7,40.9-34.1,70.7-75.4,69.4C8021.9-385.1,7990.8-418.6,7992.1-456.1z"/>
	<path id="XMLID_491_" class="st4" d="M6456.8-337c0.3-39.6,31.6-70.8,71.1-70.8s71.7,32.4,71.2,71.7s-32.4,70.7-71.7,70.3
		C6487.7-266.2,6456.5-297.6,6456.8-337z"/>
	<path id="XMLID_490_" class="st4" d="M8725.2-336.9c0,39.7-30.9,70.8-70.7,71.1c-40,0.2-71.4-31.1-71.3-71.3
		c0.1-39.4,31.6-70.8,71.1-70.7C8693.7-407.8,8725.1-376.3,8725.2-336.9z"/>
	<path id="XMLID_489_" class="st4" d="M7118.1-147.8c-39.2,0-71.1-31.8-71.2-70.9c-0.1-38.9,32-71,71.1-71.1
		c39.7-0.1,71.9,32,71.5,71.4C7189-179,7157.5-147.7,7118.1-147.8z"/>
	<path id="XMLID_488_" class="st4" d="M6646.2,88.7c-39.3,0.1-71.3-31.4-71.6-70.6c-0.4-39.1,32.3-71.9,71.5-71.7
		c39.1,0.1,71,32.1,71,71.2C6717.1,56.8,6685.5,88.6,6646.2,88.7z"/>
	<path id="XMLID_487_" class="st4" d="M7118.6,88.7c-39.3,0.2-71.2-31.2-71.8-70.5c-0.5-39,32.2-71.9,71.4-71.8
		c39.1,0,71,32,71.1,71.1C7189.5,56.7,7157.9,88.5,7118.6,88.7z"/>
	<path id="XMLID_486_" class="st4" d="M6645.5-147.8c-39.1-0.1-71.2-32.3-71-71.2c0.2-39.1,32.2-70.9,71.3-70.9
		c39.3,0,71,31.4,71.2,70.8C6717.4-179.5,6685.4-147.7,6645.5-147.8z"/>
	<path id="XMLID_485_" class="st4" d="M6693.2-573.5c0-39.4,32.1-71.4,71.1-71.1c39.2,0.4,70.6,32.3,70.6,71.8
		c0,39.3-32.1,71.1-71.3,70.8C6724-502.2,6693.1-533.6,6693.2-573.5z"/>
	<path id="XMLID_484_" class="st4" d="M6952.7,18.2c-0.1,39.5-31.6,70.7-71.1,70.4c-39.4-0.2-71-32-70.9-71.2
		c0.1-39,32.1-71,71.2-71.1C6921.4-53.8,6952.8-22,6952.7,18.2z"/>
	<path id="XMLID_483_" class="st4" d="M6480.4,18.4c-0.1,39-31.3,70.2-70.4,70.2c-39.7,0.1-71.8-31.9-71.6-71.4
		c0.2-39,32.3-70.9,71.4-70.9C6449.3-53.6,6480.5-21.8,6480.4,18.4z"/>
	<path id="XMLID_481_" class="st4" d="M8843.2-454.4c-0.1,39.4-31.6,70.6-71.2,70.5c-39.3-0.1-70.9-31.8-70.8-71.1
		c0-39.7,31.8-71,71.9-70.9C8812.3-525.8,8843.3-494.2,8843.2-454.4z"/>
	<path id="XMLID_480_" class="st4" d="M8488.7-333.8c-2.9,40.9-35.5,70.6-74.7,67.8c-39.5-2.8-70.2-36.2-67.5-73.5
		c3-41.1,36.2-71.1,75.4-68.3C8461.4-404.9,8491.4-371.7,8488.7-333.8z"/>
	<path id="XMLID_479_" class="st4" d="M8228.6-455.2c0.1-39.8,31.7-70.9,71.9-70.8c39.1,0.2,70.3,32,70.1,71.7
		c-0.1,39.2-31.8,70.4-71.5,70.3C8259.9-384,8228.5-415.6,8228.6-455.2z"/>
	<path id="XMLID_477_" class="st4" d="M6952.7,254c0,39.6-31.3,70.9-70.8,70.8c-39.3-0.1-71.1-31.7-71.2-70.9
		c-0.1-38.9,31.9-71.2,70.9-71.4C6921.2,182.3,6952.7,214,6952.7,254z"/>
	<path id="XMLID_476_" class="st4" d="M6480.4,253.7c0,39.8-31,71-70.5,71.1c-39.6,0.1-71.9-32.1-71.5-71.5
		c0.3-39.1,32.5-71,71.5-70.8C6449.3,182.7,6480.4,214.1,6480.4,253.7z"/>
	<path id="XMLID_475_" class="st4" d="M8536-147.8c-39.5,0-71.1-31.5-71.2-70.9c-0.1-39.3,31.6-71.1,71-71.1s71.3,31.7,71.3,70.9
		C8607.1-179.5,8575.4-147.8,8536-147.8z"/>
	<path id="XMLID_474_" class="st4" d="M6952.7-454.4c-0.1,39.6-31.3,70.6-71,70.5c-39.2-0.1-71-31.9-71-71.1c0-39.6,32-71.1,72-71
		C6921.9-525.8,6952.8-494.3,6952.7-454.4z"/>
	<path id="XMLID_470_" class="st4" d="M7992.1-217.5c-1.3-37.7,29.7-70.8,67.9-72.3c40.1-1.6,72.9,28.9,74.6,69.3
		c1.6,37.5-30.1,71.5-67.6,72.7C8025.7-146.4,7993.5-176.4,7992.1-217.5z"/>
	<path id="XMLID_469_" class="st4" d="M7519.9-220.8c2.1-40.8,34.4-70.8,74.6-69c38.5,1.7,70,35.9,67.7,73.5
		c-2.5,41.1-35.2,70.6-76.2,68.5C7548.7-149.7,7518-183.6,7519.9-220.8z"/>
	<path id="XMLID_468_" class="st4" d="M8228.6-218.8c0-39.5,31.5-71,71.1-71c39.4,0,71,31.6,70.9,71.1c0,39.5-31.6,71-71.1,70.9
		C8260.1-147.8,8228.6-179.3,8228.6-218.8z"/>
	<path id="XMLID_467_" class="st4" d="M7543.9,135.8c-0.2,39.4-32.2,71.3-71.2,71.1c-39.1-0.2-71.1-32.3-71.1-71.4
		c0-39.9,32.1-70.9,73.1-70.6C7513,65.3,7544.1,97.2,7543.9,135.8z"/>
	<path id="XMLID_466_" class="st4" d="M7945.5,65c39.3,0.1,70.5,31.1,70.7,70.2c0.2,39.7-32.4,72.3-71.5,71.7
		c-39.4-0.6-71-32.6-70.8-71.7C7874.1,96,7905.7,64.9,7945.5,65z"/>
	<path id="XMLID_464_" class="st4" d="M6055.4,65c39.1,0,70.6,31.1,71.1,70.1s-32.6,72.2-71.7,71.9c-39.2-0.3-71.2-32.7-70.9-71.5
		C5984.2,95.8,6015.5,65,6055.4,65z"/>
	<path id="XMLID_463_" class="st4" d="M6456.8,136c-0.2-39.2,30.9-70.8,69.8-71c40.4-0.2,72.4,30.9,72.5,70.4
		c0.1,39.1-31.6,71.1-70.9,71.6C6489.4,207.5,6456.9,175.3,6456.8,136z"/>
	<path id="XMLID_462_" class="st4" d="M6929,135.6c0-39.6,31.3-70.6,71.1-70.6c39.6,0,71.4,31.6,71.2,70.8
		C7071.1,175,7039,207,7000,207C6960.9,206.9,6929,174.9,6929,135.6z"/>
	<path id="XMLID_461_" class="st4" d="M6480.4-218.8c0,39.8-31.1,71.1-70.7,71.1c-39.4,0-71.3-31.7-71.3-70.9
		c-0.1-39.1,31.9-71,71.2-71.1C6449.2-289.9,6480.4-258.6,6480.4-218.8z"/>
	<path id="XMLID_460_" class="st4" d="M6952.7-218.3c-0.1,39.6-31.4,70.7-71.2,70.6c-39.2-0.1-71.2-32.3-70.8-71.4
		c0.3-39.2,32.3-70.7,71.7-70.6C6921.9-289.6,6952.7-258.3,6952.7-218.3z"/>
	<path id="XMLID_459_" class="st4" d="M7779.7-336.9c0,39.7-31.1,70.9-70.7,71c-39.4,0.1-71-31.4-71-70.8s31.5-71.1,70.8-71.2
		C7748.2-407.9,7779.7-376.3,7779.7-336.9z"/>
	<path id="XMLID_458_" class="st4" d="M6693.2-337.3c0-39.3,31.9-70.9,71.3-70.6c39.3,0.3,70.6,32.1,70.5,71.6
		c-0.1,38.9-31.5,70.2-70.6,70.5C6724.4-265.6,6693.1-297,6693.2-337.3z"/>
	<path id="XMLID_457_" class="st4" d="M7709.4,65c39.5,0.1,70.5,31.3,70.4,71.1c-0.1,38.8-31.4,70.3-70.4,70.8
		c-39.1,0.5-71.4-31.9-71.4-71.7C7638,95.9,7669.5,64.9,7709.4,65z"/>
	<path id="XMLID_456_" class="st4" d="M6764.5,65c39,0.1,70.4,31.5,70.4,70.4c0,39.3-31.4,71.1-70.7,71.5
		c-39.6,0.4-71.2-31.9-71.1-72.7C6693.3,95.5,6724.8,64.9,6764.5,65z"/>
</g>
<polygon id="XMLID_37_" class="st2" points="11900,531.8 13538,90.8 13954,307.8 14134,-16.2 14245.5,-65.2 14573,-368.2 
	15167,550.7 "/>
<circle id="XMLID_31_" class="st4" cx="12288.5" cy="-967.1" r="730.1"/>
<path id="XMLID_3_" class="st2" d="M9805.3-1216c0,0,176.7-237.2,368.4-237.2s190.1,83.1,190.1,83.1s37.8-285.2,237.7-285.2
	s207.9,160.4,207.9,160.4s67.6-279.3,493.1-279.3c402.3,0,445.6,410,445.6,410s173.7-145.3,267.4,101c0,0,105.9-133.9,219.8,41.1
	L9805.3-1216z"/>
<path id="XMLID_36_" class="st5" d="M13866.3-102.7c0-161.5-131-292.5-292.5-292.5c-14.3,0-28.3,1-42,3
	c12.7-42.3,19.5-87.1,19.5-133.5c0-256-207.5-463.5-463.5-463.5c-168.3,0-315.6,89.6-396.8,223.8c-24.4-5.1-49.8-7.8-75.7-7.8
	c-203.8,0-369,165.2-369,369c0,156.1,97,289.6,234,343.5c-5.9,20-9,40.5-9,61.5c0,198.8,276,360,616.5,360
	c223.9,0,420-69.7,527.9-174C13757.4,166.4,13866.3,44.6,13866.3-102.7z"/>
<path id="XMLID_20_" class="st6" d="M11607.8,34c0,0,494.9-163.4,658.5,1.8c0,0,25.8,77.9-73.1,93.6
	c-98.9,15.7-197.2-11.2-197.2-11.2S12187.9-1.4,11607.8,34"/>
<polygon id="XMLID_243_" class="st7" points="8927,694.8 9320,696.8 9320,658.8 8924.5,649.8 "/>
<line id="XMLID_242_" class="st8" x1="8945.5" y1="658.8" x2="8945" y2="694.8"/>
<line id="XMLID_241_" class="st8" x1="8962" y1="649.8" x2="8962" y2="694.8"/>
<path id="XMLID_240_" class="st9" d="M9302.3-1350.2l48-1.4l201,3.4c0,0,57.8,264-39.3,264S9302.3-1350.2,9302.3-1350.2z"/>
<path id="XMLID_239_" class="st10" d="M9542.3,353c0,0-65.4,198.2,81,315.2l-414-2c0,0,33.8-305,54-304.1L9542.3,353z"/>
<path id="XMLID_238_" class="st10" d="M8978.3,334.8c0,0-60.9,248.9-66,297s119.6,31.5,405,36c0,0-132.5-62.4-63-297L8978.3,334.8z"
	/>
<path id="XMLID_237_" class="st6" d="M9236.3,469.8c0,0-258.3-26.3-252-126c0,0,242.7,44.6,270,27
	C9254.3,370.8,9242.6,399.2,9236.3,469.8z"/>
<path id="XMLID_236_" class="st6" d="M9524.3,469.8l22.5-112.9l-292.5,13.9C9269.9,430.1,9373.5,469.8,9524.3,469.8z"/>
<path id="XMLID_235_" class="st9" d="M9427.2-1434.2c0,0,56.3,65.3,111.1,33.2c54.8-32.2,37.8-249-107.7-240.1s-69.8,196.3-44.1,207
	l-36.2,82.5c0,0,68.2,102,149.5,4.3l8.1-55.5L9427.2-1434.2z"/>
<path id="XMLID_234_" class="st11" d="M9563.3-1521.2c0,0-50.9-9.9-27,72"/>
<circle id="XMLID_233_" class="st6" cx="9555.5" cy="-1494.6" r="8.8"/>
<circle id="XMLID_232_" class="st6" cx="9489.5" cy="-1492.6" r="8.8"/>
<path id="XMLID_231_" class="st6" d="M9425.2-1431.2c0,0,25.1,67.1,75.1,81l7-42C9507.3-1392.2,9450.1-1381.9,9425.2-1431.2z"/>
<path id="XMLID_230_" class="st9" d="M9572.4-1341.3c0,0,154.7-6.5,427.1,690.2l-98.2,148.8l-191.6-255.5L9572.4-1341.3z"/>
<path id="XMLID_229_" class="st12" d="M9128.1-1165c0,0-26.1,304-23.8,570.8c1.9,220.9-246.2,823.8-232.1,915.7
	c0,0,272.2,59.2,382.3,59.1c110.1,0,300.2-2.7,300.2-2.7l168-724.2c0,0,55-997.7-171.5-1002c0,0,30.1,186.1-50.6,187
	c-70,0.7-163-188.2-163-188.2l-97.9-3.1C9239.9-1352.5,9123.6-1358.1,9128.1-1165z"/>
<path id="XMLID_228_" class="st10" d="M9594.7-739.1l133.8-285l360,90l-75,480.1c0,0-87.4,60.7-121,42s-329-147-329-147
	L9594.7-739.1z"/>
<path id="XMLID_227_" class="st13" d="M9739.5-1040.1c0,0-231.4-99.5-225,160"/>
<polygon id="XMLID_226_" class="st7" points="9626,670.8 9626,697.3 9319.5,697.3 9320,669.8 "/>
<path id="XMLID_225_" class="st11" d="M9254.6,380.6c0,0,187.5-704.7,209.7-938.8"/>
<path id="XMLID_224_" class="st14" d="M10088.5-919.1c-11.2,39.9-112.1,47.9-200.2,23.1c-88.1-24.8-171-88.3-159.8-128.1
	c11.2-39.9,112.3-41.1,200.4-16.3C10017-1015.6,10099.8-959,10088.5-919.1z"/>
<polygon id="XMLID_223_" class="st7" points="10049.3,-684.2 10207.8,-799.1 10207.8,-754.1 10022.6,-477 "/>
<ellipse id="XMLID_222_" class="st15" cx="10262.4" cy="-800.7" rx="77.5" ry="90"/>
<circle id="XMLID_221_" class="st15" cx="10226.7" cy="-833.9" r="7.5"/>
<circle id="XMLID_220_" class="st15" cx="10264.7" cy="-833.9" r="7.5"/>
<circle id="XMLID_219_" class="st15" cx="10303.1" cy="-833.9" r="7.5"/>
<circle id="XMLID_218_" class="st15" cx="10226.7" cy="-798.9" r="7.5"/>
<circle id="XMLID_217_" class="st15" cx="10264.7" cy="-798.9" r="7.5"/>
<circle id="XMLID_216_" class="st15" cx="10303.1" cy="-798.9" r="7.5"/>
<circle id="XMLID_215_" class="st15" cx="10226.7" cy="-767.2" r="7.5"/>
<circle id="XMLID_214_" class="st15" cx="10264.7" cy="-767.2" r="7.5"/>
<circle id="XMLID_213_" class="st15" cx="10303.1" cy="-767.2" r="7.5"/>
<path id="XMLID_212_" class="st6" d="M10059.3-926.2c-8.1,29-101.1,30.3-165.1,12.4s-149-73.4-140.9-102.4s107-27,171-9
	S10067.4-955.2,10059.3-926.2z"/>
<path id="XMLID_211_" class="st9" d="M10090.8-670.9c0,0-100.9,51.3-90,135s-15,105-15,105s119.8-50.1,120-90
	S10129.1-604.7,10090.8-670.9z"/>
<path id="XMLID_210_" class="st15" d="M10038.5-504.2c0,0-14.8-85.9-14.8-114.9"/>
<path id="XMLID_209_" class="st15" d="M10066.6-541c0,0-18-80.6-18-108"/>
<path id="XMLID_208_" class="st15" d="M10076.6-667c0,25.2,18,99,18,99"/>
<path id="XMLID_207_" class="st9" d="M9222.1-1347.3c0,0,95.1-8.4,141,142.7s257.1,535.7,329.8,582.4c72.7,46.7,82.3,71.7,82.3,71.7
	s1.9,23.1-86.7,15.4c-88.7-7.7,190,96.1,190,96.1s-58.9,79.3-170.7,92.8s-565.5-499.2-589.2-892.5
	C9118.6-1238.7,9118.1-1343.1,9222.1-1347.3z"/>
<path id="XMLID_206_" class="st11" d="M9743.3-450.2c0,0,70.6,43.7,108,45"/>
<path id="XMLID_205_" class="st11" d="M9707.3-423.2c0,0,71.5,50.3,99,45"/>
<path id="XMLID_204_" class="st11" d="M9662.3-396.2c0,0,59.2,45.8,82,46"/>
<path id="XMLID_203_" class="st8" d="M9218.3-898.2c0,0,78.2-62.3,135,18c56.8,80.3-45,126-45,126"/>
<line id="XMLID_202_" class="st8" x1="8978" y1="667.8" x2="8978" y2="694.8"/>
<line id="XMLID_201_" class="st8" x1="8995" y1="667.8" x2="8995" y2="694.8"/>
<line id="XMLID_200_" class="st8" x1="9012" y1="667.8" x2="9012" y2="694.8"/>
<line id="XMLID_199_" class="st8" x1="9029" y1="667.8" x2="9029" y2="694.8"/>
<line id="XMLID_198_" class="st8" x1="9045" y1="667.8" x2="9045" y2="694.8"/>
<line id="XMLID_197_" class="st8" x1="9062" y1="667.8" x2="9062" y2="694.8"/>
<line id="XMLID_196_" class="st8" x1="9080" y1="667.8" x2="9080" y2="694.8"/>
<line id="XMLID_195_" class="st8" x1="9097" y1="667.8" x2="9097" y2="694.8"/>
<line id="XMLID_194_" class="st8" x1="9113" y1="667.8" x2="9113" y2="694.8"/>
<line id="XMLID_193_" class="st8" x1="9130" y1="667.8" x2="9130" y2="694.8"/>
<line id="XMLID_192_" class="st8" x1="9147" y1="667.8" x2="9147" y2="694.8"/>
<line id="XMLID_191_" class="st8" x1="9164" y1="667.8" x2="9164" y2="694.8"/>
<line id="XMLID_190_" class="st8" x1="9180" y1="667.8" x2="9180" y2="694.8"/>
<line id="XMLID_189_" class="st8" x1="9197" y1="667.8" x2="9197" y2="694.8"/>
<line id="XMLID_188_" class="st8" x1="9215" y1="667.8" x2="9215" y2="694.8"/>
<line id="XMLID_187_" class="st8" x1="9231" y1="667.8" x2="9231" y2="694.8"/>
<line id="XMLID_186_" class="st8" x1="9248" y1="667.8" x2="9248" y2="694.8"/>
<line id="XMLID_185_" class="st8" x1="9266" y1="667.8" x2="9266" y2="694.8"/>
<line id="XMLID_184_" class="st8" x1="9284" y1="667.8" x2="9284" y2="694.8"/>
<line id="XMLID_183_" class="st8" x1="9301" y1="667.8" x2="9301" y2="694.8"/>
<polygon id="XMLID_182_" class="st6" points="9332.5,694.8 9332.5,668.8 9315.5,667.8 9315.5,694.8 "/>
<line id="XMLID_181_" class="st8" x1="9348" y1="669.8" x2="9348" y2="696.8"/>
<line id="XMLID_180_" class="st8" x1="9365" y1="669.8" x2="9365" y2="696.8"/>
<line id="XMLID_179_" class="st8" x1="9381" y1="669.8" x2="9381" y2="696.8"/>
<line id="XMLID_178_" class="st8" x1="9398" y1="669.8" x2="9398" y2="696.8"/>
<line id="XMLID_177_" class="st8" x1="9415" y1="669.8" x2="9415" y2="696.8"/>
<line id="XMLID_176_" class="st8" x1="9432" y1="669.8" x2="9432" y2="696.8"/>
<line id="XMLID_175_" class="st8" x1="9448" y1="669.8" x2="9448" y2="696.8"/>
<line id="XMLID_174_" class="st8" x1="9465" y1="669.8" x2="9465" y2="696.8"/>
<line id="XMLID_173_" class="st8" x1="9483" y1="669.8" x2="9483" y2="696.8"/>
<line id="XMLID_172_" class="st8" x1="9499" y1="669.8" x2="9499" y2="696.8"/>
<line id="XMLID_171_" class="st8" x1="9516" y1="669.8" x2="9516" y2="696.8"/>
<line id="XMLID_170_" class="st8" x1="9534" y1="669.8" x2="9534" y2="696.8"/>
<line id="XMLID_169_" class="st8" x1="9550" y1="671.8" x2="9550" y2="698.8"/>
<line id="XMLID_168_" class="st8" x1="9567" y1="671.8" x2="9567" y2="698.8"/>
<line id="XMLID_167_" class="st8" x1="9583" y1="671.8" x2="9583" y2="698.8"/>
<line id="XMLID_166_" class="st8" x1="9600" y1="671.8" x2="9600" y2="698.8"/>
<line id="XMLID_165_" class="st8" x1="9614" y1="671.8" x2="9614" y2="698.8"/>
<path id="XMLID_164_" class="st16" d="M9518.3-1422.2c0,0,9.7,14.1,18,0"/>
<path id="XMLID_59_" class="st0" d="M11166.2,583.3c-1.9-28.7-37.4-51.5-80.9-51.5c-7.4,0-14.5,0.7-21.3,1.9
	c2.2-6.3,3.3-13,3.3-19.9c0-39.8-38.3-72-85.5-72c-14,0-27.2,2.8-38.8,7.9c-17-46.6-61.7-79.9-114.2-79.9
	c-53.4,0-98.7,34.4-115,82.3c-77.7-83.4-234-500.4-474.5-2.3c0,0-108.9-169.7-225,46c0,0-155.9-112.7-208,26s54,126,54,126l1423,1
	C11283.3,648.8,11236.2,619.2,11166.2,583.3z"/>
<line id="XMLID_162_" class="st13" x1="10461.3" y1="314.8" x2="10461.3" y2="-1656.2"/>
<line id="XMLID_161_" class="st13" x1="10464.4" y1="-367.2" x2="10717.2" y2="-724.2"/>
<line id="XMLID_160_" class="st13" x1="10466.6" y1="138.3" x2="10214" y2="-237.7"/>
<line id="XMLID_159_" class="st13" x1="10464.6" y1="-1043.2" x2="10617" y2="-1333.2"/>
<line id="XMLID_158_" class="st13" x1="10463.3" y1="-1332.2" x2="10265.3" y2="-1512.2"/>
<path id="XMLID_157_" class="st3" d="M10715-719.2c0,0-2.8-119.9,157.3-119.9C10872.3-839.1,10865.9-719.2,10715-719.2z"/>
<path id="XMLID_156_" class="st4" d="M10223.6-224.5c0,0-119.9,2.8-119.9-157.3C10103.7-381.8,10223.6-375.4,10223.6-224.5z"/>
<path id="XMLID_155_" class="st4" d="M10614.3-1323.7c0,0-46.4-110.5,102.6-169.1C10716.9-1492.8,10754.8-1379,10614.3-1323.7z"/>
<path id="XMLID_154_" class="st4" d="M10463.8-742.8c0,0-8.3-119.6,151.6-127C10615.4-869.8,10614.6-749.8,10463.8-742.8z"/>
<path id="XMLID_153_" class="st4" d="M10284.2-1495.6c0,0-115.5,32.2-154.9-122.9C10129.3-1618.6,10247-1641.9,10284.2-1495.6z"/>
<path id="XMLID_152_" class="st3" d="M10457.6-1647.1c0,0-95.6-72.3,3.8-197.7C10461.4-1844.9,10551.4-1765.4,10457.6-1647.1z"/>
<path id="XMLID_151_" class="st6" d="M9554.3-1557.2c0,0-36.9-30.3-36-18c1.8,24.5,10.2,64.5-117,54c0,0-71.2-20.1-14.9,87
	c0.2,0.4-64.7-36.2-66.1-96c-1-40.9,37-105.7,99-117C9536-1668.6,9554.3-1557.2,9554.3-1557.2z"/>
<path id="XMLID_150_" class="st17" d="M9423.5-1489.1c0,0-0.3-37.7-30-30c-13.3,3.5-57,17.8,5.8,44"/>
<path id="XMLID_149_" class="st6" d="M9344.8-1545.8c-18.7-67.5-247.1-120.9-312.5,78.6C8958.2-1241.2,9363.5-1478.3,9344.8-1545.8z
	"/>
<path id="XMLID_148_" class="st3" d="M10353.5-119.8c0,0,93.4-75.1,190.8,51.9C10544.4-67.9,10445.4,0,10353.5-119.8z"/>
<path id="XMLID_147_" class="st4" d="M10571.7-1257.3c0,0-85.6-24-47-149C10524.7-1406.4,10608.1-1375.2,10571.7-1257.3z"/>
<path id="XMLID_146_" class="st4" d="M10455.9-414.2c0,0-97.2,12.1-109.5-105.8C10346.5-520.1,10444.4-525.5,10455.9-414.2z"/>
<path id="XMLID_145_" class="st3" d="M10460.1-1217c0,0-87.6,15.2-105.5-114.4C10354.6-1331.4,10443.2-1339.2,10460.1-1217z"/>
<path id="XMLID_4_" class="st4" d="M10631.3-603.7c0,0,100.5-65.3,184.6,70.9C10815.9-532.8,10710.6-475.3,10631.3-603.7z"/>
<path id="XMLID_143_" class="st4" d="M10264.8-171c0,0-60.2-77.3,34.9-148.2C10299.7-319.2,10354.4-237.9,10264.8-171z"/>
<path id="XMLID_142_" class="st4" d="M10520.6-1146.5c0,0,50.2-53.1,119.6,15.5C10640.2-1131,10586.1-1081.8,10520.6-1146.5z"/>
<path id="XMLID_19_" class="st9" d="M11529.3-372.1l-628,141.9c0,0-105.4,8.5-173.6-57.8c0,0-35.4-16.1-22.7,28s76.9,63.2,38.9,66.3
	c-37.9,3.1-125.5-79-149.9-86.7s-59.1,85.3,5.9,178.5s225.8,145,357.7,116.1s644.3-80.4,644.3-80.4S11478-206.8,11529.3-372.1z"/>
<path id="XMLID_16_" class="st18" d="M11996.1,416.4l237.3,3.3c0,0,236.5,161,192.9,310.2c0,0-14.2,6.4-27,9
	c-55.3,11.4-187.1-37.1-187.1-37.1L11996.1,416.4z"/>
<path id="XMLID_15_" class="st9" d="M11039.2-213.1l-398.6,505.5c0,0-76.5,72.9-171.2,64.4c0,0-37.7,9.8,0,36s99.5,0.7,72,27
	s-147.2,17.6-171,27s7.8,103.5,117,135s266.7-29.5,351-135s436-473,436-473S11103.3-52.3,11039.2-213.1z"/>
<path id="XMLID_11_" class="st9" d="M11415.3-578.2c59,0,45.5-10.5,53.4,43.2c7.9,53.8,185.5,25.6,237.6,16.8
	c0,0-94.1-330.9-254-322.1C11253.3-829.3,11313.4-578.2,11415.3-578.2z"/>
<circle id="XMLID_13_" class="st6" cx="11349.5" cy="-724.6" r="8.8"/>
<path id="XMLID_26_" class="st11" d="M11385.3-739.2c0,0-31.8-36.1-54-9"/>
<path id="XMLID_27_" class="st9" d="M11322.2-717.6l-11.6,43.4c-1.7,15.1,4.5,21.1,11.4,20l19.5-3.2c5-0.8,8.2-5.1,7.3-9.8
	l-7.9-40.2C11339.1-716.8,11324.6-717.8,11322.2-717.6z"/>
<g id="XMLID_25_">
	<g id="XMLID_350_">
		<path id="XMLID_383_" class="st6" d="M12869.3-1087c1.9,0,1.9-3,0-3C12867.3-1090,12867.3-1087,12869.3-1087L12869.3-1087z"/>
	</g>
</g>
<path id="XMLID_29_" class="st13" d="M12624.3-480.6c0,0-21.8,268.3,171,268.3s171,138,171,138"/>
<path id="XMLID_6_" class="st19" d="M10366.3,479.8c0,0,96.9,19.2,189-18"/>
<path id="XMLID_7_" class="st19" d="M10389.9,521.1c0,0,115.6,12.8,179-18"/>
<path id="XMLID_8_" class="st19" d="M10442.9,561.1c16.9,16.8,162-18,162-18"/>
<path id="XMLID_9_" class="st19" d="M10563.3-242.2c0,0,94.9,84.6,171,90"/>
<path id="XMLID_10_" class="st19" d="M10563.3-179.2c0,0,114.7,79.6,171,72"/>
<path id="XMLID_30_" class="st19" d="M10600.2-101.8c0,0,92.8,52.5,143.1,48.6"/>
<path id="XMLID_18_" class="st20" d="M11604,39.6c0,0-124.5-229.1-165.6-222.2c-8.1,1.3-167.5,171-167.5,171
	s-304.3-110.8-231.7-201.4c244.8-305.2,336.3-331.4,424.1-326.1c140.3,8.5,234-45,234-45s81.5-22.1,243,126
	c283.6,260.1,325.8,493.5,325.8,493.5C12087.6-96.5,11604,39.6,11604,39.6z"/>
<path id="XMLID_5_" class="st13" d="M12966.3,234.8c0,0,326.6,52.3,324-216c0,0-20.3-135,117-135s117-117,117-117"/>
<ellipse class="st1" cx="12965.8" cy="630.8" rx="336.5" ry="75.3"/>
<path id="XMLID_32_" class="st13" d="M12966.3-332.2c0,0,135-20.6,135-189"/>
<path id="XMLID_33_" class="st13" d="M13137.3-134.2c0,0-12.8,180,153,180"/>
<path id="XMLID_39_" class="st5" d="M7948.1-247.7c0,0-688.8,387.6-1807-858.7C6141.1-1106.4,7342.7-1614.1,7948.1-247.7z"/>
<path id="XMLID_44_" class="st3" d="M5625.4,344.2c0,0-93.9-139.3,151-397.4C5776.3-53.2,5904.4,192.6,5625.4,344.2z"/>
<line id="XMLID_38_" class="st19" x1="10851.3" y1="18.8" x2="11039.2" y2="-213.1"/>
<line id="XMLID_28_" class="st21" x1="12965.8" y1="630.8" x2="12965.8" y2="-557.2"/>
<path id="XMLID_144_" class="st4" d="M10453.3-206.8c0,0,16.5-118.7,174.5-93C10627.8-299.8,10602.3-182.5,10453.3-206.8z"/>
<path id="XMLID_53_" class="st3" d="M12956.6-212.8c0,0-1.6-67.6,88.7-67.6C13045.3-280.4,13041.7-212.8,12956.6-212.8z"/>
<path id="XMLID_52_" class="st4" d="M12969.8-464.7c0,0-26.2-62.3,57.8-95.4C13027.6-560.1,13049-495.9,12969.8-464.7z"/>
<path id="XMLID_51_" class="st4" d="M12639.9-328.1c0,0-4.7-67.4,85.5-71.6C12725.4-399.7,12725-332,12639.9-328.1z"/>
<path id="XMLID_50_" class="st4" d="M12622.6-442.7c0,0-65.1,18.2-87.4-69.3C12535.3-512,12601.7-525.2,12622.6-442.7z"/>
<path id="XMLID_49_" class="st3" d="M12623.4-465.1c0,0-53.9-40.8,2.2-111.5C12625.6-576.6,12676.3-531.8,12623.4-465.1z"/>
<path id="XMLID_48_" class="st4" d="M12969.8-548.3c0,0-48.2-13.5-26.5-84C12943.3-632.3,12990.3-614.8,12969.8-548.3z"/>
<path id="XMLID_47_" class="st4" d="M12970.1-74.7c0,0,1.1-55.2,67.9-52.5C13038-127.2,13033.1-72.1,12970.1-74.7z"/>
<path id="XMLID_46_" class="st4" d="M12894.2,58.2c0,0,53.5-13.8,68.8,51.3C12963,109.6,12908.7,119.7,12894.2,58.2z"/>
<path id="XMLID_12_" class="st4" d="M13105.4-483.1c0,0-0.4-41.2,54.7-40.5C13160-523.5,13157.3-482.4,13105.4-483.1z"/>
<path id="XMLID_56_" class="st4" d="M13099.9-515.8c0,0-24.9-32.8,19.6-65.1C13119.5-580.9,13141.9-546.2,13099.9-515.8z"/>
<path id="XMLID_57_" class="st4" d="M13076-419.4c0,0-41.2-0.9-38.7-55.9C13037.3-475.3,13078.4-471.2,13076-419.4z"/>
<path id="XMLID_58_" class="st4" d="M13140.3-127.6c0,0-29.9-28.3,8.8-67.4C13149.1-195,13176.8-164.5,13140.3-127.6z"/>
<path id="XMLID_45_" class="st17" d="M11445.3-755.2c0,0,63-22.1,18,54"/>
<path id="XMLID_54_" class="st8" d="M10947.3,309.9c0,0-78-62.5-12.3-135.6c65.7-73.2,132.8,16,132.8,16"/>
<path id="XMLID_61_" class="st22" d="M12012.3,441.8"/>
<path id="XMLID_63_" class="st23" d="M12057.3,427.8c41.6,6,82.7,69.9,108,126s70.1,200.1,14,203s-119-110.7-140-185
	C12018.3,497.5,12008.2,420.7,12057.3,427.8z"/>
<path id="XMLID_65_" class="st23" d="M12190,430.7c41.6-6,99.1,43.6,139.3,90.2c40.2,46.6,124,172,71,190.7
	c-53,18.7-145.6-72.4-186.7-137.7C12172.4,508.6,12141,437.8,12190,430.7z"/>
<path id="XMLID_68_" class="st6" d="M11409.3-719.2c0,0,6.4-65.6-72-63s21.3-117.1,153-99s138.8,160.3,144,180
	c5.2,19.7-88.5,101.1-135-27C11462.2-830.6,11409.3-719.2,11409.3-719.2z"/>
<path id="XMLID_74_" class="st4" d="M13173.8-5.7c0,0-26.2-62.3,57.8-95.4C13231.6-101.1,13253-36.9,13173.8-5.7z"/>
<path id="XMLID_73_" class="st4" d="M13105.9,229.9c0,0-4.7-67.4,85.5-71.6C13191.4,158.3,13191,226,13105.9,229.9z"/>
<path id="XMLID_72_" class="st4" d="M13245.4,168.9c0,0,50.4-45.1,109,23.5C13354.5,192.4,13300.8,233.6,13245.4,168.9z"/>
<path id="XMLID_71_" class="st3" d="M13281.2,99c0,0,15-65.9,102.6-43.8C13383.8,55.2,13363.8,119.9,13281.2,99z"/>
<path id="XMLID_70_" class="st4" d="M13364.8-111.3c0,0-48.2-13.5-26.5-84C13338.3-195.3,13385.3-177.8,13364.8-111.3z"/>
<path id="XMLID_69_" class="st4" d="M13520.8-224.5c0,0-22.8-34.3,23.7-63.7C13544.6-288.2,13564.7-252.2,13520.8-224.5z"/>
<path id="XMLID_67_" class="st4" d="M13471.2-128.3c0,0,37.7-16.8,58.9,34C13530.1-94.3,13491.3-80.4,13471.2-128.3z"/>
<path id="XMLID_76_" class="st4" d="M12959.4,296.2c0,0-45,32-82.6-23.3C12876.8,272.9,12923.9,244.1,12959.4,296.2z"/>
<path id="XMLID_75_" class="st4" d="M12972.2-14.3c0,0-51.4,43.9-108.5-26C12863.8-40.3,12918.4-80.2,12972.2-14.3z"/>
<path class="st1" d="M11100.5,640.2c0,0-29.4,127.8,275.6,123.8s513.2-32.4,562.5,10.4c84.4,73.3,254.6-9.8,254.6-9.8L11969.6,644
	L11100.5,640.2z"/>
<g id="Warstwa_3">
	<rect id="XMLID_78_" x="10263.3" y="-762.9" class="st4" width="7" height="22"/>
	
		<rect id="XMLID_138_" x="10327.1" y="-758.3" transform="matrix(0.3299 0.944 -0.944 0.3299 6214.9946 -10265.082)" class="st4" width="22" height="7"/>
	<rect id="XMLID_83_" x="10225.3" y="-762.9" class="st4" width="7" height="22"/>
	<rect id="XMLID_84_" x="10225.3" y="-796.9" class="st4" width="7" height="22"/>
	<rect id="XMLID_85_" x="10263.3" y="-796.9" class="st4" width="7" height="22"/>
	
		<rect id="XMLID_86_" x="10298" y="-792.1" transform="matrix(0.3397 0.9405 -0.9405 0.3397 6065.1621 -10216.6348)" class="st4" width="22" height="7"/>
	
		<rect id="XMLID_137_" x="10322" y="-792.1" transform="matrix(0.3397 0.9405 -0.9405 0.3397 6081.0107 -10239.208)" class="st4" width="22" height="7"/>
	<rect id="XMLID_87_" x="10263.3" y="-831.9" class="st4" width="7" height="22"/>
	<rect id="XMLID_88_" x="10225.3" y="-831.9" class="st4" width="7" height="22"/>
	
		<rect id="XMLID_82_" x="10303.5" y="-826.8" transform="matrix(0.7548 0.6559 -0.6559 0.7548 1988.4921 -6967.4663)" class="st4" width="22" height="6"/>
	<rect id="XMLID_90_" x="10225.3" y="-662.9" class="st4" width="7" height="22"/>
	<rect id="XMLID_89_" x="10225.3" y="-696.9" class="st4" width="7" height="22"/>
	<rect id="XMLID_79_" x="10225.3" y="-731.9" class="st4" width="7" height="22"/>
	<rect id="XMLID_94_" x="10225.3" y="-560.9" class="st4" width="7" height="22"/>
	<rect id="XMLID_93_" x="10225.3" y="-594.9" class="st4" width="7" height="22"/>
	<rect id="XMLID_92_" x="10225.3" y="-629.9" class="st4" width="7" height="22"/>
	<rect id="XMLID_97_" x="10225.3" y="-458.9" class="st4" width="7" height="22"/>
	<rect id="XMLID_96_" x="10225.3" y="-492.9" class="st4" width="7" height="22"/>
	<rect id="XMLID_95_" x="10225.3" y="-527.9" class="st4" width="7" height="22"/>
	<rect id="XMLID_100_" x="10225.3" y="-355.9" class="st4" width="7" height="22"/>
	<rect id="XMLID_99_" x="10225.3" y="-389.9" class="st4" width="7" height="22"/>
	<rect id="XMLID_98_" x="10225.3" y="-424.9" class="st4" width="7" height="22"/>
	<rect id="XMLID_112_" x="10263.3" y="-662.9" class="st4" width="7" height="22"/>
	<rect id="XMLID_111_" x="10263.3" y="-696.9" class="st4" width="7" height="22"/>
	<rect id="XMLID_110_" x="10263.3" y="-731.9" class="st4" width="7" height="22"/>
	<rect id="XMLID_109_" x="10263.3" y="-560.9" class="st4" width="7" height="22"/>
	<rect id="XMLID_108_" x="10263.3" y="-594.9" class="st4" width="7" height="22"/>
	<rect id="XMLID_107_" x="10263.3" y="-629.9" class="st4" width="7" height="22"/>
	<rect id="XMLID_106_" x="10263.3" y="-458.9" class="st4" width="7" height="22"/>
	<rect id="XMLID_105_" x="10263.3" y="-492.9" class="st4" width="7" height="22"/>
	<rect id="XMLID_104_" x="10263.3" y="-527.9" class="st4" width="7" height="22"/>
	<rect id="XMLID_103_" x="10263.3" y="-355.9" class="st4" width="7" height="22"/>
	<rect id="XMLID_102_" x="10263.3" y="-389.9" class="st4" width="7" height="22"/>
	<rect id="XMLID_101_" x="10263.3" y="-424.9" class="st4" width="7" height="22"/>
	<rect id="XMLID_124_" x="10304.3" y="-662.9" class="st4" width="7" height="22"/>
	<rect id="XMLID_123_" x="10304.3" y="-696.9" class="st4" width="7" height="22"/>
	<rect id="XMLID_122_" x="10304.3" y="-731.9" class="st4" width="7" height="22"/>
	<rect id="XMLID_91_" x="10301.3" y="-762.9" class="st4" width="7" height="22"/>
	<rect id="XMLID_121_" x="10304.3" y="-560.9" class="st4" width="7" height="22"/>
	<rect id="XMLID_120_" x="10304.3" y="-594.9" class="st4" width="7" height="22"/>
	<rect id="XMLID_119_" x="10304.3" y="-629.9" class="st4" width="7" height="22"/>
	<rect id="XMLID_118_" x="10304.3" y="-458.9" class="st4" width="7" height="22"/>
	<rect id="XMLID_117_" x="10304.3" y="-492.9" class="st4" width="7" height="22"/>
	<rect id="XMLID_116_" x="10304.3" y="-527.9" class="st4" width="7" height="22"/>
	<rect id="XMLID_115_" x="10304.3" y="-355.9" class="st4" width="7" height="22"/>
	<rect id="XMLID_114_" x="10304.3" y="-389.9" class="st4" width="7" height="22"/>
	<rect id="XMLID_113_" x="10304.3" y="-424.9" class="st4" width="7" height="22"/>
	<rect id="XMLID_136_" x="10338.3" y="-657.9" class="st4" width="7" height="22"/>
	<rect id="XMLID_135_" x="10338.3" y="-691.9" class="st4" width="7" height="22"/>
	<rect id="XMLID_134_" x="10338.3" y="-726.9" class="st4" width="7" height="22"/>
	<rect id="XMLID_133_" x="10338.3" y="-555.9" class="st4" width="7" height="22"/>
	<rect id="XMLID_132_" x="10338.3" y="-589.9" class="st4" width="7" height="22"/>
	<rect id="XMLID_131_" x="10338.3" y="-624.9" class="st4" width="7" height="22"/>
	<rect id="XMLID_130_" x="10338.3" y="-453.9" class="st4" width="7" height="22"/>
	<rect id="XMLID_129_" x="10338.3" y="-487.9" class="st4" width="7" height="22"/>
	<rect id="XMLID_128_" x="10338.3" y="-522.9" class="st4" width="7" height="22"/>
	<rect id="XMLID_127_" x="10338.3" y="-350.9" class="st4" width="7" height="22"/>
	<rect id="XMLID_126_" x="10338.3" y="-384.9" class="st4" width="7" height="22"/>
	<rect id="XMLID_125_" x="10338.3" y="-419.9" class="st4" width="7" height="22"/>
	<rect id="XMLID_336_" x="10225.3" y="-282.9" class="st4" width="7" height="22"/>
	<rect id="XMLID_335_" x="10225.3" y="-316.9" class="st4" width="7" height="22"/>
	<rect id="XMLID_334_" x="10225.3" y="-180.9" class="st4" width="7" height="22"/>
	<rect id="XMLID_333_" x="10225.3" y="-214.9" class="st4" width="7" height="22"/>
	<rect id="XMLID_280_" x="10225.3" y="-249.9" class="st4" width="7" height="22"/>
	<rect id="XMLID_279_" x="10225.3" y="-78.9" class="st4" width="7" height="22"/>
	<rect id="XMLID_278_" x="10225.3" y="-112.9" class="st4" width="7" height="22"/>
	<rect id="XMLID_277_" x="10225.3" y="-147.9" class="st4" width="7" height="22"/>
	<rect id="XMLID_276_" x="10225.3" y="24.1" class="st4" width="7" height="22"/>
	<rect id="XMLID_275_" x="10225.3" y="-9.9" class="st4" width="7" height="22"/>
	<rect id="XMLID_274_" x="10225.3" y="-44.9" class="st4" width="7" height="22"/>
	<rect id="XMLID_273_" x="10263.3" y="-282.9" class="st4" width="7" height="22"/>
	<rect id="XMLID_272_" x="10263.3" y="-316.9" class="st4" width="7" height="22"/>
	<rect id="XMLID_271_" x="10263.3" y="-180.9" class="st4" width="7" height="22"/>
	<rect id="XMLID_270_" x="10263.3" y="-214.9" class="st4" width="7" height="22"/>
	<rect id="XMLID_269_" x="10263.3" y="-249.9" class="st4" width="7" height="22"/>
	<rect id="XMLID_268_" x="10263.3" y="-78.9" class="st4" width="7" height="22"/>
	<rect id="XMLID_267_" x="10263.3" y="-112.9" class="st4" width="7" height="22"/>
	<rect id="XMLID_266_" x="10263.3" y="-147.9" class="st4" width="7" height="22"/>
	<rect id="XMLID_265_" x="10263.3" y="24.1" class="st4" width="7" height="22"/>
	<rect id="XMLID_264_" x="10263.3" y="-9.9" class="st4" width="7" height="22"/>
	<rect id="XMLID_263_" x="10263.3" y="-44.9" class="st4" width="7" height="22"/>
	<rect id="XMLID_262_" x="10304.3" y="-282.9" class="st4" width="7" height="22"/>
	<rect id="XMLID_261_" x="10304.3" y="-316.9" class="st4" width="7" height="22"/>
	<rect id="XMLID_260_" x="10304.3" y="-180.9" class="st4" width="7" height="22"/>
	<rect id="XMLID_259_" x="10304.3" y="-214.9" class="st4" width="7" height="22"/>
	<rect id="XMLID_258_" x="10304.3" y="-249.9" class="st4" width="7" height="22"/>
	<rect id="XMLID_257_" x="10304.3" y="-78.9" class="st4" width="7" height="22"/>
	<rect id="XMLID_256_" x="10304.3" y="-112.9" class="st4" width="7" height="22"/>
	<rect id="XMLID_255_" x="10304.3" y="-147.9" class="st4" width="7" height="22"/>
	<rect id="XMLID_254_" x="10304.3" y="24.1" class="st4" width="7" height="22"/>
	<rect id="XMLID_253_" x="10304.3" y="-9.9" class="st4" width="7" height="22"/>
	<rect id="XMLID_252_" x="10304.3" y="-44.9" class="st4" width="7" height="22"/>
	<rect id="XMLID_251_" x="10338.3" y="-277.9" class="st4" width="7" height="22"/>
	<rect id="XMLID_250_" x="10338.3" y="-311.9" class="st4" width="7" height="22"/>
	<rect id="XMLID_249_" x="10338.3" y="-175.9" class="st4" width="7" height="22"/>
	<rect id="XMLID_248_" x="10338.3" y="-209.9" class="st4" width="7" height="22"/>
	<rect id="XMLID_247_" x="10338.3" y="-244.9" class="st4" width="7" height="22"/>
	<rect id="XMLID_246_" x="10338.3" y="-73.9" class="st4" width="7" height="22"/>
	<rect id="XMLID_244_" x="10338.3" y="-107.9" class="st4" width="7" height="22"/>
	<rect id="XMLID_163_" x="10338.3" y="-142.9" class="st4" width="7" height="22"/>
	<rect id="XMLID_141_" x="10338.3" y="29.1" class="st4" width="7" height="22"/>
	<rect id="XMLID_140_" x="10338.3" y="-4.9" class="st4" width="7" height="22"/>
	<rect id="XMLID_139_" x="10338.3" y="-39.9" class="st4" width="7" height="22"/>
	<rect id="XMLID_380_" x="10225.3" y="93.1" class="st4" width="7" height="22"/>
	<rect id="XMLID_379_" x="10225.3" y="59.1" class="st4" width="7" height="22"/>
	<rect id="XMLID_378_" x="10225.3" y="195.1" class="st4" width="7" height="22"/>
	<rect id="XMLID_377_" x="10225.3" y="161.1" class="st4" width="7" height="22"/>
	<rect id="XMLID_376_" x="10225.3" y="126.1" class="st4" width="7" height="22"/>
	<rect id="XMLID_375_" x="10225.3" y="297.1" class="st4" width="7" height="22"/>
	<rect id="XMLID_374_" x="10225.3" y="263.1" class="st4" width="7" height="22"/>
	<rect id="XMLID_373_" x="10225.3" y="228.1" class="st4" width="7" height="22"/>
	<rect id="XMLID_372_" x="10225.3" y="400.1" class="st4" width="7" height="22"/>
	<rect id="XMLID_371_" x="10225.3" y="366.1" class="st4" width="7" height="22"/>
	<rect id="XMLID_370_" x="10225.3" y="331.1" class="st4" width="7" height="22"/>
	<rect id="XMLID_369_" x="10263.3" y="93.1" class="st4" width="7" height="22"/>
	<rect id="XMLID_368_" x="10263.3" y="59.1" class="st4" width="7" height="22"/>
	<rect id="XMLID_367_" x="10263.3" y="195.1" class="st4" width="7" height="22"/>
	<rect id="XMLID_366_" x="10263.3" y="161.1" class="st4" width="7" height="22"/>
	<rect id="XMLID_365_" x="10263.3" y="126.1" class="st4" width="7" height="22"/>
	<rect id="XMLID_364_" x="10263.3" y="297.1" class="st4" width="7" height="22"/>
	<rect id="XMLID_363_" x="10263.3" y="263.1" class="st4" width="7" height="22"/>
	<rect id="XMLID_362_" x="10263.3" y="228.1" class="st4" width="7" height="22"/>
	<rect id="XMLID_360_" x="10263.3" y="366.1" class="st4" width="7" height="22"/>
	<rect id="XMLID_359_" x="10263.3" y="331.1" class="st4" width="7" height="22"/>
	<rect id="XMLID_358_" x="10304.3" y="93.1" class="st4" width="7" height="22"/>
	<rect id="XMLID_357_" x="10304.3" y="59.1" class="st4" width="7" height="22"/>
	<rect id="XMLID_356_" x="10304.3" y="195.1" class="st4" width="7" height="22"/>
	<rect id="XMLID_355_" x="10304.3" y="161.1" class="st4" width="7" height="22"/>
	<rect id="XMLID_354_" x="10304.3" y="126.1" class="st4" width="7" height="22"/>
	<rect id="XMLID_353_" x="10304.3" y="297.1" class="st4" width="7" height="22"/>
	<rect id="XMLID_352_" x="10304.3" y="263.1" class="st4" width="7" height="22"/>
	<rect id="XMLID_351_" x="10304.3" y="228.1" class="st4" width="7" height="22"/>
	<rect id="XMLID_348_" x="10304.3" y="331.1" class="st4" width="7" height="22"/>
	<rect id="XMLID_347_" x="10338.3" y="98.1" class="st4" width="7" height="22"/>
	<rect id="XMLID_346_" x="10338.3" y="64.1" class="st4" width="7" height="22"/>
	<rect id="XMLID_345_" x="10338.3" y="200.1" class="st4" width="7" height="22"/>
	<rect id="XMLID_344_" x="10338.3" y="166.1" class="st4" width="7" height="22"/>
	<rect id="XMLID_343_" x="10338.3" y="131.1" class="st4" width="7" height="22"/>
	<rect id="XMLID_342_" x="10338.3" y="302.1" class="st4" width="7" height="22"/>
	<rect id="XMLID_341_" x="10338.3" y="268.1" class="st4" width="7" height="22"/>
	<rect id="XMLID_340_" x="10338.3" y="233.1" class="st4" width="7" height="22"/>
</g>
<g>
	<path class="st1" d="M13525,1110c0,0-74,4.3-74,22.5s100.3,1.5,235.3,46.9s143.4-100.5,286.7-69.4s88.4-50.1,6-46.5
		C13896.6,1067,13525,1110,13525,1110z"/>
	<path class="st24" d="M13720,1125.7c0,0-74,21.7-130,0s-72.2-18-72.2-18s-110.1-93.9,0-155.2s227.4-41.5,227.4-41.5
		s252.7,28.2,267.1,110.7C14026.9,1104,13772.4,1136.5,13720,1125.7z"/>
	<path class="st25" d="M13718.5,908.3c0,0-128.4-6.5-119.4,27.8s204,23.5,213,0C13821.1,912.7,13718.5,908.3,13718.5,908.3z"/>
	<path class="st24" d="M13883.1,939.7c0,0,89.6-16.2,77-84.7c-12.6-68.6-227.4-63.5-227.4-63.5s-185.9-10.5-185.9,54.4
		s147.7,61.9,147.7,61.9S13867.3,930.8,13883.1,939.7z"/>
	<path class="st24" d="M13907.7,728.6c0,0-1.8,64.9-175.1,65.2c-173.3,0.3-153.4-57.9-153.4-57.9s18.4-54.6,161.7-54.6
		C13915,681.3,13907.7,728.6,13907.7,728.6z"/>
	<path class="st24" d="M13609.6,706.4c0,0-60.7-29,6.1-85.5c68.1-57.5,255.6-7,259.5,10.3c3.6,16.1,14.3,43.7-53.1,53.1
		C13754.7,693.7,13716.1,662.9,13609.6,706.4z"/>
	<path class="st24" d="M13731,499.6c0,0-108.7-23.3-125.5,29.9c-16.8,53.2,63.5,68,113.9,65.8c50.4-2.2,96.1,20.1,111.1-35
		S13731,499.6,13731,499.6z"/>
	<path class="st24" d="M13656.8,496c0,0-48.6-44.9,10.2-58.9s172.7-4.7,180.1,44.8c0,0,4.4,25.7-42.1,34.8
		C13758.5,525.7,13737.1,489.3,13656.8,496z"/>
	<path class="st25" d="M13583.5,811.9c0,0,129.4,18.5,157.5,13.1s111.3,0.1,145.7-15.8C13886.7,809.2,13630.9,776.4,13583.5,811.9z"
		/>
	<path class="st1" d="M13638,614.3c0,0,65.4-4.1,67.7-19.1l53,0.3c0,0-5.5,16.5,73.1,16.5C13831.7,611.9,13699,655,13638,614.3z"/>
	<path class="st25" d="M13812.6,531.4c0,0-74.2,2.8-107-13.2c-32.8-16-58-16-58-16s8.9-14.6,64.2-6.5
		C13767.2,503.7,13803.6,511.8,13812.6,531.4z"/>
	<path class="st25" d="M13469.1,1015.3c0,0,152.2-61.6,217.4-50.2s192.2,72.1,228.8,66.3c36.6-5.7,87.9,22.9,97.7-17.2
		c0,0,38.4,72.1-193.8,107.5c0,0-104.1,12.6-106.4,2.3c0,0-85.9,16.9-133.8-5.7c-41.2-19.4-61.2-10.7-61.2-10.7
		S13459.9,1055.2,13469.1,1015.3z"/>
	<path class="st25" d="M13775.9,852.4c-20.7-10.6-222-39.3-226,3c-4,42.2,226.8,53.7,226.8,53.7l105.6,28.6c0,0,94.5-19.3,75.5-88.5
		C13957.7,849.1,13835.9,883.1,13775.9,852.4z"/>
	<path class="st25" d="M13579.2,736.4c0,0,273.5,44.3,325.3-15c0,0,18,69.4-163.6,72.5S13579.2,736.4,13579.2,736.4z"/>
	<path class="st1" d="M13609.6,706.4c0,0-81.6-61.9,107.8-74.6c0,0,69.6-21,104.5,19s54.2-14.1,54.2-14.1s8,49.4-58.9,48.2
		C13750.4,683.8,13666.3,668,13609.6,706.4z"/>
	<path class="st1" d="M13830.4,562.6c-7.4,44.1-37.2,37.6-105.2,35.9c-97.9-2.4-123.6-37.8-122-54.7s62.5-16.9,62.5-16.9
		s38.1,1.3,51.8,7c13.7,5.7,43.2,39.3,68.9,28.9C13812,552.5,13833,547.3,13830.4,562.6z"/>
	<path class="st25" d="M13692.1,494.8c0,0-59.6-55.9,66.4-47.5s82.7,65.9,46.6,69.3C13769,520.1,13765.9,493.7,13692.1,494.8z"/>
	<path class="st26" d="M13741,439.6c0,0,2.1,32.9,66.8,28.5S13741,439.6,13741,439.6z"/>
	<path class="st26" d="M13735.1,537c0,0,36.6-20.6,60.4,4.8C13819.3,567.2,13735.1,537,13735.1,537z"/>
	<path class="st26" d="M13812.6,631.8c0,0,44.1,22.6,52.3,0C13864.9,631.8,13842,614.5,13812.6,631.8z"/>
	<path class="st26" d="M13598.6,653.5c0,0,0.4-11.8,9.7-15.5C13617.7,634.2,13610.5,650.4,13598.6,653.5z"/>
	<path class="st26" d="M13638,719c-3,51.6,163.3,36.2,206.9,5.5C13888.5,693.8,13641,667.3,13638,719z"/>
	<path class="st26" d="M13788.2,845c0,0,64.9,25.7,135.9,0C13995.1,819.3,13788.2,845,13788.2,845z"/>
	<path class="st26" d="M13778.9,970.7c0,0,102.1,59.5,182.4,47.8c80.2-11.8-65-54.8-65-54.8S13785.3,950.6,13778.9,970.7z"/>
	<path class="st26" d="M13576.4,935.3c0,0-84.3,24.2-85.5,71.4c0,0,78.6-45.9,100.6-40.7C13613.6,971.2,13601.4,925.9,13576.4,935.3
		z"/>
	<path class="st26" d="M13612.6,526.9c0,0,16.3-25.4,39.3-18.6C13674.9,515.1,13612.6,526.9,13612.6,526.9z"/>
	<path class="st26" d="M13647.7,454c0,0,7.6,13,17,0S13647.7,454,13647.7,454z"/>
	<path class="st26" d="M13556.2,845c0,0,17.4-31.4,118.5-12c0,0,27.3-14.6,0-13.8C13647.4,820,13565.3,792.3,13556.2,845z"/>
</g>
<path id="XMLID_14_" class="st10" d="M11604,39.6c0,0-580,129.6-576.7,366.2s106.6,287,243,297s315,0,315,0s-64-256.4,0-252
	s417.1-27.6,417.1-27.6s309.9,8.1,183.4-347.3C12185.8,75.8,11929.9,2.1,11604,39.6z"/>
<path id="XMLID_17_" class="st18" d="M11501.5,414.5c0,0-128,168.5,2.8,296.3l491.9-8.4c0,0,97.9,59.9,174.1,71.4
	c98,14.8,42.2-310.7-104-365L11501.5,414.5z"/>
<path id="XMLID_22_" class="st11" d="M12012.3,36.8c0,0,109.4,334-135,378"/>
<path id="XMLID_21_" class="st27" d="M11742.3,129.3h198c0,0,21.7,153.6,0,169.8s-189.2,69.4-198-35.4S11742.3,129.3,11742.3,129.3z
	"/>
<path id="XMLID_24_" class="st27" d="M12210.3,147.3h-72c0,0-18.1,152.1,36,151.8l36-8.4"/>
<path id="XMLID_23_" class="st11" d="M11607.3,414.8c0,0-297.8-10.1-306,45"/>
<path id="XMLID_62_" class="st22" d="M11562.3,711.8c0,0-97.7-145,9-297"/>
<path id="XMLID_64_" class="st22" d="M12003.3,414.8c-37.8,155.6,82.8,336.2,108,342"/>
<path class="st1" d="M9756.8,676.8c0,0,70.3-104.4,178.8-104.4s228.1,86.4,228.1,86.4s-150.2-20.8-203.4,7
	C9907.1,693.6,9756.8,676.8,9756.8,676.8z"/>
<path class="st1" d="M10058.1,600.8c0,0,54.5-68.4,105.6-46.4s72,46.4,72,46.4s-128.6-43.7-147.1,13.9L10058.1,600.8z"/>
<ellipse class="st1" cx="10613" cy="751.7" rx="205.7" ry="22.6"/>
<path id="XMLID_1_" class="st23" d="M12058.6,428.6c41.6,6,82.7,69.9,108.1,125.9c25.4,56.1,70.2,200.1,14.1,203
	c-56.1,2.9-119.2-110.7-140.1-184.9C12019.7,498.4,12009.6,421.6,12058.6,428.6z"/>
<g id="XMLID_66_">
	<g>
		<path id="XMLID_869_" class="st0" d="M12022.2,470.2c31.3,0,62.6,0,93.9,0c1.1,0,1.9,0.2,2.5,1.2c0.5,0.8,1.1,1.5,1.7,2.3
			c-0.4,0.1-0.6,0.1-0.9,0.1c-32.3,0-64.5,0-96.8,0c-0.2,0-0.3,0-0.5,0C12022.2,472.6,12022.2,471.4,12022.2,470.2z"/>
		<path id="XMLID_868_" class="st0" d="M12055.1,425.6c-2.3,0-4.6,0-7,0C12050.4,425.6,12052.8,425.6,12055.1,425.6z"/>
		<path id="XMLID_867_" class="st0" d="M12375.6,581.9c-0.7,0-1.2,0-1.6,0c-50.8,0-101.5,0-152.3,0c-1.1,0-1.9-0.3-2.4-1.3
			c-0.4-0.8-0.9-1.5-1.6-2.4c0.6,0,1,0,1.4,0c51,0,102,0,153,0c0.9,0,1.4,0.2,1.8,1C12374.4,580,12375,580.8,12375.6,581.9z"/>
		<path id="XMLID_866_" class="st0" d="M12367.8,569.9c-0.7,0-1.2,0-1.7,0c-50.7,0-101.3,0-152,0c-1.2,0-2-0.3-2.5-1.4
			c-0.3-0.7-0.8-1.4-1.3-2.2c0.5,0,0.8-0.1,1.2-0.1c51,0,102,0,153,0c0.8,0,1.2,0.2,1.6,0.9
			C12366.4,568,12367.1,568.8,12367.8,569.9z"/>
		<path id="XMLID_865_" class="st0" d="M12226.1,590.2c0.7,0,1.2,0,1.7,0c50.5,0,101,0,151.4,0c1.2,0,2,0.2,2.5,1.4
			c0.3,0.7,0.8,1.4,1.3,2.3c-0.7,0-1.2,0-1.7,0c-50.4,0-100.7,0-151.1,0c-1.2,0-1.9-0.3-2.5-1.3
			C12227.3,591.8,12226.8,591.1,12226.1,590.2z"/>
		<path id="XMLID_864_" class="st0" d="M12359.5,557.9c-0.8,0-1.3,0-1.8,0c-50.4,0-100.7,0-151.1,0c-1.2,0-2-0.3-2.5-1.5
			c-0.3-0.7-0.8-1.4-1.3-2.2c0.7,0,1.1,0,1.6,0c50.3,0,100.6,0,151,0c1.1,0,1.9,0.3,2.4,1.3
			C12358.3,556.2,12358.9,556.9,12359.5,557.9z"/>
		<path id="XMLID_863_" class="st0" d="M12350.8,545.9c-0.7,0-1.3,0-1.8,0c-49.8,0-99.7,0-149.5,0c-1.2,0-1.9-0.3-2.4-1.4
			c-0.3-0.7-0.7-1.4-1.2-2.3c0.7,0,1.1,0,1.6,0c49.7,0,99.4,0,149.1,0c1.1,0,1.8,0.3,2.4,1.2
			C12349.5,544.2,12350.1,544.9,12350.8,545.9z"/>
		<path id="XMLID_862_" class="st0" d="M12390,605.9c-0.7,0-1.2,0-1.7,0c-49.6,0-99.2,0-148.8,0c-1.2,0-2-0.3-2.6-1.3
			c-0.5-0.8-1.1-1.5-1.8-2.4c0.6,0,1,0,1.4,0c50.1,0,100.1,0,150.2,0c0.9,0,1.5,0.2,1.9,1.1C12389,604.1,12389.5,604.9,12390,605.9z
			"/>
		<path id="XMLID_861_" class="st0" d="M12341.7,533.9c-0.8,0-1.2,0-1.7,0c-49,0-98.1,0-147.1,0c-1.2,0-1.9-0.3-2.3-1.4
			c-0.3-0.7-0.7-1.4-1.2-2.3c0.6,0,1.1,0,1.6,0c48.8,0,97.6,0,146.4,0c1.1,0,1.8,0.3,2.4,1.2
			C12340.3,532.2,12340.9,532.9,12341.7,533.9z"/>
		<path id="XMLID_860_" class="st0" d="M12396.5,617.9c-0.7,0-1.2,0-1.7,0c-48.5,0-97,0-145.4,0c-1.1,0-1.9-0.2-2.5-1.2
			c-0.6-0.8-1.2-1.5-2-2.4c0.6,0,1-0.1,1.3-0.1c49.1,0,98.2,0,147.3,0c0.9,0,1.4,0.3,1.7,1.1
			C12395.5,616.1,12396,616.9,12396.5,617.9z"/>
		<path id="XMLID_859_" class="st0" d="M12183.4,518.2c0.7,0,1.2,0,1.7,0c47.4,0,94.7,0,142.1,0c1.3,0,2.1,0.3,2.8,1.3
			c0.5,0.7,1.2,1.4,1.9,2.2c-0.6,0-0.9,0.1-1.3,0.1c-48.1,0-96.2,0-144.2,0c-0.9,0-1.4-0.3-1.7-1.1
			C12184.3,520,12183.9,519.2,12183.4,518.2z"/>
		<path id="XMLID_858_" class="st0" d="M12402.4,629.9c-0.6,0-1.1,0-1.6,0c-47,0-94.1,0-141.1,0c-1.1,0-1.8-0.3-2.4-1.1
			c-0.6-0.8-1.4-1.5-2.2-2.5c0.5,0,0.9-0.1,1.2-0.1c47.8,0,95.5,0,143.3,0c0.8,0,1.3,0.2,1.6,1
			C12401.5,628.1,12402,628.9,12402.4,629.9z"/>
		<path id="XMLID_857_" class="st0" d="M12321.4,509.9c-0.8,0-1.2,0-1.7,0c-46.2,0-92.4,0-138.7,0c-1.3,0-1.9-0.4-2.2-1.5
			c-0.2-0.7-0.6-1.3-0.9-2.2c0.6,0,1.1,0,1.6,0c45.7,0,91.4,0,137.1,0c1,0,1.8,0.2,2.5,1.1
			C12319.8,508.1,12320.5,508.8,12321.4,509.9z"/>
		<path id="XMLID_856_" class="st0" d="M12266.1,638.2c0.8,0,1.3,0,1.7,0c45.6,0,91.2,0,136.7,0c1.2,0,1.9,0.3,2.2,1.5
			c0.2,0.7,0.5,1.3,0.9,2.2c-0.6,0-1.1,0-1.6,0c-44.9,0-89.8,0-134.7,0c-1.2,0-2.1-0.2-2.9-1.2
			C12267.8,639.9,12267,639.2,12266.1,638.2z"/>
		<path id="XMLID_855_" class="st0" d="M12045.9,590.2c0.7,0,1.2,0,1.7,0c43.8,0,87.6,0,131.4,0c1.3,0,2,0.3,2.2,1.6
			c0.1,0.7,0.4,1.3,0.7,2.1c-0.7,0-1.2,0-1.7,0c-43.8,0-87.7,0-131.5,0c-1.2,0-1.8-0.3-2.1-1.5
			C12046.5,591.7,12046.2,591.1,12045.9,590.2z"/>
		<path id="XMLID_854_" class="st0" d="M12173.1,494.2c0.7,0,1.2,0,1.8,0c43.4,0,86.8,0,130.2,0c1.2,0,2,0.3,2.8,1.2
			c0.7,0.8,1.6,1.3,2.4,2c-0.1,0.1-0.2,0.3-0.3,0.4c-0.4,0-0.7,0.1-1.1,0.1c-44.3,0-88.7,0-133,0c-1,0-1.5-0.2-1.7-1.2
			C12173.8,495.9,12173.5,495.1,12173.1,494.2z"/>
		<path id="XMLID_853_" class="st0" d="M12042,578.2c0.6,0,1.1,0,1.5,0c43.8,0,87.6,0,131.4,0c1.2,0,1.7,0.3,2,1.4
			c0.2,0.7,0.5,1.3,0.8,2.2c-0.5,0-0.9,0.1-1.2,0.1c-44,0-88.1,0-132.1,0c-0.9,0-1.4-0.2-1.6-1.1
			C12042.5,579.9,12042.2,579.2,12042,578.2z"/>
		<path id="XMLID_852_" class="st0" d="M12050.3,602.2c0.7,0,1.2,0,1.7,0c43.7,0,87.3,0,131,0c1.5,0,2.2,0.4,2.4,1.8
			c0.1,0.6,0.3,1.1,0.6,1.9c-0.6,0-1.1,0-1.5,0c-43.8,0-87.6,0-131.4,0c-1.1,0-1.6-0.3-1.9-1.3
			C12051,603.8,12050.6,603.1,12050.3,602.2z"/>
		<path id="XMLID_851_" class="st0" d="M12038.5,566.2c0.6,0,1.1,0,1.5,0c43.4,0,86.8,0,130.2,0c1.1,0,1.8,0.3,2,1.4
			c0.2,0.7,0.5,1.4,0.8,2.3c-0.6,0-1.1,0-1.6,0c-43.5,0-87,0-130.5,0c-1.2,0-1.8-0.3-1.9-1.5
			C12038.9,567.7,12038.7,567,12038.5,566.2z"/>
		<path id="XMLID_850_" class="st0" d="M12189.7,617.9c-0.6,0-1.1,0-1.6,0c-43.4,0-86.7,0-130.1,0c-1.1,0-1.7-0.2-2-1.3
			c-0.2-0.8-0.6-1.5-0.9-2.4c0.6,0,1.1,0,1.5,0c43.5,0,86.9,0,130.4,0c1.2,0,1.8,0.3,2,1.5
			C12189.2,616.4,12189.5,617.1,12189.7,617.9z"/>
		<path id="XMLID_849_" class="st0" d="M12412.1,653.9c-0.7,0-1.3,0-1.8,0c-42.2,0-84.5,0-126.7,0c-1.3,0-2.4-0.2-3.2-1.3
			c-0.6-0.8-1.5-1.4-2.4-2.4c0.7,0,1.1,0,1.5,0c43.4,0,86.7,0,130.1,0c1.1,0,1.6,0.3,1.8,1.3
			C12411.5,652.3,12411.8,653,12412.1,653.9z"/>
		<path id="XMLID_848_" class="st0" d="M12036.2,557.8c-0.3-1.2-0.6-2.3-0.9-3.6c0.5,0,1,0,1.4,0c42.8,0,85.7,0,128.5,0
			c1.1,0,1.7,0.3,2,1.3c0.2,0.8,0.6,1.5,1,2.3C12124.1,557.8,12080.2,557.8,12036.2,557.8z"/>
		<path id="XMLID_847_" class="st0" d="M12193.2,629.9c-0.6,0-1.1,0-1.6,0c-42.8,0-85.5,0-128.3,0c-1.1,0-1.7-0.3-2-1.3
			c-0.3-0.7-0.6-1.4-1-2.3c0.6,0,1.1,0,1.5,0c43,0,85.9,0,128.9,0c1.2,0,1.8,0.3,1.9,1.5C12192.7,628.4,12192.9,629,12193.2,629.9z"
			/>
		<path id="XMLID_846_" class="st0" d="M12033.1,545.8c-0.3-1.2-0.6-2.3-0.9-3.6c0.6,0,1.1,0,1.6,0c41.9,0,83.8,0,125.7,0
			c1.1,0,1.8,0.2,2.1,1.3c0.2,0.7,0.6,1.4,1,2.3C12119.4,545.8,12076.3,545.8,12033.1,545.8z"/>
		<path id="XMLID_845_" class="st0" d="M12195.5,638.3c0.3,1.2,0.6,2.3,0.9,3.6c-0.6,0-1.1,0-1.6,0c-41.8,0-83.6,0-125.5,0
			c-1.2,0-1.9-0.3-2.3-1.5c-0.2-0.7-0.6-1.4-1-2.1C12109.2,638.3,12152.2,638.3,12195.5,638.3z"/>
		<path id="XMLID_844_" class="st0" d="M12298.2,485.9c-0.9,0-1.3,0-1.8,0c-41.5,0-82.9,0-124.4,0c-1.4,0-2.1-0.3-2.2-1.7
			c-0.1-0.6-0.3-1.2-0.5-2c0.6,0,1.1,0,1.5,0c40.7,0,81.4,0,122.1,0c1.1,0,2,0.3,2.7,1.1C12296.3,484.1,12297.1,484.9,12298.2,485.9
			z"/>
		<path id="XMLID_843_" class="st0" d="M12156.9,533.8c-42.3,0-84.4,0-126.6,0c-0.3-1.2-0.5-2.3-0.8-3.6c0.6,0,1.1,0,1.6,0
			c40.8,0,81.7,0,122.5,0c1.1,0,1.8,0.2,2.2,1.3C12156,532.3,12156.5,532.9,12156.9,533.8z"/>
		<path id="XMLID_842_" class="st0" d="M12198.4,650.3c0.3,1.1,0.5,2.3,0.8,3.6c-0.6,0-1.1,0-1.5,0c-40.9,0-81.7,0-122.6,0
			c-1,0-1.6-0.2-1.9-1.2c-0.3-0.8-0.8-1.6-1.2-2.4C12114.1,650.3,12156.2,650.3,12198.4,650.3z"/>
		<path id="XMLID_841_" class="st0" d="M12150.7,521.8c-41,0-81.9,0-122.8,0c-0.2-1.1-0.4-2.3-0.7-3.6c0.6,0,1.1,0,1.6,0
			c39.6,0,79.1,0,118.7,0c1.1,0,1.7,0.3,2.1,1.3C12149.8,520.2,12150.2,520.9,12150.7,521.8z"/>
		<path id="XMLID_840_" class="st0" d="M12415.5,665.9c-0.6,0-1.1,0-1.6,0c-39.2,0-78.5,0-117.7,0c-0.9,0-1.7-0.2-2.4-0.9
			c-0.9-0.9-1.9-1.7-3-2.7c0.5,0,0.9-0.1,1.2-0.1c40.5,0,80.9,0,121.4,0c0.9,0,1.3,0.2,1.4,1.1
			C12415,664.1,12415.3,664.9,12415.5,665.9z"/>
		<path id="XMLID_839_" class="st0" d="M12078.4,662.2c41,0,81.7,0,122.6,0c0.2,1.1,0.5,2.3,0.8,3.6c-0.5,0-0.9,0-1.4,0
			c-39.6,0-79.2,0-118.8,0c-0.9,0-1.5-0.2-1.9-1.1C12079.4,664,12078.9,663.2,12078.4,662.2z"/>
		<path id="XMLID_838_" class="st0" d="M12025.7,509.8c-0.2-1.2-0.4-2.3-0.6-3.6c0.5,0,1,0,1.4,0c38,0,76.1,0,114.1,0
			c1,0,1.6,0.3,2,1.2c0.4,0.8,0.8,1.5,1.3,2.4C12104.5,509.8,12065.1,509.8,12025.7,509.8z"/>
		<path id="XMLID_837_" class="st0" d="M12203.2,674.3c0.2,1.1,0.4,2.3,0.6,3.6c-0.5,0-0.9,0-1.4,0c-37.9,0-75.8,0-113.7,0
			c-0.9,0-1.5-0.2-1.9-1.1c-0.4-0.8-0.9-1.6-1.5-2.6C12124.7,674.3,12163.9,674.3,12203.2,674.3z"/>
		<path id="XMLID_836_" class="st0" d="M12285.1,473.9c-0.8,0-1.2,0-1.7,0c-38.3,0-76.5,0-114.8,0c-1.4,0-1.9-0.4-1.9-1.7
			c0-0.6-0.2-1.3-0.3-2c0.6,0,1.1,0,1.6,0c37.1,0,74.3,0,111.4,0c1,0,1.8,0.2,2.6,1C12282.9,472,12283.9,472.8,12285.1,473.9z"/>
		<path id="XMLID_835_" class="st0" d="M12023.9,497.8c-0.1-1.2-0.3-2.3-0.4-3.6c0.6,0,1,0,1.5,0c36,0,72.1,0,108.1,0
			c1.1,0,1.8,0.3,2.3,1.3c0.4,0.8,0.9,1.5,1.4,2.3C12099.1,497.8,12061.6,497.8,12023.9,497.8z"/>
		<path id="XMLID_834_" class="st0" d="M12205,686.3c0.1,1.1,0.3,2.2,0.4,3.5c-0.6,0-1.1,0-1.6,0c-35.7,0-71.4,0-107.1,0
			c-1.1,0-1.8-0.3-2.3-1.2c-0.4-0.8-0.9-1.5-1.5-2.3C12130.3,686.3,12167.6,686.3,12205,686.3z"/>
		<path id="XMLID_833_" class="st0" d="M12417.1,674.3c0.1,1.1,0.2,2.2,0.4,3.5c-0.6,0-1.1,0-1.6,0c-34.9,0-69.8,0-104.8,0
			c-1.1,0-1.9-0.2-2.7-0.9c-1-0.9-2.1-1.6-3.3-2.6C12342.5,674.3,12379.8,674.3,12417.1,674.3z"/>
		<path id="XMLID_832_" class="st0" d="M12022.7,485.8c-0.1-1.2-0.2-2.3-0.3-3.6c0.5,0,1,0,1.5,0c33.8,0,67.6,0,101.4,0
			c1,0,1.5,0.3,2,1.1s1.1,1.6,1.7,2.5C12093.5,485.8,12058.2,485.8,12022.7,485.8z"/>
		<path id="XMLID_831_" class="st0" d="M12206.2,698.3c0.1,1.1,0.1,2.3,0.2,3.6c-0.6,0-1.1,0-1.7,0c-33.2,0-66.4,0-99.6,0
			c-1,0-1.7-0.2-2.3-1.1c-0.5-0.8-1.1-1.6-1.7-2.5C12136.2,698.3,12171.1,698.3,12206.2,698.3z"/>
		<path id="XMLID_830_" class="st0" d="M12270.2,461.9c-0.5,0-0.9,0-1.4,0c-33.9,0-67.9,0-101.8,0c-1.6,0-1.6,0-1.7-1.7
			c0-0.6,0-1.2,0-1.9c0.5,0,1,0,1.4,0c32.7,0,65.3,0,98,0c0.7,0,1.5,0.3,2.1,0.7c1.2,0.8,2.3,1.7,3.4,2.6
			C12270.3,461.7,12270.2,461.8,12270.2,461.9z"/>
		<path id="XMLID_829_" class="st0" d="M12206.4,713.9c-0.6,0-1.1,0-1.7,0c-30,0-60.1,0-90.1,0c-1.2,0-2-0.3-2.6-1.2
			c-0.5-0.8-1.2-1.5-1.9-2.4c32.2,0,64.2,0,96.3,0C12206.4,711.5,12206.4,712.6,12206.4,713.9z"/>
		<path id="XMLID_828_" class="st0" d="M12320.9,686.3c32.4,0,64.4,0,96.6,0c-0.1,1.2-0.3,2.3-0.4,3.6c-0.5,0-0.9,0-1.4,0
			c-29.5,0-58.9,0-88.4,0c-0.7,0-1.5-0.3-2.1-0.6C12323.9,688.3,12322.6,687.4,12320.9,686.3z"/>
		<path id="XMLID_827_" class="st0" d="M12022.6,461.8c0.1-1.2,0.2-2.3,0.3-3.6c0.5,0,1,0,1.4,0c27.3,0,54.6,0,82,0
			c0.9,0,1.5,0.2,2,0.9c0.7,0.9,1.4,1.7,2.3,2.7C12081.2,461.8,12052,461.8,12022.6,461.8z"/>
		<path id="XMLID_826_" class="st0" d="M12253.6,449.8c-29.1,0-58.2,0-87.5,0c0.3-1.2,0.6-2.4,0.9-3.6c0.6,0,1,0,1.5,0
			c26.1,0,52.3,0,78.4,0c1,0,1.9,0.2,2.7,0.8c1.3,0.9,2.7,1.7,4,2.6C12253.6,449.6,12253.6,449.7,12253.6,449.8z"/>
		<path id="XMLID_825_" class="st0" d="M12120.4,722.3c28.6,0,56.9,0,85.4,0c-0.1,1.2-0.3,2.4-0.4,3.6c-0.6,0-1.1,0-1.5,0
			c-26.2,0-52.4,0-78.6,0c-1,0-1.7-0.2-2.4-1C12122.2,724,12121.4,723.3,12120.4,722.3z"/>
		<path id="XMLID_824_" class="st0" d="M12024.5,449.8c0.3-1.1,0.6-2.1,0.9-3.1c0.1-0.2,0.4-0.3,0.6-0.4c0.3-0.1,0.6,0,1,0
			c22.3,0,44.7,0,67,0c1.1,0,1.9,0.3,2.6,1c0.8,0.8,1.7,1.6,2.7,2.5C12074.3,449.8,12049.5,449.8,12024.5,449.8z"/>
		<path id="XMLID_823_" class="st0" d="M12414.3,698.3c-0.1,0.2-0.1,0.3-0.1,0.4c-1.7,3.2-1.7,3.2-5.2,3.2c-20.1,0-40.2,0-60.3,0
			c-1,0-2-0.3-2.8-0.7c-1.8-0.8-3.5-1.8-5.2-2.9C12365.1,698.3,12389.6,698.3,12414.3,698.3z"/>
		<path id="XMLID_822_" class="st0" d="M12132.7,734.3c23.8,0,47.2,0,70.8,0c-0.4,1.1-0.7,2.1-1.1,3.1c-0.1,0.2-0.4,0.4-0.7,0.5
			s-0.6,0-1,0c-20.7,0-41.4,0-62.1,0c-1.2,0-2.1-0.3-3-1.1C12134.8,736,12133.8,735.2,12132.7,734.3z"/>
		<path id="XMLID_821_" class="st0" d="M12171.8,437.5c1.2-1,2.3-2,3.5-3c0.3-0.2,0.7-0.3,1.1-0.3c15.9,0,31.7,0,47.6,0
			c0.4,0,0.8,0,1.2,0.2c2.5,1,4.9,2.1,7.3,3.3c-20.2,0-40.4,0-60.6,0C12171.9,437.7,12171.9,437.6,12171.8,437.5z"/>
		<path id="XMLID_820_" class="st0" d="M12029.1,437.8c0.8-1.2,1.5-2.2,2.3-3.2c0.2-0.2,0.7-0.4,1-0.4c15.4,0,30.8,0,46.2,0
			c0.3,0,0.7,0,1,0.2c1.7,1,3.3,2.1,5.3,3.3C12066.2,437.8,12047.8,437.8,12029.1,437.8z"/>
		<path id="XMLID_819_" class="st0" d="M12149.3,746.3c16,0,31.9,0,47.9,0c-0.8,2.1-3,3.6-5.2,3.6c-11.6,0-23.1,0-34.7,0
			c-1.1,0-2.2-0.3-3.2-0.8c-1.7-0.8-3.3-1.7-4.9-2.6C12149.2,746.4,12149.2,746.3,12149.3,746.3z"/>
		<path id="XMLID_818_" class="st0" d="M12370.3,710.3c9.5,0,18.9,0,28.4,0C12389.2,713.2,12379.8,712.6,12370.3,710.3z"/>
	</g>
</g>
</svg>
