<?xml version="1.0" encoding="utf-8"?>
<!-- Generator: Adobe Illustrator 19.0.0, SVG Export Plug-In . SVG Version: 6.00 Build 0)  -->
<svg version="1.1" id="Warstwa_1" xmlns="http://www.w3.org/2000/svg" xmlns:xlink="http://www.w3.org/1999/xlink" x="0px" y="0px"
	 viewBox="163 15 825 472" style="enable-background:new 163 15 825 472;" xml:space="preserve">
<style type="text/css">
	.st0{clip-path:url(#SVGID_2_);fill:url(#SVGID_3_);}
	.st1{fill:#FFFFFF;}
	.st2{font-family:'Montserrat-Regular';}
	.st3{font-size:52.7952px;}
	.st4{letter-spacing:2;}
	.st5{font-family:'Montserrat-Black';}
	.st6{font-size:78.0929px;}
	.st7{letter-spacing:4;}
	.st8{fill:#FDC912;}
	.st9{opacity:0.2;enable-background:new    ;}
	.st10{fill:#D9D9D9;}
	.st11{opacity:0.5;fill:#C4C4C4;enable-background:new    ;}
	.st12{fill:#091B31;}
	.st13{fill:url(#SVGID_4_);}
	.st14{fill:#DBA521;}
	.st15{fill:#E9BF47;}
	.st16{fill:url(#SVGID_5_);}
	.st17{fill:url(#SVGID_6_);}
	.st18{fill:url(#SVGID_7_);}
	.st19{fill:url(#SVGID_8_);}
	.st20{opacity:0.3;enable-background:new    ;}
	.st21{opacity:0.1;enable-background:new    ;}
	.st22{fill:#D4BA9E;}
	.st23{fill:#F2E8BF;}
	.st24{fill:#231F20;}
	.st25{font-family:'ArialMT';}
	.st26{font-size:14.4593px;}
	.st27{font-family:'Montserrat-ExtraBold';}
	.st28{font-size:15.9065px;}
	.st29{font-size:18.8309px;}
</style>
<g>
	<g>
		<g>
			<g>
				<defs>
					<rect id="SVGID_1_" x="163" y="14.1" width="825" height="472"/>
				</defs>
				<clipPath id="SVGID_2_">
					<use xlink:href="#SVGID_1_"  style="overflow:visible;"/>
				</clipPath>
				
					<linearGradient id="SVGID_3_" gradientUnits="userSpaceOnUse" x1="-554.5809" y1="-745.1774" x2="-552.9921" y2="-745.1774" gradientTransform="matrix(526.5874 0 0 526.5874 292175.5 392693.625)">
					<stop  offset="0" style="stop-color:#379E6E"/>
					<stop  offset="1" style="stop-color:#72C6D4"/>
				</linearGradient>
				<rect x="140.2" y="-142.7" class="st0" width="870.6" height="870.6"/>
			</g>
		</g>
	</g>
</g>
<g>
	<path class="st1" d="M224.9,121.6c7.2-0.1,14.1-2.9,19.3-8s8.2-11.9,8.4-19.1c0.1-5.5-1.3-10.8-4.2-15.4c-0.4-0.6-1.1-1-1.8-1
		c-0.8,0-1.4,0.4-1.8,1.1c-0.4,0.7-0.4,1.5,0.1,2.1c2.5,4,3.7,8.7,3.5,13.5c-0.5,11.7-10.8,22.1-22.6,22.6
		c-6.7,0.3-13.2-2.2-17.9-6.9c-4.7-4.7-7.2-11.2-6.9-17.9c0.6-11.7,10.9-22,22.7-22.6c4.8-0.2,9.5,1,13.5,3.5c0.7,0.4,1.4,0.4,2.1,0
		c0.7-0.4,1.1-1,1.1-1.8c0-0.7-0.4-1.4-1-1.8c-4.6-2.9-10-4.3-15.4-4.2c-7.2,0.2-14,3.2-19.1,8.4c-5.1,5.2-8,12-8,19.3
		c-0.1,7.5,2.8,14.6,8.2,20C210.4,118.7,217.4,121.6,224.9,121.6C224.7,121.6,224.8,121.6,224.9,121.6"/>
	<path class="st1" d="M224.6,76.9c-1,0-1.7,0.5-2.1,1.5L212,103.5c-0.3,0.8-0.3,1.5,0.1,2.1c0.4,0.7,1,1,1.8,1
		c0.4,0,0.8-0.1,1.2-0.3c0.4-0.2,0.7-0.6,0.9-1l3.2-7.7h11l3.1,7.7c0.2,0.4,0.4,0.8,0.8,1c0.4,0.2,0.8,0.4,1.2,0.4
		c0.8,0,1.4-0.3,1.8-1c0.4-0.6,0.5-1.4,0.2-2.1l-10.6-25.2C226.3,77.4,225.6,76.9,224.6,76.9 M220.6,94.1l4.1-10l4,10H220.6z"/>
	<path class="st1" d="M278.6,95.6c0.3-0.5,0.4-1,0.1-1.6l-7.4-17.6c-0.3-0.7-0.8-1.1-1.6-1.1c-0.7,0-1.2,0.4-1.6,1.1l-7.3,17.5
		c-0.2,0.6-0.2,1.1,0.1,1.6c0.3,0.5,0.8,0.8,1.4,0.8c0.3,0,0.6-0.1,0.9-0.2c0.3-0.2,0.5-0.4,0.7-0.8l2.2-5.3h7.5l2.1,5.3
		c0.1,0.3,0.3,0.6,0.6,0.8c0.3,0.2,0.6,0.3,0.9,0.3C277.9,96.3,278.3,96.1,278.6,95.6 M267.2,87.3l2.7-6.5l2.6,6.5H267.2z"/>
	<path class="st1" d="M284.8,84.7c0.7-0.3,1.5-0.5,2.5-0.4c0.2,0,0.5,0,0.7-0.1s0.4-0.2,0.5-0.4c0.1-0.2,0.2-0.5,0.2-0.8
		c0-0.4-0.1-1-0.9-1.4c-0.6-0.3-1.3-0.3-2.3-0.1c-0.8,0.2-1.5,0.5-2.1,1c-0.1-0.3-0.2-0.6-0.4-0.8c-0.3-0.3-0.7-0.4-1.2-0.4
		s-0.9,0.1-1.2,0.4c-0.3,0.3-0.4,0.7-0.4,1.2v11.9c0,0.5,0.1,0.9,0.4,1.2c0.3,0.3,0.7,0.4,1.2,0.4s0.9-0.1,1.2-0.4
		c0.3-0.3,0.4-0.7,0.4-1.2V86C283.6,85.4,284.1,85,284.8,84.7"/>
	<path class="st1" d="M298,93.1h-0.9c-0.5,0-0.9-0.2-1.2-0.6c-0.3-0.4-0.5-0.9-0.5-1.6v-6.5h2c0.4,0,0.8-0.1,1.1-0.4
		c0.3-0.3,0.4-0.6,0.4-1s-0.1-0.8-0.4-1.1c-0.3-0.3-0.6-0.4-1.1-0.4h-2v-3.1c0-0.5-0.1-0.9-0.4-1.1c-0.3-0.3-0.7-0.5-1.1-0.5
		c-0.5,0-0.9,0.1-1.2,0.5c-0.3,0.3-0.5,0.7-0.5,1.1v3.1h-0.8c-0.4,0-0.8,0.1-1.1,0.4c-0.3,0.3-0.4,0.6-0.4,1.1c0,0.4,0.1,0.7,0.4,1
		s0.6,0.4,1.1,0.4h0.8v6.5c0,1,0.2,1.9,0.6,2.7c0.4,0.8,1,1.5,1.8,1.9c0.7,0.5,1.6,0.7,2.5,0.7h0.5c0.5,0,1-0.1,1.3-0.4
		c0.4-0.3,0.5-0.7,0.5-1.2s-0.1-0.8-0.4-1.1C298.7,93.3,298.4,93.1,298,93.1"/>
	<path class="st1" d="M342.3,92.6c0.6-1.1,0.9-2.4,0.9-3.8s-0.3-2.7-1-3.9c-0.7-1.1-1.6-2-2.7-2.7s-2.4-1-3.8-1s-2.7,0.3-3.8,1
		s-2,1.6-2.7,2.7c-0.6,1.1-1,2.4-1,3.9v11.9c0,0.5,0.2,0.9,0.5,1.2c0.3,0.3,0.7,0.5,1.2,0.5s0.9-0.2,1.2-0.5s0.4-0.7,0.4-1.2v-6.3
		c0.5,0.5,1.1,0.9,1.8,1.2c0.9,0.5,1.9,0.7,3,0.7c1.3,0,2.5-0.3,3.6-1C340.9,94.7,341.7,93.8,342.3,92.6 M339.5,91.1
		c-0.4,0.7-0.9,1.2-1.5,1.6s-1.4,0.6-2.2,0.6c-0.8,0-1.6-0.2-2.2-0.6s-1.2-1-1.5-1.6s-0.6-1.5-0.6-2.4s0.2-1.7,0.6-2.4
		s0.9-1.2,1.5-1.6s1.4-0.6,2.2-0.6c0.8,0,1.6,0.2,2.2,0.6s1.2,1,1.5,1.6s0.6,1.5,0.6,2.4C340.1,89.7,339.9,90.4,339.5,91.1"/>
	<path class="st1" d="M357.4,93.6c0-0.4-0.2-0.8-0.6-1.1c-0.3-0.2-0.6-0.4-1-0.4s-0.7,0.1-1,0.4c-0.3,0.2-0.8,0.5-1.3,0.6
		s-1.1,0.3-1.6,0.3c-0.9,0-1.8-0.2-2.5-0.6s-1.3-1-1.7-1.7c-0.2-0.4-0.4-0.8-0.5-1.2h9.6c0.4,0,0.8-0.1,1.1-0.4
		c0.3-0.3,0.4-0.6,0.4-1c0-1.4-0.3-2.7-0.8-3.8c-0.5-1.1-1.3-2-2.4-2.6c-1-0.6-2.2-1-3.7-1c-1.4,0-2.7,0.3-3.8,1
		c-1.1,0.6-2,1.5-2.6,2.7c-0.6,1.1-0.9,2.5-0.9,3.9c0,1.5,0.3,2.8,1,3.9s1.6,2,2.8,2.7c1.2,0.6,2.5,1,4,1c0.8,0,1.7-0.2,2.6-0.5
		s1.7-0.7,2.3-1.2C357.3,94.3,357.4,93.9,357.4,93.6 M347.6,86.3c0.3-0.7,0.8-1.3,1.5-1.7c0.6-0.4,1.5-0.6,2.4-0.6
		c0.8,0,1.5,0.2,2.1,0.5c0.6,0.4,1,0.9,1.3,1.5c0.2,0.4,0.3,0.8,0.4,1.2h-8C347.4,87,347.5,86.6,347.6,86.3"/>
	<path class="st1" d="M368.7,85.9c0.3,0.6,0.5,1.4,0.5,2.3v6.5c0,0.5,0.2,0.9,0.5,1.2c0.3,0.3,0.7,0.5,1.2,0.5s0.9-0.2,1.2-0.5
		s0.5-0.7,0.5-1.2v-6.5c0-1.5-0.3-2.8-0.9-3.8s-1.4-1.9-2.4-2.4s-2.1-0.8-3.4-0.8c-1.2,0-2.3,0.3-3.3,0.8c-0.1,0.1-0.2,0.1-0.3,0.2
		c-0.1-0.1-0.2-0.3-0.3-0.4c-0.3-0.3-0.7-0.5-1.2-0.5s-0.9,0.1-1.2,0.5c-0.3,0.3-0.5,0.7-0.5,1.2v11.7c0,0.5,0.2,0.9,0.5,1.2
		c0.3,0.3,0.7,0.5,1.2,0.5s0.9-0.2,1.2-0.5s0.4-0.7,0.4-1.2v-9.3c0.3-0.3,0.6-0.6,1-0.8c0.5-0.3,1.2-0.4,1.9-0.4
		c0.8,0,1.4,0.1,2,0.4C368,84.9,368.4,85.4,368.7,85.9"/>
	<path class="st1" d="M324.4,78L324.4,78c-1-1-2.1-1.7-3.4-2.3s-2.8-0.8-4.4-0.8s-3.1,0.3-4.4,0.8s-2.5,1.3-3.4,2.3
		c-1,1-1.7,2.1-2.2,3.5c-0.5,1.3-0.8,2.8-0.8,4.4s0.3,3.1,0.8,4.4s1.3,2.5,2.2,3.5c0.9,1,2.1,1.7,3.4,2.3s2.8,0.8,4.4,0.8
		s3-0.3,4.4-0.8c1.3-0.5,2.5-1.3,3.4-2.3s1.7-2.1,2.2-3.5c0.5-1.3,0.8-2.8,0.8-4.4s-0.3-3.1-0.8-4.4C326.2,80.1,325.4,78.9,324.4,78
		 M323.4,88.8c-0.4,0.9-0.9,1.7-1.5,2.4s-1.4,1.2-2.3,1.6s-1.9,0.6-2.9,0.6c-1.1,0-2.1-0.2-2.9-0.6c-0.9-0.4-1.7-0.9-2.3-1.6
		c-0.6-0.7-1.1-1.5-1.5-2.4s-0.5-1.9-0.5-3s0.2-2.1,0.5-3c0.4-0.9,0.9-1.7,1.5-2.4c0.6-0.7,1.4-1.2,2.3-1.6s1.9-0.6,3-0.6
		s2.1,0.2,2.9,0.6c0.9,0.4,1.7,0.9,2.3,1.6c0.6,0.7,1.2,1.5,1.5,2.4c0.4,0.9,0.5,1.9,0.5,3C324,86.9,323.8,87.9,323.4,88.8"/>
	<path class="st1" d="M275.4,109.6c-0.3-0.3-0.8-0.5-1.5-0.6c-0.4,0-0.7-0.1-0.9-0.2s-0.4-0.2-0.5-0.4c-0.1-0.1-0.1-0.3-0.1-0.5
		c0-0.3,0.1-0.5,0.4-0.7s0.6-0.2,1-0.2c0.2,0,0.4,0,0.6,0.1s0.3,0.1,0.4,0.2s0.2,0.2,0.3,0.3c0,0.1,0.1,0.1,0.2,0.1s0.2,0,0.2,0
		c0.1,0,0.1-0.1,0.1-0.2s0-0.1,0-0.2c-0.1-0.2-0.3-0.3-0.4-0.5c-0.2-0.1-0.4-0.2-0.6-0.3c-0.2-0.1-0.5-0.1-0.8-0.1
		c-0.4,0-0.7,0.1-1,0.2s-0.5,0.3-0.7,0.5s-0.3,0.5-0.3,0.8c0,0.4,0.2,0.8,0.5,1c0.4,0.3,0.8,0.5,1.5,0.5c0.5,0.1,0.9,0.2,1.1,0.4
		c0.2,0.2,0.4,0.5,0.4,0.8c0,0.2-0.1,0.4-0.2,0.6s-0.3,0.3-0.5,0.4s-0.5,0.1-0.8,0.1c-0.2,0-0.5,0-0.7-0.1s-0.4-0.1-0.6-0.3
		c-0.1-0.1-0.3-0.2-0.4-0.4c0-0.1-0.1-0.1-0.2-0.1s-0.1,0-0.2,0s-0.2,0.1-0.2,0.1c0,0.1,0,0.1,0,0.2c0.1,0.2,0.3,0.4,0.5,0.6
		s0.5,0.3,0.8,0.4s0.6,0.1,0.9,0.1s0.6,0,0.8-0.1c0.2-0.1,0.5-0.2,0.7-0.3s0.3-0.3,0.4-0.5s0.2-0.4,0.2-0.7
		C275.9,110.3,275.8,109.9,275.4,109.6"/>
	<path class="st1" d="M282.2,106.6h-1.9h-0.6h-1.9c-0.1,0-0.1,0-0.2,0.1c-0.1,0-0.1,0.1-0.1,0.2s0,0.1,0.1,0.2c0,0,0.1,0.1,0.2,0.1
		h1.9v4.9c0,0.1,0,0.1,0.1,0.2s0.1,0.1,0.2,0.1s0.2,0,0.2-0.1c0.1-0.1,0.1-0.1,0.1-0.2v-5h1.9c0.1,0,0.1,0,0.2-0.1
		c0.1,0,0.1-0.1,0.1-0.2s0-0.1-0.1-0.2C282.3,106.7,282.3,106.6,282.2,106.6"/>
	<path class="st1" d="M289.3,106.6c-0.1,0-0.2,0-0.2,0.1s-0.1,0.1-0.1,0.2v3.5c0,0.3-0.1,0.5-0.2,0.8s-0.4,0.4-0.6,0.5
		c-0.3,0.1-0.6,0.2-1,0.2s-0.7-0.1-1-0.2s-0.5-0.3-0.7-0.5s-0.2-0.5-0.2-0.8v-3.5c0-0.1,0-0.1-0.1-0.2c-0.1,0-0.1-0.1-0.2-0.1
		s-0.2,0-0.2,0.1s-0.1,0.1-0.1,0.2v3.5c0,0.4,0.1,0.7,0.3,1c0.2,0.3,0.5,0.5,0.9,0.7s0.8,0.3,1.3,0.3s0.9-0.1,1.3-0.3
		c0.4-0.2,0.7-0.4,0.9-0.7c0.2-0.3,0.3-0.6,0.3-1v-3.5c0-0.1,0-0.1-0.1-0.2C289.4,106.7,289.4,106.6,289.3,106.6"/>
	<path class="st1" d="M296.4,107.4c-0.3-0.3-0.6-0.5-1-0.6s-0.8-0.2-1.2-0.2h-1.4c-0.1,0-0.2,0-0.2,0.1s-0.1,0.1-0.1,0.2v5.1
		c0,0.1,0,0.1,0.1,0.2c0.1,0,0.1,0.1,0.2,0.1h1.4c0.5,0,0.9-0.1,1.2-0.2c0.4-0.1,0.7-0.3,1-0.6c0.3-0.3,0.5-0.6,0.6-0.9
		s0.2-0.7,0.2-1.1s-0.1-0.8-0.2-1.1C296.9,108,296.7,107.7,296.4,107.4 M296.4,110.7c-0.2,0.4-0.5,0.6-0.9,0.8
		c-0.4,0.2-0.8,0.3-1.3,0.3h-1.1v-4.7h1.1c0.5,0,0.9,0.1,1.3,0.3c0.4,0.2,0.7,0.5,0.9,0.8c0.2,0.4,0.3,0.8,0.3,1.2
		C296.7,109.9,296.6,110.3,296.4,110.7"/>
	<path class="st1" d="M300.2,106.6c-0.1,0-0.2,0-0.2,0.1s-0.1,0.1-0.1,0.2v5.1c0,0.1,0,0.1,0.1,0.2c0.1,0,0.1,0.1,0.2,0.1
		s0.2,0,0.2-0.1s0.1-0.1,0.1-0.2v-5.1c0-0.1,0-0.1-0.1-0.2C300.3,106.7,300.3,106.6,300.2,106.6"/>
	<path class="st1" d="M308.5,107.4c-0.3-0.3-0.6-0.5-1-0.6s-0.8-0.2-1.3-0.2s-0.9,0.1-1.3,0.2s-0.7,0.4-1,0.6
		c-0.3,0.3-0.5,0.6-0.7,0.9c-0.2,0.4-0.2,0.7-0.2,1.2s0.1,0.8,0.2,1.2c0.2,0.4,0.4,0.7,0.7,0.9c0.3,0.3,0.6,0.5,1,0.6
		s0.8,0.2,1.3,0.2s0.9-0.1,1.3-0.2s0.7-0.4,1-0.6c0.3-0.3,0.5-0.6,0.7-0.9s0.2-0.8,0.2-1.2s-0.1-0.8-0.2-1.2
		C309,108,308.8,107.6,308.5,107.4 M308.6,110.4c-0.1,0.3-0.3,0.5-0.5,0.8c-0.2,0.2-0.5,0.4-0.8,0.5s-0.6,0.2-1,0.2s-0.7-0.1-1-0.2
		s-0.6-0.3-0.8-0.5c-0.2-0.2-0.4-0.5-0.5-0.8s-0.2-0.6-0.2-1c0-0.3,0.1-0.6,0.2-0.9s0.3-0.5,0.5-0.8c0.2-0.2,0.5-0.4,0.8-0.5
		s0.7-0.2,1-0.2s0.7,0.1,1,0.2s0.6,0.3,0.8,0.5c0.2,0.2,0.4,0.5,0.5,0.8s0.2,0.6,0.2,0.9S308.7,110.1,308.6,110.4"/>
	<path class="st1" d="M318.2,110c0.1,0,0.2-0.1,0.3-0.1c0.3-0.1,0.5-0.4,0.7-0.6c0.2-0.3,0.3-0.5,0.3-0.9s-0.1-0.6-0.3-0.9
		c-0.2-0.3-0.4-0.5-0.7-0.6c-0.3-0.1-0.6-0.2-1-0.2H316c-0.1,0-0.2,0-0.2,0.1c-0.1,0-0.1,0.1-0.1,0.2v5.1c0,0.1,0,0.1,0.1,0.2
		c0.1,0,0.1,0.1,0.2,0.1s0.2,0,0.2-0.1s0.1-0.1,0.1-0.2v-2h1.2h0.1l1.4,2.1l0.1,0.1c0,0,0.1,0,0.2,0s0.2,0,0.3-0.1
		c0.1-0.1,0-0.2,0-0.3L318.2,110z M317.4,109.5h-1.2v-2.4h1.2c0.3,0,0.5,0,0.7,0.1s0.4,0.2,0.5,0.4c0.1,0.2,0.2,0.4,0.2,0.6
		s-0.1,0.4-0.2,0.6s-0.3,0.3-0.5,0.4C317.9,109.5,317.6,109.5,317.4,109.5"/>
	<path class="st1" d="M325.8,107.2c0.1,0,0.2,0,0.2-0.1s0.1-0.1,0.1-0.2s0-0.1-0.1-0.2c-0.1,0-0.1-0.1-0.2-0.1h-3.7
		c-0.1,0-0.2,0-0.2,0.1s-0.1,0.1-0.1,0.2v5.1c0,0.1,0,0.1,0.1,0.2c0.1,0,0.1,0.1,0.2,0.1h3.7c0.1,0,0.2,0,0.2-0.1s0.1-0.1,0.1-0.2
		s0-0.1-0.1-0.2s-0.1-0.1-0.2-0.1h-3.4v-2h2.5c0.1,0,0.2,0,0.2-0.1s0.1-0.1,0.1-0.2s0-0.1-0.1-0.2c-0.1,0-0.1-0.1-0.2-0.1h-2.5v-2
		L325.8,107.2L325.8,107.2z"/>
	<path class="st1" d="M332.6,106.9c0-0.1,0-0.1-0.1-0.2c0,0-0.1-0.1-0.2-0.1h-0.1c0,0-0.1,0-0.1,0.1l-2.9,2.7v-2.5
		c0-0.1,0-0.1-0.1-0.2s-0.1-0.1-0.2-0.1s-0.2,0-0.2,0.1c-0.1,0.1-0.1,0.1-0.1,0.2v5.1c0,0.1,0,0.1,0.1,0.2s0.1,0.1,0.2,0.1
		s0.2,0,0.2-0.1c0.1-0.1,0.1-0.1,0.1-0.2v-1.9l0.7-0.7l2.2,2.7c0.1,0.1,0.1,0.1,0.3,0.1c0.1,0,0.1,0,0.2-0.1c0,0,0.1-0.1,0.1-0.2
		s0-0.1-0.1-0.2l-2.2-2.8L332.6,106.9C332.6,107,332.6,107,332.6,106.9"/>
	<path class="st1" d="M338.8,111.8h-3.1v-4.9c0-0.1,0-0.1-0.1-0.2s-0.1-0.1-0.2-0.1s-0.2,0-0.2,0.1c-0.1,0.1-0.1,0.1-0.1,0.2v5.1
		c0,0.1,0,0.1,0.1,0.2c0.1,0,0.1,0.1,0.2,0.1h3.4c0.1,0,0.2,0,0.2-0.1c0.1,0,0.1-0.1,0.1-0.2s0-0.1-0.1-0.2
		C338.9,111.8,338.9,111.8,338.8,111.8"/>
	<path class="st1" d="M343.7,106.8c-0.1-0.1-0.2-0.2-0.3-0.2c-0.1,0-0.2,0.1-0.3,0.2l-2.3,5.1c0,0.1,0,0.2,0,0.3
		c0,0.1,0.1,0.1,0.3,0.1c0.1,0,0.1,0,0.2,0l0.1-0.1l0.5-1.2h3.1l0.5,1.2c0,0.1,0.1,0.1,0.1,0.1s0.1,0,0.2,0s0.2,0,0.3-0.1
		s0.1-0.2,0-0.3L343.7,106.8z M342.1,110.5l1.3-2.9l1.3,2.9H342.1z"/>
	<path class="st1" d="M354.2,106.6c-0.1,0-0.2,0-0.3,0.1l-2.5,4.6l-2.5-4.6c-0.1-0.1-0.1-0.1-0.3-0.1c-0.1,0-0.2,0-0.2,0.1
		s-0.1,0.1-0.1,0.2v5.1c0,0.1,0,0.1,0.1,0.2s0.1,0.1,0.2,0.1s0.2,0,0.2-0.1c0.1-0.1,0.1-0.1,0.1-0.2v-4.1l2.2,4
		c0.1,0.1,0.1,0.2,0.3,0.2c0.1,0,0.2,0,0.3-0.1l2.2-4.1v4.1c0,0.1,0,0.1,0.1,0.2s0.1,0.1,0.2,0.1s0.2,0,0.2-0.1
		c0.1-0.1,0.1-0.1,0.1-0.2v-5.1c0-0.1,0-0.1-0.1-0.2C354.3,106.7,354.2,106.6,354.2,106.6"/>
	<path class="st1" d="M361.4,106.6c-0.1,0-0.1,0-0.2,0l-0.1,0.1l-2,2.9l-2-2.9l-0.1-0.1c0,0-0.1,0-0.2,0s-0.1,0-0.2,0.1
		c0,0-0.1,0.1-0.1,0.2s0,0.1,0.1,0.2l2.2,3.1v1.8c0,0.1,0,0.1,0.1,0.2s0.1,0.1,0.2,0.1s0.2,0,0.2-0.1c0.1-0.1,0.1-0.1,0.1-0.2v-1.8
		l2.2-3.1c0.1-0.1,0.1-0.1,0.1-0.2s0-0.1-0.1-0.2S361.5,106.6,361.4,106.6"/>
	<path class="st1" d="M372.4,109.3h-6.3c-0.1,0-0.2,0.1-0.2,0.2s0.1,0.2,0.2,0.2h6.3c0.1,0,0.2-0.1,0.2-0.2S372.4,109.3,372.4,109.3
		"/>
	<path class="st1" d="M267.2,109.3h-6.3c-0.1,0-0.2,0.1-0.2,0.2s0.1,0.2,0.2,0.2h6.3c0.1,0,0.2-0.1,0.2-0.2S267.3,109.3,267.2,109.3
		"/>
</g>
<text transform="matrix(1 0 0 1 468.7594 184.434)" class="st1 st2 st3 st4">OFERTA</text>
<text transform="matrix(1 0 0 1 468.7594 260.334)" class="st1 st5 st6 st7">PRACY!</text>
<g>
	<g>
		<path class="st1" d="M763.2,149.7c0,3.8-3.1,6.9-6.9,6.9c-3.8,0-6.9-3.1-6.9-6.9c0-3.8,3.1-6.9,6.9-6.9
			C760.1,142.8,763.2,145.9,763.2,149.7z"/>
		<path class="st1" d="M768.8,170.7v-0.4c0-6.6-5.4-12-11.9-12h-1.1c-6.6,0-11.9,5.4-11.9,12v0.4H768.8z"/>
	</g>
	<g>
		<path class="st1" d="M729.3,157.4c0,14.9,12.1,27,27,27s27-12.1,27-27s-12.1-27-27-27C741.4,130.4,729.3,142.5,729.3,157.4z
			 M731.9,157.4c0-13.5,11-24.4,24.4-24.4c13.5,0,24.4,11,24.4,24.4c0,13.5-11,24.4-24.4,24.4C742.8,181.8,731.9,170.9,731.9,157.4z
			"/>
	</g>
</g>
<g>
	<path class="st8" d="M773.9,316.7H497v-37.4c0,0,210.1,0,245.3,0C777.6,279.3,773.9,316.7,773.9,316.7z"/>
</g>
<path class="st9" d="M471.1,211.8h-0.6l0.5,2.4v-2.4H471.1z"/>
<g>
	<g>
		<path class="st9" d="M307.6,339.1c0,2.1,39.5,3.8,88.1,3.8c48.7,0,88.1-1.7,88.1-3.8c0-2.1-39.5-3.8-88.1-3.8
			S307.6,337,307.6,339.1z"/>
		<g>
			<g>
				<path class="st10" d="M467.7,232.4l-7-31.9c-1.3-6.1-4.1-8.2-10.6-8.2h-40.6l0,0c-2.4,0-4.4-2-4.4-4.4s2-4.4,4.4-4.4l0,0h40.7
					c10.7,0,16.9,5,19.2,15.1l7,31.9l0,0c0.5,2.4-1,4.7-3.4,5.3C470.6,236.3,468.2,234.8,467.7,232.4L467.7,232.4z"/>
			</g>
			<path class="st11" d="M474.7,232.2l-7-31.9c-2.3-10.2-8.6-15.2-19.2-15.2h-40.7c-0.8,0-1.5,0.2-2.2,0.6c0.8-1.3,2.2-2.2,3.8-2.2
				h40.7c10.7,0,16.9,5,19.2,15.1l7,31.9c0.4,1.9-0.5,3.8-2.1,4.8C474.7,234.4,474.9,233.3,474.7,232.2z"/>
			<rect x="396" y="241.9" class="st10" width="7.7" height="55.4"/>
			<rect x="393.5" y="268.8" class="st12" width="12.8" height="35.1"/>
			<rect x="393.5" y="248.4" class="st12" width="12.8" height="8.6"/>
			<g>
				<rect x="458.1" y="319.7" class="st12" width="2.8" height="12.6"/>
				<path class="st12" d="M463,335.2c0,3.4-2.8,6.1-6.1,6.1c-3.4,0-6.1-2.8-6.1-6.1c0-3.4,2.7-6.1,6.1-6.1
					C460.2,329.1,463,331.8,463,335.2z"/>
				<path class="st10" d="M461.8,335.2c0,2.8-2.2,5-5,5s-5-2.2-5-5s2.2-5,5-5C459.6,330.2,461.8,332.5,461.8,335.2z"/>
			</g>
			<g>
				<rect x="434.1" y="318.7" class="st12" width="2.8" height="13.6"/>
				<path class="st12" d="M439,335.2c0,3.4-2.8,6.1-6.1,6.1c-3.4,0-6.1-2.8-6.1-6.1c0-3.4,2.7-6.1,6.1-6.1S439,331.8,439,335.2z"/>
				<path class="st10" d="M437.9,335.2c0,2.8-2.2,5-5,5s-5-2.2-5-5s2.2-5,5-5S437.9,332.5,437.9,335.2z"/>
			</g>
			<g>
				<rect x="362.7" y="318.7" class="st12" width="2.8" height="13.6"/>
				<path class="st12" d="M360.6,335.2c0,3.4,2.8,6.1,6.1,6.1c3.4,0,6.2-2.8,6.2-6.1c0-3.4-2.8-6.1-6.2-6.1
					C363.4,329.1,360.6,331.8,360.6,335.2z"/>
				<path class="st10" d="M361.8,335.2c0,2.8,2.2,5,5,5c2.8,0,5-2.2,5-5s-2.2-5-5-5C364,330.2,361.8,332.5,361.8,335.2z"/>
			</g>
			<g>
				<rect x="338.9" y="318.7" class="st12" width="2.8" height="13.6"/>
				<path class="st12" d="M336.9,335.2c0,3.4,2.7,6.1,6.1,6.1s6.1-2.8,6.1-6.1c0-3.4-2.8-6.1-6.1-6.1
					C339.6,329.1,336.9,331.8,336.9,335.2z"/>
				<path class="st10" d="M338,335.2c0,2.8,2.2,5,5,5c2.8,0,5-2.2,5-5s-2.2-5-5-5C340.3,330.2,338,332.5,338,335.2z"/>
			</g>
			<path class="st12" d="M424.6,243.8c-0.2,4.2-3.7,7.6-8,7.6h-33.1c-4.3,0-7.8-3.3-8-7.6H424.6z"/>
			<g>
				
					<linearGradient id="SVGID_4_" gradientUnits="userSpaceOnUse" x1="1035.6896" y1="321.0803" x2="1058.2476" y2="282.2799" gradientTransform="matrix(-1 0 0 -1 1434.0339 504)">
					<stop  offset="0" style="stop-color:#DBA521"/>
					<stop  offset="1" style="stop-color:#C28524"/>
				</linearGradient>
				<path class="st13" d="M315.7,129.7c0,0,69.7,0,71.1,0c8.4,0,12.8,5.4,15.1,12.6c1.7,5.5,16,54.5,20,65.7s9.5,11.8,13.5,11.8
					h31.4c16.2,0,16.4,24.8,5.7,24.8c-10.7,0-114.4,0.5-114.4,0.5L315.7,129.7z"/>
				<path class="st14" d="M472.3,244.5c-6.7,0-49.5,0.2-80.8,0.4l4-25.2h71.1C482.9,219.7,483.1,244.5,472.3,244.5z"/>
				<path class="st15" d="M303.4,139.5c1.2,4.1,20.2,66.3,27.3,89.4c1.4,4.7,5,16.3,17.4,16.3c9.1,0,41.2-0.4,51.9-0.4
					s11.7-25.1-4.5-25.1c-16.2,0-27.4,0-31.3,0c-4,0-9.5-0.6-13.5-11.8c-4-11.1-18.2-60.2-20-65.7c-3.3-10.4-9.8-13.5-19.9-12.4
					C307,130.1,301.6,133.2,303.4,139.5z"/>
				<g>
					<g>
						<g>
							
								<linearGradient id="SVGID_5_" gradientUnits="userSpaceOnUse" x1="1047.1251" y1="350.2" x2="1051.4531" y2="350.2" gradientTransform="matrix(-1 0 0 -1 1434.0339 504)">
								<stop  offset="0" style="stop-color:#DBA521"/>
								<stop  offset="1" style="stop-color:#C28524"/>
							</linearGradient>
							<path class="st16" d="M382.6,153.7c0.2,1.7,1.3,3.1,2.4,3.1c1.2,0.1,2-1.2,1.8-2.9c-0.2-1.7-1.3-3.1-2.4-3.1
								C383.3,150.7,382.5,152,382.6,153.7z"/>
						</g>
						<g>
							
								<linearGradient id="SVGID_6_" gradientUnits="userSpaceOnUse" x1="1079.9696" y1="350.2" x2="1084.3054" y2="350.2" gradientTransform="matrix(-1 0 0 -1 1434.0339 504)">
								<stop  offset="0" style="stop-color:#DBA521"/>
								<stop  offset="1" style="stop-color:#C28524"/>
							</linearGradient>
							<path class="st17" d="M349.8,153.7c0.2,1.7,1.3,3.1,2.5,3.1c1.2,0.1,2-1.2,1.8-2.9c-0.2-1.7-1.3-3.1-2.4-3.1
								C350.5,150.7,349.6,152,349.8,153.7z"/>
						</g>
						<g>
							
								<linearGradient id="SVGID_7_" gradientUnits="userSpaceOnUse" x1="1033.8627" y1="314.2973" x2="1038.1985" y2="314.2973" gradientTransform="matrix(-1 0 0 -1 1434.0339 504)">
								<stop  offset="0" style="stop-color:#DBA521"/>
								<stop  offset="1" style="stop-color:#C28524"/>
							</linearGradient>
							<path class="st18" d="M395.9,189.6c0.2,1.7,1.3,3.1,2.4,3.1c1.2,0.1,2-1.2,1.8-2.9c-0.2-1.7-1.3-3.1-2.4-3.1
								C396.6,186.7,395.7,188,395.9,189.6z"/>
						</g>
						<g>
							
								<linearGradient id="SVGID_8_" gradientUnits="userSpaceOnUse" x1="1066.7107" y1="314.2973" x2="1071.0447" y2="314.2973" gradientTransform="matrix(-1 0 0 -1 1434.0339 504)">
								<stop  offset="0" style="stop-color:#DBA521"/>
								<stop  offset="1" style="stop-color:#C28524"/>
							</linearGradient>
							<path class="st19" d="M363.1,189.6c0.2,1.7,1.3,3.1,2.4,3.1c1.2,0.1,2-1.2,1.8-2.9c-0.2-1.7-1.3-3.1-2.4-3.1
								C363.7,186.7,362.9,188,363.1,189.6z"/>
						</g>
					</g>
				</g>
			</g>
			<g>
				<path class="st12" d="M394.9,252.8c0.5,0.5,0.4,1.3-0.1,1.8l-4,3.4c-0.2,0.2-0.5,0.3-0.8,0.3h-16.4c-0.7,0-1.3-0.6-1.3-1.3
					c0-0.7,0.6-1.3,1.3-1.3c0,0,15.1,0,16,0c0.6-0.5,3.6-3.1,3.6-3.1C393.7,252.2,394.5,252.3,394.9,252.8z"/>
			</g>
			<path class="st20" d="M327.5,187.7c0,3.8,3.1,6.8,6.8,6.8c3.8,0,6.8-3.1,6.8-6.8c0-3.8-3.1-6.8-6.8-6.8
				C330.6,180.8,327.5,183.9,327.5,187.7z"/>
			<path class="st20" d="M389.8,231.2c0,3.8,3.1,6.8,6.8,6.8c3.8,0,6.8-3.1,6.8-6.8c0-3.8-3.1-6.8-6.8-6.8S389.8,227.5,389.8,231.2z
				"/>
			<g>
				<path class="st10" d="M392.4,232.4l-7-31.9c-1.3-6.1-4.1-8.2-10.6-8.2h-40.7l0,0c-2.4,0-4.4-2-4.4-4.4s2-4.4,4.4-4.4l0,0h40.7
					c10.7,0,16.9,5,19.2,15.1l7,31.9l0,0c0.5,2.4-1,4.7-3.4,5.3C395.3,236.3,392.9,234.8,392.4,232.4L392.4,232.4z"/>
			</g>
			<path class="st11" d="M399.4,232.2l-7-31.9c-2.2-10.2-8.5-15.1-19.2-15.1h-40.7c-0.8,0-1.5,0.2-2.2,0.6c0.8-1.3,2.2-2.2,3.8-2.2
				h40.7c10.7,0,16.9,5,19.2,15.1l7,31.9c0.4,1.9-0.5,3.8-2.1,4.8C399.4,234.4,399.6,233.3,399.4,232.2z"/>
			<path class="st12" d="M463.1,317.8l-57.7-16.3v-3.7c0-1-0.8-1.8-1.8-1.8h-7.4c-1,0-1.8,0.8-1.8,1.8v3.8l-57.6,16.2v3.3l57.6-2.7
				v0.5c0,1,0.8,1.8,1.8,1.8h7.4c1,0,1.8-0.8,1.8-1.8v-0.5l57.7,2.8L463.1,317.8L463.1,317.8z"/>
		</g>
	</g>
	<path class="st21" d="M300.8,203l59.4-5.9c0.8-0.1,1.4,0.5,1.5,1.2l1.9,19.3c0.1,0.8-0.5,1.4-1.2,1.5L303,225
		c-0.8,0.1-1.4-0.5-1.5-1.2l-1.9-19.3C299.5,203.7,300,203.1,300.8,203z"/>
	<g>
		<path class="st22" d="M299.8,222.7c0.1,0.8,0.8,1.3,1.5,1.2l59.4-6.1c0.7-0.1,1.3-0.8,1.2-1.5l-1.8-17.7c-0.1-0.8-0.8-1.3-1.5-1.2
			l-59.4,6.1c-0.7,0.1-1.3,0.8-1.2,1.5L299.8,222.7z"/>
	</g>
	<g>
		<path class="st23" d="M299.7,221.2c0.1,0.8,0.8,1.3,1.5,1.2l59.4-6.1c0.8-0.1,1.3-0.8,1.2-1.5l-1.8-17.7c-0.1-0.8-0.8-1.3-1.5-1.2
			l-59.4,6.1c-0.8,0.1-1.3,0.8-1.2,1.5L299.7,221.2z"/>
	</g>
	<g>
		<path class="st12" d="M330.9,138c3.2,7,24.7,60.1,24.9,60.7c0.1,0.2,0,0.4-0.2,0.5c-0.2,0.1-0.4,0-0.5-0.2
			c-0.2-0.5-21.7-53.7-24.9-60.6c-3.7-7.9-9.3-8.6-10.9-8.6c-0.2,0-0.5,0.1-0.5-0.1c0-0.2,0.6-0.3,0.8-0.3
			C321.4,129.2,327,129.6,330.9,138z"/>
	</g>
	<path class="st12" d="M307.2,153.1c0-0.1,0-0.6,0.1-0.6l0.6,1.8l-4.1,50c0,0.2-0.2,0.4-0.4,0.3c-0.2,0-0.4-0.2-0.3-0.4L307.2,153.1
		z"/>
</g>
<g>
	<path class="st1" d="M413.1,152.6c-0.8,0.2-1,1-0.8,2.3l6.5,21.7c0.2,0.8,1.1,1.2,1.9,1c0.8-0.2,1.2-1.1,1-1.9l-6.5-21.7
		C414.9,152.8,413.9,152.4,413.1,152.6z"/>
</g>
<g>
	<path class="st1" d="M304.3,120.2c-0.8,0-1.5,0.7-1.5,1.5s0.7,1.5,1.5,1.5h7.2c0.8,0,1.5-0.7,1.5-1.5s-0.7-1.5-1.5-1.5H304.3z"/>
</g>
<g>
	<path class="st1" d="M322.9,120.2c-0.8,0-1.5,0.7-1.5,1.5s0.7,1.5,1.5,1.5h63.9c5.9,0,16.5,2.2,21.2,17.1c0.3,0.8,1.1,1.2,1.9,1
		c0.8-0.3,1.2-1.1,1-1.9c-5.3-16.7-17.4-19.2-24.1-19.2C386.8,120.2,322.9,120.2,322.9,120.2z"/>
</g>
<g>
	<path class="st1" d="M496.6,324.5c-0.8,0-1.5,0.7-1.5,1.5s0.7,1.5,1.5,1.5h24.2c0.8,0,1.5-0.7,1.5-1.5s-0.7-1.5-1.5-1.5H496.6z"/>
</g>
<g>
	<path class="st1" d="M332.4,280c-0.8,0-1.5,0.7-1.5,1.5s0.7,1.5,1.5,1.5h24.2c0.8,0,1.5-0.7,1.5-1.5s-0.7-1.5-1.5-1.5H332.4z"/>
</g>
<g>
	<path class="st1" d="M366.9,280c-0.8,0-1.5,0.7-1.5,1.5s0.7,1.5,1.5,1.5h7.2c0.8,0,1.5-0.7,1.5-1.5s-0.7-1.5-1.5-1.5H366.9z"/>
</g>
<g>
	<g>
		<path class="st1" d="M657,118.5c-0.8,0-1.5,0.7-1.5,1.5s0.7,1.5,1.5,1.5h24.2c0.8,0,1.5-0.7,1.5-1.5s-0.7-1.5-1.5-1.5H657z"/>
	</g>
	<g>
		<path class="st1" d="M691.5,118.5c-0.8,0-1.5,0.7-1.5,1.5s0.7,1.5,1.5,1.5h7.2c0.8,0,1.5-0.7,1.5-1.5s-0.7-1.5-1.5-1.5H691.5z"/>
	</g>
</g>
<g>
	<g>
		<path class="st1" d="M818,185.1c-0.8,0-1.5,0.7-1.5,1.5s0.7,1.5,1.5,1.5h24.2c0.8,0,1.5-0.7,1.5-1.5s-0.7-1.5-1.5-1.5H818z"/>
	</g>
	<g>
		<path class="st1" d="M852.5,185.1c-0.8,0-1.5,0.7-1.5,1.5s0.7,1.5,1.5,1.5h7.2c0.8,0,1.5-0.7,1.5-1.5s-0.7-1.5-1.5-1.5H852.5z"/>
	</g>
</g>
<g>
	<path class="st1" d="M532.7,324.5c-0.8,0-1.5,0.7-1.5,1.5s0.7,1.5,1.5,1.5h85.2c0.8,0,1.5-0.7,1.5-1.5s-0.7-1.5-1.5-1.5H532.7z"/>
</g>
<g>
	<path class="st1" d="M632.5,324.5c-0.8,0-1.5,0.7-1.5,1.5s0.7,1.5,1.5,1.5h12.6c0.8,0,1.5-0.7,1.5-1.5s-0.7-1.5-1.5-1.5H632.5z"/>
</g>
<g>
	<path class="st1" d="M740.4,126.5c-11.7,6-18.9,17.9-18.9,31c0,0.8,0.7,1.5,1.5,1.5s1.5-0.7,1.5-1.5c0-12,6.6-22.8,17.3-28.3
		c0.7-0.4,1-1.3,0.6-2C742,126.4,741.1,126.1,740.4,126.5z"/>
</g>
<g>
	<path class="st1" d="M754.8,124.1c0,0.8,0.7,1.5,1.5,1.5c17.6,0,31.8,14.3,31.8,31.8c0,8.5-3.3,16.5-9.3,22.5
		c-0.6,0.6-0.6,1.5,0,2.1s1.5,0.6,2.1,0c6.6-6.6,10.2-15.3,10.2-24.6c0-19.2-15.6-34.8-34.8-34.8
		C755.5,122.6,754.8,123.3,754.8,124.1z"/>
</g>
<g>
	<path class="st1" d="M326.2,236.6c-0.8,0.1-1.3,0.9-1.2,1.7c0,0.2,3.2,16.1,21.6,16.2c0.8,0,1.5-0.7,1.5-1.5s-0.7-1.5-1.5-1.5
		c-15.9-0.1-18.6-13.2-18.7-13.8C327.8,237,327,236.5,326.2,236.6z"/>
</g>
<text transform="matrix(0.9941 -0.1086 0.1086 0.9941 302.3541 216.8036)" class="st24 st25 st26">WOLNE</text>
<text transform="matrix(1 0 0 1 510.3059 303.4655)" class="st24 st27 st28">REKRUTACJA@ARTOPEN.PL</text>
<text transform="matrix(1 0 0 1 779.109 292.833)" class="st1 st27 st29">WYŚLIJ </text>
<text transform="matrix(1 0 0 1 779.109 317.933)" class="st1 st27 st29">NAM CV</text>
</svg>
