<?xml version="1.0" encoding="utf-8"?>
<!-- Generator: Adobe Illustrator 19.0.0, SVG Export Plug-In . SVG Version: 6.00 Build 0)  -->
<svg version="1.1" id="Warstwa_1" xmlns="http://www.w3.org/2000/svg" xmlns:xlink="http://www.w3.org/1999/xlink" x="0px" y="0px"
	 viewBox="163 15 825 472" style="enable-background:new 163 15 825 472;" xml:space="preserve">
<style type="text/css">
	.st0{clip-path:url(#SVGID_2_);fill:url(#SVGID_3_);}
	.st1{fill:#FFFFFF;}
	.st2{enable-background:new    ;}
	.st3{fill:#FDC912;}
	.st4{opacity:0.2;enable-background:new    ;}
	.st5{fill:#D9D9D9;}
	.st6{opacity:0.5;fill:#C4C4C4;enable-background:new    ;}
	.st7{fill:#091B31;}
	.st8{fill:url(#SVGID_4_);}
	.st9{fill:#DBA521;}
	.st10{fill:#E9BF47;}
	.st11{fill:url(#SVGID_5_);}
	.st12{fill:url(#SVGID_6_);}
	.st13{fill:url(#SVGID_7_);}
	.st14{fill:url(#SVGID_8_);}
	.st15{opacity:0.3;enable-background:new    ;}
	.st16{opacity:0.1;enable-background:new    ;}
	.st17{fill:#D4BA9E;}
	.st18{fill:#F2E8BF;}
	.st19{fill:#231F20;}
</style>
<g>
	<g>
		<g>
			<g>
				<g>
					<defs>
						<rect id="SVGID_1_" x="163" y="14.3" width="825" height="472"/>
					</defs>
					<clipPath id="SVGID_2_">
						<use xlink:href="#SVGID_1_"  style="overflow:visible;"/>
					</clipPath>
					
						<linearGradient id="SVGID_3_" gradientUnits="userSpaceOnUse" x1="-229.2" y1="1247.1808" x2="-227.6112" y2="1247.1808" gradientTransform="matrix(526.5874 0 0 -526.5874 120834.0078 657042.5)">
						<stop  offset="0" style="stop-color:#379E6E"/>
						<stop  offset="1" style="stop-color:#72C6D4"/>
					</linearGradient>
					<rect x="140.2" y="-142.5" class="st0" width="870.6" height="870.6"/>
				</g>
			</g>
		</g>
	</g>
</g>
<g>
	<path class="st1" d="M224.9,121.8c7.2-0.1,14.1-2.9,19.3-8s8.2-11.9,8.4-19.1c0.1-5.5-1.3-10.8-4.2-15.4c-0.4-0.6-1.1-1-1.8-1
		c-0.8,0-1.4,0.4-1.8,1.1c-0.4,0.7-0.4,1.5,0.1,2.1c2.5,4,3.7,8.7,3.5,13.5c-0.5,11.7-10.8,22.1-22.6,22.6
		c-6.7,0.3-13.2-2.2-17.9-6.9c-4.7-4.7-7.2-11.2-6.9-17.9c0.6-11.7,10.9-22,22.7-22.6c4.8-0.2,9.5,1,13.5,3.5c0.7,0.4,1.4,0.4,2.1,0
		c0.7-0.4,1.1-1,1.1-1.8c0-0.7-0.4-1.4-1-1.8c-4.6-2.9-10-4.3-15.4-4.2c-7.2,0.2-14,3.2-19.1,8.4c-5.1,5.2-8,12-8,19.3
		c-0.1,7.5,2.8,14.6,8.2,20C210.4,118.9,217.4,121.8,224.9,121.8C224.7,121.8,224.8,121.8,224.9,121.8"/>
	<path class="st1" d="M224.6,77.1c-1,0-1.7,0.5-2.1,1.5L212,103.7c-0.3,0.8-0.3,1.5,0.1,2.1c0.4,0.7,1,1,1.8,1
		c0.4,0,0.8-0.1,1.2-0.3c0.4-0.2,0.7-0.6,0.9-1l3.2-7.7h11l3.1,7.7c0.2,0.4,0.4,0.8,0.8,1c0.4,0.2,0.8,0.4,1.2,0.4
		c0.8,0,1.4-0.3,1.8-1c0.4-0.6,0.5-1.4,0.2-2.1l-10.6-25.2C226.3,77.6,225.6,77.1,224.6,77.1 M220.6,94.3l4.1-10l4,10H220.6z"/>
	<path class="st1" d="M278.6,95.8c0.3-0.5,0.4-1,0.1-1.6l-7.4-17.6c-0.3-0.7-0.8-1.1-1.6-1.1c-0.7,0-1.2,0.4-1.6,1.1l-7.3,17.5
		c-0.2,0.6-0.2,1.1,0.1,1.6c0.3,0.5,0.8,0.8,1.4,0.8c0.3,0,0.6-0.1,0.9-0.2c0.3-0.2,0.5-0.4,0.7-0.8l2.2-5.3h7.5l2.1,5.3
		c0.1,0.3,0.3,0.6,0.6,0.8c0.3,0.2,0.6,0.3,0.9,0.3C277.9,96.5,278.3,96.3,278.6,95.8 M267.2,87.5l2.7-6.5l2.6,6.5H267.2z"/>
	<path class="st1" d="M284.8,84.9c0.7-0.3,1.5-0.5,2.5-0.4c0.2,0,0.5,0,0.7-0.1s0.4-0.2,0.5-0.4c0.1-0.2,0.2-0.5,0.2-0.8
		c0-0.4-0.1-1-0.9-1.4c-0.6-0.3-1.3-0.3-2.3-0.1c-0.8,0.2-1.5,0.5-2.1,1c-0.1-0.3-0.2-0.6-0.4-0.8c-0.3-0.3-0.7-0.4-1.2-0.4
		s-0.9,0.1-1.2,0.4c-0.3,0.3-0.4,0.7-0.4,1.2V95c0,0.5,0.1,0.9,0.4,1.2c0.3,0.3,0.7,0.4,1.2,0.4s0.9-0.1,1.2-0.4
		c0.3-0.3,0.4-0.7,0.4-1.2v-8.8C283.6,85.6,284.1,85.2,284.8,84.9"/>
	<path class="st1" d="M298,93.3h-0.9c-0.5,0-0.9-0.2-1.2-0.6c-0.3-0.4-0.5-0.9-0.5-1.6v-6.5h2c0.4,0,0.8-0.1,1.1-0.4
		c0.3-0.3,0.4-0.6,0.4-1s-0.1-0.8-0.4-1.1c-0.3-0.3-0.6-0.4-1.1-0.4h-2v-3.1c0-0.5-0.1-0.9-0.4-1.1c-0.3-0.3-0.7-0.5-1.1-0.5
		c-0.5,0-0.9,0.1-1.2,0.5c-0.3,0.3-0.5,0.7-0.5,1.1v3.1h-0.8c-0.4,0-0.8,0.1-1.1,0.4c-0.3,0.3-0.4,0.6-0.4,1.1c0,0.4,0.1,0.7,0.4,1
		s0.6,0.4,1.1,0.4h0.8v6.5c0,1,0.2,1.9,0.6,2.7c0.4,0.8,1,1.5,1.8,1.9c0.7,0.5,1.6,0.7,2.5,0.7h0.5c0.5,0,1-0.1,1.3-0.4
		c0.4-0.3,0.5-0.7,0.5-1.2s-0.1-0.8-0.4-1.1C298.7,93.5,298.4,93.3,298,93.3"/>
	<path class="st1" d="M342.3,92.8c0.6-1.1,0.9-2.4,0.9-3.8s-0.3-2.7-1-3.9c-0.7-1.1-1.6-2-2.7-2.7s-2.4-1-3.8-1s-2.7,0.3-3.8,1
		s-2,1.6-2.7,2.7c-0.6,1.1-1,2.4-1,3.9v11.9c0,0.5,0.2,0.9,0.5,1.2c0.3,0.3,0.7,0.5,1.2,0.5s0.9-0.2,1.2-0.5s0.4-0.7,0.4-1.2v-6.3
		c0.5,0.5,1.1,0.9,1.8,1.2c0.9,0.5,1.9,0.7,3,0.7c1.3,0,2.5-0.3,3.6-1C340.9,94.9,341.7,94,342.3,92.8 M339.5,91.3
		c-0.4,0.7-0.9,1.2-1.5,1.6s-1.4,0.6-2.2,0.6c-0.8,0-1.6-0.2-2.2-0.6s-1.2-1-1.5-1.6s-0.6-1.5-0.6-2.4s0.2-1.7,0.6-2.4
		s0.9-1.2,1.5-1.6s1.4-0.6,2.2-0.6c0.8,0,1.6,0.2,2.2,0.6s1.2,1,1.5,1.6s0.6,1.5,0.6,2.4C340.1,89.9,339.9,90.6,339.5,91.3"/>
	<path class="st1" d="M357.4,93.8c0-0.4-0.2-0.8-0.6-1.1c-0.3-0.2-0.6-0.4-1-0.4s-0.7,0.1-1,0.4c-0.3,0.2-0.8,0.5-1.3,0.6
		s-1.1,0.3-1.6,0.3c-0.9,0-1.8-0.2-2.5-0.6s-1.3-1-1.7-1.7c-0.2-0.4-0.4-0.8-0.5-1.2h9.6c0.4,0,0.8-0.1,1.1-0.4
		c0.3-0.3,0.4-0.6,0.4-1c0-1.4-0.3-2.7-0.8-3.8c-0.5-1.1-1.3-2-2.4-2.6c-1-0.6-2.2-1-3.7-1c-1.4,0-2.7,0.3-3.8,1
		c-1.1,0.6-2,1.5-2.6,2.7c-0.6,1.1-0.9,2.5-0.9,3.9c0,1.5,0.3,2.8,1,3.9s1.6,2,2.8,2.7c1.2,0.6,2.5,1,4,1c0.8,0,1.7-0.2,2.6-0.5
		s1.7-0.7,2.3-1.2C357.3,94.5,357.4,94.1,357.4,93.8 M347.6,86.5c0.3-0.7,0.8-1.3,1.5-1.7c0.6-0.4,1.5-0.6,2.4-0.6
		c0.8,0,1.5,0.2,2.1,0.5c0.6,0.4,1,0.9,1.3,1.5c0.2,0.4,0.3,0.8,0.4,1.2h-8C347.4,87.2,347.5,86.8,347.6,86.5"/>
	<path class="st1" d="M368.7,86.1c0.3,0.6,0.5,1.4,0.5,2.3v6.5c0,0.5,0.2,0.9,0.5,1.2c0.3,0.3,0.7,0.5,1.2,0.5s0.9-0.2,1.2-0.5
		s0.5-0.7,0.5-1.2v-6.5c0-1.5-0.3-2.8-0.9-3.8s-1.4-1.9-2.4-2.4s-2.1-0.8-3.4-0.8c-1.2,0-2.3,0.3-3.3,0.8c-0.1,0.1-0.2,0.1-0.3,0.2
		c-0.1-0.1-0.2-0.3-0.3-0.4c-0.3-0.3-0.7-0.5-1.2-0.5s-0.9,0.1-1.2,0.5c-0.3,0.3-0.5,0.7-0.5,1.2v11.7c0,0.5,0.2,0.9,0.5,1.2
		c0.3,0.3,0.7,0.5,1.2,0.5s0.9-0.2,1.2-0.5s0.4-0.7,0.4-1.2v-9.3c0.3-0.3,0.6-0.6,1-0.8c0.5-0.3,1.2-0.4,1.9-0.4
		c0.8,0,1.4,0.1,2,0.4C368,85.1,368.4,85.6,368.7,86.1"/>
	<path class="st1" d="M324.4,78.2L324.4,78.2c-1-1-2.1-1.7-3.4-2.3s-2.8-0.8-4.4-0.8s-3.1,0.3-4.4,0.8s-2.5,1.3-3.4,2.3
		c-1,1-1.7,2.1-2.2,3.5c-0.5,1.3-0.8,2.8-0.8,4.4s0.3,3.1,0.8,4.4s1.3,2.5,2.2,3.5c0.9,1,2.1,1.7,3.4,2.3s2.8,0.8,4.4,0.8
		s3-0.3,4.4-0.8c1.3-0.5,2.5-1.3,3.4-2.3s1.7-2.1,2.2-3.5c0.5-1.3,0.8-2.8,0.8-4.4s-0.3-3.1-0.8-4.4
		C326.2,80.3,325.4,79.1,324.4,78.2 M323.4,89c-0.4,0.9-0.9,1.7-1.5,2.4s-1.4,1.2-2.3,1.6s-1.9,0.6-2.9,0.6c-1.1,0-2.1-0.2-2.9-0.6
		c-0.9-0.4-1.7-0.9-2.3-1.6c-0.6-0.7-1.1-1.5-1.5-2.4s-0.5-1.9-0.5-3s0.2-2.1,0.5-3c0.4-0.9,0.9-1.7,1.5-2.4
		c0.6-0.7,1.4-1.2,2.3-1.6s1.9-0.6,3-0.6s2.1,0.2,2.9,0.6c0.9,0.4,1.7,0.9,2.3,1.6c0.6,0.7,1.2,1.5,1.5,2.4c0.4,0.9,0.5,1.9,0.5,3
		S323.8,88.1,323.4,89"/>
	<path class="st1" d="M275.4,109.8c-0.3-0.3-0.8-0.5-1.5-0.6c-0.4,0-0.7-0.1-0.9-0.2s-0.4-0.2-0.5-0.4c-0.1-0.1-0.1-0.3-0.1-0.5
		c0-0.3,0.1-0.5,0.4-0.7s0.6-0.2,1-0.2c0.2,0,0.4,0,0.6,0.1s0.3,0.1,0.4,0.2s0.2,0.2,0.3,0.3c0,0.1,0.1,0.1,0.2,0.1s0.2,0,0.2,0
		c0.1,0,0.1-0.1,0.1-0.2s0-0.1,0-0.2c-0.1-0.2-0.3-0.3-0.4-0.5c-0.2-0.1-0.4-0.2-0.6-0.3c-0.2-0.1-0.5-0.1-0.8-0.1
		c-0.4,0-0.7,0.1-1,0.2s-0.5,0.3-0.7,0.5s-0.3,0.5-0.3,0.8c0,0.4,0.2,0.8,0.5,1c0.4,0.3,0.8,0.5,1.5,0.5c0.5,0.1,0.9,0.2,1.1,0.4
		c0.2,0.2,0.4,0.5,0.4,0.8c0,0.2-0.1,0.4-0.2,0.6s-0.3,0.3-0.5,0.4s-0.5,0.1-0.8,0.1c-0.2,0-0.5,0-0.7-0.1s-0.4-0.1-0.6-0.3
		c-0.1-0.1-0.3-0.2-0.4-0.4c0-0.1-0.1-0.1-0.2-0.1s-0.1,0-0.2,0s-0.2,0.1-0.2,0.1c0,0.1,0,0.1,0,0.2c0.1,0.2,0.3,0.4,0.5,0.6
		s0.5,0.3,0.8,0.4s0.6,0.1,0.9,0.1s0.6,0,0.8-0.1c0.2-0.1,0.5-0.2,0.7-0.3s0.3-0.3,0.4-0.5s0.2-0.4,0.2-0.7
		C275.9,110.5,275.8,110.1,275.4,109.8"/>
	<path class="st1" d="M282.2,106.8h-1.9h-0.6h-1.9c-0.1,0-0.1,0-0.2,0.1c-0.1,0-0.1,0.1-0.1,0.2s0,0.1,0.1,0.2c0,0,0.1,0.1,0.2,0.1
		h1.9v4.9c0,0.1,0,0.1,0.1,0.2s0.1,0.1,0.2,0.1s0.2,0,0.2-0.1c0.1-0.1,0.1-0.1,0.1-0.2v-5h1.9c0.1,0,0.1,0,0.2-0.1
		c0.1,0,0.1-0.1,0.1-0.2s0-0.1-0.1-0.2C282.3,106.9,282.3,106.8,282.2,106.8"/>
	<path class="st1" d="M289.3,106.8c-0.1,0-0.2,0-0.2,0.1s-0.1,0.1-0.1,0.2v3.5c0,0.3-0.1,0.5-0.2,0.8s-0.4,0.4-0.6,0.5
		c-0.3,0.1-0.6,0.2-1,0.2s-0.7-0.1-1-0.2s-0.5-0.3-0.7-0.5s-0.2-0.5-0.2-0.8v-3.5c0-0.1,0-0.1-0.1-0.2c-0.1,0-0.1-0.1-0.2-0.1
		s-0.2,0-0.2,0.1s-0.1,0.1-0.1,0.2v3.5c0,0.4,0.1,0.7,0.3,1c0.2,0.3,0.5,0.5,0.9,0.7s0.8,0.3,1.3,0.3s0.9-0.1,1.3-0.3
		c0.4-0.2,0.7-0.4,0.9-0.7c0.2-0.3,0.3-0.6,0.3-1v-3.5c0-0.1,0-0.1-0.1-0.2C289.4,106.9,289.4,106.8,289.3,106.8"/>
	<path class="st1" d="M296.4,107.6c-0.3-0.3-0.6-0.5-1-0.6s-0.8-0.2-1.2-0.2h-1.4c-0.1,0-0.2,0-0.2,0.1s-0.1,0.1-0.1,0.2v5.1
		c0,0.1,0,0.1,0.1,0.2c0.1,0,0.1,0.1,0.2,0.1h1.4c0.5,0,0.9-0.1,1.2-0.2c0.4-0.1,0.7-0.3,1-0.6c0.3-0.3,0.5-0.6,0.6-0.9
		s0.2-0.7,0.2-1.1s-0.1-0.8-0.2-1.1C296.9,108.2,296.7,107.9,296.4,107.6 M296.4,110.9c-0.2,0.4-0.5,0.6-0.9,0.8
		c-0.4,0.2-0.8,0.3-1.3,0.3h-1.1v-4.7h1.1c0.5,0,0.9,0.1,1.3,0.3c0.4,0.2,0.7,0.5,0.9,0.8c0.2,0.4,0.3,0.8,0.3,1.2
		C296.7,110.1,296.6,110.5,296.4,110.9"/>
	<path class="st1" d="M300.2,106.8c-0.1,0-0.2,0-0.2,0.1s-0.1,0.1-0.1,0.2v5.1c0,0.1,0,0.1,0.1,0.2c0.1,0,0.1,0.1,0.2,0.1
		s0.2,0,0.2-0.1s0.1-0.1,0.1-0.2v-5.1c0-0.1,0-0.1-0.1-0.2C300.3,106.9,300.3,106.8,300.2,106.8"/>
	<path class="st1" d="M308.5,107.6c-0.3-0.3-0.6-0.5-1-0.6s-0.8-0.2-1.3-0.2s-0.9,0.1-1.3,0.2s-0.7,0.4-1,0.6
		c-0.3,0.3-0.5,0.6-0.7,0.9c-0.2,0.4-0.2,0.7-0.2,1.2s0.1,0.8,0.2,1.2c0.2,0.4,0.4,0.7,0.7,0.9c0.3,0.3,0.6,0.5,1,0.6
		s0.8,0.2,1.3,0.2s0.9-0.1,1.3-0.2s0.7-0.4,1-0.6c0.3-0.3,0.5-0.6,0.7-0.9s0.2-0.8,0.2-1.2s-0.1-0.8-0.2-1.2
		C309,108.2,308.8,107.8,308.5,107.6 M308.6,110.6c-0.1,0.3-0.3,0.5-0.5,0.8c-0.2,0.2-0.5,0.4-0.8,0.5s-0.6,0.2-1,0.2
		s-0.7-0.1-1-0.2s-0.6-0.3-0.8-0.5c-0.2-0.2-0.4-0.5-0.5-0.8s-0.2-0.6-0.2-1c0-0.3,0.1-0.6,0.2-0.9s0.3-0.5,0.5-0.8
		c0.2-0.2,0.5-0.4,0.8-0.5s0.7-0.2,1-0.2s0.7,0.1,1,0.2s0.6,0.3,0.8,0.5c0.2,0.2,0.4,0.5,0.5,0.8s0.2,0.6,0.2,0.9
		S308.7,110.3,308.6,110.6"/>
	<path class="st1" d="M318.2,110.2c0.1,0,0.2-0.1,0.3-0.1c0.3-0.1,0.5-0.4,0.7-0.6c0.2-0.3,0.3-0.5,0.3-0.9s-0.1-0.6-0.3-0.9
		c-0.2-0.3-0.4-0.5-0.7-0.6c-0.3-0.1-0.6-0.2-1-0.2H316c-0.1,0-0.2,0-0.2,0.1c-0.1,0-0.1,0.1-0.1,0.2v5.1c0,0.1,0,0.1,0.1,0.2
		c0.1,0,0.1,0.1,0.2,0.1s0.2,0,0.2-0.1s0.1-0.1,0.1-0.2v-2h1.2h0.1l1.4,2.1l0.1,0.1c0,0,0.1,0,0.2,0s0.2,0,0.3-0.1
		c0.1-0.1,0-0.2,0-0.3L318.2,110.2z M317.4,109.7h-1.2v-2.4h1.2c0.3,0,0.5,0,0.7,0.1s0.4,0.2,0.5,0.4c0.1,0.2,0.2,0.4,0.2,0.6
		s-0.1,0.4-0.2,0.6s-0.3,0.3-0.5,0.4C317.9,109.7,317.6,109.7,317.4,109.7"/>
	<path class="st1" d="M325.8,107.4c0.1,0,0.2,0,0.2-0.1s0.1-0.1,0.1-0.2s0-0.1-0.1-0.2c-0.1,0-0.1-0.1-0.2-0.1h-3.7
		c-0.1,0-0.2,0-0.2,0.1s-0.1,0.1-0.1,0.2v5.1c0,0.1,0,0.1,0.1,0.2c0.1,0,0.1,0.1,0.2,0.1h3.7c0.1,0,0.2,0,0.2-0.1s0.1-0.1,0.1-0.2
		s0-0.1-0.1-0.2s-0.1-0.1-0.2-0.1h-3.4v-2h2.5c0.1,0,0.2,0,0.2-0.1s0.1-0.1,0.1-0.2s0-0.1-0.1-0.2c-0.1,0-0.1-0.1-0.2-0.1h-2.5v-2
		L325.8,107.4L325.8,107.4z"/>
	<path class="st1" d="M332.6,107.1c0-0.1,0-0.1-0.1-0.2c0,0-0.1-0.1-0.2-0.1h-0.1c0,0-0.1,0-0.1,0.1l-2.9,2.7v-2.5
		c0-0.1,0-0.1-0.1-0.2s-0.1-0.1-0.2-0.1s-0.2,0-0.2,0.1c-0.1,0.1-0.1,0.1-0.1,0.2v5.1c0,0.1,0,0.1,0.1,0.2s0.1,0.1,0.2,0.1
		s0.2,0,0.2-0.1c0.1-0.1,0.1-0.1,0.1-0.2v-1.9l0.7-0.7l2.2,2.7c0.1,0.1,0.1,0.1,0.3,0.1c0.1,0,0.1,0,0.2-0.1c0,0,0.1-0.1,0.1-0.2
		s0-0.1-0.1-0.2l-2.2-2.8L332.6,107.1C332.6,107.2,332.6,107.2,332.6,107.1"/>
	<path class="st1" d="M338.8,112h-3.1v-4.9c0-0.1,0-0.1-0.1-0.2s-0.1-0.1-0.2-0.1s-0.2,0-0.2,0.1c-0.1,0.1-0.1,0.1-0.1,0.2v5.1
		c0,0.1,0,0.1,0.1,0.2c0.1,0,0.1,0.1,0.2,0.1h3.4c0.1,0,0.2,0,0.2-0.1c0.1,0,0.1-0.1,0.1-0.2s0-0.1-0.1-0.2
		C338.9,112,338.9,112,338.8,112"/>
	<path class="st1" d="M343.7,107c-0.1-0.1-0.2-0.2-0.3-0.2c-0.1,0-0.2,0.1-0.3,0.2l-2.3,5.1c0,0.1,0,0.2,0,0.3
		c0,0.1,0.1,0.1,0.3,0.1c0.1,0,0.1,0,0.2,0l0.1-0.1l0.5-1.2h3.1l0.5,1.2c0,0.1,0.1,0.1,0.1,0.1s0.1,0,0.2,0s0.2,0,0.3-0.1
		s0.1-0.2,0-0.3L343.7,107z M342.1,110.7l1.3-2.9l1.3,2.9H342.1z"/>
	<path class="st1" d="M354.2,106.8c-0.1,0-0.2,0-0.3,0.1l-2.5,4.6l-2.5-4.6c-0.1-0.1-0.1-0.1-0.3-0.1c-0.1,0-0.2,0-0.2,0.1
		s-0.1,0.1-0.1,0.2v5.1c0,0.1,0,0.1,0.1,0.2s0.1,0.1,0.2,0.1s0.2,0,0.2-0.1c0.1-0.1,0.1-0.1,0.1-0.2v-4.1l2.2,4
		c0.1,0.1,0.1,0.2,0.3,0.2c0.1,0,0.2,0,0.3-0.1l2.2-4.1v4.1c0,0.1,0,0.1,0.1,0.2s0.1,0.1,0.2,0.1s0.2,0,0.2-0.1
		c0.1-0.1,0.1-0.1,0.1-0.2v-5.1c0-0.1,0-0.1-0.1-0.2C354.3,106.9,354.2,106.8,354.2,106.8"/>
	<path class="st1" d="M361.4,106.8c-0.1,0-0.1,0-0.2,0l-0.1,0.1l-2,2.9l-2-2.9l-0.1-0.1c0,0-0.1,0-0.2,0s-0.1,0-0.2,0.1
		c0,0-0.1,0.1-0.1,0.2s0,0.1,0.1,0.2l2.2,3.1v1.8c0,0.1,0,0.1,0.1,0.2s0.1,0.1,0.2,0.1s0.2,0,0.2-0.1c0.1-0.1,0.1-0.1,0.1-0.2v-1.8
		l2.2-3.1c0.1-0.1,0.1-0.1,0.1-0.2s0-0.1-0.1-0.2S361.5,106.8,361.4,106.8"/>
	<path class="st1" d="M372.4,109.5h-6.3c-0.1,0-0.2,0.1-0.2,0.2s0.1,0.2,0.2,0.2h6.3c0.1,0,0.2-0.1,0.2-0.2S372.4,109.5,372.4,109.5
		"/>
	<path class="st1" d="M267.2,109.5h-6.3c-0.1,0-0.2,0.1-0.2,0.2s0.1,0.2,0.2,0.2h6.3c0.1,0,0.2-0.1,0.2-0.2S267.3,109.5,267.2,109.5
		"/>
</g>
<g class="st2">
	<path class="st1" d="M481,182.5c-3-1.6-5.3-3.9-7-6.7c-1.7-2.9-2.5-6.1-2.5-9.6c0-3.6,0.8-6.8,2.5-9.6c1.7-2.9,4-5.1,7-6.7
		c3-1.6,6.3-2.5,10-2.5c3.7,0,7,0.8,9.9,2.4c2.9,1.6,5.3,3.9,6.9,6.7c1.7,2.9,2.5,6.1,2.5,9.6c0,3.6-0.8,6.8-2.5,9.6s-4,5.1-6.9,6.7
		c-2.9,1.6-6.2,2.4-9.9,2.4C487.3,185,484,184.1,481,182.5z M498.9,179.5c2.4-1.3,4.2-3.1,5.5-5.5c1.3-2.3,2-5,2-7.8
		c0-2.9-0.7-5.5-2-7.8c-1.3-2.3-3.2-4.2-5.5-5.5c-2.4-1.3-5-2-7.9-2c-2.9,0-5.6,0.7-7.9,2c-2.4,1.3-4.2,3.2-5.6,5.5
		c-1.4,2.3-2,5-2,7.8c0,2.9,0.7,5.5,2,7.8c1.4,2.3,3.2,4.2,5.6,5.5c2.4,1.3,5,2,7.9,2C493.9,181.5,496.5,180.8,498.9,179.5z"/>
	<path class="st1" d="M524.9,151.1v14.5H544v3.4h-19.1v15.7H521v-37h25.3v3.4H524.9z"/>
	<path class="st1" d="M582.5,181.3v3.4h-26.1v-37h25.3v3.4h-21.4v13.1h19.1v3.3h-19.1v13.7H582.5z"/>
	<path class="st1" d="M618.9,184.6l-8.4-11.9c-1,0.1-1.9,0.2-3,0.2h-9.9v11.7h-3.9v-37h13.8c4.7,0,8.4,1.1,11.1,3.4
		c2.7,2.3,4,5.4,4,9.3c0,2.9-0.7,5.3-2.2,7.3c-1.5,2-3.5,3.4-6.3,4.3l9,12.7H618.9z M615.8,167.2c1.9-1.6,2.9-3.9,2.9-6.8
		c0-3-1-5.3-2.9-6.9c-1.9-1.6-4.7-2.4-8.4-2.4h-9.8v18.5h9.8C611.1,169.6,613.9,168.8,615.8,167.2z"/>
	<path class="st1" d="M640.4,151.1h-13v-3.4h29.9v3.4h-13v33.6h-3.9V151.1z"/>
	<path class="st1" d="M686.9,174.8h-20.6l-4.4,9.9h-4.1l16.9-37h3.9l16.9,37h-4.1L686.9,174.8z M685.4,171.6l-8.9-19.9l-8.9,19.9
		H685.4z"/>
</g>
<g class="st2">
	<path class="st1" d="M512.7,208.4c3.7,1.7,6.6,4.1,8.7,7.2c2,3.1,3,6.8,3,10.9c0,4.2-1,7.8-3,10.9c-2,3.1-4.9,5.5-8.7,7.2
		c-3.7,1.7-8.1,2.5-13.2,2.5h-7.9v13.4h-18.4v-54.7h26.3C504.6,205.9,509,206.7,512.7,208.4z M504,231.2c1.2-1.1,1.9-2.7,1.9-4.7
		s-0.6-3.6-1.9-4.7c-1.2-1.1-3.1-1.7-5.6-1.7h-6.7v12.8h6.7C500.9,232.9,502.7,232.3,504,231.2z"/>
	<path class="st1" d="M557.9,246.8h-5v13.7h-18.4v-54.7h26.3c5,0,9.4,0.8,13.2,2.5c3.7,1.7,6.6,4.1,8.7,7.2s3,6.8,3,10.9
		c0,3.9-0.9,7.3-2.7,10.2c-1.8,2.9-4.3,5.2-7.7,7l11.5,16.9h-19.7L557.9,246.8z M565.2,221.8c-1.2-1.1-3.1-1.7-5.6-1.7h-6.7v12.8
		h6.7c2.5,0,4.4-0.6,5.6-1.7c1.2-1.1,1.9-2.7,1.9-4.7S566.5,222.9,565.2,221.8z"/>
	<path class="st1" d="M633.8,251h-20.8l-3.7,9.5h-18.7l23.9-54.7h18.1l23.9,54.7h-19.1L633.8,251z M628.8,237.7l-5.3-13.7l-5.3,13.7
		H628.8z"/>
	<path class="st1" d="M675.4,258.2c-4.6-2.4-8.3-5.8-10.9-10.2c-2.6-4.3-3.9-9.3-3.9-14.8s1.3-10.5,3.9-14.8
		c2.6-4.3,6.3-7.7,10.9-10.2c4.6-2.4,9.8-3.6,15.6-3.6c5.3,0,10,0.9,14.2,2.8c4.2,1.9,7.6,4.6,10.3,8.1l-11.6,10.4
		c-3.4-4.3-7.4-6.4-11.9-6.4c-3.9,0-7,1.2-9.3,3.7s-3.5,5.8-3.5,10s1.2,7.5,3.5,10c2.3,2.5,5.4,3.7,9.3,3.7c4.6,0,8.6-2.1,11.9-6.4
		l11.6,10.4c-2.7,3.5-6.1,6.2-10.3,8.1c-4.2,1.9-8.9,2.8-14.2,2.8C685.2,261.8,680,260.6,675.4,258.2z"/>
	<path class="st1" d="M757.3,240.7v19.8h-18.4v-20.1l-20.6-34.6h19.4l11.2,18.9l11.2-18.9h17.8L757.3,240.7z"/>
	<path class="st1" d="M783.1,205.9h21.1l-3.5,33.7h-14.1L783.1,205.9z M786.2,258.6c-1.9-1.8-2.9-4-2.9-6.6c0-2.7,1-4.9,2.9-6.6
		c1.9-1.7,4.4-2.6,7.4-2.6c3,0,5.5,0.9,7.4,2.6c1.9,1.7,2.9,3.9,2.9,6.6c0,2.6-1,4.8-2.9,6.6c-1.9,1.8-4.4,2.7-7.4,2.7
		C790.6,261.3,788.1,260.4,786.2,258.6z"/>
</g>
<g>
	<g>
		<path class="st1" d="M763.2,149.9c0,3.8-3.1,6.9-6.9,6.9c-3.8,0-6.9-3.1-6.9-6.9c0-3.8,3.1-6.9,6.9-6.9
			C760.1,143,763.2,146.1,763.2,149.9z"/>
		<path class="st1" d="M768.8,170.9v-0.4c0-6.6-5.4-12-11.9-12h-1.1c-6.6,0-11.9,5.4-11.9,12v0.4H768.8z"/>
	</g>
	<g>
		<path class="st1" d="M729.3,157.6c0,14.9,12.1,27,27,27s27-12.1,27-27s-12.1-27-27-27C741.4,130.6,729.3,142.7,729.3,157.6z
			 M731.9,157.6c0-13.5,11-24.4,24.4-24.4c13.5,0,24.4,11,24.4,24.4c0,13.5-11,24.4-24.4,24.4C742.8,182,731.9,171.1,731.9,157.6z"
			/>
	</g>
</g>
<g>
	<path class="st3" d="M773.9,316.9H497v-37.4c0,0,210.1,0,245.3,0C777.6,279.5,773.9,316.9,773.9,316.9z"/>
</g>
<path class="st4" d="M471.1,212h-0.6l0.5,2.4V212H471.1z"/>
<g>
	<g>
		<path class="st4" d="M307.6,339.3c0,2.1,39.5,3.8,88.1,3.8c48.7,0,88.1-1.7,88.1-3.8c0-2.1-39.5-3.8-88.1-3.8
			S307.6,337.2,307.6,339.3z"/>
		<g>
			<g>
				<path class="st5" d="M467.7,232.6l-7-31.9c-1.3-6.1-4.1-8.2-10.6-8.2h-40.6l0,0c-2.4,0-4.4-2-4.4-4.4s2-4.4,4.4-4.4l0,0h40.7
					c10.7,0,16.9,5,19.2,15.1l7,31.9l0,0c0.5,2.4-1,4.7-3.4,5.3C470.6,236.5,468.2,235,467.7,232.6L467.7,232.6z"/>
			</g>
			<path class="st6" d="M474.7,232.4l-7-31.9c-2.3-10.2-8.6-15.2-19.2-15.2h-40.7c-0.8,0-1.5,0.2-2.2,0.6c0.8-1.3,2.2-2.2,3.8-2.2
				h40.7c10.7,0,16.9,5,19.2,15.1l7,31.9c0.4,1.9-0.5,3.8-2.1,4.8C474.7,234.6,474.9,233.5,474.7,232.4z"/>
			<rect x="396" y="242.1" class="st5" width="7.7" height="55.4"/>
			<rect x="393.5" y="269" class="st7" width="12.8" height="35.1"/>
			<rect x="393.5" y="248.6" class="st7" width="12.8" height="8.6"/>
			<g>
				<rect x="458.1" y="319.9" class="st7" width="2.8" height="12.6"/>
				<path class="st7" d="M463,335.4c0,3.4-2.8,6.1-6.1,6.1c-3.4,0-6.1-2.8-6.1-6.1c0-3.4,2.7-6.1,6.1-6.1
					C460.2,329.3,463,332,463,335.4z"/>
				<path class="st5" d="M461.8,335.4c0,2.8-2.2,5-5,5s-5-2.2-5-5s2.2-5,5-5C459.6,330.4,461.8,332.7,461.8,335.4z"/>
			</g>
			<g>
				<rect x="434.1" y="318.9" class="st7" width="2.8" height="13.6"/>
				<path class="st7" d="M439,335.4c0,3.4-2.8,6.1-6.1,6.1c-3.4,0-6.1-2.8-6.1-6.1c0-3.4,2.7-6.1,6.1-6.1S439,332,439,335.4z"/>
				<path class="st5" d="M437.9,335.4c0,2.8-2.2,5-5,5s-5-2.2-5-5s2.2-5,5-5S437.9,332.7,437.9,335.4z"/>
			</g>
			<g>
				<rect x="362.7" y="318.9" class="st7" width="2.8" height="13.6"/>
				<path class="st7" d="M360.6,335.4c0,3.4,2.8,6.1,6.1,6.1c3.4,0,6.2-2.8,6.2-6.1c0-3.4-2.8-6.1-6.2-6.1
					C363.4,329.3,360.6,332,360.6,335.4z"/>
				<path class="st5" d="M361.8,335.4c0,2.8,2.2,5,5,5s5-2.2,5-5s-2.2-5-5-5S361.8,332.7,361.8,335.4z"/>
			</g>
			<g>
				<rect x="338.9" y="318.9" class="st7" width="2.8" height="13.6"/>
				<path class="st7" d="M336.9,335.4c0,3.4,2.7,6.1,6.1,6.1s6.1-2.8,6.1-6.1c0-3.4-2.8-6.1-6.1-6.1
					C339.6,329.3,336.9,332,336.9,335.4z"/>
				<path class="st5" d="M338,335.4c0,2.8,2.2,5,5,5s5-2.2,5-5s-2.2-5-5-5C340.3,330.4,338,332.7,338,335.4z"/>
			</g>
			<path class="st7" d="M424.6,244c-0.2,4.2-3.7,7.6-8,7.6h-33.1c-4.3,0-7.8-3.3-8-7.6H424.6z"/>
			<g>
				
					<linearGradient id="SVGID_4_" gradientUnits="userSpaceOnUse" x1="1687.6569" y1="179.1387" x2="1710.2148" y2="217.9391" gradientTransform="matrix(-1 0 0 1 2086.0339 4)">
					<stop  offset="0" style="stop-color:#DBA521"/>
					<stop  offset="1" style="stop-color:#C28524"/>
				</linearGradient>
				<path class="st8" d="M315.7,129.9c0,0,69.7,0,71.1,0c8.4,0,12.8,5.4,15.1,12.6c1.7,5.5,16,54.5,20,65.7s9.5,11.8,13.5,11.8h31.4
					c16.2,0,16.4,24.8,5.7,24.8c-10.7,0-114.4,0.5-114.4,0.5L315.7,129.9z"/>
				<path class="st9" d="M472.3,244.7c-6.7,0-49.5,0.2-80.8,0.4l4-25.2h71.1C482.9,219.9,483.1,244.7,472.3,244.7z"/>
				<path class="st10" d="M303.4,139.7c1.2,4.1,20.2,66.3,27.3,89.4c1.4,4.7,5,16.3,17.4,16.3c9.1,0,41.2-0.4,51.9-0.4
					s11.7-25.1-4.5-25.1s-27.4,0-31.3,0c-4,0-9.5-0.6-13.5-11.8c-4-11.1-18.2-60.2-20-65.7c-3.3-10.4-9.8-13.5-19.9-12.4
					C307,130.3,301.6,133.4,303.4,139.7z"/>
				<g>
					<g>
						<g>
							
								<linearGradient id="SVGID_5_" gradientUnits="userSpaceOnUse" x1="1699.1251" y1="150" x2="1703.4531" y2="150" gradientTransform="matrix(-1 0 0 1 2086.0339 4)">
								<stop  offset="0" style="stop-color:#DBA521"/>
								<stop  offset="1" style="stop-color:#C28524"/>
							</linearGradient>
							<path class="st11" d="M382.6,153.9c0.2,1.7,1.3,3.1,2.4,3.1c1.2,0.1,2-1.2,1.8-2.9s-1.3-3.1-2.4-3.1
								C383.3,150.9,382.5,152.2,382.6,153.9z"/>
						</g>
						<g>
							
								<linearGradient id="SVGID_6_" gradientUnits="userSpaceOnUse" x1="1731.9696" y1="150" x2="1736.3054" y2="150" gradientTransform="matrix(-1 0 0 1 2086.0339 4)">
								<stop  offset="0" style="stop-color:#DBA521"/>
								<stop  offset="1" style="stop-color:#C28524"/>
							</linearGradient>
							<path class="st12" d="M349.8,153.9c0.2,1.7,1.3,3.1,2.5,3.1c1.2,0.1,2-1.2,1.8-2.9s-1.3-3.1-2.4-3.1
								C350.5,150.9,349.6,152.2,349.8,153.9z"/>
						</g>
						<g>
							
								<linearGradient id="SVGID_7_" gradientUnits="userSpaceOnUse" x1="1685.8627" y1="185.9027" x2="1690.1985" y2="185.9027" gradientTransform="matrix(-1 0 0 1 2086.0339 4)">
								<stop  offset="0" style="stop-color:#DBA521"/>
								<stop  offset="1" style="stop-color:#C28524"/>
							</linearGradient>
							<path class="st13" d="M395.9,189.8c0.2,1.7,1.3,3.1,2.4,3.1c1.2,0.1,2-1.2,1.8-2.9s-1.3-3.1-2.4-3.1
								C396.6,186.9,395.7,188.2,395.9,189.8z"/>
						</g>
						<g>
							
								<linearGradient id="SVGID_8_" gradientUnits="userSpaceOnUse" x1="1718.7107" y1="185.9027" x2="1723.0447" y2="185.9027" gradientTransform="matrix(-1 0 0 1 2086.0339 4)">
								<stop  offset="0" style="stop-color:#DBA521"/>
								<stop  offset="1" style="stop-color:#C28524"/>
							</linearGradient>
							<path class="st14" d="M363.1,189.8c0.2,1.7,1.3,3.1,2.4,3.1c1.2,0.1,2-1.2,1.8-2.9s-1.3-3.1-2.4-3.1
								C363.7,186.9,362.9,188.2,363.1,189.8z"/>
						</g>
					</g>
				</g>
			</g>
			<g>
				<path class="st7" d="M394.9,253c0.5,0.5,0.4,1.3-0.1,1.8l-4,3.4c-0.2,0.2-0.5,0.3-0.8,0.3h-16.4c-0.7,0-1.3-0.6-1.3-1.3
					c0-0.7,0.6-1.3,1.3-1.3c0,0,15.1,0,16,0c0.6-0.5,3.6-3.1,3.6-3.1C393.7,252.4,394.5,252.5,394.9,253z"/>
			</g>
			<path class="st15" d="M327.5,187.9c0,3.8,3.1,6.8,6.8,6.8c3.8,0,6.8-3.1,6.8-6.8c0-3.8-3.1-6.8-6.8-6.8
				C330.6,181,327.5,184.1,327.5,187.9z"/>
			<path class="st15" d="M389.8,231.4c0,3.8,3.1,6.8,6.8,6.8c3.8,0,6.8-3.1,6.8-6.8c0-3.8-3.1-6.8-6.8-6.8S389.8,227.7,389.8,231.4z
				"/>
			<g>
				<path class="st5" d="M392.4,232.6l-7-31.9c-1.3-6.1-4.1-8.2-10.6-8.2h-40.7l0,0c-2.4,0-4.4-2-4.4-4.4s2-4.4,4.4-4.4l0,0h40.7
					c10.7,0,16.9,5,19.2,15.1l7,31.9l0,0c0.5,2.4-1,4.7-3.4,5.3C395.3,236.5,392.9,235,392.4,232.6L392.4,232.6z"/>
			</g>
			<path class="st6" d="M399.4,232.4l-7-31.9c-2.2-10.2-8.5-15.1-19.2-15.1h-40.7c-0.8,0-1.5,0.2-2.2,0.6c0.8-1.3,2.2-2.2,3.8-2.2
				h40.7c10.7,0,16.9,5,19.2,15.1l7,31.9c0.4,1.9-0.5,3.8-2.1,4.8C399.4,234.6,399.6,233.5,399.4,232.4z"/>
			<path class="st7" d="M463.1,318l-57.7-16.3V298c0-1-0.8-1.8-1.8-1.8h-7.4c-1,0-1.8,0.8-1.8,1.8v3.8L336.8,318v3.3l57.6-2.7v0.5
				c0,1,0.8,1.8,1.8,1.8h7.4c1,0,1.8-0.8,1.8-1.8v-0.5l57.7,2.8V318L463.1,318z"/>
		</g>
	</g>
	<path class="st16" d="M300.8,203.2l59.4-5.9c0.8-0.1,1.4,0.5,1.5,1.2l1.9,19.3c0.1,0.8-0.5,1.4-1.2,1.5l-59.4,5.9
		c-0.8,0.1-1.4-0.5-1.5-1.2l-1.9-19.3C299.5,203.9,300,203.3,300.8,203.2z"/>
	<g>
		<path class="st17" d="M299.8,222.9c0.1,0.8,0.8,1.3,1.5,1.2l59.4-6.1c0.7-0.1,1.3-0.8,1.2-1.5l-1.8-17.7c-0.1-0.8-0.8-1.3-1.5-1.2
			l-59.4,6.1c-0.7,0.1-1.3,0.8-1.2,1.5L299.8,222.9z"/>
	</g>
	<g>
		<path class="st18" d="M299.7,221.4c0.1,0.8,0.8,1.3,1.5,1.2l59.4-6.1c0.8-0.1,1.3-0.8,1.2-1.5l-1.8-17.7c-0.1-0.8-0.8-1.3-1.5-1.2
			l-59.4,6.1c-0.8,0.1-1.3,0.8-1.2,1.5L299.7,221.4z"/>
	</g>
	<g>
		<path class="st7" d="M330.9,138.2c3.2,7,24.7,60.1,24.9,60.7c0.1,0.2,0,0.4-0.2,0.5s-0.4,0-0.5-0.2c-0.2-0.5-21.7-53.7-24.9-60.6
			c-3.7-7.9-9.3-8.6-10.9-8.6c-0.2,0-0.5,0.1-0.5-0.1c0-0.2,0.6-0.3,0.8-0.3C321.4,129.4,327,129.8,330.9,138.2z"/>
	</g>
	<path class="st7" d="M307.2,153.3c0-0.1,0-0.6,0.1-0.6l0.6,1.8l-4.1,50c0,0.2-0.2,0.4-0.4,0.3c-0.2,0-0.4-0.2-0.3-0.4L307.2,153.3z
		"/>
</g>
<g>
	<path class="st1" d="M413.1,152.8c-0.8,0.2-1,1-0.8,2.3l6.5,21.7c0.2,0.8,1.1,1.2,1.9,1s1.2-1.1,1-1.9l-6.5-21.7
		C414.9,153,413.9,152.6,413.1,152.8z"/>
</g>
<g>
	<path class="st1" d="M304.3,120.4c-0.8,0-1.5,0.7-1.5,1.5s0.7,1.5,1.5,1.5h7.2c0.8,0,1.5-0.7,1.5-1.5s-0.7-1.5-1.5-1.5H304.3z"/>
</g>
<g>
	<path class="st1" d="M322.9,120.4c-0.8,0-1.5,0.7-1.5,1.5s0.7,1.5,1.5,1.5h63.9c5.9,0,16.5,2.2,21.2,17.1c0.3,0.8,1.1,1.2,1.9,1
		c0.8-0.3,1.2-1.1,1-1.9c-5.3-16.7-17.4-19.2-24.1-19.2C386.8,120.4,322.9,120.4,322.9,120.4z"/>
</g>
<g>
	<path class="st1" d="M496.6,324.7c-0.8,0-1.5,0.7-1.5,1.5s0.7,1.5,1.5,1.5h24.2c0.8,0,1.5-0.7,1.5-1.5s-0.7-1.5-1.5-1.5H496.6z"/>
</g>
<g>
	<path class="st1" d="M332.4,280.2c-0.8,0-1.5,0.7-1.5,1.5s0.7,1.5,1.5,1.5h24.2c0.8,0,1.5-0.7,1.5-1.5s-0.7-1.5-1.5-1.5H332.4z"/>
</g>
<g>
	<path class="st1" d="M366.9,280.2c-0.8,0-1.5,0.7-1.5,1.5s0.7,1.5,1.5,1.5h7.2c0.8,0,1.5-0.7,1.5-1.5s-0.7-1.5-1.5-1.5H366.9z"/>
</g>
<g>
	<g>
		<path class="st1" d="M657,118.7c-0.8,0-1.5,0.7-1.5,1.5s0.7,1.5,1.5,1.5h24.2c0.8,0,1.5-0.7,1.5-1.5s-0.7-1.5-1.5-1.5H657z"/>
	</g>
	<g>
		<path class="st1" d="M691.5,118.7c-0.8,0-1.5,0.7-1.5,1.5s0.7,1.5,1.5,1.5h7.2c0.8,0,1.5-0.7,1.5-1.5s-0.7-1.5-1.5-1.5H691.5z"/>
	</g>
</g>
<g>
	<g>
		<path class="st1" d="M818,185.3c-0.8,0-1.5,0.7-1.5,1.5s0.7,1.5,1.5,1.5h24.2c0.8,0,1.5-0.7,1.5-1.5s-0.7-1.5-1.5-1.5H818z"/>
	</g>
	<g>
		<path class="st1" d="M852.5,185.3c-0.8,0-1.5,0.7-1.5,1.5s0.7,1.5,1.5,1.5h7.2c0.8,0,1.5-0.7,1.5-1.5s-0.7-1.5-1.5-1.5H852.5z"/>
	</g>
</g>
<g>
	<path class="st1" d="M532.7,324.7c-0.8,0-1.5,0.7-1.5,1.5s0.7,1.5,1.5,1.5h85.2c0.8,0,1.5-0.7,1.5-1.5s-0.7-1.5-1.5-1.5H532.7z"/>
</g>
<g>
	<path class="st1" d="M632.5,324.7c-0.8,0-1.5,0.7-1.5,1.5s0.7,1.5,1.5,1.5h12.6c0.8,0,1.5-0.7,1.5-1.5s-0.7-1.5-1.5-1.5H632.5z"/>
</g>
<g>
	<path class="st1" d="M740.4,126.7c-11.7,6-18.9,17.9-18.9,31c0,0.8,0.7,1.5,1.5,1.5s1.5-0.7,1.5-1.5c0-12,6.6-22.8,17.3-28.3
		c0.7-0.4,1-1.3,0.6-2C742,126.6,741.1,126.3,740.4,126.7z"/>
</g>
<g>
	<path class="st1" d="M754.8,124.3c0,0.8,0.7,1.5,1.5,1.5c17.6,0,31.8,14.3,31.8,31.8c0,8.5-3.3,16.5-9.3,22.5
		c-0.6,0.6-0.6,1.5,0,2.1s1.5,0.6,2.1,0c6.6-6.6,10.2-15.3,10.2-24.6c0-19.2-15.6-34.8-34.8-34.8
		C755.5,122.8,754.8,123.5,754.8,124.3z"/>
</g>
<g>
	<path class="st1" d="M326.2,236.8c-0.8,0.1-1.3,0.9-1.2,1.7c0,0.2,3.2,16.1,21.6,16.2c0.8,0,1.5-0.7,1.5-1.5s-0.7-1.5-1.5-1.5
		c-15.9-0.1-18.6-13.2-18.7-13.8C327.8,237.2,327,236.7,326.2,236.8z"/>
</g>
<g class="st2">
	<path class="st19" d="M305.3,216.7l-3.9-10l1.4-0.2l2.3,6.6c0.2,0.7,0.5,1.4,0.7,2.1c0.1-1.1,0.2-1.8,0.3-2l1.2-7.2l1.6-0.2l2,5
		c0.5,1.3,0.9,2.4,1.2,3.6c0.1-0.7,0.1-1.4,0.3-2.3l0.9-6.8l1.4-0.1l-1.7,10.6l-1.3,0.1l-3-7.6c-0.3-0.6-0.4-1-0.5-1.2
		c-0.1,0.5-0.1,0.9-0.2,1.2l-1.3,8.1L305.3,216.7z"/>
	<path class="st19" d="M316.1,210.4c-0.2-1.7,0.1-3.1,0.9-4.2c0.8-1.1,1.9-1.7,3.4-1.8c0.9-0.1,1.8,0,2.6,0.4c0.8,0.4,1.5,0.9,2,1.7
		c0.5,0.8,0.8,1.7,0.9,2.7c0.1,1,0,2-0.3,2.9c-0.3,0.9-0.9,1.6-1.6,2.1c-0.7,0.5-1.5,0.8-2.4,0.9c-1,0.1-1.9,0-2.7-0.4
		c-0.8-0.4-1.5-1-1.9-1.7C316.5,212.2,316.2,211.3,316.1,210.4z M317.5,210.3c0.1,1.2,0.6,2.2,1.3,2.8c0.7,0.6,1.6,0.9,2.6,0.8
		c1-0.1,1.8-0.6,2.4-1.4c0.6-0.8,0.8-1.9,0.7-3.2c-0.1-0.8-0.3-1.6-0.7-2.1c-0.4-0.6-0.8-1-1.4-1.3s-1.2-0.4-1.9-0.3
		c-1,0.1-1.8,0.5-2.4,1.3C317.5,207.6,317.3,208.8,317.5,210.3z"/>
	<path class="st19" d="M328.2,214.2l-1.1-10.3l1.4-0.1l1,9.1l5.1-0.6l0.1,1.2L328.2,214.2z"/>
	<path class="st19" d="M336.2,213.3l-1.1-10.3l1.4-0.2l6.3,7.5l-0.9-8.1l1.3-0.1l1.1,10.3l-1.4,0.2l-6.3-7.5l0.9,8.1L336.2,213.3z"
		/>
	<path class="st19" d="M346.6,212.2l-1.1-10.3l7.4-0.8l0.1,1.2l-6.1,0.7l0.3,3.2l5.7-0.6l0.1,1.2l-5.7,0.6l0.4,3.5l6.3-0.7l0.1,1.2
		L346.6,212.2z"/>
</g>
<g class="st2">
	<path class="st19" d="M516.3,300.7h-1.7v3h-3.2v-11.1h5.1c1,0,1.9,0.2,2.6,0.5s1.3,0.8,1.7,1.4c0.4,0.6,0.6,1.3,0.6,2.2
		c0,0.8-0.2,1.5-0.6,2.1c-0.4,0.6-0.9,1.1-1.6,1.4l2.4,3.5h-3.4L516.3,300.7z M517.8,295.4c-0.3-0.3-0.8-0.4-1.5-0.4h-1.7v3.3h1.7
		c0.6,0,1.1-0.1,1.5-0.4c0.3-0.3,0.5-0.7,0.5-1.2S518.1,295.7,517.8,295.4z"/>
	<path class="st19" d="M532.1,301.2v2.4h-8.9v-11.1h8.7v2.4h-5.6v1.9h4.9v2.4h-4.9v2H532.1z"/>
	<path class="st19" d="M538.2,299.6l-1.2,1.3v2.8h-3.1v-11.1h3.1v4.6l4.3-4.6h3.5l-4.5,4.9l4.8,6.2h-3.7L538.2,299.6z"/>
	<path class="st19" d="M550.7,300.7H549v3h-3.1v-11.1h5.1c1,0,1.9,0.2,2.6,0.5s1.3,0.8,1.7,1.4c0.4,0.6,0.6,1.3,0.6,2.2
		c0,0.8-0.2,1.5-0.6,2.1c-0.4,0.6-0.9,1.1-1.6,1.4l2.4,3.5h-3.4L550.7,300.7z M552.2,295.4c-0.3-0.3-0.8-0.4-1.5-0.4H549v3.3h1.8
		c0.6,0,1.1-0.1,1.5-0.4c0.3-0.3,0.5-0.7,0.5-1.2S552.5,295.7,552.2,295.4z"/>
	<path class="st19" d="M558.9,302.5c-0.9-0.9-1.4-2.2-1.4-3.8v-6.2h3.1v6.1c0,1.8,0.7,2.7,2.1,2.7c1.4,0,2.1-0.9,2.1-2.7v-6.1h3.1
		v6.2c0,1.7-0.5,2.9-1.4,3.8c-0.9,0.9-2.2,1.4-3.9,1.4S559.8,303.4,558.9,302.5z"/>
	<path class="st19" d="M572.3,295h-3.4v-2.5h10v2.5h-3.4v8.6h-3.1V295z"/>
	<path class="st19" d="M586.9,301.5h-4.7l-0.9,2.2h-3.2l4.9-11.1h3.1l4.9,11.1h-3.3L586.9,301.5z M586,299.2l-1.4-3.6l-1.4,3.6H586z
		"/>
	<path class="st19" d="M594.2,303.1c-0.9-0.5-1.7-1.2-2.2-2.1c-0.5-0.9-0.8-1.9-0.8-3s0.3-2.1,0.8-3c0.5-0.9,1.3-1.6,2.2-2.1
		c0.9-0.5,2-0.7,3.1-0.7c1,0,1.9,0.2,2.8,0.5c0.8,0.4,1.5,0.9,2,1.6l-2,1.8c-0.7-0.9-1.6-1.3-2.6-1.3c-0.6,0-1.1,0.1-1.6,0.4
		c-0.5,0.3-0.8,0.6-1.1,1.1s-0.4,1-0.4,1.7c0,0.6,0.1,1.2,0.4,1.7s0.6,0.9,1.1,1.1c0.5,0.3,1,0.4,1.6,0.4c1,0,1.9-0.4,2.6-1.3l2,1.8
		c-0.5,0.7-1.2,1.2-2,1.6c-0.8,0.4-1.7,0.5-2.8,0.5C596.2,303.9,595.2,303.6,594.2,303.1z"/>
	<path class="st19" d="M603.8,303.5c-0.7-0.3-1.2-0.7-1.6-1.2l1.7-2c0.6,0.8,1.2,1.2,1.9,1.2c0.5,0,0.8-0.1,1-0.4s0.4-0.7,0.4-1.2
		V295h-3.8v-2.4h7v7c0,1.4-0.4,2.5-1.1,3.2s-1.8,1.1-3.2,1.1C605.2,303.9,604.4,303.7,603.8,303.5z"/>
	<path class="st19" d="M619.6,301.5h-4.7l-0.9,2.2h-3.2l4.9-11.1h3.1l4.9,11.1h-3.3L619.6,301.5z M618.7,299.2l-1.4-3.6l-1.4,3.6
		H618.7z"/>
	<path class="st19" d="M635.7,293.2c1.2,0.6,2,1.4,2.7,2.5c0.6,1,1,2.2,1,3.5c0,1-0.2,1.8-0.5,2.5c-0.3,0.7-0.7,1.2-1.2,1.6
		c-0.5,0.4-1.1,0.5-1.8,0.5c-0.6,0-1-0.1-1.4-0.3c-0.4-0.2-0.7-0.6-0.9-1c-0.5,0.9-1.4,1.4-2.6,1.4c-0.6,0-1.2-0.2-1.8-0.5
		c-0.5-0.3-1-0.8-1.3-1.4c-0.3-0.6-0.5-1.3-0.5-2.1s0.2-1.5,0.5-2.1c0.3-0.6,0.7-1.1,1.3-1.4c0.5-0.3,1.1-0.5,1.8-0.5
		c0.9,0,1.7,0.3,2.2,0.9V296h2.6v4.9c0,0.3,0.1,0.6,0.2,0.7c0.1,0.2,0.3,0.2,0.5,0.2c0.7,0,1-0.8,1-2.5c0-1-0.2-1.9-0.7-2.7
		s-1.1-1.4-2-1.8s-1.9-0.7-3-0.7c-1.1,0-2.1,0.2-3,0.7c-0.9,0.5-1.5,1.1-2,2c-0.5,0.8-0.7,1.8-0.7,2.8c0,1.1,0.2,2,0.7,2.9
		c0.5,0.8,1.1,1.5,2,2c0.9,0.5,1.8,0.7,3,0.7c1.1,0,2.2-0.2,3.2-0.7l0.6,1.7c-0.5,0.2-1.1,0.4-1.7,0.6c-0.7,0.1-1.3,0.2-2,0.2
		c-1.5,0-2.9-0.3-4.1-1s-2.1-1.5-2.7-2.6s-1-2.4-1-3.8c0-1.4,0.3-2.6,1-3.7c0.6-1.1,1.6-2,2.7-2.6s2.5-1,4.1-1
		C633.2,292.3,634.6,292.6,635.7,293.2z M632.8,301.2c0.3-0.3,0.4-0.8,0.4-1.4c0-0.6-0.1-1-0.4-1.3s-0.7-0.5-1.1-0.5
		c-0.5,0-0.8,0.2-1.1,0.5s-0.4,0.8-0.4,1.3s0.1,1,0.4,1.3s0.7,0.5,1.1,0.5C632.1,301.6,632.5,301.5,632.8,301.2z"/>
	<path class="st19" d="M648.3,301.5h-4.7l-0.9,2.2h-3.2l4.9-11.1h3.1l4.9,11.1h-3.3L648.3,301.5z M647.4,299.2l-1.4-3.6l-1.4,3.6
		H647.4z"/>
	<path class="st19" d="M658.2,300.7h-1.7v3h-3.1v-11.1h5.1c1,0,1.9,0.2,2.6,0.5s1.3,0.8,1.7,1.4c0.4,0.6,0.6,1.3,0.6,2.2
		c0,0.8-0.2,1.5-0.6,2.1c-0.4,0.6-0.9,1.1-1.6,1.4l2.4,3.5h-3.4L658.2,300.7z M659.7,295.4c-0.3-0.3-0.8-0.4-1.5-0.4h-1.8v3.3h1.8
		c0.6,0,1.1-0.1,1.5-0.4c0.3-0.3,0.5-0.7,0.5-1.2S660,295.7,659.7,295.4z"/>
	<path class="st19" d="M667.3,295h-3.4v-2.5h10v2.5h-3.4v8.6h-3.1V295z"/>
	<path class="st19" d="M677.3,303.1c-0.9-0.5-1.7-1.2-2.2-2.1c-0.5-0.9-0.8-1.9-0.8-3c0-1.1,0.3-2.1,0.8-3c0.5-0.9,1.3-1.6,2.2-2.1
		c0.9-0.5,2-0.7,3.2-0.7c1.2,0,2.2,0.2,3.2,0.7c0.9,0.5,1.7,1.2,2.2,2.1c0.5,0.9,0.8,1.9,0.8,3c0,1.1-0.3,2.1-0.8,3
		c-0.5,0.9-1.3,1.6-2.2,2.1s-2,0.7-3.2,0.7C679.3,303.9,678.3,303.6,677.3,303.1z M682,300.9c0.5-0.3,0.8-0.6,1.1-1.1
		c0.3-0.5,0.4-1,0.4-1.7c0-0.6-0.1-1.2-0.4-1.7c-0.3-0.5-0.6-0.9-1.1-1.1s-1-0.4-1.5-0.4s-1.1,0.1-1.5,0.4c-0.5,0.3-0.8,0.6-1.1,1.1
		c-0.3,0.5-0.4,1-0.4,1.7c0,0.6,0.1,1.2,0.4,1.7c0.3,0.5,0.6,0.9,1.1,1.1c0.5,0.3,1,0.4,1.5,0.4S681.6,301.1,682,300.9z"/>
	<path class="st19" d="M696.1,293c0.7,0.3,1.3,0.8,1.7,1.4c0.4,0.6,0.6,1.3,0.6,2.2s-0.2,1.6-0.6,2.2c-0.4,0.6-1,1.1-1.7,1.4
		s-1.6,0.5-2.6,0.5h-1.9v2.9h-3.2v-11.1h5.1C694.5,292.5,695.3,292.7,696.1,293z M694.7,297.9c0.3-0.3,0.5-0.7,0.5-1.2
		s-0.2-0.9-0.5-1.2c-0.3-0.3-0.8-0.4-1.5-0.4h-1.7v3.3h1.7C693.9,298.3,694.4,298.1,694.7,297.9z"/>
	<path class="st19" d="M708.9,301.2v2.4h-8.9v-11.1h8.7v2.4H703v1.9h4.9v2.4H703v2H708.9z"/>
	<path class="st19" d="M721.2,292.5v11.1h-2.6l-4.9-5.9v5.9h-3.1v-11.1h2.6l4.9,5.9v-5.9H721.2z"/>
	<path class="st19" d="M723.3,303.3c-0.3-0.3-0.5-0.8-0.5-1.3c0-0.5,0.2-1,0.5-1.3s0.8-0.5,1.3-0.5c0.5,0,1,0.2,1.3,0.5
		c0.3,0.3,0.5,0.8,0.5,1.3c0,0.5-0.2,0.9-0.5,1.3c-0.3,0.3-0.8,0.5-1.3,0.5C724.1,303.8,723.6,303.6,723.3,303.3z"/>
	<path class="st19" d="M735.7,293c0.7,0.3,1.3,0.8,1.7,1.4c0.4,0.6,0.6,1.3,0.6,2.2s-0.2,1.6-0.6,2.2c-0.4,0.6-1,1.1-1.7,1.4
		s-1.6,0.5-2.6,0.5h-1.9v2.9h-3.2v-11.1h5.1C734,292.5,734.9,292.7,735.7,293z M734.3,297.9c0.3-0.3,0.5-0.7,0.5-1.2
		s-0.2-0.9-0.5-1.2c-0.3-0.3-0.8-0.4-1.5-0.4h-1.7v3.3h1.7C733.5,298.3,734,298.1,734.3,297.9z"/>
	<path class="st19" d="M739.5,292.5h3.1v8.6h5.3v2.5h-8.5V292.5z"/>
</g>
<g class="st2">
	<path class="st1" d="M801.1,279.9l-4.3,13.2h-4l-2.5-8l-2.6,8h-4l-4.3-13.2h3.8l2.7,8.4l2.8-8.4h3.4l2.7,8.5l2.8-8.5H801.1z"/>
	<path class="st1" d="M809.3,288.3v4.7h-3.7v-4.8l-5-8.4h3.9l3.1,5.2l3.1-5.2h3.6L809.3,288.3z"/>
	<path class="st1" d="M816.5,292.9c-1-0.3-1.8-0.6-2.4-1.1l1.2-2.7c0.6,0.4,1.3,0.7,2.1,0.9s1.5,0.4,2.3,0.4c1.4,0,2.1-0.4,2.1-1.1
		c0-0.4-0.2-0.7-0.6-0.8c-0.4-0.2-1.1-0.4-2-0.6c-1-0.2-1.8-0.4-2.5-0.7c-0.7-0.2-1.2-0.6-1.7-1.2c-0.5-0.5-0.7-1.3-0.7-2.2
		c0-0.8,0.2-1.5,0.7-2.2s1.1-1.2,2-1.5c0.9-0.4,1.9-0.6,3.2-0.6c0.9,0,1.7,0.1,2.6,0.3c0.8,0.2,1.6,0.5,2.2,0.9l-1.1,2.8
		c-1.3-0.7-2.5-1-3.7-1c-0.7,0-1.3,0.1-1.6,0.3s-0.5,0.5-0.5,0.9c0,0.4,0.2,0.6,0.6,0.8s1,0.4,1.9,0.5c1,0.2,1.8,0.4,2.5,0.7
		c0.7,0.2,1.2,0.6,1.7,1.2s0.7,1.3,0.7,2.2c0,0.8-0.2,1.5-0.7,2.1c-0.4,0.6-1.1,1.2-2,1.5c-0.9,0.4-1.9,0.6-3.2,0.6
		C818.5,293.3,817.5,293.2,816.5,292.9z M820.5,275.9h3.6l-3.5,2.9H818L820.5,275.9z"/>
	<path class="st1" d="M827.1,279.9h3.7v10.2h6.3v3h-10V279.9z"/>
	<path class="st1" d="M838.6,279.9h3.7V293h-3.7V279.9z"/>
	<path class="st1" d="M845.3,292.8c-0.8-0.3-1.4-0.8-1.9-1.4l2-2.4c0.7,0.9,1.5,1.4,2.3,1.4c0.5,0,1-0.2,1.2-0.5s0.4-0.8,0.4-1.4
		v-5.7h-4.6v-2.9h8.2v8.3c0,1.7-0.4,3-1.3,3.8c-0.9,0.9-2.1,1.3-3.8,1.3C846.9,293.3,846.1,293.1,845.3,292.8z"/>
</g>
<g class="st2">
	<path class="st1" d="M793,305v13.2h-3.1l-5.8-7v7h-3.7V305h3.1l5.8,7v-7H793z"/>
	<path class="st1" d="M804.4,315.6h-5.6l-1,2.6H794l5.8-13.2h3.7l5.8,13.2h-3.9L804.4,315.6z M803.3,312.8l-1.7-4.2l-1.7,4.2H803.3z
		"/>
	<path class="st1" d="M822.3,318.1l0-7l-3.4,5.7h-1.7l-3.4-5.5v6.8h-3.4V305h3.1l4.6,7.6l4.5-7.6h3.1l0,13.2H822.3z"/>
	<path class="st1" d="M836.7,317.5c-1.1-0.6-2-1.4-2.6-2.4c-0.6-1-0.9-2.2-0.9-3.5s0.3-2.5,0.9-3.5c0.6-1,1.5-1.9,2.6-2.4
		c1.1-0.6,2.3-0.9,3.7-0.9c1.2,0,2.3,0.2,3.3,0.6s1.8,1,2.4,1.8l-2.4,2.1c-0.9-1-1.9-1.5-3.1-1.5c-0.7,0-1.4,0.2-1.9,0.5
		c-0.6,0.3-1,0.8-1.3,1.3s-0.5,1.2-0.5,2c0,0.7,0.2,1.4,0.5,2s0.7,1,1.3,1.3c0.6,0.3,1.2,0.5,1.9,0.5c1.2,0,2.3-0.5,3.1-1.5l2.4,2.1
		c-0.6,0.8-1.4,1.4-2.4,1.8s-2.1,0.6-3.3,0.6C839,318.4,837.8,318.1,836.7,317.5z"/>
	<path class="st1" d="M861.1,305l-5.6,13.2h-3.7l-5.6-13.2h4l3.6,8.6l3.7-8.6H861.1z"/>
</g>
</svg>
