<?xml version="1.0" encoding="utf-8"?>
<!-- Generator: Adobe Illustrator 19.0.0, SVG Export Plug-In . SVG Version: 6.00 Build 0)  -->
<svg version="1.1" id="Warstwa_1" xmlns="http://www.w3.org/2000/svg" xmlns:xlink="http://www.w3.org/1999/xlink" x="0px" y="0px"
	 viewBox="94 -87.2 687.2 674.2" style="enable-background:new 94 -87.2 687.2 674.2;" xml:space="preserve">
<style type="text/css">
	.st0{clip-path:url(#SVGID_2_);fill:url(#SVGID_3_);}
	.st1{enable-background:new    ;}
	.st2{fill:#FFFFFF;}
	.st3{fill:#FDC912;}
	.st4{opacity:0.2;enable-background:new    ;}
	.st5{fill:#D9D9D9;}
	.st6{opacity:0.5;fill:#C4C4C4;enable-background:new    ;}
	.st7{fill:#091B31;}
	.st8{fill:url(#SVGID_4_);}
	.st9{fill:#DBA521;}
	.st10{fill:#E9BF47;}
	.st11{fill:url(#SVGID_5_);}
	.st12{fill:url(#SVGID_6_);}
	.st13{fill:url(#SVGID_7_);}
	.st14{fill:url(#SVGID_8_);}
	.st15{opacity:0.3;enable-background:new    ;}
	.st16{opacity:0.1;enable-background:new    ;}
	.st17{fill:#D4BA9E;}
	.st18{fill:#F2E8BF;}
	.st19{fill:#231F20;}
</style>
<g>
	<g>
		<g>
			<defs>
				<rect id="SVGID_1_" x="92.5" y="-87.2" width="688.7" height="674.2"/>
			</defs>
			<clipPath id="SVGID_2_">
				<use xlink:href="#SVGID_1_"  style="overflow:visible;"/>
			</clipPath>
			
				<linearGradient id="SVGID_3_" gradientUnits="userSpaceOnUse" x1="-684.4229" y1="1277.4457" x2="-683.1676" y2="1277.4457" gradientTransform="matrix(526.5874 0 0 -526.5874 360501.875 672936.6875)">
				<stop  offset="0" style="stop-color:#379E6E"/>
				<stop  offset="1" style="stop-color:#72C6D4"/>
			</linearGradient>
			<polygon class="st0" points="93.4,-87.2 781.2,-87.2 781.2,587 95,587 			"/>
		</g>
	</g>
</g>
<g>
	<g>
		<g class="st1">
			<path class="st2" d="M346.7,159.3c-3-1.6-5.3-3.9-7-6.7c-1.7-2.9-2.5-6.1-2.5-9.6c0-3.6,0.8-6.8,2.5-9.6c1.7-2.9,4-5.1,7-6.7
				c3-1.6,6.3-2.5,10-2.5c3.7,0,7,0.8,9.9,2.4c2.9,1.6,5.3,3.9,6.9,6.7c1.7,2.9,2.5,6.1,2.5,9.6c0,3.6-0.8,6.8-2.5,9.6
				s-4,5.1-6.9,6.7c-2.9,1.6-6.2,2.4-9.9,2.4C353,161.8,349.7,160.9,346.7,159.3z M364.6,156.3c2.4-1.3,4.2-3.1,5.5-5.5
				c1.3-2.3,2-5,2-7.8c0-2.9-0.7-5.5-2-7.8c-1.3-2.3-3.2-4.2-5.5-5.5c-2.4-1.3-5-2-7.9-2c-2.9,0-5.6,0.7-7.9,2
				c-2.4,1.3-4.2,3.2-5.6,5.5c-1.4,2.3-2,5-2,7.8c0,2.9,0.7,5.5,2,7.8c1.4,2.3,3.2,4.2,5.6,5.5c2.4,1.3,5,2,7.9,2
				C359.6,158.3,362.2,157.6,364.6,156.3z"/>
			<path class="st2" d="M390.6,127.9v14.5h19.1v3.4h-19.1v15.7h-3.9v-37h25.3v3.4H390.6z"/>
			<path class="st2" d="M448.2,158.1v3.4h-26.1v-37h25.3v3.4H426V141h19.1v3.3H426v13.7H448.2z"/>
			<path class="st2" d="M484.6,161.4l-8.4-11.9c-1,0.1-1.9,0.2-3,0.2h-9.9v11.7h-3.9v-37h13.8c4.7,0,8.4,1.1,11.1,3.4
				c2.7,2.3,4,5.4,4,9.3c0,2.9-0.7,5.3-2.2,7.3c-1.5,2-3.5,3.4-6.3,4.3l9,12.7H484.6z M481.5,144c1.9-1.6,2.9-3.9,2.9-6.8
				c0-3-1-5.3-2.9-6.9c-1.9-1.6-4.7-2.4-8.4-2.4h-9.8v18.5h9.8C476.8,146.4,479.6,145.6,481.5,144z"/>
			<path class="st2" d="M506.1,127.9h-13v-3.4H523v3.4h-13v33.6h-3.9V127.9z"/>
			<path class="st2" d="M552.6,151.6H532l-4.4,9.9h-4.1l16.9-37h3.9l16.9,37H557L552.6,151.6z M551.1,148.4l-8.9-19.9l-8.9,19.9
				H551.1z"/>
		</g>
		<g class="st1">
			<path class="st2" d="M378.4,185.2c3.7,1.7,6.6,4.1,8.7,7.2c2,3.1,3,6.8,3,10.9c0,4.2-1,7.8-3,10.9c-2,3.1-4.9,5.5-8.7,7.2
				c-3.7,1.7-8.1,2.5-13.2,2.5h-7.9v13.4h-18.4v-54.7h26.3C370.3,182.7,374.7,183.5,378.4,185.2z M369.7,208
				c1.2-1.1,1.9-2.7,1.9-4.7s-0.6-3.6-1.9-4.7c-1.2-1.1-3.1-1.7-5.6-1.7h-6.7v12.8h6.7C366.6,209.7,368.4,209.1,369.7,208z"/>
			<path class="st2" d="M423.6,223.6h-5v13.7h-18.4v-54.7h26.3c5,0,9.4,0.8,13.2,2.5c3.7,1.7,6.6,4.1,8.7,7.2s3,6.8,3,10.9
				c0,3.9-0.9,7.3-2.7,10.2c-1.8,2.9-4.3,5.2-7.7,7l11.5,16.9h-19.7L423.6,223.6z M430.9,198.6c-1.2-1.1-3.1-1.7-5.6-1.7h-6.7v12.8
				h6.7c2.5,0,4.4-0.6,5.6-1.7c1.2-1.1,1.9-2.7,1.9-4.7S432.2,199.7,430.9,198.6z"/>
			<path class="st2" d="M499.5,227.8h-20.8l-3.7,9.5h-18.7l23.9-54.7h18.1l23.9,54.7h-19.1L499.5,227.8z M494.5,214.5l-5.3-13.7
				l-5.3,13.7H494.5z"/>
			<path class="st2" d="M541.1,235c-4.6-2.4-8.3-5.8-10.9-10.2c-2.6-4.3-3.9-9.3-3.9-14.8s1.3-10.5,3.9-14.8
				c2.6-4.3,6.3-7.7,10.9-10.2c4.6-2.4,9.8-3.6,15.6-3.6c5.3,0,10,0.9,14.2,2.8c4.2,1.9,7.6,4.6,10.3,8.1l-11.6,10.4
				c-3.4-4.3-7.4-6.4-11.9-6.4c-3.9,0-7,1.2-9.3,3.7s-3.5,5.8-3.5,10s1.2,7.5,3.5,10c2.3,2.5,5.4,3.7,9.3,3.7
				c4.6,0,8.6-2.1,11.9-6.4l11.6,10.4c-2.7,3.5-6.1,6.2-10.3,8.1c-4.2,1.9-8.9,2.8-14.2,2.8C550.9,238.6,545.7,237.4,541.1,235z"/>
			<path class="st2" d="M623,217.5v19.8h-18.4v-20.1L584,182.7h19.4l11.2,18.9l11.2-18.9h17.8L623,217.5z"/>
			<path class="st2" d="M648.8,182.7h21.1l-3.5,33.7h-14.1L648.8,182.7z M651.9,235.4c-1.9-1.8-2.9-4-2.9-6.6c0-2.7,1-4.9,2.9-6.6
				c1.9-1.7,4.4-2.6,7.4-2.6c3,0,5.5,0.9,7.4,2.6c1.9,1.7,2.9,3.9,2.9,6.6c0,2.6-1,4.8-2.9,6.6c-1.9,1.8-4.4,2.7-7.4,2.7
				C656.3,238.1,653.8,237.2,651.9,235.4z"/>
		</g>
		<g>
			<g>
				<g>
					<path class="st2" d="M628.9,126.7c0,3.8-3.1,6.9-6.9,6.9c-3.8,0-6.9-3.1-6.9-6.9c0-3.8,3.1-6.9,6.9-6.9
						C625.8,119.8,628.9,122.9,628.9,126.7z"/>
					<path class="st2" d="M634.5,147.7v-0.4c0-6.6-5.4-12-11.9-12h-1.1c-6.6,0-11.9,5.4-11.9,12v0.4H634.5z"/>
				</g>
				<g>
					<path class="st2" d="M595,134.4c0,14.9,12.1,27,27,27s27-12.1,27-27s-12.1-27-27-27C607.1,107.4,595,119.5,595,134.4z
						 M597.6,134.4c0-13.5,11-24.4,24.4-24.4c13.5,0,24.4,11,24.4,24.4c0,13.5-11,24.4-24.4,24.4
						C608.5,158.8,597.6,147.9,597.6,134.4z"/>
				</g>
			</g>
			<g>
				<path class="st3" d="M639.6,304.2H362.7v-37.4c0,0,210.1,0,245.3,0C643.3,266.8,639.6,304.2,639.6,304.2z"/>
			</g>
			<path class="st4" d="M343.8,176.8h-0.6l0.5,2.4v-2.4H343.8z M343.8,209.9v-20.3H329v24.9c8.5,0,15.6-0.1,20.1-0.1
				c0.2,0,0.5,0,0.7,0c0.7,0,1.3,0,1.8,0h0.3c0.7,0,1.2,0,1.6,0c2.9,0,5-1.9,6.2-4.6h-15.9L343.8,209.9L343.8,209.9z"/>
			<g>
				<g>
					<path class="st4" d="M180.3,304.1c0,2.1,39.5,3.8,88.1,3.8c48.7,0,88.1-1.7,88.1-3.8c0-2.1-39.5-3.8-88.1-3.8
						S180.3,302,180.3,304.1z"/>
					<g>
						<g>
							<path class="st5" d="M340.4,197.4l-7-31.9c-1.3-6.1-4.1-8.2-10.6-8.2h-40.6l0,0c-2.4,0-4.4-2-4.4-4.4s2-4.4,4.4-4.4l0,0h40.7
								c10.7,0,16.9,5,19.2,15.1l7,31.9l0,0c0.5,2.4-1,4.7-3.4,5.3C343.3,201.3,340.9,199.8,340.4,197.4L340.4,197.4z"/>
						</g>
						<path class="st6" d="M347.4,197.2l-7-31.9c-2.3-10.2-8.6-15.2-19.2-15.2h-40.7c-0.8,0-1.5,0.2-2.2,0.6
							c0.8-1.3,2.2-2.2,3.8-2.2h40.7c10.7,0,16.9,5,19.2,15.1l7,31.9c0.4,1.9-0.5,3.8-2.1,4.8C347.4,199.4,347.6,198.3,347.4,197.2z
							"/>
						<rect x="268.7" y="206.9" class="st5" width="7.7" height="55.4"/>
						<rect x="266.2" y="233.8" class="st7" width="12.8" height="35.1"/>
						<rect x="266.2" y="213.4" class="st7" width="12.8" height="8.6"/>
						<g>
							<rect x="330.8" y="284.7" class="st7" width="2.8" height="12.6"/>
							<path class="st7" d="M335.7,300.2c0,3.4-2.8,6.1-6.1,6.1c-3.4,0-6.1-2.8-6.1-6.1c0-3.4,2.7-6.1,6.1-6.1
								C332.9,294.1,335.7,296.8,335.7,300.2z"/>
							<path class="st5" d="M334.5,300.2c0,2.8-2.2,5-5,5s-5-2.2-5-5s2.2-5,5-5S334.5,297.5,334.5,300.2z"/>
						</g>
						<g>
							<rect x="306.8" y="283.7" class="st7" width="2.8" height="13.6"/>
							<path class="st7" d="M311.7,300.2c0,3.4-2.8,6.1-6.1,6.1c-3.4,0-6.1-2.8-6.1-6.1c0-3.4,2.7-6.1,6.1-6.1
								S311.7,296.8,311.7,300.2z"/>
							<path class="st5" d="M310.6,300.2c0,2.8-2.2,5-5,5s-5-2.2-5-5s2.2-5,5-5S310.6,297.5,310.6,300.2z"/>
						</g>
						<g>
							<rect x="235.4" y="283.7" class="st7" width="2.8" height="13.6"/>
							<path class="st7" d="M233.3,300.2c0,3.4,2.8,6.1,6.1,6.1c3.4,0,6.2-2.8,6.2-6.1c0-3.4-2.8-6.1-6.2-6.1
								C236.1,294.1,233.3,296.8,233.3,300.2z"/>
							<path class="st5" d="M234.5,300.2c0,2.8,2.2,5,5,5s5-2.2,5-5s-2.2-5-5-5C236.7,295.2,234.5,297.5,234.5,300.2z"/>
						</g>
						<g>
							<rect x="211.6" y="283.7" class="st7" width="2.8" height="13.6"/>
							<path class="st7" d="M209.6,300.2c0,3.4,2.7,6.1,6.1,6.1s6.1-2.8,6.1-6.1c0-3.4-2.8-6.1-6.1-6.1
								C212.3,294.1,209.6,296.8,209.6,300.2z"/>
							<path class="st5" d="M210.7,300.2c0,2.8,2.2,5,5,5s5-2.2,5-5s-2.2-5-5-5C213,295.2,210.7,297.5,210.7,300.2z"/>
						</g>
						<path class="st7" d="M297.3,208.8c-0.2,4.2-3.7,7.6-8,7.6h-33.1c-4.3,0-7.8-3.3-8-7.6H297.3z"/>
						<g>
							
								<linearGradient id="SVGID_4_" gradientUnits="userSpaceOnUse" x1="1538.957" y1="143.9386" x2="1561.515" y2="182.739" gradientTransform="matrix(-1 0 0 1 1810.0341 4)">
								<stop  offset="0" style="stop-color:#DBA521"/>
								<stop  offset="1" style="stop-color:#C28524"/>
							</linearGradient>
							<path class="st8" d="M188.4,94.7c0,0,69.7,0,71.1,0c8.4,0,12.8,5.4,15.1,12.6c1.7,5.5,16,54.5,20,65.7s9.5,11.8,13.5,11.8
								h31.4c16.2,0,16.4,24.8,5.7,24.8c-10.7,0-114.4,0.5-114.4,0.5L188.4,94.7z"/>
							<path class="st9" d="M345,209.5c-6.7,0-49.5,0.2-80.8,0.4l4-25.2h71.1C355.6,184.7,355.8,209.5,345,209.5z"/>
							<path class="st10" d="M176.1,104.5c1.2,4.1,20.2,66.3,27.3,89.4c1.4,4.7,5,16.3,17.4,16.3c9.1,0,41.2-0.4,51.9-0.4
								s11.7-25.1-4.5-25.1s-27.4,0-31.3,0c-4,0-9.5-0.6-13.5-11.8c-4-11.1-18.2-60.2-20-65.7c-3.3-10.4-9.8-13.5-19.9-12.4
								C179.7,95.1,174.3,98.2,176.1,104.5z"/>
							<g>
								<g>
									<g>
										
											<linearGradient id="SVGID_5_" gradientUnits="userSpaceOnUse" x1="1550.425" y1="114.8" x2="1554.7532" y2="114.8" gradientTransform="matrix(-1 0 0 1 1810.0341 4)">
											<stop  offset="0" style="stop-color:#DBA521"/>
											<stop  offset="1" style="stop-color:#C28524"/>
										</linearGradient>
										<path class="st11" d="M255.3,118.7c0.2,1.7,1.3,3.1,2.4,3.1c1.2,0.1,2-1.2,1.8-2.9s-1.3-3.1-2.4-3.1
											C256,115.7,255.2,117,255.3,118.7z"/>
									</g>
									<g>
										
											<linearGradient id="SVGID_6_" gradientUnits="userSpaceOnUse" x1="1583.2695" y1="114.8" x2="1587.6055" y2="114.8" gradientTransform="matrix(-1 0 0 1 1810.0341 4)">
											<stop  offset="0" style="stop-color:#DBA521"/>
											<stop  offset="1" style="stop-color:#C28524"/>
										</linearGradient>
										<path class="st12" d="M222.5,118.7c0.2,1.7,1.3,3.1,2.5,3.1c1.2,0.1,2-1.2,1.8-2.9s-1.3-3.1-2.4-3.1
											C223.2,115.7,222.3,117,222.5,118.7z"/>
									</g>
									<g>
										
											<linearGradient id="SVGID_7_" gradientUnits="userSpaceOnUse" x1="1537.1626" y1="150.7027" x2="1541.4985" y2="150.7027" gradientTransform="matrix(-1 0 0 1 1810.0341 4)">
											<stop  offset="0" style="stop-color:#DBA521"/>
											<stop  offset="1" style="stop-color:#C28524"/>
										</linearGradient>
										<path class="st13" d="M268.6,154.6c0.2,1.7,1.3,3.1,2.4,3.1c1.2,0.1,2-1.2,1.8-2.9s-1.3-3.1-2.4-3.1
											S268.4,153,268.6,154.6z"/>
									</g>
									<g>
										
											<linearGradient id="SVGID_8_" gradientUnits="userSpaceOnUse" x1="1570.0107" y1="150.7027" x2="1574.3447" y2="150.7027" gradientTransform="matrix(-1 0 0 1 1810.0341 4)">
											<stop  offset="0" style="stop-color:#DBA521"/>
											<stop  offset="1" style="stop-color:#C28524"/>
										</linearGradient>
										<path class="st14" d="M235.8,154.6c0.2,1.7,1.3,3.1,2.4,3.1c1.2,0.1,2-1.2,1.8-2.9s-1.3-3.1-2.4-3.1
											C236.4,151.7,235.6,153,235.8,154.6z"/>
									</g>
								</g>
							</g>
						</g>
						<g>
							<path class="st7" d="M267.6,217.8c0.5,0.5,0.4,1.3-0.1,1.8l-4,3.4c-0.2,0.2-0.5,0.3-0.8,0.3h-16.4c-0.7,0-1.3-0.6-1.3-1.3
								c0-0.7,0.6-1.3,1.3-1.3c0,0,15.1,0,16,0c0.6-0.5,3.6-3.1,3.6-3.1C266.4,217.2,267.2,217.3,267.6,217.8z"/>
						</g>
						<path class="st15" d="M200.2,152.7c0,3.8,3.1,6.8,6.8,6.8c3.8,0,6.8-3.1,6.8-6.8c0-3.8-3.1-6.8-6.8-6.8
							C203.3,145.8,200.2,148.9,200.2,152.7z"/>
						<path class="st15" d="M262.5,196.2c0,3.8,3.1,6.8,6.8,6.8c3.8,0,6.8-3.1,6.8-6.8c0-3.8-3.1-6.8-6.8-6.8
							S262.5,192.5,262.5,196.2z"/>
						<g>
							<path class="st5" d="M265.1,197.4l-7-31.9c-1.3-6.1-4.1-8.2-10.6-8.2h-40.7l0,0c-2.4,0-4.4-2-4.4-4.4s2-4.4,4.4-4.4l0,0h40.7
								c10.7,0,16.9,5,19.2,15.1l7,31.9l0,0c0.5,2.4-1,4.7-3.4,5.3C268,201.3,265.6,199.8,265.1,197.4L265.1,197.4z"/>
						</g>
						<path class="st6" d="M272.1,197.2l-7-31.9c-2.2-10.2-8.5-15.1-19.2-15.1h-40.7c-0.8,0-1.5,0.2-2.2,0.6
							c0.8-1.3,2.2-2.2,3.8-2.2h40.7c10.7,0,16.9,5,19.2,15.1l7,31.9c0.4,1.9-0.5,3.8-2.1,4.8C272.1,199.4,272.3,198.3,272.1,197.2z
							"/>
						<path class="st7" d="M335.8,282.8l-57.7-16.3v-3.7c0-1-0.8-1.8-1.8-1.8h-7.4c-1,0-1.8,0.8-1.8,1.8v3.8l-57.6,16.2v3.3
							l57.6-2.7v0.5c0,1,0.8,1.8,1.8,1.8h7.4c1,0,1.8-0.8,1.8-1.8v-0.5l57.7,2.8V282.8L335.8,282.8z"/>
					</g>
				</g>
				<path class="st16" d="M173.5,168l59.4-5.9c0.8-0.1,1.4,0.5,1.5,1.2l1.9,19.3c0.1,0.8-0.5,1.4-1.2,1.5l-59.4,5.9
					c-0.8,0.1-1.4-0.5-1.5-1.2l-1.9-19.3C172.2,168.7,172.7,168.1,173.5,168z"/>
				<g>
					<path class="st17" d="M172.5,187.7c0.1,0.8,0.8,1.3,1.5,1.2l59.4-6.1c0.7-0.1,1.3-0.8,1.2-1.5l-1.8-17.7
						c-0.1-0.8-0.8-1.3-1.5-1.2l-59.4,6.1c-0.7,0.1-1.3,0.8-1.2,1.5L172.5,187.7z"/>
				</g>
				<g>
					<path class="st18" d="M172.4,186.2c0.1,0.8,0.8,1.3,1.5,1.2l59.4-6.1c0.8-0.1,1.3-0.8,1.2-1.5l-1.8-17.7
						c-0.1-0.8-0.8-1.3-1.5-1.2l-59.4,6.1c-0.8,0.1-1.3,0.8-1.2,1.5L172.4,186.2z"/>
				</g>
				<g>
					<path class="st7" d="M203.6,103c3.2,7,24.7,60.1,24.9,60.7c0.1,0.2,0,0.4-0.2,0.5s-0.4,0-0.5-0.2c-0.2-0.5-21.7-53.7-24.9-60.6
						c-3.7-7.9-9.3-8.6-10.9-8.6c-0.2,0-0.5,0.1-0.5-0.1c0-0.2,0.6-0.3,0.8-0.3C194.1,94.2,199.7,94.6,203.6,103z"/>
				</g>
				<path class="st7" d="M179.9,118.1c0-0.1,0-0.6,0.1-0.6l0.6,1.8l-4.1,50c0,0.2-0.2,0.4-0.4,0.3c-0.2,0-0.4-0.2-0.3-0.4
					L179.9,118.1z"/>
			</g>
			<g>
				<path class="st2" d="M285.8,117.6c-0.8,0.2-1,1-0.8,2.3l6.5,21.7c0.2,0.8,1.1,1.2,1.9,1s1.2-1.1,1-1.9l-6.5-21.7
					C287.6,117.8,286.6,117.4,285.8,117.6z"/>
			</g>
			<g>
				<path class="st2" d="M177,85.2c-0.8,0-1.5,0.7-1.5,1.5s0.7,1.5,1.5,1.5h7.2c0.8,0,1.5-0.7,1.5-1.5s-0.7-1.5-1.5-1.5H177z"/>
			</g>
			<g>
				<path class="st2" d="M195.6,85.2c-0.8,0-1.5,0.7-1.5,1.5s0.7,1.5,1.5,1.5h63.9c5.9,0,16.5,2.2,21.2,17.1c0.3,0.8,1.1,1.2,1.9,1
					c0.8-0.3,1.2-1.1,1-1.9c-5.3-16.7-17.4-19.2-24.1-19.2C259.5,85.2,195.6,85.2,195.6,85.2z"/>
			</g>
			<g>
				<path class="st2" d="M362.3,312c-0.8,0-1.5,0.7-1.5,1.5s0.7,1.5,1.5,1.5h24.2c0.8,0,1.5-0.7,1.5-1.5s-0.7-1.5-1.5-1.5H362.3z"/>
			</g>
			<g>
				<path class="st2" d="M205.1,245c-0.8,0-1.5,0.7-1.5,1.5s0.7,1.5,1.5,1.5h24.2c0.8,0,1.5-0.7,1.5-1.5s-0.7-1.5-1.5-1.5H205.1z"/>
			</g>
			<g>
				<path class="st2" d="M239.6,245c-0.8,0-1.5,0.7-1.5,1.5s0.7,1.5,1.5,1.5h7.2c0.8,0,1.5-0.7,1.5-1.5s-0.7-1.5-1.5-1.5H239.6z"/>
			</g>
			<g>
				<g>
					<path class="st2" d="M522.7,95.5c-0.8,0-1.5,0.7-1.5,1.5s0.7,1.5,1.5,1.5h24.2c0.8,0,1.5-0.7,1.5-1.5s-0.7-1.5-1.5-1.5H522.7z"
						/>
				</g>
				<g>
					<path class="st2" d="M557.2,95.5c-0.8,0-1.5,0.7-1.5,1.5s0.7,1.5,1.5,1.5h7.2c0.8,0,1.5-0.7,1.5-1.5s-0.7-1.5-1.5-1.5H557.2z"
						/>
				</g>
			</g>
			<g>
				<g>
					<path class="st2" d="M683.7,162.1c-0.8,0-1.5,0.7-1.5,1.5s0.7,1.5,1.5,1.5h24.2c0.8,0,1.5-0.7,1.5-1.5s-0.7-1.5-1.5-1.5H683.7z
						"/>
				</g>
				<g>
					<path class="st2" d="M718.2,162.1c-0.8,0-1.5,0.7-1.5,1.5s0.7,1.5,1.5,1.5h7.2c0.8,0,1.5-0.7,1.5-1.5s-0.7-1.5-1.5-1.5H718.2z"
						/>
				</g>
			</g>
			<g>
				<path class="st2" d="M398.4,312c-0.8,0-1.5,0.7-1.5,1.5s0.7,1.5,1.5,1.5h85.2c0.8,0,1.5-0.7,1.5-1.5s-0.7-1.5-1.5-1.5H398.4z"/>
			</g>
			<g>
				<path class="st2" d="M498.2,312c-0.8,0-1.5,0.7-1.5,1.5s0.7,1.5,1.5,1.5h12.6c0.8,0,1.5-0.7,1.5-1.5s-0.7-1.5-1.5-1.5H498.2z"/>
			</g>
			<g>
				<path class="st2" d="M606.1,103.5c-11.7,6-18.9,17.9-18.9,31c0,0.8,0.7,1.5,1.5,1.5s1.5-0.7,1.5-1.5c0-12,6.6-22.8,17.3-28.3
					c0.7-0.4,1-1.3,0.6-2C607.7,103.4,606.8,103.1,606.1,103.5z"/>
			</g>
			<g>
				<path class="st2" d="M620.5,101.1c0,0.8,0.7,1.5,1.5,1.5c17.6,0,31.8,14.3,31.8,31.8c0,8.5-3.3,16.5-9.3,22.5
					c-0.6,0.6-0.6,1.5,0,2.1s1.5,0.6,2.1,0c6.6-6.6,10.2-15.3,10.2-24.6c0-19.2-15.6-34.8-34.8-34.8
					C621.2,99.6,620.5,100.3,620.5,101.1z"/>
			</g>
			<g>
				<path class="st2" d="M198.9,201.6c-0.8,0.1-1.3,0.9-1.2,1.7c0,0.2,3.2,16.1,21.6,16.2c0.8,0,1.5-0.7,1.5-1.5s-0.7-1.5-1.5-1.5
					c-15.9-0.1-18.6-13.2-18.7-13.8C200.5,202,199.7,201.5,198.9,201.6z"/>
			</g>
		</g>
	</g>
	<g class="st1">
		<path class="st19" d="M178,181.5l-3.9-10l1.4-0.2l2.3,6.6c0.2,0.7,0.5,1.4,0.7,2.1c0.1-1.1,0.2-1.8,0.3-2l1.2-7.2l1.6-0.2l2,5
			c0.5,1.3,0.9,2.4,1.2,3.6c0.1-0.7,0.1-1.4,0.3-2.3l0.9-6.8l1.4-0.1l-1.7,10.6l-1.3,0.1l-3-7.6c-0.3-0.6-0.4-1-0.5-1.2
			c-0.1,0.5-0.1,0.9-0.2,1.2l-1.3,8.1L178,181.5z"/>
		<path class="st19" d="M188.8,175.2c-0.2-1.7,0.1-3.1,0.9-4.2c0.8-1.1,1.9-1.7,3.4-1.8c0.9-0.1,1.8,0,2.6,0.4
			c0.8,0.4,1.5,0.9,2,1.7c0.5,0.8,0.8,1.7,0.9,2.7c0.1,1,0,2-0.3,2.9c-0.3,0.9-0.9,1.6-1.6,2.1c-0.7,0.5-1.5,0.8-2.4,0.9
			c-1,0.1-1.9,0-2.7-0.4c-0.8-0.4-1.5-1-1.9-1.7C189.2,177,188.9,176.1,188.8,175.2z M190.2,175.1c0.1,1.2,0.6,2.2,1.3,2.8
			c0.7,0.6,1.6,0.9,2.6,0.8c1-0.1,1.8-0.6,2.4-1.4c0.6-0.8,0.8-1.9,0.7-3.2c-0.1-0.8-0.3-1.6-0.7-2.1c-0.4-0.6-0.8-1-1.4-1.3
			s-1.2-0.4-1.9-0.3c-1,0.1-1.8,0.5-2.4,1.3C190.2,172.4,190,173.6,190.2,175.1z"/>
		<path class="st19" d="M200.9,179l-1.1-10.3l1.4-0.1l1,9.1l5.1-0.6l0.1,1.2L200.9,179z"/>
		<path class="st19" d="M208.9,178.1l-1.1-10.3l1.4-0.2l6.3,7.5l-0.9-8.1l1.3-0.1l1.1,10.3l-1.4,0.2l-6.3-7.5l0.9,8.1L208.9,178.1z"
			/>
		<path class="st19" d="M219.3,177l-1.1-10.3l7.4-0.8l0.1,1.2l-6.1,0.7l0.3,3.2l5.7-0.6l0.1,1.2l-5.7,0.6l0.4,3.5l6.3-0.7l0.1,1.2
			L219.3,177z"/>
	</g>
	<g class="st1">
		<path class="st19" d="M382,288h-1.7v3h-3.2v-11.1h5.1c1,0,1.9,0.2,2.6,0.5s1.3,0.8,1.7,1.4c0.4,0.6,0.6,1.3,0.6,2.2
			c0,0.8-0.2,1.5-0.6,2.1c-0.4,0.6-0.9,1.1-1.6,1.4l2.4,3.5H384L382,288z M383.5,282.8c-0.3-0.3-0.8-0.4-1.5-0.4h-1.7v3.3h1.7
			c0.6,0,1.1-0.1,1.5-0.4c0.3-0.3,0.5-0.7,0.5-1.2S383.8,283.1,383.5,282.8z"/>
		<path class="st19" d="M397.8,288.6v2.4h-8.9v-11.1h8.7v2.4H392v1.9h4.9v2.4H392v2H397.8z"/>
		<path class="st19" d="M403.9,287l-1.2,1.3v2.8h-3.1v-11.1h3.1v4.6l4.3-4.6h3.5l-4.5,4.9l4.8,6.2h-3.7L403.9,287z"/>
		<path class="st19" d="M416.4,288h-1.7v3h-3.1v-11.1h5.1c1,0,1.9,0.2,2.6,0.5s1.3,0.8,1.7,1.4c0.4,0.6,0.6,1.3,0.6,2.2
			c0,0.8-0.2,1.5-0.6,2.1c-0.4,0.6-0.9,1.1-1.6,1.4l2.4,3.5h-3.4L416.4,288z M417.9,282.8c-0.3-0.3-0.8-0.4-1.5-0.4h-1.8v3.3h1.8
			c0.6,0,1.1-0.1,1.5-0.4c0.3-0.3,0.5-0.7,0.5-1.2S418.2,283.1,417.9,282.8z"/>
		<path class="st19" d="M424.6,289.9c-0.9-0.9-1.4-2.2-1.4-3.8v-6.2h3.1v6.1c0,1.8,0.7,2.7,2.1,2.7c1.4,0,2.1-0.9,2.1-2.7v-6.1h3.1
			v6.2c0,1.7-0.5,2.9-1.4,3.8c-0.9,0.9-2.2,1.4-3.9,1.4S425.5,290.8,424.6,289.9z"/>
		<path class="st19" d="M438,282.4h-3.4v-2.5h10v2.5h-3.4v8.6H438V282.4z"/>
		<path class="st19" d="M452.6,288.8h-4.7l-0.9,2.2h-3.2l4.9-11.1h3.1l4.9,11.1h-3.3L452.6,288.8z M451.7,286.5l-1.4-3.6l-1.4,3.6
			H451.7z"/>
		<path class="st19" d="M459.9,290.5c-0.9-0.5-1.7-1.2-2.2-2.1c-0.5-0.9-0.8-1.9-0.8-3s0.3-2.1,0.8-3s1.3-1.6,2.2-2.1s2-0.7,3.1-0.7
			c1,0,1.9,0.2,2.8,0.5s1.5,0.9,2,1.6l-2,1.8c-0.7-0.9-1.6-1.3-2.6-1.3c-0.6,0-1.1,0.1-1.6,0.4c-0.5,0.3-0.8,0.6-1.1,1.1
			s-0.4,1-0.4,1.7c0,0.6,0.1,1.2,0.4,1.7s0.6,0.9,1.1,1.1c0.5,0.3,1,0.4,1.6,0.4c1,0,1.9-0.4,2.6-1.3l2,1.8c-0.5,0.7-1.2,1.2-2,1.6
			s-1.7,0.5-2.8,0.5C461.9,291.2,460.9,291,459.9,290.5z"/>
		<path class="st19" d="M469.5,290.8c-0.7-0.3-1.2-0.7-1.6-1.2l1.7-2c0.6,0.8,1.2,1.2,1.9,1.2c0.5,0,0.8-0.1,1-0.4s0.4-0.7,0.4-1.2
			v-4.8H469v-2.4h7v7c0,1.4-0.4,2.5-1.1,3.2c-0.7,0.7-1.8,1.1-3.2,1.1C470.9,291.2,470.1,291.1,469.5,290.8z"/>
		<path class="st19" d="M485.3,288.8h-4.7l-0.9,2.2h-3.2l4.9-11.1h3.1l4.9,11.1h-3.3L485.3,288.8z M484.4,286.5L483,283l-1.4,3.6
			H484.4z"/>
		<path class="st19" d="M501.4,280.6c1.2,0.6,2,1.4,2.7,2.5s1,2.2,1,3.5c0,1-0.2,1.8-0.5,2.5c-0.3,0.7-0.7,1.2-1.2,1.6
			c-0.5,0.4-1.1,0.5-1.8,0.5c-0.6,0-1-0.1-1.4-0.3c-0.4-0.2-0.7-0.6-0.9-1c-0.5,0.9-1.4,1.4-2.6,1.4c-0.6,0-1.2-0.2-1.8-0.5
			c-0.5-0.3-1-0.8-1.3-1.4c-0.3-0.6-0.5-1.3-0.5-2.1s0.2-1.5,0.5-2.1s0.7-1.1,1.3-1.4s1.1-0.5,1.8-0.5c0.9,0,1.7,0.3,2.2,0.9v-0.8
			h2.6v4.9c0,0.3,0.1,0.6,0.2,0.7c0.1,0.1,0.3,0.2,0.5,0.2c0.7,0,1-0.8,1-2.5c0-1-0.2-1.9-0.7-2.7c-0.5-0.8-1.1-1.4-2-1.8
			c-0.9-0.4-1.9-0.7-3-0.7c-1.1,0-2.1,0.2-3,0.7c-0.9,0.5-1.5,1.1-2,2c-0.5,0.8-0.7,1.8-0.7,2.8c0,1.1,0.2,2,0.7,2.9
			c0.5,0.8,1.1,1.5,2,2s1.8,0.7,3,0.7c1.1,0,2.2-0.2,3.2-0.7l0.6,1.7c-0.5,0.2-1.1,0.4-1.7,0.6c-0.7,0.1-1.3,0.2-2,0.2
			c-1.5,0-2.9-0.3-4.1-1c-1.2-0.6-2.1-1.5-2.7-2.6s-1-2.4-1-3.8c0-1.4,0.3-2.6,1-3.7c0.6-1.1,1.6-2,2.7-2.6c1.2-0.6,2.5-1,4.1-1
			C498.9,279.7,500.3,280,501.4,280.6z M498.5,288.5c0.3-0.3,0.4-0.8,0.4-1.4c0-0.6-0.1-1-0.4-1.3s-0.7-0.5-1.1-0.5
			c-0.5,0-0.8,0.2-1.1,0.5s-0.4,0.8-0.4,1.3s0.1,1,0.4,1.3c0.3,0.3,0.7,0.5,1.1,0.5C497.8,289,498.2,288.8,498.5,288.5z"/>
		<path class="st19" d="M514,288.8h-4.7l-0.9,2.2h-3.2l4.9-11.1h3.1l4.9,11.1h-3.3L514,288.8z M513.1,286.5l-1.4-3.6l-1.4,3.6H513.1
			z"/>
		<path class="st19" d="M523.9,288h-1.7v3h-3.1v-11.1h5.1c1,0,1.9,0.2,2.6,0.5s1.3,0.8,1.7,1.4c0.4,0.6,0.6,1.3,0.6,2.2
			c0,0.8-0.2,1.5-0.6,2.1c-0.4,0.6-0.9,1.1-1.6,1.4l2.4,3.5h-3.4L523.9,288z M525.4,282.8c-0.3-0.3-0.8-0.4-1.5-0.4h-1.8v3.3h1.8
			c0.6,0,1.1-0.1,1.5-0.4c0.3-0.3,0.5-0.7,0.5-1.2S525.7,283.1,525.4,282.8z"/>
		<path class="st19" d="M533,282.4h-3.4v-2.5h10v2.5h-3.4v8.6H533V282.4z"/>
		<path class="st19" d="M543,290.5c-0.9-0.5-1.7-1.2-2.2-2.1c-0.5-0.9-0.8-1.9-0.8-3c0-1.1,0.3-2.1,0.8-3c0.5-0.9,1.3-1.6,2.2-2.1
			c0.9-0.5,2-0.7,3.2-0.7c1.2,0,2.2,0.2,3.2,0.7c0.9,0.5,1.7,1.2,2.2,2.1c0.5,0.9,0.8,1.9,0.8,3c0,1.1-0.3,2.1-0.8,3
			c-0.5,0.9-1.3,1.6-2.2,2.1c-0.9,0.5-2,0.7-3.2,0.7C545,291.2,544,291,543,290.5z M547.7,288.2c0.5-0.3,0.8-0.6,1.1-1.1
			c0.3-0.5,0.4-1,0.4-1.7c0-0.6-0.1-1.2-0.4-1.7c-0.3-0.5-0.6-0.9-1.1-1.1c-0.5-0.3-1-0.4-1.5-0.4s-1.1,0.1-1.5,0.4
			c-0.5,0.3-0.8,0.6-1.1,1.1c-0.3,0.5-0.4,1-0.4,1.7c0,0.6,0.1,1.2,0.4,1.7c0.3,0.5,0.6,0.9,1.1,1.1c0.5,0.3,1,0.4,1.5,0.4
			S547.3,288.5,547.7,288.2z"/>
		<path class="st19" d="M561.8,280.4c0.7,0.3,1.3,0.8,1.7,1.4c0.4,0.6,0.6,1.3,0.6,2.2s-0.2,1.6-0.6,2.2c-0.4,0.6-1,1.1-1.7,1.4
			s-1.6,0.5-2.6,0.5h-1.9v2.9h-3.2v-11.1h5.1C560.2,279.9,561,280,561.8,280.4z M560.4,285.2c0.3-0.3,0.5-0.7,0.5-1.2
			s-0.2-0.9-0.5-1.2c-0.3-0.3-0.8-0.4-1.5-0.4h-1.7v3.3h1.7C559.6,285.6,560.1,285.5,560.4,285.2z"/>
		<path class="st19" d="M574.6,288.6v2.4h-8.9v-11.1h8.7v2.4h-5.6v1.9h4.9v2.4h-4.9v2H574.6z"/>
		<path class="st19" d="M586.9,279.9V291h-2.6l-4.9-5.9v5.9h-3.1v-11.1h2.6l4.9,5.9v-5.9H586.9z"/>
		<path class="st19" d="M589,290.6c-0.3-0.3-0.5-0.8-0.5-1.3c0-0.5,0.2-1,0.5-1.3c0.3-0.3,0.8-0.5,1.3-0.5c0.5,0,1,0.2,1.3,0.5
			c0.3,0.3,0.5,0.8,0.5,1.3c0,0.5-0.2,0.9-0.5,1.3c-0.3,0.3-0.8,0.5-1.3,0.5C589.8,291.1,589.3,291,589,290.6z"/>
		<path class="st19" d="M601.4,280.4c0.7,0.3,1.3,0.8,1.7,1.4c0.4,0.6,0.6,1.3,0.6,2.2s-0.2,1.6-0.6,2.2c-0.4,0.6-1,1.1-1.7,1.4
			s-1.6,0.5-2.6,0.5h-1.9v2.9h-3.2v-11.1h5.1C599.7,279.9,600.6,280,601.4,280.4z M600,285.2c0.3-0.3,0.5-0.7,0.5-1.2
			s-0.2-0.9-0.5-1.2c-0.3-0.3-0.8-0.4-1.5-0.4h-1.7v3.3h1.7C599.2,285.6,599.7,285.5,600,285.2z"/>
		<path class="st19" d="M605.2,279.9h3.1v8.6h5.3v2.5h-8.5V279.9z"/>
	</g>
	<g class="st1">
		<path class="st2" d="M666.8,267.2l-4.3,13.2h-4l-2.5-8l-2.6,8h-4l-4.3-13.2h3.8l2.7,8.4l2.8-8.4h3.4l2.7,8.5l2.8-8.5H666.8z"/>
		<path class="st2" d="M675,275.6v4.7h-3.7v-4.8l-5-8.4h3.9l3.1,5.2l3.1-5.2h3.6L675,275.6z"/>
		<path class="st2" d="M682.2,280.2c-1-0.3-1.8-0.6-2.4-1.1l1.2-2.7c0.6,0.4,1.3,0.7,2.1,0.9s1.5,0.4,2.3,0.4c1.4,0,2.1-0.4,2.1-1.1
			c0-0.4-0.2-0.7-0.6-0.8c-0.4-0.2-1.1-0.4-2-0.6c-1-0.2-1.8-0.4-2.5-0.7c-0.7-0.2-1.2-0.6-1.7-1.2c-0.5-0.5-0.7-1.3-0.7-2.2
			c0-0.8,0.2-1.5,0.7-2.2s1.1-1.2,2-1.5c0.9-0.4,1.9-0.6,3.2-0.6c0.9,0,1.7,0.1,2.6,0.3c0.8,0.2,1.6,0.5,2.2,0.9l-1.1,2.8
			c-1.3-0.7-2.5-1-3.7-1c-0.7,0-1.3,0.1-1.6,0.3s-0.5,0.5-0.5,0.9c0,0.4,0.2,0.6,0.6,0.8s1,0.4,1.9,0.5c1,0.2,1.8,0.4,2.5,0.7
			c0.7,0.2,1.2,0.6,1.7,1.2s0.7,1.3,0.7,2.2c0,0.8-0.2,1.5-0.7,2.1c-0.4,0.6-1.1,1.2-2,1.5c-0.9,0.4-1.9,0.6-3.2,0.6
			C684.2,280.6,683.2,280.5,682.2,280.2z M686.2,263.2h3.6l-3.5,2.9h-2.6L686.2,263.2z"/>
		<path class="st2" d="M692.8,267.2h3.7v10.2h6.3v3h-10V267.2z"/>
		<path class="st2" d="M704.3,267.2h3.7v13.2h-3.7V267.2z"/>
		<path class="st2" d="M711,280.1c-0.8-0.3-1.4-0.8-1.9-1.4l2-2.4c0.7,0.9,1.5,1.4,2.3,1.4c0.5,0,1-0.2,1.2-0.5s0.4-0.8,0.4-1.4
			v-5.7h-4.6v-2.9h8.2v8.3c0,1.7-0.4,3-1.3,3.8c-0.9,0.9-2.1,1.3-3.8,1.3C712.6,280.6,711.8,280.5,711,280.1z"/>
	</g>
	<g class="st1">
		<path class="st2" d="M658.7,292.3v13.2h-3.1l-5.8-7v7h-3.7v-13.2h3.1l5.8,7v-7H658.7z"/>
		<path class="st2" d="M670.1,302.9h-5.6l-1,2.6h-3.8l5.8-13.2h3.7l5.8,13.2h-3.9L670.1,302.9z M669,300.2l-1.7-4.2l-1.7,4.2H669z"
			/>
		<path class="st2" d="M688,305.5l0-7l-3.4,5.7h-1.7l-3.4-5.5v6.8h-3.4v-13.2h3.1l4.6,7.6l4.5-7.6h3.1l0,13.2H688z"/>
		<path class="st2" d="M702.4,304.9c-1.1-0.6-2-1.4-2.6-2.4c-0.6-1-0.9-2.2-0.9-3.5s0.3-2.5,0.9-3.5c0.6-1,1.5-1.9,2.6-2.4
			c1.1-0.6,2.3-0.9,3.7-0.9c1.2,0,2.3,0.2,3.3,0.6s1.8,1,2.4,1.8l-2.4,2.1c-0.9-1-1.9-1.5-3.1-1.5c-0.7,0-1.4,0.2-1.9,0.5
			c-0.6,0.3-1,0.8-1.3,1.3s-0.5,1.2-0.5,2c0,0.7,0.2,1.4,0.5,2s0.7,1,1.3,1.3c0.6,0.3,1.2,0.5,1.9,0.5c1.2,0,2.3-0.5,3.1-1.5
			l2.4,2.1c-0.6,0.8-1.4,1.4-2.4,1.8s-2.1,0.6-3.3,0.6C704.7,305.7,703.5,305.4,702.4,304.9z"/>
		<path class="st2" d="M726.8,292.3l-5.6,13.2h-3.7l-5.6-13.2h4l3.6,8.6l3.7-8.6H726.8z"/>
	</g>
</g>
<g>
	<path class="st2" d="M448.7,419.4c-0.5,0-0.8,0.5-0.8,1.4v34.3c0,0.8,0.3,1.4,0.8,1.4s0.8-0.5,0.8-1.4v-34.3
		C449.5,419.9,449.2,419.4,448.7,419.4"/>
	<path class="st2" d="M288.2,459.2c5.9-0.1,11.5-2.4,15.7-6.6s6.7-9.7,6.8-15.6c0.1-4.5-1.1-8.8-3.4-12.6c-0.3-0.5-0.9-0.8-1.4-0.8
		c-0.6,0-1.2,0.3-1.5,0.9c-0.3,0.5-0.3,1.2,0,1.7c2,3.3,3,7.1,2.9,11c-0.4,9.6-8.9,18.1-18.4,18.5c-5.4,0.3-10.8-1.8-14.6-5.7
		c-3.9-3.9-5.9-9.2-5.7-14.6c0.5-9.6,8.9-18,18.5-18.4c3.9-0.2,7.7,0.8,11,2.9c0.5,0.3,1.2,0.3,1.7,0s0.9-0.9,0.9-1.5
		s-0.3-1.1-0.8-1.4c-3.8-2.3-8.1-3.5-12.6-3.4c-5.9,0.2-11.4,2.6-15.6,6.8c-4.2,4.2-6.5,9.8-6.6,15.7c-0.1,6.2,2.3,12,6.7,16.3
		c4.3,4.3,10,6.7,16.1,6.7C288.1,459.2,288.2,459.2,288.2,459.2"/>
	<path class="st2" d="M288,422.6c-0.8,0-1.4,0.4-1.7,1.2l-8.6,20.6c-0.3,0.6-0.2,1.2,0.1,1.8c0.3,0.6,0.8,0.8,1.5,0.8
		c0.3,0,0.6-0.1,0.9-0.3c0.3-0.2,0.6-0.5,0.7-0.8l2.6-6.3h9l2.5,6.3c0.1,0.3,0.4,0.6,0.7,0.8c0.3,0.2,0.6,0.3,1,0.3
		c0.7,0,1.2-0.3,1.5-0.8s0.4-1.1,0.1-1.7l-8.6-20.6C289.4,423,288.8,422.6,288,422.6 M284.7,436.7l3.3-8.2l3.3,8.2H284.7z"/>
	<path class="st2" d="M328,427.2c-0.3-0.7-0.8-1.1-1.5-1.1s-1.2,0.4-1.5,1.1l-7.3,17.3c-0.2,0.6-0.2,1.1,0.1,1.6
		c0.3,0.5,0.8,0.8,1.4,0.8c0.3,0,0.6-0.1,0.9-0.2c0.3-0.2,0.5-0.4,0.7-0.8l2.1-5.2h7.4l2.1,5.2c0.1,0.3,0.3,0.6,0.6,0.7
		c0.3,0.2,0.6,0.3,0.9,0.3c0.6,0,1.1-0.2,1.4-0.7s0.3-1,0.1-1.6L328,427.2z M323.9,438l2.6-6.4l2.6,6.4H323.9z"/>
	<path class="st2" d="M344.2,432.4L344.2,432.4c-0.6-0.3-1.3-0.3-2.3-0.1c-0.8,0.2-1.5,0.5-2.1,0.9c-0.1-0.3-0.2-0.6-0.4-0.8
		c-0.3-0.3-0.7-0.4-1.2-0.4s-0.9,0.1-1.2,0.4c-0.3,0.3-0.4,0.7-0.4,1.2v11.8c0,0.5,0.1,0.9,0.4,1.2c0.3,0.3,0.7,0.4,1.2,0.4
		s0.9-0.1,1.2-0.4c0.3-0.3,0.4-0.7,0.4-1.2v-8.7c0.3-0.5,0.8-0.9,1.4-1.2c0.7-0.3,1.5-0.5,2.5-0.4c0.3,0,0.5,0,0.7-0.1
		s0.4-0.2,0.5-0.4c0.1-0.2,0.2-0.5,0.2-0.8C345.1,433.3,345,432.7,344.2,432.4"/>
	<path class="st2" d="M354.3,443.7h-0.9c-0.5,0-0.8-0.2-1.2-0.6c-0.3-0.4-0.5-0.9-0.5-1.5v-6.5h2c0.4,0,0.8-0.1,1.1-0.4
		c0.3-0.3,0.4-0.6,0.4-1s-0.1-0.8-0.4-1c-0.3-0.3-0.6-0.4-1.1-0.4h-2v-3c0-0.5-0.2-0.8-0.4-1.1c-0.3-0.3-0.7-0.4-1.1-0.4
		c-0.5,0-0.8,0.2-1.1,0.4c-0.3,0.3-0.5,0.7-0.5,1.1v3h-0.8c-0.4,0-0.8,0.1-1.1,0.4c-0.3,0.3-0.4,0.6-0.4,1s0.1,0.7,0.4,1
		s0.6,0.4,1.1,0.4h0.8v6.5c0,1,0.2,1.9,0.6,2.7c0.4,0.8,1,1.4,1.7,1.9s1.6,0.7,2.5,0.7h0.5c0.5,0,1-0.1,1.3-0.4
		c0.4-0.3,0.5-0.7,0.5-1.2s-0.1-0.8-0.4-1.1C355,443.9,354.7,443.7,354.3,443.7"/>
	<path class="st2" d="M395.4,432.9c-1.1-0.7-2.4-1-3.8-1c-1.4,0-2.7,0.3-3.8,1s-2,1.6-2.6,2.7s-1,2.4-1,3.8v11.8
		c0,0.5,0.2,0.8,0.5,1.2c0.3,0.3,0.7,0.5,1.2,0.5s0.9-0.2,1.2-0.5s0.4-0.7,0.4-1.2V445c0.5,0.5,1.1,0.9,1.8,1.2
		c0.9,0.4,1.9,0.7,2.9,0.7c1.3,0,2.5-0.3,3.5-1s1.9-1.6,2.5-2.7s0.9-2.4,0.9-3.8s-0.3-2.7-1-3.8
		C397.4,434.5,396.5,433.6,395.4,432.9 M395.4,441.8c-0.4,0.7-0.9,1.2-1.5,1.6s-1.4,0.6-2.2,0.6s-1.5-0.2-2.2-0.6
		c-0.6-0.4-1.2-0.9-1.5-1.6c-0.4-0.7-0.6-1.5-0.6-2.3c0-0.9,0.2-1.7,0.6-2.4c0.4-0.7,0.9-1.2,1.5-1.6s1.4-0.6,2.2-0.6
		s1.6,0.2,2.2,0.6c0.6,0.4,1.2,0.9,1.5,1.6c0.4,0.7,0.6,1.5,0.6,2.4C395.9,440.3,395.7,441.1,395.4,441.8"/>
	<path class="st2" d="M410.9,432.9c-1-0.6-2.2-0.9-3.6-0.9c-1.4,0-2.7,0.3-3.8,1c-1.1,0.6-2,1.5-2.6,2.6s-0.9,2.4-0.9,3.9
		c0,1.4,0.3,2.7,1,3.9s1.6,2,2.7,2.6c1.2,0.6,2.5,1,4,1c0.8,0,1.7-0.2,2.6-0.5c0.9-0.3,1.7-0.7,2.3-1.2c0.5-0.4,0.5-0.8,0.5-1.1
		c0-0.4-0.2-0.7-0.6-1.1c-0.3-0.2-0.6-0.4-1-0.3c-0.4,0-0.7,0.1-1,0.4c-0.3,0.2-0.7,0.5-1.3,0.6c-0.5,0.2-1,0.3-1.5,0.3
		c-0.9,0-1.8-0.2-2.5-0.6s-1.3-1-1.7-1.6c-0.2-0.4-0.4-0.8-0.5-1.2h9.5c0.4,0,0.8-0.1,1.1-0.4s0.4-0.6,0.4-1c0-1.4-0.3-2.7-0.8-3.7
		C412.7,434.4,411.9,433.5,410.9,432.9 M403.1,438c0.1-0.3,0.2-0.7,0.3-1c0.3-0.7,0.8-1.2,1.5-1.6c0.6-0.4,1.4-0.6,2.4-0.6
		c0.8,0,1.5,0.2,2,0.5c0.6,0.4,1,0.9,1.3,1.5c0.2,0.4,0.3,0.7,0.4,1.2H403.1z"/>
	<path class="st2" d="M427.2,435.1c-0.6-1-1.4-1.8-2.3-2.4c-1-0.5-2.1-0.8-3.3-0.8s-2.3,0.3-3.2,0.8c-0.1,0.1-0.2,0.1-0.3,0.2
		c-0.1-0.1-0.2-0.3-0.3-0.4c-0.3-0.3-0.7-0.5-1.2-0.5s-0.8,0.2-1.2,0.4c-0.3,0.3-0.5,0.7-0.5,1.2v11.6c0,0.5,0.2,0.9,0.5,1.2
		c0.3,0.3,0.7,0.5,1.2,0.5s0.9-0.2,1.2-0.5s0.4-0.7,0.4-1.2V436c0.3-0.3,0.6-0.6,1-0.8c0.5-0.3,1.2-0.4,1.8-0.4c0.7,0,1.4,0.1,2,0.4
		s1,0.7,1.3,1.3c0.3,0.6,0.5,1.3,0.5,2.3v6.4c0,0.5,0.2,0.9,0.5,1.2c0.3,0.3,0.7,0.5,1.2,0.5s0.8-0.2,1.2-0.5
		c0.3-0.3,0.5-0.7,0.5-1.2v-6.4C428,437.4,427.7,436.2,427.2,435.1"/>
	<path class="st2" d="M380.5,428.8L380.5,428.8c-1-1-2.1-1.7-3.4-2.2s-2.8-0.8-4.3-0.8c-1.6,0-3,0.3-4.3,0.8s-2.5,1.3-3.4,2.2
		c-0.9,1-1.7,2.1-2.2,3.4s-0.8,2.8-0.8,4.3c0,1.6,0.3,3,0.8,4.3s1.3,2.5,2.2,3.4c0.9,1,2.1,1.7,3.4,2.2s2.8,0.8,4.3,0.8
		c1.6,0,3-0.3,4.3-0.8s2.4-1.3,3.4-2.2c1-1,1.7-2.1,2.2-3.4s0.8-2.8,0.8-4.3s-0.3-3-0.8-4.3S381.4,429.7,380.5,428.8 M372.8,444
		c-1.1,0-2-0.2-2.9-0.6s-1.6-0.9-2.3-1.6c-0.6-0.7-1.1-1.5-1.5-2.4s-0.5-1.9-0.5-3s0.2-2.1,0.5-3c0.4-0.9,0.9-1.7,1.5-2.4
		c0.6-0.7,1.4-1.2,2.3-1.6s1.9-0.6,2.9-0.6c1.1,0,2,0.2,2.9,0.6s1.7,0.9,2.3,1.6c0.6,0.7,1.1,1.5,1.5,2.4c0.3,0.9,0.5,1.9,0.5,3
		s-0.2,2.1-0.5,3s-0.9,1.7-1.5,2.4c-0.6,0.7-1.4,1.2-2.3,1.6S373.8,444,372.8,444"/>
	<path class="st2" d="M476.8,440.3c-0.6-0.6-1.6-0.9-2.8-1.1c-0.6-0.1-1.1-0.2-1.5-0.4c-0.3-0.2-0.6-0.3-0.7-0.5
		c-0.1-0.2-0.2-0.4-0.2-0.6c0-0.5,0.2-0.8,0.5-1c0.4-0.3,1-0.4,1.6-0.4c0.4,0,0.7,0.1,1,0.2s0.5,0.2,0.7,0.4
		c0.2,0.2,0.4,0.3,0.5,0.5s0.3,0.3,0.5,0.4s0.4,0.1,0.7-0.1c0.2-0.1,0.4-0.3,0.4-0.5s0-0.4-0.1-0.7c-0.2-0.3-0.5-0.6-0.9-0.9
		c-0.3-0.3-0.8-0.5-1.2-0.7c-0.5-0.2-1-0.3-1.5-0.3c-0.7,0-1.4,0.1-2,0.3c-0.6,0.2-1.1,0.6-1.4,1c-0.4,0.5-0.5,1-0.5,1.6
		c0,0.8,0.4,1.6,1.1,2.1c0.7,0.6,1.6,0.9,2.8,1c0.8,0.1,1.5,0.3,1.8,0.7c0.4,0.3,0.5,0.7,0.5,1.1c0,0.3-0.1,0.6-0.3,0.9
		c-0.2,0.2-0.4,0.4-0.8,0.6c-0.4,0.1-0.8,0.2-1.2,0.2s-0.8-0.1-1.2-0.2c-0.3-0.1-0.6-0.2-0.9-0.4c-0.2-0.2-0.4-0.4-0.5-0.6
		s-0.3-0.3-0.4-0.4c-0.2-0.1-0.4-0.1-0.6-0.1c-0.3,0.1-0.5,0.2-0.6,0.4c-0.1,0.2-0.1,0.5,0,0.7c0.2,0.4,0.5,0.8,1,1.2
		c0.4,0.3,0.9,0.6,1.5,0.7c0.6,0.2,1.2,0.3,1.8,0.3c0.5,0,1.1-0.1,1.5-0.2c0.5-0.1,0.9-0.4,1.3-0.6c0.4-0.3,0.7-0.6,0.9-1
		s0.3-0.9,0.3-1.4C477.7,441.6,477.4,440.9,476.8,440.3"/>
	<path class="st2" d="M488.7,434.8h-7.9c-0.2,0-0.4,0.1-0.6,0.2c-0.2,0.2-0.3,0.4-0.3,0.6s0.1,0.4,0.3,0.6c0.2,0.1,0.4,0.2,0.6,0.2
		h3.1v8.5c0,0.2,0.1,0.4,0.3,0.6s0.4,0.2,0.6,0.2s0.5-0.1,0.6-0.2c0.2-0.2,0.3-0.4,0.3-0.6v-8.5h3.1c0.2,0,0.4-0.1,0.6-0.2
		c0.2-0.2,0.3-0.3,0.3-0.6c0-0.2-0.1-0.4-0.3-0.6C489.1,434.8,488.9,434.8,488.7,434.8"/>
	<path class="st2" d="M501.5,434.8c-0.2,0-0.5,0.1-0.6,0.2c-0.2,0.2-0.3,0.4-0.3,0.6v6.4c0,0.5-0.1,0.8-0.4,1.2
		c-0.2,0.3-0.6,0.6-1,0.8c-0.5,0.2-1,0.3-1.6,0.3s-1.1-0.1-1.6-0.3c-0.4-0.2-0.8-0.5-1-0.8s-0.4-0.7-0.4-1.2v-6.4
		c0-0.2-0.1-0.5-0.3-0.6c-0.3-0.3-0.9-0.3-1.2,0c-0.2,0.2-0.3,0.4-0.3,0.6v6.4c0,0.8,0.2,1.5,0.6,2.1c0.4,0.6,1,1.1,1.7,1.4
		s1.5,0.5,2.5,0.5c0.9,0,1.7-0.2,2.4-0.5s1.3-0.8,1.7-1.4s0.6-1.3,0.6-2.1v-6.4c0-0.2-0.1-0.4-0.3-0.6
		C502,434.8,501.8,434.8,501.5,434.8"/>
	<path class="st2" d="M514.6,436.3c-0.5-0.5-1.2-0.9-1.9-1.1c-0.7-0.3-1.5-0.4-2.4-0.4h-2.6c-0.2,0-0.5,0.1-0.6,0.2
		c-0.2,0.2-0.3,0.4-0.3,0.6v9.3c0,0.2,0.1,0.5,0.3,0.6c0.2,0.2,0.4,0.2,0.6,0.2h2.6c0.9,0,1.7-0.1,2.4-0.4s1.4-0.6,1.9-1.1
		s0.9-1.1,1.2-1.7c0.3-0.7,0.4-1.4,0.4-2.2c0-0.8-0.1-1.5-0.4-2.2C515.6,437.4,515.1,436.8,514.6,436.3 M514.5,440.2
		c0,0.8-0.2,1.4-0.5,2s-0.8,1-1.5,1.4c-0.6,0.3-1.4,0.5-2.2,0.5h-1.7v-7.8h1.7c0.8,0,1.6,0.2,2.2,0.5c0.6,0.3,1.1,0.8,1.5,1.4
		C514.3,438.8,514.5,439.5,514.5,440.2"/>
	<path class="st2" d="M520.5,435c-0.2,0.2-0.3,0.4-0.3,0.6v9.3c0,0.2,0.1,0.5,0.3,0.6c0.2,0.2,0.4,0.2,0.6,0.2s0.5-0.1,0.6-0.2
		c0.2-0.2,0.3-0.4,0.3-0.6v-9.3c0-0.2-0.1-0.5-0.3-0.6C521.4,434.7,520.8,434.7,520.5,435"/>
	<path class="st2" d="M536.3,436.2c-0.5-0.5-1.2-0.9-1.9-1.2c-0.7-0.3-1.5-0.4-2.4-0.4s-1.7,0.1-2.4,0.4s-1.4,0.7-1.9,1.2
		s-1,1.1-1.3,1.8c-0.3,0.7-0.5,1.4-0.5,2.2c0,0.8,0.2,1.6,0.5,2.2c0.3,0.7,0.7,1.3,1.3,1.8c0.5,0.5,1.2,0.9,1.9,1.2
		c0.7,0.3,1.5,0.4,2.4,0.4s1.7-0.1,2.4-0.4s1.4-0.7,1.9-1.2s1-1.1,1.3-1.8c0.3-0.7,0.5-1.4,0.5-2.2c0-0.8-0.2-1.5-0.5-2.2
		S536.9,436.7,536.3,436.2 M536.3,440.2c0,0.6-0.1,1.1-0.3,1.6s-0.5,0.9-0.9,1.3s-0.8,0.6-1.4,0.8c-1.1,0.4-2.4,0.4-3.5,0
		c-0.5-0.2-1-0.5-1.4-0.8c-0.4-0.4-0.7-0.8-0.9-1.3s-0.3-1-0.3-1.6s0.1-1.1,0.3-1.6s0.5-0.9,0.9-1.3s0.8-0.6,1.4-0.8
		c0.5-0.2,1.1-0.3,1.7-0.3c0.6,0,1.2,0.1,1.7,0.3c0.5,0.2,1,0.5,1.4,0.8c0.4,0.4,0.7,0.8,0.9,1.3
		C536.2,439.1,536.3,439.7,536.3,440.2"/>
	<path class="st2" d="M554,441.3C554,441.3,554.1,441.3,554,441.3c0.7-0.3,1.2-0.7,1.5-1.3c0.3-0.5,0.5-1.1,0.5-1.8
		c0-0.7-0.2-1.3-0.5-1.8s-0.8-0.9-1.4-1.2c-0.6-0.3-1.3-0.4-2-0.4h-2.7c-0.2,0-0.5,0.1-0.6,0.2c-0.2,0.2-0.3,0.4-0.3,0.6v9.3
		c0,0.2,0.1,0.5,0.3,0.6c0.3,0.3,0.9,0.3,1.2,0c0.2-0.2,0.3-0.4,0.3-0.6v-3.2h1.8h0.1l2.5,3.6c0.1,0.1,0.2,0.2,0.3,0.3
		c0.1,0.1,0.3,0.1,0.5,0.1c0.5,0,0.7-0.2,0.8-0.4c0.1-0.2,0.2-0.5-0.1-0.9L554,441.3z M550.3,440v-3.6h1.8c0.4,0,0.8,0.1,1.2,0.2
		c0.3,0.2,0.6,0.4,0.8,0.7c0.2,0.3,0.3,0.6,0.3,1c0,0.3-0.1,0.6-0.3,0.9s-0.4,0.5-0.8,0.6c-0.3,0.2-0.7,0.2-1.2,0.2L550.3,440
		L550.3,440z"/>
	<path class="st2" d="M567.3,436.4c0.2,0,0.4-0.1,0.6-0.2c0.2-0.2,0.3-0.4,0.3-0.6s-0.1-0.5-0.3-0.6s-0.4-0.2-0.6-0.2h-6.7
		c-0.2,0-0.5,0.1-0.6,0.2c-0.2,0.2-0.3,0.4-0.3,0.6v9.3c0,0.2,0.1,0.5,0.3,0.6c0.2,0.2,0.4,0.2,0.6,0.2h6.7c0.2,0,0.4-0.1,0.6-0.2
		c0.2-0.2,0.3-0.4,0.3-0.6s-0.1-0.4-0.3-0.6c-0.2-0.1-0.4-0.2-0.6-0.2h-5.8v-3h4.2c0.2,0,0.5-0.1,0.6-0.2c0.2-0.2,0.3-0.4,0.3-0.6
		s-0.1-0.4-0.3-0.6s-0.4-0.2-0.6-0.2h-4.2v-3L567.3,436.4L567.3,436.4z"/>
	<path class="st2" d="M579.9,435.6c0-0.2-0.1-0.4-0.2-0.6c-0.1-0.1-0.3-0.3-0.6-0.3c-0.1,0-0.2,0-0.3,0.1c-0.1,0-0.2,0.1-0.3,0.2
		l-4.7,4.3v-3.7c0-0.2-0.1-0.4-0.3-0.6c-0.3-0.3-0.9-0.3-1.2,0c-0.2,0.2-0.3,0.4-0.3,0.6v9.3c0,0.2,0.1,0.4,0.3,0.6
		c0.3,0.3,0.9,0.3,1.2,0c0.2-0.2,0.3-0.4,0.3-0.6v-3.2l0.9-0.8l3.7,4.6c0.1,0.2,0.3,0.4,0.7,0.4c0.2,0,0.4-0.1,0.6-0.2
		c0.2-0.1,0.2-0.3,0.3-0.5c0-0.2,0-0.4-0.2-0.6l-3.8-4.7l3.7-3.4C579.8,436,579.9,435.8,579.9,435.6"/>
	<path class="st2" d="M590.7,444.1h-5.3v-8.5c0-0.2-0.1-0.4-0.3-0.6c-0.3-0.3-0.9-0.3-1.2,0c-0.2,0.2-0.3,0.4-0.3,0.6v9.3
		c0,0.2,0.1,0.5,0.3,0.6c0.2,0.2,0.4,0.2,0.6,0.2h6.2c0.2,0,0.4-0.1,0.6-0.2c0.2-0.2,0.3-0.4,0.3-0.6s-0.1-0.4-0.3-0.6
		C591.1,444.1,590.9,444.1,590.7,444.1"/>
	<path class="st2" d="M599.8,435.3c-0.2-0.4-0.5-0.6-0.8-0.6c-0.4,0-0.7,0.2-0.8,0.5l-4.2,9.2c-0.1,0.3-0.1,0.5,0,0.8
		c0.2,0.3,0.4,0.4,0.8,0.4c0.2,0,0.3,0,0.5-0.1s0.3-0.2,0.3-0.4l0.9-1.9h5.1l0.9,2c0.1,0.2,0.2,0.3,0.3,0.4s0.3,0.1,0.5,0.1
		c0.3,0,0.6-0.1,0.7-0.4c0.2-0.3,0.2-0.6,0.1-0.8L599.8,435.3z M600.8,441.7h-3.7l1.9-4.1L600.8,441.7z"/>
	<path class="st2" d="M618.3,434.8c-0.3,0-0.6,0.1-0.8,0.4l-4.2,7.8l-4.3-7.8c-0.1-0.2-0.3-0.4-0.8-0.4c-0.2,0-0.4,0.1-0.6,0.2
		c-0.2,0.2-0.3,0.4-0.3,0.6v9.3c0,0.2,0.1,0.4,0.3,0.6c0.3,0.3,0.9,0.3,1.2,0c0.2-0.2,0.3-0.4,0.3-0.6v-6l3.3,6.1
		c0.2,0.3,0.4,0.5,0.8,0.5c0.4,0,0.7-0.2,0.8-0.4l3.4-6.3v6.1c0,0.2,0.1,0.4,0.3,0.6s0.4,0.2,0.6,0.2c0.2,0,0.5-0.1,0.6-0.2
		c0.2-0.2,0.3-0.4,0.3-0.6v-9.3c0-0.2-0.1-0.5-0.3-0.6C618.8,434.8,618.6,434.8,618.3,434.8"/>
	<path class="st2" d="M632.2,435.5c0-0.2-0.1-0.4-0.3-0.5c-0.3-0.2-0.7-0.3-1-0.1c-0.1,0.1-0.2,0.2-0.3,0.3l-3.3,4.9l-3.3-4.9
		c-0.1-0.1-0.2-0.2-0.3-0.3c-0.3-0.2-0.7-0.2-1,0.1c-0.2,0.1-0.3,0.3-0.3,0.5c0,0.1,0,0.4,0.2,0.6l3.8,5.6v3.2
		c0,0.2,0.1,0.4,0.3,0.6s0.4,0.2,0.6,0.2s0.4-0.1,0.6-0.2c0.2-0.2,0.3-0.4,0.3-0.6v-3.2l3.9-5.6
		C632.1,435.9,632.2,435.7,632.2,435.5"/>
</g>
</svg>
