<?xml version="1.0" encoding="utf-8"?>
<!-- Generator: Adobe Illustrator 25.2.0, SVG Export Plug-In . SVG Version: 6.00 Build 0)  -->
<svg version="1.1" id="Warstwa_1" xmlns="http://www.w3.org/2000/svg" xmlns:xlink="http://www.w3.org/1999/xlink" x="0px" y="0px"
	 viewBox="0 0 825 472" style="enable-background:new 0 0 825 472;" xml:space="preserve">
<style type="text/css">
	.st0{clip-path:url(#SVGID_2_);fill:url(#SVGID_3_);}
	.st1{fill:#FFFFFF;}
	.st2{font-family:'Montserrat-Regular';}
	.st3{font-size:42px;}
	.st4{letter-spacing:1;}
	.st5{font-family:'Montserrat-Black';}
	.st6{font-size:35px;}
	.st7{font-size:14px;}
	.st8{fill:#2C8968;}
	.st9{fill:#404040;}
	.st10{fill:#FCC812;}
	.st11{fill:#FEE9A0;}
</style>
<g>
	<g>
		<defs>
			<rect id="SVGID_1_" y="0" width="825" height="472"/>
		</defs>
		<clipPath id="SVGID_2_">
			<use xlink:href="#SVGID_1_"  style="overflow:visible;"/>
		</clipPath>
		
			<linearGradient id="SVGID_3_" gradientUnits="userSpaceOnUse" x1="-1205.6523" y1="-745.1965" x2="-1204.0636" y2="-745.1965" gradientTransform="matrix(526.5874 0 0 526.5874 634858.5 392689.5938)">
			<stop  offset="0" style="stop-color:#379E6E"/>
			<stop  offset="1" style="stop-color:#72C6D4"/>
		</linearGradient>
		<rect x="-22.8" y="-156.78" class="st0" width="870.6" height="870.6"/>
	</g>
</g>
<text transform="matrix(1 0 0 1 393.2981 309.0763)" class="st1 st2 st3 st4">Akcja sprzątanie</text>
<text transform="matrix(1 0 0 1 198.1181 351.0763)" class="st1 st5 st6 st4">OTWARCI NA ŚRODOWISKO</text>
<g>
	<text transform="matrix(1 0 0 1 189.3845 57.7136)" class="st1 st2 st7">Ziemia to nasz wspólny dom, o który wszyscy powinniśmy dbać.</text>
</g>
<g>
	<path class="st1" d="M620.57,178.98c7.23-0.07,14.06-2.91,19.26-8.02c5.19-5.1,8.16-11.89,8.35-19.11
		c0.15-5.46-1.29-10.79-4.16-15.42c-0.37-0.6-1.05-0.97-1.76-0.97c-0.76,0-1.44,0.4-1.81,1.06c-0.37,0.67-0.35,1.46,0.05,2.12
		c2.51,4.05,3.72,8.72,3.51,13.51c-0.51,11.72-10.85,22.09-22.57,22.65c-6.66,0.32-13.19-2.21-17.92-6.93
		c-4.72-4.72-7.25-11.25-6.93-17.92c0.55-11.72,10.92-22.05,22.64-22.57c4.79-0.21,9.46,1.01,13.51,3.51
		c0.66,0.41,1.45,0.43,2.12,0.05c0.67-0.37,1.06-1.05,1.06-1.81c0-0.71-0.37-1.39-0.97-1.76c-4.63-2.87-9.96-4.31-15.42-4.16
		c-7.22,0.19-14.01,3.16-19.11,8.35s-7.95,12.03-8.02,19.26c-0.07,7.54,2.83,14.63,8.18,19.98c5.27,5.27,12.27,8.18,19.71,8.18
		C620.39,178.98,620.48,178.98,620.57,178.98"/>
	<path class="st1" d="M620.29,134.29c-0.96,0-1.66,0.49-2.07,1.47l-10.54,25.17c-0.34,0.75-0.29,1.48,0.13,2.15
		c0.42,0.68,1.04,1.02,1.83,1.02c0.4,0,0.79-0.11,1.16-0.34c0.38-0.23,0.68-0.57,0.88-1.02l3.16-7.72h10.97l3.11,7.72
		c0.17,0.43,0.45,0.76,0.83,1s0.78,0.36,1.2,0.36c0.81,0,1.44-0.32,1.85-0.96c0.41-0.63,0.46-1.35,0.16-2.13l-10.58-25.25
		C622,134.79,621.3,134.29,620.29,134.29 M616.27,151.51l4.09-10l4.03,10H616.27z"/>
	<path class="st1" d="M674.34,153.02c0.31-0.48,0.35-1.01,0.12-1.6l-7.37-17.59c-0.27-0.72-0.81-1.11-1.56-1.11
		c-0.71,0-1.25,0.38-1.56,1.1l-7.34,17.53c-0.25,0.57-0.22,1.11,0.1,1.62c0.31,0.5,0.79,0.77,1.38,0.77c0.3,0,0.59-0.08,0.87-0.25
		c0.29-0.17,0.51-0.43,0.66-0.77l2.17-5.3h7.48l2.13,5.3c0.13,0.32,0.34,0.58,0.63,0.76c0.28,0.18,0.59,0.27,0.91,0.27
		C673.55,153.75,674.03,153.5,674.34,153.02 M662.91,144.73l2.66-6.51l2.62,6.51H662.91z"/>
	<path class="st1" d="M680.45,142.16c0.69-0.32,1.53-0.47,2.49-0.44c0.25,0.01,0.49-0.02,0.69-0.11c0.21-0.09,0.39-0.24,0.53-0.44
		s0.21-0.46,0.21-0.76c0.01-0.42-0.14-1-0.92-1.37c-0.58-0.28-1.34-0.32-2.33-0.12c-0.79,0.16-1.5,0.48-2.12,0.95
		c-0.05-0.34-0.18-0.61-0.39-0.81c-0.28-0.27-0.68-0.41-1.19-0.41c-0.5,0-0.9,0.14-1.18,0.43c-0.28,0.29-0.43,0.68-0.43,1.18v11.9
		c0,0.52,0.15,0.92,0.43,1.2c0.28,0.27,0.68,0.41,1.18,0.41c0.52,0,0.92-0.15,1.2-0.43c0.27-0.28,0.41-0.68,0.41-1.18v-8.8
		C679.34,142.85,679.82,142.45,680.45,142.16"/>
	<path class="st1" d="M693.66,150.53h-0.89c-0.47,0-0.85-0.19-1.18-0.59c-0.34-0.42-0.51-0.93-0.51-1.56v-6.54h2.04
		c0.44,0,0.81-0.13,1.09-0.39c0.29-0.27,0.44-0.61,0.44-1.01c0-0.43-0.15-0.79-0.44-1.06c-0.28-0.26-0.65-0.39-1.09-0.39h-2.04
		v-3.08c0-0.46-0.15-0.85-0.45-1.15c-0.3-0.3-0.69-0.45-1.15-0.45s-0.85,0.15-1.16,0.45c-0.3,0.3-0.45,0.69-0.45,1.15v3.08h-0.78
		c-0.44,0-0.81,0.13-1.09,0.39c-0.29,0.27-0.44,0.62-0.44,1.06c0,0.4,0.15,0.74,0.44,1.01c0.28,0.26,0.65,0.39,1.09,0.39h0.78v6.54
		c0,1,0.21,1.92,0.64,2.73c0.42,0.81,1.01,1.46,1.75,1.93c0.74,0.47,1.59,0.71,2.51,0.71h0.47c0.53,0,0.97-0.15,1.31-0.44
		c0.36-0.3,0.54-0.7,0.54-1.17c0-0.46-0.14-0.84-0.4-1.14C694.41,150.69,694.06,150.53,693.66,150.53"/>
	<path class="st1" d="M738.02,150.05c0.6-1.13,0.91-2.42,0.91-3.84s-0.33-2.72-0.99-3.86s-1.56-2.05-2.68-2.71s-2.41-1-3.84-1
		c-1.41,0-2.69,0.34-3.81,1s-2.02,1.57-2.67,2.71c-0.65,1.14-0.99,2.44-1.01,3.86v11.92c0,0.46,0.16,0.86,0.47,1.17
		s0.7,0.47,1.17,0.47c0.48,0,0.88-0.16,1.18-0.47s0.45-0.7,0.45-1.16v-6.29c0.52,0.5,1.11,0.92,1.77,1.24
		c0.9,0.45,1.9,0.67,2.97,0.67c1.32,0,2.53-0.34,3.59-1C736.57,152.09,737.41,151.18,738.02,150.05 M735.19,148.55
		c-0.38,0.69-0.9,1.24-1.55,1.64c-0.64,0.4-1.39,0.6-2.22,0.6c-0.81,0-1.55-0.2-2.21-0.6c-0.66-0.4-1.18-0.95-1.55-1.64
		s-0.56-1.48-0.56-2.35c0-0.89,0.19-1.69,0.56-2.38s0.89-1.24,1.55-1.64c0.65-0.4,1.4-0.6,2.21-0.6c0.83,0,1.57,0.2,2.22,0.6
		c0.65,0.4,1.17,0.95,1.55,1.64s0.58,1.49,0.58,2.38C735.76,147.07,735.57,147.86,735.19,148.55"/>
	<path class="st1" d="M753.05,151.03c-0.02-0.4-0.21-0.76-0.58-1.08c-0.28-0.24-0.62-0.36-1-0.35c-0.37,0.01-0.71,0.13-1.02,0.36
		c-0.32,0.24-0.76,0.46-1.29,0.65c-0.53,0.19-1.06,0.28-1.56,0.28c-0.94,0-1.77-0.21-2.49-0.61c-0.72-0.41-1.29-0.97-1.69-1.67
		c-0.21-0.36-0.37-0.76-0.47-1.19h9.57c0.43,0,0.79-0.14,1.07-0.41c0.29-0.28,0.43-0.63,0.43-1.04c0-1.42-0.27-2.69-0.8-3.78
		c-0.54-1.1-1.33-1.98-2.35-2.61c-1.02-0.63-2.25-0.95-3.66-0.95c-1.42,0-2.71,0.33-3.81,0.97c-1.11,0.64-1.98,1.54-2.61,2.68
		c-0.62,1.13-0.94,2.45-0.94,3.92c0,1.46,0.33,2.77,0.99,3.9c0.66,1.13,1.59,2.03,2.76,2.67c1.16,0.64,2.51,0.97,4,0.97
		c0.83,0,1.71-0.16,2.62-0.46c0.91-0.31,1.68-0.71,2.3-1.2C752.99,151.74,753.07,151.32,753.05,151.03 M743.32,143.77
		c0.34-0.7,0.84-1.26,1.49-1.66c0.65-0.4,1.46-0.61,2.39-0.61c0.81,0,1.5,0.19,2.06,0.55c0.56,0.37,1,0.88,1.31,1.51
		c0.17,0.36,0.3,0.75,0.38,1.17h-7.97C743.07,144.38,743.18,144.06,743.32,143.77"/>
	<path class="st1" d="M764.44,143.37c0.34,0.58,0.51,1.35,0.51,2.29v6.45c0,0.47,0.16,0.86,0.47,1.17s0.7,0.47,1.17,0.47
		c0.46,0,0.86-0.16,1.17-0.47s0.47-0.71,0.47-1.17v-6.45c0-1.5-0.29-2.78-0.86-3.82c-0.57-1.04-1.37-1.85-2.37-2.39
		c-0.99-0.54-2.13-0.81-3.37-0.81c-1.2,0-2.29,0.27-3.26,0.8c-0.11,0.06-0.22,0.12-0.33,0.19c-0.07-0.15-0.17-0.28-0.29-0.4
		c-0.3-0.3-0.7-0.46-1.18-0.46c-0.46,0-0.86,0.15-1.17,0.45s-0.47,0.7-0.47,1.19v11.7c0,0.47,0.16,0.86,0.47,1.17
		s0.7,0.47,1.17,0.47c0.48,0,0.88-0.16,1.18-0.47s0.45-0.7,0.45-1.17v-9.26c0.29-0.32,0.64-0.58,1.04-0.78
		c0.55-0.27,1.17-0.41,1.85-0.41c0.75,0,1.42,0.14,2,0.43C763.65,142.36,764.11,142.8,764.44,143.37"/>
	<path class="st1" d="M720.14,135.39L720.14,135.39c-0.96-0.97-2.12-1.74-3.43-2.27s-2.78-0.8-4.37-0.8c-1.58,0-3.06,0.27-4.38,0.8
		c-1.32,0.54-2.48,1.3-3.43,2.27s-1.7,2.13-2.23,3.46c-0.52,1.32-0.79,2.79-0.79,4.38c0,1.58,0.27,3.06,0.79,4.39
		c0.53,1.33,1.28,2.5,2.23,3.47c0.95,0.97,2.11,1.74,3.43,2.27s2.79,0.8,4.38,0.8c1.58,0,3.05-0.27,4.37-0.8
		c1.31-0.53,2.47-1.3,3.43-2.27s1.72-2.14,2.24-3.47s0.79-2.8,0.79-4.39c0-1.58-0.27-3.06-0.79-4.38
		C721.85,137.53,721.1,136.36,720.14,135.39 M719.12,146.23c-0.35,0.91-0.86,1.72-1.51,2.4s-1.43,1.21-2.32,1.6
		c-0.89,0.38-1.88,0.58-2.94,0.58c-1.07,0-2.06-0.19-2.94-0.58c-0.89-0.38-1.67-0.92-2.31-1.6c-0.64-0.68-1.15-1.48-1.51-2.4
		s-0.54-1.93-0.54-3s0.18-2.08,0.54-3s0.87-1.72,1.51-2.4c0.64-0.67,1.42-1.21,2.3-1.58c0.89-0.37,1.88-0.57,2.95-0.57
		s2.06,0.19,2.95,0.57c0.89,0.37,1.67,0.91,2.32,1.58c0.65,0.68,1.16,1.48,1.51,2.4c0.35,0.92,0.53,1.93,0.53,3
		C719.65,144.3,719.47,145.31,719.12,146.23"/>
	<path class="st1" d="M671.12,167.07c-0.32-0.28-0.81-0.47-1.48-0.56c-0.37-0.05-0.67-0.12-0.89-0.22c-0.22-0.1-0.38-0.22-0.47-0.36
		c-0.1-0.14-0.14-0.29-0.14-0.46c0-0.31,0.13-0.55,0.38-0.71s0.59-0.24,1.01-0.24c0.24,0,0.44,0.04,0.61,0.09
		c0.17,0.06,0.31,0.14,0.43,0.24s0.22,0.21,0.3,0.32c0.04,0.07,0.1,0.12,0.19,0.14c0.08,0.02,0.16,0.02,0.24-0.02
		c0.07-0.04,0.12-0.1,0.14-0.17c0.02-0.07,0-0.15-0.05-0.23c-0.11-0.17-0.26-0.32-0.43-0.46c-0.18-0.14-0.39-0.25-0.62-0.34
		c-0.24-0.08-0.5-0.13-0.8-0.13c-0.39,0-0.74,0.06-1.04,0.18s-0.54,0.29-0.71,0.51c-0.17,0.22-0.26,0.48-0.26,0.77
		c0,0.41,0.18,0.76,0.53,1.05c0.35,0.29,0.84,0.46,1.46,0.53c0.51,0.06,0.88,0.19,1.12,0.41c0.24,0.21,0.36,0.47,0.36,0.77
		c0,0.23-0.06,0.43-0.19,0.6c-0.12,0.16-0.3,0.29-0.51,0.37c-0.22,0.08-0.47,0.13-0.75,0.13c-0.25,0-0.49-0.03-0.7-0.09
		s-0.4-0.15-0.55-0.26c-0.15-0.11-0.27-0.24-0.35-0.38c-0.04-0.07-0.09-0.12-0.16-0.15c-0.07-0.03-0.14-0.04-0.22-0.02
		c-0.1,0.02-0.16,0.07-0.2,0.14c-0.04,0.07-0.04,0.14,0,0.22c0.11,0.22,0.27,0.41,0.49,0.58c0.21,0.17,0.46,0.29,0.75,0.38
		c0.29,0.09,0.6,0.14,0.94,0.14c0.29,0,0.56-0.04,0.81-0.11s0.47-0.18,0.66-0.32c0.19-0.14,0.34-0.31,0.44-0.52s0.16-0.44,0.16-0.7
		C671.6,167.73,671.44,167.35,671.12,167.07"/>
	<path class="st1" d="M677.87,164.05h-1.9h-0.62h-1.89c-0.08,0-0.15,0.02-0.21,0.07s-0.08,0.11-0.08,0.19
		c0,0.07,0.03,0.13,0.08,0.18c0.05,0.05,0.12,0.07,0.21,0.07h1.89v4.9c0,0.08,0.03,0.14,0.09,0.2s0.13,0.08,0.22,0.08
		c0.09,0,0.16-0.03,0.22-0.08c0.06-0.06,0.09-0.12,0.09-0.2v-4.9h1.9c0.08,0,0.15-0.02,0.21-0.07c0.05-0.05,0.08-0.11,0.08-0.18
		c0-0.08-0.03-0.14-0.08-0.19S677.96,164.05,677.87,164.05"/>
	<path class="st1" d="M684.97,164.05c-0.09,0-0.16,0.03-0.22,0.08s-0.09,0.12-0.09,0.2v3.54c0,0.29-0.08,0.54-0.24,0.76
		s-0.37,0.39-0.65,0.52c-0.28,0.12-0.59,0.19-0.95,0.19s-0.68-0.06-0.96-0.19s-0.5-0.3-0.66-0.52s-0.23-0.47-0.23-0.76v-3.54
		c0-0.08-0.03-0.15-0.09-0.2s-0.13-0.08-0.22-0.08s-0.16,0.03-0.22,0.08s-0.09,0.12-0.09,0.2v3.54c0,0.39,0.1,0.74,0.31,1.04
		c0.21,0.3,0.5,0.54,0.88,0.71c0.37,0.17,0.8,0.26,1.29,0.26c0.48,0,0.9-0.08,1.27-0.26c0.37-0.17,0.66-0.41,0.87-0.71
		s0.31-0.65,0.31-1.04v-3.54c0-0.08-0.03-0.15-0.08-0.2C685.14,164.07,685.07,164.05,684.97,164.05"/>
	<path class="st1" d="M692.13,164.85c-0.28-0.26-0.6-0.45-0.98-0.59s-0.8-0.21-1.25-0.21h-1.43c-0.09,0-0.16,0.03-0.22,0.08
		s-0.09,0.12-0.09,0.2v5.14c0,0.08,0.03,0.15,0.09,0.2s0.13,0.08,0.22,0.08h1.43c0.46,0,0.87-0.07,1.25-0.21s0.71-0.34,0.98-0.59
		c0.28-0.26,0.49-0.56,0.64-0.91s0.23-0.73,0.23-1.15s-0.08-0.8-0.23-1.15C692.62,165.4,692.41,165.1,692.13,164.85 M692.07,168.11
		c-0.21,0.35-0.51,0.63-0.88,0.83s-0.81,0.3-1.29,0.3h-1.12v-4.68h1.12c0.49,0,0.92,0.1,1.29,0.3s0.67,0.48,0.88,0.83
		s0.32,0.76,0.32,1.21C692.39,167.35,692.28,167.75,692.07,168.11"/>
	<path class="st1" d="M695.87,164.05c-0.09,0-0.16,0.03-0.22,0.08s-0.09,0.12-0.09,0.2v5.14c0,0.08,0.03,0.15,0.09,0.2
		s0.13,0.08,0.22,0.08c0.09,0,0.16-0.03,0.22-0.08s0.09-0.12,0.09-0.2v-5.14c0-0.08-0.03-0.15-0.09-0.2
		C696.03,164.07,695.96,164.05,695.87,164.05"/>
	<path class="st1" d="M704.2,164.81c-0.29-0.26-0.62-0.47-1.01-0.61c-0.39-0.15-0.81-0.22-1.27-0.22s-0.89,0.07-1.27,0.22
		c-0.39,0.15-0.72,0.35-1.01,0.61c-0.28,0.26-0.51,0.57-0.66,0.93c-0.16,0.36-0.23,0.74-0.23,1.16s0.08,0.81,0.23,1.17
		c0.16,0.36,0.38,0.66,0.66,0.93c0.28,0.26,0.62,0.47,1.01,0.61c0.39,0.15,0.81,0.22,1.27,0.22s0.88-0.07,1.27-0.22
		s0.72-0.35,1.01-0.61c0.29-0.26,0.51-0.57,0.67-0.93c0.16-0.36,0.23-0.75,0.23-1.17s-0.08-0.81-0.23-1.16
		C704.71,165.38,704.49,165.07,704.2,164.81 M704.29,167.84c-0.13,0.29-0.31,0.54-0.54,0.76s-0.5,0.38-0.82,0.5
		c-0.31,0.12-0.65,0.18-1.02,0.18s-0.71-0.06-1.03-0.18c-0.31-0.12-0.59-0.29-0.82-0.5c-0.23-0.22-0.41-0.47-0.54-0.76
		s-0.19-0.6-0.19-0.95c0-0.34,0.06-0.65,0.19-0.94c0.13-0.29,0.31-0.54,0.54-0.76s0.5-0.38,0.82-0.5c0.31-0.12,0.66-0.18,1.03-0.18
		c0.37,0,0.71,0.06,1.02,0.18s0.59,0.29,0.82,0.5c0.23,0.22,0.41,0.47,0.54,0.76s0.19,0.6,0.19,0.94
		C704.49,167.24,704.42,167.55,704.29,167.84"/>
	<path class="st1" d="M713.84,167.4c0.09-0.03,0.17-0.06,0.26-0.1c0.3-0.15,0.54-0.35,0.71-0.61c0.17-0.26,0.26-0.55,0.26-0.88
		c0-0.35-0.09-0.65-0.26-0.92c-0.17-0.26-0.41-0.47-0.71-0.62c-0.3-0.15-0.65-0.22-1.04-0.22h-1.49c-0.09,0-0.17,0.03-0.22,0.08
		c-0.06,0.05-0.09,0.12-0.09,0.2v5.14c0,0.08,0.03,0.15,0.09,0.2s0.13,0.08,0.22,0.08c0.09,0,0.16-0.03,0.22-0.08
		s0.09-0.12,0.09-0.2v-1.95h1.18c0.05,0,0.09,0,0.14-0.01l1.43,2.1c0.03,0.05,0.07,0.08,0.11,0.11c0.04,0.02,0.09,0.04,0.16,0.04
		c0.14,0,0.24-0.04,0.29-0.13c0.05-0.09,0.04-0.19-0.04-0.31L713.84,167.4z M713.06,166.97h-1.18v-2.38h1.18
		c0.27,0,0.51,0.05,0.72,0.15c0.21,0.1,0.38,0.24,0.5,0.43c0.12,0.18,0.18,0.39,0.18,0.63c0,0.22-0.06,0.42-0.18,0.6
		c-0.12,0.18-0.29,0.31-0.5,0.41C713.57,166.92,713.33,166.97,713.06,166.97"/>
	<path class="st1" d="M721.51,164.6c0.08,0,0.16-0.03,0.22-0.08s0.09-0.12,0.09-0.19c0-0.08-0.03-0.15-0.09-0.2
		s-0.13-0.08-0.22-0.08h-3.74c-0.09,0-0.16,0.03-0.22,0.08s-0.09,0.12-0.09,0.2v5.14c0,0.08,0.03,0.15,0.09,0.2s0.13,0.08,0.22,0.08
		h3.74c0.08,0,0.16-0.03,0.22-0.08s0.09-0.12,0.09-0.2c0-0.07-0.03-0.14-0.09-0.19s-0.13-0.08-0.22-0.08h-3.43v-2.04h2.49
		c0.09,0,0.16-0.03,0.22-0.08s0.09-0.12,0.09-0.2s-0.03-0.14-0.09-0.2c-0.06-0.05-0.13-0.08-0.22-0.08h-2.49v-2.02h3.43V164.6z"/>
	<path class="st1" d="M728.3,164.32c0-0.08-0.02-0.14-0.07-0.19s-0.12-0.08-0.22-0.08c-0.05,0-0.09,0.01-0.13,0.02
		c-0.04,0.01-0.08,0.04-0.12,0.08l-2.91,2.67v-2.48c0-0.08-0.03-0.15-0.09-0.2c-0.06-0.06-0.13-0.08-0.22-0.08
		c-0.08,0-0.16,0.03-0.22,0.08c-0.06,0.06-0.09,0.12-0.09,0.2v5.14c0,0.08,0.03,0.15,0.09,0.2c0.06,0.06,0.13,0.08,0.22,0.08
		c0.09,0,0.16-0.03,0.22-0.08c0.06-0.06,0.09-0.12,0.09-0.2v-1.87l0.71-0.66l2.17,2.69c0.06,0.08,0.15,0.12,0.26,0.12
		c0.07,0,0.14-0.02,0.19-0.07s0.08-0.11,0.09-0.18c0.01-0.07-0.01-0.14-0.06-0.2l-2.21-2.76l2.18-2
		C728.27,164.47,728.3,164.4,728.3,164.32"/>
	<path class="st1" d="M734.47,169.21h-3.11v-4.88c0-0.08-0.03-0.15-0.09-0.2c-0.06-0.06-0.13-0.08-0.22-0.08
		c-0.08,0-0.16,0.03-0.22,0.08c-0.06,0.06-0.09,0.12-0.09,0.2v5.14c0,0.08,0.03,0.15,0.09,0.2s0.13,0.08,0.22,0.08h3.43
		c0.08,0,0.16-0.02,0.22-0.08c0.06-0.05,0.09-0.12,0.09-0.19c0-0.08-0.03-0.14-0.09-0.19C734.63,169.24,734.56,169.21,734.47,169.21
		"/>
	<path class="st1" d="M739.37,164.24c-0.06-0.13-0.16-0.2-0.3-0.2s-0.24,0.07-0.3,0.2l-2.34,5.1c-0.04,0.09-0.04,0.18,0.02,0.27
		c0.05,0.09,0.14,0.14,0.26,0.14c0.06,0,0.12-0.01,0.17-0.04s0.09-0.07,0.12-0.13l0.54-1.18h3.08l0.53,1.18
		c0.03,0.06,0.07,0.1,0.12,0.13s0.11,0.04,0.17,0.04c0.11,0,0.2-0.04,0.26-0.13c0.06-0.09,0.07-0.18,0.02-0.27L739.37,164.24z
		 M737.76,167.91l1.33-2.93l1.31,2.93H737.76z"/>
	<path class="st1" d="M749.85,164.05c-0.12,0-0.21,0.05-0.28,0.15l-2.5,4.65l-2.55-4.65c-0.06-0.1-0.15-0.15-0.28-0.15
		c-0.09,0-0.16,0.03-0.22,0.08s-0.09,0.12-0.09,0.2v5.14c0,0.08,0.03,0.14,0.09,0.2s0.13,0.08,0.22,0.08c0.08,0,0.16-0.03,0.22-0.08
		c0.06-0.06,0.09-0.12,0.09-0.2v-4.07l2.21,4.05c0.06,0.12,0.15,0.18,0.29,0.18c0.12,0,0.21-0.05,0.27-0.14l2.21-4.15v4.14
		c0,0.08,0.03,0.14,0.09,0.2s0.14,0.08,0.23,0.08c0.08,0,0.16-0.03,0.21-0.08c0.06-0.06,0.09-0.12,0.09-0.2v-5.14
		c0-0.08-0.03-0.15-0.09-0.2C750,164.07,749.93,164.05,749.85,164.05"/>
	<path class="st1" d="M757.07,164.05c-0.06,0-0.12,0.01-0.16,0.04c-0.05,0.02-0.09,0.06-0.12,0.12l-1.98,2.92l-1.98-2.93
		c-0.03-0.04-0.07-0.08-0.11-0.1s-0.09-0.04-0.16-0.04c-0.08,0-0.15,0.02-0.2,0.07c-0.05,0.04-0.09,0.1-0.1,0.17
		c-0.01,0.07,0.01,0.14,0.06,0.21l2.17,3.15v1.83c0,0.08,0.03,0.14,0.09,0.2s0.13,0.08,0.22,0.08s0.16-0.03,0.22-0.08
		c0.06-0.06,0.09-0.12,0.09-0.2v-1.83l2.17-3.15c0.05-0.07,0.07-0.14,0.06-0.2c-0.01-0.07-0.04-0.13-0.09-0.17
		C757.21,164.07,757.15,164.05,757.07,164.05"/>
	<path class="st1" d="M768.05,166.7h-6.3c-0.09,0-0.17,0.1-0.17,0.22s0.08,0.22,0.17,0.22h6.3c0.09,0,0.17-0.1,0.17-0.22
		C768.22,166.8,768.14,166.7,768.05,166.7"/>
	<path class="st1" d="M662.93,166.7h-6.3c-0.09,0-0.17,0.1-0.17,0.22s0.08,0.22,0.17,0.22h6.3c0.09,0,0.17-0.1,0.17-0.22
		C663.1,166.8,663.02,166.7,662.93,166.7"/>
</g>
<g>
	
		<ellipse transform="matrix(0.8902 -0.4555 0.4555 0.8902 -90.334 178.3363)" class="st8" cx="324.85" cy="276.6" rx="53.72" ry="20.84"/>
	
		<ellipse transform="matrix(0.8902 -0.4555 0.4555 0.8902 -114.603 151.3014)" class="st8" cx="256.62" cy="313.43" rx="3.95" ry="1.54"/>
	<g>
		
			<ellipse transform="matrix(0.8902 -0.4555 0.4555 0.8902 -76.4737 126.3906)" class="st8" cx="224" cy="221.86" rx="133.75" ry="51.89"/>
		<g id="illustration_1_">
			<g id="XMLID_461_">
				<g id="XMLID_462_">
					<g id="XMLID_603_">
						<g id="XMLID_613_">
							<g id="XMLID_648_">
								<g id="XMLID_664_">
									<path id="XMLID_668_" class="st9" d="M349.73,264.26c0-2.85-2-6.31-4.46-7.73c-1.27-0.74-2.43-0.78-3.24-0.25l0,0
										l-4.28,2.55l6.06,11.06l4.61-2.73c0.01,0,0.01-0.01,0.01-0.01l0.01-0.01l0,0C349.24,266.67,349.73,265.68,349.73,264.26z"
										/>
									<path id="XMLID_665_" class="st9" d="M343.69,270.3l-6.36-11.59l4.78-2.85l0.01,0.01c0.92-0.45,2.07-0.31,3.3,0.4
										c2.54,1.47,4.61,5.05,4.61,7.99c0,1.47-0.51,2.59-1.44,3.13L343.69,270.3z M338.14,258.93l5.77,10.54l4.35-2.57
										c0.76-0.45,1.17-1.38,1.17-2.63c0-2.75-1.94-6.1-4.32-7.47c-1.13-0.66-2.17-0.75-2.93-0.26l-0.25,0.16l-0.01-0.01
										L338.14,258.93z"/>
								</g>
								<g id="XMLID_659_">
									<path id="XMLID_663_" class="st10" d="M345.27,266.92c0,2.85-2,4-4.46,2.58c-2.47-1.43-4.46-4.88-4.46-7.73
										c0-2.85,2-4,4.46-2.58C343.27,260.6,345.27,264.07,345.27,266.92z"/>
									<path id="XMLID_660_" class="st9" d="M342.8,270.41c-0.66,0-1.39-0.22-2.15-0.66c-2.54-1.47-4.61-5.05-4.61-7.99
										c0-1.49,0.52-2.61,1.45-3.15c0.94-0.54,2.16-0.43,3.46,0.31c2.54,1.47,4.61,5.05,4.61,7.99c0,1.49-0.52,2.61-1.45,3.15
										C343.72,270.29,343.28,270.41,342.8,270.41z M338.82,258.87c-0.38,0-0.72,0.08-1.01,0.26c-0.75,0.43-1.16,1.36-1.16,2.63
										c0,2.75,1.94,6.1,4.32,7.47c1.1,0.64,2.11,0.75,2.86,0.31c0.75-0.43,1.16-1.36,1.16-2.63c0-2.75-1.94-6.1-4.32-7.47
										C340,259.06,339.37,258.87,338.82,258.87z"/>
								</g>
								<g id="XMLID_654_">
									<path id="XMLID_658_" class="st9" d="M343.03,265.62c0,1.42-1,1.98-2.22,1.28c-1.22-0.71-2.22-2.42-2.22-3.84
										c0-1.42,1-1.98,2.22-1.28C342.03,262.49,343.03,264.2,343.03,265.62z"/>
									<path id="XMLID_655_" class="st9" d="M341.8,267.5c-0.36,0-0.75-0.12-1.14-0.34c-1.33-0.76-2.37-2.57-2.37-4.1
										c0-0.8,0.29-1.4,0.8-1.7s1.18-0.24,1.87,0.15c1.33,0.76,2.37,2.57,2.37,4.1c0,0.8-0.29,1.4-0.8,1.7
										C342.31,267.44,342.06,267.5,341.8,267.5z M339.81,261.77c-0.16,0-0.31,0.04-0.43,0.11c-0.32,0.19-0.5,0.6-0.5,1.18
										c0,1.32,0.92,2.93,2.07,3.58c0.49,0.29,0.94,0.34,1.27,0.15s0.5-0.6,0.5-1.18c0-1.32-0.92-2.93-2.07-3.58
										C340.35,261.86,340.06,261.77,339.81,261.77z"/>
								</g>
								<g id="XMLID_649_">
									<path id="XMLID_653_" class="st10" d="M340.81,261.77c-0.31-0.18-0.59-0.27-0.86-0.3c-0.09,0.22-0.14,0.49-0.14,0.8
										c0,1.42,1,3.13,2.22,3.84c0.31,0.18,0.59,0.27,0.86,0.3c0.09-0.22,0.14-0.49,0.14-0.8
										C343.03,264.19,342.03,262.48,340.81,261.77z"/>
									<path id="XMLID_650_" class="st9" d="M343.07,266.74l-0.22-0.02c-0.31-0.03-0.65-0.14-0.98-0.33
										c-1.33-0.76-2.37-2.57-2.37-4.1c0-0.32,0.05-0.64,0.17-0.92l0.08-0.21l0.22,0.02c0.31,0.03,0.65,0.14,0.98,0.33l0,0
										c1.33,0.76,2.37,2.57,2.37,4.1c0,0.32-0.05,0.64-0.17,0.92L343.07,266.74z M340.15,261.82c-0.04,0.14-0.05,0.3-0.05,0.46
										c0,1.32,0.92,2.93,2.07,3.58c0.17,0.1,0.34,0.17,0.5,0.22c0.04-0.14,0.05-0.3,0.05-0.46c0-1.32-0.92-2.93-2.07-3.58l0,0
										C340.49,261.93,340.31,261.86,340.15,261.82z"/>
								</g>
							</g>
							<g id="XMLID_642_">
								<path id="XMLID_647_" class="st10" d="M340.1,229.44l0.29,27.31c0.51,0.11,1.05,0.32,1.61,0.65
									c2.94,1.71,5.34,5.84,5.34,9.25c0,0.51-0.06,0.97-0.16,1.38l3.63,2.09c1.73,1.01,4.35,1.11,5.86,0.24l2.73-1.58l0.48-3.49
									l4.51-2.6l2.86,1.57l3.22-1.87c0.64-0.37,0.86-0.84,1.01-1.37l0,0c0-0.03,0-0.04,0-0.07l4-31.29L340.1,229.44z"/>
								<path id="XMLID_646_" class="st9" d="M344.15,229.46l14.06,8.88l-4,31.29c0,0.03,0,0.04,0,0.07l0,0
									c-0.13,0.45-0.32,0.85-0.76,1.19c1.23,0.13,2.47-0.03,3.34-0.53l2.73-1.58l0.48-3.49l4.51-2.6l2.86,1.57l3.22-1.87
									c0.64-0.37,0.86-0.84,1.01-1.37l0,0c0-0.03,0-0.04,0-0.07l4-31.29L344.15,229.46z"/>
								<path id="XMLID_643_" class="st9" d="M354.12,271.24c-1.21,0-2.48-0.3-3.47-0.86l-3.82-2.21l0.05-0.22
									c0.1-0.41,0.15-0.85,0.15-1.31c0-3.3-2.33-7.34-5.19-8.99c-0.52-0.3-1.03-0.5-1.53-0.61l-0.23-0.05l-0.29-27.86h0.31
									l35.71,0.22l-4.05,31.74c-0.15,0.55-0.4,1.12-1.15,1.55l-3.38,1.95l-2.86-1.57l-4.24,2.44l-0.48,3.49l-2.86,1.65
									C356.1,271.04,355.13,271.24,354.12,271.24z M347.52,267.88l3.44,1.98c1.65,0.95,4.14,1.06,5.56,0.24l2.6-1.5l0.48-3.49
									l4.79-2.77l2.86,1.57l3.08-1.78c0.53-0.31,0.73-0.68,0.87-1.19l3.95-30.98l-34.73-0.22l0.28,26.77
									c0.48,0.13,0.97,0.33,1.46,0.62c3.03,1.75,5.49,6.02,5.49,9.51C347.63,267.07,347.6,267.48,347.52,267.88z"/>
							</g>
							<g id="XMLID_637_">
								<path id="XMLID_641_" class="st10" d="M369.86,241.91c-0.31-0.2-0.68-0.21-1-0.03l-5.88,3.47c-0.5,0.3-0.83,0.8-0.92,1.37
									l-2.47,18.26l0.01-0.04l4.73-2.68l2.87,1.55l0.41-0.22l2.66-20.78C370.32,242.46,370.17,242.12,369.86,241.91z"/>
								<g id="XMLID_638_">
									<path id="XMLID_640_" class="st9" d="M364.38,262.69l2.46-19.25l-3.7,2.18c-0.42,0.25-0.7,0.67-0.76,1.16l-2.5,18.51
										L364.38,262.69z"/>
									<path id="XMLID_639_" class="st10" d="M362.99,245.37c-0.5,0.3-0.83,0.8-0.92,1.37l-2.42,18.22l0.61-0.35l2.41-17.79
										c0.05-0.4,0.28-0.74,0.62-0.93l3.17-1.87l-2.35,18.41l0.27-0.04l0.33,0.06l2.5-19.57L362.99,245.37z"/>
								</g>
							</g>
							<g id="XMLID_632_">
								<path id="XMLID_636_" class="st10" d="M377.25,227.62c0.01-0.08,0-0.11,0-0.19v-5.09c0-0.07-0.05-0.13-0.13-0.13
									l-10.62-0.75l-5.23-3.02c-1.93-1.11-4.84-1.23-6.51-0.27l-5.8,3.35l-10.54,0.47c-0.05,0-0.11,0.05-0.11,0.11v5.11
									c-0.01,0.08-0.01,0.15,0,0.23l0,0l0,0c0.05,0.71,0.58,1.44,1.59,2.01l14.39,8.3c1.93,1.11,4.84,1.23,6.51,0.27l15.33-8.84
									c0.7-0.4,1.07-0.93,1.11-1.5v0.03V227.62z"/>
								<path id="XMLID_633_" class="st9" d="M357.98,238.97c-1.34,0-2.74-0.32-3.83-0.95l-14.39-8.3
									c-1.06-0.61-1.67-1.41-1.73-2.25c-0.01-0.09-0.01-0.19,0-0.28v-5.09c0-0.22,0.17-0.4,0.4-0.41l10.47-0.46l5.74-3.31
									c1.75-1.01,4.8-0.89,6.81,0.27l5.16,2.98l10.55,0.75c0.23,0.02,0.4,0.21,0.4,0.44v5.09c0.01,0.07,0.01,0.12,0,0.22v0.05
									c-0.06,0.68-0.51,1.3-1.27,1.73l-15.33,8.85C360.17,238.74,359.1,238.97,357.98,238.97z M338.63,222.27v4.93
									c-0.01,0.08-0.01,0.14,0,0.21c0.04,0.63,0.57,1.27,1.44,1.78l14.39,8.3c1.84,1.06,4.62,1.19,6.21,0.27l15.33-8.84
									c0.58-0.33,0.92-0.76,0.97-1.24l0,0l0.01-0.08c0.01-0.05,0-0.08,0-0.13v-4.97l-10.6-0.78l-5.23-3.02
									c-1.84-1.06-4.62-1.19-6.21-0.27l-5.93,3.38L338.63,222.27z"/>
							</g>
							<g id="XMLID_626_">
								<path id="XMLID_631_" class="st10" d="M376.13,223.95l-15.33,8.84c-1.67,0.96-4.58,0.84-6.51-0.27l-14.39-8.3
									c-1.93-1.11-2.14-2.79-0.47-3.76l15.33-8.84c1.67-0.96,4.58-0.84,6.51,0.27l14.39,8.3
									C377.59,221.31,377.8,222.99,376.13,223.95z"/>
								<path id="XMLID_630_" class="st11" d="M354.15,232.53c1.93,1.11,4.84,1.23,6.51,0.27l15.23-8.79
									c-0.2-0.16-0.41-0.32-0.66-0.47l-14.39-8.3c-1.93-1.11-4.84-1.23-6.51-0.27l-15.23,8.79c0.2,0.16,0.41,0.32,0.66,0.47
									L354.15,232.53z"/>
								<path id="XMLID_627_" class="st9" d="M357.98,233.75c-1.34,0-2.74-0.32-3.83-0.95l-14.39-8.3c-1.1-0.64-1.74-1.51-1.74-2.39
									c0-0.75,0.45-1.42,1.27-1.89l15.33-8.85c1.75-1.01,4.8-0.89,6.81,0.27l14.39,8.3c1.1,0.64,1.74,1.51,1.74,2.39
									c0,0.75-0.45,1.42-1.27,1.89l-15.33,8.85C360.17,233.52,359.1,233.75,357.98,233.75z M357.59,211.27
									c-1.01,0-1.97,0.2-2.68,0.61l-15.33,8.85c-0.63,0.36-0.98,0.85-0.98,1.37c0,0.66,0.53,1.34,1.45,1.87l14.39,8.3
									c1.84,1.06,4.62,1.19,6.21,0.27l15.33-8.85c0.63-0.36,0.98-0.85,0.98-1.37c0-0.66-0.53-1.34-1.45-1.87l-14.39-8.3
									C360.11,211.56,358.82,211.27,357.59,211.27z"/>
							</g>
							<g id="XMLID_614_">
								<g id="XMLID_620_">
									<path id="XMLID_625_" class="st10" d="M372.54,218.32l-15.62-9.02c-0.72-0.41-1.37-0.44-1.89-0.14l-13.89,8.06
										c-0.02,0.01-0.03,0.04,0,0.06l20.4,15.18l13.87-8.05v-0.59C375.41,221.69,374.13,219.24,372.54,218.32z"/>
									<path id="XMLID_624_" class="st11" d="M372.77,220.63l-15.62-9.02c-0.72-0.41-1.37-0.44-1.89-0.14l-12.26,7.11l18.66,13.88
										l13.75-7.98C374.97,222.86,373.96,221.31,372.77,220.63z"/>
									<path id="XMLID_621_" class="st9" d="M361.51,232.82l-20.69-15.4l-0.01-0.19l0.01-0.16l0.16-0.11l13.89-8.06
										c0.62-0.36,1.39-0.31,2.18,0.14l15.62,9.02c1.67,0.96,3.02,3.54,3.02,5.75v0.76L361.51,232.82z M341.63,217.27l19.91,14.82
										l13.56-7.86v-0.42c0-2.01-1.22-4.35-2.72-5.23l-15.62-9.02c-0.6-0.35-1.15-0.4-1.58-0.14L341.63,217.27z"/>
								</g>
								<g id="XMLID_615_">
									<path id="XMLID_619_" class="st10" d="M361.53,232.46l-21.37-12.34v-0.59c0-2.11,1.28-3.09,2.87-2.17l15.62,9.02
										c1.59,0.92,2.87,3.37,2.87,5.49L361.53,232.46L361.53,232.46z"/>
									<path id="XMLID_616_" class="st9" d="M361.84,232.98l-21.97-12.69v-0.77c0-1.22,0.41-2.16,1.14-2.58
										c0.62-0.36,1.39-0.31,2.18,0.15l15.62,9.02c1.67,0.96,3.02,3.54,3.02,5.75L361.84,232.98L361.84,232.98z M340.47,219.95
										l20.77,11.99v-0.07c0-2.01-1.22-4.35-2.72-5.23l-15.62-9.02c-0.59-0.34-1.16-0.4-1.58-0.15c-0.54,0.31-0.84,1.06-0.84,2.07
										V219.95z"/>
								</g>
							</g>
						</g>
						<polygon id="XMLID_612_" class="st9" points="360.35,228.09 374.18,219.92 375.11,221.75 375.41,224.4 361.53,232.46 
							361.23,229.98 						"/>
						<polygon id="XMLID_611_" class="st9" points="358.04,233.45 358.04,238.67 360,238.37 376.61,228.8 377.25,227.67 
							377.08,222.89 376.13,223.95 360.81,232.8 358.94,233.4 						"/>
						<path id="XMLID_610_" class="st10" d="M360.96,238.32l14.18-8.18v-0.69l-14.47,8.36c-0.47,0.27-1.03,0.44-1.65,0.53v0.6
							C359.73,238.83,360.42,238.63,360.96,238.32z"/>
						<polygon id="XMLID_609_" class="st10" points="374.95,224.33 362.14,231.77 362.14,232.46 374.95,225.02 						"/>
						<g id="XMLID_604_">
							<path id="XMLID_608_" class="st10" d="M364.57,222.84l-1.48,0.85c-0.82,0.47-2.24,0.41-3.17-0.13l-8.18-4.72
								c-0.94-0.54-1.04-1.36-0.22-1.83l1.48-0.85c0.82-0.47,2.24-0.41,3.17,0.13l8.18,4.72
								C365.28,221.55,365.38,222.37,364.57,222.84z"/>
							<path id="XMLID_605_" class="st9" d="M361.93,222.51c-0.67,0-1.37-0.16-1.94-0.49l-8.18-4.72c-0.59-0.34-0.92-0.82-0.92-1.29
								c0-0.42,0.25-0.8,0.7-1.06l1.48-0.85c0.91-0.52,2.43-0.47,3.47,0.13l8.18,4.72c0.59,0.34,0.92,0.81,0.92,1.29
								c0,0.42-0.25,0.8-0.7,1.06l-1.48,0.85C363.05,222.39,362.5,222.51,361.93,222.51z M354.59,214.34
								c-0.47,0-0.91,0.09-1.22,0.28l-1.48,0.85c-0.18,0.11-0.4,0.28-0.4,0.54c0,0.26,0.23,0.55,0.63,0.77l8.18,4.72
								c0.84,0.48,2.15,0.55,2.87,0.13l1.48-0.85c0.18-0.11,0.4-0.28,0.4-0.54c0-0.26-0.23-0.55-0.63-0.77l-8.18-4.72
								C355.78,214.48,355.17,214.34,354.59,214.34z"/>
						</g>
					</g>
					<g id="XMLID_535_">
						<g id="XMLID_537_">
							<g id="XMLID_547_">
								<g id="XMLID_582_">
									<g id="XMLID_598_">
										<path id="XMLID_602_" class="st9" d="M321.12,280.83c0-2.85-2-6.31-4.46-7.73c-1.27-0.74-2.43-0.78-3.24-0.25l0,0
											l-4.28,2.55l6.06,11.06l4.61-2.73c0.01,0,0.01-0.01,0.01-0.01l0.01-0.01l0,0C320.63,283.24,321.12,282.24,321.12,280.83z"
											/>
										<path id="XMLID_599_" class="st9" d="M315.08,286.86l-6.36-11.59l4.78-2.85l0.01,0.01c0.92-0.45,2.07-0.31,3.3,0.4
											c2.54,1.47,4.61,5.05,4.61,7.99c0,1.47-0.51,2.59-1.44,3.13L315.08,286.86z M309.53,275.5l5.77,10.54l4.35-2.57
											c0.76-0.45,1.17-1.38,1.17-2.63c0-2.75-1.94-6.1-4.32-7.47c-1.13-0.66-2.17-0.75-2.93-0.26l-0.25,0.16l-0.01-0.01
											L309.53,275.5z"/>
									</g>
									<g id="XMLID_593_">
										<path id="XMLID_597_" class="st10" d="M316.66,283.48c0,2.85-2,4-4.46,2.58c-2.47-1.43-4.46-4.88-4.46-7.73s2-4,4.46-2.58
											C314.65,277.18,316.66,280.63,316.66,283.48z"/>
										<path id="XMLID_594_" class="st9" d="M314.19,286.97c-0.66,0-1.39-0.22-2.15-0.66c-2.54-1.47-4.61-5.05-4.61-7.99
											c0-1.49,0.52-2.61,1.45-3.15c0.94-0.54,2.16-0.43,3.46,0.31c2.54,1.47,4.61,5.05,4.61,7.99c0,1.49-0.52,2.61-1.45,3.15
											C315.1,286.86,314.66,286.97,314.19,286.97z M310.2,275.44c-0.38,0-0.72,0.08-1.01,0.26c-0.75,0.43-1.16,1.36-1.16,2.63
											c0,2.75,1.94,6.11,4.32,7.47c1.1,0.64,2.11,0.75,2.86,0.31c0.75-0.43,1.16-1.36,1.16-2.63c0-2.75-1.94-6.1-4.32-7.47
											C311.39,275.63,310.76,275.44,310.2,275.44z"/>
									</g>
									<g id="XMLID_588_">
										<path id="XMLID_592_" class="st9" d="M314.41,282.19c0,1.42-1,1.98-2.22,1.28c-1.22-0.71-2.22-2.42-2.22-3.84
											s1-1.98,2.22-1.28C313.42,279.05,314.41,280.77,314.41,282.19z"/>
										<path id="XMLID_589_" class="st9" d="M313.18,284.07c-0.36,0-0.75-0.12-1.14-0.34c-1.33-0.76-2.37-2.57-2.37-4.1
											c0-0.8,0.29-1.4,0.8-1.7s1.18-0.24,1.87,0.15c1.33,0.76,2.37,2.57,2.37,4.1c0,0.8-0.29,1.4-0.8,1.7
											C313.69,284.01,313.44,284.07,313.18,284.07z M311.2,278.34c-0.16,0-0.31,0.04-0.43,0.11c-0.32,0.19-0.5,0.6-0.5,1.18
											c0,1.32,0.92,2.93,2.07,3.58c0.49,0.29,0.94,0.34,1.27,0.15s0.5-0.6,0.5-1.18c0-1.32-0.92-2.93-2.07-3.58
											C311.74,278.43,311.45,278.34,311.2,278.34z"/>
									</g>
									<g id="XMLID_583_">
										<path id="XMLID_587_" class="st10" d="M312.19,278.34c-0.31-0.18-0.59-0.27-0.86-0.3c-0.09,0.22-0.14,0.49-0.14,0.8
											c0,1.42,1,3.13,2.22,3.84c0.31,0.18,0.59,0.27,0.86,0.3c0.09-0.22,0.14-0.49,0.14-0.8
											C314.41,280.77,313.42,279.04,312.19,278.34z"/>
										<path id="XMLID_584_" class="st9" d="M314.46,283.3l-0.22-0.02c-0.31-0.03-0.65-0.14-0.98-0.33
											c-1.33-0.76-2.37-2.57-2.37-4.1c0-0.32,0.05-0.64,0.17-0.92l0.08-0.21l0.22,0.02c0.31,0.03,0.65,0.14,0.98,0.33l0,0
											c1.33,0.76,2.37,2.57,2.37,4.1c0,0.32-0.05,0.64-0.17,0.92L314.46,283.3z M311.54,278.38c-0.04,0.14-0.05,0.3-0.05,0.46
											c0,1.32,0.92,2.93,2.07,3.58c0.17,0.1,0.34,0.17,0.5,0.22c0.04-0.14,0.05-0.3,0.05-0.46c0-1.32-0.92-2.93-2.07-3.58l0,0
											C311.87,278.5,311.7,278.43,311.54,278.38z"/>
									</g>
								</g>
								<g id="XMLID_576_">
									<path id="XMLID_581_" class="st10" d="M311.49,246.01l0.29,27.31c0.51,0.11,1.05,0.32,1.61,0.65
										c2.94,1.71,5.34,5.84,5.34,9.25c0,0.51-0.06,0.97-0.16,1.38l3.63,2.09c1.73,1.01,4.35,1.11,5.86,0.24l2.73-1.58l0.48-3.49
										l4.51-2.6l2.86,1.57l3.22-1.87c0.64-0.37,0.86-0.84,1.01-1.37l0,0c0-0.03,0-0.04,0-0.07l4-31.29L311.49,246.01z"/>
									<path id="XMLID_580_" class="st9" d="M315.53,246.02l14.06,8.88l-4,31.29c0,0.03,0,0.04,0,0.07l0,0
										c-0.13,0.45-0.32,0.85-0.76,1.19c1.23,0.13,2.47-0.03,3.34-0.53l2.73-1.58l0.48-3.49l4.51-2.6l2.86,1.57l3.22-1.87
										c0.64-0.37,0.86-0.84,1.01-1.37l0,0c0-0.03,0-0.04,0-0.07l4-31.29L315.53,246.02z"/>
									<path id="XMLID_577_" class="st9" d="M325.51,287.81c-1.21,0-2.48-0.3-3.47-0.86l-3.82-2.21l0.05-0.22
										c0.1-0.41,0.15-0.85,0.15-1.31c0-3.3-2.33-7.34-5.19-8.99c-0.52-0.3-1.03-0.5-1.53-0.61l-0.23-0.05l-0.29-27.86h0.31
										l35.71,0.22l-4.05,31.74c-0.15,0.55-0.4,1.12-1.15,1.55l-3.38,1.95l-2.86-1.57l-4.24,2.44l-0.48,3.49l-2.86,1.65
										C327.48,287.61,326.52,287.81,325.51,287.81z M318.9,284.44l3.44,1.98c1.65,0.95,4.14,1.06,5.56,0.24l2.6-1.5l0.48-3.49
										l4.79-2.77l2.86,1.57l3.08-1.78c0.53-0.31,0.73-0.68,0.87-1.19l3.95-30.98l-34.73-0.22l0.28,26.77
										c0.48,0.13,0.97,0.33,1.46,0.62c3.03,1.75,5.49,6.02,5.49,9.51C319.02,283.63,318.98,284.05,318.9,284.44z"/>
								</g>
								<g id="XMLID_571_">
									<path id="XMLID_575_" class="st10" d="M341.25,258.48c-0.31-0.2-0.68-0.21-1-0.03l-5.88,3.47c-0.5,0.3-0.83,0.8-0.92,1.37
										l-2.47,18.26l0.01-0.04l4.73-2.68l2.87,1.55l0.41-0.22l2.66-20.78C341.71,259.02,341.55,258.68,341.25,258.48z"/>
									<g id="XMLID_572_">
										<path id="XMLID_574_" class="st9" d="M335.76,279.25l2.46-19.25l-3.7,2.18c-0.42,0.25-0.7,0.67-0.76,1.16l-2.5,18.51
											L335.76,279.25z"/>
										<path id="XMLID_573_" class="st10" d="M334.37,261.93c-0.5,0.3-0.83,0.8-0.92,1.37l-2.42,18.22l0.61-0.35l2.41-17.79
											c0.05-0.4,0.28-0.74,0.62-0.93l3.17-1.87l-2.35,18.41l0.27-0.04l0.33,0.06l2.5-19.57L334.37,261.93z"/>
									</g>
								</g>
								<g id="XMLID_566_">
									<path id="XMLID_570_" class="st10" d="M348.64,244.18c0.01-0.08,0-0.11,0-0.19v-5.09c0-0.07-0.05-0.13-0.13-0.13
										l-10.62-0.75l-5.23-3.02c-1.93-1.11-4.84-1.23-6.51-0.27l-5.8,3.35l-10.54,0.47c-0.05,0-0.11,0.05-0.11,0.11v5.11
										c-0.01,0.08-0.01,0.15,0,0.23l0,0l0,0c0.05,0.71,0.58,1.44,1.59,2.01l14.39,8.3c1.93,1.11,4.84,1.23,6.51,0.27l15.33-8.84
										c0.7-0.4,1.07-0.93,1.11-1.5v0.03V244.18z"/>
									<path id="XMLID_567_" class="st9" d="M329.37,255.53c-1.34,0-2.74-0.32-3.83-0.95l-14.39-8.3
										c-1.06-0.61-1.67-1.41-1.73-2.25c-0.01-0.09-0.01-0.19,0-0.28v-5.09c0-0.22,0.17-0.4,0.4-0.41l10.47-0.46l5.74-3.31
										c1.75-1.01,4.8-0.89,6.81,0.27l5.16,2.98l10.55,0.75c0.23,0.02,0.4,0.21,0.4,0.44v5.09c0.01,0.07,0.01,0.12,0,0.22v0.05
										c-0.06,0.68-0.51,1.3-1.27,1.73l-15.33,8.85C331.55,255.31,330.48,255.53,329.37,255.53z M310.01,238.83v4.93
										c-0.01,0.08-0.01,0.14,0,0.21c0.04,0.63,0.57,1.27,1.44,1.78l14.39,8.3c1.84,1.06,4.62,1.19,6.21,0.27l15.33-8.84
										c0.58-0.33,0.92-0.76,0.97-1.24l0,0l0.01-0.08c0.01-0.05,0-0.08,0-0.13v-4.96l-10.6-0.78l-5.23-3.02
										c-1.84-1.06-4.62-1.19-6.21-0.27l-5.93,3.38L310.01,238.83z"/>
								</g>
								<g id="XMLID_560_">
									<path id="XMLID_565_" class="st10" d="M347.52,240.52l-15.33,8.84c-1.67,0.96-4.58,0.84-6.51-0.27l-14.39-8.3
										c-1.93-1.11-2.14-2.79-0.47-3.76l15.33-8.84c1.67-0.96,4.58-0.84,6.51,0.27l14.39,8.3
										C348.98,237.88,349.19,239.56,347.52,240.52z"/>
									<path id="XMLID_564_" class="st11" d="M325.54,249.1c1.93,1.11,4.84,1.23,6.51,0.27l15.23-8.79
										c-0.2-0.16-0.41-0.32-0.66-0.47l-14.39-8.3c-1.93-1.11-4.84-1.23-6.51-0.27l-15.23,8.79c0.2,0.16,0.41,0.32,0.66,0.47
										L325.54,249.1z"/>
									<path id="XMLID_561_" class="st9" d="M329.37,250.31c-1.34,0-2.74-0.32-3.83-0.95l-14.39-8.3
										c-1.1-0.64-1.74-1.51-1.74-2.39c0-0.75,0.45-1.42,1.27-1.89l15.33-8.85c1.75-1.01,4.8-0.89,6.81,0.27l14.39,8.3
										c1.1,0.64,1.74,1.51,1.74,2.39c0,0.75-0.45,1.42-1.27,1.89l-15.33,8.85C331.55,250.09,330.48,250.31,329.37,250.31z
										 M328.98,227.83c-1.01,0-1.97,0.2-2.68,0.61l-15.33,8.85c-0.63,0.36-0.98,0.85-0.98,1.37c0,0.66,0.53,1.34,1.45,1.87
										l14.39,8.3c1.84,1.06,4.62,1.19,6.21,0.27l15.33-8.85c0.63-0.36,0.98-0.85,0.98-1.37c0-0.66-0.53-1.34-1.45-1.87
										l-14.39-8.3C331.5,228.13,330.21,227.83,328.98,227.83z"/>
								</g>
								<g id="XMLID_548_">
									<g id="XMLID_554_">
										<path id="XMLID_559_" class="st10" d="M343.92,234.89l-15.62-9.02c-0.72-0.41-1.37-0.44-1.89-0.14l-13.89,8.06
											c-0.02,0.01-0.03,0.04,0,0.06l20.4,15.18l13.87-8.05v-0.59C346.8,238.27,345.51,235.81,343.92,234.89z"/>
										<path id="XMLID_558_" class="st11" d="M344.16,237.2l-15.62-9.02c-0.72-0.41-1.37-0.44-1.89-0.14l-12.26,7.11l18.66,13.88
											l13.75-7.98C346.36,239.42,345.34,237.88,344.16,237.2z"/>
										<path id="XMLID_555_" class="st9" d="M332.9,249.38l-20.69-15.39l-0.01-0.19l0.01-0.16l0.16-0.11l13.89-8.06
											c0.62-0.36,1.39-0.31,2.18,0.14l15.62,9.02c1.67,0.96,3.02,3.54,3.02,5.75v0.76L332.9,249.38z M313.02,233.84l19.91,14.82
											l13.56-7.86v-0.42c0-2.01-1.22-4.35-2.72-5.23l-15.62-9.02c-0.6-0.35-1.15-0.4-1.58-0.14L313.02,233.84z"/>
									</g>
									<g id="XMLID_549_">
										<path id="XMLID_553_" class="st10" d="M332.92,249.02l-21.37-12.34v-0.59c0-2.11,1.28-3.09,2.87-2.17l15.62,9.02
											c1.59,0.92,2.87,3.37,2.87,5.49L332.92,249.02L332.92,249.02z"/>
										<path id="XMLID_550_" class="st9" d="M333.22,249.54l-21.97-12.69v-0.77c0-1.22,0.41-2.16,1.14-2.58
											c0.62-0.36,1.39-0.31,2.18,0.15l15.62,9.02c1.67,0.96,3.02,3.54,3.02,5.75L333.22,249.54L333.22,249.54z M311.85,236.51
											l20.77,11.99v-0.07c0-2.01-1.22-4.35-2.72-5.23l-15.62-9.02c-0.59-0.34-1.16-0.4-1.58-0.15
											c-0.54,0.31-0.84,1.06-0.84,2.07V236.51z"/>
									</g>
								</g>
							</g>
							<polygon id="XMLID_546_" class="st9" points="331.74,244.66 345.57,236.5 346.49,238.33 346.8,240.97 332.92,249.02 
								332.62,246.55 							"/>
							<polygon id="XMLID_545_" class="st9" points="329.42,250.02 329.42,255.23 331.38,254.94 348,245.37 348.64,244.24 
								348.47,239.46 347.52,240.52 332.2,249.37 330.33,249.96 							"/>
							<path id="XMLID_544_" class="st10" d="M332.34,254.88l14.18-8.18v-0.69l-14.47,8.36c-0.47,0.27-1.03,0.44-1.65,0.53v0.6
								C331.12,255.4,331.79,255.2,332.34,254.88z"/>
							<polygon id="XMLID_543_" class="st10" points="346.34,240.9 333.53,248.33 333.53,249.02 346.34,241.59 							"/>
							<g id="XMLID_538_">
								<path id="XMLID_542_" class="st10" d="M335.95,239.41l-1.48,0.85c-0.82,0.47-2.24,0.41-3.17-0.13l-8.18-4.72
									c-0.94-0.54-1.04-1.36-0.22-1.83l1.48-0.85c0.82-0.47,2.24-0.41,3.17,0.13l8.18,4.72
									C336.66,238.12,336.77,238.94,335.95,239.41z"/>
								<path id="XMLID_539_" class="st9" d="M333.32,239.08c-0.67,0-1.37-0.16-1.94-0.49l-8.18-4.72
									c-0.59-0.34-0.92-0.82-0.92-1.29c0-0.42,0.25-0.8,0.7-1.06l1.48-0.85c0.91-0.52,2.43-0.47,3.47,0.13l8.18,4.72
									c0.59,0.34,0.92,0.81,0.92,1.29c0,0.42-0.25,0.8-0.7,1.06l-1.48,0.85C334.43,238.97,333.89,239.08,333.32,239.08z
									 M325.98,230.91c-0.47,0-0.91,0.09-1.22,0.28l-1.48,0.85c-0.18,0.11-0.4,0.28-0.4,0.54c0,0.26,0.23,0.55,0.63,0.77
									l8.18,4.72c0.84,0.48,2.15,0.55,2.87,0.13l1.48-0.85c0.18-0.11,0.4-0.28,0.4-0.54c0-0.26-0.23-0.55-0.63-0.77l-8.18-4.72
									C327.16,231.05,326.55,230.91,325.98,230.91z"/>
							</g>
						</g>
						<polygon id="XMLID_536_" class="st10" points="345.14,260.78 344.6,260.23 344.15,263.79 344.68,264.37 						"/>
					</g>
					<g id="XMLID_463_">
						<g id="XMLID_469_">
							<g id="XMLID_479_">
								<g id="XMLID_514_">
									<g id="XMLID_530_">
										<path id="XMLID_534_" class="st9" d="M292.38,297.85c0-2.85-2-6.31-4.46-7.73c-1.27-0.74-2.43-0.78-3.24-0.25l0,0
											l-4.28,2.55l6.06,11.06l4.61-2.73c0.01,0,0.01-0.01,0.01-0.01l0.01-0.01l0,0C291.89,300.25,292.38,299.26,292.38,297.85z"
											/>
										<path id="XMLID_531_" class="st9" d="M286.34,303.88l-6.36-11.59l4.78-2.85l0.01,0.01c0.92-0.45,2.07-0.31,3.3,0.4
											c2.54,1.47,4.61,5.05,4.61,7.99c0,1.47-0.51,2.59-1.44,3.13L286.34,303.88z M280.79,292.51l5.77,10.54l4.35-2.57
											c0.76-0.45,1.17-1.38,1.17-2.63c0-2.75-1.94-6.1-4.32-7.47c-1.13-0.66-2.17-0.75-2.93-0.26l-0.25,0.16l-0.01-0.01
											L280.79,292.51z"/>
									</g>
									<g id="XMLID_525_">
										<path id="XMLID_529_" class="st10" d="M287.92,300.49c0,2.85-2,4-4.46,2.58c-2.47-1.43-4.46-4.88-4.46-7.73
											c0-2.85,2-4,4.46-2.58C285.92,294.19,287.92,297.65,287.92,300.49z"/>
										<path id="XMLID_526_" class="st9" d="M285.45,303.99c-0.66,0-1.39-0.22-2.15-0.66c-2.54-1.47-4.61-5.05-4.61-7.99
											c0-1.49,0.52-2.61,1.45-3.15c0.94-0.54,2.16-0.43,3.46,0.31c2.54,1.47,4.61,5.05,4.61,7.99c0,1.49-0.52,2.61-1.45,3.15
											C286.36,303.88,285.92,303.99,285.45,303.99z M281.46,292.45c-0.38,0-0.72,0.08-1.01,0.26c-0.75,0.43-1.16,1.36-1.16,2.63
											c0,2.75,1.94,6.11,4.32,7.47c1.1,0.64,2.11,0.75,2.86,0.31c0.75-0.43,1.16-1.36,1.16-2.63c0-2.75-1.94-6.1-4.32-7.47
											C282.65,292.65,282.02,292.45,281.46,292.45z"/>
									</g>
									<g id="XMLID_520_">
										<path id="XMLID_524_" class="st9" d="M285.67,299.2c0,1.42-1,1.98-2.22,1.28c-1.22-0.71-2.22-2.42-2.22-3.84
											c0-1.42,1-1.98,2.22-1.28C284.68,296.07,285.67,297.78,285.67,299.2z"/>
										<path id="XMLID_521_" class="st9" d="M284.44,301.09c-0.36,0-0.75-0.12-1.14-0.34c-1.33-0.76-2.37-2.57-2.37-4.1
											c0-0.8,0.29-1.4,0.8-1.7c0.51-0.3,1.18-0.24,1.87,0.15c1.33,0.76,2.37,2.57,2.37,4.1c0,0.8-0.29,1.4-0.8,1.7
											C284.95,301.02,284.7,301.09,284.44,301.09z M282.46,295.36c-0.16,0-0.31,0.04-0.43,0.11c-0.32,0.19-0.5,0.6-0.5,1.18
											c0,1.32,0.92,2.93,2.07,3.58c0.49,0.29,0.94,0.34,1.27,0.15c0.32-0.19,0.5-0.6,0.5-1.18c0-1.32-0.92-2.93-2.07-3.58
											C283,295.45,282.71,295.36,282.46,295.36z"/>
									</g>
									<g id="XMLID_515_">
										<path id="XMLID_519_" class="st10" d="M283.46,295.35c-0.31-0.18-0.59-0.27-0.86-0.3c-0.09,0.22-0.14,0.49-0.14,0.8
											c0,1.42,1,3.13,2.22,3.84c0.31,0.18,0.59,0.27,0.86,0.3c0.09-0.22,0.14-0.49,0.14-0.8
											C285.67,297.78,284.68,296.06,283.46,295.35z"/>
										<path id="XMLID_516_" class="st9" d="M285.72,300.31l-0.22-0.02c-0.31-0.03-0.65-0.14-0.98-0.33
											c-1.33-0.76-2.37-2.57-2.37-4.1c0-0.32,0.05-0.64,0.17-0.92l0.08-0.21l0.22,0.02c0.31,0.03,0.65,0.14,0.98,0.33l0,0
											c1.33,0.76,2.37,2.57,2.37,4.1c0,0.32-0.05,0.64-0.17,0.92L285.72,300.31z M282.8,295.39c-0.04,0.14-0.05,0.3-0.05,0.46
											c0,1.32,0.92,2.93,2.07,3.58c0.17,0.1,0.34,0.17,0.5,0.22c0.04-0.14,0.05-0.3,0.05-0.46c0-1.32-0.92-2.93-2.07-3.58l0,0
											C283.13,295.51,282.96,295.44,282.8,295.39z"/>
									</g>
								</g>
								<g id="XMLID_508_">
									<path id="XMLID_513_" class="st10" d="M282.75,263.02l0.29,27.31c0.51,0.11,1.05,0.32,1.61,0.65
										c2.94,1.71,5.34,5.84,5.34,9.25c0,0.51-0.06,0.97-0.16,1.38l3.63,2.09c1.73,1.01,4.35,1.11,5.86,0.24l2.73-1.58l0.48-3.49
										l4.51-2.6l2.86,1.57l3.22-1.87c0.64-0.37,0.86-0.84,1.01-1.37l0,0c0-0.03,0-0.04,0-0.07l4-31.29L282.75,263.02z"/>
									<path id="XMLID_512_" class="st9" d="M286.8,263.04l14.06,8.88l-4,31.29c0,0.03,0,0.04,0,0.07l0,0
										c-0.13,0.45-0.32,0.85-0.76,1.19c1.23,0.13,2.47-0.03,3.34-0.53l2.73-1.58l0.48-3.49l4.51-2.6l2.86,1.57l3.22-1.87
										c0.64-0.37,0.86-0.84,1.01-1.37l0,0c0-0.03,0-0.04,0-0.07l4-31.29L286.8,263.04z"/>
									<path id="XMLID_509_" class="st9" d="M296.77,304.82c-1.21,0-2.48-0.3-3.47-0.86l-3.82-2.21l0.05-0.22
										c0.1-0.41,0.15-0.85,0.15-1.31c0-3.3-2.33-7.34-5.19-8.99c-0.52-0.3-1.03-0.5-1.53-0.61l-0.23-0.05l-0.29-27.86h0.31
										l35.71,0.22l-4.05,31.74c-0.15,0.55-0.4,1.12-1.15,1.55l-3.38,1.95l-2.86-1.57l-4.24,2.44l-0.48,3.49l-2.86,1.65
										C298.75,304.62,297.78,304.82,296.77,304.82z M290.16,301.45l3.44,1.98c1.65,0.95,4.14,1.06,5.56,0.24l2.6-1.5l0.48-3.49
										l4.79-2.77l2.86,1.57l3.08-1.78c0.53-0.31,0.73-0.68,0.87-1.19l3.95-30.98l-34.73-0.22l0.28,26.77
										c0.48,0.13,0.97,0.33,1.46,0.62c3.03,1.75,5.49,6.02,5.49,9.51C290.28,300.65,290.24,301.06,290.16,301.45z"/>
								</g>
								<g id="XMLID_503_">
									<path id="XMLID_507_" class="st10" d="M312.51,275.5c-0.31-0.2-0.68-0.21-1-0.03l-5.88,3.47c-0.5,0.3-0.83,0.8-0.92,1.37
										l-2.47,18.26l0.01-0.04l4.73-2.68l2.87,1.55l0.41-0.22l2.66-20.78C312.97,276.04,312.81,275.7,312.51,275.5z"/>
									<g id="XMLID_504_">
										<path id="XMLID_506_" class="st9" d="M307.02,296.27l2.46-19.25l-3.7,2.18c-0.42,0.25-0.7,0.67-0.76,1.16l-2.5,18.51
											L307.02,296.27z"/>
										<path id="XMLID_505_" class="st10" d="M305.63,278.95c-0.5,0.3-0.83,0.8-0.92,1.37l-2.42,18.22l0.61-0.35l2.41-17.79
											c0.05-0.4,0.28-0.74,0.62-0.93l3.17-1.87L306.75,296l0.27-0.04l0.33,0.06l2.5-19.57L305.63,278.95z"/>
									</g>
								</g>
								<g id="XMLID_498_">
									<path id="XMLID_502_" class="st10" d="M319.9,261.2c0.01-0.08,0-0.11,0-0.19v-5.09c0-0.07-0.05-0.13-0.13-0.13l-10.62-0.75
										l-5.23-3.02c-1.93-1.11-4.84-1.23-6.51-0.27l-5.8,3.35l-10.54,0.47c-0.05,0-0.11,0.05-0.11,0.11v5.11
										c-0.01,0.08-0.01,0.15,0,0.23l0,0l0,0c0.05,0.71,0.58,1.44,1.59,2.01l14.39,8.3c1.93,1.11,4.84,1.23,6.51,0.27l15.33-8.84
										c0.7-0.4,1.07-0.93,1.11-1.5v0.03V261.2z"/>
									<path id="XMLID_499_" class="st9" d="M300.63,272.54c-1.34,0-2.74-0.32-3.83-0.95l-14.39-8.3
										c-1.06-0.61-1.67-1.41-1.73-2.25c-0.01-0.09-0.01-0.19,0-0.28v-5.09c0-0.22,0.17-0.4,0.4-0.41l10.47-0.46l5.74-3.31
										c1.75-1.01,4.8-0.89,6.81,0.27l5.16,2.98l10.55,0.75c0.23,0.02,0.4,0.21,0.4,0.44v5.09c0.01,0.07,0.01,0.12,0,0.22v0.05
										c-0.06,0.68-0.51,1.3-1.27,1.73l-15.33,8.85C302.81,272.32,301.74,272.54,300.63,272.54z M281.27,255.84v4.93
										c-0.01,0.08-0.01,0.14,0,0.21c0.04,0.63,0.57,1.27,1.44,1.78l14.39,8.3c1.84,1.06,4.62,1.19,6.21,0.27l15.33-8.84
										c0.58-0.33,0.92-0.76,0.97-1.24l0,0l0.01-0.08c0.01-0.05,0-0.08,0-0.13v-4.97l-10.6-0.78l-5.23-3.02
										c-1.84-1.06-4.62-1.19-6.21-0.27l-5.93,3.38L281.27,255.84z"/>
								</g>
								<g id="XMLID_492_">
									<path id="XMLID_497_" class="st10" d="M318.78,257.53l-15.33,8.84c-1.67,0.96-4.58,0.84-6.51-0.27l-14.39-8.3
										c-1.93-1.11-2.14-2.79-0.47-3.76l15.33-8.84c1.67-0.96,4.58-0.84,6.51,0.27l14.39,8.3
										C320.24,254.89,320.45,256.57,318.78,257.53z"/>
									<path id="XMLID_496_" class="st11" d="M296.8,266.12c1.93,1.11,4.84,1.23,6.51,0.27l15.23-8.79
										c-0.2-0.16-0.41-0.32-0.66-0.47l-14.39-8.3c-1.93-1.11-4.84-1.23-6.51-0.27l-15.23,8.79c0.2,0.16,0.41,0.32,0.66,0.47
										L296.8,266.12z"/>
									<path id="XMLID_493_" class="st9" d="M300.63,267.33c-1.34,0-2.74-0.32-3.83-0.95l-14.39-8.3
										c-1.1-0.64-1.74-1.51-1.74-2.39c0-0.75,0.45-1.42,1.27-1.89l15.33-8.85c1.75-1.01,4.8-0.89,6.81,0.27l14.39,8.3
										c1.1,0.64,1.74,1.51,1.74,2.39c0,0.75-0.45,1.42-1.27,1.89l-15.33,8.85C302.81,267.1,301.74,267.33,300.63,267.33z
										 M300.24,244.85c-1.01,0-1.97,0.2-2.68,0.61l-15.33,8.85c-0.63,0.36-0.98,0.85-0.98,1.37c0,0.66,0.53,1.34,1.45,1.87
										l14.39,8.3c1.84,1.06,4.62,1.19,6.21,0.27l15.33-8.85c0.63-0.36,0.98-0.85,0.98-1.37c0-0.66-0.53-1.34-1.45-1.87
										l-14.39-8.3C302.76,245.14,301.47,244.85,300.24,244.85z"/>
								</g>
								<g id="XMLID_480_">
									<g id="XMLID_486_">
										<path id="XMLID_491_" class="st10" d="M315.18,251.9l-15.62-9.02c-0.72-0.41-1.37-0.44-1.89-0.14l-13.89,8.06
											c-0.02,0.01-0.03,0.04,0,0.06l20.4,15.18l13.87-8.05v-0.59C318.06,255.27,316.77,252.82,315.18,251.9z"/>
										<path id="XMLID_490_" class="st11" d="M315.42,254.21l-15.62-9.02c-0.72-0.41-1.37-0.44-1.89-0.14l-12.26,7.11
											l18.66,13.88l13.75-7.98C317.62,256.44,316.6,254.89,315.42,254.21z"/>
										<path id="XMLID_487_" class="st9" d="M304.16,266.39L283.47,251l-0.01-0.19l0.01-0.16l0.16-0.11l13.89-8.06
											c0.62-0.36,1.39-0.31,2.18,0.14l15.62,9.02c1.67,0.96,3.02,3.54,3.02,5.75v0.76L304.16,266.39z M284.28,250.85
											l19.91,14.82l13.56-7.86v-0.42c0-2.01-1.22-4.35-2.72-5.23l-15.62-9.02c-0.6-0.35-1.15-0.4-1.58-0.14L284.28,250.85z"/>
									</g>
									<g id="XMLID_481_">
										<path id="XMLID_485_" class="st10" d="M304.18,266.04l-21.37-12.34v-0.59c0-2.11,1.28-3.09,2.87-2.17l15.62,9.02
											c1.59,0.92,2.87,3.37,2.87,5.49L304.18,266.04L304.18,266.04z"/>
										<path id="XMLID_482_" class="st9" d="M304.48,266.56l-21.97-12.69v-0.77c0-1.22,0.41-2.16,1.14-2.58
											c0.62-0.36,1.39-0.31,2.18,0.15l15.62,9.02c1.67,0.96,3.02,3.54,3.02,5.75L304.48,266.56L304.48,266.56z M283.11,253.53
											l20.77,11.99v-0.07c0-2.01-1.22-4.35-2.72-5.23l-15.62-9.02c-0.59-0.34-1.16-0.4-1.58-0.15
											c-0.54,0.31-0.84,1.06-0.84,2.07V253.53z"/>
									</g>
								</g>
							</g>
							<polygon id="XMLID_478_" class="st9" points="303,261.67 316.83,253.51 317.75,255.34 318.06,257.98 304.18,266.04 
								303.88,263.57 							"/>
							<polygon id="XMLID_477_" class="st9" points="300.68,267.03 300.68,272.25 302.64,271.95 319.26,262.38 319.9,261.25 
								319.73,256.47 318.78,257.53 303.46,266.39 301.59,266.98 							"/>
							<path id="XMLID_476_" class="st10" d="M303.6,271.9l14.18-8.18v-0.69l-14.47,8.36c-0.47,0.27-1.03,0.44-1.65,0.53v0.6
								C302.38,272.41,303.06,272.21,303.6,271.9z"/>
							<polygon id="XMLID_475_" class="st10" points="317.6,257.91 304.79,265.34 304.79,266.04 317.6,258.6 							"/>
							<g id="XMLID_470_">
								<path id="XMLID_474_" class="st10" d="M307.21,256.42l-1.48,0.85c-0.82,0.47-2.24,0.41-3.17-0.13l-8.18-4.72
									c-0.94-0.54-1.04-1.36-0.22-1.83l1.48-0.85c0.82-0.47,2.24-0.41,3.17,0.13l8.18,4.72
									C307.93,255.14,308.03,255.95,307.21,256.42z"/>
								<path id="XMLID_471_" class="st9" d="M304.58,256.1c-0.67,0-1.37-0.16-1.94-0.49l-8.18-4.72c-0.59-0.34-0.92-0.82-0.92-1.29
									c0-0.42,0.25-0.8,0.7-1.06l1.48-0.85c0.91-0.52,2.43-0.47,3.47,0.13l8.18,4.72c0.59,0.34,0.92,0.81,0.92,1.29
									c0,0.42-0.25,0.8-0.7,1.06l-1.48,0.85C305.69,255.97,305.15,256.1,304.58,256.1z M297.24,247.92
									c-0.47,0-0.91,0.09-1.22,0.28l-1.48,0.85c-0.18,0.11-0.4,0.28-0.4,0.54s0.23,0.55,0.63,0.77l8.18,4.72
									c0.84,0.48,2.15,0.55,2.87,0.13l1.48-0.85c0.18-0.11,0.4-0.28,0.4-0.54c0-0.26-0.23-0.55-0.63-0.77l-8.18-4.72
									C298.42,248.06,297.81,247.92,297.24,247.92z"/>
							</g>
						</g>
						<polygon id="XMLID_468_" class="st10" points="316.42,277.15 315.89,276.59 315.44,280.15 315.97,280.72 						"/>
						<g id="XMLID_464_">
							<path id="XMLID_465_" class="st9" d="M287.98,278.96c-0.19,0-0.38-0.05-0.57-0.17l-1.53-0.88c-0.68-0.4-1.22-1.41-1.22-2.31
								v-7.07c0-0.52,0.19-0.93,0.52-1.12c0.29-0.17,0.65-0.14,1,0.05l1.53,0.88c0.68,0.4,1.22,1.41,1.22,2.31v7.07
								c0,0.53-0.19,0.93-0.52,1.12C288.28,278.92,288.13,278.96,287.98,278.96z M285.61,267.9c-0.04,0-0.09,0.01-0.13,0.03
								c-0.13,0.08-0.22,0.31-0.22,0.61v7.07c0,0.68,0.42,1.5,0.92,1.79l1.53,0.88c0.09,0.05,0.27,0.13,0.4,0.05
								c0.13-0.08,0.22-0.31,0.22-0.61v-7.07c0-0.68-0.42-1.5-0.92-1.79l-1.53-0.88C285.82,267.95,285.71,267.9,285.61,267.9z"/>
						</g>
					</g>
				</g>
			</g>
			<g id="XMLID_164_">
				<g id="XMLID_165_">
					<g id="XMLID_415_">
						<g id="XMLID_456_">
							<polygon id="XMLID_460_" class="st10" points="307.33,206.76 294,199.04 310.26,196.87 312.17,200.02 							"/>
							<path id="XMLID_457_" class="st9" d="M307.03,207.41l-14.28-8.62l17.71-2.36l2.18,3.62L307.03,207.41z M295.25,199.29
								l11.72,7.25l4.7-6.55l-1.63-2.68L295.25,199.29z"/>
						</g>
						<g id="XMLID_437_">
							<g id="XMLID_454_">
								<path id="XMLID_455_" class="st10" d="M295.46,223.85c0,0-3.13,0.03-6.55-2.12c-3.4-2.14-5.14-3.21-6.14-4.47
									c-1.01-1.27,5.37-12.27,5.37-12.27l4.64-7.25c0,0,7.21,2.57,10.45,6.02c3.24,3.44-4.01,13.01-4.01,13.01L295.46,223.85z"/>
							</g>
							<g id="XMLID_450_">
								<path id="XMLID_451_" class="st9" d="M305.58,207.96c-0.23-1.99-0.97-3.51-2.1-4.42c-0.01-0.01-0.01-0.02-0.02-0.03
									c-3.26-3.46-10.27-5.99-10.57-6.09l-0.22-0.08l-4.78,7.47c-1.52,2.62-6.39,11.29-5.34,12.61c1.01,1.27,2.64,2.3,5.9,4.35
									l0.31,0.2c2.19,1.37,4.25,1.88,5.49,2.06c0.31,0.07,0.65,0.12,0.98,0.12c0.06,0,0.13-0.01,0.19-0.01c0.01,0,0.02,0,0.03,0
									c0.01,0,0.01,0,0.01,0h0.18l0.01-0.01c1.16-0.1,2.4-0.62,3.64-1.54C303.34,219.56,306.17,213,305.58,207.96z M288.76,221.27
									c-3.21-2.01-4.81-3.03-5.75-4.21c-0.54-0.68,2.38-6.72,5.39-11.92l4.52-7.06c1.07,0.4,5.66,2.21,8.74,4.62
									c-1.47-0.27-3.16,0.23-4.83,1.48c-4.07,3.03-6.9,9.59-6.3,14.63c0.22,1.8,0.83,3.21,1.79,4.14
									c-0.97-0.31-2.08-0.77-3.22-1.49L288.76,221.27z"/>
							</g>
							<g id="XMLID_445_">
								<g id="XMLID_446_">
									<path id="XMLID_447_" class="st10" d="M296.02,221.22c-0.43,0-0.85-0.08-1.24-0.25c-1.23-0.53-2.02-1.83-2.24-3.66
										c-0.43-3.65,1.62-8.4,4.56-10.59c1.48-1.1,2.97-1.42,4.2-0.89c1.23,0.53,2.02,1.83,2.24,3.66
										c0.43,3.65-1.62,8.4-4.56,10.59C297.97,220.83,296.96,221.22,296.02,221.22z M300.07,206.18c-0.8,0-1.7,0.34-2.6,1.01
										c-2.79,2.08-4.73,6.58-4.33,10.04c0.19,1.61,0.85,2.74,1.88,3.18c1.02,0.44,2.3,0.15,3.6-0.82
										c2.79-2.08,4.73-6.58,4.33-10.04c-0.19-1.61-0.85-2.74-1.88-3.18C300.76,206.24,300.42,206.18,300.07,206.18z"/>
								</g>
							</g>
							<g id="XMLID_440_">
								<g id="XMLID_441_">
									<path id="XMLID_442_" class="st10" d="M296.02,221.21c-0.69,0-1.33-0.21-1.88-0.63l-0.53-0.49l0.69-0.04
										c0.76-0.04,1.6-0.4,2.42-1.01c2.79-2.08,4.73-6.58,4.33-10.04c-0.15-1.3-0.63-2.3-1.36-2.86l-0.56-0.43l0.73-0.12
										c2-0.12,3.4,1.36,3.7,3.91c0.43,3.65-1.62,8.4-4.56,10.59C297.98,220.83,296.95,221.21,296.02,221.21z M295.23,220.48
										c0.98,0.32,2.17,0.02,3.39-0.89c2.79-2.08,4.73-6.58,4.33-10.04l0,0c-0.22-1.82-1.07-3.03-2.29-3.31
										c0.52,0.66,0.86,1.58,0.99,2.68c0.43,3.65-1.62,8.4-4.56,10.59C296.46,219.97,295.84,220.3,295.23,220.48z"/>
								</g>
							</g>
							<g id="XMLID_438_">
								<path id="XMLID_439_" class="st11" d="M300.77,211.99c0.2,1.71-0.75,3.92-2.14,4.95c-1.38,1.02-2.66,0.48-2.86-1.23
									c-0.2-1.71,0.75-3.92,2.14-4.95C299.28,209.74,300.57,210.29,300.77,211.99z"/>
							</g>
						</g>
						<g id="XMLID_425_">
							<g id="XMLID_431_">
								<polygon id="XMLID_436_" class="st10" points="328.55,182.13 217.89,245.65 162.25,213.64 272.91,150.13 								"/>
								<polygon id="XMLID_435_" class="st11" points="328.73,185.98 305.41,199.44 302.26,198.84 292.49,204.29 288.63,209.14 
									218.08,249.49 162.43,217.48 273.09,153.97 								"/>
								<path id="XMLID_432_" class="st9" d="M217.89,246.12l-56.46-32.48l0.62-0.36l110.87-63.63l0.21,0.12l55.85,32.12
									L217.89,246.12z M163.07,213.64l54.82,31.53l109.84-63.03l-54.82-31.53L163.07,213.64z"/>
							</g>
							<g id="XMLID_426_">
								<path id="XMLID_430_" class="st9" d="M328.55,182.13l-104.13,59.73v8.57l47.81-27.42l5.13,1.18l9.41-5.45l1.66-5.13
									c1.17-4.04,3.81-8.92,9.61-12.26c4.79-2.77,7.27-0.92,8.57,1.66l0.71,3.73l10.15-5.96l3.99-6.44l7.08-4.05v-8.16H328.55z"/>
								<path id="XMLID_427_" class="st9" d="M224.01,251.17v-9.53l0.21-0.12l104.74-59.62v8.65l-7.2,4.12l-3.99,6.44l-10.75,6.3
									l-0.81-4.25c-0.71-1.38-1.63-2.25-2.77-2.59c-1.4-0.42-3.15-0.04-5.21,1.15c-5.89,3.4-8.38,8.41-9.42,12.02l-1.71,5.29
									l-9.69,5.61l-5.13-1.18L224.01,251.17z M224.84,242.11v7.62l47.33-27.14l5.13,1.18l9.14-5.29l1.62-4.97
									c1.09-3.74,3.66-8.96,9.8-12.5c2.25-1.3,4.23-1.71,5.85-1.23c1.36,0.41,2.48,1.45,3.29,3.06l0.04,0.11l0.6,3.16l9.56-5.61
									l4-6.44l6.97-3.99v-7.22L224.84,242.11z"/>
							</g>
						</g>
						<g id="XMLID_420_">
							<path id="XMLID_424_" class="st10" d="M328.55,188.13l-5.9,3.4c-0.66,0.38-1.48-0.1-1.48-0.86v-0.75
								c0-0.8,0.43-1.54,1.12-1.95l6.26-3.61V188.13z"/>
							<path id="XMLID_421_" class="st9" d="M322.16,192.08c-0.24,0-0.48-0.06-0.7-0.19c-0.44-0.25-0.7-0.71-0.7-1.21v-0.75
								c0-0.95,0.51-1.83,1.33-2.31l6.88-3.97v4.71l-6.11,3.53C322.64,192.02,322.4,192.08,322.16,192.08z M328.14,185.09
								l-5.64,3.26c-0.57,0.32-0.92,0.93-0.92,1.59v0.75c0,0.21,0.11,0.4,0.29,0.5c0.18,0.11,0.4,0.11,0.57,0l5.69-3.29
								L328.14,185.09L328.14,185.09z"/>
						</g>
						<g id="XMLID_416_">
							<path id="XMLID_417_" class="st10" d="M278.37,220.8c-0.17,0-0.33-0.04-0.48-0.13c-0.37-0.22-0.58-0.66-0.58-1.24v-0.41
								c0-0.94,0.57-2.02,1.29-2.43l3.82-2.21c0.39-0.22,0.8-0.24,1.12-0.05c0.37,0.22,0.58,0.66,0.58,1.24v0.41
								c0,0.95-0.57,2.02-1.29,2.43l-3.82,2.21C278.8,220.74,278.58,220.8,278.37,220.8z M283.07,215.01
								c-0.08,0-0.18,0.05-0.22,0.07l-3.82,2.21c-0.47,0.27-0.88,1.08-0.88,1.72v0.41c0,0.31,0.09,0.48,0.17,0.52
								c0.09,0.05,0.24-0.03,0.3-0.05l3.82-2.21c0.47-0.27,0.88-1.08,0.88-1.72v-0.41c0-0.31-0.09-0.48-0.17-0.52
								C283.12,215.02,283.1,215.01,283.07,215.01z"/>
						</g>
					</g>
					<g id="XMLID_303_">
						<polygon id="XMLID_414_" class="st9" points="316.42,185.16 229.85,235.14 229.85,169.61 316.42,119.63 341.68,138.91 
							341.68,165.41 						"/>
						<g id="XMLID_386_">
							<g id="XMLID_405_">
								<g id="XMLID_410_">
									<path id="XMLID_411_" class="st10" d="M274.96,196.67l-6.77-3.85l6.77-11.67v4.07l7.84-4.53c1.19-0.68,1.91-1.4,2.05-1.55
										l0.21-0.22l0.53,0.33l-0.12,0.31l-2.92,7.35c-0.48,1.23-1.36,2.3-2.33,2.86l-5.26,3.04L274.96,196.67L274.96,196.67z
										 M269.19,192.54l5.03,2.86v-3.03l5.63-3.25c0.82-0.48,1.59-1.43,2.01-2.5l2.39-6.03c-0.31,0.22-0.67,0.48-1.1,0.72
										l-8.94,5.16v-2.61L269.19,192.54z"/>
								</g>
								<g id="XMLID_406_">
									<path id="XMLID_407_" class="st10" d="M278.52,182.57l-3.65-5.14l5.52-6.88l4.53,6.29c0.19,0.26,0.24,0.63,0.15,1.04
										c-0.13,0.62-0.54,1.21-1.04,1.5L278.52,182.57z M275.79,177.46l2.94,4.15l4.94-2.86c0.31-0.18,0.6-0.6,0.69-1.01
										c0.04-0.2,0.04-0.38-0.03-0.46l-3.97-5.51L275.79,177.46z"/>
								</g>
							</g>
							<g id="XMLID_396_">
								<g id="XMLID_401_">
									<path id="XMLID_402_" class="st10" d="M255.54,202.36l-0.15-0.22l-2.74-4.21c-0.49-0.76-0.49-1.98,0.01-3.24l2.6-6.57
										l-2.92-0.31l9.13-8.01l2.3,9.24l-2.73-0.3l-4.17,10.54c-0.61,1.54-0.75,2.5-0.78,2.68l-0.03,0.25L255.54,202.36z
										 M254.09,187.25l2.21,0.23l-2.95,7.47c-0.41,1.03-0.44,2.02-0.08,2.57l2.26,3.48c0.13-0.49,0.32-1.17,0.66-2l4.38-11.06
										l2.24,0.24l-1.76-7.05L254.09,187.25z"/>
								</g>
								<g id="XMLID_397_">
									<path id="XMLID_398_" class="st10" d="M257.5,202.25c-0.2,0-0.39-0.06-0.54-0.2c-0.36-0.31-0.43-0.91-0.17-1.55l2.71-6.85
										l7.23-4.1l-0.07,7.62l-8.57,4.91C257.89,202.2,257.69,202.25,257.5,202.25z M260.09,194.16l-2.62,6.62
										c-0.17,0.42-0.09,0.67-0.03,0.73c0.04,0.04,0.15,0.01,0.28-0.05l8.22-4.7l0.05-5.93L260.09,194.16z"/>
								</g>
							</g>
							<g id="XMLID_387_">
								<g id="XMLID_392_">
									<path id="XMLID_393_" class="st10" d="M267.71,175.48l3.01-3.82l-4.17-5.58c-0.57-0.75-1.1-0.95-1.19-0.98l-0.23-0.08
										l-0.05-0.48l0.22-0.15l5.72-3.35c1.06-0.62,2.08-0.52,2.66,0.25l2.52,3.38l3.18-4.05l-2.29,12.17L267.71,175.48z
										 M266.19,164.72c0.28,0.19,0.61,0.48,0.94,0.92l4.5,6.02l-1.95,2.49l6.76-1.94l1.65-8.77l-1.92,2.44l-3.1-4.15
										c-0.34-0.46-0.98-0.48-1.7-0.05L266.19,164.72z"/>
								</g>
								<g id="XMLID_388_">
									<path id="XMLID_389_" class="st10" d="M265.09,178.51l-5.87-0.35l4.17-11.29c0.26-0.72,0.84-1.27,1.4-1.36
										c0.31-0.04,0.61,0.07,0.8,0.31l2.82,3.77L265.09,178.51z M260.25,177.49l4.35,0.26l2.99-8.02l-2.58-3.46
										c-0.02-0.02-0.04-0.04-0.1-0.04c-0.25,0.04-0.64,0.39-0.82,0.88L260.25,177.49z"/>
								</g>
							</g>
						</g>
						<g id="XMLID_382_">
							<path id="XMLID_383_" class="st10" d="M235.16,226.54V171.6l80.31-46.45l21.55,15.45v23.03l-0.14,0.11l-20.91,16.14
								L235.16,226.54z M235.9,172.03v53.24l79.66-46l20.72-16.01v-22.29l-20.86-14.96L235.9,172.03z"/>
						</g>
						<polygon id="XMLID_381_" class="st10" points="229.85,169.61 181.67,141.66 181.67,207.19 229.85,235.14 						"/>
						<g id="XMLID_373_">
							<polygon id="XMLID_380_" class="st10" points="268.24,91.68 316.42,119.63 229.85,169.61 181.67,141.66 							"/>
							<polygon id="XMLID_379_" class="st11" points="185.34,143.8 229.85,169.61 312.74,121.74 268.24,95.93 							"/>
							<path id="XMLID_374_" class="st9" d="M316.63,119.32l-0.17-0.13l-48.21-27.93l-86.57,49.98l-0.37,0.22v0.42v65.53
								l48.19,27.95l0.37,0.22l0.37-0.22l86.39-49.87l25.3-19.78l0.14-0.11v-26.85L316.63,119.32z M182.4,141.66l85.84-49.56
								l47.45,27.53l-85.84,49.56L200.4,152.1L182.4,141.66z M182.04,206.98V142.3l47.45,27.53v64.69L182.04,206.98z M341.31,165.23
								l-25.09,19.63l-86,49.65v-64.68l86.17-49.76l24.91,19.03L341.31,165.23L341.31,165.23z"/>
						</g>
						<g id="XMLID_368_">
							<polygon id="XMLID_372_" class="st9" points="308.14,193.25 300.53,197.64 300.53,128.78 308.14,124.39 							"/>
							<path id="XMLID_369_" class="st9" d="M300.16,198.28v-69.71l8.34-4.81v69.71L300.16,198.28z M300.9,128.99V197l6.87-3.97v-68
								L300.9,128.99z"/>
						</g>
						<polygon id="XMLID_367_" class="st10" points="245.24,97.62 300.53,128.78 308.14,124.39 252.85,93.23 						"/>
						<polygon id="XMLID_366_" class="st11" points="245.43,100.8 300.72,131.96 300.53,128.78 305.46,125.96 253.04,96.41 						
							"/>
						<g id="XMLID_360_">
							<polygon id="XMLID_365_" class="st10" points="245.24,104.96 245.24,97.62 300.53,128.78 300.53,197.64 297.67,195.94 
								297.67,130.45 248.67,102.98 							"/>
							<path id="XMLID_361_" class="st9" d="M308.87,124.38l-56.03-31.58l-7.6,4.39l-0.36,0.22v0.42v7.76l3.8-2.19l48.63,27.28
								v65.48l3.6,2.14V129L308.87,124.38z M245.99,97.62l6.87-3.96l54.54,30.74l-6.87,3.97l-10.01-5.65L245.99,97.62z
								 M300.16,196.99l-2.13-1.27v-65.49l-49.36-27.69l-3.06,1.77v-6.07l44.38,25.01l10.18,5.74L300.16,196.99L300.16,196.99z"/>
						</g>
						<polygon id="XMLID_359_" class="st10" points="229.16,157.11 198.02,139.29 211.19,131.68 242.33,149.51 						"/>
						<polygon id="XMLID_358_" class="st11" points="229.16,160.64 198.02,142.83 211.19,135.22 242.33,153.03 						"/>
						<polygon id="XMLID_357_" class="st10" points="198.02,139.29 198.02,142.83 229.16,160.64 229.16,157.11 						"/>
						<path id="XMLID_353_" class="st9" d="M242.33,149.08l-30.97-17.71l-0.18-0.11l-13.17,7.6l-0.37,0.22v0.42v3.53l31.15,17.82
							l0.37,0.21l0.37-0.22l13.17-7.6v-3.53v-0.42L242.33,149.08z M228.8,160.01l-30.42-17.4v-2.68l30.42,17.4V160.01z
							 M198.75,139.29l12.43-7.18l30.41,17.4l-12.43,7.18L198.75,139.29z"/>
						<g id="XMLID_351_">
							<polygon id="XMLID_352_" class="st10" points="308.5,188.7 307.77,189.1 307.77,125.99 308.5,125.6 							"/>
						</g>
						<g id="XMLID_349_">
							<polygon id="XMLID_350_" class="st10" points="301.22,197.46 301.22,196.6 307.45,193.04 307.45,193.9 							"/>
						</g>
						<g id="XMLID_310_">
							<g id="XMLID_332_">
								<path id="XMLID_347_" class="st11" d="M190.05,162.81c0.33-0.24,0.8-0.3,1.34-0.08c0.24,0.09,0.38,0.34,0.38,0.62v0.03
									c0,0.28-0.13,0.32-0.36,0.24c-0.75-0.3-1.36-0.03-1.36,1.01v2.8c0,0.28-0.13,0.35-0.37,0.22l-0.04-0.02
									c-0.24-0.14-0.37-0.36-0.37-0.64v-5c0-0.28,0.13-0.35,0.37-0.22l0.04,0.02c0.24,0.14,0.37,0.36,0.37,0.64L190.05,162.81
									L190.05,162.81z"/>
								<path id="XMLID_344_" class="st11" d="M197.65,169.54c0,0.14-0.13,0.14-0.37,0l-4.04-2.33c0.16,1.06,0.89,2.28,1.79,2.8
									c0.48,0.28,0.91,0.3,1.22,0.13c0.13-0.08,0.26-0.09,0.46,0.03l0.15,0.09c0.3,0.17,0.44,0.49,0.25,0.66
									c-0.48,0.44-1.24,0.45-2.08-0.04c-1.44-0.83-2.62-2.94-2.62-4.57c0-1.66,1.19-2.34,2.62-1.52c1.44,0.83,2.62,2.88,2.62,4.54
									L197.65,169.54L197.65,169.54z M193.24,166.35l3.56,2.06c-0.17-1.07-0.89-2.23-1.79-2.75
									C194.12,165.15,193.41,165.48,193.24,166.35z"/>
								<path id="XMLID_342_" class="st11" d="M202.96,171.37c-0.2-0.12-0.32-0.28-0.45-0.54c-0.32-0.69-0.84-1.32-1.44-1.67
									c-1.02-0.59-1.82-0.08-1.82,1.1c0,1.16,0.8,2.64,1.82,3.23c0.6,0.34,1.11,0.3,1.44-0.04c0.13-0.12,0.25-0.13,0.45-0.02
									l0.12,0.06c0.28,0.16,0.41,0.45,0.28,0.66c-0.45,0.65-1.31,0.75-2.28,0.2c-1.44-0.83-2.62-2.94-2.62-4.57
									c0-1.66,1.19-2.34,2.62-1.52c0.95,0.56,1.8,1.63,2.25,2.79c0.15,0.38,0.01,0.51-0.28,0.34L202.96,171.37z"/>
								<path id="XMLID_340_" class="st11" d="M205.88,179.35c-0.09,0.16-0.23,0.17-0.44,0.05l-0.13-0.07
									c-0.29-0.17-0.4-0.44-0.26-0.66l1.22-2.11l-2.03-5.84c-0.13-0.37-0.03-0.52,0.26-0.35l0.13,0.07
									c0.21,0.12,0.35,0.3,0.44,0.56l1.64,4.78l1.66-2.87c0.09-0.16,0.23-0.17,0.44-0.05l0.13,0.07c0.29,0.17,0.4,0.44,0.26,0.66
									L205.88,179.35z"/>
								<path id="XMLID_338_" class="st11" d="M214.34,177.93c-0.2-0.12-0.32-0.28-0.45-0.54c-0.32-0.69-0.84-1.32-1.44-1.67
									c-1.02-0.59-1.82-0.08-1.82,1.1c0,1.16,0.79,2.64,1.82,3.23c0.6,0.35,1.11,0.3,1.44-0.04c0.13-0.12,0.25-0.13,0.45-0.02
									l0.12,0.06c0.28,0.16,0.41,0.45,0.28,0.66c-0.45,0.65-1.31,0.75-2.28,0.2c-1.44-0.83-2.62-2.94-2.62-4.57
									c0-1.66,1.19-2.34,2.62-1.52c0.95,0.56,1.8,1.63,2.25,2.79c0.15,0.38,0.01,0.51-0.28,0.35L214.34,177.93z"/>
								<path id="XMLID_336_" class="st11" d="M216.45,183.1c-0.24-0.14-0.37-0.36-0.37-0.64v-8.64c0-0.28,0.13-0.35,0.37-0.22
									l0.04,0.02c0.24,0.14,0.37,0.36,0.37,0.64v8.64c0,0.28-0.13,0.35-0.37,0.22L216.45,183.1z"/>
								<path id="XMLID_333_" class="st11" d="M223.25,184.31c0,0.14-0.13,0.14-0.37,0l-4.04-2.33c0.16,1.06,0.89,2.28,1.79,2.8
									c0.48,0.28,0.91,0.3,1.22,0.13c0.13-0.08,0.26-0.09,0.46,0.03l0.15,0.09c0.3,0.17,0.44,0.49,0.25,0.66
									c-0.48,0.44-1.24,0.45-2.08-0.04c-1.44-0.83-2.62-2.94-2.62-4.57c0-1.66,1.19-2.34,2.62-1.52c1.44,0.83,2.62,2.88,2.62,4.54
									L223.25,184.31L223.25,184.31z M218.84,181.14l3.56,2.06c-0.17-1.07-0.89-2.23-1.79-2.75
									C219.72,179.92,219.02,180.27,218.84,181.14z"/>
							</g>
							<g id="XMLID_311_">
								<path id="XMLID_330_" class="st9" d="M189.25,161.94c0.33-0.24,0.8-0.3,1.34-0.08c0.24,0.09,0.38,0.34,0.38,0.62v0.03
									c0,0.28-0.13,0.32-0.36,0.24c-0.75-0.3-1.36-0.03-1.36,1.01v2.8c0,0.28-0.13,0.35-0.37,0.22l-0.04-0.02
									c-0.24-0.14-0.37-0.36-0.37-0.64v-5c0-0.28,0.13-0.35,0.37-0.22l0.04,0.02c0.24,0.14,0.37,0.36,0.37,0.64L189.25,161.94
									L189.25,161.94z"/>
								<path id="XMLID_327_" class="st9" d="M196.84,168.67c0,0.14-0.13,0.14-0.37,0l-4.04-2.33c0.16,1.06,0.89,2.28,1.79,2.8
									c0.48,0.28,0.91,0.3,1.22,0.13c0.13-0.08,0.26-0.09,0.46,0.03l0.15,0.09c0.3,0.17,0.44,0.49,0.25,0.66
									c-0.48,0.44-1.24,0.45-2.08-0.04c-1.44-0.83-2.62-2.94-2.62-4.57c0-1.66,1.19-2.34,2.62-1.52c1.44,0.83,2.62,2.88,2.62,4.54
									L196.84,168.67L196.84,168.67z M192.43,165.49l3.56,2.06c-0.17-1.07-0.89-2.23-1.79-2.75
									C193.32,164.28,192.6,164.62,192.43,165.49z"/>
								<path id="XMLID_321_" class="st9" d="M202.16,170.51c-0.2-0.12-0.32-0.28-0.45-0.54c-0.32-0.69-0.84-1.32-1.44-1.67
									c-1.02-0.59-1.82-0.08-1.82,1.1c0,1.16,0.8,2.64,1.82,3.23c0.6,0.34,1.11,0.3,1.44-0.04c0.13-0.12,0.25-0.13,0.45-0.02
									l0.12,0.06c0.28,0.16,0.41,0.45,0.28,0.66c-0.45,0.65-1.31,0.75-2.28,0.2c-1.44-0.83-2.62-2.94-2.62-4.57
									c0-1.66,1.19-2.34,2.62-1.52c0.95,0.56,1.8,1.63,2.25,2.79c0.15,0.38,0.01,0.51-0.28,0.34L202.16,170.51z"/>
								<path id="XMLID_319_" class="st9" d="M205.07,178.49c-0.09,0.16-0.23,0.17-0.44,0.05l-0.13-0.07
									c-0.29-0.17-0.4-0.44-0.26-0.66l1.22-2.11l-2.03-5.84c-0.13-0.37-0.03-0.52,0.26-0.35l0.13,0.07
									c0.21,0.12,0.35,0.3,0.44,0.56l1.64,4.78l1.66-2.87c0.09-0.16,0.23-0.17,0.44-0.05l0.13,0.07c0.29,0.17,0.4,0.44,0.26,0.66
									L205.07,178.49z"/>
								<path id="XMLID_317_" class="st9" d="M213.53,177.07c-0.2-0.12-0.32-0.28-0.45-0.54c-0.32-0.69-0.84-1.32-1.44-1.67
									c-1.02-0.59-1.82-0.08-1.82,1.1c0,1.16,0.79,2.64,1.82,3.23c0.6,0.35,1.11,0.3,1.44-0.04c0.13-0.12,0.25-0.13,0.45-0.02
									l0.12,0.06c0.28,0.16,0.41,0.45,0.28,0.66c-0.45,0.65-1.31,0.75-2.28,0.2c-1.44-0.83-2.62-2.94-2.62-4.57
									c0-1.66,1.19-2.34,2.62-1.52c0.95,0.56,1.8,1.63,2.25,2.79c0.15,0.38,0.01,0.51-0.28,0.35L213.53,177.07z"/>
								<path id="XMLID_315_" class="st9" d="M215.64,182.23c-0.24-0.14-0.37-0.36-0.37-0.64v-8.64c0-0.28,0.13-0.35,0.37-0.22
									l0.04,0.02c0.24,0.14,0.37,0.36,0.37,0.64v8.64c0,0.28-0.13,0.35-0.37,0.22L215.64,182.23z"/>
								<path id="XMLID_312_" class="st9" d="M222.45,183.45c0,0.14-0.13,0.14-0.37,0l-4.04-2.33c0.16,1.06,0.89,2.28,1.79,2.8
									c0.48,0.28,0.91,0.3,1.22,0.13c0.13-0.08,0.26-0.09,0.46,0.03l0.15,0.09c0.3,0.17,0.44,0.49,0.25,0.66
									c-0.48,0.44-1.24,0.45-2.08-0.04c-1.44-0.83-2.62-2.94-2.62-4.57c0-1.66,1.19-2.34,2.62-1.52c1.44,0.83,2.62,2.88,2.62,4.54
									L222.45,183.45L222.45,183.45z M218.04,180.27l3.56,2.06c-0.17-1.07-0.89-2.23-1.79-2.75
									C218.92,179.05,218.21,179.39,218.04,180.27z"/>
							</g>
						</g>
						<g id="XMLID_306_">
							<path id="XMLID_307_" class="st9" d="M227.13,147.38c-1.06,0-2.16-0.26-3.04-0.77l-8.39-4.84c-0.91-0.52-1.43-1.24-1.43-1.98
								c0-0.63,0.38-1.19,1.06-1.59l3.66-2.12c0.22-0.13,0.48-0.13,0.68,0l14.2,8.21l-4.37,2.52
								C228.88,147.19,228.02,147.38,227.13,147.38z M219.32,136.72l-3.61,2.12c-0.31,0.18-0.69,0.49-0.69,0.95
								c0,0.46,0.39,0.95,1.06,1.34l8.39,4.84c1.37,0.79,3.53,0.89,4.7,0.21l3.28-1.89L219.32,136.72z"/>
						</g>
						<g id="XMLID_304_">
							<polygon id="XMLID_305_" class="st10" points="334.25,165.49 333.46,166.08 333.46,138.33 334.25,138.97 							"/>
						</g>
					</g>
					<g id="XMLID_166_">
						<g id="XMLID_176_">
							<g id="XMLID_182_">
								<g id="XMLID_189_">
									<g id="XMLID_298_">
										<polygon id="XMLID_302_" class="st10" points="204.91,264.76 186.15,253.51 207.68,250.73 207.68,261.37 										"/>
										<path id="XMLID_299_" class="st9" d="M205,265.29l-20.08-12.04l23.17-3v11.26L205,265.29z M187.38,253.76l17.44,10.45
											l2.45-3v-10.03L187.38,253.76z"/>
									</g>
									<g id="XMLID_279_">
										<g id="XMLID_296_">
											<path id="XMLID_297_" class="st10" d="M191.96,279.57c0,0-3.13,0.03-6.55-2.12c-3.4-2.14-5.14-3.21-6.14-4.47
												c-1.01-1.27,5.37-12.27,5.37-12.27l4.64-7.25c0,0,7.21,2.57,10.45,6.02c3.24,3.44-4.01,13.01-4.01,13.01L191.96,279.57z"
												/>
										</g>
										<g id="XMLID_292_">
											<path id="XMLID_293_" class="st9" d="M202.08,263.69c-0.23-1.99-0.97-3.51-2.1-4.42c-0.01-0.01-0.01-0.02-0.02-0.03
												c-3.26-3.46-10.27-5.99-10.57-6.09l-0.22-0.08l-4.78,7.47c-1.52,2.62-6.39,11.29-5.34,12.61c1.01,1.27,2.64,2.3,5.9,4.35
												l0.31,0.2c2.19,1.37,4.25,1.88,5.49,2.06c0.31,0.07,0.65,0.12,0.98,0.12c0.06,0,0.13-0.01,0.19-0.01
												c0.01,0,0.02,0,0.03,0s0.01,0,0.01,0h0.18l0.01-0.01c1.16-0.1,2.4-0.62,3.64-1.54
												C199.84,275.29,202.67,268.73,202.08,263.69z M185.26,277c-3.21-2.01-4.81-3.03-5.75-4.21
												c-0.54-0.68,2.38-6.72,5.39-11.92l4.52-7.06c1.07,0.4,5.66,2.21,8.74,4.62c-1.47-0.27-3.16,0.23-4.83,1.48
												c-4.07,3.03-6.9,9.59-6.3,14.63c0.22,1.8,0.83,3.21,1.79,4.14c-0.97-0.31-2.08-0.77-3.22-1.49L185.26,277z"/>
										</g>
										<g id="XMLID_287_">
											<g id="XMLID_288_">
												<path id="XMLID_289_" class="st10" d="M192.52,276.93c-0.43,0-0.85-0.08-1.24-0.25c-1.23-0.53-2.02-1.83-2.24-3.66
													c-0.43-3.65,1.62-8.4,4.56-10.59c1.48-1.1,2.97-1.42,4.2-0.89s2.02,1.83,2.24,3.66c0.43,3.65-1.62,8.4-4.56,10.59
													C194.47,276.55,193.46,276.93,192.52,276.93z M196.57,261.9c-0.8,0-1.7,0.34-2.6,1.01c-2.79,2.08-4.73,6.58-4.33,10.04
													c0.19,1.61,0.85,2.74,1.88,3.18c1.02,0.44,2.3,0.15,3.6-0.82c2.79-2.08,4.73-6.58,4.33-10.04
													c-0.19-1.61-0.85-2.74-1.88-3.18C197.25,261.97,196.92,261.9,196.57,261.9z"/>
											</g>
										</g>
										<g id="XMLID_282_">
											<g id="XMLID_283_">
												<path id="XMLID_284_" class="st10" d="M192.51,276.93c-0.69,0-1.33-0.21-1.88-0.63l-0.53-0.49l0.69-0.04
													c0.76-0.04,1.6-0.4,2.42-1.01c2.79-2.08,4.73-6.58,4.33-10.04c-0.15-1.3-0.63-2.3-1.36-2.86l-0.56-0.43l0.73-0.12
													c2-0.13,3.4,1.36,3.7,3.91c0.43,3.65-1.62,8.4-4.56,10.59C194.48,276.55,193.45,276.93,192.51,276.93z M191.72,276.2
													c0.98,0.32,2.17,0.03,3.39-0.89c2.79-2.08,4.73-6.58,4.33-10.04l0,0c-0.22-1.82-1.06-3.03-2.29-3.31
													c0.52,0.66,0.86,1.58,0.99,2.68c0.43,3.65-1.62,8.4-4.56,10.59C192.97,275.7,192.33,276.02,191.72,276.2z"/>
											</g>
										</g>
										<g id="XMLID_280_">
											<path id="XMLID_281_" class="st11" d="M197.26,267.72c0.2,1.71-0.75,3.92-2.14,4.95s-2.66,0.48-2.86-1.23
												s0.75-3.92,2.14-4.95C195.78,265.46,197.07,266.02,197.26,267.72z"/>
										</g>
									</g>
									<g id="XMLID_273_">
										<path id="XMLID_278_" class="st10" d="M176.85,174.36c-0.05-0.04-0.1-0.06-0.15-0.09l0,0l-0.09-0.04
											c-0.48-0.19-1.08-0.13-1.74,0.26l-17.65,10.19c-1.33,0.76-2.56,2.25-3.29,3.95l-10.71,22.59
											c-0.49,1.17-1.24,2.24-2.1,3.06l-14.31,12.73c-1.36,1.27-2.28,3.26-2.28,4.9v19.39c0,1.78,1.25,2.5,2.78,1.61l1.63-0.94
											l42.43,24.37l7.38-2.44l7.4-20.4l37.32-52.52L176.85,174.36z"/>
										<path id="XMLID_277_" class="st11" d="M176.85,178.95c-0.05-0.04-0.1-0.06-0.15-0.09l0,0l-0.09-0.04
											c-0.48-0.19-1.08-0.13-1.74,0.26l-17.65,10.19c-1.33,0.76-2.56,2.25-3.29,3.95l-10.71,22.59
											c-0.49,1.17-1.24,2.24-2.1,3.06L126.8,231.6c-1.36,1.27-2.28,3.26-2.28,4.9v19.39c0,1.78,1.25,2.5,2.78,1.61l1.63-0.94
											l42.43,24.37l7.38-2.44l7.4-20.4l37.32-52.52L176.85,178.95z"/>
										<path id="XMLID_274_" class="st9" d="M171.33,276.8l-42.39-24.34l-1.43,0.82c-0.88,0.5-1.72,0.57-2.38,0.2
											c-0.66-0.38-1.02-1.15-1.02-2.16v-19.39c0-1.76,0.97-3.84,2.41-5.2l14.32-12.74c0.82-0.76,1.53-1.8,2-2.91l10.72-22.61
											c0.75-1.77,2.05-3.32,3.45-4.13l17.65-10.19c0.95-0.55,1.67-0.46,2.1-0.28l0.08,0.03c0.1,0.04,0.16,0.08,0.22,0.13
											l47.01,26.85l-37.56,52.84l-7.44,20.54L171.33,276.8z M128.93,251.51l42.48,24.39l7.02-2.32l7.38-20.31l37.06-52.15
											l-46.26-26.41c-0.04-0.03-0.07-0.04-0.11-0.06l-0.05-0.02c-0.39-0.15-0.87-0.07-1.39,0.22l-17.65,10.19
											c-1.26,0.73-2.42,2.13-3.12,3.75l-10.72,22.61c-0.51,1.19-1.29,2.33-2.19,3.18l-14.32,12.74
											c-1.26,1.19-2.14,3.07-2.14,4.59v19.39c0,0.71,0.22,1.22,0.61,1.45c0.4,0.22,0.95,0.15,1.56-0.2L128.93,251.51z"/>
									</g>
									<g id="XMLID_268_">
										<path id="XMLID_272_" class="st9" d="M171.37,258.67v19.39c0,1.78,1.25,2.5,2.78,1.61l7.26-4.19
											c1.29-0.75,2.41-2.43,2.69-4.06c0.75-4.34,3.14-10.64,10.17-14.7c6.9-3.98,9.02,1.61,9.68,5.17
											c0.26,1.44,1.48,1.88,2.88,1.07l14.14-6.56c1.9-1.1,3.44-3.76,3.44-5.96v-47.63c0-1.73-1.22-2.43-2.72-1.57l-17.65,10.19
											c-1.33,0.76-2.56,2.25-3.29,3.95l-10.71,22.59c-0.49,1.17-1.24,2.24-2.1,3.06l-14.31,12.73
											C172.29,255.05,171.37,257.03,171.37,258.67z"/>
										<path id="XMLID_269_" class="st9" d="M172.91,280.47c-0.33,0-0.65-0.08-0.93-0.24c-0.66-0.38-1.02-1.15-1.02-2.16v-19.39
											c0-1.76,0.97-3.84,2.41-5.2l14.32-12.74c0.82-0.76,1.53-1.8,2-2.91l10.72-22.61c0.75-1.77,2.05-3.32,3.45-4.13
											l17.65-10.19c0.86-0.49,1.69-0.57,2.33-0.19s1.01,1.12,1.01,2.12v47.63c0,2.33-1.63,5.15-3.65,6.31l-14.18,6.57
											c-0.82,0.48-1.65,0.57-2.32,0.27c-0.59-0.28-1-0.85-1.14-1.63c-0.4-2.15-1.3-4.9-3.38-5.86
											c-1.48-0.68-3.39-0.36-5.69,0.97c-6.86,3.96-9.21,10.02-9.97,14.41c-0.31,1.75-1.49,3.54-2.89,4.35l-7.26,4.19
											C173.86,280.33,173.36,280.47,172.91,280.47z M222.92,201.29c-0.3,0-0.65,0.11-1.01,0.31l-17.65,10.19
											c-1.26,0.73-2.42,2.13-3.12,3.75l-10.72,22.61c-0.51,1.19-1.29,2.33-2.19,3.18l-14.32,12.74
											c-1.26,1.19-2.14,3.07-2.14,4.59v19.39c0,0.71,0.22,1.22,0.61,1.45c0.4,0.22,0.94,0.15,1.56-0.2l7.26-4.19
											c1.19-0.68,2.23-2.27,2.49-3.77c0.79-4.56,3.24-10.86,10.37-14.98c2.54-1.47,4.71-1.8,6.45-1.01
											c2.4,1.1,3.41,4.12,3.84,6.46c0.06,0.36,0.23,0.83,0.67,1.03c0.42,0.19,0.98,0.11,1.6-0.25l14.18-6.57
											c1.75-1.01,3.21-3.53,3.21-5.58V202.8c0-0.68-0.21-1.19-0.59-1.4C223.27,201.33,223.1,201.29,222.92,201.29z"/>
									</g>
									<g id="XMLID_264_">
										<path id="XMLID_265_" class="st10" d="M207.27,255.84c-0.67,0-1.25-0.31-1.61-0.91c-2.79-4.61-7.26-3.35-10.52-1.47
											c-0.92,0.52-1.79,0.6-2.47,0.21c-0.67-0.39-1.04-1.17-1.04-2.21v-11.28c0-0.78,0.21-1.63,0.61-2.48l10.21-21.74
											c0.58-1.24,1.48-2.27,2.47-2.85l11.93-6.89c0.9-0.52,1.76-0.59,2.44-0.2c0.67,0.39,1.04,1.18,1.04,2.22v36.9
											c0,1.99-1.35,4.33-3.07,5.32l-8.5,4.91C208.24,255.69,207.73,255.84,207.27,255.84z M200.49,250.94
											c2.43,0,4.44,1.19,5.87,3.56c0.37,0.61,1.11,0.68,1.98,0.17l8.5-4.91c1.47-0.84,2.66-2.92,2.66-4.61v-36.9
											c0-0.73-0.22-1.27-0.64-1.5s-0.99-0.16-1.62,0.2l-11.93,6.89c-0.83,0.48-1.63,1.41-2.14,2.48l-10.2,21.75
											c-0.34,0.73-0.53,1.48-0.53,2.13v11.28c0,0.73,0.22,1.26,0.63,1.49c0.41,0.24,1,0.16,1.64-0.21
											C196.82,251.54,198.76,250.94,200.49,250.94z"/>
									</g>
									<g id="XMLID_260_">
										<path id="XMLID_261_" class="st10" d="M195.9,237.94c-0.26,0-0.49-0.09-0.69-0.26c-0.48-0.44-0.52-1.29-0.11-2.17
											l8.62-18.25c0.57-1.19,1.44-2.2,2.4-2.75l10.15-5.86c0.53-0.31,1.05-0.34,1.46-0.11c0.41,0.24,0.65,0.71,0.65,1.32v13.37
											c0,1.1-0.75,2.39-1.7,2.94l-20.03,11.56C196.4,237.87,196.14,237.94,195.9,237.94z M204.47,217.61l-8.62,18.25
											c-0.31,0.66-0.22,1.1-0.08,1.21c0.13,0.12,0.37-0.01,0.48-0.06l20.03-11.56c0.69-0.4,1.28-1.42,1.28-2.22v-13.37
											c0-0.31-0.08-0.52-0.23-0.61c-0.14-0.08-0.38-0.04-0.64,0.11l-10.15,5.86C205.74,215.68,204.97,216.56,204.47,217.61
											L204.47,217.61z"/>
									</g>
									<g id="XMLID_256_">
										<path id="XMLID_257_" class="st10" d="M195.9,237.94c-0.26,0-0.49-0.09-0.69-0.26c-0.48-0.44-0.52-1.29-0.11-2.17
											l0.31-0.67l18.36-10.6c0.69-0.4,1.28-1.42,1.28-2.22v-12.68l1.21-0.7c0.53-0.31,1.05-0.34,1.46-0.11
											c0.41,0.24,0.65,0.71,0.65,1.32v13.37c0,1.1-0.75,2.39-1.7,2.94l-20.03,11.56C196.4,237.87,196.14,237.94,195.9,237.94z
											 M196.06,235.42l-0.21,0.44c-0.31,0.66-0.22,1.1-0.08,1.21c0.13,0.12,0.37-0.01,0.48-0.06l20.03-11.56
											c0.69-0.4,1.28-1.42,1.28-2.22v-13.37c0-0.31-0.08-0.52-0.23-0.61c-0.14-0.08-0.38-0.04-0.64,0.11l-0.8,0.46v12.2
											c0,1.1-0.75,2.39-1.7,2.94L196.06,235.42z"/>
									</g>
									<g id="XMLID_252_">
										<path id="XMLID_253_" class="st10" d="M210.85,238.38c-0.15,0-0.31-0.04-0.44-0.12c-0.34-0.2-0.55-0.63-0.55-1.18
											c0-0.94,0.57-2.01,1.28-2.42l4.53-2.62c0.37-0.22,0.75-0.23,1.05-0.06c0.35,0.2,0.55,0.63,0.55,1.18
											c0,0.94-0.57,2-1.28,2.42l-4.53,2.62C211.24,238.32,211.04,238.38,210.85,238.38z M216.28,232.48
											c-0.11,0-0.22,0.05-0.3,0.09l-4.53,2.62c-0.53,0.31-0.97,1.17-0.97,1.89c0,0.31,0.09,0.56,0.23,0.65
											c0.14,0.08,0.33,0,0.43-0.06l4.53-2.62c0.53-0.31,0.97-1.17,0.97-1.89c0-0.32-0.09-0.56-0.23-0.65
											C216.37,232.49,216.32,232.48,216.28,232.48z"/>
									</g>
									<g id="XMLID_247_">
										<path id="XMLID_251_" class="st10" d="M204.11,262.41l0.16,1.28c0.23,1.25,1.28,1.63,2.5,0.93l15.49-8.94
											c1.19-0.69,2.15-2.36,2.15-3.73v-1.22L204.11,262.41z"/>
										<path id="XMLID_248_" class="st9" d="M205.64,265.38c-0.26,0-0.51-0.05-0.74-0.15c-0.53-0.24-0.9-0.76-1.03-1.46
											l-0.21-1.58l21.17-12.17v1.93c0,1.53-1.04,3.33-2.36,4.09l-15.49,8.94C206.52,265.25,206.06,265.38,205.64,265.38z
											 M204.55,262.63l0.13,1.01c0.05,0.28,0.2,0.67,0.56,0.84c0.34,0.16,0.82,0.08,1.33-0.22l15.49-8.94
											c1.06-0.61,1.95-2.15,1.95-3.38v-0.51L204.55,262.63z"/>
									</g>
									<g id="XMLID_242_">
										<path id="XMLID_246_" class="st10" d="M171.37,259.89l6.01-3.45c0.98-0.57,1.64,0.21,1.27,1.47l-0.5,1.7
											c-0.65,2.16-2.15,4.2-3.83,5.17l-2.94,1.7V259.89z"/>
										<path id="XMLID_243_" class="st9" d="M170.96,267.19v-7.54l6.21-3.56c0.56-0.32,1.11-0.32,1.51-0.01
											c0.48,0.38,0.61,1.1,0.36,1.95l-0.5,1.7c-0.67,2.26-2.25,4.39-4.03,5.41L170.96,267.19z M171.78,260.13v5.64l2.32-1.34
											c1.6-0.92,3.03-2.86,3.65-4.94l0.5-1.7c0.17-0.57,0.08-0.94-0.08-1.07c-0.18-0.14-0.47,0.01-0.59,0.07L171.78,260.13z"/>
									</g>
									<g id="XMLID_237_">
										<path id="XMLID_241_" class="st10" d="M171.37,283.89l1.91-2.73l-1.91-4.81l-39.27-22.54l0,0l-7.56-4.36
											c-1,0.9-1.65,2.46-1.39,3.54l0.69,2.91c0.12,0.5,0.36,0.87,0.67,1.1l-0.1-0.07l0.27,0.18
											C124.73,257.13,171.37,283.89,171.37,283.89z"/>
										<path id="XMLID_238_" class="st9" d="M171.49,284.43l-0.32-0.19c-39.4-22.7-46.69-26.8-46.71-26.82l-0.17-0.12l-0.01,0.01
											c-0.4-0.3-0.69-0.76-0.83-1.34l-0.69-2.91c-0.29-1.19,0.39-2.92,1.52-3.94l0.22-0.2l7.82,4.51l39.4,22.62l2.05,5.15
											L171.49,284.43z M124.67,256.59l0.25,0.17c0.31,0.18,42.55,24.41,46.33,26.58l1.57-2.24l-1.78-4.48l-46.44-26.67
											c-0.79,0.83-1.26,2.09-1.06,2.93l0.69,2.91C124.32,256.14,124.47,256.4,124.67,256.59z"/>
									</g>
									<g id="XMLID_232_">
										<path id="XMLID_236_" class="st10" d="M171.92,275.94l12.92-7.48l-1.18,6.77c-0.31,1.77-1.54,3.62-2.94,4.44l-7.07,4.09
											c-1.41,0.82-2.63,0.4-2.96-0.98l-0.69-2.91C169.69,278.6,170.63,276.67,171.92,275.94z"/>
										<path id="XMLID_233_" class="st9" d="M172.29,284.59c-0.29,0-0.56-0.05-0.81-0.16c-0.59-0.25-1.01-0.81-1.19-1.55
											l-0.69-2.91c-0.34-1.43,0.69-3.56,2.12-4.38l13.68-7.92l-1.32,7.64c-0.33,1.89-1.63,3.84-3.15,4.72l-7.07,4.09
											C173.32,284.43,172.78,284.59,172.29,284.59z M184.28,269.26l-12.17,7.04c-1.11,0.65-1.98,2.4-1.72,3.48l0.69,2.91
											c0.12,0.49,0.37,0.83,0.72,0.99c0.43,0.19,1.01,0.09,1.64-0.27l7.07-4.09c1.31-0.75,2.46-2.5,2.75-4.15L184.28,269.26z"/>
									</g>
									<g id="XMLID_227_">
										<path id="XMLID_231_" class="st10" d="M156.92,190.99l40.54,23.24c0.72,0.41,1,1.3,0.64,2.06l-8.39,17.71
											c-0.4,0.83-1.4,1.15-2.21,0.71l-40.75-22.78c-0.73-0.4-1.01-1.31-0.66-2.07l8.61-18.16
											C155.09,190.85,156.12,190.53,156.92,190.99z"/>
										<path id="XMLID_228_" class="st9" d="M188.28,235.3c-0.34,0-0.67-0.09-0.97-0.25l-40.75-22.78
											c-0.92-0.51-1.28-1.65-0.83-2.59l8.61-18.16c0.24-0.5,0.68-0.89,1.21-1.05c0.53-0.17,1.11-0.1,1.59,0.18l0,0l40.54,23.24
											c0.9,0.51,1.25,1.65,0.81,2.59l-8.39,17.71c-0.23,0.49-0.67,0.88-1.19,1.05C188.68,235.27,188.48,235.3,188.28,235.3z
											 M156.13,191.19c-0.12,0-0.23,0.02-0.35,0.05c-0.31,0.1-0.57,0.31-0.71,0.62l-8.61,18.16c-0.26,0.56-0.04,1.23,0.48,1.53
											l40.75,22.78c0.29,0.16,0.62,0.19,0.92,0.09c0.31-0.1,0.57-0.31,0.7-0.61l8.39-17.71c0.26-0.55,0.05-1.21-0.48-1.52
											l-40.54-23.24C156.53,191.24,156.33,191.19,156.13,191.19z"/>
									</g>
									<g id="XMLID_222_">
										<path id="XMLID_226_" class="st10" d="M151.16,208.5c-0.73-0.4-1.01-1.31-0.66-2.07l7.13-15.04l-0.71-0.41
											c-0.8-0.46-1.82-0.14-2.23,0.69l-8.61,18.16c-0.36,0.75-0.07,1.65,0.66,2.07l40.75,22.78c0.8,0.45,1.81,0.13,2.21-0.71
											l1.47-3.12L151.16,208.5z"/>
										<path id="XMLID_223_" class="st9" d="M188.28,235.3c-0.34,0-0.67-0.09-0.98-0.25l-40.75-22.78
											c-0.92-0.51-1.27-1.65-0.83-2.59l8.61-18.16c0.24-0.5,0.68-0.89,1.21-1.05s1.11-0.1,1.59,0.18l1.04,0.6l-7.29,15.39
											c-0.26,0.56-0.04,1.23,0.48,1.53l40.36,22.55l-1.64,3.47c-0.23,0.49-0.67,0.88-1.19,1.05
											C188.69,235.27,188.48,235.3,188.28,235.3z M156.13,191.19c-0.12,0-0.23,0.02-0.35,0.05c-0.31,0.1-0.57,0.31-0.71,0.62
											l-8.61,18.16c-0.26,0.56-0.04,1.23,0.48,1.53l40.75,22.78c0.29,0.16,0.62,0.19,0.93,0.09c0.31-0.1,0.57-0.31,0.7-0.61
											l1.31-2.77l-39.68-22.19c-0.92-0.51-1.28-1.65-0.83-2.59l6.97-14.7l-0.38-0.22C156.53,191.24,156.33,191.19,156.13,191.19
											z"/>
									</g>
									<g id="XMLID_217_">
										<polygon id="XMLID_221_" class="st10" points="171.37,259.89 124.51,232.86 124.51,239.42 171.37,266.48 										"/>
										<path id="XMLID_218_" class="st9" d="M171.78,267.99l-47.67-27.53v-8.32l47.67,27.51V267.99z M124.93,239.19l46.03,26.58
											v-5.64l-46.03-26.56V239.19z"/>
									</g>
									<g id="XMLID_213_">
										<path id="XMLID_216_" class="st11" d="M125.7,235.54v6.57l3.72,2.16c-0.25-0.61-0.4-1.25-0.4-1.84
											c0-1.68,1.18-2.36,2.64-1.53c1.45,0.84,2.64,2.88,2.64,4.57c0,0.6-0.15,1.07-0.41,1.39l2.39,1.39v-6.59L125.7,235.54z"/>
										<path id="XMLID_214_" class="st9" d="M133.09,245.57l1.42,0.83v-7.3l-9.85-5.71v7.28l2.62,1.53
											c-0.07-0.33-0.11-0.66-0.11-0.96c0-0.98,0.35-1.71,0.99-2.09c0.64-0.37,1.45-0.31,2.3,0.19c1.62,0.93,2.87,3.12,2.87,4.98
											C133.35,244.79,133.26,245.21,133.09,245.57z"/>
									</g>
									<g id="XMLID_209_">
										<path id="XMLID_212_" class="st11" d="M162.16,256.55v6.57l2.4,1.4c-0.4-0.75-0.64-1.58-0.64-2.33
											c0-1.68,1.18-2.36,2.64-1.53c1.45,0.84,2.64,2.88,2.64,4.57c0,0.76-0.25,1.3-0.65,1.61l2.41,1.48v-6.59L162.16,256.55z"/>
										<path id="XMLID_210_" class="st9" d="M168.08,265.72l3.14,1.83v-7.3l-9.85-5.71v7.28l1.17,0.68
											c-0.14-0.48-0.22-0.94-0.22-1.38c0-0.98,0.35-1.71,0.99-2.08s1.45-0.31,2.3,0.19c1.62,0.93,2.87,3.12,2.87,4.97
											C168.49,264.8,168.34,265.32,168.08,265.72z"/>
									</g>
									<g id="XMLID_198_">
										<polygon id="XMLID_208_" class="st10" points="208.37,196.18 174.18,176.57 178.91,173.83 213.11,193.45 										"/>
										<polygon id="XMLID_207_" class="st10" points="174.18,176.57 170.66,181.04 210.26,203.77 208.37,196.18 										"/>
										<polygon id="XMLID_206_" class="st11" points="208.37,198.33 174.18,178.7 178.91,175.97 213.11,195.59 										"/>
										<polygon id="XMLID_205_" class="st9" points="208.37,196.18 210.26,203.77 215.23,200.79 213.11,193.45 										"/>
										<g id="XMLID_199_">
											<path id="XMLID_200_" class="st9" d="M215.71,200.98l-2.25-7.8l-34.54-19.82l-5.01,2.89l-3.86,4.91l40.22,23.09
												L215.71,200.98z M210.52,203.13l-1.68-6.74l4.01-2.32l1.89,6.53L210.52,203.13z M175.01,176.57l3.91-2.26l33.36,19.15
												l-3.91,2.26l-27.57-15.8L175.01,176.57z M171.28,180.92l3-3.82l5.93,3.43l27.8,15.93l1.62,6.47L171.28,180.92z"/>
										</g>
									</g>
									<g id="XMLID_193_">
										<polygon id="XMLID_197_" class="st10" points="124.51,242.63 124.51,249.62 171.37,276.5 171.37,269.68 										"/>
										<path id="XMLID_194_" class="st9" d="M170.6,276.53l-46.5-26.67v-7.95l47.67,27.53v6.41
											C171.78,276.46,171.13,276.84,170.6,276.53z M124.93,249.38l46.03,26.41v-5.87l-46.03-26.58
											C124.93,243.34,124.93,249.38,124.93,249.38z"/>
									</g>
									<polygon id="XMLID_192_" class="st9" points="145.88,210.5 150.41,207.84 150.39,206.78 157.62,191.4 155.83,190.78 
										155.07,191.19 146.35,209.19 									"/>
									<polygon id="XMLID_191_" class="st9" points="123.5,254.47 170.33,281.33 170.6,283.64 124.42,256.91 									"/>
									<polygon id="XMLID_190_" class="st10" points="224.01,242.52 224.01,250.17 224.84,249.69 224.84,242.06 									"/>
								</g>
								<g id="XMLID_183_">
									<path id="XMLID_188_" class="st10" d="M150.01,274.43l-8.99-5.19c-0.48-0.27-0.86-1.01-0.86-1.64v-4.45
										c0-0.63,0.39-0.92,0.86-0.65l8.99,5.19c0.48,0.27,0.86,1.01,0.86,1.64v4.45C150.87,274.41,150.49,274.7,150.01,274.43z"/>
									<path id="XMLID_187_" class="st11" d="M151.54,276.79l-8.99-5.19c-0.48-0.27-0.86-1.01-0.86-1.64v-4.45
										c0-0.63,0.39-0.92,0.86-0.65l8.99,5.19c0.48,0.27,0.86,1.01,0.86,1.64v4.45C152.4,276.77,152.01,277.06,151.54,276.79z"/>
									<path id="XMLID_184_" class="st9" d="M150.36,274.9c-0.17,0-0.35-0.05-0.53-0.15l-8.99-5.19
										c-0.58-0.34-1.04-1.19-1.04-1.96v-4.45c0-0.47,0.17-0.83,0.48-1.01c0.27-0.15,0.61-0.13,0.92,0.04l8.99,5.19
										c0.58,0.34,1.04,1.19,1.04,1.96v4.45c0,0.47-0.17,0.83-0.48,1.01C150.64,274.86,150.5,274.9,150.36,274.9z M140.69,262.77
										c-0.02,0-0.03,0-0.04,0.01c-0.04,0.03-0.12,0.13-0.12,0.38v4.45c0,0.49,0.31,1.11,0.67,1.32l8.99,5.19
										c0.08,0.04,0.15,0.06,0.19,0.04c0.04-0.02,0.12-0.13,0.12-0.38v-4.45c0-0.49-0.31-1.11-0.67-1.32l-8.99-5.19
										C140.79,262.79,140.73,262.77,140.69,262.77z"/>
								</g>
							</g>
							<g id="XMLID_177_">
								<g id="XMLID_180_">
									<polygon id="XMLID_181_" class="st9" points="173.08,224.1 163.24,204.42 163.9,204.08 173.74,223.77 									"/>
								</g>
								<g id="XMLID_178_">
									<polygon id="XMLID_179_" class="st9" points="180.99,220.87 175.65,210.21 176.31,209.88 181.64,220.54 									"/>
								</g>
							</g>
						</g>
						<g id="XMLID_167_">
							<g id="XMLID_172_">
								<path id="XMLID_173_" class="st9" d="M164.19,256.01L164,255.9l-37.63-21.7l17.97-15.84c0.69-0.6,1.68-0.71,2.48-0.25
									l34.22,19.58c0.42,0.24,0.69,0.66,0.75,1.13c0.05,0.48-0.12,0.94-0.47,1.27L164.19,256.01z M127.39,234.09l36.71,21.17
									l16.79-15.61c0.22-0.2,0.31-0.48,0.29-0.76c-0.04-0.29-0.2-0.54-0.45-0.68l-34.22-19.57c-0.57-0.33-1.28-0.26-1.78,0.18
									L127.39,234.09z"/>
							</g>
							<g id="XMLID_168_">
								<path id="XMLID_169_" class="st9" d="M187.2,208.73l-0.15-0.09l-21.76-12.56l2.54-1.46c1.52-0.88,3.74-0.96,5.07-0.2
									l16.89,9.75c0.63,0.36,0.98,0.88,0.98,1.45c0,0.67-0.48,1.34-1.32,1.82L187.2,208.73z M166.49,196.08l20.71,11.96l1.94-1.12
									c0.65-0.38,1.01-0.84,1.01-1.3c0-0.45-0.37-0.76-0.67-0.93l-16.89-9.75c-1.14-0.66-3.14-0.57-4.47,0.2L166.49,196.08z"/>
							</g>
						</g>
					</g>
				</g>
			</g>
			<g id="XMLID_1_">
				<g id="XMLID_2_">
					<g id="XMLID_130_">
						<path id="XMLID_162_" class="st10" d="M256.96,313.41L256.96,313.41c0.84,0,1.52-0.68,1.52-1.52v-68.37
							c0-0.84-0.68-1.52-1.52-1.52l0,0c-0.84,0-1.52,0.68-1.52,1.52v68.37C255.44,312.74,256.13,313.41,256.96,313.41z"/>
						<path id="XMLID_161_" class="st9" d="M256.96,242.01c-0.18,0-0.35,0.04-0.51,0.09c0.31,0.28,0.51,0.67,0.51,1.13v68.37
							c0,0.66-0.42,1.22-1.01,1.43c0.27,0.24,0.62,0.4,1.01,0.4c0.84,0,1.52-0.68,1.52-1.52v-68.37
							C258.49,242.69,257.8,242.01,256.96,242.01z"/>
						<path id="XMLID_131_" class="st9" d="M256.96,313.72c-1.01,0-1.82-0.82-1.82-1.82v-68.37c0-1.01,0.82-1.82,1.82-1.82
							c1.01,0,1.82,0.82,1.82,1.82v68.37C258.78,312.9,257.97,313.72,256.96,313.72z M256.96,242.31c-0.67,0-1.22,0.55-1.22,1.22
							v68.37c0,0.67,0.55,1.22,1.22,1.22s1.22-0.55,1.22-1.22v-68.37C258.18,242.85,257.63,242.31,256.96,242.31z"/>
					</g>
					<g id="XMLID_64_">
						<g id="XMLID_71_">
							<path id="XMLID_129_" class="st10" d="M248.25,246.54l15.98,9.61c1.73,1.04,3.13-0.06,3.13-2.46v-29.16
								c0-2.4-1.4-5.19-3.13-6.23l-15.98-9.61c-1.73-1.04-3.13,0.06-3.13,2.46v29.16C245.12,242.71,246.53,245.5,248.25,246.54z"/>
							<path id="XMLID_128_" class="st11" d="M266.46,222.11l-15.98-9.61c-1.73-1.04-3.13,0.06-3.13,2.46v29.16
								c0,0.6,0.09,1.23,0.25,1.84c0.21,0.19,0.42,0.35,0.65,0.48l15.98,9.61c1.73,1.04,3.13-0.06,3.13-2.47v-29.16
								c0-0.6-0.09-1.23-0.25-1.84C266.89,222.41,266.67,222.25,266.46,222.11z"/>
							<path id="XMLID_84_" class="st9" d="M265.48,256.83c-0.45,0-0.92-0.14-1.4-0.43l-15.98-9.61c-1.8-1.09-3.28-4-3.28-6.48
								v-29.16c0-1.4,0.47-2.46,1.27-2.92c0.66-0.37,1.48-0.31,2.32,0.2l15.98,9.61c1.8,1.09,3.28,4,3.28,6.48v29.16
								c0,1.4-0.47,2.46-1.27,2.92C266.11,256.75,265.8,256.83,265.48,256.83z M248.4,246.28l15.98,9.61
								c0.65,0.39,1.24,0.46,1.71,0.19c0.61-0.35,0.97-1.22,0.97-2.4v-29.16c0-2.3-1.34-4.98-2.99-5.97l-15.98-9.61
								c-0.65-0.39-1.24-0.46-1.71-0.19c-0.61,0.35-0.97,1.22-0.97,2.4v29.16C245.42,242.61,246.76,245.3,248.4,246.28L248.4,246.28
								z"/>
						</g>
						<g id="XMLID_65_">
							<path id="XMLID_70_" class="st10" d="M247.73,260.57l17.02,10.23c1.45,0.86,2.61-0.05,2.61-2.06v-3.21
								c0-2-1.17-4.33-2.61-5.19l-17.02-10.23c-1.45-0.86-2.61,0.05-2.61,2.06v3.21C245.12,257.38,246.29,259.71,247.73,260.57z"/>
							<path id="XMLID_69_" class="st11" d="M266.25,263.12l-17.02-10.23c-1.45-0.86-2.61,0.05-2.61,2.06v3.21
								c0,0.58,0.11,1.19,0.28,1.78c0.24,0.25,0.49,0.48,0.76,0.64l17.02,10.23c1.45,0.86,2.61-0.05,2.61-2.06v-3.21
								c0-0.58-0.11-1.19-0.28-1.78C266.77,263.5,266.52,263.28,266.25,263.12z"/>
							<path id="XMLID_66_" class="st9" d="M265.79,271.42c-0.38,0-0.78-0.13-1.19-0.37l-17.02-10.23
								c-1.52-0.92-2.76-3.36-2.76-5.45v-3.21c0-1.19,0.4-2.08,1.09-2.48c0.57-0.32,1.27-0.26,1.98,0.16l17.02,10.23
								c1.52,0.92,2.76,3.36,2.76,5.45v3.21c0,1.19-0.4,2.08-1.09,2.48C266.33,271.36,266.07,271.42,265.79,271.42z M246.7,250.08
								c-0.18,0-0.35,0.04-0.49,0.13c-0.49,0.28-0.78,0.99-0.78,1.96v3.21c0,1.9,1.1,4.11,2.47,4.93l17.02,10.23
								c0.53,0.31,1.01,0.37,1.37,0.15c0.49-0.28,0.78-0.99,0.78-1.95v-3.21c0-1.9-1.1-4.12-2.47-4.94l-17.02-10.23
								C247.26,250.18,246.97,250.08,246.7,250.08z"/>
						</g>
					</g>
					<g id="XMLID_4_">
						<g id="XMLID_59_">
							<g id="XMLID_62_">
								<path id="XMLID_63_" class="st9" d="M247.84,232c0.09,0.09,0.47,0.48,1.08,0.85c0.59,0.35,3.36,2.02,4.26,2.56v-1.76
									l2.99,5.37l-2.99,1.77v-1.81l-2.77-1.66c-0.45-0.27-0.87-0.81-1.1-1.42l-1.48-3.89C247.83,232,247.83,231.99,247.84,232z"/>
							</g>
							<g id="XMLID_60_">
								<path id="XMLID_61_" class="st9" d="M252.8,230.97l-1.67,2.45l-2.65-1.59c-0.35-0.22-0.57-0.8-0.4-1.06l2.15-3.12
									L252.8,230.97z"/>
							</g>
						</g>
						<g id="XMLID_54_">
							<g id="XMLID_57_">
								<path id="XMLID_58_" class="st9" d="M262.74,243.89c-0.02-0.12-0.09-0.64-0.4-1.46c-0.3-0.79-1.71-4.51-2.17-5.7l-1.27,0.14
									l1.03-4.3l4.09,3.73l-1.3,0.14l1.41,3.71c0.23,0.6,0.24,1.19,0.03,1.54l-1.39,2.23
									C262.75,243.91,262.74,243.9,262.74,243.89z"/>
							</g>
							<g id="XMLID_55_">
								<path id="XMLID_56_" class="st9" d="M257.35,237.7l3.32,1.97l1.36,3.56c0.18,0.48-0.04,0.8-0.39,0.59l-4.26-2.54
									L257.35,237.7z"/>
							</g>
						</g>
						<g id="XMLID_5_">
							<g id="XMLID_52_">
								<path id="XMLID_53_" class="st9" d="M257.8,224.28c-0.07,0.03-0.39,0.14-0.7,0.58c-0.31,0.42-1.73,2.42-2.2,3.06l1.26,1.66
									l-4.09-1.22l-1-5.52l1.29,1.71l1.43-1.98c0.23-0.32,0.66-0.36,1.1-0.08l2.9,1.77C257.8,224.26,257.81,224.27,257.8,224.28z"
									/>
							</g>
							<g id="XMLID_49_">
								<path id="XMLID_51_" class="st9" d="M258.12,231.33l-1.6-4.47l1.36-1.9c0.18-0.25,0.62,0.03,0.79,0.49l2.03,5.72
									L258.12,231.33z"/>
							</g>
						</g>
					</g>
				</g>
			</g>
		</g>
	</g>
</g>
</svg>
