<?xml version="1.0" encoding="utf-8"?>
<!-- Generator: Adobe Illustrator 19.0.0, SVG Export Plug-In . SVG Version: 6.00 Build 0)  -->
<svg version="1.1" id="Warstwa_1" xmlns="http://www.w3.org/2000/svg" xmlns:xlink="http://www.w3.org/1999/xlink" x="0px" y="0px"
	 viewBox="163 15 825 472" style="enable-background:new 163 15 825 472;" xml:space="preserve">
<style type="text/css">
	.st0{clip-path:url(#SVGID_2_);fill:url(#SVGID_3_);}
	.st1{fill:#FFFFFF;}
	.st2{fill:#2C8968;}
	.st3{fill:#404040;}
	.st4{fill:#FCC812;}
	.st5{fill:#FEE9A0;}
</style>
<g>
	<g>
		<g>
			<defs>
				<rect id="SVGID_1_" x="163" y="15" width="825" height="472"/>
			</defs>
			<clipPath id="SVGID_2_">
				<use xlink:href="#SVGID_1_"  style="overflow:visible;"/>
			</clipPath>
			
				<linearGradient id="SVGID_3_" gradientUnits="userSpaceOnUse" x1="-879.9618" y1="1247.1718" x2="-878.373" y2="1247.1718" gradientTransform="matrix(526.5874 0 0 -526.5874 463517 657038.5)">
				<stop  offset="0" style="stop-color:#379E6E"/>
				<stop  offset="1" style="stop-color:#72C6D4"/>
			</linearGradient>
			<rect x="140.2" y="-141.8" class="st0" width="870.6" height="870.6"/>
		</g>
	</g>
</g>
<g>
	<path class="st1" d="M224.9,122.5c7.2-0.1,14.1-2.9,19.3-8c5.2-5.1,8.2-11.9,8.4-19.1c0.1-5.5-1.3-10.8-4.2-15.4
		c-0.4-0.6-1.1-1-1.8-1c-0.8,0-1.4,0.4-1.8,1.1c-0.4,0.7-0.4,1.5,0.1,2.1c2.5,4,3.7,8.7,3.5,13.5c-0.5,11.7-10.8,22.1-22.6,22.6
		c-6.7,0.3-13.2-2.2-17.9-6.9c-4.7-4.7-7.2-11.2-6.9-17.9c0.6-11.7,10.9-22,22.7-22.6c4.8-0.2,9.5,1,13.5,3.5c0.7,0.4,1.4,0.4,2.1,0
		c0.7-0.4,1.1-1,1.1-1.8c0-0.7-0.4-1.4-1-1.8c-4.6-2.9-10-4.3-15.4-4.2c-7.2,0.2-14,3.2-19.1,8.4c-5.1,5.2-8,12-8,19.3
		c-0.1,7.5,2.8,14.6,8.2,20c5.3,5.3,12.3,8.2,19.7,8.2C224.7,122.5,224.8,122.5,224.9,122.5"/>
	<path class="st1" d="M224.6,77.8c-1,0-1.7,0.5-2.1,1.5L212,104.4c-0.3,0.8-0.3,1.5,0.1,2.1c0.4,0.7,1,1,1.8,1
		c0.4,0,0.8-0.1,1.2-0.3c0.4-0.2,0.7-0.6,0.9-1l3.2-7.7h11l3.1,7.7c0.2,0.4,0.4,0.8,0.8,1c0.4,0.2,0.8,0.4,1.2,0.4
		c0.8,0,1.4-0.3,1.8-1c0.4-0.6,0.5-1.4,0.2-2.1l-10.6-25.2C226.3,78.3,225.6,77.8,224.6,77.8 M220.6,95l4.1-10l4,10H220.6z"/>
	<path class="st1" d="M278.6,96.5c0.3-0.5,0.4-1,0.1-1.6l-7.4-17.6c-0.3-0.7-0.8-1.1-1.6-1.1c-0.7,0-1.2,0.4-1.6,1.1l-7.3,17.5
		c-0.2,0.6-0.2,1.1,0.1,1.6c0.3,0.5,0.8,0.8,1.4,0.8c0.3,0,0.6-0.1,0.9-0.2c0.3-0.2,0.5-0.4,0.7-0.8l2.2-5.3h7.5l2.1,5.3
		c0.1,0.3,0.3,0.6,0.6,0.8c0.3,0.2,0.6,0.3,0.9,0.3C277.9,97.2,278.3,97,278.6,96.5 M267.2,88.2l2.7-6.5l2.6,6.5H267.2z"/>
	<path class="st1" d="M284.8,85.6c0.7-0.3,1.5-0.5,2.5-0.4c0.2,0,0.5,0,0.7-0.1c0.2-0.1,0.4-0.2,0.5-0.4c0.1-0.2,0.2-0.5,0.2-0.8
		c0-0.4-0.1-1-0.9-1.4c-0.6-0.3-1.3-0.3-2.3-0.1c-0.8,0.2-1.5,0.5-2.1,1c-0.1-0.3-0.2-0.6-0.4-0.8c-0.3-0.3-0.7-0.4-1.2-0.4
		c-0.5,0-0.9,0.1-1.2,0.4c-0.3,0.3-0.4,0.7-0.4,1.2v11.9c0,0.5,0.1,0.9,0.4,1.2c0.3,0.3,0.7,0.4,1.2,0.4c0.5,0,0.9-0.1,1.2-0.4
		c0.3-0.3,0.4-0.7,0.4-1.2v-8.8C283.6,86.3,284.1,85.9,284.8,85.6"/>
	<path class="st1" d="M298,94h-0.9c-0.5,0-0.9-0.2-1.2-0.6c-0.3-0.4-0.5-0.9-0.5-1.6v-6.5h2c0.4,0,0.8-0.1,1.1-0.4
		c0.3-0.3,0.4-0.6,0.4-1c0-0.4-0.1-0.8-0.4-1.1c-0.3-0.3-0.6-0.4-1.1-0.4h-2v-3.1c0-0.5-0.1-0.9-0.4-1.1c-0.3-0.3-0.7-0.5-1.1-0.5
		c-0.5,0-0.9,0.1-1.2,0.5c-0.3,0.3-0.5,0.7-0.5,1.1v3.1h-0.8c-0.4,0-0.8,0.1-1.1,0.4c-0.3,0.3-0.4,0.6-0.4,1.1c0,0.4,0.1,0.7,0.4,1
		c0.3,0.3,0.6,0.4,1.1,0.4h0.8v6.5c0,1,0.2,1.9,0.6,2.7c0.4,0.8,1,1.5,1.8,1.9c0.7,0.5,1.6,0.7,2.5,0.7h0.5c0.5,0,1-0.1,1.3-0.4
		c0.4-0.3,0.5-0.7,0.5-1.2c0-0.5-0.1-0.8-0.4-1.1C298.7,94.2,298.4,94,298,94"/>
	<path class="st1" d="M342.3,93.5c0.6-1.1,0.9-2.4,0.9-3.8c0-1.4-0.3-2.7-1-3.9c-0.7-1.1-1.6-2-2.7-2.7s-2.4-1-3.8-1
		c-1.4,0-2.7,0.3-3.8,1s-2,1.6-2.7,2.7c-0.6,1.1-1,2.4-1,3.9v11.9c0,0.5,0.2,0.9,0.5,1.2c0.3,0.3,0.7,0.5,1.2,0.5
		c0.5,0,0.9-0.2,1.2-0.5s0.4-0.7,0.4-1.2v-6.3c0.5,0.5,1.1,0.9,1.8,1.2c0.9,0.5,1.9,0.7,3,0.7c1.3,0,2.5-0.3,3.6-1
		C340.9,95.6,341.7,94.7,342.3,93.5 M339.5,92c-0.4,0.7-0.9,1.2-1.5,1.6c-0.6,0.4-1.4,0.6-2.2,0.6c-0.8,0-1.6-0.2-2.2-0.6
		s-1.2-1-1.5-1.6s-0.6-1.5-0.6-2.4c0-0.9,0.2-1.7,0.6-2.4s0.9-1.2,1.5-1.6c0.6-0.4,1.4-0.6,2.2-0.6c0.8,0,1.6,0.2,2.2,0.6
		s1.2,1,1.5,1.6s0.6,1.5,0.6,2.4C340.1,90.6,339.9,91.3,339.5,92"/>
	<path class="st1" d="M357.4,94.5c0-0.4-0.2-0.8-0.6-1.1c-0.3-0.2-0.6-0.4-1-0.4c-0.4,0-0.7,0.1-1,0.4c-0.3,0.2-0.8,0.5-1.3,0.6
		s-1.1,0.3-1.6,0.3c-0.9,0-1.8-0.2-2.5-0.6c-0.7-0.4-1.3-1-1.7-1.7c-0.2-0.4-0.4-0.8-0.5-1.2h9.6c0.4,0,0.8-0.1,1.1-0.4
		c0.3-0.3,0.4-0.6,0.4-1c0-1.4-0.3-2.7-0.8-3.8c-0.5-1.1-1.3-2-2.4-2.6c-1-0.6-2.2-1-3.7-1c-1.4,0-2.7,0.3-3.8,1
		c-1.1,0.6-2,1.5-2.6,2.7c-0.6,1.1-0.9,2.5-0.9,3.9c0,1.5,0.3,2.8,1,3.9s1.6,2,2.8,2.7c1.2,0.6,2.5,1,4,1c0.8,0,1.7-0.2,2.6-0.5
		c0.9-0.3,1.7-0.7,2.3-1.2C357.3,95.2,357.4,94.8,357.4,94.5 M347.6,87.2c0.3-0.7,0.8-1.3,1.5-1.7c0.6-0.4,1.5-0.6,2.4-0.6
		c0.8,0,1.5,0.2,2.1,0.5c0.6,0.4,1,0.9,1.3,1.5c0.2,0.4,0.3,0.8,0.4,1.2h-8C347.4,87.9,347.5,87.5,347.6,87.2"/>
	<path class="st1" d="M368.7,86.8c0.3,0.6,0.5,1.4,0.5,2.3v6.5c0,0.5,0.2,0.9,0.5,1.2c0.3,0.3,0.7,0.5,1.2,0.5
		c0.5,0,0.9-0.2,1.2-0.5s0.5-0.7,0.5-1.2v-6.5c0-1.5-0.3-2.8-0.9-3.8s-1.4-1.9-2.4-2.4c-1-0.5-2.1-0.8-3.4-0.8
		c-1.2,0-2.3,0.3-3.3,0.8c-0.1,0.1-0.2,0.1-0.3,0.2c-0.1-0.1-0.2-0.3-0.3-0.4c-0.3-0.3-0.7-0.5-1.2-0.5c-0.5,0-0.9,0.1-1.2,0.5
		c-0.3,0.3-0.5,0.7-0.5,1.2v11.7c0,0.5,0.2,0.9,0.5,1.2c0.3,0.3,0.7,0.5,1.2,0.5c0.5,0,0.9-0.2,1.2-0.5s0.4-0.7,0.4-1.2v-9.3
		c0.3-0.3,0.6-0.6,1-0.8c0.5-0.3,1.2-0.4,1.9-0.4c0.8,0,1.4,0.1,2,0.4C368,85.8,368.4,86.3,368.7,86.8"/>
	<path class="st1" d="M324.4,78.9L324.4,78.9c-1-1-2.1-1.7-3.4-2.3s-2.8-0.8-4.4-0.8c-1.6,0-3.1,0.3-4.4,0.8
		c-1.3,0.5-2.5,1.3-3.4,2.3c-1,1-1.7,2.1-2.2,3.5c-0.5,1.3-0.8,2.8-0.8,4.4c0,1.6,0.3,3.1,0.8,4.4c0.5,1.3,1.3,2.5,2.2,3.5
		c0.9,1,2.1,1.7,3.4,2.3s2.8,0.8,4.4,0.8c1.6,0,3-0.3,4.4-0.8c1.3-0.5,2.5-1.3,3.4-2.3s1.7-2.1,2.2-3.5c0.5-1.3,0.8-2.8,0.8-4.4
		c0-1.6-0.3-3.1-0.8-4.4C326.2,81,325.4,79.8,324.4,78.9 M323.4,89.7c-0.4,0.9-0.9,1.7-1.5,2.4s-1.4,1.2-2.3,1.6
		c-0.9,0.4-1.9,0.6-2.9,0.6c-1.1,0-2.1-0.2-2.9-0.6c-0.9-0.4-1.7-0.9-2.3-1.6c-0.6-0.7-1.1-1.5-1.5-2.4c-0.4-0.9-0.5-1.9-0.5-3
		s0.2-2.1,0.5-3c0.4-0.9,0.9-1.7,1.5-2.4c0.6-0.7,1.4-1.2,2.3-1.6c0.9-0.4,1.9-0.6,3-0.6s2.1,0.2,2.9,0.6c0.9,0.4,1.7,0.9,2.3,1.6
		c0.6,0.7,1.2,1.5,1.5,2.4c0.4,0.9,0.5,1.9,0.5,3C324,87.8,323.8,88.8,323.4,89.7"/>
	<path class="st1" d="M275.4,110.5c-0.3-0.3-0.8-0.5-1.5-0.6c-0.4,0-0.7-0.1-0.9-0.2s-0.4-0.2-0.5-0.4c-0.1-0.1-0.1-0.3-0.1-0.5
		c0-0.3,0.1-0.5,0.4-0.7s0.6-0.2,1-0.2c0.2,0,0.4,0,0.6,0.1c0.2,0.1,0.3,0.1,0.4,0.2c0.1,0.1,0.2,0.2,0.3,0.3c0,0.1,0.1,0.1,0.2,0.1
		c0.1,0,0.2,0,0.2,0c0.1,0,0.1-0.1,0.1-0.2c0-0.1,0-0.1,0-0.2c-0.1-0.2-0.3-0.3-0.4-0.5c-0.2-0.1-0.4-0.2-0.6-0.3
		c-0.2-0.1-0.5-0.1-0.8-0.1c-0.4,0-0.7,0.1-1,0.2c-0.3,0.1-0.5,0.3-0.7,0.5c-0.2,0.2-0.3,0.5-0.3,0.8c0,0.4,0.2,0.8,0.5,1
		c0.4,0.3,0.8,0.5,1.5,0.5c0.5,0.1,0.9,0.2,1.1,0.4c0.2,0.2,0.4,0.5,0.4,0.8c0,0.2-0.1,0.4-0.2,0.6c-0.1,0.2-0.3,0.3-0.5,0.4
		c-0.2,0.1-0.5,0.1-0.8,0.1c-0.2,0-0.5,0-0.7-0.1c-0.2-0.1-0.4-0.1-0.6-0.3c-0.1-0.1-0.3-0.2-0.4-0.4c0-0.1-0.1-0.1-0.2-0.1
		s-0.1,0-0.2,0c-0.1,0-0.2,0.1-0.2,0.1c0,0.1,0,0.1,0,0.2c0.1,0.2,0.3,0.4,0.5,0.6c0.2,0.2,0.5,0.3,0.8,0.4c0.3,0.1,0.6,0.1,0.9,0.1
		c0.3,0,0.6,0,0.8-0.1c0.2-0.1,0.5-0.2,0.7-0.3s0.3-0.3,0.4-0.5s0.2-0.4,0.2-0.7C275.9,111.2,275.8,110.8,275.4,110.5"/>
	<path class="st1" d="M282.2,107.5h-1.9h-0.6h-1.9c-0.1,0-0.1,0-0.2,0.1c-0.1,0-0.1,0.1-0.1,0.2c0,0.1,0,0.1,0.1,0.2
		c0,0,0.1,0.1,0.2,0.1h1.9v4.9c0,0.1,0,0.1,0.1,0.2s0.1,0.1,0.2,0.1s0.2,0,0.2-0.1c0.1-0.1,0.1-0.1,0.1-0.2V108h1.9
		c0.1,0,0.1,0,0.2-0.1c0.1,0,0.1-0.1,0.1-0.2c0-0.1,0-0.1-0.1-0.2C282.3,107.6,282.3,107.5,282.2,107.5"/>
	<path class="st1" d="M289.3,107.5c-0.1,0-0.2,0-0.2,0.1s-0.1,0.1-0.1,0.2v3.5c0,0.3-0.1,0.5-0.2,0.8s-0.4,0.4-0.6,0.5
		c-0.3,0.1-0.6,0.2-1,0.2c-0.4,0-0.7-0.1-1-0.2s-0.5-0.3-0.7-0.5s-0.2-0.5-0.2-0.8v-3.5c0-0.1,0-0.1-0.1-0.2c-0.1,0-0.1-0.1-0.2-0.1
		s-0.2,0-0.2,0.1s-0.1,0.1-0.1,0.2v3.5c0,0.4,0.1,0.7,0.3,1c0.2,0.3,0.5,0.5,0.9,0.7c0.4,0.2,0.8,0.3,1.3,0.3c0.5,0,0.9-0.1,1.3-0.3
		c0.4-0.2,0.7-0.4,0.9-0.7c0.2-0.3,0.3-0.6,0.3-1v-3.5c0-0.1,0-0.1-0.1-0.2C289.4,107.6,289.4,107.5,289.3,107.5"/>
	<path class="st1" d="M296.4,108.3c-0.3-0.3-0.6-0.5-1-0.6c-0.4-0.1-0.8-0.2-1.2-0.2h-1.4c-0.1,0-0.2,0-0.2,0.1s-0.1,0.1-0.1,0.2
		v5.1c0,0.1,0,0.1,0.1,0.2c0.1,0,0.1,0.1,0.2,0.1h1.4c0.5,0,0.9-0.1,1.2-0.2c0.4-0.1,0.7-0.3,1-0.6c0.3-0.3,0.5-0.6,0.6-0.9
		s0.2-0.7,0.2-1.1c0-0.4-0.1-0.8-0.2-1.1C296.9,108.9,296.7,108.6,296.4,108.3 M296.4,111.6c-0.2,0.4-0.5,0.6-0.9,0.8
		c-0.4,0.2-0.8,0.3-1.3,0.3h-1.1V108h1.1c0.5,0,0.9,0.1,1.3,0.3c0.4,0.2,0.7,0.5,0.9,0.8c0.2,0.4,0.3,0.8,0.3,1.2
		C296.7,110.8,296.6,111.2,296.4,111.6"/>
	<path class="st1" d="M300.2,107.5c-0.1,0-0.2,0-0.2,0.1s-0.1,0.1-0.1,0.2v5.1c0,0.1,0,0.1,0.1,0.2c0.1,0,0.1,0.1,0.2,0.1
		s0.2,0,0.2-0.1s0.1-0.1,0.1-0.2v-5.1c0-0.1,0-0.1-0.1-0.2C300.3,107.6,300.3,107.5,300.2,107.5"/>
	<path class="st1" d="M308.5,108.3c-0.3-0.3-0.6-0.5-1-0.6c-0.4-0.1-0.8-0.2-1.3-0.2c-0.5,0-0.9,0.1-1.3,0.2c-0.4,0.1-0.7,0.4-1,0.6
		c-0.3,0.3-0.5,0.6-0.7,0.9c-0.2,0.4-0.2,0.7-0.2,1.2s0.1,0.8,0.2,1.2c0.2,0.4,0.4,0.7,0.7,0.9c0.3,0.3,0.6,0.5,1,0.6
		c0.4,0.1,0.8,0.2,1.3,0.2c0.5,0,0.9-0.1,1.3-0.2c0.4-0.1,0.7-0.4,1-0.6c0.3-0.3,0.5-0.6,0.7-0.9s0.2-0.8,0.2-1.2s-0.1-0.8-0.2-1.2
		C309,108.9,308.8,108.5,308.5,108.3 M308.6,111.3c-0.1,0.3-0.3,0.5-0.5,0.8c-0.2,0.2-0.5,0.4-0.8,0.5c-0.3,0.1-0.6,0.2-1,0.2
		s-0.7-0.1-1-0.2c-0.3-0.1-0.6-0.3-0.8-0.5c-0.2-0.2-0.4-0.5-0.5-0.8s-0.2-0.6-0.2-1c0-0.3,0.1-0.6,0.2-0.9s0.3-0.5,0.5-0.8
		c0.2-0.2,0.5-0.4,0.8-0.5c0.3-0.1,0.7-0.2,1-0.2s0.7,0.1,1,0.2s0.6,0.3,0.8,0.5c0.2,0.2,0.4,0.5,0.5,0.8s0.2,0.6,0.2,0.9
		S308.7,111,308.6,111.3"/>
	<path class="st1" d="M318.2,110.9c0.1,0,0.2-0.1,0.3-0.1c0.3-0.1,0.5-0.4,0.7-0.6c0.2-0.3,0.3-0.5,0.3-0.9c0-0.4-0.1-0.6-0.3-0.9
		c-0.2-0.3-0.4-0.5-0.7-0.6c-0.3-0.1-0.6-0.2-1-0.2h-1.5c-0.1,0-0.2,0-0.2,0.1c-0.1,0-0.1,0.1-0.1,0.2v5.1c0,0.1,0,0.1,0.1,0.2
		c0.1,0,0.1,0.1,0.2,0.1s0.2,0,0.2-0.1s0.1-0.1,0.1-0.2v-2h1.2c0,0,0.1,0,0.1,0l1.4,2.1c0,0,0.1,0.1,0.1,0.1c0,0,0.1,0,0.2,0
		c0.1,0,0.2,0,0.3-0.1c0.1-0.1,0-0.2,0-0.3L318.2,110.9z M317.4,110.4h-1.2v-2.4h1.2c0.3,0,0.5,0,0.7,0.1c0.2,0.1,0.4,0.2,0.5,0.4
		c0.1,0.2,0.2,0.4,0.2,0.6c0,0.2-0.1,0.4-0.2,0.6s-0.3,0.3-0.5,0.4C317.9,110.4,317.6,110.4,317.4,110.4"/>
	<path class="st1" d="M325.8,108.1c0.1,0,0.2,0,0.2-0.1s0.1-0.1,0.1-0.2c0-0.1,0-0.1-0.1-0.2c-0.1,0-0.1-0.1-0.2-0.1h-3.7
		c-0.1,0-0.2,0-0.2,0.1s-0.1,0.1-0.1,0.2v5.1c0,0.1,0,0.1,0.1,0.2c0.1,0,0.1,0.1,0.2,0.1h3.7c0.1,0,0.2,0,0.2-0.1s0.1-0.1,0.1-0.2
		c0-0.1,0-0.1-0.1-0.2s-0.1-0.1-0.2-0.1h-3.4v-2h2.5c0.1,0,0.2,0,0.2-0.1s0.1-0.1,0.1-0.2c0-0.1,0-0.1-0.1-0.2
		c-0.1,0-0.1-0.1-0.2-0.1h-2.5v-2L325.8,108.1L325.8,108.1z"/>
	<path class="st1" d="M332.6,107.8c0-0.1,0-0.1-0.1-0.2c0,0-0.1-0.1-0.2-0.1c0,0-0.1,0-0.1,0c0,0-0.1,0-0.1,0.1l-2.9,2.7v-2.5
		c0-0.1,0-0.1-0.1-0.2c-0.1-0.1-0.1-0.1-0.2-0.1c-0.1,0-0.2,0-0.2,0.1c-0.1,0.1-0.1,0.1-0.1,0.2v5.1c0,0.1,0,0.1,0.1,0.2
		c0.1,0.1,0.1,0.1,0.2,0.1c0.1,0,0.2,0,0.2-0.1c0.1-0.1,0.1-0.1,0.1-0.2v-1.9l0.7-0.7l2.2,2.7c0.1,0.1,0.1,0.1,0.3,0.1
		c0.1,0,0.1,0,0.2-0.1c0,0,0.1-0.1,0.1-0.2c0-0.1,0-0.1-0.1-0.2l-2.2-2.8l2.2-2C332.6,107.9,332.6,107.9,332.6,107.8"/>
	<path class="st1" d="M338.8,112.7h-3.1v-4.9c0-0.1,0-0.1-0.1-0.2c-0.1-0.1-0.1-0.1-0.2-0.1c-0.1,0-0.2,0-0.2,0.1
		c-0.1,0.1-0.1,0.1-0.1,0.2v5.1c0,0.1,0,0.1,0.1,0.2c0.1,0,0.1,0.1,0.2,0.1h3.4c0.1,0,0.2,0,0.2-0.1c0.1,0,0.1-0.1,0.1-0.2
		c0-0.1,0-0.1-0.1-0.2C338.9,112.7,338.9,112.7,338.8,112.7"/>
	<path class="st1" d="M343.7,107.7c-0.1-0.1-0.2-0.2-0.3-0.2c-0.1,0-0.2,0.1-0.3,0.2l-2.3,5.1c0,0.1,0,0.2,0,0.3
		c0,0.1,0.1,0.1,0.3,0.1c0.1,0,0.1,0,0.2,0c0,0,0.1-0.1,0.1-0.1l0.5-1.2h3.1l0.5,1.2c0,0.1,0.1,0.1,0.1,0.1s0.1,0,0.2,0
		c0.1,0,0.2,0,0.3-0.1s0.1-0.2,0-0.3L343.7,107.7z M342.1,111.4l1.3-2.9l1.3,2.9H342.1z"/>
	<path class="st1" d="M354.2,107.5c-0.1,0-0.2,0-0.3,0.1l-2.5,4.6l-2.5-4.6c-0.1-0.1-0.1-0.1-0.3-0.1c-0.1,0-0.2,0-0.2,0.1
		s-0.1,0.1-0.1,0.2v5.1c0,0.1,0,0.1,0.1,0.2s0.1,0.1,0.2,0.1c0.1,0,0.2,0,0.2-0.1c0.1-0.1,0.1-0.1,0.1-0.2v-4.1l2.2,4
		c0.1,0.1,0.1,0.2,0.3,0.2c0.1,0,0.2,0,0.3-0.1l2.2-4.1v4.1c0,0.1,0,0.1,0.1,0.2s0.1,0.1,0.2,0.1c0.1,0,0.2,0,0.2-0.1
		c0.1-0.1,0.1-0.1,0.1-0.2v-5.1c0-0.1,0-0.1-0.1-0.2C354.3,107.6,354.2,107.5,354.2,107.5"/>
	<path class="st1" d="M361.4,107.5c-0.1,0-0.1,0-0.2,0c0,0-0.1,0.1-0.1,0.1l-2,2.9l-2-2.9c0,0-0.1-0.1-0.1-0.1c0,0-0.1,0-0.2,0
		c-0.1,0-0.1,0-0.2,0.1c0,0-0.1,0.1-0.1,0.2c0,0.1,0,0.1,0.1,0.2l2.2,3.1v1.8c0,0.1,0,0.1,0.1,0.2s0.1,0.1,0.2,0.1
		c0.1,0,0.2,0,0.2-0.1c0.1-0.1,0.1-0.1,0.1-0.2v-1.8l2.2-3.1c0.1-0.1,0.1-0.1,0.1-0.2c0-0.1,0-0.1-0.1-0.2
		C361.5,107.5,361.5,107.5,361.4,107.5"/>
	<path class="st1" d="M372.4,110.2h-6.3c-0.1,0-0.2,0.1-0.2,0.2s0.1,0.2,0.2,0.2h6.3c0.1,0,0.2-0.1,0.2-0.2S372.4,110.2,372.4,110.2
		"/>
	<path class="st1" d="M267.2,110.2h-6.3c-0.1,0-0.2,0.1-0.2,0.2s0.1,0.2,0.2,0.2h6.3c0.1,0,0.2-0.1,0.2-0.2S267.3,110.2,267.2,110.2
		"/>
</g>
<g>
	
		<ellipse transform="matrix(-0.4555 -0.8902 0.8902 -0.4555 732.1316 1158.9674)" class="st2" cx="720.5" cy="355.6" rx="32.2" ry="83.1"/>
	
		<ellipse transform="matrix(-0.4555 -0.8902 0.8902 -0.4555 527.8206 1147.9321)" class="st2" cx="615" cy="412.6" rx="2.4" ry="6.1"/>
	<g>
		
			<ellipse transform="matrix(-0.4555 -0.8902 0.8902 -0.4555 580.4668 896.8837)" class="st2" cx="564.5" cy="270.9" rx="80.3" ry="206.9"/>
		<g id="illustration_1_">
			<g id="XMLID_461_">
				<g id="XMLID_462_">
					<g id="XMLID_603_">
						<g id="XMLID_613_">
							<g id="XMLID_648_">
								<g id="XMLID_664_">
									<path id="XMLID_668_" class="st3" d="M759,336.5c0-4.4-3.1-9.8-6.9-12c-2-1.1-3.8-1.2-5-0.4l0,0l-6.6,3.9l9.4,17.1l7.1-4.2
										c0,0,0,0,0,0l0,0l0,0C758.2,340.2,759,338.7,759,336.5z"/>
									<path id="XMLID_665_" class="st3" d="M749.6,345.9l-9.8-17.9l7.4-4.4l0,0c1.4-0.7,3.2-0.5,5.1,0.6
										c3.9,2.3,7.1,7.8,7.1,12.4c0,2.3-0.8,4-2.2,4.8L749.6,345.9z M741.1,328.3l8.9,16.3l6.7-4c1.2-0.7,1.8-2.1,1.8-4.1
										c0-4.3-3-9.4-6.7-11.6c-1.7-1-3.4-1.2-4.5-0.4l-0.4,0.2l0,0L741.1,328.3z"/>
								</g>
								<g id="XMLID_659_">
									<path id="XMLID_663_" class="st4" d="M752.1,340.6c0,4.4-3.1,6.2-6.9,4c-3.8-2.2-6.9-7.5-6.9-12c0-4.4,3.1-6.2,6.9-4
										C749,330.8,752.1,336.2,752.1,340.6z"/>
									<path id="XMLID_660_" class="st3" d="M748.3,346c-1,0-2.1-0.3-3.3-1c-3.9-2.3-7.1-7.8-7.1-12.4c0-2.3,0.8-4,2.2-4.9
										c1.5-0.8,3.3-0.7,5.4,0.5c3.9,2.3,7.1,7.8,7.1,12.4c0,2.3-0.8,4-2.2,4.9C749.7,345.8,749,346,748.3,346z M742.1,328.2
										c-0.6,0-1.1,0.1-1.6,0.4c-1.2,0.7-1.8,2.1-1.8,4.1c0,4.3,3,9.4,6.7,11.6c1.7,1,3.3,1.2,4.4,0.5c1.2-0.7,1.8-2.1,1.8-4.1
										c0-4.3-3-9.4-6.7-11.6C743.9,328.5,743,328.2,742.1,328.2z"/>
								</g>
								<g id="XMLID_654_">
									<path id="XMLID_658_" class="st3" d="M748.6,338.6c0,2.2-1.5,3.1-3.4,2c-1.9-1.1-3.4-3.7-3.4-5.9c0-2.2,1.5-3.1,3.4-2
										C747.1,333.8,748.6,336.4,748.6,338.6z"/>
									<path id="XMLID_655_" class="st3" d="M746.7,341.5c-0.6,0-1.2-0.2-1.8-0.5c-2.1-1.2-3.7-4-3.7-6.3c0-1.2,0.4-2.2,1.2-2.6
										s1.8-0.4,2.9,0.2c2.1,1.2,3.7,4,3.7,6.3c0,1.2-0.4,2.2-1.2,2.6C747.5,341.4,747.1,341.5,746.7,341.5z M743.6,332.7
										c-0.2,0-0.5,0.1-0.7,0.2c-0.5,0.3-0.8,0.9-0.8,1.8c0,2,1.4,4.5,3.2,5.5c0.8,0.4,1.5,0.5,2,0.2c0.5-0.3,0.8-0.9,0.8-1.8
										c0-2-1.4-4.5-3.2-5.5C744.5,332.8,744,332.7,743.6,332.7z"/>
								</g>
								<g id="XMLID_649_">
									<path id="XMLID_653_" class="st4" d="M745.2,332.7c-0.5-0.3-0.9-0.4-1.3-0.5c-0.1,0.3-0.2,0.8-0.2,1.2
										c0,2.2,1.5,4.8,3.4,5.9c0.5,0.3,0.9,0.4,1.3,0.5c0.1-0.3,0.2-0.8,0.2-1.2C748.6,336.4,747.1,333.8,745.2,332.7z"/>
									<path id="XMLID_650_" class="st3" d="M748.7,340.3l-0.3,0c-0.5,0-1-0.2-1.5-0.5c-2.1-1.2-3.7-4-3.7-6.3
										c0-0.5,0.1-1,0.3-1.4l0.1-0.3l0.3,0c0.5,0,1,0.2,1.5,0.5l0,0c2.1,1.2,3.7,4,3.7,6.3c0,0.5-0.1,1-0.3,1.4L748.7,340.3z
										 M744.2,332.7c-0.1,0.2-0.1,0.5-0.1,0.7c0,2,1.4,4.5,3.2,5.5c0.3,0.2,0.5,0.3,0.8,0.3c0.1-0.2,0.1-0.5,0.1-0.7
										c0-2-1.4-4.5-3.2-5.5l0,0C744.7,332.9,744.4,332.8,744.2,332.7z"/>
								</g>
							</g>
							<g id="XMLID_642_">
								<path id="XMLID_647_" class="st4" d="M744.1,282.7l0.4,42.2c0.8,0.2,1.6,0.5,2.5,1c4.5,2.6,8.3,9,8.3,14.3
									c0,0.8-0.1,1.5-0.2,2.1l5.6,3.2c2.7,1.6,6.7,1.7,9.1,0.4l4.2-2.4l0.7-5.4l7-4l4.4,2.4l5-2.9c1-0.6,1.3-1.3,1.6-2.1l0,0
									c0,0,0-0.1,0-0.1l6.2-48.4L744.1,282.7z"/>
								<path id="XMLID_646_" class="st3" d="M750.4,282.7l21.7,13.7l-6.2,48.4c0,0,0,0.1,0,0.1l0,0c-0.2,0.7-0.5,1.3-1.2,1.8
									c1.9,0.2,3.8,0,5.2-0.8l4.2-2.4l0.7-5.4l7-4l4.4,2.4l5-2.9c1-0.6,1.3-1.3,1.6-2.1l0,0c0,0,0-0.1,0-0.1L799,283L750.4,282.7z
									"/>
								<path id="XMLID_643_" class="st3" d="M765.8,347.3c-1.9,0-3.8-0.5-5.4-1.3l-5.9-3.4l0.1-0.3c0.2-0.6,0.2-1.3,0.2-2
									c0-5.1-3.6-11.4-8-13.9c-0.8-0.5-1.6-0.8-2.4-0.9l-0.4-0.1l-0.4-43.1h0.5l55.2,0.3l-6.3,49.1c-0.2,0.9-0.6,1.7-1.8,2.4
									l-5.2,3l-4.4-2.4l-6.6,3.8l-0.7,5.4l-4.4,2.6C768.8,347,767.3,347.3,765.8,347.3z M755.6,342.1l5.3,3.1
									c2.6,1.5,6.4,1.6,8.6,0.4l4-2.3l0.7-5.4l7.4-4.3l4.4,2.4l4.8-2.8c0.8-0.5,1.1-1.1,1.3-1.8l6.1-47.9l-53.7-0.3l0.4,41.4
									c0.7,0.2,1.5,0.5,2.3,1c4.7,2.7,8.5,9.3,8.5,14.7C755.7,340.9,755.7,341.5,755.6,342.1z"/>
							</g>
							<g id="XMLID_637_">
								<path id="XMLID_641_" class="st4" d="M790.1,301.9c-0.5-0.3-1.1-0.3-1.5,0l-9.1,5.4c-0.8,0.5-1.3,1.2-1.4,2.1l-3.8,28.2
									l0-0.1l7.3-4.1l4.4,2.4l0.6-0.3l4.1-32.1C790.8,302.8,790.6,302.3,790.1,301.9z"/>
								<g id="XMLID_638_">
									<path id="XMLID_640_" class="st3" d="M781.6,334.1l3.8-29.8l-5.7,3.4c-0.6,0.4-1.1,1-1.2,1.8l-3.9,28.6L781.6,334.1z"/>
									<path id="XMLID_639_" class="st4" d="M779.5,307.3c-0.8,0.5-1.3,1.2-1.4,2.1l-3.7,28.2l0.9-0.5l3.7-27.5
										c0.1-0.6,0.4-1.1,1-1.4l4.9-2.9l-3.6,28.5l0.4-0.1l0.5,0.1l3.9-30.3L779.5,307.3z"/>
								</g>
							</g>
							<g id="XMLID_632_">
								<path id="XMLID_636_" class="st4" d="M801.6,279.8c0-0.1,0-0.2,0-0.3v-7.9c0-0.1-0.1-0.2-0.2-0.2l-16.4-1.2l-8.1-4.7
									c-3-1.7-7.5-1.9-10.1-0.4l-9,5.2l-16.3,0.7c-0.1,0-0.2,0.1-0.2,0.2v7.9c0,0.1,0,0.2,0,0.4l0,0l0,0c0.1,1.1,0.9,2.2,2.5,3.1
									l22.3,12.8c3,1.7,7.5,1.9,10.1,0.4l23.7-13.7C800.9,281.6,801.5,280.8,801.6,279.8l0,0.1L801.6,279.8L801.6,279.8z"/>
								<path id="XMLID_633_" class="st3" d="M771.8,297.4c-2.1,0-4.2-0.5-5.9-1.5l-22.3-12.8c-1.6-0.9-2.6-2.2-2.7-3.5
									c0-0.1,0-0.3,0-0.4v-7.9c0-0.3,0.3-0.6,0.6-0.6l16.2-0.7l8.9-5.1c2.7-1.6,7.4-1.4,10.5,0.4l8,4.6l16.3,1.2
									c0.4,0,0.6,0.3,0.6,0.7v7.9c0,0.1,0,0.2,0,0.3v0.1c-0.1,1.1-0.8,2-2,2.7l-23.7,13.7C775.1,297,773.5,297.4,771.8,297.4z
									 M741.8,271.6v7.6c0,0.1,0,0.2,0,0.3c0.1,1,0.9,2,2.2,2.8l22.3,12.8c2.8,1.6,7.1,1.8,9.6,0.4l23.7-13.7
									c0.9-0.5,1.4-1.2,1.5-1.9l0,0l0-0.1c0-0.1,0-0.1,0-0.2v-7.7l-16.4-1.2l-8.1-4.7c-2.8-1.6-7.1-1.8-9.6-0.4l-9.2,5.2
									L741.8,271.6z"/>
							</g>
							<g id="XMLID_626_">
								<path id="XMLID_631_" class="st4" d="M799.8,274.2l-23.7,13.7c-2.6,1.5-7.1,1.3-10.1-0.4l-22.3-12.8c-3-1.7-3.3-4.3-0.7-5.8
									l23.7-13.7c2.6-1.5,7.1-1.3,10.1,0.4l22.3,12.8C802.1,270.1,802.4,272.7,799.8,274.2z"/>
								<path id="XMLID_630_" class="st5" d="M765.8,287.4c3,1.7,7.5,1.9,10.1,0.4l23.6-13.6c-0.3-0.2-0.6-0.5-1-0.7l-22.3-12.8
									c-3-1.7-7.5-1.9-10.1-0.4l-23.6,13.6c0.3,0.2,0.6,0.5,1,0.7L765.8,287.4z"/>
								<path id="XMLID_627_" class="st3" d="M771.8,289.3c-2.1,0-4.2-0.5-5.9-1.5L743.6,275c-1.7-1-2.7-2.3-2.7-3.7
									c0-1.2,0.7-2.2,2-2.9l23.7-13.7c2.7-1.6,7.4-1.4,10.5,0.4l22.3,12.8c1.7,1,2.7,2.3,2.7,3.7c0,1.2-0.7,2.2-2,2.9l-23.7,13.7
									C775.1,289,773.5,289.3,771.8,289.3z M771.1,254.6c-1.6,0-3,0.3-4.1,0.9l-23.7,13.7c-1,0.6-1.5,1.3-1.5,2.1
									c0,1,0.8,2.1,2.2,2.9l22.3,12.8c2.8,1.6,7.1,1.8,9.6,0.4l23.7-13.7c1-0.6,1.5-1.3,1.5-2.1c0-1-0.8-2.1-2.2-2.9l-22.3-12.8
									C775,255,773,254.6,771.1,254.6z"/>
							</g>
							<g id="XMLID_614_">
								<g id="XMLID_620_">
									<path id="XMLID_625_" class="st4" d="M794.3,265.5l-24.2-14c-1.1-0.6-2.1-0.7-2.9-0.2l-21.5,12.5c0,0,0,0.1,0,0.1
										l31.6,23.5l21.5-12.5V274C798.7,270.7,796.7,266.9,794.3,265.5z"/>
									<path id="XMLID_624_" class="st5" d="M794.6,269l-24.2-14c-1.1-0.6-2.1-0.7-2.9-0.2l-19,11l28.9,21.5l21.3-12.3
										C798,272.5,796.5,270.1,794.6,269z"/>
									<path id="XMLID_621_" class="st3" d="M777.2,287.9l-32-23.8l0-0.3l0-0.2l0.2-0.2l21.5-12.5c1-0.6,2.1-0.5,3.4,0.2l24.2,14
										c2.6,1.5,4.7,5.5,4.7,8.9v1.2L777.2,287.9z M746.5,263.8l30.8,22.9l21-12.2v-0.6c0-3.1-1.9-6.7-4.2-8.1l-24.2-14
										c-0.9-0.5-1.8-0.6-2.4-0.2L746.5,263.8z"/>
								</g>
								<g id="XMLID_615_">
									<path id="XMLID_619_" class="st4" d="M777.2,287.3l-33.1-19.1v-0.9c0-3.3,2-4.8,4.4-3.4l24.2,14c2.5,1.4,4.4,5.2,4.4,8.5
										L777.2,287.3L777.2,287.3z"/>
									<path id="XMLID_616_" class="st3" d="M777.7,288.1l-34-19.6v-1.2c0-1.9,0.6-3.3,1.8-4c1-0.6,2.1-0.5,3.4,0.2l24.2,14
										c2.6,1.5,4.7,5.5,4.7,8.9L777.7,288.1L777.7,288.1z M744.7,268l32.1,18.5v-0.1c0-3.1-1.9-6.7-4.2-8.1l-24.2-14
										c-0.9-0.5-1.8-0.6-2.4-0.2c-0.8,0.5-1.3,1.6-1.3,3.2L744.7,268L744.7,268z"/>
								</g>
							</g>
						</g>
						<polygon id="XMLID_612_" class="st3" points="775.4,280.6 796.8,267.9 798.2,270.8 798.7,274.9 777.2,287.3 776.8,283.5 
													"/>
						<polygon id="XMLID_611_" class="st3" points="771.8,288.9 771.8,296.9 774.9,296.5 800.6,281.7 801.6,279.9 801.3,272.5 
							799.8,274.2 776.1,287.9 773.2,288.8 						"/>
						<path id="XMLID_610_" class="st4" d="M776.4,296.4l21.9-12.7v-1.1l-22.4,12.9c-0.7,0.4-1.6,0.7-2.6,0.8v0.9
							C774.5,297.2,775.5,296.9,776.4,296.4z"/>
						<polygon id="XMLID_609_" class="st4" points="798,274.8 778.2,286.3 778.2,287.3 798,275.8 						"/>
						<g id="XMLID_604_">
							<path id="XMLID_608_" class="st4" d="M781.9,272.4l-2.3,1.3c-1.3,0.7-3.5,0.6-4.9-0.2l-12.7-7.3c-1.5-0.8-1.6-2.1-0.3-2.8
								l2.3-1.3c1.3-0.7,3.5-0.6,4.9,0.2l12.7,7.3C783,270.5,783.2,271.7,781.9,272.4z"/>
							<path id="XMLID_605_" class="st3" d="M777.9,271.9c-1,0-2.1-0.2-3-0.8l-12.7-7.3c-0.9-0.5-1.4-1.3-1.4-2
								c0-0.6,0.4-1.2,1.1-1.6l2.3-1.3c1.4-0.8,3.8-0.7,5.4,0.2l12.7,7.3c0.9,0.5,1.4,1.3,1.4,2c0,0.6-0.4,1.2-1.1,1.6l-2.3,1.3
								C779.6,271.8,778.7,271.9,777.9,271.9z M766.5,259.3c-0.7,0-1.4,0.1-1.9,0.4l-2.3,1.3c-0.3,0.2-0.6,0.4-0.6,0.8
								s0.4,0.9,1,1.2l12.7,7.3c1.3,0.7,3.3,0.9,4.4,0.2l2.3-1.3c0.3-0.2,0.6-0.4,0.6-0.8s-0.4-0.9-1-1.2l-12.7-7.3
								C768.3,259.5,767.4,259.3,766.5,259.3z"/>
						</g>
					</g>
					<g id="XMLID_535_">
						<g id="XMLID_537_">
							<g id="XMLID_547_">
								<g id="XMLID_582_">
									<g id="XMLID_598_">
										<path id="XMLID_602_" class="st3" d="M714.7,362.1c0-4.4-3.1-9.8-6.9-12c-2-1.1-3.8-1.2-5-0.4l0,0l-6.6,3.9l9.4,17.1
											l7.1-4.2c0,0,0,0,0,0l0,0l0,0C714,365.9,714.7,364.3,714.7,362.1z"/>
										<path id="XMLID_599_" class="st3" d="M705.4,371.5l-9.8-17.9l7.4-4.4l0,0c1.4-0.7,3.2-0.5,5.1,0.6
											c3.9,2.3,7.1,7.8,7.1,12.4c0,2.3-0.8,4-2.2,4.8L705.4,371.5z M696.8,353.9l8.9,16.3l6.7-4c1.2-0.7,1.8-2.1,1.8-4.1
											c0-4.3-3-9.4-6.7-11.6c-1.7-1-3.4-1.2-4.5-0.4l-0.4,0.2l0,0L696.8,353.9z"/>
									</g>
									<g id="XMLID_593_">
										<path id="XMLID_597_" class="st4" d="M707.8,366.2c0,4.4-3.1,6.2-6.9,4c-3.8-2.2-6.9-7.5-6.9-12c0-4.4,3.1-6.2,6.9-4
											C704.7,356.5,707.8,361.8,707.8,366.2z"/>
										<path id="XMLID_594_" class="st3" d="M704,371.6c-1,0-2.1-0.3-3.3-1c-3.9-2.3-7.1-7.8-7.1-12.4c0-2.3,0.8-4,2.2-4.9
											c1.5-0.8,3.3-0.7,5.4,0.5c3.9,2.3,7.1,7.8,7.1,12.4c0,2.3-0.8,4-2.2,4.9C705.4,371.5,704.7,371.6,704,371.6z M697.9,353.8
											c-0.6,0-1.1,0.1-1.6,0.4c-1.2,0.7-1.8,2.1-1.8,4.1c0,4.3,3,9.5,6.7,11.6c1.7,1,3.3,1.2,4.4,0.5c1.2-0.7,1.8-2.1,1.8-4.1
											c0-4.3-3-9.4-6.7-11.6C699.7,354.1,698.7,353.8,697.9,353.8z"/>
									</g>
									<g id="XMLID_588_">
										<path id="XMLID_592_" class="st3" d="M704.4,364.2c0,2.2-1.5,3.1-3.4,2c-1.9-1.1-3.4-3.7-3.4-5.9c0-2.2,1.5-3.1,3.4-2
											C702.8,359.4,704.4,362,704.4,364.2z"/>
										<path id="XMLID_589_" class="st3" d="M702.5,367.1c-0.6,0-1.2-0.2-1.8-0.5c-2.1-1.2-3.7-4-3.7-6.3c0-1.2,0.4-2.2,1.2-2.6
											s1.8-0.4,2.9,0.2c2.1,1.2,3.7,4,3.7,6.3c0,1.2-0.4,2.2-1.2,2.6C703.2,367.1,702.9,367.1,702.5,367.1z M699.4,358.3
											c-0.2,0-0.5,0.1-0.7,0.2c-0.5,0.3-0.8,0.9-0.8,1.8c0,2,1.4,4.5,3.2,5.5c0.8,0.4,1.5,0.5,2,0.2c0.5-0.3,0.8-0.9,0.8-1.8
											c0-2-1.4-4.5-3.2-5.5C700.2,358.4,699.8,358.3,699.4,358.3z"/>
									</g>
									<g id="XMLID_583_">
										<path id="XMLID_587_" class="st4" d="M700.9,358.3c-0.5-0.3-0.9-0.4-1.3-0.5c-0.1,0.3-0.2,0.8-0.2,1.2
											c0,2.2,1.5,4.8,3.4,5.9c0.5,0.3,0.9,0.4,1.3,0.5c0.1-0.3,0.2-0.8,0.2-1.2C704.4,362,702.8,359.4,700.9,358.3z"/>
										<path id="XMLID_584_" class="st3" d="M704.4,366l-0.3,0c-0.5,0-1-0.2-1.5-0.5c-2.1-1.2-3.7-4-3.7-6.3c0-0.5,0.1-1,0.3-1.4
											l0.1-0.3l0.3,0c0.5,0,1,0.2,1.5,0.5l0,0c2.1,1.2,3.7,4,3.7,6.3c0,0.5-0.1,1-0.3,1.4L704.4,366z M699.9,358.3
											c-0.1,0.2-0.1,0.5-0.1,0.7c0,2,1.4,4.5,3.2,5.5c0.3,0.2,0.5,0.3,0.8,0.3c0.1-0.2,0.1-0.5,0.1-0.7c0-2-1.4-4.5-3.2-5.5l0,0
											C700.4,358.5,700.2,358.4,699.9,358.3z"/>
									</g>
								</g>
								<g id="XMLID_576_">
									<path id="XMLID_581_" class="st4" d="M699.8,308.3l0.4,42.2c0.8,0.2,1.6,0.5,2.5,1c4.5,2.6,8.3,9,8.3,14.3
										c0,0.8-0.1,1.5-0.2,2.1l5.6,3.2c2.7,1.6,6.7,1.7,9.1,0.4l4.2-2.4l0.7-5.4l7-4l4.4,2.4l5-2.9c1-0.6,1.3-1.3,1.6-2.1l0,0
										c0,0,0-0.1,0-0.1l6.2-48.4L699.8,308.3z"/>
									<path id="XMLID_580_" class="st3" d="M706.1,308.3l21.7,13.7l-6.2,48.4c0,0,0,0.1,0,0.1l0,0c-0.2,0.7-0.5,1.3-1.2,1.8
										c1.9,0.2,3.8,0,5.2-0.8l4.2-2.4l0.7-5.4l7-4l4.4,2.4l5-2.9c1-0.6,1.3-1.3,1.6-2.1l0,0c0,0,0-0.1,0-0.1l6.2-48.4
										L706.1,308.3z"/>
									<path id="XMLID_577_" class="st3" d="M721.5,372.9c-1.9,0-3.8-0.5-5.4-1.3l-5.9-3.4l0.1-0.3c0.2-0.6,0.2-1.3,0.2-2
										c0-5.1-3.6-11.4-8-13.9c-0.8-0.5-1.6-0.8-2.4-0.9l-0.4-0.1l-0.4-43.1h0.5l55.2,0.3l-6.3,49.1c-0.2,0.9-0.6,1.7-1.8,2.4
										l-5.2,3l-4.4-2.4l-6.6,3.8l-0.7,5.4l-4.4,2.6C724.6,372.6,723.1,372.9,721.5,372.9z M711.3,367.7l5.3,3.1
										c2.6,1.5,6.4,1.6,8.6,0.4l4-2.3l0.7-5.4l7.4-4.3l4.4,2.4l4.8-2.8c0.8-0.5,1.1-1.1,1.3-1.8l6.1-47.9l-53.7-0.3l0.4,41.4
										c0.7,0.2,1.5,0.5,2.3,1c4.7,2.7,8.5,9.3,8.5,14.7C711.5,366.5,711.4,367.1,711.3,367.7z"/>
								</g>
								<g id="XMLID_571_">
									<path id="XMLID_575_" class="st4" d="M745.9,327.6c-0.5-0.3-1.1-0.3-1.5,0l-9.1,5.4c-0.8,0.5-1.3,1.2-1.4,2.1l-3.8,28.2
										l0-0.1l7.3-4.1l4.4,2.4l0.6-0.3l4.1-32.1C746.6,328.4,746.3,327.9,745.9,327.6z"/>
									<g id="XMLID_572_">
										<path id="XMLID_574_" class="st3" d="M737.4,359.7l3.8-29.8l-5.7,3.4c-0.6,0.4-1.1,1-1.2,1.8l-3.9,28.6L737.4,359.7z"/>
										<path id="XMLID_573_" class="st4" d="M735.2,332.9c-0.8,0.5-1.3,1.2-1.4,2.1l-3.7,28.2l0.9-0.5l3.7-27.5
											c0.1-0.6,0.4-1.1,1-1.4l4.9-2.9l-3.6,28.5l0.4-0.1l0.5,0.1l3.9-30.3L735.2,332.9z"/>
									</g>
								</g>
								<g id="XMLID_566_">
									<path id="XMLID_570_" class="st4" d="M757.3,305.5c0-0.1,0-0.2,0-0.3v-7.9c0-0.1-0.1-0.2-0.2-0.2l-16.4-1.2l-8.1-4.7
										c-3-1.7-7.5-1.9-10.1-0.4l-9,5.2l-16.3,0.7c-0.1,0-0.2,0.1-0.2,0.2v7.9c0,0.1,0,0.2,0,0.4l0,0l0,0c0.1,1.1,0.9,2.2,2.5,3.1
										l22.3,12.8c3,1.7,7.5,1.9,10.1,0.4l23.7-13.7C756.7,307.2,757.2,306.4,757.3,305.5l0,0.1L757.3,305.5L757.3,305.5z"/>
									<path id="XMLID_567_" class="st3" d="M727.5,323c-2.1,0-4.2-0.5-5.9-1.5l-22.3-12.8c-1.6-0.9-2.6-2.2-2.7-3.5
										c0-0.1,0-0.3,0-0.4v-7.9c0-0.3,0.3-0.6,0.6-0.6l16.2-0.7l8.9-5.1c2.7-1.6,7.4-1.4,10.5,0.4l8,4.6l16.3,1.2
										c0.4,0,0.6,0.3,0.6,0.7v7.9c0,0.1,0,0.2,0,0.3v0.1c-0.1,1.1-0.8,2-2,2.7L732.1,322C730.9,322.7,729.2,323,727.5,323z
										 M697.6,297.2v7.6c0,0.1,0,0.2,0,0.3c0.1,1,0.9,2,2.2,2.8l22.3,12.8c2.8,1.6,7.1,1.8,9.6,0.4l23.7-13.7
										c0.9-0.5,1.4-1.2,1.5-1.9l0,0l0-0.1c0-0.1,0-0.1,0-0.2v-7.7l-16.4-1.2l-8.1-4.7c-2.8-1.6-7.1-1.8-9.6-0.4l-9.2,5.2
										L697.6,297.2z"/>
								</g>
								<g id="XMLID_560_">
									<path id="XMLID_565_" class="st4" d="M755.6,299.8l-23.7,13.7c-2.6,1.5-7.1,1.3-10.1-0.4l-22.3-12.8
										c-3-1.7-3.3-4.3-0.7-5.8l23.7-13.7c2.6-1.5,7.1-1.3,10.1,0.4l22.3,12.8C757.8,295.7,758.2,298.3,755.6,299.8z"/>
									<path id="XMLID_564_" class="st5" d="M721.6,313.1c3,1.7,7.5,1.9,10.1,0.4l23.6-13.6c-0.3-0.2-0.6-0.5-1-0.7l-22.3-12.8
										c-3-1.7-7.5-1.9-10.1-0.4l-23.6,13.6c0.3,0.2,0.6,0.5,1,0.7L721.6,313.1z"/>
									<path id="XMLID_561_" class="st3" d="M727.5,314.9c-2.1,0-4.2-0.5-5.9-1.5l-22.3-12.8c-1.7-1-2.7-2.3-2.7-3.7
										c0-1.2,0.7-2.2,2-2.9l23.7-13.7c2.7-1.6,7.4-1.4,10.5,0.4l22.3,12.8c1.7,1,2.7,2.3,2.7,3.7c0,1.2-0.7,2.2-2,2.9l-23.7,13.7
										C730.9,314.6,729.2,314.9,727.5,314.9z M726.9,280.2c-1.6,0-3,0.3-4.1,0.9L699,294.8c-1,0.6-1.5,1.3-1.5,2.1
										c0,1,0.8,2.1,2.2,2.9l22.3,12.8c2.8,1.6,7.1,1.8,9.6,0.4l23.7-13.7c1-0.6,1.5-1.3,1.5-2.1c0-1-0.8-2.1-2.2-2.9l-22.3-12.8
										C730.8,280.6,728.8,280.2,726.9,280.2z"/>
								</g>
								<g id="XMLID_548_">
									<g id="XMLID_554_">
										<path id="XMLID_559_" class="st4" d="M750,291.1l-24.2-14c-1.1-0.6-2.1-0.7-2.9-0.2l-21.5,12.5c0,0,0,0.1,0,0.1L733,313
											l21.5-12.5v-0.9C754.5,296.3,752.5,292.5,750,291.1z"/>
										<path id="XMLID_558_" class="st5" d="M750.4,294.7l-24.2-14c-1.1-0.6-2.1-0.7-2.9-0.2l-19,11l28.9,21.5l21.3-12.3
											C753.8,298.1,752.2,295.7,750.4,294.7z"/>
										<path id="XMLID_555_" class="st3" d="M733,313.5l-32-23.8l0-0.3l0-0.2l0.2-0.2l21.5-12.5c1-0.6,2.1-0.5,3.4,0.2l24.2,14
											c2.6,1.5,4.7,5.5,4.7,8.9v1.2L733,313.5z M702.2,289.5l30.8,22.9l21-12.2v-0.6c0-3.1-1.9-6.7-4.2-8.1l-24.2-14
											c-0.9-0.5-1.8-0.6-2.4-0.2L702.2,289.5z"/>
									</g>
									<g id="XMLID_549_">
										<path id="XMLID_553_" class="st4" d="M733,312.9l-33.1-19.1v-0.9c0-3.3,2-4.8,4.4-3.4l24.2,14c2.5,1.4,4.4,5.2,4.4,8.5
											L733,312.9L733,312.9z"/>
										<path id="XMLID_550_" class="st3" d="M733.5,313.7l-34-19.6v-1.2c0-1.9,0.6-3.3,1.8-4c1-0.6,2.1-0.5,3.4,0.2l24.2,14
											c2.6,1.5,4.7,5.5,4.7,8.9L733.5,313.7L733.5,313.7z M700.4,293.6l32.1,18.5V312c0-3.1-1.9-6.7-4.2-8.1l-24.2-14
											c-0.9-0.5-1.8-0.6-2.4-0.2c-0.8,0.5-1.3,1.6-1.3,3.2L700.4,293.6L700.4,293.6z"/>
									</g>
								</g>
							</g>
							<polygon id="XMLID_546_" class="st3" points="731.2,306.2 752.6,293.6 754,296.4 754.5,300.5 733,312.9 732.5,309.1 							
								"/>
							<polygon id="XMLID_545_" class="st3" points="727.6,314.5 727.6,322.5 730.6,322.1 756.3,307.3 757.3,305.5 757,298.2 
								755.6,299.8 731.9,313.5 729,314.4 							"/>
							<path id="XMLID_544_" class="st4" d="M732.1,322l21.9-12.7v-1.1l-22.4,12.9c-0.7,0.4-1.6,0.7-2.6,0.8v0.9
								C730.2,322.8,731.2,322.5,732.1,322z"/>
							<polygon id="XMLID_543_" class="st4" points="753.7,300.4 733.9,311.9 733.9,312.9 753.7,301.4 							"/>
							<g id="XMLID_538_">
								<path id="XMLID_542_" class="st4" d="M737.7,298.1l-2.3,1.3c-1.3,0.7-3.5,0.6-4.9-0.2l-12.7-7.3c-1.5-0.8-1.6-2.1-0.3-2.8
									l2.3-1.3c1.3-0.7,3.5-0.6,4.9,0.2l12.7,7.3C738.8,296.1,738.9,297.3,737.7,298.1z"/>
								<path id="XMLID_539_" class="st3" d="M733.6,297.6c-1,0-2.1-0.2-3-0.8l-12.7-7.3c-0.9-0.5-1.4-1.3-1.4-2
									c0-0.6,0.4-1.2,1.1-1.6l2.3-1.3c1.4-0.8,3.8-0.7,5.4,0.2l12.7,7.3c0.9,0.5,1.4,1.3,1.4,2c0,0.6-0.4,1.2-1.1,1.6L736,297
									C735.3,297.4,734.5,297.6,733.6,297.6z M722.3,284.9c-0.7,0-1.4,0.1-1.9,0.4l-2.3,1.3c-0.3,0.2-0.6,0.4-0.6,0.8
									s0.4,0.9,1,1.2l12.7,7.3c1.3,0.7,3.3,0.9,4.4,0.2l2.3-1.3c0.3-0.2,0.6-0.4,0.6-0.8s-0.4-0.9-1-1.2l-12.7-7.3
									C724.1,285.1,723.1,284.9,722.3,284.9z"/>
							</g>
						</g>
						<polygon id="XMLID_536_" class="st4" points="751.9,331.1 751.1,330.3 750.4,335.8 751.2,336.7 						"/>
					</g>
					<g id="XMLID_463_">
						<g id="XMLID_469_">
							<g id="XMLID_479_">
								<g id="XMLID_514_">
									<g id="XMLID_530_">
										<path id="XMLID_534_" class="st3" d="M670.3,388.5c0-4.4-3.1-9.8-6.9-12c-2-1.1-3.8-1.2-5-0.4l0,0l-6.6,3.9l9.4,17.1
											l7.1-4.2c0,0,0,0,0,0l0,0l0,0C669.5,392.2,670.3,390.6,670.3,388.5z"/>
										<path id="XMLID_531_" class="st3" d="M660.9,397.8l-9.8-17.9l7.4-4.4l0,0c1.4-0.7,3.2-0.5,5.1,0.6
											c3.9,2.3,7.1,7.8,7.1,12.4c0,2.3-0.8,4-2.2,4.8L660.9,397.8z M652.4,380.2l8.9,16.3l6.7-4c1.2-0.7,1.8-2.1,1.8-4.1
											c0-4.3-3-9.4-6.7-11.6c-1.7-1-3.4-1.2-4.5-0.4l-0.4,0.2l0,0L652.4,380.2z"/>
									</g>
									<g id="XMLID_525_">
										<path id="XMLID_529_" class="st4" d="M663.4,392.5c0,4.4-3.1,6.2-6.9,4c-3.8-2.2-6.9-7.5-6.9-12c0-4.4,3.1-6.2,6.9-4
											C660.3,382.8,663.4,388.2,663.4,392.5z"/>
										<path id="XMLID_526_" class="st3" d="M659.6,398c-1,0-2.1-0.3-3.3-1c-3.9-2.3-7.1-7.8-7.1-12.4c0-2.3,0.8-4,2.2-4.9
											c1.5-0.8,3.3-0.7,5.4,0.5c3.9,2.3,7.1,7.8,7.1,12.4c0,2.3-0.8,4-2.2,4.9C661,397.8,660.3,398,659.6,398z M653.4,380.1
											c-0.6,0-1.1,0.1-1.6,0.4c-1.2,0.7-1.8,2.1-1.8,4.1c0,4.3,3,9.5,6.7,11.6c1.7,1,3.3,1.2,4.4,0.5c1.2-0.7,1.8-2.1,1.8-4.1
											c0-4.3-3-9.4-6.7-11.6C655.2,380.4,654.3,380.1,653.4,380.1z"/>
									</g>
									<g id="XMLID_520_">
										<path id="XMLID_524_" class="st3" d="M659.9,390.5c0,2.2-1.5,3.1-3.4,2c-1.9-1.1-3.4-3.7-3.4-5.9c0-2.2,1.5-3.1,3.4-2
											C658.4,385.7,659.9,388.4,659.9,390.5z"/>
										<path id="XMLID_521_" class="st3" d="M658,393.5c-0.6,0-1.2-0.2-1.8-0.5c-2.1-1.2-3.7-4-3.7-6.3c0-1.2,0.4-2.2,1.2-2.6
											c0.8-0.5,1.8-0.4,2.9,0.2c2.1,1.2,3.7,4,3.7,6.3c0,1.2-0.4,2.2-1.2,2.6C658.8,393.4,658.4,393.5,658,393.5z M654.9,384.6
											c-0.2,0-0.5,0.1-0.7,0.2c-0.5,0.3-0.8,0.9-0.8,1.8c0,2,1.4,4.5,3.2,5.5c0.8,0.4,1.5,0.5,2,0.2c0.5-0.3,0.8-0.9,0.8-1.8
											c0-2-1.4-4.5-3.2-5.5C655.8,384.7,655.3,384.6,654.9,384.6z"/>
									</g>
									<g id="XMLID_515_">
										<path id="XMLID_519_" class="st4" d="M656.5,384.6c-0.5-0.3-0.9-0.4-1.3-0.5c-0.1,0.3-0.2,0.8-0.2,1.2
											c0,2.2,1.5,4.8,3.4,5.9c0.5,0.3,0.9,0.4,1.3,0.5c0.1-0.3,0.2-0.8,0.2-1.2C659.9,388.4,658.4,385.7,656.5,384.6z"/>
										<path id="XMLID_516_" class="st3" d="M660,392.3l-0.3,0c-0.5,0-1-0.2-1.5-0.5c-2.1-1.2-3.7-4-3.7-6.3c0-0.5,0.1-1,0.3-1.4
											l0.1-0.3l0.3,0c0.5,0,1,0.2,1.5,0.5l0,0c2.1,1.2,3.7,4,3.7,6.3c0,0.5-0.1,1-0.3,1.4L660,392.3z M655.5,384.7
											c-0.1,0.2-0.1,0.5-0.1,0.7c0,2,1.4,4.5,3.2,5.5c0.3,0.2,0.5,0.3,0.8,0.3c0.1-0.2,0.1-0.5,0.1-0.7c0-2-1.4-4.5-3.2-5.5l0,0
											C656,384.8,655.7,384.7,655.5,384.7z"/>
									</g>
								</g>
								<g id="XMLID_508_">
									<path id="XMLID_513_" class="st4" d="M655.4,334.6l0.4,42.2c0.8,0.2,1.6,0.5,2.5,1c4.5,2.6,8.3,9,8.3,14.3
										c0,0.8-0.1,1.5-0.2,2.1l5.6,3.2c2.7,1.6,6.7,1.7,9.1,0.4l4.2-2.4l0.7-5.4l7-4l4.4,2.4l5-2.9c1-0.6,1.3-1.3,1.6-2.1l0,0
										c0,0,0-0.1,0-0.1l6.2-48.4L655.4,334.6z"/>
									<path id="XMLID_512_" class="st3" d="M661.7,334.6l21.7,13.7l-6.2,48.4c0,0,0,0.1,0,0.1l0,0c-0.2,0.7-0.5,1.3-1.2,1.8
										c1.9,0.2,3.8,0,5.2-0.8l4.2-2.4l0.7-5.4l7-4l4.4,2.4l5-2.9c1-0.6,1.3-1.3,1.6-2.1l0,0c0,0,0-0.1,0-0.1l6.2-48.4
										L661.7,334.6z"/>
									<path id="XMLID_509_" class="st3" d="M677.1,399.2c-1.9,0-3.8-0.5-5.4-1.3l-5.9-3.4l0.1-0.3c0.2-0.6,0.2-1.3,0.2-2
										c0-5.1-3.6-11.4-8-13.9c-0.8-0.5-1.6-0.8-2.4-0.9l-0.4-0.1l-0.4-43.1h0.5l55.2,0.3l-6.3,49.1c-0.2,0.9-0.6,1.7-1.8,2.4
										l-5.2,3l-4.4-2.4l-6.6,3.8l-0.7,5.4l-4.4,2.6C680.1,398.9,678.6,399.2,677.1,399.2z M666.9,394l5.3,3.1
										c2.6,1.5,6.4,1.6,8.6,0.4l4-2.3l0.7-5.4l7.4-4.3l4.4,2.4l4.8-2.8c0.8-0.5,1.1-1.1,1.3-1.8l6.1-47.9l-53.7-0.3l0.4,41.4
										c0.7,0.2,1.5,0.5,2.3,1c4.7,2.7,8.5,9.3,8.5,14.7C667,392.8,667,393.4,666.9,394z"/>
								</g>
								<g id="XMLID_503_">
									<path id="XMLID_507_" class="st4" d="M701.4,353.9c-0.5-0.3-1.1-0.3-1.5,0l-9.1,5.4c-0.8,0.5-1.3,1.2-1.4,2.1l-3.8,28.2
										l0-0.1l7.3-4.1l4.4,2.4l0.6-0.3l4.1-32.1C702.1,354.7,701.9,354.2,701.4,353.9z"/>
									<g id="XMLID_504_">
										<path id="XMLID_506_" class="st3" d="M692.9,386l3.8-29.8l-5.7,3.4c-0.6,0.4-1.1,1-1.2,1.8L686,390L692.9,386z"/>
										<path id="XMLID_505_" class="st4" d="M690.8,359.2c-0.8,0.5-1.3,1.2-1.4,2.1l-3.7,28.2l0.9-0.5l3.7-27.5
											c0.1-0.6,0.4-1.1,1-1.4l4.9-2.9l-3.6,28.5l0.4-0.1l0.5,0.1l3.9-30.3L690.8,359.2z"/>
									</g>
								</g>
								<g id="XMLID_498_">
									<path id="XMLID_502_" class="st4" d="M712.9,331.8c0-0.1,0-0.2,0-0.3v-7.9c0-0.1-0.1-0.2-0.2-0.2l-16.4-1.2l-8.1-4.7
										c-3-1.7-7.5-1.9-10.1-0.4l-9,5.2l-16.3,0.7c-0.1,0-0.2,0.1-0.2,0.2v7.9c0,0.1,0,0.2,0,0.4l0,0l0,0c0.1,1.1,0.9,2.2,2.5,3.1
										l22.3,12.8c3,1.7,7.5,1.9,10.1,0.4l23.7-13.7C712.2,333.6,712.8,332.8,712.9,331.8l0,0.1L712.9,331.8L712.9,331.8z"/>
									<path id="XMLID_499_" class="st3" d="M683,349.3c-2.1,0-4.2-0.5-5.9-1.5L654.9,335c-1.6-0.9-2.6-2.2-2.7-3.5
										c0-0.1,0-0.3,0-0.4v-7.9c0-0.3,0.3-0.6,0.6-0.6l16.2-0.7l8.9-5.1c2.7-1.6,7.4-1.4,10.5,0.4l8,4.6l16.3,1.2
										c0.4,0,0.6,0.3,0.6,0.7v7.9c0,0.1,0,0.2,0,0.3v0.1c-0.1,1.1-0.8,2-2,2.7l-23.7,13.7C686.4,349,684.8,349.3,683,349.3z
										 M653.1,323.5v7.6c0,0.1,0,0.2,0,0.3c0.1,1,0.9,2,2.2,2.8l22.3,12.8c2.8,1.6,7.1,1.8,9.6,0.4l23.7-13.7
										c0.9-0.5,1.4-1.2,1.5-1.9l0,0l0-0.1c0-0.1,0-0.1,0-0.2v-7.7l-16.4-1.2l-8.1-4.7c-2.8-1.6-7.1-1.8-9.6-0.4l-9.2,5.2
										L653.1,323.5z"/>
								</g>
								<g id="XMLID_492_">
									<path id="XMLID_497_" class="st4" d="M711.1,326.1l-23.7,13.7c-2.6,1.5-7.1,1.3-10.1-0.4l-22.3-12.8
										c-3-1.7-3.3-4.3-0.7-5.8l23.7-13.7c2.6-1.5,7.1-1.3,10.1,0.4l22.3,12.8C713.4,322,713.7,324.6,711.1,326.1z"/>
									<path id="XMLID_496_" class="st5" d="M677.1,339.4c3,1.7,7.5,1.9,10.1,0.4l23.6-13.6c-0.3-0.2-0.6-0.5-1-0.7l-22.3-12.8
										c-3-1.7-7.5-1.9-10.1-0.4l-23.6,13.6c0.3,0.2,0.6,0.5,1,0.7L677.1,339.4z"/>
									<path id="XMLID_493_" class="st3" d="M683,341.3c-2.1,0-4.2-0.5-5.9-1.5L654.9,327c-1.7-1-2.7-2.3-2.7-3.7
										c0-1.2,0.7-2.2,2-2.9l23.7-13.7c2.7-1.6,7.4-1.4,10.5,0.4l22.3,12.8c1.7,1,2.7,2.3,2.7,3.7c0,1.2-0.7,2.2-2,2.9l-23.7,13.7
										C686.4,340.9,684.8,341.3,683,341.3z M682.4,306.5c-1.6,0-3,0.3-4.1,0.9l-23.7,13.7c-1,0.6-1.5,1.3-1.5,2.1
										c0,1,0.8,2.1,2.2,2.9l22.3,12.8c2.8,1.6,7.1,1.8,9.6,0.4l23.7-13.7c1-0.6,1.5-1.3,1.5-2.1c0-1-0.8-2.1-2.2-2.9l-22.3-12.8
										C686.3,306.9,684.3,306.5,682.4,306.5z"/>
								</g>
								<g id="XMLID_480_">
									<g id="XMLID_486_">
										<path id="XMLID_491_" class="st4" d="M705.6,317.4l-24.2-14c-1.1-0.6-2.1-0.7-2.9-0.2L657,315.7c0,0,0,0.1,0,0.1
											l31.6,23.5l21.5-12.5v-0.9C710,322.6,708,318.8,705.6,317.4z"/>
										<path id="XMLID_490_" class="st5" d="M705.9,321l-24.2-14c-1.1-0.6-2.1-0.7-2.9-0.2l-19,11l28.9,21.5l21.3-12.3
											C709.3,324.4,707.7,322,705.9,321z"/>
										<path id="XMLID_487_" class="st3" d="M688.5,339.8l-32-23.8l0-0.3l0-0.2l0.2-0.2l21.5-12.5c1-0.6,2.1-0.5,3.4,0.2l24.2,14
											c2.6,1.5,4.7,5.5,4.7,8.9v1.2L688.5,339.8z M657.8,315.8l30.8,22.9l21-12.2v-0.6c0-3.1-1.9-6.7-4.2-8.1l-24.2-14
											c-0.9-0.5-1.8-0.6-2.4-0.2L657.8,315.8z"/>
									</g>
									<g id="XMLID_481_">
										<path id="XMLID_485_" class="st4" d="M688.5,339.3l-33.1-19.1v-0.9c0-3.3,2-4.8,4.4-3.4l24.2,14c2.5,1.4,4.4,5.2,4.4,8.5
											L688.5,339.3L688.5,339.3z"/>
										<path id="XMLID_482_" class="st3" d="M689,340.1l-34-19.6v-1.2c0-1.9,0.6-3.3,1.8-4c1-0.6,2.1-0.5,3.4,0.2l24.2,14
											c2.6,1.5,4.7,5.5,4.7,8.9L689,340.1L689,340.1z M656,319.9l32.1,18.5v-0.1c0-3.1-1.9-6.7-4.2-8.1l-24.2-14
											c-0.9-0.5-1.8-0.6-2.4-0.2c-0.8,0.5-1.3,1.6-1.3,3.2L656,319.9L656,319.9z"/>
									</g>
								</g>
							</g>
							<polygon id="XMLID_478_" class="st3" points="686.7,332.5 708.1,319.9 709.5,322.7 710,326.8 688.5,339.3 688.1,335.4 
															"/>
							<polygon id="XMLID_477_" class="st3" points="683.1,340.8 683.1,348.9 686.2,348.4 711.9,333.6 712.9,331.9 712.6,324.5 
								711.1,326.1 687.4,339.8 684.5,340.7 							"/>
							<path id="XMLID_476_" class="st4" d="M687.6,348.3l21.9-12.7v-1.1l-22.4,12.9c-0.7,0.4-1.6,0.7-2.6,0.8v0.9
								C685.8,349.1,686.8,348.8,687.6,348.3z"/>
							<polygon id="XMLID_475_" class="st4" points="709.3,326.7 689.5,338.2 689.5,339.3 709.3,327.8 							"/>
							<g id="XMLID_470_">
								<path id="XMLID_474_" class="st4" d="M693.2,324.4l-2.3,1.3c-1.3,0.7-3.5,0.6-4.9-0.2l-12.7-7.3c-1.5-0.8-1.6-2.1-0.3-2.8
									l2.3-1.3c1.3-0.7,3.5-0.6,4.9,0.2l12.7,7.3C694.3,322.4,694.5,323.7,693.2,324.4z"/>
								<path id="XMLID_471_" class="st3" d="M689.2,323.9c-1,0-2.1-0.2-3-0.8l-12.7-7.3c-0.9-0.5-1.4-1.3-1.4-2
									c0-0.6,0.4-1.2,1.1-1.6l2.3-1.3c1.4-0.8,3.8-0.7,5.4,0.2l12.7,7.3c0.9,0.5,1.4,1.3,1.4,2c0,0.6-0.4,1.2-1.1,1.6l-2.3,1.3
									C690.9,323.7,690,323.9,689.2,323.9z M677.8,311.2c-0.7,0-1.4,0.1-1.9,0.4l-2.3,1.3c-0.3,0.2-0.6,0.4-0.6,0.8
									c0,0.4,0.4,0.9,1,1.2l12.7,7.3c1.3,0.7,3.3,0.9,4.4,0.2l2.3-1.3c0.3-0.2,0.6-0.4,0.6-0.8s-0.4-0.9-1-1.2l-12.7-7.3
									C679.6,311.5,678.7,311.2,677.8,311.2z"/>
							</g>
						</g>
						<polygon id="XMLID_468_" class="st4" points="707.5,356.4 706.7,355.6 706,361.1 706.8,362 						"/>
						<g id="XMLID_464_">
							<path id="XMLID_465_" class="st3" d="M663.5,359.2c-0.3,0-0.6-0.1-0.9-0.3l-2.4-1.4c-1.1-0.6-1.9-2.2-1.9-3.6v-10.9
								c0-0.8,0.3-1.4,0.8-1.7c0.4-0.3,1-0.2,1.5,0.1l2.4,1.4c1.1,0.6,1.9,2.2,1.9,3.6v10.9c0,0.8-0.3,1.4-0.8,1.7
								C663.9,359.2,663.7,359.2,663.5,359.2z M659.8,342.1c-0.1,0-0.1,0-0.2,0c-0.2,0.1-0.3,0.5-0.3,0.9v10.9
								c0,1.1,0.6,2.3,1.4,2.8l2.4,1.4c0.1,0.1,0.4,0.2,0.6,0.1c0.2-0.1,0.3-0.5,0.3-0.9v-10.9c0-1.1-0.6-2.3-1.4-2.8l-2.4-1.4
								C660.1,342.2,660,342.1,659.8,342.1z"/>
						</g>
					</g>
				</g>
			</g>
			<g id="XMLID_164_">
				<g id="XMLID_165_">
					<g id="XMLID_415_">
						<g id="XMLID_456_">
							<polygon id="XMLID_460_" class="st4" points="693.4,247.6 672.8,235.6 697.9,232.3 700.9,237.2 							"/>
							<path id="XMLID_457_" class="st3" d="M692.9,248.6l-22.1-13.3l27.4-3.7l3.4,5.6L692.9,248.6z M674.7,236l18.1,11.2l7.3-10.1
								l-2.5-4.1L674.7,236z"/>
						</g>
						<g id="XMLID_437_">
							<g id="XMLID_454_">
								<path id="XMLID_455_" class="st4" d="M675.1,274c0,0-4.8,0-10.1-3.3c-5.3-3.3-7.9-5-9.5-6.9c-1.6-2,8.3-19,8.3-19l7.2-11.2
									c0,0,11.2,4,16.2,9.3c5,5.3-6.2,20.1-6.2,20.1L675.1,274z"/>
							</g>
							<g id="XMLID_450_">
								<path id="XMLID_451_" class="st3" d="M690.7,249.4c-0.4-3.1-1.5-5.4-3.2-6.8c0,0,0,0,0,0c-5-5.4-15.9-9.3-16.3-9.4l-0.3-0.1
									l-7.4,11.6c-2.4,4.1-9.9,17.5-8.3,19.5c1.6,2,4.1,3.6,9.1,6.7l0.5,0.3c3.4,2.1,6.6,2.9,8.5,3.2c0.5,0.1,1,0.2,1.5,0.2
									c0.1,0,0.2,0,0.3,0c0,0,0,0,0,0s0,0,0,0h0.3l0,0c1.8-0.2,3.7-1,5.6-2.4C687.2,267.4,691.6,257.2,690.7,249.4z M664.7,270
									c-5-3.1-7.4-4.7-8.9-6.5c-0.8-1.1,3.7-10.4,8.3-18.4l7-10.9c1.7,0.6,8.8,3.4,13.5,7.1c-2.3-0.4-4.9,0.4-7.5,2.3
									c-6.3,4.7-10.7,14.8-9.7,22.6c0.3,2.8,1.3,5,2.8,6.4c-1.5-0.5-3.2-1.2-5-2.3L664.7,270z"/>
							</g>
							<g id="XMLID_445_">
								<g id="XMLID_446_">
									<path id="XMLID_447_" class="st4" d="M675.9,269.9c-0.7,0-1.3-0.1-1.9-0.4c-1.9-0.8-3.1-2.8-3.5-5.7
										c-0.7-5.6,2.5-13,7.1-16.4c2.3-1.7,4.6-2.2,6.5-1.4c1.9,0.8,3.1,2.8,3.5,5.7c0.7,5.6-2.5,13-7.1,16.4
										C678.9,269.3,677.4,269.9,675.9,269.9z M682.2,246.7c-1.2,0-2.6,0.5-4,1.6c-4.3,3.2-7.3,10.2-6.7,15.5
										c0.3,2.5,1.3,4.2,2.9,4.9c1.6,0.7,3.6,0.2,5.6-1.3c4.3-3.2,7.3-10.2,6.7-15.5c-0.3-2.5-1.3-4.2-2.9-4.9
										C683.3,246.8,682.7,246.7,682.2,246.7z"/>
								</g>
							</g>
							<g id="XMLID_440_">
								<g id="XMLID_441_">
									<path id="XMLID_442_" class="st4" d="M675.9,269.9c-1.1,0-2.1-0.3-2.9-1l-0.8-0.8l1.1-0.1c1.2-0.1,2.5-0.6,3.7-1.6
										c4.3-3.2,7.3-10.2,6.7-15.5c-0.2-2-1-3.6-2.1-4.4l-0.9-0.7l1.1-0.2c3.1-0.2,5.3,2.1,5.7,6c0.7,5.6-2.5,13-7.1,16.4
										C679,269.3,677.4,269.9,675.9,269.9z M674.7,268.8c1.5,0.5,3.4,0,5.2-1.4c4.3-3.2,7.3-10.2,6.7-15.5l0,0
										c-0.3-2.8-1.7-4.7-3.5-5.1c0.8,1,1.3,2.4,1.5,4.1c0.7,5.6-2.5,13-7.1,16.4C676.6,268,675.6,268.5,674.7,268.8z"/>
								</g>
							</g>
							<g id="XMLID_438_">
								<path id="XMLID_439_" class="st5" d="M683.3,255.7c0.3,2.6-1.2,6.1-3.3,7.7c-2.1,1.6-4.1,0.7-4.4-1.9s1.2-6.1,3.3-7.7
									C681,252.2,683,253,683.3,255.7z"/>
							</g>
						</g>
						<g id="XMLID_425_">
							<g id="XMLID_431_">
								<polygon id="XMLID_436_" class="st4" points="726.2,209.5 555.1,307.7 469,258.2 640.2,160 								"/>
								<polygon id="XMLID_435_" class="st5" points="726.5,215.4 690.4,236.3 685.6,235.3 670.5,243.8 664.5,251.3 555.4,313.7 
									469.3,264.2 640.5,165.9 								"/>
								<path id="XMLID_432_" class="st3" d="M555.1,308.5l-87.3-50.2l1-0.6l171.5-98.4l0.3,0.2l86.4,49.7L555.1,308.5z
									 M470.3,258.2l84.8,48.8L725,209.5l-84.8-48.8L470.3,258.2z"/>
							</g>
							<g id="XMLID_426_">
								<path id="XMLID_430_" class="st3" d="M726.2,209.5l-161.1,92.4v13.3l73.9-42.4l7.9,1.8l14.6-8.4l2.6-7.9
									c1.8-6.2,5.9-13.8,14.9-19c7.4-4.3,11.2-1.4,13.3,2.6l1.1,5.8l15.7-9.2l6.2-10l11-6.3L726.2,209.5L726.2,209.5L726.2,209.5z
									"/>
								<path id="XMLID_427_" class="st3" d="M564.5,316.3v-14.7l0.3-0.2l162-92.2v13.4l-11.1,6.4l-6.2,10l-16.6,9.7l-1.3-6.6
									c-1.1-2.1-2.5-3.5-4.3-4c-2.2-0.6-4.9-0.1-8.1,1.8c-9.1,5.3-13,13-14.6,18.6l-2.6,8.2l-15,8.7l-7.9-1.8L564.5,316.3z
									 M565.8,302.3V314l73.2-42l7.9,1.8l14.1-8.2l2.5-7.7c1.7-5.8,5.7-13.9,15.2-19.3c3.5-2,6.5-2.6,9-1.9
									c2.1,0.6,3.8,2.2,5.1,4.7l0.1,0.2l0.9,4.9l14.8-8.7l6.2-10l10.8-6.2v-11.2L565.8,302.3z"/>
							</g>
						</g>
						<g id="XMLID_420_">
							<path id="XMLID_424_" class="st4" d="M726.2,218.8l-9.1,5.3c-1,0.6-2.3-0.2-2.3-1.3v-1.2c0-1.2,0.7-2.4,1.7-3l9.7-5.6V218.8z
								"/>
							<path id="XMLID_421_" class="st3" d="M716.3,224.9c-0.4,0-0.7-0.1-1.1-0.3c-0.7-0.4-1.1-1.1-1.1-1.9v-1.2
								c0-1.5,0.8-2.8,2.1-3.6l10.6-6.1v7.3l-9.5,5.5C717.1,224.8,716.7,224.9,716.3,224.9z M725.6,214.1l-8.7,5
								c-0.9,0.5-1.4,1.4-1.4,2.5v1.2c0,0.3,0.2,0.6,0.4,0.8c0.3,0.2,0.6,0.2,0.9,0l8.8-5.1L725.6,214.1L725.6,214.1z"/>
						</g>
						<g id="XMLID_416_">
							<path id="XMLID_417_" class="st4" d="M648.6,269.3c-0.3,0-0.5-0.1-0.7-0.2c-0.6-0.3-0.9-1-0.9-1.9v-0.6c0-1.5,0.9-3.1,2-3.8
								l5.9-3.4c0.6-0.3,1.2-0.4,1.7-0.1c0.6,0.3,0.9,1,0.9,1.9v0.6c0,1.5-0.9,3.1-2,3.8l-5.9,3.4
								C649.3,269.2,648.9,269.3,648.6,269.3z M655.9,260.3c-0.1,0-0.3,0.1-0.3,0.1l-5.9,3.4c-0.7,0.4-1.4,1.7-1.4,2.7v0.6
								c0,0.5,0.1,0.7,0.3,0.8c0.1,0.1,0.4,0,0.5-0.1l5.9-3.4c0.7-0.4,1.4-1.7,1.4-2.7v-0.6c0-0.5-0.1-0.7-0.3-0.8
								C656,260.4,655.9,260.3,655.9,260.3z"/>
						</g>
					</g>
					<g id="XMLID_303_">
						<polygon id="XMLID_414_" class="st3" points="707.5,214.2 573.6,291.5 573.6,190.1 707.5,112.8 746.5,142.6 746.5,183.6 
													"/>
						<g id="XMLID_386_">
							<g id="XMLID_405_">
								<g id="XMLID_410_">
									<path id="XMLID_411_" class="st4" d="M643.3,232l-10.5-6l10.5-18v6.3l12.1-7c1.8-1.1,3-2.2,3.2-2.4l0.3-0.3l0.8,0.5
										l-0.2,0.5l-4.5,11.4c-0.7,1.9-2.1,3.6-3.6,4.4l-8.1,4.7L643.3,232L643.3,232z M634.4,225.6l7.8,4.4v-4.7l8.7-5
										c1.3-0.7,2.5-2.2,3.1-3.9l3.7-9.3c-0.5,0.3-1,0.7-1.7,1.1l-13.8,8v-4L634.4,225.6z"/>
								</g>
								<g id="XMLID_406_">
									<path id="XMLID_407_" class="st4" d="M648.9,210.2l-5.6-7.9l8.5-10.6l7,9.7c0.3,0.4,0.4,1,0.2,1.6c-0.2,1-0.8,1.9-1.6,2.3
										L648.9,210.2z M644.6,202.3l4.5,6.4l7.6-4.4c0.5-0.3,0.9-0.9,1.1-1.6c0.1-0.3,0.1-0.6,0-0.7l-6.1-8.5L644.6,202.3z"/>
								</g>
							</g>
							<g id="XMLID_396_">
								<g id="XMLID_401_">
									<path id="XMLID_402_" class="st4" d="M613.3,240.8l-0.2-0.3l-4.2-6.5c-0.8-1.2-0.8-3.1,0-5l4-10.2l-4.5-0.5l14.1-12.4
										l3.6,14.3l-4.2-0.5l-6.4,16.3c-0.9,2.4-1.2,3.9-1.2,4.1l0,0.4L613.3,240.8z M611.1,217.4l3.4,0.4l-4.6,11.6
										c-0.6,1.6-0.7,3.1-0.1,4l3.5,5.4c0.2-0.8,0.5-1.8,1-3.1l6.8-17.1l3.5,0.4l-2.7-10.9L611.1,217.4z"/>
								</g>
								<g id="XMLID_397_">
									<path id="XMLID_398_" class="st4" d="M616.3,240.6c-0.3,0-0.6-0.1-0.8-0.3c-0.6-0.5-0.7-1.4-0.3-2.4l4.2-10.6l11.2-6.3
										l-0.1,11.8l-13.3,7.6C616.9,240.5,616.6,240.6,616.3,240.6z M620.3,228.1l-4.1,10.2c-0.3,0.6-0.1,1,0,1.1
										c0.1,0.1,0.2,0,0.4-0.1l12.7-7.3l0.1-9.2L620.3,228.1z"/>
								</g>
							</g>
							<g id="XMLID_387_">
								<g id="XMLID_392_">
									<path id="XMLID_393_" class="st4" d="M632.1,199.2l4.7-5.9l-6.4-8.6c-0.9-1.2-1.7-1.5-1.8-1.5l-0.4-0.1l-0.1-0.7l0.3-0.2
										l8.8-5.2c1.6-1,3.2-0.8,4.1,0.4l3.9,5.2l4.9-6.3l-3.5,18.8L632.1,199.2z M629.8,182.6c0.4,0.3,0.9,0.7,1.5,1.4l7,9.3
										l-3,3.9l10.5-3l2.6-13.6l-3,3.8l-4.8-6.4c-0.5-0.7-1.5-0.7-2.6-0.1L629.8,182.6z"/>
								</g>
								<g id="XMLID_388_">
									<path id="XMLID_389_" class="st4" d="M628.1,203.9l-9.1-0.5l6.4-17.5c0.4-1.1,1.3-2,2.2-2.1c0.5-0.1,0.9,0.1,1.2,0.5
										l4.4,5.8L628.1,203.9z M620.6,202.3l6.7,0.4l4.6-12.4l-4-5.4c0,0-0.1-0.1-0.2-0.1c-0.4,0.1-1,0.6-1.3,1.4L620.6,202.3z"/>
								</g>
							</g>
						</g>
						<g id="XMLID_382_">
							<path id="XMLID_383_" class="st4" d="M581.8,278.2v-85L706,121.4l33.3,23.9v35.6l-0.2,0.2l-32.3,25L581.8,278.2z
								 M582.9,193.9v82.3l123.2-71.1l32-24.8v-34.5l-32.3-23.1L582.9,193.9z"/>
						</g>
						<polygon id="XMLID_381_" class="st4" points="573.6,190.1 499.1,146.9 499.1,248.2 573.6,291.5 						"/>
						<g id="XMLID_373_">
							<polygon id="XMLID_380_" class="st4" points="633,69.6 707.5,112.8 573.6,190.1 499.1,146.9 							"/>
							<polygon id="XMLID_379_" class="st5" points="504.7,150.2 573.6,190.1 701.8,116.1 633,76.2 							"/>
							<path id="XMLID_374_" class="st3" d="M707.8,112.3l-0.3-0.2L633,68.9l-133.9,77.3l-0.6,0.3v0.6v101.4l74.5,43.2l0.6,0.3
								l0.6-0.3l133.6-77.1l39.1-30.6l0.2-0.2v-41.5L707.8,112.3z M500.2,146.9L633,70.2l73.4,42.6l-132.8,76.7L528,163L500.2,146.9
								z M499.6,247.9v-100l73.4,42.6v100.1L499.6,247.9z M746,183.3l-38.8,30.4l-133,76.8v-100l133.3-77l38.5,29.4L746,183.3
								L746,183.3z"/>
						</g>
						<g id="XMLID_368_">
							<polygon id="XMLID_372_" class="st3" points="694.7,226.7 682.9,233.5 682.9,127 694.7,120.2 							"/>
							<path id="XMLID_369_" class="st3" d="M682.3,234.5V126.6l12.9-7.4V227L682.3,234.5z M683.5,127.3v105.2l10.6-6.1V121.2
								L683.5,127.3z"/>
						</g>
						<polygon id="XMLID_367_" class="st4" points="597.4,78.8 682.9,127 694.7,120.2 609.2,72 						"/>
						<polygon id="XMLID_366_" class="st5" points="597.7,83.7 683.2,131.9 682.9,127 690.5,122.6 609.4,76.9 						"/>
						<g id="XMLID_360_">
							<polygon id="XMLID_365_" class="st4" points="597.4,90.1 597.4,78.8 682.9,127 682.9,233.5 678.5,230.8 678.5,129.6 
								602.7,87.1 							"/>
							<path id="XMLID_361_" class="st3" d="M695.8,120.2l-86.7-48.8l-11.8,6.8l-0.6,0.3v0.6v12l5.9-3.4l75.2,42.2v101.3l5.6,3.3
								V127.3L695.8,120.2z M598.5,78.8l10.6-6.1l84.4,47.5l-10.6,6.1l-15.5-8.7L598.5,78.8z M682.3,232.5l-3.3-2V129.2l-76.3-42.8
								l-4.7,2.7v-9.4l68.6,38.7l15.7,8.9L682.3,232.5L682.3,232.5z"/>
						</g>
						<polygon id="XMLID_359_" class="st4" points="572.5,170.8 524.3,143.2 544.7,131.5 592.9,159 						"/>
						<polygon id="XMLID_358_" class="st5" points="572.5,176.2 524.3,148.7 544.7,136.9 592.9,164.5 						"/>
						<polygon id="XMLID_357_" class="st4" points="524.3,143.2 524.3,148.7 572.5,176.2 572.5,170.8 						"/>
						<path id="XMLID_353_" class="st3" d="M592.9,158.4L545,131l-0.3-0.2l-20.4,11.8l-0.6,0.3v0.6v5.5l48.2,27.6l0.6,0.3l0.6-0.3
							l20.4-11.8v-5.5v-0.6L592.9,158.4z M572,175.3l-47-26.9v-4.1l47,26.9V175.3z M525.5,143.2l19.2-11.1l47,26.9l-19.2,11.1
							L525.5,143.2z"/>
						<g id="XMLID_351_">
							<polygon id="XMLID_352_" class="st4" points="695.2,219.6 694.1,220.3 694.1,122.7 695.2,122 							"/>
						</g>
						<g id="XMLID_349_">
							<polygon id="XMLID_350_" class="st4" points="684,233.2 684,231.9 693.6,226.4 693.6,227.7 							"/>
						</g>
						<g id="XMLID_310_">
							<g id="XMLID_332_">
								<path id="XMLID_347_" class="st5" d="M512,179.6c0.5-0.4,1.2-0.5,2.1-0.1c0.4,0.1,0.6,0.5,0.6,1v0c0,0.4-0.2,0.5-0.6,0.4
									c-1.2-0.5-2.1,0-2.1,1.6v4.3c0,0.4-0.2,0.5-0.6,0.3l-0.1,0c-0.4-0.2-0.6-0.6-0.6-1v-7.7c0-0.4,0.2-0.5,0.6-0.3l0.1,0
									c0.4,0.2,0.6,0.6,0.6,1V179.6L512,179.6z"/>
								<path id="XMLID_344_" class="st5" d="M523.8,190c0,0.2-0.2,0.2-0.6,0l-6.2-3.6c0.2,1.6,1.4,3.5,2.8,4.3
									c0.7,0.4,1.4,0.5,1.9,0.2c0.2-0.1,0.4-0.1,0.7,0l0.2,0.1c0.5,0.3,0.7,0.8,0.4,1c-0.7,0.7-1.9,0.7-3.2-0.1
									c-2.2-1.3-4.1-4.5-4.1-7.1c0-2.6,1.8-3.6,4.1-2.4c2.2,1.3,4.1,4.5,4.1,7V190L523.8,190z M517,185.1l5.5,3.2
									c-0.3-1.7-1.4-3.4-2.8-4.3C518.3,183.2,517.2,183.7,517,185.1z"/>
								<path id="XMLID_342_" class="st5" d="M532,192.8c-0.3-0.2-0.5-0.4-0.7-0.8c-0.5-1.1-1.3-2-2.2-2.6c-1.6-0.9-2.8-0.1-2.8,1.7
									c0,1.8,1.2,4.1,2.8,5c0.9,0.5,1.7,0.5,2.2-0.1c0.2-0.2,0.4-0.2,0.7,0l0.2,0.1c0.4,0.2,0.6,0.7,0.4,1c-0.7,1-2,1.2-3.5,0.3
									c-2.2-1.3-4.1-4.5-4.1-7.1c0-2.6,1.8-3.6,4.1-2.4c1.5,0.9,2.8,2.5,3.5,4.3c0.2,0.6,0,0.8-0.4,0.5L532,192.8z"/>
								<path id="XMLID_340_" class="st5" d="M536.5,205.2c-0.1,0.2-0.4,0.3-0.7,0.1l-0.2-0.1c-0.4-0.3-0.6-0.7-0.4-1l1.9-3.3
									l-3.1-9c-0.2-0.6,0-0.8,0.4-0.5l0.2,0.1c0.3,0.2,0.5,0.5,0.7,0.9l2.5,7.4l2.6-4.4c0.1-0.2,0.4-0.3,0.7-0.1l0.2,0.1
									c0.4,0.3,0.6,0.7,0.4,1L536.5,205.2z"/>
								<path id="XMLID_338_" class="st5" d="M549.6,203c-0.3-0.2-0.5-0.4-0.7-0.8c-0.5-1.1-1.3-2-2.2-2.6c-1.6-0.9-2.8-0.1-2.8,1.7
									c0,1.8,1.2,4.1,2.8,5c0.9,0.5,1.7,0.5,2.2-0.1c0.2-0.2,0.4-0.2,0.7,0l0.2,0.1c0.4,0.2,0.6,0.7,0.4,1c-0.7,1-2,1.2-3.5,0.3
									c-2.2-1.3-4.1-4.5-4.1-7.1c0-2.6,1.8-3.6,4.1-2.4c1.5,0.9,2.8,2.5,3.5,4.3c0.2,0.6,0,0.8-0.4,0.5L549.6,203z"/>
								<path id="XMLID_336_" class="st5" d="M552.9,211c-0.4-0.2-0.6-0.6-0.6-1v-13.4c0-0.4,0.2-0.5,0.6-0.3l0.1,0
									c0.4,0.2,0.6,0.6,0.6,1v13.4C553.5,211.1,553.3,211.2,552.9,211L552.9,211z"/>
								<path id="XMLID_333_" class="st5" d="M563.4,212.9c0,0.2-0.2,0.2-0.6,0l-6.2-3.6c0.2,1.6,1.4,3.5,2.8,4.3
									c0.7,0.4,1.4,0.5,1.9,0.2c0.2-0.1,0.4-0.1,0.7,0l0.2,0.1c0.5,0.3,0.7,0.8,0.4,1c-0.7,0.7-1.9,0.7-3.2-0.1
									c-2.2-1.3-4.1-4.5-4.1-7.1c0-2.6,1.8-3.6,4.1-2.4c2.2,1.3,4.1,4.5,4.1,7V212.9L563.4,212.9z M556.5,208l5.5,3.2
									c-0.3-1.7-1.4-3.4-2.8-4.3C557.9,206.1,556.8,206.6,556.5,208z"/>
							</g>
							<g id="XMLID_311_">
								<path id="XMLID_330_" class="st3" d="M510.8,178.3c0.5-0.4,1.2-0.5,2.1-0.1c0.4,0.1,0.6,0.5,0.6,1v0c0,0.4-0.2,0.5-0.6,0.4
									c-1.2-0.5-2.1,0-2.1,1.6v4.3c0,0.4-0.2,0.5-0.6,0.3l-0.1,0c-0.4-0.2-0.6-0.6-0.6-1V177c0-0.4,0.2-0.5,0.6-0.3l0.1,0
									c0.4,0.2,0.6,0.6,0.6,1V178.3L510.8,178.3z"/>
								<path id="XMLID_327_" class="st3" d="M522.5,188.7c0,0.2-0.2,0.2-0.6,0l-6.2-3.6c0.2,1.6,1.4,3.5,2.8,4.3
									c0.7,0.4,1.4,0.5,1.9,0.2c0.2-0.1,0.4-0.1,0.7,0l0.2,0.1c0.5,0.3,0.7,0.8,0.4,1c-0.7,0.7-1.9,0.7-3.2-0.1
									c-2.2-1.3-4.1-4.5-4.1-7.1c0-2.6,1.8-3.6,4.1-2.4c2.2,1.3,4.1,4.5,4.1,7V188.7L522.5,188.7z M515.7,183.7l5.5,3.2
									c-0.3-1.7-1.4-3.4-2.8-4.3C517.1,181.9,516,182.4,515.7,183.7z"/>
								<path id="XMLID_321_" class="st3" d="M530.8,191.5c-0.3-0.2-0.5-0.4-0.7-0.8c-0.5-1.1-1.3-2-2.2-2.6
									c-1.6-0.9-2.8-0.1-2.8,1.7c0,1.8,1.2,4.1,2.8,5c0.9,0.5,1.7,0.5,2.2-0.1c0.2-0.2,0.4-0.2,0.7,0l0.2,0.1
									c0.4,0.2,0.6,0.7,0.4,1c-0.7,1-2,1.2-3.5,0.3c-2.2-1.3-4.1-4.5-4.1-7.1c0-2.6,1.8-3.6,4.1-2.4c1.5,0.9,2.8,2.5,3.5,4.3
									c0.2,0.6,0,0.8-0.4,0.5L530.8,191.5z"/>
								<path id="XMLID_319_" class="st3" d="M535.3,203.9c-0.1,0.2-0.4,0.3-0.7,0.1l-0.2-0.1c-0.4-0.3-0.6-0.7-0.4-1l1.9-3.3
									l-3.1-9c-0.2-0.6,0-0.8,0.4-0.5l0.2,0.1c0.3,0.2,0.5,0.5,0.7,0.9l2.5,7.4l2.6-4.4c0.1-0.2,0.4-0.3,0.7-0.1l0.2,0.1
									c0.4,0.3,0.6,0.7,0.4,1L535.3,203.9z"/>
								<path id="XMLID_317_" class="st3" d="M548.3,201.7c-0.3-0.2-0.5-0.4-0.7-0.8c-0.5-1.1-1.3-2-2.2-2.6
									c-1.6-0.9-2.8-0.1-2.8,1.7c0,1.8,1.2,4.1,2.8,5c0.9,0.5,1.7,0.5,2.2-0.1c0.2-0.2,0.4-0.2,0.7,0l0.2,0.1
									c0.4,0.2,0.6,0.7,0.4,1c-0.7,1-2,1.2-3.5,0.3c-2.2-1.3-4.1-4.5-4.1-7.1c0-2.6,1.8-3.6,4.1-2.4c1.5,0.9,2.8,2.5,3.5,4.3
									c0.2,0.6,0,0.8-0.4,0.5L548.3,201.7z"/>
								<path id="XMLID_315_" class="st3" d="M551.6,209.6c-0.4-0.2-0.6-0.6-0.6-1v-13.4c0-0.4,0.2-0.5,0.6-0.3l0.1,0
									c0.4,0.2,0.6,0.6,0.6,1v13.4C552.2,209.8,552,209.9,551.6,209.6L551.6,209.6z"/>
								<path id="XMLID_312_" class="st3" d="M562.1,211.5c0,0.2-0.2,0.2-0.6,0l-6.2-3.6c0.2,1.6,1.4,3.5,2.8,4.3
									c0.7,0.4,1.4,0.5,1.9,0.2c0.2-0.1,0.4-0.1,0.7,0l0.2,0.1c0.5,0.3,0.7,0.8,0.4,1c-0.7,0.7-1.9,0.7-3.2-0.1
									c-2.2-1.3-4.1-4.5-4.1-7.1c0-2.6,1.8-3.6,4.1-2.4c2.2,1.3,4.1,4.5,4.1,7V211.5L562.1,211.5z M555.3,206.6l5.5,3.2
									c-0.3-1.7-1.4-3.4-2.8-4.3C556.7,204.7,555.6,205.2,555.3,206.6z"/>
							</g>
						</g>
						<g id="XMLID_306_">
							<path id="XMLID_307_" class="st3" d="M569.4,155.7c-1.6,0-3.3-0.4-4.7-1.2l-13-7.5c-1.4-0.8-2.2-1.9-2.2-3.1
								c0-1,0.6-1.8,1.6-2.5l5.7-3.3c0.3-0.2,0.7-0.2,1.1,0l22,12.7l-6.8,3.9C572.1,155.4,570.7,155.7,569.4,155.7z M557.3,139.2
								l-5.6,3.3c-0.5,0.3-1.1,0.8-1.1,1.5c0,0.7,0.6,1.5,1.6,2.1l13,7.5c2.1,1.2,5.5,1.4,7.3,0.3l5.1-2.9L557.3,139.2z"/>
						</g>
						<g id="XMLID_304_">
							<polygon id="XMLID_305_" class="st4" points="735,183.7 733.8,184.7 733.8,141.7 735,142.7 							"/>
						</g>
					</g>
					<g id="XMLID_166_">
						<g id="XMLID_176_">
							<g id="XMLID_182_">
								<g id="XMLID_189_">
									<g id="XMLID_298_">
										<polygon id="XMLID_302_" class="st4" points="535,337.3 506,319.9 539.3,315.6 539.3,332 										"/>
										<path id="XMLID_299_" class="st3" d="M535.1,338.1l-31.1-18.6l35.8-4.6v17.4L535.1,338.1z M507.9,320.3l27,16.2l3.8-4.6
											v-15.5L507.9,320.3z"/>
									</g>
									<g id="XMLID_279_">
										<g id="XMLID_296_">
											<path id="XMLID_297_" class="st4" d="M515,360.2c0,0-4.8,0-10.1-3.3c-5.3-3.3-7.9-5-9.5-6.9c-1.6-2,8.3-19,8.3-19
												l7.2-11.2c0,0,11.2,4,16.2,9.3c5,5.3-6.2,20.1-6.2,20.1L515,360.2z"/>
										</g>
										<g id="XMLID_292_">
											<path id="XMLID_293_" class="st3" d="M530.6,335.6c-0.4-3.1-1.5-5.4-3.2-6.8c0,0,0,0,0,0c-5-5.4-15.9-9.3-16.3-9.4
												l-0.3-0.1l-7.4,11.6c-2.4,4.1-9.9,17.5-8.3,19.5c1.6,2,4.1,3.6,9.1,6.7l0.5,0.3c3.4,2.1,6.6,2.9,8.5,3.2
												c0.5,0.1,1,0.2,1.5,0.2c0.1,0,0.2,0,0.3,0c0,0,0,0,0,0c0,0,0,0,0,0h0.3l0,0c1.8-0.2,3.7-1,5.6-2.4
												C527.2,353.6,531.5,343.4,530.6,335.6z M504.6,356.2c-5-3.1-7.4-4.7-8.9-6.5c-0.8-1.1,3.7-10.4,8.3-18.4l7-10.9
												c1.7,0.6,8.8,3.4,13.5,7.1c-2.3-0.4-4.9,0.4-7.5,2.3c-6.3,4.7-10.7,14.8-9.7,22.6c0.3,2.8,1.3,5,2.8,6.4
												c-1.5-0.5-3.2-1.2-5-2.3L504.6,356.2z"/>
										</g>
										<g id="XMLID_287_">
											<g id="XMLID_288_">
												<path id="XMLID_289_" class="st4" d="M515.8,356.1c-0.7,0-1.3-0.1-1.9-0.4c-1.9-0.8-3.1-2.8-3.5-5.7
													c-0.7-5.6,2.5-13,7.1-16.4c2.3-1.7,4.6-2.2,6.5-1.4s3.1,2.8,3.5,5.7c0.7,5.6-2.5,13-7.1,16.4
													C518.9,355.5,517.3,356.1,515.8,356.1z M522.1,332.9c-1.2,0-2.6,0.5-4,1.6c-4.3,3.2-7.3,10.2-6.7,15.5
													c0.3,2.5,1.3,4.2,2.9,4.9c1.6,0.7,3.6,0.2,5.6-1.3c4.3-3.2,7.3-10.2,6.7-15.5c-0.3-2.5-1.3-4.2-2.9-4.9
													C523.2,333,522.6,332.9,522.1,332.9z"/>
											</g>
										</g>
										<g id="XMLID_282_">
											<g id="XMLID_283_">
												<path id="XMLID_284_" class="st4" d="M515.8,356.1c-1.1,0-2.1-0.3-2.9-1l-0.8-0.8l1.1-0.1c1.2-0.1,2.5-0.6,3.7-1.6
													c4.3-3.2,7.3-10.2,6.7-15.5c-0.2-2-1-3.6-2.1-4.4l-0.9-0.7l1.1-0.2c3.1-0.2,5.3,2.1,5.7,6c0.7,5.6-2.5,13-7.1,16.4
													C518.9,355.5,517.3,356.1,515.8,356.1z M514.6,355c1.5,0.5,3.4,0,5.2-1.4c4.3-3.2,7.3-10.2,6.7-15.5l0,0
													c-0.3-2.8-1.6-4.7-3.5-5.1c0.8,1,1.3,2.4,1.5,4.1c0.7,5.6-2.5,13-7.1,16.4C516.5,354.2,515.5,354.7,514.6,355z"/>
											</g>
										</g>
										<g id="XMLID_280_">
											<path id="XMLID_281_" class="st5" d="M523.2,341.9c0.3,2.6-1.2,6.1-3.3,7.7s-4.1,0.7-4.4-1.9s1.2-6.1,3.3-7.7
												C520.9,338.4,522.9,339.2,523.2,341.9z"/>
										</g>
									</g>
									<g id="XMLID_273_">
										<path id="XMLID_278_" class="st4" d="M491.6,197.5c-0.1-0.1-0.2-0.1-0.2-0.1l0,0l-0.1-0.1c-0.7-0.3-1.7-0.2-2.7,0.4
											l-27.3,15.8c-2.1,1.2-4,3.5-5.1,6.1l-16.6,34.9c-0.8,1.8-1.9,3.5-3.2,4.7l-22.1,19.7c-2.1,2-3.5,5-3.5,7.6v30
											c0,2.8,1.9,3.9,4.3,2.5l2.5-1.5l65.6,37.7l11.4-3.8l11.4-31.6l57.7-81.2L491.6,197.5z"/>
										<path id="XMLID_277_" class="st5" d="M491.6,204.6c-0.1-0.1-0.2-0.1-0.2-0.1l0,0l-0.1-0.1c-0.7-0.3-1.7-0.2-2.7,0.4
											l-27.3,15.8c-2.1,1.2-4,3.5-5.1,6.1l-16.6,34.9c-0.8,1.8-1.9,3.5-3.2,4.7L414.2,286c-2.1,2-3.5,5-3.5,7.6v30
											c0,2.8,1.9,3.9,4.3,2.5l2.5-1.5l65.6,37.7l11.4-3.8L506,327l57.7-81.2L491.6,204.6z"/>
										<path id="XMLID_274_" class="st3" d="M483.1,355.9l-65.6-37.6l-2.2,1.3c-1.4,0.8-2.7,0.9-3.7,0.3c-1-0.6-1.6-1.8-1.6-3.3
											v-30c0-2.7,1.5-5.9,3.7-8l22.1-19.7c1.3-1.2,2.4-2.8,3.1-4.5l16.6-35c1.2-2.7,3.2-5.1,5.3-6.4l27.3-15.8
											c1.5-0.9,2.6-0.7,3.2-0.4l0.1,0c0.2,0.1,0.2,0.1,0.3,0.2l72.7,41.5l-58.1,81.7L495,352L483.1,355.9z M417.5,316.8
											l65.7,37.7l10.9-3.6l11.4-31.4l57.3-80.7L491.2,198c-0.1,0-0.1-0.1-0.2-0.1l-0.1,0c-0.6-0.2-1.3-0.1-2.1,0.3L461.5,214
											c-1.9,1.1-3.7,3.3-4.8,5.8l-16.6,35c-0.8,1.8-2,3.6-3.4,4.9l-22.1,19.7c-1.9,1.8-3.3,4.7-3.3,7.1v30
											c0,1.1,0.3,1.9,0.9,2.2c0.6,0.3,1.5,0.2,2.4-0.3L417.5,316.8z"/>
									</g>
									<g id="XMLID_268_">
										<path id="XMLID_272_" class="st3" d="M483.1,327.9v30c0,2.8,1.9,3.9,4.3,2.5l11.2-6.5c2-1.2,3.7-3.8,4.2-6.3
											c1.2-6.7,4.9-16.5,15.7-22.7c10.7-6.2,14,2.5,15,8c0.4,2.2,2.3,2.9,4.5,1.7l21.9-10.1c2.9-1.7,5.3-5.8,5.3-9.2v-73.7
											c0-2.7-1.9-3.8-4.2-2.4l-27.3,15.8c-2.1,1.2-4,3.5-5.1,6.1L512,295.8c-0.8,1.8-1.9,3.5-3.2,4.7l-22.1,19.7
											C484.6,322.3,483.1,325.3,483.1,327.9z"/>
										<path id="XMLID_269_" class="st3" d="M485.5,361.6c-0.5,0-1-0.1-1.4-0.4c-1-0.6-1.6-1.8-1.6-3.3v-30c0-2.7,1.5-5.9,3.7-8
											l22.1-19.7c1.3-1.2,2.4-2.8,3.1-4.5l16.6-35c1.2-2.7,3.2-5.1,5.3-6.4l27.3-15.8c1.3-0.8,2.6-0.9,3.6-0.3s1.6,1.7,1.6,3.3
											v73.7c0,3.6-2.5,8-5.6,9.8l-21.9,10.2c-1.3,0.7-2.6,0.9-3.6,0.4c-0.9-0.4-1.5-1.3-1.8-2.5c-0.6-3.3-2-7.6-5.2-9.1
											c-2.3-1.1-5.2-0.6-8.8,1.5c-10.6,6.1-14.2,15.5-15.4,22.3c-0.5,2.7-2.3,5.5-4.5,6.7l-11.2,6.5
											C487,361.4,486.2,361.6,485.5,361.6z M562.9,239.1c-0.5,0-1,0.2-1.6,0.5L534,255.4c-1.9,1.1-3.7,3.3-4.8,5.8l-16.6,35
											c-0.8,1.8-2,3.6-3.4,4.9l-22.1,19.7c-1.9,1.8-3.3,4.7-3.3,7.1v30c0,1.1,0.3,1.9,0.9,2.2c0.6,0.3,1.5,0.2,2.4-0.3l11.2-6.5
											c1.8-1.1,3.4-3.5,3.9-5.8c1.2-7.1,5-16.8,16-23.2c3.9-2.3,7.3-2.8,10-1.6c3.7,1.7,5.3,6.4,5.9,10c0.1,0.6,0.4,1.3,1,1.6
											c0.6,0.3,1.5,0.2,2.5-0.4l21.9-10.2c2.7-1.6,5-5.5,5-8.6v-73.7c0-1.1-0.3-1.8-0.9-2.2
											C563.4,239.2,563.1,239.1,562.9,239.1z"/>
									</g>
									<g id="XMLID_264_">
										<path id="XMLID_265_" class="st4" d="M538.7,323.5c-1,0-1.9-0.5-2.5-1.4c-4.3-7.1-11.2-5.2-16.3-2.3
											c-1.4,0.8-2.8,0.9-3.8,0.3c-1-0.6-1.6-1.8-1.6-3.4v-17.4c0-1.2,0.3-2.5,0.9-3.8l15.8-33.6c0.9-1.9,2.3-3.5,3.8-4.4
											l18.5-10.7c1.4-0.8,2.7-0.9,3.8-0.3c1,0.6,1.6,1.8,1.6,3.4v57.1c0,3.1-2.1,6.7-4.7,8.2l-13.1,7.6
											C540.2,323.3,539.4,323.5,538.7,323.5z M528.2,315.9c3.8,0,6.9,1.8,9.1,5.5c0.6,0.9,1.7,1.1,3.1,0.3l13.1-7.6
											c2.3-1.3,4.1-4.5,4.1-7.1v-57.1c0-1.1-0.3-2-1-2.3c-0.6-0.4-1.5-0.2-2.5,0.3l-18.5,10.7c-1.3,0.7-2.5,2.2-3.3,3.8
											L516.5,296c-0.5,1.1-0.8,2.3-0.8,3.3v17.4c0,1.1,0.3,1.9,1,2.3c0.6,0.4,1.5,0.2,2.5-0.3
											C522.5,316.8,525.5,315.9,528.2,315.9z"/>
									</g>
									<g id="XMLID_260_">
										<path id="XMLID_261_" class="st4" d="M521.1,295.8c-0.4,0-0.8-0.1-1.1-0.4c-0.7-0.7-0.8-2-0.2-3.4l13.3-28.2
											c0.9-1.8,2.2-3.4,3.7-4.3l15.7-9.1c0.8-0.5,1.6-0.5,2.3-0.2c0.6,0.4,1,1.1,1,2V273c0,1.7-1.2,3.7-2.6,4.5l-31,17.9
											C521.8,295.7,521.4,295.8,521.1,295.8z M534.3,264.4L521,292.6c-0.5,1-0.3,1.7-0.1,1.9c0.2,0.2,0.6,0,0.7-0.1l31-17.9
											c1.1-0.6,2-2.2,2-3.4v-20.7c0-0.5-0.1-0.8-0.4-0.9c-0.2-0.1-0.6-0.1-1,0.2l-15.7,9.1C536.3,261.4,535.1,262.7,534.3,264.4
											L534.3,264.4z"/>
									</g>
									<g id="XMLID_256_">
										<path id="XMLID_257_" class="st4" d="M521.1,295.8c-0.4,0-0.8-0.1-1.1-0.4c-0.7-0.7-0.8-2-0.2-3.4l0.5-1l28.4-16.4
											c1.1-0.6,2-2.2,2-3.4v-19.6l1.9-1.1c0.8-0.5,1.6-0.5,2.3-0.2c0.6,0.4,1,1.1,1,2V273c0,1.7-1.2,3.7-2.6,4.5l-31,17.9
											C521.8,295.7,521.4,295.8,521.1,295.8z M521.3,291.9l-0.3,0.7c-0.5,1-0.3,1.7-0.1,1.9c0.2,0.2,0.6,0,0.7-0.1l31-17.9
											c1.1-0.6,2-2.2,2-3.4v-20.7c0-0.5-0.1-0.8-0.4-0.9c-0.2-0.1-0.6-0.1-1,0.2l-1.2,0.7v18.9c0,1.7-1.2,3.7-2.6,4.5
											L521.3,291.9z"/>
									</g>
									<g id="XMLID_252_">
										<path id="XMLID_253_" class="st4" d="M544.2,296.5c-0.2,0-0.5-0.1-0.7-0.2c-0.5-0.3-0.9-1-0.9-1.8c0-1.5,0.9-3.1,2-3.7
											l7-4.1c0.6-0.3,1.2-0.4,1.6-0.1c0.5,0.3,0.9,1,0.9,1.8c0,1.5-0.9,3.1-2,3.7l-7,4.1C544.8,296.4,544.5,296.5,544.2,296.5z
											 M552.6,287.4c-0.2,0-0.3,0.1-0.5,0.1l-7,4.1c-0.8,0.5-1.5,1.8-1.5,2.9c0,0.5,0.1,0.9,0.4,1c0.2,0.1,0.5,0,0.7-0.1l7-4.1
											c0.8-0.5,1.5-1.8,1.5-2.9c0-0.5-0.1-0.9-0.4-1C552.7,287.4,552.7,287.4,552.6,287.4z"/>
									</g>
									<g id="XMLID_247_">
										<path id="XMLID_251_" class="st4" d="M533.8,333.6l0.2,2c0.4,1.9,2,2.5,3.9,1.4l24-13.8c1.8-1.1,3.3-3.7,3.3-5.8v-1.9
											L533.8,333.6z"/>
										<path id="XMLID_248_" class="st3" d="M536.1,338.2c-0.4,0-0.8-0.1-1.1-0.2c-0.8-0.4-1.4-1.2-1.6-2.3l-0.3-2.4l32.7-18.8v3
											c0,2.4-1.6,5.2-3.7,6.3l-24,13.8C537.5,338,536.8,338.2,536.1,338.2z M534.4,334l0.2,1.6c0.1,0.4,0.3,1,0.9,1.3
											c0.5,0.2,1.3,0.1,2.1-0.3l24-13.8c1.6-0.9,3-3.3,3-5.2v-0.8L534.4,334z"/>
									</g>
									<g id="XMLID_242_">
										<path id="XMLID_246_" class="st4" d="M483.1,329.7l9.3-5.3c1.5-0.9,2.5,0.3,2,2.3l-0.8,2.6c-1,3.3-3.3,6.5-5.9,8l-4.5,2.6
											L483.1,329.7L483.1,329.7z"/>
										<path id="XMLID_243_" class="st3" d="M482.5,341v-11.7l9.6-5.5c0.9-0.5,1.7-0.5,2.3,0c0.7,0.6,0.9,1.7,0.6,3l-0.8,2.6
											c-1,3.5-3.5,6.8-6.2,8.4L482.5,341z M483.8,330.1v8.7l3.6-2.1c2.5-1.4,4.7-4.4,5.6-7.6l0.8-2.6c0.3-0.9,0.1-1.5-0.1-1.7
											c-0.3-0.2-0.7,0-0.9,0.1L483.8,330.1z"/>
									</g>
									<g id="XMLID_237_">
										<path id="XMLID_241_" class="st4" d="M483.1,366.9l3-4.2l-3-7.4l-60.7-34.9l0,0l-11.7-6.7c-1.5,1.4-2.6,3.8-2.1,5.5
											l1.1,4.5c0.2,0.8,0.6,1.3,1,1.7l-0.2-0.1l0.4,0.3C411,325.5,483.1,366.9,483.1,366.9z"/>
										<path id="XMLID_238_" class="st3" d="M483.3,367.7l-0.5-0.3c-60.9-35.1-72.2-41.5-72.2-41.5l-0.3-0.2l0,0
											c-0.6-0.5-1.1-1.2-1.3-2.1l-1.1-4.5c-0.4-1.8,0.6-4.5,2.4-6.1l0.3-0.3l12.1,7l60.9,35l3.2,8L483.3,367.7z M410.9,324.6
											l0.4,0.3c0.5,0.3,65.8,37.8,71.7,41.1l2.4-3.5l-2.8-6.9l-71.8-41.2c-1.2,1.3-1.9,3.2-1.6,4.5l1.1,4.5
											C410.4,323.9,410.6,324.4,410.9,324.6z"/>
									</g>
									<g id="XMLID_232_">
										<path id="XMLID_236_" class="st4" d="M484,354.6l20-11.6l-1.8,10.5c-0.5,2.7-2.4,5.6-4.5,6.9l-10.9,6.3
											c-2.2,1.3-4.1,0.6-4.6-1.5l-1.1-4.5C480.5,358.7,482,355.7,484,354.6z"/>
										<path id="XMLID_233_" class="st3" d="M484.6,368c-0.4,0-0.9-0.1-1.3-0.2c-0.9-0.4-1.6-1.3-1.8-2.4l-1.1-4.5
											c-0.5-2.2,1.1-5.5,3.3-6.8l21.2-12.2l-2,11.8c-0.5,2.9-2.5,5.9-4.9,7.3l-10.9,6.3C486.1,367.7,485.3,368,484.6,368z
											 M503.1,344.2l-18.8,10.9c-1.7,1-3.1,3.7-2.7,5.4l1.1,4.5c0.2,0.8,0.6,1.3,1.1,1.5c0.7,0.3,1.6,0.1,2.5-0.4l10.9-6.3
											c2-1.2,3.8-3.9,4.3-6.4L503.1,344.2z"/>
									</g>
									<g id="XMLID_227_">
										<path id="XMLID_231_" class="st4" d="M460.8,223.2l62.7,35.9c1.1,0.6,1.5,2,1,3.2l-13,27.4c-0.6,1.3-2.2,1.8-3.4,1.1
											l-63-35.2c-1.1-0.6-1.6-2-1-3.2l13.3-28.1C457.9,223,459.5,222.5,460.8,223.2z"/>
										<path id="XMLID_228_" class="st3" d="M509.3,291.7c-0.5,0-1-0.1-1.5-0.4l-63-35.2c-1.4-0.8-2-2.6-1.3-4l13.3-28.1
											c0.4-0.8,1.1-1.4,1.9-1.6c0.8-0.3,1.7-0.2,2.5,0.3l0,0l62.7,35.9c1.4,0.8,1.9,2.6,1.3,4l-13,27.4c-0.4,0.8-1,1.4-1.8,1.6
											C509.9,291.7,509.6,291.7,509.3,291.7z M459.6,223.5c-0.2,0-0.4,0-0.5,0.1c-0.5,0.2-0.9,0.5-1.1,1l-13.3,28.1
											c-0.4,0.9-0.1,1.9,0.7,2.4l63,35.2c0.4,0.2,1,0.3,1.4,0.1c0.5-0.2,0.9-0.5,1.1-0.9l13-27.4c0.4-0.9,0.1-1.9-0.7-2.4
											l-62.7-35.9C460.2,223.6,459.9,223.5,459.6,223.5z"/>
									</g>
									<g id="XMLID_222_">
										<path id="XMLID_226_" class="st4" d="M451.9,250.3c-1.1-0.6-1.6-2-1-3.2l11-23.3l-1.1-0.6c-1.2-0.7-2.8-0.2-3.4,1.1
											L444,252.3c-0.6,1.2-0.1,2.6,1,3.2l63,35.2c1.2,0.7,2.8,0.2,3.4-1.1l2.3-4.8L451.9,250.3z"/>
										<path id="XMLID_223_" class="st3" d="M509.3,291.7c-0.5,0-1-0.1-1.5-0.4l-63-35.2c-1.4-0.8-2-2.6-1.3-4l13.3-28.1
											c0.4-0.8,1.1-1.4,1.9-1.6c0.8-0.2,1.7-0.2,2.5,0.3l1.6,0.9l-11.3,23.8c-0.4,0.9-0.1,1.9,0.7,2.4l62.4,34.9l-2.5,5.4
											c-0.4,0.8-1,1.4-1.8,1.6C509.9,291.7,509.6,291.7,509.3,291.7z M459.6,223.5c-0.2,0-0.4,0-0.5,0.1c-0.5,0.2-0.9,0.5-1.1,1
											l-13.3,28.1c-0.4,0.9-0.1,1.9,0.7,2.4l63,35.2c0.4,0.2,1,0.3,1.4,0.1c0.5-0.2,0.9-0.5,1.1-0.9l2-4.3l-61.4-34.3
											c-1.4-0.8-2-2.6-1.3-4l10.8-22.7l-0.6-0.3C460.2,223.6,459.9,223.5,459.6,223.5z"/>
									</g>
									<g id="XMLID_217_">
										<polygon id="XMLID_221_" class="st4" points="483.1,329.7 410.7,287.9 410.7,298.1 483.1,339.9 										"/>
										<path id="XMLID_218_" class="st3" d="M483.8,342.3L410,299.7v-12.9l73.7,42.5V342.3z M411.3,297.7l71.2,41.1v-8.7
											L411.3,289C411.3,289,411.3,297.7,411.3,297.7z"/>
									</g>
									<g id="XMLID_213_">
										<path id="XMLID_216_" class="st5" d="M412.5,292.1v10.2l5.8,3.3c-0.4-0.9-0.6-1.9-0.6-2.8c0-2.6,1.8-3.7,4.1-2.4
											c2.2,1.3,4.1,4.5,4.1,7.1c0,0.9-0.2,1.7-0.6,2.1l3.7,2.1v-10.2L412.5,292.1z"/>
										<path id="XMLID_214_" class="st3" d="M423.9,307.6l2.2,1.3v-11.3l-15.2-8.8V300l4.1,2.4c-0.1-0.5-0.2-1-0.2-1.5
											c0-1.5,0.5-2.6,1.5-3.2c1-0.6,2.2-0.5,3.6,0.3c2.5,1.4,4.4,4.8,4.4,7.7C424.3,306.4,424.2,307,423.9,307.6z"/>
									</g>
									<g id="XMLID_209_">
										<path id="XMLID_212_" class="st5" d="M468.9,324.6v10.2l3.7,2.2c-0.6-1.2-1-2.4-1-3.6c0-2.6,1.8-3.7,4.1-2.4
											c2.2,1.3,4.1,4.5,4.1,7.1c0,1.2-0.4,2-1,2.5l3.7,2.3v-10.2L468.9,324.6z"/>
										<path id="XMLID_210_" class="st3" d="M478,338.8l4.9,2.8v-11.3l-15.2-8.8v11.3l1.8,1.1c-0.2-0.7-0.3-1.5-0.3-2.1
											c0-1.5,0.5-2.6,1.5-3.2c1-0.6,2.2-0.5,3.6,0.3c2.5,1.4,4.4,4.8,4.4,7.7C478.7,337.3,478.4,338.1,478,338.8z"/>
									</g>
									<g id="XMLID_198_">
										<polygon id="XMLID_208_" class="st4" points="540.4,231.2 487.5,200.9 494.8,196.6 547.7,227 										"/>
										<polygon id="XMLID_207_" class="st4" points="487.5,200.9 482,207.8 543.3,243 540.4,231.2 										"/>
										<polygon id="XMLID_206_" class="st5" points="540.4,234.5 487.5,204.2 494.8,200 547.7,230.3 										"/>
										<polygon id="XMLID_205_" class="st3" points="540.4,231.2 543.3,243 551,238.3 547.7,227 										"/>
										<g id="XMLID_199_">
											<path id="XMLID_200_" class="st3" d="M551.7,238.6l-3.5-12.1l-53.4-30.7l-7.7,4.5l-6,7.6l62.2,35.7L551.7,238.6z
												 M543.7,242l-2.6-10.4l6.2-3.6l2.9,10.1L543.7,242z M488.8,200.9l6-3.5l51.6,29.6l-6,3.5l-42.6-24.4L488.8,200.9z
												 M483,207.6l4.6-5.9l9.2,5.3l43,24.6l2.5,10L483,207.6z"/>
										</g>
									</g>
									<g id="XMLID_193_">
										<polygon id="XMLID_197_" class="st4" points="410.7,303.1 410.7,313.9 483.1,355.4 483.1,344.9 										"/>
										<path id="XMLID_194_" class="st3" d="M481.9,355.5L410,314.2v-12.3l73.7,42.6v9.9C483.8,355.4,482.8,356,481.9,355.5z
											 M411.3,313.5l71.2,40.8v-9.1l-71.2-41.1C411.3,304.2,411.3,313.5,411.3,313.5z"/>
									</g>
									<polygon id="XMLID_192_" class="st3" points="443.7,253.4 450.7,249.2 450.7,247.6 461.9,223.8 459.1,222.9 457.9,223.5 
										444.4,251.3 									"/>
									<polygon id="XMLID_191_" class="st3" points="409.1,321.4 481.5,362.9 481.9,366.5 410.5,325.1 									"/>
									<polygon id="XMLID_190_" class="st4" points="564.5,302.9 564.5,314.7 565.8,314 565.8,302.2 									"/>
								</g>
								<g id="XMLID_183_">
									<path id="XMLID_188_" class="st4" d="M450.1,352.2l-13.9-8c-0.7-0.4-1.3-1.6-1.3-2.5v-6.9c0-1,0.6-1.4,1.3-1l13.9,8
										c0.7,0.4,1.3,1.6,1.3,2.5v6.9C451.4,352.2,450.8,352.7,450.1,352.2z"/>
									<path id="XMLID_187_" class="st5" d="M452.5,355.9l-13.9-8c-0.7-0.4-1.3-1.6-1.3-2.5v-6.9c0-1,0.6-1.4,1.3-1l13.9,8
										c0.7,0.4,1.3,1.6,1.3,2.5v6.9C453.8,355.9,453.2,356.3,452.5,355.9z"/>
									<path id="XMLID_184_" class="st3" d="M450.6,353c-0.3,0-0.5-0.1-0.8-0.2l-13.9-8c-0.9-0.5-1.6-1.8-1.6-3v-6.9
										c0-0.7,0.3-1.3,0.7-1.6c0.4-0.2,0.9-0.2,1.4,0.1l13.9,8c0.9,0.5,1.6,1.8,1.6,3v6.9c0,0.7-0.3,1.3-0.7,1.6
										C451.1,352.9,450.9,353,450.6,353z M435.7,334.2C435.6,334.2,435.6,334.2,435.7,334.2c-0.1,0.1-0.2,0.2-0.2,0.6v6.9
										c0,0.8,0.5,1.7,1,2l13.9,8c0.1,0.1,0.2,0.1,0.3,0.1c0.1,0,0.2-0.2,0.2-0.6v-6.9c0-0.8-0.5-1.7-1-2l-13.9-8
										C435.8,334.2,435.7,334.2,435.7,334.2z"/>
								</g>
							</g>
							<g id="XMLID_177_">
								<g id="XMLID_180_">
									<polygon id="XMLID_181_" class="st3" points="485.8,274.4 470.6,244 471.6,243.4 486.8,273.9 									"/>
								</g>
								<g id="XMLID_178_">
									<polygon id="XMLID_179_" class="st3" points="498,269.4 489.7,252.9 490.8,252.4 499,268.9 									"/>
								</g>
							</g>
						</g>
						<g id="XMLID_167_">
							<g id="XMLID_172_">
								<path id="XMLID_173_" class="st3" d="M472,323.7l-0.3-0.2L413.5,290l27.8-24.5c1.1-0.9,2.6-1.1,3.8-0.4l52.9,30.3
									c0.6,0.4,1.1,1,1.2,1.7c0.1,0.7-0.2,1.5-0.7,2L472,323.7z M415.1,289.8l56.8,32.7l26-24.1c0.3-0.3,0.5-0.7,0.4-1.2
									c-0.1-0.4-0.3-0.8-0.7-1.1L444.7,266c-0.9-0.5-2-0.4-2.8,0.3L415.1,289.8z"/>
							</g>
							<g id="XMLID_168_">
								<path id="XMLID_169_" class="st3" d="M507.6,250.6l-0.2-0.1l-33.7-19.4l3.9-2.3c2.4-1.4,5.8-1.5,7.8-0.3l26.1,15.1
									c1,0.6,1.5,1.4,1.5,2.2c0,1-0.7,2.1-2,2.8L507.6,250.6z M475.6,231.1l32,18.5l3-1.7c1-0.6,1.6-1.3,1.6-2
									c0-0.7-0.6-1.2-1-1.4L485,229.3c-1.8-1-4.9-0.9-6.9,0.3L475.6,231.1z"/>
							</g>
						</g>
					</g>
				</g>
			</g>
			<g id="XMLID_1_">
				<g id="XMLID_2_">
					<g id="XMLID_130_">
						<path id="XMLID_162_" class="st4" d="M615.5,412.5L615.5,412.5c1.3,0,2.4-1.1,2.4-2.4V304.4c0-1.3-1.1-2.4-2.4-2.4l0,0
							c-1.3,0-2.4,1.1-2.4,2.4v105.7C613.2,411.5,614.2,412.5,615.5,412.5z"/>
						<path id="XMLID_161_" class="st3" d="M615.5,302.1c-0.3,0-0.5,0.1-0.8,0.1c0.5,0.4,0.8,1,0.8,1.7v105.7c0,1-0.6,1.9-1.6,2.2
							c0.4,0.4,1,0.6,1.6,0.6c1.3,0,2.4-1.1,2.4-2.4V304.5C617.9,303.1,616.8,302.1,615.5,302.1z"/>
						<path id="XMLID_131_" class="st3" d="M615.5,413c-1.6,0-2.8-1.3-2.8-2.8V304.4c0-1.6,1.3-2.8,2.8-2.8c1.6,0,2.8,1.3,2.8,2.8
							v105.7C618.3,411.7,617.1,413,615.5,413z M615.5,302.6c-1,0-1.9,0.9-1.9,1.9v105.7c0,1,0.9,1.9,1.9,1.9c1,0,1.9-0.9,1.9-1.9
							V304.4C617.4,303.4,616.5,302.6,615.5,302.6z"/>
					</g>
					<g id="XMLID_64_">
						<g id="XMLID_71_">
							<path id="XMLID_129_" class="st4" d="M602,309.1l24.7,14.9c2.7,1.6,4.8-0.1,4.8-3.8v-45.1c0-3.7-2.2-8-4.8-9.6L602,250.6
								c-2.7-1.6-4.8,0.1-4.8,3.8v45.1C597.2,303.2,599.4,307.5,602,309.1z"/>
							<path id="XMLID_128_" class="st5" d="M630.2,271.3l-24.7-14.9c-2.7-1.6-4.8,0.1-4.8,3.8v45.1c0,0.9,0.1,1.9,0.4,2.8
								c0.3,0.3,0.6,0.5,1,0.7l24.7,14.9c2.7,1.6,4.8-0.1,4.8-3.8v-45.1c0-0.9-0.1-1.9-0.4-2.8C630.9,271.8,630.5,271.5,630.2,271.3
								z"/>
							<path id="XMLID_84_" class="st3" d="M628.7,325c-0.7,0-1.4-0.2-2.2-0.7l-24.7-14.9c-2.8-1.7-5.1-6.2-5.1-10v-45.1
								c0-2.2,0.7-3.8,2-4.5c1-0.6,2.3-0.5,3.6,0.3L627,265c2.8,1.7,5.1,6.2,5.1,10v45.1c0,2.2-0.7,3.8-2,4.5
								C629.7,324.9,629.2,325,628.7,325z M602.3,308.7l24.7,14.9c1,0.6,1.9,0.7,2.6,0.3c0.9-0.5,1.5-1.9,1.5-3.7V275
								c0-3.6-2.1-7.7-4.6-9.2l-24.7-14.9c-1-0.6-1.9-0.7-2.6-0.3c-0.9,0.5-1.5,1.9-1.5,3.7v45.1C597.7,303,599.7,307.2,602.3,308.7
								L602.3,308.7z"/>
						</g>
						<g id="XMLID_65_">
							<path id="XMLID_70_" class="st4" d="M601.2,330.8l26.3,15.8c2.2,1.3,4-0.1,4-3.2v-5c0-3.1-1.8-6.7-4-8l-26.3-15.8
								c-2.2-1.3-4,0.1-4,3.2v5C597.2,325.9,599,329.5,601.2,330.8z"/>
							<path id="XMLID_69_" class="st5" d="M629.9,334.7l-26.3-15.8c-2.2-1.3-4,0.1-4,3.2v5c0,0.9,0.2,1.8,0.4,2.8
								c0.4,0.4,0.8,0.7,1.2,1l26.3,15.8c2.2,1.3,4-0.1,4-3.2v-5c0-0.9-0.2-1.8-0.4-2.8C630.7,335.3,630.3,335,629.9,334.7z"/>
							<path id="XMLID_66_" class="st3" d="M629.2,347.6c-0.6,0-1.2-0.2-1.8-0.6L601,331.2c-2.4-1.4-4.3-5.2-4.3-8.4v-5
								c0-1.8,0.6-3.2,1.7-3.8c0.9-0.5,2-0.4,3.1,0.2l26.3,15.8c2.4,1.4,4.3,5.2,4.3,8.4v5c0,1.8-0.6,3.2-1.7,3.8
								C630,347.5,629.6,347.6,629.2,347.6z M599.6,314.6c-0.3,0-0.5,0.1-0.8,0.2c-0.8,0.4-1.2,1.5-1.2,3v5c0,2.9,1.7,6.4,3.8,7.6
								l26.3,15.8c0.8,0.5,1.6,0.6,2.1,0.2c0.8-0.4,1.2-1.5,1.2-3v-5c0-2.9-1.7-6.4-3.8-7.6L601,315
								C600.5,314.7,600.1,314.6,599.6,314.6z"/>
						</g>
					</g>
					<g id="XMLID_4_">
						<g id="XMLID_59_">
							<g id="XMLID_62_">
								<path id="XMLID_63_" class="st3" d="M601.4,286.6c0.1,0.1,0.7,0.7,1.7,1.3c0.9,0.5,5.2,3.1,6.6,4v-2.7l4.6,8.3l-4.6,2.7
									v-2.8l-4.3-2.6c-0.7-0.4-1.3-1.3-1.7-2.2L601.4,286.6C601.4,286.6,601.4,286.6,601.4,286.6z"/>
							</g>
							<g id="XMLID_60_">
								<path id="XMLID_61_" class="st3" d="M609.1,285l-2.6,3.8l-4.1-2.5c-0.5-0.3-0.9-1.2-0.6-1.6l3.3-4.8L609.1,285z"/>
							</g>
						</g>
						<g id="XMLID_54_">
							<g id="XMLID_57_">
								<path id="XMLID_58_" class="st3" d="M624.4,305c0-0.2-0.1-1-0.6-2.3c-0.5-1.2-2.6-7-3.4-8.8l-2,0.2l1.6-6.7l6.3,5.8l-2,0.2
									l2.2,5.7c0.4,0.9,0.4,1.8,0,2.4L624.4,305C624.5,305,624.4,305,624.4,305z"/>
							</g>
							<g id="XMLID_55_">
								<path id="XMLID_56_" class="st3" d="M616.1,295.4l5.1,3l2.1,5.5c0.3,0.7-0.1,1.2-0.6,0.9l-6.6-3.9L616.1,295.4z"/>
							</g>
						</g>
						<g id="XMLID_5_">
							<g id="XMLID_52_">
								<path id="XMLID_53_" class="st3" d="M616.8,274.7c-0.1,0-0.6,0.2-1.1,0.9c-0.5,0.6-2.7,3.7-3.4,4.7l1.9,2.6l-6.3-1.9
									l-1.5-8.5l2,2.6l2.2-3.1c0.4-0.5,1-0.6,1.7-0.1L616.8,274.7C616.8,274.6,616.8,274.7,616.8,274.7z"/>
							</g>
							<g id="XMLID_49_">
								<path id="XMLID_51_" class="st3" d="M617.3,285.6l-2.5-6.9l2.1-2.9c0.3-0.4,1,0,1.2,0.8l3.1,8.8L617.3,285.6z"/>
							</g>
						</g>
					</g>
				</g>
			</g>
		</g>
	</g>
</g>
</svg>
