<?xml version="1.0" encoding="utf-8"?>
<!-- Generator: Adobe Illustrator 19.0.0, SVG Export Plug-In . SVG Version: 6.00 Build 0)  -->
<svg version="1.1" id="Warstwa_1" xmlns="http://www.w3.org/2000/svg" xmlns:xlink="http://www.w3.org/1999/xlink" x="0px" y="0px"
	 viewBox="4813 -2072 10125 4644" style="enable-background:new 4813 -2072 10125 4644;" xml:space="preserve">
<style type="text/css">
	.st0{fill:#0E1A17;}
	.st1{fill:#FFFFFF;}
	.st2{fill:#A4DCD7;}
	.st3{fill:#242D26;}
	.st4{fill:#8DFF8B;}
	.st5{fill:#5FBD44;}
	.st6{fill:none;stroke:#333333;stroke-width:14.8622;stroke-miterlimit:10;}
	.st7{fill:#A8FFCD;}
	.st8{fill:#73C47D;}
	.st9{fill:#019317;}
	.st10{fill:#16211F;}
	.st11{opacity:0.5;fill:#0E1A17;enable-background:new    ;}
	.st12{opacity:0.2;fill:#7B8369;enable-background:new    ;}
	.st13{fill:none;stroke:#333333;stroke-width:6.4499;stroke-miterlimit:10;}
	.st14{fill:none;stroke:#333333;stroke-width:7.2704;stroke-miterlimit:10;}
	.st15{fill:#F6D6D9;}
	.st16{fill:#333333;}
	.st17{fill:#00D1B2;}
	.st18{fill:none;stroke:#333333;stroke-width:3.87;stroke-miterlimit:10;}
	.st19{fill:#CCCBA2;}
	.st20{fill:none;stroke:#333333;stroke-width:3.225;stroke-miterlimit:10;}
	.st21{fill:#62BD41;}
	.st22{fill:#F9FF5C;}
	.st23{fill:#E1F1EE;stroke:#333333;stroke-width:3.1585;stroke-miterlimit:10;}
	.st24{fill:none;stroke:#333333;stroke-width:3.158;stroke-miterlimit:10;}
	.st25{fill:#E1F1EE;stroke:#333333;stroke-width:3.8706;stroke-miterlimit:10;}
	.st26{fill:#E1F1EE;stroke:#333333;stroke-width:2.9841;stroke-miterlimit:10;}
	.st27{fill:#E1F1EE;stroke:#333333;stroke-width:3.5815;stroke-miterlimit:10;}
	.st28{fill:none;stroke:#333333;stroke-width:3.5809;stroke-miterlimit:10;}
	.st29{fill:none;stroke:#333333;stroke-width:5.9681;stroke-miterlimit:10;}
	.st30{fill:#E1F1EE;stroke:#333333;stroke-width:3.1367;stroke-miterlimit:10;}
	.st31{fill:#E1F1EE;stroke:#333333;stroke-width:3.1978;stroke-miterlimit:10;}
	.st32{fill:none;stroke:#333333;stroke-width:2.9841;stroke-miterlimit:10;}
	.st33{fill:#A8FFCD;stroke:#333333;stroke-width:3.5809;stroke-miterlimit:10;}
	.st34{fill:#F6D6D9;stroke:#333333;stroke-width:2.9841;stroke-miterlimit:10;}
	.st35{fill:#FFE300;}
	.st36{fill:#E1F1EE;}
	.st37{fill:none;}
</style>
<rect x="4813" y="-1181.1" class="st0" width="10112.3" height="933.2"/>
<rect x="4819.3" y="-2072" class="st0" width="10112.3" height="933.2"/>
<rect x="4813" y="-252.8" class="st0" width="10112.3" height="933.2"/>
<circle id="XMLID_297_" class="st1" cx="13656" cy="38.8" r="755.2"/>
<path id="XMLID_295_" class="st2" d="M12720.4,677.4c553.7,0,2204.9-13,2204.9-13s-220.7-316.9-599.9-316.9s-454,194.5-454,194.5
	s-97.7-494.6-510.7-494.6S12801.5,469,12801.5,469s-161.6-187-348.6,0c0,0-236.4-1.2-411.2,178
	C11967.5,723,12549,677.4,12720.4,677.4z"/>
<polygon id="XMLID_337_" class="st2" points="4759.1,734.6 5070.7,60.5 5375.4,403.6 6017.8,-21 6791.4,451 7654.2,227.3 
	7754.7,271.4 7916.8,563.3 8291.5,367.8 9766.8,765 "/>
<polygon class="st3" points="4809,697.5 4799.7,2563 14929.3,2563 14938.6,656.4 "/>
<path id="XMLID_634_" class="st2" d="M8754.6-959.8c0,0,113.3-152.1,236.3-152.1s121.9,53.3,121.9,53.3s24.2-182.9,152.4-182.9
	s133.3,102.9,133.3,102.9s43.4-179.1,316.2-179.1c258,0,285.8,262.9,285.8,262.9s111.4-93.2,171.5,64.8c0,0,67.9-85.9,141,26.4
	L8754.6-959.8z"/>
<path class="st4" d="M10845.3-826"/>
<g>
	<path class="st0" d="M7994.8,904.4c390,0,706.3,18,706.3,62s-316.2,79.7-706.3,79.7c-390,0-706.3-35.7-706.3-79.7
		C7288.5,922.3,7604.7,904.4,7994.8,904.4z"/>
	<path id="XMLID_386_" class="st0" d="M8199.7,960.8c-0.6-12.6-11.5-22.7-24.8-22.7c-2.2,0-4.5,0.3-6.6,0.8c0.7-2.8,1-5.7,1-8.8
		c0-17.6-11.8-31.8-26.2-31.8c-4.3,0-8.3,1.2-11.9,3.5c-5.2-20.6-18.9-35.3-35.1-35.3c-16.4,0-30.3,15.2-35.3,36.3
		c-23.9-36.8-71.9-220.9-145.8-1c0,0-33.4-74.9-69.1,20.3c0,0-47.8-49.8-63.8,11.5c-16,61.3,16.6,55.6,16.6,55.6l437,0.5
		C8235.7,989.8,8221.3,976.7,8199.7,960.8z"/>
	<g>
		<path class="st5" d="M8884.2,65.7c0-106.4-92.9-199.2-231.4-250.1c0-2,0-3.9,0-6c0-170.2-105.6-313.8-250.2-358.7
			c-37.4-156.8-210.3-275.3-417.7-275.3c-234.8,0-425.2,151.8-425.2,339.2c0,8,0.3,15.6,1,23.5c-115.7,60.7-192.1,165.1-192.1,283.7
			c0,2.7,0,5.2,0.1,8C7205-122.9,7088,2,7088,148.9c0,187.2,190.3,339.2,425.2,339.2c129.5,0,245.6-46.2,323.5-119
			c82.9,43.8,190.8,70.2,308.8,70.2c131.3,0,250.1-32.8,335.9-85.7C8709.4,332.3,8884.2,211.6,8884.2,65.7z"/>
		<line class="st6" x1="7982.7" y1="846.1" x2="7985" y2="-538"/>
		<path class="st6" d="M7985,538.2c0,0-276.6,30.1-266.4-200.9c10-231.1-175.7-205.8-175.7-205.8s-221,23-221-128.7"/>
		<path class="st6" d="M7985,271.9c0,0,240.9-50.3,240.9-231.1s-30.1-372.5,80.3-372.5"/>
		<path class="st6" d="M7985-178.1c0,0-191.2-33.8-191.2-153.5c0,0-3-306.4-86.2-306.4"/>
		<path class="st6" d="M8224.4,65.7c0,0,41.8-126.2,182.4-126.2"/>
		<path class="st6" d="M7652.9,158.8c0,0-25.6-282.4,96.3-282.4"/>
		<path class="st6" d="M8222.5-178.1c0,0-51-122.2-110.5-122.2"/>
		<path id="XMLID_16_" class="st7" d="M7656.4,32.2c0,0,20.4-50.6,87.3-21.6C7743.5,10.6,7719.3,59.4,7656.4,32.2z"/>
		<path id="XMLID_313_" class="st7" d="M7855.4-235.1c0,0-21.2-50.2,46.6-76.9C7901.9-312.1,7919.2-260.3,7855.4-235.1z"/>
		<path id="XMLID_15_" class="st7" d="M7791.2-394.3c0,0-6.1-87,110.3-92.4C7901.5-486.7,7900.9-399.4,7791.2-394.3z"/>
		<path id="XMLID_14_" class="st7" d="M7988.2-523.7c0,0-70-66.5-54.3-137.4C7933.9-661.2,8003-590.7,7988.2-523.7z"/>
		<path id="XMLID_13_" class="st7" d="M7987.6-447.1c0,0-0.4-54.5,72.4-53.3C8060.1-500.4,8056.2-446,7987.6-447.1z"/>
		<path id="XMLID_12_" class="st7" d="M7980.6-495.3c0,0-37.9,13.7-56.7-42.8C7923.8-538.1,7962.9-548.5,7980.6-495.3z"/>
		<path id="XMLID_11_" class="st7" d="M7990.1-67.1c0,0,0.8-44.5,54.8-42.3C8044.8-109.5,8040.9-65,7990.1-67.1z"/>
		<path id="XMLID_10_" class="st7" d="M7913.7,72.3c0,0,19.3-40.2,67.3-15.7C7981.1,56.7,7959.1,95.4,7913.7,72.3z"/>
		<path id="XMLID_303_" class="st7" d="M8147.7-293.7c0,0-0.3-33.2,44.1-32.7C8191.7-326.2,8189.5-293.1,8147.7-293.7z"/>
		<path id="XMLID_302_" class="st7" d="M7985.6-512.4c0,0,2.6-33,46.7-28.6C8032.3-541,8027.2-508.2,7985.6-512.4z"/>
		<path id="XMLID_301_" class="st7" d="M8116-294.2c0,0-67,8.3-76-81.4C8040-375.6,8107.6-378.7,8116-294.2z"/>
		<path id="XMLID_300_" class="st7" d="M8287.6-22.8c0,0-24.1-22.8,7.1-54.3C8294.7-77.1,8317-52.5,8287.6-22.8z"/>
		<path id="XMLID_299_" class="st7" d="M7991.1,130c0,0-3.8-54.3,68.8-57.9C8059.9,72.2,8059.6,126.7,7991.1,130z"/>
		<path id="XMLID_298_" class="st7" d="M8110.3,124.2c0,0,47,27.6,8.6,89.5C8118.9,213.6,8074.1,182.5,8110.3,124.2z"/>
		<path id="XMLID_9_" class="st7" d="M8203.9,129.3c0,0,40.6-36.3,87.8,18.9C8291.9,148.2,8248.6,181.4,8203.9,129.3z"/>
		<path id="XMLID_296_" class="st8" d="M8224.2,85.8c0,0,12.1-53.1,82.7-35.3C8306.9,50.5,8290.7,102.7,8224.2,85.8z"/>
		<path id="XMLID_8_" class="st7" d="M8268.2-324.2c0,0-38.9-10.9-21.3-67.7C8246.8-391.9,8284.7-377.8,8268.2-324.2z"/>
		<path id="XMLID_293_" class="st7" d="M8305.3-321.4c0,0-18.3-27.6,19.1-51.3C8324.5-372.7,8340.7-343.7,8305.3-321.4z"/>
		<path id="XMLID_290_" class="st7" d="M8243.3-284.7c0,0,30.4-13.6,47.5,27.4C8290.7-257.4,8259.5-246.1,8243.3-284.7z"/>
		<path id="XMLID_289_" class="st7" d="M7328.9,5c0,0-36.2,25.8-66.6-18.8C7262.3-13.7,7300.2-36.9,7328.9,5z"/>
		<path id="XMLID_287_" class="st7" d="M7972.4-18.5c0,0-41.5,35.4-87.4-21C7885.1-39.4,7929.1-71.5,7972.4-18.5z"/>
		<path id="XMLID_318_" class="st7" d="M7673.2-66.7c0,0-63.3-8.4-50.2-92.7C7623.1-159.4,7685.7-146.2,7673.2-66.7z"/>
		<path id="XMLID_7_" class="st7" d="M7735.4-115.1c0,0,4.3-54.3,76.7-47C7812-162.1,7803.6-108.2,7735.4-115.1z"/>
		<path id="XMLID_323_" class="st7" d="M7769.7-552.9c0,0-12.8,38.2-68.7,17.9C7701-535.1,7717-572.2,7769.7-552.9z"/>
		<path id="XMLID_324_" class="st7" d="M7324,10.4c0,0-16.4-36.9,38.5-59.6C7362.5-49.3,7375.8-11.2,7324,10.4z"/>
		<path id="XMLID_325_" class="st7" d="M7443.1,195.1c0,0-16.4-36.9,38.5-59.6C7481.6,135.4,7494.9,173.6,7443.1,195.1z"/>
		<path id="XMLID_2_" class="st7" d="M7716.5,268.5c0,0-16.4-36.9,38.5-59.6C7755,208.8,7768.3,247,7716.5,268.5z"/>
		<path id="XMLID_1_" class="st7" d="M7644.6,361.1c0,0,14.8-37.5,69.6-14.4C7714.1,346.7,7696.2,382.9,7644.6,361.1z"/>
	</g>
</g>
<g>
	<path class="st0" d="M12143,904.4c0,56.4-613.7,141.6-845,141.6c-231.3,0-674.2-171.6-674.2-227.9c0-56.4,567.5-83.5,798.8-83.5
		C11653.8,734.6,12143,848,12143,904.4z"/>
	<path id="XMLID_3_" class="st9" d="M11086.9,211c0,0-247.3-10.7-338.8-527.2C10748.1-316.2,11151.7-252.6,11086.9,211z"/>
	<path id="XMLID_448_" class="st0" d="M12810.3,497.3c0,0,89.2-182.4,507.4-81.8C13317.7,415.4,13137.6,698,12810.3,497.3z"/>
	<path id="XMLID_39_" class="st8" d="M12831.2,451.2c0,0,89.2-182.4,507.4-81.8C13338.6,369.4,13158.5,652,12831.2,451.2z"/>
	<g>
		<path class="st0" d="M11705,1138.5c0,0-28.5,1.7-28.5,8.7c0,7,38.7,0.6,90.8,18.1c52.1,17.5,55.3-38.8,110.6-26.8
			c55.3,12,34.1-19.3,2.3-17.9C11848.3,1121.9,11705,1138.5,11705,1138.5z"/>
		<path class="st10" d="M11780.2,1144.5c0,0-28.5,8.4-50.1,0c-21.6-8.4-27.8-6.9-27.8-6.9s-42.5-36.2,0-59.9
			c42.5-23.6,87.7-16,87.7-16s97.5,10.9,103,42.7C11898.6,1136.2,11800.4,1148.7,11780.2,1144.5z"/>
		<path class="st11" d="M11779.6,1060.7c0,0-49.5-2.5-46.1,10.7c3.5,13.2,78.7,9.1,82.2,0
			C11819.2,1062.4,11779.6,1060.7,11779.6,1060.7z"/>
		<path class="st10" d="M11843.1,1072.8c0,0,34.6-6.2,29.7-32.7c-4.9-26.5-87.7-24.5-87.7-24.5s-71.7-4-71.7,21
			c0,25,57,23.9,57,23.9S11837,1069.4,11843.1,1072.8z"/>
		<path class="st10" d="M11852.6,991.4c0,0-0.7,25-67.5,25.1c-66.8,0.1-59.2-22.3-59.2-22.3s7.1-21.1,62.4-21.1
			C11855.4,973.1,11852.6,991.4,11852.6,991.4z"/>
		<path class="st10" d="M11737.6,982.8c0,0-23.4-11.2,2.4-33c26.3-22.2,98.6-2.7,100.1,4c1.4,6.2,5.5,16.9-20.5,20.5
			C11793.6,977.9,11778.7,966,11737.6,982.8z"/>
		<path class="st10" d="M11784.4,903.1c0,0-41.9-9-48.4,11.5c-6.5,20.5,24.5,26.2,43.9,25.4c19.4-0.8,37.1,7.8,42.9-13.5
			C11828.6,905.2,11784.4,903.1,11784.4,903.1z"/>
		<path class="st10" d="M11755.8,901.7c0,0-18.7-17.3,3.9-22.7s66.6-1.8,69.5,17.3c0,0,1.7,9.9-16.2,13.4
			C11795,913.1,11786.8,899.1,11755.8,901.7z"/>
		<path class="st11" d="M11727.5,1023.5c0,0,49.9,7.1,60.7,5.1s42.9,0,56.2-6.1C11844.5,1022.5,11745.8,1009.8,11727.5,1023.5z"/>
		<path class="st0" d="M11748.6,947.3c0,0,25.2-1.6,26.1-7.4l20.4,0.1c0,0-2.1,6.4,28.2,6.4
			C11823.3,946.4,11772.1,963,11748.6,947.3z"/>
		<path class="st11" d="M11815.9,915.3c0,0-28.6,1.1-41.3-5.1c-12.7-6.2-22.4-6.2-22.4-6.2s3.4-5.6,24.8-2.5
			C11798.4,904.6,11812.4,907.8,11815.9,915.3z"/>
		<path class="st11" d="M11683.4,1102c0,0,58.7-23.8,83.8-19.4c25.1,4.4,74.1,27.8,88.2,25.6c14.1-2.2,33.9,8.8,37.7-6.6
			c0,0,14.8,27.8-74.7,41.5c0,0-40.2,4.9-41,0.9c0,0-33.1,6.5-51.6-2.2c-15.9-7.5-23.6-4.1-23.6-4.1S11679.9,1117.3,11683.4,1102z"
			/>
		<path class="st11" d="M11801.7,1039.1c-8-4.1-85.6-15.2-87.2,1.2c-1.5,16.3,87.5,20.7,87.5,20.7l40.7,11c0,0,36.4-7.4,29.1-34.1
			C11871.9,1037.9,11824.9,1051,11801.7,1039.1z"/>
		<path class="st11" d="M11725.9,994.4c0,0,105.5,17.1,125.5-5.8c0,0,6.9,26.8-63.1,28S11725.9,994.4,11725.9,994.4z"/>
		<path class="st0" d="M11737.6,982.8c0,0-31.5-23.9,41.6-28.8c0,0,26.8-8.1,40.3,7.3c13.5,15.4,20.9-5.4,20.9-5.4
			s3.1,19.1-22.7,18.6C11791.9,974.1,11759.5,968,11737.6,982.8z"/>
		<path class="st0" d="M11822.8,927.4c-2.9,17-14.3,14.5-40.6,13.8c-37.8-0.9-47.7-14.6-47.1-21.1s24.1-6.5,24.1-6.5
			s14.7,0.5,20,2.7c5.3,2.2,16.7,15.2,26.6,11.1C11815.7,923.5,11823.8,921.5,11822.8,927.4z"/>
		<path class="st11" d="M11769.4,901.2c0,0-23-21.6,25.6-18.3c48.6,3.2,31.9,25.4,18,26.7C11799.1,911,11797.9,900.8,11769.4,901.2z
			"/>
		<path class="st12" d="M11788.3,879.9c0,0,0.8,12.7,25.8,11C11839,889.2,11788.3,879.9,11788.3,879.9z"/>
		<path class="st12" d="M11786,917.5c0,0,14.1-7.9,23.3,1.9C11818.5,929.1,11786,917.5,11786,917.5z"/>
		<path class="st12" d="M11815.9,954c0,0,17,8.7,20.2,0C11836.1,954,11827.2,947.4,11815.9,954z"/>
		<path class="st12" d="M11733.4,962.4c0,0,0.2-4.6,3.7-6C11740.7,955,11738,961.2,11733.4,962.4z"/>
		<path class="st12" d="M11748.6,987.7c-1.2,19.9,63,14,79.8,2.1C11845.2,978,11749.7,967.7,11748.6,987.7z"/>
		<path class="st12" d="M11806.5,1036.3c0,0,25,9.9,52.4,0C11886.3,1026.4,11806.5,1036.3,11806.5,1036.3z"/>
		<path class="st12" d="M11802.9,1084.8c0,0,39.4,22.9,70.4,18.4c30.9-4.6-25.1-21.1-25.1-21.1S11805.4,1077,11802.9,1084.8z"/>
		<path class="st12" d="M11724.8,1071.1c0,0-32.5,9.3-33,27.5c0,0,30.3-17.7,38.8-15.7
			C11739.1,1084.9,11734.4,1067.5,11724.8,1071.1z"/>
		<path class="st12" d="M11738.8,913.6c0,0,6.3-9.8,15.2-7.2S11738.8,913.6,11738.8,913.6z"/>
		<path class="st12" d="M11752.3,885.5c0,0,2.9,5,6.6,0C11762.5,880.5,11752.3,885.5,11752.3,885.5z"/>
		<path class="st12" d="M11717,1036.3c0,0,6.7-12.1,45.7-4.6c0,0,10.5-5.6,0-5.3S11720.5,1015.9,11717,1036.3z"/>
	</g>
	<path id="XMLID_328_" class="st4" d="M11509,598.3c0,0-7.5-58,70.1-66.2C11579.2,532,11582.2,590.5,11509,598.3z"/>
	<path id="XMLID_327_" class="st8" d="M12848.7,146.8c0,0-61,47.6-122.6-35.3C12726.2,111.5,12790.6,68.7,12848.7,146.8z"/>
	<path id="XMLID_330_" class="st7" d="M11564.7,679.9c0,0,17.9-28.2,54.9-3.4C11619.6,676.5,11599.6,703.3,11564.7,679.9z"/>
	<path class="st0" d="M12751.5,316.8c0,0,43.6-59.3,95.5-59.3c51.9,0,99,47.6,99,47.6s-71.8-13.4-97.2,4.5
		S12751.5,316.8,12751.5,316.8z"/>
	<line id="XMLID_329_" class="st13" x1="12847" y1="263.5" x2="12848.7" y2="-18.6"/>
	<path class="st0" d="M13084.9,257.6c0,0,99.1,71.7,224.1,0C13309,257.6,13458.9,214.6,13084.9,257.6z"/>
	<path class="st2" d="M13145.3,56c0,0,6.8,5.5,8.2-5.2s32.2,10.7,37.3-0.7c5.1-11.4,45.1-15.6,56.4-6.9
		C13252.2,47.1,13214.4,80.1,13145.3,56z"/>
	<path id="XMLID_331_" class="st5" d="M11680.8,563.7c0,0-406.4-716.4,470.2-1190.8C12152.1-626.7,12508.7,116.7,11680.8,563.7z"/>
	<path id="XMLID_6_" class="st14" d="M11434.2,562c128.9-9.7,116.8,256.1,116.8,256.1"/>
	<g>
		<path id="XMLID_305_" class="st15" d="M12067.7-115.8c-8.6-43.5-21.3-77.2-21.3-77.2c-97.6-48-88-68.9-65.8-70.7
			c22.2-1.7,133.7,50.9,128.2,34.6s-1.4-33.3,10.4-45.7c11.8-12.4,28.4,12.2,26.9,37.5c-1.5,25.3,18.7,30.3,18.7,30.3
			c479,58.3,502.4,164,502.4,164l-251.7,11.2l-196.7-48.1C12218.8-79.8,12076.3-72.2,12067.7-115.8z"/>
		<polygon class="st16" points="12531.9,-260.8 12526.5,-161.5 12581.9,-171.6 12581.9,-269.6 		"/>
		<path class="st0" d="M12516.4,1148.3c0,0-472.1-200.9-354.6-51.6c175.1,222.5,811.6,134.9,873.4,112.4s-75.1-32.9-75.1-32.9
			L12516.4,1148.3z"/>
		<polygon id="XMLID_308_" class="st7" points="12668,1139.5 12412.9,1151.1 12412.9,1169.8 12666.3,1168.5 		"/>
		<polygon id="XMLID_407_" class="st7" points="12952.2,1154.6 12697.1,1166.2 12697.1,1184.9 12950.6,1183.7 		"/>
		<path id="XMLID_404_" class="st15" d="M12573.3,36.2c-62.6,0-25.3-170.3-25.3-170.3l129.6-2.2l31,0.9
			C12708.5-135.4,12635.9,36.2,12573.3,36.2z"/>
		<path id="XMLID_403_" class="st17" d="M12639.1,953.2c13-0.6,34.8,196.1,34.8,196.1l-267,1.3c94.4-75.5,52.2-203.3,52.2-203.3
			L12639.1,953.2z"/>
		<path id="XMLID_402_" class="st17" d="M12739.5,974.7c44.8,151.3-40.6,191.6-40.6,191.6c184.1-2.9,264.5,7.8,261.2-23.2
			c-3.3-31-42.6-191.6-42.6-191.6L12739.5,974.7z"/>
		<path id="XMLID_401_" class="st16" d="M12739.5,974.7c17.6,11.4,174.1-17.4,174.1-17.4c4.1,64.3-162.5,81.3-162.5,81.3
			C12747,993,12739.5,974.7,12739.5,974.7z"/>
		<path id="XMLID_400_" class="st16" d="M12644.9,958.8l-188.7-9l14.5,72.8C12568,1022.7,12634.8,997.1,12644.9,958.8z"/>
		<path id="XMLID_399_" class="st15" d="M12575.9-169.3l5.2,35.8c52.4,63,96.4-2.8,96.4-2.8l-23.3-53.2
			c16.6-6.9,65.4-127.8-28.4-133.5c-93.8-5.7-104.8,134.1-69.5,154.9c35.3,20.7,71.7-21.4,71.7-21.4L12575.9-169.3z"/>
		<path id="XMLID_398_" class="st18" d="M12557.6-199.2c15.4-52.8-17.4-46.4-17.4-46.4"/>
		<circle id="XMLID_397_" class="st16" cx="12545.2" cy="-228.5" r="5.7"/>
		<circle id="XMLID_396_" class="st16" cx="12587.8" cy="-227.2" r="5.7"/>
		<path id="XMLID_395_" class="st16" d="M12576.3-162.4l4.5,27.1c32.2-9,48.4-52.2,48.4-52.2
			C12613.2-155.8,12576.3-162.4,12576.3-162.4z"/>
		<path id="XMLID_391_" class="st18" d="M12604,375.5c14.3,151,135.3,605.5,135.3,605.5"/>
		<path class="st19" d="M12345-39.3l36.3-140.4c0,0,145.2,18.3,199.2,43.4c0,0-30.5,48.2-144,109.1L12345-39.3z"/>
		<path id="XMLID_307_" class="st18" d="M12557.6-181.8c5.4,9.1,11.6,0,11.6,0"/>
		<path class="st8" d="M12447.4,82.5c-23.3,187.8-10,429.6-10,429.6l-3.8,444.3c0,0,140.3,2.4,211.3,2.4
			c7.1,0-33.3-516.8-29.7-506.8c11.8,33,108.8,525,128.3,524.2c106-4.4,195.4-28.9,195.4-28.9c9.1-59.3-88.3-479.3-87.1-621.7
			c1.5-172.1-21.3-375.6-21.3-375.6c-6-88.8-81.8-86.8-81.7-86.9l-63.1,2c0,0-60,122.3-105.1,121.4c-69.4-1.5,3.5-123.4,2.8-123.6
			c0.2-1.4-43,3.6-46.6,4.5c-60.3,5-99.2,106.2-99.2,106.2S12446.2,90,12447.4,82.5z M12482.2-106.2l-34.9,189
			c-0.1,0.5,21.4-111.9,21.4-111.9"/>
		<path id="XMLID_389_" class="st15" d="M12827-63.4c-15.3,253.7-307.9,584.4-380,575.7c-72.1-8.7-110.1-59.9-110.1-59.9
			s179.8-67,122.5-62c-57.1,5-55.9-9.9-55.9-9.9s6.2-16.1,53.1-46.2c46.9-30.1,183.1-278.2,212.7-375.6s90.9-92,90.9-92
			C12827.3-130.8,12827-63.4,12827-63.4z"/>
		<path id="XMLID_388_" class="st20" d="M12704.7,249.1c0,0-65.7-29.5-29-81.3c36.6-51.8,87.1-11.6,87.1-11.6"/>
		<path class="st16" d="M12724.5-186.2l-106.4,44.2c0,0,77.8-121.8-42.4-121.8c0,0-38.7-3.1-4,11.3c0,0-67.6,0.4-52-32.7
			S12714.7-461.6,12724.5-186.2z"/>
		<path class="st19" d="M12671.7-48.8L12616,59.8l165.8,84.2c0,0,72.9-202.7,37.1-253.5s-105.2-24.1-105.2-24.1L12671.7-48.8z"/>
	</g>
	<path id="XMLID_412_" class="st21" d="M11540.8,706.3c0,0-51.4,69.7-219.1-4.7C11321.6,701.6,11418.9,596.9,11540.8,706.3z"/>
	<path id="XMLID_411_" class="st21" d="M11453.8,561.9c0,0-507.1,288.6-1336.9-627.4C10116.9-65.5,11002.1-444.5,11453.8,561.9z"/>
	<g>
		<ellipse class="st0" cx="10111.6" cy="997.9" rx="356" ry="40"/>
		<g>
			<g>
				<g>
					<g>
						<path class="st15" d="M10316.6-345.8c0,0,53.7,3.2,42.7-128.5c0,0-75.3-39.2-112.9,0c-37.6,39.2,12.5,119.2,26.6,120.7"/>
						<path class="st1" d="M10387.5-463.3c0,0-31.7,17.3-108.3,11c-13.7-1.1-35,35.9-16.8,58.1c12.3,15,10.9,22.1,10.6,40.6
							c-0.4,25.4-9.7,50.8-9.7,50.8s-167.6,280.2-275.6,224.9c-108.1-55.3-61.2-231.7,0.1-248.2c61.4-16.5,40.2-101.7,63.2-141.1
							c22.9-39.4,138.9-17.3,144.1-27.7s52.8-61.9,109.5-54.5C10361.3-541.9,10414.1-480.9,10387.5-463.3z"/>
						<path class="st16" d="M9992.4,116.4c0,0-12,213.7-96,353c0,0-91.2,240.1-64.8,355.3c0,0,84.1,74.4,160.8,14.4
							c0,0,155.5-248.6,228.1-446.6c0,0-110.4,271.3-33.6,482.6c0,0,127.3,38.4,156,0c0,0,199.3-777.9,98.5-962.8l112.9-115.2
							c0,0-144.1-100.8-237.7-98.5c0,0-20.5,15.9-46.4-0.1c0,0-162.3-43.8-246.9,102.5l127.5,89.8
							C10150.8-109.1,9993.4,16.5,9992.4,116.4z"/>
						<path class="st15" d="M10439.6-85.9c0,0,171.5,141.9,238,88.4c66.5-53.5,31.8-367.6,31.8-367.6s42.5-4.7,54.1-12.2
							c28.3-18.5,35.4-112.4-16.8-94.7c-35.1,12-67.6,45.2-88.9-12.9c-2.9-8-27.3-44-24.1,14.3c3.2,58.4-22.3,39.9-20.6,93.4
							c1.6,53.5-2.3,197.3-15.3,197.3c-13,0-45.5-21.1-45.5-21.1L10439.6-85.9z"/>
						<path class="st22" d="M9771.9,932.4l49.9,31.2c0,0,3.6-29.4,15.2-27.6c11.6,1.8,47.7,75.8,47.7,75.8l172.4,3.6v-19.6
							l-33.9-21.8c0,0-52.6,1.4-80.6-21.8c-28.1-23.2-106.4-100.3-106.4-100.3l-34.8,6.7L9771.9,932.4z"/>
						<path class="st22" d="M10133.8,950.2l49.9,31.2c0,0,3.6-29.4,15.2-27.6c11.6,1.8,56.5,61.4,56.5,61.4h172.9l3.1-22.3
							l-28.5-20.4c0,0-61.5,6.2-89.6-17c-28.1-23.2-117.9-77.1-117.9-77.1l-34.8,6.7L10133.8,950.2z"/>
						<path class="st23" d="M10198.8,878.4v13.8c0,0,78.6,91.5,141.9,79.3c0,0-28.1-26.9-24.6-46c3.5-19,6.2-37.2,6.2-37.2
							S10269.8,898.5,10198.8,878.4z"/>
						<path class="st23" d="M9847.9,836.6l-21.1,27.1c0,0,85.9,110.4,115.7,98.9V861.2C9942.5,861.2,9909.6,869.3,9847.9,836.6z"/>
						<path class="st15" d="M9916.6,77.7c-17.4-66.6,29.6-167.4,108.8-276.8l127.5,89.8c0,0-79.1,86.9-77.2,119
							c0,0,46.5,95.7,143.9-25c0,0,23.8-15.7,20.8,13.5s-5.7,33.7-5.7,33.7s40.8-25.8,50.6-32.2c22.7-14.7,38.7,88.4,7.9,111.5
							C10169,204.4,9944.7,185.2,9916.6,77.7z"/>
						<path class="st15" d="M10273.1-353.6l-9.1,49.7c0,0,22.4,24.9,52.6,2.5v-44.3L10273.1-353.6z"/>
						<path class="st16" d="M10316.6-327.5v-18.3c0,0-28.7,0.4-43.5-7.8C10273.1-353.6,10306.9-328.6,10316.6-327.5z"/>
					</g>
					<circle class="st16" cx="10352.8" cy="-423.4" r="5.4"/>
					<circle class="st16" cx="10300.8" cy="-423.4" r="5.4"/>
					<path class="st24" d="M10333.9-406.8c0,0,10.5,17.8-3.7,17.8"/>
					<path class="st24" d="M10290.5-438.9c0,0,12.2-7.6,22,2.6"/>
					<path class="st24" d="M10340.2-433.1c0,0,11.3-11.6,21.4-5.8"/>
					<path class="st24" d="M10317.5-372.9c0,0,4.3,11.6,11.1,2.2"/>
					<path class="st24" d="M10623.8,13.4c0,0,3-32.8,31.2-45.3c28.1-12.5,45.4-1.6,45.4-1.6"/>
					<path class="st24" d="M9912.8,33.2c0,0,21,6.8,30.9,42.8c9.9,35.9-8,38.2-8,38.2"/>
				</g>
				<line class="st24" x1="10242.1" y1="58.1" x2="10303.4" y2="17.5"/>
				<path class="st24" d="M10250.1,82c32.4-13.8,60.5-38.3,60.5-38.3"/>
				<path class="st24" d="M10258.7,105.7c28.7-9.7,50.8-32.2,50.8-32.2"/>
			</g>
			<path class="st24" d="M10779.7-460.4c0,0-25.6,13.9-63.2,24.1"/>
			<path class="st24" d="M10785.2-435.4c0,0-26.8,12.7-64.5,22.8"/>
			<path class="st24" d="M10782.4-408.7c0,0-21.8,10.8-59.6,21"/>
		</g>
	</g>
	<path id="XMLID_526_" class="st25" d="M9764.5,185.9"/>
	<path id="XMLID_521_" class="st25" d="M9764.6,208.5"/>
	<g>
		<path class="st0" d="M13038.9,1209.7c0,0-184.8-39.2-38.7,58.4c146.1,97.6,461.5,18.6,518.7-2.1c57.2-20.8-69.5-30.4-69.5-30.4
			L13038.9,1209.7z"/>
		<polygon id="XMLID_243_" class="st26" points="13442.1,1215.6 13206.1,1220.9 13206.1,1243.6 13440.6,1242.4 		"/>
		<path id="XMLID_240_" class="st15" d="M13091.5,180.7c-58,0-23.5-157.6-23.5-157.6l120-2l28.6,0.8
			C13216.6,21.9,13149.4,180.7,13091.5,180.7z"/>
		<path id="XMLID_239_" class="st27" d="M13239.9,1043.9c12.1-0.5,32.2,181.5,32.2,181.5l-247.1,1.2
			c87.4-69.8,48.3-188.1,48.3-188.1L13239.9,1043.9z"/>
		<path id="XMLID_238_" class="st27" d="M13245.3,1049.1c41.5,140-37.6,177.3-37.6,177.3c170.3-2.7,244.8,7.2,241.7-21.5
			c-3-28.7-39.4-177.3-39.4-177.3L13245.3,1049.1z"/>
		<path id="XMLID_237_" class="st16" d="M13245.3,1049.1c16.3,10.5,161.1-16.1,161.1-16.1c3.8,59.5-150.4,75.2-150.4,75.2
			C13252.3,1066,13245.3,1049.1,13245.3,1049.1z"/>
		<path id="XMLID_236_" class="st16" d="M13245.3,1049.1l-174.6-8.3l13.4,67.4C13174.1,1108.1,13236,1084.4,13245.3,1049.1z"/>
		<path id="XMLID_235_" class="st15" d="M13093.9-9.4l4.8,33.1c48.5,58.3,89.2-2.6,89.2-2.6l-21.6-49.2
			c15.3-6.4,60.5-118.2-26.3-123.5c-86.8-5.3-97,124.1-64.3,143.3c32.7,19.2,66.3-19.8,66.3-19.8L13093.9-9.4z"/>
		<path id="XMLID_234_" class="st28" d="M13077-37.1c14.3-48.9-16.1-43-16.1-43"/>
		<circle id="XMLID_233_" class="st16" cx="13065.5" cy="-64.2" r="5.3"/>
		<circle id="XMLID_232_" class="st16" cx="13104.9" cy="-63" r="5.3"/>
		<path id="XMLID_231_" class="st16" d="M13094.3-3.1l4.2,25.1c29.8-8.3,44.8-48.3,44.8-48.3C13128.4,3,13094.3-3.1,13094.3-3.1z"/>
		<path id="XMLID_230_" class="st15" d="M12973.5,375.5L12859.1,528l-58.6-88.8c162.6-415.8,254.9-411.9,254.9-411.9L12973.5,375.5z
			"/>
		<path id="XMLID_229_" class="st19" d="M13254,20.5l-58.4,1.9c0,0-55.5,112.7-97.3,112.3c-48.2-0.5-30.2-111.6-30.2-111.6
			c-135.2,2.6-102.4,598-102.4,598l100.3,432.2c0,0,113.5,1.6,179.2,1.6c65.7,0.1,228.2-35.3,228.2-35.3
			c8.4-54.8-139.7-414.7-138.5-546.5c1.4-159.2-14.2-340.7-14.2-340.7C13323.3,17.2,13253.9,20.6,13254,20.5z"/>
		<path id="XMLID_228_" class="st27" d="M13060.7,494.1c0,0-176.3,76.6-196.4,87.7s-72.2-25.1-72.2-25.1l-44.8-286.5l214.9-53.7
			l79.9,170.1L13060.7,494.1z"/>
		<path id="XMLID_227_" class="st29" d="M13090,302.5c3.8-154.9-134.3-95.5-134.3-95.5"/>
		<polygon id="XMLID_226_" class="st26" points="13206.1,1227.5 13206.4,1243.9 13023.4,1243.9 13023.4,1228.1 		"/>
		<path id="XMLID_225_" class="st28" d="M13120,494.6c13.2,139.7,125.2,560.3,125.2,560.3"/>
		<path id="XMLID_224_" class="st30" d="M12842.7,206.8c52.6-14.8,112.9-14.1,119.6,9.7c6.7,23.8-42.8,61.7-95.4,76.5
			s-112.8,10-119.5-13.8C12740.7,255.4,12790.1,221.6,12842.7,206.8z"/>
		<polygon id="XMLID_223_" class="st26" points="12786.8,543.1 12676.2,377.7 12676.2,350.9 12770.8,419.4 		"/>
		<ellipse id="XMLID_222_" class="st31" cx="12643.6" cy="349.9" rx="46.3" ry="53.7"/>
		<circle id="XMLID_221_" class="st31" cx="12664.9" cy="330.1" r="4.5"/>
		<circle id="XMLID_220_" class="st31" cx="12642.3" cy="330.1" r="4.5"/>
		<circle id="XMLID_219_" class="st31" cx="12619.3" cy="330.1" r="4.5"/>
		<circle id="XMLID_218_" class="st31" cx="12664.9" cy="351" r="4.5"/>
		<circle id="XMLID_217_" class="st31" cx="12642.3" cy="351" r="4.5"/>
		<circle id="XMLID_216_" class="st31" cx="12619.3" cy="351" r="4.5"/>
		<circle id="XMLID_215_" class="st31" cx="12664.9" cy="369.9" r="4.5"/>
		<circle id="XMLID_214_" class="st31" cx="12642.3" cy="369.9" r="4.5"/>
		<circle id="XMLID_213_" class="st31" cx="12619.3" cy="369.9" r="4.5"/>
		<path id="XMLID_212_" class="st16" d="M12845.4,215.9c38.2-10.7,97.2-11.9,102.1,5.4s-45.9,50.4-84.1,61.1
			c-38.2,10.7-93.7,9.9-98.5-7.4S12807.2,226.7,12845.4,215.9z"/>
		<path id="XMLID_211_" class="st15" d="M12737.1,516.9c0.1,23.8,71.6,53.7,71.6,53.7s-15.5-12.7-9-62.7c6.5-50-53.7-80.6-53.7-80.6
			C12723.2,466.9,12737,493.1,12737.1,516.9z"/>
		<path id="XMLID_207_" class="st15" d="M13326.3,88.5c-14.1,234.7-284.9,540.7-351.6,532.7c-66.7-8.1-101.9-55.4-101.9-55.4
			s166.3-61.9,113.4-57.4c-52.9,4.6-51.7-9.2-51.7-9.2s5.7-14.9,49.1-42.8c43.4-27.9,169.4-257.4,196.8-347.6
			c27.4-90.2,84.1-85.2,84.1-85.2C13326.6,26.2,13326.3,88.5,13326.3,88.5z"/>
		<path id="XMLID_206_" class="st28" d="M12889,585.9c22.3-0.8,64.5-26.9,64.5-26.9"/>
		<path id="XMLID_205_" class="st28" d="M12915.8,602c16.4,3.2,59.1-26.9,59.1-26.9"/>
		<path id="XMLID_204_" class="st28" d="M12952.8,618.8c13.6-0.1,48.9-27.5,48.9-27.5"/>
		<path id="XMLID_203_" class="st32" d="M13213.1,377.6c0,0-60.8-27.3-26.9-75.2c33.9-47.9,80.6-10.7,80.6-10.7"/>
		<line id="XMLID_201_" class="st32" x1="13400" y1="1242.4" x2="13400" y2="1226.3"/>
		<line id="XMLID_200_" class="st32" x1="13389.9" y1="1242.4" x2="13389.9" y2="1226.3"/>
		<line id="XMLID_199_" class="st32" x1="13379.7" y1="1242.4" x2="13379.7" y2="1226.3"/>
		<line id="XMLID_198_" class="st32" x1="13370.2" y1="1242.4" x2="13370.2" y2="1226.3"/>
		<line id="XMLID_197_" class="st32" x1="13360" y1="1242.4" x2="13360" y2="1226.3"/>
		<line id="XMLID_196_" class="st32" x1="13349.3" y1="1242.4" x2="13349.3" y2="1226.3"/>
		<line id="XMLID_195_" class="st32" x1="13339.2" y1="1242.4" x2="13339.2" y2="1226.3"/>
		<line id="XMLID_194_" class="st32" x1="13329.6" y1="1242.4" x2="13329.6" y2="1226.3"/>
		<line id="XMLID_193_" class="st32" x1="13319.5" y1="1242.4" x2="13319.5" y2="1226.3"/>
		<line id="XMLID_192_" class="st32" x1="13309.3" y1="1242.4" x2="13309.3" y2="1226.3"/>
		<line id="XMLID_191_" class="st32" x1="13299.2" y1="1242.4" x2="13299.2" y2="1226.3"/>
		<line id="XMLID_190_" class="st32" x1="13289.6" y1="1242.4" x2="13289.6" y2="1226.3"/>
		<line id="XMLID_189_" class="st32" x1="13279.5" y1="1242.4" x2="13279.5" y2="1226.3"/>
		<line id="XMLID_188_" class="st32" x1="13268.7" y1="1242.4" x2="13268.7" y2="1226.3"/>
		<line id="XMLID_187_" class="st32" x1="13259.2" y1="1242.4" x2="13259.2" y2="1226.3"/>
		<line id="XMLID_186_" class="st32" x1="13249" y1="1242.4" x2="13249" y2="1226.3"/>
		<line id="XMLID_185_" class="st32" x1="13238.3" y1="1242.4" x2="13238.3" y2="1226.3"/>
		<line id="XMLID_184_" class="st32" x1="13227.6" y1="1242.4" x2="13227.6" y2="1226.3"/>
		<line id="XMLID_183_" class="st32" x1="13217.4" y1="1242.4" x2="13217.4" y2="1226.3"/>
		<polygon id="XMLID_182_" class="st16" points="13208.8,1242.4 13208.8,1226.3 13198.6,1226.9 13198.6,1242.4 		"/>
		<line id="XMLID_181_" class="st32" x1="13189.4" y1="1243.6" x2="13189.4" y2="1227.5"/>
		<line id="XMLID_180_" class="st32" x1="13179.2" y1="1243.6" x2="13179.2" y2="1227.5"/>
		<line id="XMLID_179_" class="st32" x1="13169.7" y1="1243.6" x2="13169.7" y2="1227.5"/>
		<line id="XMLID_178_" class="st32" x1="13159.5" y1="1243.6" x2="13159.5" y2="1227.5"/>
		<line id="XMLID_177_" class="st32" x1="13149.4" y1="1243.6" x2="13149.4" y2="1227.5"/>
		<line id="XMLID_176_" class="st32" x1="13139.2" y1="1243.6" x2="13139.2" y2="1227.5"/>
		<line id="XMLID_175_" class="st32" x1="13129.7" y1="1243.6" x2="13129.7" y2="1227.5"/>
		<line id="XMLID_174_" class="st32" x1="13119.5" y1="1243.6" x2="13119.5" y2="1227.5"/>
		<line id="XMLID_173_" class="st32" x1="13108.8" y1="1243.6" x2="13108.8" y2="1227.5"/>
		<line id="XMLID_172_" class="st32" x1="13099.2" y1="1243.6" x2="13099.2" y2="1227.5"/>
		<line id="XMLID_171_" class="st32" x1="13089.1" y1="1243.6" x2="13089.1" y2="1227.5"/>
		<line id="XMLID_170_" class="st32" x1="13078.4" y1="1243.6" x2="13078.4" y2="1227.5"/>
		<line id="XMLID_169_" class="st32" x1="13068.8" y1="1244.8" x2="13068.8" y2="1228.7"/>
		<line id="XMLID_168_" class="st32" x1="13058.7" y1="1244.8" x2="13058.7" y2="1228.7"/>
		<line id="XMLID_167_" class="st32" x1="13049.1" y1="1244.8" x2="13049.1" y2="1228.7"/>
		<line id="XMLID_166_" class="st32" x1="13039" y1="1244.8" x2="13039" y2="1228.7"/>
		<line id="XMLID_165_" class="st32" x1="13030.6" y1="1244.8" x2="13030.6" y2="1228.7"/>
		<path id="XMLID_164_" class="st33" d="M13077-21c5,8.4,10.7,0,10.7,0"/>
		<path id="XMLID_151_" class="st16" d="M13146.8-155.3c37,6.7,59.7,45.4,59.1,69.8c-0.8,35.7-39.6,57.5-39.4,57.3
			c33.6-63.9-8.9-51.9-8.9-51.9c-75.9,6.3-70.9-17.6-69.8-32.2c0.5-7.3-21.5,10.7-21.5,10.7S13077.2-168.1,13146.8-155.3z"/>
		<path id="XMLID_150_" class="st34" d="M13158.7-52.6c37.5-15.6,11.4-24.2,3.5-26.3c-17.7-4.6-17.9,17.9-17.9,17.9"/>
		<path id="XMLID_149_" class="st16" d="M13377.8-47.9c-39-119.1-175.3-87.2-186.5-46.9S13422,87,13377.8-47.9z"/>
	</g>
	<g>
		<path class="st35" d="M10936.9-473.2V-682c0,0,38.7,25.5,161.8-2.9l-1.4,40.1L10936.9-473.2z"/>
		<g>
			<path class="st22" d="M11823.2,274.7l-1-769.3l-0.6,0.2c0.3-22.4-4.1-249.5-327.7-249.5c-340.4,0-537.3,170.2-558,270.7
				c0,0,80.3-195.2,362.1-195.2c333.1,0,348,226.6,348,226.6l13.1,804.7L11823.2,274.7z"/>
			<path class="st35" d="M11331.5-682c-334.5,0-394.6,208.9-394.6,208.9v727.4l722.2,108.8v-793.7
				C11659.2-430.8,11666-682,11331.5-682z"/>
		</g>
		<ellipse class="st0" cx="11273.4" cy="-274.1" rx="50.5" ry="68.1"/>
		<polygon class="st0" points="11262,-234.4 11190.5,16.9 11337.9,33 11282.8,-234.4 		"/>
		<polygon class="st22" points="10962.5,-689.4 10936.9,-682 10963.1,-660.8 		"/>
		<path class="st22" d="M11098.6-682.1c0,0,58.3-475.2,303.9-475.2c277.3,0,284.8,558.1,284.8,558.1c55,91.8,106.7,22.9,106.7,22.9
			s19.4-667.8-378.3-667.8s-430.6,549.8-430.6,549.8S10991.9-636.9,11098.6-682.1z"/>
		<path class="st35" d="M11062.6-669.9c0,0,58.3-475.2,303.9-475.2c277.3,0,284.8,558.1,284.8,558.1c55,91.8,106.7,22.9,106.7,22.9
			s19.4-667.8-378.3-667.8S10949.1-682,10949.1-682S10955.9-624.7,11062.6-669.9z"/>
		<polygon class="st22" points="11062.6,-669.9 11062.6,-625 11097.3,-644.9 11098.6,-682.1 		"/>
	</g>
	<path id="XMLID_5_" class="st14" d="M11551,818.1c0,0-12.1-271.5,116.8-261.8"/>
	<path id="XMLID_4_" class="st5" d="M11659.2,555c0,0,144.5-177.1,561.6,114.4C12220.7,669.4,11952.3,926.4,11659.2,555z"/>
	<g>
		<g>
			<path class="st1" d="M9462-217.2c0,0,28.5,11,4.5,25.8c0,0,29.2-5.9,28.3-24.6s-28.3-28.3-28.3-28.3L9462-217.2z"/>
			<path class="st15" d="M9616.6,228.1c0,0-101.8,158-97.2,191.7c1.9,14.1,8.1,12.6,50.4-26.2c42.3-38.8-62.2,96-62.2,96
				s61.3,17.4,123.8-19.6c30.6-18.1,56.3-104.9,55.1-241.9H9616.6z"/>
			<path class="st0" d="M9222.4,1157.6c0,0-84.5,10.4-46.3,32.9c38.2,22.4,421.8,76.8,519.2-28.7s-199.1-32.1-199.1-32.1
				L9222.4,1157.6z"/>
			<polygon class="st1" points="9548.7,1069.4 9548.7,987.8 9468,967.8 9466.4,1062.5 			"/>
			<polygon class="st1" points="9363.2,1099.6 9363.2,985.2 9282.5,957.2 9280.9,1089.8 			"/>
			<path class="st16" d="M9520.7,1147.7c0,0-2.9-20.2-13.3-22.2c-10.4-2.1-18.1,19.5-18.1,19.5l-48.8-4.3l7-80.1l119.6,10.5l30,31.9
				c0,0,49.8,5.6,72,6.4c22.2,0.8,44.3,55.4,44.3,55.4L9520.7,1147.7z"/>
			<path class="st16" d="M9337.3,1174c0,0-2.9-20.2-13.3-22.2c-10.4-2.1-18.1,19.5-18.1,19.5l-48.8-4.3l7-80.1l119.6,10.5l30,31.9
				c0,0,49.8,5.6,72,6.4c22.2,0.8,44.3,55.4,44.3,55.4L9337.3,1174z"/>
			<path id="XMLID_449_" class="st19" d="M9190.8,276.4c1.2,142.5,44.4,663.4,53.5,722.6c0,0,62.7,10.3,168.7,14.7l14.1-590.1
				l-0.3,571.8c72.5,33.1,171.9,23.8,171.9,23.8l6.7-588.9c0,0,4.3-46.1,3.7-147.8L9190.8,276.4z"/>
			<polygon class="st1" points="9034,568.8 9061.6,542.5 9443.5,431.5 9426.8,450.4 			"/>
			<path id="XMLID_498_" class="st15" d="M9334.3-217.2l31-0.9l129.6,2.2c0,0,37.3,170.3-25.3,170.3S9334.3-217.2,9334.3-217.2z"/>
			<path id="XMLID_471_" class="st15" d="M9414.8-271.4c0,0,36.3,42.1,71.7,21.4c35.3-20.8,47.4-144-46.5-138.3
				c-93.8,5.7-68,110-51.4,116.9l-23.3,53.2c0,0,55.9,68.9,108.4,5.8l-6.7-38.9L9414.8-271.4z"/>
			<path class="st16" d="M9417.4-288.2c15.7,16.4,61.8,30.3,90.4,7.2c0,0,2.7,26.4-29.5,34.8c-32.2,8.3-64.1-2.6-69.6-36.9
				S9412.2-293.6,9417.4-288.2z"/>
			<path id="XMLID_465_" class="st18" d="M9502.6-327.5c0,0-32.8-6.4-17.4,46.4"/>
			<circle id="XMLID_455_" class="st16" cx="9497.6" cy="-310.3" r="5.7"/>
			<circle id="XMLID_454_" class="st16" cx="9455" cy="-309" r="5.7"/>
			<path id="XMLID_453_" class="st16" d="M9413.5-269.4c0,0,27.2,44.8,59.5,53.8l-6.5-28.7C9466.5-244.3,9429.6-237.6,9413.5-269.4z
				"/>
			<path id="XMLID_451_" class="st15" d="M9473.6-263.6c0,0,6.3,9.1,11.6,0"/>
			<polygon class="st36" points="9034,568.8 9426.8,450.4 9498.1,695.7 9095.6,807.3 			"/>
			<polyline class="st36" points="9244.3,443.5 9085.9,492.5 9076,456.1 9226.5,409.5 			"/>
			<path class="st37" d="M9269.7,337.1c-0.2-25.4,2.5-57.2,4-86.4C9270.4,284.8,9268.8,314.9,9269.7,337.1z"/>
			<path class="st15" d="M9490.1-205.8c-0.4,0.2-0.7,0.5-1.1,0.7c0,0-3.8,2.4-8.6,7.8C9484.9-200,9488-203,9490.1-205.8z"/>
			<path class="st15" d="M9514.7-217.3l21.3-1.4C9529.4-219.5,9522.3-219.2,9514.7-217.3z"/>
			<path class="st15" d="M9269.7,337.1c-0.8-22.2,0.7-52.3,4-86.4c0,0,0,0,0,0h-152.8c-0.6,134.5,22.1,246.3,52.3,264.2
				c62.5,37,123.8,19.6,123.8,19.6s-101.7-162.6-59.4-123.8c42.3,38.8,57.7,46.8,72.6,33.5C9323.3,432.5,9270.2,350.6,9269.7,337.1
				C9269.7,337.2,9269.7,337.2,9269.7,337.1C9269.7,337.2,9269.7,337.1,9269.7,337.1z"/>
			<path class="st2" d="M9616.6,228.1h69.8h0c0,0,5.6-446.8-150.4-446.8l0,0l-21.3,1.4l-19.9,1.3c0,0-0.5,4.6-4.7,10.2
				c-2.1,2.8-5.2,5.8-9.7,8.5c-8.1,5-20.7,9-40.5,9.3c-45.1,0.5-83-28.7-83-28.7l-63.1-2c0.1,0-16.6-0.4-35,8.3c0,0,0,0,0,0
				c-31.5,2-57.1,50.2-77.4,114.8c-36,114.6-55.2,280.8-60.5,331.3c-1,9.7-1.5,15.1-1.5,15.1h1.3h152.8c0,0,0,0,0,0
				c-1.5,29.2-4.2,61.1-4,86.4c0,0,0,0.1,0,0.1c0,0,0,0,0,0c0.2,0,153.1,42.2,255.8,37.6c31.5-1.4,58.3-7.2,74.5-19.9
				C9625.8,334.7,9619.2,274,9616.6,228.1z"/>
			<polyline class="st36" points="9226.5,409.5 9334.8,376 9345.5,412.9 9244.3,443.5 			"/>
			<polygon class="st36" points="9309.9,383.7 9333.6,470 9360.7,462.4 9334.8,376 			"/>
			<polygon class="st36" points="9075.3,456.1 9099.1,542.5 9126.1,534.8 9100.2,448.4 			"/>
			<polygon class="st1" points="9515.1,674.8 9498.1,695.7 9426.8,450.4 9443.5,431.5 			"/>
			<path class="st1" d="M9426.8-186.1l53.6-9.3c0,0,22.5,58.2,4.8,74.4l0,0l20.6,497.3l-56.5-3.3l-5.8-518.3
				C9433.1-164.4,9426.8-186.1,9426.8-186.1z"/>
			<path class="st16" d="M9559.7-374.1c0,0-44,41.6-120.8,13.7c0,0-17.6-2.4-12.1,37.6c0,0-50-50-50.1,32c0,0-56.8-70.8,15.2-120.6
				S9497.5-347.6,9559.7-374.1z"/>
			<path class="st18" d="M9410.3-324.3c0,0-18.8-22.2-20.3,8.3"/>
			<path class="st19" d="M9360.7-243.2c2-2.7,16-1,16-1l-8.1,18.6C9368.6-225.7,9358.2-240,9360.7-243.2z"/>
			<path class="st1" d="M9360.7-243.2l-3.6,26.5c0,0,19.7,21.4,69.8,28.7C9426.8-188,9360.2-225.3,9360.7-243.2z"/>
		</g>
		<path id="XMLID_447_" class="st20" d="M9140.5,20.7c0,0,64.5-1.1,62,62.3c-2.5,63.4-72.5,46.7-72.5,46.7"/>
	</g>
	<g>
		<path id="XMLID_322_" class="st1" d="M11184.6,383c21.2-13.9,49.7-8,63.5,13.2c14,21.5,7.9,49.5-13.8,63.8
			c-20.9,13.7-49,7.9-63-13.2C11157.1,425.3,11162.9,397.3,11184.6,383z"/>
		<path id="XMLID_319_" class="st1" d="M11124.5,248.7c21.1-14,49.5-8.4,63.6,12.7c14,20.8,8.1,49.7-12.7,63.7
			c-21.2,14.2-49.9,8.4-64-12.9C11097.5,290.8,11103.2,262.9,11124.5,248.7z"/>
		<path id="XMLID_317_" class="st1" d="M11028.1,108.1c13.9,21.1,7.9,49.7-13.2,63.4c-21.5,14-49.5,8-63.7-13.7
			c-13.6-20.8-7.7-49.2,13.1-63.1C10985.4,80.6,11014,86.6,11028.1,108.1z"/>
		<path id="XMLID_316_" class="st1" d="M11065.5,424.8c-13.8-21.1-7.9-49.8,13.2-63.5c21.5-14,49.7-7.9,63.8,13.7
			c13.6,20.9,7.8,49-13.1,62.9C11108.1,452.2,11079.6,446.3,11065.5,424.8z"/>
		<path id="XMLID_315_" class="st1" d="M10973,340c21.5-14.2,49.8-8.3,63.8,13.1c13.8,21.2,7.9,49.7-13.2,63.5
			c-21.2,13.9-49.4,8-63.4-13.1C10946.1,382.1,10951.8,354.1,10973,340z"/>
		<path id="XMLID_314_" class="st1" d="M10859,73.2c21.4-13.9,49.3-8.2,63.4,13.1c14,21.3,8.1,50.1-13.3,63.8s-49.6,7.7-63.3-13.6
			C10831.9,115,10837.7,87,10859,73.2z"/>
		<path id="XMLID_312_" class="st1" d="M10794.9,247.3c-13.8-21.1-7.9-49.8,13.1-63.5c21.1-13.8,49.6-7.9,63.5,13.2
			c14,21.2,8.3,49.4-12.8,63.5C10837.5,274.7,10809,268.8,10794.9,247.3z"/>
		<path id="XMLID_311_" class="st1" d="M11070.3,116.3c21.2-14,49.8-8.1,63.5,13c13.7,21.2,7.7,49.5-13.5,63.5
			c-21.2,14-49.7,8-63.5-13.2C11042.9,158.2,11048.8,130.4,11070.3,116.3z"/>
		<path id="XMLID_310_" class="st1" d="M11069.1,303.6c-21.3,14-49.1,8.3-63.2-13.1c-13.9-21.1-8.1-49.6,13-63.5
			c21.3-14.1,49.6-8.1,63.8,13.5C11096.6,261.7,11090.6,289.5,11069.1,303.6z"/>
		<path id="XMLID_309_" class="st1" d="M10803.8,127.9c-21.4,14.1-49.3,8.5-63.4-12.8c-14-21.2-8.3-49.6,12.8-63.6
			c21-14,49.6-8.1,63.6,13C10831,85.8,10825.2,113.7,10803.8,127.9z"/>
		<path id="XMLID_306_" class="st1" d="M10917.7,394.9c-21.3,14-49.2,8.2-63.3-13.2c-13.9-21.1-7.9-49.8,13.3-63.5
			c21.2-13.8,49.5-7.8,63.5,13.5C10945.2,352.9,10939.3,380.6,10917.7,394.9z"/>
		<path id="XMLID_304_" class="st1" d="M10913.8,205.6c21.2-14,49.5-8,63.3,13.3c13.8,21.3,7.8,49.4-13.5,63.4
			c-21,13.8-49,8-63-12.9C10886.3,247.9,10892.1,219.9,10913.8,205.6z"/>
	</g>
</g>
</svg>
