<?xml version="1.0" encoding="utf-8"?>
<!-- Generator: Adobe Illustrator 19.0.0, SVG Export Plug-In . SVG Version: 6.00 Build 0)  -->
<svg version="1.1" id="Warstwa_1" xmlns="http://www.w3.org/2000/svg" xmlns:xlink="http://www.w3.org/1999/xlink" x="0px" y="0px"
	 viewBox="5047 -2306 10125 4644" style="enable-background:new 5047 -2306 10125 4644;" xml:space="preserve">
<style type="text/css">
	.st0{fill:#2C8968;}
	.st1{fill:#FFFFFF;}
	.st2{fill:#A4DCD7;}
	.st3{fill:#242D26;}
	.st4{fill:#8DFF8B;}
	.st5{fill:#0E1A17;}
	.st6{fill:#21674E;}
	.st7{fill:none;stroke:#333333;stroke-width:17.7573;stroke-miterlimit:10;}
	.st8{fill:#A8FFCD;}
	.st9{fill:#73C47D;}
	.st10{fill:#16211F;}
	.st11{opacity:0.5;fill:#0E1A17;enable-background:new    ;}
	.st12{opacity:0.2;fill:#7B8369;enable-background:new    ;}
	.st13{fill:none;stroke:#333333;stroke-width:7.2704;stroke-miterlimit:10;}
	.st14{fill:#62BD41;}
	.st15{fill:#23C495;}
	.st16{fill:#E1F1EE;stroke:#333333;stroke-width:3.8706;stroke-miterlimit:10;}
	.st17{fill:#FFE300;}
	.st18{fill:#FCC812;}
	.st19{fill:#F9FF5C;}
	.st20{fill:#F6D6D9;}
	.st21{fill:#333333;}
	.st22{fill:#CCCBA2;}
	.st23{fill:none;stroke:#333333;stroke-width:3.87;stroke-miterlimit:10;}
	.st24{fill:#E1F1EE;}
	.st25{fill:none;}
	.st26{fill:none;stroke:#333333;stroke-width:3.225;stroke-miterlimit:10;}
</style>
<polygon class="st0" points="15164,-2322.8 5051.7,-2322.8 5051.7,-1431.9 5045.4,-1431.9 5045.4,-503.6 5045.4,-498.7 
	5045.4,429.6 15157.7,429.6 15157.7,-498.7 15157.7,-503.6 15157.7,-1389.6 15164,-1389.6 "/>
<circle id="XMLID_297_" class="st1" cx="13888.4" cy="-212" r="755.2"/>
<path id="XMLID_295_" class="st2" d="M12952.8,426.6c553.7,0,2204.9-13,2204.9-13S14937,96.7,14557.8,96.7s-454,194.5-454,194.5
	s-97.7-494.6-510.7-494.6s-559.2,421.6-559.2,421.6s-161.6-187-348.6,0c0,0-236.4-1.2-411.2,178
	C12199.9,472.2,12781.4,426.6,12952.8,426.6z"/>
<polygon id="XMLID_337_" class="st2" points="4991.5,483.8 5303.1,-190.3 5607.8,152.8 6250.2,-271.8 7023.8,200.2 7886.6,-23.5 
	7987.1,20.6 8149.2,312.5 8523.9,117 9999.2,514.2 "/>
<polygon class="st3" points="5041.4,448.5 5032.1,2395 15161.7,2395 15171,405.6 "/>
<path id="XMLID_634_" class="st2" d="M8504.8-1099.9c0,0,148.4-199.2,309.4-199.2s159.6,69.8,159.6,69.8s31.7-239.5,199.6-239.5
	s174.5,134.7,174.5,134.7s56.8-234.5,414-234.5c337.8,0,374.2,344.3,374.2,344.3s145.9-122,224.6,84.9c0,0,88.9-112.5,184.6,34.6
	L8504.8-1099.9z"/>
<path class="st4" d="M11077.7-1076.8"/>
<g>
	<path class="st5" d="M8403.8,626c466,0,843.9,21.5,843.9,74.1c0,52.6-377.8,95.2-843.9,95.2c-466,0-843.9-42.7-843.9-95.2
		C7560,647.4,7937.8,626,8403.8,626z"/>
	<path id="XMLID_386_" class="st5" d="M8648.7,693.4c-0.7-15.1-13.7-27.1-29.6-27.1c-2.6,0-5.4,0.4-7.9,1c0.8-3.3,1.2-6.8,1.2-10.5
		c0-21-14.1-38-31.3-38c-5.1,0-9.9,1.4-14.2,4.2c-6.2-24.6-22.6-42.2-41.9-42.2c-19.6,0-36.2,18.2-42.2,43.4
		c-28.6-44-85.9-263.9-174.2-1.2c0,0-39.9-89.5-82.6,24.3c0,0-57.1-59.5-76.2,13.7s19.8,66.4,19.8,66.4l522.1,0.6
		C8691.7,728,8674.5,712.4,8648.7,693.4z"/>
	<g>
		<path class="st6" d="M9466.5-376.1c0-127.1-111-238-276.5-298.8c0-2.4,0-4.7,0-7.2c0-203.4-126.2-374.9-298.9-428.6
			c-44.7-187.3-251.3-328.9-499.1-328.9c-280.5,0-508,181.4-508,405.3c0,9.6,0.4,18.6,1.2,28.1c-138.2,72.5-229.5,197.3-229.5,339
			c0,3.2,0,6.2,0.1,9.6c-195.6,56.3-335.4,205.5-335.4,381c0,223.7,227.4,405.3,508,405.3c154.7,0,293.4-55.2,386.5-142.2
			c99,52.3,228,83.9,369,83.9c156.9,0,298.8-39.2,401.3-102.4C9257.6-57.5,9466.5-201.8,9466.5-376.1z"/>
		<line class="st7" x1="8389.4" y1="556.3" x2="8392.1" y2="-1097.4"/>
		<path class="st7" d="M8392.1,188.5c0,0-330.5,36-318.3-240c11.9-276.1-209.9-245.9-209.9-245.9s-264,27.5-264-153.8"/>
		<path class="st7" d="M8392.1-129.7c0,0,287.8-60.1,287.8-276.1s-36-445.1,95.9-445.1"/>
		<path class="st7" d="M8392.1-667.4c0,0-228.4-40.4-228.4-183.4c0,0-3.6-366.1-103-366.1"/>
		<path class="st7" d="M8678.2-376.1c0,0,49.9-150.8,217.9-150.8"/>
		<path class="st7" d="M7995.3-264.8c0,0-30.6-337.4,115.1-337.4"/>
		<path class="st7" d="M8675.9-667.4c0,0-60.9-146-132-146"/>
		<path id="XMLID_16_" class="st8" d="M7999.5-416.1c0,0,24.4-60.5,104.3-25.8C8103.6-441.9,8074.7-383.6,7999.5-416.1z"/>
		<path id="XMLID_313_" class="st8" d="M8237.3-735.5c0,0-25.3-60,55.7-91.9C8292.8-827.5,8313.5-765.6,8237.3-735.5z"/>
		<path id="XMLID_15_" class="st8" d="M8160.6-925.7c0,0-7.3-103.9,131.8-110.4C8292.4-1036.1,8291.6-931.8,8160.6-925.7z"/>
		<path id="XMLID_14_" class="st8" d="M8396-1080.3c0,0-83.6-79.5-64.9-164.2C8331.1-1244.6,8413.6-1160.3,8396-1080.3z"/>
		<path id="XMLID_13_" class="st8" d="M8395.2-988.8c0,0-0.5-65.1,86.5-63.7C8481.9-1052.5,8477.2-987.5,8395.2-988.8z"/>
		<path id="XMLID_12_" class="st8" d="M8386.9-1046.4c0,0-45.3,16.4-67.7-51.1C8319-1097.5,8365.7-1109.9,8386.9-1046.4z"/>
		<path id="XMLID_11_" class="st8" d="M8398.2-534.7c0,0,1-53.2,65.5-50.5C8463.6-585.4,8458.9-532.2,8398.2-534.7z"/>
		<path id="XMLID_10_" class="st8" d="M8306.9-368.2c0,0,23.1-48,80.4-18.8C8387.5-386.8,8361.2-340.6,8306.9-368.2z"/>
		<path id="XMLID_303_" class="st8" d="M8586.5-805.5c0,0-0.4-39.7,52.7-39.1C8639.1-844.3,8636.5-804.8,8586.5-805.5z"/>
		<path id="XMLID_302_" class="st8" d="M8392.8-1066.8c0,0,3.1-39.4,55.8-34.2C8448.6-1101,8442.6-1061.8,8392.8-1066.8z"/>
		<path id="XMLID_301_" class="st8" d="M8548.6-806.1c0,0-80.1,9.9-90.8-97.3C8457.8-903.3,8538.6-907,8548.6-806.1z"/>
		<path id="XMLID_300_" class="st8" d="M8753.7-481.8c0,0-28.8-27.2,8.5-64.9C8762.2-546.7,8788.8-517.3,8753.7-481.8z"/>
		<path id="XMLID_299_" class="st8" d="M8399.4-299.3c0,0-4.5-64.9,82.2-69.2C8481.6-368.3,8481.3-303.2,8399.4-299.3z"/>
		<path id="XMLID_298_" class="st8" d="M8541.8-306.2c0,0,56.2,33,10.3,106.9C8552.1-199.4,8498.6-236.5,8541.8-306.2z"/>
		<path id="XMLID_9_" class="st8" d="M8653.7-300.1c0,0,48.5-43.4,104.9,22.6C8758.8-277.5,8707.1-237.8,8653.7-300.1z"/>
		<path id="XMLID_296_" class="st9" d="M8677.9-352.1c0,0,14.5-63.4,98.8-42.2C8776.7-394.2,8757.4-331.9,8677.9-352.1z"/>
		<path id="XMLID_8_" class="st8" d="M8730.5-841.9c0,0-46.5-13-25.4-80.9C8704.9-922.8,8750.2-906,8730.5-841.9z"/>
		<path id="XMLID_293_" class="st8" d="M8774.8-838.6c0,0-21.9-33,22.8-61.3C8797.8-899.9,8817.1-865.2,8774.8-838.6z"/>
		<path id="XMLID_290_" class="st8" d="M8700.7-794.7c0,0,36.3-16.2,56.8,32.7C8757.4-762.1,8720.1-748.6,8700.7-794.7z"/>
		<path id="XMLID_289_" class="st8" d="M7608.2-448.6c0,0-43.3,30.8-79.6-22.5C7528.7-470.9,7573.9-498.7,7608.2-448.6z"/>
		<path id="XMLID_287_" class="st8" d="M8377.1-476.7c0,0-49.6,42.3-104.4-25.1C8272.8-501.7,8325.3-540,8377.1-476.7z"/>
		<path id="XMLID_318_" class="st8" d="M8019.6-534.3c0,0-75.6-10-60-110.8C7959.7-645,8034.5-629.3,8019.6-534.3z"/>
		<path id="XMLID_7_" class="st8" d="M8093.9-592.1c0,0,5.1-64.9,91.6-56.2C8185.4-648.3,8175.4-583.9,8093.9-592.1z"/>
		<path id="XMLID_323_" class="st8" d="M8134.9-1115.2c0,0-15.3,45.6-82.1,21.4C8052.8-1093.9,8071.9-1138.2,8134.9-1115.2z"/>
		<path id="XMLID_324_" class="st8" d="M7602.4-442.1c0,0-19.6-44.1,46-71.2C7648.4-513.5,7664.3-468,7602.4-442.1z"/>
		<path id="XMLID_325_" class="st8" d="M7744.7-221.5c0,0-19.6-44.1,46-71.2C7790.7-292.8,7806.6-247.2,7744.7-221.5z"/>
		<path id="XMLID_2_" class="st8" d="M8071.3-133.8c0,0-19.6-44.1,46-71.2C8117.3-205.1,8133.2-159.5,8071.3-133.8z"/>
		<path id="XMLID_1_" class="st8" d="M7985.4-23.1c0,0,17.7-44.8,83.2-17.2C8068.5-40.3,8047.1,2.9,7985.4-23.1z"/>
	</g>
</g>
<g>
	<g>
		<path id="XMLID_28_" class="st1" d="M12106.2-1321.9c21.2-13.9,49.7-8,63.5,13.2c14,21.5,7.9,49.5-13.8,63.8
			c-20.9,13.7-49,7.9-63-13.2C12078.7-1279.6,12084.5-1307.6,12106.2-1321.9z"/>
		<path id="XMLID_27_" class="st1" d="M12046.1-1456.2c21.1-14,49.5-8.4,63.6,12.7c14,20.8,8.1,49.7-12.7,63.7
			c-21.2,14.2-49.9,8.4-64-12.9C12019.1-1414.1,12024.8-1442,12046.1-1456.2z"/>
		<path id="XMLID_26_" class="st1" d="M11949.7-1596.8c13.9,21.1,7.9,49.7-13.2,63.4c-21.5,14-49.5,8-63.7-13.7
			c-13.6-20.8-7.7-49.2,13.1-63.1C11907-1624.3,11935.6-1618.3,11949.7-1596.8z"/>
		<path id="XMLID_25_" class="st1" d="M11987.1-1280.1c-13.8-21.1-7.9-49.8,13.2-63.5c21.5-14,49.7-7.9,63.8,13.7
			c13.6,20.9,7.8,49-13.1,62.9C12029.7-1252.7,12001.2-1258.6,11987.1-1280.1z"/>
		<path id="XMLID_24_" class="st1" d="M11894.6-1364.9c21.5-14.2,49.8-8.3,63.8,13.1c13.8,21.2,7.9,49.7-13.2,63.5
			c-21.2,13.9-49.4,8-63.4-13.1C11867.7-1322.8,11873.4-1350.8,11894.6-1364.9z"/>
		<path id="XMLID_23_" class="st1" d="M11780.6-1631.7c21.4-13.9,49.3-8.2,63.4,13.1c14,21.3,8.1,50.1-13.3,63.8
			c-21.4,13.7-49.6,7.7-63.3-13.6C11753.5-1589.9,11759.3-1617.9,11780.6-1631.7z"/>
		<path id="XMLID_22_" class="st1" d="M11716.5-1457.6c-13.8-21.1-7.9-49.8,13.1-63.5c21.1-13.8,49.6-7.9,63.5,13.2
			c14,21.2,8.3,49.4-12.8,63.5C11759.1-1430.2,11730.6-1436.1,11716.5-1457.6z"/>
		<path id="XMLID_21_" class="st1" d="M11991.9-1588.6c21.2-14,49.8-8.1,63.5,13c13.7,21.2,7.7,49.5-13.5,63.5s-49.7,8-63.5-13.2
			C11964.5-1546.7,11970.4-1574.5,11991.9-1588.6z"/>
		<path id="XMLID_20_" class="st1" d="M11990.7-1401.3c-21.3,14-49.1,8.3-63.2-13.1c-13.9-21.1-8.1-49.6,13-63.5
			c21.3-14.1,49.6-8.1,63.8,13.5C12018.2-1443.2,12012.2-1415.4,11990.7-1401.3z"/>
		<path id="XMLID_19_" class="st1" d="M11725.4-1577c-21.4,14.1-49.3,8.5-63.4-12.8c-14-21.2-8.3-49.6,12.8-63.6
			c21-14,49.6-8.1,63.6,13C11752.6-1619.1,11746.8-1591.2,11725.4-1577z"/>
		<path id="XMLID_18_" class="st1" d="M11839.3-1310c-21.3,14-49.2,8.2-63.3-13.2c-13.9-21.1-7.9-49.8,13.3-63.5
			c21.2-13.8,49.5-7.8,63.5,13.5C11866.8-1352,11860.9-1324.3,11839.3-1310z"/>
		<path id="XMLID_17_" class="st1" d="M11835.4-1499.3c21.2-14,49.5-8,63.3,13.3c13.8,21.3,7.8,49.4-13.5,63.4
			c-21,13.8-49,8-63-12.9C11807.9-1457,11813.7-1485,11835.4-1499.3z"/>
	</g>
	<path class="st5" d="M12375.4,653.6c0,56.4-613.7,141.6-845,141.6s-674.2-171.6-674.2-227.9c0-56.4,567.5-83.5,798.8-83.5
		C11886.2,483.8,12375.4,597.2,12375.4,653.6z"/>
	<path id="XMLID_3_" class="st6" d="M11319.3-39.8c0,0-247.3-10.7-338.8-527.2C10980.5-567,11384.1-503.4,11319.3-39.8z"/>
	<g>
		<path class="st5" d="M11937.4,887.7c0,0-28.5,1.7-28.5,8.7s38.7,0.6,90.8,18.1s55.3-38.8,110.6-26.8s34.1-19.3,2.3-17.9
			C12080.7,871.1,11937.4,887.7,11937.4,887.7z"/>
		<path class="st10" d="M12012.6,893.7c0,0-28.5,8.4-50.1,0s-27.8-6.9-27.8-6.9s-42.5-36.2,0-59.9c42.5-23.6,87.7-16,87.7-16
			s97.5,10.9,103,42.7C12131,885.4,12032.8,897.9,12012.6,893.7z"/>
		<path class="st11" d="M12012,809.9c0,0-49.5-2.5-46.1,10.7c3.5,13.2,78.7,9.1,82.2,0C12051.6,811.6,12012,809.9,12012,809.9z"/>
		<path class="st10" d="M12075.5,822c0,0,34.6-6.2,29.7-32.7c-4.9-26.5-87.7-24.5-87.7-24.5s-71.7-4-71.7,21s57,23.9,57,23.9
			S12069.4,818.6,12075.5,822z"/>
		<path class="st10" d="M12085,740.6c0,0-0.7,25-67.5,25.1s-59.2-22.3-59.2-22.3s7.1-21.1,62.4-21.1
			C12087.8,722.3,12085,740.6,12085,740.6z"/>
		<path class="st10" d="M11970,732c0,0-23.4-11.2,2.4-33c26.3-22.2,98.6-2.7,100.1,4c1.4,6.2,5.5,16.9-20.5,20.5
			C12026,727.1,12011.1,715.2,11970,732z"/>
		<path class="st10" d="M12016.8,652.3c0,0-41.9-9-48.4,11.5s24.5,26.2,43.9,25.4s37.1,7.8,42.9-13.5
			C12061,654.4,12016.8,652.3,12016.8,652.3z"/>
		<path class="st10" d="M11988.2,650.9c0,0-18.7-17.3,3.9-22.7s66.6-1.8,69.5,17.3c0,0,1.7,9.9-16.2,13.4
			C12027.4,662.3,12019.2,648.3,11988.2,650.9z"/>
		<path class="st11" d="M11959.9,772.7c0,0,49.9,7.1,60.7,5.1s42.9,0,56.2-6.1C12076.9,771.7,11978.2,759,11959.9,772.7z"/>
		<path class="st5" d="M11981,696.5c0,0,25.2-1.6,26.1-7.4l20.4,0.1c0,0-2.1,6.4,28.2,6.4C12055.7,695.6,12004.5,712.2,11981,696.5z
			"/>
		<path class="st11" d="M12048.3,664.5c0,0-28.6,1.1-41.3-5.1c-12.7-6.2-22.4-6.2-22.4-6.2s3.4-5.6,24.8-2.5
			C12030.8,653.8,12044.8,657,12048.3,664.5z"/>
		<path class="st11" d="M11915.8,851.2c0,0,58.7-23.8,83.8-19.4s74.1,27.8,88.2,25.6c14.1-2.2,33.9,8.8,37.7-6.6
			c0,0,14.8,27.8-74.7,41.5c0,0-40.2,4.9-41,0.9c0,0-33.1,6.5-51.6-2.2c-15.9-7.5-23.6-4.1-23.6-4.1S11912.3,866.5,11915.8,851.2z"
			/>
		<path class="st11" d="M12034.1,788.3c-8-4.1-85.6-15.2-87.2,1.2c-1.5,16.3,87.5,20.7,87.5,20.7l40.7,11c0,0,36.4-7.4,29.1-34.1
			C12104.3,787.1,12057.3,800.2,12034.1,788.3z"/>
		<path class="st11" d="M11958.3,743.6c0,0,105.5,17.1,125.5-5.8c0,0,6.9,26.8-63.1,28S11958.3,743.6,11958.3,743.6z"/>
		<path class="st5" d="M11970,732c0,0-31.5-23.9,41.6-28.8c0,0,26.8-8.1,40.3,7.3c13.5,15.4,20.9-5.4,20.9-5.4s3.1,19.1-22.7,18.6
			C12024.3,723.3,11991.9,717.2,11970,732z"/>
		<path class="st5" d="M12055.2,676.6c-2.9,17-14.3,14.5-40.6,13.8c-37.8-0.9-47.7-14.6-47.1-21.1s24.1-6.5,24.1-6.5
			s14.7,0.5,20,2.7s16.7,15.2,26.6,11.1C12048.1,672.7,12056.2,670.7,12055.2,676.6z"/>
		<path class="st11" d="M12001.8,650.4c0,0-23-21.6,25.6-18.3c48.6,3.2,31.9,25.4,18,26.7C12031.5,660.2,12030.3,650,12001.8,650.4z
			"/>
		<path class="st12" d="M12020.7,629.1c0,0,0.8,12.7,25.8,11C12071.4,638.4,12020.7,629.1,12020.7,629.1z"/>
		<path class="st12" d="M12018.4,666.7c0,0,14.1-7.9,23.3,1.9C12050.9,678.3,12018.4,666.7,12018.4,666.7z"/>
		<path class="st12" d="M12048.3,703.2c0,0,17,8.7,20.2,0C12068.5,703.2,12059.6,696.6,12048.3,703.2z"/>
		<path class="st12" d="M11965.8,711.6c0,0,0.2-4.6,3.7-6C11973.1,704.2,11970.4,710.4,11965.8,711.6z"/>
		<path class="st12" d="M11981,736.9c-1.2,19.9,63,14,79.8,2.1C12077.6,727.2,11982.1,716.9,11981,736.9z"/>
		<path class="st12" d="M12038.9,785.5c0,0,25,9.9,52.4,0C12118.7,775.6,12038.9,785.5,12038.9,785.5z"/>
		<path class="st12" d="M12035.3,834c0,0,39.4,22.9,70.4,18.4c30.9-4.6-25.1-21.1-25.1-21.1S12037.8,826.2,12035.3,834z"/>
		<path class="st12" d="M11957.2,820.3c0,0-32.5,9.3-33,27.5c0,0,30.3-17.7,38.8-15.7S11966.8,816.7,11957.2,820.3z"/>
		<path class="st12" d="M11971.2,662.8c0,0,6.3-9.8,15.2-7.2S11971.2,662.8,11971.2,662.8z"/>
		<path class="st12" d="M11984.7,634.7c0,0,2.9,5,6.6,0C11994.9,629.7,11984.7,634.7,11984.7,634.7z"/>
		<path class="st12" d="M11949.4,785.5c0,0,6.7-12.1,45.7-4.6c0,0,10.5-5.6,0-5.3S11952.9,765.1,11949.4,785.5z"/>
	</g>
	<path id="XMLID_328_" class="st4" d="M11741.4,347.5c0,0-7.5-58,70.1-66.2C11811.6,281.2,11814.6,339.7,11741.4,347.5z"/>
	<path id="XMLID_330_" class="st8" d="M11797.1,429.1c0,0,17.9-28.2,54.9-3.4C11852,425.7,11832,452.5,11797.1,429.1z"/>
	<path id="XMLID_331_" class="st6" d="M11913.2,312.9c0,0-406.4-716.4,470.2-1190.8C12384.5-877.5,12741.1-134.1,11913.2,312.9z"/>
	<path id="XMLID_6_" class="st13" d="M11666.6,311.2c128.9-9.7,116.8,256.1,116.8,256.1"/>
	<path id="XMLID_412_" class="st14" d="M11773.2,455.5c0,0-51.4,69.7-219.1-4.7C11554,450.8,11651.3,346.1,11773.2,455.5z"/>
	<path id="XMLID_411_" class="st15" d="M11686.2,311.1c0,0-507.1,288.6-1336.9-627.4C10349.3-316.3,11234.5-695.3,11686.2,311.1z"/>
	<path id="XMLID_526_" class="st16" d="M9996.9-64.9"/>
	<path id="XMLID_521_" class="st16" d="M9997-42.3"/>
	<g>
		<path class="st17" d="M11169.3-724v-208.8c0,0,38.7,25.5,161.8-2.9l-1.4,40.1L11169.3-724z"/>
		<g>
			<path class="st18" d="M12055.6,23.9l-1-769.3l-0.6,0.2c0.3-22.4-4.1-249.5-327.7-249.5c-340.4,0-537.3,170.2-558,270.7
				c0,0,80.3-195.2,362.1-195.2c333.1,0,348,226.6,348,226.6l13.1,804.7L12055.6,23.9z"/>
			<path class="st17" d="M11563.9-932.8c-334.5,0-394.6,208.9-394.6,208.9V3.5l722.2,108.8v-793.7
				C11891.6-681.6,11898.4-932.8,11563.9-932.8z"/>
		</g>
		<ellipse class="st5" cx="11505.8" cy="-524.9" rx="50.5" ry="68.1"/>
		<polygon class="st5" points="11494.4,-485.2 11422.9,-233.9 11570.3,-217.8 11515.2,-485.2 		"/>
		<polygon class="st19" points="11194.9,-940.2 11169.3,-932.8 11195.5,-911.6 		"/>
		<path class="st18" d="M11331-932.9c0,0,58.3-475.2,303.9-475.2c277.3,0,284.8,558.1,284.8,558.1c55,91.8,106.7,22.9,106.7,22.9
			s19.4-667.8-378.3-667.8s-430.6,549.8-430.6,549.8S11224.3-887.7,11331-932.9z"/>
		<path class="st17" d="M11295-920.7c0,0,58.3-475.2,303.9-475.2c277.3,0,284.8,558.1,284.8,558.1c55,91.8,106.7,22.9,106.7,22.9
			s19.4-667.8-378.3-667.8s-430.6,549.9-430.6,549.9S11188.3-875.5,11295-920.7z"/>
		<polygon class="st18" points="11295,-920.7 11295,-875.8 11329.7,-895.7 11331,-932.9 		"/>
	</g>
	<path id="XMLID_5_" class="st13" d="M11783.4,567.3c0,0-12.1-271.5,116.8-261.8"/>
	<path id="XMLID_4_" class="st15" d="M11891.6,304.2c0,0,144.5-177.1,561.6,114.4C12453.1,418.6,12184.7,675.6,11891.6,304.2z"/>
	<g>
		<g>
			<path class="st1" d="M10409.7-578.4c0,0,28.5,11,4.5,25.8c0,0,29.2-5.9,28.3-24.6s-28.3-28.3-28.3-28.3L10409.7-578.4z"/>
			<path class="st20" d="M10564.3-133.1c0,0-101.8,158-97.2,191.7c1.9,14.1,8.1,12.6,50.4-26.2c42.3-38.8-62.2,96-62.2,96
				s61.3,17.4,123.8-19.6c30.6-18.1,56.3-104.9,55.1-241.9L10564.3-133.1L10564.3-133.1z"/>
			<path class="st5" d="M10170.1,796.4c0,0-84.5,10.4-46.3,32.9c38.2,22.4,421.8,76.8,519.2-28.7s-199.1-32.1-199.1-32.1
				L10170.1,796.4z"/>
			<polygon class="st1" points="10496.4,708.2 10496.4,626.6 10415.7,606.6 10414.1,701.3 			"/>
			<polygon class="st1" points="10310.9,738.4 10310.9,624 10230.2,596 10228.6,728.6 			"/>
			<path class="st21" d="M10468.4,786.5c0,0-2.9-20.2-13.3-22.2c-10.4-2.1-18.1,19.5-18.1,19.5l-48.8-4.3l7-80.1l119.6,10.5l30,31.9
				c0,0,49.8,5.6,72,6.4s44.3,55.4,44.3,55.4L10468.4,786.5z"/>
			<path class="st21" d="M10285,812.8c0,0-2.9-20.2-13.3-22.2c-10.4-2.1-18.1,19.5-18.1,19.5l-48.8-4.3l7-80.1l119.6,10.5l30,31.9
				c0,0,49.8,5.6,72,6.4s44.3,55.4,44.3,55.4L10285,812.8z"/>
			<path id="XMLID_449_" class="st22" d="M10138.5-84.8c1.2,142.5,44.4,663.4,53.5,722.6c0,0,62.7,10.3,168.7,14.7l14.1-590.1
				l-0.3,571.8c72.5,33.1,171.9,23.8,171.9,23.8l6.7-588.9c0,0,4.3-46.1,3.7-147.8L10138.5-84.8z"/>
			<polygon class="st1" points="9981.7,207.6 10009.3,181.3 10391.2,70.3 10374.5,89.2 			"/>
			<path id="XMLID_498_" class="st20" d="M10282-578.4l31-0.9l129.6,2.2c0,0,37.3,170.3-25.3,170.3S10282-578.4,10282-578.4z"/>
			<path id="XMLID_471_" class="st20" d="M10362.5-632.6c0,0,36.3,42.1,71.7,21.4c35.3-20.8,47.4-144-46.5-138.3
				c-93.8,5.7-68,110-51.4,116.9l-23.3,53.2c0,0,55.9,68.9,108.4,5.8l-6.7-38.9L10362.5-632.6z"/>
			<path class="st21" d="M10365.1-649.4c15.7,16.4,61.8,30.3,90.4,7.2c0,0,2.7,26.4-29.5,34.8c-32.2,8.3-64.1-2.6-69.6-36.9
				C10350.9-678.6,10359.9-654.8,10365.1-649.4z"/>
			<path id="XMLID_465_" class="st23" d="M10450.3-688.7c0,0-32.8-6.4-17.4,46.4"/>
			<circle id="XMLID_455_" class="st21" cx="10445.3" cy="-671.5" r="5.7"/>
			<circle id="XMLID_454_" class="st21" cx="10402.7" cy="-670.2" r="5.7"/>
			<path id="XMLID_453_" class="st21" d="M10361.2-630.6c0,0,27.2,44.8,59.5,53.8l-6.5-28.7
				C10414.2-605.5,10377.3-598.8,10361.2-630.6z"/>
			<path id="XMLID_451_" class="st20" d="M10421.3-624.8c0,0,6.3,9.1,11.6,0"/>
			<polygon class="st24" points="9981.7,207.6 10374.5,89.2 10445.8,334.5 10043.3,446.1 			"/>
			<polyline class="st24" points="10192,82.3 10033.6,131.3 10023.7,94.9 10174.2,48.3 			"/>
			<path class="st25" d="M10217.4-24.1c-0.2-25.4,2.5-57.2,4-86.4C10218.1-76.4,10216.5-46.3,10217.4-24.1z"/>
			<path class="st20" d="M10437.8-567c-0.4,0.2-0.7,0.5-1.1,0.7c0,0-3.8,2.4-8.6,7.8C10432.6-561.2,10435.7-564.2,10437.8-567z"/>
			<path class="st20" d="M10462.4-578.5l21.3-1.4C10477.1-580.7,10470-580.4,10462.4-578.5z"/>
			<path class="st20" d="M10217.4-24.1c-0.8-22.2,0.7-52.3,4-86.4l0,0h-152.8c-0.6,134.5,22.1,246.3,52.3,264.2
				c62.5,37,123.8,19.6,123.8,19.6s-101.7-162.6-59.4-123.8s57.7,46.8,72.6,33.5C10271,71.3,10217.9-10.6,10217.4-24.1
				C10217.4-24,10217.4-24,10217.4-24.1C10217.4-24,10217.4-24.1,10217.4-24.1z"/>
			<path class="st2" d="M10564.3-133.1h69.8l0,0c0,0,5.6-446.8-150.4-446.8l0,0l-21.3,1.4l-19.9,1.3c0,0-0.5,4.6-4.7,10.2
				c-2.1,2.8-5.2,5.8-9.7,8.5c-8.1,5-20.7,9-40.5,9.3c-45.1,0.5-83-28.7-83-28.7l-63.1-2c0.1,0-16.6-0.4-35,8.3l0,0
				c-31.5,2-57.1,50.2-77.4,114.8c-36,114.6-55.2,280.8-60.5,331.3c-1,9.7-1.5,15.1-1.5,15.1h1.3h152.8l0,0
				c-1.5,29.2-4.2,61.1-4,86.4v0.1l0,0c0.2,0,153.1,42.2,255.8,37.6c31.5-1.4,58.3-7.2,74.5-19.9
				C10573.5-26.5,10566.9-87.2,10564.3-133.1z"/>
			<polyline class="st24" points="10174.2,48.3 10282.5,14.8 10293.2,51.7 10192,82.3 			"/>
			<polygon class="st24" points="10257.6,22.5 10281.3,108.8 10308.4,101.2 10282.5,14.8 			"/>
			<polygon class="st24" points="10023,94.9 10046.8,181.3 10073.8,173.6 10047.9,87.2 			"/>
			<polygon class="st1" points="10462.8,313.6 10445.8,334.5 10374.5,89.2 10391.2,70.3 			"/>
			<path class="st1" d="M10374.5-547.3l53.6-9.3c0,0,22.5,58.2,4.8,74.4l0,0l20.6,497.3l-56.5-3.3l-5.8-518.3
				C10380.8-525.6,10374.5-547.3,10374.5-547.3z"/>
			<path class="st21" d="M10507.4-735.3c0,0-44,41.6-120.8,13.7c0,0-17.6-2.4-12.1,37.6c0,0-50-50-50.1,32c0,0-56.8-70.8,15.2-120.6
				C10411.6-822.4,10445.2-708.8,10507.4-735.3z"/>
			<path class="st23" d="M10358-685.5c0,0-18.8-22.2-20.3,8.3"/>
			<path class="st22" d="M10308.4-604.4c2-2.7,16-1,16-1l-8.1,18.6C10316.3-586.9,10305.9-601.2,10308.4-604.4z"/>
			<path class="st1" d="M10308.4-604.4l-3.6,26.5c0,0,19.7,21.4,69.8,28.7C10374.5-549.2,10307.9-586.5,10308.4-604.4z"/>
		</g>
		<path id="XMLID_447_" class="st26" d="M10088.2-340.5c0,0,64.5-1.1,62,62.3s-72.5,46.7-72.5,46.7"/>
	</g>
	<g>
		<path id="XMLID_322_" class="st1" d="M11417,132.2c21.2-13.9,49.7-8,63.5,13.2c14,21.5,7.9,49.5-13.8,63.8
			c-20.9,13.7-49,7.9-63-13.2C11389.5,174.5,11395.3,146.5,11417,132.2z"/>
		<path id="XMLID_319_" class="st1" d="M11356.9-2.1c21.1-14,49.5-8.4,63.6,12.7c14,20.8,8.1,49.7-12.7,63.7
			c-21.2,14.2-49.9,8.4-64-12.9C11329.9,40,11335.6,12.1,11356.9-2.1z"/>
		<path id="XMLID_317_" class="st1" d="M11260.5-142.7c13.9,21.1,7.9,49.7-13.2,63.4c-21.5,14-49.5,8-63.7-13.7
			c-13.6-20.8-7.7-49.2,13.1-63.1C11217.8-170.2,11246.4-164.2,11260.5-142.7z"/>
		<path id="XMLID_316_" class="st1" d="M11297.9,174c-13.8-21.1-7.9-49.8,13.2-63.5c21.5-14,49.7-7.9,63.8,13.7
			c13.6,20.9,7.8,49-13.1,62.9C11340.5,201.4,11312,195.5,11297.9,174z"/>
		<path id="XMLID_315_" class="st1" d="M11205.4,89.2c21.5-14.2,49.8-8.3,63.8,13.1c13.8,21.2,7.9,49.7-13.2,63.5
			c-21.2,13.9-49.4,8-63.4-13.1C11178.5,131.3,11184.2,103.3,11205.4,89.2z"/>
		<path id="XMLID_314_" class="st1" d="M11091.4-177.6c21.4-13.9,49.3-8.2,63.4,13.1c14,21.3,8.1,50.1-13.3,63.8
			s-49.6,7.7-63.3-13.6C11064.3-135.8,11070.1-163.8,11091.4-177.6z"/>
		<path id="XMLID_312_" class="st1" d="M11027.3-3.5c-13.8-21.1-7.9-49.8,13.1-63.5c21.1-13.8,49.6-7.9,63.5,13.2
			c14,21.2,8.3,49.4-12.8,63.5C11069.9,23.9,11041.4,18,11027.3-3.5z"/>
		<path id="XMLID_311_" class="st1" d="M11302.7-134.5c21.2-14,49.8-8.1,63.5,13c13.7,21.2,7.7,49.5-13.5,63.5s-49.7,8-63.5-13.2
			C11275.3-92.6,11281.2-120.4,11302.7-134.5z"/>
		<path id="XMLID_310_" class="st1" d="M11301.5,52.8c-21.3,14-49.1,8.3-63.2-13.1c-13.9-21.1-8.1-49.6,13-63.5
			c21.3-14.1,49.6-8.1,63.8,13.5C11329,10.9,11323,38.7,11301.5,52.8z"/>
		<path id="XMLID_309_" class="st1" d="M11036.2-122.9c-21.4,14.1-49.3,8.5-63.4-12.8c-14-21.2-8.3-49.6,12.8-63.6
			c21-14,49.6-8.1,63.6,13C11063.4-165,11057.6-137.1,11036.2-122.9z"/>
		<path id="XMLID_306_" class="st1" d="M11150.1,144.1c-21.3,14-49.2,8.2-63.3-13.2c-13.9-21.1-7.9-49.8,13.3-63.5
			c21.2-13.8,49.5-7.8,63.5,13.5C11177.6,102.1,11171.7,129.8,11150.1,144.1z"/>
		<path id="XMLID_304_" class="st1" d="M11146.2-45.2c21.2-14,49.5-8,63.3,13.3s7.8,49.4-13.5,63.4c-21,13.8-49,8-63-12.9
			C11118.7-2.9,11124.5-30.9,11146.2-45.2z"/>
	</g>
</g>
<path class="st3" d="M11852,595.9c0,0-8.2,18.2-99.3-11.9c-17.1-5.7-24-16.7,30.7-16.7S11852,595.9,11852,595.9z"/>
</svg>
