<?xml version="1.0" encoding="utf-8"?>
<!-- Generator: Adobe Illustrator 19.0.0, SVG Export Plug-In . SVG Version: 6.00 Build 0)  -->
<svg version="1.1" id="Warstwa_1" xmlns="http://www.w3.org/2000/svg" xmlns:xlink="http://www.w3.org/1999/xlink" x="0px" y="0px"
	 viewBox="63 2679 10125 4644" style="enable-background:new 63 2679 10125 4644;" xml:space="preserve">
<style type="text/css">
	.st0{fill:#A4DCD7;}
	.st1{fill:#0E1A17;}
	.st2{fill:#242D26;}
	.st3{fill:#00D1B2;}
	.st4{fill:#A8FFCD;}
	.st5{fill:#E1F1EE;}
	.st6{fill:#333333;}
	.st7{fill:#5FBD44;}
	.st8{fill:#C5C5BF;stroke:#333333;stroke-width:3.309;stroke-miterlimit:10;}
	.st9{fill:#E1F1EE;stroke:#333333;stroke-width:3.9715;stroke-miterlimit:10;}
	.st10{fill:#C5C5BF;stroke:#333333;stroke-width:3.6749;stroke-miterlimit:10;}
	.st11{fill:#E1F1EE;stroke:#333333;stroke-width:4.4107;stroke-miterlimit:10;}
	.st12{fill:none;stroke:#333333;stroke-width:4.4099;stroke-miterlimit:10;}
	.st13{fill:#DED6A2;}
	.st14{fill:#CCCBA2;}
	.st15{fill:#E1F1EE;stroke:#333333;stroke-width:5.5157;stroke-miterlimit:10;}
	.st16{fill:#F6D6D9;}
	.st17{fill:#E1F1EE;stroke:#333333;stroke-width:3.8714;stroke-miterlimit:10;}
	.st18{fill:none;stroke:#333333;stroke-width:5.5157;stroke-miterlimit:10;}
	.st19{fill:#E1F1EE;stroke:#333333;stroke-width:5.82;stroke-miterlimit:10;}
	.st20{fill:none;stroke:#333333;stroke-width:15.8751;stroke-miterlimit:10;}
	.st21{fill:#73C47D;}
	.st22{fill:none;stroke:#333333;stroke-width:3.9382;stroke-miterlimit:10;}
	.st23{fill:none;stroke:#333333;stroke-width:4.3048;stroke-miterlimit:10;}
</style>
<path class="st0" d="M3281,5532.6c0-966.3,783.4-1749.6,1749.6-1749.6c289.8,0,563.2,70.4,803.9,195.2
	c124.1-613.3,666.1-1074.9,1316-1074.9c737.2,0,1335.7,594.1,1342.6,1329.8c137.8-99.1,306.8-157.6,489.5-157.6
	c463.3,0,838.9,375.6,838.9,838.9s-375.6,838.9-838.9,838.9c-392.2,0-721.4-269.1-813.3-632.6
	c-246.2,286.4-1153.1,384.6-1536.7,384.6"/>
<polygon class="st1" points="2979.5,5494.8 3215.4,5150.5 3309.2,5267.7 3642.4,4801.3 3939.8,5319.5 4123.3,5206.8 4243.6,5267.7 
	4533.6,4755.1 4791,5223 4905.6,5267.7 4988.9,5494.8 "/>
<path id="XMLID_80_" class="st2" d="M1733.1,5488.4c0,0,8446.9-6.1,8446.9,17.1V6145c-1499.5,688.1-7716.7,228.2-6902.2-122
	C1216.9,5991.2,4401.3,5488.4,1733.1,5488.4z"/>
<ellipse class="st1" cx="6813.4" cy="5707.1" rx="615.2" ry="73.5"/>
<polygon class="st1" points="9101.1,5496.2 9998.2,3921.6 10181.7,4371.4 10179.9,5505.6 "/>
<path class="st2" d="M6000.9,3918.5l-30.5,829.9c-3.7,101.3,73.3,186,170.5,187.5l1575.3,24.9c95.3,1.5,173.9-77.5,175.8-176.9
	l16.9-854.8c2-101.2-76.1-184.3-173.2-184.3H6174C6080.9,3744.8,6004.4,3821.5,6000.9,3918.5z"/>
<path class="st3" d="M5887.7,4020.4l-29.9,829.9c-3.6,101.3,71.9,186,167.2,187.5l1545.2,24.9c93.5,1.5,170.5-77.5,172.5-176.9
	l16.5-854.8c2-101.2-74.7-184.3-169.9-184.3H6057.5C5966.2,3846.7,5891.2,3923.4,5887.7,4020.4z"/>
<path class="st4" d="M6004.1,4091.8l-26.1,682.5c-3.2,83.3,62.8,153,146.2,154.2l1350.9,20.5c81.7,1.2,149.1-63.8,150.8-145.5
	l14.5-703c1.7-83.2-65.3-151.6-148.5-151.6H6152.6C6072.7,3948.9,6007.2,4012,6004.1,4091.8z"/>
<path class="st2" d="M7409.1,4548.8c-29.5,17.9-64.1,28.2-101.2,28.2c-107.8,0-195.2-87.4-195.2-195.2s87.4-195.2,195.2-195.2"/>
<path class="st5" d="M7503.1,4381.8c0,70.8-37.7,132.7-94,167l-101.2-167H7503.1"/>
<path class="st3" d="M7307.9,4186.6c107.8,0,195.2,87.4,195.2,195.2h-195.2V4186.6z"/>
<g id="XMLID_281_">
	<path id="XMLID_405_" class="st4" d="M8792,4390.7c34.5,0,61.9,27.5,61.8,62.1c0,34.8-27.6,62.2-62.6,62.1
		c-34.3-0.1-62.2-28-62.1-62.2C8729.1,4418.2,8756.9,4390.7,8792,4390.7z"/>
	<path id="XMLID_395_" class="st4" d="M8791.2,4721.9c-34.3-0.2-62.4-28.3-62.2-62.3c0.2-34.2,28.3-62.2,62.4-62.2
		c34.7,0,62.6,28,62.3,62.8C8853.5,4694.7,8825.9,4722.1,8791.2,4721.9z"/>
	<path id="XMLID_394_" class="st4" d="M8791.6,5135.1c-34.3,0-62.3-27.7-62.5-62c-0.2-33.9,28-62.3,62.1-62.5
		c34.7-0.2,62.7,27.7,62.6,62.6C8853.7,5107.6,8826.1,5135,8791.6,5135.1z"/>
	<path id="XMLID_391_" class="st4" d="M8791.6,4183.9c34.6,0.1,62.1,27.5,62.2,62c0.1,34.7-28,62.7-62.6,62.5
		c-34.2-0.3-62.4-28.7-62.1-62.6C8729.4,4211.5,8757.3,4183.8,8791.6,4183.9z"/>
	<path id="XMLID_390_" class="st4" d="M8998,4390.7c35,0,62.6,27.6,62.4,62.5c-0.2,34.6-27.6,61.9-62.4,61.8
		c-34.6,0-61.9-27.4-61.9-62.1C8936.1,4418.2,8963.4,4390.8,8998,4390.7z"/>
	<path id="XMLID_385_" class="st4" d="M8832.9,4556c0.1-34.4,28.1-62.1,62.5-61.9c34.5,0.3,61.9,28,61.9,62.6
		c-0.1,34.6-27.6,61.8-62.5,61.7C8860,4618.2,8832.7,4590.7,8832.9,4556z"/>
	<path id="XMLID_384_" class="st4" d="M8895,5031.5c-34.7,0-62.1-27.4-62.1-62s27.6-62.2,62.1-62.2c34.4,0,62.1,27.7,62.1,62.2
		C8957.1,5004.1,8929.7,5031.5,8895,5031.5z"/>
	<path id="XMLID_339_" class="st4" d="M8791.7,4928.2c-34.6,0-62.3-27.2-62.6-61.6c-0.4-34.3,28-62.4,62.7-62.4
		c34.4,0,62,27.6,62,62.1C8853.8,4900.7,8826.2,4928.2,8791.7,4928.2z"/>
	<path id="XMLID_332_" class="st4" d="M8791.9,3977.6c34.5,0,61.9,27.6,61.9,62.1c-0.1,34.4-27.8,61.9-62.3,61.9
		c-34.3,0-62.3-27.7-62.5-61.9C8728.8,4005.2,8756.9,3977.6,8791.9,3977.6z"/>
	<path id="XMLID_327_" class="st4" d="M8998.2,5135.1c-34.6,0-61.9-27.3-62.1-62c-0.2-34.4,27.4-62.4,61.7-62.5
		c34.6-0.2,62.6,27.8,62.6,62.5C9060.3,5107.5,9032.6,5135.1,8998.2,5135.1z"/>
	<path id="XMLID_326_" class="st4" d="M8998.3,4721.9c-34.6,0.1-61.9-27.1-62.2-61.9c-0.3-34.4,27.3-62.5,61.6-62.6
		c34.7-0.2,62.7,27.7,62.6,62.4C9060.4,4694.2,9032.8,4721.8,8998.3,4721.9z"/>
	<path id="XMLID_321_" class="st4" d="M8626,4556.4c-0.1-34.5,27.3-62,61.9-62.3c34.5-0.3,62.8,28.1,62.6,62.5s-27.8,61.8-62.4,61.8
		C8653.4,4618.3,8626,4591,8626,4556.4z"/>
	<path id="XMLID_320_" class="st4" d="M8688.9,4700.8c35.2,1.1,62.5,29.4,61.5,63.7c-1,34.3-30,62.1-63.5,61
		c-35.3-1.2-62.2-29.9-60.9-65C8627.3,4726.9,8655.9,4699.8,8688.9,4700.8z"/>
	<path id="XMLID_319_" class="st4" d="M8626,4969.8c-0.2-34.5,27-62.1,61.7-62.6c34.4-0.4,62.9,27.8,62.9,62.3
		c0,34.4-27.7,61.9-62.2,61.9C8653.5,5031.5,8626.1,5004.4,8626,4969.8z"/>
	<path id="XMLID_316_" class="st4" d="M8646.7,4453.4c-0.1,34.6-27.4,61.8-62.1,61.7c-34.3-0.1-62.2-28.1-62-62.3
		c0.2-34.8,27.9-62,63.1-62C8620,4390.8,8646.8,4418.2,8646.7,4453.4z"/>
	<path id="XMLID_314_" class="st4" d="M8998.1,4183.9c34.9,0,62.6,27.8,62.4,62.6c-0.3,34.3-28.2,62.1-62.4,61.9
		c-34.4-0.2-61.9-27.9-61.9-62.3C8936.2,4211.5,8963.6,4183.9,8998.1,4183.9z"/>
	<path id="XMLID_309_" class="st4" d="M8832.9,4349.3c0-34.3,27.8-62.2,62-62.3c34-0.1,62.1,28,62.2,62.2
		c0.1,34.7-28,62.9-62.5,62.6C8860.2,4411.4,8832.8,4383.8,8832.9,4349.3z"/>
	<path id="XMLID_307_" class="st4" d="M8626,4349.8c-0.2-34.4,27.3-62.3,61.7-62.8c34.1-0.4,62.9,28.2,62.8,62.5
		c0,34.2-28,62.1-62.2,62.2C8654,4411.8,8626.1,4384.2,8626,4349.8z"/>
	<path id="XMLID_304_" class="st4" d="M8687.6,4204.6c-34.6-0.1-61.9-27.6-61.6-62.2c0.2-34.5,28-62.1,62.3-62
		c34.1,0.1,62.1,28.1,62.2,62.3C8750.6,4177.2,8722.8,4204.7,8687.6,4204.6z"/>
	<path id="XMLID_294_" class="st4" d="M8896.7,4700.9c35.7,1.8,61.9,30.1,60.4,65.3c-1.5,33.7-31.4,61.2-64.3,59.2
		c-36-2.2-61.8-30.8-59.9-66.7C8834.5,4726.1,8864.2,4699.2,8896.7,4700.9z"/>
	<path id="XMLID_292_" class="st4" d="M8584.7,4721.9c-34.5-0.2-62.4-28.2-62.2-62.3c0.2-34.2,28.3-62.2,62.5-62.2
		c34.9,0,62,28.1,61.8,64C8646.4,4694.9,8618.5,4722.1,8584.7,4721.9z"/>
	<path id="XMLID_291_" class="st4" d="M8646.7,5073.3c-0.1,34.4-27.2,61.7-61.4,61.9c-34.7,0.2-63.3-28.3-62.7-62.6
		c0.5-34.5,28.5-62.1,62.7-61.9C8619.6,5010.8,8646.8,5038.4,8646.7,5073.3z"/>
	<path id="XMLID_288_" class="st4" d="M8584.9,4183.9c34.6,0,61.8,27.4,61.8,62.2c0,34.6-27.6,62.5-61.9,62.3s-62.3-28.3-62.3-62.4
		C8522.5,4211.8,8550.5,4183.9,8584.9,4183.9z"/>
	<path id="XMLID_286_" class="st4" d="M8894.6,4204.6c-34.6-0.1-61.9-27.5-61.8-62.3c0.1-34.3,28.3-62.3,62.5-61.9
		c34.3,0.3,61.9,28.3,61.8,62.7C8956.9,4177.7,8929.6,4204.6,8894.6,4204.6z"/>
	<path id="XMLID_285_" class="st4" d="M8998.3,4928.2c-34.7,0-62-27.2-62.1-61.9c-0.1-34.5,27.5-62.1,61.9-62.1s62.2,27.6,62.3,61.9
		C9060.4,4900.6,9032.8,4928.2,8998.3,4928.2z"/>
	<path id="XMLID_284_" class="st4" d="M8998.7,3977.6c34.4,0,62,27.9,61.8,62.4c-0.3,34.4-28.1,61.8-62.6,61.7
		c-34-0.1-61.4-27.6-61.7-61.8C8935.9,4004.9,8963.4,3977.5,8998.7,3977.6z"/>
	<path id="XMLID_283_" class="st4" d="M8646.7,4866.7c-0.1,34.6-27.4,61.7-62.2,61.6c-33.9-0.1-61.5-27.5-61.9-61.6
		c-0.4-34.2,27.9-62.5,62.7-62.5C8619.7,4804.2,8646.8,4831.8,8646.7,4866.7z"/>
	<path id="XMLID_282_" class="st4" d="M8646.7,4040c-0.1,34.1-27.6,61.6-61.6,61.6c-34.4,0-62.2-27.5-62.6-61.9
		c-0.4-34.6,27.9-62.3,63.6-62.2C8620,3977.7,8646.8,4005.2,8646.7,4040z"/>
</g>
<g>
	<ellipse class="st1" cx="9415.4" cy="5614.1" rx="365.5" ry="85.1"/>
	<rect x="9288.3" y="5193.5" class="st6" width="254.2" height="420.6"/>
	<polygon class="st7" points="9414.6,3689.1 9085.6,4461.3 9159.7,4415.9 8995.8,4779 9104.7,4698.5 8923.1,5033.2 9032,4946.6 
		8839.9,5296.5 8968.5,5223.9 8750.7,5550.6 9415.4,5290.5 10072.2,5556.2 9891.4,5223.9 10003.4,5251.1 9780.9,4896.5 
		9892.1,4986.4 9720,4659.5 9824.6,4740.2 9647.2,4386.8 9712.9,4434 	"/>
</g>
<g>
	<path class="st8" d="M8434,3620.1c0,0-67.7-72.1-44.7-151.7c23-79.6,141.3-84.8,134.1-145.8C8523.4,3322.6,8598,3563.6,8434,3620.1
		z"/>
	<path class="st9" d="M8585.4,3678.5c16.5-16.2,22.2-36.4,9.8-60.1c-42.9-81.6-150.1-71.1-174.1-54.7
		c-21.5,14.7-50.9-42.3-58.7-44.3c-8.1-7.9-20.2-11.6-32.5-8.5c-18.3,4.5-29.7,22.2-25.4,39.5c3,12.3,13.3,26.5,25.5,23.6l6.8-1.2
		c0.4,0.1,39.1,75.8,86.7,113c20.2,15.7,55.8,31.6,99.7,23.1l16.3,29.5l1.7-34.1c2.1-0.7,4.2-1.4,6.2-2.2l14.2,25.8l1.6-32.9
		c5.4-2.9,10.4-6.1,14.9-9.7c18.1,6.7,66.4,22.9,75.3,10c4.4-6.3-7.7-9.6-23.9-11.2c21.2-1.2,41.3-4.6,46.8-12.6
		C8686.7,3656.4,8617.3,3670.8,8585.4,3678.5z"/>
	<polygon class="st5" points="8560.7,3724.7 8548.6,3741.6 8558.5,3735.5 8561.2,3743.7 8566.5,3734 8578.7,3732.6 	"/>
	<path class="st9" d="M8404.9,3620.1c0,0-20.4-96.8,40.7-152.9c61.1-56.1,164.8,1.1,190.4-54.8
		C8636,3412.6,8574.3,3657.2,8404.9,3620.1z"/>
	<path class="st6" d="M8309.5,3524.7c8.2-13.3-48.8,39-47.8,48.5l34.7-11.7l-24.2,17.7l40.8-14.7
		C8312.9,3564.5,8293.7,3550.2,8309.5,3524.7z"/>
	<circle class="st6" cx="8331.2" cy="3529.5" r="4.8"/>
	<polygon class="st5" points="8540.9,3737.8 8520.5,3768.6 8536.9,3754.8 8544.6,3762.6 8543.8,3749.5 8558.2,3750.5 	"/>
</g>
<g>
	<path class="st10" d="M6394.9,3430c0,0-46-99.7,6.2-175.6c52.2-75.8,178.7-39.6,192.5-106.4
		C6593.6,3147.9,6587.5,3428.1,6394.9,3430z"/>
	<path class="st11" d="M6593.1,3442.7c13.5-21.9,14.3-45.2-5.4-67.4c-68-76.6-180.8-36.6-202.3-12.4c-19.2,21.6-66.1-32-75.1-32.1
		c-10.8-6.4-24.9-7-37.3-0.5c-18.5,9.7-26.1,31.8-16.9,49.3c6.6,12.5,21.5,25,33.8,18.6l7-3.2c0.4,0,62.4,71.3,123.7,98.6
		c25.9,11.6,68.6,19.2,113.6-1.7l25.4,27.4l-7.3-37.2c2.1-1.3,4.1-2.6,6.1-4l22.2,24l-7-36c5.1-4.5,9.6-9.4,13.5-14.4
		c21.3,2.4,77.6,6.9,83.8-9.3c3.1-7.9-10.8-8.3-28.7-5.7c22.6-7,43.3-16,47.1-26.1C6696.4,3391.8,6625.5,3425.9,6593.1,3442.7z"/>
	<polygon class="st5" points="6578.9,3499.2 6570.3,3520.6 6579.3,3511.4 6584.4,3519.4 6587.6,3507.6 6600.4,3502.9 	"/>
	<path class="st11" d="M6364.2,3419.7c0,0,12.5-109.1,96.6-146.8s173.2,59.1,219.9,9.2C6680.6,3282.3,6529.7,3518.3,6364.2,3419.7z"
		/>
	<path class="st6" d="M6255.4,3351c5.7-16.4-43.5,54.1-40.1,64.1l34.7-21.1l-21.9,25l40.6-25.8
		C6268.7,3393.3,6244.5,3382.5,6255.4,3351z"/>
	<circle class="st6" cx="6279.3" cy="3350" r="5.3"/>
	<polygon class="st5" points="6561.1,3518.6 6547.2,3557.2 6561.2,3537.9 6571.6,3544.2 6567.3,3530.4 6583,3527.6 	"/>
</g>
<path class="st12" d="M8524,5069.4l36.6,183.2c0,0-29.9,18.5-167-119c0,0-5.7-87.6-39.2-100.7c0,0-19.8-13-9.3,67.1l-100.2-67.1
	c0,0-101.5,110.3,121.4,283.7c0,0,139,119.8,229.5,136.8"/>
<g>
	<g>
		<path class="st1" d="M8879.6,5802.5c-3.5,148-364.3,342.6-961.2,342.6c-386.9,0-948.6-23.2-948.6-84.5s670.6-169.8,1057.5-169.8
			C8414.2,5890.8,8881,5741.2,8879.6,5802.5z"/>
		<path class="st13" d="M7918.4,5505.1c0,0,0,463.3,475.8,443c475.8-20.3,617.9-178.8,582.4-548.7
			c-35.5-369.8-259.2-613.7-348-609.6S7918.4,5236.9,7918.4,5505.1z"/>
		<path class="st14" d="M8682.3,5713.6c0,0,203.8-22.9,188-291.8s-153.6-600.1-254-587.3c-100.5,12.8-424,266.3-518.7,522.7
			c-94.7,256.4,204.3,347,204.3,347L8682.3,5713.6z"/>
		<g>
			<path class="st15" d="M7492.2,5947.6l471.8-439.1c0,0,439.6,144.7,502.2,144.5c62.6-0.2,4.3-346.7-95.7-377.3
				c-100.1-30.6-573.9-53.1-618.8,0S7294.2,5725,7294.2,5725L7492.2,5947.6z"/>
			<path class="st16" d="M8073.7,5003.5c0,0-120.3,201.5-327.6,259c0,0-69.1,1.9-82.5-30.7s-40.3,30.7,0,49.9
				c40.3,19.2,40.3,0,40.3,0s-122.8,32.6-122.8,57.6s76.7,82.5,124.7,72.9s370.7-127.9,501.2-316.3L8073.7,5003.5z"/>
			<path class="st6" d="M8450.1,4908.1c0,0-61.3,112.3-100.1,0c0,0-105.6-9.5-168.9,22.7c-63.3,32.2-153.8,132.5-153.8,132.5
				s102.1,83.7,110.3,110.3l69.4-77.6l-32.7,122.5l488.1,276.1c0,0-24.2-309.6-70.2-405.8c-17.2-36,128.6-50.5,151,12.8
				c0,0-40-179.2-111.5-179.2C8560.3,4922.4,8450.1,4908.1,8450.1,4908.1z"/>
			<path class="st15" d="M7955.8,5890.8H8254v-275.7c0,0,247.1,153.2,326.8,55.1c79.6-98,81.7-175.6,81.7-175.6l-202.2-147
				c0,0-418.7-251.2-469.7-104.2C7939.5,5390.4,7955.8,5890.8,7955.8,5890.8z"/>
			<path class="st3" d="M7678.5,6108.5c0,0,53.6-104.9,97.9-102.6s144.6,0,144.6,0l65.3-58.2h240.1v160.9h-97.9
				c0,0-11.7-44.3-32.6-42s-30.3,42-30.3,42L7678.5,6108.5L7678.5,6108.5z"/>
			<path class="st3" d="M6939.6,5654c0,0,113.8-30.5,141.8,3.9s96.9,107.2,96.9,107.2l87,9.4l161,178.2l-119.4,107.8l-65.6-72.7
				c0,0,25.1-38.3,9.3-52.4c-15.8-14-51.5,5.6-51.5,5.6L6939.6,5654z"/>
			<path class="st16" d="M8307.9,5032.9c0,0,87.1,63.4,100.2,67.1c0,0-11.2-67.9,9.3-67.1c26.4,1,39.2,100.7,39.2,100.7
				s145,145,167,119c0,0-12.3-61.3-36.6-183.2c0,0,117-66.8,151.9,14.4c35.4,82.3,144.7,359.7,4.5,376.1
				c-158.5,18.6-363.2-180.9-413.5-244.3C8279.4,5152.2,8271.1,5083.2,8307.9,5032.9z"/>
			<path class="st16" d="M8450.1,4778.9c0-41.1-17.6-113.7-105-113.7c-87.4,0-73.6,81.2-70.9,125.5c3.4,54,38.1,81,75.8,84.1v34.9
				c0,0,4.9,49.8,47.6,49.6c25.2-0.1,52.5-49.6,52.5-49.6c-13.4-13.5-15.4-54.3-15.6-75.6C8444.2,4819.5,8450.1,4801,8450.1,4778.9z
				"/>
			<polygon class="st17" points="7927.3,4944.9 7953.3,5195.8 8281.9,5216.6 8266.3,4944.9 			"/>
			<polygon class="st10" points="7953.3,5195.8 7955.8,5216.6 8285.2,5239 8281.9,5216.6 			"/>
			<polygon class="st10" points="8281.9,5216.6 8363.7,5253.9 8363.7,5268.2 8285.2,5239 			"/>
			<polygon class="st6" points="8363.7,5268.2 8294.3,5261.5 8238.7,5237.3 8285.2,5239 			"/>
			<polygon class="st6" points="7955.8,5216.6 7990.5,5243.4 8004.6,5219.9 			"/>
			<polygon class="st6" points="7989.3,5892.5 7986.3,5947.6 8226.4,5947.6 8226.4,5892.5 			"/>
			<polygon class="st6" points="7265.2,5774.6 7315,5753.8 7466,5923.4 7426.2,5952.8 			"/>
		</g>
		<circle class="st6" cx="8284.5" cy="4757.4" r="7.6"/>
		<circle class="st6" cx="8355.6" cy="4756.6" r="7.6"/>
		<path class="st12" d="M8269.1,4742.7c60.8-15.2,35,34.6,35,34.6s-14.6,24.9,5.1,24.9"/>
		<path class="st12" d="M8342.6,4743.2c11.1-11.9,30.9-1.2,30.9-1.2"/>
		<path class="st6" d="M8434.5,4834.2c0,0-31.7,44.8-84.5,40.7v23.1C8350,4897.9,8422.3,4891.2,8434.5,4834.2z"/>
		<path class="st12" d="M8412.5,4748.6c0,0-1.7-14.6,11.1-13.3c12.7,1.3,8.4,26.7,1,43.8"/>
		<path class="st12" d="M8307.9,4834.2c0,0,5.8,15,17.3,1.9"/>
		<path class="st6" d="M8449.3,4763.3c0,0,14.5-129.3-92-118.2c-106.4,11.2-90.8,88.6-90.8,88.6l5.2,29.5c0,0-5.2-73.4,65.6-71.7
			c55.9,1.4,59.9,62.4,59.9,62.4h8c0,0,2.9-30.4,22.3-28C8447,4728.4,8449.3,4763.3,8449.3,4763.3z"/>
		<path class="st14" d="M8286.2,4657.5c0,0-141.2,40.9-89.1,61.5c52.1,20.6,196.3-30,196.3-30L8286.2,4657.5z"/>
		<path class="st5" d="M8393.4,4689l41-14.3c0,0,4.1-69-66.5-69c-70.7,0-81.7,51.8-81.7,51.8L8393.4,4689z"/>
		<path class="st12" d="M8724.1,5461.6c0,0,5.3-34.4,30.3-48.3s53-8.7,53-8.7"/>
		<path class="st12" d="M7980.2,5290.6c0,0-164.6,82.6-235.9,110.1s-109.3-6.2-109.3-6.2l67.4-25.2"/>
		<line class="st18" x1="7589.3" y1="5357.2" x2="7674.8" y2="5323.8"/>
		<line class="st18" x1="7609.7" y1="5377.3" x2="7690.4" y2="5346.9"/>
		<line class="st12" x1="8295.7" y1="5052.5" x2="8373.5" y2="5115.1"/>
		<line class="st12" x1="8287" y1="5076" x2="8353.6" y2="5137.2"/>
		<line class="st12" x1="8285.2" y1="5112.6" x2="8334.6" y2="5157.7"/>
	</g>
	<path class="st14" d="M8301.8,5704.2c0,0,259.5,0.2,380.5,9.5C8682.3,5713.6,8452.2,5835.7,8301.8,5704.2z"/>
</g>
<path class="st1" d="M4760.7,5539.2c416.6,0,754.4,19.2,754.4,66.2s-337.8,85.1-754.4,85.1s-754.4-38.1-754.4-85.1
	C4006.3,5558.4,4344,5539.2,4760.7,5539.2z"/>
<circle class="st13" cx="2478.1" cy="3628" r="209.5"/>
<ellipse class="st1" cx="5513.7" cy="6108.5" rx="497.2" ry="55.9"/>
<path class="st12" d="M5762.7,4703.2c0,0-66.6,46.5-87.4,52.8"/>
<polygon class="st3" points="7117.7,4650.1 7508,4659.3 7507.3,4687.5 7117.1,4675.6 "/>
<rect x="7116" y="4719.9" transform="matrix(0.9997 2.344341e-02 -2.344341e-02 0.9997 112.9179 -169.2193)" class="st3" width="315.3" height="22.8"/>
<polygon class="st5" points="7114.7,4777.7 7471.5,4786 7470.8,4814.3 7114.1,4803.1 "/>
<polygon class="st3" points="6189,4761.5 6294,4744.8 6347.1,4677.1 6365.9,4745 6394.4,4659.3 6417.4,4748.9 6524.7,4525.6 
	6568.3,4639.4 6723.1,4509.9 6855.8,4594.7 6978,4467.3 6974.2,4813 6117.4,4806.2 "/>
<polygon class="st5" points="6259.6,4808 6314.4,4767 6443.4,4801 6669.4,4628.7 6743,4743.1 6976.4,4611.5 6973.8,4850.4 
	6117.1,4840 "/>
<rect x="6264.9" y="4087.4" transform="matrix(0.9999 1.115095e-02 -1.115095e-02 0.9999 47.8536 -70.6379)" class="st14" width="187.1" height="337.1"/>
<rect x="6526.2" y="4012.1" transform="matrix(0.9999 1.115095e-02 -1.115095e-02 0.9999 47.4668 -73.5539)" class="st3" width="187.1" height="415.4"/>
<rect x="6794" y="4118.5" transform="matrix(0.9999 1.115095e-02 -1.115095e-02 0.9999 48.093 -76.537)" class="st13" width="187.1" height="312"/>
<path id="XMLID_317_" class="st13" d="M4409.1,3475.5c0,0,76.1-102.1,158.6-102.1s81.8,35.8,81.8,35.8s16.3-122.8,102.3-122.8
	c86.1,0,89.5,69,89.5,69s29.1-120.2,212.3-120.2c173.2,0,191.8,176.5,191.8,176.5s74.8-62.5,115.1,43.5c0,0,45.6-57.6,94.6,17.7
	L4409.1,3475.5z"/>
<g>
	<path class="st15" d="M9091.4,5989.6c0,0,96.1-80.7,63.5-200.3c-32.6-119.6-78.7-75.3-65.5-26.7
		C9112.9,5849.7,9157.7,5847.9,9091.4,5989.6z"/>
	<ellipse class="st1" cx="8944.6" cy="6052.6" rx="217.1" ry="58.2"/>
	<path class="st15" d="M8830.6,5765.2c0,0-125.5,263.5,52.4,283.7s343.5-33,131.1-386.3L8830.6,5765.2z"/>
	<path class="st15" d="M9019.8,5681.8l-25.6-122c0,0-76.6,103.5-78.7,103.5c-4.9,0-67.3-107.2-67.3-107.2L8807,5689l0,0
		c-5.4,10.9-8.4,22.8-8.4,35.3c0,52.2,52.3,94.6,116.9,94.6c64.5,0,116.9-42.4,116.9-94.6
		C9032.3,5709.1,9027.8,5694.6,9019.8,5681.8z"/>
	<path class="st6" d="M8887.7,5728.4c0,0,12.1,18,17.2,15.4c5.1-2.6,16.6-15.4,16.6-15.4H8887.7z"/>
	<circle class="st6" cx="8839.1" cy="5704.8" r="6.7"/>
	<circle class="st6" cx="8974" cy="5704.8" r="8.6"/>
	<polygon class="st6" points="8951.8,5666.3 8990.4,5666.3 8982.6,5622.1 	"/>
	<polygon class="st6" points="8834.9,5666.3 8876.1,5666.3 8851.1,5622.1 	"/>
	<path class="st19" d="M9068.6,5976.3c0,0,28.4,37.2,30.1,52.6c1.8,15.4-76.9,67.8-94,45.2s32.1-51.3,32.1-51.3
		s-115.4-108.5,6.6-132.1"/>
	<path class="st19" d="M8993.6,5870.1c0,0,20,151.1,0,183.6c-20,32.4-43.5,10.2-43.5,10.2l-15.7-190.2"/>
	<path class="st19" d="M8803.6,6003.9c0,0-49.2,28.6-32.1,51.3c17.1,22.6,95.7-29.9,94-45.2c-1.8-15.4-30.1-52.6-30.1-52.6"/>
	<path class="st19" d="M8818.8,5862.7c0,0-20,151.1,0,183.6c20,32.4,43.5,10.2,43.5,10.2l16.5-190.2"/>
</g>
<path id="XMLID_338_" class="st4" d="M4773.4,3951.3c0,0,21.8-54,93.2-23.1C4866.6,3928.2,4840.7,3980.4,4773.4,3951.3z"/>
<path id="XMLID_337_" class="st4" d="M4986,3665.8c0,0-22.6-53.6,49.8-82.1C5035.8,3583.6,5054.2,3638.9,4986,3665.8z"/>
<path id="XMLID_331_" class="st4" d="M5305,3729.6c0,0-71.6,8.9-81.2-87C5223.9,3642.6,5296.1,3639.3,5305,3729.6z"/>
<path id="XMLID_330_" class="st4" d="M5167.4,3851.1c0,0,43.4-38.8,93.8,20.2C5261.4,3871.3,5215.1,3906.8,5167.4,3851.1z"/>
<path id="XMLID_382_" class="st4" d="M2861.2,4566.8c0,0,52.6,25,17.5,94.4C2878.7,4661.2,2828.1,4632.2,2861.2,4566.8z"/>
<path id="XMLID_381_" class="st4" d="M3133.4,4796.2c0,0,54.9-19.3,79,54.6C3212.4,4850.8,3156.1,4865.9,3133.4,4796.2z"/>
<path id="XMLID_361_" class="st4" d="M3179.6,5077.9c0,0-4.5-72,91.7-75.8C3271.4,5002.1,3270.3,5074.4,3179.6,5077.9z"/>
<path id="XMLID_349_" class="st4" d="M2722.5,5144.4c0,0,36.1,45.7-25.8,92.5C2696.6,5236.9,2664,5188.7,2722.5,5144.4z"/>
<path id="XMLID_386_" class="st1" d="M4979.6,5599.5c-0.6-13.5-12.3-24.3-26.5-24.3c-2.4,0-4.8,0.3-7,0.9c0.7-3,1.1-6.1,1.1-9.4
	c0-18.8-12.6-34-28-34c-4.6,0-8.9,1.3-12.7,3.7c-5.6-22-20.2-37.7-37.5-37.7c-17.5,0-32.4,16.2-37.7,38.8
	c-25.5-39.3-76.8-236-155.7-1.1c0,0-35.7-80-73.8,21.7c0,0-51.1-53.2-68.2,12.3c-17.1,65.5,17.7,59.4,17.7,59.4l466.8,0.5
	C5018,5630.4,5002.6,5616.5,4979.6,5599.5z"/>
<g>
	<path class="st7" d="M5716.6,4743.8c0-113.6-99.2-212.8-247.2-267.1c0-2.1,0-4.2,0-6.4c0-181.8-112.8-335.2-267.2-383.2
		c-40-167.5-224.6-294.1-446.2-294.1c-250.8,0-454.2,162.1-454.2,362.3c0,8.5,0.3,16.7,1.1,25.1c-123.6,64.8-205.2,176.3-205.2,303
		c0,2.9,0,5.6,0.1,8.5c-174.8,50.4-299.8,183.9-299.8,340.8c0,200,203.3,362.3,454.2,362.3c138.3,0,262.3-49.3,345.5-127.1
		c88.6,46.8,203.8,75,329.8,75c140.2,0,267.1-35,358.8-91.5C5529.9,5028.6,5716.6,4899.6,5716.6,4743.8z"/>
	<line class="st20" x1="4753.7" y1="5577.4" x2="4756.1" y2="4099"/>
	<path class="st20" d="M4756.1,5248.5c0,0-295.4,32.2-284.6-214.6c10.7-246.8-187.7-219.8-187.7-219.8s-236.1,24.6-236.1-137.5"/>
	<path class="st20" d="M4756.1,4964.1c0,0,257.3-53.7,257.3-246.8s-32.2-397.9,85.8-397.9"/>
	<path class="st20" d="M4756.1,4483.4c0,0-204.2-36.1-204.2-164c0,0-3.2-327.3-92.1-327.3"/>
	<path class="st20" d="M5011.8,4743.8c0,0,44.7-134.8,194.8-134.8"/>
	<path class="st20" d="M4401.4,4843.2c0,0-27.3-301.7,102.9-301.7"/>
	<path class="st20" d="M5009.8,4483.4c0,0-54.5-130.5-118-130.5"/>
	<path id="XMLID_315_" class="st4" d="M4405.1,4708c0,0,21.8-54,93.2-23.1C4498.2,4684.9,4472.3,4737.1,4405.1,4708z"/>
	<path id="XMLID_313_" class="st4" d="M4617.7,4422.5c0,0-22.6-53.6,49.8-82.1C4667.4,4340.3,4685.9,4395.6,4617.7,4422.5z"/>
	<path id="XMLID_312_" class="st4" d="M4549.1,4252.4c0,0-6.5-92.9,117.8-98.7C4666.9,4153.7,4666.3,4247,4549.1,4252.4z"/>
	<path id="XMLID_311_" class="st4" d="M4759.5,4114.2c0,0-74.8-71-58-146.8C4701.5,3967.4,4775.4,4042.7,4759.5,4114.2z"/>
	<path id="XMLID_310_" class="st4" d="M4758.9,4196c0,0-0.4-58.2,77.3-56.9C4836.3,4139.1,4832.2,4197.2,4758.9,4196z"/>
	<path id="XMLID_308_" class="st4" d="M4751.4,4144.6c0,0-40.5,14.6-60.6-45.7C4690.8,4098.9,4732.5,4087.7,4751.4,4144.6z"/>
	<path id="XMLID_306_" class="st4" d="M4761.6,4601.9c0,0,0.9-47.5,58.5-45.2C4820,4556.7,4815.8,4604.2,4761.6,4601.9z"/>
	<path id="XMLID_305_" class="st4" d="M4680,4750.9c0,0,20.6-42.9,71.9-16.8C4752,4734.2,4728.5,4775.5,4680,4750.9z"/>
	<path id="XMLID_303_" class="st4" d="M4929.9,4359.9c0,0-0.3-35.5,47.1-34.9C4976.9,4325.2,4974.6,4360.5,4929.9,4359.9z"/>
	<path id="XMLID_302_" class="st4" d="M4756.8,4126.3c0,0,2.8-35.3,49.9-30.6C4806.7,4095.7,4801.2,4130.8,4756.8,4126.3z"/>
	<path id="XMLID_301_" class="st4" d="M4896.1,4359.4c0,0-71.6,8.9-81.2-87C4814.9,4272.4,4887.1,4269.1,4896.1,4359.4z"/>
	<path id="XMLID_300_" class="st4" d="M5079.4,4649.3c0,0-25.7-24.4,7.6-58C5086.9,4591.3,5110.8,4617.5,5079.4,4649.3z"/>
	<path id="XMLID_299_" class="st4" d="M4762.6,4812.5c0,0-4.1-58,73.5-61.8C4836.1,4750.7,4835.8,4809,4762.6,4812.5z"/>
	<path id="XMLID_298_" class="st4" d="M4890,4806.3c0,0,50.2,29.5,9.2,95.6C4899.2,4901.8,4851.3,4868.6,4890,4806.3z"/>
	<path id="XMLID_297_" class="st4" d="M4990,4811.7c0,0,43.4-38.8,93.8,20.2C5083.9,4831.9,5037.7,4867.4,4990,4811.7z"/>
	<path id="XMLID_296_" class="st21" d="M5011.6,4765.3c0,0,12.9-56.7,88.3-37.7C5100,4727.6,5082.7,4783.3,5011.6,4765.3z"/>
	<path id="XMLID_295_" class="st4" d="M5058.6,4327.3c0,0-41.5-11.6-22.8-72.3C5035.8,4255,5076.3,4270.1,5058.6,4327.3z"/>
	<path id="XMLID_293_" class="st4" d="M5098.3,4330.3c0,0-19.6-29.5,20.4-54.8C5118.8,4275.5,5136.1,4306.5,5098.3,4330.3z"/>
	<path id="XMLID_290_" class="st4" d="M5032,4369.5c0,0,32.5-14.5,50.7,29.3C5082.7,4398.7,5049.3,4410.7,5032,4369.5z"/>
	<path id="XMLID_289_" class="st4" d="M4055.3,4679c0,0-38.7,27.6-71.1-20.1C3984.2,4659,4024.7,4634.2,4055.3,4679z"/>
	<path id="XMLID_287_" class="st4" d="M4742.7,4653.9c0,0-44.3,37.8-93.4-22.4C4649.4,4631.5,4696.4,4597.2,4742.7,4653.9z"/>
	<path id="XMLID_318_" class="st4" d="M4423.1,4602.4c0,0-67.6-9-53.6-99C4369.6,4503.4,4436.4,4517.5,4423.1,4602.4z"/>
	<path id="XMLID_322_" class="st4" d="M4489.5,4550.7c0,0,4.6-58,81.9-50.2C4571.3,4500.5,4562.4,4558,4489.5,4550.7z"/>
	<path id="XMLID_323_" class="st4" d="M4526.2,4083c0,0-13.7,40.8-73.4,19.1C4452.8,4102,4469.9,4062.4,4526.2,4083z"/>
	<path id="XMLID_324_" class="st4" d="M4050.1,4684.7c0,0-17.5-39.4,41.1-63.7C4091.2,4621,4105.4,4661.7,4050.1,4684.7z"/>
	<path id="XMLID_325_" class="st4" d="M4177.3,4882c0,0-17.5-39.4,41.1-63.7C4218.4,4818.3,4232.6,4859.1,4177.3,4882z"/>
	<path id="XMLID_328_" class="st4" d="M4469.3,4960.4c0,0-17.5-39.4,41.1-63.7C4510.5,4896.7,4524.7,4937.5,4469.3,4960.4z"/>
	<path id="XMLID_329_" class="st4" d="M4392.5,5059.3c0,0,15.8-40.1,74.3-15.4C4466.8,5043.9,4447.7,5082.6,4392.5,5059.3z"/>
</g>
<g>
	<g>
		<g>
			<g>
				<path class="st16" d="M5692.7,4195.8c0,0,75,4.4,59.6-179.5c0,0-105.1-54.7-157.6,0s17.5,166.4,37.2,168.6"/>
				<path class="st6" d="M5791.7,4031.7c0,0-44.3,24.1-151.3,15.3c-19.2-1.6-48.9,50.1-23.4,81.2c17.2,21,15.2,30.9,14.8,56.7
					c-0.6,35.5-13.5,71-13.5,71s-234,391.3-384.9,314.1c-150.9-77.2-85.5-323.6,0.2-346.6c85.8-23,56.2-142,88.2-197
					s193.9-24.2,201.2-38.7c7.3-14.5,73.7-86.4,152.9-76.1C5755.1,3922,5828.8,4007.2,5791.7,4031.7z"/>
				<path class="st13" d="M5240,4841.2c0,0-16.8,298.4-134.1,492.9c0,0-127.4,335.3-90.5,496.2c0,0,117.4,103.9,224.6,20.1
					c0,0,217.1-347.2,318.5-623.6c0,0-154.2,378.9-46.9,673.9c0,0,177.7,53.6,217.9,0c0,0,278.3-1086.3,137.5-1344.5l157.6-160.9
					c0,0-201.2-140.8-331.9-137.5c0,0-28.6,22.2-64.8-0.1c0,0-226.6-61.2-344.8,143.2l178,125.4
					C5461.2,4526.3,5241.4,4701.8,5240,4841.2z"/>
				<path class="st16" d="M5864.5,4558.8c0,0,239.5,198.1,332.3,123.4s44.4-513.4,44.4-513.4s59.4-6.5,75.5-17.1
					c39.5-25.9,49.4-157-23.4-132.3c-49,16.7-94.4,63.1-124.1-18c-4.1-11.2-38.1-61.5-33.6,20c4.5,81.5-31.1,55.7-28.8,130.4
					c2.3,74.7-3.2,275.5-21.3,275.5c-18.1,0-63.5-29.4-63.5-29.4L5864.5,4558.8z"/>
				<path class="st3" d="M4932.1,5980.7l69.7,43.5c0,0,5-41,21.2-38.5s66.6,105.8,66.6,105.8l240.7,5v-27.4l-47.3-30.5
					c0,0-73.5,1.9-112.6-30.5c-39.2-32.4-148.6-140-148.6-140l-48.6,9.3L4932.1,5980.7z"/>
				<path class="st3" d="M5437.4,6005.6l69.7,43.5c0,0,5-41,21.2-38.5s78.9,85.8,78.9,85.8h241.4l4.3-31.1l-39.8-28.5
					c0,0-85.9,8.6-125.1-23.8s-164.7-107.7-164.7-107.7l-48.6,9.3L5437.4,6005.6z"/>
				<path class="st11" d="M5528.2,5905.3v19.3c0,0,109.8,127.8,198.1,110.7c0,0-39.2-37.6-34.3-64.2s8.6-52,8.6-52
					S5627.3,5933.4,5528.2,5905.3z"/>
				<path class="st11" d="M5038.2,5847l-29.5,37.8c0,0,119.9,154.2,161.6,138.1v-141.6C5170.3,5881.4,5124.4,5892.7,5038.2,5847z"/>
				<path class="st16" d="M5134.1,4787.2c-24.3-93,41.3-233.8,152-386.6l178,125.4c0,0-110.5,121.3-107.8,166.2
					c0,0,64.9,133.7,200.9-34.9c0,0,33.2-21.9,29.1,18.9s-8,47-8,47s57-36,70.7-44.9c31.7-20.5,54,123.4,11,155.7
					C5486.6,4964.2,5173.3,4937.4,5134.1,4787.2z"/>
				<path class="st16" d="M5631.9,4184.9l-12.7,69.4c0,0,31.3,34.8,73.4,3.5v-61.9L5631.9,4184.9z"/>
				<path class="st6" d="M5692.7,4221.4v-25.6c0,0-40.1,0.5-60.8-10.9C5631.9,4184.9,5679.2,4219.9,5692.7,4221.4z"/>
			</g>
			<circle class="st6" cx="5743.2" cy="4087.5" r="7.6"/>
			<circle class="st6" cx="5670.7" cy="4087.5" r="7.6"/>
			<path class="st12" d="M5716.9,4110.7c0,0,14.6,24.9-5.1,24.9"/>
			<path class="st12" d="M5656.2,4065.8c0,0,17-10.6,30.7,3.7"/>
			<path class="st12" d="M5725.7,4073.9c0,0,15.8-16.2,29.9-8.1"/>
			<path class="st12" d="M5693.9,4158c0,0,6,16.2,15.5,3.1"/>
			<path class="st12" d="M6121.7,4697.4c0,0,4.2-45.8,43.5-63.2c39.3-17.4,63.4-2.2,63.4-2.2"/>
			<path class="st12" d="M5128.8,4725.1c0,0,29.3,9.5,43.1,59.7c13.8,50.2-11.2,53.4-11.2,53.4"/>
		</g>
		<line class="st12" x1="5588.7" y1="4759.8" x2="5674.2" y2="4703.2"/>
		<path class="st12" d="M5599.9,4793.2c45.2-19.3,84.5-53.5,84.5-53.5"/>
		<path class="st12" d="M5611.8,4826.3c40.1-13.5,71-45,71-45"/>
	</g>
	<path class="st12" d="M6339.4,4035.8c0,0-35.7,19.4-88.3,33.6"/>
	<path class="st12" d="M6347.1,4070.7c0,0-37.4,17.7-90.1,31.9"/>
	<path class="st12" d="M6343.2,4108c0,0-30.5,15.1-83.2,29.3"/>
</g>
<g>
	<ellipse class="st1" cx="3574.3" cy="5588.4" rx="365.5" ry="85.1"/>
	<g>
		<g>
			<path class="st6" d="M4151.3,3897.1c0,0,40.1,32.5,212.5,54.2c172.4,21.8,168.6-86,168.6-86l-200.3-56.7L4151.3,3897.1z"/>
			<polygon class="st14" points="4225.5,3881.4 4197.4,3853.4 4225.5,3834.8 4231,3858.1 			"/>
			<polygon class="st14" points="4278.1,3795.8 4286.2,3823.2 4306.4,3813.3 4306.4,3786.9 			"/>
		</g>
		<g>
			<path class="st14" d="M3584.9,5324.7v225.7c0,0,213.5,53.1,213.5,10.2c0-43.6-31.6-84.6-76.9-89.8l-0.8-144.7
				C3720.8,5326.1,3668.7,5371.2,3584.9,5324.7z"/>
			<path class="st6" d="M3584.2,5324.7c0,0,78.3,69.4,128.5,18C3762.9,5291.2,3584.2,5324.7,3584.2,5324.7z"/>
			<path class="st5" d="M3584.9,5534c0,0,186.3,48.6,213.1,17.5l0.8,12.6c0,0-0.5,38-213.8-13.6L3584.9,5534L3584.9,5534z"/>
			<path class="st3" d="M3617.6,5279.5v53.5c0,0,82,40.6,82-10.8v-65.4h-82V5279.5z"/>
			<path class="st6" d="M3617.1,5286.2c0,0,39,36.2,83.1,25.3v-20.8C3700.2,5290.7,3670.1,5299.9,3617.1,5286.2z"/>
			<path class="st14" d="M3369.3,5333.4v225.7c0,0,213.5,53.1,213.5,10.2c0-43.6-31.6-84.6-76.9-89.8l-0.8-144.7
				C3505.2,5334.8,3453.1,5379.9,3369.3,5333.4z"/>
			<path class="st6" d="M3368.5,5333.4c0,0,78.3,69.4,128.5,18C3547.3,5299.8,3368.5,5333.4,3368.5,5333.4z"/>
			<path id="XMLID_2_" class="st16" d="M3725.8,3974.2l382.8-190.7c0,0,66.6-23.5,120.7,1.4c0,0,25.3,2.7,10.3-19.6
				s-59.2-21.6-35.3-30s93,21.8,109.9,21.7c16.9,0,25-58-31.3-98.5c-56.2-40.4-167.8-40.7-248.3-1.2s-304.8,121.8-304.8,121.8
				S3733.4,3872.8,3725.8,3974.2z"/>
			<path class="st6" d="M3588.1,3778.8c0,0,72.2,11.5,20-159.3C3608,3619.5,3541,3606.6,3588.1,3778.8z"/>
			<path class="st6" d="M3478.7,3613c0,0-135.9,15-88.2-89.2c47.7-104.3,214.7-27,169.4,44.9S3478.7,3613,3478.7,3613z"/>
			<g>
				<path class="st3" d="M3396.7,5288.2v53.5c0,0,82,40.6,82-10.8v-65.4h-82V5288.2z"/>
				<path class="st4" d="M3485.5,3847.7c0,0-116.8,2.5-168.5,21.6s-94.6,148.9-94.6,148.9l152.6,82.7l-54.5,300.9
					c0,0,439.6,102.7,439.6,1.5s-72.1-414-72.1-414s81.8-31.3,136.4-65.1c0,0-14.7-165.3-51.1-162.2l-203.6,82.6L3485.5,3847.7z"/>
				<path class="st5" d="M3405.1,3847.3l-30.9,556.7l-53.9-7.7c0,0-14.6,732.8,18.2,868.4c10.9,45.2,139.8,71.5,185,18.7
					c18.5-60.9,27.5-546.7,27.5-546.7s-9.1,483.2,19,526.6c20.3,31.3,162.1,40.6,171.7,12.9c9.6-27.7,62-782.8,5.2-993.1
					c0,0-43.6-382.6-147.8-454.1l-27.7,14.1c56.7,38.4,105.9,145.1,107.6,384.8c6.3,52.2-198.6,40.8-221.2-6.1
					c-26.3-54.3-7.2-241.2-17.6-377.2L3405.1,3847.3z"/>
				<path class="st10" d="M3444.7,4288.2c0,0,139.6,26.8,240-7.8c20.2-7,33.3,237.9,33.3,237.9c-100.8,72.5-275.9,7.4-275.9,7.4
					C3421.5,4467.9,3444.7,4288.2,3444.7,4288.2z"/>
				<path class="st16" d="M3455.9,3854.1c0,0,10-33.8,7.8-53.2s-29.9-32-20.7-86.2s40.6-94.8,110.6-87
					c70.1,7.7,60.1,180.7-0.7,184.6c0,0-10.3,18.7,2.6,41.8C3568.3,3877.3,3492.7,3933.5,3455.9,3854.1z"/>
			</g>
			<path class="st6" d="M3394.9,5306.3c0,0,47.7,42,83.9,24.7l-0.1-22C3478.7,5309.1,3455.5,5320.8,3394.9,5306.3z"/>
			<path class="st6" d="M3475.6,3635.7c0,0,49.3,163-38.5,171.3s-136.9-236.7-9.7-254.3C3554.6,3535,3475.6,3635.7,3475.6,3635.7z"
				/>
			<path class="st6" d="M3430,3638.5c0,0,197,46.6,204-16.9S3462.4,3535.9,3430,3638.5z"/>
			<path id="XMLID_35_" class="st16" d="M3377.5,4101c-30.7,139.6-53.3,349-26.9,403.4c32.2,66.5,17,78.4,17,78.4s-9,14.5-57.9-29
				s69.8,140.1,69.8,140.1s-69.6,20.9-141.4-20.2c-60.6-34.7-100.3-397.4-15.8-655.4L3377.5,4101z"/>
			<path class="st6" d="M3475.6,3789.4c0,0,48,29.9,77.2,22.9c0,0-6.8,17-1.5,32.9C3556.8,3861.1,3475.6,3789.4,3475.6,3789.4z"/>
			<circle class="st6" cx="3586.8" cy="3704.9" r="7.6"/>
			<circle class="st6" cx="3514.3" cy="3704.9" r="7.6"/>
			<path class="st12" d="M3560.4,3728.2c0,0,14.6,24.9-5.1,24.9"/>
			<path class="st12" d="M3499.8,3683.2c0,0,17-10.6,30.7,3.7"/>
			<path class="st12" d="M3569.3,3691.3c0,0,15.8-16.2,29.9-8.1"/>
			<path class="st12" d="M3537.4,3775.5c0,0,6,16.2,15.5,3.1"/>
			<path class="st5" d="M3369.3,5542.7c0,0,186.3,48.6,213.1,17.5l0.8,12.6c0,0-0.5,38-213.8-13.6L3369.3,5542.7L3369.3,5542.7z"/>
			<path class="st16" d="M3377.5,4101"/>
			<path class="st12" d="M3377.5,4101c-16.4,92-57.3,329.1-29.7,393.7c39.1,91.6,36.6,120.8-48.5,52.5"/>
			<path id="XMLID_41_" class="st12" d="M3291.9,4630.4c0,0,29.6,54.5,52.9,69.1"/>
			<path id="XMLID_40_" class="st12" d="M3259.3,4632.1c0,0,26.3,57.6,45.7,64.3"/>
			<path id="XMLID_1_" class="st12" d="M3228.9,4626.3c0,0,20.8,51.7,35.3,60.2"/>
			<path id="XMLID_55_" class="st22" d="M4326,3724.9c0,0-85.3-40.5-140.1-28.3"/>
			<path id="XMLID_43_" class="st22" d="M4316.3,3692.5c0,0-96.6-38.5-135.7-23.9"/>
			<path id="XMLID_42_" class="st22" d="M4290.4,3663.5c0,0-76-30.4-112.2-22.1"/>
			<path id="XMLID_60_" class="st23" d="M3202.9,4092.7c0,0,60.2,2.6,52.9,87s-77.3,57.8-77.3,57.8"/>
		</g>
		<path class="st1" d="M4151.3,3897.1v77.1c0,0,285.8,126.8,381.7-20.1l-0.6-88.8C4532.4,3865.3,4484.9,4029.2,4151.3,3897.1z"/>
		<path class="st10" d="M4220.8,3893.4l115.4-60.4l141.9,29.1c0,0-51.1,59.6-122.8,59.5C4326.5,3921.6,4220.8,3893.4,4220.8,3893.4z
			"/>
	</g>
</g>
<g>
	<path class="st10" d="M4407.1,3654.5c0,0,80.2-75.2,168.6-49.5s93.9,157,161.7,149.2C4737.4,3754.2,4469.5,3836.7,4407.1,3654.5z"
		/>
	<path class="st11" d="M4599.3,3813.6c22-13.1,33.7-33.4,26.5-62.2c-24.6-99.4-143-116.5-173.3-105.1
		c-27.1,10.2-43.6-59.1-51.5-63.4c-6.5-10.7-18.8-17.8-32.7-17.8c-20.9,0-37.9,16-37.9,35.8c0,14.1,7.4,32.2,21.3,32.2l0,0
		c0.4,0.2,24.6-9.6,45.7,112.1c8.4,48.7,77.4,82.1,127.1,84.6l9.7,36.1l10.8-36.3c2.5-0.2,4.9-0.4,7.3-0.7l8.5,31.6l10.5-35.1
		c6.5-1.7,12.8-3.9,18.6-6.5c17.7,12,65.5,42.3,78.5,30.7c6.4-5.7-5.8-12.4-22.7-18.5c23.2,4.3,45.7,6,53.9-1.2
		C4714.3,3816.7,4635.8,3813.9,4599.3,3813.6z"/>
	<polygon class="st5" points="4560.8,3860.5 4539.4,3869.3 4552.4,3869.3 4550.1,3878.6 4560.8,3872.7 4573.1,3878.6 	"/>
	<path class="st11" d="M4406.1,3659c0,0,90.9-61.6,174.3-22.5c83.3,39.2,68.2,169.9,136.4,172.7
		C4716.7,3809.2,4439.2,3848.8,4406.1,3659z"/>
	<path class="st6" d="M4342.5,3574.7c12.3-12.1-63,29.2-64.4,39.5l40.5-3.4l-30.7,12.7l47.9-5
		C4335.6,3618.5,4318.7,3598.1,4342.5,3574.7z"/>
	<circle class="st6" cx="4364.6" cy="3585.7" r="5.3"/>
	<polygon class="st5" points="4534.1,3865.9 4496.7,3882.8 4520.3,3879.4 4523,3891.2 4529.9,3878.6 4542.8,3887.9 	"/>
</g>
</svg>
