<?xml version="1.0" encoding="utf-8"?>
<!-- Generator: Adobe Illustrator 19.0.0, SVG Export Plug-In . SVG Version: 6.00 Build 0)  -->
<svg version="1.1" id="Warstwa_1" xmlns="http://www.w3.org/2000/svg" xmlns:xlink="http://www.w3.org/1999/xlink" x="0px" y="0px"
	 viewBox="5047 -2306 10125 4644" style="enable-background:new 5047 -2306 10125 4644;" xml:space="preserve">
<style type="text/css">
	.st0{fill:#A4DCD7;}
	.st1{fill:#0E1A17;}
	.st2{fill:#242D26;}
	.st3{fill:#2C8968;}
	.st4{fill:#00D1B2;}
	.st5{fill:#A8FFCD;}
	.st6{fill:#E1F1EE;}
	.st7{fill:#333333;}
	.st8{fill:#C5C5BF;stroke:#333333;stroke-width:3.2482;stroke-miterlimit:10;}
	.st9{fill:#E1F1EE;stroke:#333333;stroke-width:3.8985;stroke-miterlimit:10;}
	.st10{fill:#C5C5BF;stroke:#333333;stroke-width:3.6074;stroke-miterlimit:10;}
	.st11{fill:#E1F1EE;stroke:#333333;stroke-width:4.3296;stroke-miterlimit:10;}
	.st12{fill:none;stroke:#333333;stroke-width:4.3289;stroke-miterlimit:10;}
	.st13{fill:#DED6A2;}
	.st14{fill:#CCCBA2;}
	.st15{fill:#E1F1EE;stroke:#333333;stroke-width:5.4143;stroke-miterlimit:10;}
	.st16{fill:#F6D6D9;}
	.st17{fill:#2C8968;stroke:#00D1B2;stroke-width:0.8402;stroke-miterlimit:10;}
	.st18{fill:#E1F1EE;stroke:#333333;stroke-width:3.8002;stroke-miterlimit:10;}
	.st19{fill:none;stroke:#333333;stroke-width:5.4143;stroke-miterlimit:10;}
	.st20{fill:#FCC812;}
	.st21{fill:#E1F1EE;stroke:#333333;stroke-width:5.713;stroke-miterlimit:10;}
	.st22{fill:none;stroke:#333333;stroke-width:15.5833;stroke-miterlimit:10;}
	.st23{fill:#73C47D;}
	.st24{fill:#C5C5BF;}
	.st25{fill:none;stroke:#333333;stroke-width:3.8658;stroke-miterlimit:10;}
	.st26{fill:none;stroke:#333333;stroke-width:4.2257;stroke-miterlimit:10;}
</style>
<path class="st0" d="M8398.4,445.6c0-948.5,768.9-1717.4,1717.4-1717.4c284.5,0,552.9,69.1,789.1,191.6
	c121.8-601.9,653.9-1055.1,1291.8-1055.1c723.7,0,1311.2,583.3,1317.9,1305.3c135.2-97.3,301.1-154.7,480.4-154.7
	c454.7,0,823.5,368.8,823.5,823.5s-368.7,823.5-823.5,823.5c-385,0-708.2-264.2-798.4-621c-241.7,281.1-1131.9,377.5-1508.5,377.5"
	/>
<polygon class="st1" points="8102.3,408.5 8333.9,70.6 8426,185.6 8753.1,-272.3 9045,236.4 9225.2,125.9 9343.3,185.6 
	9627.9,-317.6 9880.6,141.7 9993.1,185.6 10074.8,408.5 "/>
<path id="XMLID_80_" class="st2" d="M6878.8,402.3c0,0,8291.6-6,8291.6,16.8v627.8c-1471.9,675.5-7574.8,224-6775.3-119.7
	C6372.2,895.8,9498,402.3,6878.8,402.3z"/>
<ellipse class="st1" cx="11865.8" cy="617" rx="603.8" ry="72.1"/>
<polygon class="st1" points="15170.5,419.1 15172.2,-694.3 14992.1,-1135.7 14111.5,409.8 "/>
<path class="st3" d="M11187-1271.4h1532.9c95.3,0,171.9,81.7,170,181l-16.6,839.1c-1.9,97.5-79.1,175.2-172.6,173.7l-1546.3-24.4
	c-95.4-1.5-171-84.6-167.4-184.1l29.9-814.7C11020.5-1196.1,11095.6-1271.4,11187-1271.4z"/>
<path class="st4" d="M11123.7-1209.3h1503.7c93.5,0,168.7,81.7,166.8,181l-16.2,839.1c-1.9,97.5-77.5,175.2-169.3,173.7L11092-40
	c-93.7-1.5-167.8-84.6-164.2-184.1l29.3-814.7C10960.6-1134,11034.2-1209.3,11123.7-1209.3z"/>
<path class="st5" d="M11217.1-1108.9h1314.6c81.7,0,147.5,67.1,145.8,148.8l-14.2,690.1c-1.6,80.2-67.7,144-148,142.8l-1326-20.1
	c-81.8-1.3-146.6-69.6-143.5-151.4l25.6-670C11074.4-1047,11138.8-1108.9,11217.1-1108.9z"/>
<path class="st3" d="M12351.2-875.7c-105.9,0-191.6,85.8-191.6,191.6s85.8,191.6,191.6,191.6c36.4,0,70.3-10.2,99.3-27.7"/>
<path class="st6" d="M12542.8-684h-191.6l99.3,163.9C12505.9-553.7,12542.8-614.5,12542.8-684"/>
<path class="st4" d="M12351.2-683.9h191.6c0-105.9-85.8-191.6-191.6-191.6V-683.9z"/>
<g id="XMLID_281_">
	<path id="XMLID_405_" class="st4" d="M13808-675.3c33.9,0,60.7,27,60.7,61c0,34.2-27.1,61.1-61.5,61c-33.7-0.1-61.1-27.5-61-61.1
		C13746.3-648.3,13773.6-675.3,13808-675.3z"/>
	<path id="XMLID_395_" class="st4" d="M13807.3-350.2c-33.7-0.2-61.2-27.7-61.1-61.2c0.2-33.6,27.7-61.1,61.2-61.1
		c34.1,0,61.4,27.5,61.2,61.7C13868.4-376.9,13841.3-350,13807.3-350.2z"/>
	<path id="XMLID_394_" class="st4" d="M13807.6,55.4c-33.7,0-61.2-27.2-61.3-60.9c-0.2-33.4,27.5-61.2,61-61.3
		c34.1-0.2,61.6,27.2,61.5,61.4C13868.6,28.4,13841.5,55.4,13807.6,55.4z"/>
	<path id="XMLID_391_" class="st4" d="M13807.6-878.3c34,0.1,61,27,61.1,60.9c0.1,34.1-27.5,61.6-61.5,61.3
		c-33.6-0.3-61.2-28.1-61-61.4C13746.6-851.1,13774-878.3,13807.6-878.3z"/>
	<path id="XMLID_390_" class="st4" d="M14010.2-675.3c34.4,0,61.5,27.1,61.3,61.3c-0.2,33.9-27.1,60.7-61.3,60.7
		c-34,0-60.8-26.9-60.8-61C13949.5-648.3,13976.3-675.2,14010.2-675.3z"/>
	<path id="XMLID_385_" class="st4" d="M13848.1-513c0.1-33.8,27.6-61,61.3-60.8c33.9,0.3,60.8,27.5,60.7,61.4s-27.1,60.7-61.3,60.6
		C13874.8-451.9,13848-478.9,13848.1-513z"/>
	<path id="XMLID_384_" class="st4" d="M13909.1-46.2c-34.1,0-61-26.9-61-60.9c0-33.9,27.1-61.1,61-61.1c33.8,0,61,27.2,61,61.1
		C13970.1-73.1,13943.2-46.2,13909.1-46.2z"/>
	<path id="XMLID_339_" class="st4" d="M13807.7-147.6c-33.9,0-61.2-26.7-61.5-60.5c-0.3-33.7,27.5-61.3,61.6-61.3
		c33.8,0,60.9,27.1,60.9,61C13868.7-174.6,13841.6-147.7,13807.7-147.6z"/>
	<path id="XMLID_332_" class="st4" d="M13807.9-1080.8c33.9,0,60.8,27.1,60.7,61c-0.1,33.8-27.3,60.8-61.2,60.7
		c-33.7,0-61.2-27.2-61.3-60.8C13746-1053.7,13773.6-1080.8,13807.9-1080.8z"/>
	<path id="XMLID_327_" class="st4" d="M14010.5,55.4c-33.9,0-60.8-26.8-61-60.9c-0.2-33.8,26.9-61.3,60.6-61.3
		c34-0.2,61.5,27.3,61.4,61.3C14071.3,28.3,14044.2,55.4,14010.5,55.4z"/>
	<path id="XMLID_326_" class="st4" d="M14010.6-350.2c-33.9,0.1-60.8-26.6-61.1-60.7c-0.3-33.8,26.8-61.3,60.5-61.5
		c34.1-0.2,61.6,27.2,61.5,61.3C14071.5-377.4,14044.4-350.3,14010.6-350.2z"/>
	<path id="XMLID_321_" class="st4" d="M13645-512.6c-0.1-33.9,26.8-60.9,60.7-61.2c33.9-0.3,61.7,27.6,61.5,61.3
		s-27.3,60.7-61.3,60.7C13672-451.9,13645.1-478.7,13645-512.6z"/>
	<path id="XMLID_320_" class="st4" d="M13706.8-370.9c34.5,1.1,61.3,28.8,60.4,62.5c-0.9,33.6-29.4,60.9-62.3,59.8
		c-34.7-1.2-61-29.3-59.7-63.8C13646.4-345.3,13674.4-371.9,13706.8-370.9z"/>
	<path id="XMLID_319_" class="st4" d="M13645-106.8c-0.2-33.9,26.6-61,60.6-61.4c33.8-0.4,61.8,27.3,61.8,61.2
		c0,33.8-27.2,60.8-61.1,60.8C13672.1-46.2,13645.2-72.8,13645-106.8z"/>
	<path id="XMLID_316_" class="st4" d="M13665.4-613.8c-0.1,34-26.9,60.7-61,60.6c-33.7-0.1-61.1-27.6-60.9-61.2
		c0.2-34.2,27.4-60.9,61.9-60.9C13639.2-675.2,13665.5-648.3,13665.4-613.8z"/>
	<path id="XMLID_314_" class="st4" d="M14010.3-878.3c34.3,0,61.4,27.3,61.3,61.4c-0.3,33.7-27.6,61-61.3,60.8
		c-33.8-0.2-60.8-27.4-60.8-61.2C13949.6-851.2,13976.5-878.3,14010.3-878.3z"/>
	<path id="XMLID_309_" class="st4" d="M13848.1-715.9c0-33.7,27.3-61.1,60.9-61.2c33.4-0.1,61,27.5,61.1,61.1
		c0.1,34.1-27.5,61.8-61.3,61.4C13875-655,13848.1-682.1,13848.1-715.9z"/>
	<path id="XMLID_307_" class="st4" d="M13645-715.5c-0.2-33.8,26.8-61.2,60.6-61.7c33.5-0.4,61.8,27.6,61.7,61.3
		c0,33.6-27.5,61-61.1,61.1C13672.5-654.6,13645.2-681.7,13645-715.5z"/>
	<path id="XMLID_304_" class="st4" d="M13705.6-857.9c-33.9-0.1-60.7-27.1-60.5-61.1c0.2-33.9,27.5-61,61.2-60.9
		c33.5,0.1,61,27.6,61.1,61.2C13767.4-884.8,13740.1-857.8,13705.6-857.9z"/>
	<path id="XMLID_294_" class="st4" d="M13910.8-370.9c35,1.8,60.7,29.6,59.2,64.1c-1.4,33.1-30.8,60.2-63.1,58.1
		c-35.3-2.2-60.6-30.2-58.8-65.5C13849.8-346.1,13878.9-372.5,13910.8-370.9z"/>
	<path id="XMLID_292_" class="st4" d="M13604.6-350.1c-33.9-0.2-61.2-27.6-61.1-61.2c0.2-33.6,27.7-61.1,61.3-61.1
		c34.3,0,60.9,27.6,60.7,62.8C13665.1-376.7,13637.7-350,13604.6-350.1z"/>
	<path id="XMLID_291_" class="st4" d="M13665.4-5.3c-0.1,33.8-26.7,60.6-60.3,60.7c-34.1,0.2-62.1-27.8-61.6-61.4
		c0.5-33.9,28-61,61.6-60.8C13638.8-66.6,13665.5-39.5,13665.4-5.3z"/>
	<path id="XMLID_288_" class="st4" d="M13604.8-878.3c34,0,60.7,26.9,60.7,61.1c0,34-27.1,61.3-60.8,61.2
		c-33.7-0.2-61.2-27.7-61.2-61.3C13543.5-850.9,13571-878.3,13604.8-878.3z"/>
	<path id="XMLID_286_" class="st4" d="M13908.7-857.9c-34-0.1-60.7-27-60.7-61.2c0.1-33.7,27.7-61.2,61.3-60.8
		c33.7,0.3,60.7,27.7,60.7,61.6C13969.9-884.4,13943-857.9,13908.7-857.9z"/>
	<path id="XMLID_285_" class="st4" d="M14010.6-147.6c-34.1,0-60.9-26.7-61-60.7c-0.1-33.9,27-61,60.8-61
		c33.9,0,61.1,27.1,61.2,60.8C14071.6-174.8,14044.4-147.7,14010.6-147.6z"/>
	<path id="XMLID_284_" class="st4" d="M14010.9-1080.8c33.8,0,60.9,27.4,60.7,61.3c-0.3,33.8-27.6,60.7-61.5,60.6
		c-33.4-0.1-60.3-27.1-60.6-60.7C13949.3-1054,13976.3-1080.9,14010.9-1080.8z"/>
	<path id="XMLID_283_" class="st4" d="M13665.4-208c-0.1,33.9-26.9,60.6-61.1,60.5c-33.4-0.1-60.4-27-60.8-60.5
		c-0.4-33.6,27.4-61.3,61.6-61.3C13638.9-269.4,13665.5-242.3,13665.4-208z"/>
	<path id="XMLID_282_" class="st4" d="M13665.4-1019.6c-0.1,33.5-27.1,60.5-60.5,60.5c-33.8,0-61.1-27-61.4-60.7
		c-0.3-34,27.4-61.2,62.4-61.1C13639.2-1080.7,13665.5-1053.7,13665.4-1019.6z"/>
</g>
<g>
	<ellipse class="st1" cx="14420" cy="525.7" rx="358.8" ry="83.6"/>
	<rect x="14295.2" y="112.8" class="st7" width="249.5" height="412.9"/>
	<polygon class="st3" points="14419.2,-1364 14096.2,-606 14169,-650.6 14008.1,-294.1 14115,-373.1 13936.7,-44.6 14043.7,-129.6 
		13855.1,213.8 13981.3,142.6 13767.4,463.3 14420,207.9 15064.8,468.8 14887.2,142.6 14997.1,169.3 14778.8,-178.8 14887.9,-90.6 
		14718.9,-411.4 14821.7,-332.2 14647.5,-679.1 14712,-632.8 	"/>
</g>
<g>
	<path class="st8" d="M13456.6-1431.7c0,0-66.5-70.8-43.9-149s138.7-83.2,131.7-143.1C13544.4-1723.8,13617.6-1487.2,13456.6-1431.7
		z"/>
	<path class="st9" d="M13605.1-1374.5c16.2-15.9,21.8-35.8,9.7-59c-42.1-80.2-147.3-69.8-170.9-53.7c-21.1,14.5-50-41.5-57.6-43.5
		c-7.9-7.8-19.8-11.3-31.8-8.4c-18,4.5-29.2,21.8-25,38.7c2.9,12.1,13.1,26,25,23.1l6.7-1.2c0.4,0.1,38.4,74.4,85.2,110.9
		c19.8,15.5,54.8,31.1,97.9,22.7l16,28.9l1.7-33.5c2-0.7,4-1.3,6-2.1l13.9,25.4l1.6-32.3c5.3-2.8,10.2-6,14.6-9.5
		c17.7,6.6,65.1,22.4,73.9,9.8c4.4-6.1-7.6-9.4-23.4-11c20.8-1.3,40.6-4.5,46-12.4C13704.7-1396.2,13636.5-1382,13605.1-1374.5z"/>
	<polygon class="st6" points="13581,-1329 13569.1,-1312.4 13578.8,-1318.4 13581.4,-1310.5 13586.7,-1319.9 13598.6,-1321.2 	"/>
	<path class="st9" d="M13428.1-1431.7c0,0-20.1-94.9,39.9-150.1c60-55.1,161.8,1.1,186.9-53.8
		C13654.8-1635.4,13594.3-1395.3,13428.1-1431.7z"/>
	<path class="st7" d="M13334.4-1525.4c8.1-13-48,38.3-47,47.6l34-11.5l-23.8,17.4l40-14.4
		C13337.7-1486.3,13318.9-1500.3,13334.4-1525.4z"/>
	<circle class="st7" cx="13355.6" cy="-1520.6" r="4.7"/>
	<polygon class="st6" points="13561.6,-1316.2 13541.5,-1285.9 13557.6,-1299.5 13565.2,-1291.9 13564.4,-1304.7 13578.5,-1303.7 	
		"/>
</g>
<g>
	<path class="st10" d="M11455-1618.4c0,0-45.2-97.9,6-172.3c51.3-74.4,175.4-38.9,189-104.4
		C11650-1895.2,11644.1-1620.2,11455-1618.4z"/>
	<path class="st11" d="M11649.5-1606c13.3-21.4,14-44.4-5.3-66.1c-66.7-75.1-177.4-35.9-198.5-12.2c-18.8,21.3-64.9-31.4-73.7-31.5
		c-10.7-6.2-24.5-6.9-36.6-0.5c-18.1,9.5-25.6,31.3-16.6,48.4c6.5,12.3,21.1,24.5,33.2,18.2l6.9-3.1c0.4,0,61.2,70,121.4,96.8
		c25.5,11.3,67.4,18.8,111.6-1.7l25,26.9l-7.1-36.5c2-1.3,4-2.6,6-3.9l21.8,23.6l-6.9-35.3c5-4.5,9.3-9.2,13.2-14.1
		c20.8,2.4,76.2,6.8,82.3-9.2c3-7.8-10.7-8.1-28.2-5.6c22.1-6.9,42.5-15.6,46.2-25.6C11751-1655.9,11681.3-1622.3,11649.5-1606z"/>
	<polygon class="st6" points="11635.6,-1550.4 11627.2,-1529.4 11636,-1538.5 11641.1,-1530.6 11644.2,-1542.1 11656.7,-1546.8 	"/>
	<path class="st11" d="M11424.8-1628.5c0,0,12.4-107.1,94.9-144.1s170.1,58.1,215.8,9.1
		C11735.5-1763.3,11587.3-1531.6,11424.8-1628.5z"/>
	<path class="st7" d="M11318-1695.9c5.5-16-42.8,53.1-39.4,62.9l34.1-20.7l-21.5,24.5l39.9-25.3
		C11331.1-1654.4,11307.3-1664.9,11318-1695.9z"/>
	<circle class="st7" cx="11341.5" cy="-1696.9" r="5.2"/>
	<polygon class="st6" points="11618.1,-1531.4 11604.5,-1493.5 11618.3,-1512.4 11628.5,-1506.2 11624.2,-1519.8 11639.6,-1522.5 	
		"/>
</g>
<path class="st12" d="M13615.6,367.7c-88.9-16.7-225.3-134.3-225.3-134.3C13171.5,63.2,13271.1-45,13271.1-45l98.3,65.9
	c-10.3-78.6,9.2-65.9,9.2-65.9c32.9,12.9,38.5,98.9,38.5,98.9c134.5,135,163.9,116.9,163.9,116.9l-36-179.8"/>
<g>
	<g>
		<path class="st1" d="M13057.5,797.3c-379.8,0-1038.1,106.5-1038.1,166.7s551.3,82.9,931.1,82.9c585.9,0,940.2-191,943.5-336.3
			C13895.4,650.4,13437.2,797.3,13057.5,797.3z"/>
		<path class="st13" d="M13647.6-283.4c87.1-4,306.8,235.3,341.6,598.4s-104.6,518.7-571.7,538.6
			c-467.1,19.9-467.1-434.9-467.1-434.9C12950.5,155.3,13560.5-279.5,13647.6-283.4z"/>
		<path class="st14" d="M13326.7,614.1c0,0-293.5-89-200.5-340.6s410.6-500.6,509.2-513.1c98.6-12.5,233.9,312.6,249.4,576.5
			c15.5,264-184.5,286.4-184.5,286.4L13326.7,614.1z"/>
		<g>
			<path class="st15" d="M12337.7,634.4c0,0,405-388.9,449.1-441s509.2-30.1,607.5,0c98.3,30.1,155.4,370.2,94,370.4
				c-61.5,0.2-492.9-141.8-492.9-141.8l-463.1,431L12337.7,634.4z"/>
			<path class="st16" d="M13233.8,17c-128.1,184.8-445,301-492,310.5c-47.1,9.4-122.4-47.1-122.4-71.6s120.6-56.5,120.6-56.5
				s0,18.8-39.6,0s-13.2-81,0-49s81,30.2,81,30.2c203.4-56.5,321.5-254.2,321.5-254.2L13233.8,17z"/>
			<path class="st17" d="M13650.8-153.4c70.2,0,109.4,175.9,109.4,175.9c-22-62.1-165.1-47.9-148.2-12.5
				c45.1,94.4,68.9,398.3,68.9,398.3l-479.2-271l32.1-120.3l-68.2,76.1c-8-26-108.2-108.2-108.2-108.2s88.8-98.5,151-130.1
				c62.1-31.6,165.8-22.3,165.8-22.3c38.1,110.2,98.2,0,98.2,0S13580.7-153.4,13650.8-153.4z"/>
			<path class="st15" d="M13021.3,161.6c50.2-144.3,461.1,102.3,461.1,102.3l198.5,144.3c0,0-1.9,76.2-80.2,172.4
				s-320.8-54.1-320.8-54.1v270.6h-292.7C12987.2,797.2,12971.2,306.1,13021.3,161.6z"/>
			<path class="st4" d="M13095,1010.9c0,0,9.2-38.9,29.7-41.2c20.6-2.4,32,41.2,32,41.2h96.1V853h-235.8l-64.1,57.2
				c0,0-98.4,2.3-141.9,0c-43.4-2.3-96.1,100.7-96.1,100.7H13095z"/>
			<path class="st4" d="M12244.2,846.8c0,0,35-19.3,50.5-5.5c15.5,13.8-9.1,51.4-9.1,51.4l64.4,71.3l117.2-105.9l-158-174.9
				l-85.4-9.2c0,0-67.7-71.4-95.1-105.3c-27.4-33.9-139.1-3.9-139.1-3.9L12244.2,846.8z"/>
			<path class="st16" d="M13354.3,134.6c49.4,62.2,250.3,258,405.9,239.8c137.7-16.2,30.4-288.4-4.4-369.3
				c-34.3-79.7-149.1-14.1-149.1-14.1c23.9,119.6,36,179.8,36,179.8c-21.6,25.5-163.9-116.9-163.9-116.9s-12.6-97.9-38.5-98.9
				c-20.2-0.8-9.2,65.9-9.2,65.9c-12.8-3.6-98.3-65.9-98.3-65.9C13296.7,4.5,13304.8,72.3,13354.3,134.6z"/>
			<path class="st16" d="M13457.2-240c0.2,20.9,2.1,60.9,15.3,74.2c0,0-26.8,48.6-51.6,48.6c-41.9,0.3-46.7-48.6-46.7-48.6v-34.3
				c-37.1-3.1-71.1-29.6-74.4-82.6c-2.7-43.5-16.3-123.2,69.6-123.2s103.1,71.2,103.1,111.6
				C13472.4-272.6,13466.6-254.4,13457.2-240z"/>
			<polygon class="st18" points="13292,-131.3 13307.3,135.4 12984.8,115 12959.2,-131.3 			"/>
			<polygon class="st10" points="13307.3,135.4 13310.5,157.4 12987.2,135.4 12984.8,115 			"/>
			<polygon class="st10" points="13310.5,157.4 13387.6,186.1 13387.6,172.1 13307.3,135.4 			"/>
			<polygon class="st7" points="13310.5,157.4 13264.9,155.8 13319.4,179.5 13387.6,186.1 			"/>
			<polygon class="st7" points="13035.1,138.7 13021.3,161.7 12987.2,135.4 			"/>
			<polygon class="st7" points="13252.9,798.9 13252.9,853 13017.1,853 13020.1,798.9 			"/>
			<polygon class="st7" points="12467.4,858.1 12506.4,829.2 12358.2,662.7 12309.3,683.2 			"/>
		</g>
		<circle class="st7" cx="13309.9" cy="-315.3" r="7.5"/>
		<circle class="st7" cx="13379.7" cy="-316.2" r="7.5"/>
		<path class="st12" d="M13294.8-329.9c59.7-14.9,34.4,33.9,34.4,33.9s-14.3,24.4,5,24.4"/>
		<path class="st12" d="M13366.9-329.4c10.8-11.7,30.3-1.1,30.3-1.1"/>
		<path class="st7" d="M13374.2-177.5v-22.6c51.8,4.1,82.9-39.9,82.9-39.9C13445.1-183.9,13374.2-177.4,13374.2-177.5z"/>
		<path class="st12" d="M13447.3-294c7.3-16.8,11.5-41.7-1-43c-12.5-1.3-10.8,13-10.8,13"/>
		<path class="st12" d="M13349.8-238.1c-11.3,12.9-17-1.8-17-1.8"/>
		<path class="st7" d="M13450.3-346c-19.1-2.4-21.9,27.5-21.9,27.5h-7.8c0,0-3.9-59.9-58.8-61.3c-69.5-1.8-64.4,70.3-64.4,70.3
			l-5.1-29c0,0-15.3-76.1,89.1-87c104.4-11,90.2,115.9,90.2,115.9S13469.3-343.8,13450.3-346z"/>
		<path class="st2" d="M13416.7-382.5c0,0-141.7,49.7-192.7,29.5c-51.1-20.2,87.5-60.4,87.5-60.4L13416.7-382.5z"/>
		<path class="st15" d="M13311.5-413.4c0,0,10.9-50.8,80.2-50.8s65.3,67.7,65.3,67.7l-40.3,14L13311.5-413.4z"/>
		<path class="st12" d="M13823,320c0,0-27.5-5.1-52,8.5c-24.4,13.6-29.7,47.4-29.7,47.4"/>
		<path class="st12" d="M12738.4,285.3l-66.1,24.8c0,0,37.3,33.1,107.3,6c70-27.1,231.6-108.1,231.6-108.1"/>
		<line class="st19" x1="12711.4" y1="240.6" x2="12627.4" y2="273.5"/>
		<line class="st19" x1="12726.7" y1="263.4" x2="12647.4" y2="293.2"/>
		<line class="st12" x1="13397.2" y1="35.9" x2="13320.9" y2="-25.7"/>
		<line class="st12" x1="13377.7" y1="57.5" x2="13312.3" y2="-2.6"/>
		<line class="st12" x1="13359" y1="77.6" x2="13310.5" y2="33.4"/>
	</g>
	<path class="st14" d="M13700.4,623.3c-118.8-9.2-373.6-9.3-373.6-9.3C13474.4,743.1,13700.4,623.3,13700.4,623.3z"/>
</g>
<path class="st1" d="M9850.8,452c409,0,740.5,18.8,740.5,65s-331.5,83.6-740.5,83.6s-740.5-37.5-740.5-83.6
	C9110.3,470.9,9441.8,452.1,9850.8,452z"/>
<circle class="st20" cx="14170.9" cy="-1643.8" r="205.7"/>
<ellipse class="st1" cx="10590" cy="1010.9" rx="488.1" ry="54.9"/>
<path class="st12" d="M10748.7-316.8c20.4-6,85.8-51.8,85.8-51.8"/>
<polygon class="st4" points="12163.9,-395.7 12547,-383.9 12547.6,-411.6 12164.5,-420.6 "/>
<rect x="12162.8" y="-352.4" transform="matrix(0.9997 2.344341e-02 -2.344341e-02 0.9997 -4.6133 -288.8587)" class="st4" width="309.4" height="22.4"/>
<polygon class="st6" points="12161,-270.5 12511.2,-259.5 12511.8,-287.3 12161.6,-295.4 "/>
<polygon class="st4" points="11182.6,-267.4 12023.6,-260.8 12027.4,-600.1 11907.4,-475.1 11777.2,-558.3 11625.2,-431.2 
	11582.3,-542.9 11477,-323.7 11454.4,-411.7 11426.6,-327.5 11408.1,-394.1 11355.9,-327.7 11252.9,-311.4 "/>
<polygon class="st6" points="11182.3,-234.3 12023.2,-224.1 12025.9,-458.6 11796.7,-329.4 11724.5,-441.7 11502.7,-272.6 
	11376,-305.9 11322.2,-265.7 "/>
<rect x="11327.3" y="-973.3" transform="matrix(0.9999 1.115095e-02 -1.115095e-02 0.9999 -8.2976 -127.3844)" class="st14" width="183.7" height="330.9"/>
<rect x="11583.7" y="-1047.3" transform="matrix(0.9999 1.115095e-02 -1.115095e-02 0.9999 -8.6784 -130.246)" class="st4" width="183.7" height="407.8"/>
<rect x="11846.6" y="-942.8" transform="matrix(0.9999 1.115095e-02 -1.115095e-02 0.9999 -8.0639 -133.1741)" class="st13" width="183.7" height="306.2"/>
<path id="XMLID_317_" class="st13" d="M9034.1-1643.8c0,0,74.7-100.2,155.7-100.2c81,0,80.3,35.1,80.3,35.1s15.9-120.5,100.4-120.5
	c84.5,0,87.9,67.8,87.9,67.8s28.6-118,208.4-118c170,0,188.3,173.2,188.3,173.2s73.4-61.4,113,42.7c0,0,44.7-56.5,92.8,17.4
	L9034.1-1643.8z"/>
<g>
	<path class="st15" d="M14100,671.4c-12.9-47.7,32.3-91.2,64.3,26.2c32,117.4-62.3,196.6-62.3,196.6
		C14167,755.2,14123.1,756.8,14100,671.4z"/>
	<ellipse class="st1" cx="13957.8" cy="956.1" rx="213.1" ry="57.1"/>
	<path class="st15" d="M14026.1,573.3c208.5,346.7,46,399-128.7,379.2s-51.4-278.5-51.4-278.5L14026.1,573.3z"/>
	<path class="st15" d="M14043.9,633.9c0,51.3-51.3,92.8-114.7,92.8c-63.4,0-114.7-41.6-114.7-92.8c0-12.3,2.9-23.9,8.3-34.7l0,0
		l40.3-130.5c0,0,61.2,105.2,66,105.2c2.1,0,77.3-101.6,77.3-101.6l25.2,119.7C14039.5,604.7,14043.9,618.9,14043.9,633.9z"/>
	<path class="st7" d="M13935.1,637.8c0,0-11.3,12.6-16.3,15.1s-16.9-15.1-16.9-15.1H13935.1z"/>
	<circle class="st7" cx="13854.3" cy="614.6" r="6.6"/>
	<circle class="st7" cx="13986.7" cy="614.6" r="8.4"/>
	<polygon class="st7" points="13995.1,533.4 14002.8,576.9 13964.9,576.9 	"/>
	<polygon class="st7" points="13866.1,533.4 13890.6,576.9 13850.1,576.9 	"/>
	<path class="st21" d="M14054.9,797.2c-119.7,23.1-6.5,129.6-6.5,129.6s-48.3,28.1-31.6,50.3c16.8,22.3,93.9-29.3,92.3-44.4
		c-1.7-15-29.6-51.6-29.6-51.6"/>
	<path class="st21" d="M13947.8,780.5l15.4,186.7c0,0,23.1,21.8,42.7-10c19.6-31.9,0-180.2,0-180.2"/>
	<path class="st21" d="M13850.5,862.6c0,0,27.8,36.5,29.6,51.6c1.7,15-75.5,66.5-92.3,44.4c-16.7-22.2,31.6-50.3,31.6-50.3"/>
	<path class="st21" d="M13893.2,773.2l-16.2,186.7c0,0-23.1,21.8-42.7-10c-19.6-31.9,0-180.2,0-180.2"/>
</g>
<path id="XMLID_338_" class="st5" d="M9863.3-1106.6c0,0,21.4-52.9,91.5-22.7C9954.8-1129.3,9929.3-1078.1,9863.3-1106.6z"/>
<path id="XMLID_337_" class="st5" d="M10072.1-1386.9c0,0-22.2-52.7,48.8-80.7C10120.9-1467.6,10139-1413.3,10072.1-1386.9z"/>
<path id="XMLID_331_" class="st5" d="M10345.3-1448.9c0,0-70.2,8.7-79.7-85.4C10265.7-1534.3,10336.5-1537.5,10345.3-1448.9z"/>
<path id="XMLID_330_" class="st5" d="M10250.1-1205c0,0,42.6-38.1,92.1,19.8C10342.3-1185.2,10296.9-1150.3,10250.1-1205z"/>
<path id="XMLID_382_" class="st5" d="M7986.3-502.4c0,0,51.6,24.5,17.1,92.7C8003.4-409.8,7953.8-438.3,7986.3-502.4z"/>
<path id="XMLID_381_" class="st5" d="M8253.5-277.2c0,0,53.9-18.9,77.5,53.6C8331-223.6,8275.7-208.8,8253.5-277.2z"/>
<path id="XMLID_361_" class="st5" d="M8298.8-0.8c0,0-4.5-70.7,90.1-74.4C8388.9-75.1,8387.8-4.1,8298.8-0.8z"/>
<path id="XMLID_349_" class="st5" d="M7850.1,64.6c0,0,35.5,44.8-25.4,90.7C7824.7,155.4,7792.7,108,7850.1,64.6z"/>
<path id="XMLID_386_" class="st1" d="M10065.8,511.3c-0.6-13.3-12-23.9-26-23.9c-2.4,0-4.7,0.3-6.9,0.8c0.8-2.9,1.1-6,1.1-9.2
	c0-18.5-12.4-33.4-27.6-33.4c-4.5,0-8.8,1.3-12.5,3.7c-5.5-21.5-19.9-37-36.8-37c-17.2,0-31.8,16-37.1,38.1
	c-25-38.6-75.4-231.7-152.8-1.1c0,0-35-78.6-72.4,21.3c0,0-50.2-52.2-67,12s17.4,58.3,17.4,58.3l458.2,0.5
	C10103.4,541.7,10088.3,528,10065.8,511.3z"/>
<g>
	<path class="st3" d="M10789.2-328.5c0-111.5-97.3-209-242.6-262.2c0-2.1,0-4.1,0-6.2c0-178.5-110.7-329-262.3-376.2
		c-39.2-164.4-220.5-288.7-438-288.7c-246.2,0-445.9,159.1-445.9,355.6c0,8.3,0.3,16.4,1,24.6c-121.4,63.6-201.5,173.1-201.5,297.4
		c0,2.8,0,5.5,0.1,8.3c-171.7,49.4-294.3,180.6-294.3,334.5c0,196.3,199.5,355.6,445.9,355.6c135.8,0,257.4-48.4,339.2-124.8
		c87,46,200.1,73.7,323.7,73.7c137.7,0,262.2-34.4,352.2-89.9C10605.9-49.1,10789.2-175.7,10789.2-328.5z"/>
	<line class="st22" x1="9844" y1="489.6" x2="9846.3" y2="-961.6"/>
	<path class="st22" d="M9846.4,166.7c0,0-290,31.5-279.4-210.7c10.4-242.2-184.3-215.8-184.3-215.8s-231.8,24.1-231.8-134.9"/>
	<path class="st22" d="M9846.2-112.5c0,0,252.6-52.6,252.6-242.2c0-189.5-31.6-390.6,84.3-390.6"/>
	<path class="st22" d="M9846.3-584.3c0,0-200.4-35.5-200.4-161.1c0,0-3.1-321.3-90.4-321.3"/>
	<path class="st22" d="M10097.3-328.7c0,0,43.8-132.3,191.2-132.3"/>
	<path class="st22" d="M9498.1-231.1c0,0-26.8-296.2,101-296.2"/>
	<path class="st22" d="M10095.4-584.3c0,0-53.5-128.1-115.9-128.1"/>
	<path id="XMLID_315_" class="st5" d="M9501.7-363.8c0,0,21.4-52.9,91.5-22.7C9593.2-386.5,9567.7-335.2,9501.7-363.8z"/>
	<path id="XMLID_313_" class="st5" d="M9710.5-644.1c0,0-22.2-52.7,48.8-80.7C9759.3-724.8,9777.4-670.5,9710.5-644.1z"/>
	<path id="XMLID_312_" class="st5" d="M9643.2-811c0,0-6.4-91.2,115.6-96.9C9758.8-907.9,9758.2-816.3,9643.2-811z"/>
	<path id="XMLID_311_" class="st5" d="M9849.6-946.7c0,0-73.4-69.7-56.9-144.2C9792.8-1090.7,9865.3-1016.9,9849.6-946.7z"/>
	<path id="XMLID_310_" class="st5" d="M9849.2-866.4c0,0-0.4-57.1,75.9-55.9C9925-922.3,9921-865.2,9849.2-866.4z"/>
	<path id="XMLID_308_" class="st5" d="M9841.7-916.9c0,0-39.7,14.4-59.4-44.8C9782.3-961.7,9823.2-972.7,9841.7-916.9z"/>
	<path id="XMLID_306_" class="st5" d="M9851.7-467.9c0,0,0.9-46.6,57.4-44.4C9909.1-512.3,9905-465.7,9851.7-467.9z"/>
	<path id="XMLID_305_" class="st5" d="M9771.5-321.7c0,0,20.2-42,70.7-16.5C9842.3-338.2,9819.3-297.5,9771.5-321.7z"/>
	<path id="XMLID_303_" class="st5" d="M10017-705.5c0,0-0.3-34.8,46.2-34.2C10063.1-739.6,10060.7-704.9,10017-705.5z"/>
	<path id="XMLID_302_" class="st5" d="M9847.1-934.8c0,0,2.8-34.7,49-30.1C9896.1-964.9,9890.7-930.4,9847.1-934.8z"/>
	<path id="XMLID_301_" class="st5" d="M9983.7-706.1c0,0-70.2,8.7-79.7-85.4C9904-791.5,9974.9-794.7,9983.7-706.1z"/>
	<path id="XMLID_300_" class="st5" d="M10163.6-421.4c0,0-25.2-23.9,7.5-57C10171-478.4,10194.5-452.6,10163.6-421.4z"/>
	<path id="XMLID_299_" class="st5" d="M9852.7-261.2c0,0-4-57,72.2-60.7C9924.9-321.9,9924.6-264.7,9852.7-261.2z"/>
	<path id="XMLID_298_" class="st5" d="M9977.7-267.4c0,0,49.2,29,9.1,93.9C9986.8-173.6,9939.8-206.2,9977.7-267.4z"/>
	<path id="XMLID_297_" class="st5" d="M10075.9-262.1c0,0,42.6-38.1,92.1,19.8C10168.1-242.2,10122.7-207.4,10075.9-262.1z"/>
	<path id="XMLID_296_" class="st23" d="M10097.1-307.5c0,0,12.7-55.7,86.7-37.1C10183.8-344.6,10166.9-289.9,10097.1-307.5z"/>
	<path id="XMLID_295_" class="st5" d="M10143.3-737.5c0,0-40.8-11.4-22.4-71C10120.9-808.5,10160.6-793.7,10143.3-737.5z"/>
	<path id="XMLID_293_" class="st5" d="M10182.3-734.5c0,0-19.3-29,20-53.9C10202.4-788.4,10219.4-757.9,10182.3-734.5z"/>
	<path id="XMLID_290_" class="st5" d="M10117.2-696.1c0,0,31.8-14.2,49.7,28.7C10166.9-667.4,10134.2-655.7,10117.2-696.1z"/>
	<path id="XMLID_289_" class="st5" d="M9158.4-392.3c0,0-38.1,27.1-69.8-19.7C9088.5-412,9128.4-436.3,9158.4-392.3z"/>
	<path id="XMLID_287_" class="st5" d="M9833.1-416.8c0,0-43.4,37.1-91.7-22C9741.5-438.8,9787.8-472.6,9833.1-416.8z"/>
	<path id="XMLID_318_" class="st5" d="M9519.5-467.5c0,0-66.4-8.9-52.6-97.2C9466.9-564.7,9532.4-550.8,9519.5-467.5z"/>
	<path id="XMLID_322_" class="st5" d="M9584.6-518.2c0,0,4.5-57,80.4-49.3C9664.9-567.5,9656.2-511,9584.6-518.2z"/>
	<path id="XMLID_323_" class="st5" d="M9620.7-977.4c0,0-13.5,40.1-72.1,18.7C9548.6-958.7,9565.4-997.6,9620.7-977.4z"/>
	<path id="XMLID_324_" class="st5" d="M9153.2-386.7c0,0-17.1-38.6,40.4-62.5C9193.6-449.3,9207.6-409.3,9153.2-386.7z"/>
	<path id="XMLID_325_" class="st5" d="M9278.1-193.1c0,0-17.1-38.6,40.4-62.5C9318.5-255.6,9332.4-215.5,9278.1-193.1z"/>
	<path id="XMLID_328_" class="st5" d="M9564.8-116c0,0-17.1-38.6,40.4-62.5C9605.2-178.5,9619.1-138.6,9564.8-116z"/>
	<path id="XMLID_329_" class="st5" d="M9489.4-19c0,0,15.5-39.4,72.9-15.1C9562.3-34.1,9543.6,3.9,9489.4-19z"/>
</g>
<g>
	<g>
		<g>
			<g>
				<path class="st16" d="M10706.1-877.3c-19.3-2.1-88.1-111.7-36.5-165.4c51.5-53.7,154.7,0,154.7,0
					c15,180.5-58.6,176.2-58.6,176.2"/>
				<path class="st7" d="M10749.4-1145.4c-77.7-10.1-142.9,60.5-150.1,74.7c-7.1,14.3-166.1-16-197.5,38
					c-31.5,53.9-2.4,170.8-86.6,193.3c-84.2,22.5-148.4,264.4-0.3,340.2c148.1,75.7,377.8-308.4,377.8-308.4s12.8-34.9,13.3-69.7
					c0.4-25.4,2.4-35-14.5-55.7c-25-30.6,4-81.3,22.9-79.7c105,8.7,148.5-15,148.5-15C10899.3-1051.8,10827.1-1135.4,10749.4-1145.4
					z"/>
				<path class="st24" d="M10538.4-542.1l-174.8-123.1c116-200.6,338.4-140.6,338.4-140.6c35.5,21.8,63.6,0.1,63.6,0.1
					c128.4-3.3,325.8,134.9,325.8,134.9l-154.7,158C11075-259.4,10801.9,807,10801.9,807c-39.5,52.7-213.9,0-213.9,0
					c-105.4-289.6,46-661.6,46-661.6c-99.6,271.4-312.6,612.2-312.6,612.2c-105.4,82.3-220.6-19.7-220.6-19.7
					c-36.2-158,88.9-487.1,88.9-487.1c115.2-190.9,131.7-483.8,131.7-483.8C10322.7-369.9,10538.5-542.2,10538.4-542.1z"/>
				<path class="st16" d="M11089-668.2c0,0,44.4,28.9,62.3,28.9c17.8,0,23.1-197.1,20.9-270.5c-2.2-73.3,32.8-48.1,28.3-128
					c-4.5-80,28.9-30.6,32.9-19.6c29.1,79.6,73.7,34,121.7,17.6c71.5-24.4,61.8,104.4,23,129.8c-16,10.4-74.2,16.8-74.2,16.8
					s47.6,430.6-43.5,503.9c-91.1,73.3-326.2-121.2-326.2-121.2L11089-668.2z"/>
				<path class="st4" d="M10059.3,784.2l47.7-9.2c0,0,107.4,105.6,145.9,137.4c38.5,31.8,110.6,29.9,110.6,29.9l46.4,29.9v26.9
					l-236.3-4.9c0,0-49.5-101.4-65.4-103.8c-15.9-2.4-20.8,37.8-20.8,37.8l-68.4-42.7L10059.3,784.2z"/>
				<path class="st4" d="M10551.6,820.6l47.7-9.2c0,0,123.3,73.9,161.7,105.7c38.4,31.8,122.8,23.4,122.8,23.4l39.1,28l-4.2,30.5
					h-236.9c0,0-61.6-81.8-77.5-84.2c-15.9-2.4-20.8,37.8-20.8,37.8l-68.4-42.7L10551.6,820.6z"/>
				<path class="st11" d="M10773.4,824.9c0,0-3.6,25-8.4,51.1c-4.9,26.1,33.7,63,33.7,63c-86.7,16.9-194.4-108.6-194.4-108.6v-18.9
					C10701.5,839,10773.4,824.9,10773.4,824.9z"/>
				<path class="st11" d="M10252.9,788v139c-40.9,15.7-158.6-135.6-158.6-135.6l28.9-37.1C10207.8,799.1,10253,788,10252.9,788z"/>
				<path class="st16" d="M10733.6-240.1c42.3-31.8,20.4-172.9-10.8-152.8c-13.5,8.7-69.4,44-69.4,44s3.9-6.1,7.9-46.2
					c4-40.1-28.6-18.6-28.6-18.6c-133.5,165.5-197.2,34.3-197.2,34.3c-2.7-44,105.8-163.1,105.8-163.1l-174.8-123.1
					c-108.7,150-173,288.2-149.2,379.5C10255.8-138.6,10563.4-112.3,10733.6-240.1z"/>
				<path class="st16" d="M10765.7-866.6v60.8c-41.3,30.7-72.1-3.4-72.1-3.4l12.4-68.1L10765.7-866.6z"/>
				<path class="st7" d="M10706-877.3c20.3,11.2,59.7,10.8,59.7,10.8v25.1C10752.5-843,10706-877.3,10706-877.3z"/>
			</g>
			<circle class="st7" cx="10815.3" cy="-973" r="7.5"/>
			<circle class="st7" cx="10744.1" cy="-973" r="7.5"/>
			<path class="st12" d="M10789.3-950.2c0,0,14.3,24.4-5,24.4"/>
			<path class="st12" d="M10729.9-994.2c0,0,16.7-10.4,30.2,3.6"/>
			<path class="st12" d="M10798.1-986.3c0,0,15.5-16,29.3-8"/>
			<path class="st12" d="M10766.8-903.7c0,0,5.9,15.9,15.2,3"/>
			<path class="st12" d="M11291.7-438.4c0,0-23.6-14.9-62.2,2.2c-38.6,17.1-42.7,62-42.7,62"/>
			<path class="st12" d="M10243.4-236.1c0,0,24.5-3.2,11-52.4c-13.5-49.2-42.3-58.6-42.3-58.6"/>
		</g>
		<line class="st12" x1="10747.6" y1="-368.5" x2="10663.7" y2="-313"/>
		<path class="st12" d="M10757.6-332.8c0,0-38.6,33.6-83,52.6"/>
		<path class="st12" d="M10756.1-291.9c0,0-30.4,30.9-69.7,44.2"/>
	</g>
	<path class="st12" d="M11313.8-990.7c51.7-13.9,86.7-33,86.7-33"/>
	<path class="st12" d="M11319.7-958.2c51.7-13.9,88.4-31.3,88.4-31.3"/>
	<path class="st12" d="M11322.6-924.1c51.7-13.9,81.7-28.7,81.7-28.7"/>
</g>
<g>
	<ellipse class="st1" cx="8686.3" cy="500.3" rx="358.8" ry="83.6"/>
	<g>
		<g>
			<path class="st7" d="M9252.6-1159.8c0,0,39.3,32,208.5,53.3c169.2,21.3,165.5-84.4,165.5-84.4l-196.7-55.7L9252.6-1159.8z"/>
			<polygon class="st14" points="9325.5,-1175.3 9297.9,-1202.7 9325.5,-1221 9330.9,-1198.1 			"/>
			<polygon class="st14" points="9377.1,-1259.3 9385,-1232.3 9405,-1242.1 9405,-1267.9 			"/>
		</g>
		<g>
			<path class="st14" d="M8696.6,241.6v221.6c0,0,209.6,52.2,209.6,10.1c0-42.8-31-83.1-75.4-88.1L8830,243
				C8830.1,243,8778.9,287.3,8696.6,241.6z"/>
			<path class="st7" d="M8695.9,241.6c0,0,76.9,68.1,126.2,17.6C8871.4,208.6,8695.9,241.6,8695.9,241.6z"/>
			<path class="st6" d="M8696.6,447c0,0,182.9,47.6,209.2,17.1l0.8,12.4c0,0-0.5,37.3-209.9-13.4L8696.6,447L8696.6,447z"/>
			<path class="st4" d="M8728.8,197.1v52.5c0,0,80.6,39.9,80.6-10.7v-64.2h-80.6V197.1z"/>
			<path class="st7" d="M8728.2,203.7c0,0,38.3,35.6,81.6,24.9v-20.4C8809.8,208.1,8780.3,217.2,8728.2,203.7z"/>
			<path class="st14" d="M8484.9,250v221.6c0,0,209.6,52.2,209.6,10.1c0-42.8-31-83.1-75.4-88.1l-0.8-142.1
				C8618.4,251.5,8567.2,295.7,8484.9,250z"/>
			<path class="st7" d="M8484.2,250c0,0,76.9,68.1,126.2,17.6C8659.8,217.1,8484.2,250,8484.2,250z"/>
			<path id="XMLID_2_" class="st16" d="M8834.9-1084.1l375.7-187.2c0,0,65.3-23.1,118.5,1.3c0,0,24.9,2.7,10.2-19.2
				c-14.7-21.8-58.1-21.2-34.6-29.5c23.5-8.3,91.3,21.3,108,21.3c16.6,0,24.5-57-30.7-96.7c-55.2-39.7-164.8-40-243.7-1.2
				c-79.1,38.7-299.2,119.6-299.2,119.6S8842.4-1183.7,8834.9-1084.1z"/>
			<path class="st7" d="M8699.9-1275.9c0,0,70.9,11.3,19.6-156.4C8719.4-1432.3,8653.5-1445,8699.9-1275.9z"/>
			<path class="st7" d="M8592.4-1438.7c0,0-133.4,14.7-86.6-87.5c46.9-102.3,210.8-26.6,166.3,44.1
				C8627.5-1411.5,8592.4-1438.7,8592.4-1438.7z"/>
			<g>
				<path class="st4" d="M8511.9,205.7v52.5c0,0,80.6,39.9,80.6-10.7v-64.2h-80.6V205.7z"/>
				<path class="st3" d="M8599.1-1208.5c0,0-114.7,2.4-165.4,21.2c-50.7,18.7-92.8,146.2-92.8,146.2l149.7,81.2L8437-664.5
					c0,0,431.5,100.8,431.5,1.4c0-99.4-70.7-406.4-70.7-406.4s80.2-30.8,133.8-63.9c0,0-14.5-162.2-50.1-159.2l-199.9,81.1
					L8599.1-1208.5z"/>
				<path class="st6" d="M8520.1-1208.7l-30.3,546.5l-52.9-7.6c0,0-14.3,719.3,17.8,852.4c10.8,44.4,137.3,70.2,181.7,18.3
					c18.1-59.7,27-536.6,27-536.6s-9,474.3,18.7,516.9c20,30.7,159.1,39.9,168.5,12.7c9.3-27.2,60.8-768.4,5-974.9
					c0,0-42.8-375.6-145.1-445.7l-27.2,13.9c55.6,37.7,103.9,142.5,105.6,377.8c6.1,51.3-194.9,40.1-217.2-6
					c-25.9-53.4-7.1-236.9-17.2-370.3L8520.1-1208.7z"/>
				<path class="st10" d="M8559.1-775.8c0,0,137,26.2,235.6-7.7c19.8-6.9,32.7,233.5,32.7,233.5c-99,71.1-270.9,7.2-270.9,7.2
					C8536.3-599.5,8559.1-775.8,8559.1-775.8z"/>
				<path class="st16" d="M8569.9-1202c0,0,9.8-33.3,7.7-52.3c-2.1-19-29.3-31.4-20.2-84.6c9.1-53.2,39.8-93.1,108.6-85.4
					c68.8,7.6,59,177.4-0.7,181.2c0,0-10.2,18.3,2.5,41.1C8680.4-1179.2,8606.2-1124,8569.9-1202z"/>
			</g>
			<path class="st7" d="M8510.1,223.4c0,0,46.9,41.3,82.3,24.3l-0.1-21.5C8592.4,226.2,8569.6,237.7,8510.1,223.4z"/>
			<path class="st7" d="M8589.5-1416.4c0,0,48.4,160-37.8,168.2c-86.2,8.1-134.4-232.3-9.6-249.6
				C8666.8-1515.3,8589.5-1416.4,8589.5-1416.4z"/>
			<path class="st7" d="M8544.6-1413.7c0,0,193.4,45.7,200.2-16.6S8576.4-1514.4,8544.6-1413.7z"/>
			<path id="XMLID_35_" class="st16" d="M8493.1-959.8c-30.2,137-52.3,342.6-26.5,396.1c31.6,65.2,16.7,77,16.7,77
				s-8.9,14.2-56.8-28.5c-48-42.7,68.6,137.5,68.6,137.5s-68.3,20.6-138.8-19.8c-59.5-34.1-98.5-390.1-15.5-643.3L8493.1-959.8z"/>
			<path class="st7" d="M8589.4-1265.6c0,0,47.1,29.3,75.8,22.5c0,0-6.6,16.7-1.4,32.3C8669-1195.1,8589.4-1265.6,8589.4-1265.6z"/>
			<circle class="st7" cx="8698.4" cy="-1348.4" r="7.5"/>
			<circle class="st7" cx="8627.4" cy="-1348.4" r="7.5"/>
			<path class="st12" d="M8672.6-1325.7c0,0,14.3,24.4-5,24.4"/>
			<path class="st12" d="M8613.2-1369.7c0,0,16.7-10.4,30.2,3.6"/>
			<path class="st12" d="M8681.3-1361.8c0,0,15.5-16,29.3-8"/>
			<path class="st12" d="M8650-1279.2c0,0,5.9,15.9,15.2,3"/>
			<path class="st6" d="M8485,455.5c0,0,182.9,47.6,209.2,17.1l0.8,12.4c0,0-0.5,37.3-209.9-13.4L8485,455.5L8485,455.5z"/>
			<path class="st16" d="M8493-959.7"/>
			<path class="st12" d="M8493-959.8c-16.1,90.2-56.2,323.1-29.2,386.5c38.4,90,36,118.6-47.6,51.6"/>
			<path id="XMLID_41_" class="st12" d="M8409-440c0,0,29.1,53.5,52,67.9"/>
			<path id="XMLID_40_" class="st12" d="M8377-438.3c0,0,25.8,56.5,44.9,63.1"/>
			<path id="XMLID_1_" class="st12" d="M8347.1-444c0,0,20.4,50.7,34.6,59.1"/>
			<path id="XMLID_55_" class="st25" d="M9424.1-1328.9c0,0-83.8-39.7-137.5-27.8"/>
			<path id="XMLID_43_" class="st25" d="M9414.5-1360.6c0,0-94.8-37.8-133.2-23.5"/>
			<path id="XMLID_42_" class="st25" d="M9389.2-1389c0,0-74.7-29.9-110.2-21.8"/>
			<path id="XMLID_60_" class="st26" d="M8321.6-967.8c0,0,59.1,2.5,51.9,85.4c-7.1,82.8-75.9,56.7-75.9,56.7"/>
		</g>
		<path class="st1" d="M9252.6-1159.8v75.6c0,0,280.5,124.5,374.6-19.7l-0.6-87.1C9626.7-1191,9580.1-1030.2,9252.6-1159.8z"/>
		<path class="st10" d="M9320.8-1163.4l113.3-59.2l139.3,28.6c0,0-50.2,58.5-120.5,58.4C9424.6-1135.7,9320.9-1163.4,9320.8-1163.4z
			"/>
	</g>
</g>
<g>
	<path class="st10" d="M9503.7-1397.9c0,0,78.7-73.8,165.5-48.6c86.8,25.2,92.2,154.2,158.7,146.4
		C9827.9-1300,9565-1219.1,9503.7-1397.9z"/>
	<path class="st11" d="M9692.5-1241.9c21.7-12.9,33-32.8,26-61c-24.2-97.6-140.4-114.4-170.1-103.2c-26.6,10-42.8-58.1-50.6-62.2
		c-6.4-10.5-18.4-17.5-32.1-17.5c-20.6,0-37.2,15.7-37.2,35.1c0,13.9,7.2,31.6,20.8,31.6l0,0c0.4,0.2,24.2-9.4,44.9,110.1
		c8.3,47.9,76,80.7,124.8,83.1l9.6,35.4l10.7-35.6c2.4-0.2,4.8-0.4,7.1-0.7l8.4,31l10.3-34.4c6.4-1.7,12.6-3.8,18.2-6.3
		c17.4,11.8,64.3,41.5,77,30.2c6.2-5.5-5.7-12.2-22.3-18.1c22.9,4.2,44.9,5.9,52.9-1.2C9805.3-1238.8,9728.2-1241.5,9692.5-1241.9z"
		/>
	<polygon class="st6" points="9654.6,-1195.8 9633.7,-1187 9646.3,-1187 9644.2,-1178 9654.6,-1183.8 9666.7,-1178 	"/>
	<path class="st11" d="M9502.8-1393.5c0,0,89.2-60.6,171.1-22.1c81.8,38.5,66.9,166.8,133.8,169.6
		C9807.7-1246.1,9535.3-1207.3,9502.8-1393.5z"/>
	<path class="st7" d="M9440.2-1476.3c12.1-11.9-61.8,28.7-63.2,38.8l39.7-3.4l-30.2,12.4l47-4.9
		C9433.5-1433.3,9417-1453.3,9440.2-1476.3z"/>
	<circle class="st7" cx="9462" cy="-1465.6" r="5.2"/>
	<polygon class="st6" points="9628.4,-1190.5 9591.7,-1173.8 9614.9,-1177.2 9617.5,-1165.6 9624.2,-1178 9636.9,-1168.9 	"/>
</g>
</svg>
