<?xml version="1.0" encoding="utf-8"?>
<!-- Generator: Adobe Illustrator 19.0.0, SVG Export Plug-In . SVG Version: 6.00 Build 0)  -->
<svg version="1.1" id="Warstwa_1" xmlns="http://www.w3.org/2000/svg" xmlns:xlink="http://www.w3.org/1999/xlink" x="0px" y="0px"
	 viewBox="5047 -2306 10125 4644" style="enable-background:new 5047 -2306 10125 4644;" xml:space="preserve">
<style type="text/css">
	.st0{fill:#A4DCD7;}
	.st1{fill:#0E1A17;}
	.st2{fill:#242D26;}
	.st3{fill:#2C8968;}
	.st4{fill:#00D1B2;}
	.st5{fill:#A8FFCD;}
	.st6{fill:#E1F1EE;}
	.st7{fill:#333333;}
	.st8{fill:#C5C5BF;stroke:#333333;stroke-width:3.866;stroke-miterlimit:10;}
	.st9{fill:#E1F1EE;stroke:#333333;stroke-width:4.64;stroke-miterlimit:10;}
	.st10{fill:#C5C5BF;stroke:#333333;stroke-width:4.2935;stroke-miterlimit:10;}
	.st11{fill:#E1F1EE;stroke:#333333;stroke-width:5.1531;stroke-miterlimit:10;}
	.st12{fill:none;stroke:#333333;stroke-width:5.1522;stroke-miterlimit:10;}
	.st13{fill:#DED6A2;}
	.st14{fill:#CCCBA2;}
	.st15{fill:#E1F1EE;stroke:#333333;stroke-width:6.4441;stroke-miterlimit:10;}
	.st16{fill:#F6D6D9;}
	.st17{fill:#2C8968;stroke:#00D1B2;stroke-miterlimit:10;}
	.st18{fill:#E1F1EE;stroke:#333333;stroke-width:4.523;stroke-miterlimit:10;}
	.st19{fill:#FCC812;}
	.st20{fill:none;stroke:#333333;stroke-width:6.4441;stroke-miterlimit:10;}
	.st21{fill:#E1F1EE;stroke:#333333;stroke-width:6.7996;stroke-miterlimit:10;}
	.st22{fill:none;stroke:#333333;stroke-width:18.5472;stroke-miterlimit:10;}
	.st23{fill:#73C47D;}
	.st24{fill:#C5C5BF;}
	.st25{fill:none;stroke:#333333;stroke-width:4.6011;stroke-miterlimit:10;}
	.st26{fill:none;stroke:#333333;stroke-width:5.0294;stroke-miterlimit:10;}
</style>
<path class="st0" d="M9193.6,954.1c-448.2,0-1507.7-114.7-1795.4-449.3c-107.4,424.7-492.1,739.1-950.3,739.1
	c-541.3,0-980.1-438.9-980.1-980.1s438.9-980.1,980.1-980.1c213.4,0,410.9,68.3,571.8,184.1c8-859.4,707.3-1553.6,1568.6-1553.6
	c759.2,0,1392.5,539.4,1537.5,1255.8c281.1-145.8,600.6-228,939.2-228c1128.9,0,2044.1,915.2,2044.1,2044.1"/>
<polygon class="st1" points="11113.9,941.9 11211.1,676.6 11345,624.3 11645.8,77.7 11984.5,676.6 12125.1,605.5 12339.5,737.1 
	12686.9,131.6 13076.2,676.6 13185.9,539.7 13461.5,941.9 "/>
<path id="XMLID_80_" class="st2" d="M13112.9,1559.2c951.6,409.1-6312,946.5-8063.9,142.5V954.5c0-27.2,9868.7-20,9868.7-20
	C11800.4,934.5,15520.7,1521.9,13112.9,1559.2z"/>
<ellipse class="st1" cx="8982.2" cy="1190" rx="718.7" ry="85.8"/>
<polygon class="st1" points="6309.4,943.5 5261.3,-896 5047,-370.6 5049,954.5 "/>
<path class="st3" d="M9992.4-854.5l35.6,969.6c4.3,118.4-85.6,217.3-199.2,219.1l-1840.4,29.1c-111.3,1.8-203.1-90.6-205.4-206.7
	l-19.7-998.7c-2.3-118.2,88.9-215.4,202.3-215.4h1824.5C9898.9-1057.5,9988.2-967.9,9992.4-854.5z"/>
<path class="st4" d="M10063.7-780.6l34.9,969.6c4.3,118.4-83.9,217.3-195.4,219.1L8098,437.2c-109.2,1.8-199.2-90.6-201.5-206.7
	l-19.3-998.7c-2.3-118.2,87.2-215.4,198.5-215.4h1789.7C9972-983.6,10059.6-894,10063.7-780.6z"/>
<path class="st5" d="M9927.7-697.2l30.5,797.4c3.7,97.4-73.4,178.7-170.8,180.2l-1578.2,23.9c-95.5,1.4-174.2-74.5-176.1-170
	L8016.2-687c-2-97.2,76.3-177.1,173.5-177.1h1564.6C9847.5-864.1,9924.1-790.4,9927.7-697.2z"/>
<path class="st3" d="M8286.3-163.3c34.5,20.9,74.9,33,118.2,33c126,0,228.1-102.1,228.1-228.1s-102.1-228.1-228.1-228.1"/>
<path class="st6" d="M8176.4-358.4c0,82.7,44,155.1,109.8,195.1l118.2-195.1H8176.4"/>
<path class="st4" d="M8404.5-586.4c-126,0-228.1,102.1-228.1,228.1h228.1V-586.4z"/>
<g id="XMLID_281_">
	<path id="XMLID_405_" class="st4" d="M6744.2-275.5c0.1,40-32.5,72.6-72.6,72.7c-41,0.1-73.2-31.9-73.2-72.6
		c-0.1-40.5,31.9-72.6,72.2-72.6C6711.5-348,6744.1-315.9,6744.2-275.5z"/>
	<path id="XMLID_395_" class="st4" d="M6598.5-33.2c-0.3-40.7,32.2-73.4,72.8-73.4c39.9,0,72.7,32.7,72.9,72.7
		c0.2,39.8-32.6,72.6-72.7,72.8C6631,39.1,6598.7,7.1,6598.5-33.2z"/>
	<path id="XMLID_394_" class="st4" d="M6598.3,449.3c-0.1-40.7,32.6-73.3,73.2-73.1c39.9,0.2,72.8,33.3,72.6,73
		c-0.2,40.1-32.9,72.5-73,72.5C6630.7,521.6,6598.5,489.5,6598.3,449.3z"/>
	<path id="XMLID_391_" class="st4" d="M6744.2-517.3c0.3,39.6-32.6,72.8-72.6,73.1c-40.5,0.3-73.3-32.4-73.2-73
		c0.1-40.4,32.2-72.4,72.7-72.5C6711.1-589.7,6743.7-557.3,6744.2-517.3z"/>
	<path id="XMLID_390_" class="st4" d="M6502.3-275.4c0,40.6-31.9,72.6-72.4,72.6c-40.6,0.1-72.7-31.8-72.9-72.2
		c-0.3-40.7,32-73,72.9-73C6470.3-347.9,6502.2-315.9,6502.3-275.4z"/>
	<path id="XMLID_385_" class="st4" d="M6550.6-82.1c-40.7,0.1-72.9-31.7-73-72.1s32-72.8,72.3-73.1c40.2-0.2,72.9,32.2,73,72.4
		C6623-114.3,6591.1-82.2,6550.6-82.1z"/>
	<path id="XMLID_384_" class="st4" d="M6477.7,328.2c0-40.3,32.4-72.7,72.6-72.7c40.3,0,72.6,32.3,72.6,72.7
		c0,40.5-32,72.5-72.6,72.5C6509.7,400.7,6477.7,368.7,6477.7,328.2z"/>
	<path id="XMLID_339_" class="st4" d="M6598.4,207.7c0-40.3,32.3-72.6,72.5-72.6c40.6,0,73.7,32.8,73.3,72.9
		c-0.4,40.2-32.8,72-73.2,72C6630.6,279.9,6598.4,247.9,6598.4,207.7z"/>
	<path id="XMLID_332_" class="st4" d="M6744.2-758.2c-0.2,40-32.9,72.4-73,72.4c-40.3,0.1-72.7-32.1-72.8-72.3
		c-0.1-40.3,32-72.6,72.3-72.6C6711.5-830.7,6744.4-798.4,6744.2-758.2z"/>
	<path id="XMLID_327_" class="st4" d="M6357,449.2c-0.1-40.5,32.6-73.2,73.1-73c40.1,0.1,72.3,32.8,72.1,73
		c-0.2,40.6-32.2,72.5-72.6,72.5C6389.5,521.7,6357.2,489.4,6357,449.2z"/>
	<path id="XMLID_326_" class="st4" d="M6357-33.7c-0.1-40.5,32.6-73.1,73.2-72.9c40.1,0.2,72.3,33,72,73.2
		c-0.3,40.6-32.3,72.4-72.7,72.3C6389.2,38.8,6357,6.5,6357-33.7z"/>
	<path id="XMLID_321_" class="st4" d="M6792-82c-40.4,0-72.7-32-72.9-72.2c-0.2-40.2,32.9-73.3,73.2-73
		c40.4,0.3,72.4,32.5,72.3,72.8C6864.5-114,6832.5-82.1,6792-82z"/>
	<path id="XMLID_320_" class="st4" d="M6864.5,84c1.5,41-29.8,74.5-71.1,75.9c-39.2,1.3-73.1-31.2-74.2-71.2
		c-1.1-40.1,30.8-73.1,71.9-74.4C6829.6,13.1,6863,44.7,6864.5,84z"/>
	<path id="XMLID_319_" class="st4" d="M6791.7,400.7c-40.3,0-72.7-32.2-72.7-72.4c0-40.3,33.3-73.3,73.5-72.8
		c40.5,0.5,72.3,32.8,72.1,73.1C6864.4,369,6832.4,400.7,6791.7,400.7z"/>
	<path id="XMLID_316_" class="st4" d="M6911.7-348c41.1,0,73.5,31.8,73.7,72.5c0.2,40-32.4,72.7-72.5,72.8
		c-40.6,0.1-72.5-31.6-72.6-72.1C6840.2-315.9,6871.5-347.9,6911.7-348z"/>
	<path id="XMLID_314_" class="st4" d="M6502.2-517c0,40.2-32.2,72.6-72.4,72.8c-40,0.2-72.6-32.3-72.9-72.4
		c-0.2-40.6,32.1-73.1,72.9-73.1C6470.1-589.6,6502.1-557.4,6502.2-517z"/>
	<path id="XMLID_309_" class="st4" d="M6550.7-323.4c-40.3,0.4-73.1-32.5-73-73.1c0.1-40,32.9-72.8,72.7-72.7
		c40,0.1,72.5,32.7,72.5,72.8C6622.9-356.1,6590.9-323.9,6550.7-323.4z"/>
	<path id="XMLID_307_" class="st4" d="M6791.8-323.6c-40-0.1-72.7-32.7-72.7-72.7c-0.1-40.1,33.5-73.5,73.4-73
		c40.2,0.6,72.3,33.2,72.1,73.4C6864.4-355.7,6831.9-323.4,6791.8-323.6z"/>
	<path id="XMLID_304_" class="st4" d="M6719-637.8c0.1-40,32.8-72.7,72.7-72.8c40.1-0.1,72.6,32.2,72.8,72.5
		c0.3,40.4-31.6,72.6-72,72.7C6751.4-565.3,6718.9-597.4,6719-637.8z"/>
	<path id="XMLID_294_" class="st4" d="M6622.8,81.9c2.1,41.9-28,75.3-70,77.9c-38.4,2.4-73.4-29.8-75.1-69.2
		c-1.8-41.1,28.8-74.1,70.5-76.3C6586.2,12.4,6620.9,43.8,6622.8,81.9z"/>
	<path id="XMLID_292_" class="st4" d="M6840.2-31.8c-0.3-41.9,31.4-74.7,72.2-74.7c40,0,72.8,32.7,73,72.7
		c0.2,39.9-32.4,72.6-72.7,72.8C6873.3,39.1,6840.7,7.3,6840.2-31.8z"/>
	<path id="XMLID_291_" class="st4" d="M6912.1,376.2c40-0.2,72.7,32.1,73.3,72.4c0.6,40-32.7,73.3-73.3,73.1
		c-40-0.2-71.7-32.1-71.8-72.3C6840.2,408.7,6872,376.4,6912.1,376.2z"/>
	<path id="XMLID_288_" class="st4" d="M6985.5-517.1c0,39.9-32.7,72.7-72.8,72.9c-40.1,0.2-72.4-32.3-72.4-72.8
		c0-40.7,31.7-72.7,72.2-72.7C6952.7-589.6,6985.4-557,6985.5-517.1z"/>
	<path id="XMLID_286_" class="st4" d="M6477.8-637.3c-0.1-40.3,32.1-73,72.2-73.3c40-0.4,72.9,32.3,73,72.4
		c0.1,40.7-31.7,72.7-72.2,72.8C6509.9-565.4,6477.9-596.9,6477.8-637.3z"/>
	<path id="XMLID_285_" class="st4" d="M6356.9,207.5c0.1-40.2,32.5-72.4,72.8-72.4c40.3,0,72.5,32.3,72.4,72.6
		c-0.1,40.5-32,72.3-72.6,72.3C6389.2,279.9,6356.9,247.7,6356.9,207.5z"/>
	<path id="XMLID_284_" class="st4" d="M6502.2-757.9c-0.3,40-32.3,72.1-72.1,72.2c-40.4,0.1-72.9-31.9-73.2-72.1
		c-0.3-40.3,32-72.9,72.2-72.9C6470.3-830.8,6502.4-798.8,6502.2-757.9z"/>
	<path id="XMLID_283_" class="st4" d="M6912.1,135.1c40.7,0,73.8,33,73.3,73c-0.5,39.9-32.7,71.9-72.4,72
		c-40.7,0.1-72.6-31.6-72.7-72C6840.2,167.3,6871.9,135.1,6912.1,135.1z"/>
	<path id="XMLID_282_" class="st4" d="M6911.1-830.8c41.7-0.1,74.7,32.2,74.3,72.7c-0.4,40.2-32.9,72.3-73.1,72.3
		c-39.8,0-71.9-32.1-72-72C6840.2-798.4,6871.5-830.6,6911.1-830.8z"/>
</g>
<g>
	<ellipse class="st1" cx="5942.2" cy="1081.4" rx="427" ry="99.5"/>
	<rect x="5793.8" y="589.9" class="st7" width="296.9" height="491.4"/>
	<polygon class="st3" points="5594.7,-297.4 5671.4,-352.5 5464.1,60.3 5586.4,-34 5385.3,347.9 5515.2,242.9 5255.3,657.2 
		5386.1,625.4 5174.8,1013.7 5942.2,703.2 6718.9,1007.1 6464.4,625.4 6614.6,710.2 6390.1,301.4 6517.4,402.6 6305.2,11.6 
		6432.5,105.7 6241,-318.6 6327.6,-265.5 5943.2,-1167.7 	"/>
</g>
<g>
	<path class="st8" d="M6984.4-1595.9c-8.4,71.3,129.9,77.3,156.7,170.3s-52.3,177.3-52.3,177.3
		C6897.2-1314.3,6984.4-1595.9,6984.4-1595.9z"/>
	<path class="st9" d="M6805.7-1188.7c6.4,9.4,29.9,13.3,54.7,14.8c-18.9,1.9-33.1,5.8-27.9,13.1c10.4,15,66.8-3.9,87.9-11.7
		c5.3,4.2,11.1,8,17.4,11.3l1.9,38.5l16.6-30.2c2.4,0.9,4.8,1.7,7.2,2.5l2,39.9l19-34.4c51.3,10,92.9-8.6,116.5-27
		c55.7-43.4,100.9-131.9,101.4-132l8,1.4c14.2,3.4,26.3-13.1,29.8-27.5c5-20.2-8.3-40.8-29.7-46.1c-14.3-3.5-28.5,0.7-37.9,10
		c-9.1,2.4-43.5,69-68.6,51.8c-28.1-19.2-153.3-31.5-203.4,63.9c-14.5,27.6-7.8,51.3,11.5,70.2
		C6874.7-1189.1,6793.6-1206,6805.7-1188.7z"/>
	<polygon class="st6" points="6919.8,-1116.8 6934,-1115.2 6940.3,-1104 6943.4,-1113.5 6954.9,-1106.3 6940.8,-1126.1 	"/>
	<path class="st9" d="M6852.8-1490.9c29.9,65.3,151.1-1.6,222.5,64c71.4,65.6,47.5,178.6,47.5,178.6
		C6924.9-1205,6852.9-1490.8,6852.8-1490.9z"/>
	<path class="st7" d="M7230.4-1313.3l47.6,17.1l-28.3-20.7l40.5,13.7c1.2-11-65.5-72.1-55.9-56.6
		C7252.7-1330,7230.4-1313.3,7230.4-1313.3z"/>
	<circle class="st7" cx="7209" cy="-1354.1" r="5.6"/>
	<polygon class="st6" points="6943.8,-1096 6960.5,-1097.1 6959.6,-1081.9 6968.6,-1090.9 6987.8,-1074.8 6963.9,-1110.8 	"/>
</g>
<g>
	<path class="st10" d="M9239-1799.9c16.2,78,164,35.8,225,124.3c61,88.6,7.2,205.1,7.2,205.1C9246.1-1472.7,9239-1800,9239-1799.9z"
		/>
	<path class="st11" d="M9127.3-1493.2c4.4,11.9,28.7,22.3,55,30.5c-20.9-3-37.2-2.6-33.6,6.7c7.2,19,73.1,13.7,97.9,10.9
		c4.6,5.9,9.8,11.5,15.7,16.8l-8.2,42l25.9-28.1c2.3,1.6,4.7,3.1,7.1,4.7l-8.5,43.5l29.7-32c52.6,24.4,102.5,15.5,132.8,2
		c71.6-31.9,144-115.2,144.5-115.2l8.2,3.7c14.4,7.5,31.8-7.1,39.5-21.7c10.8-20.4,1.9-46.3-19.7-57.6c-14.5-7.6-30.9-6.8-43.6,0.6
		c-10.5,0.1-65.3,62.8-87.7,37.5c-25.1-28.2-156.9-74.9-236.3,14.5c-23,25.9-22.1,53.2-6.3,78.7
		C9201.8-1475.2,9118.9-1515.1,9127.3-1493.2z"/>
	<polygon class="st6" points="9231.1,-1385.3 9246,-1379.7 9249.7,-1366 9255.7,-1375.4 9266.2,-1364.6 9256.2,-1389.6 	"/>
	<path class="st11" d="M9137.3-1643.2c54.5,58.3,158.7-54.8,256.9-10.8c98.2,44,112.9,171.5,112.9,171.5
		C9313.7-1367.2,9137.3-1643,9137.3-1643.2z"/>
	<path class="st7" d="M9618.6-1513.3l47.5,30.1l-25.6-29.2l40.6,24.6c4-11.7-53.5-94-46.9-74.9
		C9646.9-1525.9,9618.6-1513.3,9618.6-1513.3z"/>
	<circle class="st7" cx="9606.2" cy="-1563.9" r="6.2"/>
	<polygon class="st6" points="9251.4,-1356.4 9269.8,-1353.1 9264.7,-1337 9276.8,-1344.3 9293.2,-1321.8 9277,-1367 	"/>
</g>
<path class="st12" d="M6983.6,444.9l-42.8,214c0,0,35,21.6,195.1-139.1c0,0,6.6-102.4,45.8-117.7c0,0,23.1-15.2,10.9,78.4l117-78.4
	c0,0,118.6,128.8-141.8,331.4c0,0-162.4,140-268.2,159.9"/>
<g>
	<g>
		<path class="st1" d="M6568.2,1301.4c4,173,425.7,400.3,1123,400.3c452,0,1108.2-27.1,1108.2-98.7s-783.5-198.4-1235.5-198.4
			S6566.6,1229.8,6568.2,1301.4z"/>
		<path class="st13" d="M7691.2,954c0,0,0,541.3-555.9,517.6s-721.9-208.9-680.4-641s302.9-717,406.6-712.2
			C6965.2,123,7691.2,640.6,7691.2,954z"/>
		<path class="st14" d="M6798.7,1197.6c0,0-238.1-26.7-219.6-340.9c18.4-314.2,179.4-701.1,296.8-686.2s495.4,311.2,606.1,610.7
			s-238.6,405.4-238.6,405.4L6798.7,1197.6z"/>
		<g>
			<path class="st15" d="M8189.1,1470.9l-551.2-513c0,0-513.5,169-586.7,168.8c-73.1-0.2-5.1-405,111.9-440.8
				c116.9-35.8,670.5-62,723,0s534.5,524.9,534.5,524.9L8189.1,1470.9z"/>
			<path class="st16" d="M7509.8,368c0,0,140.6,235.4,382.7,302.6c0,0,80.7,2.2,96.4-35.9s47.1,35.9,0,58.3s-47.1,0-47.1,0
				s143.5,38.1,143.5,67.2s-89.7,96.4-145.7,85.2c-56-11.2-433.1-149.5-585.6-369.5L7509.8,368z"/>
			<path class="st17" d="M7070.1,256.4c0,0,71.6,131.2,116.9,0c0,0,123.4-11.1,197.3,26.5c74,37.6,179.7,154.8,179.7,154.8
				s-119.3,97.8-128.8,128.8l-81.2-90.6l38.2,143.2l-570.3,322.6c0,0,28.3-361.7,82-474.1c20.1-42.1-150.2-59-176.4,14.9
				c0,0,46.7-209.4,130.2-209.4S7070.1,256.4,7070.1,256.4z"/>
			<path class="st15" d="M7647.5,1404.5h-348.4v-322.1c0,0-288.7,178.9-381.8,64.4c-93.1-114.5-95.4-205.2-95.4-205.2l236.2-171.8
				c0,0,489.1-293.5,548.8-121.7C7666.6,820,7647.5,1404.5,7647.5,1404.5z"/>
			<path class="st4" d="M7971.5,1658.9c0,0-62.7-122.6-114.4-119.9c-51.8,2.7-168.9,0-168.9,0l-76.3-68.1h-280.6v188h114.4
				c0,0,13.6-51.8,38.1-49c24.5,2.7,35.4,49,35.4,49H7971.5z"/>
			<path class="st4" d="M8834.8,1128c0,0-133-35.7-165.6,4.6c-32.6,40.3-113.2,125.3-113.2,125.3l-101.6,11l-188.1,208.2l139.5,126
				l76.7-84.9c0,0-29.3-44.8-10.8-61.2c18.5-16.4,60.1,6.6,60.1,6.6L8834.8,1128z"/>
			<path class="st16" d="M7236.2,402.2c0,0-101.8,74.1-117,78.4c0,0,13.1-79.4-10.9-78.4c-30.8,1.2-45.8,117.7-45.8,117.7
				S6893.1,689.3,6867.4,659c0,0,14.3-71.6,42.8-214c0,0-136.7-78.1-177.5,16.8c-41.4,96.2-169.1,420.2-5.2,439.5
				c185.2,21.7,424.3-211.4,483.1-285.4C7269.5,541.7,7279.1,461.1,7236.2,402.2z"/>
			<path class="st16" d="M7070,105.5c0-48,20.5-132.8,122.7-132.8c102.2,0,86,94.8,82.8,146.6c-4,63.1-44.5,94.6-88.6,98.3v40.8
				c0,0-5.7,58.2-55.6,57.9c-29.5-0.1-61.4-57.9-61.4-57.9c15.7-15.8,18-63.4,18.2-88.3C7076.9,152.9,7070,131.3,7070,105.5z"/>
			<polygon class="st18" points="7680.9,299.4 7650.4,592.6 7266.5,616.9 7284.7,299.4 			"/>
			<polygon class="st10" points="7650.4,592.6 7647.5,616.9 7262.7,643.1 7266.5,616.9 			"/>
			<polygon class="st10" points="7266.5,616.9 7171,660.5 7171,677.2 7262.7,643.1 			"/>
			<polygon class="st7" points="7171,677.2 7252.1,669.4 7317,641.1 7262.7,643.1 			"/>
			<polygon class="st7" points="7647.5,616.9 7606.9,648.2 7590.5,620.8 			"/>
			<polygon class="st7" points="7608.4,1406.5 7611.9,1470.9 7331.3,1470.9 7331.3,1406.5 			"/>
			<polygon class="st7" points="8454.3,1268.8 8396.2,1244.5 8219.8,1442.6 8266.2,1477 			"/>
		</g>
		<circle class="st7" cx="7263.5" cy="80.4" r="8.9"/>
		<circle class="st7" cx="7180.4" cy="79.4" r="8.9"/>
		<path class="st12" d="M7234.6,132.6c22.9,0,5.9-29.1,5.9-29.1s-30.1-58.1,40.9-40.4"/>
		<path class="st12" d="M7159.5,62.4c0,0,23.2-12.6,36.1,1.3"/>
		<path class="st7" d="M7088.2,170.1c0,0,37,52.4,98.7,47.5v26.9C7186.9,244.6,7102.5,236.8,7088.2,170.1z"/>
		<path class="st12" d="M7114,70.1c0,0,2-17.1-12.9-15.5s-9.9,31.2-1.2,51.2"/>
		<path class="st12" d="M7236.2,170.1c0,0-6.8,17.6-20.2,2.2"/>
		<path class="st7" d="M7071,87.3c0,0-16.9-151.1,107.4-138c124.3,13,106.1,103.6,106.1,103.6l-6.1,34.5c0,0,6.1-85.8-76.6-83.7
			c-65.3,1.6-70,72.9-70,72.9h-9.3c0,0-3.4-35.5-26.1-32.7C7073.7,46.5,7071,87.3,7071,87.3z"/>
		<path class="st2" d="M7261.5-36.3c0,0,165,47.8,104.2,71.9c-60.8,24.1-229.4-35.1-229.4-35.1L7261.5-36.3z"/>
		<path class="st19" d="M7136.3,0.5l-48-16.7c0,0-4.8-80.6,77.7-80.6s95.5,60.5,95.5,60.5L7136.3,0.5z"/>
		<path class="st12" d="M6749.9,903.1c0,0-6.2-40.2-35.3-56.4c-29.2-16.2-61.9-10.1-61.9-10.1"/>
		<path class="st12" d="M7619,703.3c0,0,192.3,96.5,275.6,128.7s127.7-7.2,127.7-7.2l-78.7-29.5"/>
		<line class="st20" x1="8075.7" y1="781.2" x2="7975.8" y2="742.1"/>
		<line class="st20" x1="8051.9" y1="804.7" x2="7957.6" y2="769.2"/>
		<line class="st12" x1="7250.4" y1="425.1" x2="7159.5" y2="498.4"/>
		<line class="st12" x1="7260.6" y1="452.6" x2="7182.8" y2="524.2"/>
		<line class="st12" x1="7262.7" y1="495.4" x2="7205" y2="548.1"/>
	</g>
	<path class="st14" d="M7243.3,1186.5c0,0-303.2,0.2-444.6,11.1C6798.7,1197.6,7067.6,1340.2,7243.3,1186.5z"/>
</g>
<path class="st1" d="M12261.8,1071.1c0,54.9-394.6,99.5-881.4,99.5c-486.8,0-881.4-44.5-881.4-99.5s394.6-77.4,881.4-77.4
	C11867.2,993.8,12261.8,1016.2,12261.8,1071.1z"/>
<circle class="st19" cx="6238.7" cy="-1500.7" r="244.8"/>
<ellipse class="st1" cx="10500.7" cy="1658.9" rx="580.9" ry="65.3"/>
<path class="st12" d="M10209.7,17.1c0,0,77.8,54.4,102.1,61.6"/>
<polygon class="st4" points="8626.7,-44.9 8170.7,-34.2 8171.5,-1.2 8627.4,-15.2 "/>
<rect x="8260.4" y="36.3" transform="matrix(-0.9997 2.344341e-02 -2.344341e-02 -0.9997 16887.9668 -98.7564)" class="st4" width="368.3" height="26.7"/>
<polygon class="st6" points="8630.2,104.1 8213.3,113.8 8214.1,146.8 8630.9,133.8 "/>
<polygon class="st4" points="9711.7,85.1 9589.1,65.7 9527,-13.4 9505,65.9 9471.8,-34.3 9444.9,70.4 9319.6,-190.4 9268.6,-57.5 
	9087.7,-208.8 8932.7,-109.7 8789.9,-258.5 8794.4,145.3 9795.3,137.4 "/>
<polygon class="st6" points="9629.2,139.5 9565.2,91.6 9414.4,131.3 9150.4,-70 9064.5,63.6 8791.7,-90.1 8794.9,189 9795.7,176.8 
	"/>
<rect x="9404.5" y="-702.7" transform="matrix(-0.9999 1.115095e-02 -1.115095e-02 -0.9999 19021.4277 -1117.5192)" class="st14" width="218.6" height="393.9"/>
<rect x="9099.3" y="-790.8" transform="matrix(-0.9999 1.115095e-02 -1.115095e-02 -0.9999 18410.5977 -1198.8108)" class="st4" width="218.6" height="485.4"/>
<rect x="8786.5" y="-666.5" transform="matrix(-0.9999 1.115095e-02 -1.115095e-02 -0.9999 17785.5508 -1067.6305)" class="st13" width="218.6" height="364.5"/>
<path id="XMLID_317_" class="st13" d="M11130.4-1503.7c57.3-88,110.5-20.7,110.5-20.7c47.1-123.9,134.5-50.8,134.5-50.8
	s21.8-206.2,224.1-206.2c214,0,248,140.5,248,140.5s4-80.7,104.6-80.7c100.6,0,119.5,143.4,119.5,143.4s-0.8-41.8,95.6-41.8
	s185.3,119.3,185.3,119.3L11130.4-1503.7z"/>
<g>
	<path class="st15" d="M6320.8,1520c0,0-112.3-94.3-74.2-234c38.1-139.8,91.9-88,76.5-31.2C6295.6,1356.5,6243.3,1354.5,6320.8,1520
		z"/>
	<ellipse class="st1" cx="6492.3" cy="1593.7" rx="253.6" ry="68"/>
	<path class="st15" d="M6625.4,1257.8c0,0,146.7,307.9-61.2,331.5s-401.3-38.6-153.2-451.3L6625.4,1257.8z"/>
	<path class="st15" d="M6404.4,1160.4l30-142.5c0,0,89.5,120.9,92,120.9c5.7,0,78.6-125.2,78.6-125.2l48,155.3l0,0
		c6.4,12.8,9.9,26.7,9.9,41.3c0,61-61.1,110.5-136.5,110.5s-136.5-49.5-136.5-110.5C6389.8,1192.3,6395.1,1175.4,6404.4,1160.4z"/>
	<path class="st7" d="M6558.8,1214.8c0,0-14.2,21-20.1,18c-5.9-3-19.4-18-19.4-18H6558.8z"/>
	<circle class="st7" cx="6615.5" cy="1187.2" r="7.9"/>
	<circle class="st7" cx="6457.9" cy="1187.2" r="10"/>
	<polygon class="st7" points="6483.9,1142.3 6438.8,1142.3 6447.9,1090.6 	"/>
	<polygon class="st7" points="6620.5,1142.3 6572.3,1142.3 6601.5,1090.6 	"/>
	<path class="st21" d="M6347.5,1504.5c0,0-33.2,43.5-35.2,61.4s89.8,79.3,109.8,52.8c19.9-26.4-37.6-59.9-37.6-59.9
		s134.8-126.8-7.7-154.3"/>
	<path class="st21" d="M6435.1,1380.4c0,0-23.3,176.5,0,214.5c23.3,37.9,50.8,11.9,50.8,11.9l18.3-222.2"/>
	<path class="st21" d="M6657,1536.7c0,0,57.5,33.5,37.6,59.9s-111.8-34.9-109.8-52.8c2.1-17.9,35.2-61.4,35.2-61.4"/>
	<path class="st21" d="M6639.3,1371.8c0,0,23.3,176.5,0,214.5c-23.3,37.9-50.8,11.9-50.8,11.9l-19.3-222.2"/>
</g>
<path id="XMLID_338_" class="st5" d="M11256.7-888.4c83.4-36,108.9,27,108.9,27C11287-827.4,11256.7-888.4,11256.7-888.4z"/>
<path id="XMLID_337_" class="st5" d="M11059-1291c84.5,33.3,58.1,96,58.1,96C11037.5-1226.4,11059-1291,11059-1291z"/>
<path id="XMLID_331_" class="st5" d="M10886.7-1370.4c-11.2,112-94.8,101.6-94.8,101.6
	C10802.4-1374.2,10886.7-1370.4,10886.7-1370.4z"/>
<path id="XMLID_330_" class="st5" d="M10795.6-954.9c58.9-69,109.6-23.6,109.6-23.6C10849.5-913.4,10795.5-954.9,10795.6-954.9z"/>
<path id="XMLID_382_" class="st5" d="M13579.2-32c-41-81.1,20.4-110.3,20.4-110.3C13638.3-65.9,13579.2-32,13579.2-32z"/>
<path id="XMLID_381_" class="st5" d="M13189.3,189.6c28.1-86.3,92.3-63.8,92.3-63.8C13255.1,207.2,13189.3,189.6,13189.3,189.6z"/>
<path id="XMLID_361_" class="st5" d="M13120.4,366.3c112.5,4.4,107.2,88.5,107.2,88.5C13121.7,450.8,13120.4,366.3,13120.4,366.3z"
	/>
<path id="XMLID_349_" class="st5" d="M13791.9,640.6c-72.4-54.7-30.2-108-30.2-108C13830,584.2,13791.9,640.7,13791.9,640.6z"/>
<path id="XMLID_386_" class="st1" d="M11079.8,1100.4l545.4-0.6c0,0,40.7,7,20.7-69.4s-79.7-14.3-79.7-14.3
	c-44.5-118.9-86.2-25.4-86.2-25.4c-92.2-274.5-152.1-44.7-181.9,1.3c-6.2-26.4-23.6-45.4-44.1-45.4c-20.1,0-37.3,18.4-43.8,44
	c-4.4-2.8-9.5-4.4-14.9-4.4c-18.1,0-32.8,17.7-32.8,39.7c0,3.8,0.4,7.5,1.3,11c-2.6-0.7-5.3-1-8.2-1c-16.7,0-30.3,12.6-31,28.4
	C11097.8,1084.1,11079.8,1100.4,11079.8,1100.4z"/>
<g>
	<path class="st3" d="M10766.5,423.8c107.1,66,255.3,107,419.2,107c147.1,0,281.8-33,385.3-87.7c97.3,90.9,242.1,148.5,403.7,148.5
		c293.2,0,530.7-189.6,530.7-423.2c0-183.2-146-339.3-350.3-398.1c0.1-3.3,0.1-6.6,0.1-9.9c0-148-95.3-278.3-239.8-354
		c0.9-9.8,1.2-19.4,1.2-29.3c0-233.8-237.7-423.2-530.7-423.2c-258.9,0-474.6,147.9-521.3,343.6
		c-180.4,56.1-312.2,235.3-312.2,447.7c0,2.5,0,4.9,0,7.4c-173,63.4-288.8,179.4-288.8,312.1
		C10263.6,246.6,10481.7,397.3,10766.5,423.8z"/>
	<line class="st22" x1="11385.8" y1="-688.8" x2="11388.6" y2="1038.4"/>
	<path class="st22" d="M12213.5-14.1c0,189.3-275.9,160.6-275.9,160.6s-231.8-31.5-219.4,256.8c12.6,288.3-332.5,250.8-332.5,250.8"
		/>
	<path class="st22" d="M10985-431.4c137.9,0,100.3,239.3,100.3,464.9c0,225.7,300.6,288.3,300.6,288.3"/>
	<path class="st22" d="M11731.9-813.8c-103.9,0-107.6,382.4-107.6,382.4c0,149.5-238.5,191.7-238.5,191.7"/>
	<path class="st22" d="M10859.5-93c175.5,0,227.6,157.5,227.6,157.5"/>
	<path class="st22" d="M11680-171.9c152.1,0,120.2,352.5,120.2,352.5"/>
	<path class="st22" d="M11227.2-392.2c-74.2,0-137.9,152.5-137.9,152.5"/>
	<path id="XMLID_315_" class="st5" d="M11687.1-4.3c83.4-36,108.9,27,108.9,27C11717.4,56.7,11687.1-4.3,11687.1-4.3z"/>
	<path id="XMLID_313_" class="st5" d="M11489.4-406.9c84.5,33.3,58.1,96,58.1,96C11467.8-342.3,11489.4-406.9,11489.4-406.9z"/>
	<path id="XMLID_312_" class="st5" d="M11490-624.9c145.2,6.8,137.6,115.3,137.6,115.3C11490.7-515.9,11490-624.9,11490-624.9z"/>
	<path id="XMLID_311_" class="st5" d="M11449.6-842.6c19.7,88.7-67.7,171.6-67.7,171.6C11363.2-754.6,11449.5-842.5,11449.6-842.6z"
		/>
	<path id="XMLID_310_" class="st5" d="M11292.1-642c90.8-1.5,90.3,66.5,90.3,66.5C11296.9-574.1,11292.1-642,11292.1-642z"/>
	<path id="XMLID_308_" class="st5" d="M11462-688.9c-23.4,70.4-70.7,53.3-70.7,53.3C11413.3-702,11462-688.9,11462-688.9z"/>
	<path id="XMLID_306_" class="st5" d="M11311.1-154c67.2-2.7,68.3,52.8,68.3,52.8C11316-98.6,11311.1-154,11311.1-154z"/>
	<path id="XMLID_305_" class="st5" d="M11390.7,53.2c60-30.4,84.1,19.6,84.1,19.6C11418,101.6,11390.6,53.2,11390.7,53.2z"/>
	<path id="XMLID_303_" class="st5" d="M11127.7-424.7c55.4-0.7,55,40.7,55,40.7C11130.6-383.3,11127.8-424.6,11127.7-424.7z"/>
	<path id="XMLID_302_" class="st5" d="M11326.6-692.7c55-5.5,58.3,35.8,58.3,35.8C11333-651.7,11326.6-692.7,11326.6-692.7z"/>
	<path id="XMLID_301_" class="st5" d="M11317.1-486.3c-11.2,112-94.8,101.6-94.8,101.6C11232.7-490.1,11317.1-486.3,11317.1-486.3z"
		/>
	<path id="XMLID_300_" class="st5" d="M10999.3-113.7c38.9,39.3,8.9,67.8,8.9,67.8C10971.4-83,10999.3-113.7,10999.3-113.7z"/>
	<path id="XMLID_299_" class="st5" d="M11292.3,72.6c90.7,4.4,85.9,72.2,85.9,72.2C11292.6,140.7,11292.3,72.6,11292.3,72.6z"/>
	<path id="XMLID_298_" class="st5" d="M11218.6,249.1c-47.8-77.2,10.8-111.7,10.8-111.7C11274.5,210.3,11218.6,249.1,11218.6,249.1z
		"/>
	<path id="XMLID_297_" class="st5" d="M11002.9,167.4c58.9-69,109.6-23.6,109.6-23.6C11056.8,208.9,11002.8,167.4,11002.9,167.4z"/>
	<path id="XMLID_296_" class="st23" d="M10984.1,45.6c88.1-22.2,103.2,44.1,103.2,44.1C11004.2,110.7,10984.1,45.6,10984.1,45.6z"/>
	<path id="XMLID_295_" class="st5" d="M11059-506.6c21.8,70.9-26.7,84.5-26.7,84.5C11011.7-489,11059-506.6,11059-506.6z"/>
	<path id="XMLID_293_" class="st5" d="M10962.1-482.6c46.8,29.6,23.8,64.1,23.8,64.1C10941.8-446.4,10962-482.6,10962.1-482.6z"/>
	<path id="XMLID_290_" class="st5" d="M11004.2-338.6c21.3-51.1,59.2-34.2,59.2-34.2C11043.2-324.7,11004.2-338.6,11004.2-338.6z"/>
	<path id="XMLID_289_" class="st5" d="M12287.7-34.6c-37.8,55.6-83.1,23.4-83.1,23.4C12240.3-63.6,12287.7-34.6,12287.7-34.6z"/>
	<path id="XMLID_287_" class="st5" d="M11510.6-66.6c-57.4,70.3-109.1,26.2-109.1,26.2C11455.5-106.8,11510.5-66.6,11510.6-66.6z"/>
	<path id="XMLID_318_" class="st5" d="M11837.4-216.4c16.4,105.1-62.6,115.7-62.6,115.7C11759.4-199.8,11837.4-216.4,11837.4-216.4z
		"/>
	<path id="XMLID_322_" class="st5" d="M11601.6-219.8c90.3-9.1,95.7,58.7,95.7,58.7C11612.1-152.5,11601.7-219.7,11601.6-219.8z"/>
	<path id="XMLID_323_" class="st5" d="M11740.1-685.3c-69.7,25.4-85.8-22.3-85.8-22.3C11720.1-731.6,11740.1-685.3,11740.1-685.3z"
		/>
	<path id="XMLID_324_" class="st5" d="M12162.6-79c68.5,28.4,48.1,74.4,48.1,74.4C12146-31.4,12162.6-79,12162.6-79z"/>
	<path id="XMLID_325_" class="st5" d="M12014,151.5c68.5,28.4,48.1,74.4,48.1,74.4C11997.4,199.2,12014,151.5,12014,151.5z"/>
	<path id="XMLID_328_" class="st5" d="M11672.8,243.2c68.5,28.4,48.1,74.4,48.1,74.4C11656.2,290.8,11672.8,243.2,11672.8,243.2z"/>
	<path id="XMLID_329_" class="st5" d="M11723.8,415.1c68.3-28.9,86.8,18,86.8,18C11746.1,460.4,11723.8,415.1,11723.8,415.1z"/>
</g>
<g>
	<g>
		<g>
			<g>
				<path class="st16" d="M10291.6-575.7c0,0-87.6,5.1-69.7-209.7c0,0,122.8-63.9,184.1,0c61.4,63.9-20.5,194.4-43.5,196.9"/>
				<path class="st7" d="M10175.9-767.5c0,0,51.7,28.2,176.7,17.8c22.5-1.9,57.1,58.5,27.3,94.9c-20.1,24.6-17.8,36.1-17.3,66.3
					c0.6,41.5,15.8,83,15.8,83s273.4,457.1,449.7,367c176.3-90.2,99.9-378.1-0.3-404.9c-100.2-26.8-65.6-165.9-103.1-230.1
					c-37.4-64.2-226.6-28.2-235.1-45.2c-8.5-16.9-86.1-100.9-178.6-88.9S10132.5-796.1,10175.9-767.5z"/>
				<path class="st24" d="M10820.4,178.3c0,0,19.6,348.6,156.7,575.8c0,0,148.9,391.7,105.8,579.8c0,0-137.1,121.4-262.5,23.5
					c0,0-253.6-405.6-372.1-728.6c0,0,180.2,442.7,54.8,787.4c0,0-207.6,62.7-254.6,0c0,0-325.1-1269.2-160.6-1570.8l-184.1-188
					c0,0,235-164.5,387.8-160.6c0,0,33.4,25.9,75.7-0.1c0,0,264.7-71.5,402.8,167.3l-208,146.5
					C10562-189.6,10818.8,15.4,10820.4,178.3z"/>
				<path class="st16" d="M10090.9-151.7c0,0-279.8,231.4-388.2,144.2c-108.4-87.3-51.8-599.8-51.8-599.8s-69.3-7.6-88.3-20
					c-46.2-30.3-57.7-183.5,27.4-154.5c57.2,19.5,110.3,73.7,144.9-21c4.8-13.1,44.5-71.9,39.2,23.3c-5.3,95.2,36.3,65.1,33.7,152.4
					c-2.6,87.3,3.7,321.9,24.9,321.9s74.1-34.4,74.1-34.4L10090.9-151.7z"/>
				<path class="st4" d="M11180.2,1509.6l-81.4,50.8c0,0-5.8-47.9-24.7-45c-18.9,2.9-77.8,123.6-77.8,123.6l-281.2,5.8v-32
					l55.2-35.6c0,0,85.8,2.2,131.6-35.6s173.6-163.5,173.6-163.5l56.8,10.9L11180.2,1509.6z"/>
				<path class="st4" d="M10589.8,1538.7l-81.4,50.8c0,0-5.8-47.9-24.7-45c-18.9,2.9-92.2,100.2-92.2,100.2h-282l-5-36.3l46.5-33.3
					c0,0,100.4,10,146.1-27.8c45.8-37.8,192.5-125.8,192.5-125.8l56.8,10.9L10589.8,1538.7z"/>
				<path class="st11" d="M10483.7,1421.5v22.5c0,0-128.2,149.4-231.4,129.3c0,0,45.9-43.9,40.1-75c-5.7-31.1-10-60.8-10-60.8
					S10368,1454.3,10483.7,1421.5z"/>
				<path class="st11" d="M11056.3,1353.4l34.4,44.2c0,0-140.1,180.1-188.8,161.4v-165.4
					C10901.8,1393.6,10955.5,1406.8,11056.3,1353.4z"/>
				<path class="st16" d="M10944.2,115.2c28.3-108.7-48.2-273.2-177.6-451.7l-208,146.5c0,0,129.1,141.7,125.9,194.1
					c0,0-75.8,156.2-234.7-40.8c0,0-38.8-25.6-34,22.1s9.4,55,9.4,55s-66.5-42-82.6-52.4c-37.1-23.9-63.1,144.1-12.8,181.9
					C10532.3,322.1,10898.4,290.7,10944.2,115.2z"/>
				<path class="st16" d="M10362.6-588.5l14.8,81.1c0,0-36.6,40.6-85.8,4.1v-72.4L10362.6-588.5z"/>
				<path class="st7" d="M10291.6-545.8v-29.9c0,0,46.8,0.5,71-12.8C10362.6-588.5,10307.3-547.6,10291.6-545.8z"/>
			</g>
			<circle class="st7" cx="10232.5" cy="-702.3" r="8.9"/>
			<circle class="st7" cx="10317.2" cy="-702.3" r="8.9"/>
			<path class="st12" d="M10269.3-646.1c-22.9,0-5.9-29.1-5.9-29.1"/>
			<path class="st12" d="M10298.2-723.3c16-16.7,35.9-4.3,35.9-4.3"/>
			<path class="st12" d="M10218.1-727.7c16.5-9.5,34.9,9.5,34.9,9.5"/>
			<path class="st12" d="M10272.1-616.3c11.1,15.3,18.1-3.6,18.1-3.6"/>
			<path class="st12" d="M9790.3,10.3c0,0-4.9-53.5-50.8-73.8s-74-2.6-74-2.6"/>
			<path class="st12" d="M10950.4,42.6c0,0-34.2,11.1-50.3,69.7s13.1,62.4,13.1,62.4"/>
		</g>
		<line class="st12" x1="10413" y1="83.2" x2="10313.1" y2="17.1"/>
		<path class="st12" d="M10400,122.2c-52.9-22.6-98.8-62.6-98.8-62.6"/>
		<path class="st12" d="M10386,160.9c-46.8-15.8-83-52.6-83-52.6"/>
	</g>
	<path class="st12" d="M9536-762.7c0,0,41.7,22.7,103.2,39.3"/>
	<path class="st12" d="M9527-721.9c0,0,43.7,20.7,105.2,37.2"/>
	<path class="st12" d="M9531.5-678.3c0,0,35.7,17.6,97.2,34.2"/>
</g>
<g>
	<ellipse class="st1" cx="12766.5" cy="1051.2" rx="427" ry="99.5"/>
	<g>
		<g>
			<path class="st7" d="M11881.3-1028.1l-234.1,66.3c0,0-4.4,125.9,197,100.5c201.4-25.3,248.2-63.4,248.2-63.4L11881.3-1028.1z"/>
			<polygon class="st14" points="11999.3,-970.3 12005.7,-997.5 12038.5,-975.8 12005.7,-943.1 			"/>
			<polygon class="st14" points="11911.1,-1053.4 11911.1,-1022.6 11934.8,-1011 11944.2,-1043.1 			"/>
		</g>
		<g>
			<path class="st14" d="M12595.4,744.9l-0.9,169.1c-52.9,6-89.8,54-89.8,104.9c0,50.1,249.5-12,249.5-12V743.2
				C12656.2,797.6,12595.3,744.9,12595.4,744.9z"/>
			<path class="st7" d="M12604.8,764.2c58.7,60.1,150.2-21,150.2-21S12546.1,704,12604.8,764.2z"/>
			<path class="st6" d="M12754.1,987.7v19.2c-249.2,60.3-249.8,15.9-249.8,15.9l0.9-14.7c31.3,36.3,249-20.4,249-20.4H12754.1z"/>
			<path class="st4" d="M12715.9,663.7h-95.9v76.4c0,60.2,95.9,12.7,95.9,12.7v-62.5V663.7z"/>
			<path class="st7" d="M12619.5,703.4v24.3c51.5,12.8,97.1-29.6,97.1-29.6C12654.6,714.2,12619.5,703.4,12619.5,703.4z"/>
			<path class="st14" d="M12847.3,755l-0.9,169.1c-52.9,6-89.8,54-89.8,104.9c0,50.1,249.5-12,249.5-12V753.3
				C12908.2,807.6,12847.2,755,12847.3,755z"/>
			<path class="st7" d="M12856.8,774.3c58.7,60.1,150.2-21,150.2-21S12798,714.1,12856.8,774.3z"/>
			<path id="XMLID_2_" class="st16" d="M12584.7-1062.7c0,0-262-96.2-356.1-142.3c-94-46.2-224.4-45.8-290.1,1.4
				c-65.7,47.3-56.2,115.1-36.5,115.1c19.8,0.1,100.5-35.2,128.5-25.3s-23.7,9.1-41.2,35.1c-17.5,26.1,12.1,22.9,12.1,22.9
				c63.3-29.1,141-1.6,141-1.6l447.2,222.8C12580.7-953.1,12584.7-1062.7,12584.7-1062.7z"/>
			<path class="st7" d="M12727-1249c-61.1,199.6,23.3,186.1,23.3,186.1C12805.5-1264.1,12727.1-1249,12727-1249z"/>
			<path class="st7" d="M12783.4-1308.3c-53-84.1,142.1-174.3,197.9-52.5c55.7,121.7-103.1,104.2-103.1,104.2
				S12836.4-1224.2,12783.4-1308.3z"/>
			<g>
				<path class="st4" d="M12974,673.9h-95.9v76.4c0,60.2,95.9,12.7,95.9,12.7v-62.5V673.9z"/>
				<path class="st3" d="M12771.9-986.2l-237.9-96.5c-42.4-3.6-59.6,189.5-59.6,189.5c63.8,39.4,159.3,76,159.3,76
					s-84.2,365.4-84.2,483.7c0,118.3,513.6-1.7,513.6-1.7l-63.7-351.6l178.2-96.6c0,0-50.2-151.7-110.5-174
					c-60.4-22.3-196.9-25.2-196.9-25.2L12771.9-986.2z"/>
				<path class="st6" d="M12923.4-986.1c-12.1,158.8,10.3,377.2-20.5,440.7c-26.5,54.8-265.8,68.1-258.5,7.1
					c2-280,59.5-404.7,125.7-449.6l-32.4-16.5c-121.8,83.5-172.7,530.5-172.7,530.5c-66.4,245.7-5.1,1127.9,6,1160.3
					c11.2,32.4,176.8,21.4,200.6-15.1c32.9-50.7,22.2-615.2,22.2-615.2s10.5,567.6,32.1,638.7c52.8,61.7,203.4,31,216.2-21.8
					c38.2-158.4,21.2-1014.5,21.2-1014.5l-63,9l-36.1-650.4L12923.4-986.1z"/>
				<path class="st10" d="M12920.9-190.4c0,0-204.6,76-322.4-8.6c0,0,15.3-286.1,38.9-277.9c117.4,40.4,280.4,9.2,280.4,9.2
					S12945-257.8,12920.9-190.4z"/>
				<path class="st16" d="M12788.4-974.9c15.1-27.1,3-48.9,3-48.9c-71-4.5-82.7-206.6-0.8-215.7c81.9-9.1,118.5,38.4,129.3,101.7
					c10.8,63.3-21.6,78.1-24.1,100.7c-2.5,22.6,9.2,62.2,9.2,62.2C12861.8-882.1,12773.5-947.8,12788.4-974.9z"/>
			</g>
			<path class="st7" d="M12878.3,724.9l-0.1,25.6c42.2,20.2,98-28.9,98-28.9C12905.3,738.6,12878.2,724.9,12878.3,724.9z"/>
			<path class="st7" d="M12938.1-1327c148.6,20.6,91.2,306.8-11.4,297.1c-102.6-9.8-45-200.2-45-200.2S12789.6-1347.8,12938.1-1327z
				"/>
			<path class="st7" d="M12696.8-1246.6c8.1,74.1,238.3,19.7,238.3,19.7C12897.3-1346.7,12688.7-1320.7,12696.8-1246.6z"/>
			<path id="XMLID_35_" class="st16" d="M13177.6-783.1c98.8,301.4,52.4,725.1-18.4,765.7c-83.9,48.1-165.2,23.6-165.2,23.6
				s138.7-214.5,81.6-163.7c-57,50.8-67.6,33.9-67.6,33.9s-17.7-14,19.9-91.6c30.8-63.6,4.4-308.3-31.5-471.4L13177.6-783.1z"/>
			<path class="st7" d="M12793.3-985.4c6.2-18.5-1.7-38.4-1.7-38.4c34.1,8.1,90.2-26.8,90.2-26.8S12787-966.7,12793.3-985.4z"/>
			<circle class="st7" cx="12752" cy="-1149.2" r="8.9"/>
			<circle class="st7" cx="12836.6" cy="-1149.2" r="8.9"/>
			<path class="st12" d="M12788.7-1093c-22.9,0-5.9-29.1-5.9-29.1"/>
			<path class="st12" d="M12817.6-1170.2c16-16.7,35.9-4.3,35.9-4.3"/>
			<path class="st12" d="M12737.5-1174.6c16.5-9.5,34.9,9.5,34.9,9.5"/>
			<path class="st12" d="M12791.5-1063.2c11.1,15.3,18.1-3.6,18.1-3.6"/>
			<path class="st6" d="M13005.9,997.8v19.2c-249.2,60.3-249.8,15.9-249.8,15.9l0.9-14.7C12788.3,1054.5,13006,997.8,13005.9,997.8
				L13005.9,997.8z"/>
			<path class="st16" d="M12996.5-686.5"/>
			<path class="st12" d="M13087.8-165.2c-99.4,79.8-102.3,45.7-56.6-61.4c32.2-75.4-15.5-352.6-34.7-460"/>
			<path id="XMLID_41_" class="st12" d="M13034.6,12.8c27.3-17.1,61.9-80.8,61.9-80.8"/>
			<path id="XMLID_40_" class="st12" d="M13081.2,9.2c22.7-7.8,53.4-75.1,53.4-75.1"/>
			<path id="XMLID_1_" class="st12" d="M13128.9-2.5c16.9-10,41.2-70.3,41.2-70.3"/>
			<path id="XMLID_55_" class="st25" d="M12052-1159c-64-14.2-163.7,33.1-163.7,33.1"/>
			<path id="XMLID_43_" class="st25" d="M12058.2-1191.7c-45.7-17-158.5,28-158.5,28"/>
			<path id="XMLID_42_" class="st25" d="M12060.9-1223.4c-42.2-9.7-131.1,25.9-131.1,25.9"/>
			<path id="XMLID_60_" class="st26" d="M13229-527.1c0,0-81.8,31.1-90.3-67.5c-8.6-98.6,61.8-101.6,61.8-101.6"/>
		</g>
		<path class="st1" d="M11647.2-961.8l-0.7,103.7c112,171.6,445.9,23.4,445.9,23.4v-90C11702.6-770.4,11647.2-961.8,11647.2-961.8z"
			/>
		<path class="st10" d="M11854.1-896c-83.7,0.1-143.4-69.5-143.4-69.5l165.8-34l134.8,70.5C12011.2-929,11887.7-896,11854.1-896z"/>
	</g>
</g>
<g>
	<path class="st10" d="M11407.7-1091.6c79.2,9.2,85.6-144.3,188.9-174.3c103.3-30,197,57.8,197,57.8
		C11720.6-995.3,11407.7-1091.6,11407.7-1091.6z"/>
	<path class="st11" d="M11451.7-1003.1c9.6,8.4,35.8,6.4,63,1.4c-19.8,7.1-34,15-26.6,21.6c15.2,13.5,71-21.9,91.7-35.9
		c6.7,3,14.1,5.5,21.7,7.5l12.3,41l10-36.9c2.8,0.3,5.6,0.6,8.5,0.8l12.7,42.4l11.4-42.1c58-2.9,138.6-41.9,148.5-98.9
		c24.6-142.2,52.9-130.8,53.4-131l0,0c16.2,0,24.8-21.1,24.8-37.6c0-23.1-19.8-41.8-44.3-41.8c-16.3,0-30.6,8.3-38.2,20.8
		c-9.3,4.9-28.5,85.9-60.2,74c-35.4-13.3-173.7,6.6-202.5,122.8c-8.3,33.6,5.2,57.3,31,72.6
		C11526.4-1021.9,11434.6-1018.7,11451.7-1003.1z"/>
	<polygon class="st6" points="11599.6,-946.4 11614,-953.2 11626.4,-946.4 11623.8,-957.1 11638.9,-957.1 11614,-967.5 	"/>
	<path class="st11" d="M11431.8-1027.3c79.7-3.3,62-156,159.3-201.8c97.4-45.8,203.6,26.3,203.6,26.3
		C11756-981.2,11431.8-1027.4,11431.8-1027.3z"/>
	<path class="st7" d="M11877-1250.2l55.9,5.8l-35.9-14.8l47.3,4c-1.6-12.1-89.6-60.4-75.2-46.2
		C11896.8-1274,11877.1-1250.2,11877-1250.2z"/>
	<circle class="st7" cx="11843.2" cy="-1288.6" r="6.2"/>
	<polygon class="st6" points="11635,-935.5 11650.1,-946.4 11658.1,-931.6 11661.2,-945.4 11688.8,-941.4 11645.2,-961.2 	"/>
</g>
</svg>
