<?xml version="1.0" encoding="utf-8"?>
<!-- Generator: Adobe Illustrator 19.0.0, SVG Export Plug-In . SVG Version: 6.00 Build 0)  -->
<svg version="1.1" id="Warstwa_1" xmlns="http://www.w3.org/2000/svg" xmlns:xlink="http://www.w3.org/1999/xlink" x="0px" y="0px"
	 viewBox="4663 -2022 10125 4644" style="enable-background:new 4663 -2022 10125 4644;" xml:space="preserve">
<style type="text/css">
	.st0{fill:#A4DCD7;}
	.st1{fill:#62BD41;}
	.st2{fill:#333333;}
	.st3{fill:#FFFF80;}
	.st4{fill:#F9819B;}
	.st5{fill:#FEDE64;}
	.st6{fill:#5FBD44;}
	.st7{fill:#E1F1EE;stroke:#333333;stroke-width:5;stroke-miterlimit:10;}
	.st8{fill:none;stroke:#333333;stroke-width:5;stroke-miterlimit:10;}
	.st9{fill:#F6D6D9;}
	.st10{fill:#E1F1EE;stroke:#333333;stroke-width:6.001;stroke-miterlimit:10;}
	.st11{fill:none;stroke:#333333;stroke-width:6;stroke-miterlimit:10;}
	.st12{fill:#128662;}
	.st13{fill:none;stroke:#333333;stroke-width:10;stroke-miterlimit:10;}
	.st14{fill:#E1F1EE;stroke:#333333;stroke-width:5.2558;stroke-miterlimit:10;}
	.st15{fill:#E1F1EE;stroke:#333333;stroke-width:5.3582;stroke-miterlimit:10;}
	.st16{fill:#A8FFCD;stroke:#333333;stroke-width:6;stroke-miterlimit:10;}
	.st17{fill:#73C47D;}
	.st18{fill:#A8FFCD;}
	.st19{fill:#F6D6D9;stroke:#333333;stroke-width:5;stroke-miterlimit:10;}
	.st20{fill:#00D1B2;}
	.st21{fill:#D8E4E4;}
	.st22{fill:#C5C5BF;stroke:#333333;stroke-width:5;stroke-miterlimit:10;}
	.st23{fill:none;stroke:#333333;stroke-width:15;stroke-miterlimit:10;}
	.st24{fill:none;stroke:#333333;stroke-width:5.3582;stroke-miterlimit:10;}
	.st25{fill:#128662;stroke:#333333;stroke-width:5;stroke-miterlimit:10;}
	.st26{fill:none;stroke:#FFFFFF;stroke-width:6;stroke-miterlimit:10;}
	.st27{fill:#008D7F;}
</style>
<g id="Warstwa_2">
	<path id="XMLID_81_" class="st0" d="M6617,1155c614.8,0,2448,0,2448,0s-245-351.8-666-351.8s-504,215.9-504,215.9
		S7786.5,470,7328,470s-621,468-621,468s-179.4-207.6-387,0c0,0-264.9-72.8-459,126.2C5778.7,1148.6,6426.7,1155,6617,1155z"/>
	<circle id="XMLID_77_" class="st1" cx="7974" cy="-366" r="216"/>
	<path id="XMLID_245_" class="st2" d="M4977,1154c0,0,9811-7.1,9811,19.9v628.7c-900.7,571.2-4351,478.2-5781,269.4
		C7409.4,1838.7,8076.1,1154,4977,1154z"/>
	<g id="XMLID_34_">
		<path id="XMLID_553_" class="st3" d="M6862.5,522.1c0-39.4,31.4-70.7,71-70.6c39.8,0,71.1,31.5,71,71.6c-0.1,39.2-32,71.1-71.1,71
			C6893.9,594,6862.5,562.2,6862.5,522.1z"/>
		<path id="XMLID_552_" class="st3" d="M6862.5,49.5c0.1-39.3,32.1-71.2,71.3-70.9c39.8,0.3,70.8,32.1,70.7,72.4
			c-0.1,38.8-31.7,70.1-70.9,70.2C6893.7,121.3,6862.5,89.8,6862.5,49.5z"/>
		<path id="XMLID_551_" class="st3" d="M7949.4,522.6c0,39.6-31,71-70.5,71.4c-39.2,0.4-71.5-31.9-71.5-71.5
			c0-39.8,31.7-71.3,71.6-71.1C7918.5,451.6,7949.4,482.9,7949.4,522.6z"/>
		<path id="XMLID_550_" class="st3" d="M5988.4,451.5c39.5,0,71.3,31.4,71.4,70.7c0.1,39.8-32.1,72.2-71.4,71.9
			c-39.5-0.3-70.6-31.8-70.6-71.5C5917.7,482.7,5948.7,451.5,5988.4,451.5z"/>
		<path id="XMLID_549_" class="st3" d="M7949.4,50.6c-0.1,39.6-31.6,70.9-71.2,70.7c-39.5-0.2-70.9-31.7-70.9-71.2
			c0-39.4,31.6-71.2,70.9-71.4C7917.9-21.6,7949.5,10.4,7949.4,50.6z"/>
		<path id="XMLID_547_" class="st3" d="M8422.3,50.1c0,39.6-31.3,71.1-70.9,71.1c-39.6,0.1-71.1-31.2-71.1-70.8
			c-0.1-40,31.8-72.1,71.3-71.8C8390.9-21.1,8422.2,10.6,8422.3,50.1z"/>
		<path id="XMLID_545_" class="st3" d="M7713.2,51.2c-0.7,39.5-32.6,70.7-71.9,70.1c-39.8-0.6-71.2-33-70.4-72.7
			c0.8-38.7,33.1-70.3,71.6-69.9C7682.1-21,7713.9,11.6,7713.2,51.2z"/>
		<path id="XMLID_544_" class="st3" d="M7241,51c-0.6,39.5-32.5,70.7-71.8,70.2c-39.8-0.5-71.2-32.9-70.5-72.5
			c0.7-38.7,33-70.3,71.5-70.1C7209.7-21.1,7241.6,11.5,7241,51z"/>
		<path id="XMLID_543_" class="st3" d="M7051.9,97.3c39.5,0,70.8,31.3,70.8,70.9c0,39.7-31.1,71.1-70.6,71.1
			c-39.9,0.1-71.7-31.7-71.4-71.4C6980.9,128.5,7012.4,97.3,7051.9,97.3z"/>
		<path id="XMLID_542_" class="st3" d="M7523.9,239.3c-39.4,0-70.9-31.6-71-70.9c-0.1-39.7,31.7-71.2,71.7-71.1
			c39.4,0.1,70.4,31.6,70.3,71.4C7594.8,208.2,7563.5,239.4,7523.9,239.3z"/>
		<path id="XMLID_541_" class="st3" d="M7241,523c-0.2,39.2-32.3,71.3-71.2,71.1c-39.1-0.2-71.1-32.3-71.1-71.3
			c0-39.7,32-71.5,71.8-71.2C7209.9,451.8,7241.2,483.4,7241,523z"/>
		<path id="XMLID_540_" class="st3" d="M7713.3,522.6c0,39.2-31.7,71.2-70.9,71.4c-38.8,0.2-71.2-32-71.4-71
			c-0.2-39.7,31.7-71.7,71.5-71.6C7681.8,451.6,7713.2,483.1,7713.3,522.6z"/>
		<path id="XMLID_538_" class="st3" d="M6626.1,50.2c-0.1-39.2,31.5-71.2,70.8-71.5c38.8-0.3,71.2,31.9,71.5,70.9
			c0.3,39.5-31.8,71.8-71.4,71.7C6657.5,121.1,6626.2,89.8,6626.1,50.2z"/>
		<path id="XMLID_537_" class="st3" d="M6153.9,522.4c0.2-39.6,31.6-70.9,71.1-70.9c39.7,0,71.6,32.2,71.2,71.8
			c-0.4,39.1-33.1,71.3-71.7,70.8C6185.1,593.5,6153.7,561.6,6153.9,522.4z"/>
		<path id="XMLID_536_" class="st3" d="M6626.1,522.6c0.1-39.6,31.4-71,70.9-71.1c39.7-0.1,71.7,32,71.4,71.6
			c-0.3,39.1-32.8,71.3-71.5,71C6657.7,593.7,6626,561.8,6626.1,522.6z"/>
		<path id="XMLID_535_" class="st3" d="M6862.5,286.7c0-40,31.6-71.6,71.4-71.3c39.5,0.2,70.7,31.6,70.6,71.3
			c0,39.6-31.3,70.8-71,70.8C6893.9,357.4,6862.6,326.2,6862.5,286.7z"/>
		<path id="XMLID_534_" class="st3" d="M8186.1,522.8c-0.1,39.1-32.2,71.3-71.2,71.3c-38.9,0-71.2-32.2-71.4-71.2
			c-0.2-39.5,32-71.6,71.7-71.4C8154.6,451.6,8186.2,483.5,8186.1,522.8z"/>
		<path id="XMLID_533_" class="st3" d="M8186.1,51c-1.2,40.3-33.2,71.3-72.8,70.2c-39.3-1-71.1-34.1-69.7-72.6
			c1.4-39.5,34.3-71.2,72.5-70C8155.6-20.1,8187.2,12.6,8186.1,51z"/>
		<path id="XMLID_532_" class="st3" d="M8516.4,51.9c-1.9-38.2,29.1-71,69.1-73.3c38.1-2.1,71.8,30,73.4,70
			c1.6,37.8-29.8,70.9-68.8,72.6C8550.7,122.9,8518.5,92.6,8516.4,51.9z"/>
		<path id="XMLID_531_" class="st3" d="M7949.4,286.7c-0.1,39.7-31.1,70.7-70.9,70.7c-39.9,0-71.2-31.5-71.1-71.7
			c0.1-39.1,32.3-70.7,71.6-70.4C7918.6,215.6,7949.5,246.9,7949.4,286.7z"/>
		<path id="XMLID_528_" class="st3" d="M7051.4,475.4c-39.3-0.1-71-32.1-70.8-71.4c0.3-39.4,32-70.8,71.5-70.7s70.6,31.6,70.5,71.4
			C7122.5,444.4,7091.1,475.6,7051.4,475.4z"/>
		<path id="XMLID_527_" class="st3" d="M7594.9,404.4c0,39.7-31.3,71-70.9,71c-39.5,0-71.1-31.6-71.1-71c0-39.3,31.7-71,71.1-71
			C7563.6,333.4,7594.9,364.7,7594.9,404.4z"/>
		<path id="XMLID_525_" class="st3" d="M6343.6,97.3c39.2,0.1,71,32.2,70.7,71.3c-0.3,39.8-32,70.9-72.1,70.7
			c-38.6-0.2-70.2-32-70.4-70.9C6271.5,129.1,6303.7,97.2,6343.6,97.3z"/>
		<path id="XMLID_524_" class="st3" d="M6814.8,239.3c-39.1-0.1-71.2-32.4-70.9-71.3c0.3-39.7,32.3-71,72.3-70.8
			c38.7,0.2,70.1,31.8,70.2,70.8C6886.7,207.7,6854.7,239.4,6814.8,239.3z"/>
		<path id="XMLID_523_" class="st3" d="M7925.7,640.4c0.2-39.3,32-71,71.2-70.9c39.6,0.1,71,32.1,70.8,72.1
			c-0.2,39.1-32.2,70.5-71.7,70.2C7956.6,711.5,7925.5,680,7925.7,640.4z"/>
		<path id="XMLID_522_" class="st3" d="M5634.2,948c-39.3,0-71.1-31.6-71.2-70.8s31.5-71.3,70.6-71.6c39.6-0.3,71.4,31.5,71.4,71.4
			C5705,916.5,5673.6,948,5634.2,948z"/>
		<path id="XMLID_520_" class="st3" d="M7476.8,522.5c0,39.5-31.1,71.2-70.4,71.6c-39.2,0.4-71.3-32-71.3-71.7
			c0-39.3,31.6-70.9,71-70.9C7445.4,451.5,7476.8,483,7476.8,522.5z"/>
		<path id="XMLID_519_" class="st3" d="M5988.7,688.2c39.7,0,71.1,31.2,71.1,70.6c0,39.2-31.5,70.9-70.8,71.4
			c-39.3,0.5-71.2-31.6-71.2-71.6C5917.7,718.8,5948.6,688.2,5988.7,688.2z"/>
		<path id="XMLID_518_" class="st3" d="M7949.4,759.3c-0.1,39.4-32,71.2-71.1,70.9c-39.8-0.3-71.1-32.1-71-72.1
			c0.1-39.2,31.7-70,71.7-69.9C7918.8,688.3,7949.5,719.3,7949.4,759.3z"/>
		<path id="XMLID_516_" class="st3" d="M6390.3,522.2c0-39.4,31.6-70.8,71-70.7c39.3,0.1,70.8,31.8,70.7,71.2
			c0,39.2-31.7,71.2-70.8,71.4C6421.9,594.3,6390.3,562.2,6390.3,522.2z"/>
		<path id="XMLID_515_" class="st3" d="M7689.1,876.5c0.3-39.2,32.3-70.9,71.4-70.8c39,0.1,71.1,32.3,71.1,71.2
			c0,39.4-32.4,71.5-72,71.1C7720.3,947.6,7688.8,915.7,7689.1,876.5z"/>
		<path id="XMLID_514_" class="st3" d="M6342.7,948c-39.2-0.2-71-32-71-71.2c-0.1-38.7,32.4-71.1,71.3-71.1
			c39.4,0,71.8,32.6,71.3,71.8C6413.7,917,6382.1,948.2,6342.7,948z"/>
		<path id="XMLID_513_" class="st3" d="M6815,948c-39.2-0.1-70.9-31.9-71.1-71.1c-0.1-38.7,32.3-71.1,71.2-71.2
			c39.4-0.1,71.8,32.5,71.3,71.7C6886,916.9,6854.4,948.1,6815,948z"/>
		<path id="XMLID_512_" class="st3" d="M7051.4,948c-39.4-0.3-70.9-32-70.8-71.2c0.2-39.6,32.6-71.7,71.9-71.1
			c39.8,0.6,70.5,32.4,70.1,72.7C7122.3,917.2,7090.5,948.3,7051.4,948z"/>
		<path id="XMLID_511_" class="st3" d="M7713.3,286.4c0,39.5-31.2,70.8-70.9,71c-39.3,0.2-71.3-31.3-71.4-70.5
			c-0.2-39.6,31.8-71.6,71.4-71.5C7681.7,215.5,7713.3,247.1,7713.3,286.4z"/>
		<path id="XMLID_510_" class="st3" d="M7241,286.3c0.1,39.5-31,70.8-70.7,71.1c-39.3,0.3-71.4-31.2-71.6-70.4
			c-0.2-39.7,31.7-71.7,71.3-71.6C7209.3,215.4,7240.9,246.9,7241,286.3z"/>
		<path id="XMLID_509_" class="st3" d="M8161.9,168.4c-0.1-39.4,31.5-71.1,70.8-71.1c39.9,0,71.7,31.7,71.5,71.4
			c-0.2,39.3-31.9,70.7-71.3,70.7C8193.5,239.3,8162,207.8,8161.9,168.4z"/>
		<path id="XMLID_507_" class="st3" d="M7216.8,876.7c0-39,32.1-71,71.2-71c39,0,71.1,32,71.3,71c0.2,39.4-32.2,71.6-71.8,71.3
			C7248.3,947.7,7216.8,916.1,7216.8,876.7z"/>
		<path id="XMLID_506_" class="st3" d="M7523.9,948c-39.4-0.2-71-31.7-71-71c0-39.5,32.4-71.8,71.7-71.3c39.4,0.4,70.4,32,70.3,71.6
			C7594.8,916.8,7563.3,948.1,7523.9,948z"/>
		<path id="XMLID_504_" class="st3" d="M5941.4,641.2c-0.2,39.4-31.8,70.7-71.2,70.7c-39.2-0.1-71.2-31.9-71.1-71
			c0.1-39.5,32.5-71.7,71.8-71.3C5910.1,570,5941.6,601.9,5941.4,641.2z"/>
		<path id="XMLID_503_" class="st3" d="M7051.9,711.9c-39.4,0.1-70.9-31.2-71.2-70.7c-0.3-39.4,32.1-71.8,71.4-71.6
			c39.3,0.2,70.6,31.8,70.6,71.3C7122.6,680.5,7091.4,711.8,7051.9,711.9z"/>
		<path id="XMLID_502_" class="st3" d="M7216.9,639.9c1.3-40.2,33.6-71.4,72.8-70.3c39.2,1.1,71,34.3,69.7,72.6
			c-1.4,40.4-34.2,71.1-74.3,69.6C7246.7,710.4,7215.7,677.7,7216.9,639.9z"/>
		<path id="XMLID_501_" class="st3" d="M7524.4,711.9c-39.4,0.2-71-30.9-71.5-70.5c-0.5-39.3,31.8-71.9,71.2-71.9
			c39.3,0,70.8,31.7,70.8,71.1C7594.9,680.4,7563.9,711.7,7524.4,711.9z"/>
		<path id="XMLID_500_" class="st3" d="M7689.1,639.9c1.2-40.2,33.6-71.4,72.8-70.3c39.2,1.1,71,34.3,69.7,72.6
			c-1.4,40.4-34.2,71.1-74.3,69.6C7719,710.4,7687.9,677.7,7689.1,639.9z"/>
		<path id="XMLID_497_" class="st3" d="M5941.4,876.8c0.1,39.4-31.3,70.9-70.7,71.2c-39.5,0.2-71.7-31.8-71.6-71.4
			c0.1-39,32.3-71,71.4-70.9C5909.7,805.8,5941.3,837.5,5941.4,876.8z"/>
		<path id="XMLID_496_" class="st3" d="M6934.1,688.2c39.6,0.1,70.6,31.3,70.5,71c-0.1,39.2-32.1,71.1-71.2,70.9
			c-39.8-0.2-70.9-31.9-70.9-72.1C6862.6,718.7,6893.9,688.1,6934.1,688.2z"/>
		<path id="XMLID_495_" class="st3" d="M7216.8,168.3c0-39.3,31.7-71,71-71c39.8,0,72,32.1,71.6,71.5c-0.4,39.4-32.1,70.6-71.5,70.6
			C7248.5,239.3,7216.9,207.6,7216.8,168.3z"/>
		<path id="XMLID_494_" class="st3" d="M6626.1,286.6c0-39.9,31.8-71.5,71.5-71.3c39.2,0.3,71,32.2,70.8,71.3
			c-0.2,39.3-31.9,70.8-71.2,70.8C6657.6,357.3,6626.1,326,6626.1,286.6z"/>
		<path id="XMLID_493_" class="st3" d="M7476.8,50.1c0,39.5-31.3,71-70.7,71.1c-39.3,0.1-71-31.6-71.1-70.8
			c0-39.8,32-72.1,71.2-71.8C7445.6-21,7476.8,10.7,7476.8,50.1z"/>
		<path id="XMLID_492_" class="st3" d="M7689.2,167.1c1.4-41.1,33.3-71,74.8-69.8c37.4,1.1,69.2,35.2,67.7,72.7
			c-1.7,40.9-34.1,70.7-75.4,69.4C7719,238.1,7687.9,204.6,7689.2,167.1z"/>
		<path id="XMLID_491_" class="st3" d="M6153.9,286.2c0.3-39.6,31.6-70.8,71.1-70.8s71.7,32.4,71.2,71.7s-32.4,70.7-71.7,70.3
			C6184.8,357,6153.6,325.6,6153.9,286.2z"/>
		<path id="XMLID_490_" class="st3" d="M8422.3,286.3c0,39.7-30.9,70.8-70.7,71.1c-40,0.2-71.4-31.1-71.3-71.3
			c0.1-39.4,31.6-70.8,71.1-70.7C8390.8,215.4,8422.2,246.9,8422.3,286.3z"/>
		<path id="XMLID_489_" class="st3" d="M6815.2,475.4c-39.2,0-71.1-31.8-71.2-70.9c-0.1-38.9,32-71,71.1-71.1
			c39.7-0.1,71.9,32,71.5,71.4C6886.1,444.2,6854.6,475.5,6815.2,475.4z"/>
		<path id="XMLID_488_" class="st3" d="M6343.3,711.9c-39.3,0.1-71.3-31.4-71.6-70.6c-0.4-39.1,32.3-71.9,71.5-71.7
			c39.1,0.1,71,32.1,71,71.2C6414.2,680,6382.6,711.8,6343.3,711.9z"/>
		<path id="XMLID_487_" class="st3" d="M6815.7,711.9c-39.3,0.2-71.2-31.2-71.8-70.5c-0.5-39,32.2-71.9,71.4-71.8
			c39.1,0,71,32,71.1,71.1C6886.6,679.9,6855,711.7,6815.7,711.9z"/>
		<path id="XMLID_486_" class="st3" d="M6342.6,475.4c-39.1-0.1-71.2-32.3-71-71.2c0.2-39.1,32.2-70.9,71.3-70.9
			c39.3,0,71,31.4,71.2,70.8C6414.5,443.7,6382.5,475.5,6342.6,475.4z"/>
		<path id="XMLID_485_" class="st3" d="M6390.3,49.7c0-39.4,32.1-71.4,71.1-71.1c39.2,0.4,70.6,32.3,70.6,71.8
			c0,39.3-32.1,71.1-71.3,70.8C6421.1,121,6390.2,89.6,6390.3,49.7z"/>
		<path id="XMLID_484_" class="st3" d="M6649.8,641.4c-0.1,39.5-31.6,70.7-71.1,70.4c-39.4-0.2-71-32-70.9-71.2
			c0.1-39,32.1-71,71.2-71.1C6618.5,569.4,6649.9,601.2,6649.8,641.4z"/>
		<path id="XMLID_483_" class="st3" d="M6177.5,641.6c-0.1,39-31.3,70.2-70.4,70.2c-39.7,0.1-71.8-31.9-71.6-71.4
			c0.2-39,32.3-70.9,71.4-70.9C6146.4,569.6,6177.6,601.4,6177.5,641.6z"/>
		<path id="XMLID_481_" class="st3" d="M8540.3,168.8c-0.1,39.4-31.6,70.6-71.2,70.5c-39.3-0.1-70.9-31.8-70.8-71.1
			c0-39.7,31.8-71,71.9-70.9C8509.4,97.4,8540.4,129,8540.3,168.8z"/>
		<path id="XMLID_480_" class="st3" d="M8185.8,289.4c-2.9,40.9-35.5,70.6-74.7,67.8c-39.5-2.8-70.2-36.2-67.5-73.5
			c3-41.1,36.2-71.1,75.4-68.3C8158.5,218.3,8188.5,251.5,8185.8,289.4z"/>
		<path id="XMLID_479_" class="st3" d="M7925.7,168c0.1-39.8,31.7-70.9,71.9-70.8c39.1,0.2,70.3,32,70.1,71.7
			c-0.1,39.2-31.8,70.4-71.5,70.3C7957,239.2,7925.6,207.6,7925.7,168z"/>
		<path id="XMLID_477_" class="st3" d="M6649.8,877.2c0,39.6-31.3,70.9-70.8,70.8c-39.3-0.1-71.1-31.7-71.2-70.9
			c-0.1-38.9,31.9-71.2,70.9-71.4C6618.3,805.5,6649.8,837.2,6649.8,877.2z"/>
		<path id="XMLID_476_" class="st3" d="M6177.5,876.9c0,39.8-31,71-70.5,71.1c-39.6,0.1-71.9-32.1-71.5-71.5
			c0.3-39.1,32.5-71,71.5-70.8C6146.4,805.9,6177.5,837.3,6177.5,876.9z"/>
		<path id="XMLID_475_" class="st3" d="M8233.1,475.4c-39.5,0-71.1-31.5-71.2-70.9c-0.1-39.3,31.6-71.1,71-71.1
			c39.4,0,71.3,31.7,71.3,70.9C8304.2,443.7,8272.5,475.4,8233.1,475.4z"/>
		<path id="XMLID_474_" class="st3" d="M6649.8,168.8c-0.1,39.6-31.3,70.6-71,70.5c-39.2-0.1-71-31.9-71-71.1c0-39.6,32-71.1,72-71
			C6619,97.4,6649.9,128.9,6649.8,168.8z"/>
		<path id="XMLID_470_" class="st3" d="M7689.2,405.7c-1.3-37.7,29.7-70.8,67.9-72.3c40.1-1.6,72.9,28.9,74.6,69.3
			c1.6,37.5-30.1,71.5-67.6,72.7C7722.8,476.8,7690.6,446.8,7689.2,405.7z"/>
		<path id="XMLID_469_" class="st3" d="M7217,402.4c2.1-40.8,34.4-70.8,74.6-69c38.5,1.7,70,35.9,67.7,73.5
			c-2.5,41.1-35.2,70.6-76.2,68.5C7245.8,473.5,7215.1,439.6,7217,402.4z"/>
		<path id="XMLID_468_" class="st3" d="M7925.7,404.4c0-39.5,31.5-71,71.1-71c39.4,0,71,31.6,70.9,71.1c0,39.5-31.6,71-71.1,70.9
			C7957.2,475.4,7925.7,443.9,7925.7,404.4z"/>
		<path id="XMLID_467_" class="st3" d="M7241,759c-0.2,39.4-32.2,71.3-71.2,71.1c-39.1-0.2-71.1-32.3-71.1-71.4
			c0-39.9,32.1-70.9,73.1-70.6C7210.1,688.5,7241.2,720.4,7241,759z"/>
		<path id="XMLID_466_" class="st3" d="M7642.6,688.2c39.3,0.1,70.5,31.1,70.7,70.2c0.2,39.7-32.4,72.3-71.5,71.7
			c-39.4-0.6-71-32.6-70.8-71.7C7571.2,719.2,7602.8,688.1,7642.6,688.2z"/>
		<path id="XMLID_464_" class="st3" d="M5752.5,688.2c39.1,0,70.6,31.1,71.1,70.1s-32.6,72.2-71.7,71.9
			c-39.2-0.3-71.2-32.7-70.9-71.5C5681.3,719,5712.6,688.2,5752.5,688.2z"/>
		<path id="XMLID_463_" class="st3" d="M6153.9,759.2c-0.2-39.2,30.9-70.8,69.8-71c40.4-0.2,72.4,30.9,72.5,70.4
			c0.1,39.1-31.6,71.1-70.9,71.6C6186.5,830.7,6154,798.5,6153.9,759.2z"/>
		<path id="XMLID_462_" class="st3" d="M6626.1,758.8c0-39.6,31.3-70.6,71.1-70.6c39.6,0,71.4,31.6,71.2,70.8s-32.3,71.2-71.3,71.2
			C6658,830.1,6626.1,798.1,6626.1,758.8z"/>
		<path id="XMLID_461_" class="st3" d="M6177.5,404.4c0,39.8-31.1,71.1-70.7,71.1c-39.4,0-71.3-31.7-71.3-70.9
			c-0.1-39.1,31.9-71,71.2-71.1C6146.3,333.3,6177.5,364.6,6177.5,404.4z"/>
		<path id="XMLID_460_" class="st3" d="M6649.8,404.9c-0.1,39.6-31.4,70.7-71.2,70.6c-39.2-0.1-71.2-32.3-70.8-71.4
			c0.3-39.2,32.3-70.7,71.7-70.6C6619,333.6,6649.8,364.9,6649.8,404.9z"/>
		<path id="XMLID_459_" class="st3" d="M7476.8,286.3c0,39.7-31.1,70.9-70.7,71c-39.4,0.1-71-31.4-71-70.8
			c0-39.4,31.5-71.1,70.8-71.2C7445.3,215.3,7476.8,246.9,7476.8,286.3z"/>
		<path id="XMLID_458_" class="st3" d="M6390.3,285.9c0-39.3,31.9-70.9,71.3-70.6c39.3,0.3,70.6,32.1,70.5,71.6
			c-0.1,38.9-31.5,70.2-70.6,70.5C6421.5,357.6,6390.2,326.2,6390.3,285.9z"/>
		<path id="XMLID_457_" class="st3" d="M7406.5,688.2c39.5,0.1,70.5,31.3,70.4,71.1c-0.1,38.8-31.4,70.3-70.4,70.8
			c-39.1,0.5-71.4-31.9-71.4-71.7C7335.1,719.1,7366.6,688.1,7406.5,688.2z"/>
		<path id="XMLID_456_" class="st3" d="M6461.6,688.2c39,0.1,70.4,31.5,70.4,70.4c0,39.3-31.4,71.1-70.7,71.5
			c-39.6,0.4-71.2-31.9-71.1-72.7C6390.4,718.7,6421.9,688.1,6461.6,688.2z"/>
	</g>
	<polygon id="XMLID_37_" class="st0" points="11521,1155 13159,714 13575,931 13755,607 13866.5,558 14194,255 14788,1173.9 	"/>
	<circle id="XMLID_31_" class="st4" cx="11698.2" cy="-343.9" r="730.1"/>
	<path id="XMLID_3_" class="st5" d="M9215-592.8c0,0,176.7-237.2,368.4-237.2c191.7,0,190.1,83.1,190.1,83.1s37.8-285.2,237.7-285.2
		s207.9,160.4,207.9,160.4s67.6-279.3,493.1-279.3c402.3,0,445.6,410,445.6,410s173.7-145.3,267.4,101c0,0,105.9-133.9,219.8,41.1
		L9215-592.8z"/>
	<path id="XMLID_36_" class="st6" d="M13276,520.5c0-161.5-131-292.5-292.5-292.5c-14.3,0-28.3,1-42,3
		c12.7-42.3,19.5-87.1,19.5-133.5c0-256-207.5-463.5-463.5-463.5c-168.3,0-315.6,89.6-396.8,223.8c-24.4-5.1-49.8-7.8-75.7-7.8
		c-203.8,0-369,165.2-369,369c0,156.1,97,289.6,234,343.5c-5.9,20-9,40.5-9,61.5c0,198.8,276,360,616.5,360
		c223.9,0,420-69.7,527.9-174C13167.1,789.6,13276,667.8,13276,520.5z"/>
	<path id="XMLID_20_" class="st2" d="M11017.5,657.2c0,0,494.9-163.4,658.5,1.8c0,0,31.6,67.8-67.3,83.5s0,0,0,0
		S11597.6,621.8,11017.5,657.2"/>
	<polygon id="XMLID_243_" class="st7" points="8333.5,1316 8726.5,1318 8726.5,1280 8331,1271 	"/>
	<line id="XMLID_242_" class="st8" x1="8352" y1="1280" x2="8351.5" y2="1316"/>
	<line id="XMLID_241_" class="st8" x1="8368.5" y1="1271" x2="8368.5" y2="1316"/>
	<path id="XMLID_240_" class="st9" d="M8712-727l48-1.4l201,3.4c0,0,57.8,264-39.3,264S8712-727,8712-727z"/>
	<path id="XMLID_239_" class="st10" d="M8952,976.2c0,0-65.4,198.2,81,315.2l-414-2c0,0,33.8-305,54-304.1L8952,976.2z"/>
	<path id="XMLID_238_" class="st10" d="M8388,958c0,0-60.9,248.9-66,297s119.6,31.5,405,36c0,0-132.5-62.4-63-297L8388,958z"/>
	<path id="XMLID_237_" class="st2" d="M8646,1093c0,0-258.3-26.3-252-126c0,0,242.7,44.6,270,27C8664,994,8652.3,1022.4,8646,1093z"
		/>
	<path id="XMLID_236_" class="st2" d="M8934,1093l22.5-112.9L8664,994C8679.6,1053.3,8783.2,1093,8934,1093z"/>
	<path id="XMLID_235_" class="st9" d="M8836.9-811c0,0,56.3,65.3,111.1,33.2c54.8-32.2,37.8-249-107.7-240.1s-69.8,196.3-44.1,207
		l-36.2,82.5c0,0,68.2,102,149.5,4.3l8.1-55.5L8836.9-811z"/>
	<path id="XMLID_234_" class="st11" d="M8973-898c0,0-50.9-9.9-27,72"/>
	<circle id="XMLID_233_" class="st2" cx="8965.2" cy="-871.4" r="8.8"/>
	<circle id="XMLID_232_" class="st2" cx="8899.2" cy="-869.4" r="8.8"/>
	<path id="XMLID_231_" class="st2" d="M8834.9-808c0,0,25.1,67.1,75.1,81l7-42C8917-769,8859.8-758.7,8834.9-808z"/>
	<path id="XMLID_230_" class="st9" d="M8982.1-718.1c0,0,154.7-6.5,427.1,690.2L9311,120.9l-191.6-255.5L8982.1-718.1z"/>
	<path id="XMLID_229_" class="st12" d="M8537.8-541.8c0,0-26.1,304-23.8,570.8c1.9,220.9-246.2,823.8-232.1,915.7
		c0,0,272.2,59.2,382.3,59.1c110.1,0,300.2-2.7,300.2-2.7l168-724.2c0,0,55-997.7-171.5-1002c0,0,30.1,186.1-50.6,187
		c-70,0.7-163-188.2-163-188.2l-97.9-3.1C8649.6-729.3,8533.3-734.9,8537.8-541.8z"/>
	<path id="XMLID_228_" class="st10" d="M9004.4-115.9l133.8-285l360,90l-75,480.1c0,0-87.4,60.7-121,42c-33.6-18.7-329-147-329-147
		L9004.4-115.9z"/>
	<path id="XMLID_227_" class="st13" d="M9149.2-416.9c0,0-231.4-99.5-225,160"/>
	<polygon id="XMLID_226_" class="st7" points="9032.5,1292 9032.5,1318.5 8726,1318.5 8726.5,1291 	"/>
	<path id="XMLID_225_" class="st11" d="M8664.3,1003.8c0,0,187.5-704.7,209.7-938.8"/>
	<path id="XMLID_224_" class="st14" d="M9498.2-295.9C9487-256,9386.1-248,9298-272.8s-171-88.3-159.8-128.1
		c11.2-39.9,112.3-41.1,200.4-16.3C9426.7-392.4,9509.5-335.8,9498.2-295.9z"/>
	<polygon id="XMLID_223_" class="st7" points="9459,-61 9617.5,-175.9 9617.5,-130.9 9432.3,146.2 	"/>
	<ellipse id="XMLID_222_" class="st15" cx="9672.1" cy="-177.5" rx="77.5" ry="90"/>
	<circle id="XMLID_221_" class="st15" cx="9636.4" cy="-210.7" r="7.5"/>
	<circle id="XMLID_220_" class="st15" cx="9674.4" cy="-210.7" r="7.5"/>
	<circle id="XMLID_219_" class="st15" cx="9712.8" cy="-210.7" r="7.5"/>
	<circle id="XMLID_218_" class="st15" cx="9636.4" cy="-175.7" r="7.5"/>
	<circle id="XMLID_217_" class="st15" cx="9674.4" cy="-175.7" r="7.5"/>
	<circle id="XMLID_216_" class="st15" cx="9712.8" cy="-175.7" r="7.5"/>
	<circle id="XMLID_215_" class="st15" cx="9636.4" cy="-144" r="7.5"/>
	<circle id="XMLID_214_" class="st15" cx="9674.4" cy="-144" r="7.5"/>
	<circle id="XMLID_213_" class="st15" cx="9712.8" cy="-144" r="7.5"/>
	<path id="XMLID_212_" class="st2" d="M9469-303c-8.1,29-101.1,30.3-165.1,12.4S9154.9-364,9163-393s107-27,171-9
		S9477.1-332,9469-303z"/>
	<path id="XMLID_211_" class="st9" d="M9509.2-55.9c0,0-100.9,51.3-90,135c10.9,83.7-15,105-15,105s119.8-50.1,120-90
		S9547.5,10.3,9509.2-55.9z"/>
	<path id="XMLID_210_" class="st15" d="M9456.9,110.8c0,0-14.8-85.9-14.8-114.9"/>
	<path id="XMLID_209_" class="st15" d="M9485,74c0,0-18-80.6-18-108"/>
	<path id="XMLID_208_" class="st15" d="M9495-52c0,25.2,18,99,18,99"/>
	<path id="XMLID_207_" class="st9" d="M8631.8-724.1c0,0,95.1-8.4,141,142.7S9029.9-45.7,9102.6,1c72.7,46.7,82.3,71.7,82.3,71.7
		s1.9,23.1-86.7,15.4c-88.7-7.7,190,96.1,190,96.1s-58.9,79.3-170.7,92.8S8552-222.2,8528.3-615.5
		C8528.3-615.5,8527.8-719.9,8631.8-724.1z"/>
	<path id="XMLID_206_" class="st11" d="M9153,173c0,0,70.6,43.7,108,45"/>
	<path id="XMLID_205_" class="st11" d="M9117,200c0,0,71.5,50.3,99,45"/>
	<path id="XMLID_204_" class="st11" d="M9072,227c0,0,59.2,45.8,82,46"/>
	<path id="XMLID_203_" class="st8" d="M8628-275c0,0,78.2-62.3,135,18s-45,126-45,126"/>
	<line id="XMLID_202_" class="st8" x1="8384.5" y1="1289" x2="8384.5" y2="1316"/>
	<line id="XMLID_201_" class="st8" x1="8401.5" y1="1289" x2="8401.5" y2="1316"/>
	<line id="XMLID_200_" class="st8" x1="8418.5" y1="1289" x2="8418.5" y2="1316"/>
	<line id="XMLID_199_" class="st8" x1="8435.5" y1="1289" x2="8435.5" y2="1316"/>
	<line id="XMLID_198_" class="st8" x1="8451.5" y1="1289" x2="8451.5" y2="1316"/>
	<line id="XMLID_197_" class="st8" x1="8468.5" y1="1289" x2="8468.5" y2="1316"/>
	<line id="XMLID_196_" class="st8" x1="8486.5" y1="1289" x2="8486.5" y2="1316"/>
	<line id="XMLID_195_" class="st8" x1="8503.5" y1="1289" x2="8503.5" y2="1316"/>
	<line id="XMLID_194_" class="st8" x1="8519.5" y1="1289" x2="8519.5" y2="1316"/>
	<line id="XMLID_193_" class="st8" x1="8536.5" y1="1289" x2="8536.5" y2="1316"/>
	<line id="XMLID_192_" class="st8" x1="8553.5" y1="1289" x2="8553.5" y2="1316"/>
	<line id="XMLID_191_" class="st8" x1="8570.5" y1="1289" x2="8570.5" y2="1316"/>
	<line id="XMLID_190_" class="st8" x1="8586.5" y1="1289" x2="8586.5" y2="1316"/>
	<line id="XMLID_189_" class="st8" x1="8603.5" y1="1289" x2="8603.5" y2="1316"/>
	<line id="XMLID_188_" class="st8" x1="8621.5" y1="1289" x2="8621.5" y2="1316"/>
	<line id="XMLID_187_" class="st8" x1="8637.5" y1="1289" x2="8637.5" y2="1316"/>
	<line id="XMLID_186_" class="st8" x1="8654.5" y1="1289" x2="8654.5" y2="1316"/>
	<line id="XMLID_185_" class="st8" x1="8672.5" y1="1289" x2="8672.5" y2="1316"/>
	<line id="XMLID_184_" class="st8" x1="8690.5" y1="1289" x2="8690.5" y2="1316"/>
	<line id="XMLID_183_" class="st8" x1="8707.5" y1="1289" x2="8707.5" y2="1316"/>
	<polygon id="XMLID_182_" class="st2" points="8739,1316 8739,1290 8722,1289 8722,1316 	"/>
	<line id="XMLID_181_" class="st8" x1="8754.5" y1="1291" x2="8754.5" y2="1318"/>
	<line id="XMLID_180_" class="st8" x1="8771.5" y1="1291" x2="8771.5" y2="1318"/>
	<line id="XMLID_179_" class="st8" x1="8787.5" y1="1291" x2="8787.5" y2="1318"/>
	<line id="XMLID_178_" class="st8" x1="8804.5" y1="1291" x2="8804.5" y2="1318"/>
	<line id="XMLID_177_" class="st8" x1="8821.5" y1="1291" x2="8821.5" y2="1318"/>
	<line id="XMLID_176_" class="st8" x1="8838.5" y1="1291" x2="8838.5" y2="1318"/>
	<line id="XMLID_175_" class="st8" x1="8854.5" y1="1291" x2="8854.5" y2="1318"/>
	<line id="XMLID_174_" class="st8" x1="8871.5" y1="1291" x2="8871.5" y2="1318"/>
	<line id="XMLID_173_" class="st8" x1="8889.5" y1="1291" x2="8889.5" y2="1318"/>
	<line id="XMLID_172_" class="st8" x1="8905.5" y1="1291" x2="8905.5" y2="1318"/>
	<line id="XMLID_171_" class="st8" x1="8922.5" y1="1291" x2="8922.5" y2="1318"/>
	<line id="XMLID_170_" class="st8" x1="8940.5" y1="1291" x2="8940.5" y2="1318"/>
	<line id="XMLID_169_" class="st8" x1="8956.5" y1="1293" x2="8956.5" y2="1320"/>
	<line id="XMLID_168_" class="st8" x1="8973.5" y1="1293" x2="8973.5" y2="1320"/>
	<line id="XMLID_167_" class="st8" x1="8989.5" y1="1293" x2="8989.5" y2="1320"/>
	<line id="XMLID_166_" class="st8" x1="9006.5" y1="1293" x2="9006.5" y2="1320"/>
	<line id="XMLID_165_" class="st8" x1="9020.5" y1="1293" x2="9020.5" y2="1320"/>
	<path id="XMLID_164_" class="st16" d="M8928-799c0,0,9.7,14.1,18,0"/>
	<path id="XMLID_59_" class="st2" d="M10575.9,1206.5c-1.9-28.7-37.4-51.5-80.9-51.5c-7.4,0-14.5,0.7-21.3,1.9
		c2.2-6.3,3.3-13,3.3-19.9c0-39.8-38.3-72-85.5-72c-14,0-27.2,2.8-38.8,7.9c-17-46.6-61.7-79.9-114.2-79.9
		c-53.4,0-98.7,34.4-115,82.3c-77.7-83.4-234-500.4-474.5-2.3c0,0-108.9-169.7-225,46c0,0-155.9-112.7-208,26s54,126,54,126l1423,1
		C10693,1272,10645.9,1242.4,10575.9,1206.5z"/>
	<line id="XMLID_162_" class="st13" x1="9871" y1="938" x2="9871" y2="-1033"/>
	<line id="XMLID_161_" class="st13" x1="9874.1" y1="256" x2="10126.9" y2="-101"/>
	<line id="XMLID_160_" class="st13" x1="9876.3" y1="761.5" x2="9623.7" y2="385.5"/>
	<line id="XMLID_159_" class="st13" x1="9874.3" y1="-420" x2="10026.7" y2="-710"/>
	<line id="XMLID_158_" class="st13" x1="9873" y1="-709" x2="9675" y2="-889"/>
	<path id="XMLID_157_" class="st17" d="M10124.7-96c0,0-2.8-119.9,157.3-119.9C10282-215.9,10275.6-96,10124.7-96z"/>
	<path id="XMLID_156_" class="st18" d="M9633.3,398.7c0,0-119.9,2.8-119.9-157.3C9513.4,241.4,9633.3,247.8,9633.3,398.7z"/>
	<path id="XMLID_155_" class="st18" d="M10024-700.5c0,0-46.4-110.5,102.6-169.1C10126.6-869.6,10164.5-755.8,10024-700.5z"/>
	<path id="XMLID_154_" class="st18" d="M9873.5-119.6c0,0-8.3-119.6,151.6-127C10025.1-246.6,10024.3-126.6,9873.5-119.6z"/>
	<path id="XMLID_153_" class="st18" d="M9693.9-872.4c0,0-115.5,32.2-154.9-122.9C9539-995.4,9656.7-1018.7,9693.9-872.4z"/>
	<path id="XMLID_152_" class="st17" d="M9867.3-1023.9c0,0-95.6-72.3,3.8-197.7C9871.1-1221.7,9961.1-1142.2,9867.3-1023.9z"/>
	<path id="XMLID_151_" class="st2" d="M8964-934c0,0-36.9-30.3-36-18c1.8,24.5,10.2,64.5-117,54c0,0-71.2-20.1-14.9,87
		c0.2,0.4-64.7-36.2-66.1-96c-1-40.9,37-105.7,99-117C8945.7-1045.4,8964-934,8964-934z"/>
	<path id="XMLID_150_" class="st19" d="M8833.2-865.9c0,0-0.3-37.7-30-30c-13.3,3.5-57,17.8,5.8,44"/>
	<path id="XMLID_149_" class="st2" d="M8754.5-922.6c-18.7-67.5-247.1-120.9-312.5,78.6C8367.9-618,8773.2-855.1,8754.5-922.6z"/>
	<path id="XMLID_148_" class="st17" d="M9549.9,501.1c0,0,93.4-75.1,190.8,51.9C9740.8,553,9641.8,620.9,9549.9,501.1z"/>
	<path id="XMLID_147_" class="st18" d="M9981.4-634.1c0,0-85.6-24-47-149C9934.4-783.2,10017.8-752,9981.4-634.1z"/>
	<path id="XMLID_146_" class="st18" d="M9865.6,209c0,0-97.2,12.1-109.5-105.8C9756.2,103.1,9854.1,97.7,9865.6,209z"/>
	<path id="XMLID_145_" class="st17" d="M9869.8-593.8c0,0-87.6,15.2-105.5-114.4C9764.3-708.2,9852.9-716,9869.8-593.8z"/>
	<path id="XMLID_4_" class="st18" d="M10041,19.5c0,0,100.5-65.3,184.6,70.9C10225.6,90.4,10120.3,147.9,10041,19.5z"/>
	<path id="XMLID_143_" class="st18" d="M9674.5,452.2c0,0-60.2-77.3,34.9-148.2C9709.4,304,9764.1,385.3,9674.5,452.2z"/>
	<path id="XMLID_142_" class="st18" d="M9930.3-523.3c0,0,50.2-53.1,119.6,15.5C10049.9-507.8,9995.8-458.6,9930.3-523.3z"/>
	<path id="XMLID_19_" class="st9" d="M10939,251.1L10311,393c0,0-105.4,8.5-173.6-57.8c0,0-35.4-16.1-22.7,28
		c12.7,44.1,76.9,63.2,38.9,66.3c-37.9,3.1-125.5-79-149.9-86.7c-24.4-7.7-59.1,85.3,5.9,178.5s225.8,145,357.7,116.1
		c131.9-28.9,644.3-80.4,644.3-80.4S10887.7,416.4,10939,251.1z"/>
	<path id="XMLID_16_" class="st20" d="M11405.8,1039.6l237.3,3.3c0,0,236.5,161,192.9,310.2c0,0-14.2,6.4-27,9
		c-55.3,11.4-187.1-37.1-187.1-37.1L11405.8,1039.6z"/>
	<path id="XMLID_15_" class="st9" d="M10448.9,410.1l-398.6,505.5c0,0-76.5,72.9-171.2,64.4c0,0-37.7,9.8,0,36s99.5,0.7,72,27
		s-147.2,17.6-171,27s7.8,103.5,117,135s266.7-29.5,351-135s436-473,436-473S10513,570.9,10448.9,410.1z"/>
	<path id="XMLID_14_" class="st21" d="M11013.7,662.8c0,0-580,129.6-576.7,366.2s106.6,287,243,297s315,0,315,0s-64-256.4,0-252
		s417.1-27.6,417.1-27.6s309.9,8.1,183.4-347.3C11595.5,699,11339.6,625.3,11013.7,662.8z"/>
	<path id="XMLID_11_" class="st9" d="M10825,45c59,0,45.5-10.5,53.4,43.2c7.9,53.8,185.5,25.6,237.6,16.8c0,0-94.1-330.9-254-322.1
		C10663-206.1,10723.1,45,10825,45z"/>
	<path id="XMLID_17_" class="st20" d="M10911.2,1037.7c0,0-128,168.5,2.8,296.3l491.9-8.4c0,0,97.9,59.9,174.1,71.4
		c98,14.8,42.2-310.7-104-365L10911.2,1037.7z"/>
	<path id="XMLID_22_" class="st11" d="M11422,660c0,0,109.4,334-135,378"/>
	<path id="XMLID_21_" class="st22" d="M11152,752.5h198c0,0,21.7,153.6,0,169.8s-189.2,69.4-198-35.4S11152,752.5,11152,752.5z"/>
	<path id="XMLID_24_" class="st22" d="M11620,770.5h-72c0,0-18.1,152.1,36,151.8l36-8.4"/>
	<path id="XMLID_23_" class="st11" d="M11017,1038c0,0-297.8-10.1-306,45"/>
	<circle id="XMLID_13_" class="st2" cx="10759.2" cy="-101.4" r="8.8"/>
	<path id="XMLID_26_" class="st11" d="M10795-116c0,0-31.8-36.1-54-9"/>
	<path id="XMLID_27_" class="st9" d="M10731.9-94.4l-11.6,43.4c-1.7,15.1,4.5,21.1,11.4,20l19.5-3.2c5-0.8,8.2-5.1,7.3-9.8
		l-7.9-40.2C10748.8-93.6,10734.3-94.6,10731.9-94.4z"/>
	<line id="XMLID_28_" class="st23" x1="12375.5" y1="1254" x2="12375.5" y2="66"/>
	<g id="XMLID_25_">
		<g id="XMLID_350_">
			<path id="XMLID_383_" class="st2" d="M12279-463.8c1.9,0,1.9-3,0-3C12277-466.8,12277-463.8,12279-463.8L12279-463.8z"/>
		</g>
	</g>
	<path id="XMLID_29_" class="st13" d="M12034,142.6c0,0-21.8,268.3,171,268.3s171,138,171,138"/>
	<path id="XMLID_6_" class="st24" d="M9776,1103c0,0,96.9,19.2,189-18"/>
	<path id="XMLID_7_" class="st24" d="M9803,1151c0,0,115.6,12.8,179-18"/>
	<path id="XMLID_8_" class="st24" d="M9856,1191c16.9,16.8,162-18,162-18"/>
	<path id="XMLID_9_" class="st24" d="M9973,381c0,0,94.9,84.6,171,90"/>
	<path id="XMLID_10_" class="st24" d="M9973,444c0,0,114.7,79.6,171,72"/>
	<path id="XMLID_30_" class="st24" d="M10009.9,521.4c0,0,92.8,52.5,143.1,48.6"/>
	<path id="XMLID_18_" class="st25" d="M11013.7,662.8c0,0-124.5-229.1-165.6-222.2c-8.1,1.3-167.5,171-167.5,171
		s-304.3-110.8-231.7-201.4c244.8-305.2,336.3-331.4,424.1-326.1c140.3,8.5,234-45,234-45s81.5-22.1,243,126
		c283.6,260.1,325.8,493.5,325.8,493.5C11497.3,526.7,11013.7,662.8,11013.7,662.8z"/>
	<path id="XMLID_5_" class="st13" d="M12376,858c0,0,326.6,52.3,324-216c0,0-20.3-135,117-135s117-117,117-117"/>
	<path id="XMLID_32_" class="st13" d="M12376,291c0,0,135-20.6,135-189"/>
	<path id="XMLID_33_" class="st13" d="M12547,489c0,0-12.8,180,153,180"/>
	<path id="XMLID_39_" class="st17" d="M7569.1,375.5c0,0-688.8,387.6-1807-858.7C5762.1-483.2,6963.7-990.9,7569.1,375.5z"/>
	<path id="XMLID_44_" class="st17" d="M5568.1,1061.8c0,0-93.9-139.3,151-397.4C5719,664.4,5847.1,910.2,5568.1,1061.8z"/>
	<line id="XMLID_38_" class="st24" x1="10261" y1="642" x2="10448.9" y2="410.1"/>
	<path id="XMLID_144_" class="st18" d="M9863,416.4c0,0,16.5-118.7,174.5-93C10037.5,323.4,10012,440.7,9863,416.4z"/>
	<path id="XMLID_53_" class="st17" d="M12366.3,410.4c0,0-1.6-67.6,88.7-67.6C12455,342.8,12451.4,410.4,12366.3,410.4z"/>
	<path id="XMLID_52_" class="st18" d="M12379.5,158.5c0,0-26.2-62.3,57.8-95.4C12437.3,63.1,12458.7,127.3,12379.5,158.5z"/>
	<path id="XMLID_51_" class="st18" d="M12049.6,295.1c0,0-4.7-67.4,85.5-71.6C12135.1,223.5,12134.7,291.2,12049.6,295.1z"/>
	<path id="XMLID_50_" class="st18" d="M12032.3,180.5c0,0-65.1,18.2-87.4-69.3C11945,111.2,12011.4,98,12032.3,180.5z"/>
	<path id="XMLID_49_" class="st17" d="M12033.1,158.1c0,0-53.9-40.8,2.2-111.5C12035.3,46.6,12086,91.4,12033.1,158.1z"/>
	<path id="XMLID_48_" class="st18" d="M12379.5,74.9c0,0-48.2-13.5-26.5-84C12353-9.1,12400,8.4,12379.5,74.9z"/>
	<path id="XMLID_47_" class="st18" d="M12379.8,548.5c0,0,1.1-55.2,67.9-52.5C12447.7,496,12442.8,551.1,12379.8,548.5z"/>
	<path id="XMLID_46_" class="st18" d="M12303.9,681.4c0,0,53.5-13.8,68.8,51.3C12372.7,732.8,12318.4,742.9,12303.9,681.4z"/>
	<path id="XMLID_12_" class="st18" d="M12515.1,140.1c0,0-0.4-41.2,54.7-40.5C12569.7,99.7,12567,140.8,12515.1,140.1z"/>
	<path id="XMLID_56_" class="st18" d="M12509.6,107.4c0,0-24.9-32.8,19.6-65.1C12529.2,42.3,12551.6,77,12509.6,107.4z"/>
	<path id="XMLID_57_" class="st18" d="M12485.7,203.8c0,0-41.2-0.9-38.7-55.9C12447,147.9,12488.1,152,12485.7,203.8z"/>
	<path id="XMLID_58_" class="st18" d="M12550,495.6c0,0-29.9-28.3,8.8-67.4C12558.8,428.2,12586.5,458.7,12550,495.6z"/>
	<path id="XMLID_45_" class="st19" d="M10855-132c0,0,63-22.1,18,54"/>
	<path id="XMLID_54_" class="st8" d="M10357,933.1c0,0-78-62.5-12.3-135.6c65.7-73.2,132.8,16,132.8,16"/>
	<path id="XMLID_62_" class="st26" d="M10972,1335c0,0-97.7-145,9-297"/>
	<path id="XMLID_61_" class="st26" d="M11422,1065"/>
	<path id="XMLID_64_" class="st26" d="M11413,1038c-37.8,155.6,82.8,336.2,108,342"/>
	<path id="XMLID_63_" class="st27" d="M11467,1051c41.6,6,82.7,69.9,108,126s70.1,200.1,14,203s-119-110.7-140-185
		S11417.9,1043.9,11467,1051z"/>
	<path id="XMLID_65_" class="st27" d="M11599.7,1053.9c41.6-6,99.1,43.6,139.3,90.2s124,172,71,190.7s-145.6-72.4-186.7-137.7
		C11582.1,1131.8,11550.7,1061,11599.7,1053.9z"/>
	<g id="XMLID_66_">
		<path id="XMLID_332_" class="st20" d="M11431.9,1093.4c31.3,0,62.6,0,93.9,0c1.1,0,1.9,0.2,2.5,1.2c0.5,0.8,1.1,1.5,1.7,2.3
			c-0.4,0.1-0.6,0.1-0.9,0.1c-32.3,0-64.5,0-96.8,0c-0.2,0-0.3,0-0.5,0C11431.9,1095.8,11431.9,1094.6,11431.9,1093.4z"/>
		<path id="XMLID_331_" class="st20" d="M11464.8,1048.8c-2.3,0-4.6,0-7,0C11460.1,1048.8,11462.5,1048.8,11464.8,1048.8z"/>
		<path id="XMLID_330_" class="st20" d="M11785.3,1205.1c-0.7,0-1.2,0-1.6,0c-50.8,0-101.5,0-152.3,0c-1.1,0-1.9-0.3-2.4-1.3
			c-0.4-0.8-0.9-1.5-1.6-2.4c0.6,0,1,0,1.4,0c51,0,102,0,153,0c0.9,0,1.4,0.2,1.8,1C11784.1,1203.2,11784.7,1204,11785.3,1205.1z"/>
		<path id="XMLID_329_" class="st20" d="M11777.5,1193.1c-0.7,0-1.2,0-1.7,0c-50.7,0-101.3,0-152,0c-1.2,0-2-0.3-2.5-1.4
			c-0.3-0.7-0.8-1.4-1.3-2.2c0.5,0,0.8-0.1,1.2-0.1c51,0,102,0,153,0c0.8,0,1.2,0.2,1.6,0.9
			C11776.1,1191.2,11776.8,1192,11777.5,1193.1z"/>
		<path id="XMLID_328_" class="st20" d="M11635.8,1213.4c0.7,0,1.2,0,1.7,0c50.5,0,101,0,151.4,0c1.2,0,2,0.2,2.5,1.4
			c0.3,0.7,0.8,1.4,1.3,2.3c-0.7,0-1.2,0-1.7,0c-50.4,0-100.7,0-151.1,0c-1.2,0-1.9-0.3-2.5-1.3
			C11637,1215,11636.5,1214.3,11635.8,1213.4z"/>
		<path id="XMLID_327_" class="st20" d="M11769.2,1181.1c-0.8,0-1.3,0-1.8,0c-50.4,0-100.7,0-151.1,0c-1.2,0-2-0.3-2.5-1.5
			c-0.3-0.7-0.8-1.4-1.3-2.2c0.7,0,1.1,0,1.6,0c50.3,0,100.6,0,151,0c1.1,0,1.9,0.3,2.4,1.3
			C11768,1179.4,11768.6,1180.1,11769.2,1181.1z"/>
		<path id="XMLID_326_" class="st20" d="M11760.5,1169.1c-0.7,0-1.3,0-1.8,0c-49.8,0-99.7,0-149.5,0c-1.2,0-1.9-0.3-2.4-1.4
			c-0.3-0.7-0.7-1.4-1.2-2.3c0.7,0,1.1,0,1.6,0c49.7,0,99.4,0,149.1,0c1.1,0,1.8,0.3,2.4,1.2
			C11759.2,1167.4,11759.8,1168.1,11760.5,1169.1z"/>
		<path id="XMLID_325_" class="st20" d="M11799.7,1229.1c-0.7,0-1.2,0-1.7,0c-49.6,0-99.2,0-148.8,0c-1.2,0-2-0.3-2.6-1.3
			c-0.5-0.8-1.1-1.5-1.8-2.4c0.6,0,1,0,1.4,0c50.1,0,100.1,0,150.2,0c0.9,0,1.5,0.2,1.9,1.1
			C11798.7,1227.3,11799.2,1228.1,11799.7,1229.1z"/>
		<path id="XMLID_324_" class="st20" d="M11751.4,1157.1c-0.8,0-1.2,0-1.7,0c-49,0-98.1,0-147.1,0c-1.2,0-1.9-0.3-2.3-1.4
			c-0.3-0.7-0.7-1.4-1.2-2.3c0.6,0,1.1,0,1.6,0c48.8,0,97.6,0,146.4,0c1.1,0,1.8,0.3,2.4,1.2
			C11750,1155.4,11750.6,1156.1,11751.4,1157.1z"/>
		<path id="XMLID_323_" class="st20" d="M11806.2,1241.1c-0.7,0-1.2,0-1.7,0c-48.5,0-97,0-145.4,0c-1.1,0-1.9-0.2-2.5-1.2
			c-0.6-0.8-1.2-1.5-2-2.4c0.6,0,1-0.1,1.3-0.1c49.1,0,98.2,0,147.3,0c0.9,0,1.4,0.3,1.7,1.1
			C11805.2,1239.3,11805.7,1240.1,11806.2,1241.1z"/>
		<path id="XMLID_322_" class="st20" d="M11593.1,1141.4c0.7,0,1.2,0,1.7,0c47.4,0,94.7,0,142.1,0c1.3,0,2.1,0.3,2.8,1.3
			c0.5,0.7,1.2,1.4,1.9,2.2c-0.6,0-0.9,0.1-1.3,0.1c-48.1,0-96.2,0-144.2,0c-0.9,0-1.4-0.3-1.7-1.1
			C11594,1143.2,11593.6,1142.4,11593.1,1141.4z"/>
		<path id="XMLID_321_" class="st20" d="M11812.1,1253.1c-0.6,0-1.1,0-1.6,0c-47,0-94.1,0-141.1,0c-1.1,0-1.8-0.3-2.4-1.1
			s-1.4-1.5-2.2-2.5c0.5,0,0.9-0.1,1.2-0.1c47.8,0,95.5,0,143.3,0c0.8,0,1.3,0.2,1.6,1
			C11811.2,1251.3,11811.7,1252.1,11812.1,1253.1z"/>
		<path id="XMLID_320_" class="st20" d="M11731.1,1133.1c-0.8,0-1.2,0-1.7,0c-46.2,0-92.4,0-138.7,0c-1.3,0-1.9-0.4-2.2-1.5
			c-0.2-0.7-0.6-1.3-0.9-2.2c0.6,0,1.1,0,1.6,0c45.7,0,91.4,0,137.1,0c1,0,1.8,0.2,2.5,1.1
			C11729.5,1131.3,11730.2,1132,11731.1,1133.1z"/>
		<path id="XMLID_319_" class="st20" d="M11675.8,1261.4c0.8,0,1.3,0,1.7,0c45.6,0,91.2,0,136.7,0c1.2,0,1.9,0.3,2.2,1.5
			c0.2,0.7,0.5,1.3,0.9,2.2c-0.6,0-1.1,0-1.6,0c-44.9,0-89.8,0-134.7,0c-1.2,0-2.1-0.2-2.9-1.2
			C11677.5,1263.1,11676.7,1262.4,11675.8,1261.4z"/>
		<path id="XMLID_318_" class="st20" d="M11455.6,1213.4c0.7,0,1.2,0,1.7,0c43.8,0,87.6,0,131.4,0c1.3,0,2,0.3,2.2,1.6
			c0.1,0.7,0.4,1.3,0.7,2.1c-0.7,0-1.2,0-1.7,0c-43.8,0-87.7,0-131.5,0c-1.2,0-1.8-0.3-2.1-1.5
			C11456.2,1214.9,11455.9,1214.3,11455.6,1213.4z"/>
		<path id="XMLID_317_" class="st20" d="M11582.8,1117.4c0.7,0,1.2,0,1.8,0c43.4,0,86.8,0,130.2,0c1.2,0,2,0.3,2.8,1.2
			c0.7,0.8,1.6,1.3,2.4,2c-0.1,0.1-0.2,0.3-0.3,0.4c-0.4,0-0.7,0.1-1.1,0.1c-44.3,0-88.7,0-133,0c-1,0-1.5-0.2-1.7-1.2
			C11583.5,1119.1,11583.2,1118.3,11582.8,1117.4z"/>
		<path id="XMLID_316_" class="st20" d="M11451.7,1201.4c0.6,0,1.1,0,1.5,0c43.8,0,87.6,0,131.4,0c1.2,0,1.7,0.3,2,1.4
			c0.2,0.7,0.5,1.3,0.8,2.2c-0.5,0-0.9,0.1-1.2,0.1c-44,0-88.1,0-132.1,0c-0.9,0-1.4-0.2-1.6-1.1
			C11452.2,1203.1,11451.9,1202.4,11451.7,1201.4z"/>
		<path id="XMLID_315_" class="st20" d="M11460,1225.4c0.7,0,1.2,0,1.7,0c43.7,0,87.3,0,131,0c1.5,0,2.2,0.4,2.4,1.8
			c0.1,0.6,0.3,1.1,0.6,1.9c-0.6,0-1.1,0-1.5,0c-43.8,0-87.6,0-131.4,0c-1.1,0-1.6-0.3-1.9-1.3
			C11460.7,1227,11460.3,1226.3,11460,1225.4z"/>
		<path id="XMLID_314_" class="st20" d="M11448.2,1189.4c0.6,0,1.1,0,1.5,0c43.4,0,86.8,0,130.2,0c1.1,0,1.8,0.3,2,1.4
			c0.2,0.7,0.5,1.4,0.8,2.3c-0.6,0-1.1,0-1.6,0c-43.5,0-87,0-130.5,0c-1.2,0-1.8-0.3-1.9-1.5
			C11448.6,1190.9,11448.4,1190.2,11448.2,1189.4z"/>
		<path id="XMLID_313_" class="st20" d="M11599.4,1241.1c-0.6,0-1.1,0-1.6,0c-43.4,0-86.7,0-130.1,0c-1.1,0-1.7-0.2-2-1.3
			c-0.2-0.8-0.6-1.5-0.9-2.4c0.6,0,1.1,0,1.5,0c43.5,0,86.9,0,130.4,0c1.2,0,1.8,0.3,2,1.5
			C11598.9,1239.6,11599.2,1240.3,11599.4,1241.1z"/>
		<path id="XMLID_312_" class="st20" d="M11821.8,1277.1c-0.7,0-1.3,0-1.8,0c-42.2,0-84.5,0-126.7,0c-1.3,0-2.4-0.2-3.2-1.3
			c-0.6-0.8-1.5-1.4-2.4-2.4c0.7,0,1.1,0,1.5,0c43.4,0,86.7,0,130.1,0c1.1,0,1.6,0.3,1.8,1.3
			C11821.2,1275.5,11821.5,1276.2,11821.8,1277.1z"/>
		<path id="XMLID_311_" class="st20" d="M11445.9,1181c-0.3-1.2-0.6-2.3-0.9-3.6c0.5,0,1,0,1.4,0c42.8,0,85.7,0,128.5,0
			c1.1,0,1.7,0.3,2,1.3c0.2,0.8,0.6,1.5,1,2.3C11533.8,1181,11489.9,1181,11445.9,1181z"/>
		<path id="XMLID_310_" class="st20" d="M11602.9,1253.1c-0.6,0-1.1,0-1.6,0c-42.8,0-85.5,0-128.3,0c-1.1,0-1.7-0.3-2-1.3
			c-0.3-0.7-0.6-1.4-1-2.3c0.6,0,1.1,0,1.5,0c43,0,85.9,0,128.9,0c1.2,0,1.8,0.3,1.9,1.5
			C11602.4,1251.6,11602.6,1252.2,11602.9,1253.1z"/>
		<path id="XMLID_309_" class="st20" d="M11442.8,1169c-0.3-1.2-0.6-2.3-0.9-3.6c0.6,0,1.1,0,1.6,0c41.9,0,83.8,0,125.7,0
			c1.1,0,1.8,0.2,2.1,1.3c0.2,0.7,0.6,1.4,1,2.3C11529.1,1169,11486,1169,11442.8,1169z"/>
		<path id="XMLID_308_" class="st20" d="M11605.2,1261.5c0.3,1.2,0.6,2.3,0.9,3.6c-0.6,0-1.1,0-1.6,0c-41.8,0-83.6,0-125.5,0
			c-1.2,0-1.9-0.3-2.3-1.5c-0.2-0.7-0.6-1.4-1-2.1C11518.9,1261.5,11561.9,1261.5,11605.2,1261.5z"/>
		<path id="XMLID_307_" class="st20" d="M11707.9,1109.1c-0.9,0-1.3,0-1.8,0c-41.5,0-82.9,0-124.4,0c-1.4,0-2.1-0.3-2.2-1.7
			c-0.1-0.6-0.3-1.2-0.5-2c0.6,0,1.1,0,1.5,0c40.7,0,81.4,0,122.1,0c1.1,0,2,0.3,2.7,1.1
			C11706,1107.3,11706.8,1108.1,11707.9,1109.1z"/>
		<path id="XMLID_306_" class="st20" d="M11566.6,1157c-42.3,0-84.4,0-126.6,0c-0.3-1.2-0.5-2.3-0.8-3.6c0.6,0,1.1,0,1.6,0
			c40.8,0,81.7,0,122.5,0c1.1,0,1.8,0.2,2.2,1.3C11565.7,1155.5,11566.2,1156.1,11566.6,1157z"/>
		<path id="XMLID_305_" class="st20" d="M11608.1,1273.5c0.3,1.1,0.5,2.3,0.8,3.6c-0.6,0-1.1,0-1.5,0c-40.9,0-81.7,0-122.6,0
			c-1,0-1.6-0.2-1.9-1.2c-0.3-0.8-0.8-1.6-1.2-2.4C11523.8,1273.5,11565.9,1273.5,11608.1,1273.5z"/>
		<path id="XMLID_304_" class="st20" d="M11560.4,1145c-41,0-81.9,0-122.8,0c-0.2-1.1-0.4-2.3-0.7-3.6c0.6,0,1.1,0,1.6,0
			c39.6,0,79.1,0,118.7,0c1.1,0,1.7,0.3,2.1,1.3C11559.5,1143.4,11559.9,1144.1,11560.4,1145z"/>
		<path id="XMLID_303_" class="st20" d="M11825.2,1289.1c-0.6,0-1.1,0-1.6,0c-39.2,0-78.5,0-117.7,0c-0.9,0-1.7-0.2-2.4-0.9
			c-0.9-0.9-1.9-1.7-3-2.7c0.5,0,0.9-0.1,1.2-0.1c40.5,0,80.9,0,121.4,0c0.9,0,1.3,0.2,1.4,1.1
			C11824.7,1287.3,11825,1288.1,11825.2,1289.1z"/>
		<path id="XMLID_302_" class="st20" d="M11488.1,1285.4c41,0,81.7,0,122.6,0c0.2,1.1,0.5,2.3,0.8,3.6c-0.5,0-0.9,0-1.4,0
			c-39.6,0-79.2,0-118.8,0c-0.9,0-1.5-0.2-1.9-1.1C11489.1,1287.2,11488.6,1286.4,11488.1,1285.4z"/>
		<path id="XMLID_301_" class="st20" d="M11435.4,1133c-0.2-1.2-0.4-2.3-0.6-3.6c0.5,0,1,0,1.4,0c38,0,76.1,0,114.1,0
			c1,0,1.6,0.3,2,1.2c0.4,0.8,0.8,1.5,1.3,2.4C11514.2,1133,11474.8,1133,11435.4,1133z"/>
		<path id="XMLID_300_" class="st20" d="M11612.9,1297.5c0.2,1.1,0.4,2.3,0.6,3.6c-0.5,0-0.9,0-1.4,0c-37.9,0-75.8,0-113.7,0
			c-0.9,0-1.5-0.2-1.9-1.1c-0.4-0.8-0.9-1.6-1.5-2.6C11534.4,1297.5,11573.6,1297.5,11612.9,1297.5z"/>
		<path id="XMLID_299_" class="st20" d="M11694.8,1097.1c-0.8,0-1.2,0-1.7,0c-38.3,0-76.5,0-114.8,0c-1.4,0-1.9-0.4-1.9-1.7
			c0-0.6-0.2-1.3-0.3-2c0.6,0,1.1,0,1.6,0c37.1,0,74.3,0,111.4,0c1,0,1.8,0.2,2.6,1C11692.6,1095.2,11693.6,1096,11694.8,1097.1z"/>
		<path id="XMLID_298_" class="st20" d="M11433.6,1121c-0.1-1.2-0.3-2.3-0.4-3.6c0.6,0,1,0,1.5,0c36,0,72.1,0,108.1,0
			c1.1,0,1.8,0.3,2.3,1.3c0.4,0.8,0.9,1.5,1.4,2.3C11508.8,1121,11471.3,1121,11433.6,1121z"/>
		<path id="XMLID_297_" class="st20" d="M11614.7,1309.5c0.1,1.1,0.3,2.2,0.4,3.5c-0.6,0-1.1,0-1.6,0c-35.7,0-71.4,0-107.1,0
			c-1.1,0-1.8-0.3-2.3-1.2c-0.4-0.8-0.9-1.5-1.5-2.3C11540,1309.5,11577.3,1309.5,11614.7,1309.5z"/>
		<path id="XMLID_296_" class="st20" d="M11826.8,1297.5c0.1,1.1,0.2,2.2,0.4,3.5c-0.6,0-1.1,0-1.6,0c-34.9,0-69.8,0-104.8,0
			c-1.1,0-1.9-0.2-2.7-0.9c-1-0.9-2.1-1.6-3.3-2.6C11752.2,1297.5,11789.5,1297.5,11826.8,1297.5z"/>
		<path id="XMLID_295_" class="st20" d="M11432.4,1109c-0.1-1.2-0.2-2.3-0.3-3.6c0.5,0,1,0,1.5,0c33.8,0,67.6,0,101.4,0
			c1,0,1.5,0.3,2,1.1s1.1,1.6,1.7,2.5C11503.2,1109,11467.9,1109,11432.4,1109z"/>
		<path id="XMLID_294_" class="st20" d="M11615.9,1321.5c0.1,1.1,0.1,2.3,0.2,3.6c-0.6,0-1.1,0-1.7,0c-33.2,0-66.4,0-99.6,0
			c-1,0-1.7-0.2-2.3-1.1c-0.5-0.8-1.1-1.6-1.7-2.5C11545.9,1321.5,11580.8,1321.5,11615.9,1321.5z"/>
		<path id="XMLID_293_" class="st20" d="M11679.9,1085.1c-0.5,0-0.9,0-1.4,0c-33.9,0-67.9,0-101.8,0c-1.6,0-1.6,0-1.7-1.7
			c0-0.6,0-1.2,0-1.9c0.5,0,1,0,1.4,0c32.7,0,65.3,0,98,0c0.7,0,1.5,0.3,2.1,0.7c1.2,0.8,2.3,1.7,3.4,2.6
			C11680,1084.9,11679.9,1085,11679.9,1085.1z"/>
		<path id="XMLID_292_" class="st20" d="M11616.1,1337.1c-0.6,0-1.1,0-1.7,0c-30,0-60.1,0-90.1,0c-1.2,0-2-0.3-2.6-1.2
			c-0.5-0.8-1.2-1.5-1.9-2.4c32.2,0,64.2,0,96.3,0C11616.1,1334.7,11616.1,1335.8,11616.1,1337.1z"/>
		<path id="XMLID_291_" class="st20" d="M11730.6,1309.5c32.4,0,64.4,0,96.6,0c-0.1,1.2-0.3,2.3-0.4,3.6c-0.5,0-0.9,0-1.4,0
			c-29.5,0-58.9,0-88.4,0c-0.7,0-1.5-0.3-2.1-0.6C11733.6,1311.5,11732.3,1310.6,11730.6,1309.5z"/>
		<path id="XMLID_290_" class="st20" d="M11432.3,1085c0.1-1.2,0.2-2.3,0.3-3.6c0.5,0,1,0,1.4,0c27.3,0,54.6,0,82,0
			c0.9,0,1.5,0.2,2,0.9c0.7,0.9,1.4,1.7,2.3,2.7C11490.9,1085,11461.7,1085,11432.3,1085z"/>
		<path id="XMLID_289_" class="st20" d="M11663.3,1073c-29.1,0-58.2,0-87.5,0c0.3-1.2,0.6-2.4,0.9-3.6c0.6,0,1,0,1.5,0
			c26.1,0,52.3,0,78.4,0c1,0,1.9,0.2,2.7,0.8c1.3,0.9,2.7,1.7,4,2.6C11663.3,1072.8,11663.3,1072.9,11663.3,1073z"/>
		<path id="XMLID_288_" class="st20" d="M11530.1,1345.5c28.6,0,56.9,0,85.4,0c-0.1,1.2-0.3,2.4-0.4,3.6c-0.6,0-1.1,0-1.5,0
			c-26.2,0-52.4,0-78.6,0c-1,0-1.7-0.2-2.4-1C11531.9,1347.2,11531.1,1346.5,11530.1,1345.5z"/>
		<path id="XMLID_287_" class="st20" d="M11434.2,1073c0.3-1.1,0.6-2.1,0.9-3.1c0.1-0.2,0.4-0.3,0.6-0.4c0.3-0.1,0.6,0,1,0
			c22.3,0,44.7,0,67,0c1.1,0,1.9,0.3,2.6,1c0.8,0.8,1.7,1.6,2.7,2.5C11484,1073,11459.2,1073,11434.2,1073z"/>
		<path id="XMLID_286_" class="st20" d="M11824,1321.5c-0.1,0.2-0.1,0.3-0.1,0.4c-1.7,3.2-1.7,3.2-5.2,3.2c-20.1,0-40.2,0-60.3,0
			c-1,0-2-0.3-2.8-0.7c-1.8-0.8-3.5-1.8-5.2-2.9C11774.8,1321.5,11799.3,1321.5,11824,1321.5z"/>
		<path id="XMLID_285_" class="st20" d="M11542.4,1357.5c23.8,0,47.2,0,70.8,0c-0.4,1.1-0.7,2.1-1.1,3.1c-0.1,0.2-0.4,0.4-0.7,0.5
			s-0.6,0-1,0c-20.7,0-41.4,0-62.1,0c-1.2,0-2.1-0.3-3-1.1C11544.5,1359.2,11543.5,1358.4,11542.4,1357.5z"/>
		<path id="XMLID_284_" class="st20" d="M11581.5,1060.7c1.2-1,2.3-2,3.5-3c0.3-0.2,0.7-0.3,1.1-0.3c15.9,0,31.7,0,47.6,0
			c0.4,0,0.8,0,1.2,0.2c2.5,1,4.9,2.1,7.3,3.3c-20.2,0-40.4,0-60.6,0C11581.6,1060.9,11581.6,1060.8,11581.5,1060.7z"/>
		<path id="XMLID_283_" class="st20" d="M11438.8,1061c0.8-1.2,1.5-2.2,2.3-3.2c0.2-0.2,0.7-0.4,1-0.4c15.4,0,30.8,0,46.2,0
			c0.3,0,0.7,0,1,0.2c1.7,1,3.3,2.1,5.3,3.3C11475.9,1061,11457.5,1061,11438.8,1061z"/>
		<path id="XMLID_282_" class="st20" d="M11559,1369.5c16,0,31.9,0,47.9,0c-0.8,2.1-3,3.6-5.2,3.6c-11.6,0-23.1,0-34.7,0
			c-1.1,0-2.2-0.3-3.2-0.8c-1.7-0.8-3.3-1.7-4.9-2.6C11558.9,1369.6,11558.9,1369.5,11559,1369.5z"/>
		<path id="XMLID_281_" class="st20" d="M11780,1333.5c9.5,0,18.9,0,28.4,0C11798.9,1336.4,11789.5,1335.8,11780,1333.5z"/>
	</g>
	<path id="XMLID_68_" class="st2" d="M10819-96c0,0,6.4-65.6-72-63s21.3-117.1,153-99s138.8,160.3,144,180s-88.5,101.1-135-27
		C10871.9-207.4,10819-96,10819-96z"/>
	<path id="XMLID_74_" class="st18" d="M12583.5,617.5c0,0-26.2-62.3,57.8-95.4C12641.3,522.1,12662.7,586.3,12583.5,617.5z"/>
	<path id="XMLID_73_" class="st18" d="M12515.6,853.1c0,0-4.7-67.4,85.5-71.6C12601.1,781.5,12600.7,849.2,12515.6,853.1z"/>
	<path id="XMLID_72_" class="st18" d="M12655.1,792.1c0,0,50.4-45.1,109,23.5C12764.2,815.6,12710.5,856.8,12655.1,792.1z"/>
	<path id="XMLID_71_" class="st17" d="M12690.9,722.2c0,0,15-65.9,102.6-43.8C12793.5,678.4,12773.5,743.1,12690.9,722.2z"/>
	<path id="XMLID_70_" class="st18" d="M12774.5,511.9c0,0-48.2-13.5-26.5-84C12748,427.9,12795,445.4,12774.5,511.9z"/>
	<path id="XMLID_69_" class="st18" d="M12930.5,398.7c0,0-22.8-34.3,23.7-63.7C12954.3,335,12974.4,371,12930.5,398.7z"/>
	<path id="XMLID_67_" class="st18" d="M12880.9,494.9c0,0,37.7-16.8,58.9,34C12939.8,528.9,12901,542.8,12880.9,494.9z"/>
	<path id="XMLID_76_" class="st18" d="M12369.1,919.4c0,0-45,32-82.6-23.3C12286.5,896.1,12333.6,867.3,12369.1,919.4z"/>
	<path id="XMLID_75_" class="st18" d="M12381.9,608.9c0,0-51.4,43.9-108.5-26C12273.5,582.9,12328.1,543,12381.9,608.9z"/>
</g>
<g id="Warstwa_3">
	<rect id="XMLID_78_" x="9671" y="-142" class="st18" width="7" height="22"/>
	
		<rect id="XMLID_138_" x="9734.7" y="-137.4" transform="matrix(0.3299 0.944 -0.944 0.3299 6404.1357 -9289.8262)" class="st18" width="22" height="7"/>
	<rect id="XMLID_83_" x="9633" y="-142" class="st18" width="7" height="22"/>
	<rect id="XMLID_84_" x="9633" y="-176" class="st18" width="7" height="22"/>
	<rect id="XMLID_85_" x="9671" y="-176" class="st18" width="7" height="22"/>
	
		<rect id="XMLID_86_" x="9705.6" y="-171.3" transform="matrix(0.3397 0.9405 -0.9405 0.3397 6257.8926 -9249.5332)" class="st18" width="22" height="7"/>
	
		<rect id="XMLID_137_" x="9729.6" y="-171.3" transform="matrix(0.3397 0.9405 -0.9405 0.3397 6273.7407 -9272.1055)" class="st18" width="22" height="7"/>
	<rect id="XMLID_87_" x="9671" y="-211" class="st18" width="7" height="22"/>
	<rect id="XMLID_88_" x="9633" y="-211" class="st18" width="7" height="22"/>
	
		<rect id="XMLID_82_" x="9711.1" y="-205.9" transform="matrix(0.7548 0.6559 -0.6559 0.7548 2250.5459 -6426.7148)" class="st18" width="22" height="6"/>
	<rect id="XMLID_90_" x="9633" y="-42" class="st18" width="7" height="22"/>
	<rect id="XMLID_89_" x="9633" y="-76" class="st18" width="7" height="22"/>
	<rect id="XMLID_79_" x="9633" y="-111" class="st18" width="7" height="22"/>
	<rect id="XMLID_94_" x="9633" y="60" class="st18" width="7" height="22"/>
	<rect id="XMLID_93_" x="9633" y="26" class="st18" width="7" height="22"/>
	<rect id="XMLID_92_" x="9633" y="-9" class="st18" width="7" height="22"/>
	<rect id="XMLID_97_" x="9633" y="162" class="st18" width="7" height="22"/>
	<rect id="XMLID_96_" x="9633" y="128" class="st18" width="7" height="22"/>
	<rect id="XMLID_95_" x="9633" y="93" class="st18" width="7" height="22"/>
	<rect id="XMLID_100_" x="9633" y="265" class="st18" width="7" height="22"/>
	<rect id="XMLID_99_" x="9633" y="231" class="st18" width="7" height="22"/>
	<rect id="XMLID_98_" x="9633" y="196" class="st18" width="7" height="22"/>
	<rect id="XMLID_112_" x="9671" y="-42" class="st18" width="7" height="22"/>
	<rect id="XMLID_111_" x="9671" y="-76" class="st18" width="7" height="22"/>
	<rect id="XMLID_110_" x="9671" y="-111" class="st18" width="7" height="22"/>
	<rect id="XMLID_109_" x="9671" y="60" class="st18" width="7" height="22"/>
	<rect id="XMLID_108_" x="9671" y="26" class="st18" width="7" height="22"/>
	<rect id="XMLID_107_" x="9671" y="-9" class="st18" width="7" height="22"/>
	<rect id="XMLID_106_" x="9671" y="162" class="st18" width="7" height="22"/>
	<rect id="XMLID_105_" x="9671" y="128" class="st18" width="7" height="22"/>
	<rect id="XMLID_104_" x="9671" y="93" class="st18" width="7" height="22"/>
	<rect id="XMLID_103_" x="9671" y="265" class="st18" width="7" height="22"/>
	<rect id="XMLID_102_" x="9671" y="231" class="st18" width="7" height="22"/>
	<rect id="XMLID_101_" x="9671" y="196" class="st18" width="7" height="22"/>
	<rect id="XMLID_124_" x="9712" y="-42" class="st18" width="7" height="22"/>
	<rect id="XMLID_123_" x="9712" y="-76" class="st18" width="7" height="22"/>
	<rect id="XMLID_122_" x="9712" y="-111" class="st18" width="7" height="22"/>
	<rect id="XMLID_91_" x="9709" y="-142" class="st18" width="7" height="22"/>
	<rect id="XMLID_121_" x="9712" y="60" class="st18" width="7" height="22"/>
	<rect id="XMLID_120_" x="9712" y="26" class="st18" width="7" height="22"/>
	<rect id="XMLID_119_" x="9712" y="-9" class="st18" width="7" height="22"/>
	<rect id="XMLID_118_" x="9712" y="162" class="st18" width="7" height="22"/>
	<rect id="XMLID_117_" x="9712" y="128" class="st18" width="7" height="22"/>
	<rect id="XMLID_116_" x="9712" y="93" class="st18" width="7" height="22"/>
	<rect id="XMLID_115_" x="9712" y="265" class="st18" width="7" height="22"/>
	<rect id="XMLID_114_" x="9712" y="231" class="st18" width="7" height="22"/>
	<rect id="XMLID_113_" x="9712" y="196" class="st18" width="7" height="22"/>
	<rect id="XMLID_136_" x="9746" y="-37" class="st18" width="7" height="22"/>
	<rect id="XMLID_135_" x="9746" y="-71" class="st18" width="7" height="22"/>
	<rect id="XMLID_134_" x="9746" y="-106" class="st18" width="7" height="22"/>
	<rect id="XMLID_133_" x="9746" y="65" class="st18" width="7" height="22"/>
	<rect id="XMLID_132_" x="9746" y="31" class="st18" width="7" height="22"/>
	<rect id="XMLID_131_" x="9746" y="-4" class="st18" width="7" height="22"/>
	<rect id="XMLID_130_" x="9746" y="167" class="st18" width="7" height="22"/>
	<rect id="XMLID_129_" x="9746" y="133" class="st18" width="7" height="22"/>
	<rect id="XMLID_128_" x="9746" y="98" class="st18" width="7" height="22"/>
	<rect id="XMLID_127_" x="9746" y="270" class="st18" width="7" height="22"/>
	<rect id="XMLID_126_" x="9746" y="236" class="st18" width="7" height="22"/>
	<rect id="XMLID_125_" x="9746" y="201" class="st18" width="7" height="22"/>
	<rect id="XMLID_336_" x="9633" y="338" class="st18" width="7" height="22"/>
	<rect id="XMLID_335_" x="9633" y="304" class="st18" width="7" height="22"/>
	<rect id="XMLID_334_" x="9633" y="440" class="st18" width="7" height="22"/>
	<rect id="XMLID_333_" x="9633" y="406" class="st18" width="7" height="22"/>
	<rect id="XMLID_280_" x="9633" y="371" class="st18" width="7" height="22"/>
	<rect id="XMLID_279_" x="9633" y="542" class="st18" width="7" height="22"/>
	<rect id="XMLID_278_" x="9633" y="508" class="st18" width="7" height="22"/>
	<rect id="XMLID_277_" x="9633" y="473" class="st18" width="7" height="22"/>
	<rect id="XMLID_276_" x="9633" y="645" class="st18" width="7" height="22"/>
	<rect id="XMLID_275_" x="9633" y="611" class="st18" width="7" height="22"/>
	<rect id="XMLID_274_" x="9633" y="576" class="st18" width="7" height="22"/>
	<rect id="XMLID_273_" x="9671" y="338" class="st18" width="7" height="22"/>
	<rect id="XMLID_272_" x="9671" y="304" class="st18" width="7" height="22"/>
	<rect id="XMLID_271_" x="9671" y="440" class="st18" width="7" height="22"/>
	<rect id="XMLID_270_" x="9671" y="406" class="st18" width="7" height="22"/>
	<rect id="XMLID_269_" x="9671" y="371" class="st18" width="7" height="22"/>
	<rect id="XMLID_268_" x="9671" y="542" class="st18" width="7" height="22"/>
	<rect id="XMLID_267_" x="9671" y="508" class="st18" width="7" height="22"/>
	<rect id="XMLID_266_" x="9671" y="473" class="st18" width="7" height="22"/>
	<rect id="XMLID_265_" x="9671" y="645" class="st18" width="7" height="22"/>
	<rect id="XMLID_264_" x="9671" y="611" class="st18" width="7" height="22"/>
	<rect id="XMLID_263_" x="9671" y="576" class="st18" width="7" height="22"/>
	<rect id="XMLID_262_" x="9712" y="338" class="st18" width="7" height="22"/>
	<rect id="XMLID_261_" x="9712" y="304" class="st18" width="7" height="22"/>
	<rect id="XMLID_260_" x="9712" y="440" class="st18" width="7" height="22"/>
	<rect id="XMLID_259_" x="9712" y="406" class="st18" width="7" height="22"/>
	<rect id="XMLID_258_" x="9712" y="371" class="st18" width="7" height="22"/>
	<rect id="XMLID_257_" x="9712" y="542" class="st18" width="7" height="22"/>
	<rect id="XMLID_256_" x="9712" y="508" class="st18" width="7" height="22"/>
	<rect id="XMLID_255_" x="9712" y="473" class="st18" width="7" height="22"/>
	<rect id="XMLID_254_" x="9712" y="645" class="st18" width="7" height="22"/>
	<rect id="XMLID_253_" x="9712" y="611" class="st18" width="7" height="22"/>
	<rect id="XMLID_252_" x="9712" y="576" class="st18" width="7" height="22"/>
	<rect id="XMLID_251_" x="9746" y="343" class="st18" width="7" height="22"/>
	<rect id="XMLID_250_" x="9746" y="309" class="st18" width="7" height="22"/>
	<rect id="XMLID_249_" x="9746" y="445" class="st18" width="7" height="22"/>
	<rect id="XMLID_248_" x="9746" y="411" class="st18" width="7" height="22"/>
	<rect id="XMLID_247_" x="9746" y="376" class="st18" width="7" height="22"/>
	<rect id="XMLID_246_" x="9746" y="547" class="st18" width="7" height="22"/>
	<rect id="XMLID_244_" x="9746" y="513" class="st18" width="7" height="22"/>
	<rect id="XMLID_163_" x="9746" y="478" class="st18" width="7" height="22"/>
	<rect id="XMLID_141_" x="9746" y="650" class="st18" width="7" height="22"/>
	<rect id="XMLID_140_" x="9746" y="616" class="st18" width="7" height="22"/>
	<rect id="XMLID_139_" x="9746" y="581" class="st18" width="7" height="22"/>
	<rect id="XMLID_380_" x="9633" y="714" class="st18" width="7" height="22"/>
	<rect id="XMLID_379_" x="9633" y="680" class="st18" width="7" height="22"/>
	<rect id="XMLID_378_" x="9633" y="816" class="st18" width="7" height="22"/>
	<rect id="XMLID_377_" x="9633" y="782" class="st18" width="7" height="22"/>
	<rect id="XMLID_376_" x="9633" y="747" class="st18" width="7" height="22"/>
	<rect id="XMLID_375_" x="9633" y="918" class="st18" width="7" height="22"/>
	<rect id="XMLID_374_" x="9633" y="884" class="st18" width="7" height="22"/>
	<rect id="XMLID_373_" x="9633" y="849" class="st18" width="7" height="22"/>
	<rect id="XMLID_372_" x="9633" y="1021" class="st18" width="7" height="22"/>
	<rect id="XMLID_371_" x="9633" y="987" class="st18" width="7" height="22"/>
	<rect id="XMLID_370_" x="9633" y="952" class="st18" width="7" height="22"/>
	<rect id="XMLID_369_" x="9671" y="714" class="st18" width="7" height="22"/>
	<rect id="XMLID_368_" x="9671" y="680" class="st18" width="7" height="22"/>
	<rect id="XMLID_367_" x="9671" y="816" class="st18" width="7" height="22"/>
	<rect id="XMLID_366_" x="9671" y="782" class="st18" width="7" height="22"/>
	<rect id="XMLID_365_" x="9671" y="747" class="st18" width="7" height="22"/>
	<rect id="XMLID_364_" x="9671" y="918" class="st18" width="7" height="22"/>
	<rect id="XMLID_363_" x="9671" y="884" class="st18" width="7" height="22"/>
	<rect id="XMLID_362_" x="9671" y="849" class="st18" width="7" height="22"/>
	<rect id="XMLID_360_" x="9671" y="987" class="st18" width="7" height="22"/>
	<rect id="XMLID_359_" x="9671" y="952" class="st18" width="7" height="22"/>
	<rect id="XMLID_358_" x="9712" y="714" class="st18" width="7" height="22"/>
	<rect id="XMLID_357_" x="9712" y="680" class="st18" width="7" height="22"/>
	<rect id="XMLID_356_" x="9712" y="816" class="st18" width="7" height="22"/>
	<rect id="XMLID_355_" x="9712" y="782" class="st18" width="7" height="22"/>
	<rect id="XMLID_354_" x="9712" y="747" class="st18" width="7" height="22"/>
	<rect id="XMLID_353_" x="9712" y="918" class="st18" width="7" height="22"/>
	<rect id="XMLID_352_" x="9712" y="884" class="st18" width="7" height="22"/>
	<rect id="XMLID_351_" x="9712" y="849" class="st18" width="7" height="22"/>
	<rect id="XMLID_348_" x="9712" y="952" class="st18" width="7" height="22"/>
	<rect id="XMLID_347_" x="9746" y="719" class="st18" width="7" height="22"/>
	<rect id="XMLID_346_" x="9746" y="685" class="st18" width="7" height="22"/>
	<rect id="XMLID_345_" x="9746" y="821" class="st18" width="7" height="22"/>
	<rect id="XMLID_344_" x="9746" y="787" class="st18" width="7" height="22"/>
	<rect id="XMLID_343_" x="9746" y="752" class="st18" width="7" height="22"/>
	<rect id="XMLID_342_" x="9746" y="923" class="st18" width="7" height="22"/>
	<rect id="XMLID_341_" x="9746" y="889" class="st18" width="7" height="22"/>
	<rect id="XMLID_340_" x="9746" y="854" class="st18" width="7" height="22"/>
</g>
</svg>
