<?xml version="1.0" encoding="utf-8"?>
<!-- Generator: Adobe Illustrator 19.0.0, SVG Export Plug-In . SVG Version: 6.00 Build 0)  -->
<svg version="1.1" id="Warstwa_1" xmlns="http://www.w3.org/2000/svg" xmlns:xlink="http://www.w3.org/1999/xlink" x="0px" y="0px"
	 viewBox="63 2679 10125 4644" style="enable-background:new 63 2679 10125 4644;" xml:space="preserve">
<style type="text/css">
	.st0{fill:#A4DCD7;}
	.st1{fill:#0E1A17;}
	.st2{fill:#242D26;}
	.st3{fill:#00D1B2;}
	.st4{fill:#A8FFCD;}
	.st5{fill:#E1F1EE;}
	.st6{fill:#333333;}
	.st7{fill:#5FBD44;}
	.st8{fill:#C5C5BF;stroke:#333333;stroke-width:3.309;stroke-miterlimit:10;}
	.st9{fill:#E1F1EE;stroke:#333333;stroke-width:3.9715;stroke-miterlimit:10;}
	.st10{fill:#C5C5BF;stroke:#333333;stroke-width:3.6749;stroke-miterlimit:10;}
	.st11{fill:#E1F1EE;stroke:#333333;stroke-width:4.4107;stroke-miterlimit:10;}
	.st12{fill:none;stroke:#333333;stroke-width:4.4099;stroke-miterlimit:10;}
	.st13{fill:#DED6A2;}
	.st14{fill:#CCCBA2;}
	.st15{fill:#E1F1EE;stroke:#333333;stroke-width:5.5157;stroke-miterlimit:10;}
	.st16{fill:#F6D6D9;}
	.st17{fill:#E1F1EE;stroke:#333333;stroke-width:3.8714;stroke-miterlimit:10;}
	.st18{fill:#E1F1EE;stroke:#333333;stroke-width:5.82;stroke-miterlimit:10;}
	.st19{fill:none;stroke:#333333;stroke-width:15.8751;stroke-miterlimit:10;}
	.st20{fill:#73C47D;}
	.st21{fill:#F6D6D9;stroke:#333333;stroke-width:4.4099;stroke-miterlimit:10;}
	.st22{fill:none;stroke:#333333;stroke-width:3.9382;stroke-miterlimit:10;}
	.st23{fill:none;stroke:#333333;stroke-width:4.3048;stroke-miterlimit:10;}
</style>
<path class="st0" d="M2658.4,5544.7c0-966.3,783.4-1749.6,1749.6-1749.6c289.8,0,563.2,70.4,803.9,195.2
	c124.1-613.3,666.1-1074.9,1316-1074.9c737.2,0,1335.7,594.1,1342.6,1329.8c137.8-99.1,306.8-157.6,489.5-157.6
	c463.3,0,838.9,375.6,838.9,838.9c0,463.3-375.6,838.9-838.9,838.9c-392.2,0-721.4-269.1-813.3-632.6
	c-246.2,286.4-1153.1,384.6-1536.7,384.6"/>
<polygon class="st1" points="2356.9,5506.9 2592.8,5162.6 2686.6,5279.8 3019.8,4813.4 3317.2,5331.6 3500.7,5218.9 3621,5279.8 
	3911,4767.2 4168.4,5235.1 4283,5279.8 4366.3,5506.9 "/>
<path id="XMLID_80_" class="st2" d="M1110.5,5500.5c0,0,8446.9-6.1,8446.9,17.1v639.5c-1499.5,688.1-7716.7,228.2-6902.2-122
	C594.3,6003.3,3778.7,5500.5,1110.5,5500.5z"/>
<ellipse class="st1" cx="6190.8" cy="5719.2" rx="615.2" ry="73.5"/>
<polygon class="st1" points="8478.5,5508.3 9375.6,3933.7 9559.1,4383.5 9557.3,5517.7 "/>
<path class="st2" d="M5378.3,3930.6l-30.5,829.9c-3.7,101.3,73.3,186,170.5,187.5l1575.3,24.9c95.3,1.5,173.9-77.5,175.8-176.9
	l16.9-854.8c2-101.2-76.1-184.3-173.2-184.3H5551.4C5458.3,3756.9,5381.8,3833.6,5378.3,3930.6z"/>
<path class="st3" d="M5265.1,4032.5l-29.9,829.9c-3.6,101.3,71.9,186,167.2,187.5l1545.2,24.9c93.5,1.5,170.5-77.5,172.5-176.9
	l16.5-854.8c2-101.2-74.7-184.3-169.9-184.3H5434.9C5343.6,3858.8,5268.6,3935.5,5265.1,4032.5z"/>
<path class="st4" d="M5381.5,4103.9l-26.1,682.5c-3.2,83.3,62.8,153,146.2,154.2l1350.9,20.5c81.7,1.2,149.1-63.8,150.8-145.5
	l14.5-703c1.7-83.2-65.3-151.6-148.5-151.6H5530C5450.1,3961,5384.6,4024.1,5381.5,4103.9z"/>
<path class="st2" d="M6786.5,4560.9c-29.5,17.9-64.1,28.2-101.2,28.2c-107.8,0-195.2-87.4-195.2-195.2s87.4-195.2,195.2-195.2"/>
<path class="st5" d="M6880.5,4393.9c0,70.8-37.7,132.7-94,167l-101.2-167H6880.5"/>
<path class="st3" d="M6685.3,4198.7c107.8,0,195.2,87.4,195.2,195.2h-195.2V4198.7z"/>
<g id="XMLID_281_">
	<path id="XMLID_405_" class="st4" d="M8169.4,4402.8c34.5,0,61.9,27.5,61.8,62.1c0,34.8-27.6,62.2-62.6,62.1
		c-34.3-0.1-62.2-28-62.1-62.2C8106.5,4430.3,8134.3,4402.8,8169.4,4402.8z"/>
	<path id="XMLID_395_" class="st4" d="M8168.6,4734c-34.3-0.2-62.4-28.3-62.2-62.3c0.2-34.2,28.3-62.2,62.4-62.2
		c34.7,0,62.6,28,62.3,62.8C8230.9,4706.8,8203.3,4734.2,8168.6,4734z"/>
	<path id="XMLID_394_" class="st4" d="M8169,5147.2c-34.3,0-62.3-27.7-62.5-62c-0.2-33.9,28-62.3,62.1-62.5
		c34.7-0.2,62.7,27.7,62.6,62.6C8231.1,5119.7,8203.5,5147.1,8169,5147.2z"/>
	<path id="XMLID_391_" class="st4" d="M8169,4196c34.6,0.1,62.1,27.5,62.2,62c0.1,34.7-28,62.7-62.6,62.5
		c-34.2-0.3-62.4-28.7-62.1-62.6C8106.8,4223.6,8134.7,4195.9,8169,4196z"/>
	<path id="XMLID_390_" class="st4" d="M8375.4,4402.8c35,0,62.6,27.6,62.4,62.5c-0.2,34.6-27.6,61.9-62.4,61.8
		c-34.6,0-61.9-27.4-61.9-62.1C8313.5,4430.3,8340.8,4402.9,8375.4,4402.8z"/>
	<path id="XMLID_385_" class="st4" d="M8210.3,4568.1c0.1-34.4,28.1-62.1,62.5-61.9c34.5,0.3,61.9,28,61.9,62.6
		c-0.1,34.6-27.6,61.8-62.5,61.7C8237.4,4630.3,8210.1,4602.8,8210.3,4568.1z"/>
	<path id="XMLID_384_" class="st4" d="M8272.4,5043.6c-34.7,0-62.1-27.4-62.1-62c0-34.6,27.6-62.2,62.1-62.2
		c34.4,0,62.1,27.7,62.1,62.2C8334.5,5016.2,8307.1,5043.6,8272.4,5043.6z"/>
	<path id="XMLID_339_" class="st4" d="M8169.1,4940.3c-34.6,0-62.3-27.2-62.6-61.6c-0.4-34.3,28-62.4,62.7-62.4
		c34.4,0,62,27.6,62,62.1C8231.2,4912.8,8203.6,4940.3,8169.1,4940.3z"/>
	<path id="XMLID_332_" class="st4" d="M8169.3,3989.7c34.5,0,61.9,27.6,61.9,62.1c-0.1,34.4-27.8,61.9-62.3,61.9
		c-34.3,0-62.3-27.7-62.5-61.9C8106.2,4017.3,8134.3,3989.7,8169.3,3989.7z"/>
	<path id="XMLID_327_" class="st4" d="M8375.6,5147.2c-34.6,0-61.9-27.3-62.1-62c-0.2-34.4,27.4-62.4,61.7-62.5
		c34.6-0.2,62.6,27.8,62.6,62.5C8437.7,5119.6,8410,5147.2,8375.6,5147.2z"/>
	<path id="XMLID_326_" class="st4" d="M8375.7,4734c-34.6,0.1-61.9-27.1-62.2-61.9c-0.3-34.4,27.3-62.5,61.6-62.6
		c34.7-0.2,62.7,27.7,62.6,62.4C8437.8,4706.3,8410.2,4733.9,8375.7,4734z"/>
	<path id="XMLID_321_" class="st4" d="M8003.4,4568.5c-0.1-34.5,27.3-62,61.9-62.3c34.5-0.3,62.8,28.1,62.6,62.5
		c-0.2,34.4-27.8,61.8-62.4,61.8C8030.8,4630.4,8003.4,4603.1,8003.4,4568.5z"/>
	<path id="XMLID_320_" class="st4" d="M8066.3,4712.9c35.2,1.1,62.5,29.4,61.5,63.7c-1,34.3-30,62.1-63.5,61
		c-35.3-1.2-62.2-29.9-60.9-65C8004.7,4739,8033.3,4711.9,8066.3,4712.9z"/>
	<path id="XMLID_319_" class="st4" d="M8003.4,4981.9c-0.2-34.5,27-62.1,61.7-62.6c34.4-0.4,62.9,27.8,62.9,62.3
		c0,34.4-27.7,61.9-62.2,61.9C8030.9,5043.6,8003.5,5016.5,8003.4,4981.9z"/>
	<path id="XMLID_316_" class="st4" d="M8024.1,4465.5c-0.1,34.6-27.4,61.8-62.1,61.7c-34.3-0.1-62.2-28.1-62-62.3
		c0.2-34.8,27.9-62,63.1-62C7997.4,4402.9,8024.2,4430.3,8024.1,4465.5z"/>
	<path id="XMLID_314_" class="st4" d="M8375.5,4196c34.9,0,62.6,27.8,62.4,62.6c-0.3,34.3-28.2,62.1-62.4,61.9
		c-34.4-0.2-61.9-27.9-61.9-62.3C8313.6,4223.6,8341,4196,8375.5,4196z"/>
	<path id="XMLID_309_" class="st4" d="M8210.3,4361.4c0-34.3,27.8-62.2,62-62.3c34-0.1,62.1,28,62.2,62.2
		c0.1,34.7-28,62.9-62.5,62.6C8237.6,4423.5,8210.2,4395.9,8210.3,4361.4z"/>
	<path id="XMLID_307_" class="st4" d="M8003.4,4361.9c-0.2-34.4,27.3-62.3,61.7-62.8c34.1-0.4,62.9,28.2,62.8,62.5
		c0,34.2-28,62.1-62.2,62.2C8031.4,4423.9,8003.5,4396.3,8003.4,4361.9z"/>
	<path id="XMLID_304_" class="st4" d="M8065,4216.7c-34.6-0.1-61.9-27.6-61.6-62.2c0.2-34.5,28-62.1,62.3-62
		c34.1,0.1,62.1,28.1,62.2,62.3C8128,4189.3,8100.2,4216.8,8065,4216.7z"/>
	<path id="XMLID_294_" class="st4" d="M8274.1,4713c35.7,1.8,61.9,30.1,60.4,65.3c-1.5,33.7-31.4,61.2-64.3,59.2
		c-36-2.2-61.8-30.8-59.9-66.7C8211.9,4738.2,8241.6,4711.3,8274.1,4713z"/>
	<path id="XMLID_292_" class="st4" d="M7962.1,4734c-34.5-0.2-62.4-28.2-62.2-62.3c0.2-34.2,28.3-62.2,62.5-62.2
		c34.9,0,62,28.1,61.8,64C8023.8,4707,7995.9,4734.2,7962.1,4734z"/>
	<path id="XMLID_291_" class="st4" d="M8024.1,5085.4c-0.1,34.4-27.2,61.7-61.4,61.9c-34.7,0.2-63.3-28.3-62.7-62.6
		c0.5-34.5,28.5-62.1,62.7-61.9C7997,5022.9,8024.2,5050.5,8024.1,5085.4z"/>
	<path id="XMLID_288_" class="st4" d="M7962.3,4196c34.6,0,61.8,27.4,61.8,62.2c0,34.6-27.6,62.5-61.9,62.3
		c-34.3-0.2-62.3-28.3-62.3-62.4C7899.9,4223.9,7927.9,4196,7962.3,4196z"/>
	<path id="XMLID_286_" class="st4" d="M8272,4216.7c-34.6-0.1-61.9-27.5-61.8-62.3c0.1-34.3,28.3-62.3,62.5-61.9
		c34.3,0.3,61.9,28.3,61.8,62.7C8334.3,4189.8,8307,4216.7,8272,4216.7z"/>
	<path id="XMLID_285_" class="st4" d="M8375.7,4940.3c-34.7,0-62-27.2-62.1-61.9c-0.1-34.5,27.5-62.1,61.9-62.1s62.2,27.6,62.3,61.9
		C8437.8,4912.7,8410.2,4940.3,8375.7,4940.3z"/>
	<path id="XMLID_284_" class="st4" d="M8376.1,3989.7c34.4,0,62,27.9,61.8,62.4c-0.3,34.4-28.1,61.8-62.6,61.7
		c-34-0.1-61.4-27.6-61.7-61.8C8313.3,4017,8340.8,3989.6,8376.1,3989.7z"/>
	<path id="XMLID_283_" class="st4" d="M8024.1,4878.8c-0.1,34.6-27.4,61.7-62.2,61.6c-33.9-0.1-61.5-27.5-61.9-61.6
		c-0.4-34.2,27.9-62.5,62.7-62.5C7997.1,4816.3,8024.2,4843.9,8024.1,4878.8z"/>
	<path id="XMLID_282_" class="st4" d="M8024.1,4052.1c-0.1,34.1-27.6,61.6-61.6,61.6c-34.4,0-62.2-27.5-62.6-61.9
		c-0.4-34.6,27.9-62.3,63.6-62.2C7997.4,3989.8,8024.2,4017.3,8024.1,4052.1z"/>
</g>
<g>
	<ellipse class="st1" cx="8792.8" cy="5626.2" rx="365.5" ry="85.1"/>
	<rect x="8665.7" y="5205.6" class="st6" width="254.2" height="420.6"/>
	<polygon class="st7" points="8792,3701.2 8463,4473.4 8537.1,4428 8373.2,4791.1 8482.1,4710.6 8300.5,5045.3 8409.4,4958.7 
		8217.3,5308.6 8345.9,5236 8128.1,5562.7 8792.8,5302.6 9449.6,5568.3 9268.8,5236 9380.8,5263.2 9158.3,4908.6 9269.5,4998.5 
		9097.4,4671.6 9202,4752.3 9024.6,4398.9 9090.3,4446.1 	"/>
</g>
<g>
	<path class="st8" d="M7811.4,3632.2c0,0-67.7-72.1-44.7-151.7c23-79.6,141.3-84.8,134.1-145.8
		C7900.8,3334.7,7975.4,3575.7,7811.4,3632.2z"/>
	<path class="st9" d="M7962.8,3690.6c16.5-16.2,22.2-36.4,9.8-60.1c-42.9-81.6-150.1-71.1-174.1-54.7
		c-21.5,14.7-50.9-42.3-58.7-44.3c-8.1-7.9-20.2-11.6-32.5-8.5c-18.3,4.5-29.7,22.2-25.4,39.5c3,12.3,13.3,26.5,25.5,23.6l6.8-1.2
		c0.4,0.1,39.1,75.8,86.7,113c20.2,15.7,55.8,31.6,99.7,23.1l16.3,29.5l1.7-34.1c2.1-0.7,4.2-1.4,6.2-2.2l14.2,25.8l1.6-32.9
		c5.4-2.9,10.4-6.1,14.9-9.7c18.1,6.7,66.4,22.9,75.3,10c4.4-6.3-7.7-9.6-23.9-11.2c21.2-1.2,41.3-4.6,46.8-12.6
		C8064.1,3668.5,7994.7,3682.9,7962.8,3690.6z"/>
	<polygon class="st5" points="7938.1,3736.8 7926,3753.7 7935.9,3747.6 7938.6,3755.8 7943.9,3746.1 7956.1,3744.7 	"/>
	<path class="st9" d="M7782.3,3632.2c0,0-20.4-96.8,40.7-152.9c61.1-56.1,164.8,1.1,190.4-54.8
		C8013.4,3424.7,7951.7,3669.3,7782.3,3632.2z"/>
	<path class="st6" d="M7686.9,3536.8c8.2-13.3-48.8,39-47.8,48.5l34.7-11.7l-24.2,17.7l40.8-14.7
		C7690.3,3576.6,7671.1,3562.3,7686.9,3536.8z"/>
	<circle class="st6" cx="7708.6" cy="3541.6" r="4.8"/>
	<polygon class="st5" points="7918.3,3749.9 7897.9,3780.7 7914.3,3766.9 7922,3774.7 7921.2,3761.6 7935.6,3762.6 	"/>
</g>
<g>
	<path class="st10" d="M5772.3,3442.1c0,0-46-99.7,6.2-175.6c52.2-75.8,178.7-39.6,192.5-106.4
		C5971,3160,5964.9,3440.2,5772.3,3442.1z"/>
	<path class="st11" d="M5970.5,3454.8c13.5-21.9,14.3-45.2-5.4-67.4c-68-76.6-180.8-36.6-202.3-12.4c-19.2,21.6-66.1-32-75.1-32.1
		c-10.8-6.4-24.9-7-37.3-0.5c-18.5,9.7-26.1,31.8-16.9,49.3c6.6,12.5,21.5,25,33.8,18.6l7-3.2c0.4,0,62.4,71.3,123.7,98.6
		c25.9,11.6,68.6,19.2,113.6-1.7l25.4,27.4l-7.3-37.2c2.1-1.3,4.1-2.6,6.1-4l22.2,24l-7-36c5.1-4.5,9.6-9.4,13.5-14.4
		c21.3,2.4,77.6,6.9,83.8-9.3c3.1-7.9-10.8-8.3-28.7-5.7c22.6-7,43.3-16,47.1-26.1C6073.8,3403.9,6002.9,3438,5970.5,3454.8z"/>
	<polygon class="st5" points="5956.3,3511.3 5947.7,3532.7 5956.7,3523.5 5961.8,3531.5 5965,3519.7 5977.8,3515 	"/>
	<path class="st11" d="M5741.6,3431.8c0,0,12.5-109.1,96.6-146.8s173.2,59.1,219.9,9.2C6058,3294.4,5907.1,3530.4,5741.6,3431.8z"/>
	<path class="st6" d="M5632.8,3363.1c5.7-16.4-43.5,54.1-40.1,64.1l34.7-21.1l-21.9,25l40.6-25.8
		C5646.1,3405.4,5621.9,3394.6,5632.8,3363.1z"/>
	<circle class="st6" cx="5656.7" cy="3362.1" r="5.3"/>
	<polygon class="st5" points="5938.5,3530.7 5924.6,3569.3 5938.6,3550 5949,3556.3 5944.7,3542.5 5960.4,3539.7 	"/>
</g>
<path class="st12" d="M7901.4,5081.5l36.6,183.2c0,0-29.9,18.5-167-119c0,0-5.7-87.6-39.2-100.7c0,0-19.8-13-9.3,67.1l-100.2-67.1
	c0,0-101.5,110.3,121.4,283.7c0,0,139,119.8,229.5,136.8"/>
<g>
	<g>
		<path class="st1" d="M8257,5814.6c-3.5,148-364.3,342.6-961.2,342.6c-386.9,0-948.6-23.2-948.6-84.5
			c0-61.3,670.6-169.8,1057.5-169.8S8258.4,5753.3,8257,5814.6z"/>
		<path class="st13" d="M7295.8,5517.2c0,0,0,463.3,475.8,443c475.8-20.3,617.9-178.8,582.4-548.7
			c-35.5-369.8-259.2-613.7-348-609.6S7295.8,5249,7295.8,5517.2z"/>
		<path class="st14" d="M8059.7,5725.7c0,0,203.8-22.9,188-291.8c-15.8-268.9-153.6-600.1-254-587.3
			c-100.5,12.8-424,266.3-518.7,522.7c-94.7,256.4,204.3,347,204.3,347L8059.7,5725.7z"/>
		<g>
			<path class="st15" d="M6869.6,5959.7l471.8-439.1c0,0,439.6,144.7,502.2,144.5c62.6-0.2,4.3-346.7-95.7-377.3
				c-100.1-30.6-573.9-53.1-618.8,0c-44.9,53.1-457.5,449.3-457.5,449.3L6869.6,5959.7z"/>
			<path class="st16" d="M7451.1,5015.6c0,0-120.3,201.5-327.6,259c0,0-69.1,1.9-82.5-30.7c-13.4-32.6-40.3,30.7,0,49.9
				c40.3,19.2,40.3,0,40.3,0s-122.8,32.6-122.8,57.6s76.7,82.5,124.7,72.9c48-9.6,370.7-127.9,501.2-316.3L7451.1,5015.6z"/>
			<path class="st6" d="M7827.5,4920.2c0,0-61.3,112.3-100.1,0c0,0-105.6-9.5-168.9,22.7c-63.3,32.2-153.8,132.5-153.8,132.5
				s102.1,83.7,110.3,110.3l69.4-77.6l-32.7,122.5l488.1,276.1c0,0-24.2-309.6-70.2-405.8c-17.2-36,128.6-50.5,151,12.8
				c0,0-40-179.2-111.5-179.2C7937.7,4934.5,7827.5,4920.2,7827.5,4920.2z"/>
			<path class="st15" d="M7333.2,5902.9h298.2v-275.7c0,0,247.1,153.2,326.8,55.1c79.6-98,81.7-175.6,81.7-175.6l-202.2-147
				c0,0-418.7-251.2-469.7-104.2C7316.9,5402.5,7333.2,5902.9,7333.2,5902.9z"/>
			<path class="st3" d="M7055.9,6120.6c0,0,53.6-104.9,97.9-102.6c44.3,2.3,144.6,0,144.6,0l65.3-58.2h240.1v160.9h-97.9
				c0,0-11.7-44.3-32.6-42s-30.3,42-30.3,42H7055.9z"/>
			<path class="st3" d="M6317,5666.1c0,0,113.8-30.5,141.8,3.9c28,34.4,96.9,107.2,96.9,107.2l87,9.4l161,178.2l-119.4,107.8
				l-65.6-72.7c0,0,25.1-38.3,9.3-52.4c-15.8-14-51.5,5.6-51.5,5.6L6317,5666.1z"/>
			<path class="st16" d="M7685.3,5045c0,0,87.1,63.4,100.2,67.1c0,0-11.2-67.9,9.3-67.1c26.4,1,39.2,100.7,39.2,100.7
				s145,145,167,119c0,0-12.3-61.3-36.6-183.2c0,0,117-66.8,151.9,14.4c35.4,82.3,144.7,359.7,4.5,376.1
				c-158.5,18.6-363.2-180.9-413.5-244.3C7656.8,5164.3,7648.5,5095.3,7685.3,5045z"/>
			<path class="st16" d="M7827.5,4791c0-41.1-17.6-113.7-105-113.7s-73.6,81.2-70.9,125.5c3.4,54,38.1,81,75.8,84.1v34.9
				c0,0,4.9,49.8,47.6,49.6c25.2-0.1,52.5-49.6,52.5-49.6c-13.4-13.5-15.4-54.3-15.6-75.6C7821.6,4831.6,7827.5,4813.1,7827.5,4791z
				"/>
			<polygon class="st17" points="7304.7,4957 7330.7,5207.9 7659.3,5228.7 7643.7,4957 			"/>
			<polygon class="st10" points="7330.7,5207.9 7333.2,5228.7 7662.6,5251.1 7659.3,5228.7 			"/>
			<polygon class="st10" points="7659.3,5228.7 7741.1,5266 7741.1,5280.3 7662.6,5251.1 			"/>
			<polygon class="st6" points="7741.1,5280.3 7671.7,5273.6 7616.1,5249.4 7662.6,5251.1 			"/>
			<polygon class="st6" points="7333.2,5228.7 7367.9,5255.5 7382,5232 			"/>
			<polygon class="st6" points="7366.7,5904.6 7363.7,5959.7 7603.8,5959.7 7603.8,5904.6 			"/>
			<polygon class="st6" points="6642.6,5786.7 6692.4,5765.9 6843.4,5935.5 6803.6,5964.9 			"/>
		</g>
		<circle class="st6" cx="7661.9" cy="4769.5" r="7.6"/>
		<circle class="st6" cx="7733" cy="4768.7" r="7.6"/>
		<path class="st12" d="M7646.5,4754.8c60.8-15.2,35,34.6,35,34.6s-14.6,24.9,5.1,24.9"/>
		<path class="st12" d="M7720,4755.3c11.1-11.9,30.9-1.2,30.9-1.2"/>
		<path class="st6" d="M7811.9,4846.3c0,0-31.7,44.8-84.5,40.7v23.1C7727.4,4910,7799.7,4903.3,7811.9,4846.3z"/>
		<path class="st12" d="M7789.9,4760.7c0,0-1.7-14.6,11.1-13.3c12.7,1.3,8.4,26.7,1,43.8"/>
		<path class="st12" d="M7685.3,4846.3c0,0,5.8,15,17.3,1.9"/>
		<path class="st6" d="M7826.7,4775.4c0,0,14.5-129.3-92-118.2c-106.4,11.2-90.8,88.6-90.8,88.6l5.2,29.5c0,0-5.2-73.4,65.6-71.7
			c55.9,1.4,59.9,62.4,59.9,62.4h8c0,0,2.9-30.4,22.3-28C7824.4,4740.5,7826.7,4775.4,7826.7,4775.4z"/>
		<path class="st14" d="M7663.6,4669.6c0,0-141.2,40.9-89.1,61.5s196.3-30,196.3-30L7663.6,4669.6z"/>
		<path class="st5" d="M7770.8,4701.1l41-14.3c0,0,4.1-69-66.5-69c-70.7,0-81.7,51.8-81.7,51.8L7770.8,4701.1z"/>
		<path class="st12" d="M8101.5,5473.7c0,0,5.3-34.4,30.3-48.3s53-8.7,53-8.7"/>
		<path class="st12" d="M7357.6,5302.7c0,0-164.6,82.6-235.9,110.1c-71.3,27.5-109.3-6.2-109.3-6.2l67.4-25.2"/>
		<line class="st15" x1="6966.7" y1="5369.3" x2="7052.2" y2="5335.9"/>
		<line class="st15" x1="6987.1" y1="5389.4" x2="7067.8" y2="5359"/>
		<line class="st12" x1="7673.1" y1="5064.6" x2="7750.9" y2="5127.2"/>
		<line class="st12" x1="7664.4" y1="5088.1" x2="7731" y2="5149.3"/>
		<line class="st12" x1="7662.6" y1="5124.7" x2="7712" y2="5169.8"/>
	</g>
	<path class="st14" d="M7679.2,5716.3c0,0,259.5,0.2,380.5,9.5C8059.7,5725.7,7829.6,5847.8,7679.2,5716.3z"/>
</g>
<path class="st1" d="M4138.1,5551.3c416.6,0,754.4,19.2,754.4,66.2c0,47-337.8,85.1-754.4,85.1c-416.6,0-754.4-38.1-754.4-85.1
	C3383.7,5570.5,3721.4,5551.3,4138.1,5551.3z"/>
<circle class="st13" cx="8334.4" cy="3430.9" r="209.5"/>
<ellipse class="st1" cx="4891.1" cy="6120.6" rx="497.2" ry="55.9"/>
<path class="st12" d="M5140.1,4715.3c0,0-66.6,46.5-87.4,52.8"/>
<polygon class="st3" points="6495.1,4662.2 6885.4,4671.4 6884.7,4699.6 6494.5,4687.7 "/>
<rect x="6493.2" y="4731.9" transform="matrix(-0.9997 -2.344282e-02 2.344282e-02 -0.9997 13188.7178 9641.1934)" class="st3" width="315.3" height="22.8"/>
<polygon class="st5" points="6492.1,4789.8 6848.9,4798.1 6848.2,4826.4 6491.5,4815.2 "/>
<polygon class="st3" points="5566.4,4773.6 5671.4,4756.9 5724.5,4689.2 5743.3,4757.1 5771.8,4671.4 5794.8,4761 5902.1,4537.7 
	5945.7,4651.5 6100.5,4522 6233.2,4606.8 6355.4,4479.4 6351.6,4825.1 5494.8,4818.3 "/>
<polygon class="st5" points="5637,4820.1 5691.8,4779.1 5820.8,4813.1 6046.8,4640.8 6120.4,4755.2 6353.8,4623.6 6351.2,4862.5 
	5494.5,4852.1 "/>
<rect x="5642.1" y="4099.4" transform="matrix(-0.9999 -1.115053e-02 1.115053e-02 -0.9999 11423.3037 8599.5195)" class="st14" width="187.1" height="337.1"/>
<rect x="5903.3" y="4023.9" transform="matrix(-0.9999 -1.115053e-02 1.115053e-02 -0.9999 11946.1846 8529.9365)" class="st3" width="187.1" height="415.4"/>
<rect x="6171.1" y="4130.4" transform="matrix(-0.9999 -1.115053e-02 1.115053e-02 -0.9999 12481.166 8642.3828)" class="st13" width="187.1" height="312"/>
<path id="XMLID_317_" class="st13" d="M3306,3416.3c0,0,76.1-102.1,158.6-102.1s81.8,35.8,81.8,35.8s16.3-122.8,102.3-122.8
	c86.1,0,89.5,69,89.5,69s29.1-120.2,212.3-120.2c173.2,0,191.8,176.5,191.8,176.5s74.8-62.5,115.1,43.5c0,0,45.6-57.6,94.6,17.7
	L3306,3416.3z"/>
<g>
	<path class="st15" d="M8468.8,6001.7c0,0,96.1-80.7,63.5-200.3c-32.6-119.6-78.7-75.3-65.5-26.7
		C8490.3,5861.8,8535.1,5860,8468.8,6001.7z"/>
	<ellipse class="st1" cx="8322" cy="6064.7" rx="217.1" ry="58.2"/>
	<path class="st15" d="M8208,5777.3c0,0-125.5,263.5,52.4,283.7c177.9,20.2,343.5-33,131.1-386.3L8208,5777.3z"/>
	<path class="st15" d="M8397.2,5693.9l-25.6-122c0,0-76.6,103.5-78.7,103.5c-4.9,0-67.3-107.2-67.3-107.2l-41.2,132.9l0,0
		c-5.4,10.9-8.4,22.8-8.4,35.3c0,52.2,52.3,94.6,116.9,94.6c64.5,0,116.9-42.4,116.9-94.6
		C8409.7,5721.2,8405.2,5706.7,8397.2,5693.9z"/>
	<path class="st6" d="M8265.1,5740.5c0,0,12.1,18,17.2,15.4c5.1-2.6,16.6-15.4,16.6-15.4H8265.1z"/>
	<circle class="st6" cx="8216.5" cy="5716.9" r="6.7"/>
	<circle class="st6" cx="8351.4" cy="5716.9" r="8.6"/>
	<polygon class="st6" points="8329.2,5678.4 8367.8,5678.4 8360,5634.2 	"/>
	<polygon class="st6" points="8212.3,5678.4 8253.5,5678.4 8228.5,5634.2 	"/>
	<path class="st18" d="M8446,5988.4c0,0,28.4,37.2,30.1,52.6c1.8,15.4-76.9,67.8-94,45.2s32.1-51.3,32.1-51.3
		s-115.4-108.5,6.6-132.1"/>
	<path class="st18" d="M8371,5882.2c0,0,20,151.1,0,183.6c-20,32.4-43.5,10.2-43.5,10.2l-15.7-190.2"/>
	<path class="st18" d="M8181,6016c0,0-49.2,28.6-32.1,51.3c17.1,22.6,95.7-29.9,94-45.2c-1.8-15.4-30.1-52.6-30.1-52.6"/>
	<path class="st18" d="M8196.2,5874.8c0,0-20,151.1,0,183.6c20,32.4,43.5,10.2,43.5,10.2l16.5-190.2"/>
</g>
<path id="XMLID_338_" class="st4" d="M4150.8,3963.4c0,0,21.8-54,93.2-23.1C4244,3940.3,4218.1,3992.5,4150.8,3963.4z"/>
<path id="XMLID_337_" class="st4" d="M4363.4,3677.9c0,0-22.6-53.6,49.8-82.1C4413.2,3595.7,4431.6,3651,4363.4,3677.9z"/>
<path id="XMLID_331_" class="st4" d="M4641.8,3614.8c0,0-71.6,8.9-81.2-87C4560.7,3527.8,4632.9,3524.5,4641.8,3614.8z"/>
<path id="XMLID_330_" class="st4" d="M4544.8,3863.2c0,0,43.4-38.8,93.8,20.2C4638.8,3883.4,4592.5,3918.9,4544.8,3863.2z"/>
<path id="XMLID_382_" class="st4" d="M2238.6,4578.9c0,0,52.6,25,17.5,94.4C2256.1,4673.3,2205.5,4644.3,2238.6,4578.9z"/>
<path id="XMLID_381_" class="st4" d="M2510.8,4808.3c0,0,54.9-19.3,79,54.6C2589.8,4862.9,2533.5,4878,2510.8,4808.3z"/>
<path id="XMLID_361_" class="st4" d="M2557,5090c0,0-4.5-72,91.7-75.8C2648.8,5014.2,2647.7,5086.5,2557,5090z"/>
<path id="XMLID_349_" class="st4" d="M2099.9,5156.5c0,0,36.1,45.7-25.8,92.5C2074,5249,2041.4,5200.8,2099.9,5156.5z"/>
<path id="XMLID_386_" class="st1" d="M4357,5611.6c-0.6-13.5-12.3-24.3-26.5-24.3c-2.4,0-4.8,0.3-7,0.9c0.7-3,1.1-6.1,1.1-9.4
	c0-18.8-12.6-34-28-34c-4.6,0-8.9,1.3-12.7,3.7c-5.6-22-20.2-37.7-37.5-37.7c-17.5,0-32.4,16.2-37.7,38.8
	c-25.5-39.3-76.8-236-155.7-1.1c0,0-35.7-80-73.8,21.7c0,0-51.1-53.2-68.2,12.3s17.7,59.4,17.7,59.4l466.8,0.5
	C4395.4,5642.5,4380,5628.6,4357,5611.6z"/>
<g>
	<path class="st7" d="M5094,4755.9c0-113.6-99.2-212.8-247.2-267.1c0-2.1,0-4.2,0-6.4c0-181.8-112.8-335.2-267.2-383.2
		c-40-167.5-224.6-294.1-446.2-294.1c-250.8,0-454.2,162.1-454.2,362.3c0,8.5,0.3,16.7,1.1,25.1c-123.6,64.8-205.2,176.3-205.2,303
		c0,2.9,0,5.6,0.1,8.5c-174.8,50.4-299.8,183.9-299.8,340.8c0,200,203.3,362.3,454.2,362.3c138.3,0,262.3-49.3,345.5-127.1
		c88.6,46.8,203.8,75,329.8,75c140.2,0,267.1-35,358.8-91.5C4907.3,5040.7,5094,4911.7,5094,4755.9z"/>
	<line class="st19" x1="4131.1" y1="5589.5" x2="4133.5" y2="4111.1"/>
	<path class="st19" d="M4133.5,5260.6c0,0-295.4,32.2-284.6-214.6c10.7-246.8-187.7-219.8-187.7-219.8s-236.1,24.6-236.1-137.5"/>
	<path class="st19" d="M4133.5,4976.2c0,0,257.3-53.7,257.3-246.8s-32.2-397.9,85.8-397.9"/>
	<path class="st19" d="M4133.5,4495.5c0,0-204.2-36.1-204.2-164c0,0-3.2-327.3-92.1-327.3"/>
	<path class="st19" d="M4389.2,4755.9c0,0,44.7-134.8,194.8-134.8"/>
	<path class="st19" d="M3778.8,4855.3c0,0-27.3-301.7,102.9-301.7"/>
	<path class="st19" d="M4387.2,4495.5c0,0-54.5-130.5-118-130.5"/>
	<path id="XMLID_315_" class="st4" d="M3782.5,4720.1c0,0,21.8-54,93.2-23.1C3875.6,4697,3849.7,4749.2,3782.5,4720.1z"/>
	<path id="XMLID_313_" class="st4" d="M3995.1,4434.6c0,0-22.6-53.6,49.8-82.1C4044.8,4352.4,4063.3,4407.7,3995.1,4434.6z"/>
	<path id="XMLID_312_" class="st4" d="M3926.5,4264.5c0,0-6.5-92.9,117.8-98.7C4044.3,4165.8,4043.7,4259.1,3926.5,4264.5z"/>
	<path id="XMLID_311_" class="st4" d="M4136.9,4126.3c0,0-74.8-71-58-146.8C4078.9,3979.5,4152.8,4054.8,4136.9,4126.3z"/>
	<path id="XMLID_310_" class="st4" d="M4136.3,4208.1c0,0-0.4-58.2,77.3-56.9C4213.7,4151.2,4209.6,4209.3,4136.3,4208.1z"/>
	<path id="XMLID_308_" class="st4" d="M4128.8,4156.7c0,0-40.5,14.6-60.6-45.7C4068.2,4111,4109.9,4099.8,4128.8,4156.7z"/>
	<path id="XMLID_306_" class="st4" d="M4139,4614c0,0,0.9-47.5,58.5-45.2C4197.4,4568.8,4193.2,4616.3,4139,4614z"/>
	<path id="XMLID_305_" class="st4" d="M4057.4,4763c0,0,20.6-42.9,71.9-16.8C4129.4,4746.3,4105.9,4787.6,4057.4,4763z"/>
	<path id="XMLID_303_" class="st4" d="M4307.3,4372c0,0-0.3-35.5,47.1-34.9C4354.3,4337.3,4352,4372.6,4307.3,4372z"/>
	<path id="XMLID_302_" class="st4" d="M4134.2,4138.4c0,0,2.8-35.3,49.9-30.6C4184.1,4107.8,4178.6,4142.9,4134.2,4138.4z"/>
	<path id="XMLID_301_" class="st4" d="M4273.5,4371.5c0,0-71.6,8.9-81.2-87C4192.3,4284.5,4264.5,4281.2,4273.5,4371.5z"/>
	<path id="XMLID_300_" class="st4" d="M4456.8,4661.4c0,0-25.7-24.4,7.6-58C4464.3,4603.4,4488.2,4629.6,4456.8,4661.4z"/>
	<path id="XMLID_299_" class="st4" d="M4140,4824.6c0,0-4.1-58,73.5-61.8C4213.5,4762.8,4213.2,4821.1,4140,4824.6z"/>
	<path id="XMLID_298_" class="st4" d="M4267.4,4818.4c0,0,50.2,29.5,9.2,95.6C4276.6,4913.9,4228.7,4880.7,4267.4,4818.4z"/>
	<path id="XMLID_297_" class="st4" d="M4367.4,4823.8c0,0,43.4-38.8,93.8,20.2C4461.3,4844,4415.1,4879.5,4367.4,4823.8z"/>
	<path id="XMLID_296_" class="st20" d="M4389,4777.4c0,0,12.9-56.7,88.3-37.7C4477.4,4739.7,4460.1,4795.4,4389,4777.4z"/>
	<path id="XMLID_295_" class="st4" d="M4436,4339.4c0,0-41.5-11.6-22.8-72.3C4413.2,4267.1,4453.7,4282.2,4436,4339.4z"/>
	<path id="XMLID_293_" class="st4" d="M4475.7,4342.4c0,0-19.6-29.5,20.4-54.8C4496.2,4287.6,4513.5,4318.6,4475.7,4342.4z"/>
	<path id="XMLID_290_" class="st4" d="M4409.4,4381.6c0,0,32.5-14.5,50.7,29.3C4460.1,4410.8,4426.7,4422.8,4409.4,4381.6z"/>
	<path id="XMLID_289_" class="st4" d="M3432.7,4691.1c0,0-38.7,27.6-71.1-20.1C3361.6,4671.1,3402.1,4646.3,3432.7,4691.1z"/>
	<path id="XMLID_287_" class="st4" d="M4120.1,4666c0,0-44.3,37.8-93.4-22.4C4026.8,4643.6,4073.8,4609.3,4120.1,4666z"/>
	<path id="XMLID_318_" class="st4" d="M3800.5,4614.5c0,0-67.6-9-53.6-99C3747,4515.5,3813.8,4529.6,3800.5,4614.5z"/>
	<path id="XMLID_322_" class="st4" d="M3866.9,4562.8c0,0,4.6-58,81.9-50.2C3948.7,4512.6,3939.8,4570.1,3866.9,4562.8z"/>
	<path id="XMLID_323_" class="st4" d="M3903.6,4095.1c0,0-13.7,40.8-73.4,19.1C3830.2,4114.1,3847.3,4074.5,3903.6,4095.1z"/>
	<path id="XMLID_324_" class="st4" d="M3427.5,4696.8c0,0-17.5-39.4,41.1-63.7C3468.6,4633.1,3482.8,4673.8,3427.5,4696.8z"/>
	<path id="XMLID_325_" class="st4" d="M3554.7,4894.1c0,0-17.5-39.4,41.1-63.7C3595.8,4830.4,3610,4871.2,3554.7,4894.1z"/>
	<path id="XMLID_328_" class="st4" d="M3846.7,4972.5c0,0-17.5-39.4,41.1-63.7C3887.9,4908.8,3902.1,4949.6,3846.7,4972.5z"/>
	<path id="XMLID_329_" class="st4" d="M3769.9,5071.4c0,0,15.8-40.1,74.3-15.4C3844.2,5056,3825.1,5094.7,3769.9,5071.4z"/>
</g>
<g>
	<g>
		<g>
			<g>
				<path class="st16" d="M5070.1,4207.9c0,0,75,4.4,59.6-179.5c0,0-105.1-54.7-157.6,0c-52.5,54.7,17.5,166.4,37.2,168.6"/>
				<path class="st6" d="M5169.1,4043.8c0,0-44.3,24.1-151.3,15.3c-19.2-1.6-48.9,50.1-23.4,81.2c17.2,21,15.2,30.9,14.8,56.7
					c-0.6,35.5-13.5,71-13.5,71s-234,391.3-384.9,314.1c-150.9-77.2-85.5-323.6,0.2-346.6c85.8-23,56.2-142,88.2-197
					c32-55,193.9-24.2,201.2-38.7c7.3-14.5,73.7-86.4,152.9-76.1C5132.5,3934.1,5206.2,4019.3,5169.1,4043.8z"/>
				<path class="st13" d="M4617.4,4853.3c0,0-16.8,298.4-134.1,492.9c0,0-127.4,335.3-90.5,496.2c0,0,117.4,103.9,224.6,20.1
					c0,0,217.1-347.2,318.5-623.6c0,0-154.2,378.9-46.9,673.9c0,0,177.7,53.6,217.9,0c0,0,278.3-1086.3,137.5-1344.5l157.6-160.9
					c0,0-201.2-140.8-331.9-137.5c0,0-28.6,22.2-64.8-0.1c0,0-226.6-61.2-344.8,143.2l178,125.4
					C4838.6,4538.4,4618.8,4713.9,4617.4,4853.3z"/>
				<path class="st21" d="M5241.9,4570.9c0,0,239.5,198.1,332.3,123.4c92.8-74.7,44.4-513.4,44.4-513.4s59.4-6.5,75.5-17.1
					c39.5-25.9,49.4-157-23.4-132.3c-49,16.7-94.4,63.1-124.1-18c-4.1-11.2-38.1-61.5-33.6,20c4.5,81.5-31.1,55.7-28.8,130.4
					c2.3,74.7-3.2,275.5-21.3,275.5c-18.1,0-63.5-29.4-63.5-29.4L5241.9,4570.9z"/>
				<path class="st3" d="M4309.5,5992.8l69.7,43.5c0,0,5-41,21.2-38.5c16.2,2.5,66.6,105.8,66.6,105.8l240.7,5v-27.4l-47.3-30.5
					c0,0-73.5,1.9-112.6-30.5c-39.2-32.4-148.6-140-148.6-140l-48.6,9.3L4309.5,5992.8z"/>
				<path class="st3" d="M4814.8,6017.7l69.7,43.5c0,0,5-41,21.2-38.5c16.2,2.5,78.9,85.8,78.9,85.8h241.4l4.3-31.1l-39.8-28.5
					c0,0-85.9,8.6-125.1-23.8c-39.2-32.4-164.7-107.7-164.7-107.7l-48.6,9.3L4814.8,6017.7z"/>
				<path class="st11" d="M4905.6,5917.4v19.3c0,0,109.8,127.8,198.1,110.7c0,0-39.2-37.6-34.3-64.2s8.6-52,8.6-52
					S5004.7,5945.5,4905.6,5917.4z"/>
				<path class="st11" d="M4415.6,5859.1l-29.5,37.8c0,0,119.9,154.2,161.6,138.1v-141.6C4547.7,5893.5,4501.8,5904.8,4415.6,5859.1
					z"/>
				<path class="st21" d="M4511.5,4799.3c-24.3-93,41.3-233.8,152-386.6l178,125.4c0,0-110.5,121.3-107.8,166.2
					c0,0,64.9,133.7,200.9-34.9c0,0,33.2-21.9,29.1,18.9c-4.1,40.8-8,47-8,47s57-36,70.7-44.9c31.7-20.5,54,123.4,11,155.7
					C4864,4976.3,4550.7,4949.5,4511.5,4799.3z"/>
				<path class="st16" d="M5009.3,4197l-12.7,69.4c0,0,31.3,34.8,73.4,3.5v-61.9L5009.3,4197z"/>
				<path class="st6" d="M5070.1,4233.5v-25.6c0,0-40.1,0.5-60.8-10.9C5009.3,4197,5056.6,4232,5070.1,4233.5z"/>
			</g>
			<circle class="st6" cx="5120.6" cy="4099.6" r="7.6"/>
			<circle class="st6" cx="5048.1" cy="4099.6" r="7.6"/>
			<path class="st12" d="M5094.3,4122.8c0,0,14.6,24.9-5.1,24.9"/>
			<path class="st12" d="M5033.6,4077.9c0,0,17-10.6,30.7,3.7"/>
			<path class="st12" d="M5103.1,4086c0,0,15.8-16.2,29.9-8.1"/>
			<path class="st12" d="M5071.3,4170.1c0,0,6,16.2,15.5,3.1"/>
			<path class="st12" d="M5499.1,4709.5c0,0,4.2-45.8,43.5-63.2c39.3-17.4,63.4-2.2,63.4-2.2"/>
			<path class="st12" d="M4506.2,4737.2c0,0,29.3,9.5,43.1,59.7c13.8,50.2-11.2,53.4-11.2,53.4"/>
		</g>
		<line class="st12" x1="4966.1" y1="4771.9" x2="5051.6" y2="4715.3"/>
		<path class="st12" d="M4977.3,4805.3c45.2-19.3,84.5-53.5,84.5-53.5"/>
		<path class="st12" d="M4989.2,4838.4c40.1-13.5,71-45,71-45"/>
	</g>
	<path class="st12" d="M5716.8,4047.9c0,0-35.7,19.4-88.3,33.6"/>
	<path class="st12" d="M5724.5,4082.8c0,0-37.4,17.7-90.1,31.9"/>
	<path class="st12" d="M5720.6,4120.1c0,0-30.5,15.1-83.2,29.3"/>
</g>
<g>
	<ellipse class="st1" cx="2951.7" cy="5600.5" rx="365.5" ry="85.1"/>
	<g>
		<g>
			<path class="st6" d="M3528.7,3909.2c0,0,40.1,32.5,212.5,54.2c172.4,21.8,168.6-86,168.6-86l-200.3-56.7L3528.7,3909.2z"/>
			<polygon class="st14" points="3602.9,3893.5 3574.8,3865.5 3602.9,3846.9 3608.4,3870.2 			"/>
			<polygon class="st14" points="3655.5,3807.9 3663.6,3835.3 3683.8,3825.4 3683.8,3799 			"/>
		</g>
		<g>
			<path class="st14" d="M2962.3,5336.8v225.7c0,0,213.5,53.1,213.5,10.2c0-43.6-31.6-84.6-76.9-89.8l-0.8-144.7
				C3098.2,5338.2,3046.1,5383.3,2962.3,5336.8z"/>
			<path class="st6" d="M2961.6,5336.8c0,0,78.3,69.4,128.5,18C3140.3,5303.3,2961.6,5336.8,2961.6,5336.8z"/>
			<path class="st5" d="M2962.3,5546.1c0,0,186.3,48.6,213.1,17.5l0.8,12.6c0,0-0.5,38-213.8-13.6L2962.3,5546.1L2962.3,5546.1z"/>
			<path class="st3" d="M2995,5291.6v53.5c0,0,82,40.6,82-10.8v-65.4h-82V5291.6z"/>
			<path class="st6" d="M2994.5,5298.3c0,0,39,36.2,83.1,25.3v-20.8C3077.6,5302.8,3047.5,5312,2994.5,5298.3z"/>
			<path class="st14" d="M2746.7,5345.5v225.7c0,0,213.5,53.1,213.5,10.2c0-43.6-31.6-84.6-76.9-89.8l-0.8-144.7
				C2882.6,5346.9,2830.5,5392,2746.7,5345.5z"/>
			<path class="st6" d="M2745.9,5345.5c0,0,78.3,69.4,128.5,18C2924.7,5311.9,2745.9,5345.5,2745.9,5345.5z"/>
			<path id="XMLID_2_" class="st16" d="M3103.2,3986.3l382.8-190.7c0,0,66.6-23.5,120.7,1.4c0,0,25.3,2.7,10.3-19.6
				c-15-22.3-59.2-21.6-35.3-30c23.9-8.4,93,21.8,109.9,21.7c16.9,0,25-58-31.3-98.5c-56.2-40.4-167.8-40.7-248.3-1.2
				c-80.5,39.5-304.8,121.8-304.8,121.8S3110.8,3884.9,3103.2,3986.3z"/>
			<path class="st6" d="M2965.5,3790.9c0,0,72.2,11.5,20-159.3C2985.4,3631.6,2918.4,3618.7,2965.5,3790.9z"/>
			<path class="st6" d="M2856.1,3625.1c0,0-135.9,15-88.2-89.2c47.7-104.3,214.7-27,169.4,44.9S2856.1,3625.1,2856.1,3625.1z"/>
			<g>
				<path class="st3" d="M2774.1,5300.3v53.5c0,0,82,40.6,82-10.8v-65.4h-82V5300.3z"/>
				<path class="st4" d="M2862.9,3859.8c0,0-116.8,2.5-168.5,21.6c-51.7,19.1-94.6,148.9-94.6,148.9l152.6,82.7l-54.5,300.9
					c0,0,439.6,102.7,439.6,1.5s-72.1-414-72.1-414s81.8-31.3,136.4-65.1c0,0-14.7-165.3-51.1-162.2l-203.6,82.6L2862.9,3859.8z"/>
				<path class="st5" d="M2782.5,3859.4l-30.9,556.7l-53.9-7.7c0,0-14.6,732.8,18.2,868.4c10.9,45.2,139.8,71.5,185,18.7
					c18.5-60.9,27.5-546.7,27.5-546.7s-9.1,483.2,19,526.6c20.3,31.3,162.1,40.6,171.7,12.9c9.6-27.7,62-782.8,5.2-993.1
					c0,0-43.6-382.6-147.8-454.1l-27.7,14.1c56.7,38.4,105.9,145.1,107.6,384.8c6.3,52.2-198.6,40.8-221.2-6.1
					c-26.3-54.3-7.2-241.2-17.6-377.2L2782.5,3859.4z"/>
				<path class="st10" d="M2822.1,4300.3c0,0,139.6,26.8,240-7.8c20.2-7,33.3,237.9,33.3,237.9c-100.8,72.5-275.9,7.4-275.9,7.4
					C2798.9,4480,2822.1,4300.3,2822.1,4300.3z"/>
				<path class="st16" d="M2833.3,3866.2c0,0,10-33.8,7.8-53.2s-29.9-32-20.7-86.2c9.2-54.2,40.6-94.8,110.6-87
					c70.1,7.7,60.1,180.7-0.7,184.6c0,0-10.3,18.7,2.6,41.8C2945.7,3889.4,2870.1,3945.6,2833.3,3866.2z"/>
			</g>
			<path class="st6" d="M2772.3,5318.4c0,0,47.7,42,83.9,24.7l-0.1-22C2856.1,5321.2,2832.9,5332.9,2772.3,5318.4z"/>
			<path class="st6" d="M2853,3647.8c0,0,49.3,163-38.5,171.3c-87.8,8.3-136.9-236.7-9.7-254.3C2932,3547.1,2853,3647.8,2853,3647.8
				z"/>
			<path class="st6" d="M2807.4,3650.6c0,0,197,46.6,204-16.9S2839.8,3548,2807.4,3650.6z"/>
			<path id="XMLID_35_" class="st16" d="M2754.9,4113.1c-30.7,139.6-53.3,349-26.9,403.4c32.2,66.5,17,78.4,17,78.4s-9,14.5-57.9-29
				c-48.9-43.5,69.8,140.1,69.8,140.1s-69.6,20.9-141.4-20.2c-60.6-34.7-100.3-397.4-15.8-655.4L2754.9,4113.1z"/>
			<path class="st6" d="M2853,3801.5c0,0,48,29.9,77.2,22.9c0,0-6.8,17-1.5,32.9C2934.2,3873.2,2853,3801.5,2853,3801.5z"/>
			<circle class="st6" cx="2964.2" cy="3717" r="7.6"/>
			<circle class="st6" cx="2891.7" cy="3717" r="7.6"/>
			<path class="st12" d="M2937.8,3740.3c0,0,14.6,24.9-5.1,24.9"/>
			<path class="st12" d="M2877.2,3695.3c0,0,17-10.6,30.7,3.7"/>
			<path class="st12" d="M2946.7,3703.4c0,0,15.8-16.2,29.9-8.1"/>
			<path class="st12" d="M2914.8,3787.6c0,0,6,16.2,15.5,3.1"/>
			<path class="st5" d="M2746.7,5554.8c0,0,186.3,48.6,213.1,17.5l0.8,12.6c0,0-0.5,38-213.8-13.6L2746.7,5554.8L2746.7,5554.8z"/>
			<path class="st16" d="M2754.9,4113.1"/>
			<path class="st12" d="M2754.9,4113.1c-16.4,92-57.3,329.1-29.7,393.7c39.1,91.6,36.6,120.8-48.5,52.5"/>
			<path id="XMLID_41_" class="st12" d="M2669.3,4642.5c0,0,29.6,54.5,52.9,69.1"/>
			<path id="XMLID_40_" class="st12" d="M2636.7,4644.2c0,0,26.3,57.6,45.7,64.3"/>
			<path id="XMLID_1_" class="st12" d="M2606.3,4638.4c0,0,20.8,51.7,35.3,60.2"/>
			<path id="XMLID_55_" class="st22" d="M3703.4,3737c0,0-85.3-40.5-140.1-28.3"/>
			<path id="XMLID_43_" class="st22" d="M3693.7,3704.6c0,0-96.6-38.5-135.7-23.9"/>
			<path id="XMLID_42_" class="st22" d="M3667.8,3675.6c0,0-76-30.4-112.2-22.1"/>
			<path id="XMLID_60_" class="st23" d="M2580.3,4104.8c0,0,60.2,2.6,52.9,87c-7.3,84.4-77.3,57.8-77.3,57.8"/>
		</g>
		<path class="st1" d="M3528.7,3909.2v77.1c0,0,285.8,126.8,381.7-20.1l-0.6-88.8C3909.8,3877.4,3862.3,4041.3,3528.7,3909.2z"/>
		<path class="st10" d="M3598.2,3905.5l115.4-60.4l141.9,29.1c0,0-51.1,59.6-122.8,59.5C3703.9,3933.7,3598.2,3905.5,3598.2,3905.5z
			"/>
	</g>
</g>
<g>
	<path class="st10" d="M3784.5,3666.6c0,0,80.2-75.2,168.6-49.5c88.4,25.7,93.9,157,161.7,149.2
		C4114.8,3766.3,3846.9,3848.8,3784.5,3666.6z"/>
	<path class="st11" d="M3976.7,3825.7c22-13.1,33.7-33.4,26.5-62.2c-24.6-99.4-143-116.5-173.3-105.1
		c-27.1,10.2-43.6-59.1-51.5-63.4c-6.5-10.7-18.8-17.8-32.7-17.8c-20.9,0-37.9,16-37.9,35.8c0,14.1,7.4,32.2,21.3,32.2l0,0
		c0.4,0.2,24.6-9.6,45.7,112.1c8.4,48.7,77.4,82.1,127.1,84.6l9.7,36.1l10.8-36.3c2.5-0.2,4.9-0.4,7.3-0.7l8.5,31.6l10.5-35.1
		c6.5-1.7,12.8-3.9,18.6-6.5c17.7,12,65.5,42.3,78.5,30.7c6.4-5.7-5.8-12.4-22.7-18.5c23.2,4.3,45.7,6,53.9-1.2
		C4091.7,3828.8,4013.2,3826,3976.7,3825.7z"/>
	<polygon class="st5" points="3938.2,3872.6 3916.8,3881.4 3929.8,3881.4 3927.5,3890.7 3938.2,3884.8 3950.5,3890.7 	"/>
	<path class="st11" d="M3783.5,3671.1c0,0,90.9-61.6,174.3-22.5c83.3,39.2,68.2,169.9,136.4,172.7
		C4094.1,3821.3,3816.6,3860.9,3783.5,3671.1z"/>
	<path class="st6" d="M3719.9,3586.8c12.3-12.1-63,29.2-64.4,39.5l40.5-3.4l-30.7,12.7l47.9-5
		C3713,3630.6,3696.1,3610.2,3719.9,3586.8z"/>
	<circle class="st6" cx="3742" cy="3597.8" r="5.3"/>
	<polygon class="st5" points="3911.5,3878 3874.1,3894.9 3897.7,3891.5 3900.4,3903.3 3907.3,3890.7 3920.2,3900 	"/>
</g>
</svg>
