<?xml version="1.0" encoding="utf-8"?>
<!-- Generator: Adobe Illustrator 19.0.0, SVG Export Plug-In . SVG Version: 6.00 Build 0)  -->
<svg version="1.1" id="Warstwa_1" xmlns="http://www.w3.org/2000/svg" xmlns:xlink="http://www.w3.org/1999/xlink" x="0px" y="0px"
	 viewBox="63 2679 10125 4644" style="enable-background:new 63 2679 10125 4644;" xml:space="preserve">
<style type="text/css">
	.st0{fill:#A4DCD7;}
	.st1{fill:#0E1A17;}
	.st2{fill:#242D26;}
	.st3{fill:#00D1B2;}
	.st4{fill:#A8FFCD;}
	.st5{fill:#E1F1EE;}
	.st6{fill:#333333;}
	.st7{fill:#5FBD44;}
	.st8{fill:#C5C5BF;stroke:#333333;stroke-width:3.866;stroke-miterlimit:10;}
	.st9{fill:#E1F1EE;stroke:#333333;stroke-width:4.64;stroke-miterlimit:10;}
	.st10{fill:#C5C5BF;stroke:#333333;stroke-width:4.2935;stroke-miterlimit:10;}
	.st11{fill:#E1F1EE;stroke:#333333;stroke-width:5.1531;stroke-miterlimit:10;}
	.st12{fill:none;stroke:#333333;stroke-width:5.1522;stroke-miterlimit:10;}
	.st13{fill:#DED6A2;}
	.st14{fill:#CCCBA2;}
	.st15{fill:#E1F1EE;stroke:#333333;stroke-width:6.4441;stroke-miterlimit:10;}
	.st16{fill:#F6D6D9;}
	.st17{fill:#E1F1EE;stroke:#333333;stroke-width:4.523;stroke-miterlimit:10;}
	.st18{fill:#E1F1EE;stroke:#333333;stroke-width:6.7996;stroke-miterlimit:10;}
	.st19{fill:none;stroke:#333333;stroke-width:18.5472;stroke-miterlimit:10;}
	.st20{fill:#73C47D;}
	.st21{fill:#F6D6D9;stroke:#333333;stroke-width:5.1522;stroke-miterlimit:10;}
	.st22{fill:none;stroke:#333333;stroke-width:4.6011;stroke-miterlimit:10;}
	.st23{fill:none;stroke:#333333;stroke-width:5.0294;stroke-miterlimit:10;}
</style>
<path class="st0" d="M4209.6,5968.2c-448.2,0-1507.7-114.7-1795.4-449.3c-107.4,424.7-492.1,739.1-950.3,739.1
	c-541.3,0-980.1-438.9-980.1-980.1s438.9-980.1,980.1-980.1c213.4,0,410.9,68.3,571.8,184.1c8-859.4,707.3-1553.6,1568.6-1553.6
	c759.2,0,1392.5,539.4,1537.5,1255.8c281.1-145.8,600.6-228,939.2-228c1128.9,0,2044.1,915.2,2044.1,2044.1"/>
<polygon class="st1" points="6129.9,5956 6227.1,5690.7 6361,5638.4 6661.8,5091.8 7000.5,5690.7 7141.1,5619.6 7355.5,5751.2 
	7702.9,5145.7 8092.2,5690.7 8201.9,5553.8 8477.5,5956 "/>
<path id="XMLID_80_" class="st2" d="M8128.9,6573.3c951.6,409.1-6312,946.5-8063.9,142.5v-747.2c0-27.2,9868.7-20,9868.7-20
	C6816.4,5948.6,10536.7,6536,8128.9,6573.3z"/>
<ellipse class="st1" cx="3998.2" cy="6204.1" rx="718.7" ry="85.8"/>
<polygon class="st1" points="1325.4,5957.6 277.3,4118.1 63,4643.5 65,5968.6 "/>
<path class="st2" d="M4947.5,4114.4l35.6,969.6c4.3,118.4-85.6,217.3-199.2,219.1l-1840.4,29.1c-111.3,1.8-203.1-90.6-205.4-206.7
	l-19.7-998.7c-2.3-118.2,88.9-215.4,202.3-215.4h1824.5C4854,3911.4,4943.3,4001,4947.5,4114.4z"/>
<path class="st3" d="M5079.7,4233.5l34.9,969.6c4.3,118.4-83.9,217.3-195.4,219.1L3114,5451.3c-109.2,1.8-199.2-90.6-201.5-206.7
	l-19.3-998.7c-2.3-118.2,87.2-215.4,198.5-215.4h1789.7C4988,4030.5,5075.6,4120.1,5079.7,4233.5z"/>
<path class="st4" d="M4943.7,4316.9l30.5,797.4c3.7,97.4-73.4,178.7-170.8,180.2l-1578.2,23.9c-95.5,1.4-174.2-74.5-176.1-170
	l-16.9-821.3c-2-97.2,76.3-177.1,173.5-177.1h1564.6C4863.5,4150,4940.1,4223.7,4943.7,4316.9z"/>
<path class="st2" d="M3302.3,4850.8c34.5,20.9,74.9,33,118.2,33c126,0,228.1-102.1,228.1-228.1c0-126-102.1-228.1-228.1-228.1"/>
<path class="st5" d="M3192.4,4655.7c0,82.7,44,155.1,109.8,195.1l118.2-195.1H3192.4"/>
<path class="st3" d="M3420.5,4427.7c-126,0-228.1,102.1-228.1,228.1h228.1V4427.7z"/>
<g id="XMLID_281_">
	<path id="XMLID_405_" class="st4" d="M1760.2,4738.6c0.1,40-32.5,72.6-72.6,72.7c-41,0.1-73.2-31.9-73.2-72.6
		c-0.1-40.5,31.9-72.6,72.2-72.6C1727.5,4666.1,1760.1,4698.2,1760.2,4738.6z"/>
	<path id="XMLID_395_" class="st4" d="M1614.5,4980.9c-0.3-40.7,32.2-73.4,72.8-73.4c39.9,0,72.7,32.7,72.9,72.7
		c0.2,39.8-32.6,72.6-72.7,72.8C1647,5053.2,1614.7,5021.2,1614.5,4980.9z"/>
	<path id="XMLID_394_" class="st4" d="M1614.3,5463.4c-0.1-40.7,32.6-73.3,73.2-73.1c39.9,0.2,72.8,33.3,72.6,73
		c-0.2,40.1-32.9,72.5-73,72.5C1646.7,5535.7,1614.5,5503.6,1614.3,5463.4z"/>
	<path id="XMLID_391_" class="st4" d="M1760.2,4496.8c0.3,39.6-32.6,72.8-72.6,73.1c-40.5,0.3-73.3-32.4-73.2-73
		c0.1-40.4,32.2-72.4,72.7-72.5C1727.1,4424.4,1759.7,4456.8,1760.2,4496.8z"/>
	<path id="XMLID_390_" class="st4" d="M1518.3,4738.7c0,40.6-31.9,72.6-72.4,72.6c-40.6,0.1-72.7-31.8-72.9-72.2
		c-0.3-40.7,32-73,72.9-73C1486.3,4666.2,1518.2,4698.2,1518.3,4738.7z"/>
	<path id="XMLID_385_" class="st4" d="M1566.6,4932c-40.7,0.1-72.9-31.7-73-72.1c-0.1-40.4,32-72.8,72.3-73.1
		c40.2-0.2,72.9,32.2,73,72.4C1639,4899.8,1607.1,4931.9,1566.6,4932z"/>
	<path id="XMLID_384_" class="st4" d="M1493.7,5342.3c0-40.3,32.4-72.7,72.6-72.7c40.3,0,72.6,32.3,72.6,72.7
		c0,40.5-32,72.5-72.6,72.5C1525.7,5414.8,1493.7,5382.8,1493.7,5342.3z"/>
	<path id="XMLID_339_" class="st4" d="M1614.4,5221.8c0-40.3,32.3-72.6,72.5-72.6c40.6,0,73.7,32.8,73.3,72.9
		c-0.4,40.2-32.8,72-73.2,72C1646.6,5294,1614.4,5262,1614.4,5221.8z"/>
	<path id="XMLID_332_" class="st4" d="M1760.2,4255.9c-0.2,40-32.9,72.4-73,72.4c-40.3,0.1-72.7-32.1-72.8-72.3
		c-0.1-40.3,32-72.6,72.3-72.6C1727.5,4183.4,1760.4,4215.7,1760.2,4255.9z"/>
	<path id="XMLID_327_" class="st4" d="M1373,5463.3c-0.1-40.5,32.6-73.2,73.1-73c40.1,0.1,72.3,32.8,72.1,73
		c-0.2,40.6-32.2,72.5-72.6,72.5C1405.5,5535.8,1373.2,5503.5,1373,5463.3z"/>
	<path id="XMLID_326_" class="st4" d="M1373,4980.4c-0.1-40.5,32.6-73.1,73.2-72.9c40.1,0.2,72.3,33,72,73.2
		c-0.3,40.6-32.3,72.4-72.7,72.3C1405.2,5052.9,1373,5020.6,1373,4980.4z"/>
	<path id="XMLID_321_" class="st4" d="M1808,4932.1c-40.4,0-72.7-32-72.9-72.2c-0.2-40.2,32.9-73.3,73.2-73
		c40.4,0.3,72.4,32.5,72.3,72.8C1880.5,4900.1,1848.5,4932,1808,4932.1z"/>
	<path id="XMLID_320_" class="st4" d="M1880.5,5098.1c1.5,41-29.8,74.5-71.1,75.9c-39.2,1.3-73.1-31.2-74.2-71.2
		c-1.1-40.1,30.8-73.1,71.9-74.4C1845.6,5027.2,1879,5058.8,1880.5,5098.1z"/>
	<path id="XMLID_319_" class="st4" d="M1807.7,5414.8c-40.3,0-72.7-32.2-72.7-72.4c0-40.3,33.3-73.3,73.5-72.8
		c40.5,0.5,72.3,32.8,72.1,73.1C1880.4,5383.1,1848.4,5414.8,1807.7,5414.8z"/>
	<path id="XMLID_316_" class="st4" d="M1927.7,4666.1c41.1,0,73.5,31.8,73.7,72.5c0.2,40-32.4,72.7-72.5,72.8
		c-40.6,0.1-72.5-31.6-72.6-72.1C1856.2,4698.2,1887.5,4666.2,1927.7,4666.1z"/>
	<path id="XMLID_314_" class="st4" d="M1518.2,4497.1c0,40.2-32.2,72.6-72.4,72.8c-40,0.2-72.6-32.3-72.9-72.4
		c-0.2-40.6,32.1-73.1,72.9-73.1C1486.1,4424.5,1518.1,4456.7,1518.2,4497.1z"/>
	<path id="XMLID_309_" class="st4" d="M1566.7,4690.7c-40.3,0.4-73.1-32.5-73-73.1c0.1-40,32.9-72.8,72.7-72.7
		c40,0.1,72.5,32.7,72.5,72.8C1638.9,4658,1606.9,4690.2,1566.7,4690.7z"/>
	<path id="XMLID_307_" class="st4" d="M1807.8,4690.5c-40-0.1-72.7-32.7-72.7-72.7c-0.1-40.1,33.5-73.5,73.4-73
		c40.2,0.6,72.3,33.2,72.1,73.4C1880.4,4658.4,1847.9,4690.7,1807.8,4690.5z"/>
	<path id="XMLID_304_" class="st4" d="M1735,4376.3c0.1-40,32.8-72.7,72.7-72.8c40.1-0.1,72.6,32.2,72.8,72.5
		c0.3,40.4-31.6,72.6-72,72.7C1767.4,4448.8,1734.9,4416.7,1735,4376.3z"/>
	<path id="XMLID_294_" class="st4" d="M1638.8,5096c2.1,41.9-28,75.3-70,77.9c-38.4,2.4-73.4-29.8-75.1-69.2
		c-1.8-41.1,28.8-74.1,70.5-76.3C1602.2,5026.5,1636.9,5057.9,1638.8,5096z"/>
	<path id="XMLID_292_" class="st4" d="M1856.2,4982.3c-0.3-41.9,31.4-74.7,72.2-74.7c40,0,72.8,32.7,73,72.7
		c0.2,39.9-32.4,72.6-72.7,72.8C1889.3,5053.2,1856.7,5021.4,1856.2,4982.3z"/>
	<path id="XMLID_291_" class="st4" d="M1928.1,5390.3c40-0.2,72.7,32.1,73.3,72.4c0.6,40-32.7,73.3-73.3,73.1
		c-40-0.2-71.7-32.1-71.8-72.3C1856.2,5422.8,1888,5390.5,1928.1,5390.3z"/>
	<path id="XMLID_288_" class="st4" d="M2001.5,4497c0,39.9-32.7,72.7-72.8,72.9c-40.1,0.2-72.4-32.3-72.4-72.8
		c0-40.7,31.7-72.7,72.2-72.7C1968.7,4424.5,2001.4,4457.1,2001.5,4497z"/>
	<path id="XMLID_286_" class="st4" d="M1493.8,4376.8c-0.1-40.3,32.1-73,72.2-73.3c40-0.4,72.9,32.3,73,72.4
		c0.1,40.7-31.7,72.7-72.2,72.8C1525.9,4448.7,1493.9,4417.2,1493.8,4376.8z"/>
	<path id="XMLID_285_" class="st4" d="M1372.9,5221.6c0.1-40.2,32.5-72.4,72.8-72.4c40.3,0,72.5,32.3,72.4,72.6
		c-0.1,40.5-32,72.3-72.6,72.3C1405.2,5294,1372.9,5261.8,1372.9,5221.6z"/>
	<path id="XMLID_284_" class="st4" d="M1518.2,4256.2c-0.3,40-32.3,72.1-72.1,72.2c-40.4,0.1-72.9-31.9-73.2-72.1
		c-0.3-40.3,32-72.9,72.2-72.9C1486.3,4183.3,1518.4,4215.3,1518.2,4256.2z"/>
	<path id="XMLID_283_" class="st4" d="M1928.1,5149.2c40.7,0,73.8,33,73.3,73c-0.5,39.9-32.7,71.9-72.4,72
		c-40.7,0.1-72.6-31.6-72.7-72C1856.2,5181.4,1887.9,5149.2,1928.1,5149.2z"/>
	<path id="XMLID_282_" class="st4" d="M1927.1,4183.3c41.7-0.1,74.7,32.2,74.3,72.7c-0.4,40.2-32.9,72.3-73.1,72.3
		c-39.8,0-71.9-32.1-72-72C1856.2,4215.7,1887.5,4183.5,1927.1,4183.3z"/>
</g>
<g>
	<ellipse class="st1" cx="958.2" cy="6095.5" rx="427" ry="99.5"/>
	<rect x="809.8" y="5604" class="st6" width="296.9" height="491.4"/>
	<polygon class="st7" points="610.7,4716.7 687.4,4661.6 480.1,5074.4 602.4,4980.1 401.3,5362 531.2,5257 271.3,5671.3 
		402.1,5639.5 190.8,6027.8 958.2,5717.3 1734.9,6021.2 1480.4,5639.5 1630.6,5724.3 1406.1,5315.5 1533.4,5416.7 1321.2,5025.7 
		1448.5,5119.8 1257,4695.5 1343.6,4748.6 959.2,3846.4 	"/>
</g>
<g>
	<path class="st8" d="M2000.4,3418.2c-8.4,71.3,129.9,77.3,156.7,170.3s-52.3,177.3-52.3,177.3
		C1913.2,3699.8,2000.4,3418.2,2000.4,3418.2z"/>
	<path class="st9" d="M1821.7,3825.4c6.4,9.4,29.9,13.3,54.7,14.8c-18.9,1.9-33.1,5.8-27.9,13.1c10.4,15,66.8-3.9,87.9-11.7
		c5.3,4.2,11.1,8,17.4,11.3l1.9,38.5l16.6-30.2c2.4,0.9,4.8,1.7,7.2,2.5l2,39.9l19-34.4c51.3,10,92.9-8.6,116.5-27
		c55.7-43.4,100.9-131.9,101.4-132l8,1.4c14.2,3.4,26.3-13.1,29.8-27.5c5-20.2-8.3-40.8-29.7-46.1c-14.3-3.5-28.5,0.7-37.9,10
		c-9.1,2.4-43.5,69-68.6,51.8c-28.1-19.2-153.3-31.5-203.4,63.9c-14.5,27.6-7.8,51.3,11.5,70.2
		C1890.7,3825,1809.6,3808.1,1821.7,3825.4z"/>
	<polygon class="st5" points="1935.8,3897.3 1950,3898.9 1956.3,3910.1 1959.4,3900.6 1970.9,3907.8 1956.8,3888 	"/>
	<path class="st9" d="M1868.8,3523.2c29.9,65.3,151.1-1.6,222.5,64c71.4,65.6,47.5,178.6,47.5,178.6
		C1940.9,3809.1,1868.9,3523.3,1868.8,3523.2z"/>
	<path class="st6" d="M2246.4,3700.8l47.6,17.1l-28.3-20.7l40.5,13.7c1.2-11-65.5-72.1-55.9-56.6
		C2268.7,3684.1,2246.4,3700.8,2246.4,3700.8z"/>
	<circle class="st6" cx="2225" cy="3660" r="5.6"/>
	<polygon class="st5" points="1959.8,3918.1 1976.5,3917 1975.6,3932.2 1984.6,3923.2 2003.8,3939.3 1979.9,3903.3 	"/>
</g>
<g>
	<path class="st10" d="M4255,3214.2c16.2,78,164,35.8,225,124.3c61,88.6,7.2,205.1,7.2,205.1C4262.1,3541.4,4255,3214.1,4255,3214.2
		z"/>
	<path class="st11" d="M4143.3,3520.9c4.4,11.9,28.7,22.3,55,30.5c-20.9-3-37.2-2.6-33.6,6.7c7.2,19,73.1,13.7,97.9,10.9
		c4.6,5.9,9.8,11.5,15.7,16.8l-8.2,42l25.9-28.1c2.3,1.6,4.7,3.1,7.1,4.7l-8.5,43.5l29.7-32c52.6,24.4,102.5,15.5,132.8,2
		c71.6-31.9,144-115.2,144.5-115.2l8.2,3.7c14.4,7.5,31.8-7.1,39.5-21.7c10.8-20.4,1.9-46.3-19.7-57.6c-14.5-7.6-30.9-6.8-43.6,0.6
		c-10.5,0.1-65.3,62.8-87.7,37.5c-25.1-28.2-156.9-74.9-236.3,14.5c-23,25.9-22.1,53.2-6.3,78.7
		C4217.8,3538.9,4134.9,3499,4143.3,3520.9z"/>
	<polygon class="st5" points="4247.1,3628.8 4262,3634.4 4265.7,3648.1 4271.7,3638.7 4282.2,3649.5 4272.2,3624.5 	"/>
	<path class="st11" d="M4153.3,3370.9c54.5,58.3,158.7-54.8,256.9-10.8s112.9,171.5,112.9,171.5
		C4329.7,3646.9,4153.3,3371.1,4153.3,3370.9z"/>
	<path class="st6" d="M4634.6,3500.8l47.5,30.1l-25.6-29.2l40.6,24.6c4-11.7-53.5-94-46.9-74.9
		C4662.9,3488.2,4634.6,3500.8,4634.6,3500.8z"/>
	<circle class="st6" cx="4622.2" cy="3450.2" r="6.2"/>
	<polygon class="st5" points="4267.4,3657.7 4285.8,3661 4280.7,3677.1 4292.8,3669.8 4309.2,3692.3 4293,3647.1 	"/>
</g>
<path class="st12" d="M1999.6,5459l-42.8,214c0,0,35,21.6,195.1-139.1c0,0,6.6-102.4,45.8-117.7c0,0,23.1-15.2,10.9,78.4l117-78.4
	c0,0,118.6,128.8-141.8,331.4c0,0-162.4,140-268.2,159.9"/>
<g>
	<g>
		<path class="st1" d="M1584.2,6315.5c4,173,425.7,400.3,1123,400.3c452,0,1108.2-27.1,1108.2-98.7c0-71.6-783.5-198.4-1235.5-198.4
			S1582.6,6243.9,1584.2,6315.5z"/>
		<path class="st13" d="M2707.2,5968.1c0,0,0,541.3-555.9,517.6s-721.9-208.9-680.4-641c41.5-432.1,302.9-717,406.6-712.2
			C1981.2,5137.1,2707.2,5654.7,2707.2,5968.1z"/>
		<path class="st14" d="M1814.7,6211.7c0,0-238.1-26.7-219.6-340.9c18.4-314.2,179.4-701.1,296.8-686.2
			c117.4,14.9,495.4,311.2,606.1,610.7c110.7,299.5-238.6,405.4-238.6,405.4L1814.7,6211.7z"/>
		<g>
			<path class="st15" d="M3205.1,6485l-551.2-513c0,0-513.5,169-586.7,168.8c-73.1-0.2-5.1-405,111.9-440.8
				c116.9-35.8,670.5-62,723,0s534.5,524.9,534.5,524.9L3205.1,6485z"/>
			<path class="st16" d="M2525.8,5382.1c0,0,140.6,235.4,382.7,302.6c0,0,80.7,2.2,96.4-35.9s47.1,35.9,0,58.3
				c-47.1,22.4-47.1,0-47.1,0s143.5,38.1,143.5,67.2s-89.7,96.4-145.7,85.2c-56-11.2-433.1-149.5-585.6-369.5L2525.8,5382.1z"/>
			<path class="st6" d="M2086.1,5270.5c0,0,71.6,131.2,116.9,0c0,0,123.4-11.1,197.3,26.5c74,37.6,179.7,154.8,179.7,154.8
				s-119.3,97.8-128.8,128.8L2370,5490l38.2,143.2l-570.3,322.6c0,0,28.3-361.7,82-474.1c20.1-42.1-150.2-59-176.4,14.9
				c0,0,46.7-209.4,130.2-209.4S2086.1,5270.5,2086.1,5270.5z"/>
			<path class="st15" d="M2663.5,6418.6h-348.4v-322.1c0,0-288.7,178.9-381.8,64.4c-93.1-114.5-95.4-205.2-95.4-205.2l236.2-171.8
				c0,0,489.1-293.5,548.8-121.7C2682.6,5834.1,2663.5,6418.6,2663.5,6418.6z"/>
			<path class="st3" d="M2987.5,6673c0,0-62.7-122.6-114.4-119.9c-51.8,2.7-168.9,0-168.9,0l-76.3-68.1h-280.6v188h114.4
				c0,0,13.6-51.8,38.1-49c24.5,2.7,35.4,49,35.4,49H2987.5z"/>
			<path class="st3" d="M3850.8,6142.1c0,0-133-35.7-165.6,4.6s-113.2,125.3-113.2,125.3l-101.6,11l-188.1,208.2l139.5,126
				l76.7-84.9c0,0-29.3-44.8-10.8-61.2c18.5-16.4,60.1,6.6,60.1,6.6L3850.8,6142.1z"/>
			<path class="st16" d="M2252.2,5416.3c0,0-101.8,74.1-117,78.4c0,0,13.1-79.4-10.9-78.4c-30.8,1.2-45.8,117.7-45.8,117.7
				s-169.4,169.4-195.1,139.1c0,0,14.3-71.6,42.8-214c0,0-136.7-78.1-177.5,16.8c-41.4,96.2-169.1,420.2-5.2,439.5
				c185.2,21.7,424.3-211.4,483.1-285.4C2285.5,5555.8,2295.1,5475.2,2252.2,5416.3z"/>
			<path class="st16" d="M2086,5119.6c0-48,20.5-132.8,122.7-132.8s86,94.8,82.8,146.6c-4,63.1-44.5,94.6-88.6,98.3v40.8
				c0,0-5.7,58.2-55.6,57.9c-29.5-0.1-61.4-57.9-61.4-57.9c15.7-15.8,18-63.4,18.2-88.3C2092.9,5167,2086,5145.4,2086,5119.6z"/>
			<polygon class="st17" points="2696.9,5313.5 2666.4,5606.7 2282.5,5631 2300.7,5313.5 			"/>
			<polygon class="st10" points="2666.4,5606.7 2663.5,5631 2278.7,5657.2 2282.5,5631 			"/>
			<polygon class="st10" points="2282.5,5631 2187,5674.6 2187,5691.3 2278.7,5657.2 			"/>
			<polygon class="st6" points="2187,5691.3 2268.1,5683.5 2333,5655.2 2278.7,5657.2 			"/>
			<polygon class="st6" points="2663.5,5631 2622.9,5662.3 2606.5,5634.9 			"/>
			<polygon class="st6" points="2624.4,6420.6 2627.9,6485 2347.3,6485 2347.3,6420.6 			"/>
			<polygon class="st6" points="3470.3,6282.9 3412.2,6258.6 3235.8,6456.7 3282.2,6491.1 			"/>
		</g>
		<circle class="st6" cx="2279.5" cy="5094.5" r="8.9"/>
		<circle class="st6" cx="2196.4" cy="5093.5" r="8.9"/>
		<path class="st12" d="M2250.6,5146.7c22.9,0,5.9-29.1,5.9-29.1s-30.1-58.1,40.9-40.4"/>
		<path class="st12" d="M2175.5,5076.5c0,0,23.2-12.6,36.1,1.3"/>
		<path class="st6" d="M2104.2,5184.2c0,0,37,52.4,98.7,47.5v26.9C2202.9,5258.7,2118.5,5250.9,2104.2,5184.2z"/>
		<path class="st12" d="M2130,5084.2c0,0,2-17.1-12.9-15.5c-14.9,1.6-9.9,31.2-1.2,51.2"/>
		<path class="st12" d="M2252.2,5184.2c0,0-6.8,17.6-20.2,2.2"/>
		<path class="st6" d="M2087,5101.4c0,0-16.9-151.1,107.4-138c124.3,13,106.1,103.6,106.1,103.6l-6.1,34.5c0,0,6.1-85.8-76.6-83.7
			c-65.3,1.6-70,72.9-70,72.9h-9.3c0,0-3.4-35.5-26.1-32.7C2089.7,5060.6,2087,5101.4,2087,5101.4z"/>
		<path class="st14" d="M2277.5,4977.8c0,0,165,47.8,104.2,71.9s-229.4-35.1-229.4-35.1L2277.5,4977.8z"/>
		<path class="st5" d="M2152.3,5014.6l-48-16.7c0,0-4.8-80.6,77.7-80.6c82.5,0,95.5,60.5,95.5,60.5L2152.3,5014.6z"/>
		<path class="st12" d="M1765.9,5917.2c0,0-6.2-40.2-35.3-56.4c-29.2-16.2-61.9-10.1-61.9-10.1"/>
		<path class="st12" d="M2635,5717.4c0,0,192.3,96.5,275.6,128.7s127.7-7.2,127.7-7.2l-78.7-29.5"/>
		<line class="st15" x1="3091.7" y1="5795.3" x2="2991.8" y2="5756.2"/>
		<line class="st15" x1="3067.9" y1="5818.8" x2="2973.6" y2="5783.3"/>
		<line class="st12" x1="2266.4" y1="5439.2" x2="2175.5" y2="5512.5"/>
		<line class="st12" x1="2276.6" y1="5466.7" x2="2198.8" y2="5538.3"/>
		<line class="st12" x1="2278.7" y1="5509.5" x2="2221" y2="5562.2"/>
	</g>
	<path class="st14" d="M2259.3,6200.6c0,0-303.2,0.2-444.6,11.1C1814.7,6211.7,2083.6,6354.3,2259.3,6200.6z"/>
</g>
<path class="st1" d="M7277.8,6085.2c0,54.9-394.6,99.5-881.4,99.5c-486.8,0-881.4-44.5-881.4-99.5s394.6-77.4,881.4-77.4
	C6883.2,6007.9,7277.8,6030.3,7277.8,6085.2z"/>
<circle class="st13" cx="1493.8" cy="3530.6" r="244.8"/>
<ellipse class="st1" cx="5516.7" cy="6673" rx="580.9" ry="65.3"/>
<path class="st12" d="M5225.7,5031.2c0,0,77.8,54.4,102.1,61.6"/>
<polygon class="st3" points="3642.7,4969.2 3186.7,4979.9 3187.5,5012.9 3643.4,4998.9 "/>
<rect x="3276.5" y="5050.5" transform="matrix(0.9997 -2.344282e-02 2.344282e-02 0.9997 -117.7604 82.5203)" class="st3" width="368.3" height="26.7"/>
<polygon class="st5" points="3646.2,5118.2 3229.3,5127.9 3230.1,5160.9 3646.9,5147.9 "/>
<polygon class="st3" points="4727.7,5099.2 4605.1,5079.8 4543,5000.7 4521,5080 4487.8,4979.8 4460.9,5084.5 4335.6,4823.7 
	4284.6,4956.6 4103.7,4805.3 3948.7,4904.4 3805.9,4755.6 3810.4,5159.4 4811.3,5151.5 "/>
<polygon class="st5" points="4645.2,5153.6 4581.2,5105.7 4430.4,5145.4 4166.4,4944.1 4080.5,5077.7 3807.7,4924 3810.9,5203.1 
	4811.7,5190.9 "/>
<rect x="4420.7" y="4311.6" transform="matrix(0.9999 -1.115053e-02 1.115053e-02 0.9999 -49.9904 50.7922)" class="st14" width="218.6" height="393.9"/>
<rect x="4115.5" y="4223.5" transform="matrix(0.9999 -1.115053e-02 1.115053e-02 0.9999 -49.5371 47.3862)" class="st3" width="218.6" height="485.4"/>
<rect x="3802.6" y="4347.8" transform="matrix(0.9999 -1.115053e-02 1.115053e-02 0.9999 -50.2696 43.9014)" class="st13" width="218.6" height="364.5"/>
<path id="XMLID_317_" class="st13" d="M6146.4,3510.4c57.3-88,110.5-20.7,110.5-20.7c47.1-123.9,134.5-50.8,134.5-50.8
	s21.8-206.2,224.1-206.2c214,0,248,140.5,248,140.5s4-80.7,104.6-80.7s119.5,143.4,119.5,143.4s-0.8-41.8,95.6-41.8
	c96.4,0,185.3,119.3,185.3,119.3L6146.4,3510.4z"/>
<g>
	<path class="st15" d="M1336.8,6534.1c0,0-112.3-94.3-74.2-234c38.1-139.8,91.9-88,76.5-31.2
		C1311.6,6370.6,1259.3,6368.6,1336.8,6534.1z"/>
	<ellipse class="st1" cx="1508.3" cy="6607.8" rx="253.6" ry="68"/>
	<path class="st15" d="M1641.4,6271.9c0,0,146.7,307.9-61.2,331.5s-401.3-38.6-153.2-451.3L1641.4,6271.9z"/>
	<path class="st15" d="M1420.4,6174.5l30-142.5c0,0,89.5,120.9,92,120.9c5.7,0,78.6-125.2,78.6-125.2L1669,6183l0,0
		c6.4,12.8,9.9,26.7,9.9,41.3c0,61-61.1,110.5-136.5,110.5c-75.4,0-136.5-49.5-136.5-110.5
		C1405.8,6206.4,1411.1,6189.5,1420.4,6174.5z"/>
	<path class="st6" d="M1574.8,6228.9c0,0-14.2,21-20.1,18s-19.4-18-19.4-18H1574.8z"/>
	<circle class="st6" cx="1631.5" cy="6201.3" r="7.9"/>
	<circle class="st6" cx="1473.9" cy="6201.3" r="10"/>
	<polygon class="st6" points="1499.9,6156.4 1454.8,6156.4 1463.9,6104.7 	"/>
	<polygon class="st6" points="1636.5,6156.4 1588.3,6156.4 1617.5,6104.7 	"/>
	<path class="st18" d="M1363.5,6518.6c0,0-33.2,43.5-35.2,61.4s89.8,79.3,109.8,52.8c19.9-26.4-37.6-59.9-37.6-59.9
		s134.8-126.8-7.7-154.3"/>
	<path class="st18" d="M1451.1,6394.5c0,0-23.3,176.5,0,214.5c23.3,37.9,50.8,11.9,50.8,11.9l18.3-222.2"/>
	<path class="st18" d="M1673,6550.8c0,0,57.5,33.5,37.6,59.9c-19.9,26.4-111.8-34.9-109.8-52.8c2.1-17.9,35.2-61.4,35.2-61.4"/>
	<path class="st18" d="M1655.3,6385.9c0,0,23.3,176.5,0,214.5c-23.3,37.9-50.8,11.9-50.8,11.9l-19.3-222.2"/>
</g>
<path id="XMLID_338_" class="st4" d="M6272.7,4125.7c83.4-36,108.9,27,108.9,27C6303,4186.7,6272.7,4125.7,6272.7,4125.7z"/>
<path id="XMLID_337_" class="st4" d="M6075,3723.1c84.5,33.3,58.1,96,58.1,96C6053.5,3787.7,6075,3723.1,6075,3723.1z"/>
<path id="XMLID_331_" class="st4" d="M5902.7,3643.7c-11.2,112-94.8,101.6-94.8,101.6C5818.4,3639.9,5902.7,3643.7,5902.7,3643.7z"
	/>
<path id="XMLID_330_" class="st4" d="M5811.6,4059.2c58.9-69,109.6-23.6,109.6-23.6C5865.5,4100.7,5811.5,4059.2,5811.6,4059.2z"/>
<path id="XMLID_382_" class="st4" d="M8595.2,4982.1c-41-81.1,20.4-110.3,20.4-110.3C8654.3,4948.2,8595.2,4982.1,8595.2,4982.1z"/>
<path id="XMLID_381_" class="st4" d="M8205.3,5203.7c28.1-86.3,92.3-63.8,92.3-63.8C8271.1,5221.3,8205.3,5203.7,8205.3,5203.7z"/>
<path id="XMLID_361_" class="st4" d="M8136.4,5380.4c112.5,4.4,107.2,88.5,107.2,88.5C8137.7,5464.9,8136.4,5380.4,8136.4,5380.4z"
	/>
<path id="XMLID_349_" class="st4" d="M8807.9,5654.7c-72.4-54.7-30.2-108-30.2-108C8846,5598.3,8807.9,5654.8,8807.9,5654.7z"/>
<path id="XMLID_386_" class="st1" d="M6095.8,6114.5l545.4-0.6c0,0,40.7,7,20.7-69.4s-79.7-14.3-79.7-14.3
	c-44.5-118.9-86.2-25.4-86.2-25.4c-92.2-274.5-152.1-44.7-181.9,1.3c-6.2-26.4-23.6-45.4-44.1-45.4c-20.1,0-37.3,18.4-43.8,44
	c-4.4-2.8-9.5-4.4-14.9-4.4c-18.1,0-32.8,17.7-32.8,39.7c0,3.8,0.4,7.5,1.3,11c-2.6-0.7-5.3-1-8.2-1c-16.7,0-30.3,12.6-31,28.4
	C6113.8,6098.2,6095.8,6114.5,6095.8,6114.5z"/>
<g>
	<path class="st7" d="M5782.5,5437.9c107.1,66,255.3,107,419.2,107c147.1,0,281.8-33,385.3-87.7c97.3,90.9,242.1,148.5,403.7,148.5
		c293.2,0,530.7-189.6,530.7-423.2c0-183.2-146-339.3-350.3-398.1c0.1-3.3,0.1-6.6,0.1-9.9c0-148-95.3-278.3-239.8-354
		c0.9-9.8,1.2-19.4,1.2-29.3c0-233.8-237.7-423.2-530.7-423.2c-258.9,0-474.6,147.9-521.3,343.6
		c-180.4,56.1-312.2,235.3-312.2,447.7c0,2.5,0,4.9,0,7.4c-173,63.4-288.8,179.4-288.8,312.1
		C5279.6,5260.7,5497.7,5411.4,5782.5,5437.9z"/>
	<line class="st19" x1="6401.8" y1="4325.3" x2="6404.6" y2="6052.5"/>
	<path class="st19" d="M7229.5,5000c0,189.3-275.9,160.6-275.9,160.6s-231.8-31.5-219.4,256.8c12.6,288.3-332.5,250.8-332.5,250.8"
		/>
	<path class="st19" d="M6001,4582.7c137.9,0,100.3,239.3,100.3,464.9c0,225.7,300.6,288.3,300.6,288.3"/>
	<path class="st19" d="M6747.9,4200.3c-103.9,0-107.6,382.4-107.6,382.4c0,149.5-238.5,191.7-238.5,191.7"/>
	<path class="st19" d="M5875.5,4921.1c175.5,0,227.6,157.5,227.6,157.5"/>
	<path class="st19" d="M6696,4842.2c152.1,0,120.2,352.5,120.2,352.5"/>
	<path class="st19" d="M6243.2,4621.9c-74.2,0-137.9,152.5-137.9,152.5"/>
	<path id="XMLID_315_" class="st4" d="M6703.1,5009.8c83.4-36,108.9,27,108.9,27C6733.4,5070.8,6703.1,5009.8,6703.1,5009.8z"/>
	<path id="XMLID_313_" class="st4" d="M6505.4,4607.2c84.5,33.3,58.1,96,58.1,96C6483.8,4671.8,6505.4,4607.2,6505.4,4607.2z"/>
	<path id="XMLID_312_" class="st4" d="M6506,4389.2c145.2,6.8,137.6,115.3,137.6,115.3C6506.7,4498.2,6506,4389.2,6506,4389.2z"/>
	<path id="XMLID_311_" class="st4" d="M6465.6,4171.5c19.7,88.7-67.7,171.6-67.7,171.6C6379.2,4259.5,6465.5,4171.6,6465.6,4171.5z"
		/>
	<path id="XMLID_310_" class="st4" d="M6308.1,4372.1c90.8-1.5,90.3,66.5,90.3,66.5C6312.9,4440,6308.1,4372.1,6308.1,4372.1z"/>
	<path id="XMLID_308_" class="st4" d="M6478,4325.2c-23.4,70.4-70.7,53.3-70.7,53.3C6429.3,4312.1,6478,4325.2,6478,4325.2z"/>
	<path id="XMLID_306_" class="st4" d="M6327.1,4860.1c67.2-2.7,68.3,52.8,68.3,52.8C6332,4915.5,6327.1,4860.1,6327.1,4860.1z"/>
	<path id="XMLID_305_" class="st4" d="M6406.7,5067.3c60-30.4,84.1,19.6,84.1,19.6C6434,5115.7,6406.6,5067.3,6406.7,5067.3z"/>
	<path id="XMLID_303_" class="st4" d="M6143.7,4589.4c55.4-0.7,55,40.7,55,40.7C6146.6,4630.8,6143.8,4589.5,6143.7,4589.4z"/>
	<path id="XMLID_302_" class="st4" d="M6342.6,4321.4c55-5.5,58.3,35.8,58.3,35.8C6349,4362.4,6342.6,4321.4,6342.6,4321.4z"/>
	<path id="XMLID_301_" class="st4" d="M6333.1,4527.8c-11.2,112-94.8,101.6-94.8,101.6C6248.7,4524,6333.1,4527.8,6333.1,4527.8z"/>
	<path id="XMLID_300_" class="st4" d="M6015.3,4900.4c38.9,39.3,8.9,67.8,8.9,67.8C5987.4,4931.1,6015.3,4900.4,6015.3,4900.4z"/>
	<path id="XMLID_299_" class="st4" d="M6308.3,5086.7c90.7,4.4,85.9,72.2,85.9,72.2C6308.6,5154.8,6308.3,5086.7,6308.3,5086.7z"/>
	<path id="XMLID_298_" class="st4" d="M6234.6,5263.2c-47.8-77.2,10.8-111.7,10.8-111.7C6290.5,5224.4,6234.6,5263.2,6234.6,5263.2z
		"/>
	<path id="XMLID_297_" class="st4" d="M6018.9,5181.5c58.9-69,109.6-23.6,109.6-23.6C6072.8,5223,6018.8,5181.5,6018.9,5181.5z"/>
	<path id="XMLID_296_" class="st20" d="M6000.1,5059.7c88.1-22.2,103.2,44.1,103.2,44.1C6020.2,5124.8,6000.1,5059.7,6000.1,5059.7z
		"/>
	<path id="XMLID_295_" class="st4" d="M6075,4507.5c21.8,70.9-26.7,84.5-26.7,84.5C6027.7,4525.1,6075,4507.5,6075,4507.5z"/>
	<path id="XMLID_293_" class="st4" d="M5978.1,4531.5c46.8,29.6,23.8,64.1,23.8,64.1C5957.8,4567.7,5978,4531.5,5978.1,4531.5z"/>
	<path id="XMLID_290_" class="st4" d="M6020.2,4675.5c21.3-51.1,59.2-34.2,59.2-34.2C6059.2,4689.4,6020.2,4675.5,6020.2,4675.5z"/>
	<path id="XMLID_289_" class="st4" d="M7303.7,4979.5c-37.8,55.6-83.1,23.4-83.1,23.4C7256.3,4950.5,7303.7,4979.5,7303.7,4979.5z"
		/>
	<path id="XMLID_287_" class="st4" d="M6526.6,4947.5c-57.4,70.3-109.1,26.2-109.1,26.2C6471.5,4907.3,6526.5,4947.5,6526.6,4947.5z
		"/>
	<path id="XMLID_318_" class="st4" d="M6853.4,4797.7c16.4,105.1-62.6,115.7-62.6,115.7C6775.4,4814.3,6853.4,4797.7,6853.4,4797.7z
		"/>
	<path id="XMLID_322_" class="st4" d="M6617.6,4794.3c90.3-9.1,95.7,58.7,95.7,58.7C6628.1,4861.6,6617.7,4794.4,6617.6,4794.3z"/>
	<path id="XMLID_323_" class="st4" d="M6756.1,4328.8c-69.7,25.4-85.8-22.3-85.8-22.3C6736.1,4282.5,6756.1,4328.8,6756.1,4328.8z"
		/>
	<path id="XMLID_324_" class="st4" d="M7178.6,4935.1c68.5,28.4,48.1,74.4,48.1,74.4C7162,4982.7,7178.6,4935.1,7178.6,4935.1z"/>
	<path id="XMLID_325_" class="st4" d="M7030,5165.6c68.5,28.4,48.1,74.4,48.1,74.4C7013.4,5213.3,7030,5165.6,7030,5165.6z"/>
	<path id="XMLID_328_" class="st4" d="M6688.8,5257.3c68.5,28.4,48.1,74.4,48.1,74.4C6672.2,5304.9,6688.8,5257.3,6688.8,5257.3z"/>
	<path id="XMLID_329_" class="st4" d="M6739.8,5429.2c68.3-28.9,86.8,18,86.8,18C6762.1,5474.5,6739.8,5429.2,6739.8,5429.2z"/>
</g>
<g>
	<g>
		<g>
			<g>
				<path class="st16" d="M5307.6,4438.4c0,0-87.6,5.1-69.7-209.7c0,0,122.8-63.9,184.1,0c61.4,63.9-20.5,194.4-43.5,196.9"/>
				<path class="st6" d="M5191.9,4246.6c0,0,51.7,28.2,176.7,17.8c22.5-1.9,57.1,58.5,27.3,94.9c-20.1,24.6-17.8,36.1-17.3,66.3
					c0.6,41.5,15.8,83,15.8,83s273.4,457.1,449.7,367c176.3-90.2,99.9-378.1-0.3-404.9c-100.2-26.8-65.6-165.9-103.1-230.1
					c-37.4-64.2-226.6-28.2-235.1-45.2c-8.5-16.9-86.1-100.9-178.6-88.9S5148.5,4218,5191.9,4246.6z"/>
				<path class="st13" d="M5836.4,5192.4c0,0,19.6,348.6,156.7,575.8c0,0,148.9,391.7,105.8,579.8c0,0-137.1,121.4-262.5,23.5
					c0,0-253.6-405.6-372.1-728.6c0,0,180.2,442.7,54.8,787.4c0,0-207.6,62.7-254.6,0c0,0-325.1-1269.2-160.6-1570.8l-184.1-188
					c0,0,235-164.5,387.8-160.6c0,0,33.4,25.9,75.7-0.1c0,0,264.7-71.5,402.8,167.3l-208,146.5
					C5578,4824.5,5834.8,5029.5,5836.4,5192.4z"/>
				<path class="st21" d="M5106.9,4862.4c0,0-279.8,231.4-388.2,144.2c-108.4-87.3-51.8-599.8-51.8-599.8s-69.3-7.6-88.3-20
					c-46.2-30.3-57.7-183.5,27.4-154.5c57.2,19.5,110.3,73.7,144.9-21c4.8-13.1,44.5-71.9,39.2,23.3c-5.3,95.2,36.3,65.1,33.7,152.4
					c-2.6,87.3,3.7,321.9,24.9,321.9s74.1-34.4,74.1-34.4L5106.9,4862.4z"/>
				<path class="st3" d="M6196.2,6523.7l-81.4,50.8c0,0-5.8-47.9-24.7-45c-18.9,2.9-77.8,123.6-77.8,123.6l-281.2,5.8v-32l55.2-35.6
					c0,0,85.8,2.2,131.6-35.6s173.6-163.5,173.6-163.5l56.8,10.9L6196.2,6523.7z"/>
				<path class="st3" d="M5605.8,6552.8l-81.4,50.8c0,0-5.8-47.9-24.7-45c-18.9,2.9-92.2,100.2-92.2,100.2h-282l-5-36.3l46.5-33.3
					c0,0,100.4,10,146.1-27.8c45.8-37.8,192.5-125.8,192.5-125.8l56.8,10.9L5605.8,6552.8z"/>
				<path class="st11" d="M5499.7,6435.6v22.5c0,0-128.2,149.4-231.4,129.3c0,0,45.9-43.9,40.1-75c-5.7-31.1-10-60.8-10-60.8
					S5384,6468.4,5499.7,6435.6z"/>
				<path class="st11" d="M6072.3,6367.5l34.4,44.2c0,0-140.1,180.1-188.8,161.4v-165.4C5917.8,6407.7,5971.5,6420.9,6072.3,6367.5z
					"/>
				<path class="st21" d="M5960.2,5129.3c28.3-108.7-48.2-273.2-177.6-451.7l-208,146.5c0,0,129.1,141.7,125.9,194.1
					c0,0-75.8,156.2-234.7-40.8c0,0-38.8-25.6-34,22.1c4.8,47.7,9.4,55,9.4,55s-66.5-42-82.6-52.4c-37.1-23.9-63.1,144.1-12.8,181.9
					C5548.3,5336.2,5914.4,5304.8,5960.2,5129.3z"/>
				<path class="st16" d="M5378.6,4425.6l14.8,81.1c0,0-36.6,40.6-85.8,4.1v-72.4L5378.6,4425.6z"/>
				<path class="st6" d="M5307.6,4468.3v-29.9c0,0,46.8,0.5,71-12.8C5378.6,4425.6,5323.3,4466.5,5307.6,4468.3z"/>
			</g>
			<circle class="st6" cx="5248.5" cy="4311.8" r="8.9"/>
			<circle class="st6" cx="5333.2" cy="4311.8" r="8.9"/>
			<path class="st12" d="M5285.3,4368c-22.9,0-5.9-29.1-5.9-29.1"/>
			<path class="st12" d="M5314.2,4290.8c16-16.7,35.9-4.3,35.9-4.3"/>
			<path class="st12" d="M5234.1,4286.4c16.5-9.5,34.9,9.5,34.9,9.5"/>
			<path class="st12" d="M5288.1,4397.8c11.1,15.3,18.1-3.6,18.1-3.6"/>
			<path class="st12" d="M4806.3,5024.4c0,0-4.9-53.5-50.8-73.8c-45.9-20.3-74-2.6-74-2.6"/>
			<path class="st12" d="M5966.4,5056.7c0,0-34.2,11.1-50.3,69.7s13.1,62.4,13.1,62.4"/>
		</g>
		<line class="st12" x1="5429" y1="5097.3" x2="5329.1" y2="5031.2"/>
		<path class="st12" d="M5416,5136.3c-52.9-22.6-98.8-62.6-98.8-62.6"/>
		<path class="st12" d="M5402,5175c-46.8-15.8-83-52.6-83-52.6"/>
	</g>
	<path class="st12" d="M4552,4251.4c0,0,41.7,22.7,103.2,39.3"/>
	<path class="st12" d="M4543,4292.2c0,0,43.7,20.7,105.2,37.2"/>
	<path class="st12" d="M4547.5,4335.8c0,0,35.7,17.6,97.2,34.2"/>
</g>
<g>
	<ellipse class="st1" cx="7782.5" cy="6065.3" rx="427" ry="99.5"/>
	<g>
		<g>
			<path class="st6" d="M6897.3,3986l-234.1,66.3c0,0-4.4,125.9,197,100.5c201.4-25.3,248.2-63.4,248.2-63.4L6897.3,3986z"/>
			<polygon class="st14" points="7015.3,4043.8 7021.7,4016.6 7054.5,4038.3 7021.7,4071 			"/>
			<polygon class="st14" points="6927.1,3960.7 6927.1,3991.5 6950.8,4003.1 6960.2,3971 			"/>
		</g>
		<g>
			<path class="st14" d="M7611.4,5759l-0.9,169.1c-52.9,6-89.8,54-89.8,104.9c0,50.1,249.5-12,249.5-12v-263.7
				C7672.2,5811.7,7611.3,5759,7611.4,5759z"/>
			<path class="st6" d="M7620.8,5778.3c58.7,60.1,150.2-21,150.2-21S7562.1,5718.1,7620.8,5778.3z"/>
			<path class="st5" d="M7770.1,6001.8v19.2c-249.2,60.3-249.8,15.9-249.8,15.9l0.9-14.7c31.3,36.3,249-20.4,249-20.4H7770.1z"/>
			<path class="st3" d="M7731.9,5677.8h-95.9v76.4c0,60.2,95.9,12.7,95.9,12.7v-62.5V5677.8z"/>
			<path class="st6" d="M7635.5,5717.5v24.3c51.5,12.8,97.1-29.6,97.1-29.6C7670.6,5728.3,7635.5,5717.5,7635.5,5717.5z"/>
			<path class="st14" d="M7863.3,5769.1l-0.9,169.1c-52.9,6-89.8,54-89.8,104.9c0,50.1,249.5-12,249.5-12v-263.7
				C7924.2,5821.7,7863.2,5769.1,7863.3,5769.1z"/>
			<path class="st6" d="M7872.8,5788.4c58.7,60.1,150.2-21,150.2-21S7814,5728.2,7872.8,5788.4z"/>
			<path id="XMLID_2_" class="st16" d="M7600.7,3951.4c0,0-262-96.2-356.1-142.3c-94-46.2-224.4-45.8-290.1,1.4
				c-65.7,47.3-56.2,115.1-36.5,115.1c19.8,0.1,100.5-35.2,128.5-25.3c28,9.9-23.7,9.1-41.2,35.1c-17.5,26.1,12.1,22.9,12.1,22.9
				c63.3-29.1,141-1.6,141-1.6l447.2,222.8C7596.7,4061,7600.7,3951.4,7600.7,3951.4z"/>
			<path class="st6" d="M7743,3765.1c-61.1,199.6,23.3,186.1,23.3,186.1C7821.5,3750,7743.1,3765.1,7743,3765.1z"/>
			<path class="st6" d="M7799.4,3705.8c-53-84.1,142.1-174.3,197.9-52.5c55.7,121.7-103.1,104.2-103.1,104.2
				S7852.4,3789.9,7799.4,3705.8z"/>
			<g>
				<path class="st3" d="M7990,5688h-95.9v76.4c0,60.2,95.9,12.7,95.9,12.7v-62.5V5688z"/>
				<path class="st4" d="M7787.9,4027.9l-237.9-96.5c-42.4-3.6-59.6,189.5-59.6,189.5c63.8,39.4,159.3,76,159.3,76
					s-84.2,365.4-84.2,483.7c0,118.3,513.6-1.7,513.6-1.7l-63.7-351.6l178.2-96.6c0,0-50.2-151.7-110.5-174
					c-60.4-22.3-196.9-25.2-196.9-25.2L7787.9,4027.9z"/>
				<path class="st5" d="M7939.4,4028c-12.1,158.8,10.3,377.2-20.5,440.7c-26.5,54.8-265.8,68.1-258.5,7.1
					c2-280,59.5-404.7,125.7-449.6l-32.4-16.5c-121.8,83.5-172.7,530.5-172.7,530.5c-66.4,245.7-5.1,1127.9,6,1160.3
					c11.2,32.4,176.8,21.4,200.6-15.1c32.9-50.7,22.2-615.2,22.2-615.2s10.5,567.6,32.1,638.7c52.8,61.7,203.4,31,216.2-21.8
					c38.2-158.4,21.2-1014.5,21.2-1014.5l-63,9l-36.1-650.4L7939.4,4028z"/>
				<path class="st10" d="M7936.9,4823.7c0,0-204.6,76-322.4-8.6c0,0,15.3-286.1,38.9-277.9c117.4,40.4,280.4,9.2,280.4,9.2
					S7961,4756.3,7936.9,4823.7z"/>
				<path class="st16" d="M7804.4,4039.2c15.1-27.1,3-48.9,3-48.9c-71-4.5-82.7-206.6-0.8-215.7c81.9-9.1,118.5,38.4,129.3,101.7
					s-21.6,78.1-24.1,100.7c-2.5,22.6,9.2,62.2,9.2,62.2C7877.8,4132,7789.5,4066.3,7804.4,4039.2z"/>
			</g>
			<path class="st6" d="M7894.3,5739l-0.1,25.6c42.2,20.2,98-28.9,98-28.9C7921.3,5752.7,7894.2,5739,7894.3,5739z"/>
			<path class="st6" d="M7954.1,3687.1c148.6,20.6,91.2,306.8-11.4,297.1c-102.6-9.8-45-200.2-45-200.2S7805.6,3666.3,7954.1,3687.1
				z"/>
			<path class="st6" d="M7712.8,3767.5c8.1,74.1,238.3,19.7,238.3,19.7C7913.3,3667.4,7704.7,3693.4,7712.8,3767.5z"/>
			<path id="XMLID_35_" class="st16" d="M8193.6,4231c98.8,301.4,52.4,725.1-18.4,765.7c-83.9,48.1-165.2,23.6-165.2,23.6
				s138.7-214.5,81.6-163.7c-57,50.8-67.6,33.9-67.6,33.9s-17.7-14,19.9-91.6c30.8-63.6,4.4-308.3-31.5-471.4L8193.6,4231z"/>
			<path class="st6" d="M7809.3,4028.7c6.2-18.5-1.7-38.4-1.7-38.4c34.1,8.1,90.2-26.8,90.2-26.8S7803,4047.4,7809.3,4028.7z"/>
			<circle class="st6" cx="7768" cy="3864.9" r="8.9"/>
			<circle class="st6" cx="7852.6" cy="3864.9" r="8.9"/>
			<path class="st12" d="M7804.7,3921.1c-22.9,0-5.9-29.1-5.9-29.1"/>
			<path class="st12" d="M7833.6,3843.9c16-16.7,35.9-4.3,35.9-4.3"/>
			<path class="st12" d="M7753.5,3839.5c16.5-9.5,34.9,9.5,34.9,9.5"/>
			<path class="st12" d="M7807.5,3950.9c11.1,15.3,18.1-3.6,18.1-3.6"/>
			<path class="st5" d="M8021.9,6011.9v19.2c-249.2,60.3-249.8,15.9-249.8,15.9l0.9-14.7c31.3,36.3,249-20.4,249-20.4H8021.9z"/>
			<path class="st16" d="M8012.5,4327.6"/>
			<path class="st12" d="M8103.8,4848.9c-99.4,79.8-102.3,45.7-56.6-61.4c32.2-75.4-15.5-352.6-34.7-460"/>
			<path id="XMLID_41_" class="st12" d="M8050.6,5026.9c27.3-17.1,61.9-80.8,61.9-80.8"/>
			<path id="XMLID_40_" class="st12" d="M8097.2,5023.3c22.7-7.8,53.4-75.1,53.4-75.1"/>
			<path id="XMLID_1_" class="st12" d="M8144.9,5011.6c16.9-10,41.2-70.3,41.2-70.3"/>
			<path id="XMLID_55_" class="st22" d="M7068,3855.1c-64-14.2-163.7,33.1-163.7,33.1"/>
			<path id="XMLID_43_" class="st22" d="M7074.2,3822.4c-45.7-17-158.5,28-158.5,28"/>
			<path id="XMLID_42_" class="st22" d="M7076.9,3790.7c-42.2-9.7-131.1,25.9-131.1,25.9"/>
			<path id="XMLID_60_" class="st23" d="M8245,4487c0,0-81.8,31.1-90.3-67.5c-8.6-98.6,61.8-101.6,61.8-101.6"/>
		</g>
		<path class="st1" d="M6663.2,4052.3l-0.7,103.7c112,171.6,445.9,23.4,445.9,23.4v-90C6718.6,4243.7,6663.2,4052.3,6663.2,4052.3z"
			/>
		<path class="st10" d="M6870.1,4118.1c-83.7,0.1-143.4-69.5-143.4-69.5l165.8-34l134.8,70.5
			C7027.2,4085.1,6903.7,4118.1,6870.1,4118.1z"/>
	</g>
</g>
<g>
	<path class="st10" d="M6423.7,3922.5c79.2,9.2,85.6-144.3,188.9-174.3c103.3-30,197,57.8,197,57.8
		C6736.6,4018.8,6423.7,3922.5,6423.7,3922.5z"/>
	<path class="st11" d="M6467.7,4011c9.6,8.4,35.8,6.4,63,1.4c-19.8,7.1-34,15-26.6,21.6c15.2,13.5,71-21.9,91.7-35.9
		c6.7,3,14.1,5.5,21.7,7.5l12.3,41l10-36.9c2.8,0.3,5.6,0.6,8.5,0.8l12.7,42.4l11.4-42.1c58-2.9,138.6-41.9,148.5-98.9
		c24.6-142.2,52.9-130.8,53.4-131l0,0c16.2,0,24.8-21.1,24.8-37.6c0-23.1-19.8-41.8-44.3-41.8c-16.3,0-30.6,8.3-38.2,20.8
		c-9.3,4.9-28.5,85.9-60.2,74c-35.4-13.3-173.7,6.6-202.5,122.8c-8.3,33.6,5.2,57.3,31,72.6
		C6542.4,3992.2,6450.6,3995.4,6467.7,4011z"/>
	<polygon class="st5" points="6615.6,4067.7 6630,4060.9 6642.4,4067.7 6639.8,4057 6654.9,4057 6630,4046.6 	"/>
	<path class="st11" d="M6447.8,3986.8c79.7-3.3,62-156,159.3-201.8c97.4-45.8,203.6,26.3,203.6,26.3
		C6772,4032.9,6447.8,3986.7,6447.8,3986.8z"/>
	<path class="st6" d="M6893,3763.9l55.9,5.8l-35.9-14.8l47.3,4c-1.6-12.1-89.6-60.4-75.2-46.2
		C6912.8,3740.1,6893.1,3763.9,6893,3763.9z"/>
	<circle class="st6" cx="6859.2" cy="3725.5" r="6.2"/>
	<polygon class="st5" points="6651,4078.6 6666.1,4067.7 6674.1,4082.5 6677.2,4068.7 6704.8,4072.7 6661.2,4052.9 	"/>
</g>
</svg>
