<?xml version="1.0" encoding="utf-8"?>
<!-- Generator: Adobe Illustrator 19.0.0, SVG Export Plug-In . SVG Version: 6.00 Build 0)  -->
<svg version="1.1" id="Capa_1" xmlns="http://www.w3.org/2000/svg" xmlns:xlink="http://www.w3.org/1999/xlink" x="0px" y="0px"
	 viewBox="-383 145 512 512" style="enable-background:new -383 145 512 512;" xml:space="preserve">
<style type="text/css">
	.st0{fill:#FFFFFF;}
</style>
<g>
	<circle class="st0" cx="-345.5" cy="272.5" r="7.5"/>
	<circle class="st0" cx="91.5" cy="272.5" r="7.5"/>
	<path class="st0" d="M98.8,235.7C95.3,185.1,53,145,1.5,145h-257c-51.5,0-93.8,40.1-97.3,90.7c-17.2,3.4-30.2,18.6-30.2,36.8v257
		c0,70.3,57.2,127.5,127.5,127.5h257C71.8,657,129,599.8,129,529.5v-257C129,254.3,116,239.1,98.8,235.7z M-255.5,160h257
		c43,0,78.3,33,82.1,75H68.6c-3.7-33.7-32.4-60-67.1-60h-257c-34.7,0-63.3,26.3-67.1,60h-15.1C-333.8,193-298.5,160-255.5,160
		L-255.5,160z M-285.5,220h317c9.8,0,18.1,6.3,21.2,15h-359.4C-303.6,226.3-295.3,220-285.5,220L-285.5,220z M-292.9,205.7
		c9.5-9.7,22.8-15.7,37.4-15.7h257c14.6,0,27.9,6,37.4,15.7c-2.4-0.5-4.9-0.7-7.4-0.7h-317C-288,205-290.5,205.3-292.9,205.7z
		 M-345.5,250h437c12.4,0,22.5,10.1,22.5,22.5V295h-482v-22.5C-368,260.1-357.9,250-345.5,250z M-255.5,642
		c-62,0-112.5-50.5-112.5-112.5V310h45v189.5c0,4.1,3.4,7.5,7.5,7.5s7.5-3.4,7.5-7.5V310H54v219.5C54,591.5,3.5,642-58.5,642h-137
		c-62,0-112.5-50.5-112.5-112.5c0-4.1-3.4-7.5-7.5-7.5s-7.5,3.4-7.5,7.5C-323,578.1-295.6,620.5-255.5,642L-255.5,642z M1.5,642
		L1.5,642C41.6,620.5,69,578.1,69,529.5V310h45v219.5C114,591.5,63.5,642,1.5,642z"/>
</g>
</svg>
