<?xml version="1.0" encoding="utf-8"?>
<!-- Generator: Adobe Illustrator 19.0.0, SVG Export Plug-In . SVG Version: 6.00 Build 0)  -->
<svg version="1.1" id="Warstwa_1" xmlns="http://www.w3.org/2000/svg" xmlns:xlink="http://www.w3.org/1999/xlink" x="0px" y="0px"
	 viewBox="139 133.7 1515.9 309" style="enable-background:new 139 133.7 1515.9 309;" xml:space="preserve">
<style type="text/css">
	.st0{fill:#00D1B2;}
</style>
<path class="st0" d="M590,177.2l-30.2,61.1l-67.5,9.8c-12.1,1.8-16.9,16.7-8.2,25.2l48.8,47.6l-11.5,67.2
	c-2.1,12.1,10.7,21.2,21.4,15.6l60.4-31.7l60.4,31.7c10.7,5.6,23.5-3.4,21.4-15.6l-11.5-67.2l48.8-47.6c8.8-8.5,3.9-23.5-8.2-25.2
	l-67.5-9.8l-30.2-61.1C611.1,166.3,595.5,166.1,590,177.2L590,177.2z"/>
<path class="st0" d="M296.5,177.2l-30.2,61.1l-67.5,9.8c-12.1,1.8-16.9,16.7-8.2,25.2l48.8,47.6L228,388.1
	c-2.1,12.1,10.7,21.2,21.4,15.6l60.4-31.7l60.4,31.7c10.7,5.6,23.5-3.4,21.4-15.6L380,320.9l48.8-47.6c8.8-8.5,3.9-23.5-8.2-25.2
	l-67.5-9.8L323,177.2C317.6,166.3,302,166.1,296.5,177.2L296.5,177.2z"/>
<path class="st0" d="M1178.3,177.2l-30.2,61.1l-67.5,9.8c-12.1,1.8-16.9,16.7-8.2,25.2l48.8,47.6l-11.5,67.2
	c-2.1,12.1,10.7,21.2,21.4,15.6l60.4-31.7l60.4,31.7c10.7,5.6,23.5-3.4,21.4-15.6l-11.5-67.2l48.8-47.6c8.8-8.5,3.9-23.5-8.2-25.2
	l-67.5-9.8l-30.2-61.1C1199.4,166.3,1183.7,166.1,1178.3,177.2L1178.3,177.2z"/>
<path class="st0" d="M1472.5,177.2l-30.2,61.1l-67.5,9.8c-12.1,1.8-16.9,16.7-8.2,25.2l48.8,47.6l-11.5,67.2
	c-2.1,12.1,10.7,21.2,21.4,15.6l60.4-31.7l60.4,31.7c10.7,5.6,23.5-3.4,21.4-15.6l-11.5-67.2l48.8-47.6c8.8-8.5,3.9-23.5-8.2-25.2
	l-67.5-9.8l-30.2-61.1C1493.6,166.3,1478,166.1,1472.5,177.2L1472.5,177.2z"/>
<path class="st0" d="M883.8,177.2l-30.2,61.1l-67.5,9.8c-12.1,1.8-16.9,16.7-8.2,25.2l48.8,47.6l-11.5,67.2
	c-2.1,12.1,10.7,21.2,21.4,15.6l60.4-31.7l60.4,31.7c10.7,5.6,23.5-3.4,21.4-15.6l-11.5-67.2l48.8-47.6c8.8-8.5,3.9-23.5-8.2-25.2
	l-67.5-9.8l-30.2-61.1C904.9,166.3,889.2,166.1,883.8,177.2L883.8,177.2z"/>
</svg>
