<?xml version="1.0" encoding="utf-8"?>
<!-- Generator: Adobe Illustrator 19.0.0, SVG Export Plug-In . SVG Version: 6.00 Build 0)  -->
<svg version="1.1" id="Warstwa_1" xmlns="http://www.w3.org/2000/svg" xmlns:xlink="http://www.w3.org/1999/xlink" x="0px" y="0px"
	 viewBox="0 0 512 512" style="enable-background:new 0 0 512 512;" xml:space="preserve">
<style type="text/css">
	.st0{fill:#00D1B2;}
</style>
<path class="st0" d="M200.8,305.4c-13.1,0-23.7-10.5-23.7-23.4c0-13.1,10.5-23.7,23.7-23.7c12.9,0,23.4,10.5,23.4,23.7
	C224.2,295,213.6,305.4,200.8,305.4z M504,256c0,137-111,248-248,248S8,393,8,256S119,8,256,8S504,119,504,256z M362.5,219.3
	c-8.9,0-16.8,3.7-22.6,9.5c-21.3-14.7-50-24.2-81.8-25.3l16.5-74.4l52.6,11.9c0,12.9,10.5,23.4,23.4,23.4
	c13.1,0,23.7-10.7,23.7-23.7c0-12.9-10.5-23.7-23.7-23.7c-9.2,0-17.1,5.5-21,13.1l-58.1-12.9c-2.9-0.8-5.8,1.3-6.6,4.2l-18.1,82.1
	c-31.5,1.3-59.9,10.7-81.2,25.5c-5.8-6.1-14-9.7-22.9-9.7c-33.2,0-44,44.6-13.7,59.7c-1,4.8-1.6,9.7-1.6,14.7
	c0,50,56.2,90.4,125.4,90.4c69.4,0,125.7-40.5,125.7-90.4c0-5-0.6-10.3-1.8-15C406.4,263.4,395.5,219.3,362.5,219.3L362.5,219.3z
	 M297,329.6c-17.3,17.3-72.3,17-88.9,0c-2.1-2.1-5.8-2.1-7.9,0c-2.4,2.4-2.4,6.1,0,8.2c21.7,21.7,82.9,21.7,104.7,0
	c2.4-2.1,2.4-5.8,0-8.2C302.8,327.6,299.1,327.6,297,329.6z M304.3,258.4c-12.9,0-23.4,10.5-23.4,23.7c0,12.9,10.5,23.4,23.4,23.4
	c13.1,0,23.7-10.5,23.7-23.4C328,268.9,317.5,258.4,304.3,258.4z"/>
</svg>
