<?xml version="1.0" encoding="utf-8"?>
<!-- Generator: Adobe Illustrator 25.2.0, SVG Export Plug-In . SVG Version: 6.00 Build 0)  -->
<svg version="1.1" id="Warstwa_1" xmlns="http://www.w3.org/2000/svg" xmlns:xlink="http://www.w3.org/1999/xlink" x="0px" y="0px"
	 viewBox="0 0 825 472" style="enable-background:new 0 0 825 472;" xml:space="preserve">
<style type="text/css">
	.st0{clip-path:url(#SVGID_2_);fill:url(#SVGID_3_);}
	.st1{fill:#FFFFFF;}
	.st2{font-family:'Montserrat-Regular';}
	.st3{font-size:14px;}
	.st4{font-size:42px;}
	.st5{font-family:'Montserrat-Black';}
	.st6{font-size:37px;}
	.st7{fill:#FCC812;}
	.st8{fill:#404040;}
	.st9{fill:#666666;}
	.st10{fill:#A49399;}
	.st11{opacity:0.3;fill:#442849;enable-background:new    ;}
	.st12{fill:#8C8C8C;}
	.st13{fill:#FFFFFF;stroke:#1C1C1B;stroke-width:0.5254;stroke-miterlimit:10;}
	.st14{fill:#BD960E;}
	.st15{fill:#8E710B;}
	.st16{opacity:0.2;fill:#442849;enable-background:new    ;}
	.st17{fill:#E2E2E2;}
	.st18{fill:#AAAAAA;}
	.st19{fill:#21674E;}
	.st20{fill:#2C8968;}
	.st21{fill:#164534;}
	.st22{opacity:0.3;fill:#FFF0E7;enable-background:new    ;}
	.st23{opacity:0.5;fill:#404040;enable-background:new    ;}
	.st24{fill:#E6AF90;}
	.st25{fill:#18563F;}
	.st26{fill:#207254;}
</style>
<g>
	<g>
		<g>
			<defs>
				<rect id="SVGID_1_" y="0" width="825" height="472"/>
			</defs>
			<clipPath id="SVGID_2_">
				<use xlink:href="#SVGID_1_"  style="overflow:visible;"/>
			</clipPath>
			
				<linearGradient id="SVGID_3_" gradientUnits="userSpaceOnUse" x1="-1213.6371" y1="1279.3562" x2="-1212.0483" y2="1279.3562" gradientTransform="matrix(526.5874 0 0 -526.5874 639063.1875 673971.375)">
				<stop  offset="0" style="stop-color:#379E6E"/>
				<stop  offset="1" style="stop-color:#72C6D4"/>
			</linearGradient>
			<rect x="-22.8" y="-156.78" class="st0" width="870.6" height="870.6"/>
		</g>
	</g>
</g>
<g>
	<text transform="matrix(1 0 0 1 336.0402 57.7136)" class="st1 st2 st3">Nie kupuj - ADOPTUJ!</text>
</g>
<g>
	<path class="st1" d="M69.08,381.7c7.23-0.07,14.06-2.91,19.26-8.02c5.19-5.1,8.16-11.89,8.35-19.11
		c0.15-5.46-1.29-10.79-4.16-15.42c-0.37-0.6-1.05-0.97-1.76-0.97c-0.76,0-1.44,0.4-1.81,1.06c-0.37,0.67-0.35,1.46,0.05,2.12
		c2.51,4.05,3.72,8.72,3.51,13.51c-0.51,11.72-10.85,22.09-22.57,22.65c-6.66,0.32-13.19-2.21-17.92-6.93
		c-4.72-4.72-7.25-11.25-6.93-17.92c0.55-11.72,10.92-22.05,22.65-22.57c4.79-0.21,9.46,1.01,13.51,3.51
		c0.66,0.41,1.45,0.43,2.12,0.05c0.67-0.37,1.06-1.05,1.06-1.81c0-0.71-0.37-1.39-0.97-1.76c-4.63-2.87-9.96-4.31-15.42-4.16
		c-7.22,0.19-14.01,3.16-19.11,8.35s-7.95,12.03-8.02,19.26c-0.07,7.54,2.83,14.63,8.18,19.98c5.27,5.27,12.27,8.18,19.71,8.18
		C68.9,381.7,68.99,381.7,69.08,381.7"/>
	<path class="st1" d="M68.8,337.01c-0.96,0-1.66,0.49-2.07,1.47l-10.54,25.17c-0.34,0.75-0.29,1.48,0.13,2.15
		c0.42,0.68,1.04,1.02,1.83,1.02c0.4,0,0.79-0.11,1.16-0.34c0.38-0.23,0.68-0.57,0.88-1.02l3.16-7.72h10.97l3.11,7.72
		c0.17,0.43,0.45,0.76,0.83,1c0.38,0.24,0.78,0.36,1.2,0.36c0.81,0,1.44-0.32,1.85-0.96c0.41-0.63,0.46-1.35,0.16-2.13l-10.58-25.25
		C70.52,337.51,69.82,337.01,68.8,337.01 M64.78,354.23l4.09-10l4.03,10H64.78z"/>
	<path class="st1" d="M122.85,355.74c0.31-0.48,0.35-1.01,0.12-1.6l-7.37-17.59c-0.27-0.72-0.81-1.11-1.56-1.11
		c-0.71,0-1.25,0.38-1.56,1.1l-7.34,17.53c-0.25,0.57-0.22,1.11,0.1,1.62c0.31,0.5,0.79,0.77,1.38,0.77c0.3,0,0.59-0.08,0.87-0.25
		c0.29-0.17,0.51-0.43,0.66-0.77l2.17-5.3h7.48l2.13,5.3c0.13,0.32,0.34,0.58,0.63,0.76c0.28,0.18,0.59,0.27,0.91,0.27
		C122.06,356.47,122.54,356.22,122.85,355.74 M111.42,347.45l2.66-6.51l2.62,6.51H111.42z"/>
	<path class="st1" d="M128.96,344.88c0.69-0.32,1.53-0.47,2.49-0.44c0.25,0.01,0.49-0.02,0.69-0.11c0.21-0.09,0.39-0.24,0.53-0.44
		s0.21-0.46,0.21-0.76c0.01-0.42-0.14-1-0.92-1.37c-0.58-0.28-1.34-0.32-2.33-0.12c-0.79,0.16-1.5,0.48-2.12,0.95
		c-0.05-0.34-0.18-0.61-0.39-0.81c-0.28-0.27-0.68-0.41-1.19-0.41c-0.5,0-0.9,0.14-1.18,0.43c-0.28,0.29-0.43,0.68-0.43,1.18v11.9
		c0,0.52,0.15,0.92,0.43,1.2c0.28,0.27,0.68,0.41,1.18,0.41c0.52,0,0.92-0.15,1.2-0.43c0.27-0.28,0.41-0.68,0.41-1.18v-8.8
		C127.85,345.57,128.33,345.17,128.96,344.88"/>
	<path class="st1" d="M142.17,353.25h-0.89c-0.47,0-0.85-0.19-1.18-0.59c-0.34-0.42-0.51-0.93-0.51-1.56v-6.54h2.04
		c0.44,0,0.81-0.13,1.09-0.39c0.29-0.27,0.44-0.61,0.44-1.01c0-0.43-0.15-0.79-0.44-1.06c-0.28-0.26-0.65-0.39-1.09-0.39h-2.04
		v-3.08c0-0.46-0.15-0.85-0.45-1.15s-0.69-0.45-1.15-0.45c-0.46,0-0.85,0.15-1.16,0.45c-0.3,0.3-0.45,0.69-0.45,1.15v3.08h-0.78
		c-0.44,0-0.81,0.13-1.09,0.39c-0.29,0.27-0.44,0.62-0.44,1.06c0,0.4,0.15,0.74,0.44,1.01c0.28,0.26,0.65,0.39,1.09,0.39h0.78v6.54
		c0,1,0.21,1.92,0.64,2.73c0.42,0.81,1.01,1.46,1.75,1.93s1.59,0.71,2.51,0.71h0.47c0.53,0,0.97-0.15,1.31-0.44
		c0.36-0.3,0.54-0.7,0.54-1.17c0-0.46-0.14-0.84-0.4-1.14C142.92,353.41,142.57,353.25,142.17,353.25"/>
	<path class="st1" d="M186.53,352.77c0.6-1.13,0.91-2.42,0.91-3.84c0-1.42-0.33-2.72-0.99-3.86c-0.66-1.14-1.56-2.05-2.68-2.71
		s-2.41-1-3.84-1c-1.41,0-2.69,0.34-3.81,1s-2.02,1.57-2.67,2.71c-0.65,1.14-0.99,2.44-1.01,3.86v11.92c0,0.46,0.16,0.86,0.47,1.17
		c0.31,0.31,0.7,0.47,1.17,0.47c0.48,0,0.88-0.16,1.18-0.47c0.3-0.31,0.45-0.7,0.45-1.16v-6.29c0.52,0.5,1.11,0.92,1.77,1.24
		c0.9,0.45,1.9,0.67,2.97,0.67c1.32,0,2.53-0.34,3.59-1C185.08,354.81,185.92,353.9,186.53,352.77 M183.7,351.28
		c-0.38,0.69-0.9,1.24-1.55,1.64c-0.64,0.4-1.39,0.6-2.22,0.6c-0.81,0-1.55-0.2-2.21-0.6s-1.18-0.95-1.55-1.64
		c-0.37-0.69-0.56-1.48-0.56-2.35c0-0.89,0.19-1.69,0.56-2.38s0.89-1.24,1.55-1.64c0.65-0.4,1.4-0.6,2.21-0.6
		c0.83,0,1.57,0.2,2.22,0.6s1.17,0.95,1.55,1.64s0.58,1.49,0.58,2.38C184.28,349.79,184.08,350.58,183.7,351.28"/>
	<path class="st1" d="M201.56,353.75c-0.02-0.4-0.21-0.76-0.58-1.08c-0.28-0.24-0.62-0.36-1-0.35c-0.37,0.01-0.71,0.13-1.02,0.36
		c-0.32,0.24-0.76,0.46-1.29,0.65s-1.06,0.28-1.56,0.28c-0.94,0-1.77-0.21-2.49-0.61c-0.72-0.41-1.29-0.97-1.69-1.67
		c-0.21-0.36-0.37-0.76-0.47-1.19h9.57c0.43,0,0.79-0.14,1.07-0.41c0.29-0.28,0.43-0.63,0.43-1.04c0-1.42-0.27-2.69-0.8-3.78
		c-0.54-1.1-1.33-1.98-2.35-2.61c-1.02-0.63-2.25-0.95-3.66-0.95c-1.42,0-2.71,0.33-3.81,0.97c-1.11,0.64-1.98,1.54-2.61,2.68
		c-0.62,1.13-0.94,2.45-0.94,3.92c0,1.46,0.33,2.77,0.99,3.9s1.59,2.03,2.76,2.67c1.16,0.64,2.51,0.97,4,0.97
		c0.83,0,1.71-0.16,2.62-0.46c0.91-0.31,1.68-0.71,2.3-1.2C201.5,354.46,201.58,354.04,201.56,353.75 M191.83,346.49
		c0.34-0.7,0.84-1.26,1.49-1.66c0.65-0.4,1.46-0.61,2.39-0.61c0.81,0,1.5,0.19,2.06,0.55c0.56,0.37,1,0.88,1.31,1.51
		c0.17,0.36,0.3,0.75,0.38,1.17h-7.97C191.58,347.1,191.69,346.78,191.83,346.49"/>
	<path class="st1" d="M212.95,346.09c0.34,0.58,0.51,1.35,0.51,2.29v6.45c0,0.47,0.16,0.86,0.47,1.17c0.31,0.31,0.7,0.47,1.17,0.47
		c0.46,0,0.86-0.16,1.17-0.47s0.47-0.71,0.47-1.17v-6.45c0-1.5-0.29-2.78-0.86-3.82s-1.37-1.85-2.37-2.39
		c-0.99-0.54-2.13-0.81-3.37-0.81c-1.2,0-2.29,0.27-3.26,0.8c-0.11,0.06-0.22,0.12-0.33,0.19c-0.07-0.15-0.17-0.28-0.29-0.4
		c-0.3-0.3-0.7-0.46-1.18-0.46c-0.46,0-0.86,0.15-1.17,0.45c-0.31,0.3-0.47,0.7-0.47,1.19v11.7c0,0.47,0.16,0.86,0.47,1.17
		c0.31,0.31,0.7,0.47,1.17,0.47c0.48,0,0.88-0.16,1.18-0.47c0.3-0.31,0.45-0.7,0.45-1.17v-9.26c0.29-0.32,0.64-0.58,1.04-0.78
		c0.55-0.27,1.17-0.41,1.85-0.41c0.75,0,1.42,0.14,2,0.43C212.16,345.08,212.62,345.52,212.95,346.09"/>
	<path class="st1" d="M168.65,338.11L168.65,338.11c-0.96-0.97-2.12-1.74-3.43-2.27s-2.78-0.8-4.37-0.8c-1.58,0-3.06,0.27-4.38,0.8
		c-1.32,0.54-2.48,1.3-3.43,2.27s-1.7,2.13-2.23,3.46c-0.52,1.32-0.79,2.79-0.79,4.38c0,1.58,0.27,3.06,0.79,4.39
		c0.53,1.33,1.28,2.5,2.23,3.47s2.11,1.74,3.43,2.27c1.32,0.53,2.79,0.8,4.38,0.8c1.58,0,3.05-0.27,4.37-0.8
		c1.31-0.53,2.47-1.3,3.43-2.27c0.96-0.97,1.72-2.14,2.24-3.47s0.79-2.8,0.79-4.39c0-1.58-0.27-3.06-0.79-4.38
		C170.36,340.25,169.61,339.08,168.65,338.11 M167.63,348.95c-0.35,0.91-0.86,1.72-1.51,2.4s-1.43,1.21-2.32,1.6
		c-0.89,0.38-1.88,0.58-2.94,0.58c-1.07,0-2.06-0.19-2.94-0.58c-0.89-0.38-1.67-0.92-2.31-1.6s-1.15-1.48-1.51-2.4
		s-0.54-1.93-0.54-3s0.18-2.08,0.54-3s0.87-1.72,1.51-2.4c0.64-0.67,1.42-1.21,2.3-1.58c0.89-0.37,1.88-0.57,2.95-0.57
		c1.07,0,2.06,0.19,2.95,0.57c0.89,0.37,1.67,0.91,2.32,1.58c0.65,0.68,1.16,1.48,1.51,2.4c0.35,0.92,0.53,1.93,0.53,3
		C168.16,347.02,167.98,348.03,167.63,348.95"/>
	<path class="st1" d="M119.63,369.79c-0.32-0.28-0.81-0.47-1.48-0.56c-0.37-0.05-0.67-0.12-0.89-0.22s-0.38-0.22-0.47-0.36
		c-0.1-0.14-0.14-0.29-0.14-0.46c0-0.31,0.13-0.55,0.38-0.71s0.59-0.24,1.01-0.24c0.24,0,0.44,0.04,0.61,0.09
		c0.17,0.06,0.31,0.14,0.43,0.24c0.12,0.1,0.22,0.21,0.3,0.32c0.04,0.07,0.1,0.12,0.19,0.14c0.08,0.02,0.16,0.02,0.24-0.02
		c0.07-0.04,0.12-0.1,0.14-0.17s0-0.15-0.05-0.23c-0.11-0.17-0.26-0.32-0.43-0.46c-0.18-0.14-0.39-0.25-0.62-0.34
		c-0.24-0.08-0.5-0.13-0.8-0.13c-0.39,0-0.74,0.06-1.04,0.18s-0.54,0.29-0.71,0.51s-0.26,0.48-0.26,0.77c0,0.41,0.18,0.76,0.53,1.05
		c0.35,0.29,0.84,0.46,1.46,0.53c0.51,0.06,0.88,0.19,1.12,0.41c0.24,0.21,0.36,0.47,0.36,0.77c0,0.23-0.06,0.43-0.19,0.6
		c-0.12,0.16-0.3,0.29-0.51,0.37c-0.22,0.08-0.47,0.13-0.75,0.13c-0.25,0-0.49-0.03-0.7-0.09s-0.4-0.15-0.55-0.26
		c-0.15-0.11-0.27-0.24-0.35-0.38c-0.04-0.07-0.09-0.12-0.16-0.15c-0.07-0.03-0.14-0.04-0.22-0.02c-0.1,0.02-0.16,0.07-0.2,0.14
		c-0.04,0.07-0.04,0.14,0,0.22c0.11,0.22,0.27,0.41,0.49,0.58c0.21,0.17,0.46,0.29,0.75,0.38s0.6,0.14,0.94,0.14
		c0.29,0,0.56-0.04,0.81-0.11c0.25-0.07,0.47-0.18,0.66-0.32s0.34-0.31,0.44-0.52c0.1-0.21,0.16-0.44,0.16-0.7
		C120.12,370.45,119.96,370.07,119.63,369.79"/>
	<path class="st1" d="M126.38,366.77h-1.9h-0.62h-1.89c-0.08,0-0.15,0.02-0.21,0.07c-0.05,0.05-0.08,0.11-0.08,0.19
		c0,0.07,0.03,0.13,0.08,0.18s0.12,0.07,0.21,0.07h1.89v4.9c0,0.08,0.03,0.14,0.09,0.2s0.13,0.08,0.22,0.08
		c0.09,0,0.16-0.03,0.22-0.08c0.06-0.06,0.09-0.12,0.09-0.2v-4.9h1.9c0.08,0,0.15-0.02,0.21-0.07c0.05-0.05,0.08-0.11,0.08-0.18
		c0-0.08-0.03-0.14-0.08-0.19C126.54,366.79,126.47,366.77,126.38,366.77"/>
	<path class="st1" d="M133.48,366.77c-0.09,0-0.16,0.03-0.22,0.08s-0.09,0.12-0.09,0.2v3.54c0,0.29-0.08,0.54-0.24,0.76
		s-0.37,0.39-0.65,0.52c-0.28,0.12-0.59,0.19-0.95,0.19s-0.68-0.06-0.96-0.19c-0.28-0.13-0.5-0.3-0.66-0.52s-0.23-0.47-0.23-0.76
		v-3.54c0-0.08-0.03-0.15-0.09-0.2c-0.06-0.05-0.13-0.08-0.22-0.08s-0.16,0.03-0.22,0.08s-0.09,0.12-0.09,0.2v3.54
		c0,0.39,0.1,0.74,0.31,1.04c0.21,0.3,0.5,0.54,0.88,0.71c0.37,0.17,0.8,0.26,1.29,0.26c0.48,0,0.9-0.08,1.27-0.26
		c0.37-0.17,0.66-0.41,0.87-0.71c0.21-0.3,0.31-0.65,0.31-1.04v-3.54c0-0.08-0.03-0.15-0.08-0.2
		C133.65,366.79,133.58,366.77,133.48,366.77"/>
	<path class="st1" d="M140.64,367.57c-0.28-0.26-0.6-0.45-0.98-0.59c-0.38-0.14-0.8-0.21-1.25-0.21h-1.43
		c-0.09,0-0.16,0.03-0.22,0.08s-0.09,0.12-0.09,0.2v5.14c0,0.08,0.03,0.15,0.09,0.2c0.06,0.05,0.13,0.08,0.22,0.08h1.43
		c0.46,0,0.87-0.07,1.25-0.21c0.38-0.14,0.71-0.34,0.98-0.59c0.28-0.26,0.49-0.56,0.64-0.91s0.23-0.73,0.23-1.15
		c0-0.42-0.08-0.8-0.23-1.15C141.13,368.12,140.92,367.82,140.64,367.57 M140.58,370.83c-0.21,0.35-0.51,0.63-0.88,0.83
		s-0.81,0.3-1.29,0.3h-1.12v-4.68h1.12c0.49,0,0.92,0.1,1.29,0.3c0.37,0.2,0.67,0.48,0.88,0.83c0.21,0.35,0.32,0.76,0.32,1.21
		C140.9,370.07,140.79,370.47,140.58,370.83"/>
	<path class="st1" d="M144.38,366.77c-0.09,0-0.16,0.03-0.22,0.08s-0.09,0.12-0.09,0.2v5.14c0,0.08,0.03,0.15,0.09,0.2
		c0.06,0.05,0.13,0.08,0.22,0.08s0.16-0.03,0.22-0.08s0.09-0.12,0.09-0.2v-5.14c0-0.08-0.03-0.15-0.09-0.2
		C144.54,366.79,144.47,366.77,144.38,366.77"/>
	<path class="st1" d="M152.71,367.53c-0.29-0.26-0.62-0.47-1.01-0.61c-0.39-0.15-0.81-0.22-1.27-0.22s-0.89,0.07-1.27,0.22
		c-0.39,0.15-0.72,0.35-1.01,0.61c-0.28,0.26-0.51,0.57-0.66,0.93c-0.16,0.36-0.23,0.74-0.23,1.16s0.08,0.81,0.23,1.17
		c0.16,0.36,0.38,0.66,0.66,0.93c0.28,0.26,0.62,0.47,1.01,0.61c0.39,0.15,0.81,0.22,1.27,0.22s0.88-0.07,1.27-0.22
		s0.72-0.35,1.01-0.61c0.29-0.26,0.51-0.57,0.67-0.93s0.23-0.75,0.23-1.17s-0.08-0.81-0.23-1.16
		C153.22,368.1,153,367.79,152.71,367.53 M152.81,370.56c-0.13,0.29-0.31,0.54-0.54,0.76s-0.5,0.38-0.82,0.5
		c-0.31,0.12-0.65,0.18-1.02,0.18c-0.37,0-0.71-0.06-1.03-0.18c-0.31-0.12-0.59-0.29-0.82-0.5c-0.23-0.22-0.41-0.47-0.54-0.76
		c-0.13-0.29-0.19-0.6-0.19-0.95c0-0.34,0.06-0.65,0.19-0.94s0.31-0.54,0.54-0.76s0.5-0.38,0.82-0.5c0.31-0.12,0.66-0.18,1.03-0.18
		s0.71,0.06,1.02,0.18s0.59,0.29,0.82,0.5c0.23,0.22,0.41,0.47,0.54,0.76c0.13,0.29,0.19,0.6,0.19,0.94
		C153,369.96,152.93,370.27,152.81,370.56"/>
	<path class="st1" d="M162.35,370.12c0.09-0.03,0.17-0.06,0.26-0.1c0.3-0.15,0.54-0.35,0.71-0.61c0.17-0.26,0.26-0.55,0.26-0.88
		c0-0.35-0.09-0.65-0.26-0.92c-0.17-0.26-0.41-0.47-0.71-0.62s-0.65-0.22-1.04-0.22h-1.49c-0.09,0-0.17,0.03-0.22,0.08
		c-0.06,0.05-0.09,0.12-0.09,0.2v5.14c0,0.08,0.03,0.15,0.09,0.2c0.06,0.05,0.13,0.08,0.22,0.08s0.16-0.03,0.22-0.08
		s0.09-0.12,0.09-0.2v-1.95h1.18c0.05,0,0.09,0,0.14-0.01l1.43,2.1c0.03,0.05,0.07,0.08,0.11,0.11c0.04,0.02,0.09,0.04,0.16,0.04
		c0.14,0,0.24-0.04,0.29-0.13c0.05-0.09,0.04-0.19-0.04-0.31L162.35,370.12z M161.57,369.69h-1.18v-2.38h1.18
		c0.27,0,0.51,0.05,0.72,0.15s0.38,0.24,0.5,0.43c0.12,0.18,0.18,0.39,0.18,0.63c0,0.22-0.06,0.42-0.18,0.6s-0.29,0.31-0.5,0.41
		C162.09,369.64,161.85,369.69,161.57,369.69"/>
	<path class="st1" d="M170.02,367.32c0.08,0,0.16-0.03,0.22-0.08s0.09-0.12,0.09-0.19c0-0.08-0.03-0.15-0.09-0.2
		c-0.06-0.05-0.13-0.08-0.22-0.08h-3.74c-0.09,0-0.16,0.03-0.22,0.08s-0.09,0.12-0.09,0.2v5.14c0,0.08,0.03,0.15,0.09,0.2
		c0.06,0.05,0.13,0.08,0.22,0.08h3.74c0.08,0,0.16-0.03,0.22-0.08s0.09-0.12,0.09-0.2c0-0.07-0.03-0.14-0.09-0.19
		s-0.13-0.08-0.22-0.08h-3.43v-2.04h2.49c0.09,0,0.16-0.03,0.22-0.08s0.09-0.12,0.09-0.2c0-0.08-0.03-0.14-0.09-0.2
		c-0.06-0.05-0.13-0.08-0.22-0.08h-2.49v-2.02h3.43V367.32z"/>
	<path class="st1" d="M176.82,367.04c0-0.08-0.02-0.14-0.07-0.19s-0.12-0.08-0.22-0.08c-0.05,0-0.09,0.01-0.13,0.02
		c-0.04,0.01-0.08,0.04-0.12,0.08l-2.91,2.67v-2.48c0-0.08-0.03-0.15-0.09-0.2c-0.06-0.06-0.13-0.08-0.22-0.08
		c-0.08,0-0.16,0.03-0.22,0.08c-0.06,0.06-0.09,0.12-0.09,0.2v5.14c0,0.08,0.03,0.15,0.09,0.2c0.06,0.06,0.13,0.08,0.22,0.08
		c0.08,0,0.16-0.03,0.22-0.08c0.06-0.06,0.09-0.12,0.09-0.2v-1.87l0.71-0.66l2.17,2.69c0.06,0.08,0.15,0.12,0.26,0.12
		c0.07,0,0.14-0.02,0.19-0.07c0.05-0.05,0.08-0.11,0.09-0.18s-0.01-0.14-0.06-0.2l-2.21-2.76l2.18-2
		C176.78,367.19,176.81,367.12,176.82,367.04"/>
	<path class="st1" d="M182.99,371.93h-3.11v-4.88c0-0.08-0.03-0.15-0.09-0.2c-0.06-0.06-0.13-0.08-0.22-0.08
		c-0.08,0-0.16,0.03-0.22,0.08c-0.06,0.06-0.09,0.12-0.09,0.2v5.14c0,0.08,0.03,0.15,0.09,0.2c0.06,0.05,0.13,0.08,0.22,0.08H183
		c0.08,0,0.16-0.02,0.22-0.08c0.06-0.05,0.09-0.12,0.09-0.19c0-0.08-0.03-0.14-0.09-0.19C183.14,371.96,183.07,371.93,182.99,371.93
		"/>
	<path class="st1" d="M187.88,366.97c-0.06-0.13-0.16-0.2-0.3-0.2s-0.24,0.07-0.3,0.2l-2.34,5.1c-0.04,0.09-0.04,0.18,0.02,0.27
		c0.05,0.09,0.14,0.14,0.26,0.14c0.06,0,0.12-0.01,0.17-0.04s0.09-0.07,0.12-0.13l0.54-1.18h3.08l0.53,1.18
		c0.03,0.06,0.07,0.1,0.12,0.13c0.05,0.03,0.11,0.04,0.17,0.04c0.11,0,0.2-0.04,0.26-0.13s0.07-0.18,0.02-0.27L187.88,366.97z
		 M186.27,370.63l1.33-2.93l1.31,2.93H186.27z"/>
	<path class="st1" d="M198.36,366.77c-0.12,0-0.21,0.05-0.28,0.15l-2.5,4.65l-2.55-4.65c-0.06-0.1-0.15-0.15-0.28-0.15
		c-0.08,0-0.16,0.03-0.22,0.08s-0.09,0.12-0.09,0.2v5.14c0,0.08,0.03,0.14,0.09,0.2s0.13,0.08,0.22,0.08s0.16-0.03,0.22-0.08
		c0.06-0.06,0.09-0.12,0.09-0.2v-4.07l2.21,4.05c0.06,0.12,0.15,0.18,0.29,0.18c0.12,0,0.21-0.05,0.27-0.14l2.21-4.15v4.14
		c0,0.08,0.03,0.14,0.09,0.2s0.14,0.08,0.23,0.08c0.08,0,0.16-0.03,0.21-0.08c0.06-0.06,0.09-0.12,0.09-0.2v-5.14
		c0-0.08-0.03-0.15-0.09-0.2C198.52,366.79,198.44,366.77,198.36,366.77"/>
	<path class="st1" d="M205.58,366.77c-0.06,0-0.12,0.01-0.16,0.04c-0.05,0.02-0.09,0.06-0.12,0.12l-1.98,2.92l-1.98-2.93
		c-0.03-0.04-0.07-0.08-0.11-0.1c-0.04-0.02-0.09-0.04-0.16-0.04c-0.08,0-0.15,0.02-0.2,0.07c-0.05,0.04-0.09,0.1-0.1,0.17
		c-0.01,0.07,0.01,0.14,0.06,0.21l2.17,3.15v1.83c0,0.08,0.03,0.14,0.09,0.2s0.13,0.08,0.22,0.08c0.08,0,0.16-0.03,0.22-0.08
		c0.06-0.06,0.09-0.12,0.09-0.2v-1.83l2.17-3.15c0.05-0.07,0.07-0.14,0.06-0.2c-0.01-0.07-0.04-0.13-0.09-0.17
		C205.72,366.79,205.66,366.77,205.58,366.77"/>
	<path class="st1" d="M216.56,369.42h-6.3c-0.09,0-0.17,0.1-0.17,0.22s0.08,0.22,0.17,0.22h6.3c0.09,0,0.17-0.1,0.17-0.22
		C216.73,369.52,216.65,369.42,216.56,369.42"/>
	<path class="st1" d="M111.44,369.42h-6.3c-0.09,0-0.17,0.1-0.17,0.22s0.08,0.22,0.17,0.22h6.3c0.09,0,0.17-0.1,0.17-0.22
		C111.61,369.52,111.53,369.42,111.44,369.42"/>
</g>
<text transform="matrix(1 0 0 1 39.4199 122.7133)" class="st1 st2 st4">Wizyta w schronisku</text>
<text transform="matrix(1 0 0 1 39.4199 167.1133)" class="st1 st5 st6">ZWIERZAKI W POTRZEBIE</text>
<g>
	<path class="st1" d="M715.91,267.61c-4.89-4.36-7.7-10.57-7.65-17.13c0-0.15,0-0.31,0-0.46c0-37.57-30.45-68.02-68.02-68.02
		s-68.02,30.45-68.02,68.02c0,0.15,0,0.31,0,0.46c0.04,6.55-2.76,12.77-7.65,17.13c-23.38,20.84-38.1,51.17-38.1,84.95
		c0,27.62,9.84,52.94,26.21,72.64H727.8c16.37-19.71,26.21-45.03,26.21-72.64C754.01,318.78,739.29,288.45,715.91,267.61z"/>
	<path class="st1" d="M555.76,255.37c-1.93,6.29-5.27,13-11.52,15.06c-7.09,2.34-14.93-2.79-18.13-9.54s-2.89-14.57-2.25-22.01
		c0.53-6.18,1.27-12.47,3.92-18.08c5.44-11.52,21.04-16.59,29.36-4.65C563.77,225.69,558.81,245.44,555.76,255.37z"/>
	<path class="st1" d="M556.72,201.97c3.25,1.48,7.1,2.3,10.37,0.86c3.29-1.45,5.33-4.97,5.8-8.54c1.45-11.23-11.16-19.71-21.37-15.4
		C539.82,183.84,548.77,198.35,556.72,201.97z"/>
	<path class="st1" d="M718.78,217.01c1.61,5.21,1.01,10.82,0.37,16.24c-0.64,5.42-1.28,11.01,0.25,16.25s5.84,10.07,11.28,10.43
		c4.29,0.29,8.4-2.27,10.97-5.72c2.57-3.45,3.84-7.68,4.78-11.88c2.53-11.31,2.95-23.45-1.29-34.24c-3.72-9.47-14.31-22.54-26-20.1
		C703.36,191.26,716.29,208.93,718.78,217.01z"/>
	<path class="st7" d="M700.25,252.19c-3.4,9.05-2.85,19.5,1.48,28.14c0.89-0.83,1.8-1.71,2.73-2.62
		C701.33,272.28,699.5,264.29,700.25,252.19z"/>
	<g>
		<path class="st8" d="M707.57,271.3c1.22-1.37,1.84-3.29,1.59-5.11c-1.04,0.18-2.13,0.53-2.88,1.27c0.55-1.2,0.78-2.55,0.65-3.86
			c-0.92,0.42-1.62,1.21-1.89,2.19c-0.93-3.04-2.66-5.82-4.95-8.02c0.04,9.04,1.75,15.4,4.37,19.95c2.07-2.03,4.19-4.19,6.25-6.2
			C709.69,271.26,708.61,271.2,707.57,271.3z"/>
		<path class="st9" d="M700.25,252.19c-0.12,1.97-0.17,3.81-0.16,5.57c2.3,2.2,4.03,4.98,4.95,8.02c0.26-0.97,0.97-1.77,1.89-2.19
			c0.12,1.31-0.1,2.66-0.65,3.86c0.75-0.74,1.84-1.08,2.88-1.27c0.25,1.82-0.36,3.74-1.59,5.11c1.04-0.1,2.11-0.03,3.14,0.22
			c0.83-0.81,1.64-1.59,2.44-2.33C709.82,262.9,705.17,257.32,700.25,252.19z"/>
	</g>
	<g>
		<path class="st8" d="M732.5,267.38c-0.47-0.7-1.22-1.22-2.05-1.38c0.76-0.03,1.54-0.29,2.12-0.79c-0.49-0.4-1.16-0.66-1.79-0.59
			c0.55-2.68,0.57-5.47,0.05-8.17c-2.62,3.82-4.71,8.28-5.93,13.09c1.86,0.66,3.68,1.52,5.3,2.51c-0.23-1.1-0.58-2.17-1.02-3.11
			C730.43,268.84,731.63,268.27,732.5,267.38z"/>
		<path class="st9" d="M733.4,253.11c-0.9,1.04-1.75,2.16-2.56,3.33c0.51,2.69,0.5,5.48-0.05,8.17c0.63-0.07,1.3,0.19,1.79,0.59
			c-0.58,0.5-1.36,0.76-2.12,0.79c0.83,0.16,1.58,0.68,2.05,1.38c-0.87,0.9-2.07,1.46-3.32,1.55c0.43,0.94,0.79,2.01,1.02,3.11
			c0.77,0.47,1.5,0.97,2.16,1.49C734.14,266.96,734.29,259.86,733.4,253.11z"/>
	</g>
	<path class="st7" d="M718.82,268.24c1.93,0.1,4.03,0.57,6.09,1.29c1.59-6.29,4.67-11.98,8.49-16.42
		C727.14,256.49,721.97,261.85,718.82,268.24z"/>
	<path class="st7" d="M731.05,324.85l-2.1-14.93h16.07c3.17,0,6.04-1.86,7.34-4.76l2.64-5.9c1.02-2.27,0.14-4.95-2.03-6.17
		l-9.67-5.44c-1.99-1.12-3.6-2.8-4.63-4.84l-5.25-10.35c-1.93-3.8-5.83-6.2-10.1-6.2h-6.08c-4.02,0-7.89,1.51-10.84,4.24l-2.94,2.71
		c-2.79,2.57-4.56,6.06-5.02,9.82l-1.68,13.99c-1.25,10.4-6.61,19.88-14.87,26.31l-1.93,1.5h51.09L731.05,324.85L731.05,324.85z"/>
	<path class="st10" d="M718.07,312.33h-4.96c-4.11,0-7.88,2.26-9.83,5.87c-0.8,1.49-1.93,2.78-3.31,3.77l-4,2.88h33.66l-0.57-3.27
		C728.13,316.23,723.5,312.33,718.07,312.33z"/>
	<path class="st11" d="M712.05,299.21c0.47,5.48,3.18,10.73,7.37,14.29c3.02,2.56,6.78,4.22,10.7,4.79l-1.18-8.36h9.48l-0.69-2.15
		L712.05,299.21z"/>
	<path class="st12" d="M752.96,293.1l-9.67-5.44c-1.99-1.12-3.6-2.8-4.63-4.84l-5.25-10.35c-1.93-3.8-5.83-6.2-10.1-6.2h-6.08
		c-0.48,0-0.95,0.02-1.43,0.07c1.36,0.13,2.69,0.47,3.96,1.01l0.41,0.17c3.05,1.3,5.52,3.67,6.94,6.67l3.5,7.4
		c0.61,1.3,0.71,2.79,0.26,4.15l-0.53,1.62c-0.69,2.11-2.57,3.62-4.79,3.84l-6.65,0.65c-3.42,0.34-6.24,2.84-6.98,6.2
		c-0.72,3.31,0.73,6.71,3.62,8.47l0.88,0.54c3.08,1.88,6.62,2.87,10.23,2.87h2.29h16.07c3.17,0,6.04-1.86,7.34-4.76l2.64-5.9
		C756.01,296.99,755.13,294.32,752.96,293.1z"/>
	<circle class="st8" cx="721.54" cy="281.41" r="1.79"/>
	<path class="st8" d="M716.56,273.6c-0.4,0.28-0.78,0.63-0.96,1.09s-0.09,1.05,0.3,1.34c0.36,0.28,0.87,0.24,1.32,0.19
		c1.38-0.16,2.76-0.31,4.14-0.47c1.63-0.18,1.45-1.73,0.52-2.71c-0.73-0.77-1.94-0.62-2.89-0.45
		C718.12,272.75,717.29,273.09,716.56,273.6z"/>
	<path class="st13" d="M746.94,299.76c0,0.22-0.02,0.44-0.07,0.64c0.05,0,0.09,0.01,0.14,0.01
		C746.96,300.21,746.94,299.99,746.94,299.76z"/>
	<path class="st7" d="M747.01,300.42c-0.04-0.01-0.09-0.01-0.14-0.01c-0.3,1.43-1.57,2.51-3.09,2.51h-0.77
		c1.21,2.12,1.73,4.64,1.43,7.07c-0.2,1.57-0.72,3.09-0.84,4.67c-0.13,1.58,0.24,3.32,1.47,4.32c1.14,0.92,2.84,0.97,4.16,0.32
		c1.32-0.65,2.26-1.91,2.77-3.29s0.61-2.87,0.58-4.34c-0.07-3.02-0.74-6.03-1.93-8.8c-0.18,0.03-0.36,0.05-0.54,0.05
		C748.58,302.92,747.31,301.85,747.01,300.42z"/>
	<path class="st8" d="M750.09,303.44c-1.34,0-2.51-0.72-3.15-1.79c-0.64,1.07-1.82,1.79-3.15,1.79h-1.89
		c-1.94,0-3.85-0.34-5.68-1.02l-5.03-1.87c-0.27-0.1-0.41-0.4-0.31-0.68c0.1-0.27,0.4-0.41,0.68-0.31l5.03,1.87
		c1.7,0.63,3.49,0.96,5.31,0.96h1.89c1.45,0,2.63-1.18,2.63-2.63v-2.56h1.05v2.56c0,1.45,1.18,2.63,2.63,2.63
		c1.03,0,1.94-0.62,2.31-1.58l0.61-1.56c0.11-0.27,0.41-0.4,0.68-0.3c0.27,0.11,0.4,0.41,0.3,0.68l-0.61,1.56
		C752.85,302.56,751.56,303.44,750.09,303.44z"/>
	<path class="st8" d="M750.99,294.03c-3.06-0.46-6.18-0.48-9.25-0.06c-1.08,0.15-1.53,1.47-0.75,2.23c0.85,0.84,1.8,1.61,2.79,2.3
		c2.26,1.57,5.38,1.13,7.12-1c0.36-0.44,0.7-0.91,1.02-1.37C752.47,295.31,751.96,294.18,750.99,294.03z"/>
	<path class="st7" d="M710.7,323.82c1.07-1.38,2.73-2.22,4.44-2.62c1.16-0.28,2.37-0.36,3.56-0.27c-2.28-1.94-5.21-3.17-8.18-2.93
		c-3.53,0.28-7.15,3.34-7.6,6.85h5.73c0.1,0.99,0.4,1.89,0.86,2.69C709.48,326.22,709.88,324.87,710.7,323.82z"/>
	<path class="st12" d="M719.93,322.11c-0.38-0.42-0.8-0.81-1.24-1.18c-1.19-0.09-2.4,0-3.56,0.27c-1.7,0.4-3.36,1.24-4.44,2.62
		c-0.82,1.05-1.22,2.39-1.2,3.72c0.57,0.99,1.37,1.84,2.39,2.54c1.84,1.26,4.24,1.66,6.38,1.07c1.58-0.44,3.07-1.49,3.62-3.03
		C722.62,326.03,721.43,323.74,719.93,322.11z"/>
	<path class="st12" d="M730.65,321.02c-0.87,0.04-1.76,0.21-2.56,0.55c-0.06,0.22-0.11,0.44-0.16,0.65
		c-0.21,0.95-0.24,1.93-0.06,2.89c0.35,1.87,1.59,3.61,3.34,4.36s3.99,0.37,5.25-1.06c0.61-0.69,0.98-1.57,1.15-2.48
		c0.16-0.83,0.16-1.69,0.01-2.51C735.7,321.8,733.16,320.91,730.65,321.02z"/>
	<path class="st7" d="M733.67,318.92c-1.35-0.37-2.87-0.09-4.13,0.5c-0.83,0.39-1.22,1.28-1.46,2.15c0.8-0.35,1.69-0.51,2.56-0.55
		c2.52-0.12,5.05,0.78,6.97,2.4c-0.12-0.62-0.32-1.22-0.61-1.78C736.31,320.35,735.1,319.32,733.67,318.92z"/>
	<path class="st8" d="M724.89,291.67c2.82-1.09,5.96-2.76,9.15-3.55c3.16-0.78,6.46-0.71,9.29,0.35c-0.72-1.32-2.19-2.56-4.04-3.19
		c-1.84-0.65-4-0.73-6.02-0.23c-2,0.5-3.8,1.52-5.21,2.72C726.64,288.97,725.59,290.35,724.89,291.67z"/>
	<rect x="549" y="324.85" class="st14" width="92.73" height="100.35"/>
	<polygon class="st11" points="641.73,324.85 549,324.85 549,357.95 628.77,357.95 	"/>
	<polygon class="st14" points="549,324.85 641.73,324.85 625.97,349.55 533.24,349.55 	"/>
	<rect x="641.73" y="324.85" class="st15" width="92.73" height="100.35"/>
	<polygon class="st11" points="641.73,324.85 734.46,324.85 734.46,357.95 654.69,357.95 	"/>
	<polygon class="st15" points="734.46,324.85 641.73,324.85 657.49,349.55 750.22,349.55 	"/>
	<path class="st16" d="M700.36,418.01c1.71-5.7-1.77-12.45-8.93-17.09l-3.39-2.2c-10.21-6.61-23.5-8.31-32.7-4.26l-7.61,3.35
		l-2.37-2.88c-0.99-1.21-2.25-2.26-3.67-3.11c-3.55-6.93-12.4-13.5-12.4-13.5c-1.41,3.89-1.03,8.69-0.65,11.31l-6.56,0.17
		l-6.49,0.17c-1.76-2.55-5.28-7.21-9.73-10.86c0,0-3.03,6.79-0.85,13.59c-0.64,0.88-0.98,1.93-0.95,3.12l0.21,7.18
		c-3.13-0.11-6.05,0.05-8.21,0.37c2.29-0.03,5.18-0.01,8.23,0.14l0.01,0.22c0.04,1.27,0.55,2.55,1.4,3.73
		c-2.81,0.4-5.37,0.97-7.29,1.56c2.15-0.31,4.84-0.7,7.68-1.04c1.05,1.29,2.5,2.44,4.15,3.31c-2.6,1-4.96,2.16-6.61,3.19
		c2.02-0.78,4.63-1.83,7.34-2.83c1.08,0.5,2.24,0.88,3.41,1.09l-0.23,0.55c-1.63,3.92,1.56,9.11,7.37,12.12l0,0l66.24-0.03
		c2.38,0.39,4.74,0.63,7.04,0.57c2.66-0.08,5.29-0.61,6.88-1.96C703.28,422.63,702.12,419.82,700.36,418.01z"/>
	<path class="st17" d="M667.25,392.57l14.08-6.38c9.93-4.49,21.61-2.15,29.04,5.82l2.49,2.67c5.29,5.68,6.69,13.96,3.56,21.06
		l-4.18,9.46h-77.23l0,0c-4.74-4.13-5.62-11.15-2.06-16.33l2.06-3L667.25,392.57z"/>
	<g>
		<path class="st7" d="M702.83,392.11c1.52,0.03,3-0.69,4.04-1.78c0.26-0.28,0.5-0.58,0.72-0.9c-2.71-2.15-5.79-3.69-9.04-4.59
			c0.12,1.68-0.18,3.53,0.58,5.03C699.8,391.23,701.31,392.08,702.83,392.11z"/>
		<path class="st7" d="M711.39,403.71c0.95,3.07,3.5,5.56,6.55,6.56c0.68-5.55-1.06-11.23-4.96-15.48
			C711.13,397.32,710.47,400.72,711.39,403.71z"/>
		<path class="st7" d="M686.87,394c0.38,0.65,0.97,1.21,1.7,1.36c0.84,0.17,1.72-0.26,2.29-0.9c0.57-0.64,0.87-1.48,1.09-2.31
			c0.71-2.68,0.65-5.55-0.12-8.21c-3.08,0-6.18,0.56-9.15,1.7c1.48,1.88,2.63,4.01,3.38,6.27
			C686.29,392.62,686.49,393.35,686.87,394z"/>
		<path class="st7" d="M676.85,402.97c0.45,1.01,1.03,2.2,2.13,2.31c0.65,0.07,1.29-0.32,1.69-0.84s0.59-1.17,0.74-1.81
			c1.21-5.14-0.15-10.78-3.41-14.91l-9.68,4.38C671.99,394.95,674.96,398.71,676.85,402.97z"/>
		<path class="st7" d="M708.8,403c-0.28-1.4-1-3.52-2.86-3.26c-1.15,0.16-1.52,1.45-1.7,2.42c-0.6,3.31,0.27,6.99,2.07,9.79
			c0.35,0.54,0.75,1.07,1.29,1.41s1.26,0.46,1.83,0.17c0.55-0.28,0.86-0.9,0.94-1.51c0.08-0.61-0.04-1.23-0.16-1.83
			C709.74,407.78,709.27,405.39,708.8,403z"/>
	</g>
	<path class="st18" d="M658.64,419.49l6.52-0.69c-2-1.87-3.41-4.52-3.83-7.22c-0.62,2.21-0.52,4.52,0.55,6.55
		c-6.43-1.7-13.32-0.8-18.96,2.71c-1.99-1.74-3.83-4.15-5.05-6.49c-0.14,4.07,1.65,8.13,4.64,10.87h10.67l0.37-1.37
		C654.19,421.47,656.21,419.75,658.64,419.49z"/>
	<path class="st18" d="M682.09,419.65c1.12-1.06,2.71-1.52,4.26-1.57c1.55-0.05,3.03-0.05,4.55,0.27
		c-2.32-4.17-2.43-9.49-0.28-13.75c2.15-4.26,6.95-7.42,11.68-8.02c-5.27-0.86-10.94,1.32-14.27,5.51s-3.98,9.75-1.95,14.69
		c-3.27-1.06-7.09,0.36-9.29,3c-1.5-3.52-4.07-6.5-7.17-8.75c1.56,2.81,3.12,5.61,4.68,8.42c0.59,1.05,1.19,2.18,1.11,3.38
		c-0.06,0.9-0.5,1.72-1.11,2.39h6.76c-0.28-0.58-0.45-1.22-0.48-1.87C680.53,421.97,681.09,420.59,682.09,419.65z"/>
	<path class="st18" d="M635.82,405.82c3.47,3.72,8.5,5.92,13.58,5.96c5.08,0.03,10.14-2.11,13.66-5.77
		C654.31,405.95,644.58,405.86,635.82,405.82z"/>
	<path class="st1" d="M632.94,384.02c0.29-8.65,6.87-17.31,6.87-17.31c4.08,6.36,5.36,15.3,5.36,15.3L632.94,384.02z"/>
	<path class="st7" d="M635.56,381.27c0.75-3.89,2.6-7.6,4.06-10.09c1.5,3.3,2.4,6.77,2.87,8.95L635.56,381.27z"/>
	<path class="st1" d="M669.41,384.02c-0.29-8.65-6.87-17.31-6.87-17.31c-4.08,6.36-5.36,15.3-5.36,15.3L669.41,384.02z"/>
	<path class="st7" d="M666.8,381.27c-0.75-3.89-2.6-7.6-4.06-10.09c-1.5,3.3-2.4,6.77-2.87,8.95L666.8,381.27z"/>
	<path class="st1" d="M666.54,408.47h-30.73c-6.26,0-10.65-6.18-8.59-12.09l3.44-9.9c1.41-4.04,5.22-6.75,9.5-6.75h11.01h11.01
		c4.28,0,8.09,2.71,9.5,6.75l3.44,9.9C677.19,402.3,672.8,408.47,666.54,408.47z"/>
	<path class="st7" d="M652.66,393.49h-6.8c-2.86,0-5.57,1.26-7.42,3.45l-1.01,1.2c-1.39,1.64-1.39,4.05,0,5.69l1.7,2.01
		c1.41,1.67,3.49,2.64,5.68,2.64h8.92c2.19,0,4.27-0.96,5.68-2.64l1.7-2.01c1.39-1.64,1.39-4.05,0-5.69l-1.01-1.2
		C658.23,394.75,655.52,393.49,652.66,393.49z"/>
	<path class="st8" d="M652.52,404.88c-0.08-0.07-1.79-1.63-3.21-2.51l-0.4-5.66c-0.02-0.32-0.3-0.56-0.61-0.53
		c-0.32,0.02-0.55,0.3-0.53,0.61l0.4,5.63c-0.51,0.36-1.03,0.75-1.53,1.13c-0.58,0.44-1.17,0.89-1.76,1.28
		c-0.26,0.18-0.33,0.53-0.15,0.79c0.11,0.16,0.29,0.25,0.47,0.25c0.11,0,0.22-0.03,0.32-0.1c0.61-0.41,1.22-0.87,1.8-1.32
		c0.48-0.36,0.97-0.73,1.46-1.07c1.31,0.83,2.95,2.32,2.96,2.33c0.11,0.1,0.25,0.15,0.39,0.15c0.15,0,0.31-0.06,0.42-0.19
		C652.77,405.46,652.75,405.09,652.52,404.88z"/>
	<path class="st8" d="M652.89,392.84c-2.68-0.41-5.43-0.35-8.09,0.17c-0.74,0.15-1.07,1.04-0.58,1.62c0.72,0.86,1.58,1.6,2.52,2.21
		c0.97,0.63,2.23,0.6,3.17-0.07c1.1-0.79,2.25-1.62,3.36-2.41C653.89,393.91,653.64,392.95,652.89,392.84z"/>
	<path class="st19" d="M618.5,403.08c3.02-0.46,6.95-1.07,10.91-1.5c3.95-0.45,7.92-0.71,10.97-0.93
		c-3.04-0.26-7.06-0.23-11.05,0.22C625.34,401.3,621.41,402.15,618.5,403.08z"/>
	<path class="st19" d="M618.85,395.75c2.94,0.02,6.76,0.12,10.55,0.55c3.8,0.41,7.55,1.13,10.42,1.75
		c-2.74-1.06-6.5-2.03-10.35-2.44C625.64,395.18,621.75,395.31,618.85,395.75z"/>
	<path class="st19" d="M621.32,410.33c2.62-1.05,6.02-2.47,9.46-3.78c3.43-1.32,6.91-2.55,9.56-3.52c-2.77,0.54-6.34,1.57-9.8,2.9
		C627.08,407.25,623.74,408.88,621.32,410.33z"/>
	<path class="st19" d="M678.08,403.08c-3.02-0.46-6.95-1.07-10.91-1.5c-3.95-0.45-7.92-0.71-10.97-0.93
		c3.04-0.26,7.06-0.23,11.05,0.22C671.24,401.3,675.17,402.15,678.08,403.08z"/>
	<path class="st19" d="M677.74,395.75c-2.94,0.02-6.76,0.12-10.55,0.55c-3.8,0.41-7.55,1.13-10.42,1.75
		c2.74-1.06,6.5-2.03,10.35-2.44C670.95,395.18,674.84,395.31,677.74,395.75z"/>
	<path class="st19" d="M675.27,410.33c-2.62-1.05-6.02-2.47-9.46-3.78c-3.43-1.32-6.91-2.55-9.56-3.52c2.77,0.54,6.34,1.57,9.8,2.9
		C669.51,407.25,672.85,408.88,675.27,410.33z"/>
	<path class="st8" d="M642.71,388.1c-0.77,0.68-1.83,1.17-2.87,1.17c-1.05-0.01-2.1-0.51-2.86-1.19c0.06,0.51,0.36,1.09,0.88,1.54
		c0.51,0.44,1.23,0.74,1.98,0.75c0.75,0,1.48-0.29,1.99-0.73C642.33,389.19,642.64,388.61,642.71,388.1z"/>
	<path class="st8" d="M655.36,388.1c0.77,0.68,1.83,1.17,2.87,1.17c1.05-0.01,2.1-0.51,2.86-1.19c-0.06,0.51-0.36,1.09-0.88,1.54
		c-0.51,0.44-1.23,0.74-1.98,0.75c-0.75,0-1.48-0.29-1.99-0.73C655.73,389.19,655.43,388.61,655.36,388.1z"/>
	<path class="st7" d="M650.04,385.77c1.16,0.16,2.12-0.87,2.75-1.86c0.83-1.3,1.48-2.71,1.96-4.18h-3.58h-4.57
		c0.29,1.39,0.74,2.74,1.35,4.02C648.4,384.67,649.04,385.63,650.04,385.77z"/>
	<path class="st8" d="M641.52,400.39c0.77,0,0.77-1.19,0-1.19S640.75,400.39,641.52,400.39L641.52,400.39z"/>
	<path class="st8" d="M642.77,403.1c0.77,0,0.77-1.19,0-1.19C642.01,401.91,642,403.1,642.77,403.1L642.77,403.1z"/>
	<path class="st8" d="M643.27,401.15c0.77,0,0.77-1.19,0-1.19S642.5,401.15,643.27,401.15L643.27,401.15z"/>
	<path class="st8" d="M645.05,401.58c0.77,0,0.77-1.19,0-1.19C644.29,400.39,644.28,401.58,645.05,401.58L645.05,401.58z"/>
	<path class="st8" d="M643.56,399.24c0.77,0,0.77-1.19,0-1.19C642.8,398.05,642.8,399.24,643.56,399.24L643.56,399.24z"/>
	<path class="st8" d="M655.67,400.39c-0.77,0-0.77-1.19,0-1.19S656.44,400.39,655.67,400.39L655.67,400.39z"/>
	<path class="st8" d="M654.42,403.1c-0.77,0-0.77-1.19,0-1.19C655.18,401.91,655.18,403.1,654.42,403.1L654.42,403.1z"/>
	<path class="st8" d="M653.92,401.15c-0.77,0-0.77-1.19,0-1.19S654.69,401.15,653.92,401.15L653.92,401.15z"/>
	<path class="st8" d="M652.14,401.58c-0.77,0-0.77-1.19,0-1.19C652.9,400.39,652.9,401.58,652.14,401.58L652.14,401.58z"/>
	<path class="st8" d="M653.62,399.24c-0.77,0-0.77-1.19,0-1.19S654.39,399.24,653.62,399.24L653.62,399.24z"/>
	<g>
		<path class="st1" d="M683.3,416.78c-0.12-1.67-0.89-3.26-2.07-4.44c-3.68-0.53-7.42-0.23-10.57,1.64c-1.96,1.16-3.7,3.29-3.2,5.51
			c0.52,2.3,3.24,3.46,5.6,3.31s4.55-1.21,6.86-1.73c0.81-0.18,1.63-0.29,2.45-0.35C683.05,419.53,683.4,418.15,683.3,416.78z"/>
		<path class="st7" d="M687.31,416.85c-0.15-1.26-0.69-2.47-1.51-3.44c-1.48-0.47-3.02-0.84-4.58-1.07
			c1.19,1.17,1.95,2.77,2.07,4.44c0.1,1.37-0.25,2.76-0.93,3.95c1.37-0.09,2.74-0.03,4.11,0.15
			C687.17,419.66,687.47,418.23,687.31,416.85z"/>
		<path class="st1" d="M690.57,415.19c-1.39-0.58-2.8-1.13-4.22-1.61c-0.18-0.06-0.36-0.11-0.54-0.17c0.81,0.97,1.36,2.18,1.51,3.44
			c0.16,1.38-0.14,2.81-0.83,4.02c1.17,0.15,2.34,0.38,3.5,0.67c0.73-0.84,1.21-1.9,1.32-3.01
			C691.43,417.37,691.15,416.19,690.57,415.19z"/>
		<path class="st7" d="M696.45,417.6c-1.98-0.75-3.92-1.61-5.88-2.42c0.59,1,0.86,2.19,0.74,3.34c-0.12,1.11-0.59,2.17-1.32,3.01
			c1.51,0.37,3.01,0.83,4.47,1.31c0.38,0.12,0.76,0.25,1.14,0.38c0.56-0.69,0.97-1.5,1.15-2.37
			C696.98,419.77,696.86,418.63,696.45,417.6z"/>
		<path class="st1" d="M716.43,415.74c-3.69,3.94-9.66,4.68-14.92,3.46c-1.73-0.4-3.41-0.96-5.06-1.6c0.41,1.02,0.53,2.17,0.3,3.24
			c-0.18,0.87-0.59,1.68-1.15,2.37c4.33,1.43,8.73,2.91,13.27,2.73c2.58-0.1,5.24-0.8,7.14-2.55
			C717.9,421.65,717.58,418.05,716.43,415.74z"/>
	</g>
	<g>
		<path class="st20" d="M621.15,295.25l-0.47,0.37c-9.3,7.49-16.01,17.71-19.2,29.22l0,0h78.46l-4.73-19.79L621.15,295.25z"/>
		<path class="st19" d="M619.48,296.63l5.67,8.2c3.96,5.72,10.35,9.29,17.3,9.65l14.84,0.78c6.95,0.36,13.72-2.23,18.65-7.15l0,0
			l-0.73-3.05l-54.06-9.81L619.48,296.63z"/>
	</g>
	<path class="st19" d="M683.66,319.89c-2.49-1.74-5.9-1.76-8.57-0.33c-1.55,0.83-2.84,2.11-3.81,3.63c0.35-1.91,1.12-3.73,2.43-5.14
		c2.04-2.19,5.34-3.15,8.21-2.28c2.86,0.87,5.11,3.58,5.31,6.56c0.07,1.08-0.1,2.15-0.45,3.17
		C686.61,323.29,685.44,321.14,683.66,319.89z"/>
	<path class="st8" d="M675.09,319.56c2.66-1.43,6.08-1.41,8.57,0.33c1.78,1.25,2.96,3.4,3.12,5.61c-0.37,1.07-0.92,2.09-1.58,3
		c-1.3,1.79-3,3.38-4.68,4.83l-2.96-6.57l-5.16,6.57c-0.73-2.57-1.38-5.21-1.34-7.89c0.01-0.75,0.09-1.5,0.22-2.25
		C672.25,321.67,673.54,320.39,675.09,319.56z"/>
	<path class="st19" d="M622.97,324.19c3.16-1.25,6.75-2.87,10.45-4.22c3.69-1.37,7.47-2.45,10.69-3.54c-1.57-0.64-3.51-1-5.58-0.98
		c-2.07,0.01-4.27,0.41-6.34,1.17s-4.01,1.88-5.6,3.21C625,321.16,623.76,322.68,622.97,324.19z"/>
	<path class="st19" d="M636.66,319.89c2.49-1.74,5.9-1.76,8.57-0.33c1.55,0.83,2.84,2.11,3.81,3.63c-0.35-1.91-1.12-3.73-2.43-5.14
		c-2.04-2.19-5.34-3.15-8.21-2.28c-2.86,0.87-5.11,3.58-5.31,6.56c-0.07,1.08,0.1,2.15,0.45,3.17
		C633.7,323.29,634.87,321.14,636.66,319.89z"/>
	<path class="st8" d="M645.22,319.56c-2.66-1.43-6.08-1.41-8.57,0.33c-1.78,1.25-2.96,3.4-3.12,5.61c0.37,1.07,0.92,2.09,1.58,3
		c1.3,1.79,3,3.38,4.68,4.83l2.96-6.57l5.16,6.57c0.73-2.57,1.38-5.21,1.34-7.89c-0.01-0.75-0.09-1.5-0.22-2.25
		C648.07,321.67,646.77,320.39,645.22,319.56z"/>
	<g>
		<path class="st19" d="M670.56,253l4.32-3.58c1.56-1.29,3.52-2,5.54-2h7.64c1.44,0,2.83,0.52,3.92,1.46l0.22,0.19l-13.46,13.98
			L670.56,253z"/>
		<path class="st19" d="M692.21,249.07l6.6,10.13c0.85,1.31-0.09,3.04-1.64,3.04h-2.61c-2.85,0-5.65-0.8-8.07-2.3l-2.97-1.84
			L692.21,249.07z"/>
		<polygon class="st21" points="692.21,249.07 686.48,259.94 683.51,258.1 		"/>
	</g>
	<g>
		<g>
			<path class="st21" d="M627.76,244.55l-8.67,11.91l2.06,3.16c1.06-1.17,1.92-2.53,2.49-4.06L627.76,244.55z"/>
			<path class="st19" d="M637.04,251.3l-9.28-6.74l-4.11,11.01c-0.57,1.53-1.43,2.9-2.49,4.06l2.23,3.41L637.04,251.3z"/>
		</g>
		<path class="st19" d="M622.48,243.19l-7.39,0.98c-3.93,0.52-7.4,2.85-9.36,6.3l-5.69,9.97c-0.83,1.46,0.32,3.24,1.99,3.1
			l5.42-0.48c6.37-0.56,12.07-4.2,15.27-9.74l5.05-8.76l0,0C626.24,243.43,624.35,242.94,622.48,243.19z"/>
	</g>
	<path class="st20" d="M622.68,274.19l-0.7-2.87c-1.11-4.57-0.19-9.39,2.54-13.22l1.94-2.72c2.99-4.18,7.9-6.56,13.03-6.29
		l25.97,1.34c4.16,0.21,7.97,2.36,10.32,5.79l3.28,4.8c2.03,2.97,2.81,6.61,2.19,10.15l-1.69,9.68c-0.32,1.84-0.15,3.73,0.5,5.49
		l1.94,5.23c1.75,4.72,0.69,10.02-2.73,13.72l0,0c-3.57,3.85-8.64,5.96-13.9,5.78l-24.29-0.83c-6.28-0.21-12.21-2.96-16.43-7.62
		l-3.81-4.2c-3.69-4.07-4.28-10.09-1.44-14.8l2.47-4.09C622.84,277.94,623.13,276.02,622.68,274.19z"/>
	<path class="st19" d="M666.63,284.4c-4.29-1.97-7.5-6.13-8.31-10.78c-0.39,3.87,0.57,7.87,2.73,11.11L666.63,284.4z"/>
	<path class="st1" d="M664.96,302.52h-13.42c-4.53,0-8.2-3.67-8.2-8.2v-2.52c0-4.53,3.67-8.2,8.2-8.2h13.42c4.53,0,8.2,3.67,8.2,8.2
		v2.52C673.16,298.85,669.49,302.52,664.96,302.52z"/>
	<path class="st21" d="M652.99,287.67c-0.36,0-0.7,0.09-1.01,0.23c0.79,0.38,1.34,1.18,1.34,2.12v6.41c0,0.94-0.55,1.74-1.34,2.12
		c0.31,0.15,0.65,0.23,1.01,0.23c1.3,0,2.35-1.05,2.35-2.35v-6.41C655.34,288.73,654.29,287.67,652.99,287.67z"/>
	<path class="st8" d="M653.33,296.43v-6.41c0-0.94-0.55-1.74-1.34-2.12c-0.79,0.38-1.34,1.18-1.34,2.12v6.41
		c0,0.94,0.55,1.74,1.34,2.12C652.77,298.17,653.33,297.37,653.33,296.43z"/>
	<path class="st21" d="M665.36,287.67c-0.36,0-0.7,0.09-1.01,0.23c0.79,0.38,1.34,1.18,1.34,2.12v6.41c0,0.94-0.55,1.74-1.34,2.12
		c0.31,0.15,0.65,0.23,1.01,0.23c1.3,0,2.35-1.05,2.35-2.35v-6.41C667.71,288.73,666.66,287.67,665.36,287.67z"/>
	<path class="st8" d="M665.69,296.43v-6.41c0-0.94-0.55-1.74-1.34-2.12c-0.79,0.38-1.34,1.18-1.34,2.12v6.41
		c0,0.94,0.55,1.74,1.34,2.12C665.14,298.17,665.69,297.37,665.69,296.43z"/>
	<path class="st8" d="M643.96,274.41c0,1.55-1.25,2.8-2.8,2.8s-2.8-1.25-2.8-2.8s1.25-2.8,2.8-2.8S643.96,272.87,643.96,274.41z"/>
	<path class="st8" d="M672.24,274.41c0,1.55-1.25,2.8-2.8,2.8s-2.8-1.25-2.8-2.8s1.25-2.8,2.8-2.8
		C670.98,271.61,672.24,272.87,672.24,274.41z"/>
	<path class="st1" d="M641.89,263.63c0.61,0.11,1.23,0.26,1.85,0.25s1.27-0.19,1.7-0.64c0.57-0.61,0.6-1.59,0.23-2.34
		s-1.06-1.29-1.8-1.67c-2.14-1.12-4.85-1.09-6.97,0.08c-0.77,0.42-1.49,1.03-1.76,1.87c-0.39,1.21,0.38,2.39,1.63,2.37
		C638.51,263.52,640.14,263.31,641.89,263.63z"/>
	<path class="st1" d="M669.15,264.13c-0.61,0.11-1.23,0.26-1.85,0.25s-1.27-0.19-1.7-0.64c-0.57-0.61-0.6-1.59-0.23-2.34
		s1.06-1.29,1.8-1.67c2.14-1.12,4.85-1.09,6.97,0.08c0.77,0.42,1.49,1.03,1.76,1.87c0.39,1.21-0.38,2.39-1.63,2.37
		C672.52,264.03,670.89,263.82,669.15,264.13z"/>
	<ellipse transform="matrix(0.5 -0.866 0.866 0.5 69.1094 691.6168)" class="st22" cx="633.52" cy="285.96" rx="5.2" ry="7.47"/>
	<path class="st7" d="M603.95,307.15l2.07,3.18c3.47,5.33,7.62,10.19,12.35,14.46l0.06,0.06h-19.61L603.95,307.15z"/>
	<path class="st8" d="M534.9,320.12l-2.89,5.28c-1.45,2.64-3.41,4.97-5.78,6.83l-0.57,0.45c-1.21,0.96-0.45,2.9,1.09,2.78
		l10.37-0.86c3.88-0.32,7.55-1.89,10.46-4.47l1.41-1.25L534.9,320.12z"/>
	<path class="st1" d="M569.69,299.13l-1.31-1.45c-1.35-1.49-2.42-3.21-3.14-5.09c-1.17-3.03-1.41-6.34-0.69-9.51l1.71-7.49
		c0.64-2.79,2.27-5.26,4.59-6.94l1.81-1.31c1.13-0.82,0.85-2.59-0.49-3.01l0,0c-1.35-0.43-2.82-0.15-3.92,0.74l-2.57,2.08
		c-2.13,1.72-3.59,4.13-4.14,6.81l-1.69,8.18c-0.62,3.03-2.81,5.49-5.73,6.48l-10.09,3.41l-10.94,9.09
		c-1.44,1.2-2.48,2.81-2.98,4.62l-0.63,2.28c-0.57,2.07-0.4,4.28,0.5,6.24l3.61,7.92c1.25,2.75,3.86,4.62,6.86,4.94l3.56,0.37
		l1.56,2.5c1.25,2,3.2,3.46,5.47,4.1c2.13,0.6,4.41,0.44,6.44-0.46l27.16-12.09v-5.91c0-2.83,0.13-5.65,0.38-8.46l-7.96-3.01
		C574.24,303.08,571.72,301.36,569.69,299.13z"/>
	<path class="st7" d="M592.34,275.99c-0.79-3.97-2.91-7.55-6-10.17l-2.51-2.12c-4.6-3.89-11.1-4.61-16.43-1.8l-6.02,3.17
		c-3.23,1.7-5.47,4.81-6.05,8.41l-1.17,7.28c-0.34,2.12-1.44,4.05-3.1,5.42l-7.04,5.85l10.09-3.41c2.93-0.99,5.11-3.46,5.73-6.48
		l1.69-8.18c0.55-2.68,2.02-5.08,4.14-6.81l2.57-2.08c1.1-0.89,2.57-1.17,3.92-0.74l0,0c1.34,0.42,1.62,2.19,0.49,3.01l-1.81,1.31
		c-2.32,1.68-3.95,4.15-4.59,6.94l-1.71,7.49c-0.72,3.17-0.48,6.48,0.69,9.51c0.72,1.88,1.79,3.6,3.14,5.09l1.31,1.45
		c2.02,2.23,4.55,3.95,7.37,5.02l7.96,3.01c0.57-6.34,1.77-12.61,3.6-18.71L592.34,275.99z"/>
	<path class="st8" d="M574.7,282.05c0,1.78-1.07,3.22-2.39,3.22s-2.39-1.44-2.39-3.22s1.07-3.22,2.39-3.22
		C573.63,278.84,574.7,280.28,574.7,282.05z"/>
	<path class="st8" d="M558.74,279.44c0,1.48-0.63,2.68-1.4,2.68s-1.4-1.2-1.4-2.68c0-1.48,0.63-2.68,1.4-2.68
		S558.74,277.96,558.74,279.44z"/>
	<path class="st11" d="M587.48,292.56c-4.6,7.07-5.12,20.73-5.12,20.73l-5.92-0.31c-2.61-0.14-5.13,0.93-6.85,2.89l-1.28,1.46
		c-1.89,2.16-2.6,5.11-1.88,7.89l-8.34,4.8c-4.19,2.41-9.46,1.8-12.98-1.51l-1.1-1.03l1.56,2.5c1.25,2,3.2,3.46,5.47,4.1
		c2.13,0.6,4.41,0.44,6.44-0.46l27.16-12.09v-5.91c0-2.83,0.13-5.65,0.38-8.46c0.44-4.93,1.27-9.81,2.48-14.61L587.48,292.56z"/>
	<path class="st7" d="M586.48,315.91l-7.07-1.3c-2.12-0.39-4.31,0.18-5.98,1.55l-1.71,1.41c-1.93,1.59-2.92,4.06-2.61,6.55l0,0
		c0.37,2.97,2.89,5.2,5.89,5.2h12L586.48,315.91z"/>
	<path class="st8" d="M576.36,318.33l-1.13,1.87c-0.89,1.48-1.1,3.28-0.56,4.92l1.38,4.2h-1.06l-1.87-3.33
		c-1.24-2.21-0.6-5,1.48-6.44L576.36,318.33z"/>
	<path class="st8" d="M582.42,318.33l-0.8,1.87c-0.63,1.48-0.77,3.28-0.39,4.92l0.98,4.2h-0.75l-1.32-3.33
		c-0.88-2.21-0.42-5,1.05-6.44L582.42,318.33z"/>
	<path class="st8" d="M592.34,275.99l-3.73,12.45c-2.64,8.82-3.98,17.97-3.98,27.17v5.27c0,7.04,1.09,14.04,3.22,20.75l0,0
		c0.75,2.35,3.76,3.01,5.42,1.18l3.5-3.85c5.56-6.11,8.38-14.22,7.82-22.46l-1.7-24.82c-0.25-3.68-1.84-7.14-4.47-9.72
		L592.34,275.99z"/>
	<path class="st8" d="M576.22,274.93c0.52,0.21,1.09,0.42,1.64,0.27c0.78-0.22,1.19-1.17,1.02-1.96c-0.18-0.79-0.8-1.42-1.49-1.84
		c-1.42-0.87-4.03-1.43-4.91,0.46C571.53,273.89,574.93,274.42,576.22,274.93z"/>
	<path class="st8" d="M560.29,271.31c0.47-0.08,0.97-0.19,1.31-0.53c0.48-0.49,0.4-1.32-0.05-1.78c-0.45-0.47-1.16-0.62-1.84-0.61
		c-1.39,0.02-3.52,0.77-3.4,2.44C556.43,272.63,559.14,271.52,560.29,271.31z"/>
	<path class="st8" d="M551.05,324.9l-8.78-3.83c-1.62-2.42-2.45-5.36-2.32-8.27c0.01-0.29-0.21-0.54-0.5-0.55
		c-0.27-0.01-0.53,0.21-0.55,0.5c-0.13,2.99,0.68,5.99,2.26,8.52l-2.81,1.36c-0.26,0.13-0.37,0.44-0.24,0.7
		c0.09,0.19,0.28,0.3,0.47,0.3c0.08,0,0.15-0.02,0.23-0.05l3.12-1.51l8.7,3.79c0.07,0.03,0.14,0.04,0.21,0.04
		c0.2,0,0.4-0.12,0.48-0.32C551.43,325.32,551.31,325.01,551.05,324.9z"/>
	<path class="st8" d="M549.02,307.79c-4.72-2.33-10.26-2.99-15.39-1.79c-1.01,0.24-1.62,1.28-1.27,2.26
		c0.88,2.48,2.22,4.39,3.47,5.75c1.71,1.87,4.44,2.43,6.74,1.37c2.53-1.16,4.94-2.67,6.69-3.87
		C550.61,310.58,550.5,308.52,549.02,307.79z"/>
	<path class="st23" d="M573.37,291.28c-0.75-1.4-1.93-2.81-3.44-4.02s-3.35-2.22-5.32-2.87c-1.96-0.65-4.04-0.95-5.98-0.88
		s-3.73,0.5-5.17,1.17c3.06,0.85,6.62,1.71,10.09,2.87C567.04,288.7,570.4,290.14,573.37,291.28z"/>
	<g>
		<path class="st7" d="M552.48,318.15c1.69,0,1.69-2.63,0-2.63C550.79,315.53,550.78,318.15,552.48,318.15L552.48,318.15z"/>
	</g>
	<g>
		<path class="st7" d="M549.52,322.68c1.69,0,1.69-2.63,0-2.63C547.83,320.06,547.83,322.68,549.52,322.68L549.52,322.68z"/>
	</g>
	<g>
		<path class="st7" d="M549,319.2c1.01,0,1.02-1.58,0-1.58C547.98,317.63,547.98,319.2,549,319.2L549,319.2z"/>
	</g>
	<g>
		<path class="st7" d="M552.81,321.44c1.01,0,1.02-1.58,0-1.58C551.79,319.86,551.79,321.44,552.81,321.44L552.81,321.44z"/>
	</g>
	<g>
		<path class="st7" d="M545.84,317.89c1.01,0,1.02-1.58,0-1.58C544.83,316.31,544.83,317.89,545.84,317.89L545.84,317.89z"/>
	</g>
	<g>
		<path class="st7" d="M534.59,315.1c0.61-0.16,0.21-1.68-0.4-1.53C533.58,313.73,533.98,315.26,534.59,315.1L534.59,315.1z"/>
	</g>
	<g>
		<path class="st24" d="M536.58,318.38c1.02-0.27,0.35-2.81-0.66-2.54C534.91,316.1,535.57,318.65,536.58,318.38L536.58,318.38z"/>
	</g>
	<g>
		<path class="st7" d="M534.09,319.64c1.02-0.27,0.35-2.81-0.66-2.54C532.41,317.37,533.07,319.91,534.09,319.64L534.09,319.64z"/>
	</g>
	<g>
		<path class="st7" d="M532.57,315.42c0.61-0.16,0.21-1.68-0.4-1.53C531.56,314.06,531.96,315.58,532.57,315.42L532.57,315.42z"/>
	</g>
	<g>
		<path class="st7" d="M536.03,320.63c0.61-0.16,0.21-1.68-0.4-1.53C535.03,319.26,535.42,320.79,536.03,320.63L536.03,320.63z"/>
	</g>
	<path class="st7" d="M545.34,307.92c0.38,0.13,0.78,0.27,1.05,0.56c0.28,0.29,0.38,0.79,0.12,1.09c-0.26,0.31-0.74,0.28-1.14,0.23
		c-1.69-0.22-3.37-0.43-5.06-0.65c-0.4-0.05-0.8-0.1-1.17-0.28c-0.89-0.43-1.01-1.82,0.06-2.07c1.18-0.28,2.62,0.07,3.76,0.37
		C543.77,307.39,544.56,307.65,545.34,307.92z"/>
	<path class="st7" d="M534.95,307.14c-0.28,0.3-0.33,0.79-0.12,1.15c0.2,0.36,0.64,0.56,1.05,0.5c0.41-0.07,0.75-0.4,0.84-0.8
		C536.98,306.84,535.69,306.34,534.95,307.14z"/>
	<path class="st25" d="M613.18,422.93h-83.37c-0.63,0-1.14,0.51-1.14,1.14s0.51,1.14,1.14,1.14h83.37c0.63,0,1.14-0.51,1.14-1.14
		S613.81,422.93,613.18,422.93z"/>
	<polygon class="st7" points="601.94,408.18 541.06,408.18 531.66,422.93 611.34,422.93 	"/>
	<g>
		<polygon class="st1" points="595.32,408.18 587.99,408.18 593.09,422.93 602.68,422.93 		"/>
		<polygon class="st1" points="581.27,408.18 584.29,422.93 588.88,422.93 584.78,408.18 		"/>
	</g>
	<path class="st1" d="M545.19,408.18l0.98-0.98c1.33-1.33,3.13-2.08,5.02-2.08l0,0c1.88,0,3.69-0.75,5.02-2.08l0.72-0.72
		c1.33-1.33,3.13-2.08,5.02-2.08h1.33c1.88,0,3.69-0.75,5.02-2.08l0.13-0.13c1.33-1.33,3.13-2.08,5.02-2.08h3.69
		c1.76,0,3.44,0.7,4.68,1.94l2.99,2.99c1.24,1.24,2.93,1.94,4.68,1.94l0,0c1.75,0,3.43,0.69,4.67,1.92l3.45,3.42h-52.42
		L545.19,408.18L545.19,408.18z"/>
	<g>
		<g>
			<path class="st7" d="M574.3,405.5c1.69,0,1.69-2.63,0-2.63S572.61,405.5,574.3,405.5L574.3,405.5z"/>
		</g>
		<g>
			<path class="st7" d="M577.19,403.57c1.01,0,1.02-1.58,0-1.58C576.18,402,576.18,403.57,577.19,403.57L577.19,403.57z"/>
		</g>
		<g>
			<path class="st7" d="M569.66,406.11c1.01,0,1.02-1.58,0-1.58C568.65,404.54,568.65,406.11,569.66,406.11L569.66,406.11z"/>
		</g>
		<g>
			<path class="st7" d="M560.99,404.19c1.01,0,1.02-1.58,0-1.58C559.98,402.61,559.98,404.19,560.99,404.19L560.99,404.19z"/>
		</g>
		<g>
			<path class="st7" d="M559.46,404.45c0.34,0,0.34-0.53,0-0.53S559.12,404.45,559.46,404.45L559.46,404.45z"/>
		</g>
		<g>
			<path class="st7" d="M582.62,405.59c1.01,0,1.02-1.58,0-1.58C581.61,404.01,581.61,405.59,582.62,405.59L582.62,405.59z"/>
		</g>
		<g>
			<path class="st7" d="M572.29,399.55c1.01,0,1.02-1.58,0-1.58C571.28,397.97,571.27,399.55,572.29,399.55L572.29,399.55z"/>
		</g>
		<g>
			<path class="st7" d="M577.54,401.12c1.69,0,1.69-2.63,0-2.63S575.85,401.12,577.54,401.12L577.54,401.12z"/>
		</g>
		<g>
			<path class="st7" d="M565.55,403.66c1.01,0,1.02-1.58,0-1.58C564.53,402.08,564.53,403.66,565.55,403.66L565.55,403.66z"/>
		</g>
		<g>
			<path class="st7" d="M556.7,406.46c1.01,0,1.02-1.58,0-1.58C555.69,404.89,555.69,406.46,556.7,406.46L556.7,406.46z"/>
		</g>
		<g>
			<path class="st7" d="M580,405.41c0.34,0,0.34-0.53,0-0.53C579.66,404.89,579.66,405.41,580,405.41L580,405.41z"/>
		</g>
		<g>
			<path class="st7" d="M586.65,406.38c0.34,0,0.34-0.53,0-0.53S586.31,406.38,586.65,406.38L586.65,406.38z"/>
		</g>
		<g>
			<path class="st7" d="M584.72,402.79c0.34,0,0.34-0.53,0-0.53C584.39,402.26,584.39,402.79,584.72,402.79L584.72,402.79z"/>
		</g>
		<g>
			<path class="st7" d="M581.92,402.08c0.34,0,0.34-0.53,0-0.53C581.58,401.56,581.58,402.08,581.92,402.08L581.92,402.08z"/>
		</g>
		<g>
			<path class="st7" d="M567.04,406.81c0.34,0,0.34-0.53,0-0.53C566.7,406.29,566.7,406.81,567.04,406.81L567.04,406.81z"/>
		</g>
		<g>
			<path class="st7" d="M569.58,403.31c0.34,0,0.34-0.53,0-0.53C569.24,402.79,569.24,403.31,569.58,403.31L569.58,403.31z"/>
		</g>
	</g>
	<path class="st26" d="M765.9,426.76H514.58c-0.43,0-0.78-0.35-0.78-0.78l0,0c0-0.43,0.35-0.78,0.78-0.78H765.9
		c0.43,0,0.78,0.35,0.78,0.78l0,0C766.68,426.41,766.33,426.76,765.9,426.76z"/>
</g>
</svg>
