<?xml version="1.0" encoding="utf-8"?>
<!-- Generator: Adobe Illustrator 19.0.0, SVG Export Plug-In . SVG Version: 6.00 Build 0)  -->
<svg version="1.1" id="Warstwa_1" xmlns="http://www.w3.org/2000/svg" xmlns:xlink="http://www.w3.org/1999/xlink" x="0px" y="0px"
	 viewBox="163 15 825 472" style="enable-background:new 163 15 825 472;" xml:space="preserve">
<style type="text/css">
	.st0{clip-path:url(#SVGID_2_);fill:url(#SVGID_3_);}
	.st1{fill:#FFFFFF;}
	.st2{fill:#FCC812;}
	.st3{fill:#404040;}
	.st4{fill:#666666;}
	.st5{fill:#A49399;}
	.st6{opacity:0.3;fill:#442849;enable-background:new    ;}
	.st7{fill:#8C8C8C;}
	.st8{fill:#FFFFFF;stroke:#1C1C1B;stroke-width:0.7215;stroke-miterlimit:10;}
	.st9{fill:#BD960E;}
	.st10{fill:#8E710B;}
	.st11{opacity:0.2;fill:#442849;enable-background:new    ;}
	.st12{fill:#E2E2E2;}
	.st13{fill:#AAAAAA;}
	.st14{fill:#21674E;}
	.st15{fill:#2C8968;}
	.st16{fill:#164534;}
	.st17{opacity:0.3;fill:#FFF0E7;enable-background:new    ;}
	.st18{opacity:0.5;fill:#404040;enable-background:new    ;}
	.st19{fill:#E6AF90;}
	.st20{fill:#18563F;}
	.st21{fill:#207254;}
</style>
<g>
	<g>
		<g>
			<defs>
				<rect id="SVGID_1_" x="163" y="15" width="825" height="472"/>
			</defs>
			<clipPath id="SVGID_2_">
				<use xlink:href="#SVGID_1_"  style="overflow:visible;"/>
			</clipPath>
			
				<linearGradient id="SVGID_3_" gradientUnits="userSpaceOnUse" x1="-879.9618" y1="1247.1718" x2="-878.373" y2="1247.1718" gradientTransform="matrix(526.5874 0 0 -526.5874 463517 657038.5)">
				<stop  offset="0" style="stop-color:#379E6E"/>
				<stop  offset="1" style="stop-color:#72C6D4"/>
			</linearGradient>
			<rect x="140.2" y="-141.8" class="st0" width="870.6" height="870.6"/>
		</g>
	</g>
</g>
<g>
	<path class="st1" d="M224.9,122.5c7.2-0.1,14.1-2.9,19.3-8c5.2-5.1,8.2-11.9,8.4-19.1c0.1-5.5-1.3-10.8-4.2-15.4
		c-0.4-0.6-1.1-1-1.8-1c-0.8,0-1.4,0.4-1.8,1.1c-0.4,0.7-0.4,1.5,0.1,2.1c2.5,4,3.7,8.7,3.5,13.5c-0.5,11.7-10.8,22.1-22.6,22.6
		c-6.7,0.3-13.2-2.2-17.9-6.9c-4.7-4.7-7.2-11.2-6.9-17.9c0.6-11.7,10.9-22,22.7-22.6c4.8-0.2,9.5,1,13.5,3.5c0.7,0.4,1.4,0.4,2.1,0
		c0.7-0.4,1.1-1,1.1-1.8c0-0.7-0.4-1.4-1-1.8c-4.6-2.9-10-4.3-15.4-4.2c-7.2,0.2-14,3.2-19.1,8.4c-5.1,5.2-8,12-8,19.3
		c-0.1,7.5,2.8,14.6,8.2,20c5.3,5.3,12.3,8.2,19.7,8.2C224.7,122.5,224.8,122.5,224.9,122.5"/>
	<path class="st1" d="M224.6,77.8c-1,0-1.7,0.5-2.1,1.5L212,104.4c-0.3,0.8-0.3,1.5,0.1,2.1c0.4,0.7,1,1,1.8,1
		c0.4,0,0.8-0.1,1.2-0.3c0.4-0.2,0.7-0.6,0.9-1l3.2-7.7h11l3.1,7.7c0.2,0.4,0.4,0.8,0.8,1c0.4,0.2,0.8,0.4,1.2,0.4
		c0.8,0,1.4-0.3,1.8-1c0.4-0.6,0.5-1.4,0.2-2.1l-10.6-25.2C226.3,78.3,225.6,77.8,224.6,77.8 M220.6,95l4.1-10l4,10H220.6z"/>
	<path class="st1" d="M278.6,96.5c0.3-0.5,0.4-1,0.1-1.6l-7.4-17.6c-0.3-0.7-0.8-1.1-1.6-1.1c-0.7,0-1.2,0.4-1.6,1.1l-7.3,17.5
		c-0.2,0.6-0.2,1.1,0.1,1.6c0.3,0.5,0.8,0.8,1.4,0.8c0.3,0,0.6-0.1,0.9-0.2c0.3-0.2,0.5-0.4,0.7-0.8l2.2-5.3h7.5l2.1,5.3
		c0.1,0.3,0.3,0.6,0.6,0.8c0.3,0.2,0.6,0.3,0.9,0.3C277.9,97.2,278.3,97,278.6,96.5 M267.2,88.2l2.7-6.5l2.6,6.5H267.2z"/>
	<path class="st1" d="M284.8,85.6c0.7-0.3,1.5-0.5,2.5-0.4c0.2,0,0.5,0,0.7-0.1c0.2-0.1,0.4-0.2,0.5-0.4c0.1-0.2,0.2-0.5,0.2-0.8
		c0-0.4-0.1-1-0.9-1.4c-0.6-0.3-1.3-0.3-2.3-0.1c-0.8,0.2-1.5,0.5-2.1,1c-0.1-0.3-0.2-0.6-0.4-0.8c-0.3-0.3-0.7-0.4-1.2-0.4
		c-0.5,0-0.9,0.1-1.2,0.4c-0.3,0.3-0.4,0.7-0.4,1.2v11.9c0,0.5,0.1,0.9,0.4,1.2c0.3,0.3,0.7,0.4,1.2,0.4c0.5,0,0.9-0.1,1.2-0.4
		c0.3-0.3,0.4-0.7,0.4-1.2v-8.8C283.6,86.3,284.1,85.9,284.8,85.6"/>
	<path class="st1" d="M298,94h-0.9c-0.5,0-0.9-0.2-1.2-0.6c-0.3-0.4-0.5-0.9-0.5-1.6v-6.5h2c0.4,0,0.8-0.1,1.1-0.4
		c0.3-0.3,0.4-0.6,0.4-1c0-0.4-0.1-0.8-0.4-1.1c-0.3-0.3-0.6-0.4-1.1-0.4h-2v-3.1c0-0.5-0.1-0.9-0.4-1.1c-0.3-0.3-0.7-0.5-1.1-0.5
		c-0.5,0-0.9,0.1-1.2,0.5c-0.3,0.3-0.5,0.7-0.5,1.1v3.1h-0.8c-0.4,0-0.8,0.1-1.1,0.4c-0.3,0.3-0.4,0.6-0.4,1.1c0,0.4,0.1,0.7,0.4,1
		c0.3,0.3,0.6,0.4,1.1,0.4h0.8v6.5c0,1,0.2,1.9,0.6,2.7c0.4,0.8,1,1.5,1.8,1.9c0.7,0.5,1.6,0.7,2.5,0.7h0.5c0.5,0,1-0.1,1.3-0.4
		c0.4-0.3,0.5-0.7,0.5-1.2c0-0.5-0.1-0.8-0.4-1.1C298.7,94.2,298.4,94,298,94"/>
	<path class="st1" d="M342.3,93.5c0.6-1.1,0.9-2.4,0.9-3.8c0-1.4-0.3-2.7-1-3.9c-0.7-1.1-1.6-2-2.7-2.7s-2.4-1-3.8-1
		c-1.4,0-2.7,0.3-3.8,1s-2,1.6-2.7,2.7c-0.6,1.1-1,2.4-1,3.9v11.9c0,0.5,0.2,0.9,0.5,1.2c0.3,0.3,0.7,0.5,1.2,0.5
		c0.5,0,0.9-0.2,1.2-0.5s0.4-0.7,0.4-1.2v-6.3c0.5,0.5,1.1,0.9,1.8,1.2c0.9,0.5,1.9,0.7,3,0.7c1.3,0,2.5-0.3,3.6-1
		C340.9,95.6,341.7,94.7,342.3,93.5 M339.5,92c-0.4,0.7-0.9,1.2-1.5,1.6c-0.6,0.4-1.4,0.6-2.2,0.6c-0.8,0-1.6-0.2-2.2-0.6
		s-1.2-1-1.5-1.6s-0.6-1.5-0.6-2.4c0-0.9,0.2-1.7,0.6-2.4s0.9-1.2,1.5-1.6c0.6-0.4,1.4-0.6,2.2-0.6c0.8,0,1.6,0.2,2.2,0.6
		s1.2,1,1.5,1.6s0.6,1.5,0.6,2.4C340.1,90.6,339.9,91.3,339.5,92"/>
	<path class="st1" d="M357.4,94.5c0-0.4-0.2-0.8-0.6-1.1c-0.3-0.2-0.6-0.4-1-0.4c-0.4,0-0.7,0.1-1,0.4c-0.3,0.2-0.8,0.5-1.3,0.6
		s-1.1,0.3-1.6,0.3c-0.9,0-1.8-0.2-2.5-0.6c-0.7-0.4-1.3-1-1.7-1.7c-0.2-0.4-0.4-0.8-0.5-1.2h9.6c0.4,0,0.8-0.1,1.1-0.4
		c0.3-0.3,0.4-0.6,0.4-1c0-1.4-0.3-2.7-0.8-3.8c-0.5-1.1-1.3-2-2.4-2.6c-1-0.6-2.2-1-3.7-1c-1.4,0-2.7,0.3-3.8,1
		c-1.1,0.6-2,1.5-2.6,2.7c-0.6,1.1-0.9,2.5-0.9,3.9c0,1.5,0.3,2.8,1,3.9s1.6,2,2.8,2.7c1.2,0.6,2.5,1,4,1c0.8,0,1.7-0.2,2.6-0.5
		c0.9-0.3,1.7-0.7,2.3-1.2C357.3,95.2,357.4,94.8,357.4,94.5 M347.6,87.2c0.3-0.7,0.8-1.3,1.5-1.7c0.6-0.4,1.5-0.6,2.4-0.6
		c0.8,0,1.5,0.2,2.1,0.5c0.6,0.4,1,0.9,1.3,1.5c0.2,0.4,0.3,0.8,0.4,1.2h-8C347.4,87.9,347.5,87.5,347.6,87.2"/>
	<path class="st1" d="M368.7,86.8c0.3,0.6,0.5,1.4,0.5,2.3v6.5c0,0.5,0.2,0.9,0.5,1.2c0.3,0.3,0.7,0.5,1.2,0.5
		c0.5,0,0.9-0.2,1.2-0.5s0.5-0.7,0.5-1.2v-6.5c0-1.5-0.3-2.8-0.9-3.8s-1.4-1.9-2.4-2.4c-1-0.5-2.1-0.8-3.4-0.8
		c-1.2,0-2.3,0.3-3.3,0.8c-0.1,0.1-0.2,0.1-0.3,0.2c-0.1-0.1-0.2-0.3-0.3-0.4c-0.3-0.3-0.7-0.5-1.2-0.5c-0.5,0-0.9,0.1-1.2,0.5
		c-0.3,0.3-0.5,0.7-0.5,1.2v11.7c0,0.5,0.2,0.9,0.5,1.2c0.3,0.3,0.7,0.5,1.2,0.5c0.5,0,0.9-0.2,1.2-0.5s0.4-0.7,0.4-1.2v-9.3
		c0.3-0.3,0.6-0.6,1-0.8c0.5-0.3,1.2-0.4,1.9-0.4c0.8,0,1.4,0.1,2,0.4C368,85.8,368.4,86.3,368.7,86.8"/>
	<path class="st1" d="M324.4,78.9L324.4,78.9c-1-1-2.1-1.7-3.4-2.3s-2.8-0.8-4.4-0.8c-1.6,0-3.1,0.3-4.4,0.8
		c-1.3,0.5-2.5,1.3-3.4,2.3c-1,1-1.7,2.1-2.2,3.5c-0.5,1.3-0.8,2.8-0.8,4.4c0,1.6,0.3,3.1,0.8,4.4c0.5,1.3,1.3,2.5,2.2,3.5
		c0.9,1,2.1,1.7,3.4,2.3s2.8,0.8,4.4,0.8c1.6,0,3-0.3,4.4-0.8c1.3-0.5,2.5-1.3,3.4-2.3s1.7-2.1,2.2-3.5c0.5-1.3,0.8-2.8,0.8-4.4
		c0-1.6-0.3-3.1-0.8-4.4C326.2,81,325.4,79.8,324.4,78.9 M323.4,89.7c-0.4,0.9-0.9,1.7-1.5,2.4s-1.4,1.2-2.3,1.6
		c-0.9,0.4-1.9,0.6-2.9,0.6c-1.1,0-2.1-0.2-2.9-0.6c-0.9-0.4-1.7-0.9-2.3-1.6c-0.6-0.7-1.1-1.5-1.5-2.4c-0.4-0.9-0.5-1.9-0.5-3
		s0.2-2.1,0.5-3c0.4-0.9,0.9-1.7,1.5-2.4c0.6-0.7,1.4-1.2,2.3-1.6c0.9-0.4,1.9-0.6,3-0.6s2.1,0.2,2.9,0.6c0.9,0.4,1.7,0.9,2.3,1.6
		c0.6,0.7,1.2,1.5,1.5,2.4c0.4,0.9,0.5,1.9,0.5,3C324,87.8,323.8,88.8,323.4,89.7"/>
	<path class="st1" d="M275.4,110.5c-0.3-0.3-0.8-0.5-1.5-0.6c-0.4,0-0.7-0.1-0.9-0.2s-0.4-0.2-0.5-0.4c-0.1-0.1-0.1-0.3-0.1-0.5
		c0-0.3,0.1-0.5,0.4-0.7s0.6-0.2,1-0.2c0.2,0,0.4,0,0.6,0.1c0.2,0.1,0.3,0.1,0.4,0.2c0.1,0.1,0.2,0.2,0.3,0.3c0,0.1,0.1,0.1,0.2,0.1
		c0.1,0,0.2,0,0.2,0c0.1,0,0.1-0.1,0.1-0.2c0-0.1,0-0.1,0-0.2c-0.1-0.2-0.3-0.3-0.4-0.5c-0.2-0.1-0.4-0.2-0.6-0.3
		c-0.2-0.1-0.5-0.1-0.8-0.1c-0.4,0-0.7,0.1-1,0.2c-0.3,0.1-0.5,0.3-0.7,0.5c-0.2,0.2-0.3,0.5-0.3,0.8c0,0.4,0.2,0.8,0.5,1
		c0.4,0.3,0.8,0.5,1.5,0.5c0.5,0.1,0.9,0.2,1.1,0.4c0.2,0.2,0.4,0.5,0.4,0.8c0,0.2-0.1,0.4-0.2,0.6c-0.1,0.2-0.3,0.3-0.5,0.4
		c-0.2,0.1-0.5,0.1-0.8,0.1c-0.2,0-0.5,0-0.7-0.1c-0.2-0.1-0.4-0.1-0.6-0.3c-0.1-0.1-0.3-0.2-0.4-0.4c0-0.1-0.1-0.1-0.2-0.1
		s-0.1,0-0.2,0c-0.1,0-0.2,0.1-0.2,0.1c0,0.1,0,0.1,0,0.2c0.1,0.2,0.3,0.4,0.5,0.6c0.2,0.2,0.5,0.3,0.8,0.4c0.3,0.1,0.6,0.1,0.9,0.1
		c0.3,0,0.6,0,0.8-0.1c0.2-0.1,0.5-0.2,0.7-0.3s0.3-0.3,0.4-0.5s0.2-0.4,0.2-0.7C275.9,111.2,275.8,110.8,275.4,110.5"/>
	<path class="st1" d="M282.2,107.5h-1.9h-0.6h-1.9c-0.1,0-0.1,0-0.2,0.1c-0.1,0-0.1,0.1-0.1,0.2c0,0.1,0,0.1,0.1,0.2
		c0,0,0.1,0.1,0.2,0.1h1.9v4.9c0,0.1,0,0.1,0.1,0.2s0.1,0.1,0.2,0.1s0.2,0,0.2-0.1c0.1-0.1,0.1-0.1,0.1-0.2V108h1.9
		c0.1,0,0.1,0,0.2-0.1c0.1,0,0.1-0.1,0.1-0.2c0-0.1,0-0.1-0.1-0.2C282.3,107.6,282.3,107.5,282.2,107.5"/>
	<path class="st1" d="M289.3,107.5c-0.1,0-0.2,0-0.2,0.1s-0.1,0.1-0.1,0.2v3.5c0,0.3-0.1,0.5-0.2,0.8s-0.4,0.4-0.6,0.5
		c-0.3,0.1-0.6,0.2-1,0.2c-0.4,0-0.7-0.1-1-0.2s-0.5-0.3-0.7-0.5s-0.2-0.5-0.2-0.8v-3.5c0-0.1,0-0.1-0.1-0.2c-0.1,0-0.1-0.1-0.2-0.1
		s-0.2,0-0.2,0.1s-0.1,0.1-0.1,0.2v3.5c0,0.4,0.1,0.7,0.3,1c0.2,0.3,0.5,0.5,0.9,0.7c0.4,0.2,0.8,0.3,1.3,0.3c0.5,0,0.9-0.1,1.3-0.3
		c0.4-0.2,0.7-0.4,0.9-0.7c0.2-0.3,0.3-0.6,0.3-1v-3.5c0-0.1,0-0.1-0.1-0.2C289.4,107.6,289.4,107.5,289.3,107.5"/>
	<path class="st1" d="M296.4,108.3c-0.3-0.3-0.6-0.5-1-0.6c-0.4-0.1-0.8-0.2-1.2-0.2h-1.4c-0.1,0-0.2,0-0.2,0.1s-0.1,0.1-0.1,0.2
		v5.1c0,0.1,0,0.1,0.1,0.2c0.1,0,0.1,0.1,0.2,0.1h1.4c0.5,0,0.9-0.1,1.2-0.2c0.4-0.1,0.7-0.3,1-0.6c0.3-0.3,0.5-0.6,0.6-0.9
		s0.2-0.7,0.2-1.1c0-0.4-0.1-0.8-0.2-1.1C296.9,108.9,296.7,108.6,296.4,108.3 M296.4,111.6c-0.2,0.4-0.5,0.6-0.9,0.8
		c-0.4,0.2-0.8,0.3-1.3,0.3h-1.1V108h1.1c0.5,0,0.9,0.1,1.3,0.3c0.4,0.2,0.7,0.5,0.9,0.8c0.2,0.4,0.3,0.8,0.3,1.2
		C296.7,110.8,296.6,111.2,296.4,111.6"/>
	<path class="st1" d="M300.2,107.5c-0.1,0-0.2,0-0.2,0.1s-0.1,0.1-0.1,0.2v5.1c0,0.1,0,0.1,0.1,0.2c0.1,0,0.1,0.1,0.2,0.1
		s0.2,0,0.2-0.1s0.1-0.1,0.1-0.2v-5.1c0-0.1,0-0.1-0.1-0.2C300.3,107.6,300.3,107.5,300.2,107.5"/>
	<path class="st1" d="M308.5,108.3c-0.3-0.3-0.6-0.5-1-0.6c-0.4-0.1-0.8-0.2-1.3-0.2c-0.5,0-0.9,0.1-1.3,0.2c-0.4,0.1-0.7,0.4-1,0.6
		c-0.3,0.3-0.5,0.6-0.7,0.9c-0.2,0.4-0.2,0.7-0.2,1.2s0.1,0.8,0.2,1.2c0.2,0.4,0.4,0.7,0.7,0.9c0.3,0.3,0.6,0.5,1,0.6
		c0.4,0.1,0.8,0.2,1.3,0.2c0.5,0,0.9-0.1,1.3-0.2c0.4-0.1,0.7-0.4,1-0.6c0.3-0.3,0.5-0.6,0.7-0.9s0.2-0.8,0.2-1.2s-0.1-0.8-0.2-1.2
		C309,108.9,308.8,108.5,308.5,108.3 M308.6,111.3c-0.1,0.3-0.3,0.5-0.5,0.8c-0.2,0.2-0.5,0.4-0.8,0.5c-0.3,0.1-0.6,0.2-1,0.2
		s-0.7-0.1-1-0.2c-0.3-0.1-0.6-0.3-0.8-0.5c-0.2-0.2-0.4-0.5-0.5-0.8s-0.2-0.6-0.2-1c0-0.3,0.1-0.6,0.2-0.9s0.3-0.5,0.5-0.8
		c0.2-0.2,0.5-0.4,0.8-0.5c0.3-0.1,0.7-0.2,1-0.2s0.7,0.1,1,0.2s0.6,0.3,0.8,0.5c0.2,0.2,0.4,0.5,0.5,0.8s0.2,0.6,0.2,0.9
		S308.7,111,308.6,111.3"/>
	<path class="st1" d="M318.2,110.9c0.1,0,0.2-0.1,0.3-0.1c0.3-0.1,0.5-0.4,0.7-0.6c0.2-0.3,0.3-0.5,0.3-0.9c0-0.4-0.1-0.6-0.3-0.9
		c-0.2-0.3-0.4-0.5-0.7-0.6c-0.3-0.1-0.6-0.2-1-0.2h-1.5c-0.1,0-0.2,0-0.2,0.1c-0.1,0-0.1,0.1-0.1,0.2v5.1c0,0.1,0,0.1,0.1,0.2
		c0.1,0,0.1,0.1,0.2,0.1s0.2,0,0.2-0.1s0.1-0.1,0.1-0.2v-2h1.2c0,0,0.1,0,0.1,0l1.4,2.1c0,0,0.1,0.1,0.1,0.1c0,0,0.1,0,0.2,0
		c0.1,0,0.2,0,0.3-0.1c0.1-0.1,0-0.2,0-0.3L318.2,110.9z M317.4,110.4h-1.2v-2.4h1.2c0.3,0,0.5,0,0.7,0.1c0.2,0.1,0.4,0.2,0.5,0.4
		c0.1,0.2,0.2,0.4,0.2,0.6c0,0.2-0.1,0.4-0.2,0.6s-0.3,0.3-0.5,0.4C317.9,110.4,317.6,110.4,317.4,110.4"/>
	<path class="st1" d="M325.8,108.1c0.1,0,0.2,0,0.2-0.1s0.1-0.1,0.1-0.2c0-0.1,0-0.1-0.1-0.2c-0.1,0-0.1-0.1-0.2-0.1h-3.7
		c-0.1,0-0.2,0-0.2,0.1s-0.1,0.1-0.1,0.2v5.1c0,0.1,0,0.1,0.1,0.2c0.1,0,0.1,0.1,0.2,0.1h3.7c0.1,0,0.2,0,0.2-0.1s0.1-0.1,0.1-0.2
		c0-0.1,0-0.1-0.1-0.2s-0.1-0.1-0.2-0.1h-3.4v-2h2.5c0.1,0,0.2,0,0.2-0.1s0.1-0.1,0.1-0.2c0-0.1,0-0.1-0.1-0.2
		c-0.1,0-0.1-0.1-0.2-0.1h-2.5v-2L325.8,108.1L325.8,108.1z"/>
	<path class="st1" d="M332.6,107.8c0-0.1,0-0.1-0.1-0.2c0,0-0.1-0.1-0.2-0.1c0,0-0.1,0-0.1,0c0,0-0.1,0-0.1,0.1l-2.9,2.7v-2.5
		c0-0.1,0-0.1-0.1-0.2c-0.1-0.1-0.1-0.1-0.2-0.1c-0.1,0-0.2,0-0.2,0.1c-0.1,0.1-0.1,0.1-0.1,0.2v5.1c0,0.1,0,0.1,0.1,0.2
		c0.1,0.1,0.1,0.1,0.2,0.1c0.1,0,0.2,0,0.2-0.1c0.1-0.1,0.1-0.1,0.1-0.2v-1.9l0.7-0.7l2.2,2.7c0.1,0.1,0.1,0.1,0.3,0.1
		c0.1,0,0.1,0,0.2-0.1c0,0,0.1-0.1,0.1-0.2c0-0.1,0-0.1-0.1-0.2l-2.2-2.8l2.2-2C332.6,107.9,332.6,107.9,332.6,107.8"/>
	<path class="st1" d="M338.8,112.7h-3.1v-4.9c0-0.1,0-0.1-0.1-0.2c-0.1-0.1-0.1-0.1-0.2-0.1c-0.1,0-0.2,0-0.2,0.1
		c-0.1,0.1-0.1,0.1-0.1,0.2v5.1c0,0.1,0,0.1,0.1,0.2c0.1,0,0.1,0.1,0.2,0.1h3.4c0.1,0,0.2,0,0.2-0.1c0.1,0,0.1-0.1,0.1-0.2
		c0-0.1,0-0.1-0.1-0.2C338.9,112.7,338.9,112.7,338.8,112.7"/>
	<path class="st1" d="M343.7,107.7c-0.1-0.1-0.2-0.2-0.3-0.2c-0.1,0-0.2,0.1-0.3,0.2l-2.3,5.1c0,0.1,0,0.2,0,0.3
		c0,0.1,0.1,0.1,0.3,0.1c0.1,0,0.1,0,0.2,0c0,0,0.1-0.1,0.1-0.1l0.5-1.2h3.1l0.5,1.2c0,0.1,0.1,0.1,0.1,0.1s0.1,0,0.2,0
		c0.1,0,0.2,0,0.3-0.1s0.1-0.2,0-0.3L343.7,107.7z M342.1,111.4l1.3-2.9l1.3,2.9H342.1z"/>
	<path class="st1" d="M354.2,107.5c-0.1,0-0.2,0-0.3,0.1l-2.5,4.6l-2.5-4.6c-0.1-0.1-0.1-0.1-0.3-0.1c-0.1,0-0.2,0-0.2,0.1
		s-0.1,0.1-0.1,0.2v5.1c0,0.1,0,0.1,0.1,0.2s0.1,0.1,0.2,0.1c0.1,0,0.2,0,0.2-0.1c0.1-0.1,0.1-0.1,0.1-0.2v-4.1l2.2,4
		c0.1,0.1,0.1,0.2,0.3,0.2c0.1,0,0.2,0,0.3-0.1l2.2-4.1v4.1c0,0.1,0,0.1,0.1,0.2s0.1,0.1,0.2,0.1c0.1,0,0.2,0,0.2-0.1
		c0.1-0.1,0.1-0.1,0.1-0.2v-5.1c0-0.1,0-0.1-0.1-0.2C354.3,107.6,354.2,107.5,354.2,107.5"/>
	<path class="st1" d="M361.4,107.5c-0.1,0-0.1,0-0.2,0c0,0-0.1,0.1-0.1,0.1l-2,2.9l-2-2.9c0,0-0.1-0.1-0.1-0.1c0,0-0.1,0-0.2,0
		c-0.1,0-0.1,0-0.2,0.1c0,0-0.1,0.1-0.1,0.2c0,0.1,0,0.1,0.1,0.2l2.2,3.1v1.8c0,0.1,0,0.1,0.1,0.2s0.1,0.1,0.2,0.1
		c0.1,0,0.2,0,0.2-0.1c0.1-0.1,0.1-0.1,0.1-0.2v-1.8l2.2-3.1c0.1-0.1,0.1-0.1,0.1-0.2c0-0.1,0-0.1-0.1-0.2
		C361.5,107.5,361.5,107.5,361.4,107.5"/>
	<path class="st1" d="M372.4,110.2h-6.3c-0.1,0-0.2,0.1-0.2,0.2s0.1,0.2,0.2,0.2h6.3c0.1,0,0.2-0.1,0.2-0.2S372.4,110.2,372.4,110.2
		"/>
	<path class="st1" d="M267.2,110.2h-6.3c-0.1,0-0.2,0.1-0.2,0.2s0.1,0.2,0.2,0.2h6.3c0.1,0,0.2-0.1,0.2-0.2S267.3,110.2,267.2,110.2
		"/>
</g>
<g>
	<path class="st1" d="M689.5,198.7c-6.7-6-10.6-14.5-10.5-23.5c0-0.2,0-0.4,0-0.6c0-51.6-41.8-93.4-93.4-93.4
		c-51.6,0-93.4,41.8-93.4,93.4c0,0.2,0,0.4,0,0.6c0.1,9-3.8,17.5-10.5,23.5c-32.1,28.6-52.3,70.3-52.3,116.7
		c0,37.9,13.5,72.7,36,99.8h240.5c22.5-27.1,36-61.8,36-99.8C741.8,269,721.6,227.3,689.5,198.7z"/>
	<path class="st1" d="M469.5,181.9c-2.7,8.6-7.2,17.9-15.8,20.7c-9.7,3.2-20.5-3.8-24.9-13.1c-4.4-9.3-4-20-3.1-30.2
		c0.7-8.5,1.7-17.1,5.4-24.8c7.5-15.8,28.9-22.8,40.3-6.4C480.5,141.2,473.7,168.3,469.5,181.9z"/>
	<path class="st1" d="M470.9,108.6c4.5,2,9.8,3.2,14.2,1.2c4.5-2,7.3-6.8,8-11.7c2-15.4-15.3-27.1-29.3-21.1
		C447.7,83.7,459.9,103.6,470.9,108.6z"/>
	<path class="st1" d="M693.4,129.2c2.2,7.2,1.4,14.9,0.5,22.3c-0.9,7.4-1.8,15.1,0.3,22.3s8,13.8,15.5,14.3
		c5.9,0.4,11.5-3.1,15.1-7.9c3.5-4.7,5.3-10.5,6.6-16.3c3.5-15.5,4.1-32.2-1.8-47c-5.1-13-19.7-31-35.7-27.6
		C672.2,93.9,690,118.1,693.4,129.2z"/>
	<path class="st2" d="M668,177.5c-4.7,12.4-3.9,26.8,2,38.6c1.2-1.1,2.5-2.3,3.7-3.6C669.5,205.1,666.9,194.2,668,177.5z"/>
	<g>
		<path class="st3" d="M678,203.8c1.7-1.9,2.5-4.5,2.2-7c-1.4,0.2-2.9,0.7-4,1.7c0.8-1.6,1.1-3.5,0.9-5.3c-1.3,0.6-2.2,1.7-2.6,3
			c-1.3-4.2-3.7-8-6.8-11c0.1,12.4,2.4,21.1,6,27.4c2.8-2.8,5.8-5.8,8.6-8.5C680.9,203.7,679.5,203.7,678,203.8z"/>
		<path class="st4" d="M668,177.5c-0.2,2.7-0.2,5.2-0.2,7.6c3.2,3,5.5,6.8,6.8,11c0.4-1.3,1.3-2.4,2.6-3c0.2,1.8-0.1,3.7-0.9,5.3
			c1-1,2.5-1.5,4-1.7c0.3,2.5-0.5,5.1-2.2,7c1.4-0.1,2.9,0,4.3,0.3c1.1-1.1,2.3-2.2,3.4-3.2C681.1,192.3,674.7,184.6,668,177.5z"/>
	</g>
	<g>
		<path class="st3" d="M712.3,198.4c-0.6-1-1.7-1.7-2.8-1.9c1,0,2.1-0.4,2.9-1.1c-0.7-0.5-1.6-0.9-2.5-0.8c0.8-3.7,0.8-7.5,0.1-11.2
			c-3.6,5.2-6.5,11.4-8.1,18c2.6,0.9,5.1,2.1,7.3,3.4c-0.3-1.5-0.8-3-1.4-4.3C709.4,200.4,711.1,199.6,712.3,198.4z"/>
		<path class="st4" d="M713.5,178.8c-1.2,1.4-2.4,3-3.5,4.6c0.7,3.7,0.7,7.5-0.1,11.2c0.9-0.1,1.8,0.3,2.5,0.8
			c-0.8,0.7-1.9,1-2.9,1.1c1.1,0.2,2.2,0.9,2.8,1.9c-1.2,1.2-2.8,2-4.6,2.1c0.6,1.3,1.1,2.8,1.4,4.3c1.1,0.6,2.1,1.3,3,2
			C714.5,197.8,714.7,188.1,713.5,178.8z"/>
	</g>
	<path class="st2" d="M693.5,199.6c2.7,0.1,5.5,0.8,8.4,1.8c2.2-8.6,6.4-16.5,11.7-22.5C704.9,183.4,697.8,190.8,693.5,199.6z"/>
	<path class="st2" d="M710.3,277.3l-2.9-20.5h22.1c4.4,0,8.3-2.6,10.1-6.5l3.6-8.1c1.4-3.1,0.2-6.8-2.8-8.5l-13.3-7.5
		c-2.7-1.5-4.9-3.8-6.4-6.6l-7.2-14.2c-2.7-5.2-8-8.5-13.9-8.5h-8.3c-5.5,0-10.8,2.1-14.9,5.8l-4,3.7c-3.8,3.5-6.3,8.3-6.9,13.5
		l-2.3,19.2c-1.7,14.3-9.1,27.3-20.4,36.1l-2.7,2.1L710.3,277.3L710.3,277.3L710.3,277.3z"/>
	<path class="st5" d="M692.4,260.1h-6.8c-5.6,0-10.8,3.1-13.5,8.1c-1.1,2-2.7,3.8-4.5,5.2l-5.5,4h46.2l-0.8-4.5
		C706.3,265.5,699.9,260.1,692.4,260.1z"/>
	<path class="st6" d="M684.2,242.1c0.6,7.5,4.4,14.7,10.1,19.6c4.1,3.5,9.3,5.8,14.7,6.6l-1.6-11.5h13l-0.9-3L684.2,242.1z"/>
	<path class="st7" d="M740.4,233.7l-13.3-7.5c-2.7-1.5-4.9-3.8-6.4-6.6l-7.2-14.2c-2.7-5.2-8-8.5-13.9-8.5h-8.3c-0.7,0-1.3,0-2,0.1
		c1.9,0.2,3.7,0.6,5.4,1.4l0.6,0.2c4.2,1.8,7.6,5,9.5,9.2l4.8,10.2c0.8,1.8,1,3.8,0.4,5.7l-0.7,2.2c-0.9,2.9-3.5,5-6.6,5.3l-9.1,0.9
		c-4.7,0.5-8.6,3.9-9.6,8.5c-1,4.5,1,9.2,5,11.6l1.2,0.7c4.2,2.6,9.1,3.9,14,3.9h3.1h22.1c4.4,0,8.3-2.6,10.1-6.5l3.6-8.1
		C744.5,239.1,743.3,235.4,740.4,233.7z"/>
	<circle class="st3" cx="697.2" cy="217.7" r="2.5"/>
	<path class="st3" d="M690.4,206.9c-0.5,0.4-1.1,0.9-1.3,1.5c-0.2,0.6-0.1,1.4,0.4,1.8c0.5,0.4,1.2,0.3,1.8,0.3
		c1.9-0.2,3.8-0.4,5.7-0.6c2.2-0.2,2-2.4,0.7-3.7c-1-1.1-2.7-0.9-4-0.6C692.5,205.8,691.4,206.2,690.4,206.9z"/>
	<path class="st8" d="M732.1,242.9c0,0.3,0,0.6-0.1,0.9c0.1,0,0.1,0,0.2,0C732.1,243.5,732.1,243.2,732.1,242.9z"/>
	<path class="st2" d="M732.2,243.8c-0.1,0-0.1,0-0.2,0c-0.4,2-2.2,3.4-4.2,3.4h-1.1c1.7,2.9,2.4,6.4,2,9.7c-0.3,2.2-1,4.2-1.2,6.4
		c-0.2,2.2,0.3,4.6,2,5.9c1.6,1.3,3.9,1.3,5.7,0.4c1.8-0.9,3.1-2.6,3.8-4.5s0.8-3.9,0.8-6c-0.1-4.1-1-8.3-2.7-12.1
		c-0.2,0-0.5,0.1-0.7,0.1C734.3,247.2,732.6,245.7,732.2,243.8z"/>
	<path class="st3" d="M736.4,247.9c-1.8,0-3.4-1-4.3-2.5c-0.9,1.5-2.5,2.5-4.3,2.5h-2.6c-2.7,0-5.3-0.5-7.8-1.4l-6.9-2.6
		c-0.4-0.1-0.6-0.5-0.4-0.9c0.1-0.4,0.5-0.6,0.9-0.4l6.9,2.6c2.3,0.9,4.8,1.3,7.3,1.3h2.6c2,0,3.6-1.6,3.6-3.6v-3.5h1.4v3.5
		c0,2,1.6,3.6,3.6,3.6c1.4,0,2.7-0.9,3.2-2.2l0.8-2.1c0.2-0.4,0.6-0.5,0.9-0.4c0.4,0.2,0.5,0.6,0.4,0.9l-0.8,2.1
		C740.2,246.7,738.4,247.9,736.4,247.9z"/>
	<path class="st3" d="M737.7,235c-4.2-0.6-8.5-0.7-12.7-0.1c-1.5,0.2-2.1,2-1,3.1c1.2,1.2,2.5,2.2,3.8,3.2c3.1,2.2,7.4,1.6,9.8-1.4
		c0.5-0.6,1-1.2,1.4-1.9C739.7,236.8,739,235.2,737.7,235z"/>
	<path class="st2" d="M682.3,275.9c1.5-1.9,3.7-3,6.1-3.6c1.6-0.4,3.3-0.5,4.9-0.4c-3.1-2.7-7.2-4.4-11.2-4
		c-4.8,0.4-9.8,4.6-10.4,9.4h7.9c0.1,1.4,0.5,2.6,1.2,3.7C680.6,279.2,681.2,277.4,682.3,275.9z"/>
	<path class="st7" d="M695,273.6c-0.5-0.6-1.1-1.1-1.7-1.6c-1.6-0.1-3.3,0-4.9,0.4c-2.3,0.5-4.6,1.7-6.1,3.6
		c-1.1,1.4-1.7,3.3-1.6,5.1c0.8,1.4,1.9,2.5,3.3,3.5c2.5,1.7,5.8,2.3,8.8,1.5c2.2-0.6,4.2-2,5-4.2
		C698.7,278.9,697.1,275.8,695,273.6z"/>
	<path class="st7" d="M709.7,272.1c-1.2,0.1-2.4,0.3-3.5,0.8c-0.1,0.3-0.2,0.6-0.2,0.9c-0.3,1.3-0.3,2.7-0.1,4c0.5,2.6,2.2,5,4.6,6
		c2.4,1,5.5,0.5,7.2-1.5c0.8-0.9,1.3-2.2,1.6-3.4c0.2-1.1,0.2-2.3,0-3.4C716.7,273.1,713.2,271.9,709.7,272.1z"/>
	<path class="st2" d="M713.9,269.2c-1.9-0.5-3.9-0.1-5.7,0.7c-1.1,0.5-1.7,1.8-2,3c1.1-0.5,2.3-0.7,3.5-0.8c3.5-0.2,6.9,1.1,9.6,3.3
		c-0.2-0.9-0.4-1.7-0.8-2.4C717.5,271.1,715.8,269.7,713.9,269.2z"/>
	<path class="st3" d="M701.8,231.8c3.9-1.5,8.2-3.8,12.6-4.9c4.3-1.1,8.9-1,12.8,0.5c-1-1.8-3-3.5-5.5-4.4c-2.5-0.9-5.5-1-8.3-0.3
		c-2.7,0.7-5.2,2.1-7.2,3.7C704.2,228.1,702.8,229.9,701.8,231.8z"/>
	<rect x="460.3" y="277.3" class="st9" width="127.3" height="137.8"/>
	<polygon class="st6" points="587.6,277.3 460.3,277.3 460.3,322.8 569.8,322.8 	"/>
	<polygon class="st9" points="460.3,277.3 587.6,277.3 566,311.2 438.6,311.2 	"/>
	<rect x="587.6" y="277.3" class="st10" width="127.3" height="137.8"/>
	<polygon class="st6" points="587.6,277.3 715,277.3 715,322.8 605.4,322.8 	"/>
	<polygon class="st10" points="715,277.3 587.6,277.3 609.3,311.2 736.6,311.2 	"/>
	<path class="st11" d="M668.1,405.3c2.3-7.8-2.4-17.1-12.3-23.5l-4.7-3c-14-9.1-32.3-11.4-44.9-5.9l-10.5,4.6l-3.3-4
		c-1.4-1.7-3.1-3.1-5-4.3c-4.9-9.5-17-18.5-17-18.5c-1.9,5.3-1.4,11.9-0.9,15.5l-9,0.2l-8.9,0.2c-2.4-3.5-7.3-9.9-13.4-14.9
		c0,0-4.2,9.3-1.2,18.7c-0.9,1.2-1.3,2.7-1.3,4.3l0.3,9.9c-4.3-0.2-8.3,0.1-11.3,0.5c3.1,0,7.1,0,11.3,0.2l0,0.3
		c0.1,1.7,0.8,3.5,1.9,5.1c-3.9,0.5-7.4,1.3-10,2.1c3-0.4,6.6-1,10.5-1.4c1.4,1.8,3.4,3.4,5.7,4.5c-3.6,1.4-6.8,3-9.1,4.4
		c2.8-1.1,6.4-2.5,10.1-3.9c1.5,0.7,3.1,1.2,4.7,1.5l-0.3,0.8c-2.2,5.4,2.1,12.5,10.1,16.6l0,0l91,0c3.3,0.5,6.5,0.9,9.7,0.8
		c3.7-0.1,7.3-0.8,9.4-2.7C672.1,411.6,670.5,407.7,668.1,405.3z"/>
	<path class="st12" d="M622.7,370.3l19.3-8.8c13.6-6.2,29.7-3,39.9,8l3.4,3.7c7.3,7.8,9.2,19.2,4.9,28.9l-5.7,13H578.4l0,0
		c-6.5-5.7-7.7-15.3-2.8-22.4l2.8-4.1L622.7,370.3z"/>
	<g>
		<path class="st2" d="M671.5,369.7c2.1,0,4.1-0.9,5.5-2.4c0.4-0.4,0.7-0.8,1-1.2c-3.7-3-8-5.1-12.4-6.3c0.2,2.3-0.2,4.8,0.8,6.9
			C667.4,368.5,669.4,369.7,671.5,369.7z"/>
		<path class="st2" d="M683.3,385.6c1.3,4.2,4.8,7.6,9,9c0.9-7.6-1.5-15.4-6.8-21.3C682.9,376.8,682,381.5,683.3,385.6z"/>
		<path class="st2" d="M649.6,372.3c0.5,0.9,1.3,1.7,2.3,1.9c1.2,0.2,2.4-0.4,3.1-1.2c0.8-0.9,1.2-2,1.5-3.2c1-3.7,0.9-7.6-0.2-11.3
			c-4.2,0-8.5,0.8-12.6,2.3c2,2.6,3.6,5.5,4.6,8.6C648.8,370.4,649.1,371.4,649.6,372.3z"/>
		<path class="st2" d="M635.8,384.6c0.6,1.4,1.4,3,2.9,3.2c0.9,0.1,1.8-0.4,2.3-1.2c0.5-0.7,0.8-1.6,1-2.5
			c1.7-7.1-0.2-14.8-4.7-20.5l-13.3,6C629.2,373.6,633.2,378.8,635.8,384.6z"/>
		<path class="st2" d="M679.7,384.6c-0.4-1.9-1.4-4.8-3.9-4.5c-1.6,0.2-2.1,2-2.3,3.3c-0.8,4.5,0.4,9.6,2.8,13.4
			c0.5,0.7,1,1.5,1.8,1.9s1.7,0.6,2.5,0.2c0.8-0.4,1.2-1.2,1.3-2.1c0.1-0.8-0.1-1.7-0.2-2.5C681,391.2,680.4,387.9,679.7,384.6z"/>
	</g>
	<path class="st13" d="M610.8,407.3l9-0.9c-2.7-2.6-4.7-6.2-5.3-9.9c-0.9,3-0.7,6.2,0.8,9c-8.8-2.3-18.3-1.1-26,3.7
		c-2.7-2.4-5.3-5.7-6.9-8.9c-0.2,5.6,2.3,11.2,6.4,14.9h14.7l0.5-1.9C604.7,410,607.5,407.6,610.8,407.3z"/>
	<path class="st13" d="M643,407.5c1.5-1.5,3.7-2.1,5.9-2.2c2.1-0.1,4.2-0.1,6.2,0.4c-3.2-5.7-3.3-13-0.4-18.9c3-5.9,9.5-10.2,16-11
		c-7.2-1.2-15,1.8-19.6,7.6c-4.6,5.8-5.5,13.4-2.7,20.2c-4.5-1.5-9.7,0.5-12.8,4.1c-2.1-4.8-5.6-8.9-9.8-12
		c2.1,3.9,4.3,7.7,6.4,11.6c0.8,1.4,1.6,3,1.5,4.6c-0.1,1.2-0.7,2.4-1.5,3.3h9.3c-0.4-0.8-0.6-1.7-0.7-2.6
		C640.9,410.7,641.7,408.8,643,407.5z"/>
	<path class="st13" d="M579.5,388.5c4.8,5.1,11.7,8.1,18.6,8.2c7,0,13.9-2.9,18.8-7.9C604.9,388.7,591.5,388.6,579.5,388.5z"/>
	<path class="st1" d="M575.5,358.6c0.4-11.9,9.4-23.8,9.4-23.8c5.6,8.7,7.4,21,7.4,21L575.5,358.6z"/>
	<path class="st2" d="M579.1,354.8c1-5.3,3.6-10.4,5.6-13.9c2.1,4.5,3.3,9.3,3.9,12.3L579.1,354.8z"/>
	<path class="st1" d="M625.6,358.6c-0.4-11.9-9.4-23.8-9.4-23.8c-5.6,8.7-7.4,21-7.4,21L625.6,358.6z"/>
	<path class="st2" d="M622,354.8c-1-5.3-3.6-10.4-5.6-13.9c-2.1,4.5-3.3,9.3-3.9,12.3L622,354.8z"/>
	<path class="st1" d="M621.7,392.2h-42.2c-8.6,0-14.6-8.5-11.8-16.6l4.7-13.6c1.9-5.5,7.2-9.3,13-9.3h15.1h15.1
		c5.9,0,11.1,3.7,13,9.3l4.7,13.6C636.3,383.7,630.3,392.2,621.7,392.2z"/>
	<path class="st2" d="M602.6,371.6h-9.3c-3.9,0-7.6,1.7-10.2,4.7l-1.4,1.6c-1.9,2.3-1.9,5.6,0,7.8l2.3,2.8c1.9,2.3,4.8,3.6,7.8,3.6
		h12.2c3,0,5.9-1.3,7.8-3.6l2.3-2.8c1.9-2.3,1.9-5.6,0-7.8l-1.4-1.6C610.3,373.3,606.5,371.6,602.6,371.6z"/>
	<path class="st3" d="M602.4,387.2c-0.1-0.1-2.5-2.2-4.4-3.4l-0.5-7.8c0-0.4-0.4-0.8-0.8-0.7c-0.4,0-0.8,0.4-0.7,0.8l0.5,7.7
		c-0.7,0.5-1.4,1-2.1,1.6c-0.8,0.6-1.6,1.2-2.4,1.8c-0.4,0.2-0.5,0.7-0.2,1.1c0.2,0.2,0.4,0.3,0.6,0.3c0.2,0,0.3,0,0.4-0.1
		c0.8-0.6,1.7-1.2,2.5-1.8c0.7-0.5,1.3-1,2-1.5c1.8,1.1,4.1,3.2,4.1,3.2c0.2,0.1,0.3,0.2,0.5,0.2c0.2,0,0.4-0.1,0.6-0.3
		C602.8,388,602.7,387.5,602.4,387.2z"/>
	<path class="st3" d="M602.9,370.7c-3.7-0.6-7.5-0.5-11.1,0.2c-1,0.2-1.5,1.4-0.8,2.2c1,1.2,2.2,2.2,3.5,3c1.3,0.9,3.1,0.8,4.4-0.1
		c1.5-1.1,3.1-2.2,4.6-3.3C604.3,372.2,604,370.8,602.9,370.7z"/>
	<path class="st14" d="M555.7,384.8c4.1-0.6,9.5-1.5,15-2.1c5.4-0.6,10.9-1,15.1-1.3c-4.2-0.4-9.7-0.3-15.2,0.3
		C565.1,382.3,559.7,383.5,555.7,384.8z"/>
	<path class="st14" d="M556.2,374.7c4,0,9.3,0.2,14.5,0.8c5.2,0.6,10.4,1.6,14.3,2.4c-3.8-1.5-8.9-2.8-14.2-3.4
		C565.5,373.9,560.2,374.1,556.2,374.7z"/>
	<path class="st14" d="M559.6,394.7c3.6-1.4,8.3-3.4,13-5.2c4.7-1.8,9.5-3.5,13.1-4.8c-3.8,0.7-8.7,2.2-13.5,4
		C567.5,390.5,562.9,392.7,559.6,394.7z"/>
	<path class="st14" d="M637.5,384.8c-4.1-0.6-9.5-1.5-15-2.1c-5.4-0.6-10.9-1-15.1-1.3c4.2-0.4,9.7-0.3,15.2,0.3
		C628.1,382.3,633.5,383.5,637.5,384.8z"/>
	<path class="st14" d="M637.1,374.7c-4,0-9.3,0.2-14.5,0.8c-5.2,0.6-10.4,1.6-14.3,2.4c3.8-1.5,8.9-2.8,14.2-3.4
		C627.7,373.9,633.1,374.1,637.1,374.7z"/>
	<path class="st14" d="M633.7,394.7c-3.6-1.4-8.3-3.4-13-5.2c-4.7-1.8-9.5-3.5-13.1-4.8c3.8,0.7,8.7,2.2,13.5,4
		C625.8,390.5,630.3,392.7,633.7,394.7z"/>
	<path class="st3" d="M589,364.2c-1.1,0.9-2.5,1.6-3.9,1.6c-1.4,0-2.9-0.7-3.9-1.6c0.1,0.7,0.5,1.5,1.2,2.1c0.7,0.6,1.7,1,2.7,1
		c1,0,2-0.4,2.7-1C588.4,365.7,588.9,364.9,589,364.2z"/>
	<path class="st3" d="M606.3,364.2c1.1,0.9,2.5,1.6,3.9,1.6c1.4,0,2.9-0.7,3.9-1.6c-0.1,0.7-0.5,1.5-1.2,2.1c-0.7,0.6-1.7,1-2.7,1
		c-1,0-2-0.4-2.7-1C606.8,365.7,606.4,364.9,606.3,364.2z"/>
	<path class="st2" d="M599,361c1.6,0.2,2.9-1.2,3.8-2.6c1.1-1.8,2-3.7,2.7-5.7h-4.9h-6.3c0.4,1.9,1,3.8,1.9,5.5
		C596.8,359.5,597.6,360.8,599,361z"/>
	<path class="st3" d="M587.3,381.1c1.1,0,1.1-1.6,0-1.6S586.3,381.1,587.3,381.1L587.3,381.1z"/>
	<path class="st3" d="M589,384.8c1.1,0,1.1-1.6,0-1.6C588,383.2,588,384.8,589,384.8L589,384.8z"/>
	<path class="st3" d="M589.7,382.1c1.1,0,1.1-1.6,0-1.6C588.7,380.5,588.7,382.1,589.7,382.1L589.7,382.1z"/>
	<path class="st3" d="M592.2,382.7c1.1,0,1.1-1.6,0-1.6C591.1,381.1,591.1,382.7,592.2,382.7L592.2,382.7z"/>
	<path class="st3" d="M590.1,379.5c1.1,0,1.1-1.6,0-1.6C589.1,377.8,589.1,379.5,590.1,379.5L590.1,379.5z"/>
	<path class="st3" d="M606.8,381.1c-1.1,0-1.1-1.6,0-1.6C607.8,379.4,607.8,381.1,606.8,381.1L606.8,381.1z"/>
	<path class="st3" d="M605,384.8c-1.1,0-1.1-1.6,0-1.6C606.1,383.2,606.1,384.8,605,384.8L605,384.8z"/>
	<path class="st3" d="M604.3,382.1c-1.1,0-1.1-1.6,0-1.6S605.4,382.1,604.3,382.1L604.3,382.1z"/>
	<path class="st3" d="M601.9,382.7c-1.1,0-1.1-1.6,0-1.6C602.9,381.1,602.9,382.7,601.9,382.7L601.9,382.7z"/>
	<path class="st3" d="M603.9,379.5c-1.1,0-1.1-1.6,0-1.6C605,377.8,605,379.5,603.9,379.5L603.9,379.5z"/>
	<g>
		<path class="st1" d="M644.7,403.6c-0.2-2.3-1.2-4.5-2.8-6.1c-5.1-0.7-10.2-0.3-14.5,2.3c-2.7,1.6-5.1,4.5-4.4,7.6
			c0.7,3.2,4.4,4.8,7.7,4.5c3.2-0.2,6.2-1.7,9.4-2.4c1.1-0.2,2.2-0.4,3.4-0.5C644.4,407.3,644.8,405.5,644.7,403.6z"/>
		<path class="st2" d="M650.2,403.7c-0.2-1.7-0.9-3.4-2.1-4.7c-2-0.6-4.1-1.2-6.3-1.5c1.6,1.6,2.7,3.8,2.8,6.1
			c0.1,1.9-0.3,3.8-1.3,5.4c1.9-0.1,3.8,0,5.6,0.2C650,407.5,650.4,405.6,650.2,403.7z"/>
		<path class="st1" d="M654.7,401.4c-1.9-0.8-3.8-1.6-5.8-2.2c-0.2-0.1-0.5-0.2-0.7-0.2c1.1,1.3,1.9,3,2.1,4.7
			c0.2,1.9-0.2,3.9-1.1,5.5c1.6,0.2,3.2,0.5,4.8,0.9c1-1.2,1.7-2.6,1.8-4.1C655.9,404.4,655.5,402.8,654.7,401.4z"/>
		<path class="st2" d="M662.8,404.7c-2.7-1-5.4-2.2-8.1-3.3c0.8,1.4,1.2,3,1,4.6c-0.2,1.5-0.8,3-1.8,4.1c2.1,0.5,4.1,1.1,6.1,1.8
			c0.5,0.2,1,0.3,1.6,0.5c0.8-0.9,1.3-2.1,1.6-3.3C663.5,407.7,663.3,406.1,662.8,404.7z"/>
		<path class="st1" d="M690.2,402.1c-5.1,5.4-13.3,6.4-20.5,4.8c-2.4-0.5-4.7-1.3-6.9-2.2c0.6,1.4,0.7,3,0.4,4.4
			c-0.2,1.2-0.8,2.3-1.6,3.3c5.9,2,12,4,18.2,3.7c3.5-0.1,7.2-1.1,9.8-3.5C692.2,410.3,691.8,405.3,690.2,402.1z"/>
	</g>
	<g>
		<path class="st15" d="M559.3,236.7l-0.6,0.5c-12.8,10.3-22,24.3-26.4,40.1l0,0h107.7l-6.5-27.2L559.3,236.7z"/>
		<path class="st14" d="M557.1,238.6l7.8,11.3c5.4,7.9,14.2,12.8,23.8,13.3l20.4,1.1c9.5,0.5,18.8-3.1,25.6-9.8l0,0l-1-4.2
			l-74.2-13.5L557.1,238.6z"/>
	</g>
	<path class="st14" d="M645.2,270.5c-3.4-2.4-8.1-2.4-11.8-0.5c-2.1,1.1-3.9,2.9-5.2,5c0.5-2.6,1.5-5.1,3.3-7.1
		c2.8-3,7.3-4.3,11.3-3.1c3.9,1.2,7,4.9,7.3,9c0.1,1.5-0.1,3-0.6,4.4C649.2,275.2,647.6,272.2,645.2,270.5z"/>
	<path class="st3" d="M633.4,270.1c3.7-2,8.3-1.9,11.8,0.5c2.4,1.7,4.1,4.7,4.3,7.7c-0.5,1.5-1.3,2.9-2.2,4.1
		c-1.8,2.5-4.1,4.6-6.4,6.6l-4.1-9l-7.1,9c-1-3.5-1.9-7.2-1.8-10.8c0-1,0.1-2.1,0.3-3.1C629.5,273,631.3,271.2,633.4,270.1z"/>
	<path class="st14" d="M561.8,276.4c4.3-1.7,9.3-3.9,14.4-5.8c5.1-1.9,10.3-3.4,14.7-4.9c-2.2-0.9-4.8-1.4-7.7-1.3
		c-2.8,0-5.9,0.6-8.7,1.6c-2.8,1-5.5,2.6-7.7,4.4C564.6,272.3,562.9,274.3,561.8,276.4z"/>
	<path class="st14" d="M580.6,270.5c3.4-2.4,8.1-2.4,11.8-0.5c2.1,1.1,3.9,2.9,5.2,5c-0.5-2.6-1.5-5.1-3.3-7.1
		c-2.8-3-7.3-4.3-11.3-3.1c-3.9,1.2-7,4.9-7.3,9c-0.1,1.5,0.1,3,0.6,4.4C576.6,275.2,578.2,272.2,580.6,270.5z"/>
	<path class="st3" d="M592.4,270.1c-3.7-2-8.3-1.9-11.8,0.5c-2.4,1.7-4.1,4.7-4.3,7.7c0.5,1.5,1.3,2.9,2.2,4.1
		c1.8,2.5,4.1,4.6,6.4,6.6l4.1-9l7.1,9c1-3.5,1.9-7.2,1.8-10.8c0-1-0.1-2.1-0.3-3.1C596.3,273,594.5,271.2,592.4,270.1z"/>
	<g>
		<path class="st14" d="M627.2,178.7l5.9-4.9c2.1-1.8,4.8-2.7,7.6-2.7h10.5c2,0,3.9,0.7,5.4,2l0.3,0.3l-18.5,19.2L627.2,178.7z"/>
		<path class="st14" d="M656.9,173.3l9.1,13.9c1.2,1.8-0.1,4.2-2.3,4.2h-3.6c-3.9,0-7.8-1.1-11.1-3.2l-4.1-2.5L656.9,173.3z"/>
		<polygon class="st16" points="656.9,173.3 649.1,188.2 645,185.7 		"/>
	</g>
	<g>
		<g>
			<path class="st16" d="M568.4,167.1l-11.9,16.4l2.8,4.3c1.5-1.6,2.6-3.5,3.4-5.6L568.4,167.1z"/>
			<path class="st14" d="M581.2,176.3l-12.7-9.3l-5.6,15.1c-0.8,2.1-2,4-3.4,5.6l3.1,4.7L581.2,176.3z"/>
		</g>
		<path class="st14" d="M561.2,165.2l-10.1,1.3c-5.4,0.7-10.2,3.9-12.9,8.7l-7.8,13.7c-1.1,2,0.4,4.4,2.7,4.3l7.4-0.7
			c8.7-0.8,16.6-5.8,21-13.4l6.9-12l0,0C566.3,165.5,563.7,164.8,561.2,165.2z"/>
	</g>
	<path class="st15" d="M561.4,207.8l-1-3.9c-1.5-6.3-0.3-12.9,3.5-18.2l2.7-3.7c4.1-5.7,10.8-9,17.9-8.6l35.7,1.8
		c5.7,0.3,10.9,3.2,14.2,8l4.5,6.6c2.8,4.1,3.9,9.1,3,13.9l-2.3,13.3c-0.4,2.5-0.2,5.1,0.7,7.5l2.7,7.2c2.4,6.5,0.9,13.8-3.7,18.8
		l0,0c-4.9,5.3-11.9,8.2-19.1,7.9l-33.4-1.1c-8.6-0.3-16.8-4.1-22.6-10.5l-5.2-5.8c-5.1-5.6-5.9-13.9-2-20.3l3.4-5.6
		C561.7,212.9,562.1,210.3,561.4,207.8z"/>
	<path class="st14" d="M621.8,221.8c-5.9-2.7-10.3-8.4-11.4-14.8c-0.5,5.3,0.8,10.8,3.7,15.3L621.8,221.8z"/>
	<path class="st1" d="M619.5,246.7h-18.4c-6.2,0-11.3-5-11.3-11.3v-3.5c0-6.2,5-11.3,11.3-11.3h18.4c6.2,0,11.3,5,11.3,11.3v3.5
		C630.8,241.6,625.7,246.7,619.5,246.7z"/>
	<path class="st16" d="M603.1,226.3c-0.5,0-1,0.1-1.4,0.3c1.1,0.5,1.8,1.6,1.8,2.9v8.8c0,1.3-0.8,2.4-1.8,2.9
		c0.4,0.2,0.9,0.3,1.4,0.3c1.8,0,3.2-1.4,3.2-3.2v-8.8C606.3,227.7,604.9,226.3,603.1,226.3z"/>
	<path class="st3" d="M603.5,238.3v-8.8c0-1.3-0.8-2.4-1.8-2.9c-1.1,0.5-1.8,1.6-1.8,2.9v8.8c0,1.3,0.8,2.4,1.8,2.9
		C602.8,240.7,603.5,239.6,603.5,238.3z"/>
	<path class="st16" d="M620.1,226.3c-0.5,0-1,0.1-1.4,0.3c1.1,0.5,1.8,1.6,1.8,2.9v8.8c0,1.3-0.8,2.4-1.8,2.9
		c0.4,0.2,0.9,0.3,1.4,0.3c1.8,0,3.2-1.4,3.2-3.2v-8.8C623.3,227.7,621.8,226.3,620.1,226.3z"/>
	<path class="st3" d="M620.5,238.3v-8.8c0-1.3-0.8-2.4-1.8-2.9c-1.1,0.5-1.8,1.6-1.8,2.9v8.8c0,1.3,0.8,2.4,1.8,2.9
		C619.8,240.7,620.5,239.6,620.5,238.3z"/>
	<path class="st3" d="M590.7,208.1c0,2.1-1.7,3.8-3.8,3.8c-2.1,0-3.8-1.7-3.8-3.8c0-2.1,1.7-3.8,3.8-3.8
		C589,204.2,590.7,205.9,590.7,208.1z"/>
	<path class="st3" d="M629.5,208.1c0,2.1-1.7,3.8-3.8,3.8c-2.1,0-3.8-1.7-3.8-3.8c0-2.1,1.7-3.8,3.8-3.8
		C627.8,204.2,629.5,205.9,629.5,208.1z"/>
	<path class="st1" d="M587.8,193.3c0.8,0.2,1.7,0.4,2.5,0.3c0.9,0,1.7-0.3,2.3-0.9c0.8-0.8,0.8-2.2,0.3-3.2s-1.5-1.8-2.5-2.3
		c-2.9-1.5-6.7-1.5-9.6,0.1c-1.1,0.6-2,1.4-2.4,2.6c-0.5,1.7,0.5,3.3,2.2,3.3C583.2,193.1,585.4,192.8,587.8,193.3z"/>
	<path class="st1" d="M625.3,193.9c-0.8,0.2-1.7,0.4-2.5,0.3s-1.7-0.3-2.3-0.9c-0.8-0.8-0.8-2.2-0.3-3.2s1.5-1.8,2.5-2.3
		c2.9-1.5,6.7-1.5,9.6,0.1c1.1,0.6,2,1.4,2.4,2.6c0.5,1.7-0.5,3.3-2.2,3.3C629.9,193.8,627.7,193.5,625.3,193.9z"/>
	<ellipse transform="matrix(-0.866 -0.5 0.5 -0.866 963.4575 706.0267)" class="st17" cx="576.3" cy="223.9" rx="10.3" ry="7.1"/>
	<path class="st2" d="M535.7,253l2.8,4.4c4.8,7.3,10.5,14,17,19.9l0.1,0.1h-26.9L535.7,253z"/>
	<path class="st3" d="M440.9,270.8l-4,7.3c-2,3.6-4.7,6.8-7.9,9.4l-0.8,0.6c-1.7,1.3-0.6,4,1.5,3.8l14.2-1.2
		c5.3-0.4,10.4-2.6,14.4-6.1l1.9-1.7L440.9,270.8z"/>
	<path class="st1" d="M488.7,242l-1.8-2c-1.9-2-3.3-4.4-4.3-7c-1.6-4.2-1.9-8.7-0.9-13.1l2.3-10.3c0.9-3.8,3.1-7.2,6.3-9.5l2.5-1.8
		c1.6-1.1,1.2-3.6-0.7-4.1l0,0c-1.9-0.6-3.9-0.2-5.4,1l-3.5,2.9c-2.9,2.4-4.9,5.7-5.7,9.4l-2.3,11.2c-0.9,4.2-3.9,7.5-7.9,8.9
		l-13.9,4.7l-15,12.5c-2,1.6-3.4,3.9-4.1,6.3l-0.9,3.1c-0.8,2.8-0.5,5.9,0.7,8.6l5,10.9c1.7,3.8,5.3,6.3,9.4,6.8l4.9,0.5l2.1,3.4
		c1.7,2.7,4.4,4.8,7.5,5.6c2.9,0.8,6.1,0.6,8.8-0.6l37.3-16.6v-8.1c0-3.9,0.2-7.8,0.5-11.6l-10.9-4.1
		C494.9,247.4,491.5,245.1,488.7,242z"/>
	<path class="st2" d="M519.8,210.2c-1.1-5.5-4-10.4-8.2-14l-3.4-2.9c-6.3-5.3-15.2-6.3-22.6-2.5l-8.3,4.4c-4.4,2.3-7.5,6.6-8.3,11.5
		l-1.6,10c-0.5,2.9-2,5.6-4.3,7.4l-9.7,8l13.9-4.7c4-1.4,7-4.8,7.9-8.9l2.3-11.2c0.8-3.7,2.8-7,5.7-9.4l3.5-2.9
		c1.5-1.2,3.5-1.6,5.4-1l0,0c1.8,0.6,2.2,3,0.7,4.1l-2.5,1.8c-3.2,2.3-5.4,5.7-6.3,9.5l-2.3,10.3c-1,4.4-0.7,8.9,0.9,13.1
		c1,2.6,2.5,4.9,4.3,7l1.8,2c2.8,3.1,6.2,5.4,10.1,6.9l10.9,4.1c0.8-8.7,2.4-17.3,4.9-25.7L519.8,210.2z"/>
	<path class="st3" d="M495.6,218.6c0,2.4-1.5,4.4-3.3,4.4c-1.8,0-3.3-2-3.3-4.4c0-2.4,1.5-4.4,3.3-4.4
		C494.1,214.1,495.6,216.1,495.6,218.6z"/>
	<path class="st3" d="M473.6,215c0,2-0.9,3.7-1.9,3.7c-1.1,0-1.9-1.6-1.9-3.7c0-2,0.9-3.7,1.9-3.7
		C472.8,211.3,473.6,212.9,473.6,215z"/>
	<path class="st6" d="M513.1,233c-6.3,9.7-7,28.5-7,28.5l-8.1-0.4c-3.6-0.2-7,1.3-9.4,4l-1.8,2c-2.6,3-3.6,7-2.6,10.8l-11.5,6.6
		c-5.8,3.3-13,2.5-17.8-2.1l-1.5-1.4l2.1,3.4c1.7,2.7,4.4,4.8,7.5,5.6c2.9,0.8,6.1,0.6,8.8-0.6l37.3-16.6v-8.1
		c0-3.9,0.2-7.8,0.5-11.6C510.3,246.3,511.5,239.6,513.1,233L513.1,233z"/>
	<path class="st2" d="M511.7,265l-9.7-1.8c-2.9-0.5-5.9,0.2-8.2,2.1l-2.3,1.9c-2.7,2.2-4,5.6-3.6,9l0,0c0.5,4.1,4,7.1,8.1,7.1h16.5
		L511.7,265z"/>
	<path class="st3" d="M497.8,268.4l-1.6,2.6c-1.2,2-1.5,4.5-0.8,6.8l1.9,5.8H496l-2.6-4.6c-1.7-3-0.8-6.9,2-8.8L497.8,268.4z"/>
	<path class="st3" d="M506.2,268.4l-1.1,2.6c-0.9,2-1.1,4.5-0.5,6.8l1.3,5.8h-1l-1.8-4.6c-1.2-3-0.6-6.9,1.4-8.8L506.2,268.4z"/>
	<path class="st3" d="M519.8,210.2l-5.1,17.1c-3.6,12.1-5.5,24.7-5.5,37.3v7.2c0,9.7,1.5,19.3,4.4,28.5l0,0c1,3.2,5.2,4.1,7.4,1.6
		l4.8-5.3c7.6-8.4,11.5-19.5,10.7-30.8l-2.3-34.1c-0.3-5.1-2.5-9.8-6.1-13.3L519.8,210.2z"/>
	<path class="st3" d="M497.6,208.8c0.7,0.3,1.5,0.6,2.3,0.4c1.1-0.3,1.6-1.6,1.4-2.7c-0.2-1.1-1.1-2-2-2.5c-2-1.2-5.5-2-6.7,0.6
		C491.2,207.3,495.9,208.1,497.6,208.8z"/>
	<path class="st3" d="M475.8,203.8c0.6-0.1,1.3-0.3,1.8-0.7c0.7-0.7,0.5-1.8-0.1-2.4c-0.6-0.6-1.6-0.9-2.5-0.8
		c-1.9,0-4.8,1.1-4.7,3.4C470.5,205.6,474.2,204.1,475.8,203.8z"/>
	<path class="st3" d="M463.1,277.4l-12.1-5.3c-2.2-3.3-3.4-7.4-3.2-11.4c0-0.4-0.3-0.7-0.7-0.8c-0.4,0-0.7,0.3-0.8,0.7
		c-0.2,4.1,0.9,8.2,3.1,11.7l-3.9,1.9c-0.4,0.2-0.5,0.6-0.3,1c0.1,0.3,0.4,0.4,0.6,0.4c0.1,0,0.2,0,0.3-0.1l4.3-2.1l11.9,5.2
		c0.1,0,0.2,0.1,0.3,0.1c0.3,0,0.5-0.2,0.7-0.4C463.6,278,463.4,277.5,463.1,277.4z"/>
	<path class="st3" d="M460.3,253.9c-6.5-3.2-14.1-4.1-21.1-2.5c-1.4,0.3-2.2,1.8-1.7,3.1c1.2,3.4,3,6,4.8,7.9
		c2.3,2.6,6.1,3.3,9.3,1.9c3.5-1.6,6.8-3.7,9.2-5.3C462.5,257.7,462.3,254.9,460.3,253.9z"/>
	<path class="st18" d="M493.7,231.2c-1-1.9-2.7-3.9-4.7-5.5c-2.1-1.7-4.6-3-7.3-3.9c-2.7-0.9-5.5-1.3-8.2-1.2
		c-2.7,0.1-5.1,0.7-7.1,1.6c4.2,1.2,9.1,2.3,13.9,3.9C485,227.7,489.7,229.7,493.7,231.2z"/>
	<g>
		<path class="st2" d="M465,268.1c2.3,0,2.3-3.6,0-3.6C462.7,264.5,462.7,268.1,465,268.1L465,268.1z"/>
	</g>
	<g>
		<path class="st2" d="M461,274.3c2.3,0,2.3-3.6,0-3.6C458.7,270.7,458.7,274.3,461,274.3L461,274.3z"/>
	</g>
	<g>
		<path class="st2" d="M460.3,269.6c1.4,0,1.4-2.2,0-2.2C458.9,267.4,458.9,269.6,460.3,269.6L460.3,269.6z"/>
	</g>
	<g>
		<path class="st2" d="M465.5,272.6c1.4,0,1.4-2.2,0-2.2C464.1,270.5,464.1,272.6,465.5,272.6L465.5,272.6z"/>
	</g>
	<g>
		<path class="st2" d="M455.9,267.8c1.4,0,1.4-2.2,0-2.2C454.5,265.6,454.5,267.8,455.9,267.8L455.9,267.8z"/>
	</g>
	<g>
		<path class="st2" d="M440.5,263.9c0.8-0.2,0.3-2.3-0.5-2.1C439.1,262.1,439.6,264.2,440.5,263.9L440.5,263.9z"/>
	</g>
	<g>
		<path class="st19" d="M443.2,268.4c1.4-0.4,0.5-3.9-0.9-3.5C440.9,265.3,441.8,268.8,443.2,268.4L443.2,268.4z"/>
	</g>
	<g>
		<path class="st2" d="M439.8,270.2c1.4-0.4,0.5-3.9-0.9-3.5C437.5,267.1,438.4,270.5,439.8,270.2L439.8,270.2z"/>
	</g>
	<g>
		<path class="st2" d="M437.7,264.4c0.8-0.2,0.3-2.3-0.5-2.1C436.3,262.5,436.9,264.6,437.7,264.4L437.7,264.4z"/>
	</g>
	<g>
		<path class="st2" d="M442.5,271.5c0.8-0.2,0.3-2.3-0.5-2.1C441.1,269.6,441.6,271.8,442.5,271.5L442.5,271.5z"/>
	</g>
	<path class="st2" d="M455.2,254.1c0.5,0.2,1.1,0.4,1.4,0.8c0.4,0.4,0.5,1.1,0.2,1.5c-0.4,0.4-1,0.4-1.6,0.3
		c-2.3-0.3-4.6-0.6-6.9-0.9c-0.5-0.1-1.1-0.1-1.6-0.4c-1.2-0.6-1.4-2.5,0.1-2.8c1.6-0.4,3.6,0.1,5.2,0.5
		C453.1,253.3,454.2,253.7,455.2,254.1z"/>
	<path class="st2" d="M441,253c-0.4,0.4-0.5,1.1-0.2,1.6c0.3,0.5,0.9,0.8,1.4,0.7c0.6-0.1,1-0.5,1.2-1.1
		C443.8,252.6,442,251.9,441,253z"/>
	<path class="st20" d="M548.4,412H433.9c-0.9,0-1.6,0.7-1.6,1.6c0,0.9,0.7,1.6,1.6,1.6h114.5c0.9,0,1.6-0.7,1.6-1.6
		C550,412.7,549.3,412,548.4,412z"/>
	<polygon class="st2" points="533,391.8 449.4,391.8 436.5,412 545.9,412 	"/>
	<g>
		<polygon class="st1" points="523.9,391.8 513.8,391.8 520.8,412 534,412 		"/>
		<polygon class="st1" points="504.6,391.8 508.7,412 515,412 509.4,391.8 		"/>
	</g>
	<path class="st1" d="M455,391.8l1.3-1.3c1.8-1.8,4.3-2.9,6.9-2.9l0,0c2.6,0,5.1-1,6.9-2.9l1-1c1.8-1.8,4.3-2.9,6.9-2.9h1.8
		c2.6,0,5.1-1,6.9-2.9l0.2-0.2c1.8-1.8,4.3-2.9,6.9-2.9h5.1c2.4,0,4.7,1,6.4,2.7l4.1,4.1c1.7,1.7,4,2.7,6.4,2.7l0,0
		c2.4,0,4.7,0.9,6.4,2.6l4.7,4.7L455,391.8L455,391.8L455,391.8z"/>
	<g>
		<g>
			<path class="st2" d="M495,388.1c2.3,0,2.3-3.6,0-3.6S492.7,388.1,495,388.1L495,388.1z"/>
		</g>
		<g>
			<path class="st2" d="M499,385.4c1.4,0,1.4-2.2,0-2.2C497.6,383.3,497.6,385.4,499,385.4L499,385.4z"/>
		</g>
		<g>
			<path class="st2" d="M488.6,388.9c1.4,0,1.4-2.2,0-2.2C487.2,386.8,487.2,388.9,488.6,388.9L488.6,388.9z"/>
		</g>
		<g>
			<path class="st2" d="M476.7,386.3c1.4,0,1.4-2.2,0-2.2C475.3,384.1,475.3,386.3,476.7,386.3L476.7,386.3z"/>
		</g>
		<g>
			<path class="st2" d="M474.6,386.6c0.5,0,0.5-0.7,0-0.7S474.2,386.6,474.6,386.6L474.6,386.6z"/>
		</g>
		<g>
			<path class="st2" d="M506.4,388.2c1.4,0,1.4-2.2,0-2.2C505,386,505,388.2,506.4,388.2L506.4,388.2z"/>
		</g>
		<g>
			<path class="st2" d="M492.2,379.9c1.4,0,1.4-2.2,0-2.2C490.9,377.7,490.8,379.9,492.2,379.9L492.2,379.9z"/>
		</g>
		<g>
			<path class="st2" d="M499.5,382.1c2.3,0,2.3-3.6,0-3.6S497.1,382.1,499.5,382.1L499.5,382.1z"/>
		</g>
		<g>
			<path class="st2" d="M483,385.6c1.4,0,1.4-2.2,0-2.2C481.6,383.4,481.6,385.6,483,385.6L483,385.6z"/>
		</g>
		<g>
			<path class="st2" d="M470.8,389.4c1.4,0,1.4-2.2,0-2.2C469.5,387.2,469.5,389.4,470.8,389.4L470.8,389.4z"/>
		</g>
		<g>
			<path class="st2" d="M502.8,388c0.5,0,0.5-0.7,0-0.7C502.4,387.2,502.4,388,502.8,388L502.8,388z"/>
		</g>
		<g>
			<path class="st2" d="M512,389.3c0.5,0,0.5-0.7,0-0.7C511.5,388.6,511.5,389.3,512,389.3L512,389.3z"/>
		</g>
		<g>
			<path class="st2" d="M509.3,384.4c0.5,0,0.5-0.7,0-0.7C508.9,383.6,508.9,384.4,509.3,384.4L509.3,384.4z"/>
		</g>
		<g>
			<path class="st2" d="M505.5,383.4c0.5,0,0.5-0.7,0-0.7C505,382.7,505,383.4,505.5,383.4L505.5,383.4z"/>
		</g>
		<g>
			<path class="st2" d="M485,389.9c0.5,0,0.5-0.7,0-0.7C484.6,389.2,484.6,389.9,485,389.9L485,389.9z"/>
		</g>
		<g>
			<path class="st2" d="M488.5,385.1c0.5,0,0.5-0.7,0-0.7C488.1,384.4,488.1,385.1,488.5,385.1L488.5,385.1z"/>
		</g>
	</g>
	<path class="st21" d="M758.1,417.3H413c-0.6,0-1.1-0.5-1.1-1.1l0,0c0-0.6,0.5-1.1,1.1-1.1h345.1c0.6,0,1.1,0.5,1.1,1.1l0,0
		C759.2,416.8,758.7,417.3,758.1,417.3z"/>
</g>
</svg>
