<?xml version="1.0" encoding="utf-8"?>
<!-- Generator: Adobe Illustrator 25.2.1, SVG Export Plug-In . SVG Version: 6.00 Build 0)  -->
<svg version="1.1" xmlns="http://www.w3.org/2000/svg" xmlns:xlink="http://www.w3.org/1999/xlink" x="0px" y="0px"
	 viewBox="0 0 500 350" style="enable-background:new 0 0 500 350;" xml:space="preserve">
<style type="text/css">
	.st0{fill:#FFFFFF;}
	.st1{fill:#404040;}
	.st2{fill:#43B38F;}
	.st3{fill:#FFC8AF;}
	.st4{fill:#FCC812;}
	.st5{fill:#BD884C;}
	.st6{fill:#E5A288;}
	.st7{fill:#F08879;}
	.st8{fill:#32866B;}
	.st9{fill:#F9FBFC;}
	.st10{fill:#FBD15B;}
	.st11{fill:#878CF0;}
	.st12{fill:#BEE1F4;}
	.st13{opacity:0.2;}
	.st14{fill:#D1D3D4;}
	.st15{fill:none;stroke:#404040;stroke-width:1.0834;stroke-miterlimit:10;}
	.st16{fill:#414042;}
	.st17{fill:#112B46;}
	.st18{fill:#EFA954;}
	.st19{fill:#EDBA3A;}
</style>
<g id="BACKGROUND_2">
</g>
<g id="OBJECTS">
	<g>
		<path class="st0" d="M487.9,265.1H12.1C5.5,265.1,0,259.6,0,253v-94.4c0-6.7,5.5-12.1,12.1-12.1h475.8c6.7,0,12.1,5.5,12.1,12.1
			V253C500,259.6,494.5,265.1,487.9,265.1z"/>
		<path class="st1" d="M247,319H58.4c-2.4,0-4.4-2-4.4-4.4v-0.7c0-2.4,2-4.4,4.4-4.4H247c2.4,0,4.4,2,4.4,4.4v0.7
			C251.4,317,249.4,319,247,319z"/>
		<path class="st1" d="M427.5,319H289c-3.3,0-6-2.7-6-6v-0.9c0-3.3,2.7-6,6-6h138.6c3.3,0,6,2.7,6,6v0.9
			C433.5,316.3,430.8,319,427.5,319z"/>
		<path class="st1" d="M383.4,328.9H155.8c-3.7,0-6.8-3.1-6.8-6.8v-1c0-3.7,3.1-6.8,6.8-6.8h227.5c3.7,0,6.8,3.1,6.8,6.8v1
			C390.2,325.9,387.1,328.9,383.4,328.9z"/>
		<g>
			<path class="st2" d="M172.8,29.1c-0.5,8.9-2,25.5-2,25.5l20.3,0L189.7,27l-7.4-3.8L172.8,29.1z"/>
			<path class="st3" d="M215.8,73.8c-1.8,2.3-16-6.8-21.8-11.1c-5.8-4.3-9.5-8.7-7.3-11.5c2.2-2.8,7.4-0.2,13,4.3
				C205.3,60,217.6,71.5,215.8,73.8z"/>
			<path class="st4" d="M193.2,51c3,1.5,6.5,4.5,6.5,4.5l-4.7,6.6l-2.5-9.4L193.2,51z"/>
			<path class="st3" d="M190.6,148.1c4,0.2,7.1-22.1,7.6-31.6c0.6-9.5-0.8-17.1-5.7-17.3c-4.9-0.2-6.8,7.3-7.1,16.8
				C185.4,125.5,186.6,147.9,190.6,148.1z"/>
			<path class="st3" d="M188.7,195.6c3.6,0.1,5.8-31.5,6.1-38.5c0.3-7.1,0-14.6-4-14.7c-4-0.2-4.8,7.3-5.1,14.4
				C185.5,163.8,185.2,195.5,188.7,195.6z"/>
			<path class="st3" d="M171.9,148.1c4,0.4,8.2-21.7,9.2-31.1c1.1-9.5,0.1-17.1-4.8-17.6c-4.9-0.4-7.2,6.9-7.9,16.4
				S167.9,147.7,171.9,148.1z"/>
			<path class="st3" d="M168.2,195.5c3.5,0.3,6.8-31.2,7.5-38.2c0.6-7,0.8-14.5-3.2-14.9c-4-0.4-5.2,7-5.9,14.1
				C165.9,163.5,164.6,195.2,168.2,195.5z"/>
			<path class="st3" d="M169.9,106.5h28.3c0,0-2.5-12.6-2.6-17.1c-0.1-3.7-1.6-15.6-1.6-15.6s3.4-5.1,3.4-7.8
				c0-4.1-6.9-15.1-6.9-15.1l-9.9-3.1l-6.7,1.6c-4.2,0.8-4.3,4.8-4.3,9.1c0,13,5.4,21.8,4.9,29.2
				C174.1,92.5,169.9,106.5,169.9,106.5z"/>
			<g>
				<path class="st3" d="M177.3,39.5v10.1c0,0,1.8,1.1,6.1,1.1c2.3,0,2.8-1.1,2.8-1.1v-3.2L177.3,39.5z"/>
				<path class="st3" d="M177.1,34.2c0,0.3,0,0.6,0.1,0.9c0,0.1,0,0.2,0,0.3c-0.2,5.1,0.3,9.1,6.1,11.1c1.1,0.1,4.8,0.9,6.2-0.6
					c1.6-1.8,2.9-6.5,2.9-8.1v-0.1c0-1.6-0.2-2-0.2-2.9c0-0.7,0.4-3,0.4-3.9c0-1.6-0.6-3.5-1.3-4.9c-1.3-2.6-3.6-4.2-7.2-4.2
					C175.8,21.7,176.9,28.7,177.1,34.2z"/>
				<path class="st2" d="M179.1,32.8c-0.7,1.8-3.7,6.9-3.7,6.9s-2.9-6.2-2.6-10.5c0.5-6.3,4.7-5.5,4.7-5.5c3-4,10.1-3.1,13.5,1.2
					c1.8,2.3,2.7,5.4,2.3,6.9c-0.2,0.7-1.1,2.7-1.1,2.7l0.2-1.6c-0.7-3.6-6.8-3.2-10.2-6.2C182.2,26.6,179.9,30.7,179.1,32.8z"/>
				<path class="st5" d="M180,30C180,30,180,29.9,180,30"/>
				<g>
					<path class="st3" d="M177.2,34.5c-0.7-0.2-2.2-0.7-1.9,1.6c0.5,3.9,2.8,3.7,2.8,3.7c-0.1-0.6-0.3-1.3-0.5-2.3
						c0.6-0.4,0.1-0.8,0-1.3c0-0.1-0.1-0.3-0.1-0.4C177.5,35.4,177.3,35,177.2,34.5z"/>
					<path class="st6" d="M177.4,35.9c0,0-0.7-0.7-1.3-0.4c-0.5,0.3-0.2,1.5,0.3,2.3c0.4,0.7,0.9,0.8,1,0.6c0.1-0.2-0.9-0.6-0.5-1
						c0.3-0.4,0.7-0.4,0.7-0.6C177.5,36.6,177.4,35.9,177.4,35.9z"/>
					<path class="st2" d="M179.1,32.2c-0.2,1.5-1.4,4.6-1.4,4.6L177,34L179.1,32.2z"/>
				</g>
				<path class="st6" d="M185.1,46.8c-1.7-0.2-4.5-1.2-5.9-2.7c0,0,0.3,1.5,1.8,2.3C182.5,47.1,185.1,46.8,185.1,46.8z"/>
			</g>
			<path class="st3" d="M186.2,194.2l-0.2,3.7c0,0.5,0.4,0.9,0.9,0.9h9.9c0.9,0,2.1-1.6,1.4-2.1c-1.7-1-4.6-2.5-6.3-3.2
				c-0.2-0.1-1.6-30.1-3.1-30.1C187.5,163.3,186.2,194.2,186.2,194.2z"/>
			<path class="st3" d="M165.9,194c0,0,0,0.2,0,0.5v3c0,0.3,1.7,1.7,2.4,2c2.5,1.1,6.3,0.4,6.5-0.5c0.2-0.9-2.4-3.9-2.4-4
				c-0.7-0.9-1.1-1.6-1.1-1.6s-1.3-30.1-2.8-30C167,163.4,165.9,194,165.9,194z"/>
			<path class="st7" d="M198.5,198.8h-12.1c-0.2,0-0.3-0.1-0.3-0.3v-1.9c2.4,0,8,0.1,8.4,0c0.4-0.1,1.5-1.3,1.7-1.6
				c1,0.5,2.4,1.3,3.1,1.9C200,197.5,199.5,198.8,198.5,198.8z"/>
			<path class="st7" d="M168.3,199.4c-0.7-0.3-2.4-1.7-2.4-2v-1.6l2.4,1.4c1.7-1.8,4.8-2.3,5.5-0.7l0,0c0.6,1,1.1,1.9,1,2.4
				C174.6,199.8,170.8,200.5,168.3,199.4z"/>
			<path class="st7" d="M199.3,146.3c0,0-0.4-28.6-0.9-38c-0.4-8.7-3.6-35.9-3.6-35.9c1.5-2,2.8-5,2.8-7c0-1-1.4-4.5-2.8-7.8
				c-0.4-1,0.1-4.9-1.6-6.6c-1.4-1.4-7.1-1.3-7.1-1.3c3.3,0.9,4.1,5.5,3.6,5.9c-0.5,0.4-6.8,0.3-8,0c-1.2-0.3-3.3-6-6.4-6.4
				c0,0-2.1-0.3-4.4,1.2c-2.3,1.4-3.2,5.5-3.2,5.5s8.5-0.2,8,4.8c0,0.1,0,0.2,0,0.4c-0.7,5.1-4.2,14.1-4.2,14.1s2.2,5.4,1.4,11.4
				c-1,7.3-11.2,59.9-11.2,59.9H199.3z"/>
			<path class="st4" d="M199.3,146.3c0,0-0.4-28.6-0.9-38c-0.4-8.7-3.6-35.9-3.6-35.9c1.5-2,2.8-5,2.8-7c0-1-1.4-4.5-2.8-7.8
				c-0.4-1,0.1-4.9-1.6-6.6c-1.4-1.4-7.1-1.3-7.1-1.3c3.3,0.9,4.1,5.5,3.6,5.9c-0.5,0.4-6.8,0.3-8,0c-1.2-0.3-3.3-6-6.4-6.4
				c0,0-2.1-0.3-4.4,1.2c-2.3,1.4-3.2,5.5-3.2,5.5s8.5-0.2,8,4.8c0,0.1,0,0.2,0,0.4c-0.7,5.1-4.2,14.1-4.2,14.1s2.2,5.4,1.4,11.4
				c-1,7.3-11.2,59.9-11.2,59.9H199.3z"/>
		</g>
		<path class="st2" d="M437.2,95.7c-0.5-8.7-3-17-7.2-24.5l7.1-4c-3.6-6.4-8.2-12.2-13.7-17.1l-5.4,6.1c-6.2-5.6-13.8-9.8-22.4-12.3
			l2.2-7.8l-0.1,0c-5.9-1.7-12-2.5-17.9-2.5c-1.3,0-2.6,0-3.8,0.1l0.5,8.1c-8.7,0.5-17,3-24.5,7.1l-4-7.1
			c-6.4,3.6-12.2,8.2-17.1,13.7l6.1,5.4c-5.6,6.2-9.9,13.8-12.3,22.3l-7.8-2.2l0,0.2c-1.7,5.9-2.5,12-2.5,17.9c0,1.3,0,2.5,0.1,3.8
			l8.1-0.5c0.5,8.7,3,17,7.1,24.5l-7.1,3.9c3.6,6.4,8.2,12.2,13.7,17.1l5.4-6.1c6.2,5.6,13.8,9.9,22.3,12.3l-2.2,7.8l0.2,0.1
			c5.9,1.7,12,2.5,17.9,2.5c1.3,0,2.6,0,3.9-0.1l-0.5-8.1c8.7-0.5,17-3,24.5-7.2l4,7.1c6.4-3.6,12.2-8.2,17.1-13.7l-6.1-5.4
			c5.5-6.3,9.8-13.8,12.3-22.4l7.8,2.2l0-0.1c1.7-5.9,2.5-12,2.5-17.9c0-1.3,0-2.6-0.1-3.9L437.2,95.7z M365.7,149.4L365.7,149.4
			l0.4-1.4L365.7,149.4z M413.3,108.5c-4.3,15.3-18.2,25.3-33.4,25.3c-3.1,0-6.3-0.4-9.5-1.3c-15.3-4.3-25.3-18.2-25.3-33.4
			c0-3.1,0.4-6.3,1.3-9.5c4.3-15.3,18.2-25.3,33.4-25.3c3.1,0,6.3,0.4,9.5,1.3c15.3,4.3,25.3,18.2,25.3,33.4
			C414.7,102.2,414.2,105.4,413.3,108.5z"/>
		<g>
			<g>
				<path class="st8" d="M381.2,110.2V276c0,8.9-7.2,16.1-16.1,16.1H128.3c-8.9,0-16.1-7.2-16.1-16.1V110.2
					c0-8.9,7.2-16.1,16.1-16.1h236.8C374,94.1,381.2,101.3,381.2,110.2z"/>
				<path class="st2" d="M365.1,293.3H128.3c-9.5,0-17.3-7.8-17.3-17.3V110.2c0-9.5,7.8-17.3,17.3-17.3h236.8
					c9.5,0,17.3,7.8,17.3,17.3V276C382.4,285.5,374.7,293.3,365.1,293.3z M128.3,95.3c-8.2,0-14.9,6.7-14.9,14.9V276
					c0,8.2,6.7,14.9,14.9,14.9h236.8c8.2,0,14.9-6.7,14.9-14.9V110.2c0-8.2-6.7-14.9-14.9-14.9H128.3z"/>
			</g>
			<g>
				<path class="st1" d="M132.3,232.4h128.1c3,0,5.4-2.4,5.4-5.4v-75.9c0-3-2.4-5.4-5.4-5.4H132.3c-3,0-5.4,2.4-5.4,5.4V227
					C127,230,129.4,232.4,132.3,232.4z"/>
				<g>
					<g>
						<rect x="249.4" y="154" class="st9" width="1.3" height="70.1"/>
					</g>
					<g>
						<rect x="231.5" y="154" class="st9" width="1.3" height="70.1"/>
					</g>
					<g>
						<rect x="213.6" y="154" class="st9" width="1.3" height="70.1"/>
					</g>
					<g>
						<rect x="195.7" y="154" class="st9" width="1.3" height="70.1"/>
					</g>
					<g>
						<rect x="177.8" y="154" class="st9" width="1.3" height="70.1"/>
					</g>
					<g>
						<rect x="142" y="154" class="st9" width="1.3" height="70.1"/>
					</g>
					<g>
						<rect x="159.9" y="154" class="st9" width="1.3" height="70.1"/>
					</g>
				</g>
				<g>
					<g>
						<path class="st2" d="M142.7,211.3c-0.3,0-0.7-0.1-0.9-0.4c-0.5-0.5-0.5-1.4,0-1.9l18.2-17.6l17.9-4.5l18.3-18.1l18.2,7.2
							l17.4-8.8l17.9-9.8c0.6-0.4,1.4-0.1,1.8,0.5c0.4,0.6,0.1,1.4-0.5,1.8l-17.9,9.8l-18.5,9.3l-17.7-7l-17.5,17.4l-17.9,4.5
							l-17.6,17.1C143.4,211.2,143,211.3,142.7,211.3z"/>
					</g>
					<g>
						<rect x="139.1" y="206.4" class="st4" width="7.1" height="7.1"/>
						<rect x="157" y="189.1" class="st4" width="7.1" height="7.1"/>
						<rect x="174.9" y="184.6" class="st4" width="7.1" height="7.1"/>
						<rect x="192.8" y="166.8" class="st4" width="7.1" height="7.1"/>
						<rect x="210.7" y="174" class="st4" width="7.1" height="7.1"/>
						<rect x="228.6" y="164.9" class="st4" width="7.1" height="7.1"/>
						<rect x="246.5" y="155.1" class="st4" width="7.1" height="7.1"/>
					</g>
				</g>
				<rect x="283" y="146.6" class="st1" width="88.8" height="5.3"/>
				<rect x="283" y="160" class="st1" width="88.8" height="5.3"/>
				<rect x="283" y="200.2" class="st1" width="88.8" height="5.3"/>
				<rect x="283" y="173.4" class="st1" width="88.8" height="5.3"/>
				<rect x="127" y="246.2" class="st1" width="244.8" height="5.3"/>
				<rect x="127" y="259.6" class="st1" width="244.8" height="5.3"/>
				<rect x="283" y="186.8" class="st1" width="88.8" height="5.3"/>
				<rect x="283" y="213.7" class="st1" width="88.8" height="5.3"/>
				<rect x="283" y="227.1" class="st1" width="53.2" height="5.3"/>
			</g>
			<path class="st2" d="M381.2,110.2v14.3h-269v-14.3c0-8.9,7.2-16.1,16.1-16.1h236.8C374,94.1,381.2,101.3,381.2,110.2z"/>
			<g>
				<path class="st9" d="M369.7,109.3c0,3.6-2.9,6.5-6.5,6.5c-3.6,0-6.5-2.9-6.5-6.5c0-3.6,2.9-6.5,6.5-6.5
					C366.8,102.8,369.7,105.7,369.7,109.3z"/>
				<path class="st4" d="M343.1,109.3c0,3.6-2.9,6.5-6.5,6.5c-3.6,0-6.5-2.9-6.5-6.5c0-3.6,2.9-6.5,6.5-6.5
					C340.2,102.8,343.1,105.7,343.1,109.3z"/>
				<path class="st1" d="M316.5,109.3c0,3.6-2.9,6.5-6.5,6.5c-3.6,0-6.5-2.9-6.5-6.5c0-3.6,2.9-6.5,6.5-6.5
					C313.6,102.8,316.5,105.7,316.5,109.3z"/>
			</g>
		</g>
		<g>
			<path class="st2" d="M472.9,219.9H408c-1.5,0-2.7-1.2-2.7-2.7v-38.4c0-1.5,1.2-2.7,2.7-2.7h64.9c1.5,0,2.7,1.2,2.7,2.7v38.4
				C475.6,218.6,474.4,219.9,472.9,219.9z"/>
			<g>
				<path class="st9" d="M472.9,216H408c-1.5,0-2.7-1.2-2.7-2.7v-38.4c0-1.5,1.2-2.7,2.7-2.7h64.9c1.5,0,2.7,1.2,2.7,2.7v38.4
					C475.6,214.8,474.4,216,472.9,216z"/>
				<path class="st2" d="M472.9,216.3H408c-1.7,0-3-1.4-3-3v-38.4c0-1.7,1.4-3,3-3h64.9c1.7,0,3,1.4,3,3v38.4
					C475.9,215,474.6,216.3,472.9,216.3z M408,172.5c-1.3,0-2.4,1.1-2.4,2.4v38.4c0,1.3,1.1,2.4,2.4,2.4h64.9c1.3,0,2.4-1.1,2.4-2.4
					v-38.4c0-1.3-1.1-2.4-2.4-2.4H408z"/>
			</g>
			<g>
				<g>
					
						<rect x="460.6" y="178.6" transform="matrix(-1 -1.224647e-16 1.224647e-16 -1 926.4243 388.188)" class="st1" width="5.3" height="30.9"/>
					
						<rect x="449.2" y="178.6" transform="matrix(-1 -1.224647e-16 1.224647e-16 -1 903.6794 388.188)" class="st1" width="5.3" height="30.9"/>
					
						<rect x="437.8" y="178.6" transform="matrix(-1 -1.224647e-16 1.224647e-16 -1 880.9345 388.188)" class="st1" width="5.3" height="30.9"/>
					
						<rect x="426.4" y="178.6" transform="matrix(-1 -1.224647e-16 1.224647e-16 -1 858.1895 388.188)" class="st1" width="5.3" height="30.9"/>
					
						<rect x="415.1" y="178.6" transform="matrix(-1 -1.224647e-16 1.224647e-16 -1 835.4449 388.188)" class="st1" width="5.3" height="30.9"/>
				</g>
				<g>
					
						<rect x="460.6" y="201.8" transform="matrix(-1 -1.224647e-16 1.224647e-16 -1 926.4243 411.4068)" class="st2" width="5.3" height="7.7"/>
					
						<rect x="449.2" y="191.5" transform="matrix(-1 -1.224647e-16 1.224647e-16 -1 903.6794 401.0993)" class="st2" width="5.3" height="18"/>
					
						<rect x="437.8" y="196.4" transform="matrix(-1 -1.224647e-16 1.224647e-16 -1 880.9345 405.9758)" class="st2" width="5.3" height="13.2"/>
					
						<rect x="426.4" y="187.2" transform="matrix(-1 -1.224647e-16 1.224647e-16 -1 858.1895 396.8091)" class="st2" width="5.3" height="22.3"/>
					
						<rect x="415.1" y="183.2" transform="matrix(-1 -1.224647e-16 1.224647e-16 -1 835.4449 392.816)" class="st2" width="5.3" height="26.3"/>
				</g>
			</g>
		</g>
		<g>
			<path class="st2" d="M43.8,205.9h81c1.9,0,3.4-1.5,3.4-3.4v-47.9c0-1.9-1.5-3.4-3.4-3.4h-81c-1.9,0-3.4,1.5-3.4,3.4v47.9
				C40.5,204.4,42,205.9,43.8,205.9z"/>
			<g>
				<path class="st9" d="M43.8,201.4h81c1.9,0,3.4-1.5,3.4-3.4v-47.9c0-1.9-1.5-3.4-3.4-3.4h-81c-1.9,0-3.4,1.5-3.4,3.4V198
					C40.5,199.9,42,201.4,43.8,201.4z"/>
				<path class="st2" d="M124.8,201.7h-81c-2,0-3.7-1.7-3.7-3.7v-47.9c0-2,1.7-3.7,3.7-3.7h81c2,0,3.7,1.7,3.7,3.7V198
					C128.5,200.1,126.8,201.7,124.8,201.7z M43.8,147c-1.7,0-3.1,1.4-3.1,3.1V198c0,1.7,1.4,3.1,3.1,3.1h81c1.7,0,3.1-1.4,3.1-3.1
					v-47.9c0-1.7-1.4-3.1-3.1-3.1H43.8z"/>
			</g>
			<g>
				<rect x="47.6" y="154.3" class="st1" width="22.7" height="2.2"/>
				<rect x="47.6" y="159.5" class="st1" width="22.7" height="2.2"/>
				<rect x="47.6" y="164.6" class="st1" width="22.7" height="2.2"/>
				<rect x="47.6" y="169.8" class="st1" width="22.7" height="2.2"/>
				<rect x="47.6" y="175" class="st1" width="22.7" height="2.2"/>
				<rect x="47.6" y="180.1" class="st1" width="22.7" height="2.2"/>
				<rect x="47.6" y="190.5" class="st1" width="15.8" height="2.2"/>
				<rect x="47.6" y="185.3" class="st1" width="22.7" height="2.2"/>
			</g>
			<rect x="73.9" y="154.2" class="st1" width="45" height="38.5"/>
			<g>
				<g>
					<path class="st4" d="M81.3,159.1c0,1.1-0.9,2-2,2c-1.1,0-2-0.9-2-2c0-1.1,0.9-2,2-2C80.4,157,81.3,157.9,81.3,159.1z"/>
					<path class="st4" d="M88.2,159.1c0,1.1-0.9,2-2,2c-1.1,0-2-0.9-2-2c0-1.1,0.9-2,2-2C87.2,157,88.2,157.9,88.2,159.1z"/>
					<path class="st4" d="M95,159.1c0,1.1-0.9,2-2,2c-1.1,0-2-0.9-2-2c0-1.1,0.9-2,2-2C94.1,157,95,157.9,95,159.1z"/>
					<path class="st9" d="M101.8,159.1c0,1.1-0.9,2-2,2c-1.1,0-2-0.9-2-2c0-1.1,0.9-2,2-2C100.9,157,101.8,157.9,101.8,159.1z"/>
					<path class="st9" d="M108.6,159.1c0,1.1-0.9,2-2,2c-1.1,0-2-0.9-2-2c0-1.1,0.9-2,2-2C107.7,157,108.6,157.9,108.6,159.1z"/>
					<path class="st9" d="M115.4,159.1c0,1.1-0.9,2-2,2c-1.1,0-2-0.9-2-2c0-1.1,0.9-2,2-2C114.5,157,115.4,157.9,115.4,159.1z"/>
				</g>
				<g>
					<path class="st10" d="M81.3,166.3c0,1.1-0.9,2-2,2c-1.1,0-2-0.9-2-2c0-1.1,0.9-2,2-2C80.4,164.2,81.3,165.1,81.3,166.3z"/>
					<path class="st10" d="M88.2,166.3c0,1.1-0.9,2-2,2c-1.1,0-2-0.9-2-2c0-1.1,0.9-2,2-2C87.2,164.2,88.2,165.1,88.2,166.3z"/>
					<path class="st10" d="M95,166.3c0,1.1-0.9,2-2,2c-1.1,0-2-0.9-2-2c0-1.1,0.9-2,2-2C94.1,164.2,95,165.1,95,166.3z"/>
					<path class="st10" d="M101.8,166.3c0,1.1-0.9,2-2,2c-1.1,0-2-0.9-2-2c0-1.1,0.9-2,2-2C100.9,164.2,101.8,165.1,101.8,166.3z"/>
					<path class="st9" d="M108.6,166.3c0,1.1-0.9,2-2,2c-1.1,0-2-0.9-2-2c0-1.1,0.9-2,2-2C107.7,164.2,108.6,165.1,108.6,166.3z"/>
					<path class="st9" d="M115.4,166.3c0,1.1-0.9,2-2,2c-1.1,0-2-0.9-2-2c0-1.1,0.9-2,2-2C114.5,164.2,115.4,165.1,115.4,166.3z"/>
				</g>
				<g>
					<path class="st9" d="M81.3,173.4c0,1.1-0.9,2-2,2c-1.1,0-2-0.9-2-2c0-1.1,0.9-2,2-2C80.4,171.4,81.3,172.3,81.3,173.4z"/>
					<path class="st9" d="M88.2,173.4c0,1.1-0.9,2-2,2c-1.1,0-2-0.9-2-2c0-1.1,0.9-2,2-2C87.2,171.4,88.2,172.3,88.2,173.4z"/>
					<path class="st11" d="M95,173.4c0,1.1-0.9,2-2,2c-1.1,0-2-0.9-2-2c0-1.1,0.9-2,2-2C94.1,171.4,95,172.3,95,173.4z"/>
					<path class="st11" d="M101.8,173.4c0,1.1-0.9,2-2,2c-1.1,0-2-0.9-2-2c0-1.1,0.9-2,2-2C100.9,171.4,101.8,172.3,101.8,173.4z"/>
					<path class="st11" d="M108.6,173.4c0,1.1-0.9,2-2,2c-1.1,0-2-0.9-2-2c0-1.1,0.9-2,2-2C107.7,171.4,108.6,172.3,108.6,173.4z"/>
					<path class="st9" d="M115.4,173.4c0,1.1-0.9,2-2,2c-1.1,0-2-0.9-2-2c0-1.1,0.9-2,2-2C114.5,171.4,115.4,172.3,115.4,173.4z"/>
				</g>
				<g>
					<path class="st2" d="M81.3,180.6c0,1.1-0.9,2-2,2c-1.1,0-2-0.9-2-2c0-1.1,0.9-2,2-2C80.4,178.6,81.3,179.5,81.3,180.6z"/>
					<path class="st2" d="M88.2,180.6c0,1.1-0.9,2-2,2c-1.1,0-2-0.9-2-2c0-1.1,0.9-2,2-2C87.2,178.6,88.2,179.5,88.2,180.6z"/>
					<path class="st2" d="M95,180.6c0,1.1-0.9,2-2,2c-1.1,0-2-0.9-2-2c0-1.1,0.9-2,2-2C94.1,178.6,95,179.5,95,180.6z"/>
					<path class="st2" d="M101.8,180.6c0,1.1-0.9,2-2,2c-1.1,0-2-0.9-2-2c0-1.1,0.9-2,2-2C100.9,178.6,101.8,179.5,101.8,180.6z"/>
					<path class="st9" d="M108.6,180.6c0,1.1-0.9,2-2,2c-1.1,0-2-0.9-2-2c0-1.1,0.9-2,2-2C107.7,178.6,108.6,179.5,108.6,180.6z"/>
					<path class="st9" d="M115.4,180.6c0,1.1-0.9,2-2,2c-1.1,0-2-0.9-2-2c0-1.1,0.9-2,2-2C114.5,178.6,115.4,179.5,115.4,180.6z"/>
				</g>
				<g>
					<path class="st9" d="M81.3,187.8c0,1.1-0.9,2-2,2c-1.1,0-2-0.9-2-2c0-1.1,0.9-2,2-2C80.4,185.8,81.3,186.7,81.3,187.8z"/>
					<path class="st9" d="M88.2,187.8c0,1.1-0.9,2-2,2c-1.1,0-2-0.9-2-2c0-1.1,0.9-2,2-2C87.2,185.8,88.2,186.7,88.2,187.8z"/>
					<path class="st12" d="M95,187.8c0,1.1-0.9,2-2,2c-1.1,0-2-0.9-2-2c0-1.1,0.9-2,2-2C94.1,185.8,95,186.7,95,187.8z"/>
					<path class="st9" d="M101.8,187.8c0,1.1-0.9,2-2,2c-1.1,0-2-0.9-2-2c0-1.1,0.9-2,2-2C100.9,185.8,101.8,186.7,101.8,187.8z"/>
					<path class="st9" d="M108.6,187.8c0,1.1-0.9,2-2,2c-1.1,0-2-0.9-2-2c0-1.1,0.9-2,2-2C107.7,185.8,108.6,186.7,108.6,187.8z"/>
					<path class="st9" d="M115.4,187.8c0,1.1-0.9,2-2,2c-1.1,0-2-0.9-2-2c0-1.1,0.9-2,2-2C114.5,185.8,115.4,186.7,115.4,187.8z"/>
				</g>
			</g>
		</g>
		<g>
			<path class="st3" d="M130.9,198.5c2.9-0.7,0.1-17.7-1.6-24.9c-1.7-7.1-4.3-12.4-7.8-11.5c-3.5,0.9-3.2,6.8-1.2,13.9
				C122.2,183,128,199.2,130.9,198.5z"/>
			<g>
				<path class="st3" d="M147.7,201.4c0.6-1.9-12-6.6-15.6-7.8c-3.6-1.2-4.3-1.7-5,0.4c-0.7,2.1-0.2,3.2,3.4,4.4
					C134.2,199.6,147.1,203.3,147.7,201.4z"/>
			</g>
			<path class="st3" d="M114.7,308.4l-0.2,3.7c0,0.5,0.4,0.9,0.9,0.9h9.9c0.9,0,1.3-1.1,0.6-1.7c-1.5-1.1-3.6-2.4-5.5-2.8
				c-0.2,0-1.6-31-3.1-31C116,277.5,114.7,308.4,114.7,308.4z"/>
			<path class="st3" d="M93.1,308.2c0,0,0,0.2,0,0.5v3c0,0.3,0.7,1.7,1.4,2c2.5,1.1,7.3,0.4,7.5-0.4c0.2-0.9-1.1-2.7-2.2-4.1
				c0,0,0,0,0,0c-0.7-0.9-1.3-1.5-1.3-1.5s-1.3-30.1-2.8-30C94.2,277.6,93.1,308.2,93.1,308.2z"/>
			<path class="st3" d="M117.1,261c4.1,0,6.4-22.9,6.5-32.8c0.2-9.8-1.5-17.6-6.5-17.6c-5,0-6.7,7.8-6.5,17.6
				C110.8,238,113,261,117.1,261z"/>
			<path class="st3" d="M117.1,309.7c3.7,0,4.7-32.4,4.7-39.7c0-7.3-0.6-15-4.7-15c-4.1,0-4.7,7.7-4.7,15
				C112.4,277.3,113.5,309.7,117.1,309.7z"/>
			<path class="st3" d="M99.4,260.9c4.1,0.4,8.4-22.3,9.5-32c1.1-9.7,0.1-17.6-4.9-18.1c-5-0.5-7.4,7.1-8.1,16.9
				C95.1,237.5,95.3,260.6,99.4,260.9z"/>
			<path class="st3" d="M95.5,309.5c3.7,0.3,7-31.8,7.7-39.1c0.7-7.2,0.8-15-3.3-15.3c-4.1-0.4-5.4,7.2-6,14.5
				C93.2,276.8,91.9,309.2,95.5,309.5z"/>
			<path class="st3" d="M96.2,218.2h27.3l1.1-43.9l-2-12.4l-13.2-4.1l-7.6,1.5c-4.3,0.8-7.4,4.7-7.3,9.1l2.8,31.1L96.2,218.2z"/>
			<path class="st3" d="M88.4,196.6c2.8,0.9,9.6-15.1,12-22.1c2.4-7,3-12.9-0.5-14.1c-3.5-1.1-6.4,4.1-8.5,11.2
				C89.3,178.8,85.6,195.7,88.4,196.6z"/>
			<path class="st3" d="M106.5,152v8.8c0,0,1.9,1.1,6.2,1.1c2.4,0,2.9-1.1,2.9-1.1v-3.3L106.5,152z"/>
			<path class="st3" d="M105.4,145.4c0,0.3,0,0.6,0.1,0.9c0,0.1,0,0.2,0,0.3c-0.2,5.2,3.1,10.8,8.2,11.6c0,0,0,0,0.1,0
				c0,0,0.1,0,0.2,0c1.1,0.1,5,0.5,6.4-1.1c1.7-1.9,3.2-5.3,3.2-7.6c0-2.3-0.4-2.9-0.4-3.8c0-0.7,0.4-3,0.4-4c0-4.7-3.1-9.3-8.7-9.3
				C106.5,132.5,105.2,139.8,105.4,145.4z"/>
			<g>
				<path class="st3" d="M107.9,145.5c-0.7-0.2-2.2-0.7-1.9,1.6c0.5,4,2.9,3.8,2.9,3.8c-0.1-0.6-0.3-1.4-0.5-2.3
					c0.6-0.4-0.2-0.9-0.2-1.3c0-0.1,0-0.2,0-0.3C108,146.5,107.9,146,107.9,145.5z"/>
				<path class="st6" d="M108,147c0,0-0.7-0.7-1.3-0.4c-0.6,0.3-0.2,1.6,0.3,2.3c0.4,0.8,0.9,0.8,1,0.6c0.1-0.2-0.9-0.7-0.5-1
					c0.3-0.4,0.7-0.4,0.7-0.6C108.1,147.6,108,147,108,147z"/>
			</g>
			<path class="st6" d="M116.8,158.4c-2.5,0.1-5.9-2.4-6.9-3.5c-0.9-1.1-1.4-4-1.4-4s-0.7,0.1-1.3-0.7c0,0,0.1,1.3,0.6,1.7
				c0.5,0.4,0.8,0.5,0.9,0.8c0.1,0.3,0.7,4.3,2.8,5.4C113.6,159.2,116.8,158.4,116.8,158.4z"/>
			<path class="st0" d="M114.5,309.1v3.4c0,0.3,0.3,0.6,0.6,0.6h11.1c1,0,1.4-1.2,0.6-1.8c-1.6-1.2-4.2-2.4-6.1-3.3
				c-0.5,0.4-1.1,1.6-1.9,1.8C118,309.9,114.5,309.1,114.5,309.1z"/>
			<path class="st0" d="M93.1,308.6v3c0,0.3,0.7,1.7,1.4,2c2.5,1.1,7.3,0.4,7.5-0.4c0.2-0.9-1.1-2.7-2.2-4.1c0,0,0,0,0,0
				c-0.5-0.4-3.1-0.2-3.6,0c-0.4,0.2-1.5,0.8-1.7,0.8C94.3,309.9,93.1,308.6,93.1,308.6z"/>
			<polygon class="st1" points="109.9,223.4 109.9,225.5 99.8,306.1 92,306.1 95.5,223.4 			"/>
			<polygon class="st1" points="124.1,223.4 120.9,306.1 113.2,306.1 109.9,225.5 109.9,223.4 			"/>
			<path class="st2" d="M115.6,161"/>
			<path class="st2" d="M128.9,170.7c-1.6-5.3-3.6-8.1-6-9l-7.3-2c0,0,2.1,3.1-3.6,3c-5.7-0.1-7-4.1-7-4.1s-3.1,0.2-5.9,1
				c-1,0.3-1.9,0.7-2.7,1.3c-2.7,2-6.1,11.3-8,19.9c0,0,1,2.2,8,3.7l-0.9,2.1c0,0,1.2,8.7,0.9,14c-0.2,5.3-1.6,22.7-1.6,22.7h0.6
				h14.4h14.2h0.7c0,0,0.5-23.3,0.7-38.6h0c4.9-0.9,6-2.8,6-2.8S130.6,176,128.9,170.7z"/>
			<g>
				<g>
					<polygon class="st4" points="212.3,141.2 183.9,141 203.6,168.2 					"/>
				</g>
				<polygon class="st4" points="71.5,231.8 81.9,246.2 81.9,246.2 198.9,161.8 198.9,161.8 199,161.7 199.1,161.7 188.7,147.3 
					188.6,147.4 				"/>
				<polygon class="st4" points="80.1,243.8 81.9,246.2 81.9,246.2 199,161.7 197.4,159.4 197.3,159.5 				"/>
				<path class="st3" d="M147.7,201.9c1.4-0.7,2.2-2.2,2.3-4.6c0.1-2.4-0.4-3.1-1.1-2.9c-0.8,0.2-3.5,2.3-3.5,3.2c0.1,1,0.1,2,0,2.3
					c-0.1,0.3-0.9,0.6-1,1.1C144.3,201.5,146,202.7,147.7,201.9z"/>
			</g>
			<path class="st1" d="M106.5,152.2c-0.4,0.3-1,0.3-1.3,0.1c-0.4-0.3-0.5-1.2,0.1-1.9c-0.1,0-1.2-0.2-1.6-1.1
				c-0.4-0.9-0.2-2,0.7-2.8c-0.3-0.2-0.9-0.5-1.2-1.1c-0.6-1-0.5-2.4,0.4-3.6c-0.1-0.1-0.5-0.4-0.5-1c0-0.6,0.3-1.2,1-1.5
				c-0.1-0.1-0.7-0.8-0.7-1.7c0-1,0.8-1.9,1.9-2.2c-0.4-0.8-0.4-1.8,0.1-2.4c0.7-1,2.2-1.2,3.4-0.5c0-0.8,0.5-1.5,1.2-1.8
				c1-0.4,1.8,0.1,1.9,0.2c0.2-0.4,0.4-0.6,0.6-0.7c0.9-0.6,2.3-0.4,3.7,0.5c0.4-0.5,0.7-0.7,1-0.8c1.2-0.5,2.8,0.2,4.1,1.7
				c0.7-0.5,1.7-0.5,2.4,0.1c0.6,0.5,0.9,1.3,0.7,2.1c0.7,0.1,1.2,0.6,1.4,1.2c0.2,0.7-0.1,1.4-0.7,1.8c0.1,0.7-0.2,1.4-0.7,1.7
				c-0.7,0.4-1.6,0.2-2.2-0.5c0,0.1-0.3,0.5-0.8,0.6c-0.5,0.1-1-0.2-1.2-0.6c-0.1,0.2-0.6,0.9-1.5,1.1c-1.1,0.3-2.3-0.4-3-1.6
				c-0.1,0.2-0.3,0.7-1,1.1c-0.9,0.5-1.8,0.1-1.9,0c0.1,0.2,0.2,0.7,0.1,1.4c-0.3,1.1-1.3,1.6-1.4,1.6c0.4,0.7,0.3,1.5-0.2,2
				c-0.5,0.6-1.3,0.5-1.4,0.5c0,0-0.2,3.6-0.6,3.6c-0.4,0-1.3-2.5-1.3-2.5s-1.3-0.4-1.7,0.4c-0.4,0.8,0,2.4,0.4,3.2
				c0.5,0.8,0.7,1.1,0.7,1.1L106.5,152.2z"/>
			<path class="st3" d="M92.4,226.9c2.6-0.2,1.8-19.6,1.3-25.1c-0.5-5.5-1.3-11.2-4.3-11c-3,0.2-2.9,6.1-2.4,11.5
				C87.5,207.8,89.8,227.1,92.4,226.9z"/>
			<path class="st3" d="M92.1,221.8c-3.1,0-2.4,5.5-2.2,7.4c0.5,3,3.9,5.7,5.1,5.5c1.2-0.2-0.4-7-0.2-7.2c0.2-0.3,0.7,3.5,1.8,3.2
				c1.1-0.3,0.3-4.8-0.8-6.4C95,222.6,94.1,221.8,92.1,221.8z"/>
		</g>
		<g>
			<path class="st3" d="M153.5,80.6c2.4,1.7,13.4-11.1,17.7-16.9c4.3-5.8,6.6-11.1,3.8-13.1c-2.9-2.1-7.1,1.9-11.2,7.8
				C159.6,64.3,151.1,78.9,153.5,80.6z"/>
			<path class="st3" d="M149.5,110.9c2.5,0.4,6.5-18,7.4-23.3c0.9-5.3,1.5-10.9-1.3-11.4c-2.8-0.5-4.2,5-5.1,10.2
				C149.5,91.8,147,110.5,149.5,110.9z"/>
			<g>
				<path class="st3" d="M153.5,109.4c-0.5-1.8-1.2-2.8-3-3.2c-2.9-0.7-4,5.3-4.2,7.1c-0.2,1.6,1.9,5.2,3.1,5.3
					c1.2,0.1,1.8-6.1,2.2-6.1c0.3,0,0.4,0.3,0.4,0.7h1.7C153.8,111.9,153.8,110.3,153.5,109.4z"/>
			</g>
		</g>
		<path class="st4" d="M173.5,49.2c-3.4,0.7-6.4,4.5-10.2,8.1c0,0,2.3,3.4,7.9,6.4l-1.5,2c0,0,0.5,4.7,1.7,9.3
			c1.2,4.5,4.8-10.7,4.8-10.7l1.1-13.2L173.5,49.2z"/>
		<path class="st3" d="M216.9,105.3c-2.6,0.3-5.3-18.4-5.8-23.8c-0.6-5.3-0.8-11,2.1-11.3c2.9-0.3,3.9,5.3,4.4,10.6
			C218.2,86.2,219.5,105,216.9,105.3z"/>
		<g>
			<path class="st3" d="M213,104.5c0.5-1.8,1.2-2.8,3-3.2c2.9-0.7,4,5.3,4.2,7.1c0.2,1.6-1.9,5.2-3.1,5.3c-1.2,0.1-1.8-6.1-2.2-6.1
				c-0.3,0-0.4,0.3-0.4,0.7h-1.7C212.7,106.9,212.7,105.4,213,104.5z"/>
		</g>
		<g>
			<path class="st3" d="M328.9,190.4c0.7-2.5,19.4,1.7,24.7,3.1c5.2,1.4,10.7,3.2,9.9,6.1c-0.7,2.8-6.4,1.8-11.6,0.4
				C346.7,198.6,328.3,193,328.9,190.4z"/>
			<path class="st3" d="M333.8,191.6c-0.6,3-5.8,1.4-7.6,0.8c-2.9-1-4.3-5.2-3.9-6.4c0.4-1.1,5.9,2.1,6.2,1.9c0.3-0.2-3-1.4-2.5-2.4
				c0.5-1,4.7,0.6,6.1,1.9C333.5,188.7,334.1,189.7,333.8,191.6z"/>
			<path class="st3" d="M360.1,199.3c-2.8,0.8-8.7-15.2-10.7-22.2c-2-7-2.3-12.8,1.1-13.7c3.4-0.9,6.1,4.3,7.8,11.4
				C360,181.8,362.9,198.6,360.1,199.3z"/>
			<path class="st4" d="M350.3,163.2c2.6,0,4.6,3.1,5.1,8.9c0.5,5.9,0,19.2,0,19.2h-9.6c0,0-0.7-16-0.8-20.4
				C344.9,166.6,346.7,163.2,350.3,163.2z"/>
			<path class="st10" d="M345.8,191.3c0,0-5.9-1.6-7-1.7c-1,0-4.5,0-4.5,0s-0.7,1.7-1.6,4c0,0,1.7,1,2.1,1.3c0.4,0.4,0,0.6,2.3,1.7
				c2.3,1.1,11.8,5.6,15.1,5.3c3.4-0.3,3-7.2,3.1-10.7c0.1-3.5-7-4.4-7-4.4L345.8,191.3z"/>
			<g>
				<g class="st13">
					<path class="st14" d="M256.5,151c-15.8-1.2-27.8-15.1-26.5-30.9s15.1-27.8,30.9-26.5c15.8,1.2,27.8,15.1,26.5,30.9
						C286.2,140.3,272.3,152.2,256.5,151z"/>
				</g>
				<g>
					<g>
						<g>
							
								<rect x="305.4" y="128.1" transform="matrix(0.6454 -0.7638 0.7638 0.6454 -16.7073 295.2108)" class="st4" width="8.4" height="75.1"/>
						</g>
						<g>
							<path class="st1" d="M256.1,156c-18.6-1.4-32.6-17.7-31.2-36.3c1.4-18.6,17.7-32.6,36.3-31.2c18.6,1.4,32.6,17.7,31.2,36.3
								S274.7,157.5,256.1,156z M260.6,96.9c-14-1.1-26.3,9.4-27.3,23.5s9.4,26.3,23.5,27.3c14,1.1,26.3-9.4,27.3-23.5
								C285.1,110.2,274.6,97.9,260.6,96.9z"/>
						</g>
						<g>
							<path class="st1" d="M333.4,193.7c-1.7-0.1-3.3-0.8-4.7-1.9l-27.9-23.2c-3.6-3-4.1-8.3-1.1-11.8c3-3.6,8.3-4.1,11.8-1.1
								l27.9,23.2c3.6,3,4.1,8.3,1.1,11.8C338.7,192.9,336,193.9,333.4,193.7z"/>
						</g>
						<g>
							<circle class="st15" cx="258.7" cy="122.3" r="29.9"/>
						</g>
					</g>
				</g>
			</g>
			<path class="st3" d="M376.8,219h-27l-1.1-43.4l2-12.2l13.1-4l7.5,1.4c4.3,0.8,7.3,4.6,7.2,9l-2.8,30.7L376.8,219z"/>
			<g>
				<path class="st3" d="M366.6,153.5v8.7c0,0-1.8,1.1-6.2,1.1c-2.3,0-2.8-1.1-2.8-1.1V159L366.6,153.5z"/>
				<g>
					<path class="st6" d="M356.3,145.7c-0.9,0.2-1.2,3.2-1.1,3.2c0.2,0,0.7-2.4,1.5-2.7C357.5,145.8,356.3,145.7,356.3,145.7z"/>
					<path class="st6" d="M353,145.8c0.5,0.6,0.1,2.8,0.1,3c0,0.2-0.2-2.6-0.2-2.6L353,145.8z"/>
					<g>
						<path class="st16" d="M360,145.8v0.3c0,0-3.7,0-3.7,0s-0.1-0.3,0-0.4C357,145,360,145.8,360,145.8z"/>
						<path class="st16" d="M350.3,145.8v0.4c0,0,2.6,0,2.6,0c0,0,0.1-0.3,0-0.4C352.4,145,350.3,145.8,350.3,145.8z"/>
						<path class="st16" d="M358.7,148.1c0,0.4-0.3,0.7-0.7,0.7c-0.4,0-0.7-0.3-0.7-0.7c0-0.4,0.3-0.7,0.7-0.7
							C358.3,147.3,358.7,147.7,358.7,148.1z"/>
						<path class="st16" d="M359.5,147.5c-0.4-0.2-0.9-0.4-1.6-0.4c-0.6,0-1.2,0.2-1.6,0.4H359.5z"/>
						<path class="st16" d="M352.5,148.1c0,0.4-0.3,0.7-0.7,0.7c-0.4,0-0.7-0.3-0.7-0.7c0-0.4,0.3-0.7,0.7-0.7
							C352.2,147.3,352.5,147.7,352.5,148.1z"/>
						<path class="st16" d="M352.8,147.5c-0.3-0.2-0.7-0.4-1.1-0.4s-0.8,0.2-1.1,0.4H352.8z"/>
					</g>
					<path class="st3" d="M354,151.9c0.7,0,1.4-0.1,1.4,0.1s-0.6,0.5-1.4,0.5c-0.7,0-1.4-0.2-1.4-0.5S353.2,151.9,354,151.9z"/>
					<path class="st6" d="M354,154.9c0.5,0,1,0,1,0.1s-0.4,0.5-1,0.5c-0.5,0-1-0.3-1-0.5S353.4,154.9,354,154.9z"/>
					<g>
						<path class="st6" d="M351.4,153.7c-0.1,0-0.1,0-0.2,0.1c0,0.1,0,0.2,0.1,0.2c0.1,0,1.3,0.4,2.6,0.4c1.3,0,2.5-0.4,2.6-0.4
							c0.1,0,0.1-0.1,0.1-0.2c0-0.1-0.1-0.1-0.2-0.1c0,0-1.3,0.4-2.5,0.4C352.7,154.1,351.5,153.7,351.4,153.7
							C351.5,153.7,351.5,153.7,351.4,153.7z"/>
					</g>
				</g>
				<path class="st3" d="M367.6,147c0,0.3,0,0.6-0.1,0.9c0,0.1,0,0.2,0,0.3c0.2,5.2-3.1,10.7-8.1,11.5c0,0,0,0-0.1,0
					c0,0-0.1,0-0.2,0c-1.1,0.1-4.9,0.4-6.4-1.1c-1.7-1.8-3.1-5.2-3.1-7.5c0-2.3,0.4-2.8,0.4-3.8c0-0.7-0.4-3-0.4-4
					c0-4.6,3.1-9.2,8.6-9.2C366.6,134.2,367.8,141.5,367.6,147z"/>
				<path class="st17" d="M363.8,147.5c-0.4-1.9-1.9-2.6-2.1-3.7c-0.2-1.2-0.3-2.7-0.8-3.9c-0.5-1.1-4.6-0.9-5.9-0.6
					c-1.4,0.3-4.2,0.4-5.3-0.2c-1.2-0.6-2-3.4-1-4.6l0.5,0.5c0,0,2-2.3,4.1-2.6l-0.4,1.2c0,0,5.9-0.6,8-0.3c2.2,0.3,4,2.2,4,2.2
					s2.5-0.9,3.6,1.7c0.6,1.5,3.3,8.7-1.9,17.9l-1.7-7.2L363.8,147.5z"/>
				<g>
					<path class="st3" d="M365.2,147.1c0.7-0.2,2.2-0.7,1.9,1.6c-0.5,4-2.8,3.7-2.8,3.7c0.1-0.6,0.3-1.4,0.5-2.3
						c-0.6-0.4,0.2-0.9,0.2-1.3c0-0.1,0-0.2,0-0.3C365.1,148.1,365.1,147.6,365.2,147.1z"/>
					<path class="st6" d="M365,148.5c0,0,0.7-0.7,1.3-0.4c0.6,0.3,0.2,1.6-0.3,2.3c-0.4,0.8-0.9,0.8-1,0.6c-0.1-0.2,0.9-0.7,0.5-1
						c-0.3-0.4-0.7-0.4-0.7-0.6C364.9,149.2,365,148.5,365,148.5z"/>
					<path class="st17" d="M363.7,145.4c0.2,1.5,0,6.7,0,6.7l0.7,0l1.1-5.5L363.7,145.4z"/>
				</g>
				<path class="st6" d="M356.4,159.8c2.5,0.1,5.9-2.3,6.8-3.4c0.9-1.1,1.4-4,1.4-4s0.7,0.1,1.3-0.7c0,0-0.1,1.2-0.6,1.7
					c-0.5,0.4-0.8,0.5-0.9,0.8c-0.1,0.3-0.7,4.2-2.8,5.3C359.5,160.7,356.4,159.8,356.4,159.8z"/>
			</g>
			<g>
				<path class="st3" d="M379.8,308c0,0,0,0.2,0,0.5v3c0,0.3-0.7,1.7-1.4,1.9c-2.5,1-7.2,0.4-7.4-0.4c-0.2-0.9,1.1-2.7,2.2-4
					c0,0,0,0,0,0c0.7-0.9,1.3-1.5,1.3-1.5s1.3-29.7,2.7-29.7C378.7,277.8,379.8,308,379.8,308z"/>
				<path class="st3" d="M356,261.3c-4.1,0-6.3-22.7-6.5-32.4c-0.2-9.7,1.5-17.4,6.5-17.4c5,0,6.7,7.7,6.5,17.4
					C362.3,238.6,360.1,261.3,356,261.3z"/>
				<path class="st3" d="M356,309.6c-3.6,0-4.6-32-4.6-39.2c0-7.2,0.6-14.8,4.6-14.8c4.1,0,4.6,7.6,4.6,14.8
					C360.7,277.5,359.7,309.6,356,309.6z"/>
				<path class="st3" d="M373.6,261.3c-4.1,0.4-8.3-22-9.4-31.7c-1.1-9.6-0.1-17.4,4.9-17.9c5-0.5,7.3,7,8,16.7
					C377.8,238.1,377.7,260.9,373.6,261.3z"/>
				<path class="st3" d="M377.4,309.4c-3.6,0.3-6.9-31.5-7.6-38.7c-0.7-7.2-0.8-14.8,3.3-15.2c4-0.4,5.3,7.1,6,14.3
					C379.7,277,381,309,377.4,309.4z"/>
				<g>
					<path class="st3" d="M358.4,308.2l0.2,3.6c0,0.5-0.4,0.9-0.9,0.9h-9.8c-0.9,0-1.3-1.1-0.6-1.7c1.5-1.1,3.5-2.4,5.5-2.7
						c0.2,0,1.6-30.7,3-30.7C357.2,277.7,358.4,308.2,358.4,308.2z"/>
					<path class="st0" d="M358.6,308.9v3.4c0,0.3-0.3,0.6-0.6,0.6h-11c-1,0-1.4-1.2-0.6-1.8c1.6-1.2,4.1-2.4,6-3.3
						c0.4,0.4,1.1,1.6,1.9,1.8C355.2,309.8,358.6,308.9,358.6,308.9z"/>
				</g>
				<path class="st0" d="M379.8,308.5v3c0,0.3-0.7,1.7-1.4,1.9c-2.5,1-7.2,0.4-7.4-0.4c-0.2-0.9,1.1-2.7,2.2-4c0,0,0,0,0,0
					c0.5-0.4,3.1-0.2,3.5,0c0.4,0.2,1.5,0.8,1.7,0.8C378.6,309.7,379.8,308.5,379.8,308.5z"/>
			</g>
			<polygon class="st10" points="356.4,160.1 357.6,162.4 357.6,162.3 357.6,160.1 357.1,160 			"/>
			<path class="st10" d="M362.5,159.8l1.2,3.6c1.9-1.5,4.3-3.2,4.3-3.2l-1.4-2.3L362.5,159.8z"/>
			<polygon class="st18" points="356.1,161.3 355.7,163.4 357.6,162.5 357.6,162.4 356.4,160.1 			"/>
			<path class="st4" d="M355.7,163.4l0.4-2l-5.8,1.8c0,0-2.2,4.7-2.5,10.5c-0.1,1.6-0.1,6.3,0,12.2c0.2,15.1,0.7,38.2,0.7,38.2h0.7
				h14.1h14.2h0.6c0,0-0.6-17.3-0.8-22.5c-0.5-11.2,1.6-22.5,2.2-33.7c0-0.9,0.1-1.7-0.1-2.6c-0.5-1.9-2.2-2.6-3.8-3.5
				c-1.4-0.7-2.9-1.2-4.4-1.4c-0.6-0.1-2.7-0.7-3.1-0.3c0,0-2.5,1.7-4.3,3.2l-1.2-3.6l-3.1,6.4l-1.8-3.9c0,0,0,0.1,0,0.2
				L355.7,163.4z"/>
			<path class="st3" d="M346.3,183.5c-1.5-2.5,12.2-12.8,18.4-16.8c6.2-3.9,11.7-5.9,13.6-2.9c1.9,3.1-2.4,7.1-8.7,10.8
				C363.3,178.4,347.8,186,346.3,183.5z"/>
			<path class="st3" d="M316.9,172.2c0.8-2.5,19.3,2.7,24.5,4.3c5.2,1.6,10.5,3.8,9.6,6.6c-0.9,2.8-6.5,1.4-11.6-0.2
				C334.2,181.3,316.1,174.7,316.9,172.2z"/>
			<path class="st3" d="M321.7,173.6c-0.7,3-5.9,1.1-7.6,0.4c-2.8-1.1-1.5-4.2-1.1-5.3c0.4-1.1,2.9,1.5,3.3,1.4
				c0.3-0.2-2.6-1.9-2.1-2.9c0.5-1,4.7,0.8,6,2.2C321.5,170.7,322.1,171.8,321.7,173.6z"/>
			<polygon class="st2" points="363.2,224.2 377.4,224.2 380.9,306 373.2,306 363.2,226.3 360,306 352.4,306 349.1,224.2 			"/>
			<path class="st4" d="M378.9,164.4c-1.9-3.6-6.1-2.7-11.3,0c-5.2,2.7-17.9,12.1-18.2,12.3c-0.3,0.2-11.4-1.4-14.9-2.8
				c-3.4-1.3-5.8-1.7-8.4-1.9c-0.2,0-3.3-0.5-3.6-0.6c0,0-0.9,2.1-1.9,4.7c0,0,1.6,0.7,2.1,1.1c0.3,0.2,0.5,0,1.5,1.6
				c1,1.6,20.5,6.9,23.6,7.5c3,0.6,14.3-4.2,22.3-8.9C378.2,172.8,380.9,168.1,378.9,164.4z"/>
		</g>
		<path class="st1" d="M139.1,58.8h-4c-0.2-2-1.8-3.5-3.8-3.5h-6c0.1-0.4,0.2-0.9,0.2-1.4c0-2.9-2.3-5.2-5.2-5.2h-9.1
			c-2.9,0-5.2,2.3-5.2,5.2c0,0.5,0.1,0.9,0.2,1.4h-0.8c-2,0-3.6,1.6-3.8,3.5h-1.2c-2.7,0-4.9,2.2-4.9,4.9c0,2.7,2.2,4.9,4.9,4.9
			h38.7c2.7,0,4.9-2.2,4.9-4.9C144.1,61,141.8,58.8,139.1,58.8z"/>
		<g>
			<path class="st1" d="M70.1,142.7c-0.3,0-0.6-0.3-0.6-0.6v-2.4c0-0.3,0.3-0.6,0.6-0.6s0.6,0.3,0.6,0.6v2.4
				C70.7,142.5,70.4,142.7,70.1,142.7z M70.1,137.9c-0.3,0-0.6-0.3-0.6-0.6v-2.4c0-0.3,0.3-0.6,0.6-0.6s0.6,0.3,0.6,0.6v2.4
				C70.7,137.6,70.4,137.9,70.1,137.9z M70.1,133c-0.3,0-0.6-0.3-0.6-0.6V130c0-0.3,0.3-0.6,0.6-0.6s0.6,0.3,0.6,0.6v2.4
				C70.7,132.8,70.4,133,70.1,133z M70.1,128.2c-0.3,0-0.6-0.3-0.6-0.6v-2.4c0-0.3,0.3-0.6,0.6-0.6s0.6,0.3,0.6,0.6v2.4
				C70.7,127.9,70.4,128.2,70.1,128.2z M70.1,123.3c-0.3,0-0.6-0.3-0.6-0.6v-2.4c0-0.3,0.3-0.6,0.6-0.6s0.6,0.3,0.6,0.6v2.4
				C70.7,123.1,70.4,123.3,70.1,123.3z M70.1,118.5c-0.3,0-0.6-0.3-0.6-0.6v-2.4c0-0.3,0.3-0.6,0.6-0.6s0.6,0.3,0.6,0.6v2.4
				C70.7,118.2,70.4,118.5,70.1,118.5z M106,114h-1.6c-0.3,0-0.6-0.3-0.6-0.6s0.3-0.6,0.6-0.6h1.6c0.3,0,0.6,0.3,0.6,0.6
				S106.3,114,106,114z M102,114h-2.4c-0.3,0-0.6-0.3-0.6-0.6s0.3-0.6,0.6-0.6h2.4c0.3,0,0.6,0.3,0.6,0.6S102.3,114,102,114z
				 M97.1,114h-2.4c-0.3,0-0.6-0.3-0.6-0.6s0.3-0.6,0.6-0.6h2.4c0.3,0,0.6,0.3,0.6,0.6S97.5,114,97.1,114z M92.3,114h-2.4
				c-0.3,0-0.6-0.3-0.6-0.6s0.3-0.6,0.6-0.6h2.4c0.3,0,0.6,0.3,0.6,0.6S92.6,114,92.3,114z M87.4,114H85c-0.3,0-0.6-0.3-0.6-0.6
				s0.3-0.6,0.6-0.6h2.4c0.3,0,0.6,0.3,0.6,0.6S87.8,114,87.4,114z M82.6,114h-2.4c-0.3,0-0.6-0.3-0.6-0.6s0.3-0.6,0.6-0.6h2.4
				c0.3,0,0.6,0.3,0.6,0.6S82.9,114,82.6,114z M77.7,114h-2.4c-0.3,0-0.6-0.3-0.6-0.6s0.3-0.6,0.6-0.6h2.4c0.3,0,0.6,0.3,0.6,0.6
				S78.1,114,77.7,114z M72.9,114h-2.4c-0.3,0-0.6-0.3-0.6-0.6s0.3-0.6,0.6-0.6h2.4c0.3,0,0.6,0.3,0.6,0.6S73.2,114,72.9,114z"/>
		</g>
		<g>
			<path class="st1" d="M394.1,224.7h-1.9c-0.3,0-0.6-0.3-0.6-0.6c0-0.3,0.3-0.6,0.6-0.6h0.7V223c0-0.3,0.3-0.6,0.6-0.6
				s0.6,0.3,0.6,0.6V224.7z M389.8,224.7h-2.4c-0.3,0-0.6-0.3-0.6-0.6c0-0.3,0.3-0.6,0.6-0.6h2.4c0.3,0,0.6,0.3,0.6,0.6
				C390.4,224.5,390.1,224.7,389.8,224.7z M384.9,224.7h-1.8c-0.3,0-0.6-0.3-0.6-0.6c0-0.3,0.3-0.6,0.6-0.6h1.8
				c0.3,0,0.6,0.3,0.6,0.6C385.5,224.5,385.3,224.7,384.9,224.7z M393.5,221.2c-0.3,0-0.6-0.3-0.6-0.6v-2.4c0-0.3,0.3-0.6,0.6-0.6
				s0.6,0.3,0.6,0.6v2.4C394.1,220.9,393.9,221.2,393.5,221.2z M393.5,216.4c-0.3,0-0.6-0.3-0.6-0.6v-2.4c0-0.3,0.3-0.6,0.6-0.6
				s0.6,0.3,0.6,0.6v2.4C394.1,216.1,393.9,216.4,393.5,216.4z M393.5,211.5c-0.3,0-0.6-0.3-0.6-0.6v-2.4c0-0.3,0.3-0.6,0.6-0.6
				s0.6,0.3,0.6,0.6v2.4C394.1,211.3,393.9,211.5,393.5,211.5z M393.5,206.7c-0.3,0-0.6-0.3-0.6-0.6v-2.4c0-0.3,0.3-0.6,0.6-0.6
				s0.6,0.3,0.6,0.6v2.4C394.1,206.4,393.9,206.7,393.5,206.7z M393.5,201.8c-0.3,0-0.6-0.3-0.6-0.6v-2.9h0.6c0.3,0,0.7,0.3,0.7,0.6
				c0,0.1,0,0.2,0,0.3v2.1C394.1,201.6,393.9,201.8,393.5,201.8z M403.3,199.5h-2.4c-0.3,0-0.6-0.3-0.6-0.6c0-0.3,0.3-0.6,0.6-0.6
				h2.4c0.3,0,0.6,0.3,0.6,0.6C403.9,199.2,403.6,199.5,403.3,199.5z M398.5,199.5H396c-0.3,0-0.6-0.3-0.6-0.6
				c0-0.3,0.3-0.6,0.6-0.6h2.4c0.3,0,0.6,0.3,0.6,0.6C399.1,199.2,398.8,199.5,398.5,199.5z"/>
		</g>
		<g>
			<path class="st4" d="M59,92.1c0,4.5-8.2,17.6-8.2,17.6s-8.2-13.1-8.2-17.6c0-4.5,3.7-8.2,8.2-8.2C55.3,83.9,59,87.5,59,92.1z"/>
			<path class="st9" d="M55.2,92.1c0,2.4-2,4.4-4.4,4.4c-2.4,0-4.4-2-4.4-4.4c0-2.4,2-4.4,4.4-4.4C53.2,87.7,55.2,89.6,55.2,92.1z"
				/>
		</g>
		<g>
			<path class="st1" d="M139.6,91c-0.3,0-0.6-0.3-0.6-0.6V88c0-0.3,0.3-0.6,0.6-0.6c0.3,0,0.6,0.3,0.6,0.6v2.4
				C140.2,90.7,139.9,91,139.6,91z M139.6,86.1c-0.3,0-0.6-0.3-0.6-0.6v-1h-0.2c-0.3,0-0.6-0.3-0.6-0.6c0-0.3,0.3-0.6,0.6-0.6h1.4
				v2.3C140.2,85.9,139.9,86.1,139.6,86.1z M136.4,84.5H134c-0.3,0-0.6-0.3-0.6-0.6c0-0.3,0.3-0.6,0.6-0.6h2.4
				c0.3,0,0.6,0.3,0.6,0.6C137,84.2,136.7,84.5,136.4,84.5z M131.6,84.5h-2.4c-0.3,0-0.6-0.3-0.6-0.6c0-0.3,0.3-0.6,0.6-0.6h2.4
				c0.3,0,0.6,0.3,0.6,0.6C132.2,84.2,131.9,84.5,131.6,84.5z M126.7,84.5h-2.4c-0.3,0-0.6-0.3-0.6-0.6c0-0.3,0.3-0.6,0.6-0.6h2.4
				c0.3,0,0.6,0.3,0.6,0.6C127.3,84.2,127,84.5,126.7,84.5z M121.9,84.5h-2.4c-0.3,0-0.6-0.3-0.6-0.6c0-0.3,0.3-0.6,0.6-0.6h2.4
				c0.3,0,0.6,0.3,0.6,0.6C122.5,84.2,122.2,84.5,121.9,84.5z M117,84.5h-0.8v-2.8c0-0.3,0.3-0.6,0.6-0.6c0.3,0,0.6,0.3,0.6,0.6v1.7
				c0.1,0.1,0.2,0.3,0.2,0.5C117.6,84.2,117.3,84.5,117,84.5z M116.8,79.9c-0.3,0-0.6-0.3-0.6-0.6v-2.4c0-0.3,0.3-0.6,0.6-0.6
				c0.3,0,0.6,0.3,0.6,0.6v2.4C117.4,79.6,117.1,79.9,116.8,79.9z M116.8,75c-0.3,0-0.6-0.3-0.6-0.6V72c0-0.3,0.3-0.6,0.6-0.6
				c0.3,0,0.6,0.3,0.6,0.6v2.4C117.4,74.7,117.1,75,116.8,75z"/>
		</g>
		<g>
			<path class="st1" d="M118.8,94.7h-0.3c-0.3,0-0.6-0.3-0.6-0.6c0-0.3,0.3-0.6,0.6-0.6h0.3c0.3,0,0.6,0.3,0.6,0.6
				C119.4,94.4,119.2,94.7,118.8,94.7z M116.1,94.7h-2.4c-0.3,0-0.6-0.3-0.6-0.6c0-0.3,0.3-0.6,0.6-0.6h2.4c0.3,0,0.6,0.3,0.6,0.6
				C116.7,94.4,116.5,94.7,116.1,94.7z M111.3,94.7h-2.4c-0.3,0-0.6-0.3-0.6-0.6c0-0.3,0.3-0.6,0.6-0.6h2.4c0.3,0,0.6,0.3,0.6,0.6
				C111.9,94.4,111.6,94.7,111.3,94.7z M106.4,94.7H104c-0.3,0-0.6-0.3-0.6-0.6c0-0.3,0.3-0.6,0.6-0.6h2.4c0.3,0,0.6,0.3,0.6,0.6
				C107,94.4,106.8,94.7,106.4,94.7z M101.6,94.7h-2.4c-0.3,0-0.6-0.3-0.6-0.6c0-0.3,0.3-0.6,0.6-0.6h2.4c0.3,0,0.6,0.3,0.6,0.6
				C102.2,94.4,101.9,94.7,101.6,94.7z M96.7,94.7h-2.4c-0.3,0-0.6-0.3-0.6-0.6c0-0.3,0.3-0.6,0.6-0.6h2.4c0.3,0,0.6,0.3,0.6,0.6
				C97.4,94.4,97.1,94.7,96.7,94.7z M91.9,94.7h-2.4c-0.3,0-0.6-0.3-0.6-0.6c0-0.3,0.3-0.6,0.6-0.6h2.4c0.3,0,0.6,0.3,0.6,0.6
				C92.5,94.4,92.2,94.7,91.9,94.7z M87.1,94.7h-2.4c-0.3,0-0.6-0.3-0.6-0.6c0-0.3,0.3-0.6,0.6-0.6h2.4c0.3,0,0.6,0.3,0.6,0.6
				C87.7,94.4,87.4,94.7,87.1,94.7z M82.2,94.7h-2.4c-0.3,0-0.6-0.3-0.6-0.6c0-0.3,0.3-0.6,0.6-0.6h2.4c0.3,0,0.6,0.3,0.6,0.6
				C82.8,94.4,82.5,94.7,82.2,94.7z M77.4,94.7h-2.4c-0.3,0-0.6-0.3-0.6-0.6c0-0.3,0.3-0.6,0.6-0.6h2.4c0.3,0,0.6,0.3,0.6,0.6
				C78,94.4,77.7,94.7,77.4,94.7z M72.5,94.7h-2.4c-0.3,0-0.6-0.3-0.6-0.6c0-0.3,0.3-0.6,0.6-0.6h2.4c0.3,0,0.6,0.3,0.6,0.6
				C73.1,94.4,72.8,94.7,72.5,94.7z M67.7,94.7h-2.4c-0.3,0-0.6-0.3-0.6-0.6c0-0.3,0.3-0.6,0.6-0.6h2.4c0.3,0,0.6,0.3,0.6,0.6
				C68.3,94.4,68,94.7,67.7,94.7z"/>
		</g>
		<g>
			<path class="st1" d="M450.8,168.8c-0.3,0-0.6-0.3-0.6-0.6v-2.4c0-0.3,0.3-0.6,0.6-0.6c0.3,0,0.6,0.3,0.6,0.6v2.4
				C451.4,168.6,451.1,168.8,450.8,168.8z M450.8,164c-0.3,0-0.6-0.3-0.6-0.6V161c0-0.3,0.3-0.6,0.6-0.6c0.3,0,0.6,0.3,0.6,0.6v2.4
				C451.4,163.7,451.1,164,450.8,164z M450.8,159.1c-0.3,0-0.6-0.3-0.6-0.6v-2.4c0-0.3,0.3-0.6,0.6-0.6c0.3,0,0.6,0.3,0.6,0.6v2.4
				C451.4,158.9,451.1,159.1,450.8,159.1z M450.8,154.3c-0.3,0-0.6-0.3-0.6-0.6v-2.4c0-0.3,0.3-0.6,0.6-0.6c0.3,0,0.6,0.3,0.6,0.6
				v2.4C451.4,154,451.1,154.3,450.8,154.3z M450.8,149.5c-0.3,0-0.6-0.3-0.6-0.6v-2.4c0-0.3,0.3-0.6,0.6-0.6c0.3,0,0.6,0.3,0.6,0.6
				v2.4C451.4,149.2,451.1,149.5,450.8,149.5z M450.8,144.6c-0.3,0-0.6-0.3-0.6-0.6v-2.4c0-0.3,0.3-0.6,0.6-0.6
				c0.3,0,0.6,0.3,0.6,0.6v2.4C451.4,144.3,451.1,144.6,450.8,144.6z M450.8,139.8c-0.3,0-0.6-0.3-0.6-0.6v-2.4
				c0-0.3,0.3-0.6,0.6-0.6c0.3,0,0.6,0.3,0.6,0.6v2.4C451.4,139.5,451.1,139.8,450.8,139.8z M450.8,134.9c-0.3,0-0.6-0.3-0.6-0.6
				v-2.4c0-0.3,0.3-0.6,0.6-0.6c0.3,0,0.6,0.3,0.6,0.6v2.4C451.4,134.6,451.1,134.9,450.8,134.9z M449.3,131.5h-2.4
				c-0.3,0-0.6-0.3-0.6-0.6c0-0.3,0.3-0.6,0.6-0.6h2.4c0.3,0,0.6,0.3,0.6,0.6C449.9,131.3,449.7,131.5,449.3,131.5z M444.5,131.5
				h-2.4c-0.3,0-0.6-0.3-0.6-0.6c0-0.3,0.3-0.6,0.6-0.6h2.4c0.3,0,0.6,0.3,0.6,0.6C445.1,131.3,444.8,131.5,444.5,131.5z
				 M439.6,131.5h-2.4c-0.3,0-0.6-0.3-0.6-0.6c0-0.3,0.3-0.6,0.6-0.6h2.4c0.3,0,0.6,0.3,0.6,0.6C440.2,131.3,440,131.5,439.6,131.5z
				 M434.8,131.5h-2.4c-0.3,0-0.6-0.3-0.6-0.6c0-0.3,0.3-0.6,0.6-0.6h2.4c0.3,0,0.6,0.3,0.6,0.6
				C435.4,131.3,435.1,131.5,434.8,131.5z"/>
		</g>
		<g>
			
				<rect x="253.3" y="218.9" transform="matrix(0.7071 -0.7071 0.7071 0.7071 -81.3858 262.5757)" class="st19" width="45.9" height="21.3"/>
			<path class="st4" d="M264.9,247.8l-6.9-6.9c1.5-1.5,1.5-3.9,0-5.3l24.3-24.3c1.5,1.5,3.9,1.5,5.3,0l6.9,6.9
				c-1.5,1.5-1.5,3.9,0,5.3l-24.3,24.3C268.8,246.4,266.4,246.4,264.9,247.8z"/>
			<path class="st19" d="M280.8,225c2.5,2.5,2.5,6.6,0,9.1c-2.5,2.5-6.6,2.5-9.1,0c-2.5-2.5-2.5-6.6,0-9.1
				C274.2,222.5,278.3,222.5,280.8,225z"/>
			<g>
				<path class="st4" d="M279,228.8c0.3,0.3,0.5,0.8,0.5,1.3c0,0.5-0.3,1-0.7,1.5l0.9,0.9l-0.5,0.5l-0.9-0.9
					c-0.3,0.3-0.6,0.5-0.9,0.8c-0.3,0.2-0.6,0.4-0.8,0.5l-0.6-0.6c0.3-0.1,0.6-0.3,1-0.5c0.3-0.2,0.6-0.4,0.8-0.7l-1.7-1.7
					c-0.7,0.4-1.3,0.5-1.7,0.5s-0.8-0.2-1.2-0.5c-0.3-0.3-0.5-0.7-0.4-1.2c0-0.5,0.3-1,0.6-1.4l-0.7-0.7l0.5-0.5l0.7,0.7
					c0.5-0.5,1-0.8,1.6-1.1l0.3,0.7c-0.5,0.2-1,0.5-1.4,0.9l1.7,1.7c0.5-0.3,1-0.5,1.3-0.5c0.3-0.1,0.6-0.1,0.9,0
					C278.6,228.5,278.8,228.6,279,228.8z M273.9,229.2c0.2,0.2,0.4,0.3,0.6,0.3c0.2,0,0.5-0.1,0.9-0.3l-1.5-1.5
					c-0.2,0.3-0.3,0.6-0.3,0.8C273.7,228.9,273.8,229.1,273.9,229.2z M278.4,229.5c-0.2-0.2-0.4-0.3-0.6-0.3c-0.2,0-0.6,0.1-1,0.3
					l1.5,1.5C278.8,230.4,278.8,229.9,278.4,229.5z"/>
			</g>
		</g>
		<g>
			<rect x="231.6" y="204.4" class="st19" width="45.9" height="21.3"/>
			<path class="st4" d="M233.6,220l0-9.8c2.1,0,3.8-1.7,3.8-3.8l34.4,0c0,2.1,1.7,3.8,3.8,3.8l0,9.8c-2.1,0-3.8,1.7-3.8,3.8l-34.4,0
				C237.4,221.7,235.7,220,233.6,220z"/>
			<path class="st19" d="M261,215.1c0,3.6-2.9,6.4-6.4,6.4c-3.6,0-6.4-2.9-6.4-6.4c0-3.6,2.9-6.4,6.4-6.4
				C258.1,208.6,261,211.5,261,215.1z"/>
			<g>
				<path class="st4" d="M257,216.5c0,0.5-0.2,0.9-0.6,1.2c-0.4,0.3-0.9,0.5-1.5,0.6v1.3h-0.7v-1.2c-0.4,0-0.8,0-1.2-0.1
					c-0.4-0.1-0.7-0.2-0.9-0.3v-0.8c0.3,0.1,0.6,0.2,1,0.3c0.4,0.1,0.8,0.1,1.1,0.1v-2.4c-0.7-0.2-1.3-0.5-1.6-0.8
					c-0.3-0.3-0.4-0.7-0.4-1.2c0-0.5,0.2-0.9,0.6-1.2c0.4-0.3,0.9-0.5,1.5-0.6v-1h0.7l0,1c0.7,0,1.3,0.2,1.9,0.4l-0.3,0.7
					c-0.5-0.2-1.1-0.3-1.6-0.4v2.4c0.6,0.2,1,0.4,1.3,0.5c0.3,0.2,0.5,0.4,0.6,0.6C257,215.9,257,216.2,257,216.5z M253.1,213.2
					c0,0.3,0.1,0.5,0.2,0.7c0.2,0.2,0.4,0.3,0.8,0.5v-2.1c-0.4,0.1-0.6,0.2-0.8,0.3C253.2,212.8,253.1,213,253.1,213.2z
					 M256.1,216.6c0-0.3-0.1-0.5-0.2-0.6c-0.2-0.2-0.5-0.3-0.9-0.5v2.1C255.7,217.5,256.1,217.1,256.1,216.6z"/>
			</g>
		</g>
		<g>
			
				<rect x="255.8" y="174.1" transform="matrix(0.7071 0.7071 -0.7071 0.7071 206.9916 -138.1173)" class="st19" width="28.9" height="13.4"/>
			<path class="st4" d="M259.7,172.7l2.4-2.4c1.5,1.5,3.9,1.5,5.3,0l13.3,13.3c-1.5,1.5-1.5,3.9,0,5.3l-2.4,2.4
				c-1.5-1.5-3.9-1.5-5.3,0L259.7,178C261.2,176.5,261.2,174.1,259.7,172.7z"/>
			<path class="st19" d="M273.1,183.7c-1.6,1.6-4.2,1.6-5.7,0c-1.6-1.6-1.6-4.2,0-5.7c1.6-1.6,4.2-1.6,5.7,0
				C274.7,179.5,274.7,182.1,273.1,183.7z"/>
			<g>
				<path class="st4" d="M270.7,182.5c-0.2,0.2-0.5,0.3-0.8,0.3c-0.3,0-0.6-0.2-1-0.4l-0.6,0.6l-0.3-0.3l0.5-0.5
					c-0.2-0.2-0.3-0.4-0.5-0.6c-0.1-0.2-0.2-0.4-0.3-0.5l0.4-0.4c0.1,0.2,0.2,0.4,0.3,0.6c0.1,0.2,0.3,0.4,0.4,0.5l1.1-1.1
					c-0.2-0.4-0.3-0.8-0.3-1.1c0-0.3,0.1-0.5,0.3-0.7c0.2-0.2,0.5-0.3,0.8-0.3c0.3,0,0.6,0.2,0.9,0.4l0.4-0.4l0.3,0.3l-0.4,0.4
					c0.3,0.3,0.5,0.7,0.7,1l-0.4,0.2c-0.1-0.3-0.3-0.6-0.6-0.9l-1,1c0.2,0.3,0.3,0.6,0.3,0.8s0.1,0.4,0,0.5
					C270.9,182.3,270.8,182.4,270.7,182.5z M270.4,179.3c-0.1,0.1-0.2,0.3-0.2,0.4c0,0.1,0.1,0.3,0.2,0.6l0.9-0.9
					c-0.2-0.1-0.4-0.2-0.5-0.2C270.6,179.2,270.5,179.2,270.4,179.3z M270.2,182.2c0.1-0.1,0.2-0.2,0.2-0.4c0-0.1-0.1-0.4-0.2-0.6
					l-0.9,0.9C269.6,182.4,270,182.4,270.2,182.2z"/>
			</g>
		</g>
		<path class="st4" d="M449.2,252.7c-1.2,0-2.2,1-2.2,2.2c0,1.2,1,2.2,2.2,2.2c1.2,0,2.2-1,2.2-2.2
			C451.4,253.7,450.4,252.7,449.2,252.7z M443.9,249.5l2,2.1c0.9-0.8,2-1.3,3.3-1.3c1.3,0,2.4,0.5,3.3,1.3l2-2.1
			c-1.4-1.3-3.2-2.1-5.3-2.1C447.1,247.4,445.3,248.2,443.9,249.5z M449.2,235.3c-5.3,0-10.1,2.1-13.6,5.5l2,2.1
			c3-2.9,7.1-4.7,11.6-4.7c4.5,0,8.6,1.8,11.6,4.7l2-2.1C459.2,237.4,454.5,235.3,449.2,235.3z M439.8,245.2l2,2.1
			c1.9-1.8,4.5-3,7.4-3c2.9,0,5.5,1.1,7.4,3l2-2.1c-2.4-2.3-5.7-3.8-9.4-3.8C445.5,241.4,442.3,242.8,439.8,245.2z"/>
		<path class="st1" d="M394.8,251.5c0.7,0,1.4-0.3,1.8-0.8c0.5-0.5,0.8-1.2,0.8-1.8c0-0.7-0.3-1.4-0.8-1.8c-0.5-0.5-1.2-0.8-1.8-0.8
			c-0.7,0-1.4,0.3-1.8,0.8c-0.5,0.5-0.8,1.2-0.8,1.8c0,0.7,0.3,1.4,0.8,1.8C393.4,251.2,394.1,251.5,394.8,251.5"/>
		<path class="st1" d="M421.7,251.5L421.7,251.5c1.5,0,2.6-1.2,2.6-2.6c0-1.4-1.2-2.6-2.6-2.6h0c-1.4,0-2.6,1.2-2.6,2.6
			C419.1,250.3,420.2,251.5,421.7,251.5z"/>
		<path class="st1" d="M408.2,251.5L408.2,251.5c1.5,0,2.6-1.2,2.6-2.6c0-1.4-1.2-2.6-2.6-2.6h0c-1.4,0-2.6,1.2-2.6,2.6
			C405.6,250.3,406.8,251.5,408.2,251.5z"/>
		<path class="st1" d="M394.8,240.8c0.7,0,1.4-0.3,1.8-0.8c0.5-0.5,0.8-1.2,0.8-1.8c0-0.7-0.3-1.4-0.8-1.8c-0.5-0.5-1.2-0.8-1.8-0.8
			c-0.7,0-1.4,0.3-1.8,0.8c-0.5,0.5-0.8,1.2-0.8,1.8c0,0.7,0.3,1.4,0.8,1.8C393.4,240.5,394.1,240.8,394.8,240.8"/>
		<path class="st1" d="M421.7,240.8L421.7,240.8c1.5,0,2.6-1.2,2.6-2.6c0-1.4-1.2-2.6-2.6-2.6h0c-1.4,0-2.6,1.2-2.6,2.6
			C419.1,239.6,420.2,240.8,421.7,240.8z"/>
		<path class="st1" d="M408.2,240.8L408.2,240.8c1.5,0,2.6-1.2,2.6-2.6c0-1.4-1.2-2.6-2.6-2.6h0c-1.4,0-2.6,1.2-2.6,2.6
			C405.6,239.6,406.8,240.8,408.2,240.8z"/>
		<path class="st1" d="M394.8,262.2c0.7,0,1.4-0.3,1.8-0.8c0.5-0.5,0.8-1.2,0.8-1.8c0-0.7-0.3-1.4-0.8-1.8c-0.5-0.5-1.2-0.8-1.8-0.8
			c-0.7,0-1.4,0.3-1.8,0.8c-0.5,0.5-0.8,1.2-0.8,1.8c0,0.7,0.3,1.4,0.8,1.8C393.4,261.9,394.1,262.2,394.8,262.2"/>
		<path class="st1" d="M421.7,262.2L421.7,262.2c1.5,0,2.6-1.2,2.6-2.6c0-1.4-1.2-2.6-2.6-2.6h0c-1.4,0-2.6,1.2-2.6,2.6
			C419.1,261,420.2,262.2,421.7,262.2z"/>
		<path class="st1" d="M408.2,262.2L408.2,262.2c1.5,0,2.6-1.2,2.6-2.6c0-1.4-1.2-2.6-2.6-2.6h0c-1.4,0-2.6,1.2-2.6,2.6
			C405.6,261,406.8,262.2,408.2,262.2z"/>
		<path class="st1" d="M78.1,219.9c-2.7,0-4.1-1.6-5.3-2.9c-1.1-1.3-2-2.3-3.8-2.3c-1.8,0-2.7,1-3.8,2.3c-1.2,1.4-2.6,2.9-5.3,2.9
			c-2.7,0-4.1-1.6-5.3-2.9c-1.1-1.3-2-2.3-3.8-2.3c-1.8,0-2.7,1-3.8,2.3c-1.2,1.4-2.6,2.9-5.3,2.9c-2.7,0-4.1-1.6-5.3-2.9
			c-1.1-1.3-2-2.3-3.8-2.3c-1.8,0-2.7,1-3.8,2.3c-1.2,1.4-2.6,2.9-5.3,2.9c-0.5,0-1-0.4-1-1c0-0.5,0.4-1,1-1c1.8,0,2.7-1,3.8-2.3
			c1.2-1.4,2.6-2.9,5.3-2.9s4.1,1.6,5.3,2.9c1.1,1.3,2,2.3,3.8,2.3c1.8,0,2.7-1,3.8-2.3c1.2-1.4,2.6-2.9,5.3-2.9
			c2.7,0,4.1,1.6,5.3,2.9c1.1,1.3,2,2.3,3.8,2.3c1.8,0,2.7-1,3.8-2.3c1.2-1.4,2.6-2.9,5.3-2.9c2.7,0,4.1,1.6,5.3,2.9
			c1.1,1.3,2,2.3,3.8,2.3c0.5,0,1,0.4,1,1C79.1,219.5,78.7,219.9,78.1,219.9z"/>
		<path class="st4" d="M46.3,230.5c-3.3,3.3-3.8,8.5-1.2,12.3l-6.3,6.3c-0.3,0.3-0.3,0.7,0,1l1.8,1.8c0.3,0.3,0.7,0.3,1,0l6.3-6.3
			c4.1,2.7,9.7,2.1,13-1.9c2.9-3.5,2.9-8.7,0.1-12.3C57.2,226.7,50.4,226.5,46.3,230.5z M48.3,232.6c2.7-2.7,7.1-2.7,9.8,0
			c2.7,2.7,2.7,7.1,0,9.8c-2.7,2.7-7.1,2.7-9.8,0C45.6,239.6,45.6,235.2,48.3,232.6z"/>
	</g>
</g>
<g id="Designed_By_Freepik">
</g>
</svg>
