<?xml version="1.0" encoding="utf-8"?>
<!-- Generator: Adobe Illustrator 25.2.1, SVG Export Plug-In . SVG Version: 6.00 Build 0)  -->
<svg version="1.1" id="Illustration" xmlns="http://www.w3.org/2000/svg" xmlns:xlink="http://www.w3.org/1999/xlink" x="0px"
	 y="0px" viewBox="0 0 500 350" style="enable-background:new 0 0 500 350;" xml:space="preserve">
<style type="text/css">
	.st0{fill:#225A48;}
	.st1{fill:#FFFFFF;}
	.st2{fill:#43B38F;}
	.st3{fill:#FCC812;}
	.st4{fill:#404040;}
	.st5{fill:#32866B;}
	.st6{fill:url(#SVGID_1_);}
	.st7{fill:url(#SVGID_2_);}
	.st8{fill:url(#SVGID_3_);}
	.st9{fill:url(#SVGID_4_);}
	.st10{fill:url(#SVGID_5_);}
	.st11{fill:url(#SVGID_6_);}
	.st12{fill:url(#SVGID_7_);}
	.st13{fill:url(#SVGID_8_);}
	.st14{fill:url(#SVGID_9_);}
	.st15{fill:url(#SVGID_10_);}
	.st16{fill:url(#SVGID_11_);}
	.st17{fill:url(#SVGID_12_);}
	.st18{fill:url(#SVGID_13_);}
	.st19{fill:url(#SVGID_14_);}
	.st20{fill:url(#SVGID_15_);}
	.st21{fill:url(#SVGID_16_);}
	.st22{fill:url(#SVGID_17_);}
	.st23{fill:url(#SVGID_18_);}
	.st24{fill:url(#SVGID_19_);}
</style>
<g>
	<path class="st0" d="M490.8,153.3c-13.2-17.9-41.3-27.5-42-54.3c-0.5-17.4,7.7-26.8-5.4-41.7c-31.6-35.9-80.3-40.1-121.9-25.1
		s-74.8,45.1-121,43.3c-25.2-1-48.6-12.5-73.5-14.7c-7.7-0.7-14.9-0.1-21.6,1.6C80.2,68.5,58,91.9,49.7,117.9
		c-6.8,21.1,1.9,41.9-8.8,62.5c-11.3,22-33.7,37.3-39.3,62.6c-6.8,30.5,19.1,57,46.8,57.8c17.6,0.5,49.9-2.8,65.3-12.7
		c18.5-11.9,36.9-11.1,57.5-13.2c40.3-4.1,81,9.7,121,16c34.3,5.4,67.6,11.5,102.3,12.5c25.5,0.7,47.5,2.9,61.3-23.9
		C472.3,247.6,518.6,190.8,490.8,153.3z"/>
	<g>
		<g>
			<path class="st1" d="M101.9,210.4L101.9,210.4l-2-0.6c-0.1,0-0.2-0.2-0.3-0.3V208c-0.6-0.4-1.2-0.8-1.6-1.4l-1.5,0.2
				c-0.2,0-0.3-0.1-0.4-0.2l-0.9-1.7c-0.1-0.1,0-0.3,0.1-0.4l1-1.1c-0.2-0.7-0.2-1.4-0.2-2.1l-1.2-0.9c-0.1-0.1-0.2-0.2-0.1-0.4
				l0.6-1.9c0-0.1,0.2-0.2,0.3-0.3h1.5c0.4-0.6,0.8-1.2,1.4-1.6l-0.2-1.5c0-0.2,0.1-0.3,0.2-0.4l1.7-0.9c0.1-0.1,0.3,0,0.4,0.1
				l1.1,1c0.7-0.2,1.4-0.2,2.1-0.2l0.9-1.2c0.1-0.1,0.3-0.2,0.4-0.1l1.9,0.6c0.1,0,0.2,0.2,0.3,0.3v1.5c0.6,0.4,1.2,0.8,1.6,1.4
				l1.5-0.2c0.2,0,0.3,0.1,0.4,0.2l0.9,1.7c0.1,0.1,0,0.3-0.1,0.4l-1,1.1c0.2,0.7,0.2,1.4,0.2,2.1l1.2,0.9c0.1,0.1,0.2,0.2,0.1,0.4
				l-0.6,1.9c0,0.1-0.2,0.2-0.3,0.3h-1.5c-0.4,0.6-0.8,1.2-1.4,1.6l0.2,1.5c0,0.2-0.1,0.3-0.2,0.4l-1.7,0.9c-0.1,0.1-0.3,0-0.4-0.1
				l-1.1-1c-0.7,0.2-1.4,0.2-2.1,0.2l-0.9,1.2C102.1,210.4,102,210.4,101.9,210.4z M100.1,209.4l1.7,0.5l1-1.4h0.1
				c0.7,0.1,1.5,0,2.2-0.2h0.1l1.2,1.2l1.6-0.8l-0.3-1.7l0.1-0.1c0.6-0.5,1-1.1,1.4-1.7l0.1-0.1l1.7-0.1l0.5-1.7l-1.4-1v-0.1
				c0.1-0.7,0-1.5-0.2-2.2v-0.1l1.2-1.2l-0.8-1.6l-1.7,0.3l-0.1-0.1c-0.5-0.6-1.1-1-1.7-1.4l-0.1-0.1l-0.1-1.7l-1.7-0.5l-1,1.4h-0.1
				c-0.7-0.1-1.5,0-2.2,0.2h-0.1l-1.2-1.2l-1.6,0.8l0.3,1.7l-0.1,0.1c-0.6,0.5-1,1.1-1.4,1.7l-0.1,0.1l-1.7,0.1l-0.5,1.7l1.4,1v0.1
				c-0.1,0.7,0,1.5,0.2,2.2v0.1l-1.2,1.2l0.8,1.6l1.7-0.3l0.1,0.1c0.5,0.6,1.1,1,1.7,1.4l0.1,0.1L100.1,209.4z M110.5,197L110.5,197
				L110.5,197L110.5,197z M100.4,193.9L100.4,193.9L100.4,193.9z M103.4,206.6c-0.5,0-1-0.1-1.5-0.2c-1.3-0.4-2.3-1.2-2.9-2.4
				s-0.7-2.5-0.3-3.8c0.4-1.3,1.2-2.3,2.4-2.9c1.2-0.6,2.5-0.7,3.8-0.3s2.3,1.2,2.9,2.4c0.2,0.3,0.3,0.6,0.4,1c0,0.1,0,0.2-0.2,0.3
				c-0.1,0-0.2,0-0.3-0.2c-0.1-0.3-0.2-0.6-0.4-0.9c-0.6-1.1-1.5-1.8-2.6-2.2s-2.4-0.2-3.4,0.3s-1.8,1.5-2.2,2.6
				c-0.4,1.1-0.2,2.4,0.3,3.4c1.1,2.2,3.9,3,6,1.9c0.7-0.4,1.3-0.9,1.7-1.6c0.1-0.1,0.2-0.1,0.3-0.1c0.1,0.1,0.1,0.2,0.1,0.3
				c-0.5,0.8-1.1,1.4-1.9,1.8C105,206.5,104.2,206.6,103.4,206.6z"/>
			<path class="st1" d="M103.5,203.7L103.5,203.7c-0.6,0-1.1-0.3-1.4-0.6c-0.7-0.8-0.7-2,0.1-2.8c0.4-0.3,0.9-0.5,1.4-0.5
				s1,0.3,1.3,0.6c0.7,0.8,0.7,2-0.1,2.8C104.4,203.5,103.9,203.7,103.5,203.7z M103.4,200.2c-0.4,0-0.7,0.1-1,0.4
				c-0.3,0.3-0.5,0.6-0.5,1s0.1,0.8,0.4,1.1s0.6,0.5,1,0.5s0.8-0.1,1.1-0.4c0.6-0.6,0.7-1.5,0.1-2.1
				C104.3,200.4,103.9,200.3,103.4,200.2C103.5,200.2,103.5,200.2,103.4,200.2z"/>
		</g>
		<g>
			<path class="st1" d="M126.9,201.7c-0.2,0-0.5-0.1-0.6-0.4l-1.2-2.9c-1.4-0.3-2.8-0.7-4.1-1.4l-2.7,1.5c-0.2,0.1-0.5,0.1-0.7-0.1
				l-2.9-2.6c-0.2-0.2-0.3-0.4-0.2-0.7l1.2-2.8c-0.8-1.2-1.5-2.5-1.9-3.9l-3-0.8c-0.2-0.1-0.4-0.3-0.4-0.5l-0.2-3.9
				c0-0.3,0.1-0.5,0.4-0.6l2.9-1.2c0.3-1.4,0.7-2.8,1.4-4.1l-1.5-2.7c-0.1-0.2-0.1-0.5,0.1-0.7l2.6-2.9c0.2-0.2,0.4-0.3,0.7-0.2
				l2.8,1.2c1.2-0.8,2.5-1.5,3.9-1.9l0.8-3c0.1-0.2,0.3-0.4,0.5-0.4l3.9-0.2c0.3,0,0.5,0.1,0.6,0.4l1.2,2.8c1.4,0.3,2.8,0.7,4.1,1.4
				l2.7-1.5c0.2-0.1,0.5-0.1,0.7,0.1l2.9,2.6c0.2,0.2,0.3,0.4,0.2,0.7l-1.2,2.8c0.8,1.2,1.5,2.5,1.9,3.9l3,0.8
				c0.2,0.1,0.4,0.3,0.4,0.5l0.2,3.9c0,0.3-0.1,0.5-0.4,0.6l-2.9,1.2c-0.3,1.4-0.7,2.8-1.4,4.1l1.5,2.7c0.1,0.2,0.1,0.5-0.1,0.7
				l-2.6,2.9c-0.2,0.2-0.4,0.3-0.7,0.2l-2.8-1.2c-1.2,0.8-2.5,1.5-3.9,1.9l-0.8,3c-0.1,0.2-0.3,0.4-0.5,0.4L126.9,201.7L126.9,201.7
				z M121,196.3l0.2,0.1c1.3,0.7,2.8,1.2,4.3,1.5h0.2l1.3,3.1l3.8-0.2l0.9-3.3l0.2-0.1c1.4-0.4,2.8-1.1,4.1-2l0.2-0.1l3.1,1.3
				l2.5-2.9l-1.7-3l0.1-0.2c0.7-1.3,1.2-2.8,1.5-4.3V186l3.1-1.3l-0.2-3.8l-3.3-0.9l-0.1-0.2c-0.4-1.4-1.1-2.8-2-4.1l-0.1-0.2
				l1.3-3.1l-2.9-2.5l-3,1.7l-0.2-0.1c-1.3-0.7-2.8-1.2-4.3-1.5h-0.2l-1.3-3.1l-3.8,0.2l-0.9,3.3l-0.2,0.1c-1.4,0.4-2.8,1.1-4.1,2
				l-0.2,0.1l-3.1-1.3l-2.5,2.9l1.7,3l-0.1,0.2c-0.7,1.3-1.2,2.8-1.5,4.3v0.2l-3.1,1.3l0.2,3.8l3.3,0.9l0.1,0.2
				c0.4,1.4,1.1,2.8,2,4.1l0.1,0.2l-1.3,3.1l2.9,2.5L121,196.3z M144.6,181.2L144.6,181.2L144.6,181.2z M127.8,193.8
				c-2.4,0-4.7-0.9-6.5-2.5c-2-1.7-3.1-4.1-3.3-6.8c-0.3-5.4,3.8-10,9.2-10.4c2.6-0.2,5.1,0.7,7.1,2.5c2,1.7,3.1,4.1,3.3,6.8
				c0,0.7,0,1.4-0.1,2.1c0,0.2-0.2,0.3-0.4,0.3s-0.3-0.2-0.3-0.4c0.1-0.6,0.1-1.3,0.1-1.9c-0.1-2.4-1.2-4.7-3-6.3s-4.2-2.4-6.6-2.3
				c-5,0.3-8.9,4.6-8.6,9.6s4.6,8.9,9.6,8.6c1.7-0.1,3.2-0.6,4.6-1.6c0.2-0.1,0.4-0.1,0.5,0.1c0.1,0.2,0.1,0.4-0.1,0.5
				c-1.5,1-3.2,1.6-4.9,1.7C128.2,193.8,128,193.8,127.8,193.8z"/>
			<path class="st1" d="M127.9,187.9c-1.6,0-3.1-1-3.6-2.7c-0.3-1-0.2-2,0.3-2.9s1.3-1.6,2.2-1.9c2-0.6,4.2,0.5,4.8,2.5
				c0.3,1,0.2,2-0.3,2.9s-1.3,1.6-2.2,1.9C128.6,187.8,128.2,187.9,127.9,187.9z M127.9,180.9c-0.3,0-0.6,0-0.9,0.1
				c-0.8,0.3-1.5,0.8-1.8,1.5c-0.4,0.7-0.5,1.6-0.2,2.4c0.5,1.7,2.3,2.6,3.9,2.1c0.8-0.3,1.5-0.8,1.8-1.5c0.4-0.7,0.5-1.6,0.2-2.4
				C130.4,181.8,129.2,180.9,127.9,180.9z"/>
		</g>
	</g>
	<g>
		<g>
			<path class="st2" d="M425.5,138c0.3-1.1,0.1-2.2-0.4-3.2c-8.6-14.3-39.4-65.7-40.3-66.2C383.7,68,347.3,43,347.3,43
				c-6.7-4.6-8,0.7-8,0.7l-6.7,53.9l40.5,65.9c1.1,1.9,3.5,2.5,5.5,1.5l45-24.4C424.5,140,425.2,139.1,425.5,138z M345.4,62.4
				c-2.8-1.6-3.8-5.1-2.3-8c1.6-2.8,5.1-3.8,8-2.3c2.8,1.6,3.8,5.1,2.3,8C351.8,62.9,348.3,64,345.4,62.4z"/>
			<g>
				<path class="st1" d="M368,107.1c5.3,7.2,4.9,13.2,1.5,15.8c-3.5,2.6-9.2,1-14.1-5.5c-4.8-6.5-5.2-12.8-1.3-15.7
					C358.1,98.6,363.4,100.9,368,107.1z M380.2,137.2l-11.5-46.4l2.7-2l11.5,46.4L380.2,137.2z M358.9,114.4c2.9,4,6.1,6.1,8,4.7
					s0.8-4.8-2.3-9c-2.8-3.8-5.9-6.3-7.9-4.8C354.8,106.7,356,110.5,358.9,114.4z M396,108.5c5.3,7.2,5,13.2,1.5,15.8
					c-3.5,2.6-9.2,1-14.1-5.6c-4.8-6.5-5.2-12.8-1.3-15.7C386.1,100,391.4,102.3,396,108.5z M386.9,115.8c2.8,3.9,6.1,6.1,8,4.7
					s0.8-4.8-2.3-9c-2.8-3.9-5.9-6.3-7.9-4.8C382.7,108.1,384,111.9,386.9,115.8z"/>
			</g>
		</g>
		<g>
			<path class="st3" d="M346.2,58.6c-1,0-1.9-0.6-2.2-1.5l0,0c-0.2-0.6-6-13.9-23.2-16.7c-1.3-0.2-2.2-1.5-2-2.8s1.5-2.2,2.8-2
				c19.9,3.3,26.6,18.9,26.9,19.6c0.5,1.2-0.1,2.7-1.3,3.2C346.9,58.5,346.5,58.6,346.2,58.6z"/>
		</g>
	</g>
	<g>
		<g>
			<polygon class="st3" points="384.2,178.3 330.4,167 336,174.4 325.8,182.9 385.3,188.5 			"/>
			<polygon class="st3" points="391.6,178.3 445.4,167 439.8,174.4 450,182.9 390.5,188.5 			"/>
		</g>
		<g>
			<path class="st3" d="M346.6,148.8c1.2-0.8,2.6-1,4-0.7l9.5,2.1c1.2,0.3,2.3,1,3,2.1l19.9,30.3l3.5-3.3L365.8,143
				c-1.6-2.8-4.5-4.6-7.8-4.8l-8.6-0.4c-6.1-0.3-11.7,3.2-14.1,8.8l-3.2,7.4c-1.6,3.6,0,7.8,3.6,9.5l43,20.3l1.6-1.4L347.1,159
				c-2.2-1.5-3.3-4.2-2.8-6.9C344.6,150.8,345.4,149.6,346.6,148.8z"/>
			<path class="st3" d="M426.6,148.8c-1.2-0.8-2.6-1-4-0.7l-9.5,2.1c-1.2,0.3-2.3,1-3,2.1l-19.9,30.3l-3.5-3.3l20.7-36.3
				c1.6-2.8,4.5-4.6,7.8-4.8l8.6-0.4c6.1-0.3,11.7,3.2,14.1,8.8l3.2,7.4c1.6,3.6,0,7.8-3.6,9.5l-43,20.3l-1.6-1.4l33.2-23.3
				c2.2-1.5,3.3-4.2,2.8-6.9C428.6,150.8,427.8,149.6,426.6,148.8z"/>
		</g>
		<path class="st4" d="M326.6,192.6l5.1,107.2c0.1,2.6,2.4,4.7,5,4.7h99.6c2.6,0,4.9-2.1,5-4.7l5.1-107.2L326.6,192.6L326.6,192.6z"
			/>
		<rect x="374.5" y="189.7" class="st3" width="23.7" height="114.8"/>
		<path class="st4" d="M453.6,182.7c0-1.3-1-2.3-2.3-2.3H322.1c-1.3,0-2.3,1-2.3,2.3v11.7c0,1.3,1,2.3,2.3,2.3h129.2
			c1.3,0,2.3-1,2.3-2.3L453.6,182.7L453.6,182.7z"/>
		<rect x="374.5" y="179" class="st3" width="23.7" height="17.2"/>
	</g>
	<g>
		<g>
			<path class="st2" d="M323.3,303.7c-0.1,5.7-5,10.3-11,10.4l-145,0.3c-6,0-11.1-4.6-11.2-10.4l-6.8-270.1
				c-0.2-6.4,4.9-11.6,11.3-11.6l154,0.7c6.4,0,11.5,5.3,11.4,11.6L323.3,303.7z"/>
			<path class="st5" d="M310.2,50.3c0-6.2-5-11.2-11.3-11.2l-122.2-0.5c-6.3,0-11.4,5-11.2,11.2l5,229.6c0.1,5.6,5.1,10.2,11.1,10.2
				l116.1-0.2c6,0,10.9-4.6,10.9-10.2L310.2,50.3z"/>
			<path class="st4" d="M256.2,30.3c0,1.2-1,2.2-2.2,2.2l-31.8-0.1c-1.2,0-2.2-1-2.2-2.2l0,0c0-1.2,0.9-2.2,2.1-2.2l31.8,0.1
				C255.2,28.1,256.2,29.1,256.2,30.3L256.2,30.3z"/>
		</g>
	</g>
	<g>
		<g>
			<path class="st3" d="M161,38.7c-0.8,0-1.5,0.4-2,1.1c-8.9,14.1-17.9,28.3-26.8,42.3c8.8,0,17.6,0,26.4,0
				c6.9-14,13.8-28.7,20.6-43.4C173.1,38.7,167.1,38.7,161,38.7z"/>
			<path class="st4" d="M184.9,82c-8.8,0-17.6,0-26.4,0c6.9-14.5,13.8-28.9,20.6-43.4c6.5,0,13,0,19.5,0
				C194.1,53.1,189.5,67.5,184.9,82z"/>
			<g>
				<path class="st3" d="M211.3,82c-8.8,0-17.6,0-26.4,0c4.6-14.5,9.2-28.9,13.8-43.4c6.5,0,13,0,19.5,0
					C215.9,53.1,213.6,67.5,211.3,82z"/>
			</g>
			<path class="st4" d="M237.7,82c-8.8,0-17.6,0-26.4,0c2.3-14.5,4.6-28.9,6.9-43.4c6.5,0,13,0,19.5,0
				C237.7,53.1,237.7,67.5,237.7,82z"/>
			<g>
				<path class="st3" d="M264,82c-8.8,0-17.6,0-26.4,0c0-14.5,0-28.9,0-43.4c6.5,0,13,0,19.5,0C259.4,53.1,261.7,67.5,264,82z"/>
			</g>
			<path class="st4" d="M290.4,82c-8.8,0-17.6,0-26.4,0c-2.3-14.5-4.6-28.9-6.9-43.4c6.5,0,13,0,19.5,0
				C281.2,53.1,285.8,67.5,290.4,82z"/>
			<g>
				<path class="st3" d="M316.7,82c-8.8,0-17.6,0-26.4,0c-4.6-14.5-9.2-28.9-13.8-43.4c6.5,0,13,0,19.5,0
					C303,53.1,309.9,67.5,316.7,82z"/>
			</g>
			<path class="st4" d="M316.3,39.7c-0.4-0.7-1.2-1.1-2-1.1c-6.1,0-12.1,0-18.2,0C303,53.3,309.9,68,316.7,82c8.8,0,17.6,0,26.4,0
				C334.1,68,325.2,53.8,316.3,39.7z"/>
		</g>
		<g>
			<path class="st3" d="M132.2,82.1v7.1c0,6.3,6,11,13.3,11h0.3c7.3,0,13.1-4.7,13.1-11v-7.1H132.2z"/>
			<path class="st4" d="M158.8,82.1v7.1c0,6.3,5.6,11,12.7,11h0.3c7.1,0,12.8-4.7,12.8-11v-7.1H158.8z"/>
		</g>
		<g>
			<path class="st3" d="M184.6,82.1v7.1c0,6.3,6.3,11,13.5,11h0.3c7.3,0,12.9-4.7,12.9-11v-7.1H184.6z"/>
			<path class="st4" d="M211.3,82.1v7.1c0,6.3,5.8,11,13,11h0.3c7.1,0,13.2-4.7,13.2-11v-7.1H211.3z"/>
		</g>
		<g>
			<path class="st3" d="M237.7,82.1v7.1c0,6.3,5.8,11,13.1,11h0.3c7.3,0,13.1-4.7,13.1-11v-7.1H237.7z"/>
			<path class="st4" d="M264.2,82.1v7.1c0,6.3,5.6,11,12.7,11h0.3c7.1,0,13.2-4.7,13.2-11v-7.1H264.2z"/>
		</g>
		<g>
			<path class="st3" d="M290.4,82.1v7.1c0,6.3,5.8,11,13.1,11h0.3c7.3,0,13.3-4.7,13.3-11v-7.1H290.4z"/>
			<path class="st4" d="M317.1,82.1v7.1c0,6.3,5.4,11,12.5,11h0.3c7.1,0,13-4.7,13-11v-7.1H317.1z"/>
		</g>
	</g>
	<g>
		<g>
			<g>
				<path class="st4" d="M22.2,305.9h127.3v-25.5H22.2C24.9,280.5,24.9,305.9,22.2,305.9z"/>
				<path class="st3" d="M149.5,299.6v-11.7c0-4.1-2.5-7.4-5.6-7.4H18.5c-0.1,0-0.2-0.1-0.2-0.2V275c0-0.1,0.1-0.2,0.2-0.2H152
					c3,0,7.9,4.8,7.9,10.7v16.3c0,5.6-4.7,10.1-7.5,10.1H18.5c-0.1,0-0.2-0.1-0.2-0.2v-5.3c0-0.1,0.1-0.2,0.2-0.2h126.2
					C147.4,305.9,149.5,303.1,149.5,299.6z"/>
			</g>
			<path class="st1" d="M146,285.9H26.6c-0.1,0-0.2-0.1-0.2-0.2s0.1-0.2,0.2-0.2H146c0.1,0,0.2,0.1,0.2,0.2S146.1,285.9,146,285.9z"
				/>
			<path class="st1" d="M146,289.7H26.6c-0.1,0-0.2-0.1-0.2-0.2s0.1-0.2,0.2-0.2H146c0.1,0,0.2,0.1,0.2,0.2S146.1,289.7,146,289.7z"
				/>
			<path class="st1" d="M146,293.5H26.6c-0.1,0-0.2-0.1-0.2-0.2s0.1-0.2,0.2-0.2H146c0.1,0,0.2,0.1,0.2,0.2S146.1,293.5,146,293.5z"
				/>
			<path class="st1" d="M146,297.3H26.6c-0.1,0-0.2-0.1-0.2-0.2s0.1-0.2,0.2-0.2H146c0.1,0,0.2,0.1,0.2,0.2
				C146.2,297.2,146.1,297.3,146,297.3z"/>
			<path class="st1" d="M146,301.1H26.6c-0.1,0-0.2-0.1-0.2-0.2s0.1-0.2,0.2-0.2H146c0.1,0,0.2,0.1,0.2,0.2S146.1,301.1,146,301.1z"
				/>
		</g>
		<g>
			<path class="st3" d="M149.3,273.4H53.5c-1.9,0-3.5-1.6-3.5-3.5v-17.8c0-1.9,1.6-3.5,3.5-3.5h95.9c1.9,0,3.5,1.6,3.5,3.5v17.8
				C152.8,271.9,151.3,273.4,149.3,273.4z"/>
			<rect x="61.6" y="251.4" class="st4" width="12.1" height="19.1"/>
			<rect x="75.5" y="251.4" class="st4" width="4.5" height="19.1"/>
		</g>
	</g>
	<g>
		<path class="st3" d="M280,233.3c0,8.7-7.1,15.8-15.8,15.8h-52.7c-8.7,0-15.8-7.1-15.8-15.8l0,0c0-8.7,7.1-15.8,15.8-15.8h52.7
			C272.9,217.5,280,224.6,280,233.3L280,233.3z"/>
	</g>
	<g>
		<g>
			<path class="st2" d="M165.9,302.7c0,0-19.5,21.5-35.8,12.4c-13.1-7.3,5.5-5.4,21.3-8.9c1.2-0.3,0.9-2.1-0.3-2
				c-12.4,1.6-31.2,3-34.5-3.5c-4.9-9.7-0.1-6.6,14.9-5.2c15.1,1.4,18-2.3,8.1-4.6c-9.8-2.3-25.5,2.8-29.1-2s-5.6-14.2-7.1-18.3
				c-1.5-4.1,18.7-10.2,24.2-4.8c5.5,5.3,9.9,17.2,16.4,19.4c6.5,2.2-0.5-8.4-4.8-13.8s-6-9.5,2.6-8.2s13.1,11.8,14,19.6
				c0.9,7.8,3.9,12.2,3.8,8.3c-0.1-3.9-1.5-15.7-4.3-19.3C152.6,268.5,172.1,272.8,165.9,302.7z"/>
			<path class="st1" d="M164.3,302.9c-0.1,0-0.2,0-0.3,0c-16.8-14.7-44.9-25.3-45.2-25.4c-0.1,0-0.2-0.2-0.2-0.3
				c0-0.1,0.2-0.2,0.3-0.1c0.3,0.1,28.5,10.8,45.3,25.5c0.1,0.1,0.1,0.3,0,0.4C164.4,302.9,164.4,302.9,164.3,302.9z"/>
		</g>
		<g>
			<path class="st4" d="M177.7,316.4c0,0-35.7,1.2-41.6-21c-4.8-17.8,9.5,0.2,26,11.2c1.3,0.9,2.7-1,1.4-2
				c-12-9.5-29.3-25-26.4-33.4c4.4-12.7,5.7-5.7,17.3,8.7c11.6,14.5,17.4,13.9,11,3.2c-6.4-10.6-24.2-20-23.1-27.3
				c1.1-7.3,7.7-17.1,10.1-21.9c2.3-4.8,25,7.8,24.9,17.2c0,9.4-6.8,23.4-3.1,31c3.6,7.6,7-7.6,8.1-16s3.2-13.4,9.4-4.7
				c6.2,8.7,0.8,21.6-5.3,29.1s-7.4,13.9-4.1,10.5c3.3-3.4,12.6-14.8,13.4-20.3C196.5,275.4,209.3,296.4,177.7,316.4z"/>
			<path class="st1" d="M176.2,315.2c-0.1,0-0.2-0.1-0.2-0.3c-1.4-27.3-16-61.2-16.2-61.5c-0.1-0.2,0-0.3,0.2-0.4
				c0.2-0.1,0.3,0,0.4,0.2c0.1,0.3,14.8,34.3,16.2,61.8c0,0.2-0.1,0.3-0.3,0.3C176.3,315.2,176.2,315.2,176.2,315.2z"/>
		</g>
	</g>
	<g>
		<g>
			<path class="st4" d="M291,261.5l-13.8-2.5c-0.2,0-0.4,0.1-0.4,0.3l-4.8,20.9c0,0.1,0,0.2,0.1,0.3c0.1,0.1,0.2,0.1,0.3,0.2
				l18.7,2.8c0.1,0,0.2,0,0.3-0.1c0.1-0.1,0.1-0.2,0.1-0.3V262C291.3,261.6,291.2,261.5,291,261.5z"/>
			<path class="st1" d="M280.7,260.6c0,0.3-0.2,0.5-0.5,0.5s-0.5-0.2-0.5-0.5s0.2-0.5,0.5-0.5S280.7,260.3,280.7,260.6z"/>
			<path class="st1" d="M287.6,262.1c0,0.3-0.2,0.5-0.5,0.5s-0.5-0.2-0.5-0.5s0.2-0.5,0.5-0.5C287.3,261.6,287.6,261.8,287.6,262.1z
				"/>
		</g>
		
			<linearGradient id="SVGID_1_" gradientUnits="userSpaceOnUse" x1="280.1566" y1="91.3161" x2="287.1537" y2="91.3161" gradientTransform="matrix(1 0 0 -1 0 348.8661)">
			<stop  offset="0" style="stop-color:#DAE3FE"/>
			<stop  offset="1" style="stop-color:#E9EFFD"/>
		</linearGradient>
		<path class="st6" d="M287.1,262.2L287.1,262.2C287,262.2,287,262.1,287.1,262.2c-0.1-0.2-0.1-8.8-2.2-9.1h-0.1
			c-2.1,0-4.3,7.1-4.4,7.5c0,0,0,0.1-0.1,0.1c0,0-0.1,0-0.1-0.1c0-0.2,1.7-5.5,3.5-7.2c0.4-0.4,0.8-0.5,1.2-0.5
			C287.1,253.2,287.2,261.7,287.1,262.2C287.2,262.1,287.1,262.2,287.1,262.2z"/>
		
			<linearGradient id="SVGID_2_" gradientUnits="userSpaceOnUse" x1="294.2913" y1="136.8119" x2="294.6303" y2="127.3183" gradientTransform="matrix(1 0 0 -1 0 348.8661)">
			<stop  offset="0" style="stop-color:#FF928E"/>
			<stop  offset="1" style="stop-color:#FEB3B1"/>
		</linearGradient>
		<path class="st7" d="M305.9,227.7c0,0-7.6,17.3-18.4,20c-2.1,0.4-4.5,0.2-5.6,0.9c-1.2,0.8,0.3,2.9,0.9,4.4
			c0.6,1.6,0.8,0.8,1.1,0.3c0.3-0.5-0.9-2.1,0.6-2.7c1.5-0.6,1,0.3,0.3,1.2c-0.7,0.8-0.7,2.1-0.6,2.2c0,0.1,1.2-0.5,2.2-1
			c0.9-0.4,1.4-1.6,1.5-1.9c2.1-0.2,15.5-2.3,21.2-16.4C309.2,234.6,309.7,220.7,305.9,227.7z"/>
		
			<linearGradient id="SVGID_3_" gradientUnits="userSpaceOnUse" x1="332.0849" y1="83.949" x2="337.5216" y2="83.949" gradientTransform="matrix(1 0 0 -1 0 348.8661)">
			<stop  offset="0" style="stop-color:#DAE3FE"/>
			<stop  offset="1" style="stop-color:#E9EFFD"/>
		</linearGradient>
		<path class="st8" d="M337.4,268.5L337.4,268.5c-0.1-0.1-1-5.8-2.8-6.8c-0.3-0.2-0.6-0.2-0.9-0.1c-2.4,0.9-1.2,6.3-1.2,6.4
			c0,0,0,0.1-0.1,0.1c0,0-0.1,0-0.1-0.1c-0.1-0.2-1.2-5.6,1.3-6.6c0.4-0.1,0.7-0.1,1.1,0.1C336.6,262.6,337.5,268.2,337.4,268.5
			C337.5,268.5,337.5,268.5,337.4,268.5L337.4,268.5z"/>
		<polygon class="st2" points="339.8,268 330.9,267.2 328.9,268.3 330.6,270.5 338.8,269.6 		"/>
		<path class="st2" d="M338.5,322.5l0.1,3.4c0,0.6,0.5,1.2,1.1,1.3c1.1,0.2,2.8,0.5,4.5,0.4c0.8,0,1.3-0.7,1.1-1.5
			c-0.3-1.3-0.9-3.4-1.9-4.6l-3.8-0.3C339.1,321.3,338.5,321.8,338.5,322.5z"/>
		
			<linearGradient id="SVGID_4_" gradientUnits="userSpaceOnUse" x1="284.1674" y1="219.9229" x2="294.6339" y2="342.2508" gradientTransform="matrix(0.997 7.770000e-02 7.770000e-02 -0.997 5.1782 547.6609)">
			<stop  offset="0" style="stop-color:#FF928E"/>
			<stop  offset="1" style="stop-color:#FEB3B1"/>
		</linearGradient>
		<path class="st9" d="M312.2,280.5l-0.9,3.7c0,0,0.4,21.7,0.2,30.3c0,1.4-0.5,2.7-1.3,3.8L306,324l9.8-4.8l0.3-1.1l-1.4-2.2l3.9-24
			c0.2-1.4,0-2.9-0.5-4.2l-1.7-3.8L312.2,280.5z"/>
		<path class="st2" d="M305.2,324.8l3,0.2c0.6,0,1.1-0.2,1.5-0.6c1-1.1,3.2-3.4,4.1-3.3c1.3,0,0.7,4.4,0.7,4.4l0.7,0.1l1.3-5.4
			c0.3-1.4-0.3-2.8-1.4-3.5l0,0c0,0-0.4,2.1-2.1,2.9c-1.6,0.8-6.6,3.8-6.6,3.8s-0.6-0.1-1.2-0.1
			C304.3,323.3,304.3,324.8,305.2,324.8z"/>
		
			<linearGradient id="SVGID_5_" gradientUnits="userSpaceOnUse" x1="305.1959" y1="218.103" x2="315.6654" y2="340.4651" gradientTransform="matrix(0.997 7.770000e-02 7.770000e-02 -0.997 5.1782 547.6609)">
			<stop  offset="0" style="stop-color:#FF928E"/>
			<stop  offset="1" style="stop-color:#FEB3B1"/>
		</linearGradient>
		<path class="st10" d="M324.9,283.3c0,0,10.6,24.6,12.2,30.1s1.9,10.1,1.9,10.5c0,0.7,0.8,1.4,3.1,1.6c1.2,0.1,1.8-0.3,2.1-0.8
			c0.3-0.4,0.3-0.9,0.2-1.3c-0.6-1.5-2.5-6.4-3.2-8.5c-0.8-2.6-2.1-14.2-3-18.3c-0.9-4.1-1.9-8.5-6.8-12.9
			C331.3,283.8,328,280,324.9,283.3z"/>
		<path class="st3" d="M320.1,244c-2.2-13.9,6.6-20.9,6.6-20.9c-2.6-2.9-6.6-5.1-9.6-6.5c-2.7-1.3-6-0.8-8.2,1.2
			c-2.5,2.2-5.2,5.2-4.9,8.1c0.4,3,4.9,18.4,4.9,18.4S313.8,247.1,320.1,244z"/>
		<path class="st3" d="M326.6,251.3c-1-4-6.6-7.3-6.6-7.3c-6.2,3.1-11.2,0.2-11.2,0.2s-1.5,4.4-1,8.6c0.5,4.2,3.5,31.4,3.5,31.4
			c7.9,2.2,20.4,0,20.4,0C327.3,274.7,327.6,255.3,326.6,251.3z"/>
		
			<linearGradient id="SVGID_6_" gradientUnits="userSpaceOnUse" x1="283.3862" y1="345.6844" x2="281.9694" y2="373.7626" gradientTransform="matrix(0.997 7.770000e-02 7.770000e-02 -0.997 5.1782 547.6609)">
			<stop  offset="0" style="stop-color:#FF928E"/>
			<stop  offset="1" style="stop-color:#FEB3B1"/>
		</linearGradient>
		<path class="st11" d="M316.6,207.9l1.7,11.9c0.2,1.1-0.8,0.8-1.8,0.5c-1.7-0.5-3.8-1.3-4.5-2.7c-0.1-0.1-0.1-0.3-0.1-0.5l-0.5-8.2
			c0-0.7,0.4-1.3,1-1.5l2.2-0.8C315.5,206.5,316.4,207,316.6,207.9z"/>
		<polygon class="st2" points="344.1,289.4 347.2,287.7 339.8,268 338.1,269.2 		"/>
		
			<linearGradient id="SVGID_7_" gradientUnits="userSpaceOnUse" x1="330.2" y1="82.5162" x2="335.9473" y2="82.5162" gradientTransform="matrix(1 0 0 -1 0 348.8661)">
			<stop  offset="0" style="stop-color:#DAE3FE"/>
			<stop  offset="1" style="stop-color:#E9EFFD"/>
		</linearGradient>
		<path class="st12" d="M335.8,270.6L335.8,270.6C335.8,270.6,335.7,270.6,335.8,270.6c-0.1-0.1,0.3-5.8-1.3-7.7
			c-0.3-0.4-0.7-0.5-1.1-0.6c-0.4,0-0.8,0.1-1.1,0.4c-1.8,1.6-1.9,7.3-1.9,7.4c0,0,0,0.1-0.1,0.1c0,0-0.1,0-0.1-0.1
			c0-0.2,0.1-5.8,1.9-7.5c0.4-0.3,0.8-0.5,1.3-0.5s0.9,0.2,1.2,0.6C336.3,264.8,335.9,270.5,335.8,270.6
			C335.9,270.6,335.9,270.6,335.8,270.6z"/>
		
			<linearGradient id="SVGID_8_" gradientUnits="userSpaceOnUse" x1="299.9727" y1="323.5937" x2="296.1521" y2="362.8914" gradientTransform="matrix(0.997 7.770000e-02 7.770000e-02 -0.997 5.1782 547.6609)">
			<stop  offset="0" style="stop-color:#FF928E"/>
			<stop  offset="1" style="stop-color:#FEB3B1"/>
		</linearGradient>
		<path class="st13" d="M322.4,228.4c0.4,0.6,7.1,8.5,9,17.3s1.3,14.7,1.3,14.7s-1.9,1.4-1.2,2.5c0.7,1,0.5,1.7,1.4,1.9
			c0.9,0.2,2,0.5,1.9-1.3s2-2.1,1.6-3.2c-0.3-1.1,2-29.5-9.4-37.3c-0.1,0-0.1-0.1-0.2-0.1C321.8,224.8,321.7,227.5,322.4,228.4z"/>
		<polygon class="st2" points="328.9,268.4 338.1,269.2 344.1,289.4 331,289.8 		"/>
		<g>
			<path class="st3" d="M344.3,289.1L344.3,289.1c-0.1,0-0.1-0.1-0.1-0.2l0.6-2.2l-4.6-14.4c0-0.1,0-0.1,0.1-0.2
				c0.1,0,0.1,0,0.2,0.1l4.7,14.4c0,0,0,0,0,0.1l-0.6,2.3C344.4,289.1,344.4,289.1,344.3,289.1z"/>
		</g>
		<g>
			
				<linearGradient id="SVGID_9_" gradientUnits="userSpaceOnUse" x1="781.4885" y1="424.5544" x2="781.6016" y2="414.7213" gradientTransform="matrix(0.997 7.770000e-02 7.770000e-02 -0.997 -465.3438 641.5997)">
				<stop  offset="0" style="stop-color:#FF928E"/>
				<stop  offset="1" style="stop-color:#FEB3B1"/>
			</linearGradient>
			<path class="st14" d="M347,287.7L347,287.7l-1.6-0.8c-0.1,0-0.1-0.1-0.1-0.2s0.1-0.1,0.2-0.1l1.6,0.8c0.1,0,0.1,0.1,0.1,0.2
				C347.1,287.7,347,287.7,347,287.7z"/>
		</g>
		<g>
			
				<linearGradient id="SVGID_10_" gradientUnits="userSpaceOnUse" x1="321.5194" y1="151.6275" x2="310.6" y2="139.0281" gradientTransform="matrix(1 0 0 -1 0 348.8661)">
				<stop  offset="0" style="stop-color:#FF928E"/>
				<stop  offset="1" style="stop-color:#FEB3B1"/>
			</linearGradient>
			<path class="st15" d="M314.7,198.4c0,0-3.6,1-6.6,5.6s-1.6,7.2,0.6,7.8c2.1,0.6,5.4,1,9.3-1.7
				C321.9,207.4,319.4,197.3,314.7,198.4z"/>
			<path class="st4" d="M316,207.2c0,0,3.6-6.9-2.9-7.9l-1.7,0.9c0,0-1.8-4.3,2.3-5.7c4.1-1.4,9.7,1.1,10.6,6.5s-0.5,8.7-3.6,10.8
				s-3.8-0.9-3.8-0.9s1.8-2.1,1.4-3.5c-0.4-1.3-2,0-2,0L316,207.2z"/>
			
				<linearGradient id="SVGID_11_" gradientUnits="userSpaceOnUse" x1="324.9789" y1="148.6292" x2="314.0595" y2="136.0299" gradientTransform="matrix(1 0 0 -1 0 348.8661)">
				<stop  offset="0" style="stop-color:#FF928E"/>
				<stop  offset="1" style="stop-color:#FEB3B1"/>
			</linearGradient>
			<path class="st16" d="M316.6,208.1c0,0,1.8-3.6,3.4-1.8c1.5,1.7-1.9,3.3-3.2,3.7L316.6,208.1z"/>
			<path class="st4" d="M321.4,199.9c0,0,12.5-3.8,14.5,9.2c2.1,13,3.5,17.2,6.6,15c0,0-0.5,4.9-6.5,2.7
				C320.6,221.1,330,203,321.4,199.9z"/>
		</g>
	</g>
	<g>
		<path class="st4" d="M99.6,176.6l0.6,0.3c0.2,0.1,0.2,0.3,0.2,0.5c-0.1,0.2-0.3,0.2-0.5,0.2l-0.6-0.3c-0.2-0.1-0.2-0.3-0.2-0.5
			C99.2,176.6,99.4,176.5,99.6,176.6L99.6,176.6z"/>
		<path class="st4" d="M101.6,177.5l0.6,0.3c0.2,0.1,0.2,0.3,0.2,0.5c-0.1,0.2-0.3,0.2-0.5,0.2l-0.6-0.3c-0.2-0.1-0.2-0.3-0.2-0.5
			C101.2,177.5,101.4,177.5,101.6,177.5L101.6,177.5z"/>
		<path class="st4" d="M103.6,178.5l0.6,0.3c0.2,0.1,0.2,0.3,0.2,0.5c-0.1,0.2-0.3,0.2-0.5,0.2l-0.6-0.3c-0.2-0.1-0.2-0.3-0.2-0.5
			C103.3,178.5,103.5,178.4,103.6,178.5L103.6,178.5z"/>
		<path class="st4" d="M105.7,179.5l0.6,0.3c0.2,0.1,0.2,0.3,0.2,0.5c-0.1,0.2-0.3,0.2-0.5,0.2l-0.6-0.3c-0.2-0.1-0.2-0.3-0.2-0.5
			C105.3,179.5,105.5,179.4,105.7,179.5L105.7,179.5z"/>
		<path class="st4" d="M107.7,180.5l0.6,0.3c0.2,0.1,0.2,0.3,0.2,0.5c-0.1,0.2-0.3,0.2-0.5,0.2l-0.6-0.3c-0.2-0.1-0.2-0.3-0.2-0.5
			C107.3,180.5,107.5,180.4,107.7,180.5L107.7,180.5z"/>
		<path class="st4" d="M109.7,181.6l0.6,0.3c0.2,0.1,0.2,0.3,0.1,0.5s-0.3,0.2-0.5,0.1l-0.6-0.3c-0.2-0.1-0.2-0.3-0.1-0.5
			C109.3,181.5,109.5,181.5,109.7,181.6L109.7,181.6z"/>
		<path class="st4" d="M111.7,182.6l0.6,0.3c0.2,0.1,0.2,0.3,0.1,0.5s-0.3,0.2-0.5,0.1l-0.6-0.3c-0.2-0.1-0.2-0.3-0.1-0.5
			C111.4,182.6,111.6,182.5,111.7,182.6L111.7,182.6z"/>
		<path class="st4" d="M113.7,183.6l0.6,0.3c0.2,0.1,0.2,0.3,0.1,0.5s-0.3,0.2-0.5,0.1l-0.6-0.3c-0.2-0.1-0.2-0.3-0.1-0.5
			C113.4,183.6,113.6,183.5,113.7,183.6L113.7,183.6z"/>
		<path class="st4" d="M115.7,184.7l0.6,0.3c0.2,0.1,0.2,0.3,0.1,0.5s-0.3,0.2-0.5,0.1l-0.6-0.3c-0.2-0.1-0.2-0.3-0.1-0.5
			C115.4,184.6,115.6,184.6,115.7,184.7L115.7,184.7z"/>
		<path class="st4" d="M117.7,185.7l0.6,0.3c0.2,0.1,0.2,0.3,0.1,0.5s-0.3,0.2-0.5,0.1l-0.6-0.3c-0.2-0.1-0.2-0.3-0.1-0.5
			C117.4,185.7,117.6,185.6,117.7,185.7L117.7,185.7z"/>
		<path class="st4" d="M119.7,186.8l0.6,0.3c0.2,0.1,0.2,0.3,0.1,0.5s-0.3,0.2-0.5,0.1l-0.6-0.3c-0.2-0.1-0.2-0.3-0.1-0.5
			C119.4,186.8,119.6,186.7,119.7,186.8L119.7,186.8z"/>
		<path class="st4" d="M121.7,187.9l0.6,0.3c0.2,0.1,0.2,0.3,0.1,0.5s-0.3,0.2-0.5,0.1l-0.6-0.3c-0.2-0.1-0.2-0.3-0.1-0.5
			C121.3,187.9,121.6,187.8,121.7,187.9L121.7,187.9z"/>
		<path class="st4" d="M123.7,189l0.6,0.3c0.2,0.1,0.2,0.3,0.1,0.5s-0.3,0.2-0.5,0.1l-0.6-0.3c-0.2-0.1-0.2-0.3-0.1-0.5
			C123.3,188.9,123.5,188.9,123.7,189L123.7,189z"/>
		<path class="st4" d="M125.7,190.1l0.6,0.3c0.2,0.1,0.2,0.3,0.1,0.5s-0.3,0.2-0.5,0.1l-0.6-0.3c-0.2-0.1-0.2-0.3-0.1-0.5
			C125.3,190.1,125.5,190,125.7,190.1L125.7,190.1z"/>
		<path class="st4" d="M127.6,191.2l0.6,0.3c0.2,0.1,0.2,0.3,0.1,0.5c-0.1,0.2-0.3,0.2-0.5,0.1l-0.6-0.3c-0.2-0.1-0.2-0.3-0.1-0.5
			C127.3,191.2,127.5,191.1,127.6,191.2L127.6,191.2z"/>
		<path class="st4" d="M129.6,192.3l0.6,0.3c0.2,0.1,0.2,0.3,0.1,0.5c-0.1,0.2-0.3,0.2-0.5,0.1l-0.6-0.3c-0.2-0.1-0.2-0.3-0.1-0.5
			C129.2,192.3,129.4,192.2,129.6,192.3L129.6,192.3z"/>
		<path class="st4" d="M131.6,193.5l0.6,0.3c0.2,0.1,0.2,0.3,0.1,0.5c-0.1,0.2-0.3,0.2-0.5,0.1l-0.6-0.3c-0.2-0.1-0.2-0.3-0.1-0.5
			C131.2,193.4,131.4,193.4,131.6,193.5L131.6,193.5z"/>
		<path class="st4" d="M133.5,194.6l0.6,0.3c0.2,0.1,0.2,0.3,0.1,0.5s-0.3,0.2-0.5,0.1l-0.6-0.3c-0.2-0.1-0.2-0.3-0.1-0.5
			C133.1,194.6,133.3,194.5,133.5,194.6L133.5,194.6z"/>
		<path class="st4" d="M135.4,195.8l0.6,0.3c0.2,0.1,0.2,0.3,0.1,0.5c-0.1,0.2-0.3,0.2-0.5,0.1l-0.6-0.3c-0.2-0.1-0.2-0.3-0.1-0.5
			C135.1,195.7,135.3,195.7,135.4,195.8L135.4,195.8z"/>
		<path class="st4" d="M137.4,196.9l0.6,0.4c0.2,0.1,0.2,0.3,0.1,0.5c-0.1,0.2-0.3,0.2-0.5,0.1l-0.6-0.4c-0.2-0.1-0.2-0.3-0.1-0.5
			C137,196.9,137.2,196.9,137.4,196.9L137.4,196.9z"/>
		<path class="st4" d="M139.3,198.1l0.6,0.4c0.2,0.1,0.2,0.3,0.1,0.5c-0.1,0.2-0.3,0.2-0.5,0.1l-0.6-0.4c-0.2-0.1-0.2-0.3-0.1-0.5
			C138.9,198.1,139.2,198,139.3,198.1L139.3,198.1z"/>
		<path class="st4" d="M141.2,199.3l0.6,0.4c0.2,0.1,0.2,0.3,0.1,0.5c-0.1,0.2-0.3,0.2-0.5,0.1l-0.6-0.4c-0.2-0.1-0.2-0.3-0.1-0.5
			S141.1,199.2,141.2,199.3L141.2,199.3z"/>
		<path class="st4" d="M143.1,200.5l0.6,0.4c0.2,0.1,0.2,0.3,0.1,0.5c-0.1,0.2-0.3,0.2-0.5,0.1l-0.6-0.4c-0.2-0.1-0.2-0.3-0.1-0.5
			C142.8,200.5,143,200.4,143.1,200.5L143.1,200.5z"/>
		<path class="st4" d="M145.1,201.7l0.6,0.4c0.2,0.1,0.2,0.3,0.1,0.4c-0.1,0.2-0.3,0.2-0.4,0.1l-0.6-0.4c-0.2-0.1-0.2-0.3-0.1-0.5
			C144.7,201.7,144.9,201.6,145.1,201.7L145.1,201.7z"/>
		<path class="st4" d="M147,203l0.6,0.4c0.2,0.1,0.2,0.3,0.1,0.4c-0.1,0.2-0.3,0.2-0.4,0.1l-0.6-0.4c-0.2-0.1-0.2-0.3-0.1-0.4
			S146.8,202.9,147,203L147,203z"/>
		<path class="st4" d="M148.8,204.2l0.6,0.4c0.1,0.1,0.2,0.3,0.1,0.4c-0.1,0.1-0.3,0.2-0.4,0.1l-0.6-0.4c-0.2-0.1-0.2-0.3-0.1-0.4
			C148.5,204.1,148.7,204.1,148.8,204.2L148.8,204.2z"/>
		<path class="st4" d="M150.7,205.4l0.6,0.4c0.1,0.1,0.2,0.3,0.1,0.4c-0.1,0.1-0.3,0.2-0.4,0.1l-0.6-0.4c-0.1-0.1-0.2-0.3-0.1-0.4
			C150.4,205.4,150.6,205.3,150.7,205.4L150.7,205.4z"/>
		<path class="st4" d="M152.6,206.7l0.6,0.4c0.1,0.1,0.2,0.3,0.1,0.4c-0.1,0.1-0.3,0.2-0.4,0.1l-0.6-0.4c-0.1-0.1-0.2-0.3-0.1-0.4
			C152.3,206.6,152.5,206.6,152.6,206.7L152.6,206.7z"/>
		<path class="st4" d="M154.5,208l0.6,0.4c0.1,0.1,0.2,0.3,0.1,0.4c-0.1,0.1-0.3,0.2-0.4,0.1l-0.6-0.4c-0.1-0.1-0.2-0.3-0.1-0.4
			C154.1,207.9,154.3,207.9,154.5,208L154.5,208z"/>
		<path class="st4" d="M156.4,209.2l0.6,0.4c0.1,0.1,0.2,0.3,0.1,0.4c-0.1,0.1-0.3,0.2-0.4,0.1l-0.6-0.4c-0.1-0.1-0.2-0.3-0.1-0.4
			C156,209.2,156.2,209.1,156.4,209.2L156.4,209.2z"/>
		<path class="st4" d="M158.2,210.5l0.6,0.4c0.1,0.1,0.2,0.3,0.1,0.4c-0.1,0.1-0.3,0.2-0.4,0.1l-0.6-0.4c-0.1-0.1-0.2-0.3-0.1-0.4
			C157.9,210.5,158.1,210.4,158.2,210.5L158.2,210.5z"/>
		<path class="st4" d="M160.1,211.8l0.6,0.4c0.1,0.1,0.2,0.3,0.1,0.4s-0.3,0.2-0.4,0.1l-0.6-0.4c-0.1-0.1-0.2-0.3-0.1-0.4
			S159.9,211.7,160.1,211.8L160.1,211.8z"/>
		<path class="st4" d="M161.9,213.1l0.6,0.4c0.1,0.1,0.2,0.3,0.1,0.4c-0.1,0.1-0.3,0.2-0.4,0.1l-0.6-0.4c-0.1-0.1-0.2-0.3-0.1-0.4
			C161.6,213.1,161.8,213,161.9,213.1L161.9,213.1z"/>
		<path class="st4" d="M163.8,214.4l0.5,0.4c0.1,0.1,0.2,0.3,0.1,0.4c-0.1,0.1-0.3,0.2-0.4,0.1l-0.5-0.4c-0.1-0.1-0.2-0.3-0.1-0.4
			C163.4,214.4,163.6,214.3,163.8,214.4L163.8,214.4z"/>
		<path class="st4" d="M165.6,215.9l0.5,0.3c0.1,0.1,0.2,0.3,0.1,0.4c-0.1,0.1-0.3,0.2-0.4,0.1l-0.5-0.4c-0.1-0.1-0.2-0.3-0.1-0.4
			C165.2,215.8,165.4,215.7,165.6,215.9L165.6,215.9z"/>
		<path class="st4" d="M167.4,217.1l0.5,0.4c0.1,0.1,0.2,0.3,0.1,0.4c-0.1,0.1-0.3,0.2-0.4,0.1l-0.5-0.4c-0.1-0.1-0.2-0.3-0.1-0.4
			C167.1,217,167.3,217,167.4,217.1L167.4,217.1z"/>
		<path class="st4" d="M169.2,218.5l0.5,0.4c0.1,0.1,0.2,0.3,0.1,0.4c-0.1,0.1-0.3,0.2-0.4,0.1l-0.5-0.4c-0.1-0.1-0.2-0.3-0.1-0.4
			C168.9,218.4,169.1,218.4,169.2,218.5L169.2,218.5z"/>
		<path class="st4" d="M171,219.8l0.5,0.4c0.1,0.1,0.2,0.3,0.1,0.4c-0.1,0.1-0.3,0.2-0.4,0.1l-0.5-0.4c-0.1-0.1-0.2-0.3-0.1-0.4
			C170.7,219.8,170.9,219.7,171,219.8L171,219.8z"/>
		<path class="st4" d="M172.8,221.2l0.5,0.4c0.1,0.1,0.2,0.3,0.1,0.4c-0.1,0.1-0.3,0.2-0.4,0.1l-0.5-0.4c-0.1-0.1-0.2-0.3-0.1-0.4
			C172.5,221.1,172.7,221.1,172.8,221.2L172.8,221.2z"/>
		<path class="st4" d="M174.6,222.6l0.5,0.4c0.1,0.1,0.2,0.3,0.1,0.4c-0.1,0.1-0.3,0.2-0.4,0.1l-0.5-0.4c-0.1-0.1-0.2-0.3-0.1-0.4
			C174.3,222.5,174.5,222.5,174.6,222.6L174.6,222.6z"/>
		<path class="st4" d="M176.4,224l0.5,0.4c0.1,0.1,0.2,0.3,0.1,0.4c-0.1,0.1-0.3,0.2-0.4,0.1l-0.5-0.4c-0.1-0.1-0.2-0.3-0.1-0.4
			S176.2,223.9,176.4,224L176.4,224z"/>
		<path class="st4" d="M178.1,225.4l0.5,0.4c0.1,0.1,0.2,0.3,0,0.4c-0.1,0.1-0.3,0.2-0.4,0l-0.5-0.4c-0.1-0.1-0.2-0.3,0-0.4
			C177.8,225.3,178,225.3,178.1,225.4L178.1,225.4z"/>
		<path class="st4" d="M179.9,226.8l0.5,0.4c0.1,0.1,0.2,0.3,0,0.4c-0.1,0.1-0.3,0.2-0.4,0l-0.5-0.4c-0.1-0.1-0.2-0.3,0-0.4
			C179.6,226.8,179.8,226.7,179.9,226.8L179.9,226.8z"/>
		<path class="st4" d="M181.6,228.3l0.5,0.4c0.1,0.1,0.2,0.3,0,0.4c-0.1,0.1-0.3,0.2-0.4,0l-0.5-0.4c-0.1-0.1-0.2-0.3,0-0.4
			C181.3,228.2,181.5,228.2,181.6,228.3L181.6,228.3z"/>
		<path class="st4" d="M183.4,229.7l0.5,0.4c0.1,0.1,0.2,0.3,0,0.4c-0.1,0.1-0.3,0.2-0.4,0l-0.5-0.4c-0.1-0.1-0.2-0.3,0-0.4
			C183.1,229.6,183.3,229.6,183.4,229.7L183.4,229.7z"/>
		<path class="st4" d="M185.2,231.1l0.5,0.4c0.1,0.1,0.2,0.3,0,0.4c-0.1,0.1-0.3,0.2-0.4,0l-0.5-0.4c-0.1-0.1-0.2-0.3,0-0.4
			C184.8,231,185,231,185.2,231.1L185.2,231.1z"/>
		<path class="st4" d="M186.9,232.6l0.5,0.4c0.1,0.1,0.2,0.3,0,0.4c-0.1,0.1-0.3,0.2-0.4,0l-0.5-0.4c-0.1-0.1-0.2-0.3,0-0.4
			C186.6,232.5,186.8,232.5,186.9,232.6L186.9,232.6z"/>
		<path class="st4" d="M188.6,234l0.5,0.4c0.1,0.1,0.2,0.3,0,0.4c-0.1,0.1-0.3,0.2-0.4,0l-0.5-0.4c-0.1-0.1-0.2-0.3,0-0.4
			C188.3,233.9,188.5,233.9,188.6,234L188.6,234z"/>
		<path class="st4" d="M190.4,235.4l0.5,0.4c0.1,0.1,0.2,0.3,0,0.4c-0.1,0.1-0.3,0.2-0.4,0l-0.5-0.4c-0.1-0.1-0.2-0.3,0-0.4
			C190.1,235.3,190.3,235.3,190.4,235.4L190.4,235.4z"/>
		<path class="st4" d="M192.1,236.9l0.5,0.4c0.1,0.1,0.2,0.3,0,0.4c-0.1,0.1-0.3,0.2-0.4,0l-0.5-0.4c-0.1-0.1-0.2-0.3,0-0.4
			C191.8,236.8,192,236.8,192.1,236.9L192.1,236.9z"/>
		<path class="st4" d="M193.9,238.3l0.5,0.4c0.1,0.1,0.2,0.3,0,0.4c-0.1,0.1-0.3,0.2-0.4,0l-0.5-0.4c-0.1-0.1-0.2-0.3,0-0.4
			C193.6,238.2,193.8,238.2,193.9,238.3L193.9,238.3z"/>
		<path class="st4" d="M195.7,239.7l0.5,0.4c0.1,0.1,0.2,0.3,0,0.4c-0.1,0.1-0.3,0.2-0.4,0l-0.5-0.4c-0.1-0.1-0.2-0.3,0-0.4
			S195.5,239.6,195.7,239.7L195.7,239.7z"/>
		<path class="st4" d="M197.4,241.1l0.5,0.4c0.1,0.1,0.2,0.3,0,0.4c-0.1,0.1-0.3,0.2-0.4,0l-0.5-0.4c-0.1-0.1-0.2-0.3,0-0.4
			C197.1,241,197.3,241,197.4,241.1L197.4,241.1z"/>
		<path class="st4" d="M199.2,242.5l0.5,0.4c0.1,0.1,0.2,0.3,0,0.4c-0.1,0.1-0.3,0.2-0.4,0l-0.5-0.4c-0.1-0.1-0.2-0.3,0-0.4
			C198.8,242.5,199,242.4,199.2,242.5L199.2,242.5z"/>
		<path class="st4" d="M200.9,244l0.5,0.4c0.1,0.1,0.2,0.3,0.1,0.4c-0.1,0.1-0.3,0.2-0.4,0.1l-0.5-0.4c-0.1-0.1-0.2-0.3-0.1-0.4
			C200.6,243.9,200.8,243.8,200.9,244L200.9,244z"/>
		<path class="st4" d="M202.7,245.3l0.5,0.4c0.1,0.1,0.2,0.3,0.1,0.4c-0.1,0.1-0.3,0.2-0.4,0.1l-0.5-0.4c-0.1-0.1-0.2-0.3-0.1-0.4
			C202.4,245.3,202.6,245.2,202.7,245.3L202.7,245.3z"/>
		<path class="st4" d="M204.5,246.7l0.5,0.4c0.1,0.1,0.2,0.3,0.1,0.4c-0.1,0.1-0.3,0.2-0.4,0.1l-0.5-0.4c-0.1-0.1-0.2-0.3-0.1-0.4
			C204.2,246.6,204.4,246.6,204.5,246.7L204.5,246.7z"/>
		<path class="st4" d="M206.3,248.1l0.5,0.4c0.1,0.1,0.2,0.3,0.1,0.4s-0.3,0.2-0.4,0.1l-0.5-0.4c-0.1-0.1-0.2-0.3-0.1-0.4
			C206,248,206.2,248,206.3,248.1L206.3,248.1z"/>
		<path class="st4" d="M208.1,249.5l0.5,0.4c0.1,0.1,0.2,0.3,0.1,0.4c-0.1,0.1-0.3,0.2-0.4,0.1l-0.5-0.4c-0.1-0.1-0.2-0.3-0.1-0.4
			C207.8,249.4,208,249.4,208.1,249.5L208.1,249.5z"/>
		<path class="st4" d="M209.9,250.8l0.5,0.4c0.1,0.1,0.2,0.3,0.1,0.4c-0.1,0.1-0.3,0.2-0.4,0.1l-0.5-0.4c-0.1-0.1-0.2-0.3-0.1-0.4
			C209.6,250.7,209.8,250.7,209.9,250.8L209.9,250.8z"/>
		<path class="st4" d="M211.7,252.1l0.6,0.4c0.1,0.1,0.2,0.3,0.1,0.4c-0.1,0.1-0.3,0.2-0.4,0.1l-0.6-0.4c-0.1-0.1-0.2-0.3-0.1-0.4
			C211.4,252.1,211.6,252,211.7,252.1L211.7,252.1z"/>
		<path class="st4" d="M213.6,253.4l0.6,0.4c0.1,0.1,0.2,0.3,0.1,0.4c-0.1,0.1-0.3,0.2-0.4,0.1l-0.6-0.4c-0.1-0.1-0.2-0.3-0.1-0.4
			C213.3,253.4,213.4,253.3,213.6,253.4L213.6,253.4z"/>
		<path class="st4" d="M215.4,254.7l0.6,0.4c0.1,0.1,0.2,0.3,0.1,0.4c-0.1,0.1-0.3,0.2-0.4,0.1l-0.6-0.4c-0.1-0.1-0.2-0.3-0.1-0.4
			C215.1,254.7,215.3,254.6,215.4,254.7L215.4,254.7z"/>
		<path class="st4" d="M217.3,256l0.6,0.4c0.1,0.1,0.2,0.3,0.1,0.4c-0.1,0.1-0.3,0.2-0.4,0.1l-0.6-0.4c-0.1-0.1-0.2-0.3-0.1-0.4
			C217,255.9,217.2,255.9,217.3,256L217.3,256z"/>
		<path class="st4" d="M219.2,257.2l0.6,0.4c0.1,0.1,0.2,0.3,0.1,0.4c-0.1,0.1-0.3,0.2-0.4,0.1l-0.6-0.4c-0.1-0.1-0.2-0.3-0.1-0.4
			S219.1,257.1,219.2,257.2L219.2,257.2z"/>
		<path class="st4" d="M221.1,258.5l0.6,0.4c0.1,0.1,0.2,0.3,0.1,0.4c-0.1,0.1-0.3,0.2-0.4,0.1l-0.6-0.4c-0.1-0.1-0.2-0.3-0.1-0.4
			C220.8,258.4,220.9,258.4,221.1,258.5L221.1,258.5z"/>
		<path class="st4" d="M223,259.7l0.6,0.4c0.1,0.1,0.2,0.3,0.1,0.4s-0.3,0.2-0.4,0.1l-0.6-0.4c-0.1-0.1-0.2-0.3-0.1-0.4
			C222.7,259.6,222.9,259.6,223,259.7L223,259.7z"/>
		<path class="st4" d="M224.9,260.8l0.6,0.3c0.1,0.1,0.2,0.3,0.1,0.4c-0.1,0.1-0.3,0.2-0.4,0.1l-0.6-0.3c-0.1-0.1-0.2-0.3-0.1-0.4
			C224.6,260.8,224.8,260.7,224.9,260.8L224.9,260.8z"/>
		<path class="st4" d="M226.9,262l0.6,0.3c0.1,0.1,0.2,0.3,0.1,0.4c-0.1,0.1-0.3,0.2-0.4,0.1l-0.6-0.3c-0.1-0.1-0.2-0.3-0.1-0.4
			C226.5,261.9,226.7,261.9,226.9,262L226.9,262z"/>
		<path class="st4" d="M228.8,263.1l0.6,0.3c0.1,0.1,0.2,0.3,0.1,0.4c-0.1,0.1-0.3,0.2-0.4,0.1l-0.6-0.3c-0.1-0.1-0.2-0.3-0.1-0.4
			C228.5,263,228.7,263,228.8,263.1L228.8,263.1z"/>
		<path class="st4" d="M230.8,264.2l0.6,0.3c0.1,0.1,0.2,0.3,0.1,0.4c-0.1,0.1-0.3,0.2-0.4,0.1l-0.6-0.3c-0.1-0.1-0.2-0.3-0.1-0.4
			C230.5,264.1,230.7,264.1,230.8,264.2L230.8,264.2z"/>
		<path class="st4" d="M232.8,265.2l0.6,0.3c0.1,0.1,0.2,0.3,0.1,0.4c-0.1,0.1-0.3,0.2-0.4,0.1l-0.6-0.3c-0.1-0.1-0.2-0.3-0.1-0.4
			S232.7,265.1,232.8,265.2L232.8,265.2z"/>
		<path class="st4" d="M234.8,266.2l0.6,0.3c0.1,0.1,0.2,0.2,0.1,0.4c-0.1,0.1-0.2,0.2-0.4,0.1l-0.6-0.3c-0.1-0.1-0.2-0.2-0.1-0.4
			C234.5,266.2,234.7,266.1,234.8,266.2L234.8,266.2z"/>
		<path class="st4" d="M236.9,267.2l0.6,0.3c0.1,0.1,0.2,0.2,0.1,0.4c-0.1,0.1-0.2,0.2-0.4,0.1l-0.6-0.3c-0.1-0.1-0.2-0.2-0.1-0.4
			C236.6,267.2,236.7,267.1,236.9,267.2L236.9,267.2z"/>
		<path class="st4" d="M238.9,268.1l0.6,0.3c0.1,0.1,0.2,0.2,0.2,0.4c-0.1,0.1-0.2,0.2-0.4,0.2l-0.6-0.3c-0.1-0.1-0.2-0.2-0.2-0.4
			C238.6,268.1,238.8,268,238.9,268.1L238.9,268.1z"/>
		<path class="st4" d="M241,269l0.6,0.3c0.2,0.1,0.2,0.2,0.2,0.4c-0.1,0.2-0.2,0.2-0.4,0.2l-0.6-0.3c-0.2-0.1-0.2-0.2-0.2-0.4
			C240.7,269,240.8,268.9,241,269L241,269z"/>
		<path class="st4" d="M243.1,269.9l0.6,0.3c0.2,0.1,0.2,0.2,0.2,0.4c-0.1,0.2-0.2,0.2-0.4,0.2l-0.6-0.3c-0.2-0.1-0.2-0.2-0.2-0.4
			C242.8,269.9,242.9,269.8,243.1,269.9L243.1,269.9z"/>
		<path class="st4" d="M245.2,270.7l0.6,0.2c0.2,0.1,0.2,0.2,0.2,0.4c-0.1,0.2-0.2,0.2-0.4,0.2l-0.6-0.2c-0.2-0.1-0.2-0.2-0.2-0.4
			C244.9,270.7,245,270.6,245.2,270.7L245.2,270.7z"/>
		<path class="st4" d="M247.3,271.5l0.6,0.2c0.2,0.1,0.2,0.2,0.2,0.4c-0.1,0.2-0.2,0.2-0.4,0.2l-0.6-0.2c-0.2-0.1-0.2-0.2-0.2-0.4
			C247,271.5,247.1,271.4,247.3,271.5L247.3,271.5z"/>
		<path class="st4" d="M249.4,272.2l0.6,0.2c0.2,0.1,0.2,0.2,0.2,0.4c-0.1,0.2-0.2,0.2-0.4,0.2l-0.6-0.2c-0.2-0.1-0.2-0.2-0.2-0.4
			C249.1,272.3,249.3,272.2,249.4,272.2L249.4,272.2z"/>
		<path class="st4" d="M251.6,273l0.6,0.2c0.2,0.1,0.2,0.2,0.2,0.4c-0.1,0.2-0.2,0.2-0.4,0.2l-0.6-0.2c-0.2-0.1-0.2-0.2-0.2-0.4
			C251.2,273,251.4,272.9,251.6,273L251.6,273z"/>
		<path class="st4" d="M253.7,273.6l0.6,0.2c0.2,0,0.2,0.2,0.2,0.4c0,0.2-0.2,0.2-0.4,0.2l-0.6-0.2c-0.2,0-0.2-0.2-0.2-0.4
			C253.4,273.7,253.6,273.6,253.7,273.6L253.7,273.6z"/>
		<path class="st4" d="M255.9,274.3l0.7,0.2c0.2,0,0.2,0.2,0.2,0.4c0,0.2-0.2,0.2-0.4,0.2l-0.7-0.2c-0.2,0-0.2-0.2-0.2-0.4
			C255.6,274.3,255.7,274.3,255.9,274.3L255.9,274.3z"/>
		<path class="st4" d="M258,274.9l0.7,0.2c0.2,0,0.2,0.2,0.2,0.4c0,0.2-0.2,0.2-0.4,0.2l-0.7-0.2c-0.2,0-0.2-0.2-0.2-0.4
			C257.7,275,257.9,274.9,258,274.9L258,274.9z"/>
		<path class="st4" d="M260.2,275.5l0.7,0.2c0.2,0,0.2,0.2,0.2,0.4c0,0.2-0.2,0.2-0.4,0.2l-0.7-0.2c-0.2,0-0.2-0.2-0.2-0.4
			C259.9,275.6,260.1,275.5,260.2,275.5L260.2,275.5z"/>
		<path class="st4" d="M262.4,276.1l0.7,0.2c0.2,0,0.3,0.2,0.2,0.4c0,0.2-0.2,0.3-0.4,0.2l-0.7-0.2c-0.2,0-0.3-0.2-0.2-0.4
			C262.1,276.1,262.2,276,262.4,276.1L262.4,276.1z"/>
		<path class="st4" d="M264.6,276.6l0.7,0.2c0.2,0,0.3,0.2,0.2,0.3c0,0.2-0.2,0.3-0.3,0.2l-0.7-0.2c-0.2,0-0.3-0.2-0.2-0.3
			C264.3,276.7,264.4,276.6,264.6,276.6L264.6,276.6z"/>
		<path class="st4" d="M266.8,277.1l0.7,0.1c0.2,0,0.3,0.2,0.2,0.3c0,0.2-0.2,0.3-0.3,0.2l-0.7-0.1c-0.2,0-0.3-0.2-0.2-0.3
			C266.5,277.2,266.6,277.1,266.8,277.1L266.8,277.1z"/>
		<path class="st4" d="M269,277.6l0.7,0.1c0.2,0,0.3,0.2,0.2,0.3c0,0.2-0.2,0.3-0.3,0.2l-0.7-0.1c-0.2,0-0.3-0.2-0.2-0.3
			C268.7,277.6,268.8,277.5,269,277.6L269,277.6z"/>
		<path class="st4" d="M271.2,278l0.7,0.1c0.2,0,0.3,0.2,0.2,0.3c0,0.2-0.2,0.3-0.3,0.2l-0.7-0.1c-0.2,0-0.3-0.2-0.2-0.3
			C270.9,278.1,271.1,278,271.2,278L271.2,278z"/>
		<path class="st4" d="M273.4,278.4l0.7,0.1c0.2,0,0.3,0.2,0.2,0.3c0,0.2-0.2,0.3-0.3,0.2l-0.7-0.1c-0.2,0-0.3-0.2-0.2-0.3
			C273.1,278.5,273.3,278.4,273.4,278.4L273.4,278.4z"/>
		<path class="st4" d="M275.7,278.8l0.7,0.1c0.2,0,0.3,0.2,0.2,0.3c0,0.2-0.2,0.3-0.3,0.2l-0.7-0.1c-0.2,0-0.3-0.2-0.2-0.3
			C275.4,278.9,275.5,278.8,275.7,278.8L275.7,278.8z"/>
		<path class="st4" d="M277.9,279.1l0.7,0.1c0.2,0,0.3,0.2,0.2,0.3c0,0.2-0.2,0.3-0.3,0.2l-0.7-0.1c-0.2,0-0.3-0.2-0.2-0.3
			C277.6,279.2,277.7,279.1,277.9,279.1L277.9,279.1z"/>
		<path class="st4" d="M280.1,279.5l0.7,0.1c0.2,0,0.3,0.2,0.2,0.3c0,0.2-0.2,0.3-0.3,0.2L280,280c-0.2,0-0.3-0.2-0.2-0.3
			S280,279.4,280.1,279.5L280.1,279.5z"/>
		<path class="st4" d="M282.4,279.8l0.7,0.1c0.2,0,0.3,0.2,0.2,0.3c0,0.2-0.2,0.3-0.3,0.2l-0.7-0.1c-0.2,0-0.3-0.2-0.2-0.3
			C282.1,279.9,282.2,279.7,282.4,279.8L282.4,279.8z"/>
		<path class="st4" d="M284.6,280l0.7,0.1c0.2,0,0.3,0.2,0.3,0.3c0,0.2-0.2,0.3-0.3,0.3l-0.7-0.1c-0.2,0-0.3-0.2-0.3-0.3
			C284.3,280.1,284.4,280,284.6,280L284.6,280z"/>
		<path class="st4" d="M286.8,280.3l0.7,0.1c0.2,0,0.3,0.2,0.3,0.3c0,0.2-0.2,0.3-0.3,0.3l-0.7-0.1c-0.2,0-0.3-0.2-0.3-0.3
			S286.7,280.2,286.8,280.3L286.8,280.3z"/>
		<path class="st4" d="M289.1,280.5l0.7,0.1c0.2,0,0.3,0.2,0.3,0.3c0,0.2-0.2,0.3-0.3,0.3L289,281c-0.2,0-0.3-0.2-0.3-0.3
			C288.8,280.6,288.9,280.5,289.1,280.5L289.1,280.5z"/>
		<path class="st4" d="M291.3,280.7h0.7c0.2,0,0.3,0.1,0.3,0.3c0,0.2-0.1,0.3-0.3,0.3h-0.7c-0.2,0-0.3-0.1-0.3-0.3
			C291.1,280.8,291.2,280.6,291.3,280.7L291.3,280.7z"/>
		<path class="st4" d="M293.6,280.8h0.7c0.2,0,0.3,0.1,0.3,0.3c0,0.2-0.1,0.3-0.3,0.3h-0.7c-0.2,0-0.3-0.1-0.3-0.3
			C293.3,280.9,293.4,280.8,293.6,280.8L293.6,280.8z"/>
		<path class="st4" d="M295.8,280.9h0.7c0.2,0,0.3,0.1,0.3,0.3c0,0.2-0.1,0.3-0.3,0.3h-0.7c-0.2,0-0.3-0.1-0.3-0.3
			C295.6,281.1,295.7,280.9,295.8,280.9L295.8,280.9z"/>
		<path class="st4" d="M298.1,281h0.7c0.2,0,0.3,0.1,0.3,0.3c0,0.2-0.1,0.3-0.3,0.3h-0.7c-0.2,0-0.3-0.1-0.3-0.3
			C297.8,281.2,297.9,281,298.1,281L298.1,281z"/>
		<path class="st4" d="M300.4,281.1h0.7c0.2,0,0.3,0.1,0.3,0.3c0,0.2-0.1,0.3-0.3,0.3h-0.7c-0.2,0-0.3-0.1-0.3-0.3
			S300.2,281.1,300.4,281.1L300.4,281.1z"/>
		<path class="st4" d="M302.6,281.2h0.7c0.2,0,0.3,0.1,0.3,0.3c0,0.2-0.1,0.3-0.3,0.3h-0.7c-0.2,0-0.3-0.1-0.3-0.3
			C302.3,281.3,302.5,281.2,302.6,281.2L302.6,281.2z"/>
		<path class="st4" d="M304.9,281.2h0.7c0.2,0,0.3,0.1,0.3,0.3c0,0.2-0.1,0.3-0.3,0.3h-0.7c-0.2,0-0.3-0.1-0.3-0.3
			C304.6,281.3,304.7,281.2,304.9,281.2L304.9,281.2z"/>
		<path class="st4" d="M307.1,281.2h0.7c0.2,0,0.3,0.1,0.3,0.3c0,0.2-0.1,0.3-0.3,0.3h-0.7c-0.2,0-0.3-0.1-0.3-0.3
			C306.9,281.3,307,281.2,307.1,281.2L307.1,281.2z"/>
		<path class="st4" d="M309.4,281.2h0.7c0.2,0,0.3,0.1,0.3,0.3c0,0.2-0.1,0.3-0.3,0.3h-0.7c-0.2,0-0.3-0.1-0.3-0.3
			C309.1,281.3,309.2,281.2,309.4,281.2L309.4,281.2z"/>
		<path class="st4" d="M311.6,281.1h0.7c0.2,0,0.3,0.1,0.3,0.3c0,0.2-0.1,0.3-0.3,0.3h-0.7c-0.2,0-0.3-0.1-0.3-0.3
			S311.5,281.1,311.6,281.1L311.6,281.1z"/>
		<path class="st4" d="M313.9,281h0.7c0.2,0,0.3,0.1,0.3,0.3c0,0.2-0.1,0.3-0.3,0.3h-0.7c-0.2,0-0.3-0.1-0.3-0.3
			C313.6,281.2,313.7,281,313.9,281L313.9,281z"/>
		<path class="st4" d="M316.2,280.9h0.7c0.2,0,0.3,0.1,0.3,0.3c0,0.2-0.1,0.3-0.3,0.3h-0.7c-0.2,0-0.3-0.1-0.3-0.3
			C315.9,281.1,316,280.9,316.2,280.9L316.2,280.9z"/>
		<path class="st4" d="M318.4,280.8h0.7c0.2,0,0.3,0.1,0.3,0.3c0,0.2-0.1,0.3-0.3,0.3h-0.7c-0.2,0-0.3-0.1-0.3-0.3
			S318.3,280.8,318.4,280.8L318.4,280.8z"/>
		<path class="st4" d="M320.7,280.6l0.7-0.1c0.2,0,0.3,0.1,0.3,0.3c0,0.2-0.1,0.3-0.3,0.3l-0.7,0.1c-0.2,0-0.3-0.1-0.3-0.3
			C320.4,280.8,320.5,280.7,320.7,280.6L320.7,280.6z"/>
		<path class="st4" d="M322.9,280.5l0.7-0.1c0.2,0,0.3,0.1,0.3,0.2c0,0.2-0.1,0.3-0.2,0.3L323,281c-0.2,0-0.3-0.1-0.3-0.2
			S322.8,280.5,322.9,280.5L322.9,280.5z"/>
		<path class="st4" d="M325.2,280.3l0.7-0.1c0.2,0,0.3,0.1,0.3,0.2c0,0.2-0.1,0.3-0.2,0.3l-0.7,0.1c-0.2,0-0.3-0.1-0.3-0.2
			C324.9,280.4,325,280.3,325.2,280.3L325.2,280.3z"/>
		<path class="st4" d="M327.4,280l0.7-0.1c0.2,0,0.3,0.1,0.3,0.2c0,0.2-0.1,0.3-0.2,0.3l-0.7,0.1c-0.2,0-0.3-0.1-0.3-0.2
			C327.1,280.2,327.3,280,327.4,280L327.4,280z"/>
		<path class="st4" d="M329.7,279.8l0.7-0.1c0.1,0,0.3,0.1,0.3,0.2s-0.1,0.3-0.2,0.3l-0.7,0.1c-0.1,0-0.3-0.1-0.3-0.2
			C329.4,279.9,329.5,279.8,329.7,279.8L329.7,279.8z"/>
		<path class="st4" d="M331.9,279.5l0.7-0.1c0.1,0,0.3,0.1,0.3,0.2s-0.1,0.3-0.2,0.3L332,280c-0.1,0-0.3-0.1-0.3-0.2
			C331.6,279.7,331.7,279.5,331.9,279.5L331.9,279.5z"/>
		<path class="st4" d="M334.1,279.2l0.7-0.1c0.1,0,0.3,0.1,0.3,0.2s-0.1,0.3-0.2,0.3l-0.7,0.1c-0.1,0-0.3-0.1-0.3-0.2
			S334,279.3,334.1,279.2L334.1,279.2z"/>
		<path class="st4" d="M336.4,278.9l0.7-0.1c0.1,0,0.3,0.1,0.3,0.2s-0.1,0.3-0.2,0.3l-0.7,0.1c-0.1,0-0.3-0.1-0.3-0.2
			C336.1,279.1,336.2,279,336.4,278.9L336.4,278.9z"/>
		<path class="st4" d="M338.6,278.6l0.7-0.1c0.1,0,0.3,0.1,0.3,0.2s-0.1,0.3-0.2,0.3l-0.7,0.1c-0.1,0-0.3-0.1-0.3-0.2
			S338.5,278.6,338.6,278.6L338.6,278.6z"/>
		<path class="st4" d="M340.8,278.3l0.7-0.1c0.1,0,0.3,0.1,0.3,0.2s-0.1,0.3-0.2,0.3l-0.7,0.1c-0.1,0-0.3-0.1-0.3-0.2
			S340.7,278.3,340.8,278.3L340.8,278.3z"/>
		<path class="st4" d="M343.1,277.9l0.7-0.1c0.1,0,0.3,0.1,0.3,0.2s-0.1,0.3-0.2,0.3l-0.7,0.1c-0.1,0-0.3-0.1-0.3-0.2
			C342.8,278.1,342.9,277.9,343.1,277.9L343.1,277.9z"/>
		<path class="st4" d="M345.3,277.6l0.7-0.1c0.1,0,0.3,0.1,0.3,0.2s-0.1,0.3-0.2,0.3l-0.7,0.1c-0.1,0-0.3-0.1-0.3-0.2
			S345.2,277.6,345.3,277.6L345.3,277.6z"/>
		<path class="st4" d="M347.5,277.2l0.7-0.1c0.1,0,0.3,0.1,0.3,0.2s-0.1,0.3-0.2,0.3l-0.7,0.1c-0.1,0-0.3-0.1-0.3-0.2
			C347.3,277.3,347.4,277.2,347.5,277.2L347.5,277.2z"/>
		<path class="st4" d="M349.8,276.8l0.7-0.1c0.1,0,0.3,0.1,0.3,0.2s-0.1,0.3-0.2,0.3l-0.7,0.1c-0.1,0-0.3-0.1-0.3-0.2
			C349.5,276.9,349.6,276.8,349.8,276.8L349.8,276.8z"/>
		<path class="st4" d="M352,276.4l0.7-0.1c0.1,0,0.3,0.1,0.3,0.2s-0.1,0.3-0.2,0.3l-0.7,0.1c-0.1,0-0.3-0.1-0.3-0.2
			C351.7,276.5,351.8,276.4,352,276.4L352,276.4z"/>
		<path class="st4" d="M354.2,275.9l0.7-0.1c0.1,0,0.3,0.1,0.3,0.2s-0.1,0.3-0.2,0.3l-0.7,0.1c-0.1,0-0.3-0.1-0.3-0.2
			C354,276.1,354,276,354.2,275.9L354.2,275.9z"/>
		<path class="st4" d="M356.4,275.5l0.7-0.1c0.1,0,0.3,0.1,0.3,0.2s-0.1,0.3-0.2,0.3l-0.7,0.1c-0.1,0-0.3-0.1-0.3-0.2
			C356.2,275.6,356.3,275.5,356.4,275.5L356.4,275.5z"/>
		<path class="st4" d="M358.6,275l0.7-0.1c0.1,0,0.3,0.1,0.3,0.2s-0.1,0.3-0.2,0.3l-0.7,0.1c-0.1,0-0.3-0.1-0.3-0.2
			C358.4,275.2,358.5,275,358.6,275L358.6,275z"/>
		<path class="st4" d="M360.8,274.5l0.7-0.2c0.1,0,0.3,0.1,0.3,0.2s-0.1,0.3-0.2,0.3l-0.7,0.2c-0.1,0-0.3-0.1-0.3-0.2
			C360.6,274.7,360.7,274.6,360.8,274.5L360.8,274.5z"/>
		<path class="st4" d="M363,274l0.7-0.2c0.1,0,0.3,0.1,0.3,0.2s-0.1,0.3-0.2,0.3l-0.7,0.2c-0.1,0-0.3-0.1-0.3-0.2
			C362.8,274.2,362.9,274,363,274L363,274z"/>
		<path class="st4" d="M365.2,273.5l0.7-0.2c0.1,0,0.3,0.1,0.3,0.2s-0.1,0.3-0.2,0.3l-0.7,0.2c-0.1,0-0.3-0.1-0.3-0.2
			C365,273.7,365.1,273.5,365.2,273.5L365.2,273.5z"/>
		<path class="st4" d="M367.4,272.9l0.7-0.2c0.1,0,0.3,0,0.3,0.2c0,0.1,0,0.3-0.2,0.3l-0.7,0.2c-0.1,0-0.3,0-0.3-0.2
			C367.2,273.1,367.3,273,367.4,272.9L367.4,272.9z"/>
		<path class="st4" d="M369.6,272.3l0.7-0.2c0.1,0,0.3,0,0.3,0.2c0,0.1,0,0.3-0.2,0.3l-0.7,0.2c-0.1,0-0.3,0-0.3-0.2
			C369.4,272.5,369.4,272.4,369.6,272.3L369.6,272.3z"/>
		<path class="st4" d="M371.8,271.7l0.7-0.2c0.1,0,0.3,0,0.3,0.2c0,0.1,0,0.3-0.2,0.3l-0.7,0.2c-0.1,0-0.3,0-0.3-0.2
			C371.5,271.9,371.6,271.8,371.8,271.7L371.8,271.7z"/>
		<path class="st4" d="M373.9,271.1l0.6-0.2c0.1,0,0.3,0,0.3,0.2c0,0.1,0,0.3-0.2,0.3l-0.6,0.2c-0.1,0-0.3,0-0.3-0.2
			C373.7,271.3,373.8,271.1,373.9,271.1L373.9,271.1z"/>
		<path class="st4" d="M376.1,270.4l0.6-0.2c0.1,0,0.3,0,0.3,0.2c0,0.1,0,0.3-0.2,0.3l-0.6,0.2c-0.1,0-0.3,0-0.3-0.2
			C375.9,270.6,375.9,270.5,376.1,270.4L376.1,270.4z"/>
		<path class="st4" d="M378.2,269.8l0.6-0.2c0.1,0,0.3,0,0.3,0.2c0,0.1,0,0.3-0.2,0.3l-0.6,0.2c-0.1,0-0.3,0-0.3-0.2
			C378,269.9,378.1,269.8,378.2,269.8L378.2,269.8z"/>
		<path class="st4" d="M380.4,269l0.6-0.2c0.1,0,0.3,0,0.3,0.2c0,0.1,0,0.3-0.2,0.3l-0.6,0.2c-0.1,0-0.3,0-0.3-0.2
			C380.2,269.2,380.2,269.1,380.4,269L380.4,269z"/>
		<path class="st4" d="M382.5,268.3l0.6-0.2c0.1,0,0.3,0,0.3,0.2c0,0.1,0,0.3-0.2,0.3l-0.6,0.2c-0.1,0-0.3,0-0.3-0.2
			C382.3,268.5,382.4,268.3,382.5,268.3L382.5,268.3z"/>
		<path class="st4" d="M384.6,267.5l0.6-0.2c0.1-0.1,0.3,0,0.3,0.2c0.1,0.1,0,0.3-0.2,0.3l-0.6,0.2c-0.1,0.1-0.3,0-0.3-0.2
			C384.4,267.7,384.5,267.6,384.6,267.5L384.6,267.5z"/>
		<path class="st4" d="M386.7,266.7l0.6-0.2c0.1-0.1,0.3,0,0.3,0.1c0.1,0.1,0,0.3-0.1,0.3l-0.6,0.3c-0.1,0.1-0.3,0-0.3-0.1
			C386.5,266.9,386.6,266.8,386.7,266.7L386.7,266.7z"/>
		<path class="st4" d="M388.8,265.9l0.6-0.3c0.1-0.1,0.3,0,0.3,0.1s0,0.3-0.1,0.3l-0.6,0.3c-0.1,0.1-0.3,0-0.3-0.1
			C388.6,266.1,388.7,265.9,388.8,265.9L388.8,265.9z"/>
		<path class="st4" d="M390.9,265l0.6-0.3c0.1-0.1,0.3,0,0.3,0.1c0.1,0.1,0,0.3-0.1,0.3l-0.6,0.3c-0.1,0.1-0.3,0-0.3-0.1
			C390.7,265.2,390.8,265,390.9,265L390.9,265z"/>
		<path class="st4" d="M393,264.1l0.6-0.3c0.1-0.1,0.3,0,0.3,0.1c0.1,0.1,0,0.3-0.1,0.3l-0.6,0.3c-0.1,0.1-0.3,0-0.3-0.1
			C392.8,264.3,392.8,264.1,393,264.1L393,264.1z"/>
		<path class="st4" d="M395,263.1l0.6-0.3c0.1-0.1,0.3,0,0.3,0.1c0.1,0.1,0,0.3-0.1,0.3l-0.6,0.3c-0.1,0.1-0.3,0-0.3-0.1
			C394.8,263.3,394.9,263.2,395,263.1L395,263.1z"/>
		<path class="st4" d="M397,262.1l0.6-0.3c0.1-0.1,0.3,0,0.3,0.1c0.1,0.1,0,0.3-0.1,0.3l-0.6,0.3c-0.1,0.1-0.3,0-0.3-0.1
			S396.9,262.2,397,262.1L397,262.1z"/>
		<path class="st4" d="M399,261.1l0.6-0.3c0.1-0.1,0.3,0,0.3,0.1c0.1,0.1,0,0.3-0.1,0.3l-0.6,0.3c-0.1,0.1-0.3,0-0.3-0.1
			S398.9,261.2,399,261.1L399,261.1z"/>
		<path class="st4" d="M401,260.1l0.6-0.3c0.1-0.1,0.3,0,0.3,0.1c0.1,0.1,0,0.3-0.1,0.3l-0.6,0.3c-0.1,0.1-0.3,0-0.3-0.1
			S400.9,260.1,401,260.1L401,260.1z"/>
		<path class="st4" d="M403,259l0.6-0.3c0.1-0.1,0.3,0,0.3,0.1c0.1,0.1,0,0.3-0.1,0.3l-0.6,0.3c-0.1,0.1-0.3,0-0.3-0.1
			C402.8,259.2,402.9,259,403,259L403,259z"/>
		<path class="st4" d="M405,257.8l0.6-0.3c0.1-0.1,0.3,0,0.3,0.1c0.1,0.1,0,0.3-0.1,0.3l-0.6,0.3c-0.1,0.1-0.3,0-0.3-0.1
			C404.8,258.1,404.8,257.9,405,257.8L405,257.8z"/>
		<path class="st4" d="M406.9,256.7l0.6-0.4c0.1-0.1,0.3,0,0.3,0.1c0.1,0.1,0,0.3-0.1,0.3l-0.6,0.4c-0.1,0.1-0.3,0-0.3-0.1
			C406.7,256.9,406.8,256.7,406.9,256.7L406.9,256.7z"/>
		<path class="st4" d="M408.8,255.4l0.6-0.4c0.1-0.1,0.3,0,0.3,0.1c0.1,0.1,0,0.3-0.1,0.3l-0.6,0.4c-0.1,0.1-0.3,0-0.3-0.1
			C408.6,255.7,408.7,255.5,408.8,255.4L408.8,255.4z"/>
		<path class="st4" d="M410.7,254.2l0.6-0.4c0.1-0.1,0.3,0,0.3,0.1c0.1,0.1,0,0.3-0.1,0.3l-0.6,0.4c-0.1,0.1-0.3,0-0.3-0.1
			S410.5,254.3,410.7,254.2L410.7,254.2z"/>
		<path class="st4" d="M412.5,252.9l0.5-0.4c0.1-0.1,0.3-0.1,0.3,0.1c0.1,0.1,0.1,0.3-0.1,0.3l-0.5,0.4c-0.1,0.1-0.3,0.1-0.4-0.1
			S412.4,253,412.5,252.9L412.5,252.9z"/>
		<path class="st4" d="M414.3,251.6l0.5-0.4c0.1-0.1,0.3-0.1,0.4,0s0.1,0.3,0,0.3l-0.5,0.4c-0.1,0.1-0.3,0.1-0.4,0
			C414.2,251.8,414.2,251.7,414.3,251.6L414.3,251.6z"/>
		<path class="st4" d="M416.1,250.2l0.5-0.4c0.1-0.1,0.3-0.1,0.4,0s0.1,0.3,0,0.4l-0.5,0.4c-0.1,0.1-0.3,0.1-0.4,0
			C416,250.4,416,250.3,416.1,250.2L416.1,250.2z"/>
		<path class="st4" d="M417.9,248.8l0.5-0.4c0.1-0.1,0.3-0.1,0.4,0s0.1,0.3,0,0.4l-0.5,0.4c-0.1,0.1-0.3,0.1-0.4,0
			C417.8,249,417.8,248.9,417.9,248.8L417.9,248.8z"/>
		<path class="st4" d="M419.6,247.4l0.5-0.4c0.1-0.1,0.3-0.1,0.4,0s0.1,0.3,0,0.4l-0.5,0.4c-0.1,0.1-0.3,0.1-0.4,0
			C419.5,247.6,419.5,247.4,419.6,247.4L419.6,247.4z"/>
		<path class="st4" d="M421.3,245.9l0.5-0.5c0.1-0.1,0.3-0.1,0.3,0c0.1,0.1,0.1,0.3,0,0.3l-0.5,0.5c-0.1,0.1-0.3,0.1-0.4,0
			C421.2,246.1,421.2,246,421.3,245.9L421.3,245.9z"/>
		<path class="st4" d="M423,244.3l0.5-0.5c0.1-0.1,0.3-0.1,0.3,0c0.1,0.1,0.1,0.3,0,0.3l-0.5,0.5c-0.1,0.1-0.3,0.1-0.3,0
			C422.9,244.6,422.9,244.4,423,244.3L423,244.3z"/>
		<path class="st4" d="M424.6,242.8l0.5-0.5c0.1-0.1,0.3-0.1,0.3,0c0.1,0.1,0.1,0.3,0,0.3l-0.5,0.5c-0.1,0.1-0.3,0.1-0.3,0
			S424.5,242.9,424.6,242.8L424.6,242.8z"/>
		<path class="st4" d="M426.2,241.2l0.5-0.5c0.1-0.1,0.3-0.1,0.3,0c0.1,0.1,0.1,0.3,0,0.3l-0.5,0.5c-0.1,0.1-0.3,0.1-0.3,0
			C426.1,241.4,426.1,241.3,426.2,241.2L426.2,241.2z"/>
		<path class="st4" d="M427.7,239.6l0.5-0.5c0.1-0.1,0.2-0.1,0.3,0c0.1,0.1,0.1,0.2,0,0.3l-0.5,0.5c-0.1,0.1-0.2,0.1-0.3,0
			C427.7,239.8,427.7,239.7,427.7,239.6L427.7,239.6z"/>
		<path class="st4" d="M429.3,237.9l0.5-0.5c0.1-0.1,0.2-0.1,0.3,0c0.1,0.1,0.1,0.2,0,0.3l-0.5,0.5c-0.1,0.1-0.2,0.1-0.3,0
			S429.2,238,429.3,237.9L429.3,237.9z"/>
		<path class="st4" d="M430.8,236.2l0.4-0.5c0.1-0.1,0.2-0.1,0.3,0c0.1,0.1,0.1,0.2,0,0.3l-0.4,0.5c-0.1,0.1-0.2,0.1-0.3,0
			S430.7,236.3,430.8,236.2L430.8,236.2z"/>
		<path class="st4" d="M432.2,234.5l0.4-0.5c0.1-0.1,0.2-0.1,0.3,0c0.1,0.1,0.1,0.2,0,0.3l-0.4,0.5c-0.1,0.1-0.2,0.1-0.3,0
			C432.1,234.7,432.1,234.6,432.2,234.5L432.2,234.5z"/>
		<path class="st4" d="M433.6,232.7l0.4-0.5c0.1-0.1,0.2-0.1,0.3,0c0.1,0.1,0.1,0.2,0,0.3L434,233c-0.1,0.1-0.2,0.1-0.3,0
			C433.5,233,433.5,232.8,433.6,232.7L433.6,232.7z"/>
		<path class="st4" d="M435,230.9l0.4-0.5c0.1-0.1,0.2-0.1,0.3,0c0.1,0.1,0.1,0.2,0,0.3l-0.4,0.5c-0.1,0.1-0.2,0.1-0.3,0
			C434.9,231.2,434.9,231,435,230.9L435,230.9z"/>
		<path class="st4" d="M436.3,229.1l0.4-0.6c0.1-0.1,0.2-0.1,0.3-0.1c0.1,0.1,0.1,0.2,0.1,0.3l-0.4,0.6c-0.1,0.1-0.2,0.1-0.3,0.1
			C436.3,229.4,436.2,229.2,436.3,229.1L436.3,229.1z"/>
		<path class="st4" d="M437.6,227.3l0.4-0.6c0.1-0.1,0.2-0.1,0.3-0.1c0.1,0.1,0.1,0.2,0.1,0.3l-0.4,0.6c-0.1,0.1-0.2,0.1-0.3,0.1
			C437.6,227.5,437.5,227.4,437.6,227.3L437.6,227.3z"/>
		<path class="st4" d="M438.9,225.4l0.4-0.6c0.1-0.1,0.2-0.1,0.3-0.1c0.1,0.1,0.1,0.2,0.1,0.3l-0.4,0.6c-0.1,0.1-0.2,0.1-0.3,0.1
			C438.8,225.7,438.8,225.5,438.9,225.4L438.9,225.4z"/>
		<path class="st4" d="M440.1,223.5l0.4-0.6c0.1-0.1,0.2-0.1,0.3-0.1c0.1,0.1,0.1,0.2,0.1,0.3l-0.4,0.6c-0.1,0.1-0.2,0.1-0.3,0.1
			C440,223.8,440,223.6,440.1,223.5L440.1,223.5z"/>
		<path class="st4" d="M441.3,221.6l0.3-0.6c0.1-0.1,0.2-0.1,0.3-0.1c0.1,0.1,0.1,0.2,0.1,0.3l-0.3,0.6c-0.1,0.1-0.2,0.2-0.3,0.1
			C441.2,221.8,441.2,221.7,441.3,221.6L441.3,221.6z"/>
		<path class="st4" d="M442.4,219.6l0.3-0.6c0.1-0.1,0.2-0.2,0.3-0.1c0.1,0.1,0.2,0.2,0.1,0.3l-0.3,0.6c-0.1,0.1-0.2,0.2-0.3,0.1
			C442.4,219.9,442.4,219.8,442.4,219.6L442.4,219.6z"/>
		<path class="st4" d="M443.5,217.7l0.3-0.6c0.1-0.1,0.2-0.2,0.3-0.1c0.1,0.1,0.2,0.2,0.1,0.3l-0.3,0.6c-0.1,0.1-0.2,0.2-0.3,0.1
			C443.5,217.9,443.5,217.8,443.5,217.7L443.5,217.7z"/>
		<path class="st4" d="M444.6,215.7l0.3-0.6c0.1-0.1,0.2-0.2,0.3-0.1c0.1,0.1,0.2,0.2,0.1,0.3l-0.3,0.6c-0.1,0.1-0.2,0.2-0.3,0.1
			C444.6,216,444.6,215.8,444.6,215.7L444.6,215.7z"/>
		<path class="st4" d="M445.7,213.7l0.3-0.6c0.1-0.1,0.2-0.2,0.3-0.1c0.1,0.1,0.2,0.2,0.1,0.3l-0.3,0.6c-0.1,0.1-0.2,0.2-0.3,0.1
			C445.7,214,445.7,213.8,445.7,213.7L445.7,213.7z"/>
		<path class="st4" d="M446.8,211.7l0.3-0.6c0.1-0.1,0.2-0.2,0.3-0.1c0.1,0.1,0.2,0.2,0.1,0.3l-0.3,0.6c-0.1,0.1-0.2,0.2-0.3,0.1
			C446.8,212,446.7,211.8,446.8,211.7L446.8,211.7z"/>
		<path class="st4" d="M447.8,209.7l0.3-0.6c0.1-0.1,0.2-0.2,0.3-0.1c0.1,0.1,0.2,0.2,0.1,0.3l-0.3,0.6c-0.1,0.1-0.2,0.2-0.3,0.1
			C447.8,210,447.7,209.8,447.8,209.7L447.8,209.7z"/>
		<path class="st4" d="M448.8,207.7l0.3-0.6c0.1-0.1,0.2-0.2,0.3-0.1c0.1,0.1,0.2,0.2,0.1,0.3l-0.3,0.6c-0.1,0.1-0.2,0.2-0.3,0.1
			C448.8,207.9,448.7,207.8,448.8,207.7L448.8,207.7z"/>
		<path class="st4" d="M449.8,205.7l0.3-0.6c0.1-0.1,0.2-0.2,0.3-0.1c0.1,0.1,0.2,0.2,0.1,0.3l-0.3,0.6c-0.1,0.1-0.2,0.2-0.3,0.1
			C449.7,205.9,449.7,205.8,449.8,205.7L449.8,205.7z"/>
		<path class="st4" d="M450.7,203.6l0.3-0.6c0.1-0.1,0.2-0.2,0.3-0.1c0.1,0.1,0.2,0.2,0.1,0.3l-0.3,0.6c-0.1,0.1-0.2,0.2-0.3,0.1
			C450.7,203.9,450.6,203.7,450.7,203.6L450.7,203.6z"/>
		<path class="st4" d="M451.6,201.5l0.3-0.6c0.1-0.1,0.2-0.2,0.3-0.1s0.2,0.2,0.1,0.3l-0.3,0.6c-0.1,0.1-0.2,0.2-0.3,0.1
			C451.6,201.8,451.6,201.7,451.6,201.5L451.6,201.5z"/>
		<path class="st4" d="M452.5,199.5l0.3-0.6c0.1-0.1,0.2-0.2,0.3-0.1c0.1,0.1,0.2,0.2,0.1,0.3l-0.3,0.6c-0.1,0.1-0.2,0.2-0.3,0.1
			C452.5,199.7,452.5,199.6,452.5,199.5L452.5,199.5z"/>
		<path class="st4" d="M453.4,197.4l0.3-0.6c0-0.1,0.2-0.2,0.3-0.1c0.1,0,0.2,0.2,0.1,0.3l-0.3,0.6c0,0.1-0.2,0.2-0.3,0.1
			C453.4,197.6,453.3,197.5,453.4,197.4L453.4,197.4z"/>
		<path class="st4" d="M454.2,195.3l0.2-0.6c0-0.1,0.2-0.2,0.3-0.1c0.1,0,0.2,0.2,0.1,0.3l-0.2,0.6c0,0.1-0.2,0.2-0.3,0.1
			C454.2,195.5,454.2,195.4,454.2,195.3L454.2,195.3z"/>
		<path class="st4" d="M455.1,193.2l0.2-0.6c0-0.1,0.2-0.2,0.3-0.1c0.1,0,0.2,0.2,0.1,0.3l-0.2,0.6c0,0.1-0.2,0.2-0.3,0.1
			C455.1,193.4,455,193.3,455.1,193.2L455.1,193.2z"/>
		<path class="st4" d="M455.9,191.1l0.2-0.6c0-0.1,0.2-0.2,0.3-0.1c0.1,0,0.2,0.2,0.1,0.3l-0.2,0.6c0,0.1-0.2,0.2-0.3,0.1
			C455.9,191.3,455.8,191.2,455.9,191.1L455.9,191.1z"/>
		<path class="st4" d="M456.6,189l0.2-0.6c0-0.1,0.2-0.2,0.3-0.1c0.1,0,0.2,0.2,0.1,0.3l-0.2,0.6c0,0.1-0.2,0.2-0.3,0.1
			C456.6,189.2,456.6,189.1,456.6,189L456.6,189z"/>
		<path class="st4" d="M457.4,186.8l0.2-0.6c0-0.1,0.2-0.2,0.3-0.1s0.2,0.2,0.1,0.3l-0.2,0.6c0,0.1-0.2,0.2-0.3,0.1
			C457.4,187.1,457.3,186.9,457.4,186.8L457.4,186.8z"/>
		<path class="st4" d="M458.1,184.7l0.2-0.6c0-0.1,0.2-0.2,0.3-0.1c0.1,0,0.2,0.2,0.1,0.3l-0.2,0.6c0,0.1-0.2,0.2-0.3,0.1
			C458.1,184.9,458,184.8,458.1,184.7z"/>
		<path class="st4" d="M458.8,182.5l0.2-0.6c0-0.1,0.2-0.2,0.3-0.2c0.1,0,0.2,0.2,0.2,0.3l-0.2,0.6c0,0.1-0.2,0.2-0.3,0.2
			C458.8,182.8,458.7,182.7,458.8,182.5L458.8,182.5z"/>
		<path class="st4" d="M459.4,180.4l0.2-0.7c0-0.1,0.2-0.2,0.3-0.2c0.1,0,0.2,0.2,0.2,0.3l-0.2,0.7c0,0.1-0.2,0.2-0.3,0.2
			C459.4,180.6,459.4,180.5,459.4,180.4L459.4,180.4z"/>
		<path class="st4" d="M460,178.2l0.2-0.7c0-0.1,0.2-0.2,0.3-0.2c0.1,0,0.2,0.2,0.2,0.3l-0.2,0.7c0,0.1-0.2,0.2-0.3,0.2
			C460.1,178.4,460,178.3,460,178.2L460,178.2z"/>
		<path class="st4" d="M460.6,176l0.2-0.7c0-0.1,0.2-0.2,0.3-0.2c0.1,0,0.2,0.2,0.2,0.3l-0.2,0.7c0,0.1-0.2,0.2-0.3,0.2
			C460.7,176.3,460.6,176.1,460.6,176L460.6,176z"/>
		<path class="st4" d="M461.2,173.8l0.2-0.7c0-0.1,0.2-0.2,0.3-0.2c0.1,0,0.2,0.2,0.2,0.3l-0.2,0.7c0,0.1-0.2,0.2-0.3,0.2
			C461.2,174.1,461.1,174,461.2,173.8L461.2,173.8z"/>
		<path class="st4" d="M461.7,171.6l0.1-0.7c0-0.1,0.1-0.2,0.3-0.2c0.1,0,0.2,0.1,0.2,0.3l-0.1,0.7c0,0.1-0.1,0.2-0.3,0.2
			C461.7,171.9,461.7,171.8,461.7,171.6L461.7,171.6z"/>
		<path class="st4" d="M462.2,169.4l0.1-0.7c0-0.1,0.1-0.2,0.3-0.2c0.1,0,0.2,0.1,0.2,0.3l-0.1,0.7c0,0.1-0.1,0.2-0.3,0.2
			C462.2,169.7,462.1,169.6,462.2,169.4L462.2,169.4z"/>
		<path class="st4" d="M462.6,167.2l0.1-0.7c0-0.1,0.1-0.2,0.3-0.2c0.1,0,0.2,0.1,0.2,0.3l-0.1,0.7c0,0.1-0.1,0.2-0.3,0.2
			C462.7,167.5,462.6,167.3,462.6,167.2L462.6,167.2z"/>
		<path class="st4" d="M463,165l0.1-0.7c0-0.1,0.1-0.2,0.3-0.2c0.1,0,0.2,0.1,0.2,0.3l-0.1,0.7c0,0.1-0.1,0.2-0.3,0.2
			S463,165.1,463,165L463,165z"/>
		<path class="st4" d="M463.4,162.8l0.1-0.7c0-0.1,0.1-0.2,0.3-0.2c0.1,0,0.2,0.1,0.2,0.3l-0.1,0.7c0,0.1-0.1,0.2-0.3,0.2
			C463.4,163,463.3,162.9,463.4,162.8L463.4,162.8z"/>
		<path class="st4" d="M463.7,160.5l0.1-0.7c0-0.1,0.1-0.2,0.2-0.2s0.2,0.1,0.2,0.2l-0.1,0.7c0,0.1-0.1,0.2-0.2,0.2
			C463.7,160.8,463.7,160.7,463.7,160.5L463.7,160.5z"/>
		<path class="st4" d="M463.9,158.3l0.1-0.7c0-0.1,0.1-0.2,0.2-0.2s0.2,0.1,0.2,0.2l-0.1,0.7c0,0.1-0.1,0.2-0.2,0.2
			S463.9,158.4,463.9,158.3z"/>
		<path class="st4" d="M464.1,156l0.1-0.7c0-0.1,0.1-0.2,0.2-0.2s0.2,0.1,0.2,0.2l-0.1,0.7c0,0.1-0.1,0.2-0.2,0.2
			C464.2,156.3,464.1,156.2,464.1,156z"/>
		<path class="st4" d="M464.3,153.8v-0.7c0-0.1,0.1-0.2,0.2-0.2s0.2,0.1,0.2,0.2v0.7c0,0.1-0.1,0.2-0.2,0.2S464.3,153.9,464.3,153.8
			L464.3,153.8z"/>
		<path class="st4" d="M464.4,151.5v-0.7c0-0.1,0.1-0.2,0.2-0.2s0.2,0.1,0.2,0.2v0.7c0,0.1-0.1,0.2-0.2,0.2S464.4,151.7,464.4,151.5
			z"/>
		<path class="st4" d="M464.4,149.3v-0.7c0-0.1,0.1-0.2,0.2-0.2s0.2,0.1,0.2,0.2v0.7c0,0.1-0.1,0.2-0.2,0.2S464.4,149.4,464.4,149.3
			z"/>
		<path class="st4" d="M464.4,147v-0.7c0-0.1,0.1-0.2,0.2-0.2s0.2,0.1,0.2,0.2v0.7c0,0.1-0.1,0.2-0.2,0.2
			C464.5,147.3,464.4,147.2,464.4,147L464.4,147z"/>
		<path class="st4" d="M464.3,144.8v-0.7c0-0.1,0.1-0.2,0.2-0.2s0.2,0.1,0.2,0.2v0.7c0,0.1-0.1,0.2-0.2,0.2S464.3,144.9,464.3,144.8
			z"/>
		<path class="st4" d="M464.1,142.5l-0.1-0.7c0-0.1,0.1-0.2,0.2-0.2s0.2,0.1,0.2,0.2l0.1,0.7c0,0.1-0.1,0.2-0.2,0.2
			S464.1,142.7,464.1,142.5L464.1,142.5z"/>
		<path class="st4" d="M463.8,140.3l-0.1-0.7c0-0.1,0.1-0.2,0.2-0.2s0.2,0.1,0.2,0.2l0.1,0.7c0,0.1-0.1,0.2-0.2,0.2
			C464,140.5,463.9,140.4,463.8,140.3z"/>
		<path class="st4" d="M463.5,138.1l-0.1-0.7c0-0.1,0.1-0.2,0.2-0.3c0.1,0,0.2,0.1,0.3,0.2l0.1,0.7c0,0.1-0.1,0.2-0.2,0.3
			C463.6,138.3,463.5,138.2,463.5,138.1L463.5,138.1z"/>
		<path class="st4" d="M463.1,135.9l-0.2-0.7c0-0.1,0-0.2,0.2-0.3c0.1,0,0.2,0,0.3,0.2l0.2,0.7c0,0.1,0,0.2-0.2,0.3
			C463.2,136.1,463.1,136,463.1,135.9z"/>
		<path class="st4" d="M462.5,133.7l-0.2-0.7c0-0.1,0-0.2,0.1-0.3c0.1,0,0.2,0,0.3,0.1l0.2,0.7c0,0.1,0,0.2-0.2,0.3
			C462.7,133.9,462.6,133.8,462.5,133.7L462.5,133.7z"/>
		<path class="st4" d="M461.9,131.5l-0.2-0.6c0-0.1,0-0.2,0.1-0.3c0.1,0,0.2,0,0.3,0.1l0.2,0.6c0,0.1,0,0.2-0.1,0.3
			C462,131.7,461.9,131.6,461.9,131.5L461.9,131.5z"/>
		<path class="st4" d="M461.1,129.4l-0.2-0.6c0-0.1,0-0.2,0.1-0.3c0.1,0,0.2,0,0.3,0.1l0.2,0.6c0,0.1,0,0.2-0.1,0.3
			S461.2,129.5,461.1,129.4z"/>
		<path class="st4" d="M460.3,127.3l-0.3-0.6c0-0.1,0-0.2,0.1-0.3c0.1,0,0.2,0,0.3,0.1l0.3,0.6c0,0.1,0,0.2-0.1,0.3
			C460.4,127.5,460.3,127.4,460.3,127.3L460.3,127.3z"/>
		<path class="st4" d="M459.3,125.3l-0.3-0.6c-0.1-0.1,0-0.2,0.1-0.3c0.1-0.1,0.2,0,0.3,0.1l0.3,0.6c0.1,0.1,0,0.2-0.1,0.3
			C459.5,125.5,459.3,125.4,459.3,125.3L459.3,125.3z"/>
		<path class="st4" d="M458.2,123.4l-0.4-0.6c-0.1-0.1,0-0.2,0.1-0.3c0.1-0.1,0.2,0,0.3,0.1l0.4,0.6c0.1,0.1,0,0.2-0.1,0.3
			C458.4,123.5,458.2,123.5,458.2,123.4L458.2,123.4z"/>
		<path class="st4" d="M457,121.5l-0.4-0.6c-0.1-0.1,0-0.2,0.1-0.3c0.1-0.1,0.2,0,0.3,0.1l0.4,0.6c0.1,0.1,0,0.2-0.1,0.3
			C457.2,121.6,457,121.6,457,121.5L457,121.5z"/>
		<path class="st4" d="M455.6,119.7l-0.4-0.5c-0.1-0.1-0.1-0.2,0-0.3c0.1-0.1,0.2-0.1,0.3,0l0.4,0.5c0.1,0.1,0.1,0.2,0,0.3
			S455.7,119.8,455.6,119.7L455.6,119.7z"/>
		<path class="st4" d="M454.2,118l-0.5-0.5c-0.1-0.1-0.1-0.2,0-0.3c0.1-0.1,0.2-0.1,0.3,0l0.5,0.5c0.1,0.1,0.1,0.2,0,0.3
			C454.4,118,454.3,118,454.2,118L454.2,118z"/>
		<path class="st4" d="M452.6,116.3l-0.5-0.5c-0.1-0.1-0.1-0.2,0-0.3c0.1-0.1,0.2-0.1,0.3,0l0.5,0.5c0.1,0.1,0.1,0.2,0,0.3
			C452.8,116.4,452.7,116.4,452.6,116.3L452.6,116.3z"/>
		<path class="st4" d="M450.9,114.8l-0.5-0.4c-0.1-0.1-0.1-0.2,0-0.3c0.1-0.1,0.2-0.1,0.3,0l0.5,0.4c0.1,0.1,0.1,0.2,0,0.3
			C451.2,114.9,451,114.9,450.9,114.8L450.9,114.8z"/>
		<path class="st4" d="M449.2,113.4l-0.5-0.4c-0.1-0.1-0.1-0.2,0-0.3c0.1-0.1,0.2-0.1,0.3,0l0.5,0.4c0.1,0.1,0.1,0.2,0,0.3
			C449.4,113.5,449.3,113.5,449.2,113.4L449.2,113.4z"/>
		<path class="st4" d="M447.3,112.2l-0.6-0.4c-0.1-0.1-0.1-0.2-0.1-0.3c0.1-0.1,0.2-0.1,0.3-0.1l0.6,0.4c0.1,0.1,0.1,0.2,0.1,0.3
			C447.6,112.2,447.4,112.2,447.3,112.2L447.3,112.2z"/>
		<path class="st4" d="M445.4,111l-0.6-0.3c-0.1-0.1-0.1-0.2-0.1-0.3c0.1-0.1,0.2-0.1,0.3-0.1l0.6,0.3c0.1,0.1,0.1,0.2,0.1,0.3
			C445.7,111,445.5,111,445.4,111L445.4,111z"/>
		<path class="st4" d="M443.4,109.9l-0.6-0.3c-0.1-0.1-0.1-0.2-0.1-0.3c0.1-0.1,0.2-0.1,0.3-0.1l0.6,0.3c0.1,0.1,0.1,0.2,0.1,0.3
			C443.7,109.9,443.5,110,443.4,109.9L443.4,109.9z"/>
		<path class="st4" d="M441.4,109l-0.6-0.3c-0.1,0-0.2-0.2-0.1-0.3c0-0.1,0.2-0.2,0.3-0.1l0.6,0.3c0.1,0,0.2,0.2,0.1,0.3
			C441.6,109,441.5,109,441.4,109L441.4,109z"/>
		<path class="st4" d="M439.3,108.1l-0.6-0.2c-0.1,0-0.2-0.2-0.1-0.3c0-0.1,0.2-0.2,0.3-0.1l0.6,0.2c0.1,0,0.2,0.2,0.1,0.3
			C439.5,108.1,439.4,108.2,439.3,108.1L439.3,108.1z"/>
		<path class="st4" d="M437.2,107.4l-0.6-0.2c-0.1,0-0.2-0.2-0.1-0.3c0-0.1,0.2-0.2,0.3-0.1l0.6,0.2c0.1,0,0.2,0.2,0.1,0.3
			C437.4,107.3,437.3,107.4,437.2,107.4L437.2,107.4z"/>
		<path class="st4" d="M435,106.7l-0.7-0.2c-0.1,0-0.2-0.1-0.1-0.3c0-0.1,0.1-0.2,0.3-0.1l0.7,0.2c0.1,0,0.2,0.1,0.1,0.3
			C435.3,106.7,435.2,106.7,435,106.7L435,106.7z"/>
		<path class="st4" d="M432.9,106.1l-0.7-0.2c-0.1,0-0.2-0.1-0.2-0.2s0.1-0.2,0.2-0.2l0.7,0.2c0.1,0,0.2,0.1,0.2,0.2
			C433.1,106.1,433,106.2,432.9,106.1L432.9,106.1z"/>
		<path class="st4" d="M430.7,105.7l-0.7-0.1c-0.1,0-0.2-0.1-0.2-0.2s0.1-0.2,0.2-0.2l0.7,0.1c0.1,0,0.2,0.1,0.2,0.2
			C430.9,105.6,430.8,105.7,430.7,105.7L430.7,105.7z"/>
		<path class="st4" d="M428.4,105.3l-0.7-0.1c-0.1,0-0.2-0.1-0.2-0.2s0.1-0.2,0.2-0.2l0.7,0.1c0.1,0,0.2,0.1,0.2,0.2
			C428.7,105.2,428.6,105.3,428.4,105.3L428.4,105.3z"/>
		<path class="st4" d="M426.2,105l-0.7-0.1c-0.1,0-0.2-0.1-0.2-0.2s0.1-0.2,0.2-0.2l0.7,0.1c0.1,0,0.2,0.1,0.2,0.2
			C426.4,104.9,426.3,105,426.2,105L426.2,105z"/>
		<path class="st4" d="M424,104.7h-0.7c-0.1,0-0.2-0.1-0.2-0.2s0.1-0.2,0.2-0.2h0.7c0.1,0,0.2,0.1,0.2,0.2
			C424.2,104.7,424.1,104.7,424,104.7L424,104.7z"/>
		<path class="st4" d="M421.7,104.6H421c-0.1,0-0.2-0.1-0.2-0.2s0.1-0.2,0.2-0.2h0.7c0.1,0,0.2,0.1,0.2,0.2
			C421.9,104.5,421.8,104.6,421.7,104.6L421.7,104.6z"/>
		<path class="st4" d="M419.5,104.5h-0.7c-0.1,0-0.2-0.1-0.2-0.2s0.1-0.2,0.2-0.2h0.7c0.1,0,0.2,0.1,0.2,0.2
			C419.7,104.5,419.6,104.5,419.5,104.5L419.5,104.5z"/>
		<path class="st4" d="M417.2,104.6h-0.7c-0.1,0-0.2-0.1-0.2-0.2s0.1-0.2,0.2-0.2h0.7c0.1,0,0.2,0.1,0.2,0.2
			C417.4,104.5,417.3,104.6,417.2,104.6L417.2,104.6z"/>
		<path class="st4" d="M415,104.7h-0.7c-0.1,0-0.2-0.1-0.2-0.2s0.1-0.2,0.2-0.2h0.7c0.1,0,0.2,0.1,0.2,0.2
			C415.2,104.5,415.1,104.6,415,104.7L415,104.7z"/>
		<path class="st4" d="M412.7,104.8l-0.7,0.1c-0.1,0-0.2-0.1-0.2-0.2s0.1-0.2,0.2-0.2l0.7-0.1c0.1,0,0.2,0.1,0.2,0.2
			S412.8,104.8,412.7,104.8L412.7,104.8z"/>
		<path class="st4" d="M410.5,105l-0.7,0.1c-0.1,0-0.2-0.1-0.2-0.2s0.1-0.2,0.2-0.2l0.7-0.1c0.1,0,0.2,0.1,0.2,0.2
			S410.6,105,410.5,105L410.5,105z"/>
		<path class="st4" d="M408.2,105.3l-0.7,0.1c-0.1,0-0.2-0.1-0.2-0.2s0.1-0.2,0.2-0.2l0.7-0.1c0.1,0,0.2,0.1,0.2,0.2
			C408.4,105.2,408.4,105.3,408.2,105.3L408.2,105.3z"/>
		<path class="st4" d="M406,105.7l-0.7,0.1c-0.1,0-0.2-0.1-0.2-0.2s0.1-0.2,0.2-0.2l0.7-0.1c0.1,0,0.2,0.1,0.2,0.2
			S406.1,105.7,406,105.7L406,105.7z"/>
		<path class="st4" d="M403.8,106.1l-0.7,0.1c-0.1,0-0.2,0-0.2-0.2c0-0.1,0-0.2,0.2-0.2l0.7-0.1c0.1,0,0.2,0,0.2,0.2
			S403.9,106.1,403.8,106.1L403.8,106.1z"/>
		<path class="st4" d="M401.6,106.5l-0.7,0.1c-0.1,0-0.2,0-0.2-0.2c0-0.1,0-0.2,0.2-0.2l0.7-0.1c0.1,0,0.2,0,0.2,0.2
			C401.8,106.4,401.7,106.5,401.6,106.5L401.6,106.5z"/>
		<path class="st4" d="M399.4,107l-0.7,0.2c-0.1,0-0.2,0-0.2-0.1s0-0.2,0.1-0.2l0.7-0.2c0.1,0,0.2,0,0.2,0.1
			C399.6,106.9,399.5,107,399.4,107L399.4,107z"/>
		<path class="st4" d="M397.2,107.6l-0.7,0.2c-0.1,0-0.2,0-0.2-0.1s0-0.2,0.1-0.2l0.7-0.2c0.1,0,0.2,0,0.2,0.1
			C397.4,107.4,397.3,107.5,397.2,107.6L397.2,107.6z"/>
		<path class="st4" d="M395,108.1l-0.7,0.2c-0.1,0-0.2,0-0.2-0.1s0-0.2,0.1-0.2l0.7-0.2c0.1,0,0.2,0,0.2,0.1
			C395.2,108,395.1,108.1,395,108.1L395,108.1z"/>
		<path class="st4" d="M392.8,108.8l-0.7,0.2c-0.1,0-0.2,0-0.2-0.1s0-0.2,0.1-0.2l0.7-0.2c0.1,0,0.2,0,0.2,0.1
			C393,108.6,392.9,108.7,392.8,108.8L392.8,108.8z"/>
		<path class="st4" d="M390.7,109.4l-0.6,0.2c-0.1,0-0.2,0-0.2-0.1s0-0.2,0.1-0.2l0.6-0.2c0.1,0,0.2,0,0.2,0.1
			C390.8,109.3,390.8,109.4,390.7,109.4L390.7,109.4z"/>
		<path class="st4" d="M388.5,110.1l-0.6,0.2c-0.1,0-0.2,0-0.2-0.1s0-0.2,0.1-0.2l0.6-0.2c0.1,0,0.2,0,0.2,0.1
			C388.7,109.9,388.6,110.1,388.5,110.1L388.5,110.1z"/>
		<path class="st4" d="M386.4,110.8l-0.6,0.2c-0.1,0-0.2,0-0.2-0.1s0-0.2,0.1-0.2l0.6-0.2c0.1,0,0.2,0,0.2,0.1
			C386.5,110.7,386.5,110.8,386.4,110.8L386.4,110.8z"/>
		<path class="st4" d="M384.2,111.5l-0.6,0.2c-0.1,0-0.2,0-0.2-0.1s0-0.2,0.1-0.2l0.6-0.2c0.1,0,0.2,0,0.2,0.1
			C384.4,111.4,384.3,111.5,384.2,111.5L384.2,111.5z"/>
		<path class="st4" d="M382.1,112.3l-0.6,0.2c-0.1,0-0.2,0-0.2-0.1s0-0.2,0.1-0.2l0.6-0.2c0.1,0,0.2,0,0.2,0.1
			C382.3,112.1,382.2,112.2,382.1,112.3L382.1,112.3z"/>
		<path class="st4" d="M380,113.1l-0.6,0.2c-0.1,0-0.2,0-0.2-0.1s0-0.2,0.1-0.2l0.6-0.2c0.1,0,0.2,0,0.2,0.1
			C380.1,112.9,380.1,113,380,113.1L380,113.1z"/>
		<path class="st4" d="M377.9,113.9l-0.6,0.2c-0.1,0-0.2,0-0.2-0.1s0-0.2,0.1-0.2l0.6-0.2c0.1,0,0.2,0,0.2,0.1
			C378,113.7,378,113.8,377.9,113.9L377.9,113.9z"/>
		<path class="st4" d="M375.8,114.7l-0.6,0.2c-0.1,0-0.2,0-0.2-0.1s0-0.2,0.1-0.2l0.6-0.2c0.1,0,0.2,0,0.2,0.1
			C375.9,114.5,375.9,114.6,375.8,114.7L375.8,114.7z"/>
		<path class="st4" d="M373.7,115.5l-0.6,0.2c-0.1,0-0.2,0-0.2-0.1s0-0.2,0.1-0.2l0.6-0.2c0.1,0,0.2,0,0.2,0.1
			C373.8,115.3,373.8,115.4,373.7,115.5L373.7,115.5z"/>
	</g>
	<path class="st4" d="M62,158.4c-0.1,0-0.1,0-0.2-0.1l-0.3-0.2c-0.2-0.1-0.2-0.3-0.1-0.5c0.1-0.2,0.3-0.2,0.5-0.1l0.3,0.2
		c0.2,0.1,0.2,0.3,0.1,0.5C62.2,158.4,62.1,158.4,62,158.4z M60.4,157.3c-0.1,0-0.1,0-0.2-0.1c-0.2-0.1-0.4-0.3-0.6-0.4
		c-0.2-0.1-0.2-0.3-0.1-0.5c0.1-0.2,0.3-0.2,0.5-0.1c0.2,0.1,0.4,0.3,0.6,0.4c0.2,0.1,0.2,0.3,0.1,0.5
		C60.6,157.3,60.5,157.3,60.4,157.3z M58.5,156c-0.1,0-0.1,0-0.2-0.1c-0.2-0.1-0.4-0.3-0.5-0.4c-0.2-0.1-0.2-0.3-0.1-0.5
		c0.1-0.2,0.3-0.2,0.5-0.1c0.2,0.1,0.4,0.3,0.5,0.4c0.2,0.1,0.2,0.3,0.1,0.5C58.7,156,58.6,156,58.5,156z M56.7,154.7
		c-0.1,0-0.1,0-0.2-0.1c-0.2-0.1-0.4-0.3-0.5-0.4c-0.1-0.1-0.2-0.3-0.1-0.5c0.1-0.1,0.3-0.2,0.5-0.1c0.2,0.1,0.4,0.3,0.5,0.4
		c0.1,0.1,0.2,0.3,0.1,0.5C56.9,154.6,56.8,154.7,56.7,154.7z M54.9,153.3c-0.1,0-0.1,0-0.2-0.1c-0.2-0.1-0.4-0.3-0.5-0.4
		c-0.1-0.1-0.2-0.3-0.1-0.5c0.1-0.1,0.3-0.2,0.5-0.1c0.2,0.1,0.4,0.3,0.5,0.4c0.1,0.1,0.2,0.3,0.1,0.5
		C55.1,153.2,55,153.3,54.9,153.3z M53.2,151.9c-0.1,0-0.2,0-0.2-0.1c-0.2-0.1-0.3-0.3-0.5-0.4c-0.1-0.1-0.2-0.3,0-0.5
		c0.1-0.1,0.3-0.2,0.5,0c0.2,0.1,0.3,0.3,0.5,0.4c0.1,0.1,0.2,0.3,0,0.5C53.4,151.8,53.3,151.9,53.2,151.9z M51.5,150.4
		c-0.1,0-0.2,0-0.2-0.1c-0.2-0.2-0.3-0.3-0.5-0.5c-0.1-0.1-0.2-0.3,0-0.5c0.1-0.1,0.3-0.2,0.5,0c0.2,0.1,0.3,0.3,0.5,0.4
		c0.1,0.1,0.2,0.3,0,0.5C51.7,150.3,51.6,150.4,51.5,150.4z M49.8,148.9c-0.1,0-0.2,0-0.2-0.1c-0.2-0.2-0.3-0.3-0.5-0.5
		c-0.1-0.1-0.1-0.3,0-0.5c0.1-0.1,0.3-0.1,0.5,0c0.2,0.2,0.3,0.3,0.5,0.5c0.1,0.1,0.1,0.3,0,0.5C50,148.8,49.9,148.9,49.8,148.9z
		 M48.2,147.3c-0.1,0-0.2,0-0.2-0.1c-0.2-0.2-0.3-0.3-0.5-0.5c-0.1-0.1-0.1-0.3,0-0.5c0.1-0.1,0.3-0.1,0.5,0
		c0.2,0.2,0.3,0.3,0.5,0.5c0.1,0.1,0.1,0.3,0,0.5C48.4,147.3,48.3,147.3,48.2,147.3z M46.6,145.7c-0.1,0-0.2,0-0.2-0.1
		c-0.2-0.2-0.3-0.3-0.5-0.5c-0.1-0.1-0.1-0.4,0-0.5s0.4-0.1,0.5,0c0.2,0.2,0.3,0.3,0.5,0.5c0.1,0.1,0.1,0.4,0,0.5
		S46.7,145.7,46.6,145.7z M45.1,144c-0.1,0-0.2,0-0.3-0.1c-0.2-0.2-0.3-0.3-0.4-0.5c-0.1-0.1-0.1-0.4,0-0.5s0.4-0.1,0.5,0
		c0.1,0.2,0.3,0.3,0.4,0.5c0.1,0.1,0.1,0.4,0,0.5S45.2,144,45.1,144z M43.6,142.3c-0.1,0-0.2,0-0.3-0.1c-0.1-0.2-0.3-0.4-0.4-0.5
		c-0.1-0.1-0.1-0.4,0.1-0.5s0.4-0.1,0.5,0.1c0.1,0.2,0.3,0.3,0.4,0.5c0.1,0.1,0.1,0.4,0,0.5C43.8,142.3,43.7,142.3,43.6,142.3z
		 M42.2,140.5c-0.1,0-0.2,0-0.3-0.1c-0.1-0.2-0.3-0.4-0.4-0.5c-0.1-0.2-0.1-0.4,0.1-0.5c0.1-0.1,0.4-0.1,0.5,0.1
		c0.1,0.2,0.3,0.4,0.4,0.5c0.1,0.1,0.1,0.4-0.1,0.5C42.3,140.5,42.3,140.5,42.2,140.5z M40.9,138.7c-0.1,0-0.2-0.1-0.3-0.1
		c-0.1-0.2-0.3-0.4-0.4-0.6c-0.1-0.2-0.1-0.4,0.1-0.5c0.2-0.1,0.4-0.1,0.5,0.1c0.1,0.2,0.3,0.4,0.4,0.6c0.1,0.2,0.1,0.4-0.1,0.5
		C41,138.7,40.9,138.7,40.9,138.7z M39.6,136.8c-0.1,0-0.2-0.1-0.3-0.2c-0.1-0.2-0.2-0.4-0.4-0.6c-0.1-0.2,0-0.4,0.1-0.5
		c0.2-0.1,0.4,0,0.5,0.1c0.1,0.2,0.2,0.4,0.4,0.6c0.1,0.2,0.1,0.4-0.1,0.5C39.7,136.8,39.7,136.8,39.6,136.8z M38.5,134.9
		c-0.1,0-0.2-0.1-0.3-0.2c-0.1-0.2-0.2-0.4-0.3-0.6c-0.1-0.2,0-0.4,0.1-0.5c0.2-0.1,0.4,0,0.5,0.1c0.1,0.2,0.2,0.4,0.3,0.6
		c0.1,0.2,0,0.4-0.1,0.5C38.6,134.9,38.5,134.9,38.5,134.9z M37.4,132.9c-0.1,0-0.2-0.1-0.3-0.2c-0.1-0.2-0.2-0.4-0.3-0.6
		c-0.1-0.2,0-0.4,0.2-0.5s0.4,0,0.5,0.2s0.2,0.4,0.3,0.6c0.1,0.2,0,0.4-0.2,0.5C37.5,132.9,37.5,132.9,37.4,132.9z M36.5,130.8
		c-0.1,0-0.3-0.1-0.3-0.2c-0.1-0.2-0.2-0.4-0.3-0.6c-0.1-0.2,0-0.4,0.2-0.4c0.2-0.1,0.4,0,0.4,0.2c0.1,0.2,0.2,0.4,0.3,0.6
		c0.1,0.2,0,0.4-0.2,0.4C36.6,130.8,36.5,130.8,36.5,130.8z M35.7,128.7c-0.1,0-0.3-0.1-0.3-0.2c-0.1-0.2-0.1-0.4-0.2-0.6
		c-0.1-0.2,0-0.4,0.2-0.4c0.2-0.1,0.4,0,0.4,0.2c0.1,0.2,0.1,0.4,0.2,0.6c0.1,0.2,0,0.4-0.2,0.4C35.7,128.7,35.7,128.7,35.7,128.7z
		 M35,126.6c-0.1,0-0.3-0.1-0.3-0.2c-0.1-0.2-0.1-0.4-0.2-0.7c0-0.2,0.1-0.4,0.2-0.4c0.2,0,0.4,0.1,0.4,0.2c0.1,0.2,0.1,0.4,0.2,0.6
		C35.4,126.3,35.3,126.5,35,126.6C35.1,126.6,35,126.6,35,126.6z M34.5,124.4c-0.2,0-0.3-0.1-0.3-0.3c0-0.2-0.1-0.4-0.1-0.7
		c0-0.2,0.1-0.4,0.3-0.4s0.4,0.1,0.4,0.3c0,0.2,0.1,0.4,0.1,0.7C34.8,124.1,34.7,124.3,34.5,124.4L34.5,124.4z M34.1,122.1
		c-0.2,0-0.3-0.1-0.3-0.3c0-0.2-0.1-0.5-0.1-0.7s0.1-0.4,0.3-0.4s0.4,0.1,0.4,0.3c0,0.2,0.1,0.4,0.1,0.7
		C34.5,121.9,34.3,122.1,34.1,122.1L34.1,122.1z M33.9,119.9c-0.2,0-0.3-0.1-0.3-0.3c0-0.2,0-0.5,0-0.7s0.1-0.3,0.3-0.4
		c0.2,0,0.3,0.1,0.4,0.3c0,0.2,0,0.4,0,0.7C34.2,119.7,34.1,119.9,33.9,119.9L33.9,119.9z M33.8,117.6c-0.2,0-0.3-0.1-0.3-0.3
		c0-0.2,0-0.3,0-0.5v-0.2c0-0.2,0.2-0.4,0.3-0.4l0,0c0.2,0,0.3,0.2,0.3,0.4v0.2c0,0.2,0,0.3,0,0.4C34.1,117.4,34,117.6,33.8,117.6
		L33.8,117.6z M33.8,115.3L33.8,115.3c-0.2,0-0.3-0.1-0.3-0.3c0-0.2,0-0.4,0-0.7c0-0.2,0.2-0.3,0.4-0.3s0.3,0.2,0.3,0.4
		c0,0.2,0,0.4,0,0.6S34,115.3,33.8,115.3z M34,113.1L34,113.1c-0.2,0-0.4-0.2-0.3-0.4c0-0.2,0-0.5,0.1-0.7c0-0.2,0.2-0.3,0.4-0.3
		s0.3,0.2,0.3,0.4c0,0.2,0,0.4-0.1,0.7C34.3,113,34.2,113.1,34,113.1z M34.2,110.9L34.2,110.9c-0.2,0-0.4-0.2-0.3-0.4
		c0-0.2,0.1-0.5,0.1-0.7s0.2-0.3,0.4-0.3s0.3,0.2,0.3,0.4c0,0.2-0.1,0.4-0.1,0.7C34.5,110.7,34.4,110.9,34.2,110.9z M34.6,108.6
		C34.6,108.6,34.5,108.6,34.6,108.6c-0.2,0-0.4-0.2-0.3-0.4c0-0.2,0.1-0.4,0.1-0.7c0-0.2,0.2-0.3,0.4-0.3s0.3,0.2,0.3,0.4
		c0,0.2-0.1,0.4-0.1,0.7C34.9,108.5,34.7,108.6,34.6,108.6z M35,106.4L35,106.4c-0.3,0-0.4-0.2-0.3-0.4c0-0.2,0.1-0.4,0.1-0.7
		c0-0.2,0.2-0.3,0.4-0.3s0.3,0.2,0.3,0.4c-0.1,0.2-0.1,0.4-0.1,0.7C35.3,106.3,35.2,106.4,35,106.4z M35.5,104.2L35.5,104.2
		c-0.3-0.1-0.4-0.2-0.3-0.4c0.1-0.2,0.1-0.4,0.2-0.7c0-0.2,0.2-0.3,0.4-0.2c0.2,0,0.3,0.2,0.2,0.4c-0.1,0.2-0.1,0.4-0.2,0.7
		C35.8,104.1,35.7,104.2,35.5,104.2z M36.1,102L36.1,102c-0.3-0.1-0.4-0.3-0.3-0.4c0.1-0.2,0.1-0.4,0.2-0.7c0.1-0.2,0.2-0.3,0.4-0.2
		c0.2,0.1,0.3,0.2,0.2,0.4c-0.1,0.2-0.1,0.4-0.2,0.6C36.4,101.9,36.3,102,36.1,102z M36.8,99.9L36.8,99.9c-0.3-0.1-0.4-0.2-0.3-0.4
		c0.1-0.2,0.1-0.4,0.2-0.6c0.1-0.2,0.2-0.3,0.4-0.2c0.2,0.1,0.3,0.3,0.2,0.4c-0.1,0.2-0.1,0.4-0.2,0.6
		C37.1,99.8,36.9,99.9,36.8,99.9z M37.5,97.7L37.5,97.7c-0.3-0.1-0.4-0.3-0.3-0.4c0.1-0.2,0.2-0.4,0.2-0.6c0.1-0.2,0.3-0.3,0.4-0.2
		c0.2,0.1,0.3,0.3,0.2,0.4c-0.1,0.2-0.2,0.4-0.2,0.6C37.8,97.6,37.6,97.7,37.5,97.7z M38.3,95.6L38.3,95.6c-0.3-0.1-0.4-0.3-0.3-0.4
		c0.1-0.2,0.2-0.4,0.2-0.6c0.1-0.2,0.3-0.3,0.4-0.2c0.2,0.1,0.3,0.3,0.2,0.4c-0.1,0.2-0.2,0.4-0.2,0.6
		C38.6,95.5,38.4,95.6,38.3,95.6z M39.1,93.5L39.1,93.5c-0.3-0.1-0.4-0.3-0.3-0.4c0.1-0.2,0.2-0.4,0.3-0.6s0.3-0.3,0.4-0.2
		c0.2,0.1,0.3,0.3,0.2,0.4c-0.1,0.2-0.2,0.4-0.3,0.6C39.4,93.4,39.3,93.5,39.1,93.5z M40,91.4L40,91.4c-0.3-0.1-0.3-0.3-0.3-0.4
		c0.1-0.2,0.2-0.4,0.3-0.6s0.3-0.2,0.4-0.2c0.2,0.1,0.2,0.3,0.2,0.4c-0.1,0.2-0.2,0.4-0.3,0.6C40.3,91.3,40.1,91.4,40,91.4z
		 M41,89.4L41,89.4c-0.3-0.1-0.3-0.3-0.3-0.5c0.1-0.2,0.2-0.4,0.3-0.6s0.3-0.2,0.5-0.2c0.2,0.1,0.2,0.3,0.2,0.5
		c-0.1,0.2-0.2,0.4-0.3,0.6C41.2,89.3,41.1,89.4,41,89.4z M41.9,87.3C41.8,87.3,41.8,87.3,41.9,87.3c-0.3-0.1-0.3-0.3-0.3-0.5
		c0.1-0.2,0.2-0.4,0.3-0.6s0.3-0.2,0.5-0.2c0.2,0.1,0.2,0.3,0.2,0.5c-0.1,0.2-0.2,0.4-0.3,0.6C42.2,87.2,42.1,87.3,41.9,87.3z
		 M43,85.3c-0.1,0-0.1,0-0.2,0c-0.2-0.1-0.2-0.3-0.1-0.5c0.1-0.2,0.2-0.4,0.3-0.6s0.3-0.2,0.5-0.1s0.2,0.3,0.1,0.5
		c-0.1,0.2-0.2,0.4-0.3,0.6C43.2,85.2,43.1,85.3,43,85.3z M44,83.3c-0.1,0-0.1,0-0.2,0c-0.2-0.1-0.2-0.3-0.1-0.5
		c0.1-0.2,0.2-0.4,0.3-0.6s0.3-0.2,0.5-0.1s0.2,0.3,0.1,0.5c-0.1,0.2-0.2,0.4-0.3,0.6C44.3,83.2,44.1,83.3,44,83.3z M45.1,81.3
		c-0.1,0-0.1,0-0.2,0c-0.2-0.1-0.2-0.3-0.1-0.5c0.1-0.2,0.2-0.4,0.3-0.6s0.3-0.2,0.5-0.1s0.2,0.3,0.1,0.5c-0.1,0.2-0.2,0.4-0.3,0.6
		C45.3,81.3,45.2,81.3,45.1,81.3z M46.3,79.4c-0.1,0-0.1,0-0.2,0c-0.2-0.1-0.2-0.3-0.1-0.5c0.1-0.2,0.2-0.4,0.4-0.6
		c0.1-0.2,0.3-0.2,0.5-0.1s0.2,0.3,0.1,0.5c-0.1,0.2-0.2,0.4-0.3,0.6C46.5,79.3,46.4,79.4,46.3,79.4z M47.4,77.5
		c-0.1,0-0.1,0-0.2-0.1c-0.2-0.1-0.2-0.3-0.1-0.5c0.1-0.2,0.2-0.4,0.4-0.6c0.1-0.2,0.3-0.2,0.5-0.1s0.2,0.3,0.1,0.5
		c-0.1,0.2-0.2,0.4-0.4,0.6C47.7,77.4,47.5,77.5,47.4,77.5z M48.6,75.5c-0.1,0-0.1,0-0.2-0.1c-0.2-0.1-0.2-0.3-0.1-0.5
		c0.1-0.2,0.2-0.4,0.4-0.6c0.1-0.2,0.3-0.2,0.5-0.1s0.2,0.3,0.1,0.5c-0.1,0.2-0.2,0.4-0.4,0.6C48.9,75.5,48.8,75.5,48.6,75.5z
		 M49.9,73.7c-0.1,0-0.1,0-0.2-0.1c-0.2-0.1-0.2-0.3-0.1-0.5c0.1-0.2,0.3-0.4,0.4-0.6c0.1-0.2,0.3-0.2,0.5-0.1s0.2,0.3,0.1,0.5
		c-0.1,0.2-0.3,0.4-0.4,0.6C50.1,73.6,50,73.7,49.9,73.7z M51.2,71.8c-0.1,0-0.1,0-0.2-0.1c-0.2-0.1-0.2-0.3-0.1-0.5
		c0.1-0.2,0.3-0.4,0.4-0.6c0.1-0.2,0.3-0.2,0.5-0.1s0.2,0.3,0.1,0.5c-0.1,0.2-0.3,0.4-0.4,0.6C51.4,71.7,51.3,71.8,51.2,71.8z
		 M52.5,69.9c-0.1,0-0.1,0-0.2-0.1c-0.2-0.1-0.2-0.3-0.1-0.5c0.1-0.2,0.3-0.4,0.4-0.5c0.1-0.2,0.3-0.2,0.5-0.1s0.2,0.3,0.1,0.5
		c-0.1,0.2-0.3,0.4-0.4,0.5C52.7,69.9,52.6,69.9,52.5,69.9z M53.8,68.1c-0.1,0-0.1,0-0.2-0.1c-0.1-0.1-0.2-0.3-0.1-0.5
		c0.1-0.2,0.3-0.4,0.4-0.5c0.1-0.1,0.3-0.2,0.5-0.1c0.1,0.1,0.2,0.3,0.1,0.5c-0.1,0.2-0.3,0.4-0.4,0.5C54,68.1,53.9,68.1,53.8,68.1z
		 M55.2,66.3c-0.1,0-0.1,0-0.2-0.1c-0.1-0.1-0.2-0.3-0.1-0.5c0.1-0.2,0.3-0.4,0.4-0.5c0.1-0.1,0.3-0.2,0.5-0.1
		c0.1,0.1,0.2,0.3,0.1,0.5c-0.1,0.2-0.3,0.4-0.4,0.5C55.4,66.3,55.3,66.3,55.2,66.3z M56.6,64.6c-0.1,0-0.2,0-0.2-0.1
		c-0.1-0.1-0.2-0.3,0-0.5c0.1-0.2,0.3-0.4,0.4-0.5c0.1-0.1,0.3-0.2,0.5,0c0.1,0.1,0.2,0.3,0,0.5c-0.1,0.2-0.3,0.3-0.4,0.5
		C56.8,64.5,56.7,64.6,56.6,64.6z M58.1,62.8c-0.1,0-0.2,0-0.2-0.1c-0.1-0.1-0.2-0.3,0-0.5c0.1-0.2,0.3-0.3,0.4-0.5
		c0.1-0.1,0.3-0.2,0.5,0c0.1,0.1,0.2,0.3,0,0.5c-0.1,0.2-0.3,0.3-0.4,0.5C58.3,62.8,58.2,62.8,58.1,62.8z M59.6,61.1
		c-0.1,0-0.2,0-0.2-0.1c-0.1-0.1-0.2-0.3,0-0.5s0.3-0.3,0.5-0.5c0.1-0.1,0.3-0.1,0.5,0c0.1,0.1,0.1,0.3,0,0.5
		c-0.2,0.2-0.3,0.3-0.5,0.5C59.7,61.1,59.7,61.1,59.6,61.1z"/>
	<g>
		<g>
			<g>
				<path class="st1" d="M394.2,64.1c-8.5,0-15.4-6.9-15.4-15.4s6.9-15.4,15.4-15.4s15.4,6.9,15.4,15.4S402.7,64.1,394.2,64.1z
					 M394.2,33.8c-8.2,0-14.9,6.7-14.9,14.9s6.7,14.9,14.9,14.9s14.9-6.7,14.9-14.9C409.2,40.5,402.5,33.8,394.2,33.8z"/>
			</g>
			<g>
				<path class="st1" d="M394.2,61.5c-7,0-12.8-5.7-12.8-12.8c0-7,5.7-12.8,12.8-12.8c7,0,12.8,5.7,12.8,12.8
					C407,55.7,401.3,61.5,394.2,61.5z M394.2,36.7c-6.6,0-12,5.4-12,12s5.4,12,12,12s12-5.4,12-12S400.8,36.7,394.2,36.7z"/>
			</g>
		</g>
		<g>
			<path class="st1" d="M398,46.6h1.3c0.2,0,0.3-0.1,0.3-0.3v-0.9c0-1.6-1.3-2.9-2.9-2.9h-4.8c-1.6,0-2.9,1.3-2.9,2.9V47
				c0,1.6,1.3,2.9,2.9,2.9h4.8c0.6,0,1.1,0.5,1.1,1.1v0.9c0,0.6-0.5,1.1-1.1,1.1h-4.8c-0.6,0-1.1-0.5-1.1-1.1v-0.1
				c0-0.2-0.1-0.3-0.3-0.3h-1.3c-0.2,0-0.3,0.1-0.3,0.3v0.1c0,1.6,1.3,2.9,2.9,2.9h4.8c1.6,0,2.9-1.3,2.9-2.9V51
				c0-1.6-1.3-2.9-2.9-2.9h-4.8c-0.6,0-1.1-0.5-1.1-1.1v-1.6c0-0.6,0.5-1.1,1.1-1.1h4.8c0.6,0,1.1,0.5,1.1,1.1v0.9
				C397.7,46.5,397.8,46.6,398,46.6z"/>
		</g>
		<g>
			<path class="st1" d="M394.9,56c0,0.3-0.3,0.5-0.7,0.5l0,0c-0.4,0-0.7-0.2-0.7-0.5V41.4c0-0.3,0.3-0.5,0.7-0.5l0,0
				c0.4,0,0.7,0.2,0.7,0.5V56z"/>
		</g>
	</g>
	<g>
		<g>
			<g>
				<path class="st1" d="M419.6,85.3c-5.7,0-10.4-4.7-10.4-10.4c0-5.7,4.7-10.4,10.4-10.4c5.7,0,10.4,4.7,10.4,10.4
					C430,80.7,425.3,85.3,419.6,85.3z M419.6,65c-5.5,0-9.9,4.5-9.9,9.9c0,5.5,4.5,9.9,9.9,9.9c5.5,0,9.9-4.5,9.9-9.9
					C429.5,69.4,425.1,65,419.6,65z"/>
			</g>
			<g>
				<path class="st1" d="M419.6,83.5c-4.7,0-8.6-3.8-8.6-8.6c0-4.7,3.8-8.6,8.6-8.6s8.6,3.8,8.6,8.6
					C428.1,79.7,424.3,83.5,419.6,83.5z M419.6,66.9c-4.4,0-8,3.6-8,8s3.6,8,8,8s8-3.6,8-8S424,66.9,419.6,66.9z"/>
			</g>
		</g>
		<g>
			<path class="st1" d="M422.1,73.5h0.8c0.1,0,0.2-0.1,0.2-0.2v-0.6c0-1.1-0.9-2-2-2H418c-1.1,0-2,0.9-2,2v1.1c0,1.1,0.9,2,2,2h3.2
				c0.4,0,0.7,0.3,0.7,0.7v0.6c0,0.4-0.3,0.7-0.7,0.7H418c-0.4,0-0.7-0.3-0.7-0.7l0,0c0-0.1-0.1-0.2-0.2-0.2h-0.8
				c-0.1,0-0.2,0.1-0.2,0.2l0,0c0,1.1,0.9,2,2,2h3.2c1.1,0,2-0.9,2-2v-0.6c0-1.1-0.9-2-2-2H418c-0.4,0-0.7-0.3-0.7-0.7v-1.1
				c0-0.4,0.3-0.7,0.7-0.7h3.2c0.4,0,0.7,0.3,0.7,0.7v0.6C421.9,73.5,422,73.5,422.1,73.5z"/>
		</g>
		<g>
			<path class="st4" d="M420.1,79.8c0,0.2-0.2,0.3-0.5,0.3l0,0c-0.3,0-0.5-0.1-0.5-0.3V70c0-0.2,0.2-0.3,0.5-0.3l0,0
				c0.3,0,0.5,0.1,0.5,0.3V79.8z"/>
		</g>
	</g>
	<g>
		<path class="st1" d="M222.9,185.7c-4.3-0.1-7.8,3.3-7.8,7.4s3.5,7.7,7.8,7.8s7.8-3.2,7.8-7.4C230.7,189.2,227.2,185.7,222.9,185.7
			z M222.9,196.8c-2,0-3.6-1.7-3.6-3.6c0-2,1.6-3.5,3.6-3.5s3.6,1.7,3.6,3.6C226.6,195.3,224.9,196.9,222.9,196.8z"/>
		<path class="st1" d="M257.6,186.2c-4.5-0.1-8.1,3.3-8.1,7.6s3.6,7.8,8.1,8c4.5,0.1,8.2-3.3,8.2-7.6
			C265.9,189.9,262.2,186.3,257.6,186.2z M257.6,197.6c-2.1,0-3.8-1.7-3.8-3.7s1.7-3.6,3.8-3.6s3.8,1.7,3.8,3.7
			C261.5,196.1,259.8,197.7,257.6,197.6z"/>
		<path class="st1" d="M279.2,133.6c-0.5-0.6-1.3-0.9-2.1-0.8l-74.3,1.6l-1.9-6c-0.3-0.8-1-1.4-1.9-1.3l-10.2,0.3
			c-1.1,0-2,0.8-2,1.9c0,1.1,0.9,1.8,2,1.8l8.7-0.2l15.8,50.4c0.3,0.8,1.1,1.4,2,1.4l52.1,0.7c1.2,0,2.2-0.8,2.2-1.9
			c0-1.2-1-1.9-2.2-2l-50.6-0.5l-4.1-13.1l55.6,0.1c1.1,0,2.1-0.7,2.5-1.8l8.8-28.4C279.8,135,279.7,134.2,279.2,133.6z"/>
	</g>
	<g>
		<g>
			<path class="st2" d="M66.3,241.7c0,0-1.1,1.7-1.3,6.3c0,0.4,0.3,0.8,0.8,0.8H74c0.3,0,0.6-0.3,0.5-0.6c-0.5-1.4-1.9-4.9-5.2-6.9
				L66.3,241.7z"/>
			
				<linearGradient id="SVGID_12_" gradientUnits="userSpaceOnUse" x1="65.9366" y1="108.2286" x2="69.7706" y2="108.2286" gradientTransform="matrix(1 0 0 -1 0 348.8661)">
				<stop  offset="0" style="stop-color:#FF928E"/>
				<stop  offset="1" style="stop-color:#FEB3B1"/>
			</linearGradient>
			<path class="st17" d="M65.9,238.6l0.5,3.9c0,0.3,0.3,0.6,0.6,0.6c0.4,0.1,1.1,0.1,1.7,0s1-0.6,1-1.2v-3.8L65.9,238.6z"/>
			<path class="st2" d="M86.6,241.3c0,0-1.6,2.4-1.5,5.8c0,0.8,0.7,1.4,1.5,1.4h12.8c0.6,0,0.8-0.8,0.4-1.1
				c-2.4-1.7-7.2-4.9-10.6-6.1L86.6,241.3L86.6,241.3z"/>
			
				<linearGradient id="SVGID_13_" gradientUnits="userSpaceOnUse" x1="85.3072" y1="109.9084" x2="89.1202" y2="109.9084" gradientTransform="matrix(1 0 0 -1 0 348.8661)">
				<stop  offset="0" style="stop-color:#FF928E"/>
				<stop  offset="1" style="stop-color:#FEB3B1"/>
			</linearGradient>
			<path class="st18" d="M85.3,237.1l1,4.8c0.1,0.5,0.6,0.9,1.2,0.8c0.3-0.1,0.7-0.2,1.1-0.5c0.4-0.2,0.6-0.7,0.5-1.2l-1-5.8
				L85.3,237.1z"/>
			<path class="st2" d="M67.8,170.1c0,0-3.4,3-4.1,6.7c-0.6,3.7,1.8,63.1,1.8,63.1s3.4,0.6,5.2-0.5c0,0,2.1-38.6,3.7-47.5
				c0,0,8.4,39.9,10.7,47.2c0,0,3.3,0.4,4.4-0.2c0,0-2.2-51.8-5-61L67.8,170.1z"/>
			<path class="st3" d="M101.8,135.8c-14.5-1.2-18.3,1.8-18.3,1.8l7,11c0,0,14.3-0.3,24.5-8.2c-1.9-2.1-3.2-4.3-4.1-6.1
				C108.2,135.5,105.2,136.1,101.8,135.8z"/>
			
				<linearGradient id="SVGID_14_" gradientUnits="userSpaceOnUse" x1="110.8183" y1="221.5895" x2="124.9891" y2="221.5895" gradientTransform="matrix(1 0 0 -1 0 348.8661)">
				<stop  offset="0" style="stop-color:#FF928E"/>
				<stop  offset="1" style="stop-color:#FEB3B1"/>
			</linearGradient>
			<path class="st19" d="M124.5,114.5c0-0.5-0.6-0.6-0.8-0.2l-1.9,4c-0.4,0.8-0.5,1.6-0.3,2.4l0.6,2.3c0.2,1.1-0.1,2.3-0.8,3.2
				c-1.7,2.1-5.3,6-10.5,8.2c0.9,1.8,2.2,4,4.1,6.1c3.7-2.9,7-6.8,8.7-12.1c0.8-0.3,1.4-1.1,1.4-1.9L124.5,114.5z"/>
			<path class="st3" d="M106.5,142.2c-5.1-5.5-14.8-8-20.5-9c-2.5-0.4-4.9,0.9-5.8,3.3c-2.5,6.8-9.4,24.5-10.8,27.6
				c-1.1,2.5-2.2,4.9-3,6.5c-0.4,0.9-0.1,2,0.9,2.4c4.7,2.3,13.3,4.9,16.7,5.9c0.8,0.2,1.5-0.3,1.5-1.1c0-0.7,0.2-1.3,0.5-1.9
				L99.3,154c8.2,9,15.3,9.9,20.8,7.9c-0.9-2.9-1.5-5.7-1.8-8.6C110.2,151.9,106.5,142.2,106.5,142.2z"/>
			
				<linearGradient id="SVGID_15_" gradientUnits="userSpaceOnUse" x1="142.9336" y1="218.4738" x2="112.3144" y2="180.3805" gradientTransform="matrix(1 0 0 -1 0 348.8661)">
				<stop  offset="0" style="stop-color:#FF928E"/>
				<stop  offset="1" style="stop-color:#FEB3B1"/>
			</linearGradient>
			<path class="st20" d="M131.7,151.8l-1.5-2c-4.7,3.3-8.7,4-11.9,3.5c0.3,2.9,0.9,5.7,1.8,8.6C127.3,159.3,131.7,151.8,131.7,151.8
				z"/>
			
				<linearGradient id="SVGID_16_" gradientUnits="userSpaceOnUse" x1="148.654" y1="213.8759" x2="118.0347" y2="175.7826" gradientTransform="matrix(1 0 0 -1 0 348.8661)">
				<stop  offset="0" style="stop-color:#FF928E"/>
				<stop  offset="1" style="stop-color:#FEB3B1"/>
			</linearGradient>
			<path class="st21" d="M130.6,151.8l8.2,0.3l7.6-4.2c-1.1-0.7-7.3,0.7-7.3,0.7s-6.4-1-8.2-1c-1.4,0-1.2,2.1-1.1,2.8
				c0,0.1,0,0.2,0,0.2L130.6,151.8z"/>
			
				<linearGradient id="SVGID_17_" gradientUnits="userSpaceOnUse" x1="108.4142" y1="241.5422" x2="78.7592" y2="187.0542" gradientTransform="matrix(1 0 0 -1 0 348.8661)">
				<stop  offset="0" style="stop-color:#FF928E"/>
				<stop  offset="1" style="stop-color:#FEB3B1"/>
			</linearGradient>
			<path class="st22" d="M93.8,123.1l-4.4,10.6c0,0,5,3.5,9,3.1l2.2-9.5L93.8,123.1z"/>
			<g>
				
					<linearGradient id="SVGID_18_" gradientUnits="userSpaceOnUse" x1="-1379.4154" y1="-4413.4414" x2="-1392.5212" y2="-4430.7793" gradientTransform="matrix(0.817 -0.5767 -0.5767 -0.817 -1319.1227 -4283.9033)">
					<stop  offset="0" style="stop-color:#FF928E"/>
					<stop  offset="1" style="stop-color:#FEB3B1"/>
				</linearGradient>
				<path class="st23" d="M101.2,115.8c0.1,0.1,3.1,11.2,3.1,11.2l-6.3,1.6l-4.4-10C93.6,118.6,99.5,113.5,101.2,115.8z"/>
				<path class="st2" d="M95.9,120.1l1.9,5.5c0,0.1,0.1,0.1,0.1,0.2c0.3,0.4,1.3,1.6,2.4,0.5c1.1-1,2.1-1.9,3-2
					c0.4-0.1,0.8,0.2,0.9,0.6c0.3,1,0.9,3.3,1.1,5.3c0,0.4-0.2,0.8-0.7,0.9c-1.2,0.2-3.9,0.7-6,0.5c-0.3,0-0.6-0.2-0.7-0.5
					c-0.6-1.3-2.4-5.3-3.1-6.3c-0.6-1-2.2-0.9-2.9-0.9c-0.2,0-0.4-0.1-0.6-0.2c-0.6-0.5-1.7-1.8-0.1-3.4c0.3-0.3,0.3-0.8,0-1.2
					c-0.7-0.6-1.4-1.7-0.3-3.1s2.6-1.2,3.5-0.8c0.4,0.1,0.8,0,1-0.4c0.1-0.2,0.3-0.3,0.7-0.3c0.5,0,0.9-0.3,0.8-0.8
					c0-0.9,0.3-2,1.9-2.5c2.8-0.9,4.5,1.8,4.7,3.8s-2.9,2.8-4.7,2.6c-1.4-0.1-2.4,1.2-2.8,1.9C95.9,119.6,95.9,119.9,95.9,120.1z"/>
				
					<linearGradient id="SVGID_19_" gradientUnits="userSpaceOnUse" x1="-1398.5865" y1="-4427.1978" x2="-1388.0746" y2="-4416.4126" gradientTransform="matrix(0.817 -0.5767 -0.5767 -0.817 -1319.1227 -4283.9033)">
					<stop  offset="0" style="stop-color:#FF928E"/>
					<stop  offset="1" style="stop-color:#FEB3B1"/>
				</linearGradient>
				<path class="st24" d="M95.6,126.6c0,0-0.4-3.5-1.9-3.6c-1.4-0.2-2.8,1-1.4,3C94,128.4,95.6,126.6,95.6,126.6z"/>
			</g>
		</g>
		<g>
			<path class="st3" d="M127.7,105.6l75-0.5c1.7,0,3.1,1.3,3.1,2.9l-0.3,38.9c0,1.6-1.4,2.9-3.2,2.9l-74.2-2.1c-1.6,0-3-1.3-3-2.9
				l-0.5-36.4C124.6,107,126,105.7,127.7,105.6z"/>
			<g>
				<path class="st4" d="M202.4,147.4l-74.2-2.1c-0.2,0-0.4-0.2-0.4-0.4l-0.5-36.4c0-0.1,0-0.2,0.1-0.3c0.1-0.1,0.2-0.1,0.3-0.1
					l75-0.5c0.1,0,0.2,0,0.3,0.1s0.1,0.2,0.1,0.3l-0.3,38.9C202.8,147.2,202.7,147.4,202.4,147.4z M202.8,107.9l-75,0.5h-0.1v0.1
					l0.5,36.4c0,0.1,0.1,0.2,0.2,0.2l74.2,2.1c0.1,0,0.2-0.1,0.2-0.2l0.3-38.9V108C202.8,107.9,202.8,107.9,202.8,107.9z"/>
			</g>
			<path class="st2" d="M132,113.4L132,113.4c0,1.3,0.8,2.3,1.7,2.3h63.8c1,0,1.7-1,1.7-2.3l0,0c0-1.3-0.8-2.3-1.7-2.3h-63.8
				C132.8,111.1,132,112.2,132,113.4z"/>
			<path class="st4" d="M133.8,123.8l45.2-0.3c1,0,1.8,0.6,1.8,1.4l0,0c0,0.8-0.8,1.4-1.8,1.4l-45.2,0.3c-1,0-1.8-0.6-1.8-1.4l0,0
				C132,124.5,132.8,123.9,133.8,123.8z"/>
			<path class="st4" d="M132,130.9L132,130.9c0,0.8,0.5,1.4,1.2,1.4h30c0.7,0,1.2-0.6,1.2-1.4v-0.8c0-0.8-0.5-1.4-1.2-1.4l-30,0.8
				C132.5,129.6,132,130.2,132,130.9z"/>
		</g>
	</g>
	<g>
		<polygon class="st3" points="64.7,50.6 66.6,56.7 69.9,52.8 		"/>
		<path class="st4" d="M90.7,38.4L79,57.9c-0.2,0.4-0.6,0.6-1,0.7s-0.9,0-1.2-0.2L57.6,46c-0.2-0.1-0.3-0.4-0.3-0.7s0.2-0.5,0.5-0.5
			L90.7,38.4z"/>
		<polygon class="st3" points="64.7,50.6 90.7,38.4 67.8,52.7 68.3,54.4 		"/>
		<polygon class="st3" points="69.6,53.8 66.6,56.7 67.8,52.7 		"/>
	</g>
</g>
</svg>
