<?xml version="1.0" encoding="utf-8"?>
<!-- Generator: Adobe Illustrator 25.2.1, SVG Export Plug-In . SVG Version: 6.00 Build 0)  -->
<svg version="1.1" xmlns="http://www.w3.org/2000/svg" xmlns:xlink="http://www.w3.org/1999/xlink" x="0px" y="0px"
	 viewBox="0 0 500 350" style="enable-background:new 0 0 500 350;" xml:space="preserve">
<style type="text/css">
	.st0{fill:#FCC812;}
	.st1{fill:#43B38F;}
	.st2{fill:#404040;}
	.st3{fill:#32866B;}
	.st4{fill:#FFFFFF;}
	.st5{fill:#E67750;}
	.st6{fill:#FD9E71;}
	.st7{fill:#0B9B9B;}
	.st8{fill:#31D0A8;}
	.st9{fill:#F6FFFA;}
	.st10{fill:#262845;}
	.st11{fill:#E79673;}
</style>
<g id="OBJECTS">
	<g>
		<path class="st0" d="M209,342.7c0,4-24.9,7.3-55.6,7.3s-55.6-3.3-55.6-7.3c0-4,24.9-7.3,55.6-7.3S209,338.6,209,342.7z"/>
		<ellipse class="st1" cx="404.4" cy="333.5" rx="56.2" ry="5.5"/>
		<polygon class="st2" points="56.8,271.4 50.1,271.4 50.1,264.7 46,264.7 46,271.4 39.4,271.4 39.4,275.5 46,275.5 46,282.1 
			50.1,282.1 50.1,275.5 56.8,275.5 		"/>
		<path class="st2" d="M62.8,259.2c0,2.3-1.8,4.1-4.1,4.1c-2.3,0-4.1-1.8-4.1-4.1c0-2.3,1.8-4.1,4.1-4.1
			C61,255.1,62.8,256.9,62.8,259.2z"/>
		<path class="st1" d="M404.3,312.1H93c-12.4,0-22.6-10.2-22.6-22.6V48.9c0-12.4,10.2-22.6,22.6-22.6h311.3
			c12.4,0,22.6,10.2,22.6,22.6v240.6C427,301.9,416.8,312.1,404.3,312.1z"/>
		<path class="st1" d="M95.9,302c-8.1,0-14.7-6.6-14.7-14.7V51.2c0-8.1,6.6-14.7,14.7-14.7h305.6c8.1,0,14.7,6.6,14.7,14.7v236.1
			c0,8.1-6.6,14.7-14.7,14.7H95.9z"/>
		<path class="st3" d="M397.9,294.3H99.4c-5.2,0-9.5-4.3-9.5-9.5V53.6c0-5.2,4.3-9.5,9.5-9.5h298.5c5.2,0,9.5,4.3,9.5,9.5v231.1
			C407.4,290,403.2,294.3,397.9,294.3z"/>
		<path class="st3" d="M49,293.7c7.2,11.8,20.1,19.7,34.9,19.7h329.7c14.7,0,27.7-7.9,34.9-19.7H49z"/>
		<path class="st1" d="M53.2,299.5h390.9c1.6-1.8,3-3.7,4.3-5.8H49C50.2,295.8,51.6,297.7,53.2,299.5z"/>
		<rect x="114.9" y="192.8" class="st4" width="88.8" height="49.7"/>
		<g>
			<rect x="201.7" y="65.7" class="st0" width="33.4" height="4.6"/>
			<rect x="158.5" y="65.7" class="st0" width="20.4" height="4.6"/>
			<rect x="112" y="65.7" class="st0" width="40.4" height="4.6"/>
			<rect x="185.3" y="65.7" class="st0" width="8.8" height="4.6"/>
			<rect x="243.6" y="65.7" class="st0" width="20.3" height="4.6"/>
		</g>
		<g>
			<rect x="201.7" y="79.1" class="st0" width="12.5" height="4.6"/>
			<rect x="219.2" y="79.1" class="st0" width="12.5" height="4.6"/>
			<rect x="137.8" y="79.1" class="st0" width="20.4" height="4.6"/>
			<rect x="112" y="79.1" class="st0" width="20" height="4.6"/>
			<rect x="163.8" y="79.1" class="st0" width="33.6" height="4.6"/>
		</g>
		<g>
			<path class="st0" d="M170.9,334.2c-2.1-6.8-6.2-35.4-7.1-46.7c-0.2-2.4-26.3-12.6-26.3-12.6c-15.3-0.4-23.2,5.6-23.2,5.6L151,293
				c0,16.6,14.1,41.5,14.1,41.5C165.1,334.5,170.9,334.2,170.9,334.2z"/>
			<path class="st0" d="M139.4,296.3l-10.9,38l6.2,1.4c2.7-9,18.4-39.7,18.8-43.3c0.2-1.6,0.1-2.8-0.5-3.2
				c-0.6-0.5-18.2-11-23.3-12.2c-6.8-1.5-17-4-17-4s-5.7,6-4.6,15.7C109.2,298.4,139.4,296.3,139.4,296.3z"/>
			<path class="st2" d="M124.7,229.5c0,0-11.9,1.1-12.5,4.3c-0.5,3.3,5.7,23.9,5.7,23.9l-6.1,16.2c0,0,17.2,4.2,25.6,1.1
				c0.8,0.4,2.2-17,2.2-17l3-8.5l3.8,12.9l8.7,12.2l5.7-4.6l-6.3-11.1c0,0-9.8-22.4-12.4-25C137.2,228.9,124.7,229.5,124.7,229.5z"
				/>
			<path class="st5" d="M134.1,230.4l-0.9-12.3h-9v11.5c-1.1,0.1,1.2,9.3,8.4,9.3C132.7,238.9,136.1,237.6,134.1,230.4z"/>
			<path class="st2" d="M116,251.2c1,3.7,1.9,6.5,1.9,6.5l-6.1,16.2c0,0,13.1,3.2,22,2c-0.8-0.6-11.4-7.7-11.9-10.8
				C120.9,258.5,116,251.2,116,251.2z"/>
			<path class="st6" d="M142.1,205.7c-0.8-3.1-5.7-4.1-13.4-3.1c-5.3,0.6-6.5,5.5-6.6,9.1c-0.1,0-0.2,0-0.2,0.1
				c-1.8,0.6-3.1,2.3-3,4.3c0.1,1,0.4,1.9,1,2.6c0.7,1.1,1.9,1.9,3.2,2c0.4,0,0.7,0,1.1,0c2.2,4.6,6.2,10.3,11.9,9.6
				C144.3,224.4,142.1,205.7,142.1,205.7z"/>
			<path class="st2" d="M124.4,214c0,0-1.7-4.1,2.2-7c3.9-2.9,4.1,1.4,8.2,1.9c4.1,0.5,8.1,0.2,7.7,2.9c2.5-6.1-1.1-9.6-5.1-11.5
				c-4-1.9-10.2-2.7-14.6,0.9c-4.3,3.6-3.8,12.3-3.8,12.3C121.8,212.1,122.6,213.2,124.4,214z"/>
			<path class="st2" d="M122.7,201.2c0,0-3.6-9.7-10.4-7.3c-6.8,2.4-3.7,16.1-4.5,22.1c-0.8,6-5,6.2-6.6,3.6
				c-2.9,5.4,8.3,10.9,12,5.7c3.6-5.2,1.5-18.4,3.9-19.8c2.3-1.3,4.7,0.4,4.7,0.4L122.7,201.2z"/>
			<path class="st2" d="M112.4,232.7c-2.9,1.7-8.1,21.4-8.1,24.7c0,3.3,25.4,19.5,25.4,19.5s1.2-4,3.9-4.8c-0.5-0.3-19-17.9-19-17.9
				l4.9-13.8C119.5,240.3,119.5,228.7,112.4,232.7z"/>
			<polygon class="st0" points="127.8,279.4 153.7,278.6 170.5,284.8 142.1,286.4 			"/>
			<polygon class="st7" points="142.1,286.4 127.8,280.8 127.8,279.4 143.2,285 			"/>
			<polygon class="st1" points="142.1,286.4 150.6,263 179,264.5 170.5,285.4 			"/>
			<path class="st0" d="M159.5,273.3c-0.8,1.7-0.6,3.5,0.6,4.1c1.2,0.6,2.8-0.3,3.6-2c0.8-1.7,0.6-3.5-0.6-4.1
				C161.9,270.7,160.3,271.6,159.5,273.3z"/>
			<path class="st6" d="M133.6,272.1c0,0,10.3,8.1,9.2,8.7c-1.1,0.5-5.7,0.5-8.1-0.8c-2.4-1.4-5-3.1-5-3.1S130.6,272.4,133.6,272.1z
				"/>
			<g>
				<path class="st1" d="M135,333.7c1.8,1.9,8.1,4.7,11.1,5.4c3.3,0.8,2.7,3.6,0.3,3.6c-4.7,0-15.2-0.6-20.4-0.6
					c-0.8-2.4,0.6-5.7,2.2-7.9C128.8,333.5,134.7,333.4,135,333.7z"/>
			</g>
			<g>
				<path class="st1" d="M172.2,333.7c1.8,1.9,8.1,4.7,11.1,5.4c3.3,0.8,2.7,3.6,0.3,3.6c-4.7,0-15.2-0.6-20.4-0.6
					c-0.8-2.4,0.6-5.7,2.2-7.9C165.9,333.5,171.9,333.4,172.2,333.7z"/>
			</g>
		</g>
		<g>
			<rect x="115.4" y="173.5" class="st8" width="24.9" height="6.9"/>
			<rect x="178.8" y="173.5" class="st8" width="24.9" height="6.9"/>
			<rect x="147.1" y="173.5" class="st8" width="24.9" height="6.9"/>
		</g>
		<g>
			
				<rect x="201.4" y="50.5" transform="matrix(0.9712 -0.2381 0.2381 0.9712 -8.655 59.5275)" class="st0" width="81.2" height="30.3"/>
			
				<rect x="203.8" y="56.3" transform="matrix(0.9712 -0.2381 0.2381 0.9712 -7.1925 57.3339)" class="st4" width="59.8" height="4.2"/>
			
				<rect x="205.7" y="64.7" transform="matrix(0.9712 -0.2381 0.2381 0.9712 -9.2773 56.8595)" class="st4" width="50" height="4.2"/>
			
				<rect x="208" y="75.8" transform="matrix(0.9712 -0.2381 0.2381 0.9712 -12.217 54.6016)" class="st4" width="23.7" height="4.2"/>
			
				<rect x="257.2" y="56.8" transform="matrix(0.9712 -0.2381 0.2381 0.9712 -6.4394 64.4561)" class="st4" width="12.7" height="4.2"/>
		</g>
		<rect x="114.4" y="93.7" class="st0" width="88.6" height="72.3"/>
		<g>
			<rect x="209.7" y="135.4" class="st0" width="174.2" height="32.6"/>
			<rect x="331.5" y="140.1" class="st2" width="47.1" height="23.2"/>
			<rect x="216" y="141.5" class="st4" width="109" height="4.5"/>
			<rect x="216" y="149.4" class="st4" width="109" height="4.5"/>
			<rect x="216" y="157.4" class="st4" width="73.4" height="4.5"/>
		</g>
		<g>
			<g>
				<rect x="209.7" y="191.2" class="st4" width="167.4" height="78.6"/>
				<rect x="209.7" y="191.2" class="st0" width="167.4" height="13"/>
				<rect x="213.8" y="222.8" class="st0" width="96.7" height="6.6"/>
				<rect x="213.8" y="234.6" class="st0" width="86.7" height="6.6"/>
				<rect x="213.8" y="246.4" class="st0" width="58.5" height="6.6"/>
				<rect x="213.8" y="211.9" class="st0" width="34.8" height="6.6"/>
			</g>
			<g>
				<rect x="319.9" y="211.6" class="st0" width="50.6" height="50.6"/>
				<path class="st9" d="M350.3,236.6c0.8-1.1,1.3-2.4,1.3-3.8v-3.9c0-3.6-2.9-6.4-6.4-6.4c-3.6,0-6.4,2.9-6.4,6.4v3.9
					c0,1.5,0.5,2.9,1.4,4c-5.9,2.1-10.1,7.7-10.1,14.3h31.8C361.8,251.1,360.6,239.5,350.3,236.6z"/>
			</g>
			<g>
				<circle class="st2" cx="218.3" cy="198.1" r="3.3"/>
				<circle class="st1" cx="228.9" cy="198.1" r="3.3"/>
				<circle class="st4" cx="239.1" cy="198.1" r="3.3"/>
			</g>
		</g>
		<rect x="320.1" y="62.5" class="st4" width="58.6" height="58.6"/>
		<g>
			<path class="st0" d="M402.2,323c0,0,0.5,1.5-4.2,3.7c-4.7,2.2-9.7,1.4-10.9,3.2s-1.5,3.5-1.5,3.5h26.9c0,0-0.2-7.4-3.3-10.7
				C409.6,323.4,402.2,323,402.2,323z"/>
			<path class="st0" d="M431.5,323c0,0,0.5,1.5-4.1,3.6c-4.5,2.1-9.3,1.3-10.5,3.1c-1.2,1.7-1.5,3.4-1.5,3.4h25.9
				c0,0-0.2-7.1-3.1-10.3C438.6,323.4,431.5,323,431.5,323z"/>
			<g>
				<polygon class="st4" points="396.9,181.5 377.4,184.9 363.6,155.5 384.7,153.8 				"/>
			</g>
			<g>
				<path class="st10" d="M372.5,178.5C372.5,178.5,372.5,178.5,372.5,178.5C372.5,178.5,372.5,178.5,372.5,178.5z"/>
			</g>
			<path class="st6" d="M410.4,126.3c0,0-2.6,5.2-2.6,9.9c0,3.3,0.4,8.1,0.7,10.6c0.1,0.9,1,1.6,1.9,1.3l3.9-1.2l-0.2,5.6l10.8-0.2
				l2.3-22.6C427.2,129.7,418.2,119.9,410.4,126.3z"/>
			<path class="st2" d="M411.2,138.2c0,0,0.6-4.5,4-3.5c3.4,0.9-0.5,5.4-0.5,5.4l3.2,5.8c2.4,0.9,5,0.9,7.5-0.2
				c0,0,3.6-10.9,3.6-14.3c0-3.4-3.1-5.8-3.1-5.8s-8.4-4.2-12.9-4c-4.5,0.2-4.9,4.7-4.9,4.7s-1.7,3.4,0,4.9
				C409.8,132.7,411.2,138.2,411.2,138.2z"/>
			<path class="st6" d="M377.8,177c0,0,0.8-2.4-2.4-3.9c0.1-0.6-0.6-3.4-1.3-4.1c-0.7-0.7-1.1,3-1.1,3s-3.1-5.5-3.9-4.1
				c-0.8,1.4,6.9,12.2,7.2,12.6C376.6,181,377.8,177,377.8,177z"/>
			<path class="st2" d="M406.7,212.3l-7.4,63l1.5,48.8l9.4-0.7c0,0,2.6-25.7,2.9-32.1c0.2-6.4-1.7-16.3-1.7-16.3l9.4-38.9l1.6,0.3
				l0.4,38.4l8.6,48.7l7.9,0.4c0,0,0.2-25.1-0.4-31.4c-0.6-6.2-4-18.7-4-18.7l3.4-39.7c0,0,3.4-10.5-2.7-22.2
				C434.7,212,406.7,212.3,406.7,212.3z"/>
			<path class="st0" d="M438.2,156.4c-1.4-2-13.4-4.1-13.4-4.1l0.5-3.1c-9.4-0.3-11.6,3.1-11.6,3.1s-13.3,4.3-15.7,6.7
				c-2.4,2.4-9.4,27.5-9.4,27.5l-10.5-10.5l-3.3,7.6c0,0,12.3,18.3,16.2,18.9c3.9,0.6,12.6-23.2,12.6-23.2s0.8,13,2.3,19.5
				c1.7,7.4,0.9,13.5,0.9,13.5c11.9,2.2,22,1.7,28.8-0.4l3.3-25c0,0,4.5,0.5,6-1C446.2,184.3,439.6,158.4,438.2,156.4z"/>
			<path class="st0" d="M426.7,169.5c-0.1-0.5-0.9-0.4-0.9,0.1c0.4,10.8,0,21.3-1.7,31.9c-0.1,0.7,0.9,1,1.1,0.3
				C427.5,191.3,428.2,180.2,426.7,169.5z"/>
			<path class="st0" d="M438.9,177.5c-0.1-0.4-0.6-0.3-0.6,0.1c-0.1,6.3-0.9,12.3-2.1,18.5c-1.1,5.5-2,11-1.7,16.6
				c0,0.8,1.3,0.8,1.2,0c-0.3-6.5,1-12.7,2.2-19.1C439,188.3,440,182.8,438.9,177.5z"/>
			<path class="st0" d="M404.8,177.3c-3.6,2.3-4.9,6.7-6.3,10.5c-1.9,5.1-3.7,10.1-7.7,14c-0.6,0.6,0.3,1.5,0.9,0.9
				c7.4-6.7,7.1-17.7,13.4-25C405.3,177.5,405.1,177.2,404.8,177.3z"/>
			<path class="st2" d="M435.6,210c0,0-18,2.3-28.9-1.1c0.3,0,0,3.4,0,3.4s13.9,5.2,29.8,1.1C436.4,213.4,435.6,210,435.6,210z"/>
		</g>
		<g>
			<path class="st0" d="M249,283.4c0,0-1.5,3.3-4.1,3.8c-2.6,0.5-9.4,2-10.5,3c-1.1,1-1.1,3.4-1.1,3.4h21.5c0,0,0-6.5-1.3-9.9
				C254.2,283.6,249,283.4,249,283.4z"/>
			<path class="st0" d="M290.5,283.4c0,0-1.5,3.3-4.1,3.8s-9.4,2-10.5,3c-1.1,1-1.1,3.4-1.1,3.4h21.5c0,0,0-6.5-1.3-9.9
				C295.7,283.6,290.5,283.4,290.5,283.4z"/>
			<path class="st11" d="M287.9,71.6c0,0-6-1.5-6.4-0.6c-0.4,1,9.3,3.8,9.3,3.8l8.7,24.1l-3.2,7.7l6,6.5c0,0,6.5-8.8,7.1-11.4
				c0.5-2.6-15.5-28.5-15.5-28.5s-3.2-10.1-3.7-10.6c-0.5-0.5-6.2-0.2-7.5-0.2c-1.3,0,3.8,5.2,3.8,5.2L287.9,71.6z"/>
			<path class="st11" d="M264.5,89.5c0,0-2.9,4-3.5,8.3c-0.6,4.3,0.2,8.3,0.2,8.3l5.2-0.2v4.9H277c0,0,0.2-3.7,0.6-5.8
				c0.4-2,3.3-5.9,3.3-5.9l-4.7-13.2l-6.7-0.6L264.5,89.5z"/>
			<path class="st2" d="M267.2,95.7c0,0,1.8-4.3,4.1-2.6c2.2,1.6-0.6,5.1-0.6,5.1s1.4,5.9,3.9,6.7c2.4,0.8,2.4,0.8,2.4,0.8
				s6.3-5.9,7.3-7.5c1-1.6-1.6-11-3.5-13c-1.8-2-9.8-1.8-10.4-2.9c-0.6-1-2.6-2.9-4.7-2c-2,0.8-1.6,7.5-1.6,7.5s2.5,2.2,2.7,3.7
				c0.2,1.6-1,3.6-1,3.6L267.2,95.7z"/>
			<path class="st2" d="M257.3,111.1c0,0,10.4-1.5,16.4-1.7c6-0.1,15.5,3,15.5,3l6.9-7.4l8.8,8.3c0,0-7.5,11.1-9.9,13.6
				c-2.4,2.6-4.2,14.7-4.7,18.3c-0.5,3.7-1.9,25.1-1.9,25.1s-6.4,7.6-32.6-0.7c-0.3-0.3,1.1-15.7,1-19.5c-0.1-3.8-3.5-16.7-4.2-19.8
				c-0.7-3.1-11.5-9.4-11.5-9.4s-1.3-7.6,3.7-11.3C245.3,110.2,257.3,111.1,257.3,111.1z"/>
			<path class="st11" d="M233.1,80c0,0-3.9,3.7-4.2,5.2c-0.3,1.5,5.4,18.5,5.4,18.5l10.4,6.1L241,121c0,0-11.3-7.9-12.9-10.2
				c-1.6-2.3-4.5-25.4-4.5-25.4s-3.7-4.6-3.9-5.8c-0.3-1.2-1.1-5.2-0.5-6c0.6-0.8,4.8-5.1,5.4-3.8c0.6,1.3,2.9,10.7,2.9,10.7
				S232.2,78.4,233.1,80z"/>
			<path class="st1" d="M255.8,169.8l-5.9,55.6l-3.1,59l10.2,0.4c0,0,6.3-39.2,6.4-45.1c0.1-6-0.1-13.1-0.1-13.1l6.5-29.7h3.7
				l7.5,38.7l7.7,48l8.1,0.4c0,0,1.2-29.9,0-36s-3.1-12-3.1-12l-3.7-40.1c0,0,3.3-14.3-1.8-25.4
				C287.3,168.4,255.8,169.8,255.8,169.8z"/>
		</g>
		<polygon class="st2" points="193.6,106.4 187,106.4 187,99.8 182.8,99.8 182.8,106.4 176.2,106.4 176.2,110.6 182.8,110.6 
			182.8,117.2 187,117.2 187,110.6 193.6,110.6 		"/>
		<path class="st2" d="M132,157.5c-5.7,0-10.3-4.6-10.3-10.3c0-5.7,4.6-10.3,10.3-10.3c5.7,0,10.3,4.6,10.3,10.3
			C142.3,152.9,137.7,157.5,132,157.5z M132,142.2c-2.7,0-4.9,2.2-4.9,4.9c0,2.7,2.2,4.9,4.9,4.9c2.7,0,4.9-2.2,4.9-4.9
			C136.9,144.4,134.7,142.2,132,142.2z"/>
		<polygon class="st2" points="450.1,62.5 443.5,62.5 443.5,55.9 439.4,55.9 439.4,62.5 432.7,62.5 432.7,66.6 439.4,66.6 
			439.4,73.2 443.5,73.2 443.5,66.6 450.1,66.6 		"/>
		<path class="st2" d="M417,17.3c0,2.3-1.8,4.1-4.1,4.1c-2.3,0-4.1-1.8-4.1-4.1c0-2.3,1.8-4.1,4.1-4.1C415.2,13.2,417,15,417,17.3z"
			/>
		<path class="st2" d="M337.2,89.1c-5.7,0-10.3-4.6-10.3-10.3c0-5.7,4.6-10.3,10.3-10.3c5.7,0,10.3,4.6,10.3,10.3
			C347.6,84.5,342.9,89.1,337.2,89.1z M337.2,73.8c-2.7,0-4.9,2.2-4.9,4.9c0,2.7,2.2,4.9,4.9,4.9c2.7,0,4.9-2.2,4.9-4.9
			C342.2,76,339.9,73.8,337.2,73.8z"/>
		<path class="st2" d="M392.2,20.7c-5.7,0-10.3-4.6-10.3-10.3c0-5.7,4.6-10.3,10.3-10.3c5.7,0,10.3,4.6,10.3,10.3
			C402.5,16,397.9,20.7,392.2,20.7z M392.2,5.4c-2.7,0-4.9,2.2-4.9,4.9c0,2.7,2.2,4.9,4.9,4.9c2.7,0,4.9-2.2,4.9-4.9
			C397.1,7.6,394.9,5.4,392.2,5.4z"/>
	</g>
</g>
<g id="Warstwa_3">
</g>
</svg>
