<?xml version="1.0" encoding="utf-8"?>
<!-- Generator: Adobe Illustrator 19.0.0, SVG Export Plug-In . SVG Version: 6.00 Build 0)  -->
<svg version="1.1" id="Warstwa_1" xmlns="http://www.w3.org/2000/svg" xmlns:xlink="http://www.w3.org/1999/xlink" x="0px" y="0px"
	 viewBox="6 -6 512 512" style="enable-background:new 6 -6 512 512;" xml:space="preserve">
<style type="text/css">
	.st0{fill:#00D1B2;}
</style>
<path class="st0" d="M508.4,234.5l-94.7-47.3l33.5-100.4c4.5-13.6-8.4-26.5-21.9-21.9L324.9,98.4L277.5,3.6
	c-6.4-12.8-24.6-12.8-31,0l-47.3,94.7L98.7,64.8c-13.6-4.5-26.5,8.4-21.9,21.9l33.5,100.4l-94.7,47.4c-12.8,6.4-12.8,24.6,0,31
	l94.7,47.3L76.8,413.3c-4.5,13.6,8.4,26.5,21.9,21.9l100.4-33.5l47.3,94.7c6.4,12.8,24.6,12.8,31,0l47.3-94.7l100.4,33.5
	c13.6,4.5,26.5-8.4,21.9-21.9l-33.5-100.4l94.7-47.3C521.2,259.1,521.2,240.9,508.4,234.5L508.4,234.5z M352.5,340.5
	c-49.9,49.9-131.1,49.9-181,0s-49.9-131.1,0-181s131.1-49.9,181,0S402.4,290.6,352.5,340.5z"/>
</svg>
