<?xml version="1.0" encoding="utf-8"?>
<!-- Generator: Adobe Illustrator 25.2.1, SVG Export Plug-In . SVG Version: 6.00 Build 0)  -->
<svg version="1.1" id="OBJECTS" xmlns="http://www.w3.org/2000/svg" xmlns:xlink="http://www.w3.org/1999/xlink" x="0px" y="0px"
	 viewBox="0 0 500 350" style="enable-background:new 0 0 500 350;" xml:space="preserve">
<style type="text/css">
	.st0{fill:#3B5A4A;}
	.st1{fill:#424242;}
	.st2{fill:#EDC633;}
	.st3{fill:#F0C853;}
	.st4{fill:#FFFFFF;}
	.st5{fill:#71B08E;}
	.st6{fill:#55846B;}
	.st7{fill:#E3AA5E;}
	.st8{fill:#C98A42;}
	.st9{fill:#2B313A;}
	.st10{fill:#362F41;}
	.st11{fill:#CF9080;}
	.st12{fill:#5FA386;}
	.st13{fill:#67B095;}
	.st14{fill:#CCA89E;}
</style>
<g>
	<g>
		<path class="st0" d="M90.5,327.8c0,0-86.3-79.5-41.5-154.7c44.8-75.2,133.6-48.5,221.6-94.2s145.1-39.9,169,0
			c29.1,48.6-42,91.4-1.3,157.5c40.7,66.1-2.5,91.4-2.5,91.4H90.5z"/>
	</g>
	<g>
		<g>
			<path class="st1" d="M332.5,239.5l-0.4,0l0-1.6l0.4,0c1.2,0,2.4-0.1,3.5-0.2l0.2,1.6C335,239.4,333.8,239.5,332.5,239.5z
				 M328.1,239.1c-1.3-0.2-2.6-0.5-4-0.9l0.5-1.5c1.2,0.4,2.5,0.7,3.7,0.9L328.1,239.1z M340.2,238.5l-0.4-1.5
				c1.2-0.3,2.4-0.8,3.6-1.3l0.7,1.4C342.8,237.7,341.5,238.1,340.2,238.5z M320.3,236.7c-1.2-0.5-2.4-1.2-3.6-1.9l0.8-1.4
				c1.1,0.7,2.3,1.3,3.4,1.8L320.3,236.7z M347.6,235.1l-0.9-1.3c1-0.7,2-1.5,3-2.4l1.1,1.2C349.7,233.5,348.7,234.3,347.6,235.1z
				 M313.4,232.6c-1.1-0.8-2.1-1.6-3.1-2.5l1.1-1.2c1,0.9,2,1.7,3,2.5L313.4,232.6z M353.5,229.6l-1.2-1c0.8-0.9,1.5-1.9,2.4-3.1
				l1.3,0.9C355.1,227.6,354.3,228.6,353.5,229.6z M307.4,227.2c-0.9-1-1.8-2-2.7-3l1.2-1c0.8,1,1.7,2,2.6,2.9L307.4,227.2z
				 M358.3,223.1l-1.3-0.9c0.8-1,1.7-2.2,2.6-3.2l1.1,1.1C359.9,221,359,222.2,358.3,223.1z M302.3,221c-0.8-1.1-1.5-2.2-2.1-3.4
				l1.4-0.8c0.6,1.1,1.3,2.2,2.1,3.3L302.3,221z M363.6,217.6l-1-1.2c1.1-0.9,2.1-1.7,3.1-2.5l1,1.3
				C365.7,215.9,364.7,216.7,363.6,217.6z M298.3,214c-0.6-1.2-1.1-2.5-1.5-3.7l1.5-0.5c0.4,1.2,0.9,2.4,1.5,3.6L298.3,214z
				 M369.9,212.9l-0.9-1.3c1.1-0.8,2.3-1.5,3.4-2.1l0.8,1.4C372.1,211.4,371,212.1,369.9,212.9z M376.6,209l-0.7-1.4
				c1.2-0.6,2.4-1.1,3.7-1.6l0.6,1.5C379,207.9,377.8,208.4,376.6,209z M383.9,206.1l-0.5-1.5c1.2-0.4,2.5-0.7,3.9-1.1l0.4,1.5
				C386.3,205.4,385.1,205.7,383.9,206.1z M391.5,204.2l-0.3-1.6c1.2-0.3,2.5-0.5,3.9-0.8l0.3,1.6
				C394,203.7,392.7,203.9,391.5,204.2z M399.3,202.7l-0.3-1.6c1.2-0.2,2.4-0.6,3.6-1.2l0.7,1.4C401.9,202,400.6,202.5,399.3,202.7z
				 M406.7,199.4l-0.9-1.3c1-0.7,2-1.5,3-2.4l1.1,1.1C408.9,197.7,407.8,198.6,406.7,199.4z M412.6,193.8l-1.2-1
				c0.8-1,1.5-2.1,2.2-3.2l1.3,0.8C414.3,191.6,413.5,192.7,412.6,193.8z M416.9,186.9l-1.4-0.7c0.5-1.2,1-2.4,1.4-3.6l1.5,0.5
				C417.9,184.4,417.5,185.6,416.9,186.9z M419.3,179.1l-1.6-0.3c0.2-1.3,0.3-2.6,0.4-3.8l1.6,0
				C419.7,176.4,419.5,177.8,419.3,179.1z M417.9,171.2c-0.1-0.5-0.1-0.9-0.2-1.4c-0.1-0.8-0.3-1.6-0.6-2.4l1.5-0.4
				c0.2,0.8,0.4,1.7,0.6,2.5c0.1,0.5,0.2,1,0.2,1.4L417.9,171.2z M415.8,163.9c-0.5-1.1-1.1-2.3-1.8-3.4l1.4-0.8
				c0.7,1.2,1.4,2.4,1.9,3.6L415.8,163.9z M411.8,157.3c-0.8-1-1.6-2-2.5-3l1.2-1.1c0.9,1,1.8,2.1,2.6,3.1L411.8,157.3z
				 M406.6,151.5c-0.9-0.9-1.9-1.7-2.9-2.6l1-1.2c1.1,0.9,2.1,1.8,3,2.7L406.6,151.5z M400.6,146.4c-1-0.8-2-1.6-3.1-2.4l0.9-1.3
				c1.1,0.8,2.2,1.6,3.2,2.4L400.6,146.4z M394.2,141.8c-1.1-0.7-2.2-1.5-3.3-2.2l0.9-1.3c1.1,0.7,2.2,1.5,3.3,2.2L394.2,141.8z
				 M387.6,137.4c-1.1-0.7-2.2-1.4-3.4-2.1l0.8-1.3c1.1,0.7,2.2,1.4,3.4,2.1L387.6,137.4z M380.9,133.2l-3.4-2.1l0.8-1.3l3.4,2.1
				L380.9,133.2z M374.1,129.1c-1.1-0.7-2.3-1.4-3.4-2.1l0.9-1.3c1.1,0.7,2.2,1.4,3.3,2.1L374.1,129.1z M367.4,124.7
				c-1.1-0.8-2.2-1.5-3.3-2.3l0.9-1.3c1.1,0.7,2.1,1.5,3.2,2.2L367.4,124.7z M360.9,120.1c-1.1-0.9-2.1-1.7-3.1-2.5l1-1.2
				c0.9,0.8,2,1.6,3,2.5L360.9,120.1z M354.9,114.8c-1-1-1.9-2-2.7-3l1.2-1c0.8,0.9,1.6,1.9,2.6,2.9L354.9,114.8z M349.8,108.5
				c-0.7-1.1-1.4-2.3-2-3.4l1.4-0.8c0.7,1.2,1.3,2.3,2,3.4L349.8,108.5z M345.9,101.6c-0.6-1.2-1.2-2.4-1.8-3.6l1.4-0.7
				c0.6,1.1,1.1,2.3,1.8,3.5L345.9,101.6z M342.4,94.5c-0.6-1.2-1.2-2.4-1.8-3.5l1.4-0.7c0.6,1.2,1.2,2.3,1.8,3.6L342.4,94.5z
				 M338.8,87.5c-0.7-1.2-1.4-2.3-2.1-3.3l1.3-0.9c0.7,1.1,1.4,2.2,2.2,3.4L338.8,87.5z M334.3,81.1c-0.8-1-1.7-1.9-2.6-2.8l1.1-1.1
				c1,1,1.9,1.9,2.7,3L334.3,81.1z M328.8,75.7c-1-0.8-2-1.6-3.1-2.4l0.9-1.3c1.1,0.8,2.2,1.6,3.2,2.5L328.8,75.7z"/>
		</g>
		<g>
			<path class="st2" d="M312.1,52.1c-0.1-0.2,8,4.8,8,4.8L318,70.5L314,60.3l-10.4-2l-14.8-13.9L312.1,52.1z"/>
			<polygon class="st2" points="288.8,44.4 318,70.5 314,60.3 			"/>
			<polygon class="st2" points="288.8,44.4 327.4,52.6 320,56.9 288.8,44.4 314,60.3 301.5,68 			"/>
		</g>
	</g>
	<g>
		<g>
			<path class="st2" d="M179.3,77.8h-38.8c-2.8,0-5.1-2.3-5.1-5.1V49c0-2.8,2.3-5.1,5.1-5.1h38.8c2.8,0,5.1,2.3,5.1,5.1v23.7
				C184.4,75.5,182.1,77.8,179.3,77.8z"/>
			<path class="st3" d="M153.7,73.7l4.9,9.4c0.6,1.2,2.3,1.2,2.9,0.1l5.8-9.6H153.7z"/>
		</g>
		<path class="st4" d="M165.2,51.2c-4.7-0.1-5.1,2.8-5.1,2.8s-0.3-2.9-5.1-3c-4.7-0.1-6.5,5.4-5.3,8.6c0.9,2.5,6.4,8,8.9,10.5
			c0.7,0.7,1.8,0.7,2.5,0c2.5-2.4,8.2-7.8,9.2-10.3C171.5,56.7,169.9,51.2,165.2,51.2z"/>
	</g>
	<g>
		<g>
			<g>
				<path class="st2" d="M460.2,154.7h-28.6c-2.1,0-3.7-1.7-3.7-3.7v-17.4c0-2.1,1.7-3.7,3.7-3.7h28.6c2.1,0,3.7,1.7,3.7,3.7V151
					C463.9,153.1,462.3,154.7,460.2,154.7z"/>
				<path class="st2" d="M441.3,151.8l3.6,7c0.4,0.9,1.7,0.9,2.2,0.1l4.3-7H441.3z"/>
			</g>
		</g>
		<g>
			<path class="st4" d="M449.5,137.3c0,2.1-1.7,3.7-3.7,3.7c-2.1,0-3.7-1.7-3.7-3.7c0-2.1,1.7-3.7,3.7-3.7
				C447.8,133.5,449.5,135.2,449.5,137.3z"/>
			<path class="st4" d="M451.6,149.8c0.7,0,1.2-0.6,1.1-1.3c-0.7-3.6-3.5-6.4-6.9-6.4s-6.3,2.7-6.9,6.4c-0.1,0.7,0.4,1.3,1.1,1.3
				H451.6z"/>
		</g>
	</g>
	<g>
		<path class="st1" d="M54.5,142.6c0,2.9-2.3,5.2-5.2,5.2c-2.9,0-5.2-2.3-5.2-5.2c0-2.9,2.3-5.2,5.2-5.2
			C52.2,137.4,54.5,139.7,54.5,142.6z"/>
		<path class="st1" d="M457.8,208.2c0,1.2-1,2.2-2.2,2.2c-1.2,0-2.2-1-2.2-2.2c0-1.2,1-2.2,2.2-2.2C456.8,206,457.8,207,457.8,208.2
			z"/>
		<path class="st1" d="M421,30.8c0,2.2-1.8,4-4,4c-2.2,0-4-1.8-4-4c0-2.2,1.8-4,4-4C419.2,26.8,421,28.6,421,30.8z"/>
		<g>
			<g>
				<path class="st1" d="M239.7,79.6c-0.6,0-1-0.5-1-1v-7.1c0-0.6,0.5-1,1-1c0.6,0,1,0.5,1,1v7.1C240.7,79.2,240.3,79.6,239.7,79.6z
					"/>
			</g>
			<g>
				<path class="st1" d="M243.3,76.1h-7.1c-0.6,0-1-0.5-1-1c0-0.6,0.5-1,1-1h7.1c0.6,0,1,0.5,1,1C244.3,75.6,243.8,76.1,243.3,76.1z
					"/>
			</g>
		</g>
	</g>
</g>
<g>
	<g>
		<g>
			<path class="st0" d="M394.9,327.1l-287,0.2c-10.9,0-19.7-8.8-19.7-19.7l0,0l326.4-0.3l0,0C414.5,318.3,405.7,327.1,394.9,327.1z"
				/>
			<path class="st5" d="M394.9,320.3l-287,0.2c-8.5,0-15.7-5.4-18.5-12.9l-1.2,0c0,10.9,8.8,19.7,19.7,19.7l287-0.2
				c10.9,0,19.7-8.8,19.7-19.7l-1.2,0C410.6,314.9,403.3,320.3,394.9,320.3z"/>
			<path class="st5" d="M269.9,314.1l-37.1,0c-3.6,0-6.6-2.9-6.6-6.6l0,0l50.3,0l0,0C276.5,311.2,273.5,314.1,269.9,314.1z"/>
		</g>
		<g>
			<path class="st5" d="M397.7,307.4L105,307.7l-0.1-176.7c0-10.1,8.2-18.4,18.3-18.4l256.1-0.2c10.1,0,18.4,8.2,18.4,18.3
				L397.7,307.4z"/>
			<rect x="120.1" y="127.7" class="st6" width="262.3" height="164.5"/>
			<rect x="120.2" y="276.6" class="st0" width="262.3" height="15.7"/>
			<rect x="120.1" y="127.7" class="st0" width="262.3" height="7.8"/>
		</g>
	</g>
	<g>
		<g>
			<g>
				<g>
					<path class="st4" d="M355.6,253.1H254.8c-2.1,0-3.9-1.7-3.9-3.9v-55.3c0-2.1,1.7-3.9,3.9-3.9h100.8c2.1,0,3.9,1.7,3.9,3.9v55.3
						C359.4,251.3,357.7,253.1,355.6,253.1z M254.8,190.9c-1.7,0-3,1.3-3,3v55.3c0,1.7,1.3,3,3,3h100.8c1.7,0,3-1.3,3-3v-55.3
						c0-1.7-1.3-3-3-3H254.8z"/>
				</g>
				<g>
					<rect x="267.3" y="199.2" class="st2" width="13.5" height="46.4"/>
					<rect x="288" y="219.6" class="st2" width="13.5" height="26"/>
					<rect x="308.8" y="204.2" class="st2" width="13.5" height="41.5"/>
					<rect x="329.5" y="215.9" class="st2" width="13.5" height="29.7"/>
				</g>
				<g>
					<g>
						<rect x="251.4" y="165" class="st4" width="82.7" height="0.9"/>
					</g>
					<g>
						<rect x="251.4" y="176" class="st4" width="46.6" height="0.9"/>
					</g>
				</g>
			</g>
		</g>
		<g>
			<g>
				<g>
					<path class="st4" d="M231.1,253.9h-82.7c-2.7,0-5-2.2-5-5v-81.6c0-2.7,2.2-5,5-5h82.7c2.7,0,5,2.2,5,5V249
						C236,251.7,233.8,253.9,231.1,253.9z M148.3,163.3c-2.3,0-4.1,1.8-4.1,4.1V249c0,2.3,1.8,4.1,4.1,4.1h82.7
						c2.3,0,4.1-1.8,4.1-4.1v-81.6c0-2.3-1.8-4.1-4.1-4.1H148.3z"/>
				</g>
			</g>
		</g>
	</g>
</g>
<g>
	<g>
		<g>
			<g>
				<polygon class="st7" points="204.5,211.1 224.7,216.7 215.2,223.9 204.5,215.8 				"/>
				<path class="st7" d="M223.3,214.1l13.2-8.5l3.4,4.2l-18.5,14.5c-1.4,1.1-3.3,1.4-4.9,0.7c-1.7-0.8-3.8-2.3-5.1-5.5L223.3,214.1z
					"/>
				<g>
					<g>
						<path class="st7" d="M236.5,205.6l1.7-7.9c0.1-0.4,0.5-0.7,0.9-0.8l0,0c0.5,0,0.9,0.4,1,0.9l0.2,2.5l6.6-4.9
							c0.6-0.4,1.4-0.1,1.6,0.5l1.2,3.8c0.1,0.3,0,0.6-0.2,0.9c-1.3,1.8-6.8,8.8-10.4,9.6L236.5,205.6z"/>
					</g>
				</g>
			</g>
			<g>
				<polygon class="st1" points="196,204.6 213.7,211.9 208.4,223.8 194.8,217.9 				"/>
				<path class="st1" d="M213.1,212.3c0,0,0.4-2.1,2.4-1.5c0.3,0.1,0.7,0.2,0.9,0.3c1.1,0.4,1.7,1.7,1.2,2.9l-4.2,10.4
					c-0.8,2.1-3.5,2.7-5.1,1.2l-0.9-0.8L213.1,212.3z"/>
				<path class="st1" d="M199.9,220.1c0.2-0.9,0-7.9,0-7.9l4.2,9.8L199.9,220.1z"/>
			</g>
		</g>
		<g>
			<g>
				<path class="st1" d="M178.7,202.2l-13.3,8.5l7.3,38.9h26.9l0.5-39.5c-0.1-2.5-1.7-4.7-4-5.5l-9-3.2l-2.5,4.3L178.7,202.2z"/>
			</g>
			<polygon class="st1" points="179,231.4 176.2,218.6 183.7,234.6 180.2,237 			"/>
		</g>
		<g>
			<g>
				<path class="st1" d="M165.4,210.8c0,0-4.2,2.6-2.9,11.6c1.2,9,3.9,15.9,3.9,15.9l12.9-5.4l-3.5-16.3L165.4,210.8z"/>
				<path class="st1" d="M165.4,236.7c0,0-2.2,5,4.1,6.6l-0.8-1.8l11.8-6.3c0,0,1.1-3.9-3-4.1L165.4,236.7z"/>
			</g>
			<g>
				<path class="st7" d="M180.8,234.8l14.8-7.7l3.2,4.8l-23.1,14.9c0,0-5.1,1.6-7.1-5.1L180.8,234.8z"/>
				<g>
					<g>
						<path class="st7" d="M195.6,227.1l2.6-8.2c0.1-0.4,0.6-0.7,1-0.7l0,0c0.5,0,0.9,0.5,0.9,1l0,2.6l7.5-4.5
							c0.6-0.4,1.5,0,1.6,0.7l0.9,4.1c0.1,0.3,0,0.7-0.3,0.9c-1.6,1.8-8,8.6-12,9.1L195.6,227.1z"/>
					</g>
				</g>
			</g>
		</g>
	</g>
	<g>
		<g>
			<polygon class="st4" points="199.6,249.7 200.8,290.7 195.8,339.8 184.8,339.8 188.6,290.7 188.3,249.7 			"/>
			<g>
				<path class="st1" d="M195.8,339.8l4.6,3.6l4.2,0.8c1.9,0.4,3.3,2,3.5,3.9l0.1,0.9l-23.1,0l0.6-9.2L195.8,339.8z"/>
				<path class="st1" d="M185,349.2l23.3,0l0-1.5c0-0.3-0.2-0.5-0.5-0.5l-22.8,0L185,349.2"/>
			</g>
			<polygon class="st4" points="188.5,273.3 189.4,263.6 194.1,263 			"/>
		</g>
		<g>
			<polygon class="st4" points="172.7,249.7 172.1,291.1 169.7,339.8 180.7,339.8 186.8,290.9 190.7,249.7 			"/>
			<g>
				<path class="st1" d="M180.7,339.8l4.6,3.6l4.2,0.8c1.9,0.4,3.3,2,3.5,3.9l0.1,0.9l-23.1,0l0.6-9.2L180.7,339.8z"/>
				<path class="st1" d="M169.9,349.2l23.3,0l0-1.5c0-0.3-0.2-0.5-0.5-0.5l-22.8,0L169.9,349.2"/>
			</g>
		</g>
	</g>
	<g>
		<path class="st2" d="M172.3,182.2c0,0-2-7.7,7.8-8.8c8.5-0.9,11.2,3.8,12.1,6.1c0.9,2.3-9.1,9.4-9.1,9.4L172.3,182.2z"/>
		<g>
			<g>
				<g>
					<path class="st7" d="M178.7,202.2l-1.2-11.7l8.4-0.8l1.2,11.7c0.2,2.3-1.4,4.4-3.8,4.6l0,0C181,206.2,178.9,204.5,178.7,202.2z
						"/>
				</g>
				<path class="st8" d="M177.2,191.2c0,0,1.9,9.9,9.6,8.9l-0.5-5L177.2,191.2z"/>
			</g>
		</g>
		<g>
			<g>
				<path class="st2" d="M187.7,176.2c0,0,7.9,0.5,3.6,9.9l-1.9-4.7L187.7,176.2z"/>
				<path class="st7" d="M185.3,198.6L185.3,198.6c4.5-0.5,7.9-3.6,7.4-8l-0.9-8.9c-0.2-1.9-2-3.4-3.9-3.2l-9.2,1
					c-1.9,0.2-3.4,2-3.2,3.9l0.8,7.7C176.7,195.5,181.5,199,185.3,198.6z"/>
				<path class="st2" d="M176.6,188.5L176.6,188.5c0,0,4.3-3.2,2-9.1l-4.6,0.5c0,0-0.7-1-1.6,0.5c-0.9,1.4,1.6,7.8,1.6,7.8
					L176.6,188.5z"/>
				<path class="st7" d="M172.4,189.4c0.2,1.6,1.6,2.8,3.2,2.6c1.6-0.2,2.8-1.6,2.6-3.2c-0.2-1.6-1.6-2.8-3.2-2.6
					C173.4,186.3,172.3,187.8,172.4,189.4z"/>
			</g>
		</g>
		<path class="st5" d="M178.6,184.4c0,0,0.1,6,1.5,7.7c1.4,1.7,2.6-0.3,7.3-1.3c4.7-1,5.4,1.2,5.4,1.2s0.1,6-6.1,6.7
			c-4.8,0.5-9.8-0.3-9.3-8.1c0.5-7.8-2.3-9.5-2.3-9.5L178.6,184.4z"/>
		<path class="st2" d="M193.4,171.7c-1.5-3.1-4.8-3-8-1.1c-0.9,0.6-1.8,1-2.8,1.3c-13.6,3.5-7.1,11.4-7.1,11.4l3.2-3.9
			c0,0,2.7,1.2,6.8,0.7c1.7-0.2,3.2-0.7,4.5-1.2c0,0,0,0,0,0s0,0,0.1,0c0.1,0,0.2-0.1,0.3-0.1c0.6-0.2,1-0.6,1.4-1
			C193.4,176.5,195,175,193.4,171.7z"/>
	</g>
</g>
<g>
	<g>
		<g>
			<path class="st5" d="M389.7,298.3h32.6c0.8,0,1.4-0.6,1.4-1.4v-5c0-0.8-0.6-1.4-1.4-1.4h-32.6c-0.8,0-1.4,0.6-1.4,1.4v5
				C388.3,297.7,388.9,298.3,389.7,298.3z"/>
			
				<rect x="391.4" y="298.3" transform="matrix(-1 -1.224647e-16 1.224647e-16 -1 811.9911 598.7914)" class="st9" width="29.1" height="2.2"/>
			<polygon class="st9" points="419.7,300.5 424.2,347.4 419.7,347.4 414.6,300.5 			"/>
			<polygon class="st10" points="393.5,300.5 389,347.4 393.5,347.4 398.6,300.5 			"/>
			
				<rect x="393.8" y="322.2" transform="matrix(-1 -1.224647e-16 1.224647e-16 -1 813.1776 646.859)" class="st9" width="25.6" height="2.5"/>
		</g>
		<g>
			<g>
				<g>
					<polygon class="st7" points="381.3,319.1 381.4,343.3 373.4,343.2 372.4,318.7 					"/>
				</g>
				<path class="st2" d="M370.7,331.2l13.1,0.8l0.3-33l8.5,1.2l9.1-16c0,0-20.5-5.1-29.2,2.4c-0.7,0.6-1.2,2.7-1.3,3.7L370.7,331.2z
					"/>
				<g>
					<path class="st1" d="M372.2,337.9l-4.6,3.6l-4.2,0.8c-1.9,0.4-3.3,2-3.5,3.9l-0.1,0.9l23.1,0l-0.6-9.2L372.2,337.9z"/>
					<path class="st1" d="M383.1,347.3l-23.3,0l0-1.5c0-0.3,0.2-0.5,0.5-0.5l22.8,0L383.1,347.3"/>
				</g>
			</g>
			<g>
				<g>
					<polygon class="st7" points="399.8,320.3 399.8,344.4 391.9,344.3 390.3,319.9 					"/>
				</g>
				<path class="st2" d="M402.3,332.6l0-32.4c0,0,17.8,1.2,17.3-16.8c0,0-26.6-1.9-28.6,0c-5.3,5.2-2.8,48.6-2.8,48.6"/>
				<g>
					<path class="st1" d="M390.5,337.9l-4.6,3.6l-4.2,0.8c-1.9,0.4-3.3,2-3.5,3.9l-0.1,0.9l23.1,0l-0.6-9.2L390.5,337.9z"/>
					<path class="st1" d="M401.4,347.3l-23.3,0l0-1.5c0-0.3,0.2-0.5,0.5-0.5l22.8,0L401.4,347.3"/>
				</g>
			</g>
		</g>
		<g>
			<g>
				<g>
					<path class="st7" d="M367.1,246c0,2.7-2.2,4.9-4.9,4.9c-2.7,0-4.9-2.2-4.9-4.9s2.2-4.9,4.9-4.9
						C364.9,241.2,367.1,243.4,367.1,246z"/>
					<path class="st7" d="M365.3,244.9c0.2,0.1,8.5,5.5,8.5,5.5l-3.7,4.4l-7.8-5.5L365.3,244.9z"/>
					<path class="st7" d="M364.1,241.5l-6.3-2.6c-0.4-0.2-0.8,0-1,0.4l0,0c-0.2,0.3-0.1,0.8,0.2,1l5.3,3.9L364.1,241.5z"/>
				</g>
				<path class="st1" d="M412.9,241.5c0,0-4.7,11.4-20.4,24.8c-2.3,2-5.8,1.8-7.9-0.5l0,0c-2-2.1-3.1-3.4-1.3-5.7l11.2-16.3
					L412.9,241.5z"/>
				<path class="st1" d="M386.1,267.2L365,253.8l6.1-6.5l20.3,10.9l-2.1,7.2C388.9,266.7,387.5,267.5,386.1,267.2z"/>
			</g>
			<g>
				<path class="st4" d="M404.6,237.4c0,0,8.3,1,12.5,9.3c4.2,8.2-1,35.8-1,35.8l-23.5,0c0,0-2.5-29.2,1.8-37.9
					C396.8,239.9,404.6,237.4,404.6,237.4z"/>
				<path class="st1" d="M411.2,240c0,0-9,6.4-9.3,20.5c-0.3,14.1,1.8,33.1,17.6,27.4c0,0,2-1.2,0-4.3c-2-3-2.8-15.9-0.6-22.2
					l-3.4-17.8C415.5,243.6,414.3,241.9,411.2,240z"/>
				<path class="st1" d="M400.1,239.3c0,0-4.3,4.7-4.7,14.6c-0.3,7.8,1.1,27.3,1.1,27.3l-3,1.2l-1.2,0.2l-0.4-10.7
					c0,0-0.7-7.5-1-9.3C389.8,256.2,390.4,243.9,400.1,239.3z"/>
				<polygon class="st1" points="418.3,266.7 411.6,257 415.6,266.7 403.7,268.7 418.1,268.4 				"/>
			</g>
			<g>
				<path class="st11" d="M406.1,272.6c0,0-5-1.4-8.8-0.8c-2.7,0.4-4.9,4.1-4.7,6.9l0,0l16.2,0.8L406.1,272.6z"/>
				<path class="st1" d="M413.4,241.5c0,0,10.6,7.1,18.4,28.7c1,2.7-1.5,1.9-4.1,3.2l0,0c-2.4,1.2-3.9,1.9-5.4-0.4l-12.8-18.4
					L413.4,241.5z"/>
				<path class="st1" d="M427.9,277.5l-24.8-0.2l0.1-8.7l24.6-0.5c2.6-0.1,4.8,2,4.8,4.7l0,0C432.6,275.4,430.5,277.6,427.9,277.5z"
					/>
			</g>
		</g>
		<g>
			<path class="st1" d="M390.7,218.5c0,0-2.4,4.9,0,19.4c0,0,12.7-1,25.3,0c0,0,3-17.8-6-24L390.7,218.5z"/>
			<g>
				<g>
					<path class="st7" d="M399.5,233l1.1,7.8c0.3,2.1,2.2,3.6,4.3,3.3l0,0c2.1-0.3,3.6-2.2,3.3-4.3l-1-7.5c-0.3-2.1-2-1.8-4.1-1.5
						l0,0C401,231.1,399.2,231,399.5,233z"/>
				</g>
				<path class="st8" d="M408.5,229.9c0,0-1,8.9-8.1,9.7l-0.7-5.2L408.5,229.9z"/>
				<path class="st4" d="M408.2,239.8c0,0-0.1,3.8-4.6,3.5c-1.2-0.1-2.4-0.8-2.9-2c-0.1-0.3-0.2-0.6-0.2-1l0.6,3.4l3.3,1.8l2.2-0.9
					l1.3-1.5l1.1-1.6v-1.4L408.2,239.8z"/>
			</g>
			<circle class="st1" cx="403.7" cy="223.3" r="11.2"/>
			<path class="st7" d="M400.8,237.2l0.3,0c4.4,0,8-3.5,8.1-7.9l0.1-9c0-1.1-0.9-2.1-2.1-2.1l-10.5-0.1c-2,0-3.7,1.6-3.7,3.7
				l-0.1,7.4C392.9,233.6,396.4,237.2,400.8,237.2z"/>
			<path class="st1" d="M404.9,221.9c0,0-0.1,4.6,2.9,5.1c3,0.5,1.4-5.1,1.4-5.1H404.9z"/>
			<path class="st7" d="M406.6,227.3c0,1.5,1.2,2.7,2.7,2.7c1.5,0,2.7-1.2,2.7-2.7c0-1.5-1.2-2.7-2.7-2.7
				C407.8,224.6,406.6,225.8,406.6,227.3z"/>
			<path class="st1" d="M394.2,219c0,0,5.4,6.5,13.6,4.5c0,0,3.1-0.3,1.9-5.1C408.5,213.6,395.6,213.1,394.2,219z"/>
			<path class="st1" d="M395.1,218.7c0,0-2.9,0.7-2.4,6.5c0,0-3.4-6-1.6-8.9c3-4.6,8.6-1.1,8.6-1.1L395.1,218.7z"/>
		</g>
	</g>
	<g>
		<g>
			<polygon class="st1" points="441.4,281.2 459.1,349.5 453.2,349.5 431.5,281.2 			"/>
			<polygon class="st1" points="441.4,281.2 444.2,291.8 436.8,297.9 431.5,281.2 			"/>
		</g>
		<g>
			<polygon class="st1" points="358.1,281.2 340.5,349.5 346.4,349.5 368,281.2 			"/>
			<polygon class="st1" points="358.1,281.2 354.1,296.9 364.3,293 368,281.2 			"/>
		</g>
		
			<rect x="337.7" y="277.8" transform="matrix(-1 -1.224647e-16 1.224647e-16 -1 800.9597 560.1218)" class="st1" width="125.7" height="4.4"/>
	</g>
</g>
<g>
	<g>
		<path class="st5" d="M62.4,300.4h32.6c0.8,0,1.4-0.6,1.4-1.4v-5c0-0.8-0.6-1.4-1.4-1.4H62.4c-0.8,0-1.4,0.6-1.4,1.4v5
			C61,299.7,61.6,300.4,62.4,300.4z"/>
		
			<rect x="64.1" y="300.4" transform="matrix(-1 -1.224647e-16 1.224647e-16 -1 157.3035 602.934)" class="st1" width="29.1" height="2.2"/>
		<polygon class="st1" points="92.3,302.6 96.9,349.4 92.3,349.4 87.2,302.6 		"/>
		<polygon class="st1" points="66.2,302.6 61.6,349.4 66.2,349.4 71.3,302.6 		"/>
		
			<rect x="66.5" y="324.3" transform="matrix(-1 -1.224647e-16 1.224647e-16 -1 158.4899 651.0016)" class="st1" width="25.6" height="2.5"/>
	</g>
	<g>
		<g>
			<g>
				<g>
					<g>
						<path class="st1" d="M105.4,335.2l2.9,4.8l3.4,2.2c1.6,1,2.3,2.9,1.8,4.7l-0.2,0.8l-20.7-7.9l3.7-8.1L105.4,335.2z"/>
						<path class="st1" d="M92.5,340l20.9,7.9l0.5-1.3c0.1-0.3,0-0.6-0.3-0.7l-20.4-7.7L92.5,340"/>
					</g>
					<polygon class="st7" points="96.4,331.8 101.4,319.3 111,322.9 105.4,335.2 					"/>
				</g>
				<path class="st12" d="M107.8,275.3c0,0,20.2-1,18.5,6.7c-1.7,7.7-14.9,49.8-14.9,49.8l-14.4-4.4l10.3-34.3l-24.8-9.3
					L107.8,275.3z"/>
			</g>
			<g>
				<g>
					<g>
						<path class="st1" d="M113.5,338.7l4.4,3.4l4,0.8c1.8,0.4,3.2,1.9,3.4,3.8l0.1,0.9l-22.1,0l0.6-8.8L113.5,338.7z"/>
						<path class="st1" d="M103.1,347.7l22.3,0l0-1.4c0-0.3-0.2-0.5-0.5-0.5l-21.8,0L103.1,347.7"/>
					</g>
					<polygon class="st7" points="103.8,338.8 104.1,325.2 114.3,325.2 113.5,338.7 					"/>
				</g>
				<path class="st13" d="M88.7,280.5l26,1.2c0,0,3.7,0.2,3.5,9c-0.3,8.8-2.6,44-2.6,44l-12.5,0.4l0-36.9l-26.1-0.3
					c-5.5-0.1-10.6-3.2-12.8-8.3c-0.8-1.9-1.2-4.1-0.7-6.4L88.7,280.5z"/>
			</g>
		</g>
		<g>
			<g>
				<g>
					<g>
						<path class="st14" d="M113.4,275.3c0,2.5,1.7,2.8,4.1,2.8c2.5,0,4.8-0.4,4.8-2.8c0-2.5-2-4.5-4.5-4.5
							C115.4,270.8,113.4,272.8,113.4,275.3z"/>
						<path class="st14" d="M110.3,277.8l5.2,0c1.4,0,2.5-1.1,2.5-2.5l0,0c0-1.4-1.1-2.5-2.5-2.5l-5.2,0c-1.4,0-2.5,1.1-2.5,2.5l0,0
							C107.8,276.7,108.9,277.8,110.3,277.8z"/>
					</g>
					<path class="st2" d="M110.5,278.3l1.7-8.5L91,267.5l-4.2-25.4c-0.4-2.3-3.1-4.6-5.4-4.2l0,0c-2.3,0.4-4.3,3.1-3.9,5.3l4.1,29.7
						c0.3,1.6,1.5,2.9,3.1,3.3L110.5,278.3z"/>
				</g>
				<g>
					<path class="st2" d="M68,238.6c-0.4,0-0.9,0.1-1.3,0.3l-0.2,0.1c-3.6,1.4-6.1,5.3-6.3,9l3.3,35.2c22-0.2,25.2-2.7,25.2-2.7
						l-1.8-36c-0.3-3.4-1.8-6.6-5.7-6.9l0,0L68,238.6z"/>
					<polygon class="st2" points="70.4,252.3 69.8,268.5 91.4,272.6 72.4,266.6 					"/>
				</g>
				<g>
					<g>
						<g>
							<path class="st7" d="M92.3,278c-0.2,2.5,1.5,2.9,3.9,3.1c2.5,0.2,4.8,0,5-2.5c0.2-2.5-1.7-4.6-4.2-4.8
								C94.6,273.7,92.4,275.6,92.3,278z"/>
							<path class="st7" d="M89,280.4l5.2,0.4c1.3,0.1,2.5-0.9,2.6-2.3l0,0c0.1-1.3-0.9-2.5-2.3-2.6l-5.2-0.4
								c-1.3-0.1-2.5,0.9-2.6,2.3l0,0C86.6,279.1,87.6,280.3,89,280.4z"/>
						</g>
						<path class="st2" d="M89.1,280.9l2.3-8.3l-23.2-3.7l1.3-21.5c-0.3-2.3-2.8-4.8-5.1-4.6l0,0c-2.3,0.3-4.5,2.8-4.2,5l-1.7,25.8
							c0.2,1.6,1.3,3,2.9,3.5L89.1,280.9z"/>
					</g>
				</g>
			</g>
			<g>
				<path class="st1" d="M129.2,252.3l-25.3,2.4c-0.8,0.1-1.5,0.7-1.6,1.6L99.7,279c-0.1,1.1,0.8,2.1,1.9,2l25.7-2.4
					c0.8-0.1,1.5-0.7,1.6-1.6l2.2-22.7C131.3,253.1,130.3,252.2,129.2,252.3z"/>
				<path class="st1" d="M130.7,252.1l-25.3,2.4c-0.8,0.1-1.5,0.7-1.6,1.6l-2.7,22.8c-0.1,1.1,0.8,2.1,1.9,2l25.7-2.4
					c0.8-0.1,1.5-0.7,1.6-1.6l2.2-22.7C132.7,253,131.8,252,130.7,252.1z"/>
				<path class="st1" d="M100.4,279.1l-17.3,1.6c-0.5,0-0.9,0.5-0.9,1l0,0c0,0.5,0.5,0.9,1,0.9l18.3-1.7L100.4,279.1z"/>
				<path class="st4" d="M116.2,265.9c0.1,1.5,1.5,2.6,3,2.5c1.5-0.1,2.6-1.5,2.5-3c-0.1-1.5-1.5-2.6-3-2.5
					C117.2,263.1,116,264.4,116.2,265.9z"/>
			</g>
		</g>
		<g>
			<g>
				<g>
					<g>
						<path class="st7" d="M71,238.5l-0.3-11.8l8.4-0.2l0.3,11.8c0.1,2.3-1.4,2.9-3.7,3l-0.7-0.1C72.7,241.3,71,240.9,71,238.5z"/>
					</g>
					<path class="st8" d="M70.4,227.4c0,0,1.2,10.1,9,9.7l-0.1-5.1L70.4,227.4z"/>
				</g>
			</g>
			<path class="st2" d="M83,215.2c0,0,4.1,3.3,0,10.4l-4.2-8.9L83,215.2z"/>
			<path class="st7" d="M77.8,234.7l-0.3,0c-4.2,0.5-7.9-2.5-8.4-6.7l-1-8.5c-0.1-1.1,0.6-2.1,1.7-2.2l9.9-1.2
				c1.9-0.2,3.7,1.2,3.9,3.1l0.8,7C85,230.5,82,234.3,77.8,234.7z"/>
			<path class="st2" d="M69.1,226.9L69.1,226.9c1.9-0.2,2.6-1.8,2.7-2.9c0.5-3.2-0.8-5.3-0.7-5.3c5.6,0.1,13.1-1.2,14.1-5.1
				c0.9-3.9-4.4-9.6-9.3-6.2c-4.3,3-10.4,6.4-10.4,6.4c-3.3,1.5-7.1,12.8,4.2,16.6C69.8,230.4,68.9,227.9,69.1,226.9z"/>
			<path class="st7" d="M70.9,225.3c0.2,1.5-0.9,2.9-2.4,3c-1.5,0.2-2.9-0.9-3-2.4c-0.2-1.5,0.9-2.9,2.4-3
				C69.3,222.8,70.7,223.8,70.9,225.3z"/>
		</g>
	</g>
</g>
</svg>
