<?xml version="1.0" encoding="utf-8"?>
<!-- Generator: Adobe Illustrator 25.2.1, SVG Export Plug-In . SVG Version: 6.00 Build 0)  -->
<svg version="1.1" id="OBJECTS" xmlns="http://www.w3.org/2000/svg" xmlns:xlink="http://www.w3.org/1999/xlink" x="0px" y="0px"
	 viewBox="0 0 500 350" style="enable-background:new 0 0 500 350;" xml:space="preserve">
<style type="text/css">
	.st0{fill:#225A48;}
	.st1{fill:#404040;}
	.st2{fill:#FAC611;}
	.st3{fill:#FDC847;}
	.st4{fill:#FFFFFF;}
	.st5{fill:#44B08D;}
	.st6{fill:#31846A;}
	.st7{fill:#F5AB58;}
	.st8{fill:#DC8A3A;}
	.st9{fill:#242D38;}
	.st10{fill:#362B40;}
	.st11{fill:#E29080;}
	.st12{fill:#1AA485;}
	.st13{fill:#20B094;}
	.st14{fill:#D8A99E;}
</style>
<g>
	<g>
		<g>
			<path class="st0" d="M76.9,326.5c0,0-93.6-86.2-45-167.8c48.6-81.6,144.9-52.6,240.4-102.2s157.4-43.3,183.3,0
				c31.6,52.7-45.6,99.2-1.5,170.9c44.1,71.7-2.7,99.2-2.7,99.2H76.9z"/>
		</g>
		<g>
			<g>
				<path class="st1" d="M339.5,230.7l-0.4,0l0-1.7l0.4,0c1.3,0,2.6-0.1,3.8-0.2l0.2,1.7C342.2,230.6,340.9,230.7,339.5,230.7z
					 M334.7,230.2c-1.4-0.2-2.9-0.6-4.3-1l0.5-1.6c1.3,0.4,2.7,0.7,4.1,1L334.7,230.2z M347.8,229.6l-0.5-1.7
					c1.3-0.4,2.7-0.8,3.9-1.4l0.7,1.6C350.7,228.7,349.3,229.2,347.8,229.6z M326.3,227.6c-1.3-0.6-2.6-1.3-3.9-2l0.9-1.5
					c1.2,0.7,2.5,1.4,3.7,2L326.3,227.6z M355.9,225.9l-1-1.4c1.1-0.8,2.2-1.6,3.2-2.6l1.2,1.3C358.2,224.1,357,225.1,355.9,225.9z
					 M318.8,223.2c-1.2-0.9-2.3-1.8-3.4-2.8l1.1-1.3c1.1,0.9,2.2,1.8,3.3,2.7L318.8,223.2z M362.3,219.9l-1.3-1.1
					c0.8-1,1.6-2,2.6-3.3l1.4,1C364,217.8,363.2,218.9,362.3,219.9z M312.2,217.4c-1-1-2-2.1-2.9-3.3l1.3-1.1
					c0.9,1.1,1.8,2.2,2.8,3.2L312.2,217.4z M367.5,213l-1.4-1c0.8-1.1,1.8-2.4,2.8-3.4l1.2,1.2C369.2,210.7,368.3,211.9,367.5,213z
					 M306.7,210.6c-0.8-1.2-1.6-2.4-2.3-3.7l1.5-0.9c0.7,1.2,1.5,2.4,2.3,3.6L306.7,210.6z M373.3,207l-1.1-1.3
					c1.1-1,2.3-1.9,3.4-2.7l1,1.4C375.5,205.1,374.4,206,373.3,207z M302.4,203c-0.6-1.3-1.2-2.7-1.7-4.1l1.6-0.6
					c0.5,1.3,1,2.6,1.6,3.9L302.4,203z M380.1,201.8l-1-1.4c1.2-0.8,2.5-1.6,3.7-2.3l0.9,1.5C382.5,200.2,381.2,201,380.1,201.8z
					 M387.4,197.6l-0.7-1.5c1.3-0.6,2.6-1.2,4-1.7l0.6,1.6C389.9,196.4,388.6,197,387.4,197.6z M395.2,194.5l-0.5-1.6
					c1.3-0.4,2.7-0.8,4.2-1.2l0.4,1.7C397.9,193.7,396.5,194.1,395.2,194.5z M403.5,192.4l-0.4-1.7c1.4-0.3,2.8-0.6,4.2-0.8l0.3,1.7
					C406.2,191.8,404.8,192.1,403.5,192.4z M411.9,190.8l-0.3-1.7c1.3-0.2,2.6-0.7,3.9-1.3l0.7,1.6
					C414.8,190.1,413.3,190.5,411.9,190.8z M420,187.2l-1-1.4c1.1-0.8,2.2-1.7,3.2-2.7l1.2,1.2C422.3,185.4,421.2,186.3,420,187.2z
					 M426.4,181.1l-1.3-1.1c0.9-1.1,1.7-2.2,2.4-3.4l1.5,0.9C428.2,178.7,427.3,180,426.4,181.1z M431,173.6l-1.6-0.7
					c0.6-1.3,1.1-2.6,1.5-3.9l1.6,0.5C432.2,170.9,431.6,172.3,431,173.6z M433.7,165.2l-1.7-0.3c0.2-1.4,0.4-2.8,0.4-4.1l1.7,0
					C434.1,162.3,433.9,163.8,433.7,165.2z M432.2,156.6c-0.1-0.5-0.1-1-0.2-1.5c-0.2-0.9-0.4-1.7-0.6-2.6l1.7-0.5
					c0.3,0.9,0.5,1.8,0.7,2.8c0.1,0.5,0.2,1,0.2,1.6L432.2,156.6z M429.9,148.7c-0.6-1.2-1.2-2.5-2-3.7l1.5-0.9
					c0.8,1.3,1.5,2.6,2.1,3.9L429.9,148.7z M425.5,141.5c-0.8-1.1-1.7-2.2-2.7-3.2l1.3-1.2c1,1.1,2,2.2,2.8,3.3L425.5,141.5z
					 M419.8,135.2c-1-0.9-2-1.9-3.2-2.8l1.1-1.3c1.1,1,2.2,2,3.2,2.9L419.8,135.2z M413.4,129.7c-1.1-0.8-2.2-1.7-3.4-2.6l1-1.4
					c1.2,0.9,2.4,1.8,3.5,2.6L413.4,129.7z M406.4,124.7c-1.2-0.8-2.4-1.6-3.6-2.4l0.9-1.4c1.2,0.8,2.4,1.6,3.6,2.4L406.4,124.7z
					 M399.3,120c-1.2-0.8-2.4-1.5-3.6-2.3l0.9-1.5c1.2,0.8,2.4,1.5,3.7,2.3L399.3,120z M392,115.4l-3.7-2.3l0.9-1.5l3.7,2.3
					L392,115.4z M384.7,110.9c-1.2-0.8-2.4-1.5-3.6-2.3l0.9-1.4c1.2,0.8,2.4,1.5,3.6,2.3L384.7,110.9z M377.4,106.2
					c-1.2-0.8-2.4-1.6-3.6-2.5l1-1.4c1.1,0.8,2.3,1.6,3.5,2.4L377.4,106.2z M370.3,101.2c-1.2-0.9-2.3-1.8-3.4-2.7l1.1-1.3
					c1,0.9,2.1,1.8,3.3,2.7L370.3,101.2z M363.8,95.5c-1.1-1.1-2.1-2.2-2.9-3.3l1.3-1.1c0.8,1,1.8,2.1,2.8,3.1L363.8,95.5z
					 M358.3,88.6c-0.8-1.2-1.5-2.4-2.2-3.7l1.5-0.8c0.7,1.3,1.4,2.5,2.2,3.7L358.3,88.6z M354.1,81.1c-0.7-1.3-1.3-2.6-1.9-3.9
					l1.5-0.8c0.6,1.2,1.2,2.5,1.9,3.8L354.1,81.1z M350.2,73.4c-0.6-1.3-1.3-2.6-1.9-3.8l1.5-0.8c0.6,1.3,1.3,2.5,1.9,3.9
					L350.2,73.4z M346.3,65.8c-0.7-1.3-1.5-2.4-2.3-3.6l1.4-1c0.8,1.2,1.6,2.4,2.3,3.7L346.3,65.8z M341.5,58.9
					c-0.9-1.1-1.9-2.1-2.9-3.1l1.2-1.2c1,1,2,2.1,3,3.2L341.5,58.9z M335.5,53c-1-0.9-2.2-1.8-3.3-2.6l1-1.4
					c1.2,0.9,2.4,1.8,3.4,2.7L335.5,53z"/>
			</g>
			<g>
				<path class="st2" d="M317.3,27.4c-0.1-0.2,8.7,5.2,8.7,5.2l-2.3,14.7l-4.3-11l-11.3-2.2l-16.1-15.1L317.3,27.4z"/>
				<polygon class="st2" points="292.1,19.1 323.7,47.3 319.4,36.3 				"/>
				<polygon class="st2" points="292.1,19.1 333.9,28 326,32.6 292.1,19.1 319.4,36.3 305.9,44.7 				"/>
			</g>
		</g>
		<g>
			<g>
				<path class="st2" d="M173.3,55.2h-42.1c-3,0-5.5-2.5-5.5-5.5V24.1c0-3,2.5-5.5,5.5-5.5h42.1c3,0,5.5,2.5,5.5,5.5v25.7
					C178.8,52.8,176.4,55.2,173.3,55.2z"/>
				<path class="st3" d="M145.5,50.9l5.3,10.2c0.7,1.3,2.4,1.3,3.2,0.1l6.3-10.4H145.5z"/>
			</g>
			<path class="st4" d="M158,26.4c-5.1-0.1-5.6,3.1-5.6,3.1s-0.3-3.1-5.5-3.2c-5.1-0.1-7,5.8-5.7,9.4c1,2.7,7,8.7,9.7,11.3
				c0.7,0.7,1.9,0.7,2.7,0c2.8-2.6,8.9-8.4,9.9-11.1C164.9,32.4,163.1,26.4,158,26.4z"/>
		</g>
		<g>
			<g>
				<g>
					<path class="st2" d="M478,138.8h-31c-2.2,0-4.1-1.8-4.1-4.1v-18.9c0-2.2,1.8-4.1,4.1-4.1h31c2.2,0,4.1,1.8,4.1,4.1v18.9
						C482.1,136.9,480.3,138.8,478,138.8z"/>
					<path class="st2" d="M457.6,135.5l3.9,7.5c0.5,0.9,1.8,1,2.3,0.1l4.7-7.6H457.6z"/>
				</g>
			</g>
			<g>
				<path class="st4" d="M466.4,119.8c0,2.2-1.8,4-4,4c-2.2,0-4-1.8-4-4c0-2.2,1.8-4,4-4C464.6,115.8,466.4,117.6,466.4,119.8z"/>
				<path class="st4" d="M468.7,133.4c0.8,0,1.4-0.7,1.2-1.5c-0.7-4-3.8-6.9-7.5-6.9s-6.8,3-7.5,6.9c-0.1,0.8,0.4,1.5,1.2,1.5H468.7
					z"/>
			</g>
		</g>
		<g>
			<path class="st1" d="M38,125.5c0,3.1-2.5,5.6-5.6,5.6c-3.1,0-5.6-2.5-5.6-5.6c0-3.1,2.5-5.6,5.6-5.6
				C35.5,119.9,38,122.4,38,125.5z"/>
			<path class="st1" d="M475.4,196.7c0,1.3-1.1,2.4-2.4,2.4c-1.3,0-2.4-1.1-2.4-2.4c0-1.3,1.1-2.4,2.4-2.4
				C474.3,194.4,475.4,195.4,475.4,196.7z"/>
			<path class="st1" d="M435.5,4.3c0,2.4-1.9,4.3-4.3,4.3c-2.4,0-4.3-1.9-4.3-4.3c0-2.4,1.9-4.3,4.3-4.3
				C433.6,0,435.5,1.9,435.5,4.3z"/>
			<g>
				<g>
					<path class="st1" d="M238.9,57.3c-0.6,0-1.1-0.5-1.1-1.1v-7.7c0-0.6,0.5-1.1,1.1-1.1c0.6,0,1.1,0.5,1.1,1.1v7.7
						C240,56.8,239.5,57.3,238.9,57.3z"/>
				</g>
				<g>
					<path class="st1" d="M242.7,53.4H235c-0.6,0-1.1-0.5-1.1-1.1c0-0.6,0.5-1.1,1.1-1.1h7.7c0.6,0,1.1,0.5,1.1,1.1
						C243.8,52.9,243.3,53.4,242.7,53.4z"/>
				</g>
			</g>
		</g>
	</g>
	<g>
		<g>
			<g>
				<path class="st0" d="M407.1,325.7L95.8,326c-11.8,0-21.4-9.5-21.4-21.3l0,0l354-0.3l0,0C428.5,316.2,418.9,325.7,407.1,325.7z"
					/>
				<path class="st5" d="M407.1,318.4l-311.3,0.2c-9.2,0-17-5.8-20-14l-1.3,0c0,11.8,9.6,21.3,21.4,21.3l311.3-0.2
					c11.8,0,21.3-9.6,21.3-21.4l-1.3,0C424.2,312.5,416.3,318.4,407.1,318.4z"/>
				<path class="st5" d="M271.6,311.6l-40.2,0c-3.9,0-7.1-3.2-7.2-7.1l0,0l54.5,0l0,0C278.7,308.4,275.5,311.6,271.6,311.6z"/>
			</g>
			<g>
				<path class="st5" d="M410.3,304.4l-317.6,0.2l-0.1-191.7c0-11,8.9-19.9,19.9-19.9l277.8-0.2c11,0,19.9,8.9,19.9,19.9
					L410.3,304.4z"/>
				<rect x="109.1" y="109.5" class="st6" width="284.5" height="178.5"/>
				<rect x="109.2" y="270.9" class="st0" width="284.5" height="17.1"/>
				<rect x="109.1" y="109.5" class="st0" width="284.5" height="8.5"/>
			</g>
		</g>
		<g>
			<g>
				<g>
					<g>
						<path class="st4" d="M364.5,245.4H255.2c-2.3,0-4.2-1.9-4.2-4.2v-60c0-2.3,1.9-4.2,4.2-4.2h109.3c2.3,0,4.2,1.9,4.2,4.2v60
							C368.7,243.5,366.8,245.4,364.5,245.4z M255.2,178c-1.8,0-3.3,1.5-3.3,3.3v60c0,1.8,1.5,3.3,3.3,3.3h109.3
							c1.8,0,3.3-1.5,3.3-3.3v-60c0-1.8-1.5-3.3-3.3-3.3H255.2z"/>
					</g>
					<g>
						<rect x="268.8" y="187" class="st2" width="14.7" height="50.4"/>
						<rect x="291.3" y="209.1" class="st2" width="14.7" height="28.3"/>
						<rect x="313.7" y="192.4" class="st2" width="14.7" height="45"/>
						<rect x="336.2" y="205.1" class="st2" width="14.7" height="32.2"/>
					</g>
					<g>
						<g>
							<rect x="251.5" y="149.9" class="st4" width="89.7" height="0.9"/>
						</g>
						<g>
							<rect x="251.5" y="161.8" class="st4" width="50.5" height="0.9"/>
						</g>
					</g>
				</g>
			</g>
			<g>
				<g>
					<g>
						<path class="st4" d="M229.5,246.3h-89.8c-3,0-5.4-2.4-5.4-5.4v-88.5c0-3,2.4-5.4,5.4-5.4h89.8c3,0,5.4,2.4,5.4,5.4V241
							C234.8,243.9,232.4,246.3,229.5,246.3z M139.7,148c-2.4,0-4.4,2-4.4,4.4V241c0,2.4,2,4.4,4.4,4.4h89.8c2.4,0,4.4-2,4.4-4.4
							v-88.5c0-2.4-2-4.4-4.4-4.4H139.7z"/>
					</g>
				</g>
			</g>
		</g>
	</g>
	<g>
		<g>
			<g>
				<g>
					<polygon class="st7" points="200.6,199.9 222.6,205.9 212.2,213.8 200.6,205 					"/>
					<path class="st7" d="M221,203.1l14.3-9.3l3.7,4.6L219,214.3c-1.5,1.2-3.6,1.5-5.4,0.7c-1.9-0.8-4.1-2.5-5.5-5.9L221,203.1z"/>
					<g>
						<g>
							<path class="st7" d="M235.3,193.9l1.8-8.6c0.1-0.5,0.5-0.8,1-0.8l0,0c0.5,0,1,0.4,1,0.9l0.2,2.7l7.2-5.3
								c0.6-0.4,1.5-0.2,1.7,0.6l1.3,4.1c0.1,0.3,0,0.7-0.2,1c-1.4,1.9-7.3,9.5-11.3,10.4L235.3,193.9z"/>
						</g>
					</g>
				</g>
				<g>
					<polygon class="st1" points="191.4,192.9 210.6,200.8 204.9,213.7 190.1,207.2 					"/>
					<path class="st1" d="M210,201.2c0,0,0.4-2.3,2.6-1.6c0.4,0.1,0.7,0.2,1,0.4c1.2,0.5,1.8,1.9,1.3,3.1l-4.5,11.3
						c-0.9,2.2-3.8,2.9-5.5,1.3l-0.9-0.9L210,201.2z"/>
					<path class="st1" d="M195.6,209.7c0.3-1,0-8.6,0-8.6l4.6,10.6L195.6,209.7z"/>
				</g>
			</g>
			<g>
				<g>
					<path class="st1" d="M172.6,190.3l-14.4,9.2l7.9,42.2h29.1l0.5-42.9c-0.1-2.7-1.8-5.1-4.4-6l-9.7-3.5L179,194L172.6,190.3z"/>
				</g>
				<polygon class="st1" points="172.9,221.9 169.9,208 178.1,225.4 174.3,228 				"/>
			</g>
			<g>
				<g>
					<path class="st1" d="M158.2,199.5c0,0-4.5,2.8-3.2,12.6c1.4,9.8,4.2,17.2,4.2,17.2l14-5.9l-3.8-17.7L158.2,199.5z"/>
					<path class="st1" d="M158.2,227.7c0,0-2.3,5.4,4.4,7.2l-0.8-2l12.8-6.8c0,0,1.2-4.3-3.3-4.5L158.2,227.7z"/>
				</g>
				<g>
					<path class="st7" d="M174.9,225.6l16.1-8.4l3.5,5.2l-25.1,16.2c0,0-5.6,1.7-7.7-5.6L174.9,225.6z"/>
					<g>
						<g>
							<path class="st7" d="M191,217.2l2.8-8.9c0.1-0.5,0.6-0.8,1.1-0.8l0,0c0.6,0,1,0.5,1,1.1l-0.1,2.8l8.2-4.9
								c0.7-0.4,1.6,0,1.7,0.8l0.9,4.4c0.1,0.4,0,0.7-0.3,1c-1.7,1.9-8.7,9.4-13,9.9L191,217.2z"/>
						</g>
					</g>
				</g>
			</g>
		</g>
		<g>
			<g>
				<polygon class="st4" points="195.3,241.7 196.7,286.2 191.2,339.5 179.3,339.5 183.4,286.2 183.1,241.7 				"/>
				<g>
					<path class="st1" d="M191.2,339.5l5,3.9l4.5,0.9c2.1,0.4,3.6,2.2,3.8,4.3l0.1,1l-25.1,0l0.7-10L191.2,339.5z"/>
					<path class="st1" d="M179.5,349.7l25.3,0l0-1.6c0-0.3-0.3-0.6-0.6-0.6l-24.7,0L179.5,349.7"/>
				</g>
				<polygon class="st4" points="183.3,267.4 184.3,256.9 189.3,256.2 				"/>
			</g>
			<g>
				<polygon class="st4" points="166.2,241.7 165.5,286.7 162.9,339.5 174.8,339.5 181.4,286.4 185.7,241.7 				"/>
				<g>
					<path class="st1" d="M174.8,339.5l5,3.9l4.5,0.9c2.1,0.4,3.6,2.2,3.8,4.3l0.1,1l-25.1,0l0.7-10L174.8,339.5z"/>
					<path class="st1" d="M163.1,349.7l25.3,0l0-1.6c0-0.3-0.3-0.6-0.6-0.6l-24.7,0L163.1,349.7"/>
				</g>
			</g>
		</g>
		<g>
			<path class="st2" d="M165.7,168.6c0,0-2.2-8.4,8.5-9.5c9.2-0.9,12.2,4.1,13.1,6.7c1,2.5-9.8,10.3-9.8,10.3L165.7,168.6z"/>
			<g>
				<g>
					<g>
						<path class="st7" d="M172.6,190.3l-1.3-12.7l9.1-0.9l1.3,12.7c0.3,2.5-1.6,4.7-4.1,5l0,0C175.1,194.6,172.9,192.8,172.6,190.3
							z"/>
					</g>
					<path class="st8" d="M171.1,178.3c0,0,2.1,10.7,10.5,9.7l-0.6-5.4L171.1,178.3z"/>
				</g>
			</g>
			<g>
				<g>
					<path class="st2" d="M182.4,162.1c0,0,8.5,0.6,4,10.8l-2-5.1L182.4,162.1z"/>
					<path class="st7" d="M179.8,186.3L179.8,186.3c4.9-0.5,8.5-3.9,8-8.7l-1-9.7c-0.2-2.1-2.1-3.7-4.3-3.4l-10,1.1
						c-2.1,0.2-3.7,2.1-3.4,4.3l0.9,8.3C170.5,182.9,175.7,186.7,179.8,186.3z"/>
					<path class="st2" d="M170.4,175.3L170.4,175.3c0,0,4.6-3.5,2.2-9.8l-5,0.5c0,0-0.8-1.1-1.7,0.5c-0.9,1.6,1.8,8.5,1.8,8.5
						L170.4,175.3z"/>
					<path class="st7" d="M165.8,176.3c0.2,1.7,1.8,3,3.5,2.8c1.7-0.2,3-1.8,2.8-3.5c-0.2-1.7-1.8-3-3.5-2.8
						C166.9,173,165.7,174.6,165.8,176.3z"/>
				</g>
			</g>
			<path class="st5" d="M172.6,171c0,0,0.1,6.5,1.6,8.3c1.6,1.8,2.8-0.3,7.9-1.4c5.1-1.1,5.9,1.3,5.9,1.3s0.1,6.6-6.6,7.3
				c-5.2,0.6-10.6-0.4-10.1-8.8c0.5-8.4-2.5-10.3-2.5-10.3L172.6,171z"/>
			<path class="st2" d="M188.6,157.2c-1.6-3.3-5.2-3.3-8.7-1.1c-1,0.6-2,1.1-3.1,1.4c-14.7,3.8-7.8,12.3-7.8,12.3l3.4-4.3
				c0,0,2.9,1.3,7.4,0.7c1.8-0.2,3.5-0.7,4.9-1.3c0,0,0,0,0,0s0,0,0.1,0c0.1,0,0.2-0.1,0.4-0.1c0.6-0.2,1.1-0.6,1.5-1
				C188.6,162.4,190.3,160.7,188.6,157.2z"/>
		</g>
	</g>
	<g>
		<g>
			<g>
				<path class="st5" d="M401.6,294.5h35.3c0.8,0,1.5-0.7,1.5-1.5v-5.5c0-0.8-0.7-1.5-1.5-1.5h-35.3c-0.8,0-1.5,0.7-1.5,1.5v5.5
					C400,293.8,400.7,294.5,401.6,294.5z"/>
				
					<rect x="403.4" y="294.5" transform="matrix(-1 -1.224647e-16 1.224647e-16 -1 838.4413 591.3417)" class="st9" width="31.6" height="2.4"/>
				<polygon class="st9" points="434,296.8 439,347.7 434,347.7 428.5,296.8 				"/>
				<polygon class="st10" points="405.7,296.8 400.8,347.7 405.7,347.7 411.2,296.8 				"/>
				
					<rect x="406" y="320.4" transform="matrix(-1 -1.224647e-16 1.224647e-16 -1 839.7283 643.4844)" class="st9" width="27.8" height="2.7"/>
			</g>
			<g>
				<g>
					<g>
						<polygon class="st7" points="392.4,317.1 392.5,343.2 383.9,343.1 382.7,316.6 						"/>
					</g>
					<path class="st2" d="M380.9,330.2l14.2,0.8l0.3-35.8l9.2,1.3l9.8-17.4c0,0-22.2-5.5-31.6,2.6c-0.7,0.6-1.4,2.9-1.4,4
						L380.9,330.2z"/>
					<g>
						<path class="st1" d="M382.6,337.4l-5,3.9l-4.5,0.9c-2.1,0.4-3.6,2.2-3.8,4.3l-0.1,1l25.1,0l-0.7-10L382.6,337.4z"/>
						<path class="st1" d="M394.3,347.6l-25.3,0l0-1.6c0-0.3,0.3-0.6,0.6-0.6l24.7,0L394.3,347.6"/>
					</g>
				</g>
				<g>
					<g>
						<polygon class="st7" points="412.5,318.4 412.6,344.5 404,344.4 402.2,317.9 						"/>
					</g>
					<path class="st2" d="M415.2,331.7l0-35.2c0,0,19.3,1.3,18.8-18.2c0,0-28.9-2.1-31,0c-5.8,5.7-3,52.7-3,52.7"/>
					<g>
						<path class="st1" d="M402.5,337.5l-5,3.9l-4.5,0.9c-2.1,0.4-3.6,2.2-3.8,4.3l-0.1,1l25.1,0l-0.7-10L402.5,337.5z"/>
						<path class="st1" d="M414.2,347.7l-25.3,0l0-1.6c0-0.3,0.3-0.6,0.6-0.6l24.7,0L414.2,347.7"/>
					</g>
				</g>
			</g>
			<g>
				<g>
					<g>
						<path class="st7" d="M377,237.8c0,2.9-2.4,5.3-5.3,5.3s-5.3-2.4-5.3-5.3s2.4-5.3,5.3-5.3S377,234.9,377,237.8z"/>
						<path class="st7" d="M375,236.6c0.2,0.1,9.2,5.9,9.2,5.9l-4,4.8l-8.4-6L375,236.6z"/>
						<path class="st7" d="M373.8,232.9l-6.9-2.8c-0.4-0.2-0.9,0-1.1,0.4l0,0c-0.2,0.4-0.1,0.8,0.3,1.1l5.8,4.3L373.8,232.9z"/>
					</g>
					<path class="st1" d="M426.7,232.9c0,0-5.1,12.4-22.2,26.9c-2.5,2.1-6.3,1.9-8.6-0.5l0,0c-2.1-2.3-3.4-3.7-1.4-6.1l12.1-17.6
						L426.7,232.9z"/>
					<path class="st1" d="M397.6,260.8l-22.9-14.6l6.6-7l22.1,11.8l-2.3,7.8C400.7,260.2,399.2,261.1,397.6,260.8z"/>
				</g>
				<g>
					<path class="st4" d="M417.7,228.4c0,0,9,1.1,13.6,10c4.5,8.9-1.1,38.8-1.1,38.8l-25.5,0c0,0-2.8-31.7,2-41.1
						C409.2,231.1,417.7,228.4,417.7,228.4z"/>
					<path class="st1" d="M424.9,231.2c0,0-9.8,7-10.1,22.3c-0.4,15.3,2,35.9,19.1,29.7c0,0,2.2-1.3,0-4.6
						c-2.2-3.3-3.1-17.2-0.6-24.1l-3.7-19.3C429.6,235.2,428.3,233.3,424.9,231.2z"/>
					<path class="st1" d="M412.9,230.4c0,0-4.6,5.1-5.1,15.8c-0.4,8.4,1.1,29.6,1.1,29.6l-3.2,1.3l-1.3,0.2l-0.4-11.6
						c0,0-0.8-8.1-1.1-10.1C401.7,248.8,402.3,235.5,412.9,230.4z"/>
					<polygon class="st1" points="432.6,260.2 425.3,249.7 429.6,260.2 416.8,262.3 432.4,262 					"/>
				</g>
				<g>
					<path class="st11" d="M419.4,266.6c0,0-5.5-1.5-9.6-0.9c-3,0.5-5.3,4.5-5.1,7.4l0,0l17.6,0.8L419.4,266.6z"/>
					<path class="st1" d="M427.3,232.9c0,0,11.5,7.7,20,31.2c1.1,2.9-1.7,2.1-4.4,3.4l0,0c-2.6,1.3-4.2,2-5.9-0.4l-13.9-20
						L427.3,232.9z"/>
					<path class="st1" d="M443,271.9l-26.9-0.2l0.2-9.4l26.6-0.6c2.9-0.1,5.2,2.2,5.2,5.1l0,0C448.1,269.7,445.8,272,443,271.9z"/>
				</g>
			</g>
			<g>
				<path class="st1" d="M402.6,207.9c0,0-2.6,5.3,0,21.1c0,0,13.7-1,27.4,0c0,0,3.3-19.3-6.5-26L402.6,207.9z"/>
				<g>
					<g>
						<path class="st7" d="M412.2,223.7l1.1,8.5c0.3,2.3,2.4,3.9,4.7,3.6l0,0c2.3-0.3,3.9-2.4,3.6-4.7l-1.1-8.1
							c-0.3-2.2-2.1-1.9-4.4-1.6l0,0C413.8,221.6,411.9,221.4,412.2,223.7z"/>
					</g>
					<path class="st8" d="M421.9,220.3c0,0-1.1,9.7-8.8,10.5l-0.8-5.6L421.9,220.3z"/>
					<path class="st4" d="M421.6,231c0,0-0.1,4.1-5,3.8c-1.4-0.1-2.6-0.9-3.1-2.1c-0.1-0.3-0.2-0.7-0.3-1.1l0.6,3.7l3.6,1.9l2.4-1
						l1.4-1.6l1.1-1.8v-1.5L421.6,231z"/>
				</g>
				<circle class="st1" cx="416.8" cy="213.1" r="12.2"/>
				<path class="st7" d="M413.6,228.2l0.3,0c4.8,0,8.7-3.8,8.8-8.6l0.1-9.8c0-1.2-1-2.3-2.2-2.3l-11.4-0.1c-2.2,0-4,1.8-4.1,4
					l-0.1,8C405,224.3,408.8,228.2,413.6,228.2z"/>
				<path class="st1" d="M418.1,211.6c0,0-0.1,5,3.2,5.5c3.3,0.5,1.5-5.5,1.5-5.5H418.1z"/>
				<path class="st7" d="M419.8,217.5c0,1.6,1.3,2.9,2.9,3s2.9-1.3,3-2.9c0-1.6-1.3-2.9-2.9-3C421.2,214.5,419.9,215.8,419.8,217.5z
					"/>
				<path class="st1" d="M406.4,208.5c0,0,5.8,7,14.7,4.8c0,0,3.4-0.4,2.1-5.6C421.9,202.6,407.9,202.1,406.4,208.5z"/>
				<path class="st1" d="M407.5,208.1c0,0-3.1,0.7-2.6,7c0,0-3.7-6.5-1.7-9.6c3.2-5,9.4-1.2,9.4-1.2L407.5,208.1z"/>
			</g>
		</g>
		<g>
			<g>
				<polygon class="st1" points="457.7,275.9 476.8,350 470.4,350 446.9,275.9 				"/>
				<polygon class="st1" points="457.7,275.9 460.7,287.5 452.7,294.1 446.9,275.9 				"/>
			</g>
			<g>
				<polygon class="st1" points="367.3,275.9 348.2,350 354.6,350 378,275.9 				"/>
				<polygon class="st1" points="367.3,275.9 362.9,293 374,288.7 378,275.9 				"/>
			</g>
			
				<rect x="345.1" y="272.3" transform="matrix(-1 -1.224647e-16 1.224647e-16 -1 826.4746 549.3937)" class="st1" width="136.3" height="4.8"/>
		</g>
	</g>
	<g>
		<g>
			<path class="st5" d="M46.5,296.7h35.3c0.8,0,1.5-0.7,1.5-1.5v-5.5c0-0.8-0.7-1.5-1.5-1.5H46.5c-0.8,0-1.5,0.7-1.5,1.5v5.5
				C44.9,296.1,45.6,296.7,46.5,296.7z"/>
			
				<rect x="48.3" y="296.7" transform="matrix(-1 -1.224647e-16 1.224647e-16 -1 128.2501 595.8355)" class="st1" width="31.6" height="2.4"/>
			<polygon class="st1" points="78.9,299.1 83.9,350 78.9,350 73.4,299.1 			"/>
			<polygon class="st1" points="50.6,299.1 45.7,350 50.6,350 56.1,299.1 			"/>
			
				<rect x="50.9" y="322.6" transform="matrix(-1 -1.224647e-16 1.224647e-16 -1 129.5372 647.9781)" class="st1" width="27.8" height="2.7"/>
		</g>
		<g>
			<g>
				<g>
					<g>
						<g>
							<path class="st1" d="M93.1,334.5l3.2,5.2l3.7,2.3c1.7,1.1,2.5,3.2,2,5.1l-0.3,0.9l-22.5-8.5l4-8.7L93.1,334.5z"/>
							<path class="st1" d="M79.2,339.7l22.6,8.6l0.5-1.4c0.1-0.3,0-0.6-0.3-0.7l-22.1-8.4L79.2,339.7"/>
						</g>
						<polygon class="st7" points="83.3,330.8 88.8,317.2 99.2,321.1 93.1,334.5 						"/>
					</g>
					<path class="st12" d="M95.8,269.6c0,0,21.9-1.1,20,7.3c-1.9,8.4-16.1,54-16.1,54l-15.6-4.7l11.1-37.3l-26.9-10.1L95.8,269.6z"
						/>
				</g>
				<g>
					<g>
						<g>
							<path class="st1" d="M101.9,338.4l4.8,3.7l4.3,0.9c2,0.4,3.5,2.1,3.7,4.1l0.1,0.9l-24,0l0.7-9.6L101.9,338.4z"/>
							<path class="st1" d="M90.7,348.1l24.2,0l0-1.5c0-0.3-0.2-0.5-0.5-0.5l-23.7,0L90.7,348.1"/>
						</g>
						<polygon class="st7" points="91.4,338.4 91.8,323.7 102.8,323.7 101.9,338.4 						"/>
					</g>
					<path class="st13" d="M75,275.2l28.2,1.3c0,0,4.1,0.2,3.8,9.7c-0.3,9.5-2.8,47.8-2.8,47.8l-13.6,0.5l0-40.1L62.4,294
						c-6-0.1-11.5-3.5-13.9-9c-0.9-2.1-1.3-4.4-0.8-6.9L75,275.2z"/>
				</g>
			</g>
			<g>
				<g>
					<g>
						<g>
							<path class="st14" d="M101.8,269.5c0,2.7,1.8,3.1,4.5,3.1c2.7,0,5.2-0.4,5.2-3.1c0-2.7-2.2-4.9-4.8-4.9
								C104,264.7,101.9,266.8,101.8,269.5z"/>
							<path class="st14" d="M98.4,272.2l5.6,0c1.5,0,2.7-1.2,2.7-2.7l0,0c0-1.5-1.2-2.7-2.7-2.7l-5.6,0c-1.5,0-2.7,1.2-2.7,2.7l0,0
								C95.8,271,97,272.2,98.4,272.2z"/>
						</g>
						<path class="st2" d="M98.7,272.8l1.9-9.2l-23.1-2.5l-4.6-27.6c-0.5-2.4-3.4-5-5.8-4.6l0,0c-2.4,0.5-4.7,3.3-4.2,5.8l4.5,32.2
							c0.3,1.7,1.6,3.1,3.4,3.5L98.7,272.8z"/>
					</g>
					<g>
						<path class="st2" d="M52.6,229.7c-0.5,0-0.9,0.1-1.4,0.3l-0.2,0.1c-4,1.5-6.6,5.8-6.8,9.8l3.6,38.2c23.9-0.2,27.3-3,27.3-3
							l-1.9-39.1c-0.3-3.7-2-7.2-6.2-7.5l0,0L52.6,229.7z"/>
						<polygon class="st2" points="55.1,244.5 54.5,262.1 78,266.6 57.3,260.1 						"/>
					</g>
					<g>
						<g>
							<g>
								<path class="st7" d="M78.9,272.5c-0.2,2.7,1.6,3.2,4.3,3.4c2.7,0.2,5.2,0,5.4-2.7c0.2-2.7-1.8-5-4.5-5.2
									C81.4,267.8,79.1,269.8,78.9,272.5z"/>
								<path class="st7" d="M75.3,275l5.6,0.4c1.5,0.1,2.7-1,2.8-2.5l0,0c0.1-1.5-1-2.7-2.5-2.8l-5.6-0.4c-1.5-0.1-2.7,1-2.8,2.5
									l0,0C72.7,273.6,73.9,274.9,75.3,275z"/>
							</g>
							<path class="st2" d="M75.5,275.6l2.5-9l-25.1-4l1.4-23.4c-0.3-2.5-3-5.3-5.5-5l0,0c-2.5,0.3-4.9,3-4.6,5.5l-1.8,28
								c0.2,1.8,1.4,3.2,3.1,3.8L75.5,275.6z"/>
						</g>
					</g>
				</g>
				<g>
					<path class="st1" d="M119,244.5l-27.4,2.6c-0.9,0.1-1.6,0.8-1.7,1.7L87,273.5c-0.1,1.2,0.9,2.2,2.1,2.1l27.9-2.6
						c0.9-0.1,1.6-0.8,1.7-1.7l2.4-24.7C121.2,245.4,120.2,244.4,119,244.5z"/>
					<path class="st1" d="M120.6,244.4L93.1,247c-0.9,0.1-1.6,0.8-1.7,1.7l-2.9,24.7c-0.1,1.2,0.9,2.2,2.1,2.1l27.9-2.6
						c0.9-0.1,1.6-0.8,1.7-1.7l2.4-24.7C122.8,245.3,121.8,244.3,120.6,244.4z"/>
					<path class="st1" d="M87.7,273.7L69,275.5c-0.6,0.1-1,0.6-0.9,1.1l0,0c0.1,0.6,0.6,1,1.1,0.9l19.9-1.8L87.7,273.7z"/>
					<path class="st4" d="M104.8,259.4c0.2,1.6,1.6,2.9,3.3,2.7c1.7-0.2,2.9-1.6,2.7-3.3c-0.2-1.6-1.6-2.9-3.3-2.7
						C105.9,256.3,104.7,257.7,104.8,259.4z"/>
				</g>
			</g>
			<g>
				<g>
					<g>
						<g>
							<path class="st7" d="M55.8,229.7l-0.4-12.8l9.2-0.2l0.4,12.8c0.1,2.5-1.5,3.1-4,3.2l-0.7-0.1
								C57.7,232.6,55.9,232.2,55.8,229.7z"/>
						</g>
						<path class="st8" d="M55.1,217.6c0,0,1.3,10.9,9.8,10.5l-0.2-5.5L55.1,217.6z"/>
					</g>
				</g>
				<path class="st2" d="M68.9,204.4c0,0,4.5,3.6,0,11.3l-4.6-9.7L68.9,204.4z"/>
				<path class="st7" d="M63.3,225.5l-0.3,0c-4.5,0.5-8.6-2.7-9.1-7.2l-1.1-9.2c-0.1-1.2,0.7-2.2,1.9-2.4l10.8-1.3
					c2.1-0.2,4,1.2,4.2,3.3l0.9,7.6C71,220.9,67.8,225,63.3,225.5z"/>
				<path class="st2" d="M53.8,217L53.8,217c2-0.2,2.8-1.9,3-3.1c0.5-3.5-0.9-5.8-0.7-5.8c6.1,0.1,14.3-1.3,15.3-5.6
					c1-4.3-4.7-10.5-10.1-6.8c-4.7,3.2-11.3,6.9-11.3,6.9c-3.6,1.6-7.7,13.9,4.5,18C54.5,220.8,53.5,218.1,53.8,217z"/>
				<path class="st7" d="M55.7,215.3c0.2,1.6-1,3.1-2.6,3.3c-1.6,0.2-3.1-1-3.3-2.6c-0.2-1.6,1-3.1,2.6-3.3
					C54,212.5,55.5,213.7,55.7,215.3z"/>
			</g>
		</g>
	</g>
</g>
</svg>
