<?xml version="1.0" encoding="utf-8"?>
<!-- Generator: Adobe Illustrator 19.0.0, SVG Export Plug-In . SVG Version: 6.00 Build 0)  -->
<svg version="1.1" id="Warstwa_1" xmlns="http://www.w3.org/2000/svg" xmlns:xlink="http://www.w3.org/1999/xlink" x="0px" y="0px"
	 viewBox="-319 145 640 512" style="enable-background:new -319 145 640 512;" xml:space="preserve">
<style type="text/css">
	.st0{fill:#00D1B2;}
</style>
<path class="st0" d="M-127,401c61.9,0,112-50.1,112-112s-50.1-112-112-112s-112,50.1-112,112S-188.9,401-127,401z M-50.2,433h-8.3
	c-20.8,10-43.9,16-68.5,16s-47.6-6-68.5-16h-8.3c-63.6,0-115.2,51.6-115.2,115.2V577c0,26.5,21.5,48,48,48H17c26.5,0,48-21.5,48-48
	v-28.8C65,484.6,13.4,433-50.2,433z M161,401c53,0,96-43,96-96s-43-96-96-96s-96,43-96,96S108,401,161,401z M209,433h-3.8
	c-13.9,4.8-28.6,8-44.2,8s-30.3-3.2-44.2-8H113c-20.4,0-39.2,5.9-55.7,15.4C81.7,474.7,97,509.6,97,548.2v38.4
	c0,2.2-0.5,4.3-0.6,6.4H273c26.5,0,48-21.5,48-48C321,483.1,270.9,433,209,433z"/>
</svg>
