<?xml version="1.0" encoding="utf-8"?>
<!-- Generator: Adobe Illustrator 19.0.0, SVG Export Plug-In . SVG Version: 6.00 Build 0)  -->
<svg version="1.1" id="Warstwa_1" xmlns="http://www.w3.org/2000/svg" xmlns:xlink="http://www.w3.org/1999/xlink" x="0px" y="0px"
	 viewBox="-7 0 496 512" style="enable-background:new -7 0 496 512;" xml:space="preserve">
<style type="text/css">
	.st0{fill:#00D1B2;}
</style>
<path class="st0" d="M241,8C104,8-7,119-7,256s111,248,248,248s248-111,248-248S378,8,241,8z M360.8,168.9l-40.7,191.8
	c-3,13.6-11.1,16.9-22.4,10.5l-62-45.7l-29.9,28.8c-3.3,3.3-6.1,6.1-12.5,6.1l4.4-63.1l114.9-103.8c5-4.4-1.1-6.9-7.7-2.5l-142,89.4
	l-61.2-19.1c-13.3-4.2-13.6-13.3,2.8-19.7l239.1-92.2C354.7,145.4,364.4,152.1,360.8,168.9z"/>
</svg>
