<?xml version="1.0" encoding="utf-8"?>
<!-- Generator: Adobe Illustrator 19.0.0, SVG Export Plug-In . SVG Version: 6.00 Build 0)  -->
<svg version="1.1" id="Warstwa_1" xmlns="http://www.w3.org/2000/svg" xmlns:xlink="http://www.w3.org/1999/xlink" x="0px" y="0px"
	 viewBox="0 0 512 512" style="enable-background:new 0 0 512 512;" xml:space="preserve">
<style type="text/css">
	.st0{fill:#00D1B2;}
</style>
<g>
	<path class="st0" d="M256,8C119,8,8,119,8,256s111,248,248,248s248-111,248-248S393,8,256,8z M378.5,199c0.2,2.7,0.2,5.4,0.2,8.1
		c0,82.6-62.9,177.7-177.7,177.7c-35.4,0-68.3-10.2-95.9-28c5,0.6,9.8,0.8,15.1,0.8c29.2,0,56.1-9.8,77.6-26.7
		c-27.5-0.6-50.5-18.6-58.4-43.4c3.9,0.6,7.8,0.9,11.8,0.9c5.6,0,11.2-0.8,16.5-2.1c-28.6-5.8-50.1-31-50.1-61.3v-0.8
		c8.3,4.6,18,7.6,28.2,8c-16.9-11.2-27.8-30.4-27.8-52c0-11.6,3.1-22.3,8.5-31.5c30.8,37.9,77,62.7,128.8,65.3
		c-0.9-4.6-1.5-9.5-1.5-14.3c0-34.5,27.8-62.5,62.5-62.5c18,0,34.3,7.6,45.6,19.7c14.1-2.7,27.7-8,39.7-15.1
		c-4.6,14.5-14.5,26.7-27.5,34.5c12.6-1.3,24.7-4.8,36-9.7C401.3,179.1,390.7,190.1,378.5,199z"/>
</g>
</svg>
