<?xml version="1.0" encoding="utf-8"?>
<!-- Generator: Adobe Illustrator 25.2.0, SVG Export Plug-In . SVG Version: 6.00 Build 0)  -->
<svg version="1.1" id="Warstwa_1" xmlns="http://www.w3.org/2000/svg" xmlns:xlink="http://www.w3.org/1999/xlink" x="0px" y="0px"
	 viewBox="0 0 1980 1080" style="enable-background:new 0 0 1980 1080;" xml:space="preserve">
<style type="text/css">
	.st0{clip-path:url(#SVGID_2_);}
	.st1{clip-path:url(#SVGID_4_);fill:url(#SVGID_5_);}
	.st2{fill:#FFFFFF;}
	.st3{clip-path:url(#SVGID_2_);fill:#FFFFFF;}
</style>
<g>
	<defs>
		<rect id="SVGID_1_" width="1980" height="1080"/>
	</defs>
	<clipPath id="SVGID_2_">
		<use xlink:href="#SVGID_1_"  style="overflow:visible;"/>
	</clipPath>
	<g class="st0">
		<defs>
			<rect id="SVGID_3_" width="1980" height="1080"/>
		</defs>
		<clipPath id="SVGID_4_">
			<use xlink:href="#SVGID_3_"  style="overflow:visible;"/>
		</clipPath>
		
			<linearGradient id="SVGID_5_" gradientUnits="userSpaceOnUse" x1="-2640.262" y1="-2159.2266" x2="-2636.4492" y2="-2159.2266" gradientTransform="matrix(526.5874 0 0 -526.5874 1390269.25 -1136383.375)">
			<stop  offset="0" style="stop-color:#379E6E"/>
			<stop  offset="1" style="stop-color:#72C6D4"/>
		</linearGradient>
		<rect x="-59.4" y="-357.8" class="st1" width="2089.4" height="1992"/>
	</g>
	<g class="st0">
		<path class="st2" d="M298.2,692c39.4-0.4,76.6-15.9,104.9-43.7c28.3-27.8,44.5-64.8,45.5-104.2c0.8-29.8-7.1-58.8-22.7-84
			c-2-3.3-5.7-5.3-9.6-5.3c-4.2,0-7.9,2.2-9.9,5.8c-2,3.7-1.9,8,0.3,11.6c13.7,22.1,20.3,47.5,19.2,73.6
			c-2.8,63.9-59.1,120.4-123,123.4c-36.3,1.7-71.9-12-97.6-37.8c-25.7-25.7-39.5-61.3-37.8-97.6c3-63.9,59.5-120.2,123.4-123
			c26.1-1.1,51.5,5.5,73.6,19.2c3.6,2.2,7.9,2.3,11.6,0.3c3.6-2,5.8-5.7,5.8-9.9c0-3.9-2-7.6-5.3-9.6c-25.2-15.6-54.3-23.5-84-22.7
			c-39.4,1.1-76.3,17.2-104.2,45.5s-43.3,65.6-43.7,104.9c-0.4,41.1,15.4,79.8,44.6,108.9C218,676.2,256.2,692,296.7,692
			C297.2,692,297.7,692,298.2,692"/>
		<path class="st2" d="M296.7,448.4c-5.2,0-9,2.7-11.3,8l-57.4,137.2c-1.8,4.1-1.6,8.1,0.7,11.7c2.3,3.7,5.7,5.6,10,5.6
			c2.2,0,4.3-0.6,6.3-1.8c2.1-1.2,3.7-3.1,4.8-5.6l17.2-42.1h59.8l16.9,42.1c0.9,2.3,2.5,4.2,4.5,5.5c2.1,1.3,4.3,1.9,6.6,1.9
			c4.4,0,7.8-1.8,10.1-5.2c2.2-3.5,2.5-7.3,0.8-11.6L308,456.5C306,451.1,302.2,448.4,296.7,448.4 M274.7,542.3l22.3-54.5l22,54.5
			H274.7z"/>
		<path class="st2" d="M591.2,550.5c1.7-2.6,1.9-5.5,0.6-8.7l-40.2-95.8c-1.5-3.9-4.4-6-8.5-6c-3.9,0-6.8,2.1-8.5,6l-40,95.6
			c-1.4,3.1-1.2,6,0.5,8.8c1.7,2.7,4.3,4.2,7.5,4.2c1.6,0,3.2-0.5,4.8-1.4c1.6-0.9,2.8-2.3,3.6-4.2l11.8-28.9h40.7l11.6,28.9
			c0.7,1.8,1.9,3.1,3.4,4.1c1.5,1,3.2,1.5,4.9,1.5C586.9,554.5,589.5,553.1,591.2,550.5 M528.9,505.3l14.5-35.5l14.3,35.5H528.9z"/>
		<path class="st2" d="M624.5,491.3c3.8-1.7,8.4-2.5,13.6-2.4c1.4,0.1,2.6-0.1,3.7-0.6c1.2-0.5,2.1-1.3,2.9-2.4
			c0.8-1.1,1.1-2.5,1.1-4.2c0.1-2.3-0.7-5.4-5-7.5c-3.2-1.5-7.3-1.7-12.7-0.7c-4.3,0.8-8.2,2.6-11.6,5.2c-0.3-1.8-1-3.3-2.1-4.4
			c-1.5-1.5-3.7-2.3-6.5-2.3c-2.7,0-4.9,0.8-6.4,2.3c-1.5,1.6-2.3,3.7-2.3,6.4l0,64.8c0,2.8,0.8,5,2.4,6.5c1.5,1.5,3.7,2.2,6.4,2.2
			c2.8,0,5-0.8,6.5-2.4c1.5-1.5,2.2-3.7,2.2-6.4v-47.9C618.4,495.1,621,492.9,624.5,491.3"/>
		<path class="st2" d="M696.5,536.9h-4.8c-2.5,0-4.6-1.1-6.4-3.2c-1.9-2.3-2.8-5.1-2.8-8.5v-35.6h11.1c2.4,0,4.4-0.7,6-2.2
			c1.6-1.5,2.4-3.3,2.4-5.5c0-2.4-0.8-4.3-2.4-5.8c-1.5-1.4-3.5-2.1-6-2.1h-11.1v-16.8c0-2.5-0.8-4.6-2.5-6.3
			c-1.7-1.6-3.8-2.5-6.3-2.5c-2.5,0-4.7,0.8-6.3,2.5c-1.6,1.6-2.5,3.8-2.5,6.3V474h-4.2c-2.4,0-4.4,0.7-6,2.1
			c-1.6,1.5-2.4,3.4-2.4,5.8c0,2.2,0.8,4,2.4,5.5c1.5,1.4,3.5,2.2,6,2.2h4.2v35.6c0,5.5,1.2,10.5,3.5,14.9c2.3,4.4,5.5,8,9.6,10.5
			c4,2.6,8.7,3.9,13.7,3.9h2.6c2.9,0,5.3-0.8,7.1-2.4c1.9-1.7,2.9-3.8,2.9-6.4c0-2.5-0.7-4.6-2.2-6.2
			C700.6,537.8,698.7,536.9,696.5,536.9"/>
		<path class="st2" d="M938.2,534.3c3.3-6.2,5-13.2,5-20.9c0-7.8-1.8-14.8-5.4-21.1c-3.6-6.2-8.5-11.2-14.6-14.8
			c-6.1-3.6-13.2-5.4-20.9-5.4c-7.7,0-14.7,1.8-20.8,5.4c-6.1,3.6-11,8.6-14.6,14.8c-3.5,6.2-5.4,13.3-5.5,21v65
			c0,2.5,0.9,4.7,2.6,6.4c1.7,1.7,3.8,2.6,6.4,2.6c2.6,0,4.8-0.9,6.5-2.6c1.6-1.7,2.5-3.8,2.5-6.3V544c2.8,2.7,6.1,5,9.7,6.8
			c4.9,2.4,10.4,3.7,16.2,3.7c7.2,0,13.8-1.8,19.5-5.5C930.3,545.4,934.9,540.5,938.2,534.3 M922.8,526.2c-2.1,3.8-4.9,6.8-8.5,8.9
			c-3.5,2.2-7.6,3.2-12.1,3.2c-4.4,0-8.5-1.1-12-3.3c-3.6-2.2-6.4-5.2-8.4-8.9c-2-3.8-3.1-8.1-3.1-12.8c0-4.8,1-9.2,3.1-13
			c2-3.8,4.9-6.8,8.4-8.9c3.6-2.2,7.6-3.3,12-3.3c4.5,0,8.6,1.1,12.1,3.2c3.5,2.2,6.4,5.2,8.5,8.9c2.1,3.8,3.1,8.1,3.1,12.9
			C925.9,518.1,924.9,522.4,922.8,526.2"/>
		<path class="st2" d="M1020.1,539.6c-0.1-2.2-1.2-4.1-3.1-5.9c-1.5-1.3-3.4-2-5.5-1.9c-2,0.1-3.9,0.7-5.6,2c-1.8,1.3-4.1,2.5-7,3.5
			c-2.9,1-5.8,1.5-8.5,1.5c-5.1,0-9.7-1.1-13.6-3.3c-3.9-2.2-7-5.3-9.2-9.1c-1.2-2-2-4.2-2.6-6.5h52.2c2.3,0,4.3-0.7,5.8-2.2
			c1.6-1.5,2.4-3.4,2.4-5.7c0-7.7-1.5-14.6-4.4-20.6c-2.9-6-7.2-10.8-12.8-14.2c-5.6-3.4-12.3-5.2-20-5.2c-7.8,0-14.8,1.8-20.8,5.3
			c-6,3.5-10.8,8.4-14.2,14.6c-3.4,6.2-5.1,13.3-5.1,21.4c0,8,1.8,15.1,5.4,21.3c3.6,6.2,8.7,11.1,15,14.6
			c6.3,3.5,13.7,5.3,21.8,5.3c4.5,0,9.3-0.8,14.3-2.5c5-1.7,9.2-3.9,12.5-6.5C1019.8,543.5,1020.2,541.2,1020.1,539.6 M967.1,500.1
			c1.8-3.8,4.6-6.9,8.1-9.1c3.6-2.2,7.9-3.3,13-3.3c4.4,0,8.2,1,11.2,3c3.1,2,5.5,4.8,7.1,8.2c0.9,1.9,1.6,4.1,2.1,6.4h-43.4
			C965.7,503.4,966.4,501.7,967.1,500.1"/>
		<path class="st2" d="M1082.2,497.9c1.8,3.2,2.8,7.4,2.8,12.5v35.2c0,2.5,0.9,4.7,2.5,6.4c1.7,1.7,3.8,2.6,6.4,2.6
			c2.5,0,4.7-0.9,6.4-2.6c1.7-1.7,2.5-3.8,2.5-6.4v-35.2c0-8.2-1.6-15.2-4.7-20.8c-3.1-5.7-7.5-10.1-12.9-13
			c-5.4-2.9-11.6-4.4-18.4-4.4c-6.5,0-12.5,1.5-17.7,4.4c-0.6,0.3-1.2,0.7-1.8,1c-0.4-0.8-0.9-1.5-1.6-2.2c-1.6-1.7-3.8-2.5-6.4-2.5
			c-2.5,0-4.7,0.8-6.4,2.5c-1.7,1.7-2.6,3.8-2.6,6.5v63.8c0,2.5,0.9,4.7,2.5,6.4c1.7,1.7,3.8,2.6,6.4,2.6c2.6,0,4.8-0.9,6.5-2.6
			c1.6-1.7,2.5-3.8,2.5-6.4v-50.5c1.6-1.7,3.5-3.2,5.7-4.3c3-1.5,6.4-2.3,10.1-2.3c4.1,0,7.7,0.8,10.9,2.3
			C1077.9,492.4,1080.4,494.8,1082.2,497.9"/>
		<path class="st2" d="M840.8,454.4L840.8,454.4c-5.3-5.3-11.5-9.5-18.7-12.4c-7.2-2.9-15.2-4.4-23.8-4.4c-8.6,0-16.7,1.5-23.9,4.4
			c-7.2,2.9-13.5,7.1-18.7,12.4c-5.2,5.3-9.3,11.6-12.1,18.8c-2.9,7.2-4.3,15.2-4.3,23.8c0,8.6,1.4,16.7,4.3,23.9
			c2.9,7.3,6.9,13.6,12.1,18.9c5.2,5.3,11.5,9.5,18.7,12.4c7.2,2.9,15.2,4.4,23.9,4.4c8.6,0,16.6-1.5,23.8-4.4
			c7.2-2.9,13.5-7.1,18.7-12.4c5.2-5.3,9.4-11.7,12.2-18.9c2.9-7.2,4.3-15.3,4.3-23.9c0-8.6-1.4-16.7-4.3-23.8
			C850.1,466.1,846,459.7,840.8,454.4 M835.2,513.5c-1.9,5-4.7,9.4-8.2,13.1c-3.6,3.7-7.8,6.6-12.7,8.7c-4.8,2.1-10.2,3.1-16,3.1
			c-5.8,0-11.2-1.1-16-3.1c-4.8-2.1-9.1-5-12.6-8.7c-3.5-3.7-6.3-8.1-8.3-13.1c-2-5-3-10.5-3-16.3c0-5.8,1-11.3,3-16.3
			c2-5,4.7-9.4,8.3-13.1c3.5-3.7,7.7-6.6,12.6-8.6c4.8-2,10.3-3.1,16.1-3.1c5.8,0,11.2,1,16.1,3.1c4.8,2,9.1,4.9,12.6,8.6
			c3.5,3.7,6.3,8.1,8.2,13.1c1.9,5,2.9,10.5,2.9,16.4C838.1,503,837.1,508.5,835.2,513.5"/>
		<path class="st2" d="M573.7,627.1c-1.8-1.5-4.4-2.6-8.1-3c-2-0.3-3.6-0.7-4.8-1.2c-1.2-0.5-2.1-1.2-2.6-2
			c-0.5-0.8-0.8-1.6-0.8-2.5c0-1.7,0.7-3,2.1-3.9c1.4-0.9,3.2-1.3,5.5-1.3c1.3,0,2.4,0.2,3.3,0.5c0.9,0.3,1.7,0.8,2.4,1.3
			c0.7,0.5,1.2,1.1,1.6,1.7c0.2,0.4,0.6,0.6,1,0.8c0.4,0.1,0.9,0.1,1.3-0.1c0.4-0.2,0.7-0.5,0.8-0.9c0.1-0.4,0-0.8-0.3-1.2
			c-0.6-0.9-1.4-1.7-2.4-2.5c-1-0.8-2.1-1.4-3.4-1.8c-1.3-0.5-2.7-0.7-4.3-0.7c-2.1,0-4,0.3-5.7,1c-1.7,0.6-2.9,1.6-3.9,2.8
			c-0.9,1.2-1.4,2.6-1.4,4.2c0,2.3,1,4.2,2.9,5.7c1.9,1.6,4.6,2.5,7.9,2.9c2.8,0.3,4.8,1.1,6.1,2.2c1.3,1.2,2,2.6,2,4.2
			c0,1.3-0.3,2.4-1,3.2c-0.7,0.9-1.6,1.6-2.8,2c-1.2,0.5-2.5,0.7-4.1,0.7c-1.4,0-2.7-0.2-3.8-0.5c-1.2-0.3-2.2-0.8-3-1.4
			c-0.8-0.6-1.5-1.3-1.9-2.1c-0.2-0.4-0.5-0.7-0.9-0.8c-0.4-0.2-0.8-0.2-1.2-0.1c-0.5,0.1-0.9,0.4-1.1,0.7c-0.2,0.4-0.2,0.8,0,1.2
			c0.6,1.2,1.5,2.2,2.6,3.1c1.2,0.9,2.5,1.6,4.1,2.1c1.6,0.5,3.3,0.7,5.1,0.7c1.6,0,3-0.2,4.4-0.6c1.4-0.4,2.6-1,3.6-1.7
			c1-0.8,1.8-1.7,2.4-2.8c0.6-1.1,0.8-2.4,0.8-3.8C576.3,630.6,575.4,628.6,573.7,627.1"/>
		<path class="st2" d="M610.5,610.6h-10.3h-3.4h-10.3c-0.5,0-0.8,0.1-1.1,0.4s-0.4,0.6-0.4,1c0,0.4,0.1,0.7,0.4,1s0.7,0.4,1.1,0.4
			h10.3v26.7c0,0.4,0.2,0.8,0.5,1.1c0.3,0.3,0.7,0.5,1.2,0.5c0.5,0,0.9-0.2,1.2-0.5c0.3-0.3,0.5-0.7,0.5-1.1v-26.7h10.3
			c0.5,0,0.8-0.1,1.1-0.4c0.3-0.3,0.4-0.6,0.4-1c0-0.4-0.1-0.8-0.4-1C611.3,610.7,610.9,610.6,610.5,610.6"/>
		<path class="st2" d="M649.1,610.6c-0.5,0-0.9,0.1-1.2,0.4c-0.3,0.3-0.5,0.7-0.5,1.1v19.3c0,1.6-0.4,2.9-1.3,4.1
			c-0.9,1.2-2,2.1-3.5,2.8c-1.5,0.7-3.2,1-5.2,1c-2,0-3.7-0.3-5.3-1c-1.5-0.7-2.7-1.6-3.6-2.8c-0.9-1.2-1.3-2.6-1.3-4.1v-19.3
			c0-0.4-0.2-0.8-0.5-1.1c-0.3-0.3-0.7-0.4-1.2-0.4c-0.5,0-0.9,0.1-1.2,0.4c-0.3,0.3-0.5,0.7-0.5,1.1v19.3c0,2.1,0.6,4,1.7,5.7
			c1.1,1.6,2.7,2.9,4.8,3.9c2,0.9,4.4,1.4,7,1.4c2.6,0,4.9-0.5,6.9-1.4c2-0.9,3.6-2.2,4.7-3.9c1.1-1.7,1.7-3.5,1.7-5.7v-19.3
			c0-0.4-0.2-0.8-0.5-1.1C650.1,610.7,649.7,610.6,649.1,610.6"/>
		<path class="st2" d="M688.2,614.9c-1.5-1.4-3.3-2.5-5.4-3.2c-2.1-0.8-4.3-1.1-6.8-1.1h-7.8c-0.5,0-0.9,0.1-1.2,0.4
			c-0.3,0.3-0.5,0.7-0.5,1.1v28c0,0.4,0.2,0.8,0.5,1.1c0.3,0.3,0.7,0.4,1.2,0.4h7.8c2.5,0,4.8-0.4,6.8-1.1c2.1-0.8,3.9-1.8,5.4-3.2
			c1.5-1.4,2.7-3,3.5-4.9c0.8-1.9,1.2-4,1.2-6.3c0-2.3-0.4-4.4-1.2-6.3C690.8,618,689.7,616.3,688.2,614.9 M687.8,632.7
			c-1.2,1.9-2.8,3.4-4.8,4.5s-4.4,1.7-7.1,1.7h-6.1v-25.5h6.1c2.7,0,5,0.5,7.1,1.6c2,1.1,3.6,2.6,4.8,4.5c1.2,1.9,1.7,4.1,1.7,6.6
			C689.5,628.6,689,630.8,687.8,632.7"/>
		<path class="st2" d="M708.5,610.6c-0.5,0-0.9,0.1-1.2,0.4c-0.3,0.3-0.5,0.7-0.5,1.1v28c0,0.4,0.2,0.8,0.5,1.1
			c0.3,0.3,0.7,0.4,1.2,0.4c0.5,0,0.9-0.1,1.2-0.4c0.3-0.3,0.5-0.7,0.5-1.1v-28c0-0.4-0.2-0.8-0.5-1.1
			C709.4,610.7,709,610.6,708.5,610.6"/>
		<path class="st2" d="M753.9,614.7c-1.6-1.4-3.4-2.5-5.5-3.3c-2.1-0.8-4.4-1.2-6.9-1.2c-2.5,0-4.8,0.4-6.9,1.2
			c-2.1,0.8-3.9,1.9-5.5,3.3c-1.5,1.4-2.8,3.1-3.6,5.1c-0.9,1.9-1.3,4-1.3,6.3c0,2.3,0.4,4.4,1.3,6.4c0.9,1.9,2.1,3.6,3.6,5.1
			c1.5,1.4,3.4,2.6,5.5,3.3c2.1,0.8,4.4,1.2,6.9,1.2c2.5,0,4.8-0.4,6.9-1.2c2.1-0.8,3.9-1.9,5.5-3.3c1.6-1.4,2.8-3.1,3.6-5.1
			c0.9-1.9,1.3-4.1,1.3-6.4c0-2.3-0.4-4.4-1.3-6.3C756.7,617.9,755.5,616.2,753.9,614.7 M754.4,631.3c-0.7,1.6-1.7,3-2.9,4.1
			c-1.3,1.2-2.7,2.1-4.4,2.7c-1.7,0.6-3.6,1-5.6,1c-2,0-3.9-0.3-5.6-1c-1.7-0.7-3.2-1.6-4.4-2.7c-1.3-1.2-2.2-2.6-2.9-4.1
			c-0.7-1.6-1-3.3-1-5.2c0-1.8,0.3-3.5,1-5.1c0.7-1.6,1.7-3,2.9-4.1c1.3-1.2,2.7-2.1,4.4-2.7c1.7-0.6,3.6-1,5.6-1c2,0,3.8,0.3,5.6,1
			c1.7,0.6,3.2,1.6,4.4,2.7c1.3,1.2,2.2,2.6,2.9,4.1c0.7,1.6,1,3.3,1,5.1C755.5,628,755.1,629.7,754.4,631.3"/>
		<path class="st2" d="M806.5,628.9c0.5-0.2,0.9-0.3,1.4-0.6c1.7-0.8,2.9-1.9,3.9-3.3c0.9-1.4,1.4-3,1.4-4.8c0-1.9-0.5-3.5-1.4-5
			c-0.9-1.4-2.2-2.6-3.9-3.4c-1.7-0.8-3.5-1.2-5.6-1.2h-8.1c-0.5,0-0.9,0.1-1.2,0.4c-0.3,0.3-0.5,0.7-0.5,1.1v28
			c0,0.5,0.2,0.8,0.5,1.1c0.3,0.3,0.7,0.4,1.2,0.4c0.5,0,0.9-0.1,1.2-0.4c0.3-0.3,0.5-0.7,0.5-1.1v-10.6h6.4c0.3,0,0.5,0,0.7,0
			l7.8,11.4c0.2,0.3,0.4,0.5,0.6,0.6c0.2,0.1,0.5,0.2,0.9,0.2c0.8,0,1.3-0.2,1.6-0.7c0.3-0.5,0.2-1-0.2-1.7L806.5,628.9z
			 M802.2,626.5h-6.4v-12.9h6.4c1.5,0,2.8,0.3,3.9,0.8c1.1,0.6,2,1.3,2.7,2.3c0.7,1,1,2.1,1,3.4c0,1.2-0.3,2.3-1,3.3
			c-0.7,1-1.6,1.7-2.7,2.3C805,626.2,803.7,626.5,802.2,626.5"/>
		<path class="st2" d="M848.2,613.6c0.5,0,0.9-0.1,1.2-0.4c0.3-0.3,0.5-0.6,0.5-1c0-0.5-0.2-0.8-0.5-1.1c-0.3-0.3-0.7-0.4-1.2-0.4
			h-20.4c-0.5,0-0.9,0.1-1.2,0.4c-0.3,0.3-0.5,0.7-0.5,1.1v28c0,0.4,0.2,0.8,0.5,1.1c0.3,0.3,0.7,0.4,1.2,0.4h20.4
			c0.5,0,0.9-0.1,1.2-0.4c0.3-0.3,0.5-0.6,0.5-1.1c0-0.4-0.2-0.7-0.5-1c-0.3-0.3-0.7-0.4-1.2-0.4h-18.7v-11.1h13.6
			c0.5,0,0.9-0.1,1.2-0.4c0.3-0.3,0.5-0.7,0.5-1.1c0-0.4-0.2-0.8-0.5-1.1c-0.3-0.3-0.7-0.4-1.2-0.4h-13.6v-11H848.2z"/>
		<path class="st2" d="M885.3,612.1c0-0.4-0.1-0.8-0.4-1.1c-0.3-0.3-0.7-0.4-1.2-0.4c-0.3,0-0.5,0-0.7,0.1c-0.2,0.1-0.4,0.2-0.7,0.4
			l-15.8,14.5v-13.5c0-0.4-0.2-0.8-0.5-1.1c-0.3-0.3-0.7-0.5-1.2-0.5c-0.5,0-0.9,0.2-1.2,0.5c-0.3,0.3-0.5,0.7-0.5,1.1v28
			c0,0.4,0.2,0.8,0.5,1.1c0.3,0.3,0.7,0.5,1.2,0.5c0.5,0,0.9-0.2,1.2-0.5c0.3-0.3,0.5-0.7,0.5-1.1v-10.2l3.9-3.6l11.8,14.7
			c0.3,0.5,0.8,0.7,1.4,0.7c0.4,0,0.8-0.1,1-0.4s0.5-0.6,0.5-1c0-0.4-0.1-0.7-0.3-1.1l-12-15.1l11.9-10.9
			C885.1,612.9,885.3,612.5,885.3,612.1"/>
		<path class="st2" d="M918.9,638.7h-17v-26.6c0-0.4-0.2-0.8-0.5-1.1c-0.3-0.3-0.7-0.5-1.2-0.5c-0.5,0-0.9,0.2-1.2,0.5
			c-0.3,0.3-0.5,0.7-0.5,1.1v28c0,0.4,0.2,0.8,0.5,1.1c0.3,0.3,0.7,0.4,1.2,0.4h18.7c0.5,0,0.9-0.1,1.2-0.4c0.3-0.3,0.5-0.6,0.5-1.1
			c0-0.4-0.2-0.8-0.5-1.1C919.8,638.9,919.4,638.7,918.9,638.7"/>
		<path class="st2" d="M945.6,611.7c-0.3-0.7-0.9-1.1-1.6-1.1c-0.8,0-1.3,0.4-1.7,1.1l-12.8,27.8c-0.2,0.5-0.2,1,0.1,1.5
			c0.3,0.5,0.8,0.8,1.4,0.8c0.3,0,0.7-0.1,0.9-0.2c0.3-0.2,0.5-0.4,0.6-0.7l2.9-6.4h16.8l2.9,6.4c0.2,0.3,0.4,0.6,0.7,0.7
			c0.3,0.2,0.6,0.2,0.9,0.2c0.6,0,1.1-0.2,1.4-0.7c0.3-0.5,0.4-1,0.1-1.5L945.6,611.7z M936.8,631.6l7.2-15.9l7.2,15.9H936.8z"/>
		<path class="st2" d="M1002.7,610.6c-0.7,0-1.2,0.3-1.5,0.8l-13.6,25.3l-13.9-25.3c-0.3-0.5-0.8-0.8-1.5-0.8
			c-0.5,0-0.9,0.1-1.2,0.4c-0.3,0.3-0.5,0.7-0.5,1.1v28c0,0.4,0.2,0.8,0.5,1.1c0.3,0.3,0.7,0.5,1.2,0.5c0.5,0,0.9-0.2,1.2-0.5
			c0.3-0.3,0.5-0.7,0.5-1.1V618l12,22.1c0.3,0.6,0.8,1,1.6,1c0.7,0,1.2-0.3,1.5-0.8l12.1-22.6v22.6c0,0.4,0.2,0.8,0.5,1.1
			c0.3,0.3,0.7,0.5,1.2,0.5c0.5,0,0.9-0.2,1.2-0.5c0.3-0.3,0.5-0.7,0.5-1.1v-28c0-0.4-0.2-0.8-0.5-1.1
			C1003.5,610.7,1003.2,610.6,1002.7,610.6"/>
		<path class="st2" d="M1042.1,610.6c-0.3,0-0.6,0.1-0.9,0.2c-0.2,0.1-0.5,0.3-0.7,0.6l-10.8,15.9l-10.8-16
			c-0.2-0.2-0.4-0.4-0.6-0.6c-0.2-0.1-0.5-0.2-0.8-0.2c-0.4,0-0.8,0.1-1.1,0.4c-0.3,0.2-0.5,0.5-0.5,0.9c-0.1,0.4,0,0.8,0.3,1.2
			l11.8,17.2v10c0,0.4,0.2,0.8,0.5,1.1c0.3,0.3,0.7,0.5,1.2,0.5c0.5,0,0.9-0.2,1.2-0.5c0.3-0.3,0.5-0.7,0.5-1.1v-10l11.8-17.2
			c0.3-0.4,0.4-0.7,0.3-1.1c0-0.4-0.2-0.7-0.5-0.9C1042.8,610.7,1042.5,610.6,1042.1,610.6"/>
		<path class="st2" d="M1101.9,625h-34.4c-0.5,0-0.9,0.5-0.9,1.2c0,0.7,0.4,1.2,0.9,1.2h34.4c0.5,0,0.9-0.5,0.9-1.2
			C1102.8,625.6,1102.4,625,1101.9,625"/>
		<path class="st2" d="M529,625h-34.4c-0.5,0-0.9,0.5-0.9,1.2c0,0.7,0.4,1.2,0.9,1.2H529c0.5,0,0.9-0.5,0.9-1.2
			C529.9,625.6,529.5,625,529,625"/>
	</g>
	<g class="st0">
		<path class="st2" d="M1451.8,946.1c0-1.1,0-2.3,0-3.4c0.8-91.1,36.8-177.4,101.1-242.9c64.4-65.5,150-102.9,241.1-105.3
			c68.8-1.9,136.1,16.3,194.5,52.5c8,4.9,12.9,13.9,12.9,23.3c0,10.1-5.3,19.1-14.1,24c-8.9,5-19.4,4.7-28.1-0.7
			c-50.6-31.3-109-46.5-168.9-43.9c-146.5,6.4-276.2,135.6-283.1,282.1c-0.2,4.6-0.3,9.3-0.3,13.9c0,78.5,31.3,154.4,87,210.1
			c59,59,140.7,90.6,224,86.7c146.5-6.9,275.7-136.6,282.1-283.1c2.5-59.9-12.6-118.2-43.9-168.9c-5.4-8.7-5.6-19.2-0.7-28.1
			c4.9-8.8,13.9-14.1,24-14.1c9.5,0,18.4,4.9,23.4,12.9c36.2,58.3,54.4,125.6,52.5,194.5c-2.4,91.1-39.9,176.7-105.4,241.1
			c-65.5,64.4-151.8,100.3-242.9,101.1l-3.4,0c-93.8,0-182.1-36.6-248.6-103.1C1488.3,1128.1,1451.8,1039.9,1451.8,946.1
			 M1998.5,670.3c0-8.5-4.4-16.5-11.5-20.9c-58-36-124.6-54-192.9-52.1c-90.4,2.4-175.3,39.5-239.1,104.5
			c-63.8,65-99.4,150.5-100.3,240.9c0,1.1,0,2.3,0,3.4c0,93.1,36.3,180.5,102.3,246.6c66,66,153.5,102.3,246.6,102.3l3.4,0
			c90.4-0.9,176-36.5,240.9-100.3c65-63.8,102.1-148.7,104.5-239.1c1.9-68.4-16.2-135-52.1-192.9c-4.4-7.1-12.4-11.6-20.9-11.6
			c-9,0-17.1,4.7-21.5,12.6c-4.4,8-4.2,17.4,0.6,25.2c31.7,51.1,47.1,110.1,44.4,170.6c-6.5,148-136.9,278.9-284.9,285.9
			c-84.1,4-166.5-27.9-226.2-87.5c-59.6-59.6-91.4-142-87.5-226.2c7-148,137.9-278.4,285.9-284.9c60.4-2.6,119.4,12.7,170.6,44.4
			c7.8,4.8,17.2,5.1,25.2,0.6C1993.8,687.4,1998.5,679.3,1998.5,670.3"/>
		<path class="st2" d="M1640.7,1082c0-4.2,1-8.5,2.9-12.9l132.4-316.2c5.5-12.9,14.7-19.4,27.4-19.4c13.4,0,22.6,6.6,27.5,19.5
			l132.9,317.1c4,10.3,3.3,19.7-2.1,28.1c-5.4,8.4-13.7,12.7-24.4,12.7c-5.6,0-10.9-1.6-15.9-4.7c-5.1-3.2-8.8-7.6-11-13.3
			l-38.7-96.1h-135.9l-39.3,96.1c-2.6,6-6.5,10.6-11.6,13.6c-4.9,2.9-10.1,4.4-15.3,4.4c-10.5,0-18.6-4.5-24.2-13.5
			C1642.3,1092.5,1640.7,1087.3,1640.7,1082 M1963.5,1082.8c0-3.7-0.8-7.6-2.4-11.6l-132.9-317.1c-4.4-11.8-12.7-17.7-24.8-17.7
			c-11.4,0-19.7,5.9-24.7,17.6l-132.4,316.2c-4,9-3.5,17.7,1.5,25.7c5,8,12.4,12.1,21.8,12.1c4.7,0,9.4-1.4,13.8-4
			c4.5-2.7,8-6.8,10.4-12.2l40-97.9h139.8l0.4,0.9l39,97c2,5.1,5.3,9.1,9.9,11.9c4.5,2.8,9.3,4.3,14.4,4.3c9.7,0,17.1-3.8,22-11.4
			C1962.1,1092.4,1963.5,1087.7,1963.5,1082.8 M1750.8,952.8l0.8-2l52.8-129l1.3,3.3l51.4,127.7H1750.8z M1804.3,829.5l-49.2,120.4
			h97.7L1804.3,829.5z"/>
	</g>
	<rect x="144.7" y="166.6" class="st3" width="1162.3" height="0.9"/>
	<rect x="1827.8" y="144.7" class="st3" width="0.8" height="304.8"/>
	<g class="st0">
		<g>
			<path class="st2" d="M146.5,132.3c-0.6,0-1.1-0.3-1.5-0.7c-0.3-0.5-0.4-1.1-0.1-1.7l12.5-31.1c0.1-0.3,0.3-0.6,0.6-0.8
				c0.3-0.2,0.6-0.3,1-0.3c0.6,0,1.1,0.2,1.4,0.7c0.3,0.5,0.4,1.1,0.1,1.7L148,131.3c-0.1,0.3-0.3,0.6-0.7,0.8
				C147.1,132.2,146.8,132.3,146.5,132.3"/>
			<path class="st2" d="M177.7,129.4c-2,0-3.9-0.5-5.5-1.5c-1.6-1-2.9-2.3-3.8-4c-0.9-1.7-1.4-3.6-1.4-5.7c0-2.1,0.5-4.1,1.5-5.8
				c1-1.7,2.3-3,4-4c1.7-1,3.6-1.5,5.7-1.5c2.1,0,4,0.5,5.7,1.5c1.7,1,3,2.3,4,4c1,1.7,1.5,3.6,1.5,5.8l-1.4,0.7
				c0,2-0.4,3.8-1.3,5.4c-0.9,1.6-2.1,2.9-3.7,3.8C181.4,128.9,179.7,129.4,177.7,129.4 M178.2,126.3c1.5,0,2.8-0.4,4-1
				c1.2-0.7,2.1-1.7,2.8-2.9c0.7-1.2,1-2.6,1-4.2c0-1.6-0.3-2.9-1-4.2c-0.7-1.2-1.6-2.2-2.8-2.9c-1.2-0.7-2.5-1.1-4-1.1
				c-1.5,0-2.8,0.3-4,1.1c-1.2,0.7-2.1,1.7-2.8,2.9c-0.7,1.2-1,2.6-1,4.2c0,1.5,0.4,2.9,1,4.2c0.7,1.2,1.6,2.2,2.8,2.9
				C175.4,125.9,176.7,126.3,178.2,126.3 M187.6,129.2c-0.5,0-0.9-0.2-1.3-0.5c-0.3-0.3-0.5-0.7-0.5-1.2v-6.6l0.8-3.5l2.7,0.9v9.3
				c0,0.5-0.2,0.9-0.5,1.2C188.5,129,188.1,129.2,187.6,129.2"/>
			<path class="st2" d="M199.5,129.2c-0.5,0-1-0.2-1.3-0.4c-0.3-0.3-0.4-0.7-0.4-1.3v-18.7c0-0.5,0.2-1,0.4-1.2
				c0.3-0.3,0.7-0.4,1.3-0.4c0.5,0,1,0.1,1.2,0.4c0.3,0.3,0.4,0.7,0.4,1.2v18.7c0,0.5-0.1,1-0.4,1.3
				C200.5,129,200.1,129.2,199.5,129.2 M199.4,115.5c0.1-1.7,0.5-3.1,1.3-4.4c0.8-1.3,1.8-2.3,3.1-3.1c1.3-0.8,2.7-1.1,4.3-1.1
				c1.4,0,2.4,0.2,3.1,0.6c0.7,0.4,1,1,0.8,1.7c-0.1,0.4-0.3,0.7-0.5,0.8c-0.3,0.1-0.6,0.2-0.9,0.2c-0.3,0-0.7,0-1.2,0
				c-1.6-0.2-3-0.1-4.2,0.3c-1.2,0.4-2.2,1-2.9,1.9c-0.7,0.9-1.1,2-1.1,3.2H199.4z"/>
			<path class="st2" d="M217.9,110.9c-0.5,0-0.8-0.1-1.1-0.4c-0.3-0.3-0.5-0.6-0.5-1c0-0.4,0.2-0.8,0.5-1.1c0.3-0.3,0.7-0.4,1.1-0.4
				h10c0.5,0,0.8,0.1,1.1,0.4c0.3,0.3,0.4,0.6,0.4,1.1c0,0.4-0.1,0.8-0.4,1c-0.3,0.3-0.7,0.4-1.1,0.4H217.9z M227.6,129.2
				c-1.4,0-2.7-0.3-3.8-1c-1.1-0.7-2-1.6-2.6-2.8c-0.6-1.2-0.9-2.5-0.9-4v-19.5c0-0.5,0.1-0.9,0.5-1.2c0.3-0.3,0.7-0.5,1.2-0.5
				c0.5,0,0.9,0.2,1.2,0.5c0.3,0.3,0.5,0.7,0.5,1.2v19.5c0,1.3,0.4,2.3,1.1,3.1c0.7,0.8,1.7,1.2,2.8,1.2h1.2c0.5,0,0.8,0.2,1.1,0.5
				c0.3,0.3,0.4,0.7,0.4,1.2c0,0.5-0.2,0.9-0.5,1.2c-0.4,0.3-0.8,0.5-1.4,0.5H227.6z"/>
			<path class="st2" d="M247.8,129.4c-2.2,0-4.1-0.5-5.8-1.4s-3-2.3-4-4c-1-1.7-1.4-3.6-1.4-5.8c0-2.2,0.5-4.1,1.4-5.8
				c1-1.7,2.3-3,4-4c1.7-1,3.6-1.5,5.8-1.5c2.2,0,4.1,0.5,5.7,1.5c1.7,1,3,2.3,3.9,4c1,1.7,1.5,3.6,1.5,5.8c0,2.2-0.5,4.1-1.5,5.8
				c-1,1.7-2.3,3-4,4C251.9,128.9,250,129.4,247.8,129.4 M247.8,126.3c1.5,0,2.8-0.3,4-1c1.2-0.7,2.1-1.7,2.7-2.9
				c0.7-1.2,1-2.6,1-4.2c0-1.6-0.3-3-1-4.2c-0.7-1.2-1.6-2.2-2.7-2.9c-1.2-0.7-2.5-1-4-1c-1.5,0-2.8,0.4-4,1
				c-1.2,0.7-2.1,1.7-2.8,2.9c-0.7,1.2-1,2.6-1,4.2c0,1.6,0.3,3,1,4.2c0.7,1.2,1.6,2.2,2.8,2.9C245,126,246.3,126.3,247.8,126.3"/>
			<path class="st2" d="M269.2,138.6c-0.5,0-0.9-0.2-1.3-0.5c-0.3-0.3-0.5-0.7-0.5-1.2v-18.8c0-2.1,0.5-4,1.5-5.7c1-1.7,2.3-3,4-4
				c1.7-1,3.5-1.5,5.6-1.5c2.1,0,4.1,0.5,5.7,1.5c1.7,1,3,2.3,4,4c1,1.7,1.5,3.6,1.5,5.7c0,2.1-0.5,4-1.4,5.7c-0.9,1.7-2.2,3-3.8,4
				c-1.6,1-3.4,1.5-5.5,1.5c-1.7,0-3.3-0.4-4.7-1.1c-1.4-0.7-2.6-1.7-3.5-2.9v11.5c0,0.5-0.1,0.9-0.5,1.2
				C270.1,138.5,269.7,138.6,269.2,138.6 M278.6,126.3c1.5,0,2.8-0.3,4-1c1.2-0.7,2.1-1.7,2.8-2.9c0.7-1.2,1-2.6,1-4.2
				c0-1.6-0.3-2.9-1-4.2c-0.7-1.2-1.6-2.2-2.8-2.9c-1.2-0.7-2.5-1.1-4-1.1c-1.4,0-2.8,0.4-4,1.1c-1.2,0.7-2.1,1.7-2.8,2.9
				c-0.7,1.2-1,2.6-1,4.2c0,1.5,0.3,2.9,1,4.2c0.7,1.2,1.6,2.2,2.8,2.9C275.8,126,277.1,126.3,278.6,126.3"/>
			<path class="st2" d="M308.5,129.4c-2.2,0-4.1-0.5-5.8-1.4c-1.7-1-3-2.3-4-4c-1-1.7-1.5-3.6-1.5-5.8c0-2.2,0.5-4.1,1.4-5.8
				c0.9-1.7,2.2-3,3.8-4c1.6-1,3.4-1.5,5.5-1.5c2.1,0,3.9,0.5,5.4,1.4c1.5,0.9,2.7,2.2,3.5,3.8c0.8,1.7,1.2,3.5,1.2,5.6
				c0,0.5-0.2,0.8-0.4,1.1c-0.3,0.3-0.7,0.4-1.1,0.4h-16.8v-2.8h17l-1.7,1.2c0-1.5-0.3-2.8-0.8-4c-0.6-1.2-1.4-2.1-2.4-2.8
				c-1-0.7-2.3-1-3.7-1c-1.5,0-2.9,0.3-4,1.1c-1.1,0.7-2,1.7-2.6,2.9c-0.6,1.2-0.9,2.6-0.9,4.2c0,1.6,0.3,3,1,4.2
				c0.7,1.2,1.7,2.2,2.9,2.9c1.2,0.7,2.6,1.1,4.2,1.1c0.9,0,1.8-0.2,2.8-0.5c1-0.3,1.7-0.7,2.3-1.2c0.3-0.3,0.7-0.4,1.1-0.4
				c0.4,0,0.8,0.1,1.1,0.3c0.4,0.3,0.6,0.7,0.6,1.1c0,0.4-0.1,0.8-0.5,1.1c-0.9,0.8-2,1.4-3.4,1.8
				C311,129.2,309.7,129.4,308.5,129.4"/>
			<path class="st2" d="M327.4,129.2c-0.5,0-0.9-0.2-1.2-0.5c-0.3-0.3-0.5-0.7-0.5-1.2v-18.6c0-0.5,0.2-1,0.5-1.3
				c0.3-0.3,0.7-0.5,1.2-0.5c0.5,0,0.9,0.2,1.2,0.5c0.3,0.3,0.5,0.7,0.5,1.3v18.6c0,0.5-0.2,0.9-0.5,1.2
				C328.3,129,327.9,129.2,327.4,129.2 M344.4,129.2c-0.5,0-0.9-0.2-1.3-0.5c-0.3-0.3-0.5-0.7-0.5-1.2v-10.3c0-1.6-0.3-3-0.9-4
				c-0.6-1-1.4-1.8-2.5-2.3c-1-0.5-2.2-0.8-3.6-0.8c-1.2,0-2.4,0.2-3.4,0.7c-1,0.5-1.8,1.1-2.4,2c-0.6,0.8-0.9,1.8-0.9,2.9h-2.3
				c0-1.7,0.5-3.2,1.3-4.5c0.8-1.3,2-2.4,3.4-3.2c1.4-0.8,3-1.2,4.7-1.2c1.9,0,3.6,0.4,5.1,1.2c1.5,0.8,2.7,2,3.5,3.5
				c0.9,1.5,1.3,3.4,1.3,5.6v10.3c0,0.5-0.2,0.9-0.5,1.2C345.3,129,344.9,129.2,344.4,129.2"/>
			<path class="st2" d="M368.6,138.6c-0.5,0-0.9-0.2-1.3-0.5c-0.3-0.3-0.5-0.7-0.5-1.2v-18.8c0-2.1,0.5-4,1.5-5.7c1-1.7,2.3-3,4-4
				c1.7-1,3.5-1.5,5.6-1.5c2.1,0,4.1,0.5,5.7,1.5c1.7,1,3,2.3,4,4c1,1.7,1.5,3.6,1.5,5.7c0,2.1-0.5,4-1.4,5.7c-0.9,1.7-2.2,3-3.8,4
				c-1.6,1-3.4,1.5-5.5,1.5c-1.7,0-3.3-0.4-4.7-1.1c-1.4-0.7-2.6-1.7-3.5-2.9v11.5c0,0.5-0.1,0.9-0.5,1.2
				C369.5,138.5,369.1,138.6,368.6,138.6 M378,126.3c1.5,0,2.8-0.3,4-1c1.2-0.7,2.1-1.7,2.8-2.9c0.7-1.2,1-2.6,1-4.2
				c0-1.6-0.3-2.9-1-4.2c-0.7-1.2-1.6-2.2-2.8-2.9c-1.2-0.7-2.5-1.1-4-1.1c-1.4,0-2.8,0.4-4,1.1c-1.2,0.7-2.1,1.7-2.8,2.9
				c-0.7,1.2-1,2.6-1,4.2c0,1.5,0.3,2.9,1,4.2c0.7,1.2,1.6,2.2,2.8,2.9C375.2,126,376.5,126.3,378,126.3"/>
			<path class="st2" d="M402.7,129.2c-1.1,0-2.1-0.3-3-0.9c-0.9-0.6-1.6-1.4-2-2.5c-0.5-1.1-0.7-2.3-0.7-3.7V99.4
				c0-0.5,0.2-0.9,0.5-1.2c0.3-0.3,0.7-0.5,1.2-0.5c0.5,0,0.9,0.2,1.2,0.5c0.3,0.3,0.5,0.7,0.5,1.2v22.6c0,1.1,0.2,2,0.7,2.7
				c0.4,0.7,1,1,1.7,1h1c0.5,0,0.8,0.2,1.1,0.5c0.3,0.3,0.4,0.7,0.4,1.2c0,0.5-0.2,0.9-0.6,1.2c-0.4,0.3-0.9,0.5-1.5,0.5H402.7z"/>
		</g>
		<path class="st2" d="M356.2,129.8c-0.7,0-1.3-0.3-1.8-0.7c-0.5-0.5-0.7-1.1-0.7-1.8c0-0.7,0.2-1.3,0.7-1.8
			c0.5-0.5,1.1-0.7,1.8-0.7c0.7,0,1.3,0.2,1.7,0.7c0.5,0.5,0.7,1.1,0.7,1.8c0,0.7-0.2,1.2-0.7,1.7
			C357.5,129.6,356.9,129.8,356.2,129.8"/>
	</g>
	<g class="st0">
		<path class="st2" d="M963.3,132.3c-0.6,0-1.1-0.3-1.5-0.7c-0.3-0.5-0.4-1.1-0.1-1.7l12.5-31.1c0.1-0.3,0.3-0.6,0.6-0.8
			c0.3-0.2,0.6-0.3,1-0.3c0.6,0,1.1,0.2,1.4,0.7c0.3,0.5,0.4,1.1,0.1,1.7l-12.5,31.2c-0.1,0.3-0.3,0.6-0.7,0.8
			C964,132.2,963.7,132.3,963.3,132.3"/>
		<path class="st2" d="M994.7,129.4c-2.2,0-4.1-0.5-5.8-1.4c-1.7-1-3-2.3-4-4c-1-1.7-1.4-3.6-1.4-5.8c0-2.2,0.5-4.1,1.4-5.8
			c1-1.7,2.3-3,4-4c1.7-1,3.6-1.5,5.8-1.5c2.2,0,4.1,0.5,5.7,1.5c1.7,1,3,2.3,3.9,4c1,1.7,1.5,3.6,1.5,5.8c0,2.2-0.5,4.1-1.5,5.8
			c-1,1.7-2.3,3-4,4C998.8,128.9,996.8,129.4,994.7,129.4 M994.7,126.3c1.5,0,2.8-0.3,4-1c1.2-0.7,2.1-1.7,2.7-2.9
			c0.7-1.2,1-2.6,1-4.2c0-1.6-0.3-3-1-4.2c-0.7-1.2-1.6-2.2-2.7-2.9c-1.2-0.7-2.5-1-4-1c-1.5,0-2.8,0.4-4,1
			c-1.2,0.7-2.1,1.7-2.8,2.9c-0.7,1.2-1,2.6-1,4.2c0,1.6,0.3,3,1,4.2c0.7,1.2,1.6,2.2,2.8,2.9C991.9,126,993.2,126.3,994.7,126.3"/>
		<path class="st2" d="M1015.7,138.6c-0.5,0-0.9-0.2-1.3-0.5c-0.3-0.3-0.5-0.7-0.5-1.2v-18.8c0-2.1,0.5-4,1.5-5.7c1-1.7,2.3-3,4-4
			c1.7-1,3.5-1.5,5.6-1.5c2.1,0,4.1,0.5,5.7,1.5c1.7,1,3,2.3,4,4c1,1.7,1.5,3.6,1.5,5.7c0,2.1-0.5,4-1.4,5.7c-0.9,1.7-2.2,3-3.8,4
			c-1.6,1-3.4,1.5-5.5,1.5c-1.7,0-3.3-0.4-4.7-1.1c-1.4-0.7-2.6-1.7-3.5-2.9v11.5c0,0.5-0.1,0.9-0.5,1.2
			C1016.6,138.5,1016.2,138.6,1015.7,138.6 M1025.1,126.3c1.5,0,2.8-0.3,4-1c1.2-0.7,2.1-1.7,2.8-2.9c0.7-1.2,1-2.6,1-4.2
			c0-1.6-0.3-2.9-1-4.2c-0.7-1.2-1.6-2.2-2.8-2.9c-1.2-0.7-2.5-1.1-4-1.1c-1.4,0-2.8,0.4-4,1.1c-1.2,0.7-2.1,1.7-2.8,2.9
			c-0.7,1.2-1,2.6-1,4.2c0,1.5,0.3,2.9,1,4.2c0.7,1.2,1.6,2.2,2.8,2.9C1022.3,126,1023.6,126.3,1025.1,126.3"/>
		<path class="st2" d="M1054.5,129.4c-2.2,0-4.1-0.5-5.8-1.4c-1.7-1-3-2.3-4-4c-1-1.7-1.5-3.6-1.5-5.8c0-2.2,0.5-4.1,1.4-5.8
			c0.9-1.7,2.2-3,3.8-4c1.6-1,3.4-1.5,5.5-1.5c2.1,0,3.9,0.5,5.4,1.4c1.5,0.9,2.7,2.2,3.5,3.8c0.8,1.7,1.2,3.5,1.2,5.6
			c0,0.5-0.2,0.8-0.4,1.1c-0.3,0.3-0.7,0.4-1.1,0.4h-16.8v-2.8h17l-1.7,1.2c0-1.5-0.3-2.8-0.8-4c-0.6-1.2-1.4-2.1-2.4-2.8
			c-1-0.7-2.3-1-3.7-1c-1.5,0-2.9,0.3-4,1.1c-1.1,0.7-2,1.7-2.6,2.9c-0.6,1.2-0.9,2.6-0.9,4.2c0,1.6,0.3,3,1,4.2
			c0.7,1.2,1.7,2.2,2.9,2.9c1.2,0.7,2.6,1.1,4.2,1.1c0.9,0,1.8-0.2,2.8-0.5c1-0.3,1.7-0.7,2.3-1.2c0.3-0.3,0.7-0.4,1.1-0.4
			c0.4,0,0.8,0.1,1.1,0.3c0.4,0.3,0.6,0.7,0.6,1.1c0,0.4-0.1,0.8-0.5,1.1c-0.9,0.8-2,1.4-3.4,1.8
			C1057.1,129.2,1055.8,129.4,1054.5,129.4"/>
		<path class="st2" d="M1073,129.2c-0.5,0-0.9-0.2-1.2-0.5c-0.3-0.3-0.5-0.7-0.5-1.2v-18.6c0-0.5,0.2-1,0.5-1.3
			c0.3-0.3,0.7-0.5,1.2-0.5c0.5,0,0.9,0.2,1.2,0.5c0.3,0.3,0.5,0.7,0.5,1.3v18.6c0,0.5-0.2,0.9-0.5,1.2
			C1073.9,129,1073.5,129.2,1073,129.2 M1090.1,129.2c-0.5,0-0.9-0.2-1.3-0.5c-0.3-0.3-0.5-0.7-0.5-1.2v-10.3c0-1.6-0.3-3-0.9-4
			c-0.6-1-1.4-1.8-2.5-2.3c-1-0.5-2.2-0.8-3.6-0.8c-1.2,0-2.4,0.2-3.4,0.7c-1,0.5-1.8,1.1-2.4,2c-0.6,0.8-0.9,1.8-0.9,2.9h-2.3
			c0-1.7,0.5-3.2,1.3-4.5c0.8-1.3,2-2.4,3.4-3.2c1.4-0.8,3-1.2,4.7-1.2c1.9,0,3.6,0.4,5.1,1.2c1.5,0.8,2.7,2,3.5,3.5
			c0.9,1.5,1.3,3.4,1.3,5.6v10.3c0,0.5-0.2,0.9-0.5,1.2C1091,129,1090.6,129.2,1090.1,129.2"/>
		<path class="st2" d="M1110.2,129.4c-2.1,0-3.9-0.5-5.6-1.4c-1.6-1-2.9-2.3-3.8-4c-0.9-1.7-1.4-3.6-1.4-5.8c0-2.2,0.5-4.1,1.4-5.8
			c1-1.7,2.3-3,4-4c1.7-1,3.6-1.4,5.8-1.4c2.2,0,4.1,0.5,5.7,1.4c1.7,1,3,2.3,4,4c1,1.7,1.4,3.6,1.5,5.8l-2,0.7c0,2-0.4,3.9-1.3,5.5
			c-0.8,1.6-2,2.8-3.4,3.7C1113.7,129,1112.1,129.4,1110.2,129.4 M1110.7,138.1c-2,0-3.9-0.4-5.5-1.2c-1.6-0.8-3-1.9-4.1-3.3
			c-0.3-0.4-0.4-0.8-0.4-1.2c0-0.4,0.3-0.8,0.7-1c0.4-0.3,0.8-0.4,1.3-0.3c0.5,0.1,0.8,0.3,1.1,0.7c0.7,0.9,1.7,1.7,2.9,2.3
			c1.2,0.6,2.6,0.9,4.1,0.9c1.4,0,2.7-0.4,3.9-1c1.2-0.7,2.1-1.7,2.8-3c0.7-1.3,1-2.8,1-4.6v-6l1.2-2.7l2.1,0.5v8.4
			c0,2.2-0.5,4.1-1.5,5.8c-1,1.7-2.3,3.1-3.9,4.1C1114.8,137.6,1112.9,138.1,1110.7,138.1 M1110.7,126.3c1.5,0,2.8-0.3,4-1
			c1.2-0.7,2.1-1.6,2.7-2.9c0.7-1.2,1-2.6,1-4.2c0-1.6-0.3-3-1-4.2c-0.7-1.2-1.6-2.2-2.7-2.9c-1.2-0.7-2.5-1-4-1
			c-1.5,0-2.9,0.3-4.1,1c-1.2,0.7-2.1,1.7-2.8,2.9c-0.7,1.2-1,2.6-1,4.2c0,1.6,0.3,3,1,4.2c0.7,1.2,1.6,2.2,2.8,2.9
			C1107.8,126,1109.2,126.3,1110.7,126.3"/>
		<path class="st2" d="M1139.5,129.4c-2,0-3.9-0.5-5.5-1.5c-1.6-1-2.9-2.3-3.8-4c-0.9-1.7-1.4-3.6-1.4-5.7c0-2.1,0.5-4.1,1.5-5.8
			c1-1.7,2.3-3,4-4c1.7-1,3.6-1.5,5.7-1.5c2.1,0,4,0.5,5.7,1.5c1.7,1,3,2.3,4,4c1,1.7,1.5,3.6,1.5,5.8l-1.4,0.7c0,2-0.4,3.8-1.3,5.4
			c-0.9,1.6-2.1,2.9-3.7,3.8C1143.2,128.9,1141.5,129.4,1139.5,129.4 M1140,126.3c1.5,0,2.8-0.4,4-1c1.2-0.7,2.1-1.7,2.8-2.9
			c0.7-1.2,1-2.6,1-4.2c0-1.6-0.3-2.9-1-4.2c-0.7-1.2-1.6-2.2-2.8-2.9c-1.2-0.7-2.5-1.1-4-1.1c-1.5,0-2.8,0.3-4,1.1
			c-1.2,0.7-2.1,1.7-2.8,2.9c-0.7,1.2-1,2.6-1,4.2c0,1.5,0.4,2.9,1,4.2c0.7,1.2,1.6,2.2,2.8,2.9
			C1137.2,125.9,1138.5,126.3,1140,126.3 M1149.4,129.2c-0.5,0-0.9-0.2-1.3-0.5c-0.3-0.3-0.5-0.7-0.5-1.2v-6.6l0.8-3.5l2.7,0.9v9.3
			c0,0.5-0.2,0.9-0.5,1.2C1150.3,129,1149.9,129.2,1149.4,129.2"/>
		<path class="st2" d="M1169.3,129.4c-2.1,0-4-0.5-5.7-1.5c-1.7-1-3-2.3-4-4c-1-1.7-1.5-3.6-1.5-5.8c0-2.1,0.5-4,1.4-5.7
			c0.9-1.7,2.2-3,3.8-4c1.6-1,3.4-1.5,5.5-1.5c1.7,0,3.3,0.4,4.7,1.1c1.4,0.7,2.6,1.7,3.5,2.9V99.5c0-0.5,0.2-1,0.5-1.3
			c0.3-0.3,0.7-0.5,1.3-0.5c0.5,0,0.9,0.2,1.3,0.5c0.3,0.3,0.5,0.7,0.5,1.3v18.8c-0.1,2.1-0.6,4-1.6,5.7c-1,1.7-2.3,3-4,4
			C1173.3,128.9,1171.4,129.4,1169.3,129.4 M1169.3,126.3c1.5,0,2.8-0.4,4-1.1c1.2-0.7,2.1-1.7,2.8-2.9c0.7-1.2,1-2.6,1-4.2
			c0-1.5-0.3-2.9-1-4.2c-0.7-1.2-1.6-2.2-2.8-2.9c-1.2-0.7-2.5-1-4-1c-1.5,0-2.8,0.4-4,1c-1.2,0.7-2.1,1.7-2.8,2.9
			c-0.7,1.2-1,2.6-1,4.2c0,1.6,0.3,3,1,4.2c0.7,1.2,1.6,2.2,2.8,2.9C1166.5,125.9,1167.8,126.3,1169.3,126.3"/>
		<path class="st2" d="M1190.1,110.3c-1,0-1.6-0.5-1.6-1.6c0-1,0.5-1.6,1.6-1.6h14.5c1,0,1.6,0.5,1.6,1.6c0,1-0.5,1.6-1.6,1.6
			H1190.1z M1190.3,129.2c-1,0-1.6-0.5-1.6-1.6c0-1,0.5-1.6,1.6-1.6h14.5c1,0,1.6,0.5,1.6,1.6c0,1-0.5,1.6-1.6,1.6H1190.3z
			 M1191.7,128.2l-2.6-1.7l14.5-18.7l2.3,2L1191.7,128.2z"/>
		<path class="st2" d="M1223.1,129.4c-2.2,0-4.1-0.5-5.8-1.4c-1.7-1-3-2.3-4-4c-1-1.7-1.5-3.6-1.5-5.8c0-2.2,0.5-4.1,1.4-5.8
			c0.9-1.7,2.2-3,3.8-4c1.6-1,3.4-1.5,5.5-1.5c2.1,0,3.9,0.5,5.4,1.4c1.5,0.9,2.7,2.2,3.5,3.8c0.8,1.7,1.2,3.5,1.2,5.6
			c0,0.5-0.2,0.8-0.4,1.1c-0.3,0.3-0.7,0.4-1.1,0.4h-16.8v-2.8h17l-1.7,1.2c0-1.5-0.3-2.8-0.8-4c-0.6-1.2-1.4-2.1-2.4-2.8
			c-1-0.7-2.3-1-3.7-1c-1.5,0-2.9,0.3-4,1.1c-1.1,0.7-2,1.7-2.6,2.9c-0.6,1.2-0.9,2.6-0.9,4.2c0,1.6,0.3,3,1,4.2
			c0.7,1.2,1.7,2.2,2.9,2.9c1.2,0.7,2.6,1.1,4.2,1.1c0.9,0,1.8-0.2,2.8-0.5c1-0.3,1.7-0.7,2.3-1.2c0.3-0.3,0.7-0.4,1.1-0.4
			c0.4,0,0.8,0.1,1.1,0.3c0.4,0.3,0.6,0.7,0.6,1.1c0,0.4-0.1,0.8-0.5,1.1c-0.9,0.8-2,1.4-3.4,1.8
			C1225.7,129.2,1224.4,129.4,1223.1,129.4"/>
		<path class="st2" d="M1238.6,110.9c-0.5,0-0.8-0.1-1.1-0.4c-0.3-0.3-0.5-0.6-0.5-1c0-0.4,0.2-0.8,0.5-1.1c0.3-0.3,0.7-0.4,1.1-0.4
			h10c0.5,0,0.8,0.1,1.1,0.4c0.3,0.3,0.4,0.6,0.4,1.1c0,0.4-0.1,0.8-0.4,1c-0.3,0.3-0.7,0.4-1.1,0.4H1238.6z M1248.3,129.2
			c-1.4,0-2.7-0.3-3.8-1c-1.1-0.7-2-1.6-2.6-2.8c-0.6-1.2-0.9-2.5-0.9-4v-19.5c0-0.5,0.1-0.9,0.5-1.2c0.3-0.3,0.7-0.5,1.2-0.5
			c0.5,0,0.9,0.2,1.2,0.5c0.3,0.3,0.5,0.7,0.5,1.2v19.5c0,1.3,0.4,2.3,1.1,3.1c0.7,0.8,1.7,1.2,2.8,1.2h1.2c0.5,0,0.8,0.2,1.1,0.5
			c0.3,0.3,0.4,0.7,0.4,1.2c0,0.5-0.2,0.9-0.5,1.2c-0.4,0.3-0.8,0.5-1.4,0.5H1248.3z"/>
		<path class="st2" d="M1259,129.8c-0.7,0-1.3-0.3-1.8-0.7c-0.5-0.5-0.7-1.1-0.7-1.8c0-0.7,0.2-1.3,0.7-1.8c0.5-0.5,1.1-0.7,1.8-0.7
			c0.7,0,1.3,0.2,1.7,0.7c0.5,0.5,0.7,1.1,0.7,1.8c0,0.7-0.2,1.2-0.7,1.7C1260.3,129.6,1259.7,129.8,1259,129.8"/>
		<path class="st2" d="M1270.9,138.6c-0.5,0-0.9-0.2-1.3-0.5c-0.3-0.3-0.5-0.7-0.5-1.2v-18.8c0-2.1,0.5-4,1.5-5.7c1-1.7,2.3-3,4-4
			c1.7-1,3.5-1.5,5.6-1.5c2.1,0,4.1,0.5,5.7,1.5c1.7,1,3,2.3,4,4c1,1.7,1.5,3.6,1.5,5.7c0,2.1-0.5,4-1.4,5.7c-0.9,1.7-2.2,3-3.8,4
			c-1.6,1-3.4,1.5-5.5,1.5c-1.7,0-3.3-0.4-4.7-1.1c-1.4-0.7-2.6-1.7-3.5-2.9v11.5c0,0.5-0.1,0.9-0.5,1.2
			C1271.8,138.5,1271.4,138.6,1270.9,138.6 M1280.3,126.3c1.5,0,2.8-0.3,4-1c1.2-0.7,2.1-1.7,2.8-2.9c0.7-1.2,1-2.6,1-4.2
			c0-1.6-0.3-2.9-1-4.2c-0.7-1.2-1.6-2.2-2.8-2.9c-1.2-0.7-2.5-1.1-4-1.1c-1.4,0-2.8,0.4-4,1.1c-1.2,0.7-2.1,1.7-2.8,2.9
			c-0.7,1.2-1,2.6-1,4.2c0,1.5,0.3,2.9,1,4.2c0.7,1.2,1.6,2.2,2.8,2.9C1277.5,126,1278.8,126.3,1280.3,126.3"/>
		<path class="st2" d="M1304.6,129.2c-1.1,0-2.1-0.3-3-0.9c-0.9-0.6-1.6-1.4-2-2.5c-0.5-1.1-0.7-2.3-0.7-3.7V99.4
			c0-0.5,0.2-0.9,0.5-1.2c0.3-0.3,0.7-0.5,1.2-0.5c0.5,0,0.9,0.2,1.2,0.5c0.3,0.3,0.5,0.7,0.5,1.2v22.6c0,1.1,0.2,2,0.7,2.7
			c0.4,0.7,1,1,1.7,1h1c0.5,0,0.8,0.2,1.1,0.5c0.3,0.3,0.4,0.7,0.4,1.2c0,0.5-0.2,0.9-0.6,1.2c-0.4,0.3-0.9,0.5-1.5,0.5H1304.6z"/>
	</g>
</g>
</svg>
