<?xml version="1.0" encoding="utf-8"?>
<!-- Generator: Adobe Illustrator 25.2.0, SVG Export Plug-In . SVG Version: 6.00 Build 0)  -->
<svg version="1.1" id="Warstwa_1" xmlns="http://www.w3.org/2000/svg" xmlns:xlink="http://www.w3.org/1999/xlink" x="0px" y="0px"
	 viewBox="0 0 825 472" style="enable-background:new 0 0 825 472;" xml:space="preserve">
<style type="text/css">
	.st0{clip-path:url(#SVGID_2_);fill:url(#SVGID_3_);}
	.st1{fill:#FFFFFF;}
	.st2{fill:#BD960E;}
	.st3{fill:#FCC812;}
	.st4{opacity:0.3;fill:#AD0009;enable-background:new    ;}
	.st5{font-family:'Montserrat-Regular';}
	.st6{font-size:42px;}
	.st7{letter-spacing:1;}
	.st8{font-family:'Montserrat-Black';}
	.st9{font-size:37px;}
	.st10{font-size:14px;}
	.st11{fill:#BD960D;}
	.st12{fill:#43B38F;}
	.st13{fill:#32866B;}
	.st14{filter:url(#Adobe_OpacityMaskFilter);}
	.st15{mask:url(#SVGID_4_);}
	.st16{fill:none;stroke:#404040;stroke-width:2;stroke-miterlimit:10;}
	.st17{fill:none;stroke:#404040;stroke-width:2;stroke-miterlimit:10;stroke-dasharray:3.9972,5.9958;}
</style>
<g>
	<g>
		<defs>
			<rect id="SVGID_1_" y="0" width="825" height="472"/>
		</defs>
		<clipPath id="SVGID_2_">
			<use xlink:href="#SVGID_1_"  style="overflow:visible;"/>
		</clipPath>
		
			<linearGradient id="SVGID_3_" gradientUnits="userSpaceOnUse" x1="-1205.656" y1="-745.1957" x2="-1204.0674" y2="-745.1957" gradientTransform="matrix(526.5874 0 0 526.5874 634858.5 392689.5938)">
			<stop  offset="0" style="stop-color:#379E6E"/>
			<stop  offset="1" style="stop-color:#72C6D4"/>
		</linearGradient>
		<rect x="-24.77" y="-156.38" class="st0" width="870.6" height="870.6"/>
	</g>
</g>
<path class="st1" d="M642.64,304.81c-6.77-44.31-34.52-98.75-89.36-104.44c0,0-41.63-5.06-82.67,2.61
	c-24.36,4.55-45.71,18.11-59.23,37.6c-13.51,19.49-18.03,43.25-12.55,65.91c3.56,14.71,5.96,29.94,5.3,45.06
	c-1.15,26.32-0.49,50.88,25.05,66.57c22.8,14.01,51.5,26.37,78.88,28.54c18.61,1.47,39.47-0.91,57.4-5.75
	C656.86,416.22,649.41,349.12,642.64,304.81z"/>
<path class="st2" d="M577.57,236.21c-2.54-19.71-17.62-35.17-34.96-36.14c-0.92-0.05-1.84-0.06-2.75-0.04
	c-11.81,0.35-21.9,7.29-27.65,17.69c-0.34,0.61-0.66,1.23-0.97,1.87c-6.31-10.99-17.14-18.31-29.3-18.59
	c-0.58-0.01-1.16-0.01-1.74,0.01c-0.61,0.02-1.22,0.06-1.83,0.11c-17.21,1.53-30.99,17.44-31.94,37.18
	c-0.63,13.25,4.39,25.29,12.63,33.25l52.13,39.04c0.77,0.57,1.6,0.95,2.45,1.14l0,0c0,0,2.14,0.64,5.05,0.47
	c-0.63-0.29-1.17-0.55-1.65-0.77c0.56-0.23,1.09-0.54,1.58-0.95l26.17-21.7l22.81-18.91C575.21,261.65,579.27,249.45,577.57,236.21z
	"/>
<path class="st3" d="M571.09,270.86l-23.27,18.98l-25.75,21.01c-1.35,1.1-2.98,1.53-4.58,1.31c-0.99-0.14-1.98-0.54-2.86-1.19
	l-52.15-38.32c-8.24-7.82-13.26-19.65-12.63-32.67c0.95-19.35,14.66-34.97,31.81-36.58c0.05-0.01,0.1-0.01,0.16-0.01
	c0.48-0.04,0.96-0.08,1.43-0.1c12.38-0.55,23.58,6.06,30.4,16.5c0.37,0.56,0.72,1.13,1.06,1.72c5.25-10.64,15-18.04,26.61-19.14
	c1.56-0.15,3.16-0.18,4.78-0.09c17.35,0.93,32.44,16.11,34.98,35.49C582.77,250.77,578.7,262.77,571.09,270.86z"/>
<path class="st4" d="M547.82,289.84l-25.75,21.01c-1.35,1.1-2.98,1.53-4.58,1.31c-0.99-0.14-1.98-0.54-2.86-1.19l-52.15-38.32
	c-8.24-7.82-13.26-19.65-12.63-32.67c0.95-19.35,14.66-34.97,31.81-36.58c0.05-0.01,0.1-0.01,0.16-0.01
	c0.48-0.04,0.96-0.08,1.43-0.1c0.05,0.03,0.1,0.07,0.16,0.1c4.42,2.91,8.16,6.86,10.97,11.15c6.23,9.5,7.21,20.55,7.86,31.85
	c0.6,10.53,1.55,22.04,9.86,29.99c8.62,8.24,21.55,11.25,34.05,13.21C546.69,289.67,547.25,289.76,547.82,289.84z"/>
<g>
	<path class="st1" d="M67.58,393.85c7.23-0.07,14.06-2.92,19.26-8.02c5.19-5.1,8.16-11.89,8.35-19.11
		c0.15-5.46-1.29-10.79-4.16-15.42c-0.37-0.6-1.05-0.97-1.76-0.97c-0.76,0-1.44,0.4-1.81,1.06c-0.37,0.67-0.35,1.46,0.05,2.12
		c2.51,4.05,3.72,8.72,3.51,13.51c-0.51,11.72-10.85,22.09-22.57,22.64c-6.66,0.32-13.19-2.21-17.92-6.93
		c-4.72-4.72-7.25-11.25-6.93-17.92c0.55-11.72,10.92-22.05,22.65-22.57c4.79-0.21,9.46,1.01,13.51,3.51
		c0.66,0.41,1.45,0.43,2.12,0.05c0.67-0.37,1.06-1.05,1.06-1.81c0-0.71-0.37-1.39-0.97-1.76c-4.63-2.87-9.96-4.31-15.42-4.16
		c-7.22,0.19-14.01,3.16-19.11,8.35s-7.95,12.03-8.02,19.26c-0.07,7.54,2.83,14.63,8.18,19.98c5.27,5.27,12.27,8.18,19.71,8.18
		C67.39,393.85,67.49,393.85,67.58,393.85"/>
	<path class="st1" d="M67.3,349.16c-0.96,0-1.66,0.49-2.07,1.47L54.68,375.8c-0.34,0.75-0.29,1.48,0.13,2.15
		c0.42,0.68,1.04,1.02,1.83,1.02c0.4,0,0.79-0.11,1.16-0.34c0.38-0.23,0.68-0.57,0.88-1.02l3.16-7.72h10.97l3.11,7.72
		c0.17,0.43,0.45,0.76,0.83,1c0.38,0.24,0.78,0.36,1.2,0.36c0.81,0,1.44-0.32,1.85-0.96c0.41-0.63,0.46-1.35,0.16-2.13l-10.58-25.25
		C69.01,349.66,68.31,349.16,67.3,349.16 M63.28,366.38l4.09-10l4.03,10H63.28z"/>
	<path class="st1" d="M121.35,367.89c0.31-0.48,0.35-1.01,0.12-1.6l-7.37-17.59c-0.27-0.72-0.81-1.11-1.56-1.11
		c-0.71,0-1.25,0.38-1.56,1.1l-7.34,17.53c-0.25,0.57-0.22,1.11,0.1,1.62c0.31,0.5,0.79,0.77,1.38,0.77c0.3,0,0.59-0.08,0.87-0.25
		c0.29-0.17,0.51-0.43,0.66-0.77l2.17-5.3h7.48l2.13,5.3c0.13,0.32,0.34,0.58,0.63,0.76c0.28,0.18,0.59,0.27,0.91,0.27
		C120.56,368.62,121.04,368.37,121.35,367.89 M109.91,359.6l2.66-6.51l2.62,6.51H109.91z"/>
	<path class="st1" d="M127.46,357.03c0.69-0.32,1.53-0.47,2.49-0.44c0.25,0.01,0.49-0.02,0.69-0.11c0.21-0.09,0.39-0.24,0.53-0.44
		s0.21-0.46,0.21-0.76c0.01-0.42-0.14-1-0.92-1.37c-0.58-0.28-1.34-0.32-2.33-0.12c-0.79,0.16-1.5,0.48-2.12,0.95
		c-0.05-0.34-0.18-0.61-0.39-0.81c-0.28-0.27-0.68-0.41-1.19-0.41c-0.5,0-0.9,0.14-1.18,0.43c-0.28,0.29-0.43,0.68-0.43,1.18v11.9
		c0,0.52,0.15,0.92,0.43,1.2c0.28,0.27,0.68,0.41,1.18,0.41c0.52,0,0.92-0.15,1.2-0.43c0.27-0.28,0.41-0.68,0.41-1.18v-8.8
		C126.34,357.72,126.83,357.32,127.46,357.03"/>
	<path class="st1" d="M140.67,365.4h-0.89c-0.47,0-0.85-0.19-1.18-0.59c-0.34-0.42-0.51-0.93-0.51-1.56v-6.54h2.04
		c0.44,0,0.81-0.13,1.09-0.39c0.29-0.27,0.44-0.61,0.44-1.01c0-0.43-0.15-0.79-0.44-1.06c-0.28-0.26-0.65-0.39-1.09-0.39h-2.04
		v-3.08c0-0.46-0.15-0.85-0.45-1.15s-0.69-0.45-1.15-0.45c-0.46,0-0.85,0.15-1.16,0.45c-0.3,0.3-0.45,0.69-0.45,1.15v3.08h-0.78
		c-0.44,0-0.81,0.13-1.09,0.39c-0.29,0.27-0.44,0.62-0.44,1.06c0,0.4,0.15,0.74,0.44,1.01c0.28,0.26,0.65,0.39,1.09,0.39h0.78v6.54
		c0,1,0.21,1.92,0.64,2.73c0.42,0.81,1.01,1.46,1.75,1.93s1.59,0.71,2.51,0.71h0.47c0.53,0,0.97-0.15,1.31-0.44
		c0.36-0.3,0.54-0.7,0.54-1.17c0-0.46-0.14-0.84-0.4-1.14C141.42,365.56,141.07,365.4,140.67,365.4"/>
	<path class="st1" d="M185.03,364.92c0.6-1.13,0.91-2.42,0.91-3.84c0-1.42-0.33-2.72-0.99-3.86c-0.66-1.14-1.56-2.05-2.68-2.71
		s-2.41-1-3.84-1c-1.41,0-2.69,0.34-3.81,1s-2.02,1.57-2.67,2.71c-0.65,1.14-0.99,2.44-1.01,3.86V373c0,0.46,0.16,0.86,0.47,1.17
		c0.31,0.31,0.7,0.47,1.17,0.47c0.48,0,0.88-0.16,1.18-0.47c0.3-0.31,0.45-0.7,0.45-1.16v-6.29c0.52,0.5,1.11,0.92,1.77,1.24
		c0.9,0.45,1.9,0.67,2.97,0.67c1.32,0,2.53-0.34,3.59-1C183.58,366.96,184.42,366.05,185.03,364.92 M182.2,363.43
		c-0.38,0.69-0.9,1.24-1.55,1.64c-0.64,0.4-1.39,0.6-2.22,0.6c-0.81,0-1.55-0.2-2.21-0.6s-1.18-0.95-1.55-1.64
		c-0.37-0.69-0.56-1.48-0.56-2.35c0-0.89,0.19-1.69,0.56-2.38s0.89-1.24,1.55-1.64c0.65-0.4,1.4-0.6,2.21-0.6
		c0.83,0,1.57,0.2,2.22,0.6s1.17,0.95,1.55,1.64s0.58,1.49,0.58,2.38C182.77,361.94,182.58,362.73,182.2,363.43"/>
	<path class="st1" d="M200.06,365.9c-0.02-0.4-0.21-0.76-0.58-1.08c-0.28-0.24-0.62-0.36-1-0.35c-0.37,0.01-0.71,0.13-1.02,0.36
		c-0.32,0.24-0.76,0.46-1.29,0.65s-1.06,0.28-1.56,0.28c-0.94,0-1.77-0.21-2.49-0.61c-0.72-0.41-1.29-0.97-1.69-1.67
		c-0.21-0.36-0.37-0.76-0.47-1.19h9.57c0.43,0,0.79-0.14,1.07-0.41c0.29-0.28,0.43-0.63,0.43-1.04c0-1.42-0.27-2.69-0.8-3.78
		c-0.54-1.1-1.33-1.98-2.35-2.61c-1.02-0.63-2.25-0.95-3.66-0.95c-1.42,0-2.71,0.33-3.81,0.97c-1.11,0.64-1.98,1.54-2.61,2.68
		c-0.62,1.13-0.94,2.45-0.94,3.92c0,1.46,0.33,2.77,0.99,3.9s1.59,2.03,2.76,2.67c1.16,0.64,2.51,0.97,4,0.97
		c0.83,0,1.71-0.16,2.62-0.46c0.91-0.31,1.68-0.71,2.3-1.2C199.99,366.61,200.07,366.19,200.06,365.9 M190.33,358.64
		c0.34-0.7,0.84-1.26,1.49-1.66c0.65-0.4,1.46-0.61,2.39-0.61c0.81,0,1.5,0.19,2.06,0.55c0.56,0.37,1,0.88,1.31,1.51
		c0.17,0.36,0.3,0.75,0.38,1.17h-7.97C190.08,359.25,190.19,358.93,190.33,358.64"/>
	<path class="st1" d="M211.45,358.24c0.34,0.58,0.51,1.35,0.51,2.29v6.45c0,0.47,0.16,0.86,0.47,1.17c0.31,0.31,0.7,0.47,1.17,0.47
		c0.46,0,0.86-0.16,1.17-0.47s0.47-0.71,0.47-1.17v-6.45c0-1.5-0.29-2.78-0.86-3.82s-1.37-1.85-2.37-2.39
		c-0.99-0.54-2.13-0.81-3.37-0.81c-1.2,0-2.29,0.27-3.26,0.8c-0.11,0.06-0.22,0.12-0.33,0.19c-0.07-0.15-0.17-0.28-0.29-0.4
		c-0.3-0.3-0.7-0.46-1.18-0.46c-0.46,0-0.86,0.15-1.17,0.45c-0.31,0.3-0.47,0.7-0.47,1.19v11.7c0,0.47,0.16,0.86,0.47,1.17
		c0.31,0.31,0.7,0.47,1.17,0.47c0.48,0,0.88-0.16,1.18-0.47c0.3-0.31,0.45-0.7,0.45-1.17v-9.26c0.29-0.32,0.64-0.58,1.04-0.78
		c0.55-0.27,1.17-0.41,1.85-0.41c0.75,0,1.42,0.14,2,0.43C210.66,357.23,211.11,357.67,211.45,358.24"/>
	<path class="st1" d="M167.14,350.26L167.14,350.26c-0.96-0.97-2.12-1.74-3.43-2.27s-2.78-0.8-4.37-0.8c-1.58,0-3.06,0.27-4.38,0.8
		c-1.32,0.54-2.48,1.3-3.43,2.27s-1.7,2.13-2.23,3.46c-0.52,1.32-0.79,2.79-0.79,4.38c0,1.58,0.27,3.06,0.79,4.39
		c0.53,1.33,1.28,2.5,2.23,3.47s2.11,1.74,3.43,2.27c1.32,0.53,2.79,0.8,4.38,0.8c1.58,0,3.05-0.27,4.37-0.8
		c1.31-0.53,2.47-1.3,3.43-2.27c0.96-0.97,1.72-2.14,2.24-3.47s0.79-2.8,0.79-4.39c0-1.58-0.27-3.06-0.79-4.38
		C168.86,352.4,168.11,351.24,167.14,350.26 M166.12,361.1c-0.35,0.91-0.86,1.72-1.51,2.4s-1.43,1.21-2.32,1.6
		c-0.89,0.38-1.88,0.58-2.94,0.58c-1.07,0-2.06-0.19-2.94-0.58c-0.89-0.38-1.67-0.92-2.31-1.6s-1.15-1.48-1.51-2.4
		s-0.54-1.93-0.54-3s0.18-2.08,0.54-3s0.87-1.72,1.51-2.4c0.64-0.67,1.42-1.21,2.3-1.58c0.89-0.37,1.88-0.57,2.95-0.57
		c1.07,0,2.06,0.19,2.95,0.57c0.89,0.37,1.67,0.91,2.32,1.58c0.65,0.68,1.16,1.48,1.51,2.4c0.35,0.92,0.53,1.93,0.53,3
		C166.66,359.17,166.48,360.18,166.12,361.1"/>
	<path class="st1" d="M118.13,381.94c-0.32-0.28-0.81-0.47-1.48-0.56c-0.37-0.05-0.67-0.12-0.89-0.22s-0.38-0.22-0.47-0.36
		c-0.1-0.14-0.14-0.29-0.14-0.46c0-0.31,0.13-0.55,0.38-0.71s0.59-0.24,1.01-0.24c0.24,0,0.44,0.04,0.61,0.09
		c0.17,0.06,0.31,0.14,0.43,0.24c0.12,0.1,0.22,0.21,0.3,0.32c0.04,0.07,0.1,0.12,0.19,0.14c0.08,0.02,0.16,0.02,0.24-0.02
		c0.07-0.04,0.12-0.1,0.14-0.17s0-0.15-0.05-0.23c-0.11-0.17-0.26-0.32-0.43-0.46c-0.18-0.14-0.39-0.25-0.62-0.34
		c-0.24-0.08-0.5-0.13-0.8-0.13c-0.39,0-0.74,0.06-1.04,0.18s-0.54,0.29-0.71,0.51s-0.26,0.48-0.26,0.77c0,0.41,0.18,0.76,0.53,1.05
		c0.35,0.29,0.84,0.46,1.46,0.53c0.51,0.06,0.88,0.19,1.12,0.41c0.24,0.21,0.36,0.47,0.36,0.77c0,0.23-0.06,0.43-0.19,0.6
		c-0.12,0.16-0.3,0.29-0.51,0.37c-0.22,0.08-0.47,0.13-0.75,0.13c-0.25,0-0.49-0.03-0.7-0.09s-0.4-0.15-0.55-0.26
		c-0.15-0.11-0.27-0.24-0.35-0.38c-0.04-0.07-0.09-0.12-0.16-0.15c-0.07-0.03-0.14-0.04-0.22-0.02c-0.1,0.02-0.16,0.07-0.2,0.14
		c-0.04,0.07-0.04,0.14,0,0.22c0.11,0.22,0.27,0.41,0.49,0.58c0.21,0.17,0.46,0.29,0.75,0.38s0.6,0.14,0.94,0.14
		c0.29,0,0.56-0.04,0.81-0.11c0.25-0.07,0.47-0.18,0.66-0.32s0.34-0.31,0.44-0.52c0.1-0.21,0.16-0.44,0.16-0.7
		C118.61,382.6,118.45,382.22,118.13,381.94"/>
	<path class="st1" d="M124.88,378.92h-1.9h-0.62h-1.89c-0.08,0-0.15,0.02-0.21,0.07c-0.05,0.05-0.08,0.11-0.08,0.19
		c0,0.07,0.03,0.13,0.08,0.18s0.12,0.07,0.21,0.07h1.89v4.9c0,0.08,0.03,0.14,0.09,0.2s0.13,0.08,0.22,0.08
		c0.09,0,0.16-0.03,0.22-0.08c0.06-0.06,0.09-0.12,0.09-0.2v-4.9h1.9c0.08,0,0.15-0.02,0.21-0.07c0.05-0.05,0.08-0.11,0.08-0.18
		c0-0.08-0.03-0.14-0.08-0.19C125.04,378.94,124.97,378.92,124.88,378.92"/>
	<path class="st1" d="M131.98,378.92c-0.09,0-0.16,0.03-0.22,0.08s-0.09,0.12-0.09,0.2v3.54c0,0.29-0.08,0.54-0.24,0.76
		s-0.37,0.39-0.65,0.52c-0.28,0.12-0.59,0.19-0.95,0.19s-0.68-0.06-0.96-0.19c-0.28-0.13-0.5-0.3-0.66-0.52s-0.23-0.47-0.23-0.76
		v-3.54c0-0.08-0.03-0.15-0.09-0.2c-0.06-0.05-0.13-0.08-0.22-0.08c-0.09,0-0.16,0.03-0.22,0.08s-0.09,0.12-0.09,0.2v3.54
		c0,0.39,0.1,0.74,0.31,1.04c0.21,0.3,0.5,0.54,0.88,0.71c0.37,0.17,0.8,0.26,1.29,0.26c0.48,0,0.9-0.08,1.27-0.26
		c0.37-0.17,0.66-0.41,0.87-0.71c0.21-0.3,0.31-0.65,0.31-1.04v-3.54c0-0.08-0.03-0.15-0.08-0.2
		C132.15,378.94,132.07,378.92,131.98,378.92"/>
	<path class="st1" d="M139.14,379.72c-0.28-0.26-0.6-0.45-0.98-0.59c-0.38-0.14-0.8-0.21-1.25-0.21h-1.43
		c-0.09,0-0.16,0.03-0.22,0.08s-0.09,0.12-0.09,0.2v5.14c0,0.08,0.03,0.15,0.09,0.2c0.06,0.05,0.13,0.08,0.22,0.08h1.43
		c0.46,0,0.87-0.07,1.25-0.21c0.38-0.14,0.71-0.34,0.98-0.59c0.28-0.26,0.49-0.56,0.64-0.91s0.23-0.73,0.23-1.15
		c0-0.42-0.08-0.8-0.23-1.15C139.63,380.27,139.42,379.97,139.14,379.72 M139.08,382.98c-0.21,0.35-0.51,0.63-0.88,0.83
		c-0.37,0.2-0.81,0.3-1.29,0.3h-1.12v-4.68h1.12c0.49,0,0.92,0.1,1.29,0.3c0.37,0.2,0.67,0.48,0.88,0.83
		c0.21,0.35,0.32,0.76,0.32,1.21C139.39,382.22,139.29,382.62,139.08,382.98"/>
	<path class="st1" d="M142.88,378.92c-0.09,0-0.16,0.03-0.22,0.08s-0.09,0.12-0.09,0.2v5.14c0,0.08,0.03,0.15,0.09,0.2
		c0.06,0.05,0.13,0.08,0.22,0.08s0.16-0.03,0.22-0.08s0.09-0.12,0.09-0.2v-5.14c0-0.08-0.03-0.15-0.09-0.2
		C143.04,378.94,142.97,378.92,142.88,378.92"/>
	<path class="st1" d="M151.21,379.68c-0.29-0.26-0.62-0.47-1.01-0.61c-0.39-0.15-0.81-0.22-1.27-0.22s-0.89,0.07-1.27,0.22
		c-0.39,0.15-0.72,0.35-1.01,0.61c-0.28,0.26-0.51,0.57-0.66,0.93c-0.16,0.36-0.23,0.74-0.23,1.16s0.08,0.81,0.23,1.17
		c0.16,0.36,0.38,0.66,0.66,0.93c0.28,0.26,0.62,0.47,1.01,0.61c0.39,0.15,0.81,0.22,1.27,0.22s0.88-0.07,1.27-0.22
		s0.72-0.35,1.01-0.61c0.29-0.26,0.51-0.57,0.67-0.93s0.23-0.75,0.23-1.17s-0.08-0.81-0.23-1.16
		C151.72,380.25,151.49,379.94,151.21,379.68 M151.3,382.71c-0.13,0.29-0.31,0.54-0.54,0.76s-0.5,0.38-0.82,0.5
		c-0.31,0.12-0.65,0.18-1.02,0.18c-0.37,0-0.71-0.06-1.03-0.18c-0.31-0.12-0.59-0.29-0.82-0.5c-0.23-0.22-0.41-0.47-0.54-0.76
		c-0.13-0.29-0.19-0.6-0.19-0.95c0-0.34,0.06-0.65,0.19-0.94s0.31-0.54,0.54-0.76s0.5-0.38,0.82-0.5c0.31-0.12,0.66-0.18,1.03-0.18
		s0.71,0.06,1.02,0.18s0.59,0.29,0.82,0.5c0.23,0.22,0.41,0.47,0.54,0.76c0.13,0.29,0.19,0.6,0.19,0.94
		C151.49,382.11,151.43,382.42,151.3,382.71"/>
	<path class="st1" d="M160.85,382.27c0.09-0.03,0.17-0.06,0.26-0.1c0.3-0.15,0.54-0.35,0.71-0.61c0.17-0.26,0.26-0.55,0.26-0.88
		c0-0.35-0.09-0.65-0.26-0.92c-0.17-0.26-0.41-0.47-0.71-0.62s-0.65-0.22-1.04-0.22h-1.49c-0.09,0-0.17,0.03-0.22,0.08
		c-0.06,0.05-0.09,0.12-0.09,0.2v5.14c0,0.08,0.03,0.15,0.09,0.2c0.06,0.05,0.13,0.08,0.22,0.08s0.16-0.03,0.22-0.08
		s0.09-0.12,0.09-0.2v-1.95h1.18c0.05,0,0.09,0,0.14-0.01l1.43,2.1c0.03,0.05,0.07,0.08,0.11,0.11c0.04,0.02,0.09,0.04,0.16,0.04
		c0.14,0,0.24-0.04,0.29-0.13c0.05-0.09,0.04-0.19-0.04-0.31L160.85,382.27z M160.07,381.84h-1.18v-2.38h1.18
		c0.27,0,0.51,0.05,0.72,0.15s0.38,0.24,0.5,0.43c0.12,0.18,0.18,0.39,0.18,0.63c0,0.22-0.06,0.42-0.18,0.6s-0.29,0.31-0.5,0.41
		C160.58,381.79,160.34,381.84,160.07,381.84"/>
	<path class="st1" d="M168.52,379.47c0.08,0,0.16-0.03,0.22-0.08s0.09-0.12,0.09-0.19c0-0.08-0.03-0.15-0.09-0.2
		c-0.06-0.05-0.13-0.08-0.22-0.08h-3.74c-0.09,0-0.16,0.03-0.22,0.08s-0.09,0.12-0.09,0.2v5.14c0,0.08,0.03,0.15,0.09,0.2
		c0.06,0.05,0.13,0.08,0.22,0.08h3.74c0.08,0,0.16-0.03,0.22-0.08s0.09-0.12,0.09-0.2c0-0.07-0.03-0.14-0.09-0.19
		s-0.13-0.08-0.22-0.08h-3.43v-2.04h2.49c0.09,0,0.16-0.03,0.22-0.08s0.09-0.12,0.09-0.2c0-0.08-0.03-0.14-0.09-0.2
		c-0.06-0.05-0.13-0.08-0.22-0.08h-2.49v-2.02h3.43V379.47z"/>
	<path class="st1" d="M175.31,379.19c0-0.08-0.02-0.14-0.07-0.19s-0.12-0.08-0.22-0.08c-0.05,0-0.09,0.01-0.13,0.02
		c-0.04,0.01-0.08,0.04-0.12,0.08l-2.91,2.67v-2.48c0-0.08-0.03-0.15-0.09-0.2c-0.06-0.06-0.13-0.08-0.22-0.08
		c-0.08,0-0.16,0.03-0.22,0.08c-0.06,0.06-0.09,0.12-0.09,0.2v5.14c0,0.08,0.03,0.15,0.09,0.2c0.06,0.06,0.13,0.08,0.22,0.08
		c0.08,0,0.16-0.03,0.22-0.08c0.06-0.06,0.09-0.12,0.09-0.2v-1.87l0.71-0.66l2.17,2.69c0.06,0.08,0.15,0.12,0.26,0.12
		c0.07,0,0.14-0.02,0.19-0.07c0.05-0.05,0.08-0.11,0.09-0.18s-0.01-0.14-0.06-0.2l-2.21-2.76l2.18-2
		C175.28,379.34,175.31,379.27,175.31,379.19"/>
	<path class="st1" d="M181.48,384.08h-3.11v-4.88c0-0.08-0.03-0.15-0.09-0.2c-0.06-0.06-0.13-0.08-0.22-0.08
		c-0.08,0-0.16,0.03-0.22,0.08s-0.09,0.12-0.09,0.2v5.14c0,0.08,0.03,0.15,0.09,0.2c0.06,0.05,0.13,0.08,0.22,0.08h3.43
		c0.08,0,0.16-0.02,0.22-0.08c0.06-0.05,0.09-0.12,0.09-0.19c0-0.08-0.03-0.14-0.09-0.19C181.64,384.11,181.57,384.08,181.48,384.08
		"/>
	<path class="st1" d="M186.38,379.12c-0.06-0.13-0.16-0.2-0.3-0.2s-0.24,0.07-0.3,0.2l-2.34,5.1c-0.04,0.09-0.04,0.18,0.02,0.27
		c0.05,0.09,0.14,0.14,0.26,0.14c0.06,0,0.12-0.01,0.17-0.04s0.09-0.07,0.12-0.13l0.54-1.18h3.08l0.53,1.18
		c0.03,0.06,0.07,0.1,0.12,0.13c0.05,0.03,0.11,0.04,0.17,0.04c0.11,0,0.2-0.04,0.26-0.13s0.07-0.18,0.02-0.27L186.38,379.12z
		 M184.77,382.78l1.33-2.93l1.31,2.93H184.77z"/>
	<path class="st1" d="M196.86,378.92c-0.12,0-0.21,0.05-0.28,0.15l-2.5,4.65l-2.55-4.65c-0.06-0.1-0.15-0.15-0.28-0.15
		c-0.08,0-0.16,0.03-0.22,0.08s-0.09,0.12-0.09,0.2v5.14c0,0.08,0.03,0.14,0.09,0.2s0.13,0.08,0.22,0.08c0.08,0,0.16-0.03,0.22-0.08
		c0.06-0.06,0.09-0.12,0.09-0.2v-4.07l2.21,4.05c0.06,0.12,0.15,0.18,0.29,0.18c0.12,0,0.21-0.05,0.27-0.14l2.21-4.15v4.14
		c0,0.08,0.03,0.14,0.09,0.2s0.14,0.08,0.23,0.08c0.08,0,0.16-0.03,0.21-0.08c0.06-0.06,0.09-0.12,0.09-0.2v-5.14
		c0-0.08-0.03-0.15-0.09-0.2C197.01,378.94,196.94,378.92,196.86,378.92"/>
	<path class="st1" d="M204.08,378.92c-0.06,0-0.12,0.01-0.16,0.04c-0.05,0.02-0.09,0.06-0.12,0.12l-1.98,2.92l-1.98-2.93
		c-0.03-0.04-0.07-0.08-0.11-0.1c-0.04-0.02-0.09-0.04-0.16-0.04c-0.08,0-0.15,0.02-0.2,0.07c-0.05,0.04-0.09,0.1-0.1,0.17
		c-0.01,0.07,0.01,0.14,0.06,0.21l2.17,3.15v1.83c0,0.08,0.03,0.14,0.09,0.2s0.13,0.08,0.22,0.08c0.08,0,0.16-0.03,0.22-0.08
		c0.06-0.06,0.09-0.12,0.09-0.2v-1.83l2.17-3.15c0.05-0.07,0.07-0.14,0.06-0.2c-0.01-0.07-0.04-0.13-0.09-0.17
		C204.22,378.94,204.15,378.92,204.08,378.92"/>
	<path class="st1" d="M215.06,381.57h-6.3c-0.09,0-0.17,0.1-0.17,0.22s0.08,0.22,0.17,0.22h6.3c0.09,0,0.17-0.1,0.17-0.22
		S215.15,381.57,215.06,381.57"/>
	<path class="st1" d="M109.94,381.57h-6.3c-0.09,0-0.17,0.1-0.17,0.22s0.08,0.22,0.17,0.22h6.3c0.09,0,0.17-0.1,0.17-0.22
		S110.03,381.57,109.94,381.57"/>
</g>
<text transform="matrix(1 0 0 1 39.4199 136.2117)" class="st1 st5 st6 st7">29. finał WOŚP</text>
<text transform="matrix(1 0 0 1 39.4199 180.6117)" class="st1 st8 st9 st7">Wspieramy się razem!</text>
<g>
	<text transform="matrix(1 0 0 1 195.0752 57.7136)" class="st1 st5 st10">Laryngologia, otolaryngologia i diagnostyka - FINAŁ Z GŁOWĄ</text>
</g>
<g>
	<path class="st11" d="M613.24,318.54l-0.07-0.83c-0.37-4.63-4.39-8.1-9.03-7.79c-2.42,0.16-4.68,1.25-6.32,3.03l-25.23,27.5
		c-3.47,3.78-7.85,6.61-12.72,8.21l-2.31,0.76c-3.27,1.08-6.71,1.59-10.15,1.5L510.37,350l30.61-12.41
		c3.79-1.54,5.63-5.86,4.11-9.66l-0.41-1.03c-1.28-3.19-4.59-5.09-7.99-4.58c-12.1,1.79-39.86,5.99-51.77,8.46
		c-11.46,2.38-27.5,23.91-35.03,34.89c-2.75,4.02-4.24,8.71-4.28,13.58c-0.04,5.54,2.73,10.72,7.37,13.76l2.63,1.72
		c4.89,3.21,10.72,4.68,16.55,4.19l73.96-6.2c9.47-0.79,18.17-5.58,23.9-13.16l41.34-54.6
		C612.75,323.14,613.42,320.84,613.24,318.54z"/>
	<path class="st3" d="M615.03,316.38l-0.07-0.83c-0.37-4.63-4.39-8.1-9.03-7.79c-2.42,0.16-4.68,1.25-6.32,3.03l-25.23,27.5
		c-3.47,3.78-7.85,6.61-12.72,8.21l-2.31,0.76c-3.27,1.08-6.71,1.59-10.15,1.5l-37.04-0.92l30.61-12.41
		c3.79-1.54,5.63-5.86,4.11-9.66l-0.41-1.03c-1.28-3.19-4.59-5.09-7.99-4.58c-12.1,1.79-39.86,5.99-51.77,8.46
		c-11.46,2.38-27.5,23.91-35.03,34.89c-2.75,4.02-4.24,8.71-4.28,13.58c-0.04,5.54,2.73,10.72,7.37,13.76l2.63,1.72
		c4.89,3.21,10.72,4.68,16.55,4.19l73.96-6.2c9.47-0.79,18.17-5.58,23.9-13.16l41.34-54.6
		C614.55,320.99,615.22,318.69,615.03,316.38z"/>
	<path class="st12" d="M480.39,405.32l-30.01,25.62c-1.65,1.41-4.12,1.21-5.53-0.43l-33.37-39.09c-1.41-1.65-1.21-4.13,0.43-5.53
		l1.83-1.56l28.18-24.06c1.65-1.41,4.12-1.21,5.53,0.44l3.45,4.04l27.07,31.58l1.73,1.88l0,0l1.12,1.45
		C482.23,401.29,482.03,403.91,480.39,405.32z"/>
	<path class="st13" d="M480.39,405.32l-30.01,25.62c-1.65,1.41-4.12,1.21-5.53-0.43l-33.37-39.09c-1.41-1.65-1.21-4.13,0.43-5.53
		l1.83-1.56c1.27,3.99,4.36,7.67,12.19,6.35c15.96-2.69,16.85,6.65,23.85,10.44c8.49,4.6,20.89-1.69,29.92-2.92l0,0l1.12,1.45
		C482.23,401.29,482.03,403.91,480.39,405.32z"/>
</g>
<defs>
	<filter id="Adobe_OpacityMaskFilter" filterUnits="userSpaceOnUse" x="95.2" y="209.64" width="605.63" height="202.2">
		<feFlood  style="flood-color:white;flood-opacity:1" result="back"/>
		<feBlend  in="SourceGraphic" in2="back" mode="normal"/>
	</filter>
</defs>
<mask maskUnits="userSpaceOnUse" x="95.2" y="209.64" width="605.63" height="202.2" id="SVGID_4_">
	<g class="st14">
		<path d="M516.01,323.57c-0.07,0-4.9,0.79-4.9,0.79l-0.45,3.36l4.38,2.03l29.35,4.23l3.54-5.71c0,0-6.97-4.95-7.05-4.95
			c-0.07,0-18.84-0.74-18.84-0.74L516.01,323.57z"/>
		<polygon points="583.55,330.22 578.54,338.13 591.86,340.93 601.52,338.17 604.12,334.7 592.12,330.22 		"/>
	</g>
</mask>
<g class="st15">
	<g>
		<path class="st16" d="M95.2,210.64c0.66,0,1.33,0.02,2,0.05"/>
		<path class="st17" d="M103.14,211.42c53.54,10.23,128.91,117.17,158.29,142.08c52.48,44.5,375.24,87.43,431.91,28.85
			c55.37-57.24-263.26-42.31-213.68-81.45"/>
		<path class="st16" d="M482.07,299.15c0.53-0.36,1.09-0.72,1.68-1.08"/>
	</g>
</g>
</svg>
