<?xml version="1.0" encoding="utf-8"?>
<!-- Generator: Adobe Illustrator 19.0.0, SVG Export Plug-In . SVG Version: 6.00 Build 0)  -->
<svg version="1.1" id="Warstwa_1" xmlns="http://www.w3.org/2000/svg" xmlns:xlink="http://www.w3.org/1999/xlink" x="0px" y="0px"
	 viewBox="163 15 825 472" style="enable-background:new 163 15 825 472;" xml:space="preserve">
<style type="text/css">
	.st0{clip-path:url(#SVGID_2_);fill:url(#SVGID_3_);}
	.st1{fill:#FFFFFF;}
	.st2{fill:#FCC812;}
	.st3{fill:#BD960D;}
	.st4{fill:#43B38F;}
	.st5{fill:#32866B;}
	.st6{fill:none;stroke:#404040;stroke-width:2.4398;stroke-miterlimit:10;}
	.st7{fill:none;stroke:#404040;stroke-width:2.4398;stroke-miterlimit:10;stroke-dasharray:4.8762,7.3143;}
</style>
<g>
	<g>
		<g>
			<defs>
				<rect id="SVGID_1_" x="163" y="15" width="825" height="472"/>
			</defs>
			<clipPath id="SVGID_2_">
				<use xlink:href="#SVGID_1_"  style="overflow:visible;"/>
			</clipPath>
			
				<linearGradient id="SVGID_3_" gradientUnits="userSpaceOnUse" x1="-879.9618" y1="1247.1718" x2="-878.373" y2="1247.1718" gradientTransform="matrix(526.5874 0 0 -526.5874 463517 657038.5)">
				<stop  offset="0" style="stop-color:#379E6E"/>
				<stop  offset="1" style="stop-color:#72C6D4"/>
			</linearGradient>
			<rect x="140.2" y="-141.8" class="st0" width="870.6" height="870.6"/>
		</g>
	</g>
</g>
<g>
	<path class="st1" d="M224.9,122.5c7.2-0.1,14.1-2.9,19.3-8c5.2-5.1,8.2-11.9,8.4-19.1c0.1-5.5-1.3-10.8-4.2-15.4
		c-0.4-0.6-1.1-1-1.8-1c-0.8,0-1.4,0.4-1.8,1.1c-0.4,0.7-0.4,1.5,0.1,2.1c2.5,4,3.7,8.7,3.5,13.5c-0.5,11.7-10.8,22.1-22.6,22.6
		c-6.7,0.3-13.2-2.2-17.9-6.9c-4.7-4.7-7.2-11.2-6.9-17.9c0.6-11.7,10.9-22,22.7-22.6c4.8-0.2,9.5,1,13.5,3.5c0.7,0.4,1.4,0.4,2.1,0
		c0.7-0.4,1.1-1,1.1-1.8c0-0.7-0.4-1.4-1-1.8c-4.6-2.9-10-4.3-15.4-4.2c-7.2,0.2-14,3.2-19.1,8.4c-5.1,5.2-8,12-8,19.3
		c-0.1,7.5,2.8,14.6,8.2,20c5.3,5.3,12.3,8.2,19.7,8.2C224.7,122.5,224.8,122.5,224.9,122.5"/>
	<path class="st1" d="M224.6,77.8c-1,0-1.7,0.5-2.1,1.5L212,104.4c-0.3,0.8-0.3,1.5,0.1,2.1c0.4,0.7,1,1,1.8,1
		c0.4,0,0.8-0.1,1.2-0.3c0.4-0.2,0.7-0.6,0.9-1l3.2-7.7h11l3.1,7.7c0.2,0.4,0.4,0.8,0.8,1c0.4,0.2,0.8,0.4,1.2,0.4
		c0.8,0,1.4-0.3,1.8-1c0.4-0.6,0.5-1.4,0.2-2.1l-10.6-25.2C226.3,78.3,225.6,77.8,224.6,77.8 M220.6,95l4.1-10l4,10H220.6z"/>
	<path class="st1" d="M278.6,96.5c0.3-0.5,0.4-1,0.1-1.6l-7.4-17.6c-0.3-0.7-0.8-1.1-1.6-1.1c-0.7,0-1.2,0.4-1.6,1.1l-7.3,17.5
		c-0.2,0.6-0.2,1.1,0.1,1.6c0.3,0.5,0.8,0.8,1.4,0.8c0.3,0,0.6-0.1,0.9-0.2c0.3-0.2,0.5-0.4,0.7-0.8l2.2-5.3h7.5l2.1,5.3
		c0.1,0.3,0.3,0.6,0.6,0.8c0.3,0.2,0.6,0.3,0.9,0.3C277.9,97.2,278.3,97,278.6,96.5 M267.2,88.2l2.7-6.5l2.6,6.5H267.2z"/>
	<path class="st1" d="M284.8,85.6c0.7-0.3,1.5-0.5,2.5-0.4c0.2,0,0.5,0,0.7-0.1c0.2-0.1,0.4-0.2,0.5-0.4c0.1-0.2,0.2-0.5,0.2-0.8
		c0-0.4-0.1-1-0.9-1.4c-0.6-0.3-1.3-0.3-2.3-0.1c-0.8,0.2-1.5,0.5-2.1,1c-0.1-0.3-0.2-0.6-0.4-0.8c-0.3-0.3-0.7-0.4-1.2-0.4
		c-0.5,0-0.9,0.1-1.2,0.4c-0.3,0.3-0.4,0.7-0.4,1.2v11.9c0,0.5,0.1,0.9,0.4,1.2c0.3,0.3,0.7,0.4,1.2,0.4c0.5,0,0.9-0.1,1.2-0.4
		c0.3-0.3,0.4-0.7,0.4-1.2v-8.8C283.6,86.3,284.1,85.9,284.8,85.6"/>
	<path class="st1" d="M298,94h-0.9c-0.5,0-0.9-0.2-1.2-0.6c-0.3-0.4-0.5-0.9-0.5-1.6v-6.5h2c0.4,0,0.8-0.1,1.1-0.4
		c0.3-0.3,0.4-0.6,0.4-1c0-0.4-0.1-0.8-0.4-1.1c-0.3-0.3-0.6-0.4-1.1-0.4h-2v-3.1c0-0.5-0.1-0.9-0.4-1.1c-0.3-0.3-0.7-0.5-1.1-0.5
		c-0.5,0-0.9,0.1-1.2,0.5c-0.3,0.3-0.5,0.7-0.5,1.1v3.1h-0.8c-0.4,0-0.8,0.1-1.1,0.4c-0.3,0.3-0.4,0.6-0.4,1.1c0,0.4,0.1,0.7,0.4,1
		c0.3,0.3,0.6,0.4,1.1,0.4h0.8v6.5c0,1,0.2,1.9,0.6,2.7c0.4,0.8,1,1.5,1.8,1.9c0.7,0.5,1.6,0.7,2.5,0.7h0.5c0.5,0,1-0.1,1.3-0.4
		c0.4-0.3,0.5-0.7,0.5-1.2c0-0.5-0.1-0.8-0.4-1.1C298.7,94.2,298.4,94,298,94"/>
	<path class="st1" d="M342.3,93.5c0.6-1.1,0.9-2.4,0.9-3.8c0-1.4-0.3-2.7-1-3.9c-0.7-1.1-1.6-2-2.7-2.7s-2.4-1-3.8-1
		c-1.4,0-2.7,0.3-3.8,1s-2,1.6-2.7,2.7c-0.6,1.1-1,2.4-1,3.9v11.9c0,0.5,0.2,0.9,0.5,1.2c0.3,0.3,0.7,0.5,1.2,0.5
		c0.5,0,0.9-0.2,1.2-0.5s0.4-0.7,0.4-1.2v-6.3c0.5,0.5,1.1,0.9,1.8,1.2c0.9,0.5,1.9,0.7,3,0.7c1.3,0,2.5-0.3,3.6-1
		C340.9,95.6,341.7,94.7,342.3,93.5 M339.5,92c-0.4,0.7-0.9,1.2-1.5,1.6c-0.6,0.4-1.4,0.6-2.2,0.6c-0.8,0-1.6-0.2-2.2-0.6
		s-1.2-1-1.5-1.6s-0.6-1.5-0.6-2.4c0-0.9,0.2-1.7,0.6-2.4s0.9-1.2,1.5-1.6c0.6-0.4,1.4-0.6,2.2-0.6c0.8,0,1.6,0.2,2.2,0.6
		s1.2,1,1.5,1.6s0.6,1.5,0.6,2.4C340.1,90.6,339.9,91.3,339.5,92"/>
	<path class="st1" d="M357.4,94.5c0-0.4-0.2-0.8-0.6-1.1c-0.3-0.2-0.6-0.4-1-0.4c-0.4,0-0.7,0.1-1,0.4c-0.3,0.2-0.8,0.5-1.3,0.6
		s-1.1,0.3-1.6,0.3c-0.9,0-1.8-0.2-2.5-0.6c-0.7-0.4-1.3-1-1.7-1.7c-0.2-0.4-0.4-0.8-0.5-1.2h9.6c0.4,0,0.8-0.1,1.1-0.4
		c0.3-0.3,0.4-0.6,0.4-1c0-1.4-0.3-2.7-0.8-3.8c-0.5-1.1-1.3-2-2.4-2.6c-1-0.6-2.2-1-3.7-1c-1.4,0-2.7,0.3-3.8,1
		c-1.1,0.6-2,1.5-2.6,2.7c-0.6,1.1-0.9,2.5-0.9,3.9c0,1.5,0.3,2.8,1,3.9s1.6,2,2.8,2.7c1.2,0.6,2.5,1,4,1c0.8,0,1.7-0.2,2.6-0.5
		c0.9-0.3,1.7-0.7,2.3-1.2C357.3,95.2,357.4,94.8,357.4,94.5 M347.6,87.2c0.3-0.7,0.8-1.3,1.5-1.7c0.6-0.4,1.5-0.6,2.4-0.6
		c0.8,0,1.5,0.2,2.1,0.5c0.6,0.4,1,0.9,1.3,1.5c0.2,0.4,0.3,0.8,0.4,1.2h-8C347.4,87.9,347.5,87.5,347.6,87.2"/>
	<path class="st1" d="M368.7,86.8c0.3,0.6,0.5,1.4,0.5,2.3v6.5c0,0.5,0.2,0.9,0.5,1.2c0.3,0.3,0.7,0.5,1.2,0.5
		c0.5,0,0.9-0.2,1.2-0.5s0.5-0.7,0.5-1.2v-6.5c0-1.5-0.3-2.8-0.9-3.8s-1.4-1.9-2.4-2.4c-1-0.5-2.1-0.8-3.4-0.8
		c-1.2,0-2.3,0.3-3.3,0.8c-0.1,0.1-0.2,0.1-0.3,0.2c-0.1-0.1-0.2-0.3-0.3-0.4c-0.3-0.3-0.7-0.5-1.2-0.5c-0.5,0-0.9,0.1-1.2,0.5
		c-0.3,0.3-0.5,0.7-0.5,1.2v11.7c0,0.5,0.2,0.9,0.5,1.2c0.3,0.3,0.7,0.5,1.2,0.5c0.5,0,0.9-0.2,1.2-0.5s0.4-0.7,0.4-1.2v-9.3
		c0.3-0.3,0.6-0.6,1-0.8c0.5-0.3,1.2-0.4,1.9-0.4c0.8,0,1.4,0.1,2,0.4C368,85.8,368.4,86.3,368.7,86.8"/>
	<path class="st1" d="M324.4,78.9L324.4,78.9c-1-1-2.1-1.7-3.4-2.3s-2.8-0.8-4.4-0.8c-1.6,0-3.1,0.3-4.4,0.8
		c-1.3,0.5-2.5,1.3-3.4,2.3c-1,1-1.7,2.1-2.2,3.5c-0.5,1.3-0.8,2.8-0.8,4.4c0,1.6,0.3,3.1,0.8,4.4c0.5,1.3,1.3,2.5,2.2,3.5
		c0.9,1,2.1,1.7,3.4,2.3s2.8,0.8,4.4,0.8c1.6,0,3-0.3,4.4-0.8c1.3-0.5,2.5-1.3,3.4-2.3s1.7-2.1,2.2-3.5c0.5-1.3,0.8-2.8,0.8-4.4
		c0-1.6-0.3-3.1-0.8-4.4C326.2,81,325.4,79.8,324.4,78.9 M323.4,89.7c-0.4,0.9-0.9,1.7-1.5,2.4s-1.4,1.2-2.3,1.6
		c-0.9,0.4-1.9,0.6-2.9,0.6c-1.1,0-2.1-0.2-2.9-0.6c-0.9-0.4-1.7-0.9-2.3-1.6c-0.6-0.7-1.1-1.5-1.5-2.4c-0.4-0.9-0.5-1.9-0.5-3
		s0.2-2.1,0.5-3c0.4-0.9,0.9-1.7,1.5-2.4c0.6-0.7,1.4-1.2,2.3-1.6c0.9-0.4,1.9-0.6,3-0.6s2.1,0.2,2.9,0.6c0.9,0.4,1.7,0.9,2.3,1.6
		c0.6,0.7,1.2,1.5,1.5,2.4c0.4,0.9,0.5,1.9,0.5,3C324,87.8,323.8,88.8,323.4,89.7"/>
	<path class="st1" d="M275.4,110.5c-0.3-0.3-0.8-0.5-1.5-0.6c-0.4,0-0.7-0.1-0.9-0.2s-0.4-0.2-0.5-0.4c-0.1-0.1-0.1-0.3-0.1-0.5
		c0-0.3,0.1-0.5,0.4-0.7s0.6-0.2,1-0.2c0.2,0,0.4,0,0.6,0.1c0.2,0.1,0.3,0.1,0.4,0.2c0.1,0.1,0.2,0.2,0.3,0.3c0,0.1,0.1,0.1,0.2,0.1
		c0.1,0,0.2,0,0.2,0c0.1,0,0.1-0.1,0.1-0.2c0-0.1,0-0.1,0-0.2c-0.1-0.2-0.3-0.3-0.4-0.5c-0.2-0.1-0.4-0.2-0.6-0.3
		c-0.2-0.1-0.5-0.1-0.8-0.1c-0.4,0-0.7,0.1-1,0.2c-0.3,0.1-0.5,0.3-0.7,0.5c-0.2,0.2-0.3,0.5-0.3,0.8c0,0.4,0.2,0.8,0.5,1
		c0.4,0.3,0.8,0.5,1.5,0.5c0.5,0.1,0.9,0.2,1.1,0.4c0.2,0.2,0.4,0.5,0.4,0.8c0,0.2-0.1,0.4-0.2,0.6c-0.1,0.2-0.3,0.3-0.5,0.4
		c-0.2,0.1-0.5,0.1-0.8,0.1c-0.2,0-0.5,0-0.7-0.1c-0.2-0.1-0.4-0.1-0.6-0.3c-0.1-0.1-0.3-0.2-0.4-0.4c0-0.1-0.1-0.1-0.2-0.1
		s-0.1,0-0.2,0c-0.1,0-0.2,0.1-0.2,0.1c0,0.1,0,0.1,0,0.2c0.1,0.2,0.3,0.4,0.5,0.6c0.2,0.2,0.5,0.3,0.8,0.4c0.3,0.1,0.6,0.1,0.9,0.1
		c0.3,0,0.6,0,0.8-0.1c0.2-0.1,0.5-0.2,0.7-0.3s0.3-0.3,0.4-0.5s0.2-0.4,0.2-0.7C275.9,111.2,275.8,110.8,275.4,110.5"/>
	<path class="st1" d="M282.2,107.5h-1.9h-0.6h-1.9c-0.1,0-0.1,0-0.2,0.1c-0.1,0-0.1,0.1-0.1,0.2c0,0.1,0,0.1,0.1,0.2
		c0,0,0.1,0.1,0.2,0.1h1.9v4.9c0,0.1,0,0.1,0.1,0.2s0.1,0.1,0.2,0.1s0.2,0,0.2-0.1c0.1-0.1,0.1-0.1,0.1-0.2V108h1.9
		c0.1,0,0.1,0,0.2-0.1c0.1,0,0.1-0.1,0.1-0.2c0-0.1,0-0.1-0.1-0.2C282.3,107.6,282.3,107.5,282.2,107.5"/>
	<path class="st1" d="M289.3,107.5c-0.1,0-0.2,0-0.2,0.1s-0.1,0.1-0.1,0.2v3.5c0,0.3-0.1,0.5-0.2,0.8s-0.4,0.4-0.6,0.5
		c-0.3,0.1-0.6,0.2-1,0.2c-0.4,0-0.7-0.1-1-0.2s-0.5-0.3-0.7-0.5s-0.2-0.5-0.2-0.8v-3.5c0-0.1,0-0.1-0.1-0.2c-0.1,0-0.1-0.1-0.2-0.1
		s-0.2,0-0.2,0.1s-0.1,0.1-0.1,0.2v3.5c0,0.4,0.1,0.7,0.3,1c0.2,0.3,0.5,0.5,0.9,0.7c0.4,0.2,0.8,0.3,1.3,0.3c0.5,0,0.9-0.1,1.3-0.3
		c0.4-0.2,0.7-0.4,0.9-0.7c0.2-0.3,0.3-0.6,0.3-1v-3.5c0-0.1,0-0.1-0.1-0.2C289.4,107.6,289.4,107.5,289.3,107.5"/>
	<path class="st1" d="M296.4,108.3c-0.3-0.3-0.6-0.5-1-0.6c-0.4-0.1-0.8-0.2-1.2-0.2h-1.4c-0.1,0-0.2,0-0.2,0.1s-0.1,0.1-0.1,0.2
		v5.1c0,0.1,0,0.1,0.1,0.2c0.1,0,0.1,0.1,0.2,0.1h1.4c0.5,0,0.9-0.1,1.2-0.2c0.4-0.1,0.7-0.3,1-0.6c0.3-0.3,0.5-0.6,0.6-0.9
		s0.2-0.7,0.2-1.1c0-0.4-0.1-0.8-0.2-1.1C296.9,108.9,296.7,108.6,296.4,108.3 M296.4,111.6c-0.2,0.4-0.5,0.6-0.9,0.8
		c-0.4,0.2-0.8,0.3-1.3,0.3h-1.1V108h1.1c0.5,0,0.9,0.1,1.3,0.3c0.4,0.2,0.7,0.5,0.9,0.8c0.2,0.4,0.3,0.8,0.3,1.2
		C296.7,110.8,296.6,111.2,296.4,111.6"/>
	<path class="st1" d="M300.2,107.5c-0.1,0-0.2,0-0.2,0.1s-0.1,0.1-0.1,0.2v5.1c0,0.1,0,0.1,0.1,0.2c0.1,0,0.1,0.1,0.2,0.1
		s0.2,0,0.2-0.1s0.1-0.1,0.1-0.2v-5.1c0-0.1,0-0.1-0.1-0.2C300.3,107.6,300.3,107.5,300.2,107.5"/>
	<path class="st1" d="M308.5,108.3c-0.3-0.3-0.6-0.5-1-0.6c-0.4-0.1-0.8-0.2-1.3-0.2c-0.5,0-0.9,0.1-1.3,0.2c-0.4,0.1-0.7,0.4-1,0.6
		c-0.3,0.3-0.5,0.6-0.7,0.9c-0.2,0.4-0.2,0.7-0.2,1.2s0.1,0.8,0.2,1.2c0.2,0.4,0.4,0.7,0.7,0.9c0.3,0.3,0.6,0.5,1,0.6
		c0.4,0.1,0.8,0.2,1.3,0.2c0.5,0,0.9-0.1,1.3-0.2c0.4-0.1,0.7-0.4,1-0.6c0.3-0.3,0.5-0.6,0.7-0.9s0.2-0.8,0.2-1.2s-0.1-0.8-0.2-1.2
		C309,108.9,308.8,108.5,308.5,108.3 M308.6,111.3c-0.1,0.3-0.3,0.5-0.5,0.8c-0.2,0.2-0.5,0.4-0.8,0.5c-0.3,0.1-0.6,0.2-1,0.2
		s-0.7-0.1-1-0.2c-0.3-0.1-0.6-0.3-0.8-0.5c-0.2-0.2-0.4-0.5-0.5-0.8s-0.2-0.6-0.2-1c0-0.3,0.1-0.6,0.2-0.9s0.3-0.5,0.5-0.8
		c0.2-0.2,0.5-0.4,0.8-0.5c0.3-0.1,0.7-0.2,1-0.2s0.7,0.1,1,0.2s0.6,0.3,0.8,0.5c0.2,0.2,0.4,0.5,0.5,0.8s0.2,0.6,0.2,0.9
		S308.7,111,308.6,111.3"/>
	<path class="st1" d="M318.2,110.9c0.1,0,0.2-0.1,0.3-0.1c0.3-0.1,0.5-0.4,0.7-0.6c0.2-0.3,0.3-0.5,0.3-0.9c0-0.4-0.1-0.6-0.3-0.9
		c-0.2-0.3-0.4-0.5-0.7-0.6c-0.3-0.1-0.6-0.2-1-0.2h-1.5c-0.1,0-0.2,0-0.2,0.1c-0.1,0-0.1,0.1-0.1,0.2v5.1c0,0.1,0,0.1,0.1,0.2
		c0.1,0,0.1,0.1,0.2,0.1s0.2,0,0.2-0.1s0.1-0.1,0.1-0.2v-2h1.2c0,0,0.1,0,0.1,0l1.4,2.1c0,0,0.1,0.1,0.1,0.1c0,0,0.1,0,0.2,0
		c0.1,0,0.2,0,0.3-0.1c0.1-0.1,0-0.2,0-0.3L318.2,110.9z M317.4,110.4h-1.2v-2.4h1.2c0.3,0,0.5,0,0.7,0.1c0.2,0.1,0.4,0.2,0.5,0.4
		c0.1,0.2,0.2,0.4,0.2,0.6c0,0.2-0.1,0.4-0.2,0.6s-0.3,0.3-0.5,0.4C317.9,110.4,317.6,110.4,317.4,110.4"/>
	<path class="st1" d="M325.8,108.1c0.1,0,0.2,0,0.2-0.1s0.1-0.1,0.1-0.2c0-0.1,0-0.1-0.1-0.2c-0.1,0-0.1-0.1-0.2-0.1h-3.7
		c-0.1,0-0.2,0-0.2,0.1s-0.1,0.1-0.1,0.2v5.1c0,0.1,0,0.1,0.1,0.2c0.1,0,0.1,0.1,0.2,0.1h3.7c0.1,0,0.2,0,0.2-0.1s0.1-0.1,0.1-0.2
		c0-0.1,0-0.1-0.1-0.2s-0.1-0.1-0.2-0.1h-3.4v-2h2.5c0.1,0,0.2,0,0.2-0.1s0.1-0.1,0.1-0.2c0-0.1,0-0.1-0.1-0.2
		c-0.1,0-0.1-0.1-0.2-0.1h-2.5v-2L325.8,108.1L325.8,108.1z"/>
	<path class="st1" d="M332.6,107.8c0-0.1,0-0.1-0.1-0.2c0,0-0.1-0.1-0.2-0.1c0,0-0.1,0-0.1,0c0,0-0.1,0-0.1,0.1l-2.9,2.7v-2.5
		c0-0.1,0-0.1-0.1-0.2c-0.1-0.1-0.1-0.1-0.2-0.1c-0.1,0-0.2,0-0.2,0.1c-0.1,0.1-0.1,0.1-0.1,0.2v5.1c0,0.1,0,0.1,0.1,0.2
		c0.1,0.1,0.1,0.1,0.2,0.1c0.1,0,0.2,0,0.2-0.1c0.1-0.1,0.1-0.1,0.1-0.2v-1.9l0.7-0.7l2.2,2.7c0.1,0.1,0.1,0.1,0.3,0.1
		c0.1,0,0.1,0,0.2-0.1c0,0,0.1-0.1,0.1-0.2c0-0.1,0-0.1-0.1-0.2l-2.2-2.8l2.2-2C332.6,107.9,332.6,107.9,332.6,107.8"/>
	<path class="st1" d="M338.8,112.7h-3.1v-4.9c0-0.1,0-0.1-0.1-0.2c-0.1-0.1-0.1-0.1-0.2-0.1c-0.1,0-0.2,0-0.2,0.1
		c-0.1,0.1-0.1,0.1-0.1,0.2v5.1c0,0.1,0,0.1,0.1,0.2c0.1,0,0.1,0.1,0.2,0.1h3.4c0.1,0,0.2,0,0.2-0.1c0.1,0,0.1-0.1,0.1-0.2
		c0-0.1,0-0.1-0.1-0.2C338.9,112.7,338.9,112.7,338.8,112.7"/>
	<path class="st1" d="M343.7,107.7c-0.1-0.1-0.2-0.2-0.3-0.2c-0.1,0-0.2,0.1-0.3,0.2l-2.3,5.1c0,0.1,0,0.2,0,0.3
		c0,0.1,0.1,0.1,0.3,0.1c0.1,0,0.1,0,0.2,0c0,0,0.1-0.1,0.1-0.1l0.5-1.2h3.1l0.5,1.2c0,0.1,0.1,0.1,0.1,0.1s0.1,0,0.2,0
		c0.1,0,0.2,0,0.3-0.1s0.1-0.2,0-0.3L343.7,107.7z M342.1,111.4l1.3-2.9l1.3,2.9H342.1z"/>
	<path class="st1" d="M354.2,107.5c-0.1,0-0.2,0-0.3,0.1l-2.5,4.6l-2.5-4.6c-0.1-0.1-0.1-0.1-0.3-0.1c-0.1,0-0.2,0-0.2,0.1
		s-0.1,0.1-0.1,0.2v5.1c0,0.1,0,0.1,0.1,0.2s0.1,0.1,0.2,0.1c0.1,0,0.2,0,0.2-0.1c0.1-0.1,0.1-0.1,0.1-0.2v-4.1l2.2,4
		c0.1,0.1,0.1,0.2,0.3,0.2c0.1,0,0.2,0,0.3-0.1l2.2-4.1v4.1c0,0.1,0,0.1,0.1,0.2s0.1,0.1,0.2,0.1c0.1,0,0.2,0,0.2-0.1
		c0.1-0.1,0.1-0.1,0.1-0.2v-5.1c0-0.1,0-0.1-0.1-0.2C354.3,107.6,354.2,107.5,354.2,107.5"/>
	<path class="st1" d="M361.4,107.5c-0.1,0-0.1,0-0.2,0c0,0-0.1,0.1-0.1,0.1l-2,2.9l-2-2.9c0,0-0.1-0.1-0.1-0.1c0,0-0.1,0-0.2,0
		c-0.1,0-0.1,0-0.2,0.1c0,0-0.1,0.1-0.1,0.2c0,0.1,0,0.1,0.1,0.2l2.2,3.1v1.8c0,0.1,0,0.1,0.1,0.2s0.1,0.1,0.2,0.1
		c0.1,0,0.2,0,0.2-0.1c0.1-0.1,0.1-0.1,0.1-0.2v-1.8l2.2-3.1c0.1-0.1,0.1-0.1,0.1-0.2c0-0.1,0-0.1-0.1-0.2
		C361.5,107.5,361.5,107.5,361.4,107.5"/>
	<path class="st1" d="M372.4,110.2h-6.3c-0.1,0-0.2,0.1-0.2,0.2s0.1,0.2,0.2,0.2h6.3c0.1,0,0.2-0.1,0.2-0.2S372.4,110.2,372.4,110.2
		"/>
	<path class="st1" d="M267.2,110.2h-6.3c-0.1,0-0.2,0.1-0.2,0.2s0.1,0.2,0.2,0.2h6.3c0.1,0,0.2-0.1,0.2-0.2S267.3,110.2,267.2,110.2
		"/>
</g>
<path class="st1" d="M752.9,234.6c-8.3-54.1-42.1-120.5-109-127.4c0,0-50.8-6.2-100.9,3.2c-29.7,5.6-55.8,22.1-72.3,45.9
	c-16.5,23.8-22,52.8-15.3,80.4c4.3,17.9,7.3,36.5,6.5,55c-1.4,32.1-0.6,62.1,30.6,81.2c27.8,17.1,62.8,32.2,96.2,34.8
	c22.7,1.8,48.1-1.1,70-7C770.3,370.5,761.2,288.7,752.9,234.6z"/>
<path class="st2" d="M665.6,193.2l-28.4,23.2L605.8,242c-1.6,1.3-3.6,1.9-5.6,1.6c-1.2-0.2-2.4-0.7-3.5-1.5l-63.6-46.7
	c-10.1-9.5-16.2-24-15.4-39.9c1.2-23.6,17.9-42.7,38.8-44.6c0.1,0,0.1,0,0.2,0c0.6,0,1.2-0.1,1.7-0.1c15.1-0.7,28.8,7.4,37.1,20.1
	c0.5,0.7,0.9,1.4,1.3,2.1c6.4-13,18.3-22,32.5-23.3c1.9-0.2,3.9-0.2,5.8-0.1c21.2,1.1,39.6,19.7,42.7,43.3
	C679.9,168.7,674.9,183.3,665.6,193.2z"/>
<g>
	<path class="st3" d="M717.1,251.3l-0.1-1c-0.5-5.6-5.4-9.9-11-9.5c-3,0.2-5.7,1.5-7.7,3.7l-30.8,33.5c-4.2,4.6-9.6,8.1-15.5,10
		l-2.8,0.9c-4,1.3-8.2,1.9-12.4,1.8l-45.2-1.1l37.3-15.1c4.6-1.9,6.9-7.1,5-11.8l-0.5-1.3c-1.6-3.9-5.6-6.2-9.7-5.6
		c-14.8,2.2-48.6,7.3-63.2,10.3c-14,2.9-33.5,29.2-42.7,42.6c-3.4,4.9-5.2,10.6-5.2,16.6c0,6.8,3.3,13.1,9,16.8l3.2,2.1
		c6,3.9,13.1,5.7,20.2,5.1l90.2-7.6c11.6-1,22.2-6.8,29.2-16.1l50.4-66.6C716.5,257,717.3,254.2,717.1,251.3z"/>
	<path class="st2" d="M719.3,248.7l-0.1-1c-0.5-5.6-5.4-9.9-11-9.5c-3,0.2-5.7,1.5-7.7,3.7l-30.8,33.5c-4.2,4.6-9.6,8.1-15.5,10
		l-2.8,0.9c-4,1.3-8.2,1.9-12.4,1.8l-45.2-1.1l37.3-15.1c4.6-1.9,6.9-7.1,5-11.8l-0.5-1.3c-1.6-3.9-5.6-6.2-9.7-5.6
		c-14.8,2.2-48.6,7.3-63.2,10.3c-14,2.9-33.5,29.2-42.7,42.6c-3.4,4.9-5.2,10.6-5.2,16.6c0,6.8,3.3,13.1,9,16.8l3.2,2.1
		c6,3.9,13.1,5.7,20.2,5.1l90.2-7.6c11.6-1,22.2-6.8,29.2-16.1l50.4-66.6C718.7,254.3,719.5,251.5,719.3,248.7z"/>
	<path class="st4" d="M555,357.2l-36.6,31.3c-2,1.7-5,1.5-6.7-0.5l-40.7-47.7c-1.7-2-1.5-5,0.5-6.7l2.2-1.9l34.4-29.4
		c2-1.7,5-1.5,6.7,0.5l4.2,4.9l33,38.5l2.1,2.3l0,0l1.4,1.8C557.2,352.3,557,355.5,555,357.2z"/>
	<path class="st5" d="M555,357.2l-36.6,31.3c-2,1.7-5,1.5-6.7-0.5l-40.7-47.7c-1.7-2-1.5-5,0.5-6.7l2.2-1.9
		c1.5,4.9,5.3,9.4,14.9,7.7c19.5-3.3,20.6,8.1,29.1,12.7c10.4,5.6,25.5-2.1,36.5-3.6l0,0l1.4,1.8C557.2,352.3,557,355.5,555,357.2z"
		/>
</g>
<g>
	<g>
		<path class="st6" d="M85.1,119.7c0.8,0,1.6,0,2.4,0.1"/>
		<path class="st7" d="M275.9,282.5c4.5,4.6,8.5,8.6,12,11.5c64,54.3,457.8,106.7,526.9,35.2c67.5-69.8-321.2-51.6-260.7-99.4"/>
		<path class="st6" d="M557.1,227.7c0.6-0.4,1.3-0.9,2-1.3"/>
	</g>
</g>
</svg>
