<svg id="Capa_1" enable-background="new 0 0 480 480" height="512" viewBox="0 0 480 480" width="512" xmlns="http://www.w3.org/2000/svg"><g><g><g id="ouline_16_"><path d="m240 176h-112c-4.418 0-8 3.582-8 8v32c0 4.418 3.582 8 8 8v27.155c-.019 16.953 6.932 33.169 19.224 44.845-12.291 11.676-19.243 27.891-19.224 44.844v27.156c-4.418 0-8 3.582-8 8v32c0 4.418 3.582 8 8 8h112c4.418 0 8-3.582 8-8v-32c0-4.418-3.582-8-8-8v-27.156c.019-16.953-6.933-33.168-19.224-44.844 12.292-11.676 19.243-27.892 19.224-44.845v-27.155c4.418 0 8-3.582 8-8v-32c0-4.418-3.582-8-8-8zm-8 224h-96v-16h96zm-8-148.845c.018 15.35-7.656 29.689-20.438 38.189-3.676 2.451-4.669 7.418-2.218 11.094.586.878 1.339 1.632 2.218 2.218 12.782 8.5 20.455 22.838 20.438 38.188v27.156h-80v-27.156c-.017-15.35 7.656-29.688 20.438-38.188 3.676-2.451 4.669-7.418 2.218-11.094-.586-.878-1.339-1.632-2.218-2.218-12.782-8.5-20.456-22.839-20.438-38.189v-27.155h80zm8-43.155h-96v-16h96z"/><path d="m160 264h16v16h-16z"/><path d="m192 264h16v16h-16z"/><path d="m200 240h16v16h-16z"/><path d="m176 312h16v16h-16z"/><path d="m160 344h16v16h-16z"/><path d="m192 344h16v16h-16z"/><path d="m168 240h16v16h-16z"/><path d="m328 0h-44c-19.873.022-35.978 16.127-36 36v92h-96v-92c-.022-19.873-16.127-35.978-36-36h-48c-19.873.022-35.978 16.127-36 36v423c.013 11.592 9.408 20.987 21 21h262c11.592-.013 20.987-9.408 21-21v-51c0-4.418-3.582-8-8-8h-16v-16c0-4.418-3.582-8-8-8h-16v-16h16c4.418 0 8-3.582 8-8v-16h16c4.418 0 8-3.582 8-8v-320c0-4.418-3.582-8-8-8zm-208 16.4c9.305 1.914 15.988 10.1 16 19.6v92h-8c-4.416-.005-7.995-3.584-8-8zm200 303.6h-16c-4.418 0-8 3.582-8 8v16h-16c-4.418 0-8 3.582-8 8v32c0 4.418 3.582 8 8 8h16v16c0 4.418 3.582 8 8 8h16v43c-.003 2.76-2.24 4.997-5 5h-262c-2.76-.003-4.997-2.24-5-5v-423c.013-11.04 8.96-19.987 20-20h36v104c-.005 13.25 10.732 23.995 23.982 24h.018 128c4.418 0 8-3.582 8-8v-100c.013-11.04 8.96-19.987 20-20h36z"/><path d="m352.105 336.11h16v16h-16z"/><path d="m320 360h16v16h-16z"/><path d="m360 368h16v16h-16z"/><path d="m400 352h16v16h-16z"/><path d="m384 328h16v16h-16z"/><path d="m432 312h16v16h-16z"/><path d="m392 296h16v16h-16z"/><path d="m72 312c-4.418 0-8 3.582-8 8v64c0 4.418 3.582 8 8 8s8-3.582 8-8v-64c0-4.418-3.582-8-8-8z"/><path d="m72 408c-4.418 0-8 3.582-8 8v8c0 4.418 3.582 8 8 8s8-3.582 8-8v-8c0-4.418-3.582-8-8-8z"/></g></g></g></svg>