<?xml version="1.0" encoding="utf-8"?>
<!-- Generator: Adobe Illustrator 19.0.0, SVG Export Plug-In . SVG Version: 6.00 Build 0)  -->
<svg version="1.1" id="Capa_1" xmlns="http://www.w3.org/2000/svg" xmlns:xlink="http://www.w3.org/1999/xlink" x="0px" y="0px"
	 viewBox="6 -6 512 512" style="enable-background:new 6 -6 512 512;" xml:space="preserve">
<style type="text/css">
	.st0{fill:#23C495;}
</style>
<g>
	<g>
		<g id="ouline_16_">
			<path class="st0" d="M262,181.7H142.5c-4.7,0-8.5,3.8-8.5,8.5v34.1c0,4.7,3.8,8.5,8.5,8.5v29c0,18.1,7.4,35.4,20.5,47.8
				c-13.1,12.5-20.5,29.8-20.5,47.8v29c-4.7,0-8.5,3.8-8.5,8.5v34.1c0,4.7,3.8,8.5,8.5,8.5H262c4.7,0,8.5-3.8,8.5-8.5v-34.1
				c0-4.7-3.8-8.5-8.5-8.5v-29c0-18.1-7.4-35.4-20.5-47.8c13.1-12.5,20.5-29.8,20.5-47.8v-29c4.7,0,8.5-3.8,8.5-8.5v-34.1
				C270.5,185.6,266.7,181.7,262,181.7z M253.5,420.7H151.1v-17.1h102.4V420.7z M244.9,261.9c0,16.4-8.2,31.7-21.8,40.7
				c-3.9,2.6-5,7.9-2.4,11.8c0.6,0.9,1.4,1.7,2.4,2.4c13.6,9.1,21.8,24.4,21.8,40.7v29h-85.3v-29c0-16.4,8.2-31.7,21.8-40.7
				c3.9-2.6,5-7.9,2.4-11.8c-0.6-0.9-1.4-1.7-2.4-2.4c-13.6-9.1-21.8-24.4-21.8-40.7v-29h85.3V261.9z M253.5,215.9H151.1v-17.1
				h102.4V215.9z"/>
			<path class="st0" d="M176.7,275.6h17.1v17.1h-17.1V275.6z"/>
			<path class="st0" d="M210.8,275.6h17.1v17.1h-17.1V275.6z"/>
			<path class="st0" d="M219.3,250h17.1v17.1h-17.1V250z"/>
			<path class="st0" d="M193.7,326.8h17.1v17.1h-17.1V326.8z"/>
			<path class="st0" d="M176.7,360.9h17.1V378h-17.1V360.9z"/>
			<path class="st0" d="M210.8,360.9h17.1V378h-17.1V360.9z"/>
			<path class="st0" d="M185.2,250h17.1v17.1h-17.1V250z"/>
			<path class="st0" d="M355.9-6h-46.9c-21.2,0-38.4,17.2-38.4,38.4v98.1H168.1V32.4c0-21.2-17.2-38.4-38.4-38.4H78.5
				C57.3-6,40.2,11.2,40.1,32.4v451.2c0,12.4,10,22.4,22.4,22.4H342c12.4,0,22.4-10,22.4-22.4v-54.4c0-4.7-3.8-8.5-8.5-8.5h-17.1
				v-17.1c0-4.7-3.8-8.5-8.5-8.5h-17.1V378h17.1c4.7,0,8.5-3.8,8.5-8.5v-17.1h17.1c4.7,0,8.5-3.8,8.5-8.5V2.5
				C364.4-2.2,360.6-6,355.9-6z M134,11.5c9.9,2,17.1,10.8,17.1,20.9v98.1h-8.5c-4.7,0-8.5-3.8-8.5-8.5V11.5z M347.3,335.3h-17.1
				c-4.7,0-8.5,3.8-8.5,8.5v17.1h-17.1c-4.7,0-8.5,3.8-8.5,8.5v34.1c0,4.7,3.8,8.5,8.5,8.5h17.1v17.1c0,4.7,3.8,8.5,8.5,8.5h17.1
				v45.9c0,2.9-2.4,5.3-5.3,5.3H62.5c-2.9,0-5.3-2.4-5.3-5.3V32.4c0-11.8,9.6-21.3,21.3-21.3h38.4V122c0,14.1,11.4,25.6,25.6,25.6h0
				h136.5c4.7,0,8.5-3.8,8.5-8.5V32.4c0-11.8,9.6-21.3,21.3-21.3h38.4V335.3z"/>
			<path class="st0" d="M381.6,352.5h17.1v17.1h-17.1V352.5z"/>
			<path class="st0" d="M347.3,378h17.1v17.1h-17.1V378z"/>
			<path class="st0" d="M390,386.5h17.1v17.1H390V386.5z"/>
			<path class="st0" d="M432.7,369.5h17.1v17.1h-17.1V369.5z"/>
			<path class="st0" d="M415.6,343.9h17.1v17.1h-17.1V343.9z"/>
			<path class="st0" d="M466.8,326.8h17.1v17.1h-17.1V326.8z"/>
			<path class="st0" d="M424.1,309.7h17.1v17.1h-17.1V309.7z"/>
			<path class="st0" d="M82.8,326.8c-4.7,0-8.5,3.8-8.5,8.5v68.3c0,4.7,3.8,8.5,8.5,8.5s8.5-3.8,8.5-8.5v-68.3
				C91.3,330.6,87.5,326.8,82.8,326.8z"/>
			<path class="st0" d="M82.8,429.2c-4.7,0-8.5,3.8-8.5,8.5v8.5c0,4.7,3.8,8.5,8.5,8.5s8.5-3.8,8.5-8.5v-8.5
				C91.3,433,87.5,429.2,82.8,429.2z"/>
		</g>
	</g>
</g>
</svg>
