<?xml version="1.0" encoding="utf-8"?>
<!-- Generator: Adobe Illustrator 19.0.0, SVG Export Plug-In . SVG Version: 6.00 Build 0)  -->
<svg version="1.1" id="Capa_1" xmlns="http://www.w3.org/2000/svg" xmlns:xlink="http://www.w3.org/1999/xlink" x="0px" y="0px"
	 viewBox="-9 11 480 480" style="enable-background:new -9 11 480 480;" xml:space="preserve">
<style type="text/css">
	.st0{fill:#23C495;}
</style>
<g>
	<g>
		<path class="st0" d="M186.4,310.3l-17.6-5.9c-5.8-1.9-9.7-7.4-9.7-13.5c0-8.8,7.2-16,16-16s16,7.2,16,16h16
			c-0.1-14.5-9.9-27.2-24-30.9V243h-16v17.1c-14.1,3.6-23.9,16.3-24,30.9c0,13,8.3,24.5,20.6,28.7l17.6,5.9
			c5.8,1.9,9.7,7.4,9.7,13.5c0,8.8-7.2,16-16,16s-16-7.2-16-16h-16c0.1,14.5,9.9,27.2,24,30.9V387h16v-17.1
			c14.1-3.6,23.9-16.3,24-30.9C207,326,198.7,314.4,186.4,310.3z"/>
	</g>
</g>
<g>
	<g>
		<path class="st0" d="M463,187H301.3c-16.9-20.8-38.2-37.7-62.3-49.5V103l28.8-21.6c2-1.5,3.2-3.9,3.2-6.4V19c0-4.4-3.6-8-8-8h-32
			c-2.1,0-4.2,0.8-5.7,2.3L215,23.7l-10.3-10.3c-1.5-1.5-3.5-2.3-5.7-2.3h-48c-2.1,0-4.2,0.8-5.7,2.3L135,23.7l-10.3-10.3
			c-1.5-1.5-3.5-2.3-5.7-2.3H87c-4.4,0-8,3.6-8,8v56c0,2.5,1.2,4.9,3.2,6.4L111,103v34.6c-60.6,29.3-120,108-120,209
			C-9,438.3,58.1,491,175,491c19,0.1,37.9-1.6,56.6-5c1.2,3,4.1,5,7.4,5h224c4.4,0,8-3.6,8-8V195C471,190.6,467.4,187,463,187z
			 M95,71V27h20.7l13.7,13.7c3.1,3.1,8.2,3.1,11.3,0L154.3,27h41.4l13.7,13.7c3.1,3.1,8.2,3.1,11.3,0L234.3,27H255v44l-26.7,20
			H121.7L95,71z M223,107v24h-96v-24H223z M231,382.8c-37.4,31-92.9,25.8-123.9-11.7c-31-37.4-25.8-92.9,11.7-123.9
			c32.6-27,79.7-27,112.2,0L231,382.8L231,382.8z M231,195v32.5c-48.3-31-112.7-17-143.7,31.4s-17,112.7,31.4,143.7
			c34.2,21.9,78.1,21.9,112.3,0v67.3c-18.5,3.5-37.2,5.3-56,5.2C124.5,475,7,462.5,7,346.6C7,270,52.9,174.8,129.7,147h90.7
			c22.6,8.6,43,22.3,59.5,40H239C234.6,187,231,190.6,231,195z M455,475H247V267h208V475z M455,251H247v-48h208V251z"/>
	</g>
</g>
<g>
	<g>
		<path class="st0" d="M303,283h-32c-4.4,0-8,3.6-8,8v32c0,4.4,3.6,8,8,8h32c4.4,0,8-3.6,8-8v-32C311,286.6,307.4,283,303,283z
			 M295,315h-16v-16h16V315z"/>
	</g>
</g>
<g>
	<g>
		<path class="st0" d="M367,283h-32c-4.4,0-8,3.6-8,8v32c0,4.4,3.6,8,8,8h32c4.4,0,8-3.6,8-8v-32C375,286.6,371.4,283,367,283z
			 M359,315h-16v-16h16V315z"/>
	</g>
</g>
<g>
	<g>
		<path class="st0" d="M431,283h-32c-4.4,0-8,3.6-8,8v32c0,4.4,3.6,8,8,8h32c4.4,0,8-3.6,8-8v-32C439,286.6,435.4,283,431,283z
			 M423,315h-16v-16h16V315z"/>
	</g>
</g>
<g>
	<g>
		<path class="st0" d="M303,347h-32c-4.4,0-8,3.6-8,8v32c0,4.4,3.6,8,8,8h32c4.4,0,8-3.6,8-8v-32C311,350.6,307.4,347,303,347z
			 M295,379h-16v-16h16V379z"/>
	</g>
</g>
<g>
	<g>
		<path class="st0" d="M367,347h-32c-4.4,0-8,3.6-8,8v32c0,4.4,3.6,8,8,8h32c4.4,0,8-3.6,8-8v-32C375,350.6,371.4,347,367,347z
			 M359,379h-16v-16h16V379z"/>
	</g>
</g>
<g>
	<g>
		<path class="st0" d="M303,411h-32c-4.4,0-8,3.6-8,8v32c0,4.4,3.6,8,8,8h32c4.4,0,8-3.6,8-8v-32C311,414.6,307.4,411,303,411z
			 M295,443h-16v-16h16V443z"/>
	</g>
</g>
<g>
	<g>
		<path class="st0" d="M367,411h-32c-4.4,0-8,3.6-8,8v32c0,4.4,3.6,8,8,8h32c4.4,0,8-3.6,8-8v-32C375,414.6,371.4,411,367,411z
			 M359,443h-16v-16h16V443z"/>
	</g>
</g>
<g>
	<g>
		<path class="st0" d="M431,347h-32c-4.4,0-8,3.6-8,8v96c0,4.4,3.6,8,8,8h32c4.4,0,8-3.6,8-8v-96C439,350.6,435.4,347,431,347z
			 M423,443h-16v-80h16V443z"/>
	</g>
</g>
<g>
	<g>
		<rect x="423" y="219" class="st0" width="16" height="16"/>
	</g>
</g>
<g>
	<g>
		<rect x="391" y="219" class="st0" width="16" height="16"/>
	</g>
</g>
<g>
	<g>
		<rect x="359" y="219" class="st0" width="16" height="16"/>
	</g>
</g>
</svg>
