<?xml version="1.0" encoding="utf-8"?>
<!-- Generator: Adobe Illustrator 19.0.0, SVG Export Plug-In . SVG Version: 6.00 Build 0)  -->
<svg version="1.1" id="Warstwa_1" xmlns="http://www.w3.org/2000/svg" xmlns:xlink="http://www.w3.org/1999/xlink" x="0px" y="0px"
	 viewBox="-1 3 496 496" style="enable-background:new -1 3 496 496;" xml:space="preserve">
<style type="text/css">
	.st0{fill:#23C495;}
</style>
<path class="st0" d="M359,195C359,90.7,256.3,8.2,252,4.7c-2.9-2.3-7-2.3-9.9,0c-4.4,3.5-107,86-107,190.3
	c0,95.7,86.4,173,104,187.8V467c0,4.4,3.6,8,8,8c4.4,0,8-3.6,8-8v-84.2C272.6,368,359,290.7,359,195z M255,361.2v-90.5l45.1-37.6
	c3.4-2.8,3.9-7.9,1-11.3c-2.8-3.4-7.9-3.9-11.3-1l-34.9,29v-27.2l45.1-37.6c3.4-2.8,3.9-7.9,1-11.3c-2.8-3.4-7.9-3.9-11.3-1
	L255,201.9v-35.2l45.1-37.6c3.4-2.8,3.9-7.9,1-11.3s-7.9-3.9-11.3-1L255,145.9V83c0-4.4-3.6-8-8-8c-4.4,0-8,3.6-8,8v62.9l-34.9-29
	c-3.4-2.8-8.4-2.4-11.3,1s-2.4,8.4,1,11.3l45.1,37.6v35.2l-34.9-29c-3.4-2.8-8.4-2.4-11.3,1s-2.4,8.4,1,11.3l45.1,37.5v27.2
	l-34.9-29c-3.4-2.8-8.4-2.4-11.3,1c-2.8,3.4-2.4,8.4,1,11.3l45.1,37.5v90.5c-27.2-25.5-88-90.9-88-166.2c0-84,75.7-155.8,96-173.5
	c20.3,17.8,96,89.6,96,173.5C343,270.3,282.2,335.7,255,361.2z"/>
<path class="st0" d="M191,427h-8v-58.7c0-10.6-4.2-20.8-11.7-28.3l-67.3-67.4c-9.4-9.3-24.5-9.3-33.9,0l-7.1,7.1V195
	c0-8.9-3.7-17.4-10.2-23.4c-6.5-6.1-15.2-9.1-24.1-8.5c-17.1,1.7-30,16.1-29.7,33.3v114.3c0,10,3.7,19.5,10.4,26.9L79,414.1V427h-8
	c-4.4,0-8,3.6-8,8v56c0,4.4,3.6,8,8,8h120c4.4,0,8-3.6,8-8v-56C199,430.6,195.4,427,191,427z M21.2,326.8c-4-4.4-6.2-10.2-6.2-16.1
	V196.4c-0.2-8.7,6.2-16.2,14.8-17.3c4.6-0.3,9.2,1.4,12.5,4.7c3,3,4.7,7.1,4.7,11.3v97.4c0,6.4,2.5,12.5,7,17l43.3,43.3
	c3.1,3,8.1,3,11.2-0.1s3.1-8.1,0.1-11.2l-36.7-36.7c-1.5-1.5-2.3-3.5-2.3-5.6c0-2.1,0.8-4.1,2.3-5.6l9.4-9.4c3.1-3.1,8.1-3.1,11.2,0
	l67.3,67.4c4.5,4.5,7,10.6,7,17V427H95v-19.1L21.2,326.8z M183,483H79v-40h104V483z"/>
<path class="st0" d="M465.3,163.1c-8.9-0.6-17.6,2.4-24.1,8.5c-6.5,6.1-10.2,14.5-10.2,23.4v84.7l-7.1-7.1c-9.4-9.3-24.5-9.3-33.9,0
	L322.7,340c-7.5,7.5-11.7,17.7-11.7,28.3V427h-8c-4.4,0-8,3.6-8,8v56c0,4.4,3.6,8,8,8h120c4.4,0,8-3.6,8-8v-56c0-4.4-3.6-8-8-8h-8
	v-12.9l69.6-76.6c6.7-7.4,10.4-17,10.4-26.9V196.4C495.3,179.2,482.4,164.7,465.3,163.1z M415,483H311v-40h104V483z M479,310.6
	c0,6-2.2,11.7-6.2,16.1L399,407.9V427h-72v-58.7c0-6.4,2.5-12.5,7-17l67.4-67.3c3.1-3.1,8.1-3.1,11.2,0l9.4,9.4
	c3.1,3.1,3.1,8.1,0,11.2l-36.7,36.7c-2.1,2-2.9,5-2.2,7.8c0.7,2.8,2.9,5,5.7,5.7c2.8,0.7,5.8-0.1,7.8-2.2l43.3-43.3
	c4.5-4.5,7-10.6,7-17V195c0-4.2,1.7-8.3,4.7-11.3c3.3-3.3,7.8-5,12.5-4.7c8.6,1.1,15,8.6,14.8,17.3V310.6z"/>
<path class="st0" d="M241.3,485.3c-1.5,1.5-2.3,3.6-2.3,5.7c0,0.5,0.1,1.1,0.2,1.6c0.1,0.5,0.2,1,0.5,1.4c0.2,0.5,0.4,1,0.7,1.4
	c0.3,0.4,0.6,0.8,1,1.2c3.2,3.1,8.2,3.1,11.4,0l1-1.2c0.3-0.4,0.5-0.9,0.7-1.4c0.2-0.5,0.4-0.9,0.5-1.4c0.1-0.5,0.2-1.1,0.2-1.6
	c0-3.2-1.9-6.2-4.9-7.4C247.1,482.3,243.6,483,241.3,485.3z"/>
<path class="st0" d="M95,467h32c4.4,0,8-3.6,8-8c0-4.4-3.6-8-8-8H95c-4.4,0-8,3.6-8,8C87,463.4,90.6,467,95,467z"/>
<path class="st0" d="M148,466.4c1,0.4,2,0.6,3,0.6c3.2,0,6.2-1.9,7.4-4.9c1.2-3,0.6-6.5-1.8-8.7c-2.3-2.3-5.7-2.9-8.7-1.7
	c-1,0.4-1.9,1-2.6,1.7c-1.5,1.5-2.3,3.6-2.3,5.7C142.9,462.3,144.9,465.2,148,466.4z"/>
<path class="st0" d="M326.8,209.4c-0.1-0.5-0.2-1-0.5-1.4c-0.2-0.5-0.4-1-0.7-1.4l-1-1.2c-3.2-3-8.2-3-11.4,0
	c-0.3,0.4-0.7,0.8-1,1.2c-0.3,0.4-0.5,0.9-0.7,1.4c-0.2,0.5-0.4,0.9-0.5,1.4c-0.1,0.5-0.1,1.1-0.2,1.6c0,2.1,0.9,4.1,2.3,5.7
	c1.5,1.5,3.6,2.3,5.7,2.3c2.1,0,4.2-0.8,5.7-2.3c1.5-1.5,2.3-3.6,2.3-5.7C327,210.5,326.9,209.9,326.8,209.4z"/>
</svg>
