<?xml version="1.0" encoding="utf-8"?>
<!-- Generator: Adobe Illustrator 19.0.0, SVG Export Plug-In . SVG Version: 6.00 Build 0)  -->
<svg version="1.1" id="Capa_1" xmlns="http://www.w3.org/2000/svg" xmlns:xlink="http://www.w3.org/1999/xlink" x="0px" y="0px"
	 viewBox="-153 155.9 191.1 191.1" style="enable-background:new -153 155.9 191.1 191.1;" xml:space="preserve">
<style type="text/css">
	.st0{fill:#23C495;}
</style>
<g>
	<g>
		<path class="st0" d="M-87.5,168.2c-0.6-1.1-1.8-1.7-3.1-1.7c-5,0.2-30.2,1.3-37.1,5.4c-8.1,4.7-10.9,15.2-6.2,23.3
			c2.3,3.9,6,6.7,10.4,7.9c1.4,0.4,2.9,0.6,4.4,0.6c3,0,5.9-0.8,8.6-2.3c6.9-4,20.3-25.4,23-29.6C-86.9,170.6-86.9,169.3-87.5,168.2
			z M-114,195.4c-2.4,1.4-5.1,1.7-7.8,1.1c-2.6-0.7-4.9-2.4-6.2-4.7c-2.8-4.9-1.2-11.2,3.7-14c3.4-2,16.7-3.4,27.4-4.1
			C-102.8,182.6-110.5,193.4-114,195.4z"/>
	</g>
</g>
<g>
	<g>
		<path class="st0" d="M-58.6,186.6c-36.2,0-65.7,29.5-65.7,65.7S-94.8,318-58.6,318s65.7-29.5,65.7-65.7
			C7.1,216-22.3,186.6-58.6,186.6z M-58.6,311.2c-32.5,0-58.9-26.4-58.9-58.9s26.4-58.9,58.9-58.9s58.9,26.4,58.9,58.9
			C0.3,284.7-26.1,311.2-58.6,311.2z"/>
	</g>
</g>
<g>
	<g>
		<path class="st0" d="M-82.2,216c-4.1-4.1-5.3-11.5-5.7-16.9c-0.1-1.2-0.8-2.3-1.8-2.8c-1.1-0.6-2.3-0.5-3.4,0.1
			c-13.9,8.6-24.1,22-28.6,37.6c-0.3,0.9-0.1,1.9,0.4,2.7c0.5,0.8,1.3,1.4,2.2,1.6c8.3,1.8,9.4,3.7,9.4,3.7c1.8,3.6,4.7,5.9,8.1,6.5
			c0.5,0.1,1.1,0.1,1.6,0.1c3.7,0,7.8-2,11.5-5.7c0.8-0.8,1.6-1.5,2.4-2.3c4.1-3.9,8.8-8.3,8.9-14.2
			C-77.1,222.8-78.8,219.3-82.2,216z M-90.8,235.6c-0.9,0.8-1.7,1.6-2.5,2.4c-2.7,2.7-5.3,4-7.2,3.7c-1.2-0.2-2.3-1.1-3.1-2.8
			c-1.4-2.8-4.7-4.9-10.4-6.5c3.9-10.8,10.8-20.3,20-27.2c1.1,6.8,3.5,12,7,15.5c2,2,3,3.9,3,5.5C-84.1,229.3-87.5,232.5-90.8,235.6
			z"/>
	</g>
</g>
<g>
	<g>
		<path class="st0" d="M-52.9,264.9c-1.5-6-5-10.7-10.2-13.5c-5.7-3.1-12.9-3.7-19.5-1.5c-10.2,3.4-15.7,7.9-11.6,20.1
			c2.8,8.3,8.1,9.3,12.4,10c1.8,0.3,3.5,0.6,5.1,1.4s1.2,9.3-1.7,17.9c-0.5,1.5,0.1,3.2,1.5,4c0.5,0.3,4.3,2.4,8.3,2.4
			c1.3,0,2.6-0.2,3.8-0.7c1.9-0.8,4.4-2.7,5.5-6.9c1-3.8,2.2-7.1,3.5-10.2C-53.1,281-50.5,274.5-52.9,264.9z M-62.1,285.4
			c-1.2,3.2-2.7,6.8-3.7,11c-0.5,1.9-1.2,2.2-1.5,2.3c-0.9,0.4-2.3,0.2-3.7-0.2c1.9-6.9,4.4-19.7-2.6-23.2c-2.5-1.2-4.9-1.7-7-2
			c-3.9-0.7-5.6-1-7.1-5.5c-2.3-6.9-1.2-8.6,7.3-11.5c4.8-1.6,10-1.2,14,1c3.5,1.9,5.8,5,6.8,9.2C-57.7,274-59.5,278.8-62.1,285.4z"
			/>
	</g>
</g>
<g>
	<g>
		<path class="st0" d="M2.4,227.9c-5.3-13.2-14.9-24.5-27-31.9c-1.3-0.8-3-0.6-4.2,0.5c-15.9,15.6-17.3,21-16.5,24.3
			c0.4,1.9,1.8,3.3,3.8,4c5.2,1.7,9.5,3.5,12.2,4.7c-1.4,2-3.9,4.4-8,4.4c-16.3,0-25.5,0.3-25.5,6.6c0,2.9,2.8,5.5,10.7,12.1
			c2.9,2.4,7.2,6,8.3,7.5c0.4,4.5,4.4,17.8,7.3,20.7c2,2,5.6,3.8,9.3,3.8c1,0,2-0.1,3-0.4c3.1-0.9,7.3-3.5,9.2-11.3
			c1.3-5.1,1.6-9.8,1.8-13.5c0.4-6.1,0.7-8.5,2.7-9.5c2.3-1.2,6.2-4.4,12.9-19.2C2.8,229.8,2.8,228.8,2.4,227.9z M-13.6,243.7
			c-5.7,2.8-6,8.8-6.5,15.2c-0.2,3.6-0.5,7.8-1.6,12.3c-0.6,2.5-1.9,5.7-4.4,6.4c-2.1,0.6-4.6-0.7-5.6-1.6
			c-1.6-1.9-5.3-14.1-5.3-16.6c0-2.9-2.8-5.5-10.7-12.1c-2.1-1.8-5-4.1-6.8-5.9c4.2-0.7,12.7-0.7,17.2-0.7
			c11.8,0,15.7-11.3,15.9-11.8c0.5-1.6-0.2-3.4-1.7-4.1c-0.3-0.1-6.2-3.1-15.2-6.2c0.6-1.6,3.1-5.9,12.5-15.3
			c9.4,6.3,17,15.4,21.4,25.8C-10.4,241.8-13.3,243.5-13.6,243.7z"/>
	</g>
</g>
<g>
	<g>
		<path class="st0" d="M-57.7,155.9c-1.9,0-3.4,1.5-3.4,3.4s1.5,3.4,3.4,3.4c48.9,0,88.7,39.8,88.7,88.7c0,48.9-39.8,88.7-88.7,88.7
			c-48.9,0-88.7-39.8-88.7-88.7c0-23,8.8-44.8,24.7-61.4c1.3-1.4,1.3-3.5-0.1-4.8s-3.5-1.3-4.8,0.1c-17.1,17.9-26.5,41.3-26.5,66.1
			c0,52.7,42.9,95.6,95.6,95.6s95.6-42.9,95.6-95.6C37.8,198.7-5,155.9-57.7,155.9z"/>
	</g>
</g>
</svg>
