<?xml version="1.0" encoding="utf-8"?>
<!-- Generator: Adobe Illustrator 19.0.0, SVG Export Plug-In . SVG Version: 6.00 Build 0)  -->
<svg version="1.1" id="Layer_1" xmlns="http://www.w3.org/2000/svg" xmlns:xlink="http://www.w3.org/1999/xlink" x="0px" y="0px"
	 viewBox="6 -6 512 512" style="enable-background:new 6 -6 512 512;" xml:space="preserve">
<style type="text/css">
	.st0{fill:#23C495;}
</style>
<path class="st0" d="M510.3,163.8c9.4,0.5,10.2-14.5,0.8-15c-15.2-0.8-30.5-1.1-45.8-0.9c-0.1-1.4-0.6-2.8-1.4-4l-40.6-55.5
	c-4-4.1-8.1-4.1-12.1,0l-40.6,55.5c-2.9,4-0.9,10.4,4.2,11.7c-11.7,1.8-23.4,4-35,6.4c-9.4,2-6,16.6,3.1,14.7
	c10.8-2.3,21.6-4.3,32.6-6l-28.5,38.9c-3.6,4.9,0,11.9,6.1,11.9h11.3l-14.2,19.4l-14.8-24.2c-2.9-4.7-9.9-4.7-12.8,0l-18.9,30.9
	l-10.9-14.9h10.1c6,0,9.6-7.1,6.1-11.9l-21.7-29.7c6.8-2.1,13.6-4.1,20.4-5.9c9.4-2.5,5.4-17-3.9-14.5c-8.6,2.3-17.3,4.9-25.9,7.6
	l-6-8.2h8.6c6,0,9.6-7.1,6.1-11.9l-38.8-53c-4-4.1-8.1-4.1-12.1,0l-38.8,53c-3.6,4.9,0,11.9,6.1,11.9h8.6l-13.5,18.4l-19.6-32
	c-2.9-4.7-9.9-4.7-12.8,0l-40.2,65.8c-4.1,6.7,3.4,12.1,9.4,11.4l-9.1,15c-35.8,22.5-69.7,48.6-100.5,77.6L8.4,341.8
	c-7.1,6.7,3.3,17.5,10.3,10.9l16.5-15.5c22.6-21.2,46.8-40.8,72.2-58.6c-1.5,4.8,2.4,9.8,7.1,9.8h65.8c-4.2,4.5-5.4,15.1,3.7,15.1
	h8.6l-37.1,50.7c-3.6,4.9,0,11.9,6.1,11.9h10.1l-23.1,31.5l-17.5-23.9h8.6c6,0,9.6-7.1,6.1-11.9l-38.8-53c-4-4.1-8.1-4.1-12.1,0
	l-38.8,53c-3.6,4.9,0,11.9,6.1,11.9h8.6l-6.4,8.8c-5.7,7.8,6.4,16.7,12.1,8.9l15.2-20.7c3.6-4.9,0-11.9-6.1-11.9h-8.6l24-32.8
	l24,32.8h-8.6c-6,0-9.6,7.1-6.1,11.9l36.2,50.7h-9.2c-6,0-9.6,7.1-6.1,11.9l51,69.6c5.9,8.1,17.7-1.2,12.1-8.9l-42.2-57.7l115.2-0.6
	l-8.7,14.2c-3.2,5.2,1.1,11.4,6.4,11.4h3.3l-20.3,33.2c-4.9,8.1,7.8,15.9,12.8,7.8l27.3-44.6c3.2-5.2-1.1-11.4-6.4-11.4h-3.3
	l27.6-45l27.6,45h-3.3c-5.3,0-9.6,6.2-6.4,11.4l14.8,24.1l-8.9,12.2c-5.7,7.8,6.4,16.7,12.1,8.9l51-69.6c3.6-4.9,0-11.9-6.1-11.9
	h-10.1l37.1-50.7c3.6-4.9,0-11.9-6.1-11.9h-8.3l23.8-32.6l23.8,32.6h-8.6c-6,0-9.6,7.1-6.1,11.9l37.1,50.7h-10.1
	c-6,0-9.6,7.1-6.1,11.9l51,69.6c5.9,8.1,17.7-1.2,12.1-8.9l-42.2-57.7h10.1c6,0,9.6-7.1,6.1-11.9l-37.1-50.7l57.1-0.1
	c9.7,0,9.7-15,0-15h-44.9l-33.1-45.2l9.2-12.5c3.6-4.9,0-11.9-6.1-11.9h-10.1l37.1-50.7c3.6-4.9,0-11.9-6.1-11.9h-8.6l24-32.8
	l24,32.8h-8.6c-6,0-9.6,7-6.1,11.9l23,31.8c5.7,7.9,17.8-0.9,12.2-8.8l-14.4-20h6.3c6.9,0,9.7-10.2,6.1-15.2l-36.4-49.7
	c-4-4.1-8.1-4.1-12.1,0l-1.4,1.9l-11.1-15.1C472.4,162.6,491.5,162.7,510.3,163.8L510.3,163.8z M328.8,235l26.9,43.9h-3
	c-2.7,0-5.2,1.5-6.5,3.8c-1.3,2.4-1.3,5.3,0.1,7.6l26.5,43.3h-87.9l26.5-43.3c1.4-2.3,1.5-5.2,0.1-7.6c-1.3-2.4-3.8-3.8-6.5-3.8h-3
	l8.5-13.9c0,0,0,0,0-0.1L328.8,235z M232.1,167c3.6-4.9,0-11.9-6.1-11.9h-8.6l24-32.8l24,32.8h-8.6c-6,0-9.6,7.1-6.1,11.9l18,24.5
	c0,0,0,0,0,0l19.2,26.2h-10.1c-6,0-9.6,7.1-6.1,11.9l23.3,31.8l-12.9,21c-4.1,6.7,3.4,12.1,9.4,11.4l-20.7,33.8l-17.8-24.3h8.6
	c6,0,9.6-7.1,6.1-11.9l-38.8-53c-4-4.1-8.1-4.1-12.1,0l-2.6,3.5l-5.1-8.4h3c5.3,0,9.6-6.2,6.4-11.4l-12.2-20L232.1,167z
	 M127.9,273.3l26.5-43.3c1.4-2.3,1.5-5.2,0.1-7.6c-1.3-2.4-3.8-3.8-6.5-3.8h-3l26.9-43.9l18.9,31c0,0,0,0,0,0.1l7.9,12.9h-3
	c-2.7,0-5.2,1.5-6.5,3.8c-1.3,2.4-1.3,5.3,0.1,7.6l15.3,25.1l-13.3,18.2H127.9z M192.5,363c1.7-2.3,1.9-5.3,0.6-7.8
	c-1.3-2.5-3.9-4.1-6.7-4.1h-10.1l37.1-50.7c1.7-2.3,1.9-5.3,0.6-7.8c-1.3-2.5-3.9-4.1-6.7-4.1h-8.6l20.9-28.5c0,0,0,0,0,0l3.1-4.2
	l24,32.8h-8.6c-2.8,0-5.4,1.6-6.7,4.1c-1.3,2.5-1,5.5,0.6,7.8l37.1,50.7h-10.1c-2.9,0-5.5,1.6-6.7,4.2c-1.3,2.6-1,5.6,0.8,7.9
	l32.3,42.5l-9.4,15.1H165.6l-7.6-10.4L192.5,363z M355.7,424.4c-3.6,4.9,0,11.9,6.1,11.9h10.1l-23.7,32.4l-4.6-7.5h3.3
	c5.3,0,9.6-6.2,6.4-11.4L312.3,383c-2.9-4.7-9.9-4.7-12.8,0l-5.5,9l-19.7-25.8h9.8c6,0,9.6-7.1,6.1-11.9l-4.1-5.6
	c0,0,101.3-0.1,102-0.3l-9.8,13.4c-3.6,4.9,0,11.9,6.1,11.9h8.6L355.7,424.4z M427.2,229.3c-1.7,2.3-1.9,5.3-0.6,7.8
	c1.3,2.5,3.9,4.1,6.7,4.1h8.6L404.7,292c-1.7,2.3-1.9,5.3-0.6,7.8c1.3,2.5,3.9,4.1,6.7,4.1h10.1l-2.5,3.4c-0.5,0.4-0.9,0.9-1.3,1.4
	l-23.4,32c-0.1-1.2-0.4-2.5-1.1-3.6l-26.5-43.3h3c2.7,0,5.2-1.5,6.5-3.8s1.3-5.3-0.1-7.6l-17-27.7l26.6-36.3
	c1.7-2.3,1.9-5.3,0.6-7.8c-1.3-2.5-3.9-4.1-6.7-4.1h-11.3l39.3-53.7c1.7-2.3,1.9-5.3,0.6-7.8s-3.9-4.1-6.7-4.1h-9.7l25.9-35.3
	l25.9,35.3h-9.7c-2.8,0-5.4,1.6-6.7,4.1c-1.3,2.5-1,5.5,0.6,7.8l28,38.2L427.2,229.3z"/>
<path class="st0" d="M64.5,421.3H54.4l4-5.4c5.7-7.8-6.4-16.7-12.1-8.9l-12.7,17.3c-3.6,4.9,0,11.9,6.1,11.9h10.1L7.5,494
	c-5.6,7.6,6.2,17,12.1,8.9l51-69.6C74.1,428.4,70.5,421.3,64.5,421.3L64.5,421.3z"/>
<path class="st0" d="M34.1,184.5h62.2c15.5,0,28.1-12.6,28.1-28.1c0-14-10.3-25.7-23.8-27.7c-1.9-17.9-17-31.9-35.4-31.9
	s-33.5,14-35.4,31.9C16.3,130.8,6,142.4,6,156.5C6,171.9,18.6,184.5,34.1,184.5z M34.1,143.4c8.3,0,10.5-3,10.5-10.9
	c0-11.4,9.2-20.6,20.6-20.6s20.6,9.2,20.6,20.6c0,8,2.2,10.9,10.5,10.9c7.2,0,13.1,5.9,13.1,13.1c0,7.2-5.9,13.1-13.1,13.1H34.1
	c-7.2,0-13.1-5.9-13.1-13.1C21,149.3,26.9,143.4,34.1,143.4z"/>
<path class="st0" d="M292.1,111.7h62.2c15.5,0,28.1-12.6,28.1-28.1c0-14-10.3-25.7-23.8-27.7C356.7,38,341.5,24,323.2,24
	s-33.5,14-35.4,31.9C274.3,58,264,69.6,264,83.6C264,99.1,276.6,111.7,292.1,111.7L292.1,111.7z M292.1,70.5c8.3,0,10.5-3,10.5-10.9
	c0-11.4,9.2-20.6,20.6-20.6s20.6,9.2,20.6,20.6c0,8,2.2,10.9,10.5,10.9c7.2,0,13.1,5.9,13.1,13.1c0,7.2-5.9,13.1-13.1,13.1h-62.2
	c-7.2,0-13.1-5.9-13.1-13.1C279,76.4,284.9,70.5,292.1,70.5L292.1,70.5z"/>
<path class="st0" d="M121.4,81.7h62.2c15.5,0,28.1-12.6,28.1-28.1c0-14-10.3-25.7-23.8-27.7C186.1,8,170.9-6,152.6-6
	c-2.7,0-5.4,0.3-8,0.9c-9.4,2.2-6.1,16.8,3.4,14.6c1.5-0.3,3.1-0.5,4.6-0.5c11.4,0,20.6,9.2,20.6,20.6c0,8,2.2,10.9,10.5,10.9
	c16.8,0,16.8,26.1,0,26.1h-62.2c-16.8,0-16.8-26.1,0-26.1c3,0.5,5.8-0.1,8.5-1.9c3.3-3.2,1.6-9.9,2.6-13.8
	c2.2-9.4-12.4-12.9-14.6-3.4c-0.3,1.5-0.6,2.9-0.8,4.5C103.7,28,93.4,39.6,93.4,53.6C93.4,69.1,106,81.7,121.4,81.7z"/>
</svg>
