<?xml version="1.0" encoding="iso-8859-1"?>
<!-- Generator: Adobe Illustrator 19.0.0, SVG Export Plug-In . SVG Version: 6.00 Build 0)  -->
<svg version="1.1" id="Capa_1" xmlns="http://www.w3.org/2000/svg" xmlns:xlink="http://www.w3.org/1999/xlink" x="0px" y="0px"
	 viewBox="0 0 511.999 511.999" style="enable-background:new 0 0 511.999 511.999;" xml:space="preserve">
<g>
	<g>
		<g>
			<path d="M391.882,191.904c-4.062,0.829-6.683,4.794-5.854,8.856c1.78,8.723,2.683,17.703,2.683,26.689
				c0,40.691-18.291,78.572-50.183,103.931c-18.955,15.072-32.058,35.844-36.895,58.488c-1.602,7.502-2.626,17.922-2.796,27.71
				h-7.236l9.686-121.054c0.364-4.547-2.221-8.782-6.432-10.537c-4.209-1.755-9.037-0.61-12.013,2.849l-6.328,7.361l-10.899-24.705
				c-1.679-3.807-5.453-6.267-9.614-6.267s-7.935,2.46-9.614,6.267l-10.899,24.705l-6.328-7.362
				c-2.974-3.459-7.802-4.604-12.012-2.848c-4.211,1.755-6.795,5.99-6.432,10.538l9.686,121.053h-7.239
				c-0.17-9.789-1.194-20.21-2.797-27.712c-1.586-7.426-4.069-14.708-7.382-21.645c-1.786-3.74-6.266-5.326-10.008-3.54
				c-3.741,1.786-5.326,6.267-3.54,10.008c2.805,5.876,4.907,12.037,6.248,18.313c1.384,6.479,2.29,15.836,2.458,24.576h-9.218
				c-6.898,0-12.51,5.612-12.51,12.51v35.194c0,6.898,5.612,12.51,12.51,12.51h7.953v21.697c0,6.898,5.612,12.51,12.51,12.51h95.058
				c6.898,0,12.51-5.612,12.51-12.51v-21.697h6.12c6.898,0,12.51-5.612,12.51-12.51v-35.194c0-6.898-5.612-12.51-12.51-12.51h-9.221
				c0.168-8.738,1.074-18.095,2.458-24.574c4.111-19.249,15.318-36.962,31.557-49.873c35.495-28.223,55.851-70.387,55.851-115.682
				c0.004-9.992-1.001-19.982-2.982-29.691C399.908,193.696,395.942,191.075,391.882,191.904z M228.759,311.396
				c2.366,2.752,5.92,4.077,9.511,3.544c3.589-0.532,6.608-2.832,8.073-6.153l9.66-21.896l9.66,21.897
				c1.465,3.32,4.483,5.62,8.073,6.152c3.592,0.532,7.146-0.792,9.511-3.544l1.975-2.297l-8.68,108.478h-41.077l-8.681-108.478
				L228.759,311.396z M301.946,496.987h-90.054v-19.195h90.054V496.987z M320.577,432.59v30.19h-11.125H204.385h-12.957v-30.19
				h14.179h77.86c0.004,0,0.008,0,0.012,0c0.003,0,0.007,0,0.01,0h22.905H320.577z"/>
			<path d="M167.122,325.995c-29.042-26.21-44.992-63.69-43.761-102.832c1.094-34.776,15.636-67.264,40.947-91.48
				c25.304-24.209,58.384-37.357,93.226-36.933c44.509,0.502,85.58,23.134,109.863,60.54c2.258,3.478,6.907,4.465,10.383,2.208
				c3.477-2.257,4.466-6.906,2.208-10.383c-27.026-41.629-72.739-66.817-122.285-67.377c-0.566-0.006-1.13-0.01-1.695-0.01
				c-38.14,0-74.332,14.56-102.079,41.107c-28.17,26.952-44.355,63.125-45.574,101.856c-1.371,43.562,16.382,85.277,48.707,114.45
				c1.436,1.296,3.234,1.934,5.027,1.934c2.051,0,4.093-0.835,5.575-2.477C170.444,333.518,170.2,328.772,167.122,325.995z"/>
			<path d="M255.999,59.819c4.145,0,7.506-3.361,7.506-7.507V7.506c0-4.145-3.36-7.506-7.506-7.506s-7.507,3.361-7.506,7.506v44.807
				C248.493,56.458,251.853,59.819,255.999,59.819z"/>
			<path d="M150.606,82.564c1.39,2.409,3.913,3.755,6.507,3.755c1.273,0,2.564-0.325,3.747-1.008
				c3.59-2.073,4.82-6.664,2.747-10.254l-22.403-38.803c-2.073-3.59-6.665-4.82-10.254-2.747c-3.59,2.073-4.82,6.664-2.747,10.254
				L150.606,82.564z"/>
			<path d="M88.466,144.705l-38.803-22.403c-3.591-2.074-8.181-0.844-10.254,2.747c-2.073,3.59-0.843,8.181,2.747,10.254
				l38.803,22.403c1.182,0.683,2.472,1.007,3.746,1.007c2.594,0,5.117-1.346,6.508-3.754
				C93.286,151.369,92.056,146.778,88.466,144.705z"/>
			<path d="M58.213,242.592H13.408c-4.145,0-7.506,3.361-7.506,7.506c0,4.145,3.36,7.506,7.506,7.506h44.806
				c4.146,0,7.506-3.361,7.506-7.506C65.72,245.953,62.359,242.592,58.213,242.592z"/>
			<path d="M498.592,242.592h-44.806c-4.145,0-7.506,3.361-7.506,7.506c0,4.145,3.36,7.506,7.506,7.506h44.806
				c4.145,0,7.506-3.361,7.506-7.506C506.098,245.953,502.738,242.592,498.592,242.592z"/>
			<path d="M472.591,125.048c-2.073-3.59-6.664-4.82-10.254-2.747l-38.803,22.403c-3.59,2.073-4.82,6.664-2.747,10.254
				c1.39,2.409,3.913,3.755,6.507,3.755c1.273,0,2.564-0.324,3.747-1.008l38.803-22.403
				C473.434,133.229,474.664,128.638,472.591,125.048z"/>
			<path d="M351.139,85.312c1.182,0.683,2.472,1.007,3.746,1.007c2.594,0,5.117-1.347,6.509-3.754l22.403-38.803
				c2.073-3.59,0.843-8.181-2.747-10.254c-3.591-2.074-8.182-0.844-10.254,2.747l-22.404,38.803
				C346.319,78.648,347.549,83.239,351.139,85.312z"/>
		</g>
	</g>
</g>
<g>
</g>
<g>
</g>
<g>
</g>
<g>
</g>
<g>
</g>
<g>
</g>
<g>
</g>
<g>
</g>
<g>
</g>
<g>
</g>
<g>
</g>
<g>
</g>
<g>
</g>
<g>
</g>
<g>
</g>
</svg>
