<?xml version="1.0" encoding="utf-8"?>
<!-- Generator: Adobe Illustrator 19.0.0, SVG Export Plug-In . SVG Version: 6.00 Build 0)  -->
<svg version="1.1" id="Capa_1" xmlns="http://www.w3.org/2000/svg" xmlns:xlink="http://www.w3.org/1999/xlink" x="0px" y="0px"
	 viewBox="6 -6 512 512" style="enable-background:new 6 -6 512 512;" xml:space="preserve">
<style type="text/css">
	.st0{fill:#23C495;}
</style>
<g>
	<g>
		<path class="st0" d="M516.1,286c0-0.3,0-0.6-0.1-0.9l-25.7-178.6c-0.4-3-2.2-5.7-4.9-7.2c-2.7-1.5-5.9-1.8-8.7-0.6l-118.1,47.5
			c-5.1,2.1-7.6,7.9-5.5,13c2.1,5.1,7.9,7.6,13,5.5l106.3-42.7L496,286.7c0,0.5,0.1,0.9,0.1,1.4c5.2,30.5-0.5,62-16,88.8
			c-17.8,30.9-46.6,52.9-81.1,62.1c-34.5,9.2-70.5,4.4-101.5-13.5c-0.2-0.1-0.4-0.2-0.7-0.3c6.6-5,12.9-10.5,18.7-16.3l117.1-31.4
			c5.3-1.4,8.5-6.9,7.1-12.2c-1.4-5.3-6.9-8.5-12.2-7.1l-90.1,24.1c9.9-14.7,17.6-31,22.9-48.3l80.4-21.5c5.3-1.4,8.5-6.9,7.1-12.2
			c-1.4-5.3-6.9-8.5-12.2-7.1L376.5,309l22.2-38.5l47-12.6c5.3-1.4,8.5-6.9,7.1-12.2c-1.4-5.3-6.9-8.5-12.2-7.1l-27.7,7.4l21.3-36.9
			c2.8-4.8,1.1-10.9-3.7-13.7c-4.8-2.8-10.9-1.1-13.7,3.7L395.5,236l-7.4-27.7c-1.4-5.3-6.9-8.5-12.2-7.1c-5.3,1.4-8.5,6.9-7.1,12.2
			l12.6,47l-13,22.5c0.4-32-7.8-63.6-24.2-92.1c-20.7-35.8-53.3-63.6-91.9-78.3c-0.1,0-0.1-0.1-0.2-0.1l-45.3-18.4
			c-5.1-2.1-10.9,0.4-13,5.5c-2.1,5.1,0.4,11,5.5,13l44.8,18.2c0.2,0.1,0.4,0.2,0.6,0.3c34.5,13.1,63.6,37.9,82.1,69.8
			c21.5,37.2,27.1,80.5,15.9,122.1c-10.3,38.3-33.8,70.8-66.7,92.5l-16.8-29.1l36.4-135.8c1.4-5.3-1.7-10.8-7.1-12.2
			c-5.3-1.4-10.8,1.7-12.2,7.1L245.1,362l-37-64.1l25.2-94.2c1.4-5.3-1.7-10.8-7.1-12.2c-5.3-1.4-10.8,1.7-12.2,7.1L194,273.3
			l-29.2-50.6l15.2-56.7c1.4-5.3-1.7-10.8-7.1-12.2c-5.3-1.4-10.8,1.7-12.2,7.1l-10,37.4L123,150.4c-2.8-4.8-8.9-6.4-13.7-3.7
			c-4.8,2.8-6.4,8.9-3.7,13.7l27.6,47.9l-37.4-10c-5.3-1.4-10.8,1.7-12.2,7.1c-1.4,5.3,1.7,10.8,7.1,12.2l56.7,15.2l29.2,50.6
			l-74.9-20.1c-5.3-1.4-10.8,1.7-12.2,7.1c-1.4,5.3,1.7,10.8,7.1,12.2l94.2,25.2l37,64.1l-116.5-31.2c-5.3-1.4-10.8,1.7-12.2,7.1
			c-1.4,5.3,1.7,10.8,7.1,12.2l135.8,36.4l16.8,29.1c-75.6,37.7-168.6,10.5-211.2-63.3C28.8,329.9,22,291.9,28.3,255.1
			c0.1-0.5,0.1-1,0.1-1.5L57,54.9l66.3,26.9c5.1,2.1,10.9-0.4,13-5.5c2.1-5.1-0.4-11-5.5-13L52.6,31.6c-2.8-1.2-6.1-0.9-8.7,0.6
			c-2.7,1.5-4.5,4.2-4.9,7.3L8.4,252.1c0,0.3-0.1,0.7-0.1,1C1.7,294,9.4,336.3,30.2,372.2c33.4,57.9,94.3,90.2,156.9,90.2
			c27.6,0,55.6-6.3,81.7-19.6l12.3,21.3c1.9,3.2,5.2,5,8.7,5c1.7,0,3.4-0.4,5-1.3c4.8-2.8,6.4-8.9,3.7-13.7l-4.6-7.9
			c22.1,11.5,46.2,17.3,70.6,17.3c13.3,0,26.7-1.7,39.8-5.2c39.6-10.6,72.8-35.9,93.3-71.4C515.1,356.5,521.7,320.7,516.1,286z"/>
	</g>
</g>
<g>
	<g>
		<path class="st0" d="M171.3,80.6c-1.9-1.9-4.4-2.9-7.1-2.9c-2.6,0-5.2,1.1-7.1,2.9c-1.9,1.9-2.9,4.4-2.9,7.1
			c0,2.6,1.1,5.2,2.9,7.1c1.9,1.9,4.4,2.9,7.1,2.9c2.6,0,5.2-1.1,7.1-2.9c1.9-1.9,2.9-4.5,2.9-7.1S173.1,82.4,171.3,80.6z"/>
	</g>
</g>
<g>
	<g>
		<path class="st0" d="M449.9,168.4L449.9,168.4c-3.3-4.6-9.6-5.5-14-2.3c-4.5,3.2-5.5,9.5-2.2,14l0.1,0.1c2,2.7,5,4.1,8.1,4.1
			c2,0,4.1-0.6,5.9-1.9C452.1,179.1,453.1,172.8,449.9,168.4z"/>
	</g>
</g>
</svg>
