<svg id="_x33_0" enable-background="new 0 0 64 64" height="512" viewBox="0 0 64 64" width="512" xmlns="http://www.w3.org/2000/svg"><g><path d="m30.5 24.136h2v12.728h-2z" transform="matrix(.707 -.707 .707 .707 -12.341 31.207)"/><path d="m61 32c0-13.262-9.211-24.948-22.005-28.125l.005-.875c0-1.103-.897-2-2-2h-10c-1.103 0-2 .897-2 2v.876c-12.791 3.179-22 14.863-22 28.124 0 11.406 6.656 21.682 17 26.39v1.61c0 1.654 1.346 3 3 3h18c1.654 0 3-1.346 3-3v-1.61c10.344-4.708 17-14.984 17-26.39zm-30-25v-4h2v4zm5.719 2-.5 2h-8.438l-.5-2zm-13.436 11.091c.403-2.819 1.839-5.325 4.059-7.091h9.317c2.219 1.766 3.656 4.272 4.059 7.091l.129.909h-17.694zm-1.067-3.531-1.969-1.969c1.555-1.049 3.264-1.9 5.102-2.51-1.365 1.262-2.419 2.787-3.133 4.479zm-3.583-.756 2.886 2.886c-.085.368-.161.739-.215 1.118l-.27 1.89-.603 1.206c-.041.083-.059.175-.094.26l-4.531-4.531c.847-1.029 1.793-1.976 2.827-2.829zm-4.042 4.443 5.583 5.583c.189.665.528 1.285 1.02 1.778l1.392 1.392-.586.586c-.645.645-1 1.502-1 2.414s.355 1.77 1 2.414l1.586 1.586-.586.586c-.645.645-1 1.502-1 2.414s.355 1.77 1 2.414l1.62 1.62c-1.764 1.967-3.07 4.247-3.828 6.723-6.07-3.836-9.792-10.524-9.792-17.757 0-4.317 1.312-8.373 3.591-11.753zm7.409 34.824c0-3.957 1.435-7.685 4.034-10.623l7.258 7.258 1.414-1.414-10.292-10.292c-.263-.263-.414-.628-.414-1s.151-.737.414-1l.586-.586 8.293 8.293 1.414-1.414-11.293-11.293c-.263-.263-.414-.628-.414-1s.151-.737.414-1l.586-.586 9.293 9.293 1.414-1.414-12.099-12.099c-.386-.386-.608-.922-.608-1.468 0-.32.076-.642.219-.928l.399-.798h18.764l.399.797c.143.287.219.609.219.929 0 .546-.222 1.082-.608 1.468l-5.099 5.099 1.414 1.414 2.293-2.293 1.232 1.232c.496.496.768 1.154.768 1.854s-.272 1.358-.768 1.854l-4.939 4.939 1.414 1.414 1.259-1.259c1.958 2.289 3.034 5.164 3.034 8.209v8.343h-20zm18.38-16.037.741-.741 7.062 7.062c-1.203 1.461-2.604 2.767-4.183 3.87v-.567c0-3.58-1.287-6.955-3.62-9.624zm9.016 4.706-6.861-6.861.111-.111c.874-.873 1.354-2.034 1.354-3.268s-.48-2.395-1.354-3.268l-1.232-1.232 1.392-1.392c.759-.759 1.194-1.809 1.194-2.882 0-.629-.149-1.259-.43-1.823l-.603-1.206-.27-1.89c-.428-3-1.851-5.697-4.046-7.728 8.523 2.834 14.349 10.802 14.349 19.921 0 4.242-1.299 8.32-3.604 11.74zm-12.396-36.74h-2v-4h2zm-8-4v4h-2v-4zm-24 29c0-12.179 8.344-22.926 20-26.057v2.057l.476 1.96c-9.744 2.873-16.476 11.787-16.476 22.04 0 8.149 4.318 15.659 11.306 19.794-.195 1.071-.306 2.165-.306 3.277v1.108c-9.157-4.545-15-13.866-15-24.179zm36 29h-18c-.551 0-1-.449-1-1v-1h20v1c0 .551-.449 1-1 1zm3-4.82v-4.569c6.795-4.169 11-11.622 11-19.611 0-10.247-6.724-19.157-16.46-22.035l.431-1.722.013-2.304c11.664 3.125 20.016 13.876 20.016 26.061 0 10.313-5.843 19.634-15 24.18z"/></g></svg>