<?xml version="1.0" encoding="utf-8"?>
<!-- Generator: Adobe Illustrator 19.0.0, SVG Export Plug-In . SVG Version: 6.00 Build 0)  -->
<svg version="1.1" id="_x33_0" xmlns="http://www.w3.org/2000/svg" xmlns:xlink="http://www.w3.org/1999/xlink" x="0px" y="0px"
	 viewBox="6 -6 512 512" style="enable-background:new 6 -6 512 512;" xml:space="preserve">
<style type="text/css">
	.st0{fill:#23C495;}
</style>
<g>
	<path class="st0" d="M216.3,207.7l11.3-11.3l72,72l-11.3,11.3L216.3,207.7z"/>
	<path class="st0" d="M494,250c0-106.1-73.7-199.6-176-225l0-7c0-8.8-7.2-16-16-16h-80c-8.8,0-16,7.2-16,16v7
		C103.7,50.4,30,143.9,30,250c0,91.2,53.2,173.5,136,211.1V474c0,13.2,10.8,24,24,24h144c13.2,0,24-10.8,24-24v-12.9
		C440.8,423.5,494,341.2,494,250L494,250z M254,50V18h16v32H254z M299.8,66l-4,16h-67.5l-4-16H299.8z M192.3,154.7
		c3.2-22.6,14.7-42.6,32.5-56.7h74.5c17.8,14.1,29.2,34.2,32.5,56.7l1,7.3H191.2L192.3,154.7z M183.7,126.5L168,110.7
		c12.4-8.4,26.1-15.2,40.8-20.1C197.9,100.7,189.4,112.9,183.7,126.5L183.7,126.5z M155.1,120.4l23.1,23.1c-0.7,2.9-1.3,5.9-1.7,8.9
		l-2.2,15.1l-4.8,9.6c-0.3,0.7-0.5,1.4-0.8,2.1l-36.2-36.2C139.2,134.8,146.8,127.3,155.1,120.4L155.1,120.4z M122.7,156l44.7,44.7
		c1.5,5.3,4.2,10.3,8.2,14.2l11.1,11.1l-4.7,4.7c-5.2,5.2-8,12-8,19.3s2.8,14.2,8,19.3l12.7,12.7l-4.7,4.7c-5.2,5.2-8,12-8,19.3
		s2.8,14.2,8,19.3l13,13c-14.1,15.7-24.6,34-30.6,53.8C123.8,361.4,94,307.9,94,250C94,215.5,104.5,183,122.7,156L122.7,156z
		 M182,434.6c0-31.7,11.5-61.5,32.3-85l58.1,58.1l11.3-11.3L201.3,314c-2.1-2.1-3.3-5-3.3-8s1.2-5.9,3.3-8l4.7-4.7l66.3,66.3
		l11.3-11.3L193.3,258c-2.1-2.1-3.3-5-3.3-8s1.2-5.9,3.3-8l4.7-4.7l74.3,74.3l11.3-11.3l-96.8-96.8c-3.1-3.1-4.9-7.4-4.9-11.7
		c0-2.6,0.6-5.1,1.8-7.4l3.2-6.4h150.1l3.2,6.4c1.1,2.3,1.8,4.9,1.8,7.4c0,4.4-1.8,8.7-4.9,11.7l-40.8,40.8l11.3,11.3l18.3-18.3
		l9.9,9.9c4,4,6.1,9.2,6.1,14.8s-2.2,10.9-6.1,14.8l-39.5,39.5l11.3,11.3l10.1-10.1c15.7,18.3,24.3,41.3,24.3,65.7V450H182
		L182,434.6z M329,306.3l5.9-5.9l56.5,56.5c-9.6,11.7-20.8,22.1-33.5,31v-4.5C358,354.6,347.7,327.6,329,306.3L329,306.3z
		 M401.2,343.9L346.3,289l0.9-0.9c7-7,10.8-16.3,10.8-26.1s-3.8-19.2-10.8-26.1l-9.9-9.9l11.1-11.1c6.1-6.1,9.6-14.5,9.6-23.1
		c0-5-1.2-10.1-3.4-14.6l-4.8-9.6l-2.2-15.1c-3.4-24-14.8-45.6-32.4-61.8C383.4,113.3,430,177,430,250
		C430,283.9,419.6,316.6,401.2,343.9L401.2,343.9z M302,50h-16V18h16V50z M238,18v32h-16V18H238z M46,250
		c0-97.4,66.8-183.4,160-208.5V58l3.8,15.7C131.9,96.7,78,168,78,250c0,65.2,34.5,125.3,90.4,158.4c-1.6,8.6-2.4,17.3-2.4,26.2v8.9
		C92.7,407.1,46,332.5,46,250L46,250z M334,482H190c-4.4,0-8-3.6-8-8v-8h160v8C342,478.4,338.4,482,334,482z M358,443.4v-36.6
		c54.4-33.4,88-93,88-156.9c0-82-53.8-153.3-131.7-176.3l3.4-13.8l0.1-18.4C411.2,66.5,478,152.5,478,250
		C478,332.5,431.3,407.1,358,443.4z"/>
</g>
</svg>
