<?xml version="1.0" encoding="utf-8"?>
<!-- Generator: Adobe Illustrator 19.0.0, SVG Export Plug-In . SVG Version: 6.00 Build 0)  -->
<svg version="1.1" id="Warstwa_1" xmlns="http://www.w3.org/2000/svg" xmlns:xlink="http://www.w3.org/1999/xlink" x="0px" y="0px"
	 viewBox="6 -6 512 512" style="enable-background:new 6 -6 512 512;" xml:space="preserve">
<style type="text/css">
	.st0{fill:#23C495;}
</style>
<g id="Page-1">
	<g id="_x30_10---Recycle-Box">
		<path id="Shape" class="st0" d="M151,446.3h93.9c4.7,0,8.5-3.8,8.5-8.5c0-4.7-3.8-8.5-8.5-8.5l-93.9,0.1l49.7-80.2l3.5,15
			c0.9,3.9,4.3,6.6,8.3,6.6c0.7,0,1.3-0.1,2-0.2c4.6-1.1,7.4-5.7,6.4-10.2l-8.2-35.3c-1.1-4.6-5.7-7.4-10.2-6.4l-35.3,8.2
			c-4.5,1.2-7.2,5.7-6.2,10.2c1.1,4.5,5.5,7.4,10.1,6.4l15.4-3.6l-49.9,80.5c-3.3,5.2-3.4,11.8-0.4,17.2
			C139.1,442.9,144.8,446.3,151,446.3z"/>
		<path id="Shape_1_" class="st0" d="M221.2,299.9c1.9,1.2,4.2,1.6,6.4,1s4.1-1.9,5.3-3.8l29-47.2l61.4,99.1l-15.3-3.5
			c-4.6-1.1-9.2,1.8-10.3,6.4c-1.1,4.6,1.8,9.2,6.4,10.3l35.3,8.2c0.6,0.1,1.3,0.2,1.9,0.2c4,0,7.4-2.7,8.3-6.6l8.2-35.3
			c0.9-4.5-1.9-9-6.4-10c-4.5-1-9,1.7-10.2,6.1l-3.5,15.1l-61.3-99c-3.1-5-8.5-8.1-14.4-8.1c-5.9,0-11.3,3.1-14.4,8.1l-29.2,47.2
			C215.9,292.2,217.2,297.5,221.2,299.9L221.2,299.9z"/>
		<path id="Shape_2_" class="st0" d="M354.6,399.6l18.5,29.6h-73.4l11-11c2.9-3.4,2.7-8.4-0.5-11.6s-8.2-3.3-11.6-0.4L273,431.8
			c-3.3,3.3-3.3,8.7,0,12.1l25.6,25.6c3.3,3.2,8.7,3.2,12-0.1c3.3-3.3,3.3-8.6,0.1-12l-11-11.1h73.4c6.2,0,11.8-3.4,14.8-8.8
			c3-5.4,2.8-12-0.4-17.2l-18.4-29.7c-2.5-3.9-7.7-5.1-11.7-2.6C353.4,390.4,352.2,395.6,354.6,399.6L354.6,399.6z"/>
		<path id="Shape_3_" class="st0" d="M492.4,122c14.1,0,25.6-11.5,25.6-25.6V36.7C518,13.1,498.9-6,475.3-6H338.8
			c-23.6,0-42.6,19.1-42.7,42.7v38.1l-21.8-14.6c-2.4-1.6-3.8-4.2-3.8-7V42.8c5.3-3,8.5-8.6,8.5-14.7V11.1C279.1,1.6,271.4-6,262-6
			h-34.1c-9.4,0-17.1,7.6-17.1,17.1v17.1c0,6.1,3.3,11.7,8.5,14.7v10.3c0,2.8-1.4,5.5-3.8,7.1l-29.9,19.9c-2.5-3.6-5.5-6.7-9-9.3
			l-8.7-6.5c8-7,10.8-18.3,7-28.2s-13.3-16.5-23.9-16.5H82.8c-10.6,0-20.2,6.5-23.9,16.5s-1,21.2,7,28.2l-8.7,6.5
			c-10.7,8.1-17,20.7-17.1,34.1v42.7H23.1c-9.4,0-17.1,7.6-17.1,17.1v34.1c0,9.4,7.6,17.1,17.1,17.1h1.6l54.1,262.9
			C82.1,494.6,96,506,112.2,506h299.6c16.2,0,30.1-11.4,33.4-27.2l54.1-262.9h1.6c9.4,0,17.1-7.6,17.1-17.1v-34.1
			c0-9.4-7.6-17.1-17.1-17.1h-51.2V122H492.4z M475.3,11.1c14.1,0,25.6,11.5,25.6,25.6v59.7c0,4.7-3.8,8.5-8.5,8.5h-42.7V36.7
			C449.7,22.5,461.2,11.1,475.3,11.1z M193.7,147.6v-17.1h110.9v17.1H193.7z M227.9,11.1H262v17.1h-34.1V11.1z M225,74.4
			c7.2-4.7,11.4-12.7,11.4-21.3v-7.9h17.1v7.9c0,8.6,4.3,16.5,11.4,21.3l36.1,24.1c2.4,1.6,3.8,4.2,3.8,7l0,7.9H193.7v-8.5
			c0-3-0.4-6-1-9L225,74.4z M82.8,36.7h68.3c4.7,0,8.5,3.8,8.5,8.5s-3.8,8.5-8.5,8.5H82.8c-4.7,0-8.5-3.8-8.5-8.5
			S78.1,36.7,82.8,36.7z M67.4,84.5l18.2-13.7h62.6l18.2,13.7c4,3,7,7.2,8.6,11.9H58.9C60.5,91.7,63.5,87.5,67.4,84.5z M57.2,113.5
			h119.5v34.1H57.2V113.5z M428.5,475.3c-1.6,7.9-8.6,13.6-16.7,13.7H112.2c-8.1,0-15.1-5.7-16.7-13.7L42.1,215.9h439.9L428.5,475.3
			z M500.9,198.8H23.1v-34.1h477.9V198.8z M321.7,147.6v-42.1c0-7.2-3.1-14-8.5-18.8V36.7c0-14.1,11.5-25.6,25.6-25.6h102.4
			c-5.6,7.4-8.6,16.4-8.5,25.6v110.9H321.7z"/>
		<path id="Shape_4_" class="st0" d="M407.1,45.2h-68.3c-4.7,0-8.5,3.8-8.5,8.5s3.8,8.5,8.5,8.5h68.3c4.7,0,8.5-3.8,8.5-8.5
			S411.8,45.2,407.1,45.2z"/>
		<path id="Shape_5_" class="st0" d="M407.1,79.3h-59.7c-4.7,0-8.5,3.8-8.5,8.5c0,4.7,3.8,8.5,8.5,8.5h59.7c4.7,0,8.5-3.8,8.5-8.5
			C415.6,83.2,411.8,79.3,407.1,79.3z"/>
		<path id="Shape_6_" class="st0" d="M407.1,113.5h-59.7c-4.7,0-8.5,3.8-8.5,8.5c0,4.7,3.8,8.5,8.5,8.5h59.7c4.7,0,8.5-3.8,8.5-8.5
			C415.6,117.3,411.8,113.5,407.1,113.5z"/>
	</g>
</g>
</svg>
