<svg height="512" viewBox="0 0 60 60" width="512" xmlns="http://www.w3.org/2000/svg"><g id="Page-1" fill="none" fill-rule="evenodd"><g id="010---Recycle-Box" fill="rgb(0,0,0)" fill-rule="nonzero"><path id="Shape" d="m16.991 53h11.009c.5522847 0 1-.4477153 1-1s-.4477153-1-1-1l-11 .007 5.824-9.4.409 1.752c.1054413.4523742.5085002.7725843.973.773.0770744.000082.1539058-.0086412.229-.026.53707-.1257913.8708555-.6627117.746-1.2l-.964-4.132c-.1257913-.53707-.6627117-.8708555-1.2-.746l-4.132.964c-.5259463.1358912-.8472196.6668002-.7236041 1.1957662.1236156.5289661.6469047.8625068 1.1786041.7512338l1.809-.422-5.849 9.438c-.3817877.6143193-.4007803 1.3872666-.0496248 2.0195956.3511554.632329 1.0173339 1.0247756 1.7406248 1.0254044z"/><path id="Shape" d="m25.215 35.853c.2256684.1396216.4975791.1838204.7558514.1228629.2582724-.0609575.481725-.2220722.6211486-.4478629l3.399-5.528 7.19 11.616-1.792-.416c-.5379253-.1256448-1.0758552.2085747-1.2015.7465-.1256447.5379253.2085747 1.0758552.7465 1.2015l4.131.964c.074811.0170344.1512746.025754.228.026.4648737.0000489.8684737-.3202619.974-.773l.963-4.132c.1082962-.5305464-.2253693-1.0509077-.752709-1.1738724s-1.0567524.1961448-1.194291.7198724l-.412 1.768-7.18-11.6c-.3602979-.5880384-1.0003596-.9465175-1.69-.9465175s-1.3297021.3584791-1.69.9465175l-3.42 5.53c-.2902588.4694816-.1452422 1.0853544.324 1.376z"/><path id="Shape" d="m40.846 47.529 2.168 3.471h-8.6l1.293-1.293c.3389508-.397481.314856-.9888806-.0553061-1.3574708-.3701621-.3685903-.9616589-.3901683-1.3576939-.0495292l-3 3c-.3903819.3904999-.3903819 1.0235001 0 1.414l3 3c.3923789.3789722 1.0160848.3735524 1.4018186-.0121814s.3911536-1.0094397.0121814-1.4018186l-1.293-1.3h8.6c.7219766-.0038686 1.3855257-.3975132 1.7350083-1.0292782.3494826-.6317651.3303571-1.4030547-.0500083-2.0167218l-2.153-3.478c-.2952391-.4587669-.9036989-.5962362-1.3674921-.3089573-.4637931.2872789-.6117411.8932761-.3325079 1.3619573z"/><path id="Shape" d="m57 15c1.6568542 0 3-1.3431458 3-3v-7c-.0033061-2.76005315-2.2399468-4.99669388-5-5h-16c-2.7600532.00330612-4.9966939 2.23994685-5 5v4.466l-2.56-1.711c-.2761581-.18343001-.4415164-.4934769-.44-.825v-1.208c.6167513-.35441258.997855-1.01067322 1-1.722v-2c0-1.1045695-.8954305-2-2-2h-4c-1.1045695 0-2 .8954305-2 2v2c.002145.71132678.3832487 1.36758742 1 1.722v1.208c.0010575.33345027-.1663227.64489027-.445.828l-3.5 2.337c-.2934073-.41696313-.6492391-.78628618-1.055-1.095l-1.019-.765c.9373575-.82159886 1.2662244-2.13875655.8250751-3.30453996-.4411494-1.16578341-1.5596238-1.93524613-2.8060751-1.93046004h-8c-1.24645129-.00478609-2.36492569.76467663-2.80607506 1.93046004s-.11228242 2.4829411.82507506 3.30453996l-1.019.765c-1.25606542.94674243-1.99624531 2.4271022-2 4v5h-2c-1.1045695 0-2 .8954305-2 2v4c0 1.1045695.8954305 2 2 2h.185l6.342 30.807c.38819051 1.8559677 2.0218786 3.1873527 3.918 3.193h35.11c1.8961214-.0056473 3.5298095-1.3370323 3.918-3.193l6.342-30.807h.185c1.1045695 0 2-.8954305 2-2v-4c0-1.1045695-.8954305-2-2-2h-6v-3zm-2-13c1.6568542 0 3 1.34314575 3 3v7c0 .5522847-.4477153 1-1 1h-5v-8c0-1.65685425 1.3431458-3 3-3zm-33 16v-2h13v2zm4-16h4v2h-4zm-.339 7.424c.8383067-.55237814 1.3417436-1.49007159 1.339-2.494v-.93h2v.93c-.0030211 1.00195585.4983507 1.9381756 1.334 2.491l4.226 2.824c.2761581.18343.4415164.4934769.44.825l.0000103.93h-13.0000103v-1c-.0014656-.3532247-.0410277-.7052608-.118-1.05zm-16.661-4.424h8c.5522847 0 1 .44771525 1 1s-.4477153 1-1 1h-8c-.55228475 0-1-.44771525-1-1s.44771525-1 1-1zm-1.8 5.6 2.133-1.6h7.334l2.133 1.6c.4659865.3573171.8159779.8443828 1.006 1.4h-13.612c.19055534-.5553419.54044457-1.0422653 1.006-1.4zm-1.2 3.4h14v4h-14zm43.514 42.4c-.1928321.9292692-1.0099404 1.5966369-1.959 1.6h-35.11c-.9490596-.0033631-1.7661679-.6707308-1.959-1.6l-6.259-30.4h51.546zm8.486-32.4h-56v-4h56zm-21-6v-4.93c-.0052932-.8421765-.3689639-1.6422521-1-2.2v-5.87c0-1.65685425 1.3431458-3 3-3h12c-.6508681.86455901-1.0019591 1.91783193-1 3v13z"/><path id="Shape" d="m47 6h-8c-.5522847 0-1 .44771525-1 1s.4477153 1 1 1h8c.5522847 0 1-.44771525 1-1s-.4477153-1-1-1z"/><path id="Shape" d="m47 10h-7c-.5522847 0-1 .4477153-1 1s.4477153 1 1 1h7c.5522847 0 1-.4477153 1-1s-.4477153-1-1-1z"/><path id="Shape" d="m47 14h-7c-.5522847 0-1 .4477153-1 1s.4477153 1 1 1h7c.5522847 0 1-.4477153 1-1s-.4477153-1-1-1z"/></g></g></svg>