<?xml version="1.0" encoding="utf-8"?>
<!-- Generator: Adobe Illustrator 19.0.0, SVG Export Plug-In . SVG Version: 6.00 Build 0)  -->
<svg version="1.1" id="Layer_1" xmlns="http://www.w3.org/2000/svg" xmlns:xlink="http://www.w3.org/1999/xlink" x="0px" y="0px"
	 viewBox="6 -6 512 512" style="enable-background:new 6 -6 512 512;" xml:space="preserve">
<style type="text/css">
	.st0{fill:#23C495;}
</style>
<g>
	<g>
		<path class="st0" d="M64,249.8c7.7,7.7,15.9,13.6,24.3,17.4c0.6,5.9,1.5,11.8,2.6,17.5c0.7,3.6,3.8,6,7.3,6c0.5,0,1,0,1.5-0.1
			c4.1-0.8,6.7-4.8,5.9-8.8c-2.1-10.4-3.2-21.1-3.2-31.8c0-88,71.6-159.5,159.5-159.5c55.9,0,108.4,29.9,137.1,78
			c2.1,3.6,6.7,4.7,10.3,2.6c3.6-2.1,4.7-6.7,2.6-10.3c-15.2-25.5-36.8-46.9-62.5-61.8C323,83.6,292.8,75.5,262,75.5
			c-60.6,0-114.1,31.1-145.4,78.1c-16.6-7.2-33.3-9.8-42.4-10.7c-10-1-27.7-1.8-33.8,4.4c-8.8,8.8-3.5,41-2.9,44.7
			C40.1,206.2,46.8,232.6,64,249.8L64,249.8z M51.3,158.1c7.1-2,34.1-1.1,57.4,8.5c-1.6,2.8-3,5.7-4.4,8.7c-1-0.7-2.2-1.2-3.5-1.3
			c-4.1-0.5-7.8,2.5-8.3,6.6l-0.8,7.4l-12.8-12.8c-2.9-2.9-7.7-2.9-10.6,0c-2.9,2.9-2.9,7.7,0,10.6l12.8,12.8l-7.4,0.8
			c-4.1,0.5-7.1,4.2-6.6,8.3c0.4,3.8,3.7,6.7,7.4,6.7c0.3,0,0.6,0,0.9,0l16.2-1.8c-2.7,12-4.1,24.5-4.1,37.3
			c-4.4-2.8-8.7-6.3-12.9-10.5c-13.7-13.7-19.5-35.5-21.8-47.3C49.5,174.7,50.3,162.1,51.3,158.1L51.3,158.1z"/>
		<path class="st0" d="M435.8,265.2c0.4-5,0.7-10.1,0.7-15.2c0-20-3.4-39.7-10-58.4c-1.4-3.9-5.7-5.9-9.6-4.6
			c-3.9,1.4-5.9,5.7-4.6,9.6c6.1,17.1,9.1,35.1,9.1,53.4c0,6-0.3,12-1,17.9c-14.7,3.4-35.1,10.5-49.3,24.7
			c-14.2,14.2-22.1,29.9-22.8,45.6c-0.6,12.3,3.3,24.3,11.2,34.4l-10.6,10.6c-0.4,0.4-0.7,0.8-1,1.2c-25.5,16.3-55.3,25.1-85.9,25.1
			c-64.8,0-122.6-38.7-147.4-98.5c-1.6-3.8-6-5.6-9.8-4.1s-5.6,6-4.1,9.8c13.1,31.5,34.9,58.3,63.2,77.6
			c29,19.7,62.9,30.2,98.1,30.2c40.4,0,79.5-14,110.6-39.5c8.9,6.1,19,9.4,29.5,9.4c0.8,0,1.6,0,2.4-0.1
			c15.6-0.8,31.4-8.6,45.6-22.8c17.2-17.2,24-43.6,26.4-57.8c0.6-3.6,6-35.9-2.9-44.7C467,262.4,446.8,263.8,435.8,265.2
			L435.8,265.2z M461.3,313.7c-2.3,11.8-8.1,33.6-21.8,47.3c-11.5,11.5-23.8,17.9-35.7,18.4c-8.2,0.4-16-2-23-6.9l12-12l25.8,2.7
			c0.3,0,0.5,0,0.8,0c3.8,0,7-2.9,7.4-6.7c0.4-4.1-2.6-7.8-6.7-8.2l-13.7-1.4l13-13l19.2,2.2c0.3,0,0.6,0,0.9,0c3.8,0,7-2.8,7.4-6.7
			c0.5-4.1-2.5-7.8-6.6-8.3l-7.4-0.8l12.8-12.8c2.9-2.9,2.9-7.7,0-10.6s-7.7-2.9-10.6,0l-12.8,12.8l-0.8-7.4
			c-0.5-4.1-4.2-7.1-8.3-6.6c-4.1,0.5-7.1,4.2-6.6,8.3l2.2,19.2l-13,13l-1.4-13.7c-0.4-4.1-4.1-7.1-8.2-6.7
			c-4.1,0.4-7.1,4.1-6.7,8.2l2.7,25.8l-12,12c-12.2-17.1-8.1-39,11.5-58.6c13.7-13.7,35.5-19.5,47.3-21.8c9.4-1.8,17.4-2.4,23.4-2.4
			c5,0,8.6,0.4,10.4,0.9C463.8,284,464.6,296.6,461.3,313.7L461.3,313.7z"/>
		<path class="st0" d="M205.2,376.8c1.9,1.1,3.9,1.7,6,1.7c2.6,0,5.3-0.9,7.4-2.7l114.3-96.2c2.4-2,3.9-4.9,4.1-8s-0.8-6.2-2.9-8.5
			l-40.6-45.3l22.2-81.8c1.3-4.9-0.7-10-4.9-12.7c-4.3-2.7-9.8-2.3-13.6,1L191,215.1c-4.5,3.9-5.3,10.7-1.8,15.5l31.8,43.5l-21,90.2
			C198.9,369.2,200.9,374.2,205.2,376.8L205.2,376.8z M236,276c0.8-3.3,0.1-6.7-1.9-9.4l-30.8-42.2l95-81.3l-19.8,72.7
			c-1,3.8-0.1,7.8,2.5,10.7l39.4,44.1L217,357.6L236,276z"/>
		<path class="st0" d="M396.5,450.1c-40.8,27.5-87.6,40.9-134.2,40.9c-62.3,0-124.2-24-170.7-70.6C44.9,373.8,19.8,311.7,21,245.7
			c0.1-4.1-3.2-7.6-7.4-7.6c-4.1-0.1-7.6,3.2-7.6,7.4c-0.6,34,5.4,67.3,17.8,98.8C36.8,376.8,56,406,81,431.1
			c49.5,49.5,115.2,74.9,181.3,74.9c49.5,0,99.2-14.3,142.5-43.4c3.4-2.3,4.3-7,2-10.4C404.6,448.7,399.9,447.8,396.5,450.1
			L396.5,450.1z"/>
		<path class="st0" d="M518,245.4c-1.2-66.6-27.8-129.3-74.9-176.4c-47.5-47.5-110.8-74.2-178-75c-64-0.8-124.9,21.9-172.5,64.1
			l-1.9-24.7c-0.3-4.1-3.9-7.2-8-6.9c-4.1,0.3-7.2,3.9-6.9,8l3.1,40.4c0.3,3.7,3.2,6.6,6.9,6.9l40.4,3.1c0.2,0,0.4,0,0.6,0
			c3.9,0,7.2-3,7.5-6.9c0.3-4.1-2.8-7.7-6.9-8l-23.3-1.8c95.6-83.4,237.9-79.2,328.6,11.5c44.4,44.4,69.4,103.3,70.5,166.1
			c0.1,4.1,3.4,7.4,7.5,7.4c0,0,0.1,0,0.1,0C514.8,252.9,518.1,249.5,518,245.4L518,245.4z"/>
		<path class="st0" d="M454.6,415.9c-0.3-3.7-3.2-6.6-6.9-6.9l-40.4-3.1c-4.1-0.3-7.7,2.8-8,6.9s2.8,7.7,6.9,8l24,1.8
			c-3,2.9-6,5.7-9.1,8.4c-3.1,2.7-3.4,7.5-0.7,10.6c1.5,1.7,3.6,2.5,5.6,2.5c1.8,0,3.5-0.6,5-1.9c3.3-2.9,6.6-6,9.8-9.1l1.8,24.1
			c0.3,3.9,3.6,6.9,7.5,6.9c0.2,0,0.4,0,0.6,0c4.1-0.3,7.2-3.9,6.9-8L454.6,415.9z"/>
	</g>
</g>
</svg>
