<?xml version="1.0" encoding="utf-8"?>
<!-- Generator: Adobe Illustrator 19.0.0, SVG Export Plug-In . SVG Version: 6.00 Build 0)  -->
<svg version="1.1" id="_x33_0" xmlns="http://www.w3.org/2000/svg" xmlns:xlink="http://www.w3.org/1999/xlink" x="0px" y="0px"
	 viewBox="6 -6 512 512" style="enable-background:new 6 -6 512 512;" xml:space="preserve">
<style type="text/css">
	.st0{fill:#23C495;}
</style>
<g>
	<path class="st0" d="M184.2,245.2c2.6-3.9,9-3.9,11.6,0l10,14.9l-23.3,14l63.6,38.1v-76.3l-26.5,15.9l-10.4-15.6
		c-4.3-6.4-11.4-10.2-19.1-10.2s-14.8,3.8-19.1,10.2l-27.6,41.3l13.3,8.9L184.2,245.2z M230,283.9l-16.5-9.9l16.5-9.9V283.9z"/>
	<path class="st0" d="M78,389.7c0,11.2,9.2,20.4,20.4,20.4H174v-16H98.4c-2.4,0-4.4-2-4.4-4.4c0-0.8,0.2-1.7,0.7-2.4l21.9-34.3
		l25.5,15.2v-76l-63.6,38.2l24.4,14.5l-21.6,33.9C79.1,382,78,385.8,78,389.7z M126,320.4V340l-16.4-9.8L126,320.4z"/>
	<path class="st0" d="M260.8,317.8l-13.6,8.5l38.1,61c0.4,0.7,0.7,1.5,0.7,2.4c0,2.4-2,4.4-4.4,4.4H254v-28.9l-73.9,36.9l73.9,36.9
		v-28.9h27.6c11.2,0,20.4-9.2,20.4-20.4c0-3.9-1.1-7.7-3.2-10.9L260.8,317.8z M238,413.1l-22.1-11l22.1-11V413.1z"/>
	<path class="st0" d="M70,442h64v16H70V442z"/>
	<path class="st0" d="M150,442h152v16H150V442z"/>
	<path class="st0" d="M430.6,423.8C481.1,377,510,311,510,242c0-79.3-28.4-156.1-80-216.3l-24-28l-24,28
		C351.7,61,329.5,102.1,316.3,146H286V98c0-52.9-43.1-96-96-96S94,45.1,94,98v48H52.6C31.3,146,14,163.3,14,184.6
		c0,1.2,0.1,2.4,0.2,3.6l22.1,237.5c0.4,3.9-1,7.8-3.8,10.5C25.7,443,22,451.9,22,461.5c0,3.8,0.6,7.6,1.8,11.3l2.9,8.8
		C30,491.4,39.2,498,49.5,498h280.9c10.3,0,19.5-6.6,22.8-16.4l2.9-8.8c1.2-3.7,1.8-7.5,1.8-11.3c0-9.5-3.7-18.5-10.5-25.3
		c-2.8-2.8-4.2-6.6-3.8-10.5l3.8-40.6c9.9,14,21.2,27,33.9,38.8l-7.2,47.9c-0.2,1.1-0.2,2.2-0.2,3.4c0,12.6,10.3,22.9,22.9,22.9
		h18.2c12.6,0,22.9-10.3,22.9-22.9c0-1.1-0.1-2.3-0.2-3.4L430.6,423.8z M110,98c0-44.1,35.9-80,80-80s80,35.9,80,80v96h-32V82
		c0-26.5-21.5-48-48-48s-48,21.5-48,48v112h-32V98z M158,82h64v64h-64V82z M162.4,66c5.6-9.5,15.8-16,27.6-16s22,6.5,27.6,16H162.4z
		 M336.2,447.5c3.7,3.7,5.8,8.7,5.8,14c0,2.1-0.3,4.2-1,6.2l-2.9,8.8c-1.1,3.3-4.2,5.5-7.6,5.5H49.5c-3.4,0-6.5-2.2-7.6-5.5
		l-2.9-8.8c-0.7-2-1-4.1-1-6.3c0-5.3,2.1-10.2,5.8-14c6.2-6.2,9.2-14.6,8.4-23.3L30.1,186.7c-0.1-0.7-0.1-1.4-0.1-2.1
		c0-12.5,10.1-22.6,22.6-22.6H94v32c0,8.8,7.2,16,16,16h32c8.8,0,16-7.2,16-16v-32h64v32c0,8.8,7.2,16,16,16h32c8.8,0,16-7.2,16-16
		v-32h25.9c-6.5,26-9.9,52.8-9.9,80c0,42.7,11.1,84.2,31.5,120.8l-5.7,61.4C327,432.9,330.1,441.4,336.2,447.5L336.2,447.5z
		 M318,242c0-38.6,7.1-76.5,20.6-112.1l59.4,59.4V218h16v-52.7l33.7-33.7l-11.3-11.3L414,142.7V58h-16v108.7l-52.8-52.8
		c12.4-28,28.8-54.2,49-77.8L406,22.3l11.8,13.8C467,93.4,494,166.5,494,242c0,60.8-24,119.2-66.4,162.4l-13.6-91v-20.1l53.7-53.7
		l-11.3-11.3L414,270.7V250h-16v63.4l-2.8,18.5l-39.6-39.6l-11.3,11.3l47.9,47.9l-7.9,52.8C342,361.2,318,302.8,318,242L318,242z
		 M415.1,482h-18.2c-3.8,0-6.9-3.1-6.9-6.9c0-0.3,0-0.7,0.1-1L406,367.9l15.9,106.2c0.1,0.3,0.1,0.7,0.1,1
		C422,478.9,418.9,482,415.1,482z"/>
</g>
</svg>
