<?xml version="1.0" encoding="utf-8"?>
<!-- Generator: Adobe Illustrator 19.0.0, SVG Export Plug-In . SVG Version: 6.00 Build 0)  -->
<svg version="1.1" id="Capa_1" xmlns="http://www.w3.org/2000/svg" xmlns:xlink="http://www.w3.org/1999/xlink" x="0px" y="0px"
	 viewBox="6 -6 512 512" style="enable-background:new 6 -6 512 512;" xml:space="preserve">
<style type="text/css">
	.st0{fill:#23C495;}
</style>
<g>
	<g>
		<path class="st0" d="M377.3,141.2L377.3,141.2c-0.9-2.8-3-5.1-5.9-6.2c-2-0.8-49-18.7-86.4,18.8c-37.5,37.5-19.5,84.4-18.8,86.4
			c1,2.6,3.1,4.6,5.6,5.6c1,0.4,13,5,29.4,5c16.8,0,38.1-4.8,57.1-23.7C392.9,192.4,380.2,149.4,377.3,141.2z M344.2,212.9
			c-16.4,16.4-35.3,18.7-48.5,17.7l33.1-33.1c3.9-3.9,3.9-10.2,0-14.1c-3.9-3.9-10.2-3.9-14.1,0l-33.1,33.1
			c-1-13.2,1.3-32.1,17.7-48.5c22.6-22.6,50-18.4,60.6-15.6C362.7,163.6,366.4,190.6,344.2,212.9z"/>
	</g>
</g>
<g>
	<g>
		<path class="st0" d="M254.8,242.5c-0.3-2.1-8.3-51.7-59.5-65.5c-47.3-12.7-78.1,19.8-83.8,26.5l0,0c-2,2.2-2.9,5.2-2.5,8.2
			c0.3,2.1,8.3,51.7,59.5,65.5c7.6,2,14.8,2.9,21.5,2.9c38.4,0,61.5-28.5,62.7-29.9C254.5,248,255.2,245.2,254.8,242.5z
			 M179.4,236.7l45.2,12.1c-10.9,7.5-28.4,15-50.8,9c-30.9-8.3-41-34.1-43.8-44.6c8.4-8.2,29.9-25,60.3-16.8
			c22.4,6,33.9,21.3,39.6,33.2l-45.2-12.1c-5.3-1.4-10.8,1.7-12.2,7.1S174,235.3,179.4,236.7z"/>
	</g>
</g>
<g>
	<g>
		<path class="st0" d="M335,316.6c-13.7-51.2-63.3-59.1-65.5-59.5c-2.7-0.4-5.5,0.3-7.7,2.1c-1.7,1.3-40.7,33-27,84.2
			c12.7,47.3,56.2,57.7,64.8,59.3l0,0c0.7,0.1,1.4,0.2,2.1,0.2c2.2,0,4.4-0.7,6.2-2.2C309.7,399.5,348.7,367.8,335,316.6z
			 M298.9,382.1c-11.3-3.1-36.6-13.4-44.7-43.8c-6-22.4,1.5-39.9,9-50.8l12.1,45.2c1.2,4.5,5.2,7.4,9.7,7.4c0.9,0,1.7-0.1,2.6-0.3
			c5.3-1.4,8.5-6.9,7.1-12.2l-12.1-45.2c11.9,5.7,27.2,17.2,33.2,39.6C324,352.7,306.6,374.3,298.9,382.1z"/>
	</g>
</g>
<g>
	<g>
		<path class="st0" d="M393.9,223.4l-0.1-0.5c-1.1-5.4-6.3-8.9-11.7-7.9c-5.4,1.1-9,6.3-7.9,11.7l0.1,0.4c0.9,4.8,5.1,8.1,9.8,8.1
			c0.6,0,1.3-0.1,1.9-0.2C391.4,234,395,228.8,393.9,223.4z"/>
	</g>
</g>
<g>
	<g>
		<path class="st0" d="M386.7,249.1c-5.5-0.5-10.3,3.6-10.8,9.1c-1.8,21.7-9.9,42.2-23.1,59.4c-3.4,4.4-2.6,10.6,1.8,14
			c1.8,1.4,4,2.1,6.1,2.1c3,0,5.9-1.3,7.9-3.9c15.7-20.2,25.1-44.4,27.3-70C396.3,254.4,392.2,249.6,386.7,249.1z"/>
	</g>
</g>
<g>
	<g>
		<path class="st0" d="M223.7,354.2l-0.2-0.1c-5.2-2-10.9,0.7-12.9,5.8c-2,5.2,0.7,10.9,5.8,12.9l0.2,0.1c1.2,0.4,2.4,0.6,3.5,0.6
			c4,0,7.8-2.5,9.4-6.5C231.5,361.9,228.9,356.1,223.7,354.2z"/>
	</g>
</g>
<g>
	<g>
		<path class="st0" d="M196.9,339.7c-4.6-3.4-9.1-7.2-13.2-11.3c-12.5-12.5-21.7-27.3-27.3-44c-1.7-5.2-7.4-8.1-12.6-6.3
			c-5.2,1.7-8.1,7.4-6.3,12.6c6.5,19.7,17.3,37.1,32.1,51.8c4.8,4.8,10,9.3,15.5,13.3c1.8,1.3,3.9,1.9,5.9,1.9
			c3.1,0,6.1-1.4,8.1-4.1C202.3,349.2,201.4,343,196.9,339.7z"/>
	</g>
</g>
<g>
	<g>
		<path class="st0" d="M190,149.7c-3.6-4.1-10-4.6-14.1-0.9l-0.5,0.5c-4.1,3.7-4.5,10-0.8,14.1c2,2.2,4.7,3.4,7.5,3.4
			c2.4,0,4.7-0.8,6.6-2.5l0.5-0.4C193.2,160.1,193.6,153.8,190,149.7z"/>
	</g>
</g>
<g>
	<g>
		<path class="st0" d="M282.8,117.2c-27.3-4-54.8,0.5-79.3,12.9c-4.9,2.5-6.9,8.5-4.4,13.4c1.8,3.5,5.3,5.5,8.9,5.5
			c1.5,0,3.1-0.3,4.5-1.1c20.8-10.6,44.1-14.3,67.4-11c5.5,0.8,10.5-3,11.3-8.5C292,123,288.2,117.9,282.8,117.2z"/>
	</g>
</g>
<g>
	<g>
		<path class="st0" d="M498.5,27.7l16.6-16.6c3.9-3.9,3.9-10.2,0-14.1c-3.9-3.9-10.2-3.9-14.1,0l-16.6,16.6L467.7-3.1
			c-1.9-1.9-4.4-2.9-7.1-2.9H297.5c-13.4,0-25.9,5.2-35.4,14.6L8.9,261.8C5,265.7,5,272.1,8.9,276L236,503.1c2,2,4.5,2.9,7.1,2.9
			s5.1-1,7.1-2.9l253.1-253.1c9.4-9.4,14.6-22,14.6-35.3L518,51.4c0-2.7-1.1-5.2-2.9-7.1L498.5,27.7z M497.9,214.6
			c0,8-3.1,15.5-8.8,21.2l-246,246L30.1,268.9L276.2,22.8c5.7-5.7,13.2-8.8,21.2-8.8h159.1l13.7,13.7l-40.4,40.4
			c-3.9,3.9-3.9,10.2,0,14.1c2,2,4.5,2.9,7.1,2.9c2.6,0,5.1-1,7.1-2.9l40.4-40.4L498,55.5L497.9,214.6z"/>
	</g>
</g>
<g>
	<g>
		<path class="st0" d="M465.3,89.4c-3.9-3.9-10.2-3.9-14.1,0c-7.9,7.9-20.6,7.9-28.5,0c-7.9-7.9-7.9-20.6,0-28.5
			c3.9-3.9,3.9-10.2,0-14.1c-3.9-3.9-10.2-3.9-14.1,0c-15.6,15.6-15.6,41.1,0,56.8c7.8,7.8,18.1,11.7,28.4,11.7s20.6-3.9,28.4-11.7
			C469.2,99.6,469.2,93.3,465.3,89.4z"/>
	</g>
</g>
</svg>
