<?xml version="1.0" encoding="iso-8859-1"?>
<!-- Generator: Adobe Illustrator 19.0.0, SVG Export Plug-In . SVG Version: 6.00 Build 0)  -->
<svg version="1.1" id="Capa_1" xmlns="http://www.w3.org/2000/svg" xmlns:xlink="http://www.w3.org/1999/xlink" x="0px" y="0px"
	 viewBox="0 0 512 512" style="enable-background:new 0 0 512 512;" xml:space="preserve">
<g>
	<g>
		<path d="M371.276,147.187l-0.003-0.011c-0.91-2.82-3.04-5.124-5.849-6.231c-1.982-0.782-48.955-18.701-86.416,18.759
			c-37.461,37.461-19.538,84.433-18.757,86.414c1.017,2.577,3.057,4.617,5.634,5.634c0.98,0.387,12.958,4.964,29.351,4.964
			c16.757,0,38.126-4.785,57.063-23.722C386.895,198.398,374.176,155.446,371.276,147.187z M338.156,218.851
			c-16.403,16.403-35.339,18.693-48.523,17.661l33.092-33.092c3.905-3.905,3.905-10.237,0-14.143
			c-3.905-3.904-10.237-3.904-14.143,0l-33.09,33.09c-1.034-13.192,1.259-32.123,17.657-48.521
			c22.614-22.612,50.05-18.411,60.579-15.646C356.683,169.566,360.434,196.574,338.156,218.851z"/>
	</g>
</g>
<g>
	<g>
		<path d="M248.814,248.458c-0.314-2.106-8.278-51.745-59.451-65.457c-47.255-12.66-78.095,19.826-83.798,26.467l-0.007,0.009
			c-1.989,2.198-2.919,5.195-2.474,8.183c0.314,2.106,8.281,51.746,59.453,65.458c7.627,2.043,14.817,2.915,21.544,2.915
			c38.403,0,61.543-28.46,62.671-29.879C248.476,253.985,249.223,251.198,248.814,248.458z M173.367,242.723l45.194,12.107
			c-10.908,7.491-28.449,14.97-50.848,8.968c-30.886-8.276-40.967-34.135-43.839-44.638c8.365-8.24,29.882-24.994,60.312-16.841
			c22.407,6.004,33.859,21.26,39.557,33.195l-45.2-12.109c-5.337-1.431-10.818,1.736-12.247,7.071S168.033,241.294,173.367,242.723z
			"/>
	</g>
</g>
<g>
	<g>
		<path d="M328.999,322.618c-13.71-51.174-63.349-59.14-65.456-59.453c-2.745-0.409-5.528,0.339-7.697,2.063
			c-1.667,1.325-40.674,33.042-26.962,84.215c12.661,47.253,56.217,57.72,64.819,59.338l0.01,0.002
			c0.695,0.149,1.399,0.224,2.101,0.224c2.226,0,4.426-0.743,6.224-2.172C303.705,405.51,342.711,373.79,328.999,322.618z
			 M292.944,388.078c-11.32-3.124-36.587-13.382-44.741-43.812c-6.003-22.403,1.479-39.947,8.965-50.849l12.104,45.21
			c1.196,4.469,5.237,7.417,9.653,7.417c0.856,0,1.727-0.111,2.593-0.343c5.335-1.429,8.501-6.911,7.073-12.246l-12.106-45.218
			c11.943,5.7,27.194,17.152,33.197,39.555C317.958,358.68,300.603,380.34,292.944,388.078z"/>
	</g>
</g>
<g>
	<g>
		<path d="M387.919,229.357l-0.093-0.479c-1.063-5.42-6.311-8.948-11.737-7.89c-5.42,1.066-8.952,6.321-7.889,11.739l0.081,0.418
			c0.922,4.783,5.111,8.108,9.808,8.108c0.628,0,1.265-0.06,1.904-0.183C385.416,240.024,388.965,234.78,387.919,229.357z"/>
	</g>
</g>
<g>
	<g>
		<path d="M380.726,255.085c-5.495-0.46-10.343,3.613-10.811,9.116c-1.846,21.707-9.85,42.245-23.146,59.396
			c-3.384,4.364-2.588,10.646,1.776,14.03c1.823,1.413,3.979,2.097,6.12,2.097c2.985,0,5.939-1.331,7.91-3.873
			c15.666-20.207,25.095-44.396,27.268-69.955C390.311,260.393,386.229,255.553,380.726,255.085z"/>
	</g>
</g>
<g>
	<g>
		<path d="M217.703,360.191l-0.186-0.07c-5.167-1.95-10.938,0.652-12.89,5.819c-1.953,5.166,0.652,10.937,5.818,12.89l0.186,0.07
			c1.165,0.439,2.359,0.648,3.534,0.648c4.039,0,7.843-2.466,9.355-6.468C225.474,367.915,222.869,362.144,217.703,360.191z"/>
	</g>
</g>
<g>
	<g>
		<path d="M190.908,345.688c-4.648-3.407-9.088-7.218-13.196-11.326c-12.529-12.529-21.7-27.339-27.257-44.018
			c-1.746-5.239-7.408-8.072-12.648-6.326c-5.24,1.746-8.072,7.408-6.326,12.648c6.547,19.651,17.344,37.092,32.089,51.837
			c4.827,4.827,10.047,9.308,15.516,13.315c1.781,1.306,3.852,1.936,5.903,1.936c3.078,0,6.115-1.417,8.074-4.09
			C196.328,355.211,195.363,348.953,190.908,345.688z"/>
	</g>
</g>
<g>
	<g>
		<path d="M183.956,155.681c-3.646-4.146-9.965-4.555-14.113-0.908l-0.532,0.471c-4.13,3.666-4.507,9.986-0.841,14.116
			c1.976,2.225,4.722,3.361,7.482,3.361c2.361,0,4.73-0.831,6.635-2.521l0.46-0.406
			C187.195,166.148,187.602,159.829,183.956,155.681z"/>
	</g>
</g>
<g>
	<g>
		<path d="M276.764,123.15c-27.346-3.989-54.765,0.473-79.297,12.903c-4.927,2.496-6.897,8.513-4.401,13.439
			c1.762,3.479,5.279,5.483,8.928,5.483c1.52,0,3.063-0.348,4.512-1.082c20.833-10.555,44.131-14.345,67.372-10.952
			c5.461,0.795,10.542-2.986,11.338-8.452C286.013,129.024,282.23,123.948,276.764,123.15z"/>
	</g>
</g>
<g>
	<g>
		<path d="M492.492,33.694l16.579-16.579c3.905-3.905,3.906-10.237,0-14.143c-3.906-3.903-10.237-3.904-14.142,0l-16.579,16.58
			L461.746,2.948c-1.875-1.875-4.419-2.929-7.071-2.929H291.451c-13.356,0-25.912,5.201-35.355,14.645L2.929,267.831
			c-3.905,3.905-3.905,10.237,0,14.143l227.079,227.078c1.952,1.952,4.512,2.929,7.071,2.929c2.559,0,5.119-0.977,7.071-2.929
			l253.116-253.115c9.436-9.437,14.637-21.982,14.645-35.328L512,57.351c0.001-2.654-1.052-5.2-2.929-7.077L492.492,33.694z
			 M491.91,220.597c-0.005,8.008-3.125,15.536-8.787,21.197L237.078,487.838L24.142,274.902L270.238,28.807
			c5.666-5.667,13.199-8.787,21.213-8.787h159.082l13.674,13.675L423.842,74.06c-3.905,3.905-3.905,10.237,0,14.143
			c1.953,1.952,4.512,2.929,7.071,2.929c2.559,0,5.119-0.977,7.071-2.929l40.365-40.365l13.648,13.648L491.91,220.597z"/>
	</g>
</g>
<g>
	<g>
		<path d="M459.295,95.368c-3.904-3.902-10.236-3.903-14.141,0.001c-7.852,7.853-20.628,7.854-28.48,0
			c-7.852-7.852-7.852-20.627,0-28.479c3.905-3.905,3.905-10.237,0-14.143c-3.905-3.904-10.237-3.904-14.143,0
			c-15.649,15.649-15.649,41.114,0,56.764c7.825,7.824,18.104,11.737,28.382,11.737c10.278,0,20.557-3.913,28.382-11.737
			C463.2,105.606,463.201,99.274,459.295,95.368z"/>
	</g>
</g>
<g>
</g>
<g>
</g>
<g>
</g>
<g>
</g>
<g>
</g>
<g>
</g>
<g>
</g>
<g>
</g>
<g>
</g>
<g>
</g>
<g>
</g>
<g>
</g>
<g>
</g>
<g>
</g>
<g>
</g>
</svg>
