<?xml version="1.0" encoding="utf-8"?>
<!-- Generator: Adobe Illustrator 19.0.0, SVG Export Plug-In . SVG Version: 6.00 Build 0)  -->
<svg version="1.1" id="Warstwa_1" xmlns="http://www.w3.org/2000/svg" xmlns:xlink="http://www.w3.org/1999/xlink" x="0px" y="0px"
	 viewBox="38 -6 576 512" style="enable-background:new 38 -6 576 512;" xml:space="preserve">
<style type="text/css">
	.st0{fill:#23C495;}
</style>
<path class="st0" d="M458.5,295.9c-13.3,0-24-10.7-24-24s10.7-24,24-24s24,10.7,24,24S471.8,295.9,458.5,295.9 M193.4,295.9
	c-13.3,0-24-10.7-24-24s10.7-24,24-24s24,10.7,24,24S206.7,295.9,193.4,295.9 M467.1,151.4l47.9-83c3.1-4.6,1.9-10.8-2.7-13.9
	c-4.6-3.1-10.8-1.9-13.9,2.7c-0.2,0.4-0.5,0.7-0.7,1.1l0,0l-48.5,84.1c-78.4-35.2-168.1-35.2-246.6,0l-48.5-84.1
	c-2.4-5-8.4-7-13.4-4.5c-5,2.4-7,8.4-4.5,13.4c0.2,0.4,0.4,0.8,0.7,1.1l0,0l47.9,83C102.5,196.2,46.2,279.5,38,378h576
	C605.8,279.5,549.5,196.2,467.1,151.4"/>
</svg>
