<?xml version="1.0" encoding="utf-8"?>
<!-- Generator: Adobe Illustrator 19.0.0, SVG Export Plug-In . SVG Version: 6.00 Build 0)  -->
<svg version="1.1" id="Warstwa_1" xmlns="http://www.w3.org/2000/svg" xmlns:xlink="http://www.w3.org/1999/xlink" x="0px" y="0px"
	 viewBox="-1 -6 496 512" style="enable-background:new -1 -6 496 512;" xml:space="preserve">
<style type="text/css">
	.st0{fill:#23C495;}
</style>
<path class="st0" d="M130.5,211.5L54.1,94.1c47.6-59.2,119-91.8,192-92.1c42.3-0.3,85.5,10.5,124.8,33.2
	c43.4,25.2,76.4,61.4,97.4,103L263,127.4C204.9,124,149.6,156.7,130.5,211.5z M163.4,250c0,46.2,37.4,83.6,83.6,83.6
	s83.6-37.4,83.6-83.6s-37.4-83.6-83.6-83.6S163.4,203.7,163.4,250z M478.3,160.8L338.6,168c37.9,44.3,38.5,108.2,6.6,157.2
	L233.1,497.6c46.5,2.5,94.4-7.7,137.8-32.9C478.3,402.7,521.8,272.7,478.3,160.8L478.3,160.8z M132.7,297.6L39.4,114.1
	C13.9,153.1-1,199.9-1,250c0,124,90.8,226.7,209.5,244.9l63.7-124.8C214.6,380.9,159,349.3,132.7,297.6L132.7,297.6z"/>
</svg>
