<?xml version="1.0" encoding="utf-8"?>
<!-- Generator: Adobe Illustrator 19.0.0, SVG Export Plug-In . SVG Version: 6.00 Build 0)  -->
<svg version="1.1" id="Warstwa_1" xmlns="http://www.w3.org/2000/svg" xmlns:xlink="http://www.w3.org/1999/xlink" x="0px" y="0px"
	 viewBox="6 -6 512 512" style="enable-background:new 6 -6 512 512;" xml:space="preserve">
<style type="text/css">
	.st0{fill:#23C495;}
</style>
<path class="st0" d="M487.9,128.5C446.9,48.2,358.3,2,261.9,2C143.1,2,43.5,85.7,19.5,197.7c26-46.5,86.2-79.1,149.5-79.1
	c79.3,0,121.1,48.9,122.2,50.2c22,23.8,33,50.4,33,83.1c0,10.4-5.3,25.8-15.1,38.6c-1.6,2-6.4,4.8-6.4,11c0,5.1,3.3,9.9,9.1,14
	c27.9,19.4,80.4,16.8,80.5,16.8c20.6-0.1,40.9-5.6,58.6-16.2c36.4-21.3,58.9-60.3,59-102.4C510.4,170.1,494.4,141.3,487.9,128.5z
	 M218.8,469.7c-18.5-11.5-34.4-26.9-46.6-45c-32.9-47.4-34.2-95.6-20.1-136c10.1-31.7,30-59.4,57-78.9c59-45.2,94.8-5.6,99.1-1
	c-1.4-3.5-3-6.9-4.9-10.1c-9.2-15.9-24-36.4-56.6-53.5c-33.7-17.7-70.6-18.6-77.6-18.6c-38.7,0-77.9,13-107.5,35.7
	c-19.8,15.1-42.7,40.5-46.8,74.8c-1.1,12.3-2.8,62.8,23,118.3c44.5,95,143.9,151.6,248.3,141.6C247.8,490.3,220.1,470.2,218.8,469.7
	z M469.5,371.3c-2.4-1.5-5.4-1.6-7.9-0.2c-6.6,3.5-13.4,6.5-20.4,9.1c-22.2,8.3-45.8,12.6-69.5,12.5c-91.7,0-171.5-63.1-171.5-144
	c0.1-9.3,2.3-18.4,6.5-26.8c-16,14.1-29.1,31-38.8,50c-14.9,29.4-33,88.1,13.3,151.7c6.5,8.9,23,30,56,47.7
	c23.6,12.6,49,19.6,71.7,19.6c35.1,0,115.4-33.4,163-108.9C474.2,378.5,473.1,373.7,469.5,371.3
	C469.5,371.4,469.5,371.3,469.5,371.3L469.5,371.3z"/>
</svg>
