<?xml version="1.0" encoding="utf-8"?>
<!-- Generator: Adobe Illustrator 19.0.0, SVG Export Plug-In . SVG Version: 6.00 Build 0)  -->
<svg version="1.1" id="Warstwa_1" xmlns="http://www.w3.org/2000/svg" xmlns:xlink="http://www.w3.org/1999/xlink" x="0px" y="0px"
	 viewBox="6 -6 512 512" style="enable-background:new 6 -6 512 512;" xml:space="preserve">
<style type="text/css">
	.st0{fill:#23C495;}
</style>
<path class="st0" d="M489,153.7c10.9-24.6,21.4-60.4,21.4-87.9c0-72.7-79.6-98.4-209.7-38.6C193.2,20.1,89.6,100.9,63.7,213.7
	c30.9-34.9,78.3-82.3,122-101.2C131.4,160.9,85.1,222,50,285.7c-20.7,37.9-44,99.2-44,145c0,98.6,92.9,86.5,180.3,42
	c31.4,15.4,66.6,15.6,101.7,15.6c97.1,0,184.2-54.3,216.8-146H383.9c-52.5,88.6-196.8,53-196.8-47.4h328.8
	C522.3,251.3,514.2,199.2,489,153.7L489,153.7z M70.6,340.9c17.7,51.1,53.7,95.9,100.3,123.3C82.1,513.1-2.4,493.3,70.6,340.9z
	 M186.5,232c2-55.2,50.3-94.9,104-94.9c53.4,0,102,39.7,104,94.9H186.5z M371.1,44.4c21.4-10.3,48.6-22,72.6-22
	c31.4,0,54.3,21.7,54.3,53.7c0,20-7.4,49-14.6,67.9C457.1,101.7,417.3,62.4,371.1,44.4z"/>
</svg>
