<?xml version="1.0" encoding="utf-8"?>
<!-- Generator: Adobe Illustrator 19.0.0, SVG Export Plug-In . SVG Version: 6.00 Build 0)  -->
<svg version="1.1" id="Warstwa_1" xmlns="http://www.w3.org/2000/svg" xmlns:xlink="http://www.w3.org/1999/xlink" x="0px" y="0px"
	 viewBox="70 -6 640 512" style="enable-background:new 70 -6 640 512;" xml:space="preserve">
<style type="text/css">
	.st0{fill:#23C495;}
</style>
<path class="st0" d="M386.3,440c-2.1,0-4.2-0.6-6.1-1.6L361,427c-2.9-1.6-1.5-2.2-0.5-2.5c3.8-1.3,4.6-1.6,8.7-4
	c0.4-0.2,1-0.1,1.4,0.1l14.8,8.8c0.5,0.3,1.3,0.3,1.8,0L445,396c0.5-0.3,0.9-0.9,0.9-1.6v-66.7c0-0.7-0.3-1.3-0.9-1.6l-57.8-33.3
	c-0.5-0.3-1.2-0.3-1.8,0l-57.8,33.3c-0.6,0.3-0.9,1-0.9,1.6v66.7c0,0.6,0.4,1.2,0.9,1.5l15.8,9.1c8.6,4.3,13.9-0.8,13.9-5.8v-65.9
	c0-0.9,0.7-1.7,1.7-1.7h7.3c0.9,0,1.7,0.7,1.7,1.7v65.9c0,11.5-6.2,18-17.1,18c-3.3,0-6,0-13.3-3.6l-15.2-8.7
	c-3.7-2.2-6.1-6.2-6.1-10.5v-66.7c0-4.3,2.3-8.4,6.1-10.5l57.8-33.4c3.7-2.1,8.5-2.1,12.1,0l57.8,33.4c3.7,2.2,6.1,6.2,6.1,10.5
	v66.7c0,4.3-2.3,8.4-6.1,10.5l-57.8,33.4C390.6,439.4,388.5,440,386.3,440L386.3,440z M433,374.2c0-12.5-8.4-15.8-26.2-18.2
	c-18-2.4-19.8-3.6-19.8-7.8c0-3.5,1.5-8.1,14.8-8.1c11.9,0,16.3,2.6,18.1,10.6c0.2,0.8,0.8,1.3,1.6,1.3h7.5c0.5,0,0.9-0.2,1.2-0.5
	c0.3-0.4,0.5-0.8,0.4-1.3c-1.2-13.8-10.3-20.2-28.8-20.2c-16.5,0-26.3,7-26.3,18.6c0,12.7,9.8,16.1,25.6,17.7
	c18.9,1.9,20.4,4.6,20.4,8.3c0,6.5-5.2,9.2-17.4,9.2c-15.3,0-18.7-3.8-19.8-11.4c-0.1-0.8-0.8-1.4-1.7-1.4h-7.5
	c-0.9,0-1.7,0.7-1.7,1.7c0,9.7,5.3,21.3,30.6,21.3C422.5,394,433,386.8,433,374.2L433,374.2z M487.5,324.1c0,6.1-5,11.1-11.1,11.1
	c-6.1,0-11.1-5-11.1-11.1c0-6.3,5.2-11.1,11.1-11.1C482.4,312.9,487.5,317.8,487.5,324.1z M485.7,324.1c0-5.2-4.2-9.3-9.4-9.3
	c-5.1,0-9.3,4.1-9.3,9.3c0,5.2,4.2,9.4,9.3,9.4C481.5,333.4,485.7,329.2,485.7,324.1z M481.2,330.3h-2.6c-0.1-0.6-0.5-3.8-0.5-3.9
	c-0.2-0.7-0.4-1.1-1.3-1.1h-2.2v5h-2.4v-12.5h4.3c1.5,0,4.4,0,4.4,3.3c0,2.3-1.5,2.8-2.4,3.1c1.7,0.1,1.8,1.2,2.1,2.8
	C480.7,328,480.9,329.7,481.2,330.3L481.2,330.3z M478.4,321.5c0-1.7-1.2-1.7-1.8-1.7h-2v3.5h1.9
	C478.1,323.3,478.4,322.2,478.4,321.5z M207.3,179c0-2.7-1.4-5.1-3.7-6.4l-61.3-35.3c-1-0.6-2.2-0.9-3.4-1h-0.6
	c-1.2,0-2.3,0.4-3.4,1l-61.2,35.3c-2.3,1.3-3.7,3.8-3.7,6.4l0.1,95c0,1.3,0.7,2.5,1.8,3.2s2.5,0.7,3.7,0l36.4-20.9
	c2.3-1.4,3.7-3.8,3.7-6.4v-44.4c0-2.6,1.4-5.1,3.7-6.4l15.5-8.9c1.2-0.7,2.4-1,3.7-1s2.6,0.3,3.7,1l15.5,8.9
	c2.3,1.3,3.7,3.8,3.7,6.4v44.4c0,2.6,1.4,5.1,3.7,6.4l36.4,20.9c1.1,0.7,2.6,0.7,3.7,0c1.1-0.6,1.8-1.9,1.8-3.2L207.3,179L207.3,179
	z M542.5,75.3v176.4c0,2.6-1.4,5.1-3.7,6.4l-61.3,35.4c-2.3,1.3-5.1,1.3-7.4,0l-61.3-35.4c-2.3-1.3-3.7-3.8-3.7-6.4v-70.8
	c0-2.6,1.4-5.1,3.7-6.4l61.3-35.4c2.3-1.3,5.1-1.3,7.4,0l15.3,8.8c1.7,1,3.9-0.3,3.9-2.2v-94c0-2.8,3-4.6,5.5-3.2l36.5,20.4
	C541,70.1,542.5,72.6,542.5,75.3L542.5,75.3z M496.5,204.2c0-0.7-0.4-1.3-0.9-1.6l-21-12.2c-0.6-0.3-1.3-0.3-1.9,0l-21,12.2
	c-0.6,0.3-0.9,0.9-0.9,1.6v24.3c0,0.7,0.4,1.3,0.9,1.6l21,12.1c0.6,0.3,1.3,0.3,1.8,0l21-12.1c0.6-0.3,0.9-0.9,0.9-1.6v-24.3H496.5z
	 M706.3,203.5c2.3-1.3,3.7-3.8,3.7-6.4V180c0-2.6-1.4-5.1-3.7-6.4l-60.9-35.4c-2.3-1.3-5.1-1.3-7.4,0l-61.3,35.4
	c-2.3,1.3-3.7,3.8-3.7,6.4v70.8c0,2.7,1.4,5.1,3.7,6.4l60.9,34.7c2.2,1.3,5,1.3,7.3,0l36.8-20.5c2.5-1.4,2.5-5,0-6.4L620,229.6
	c-1.2-0.7-1.9-1.9-1.9-3.2v-22.2c0-1.3,0.7-2.5,1.9-3.2l19.2-11.1c1.1-0.7,2.6-0.7,3.7,0l19.2,11.1c1.1,0.7,1.9,1.9,1.9,3.2v17.4
	c0,2.8,3.1,4.6,5.6,3.2L706.3,203.5L706.3,203.5z M629,207c-0.4,0.3-0.7,0.7-0.7,1.2v13.6c0,0.5,0.3,1,0.7,1.2l11.8,6.8
	c0.4,0.3,1,0.3,1.4,0L654,223c0.4-0.3,0.7-0.7,0.7-1.2v-13.6c0-0.5-0.3-1-0.7-1.2l-11.8-6.8c-0.4-0.3-1-0.3-1.4,0L629,207z
	 M374.8,250.5v-70.4c0-2.6-1.6-5.1-3.9-6.4l-61.1-35.2c-2.1-1.2-5-1.4-7.4,0l-61.1,35.2c-2.3,1.3-3.9,3.7-3.9,6.4v70.4
	c0,2.8,1.9,5.2,4,6.4l61.2,35.2c2.4,1.4,5.2,1.3,7.4,0l61-35.2c1.8-1,3.1-2.7,3.6-4.7C374.7,251.7,374.8,251.1,374.8,250.5
	L374.8,250.5z M300.5,125.6l-0.8,0.5h1.1L300.5,125.6z M376.7,255.8l-0.4-0.7v0.9L376.7,255.8L376.7,255.8z"/>
</svg>
