<?xml version="1.0" encoding="utf-8"?>
<!-- Generator: Adobe Illustrator 19.0.0, SVG Export Plug-In . SVG Version: 6.00 Build 0)  -->
<svg version="1.1" id="Warstwa_1" xmlns="http://www.w3.org/2000/svg" xmlns:xlink="http://www.w3.org/1999/xlink" x="0px" y="0px"
	 viewBox="70 -6 640 512" style="enable-background:new 70 -6 640 512;" xml:space="preserve">
<style type="text/css">
	.st0{fill:#23C495;}
</style>
<path class="st0" d="M390,98.5c171.4,0,303.2,72.2,303.2,151.5S561.3,401.5,390,401.5c-171.4,0-303.2-72.2-303.2-151.5
	S218.7,98.5,390,98.5 M390,81.7C213.3,81.7,70,157,70,250s143.3,168.3,320,168.3S710,343,710,250S566.7,81.7,390,81.7z M288.2,236.5
	c-7.9,40.5-35.8,36.3-70.1,36.3l13.7-70.6C269.8,202.2,295.6,198.1,288.2,236.5L288.2,236.5z M167.4,344.3h36.7l8.7-44.8
	c41.1,0,66.6,3,90.2-19.1c26.1-24,32.9-66.7,14.3-88.1c-9.7-11.2-25.3-16.7-46.5-16.7h-70.7L167.4,344.3z M353.1,130.7h36.5
	l-8.7,44.8c31.5,0,60.7-2.3,74.8,10.7c14.8,13.6,7.7,31-8.3,113.1h-37c15.4-79.4,18.3-86,12.7-92c-5.4-5.8-17.7-4.6-47.4-4.6
	l-18.8,96.6h-36.5L353.1,130.7L353.1,130.7z M575,236.5c-8,41.1-36.7,36.3-70.1,36.3l13.7-70.6C556.8,202.2,582.4,198.1,575,236.5
	L575,236.5z M454.2,344.3H491l8.7-44.8c43.2,0,67.1,2.5,90.2-19.1c26.1-24,32.9-66.7,14.3-88.1c-9.7-11.2-25.3-16.7-46.5-16.7H487
	L454.2,344.3z"/>
</svg>
