<?xml version="1.0" encoding="utf-8"?>
<!-- Generator: Adobe Illustrator 19.0.0, SVG Export Plug-In . SVG Version: 6.00 Build 0)  -->
<svg version="1.1" id="Warstwa_1" xmlns="http://www.w3.org/2000/svg" xmlns:xlink="http://www.w3.org/1999/xlink" x="0px" y="0px"
	 viewBox="6 -6 512 512" style="enable-background:new 6 -6 512 512;" xml:space="preserve">
<style type="text/css">
	.st0{fill:#23C495;}
</style>
<path class="st0" d="M424.2,171.2c-5.4-1.8-10.8-3.5-16.2-5.1c0.9-3.7,1.7-7.4,2.5-11.1c12.3-59.6,4.2-107.5-23.1-123.3
	c-26.3-15.1-69.2,0.6-112.6,38.4c-4.3,3.7-8.5,7.6-12.5,11.5c-2.7-2.6-5.5-5.2-8.3-7.7c-45.5-40.4-91.1-57.4-118.4-41.5
	c-26.2,15.2-34,60.3-23,116.7c1.1,5.6,2.3,11.1,3.7,16.7c-6.4,1.8-12.7,3.8-18.6,5.9C44.3,190.2,6,219.4,6,249.6
	c0,31.2,40.8,62.5,96.3,81.5c4.5,1.5,9,3,13.6,4.3c-1.5,6-2.8,11.9-4,18c-10.5,55.5-2.3,99.5,23.9,114.6
	c27,15.6,72.4-0.4,116.6-39.1c3.5-3.1,7-6.3,10.5-9.7c4.4,4.3,9,8.4,13.6,12.4c42.8,36.8,85.1,51.7,111.2,36.6
	c27-15.6,35.8-62.9,24.4-120.5c-0.9-4.4-1.9-8.9-3-13.5c3.2-0.9,6.3-1.9,9.4-2.9c57.7-19.1,99.5-50,99.5-81.7
	C518,219.3,478.6,189.9,424.2,171.2L424.2,171.2z M288.9,86.3c37.2-32.4,71.9-45.1,87.7-36c16.9,9.7,23.4,48.9,12.8,100.4
	c-0.7,3.4-1.4,6.7-2.3,10c-22.2-5-44.7-8.6-67.3-10.6c-13-18.6-27.2-36.4-42.6-53.1C281.1,93.3,284.9,89.8,288.9,86.3z M173.2,301.5
	c5.1,8.7,10.3,17.4,15.8,25.9c-15.6-1.7-31.1-4.2-46.4-7.5c4.4-14.4,9.9-29.3,16.3-44.5C163.5,284.2,168.2,292.9,173.2,301.5
	L173.2,301.5z M142.9,181.2c14.4-3.2,29.7-5.8,45.6-7.8c-5.3,8.3-10.5,16.8-15.4,25.4c-4.9,8.5-9.7,17.2-14.2,26
	C152.6,209.9,147.3,195.3,142.9,181.2L142.9,181.2z M170.3,250.1c6.6-13.8,13.8-27.3,21.4-40.6s15.8-26.2,24.4-38.9
	c15-1.1,30.3-1.7,45.9-1.7s31,0.6,45.9,1.7c8.5,12.6,16.6,25.5,24.3,38.7s14.9,26.7,21.7,40.4c-6.7,13.8-13.9,27.4-21.6,40.8
	c-7.6,13.3-15.7,26.2-24.2,39c-14.9,1.1-30.4,1.6-46.1,1.6s-30.9-0.5-45.6-1.4c-8.7-12.7-16.9-25.7-24.6-39S177,263.9,170.3,250.1
	L170.3,250.1z M350.9,301.3c5.1-8.8,9.9-17.7,14.6-26.7c6.4,14.5,12,29.2,16.9,44.3c-15.5,3.5-31.2,6.2-47,8
	C340.8,318.5,345.9,309.9,350.9,301.3L350.9,301.3z M365.3,224.8c-4.7-8.8-9.5-17.6-14.5-26.2c-4.9-8.5-10-16.9-15.3-25.2
	c16.1,2,31.5,4.7,45.9,8C376.8,196.2,371.4,210.6,365.3,224.8z M262.2,112.3c10.5,11.4,20.4,23.4,29.6,35.8
	c-19.8-0.9-39.7-0.9-59.5,0C242.1,135.2,252.2,123.2,262.2,112.3z M146.2,51c16.8-9.8,54.1,4.2,93.4,39c2.5,2.2,5,4.6,7.6,7
	c-15.5,16.7-29.8,34.5-42.9,53.1c-22.6,2-45,5.5-67.2,10.4c-1.3-5.1-2.4-10.3-3.5-15.5C124.2,96.6,130.4,60.1,146.2,51L146.2,51z
	 M121.7,314.6c-4.2-1.2-8.3-2.5-12.4-3.9c-21.3-6.7-45.5-17.3-63-31.2c-10.1-7-16.9-17.8-18.8-29.9c0-18.3,31.6-41.7,77.2-57.6
	c5.7-2,11.5-3.8,17.3-5.5c6.8,21.7,15,43,24.5,63.6C136.9,271,128.6,292.6,121.7,314.6z M238.3,412.6
	c-16.5,15.1-35.6,27.1-56.4,35.3c-11.1,5.3-23.9,5.8-35.3,1.3c-15.9-9.2-22.5-44.5-13.5-92c1.1-5.6,2.3-11.2,3.7-16.7
	c22.4,4.8,45,8.1,67.9,9.8c13.2,18.7,27.7,36.6,43.2,53.4C244.7,406.8,241.5,409.8,238.3,412.6L238.3,412.6z M262.8,388.3
	c-10.2-11-20.4-23.2-30.3-36.3c9.6,0.4,19.5,0.6,29.5,0.6c10.3,0,20.4-0.2,30.4-0.7C283.2,364.6,273.3,376.7,262.8,388.3z
	 M393.5,418.3c-0.9,12.2-6.9,23.6-16.5,31.3c-15.9,9.2-49.8-2.8-86.4-34.2c-4.2-3.6-8.4-7.5-12.7-11.5
	c15.3-16.9,29.4-34.8,42.2-53.6c22.9-1.9,45.7-5.4,68.2-10.5c1,4.1,1.9,8.2,2.7,12.2C395.9,373.6,396.7,396.1,393.5,418.3
	L393.5,418.3z M411.7,310.8c-2.8,0.9-5.6,1.8-8.5,2.6c-7-21.8-15.6-43.1-25.5-63.8c9.6-20.4,17.7-41.4,24.5-62.9
	c5.2,1.5,10.2,3.1,15,4.7c46.6,16,79.3,39.8,79.3,58C496.5,269,461.6,294.3,411.7,310.8z M262,295.8c25.3,0,45.8-20.5,45.8-45.8
	s-20.5-45.8-45.8-45.8c-25.3,0-45.8,20.5-45.8,45.8S236.7,295.8,262,295.8L262,295.8z"/>
</svg>
