<?xml version="1.0" encoding="utf-8"?>
<!-- Generator: Adobe Illustrator 19.0.0, SVG Export Plug-In . SVG Version: 6.00 Build 0)  -->
<svg version="1.1" id="Warstwa_1" xmlns="http://www.w3.org/2000/svg" xmlns:xlink="http://www.w3.org/1999/xlink" x="0px" y="0px"
	 viewBox="6 -6 512 512" style="enable-background:new 6 -6 512 512;" xml:space="preserve">
<style type="text/css">
	.st0{fill:#23C495;}
</style>
<path class="st0" d="M280.7,268.7l-37.4-37.4L172,340L280.7,268.7z M262,2C125,2,14,113,14,250s111,248,248,248s248-111,248-248
	S399,2,262,2z M417.9,176.8l14.8-6.1c4.1-1.7,8.8,0.3,10.4,4.3c0,0,0,0,0,0l0,0c1.7,4.1-0.2,8.8-4.3,10.5c0,0,0,0,0,0l-14.8,6.1
	c-4.1,1.7-8.8-0.2-10.5-4.3l0,0C411.9,183.2,413.8,178.5,417.9,176.8z M320.4,88l6.1-14.8c1.7-4.1,6.4-6,10.5-4.3l0,0
	c4.1,1.7,6,6.4,4.3,10.4l-6.1,14.8c-1.7,4.1-6.4,6-10.5,4.3l0,0C320.7,96.8,318.7,92.1,320.4,88C320.4,88,320.4,88,320.4,88z
	 M262,54L262,54c4.4,0,8,3.6,8,8v16c0,4.4-3.6,8-8,8l0,0c-4.4,0-8-3.6-8-8V62C254,57.6,257.6,54,262,54z M187,68.9
	c4.1-1.7,8.8,0.2,10.5,4.3c0,0,0,0,0,0l6.1,14.8c1.8,4-0.1,8.8-4.1,10.5c-4,1.8-8.8-0.1-10.5-4.1c0-0.1-0.1-0.2-0.1-0.3l-6.1-14.8
	C181,75.3,182.9,70.6,187,68.9z M123.4,111.4L123.4,111.4c3.1-3.1,8.2-3.1,11.3,0l11.3,11.3c3.1,3.1,3.1,8.2,0,11.3l0,0
	c-3.1,3.1-8.2,3.1-11.3,0l-11.3-11.3C120.3,119.6,120.3,114.5,123.4,111.4L123.4,111.4z M66,250L66,250c0-4.4,3.6-8,8-8h16
	c4.4,0,8,3.6,8,8l0,0c0,4.4-3.6,8-8,8H74C69.6,258,66,254.4,66,250z M106.2,323.2l-14.8,6.1c-4.1,1.7-8.8-0.3-10.4-4.3c0,0,0,0,0,0
	l0,0c-1.7-4.1,0.2-8.8,4.3-10.5c0,0,0,0,0,0l14.8-6.1c4.1-1.7,8.8,0.2,10.4,4.3l0,0C112.1,316.8,110.2,321.5,106.2,323.2z
	 M110.5,187.2L110.5,187.2c-1.7,4.1-6.3,6.1-10.4,4.4c0,0,0,0,0,0l-14.8-6.1c-4.1-1.7-6-6.4-4.3-10.5l0,0c1.7-4.1,6.4-6,10.4-4.3
	l14.8,6.1C110.2,178.5,112.2,183.2,110.5,187.2L110.5,187.2z M203.6,412l-6.1,14.8c-1.7,4.1-6.4,6-10.5,4.3c-4.1-1.7-6-6.4-4.3-10.5
	l6.1-14.8c1.6-4.1,6.3-6.1,10.4-4.5c4.1,1.6,6.1,6.3,4.5,10.4C203.7,411.8,203.6,411.9,203.6,412z M270,438c0,4.4-3.6,8-8,8l0,0
	c-4.4,0-8-3.6-8-8v-16c0-4.4,3.6-8,8-8l0,0c4.4,0,8,3.6,8,8V438z M337,431.1L337,431.1c-4.1,1.7-8.8-0.2-10.5-4.3c0,0,0,0,0,0
	l-6.1-14.8c-1.7-4.1,0.2-8.8,4.3-10.5l0,0c4.1-1.7,8.8,0.2,10.5,4.3l6.1,14.8C343,424.7,341.1,429.4,337,431.1z M400.6,388.6
	L400.6,388.6c-3.1,3.1-8.2,3.1-11.3,0L378,377.3c-3.1-3.1-3.1-8.2,0-11.3l0,0c3.1-3.1,8.2-3.1,11.3,0l11.3,11.3
	C403.7,380.4,403.7,385.5,400.6,388.6L400.6,388.6z M292.2,280.2L116.3,395.7l115.4-175.9l175.9-115.4L292.2,280.2z M443.1,325
	L443.1,325c-1.7,4.1-6.4,6-10.5,4.3l-14.8-6.1c-4.1-1.7-6-6.4-4.3-10.5l0,0c1.7-4.1,6.4-6,10.5-4.3c0,0,0,0,0,0l14.8,6.1
	C442.8,316.3,444.8,320.9,443.1,325z M450,258h-16c-4.4,0-8-3.6-8-8l0,0c0-4.4,3.6-8,8-8h16c4.4,0,8,3.6,8,8l0,0
	C458,254.4,454.4,258,450,258z"/>
</svg>
