<?xml version="1.0" encoding="utf-8"?>
<!-- Generator: Adobe Illustrator 19.0.0, SVG Export Plug-In . SVG Version: 6.00 Build 0)  -->
<svg version="1.1" id="Warstwa_1" xmlns="http://www.w3.org/2000/svg" xmlns:xlink="http://www.w3.org/1999/xlink" x="0px" y="0px"
	 viewBox="70 -6 640 512" style="enable-background:new 70 -6 640 512;" xml:space="preserve">
<style type="text/css">
	.st0{fill:#23C495;}
</style>
<path class="st0" d="M371.8,372.9C371.5,373.5,371.2,374,371.8,372.9z M621,285.9c-20.1,0-40,4.6-58,13.5c-5.9-11.9-12-22.3-13-30.1
	c-1.2-9.1-2.5-14.5-1.1-25.3c1.4-10.8,7.7-26.1,7.6-27.2s-1.4-6.6-14.3-6.7s-24,2.5-25.3,5.9c-2.3,6.2-4.1,12.6-5.3,19.1
	c-2.3,11.7-25.8,53.5-39.1,75.3c-4.4-8.5-8.1-16-8.9-22c-1.2-9.1-2.5-14.5-1.1-25.3s7.7-26.1,7.6-27.2s-1.4-6.6-14.3-6.7
	s-24,2.5-25.3,5.9s-2.7,11.4-5.3,19.1s-33.9,77.3-42.1,95.4c-4.2,9.2-7.8,16.6-10.4,21.6c-0.4,0.8-0.7,1.3-0.9,1.7
	c0.3-0.5,0.5-1,0.5-0.8c-2.2,4.3-3.5,6.7-3.5,6.7v0.1c-1.7,3.2-3.6,6.1-4.5,6.1c-0.6,0-1.9-8.4,0.3-19.9
	c4.7-24.2,15.8-61.8,15.7-63.1c-0.1-0.7,2.1-7.2-7.3-10.7c-9.1-3.3-12.4,2.2-13.2,2.2s-1.4,2-1.4,2s10.1-42.4-19.4-42.4
	c-18.4,0-44,20.2-56.6,38.5c-7.9,4.3-25,13.6-43,23.5c-6.9,3.8-14,7.7-20.7,11.4c-0.5-0.5-0.9-1-1.4-1.5
	c-35.8-38.2-101.9-65.2-99.1-116.5c1-18.7,7.5-67.8,127.1-127.4c98-48.8,176.4-35.4,189.8-5.6c19.4,42.5-41.9,121.6-143.7,133
	c-38.8,4.3-59.2-10.7-64.3-16.3c-5.3-5.9-6.1-6.2-8.1-5.1c-3.3,1.8-1.2,7,0,10.1c3,7.9,15.5,21.9,36.8,28.9
	c18.7,6.1,64.2,9.5,119.2-11.8c61.8-23.8,109.9-90.1,95.8-145.6C456.5,12.3,363-6.2,274.6,25.2c-52.7,18.7-109.7,48.1-150.7,86.4
	c-48.7,45.6-56.5,85.3-53.3,101.9c11.4,58.9,92.6,97.3,125.1,125.7c-1.6,0.9-3.1,1.7-4.5,2.5c-16.3,8.1-78.2,40.5-93.7,74.7
	c-17.5,38.8,2.9,66.6,16.3,70.4c41.8,11.6,84.6-9.3,107.6-43.6s20.2-79.1,9.6-99.5c-0.1-0.3-0.3-0.5-0.4-0.8c4.2-2.5,8.5-5,12.8-7.5
	c8.3-4.9,16.4-9.4,23.5-13.3c-4,10.8-6.9,23.8-8.4,42.6c-1.8,22,7.3,50.5,19.1,61.7c5.2,4.9,11.5,5,15.4,5c13.8,0,20-11.4,26.9-25
	c8.5-16.6,16-35.9,16-35.9s-9.4,52.2,16.3,52.2c9.4,0,18.8-12.1,23-18.3v0.1c0,0,0.2-0.4,0.7-1.2c1-1.5,1.5-2.4,1.5-2.4v-0.3
	c3.8-6.5,12.1-21.4,24.6-46c16.2-31.8,31.7-71.5,31.7-71.5c1.5,8.7,3.6,17.3,6.2,25.8c2.8,9.5,8.7,19.9,13.4,30
	c-3.8,5.2-6.1,8.2-6.1,8.2c0,0.1,0,0.1,0.1,0.2c-3,4-6.4,8.3-9.9,12.5c-12.8,15.2-28,32.6-30,37.6c-2.4,5.9-1.8,10.3,2.8,13.7
	c3.4,2.6,9.4,3,15.7,2.5c11.5-0.8,19.6-3.6,23.5-5.4c7.2-2.6,14-6.1,20.2-10.6c12.5-9.2,20.1-22.4,19.4-39.8
	c-0.4-9.6-3.5-19.2-7.3-28.2c1.1-1.6,2.3-3.3,3.4-5c19.8-28.9,35.1-60.6,35.1-60.6c1.5,8.7,3.6,17.3,6.2,25.8
	c2.4,8.1,7.1,17,11.4,25.7c-18.6,15.1-30.1,32.6-34.1,44.1c-7.4,21.3-1.6,30.9,9.3,33.1c4.9,1,11.9-1.3,17.1-3.5
	c7.7-2.6,15-6.3,21.6-11.1c12.5-9.2,24.6-22.1,23.8-39.6c-0.3-7.9-2.5-15.8-5.4-23.4c15.7-6.6,36.1-10.2,62.1-7.2
	c55.7,6.5,66.6,41.3,64.5,55.8s-13.8,22.6-17.7,25s-5.1,3.3-4.8,5.1c0.5,2.6,2.3,2.5,5.6,1.9c4.6-0.8,29.2-11.8,30.3-38.7
	C711.5,323,678.8,285.6,621,285.9L621,285.9z M191.8,430.6c-18.4,20.1-44.2,27.7-55.3,21.3c-11.9-6.9-7.2-36.5,15.5-57.9
	c13.8-13,31.6-25,43.4-32.4c2.7-1.6,6.6-4,11.4-6.9c0.8-0.5,1.2-0.7,1.2-0.7c0.9-0.6,1.9-1.1,2.9-1.7
	C219.2,382.7,211.2,409.5,191.8,430.6L191.8,430.6z M326.1,339.2c-6.4,15.7-19.9,55.7-28.1,53.6c-7-1.8-11.3-32.3-1.4-62.3
	c5-15.1,15.6-33.1,21.9-40.1c10.1-11.3,21.2-14.9,23.8-10.4C345.8,285.9,330.1,329.4,326.1,339.2L326.1,339.2z M437.1,392.2
	c-2.7,1.4-5.2,2.3-6.4,1.6c-0.9-0.5,1.1-2.4,1.1-2.4s13.9-14.9,19.4-21.7c3.2-4,6.9-8.7,10.9-13.9c0,0.5,0.1,1,0.1,1.6
	C462.1,375.3,444.9,387.4,437.1,392.2L437.1,392.2z M522.7,372.7c-2-1.4-1.7-6.1,5-20.7c2.6-5.7,8.6-15.3,19-24.5
	c1.2,3.5,1.8,7.1,1.9,10.8C548.5,360.8,532.4,369.2,522.7,372.7L522.7,372.7z"/>
</svg>
