<?xml version="1.0" encoding="utf-8"?>
<!-- Generator: Adobe Illustrator 19.0.0, SVG Export Plug-In . SVG Version: 6.00 Build 0)  -->
<svg version="1.1" id="Warstwa_1" xmlns="http://www.w3.org/2000/svg" xmlns:xlink="http://www.w3.org/1999/xlink" x="0px" y="0px"
	 viewBox="6 -6 512 512" style="enable-background:new 6 -6 512 512;" xml:space="preserve">
<style type="text/css">
	.st0{fill:#23C495;}
</style>
<path class="st0" d="M67.7,163.4l101.5,278C98.2,407,49.3,334.2,49.3,250C49.3,219.1,55.9,189.9,67.7,163.4z M405.6,239.3
	c0-26.3-9.4-44.5-17.5-58.7c-10.8-17.5-20.9-32.4-20.9-49.9c0-19.6,14.8-37.8,35.7-37.8c0.9,0,1.8,0.1,2.8,0.2
	C367.8,58.4,317.4,37.2,262,37.2c-74.3,0-139.7,38.1-177.8,95.9c5,0.2,9.7,0.3,13.7,0.3c22.2,0,56.7-2.7,56.7-2.7
	c11.5-0.7,12.8,16.2,1.4,17.5c0,0-11.5,1.3-24.3,2l77.5,230.4L255.8,241l-33.1-90.8c-11.5-0.7-22.3-2-22.3-2
	c-11.5-0.7-10.1-18.2,1.3-17.5c0,0,35.1,2.7,56,2.7c22.2,0,56.7-2.7,56.7-2.7c11.5-0.7,12.8,16.2,1.4,17.5c0,0-11.5,1.3-24.3,2
	l76.9,228.7l21.2-70.9C398.6,278.6,405.6,257.5,405.6,239.3L405.6,239.3z M265.7,268.6l-63.8,185.5c19.1,5.6,39.2,8.7,60.1,8.7
	c24.8,0,48.5-4.3,70.6-12.1c-0.6-0.9-1.1-1.9-1.5-2.9L265.7,268.6z M448.7,147.9c0.9,6.8,1.4,14,1.4,21.9c0,21.6-4,45.8-16.2,76.2
	l-65,187.9C432.2,397,474.7,328.5,474.7,250C474.7,213,465.3,178.2,448.7,147.9L448.7,147.9z M510,250c0,136.8-111.3,248-248,248
	C125.2,498,14,386.7,14,250C14,113.2,125.2,2,262,2C398.7,2,510,113.2,510,250z M498.6,250c0-130.5-106.2-236.6-236.6-236.6
	C131.5,13.4,25.4,119.5,25.4,250S131.6,486.6,262,486.6C392.5,486.6,498.6,380.5,498.6,250z"/>
</svg>
