<?xml version="1.0" encoding="utf-8"?>
<!-- Generator: Adobe Illustrator 19.0.0, SVG Export Plug-In . SVG Version: 6.00 Build 0)  -->
<svg version="1.1" id="Warstwa_1" xmlns="http://www.w3.org/2000/svg" xmlns:xlink="http://www.w3.org/1999/xlink" x="0px" y="0px"
	 viewBox="0 0 210.1 120.1" style="enable-background:new 0 0 210.1 120.1;" xml:space="preserve">
<style type="text/css">
	.st0{fill:#FEFEFE;}
	.st1{fill:#A0A0A0;}
	.st2{fill:#A1A1A1;}
	.st3{fill:#9F9F9F;}
	.st4{fill:#A2A2A2;}
	.st5{fill:#FDFDFD;}
	.st6{fill:#F5F5F5;}
	.st7{fill:#F9F9F9;}
	.st8{fill:#BDBDBD;}
	.st9{fill:#B0B0B0;}
	.st10{fill:#AFAFAF;}
	.st11{fill:#CBCBCB;}
	.st12{fill:#AEAEAE;}
	.st13{fill:#A7A7A7;}
	.st14{fill:#E3E3E3;}
	.st15{fill:#C0C0C0;}
	.st16{fill:#B6B6B6;}
	.st17{fill:#E7E7E7;}
	.st18{fill:#D2D2D2;}
	.st19{fill:#B5B5B5;}
	.st20{fill:#A3A3A3;}
	.st21{fill:#9D9D9D;}
	.st22{fill:#C1C1C1;}
	.st23{fill:#A6A6A6;}
	.st24{fill:#C2C2C2;}
	.st25{fill:#ACACAC;}
	.st26{fill:#A9A9A9;}
	.st27{fill:#D1D1D1;}
	.st28{fill:#CCCCCC;}
	.st29{fill:#AAAAAA;}
	.st30{fill:#D5D5D5;}
	.st31{fill:#ABABAB;}
	.st32{fill:#A5A5A5;}
	.st33{fill:#9E9E9E;}
	.st34{fill:#E4E4E4;}
	.st35{fill:#BEBEBE;}
	.st36{fill:#A4A4A4;}
	.st37{fill:#C7C7C7;}
	.st38{fill:#B8B8B8;}
	.st39{fill:#B4B4B4;}
	.st40{fill:#E9E9E9;}
	.st41{fill:#EDEDED;}
	.st42{fill:#F6F6F6;}
	.st43{fill:#CDCDCD;}
	.st44{fill:#F2F2F2;}
	.st45{fill:#C9C9C9;}
	.st46{fill:#B9B9B9;}
	.st47{fill:#C3C3C3;}
</style>
<g>
	<path class="st0" d="M-0.9,118.6c0-40,0-80,0-120c70.3,0,140.7,0,211,0c0,40,0,80,0,120C139.8,118.6,69.4,118.6-0.9,118.6z
		 M167.1,69.6c0.3-0.1,0.6-0.2,0.8-0.3c-0.3-0.2-0.6-0.4-0.8-0.7c-0.3,0-0.7,0-1,0c-0.7,0.3-1.3,0.7-2,1c-0.5-1.9-2-0.6-3-1
		c-0.1-0.6-0.2-1.3-0.3-1.9c-0.2,0-0.4,0-0.7,0.1c0,0.6,0,1.2,0,1.8c0,0.3,0,0.7,0,1c0.4,1-0.9,2.5,1,3c0.7,0,1.3,0,2,0
		c0.3-0.3,0.7-0.7,1-1c0.7,0.3,1.3,0.7,2,1C168,72.1,166.7,70.6,167.1,69.6z M117.1,68.6c-0.3,0-0.7,0-1,0c0.3-0.3,0.7-0.7,1-1
		c1.4-0.3,1.2-1.1,0.6-1.9c-0.9,0.2-2.3-0.9-2.6,0.9c-0.3,0.3-0.7,0.7-1,1c-1.5,0.1-0.8,1.2-1,2c-0.3,0.3-0.7,0.7-1,1
		c-0.7,0.5-1.3,1-2.1,1.5c1.1,0.7,1.9,0.9,2.1-0.5c1,0.3,2,0.7,3,1c1-0.1,1.9-0.2,2.9-0.3c0-0.2,0-0.5-0.1-0.7c-0.6,0-1.2,0-1.8,0
		c0-0.7,0-1.3,0-2c0.3,0,0.7,0,1,0c0.3-0.1,0.6-0.2,0.8-0.3C117.7,69,117.4,68.8,117.1,68.6z M148.1,71.6c-0.3-0.3-0.7-0.7-1-1
		c0-0.3,0-0.7,0-1c-0.3-0.3-0.7-0.7-1-1c-0.2-0.8,0.5-1.9-1-2c-0.3,0.3-0.7,0.7-1,1c0,0.7,0,1.3,0,2c-0.3,0.4-0.7,0.7-1,1.2
		c-0.3,0.5-0.6,1.1-0.9,1.6c0.2,0.1,0.3,0.3,0.5,0.4c0.5-0.4,0.9-0.8,1.4-1.2c0.7,0,1.3,0,2,0c0.3,0,0.7,0,1,0
		c0.1,0.3,0.2,0.6,0.3,0.8C147.7,72.1,147.9,71.9,148.1,71.6z M108.1,72.6c0.3-0.1,0.6-0.2,0.8-0.3c-0.3-0.2-0.6-0.4-0.8-0.7
		c-0.3-0.3-0.7-0.7-1-1c0-0.3,0-0.7,0-1c1.4-1,1.4-2,0-3c-1-1.4-2-1.4-3,0c0,1.3,0,2.7,0,4c0.1,0.6,0.2,1.3,0.3,1.9
		c0.2,0,0.4,0,0.7-0.1c0-0.6,0-1.2,0-1.8c0.3,0,0.7,0,1,0c0.3,0.3,0.7,0.7,1,1S107.8,72.2,108.1,72.6z M122.1,71.6
		c-0.3,0.1-0.6,0.2-0.8,0.3c0.3,0.2,0.6,0.4,0.8,0.7c0.7,0,1.3,0,2,0c1.5-0.1,0.8-1.2,1-2c-0.3-0.3-0.7-0.7-1-1
		c-0.3-0.3-0.7-0.7-1-1c-0.3-0.3-0.7-0.7-1-1c1-0.1,2-0.2,3.2-0.3c-0.2-0.8-0.3-1.2-0.5-1.6c-1,0.2-2.4-0.9-2.7,0.9
		c-1.4,1-1.4,2,0,3c0.3,0.3,0.7,0.7,1,1c0.3,0,0.7,0,1,0c0,0.3,0,0.7,0,1C123.4,71.6,122.8,71.6,122.1,71.6z M171.1,68.6
		c-0.8,0.2-1.9-0.5-2,1c0,0.3,0,0.7,0,1c-0.3,0.3-0.7,0.5-1,0.8c0.3,0.4,0.7,0.8,1,1.2c0.3,0,0.7,0,1,0s0.7,0,1,0c0.6,0,1.2,0,1.8,0
		c0-1.3,1-2.6-0.8-3C171.8,69.2,171.4,68.9,171.1,68.6z M134.1,72.6c0.3,0,0.7,0,1,0c1.4-1.9,1.4-4.1,0-6c-0.4-0.2-0.8-0.4-1.1-0.6
		c-0.9-0.6-1.6-0.7-1.9,0.6c-1.4,1.9-1.4,4.1,0,6C132.8,72.6,133.4,72.6,134.1,72.6z M175.1,68.6c-0.3,0.3-0.7,0.7-1,1
		c0.1,1,0.2,1.9,0.3,2.9c0.2,0,0.5,0,0.7-0.1c0-0.9,0-1.9,0-2.8c0.7,0,1.3,0,2,0c0,0.3,0,0.7,0,1c0.1,0.6,0.2,1.3,0.3,1.9
		c0.2,0,0.4,0,0.7-0.1c0-0.6,0-1.2,0-1.8c-0.2-0.8,0.5-1.9-1-2C176.4,68.6,175.8,68.6,175.1,68.6z M182.1,67.6c-0.3,0.3-0.7,0.7-1,1
		c-0.3,0-0.7,0-1,0c-1.8,1.1-0.9,2.6-0.8,4c1.1,0,2,0,2.8,0c0.3-0.3,0.7-0.7,1-1c0-0.7,0-1.3,0-2c0-0.3,0-0.7,0-1
		c-0.1-0.6-0.2-1.3-0.4-2.4C182.3,67,182.2,67.3,182.1,67.6z M152.1,72.6c0.7,0,1.3,0,2,0c0.3-0.4,0.9-0.7,1-1.2
		c0.1-0.9,0-1.9,0-2.8c0-0.3,0-0.7,0-1c-0.5-1.6-2.2-1.3-3.3-2c0,0-0.5,0.6-0.7,1c-1.4,1.9-1.4,4.1,0,6
		C151.4,72.6,151.8,72.6,152.1,72.6z M92.1,71.6c-0.4-1,0.9-2.5-1-3c-0.3,0-0.7,0-1,0c-0.3,0.3-0.7,0.7-1,1c0,0.3,0,0.7,0,1
		c-0.3,0.3-0.7,0.5-1,0.8c0.3,0.4,0.7,0.8,1,1.2c0.7,0,1.3,0,2,0C91.4,72.2,91.8,71.9,92.1,71.6z M99.1,66.6c-0.3-0.3-0.5-0.7-0.8-1
		c-0.4,0.3-0.8,0.7-1.2,1c0,1.3,0,2.7,0,4c0.1,0.6,0.2,1.3,0.3,1.9c0.2,0,0.4,0,0.7-0.1c0-0.6,0-1.2,0-1.8c0.3,0,0.7,0,1,0
		c2.6-1.9,2.6-2.2,1-4C99.8,66.6,99.4,66.6,99.1,66.6z M169.1,57.6c2.3,1.1,0.7,2.4,0.1,3.7c0.6,0.4,1.3,0.8,1.9,1.3
		c4,0,7.9,0,11.9,0c0-1.5,0-2.6,0-4.1c-2.7,0-5.3,0-7.8,0c0-1.5,0-2.6,0-4.1c2.7,0,5.3,0,8.4,0c-0.6-1.6-1.1-2.8-1.6-3.9
		c-2.5,0-4.6,0-7,0c0.1-1.1,0.1-2,0.1-3.1c2.8,0,5.2,0,7.9,0c-0.1-1.1-0.2-2-0.2-2.9c-4.2,0-8,0-11.8,0c-0.3,0.4-0.8,0.8-1,1.3
		c-0.2,0.7,0.3,1.7-1,1.7c-2.7-3-2.8-3-9.9-3c-4.3,1.4-5.5,4.3-5.1,8c-0.3,0.3-0.7,0.5-1,0.8c0.3,0.4,0.7,0.8,1,1.2
		c-0.2,2.4,0.8,4.2,2.4,5.9c2.3,2.4,5.2,2.1,8,2C166.3,61,169.3,60.8,169.1,57.6z M137.1,44.6c-4.3,0-8.6,0-13,0
		c0,6.2,0,12.1,0.1,18c4.3,0,8.1,0,12,0c0.7,0,1.3,0,2,0c0.8,0,1.7,0,2.5,0c0.4-0.5,0.9-0.9,1.7-1.8c0-2.5,0-5.3,0-8.5
		c2.2,3.7,4.1,7.1,5.9,10.1c1.6,0,2.7,0,3.7,0c0-6,0-11.7,0-17.5c0-0.1-0.2-0.2-0.1-0.1c-1.3,0-2.4,0-3.5,0c-0.5,3,0.3,6-0.5,9.3
		c-2.2-3.5-4.1-6.5-5.9-9.5c-1.4,0-2.6,0-3.8,0C137.8,44.6,137.4,44.6,137.1,44.6z M38.1,49.6c0-0.3,0-0.7,0-1c0-0.8,0-1.7,0-2.5
		c-0.5-0.5-0.9-0.9-1.4-1.4c-1.5,0-2.9,0-3.3,0c-1.7,1.1-2.6,1.8-3.2,2.1c0,5.5,0,10.5,0,15.6c4.2,0,8.3,0,12.5,0
		c0.4-0.4,0.9-0.9,1.2-1.2c0-5.6,0-11,0-16.7c-1.7,0.1-3.3,0.1-5,0.2C40.4,47.6,40.4,47.6,38.1,49.6z M74.2,54.6
		c2.4,0,4.4-0.1,6.4,0c1.6,0.1,1.6-0.7,1.5-1.8c0-0.6,0-1.3,0-2.3c-2.8,0-5.3,0-7.9,0c0-1.1,0-1.9,0-2.7c4,0,7.9,0,12,0
		c0,4.7,0,9.1,0,13.4c2.6,1.7,2.6,1.7,5.1-0.4c0-4.3,0-8.7,0-13.3c1.6,0,3.1,0,4.6,0c0-1.1,0-2,0-2.8c-8.6,0-17.1,0-25.6,0
		c0,5.5,0,11,0,16.5c0.4,0.4,0.8,0.8,1.2,1.2c3.9,0,7.7,0,11.4,0c0-1.4,0-2.6,0-4c-3,0-5.8,0-8.7,0C74.2,57.1,74.2,56,74.2,54.6z
		 M66,44.8c-3.9,0-7.3,0-10.8,0c0,6,0,11.7,0,17.7c3.2,0,6.3,0,9.6,0c1.3-1,2.9-2.1,4.2-3.1c0-1.7,0.2-3.1-0.1-4.3
		c-0.3-1.1-1.1-2.1-1.6-2.9c0.6-1.1,1.1-2.1,1.7-3.2C68,47.5,66.9,46,66,44.8z M109.1,62.5c-0.1-3.3-4.6-17.2-5.3-17.7
		c-1.8,0-3.2,0-4.5,0c-1.1,3.1-2.5,5.9-3.1,8.9c-0.6,2.9-3,5.6-1.8,8.7c3.6,1.3,3.3-2.5,5.2-3.7c1.3,0,2.7,0,4.6,0
		c0.4,1.1,0.9,2.4,1.4,3.8C106.6,62.5,107.7,62.5,109.1,62.5z M110.3,44.7c0,5.9,0,11.3,0,16.6c2.4,1.6,2.4,1.6,4.7-0.1
		c0.1-1.8,0.2-3.8,0.3-5.8c2.1,0,3.9,0,6.1,0c0.3-1.2,0.6-2.3,1-3.9c-2.7,0-5,0-7.1,0c0-1.5,0-2.6,0-4c2.7,0,5.3,0,7.7,0
		c0-1.1,0-1.9,0-2.8C118.7,44.7,114.5,44.7,110.3,44.7z M25.3,44.7c0,6.2,0,12,0,17.8c0.9,0,1.7,0,2.8,0c0.3-6-0.7-11.9,1.2-17.8
		C27.6,44.7,26.5,44.7,25.3,44.7z M127.2,72.7c0.9-0.2,1.3-0.3,1.7-0.3c0-2.1,0-4,0-5.9c-0.7,0.1-1.2,0.2-1.7,0.3
		C127.2,68.7,127.2,70.5,127.2,72.7z M139.9,72.5c0-2,0-3.9,0-5.8c-0.6,0-1.1,0-1.7,0c0,2,0,3.9,0,5.8
		C138.9,72.5,139.3,72.5,139.9,72.5z"/>
	<path class="st1" d="M74.2,54.6c0,1.5,0,2.6,0,3.9c2.9,0,5.6,0,8.7,0c0,1.4,0,2.6,0,4c-3.7,0-7.5,0-11.4,0
		c-0.4-0.4-0.8-0.8-1.2-1.2c0-5.5,0-11,0-16.5c8.6,0,17,0,25.6,0c0,0.9,0,1.7,0,2.8c-1.5,0-3,0-4.6,0c0,4.6,0,9,0,13.3
		c-2.5,2.1-2.5,2.1-5.1,0.4c0-4.3,0-8.8,0-13.4c-4.1,0-7.9,0-12,0c0,0.8,0,1.6,0,2.7c2.5,0,5.1,0,7.9,0c0,1,0,1.6,0,2.3
		c0.1,1.1,0,1.9-1.5,1.8C78.6,54.5,76.6,54.6,74.2,54.6z"/>
	<path class="st2" d="M38.1,49.6c2.3-2,2.3-2,0.9-4.8c1.7-0.1,3.2-0.1,5-0.2c0,5.6,0,11.1,0,16.7c-0.3,0.3-0.8,0.8-1.2,1.2
		c-4.2,0-8.3,0-12.5,0c0-5.1,0-10.1,0-15.6c0.6-0.4,1.5-1,3.2-2.1c0.4,0,1.9,0,3.3,0c0.4,0.4,0.9,0.9,1.4,1.4c0,0.8,0,1.7,0,2.5
		c-1.4,1.3-3.3,0.9-5,1.1c0.1,0.7,0.1,1.2,0.2,2c1.6,0,3.2,0,4.4,0c0.6,1.1,0.9,1.8,1.3,2.6c-0.7,0.7-1.5,1.4-2.4,2.2
		c-1.1,0.1-2.3,0.3-3.5,0.4c0.1,0.7,0.1,1,0.2,1.5c2.7,0.7,4.9-0.3,6.7-2.2c0-1.5,0-2.9,0-3.9C39.2,51.1,38.6,50.4,38.1,49.6z"/>
	<path class="st3" d="M66,44.8c0.9,1.2,2,2.8,3,4.2c-0.6,1.1-1.1,2-1.7,3.2c0.5,0.9,1.4,1.8,1.6,2.9c0.3,1.2,0.1,2.6,0.1,4.3
		c-1.3,1-2.8,2.1-4.2,3.1c-3.3,0-6.4,0-9.6,0c0-5.9,0-11.7,0-17.7C58.7,44.8,62.1,44.8,66,44.8z M63.7,54.6c-1.1,0-2.1-0.1-3.1,0
		c-0.5,0.1-1.4,0.4-1.4,0.7c-0.1,1.1,0,2.2,0.1,3.1c1.8,0,3.2,0,4.6,0c0.5-0.7,1-1.3,1.5-2C64.8,55.8,64.3,55.3,63.7,54.6z
		 M63.7,47.6c-4.8,0-4.8,0-4.1,4.4c1.9-0.6,3.7-1.2,6-1.9C64.9,49,64.4,48.4,63.7,47.6z"/>
	<path class="st4" d="M138.1,44.6c1.2,0,2.3,0,3.8,0c1.8,2.9,3.7,6,5.9,9.5c0.8-3.3,0-6.3,0.5-9.3c1.1,0,2.2,0,3.5,0
		c-0.1-0.1,0.1,0,0.1,0.1c0,5.8,0,11.5,0,17.5c-1,0-2.1,0-3.7,0c-1.8-3-3.7-6.3-5.9-10.1c0,3.1,0,6,0,8.5c-0.8,0.8-1.3,1.3-1.7,1.8
		c-0.9,0-1.7,0-2.5,0C138.1,56.6,138.1,50.6,138.1,44.6z"/>
	<path class="st1" d="M136.1,62.6c-3.8,0-7.7,0-12,0c-0.1-5.9,0-11.8-0.1-18c4.4,0,8.7,0,13,0c0,1,0,1.9,0,2.8
		c-3.2,0.6-6.2-0.2-8.8,0.4c0,1.1,0,1.9,0,2.9c2.3,0,4.4,0,6.6,0c0,1.4,0,2.7,0,4.1c-2.4,0-4.5,0-6.8,0c0.1,1.4,0.2,2.6,0.2,3.9
		c2.7,0,5,0,7.3,0c-0.1,0.2-0.3,0.3-0.4,0.5c0.8,0.4,1.5,0.7,2.2,1C136.8,61.2,136.5,61.9,136.1,62.6z"/>
	<path class="st4" d="M171.1,44.6c3.8,0,7.7,0,11.8,0c0.1,0.9,0.1,1.8,0.2,2.9c-2.7,0-5.1,0-7.9,0c0,1.1-0.1,2-0.1,3.1
		c2.4,0,4.5,0,7,0c0.5,1.2,0.9,2.3,1.6,3.9c-3.1,0-5.7,0-8.4,0c0,1.5,0,2.6,0,4.1c2.5,0,5.1,0,7.8,0c0,1.5,0,2.6,0,4.1
		c-4,0-7.9,0-11.9,0C171.1,56.6,171.1,50.6,171.1,44.6z"/>
	<path class="st1" d="M154.1,52.6c-0.3-3.7,0.8-6.5,5.1-8c7.1-0.1,7.2,0,9.9,3c0.1,0.6,0.2,1.2,0.4,1.8c0.1,0.3,0.3,0.6,0.6,1
		c-1.8,0-3.3,0-4.7,0c-0.8-2.1-2.4-2.7-3.9-2.9c-1.1,1.1-2.1,2.1-3.4,3.4c0,1.1,0,3.1,0,5.1c0.8,0.8,1.7,1.6,2.3,2.3
		c1.3,0,2.4,0,3.5,0c1-1.4,1.8-2.7,2.7-3.9c1,0.4,2.3-0.6,2.5,1.1c0,0.3,0,0.7,0,1s0,0.7,0,1c0.2,3.2-2.8,3.5-4.6,5
		c-2.8,0-5.7,0.4-8-2c-1.6-1.7-2.7-3.5-2.4-5.9C154.1,53.9,154.1,53.2,154.1,52.6z"/>
	<path class="st1" d="M109.1,62.5c-1.4,0-2.6,0-3.6,0c-0.5-1.4-1-2.7-1.4-3.8c-1.9,0-3.3,0-4.6,0c-1.9,1.2-1.6,4.9-5.2,3.7
		c-1.2-3.1,1.2-5.8,1.8-8.7c0.6-3,2-5.8,3.1-8.9c1.3,0,2.7,0,4.5,0C104.5,45.3,109,59.2,109.1,62.5z M103,55.4
		c-0.5-2.1-0.9-4-1.3-5.9c0.2,2.1-2.6,3.7-1.3,5.9C101.4,55.4,102.2,55.4,103,55.4z"/>
	<path class="st4" d="M110.3,44.7c4.3,0,8.4,0,12.7,0c0,0.9,0,1.6,0,2.8c-2.4,0-5,0-7.7,0c0,1.5,0,2.6,0,4c2.1,0,4.4,0,7.1,0
		c-0.4,1.6-0.7,2.7-1,3.9c-2.2,0-4,0-6.1,0c-0.1,2.1-0.2,4-0.3,5.8c-2.3,1.7-2.3,1.7-4.7,0.1C110.3,56,110.3,50.5,110.3,44.7z"/>
	<path class="st5" d="M169.1,55.6c-0.2-1.7-1.5-0.7-2.5-1.1c-0.8,1.2-1.7,2.5-2.7,3.9c-1.1,0-2.2,0-3.5,0c-0.7-0.7-1.5-1.5-2.3-2.3
		c0-2,0-4,0-5.1c1.4-1.4,2.3-2.3,3.4-3.4c1.5,0.1,3.1,0.8,3.9,2.9c1.4,0,2.8,0,4.7,0c-0.2-0.4-0.5-0.7-0.6-1
		c-0.2-0.6-0.2-1.2-0.4-1.8c1.3,0,0.8-1.1,1-1.7c0.2-0.5,0.6-0.8,1-1.3c0,6,0,12,0,18c-0.6-0.4-1.3-0.8-1.9-1.3
		c0.6-1.3,2.2-2.6-0.1-3.7c0-0.3,0-0.7,0-1c0.3-0.1,0.6-0.2,0.8-0.3C169.7,56,169.4,55.8,169.1,55.6z"/>
	<path class="st6" d="M136.1,62.6c0.4-0.7,0.7-1.4,1.3-2.5c-0.7-0.3-1.4-0.7-2.2-1c0.1-0.2,0.3-0.3,0.4-0.5c-2.3,0-4.7,0-7.3,0
		c-0.1-1.2-0.1-2.4-0.2-3.9c2.3,0,4.4,0,6.8,0c0-1.4,0-2.6,0-4.1c-2.1,0-4.2,0-6.6,0c0-1,0-1.7,0-2.9c2.6-0.7,5.6,0.2,8.8-0.4
		c0-0.9,0-1.8,0-2.8c0.3,0,0.7,0,1,0c0,6,0,12,0,18C137.4,62.6,136.8,62.6,136.1,62.6z"/>
	<path class="st3" d="M25.3,44.7c1.3,0,2.4,0,4,0c-1.8,5.9-0.9,11.9-1.2,17.8c-1.1,0-1.9,0-2.8,0C25.3,56.6,25.3,50.9,25.3,44.7z"/>
	<path class="st7" d="M38.1,49.6c0.5,0.8,1.1,1.6,1.9,2.7c0,1,0,2.5,0,3.9c-1.9,1.9-4,2.9-6.7,2.2c-0.1-0.5-0.1-0.8-0.2-1.5
		c1.2-0.1,2.4-0.3,3.5-0.4c0.9-0.8,1.7-1.6,2.4-2.2c-0.4-0.8-0.7-1.5-1.3-2.6c-1.2,0-2.8,0-4.4,0c-0.1-0.8-0.1-1.2-0.2-2
		c1.7-0.2,3.6,0.2,5-1.1C38.1,48.9,38.1,49.2,38.1,49.6z"/>
	<path class="st8" d="M127.2,72.7c0-2.3,0-4,0-5.9c0.5-0.1,1-0.2,1.7-0.3c0,2,0,3.9,0,5.9C128.5,72.5,128.1,72.6,127.2,72.7z"/>
	<path class="st9" d="M139.9,72.5c-0.6,0-1,0-1.7,0c0-1.9,0-3.8,0-5.8c0.6,0,1,0,1.7,0C139.9,68.6,139.9,70.5,139.9,72.5z"/>
	<path class="st10" d="M132.1,72.6c-1.4-1.9-1.4-4.1,0-6c0.3,0.3,0.7,0.7,1,1c0,1.3,0,2.7,0,4C132.8,71.9,132.4,72.2,132.1,72.6z"/>
	<path class="st10" d="M151.1,72.6c-1.4-1.9-1.4-4.1,0-6c0.3,0.3,0.7,0.7,1,1c0,1.3,0,2.7,0,4C151.8,71.9,151.4,72.2,151.1,72.6z"/>
	<path class="st11" d="M166.1,72.6c-0.7-0.3-1.3-0.7-2-1c-0.3,0-0.7,0-1,0c0-0.7,0-1.3,0-2c0.3,0,0.7,0,1,0c0.7-0.3,1.3-0.7,2-1
		c0,0.3,0,0.7,0,1C166.1,70.6,166.1,71.6,166.1,72.6z"/>
	<path class="st12" d="M145.1,66.6c1.5,0.1,0.8,1.2,1,2c-0.3,0.3-0.7,0.7-1,1c0.3,0.3,0.7,0.7,1,1c0,0.3,0,0.7,0,1c-0.7,0-1.3,0-2,0
		c0-0.7,0-1.3,0-2s0-1.3,0-2C144.4,67.2,144.8,66.9,145.1,66.6z"/>
	<path class="st13" d="M135.1,66.6c1.4,1.9,1.4,4.1,0,6c0-0.3,0-0.7,0-1c0-1.3,0-2.7,0-4C135.1,67.2,135.1,66.9,135.1,66.6z"/>
	<path class="st14" d="M90.1,68.6c0.3,0,0.7,0,1,0c0,0.7,0,1.3,0,2c-0.3,0.1-0.6,0.2-0.8,0.3c0.3,0.2,0.6,0.4,0.8,0.7
		c0,0.3,0,0.7,0,1c-0.7,0-1.3,0-2,0c0-0.7,0-1.3,0-2c0-0.3,0-0.7,0-1C89.4,69.2,89.8,68.9,90.1,68.6z"/>
	<path class="st15" d="M122.1,66.6c0.3-1.9,1.7-0.8,2.7-0.9c0.1,0.4,0.2,0.8,0.5,1.6c-1.2,0.1-2.2,0.2-3.2,0.3
		C122.1,67.2,122.1,66.9,122.1,66.6z"/>
	<path class="st16" d="M182.1,72.6c-0.8,0-1.6,0-2.8,0c-0.1-1.4-1-2.9,0.8-4c0,0.3,0,0.7,0,1c0,0.6,0,1.2,0,2c0.8,0,1.4,0,2,0
		C182.1,71.9,182.1,72.2,182.1,72.6z"/>
	<path class="st17" d="M182.1,71.6c-0.6,0-1.2,0-2,0c0-0.8,0-1.4,0-2c0.7,0,1.3,0,2,0c0.3,0,0.7,0,1,0c0,0.7,0,1.3,0,2
		C182.8,71.6,182.4,71.6,182.1,71.6z"/>
	<path class="st18" d="M163.1,69.6c0,0.7,0,1.3,0,2c0,0.3,0,0.7,0,1c-0.7,0-1.3,0-2,0c0-1,0-2,0-3C161.8,69.6,162.4,69.6,163.1,69.6
		z"/>
	<path class="st19" d="M172.1,69.6c1.9,0.4,0.8,1.7,0.8,3c-0.6,0-1.2,0-1.8,0c0.3-0.5,0.5-1,0.9-1.6c-0.2-0.1-0.5-0.2-0.9-0.4
		c0-0.3,0-0.7,0-1C171.4,69.6,171.8,69.6,172.1,69.6z"/>
	<path class="st3" d="M106.1,70.6c-0.3,0-0.7,0-1,0s-0.7,0-1,0c0-1.3,0-2.7,0-4c0.3,0.3,0.7,0.7,1,1c0.2,0.8-0.5,1.9,1,2
		C106.1,69.9,106.1,70.2,106.1,70.6z"/>
	<path class="st12" d="M100.1,66.6c1.6,1.8,1.6,2.1-1,4c0-0.3,0-0.7,0-1c0.3-0.7,0.7-1.3,1-2C100.1,67.2,100.1,66.9,100.1,66.6z"/>
	<path class="st20" d="M151.1,66.6c0.2-0.3,0.7-1,0.7-1c1.1,0.7,2.7,0.4,3.3,2c-0.3,0-0.7,0-1,0c-0.7,0-1.3,0-2,0
		C151.8,67.2,151.4,66.9,151.1,66.6z"/>
	<path class="st21" d="M99.1,69.6c0,0.3,0,0.7,0,1c-0.3,0-0.7,0-1,0s-0.7,0-1,0c0-1.3,0-2.7,0-4c0.3,0.3,0.7,0.7,1,1
		C98.3,68.3,97.6,69.5,99.1,69.6z"/>
	<path class="st2" d="M144.1,69.6c0,0.7,0,1.3,0,2c-0.5,0.4-0.9,0.8-1.4,1.2c-0.2-0.1-0.3-0.3-0.5-0.4c0.3-0.5,0.6-1.1,0.9-1.6
		C143.4,70.3,143.8,70,144.1,69.6z"/>
	<path class="st16" d="M105.1,67.6c-0.3-0.3-0.7-0.7-1-1c1-1.4,2-1.4,3,0c-0.3,0.3-0.7,0.7-1,1C105.8,67.6,105.4,67.6,105.1,67.6z"
		/>
	<path class="st22" d="M115.1,66.6c0.3-1.8,1.7-0.7,2.6-0.9c0.6,0.9,0.9,1.7-0.6,1.9C117,66.1,115.9,66.7,115.1,66.6z"/>
	<path class="st2" d="M115.1,72.6c-1-0.3-2-0.7-3-1c0-0.3,0-0.7,0-1c0.3,0,0.7,0,1,0s0.7,0,1,0s0.7,0,1,0c0,0.3,0,0.7,0,1
		S115.1,72.2,115.1,72.6z"/>
	<path class="st20" d="M135.1,66.6c0,0.3,0,0.7,0,1c-0.7,0-1.3,0-2,0c-0.3-0.3-0.7-0.7-1-1c0.2-1.4,1-1.2,1.9-0.6
		C134.3,66.2,134.7,66.4,135.1,66.6z"/>
	<path class="st23" d="M155.1,68.6c0,0.9,0.1,1.9,0,2.8c-0.1,0.4-0.6,0.8-1,1.2c0-0.3,0-0.7,0-1c0-1,0-2,0-3
		C154.4,68.6,154.8,68.6,155.1,68.6z"/>
	<path class="st1" d="M122.1,66.6c0,0.3,0,0.7,0,1c0.3,0.3,0.7,0.7,1,1c0,0.3,0,0.7,0,1c-0.3,0-0.7,0-1,0
		C120.7,68.6,120.7,67.6,122.1,66.6z"/>
	<path class="st2" d="M115.1,66.6c0.8,0.2,1.9-0.5,2,1c-0.3,0.3-0.7,0.7-1,1c-0.3,0-0.7,0-1,0c-0.3-0.3-0.7-0.7-1-1
		C114.4,67.2,114.8,66.9,115.1,66.6z"/>
	<path class="st24" d="M166.1,72.6c0-1,0-2,0-3c0.3,0,0.7,0,1,0C166.7,70.6,168,72.1,166.1,72.6z"/>
	<path class="st2" d="M161.1,69.6c0,1,0,2,0,3c-1.9-0.5-0.6-2-1-3C160.4,69.6,160.8,69.6,161.1,69.6z"/>
	<path class="st10" d="M175.1,69.6c0,0.9,0,1.9,0,2.8c-0.2,0-0.5,0-0.7,0.1c-0.1-1-0.2-1.9-0.3-2.9
		C174.4,69.6,174.8,69.6,175.1,69.6z"/>
	<path class="st9" d="M98.1,67.6c-0.3-0.3-0.7-0.7-1-1c0.4-0.3,0.8-0.7,1.2-1c0.3,0.3,0.5,0.7,0.8,1c0,0.3,0,0.7,0,1
		C98.8,67.6,98.4,67.6,98.1,67.6z"/>
	<path class="st25" d="M112.1,70.6c0,0.3,0,0.7,0,1c-0.2,1.4-1,1.2-2.1,0.5C110.8,71.5,111.4,71.1,112.1,70.6z"/>
	<path class="st12" d="M107.1,66.6c1.4,1,1.4,2,0,3c0-0.7,0-1.3,0-2C107.1,67.2,107.1,66.9,107.1,66.6z"/>
	<path class="st26" d="M163.1,69.6c-0.7,0-1.3,0-2,0c0-0.3,0-0.7,0-1c1,0.4,2.5-0.9,3,1C163.8,69.6,163.4,69.6,163.1,69.6z"/>
	<path class="st12" d="M169.1,72.6c-0.3-0.4-0.7-0.8-1-1.2c0.3-0.3,0.7-0.5,1-0.8c0.3,0,0.7,0,1,0c0,0.3,0,0.7,0,1
		C169.8,71.9,169.4,72.2,169.1,72.6z"/>
	<path class="st27" d="M170.1,71.6c0-0.3,0-0.7,0-1c0.3,0,0.7,0,1,0c0.3,0.1,0.7,0.3,0.9,0.4c-0.3,0.6-0.6,1.1-0.9,1.6
		c-0.3,0-0.7,0-1,0C170.1,72.2,170.1,71.9,170.1,71.6z"/>
	<path class="st1" d="M115.1,72.6c0-0.3,0-0.7,0-1c0.3,0,0.7,0,1,0c0.6,0,1.2,0,1.8,0c0,0.2,0,0.5,0.1,0.7
		C117,72.4,116.1,72.5,115.1,72.6z"/>
	<path class="st28" d="M91.1,70.6c0-0.7,0-1.3,0-2c1.9,0.5,0.6,2,1,3c-0.3,0-0.7,0-1,0C91.1,71.2,91.1,70.9,91.1,70.6z"/>
	<path class="st29" d="M177.1,68.6c1.5,0.1,0.8,1.2,1,2c-0.3,0-0.7,0-1,0c0-0.3,0-0.7,0-1S177.1,68.9,177.1,68.6z"/>
	<path class="st4" d="M154.1,71.6c0,0.3,0,0.7,0,1c-0.7,0-1.3,0-2,0c0-0.3,0-0.7,0-1C152.8,71.6,153.4,71.6,154.1,71.6z"/>
	<path class="st23" d="M182.1,69.6c-0.7,0-1.3,0-2,0c0-0.3,0-0.7,0-1c0.3,0,0.7,0,1,0s0.7,0,1,0C182.1,68.9,182.1,69.2,182.1,69.6z"
		/>
	<path class="st20" d="M104.1,70.6c0.3,0,0.7,0,1,0c0,0.6,0,1.2,0,1.8c-0.2,0-0.4,0-0.7,0.1C104.3,71.8,104.2,71.2,104.1,70.6z"/>
	<path class="st4" d="M97.1,70.6c0.3,0,0.7,0,1,0c0,0.6,0,1.2,0,1.8c-0.2,0-0.4,0-0.7,0.1C97.3,71.8,97.2,71.2,97.1,70.6z"/>
	<path class="st30" d="M89.1,70.6c0,0.7,0,1.3,0,2c-0.3-0.4-0.7-0.8-1-1.2C88.4,71.1,88.8,70.8,89.1,70.6z"/>
	<path class="st31" d="M160.1,68.6c0-0.6,0-1.2,0-1.8c0.2,0,0.4,0,0.7-0.1c0.1,0.6,0.2,1.3,0.3,1.9
		C160.8,68.6,160.4,68.6,160.1,68.6z"/>
	<path class="st26" d="M116.1,71.6c-0.3,0-0.7,0-1,0c0-0.3,0-0.7,0-1s0-0.7,0-1c0.3,0,0.7,0,1,0C116.1,70.2,116.1,70.9,116.1,71.6z"
		/>
	<path class="st32" d="M124.1,69.6c0.3,0.3,0.7,0.7,1,1c-0.3,0-0.7,0-1,0s-0.7,0-1,0c0-0.3,0-0.7,0-1
		C123.4,69.6,123.8,69.6,124.1,69.6z"/>
	<path class="st2" d="M113.1,69.6c0.2-0.8-0.5-1.9,1-2c0,0.3,0,0.7,0,1s0,0.7,0,1C113.8,69.6,113.4,69.6,113.1,69.6z"/>
	<path class="st33" d="M146.1,71.6c0-0.3,0-0.7,0-1s0-0.7,0-1c0.3,0,0.7,0,1,0c0,0.3,0,0.7,0,1s0,0.7,0,1
		C146.8,71.6,146.4,71.6,146.1,71.6z"/>
	<path class="st27" d="M182.1,67.6c0.1-0.3,0.2-0.6,0.6-1.4c0.2,1.2,0.3,1.8,0.4,2.4c-0.3,0-0.7,0-1,0
		C182.1,68.2,182.1,67.9,182.1,67.6z"/>
	<path class="st15" d="M171.1,70.6c-0.3,0-0.7,0-1,0s-0.7,0-1,0c0-0.3,0-0.7,0-1c0.7,0,1.3,0,2,0C171.1,69.9,171.1,70.2,171.1,70.6z
		"/>
	<path class="st4" d="M154.1,52.6c0,0.7,0,1.3,0,2c-0.3-0.4-0.7-0.8-1-1.2C153.4,53.1,153.8,52.8,154.1,52.6z"/>
	<path class="st26" d="M177.1,68.6c0,0.3,0,0.7,0,1c-0.7,0-1.3,0-2,0c0-0.3,0-0.7,0-1C175.8,68.6,176.4,68.6,177.1,68.6z"/>
	<path class="st26" d="M107.1,70.6c0.3,0.3,0.7,0.7,1,1c-0.3,0-0.7,0-1,0c-0.3-0.3-0.7-0.7-1-1C106.4,70.6,106.8,70.6,107.1,70.6z"
		/>
	<path class="st2" d="M132.1,72.6c0.3-0.3,0.7-0.7,1-1c0.3,0,0.7,0,1,0c0,0.3,0,0.7,0,1C133.4,72.6,132.8,72.6,132.1,72.6z"/>
	<path class="st23" d="M171.1,69.6c-0.7,0-1.3,0-2,0c0.1-1.5,1.2-0.8,2-1C171.1,68.9,171.1,69.2,171.1,69.6z"/>
	<path class="st31" d="M124.1,72.6c-0.7,0-1.3,0-2,0c0-0.3,0-0.7,0-1c0.7,0,1.3,0,2,0C124.1,71.9,124.1,72.2,124.1,72.6z"/>
	<path class="st4" d="M124.1,72.6c0-0.3,0-0.7,0-1s0-0.7,0-1c0.3,0,0.7,0,1,0C125,71.3,125.6,72.5,124.1,72.6z"/>
	<path class="st10" d="M177.1,70.6c0.3,0,0.7,0,1,0c0,0.6,0,1.2,0,1.8c-0.2,0-0.4,0-0.7,0.1C177.3,71.8,177.2,71.2,177.1,70.6z"/>
	<path class="st34" d="M108.1,71.6c0.3,0.2,0.6,0.4,0.8,0.7c-0.3,0.1-0.6,0.2-0.8,0.3C108.1,72.2,108.1,71.9,108.1,71.6z"/>
	<path class="st4" d="M108.1,71.6c0,0.3,0,0.7,0,1c-0.3-0.3-0.7-0.7-1-1C107.4,71.6,107.8,71.6,108.1,71.6z"/>
	<path class="st35" d="M91.1,71.6c0.3,0,0.7,0,1,0c-0.3,0.3-0.7,0.7-1,1C91.1,72.2,91.1,71.9,91.1,71.6z"/>
	<path class="st36" d="M182.1,71.6c0.3,0,0.7,0,1,0c-0.3,0.3-0.7,0.7-1,1C182.1,72.2,182.1,71.9,182.1,71.6z"/>
	<path class="st4" d="M148.1,71.6c-0.2,0.3-0.4,0.6-0.7,0.8c-0.1-0.3-0.2-0.6-0.3-0.8C147.4,71.6,147.8,71.6,148.1,71.6z"/>
	<path class="st2" d="M152.1,71.6c0,0.3,0,0.7,0,1c-0.3,0-0.7,0-1,0C151.4,72.2,151.8,71.9,152.1,71.6z"/>
	<path class="st2" d="M134.1,72.6c0-0.3,0-0.7,0-1c0.3,0,0.7,0,1,0c0,0.3,0,0.7,0,1C134.8,72.6,134.4,72.6,134.1,72.6z"/>
	<path class="st12" d="M148.1,71.6c-0.3,0-0.7,0-1,0c0-0.3,0-0.7,0-1C147.4,70.9,147.8,71.2,148.1,71.6z"/>
	<path class="st29" d="M170.1,71.6c0,0.3,0,0.7,0,1c-0.3,0-0.7,0-1,0C169.4,72.2,169.8,71.9,170.1,71.6z"/>
	<path class="st23" d="M122.1,71.6c0,0.3,0,0.7,0,1c-0.3-0.2-0.6-0.4-0.8-0.7C121.5,71.8,121.8,71.7,122.1,71.6z"/>
	<path class="st32" d="M163.1,72.6c0-0.3,0-0.7,0-1c0.3,0,0.7,0,1,0C163.8,71.9,163.4,72.2,163.1,72.6z"/>
	<path class="st20" d="M99.1,67.6c0-0.3,0-0.7,0-1c0.3,0,0.7,0,1,0c0,0.3,0,0.7,0,1C99.8,67.6,99.4,67.6,99.1,67.6z"/>
	<path class="st10" d="M145.1,66.6c-0.3,0.3-0.7,0.7-1,1C144.4,67.2,144.8,66.9,145.1,66.6z"/>
	<path class="st3" d="M155.1,68.6c-0.3,0-0.7,0-1,0c0-0.3,0-0.7,0-1c0.3,0,0.7,0,1,0C155.1,67.9,155.1,68.2,155.1,68.6z"/>
	<path class="st17" d="M182.1,67.6c0,0.3,0,0.7,0,1c-0.3,0-0.7,0-1,0C181.4,68.2,181.8,67.9,182.1,67.6z"/>
	<path class="st37" d="M90.1,68.6c-0.3,0.3-0.7,0.7-1,1C89.4,69.2,89.8,68.9,90.1,68.6z"/>
	<path class="st23" d="M117.1,69.6c-0.3,0-0.7,0-1,0c0-0.3,0-0.7,0-1c0.3,0,0.7,0,1,0C117.1,68.9,117.1,69.2,117.1,69.6z"/>
	<path class="st38" d="M117.1,69.6c0-0.3,0-0.7,0-1c0.3,0.2,0.6,0.4,0.8,0.7C117.7,69.4,117.4,69.5,117.1,69.6z"/>
	<path class="st39" d="M124.1,69.6c-0.3,0-0.7,0-1,0c0-0.3,0-0.7,0-1C123.4,68.9,123.8,69.2,124.1,69.6z"/>
	<path class="st26" d="M147.1,69.6c-0.3,0-0.7,0-1,0c0-0.3,0-0.7,0-1C146.4,68.9,146.8,69.2,147.1,69.6z"/>
	<path class="st1" d="M160.1,68.6c0.3,0,0.7,0,1,0c0,0.3,0,0.7,0,1c-0.3,0-0.7,0-1,0C160.1,69.2,160.1,68.9,160.1,68.6z"/>
	<path class="st20" d="M167.1,69.6c-0.3,0-0.7,0-1,0c0-0.3,0-0.7,0-1c0.3,0,0.7,0,1,0C167.1,68.9,167.1,69.2,167.1,69.6z"/>
	<path class="st9" d="M167.1,69.6c0-0.3,0-0.7,0-1c0.3,0.2,0.6,0.4,0.8,0.7C167.7,69.4,167.4,69.5,167.1,69.6z"/>
	<path class="st36" d="M171.1,69.6c0-0.3,0-0.7,0-1c0.3,0.3,0.7,0.7,1,1C171.8,69.6,171.4,69.6,171.1,69.6z"/>
	<path class="st1" d="M175.1,68.6c0,0.3,0,0.7,0,1c-0.3,0-0.7,0-1,0C174.4,69.2,174.8,68.9,175.1,68.6z"/>
	<path class="st20" d="M182.1,68.6c0.3,0,0.7,0,1,0c0,0.3,0,0.7,0,1c-0.3,0-0.7,0-1,0C182.1,69.2,182.1,68.9,182.1,68.6z"/>
	<path class="st33" d="M107.1,70.6c-0.3,0-0.7,0-1,0c0-0.3,0-0.7,0-1c0.3,0,0.7,0,1,0C107.1,69.9,107.1,70.2,107.1,70.6z"/>
	<path class="st1" d="M113.1,70.6c-0.3,0-0.7,0-1,0c0.3-0.3,0.7-0.7,1-1C113.1,69.9,113.1,70.2,113.1,70.6z"/>
	<path class="st39" d="M123.1,69.6c0,0.3,0,0.7,0,1c-0.3-0.3-0.7-0.7-1-1C122.4,69.6,122.8,69.6,123.1,69.6z"/>
	<path class="st0" d="M63.7,54.6c0.7,0.7,1.1,1.2,1.7,1.9c-0.5,0.6-1,1.3-1.5,2c-1.4,0-2.8,0-4.6,0c0-0.9-0.2-2-0.1-3.1
		c0-0.3,0.9-0.7,1.4-0.7C61.6,54.5,62.5,54.6,63.7,54.6z"/>
	<path class="st40" d="M63.7,47.6c0.7,0.9,1.1,1.5,1.9,2.5c-2.3,0.7-4.1,1.3-6,1.9C59,47.6,59,47.6,63.7,47.6z"/>
	<path class="st4" d="M169.1,55.6c0.3,0.2,0.6,0.4,0.8,0.7c-0.3,0.1-0.6,0.2-0.8,0.3C169.1,56.2,169.1,55.9,169.1,55.6z"/>
	<path class="st41" d="M103,55.4c-0.9,0-1.6,0-2.6,0c-1.3-2.1,1.5-3.7,1.3-5.9C102.1,51.5,102.6,53.3,103,55.4z"/>
	<path class="st42" d="M135.1,71.6c-0.3,0-0.7,0-1,0s-0.7,0-1,0c0-1.3,0-2.7,0-4c0.7,0,1.3,0,2,0C135.1,68.9,135.1,70.2,135.1,71.6z
		"/>
	<path class="st2" d="M132.1,66.6c0.3,0.3,0.7,0.7,1,1C132.8,67.2,132.4,66.9,132.1,66.6z"/>
	<path class="st42" d="M154.1,67.6c0,0.3,0,0.7,0,1c0,1,0,2,0,3c-0.7,0-1.3,0-2,0c0-1.3,0-2.7,0-4C152.8,67.6,153.4,67.6,154.1,67.6
		z"/>
	<path class="st4" d="M151.1,66.6c0.3,0.3,0.7,0.7,1,1C151.8,67.2,151.4,66.9,151.1,66.6z"/>
	<path class="st43" d="M146.1,68.6c0,0.3,0,0.7,0,1c-0.3,0-0.7,0-1,0C145.4,69.2,145.8,68.9,146.1,68.6z"/>
	<path class="st27" d="M145.1,69.6c0.3,0,0.7,0,1,0c0,0.3,0,0.7,0,1C145.8,70.2,145.4,69.9,145.1,69.6z"/>
	<path class="st44" d="M91.1,70.6c0,0.3,0,0.7,0,1c-0.3-0.2-0.6-0.4-0.8-0.7C90.5,70.8,90.8,70.7,91.1,70.6z"/>
	<path class="st34" d="M107.1,69.6c-0.3,0-0.7,0-1,0c-1.5-0.1-0.8-1.2-1-2c0.3,0,0.7,0,1,0s0.7,0,1,0
		C107.1,68.2,107.1,68.9,107.1,69.6z"/>
	<path class="st0" d="M99.1,67.6c0.3,0,0.7,0,1,0c-0.3,0.7-0.7,1.3-1,2c-1.5-0.1-0.8-1.2-1-2C98.4,67.6,98.8,67.6,99.1,67.6z"/>
	<path class="st36" d="M107.1,67.6c-0.3,0-0.7,0-1,0c0.3-0.3,0.7-0.7,1-1C107.1,66.9,107.1,67.2,107.1,67.6z"/>
	<path class="st45" d="M113.1,70.6c0-0.3,0-0.7,0-1c0.3,0,0.7,0,1,0c0,0.3,0,0.7,0,1C113.8,70.6,113.4,70.6,113.1,70.6z"/>
	<path class="st46" d="M114.1,70.6c0-0.3,0-0.7,0-1c0.3,0,0.7,0,1,0c0,0.3,0,0.7,0,1C114.8,70.6,114.4,70.6,114.1,70.6z"/>
	<path class="st1" d="M114.1,68.6c0-0.3,0-0.7,0-1c0.3,0.3,0.7,0.7,1,1C114.8,68.6,114.4,68.6,114.1,68.6z"/>
	<path class="st1" d="M116.1,68.6c0,0.3,0,0.7,0,1c-0.3,0-0.7,0-1,0c0-0.3,0-0.7,0-1C115.4,68.6,115.8,68.6,116.1,68.6z"/>
	<path class="st47" d="M115.1,68.6c0,0.3,0,0.7,0,1c-0.3,0-0.7,0-1,0c0-0.3,0-0.7,0-1C114.4,68.6,114.8,68.6,115.1,68.6z"/>
</g>
</svg>
