<?xml version="1.0" encoding="utf-8"?>
<!-- Generator: Adobe Illustrator 25.1.0, SVG Export Plug-In . SVG Version: 6.00 Build 0)  -->
<svg version="1.1" id="Warstwa_1" xmlns="http://www.w3.org/2000/svg" xmlns:xlink="http://www.w3.org/1999/xlink" x="0px" y="0px"
	 viewBox="0 0 210 120" style="enable-background:new 0 0 210 120;" xml:space="preserve">
<style type="text/css">
	.st0{fill:#9F9F9F;}
</style>
<g>
	<g>
		<g>
			<g>
				<g>
					<path class="st0" d="M60.02,52.97h3.96c1.33,0,2.38-0.55,2.38-1.9c0-1.4-0.94-1.83-2.47-1.83h-3.87V52.97L60.02,52.97z
						 M60.02,60.41h4.14c1.64,0,2.59-0.76,2.59-2.5c0-1.5-1.21-2.07-2.43-2.07h-4.3V60.41L60.02,60.41z M56.78,46.29h7.85
						c3.96,0,4.97,2.61,4.97,4.37c0,2.45-1.3,3.14-1.98,3.49c1.98,0.78,2.5,2.45,2.5,4.14c0,1.35-0.54,2.64-1.39,3.52
						c-0.92,0.95-1.8,1.54-5.11,1.54h-6.84V46.29"/>
					<polyline class="st0" points="136.88,49.31 127.96,49.31 127.96,52.9 135.83,52.9 135.83,55.92 127.96,55.92 127.96,60.34 
						136.88,60.34 136.88,63.36 124.66,63.36 124.66,46.29 136.88,46.29 136.88,49.31 					"/>
					<polyline class="st0" points="183.42,49.31 174.5,49.31 174.5,52.9 182.37,52.9 182.37,55.92 174.5,55.92 174.5,60.34 
						183.42,60.34 183.42,63.36 171.2,63.36 171.2,46.29 183.42,46.29 183.42,49.31 					"/>
					<path class="st0" d="M100.36,56.89h4.12l-2-6.75h-0.05L100.36,56.89L100.36,56.89z M98.33,63.36h-3.55l5.76-17.06h3.89
						l5.69,17.06h-3.66l-1.03-3.52h-5.96L98.33,63.36"/>
					<polyline class="st0" points="71.95,46.29 71.95,63.36 84.18,63.36 84.18,60.34 75.26,60.34 75.26,55.92 83.13,55.92 
						83.13,52.9 75.26,52.9 75.26,49.31 87.89,49.31 87.89,63.35 91.55,63.35 91.55,49.31 96.53,49.31 96.53,46.29 71.95,46.29 
											"/>
					<polyline class="st0" points="111.51,46.29 123.2,46.29 123.2,49.31 115.17,49.31 115.17,53.38 122.13,53.38 122.13,56.3 
						115.17,56.3 115.17,63.35 111.51,63.35 111.51,46.29 					"/>
					<polyline class="st0" points="138.52,46.29 142.15,46.29 149.1,57.73 149.14,57.73 149.14,46.29 152.57,46.29 152.57,63.35 
						148.91,63.35 141.99,51.93 141.94,51.93 141.94,63.35 138.52,63.35 138.52,46.29 					"/>
					<path class="st0" d="M166.05,52.02c-0.23-1.7-1.82-2.99-3.64-2.99c-3.29,0-4.52,2.87-4.52,5.85c0,2.84,1.24,5.71,4.52,5.71
						c2.24,0,3.5-1.58,3.78-3.82h3.54c-0.37,4.25-3.24,6.98-7.32,6.98c-5.15,0-8.18-3.94-8.18-8.86c0-5.06,3.03-9.01,8.18-9.01
						c3.66,0,6.73,2.2,7.18,6.14H166.05"/>
					<path class="st0" d="M41.16,46.31c0.43,0.65,0.69,1.46,0.69,2.46c0,1.02-0.49,2.36-1.82,3.07c1.57,0.57,2.41,1.87,2.41,3.79
						c0,2.91-2.17,4.39-6.46,4.39h-1.43v-2.18h1.67c3.33,0,3.79-1.2,3.79-2.51c0-0.95-0.39-2.22-3.75-2.22h-1.71v-2.18h1.45
						c2.84,0,3.42-0.87,3.42-2.17c0-2.01-1.77-2.43-3.25-2.43c-2.63,0-3.86,1.06-3.86,3.33l-0.01,13.7h12.58V46.31H41.16
						L41.16,46.31z M26.57,63.36h3.28c0.01-5.51,0.02-13.71,0.02-13.71c0.03-1.34,0.41-2.46,1.08-3.34h-4.39V63.36"/>
				</g>
				<g>
					<path class="st0" d="M60.02,52.97h3.96c1.33,0,2.38-0.55,2.38-1.9c0-1.4-0.94-1.83-2.47-1.83h-3.87V52.97L60.02,52.97z
						 M60.02,60.41h4.14c1.64,0,2.59-0.76,2.59-2.5c0-1.5-1.21-2.07-2.43-2.07h-4.3V60.41L60.02,60.41z M56.78,46.29h7.85
						c3.96,0,4.97,2.61,4.97,4.37c0,2.45-1.3,3.14-1.98,3.49c1.98,0.78,2.5,2.45,2.5,4.14c0,1.35-0.54,2.64-1.39,3.52
						c-0.92,0.95-1.8,1.54-5.11,1.54h-6.84V46.29"/>
					<polyline class="st0" points="136.88,49.31 127.96,49.31 127.96,52.9 135.83,52.9 135.83,55.92 127.96,55.92 127.96,60.34 
						136.88,60.34 136.88,63.36 124.66,63.36 124.66,46.29 136.88,46.29 136.88,49.31 					"/>
					<polyline class="st0" points="183.42,49.31 174.5,49.31 174.5,52.9 182.37,52.9 182.37,55.92 174.5,55.92 174.5,60.34 
						183.42,60.34 183.42,63.36 171.2,63.36 171.2,46.29 183.42,46.29 183.42,49.31 					"/>
					<path class="st0" d="M100.36,56.89h4.12l-2-6.75h-0.05L100.36,56.89L100.36,56.89z M98.33,63.36h-3.55l5.76-17.06h3.89
						l5.69,17.06h-3.66l-1.03-3.52h-5.96L98.33,63.36"/>
					<polyline class="st0" points="71.95,46.29 71.95,63.36 84.18,63.36 84.18,60.34 75.26,60.34 75.26,55.92 83.13,55.92 
						83.13,52.9 75.26,52.9 75.26,49.31 87.89,49.31 87.89,63.35 91.55,63.35 91.55,49.31 96.53,49.31 96.53,46.29 71.95,46.29 
											"/>
					<polyline class="st0" points="111.51,46.29 123.2,46.29 123.2,49.31 115.17,49.31 115.17,53.38 122.13,53.38 122.13,56.3 
						115.17,56.3 115.17,63.35 111.51,63.35 111.51,46.29 					"/>
					<polyline class="st0" points="138.52,46.29 142.15,46.29 149.1,57.73 149.14,57.73 149.14,46.29 152.57,46.29 152.57,63.35 
						148.91,63.35 141.99,51.93 141.94,51.93 141.94,63.35 138.52,63.35 138.52,46.29 					"/>
					<path class="st0" d="M166.05,52.02c-0.23-1.7-1.82-2.99-3.64-2.99c-3.29,0-4.52,2.87-4.52,5.85c0,2.84,1.24,5.71,4.52,5.71
						c2.24,0,3.5-1.58,3.78-3.82h3.54c-0.37,4.25-3.24,6.98-7.32,6.98c-5.15,0-8.18-3.94-8.18-8.86c0-5.06,3.03-9.01,8.18-9.01
						c3.66,0,6.73,2.2,7.18,6.14H166.05"/>
					<path class="st0" d="M41.16,46.31c0.43,0.65,0.69,1.46,0.69,2.46c0,1.02-0.49,2.36-1.82,3.07c1.57,0.57,2.41,1.87,2.41,3.79
						c0,2.91-2.17,4.39-6.46,4.39h-1.43v-2.18h1.67c3.33,0,3.79-1.2,3.79-2.51c0-0.95-0.39-2.22-3.75-2.22h-1.71v-2.18h1.45
						c2.84,0,3.42-0.87,3.42-2.17c0-2.01-1.77-2.43-3.25-2.43c-2.63,0-3.86,1.06-3.86,3.33l-0.01,13.7h12.58V46.31H41.16
						L41.16,46.31z M26.57,63.36h3.28c0.01-5.51,0.02-13.71,0.02-13.71c0.03-1.34,0.41-2.46,1.08-3.34h-4.39V63.36"/>
				</g>
				<g>
					<path class="st0" d="M60.02,52.97h3.96c1.33,0,2.38-0.55,2.38-1.9c0-1.4-0.94-1.83-2.47-1.83h-3.87V52.97L60.02,52.97z
						 M60.02,60.41h4.14c1.64,0,2.59-0.76,2.59-2.5c0-1.5-1.21-2.07-2.43-2.07h-4.3V60.41L60.02,60.41z M56.78,46.29h7.85
						c3.96,0,4.97,2.61,4.97,4.37c0,2.45-1.3,3.14-1.98,3.49c1.98,0.78,2.5,2.45,2.5,4.14c0,1.35-0.54,2.64-1.39,3.52
						c-0.92,0.95-1.8,1.54-5.11,1.54h-6.84V46.29"/>
					<polyline class="st0" points="136.88,49.31 127.96,49.31 127.96,52.9 135.83,52.9 135.83,55.92 127.96,55.92 127.96,60.34 
						136.88,60.34 136.88,63.36 124.66,63.36 124.66,46.29 136.88,46.29 136.88,49.31 					"/>
					<polyline class="st0" points="183.42,49.31 174.5,49.31 174.5,52.9 182.37,52.9 182.37,55.92 174.5,55.92 174.5,60.34 
						183.42,60.34 183.42,63.36 171.2,63.36 171.2,46.29 183.42,46.29 183.42,49.31 					"/>
					<path class="st0" d="M100.36,56.89h4.12l-2-6.75h-0.05L100.36,56.89L100.36,56.89z M98.33,63.36h-3.55l5.76-17.06h3.89
						l5.69,17.06h-3.66l-1.03-3.52h-5.96L98.33,63.36"/>
					<polyline class="st0" points="71.95,46.29 71.95,63.36 84.18,63.36 84.18,60.34 75.26,60.34 75.26,55.92 83.13,55.92 
						83.13,52.9 75.26,52.9 75.26,49.31 87.89,49.31 87.89,63.35 91.55,63.35 91.55,49.31 96.53,49.31 96.53,46.29 71.95,46.29 
											"/>
					<polyline class="st0" points="111.51,46.29 123.2,46.29 123.2,49.31 115.17,49.31 115.17,53.38 122.13,53.38 122.13,56.3 
						115.17,56.3 115.17,63.35 111.51,63.35 111.51,46.29 					"/>
					<polyline class="st0" points="138.52,46.29 142.15,46.29 149.1,57.73 149.14,57.73 149.14,46.29 152.57,46.29 152.57,63.35 
						148.91,63.35 141.99,51.93 141.94,51.93 141.94,63.35 138.52,63.35 138.52,46.29 					"/>
					<path class="st0" d="M166.05,52.02c-0.23-1.7-1.82-2.99-3.64-2.99c-3.29,0-4.52,2.87-4.52,5.85c0,2.84,1.24,5.71,4.52,5.71
						c2.24,0,3.5-1.58,3.78-3.82h3.54c-0.37,4.25-3.24,6.98-7.32,6.98c-5.15,0-8.18-3.94-8.18-8.86c0-5.06,3.03-9.01,8.18-9.01
						c3.66,0,6.73,2.2,7.18,6.14H166.05"/>
					<path class="st0" d="M41.16,46.31c0.43,0.65,0.69,1.46,0.69,2.46c0,1.02-0.49,2.36-1.82,3.07c1.57,0.57,2.41,1.87,2.41,3.79
						c0,2.91-2.17,4.39-6.46,4.39h-1.43v-2.18h1.67c3.33,0,3.79-1.2,3.79-2.51c0-0.95-0.39-2.22-3.75-2.22h-1.71v-2.18h1.45
						c2.84,0,3.42-0.87,3.42-2.17c0-2.01-1.77-2.43-3.25-2.43c-2.63,0-3.86,1.06-3.86,3.33l-0.01,13.7h12.58V46.31H41.16
						L41.16,46.31z M26.57,63.36h3.28c0.01-5.51,0.02-13.71,0.02-13.71c0.03-1.34,0.41-2.46,1.08-3.34h-4.39V63.36"/>
				</g>
			</g>
		</g>
	</g>
	<g>
		<g>
			<g>
				<g>
					<path class="st0" d="M164.65,71.9c0,1.18-0.94,2.12-2.11,2.12c-0.64,0-1.17-0.24-1.56-0.65v0.55h-0.42v-6.25h0.42v2.76
						c0.39-0.4,0.91-0.64,1.56-0.64C163.71,69.79,164.65,70.72,164.65,71.9z M164.21,71.9c0-0.95-0.75-1.72-1.72-1.72
						c-0.62,0-1.15,0.26-1.51,0.79v1.85c0.36,0.53,0.9,0.8,1.51,0.8C163.47,73.63,164.21,72.85,164.21,71.9z"/>
					<path class="st0" d="M168.21,69.78v0.4c-0.69,0.01-1.28,0.4-1.63,1.06v2.67h-0.42V69.9h0.42v0.78
						C166.95,70.13,167.54,69.78,168.21,69.78z"/>
					<path class="st0" d="M172.65,71.3v2.62h-0.43v-0.48c-0.44,0.34-0.99,0.59-1.63,0.59c-0.98,0-1.62-0.48-1.62-1.25
						c0-0.65,0.51-1.18,1.45-1.18h1.79v-0.3c0-0.69-0.48-1.13-1.28-1.13c-0.67,0-1.25,0.29-1.35,0.97h-0.45
						c0.11-0.94,0.91-1.35,1.79-1.35C171.97,69.79,172.65,70.34,172.65,71.3z M172.22,73.02v-1.08h-1.79
						c-0.71,0-1.03,0.42-1.03,0.84c0,0.53,0.48,0.87,1.25,0.87C171.22,73.65,171.75,73.44,172.22,73.02z"/>
					<path class="st0" d="M177.95,71.55v2.37h-0.42v-2.35c0-0.9-0.55-1.38-1.33-1.38c-0.59,0-1.17,0.28-1.53,0.79v2.94h-0.42V69.9
						h0.42v0.55c0.38-0.42,0.95-0.65,1.59-0.65C177.26,69.79,177.95,70.44,177.95,71.55z"/>
					<path class="st0" d="M183.43,67.67v6.25H183v-0.55c-0.39,0.41-0.91,0.65-1.56,0.65c-1.17,0-2.11-0.94-2.11-2.12
						s0.94-2.11,2.11-2.11c0.64,0,1.17,0.24,1.56,0.64v-2.76H183.43z M183,72.83v-1.85c-0.36-0.53-0.9-0.79-1.51-0.79
						c-0.97,0-1.72,0.77-1.72,1.72c0,0.95,0.75,1.72,1.72,1.72C182.11,73.63,182.64,73.35,183,72.83z"/>
				</g>
				<g>
					<path class="st0" d="M164.65,71.9c0,1.18-0.94,2.12-2.11,2.12c-0.64,0-1.17-0.24-1.56-0.65v0.55h-0.42v-6.25h0.42v2.76
						c0.39-0.4,0.91-0.64,1.56-0.64C163.71,69.79,164.65,70.72,164.65,71.9z M164.21,71.9c0-0.95-0.75-1.72-1.72-1.72
						c-0.62,0-1.15,0.26-1.51,0.79v1.85c0.36,0.53,0.9,0.8,1.51,0.8C163.47,73.63,164.21,72.85,164.21,71.9z"/>
					<path class="st0" d="M168.21,69.78v0.4c-0.69,0.01-1.28,0.4-1.63,1.06v2.67h-0.42V69.9h0.42v0.78
						C166.95,70.13,167.54,69.78,168.21,69.78z"/>
					<path class="st0" d="M172.65,71.3v2.62h-0.43v-0.48c-0.44,0.34-0.99,0.59-1.63,0.59c-0.98,0-1.62-0.48-1.62-1.25
						c0-0.65,0.51-1.18,1.45-1.18h1.79v-0.3c0-0.69-0.48-1.13-1.28-1.13c-0.67,0-1.25,0.29-1.35,0.97h-0.45
						c0.11-0.94,0.91-1.35,1.79-1.35C171.97,69.79,172.65,70.34,172.65,71.3z M172.22,73.02v-1.08h-1.79
						c-0.71,0-1.03,0.42-1.03,0.84c0,0.53,0.48,0.87,1.25,0.87C171.22,73.65,171.75,73.44,172.22,73.02z"/>
					<path class="st0" d="M177.95,71.55v2.37h-0.42v-2.35c0-0.9-0.55-1.38-1.33-1.38c-0.59,0-1.17,0.28-1.53,0.79v2.94h-0.42V69.9
						h0.42v0.55c0.38-0.42,0.95-0.65,1.59-0.65C177.26,69.79,177.95,70.44,177.95,71.55z"/>
					<path class="st0" d="M183.43,67.67v6.25H183v-0.55c-0.39,0.41-0.91,0.65-1.56,0.65c-1.17,0-2.11-0.94-2.11-2.12
						s0.94-2.11,2.11-2.11c0.64,0,1.17,0.24,1.56,0.64v-2.76H183.43z M183,72.83v-1.85c-0.36-0.53-0.9-0.79-1.51-0.79
						c-0.97,0-1.72,0.77-1.72,1.72c0,0.95,0.75,1.72,1.72,1.72C182.11,73.63,182.64,73.35,183,72.83z"/>
				</g>
				<g>
					<path class="st0" d="M164.65,71.9c0,1.18-0.94,2.12-2.11,2.12c-0.64,0-1.17-0.24-1.56-0.65v0.55h-0.42v-6.25h0.42v2.76
						c0.39-0.4,0.91-0.64,1.56-0.64C163.71,69.79,164.65,70.72,164.65,71.9z M164.21,71.9c0-0.95-0.75-1.72-1.72-1.72
						c-0.62,0-1.15,0.26-1.51,0.79v1.85c0.36,0.53,0.9,0.8,1.51,0.8C163.47,73.63,164.21,72.85,164.21,71.9z"/>
					<path class="st0" d="M168.21,69.78v0.4c-0.69,0.01-1.28,0.4-1.63,1.06v2.67h-0.42V69.9h0.42v0.78
						C166.95,70.13,167.54,69.78,168.21,69.78z"/>
					<path class="st0" d="M172.65,71.3v2.62h-0.43v-0.48c-0.44,0.34-0.99,0.59-1.63,0.59c-0.98,0-1.62-0.48-1.62-1.25
						c0-0.65,0.51-1.18,1.45-1.18h1.79v-0.3c0-0.69-0.48-1.13-1.28-1.13c-0.67,0-1.25,0.29-1.35,0.97h-0.45
						c0.11-0.94,0.91-1.35,1.79-1.35C171.97,69.79,172.65,70.34,172.65,71.3z M172.22,73.02v-1.08h-1.79
						c-0.71,0-1.03,0.42-1.03,0.84c0,0.53,0.48,0.87,1.25,0.87C171.22,73.65,171.75,73.44,172.22,73.02z"/>
					<path class="st0" d="M177.95,71.55v2.37h-0.42v-2.35c0-0.9-0.55-1.38-1.33-1.38c-0.59,0-1.17,0.28-1.53,0.79v2.94h-0.42V69.9
						h0.42v0.55c0.38-0.42,0.95-0.65,1.59-0.65C177.26,69.79,177.95,70.44,177.95,71.55z"/>
					<path class="st0" d="M183.43,67.67v6.25H183v-0.55c-0.39,0.41-0.91,0.65-1.56,0.65c-1.17,0-2.11-0.94-2.11-2.12
						s0.94-2.11,2.11-2.11c0.64,0,1.17,0.24,1.56,0.64v-2.76H183.43z M183,72.83v-1.85c-0.36-0.53-0.9-0.79-1.51-0.79
						c-0.97,0-1.72,0.77-1.72,1.72c0,0.95,0.75,1.72,1.72,1.72C182.11,73.63,182.64,73.35,183,72.83z"/>
				</g>
			</g>
			<g>
				<g>
					<path class="st0" d="M101.34,68.23c-0.32-0.34-0.78-0.55-1.32-0.55h0h-1.76v6.26h0.59v-2.48h1.17h0c0.52,0,0.98-0.2,1.31-0.54
						c0.32-0.34,0.52-0.81,0.52-1.35C101.85,69.04,101.66,68.57,101.34,68.23L101.34,68.23L101.34,68.23L101.34,68.23z
						 M100.92,70.47L100.92,70.47c-0.21,0.24-0.52,0.39-0.92,0.39h-1.15v-2.6h1.15c0.39,0,0.7,0.15,0.91,0.39
						c0.21,0.24,0.33,0.56,0.33,0.91v0C101.25,69.91,101.14,70.23,100.92,70.47l0.07,0.07L100.92,70.47L100.92,70.47L100.92,70.47z"
						/>
					<path class="st0" d="M116.28,70.92h2.18v-0.59h-2.18v-2.07h2.34v-0.59h-2.78l-0.03,0.04l-4.55,6.22h0.72l1.18-1.6h2.53v1.6
						h2.99v-0.59h-2.4V70.92L116.28,70.92L116.28,70.92z M115.68,68.87v2.88h-2.11L115.68,68.87L115.68,68.87L115.68,68.87z"/>
					<polygon class="st0" points="128.45,73.93 128.55,73.93 129.04,73.93 129.04,67.67 128.45,67.67 128.45,73.93 128.45,73.93 
											"/>
					<polygon class="st0" points="139.44,73.93 139.53,73.93 140.03,73.93 140.03,67.67 139.44,67.67 139.44,73.93 139.44,73.93 
											"/>
					<path class="st0" d="M145.52,67.67l-0.02,0.06l-2.43,6.2h0.64l0.64-1.66h2.79l0.65,1.66h0.64l-2.46-6.26H145.52L145.52,67.67
						L145.52,67.67z M146.9,71.68h-2.33l1.17-3.01L146.9,71.68L146.9,71.68L146.9,71.68z"/>
					<path class="st0" d="M136.08,68.35L136.08,68.35L136.08,68.35L136.08,68.35c-0.41-0.5-1.02-0.68-1.8-0.68h0h0h-1.76v6.26h1.76
						h0c0.78,0,1.39-0.18,1.8-0.68c0.41-0.5,0.61-1.28,0.61-2.45C136.69,69.63,136.49,68.85,136.08,68.35L136.08,68.35L136.08,68.35
						L136.08,68.35z M136.08,70.8L136.08,70.8c0,1.05-0.17,1.7-0.48,2.07c-0.15,0.19-0.34,0.31-0.57,0.39
						c-0.23,0.08-0.49,0.11-0.79,0.11l0,0h0l0,0h-1.14v-5.15h1.14c0.3,0,0.57,0.03,0.8,0.11c0.23,0.08,0.41,0.2,0.57,0.39
						C135.91,69.1,136.08,69.74,136.08,70.8L136.08,70.8L136.08,70.8L136.08,70.8z"/>
					<path class="st0" d="M154.9,68.35L154.9,68.35L154.9,68.35L154.9,68.35C154.9,68.35,154.9,68.35,154.9,68.35L154.9,68.35
						c-0.41-0.5-1.02-0.68-1.8-0.68h0h0h-1.76v6.26h1.76h0c0.78,0,1.39-0.18,1.8-0.68c0.41-0.5,0.61-1.28,0.61-2.45
						C155.51,69.63,155.32,68.85,154.9,68.35L154.9,68.35L154.9,68.35z M154.9,70.8L154.9,70.8c0,1.05-0.17,1.7-0.48,2.07
						c-0.15,0.19-0.34,0.31-0.57,0.39c-0.23,0.08-0.49,0.11-0.8,0.11l0,0h0l0,0h-1.14v-5.14h1.15h0c0.3,0,0.57,0.03,0.79,0.11
						c0.23,0.08,0.41,0.2,0.57,0.39C154.73,69.1,154.9,69.74,154.9,70.8L154.9,70.8L154.9,70.8L154.9,70.8z M154.83,68.42
						L154.83,68.42L154.83,68.42L154.83,68.42L154.83,68.42L154.83,68.42z"/>
					<path class="st0" d="M108.84,69.51L108.84,69.51c0-0.53-0.2-0.99-0.52-1.32c-0.32-0.33-0.77-0.52-1.26-0.52h-1.94v6.26h0.59
						v-2.55h1.3c0.02,0,0.04,0,0.18-0.01l0,0c0.03,0,0.05,0,0.08,0l1.37,2.56h0.66l-1.46-2.72
						C108.43,70.92,108.84,70.27,108.84,69.51L108.84,69.51L108.84,69.51z M107.02,70.79h-1.3v-2.53h1.33c0.69,0,1.2,0.55,1.2,1.25
						v0v0c0,0.37-0.13,0.69-0.35,0.92C107.68,70.66,107.38,70.79,107.02,70.79L107.02,70.79L107.02,70.79L107.02,70.79z"/>
					<path class="st0" d="M125.02,71.02L125.02,71.02c-0.33-0.26-0.74-0.4-1.16-0.52l-0.02,0l0,0l-0.03-0.01
						c-0.42-0.12-0.8-0.23-1.06-0.41c-0.13-0.09-0.23-0.19-0.31-0.32c-0.07-0.13-0.11-0.29-0.11-0.51v0v0v0
						c0-0.33,0.13-0.65,0.37-0.85c0.28-0.23,0.69-0.28,1.06-0.28h0l0,0h0c0.67,0,1.23,0.17,1.31,0.19l0.09,0.03l0.19-0.59
						l-0.09-0.03c-0.1-0.03-0.67-0.22-1.54-0.22c-0.63,0-1.13,0.17-1.48,0.48c-0.34,0.31-0.52,0.76-0.52,1.29l0,0v0v0v0v0
						c0,0.63,0.26,1.04,0.62,1.29c0.36,0.25,0.82,0.38,1.25,0.51l0,0l0.02,0.01c0.37,0.1,0.7,0.21,0.94,0.39
						c0.24,0.18,0.38,0.42,0.38,0.84v0l0,0c0,0.33-0.14,0.67-0.4,0.87c-0.22,0.17-0.51,0.24-0.8,0.27
						c-0.09,0.01-0.18,0.01-0.27,0.01h0c-0.56,0-1.11-0.14-1.64-0.33l-0.09-0.03l-0.21,0.61l0.08,0.04
						c0.17,0.07,0.96,0.36,1.86,0.37l0,0h0.01c0,0,0,0,0,0h0l0,0c0.64,0,1.16-0.16,1.51-0.48c0.36-0.31,0.55-0.77,0.55-1.32h-0.1
						h0.1v0v0v0v0v0v0C125.58,71.69,125.36,71.28,125.02,71.02L125.02,71.02L125.02,71.02z"/>
				</g>
				<g>
					<path class="st0" d="M101.34,68.23c-0.32-0.34-0.78-0.55-1.32-0.55h0h-1.76v6.26h0.59v-2.48h1.17h0c0.52,0,0.98-0.2,1.31-0.54
						c0.32-0.34,0.52-0.81,0.52-1.35C101.85,69.04,101.66,68.57,101.34,68.23L101.34,68.23L101.34,68.23L101.34,68.23z
						 M100.92,70.47L100.92,70.47c-0.21,0.24-0.52,0.39-0.92,0.39h-1.15v-2.6h1.15c0.39,0,0.7,0.15,0.91,0.39
						c0.21,0.24,0.33,0.56,0.33,0.91v0C101.25,69.91,101.14,70.23,100.92,70.47l0.07,0.07L100.92,70.47L100.92,70.47L100.92,70.47z"
						/>
					<path class="st0" d="M116.28,70.92h2.18v-0.59h-2.18v-2.07h2.34v-0.59h-2.78l-0.03,0.04l-4.55,6.22h0.72l1.18-1.6h2.53v1.6
						h2.99v-0.59h-2.4V70.92L116.28,70.92L116.28,70.92z M115.68,68.87v2.88h-2.11L115.68,68.87L115.68,68.87L115.68,68.87z"/>
					<polygon class="st0" points="128.45,73.93 128.55,73.93 129.04,73.93 129.04,67.67 128.45,67.67 128.45,73.93 128.45,73.93 
											"/>
					<polygon class="st0" points="139.44,73.93 139.53,73.93 140.03,73.93 140.03,67.67 139.44,67.67 139.44,73.93 139.44,73.93 
											"/>
					<path class="st0" d="M145.52,67.67l-0.02,0.06l-2.43,6.2h0.64l0.64-1.66h2.79l0.65,1.66h0.64l-2.46-6.26H145.52L145.52,67.67
						L145.52,67.67z M146.9,71.68h-2.33l1.17-3.01L146.9,71.68L146.9,71.68L146.9,71.68z"/>
					<path class="st0" d="M136.08,68.35L136.08,68.35L136.08,68.35L136.08,68.35c-0.41-0.5-1.02-0.68-1.8-0.68h0h0h-1.76v6.26h1.76
						h0c0.78,0,1.39-0.18,1.8-0.68c0.41-0.5,0.61-1.28,0.61-2.45C136.69,69.63,136.49,68.85,136.08,68.35L136.08,68.35L136.08,68.35
						L136.08,68.35z M136.08,70.8L136.08,70.8c0,1.05-0.17,1.7-0.48,2.07c-0.15,0.19-0.34,0.31-0.57,0.39
						c-0.23,0.08-0.49,0.11-0.79,0.11l0,0h0l0,0h-1.14v-5.15h1.14c0.3,0,0.57,0.03,0.8,0.11c0.23,0.08,0.41,0.2,0.57,0.39
						C135.91,69.1,136.08,69.74,136.08,70.8L136.08,70.8L136.08,70.8L136.08,70.8z"/>
					<path class="st0" d="M154.9,68.35L154.9,68.35L154.9,68.35L154.9,68.35C154.9,68.35,154.9,68.35,154.9,68.35L154.9,68.35
						c-0.41-0.5-1.02-0.68-1.8-0.68h0h0h-1.76v6.26h1.76h0c0.78,0,1.39-0.18,1.8-0.68c0.41-0.5,0.61-1.28,0.61-2.45
						C155.51,69.63,155.32,68.85,154.9,68.35L154.9,68.35L154.9,68.35z M154.9,70.8L154.9,70.8c0,1.05-0.17,1.7-0.48,2.07
						c-0.15,0.19-0.34,0.31-0.57,0.39c-0.23,0.08-0.49,0.11-0.8,0.11l0,0h0l0,0h-1.14v-5.14h1.15h0c0.3,0,0.57,0.03,0.79,0.11
						c0.23,0.08,0.41,0.2,0.57,0.39C154.73,69.1,154.9,69.74,154.9,70.8L154.9,70.8L154.9,70.8L154.9,70.8z M154.83,68.42
						L154.83,68.42L154.83,68.42L154.83,68.42L154.83,68.42L154.83,68.42z"/>
					<path class="st0" d="M108.84,69.51L108.84,69.51c0-0.53-0.2-0.99-0.52-1.32c-0.32-0.33-0.77-0.52-1.26-0.52h-1.94v6.26h0.59
						v-2.55h1.3c0.02,0,0.04,0,0.18-0.01l0,0c0.03,0,0.05,0,0.08,0l1.37,2.56h0.66l-1.46-2.72
						C108.43,70.92,108.84,70.27,108.84,69.51L108.84,69.51L108.84,69.51z M107.02,70.79h-1.3v-2.53h1.33c0.69,0,1.2,0.55,1.2,1.25
						v0v0c0,0.37-0.13,0.69-0.35,0.92C107.68,70.66,107.38,70.79,107.02,70.79L107.02,70.79L107.02,70.79L107.02,70.79z"/>
					<path class="st0" d="M125.02,71.02L125.02,71.02c-0.33-0.26-0.74-0.4-1.16-0.52l-0.02,0l0,0l-0.03-0.01
						c-0.42-0.12-0.8-0.23-1.06-0.41c-0.13-0.09-0.23-0.19-0.31-0.32c-0.07-0.13-0.11-0.29-0.11-0.51v0v0v0
						c0-0.33,0.13-0.65,0.37-0.85c0.28-0.23,0.69-0.28,1.06-0.28h0l0,0h0c0.67,0,1.23,0.17,1.31,0.19l0.09,0.03l0.19-0.59
						l-0.09-0.03c-0.1-0.03-0.67-0.22-1.54-0.22c-0.63,0-1.13,0.17-1.48,0.48c-0.34,0.31-0.52,0.76-0.52,1.29l0,0v0v0v0v0
						c0,0.63,0.26,1.04,0.62,1.29c0.36,0.25,0.82,0.38,1.25,0.51l0,0l0.02,0.01c0.37,0.1,0.7,0.21,0.94,0.39
						c0.24,0.18,0.38,0.42,0.38,0.84v0l0,0c0,0.33-0.14,0.67-0.4,0.87c-0.22,0.17-0.51,0.24-0.8,0.27
						c-0.09,0.01-0.18,0.01-0.27,0.01h0c-0.56,0-1.11-0.14-1.64-0.33l-0.09-0.03l-0.21,0.61l0.08,0.04
						c0.17,0.07,0.96,0.36,1.86,0.37l0,0h0.01c0,0,0,0,0,0h0l0,0c0.64,0,1.16-0.16,1.51-0.48c0.36-0.31,0.55-0.77,0.55-1.32h-0.1
						h0.1v0v0v0v0v0v0C125.58,71.69,125.36,71.28,125.02,71.02L125.02,71.02L125.02,71.02z"/>
				</g>
				<g>
					<path class="st0" d="M101.34,68.23c-0.32-0.34-0.78-0.55-1.32-0.55h0h-1.76v6.26h0.59v-2.48h1.17h0c0.52,0,0.98-0.2,1.31-0.54
						c0.32-0.34,0.52-0.81,0.52-1.35C101.85,69.04,101.66,68.57,101.34,68.23L101.34,68.23L101.34,68.23L101.34,68.23z
						 M100.92,70.47L100.92,70.47c-0.21,0.24-0.52,0.39-0.92,0.39h-1.15v-2.6h1.15c0.39,0,0.7,0.15,0.91,0.39
						c0.21,0.24,0.33,0.56,0.33,0.91v0C101.25,69.91,101.14,70.23,100.92,70.47l0.07,0.07L100.92,70.47L100.92,70.47L100.92,70.47z"
						/>
					<path class="st0" d="M116.28,70.92h2.18v-0.59h-2.18v-2.07h2.34v-0.59h-2.78l-0.03,0.04l-4.55,6.22h0.72l1.18-1.6h2.53v1.6
						h2.99v-0.59h-2.4V70.92L116.28,70.92L116.28,70.92z M115.68,68.87v2.88h-2.11L115.68,68.87L115.68,68.87L115.68,68.87z"/>
					<polygon class="st0" points="128.45,73.93 128.55,73.93 129.04,73.93 129.04,67.67 128.45,67.67 128.45,73.93 128.45,73.93 
											"/>
					<polygon class="st0" points="139.44,73.93 139.53,73.93 140.03,73.93 140.03,67.67 139.44,67.67 139.44,73.93 139.44,73.93 
											"/>
					<path class="st0" d="M145.52,67.67l-0.02,0.06l-2.43,6.2h0.64l0.64-1.66h2.79l0.65,1.66h0.64l-2.46-6.26H145.52L145.52,67.67
						L145.52,67.67z M146.9,71.68h-2.33l1.17-3.01L146.9,71.68L146.9,71.68L146.9,71.68z"/>
					<path class="st0" d="M136.08,68.35L136.08,68.35L136.08,68.35L136.08,68.35c-0.41-0.5-1.02-0.68-1.8-0.68h0h0h-1.76v6.26h1.76
						h0c0.78,0,1.39-0.18,1.8-0.68c0.41-0.5,0.61-1.28,0.61-2.45C136.69,69.63,136.49,68.85,136.08,68.35L136.08,68.35L136.08,68.35
						L136.08,68.35z M136.08,70.8L136.08,70.8c0,1.05-0.17,1.7-0.48,2.07c-0.15,0.19-0.34,0.31-0.57,0.39
						c-0.23,0.08-0.49,0.11-0.79,0.11l0,0h0l0,0h-1.14v-5.15h1.14c0.3,0,0.57,0.03,0.8,0.11c0.23,0.08,0.41,0.2,0.57,0.39
						C135.91,69.1,136.08,69.74,136.08,70.8L136.08,70.8L136.08,70.8L136.08,70.8z"/>
					<path class="st0" d="M154.9,68.35L154.9,68.35L154.9,68.35L154.9,68.35C154.9,68.35,154.9,68.35,154.9,68.35L154.9,68.35
						c-0.41-0.5-1.02-0.68-1.8-0.68h0h0h-1.76v6.26h1.76h0c0.78,0,1.39-0.18,1.8-0.68c0.41-0.5,0.61-1.28,0.61-2.45
						C155.51,69.63,155.32,68.85,154.9,68.35L154.9,68.35L154.9,68.35z M154.9,70.8L154.9,70.8c0,1.05-0.17,1.7-0.48,2.07
						c-0.15,0.19-0.34,0.31-0.57,0.39c-0.23,0.08-0.49,0.11-0.8,0.11l0,0h0l0,0h-1.14v-5.14h1.15h0c0.3,0,0.57,0.03,0.79,0.11
						c0.23,0.08,0.41,0.2,0.57,0.39C154.73,69.1,154.9,69.74,154.9,70.8L154.9,70.8L154.9,70.8L154.9,70.8z M154.83,68.42
						L154.83,68.42L154.83,68.42L154.83,68.42L154.83,68.42L154.83,68.42z"/>
					<path class="st0" d="M108.84,69.51L108.84,69.51c0-0.53-0.2-0.99-0.52-1.32c-0.32-0.33-0.77-0.52-1.26-0.52h-1.94v6.26h0.59
						v-2.55h1.3c0.02,0,0.04,0,0.18-0.01l0,0c0.03,0,0.05,0,0.08,0l1.37,2.56h0.66l-1.46-2.72
						C108.43,70.92,108.84,70.27,108.84,69.51L108.84,69.51L108.84,69.51z M107.02,70.79h-1.3v-2.53h1.33c0.69,0,1.2,0.55,1.2,1.25
						v0v0c0,0.37-0.13,0.69-0.35,0.92C107.68,70.66,107.38,70.79,107.02,70.79L107.02,70.79L107.02,70.79L107.02,70.79z"/>
					<path class="st0" d="M125.02,71.02L125.02,71.02c-0.33-0.26-0.74-0.4-1.16-0.52l-0.02,0l0,0l-0.03-0.01
						c-0.42-0.12-0.8-0.23-1.06-0.41c-0.13-0.09-0.23-0.19-0.31-0.32c-0.07-0.13-0.11-0.29-0.11-0.51v0v0v0
						c0-0.33,0.13-0.65,0.37-0.85c0.28-0.23,0.69-0.28,1.06-0.28h0l0,0h0c0.67,0,1.23,0.17,1.31,0.19l0.09,0.03l0.19-0.59
						l-0.09-0.03c-0.1-0.03-0.67-0.22-1.54-0.22c-0.63,0-1.13,0.17-1.48,0.48c-0.34,0.31-0.52,0.76-0.52,1.29l0,0v0v0v0v0
						c0,0.63,0.26,1.04,0.62,1.29c0.36,0.25,0.82,0.38,1.25,0.51l0,0l0.02,0.01c0.37,0.1,0.7,0.21,0.94,0.39
						c0.24,0.18,0.38,0.42,0.38,0.84v0l0,0c0,0.33-0.14,0.67-0.4,0.87c-0.22,0.17-0.51,0.24-0.8,0.27
						c-0.09,0.01-0.18,0.01-0.27,0.01h0c-0.56,0-1.11-0.14-1.64-0.33l-0.09-0.03l-0.21,0.61l0.08,0.04
						c0.17,0.07,0.96,0.36,1.86,0.37l0,0h0.01c0,0,0,0,0,0h0l0,0c0.64,0,1.16-0.16,1.51-0.48c0.36-0.31,0.55-0.77,0.55-1.32h-0.1
						h0.1v0v0v0v0v0v0C125.58,71.69,125.36,71.28,125.02,71.02L125.02,71.02L125.02,71.02z"/>
				</g>
			</g>
			<path class="st0" d="M93.25,71.27v2.62h-0.43v-0.48C92.38,73.76,91.83,74,91.19,74c-0.98,0-1.62-0.48-1.62-1.25
				c0-0.65,0.51-1.18,1.45-1.18h1.79v-0.3c0-0.69-0.48-1.13-1.28-1.13c-0.67,0-1.25,0.29-1.35,0.97h-0.45
				c0.11-0.94,0.91-1.35,1.79-1.35C92.57,69.77,93.25,70.32,93.25,71.27z M92.82,73v-1.08h-1.79c-0.71,0-1.03,0.42-1.03,0.84
				c0,0.53,0.48,0.87,1.25,0.87C91.83,73.62,92.35,73.42,92.82,73z"/>
		</g>
	</g>
</g>
</svg>
