<?xml version="1.0" encoding="utf-8"?>
<!-- Generator: Adobe Illustrator 25.1.0, SVG Export Plug-In . SVG Version: 6.00 Build 0)  -->
<svg version="1.1" id="Warstwa_1" xmlns="http://www.w3.org/2000/svg" xmlns:xlink="http://www.w3.org/1999/xlink" x="0px" y="0px"
	 viewBox="0 0 210 120" style="enable-background:new 0 0 210 120;" xml:space="preserve">
<style type="text/css">
	.st0{fill-rule:evenodd;clip-rule:evenodd;fill:#9F9F9F;}
	.st1{fill:#9F9F9F;}
</style>
<g>
	<path class="st0" d="M35.3,60L35.3,60L35.3,60L35.3,60L35.3,60l3.73-3.73c-0.46-1.7-0.91-3.4-1.37-5.09
		c1.73-0.46,3.22-0.86,5.09-1.37c0.46-1.7,0.91-3.4,1.37-5.09l0,0l5.09,1.37l3.73-3.73l3.73,3.73l5.09-1.37l1.37,5.1
		c1.7,0.46,3.4,0.91,5.09,1.37l0,0l-1.37,5.09c1.24,1.24,2.49,2.49,3.73,3.73l0,0l-3.73,3.73c0.46,1.7,0.91,3.4,1.37,5.09l0,0
		l-5.09,1.37l-1.37,5.09h0l0,0l-5.09-1.37l-3.73,3.73l0,0l0,0l-3.73-3.73l-5.09,1.37l0,0h0l-1.37-5.09l-5.09-1.37h0l0,0l1.37-5.09
		L35.3,60z M33.44,58.14l2.65-2.65l-0.97-3.62l-6.28,1.68L33.44,58.14z M35.12,68.14l0.97-3.62l-2.65-2.65l-4.6,4.6L35.12,68.14z
		 M41.58,75.97l-0.97-3.62l-3.62-0.97l-1.68,6.28L41.58,75.97z M51.09,79.51l-2.65-2.65l-3.62,0.97l1.68,6.28L51.09,79.51z
		 M61.09,77.83l-3.62-0.97l-2.65,2.65l4.6,4.6L61.09,77.83z M68.92,71.37l-3.62,0.97l-0.97,3.62l6.28,1.68L68.92,71.37z
		 M72.47,61.86l-2.65,2.65l0.97,3.62l6.28-1.68L72.47,61.86z M70.78,51.86l-0.97,3.62l2.65,2.65l4.6-4.6L70.78,51.86z M64.32,44.03
		l0.97,3.62l3.62,0.97l1.68-6.28L64.32,44.03z M54.82,40.49l2.65,2.65l3.62-0.97l-1.68-6.28L54.82,40.49z M44.81,42.17l3.62,0.97
		l2.65-2.65l-4.6-4.6L44.81,42.17z M40.61,47.66l0.97-3.62l-6.28-1.68l1.68,6.28L40.61,47.66z M27.82,51.9l0.38-0.92l4.44-1.19
		l-3.18-1.84l1.32-2.28l3.18,1.84l-1.19-4.44l0.61-0.79c0.62-0.62,1.24-1.24,1.86-1.86l0.79-0.61L40.46,41l-1.84-3.18l2.28-1.32
		l1.84,3.18l1.19-4.44l0.92-0.38c0.85-0.23,1.7-0.45,2.55-0.68l0.99-0.13l3.25,3.25v-3.68h2.64v3.68l3.25-3.25l0.99,0.13
		c0.85,0.23,1.7,0.46,2.55,0.68l0.92,0.38l1.19,4.44L65,36.5l2.28,1.32L65.44,41l4.44-1.19l0.79,0.61c0.62,0.62,1.24,1.24,1.86,1.86
		l0.61,0.79l-1.19,4.44l3.18-1.84l1.32,2.28l-3.18,1.84l4.44,1.19l0.38,0.92c0.23,0.85,0.45,1.7,0.68,2.55l0.13,0.99l-3.25,3.25
		h3.68v2.64h-3.68l3.25,3.25l-0.13,0.99c-0.23,0.85-0.46,1.7-0.68,2.55l-0.38,0.92l-4.44,1.19l3.18,1.84l-1.32,2.28l-3.18-1.84
		l1.19,4.44l-0.61,0.79c-0.62,0.62-1.24,1.24-1.86,1.86l-0.79,0.61L65.44,79l1.84,3.18L65,83.5l-1.84-3.18l-1.19,4.44l-0.92,0.38
		c-0.85,0.23-1.7,0.45-2.55,0.68l-0.99,0.13l-3.25-3.25v3.68h-2.64V82.7l-3.25,3.25l-0.99-0.13c-0.85-0.23-1.7-0.46-2.55-0.68
		l-0.92-0.38l-1.19-4.44l-1.84,3.18l-2.28-1.32L40.46,79l-4.44,1.19l-0.79-0.61c-0.62-0.62-1.24-1.24-1.86-1.86l-0.61-0.79
		l1.19-4.44l-3.18,1.84l-1.32-2.28l3.18-1.84l-4.44-1.19l-0.38-0.92c-0.23-0.85-0.45-1.7-0.68-2.55l-0.13-0.99l3.25-3.25h-3.68
		v-2.64h3.68l-3.25-3.25l0.13-0.99C27.36,53.6,27.59,52.75,27.82,51.9z M45.4,52.45h3.19l1.6-2.76l2.76,1.6l2.76-1.6l1.6,2.76h3.19
		l0,3.19l2.76,1.6L61.67,60l1.6,2.76l-2.76,1.6v3.19l-3.19,0l-1.6,2.76l-2.76-1.6l-2.76,1.6l-1.6-2.76H45.4l0-3.19l-2.76-1.6
		l1.6-2.76l-1.6-2.76l2.76-1.6V52.45z M47.07,49.81l2.15-3.73l3.73,2.15l3.73-2.15l2.15,3.73h4.31l0,4.31l3.73,2.15L64.72,60
		l2.15,3.73l-3.73,2.15v4.31l-4.31,0l-2.15,3.73l-3.73-2.15l-3.73,2.15l-2.15-3.73l-4.31,0l0-4.31l-3.73-2.15L41.19,60l-2.15-3.73
		l3.73-2.15l0-4.31H47.07z"/>
	<path class="st1" d="M107.73,56.48c0-1.29,0.27-2.19,0.8-2.7c0.53-0.51,1.48-0.76,2.84-0.76h1.28c1.24,0,2.16,0.21,2.75,0.63
		c0.59,0.42,0.88,1.08,0.88,1.98v0.43h-1.15v-0.12c0-0.7-0.18-1.18-0.53-1.46c-0.35-0.27-1.03-0.41-2.02-0.41h-0.89
		c-0.69,0-1.19,0.04-1.49,0.12c-0.3,0.08-0.56,0.21-0.77,0.39c-0.19,0.17-0.33,0.39-0.41,0.67c-0.08,0.28-0.12,0.79-0.12,1.51v2.88
		c0,0.72,0.04,1.23,0.12,1.51c0.08,0.28,0.22,0.5,0.41,0.67c0.21,0.18,0.47,0.31,0.76,0.39c0.29,0.08,0.8,0.12,1.51,0.12h0.89
		c0.64,0,1.1-0.03,1.36-0.1c0.27-0.07,0.5-0.18,0.69-0.35c0.18-0.16,0.31-0.36,0.38-0.63c0.07-0.27,0.11-0.73,0.11-1.37v-0.62h-2.81
		v-1.03h3.96v1.69c0,1.3-0.27,2.2-0.8,2.7c-0.53,0.51-1.48,0.76-2.84,0.76h-1.28c-1.36,0-2.31-0.25-2.84-0.76
		c-0.54-0.51-0.8-1.41-0.8-2.7V56.48z M99.23,63.25V53.15h7.09v1.07h-5.98v3.31h5.81v1.03h-5.81v3.64h5.98v1.06H99.23z M95.66,63.25
		V53.15h1.13v10.11H95.66z M85.94,63.25V53.15h4.7c1.09,0,1.81,0.16,2.16,0.5c0.35,0.33,0.53,1,0.53,2.02
		c0,0.78-0.09,1.33-0.26,1.64c-0.17,0.32-0.48,0.53-0.92,0.65c0.54,0.13,0.91,0.38,1.12,0.72c0.21,0.35,0.32,0.93,0.32,1.75
		c0,1.11-0.22,1.86-0.66,2.25c-0.44,0.38-1.32,0.58-2.64,0.58H85.94z M87.04,62.19h3.68c0.67,0,1.12-0.1,1.35-0.31
		c0.23-0.21,0.35-0.74,0.35-1.61c0-0.73-0.13-1.2-0.39-1.42c-0.26-0.22-0.93-0.32-2.01-0.32h-2.99V62.19z M87.04,57.51h3.64
		c0.59,0,0.99-0.11,1.19-0.32c0.2-0.21,0.31-0.68,0.31-1.41c0-0.69-0.11-1.13-0.33-1.3c-0.22-0.18-0.77-0.26-1.66-0.26h-3.16V57.51z
		"/>
	<path class="st1" d="M162.43,57.37v1.66c0,0.86,0.1,1.41,0.29,1.63c0.19,0.22,0.6,0.33,1.22,0.33h0.5c0.62,0,1.03-0.11,1.23-0.34
		c0.2-0.22,0.3-0.77,0.3-1.62v-1.66c0-0.86-0.1-1.4-0.3-1.63c-0.2-0.23-0.61-0.34-1.23-0.34h-0.5c-0.62,0-1.02,0.11-1.22,0.34
		C162.53,55.96,162.43,56.51,162.43,57.37 M118.12,63.25V53.15h4.74c1.33,0,2.29,0.26,2.86,0.78c0.57,0.52,0.86,1.38,0.86,2.58v0.66
		c0,1.2-0.29,2.07-0.86,2.59c-0.58,0.53-1.53,0.79-2.86,0.79h-2.03v2.7H118.12z M120.83,58.3h1.89c0.44,0,0.74-0.08,0.88-0.24
		c0.15-0.16,0.22-0.48,0.22-0.96v-0.58c0-0.4-0.09-0.69-0.28-0.86c-0.18-0.17-0.49-0.25-0.93-0.25h-1.78V58.3z M127.84,63.25V53.15
		h2.74v10.11H127.84z M135.81,59.43h2.21l-1-4.19h-0.18L135.81,59.43z M131.94,63.25l2.91-10.11h4.17l2.84,10.11h-2.91l-0.45-1.77
		h-3.19l-0.46,1.77H131.94z M142.45,60.12h2.6v0.1c0,0.37,0.1,0.62,0.29,0.76c0.19,0.15,0.54,0.22,1.03,0.22h0.68
		c0.41,0,0.7-0.06,0.86-0.17c0.16-0.11,0.25-0.31,0.25-0.59v-0.44c0-0.24-0.06-0.41-0.2-0.51c-0.13-0.1-0.43-0.19-0.89-0.24
		l-2.2-0.24c-0.82-0.09-1.42-0.35-1.8-0.77c-0.38-0.42-0.57-1.05-0.57-1.88v-0.63c0-0.47,0.07-0.89,0.22-1.26
		c0.15-0.37,0.37-0.67,0.65-0.91c0.24-0.2,0.54-0.35,0.89-0.43c0.35-0.08,0.87-0.13,1.56-0.13h1.62c1.01,0,1.78,0.2,2.31,0.61
		c0.54,0.41,0.8,1,0.8,1.77v0.69h-2.6v-0.11c0-0.3-0.07-0.51-0.21-0.63c-0.14-0.12-0.4-0.18-0.77-0.18h-0.63
		c-0.43,0-0.73,0.05-0.89,0.15c-0.16,0.1-0.24,0.28-0.24,0.53v0.42c0,0.37,0.36,0.6,1.09,0.68l2,0.22c0.87,0.1,1.51,0.35,1.94,0.76
		c0.43,0.41,0.64,0.98,0.64,1.71v0.97c0,0.84-0.26,1.51-0.78,2.01c-0.52,0.5-1.22,0.76-2.1,0.76h-2.21c-1.18,0-2.04-0.2-2.57-0.61
		c-0.54-0.41-0.8-1.06-0.8-1.94V60.12z M153.86,63.25V55.4h-2.6v-2.25h7.92v2.25h-2.59v7.85H153.86z M162.84,51.6h2.74v1.45
		c1.06,0.09,1.83,0.38,2.3,0.89c0.58,0.61,0.86,1.68,0.86,3.21v2.1c0,1.53-0.29,2.6-0.86,3.21c-0.58,0.61-1.58,0.92-3.02,0.92h-1.33
		c-1.43,0-2.43-0.3-3-0.91c-0.57-0.61-0.86-1.68-0.86-3.22v-2.1c0-1.53,0.29-2.61,0.86-3.22c0.48-0.5,1.24-0.8,2.31-0.89V51.6z
		 M169.9,53.15h2.74l0.96,7.74l1.58-7.74h3.03l1.45,7.74l1.06-7.74h2.72l-1.68,10.11h-3.86l-1.24-6.86l-1.28,6.86h-3.9L169.9,53.15z
		"/>
	<path class="st0" d="M183.21,74.56h-65.09v-8.6h65.09V74.56z M171.98,72.76v-1.12h-2.47V70.7h2.35v-0.96h-2.35v-0.87h2.42v-1.12
		h-3.76v5.01H171.98z M165.99,70.84v0.11c0,0.26-0.05,0.44-0.15,0.54c-0.1,0.1-0.29,0.15-0.56,0.15c-0.29,0-0.48-0.06-0.58-0.17
		c-0.1-0.11-0.14-0.38-0.14-0.81v-0.82c0-0.43,0.05-0.7,0.14-0.81c0.1-0.11,0.29-0.17,0.58-0.17c0.26,0,0.45,0.05,0.55,0.14
		c0.11,0.09,0.16,0.26,0.16,0.48v0.09h1.34v-0.1c0-0.67-0.14-1.13-0.42-1.4c-0.28-0.27-0.77-0.4-1.47-0.4h-0.37
		c-0.71,0-1.2,0.15-1.49,0.45c-0.28,0.3-0.43,0.83-0.43,1.59v1.04c0,0.76,0.14,1.29,0.43,1.59c0.28,0.3,0.78,0.45,1.49,0.45h0.45
		c0.65,0,1.12-0.14,1.41-0.43c0.29-0.29,0.43-0.76,0.43-1.41v-0.14H165.99z M159.88,71.01v1.75h1.34v-1.75l1.71-3.25h-1.5
		l-0.88,1.93l-0.89-1.93h-1.51L159.88,71.01z M157.77,72.76V71.6h-2.34l2.34-2.64v-1.2h-3.94v1.16h2.24l-2.4,2.67v1.17H157.77z
		 M148.88,71.56c0,0.44,0.13,0.76,0.4,0.96c0.27,0.2,0.69,0.3,1.27,0.3h1.09c0.43,0,0.78-0.13,1.04-0.37
		c0.26-0.25,0.39-0.58,0.39-0.99v-0.48c0-0.36-0.11-0.64-0.32-0.85c-0.21-0.2-0.53-0.32-0.96-0.37l-0.99-0.11
		c-0.36-0.04-0.54-0.15-0.54-0.34V69.1c0-0.12,0.04-0.21,0.12-0.26c0.08-0.05,0.23-0.08,0.44-0.08h0.31c0.18,0,0.31,0.03,0.38,0.09
		c0.07,0.06,0.11,0.16,0.11,0.31v0.05h1.29v-0.34c0-0.38-0.13-0.67-0.4-0.88c-0.26-0.2-0.65-0.3-1.15-0.3h-0.8
		c-0.34,0-0.6,0.02-0.77,0.06c-0.17,0.04-0.32,0.11-0.44,0.21c-0.14,0.12-0.25,0.27-0.32,0.45c-0.07,0.18-0.11,0.39-0.11,0.62v0.31
		c0,0.41,0.09,0.72,0.28,0.93c0.19,0.21,0.48,0.34,0.89,0.38l1.09,0.12c0.23,0.03,0.38,0.07,0.44,0.12c0.07,0.05,0.1,0.14,0.1,0.25
		v0.22c0,0.14-0.04,0.24-0.12,0.29c-0.08,0.06-0.22,0.08-0.43,0.08h-0.34c-0.24,0-0.41-0.04-0.51-0.11c-0.1-0.07-0.14-0.2-0.14-0.38
		v-0.05h-1.29V71.56z M143.69,70.78c0,0.44,0.03,0.77,0.09,0.98c0.06,0.21,0.15,0.4,0.29,0.56c0.15,0.18,0.35,0.31,0.58,0.39
		c0.23,0.08,0.55,0.12,0.95,0.12h0.66c0.4,0,0.72-0.04,0.95-0.12c0.23-0.08,0.43-0.21,0.59-0.39c0.13-0.15,0.22-0.34,0.28-0.55
		c0.06-0.21,0.08-0.54,0.08-0.99v-3.02h-1.34v2.92c0,0.41-0.05,0.67-0.15,0.79c-0.1,0.12-0.31,0.18-0.62,0.18h-0.25
		c-0.32,0-0.52-0.06-0.63-0.18c-0.1-0.12-0.15-0.38-0.15-0.79v-2.92h-1.34V70.78z M140.3,72.76v-2h0.1l1.32,2h1.66l-1.82-2.58
		l1.65-2.42h-1.6l-1.2,1.88h-0.1v-1.88h-1.34v5.01H140.3z M134.86,72.76l0.23-0.87h1.58l0.22,0.87h1.44l-1.41-5.01h-2.06l-1.44,5.01
		H134.86z M135.84,68.8h0.09l0.5,2.07h-1.1L135.84,68.8z M132.91,67.76h-1.36v3.43c0,0.18-0.02,0.3-0.07,0.36
		c-0.05,0.06-0.13,0.1-0.25,0.1h-0.24c-0.12,0-0.2-0.03-0.25-0.1c-0.05-0.06-0.07-0.18-0.07-0.36v-0.57h-1.31v0.71
		c0,0.54,0.12,0.92,0.35,1.15c0.23,0.23,0.62,0.35,1.17,0.35h0.62c0.48,0,0.84-0.13,1.07-0.39c0.23-0.26,0.35-0.66,0.35-1.2V67.76z"
		/>
</g>
</svg>
