<?xml version="1.0" encoding="utf-8"?>
<!-- Generator: Adobe Illustrator 19.0.0, SVG Export Plug-In . SVG Version: 6.00 Build 0)  -->
<svg version="1.1" id="Warstwa_1" xmlns="http://www.w3.org/2000/svg" xmlns:xlink="http://www.w3.org/1999/xlink" x="0px" y="0px"
	 viewBox="0 0 210.1 120.1" style="enable-background:new 0 0 210.1 120.1;" xml:space="preserve">
<style type="text/css">
	.st0{fill:#FEFEFE;}
	.st1{fill:#A2A2A2;}
	.st2{fill:#A4A4A4;}
	.st3{fill:#A9A9A9;}
	.st4{fill:#9F9F9F;}
	.st5{fill:#F8F8F8;}
	.st6{fill:#A6A6A6;}
	.st7{fill:#AAAAAA;}
	.st8{fill:#BBBBBB;}
	.st9{fill:#B5B5B5;}
	.st10{fill:#A5A5A5;}
	.st11{fill:#A8A8A8;}
	.st12{fill:#C8C8C8;}
	.st13{fill:#ACACAC;}
	.st14{fill:#FAFAFA;}
	.st15{fill:#C5C5C5;}
	.st16{fill:#CACACA;}
	.st17{fill:#B6B6B6;}
	.st18{fill:#D3D3D3;}
	.st19{fill:#B9B9B9;}
	.st20{fill:#E9E9E9;}
	.st21{fill:#E6E6E6;}
	.st22{fill:#C2C2C2;}
	.st23{fill:#BEBEBE;}
	.st24{fill:#C1C1C1;}
	.st25{fill:#C4C4C4;}
	.st26{fill:#EDEDED;}
	.st27{fill:#ABABAB;}
	.st28{fill:#AEAEAE;}
	.st29{fill:#ADADAD;}
	.st30{fill:#AFAFAF;}
	.st31{fill:#C6C6C6;}
	.st32{fill:#CCCCCC;}
	.st33{fill:#A1A1A1;}
	.st34{fill:#A7A7A7;}
	.st35{fill:#B3B3B3;}
	.st36{fill:#ECECEC;}
	.st37{fill:#EFEFEF;}
	.st38{fill:#E8E8E8;}
	.st39{fill:#F1F1F1;}
	.st40{fill:#EEEEEE;}
	.st41{fill:#F3F3F3;}
	.st42{fill:#F6F6F6;}
	.st43{fill:#F5F5F5;}
	.st44{fill:#F2F2F2;}
	.st45{fill:#B2B2B2;}
	.st46{fill:#DCDCDC;}
	.st47{fill:#D4D4D4;}
	.st48{fill:#CECECE;}
	.st49{fill:#A0A0A0;}
	.st50{fill:#F9F9F9;}
	.st51{fill:#EAEAEA;}
	.st52{fill:#E4E4E4;}
	.st53{fill:#D8D8D8;}
	.st54{fill:#FDFDFD;}
	.st55{fill:#D2D2D2;}
	.st56{fill:#E0E0E0;}
	.st57{fill:#E5E5E5;}
	.st58{fill:#CFCFCF;}
	.st59{fill:#F0F0F0;}
	.st60{fill:#EBEBEB;}
	.st61{fill:#BCBCBC;}
	.st62{fill:#9E9E9E;}
</style>
<g>
	<path class="st0" d="M-0.4,119.6c0-40,0-80,0-120c70.3,0,140.7,0,211,0c0,40,0,80,0,120C140.2,119.6,69.9,119.6-0.4,119.6z
		 M132.6,58.6c0.3,0,0.7,0,1,0c1.6,1.4,3.4,1.4,5,0c1.4-1,1.4-2,0-3c0.3-0.7,0.7-1.3,1-2c0.6,0,1.2,0,1.9,0c0.1,2.2,0.2,4.1,0.3,6.1
		c0.8-0.2,1.3-0.3,1.7-0.3c0.1-2,0.2-3.9,0.3-5.8c0.8,0,1.3,0,1.8,0c0,1.3-0.1,2.5,0,3.8c0,0.4,0.6,0.8,1,1.2c0.3,0.3,0.7,0.7,1,1
		c1.9-0.2,4.2,0.8,5-2c0.7,0,1.3,0,2,0c0,0.6,0,1.2,0,1.8c1.3,0,2.6,1,3-0.8c0.7-0.3,1.3-0.7,2-1c0,0.6,0,1.2,0,1.9
		c1.1,0,1.9,0,2.3,0c2.4-2.4,1.6-5.1,1.8-7.8c-0.8,0-1.3,0-1.8,0c-0.2,1.3-0.4,2.6-0.6,4.4c-0.4-0.9-0.5-1.2-0.6-1.5
		c0.1-1.9-0.7-2.9-3-3.1c0,0.8,0,1.4,0,2.1c-0.7,0-1.3,0-2,0c0-0.6,0-1.2,0-1.9c-0.8,0-1.2,0-2,0c0,1,0,2,0,2.9c-0.3,0-0.7,0-1,0
		c0.1-2.4-1.7-3.1-3.1-4.2c-1.5,1.2-2.7,2.2-3.9,3.2c0-0.6,0-1.2,0-2c-2,0-3.6,0-5.2,0c-0.3,0-0.5,0.6-0.8,1c-0.3,0-0.7,0-1,0
		s-0.7,0-1,0c-1.3-1.4-2.7-1.4-4,0c-1.4,1-1.4,2,0,3c0.3,0.3,0.7,0.7,1,1c0.7,0,1.3,0,2,0c-0.1,1.5-1.2,0.8-2,1c-0.3,0-0.7,0-1,0
		C133.2,57.9,132.9,58.2,132.6,58.6c-0.3,0-0.7,0-1,0c0-0.7,0-1.3,0-2c-0.2-0.8,0.5-1.9-1-2c0-0.7,0-1.3,0-2c-1.3-1.4-2.7-1.4-4,0
		c0,0.7,0,1.3,0,2c-1.5,0.1-0.8,1.2-1,2c0,0.7,0,1.3,0,2c-0.3,0.1-0.6,0.2-0.8,0.3c0.3,0.2,0.6,0.4,0.8,0.7c0.3,0,0.7,0,1,0
		c0.3-0.3,0.7-0.7,1-1c0.7,0,1.3,0,2,0c0.3,0.3,0.7,0.7,1,1c0.3,0,0.7,0,1,0C131.9,59.2,132.2,58.9,132.6,58.6z M95.6,53.6
		c-0.3-0.3-0.7-0.7-1-1c-1.6-1.4-3.4-1.4-5,0c0,1.9-0.1,3.9,0,5.8c0,0.4,0.6,0.8,1,1.2c1,0,2,0,3,0c0.8-0.2,1.9,0.5,2-1
		c0-0.3,0-0.7,0-1c0-0.7,0-1.3,0-2c0-0.3,0-0.7,0-1S95.6,53.9,95.6,53.6z M56.6,40.6c-0.3-0.3-0.5-0.7-0.8-1c-0.4,0.3-0.8,0.7-1.2,1
		c0,0.3,0,0.7,0,1s0,0.7,0,1c-0.3,0-0.7,0-1,0c-0.3-0.3-0.5-0.7-0.8-1c-0.4,0.3-0.8,0.7-1.2,1c-1.6,0.4-2.2,1.4-2,3c0,0.3,0,0.7,0,1
		c-0.3,0-0.7,0-1,0c-2.3,0.7-0.3,1.8-0.2,2.5c-1,0.6-1.9,1.2-2.8,1.7c0.5,1.3-1.1,3,1,3.8c-0.3,1-0.6,2-1,3.2c0.3,0.5,0.6,1.2,1,1.8
		c-1.4,1.3-1.4,2.7,0,4c0.3,0.3,0.7,0.7,1,1c0.3,0,0.7,0,1,0c0,0.3,0,0.7,0,1c-0.4,0.5-0.8,1-1.6,2c1.4,0,2,0,2.6,0c0,0.3,0,0.7,0,1
		c0.2,0.8-0.5,1.9,1,2c0.3,0.3,0.7,0.7,1,1c0.7,2.5,1.8,0.1,2.8,0.2c0.1,0.9,0.3,1.8,0.4,3c0.9-0.4,1.6-0.7,2.1-1
		c0.8,0.9,1.8,1.8,2.7,2.7c1.3-0.1,2.6,0.4,3.4-0.8c0.7,0.3,1.4,0.6,2.1,1c0.3-0.9,0.5-1.4,0.8-2.2c0.8,0.7,1.6,1.4,2.1,1.9
		c1.4,0,2.4,0,3,0c0.8-1.1,1.4-2,1.8-2.7c1,0.3,1.8,0.5,3.2,1c-0.6-1.4-0.9-2.2-1.5-3.5c1.5,0.6,2.4,1,3.1,1.3
		c3.1-0.8,1.3-3.5,2.4-5.2c0.8,0,1.6,0,2.3,0c1-2.2-1.2-1.5-1.7-2.2c0-0.1,0.1-0.2,0.2-0.4c0.7-0.1,1.5-0.2,2.3-0.3
		c0.5-1.2,1-2.2,1.7-3.7c-0.9-0.6-1.6-1.1-2.5-1.6c0.9-0.8,2.9-0.4,1.9-2.3c-0.6-0.2-1.2-0.4-1.7-0.6c0.6-1.3,2.5-1.8,1.7-4.4
		c-0.9-0.7-2.2-1.8-3.6-2.9c0.6-0.2,1.2-0.4,1.9-0.7c-0.2-0.6-0.3-1.2-0.6-2c-0.9,0.5-1.6,0.9-2.5,1.4c0-1.4,0-2.7,0-4
		c-0.3-0.3-0.7-0.7-1-1c-0.3,0-0.7,0-1,0c-0.1-0.3-0.2-0.6-0.3-0.8c-0.2,0.3-0.4,0.6-0.7,0.8c-0.8-0.2-1.9,0.5-2-1
		c1.2,0,1.3-1,0.9-1.5c-0.7-0.8-1.6-0.9-1.9,0.5c-0.7-0.3-1.3-0.7-2-1c0-0.3,0-0.7,0-1c-0.1-1.5-1.2-0.8-2-1c-0.8,0.2-1.9-0.5-2,1
		c-0.3,0.3-0.7,0.7-1,1c-0.3-0.3-0.7-0.5-1-0.8c-0.4-0.4-0.7-0.8-1-1.2c-1.5,0.1-0.8,1.2-1,2c-1-0.7-2-1.3-3-2c-0.8,0.2-1.9-0.5-2,1
		c-0.3,0.3-0.7,0.7-1,1c0,0.3,0,0.7,0,1C57.2,40.6,56.9,40.6,56.6,40.6z M107.6,59.6c0.3,0,0.7,0,1,0c1,0,2,0,3,0
		c0.3-0.3,0.7-0.7,1-1c0.7,0.3,1.3,0.7,2,1c0.5,0,1,0,1.5,0c0.3-0.7,0.6-1.3,1-2.2c1.1,0,2.2,0,3.4,0c0-1.6,0-3,0-4.3
		c-0.6-0.6-1-1.1-1.4-1.6c-1.6,0-3.1,0-4.6,0c-0.7,0.3-1.3,0.7-2,1c-1.6-1.4-3.4-1.4-5,0c-0.3,0.3-0.7,0.7-1,1c-0.3,0-0.7,0-1,0
		c0-0.3,0-0.7,0-1c-0.4-0.3-0.8-0.9-1.2-1c-1.3-0.1-2.5,0-3.8,0c-0.3,0.3-0.9,0.5-1,0.8c-0.1,2.1-0.1,4.3,0,6.4c0,0.3,0.6,0.5,1,0.8
		c0.3,0,0.7,0,1,0c0.9,0,1.9,0.1,2.8,0c0.4-0.1,0.8-0.6,1.2-1c0.3,0,0.7,0,1,0C106.9,58.9,107.2,59.2,107.6,59.6z M144.6,68.6
		c0.7,0,1.3,0,2,0c5.1,0,10.2,0,15.2,0c0.7,0,1.7,0.4,1.8-1c0-1.9,0-3.9,0-6c-2.8,0-5.4,0-8,0c-11.7,0-23.3,0-35,0c-0.3,0-0.7,0-1,0
		c-1.3,0-2.5-0.1-3.8,0c-0.4,0-0.8,0.6-1.2,1c0,1.7,0,3.3,0,5c0.2,1.7,1.5,1,2.3,1c8.9,0.1,17.8,0,26.7,0
		C143.9,68.6,144.2,68.6,144.6,68.6z M121.7,51.7c0,2.6,0,5.2,0,7.8c0.6,0,1.1,0,1.7,0c0-2.6,0-5.2,0-7.8
		C122.8,51.7,122.3,51.7,121.7,51.7z M98.4,59.5c0-2.6,0-5.2,0-9c-0.8,1.6-1.2,2.2-1.7,3.1c0,1.6,0,3.7,0,5.9
		C97.3,59.5,97.8,59.5,98.4,59.5z"/>
	<path class="st1" d="M71.6,38.6c0,0.3,0,0.7,0,1c0,0.6,0,1.2,0,2.6c1-0.8,1.5-1.2,2-1.6c0.3,0.3,0.7,0.7,1,1c0.1,1.5,1.2,0.8,2,1
		c0.3,0,0.7,0,1,0s0.7,0,1,0c0,0.3,0,0.7,0,1c-0.3,0-0.7,0-1,0s-0.7,0-1,0c-0.3,0.3-0.7,0.7-1,1c-0.6,0-1.2,0-2,0c0,1.2,0,2.1,0,3
		c0.1,1.5,1.2,0.8,2,1c0.7-0.7,1.3-1.3,2-2c1.9-0.5,0.6-2,1-3c0.3,0,0.7,0,1,0c0,1.3,0,2.6,0,4c1-0.5,1.6-0.9,2.5-1.4
		c0.2,0.8,0.4,1.4,0.6,2c-0.8,0.3-1.3,0.5-1.9,0.7c1.4,1.1,2.7,2.2,3.6,2.9c0.8,2.6-1.1,3.1-1.7,4.4c0.6,0.2,1.2,0.4,1.7,0.6
		c1,1.9-1,1.5-1.9,2.3c0.8,0.5,1.6,1,2.5,1.6c-0.7,1.4-1.2,2.5-1.7,3.7c-0.8,0.1-1.6,0.2-2.3,0.3c-0.1,0.2-0.3,0.4-0.2,0.4
		c0.5,0.8,2.7,0.1,1.7,2.2c-0.7,0-1.5,0-2.3,0c-1.1,1.6,0.6,4.4-2.4,5.2c-0.6-0.3-1.6-0.7-3.1-1.3c0.6,1.3,0.9,2,1.5,3.5
		c-1.4-0.4-2.2-0.7-3.2-1c-0.4,0.6-1,1.5-1.8,2.7c-0.6,0-1.6,0-3,0c-0.5-0.4-1.2-1.1-2.1-1.9c-0.3,0.8-0.5,1.3-0.8,2.2
		c-0.8-0.4-1.4-0.7-2.1-1c-0.8,1.2-2.2,0.8-3.4,0.8c0.3-0.7,0.7-1.3,1-2c1-0.8,2-1.7,2.8-2.3c-0.4-0.9-0.6-1.3-0.8-1.7
		c0.3-0.3,0.7-0.7,1-1c0.5,0.3,1,0.6,1.5,0.8c0.8-0.6,1.7-1.2,2.5-1.8c0.7,0,1.3,0,2,0s1.3,0,2,0c1.5-0.1,0.8-1.2,1-2
		c0-0.3,0-0.7,0-1c0.3-0.3,0.7-0.7,1-1c1-0.4,2.1-0.8,2.8-1c-0.3-1.3-0.5-2.1-0.8-3c0-0.3,0-0.7,0-1c1.8-0.5,2.1-1.8,2-3.3
		c-0.7-0.9-1.4-1.8-2-2.7c0.2-0.9,0.5-1.8,0.8-2.9c-1.2-0.4-2.5-0.7-3.8-1.1c0-0.7,0-1.3,0-2c0-0.3,0-0.7,0-1c-0.3-0.3-0.7-0.7-1-1
		c-0.7,0-1.3,0-2,0s-1.3,0-2,0c-1-0.7-2-1.3-3-2c-0.3,0-0.7,0-1,0c0-0.3,0-0.7,0-1c-1-1-2-2-3-3c0-0.7,0-1.3,0-2c1,0.7,2,1.3,3,2
		c1.5-0.1,0.8-1.2,1-2c0.3,0.4,0.6,0.9,1,1.2c0.3,0.3,0.7,0.5,1,0.8c0.3,0,0.7,0,1,0c0,0.3,0,0.7,0,1c-0.3,0.3-0.7,0.7-1,1
		c-0.3,0.1-0.6,0.2-0.8,0.3c0.3,0.2,0.6,0.4,0.8,0.7c0.4,1.6,1.4,2.2,3,2c0.3-0.3,0.7-0.7,1-1c0.3-0.1,0.6-0.2,0.8-0.3
		c-0.3-0.2-0.6-0.4-0.8-0.7c0-0.7,0-1.3,0-2C70.7,39.8,70.1,38.7,71.6,38.6z M80,55.7c0.7-1.3,2.7-1.7,2.6-4c-1.8,0-3.3,0-4.9,0
		C77.4,53.6,77.6,55,80,55.7z M76.6,61.9c1.3,0.5,2.1,0.8,3.1,1.2c-0.2,0.1,0.3-0.3,0.8-0.5c0.7-0.2,1.4-0.2,2.7-0.4
		c-1.3-1.5-2.2-2.6-2.6-3.1C79.4,59.9,78.4,60.6,76.6,61.9z M76.1,65.7c-0.8,0.4-1.6,0.8-2.5,1.3c0,0.7,0,1.5,0,2.6
		c0.6,0,1.3-0.1,1.8,0c0.6,0.2,1.2,0.5,1.9,0.9C77.6,68.7,78,67.1,76.1,65.7z M70.4,75.4c0-2.3,0-3.5,0-5.3
		c-1.5,0.6-2.8,1.1-4.3,1.6C67.6,73,68.6,73.9,70.4,75.4z"/>
	<path class="st2" d="M54.6,41.6c0-0.3,0-0.7,0-1c0.7,0,1.3,0,2,0c0.1,0.3,0.2,0.6,0.3,0.8c0.2-0.3,0.4-0.6,0.7-0.8c0-0.3,0-0.7,0-1
		c0.3-0.3,0.7-0.7,1-1c0.3,0.3,0.7,0.7,1,1c0,0.3,0,0.7,0,1c-0.3,0.3-0.7,0.7-1,1c0,0.7,0,1.3,0,2c0.1,1.5,1.2,0.8,2,1
		c0.3,0,0.7,0,1,0s0.7,0,1,0c0,0.3,0,0.7,0,1c-1,0-2,0-3,0c-0.6,0-1.2,0-2,0c0,1.2,0,2.1,0,3c-0.3,0.3-0.7,0.7-1,1
		c-2.8,0.4-3,0.7-3,4c0,0.3,0,0.7,0,1c-0.3,0.3-0.7,0.7-1,1c-0.3-0.3-0.7-0.7-1-1c0-0.9,0-1.9,0-3c-1,0-1.6,0-2.2,0
		c-0.6,0-1.2,0.2-1.8,0.2c0,0.8,0,1.3,0,1.8c-0.3,0.3-0.7,0.7-1,1c-2.1-0.8-0.5-2.4-1-3.8c0.9-0.6,1.8-1.1,2.8-1.7
		c-0.1-0.7-2.1-1.8,0.2-2.5c0.3,0.3,0.7,0.7,1,1c0.3-0.3,0.7-0.5,1-0.8c-0.3-0.4-0.7-0.8-1-1.2c-0.2-1.6,0.4-2.6,2-3
		c0.7,0,1.3,0,2,0c0.3,0,0.7,0,1,0c0.3-0.1,0.6-0.2,0.8-0.3C55.1,42,54.8,41.8,54.6,41.6z M54.6,44.6c-0.1-1.5-1.2-0.8-2-1
		c-0.3,0.4-1,0.9-0.9,1.2c0.4,1.4,1,2.7,1.5,4.1c1.1-0.6,1.7-0.9,2.4-1.3c1.4-1,1.4-2,0-3C55.2,44.6,54.9,44.6,54.6,44.6z"/>
	<path class="st2" d="M60.6,74.6c-0.3,0.7-0.7,1.3-1,2c-0.9-0.9-1.8-1.8-2.7-2.7c-0.5,0.2-1.2,0.5-2.1,1c-0.2-1.3-0.3-2.2-0.4-3
		c-1-0.1-2.1,2.2-2.8-0.2c0-0.3,0-0.7,0-1c0.6-0.1,1.2-0.2,1.8-0.3c0.7-0.2,1.5-0.4,2.2-0.7c0.3-0.3,0.7-0.5,1-0.8
		c-0.3-0.4-0.7-0.8-1-1.2c0-0.3,0-0.7,0-1c-0.1-1.5-1.2-0.8-2-1c-0.3,0.3-0.7,0.7-1,1c-0.3,0.3-0.7,0.7-1,1c0,1,0,2,0,3
		c-0.3,0-0.7,0-1,0c0-0.7,0-1.3,0-2c-0.2-0.8,0.5-1.9-1-2c-0.3-0.3-0.7-0.7-1-1c0.3-0.1,0.6-0.2,0.8-0.3c-0.3-0.2-0.6-0.4-0.8-0.7
		c-0.3,0-0.7,0-1,0c-0.3-0.3-0.7-0.7-1-1c0-0.3,0-0.7,0-1c0.7,0,1.3,0,2,0c0.1,1.5,1.2,0.8,2,1c1.5-0.1,0.8-1.2,1-2
		c0.3-0.3,0.7-0.7,1-1c0-0.3,0-0.7,0-1c0.3,0,0.7,0,1,0c0,0.3,0,0.7,0,1c0,0.7,0,1.3,0,2c-0.4,0.5-0.8,1-1.6,2c1.4,0,2,0,2.6,0
		c0.7,0,1.3,0,2,0c0,0.3,0,0.7,0,1c0.3,0.3,0.7,0.7,1,1c0,0.6,0,1.2,0,2c1.2,0,2.1,0,3,0c0.7,0,1.3,0,2,0c0.3,0.3,0.7,0.7,1,1
		c-0.3,0.3-0.7,0.7-1,1c-0.5-0.3-1-0.6-1.5-0.9c-0.8,0.5-1.7,1-2.9,1.6C59.1,72.5,59.8,73.6,60.6,74.6z"/>
	<path class="st1" d="M155.6,61.6c2.6,0,5.2,0,8,0c0,2.1,0,4.1,0,6c-2.6,0-5.2,0-8,0c0-1.8,0-3.4,0-5
		C155.6,62.2,155.6,61.9,155.6,61.6z"/>
	<path class="st3" d="M155.6,61.6c0,0.3,0,0.7,0,1c-0.3,0-0.7,0-1,0c-0.7,0-1.3,0-2,0s-1.3,0-2,0c-0.3,0-0.7,0-1,0c-1.3,0-2.7,0-4,0
		c-1.2,0-2.5,0-4,0c0,1.1,0,2.1,0,3c-0.3,0-0.7,0-1,0c0-0.3,0-0.7,0-1c0-0.6,0-1.2,0-2c-0.8,0-1.4,0-2,0c-1,0.4-2.5-0.9-3,1
		c-0.3,0-0.7,0-1,0c-0.4-0.3-0.8-0.9-1.2-1c-1.3-0.1-2.5,0-3.8,0c-0.3,0-0.7,0-1,0c-0.8,0.2-1.9-0.5-2,1c0.4,1-0.9,2.5,1,3
		c0,0.3,0,0.7,0,1c-0.7,0-1.3,0-2,0c0-0.3,0-0.7,0-1c0-0.9,0.1-1.9,0-2.8c-0.1-0.4-0.6-0.8-1-1.2c-0.9,0-1.9,0.1-2.8,0
		c-0.4-0.1-0.8-0.6-1.2-1C132.2,61.6,143.9,61.6,155.6,61.6z"/>
	<path class="st4" d="M120.6,61.6c0.4,0.3,0.7,0.9,1.2,1c0.9,0.1,1.9,0,2.8,0c0,0.3,0,0.7,0,1c-0.7,0.7-1.3,1.3-2,2c0,0.3,0,0.7,0,1
		s0,0.7,0,1c-2.7,0-5.3,0-8,0c0-1.7,0-3.3,0-5c1.3,0,2.5,0.1,3.8,0c0.4,0,0.8-0.6,1.2-1C119.9,61.6,120.2,61.6,120.6,61.6z"/>
	<path class="st5" d="M112.6,52.6c0.7-0.3,1.3-0.7,2-1c0,2.7,0,5.3,0,8c-0.7-0.3-1.3-0.7-2-1c0-0.9,0-1.9,0-3.1
		c-1.2,0.1-2.1,0.2-3.4,0.2c0.7,0.5,0.9,0.7,1.2,0.8c0.4,0.2,0.8,0.3,1.2,0.4c0,0.6,0,1.1,0,1.6c-1,0-2,0-3,0c-0.3,0-0.7,0-1,0
		c0-0.3,0-0.7,0-1c0-1.3,0-2.7,0-4c0-0.3,0-0.7,0-1c1.3,0,2.7,0,4,0c0.1,0.3,0.2,0.6,0.3,0.8C112.1,53.1,112.3,52.9,112.6,52.6z"/>
	<path class="st6" d="M152.6,57.6c-0.8,2.8-3.1,1.8-5,2c-0.3-0.3-0.7-0.7-1-1c-0.3-0.4-0.9-0.8-1-1.2c-0.1-1.3,0-2.5,0-3.8
		c1.2-1,2.5-2,3.9-3.2c1.4,1,3.2,1.8,3.1,4.2C152.6,55.6,152.6,56.6,152.6,57.6z M148.6,57.6c0.3,0.3,0.5,0.7,0.8,1
		c0.4-0.3,0.8-0.7,1.2-1c-0.1-1.3-0.1-2.7-0.2-4.2C147.1,55.3,147.1,55.3,148.6,57.6z"/>
	<path class="st7" d="M154.6,62.6c0.3,0,0.7,0,1,0c0,1.6,0,3.2,0,5c2.8,0,5.4,0,8,0c0,1.3-1,1-1.8,1c-5.1,0-10.2,0-15.2,0
		c-0.3-0.3-0.7-0.7-1-1c0-0.3,0-0.7,0-1c0.6,0,1.2,0,2,0c0-0.8,0-1.4,0-2c-0.3-0.3-0.7-0.7-1-1c-0.3,0-0.7,0-1,0c0-0.3,0-0.7,0-1
		c1.3,0,2.7,0,4,0c0,0.3,0,0.7,0,1c-1.8,0.7-0.9,1.9-0.6,3c0.6,0,1.1,0,1.6,0c0.3,0.3,0.5,0.7,0.8,1c0.4-0.3,0.8-0.7,1.2-1
		c0.7-0.1,1.4-0.2,2.4-0.3c-0.6-1.1-1-1.9-1.4-2.7C153.9,63.2,154.2,62.9,154.6,62.6z"/>
	<path class="st8" d="M114.6,67.6c2.7,0,5.3,0,8,0c0.3-0.3,0.7-0.7,1-1c0.3,0,0.7,0,1,0c0.3,0.3,0.7,0.7,1,1c0.7,0,1.3,0,2,0
		c0.3,0,0.7,0,1,0c1.7,0,3.3,0,5,0c0.3-0.3,0.7-0.7,1-1c0.7,0,1.3,0,2,0c0.3,0.3,0.5,0.7,0.8,1c0.4-0.3,0.8-0.7,1.2-1
		c0.3,0,0.7,0,1,0c0.3,0.3,0.5,0.7,0.8,1c0.4-0.3,0.8-0.7,1.2-1c0.3,0,0.7,0,1,0s0.7,0,1,0c0,0.7,0,1.3,0,2c-8.9,0-17.8,0-26.7,0
		C116,68.5,114.7,69.2,114.6,67.6z"/>
	<path class="st9" d="M114.6,59.6c0-2.7,0-5.3,0-8c1.5,0,3,0,4.6,0c0.4,0.4,0.8,0.9,1.4,1.6c0,1.2,0,2.7,0,4.3c-1.2,0-2.3,0-3.4,0
		c-0.4,0.8-0.7,1.5-1,2.2C115.5,59.6,115,59.6,114.6,59.6z M116.8,53.6c0,0.7,0,1.3,0,2.1c0.7-0.1,1.2-0.2,1.8-0.4
		c-0.1-0.7-0.3-1.2-0.4-1.8C117.7,53.6,117.4,53.6,116.8,53.6z"/>
	<path class="st10" d="M46.6,59.6c-0.4-0.7-0.7-1.3-1-1.8c0.4-1.2,0.7-2.2,1-3.2c0.3-0.3,0.7-0.7,1-1c0.9,0.6,1.7,1.3,2.5,1.8
		c0.4-0.2,1-0.5,1.5-0.8c0.3,0.3,0.7,0.7,1,1c-0.3,0.5-0.6,1-0.9,1.5c0.3,0.5,0.6,1,0.9,1.5c-0.3,0.3-0.7,0.7-1,1
		c-0.5-0.3-1-0.6-1.5-0.8c-0.8,0.6-1.7,1.2-2.5,1.8C47.2,60.2,46.9,59.9,46.6,59.6z"/>
	<path class="st11" d="M139.6,52.6c0.3-0.3,0.5-0.9,0.8-1c1.6-0.1,3.3,0,5.2,0c0,0.8,0,1.4,0,2c-0.5,0-1,0-1.8,0
		c-0.1,1.9-0.2,3.8-0.3,5.8c-0.5,0.1-0.9,0.2-1.7,0.3c-0.1-2-0.2-3.9-0.3-6.1c-0.7,0-1.3,0-1.9,0C139.6,53.2,139.6,52.9,139.6,52.6z
		"/>
	<path class="st11" d="M160.6,54.6c0.1,0.3,0.2,0.6,0.6,1.5c0.3-1.8,0.4-3.1,0.6-4.4c0.6,0,1,0,1.8,0c-0.2,2.7,0.6,5.4-1.8,7.8
		c-0.4,0-1.2,0-2.3,0c0-0.7,0-1.3,0-1.9c0-0.7,0-1.3,0-2C159.9,55.2,160.2,54.9,160.6,54.6z"/>
	<path class="st11" d="M131.6,56.6c0,0.7,0,1.3,0,2c0,0.3,0,0.7,0,1c-0.3,0-0.7,0-1,0c-0.3-0.3-0.7-0.7-1-1c-0.3-0.3-0.5-0.7-0.8-1
		c-0.4,0.3-0.8,0.7-1.2,1c-0.3,0.3-0.7,0.7-1,1c-0.3,0-0.7,0-1,0c0-0.3,0-0.7,0-1c0-0.7,0-1.3,0-2c1.5-0.1,0.8-1.2,1-2
		c0-0.7,0-1.3,0-2c1.3,0,2.7,0,4,0c0,0.7,0,1.3,0,2C130.7,55.3,130.1,56.5,131.6,56.6z M127.6,55.6c0.3,0.3,0.5,0.7,0.8,1
		c0.4-0.3,0.8-0.7,1.2-1c0-0.3,0-0.7,0-1c-0.3-0.3-0.5-0.7-0.8-1c-0.4,0.3-0.8,0.7-1.2,1C127.6,54.9,127.6,55.2,127.6,55.6z"/>
	<path class="st3" d="M133.6,57.6c0.3,0,0.7,0,1,0c0.6,1.9,1.8,0.8,3.4,0.7c-0.6-0.8-1-1.2-1.4-1.7c-0.7,0-1.3,0-2,0
		c-0.3-0.3-0.7-0.7-1-1c0-1,0-2,0-3c1.3,0,2.7,0,4,0c0.3,0,0.7,0,1,0c-0.1,1.5-1.2,0.8-2,1c-0.3,0-0.7,0-1,0
		c-0.3,0.1-0.6,0.2-0.8,0.3c0.3,0.2,0.6,0.4,0.8,0.7c0.3,0.3,0.7,0.7,1,1c0.7,0,1.3,0,2,0c0,1,0,2,0,3c-1.6,1.4-3.4,1.4-5,0
		C133.6,58.2,133.6,57.9,133.6,57.6z"/>
	<path class="st10" d="M153.6,54.6c0-0.9,0-1.9,0-2.9c0.8,0,1.2,0,2,0c0,0.7,0,1.3,0,1.9c0.4,1-0.9,2.5,1,3c0.3,0,0.7,0,1,0
		c0,0.7,0,1.3,0,2c-0.4,1.9-1.7,0.8-3,0.8c0-0.6,0-1.2,0-1.8C154.2,56.6,155.5,55,153.6,54.6z"/>
	<path class="st4" d="M121.7,51.7c0.6,0,1,0,1.7,0c0,2.6,0,5.2,0,7.8c-0.6,0-1,0-1.7,0C121.7,56.9,121.7,54.3,121.7,51.7z"/>
	<path class="st12" d="M98.4,59.5c-0.6,0-1.1,0-1.7,0c0-2.2,0-4.3,0-5.9c0.5-0.9,0.8-1.6,1.7-3.1C98.4,54.3,98.4,56.9,98.4,59.5z"/>
	<path class="st13" d="M157.6,56.6c-0.3,0-0.7,0-1,0c0.3-1,0.7-2,1-3c0-0.6,0-1.2,0-2.1c2.3,0.1,3.1,1.2,3,3.1c-0.3,0.3-0.7,0.7-1,1
		C158.9,55.9,158.2,56.2,157.6,56.6z"/>
	<path class="st14" d="M106.6,58.6c-0.3,0-0.7,0-1,0c-1.3,0-2.7,0-4,0c-0.3,0-0.7,0-1,0c0.2-0.8-0.5-1.9,1-2c1.3,0,2.7,0,4,0
		c0.3,0.3,0.7,0.7,1,1C106.6,57.9,106.6,58.2,106.6,58.6z"/>
	<path class="st15" d="M101.6,56.6c-1.5,0.1-0.8,1.2-1,2c0,0.3,0,0.7,0,1c-0.3-0.3-0.9-0.5-1-0.8c-0.1-2.1-0.1-4.3,0-6.4
		c0-0.3,0.6-0.5,1-0.8c0,0.3,0,0.7,0,1c0.2,0.8-0.5,1.9,1,2c0,0.3,0,0.7,0,1S101.6,56.2,101.6,56.6z"/>
	<path class="st16" d="M95.6,54.6c0,0.3,0,0.7,0,1c-0.3,0.3-0.7,0.7-1,1c-1.3,0-2.7,0-4,0c0-0.7,0-1.3,0-2c0.3,0,0.7,0,1,0
		c1,0,2,0,3,0C94.9,54.6,95.2,54.6,95.6,54.6z"/>
	<path class="st17" d="M90.6,54.6c0,0.7,0,1.3,0,2s0,1.3,0,2c0,0.3,0,0.7,0,1c-0.3-0.4-0.9-0.8-1-1.2c-0.1-1.9,0-3.9,0-5.8
		c0.3,0,0.7,0,1,0C90.6,53.2,90.6,53.9,90.6,54.6z"/>
	<path class="st18" d="M136.6,53.6c0.8-0.2,1.9,0.5,2-1c0.3,0,0.7,0,1,0c0,0.3,0,0.7,0,1c-0.3,0.7-0.7,1.3-1,2c-0.7,0-1.3,0-2,0
		c0-0.3,0-0.7,0-1S136.6,53.9,136.6,53.6z"/>
	<path class="st4" d="M143.6,68.6c0-0.7,0-1.3,0-2c0.3-0.1,0.6-0.2,0.8-0.3c-0.3-0.2-0.6-0.4-0.8-0.7c0-0.3,0-0.7,0-1
		c0.3,0,0.7,0,1,0s0.7,0,1,0c0,0.3,0,0.7,0,1s0,0.7,0,1s0,0.7,0,1c-0.3,0.3-0.7,0.7-1,1C144.2,68.6,143.9,68.6,143.6,68.6z"/>
	<path class="st19" d="M111.6,58.6c0-0.5,0-1,0-1.6c-0.4-0.1-0.8-0.2-1.2-0.4c-0.3-0.1-0.5-0.3-1.2-0.8c1.3-0.1,2.2-0.2,3.4-0.2
		c0,1.2,0,2.1,0,3.1c-0.3,0.3-0.7,0.7-1,1C111.6,59.2,111.6,58.9,111.6,58.6z"/>
	<path class="st20" d="M101.6,54.6c-1.5-0.1-0.8-1.2-1-2c1.7,0,3.3,0,5,0c0,0.3,0,0.7,0,1c-0.9,0-1.9-0.1-2.8,0
		C102.3,53.7,101.9,54.2,101.6,54.6z"/>
	<path class="st21" d="M153.6,54.6c1.9,0.5,0.6,2,1,3c-0.7,0-1.3,0-2,0c0-1,0-2,0-3C152.9,54.6,153.2,54.6,153.6,54.6z"/>
	<path class="st22" d="M111.6,52.6c-1.3,0-2.7,0-4,0c1.6-1.4,3.4-1.4,5,0C112.2,52.6,111.9,52.6,111.6,52.6z"/>
	<path class="st23" d="M105.6,52.6c-1.7,0-3.3,0-5,0c0-0.3,0-0.7,0-1c1.3,0,2.5-0.1,3.8,0C104.8,51.7,105.2,52.2,105.6,52.6z"/>
	<path class="st24" d="M90.6,52.6c-0.3,0-0.7,0-1,0c1.6-1.4,3.4-1.4,5,0C93.2,52.6,91.9,52.6,90.6,52.6z"/>
	<path class="st25" d="M157.6,53.6c-0.3,1-0.7,2-1,3c-1.9-0.5-0.6-2-1-3C156.2,53.6,156.9,53.6,157.6,53.6z"/>
	<path class="st7" d="M119.6,61.6c-0.4,0.3-0.8,0.9-1.2,1c-1.3,0.1-2.5,0-3.8,0c0.4-0.3,0.8-0.9,1.2-1
		C117,61.5,118.3,61.6,119.6,61.6z"/>
	<path class="st26" d="M106.6,57.6c-0.3-0.3-0.7-0.7-1-1s-0.7-0.7-1-1c0-0.3,0-0.7,0-1c0.3-0.3,0.7-0.7,1-1c0.3,0,0.7,0,1,0
		C106.6,54.9,106.6,56.2,106.6,57.6z"/>
	<path class="st2" d="M71.6,38.6c-1.5,0.1-0.8,1.2-1,2c-0.7-0.3-1.3-0.7-2-1c0-0.3,0-0.7,0-1c0.3-0.3,0.7-0.7,1-1
		C70.3,37.7,71.5,37.1,71.6,38.6z"/>
	<path class="st6" d="M46.6,62.6c0,0.3,0,0.7,0,1c-1.4-1.3-1.4-2.7,0-4c0.3,0.3,0.7,0.7,1,1C47.2,61.2,46.9,61.9,46.6,62.6z"/>
	<path class="st25" d="M157.6,56.6c0.7-0.3,1.3-0.7,2-1c0,0.7,0,1.3,0,2c-0.7,0.3-1.3,0.7-2,1C157.6,57.9,157.6,57.2,157.6,56.6z"/>
	<path class="st13" d="M136.6,56.6c0.4,0.5,0.8,0.9,1.4,1.7c-1.6,0.1-2.8,1.2-3.4-0.7C135.3,57.4,136.5,58.1,136.6,56.6z"/>
	<path class="st27" d="M137.6,52.6c-1.3,0-2.7,0-4,0C134.8,51.2,136.3,51.2,137.6,52.6z"/>
	<path class="st17" d="M130.6,52.6c-1.3,0-2.7,0-4,0C127.8,51.2,129.3,51.2,130.6,52.6z"/>
	<path class="st9" d="M101.6,58.6c1.3,0,2.7,0,4,0c-0.4,0.3-0.7,0.9-1.2,1c-0.9,0.1-1.9,0-2.8,0C101.6,59.2,101.6,58.9,101.6,58.6z"
		/>
	<path class="st6" d="M59.6,39.6c-0.3-0.3-0.7-0.7-1-1c0.1-1.5,1.2-0.8,2-1c0,0.7,0,1.3,0,2C60.2,39.6,59.9,39.6,59.6,39.6z"/>
	<path class="st10" d="M48.6,65.6c0.3,0.3,0.7,0.7,1,1c0,0.3,0,0.7,0,1c-0.6,0-1.2,0-2.6,0C47.8,66.5,48.2,66.1,48.6,65.6z"/>
	<path class="st28" d="M138.6,58.6c0-1,0-2,0-3C139.9,56.6,139.9,57.6,138.6,58.6z"/>
	<path class="st29" d="M90.6,59.6c0-0.3,0-0.7,0-1c1,0,2,0,3,0c0,0.3,0,0.7,0,1C92.6,59.6,91.6,59.6,90.6,59.6z"/>
	<path class="st30" d="M111.6,58.6c0,0.3,0,0.7,0,1c-1,0-2,0-3,0c0-0.3,0-0.7,0-1C109.6,58.6,110.6,58.6,111.6,58.6z"/>
	<path class="st2" d="M73.6,40.6c-0.5,0.4-1,0.8-2,1.6c0-1.4,0-2,0-2.6C72.2,39.9,72.9,40.2,73.6,40.6z"/>
	<path class="st2" d="M74.6,41.6c-0.3-0.3-0.7-0.7-1-1c0.3-1.4,1.2-1.3,1.9-0.5C75.8,40.6,75.7,41.5,74.6,41.6z"/>
	<path class="st27" d="M133.6,52.6c0,1,0,2,0,3C132.2,54.6,132.2,53.6,133.6,52.6z"/>
	<path class="st27" d="M93.6,59.6c0-0.3,0-0.7,0-1c0.3,0,0.7,0,1,0s0.7,0,1,0C95.5,60.1,94.3,59.4,93.6,59.6z"/>
	<path class="st31" d="M49.6,67.6c0-0.3,0-0.7,0-1c1.5,0.1,0.8,1.2,1,2c-0.3,0-0.7,0-1,0C49.6,68.2,49.6,67.9,49.6,67.6z"/>
	<path class="st32" d="M49.6,45.6c0.3,0.4,0.7,0.8,1,1.2c-0.3,0.3-0.7,0.5-1,0.8c0-0.3,0-0.7,0-1S49.6,45.9,49.6,45.6z"/>
	<path class="st6" d="M53.6,42.6c-0.7,0-1.3,0-2,0c0.4-0.3,0.8-0.7,1.2-1C53,41.9,53.3,42.2,53.6,42.6z"/>
	<path class="st2" d="M64.6,37.6c-0.2,0.8,0.5,1.9-1,2C63.7,38.8,63.1,37.7,64.6,37.6z"/>
	<path class="st33" d="M69.6,37.6c-0.3,0.3-0.7,0.7-1,1c-0.3,0-0.7,0-1,0C67.6,37.1,68.8,37.7,69.6,37.6z"/>
	<path class="st7" d="M126.6,54.6c-0.2,0.8,0.5,1.9-1,2C125.7,55.8,125.1,54.7,126.6,54.6z"/>
	<path class="st7" d="M131.6,56.6c-1.5-0.1-0.8-1.2-1-2C132,54.7,131.4,55.8,131.6,56.6z"/>
	<path class="st10" d="M49.6,68.6c0.3,0,0.7,0,1,0c0,0.7,0,1.3,0,2C49.1,70.5,49.7,69.3,49.6,68.6z"/>
	<path class="st28" d="M94.6,56.6c0.3-0.3,0.7-0.7,1-1c0,0.7,0,1.3,0,2c-0.3,0-0.7,0-1,0C94.6,57.2,94.6,56.9,94.6,56.6z"/>
	<path class="st29" d="M144.6,68.6c0.3-0.3,0.7-0.7,1-1c0.3,0.3,0.7,0.7,1,1C145.9,68.6,145.2,68.6,144.6,68.6z"/>
	<path class="st7" d="M127.6,58.6c0.4-0.3,0.8-0.7,1.2-1c0.3,0.3,0.5,0.7,0.8,1C128.9,58.6,128.2,58.6,127.6,58.6z"/>
	<path class="st3" d="M106.6,58.6c0-0.3,0-0.7,0-1c0.3,0,0.7,0,1,0c0,0.3,0,0.7,0,1s0,0.7,0,1C107.2,59.2,106.9,58.9,106.6,58.6z"/>
	<path class="st6" d="M56.6,40.6c-0.7,0-1.3,0-2,0c0.4-0.3,0.8-0.7,1.2-1C56,39.9,56.3,40.2,56.6,40.6z"/>
	<path class="st2" d="M77.6,42.6c-0.3,0-0.7,0-1,0c0.2-0.3,0.4-0.6,0.7-0.8C77.3,42,77.4,42.3,77.6,42.6z"/>
	<path class="st10" d="M50.6,70.6c0.3,0,0.7,0,1,0c0,0.3,0,0.7,0,1C51.2,71.2,50.9,70.9,50.6,70.6z"/>
	<path class="st10" d="M48.6,64.6c0.3,0.2,0.6,0.4,0.8,0.7c-0.3,0.1-0.6,0.2-0.8,0.3C48.6,65.2,48.6,64.9,48.6,64.6z"/>
	<path class="st6" d="M54.6,41.6c0.3,0.2,0.6,0.4,0.8,0.7c-0.3,0.1-0.6,0.2-0.8,0.3C54.6,42.2,54.6,41.9,54.6,41.6z"/>
	<path class="st6" d="M57.6,40.6c-0.2,0.3-0.4,0.6-0.7,0.8c-0.1-0.3-0.2-0.6-0.3-0.8C56.9,40.6,57.2,40.6,57.6,40.6z"/>
	<path class="st2" d="M67.6,39.6c-0.3,0-0.7,0-1,0c0.3-0.3,0.7-0.7,1-1C67.6,38.9,67.6,39.2,67.6,39.6z"/>
	<path class="st6" d="M58.6,38.6c-0.3,0.3-0.7,0.7-1,1C57.9,39.2,58.2,38.9,58.6,38.6z"/>
	<path class="st7" d="M129.6,58.6c0.3,0.3,0.7,0.7,1,1C130.2,59.2,129.9,58.9,129.6,58.6z"/>
	<path class="st7" d="M126.6,59.6c0.3-0.3,0.7-0.7,1-1C127.2,58.9,126.9,59.2,126.6,59.6z"/>
	<path class="st7" d="M125.6,58.6c0,0.3,0,0.7,0,1c-0.3-0.2-0.6-0.4-0.8-0.7C125,58.8,125.3,58.7,125.6,58.6z"/>
	<path class="st3" d="M107.6,59.6c0-0.3,0-0.7,0-1c0.3,0,0.7,0,1,0c0,0.3,0,0.7,0,1C108.2,59.6,107.9,59.6,107.6,59.6z"/>
	<path class="st13" d="M101.6,58.6c0,0.3,0,0.7,0,1c-0.3,0-0.7,0-1,0c0-0.3,0-0.7,0-1C100.9,58.6,101.2,58.6,101.6,58.6z"/>
	<path class="st13" d="M94.6,52.6c0.3,0.3,0.7,0.7,1,1c-0.3,0-0.7,0-1,0C94.6,53.2,94.6,52.9,94.6,52.6z"/>
	<path class="st13" d="M133.6,57.6c0,0.3,0,0.7,0,1c-0.3,0-0.7,0-1,0C132.9,58.2,133.2,57.9,133.6,57.6z"/>
	<path class="st11" d="M94.6,57.6c0.3,0,0.7,0,1,0c0,0.3,0,0.7,0,1c-0.3,0-0.7,0-1,0C94.6,58.2,94.6,57.9,94.6,57.6z"/>
	<path class="st34" d="M107.6,52.6c0,0.3,0,0.7,0,1c-0.3,0-0.7,0-1,0C106.9,53.2,107.2,52.9,107.6,52.6z"/>
	<path class="st35" d="M133.6,55.6c0.3,0.3,0.7,0.7,1,1C134.2,56.2,133.9,55.9,133.6,55.6z"/>
	<path class="st10" d="M94.6,53.6c0.3,0,0.7,0,1,0c0,0.3,0,0.7,0,1c-0.3,0-0.7,0-1,0C94.6,54.2,94.6,53.9,94.6,53.6z"/>
	<path class="st2" d="M79.6,43.6c-0.3,0-0.7,0-1,0c0-0.3,0-0.7,0-1C78.9,42.9,79.2,43.2,79.6,43.6z"/>
	<path class="st6" d="M46.6,63.6c0.3,0.3,0.7,0.7,1,1C47.2,64.2,46.9,63.9,46.6,63.6z"/>
	<path class="st7" d="M49.6,46.6c0,0.3,0,0.7,0,1c-0.3-0.3-0.7-0.7-1-1C48.9,46.6,49.2,46.6,49.6,46.6z"/>
	<path class="st34" d="M146.6,58.6c0.3,0.3,0.7,0.7,1,1C147.2,59.2,146.9,58.9,146.6,58.6z"/>
	<path class="st7" d="M131.6,59.6c0-0.3,0-0.7,0-1c0.3,0,0.7,0,1,0C132.2,58.9,131.9,59.2,131.6,59.6z"/>
	<path class="st34" d="M59.6,45.6c1,0,2,0,3,0c0.2,0.8-0.5,1.9,1,2c0.3,0.3,0.5,0.7,0.8,1c0.4-0.3,0.8-0.7,1.2-1c0.3,0,0.7,0,1,0
		s0.7,0,1,0c0.3,0.3,0.7,0.7,1,1s0.7,0.7,1,1c1,0,2,0,3,0c0,1,0,2,0,3c0.3,0.3,0.7,0.7,1,1c0.3,0,0.7,0,1,0c0,0.7,0,1.3,0,2
		c-0.3,0.3-0.7,0.7-1,1c0,0.3,0,0.7,0,1c0.3,0.3,0.7,0.7,1,1c0.3,0.3,0.7,0.7,1,1c0,0.3,0,0.7,0,1c-0.7,0-1.3,0-2,0
		c-0.3,0.3-0.7,0.7-1,1c0,1,0,2,0,3c-1,0-2,0-3,0c-0.3,0.3-0.7,0.7-1,1c0,0.3,0,0.7,0,1c-0.7,0-1.3,0-2,0c-0.3,0-0.7,0-1,0
		c-0.3-0.3-0.7-0.7-1-1c-0.3-0.3-0.7-0.7-1-1c0.7,0,1.3,0,2,0c0.3,0,0.7,0,1,0c0.1,0.3,0.2,0.6,0.3,0.8c0.2-0.3,0.4-0.6,0.7-0.8
		c0-0.3,0-0.7,0-1c1-0.4,2.5,0.9,3-1c0-0.7,0-1.3,0-2c0.3-0.3,0.7-0.7,1-1c0.3-0.3,0.7-0.7,1-1c-0.3-0.3-0.7-0.7-1-1
		c0-0.3,0-0.7,0-1c0.3-0.3,0.7-0.7,1-1c-0.3-0.3-0.7-0.7-1-1c-0.3-0.3-0.7-0.7-1-1c0-0.7,0-1.3,0-2c-0.5-1.9-2-0.6-3-1
		c-0.1-1.5-1.2-0.8-2-1c-0.7,0-1.3,0-2,0c-0.6,0.5-1.2,1-1.9,1.3c-0.7,0.3-1.4,0.5-2.1,0.7c-1.5,0.1-0.8,1.2-1,2
		c-0.3-0.3-0.7-0.7-1-1c0-1,0-2,0-3c1.9,0,3.9,0.2,4-2.3C60.8,46.6,60.2,46.1,59.6,45.6z"/>
	<path class="st36" d="M80,55.7c-2.4-0.7-2.6-2.1-2.4-4c1.6,0,3.2,0,4.9,0C82.6,54,80.6,54.4,80,55.7z"/>
	<path class="st26" d="M76.6,61.9c1.8-1.2,2.9-2,4-2.8c0.4,0.5,1.3,1.5,2.6,3.1c-1.3,0.2-2.1,0.2-2.7,0.4c-0.5,0.2-1,0.6-0.8,0.5
		C78.7,62.7,77.9,62.4,76.6,61.9z"/>
	<path class="st26" d="M60.6,74.6c-0.7-1-1.5-2-2.4-3.2c1.2-0.6,2.1-1.1,2.9-1.6c0.4,0.3,1,0.6,1.5,0.9c0.2,0.4,0.4,0.8,0.8,1.7
		C62.6,72.9,61.6,73.7,60.6,74.6z"/>
	<path class="st37" d="M59.6,39.6c0.3,0,0.7,0,1,0c1,1,2,2,3,3c-0.3,0.3-0.7,0.7-1,1c-0.3,0.3-0.7,0.7-1,1c-0.3,0-0.7,0-1,0
		c-0.1-1.5-1.2-0.8-2-1c0-0.7,0-1.3,0-2c0.3-0.3,0.7-0.7,1-1C59.6,40.2,59.6,39.9,59.6,39.6z"/>
	<path class="st38" d="M73.6,57.6c0-0.3,0-0.7,0-1c0.3-0.3,0.7-0.7,1-1c0-0.7,0-1.3,0-2c0.3,0,0.7,0,1,0c0.7,0.9,1.3,1.8,2,2.7
		c0.1,1.5-0.3,2.8-2,3.3c-0.3-0.3-0.7-0.7-1-1C74.2,58.2,73.9,57.9,73.6,57.6z"/>
	<path class="st39" d="M68.6,39.6c0.7,0.3,1.3,0.7,2,1c0,0.7,0,1.3,0,2c0,0.3,0,0.7,0,1c-0.3,0.3-0.7,0.7-1,1c-1.6,0.2-2.6-0.4-3-2
		c0-0.3,0-0.7,0-1c0.3-0.3,0.7-0.7,1-1C67.9,40.2,68.2,39.9,68.6,39.6z"/>
	<path class="st40" d="M77.6,46.6c-0.7,0.7-1.3,1.3-2,2c-0.1-1.5-1.2-0.8-2-1c0-0.9,0-1.8,0-3c0.8,0,1.4,0,2,0c0.3-0.3,0.7-0.7,1-1
		c0.3,0,0.7,0,1,0C77.6,44.6,77.6,45.6,77.6,46.6z"/>
	<path class="st40" d="M76.1,65.7c1.9,1.4,1.4,3,1.3,4.7c-0.7-0.3-1.3-0.7-1.9-0.9c-0.6-0.1-1.2,0-1.8,0c0-1.1,0-1.9,0-2.6
		C74.5,66.5,75.3,66.1,76.1,65.7z"/>
	<path class="st36" d="M66.6,47.6c-0.3,0-0.7,0-1,0c-0.7,0-1.3,0-2,0c-1.5-0.1-0.8-1.2-1-2c0.3-0.3,0.7-0.7,1-1c0.3-0.3,0.7-0.7,1-1
		c1,0.7,2,1.3,3,2c0,0.3,0,0.7,0,1C67.2,46.9,66.9,47.2,66.6,47.6z"/>
	<path class="st41" d="M72.6,49.6c-1,0-2,0-3,0c-0.3-0.3-0.7-0.7-1-1s-0.7-0.7-1-1c0-0.3,0-0.7,0-1c0.8-0.2,1.9,0.5,2-1
		c0.7,0,1.3,0,2,0c0,0.3,0,0.7,0,1c0.3,0.3,0.7,0.7,1,1C72.6,48.2,72.6,48.9,72.6,49.6z"/>
	<path class="st42" d="M72.6,64.6c0-1,0-2,0-3c0.3-0.3,0.7-0.7,1-1c0.7,0,1.3,0,2,0c0.2,0.8,0.4,1.7,0.8,3c-0.7,0.3-1.7,0.7-2.8,1
		C73.2,64.6,72.9,64.6,72.6,64.6z"/>
	<path class="st43" d="M69.6,64.6c1,0,2,0,3,0c0,0.3,0,0.7,0,1s0,0.7,0,1c-1.5,0.1-0.8,1.2-1,2c-0.7,0-1.3,0-2,0
		c-0.3-0.7-0.7-1.3-1-2c0-0.3,0-0.7,0-1C68.9,65.2,69.2,64.9,69.6,64.6z"/>
	<path class="st41" d="M65.6,66.6c0.3,0,0.7,0,1,0c0.3,0.7,0.7,1.3,1,2c-0.9,0.6-1.7,1.3-2.5,1.8c-0.4-0.2-1-0.5-1.5-0.8
		c-0.3-0.3-0.7-0.7-1-1c0-0.3,0-0.7,0-1c0.3-0.3,0.7-0.7,1-1c0.3,0,0.7,0,1,0S65.2,66.6,65.6,66.6z"/>
	<path class="st14" d="M70.4,75.4c-1.8-1.5-2.8-2.4-4.3-3.6c1.5-0.6,2.7-1,4.3-1.6C70.4,72,70.4,73.2,70.4,75.4z"/>
	<path class="st5" d="M75.6,53.6c-0.3,0-0.7,0-1,0s-0.7,0-1,0c-0.3-0.3-0.7-0.7-1-1c0-1,0-2,0-3c1.3,0.4,2.5,0.7,3.8,1.1
		C76,51.7,75.8,52.7,75.6,53.6z"/>
	<path class="st13" d="M67.6,68.6c-0.3-0.7-0.7-1.3-1-2c0.7,0,1.3,0,2,0c0.3,0.7,0.7,1.3,1,2C68.9,68.6,68.2,68.6,67.6,68.6z"/>
	<path class="st2" d="M77.6,46.6c0-1,0-2,0-3c0.3,0,0.7,0,1,0C78.2,44.6,79.5,46.1,77.6,46.6z"/>
	<path class="st2" d="M73.6,47.6c0.8,0.2,1.9-0.5,2,1C74.8,48.4,73.6,49.1,73.6,47.6z"/>
	<path class="st2" d="M69.6,45.6c-0.1,1.5-1.2,0.8-2,1c0-0.3,0-0.7,0-1C68.2,45.6,68.9,45.6,69.6,45.6z"/>
	<path class="st13" d="M71.6,68.6c0.2-0.8-0.5-1.9,1-2C72.4,67.3,73,68.5,71.6,68.6z"/>
	<path class="st2" d="M62.6,43.6c0.3-0.3,0.7-0.7,1-1c0,0.3,0,0.7,0,1C63.2,43.6,62.9,43.6,62.6,43.6z"/>
	<path class="st2" d="M66.6,41.6c0,0.3,0,0.7,0,1c-0.3-0.2-0.6-0.4-0.8-0.7C66,41.8,66.3,41.7,66.6,41.6z"/>
	<path class="st4" d="M62.6,70.6c0.3-0.3,0.7-0.7,1-1C63.2,69.9,62.9,70.2,62.6,70.6z"/>
	<path class="st2" d="M67.6,40.6c-0.3,0.3-0.7,0.7-1,1C66.9,41.2,67.2,40.9,67.6,40.6z"/>
	<path class="st2" d="M68.6,39.6c-0.3,0.3-0.7,0.7-1,1c0-0.3,0-0.7,0-1C67.9,39.6,68.2,39.6,68.6,39.6z"/>
	<path class="st13" d="M72.6,65.6c0-0.3,0-0.7,0-1c0.3,0,0.7,0,1,0C73.2,64.9,72.9,65.2,72.6,65.6z"/>
	<path class="st2" d="M70.6,43.6c0-0.3,0-0.7,0-1c0.3,0.2,0.6,0.4,0.8,0.7C71.1,43.4,70.8,43.5,70.6,43.6z"/>
	<path class="st2" d="M64.6,43.6c-0.3,0.3-0.7,0.7-1,1c0-0.3,0-0.7,0-1C63.9,43.6,64.2,43.6,64.6,43.6z"/>
	<path class="st2" d="M69.6,44.6c0.3-0.3,0.7-0.7,1-1C70.2,43.9,69.9,44.2,69.6,44.6z"/>
	<path class="st2" d="M76.6,43.6c-0.3,0.3-0.7,0.7-1,1C75.9,44.2,76.2,43.9,76.6,43.6z"/>
	<path class="st2" d="M71.6,46.6c0-0.3,0-0.7,0-1c0.3,0.3,0.7,0.7,1,1C72.2,46.6,71.9,46.6,71.6,46.6z"/>
	<path class="st11" d="M71.6,46.6c0.3,0,0.7,0,1,0c0,0.3,0,0.7,0,1C72.2,47.2,71.9,46.9,71.6,46.6z"/>
	<path class="st11" d="M64.6,66.6c-0.3,0-0.7,0-1,0c-0.3,0.3-0.7,0.7-1,1c-0.3,0-0.7,0-1,0c0-0.3,0-0.7,0-1c-0.3-0.3-0.7-0.7-1-1
		c-0.5-1.9-2-0.6-3-1c-0.4-1,0.9-2.5-1-3c-0.3-0.3-0.7-0.7-1-1c0-0.7,0-1.3,0-2c0.1-1.7,0.2-3.4-2-4c0-0.3,0-0.7,0-1
		c1-0.4,2.5,0.9,3-1c0.3,0,0.7,0,1,0c0.3,0.3,0.7,0.7,1,1c-0.4,0.8-0.8,1.6-1.2,2.4c0.5,0.5,0.9,0.8,1.2,1.1c-0.4,0.5-0.8,1-1.1,1.4
		c0.5,0.8,0.8,1.5,1.2,2.1c0.2,0.8-0.5,1.9,1,2c0.1,1.5,1.2,0.8,2,1c0.3,0.3,0.7,0.7,1,1c0.3,0,0.7,0,1,0c0.3,0.3,0.7,0.7,1,1
		C64.6,65.9,64.6,66.2,64.6,66.6z"/>
	<path class="st39" d="M55.6,47.6c-0.7,0.4-1.3,0.7-2.4,1.3c-0.6-1.4-1.2-2.7-1.5-4.1c-0.1-0.3,0.6-0.8,0.9-1.2c0.1,1.5,1.2,0.8,2,1
		c0.3,0,0.7,0,1,0C55.6,45.6,55.6,46.6,55.6,47.6z"/>
	<path class="st40" d="M59.6,45.6c0.6,0.5,1.2,1,2,1.7c-0.1,2.6-2.1,2.4-4,2.3c0-0.3,0-0.7,0-1c0-0.9,0-1.8,0-3
		C58.4,45.6,59,45.6,59.6,45.6z"/>
	<path class="st5" d="M51.6,54.6c-0.5,0.3-1,0.6-1.5,0.8c-0.8-0.6-1.7-1.2-2.5-1.8c0-0.5,0-1,0-1.8c0.6-0.1,1.2-0.2,1.8-0.2
		c0.6,0,1.3,0,2.2,0C51.6,52.7,51.6,53.6,51.6,54.6z"/>
	<path class="st43" d="M53.6,54.6c2.2,0.6,2.1,2.3,2,4c-0.7,0.3-1.3,0.7-2,1c-0.3-0.3-0.7-0.7-1-1c-0.3-0.5-0.6-1-0.9-1.5
		c0.3-0.5,0.6-1,0.9-1.5C52.9,55.2,53.2,54.9,53.6,54.6z"/>
	<path class="st44" d="M56.6,52.6c-0.5,1.9-2,0.6-3,1c0-3.3,0.2-3.6,3-4C56.6,50.6,56.6,51.6,56.6,52.6z"/>
	<path class="st45" d="M56.6,52.6c0-1,0-2,0-3c0.3-0.3,0.7-0.7,1-1c0,0.3,0,0.7,0,1c0,1,0,2,0,3C57.2,52.6,56.9,52.6,56.6,52.6z"/>
	<path class="st6" d="M55.6,47.6c0-1,0-2,0-3C56.9,45.6,56.9,46.6,55.6,47.6z"/>
	<path class="st6" d="M58.6,43.6c0.8,0.2,1.9-0.5,2,1C59.8,44.4,58.6,45.1,58.6,43.6z"/>
	<path class="st6" d="M54.6,44.6c-0.8-0.2-1.9,0.5-2-1C53.3,43.7,54.5,43.1,54.6,44.6z"/>
	<path class="st6" d="M59.6,40.6c-0.3,0.3-0.7,0.7-1,1C58.9,41.2,59.2,40.9,59.6,40.6z"/>
	<path class="st4" d="M47.6,53.6c-0.3,0.3-0.7,0.7-1,1C46.9,54.2,47.2,53.9,47.6,53.6z"/>
	<path class="st4" d="M52.6,55.6c-0.3-0.3-0.7-0.7-1-1C51.9,54.9,52.2,55.2,52.6,55.6z"/>
	<path class="st6" d="M61.6,44.6c0.3-0.3,0.7-0.7,1-1c0,0.3,0,0.7,0,1C62.2,44.6,61.9,44.6,61.6,44.6z"/>
	<path class="st6" d="M63.6,44.6c-0.3,0.3-0.7,0.7-1,1c0-0.3,0-0.7,0-1C62.9,44.6,63.2,44.6,63.6,44.6z"/>
	<path class="st46" d="M46.6,62.6c0.3-0.7,0.7-1.3,1-2c0.9-0.6,1.7-1.3,2.5-1.8c0.4,0.2,1,0.5,1.5,0.8c0,0.3,0,0.7,0,1s0,0.7,0,1
		c-0.2,0.8,0.5,1.9-1,2c-0.1-1.5-1.2-0.8-2-1C47.9,62.6,47.2,62.6,46.6,62.6z"/>
	<path class="st40" d="M52.6,66.6c0.3-0.3,0.7-0.7,1-1c0.1,1.5,1.2,0.8,2,1c0,0.3,0,0.7,0,1c0,0.7,0,1.3,0,2
		c-0.7,0.2-1.4,0.5-2.2,0.7c-0.6,0.2-1.2,0.2-1.8,0.3c0-1,0-2,0-3C51.9,67.2,52.2,66.9,52.6,66.6z"/>
	<path class="st37" d="M57.6,64.6c1,0.4,2.5-0.9,3,1c0.3,0.3,0.7,0.7,1,1c0,0.3,0,0.7,0,1c-0.3,0.3-0.7,0.7-1,1c-0.9,0-1.8,0-3,0
		c0-0.8,0-1.4,0-2c0-0.3,0-0.7,0-1S57.6,64.9,57.6,64.6z"/>
	<path class="st41" d="M55.6,60.6c0.3,0.3,0.7,0.7,1,1c0,1,0,2,0,3c-0.7,0-1.3,0-2,0c-0.3-0.7-0.7-1.3-1-2c0-0.7,0-1.3,0-2
		C54.2,60.6,54.9,60.6,55.6,60.6z"/>
	<path class="st28" d="M56.6,64.6c0-1,0-2,0-3c1.9,0.5,0.6,2,1,3c0,0.3,0,0.7,0,1c-0.3,0-0.7,0-1,0C56.6,65.2,56.6,64.9,56.6,64.6z"
		/>
	<path class="st3" d="M55.6,60.6c-0.7,0-1.3,0-2,0c0-0.3,0-0.7,0-1c0.7-0.3,1.3-0.7,2-1C55.6,59.2,55.6,59.9,55.6,60.6z"/>
	<path class="st10" d="M53.6,62.6c0.3,0.7,0.7,1.3,1,2c-0.6,0-1.2,0-2.6,0C52.8,63.5,53.2,63.1,53.6,62.6z"/>
	<path class="st10" d="M55.6,66.6c-0.8-0.2-1.9,0.5-2-1C54.3,65.7,55.5,65.1,55.6,66.6z"/>
	<path class="st6" d="M48.6,62.6c0.8,0.2,1.9-0.5,2,1C49.8,63.4,48.6,64.1,48.6,62.6z"/>
	<path class="st28" d="M60.6,68.6c0.3-0.3,0.7-0.7,1-1c0.3,0,0.7,0,1,0c0,0.3,0,0.7,0,1C61.9,68.6,61.2,68.6,60.6,68.6z"/>
	<path class="st10" d="M55.6,69.6c0-0.7,0-1.3,0-2c0.3,0.4,0.7,0.8,1,1.2C56.2,69.1,55.9,69.3,55.6,69.6z"/>
	<path class="st10" d="M56.6,65.6c0.3,0,0.7,0,1,0c0,0.3,0,0.7,0,1C57.2,66.2,56.9,65.9,56.6,65.6z"/>
	<path class="st10" d="M52.6,66.6c-0.3,0.3-0.7,0.7-1,1C51.9,67.2,52.2,66.9,52.6,66.6z"/>
	<path class="st3" d="M52.6,58.6c0.3,0.3,0.7,0.7,1,1c-0.3,0-0.7,0-1,0C52.6,59.2,52.6,58.9,52.6,58.6z"/>
	<path class="st3" d="M51.6,61.6c0-0.3,0-0.7,0-1c0.3,0,0.7,0,1,0C52.2,60.9,51.9,61.2,51.6,61.6z"/>
	<path class="st10" d="M52.6,60.6c-0.3,0-0.7,0-1,0c0-0.3,0-0.7,0-1c0.3,0,0.7,0,1,0C52.6,59.9,52.6,60.2,52.6,60.6z"/>
	<path class="st29" d="M133.6,67.6c-1.7,0-3.3,0-5,0c0-0.3,0-0.7,0-1c0.3-0.2,0.6-0.3,1.2-0.5c-0.9-0.4-1.5-0.7-2-0.9
		c0.3-0.6,0.6-1.1,0.9-1.6c0.3-0.3,0.7-0.7,1-1c1.3,0,2.5-0.1,3.8,0c0.4,0,0.8,0.6,1.2,1c-0.3,0-0.7,0-1,0s-0.7,0-1,0
		c-0.7,0.1-1.4,0.2-2.6,0.4c0.9,1.2,1.5,1.9,2.1,2.8c0.2-0.6,0.3-0.9,0.4-1.1c0.3,0,0.7,0,1,0c0,0.3,0,0.7,0,1
		S133.6,67.2,133.6,67.6z"/>
	<path class="st47" d="M139.6,66.6c-0.3,0-0.7,0-1,0c-0.7,0-1.3,0-2,0c-0.3-0.3-0.7-0.7-1-1c0-0.7,0-1.3,0-2c0.7,0,1.3,0,2,0
		c0.1,0.3,0.2,0.6,0.3,0.8c0.2-0.3,0.4-0.6,0.7-0.8c0-0.3,0-0.7,0-1c0.6,0,1.2,0,2,0c0,0.8,0,1.4,0,2
		C139.1,64.7,139.7,65.8,139.6,66.6z"/>
	<path class="st48" d="M144.6,64.6c-0.3,0-0.7,0-1,0c-0.1-0.3-0.2-0.6-0.3-0.8c-0.2,0.3-0.4,0.6-0.7,0.8c0,0.3,0,0.7,0,1
		c-0.3,0-0.7,0-1,0c0-0.9,0-1.9,0-3c1.5,0,2.8,0,4,0c0,0.3,0,0.7,0,1C145.2,63.9,144.9,64.2,144.6,64.6z"/>
	<path class="st38" d="M124.6,66.6c-0.3,0-0.7,0-1,0s-0.7,0-1,0c0-0.3,0-0.7,0-1c0.6,0,1.2,0,2,0c0-0.8,0-1.4,0-2c0-0.3,0-0.7,0-1
		c0.3,0.4,0.9,0.7,1,1.2c0.1,0.9,0,1.9,0,2.8C125.2,66.6,124.9,66.6,124.6,66.6z"/>
	<path class="st0" d="M128.6,63.6c-0.3,0.5-0.6,1-0.9,1.6c0.5,0.2,1.1,0.5,2,0.9c-0.5,0.2-0.8,0.4-1.2,0.5c-0.3,0-0.7,0-1,0
		c-1.9-0.5-0.6-2-1-3C127.2,63.6,127.9,63.6,128.6,63.6z"/>
	<path class="st7" d="M137.6,63.6c-0.7,0-1.3,0-2,0c0.5-1.9,2-0.6,3-1c0,0.3,0,0.7,0,1C138.2,63.6,137.9,63.6,137.6,63.6z"/>
	<path class="st0" d="M139.6,66.6c0.2-0.8-0.5-1.9,1-2c0,0.3,0,0.7,0,1s0,0.7,0,1C140.2,66.6,139.9,66.6,139.6,66.6z"/>
	<path class="st7" d="M128.6,63.6c-0.7,0-1.3,0-2,0c0.1-1.5,1.2-0.8,2-1C128.6,62.9,128.6,63.2,128.6,63.6z"/>
	<path class="st7" d="M150.6,62.6c0.7,0,1.3,0,2,0c0,0.3,0,0.7,0,1c-0.3,0-0.7,0-1,0s-0.7,0-1,0C150.6,63.2,150.6,62.9,150.6,62.6z"
		/>
	<path class="st48" d="M152.6,63.6c0-0.3,0-0.7,0-1c0.7,0,1.3,0,2,0c-0.3,0.3-0.7,0.7-1,1C153.2,63.6,152.9,63.6,152.6,63.6z"/>
	<path class="st7" d="M135.6,63.6c0,0.7,0,1.3,0,2c-1.5-0.1-0.8-1.2-1-2C134.9,63.6,135.2,63.6,135.6,63.6z"/>
	<path class="st4" d="M127.6,66.6c0.3,0,0.7,0,1,0c0,0.3,0,0.7,0,1c-0.3,0-0.7,0-1,0C127.6,67.2,127.6,66.9,127.6,66.6z"/>
	<path class="st7" d="M140.6,66.6c0-0.3,0-0.7,0-1c0.3,0,0.7,0,1,0c0,0.3,0,0.7,0,1C141.2,66.6,140.9,66.6,140.6,66.6z"/>
	<path class="st6" d="M124.6,66.6c0.3,0,0.7,0,1,0c0,0.3,0,0.7,0,1C125.2,67.2,124.9,66.9,124.6,66.6z"/>
	<path class="st47" d="M150.6,62.6c0,0.3,0,0.7,0,1c-0.3,0-0.7,0-1,0c0-0.3,0-0.7,0-1C149.9,62.6,150.2,62.6,150.6,62.6z"/>
	<path class="st49" d="M128.6,63.6c0-0.3,0-0.7,0-1c0.3,0,0.7,0,1,0C129.2,62.9,128.9,63.2,128.6,63.6z"/>
	<path class="st7" d="M124.6,63.6c0,0.6,0,1.2,0,2c-0.8,0-1.4,0-2,0C123.2,64.9,123.9,64.2,124.6,63.6z"/>
	<path class="st3" d="M122.6,66.6c0.3,0,0.7,0,1,0c-0.3,0.3-0.7,0.7-1,1C122.6,67.2,122.6,66.9,122.6,66.6z"/>
	<path class="st9" d="M106.6,53.6c0.3,0,0.7,0,1,0c0,1.3,0,2.7,0,4c-0.3,0-0.7,0-1,0C106.6,56.2,106.6,54.9,106.6,53.6z"/>
	<path class="st7" d="M111.6,52.6c0.3,0,0.7,0,1,0c-0.2,0.3-0.4,0.6-0.7,0.8C111.8,53.1,111.7,52.9,111.6,52.6z"/>
	<path class="st36" d="M148.6,57.6c-1.5-2.3-1.5-2.3,1.8-4.2c0.1,1.5,0.1,2.9,0.2,4.2C149.9,57.6,149.2,57.6,148.6,57.6z"/>
	<path class="st34" d="M148.6,57.6c0.7,0,1.3,0,2,0c-0.4,0.3-0.8,0.7-1.2,1C149.1,58.2,148.8,57.9,148.6,57.6z"/>
	<path class="st50" d="M150.6,66.6c-0.5,0-1,0-1.6,0c-0.3-1.1-1.3-2.3,0.6-3c0,0.3,0,0.7,0,1c0.3,0.3,0.7,0.7,1,1s0.7,0.7,1,1
		C151.2,66.6,150.9,66.6,150.6,66.6z"/>
	<path class="st51" d="M152.6,63.6c0.3,0,0.7,0,1,0c0.4,0.8,0.8,1.5,1.4,2.7c-1,0.1-1.7,0.2-2.4,0.3
		C152.6,65.6,152.6,64.6,152.6,63.6z"/>
	<path class="st47" d="M145.6,66.6c0-0.3,0-0.7,0-1c0.3-0.3,0.7-0.7,1-1c0.3,0,0.7,0,1,0c0,0.6,0,1.2,0,2
		C146.7,66.6,146.1,66.6,145.6,66.6z"/>
	<path class="st38" d="M146.6,64.6c-0.3,0.3-0.7,0.7-1,1c0-0.3,0-0.7,0-1s0-0.7,0-1c0.3,0,0.7,0,1,0
		C146.6,63.9,146.6,64.2,146.6,64.6z"/>
	<path class="st10" d="M150.6,66.6c0.3,0,0.7,0,1,0s0.7,0,1,0c-0.4,0.3-0.8,0.7-1.2,1C151.1,67.2,150.8,66.9,150.6,66.6z"/>
	<path class="st36" d="M146.6,64.6c0-0.3,0-0.7,0-1c0.3,0.3,0.7,0.7,1,1C147.2,64.6,146.9,64.6,146.6,64.6z"/>
	<path class="st36" d="M134.6,63.6c0.2,0.8-0.5,1.9,1,2c0.3,0.3,0.7,0.7,1,1c-0.7,0-1.3,0-2,0c-0.3,0-0.7,0-1,0c0-0.3,0-0.7,0-1
		s0-0.7,0-1s0-0.7,0-1C133.9,63.6,134.2,63.6,134.6,63.6z"/>
	<path class="st52" d="M142.6,65.6c0-0.3,0-0.7,0-1c0.3,0,0.7,0,1,0c0,0.3,0,0.7,0,1s0,0.7,0,1c-0.3,0-0.7,0-1,0
		C142.6,66.2,142.6,65.9,142.6,65.6z"/>
	<path class="st1" d="M140.6,66.6c0.3,0,0.7,0,1,0c-0.4,0.3-0.8,0.7-1.2,1c-0.3-0.3-0.5-0.7-0.8-1C139.9,66.6,140.2,66.6,140.6,66.6
		z"/>
	<path class="st4" d="M136.6,66.6c0.7,0,1.3,0,2,0c-0.4,0.3-0.8,0.7-1.2,1C137.1,67.2,136.8,66.9,136.6,66.6z"/>
	<path class="st1" d="M133.6,66.6c0.3,0,0.7,0,1,0c-0.3,0.3-0.7,0.7-1,1C133.6,67.2,133.6,66.9,133.6,66.6z"/>
	<path class="st0" d="M142.6,65.6c0,0.3,0,0.7,0,1c-0.3,0-0.7,0-1,0c0-0.3,0-0.7,0-1C141.9,65.6,142.2,65.6,142.6,65.6z"/>
	<path class="st43" d="M116.8,53.6c0.6,0,0.9,0,1.5,0c0.1,0.5,0.2,1.1,0.4,1.8c-0.6,0.1-1.1,0.2-1.8,0.4
		C116.8,54.9,116.8,54.2,116.8,53.6z"/>
	<path class="st4" d="M52.6,59.6c-0.3,0-0.7,0-1,0c0.3-0.3,0.7-0.7,1-1C52.6,58.9,52.6,59.2,52.6,59.6z"/>
	<path class="st4" d="M47.6,60.6c-0.3-0.3-0.7-0.7-1-1C46.9,59.9,47.2,60.2,47.6,60.6z"/>
	<path class="st17" d="M129.6,54.6c0,0.3,0,0.7,0,1c-0.7,0-1.3,0-2,0c0-0.3,0-0.7,0-1C128.2,54.6,128.9,54.6,129.6,54.6z"/>
	<path class="st7" d="M129.6,54.6c-0.7,0-1.3,0-2,0c0.4-0.3,0.8-0.7,1.2-1C129,53.9,129.3,54.2,129.6,54.6z"/>
	<path class="st46" d="M127.6,55.6c0.7,0,1.3,0,2,0c-0.4,0.3-0.8,0.7-1.2,1C128.1,56.2,127.8,55.9,127.6,55.6z"/>
	<path class="st35" d="M136.6,54.6c0,0.3,0,0.7,0,1c-0.3-0.3-0.7-0.7-1-1C135.9,54.6,136.2,54.6,136.6,54.6z"/>
	<path class="st53" d="M135.6,54.6c-0.3-0.2-0.6-0.4-0.8-0.7c0.3-0.1,0.6-0.2,0.8-0.3C135.6,53.9,135.6,54.2,135.6,54.6z"/>
	<path class="st54" d="M135.6,54.6c0-0.3,0-0.7,0-1c0.3,0,0.7,0,1,0c0,0.3,0,0.7,0,1C136.2,54.6,135.9,54.6,135.6,54.6z"/>
	<path class="st55" d="M104.6,55.6c0.3,0.3,0.7,0.7,1,1c-1.3,0-2.7,0-4,0c0-0.3,0-0.7,0-1C102.6,55.6,103.6,55.6,104.6,55.6z"/>
	<path class="st56" d="M104.6,55.6c-1,0-2,0-3,0c0-0.3,0-0.7,0-1c1,0,2,0,3,0C104.6,54.9,104.6,55.2,104.6,55.6z"/>
	<path class="st36" d="M94.6,57.6c0,0.3,0,0.7,0,1c-0.3,0-0.7,0-1,0c-1,0-2,0-3,0c0-0.7,0-1.3,0-2c1.3,0,2.7,0,4,0
		C94.6,56.9,94.6,57.2,94.6,57.6z"/>
	<path class="st57" d="M94.6,52.6c0,0.3,0,0.7,0,1c-1,0.4-2.5-0.9-3,1c-0.3,0-0.7,0-1,0c0-0.7,0-1.3,0-2
		C91.9,52.6,93.2,52.6,94.6,52.6z"/>
	<path class="st0" d="M91.6,54.6c0.5-1.9,2-0.6,3-1c0,0.3,0,0.7,0,1C93.6,54.6,92.6,54.6,91.6,54.6z"/>
	<path class="st58" d="M143.6,66.6c0-0.3,0-0.7,0-1c0.3,0.2,0.6,0.4,0.8,0.7C144.1,66.4,143.8,66.5,143.6,66.6z"/>
	<path class="st7" d="M145.6,63.6c0,0.3,0,0.7,0,1c-0.3,0-0.7,0-1,0C144.9,64.2,145.2,63.9,145.6,63.6z"/>
	<path class="st0" d="M104.6,54.6c-1,0-2,0-3,0c0.4-0.3,0.7-0.9,1.2-1c0.9-0.1,1.9,0,2.8,0C105.2,53.9,104.9,54.2,104.6,54.6z"/>
	<path class="st4" d="M68.6,39.6c-0.3,0-0.7,0-1,0c0-0.3,0-0.7,0-1c0.3,0,0.7,0,1,0C68.6,38.9,68.6,39.2,68.6,39.6z"/>
	<path class="st54" d="M63.6,64.6c-0.3,0-0.7,0-1,0c-0.3-0.3-0.7-0.7-1-1c-0.1-1.5-1.2-0.8-2-1c-0.2-0.8,0.5-1.9-1-2
		c-0.4-0.7-0.7-1.3-1.2-2.1c0.4-0.5,0.7-0.9,1.1-1.4c-0.3-0.3-0.7-0.6-1.2-1.1c0.4-0.8,0.8-1.6,1.2-2.4c1.5-0.1,0.8-1.2,1-2
		c0.7-0.2,1.5-0.3,2.1-0.7c0.7-0.3,1.2-0.9,1.9-1.3c0.3,0.3,0.5,0.7,0.8,1c0.4-0.3,0.8-0.7,1.2-1c0.8,0.2,1.9-0.5,2,1
		c0.5,1.9,2,0.6,3,1c0,0.7,0,1.3,0,2c0.3,0.3,0.7,0.7,1,1c0.3,0.3,0.7,0.7,1,1c-0.3,0.3-0.7,0.7-1,1c0,0.3,0,0.7,0,1
		c0.3,0.3,0.7,0.7,1,1c-0.3,0.3-0.7,0.7-1,1c-0.3,0.3-0.7,0.7-1,1c0,0.7,0,1.3,0,2c-1,0.4-2.5-0.9-3,1c0,0.3,0,0.7,0,1
		c-0.3,0-0.7,0-1,0s-0.7,0-1,0c-0.3-0.3-0.5-0.7-0.8-1C64.4,63.9,64,64.2,63.6,64.6z"/>
	<path class="st13" d="M67.6,63.6c0.5-1.9,2-0.6,3-1C70.1,64.5,68.5,63.2,67.6,63.6z"/>
	<path class="st11" d="M70.6,51.6c-1-0.4-2.5,0.9-3-1C68.5,51,70.1,49.6,70.6,51.6z"/>
	<path class="st45" d="M59.6,51.6c-0.2,0.8,0.5,1.9-1,2C58.7,52.8,58.1,51.7,59.6,51.6z"/>
	<path class="st11" d="M65.6,49.6c-0.4,0.3-0.8,0.7-1.2,1c-0.3-0.3-0.5-0.7-0.8-1C64.2,49.6,64.9,49.6,65.6,49.6z"/>
	<path class="st11" d="M63.6,47.6c0.7,0,1.3,0,2,0c-0.4,0.3-0.8,0.7-1.2,1C64.1,48.2,63.8,47.9,63.6,47.6z"/>
	<path class="st13" d="M63.6,64.6c0.4-0.3,0.8-0.7,1.2-1c0.3,0.3,0.5,0.7,0.8,1C64.9,64.6,64.2,64.6,63.6,64.6z"/>
	<path class="st11" d="M66.6,64.6c0.3,0,0.7,0,1,0c-0.2,0.3-0.4,0.6-0.7,0.8C66.8,65.1,66.7,64.9,66.6,64.6z"/>
	<path class="st13" d="M69.6,64.6c-0.3,0.3-0.7,0.7-1,1C68.9,65.2,69.2,64.9,69.6,64.6z"/>
	<path class="st28" d="M64.6,66.6c0-0.3,0-0.7,0-1c0.3,0.3,0.7,0.7,1,1C65.2,66.6,64.9,66.6,64.6,66.6z"/>
	<path class="st11" d="M68.6,48.6c0.3,0.3,0.7,0.7,1,1C69.2,49.2,68.9,48.9,68.6,48.6z"/>
	<path class="st11" d="M72.6,52.6c0.3,0.3,0.7,0.7,1,1C73.2,53.2,72.9,52.9,72.6,52.6z"/>
	<path class="st11" d="M73.6,57.6c0.3,0.3,0.7,0.7,1,1C74.2,58.2,73.9,57.9,73.6,57.6z"/>
	<path class="st11" d="M72.6,58.6c-0.3-0.3-0.7-0.7-1-1C71.9,57.9,72.2,58.2,72.6,58.6z"/>
	<path class="st11" d="M71.6,54.6c-0.3-0.3-0.7-0.7-1-1C70.9,53.9,71.2,54.2,71.6,54.6z"/>
	<path class="st11" d="M74.6,55.6c-0.3,0.3-0.7,0.7-1,1C73.9,56.2,74.2,55.9,74.6,55.6z"/>
	<path class="st11" d="M71.6,56.6c0.3-0.3,0.7-0.7,1-1C72.2,55.9,71.9,56.2,71.6,56.6z"/>
	<path class="st11" d="M67.6,46.6c0,0.3,0,0.7,0,1c-0.3,0-0.7,0-1,0C66.9,47.2,67.2,46.9,67.6,46.6z"/>
	<path class="st13" d="M73.6,60.6c-0.3,0.3-0.7,0.7-1,1C72.9,61.2,73.2,60.9,73.6,60.6z"/>
	<path class="st13" d="M70.6,60.6c0.3-0.3,0.7-0.7,1-1C71.2,59.9,70.9,60.2,70.6,60.6z"/>
	<path class="st28" d="M62.6,67.6c0.3-0.3,0.7-0.7,1-1C63.2,66.9,62.9,67.2,62.6,67.6z"/>
	<path class="st4" d="M63.6,44.6c-0.3,0-0.7,0-1,0c0-0.3,0-0.7,0-1c0.3,0,0.7,0,1,0C63.6,43.9,63.6,44.2,63.6,44.6z"/>
	<path class="st28" d="M58.6,60.6c1.5,0.1,0.8,1.2,1,2C58.1,62.5,58.7,61.3,58.6,60.6z"/>
	<path class="st28" d="M59.6,62.6c0.8,0.2,1.9-0.5,2,1C60.8,63.4,59.6,64.1,59.6,62.6z"/>
	<path class="st28" d="M61.6,66.6c-0.3-0.3-0.7-0.7-1-1C60.9,65.9,61.2,66.2,61.6,66.6z"/>
	<path class="st28" d="M61.6,63.6c0.3,0.3,0.7,0.7,1,1C62.2,64.2,61.9,63.9,61.6,63.6z"/>
	<path class="st0" d="M132.6,65.6c-0.1,0.3-0.2,0.5-0.4,1.1c-0.7-0.9-1.2-1.6-2.1-2.8c1.2-0.2,1.9-0.3,2.6-0.4c0,0.3,0,0.7,0,1
		S132.6,65.2,132.6,65.6z"/>
	<path class="st49" d="M132.6,65.6c0-0.3,0-0.7,0-1c0.3,0,0.7,0,1,0c0,0.3,0,0.7,0,1C133.2,65.6,132.9,65.6,132.6,65.6z"/>
	<path class="st7" d="M133.6,64.6c-0.3,0-0.7,0-1,0c0-0.3,0-0.7,0-1c0.3,0,0.7,0,1,0C133.6,63.9,133.6,64.2,133.6,64.6z"/>
	<path class="st59" d="M137.6,63.6c0.3,0,0.7,0,1,0c-0.2,0.3-0.4,0.6-0.7,0.8C137.8,64.1,137.7,63.9,137.6,63.6z"/>
	<path class="st60" d="M143.6,64.6c-0.3,0-0.7,0-1,0c0.2-0.3,0.4-0.6,0.7-0.8C143.3,64,143.4,64.3,143.6,64.6z"/>
	<path class="st17" d="M152.6,66.6c-0.3,0-0.7,0-1,0c-0.3-0.3-0.7-0.7-1-1c0-0.3,0-0.7,0-1c0.3-0.3,0.7-0.7,1-1c0.3,0,0.7,0,1,0
		C152.6,64.6,152.6,65.6,152.6,66.6z"/>
	<path class="st38" d="M151.6,63.6c-0.3,0.3-0.7,0.7-1,1c0-0.3,0-0.7,0-1C150.9,63.6,151.2,63.6,151.6,63.6z"/>
	<path class="st61" d="M150.6,63.6c0,0.3,0,0.7,0,1c-0.3,0-0.7,0-1,0c0-0.3,0-0.7,0-1C149.9,63.6,150.2,63.6,150.6,63.6z"/>
	<path class="st62" d="M149.6,64.6c0.3,0,0.7,0,1,0c0,0.3,0,0.7,0,1C150.2,65.2,149.9,64.9,149.6,64.6z"/>
</g>
</svg>
