<?xml version="1.0" encoding="utf-8"?>
<!-- Generator: Adobe Illustrator 25.1.0, SVG Export Plug-In . SVG Version: 6.00 Build 0)  -->
<svg version="1.1" id="Warstwa_1" xmlns="http://www.w3.org/2000/svg" xmlns:xlink="http://www.w3.org/1999/xlink" x="0px" y="0px"
	 viewBox="0 0 210 120" style="enable-background:new 0 0 210 120;" xml:space="preserve">
<style type="text/css">
	.st0{fill:#9F9F9F;}
</style>
<g>
	<path class="st0" d="M53.84,76.95c-0.59,0-1.14-0.1-1.63-0.28s-0.91-0.45-1.26-0.81c-0.35-0.35-0.62-0.79-0.81-1.3
		s-0.29-1.1-0.29-1.75c0-0.93,0.15-1.78,0.45-2.54c0.3-0.78,0.71-1.44,1.22-2c0.52-0.56,1.11-1,1.78-1.3
		c0.68-0.31,1.39-0.46,2.14-0.46c0.55,0,1.04,0.04,1.49,0.14c0.45,0.09,0.82,0.21,1.14,0.36l-0.25,2.75h-0.33
		c-0.08-0.36-0.17-0.73-0.29-1.11c-0.11-0.38-0.24-0.69-0.37-0.94c-0.15-0.25-0.32-0.43-0.52-0.53c-0.2-0.1-0.5-0.15-0.9-0.15
		c-0.64,0-1.21,0.17-1.71,0.5c-0.49,0.33-0.9,0.78-1.23,1.35c-0.33,0.57-0.59,1.22-0.75,1.97c-0.17,0.74-0.25,1.53-0.25,2.36
		c0,1.14,0.19,1.97,0.56,2.5c0.38,0.52,1.01,0.79,1.9,0.79c0.43,0,0.78-0.06,1.05-0.18c0.27-0.12,0.51-0.3,0.71-0.52
		c0.25-0.28,0.49-0.6,0.72-0.95c0.23-0.36,0.45-0.73,0.65-1.1h0.32L56.7,76.5c-0.3,0.14-0.68,0.25-1.16,0.34
		C55.05,76.9,54.48,76.95,53.84,76.95"/>
	<path class="st0" d="M61.04,76.97c-0.47,0-0.87-0.08-1.22-0.24c-0.35-0.16-0.64-0.38-0.87-0.66c-0.23-0.28-0.4-0.59-0.51-0.95
		c-0.11-0.36-0.17-0.74-0.17-1.14c0-0.79,0.13-1.49,0.38-2.1c0.25-0.6,0.59-1.12,0.98-1.53s0.83-0.73,1.3-0.94
		c0.47-0.21,0.93-0.31,1.36-0.31c0.45,0,0.85,0.08,1.19,0.24c0.34,0.16,0.64,0.38,0.86,0.65c0.24,0.27,0.4,0.59,0.52,0.94
		c0.12,0.36,0.17,0.73,0.17,1.12c0,0.82-0.13,1.53-0.38,2.15c-0.26,0.61-0.59,1.12-0.98,1.53c-0.39,0.41-0.82,0.72-1.3,0.93
		C61.92,76.87,61.47,76.97,61.04,76.97 M61.04,76.55c0.41,0,0.78-0.13,1.09-0.41c0.32-0.27,0.6-0.64,0.83-1.09s0.4-0.99,0.52-1.6
		c0.11-0.61,0.17-1.25,0.17-1.92c0-1.33-0.45-2-1.37-2c-0.4,0-0.76,0.13-1.08,0.39c-0.32,0.26-0.59,0.62-0.82,1.08
		s-0.39,0.98-0.52,1.59c-0.12,0.6-0.18,1.26-0.18,1.95C59.68,75.88,60.13,76.55,61.04,76.55"/>
	<path class="st0" d="M70.92,76.9c-0.2,0-0.35-0.06-0.45-0.2c-0.1-0.13-0.17-0.3-0.17-0.49c0-0.2,0.02-0.39,0.05-0.57
		c0.03-0.17,0.08-0.38,0.12-0.6l0.7-3.1c0.09-0.36,0.15-0.66,0.17-0.9c0.03-0.24,0.03-0.43,0.02-0.57
		c-0.02-0.14-0.05-0.24-0.12-0.29c-0.07-0.05-0.16-0.08-0.28-0.08c-0.18,0-0.38,0.06-0.61,0.18c-0.23,0.12-0.45,0.28-0.69,0.47
		c-0.24,0.19-0.47,0.4-0.7,0.64c-0.23,0.24-0.45,0.46-0.65,0.7l-1,4.67h-1.39l1.24-5.82c0.03-0.11,0.03-0.22,0.06-0.32l0.03-0.24
		c0-0.17-0.06-0.24-0.17-0.24c-0.11,0-0.32,0.1-0.61,0.31l-0.38,0.26l-0.15-0.22c0.46-0.46,0.87-0.81,1.18-1.02
		c0.32-0.22,0.64-0.33,0.95-0.33c0.18,0,0.32,0.06,0.41,0.17c0.09,0.11,0.13,0.26,0.13,0.44c0,0.1-0.01,0.24-0.03,0.38
		c-0.02,0.15-0.04,0.31-0.07,0.46c-0.03,0.16-0.06,0.31-0.09,0.46c-0.03,0.15-0.06,0.28-0.08,0.38h0.07
		c0.28-0.33,0.55-0.64,0.82-0.92s0.54-0.52,0.81-0.73s0.53-0.37,0.8-0.48c0.27-0.12,0.53-0.17,0.8-0.17c0.38,0,0.66,0.12,0.86,0.37
		c0.19,0.24,0.29,0.55,0.29,0.92c0,0.15-0.02,0.34-0.04,0.6c-0.03,0.25-0.08,0.53-0.16,0.85l-0.78,3.38l-0.05,0.24l-0.03,0.27
		c0,0.33,0.29,0.32,0.87-0.03l0.42-0.24l0.15,0.22c-0.42,0.39-0.8,0.69-1.15,0.9C71.69,76.8,71.32,76.9,70.92,76.9"/>
	<path class="st0" d="M75.75,76.93c-0.41,0-0.76-0.03-1.05-0.1c-0.29-0.07-0.52-0.17-0.71-0.29c-0.18-0.12-0.32-0.26-0.41-0.41
		c-0.09-0.15-0.13-0.31-0.13-0.46c0-0.19,0.06-0.34,0.17-0.45s0.26-0.16,0.44-0.16c0.29,0,0.49,0.07,0.6,0.21
		c0.1,0.14,0.22,0.4,0.32,0.77c0.04,0.16,0.14,0.28,0.28,0.36c0.14,0.08,0.36,0.12,0.67,0.12c0.38,0,0.71-0.11,0.99-0.34
		c0.28-0.23,0.42-0.53,0.42-0.92c0-0.29-0.11-0.59-0.35-0.88c-0.23-0.3-0.58-0.64-1.04-1.03c-0.44-0.37-0.77-0.71-1-1.02
		c-0.23-0.31-0.33-0.67-0.33-1.07c0-0.34,0.07-0.65,0.22-0.92c0.15-0.26,0.34-0.49,0.59-0.67c0.24-0.18,0.52-0.31,0.84-0.42
		c0.31-0.1,0.63-0.15,0.95-0.15c0.33,0,0.62,0.03,0.87,0.11c0.25,0.07,0.45,0.17,0.61,0.28c0.16,0.11,0.28,0.24,0.36,0.38
		c0.08,0.14,0.11,0.28,0.11,0.42c0,0.15-0.04,0.28-0.13,0.39c-0.09,0.11-0.24,0.17-0.46,0.17c-0.27,0-0.46-0.08-0.57-0.24
		c-0.1-0.17-0.2-0.38-0.28-0.64c-0.05-0.16-0.12-0.27-0.22-0.35s-0.25-0.11-0.48-0.11c-0.37,0-0.68,0.09-0.93,0.28
		c-0.24,0.18-0.37,0.46-0.37,0.83c0,0.15,0.02,0.29,0.05,0.42c0.04,0.14,0.1,0.28,0.21,0.43c0.1,0.15,0.24,0.3,0.4,0.46
		s0.38,0.35,0.66,0.55c0.94,0.7,1.41,1.44,1.41,2.24c0,0.31-0.07,0.59-0.22,0.86c-0.15,0.26-0.34,0.49-0.59,0.69
		c-0.24,0.2-0.53,0.35-0.87,0.46C76.44,76.88,76.1,76.93,75.75,76.93"/>
	<path class="st0" d="M80.38,76.9c-0.2,0-0.35-0.06-0.45-0.2c-0.1-0.13-0.17-0.3-0.17-0.49c0-0.2,0.02-0.39,0.04-0.57
		c0.03-0.17,0.07-0.38,0.13-0.6l1-4.1c0.06-0.24,0.09-0.44,0.09-0.57c0-0.17-0.05-0.24-0.17-0.24c-0.11,0-0.32,0.1-0.62,0.31
		l-0.43,0.3l-0.15-0.22c0.49-0.47,0.91-0.82,1.27-1.05s0.7-0.34,1.01-0.34c0.18,0,0.32,0.06,0.39,0.17
		c0.08,0.11,0.11,0.26,0.11,0.44c0,0.2-0.03,0.44-0.06,0.69c-0.04,0.26-0.1,0.55-0.18,0.88l-0.94,3.92l-0.05,0.24l-0.03,0.26
		c0,0.31,0.29,0.31,0.87-0.03l0.47-0.28l0.15,0.22c-0.43,0.39-0.81,0.71-1.16,0.93C81.17,76.79,80.8,76.9,80.38,76.9 M82.04,67.98
		c-0.23,0-0.41-0.08-0.57-0.24c-0.16-0.17-0.24-0.35-0.24-0.58c0-0.25,0.09-0.46,0.25-0.64c0.17-0.17,0.38-0.26,0.64-0.26
		c0.21,0,0.4,0.08,0.56,0.24c0.17,0.16,0.24,0.35,0.24,0.58c0,0.25-0.09,0.46-0.26,0.64C82.49,67.9,82.28,67.98,82.04,67.98"/>
	<path class="st0" d="M85.05,76.96c-0.52,0-0.93-0.18-1.23-0.56c-0.31-0.38-0.45-0.87-0.45-1.5c0-0.79,0.15-1.53,0.45-2.23
		c0.3-0.7,0.67-1.31,1.13-1.84c0.45-0.52,0.95-0.94,1.5-1.25c0.54-0.31,1.06-0.46,1.55-0.46c0.28,0,0.52,0.02,0.69,0.06
		c0.18,0.03,0.32,0.09,0.44,0.15h0.05c0.01-0.1,0.03-0.22,0.04-0.33c0.02-0.1,0.03-0.23,0.06-0.35c0.02-0.12,0.04-0.26,0.07-0.41
		l0.19-1.02c0.04-0.25,0.04-0.42-0.01-0.51c-0.05-0.08-0.17-0.16-0.35-0.24l-0.61-0.25l0.04-0.24l2.54-0.24l0.09,0.09
		c-0.04,0.17-0.1,0.34-0.13,0.52c-0.04,0.17-0.08,0.35-0.12,0.56c-0.04,0.2-0.09,0.42-0.14,0.66l-1.5,7.63l-0.04,0.26l-0.02,0.27
		c0,0.31,0.27,0.31,0.82-0.03l0.43-0.24l0.15,0.22c-0.42,0.39-0.8,0.69-1.14,0.9c-0.33,0.21-0.69,0.32-1.06,0.32
		c-0.23,0-0.38-0.09-0.47-0.25s-0.13-0.34-0.13-0.52c0-0.17,0.02-0.37,0.06-0.6c0.03-0.24,0.09-0.46,0.13-0.66h-0.06
		c-0.17,0.24-0.36,0.47-0.57,0.72c-0.22,0.24-0.45,0.47-0.7,0.68c-0.25,0.21-0.52,0.38-0.81,0.51
		C85.65,76.89,85.35,76.96,85.05,76.96 M85.6,76.1c0.24,0,0.47-0.07,0.7-0.21c0.24-0.13,0.46-0.31,0.69-0.52s0.44-0.45,0.65-0.71
		c0.21-0.26,0.4-0.51,0.58-0.75l0.73-3.59c-0.07-0.2-0.18-0.38-0.33-0.54c-0.16-0.16-0.39-0.24-0.7-0.24
		c-0.37,0-0.74,0.15-1.12,0.44c-0.38,0.29-0.72,0.68-1.01,1.16c-0.31,0.48-0.55,1.04-0.73,1.67c-0.18,0.63-0.28,1.29-0.28,1.96
		c0,0.49,0.08,0.83,0.24,1.03C85.16,76,85.36,76.1,85.6,76.1"/>
	<path class="st0" d="M93.48,76.97c-0.32,0-0.61-0.06-0.88-0.17c-0.26-0.11-0.49-0.27-0.67-0.46c-0.18-0.19-0.33-0.43-0.43-0.69
		c-0.1-0.26-0.15-0.55-0.15-0.87c0-0.56,0.07-1.08,0.21-1.57c0.14-0.49,0.33-0.95,0.57-1.37c0.24-0.43,0.52-0.8,0.83-1.14
		c0.31-0.33,0.63-0.62,0.96-0.86s0.66-0.41,0.99-0.54c0.32-0.12,0.62-0.19,0.9-0.19c0.33,0,0.6,0.03,0.82,0.11s0.4,0.18,0.53,0.31
		c0.14,0.13,0.24,0.28,0.29,0.45c0.06,0.17,0.09,0.34,0.09,0.52c0,0.29-0.12,0.59-0.36,0.87c-0.24,0.29-0.57,0.57-0.99,0.82
		c-0.42,0.26-0.92,0.5-1.49,0.7c-0.57,0.21-1.19,0.38-1.86,0.51c-0.03,0.19-0.05,0.38-0.08,0.58c-0.02,0.18-0.03,0.38-0.03,0.58
		c0,0.56,0.11,0.98,0.33,1.26c0.23,0.28,0.53,0.42,0.92,0.42c0.47,0,0.88-0.1,1.24-0.31c0.36-0.2,0.73-0.46,1.13-0.78l0.19,0.22
		c-0.15,0.17-0.32,0.34-0.54,0.52c-0.21,0.18-0.45,0.36-0.72,0.52c-0.26,0.16-0.55,0.29-0.86,0.39
		C94.17,76.92,93.83,76.97,93.48,76.97 M95.62,69.53c-0.24,0-0.48,0.09-0.74,0.27c-0.26,0.18-0.52,0.43-0.76,0.73
		c-0.25,0.31-0.48,0.68-0.68,1.1c-0.2,0.43-0.37,0.88-0.48,1.38c0.61-0.16,1.14-0.31,1.56-0.49c0.43-0.17,0.77-0.37,1.03-0.59
		c0.25-0.2,0.43-0.45,0.52-0.72c0.1-0.27,0.15-0.55,0.15-0.83c0-0.31-0.06-0.53-0.17-0.66C95.92,69.59,95.78,69.53,95.62,69.53"/>
	<path class="st0" d="M99.18,70.94c0.02-0.11,0.03-0.22,0.06-0.32l0.03-0.24c0-0.17-0.06-0.24-0.17-0.24s-0.32,0.1-0.61,0.31
		l-0.38,0.26l-0.15-0.22c0.47-0.46,0.87-0.81,1.18-1.03c0.32-0.22,0.64-0.33,0.95-0.33c0.18,0,0.32,0.06,0.41,0.17
		c0.09,0.11,0.13,0.26,0.13,0.44c0,0.1-0.02,0.26-0.04,0.46c-0.03,0.2-0.07,0.41-0.11,0.64c-0.04,0.23-0.09,0.44-0.13,0.64
		s-0.08,0.35-0.1,0.45h0.07c0.18-0.31,0.38-0.63,0.6-0.96s0.45-0.63,0.69-0.89c0.24-0.27,0.48-0.49,0.73-0.66
		c0.25-0.17,0.52-0.26,0.78-0.26c0.24,0,0.45,0.07,0.6,0.2c0.17,0.13,0.24,0.33,0.24,0.6c0,0.25-0.08,0.45-0.24,0.59
		c-0.16,0.14-0.34,0.21-0.54,0.21c-0.15,0-0.26-0.03-0.34-0.07l-0.22-0.16l-0.17-0.16l-0.2-0.07c-0.09,0-0.21,0.07-0.36,0.2
		c-0.15,0.14-0.32,0.32-0.51,0.55c-0.18,0.24-0.38,0.51-0.6,0.82s-0.43,0.66-0.65,1.01l-0.83,3.9h-1.39L99.18,70.94z"/>
	<path class="st0" d="M106.51,76.51l0.66-0.13l0.22-0.06l0.16-0.12l0.12-0.24c0.03-0.1,0.07-0.25,0.1-0.44l1.33-7.58
		c0.03-0.17,0.04-0.31,0.06-0.42l-0.03-0.24l-0.11-0.13l-0.21-0.07l-0.63-0.13l0.05-0.26h6.73l-0.02,2.59h-0.31
		c-0.12-0.37-0.23-0.66-0.31-0.87c-0.08-0.22-0.16-0.39-0.24-0.52c-0.09-0.16-0.17-0.28-0.25-0.38c-0.07-0.09-0.18-0.17-0.31-0.22
		c-0.13-0.05-0.3-0.09-0.5-0.1c-0.2-0.02-0.46-0.02-0.79-0.02c-0.44,0-0.77,0.01-0.98,0.03c-0.22,0.03-0.39,0.05-0.52,0.1l-0.7,4.01
		h0.82c0.24,0,0.44-0.01,0.6-0.02s0.31-0.03,0.43-0.06c0.11-0.03,0.21-0.08,0.29-0.14l0.22-0.25c0.17-0.29,0.36-0.67,0.55-1.14h0.31
		l-0.65,3.71h-0.32c-0.02-0.24-0.03-0.45-0.05-0.62s-0.03-0.35-0.07-0.55l-0.1-0.25c-0.04-0.06-0.13-0.1-0.24-0.14
		c-0.11-0.03-0.27-0.04-0.47-0.05s-0.46-0.02-0.79-0.02h-0.63l-0.48,2.82c-0.07,0.38-0.1,0.69-0.11,0.93
		c-0.01,0.24,0.03,0.41,0.13,0.53c0.1,0.12,0.26,0.2,0.48,0.24c0.23,0.03,0.53,0.05,0.94,0.05c0.35,0,0.63-0.01,0.86-0.03
		c0.22-0.02,0.4-0.05,0.55-0.1c0.15-0.05,0.27-0.13,0.38-0.22c0.11-0.1,0.24-0.22,0.38-0.36c0.14-0.16,0.32-0.4,0.56-0.74
		c0.24-0.34,0.46-0.72,0.69-1.13h0.35l-0.85,3.05h-7.36L106.51,76.51z"/>
	<path class="st0" d="M116.69,74.8c-0.02-0.57-0.03-1.08-0.06-1.52c-0.03-0.45-0.05-0.83-0.08-1.18c-0.03-0.34-0.06-0.66-0.1-0.94
		c-0.07-0.52-0.17-0.84-0.29-0.94c-0.13-0.1-0.36-0.03-0.7,0.21l-0.38,0.26l-0.15-0.22c0.4-0.43,0.76-0.76,1.1-1
		c0.33-0.24,0.66-0.36,0.98-0.36c0.24,0,0.42,0.12,0.52,0.37c0.1,0.24,0.19,0.66,0.24,1.24c0.03,0.31,0.05,0.63,0.08,0.94
		c0.03,0.31,0.04,0.66,0.06,1.02s0.03,0.76,0.03,1.19c0,0.43,0.01,0.91,0.01,1.43h0.06c0.33-0.38,0.66-0.78,0.98-1.2
		c0.32-0.42,0.61-0.82,0.87-1.22c0.26-0.39,0.46-0.77,0.62-1.1c0.16-0.34,0.24-0.6,0.24-0.81c0-0.15-0.03-0.26-0.08-0.36l-0.17-0.25
		l-0.17-0.25c-0.05-0.09-0.09-0.21-0.09-0.34c0-0.19,0.07-0.35,0.21-0.47s0.31-0.18,0.52-0.18c0.25,0,0.45,0.08,0.6,0.24
		s0.22,0.39,0.22,0.69c0,0.35-0.13,0.8-0.4,1.36c-0.27,0.55-0.61,1.15-1.04,1.77c-0.42,0.62-0.9,1.25-1.43,1.88
		c-0.52,0.63-1.05,1.21-1.57,1.72h-0.61C116.72,76.03,116.71,75.37,116.69,74.8"/>
	<path class="st0" d="M123.89,76.97c-0.32,0-0.61-0.06-0.87-0.17s-0.49-0.27-0.67-0.46c-0.18-0.19-0.33-0.43-0.42-0.69
		c-0.1-0.26-0.15-0.55-0.15-0.87c0-0.56,0.07-1.08,0.21-1.57c0.14-0.49,0.33-0.95,0.57-1.37c0.24-0.43,0.52-0.8,0.83-1.14
		c0.31-0.33,0.63-0.62,0.96-0.86c0.33-0.24,0.66-0.41,0.99-0.54c0.32-0.12,0.62-0.19,0.9-0.19c0.33,0,0.6,0.03,0.82,0.11
		s0.39,0.18,0.53,0.31c0.13,0.13,0.24,0.28,0.29,0.45c0.06,0.17,0.09,0.34,0.09,0.52c0,0.29-0.12,0.59-0.36,0.87
		c-0.24,0.29-0.57,0.57-0.99,0.82c-0.42,0.26-0.92,0.5-1.49,0.7c-0.57,0.21-1.2,0.38-1.86,0.51c-0.03,0.19-0.05,0.38-0.08,0.58
		c-0.02,0.18-0.03,0.38-0.03,0.58c0,0.56,0.11,0.98,0.33,1.26c0.23,0.28,0.53,0.42,0.92,0.42c0.47,0,0.88-0.1,1.24-0.31
		c0.36-0.2,0.73-0.46,1.13-0.78l0.19,0.22c-0.15,0.17-0.32,0.34-0.54,0.52s-0.45,0.36-0.72,0.52c-0.26,0.16-0.55,0.29-0.86,0.39
		C124.57,76.92,124.24,76.97,123.89,76.97 M126.02,69.53c-0.24,0-0.48,0.09-0.74,0.27c-0.25,0.18-0.51,0.43-0.76,0.73
		c-0.24,0.31-0.47,0.68-0.68,1.1c-0.21,0.43-0.37,0.88-0.48,1.38c0.61-0.16,1.14-0.31,1.56-0.49c0.43-0.17,0.77-0.37,1.03-0.59
		c0.25-0.2,0.43-0.45,0.52-0.72s0.15-0.55,0.15-0.83c0-0.31-0.06-0.53-0.17-0.66C126.33,69.59,126.19,69.53,126.02,69.53"/>
	<path class="st0" d="M129.58,70.94c0.02-0.11,0.03-0.22,0.06-0.32l0.03-0.24c0-0.17-0.06-0.24-0.17-0.24s-0.32,0.1-0.61,0.31
		l-0.38,0.26l-0.15-0.22c0.47-0.46,0.87-0.81,1.18-1.03c0.32-0.22,0.64-0.33,0.95-0.33c0.18,0,0.32,0.06,0.41,0.17
		c0.09,0.11,0.13,0.26,0.13,0.44c0,0.1-0.01,0.26-0.04,0.46c-0.03,0.2-0.07,0.41-0.11,0.64c-0.04,0.23-0.09,0.44-0.13,0.64
		c-0.04,0.2-0.08,0.35-0.1,0.45h0.07c0.18-0.31,0.38-0.63,0.61-0.96c0.22-0.33,0.45-0.63,0.69-0.89c0.24-0.27,0.48-0.49,0.73-0.66
		c0.25-0.17,0.52-0.26,0.78-0.26c0.24,0,0.45,0.07,0.61,0.2c0.16,0.13,0.24,0.33,0.24,0.6c0,0.25-0.08,0.45-0.24,0.59
		c-0.16,0.14-0.33,0.21-0.54,0.21c-0.15,0-0.26-0.03-0.34-0.07l-0.22-0.16l-0.17-0.16l-0.2-0.07c-0.09,0-0.21,0.07-0.36,0.2
		c-0.15,0.14-0.31,0.32-0.51,0.55c-0.18,0.24-0.38,0.51-0.59,0.82c-0.22,0.31-0.43,0.66-0.65,1.01l-0.83,3.9h-1.39L129.58,70.94z"/>
	<path class="st0" d="M134.45,79.87c-0.33,0-0.59-0.07-0.75-0.22s-0.25-0.33-0.25-0.56c0-0.21,0.06-0.38,0.19-0.51
		c0.12-0.12,0.28-0.19,0.47-0.19c0.12,0,0.24,0.03,0.31,0.1l0.24,0.2l0.23,0.2c0.08,0.06,0.18,0.1,0.3,0.1
		c0.16,0,0.38-0.11,0.69-0.34s0.7-0.64,1.18-1.22c-0.17-1.44-0.33-2.71-0.5-3.8c-0.17-1.09-0.31-1.92-0.45-2.47
		c-0.07-0.26-0.12-0.47-0.17-0.62s-0.11-0.25-0.18-0.31l-0.26-0.03c-0.1,0.03-0.24,0.11-0.4,0.24l-0.38,0.26l-0.15-0.22
		c0.4-0.43,0.76-0.76,1.09-1c0.32-0.24,0.62-0.36,0.87-0.36c0.18,0,0.34,0.07,0.46,0.2c0.13,0.13,0.24,0.41,0.35,0.84
		c0.11,0.5,0.22,1,0.31,1.5c0.09,0.51,0.17,1.01,0.24,1.49c0.07,0.49,0.12,0.96,0.17,1.43c0.05,0.46,0.1,0.88,0.13,1.28h0.04
		c0.3-0.43,0.57-0.87,0.83-1.31s0.49-0.88,0.68-1.3c0.19-0.43,0.35-0.82,0.46-1.19c0.11-0.37,0.17-0.7,0.17-0.98
		c0-0.14-0.03-0.27-0.09-0.37l-0.19-0.29l-0.19-0.29c-0.06-0.1-0.09-0.21-0.09-0.35c0-0.19,0.07-0.35,0.21-0.47
		c0.14-0.12,0.31-0.18,0.52-0.18c0.25,0,0.45,0.08,0.6,0.24c0.15,0.17,0.23,0.39,0.23,0.69c0,0.33-0.08,0.74-0.24,1.23
		c-0.16,0.49-0.37,1.02-0.64,1.61c-0.27,0.58-0.59,1.18-0.96,1.81c-0.37,0.63-0.77,1.24-1.2,1.84c-0.79,1.12-1.5,1.96-2.14,2.51
		C135.59,79.59,135,79.87,134.45,79.87"/>
	<path class="st0" d="M142.77,76.91c-0.28,0-0.48-0.08-0.6-0.24c-0.11-0.17-0.17-0.39-0.17-0.67c0-0.12,0.02-0.27,0.03-0.44
		c0.03-0.17,0.06-0.33,0.1-0.51l1.09-5.12h-1.05l0.04-0.25l1.13-0.31l0.26-1.22l1.15-0.55h0.34l-0.38,1.75h1.65l-0.15,0.59h-1.63
		l-1.08,5.05c-0.03,0.14-0.05,0.25-0.07,0.36l-0.03,0.29c0,0.24,0.1,0.36,0.32,0.36c0.22-0.01,0.59-0.18,1.15-0.55l0.43-0.28
		l0.17,0.22c-0.57,0.54-1.07,0.94-1.5,1.18C143.54,76.79,143.14,76.91,142.77,76.91"/>
	<path class="st0" d="M151.3,76.9c-0.19,0-0.35-0.06-0.45-0.2c-0.1-0.13-0.16-0.3-0.16-0.49c0-0.2,0.02-0.39,0.05-0.57
		c0.03-0.17,0.08-0.38,0.12-0.6l0.7-3.1c0.09-0.36,0.15-0.66,0.17-0.9c0.03-0.24,0.03-0.43,0.03-0.57
		c-0.02-0.14-0.05-0.24-0.13-0.29c-0.07-0.05-0.16-0.08-0.28-0.08c-0.18,0-0.38,0.06-0.61,0.18c-0.23,0.12-0.45,0.28-0.69,0.47
		c-0.24,0.19-0.47,0.4-0.7,0.64c-0.23,0.24-0.45,0.46-0.66,0.7l-1,4.67h-1.39l1.94-9.57c0.05-0.24,0.04-0.41-0.01-0.5
		c-0.05-0.09-0.17-0.17-0.34-0.24l-0.61-0.24l0.04-0.24l2.52-0.24l0.09,0.09c-0.05,0.17-0.1,0.34-0.13,0.52
		c-0.04,0.17-0.08,0.35-0.12,0.56c-0.04,0.21-0.1,0.43-0.14,0.65l-0.45,2.31c-0.08,0.38-0.15,0.68-0.2,0.91
		c-0.06,0.23-0.11,0.44-0.17,0.64h0.07c0.27-0.33,0.55-0.64,0.82-0.92c0.28-0.28,0.55-0.52,0.82-0.73c0.26-0.2,0.53-0.37,0.8-0.48
		c0.26-0.12,0.52-0.17,0.79-0.17c0.38,0,0.66,0.12,0.86,0.37c0.18,0.24,0.29,0.55,0.29,0.92c0,0.15-0.02,0.34-0.04,0.6
		c-0.03,0.25-0.08,0.53-0.16,0.85l-0.78,3.38l-0.05,0.24l-0.02,0.27c0,0.33,0.29,0.32,0.86-0.03l0.43-0.24l0.15,0.22
		c-0.42,0.39-0.8,0.69-1.15,0.9C152.07,76.8,151.7,76.9,151.3,76.9"/>
	<path class="st0" d="M155.21,76.9c-0.19,0-0.35-0.06-0.45-0.2c-0.1-0.13-0.16-0.3-0.16-0.49c0-0.2,0.02-0.39,0.04-0.57
		c0.03-0.17,0.07-0.38,0.13-0.6l1-4.1c0.05-0.24,0.09-0.44,0.09-0.57c0-0.17-0.05-0.24-0.17-0.24c-0.11,0-0.32,0.1-0.62,0.31
		l-0.43,0.3l-0.15-0.22c0.49-0.47,0.91-0.82,1.28-1.05c0.36-0.23,0.7-0.34,1.01-0.34c0.18,0,0.31,0.06,0.39,0.17
		c0.08,0.11,0.11,0.26,0.11,0.44c0,0.2-0.03,0.44-0.07,0.69c-0.04,0.26-0.1,0.55-0.18,0.88l-0.94,3.92l-0.05,0.24l-0.02,0.26
		c0,0.31,0.29,0.31,0.87-0.03l0.47-0.28l0.15,0.22c-0.43,0.39-0.81,0.71-1.16,0.93C155.99,76.79,155.61,76.9,155.21,76.9
		 M156.86,67.98c-0.23,0-0.41-0.08-0.57-0.24c-0.16-0.17-0.24-0.35-0.24-0.58c0-0.25,0.09-0.46,0.25-0.64
		c0.17-0.17,0.38-0.26,0.64-0.26c0.21,0,0.4,0.08,0.56,0.24c0.17,0.16,0.24,0.35,0.24,0.58c0,0.25-0.09,0.46-0.26,0.64
		C157.31,67.9,157.1,67.98,156.86,67.98"/>
	<path class="st0" d="M163.47,76.9c-0.19,0-0.35-0.06-0.45-0.2c-0.1-0.13-0.16-0.3-0.16-0.49c0-0.2,0.02-0.39,0.05-0.57
		c0.03-0.17,0.08-0.38,0.12-0.6l0.7-3.1c0.09-0.36,0.15-0.66,0.17-0.9c0.03-0.24,0.03-0.43,0.03-0.57
		c-0.02-0.14-0.06-0.24-0.13-0.29c-0.07-0.05-0.16-0.08-0.28-0.08c-0.18,0-0.39,0.06-0.61,0.18c-0.23,0.12-0.45,0.28-0.7,0.47
		c-0.24,0.19-0.47,0.4-0.7,0.64c-0.23,0.24-0.45,0.46-0.66,0.7l-1,4.67h-1.39l1.24-5.82c0.02-0.11,0.03-0.22,0.06-0.32l0.03-0.24
		c0-0.17-0.06-0.24-0.17-0.24s-0.32,0.1-0.61,0.31l-0.38,0.26l-0.15-0.22c0.47-0.46,0.87-0.81,1.19-1.02
		c0.32-0.22,0.64-0.33,0.95-0.33c0.18,0,0.32,0.06,0.41,0.17c0.09,0.11,0.13,0.26,0.13,0.44c0,0.1-0.01,0.24-0.03,0.38
		c-0.02,0.15-0.04,0.31-0.07,0.46c-0.03,0.16-0.06,0.31-0.1,0.46s-0.06,0.28-0.08,0.38h0.07c0.27-0.33,0.55-0.64,0.82-0.92
		s0.54-0.52,0.81-0.73s0.53-0.37,0.8-0.48c0.27-0.12,0.53-0.17,0.8-0.17c0.38,0,0.66,0.12,0.86,0.37s0.29,0.55,0.29,0.92
		c0,0.15-0.02,0.34-0.04,0.6c-0.03,0.25-0.08,0.53-0.16,0.85l-0.78,3.38l-0.05,0.24l-0.02,0.27c0,0.33,0.28,0.32,0.86-0.03
		l0.43-0.24l0.15,0.22c-0.42,0.39-0.8,0.69-1.15,0.9C164.24,76.8,163.87,76.9,163.47,76.9"/>
	<path class="st0" d="M168.23,79.75c-0.4,0-0.79-0.03-1.15-0.11c-0.37-0.07-0.7-0.18-0.99-0.33c-0.29-0.15-0.52-0.32-0.69-0.55
		c-0.17-0.22-0.26-0.47-0.26-0.77c0-0.24,0.06-0.46,0.18-0.66c0.12-0.19,0.29-0.37,0.49-0.52c0.2-0.16,0.44-0.29,0.69-0.4
		c0.26-0.11,0.52-0.21,0.8-0.29v-0.06c-0.19-0.08-0.36-0.19-0.51-0.35c-0.14-0.16-0.21-0.37-0.21-0.63c0-0.17,0.04-0.33,0.13-0.47
		c0.08-0.14,0.18-0.27,0.31-0.39c0.12-0.12,0.25-0.23,0.41-0.32c0.15-0.09,0.3-0.17,0.45-0.25v-0.03c-0.3-0.16-0.53-0.38-0.73-0.65
		c-0.18-0.28-0.28-0.6-0.28-0.99c0-0.47,0.09-0.87,0.28-1.22c0.18-0.35,0.42-0.65,0.71-0.89c0.29-0.24,0.61-0.43,0.96-0.55
		c0.36-0.12,0.71-0.18,1.05-0.18c0.63,0,1.16,0.15,1.58,0.45c0.2-0.17,0.44-0.33,0.73-0.5c0.29-0.17,0.59-0.24,0.91-0.24
		c0.23,0,0.4,0.06,0.54,0.17c0.13,0.11,0.2,0.27,0.2,0.45c0,0.25-0.06,0.44-0.18,0.55s-0.28,0.17-0.47,0.17
		c-0.19,0-0.32-0.04-0.39-0.15c-0.06-0.1-0.12-0.21-0.18-0.33c-0.07-0.14-0.18-0.2-0.35-0.17c-0.17,0.03-0.36,0.11-0.59,0.24v0.04
		c0.19,0.18,0.34,0.39,0.45,0.62c0.1,0.23,0.16,0.5,0.16,0.8c0,0.47-0.1,0.87-0.28,1.22c-0.18,0.35-0.42,0.64-0.71,0.87
		s-0.61,0.39-0.96,0.5c-0.36,0.11-0.7,0.17-1.05,0.17c-0.38,0-0.73-0.06-1.05-0.17c-0.13,0.07-0.25,0.17-0.38,0.3
		c-0.13,0.13-0.2,0.31-0.2,0.52c0,0.11,0.04,0.23,0.11,0.33c0.08,0.1,0.23,0.17,0.45,0.19l1.63,0.1c0.73,0.05,1.29,0.22,1.68,0.5
		c0.39,0.28,0.59,0.7,0.59,1.26c0,0.36-0.09,0.7-0.25,1.02c-0.17,0.32-0.41,0.62-0.73,0.87c-0.33,0.25-0.73,0.45-1.21,0.6
		C169.4,79.68,168.85,79.75,168.23,79.75 M168.37,79.33c0.82,0,1.44-0.16,1.87-0.47s0.65-0.73,0.65-1.26c0-0.35-0.09-0.62-0.26-0.8
		c-0.17-0.18-0.5-0.3-0.96-0.34l-1.94-0.19c-0.15,0.06-0.3,0.13-0.45,0.24c-0.16,0.1-0.3,0.22-0.43,0.35
		c-0.12,0.14-0.23,0.3-0.31,0.47c-0.08,0.18-0.11,0.38-0.11,0.62c0,0.49,0.16,0.84,0.48,1.06
		C167.21,79.22,167.71,79.33,168.37,79.33 M169.27,73.59c0.52,0,0.93-0.25,1.22-0.76c0.3-0.51,0.45-1.18,0.45-2.01
		c0-0.85-0.37-1.27-1.1-1.27c-0.25,0-0.48,0.08-0.68,0.23c-0.21,0.15-0.38,0.36-0.52,0.61c-0.15,0.25-0.26,0.56-0.34,0.9
		c-0.08,0.34-0.11,0.71-0.11,1.09c0,0.43,0.09,0.73,0.27,0.93C168.62,73.49,168.89,73.59,169.27,73.59"/>
	<path class="st0" d="M88.24,46.6h1.2v6.7l-5.48-7.49h-2.74v0.78h1.13l0.38,0.53v8.47h-1.2v0.79h3.38V55.6h-1.19v-7.13l5.89,8.09
		h0.82v-9.97h1.18v-0.78h-3.38L88.24,46.6L88.24,46.6z M75.47,55.48h-1.36v-4.12h1.36c1.42,0,2.33,0.84,2.33,2.14
		C77.79,54.96,76.55,55.48,75.47,55.48 M74.11,46.74h1.3c0.69,0,1.85,0.24,1.85,1.81c0,1.31-0.97,1.9-1.93,1.9h-1.22V46.74z
		 M77.16,50.81c1.01-0.29,1.95-1.07,1.95-2.32c0-1.63-1.21-2.68-3.08-2.68h-4.87v0.78h1.18v9h-1.18v0.8h5.14
		c1.99,0,3.31-1.13,3.31-2.81C79.61,51.93,78.41,51.08,77.16,50.81 M98.84,46.6h1.36l-2.28,3.74l-2.45-3.74h1.23v-0.78h-4.28v0.78
		h0.95l3.22,4.94v4.06h-1.18v0.8h4.14v-0.8h-1.2v-4.15l2.97-4.85h0.86v-0.78h-3.35L98.84,46.6L98.84,46.6z M149,55.48h-3.5V46.6
		h1.18v-0.78h-4.14v0.78h1.19v9h-1.19v0.8h7.37v-2.3H149L149,55.48L149,55.48z M139.92,55.48h-3.48V46.6h1.18v-0.78h-4.14v0.78h1.18
		v9h-1.18v0.8h7.37v-2.3h-0.93L139.92,55.48L139.92,55.48z M114.8,53.42l-3.57-7.6h-2.96v0.78h1.2v9h-1.2v0.8h3.38v-0.8h-1.19v-7.33
		l3.95,8.42l3.75-8.24v7.14h-1.18v0.8h4.13v-0.8h-1.19V46.6h1.19v-0.78h-2.81L114.8,53.42z M156.26,55.58
		c-1.97,0-3.33-1.84-3.33-4.47c0-2.62,1.38-4.45,3.35-4.45c1.92,0,3.27,1.83,3.27,4.45C159.55,53.73,158.2,55.58,156.26,55.58
		 M156.26,45.63c-2.91,0-5.27,2.47-5.27,5.49c0,3.02,2.37,5.47,5.27,5.47c2.89,0,5.23-2.47,5.23-5.49
		C161.49,48.08,159.15,45.63,156.26,45.63 M169.9,45.82v0.78h1.2v6.7l-5.48-7.49h-2.75v0.78h1.14l0.38,0.53v8.46h-1.2v0.8h3.38v-0.8
		h-1.2v-7.12l5.89,8.09h0.82v-9.97h1.18v-0.78L169.9,45.82L169.9,45.82z M129.99,55.48h-3.67v-4.01h2.77v1.21h0.93v-3.31h-0.93v1.19
		h-2.77v-3.82h3.52v1.34h0.92v-2.7h-0.93v0.45h-6.46v0.78h1.17v9h-1.17v0.8h7.55v-2.3h-0.93V55.48z"/>
	<path class="st0" d="M36.19,62.11c0,0,1.43-4.63,6.12-9.64c2.08,1.59,4.59,3.04,7.57,4.29L36.19,62.11z"/>
	<path class="st0" d="M50.84,56.36c-2.9-1.59-5.27-3.42-7.21-5.27c1.92-1.85,4.3-3.68,7.21-5.27l13.51,5.27L50.84,56.36z"/>
	<path class="st0" d="M49.88,45.47c-2.98,1.25-5.49,2.7-7.57,4.29c-4.69-5-6.12-9.64-6.12-9.64L49.88,45.47z"/>
</g>
</svg>
