<?xml version="1.0" encoding="utf-8"?>
<!-- Generator: Adobe Illustrator 25.1.0, SVG Export Plug-In . SVG Version: 6.00 Build 0)  -->
<svg version="1.1" id="Warstwa_1" xmlns="http://www.w3.org/2000/svg" xmlns:xlink="http://www.w3.org/1999/xlink" x="0px" y="0px"
	 viewBox="0 0 210 120" style="enable-background:new 0 0 210 120;" xml:space="preserve">
<style type="text/css">
	.st0{fill:#9F9F9F;}
</style>
<g>
	<g>
		<g>
			<g>
				<g>
					<path class="st0" d="M50.95,62.49L54,60.85l2.26,4.69h-3.37c0,0-0.65,0-0.91-0.58C51.75,64.33,50.96,62.49,50.95,62.49
						L50.95,62.49z"/>
					<rect x="32.52" y="67.06" class="st0" width="24.45" height="2.19"/>
				</g>
			</g>
		</g>
		<path class="st0" d="M58.79,53.2c-0.01,0-3.85,2.21-4.75,2.54c-0.83,0.32-1.14-0.1-1.23-0.26c-0.22-0.34-0.58-1.46-0.64-1.63
			c0.02,0.01,0.23,0.05,0.72-0.07c0.58-0.15,5.89-3.12,5.9-3.12V53.2L58.79,53.2z"/>
		<path class="st0" d="M52.64,57.75l-2.52-5.59h-3.67l-5.16,9.63c0,0,2.54-0.07,4.17-1.3c0.41-0.24,1.57-3.28,2.63-5.32l1.65,4.14
			c-2.5,1.28-4.86,2.4-6.14,2.76c-3.37,0.97-7.47,1.55-8.94,0.25c-1.38-1.23,1.82-6.38,7.87-7.52c0.98-0.22,1.56-0.17,1.56-0.16
			c0-0.01-0.42-1.76-0.74-2.13c-0.45-0.56-0.89-0.67-1.55-0.58c-1.31,0.07-6.88,1.57-9.08,6.21c-1.22,2.63,0.41,5.31,1.46,6.08
			c0.49,0.36,3.66,3.19,10.97,0.32c7.21-2.8,13.66-7.2,13.67-7.2v-2.95C58.79,54.35,55.94,55.98,52.64,57.75z"/>
	</g>
	<g>
		<path class="st0" d="M65.66,66.83c0-0.4,0.08-0.74,0.26-1.06s0.41-0.57,0.7-0.78c0.29-0.21,0.62-0.37,0.99-0.48
			c0.37-0.11,0.76-0.17,1.15-0.17c0.38,0,0.76,0.06,1.14,0.17c0.38,0.11,0.73,0.29,1.06,0.51l-0.49,0.63
			c-0.26-0.18-0.52-0.32-0.76-0.42c-0.25-0.09-0.54-0.15-0.87-0.15c-0.29,0-0.56,0.04-0.81,0.12c-0.25,0.08-0.47,0.2-0.66,0.35
			c-0.19,0.15-0.33,0.33-0.44,0.55c-0.1,0.21-0.16,0.45-0.16,0.71c0,0.26,0.05,0.49,0.15,0.71c0.09,0.21,0.23,0.4,0.41,0.56
			c0.18,0.16,0.39,0.28,0.64,0.36c0.25,0.08,0.53,0.13,0.83,0.13c0.27,0,0.53-0.04,0.76-0.1c0.24-0.06,0.45-0.16,0.62-0.27v-0.92
			H68.7v-0.73h2.53v2.02c-0.3,0.2-0.65,0.38-1.07,0.53c-0.42,0.15-0.89,0.22-1.42,0.22c-0.46,0-0.88-0.06-1.26-0.19
			c-0.38-0.13-0.71-0.31-0.97-0.53c-0.27-0.22-0.47-0.49-0.62-0.79C65.72,67.52,65.66,67.19,65.66,66.83z"/>
		<path class="st0" d="M72.59,69.25v-4.81h2.66c0.31,0,0.6,0.03,0.87,0.09c0.27,0.06,0.51,0.16,0.71,0.29
			c0.2,0.13,0.36,0.29,0.48,0.48s0.18,0.43,0.18,0.69c0,0.2-0.04,0.39-0.11,0.55c-0.07,0.16-0.18,0.3-0.31,0.41
			c-0.13,0.12-0.29,0.21-0.46,0.3c-0.18,0.08-0.37,0.14-0.58,0.19l1.6,1.83h-1.22l-1.46-1.68h-1.32v1.68L72.59,69.25L72.59,69.25z
			 M73.64,66.82h1.53c0.37,0,0.67-0.07,0.89-0.21c0.22-0.15,0.33-0.34,0.33-0.61c0-0.26-0.11-0.45-0.32-0.58
			c-0.21-0.14-0.52-0.2-0.91-0.2h-1.52V66.82z"/>
		<path class="st0" d="M81.3,69.33c-0.39,0-0.74-0.06-1.06-0.16c-0.32-0.11-0.58-0.26-0.81-0.45c-0.22-0.19-0.4-0.44-0.52-0.71
			c-0.12-0.28-0.19-0.58-0.19-0.92v-2.65h1.06v2.71c0,0.21,0.04,0.41,0.11,0.58c0.07,0.18,0.18,0.32,0.32,0.45s0.3,0.22,0.48,0.3
			c0.19,0.06,0.4,0.1,0.63,0.1c0.23,0,0.44-0.04,0.63-0.1c0.19-0.06,0.35-0.17,0.48-0.3c0.13-0.13,0.23-0.28,0.31-0.45
			s0.11-0.37,0.11-0.58v-2.71h1.02v2.65c0,0.34-0.06,0.65-0.19,0.92c-0.12,0.28-0.3,0.51-0.52,0.71c-0.22,0.19-0.49,0.35-0.81,0.45
			C82.03,69.28,81.69,69.33,81.3,69.33z"/>
		<path class="st0" d="M85.28,69.25v-4.81h2.69c0.32,0,0.61,0.04,0.89,0.1c0.28,0.06,0.52,0.17,0.73,0.31
			c0.2,0.14,0.37,0.32,0.49,0.52s0.19,0.45,0.19,0.74c0,0.29-0.06,0.53-0.18,0.74c-0.12,0.21-0.29,0.39-0.49,0.53
			c-0.2,0.14-0.45,0.25-0.73,0.32c-0.28,0.07-0.58,0.1-0.89,0.1h-1.63v1.46H85.28z M86.33,67.02h1.6c0.38,0,0.68-0.08,0.9-0.24
			c0.22-0.17,0.33-0.39,0.33-0.69c0-0.29-0.11-0.51-0.32-0.67c-0.21-0.16-0.52-0.23-0.92-0.23h-1.6
			C86.33,65.19,86.33,67.02,86.33,67.02z"/>
		<path class="st0" d="M94.7,68.08h-2.71l-0.59,1.16h-1.08l2.55-4.81h1.08l2.55,4.81H95.3L94.7,68.08z M92.37,67.34h1.95l-0.96-1.91
			L92.37,67.34z"/>
		<path class="st0" d="M99.3,66.83c0-0.4,0.08-0.74,0.26-1.06c0.18-0.31,0.41-0.57,0.7-0.78c0.29-0.21,0.62-0.37,0.99-0.48
			c0.37-0.11,0.76-0.17,1.15-0.17c0.38,0,0.76,0.06,1.14,0.17c0.38,0.11,0.73,0.29,1.06,0.51l-0.49,0.63
			c-0.26-0.18-0.52-0.32-0.76-0.42c-0.25-0.09-0.54-0.15-0.87-0.15c-0.29,0-0.56,0.05-0.81,0.13c-0.25,0.08-0.47,0.2-0.66,0.36
			s-0.33,0.33-0.44,0.55c-0.1,0.21-0.16,0.45-0.16,0.71c0,0.26,0.06,0.49,0.16,0.71c0.1,0.21,0.25,0.4,0.44,0.55
			c0.19,0.16,0.41,0.27,0.66,0.36c0.25,0.08,0.52,0.13,0.81,0.13c0.18,0,0.33-0.01,0.48-0.04s0.3-0.06,0.44-0.11
			c0.14-0.05,0.27-0.11,0.41-0.19c0.13-0.07,0.27-0.16,0.41-0.25l0.49,0.63c-0.33,0.23-0.7,0.41-1.09,0.53s-0.79,0.18-1.19,0.18
			s-0.78-0.06-1.15-0.17c-0.37-0.11-0.71-0.28-0.99-0.49c-0.29-0.21-0.52-0.47-0.7-0.79C99.39,67.58,99.3,67.23,99.3,66.83z"/>
		<path class="st0" d="M105.77,69.25v-4.81h2.66c0.31,0,0.6,0.03,0.87,0.09c0.27,0.06,0.51,0.16,0.71,0.29
			c0.2,0.13,0.36,0.29,0.48,0.48s0.18,0.43,0.18,0.69c0,0.2-0.04,0.39-0.11,0.55c-0.07,0.16-0.18,0.3-0.31,0.41
			c-0.13,0.12-0.29,0.21-0.46,0.3s-0.37,0.14-0.58,0.19l1.6,1.83h-1.22l-1.46-1.68h-1.32v1.68L105.77,69.25L105.77,69.25z
			 M106.83,66.82h1.53c0.37,0,0.67-0.07,0.89-0.21c0.22-0.15,0.33-0.34,0.33-0.61c0-0.26-0.11-0.45-0.32-0.58
			c-0.21-0.14-0.52-0.2-0.91-0.2h-1.52V66.82z"/>
		<path class="st0" d="M113.29,69.25c-0.45,0-0.81-0.12-1.05-0.36c-0.24-0.24-0.37-0.58-0.37-1.03v-3.42h4.45v0.77h-3.4v1.16h3.12
			v0.75h-3.12v0.74c0,0.42,0.2,0.62,0.62,0.62h2.88v0.77H113.29z M114.18,63.05h1.09l-0.82,0.84h-0.9L114.18,63.05z"/>
		<path class="st0" d="M117.73,69.25v-4.81h2.22c0.47,0,0.9,0.06,1.29,0.18c0.39,0.11,0.72,0.28,0.99,0.49
			c0.28,0.21,0.49,0.46,0.64,0.76c0.15,0.3,0.23,0.62,0.23,0.98s-0.07,0.7-0.23,0.98c-0.15,0.3-0.36,0.55-0.64,0.76
			c-0.28,0.21-0.61,0.37-0.99,0.49c-0.39,0.11-0.82,0.18-1.29,0.18L117.73,69.25L117.73,69.25z M118.78,68.48h1.23
			c0.3,0,0.58-0.04,0.82-0.12c0.24-0.07,0.45-0.19,0.63-0.33c0.18-0.14,0.32-0.32,0.41-0.52c0.09-0.2,0.15-0.43,0.15-0.67
			c0-0.25-0.05-0.47-0.15-0.68c-0.09-0.2-0.23-0.37-0.41-0.52c-0.18-0.15-0.38-0.26-0.63-0.33c-0.24-0.07-0.52-0.12-0.82-0.12h-1.23
			V68.48z"/>
		<path class="st0" d="M124.26,69.25v-4.81h1.06v4.81H124.26z"/>
		<path class="st0" d="M128.3,65.2h-1.89v-0.77h4.83v0.77h-1.89v4.04h-1.06L128.3,65.2L128.3,65.2z"/>
		<path class="st0" d="M137.64,68.08h-2.71l-0.59,1.16h-1.08l2.55-4.81h1.08l2.55,4.81h-1.21L137.64,68.08z M135.31,67.34h1.95
			l-0.96-1.91L135.31,67.34z"/>
		<path class="st0" d="M139.79,66.83c0-0.4,0.08-0.74,0.26-1.06c0.18-0.31,0.41-0.57,0.7-0.78c0.29-0.21,0.62-0.37,0.99-0.48
			c0.37-0.11,0.76-0.17,1.15-0.17c0.38,0,0.76,0.06,1.14,0.17c0.38,0.11,0.73,0.29,1.05,0.51l-0.49,0.63
			c-0.26-0.18-0.52-0.32-0.76-0.42c-0.25-0.09-0.54-0.15-0.87-0.15c-0.29,0-0.56,0.04-0.81,0.12c-0.25,0.08-0.47,0.2-0.66,0.35
			c-0.19,0.15-0.33,0.33-0.44,0.55s-0.16,0.45-0.16,0.71c0,0.26,0.05,0.49,0.15,0.71c0.09,0.21,0.23,0.4,0.41,0.56
			c0.18,0.16,0.39,0.28,0.64,0.36c0.25,0.08,0.53,0.13,0.83,0.13c0.27,0,0.53-0.04,0.76-0.1c0.24-0.06,0.45-0.16,0.62-0.27v-0.92
			h-1.48v-0.73h2.53v2.02c-0.3,0.2-0.65,0.38-1.07,0.53s-0.89,0.22-1.42,0.22c-0.46,0-0.88-0.06-1.26-0.19
			c-0.38-0.13-0.71-0.31-0.97-0.53c-0.27-0.22-0.47-0.49-0.62-0.79C139.86,67.52,139.79,67.19,139.79,66.83z"/>
		<path class="st0" d="M146.73,69.25v-4.81h2.66c0.31,0,0.6,0.03,0.87,0.09c0.27,0.06,0.51,0.16,0.71,0.29
			c0.2,0.13,0.36,0.29,0.48,0.48s0.18,0.43,0.18,0.69c0,0.2-0.04,0.39-0.11,0.55c-0.07,0.16-0.18,0.3-0.31,0.41
			c-0.13,0.12-0.29,0.21-0.46,0.3s-0.37,0.14-0.58,0.19l1.6,1.83h-1.22l-1.46-1.68h-1.32v1.68L146.73,69.25L146.73,69.25z
			 M147.78,66.82h1.53c0.37,0,0.67-0.07,0.89-0.21c0.22-0.15,0.33-0.34,0.33-0.61c0-0.26-0.11-0.45-0.32-0.58
			c-0.21-0.14-0.52-0.2-0.91-0.2h-1.52V66.82z"/>
		<path class="st0" d="M153.01,69.25v-4.81h1.05v4.81H153.01z"/>
		<path class="st0" d="M155.29,66.83c0-0.4,0.08-0.74,0.26-1.06c0.18-0.31,0.41-0.57,0.7-0.78c0.29-0.21,0.62-0.37,0.99-0.48
			c0.37-0.11,0.76-0.17,1.15-0.17c0.38,0,0.76,0.06,1.14,0.17c0.38,0.11,0.73,0.29,1.06,0.51l-0.49,0.63
			c-0.26-0.18-0.52-0.32-0.76-0.42c-0.25-0.09-0.54-0.15-0.87-0.15c-0.29,0-0.56,0.05-0.81,0.13c-0.25,0.08-0.47,0.2-0.66,0.36
			c-0.19,0.16-0.33,0.33-0.44,0.55c-0.1,0.21-0.16,0.45-0.16,0.71c0,0.26,0.06,0.49,0.16,0.71c0.1,0.21,0.25,0.4,0.44,0.55
			c0.19,0.16,0.41,0.27,0.66,0.36c0.25,0.08,0.52,0.13,0.81,0.13c0.18,0,0.33-0.01,0.48-0.04c0.15-0.03,0.3-0.06,0.44-0.11
			c0.14-0.05,0.27-0.11,0.41-0.19c0.13-0.07,0.27-0.16,0.41-0.25l0.49,0.63c-0.33,0.23-0.7,0.41-1.09,0.53
			c-0.4,0.12-0.79,0.18-1.19,0.18c-0.4,0-0.78-0.06-1.15-0.17c-0.37-0.11-0.71-0.28-0.99-0.49c-0.29-0.21-0.52-0.47-0.7-0.79
			C155.37,67.58,155.29,67.23,155.29,66.83z"/>
		<path class="st0" d="M164.2,69.33c-0.45,0-0.87-0.06-1.25-0.19c-0.38-0.13-0.71-0.31-0.98-0.54c-0.27-0.22-0.49-0.49-0.64-0.8
			c-0.16-0.31-0.23-0.62-0.23-0.96s0.07-0.66,0.23-0.96c0.16-0.31,0.37-0.57,0.64-0.8c0.28-0.22,0.6-0.41,0.98-0.54
			c0.38-0.13,0.8-0.19,1.25-0.19s0.87,0.06,1.25,0.19c0.38,0.13,0.71,0.31,0.98,0.54c0.28,0.22,0.49,0.49,0.64,0.8
			c0.16,0.31,0.23,0.62,0.23,0.96s-0.07,0.66-0.23,0.96c-0.16,0.31-0.37,0.57-0.64,0.8c-0.27,0.22-0.6,0.41-0.98,0.54
			C165.07,69.27,164.65,69.33,164.2,69.33z M164.2,65.09c-0.3,0-0.58,0.05-0.82,0.13c-0.24,0.09-0.45,0.21-0.63,0.37
			c-0.18,0.16-0.32,0.34-0.42,0.56c-0.1,0.21-0.15,0.44-0.15,0.68s0.05,0.47,0.15,0.68c0.1,0.21,0.23,0.4,0.42,0.56
			c0.18,0.16,0.39,0.28,0.63,0.37c0.24,0.09,0.52,0.13,0.82,0.13s0.58-0.05,0.82-0.13c0.24-0.09,0.45-0.21,0.63-0.37
			c0.18-0.16,0.32-0.34,0.42-0.56c0.1-0.21,0.15-0.44,0.15-0.68s-0.05-0.47-0.15-0.68c-0.1-0.21-0.24-0.4-0.42-0.56
			s-0.39-0.28-0.63-0.37C164.77,65.14,164.49,65.09,164.2,65.09z"/>
		<path class="st0" d="M168.33,69.25v-4.81h1.05v4.04h3.13v0.77H168.33z"/>
		<path class="st0" d="M174.62,69.25c-0.45,0-0.81-0.12-1.05-0.36c-0.24-0.24-0.37-0.58-0.37-1.03v-3.42h4.45v0.77h-3.4v1.16h3.12
			v0.75h-3.12v0.74c0,0.42,0.2,0.62,0.62,0.62h2.88v0.77H174.62z"/>
	</g>
	<g>
		<path class="st0" d="M65.31,57c0-0.8,0.17-1.5,0.51-2.12c0.34-0.62,0.8-1.14,1.36-1.58c0.57-0.43,1.22-0.76,1.96-0.98
			c0.73-0.22,1.49-0.33,2.28-0.33c0.75,0,1.5,0.11,2.25,0.34c0.75,0.22,1.45,0.58,2.09,1.04l-0.97,1.26
			c-0.52-0.36-1.02-0.64-1.51-0.83c-0.49-0.19-1.07-0.29-1.73-0.29c-0.58,0-1.11,0.08-1.6,0.26c-0.49,0.17-0.93,0.41-1.3,0.72
			c-0.37,0.31-0.66,0.68-0.87,1.11c-0.2,0.43-0.32,0.91-0.32,1.42c0,0.52,0.1,0.99,0.32,1.42c0.2,0.43,0.5,0.8,0.87,1.11
			c0.37,0.31,0.81,0.55,1.3,0.72c0.49,0.17,1.03,0.26,1.6,0.26c0.34,0,0.66-0.03,0.96-0.07c0.3-0.06,0.58-0.13,0.85-0.23
			s0.54-0.22,0.8-0.37c0.26-0.15,0.53-0.32,0.81-0.5l0.97,1.26c-0.66,0.47-1.37,0.83-2.16,1.07c-0.78,0.24-1.57,0.36-2.36,0.36
			c-0.79,0-1.55-0.11-2.28-0.34c-0.73-0.22-1.39-0.56-1.96-0.98s-1.03-0.96-1.36-1.59C65.48,58.51,65.31,57.8,65.31,57z"/>
		<path class="st0" d="M84.46,59.53H79.1l-1.17,2.35h-2.12l5.04-9.72h2.12l5.04,9.72h-2.38L84.46,59.53z M79.85,58.01h3.85
			l-1.92-3.86L79.85,58.01z"/>
		<path class="st0" d="M88.99,61.87v-9.72h5.26c0.61,0,1.19,0.06,1.73,0.19c0.54,0.12,1.01,0.32,1.41,0.58s0.72,0.58,0.96,0.97
			c0.23,0.39,0.34,0.85,0.34,1.39c0,0.42-0.07,0.79-0.21,1.1c-0.14,0.32-0.34,0.59-0.6,0.83c-0.26,0.23-0.57,0.44-0.91,0.59
			c-0.34,0.16-0.73,0.29-1.14,0.38L99,61.87h-2.43l-2.89-3.39h-2.6v3.39H88.99z M91.07,56.98h3.02c0.74,0,1.33-0.15,1.76-0.44
			c0.44-0.29,0.65-0.71,0.65-1.22s-0.21-0.92-0.64-1.19c-0.43-0.27-1.02-0.41-1.79-0.41h-3.02L91.07,56.98L91.07,56.98z"/>
		<path class="st0" d="M103.25,61.87c-0.9,0-1.59-0.24-2.08-0.73c-0.48-0.49-0.73-1.18-0.73-2.07v-6.91h8.8v1.56h-6.72v2.35h6.17
			v1.51h-6.17v1.49c0,0.83,0.41,1.25,1.22,1.25h5.7v1.56L103.25,61.87L103.25,61.87z"/>
		<path class="st0" d="M111.52,61.87v-9.72h8.8v1.56h-6.72v3.04h5.89v1.51h-5.89v3.61H111.52z"/>
		<path class="st0" d="M121.92,61.87v-9.72h2.09v8.16h6.18v1.56H121.92z"/>
		<path class="st0" d="M133.96,61.87c-0.9,0-1.59-0.24-2.08-0.73c-0.48-0.49-0.73-1.18-0.73-2.07v-6.91h8.8v1.56h-6.72v2.35h6.17
			v1.51h-6.17v1.49c0,0.83,0.41,1.25,1.22,1.25h5.7v1.56L133.96,61.87L133.96,61.87z"/>
		<path class="st0" d="M144.84,61.87c-0.9,0-1.59-0.24-2.08-0.73c-0.48-0.49-0.73-1.18-0.73-2.07v-6.91h8.8v1.56h-6.72v2.35h6.17
			v1.51h-6.17v1.49c0,0.83,0.41,1.25,1.22,1.25h5.7v1.56L144.84,61.87L144.84,61.87z"/>
		<path class="st0" d="M156.08,53.71h-3.74v-1.56h9.56v1.56h-3.74v8.16h-2.09L156.08,53.71L156.08,53.71z"/>
	</g>
</g>
</svg>
