<?xml version="1.0" encoding="utf-8"?>
<!-- Generator: Adobe Illustrator 25.1.0, SVG Export Plug-In . SVG Version: 6.00 Build 0)  -->
<svg version="1.1" id="Warstwa_1" xmlns="http://www.w3.org/2000/svg" xmlns:xlink="http://www.w3.org/1999/xlink" x="0px" y="0px"
	 viewBox="0 0 210 120" style="enable-background:new 0 0 210 120;" xml:space="preserve">
<style type="text/css">
	.st0{fill:#9F9F9F;}
</style>
<g>
	<polygon class="st0" points="169.36,45.05 166.49,45.05 160.75,45.05 155.02,45.05 155.02,51.03 160.75,51.03 166.49,51.03 
		175.09,60 166.49,68.97 160.75,68.97 155.02,68.97 155.02,74.95 160.75,74.95 166.49,74.95 169.36,74.95 183.69,60 	"/>
	<polygon class="st0" points="49.25,51.03 54.98,51.03 54.98,45.05 49.25,45.05 43.51,45.05 40.64,45.05 26.31,60 40.64,74.95 
		43.51,74.95 49.25,74.95 54.98,74.95 54.98,68.97 49.25,68.97 43.51,68.97 34.91,60 43.51,51.03 	"/>
	<polygon class="st0" points="60.71,67.51 60.71,52.49 62.12,51.03 67.91,51.03 69.31,52.49 69.31,56.2 66.44,56.2 66.44,54.31 
		66.1,53.96 63.93,53.96 63.59,54.31 63.59,65.69 63.93,66.04 66.1,66.04 66.44,65.69 66.44,63.8 69.31,63.8 69.31,67.51 
		67.91,68.97 62.12,68.97 	"/>
	<path class="st0" d="M77.17,65.1h-3.53l-0.77,3.87h-2.94L74,51.03h2.81l4.07,17.94h-2.94L77.17,65.1z M76.61,62.2l-1.2-6.04
		l-1.2,6.04H76.61z"/>
	<path class="st0" d="M81.82,68.97V51.03h7.42l1.4,1.46v8.02l-1.4,1.46l1.4,6.99h-2.83l-1.4-6.99h-1.72v6.99H81.82z M87.46,59.08
		l0.32-0.35v-4.44l-0.32-0.33h-2.76v5.12H87.46z"/>
	<polygon class="st0" points="92.46,67.51 92.46,52.49 93.86,51.03 99.86,51.03 101.26,52.49 101.26,56.2 98.39,56.2 98.39,54.24 
		98.07,53.89 95.69,53.89 95.35,54.24 95.35,65.69 95.69,66.04 98.07,66.04 98.39,65.69 98.39,62.1 96.98,62.1 96.98,59.15 
		101.26,59.15 101.26,67.51 99.86,68.97 93.86,68.97 	"/>
	<path class="st0" d="M111.72,52.49v15.01l-1.4,1.46h-5.79l-1.4-1.46V52.49l1.4-1.46h5.79L111.72,52.49z M108.48,53.96h-2.17
		l-0.32,0.33v11.45l0.32,0.33h2.17l0.34-0.33V54.29L108.48,53.96z"/>
	<polygon class="st0" points="122.31,67.51 120.91,68.97 115.11,68.97 113.71,67.51 113.71,51.03 116.58,51.03 116.58,65.74 
		116.9,66.07 119.12,66.07 119.43,65.74 119.43,51.03 122.31,51.03 	"/>
	<polygon class="st0" points="124.3,68.97 124.3,51.03 127.4,51.03 131.13,62.03 131.13,51.03 134.01,51.03 134.01,68.97 
		130.91,68.97 127.17,57.97 127.17,68.97 	"/>
	<rect x="136" y="51.03" class="st0" width="2.87" height="17.94"/>
	<polygon class="st0" points="149.29,53.93 146.19,53.93 146.19,68.97 143.31,68.97 143.31,53.93 140.21,53.93 140.21,51.03 
		149.29,51.03 	"/>
	<g>
		<path class="st0" d="M77.8,71.88h1.24c0.36,0,0.64,0.11,0.82,0.3c0.14,0.15,0.22,0.36,0.22,0.59v0.01c0,0.5-0.33,0.79-0.79,0.88
			l0.89,1.23h-0.4l-0.84-1.17h-0.83v1.17H77.8V71.88z M79.02,73.42c0.43,0,0.74-0.23,0.74-0.62v-0.01c0-0.37-0.27-0.6-0.74-0.6
			h-0.89v1.22H79.02z"/>
		<polygon class="st0" points="82.24,71.88 84.33,71.88 84.33,72.19 82.57,72.19 82.57,73.22 84.15,73.22 84.15,73.53 82.57,73.53 
			82.57,74.59 84.35,74.59 84.35,74.9 82.24,74.9 		"/>
		<polygon class="st0" points="86.46,71.88 86.77,71.88 88.59,74.3 88.59,71.88 88.91,71.88 88.91,74.9 88.65,74.9 86.78,72.42 
			86.78,74.9 86.46,74.9 		"/>
		<polygon class="st0" points="91.94,72.19 90.97,72.19 90.97,71.88 93.24,71.88 93.24,72.19 92.27,72.19 92.27,74.9 91.94,74.9 		
			"/>
		<polygon class="st0" points="98.9,73.7 97.69,71.88 98.09,71.88 99.07,73.39 100.05,71.88 100.43,71.88 99.23,73.7 99.23,74.9 
			98.9,74.9 		"/>
		<path class="st0" d="M102.03,73.4L102.03,73.4c0-0.84,0.6-1.57,1.48-1.57c0.88,0,1.47,0.72,1.47,1.55v0.01
			c0,0.83-0.6,1.56-1.48,1.56C102.62,74.95,102.03,74.23,102.03,73.4 M104.64,73.4L104.64,73.4c0-0.69-0.48-1.25-1.14-1.25
			c-0.66,0-1.13,0.55-1.13,1.24v0.01c0,0.69,0.48,1.25,1.14,1.25C104.17,74.63,104.64,74.08,104.64,73.4"/>
		<path class="st0" d="M107.07,73.63v-1.76h0.33v1.73c0,0.65,0.33,1.02,0.88,1.02c0.53,0,0.87-0.34,0.87-1v-1.76h0.33v1.73
			c0,0.88-0.48,1.34-1.21,1.34C107.56,74.94,107.07,74.49,107.07,73.63"/>
		<path class="st0" d="M111.7,71.88h1.24c0.36,0,0.64,0.11,0.82,0.3c0.14,0.15,0.22,0.36,0.22,0.59v0.01c0,0.5-0.33,0.79-0.79,0.88
			l0.89,1.23h-0.4l-0.84-1.17h-0.83v1.17h-0.33V71.88z M112.92,73.42c0.43,0,0.74-0.23,0.74-0.62v-0.01c0-0.37-0.27-0.6-0.74-0.6
			h-0.89v1.22H112.92z"/>
		<polygon class="st0" points="118.61,71.88 118.96,71.88 119.79,74.39 120.58,71.87 120.85,71.87 121.65,74.39 122.47,71.88 
			122.82,71.88 121.78,74.92 121.51,74.92 120.71,72.47 119.91,74.92 119.64,74.92 		"/>
		<path class="st0" d="M125.56,71.86h0.31l1.32,3.04h-0.35l-0.34-0.8h-1.58l-0.34,0.8h-0.33L125.56,71.86z M126.36,73.79l-0.66-1.54
			l-0.66,1.54H126.36z"/>
		<polygon class="st0" points="129.65,73.7 128.45,71.88 128.84,71.88 129.82,73.39 130.8,71.88 131.19,71.88 129.98,73.7 
			129.98,74.9 129.65,74.9 		"/>
	</g>
</g>
</svg>
