<?xml version="1.0" encoding="utf-8"?>
<!-- Generator: Adobe Illustrator 19.0.0, SVG Export Plug-In . SVG Version: 6.00 Build 0)  -->
<svg version="1.1" id="Warstwa_1" xmlns="http://www.w3.org/2000/svg" xmlns:xlink="http://www.w3.org/1999/xlink" x="0px" y="0px"
	 viewBox="0 0 210.1 120.1" style="enable-background:new 0 0 210.1 120.1;" xml:space="preserve">
<style type="text/css">
	.st0{fill:#FEFEFE;}
	.st1{fill:#9F9F9F;}
</style>
<g>
	<path class="st0" d="M-0.9,119.6c0-40,0-80,0-120c70.3,0,140.7,0,211,0c0,40,0,80,0,120C139.8,119.6,69.4,119.6-0.9,119.6z
		 M120.9,43.8c-0.4-0.4-0.9-1-1.4-1.2c-4.6-1.2-9.3-2.4-14.2-2.1c-5.3,0.3-9.9,2.7-13.4,6.1C87,51.2,86.2,57.7,87.3,64
		c0.5,2.9,2.3,5.8,4.2,8.2c1.4,1.8,3.7,2.9,5.6,4.3c2,1.4,4.5,1.6,6.7,1.9c6.1,0.8,11.9-0.7,17.1-3.2c0-3.1,0-5.9,0-8.7
		c-4.6,2.9-9.2,4.5-14.6,4.1c-2.6-0.2-4.7-0.9-6.4-2.8c-1-1.2-1.9-2.5-2.8-3.8c0-3,0-6,0-9.3c1.4-1.7,2.9-3.5,4-4.8
		c7.3-2.5,13.5-1.8,19.8,2C120.9,49,120.9,46.4,120.9,43.8z M159.9,43.7c-2.7-2.3-6.2-2.6-9.6-3.1c-1.8-0.2-3.7-0.2-5.5,0
		c-1.7,0.2-3.4,0.5-5.1,1c-5.4,1.7-9.5,4.9-11.6,10.3c-1.3,3.1-0.9,6.4-1,9.6c-0.1,9.7,7.4,15.6,15.6,16.9c6,1,12.1,0.2,17.2-3.3
		c0-2.9,0-5.7,0-8.4c-6.7,4.3-13.4,5.7-20.4,1.7c-1.6-2.3-2.8-4.7-3.4-7.3c-0.5-2.6,0.2-5.3,1.5-7.3c1.4-2.2,3.9-3.7,5.6-5.2
		c9,0,9,0,16.6,3.1C159.9,49,159.9,46.5,159.9,43.7z M80.9,43.5C79.6,43,78.3,42.4,77,42c-7.1-2.4-14.1-2.3-20.6,1.6
		c-5,3-8.5,7.2-8.3,13.6c0.1,3,0,6,0,8.8c5.8,12.5,18.8,16.3,33,9.2c-0.1-2.8,0.1-5.7-0.1-8.6c-2.7,1.4-5,2.6-7.8,4
		c-1.7,0-3.9,0-6,0c-5.6-0.1-10-4.2-10.1-10.1c0-1.5,0-3,0-4c1.8-3.7,4.2-6.1,7.6-7.7c5.5-0.6,11-0.1,16.2,3.4
		C80.9,49,80.9,46.6,80.9,43.5z"/>
	<path class="st1" d="M120.9,43.8c0,2.7,0,5.2,0,8.2c-6.2-3.8-12.5-4.6-19.8-2c-1.1,1.3-2.6,3.1-4,4.8c0,3.3,0,6.3,0,9.3
		c0.9,1.2,1.8,2.6,2.8,3.8c1.7,1.9,3.8,2.6,6.4,2.8c5.3,0.3,10-1.2,14.6-4.1c0,2.8,0,5.6,0,8.7c-5.2,2.5-11,4-17.1,3.2
		c-2.2-0.3-4.7-0.4-6.7-1.9c-1.9-1.4-4.3-2.5-5.6-4.3c-1.8-2.4-3.7-5.3-4.2-8.2c-1.1-6.3-0.2-12.8,4.6-17.4
		c3.5-3.4,8.1-5.8,13.4-6.1c4.9-0.3,9.5,0.9,14.2,2.1C120,42.8,120.4,43.4,120.9,43.8z"/>
	<path class="st1" d="M159.9,43.7c0,2.7,0,5.3,0,8c-7.6-3.1-7.6-3.1-16.6-3.1c-1.7,1.5-4.2,3-5.6,5.2c-1.3,2-2.1,4.7-1.5,7.3
		c0.5,2.6,1.8,4.9,3.4,7.3c7,4,13.7,2.6,20.4-1.7c0,2.7,0,5.5,0,8.4c-5.1,3.5-11.2,4.3-17.2,3.3c-8.2-1.3-15.7-7.2-15.6-16.9
		c0-3.2-0.3-6.4,1-9.6c2.2-5.4,6.2-8.7,11.6-10.3c1.6-0.5,3.4-0.8,5.1-1c1.8-0.2,3.7-0.2,5.5,0C153.7,41.1,157.2,41.4,159.9,43.7z"
		/>
	<path class="st1" d="M80.9,43.5c0,3.1,0,5.5,0,8.6c-5.2-3.5-10.7-4-16.2-3.4c-3.4,1.6-5.8,4.1-7.6,7.7c0,1,0,2.5,0,4
		c0.1,5.9,4.5,10,10.1,10.1c2.2,0,4.3,0,6,0c2.7-1.4,5.1-2.6,7.8-4c0.3,2.9,0.1,5.8,0.1,8.6c-14.3,7.1-27.2,3.3-33-9.2
		c0-2.8,0.1-5.8,0-8.8c-0.2-6.4,3.3-10.6,8.3-13.6c6.5-3.9,13.5-4,20.6-1.6C78.3,42.4,79.6,43,80.9,43.5z"/>
</g>
</svg>
