<?xml version="1.0" encoding="utf-8"?>
<!-- Generator: Adobe Illustrator 25.1.0, SVG Export Plug-In . SVG Version: 6.00 Build 0)  -->
<svg version="1.1" id="Warstwa_1" xmlns="http://www.w3.org/2000/svg" xmlns:xlink="http://www.w3.org/1999/xlink" x="0px" y="0px"
	 viewBox="0 0 210 120" style="enable-background:new 0 0 210 120;" xml:space="preserve">
<style type="text/css">
	.st0{fill:#9F9F9F;}
</style>
<g>
	<path class="st0" d="M46.69,60.11V60c0-10.76,8.11-19.57,19.73-19.57c7.14,0,11.41,2.38,14.92,5.84l-5.3,6.11
		c-2.92-2.65-5.89-4.27-9.68-4.27c-6.38,0-10.97,5.3-10.97,11.79V60c0,6.49,4.49,11.89,10.97,11.89c4.32,0,6.97-1.73,9.95-4.43
		l5.3,5.35c-3.89,4.16-8.22,6.76-15.52,6.76C54.96,79.57,46.69,70.97,46.69,60.11z"/>
	<path class="st0" d="M87.58,60.11V60c0-10.76,8.11-19.57,19.73-19.57c7.14,0,11.41,2.38,14.92,5.84l-5.3,6.11
		c-2.92-2.65-5.89-4.27-9.68-4.27c-6.38,0-10.97,5.3-10.97,11.79V60c0,6.49,4.49,11.89,10.97,11.89c4.32,0,6.97-1.73,9.95-4.43
		l5.3,5.35c-3.89,4.16-8.22,6.76-15.52,6.76C95.85,79.57,87.58,70.97,87.58,60.11z"/>
	<path class="st0" d="M128.39,60.11V60c0-10.76,8.11-19.57,19.73-19.57c7.14,0,11.41,2.38,14.92,5.84l-5.3,6.11
		c-2.92-2.65-5.89-4.27-9.68-4.27c-6.38,0-10.97,5.3-10.97,11.79V60c0,6.49,4.49,11.89,10.97,11.89c4.32,0,6.97-1.73,9.95-4.43
		l5.3,5.35c-3.89,4.16-8.22,6.76-15.52,6.76C136.66,79.57,128.39,70.97,128.39,60.11z"/>
</g>
</svg>
