<?xml version="1.0" encoding="utf-8"?>
<!-- Generator: Adobe Illustrator 25.1.0, SVG Export Plug-In . SVG Version: 6.00 Build 0)  -->
<svg version="1.1" id="Warstwa_1" xmlns="http://www.w3.org/2000/svg" xmlns:xlink="http://www.w3.org/1999/xlink" x="0px" y="0px"
	 viewBox="0 0 210 120" style="enable-background:new 0 0 210 120;" xml:space="preserve">
<style type="text/css">
	.st0{fill:#9F9F9F;}
	.st1{fill:none;stroke:#9F9F9F;stroke-miterlimit:10;}
</style>
<path class="st0" d="M105.85,50.03V49.3c0-0.29-0.03-0.51-0.09-0.65s-0.15-0.27-0.28-0.4c-0.13-0.12-0.37-0.21-0.72-0.26
	c-0.35-0.05-0.75-0.07-1.2-0.07h-0.33c-0.62,0-1.08,0.03-1.36,0.1c-0.29,0.07-0.52,0.19-0.7,0.37c-0.18,0.18-0.31,0.44-0.38,0.76
	c-0.07,0.33-0.11,0.72-0.11,1.19v3.05c0,0.54,0.04,0.99,0.13,1.37c0.09,0.37,0.24,0.63,0.44,0.78c0.23,0.19,0.49,0.3,0.78,0.34
	c0.3,0.04,0.73,0.06,1.31,0.06h0.61h0.39c0.16-0.02,0.27-0.03,0.34-0.03c0.26-0.05,0.44-0.1,0.55-0.16
	c0.11-0.05,0.23-0.14,0.35-0.25c0.17-0.18,0.27-0.41,0.31-0.69c0.04-0.28,0.06-0.69,0.06-1.22h2.21v0.73v0.28
	c0,0.51-0.06,0.95-0.17,1.34c-0.15,0.49-0.37,0.87-0.68,1.15c-0.59,0.47-1.36,0.7-2.3,0.7c-0.27,0-0.66,0.02-1.17,0.05
	c-0.51,0.03-0.87,0.05-1.09,0.05c-0.83,0-1.52-0.08-2.07-0.24c-0.55-0.16-0.98-0.4-1.29-0.71c-0.43-0.43-0.7-1.07-0.82-1.94
	c-0.08-0.57-0.13-1.56-0.13-2.97c0-1.23,0.01-2.01,0.03-2.32c0.07-1.06,0.35-1.9,0.82-2.52c0.3-0.37,0.73-0.65,1.29-0.84
	c0.66-0.23,1.6-0.34,2.8-0.34c1.23,0,2.09,0.06,2.58,0.17c0.49,0.11,0.88,0.3,1.17,0.56c0.39,0.36,0.66,0.89,0.79,1.59
	c0.07,0.38,0.11,0.95,0.11,1.69H105.85z"/>
<polygon class="st0" points="109.69,46.13 111.95,46.13 111.95,50.89 117.39,50.89 117.39,46.13 119.63,46.13 119.63,57.78 
	117.39,57.78 117.39,52.8 111.95,52.8 111.95,57.78 109.69,57.78 "/>
<polygon class="st0" points="121.52,57.78 121.52,46.13 129.53,46.13 129.53,48.04 123.76,48.04 123.76,50.95 129.24,50.95 
	129.24,52.77 123.76,52.77 123.76,55.86 129.56,55.86 129.56,57.78 "/>
<polygon class="st0" points="131.29,57.78 131.29,46.13 134.91,46.13 138.07,54.78 138.13,54.78 141.25,46.13 144.92,46.13 
	144.92,57.78 142.68,57.78 142.87,47.95 142.81,47.95 139.12,57.78 137.12,57.78 133.42,48.01 133.36,48.01 133.48,52.34 
	133.54,57.78 "/>
<polygon class="st0" points="146.82,57.78 146.82,46.13 154.83,46.13 154.83,48.04 149.06,48.04 149.06,50.95 154.53,50.95 
	154.53,52.77 149.06,52.77 149.06,55.86 154.86,55.86 154.86,57.78 "/>
<polygon class="st0" points="156.59,46.13 158.84,46.13 158.84,50.89 159.9,50.89 163.78,46.13 166.52,46.13 161.81,51.82 
	167,57.78 164.19,57.78 159.9,52.8 158.84,52.8 158.84,57.78 156.59,57.78 "/>
<path class="st0" d="M172.27,47.93c-0.71,0-1.26,0.05-1.65,0.16c-0.39,0.1-0.65,0.29-0.77,0.56c-0.12,0.27-0.2,0.54-0.25,0.81
	c-0.05,0.27-0.07,0.53-0.07,0.79v0.36v2.77c0,0.56,0.03,0.99,0.09,1.28c0.06,0.3,0.14,0.53,0.24,0.69c0.14,0.22,0.36,0.38,0.66,0.48
	c0.3,0.1,0.86,0.16,1.69,0.16c1.22,0,2.01-0.21,2.36-0.64c0.26-0.38,0.39-0.98,0.39-1.78v-3.11v-0.42c0-0.43-0.03-0.76-0.1-1
	c-0.07-0.24-0.16-0.43-0.28-0.57c-0.12-0.14-0.29-0.26-0.52-0.35c-0.23-0.09-0.46-0.16-0.7-0.19H172.27z M172.23,46.02
	c0.98,0,1.77,0.06,2.35,0.17c0.94,0.19,1.58,0.53,1.91,1.04c0.23,0.36,0.39,0.71,0.48,1.04c0.17,0.58,0.25,1.21,0.25,1.88v3.76
	c0,0.7-0.08,1.3-0.25,1.77c-0.1,0.3-0.27,0.62-0.51,0.96c-0.38,0.53-1.05,0.88-2.01,1.06c-0.56,0.1-1.4,0.16-2.52,0.16
	c-1.14,0-1.97-0.09-2.5-0.26c-0.52-0.17-0.94-0.42-1.24-0.75c-0.32-0.32-0.55-0.77-0.68-1.35c-0.14-0.58-0.2-1.22-0.2-1.93v-3.19
	c0-0.72,0.03-1.26,0.09-1.65c0.1-0.61,0.3-1.12,0.58-1.54c0.36-0.51,1-0.85,1.9-1.03C170.41,46.07,171.19,46.02,172.23,46.02"/>
<path class="st0" d="M110.14,62.15c0.38,0,0.76,0,1.13,0.01c0.37,0.01,0.73,0.02,1.1,0.05c0.73,0.09,1.28,0.3,1.65,0.61
	c0.37,0.31,0.63,0.74,0.76,1.28c0.09,0.37,0.14,0.9,0.14,1.59h-2.25v-0.47c0-0.23-0.01-0.41-0.04-0.54
	c-0.03-0.13-0.09-0.25-0.19-0.37c-0.1-0.12-0.26-0.2-0.48-0.24c-0.22-0.04-0.52-0.06-0.92-0.06h-0.92c-0.88,0-1.46,0.1-1.73,0.31
	c-0.14,0.1-0.23,0.24-0.3,0.41c-0.06,0.17-0.09,0.43-0.09,0.77c0,0.33,0.01,0.59,0.04,0.78c0.03,0.19,0.16,0.34,0.4,0.47
	c0.24,0.13,0.55,0.22,0.91,0.26c0.36,0.05,0.8,0.07,1.32,0.07c0.76,0,1.47,0.05,2.14,0.16c0.67,0.11,1.18,0.29,1.53,0.55
	c0.35,0.29,0.59,0.73,0.71,1.31c0.07,0.34,0.11,0.82,0.11,1.43c0,0.66-0.09,1.24-0.27,1.73c-0.18,0.49-0.44,0.86-0.78,1.11
	c-0.34,0.25-0.8,0.41-1.39,0.5c-0.59,0.08-1.25,0.12-1.97,0.12h-0.84c-0.8,0-1.37-0.03-1.71-0.08c-0.68-0.1-1.22-0.32-1.61-0.66
	c-0.39-0.34-0.65-0.78-0.77-1.34c-0.07-0.34-0.11-0.91-0.11-1.71h2.19v0.33c0,0.35,0.02,0.62,0.07,0.81
	c0.05,0.19,0.15,0.36,0.3,0.49c0.15,0.13,0.36,0.23,0.64,0.28c0.27,0.06,0.61,0.09,1,0.09h0.48c0.48,0,0.88-0.02,1.21-0.07
	c0.33-0.05,0.6-0.13,0.81-0.26c0.21-0.12,0.34-0.31,0.4-0.55c0.06-0.24,0.09-0.54,0.09-0.89c0-0.28-0.02-0.51-0.05-0.68
	c-0.04-0.17-0.13-0.33-0.29-0.47s-0.37-0.24-0.65-0.29c-0.27-0.05-0.66-0.07-1.14-0.07c-0.95,0-1.66-0.03-2.13-0.09
	c-0.84-0.11-1.47-0.34-1.9-0.67c-0.32-0.24-0.57-0.59-0.73-1.07c-0.17-0.47-0.25-0.97-0.25-1.49c0-0.69,0.08-1.26,0.23-1.71
	c0.16-0.45,0.37-0.79,0.65-1.03c0.35-0.28,0.83-0.47,1.43-0.57C108.69,62.21,109.37,62.15,110.14,62.15"/>
<polygon class="st0" points="119.72,73.91 119.72,69.45 115.49,62.26 118.04,62.26 120.81,67.22 120.87,67.22 123.7,62.26 
	126.28,62.26 121.96,69.45 121.96,73.91 "/>
<path class="st0" d="M131.04,62.15c0.38,0,0.76,0,1.13,0.01c0.37,0.01,0.73,0.02,1.1,0.05c0.73,0.09,1.27,0.3,1.65,0.61
	c0.37,0.31,0.63,0.74,0.76,1.28c0.09,0.37,0.14,0.9,0.14,1.59h-2.25v-0.47c0-0.23-0.01-0.41-0.04-0.54
	c-0.03-0.13-0.09-0.25-0.19-0.37c-0.1-0.12-0.26-0.2-0.48-0.24c-0.22-0.04-0.52-0.06-0.92-0.06h-0.92c-0.88,0-1.46,0.1-1.73,0.31
	c-0.13,0.1-0.23,0.24-0.29,0.41c-0.06,0.17-0.09,0.43-0.09,0.77c0,0.33,0.01,0.59,0.04,0.78c0.03,0.19,0.16,0.34,0.4,0.47
	c0.24,0.13,0.55,0.22,0.91,0.26c0.36,0.05,0.8,0.07,1.32,0.07c0.76,0,1.47,0.05,2.14,0.16c0.67,0.11,1.18,0.29,1.53,0.55
	c0.35,0.29,0.59,0.73,0.71,1.31c0.07,0.34,0.11,0.82,0.11,1.43c0,0.66-0.09,1.24-0.27,1.73c-0.18,0.49-0.44,0.86-0.78,1.11
	c-0.34,0.25-0.8,0.41-1.39,0.5c-0.59,0.08-1.25,0.12-1.97,0.12h-0.84c-0.8,0-1.37-0.03-1.71-0.08c-0.68-0.1-1.22-0.32-1.61-0.66
	c-0.39-0.34-0.65-0.78-0.77-1.34c-0.07-0.34-0.11-0.91-0.11-1.71h2.19v0.33c0,0.35,0.02,0.62,0.07,0.81
	c0.05,0.19,0.14,0.36,0.3,0.49c0.15,0.13,0.36,0.23,0.64,0.28c0.27,0.06,0.61,0.09,1,0.09h0.48c0.48,0,0.88-0.02,1.21-0.07
	c0.33-0.05,0.6-0.13,0.81-0.26c0.21-0.12,0.34-0.31,0.4-0.55c0.06-0.24,0.09-0.54,0.09-0.89c0-0.28-0.02-0.51-0.05-0.68
	c-0.04-0.17-0.13-0.33-0.29-0.47c-0.16-0.15-0.37-0.24-0.64-0.29c-0.27-0.05-0.66-0.07-1.14-0.07c-0.95,0-1.66-0.03-2.13-0.09
	c-0.84-0.11-1.47-0.34-1.9-0.67c-0.32-0.24-0.57-0.59-0.73-1.07c-0.17-0.47-0.25-0.97-0.25-1.49c0-0.69,0.08-1.26,0.23-1.71
	c0.16-0.45,0.37-0.79,0.65-1.03c0.35-0.28,0.83-0.47,1.43-0.57C129.59,62.21,130.27,62.15,131.04,62.15"/>
<polygon class="st0" points="140.01,73.91 140.01,64.18 136.61,64.18 136.61,62.26 145.69,62.26 145.69,64.18 142.25,64.18 
	142.25,73.91 "/>
<polygon class="st0" points="146.57,73.91 146.57,62.26 154.58,62.26 154.58,64.18 148.81,64.18 148.81,67.08 154.28,67.08 
	154.28,68.9 148.81,68.9 148.81,72 154.61,72 154.61,73.91 "/>
<polygon class="st0" points="156.34,73.91 156.34,62.26 159.96,62.26 163.12,70.91 163.18,70.91 166.3,62.26 169.97,62.26 
	169.97,73.91 167.73,73.91 167.92,64.08 167.86,64.08 164.17,73.91 162.17,73.91 158.47,64.14 158.4,64.14 158.53,68.48 
	158.59,73.91 "/>
<path class="st0" d="M40.56,77.9c0,0,4.33-0.53,10.06,4.35c0,0,8.63,7.36,18.4,2.75c0,0,4.83-2.23,4.83-7.11v-0.11
	c0-4.88-4.83-7.11-4.83-7.11c-9.78-4.61-18.4,2.75-18.4,2.75c-5.73,4.88-10.06,4.34-10.06,4.34V77.9z"/>
<path class="st0" d="M77.95,42.1c0,0-4.33,0.53-10.06-4.35c0,0-8.63-7.36-18.4-2.75c0,0-4.83,2.23-4.83,7.11v0.11
	c0,4.88,4.83,7.11,4.83,7.11c9.77,4.61,18.4-2.75,18.4-2.75c5.73-4.88,10.06-4.34,10.06-4.34V42.1z"/>
<path class="st1" d="M41.4,41.35c0,0,0.53,4.32-4.35,10.06c0,0-7.37,8.62-2.75,18.4c0,0,2.23,4.83,7.11,4.83h0.1
	c4.88,0,7.11-4.83,7.11-4.83c4.61-9.78-2.75-18.4-2.75-18.4c-4.87-5.73-4.34-10.06-4.34-10.06H41.4z"/>
<path class="st0" d="M77.24,78.78c0,0-0.53-4.31,4.34-10.04c0,0,7.35-8.61,2.75-18.36c0,0-2.22-4.82-7.1-4.82h-0.11
	c-4.87,0-7.1,4.82-7.1,4.82c-4.6,9.75,2.75,18.36,2.75,18.36c4.86,5.72,4.33,10.04,4.33,10.04H77.24z"/>
</svg>
