<?xml version="1.0" encoding="utf-8"?>
<!-- Generator: Adobe Illustrator 25.1.0, SVG Export Plug-In . SVG Version: 6.00 Build 0)  -->
<svg version="1.1" id="Warstwa_1" xmlns="http://www.w3.org/2000/svg" xmlns:xlink="http://www.w3.org/1999/xlink" x="0px" y="0px"
	 viewBox="0 0 210 120" style="enable-background:new 0 0 210 120;" xml:space="preserve">
<style type="text/css">
	.st0{fill:#9F9F9F;}
</style>
<g>
	<polygon class="st0" points="23.91,54.37 30.7,54.37 34.21,72.77 	"/>
	<polygon class="st0" points="48.28,54.37 41.49,54.37 37.98,72.77 	"/>
	<polygon class="st0" points="32.87,47.23 39.4,47.23 36.13,72.77 	"/>
	<path class="st0" d="M58.65,68.41c-1.79,0-3.36-0.66-4.65-1.96c-1.31-1.32-1.98-2.9-1.98-4.73c0-1.87,0.67-3.48,1.99-4.72
		c1.27-1.23,2.85-1.85,4.69-1.85c1.31,0.01,2.52,0.34,3.58,0.97c1.02,0.64,1.81,1.5,2.38,2.57l0.25,0.45h-2.06L62.72,59
		c-0.98-1.38-2.29-2.06-4.01-2.06h-0.07c-1.29,0-2.42,0.46-3.35,1.38c-0.93,0.93-1.43,2.04-1.45,3.33
		c-0.04,1.34,0.45,2.51,1.41,3.48c0.96,0.99,2.13,1.49,3.49,1.49c0.78,0,1.55-0.22,2.3-0.61c0.72-0.39,1.29-0.89,1.7-1.47l0.06-0.11
		l2.1-0.03l-0.25,0.46c-0.6,1.1-1.41,1.98-2.44,2.59c-1.02,0.62-2.19,0.93-3.48,0.96H58.65z"/>
	<path class="st0" d="M58.69,55.2c1.32,0.01,2.51,0.34,3.55,0.97c1,0.63,1.8,1.48,2.36,2.54l0.19,0.37h-1.95l-0.07-0.11
		c-0.99-1.4-2.31-2.08-4.06-2.08h-0.07c-1.31,0-2.45,0.46-3.4,1.4c-0.94,0.92-1.43,2.06-1.47,3.36c-0.03,1.34,0.45,2.54,1.43,3.52
		c0.97,1,2.16,1.5,3.54,1.5c0.79,0,1.58-0.22,2.33-0.61c0.73-0.39,1.31-0.89,1.72-1.49l0.07-0.11h1.95l-0.2,0.38
		c-0.59,1.09-1.4,1.95-2.42,2.57c-1.01,0.61-2.16,0.92-3.45,0.95h-0.09c-1.78,0-3.33-0.66-4.62-1.95c-1.29-1.3-1.96-2.88-1.96-4.69
		c0-1.86,0.67-3.44,1.98-4.68C55.31,55.82,56.87,55.2,58.69,55.2 M58.69,55.09L58.69,55.09c-1.86,0-3.45,0.64-4.72,1.87
		c-1.34,1.26-2,2.86-2,4.76c0,1.84,0.67,3.45,1.99,4.78c1.3,1.3,2.88,1.97,4.7,1.97h0.09c1.3-0.03,2.48-0.35,3.51-0.97
		c1.03-0.62,1.86-1.49,2.45-2.61l0.2-0.38l0.09-0.17H64.8h-1.95h-0.06l-0.04,0.05l-0.07,0.12c-0.4,0.59-0.96,1.06-1.67,1.45
		c-0.74,0.39-1.5,0.6-2.28,0.6c-1.34,0-2.5-0.49-3.45-1.45c-0.96-0.97-1.43-2.13-1.4-3.45c0.02-1.28,0.52-2.38,1.44-3.29
		c0.91-0.91,2.03-1.36,3.31-1.36l0.08,0c1.7,0,3,0.66,3.96,2.03l0.07,0.1l0.04,0.05h0.06h1.95h0.19l-0.09-0.17l-0.2-0.37
		c-0.56-1.07-1.36-1.93-2.39-2.57C61.23,55.43,60.02,55.1,58.69,55.09"/>
	<path class="st0" d="M70.7,58.32l-0.18,0c-1.32,0-2.48,0.49-3.44,1.44c-1,1-1.51,2.21-1.51,3.59c0,1.33,0.46,2.5,1.4,3.47
		c0.92,0.97,2.08,1.48,3.42,1.5l0.18,0c1.31,0,2.48-0.48,3.44-1.43c1.01-0.99,1.52-2.19,1.52-3.56c0-1.34-0.46-2.5-1.41-3.47
		C73.2,58.88,72.04,58.36,70.7,58.32 M70.57,60h0.05c0.88,0,1.6,0.31,2.22,0.95c0.62,0.64,0.94,1.39,0.97,2.29
		c0.03,0.94-0.3,1.73-0.97,2.43c-0.63,0.66-1.36,0.97-2.22,0.97c-0.06,0-0.13,0-0.18-0.01c-0.9-0.02-1.62-0.36-2.23-1.04
		c-0.63-0.68-0.92-1.44-0.9-2.34c0.01-0.91,0.34-1.66,0.98-2.31C68.92,60.31,69.67,60,70.57,60"/>
	<rect x="76.53" y="55.34" class="st0" width="1.73" height="12.77"/>
	<path class="st0" d="M86.32,64.11c0,0.7-0.25,1.28-0.78,1.78c-0.51,0.5-1.12,0.75-1.81,0.75c-0.7,0-1.29-0.25-1.82-0.75
		c-0.52-0.5-0.77-1.08-0.77-1.78v-5.57h-1.74v5.42c0,1.24,0.42,2.29,1.23,3.12c0.83,0.83,1.86,1.26,3.11,1.26
		c1.24,0,2.29-0.42,3.09-1.26c0.83-0.83,1.23-1.87,1.23-3.12v-5.42h-1.73V64.11z"/>
	<path class="st0" d="M99.27,58.36c-1.33-0.11-2.4,0.4-3.24,1.5c-0.82-1.1-1.89-1.61-3.22-1.5c-1.06,0.09-1.92,0.48-2.59,1.17
		c-0.7,0.73-1.06,1.72-1.06,2.9v5.68h1.78V62.3c0-0.66,0.18-1.2,0.54-1.65C91.85,60.21,92.3,60,92.9,60c0.62,0,1.14,0.19,1.59,0.59
		c0.44,0.39,0.66,0.86,0.66,1.44v6.09h1.78v-6.09c0-0.57,0.22-1.04,0.66-1.44c0.45-0.39,0.96-0.59,1.59-0.59
		c0.6,0,1.05,0.22,1.42,0.66c0.37,0.45,0.56,0.99,0.56,1.64v5.81h1.77v-5.68c0-1.19-0.36-2.18-1.07-2.9
		C101.2,58.84,100.32,58.45,99.27,58.36"/>
	<path class="st0" d="M109.05,58.31c-0.07,0-0.15,0-0.22,0c-1.2,0.04-2.25,0.46-3.12,1.25v-4.22h-1.74v7.91v0.06
		c-0.04,1.36,0.48,2.57,1.51,3.57c0.98,0.95,2.14,1.44,3.47,1.44l0.17,0c1.34-0.04,2.5-0.55,3.45-1.53
		c0.93-0.96,1.41-2.12,1.41-3.46c0-1.38-0.5-2.58-1.51-3.58C111.5,58.8,110.34,58.31,109.05,58.31 M112.23,63.24
		c0.01,0.91-0.28,1.67-0.9,2.34c-0.63,0.67-1.36,1.01-2.25,1.05c-0.93,0.04-1.73-0.28-2.41-0.96c-0.69-0.69-1-1.5-0.97-2.45
		c0.02-0.9,0.33-1.63,0.96-2.28c0.63-0.63,1.37-0.95,2.25-0.95c0.92,0,1.69,0.31,2.32,0.95C111.9,61.59,112.22,62.35,112.23,63.24"
		/>
	<path class="st0" d="M121.7,64.11c0,0.7-0.25,1.28-0.78,1.78c-0.52,0.5-1.12,0.75-1.81,0.75c-0.69,0-1.28-0.25-1.82-0.75
		c-0.52-0.5-0.77-1.08-0.77-1.78v-5.57h-1.73v5.42c0,1.24,0.41,2.29,1.22,3.12c0.82,0.83,1.86,1.26,3.11,1.26
		c1.24,0,2.29-0.42,3.09-1.26c0.82-0.83,1.23-1.87,1.23-3.12v-5.42h-1.73V64.11z"/>
	<path class="st0" d="M128.96,62.46c-0.82-0.36-1.36-0.66-1.61-0.91c-0.23-0.23-0.34-0.45-0.34-0.68c0-0.26,0.13-0.49,0.4-0.68
		c0.29-0.22,0.63-0.33,1.03-0.33c0.66,0,1.35,0.29,2.06,0.85l0.15,0.13l1.27-1.08l-0.23-0.18c-1.05-0.84-2.12-1.27-3.18-1.27
		c-0.91,0-1.69,0.24-2.29,0.73c-0.62,0.5-0.93,1.14-0.93,1.9c0,0.59,0.2,1.12,0.59,1.56c0.39,0.45,1.07,0.88,2.09,1.32
		c1.11,0.47,1.54,0.76,1.71,0.91c0.22,0.23,0.32,0.46,0.32,0.73c0,0.33-0.17,0.62-0.5,0.88c-0.37,0.27-0.78,0.4-1.31,0.4
		c-0.74,0-1.45-0.32-2.12-0.95l-0.16-0.15l-1.2,1.15l0.15,0.17c0.41,0.41,0.91,0.76,1.51,1c0.59,0.23,1.23,0.35,1.89,0.35
		c0.98,0,1.84-0.28,2.5-0.83c0.69-0.56,1.03-1.25,1.03-2.08c0-0.58-0.21-1.12-0.61-1.58C130.78,63.38,130.05,62.93,128.96,62.46"/>
	<path class="st0" d="M146.48,58.77c-1.25,0-2.31,0.42-3.13,1.25c-0.83,0.84-1.25,1.89-1.25,3.13v5.47h1.81v-5.59
		c0-0.69,0.24-1.27,0.77-1.77c0.53-0.5,1.11-0.73,1.81-0.73c0.68,0,1.27,0.23,1.79,0.73c0.52,0.5,0.77,1.09,0.77,1.77v5.59h1.81
		v-5.47c0-1.24-0.42-2.29-1.25-3.13C148.77,59.19,147.72,58.77,146.48,58.77"/>
	<path class="st0" d="M157.35,58.73c-1.45-0.08-2.71,0.41-3.77,1.44c-1.07,1.04-1.59,2.28-1.56,3.72c0.03,1.35,0.55,2.54,1.59,3.52
		c0.99,0.95,2.16,1.44,3.45,1.44l0.09,0c1.05-0.01,2.03-0.32,2.89-0.93c0.87-0.6,1.49-1.42,1.86-2.46l0.14-0.38h-1.9l-0.08,0.16
		c-0.58,1.23-1.52,1.82-2.91,1.84c-0.86,0-1.59-0.28-2.21-0.82c-0.56-0.47-0.9-1.05-1.04-1.75h8.24v-0.95c0-1.18-0.46-2.28-1.4-3.24
		C159.8,59.34,158.65,58.8,157.35,58.73 M157.1,60.25l0.04,0.28c0.82,0,1.52,0.24,2.1,0.73c0.49,0.4,0.83,0.93,1.03,1.56h-6.33
		c0.19-0.64,0.55-1.17,1.06-1.57c0.61-0.5,1.28-0.72,2.09-0.72V60.25z"/>
	<path class="st0" d="M171.96,58.68l-0.14,0c-1.35,0.04-2.52,0.56-3.45,1.52c-0.94,0.98-1.41,2.15-1.41,3.49
		c0,1.4,0.51,2.6,1.52,3.59c0.97,0.96,2.13,1.45,3.45,1.45h0.18c1.18-0.06,2.22-0.45,3.08-1.2v0.18c0,0.77-0.29,1.41-0.9,1.97
		c-0.62,0.57-1.32,0.84-2.16,0.85c-0.68,0-1.34-0.2-1.91-0.63c-0.57-0.4-0.95-0.9-1.11-1.46l-0.07-0.2h-1.79l0.11,0.36
		c0.27,0.97,0.82,1.79,1.62,2.42c0.85,0.66,1.86,1,3.01,1.05h0.21c1.21,0,2.32-0.38,3.27-1.12c1.02-0.82,1.53-1.84,1.53-3.07v-4.19
		c0.03-1.37-0.48-2.58-1.51-3.58C174.49,59.17,173.31,58.68,171.96,58.68 M172.02,60.42c0.87,0,1.61,0.32,2.23,0.98
		c0.67,0.69,0.98,1.48,0.94,2.4c-0.02,0.89-0.32,1.63-0.94,2.26c-0.62,0.63-1.35,0.93-2.22,0.93c-0.91,0-1.66-0.31-2.3-0.93
		c-0.64-0.63-0.97-1.38-0.99-2.28c-0.02-0.88,0.28-1.63,0.9-2.3c0.6-0.67,1.33-1,2.22-1.06C171.92,60.42,171.97,60.42,172.02,60.42"
		/>
	<polygon class="st0" points="184.19,58.98 181.27,65.73 178.49,58.98 176.54,58.98 180.18,68.05 178.69,71.78 180.62,71.78 
		186.09,58.98 	"/>
	<path class="st0" d="M167.33,60.58V58.8l-0.32,0.03c-2.49,0.19-3.94,1.65-3.98,4.01v5.78h1.86v-5.71c0-0.54,0.09-0.95,0.27-1.26
		c0.11-0.17,0.33-0.4,0.65-0.67c0.31-0.24,0.72-0.38,1.23-0.4H167.33z"/>
	<polygon class="st0" points="134.96,66.66 134.96,62.81 140.3,62.81 140.3,61.08 134.96,61.08 134.96,57.32 140.69,57.32 
		140.69,55.55 133.2,55.55 133.2,68.55 141,68.55 141,66.66 137.15,66.66 	"/>
</g>
</svg>
