<?xml version="1.0" encoding="utf-8"?>
<!-- Generator: Adobe Illustrator 19.0.0, SVG Export Plug-In . SVG Version: 6.00 Build 0)  -->
<svg version="1.1" id="Warstwa_1" xmlns="http://www.w3.org/2000/svg" xmlns:xlink="http://www.w3.org/1999/xlink" x="0px" y="0px"
	 viewBox="0 0 210.1 120.1" style="enable-background:new 0 0 210.1 120.1;" xml:space="preserve">
<style type="text/css">
	.st0{fill:#FEFEFE;}
	.st1{fill:#A1A1A1;}
	.st2{fill:#A3A3A3;}
	.st3{fill:#A2A2A2;}
	.st4{fill:#A4A4A4;}
	.st5{fill:#A6A6A6;}
	.st6{fill:#A7A7A7;}
	.st7{fill:#9F9F9F;}
	.st8{fill:#C2C2C2;}
	.st9{fill:#A0A0A0;}
	.st10{fill:#ABABAB;}
	.st11{fill:#9D9D9D;}
	.st12{fill:#E3E3E3;}
	.st13{fill:#9E9E9E;}
	.st14{fill:#A9A9A9;}
	.st15{fill:#C9C9C9;}
	.st16{fill:#B4B4B4;}
	.st17{fill:#ADADAD;}
	.st18{fill:#ACACAC;}
	.st19{fill:#B6B6B6;}
	.st20{fill:#BABABA;}
	.st21{fill:#AAAAAA;}
	.st22{fill:#BBBBBB;}
	.st23{fill:#B0B0B0;}
	.st24{fill:#D0D0D0;}
	.st25{fill:#B3B3B3;}
	.st26{fill:#AFAFAF;}
	.st27{fill:#D3D3D3;}
	.st28{fill:#EDEDED;}
	.st29{fill:#F6F6F6;}
	.st30{fill:#BCBCBC;}
	.st31{fill:#F0F0F0;}
	.st32{fill:#DDDDDD;}
	.st33{fill:#FAFAFA;}
	.st34{fill:#E7E7E7;}
	.st35{fill:#F2F2F2;}
	.st36{fill:#D5D5D5;}
</style>
<g>
	<path class="st0" d="M-1.4,120.1c0-40,0-80,0-120c70.3,0,140.7,0,211,0c0,40,0,80,0,120C139.2,120.1,68.9,120.1-1.4,120.1z
		 M49.6,65.1c0.3,0.3,0.7,0.7,1,1s0.7,0.7,1,1s0.7,0.7,1,1c0.3,0,0.7,0,1,0c1.6,1.4,3.4,1.4,5,0c0.3,0,0.7,0,1,0
		c0.3-0.3,0.7-0.7,1-1c0.3-0.3,0.7-0.7,1-1c0.7-0.3,1.3-0.7,2-1c0,0.3,0,0.7,0,1c0.3,0.3,0.7,0.7,1,1s0.7,0.7,1,1c0.3,0,0.7,0,1,0
		c1,1.4,2,1.4,3,0c0.3,0,0.7,0,1,0c0.3-0.3,0.7-0.7,1-1c1.5-0.8,1.7-2.3,2.2-4c-0.7-1-1.5-2-2.2-3c-0.8-1.5-2.3-1.7-4-2.2
		c-1,0.7-2,1.5-3,2.2c-0.3,0.3-0.7,0.7-1,1c0,0.3,0,0.7,0,1c-0.5,0.6-1,1.2-1.8,2.1c-0.4,0.6-2-1-2.2,0.9c-0.3,0.3-0.7,0.7-1,1
		c-0.3,0-0.7,0-1,0c-1,0-2,0-3,0c-0.3,0-0.7,0-1,0c-0.3-0.3-0.7-0.7-1-1s-0.7-0.7-1-1c0-0.3,0-0.7,0-1c0-1,0-2,0-3c0-0.3,0-0.7,0-1
		c0.3-0.3,0.7-0.7,1-1c0.8-0.2,1.9,0.5,2-1c1,0,2,0,3,0c0.1,1.5,1.2,0.8,2,1c0.3,0.3,0.7,0.7,1,1c0.6-0.1,1.3-0.2,2.4-0.4
		c-0.9-0.4-1.2-0.5-1.4-0.6c-0.3-0.3-0.7-0.7-1-1s-0.7-0.7-1-1c-0.1-1.5-1.2-0.8-2-1c-1,0-2,0-3,0c-0.8,0.2-1.9-0.5-2,1
		c-0.3,0.3-0.7,0.7-1,1s-0.7,0.7-1,1s-0.7,0.7-1,1c0,0.3,0,0.7,0,1c-1.4,1-1.4,2,0,3c0,0.3,0,0.7,0,1C49.6,64.4,49.6,64.7,49.6,65.1
		z M178.6,59.1c-0.3,0-0.7,0-1,0c-0.3,0.3-0.7,0.7-1,1c-0.3,0-0.7,0-1,0c-0.4-0.3-0.8-0.9-1.2-1c-1.6-0.1-3.2,0-4.8,0
		c-0.3,0.3-0.7,0.7-1,1c-0.3,0-0.7,0-1,0c-0.1-1.5-1.2-0.8-2-1c-0.3,0.3-0.7,0.7-1,1c-0.3,0.3-0.7,0.7-1,1c0,0.3,0,0.7,0,1
		c-0.7,0-1.3,0-2,0c-0.3-0.3-0.7-0.7-1-1c-0.8-2.8-3.1-1.8-5-2c-0.3,0.3-0.7,0.7-1,1c-0.3,0-0.7,0-1,0c-0.3,0.3-0.7,0.7-1,1
		c0,0.3,0,0.7,0,1c-1.4,1.3-1.4,2.7,0,4c0.7,0.7,1.3,1.3,2,2c0.3,0.3,0.7,0.7,1,1c1,0,2,0,3,0c0.3-0.3,0.7-0.7,1-1
		c0.7-0.7,1.3-1.3,2-2c0.3,0.4,0.8,0.8,1,1.3c0.2,0.7-0.3,1.7,1,1.7c0.6-0.4,1.3-0.9,2-1.3c0-2,0-3.9,0-5.9c0-0.3,0.6-0.5,1-0.8
		c0.3,0,0.7,0,1,0c0,1.6-0.1,3.2,0,4.8c0,0.4,0.6,0.8,1,1.2c0,0.3,0,0.7,0,1c-0.3,0.3-0.7,0.7-1,1c1,1,2,2,3,3c1.3,0,2.5,0.1,3.8,0
		c0.4,0,0.8-0.6,1.2-1c0.6-0.4,1.3-0.8,2-1.3c0-2.2,0-4.5,0-6.7c0-0.3,0-0.7,0-1c0.3,0,0.7,0,1,0c0,0.3,0,0.7,0,1
		c0.3,0.3,0.7,0.7,1,1c0.1,0.9-0.1,2.2,0.4,2.7c1.6,1.7,0.1,2.9-0.4,4.3c0.3,0.3,0.7,0.7,1,1c1.6-1.7,2.2-3.9,3.4-5.8
		c0.7-1.1,0.5-2.2,0.6-3.2c0.7-1,1.3-2,2-3c-0.3-0.3-0.7-0.7-1-1c-0.7,1-1.3,2-2,3c-0.7,1-1.3,2-2,3c-0.3-0.3-0.7-0.7-1-1
		c0-0.7,0-1.3,0-2c-0.3-0.3-0.7-0.7-1-1c0-0.3,0-0.7,0-1C179.2,59.7,178.9,59.4,178.6,59.1z M129.6,63.1c-0.3-0.3-0.7-0.7-1-1
		c-0.3,0-0.7,0-1,0c0-0.7,0-1.3,0-2c0.3,0,0.7,0,1,0c0.3,0.3,0.7,0.7,1,1c0.3-0.3,0.7-0.7,1-1c-0.3-0.3-0.7-0.7-1-1
		c-1.3-1.4-2.7-1.4-4,0c-1.8,1.1-0.9,2.6-0.8,4c0.8,0,1.3,0,1.8,0c0.3,0.3,0.7,0.7,1,1c0.3,0,0.7,0,1,0c0,0.3,0,0.7,0,1s0,0.7,0,1
		s0,0.7,0,1c-0.7,0-1.3,0-2,0c-0.3-0.3-0.7-0.7-1-1c-0.3,0-0.7,0-1,0c-0.3,0.1-0.6,0.2-0.8,0.3c0.3,0.2,0.6,0.4,0.8,0.7
		c1,0.7,1.9,1.5,2.9,2.2c0.9-0.5,1.5-0.8,2.1-1.2c0.3-0.3,0.7-0.7,1-1c0-0.3,0-0.7,0-1c0.3-0.1,0.6-0.2,0.8-0.3
		c-0.3-0.2-0.6-0.4-0.8-0.7c0-0.3,0-0.7,0-1C130.2,63.7,129.9,63.4,129.6,63.1z M121.6,67.1c0-0.3,0-0.7,0-1
		c0.3-0.1,0.8-0.2,0.8-0.3c0-2.5,0-5,0-7.3c-0.6,0.4-1.3,0.8-1.8,1.2c0,1.9,0,3.7,0,5.5c-0.3,0.3-0.7,0.7-1,1s-0.7,0.7-1,1
		c-0.3,0-0.7,0-1,0c-0.3-0.3-0.7-0.7-1-1c-0.3-0.3-0.9-0.5-1-0.8c-0.1-1.9,0-3.9,0-6.1c-0.9,0.2-0.8-1.3-2-0.8
		c0.3,3.3-0.8,6.7,1.6,9.7c0.5,0,1,0,1.5,0c1,1.4,2,1.4,3,0c0.3,0,0.7,0,1,0C120.9,67.7,121.2,67.4,121.6,67.1z M112.6,62.1
		c-0.3-0.3-0.7-0.7-1-1c-0.9-1.1-1.8-2.2-2.7-3.3c-1.3,0.5-2.3,0.9-3.3,1.3c-2.3-0.6,0-3.1-1.6-4.1c-0.4,0.1-0.8,0.2-1.4,0.3
		c0,3.2,0,6.3,0,9.5c0,0.4,0.6,0.9,1,1.3c0.3,0.3,0.7,0.7,1,1c1,0.7,1.9,1.5,2.9,2.2c0.9-0.5,1.5-0.8,2.1-1.2c1-1,2-2,3-3
		C112.6,64.1,112.6,63.1,112.6,62.1z M83.6,66.1c-0.3,0.3-0.7,0.7-1,1c-0.7,0-1.3,0-2,0c-0.3-0.3-0.7-0.7-1-1c0-0.3,0-0.7,0-1
		c-0.1-2.3,0.3-4.7-0.2-7c-1.2,0-2,0-2.8,0c-0.4-1,0.9-2.5-1-3c-0.3,0.3-1,0.5-1,0.8c-0.1,3.8-0.1,7.6,0,11.4c0,0.3,0.6,0.5,1,0.8
		c1.9-0.5,0.6-2,1-3c0.3,0,0.7,0,1,0c0.2,0.8-0.5,1.9,1,2c0.3,0.3,0.7,0.7,1,1c0.3,0,0.7,0,1,0c1,1.4,2,1.4,3,0c0.3-0.3,0.7-0.7,1-1
		c2.8-2.1,1.8-5,2-7.5c-0.7-0.6-1.1-1-2-1.9c0,2.1,0.1,3.7,0,5.3C84.4,64,83.9,65,83.6,66.1z M150.6,62.1c-0.3-0.3-0.7-0.7-1-1
		c-0.4-0.6-0.9-1.3-1.3-2c-1.3,0-2.6-0.1-3.9,0c-0.3,0-0.5,0.6-0.8,1c-0.7,0.4-1.3,0.9-2,1.4c0.1,2.6-0.2,5.2,0.2,7.9
		c0.9-0.3,1.3-0.4,1.7-0.6c0.4-2.6-0.7-5.3,1.1-7.7c1,0,2,0,3,0c0.3,0.3,0.7,0.7,1,1c0,2.3,0,4.5,0,7.6c1-0.8,1.5-1.2,2-1.6
		C150.6,66.1,150.6,64.1,150.6,62.1z M89.6,61.1c0.3-0.3,0.7-0.7,1-1c0.7,0,1.3,0,2,0c0.3,0.3,0.7,0.7,1,1c0,2.3,0,4.6,0,6.9
		c0.8,0,1.2,0,2,0c0-2.4,0-4.6,0-6.9c0.7-0.4,1.3-0.7,2-1.1c0.7,0.4,1.3,0.7,2,1.1c0,2.3,0,4.5,0,7.1c0.9-0.2,1.5-0.3,2.2-0.4
		c-0.6-2.7,0.6-5.4-1.2-7.7c-1.7-1.5-3.2-3.2-5.6-1c-0.3,0.2-0.9,0-1.4,0c-0.3,0-0.7,0-1,0c-1-1.4-2-1.4-3,0c-0.3,0.3-0.7,0.7-1,1
		c-0.2,0-0.5,0-0.5,0c-0.2,2.5-0.3,5-0.4,7.6c0,0.1,0.2,0.2,0.4,0.4c0.4,0,0.8-0.1,1.5-0.2C89.6,65.6,89.6,63.3,89.6,61.1z
		 M134.6,61.1c0-1,0-2,0-3c0.4-0.3,0.8-0.9,1.2-1c1.3-0.1,2.5,0,3.8,0c1.5-0.3,1.2-1.1,0.5-2c-2.1,0-4.2-0.1-6.3,0
		c-0.4,0-0.8,0.6-1.2,1c0,4,0,8,0,12c0.3,0.3,0.5,0.9,0.8,1c2.1,0.1,4.3,0.1,6.4,0c0.3,0,0.5-0.6,0.8-1c-0.3-1.9-1.8-0.6-2.8-1
		c-1.1-0.4-2.7,0.9-3.2-1c0-1,0-2,0-3c1.6,0,3.2,0,4.9,0c0-0.8,0-1.2,0-2C137.8,61.1,136.2,61.1,134.6,61.1z M37.6,68.1
		c2.2-3.7,4.5-7.4,6.6-11.1c0.4-0.7,0.3-1.7,0.5-2.8c-2.2,0-3.9,0-5.6,0c-0.5,0.5-1,0.9-1.2,1.2c-0.4,3.4-0.8,6.6-1.2,9.7
		c-0.6,1.1-1.6,5.7-1.4,7.4C36.1,70.8,36.8,69.4,37.6,68.1z M30.6,72.1c-1.1-6-2.1-12-3.2-17.8c-2.4,0-4.6,0-6.6,0
		c-0.1,0.5-0.3,0.9-0.2,1.1c2,3.5,4.2,6.9,6.1,10.4c1.1,2,2.8,3.8,2.8,6.3c0.2,1.4,1,1.2,2.1,0.5C31.2,72.3,30.9,72.2,30.6,72.1z
		 M29.6,47.2c0,1.5-0.3,2.8,0.1,3.8c0.7,1.5,0.9,3,1,4.6c0,1.7-0.4,3.4,0.8,5.2c0.8,1.1,0.1,3.2,0.2,4.9c0.1,0.9,0.5,1.8,0.7,2.7
		c0.2,0.9,0.4,1.7,0.9,3.4c1.1-8.7,2-16.6,2.9-24.5C34.2,47.2,32.1,47.2,29.6,47.2z"/>
	<path class="st1" d="M29.6,47.2c2.5,0,4.6,0,6.6,0c-1,7.9-1.9,15.8-2.9,24.5c-0.4-1.6-0.6-2.5-0.9-3.4c-0.2-0.9-0.6-1.8-0.7-2.7
		c-0.1-1.7,0.6-3.8-0.2-4.9c-1.2-1.8-0.8-3.5-0.8-5.2c0-1.6-0.3-3.1-1-4.6C29.2,50,29.6,48.7,29.6,47.2z"/>
	<path class="st2" d="M29.6,72.1c0-2.5-1.7-4.3-2.8-6.3c-2-3.5-4.1-6.9-6.1-10.4c-0.1-0.2,0.1-0.6,0.2-1.1c2.1,0,4.2,0,6.6,0
		c1,5.8,2.1,11.8,3.2,17.8C30.2,72.1,29.9,72.1,29.6,72.1z"/>
	<path class="st3" d="M36.6,65.1c0.4-3.2,0.8-6.3,1.2-9.7c0.2-0.2,0.7-0.7,1.2-1.2c1.7,0,3.5,0,5.6,0c-0.2,1-0.1,2-0.5,2.8
		c-2.1,3.8-4.4,7.4-6.6,11.1C35.6,67.6,36.9,66,36.6,65.1z"/>
	<path class="st4" d="M132.6,68.1c0-4,0-8,0-12c1.9,0,3.9-0.1,5.8,0c0.4,0,0.8,0.6,1.2,1c-1.3,0-2.5-0.1-3.8,0c-0.4,0-0.8,0.6-1.2,1
		c-1.4,1-1.4,2,0,3c1.6,0,3.2,0,4.9,0c0,0.8,0,1.2,0,2c-1.7,0-3.3,0-4.9,0c-1.4,1-1.4,2,0,3c0.6,1.9,2.2,0.6,3.2,1
		c0.9,0.4,2.4-0.9,2.8,1C137.9,68.1,135.2,68.1,132.6,68.1z"/>
	<path class="st5" d="M180.6,62.1c0,0.7,0,1.3,0,2c0.3,0.3,0.7,0.7,1,1c0.7-1,1.3-2,2-3c0.3,0.3,0.7,0.7,1,1
		c-0.1,1.1,0.1,2.1-0.6,3.2c-1.1,1.9-1.8,4.1-3.4,5.8c-0.3-0.3-0.7-0.7-1-1c0.5-1.4,2-2.6,0.4-4.3c-0.5-0.6-0.3-1.8-0.4-2.7
		c-0.3-0.3-0.7-0.7-1-1c0-0.3,0-0.7,0-1c-0.3-0.3-0.7-0.7-1-1c0-0.3,0-0.7,0-1c0.3,0,0.7,0,1,0s0.7,0,1,0c0,0.3,0,0.7,0,1
		C179.9,61.4,180.2,61.7,180.6,62.1z"/>
	<path class="st1" d="M160.6,61.1c0.3,0.3,0.7,0.7,1,1c0,0.6,0,1.2,0,2.1c-2.8,0-5.3,0-8.6,0c0.8,1,1.2,1.5,1.6,1.9
		c0.1,1.5,1.2,0.8,2,1c0.3,0.3,0.7,0.7,1,1c0.3,0,0.7,0,1,0c0,0.3,0,0.7,0,1c-1,0-2,0-3,0c-0.3-0.3-0.7-0.7-1-1
		c-0.7-0.7-1.3-1.3-2-2c0-1.3,0-2.7,0-4c0-0.3,0-0.7,0-1c0.3-0.3,0.7-0.7,1-1c0.3,0,0.7,0,1,0s0.7,0,1,0c0,0.3,0,0.7,0,1
		c-0.3,0.3-0.7,0.7-1,1c-0.3,0.1-0.6,0.2-0.8,0.3c0.3,0.2,0.6,0.4,0.8,0.7c1.7,0,3.3,0,5,0c0.3-0.3,0.7-0.7,1-1
		C160.6,61.7,160.6,61.4,160.6,61.1z"/>
	<path class="st6" d="M103.6,66.1c-0.3-0.4-0.9-0.8-1-1.3c-0.1-3.1,0-6.2,0-9.5c0.5-0.1,1-0.2,1.4-0.3c1.7,1-0.7,3.4,1.6,4.1
		c0,0.3,0,0.7,0,1c-1.3,1.5-1,3.3-1,5C104.2,65.4,103.9,65.7,103.6,66.1z"/>
	<path class="st7" d="M116.6,68.1c-0.5,0-1,0-1.5,0c-2.3-2.9-1.3-6.4-1.6-9.7c1.3-0.5,1.1,1,2,0.8c0,2.2,0,4.1,0,6.1
		c0,0.3,0.6,0.5,1,0.8c0.3,0.3,0.7,0.7,1,1c0.3,0,0.7,0,1,0s0.7,0,1,0s0.7,0,1,0c0,0.3,0,0.7,0,1c-0.3,0-0.7,0-1,0
		C118.6,68.1,117.6,68.1,116.6,68.1z"/>
	<path class="st1" d="M177.6,63.1c0,2.2,0,4.4,0,6.7c-0.7,0.5-1.4,0.9-2,1.3c0-0.3,0-0.7,0-1c-0.2-0.8,0.5-1.9-1-2
		c-0.3,0.3-0.7,0.7-1,1c-0.3,0-0.7,0-1,0c0-0.3,0-0.7,0-1s0-0.7,0-1c1.5,0.3,2.3-0.6,3-1.7c0-1.1,0-2.2,0-3.3c0-0.3,0-0.7,0-1
		c0.3,0,0.7,0,1,0c0,0.3,0,0.7,0,1C176.9,62.4,177.2,62.7,177.6,63.1z"/>
	<path class="st8" d="M154.6,66.1c-0.4-0.5-0.8-0.9-1.6-1.9c3.2,0,5.7,0,8.6,0c0-0.9,0-1.5,0-2.1c0.7,0,1.3,0,2,0c0,2.3,0,4.7,0,7
		c-1.3,0-0.8-1.1-1-1.7c-0.2-0.5-0.6-0.8-1-1.3c-0.1-0.3-0.3-0.7-0.4-0.9c-0.6,0.3-1.1,0.6-1.6,0.9
		C157.9,64.6,156.2,64.6,154.6,66.1z"/>
	<path class="st9" d="M163.6,69.1c0-2.3,0-4.7,0-7c0-0.3,0-0.7,0-1c0.3-0.3,0.7-0.7,1-1c0.3-0.3,0.7-0.7,1-1c0.8,0.2,1.9-0.5,2,1
		c-0.3,0.3-0.7,0.7-1,1c-0.3,0.3-0.9,0.5-1,0.8c-0.1,1.9,0,3.9,0,5.9C164.8,68.2,164.2,68.6,163.6,69.1z"/>
	<path class="st10" d="M150.6,68.1c-0.5,0.4-1,0.8-2,1.6c0-3,0-5.3,0-7.6c-0.3-0.3-0.7-0.7-1-1c-1,0-2,0-3,0c-0.3-0.3-0.7-0.7-1-1
		c0.3-0.3,0.5-0.9,0.8-1c1.3-0.1,2.6,0,3.9,0c0.5,0.7,0.9,1.4,1.3,2c0,0.3,0,0.7,0,1c0,1.6-0.1,3.2,0,4.8
		C149.6,67.3,150.2,67.6,150.6,68.1z"/>
	<path class="st2" d="M144.6,61.1c-1.7,2.3-0.7,5-1.1,7.7c-0.4,0.1-0.8,0.3-1.7,0.6c-0.4-2.7-0.1-5.3-0.2-7.9c0.7-0.5,1.4-0.9,2-1.4
		C143.9,60.4,144.2,60.7,144.6,61.1z"/>
	<path class="st11" d="M59.6,68.1c-0.3,0-0.7,0-1,0c-1.7,0-3.3,0-5,0c-0.3,0-0.7,0-1,0c-0.3-0.3-0.7-0.7-1-1s-0.7-0.7-1-1
		c0-0.3,0-0.7,0-1s0-0.7,0-1c0.3,0,0.7,0,1,0c0.3,0.3,0.7,0.7,1,1c0.3,0.3,0.7,0.7,1,1s0.7,0.7,1,1c1,0,2,0,3,0c0.3-0.3,0.7-0.7,1-1
		s0.7-0.7,1-1c0.8,0.2,1.9-0.5,2,1c-0.3,0.3-0.7,0.7-1,1C60.2,67.4,59.9,67.7,59.6,68.1z"/>
	<path class="st7" d="M95.6,61.1c0,2.3,0,4.6,0,6.9c-0.8,0-1.2,0-2,0c0-2.4,0-4.6,0-6.9c0-0.3,0-0.7,0-1
		C94.3,60.2,95.5,59.6,95.6,61.1z"/>
	<path class="st2" d="M83.6,66.1c0.3-1,0.9-2,1-3.1c0.2-1.6,0-3.2,0-5.3c0.9,0.8,1.3,1.2,2,1.9c-0.3,2.5,0.8,5.5-2,7.5
		C84.2,66.7,83.9,66.4,83.6,66.1z"/>
	<path class="st9" d="M89.6,61.1c0,2.3,0,4.5,0,6.8C88.9,67.9,88.4,68,88,68c-0.2-0.2-0.4-0.3-0.4-0.4c0.1-2.5,0.3-5.1,0.4-7.6
		c0,0,0.3,0,0.5,0C88.9,60.4,89.2,60.7,89.6,61.1z"/>
	<path class="st12" d="M76.6,58.1c0.8,0,1.6,0,2.8,0c0.5,2.3,0.1,4.7,0.2,7c-1.3,0-0.9-1-1-1.7c-0.2-1.3,0.5-2.9-0.6-4.3
		c-0.2,0.4-0.4,0.5-0.4,0.6c0,1.8,0,3.6,0,5.3c-0.3,0-0.7,0-1,0C76.6,62.7,76.6,60.4,76.6,58.1z"/>
	<path class="st13" d="M100.6,60.1c1.8,2.3,0.6,5,1.2,7.7c-0.7,0.1-1.3,0.2-2.2,0.4c0-2.5,0-4.8,0-7.1
		C99.9,60.7,100.2,60.4,100.6,60.1z"/>
	<path class="st6" d="M120.6,65.1c0-1.8,0-3.6,0-5.5c0.6-0.4,1.2-0.8,1.8-1.2c0,2.3,0,4.8,0,7.3c0,0.1-0.5,0.2-0.8,0.3
		C121.2,65.7,120.9,65.4,120.6,65.1z"/>
	<path class="st14" d="M168.6,67.1c-0.3-0.4-0.9-0.8-1-1.2c-0.1-1.6,0-3.2,0-4.8c0.3-0.3,0.7-0.7,1-1c0.3,0,0.7,0,1,0
		c0.3,0.3,0.7,0.7,1,1c-0.3,0.3-0.7,0.7-1,1c0,1.3,0,2.7,0,4C169.2,66.4,168.9,66.7,168.6,67.1z"/>
	<path class="st9" d="M75.6,68.1c-0.3-0.3-1-0.5-1-0.8c-0.1-3.8-0.1-7.6,0-11.4c0-0.3,0.6-0.5,1-0.8C75.6,59.4,75.6,63.7,75.6,68.1z
		"/>
	<path class="st13" d="M70.6,68.1c-0.3,0-0.7,0-1,0c-1,0-2,0-3,0c-0.3,0-0.7,0-1,0c-0.3-0.3-0.7-0.7-1-1c-0.3-0.3-0.7-0.7-1-1
		c0-0.3,0-0.7,0-1c0-1,0-2,0-3c0-0.3,0-0.7,0-1c0.3,0,0.7,0,1,0c0,0.7,0,1.3,0,2c0,0.3,0,0.7,0,1c0.3,0.3,0.7,0.7,1,1
		c0.3,0.3,0.7,0.7,1,1s0.7,0.7,1,1c0.7,0,1.3,0,2,0c0.3,0,0.7,0,1,0C70.6,67.4,70.6,67.7,70.6,68.1z"/>
	<path class="st15" d="M75.6,68.1c0-4.3,0-8.7,0-13c1.9,0.5,0.6,2,1,3c0,2.3,0,4.7,0,7C76.2,66,77.5,67.6,75.6,68.1z"/>
	<path class="st16" d="M100.6,60.1c-0.3,0.3-0.7,0.7-1,1c-0.7-0.4-1.3-0.7-2-1.1c-0.7,0.4-1.3,0.7-2,1.1c-0.1-1.5-1.2-0.8-2-1
		c0-0.3,0-0.7,0-1c0.5,0,1.1,0.2,1.4,0C97.3,56.8,98.9,58.6,100.6,60.1z"/>
	<path class="st17" d="M64.6,60.1c1-0.8,2.1-1.5,3-2.2c1.7,0.5,3.2,0.7,4,2.2c-0.3,0.3-0.7,0.7-1,1c-1.7-1.3-3.3-1.3-5,0
		C65.2,60.7,64.9,60.4,64.6,60.1z"/>
	<path class="st18" d="M71.6,60.1c0.8,1,1.5,2.1,2.2,3c-0.5,1.7-0.7,3.2-2.2,4c-0.3-0.3-0.7-0.7-1-1c1.3-1.7,1.3-3.3,0-5
		C70.9,60.7,71.2,60.4,71.6,60.1z"/>
	<path class="st7" d="M105.6,60.1c0-0.3,0-0.7,0-1c1-0.4,2-0.8,3.3-1.3c1,1.2,1.9,2.3,2.7,3.3c0,0.3,0,0.7,0,1c-0.3,0-0.7,0-1,0
		C109.8,59.2,107.4,60.3,105.6,60.1z"/>
	<path class="st13" d="M57.6,57.1c-1,0-2,0-3,0c-0.7,0-1.3,0-2,0c0-0.3,0-0.7,0-1c0.8-0.2,1.9,0.5,2-1c1,0,2,0,3,0
		c0.1,1.5,1.2,0.8,2,1c0,0.3,0,0.7,0,1C58.9,57.1,58.2,57.1,57.6,57.1z"/>
	<path class="st19" d="M139.6,57.1c-0.4-0.3-0.8-0.9-1.2-1c-1.9-0.1-3.9,0-5.8,0c0.4-0.3,0.8-0.9,1.2-1c2.1-0.1,4.2,0,6.3,0
		C140.8,55.9,141.1,56.7,139.6,57.1z"/>
	<path class="st2" d="M77.6,65.1c0-1.8,0-3.6,0-5.3c0-0.1,0.1-0.3,0.4-0.6c1.1,1.4,0.4,2.9,0.6,4.3c0.1,0.7-0.3,1.7,1,1.7
		c0,0.3,0,0.7,0,1c-0.3,0.3-0.7,0.7-1,1C77.1,67,77.7,65.8,77.6,65.1z"/>
	<path class="st20" d="M36.6,65.1c0.4,1-0.9,2.5,1,3c-0.7,1.4-1.5,2.7-2.4,4.4C35,70.7,35.9,66.1,36.6,65.1z"/>
	<path class="st21" d="M170.6,61.1c-0.3-0.3-0.7-0.7-1-1c0-0.3,0-0.7,0-1c1.6,0,3.2-0.1,4.8,0c0.4,0,0.8,0.6,1.2,1
		c-0.3,0.3-0.7,0.7-1,1c-0.9-0.2-1.7-0.5-2.7-0.7C171.6,60.5,171.1,60.8,170.6,61.1z"/>
	<path class="st1" d="M109.6,68.1c-0.6,0.3-1.3,0.7-2.1,1.2c-0.9-0.7-1.9-1.4-2.9-2.2c0.3-0.3,0.7-0.7,1-1c1,0.3,2,0.7,3,1
		C108.9,67.4,109.2,67.7,109.6,68.1z"/>
	<path class="st7" d="M126.6,67.1c0.7,0,1.3,0,2,0c0.3,0,0.7,0,1,0c0,0.3,0,0.7,0,1c-0.6,0.3-1.3,0.7-2.1,1.2
		c-0.9-0.7-1.9-1.4-2.9-2.2c0-0.3,0-0.7,0-1c0.3,0,0.7,0,1,0C125.9,66.4,126.2,66.7,126.6,67.1z"/>
	<path class="st19" d="M132.6,68.1c2.7,0,5.3,0,8,0c-0.3,0.3-0.5,0.9-0.8,1c-2.1,0.1-4.3,0.1-6.4,0C133.1,69,132.8,68.4,132.6,68.1z
		"/>
	<path class="st13" d="M126.6,63.1c-0.5,0-1,0-1.8,0c-0.1-1.4-1-2.9,0.8-4c0.3,0.3,0.7,0.7,1,1c0,0.7,0,1.3,0,2
		C126.6,62.4,126.6,62.7,126.6,63.1z"/>
	<path class="st11" d="M51.6,59.1c0,0.3,0,0.7,0,1c-1.9,0.5-0.6,2-1,3c0,0.3,0,0.7,0,1c-0.3,0-0.7,0-1,0c0-0.3,0-0.7,0-1
		c0-1,0-2,0-3c0-0.3,0-0.7,0-1c0.3-0.3,0.7-0.7,1-1C50.9,58.4,51.2,58.7,51.6,59.1z"/>
	<path class="st22" d="M63.6,62.1c0,1,0,2,0,3c-0.7,0.3-1.3,0.7-2,1c-0.1-1.5-1.2-0.8-2-1c0.2-1.9,1.8-0.4,2.2-0.9
		C62.5,63.3,63,62.7,63.6,62.1z"/>
	<path class="st13" d="M93.6,59.1c0,0.3,0,0.7,0,1c-0.3,0-0.7,0-1,0c-0.7,0-1.3,0-2,0c-0.3,0.3-0.7,0.7-1,1c-0.3-0.3-0.7-0.7-1-1
		c0.3-0.3,0.7-0.7,1-1c1,0,2,0,3,0C92.9,59.1,93.2,59.1,93.6,59.1z"/>
	<path class="st4" d="M129.6,67.1c-0.3,0-0.7,0-1,0c0-0.3,0-0.7,0-1c0.3-0.1,0.6-0.2,0.8-0.3c-0.3-0.2-0.6-0.4-0.8-0.7
		c0-0.3,0-0.7,0-1c0-0.3,0-0.7,0-1c0.3,0,0.7,0,1,0c0.3,0.3,0.7,0.7,1,1c0,0.3,0,0.7,0,1s0,0.7,0,1s0,0.7,0,1
		C130.2,67.1,129.9,67.1,129.6,67.1z"/>
	<path class="st5" d="M109.6,68.1c-0.3-0.3-0.7-0.7-1-1c0.3-0.3,0.5-0.7,0.8-1c0.4-0.4,0.8-0.7,1.2-1c0.3,0,0.7,0,1,0s0.7,0,1,0
		C111.6,66.1,110.6,67.1,109.6,68.1z"/>
	<path class="st13" d="M150.6,68.1c-0.3-0.4-0.9-0.8-1-1.2c-0.1-1.6,0-3.2,0-4.8c0.3,0,0.7,0,1,0C150.6,64.1,150.6,66.1,150.6,68.1z
		"/>
	<path class="st14" d="M172.6,67.1c0,0.3,0,0.7,0,1c-0.3,0.3-0.7,0.7-1,1c-0.3,0-0.7,0-1,0c-0.1-1.5-1.2-0.8-2-1c0-0.3,0-0.7,0-1
		c0.3-0.3,0.7-0.7,1-1C170.6,66.4,171.6,66.7,172.6,67.1z"/>
	<path class="st21" d="M184.6,63.1c-0.3-0.3-0.7-0.7-1-1c0.7-1,1.3-2,2-3c0.3,0.3,0.7,0.7,1,1C185.9,61.1,185.2,62.1,184.6,63.1z"/>
	<path class="st2" d="M159.6,66.1c0.5-0.3,1-0.5,1.6-0.9c0.1,0.2,0.2,0.5,0.4,0.9c-0.7,0.7-1.3,1.3-2,2c-0.3,0-0.7,0-1,0s-0.7,0-1,0
		c0-0.3,0-0.7,0-1C158.3,66.9,159.5,67.5,159.6,66.1z"/>
	<path class="st13" d="M155.6,59.1c1.9,0.2,4.2-0.8,5,2c-0.3,0-0.7,0-1,0s-0.7,0-1,0c-0.5-1.9-2-0.6-3-1
		C155.6,59.7,155.6,59.4,155.6,59.1z"/>
	<path class="st13" d="M83.6,66.1c0.3,0.3,0.7,0.7,1,1c-0.3,0.3-0.7,0.7-1,1c-1,0-2,0-3,0c-0.3,0-0.7,0-1,0c0-0.3,0-0.7,0-1
		c0.3,0,0.7,0,1,0c0.7,0,1.3,0,2,0C82.9,66.7,83.2,66.4,83.6,66.1z"/>
	<path class="st5" d="M170.6,72.1c-1-1-2-2-3-3c1,0.3,2,0.7,3,1c0,0.3,0,0.7,0,1S170.6,71.7,170.6,72.1z"/>
	<path class="st14" d="M125.6,59.1c1.3-1.4,2.7-1.4,4,0c-0.3,0.3-0.7,0.7-1,1c-0.3,0-0.7,0-1,0C127.5,58.6,126.3,59.2,125.6,59.1z"
		/>
	<path class="st23" d="M53.6,68.1c1.7,0,3.3,0,5,0C56.9,69.5,55.2,69.5,53.6,68.1z"/>
	<path class="st1" d="M170.6,72.1c0-0.3,0-0.7,0-1c0.3,0,0.7,0,1,0c0.7,0,1.3,0,2,0c0.3,0,0.7,0,1,0s0.7,0,1,0
		c-0.4,0.3-0.8,0.9-1.2,1C173.1,72.1,171.8,72.1,170.6,72.1z"/>
	<path class="st24" d="M170.6,70.1c-1-0.3-2-0.7-3-1c0.3-0.3,0.7-0.7,1-1c0.8,0.2,1.9-0.5,2,1C170.6,69.4,170.6,69.7,170.6,70.1z"/>
	<path class="st5" d="M152.6,62.1c0,1.3,0,2.7,0,4C151.2,64.8,151.2,63.3,152.6,62.1z"/>
	<path class="st13" d="M112.6,65.1c-0.3,0-0.7,0-1,0c0-1,0-2,0-3c0.3,0,0.7,0,1,0C112.6,63.1,112.6,64.1,112.6,65.1z"/>
	<path class="st3" d="M126.6,63.1c0-0.3,0-0.7,0-1c0.3,0,0.7,0,1,0s0.7,0,1,0c0,0.3,0,0.7,0,1c-0.3,0.3-0.7,0.7-1,1
		C127.2,63.7,126.9,63.4,126.6,63.1z"/>
	<path class="st19" d="M134.6,66.1c-1.4-1-1.4-2,0-3C134.6,64.1,134.6,65.1,134.6,66.1z"/>
	<path class="st9" d="M120.6,65.1c0.3,0.3,0.7,0.7,1,1c0,0.3,0,0.7,0,1c-0.3,0-0.7,0-1,0s-0.7,0-1,0c0-0.3,0-0.7,0-1
		C119.9,65.7,120.2,65.4,120.6,65.1z"/>
	<path class="st25" d="M50.6,63.1c0.4-1-0.9-2.5,1-3c0,1,0,2,0,3C51.2,63.1,50.9,63.1,50.6,63.1z"/>
	<path class="st25" d="M49.6,60.1c0,1,0,2,0,3C48.2,62,48.2,61.1,49.6,60.1z"/>
	<path class="st22" d="M57.6,67.1c-1,0-2,0-3,0c0-0.3,0-0.7,0-1c1,0,2,0,3,0C57.6,66.4,57.6,66.7,57.6,67.1z"/>
	<path class="st11" d="M51.6,59.1c-0.3-0.3-0.7-0.7-1-1c0.3-0.3,0.7-0.7,1-1c0.3,0,0.7,0,1,0c0,0.3,0,0.7,0,1
		C52.2,58.4,51.9,58.7,51.6,59.1z"/>
	<path class="st25" d="M66.6,68.1c1,0,2,0,3,0C68.5,69.4,67.6,69.4,66.6,68.1z"/>
	<path class="st19" d="M134.6,61.1c-1.4-1-1.4-2,0-3C134.6,59.1,134.6,60.1,134.6,61.1z"/>
	<path class="st26" d="M92.6,59.1c-1,0-2,0-3,0C90.6,57.7,91.5,57.7,92.6,59.1z"/>
	<path class="st19" d="M80.6,68.1c1,0,2,0,3,0C82.5,69.4,81.6,69.4,80.6,68.1z"/>
	<path class="st19" d="M116.6,68.1c1,0,2,0,3,0C118.5,69.4,117.6,69.4,116.6,68.1z"/>
	<path class="st13" d="M60.6,59.1c-0.3-0.3-0.7-0.7-1-1c0-0.3,0-0.7,0-1c0.3,0,0.7,0,1,0c0.3,0.3,0.7,0.7,1,1
		C61.2,58.4,60.9,58.7,60.6,59.1z"/>
	<path class="st13" d="M103.6,66.1c0.3-0.3,0.7-0.7,1-1c0,0.3,0,0.7,0,1s0,0.7,0,1C104.2,66.7,103.9,66.4,103.6,66.1z"/>
	<path class="st27" d="M176.6,62.1c0-0.3,0-0.7,0-1c0.3,0,0.7,0,1,0c0.3,0.3,0.7,0.7,1,1c-0.3,0-0.7,0-1,0S176.9,62.1,176.6,62.1z"
		/>
	<path class="st28" d="M29.6,72.1c0.3,0,0.7,0,1,0c0.3,0.1,0.6,0.3,1.1,0.5C30.6,73.2,29.8,73.4,29.6,72.1z"/>
	<path class="st29" d="M127.6,62.1c-0.3,0-0.7,0-1,0c0-0.7,0-1.3,0-2c0.3,0,0.7,0,1,0C127.6,60.7,127.6,61.4,127.6,62.1z"/>
	<path class="st11" d="M128.6,60.1c0.3-0.3,0.7-0.7,1-1c0.3,0.3,0.7,0.7,1,1c-0.3,0-0.7,0-1,0S128.9,60.1,128.6,60.1z"/>
	<path class="st13" d="M60.6,59.1c0.3-0.3,0.7-0.7,1-1c0.3,0.1,0.6,0.2,1.4,0.6C61.8,58.8,61.2,58.9,60.6,59.1z"/>
	<path class="st26" d="M59.6,57.1c0,0.3,0,0.7,0,1c-0.8-0.2-1.9,0.5-2-1C58.2,57.1,58.9,57.1,59.6,57.1z"/>
	<path class="st17" d="M52.6,58.1c0-0.3,0-0.7,0-1c0.7,0,1.3,0,2,0C54.5,58.5,53.3,57.9,52.6,58.1z"/>
	<path class="st17" d="M54.6,55.1c-0.1,1.5-1.2,0.8-2,1C52.6,54.6,53.8,55.2,54.6,55.1z"/>
	<path class="st26" d="M59.6,56.1c-0.8-0.2-1.9,0.5-2-1C58.3,55.2,59.5,54.6,59.6,56.1z"/>
	<path class="st5" d="M155.6,59.1c0,0.3,0,0.7,0,1c-0.3,0-0.7,0-1,0C154.9,59.7,155.2,59.4,155.6,59.1z"/>
	<path class="st30" d="M126.6,67.1c-0.3-0.3-0.7-0.7-1-1C125.9,66.4,126.2,66.7,126.6,67.1z"/>
	<path class="st10" d="M165.6,59.1c-0.3,0.3-0.7,0.7-1,1C164.9,59.7,165.2,59.4,165.6,59.1z"/>
	<path class="st30" d="M124.6,66.1c0,0.3,0,0.7,0,1c-0.3-0.2-0.6-0.4-0.8-0.7C124,66.3,124.3,66.2,124.6,66.1z"/>
	<path class="st19" d="M119.6,66.1c0,0.3,0,0.7,0,1c-0.3,0-0.7,0-1,0C118.9,66.7,119.2,66.4,119.6,66.1z"/>
	<path class="st19" d="M117.6,67.1c-0.3-0.3-0.7-0.7-1-1C116.9,66.4,117.2,66.7,117.6,67.1z"/>
	<path class="st31" d="M169.6,59.1c0,0.3,0,0.7,0,1c-0.3,0-0.7,0-1,0C168.9,59.7,169.2,59.4,169.6,59.1z"/>
	<path class="st23" d="M57.6,67.1c0-0.3,0-0.7,0-1c0.3,0,0.7,0,1,0C58.2,66.4,57.9,66.7,57.6,67.1z"/>
	<path class="st22" d="M60.6,67.1c0.3-0.3,0.7-0.7,1-1C61.2,66.4,60.9,66.7,60.6,67.1z"/>
	<path class="st25" d="M63.6,66.1c0.3,0.3,0.7,0.7,1,1C64.2,66.7,63.9,66.4,63.6,66.1z"/>
	<path class="st32" d="M176.6,60.1c0.3-0.3,0.7-0.7,1-1c0,0.3,0,0.7,0,1C177.2,60.1,176.9,60.1,176.6,60.1z"/>
	<path class="st19" d="M83.6,66.1c-0.3,0.3-0.7,0.7-1,1C82.9,66.7,83.2,66.4,83.6,66.1z"/>
	<path class="st19" d="M80.6,67.1c-0.3,0-0.7,0-1,0c0-0.3,0-0.7,0-1C79.9,66.4,80.2,66.7,80.6,67.1z"/>
	<path class="st13" d="M179.6,71.1c0.3,0.3,0.7,0.7,1,1C180.2,71.7,179.9,71.4,179.6,71.1z"/>
	<path class="st17" d="M52.6,57.1c-0.3,0-0.7,0-1,0c0.3-0.3,0.7-0.7,1-1C52.6,56.4,52.6,56.7,52.6,57.1z"/>
	<path class="st26" d="M60.6,57.1c-0.3,0-0.7,0-1,0c0-0.3,0-0.7,0-1C59.9,56.4,60.2,56.7,60.6,57.1z"/>
	<path class="st14" d="M158.6,68.1c0.3,0,0.7,0,1,0c-0.3,0.3-0.7,0.7-1,1C158.6,68.7,158.6,68.4,158.6,68.1z"/>
	<path class="st14" d="M154.6,68.1c0.3,0.3,0.7,0.7,1,1C155.2,68.7,154.9,68.4,154.6,68.1z"/>
	<path class="st25" d="M50.6,58.1c-0.3,0.3-0.7,0.7-1,1C49.9,58.7,50.2,58.4,50.6,58.1z"/>
	<path class="st19" d="M129.6,67.1c0.3,0,0.7,0,1,0c-0.3,0.3-0.7,0.7-1,1C129.6,67.7,129.6,67.4,129.6,67.1z"/>
	<path class="st19" d="M120.6,67.1c0.3,0,0.7,0,1,0c-0.3,0.3-0.7,0.7-1,1C120.6,67.7,120.6,67.4,120.6,67.1z"/>
	<path class="st19" d="M79.6,67.1c0,0.3,0,0.7,0,1c-0.3-0.3-0.7-0.7-1-1C78.9,67.1,79.2,67.1,79.6,67.1z"/>
	<path class="st25" d="M70.6,68.1c0-0.3,0-0.7,0-1c0.3,0,0.7,0,1,0C71.2,67.4,70.9,67.7,70.6,68.1z"/>
	<path class="st25" d="M64.6,67.1c0.3,0.3,0.7,0.7,1,1C65.2,67.7,64.9,67.4,64.6,67.1z"/>
	<path class="st22" d="M59.6,68.1c0.3-0.3,0.7-0.7,1-1C60.2,67.4,59.9,67.7,59.6,68.1z"/>
	<path class="st25" d="M51.6,67.1c0.3,0.3,0.7,0.7,1,1C52.2,67.7,51.9,67.4,51.6,67.1z"/>
	<path class="st23" d="M50.6,63.1c0.3,0,0.7,0,1,0c0,0.3,0,0.7,0,1c-0.3,0-0.7,0-1,0C50.6,63.7,50.6,63.4,50.6,63.1z"/>
	<path class="st14" d="M129.6,60.1c0.3,0,0.7,0,1,0c-0.3,0.3-0.7,0.7-1,1C129.6,60.7,129.6,60.4,129.6,60.1z"/>
	<path class="st21" d="M176.6,62.1c0.3,0,0.7,0,1,0c0,0.3,0,0.7,0,1C177.2,62.7,176.9,62.4,176.6,62.1z"/>
	<path class="st17" d="M153.6,60.1c-0.3,0.3-0.7,0.7-1,1C152.9,60.7,153.2,60.4,153.6,60.1z"/>
	<path class="st10" d="M164.6,60.1c-0.3,0.3-0.7,0.7-1,1C163.9,60.7,164.2,60.4,164.6,60.1z"/>
	<path class="st10" d="M166.6,61.1c0.3-0.3,0.7-0.7,1-1c0,0.3,0,0.7,0,1C167.2,61.1,166.9,61.1,166.6,61.1z"/>
	<path class="st29" d="M128.6,63.1c0-0.3,0-0.7,0-1c0.3,0.3,0.7,0.7,1,1C129.2,63.1,128.9,63.1,128.6,63.1z"/>
	<path class="st31" d="M167.6,61.1c0-0.3,0-0.7,0-1c0.3,0,0.7,0,1,0C168.2,60.4,167.9,60.7,167.6,61.1z"/>
	<path class="st21" d="M176.6,61.1c-0.3,0-0.7,0-1,0c0-0.3,0-0.7,0-1c0.3,0,0.7,0,1,0C176.6,60.4,176.6,60.7,176.6,61.1z"/>
	<path class="st21" d="M180.6,62.1c-0.3-0.3-0.7-0.7-1-1C179.9,61.4,180.2,61.7,180.6,62.1z"/>
	<path class="st5" d="M112.6,62.1c-0.3,0-0.7,0-1,0c0-0.3,0-0.7,0-1C111.9,61.4,112.2,61.7,112.6,62.1z"/>
	<path class="st18" d="M147.6,61.1c0.3,0.3,0.7,0.7,1,1C148.2,61.7,147.9,61.4,147.6,61.1z"/>
	<path class="st18" d="M150.6,62.1c-0.3,0-0.7,0-1,0c0-0.3,0-0.7,0-1C149.9,61.4,150.2,61.7,150.6,62.1z"/>
	<path class="st13" d="M177.6,60.1c0-0.3,0-0.7,0-1c0.3,0,0.7,0,1,0c0,0.3,0,0.7,0,1C178.2,60.1,177.9,60.1,177.6,60.1z"/>
	<path class="st25" d="M54.6,66.1c0,0.3,0,0.7,0,1c-0.3-0.3-0.7-0.7-1-1C53.9,66.1,54.2,66.1,54.6,66.1z"/>
	<path class="st25" d="M50.6,66.1c0.3,0.3,0.7,0.7,1,1C51.2,66.7,50.9,66.4,50.6,66.1z"/>
	<path class="st21" d="M178.6,60.1c0-0.3,0-0.7,0-1c0.3,0.3,0.7,0.7,1,1C179.2,60.1,178.9,60.1,178.6,60.1z"/>
	<path class="st7" d="M186.6,60.1c-0.3-0.3-0.7-0.7-1-1C185.9,59.4,186.2,59.7,186.6,60.1z"/>
	<path class="st19" d="M130.6,66.1c0-0.3,0-0.7,0-1c0.3,0.2,0.6,0.4,0.8,0.7C131.1,65.8,130.8,65.9,130.6,66.1z"/>
	<path class="st19" d="M128.6,65.1c0.3,0.2,0.6,0.4,0.8,0.7c-0.3,0.1-0.6,0.2-0.8,0.3C128.6,65.7,128.6,65.4,128.6,65.1z"/>
	<path class="st25" d="M64.6,61.1c-0.3,0-0.7,0-1,0c0.3-0.3,0.7-0.7,1-1C64.6,60.4,64.6,60.7,64.6,61.1z"/>
	<path class="st26" d="M89.6,61.1c0.3-0.3,0.7-0.7,1-1C90.2,60.4,89.9,60.7,89.6,61.1z"/>
	<path class="st22" d="M59.6,65.1c-0.3,0.3-0.7,0.7-1,1C58.9,65.7,59.2,65.4,59.6,65.1z"/>
	<path class="st25" d="M53.6,66.1c-0.3-0.3-0.7-0.7-1-1C52.9,65.4,53.2,65.7,53.6,66.1z"/>
	<path class="st25" d="M50.6,65.1c0,0.3,0,0.7,0,1c-0.3-0.3-0.7-0.7-1-1C49.9,65.1,50.2,65.1,50.6,65.1z"/>
	<path class="st26" d="M92.6,60.1c0.3,0,0.7,0,1,0c0,0.3,0,0.7,0,1C93.2,60.7,92.9,60.4,92.6,60.1z"/>
	<path class="st21" d="M181.6,65.1c-0.3-0.3-0.7-0.7-1-1C180.9,64.4,181.2,64.7,181.6,65.1z"/>
	<path class="st25" d="M52.6,65.1c-0.3-0.3-0.7-0.7-1-1C51.9,64.4,52.2,64.7,52.6,65.1z"/>
	<path class="st23" d="M50.6,65.1c-0.3,0-0.7,0-1,0c0-0.3,0-0.7,0-1c0.3,0,0.7,0,1,0C50.6,64.4,50.6,64.7,50.6,65.1z"/>
	<path class="st21" d="M178.6,63.1c0.3,0.3,0.7,0.7,1,1C179.2,63.7,178.9,63.4,178.6,63.1z"/>
	<path class="st19" d="M130.6,64.1c-0.3-0.3-0.7-0.7-1-1C129.9,63.4,130.2,63.7,130.6,64.1z"/>
	<path class="st29" d="M129.6,60.1c0,0.3,0,0.7,0,1c-0.3-0.3-0.7-0.7-1-1C128.9,60.1,129.2,60.1,129.6,60.1z"/>
	<path class="st13" d="M127.6,64.1c0.3-0.3,0.7-0.7,1-1c0,0.3,0,0.7,0,1C128.2,64.1,127.9,64.1,127.6,64.1z"/>
	<path class="st33" d="M176.6,61.1c0-0.3,0-0.7,0-1c0.3,0,0.7,0,1,0c0,0.3,0,0.7,0,1C177.2,61.1,176.9,61.1,176.6,61.1z"/>
	<path class="st29" d="M159.6,66.1c-0.1,1.5-1.2,0.8-2,1c-0.3,0-0.7,0-1,0c-0.8-0.2-1.9,0.5-2-1C156.2,64.6,157.9,64.6,159.6,66.1z"
		/>
	<path class="st31" d="M159.6,63.1c-1.7,0-3.3,0-5,0c0-0.3,0-0.7,0-1c0.3-0.3,0.7-0.7,1-1c1,0,2,0,3,0c0.3,0.3,0.7,0.7,1,1
		C159.6,62.4,159.6,62.7,159.6,63.1z"/>
	<path class="st17" d="M158.6,61.1c-1,0-2,0-3,0c0-0.3,0-0.7,0-1C156.5,60.4,158.1,59.1,158.6,61.1z"/>
	<path class="st14" d="M156.6,67.1c0.3,0,0.7,0,1,0c0,0.3,0,0.7,0,1C157.2,67.7,156.9,67.4,156.6,67.1z"/>
	<path class="st34" d="M159.6,63.1c0-0.3,0-0.7,0-1c0.3,0,0.7,0,1,0C160.2,62.4,159.9,62.7,159.6,63.1z"/>
	<path class="st5" d="M154.6,62.1c0,0.3,0,0.7,0,1c-0.3-0.2-0.6-0.4-0.8-0.7C154,62.3,154.3,62.2,154.6,62.1z"/>
	<path class="st1" d="M160.6,62.1c-0.3,0-0.7,0-1,0c0-0.3,0-0.7,0-1c0.3,0,0.7,0,1,0C160.6,61.4,160.6,61.7,160.6,62.1z"/>
	<path class="st34" d="M155.6,61.1c-0.3,0.3-0.7,0.7-1,1C154.9,61.7,155.2,61.4,155.6,61.1z"/>
	<path class="st29" d="M104.6,66.1c0-0.3,0-0.7,0-1c0-1.7-0.3-3.5,1-5c1.9,0.2,4.2-0.8,5,2c0,1,0,2,0,3c-0.4,0.3-0.9,0.6-1.2,1
		c-0.3,0.3-0.5,0.7-0.8,1c-1-0.3-2-0.7-3-1C105.2,66.1,104.9,66.1,104.6,66.1z"/>
	<path class="st31" d="M172.6,67.1c-1-0.3-2-0.7-3-1c0-1.3,0-2.7,0-4c0.3-0.3,0.7-0.7,1-1c0.5-0.3,1-0.6,1.3-0.7
		c1,0.3,1.9,0.5,2.7,0.7c0.3,0.3,0.7,0.7,1,1c0,1.1,0,2.2,0,3.3C174.9,66.5,174,67.4,172.6,67.1z"/>
	<path class="st35" d="M170.6,70.1c0-0.3,0-0.7,0-1c0.3,0,0.7,0,1,0s0.7,0,1,0s0.7,0,1,0c0.3-0.3,0.7-0.7,1-1c1.5,0.1,0.8,1.2,1,2
		c-0.3,0-0.7,0-1,0c-0.3,0.3-0.7,0.7-1,1c-0.7,0-1.3,0-2,0C171.2,70.7,170.9,70.4,170.6,70.1z"/>
	<path class="st13" d="M174.6,70.1c0.3,0,0.7,0,1,0c0,0.3,0,0.7,0,1c-0.3,0-0.7,0-1,0C174.6,70.7,174.6,70.4,174.6,70.1z"/>
	<path class="st10" d="M174.6,68.1c-0.3,0.3-0.7,0.7-1,1C173.9,68.7,174.2,68.4,174.6,68.1z"/>
	<path class="st7" d="M172.6,69.1c-0.3,0-0.7,0-1,0c0.3-0.3,0.7-0.7,1-1C172.6,68.4,172.6,68.7,172.6,69.1z"/>
	<path class="st21" d="M175.6,62.1c-0.3-0.3-0.7-0.7-1-1c0.3,0,0.7,0,1,0C175.6,61.4,175.6,61.7,175.6,62.1z"/>
	<path class="st13" d="M144.6,61.1c-0.3-0.3-0.7-0.7-1-1C143.9,60.4,144.2,60.7,144.6,61.1z"/>
	<path class="st13" d="M169.6,66.1c-0.3,0.3-0.7,0.7-1,1C168.9,66.7,169.2,66.4,169.6,66.1z"/>
	<path class="st21" d="M170.6,61.1c-0.3,0.3-0.7,0.7-1,1C169.9,61.7,170.2,61.4,170.6,61.1z"/>
	<path class="st33" d="M70.6,61.1c1.3,1.7,1.3,3.3,0,5c-0.3,0.3-0.7,0.7-1,1c-0.7,0-1.3,0-2,0c-0.3-0.3-0.7-0.7-1-1s-0.7-0.7-1-1
		c-0.3-0.3-0.7-0.7-1-1c0-0.3,0-0.7,0-1c1.5-0.1,0.8-1.2,1-2C67.2,59.8,68.9,59.8,70.6,61.1z"/>
	<path class="st25" d="M65.6,61.1c-0.2,0.8,0.5,1.9-1,2c0-0.7,0-1.3,0-2C64.9,61.1,65.2,61.1,65.6,61.1z"/>
	<path class="st25" d="M69.6,67.1c0.3-0.3,0.7-0.7,1-1c0,0.3,0,0.7,0,1C70.2,67.1,69.9,67.1,69.6,67.1z"/>
	<path class="st25" d="M66.6,66.1c0.3,0.3,0.7,0.7,1,1C67.2,66.7,66.9,66.4,66.6,66.1z"/>
	<path class="st25" d="M64.6,64.1c0.3,0.3,0.7,0.7,1,1C65.2,64.7,64.9,64.4,64.6,64.1z"/>
	<path class="st13" d="M65.6,61.1c-0.3,0-0.7,0-1,0c0-0.3,0-0.7,0-1C64.9,60.4,65.2,60.7,65.6,61.1z"/>
	<path class="st13" d="M71.6,60.1c-0.3,0.3-0.7,0.7-1,1C70.9,60.7,71.2,60.4,71.6,60.1z"/>
	<path class="st13" d="M70.6,67.1c0-0.3,0-0.7,0-1c0.3,0.3,0.7,0.7,1,1C71.2,67.1,70.9,67.1,70.6,67.1z"/>
	<path class="st5" d="M110.6,65.1c0-1,0-2,0-3c0.3,0,0.7,0,1,0c0,1,0,2,0,3C111.2,65.1,110.9,65.1,110.6,65.1z"/>
	<path class="st13" d="M79.6,67.1c-0.3,0-0.7,0-1,0c0.3-0.3,0.7-0.7,1-1C79.6,66.4,79.6,66.7,79.6,67.1z"/>
	<path class="st11" d="M175.6,61.1c-0.3,0-0.7,0-1,0c0.3-0.3,0.7-0.7,1-1C175.6,60.4,175.6,60.7,175.6,61.1z"/>
	<path class="st13" d="M104.6,66.1c0.3,0,0.7,0,1,0c-0.3,0.3-0.7,0.7-1,1C104.6,66.7,104.6,66.4,104.6,66.1z"/>
	<path class="st11" d="M127.6,60.1c-0.3,0-0.7,0-1,0c-0.3-0.3-0.7-0.7-1-1C126.3,59.2,127.5,58.6,127.6,60.1z"/>
	<path class="st34" d="M159.6,61.1c0,0.3,0,0.7,0,1c-0.3-0.3-0.7-0.7-1-1C158.9,61.1,159.2,61.1,159.6,61.1z"/>
	<path class="st36" d="M170.6,70.1c0.3,0.3,0.7,0.7,1,1c-0.3,0-0.7,0-1,0C170.6,70.7,170.6,70.4,170.6,70.1z"/>
	<path class="st36" d="M174.6,70.1c0,0.3,0,0.7,0,1c-0.3,0-0.7,0-1,0C173.9,70.7,174.2,70.4,174.6,70.1z"/>
</g>
</svg>
