<?xml version="1.0" encoding="utf-8"?>
<!-- Generator: Adobe Illustrator 19.0.0, SVG Export Plug-In . SVG Version: 6.00 Build 0)  -->
<svg version="1.1" id="Warstwa_1" xmlns="http://www.w3.org/2000/svg" xmlns:xlink="http://www.w3.org/1999/xlink" x="0px" y="0px"
	 viewBox="0 0 210.1 120.1" style="enable-background:new 0 0 210.1 120.1;" xml:space="preserve">
<style type="text/css">
	.st0{fill:#FEFEFE;}
	.st1{fill:#A0A0A0;}
	.st2{fill:#9C9C9C;}
	.st3{fill:#9D9D9D;}
	.st4{fill:#9E9E9E;}
	.st5{fill:#9B9B9B;}
	.st6{fill:#999999;}
	.st7{fill:#9A9A9A;}
	.st8{fill:#A1A1A1;}
	.st9{fill:#A3A3A3;}
	.st10{fill:#F3F3F3;}
	.st11{fill:#F8F8F8;}
	.st12{fill:#F9F9F9;}
	.st13{fill:#A7A7A7;}
	.st14{fill:#BDBDBD;}
	.st15{fill:#979797;}
	.st16{fill:#A8A8A8;}
	.st17{fill:#DEDEDE;}
	.st18{fill:#A4A4A4;}
	.st19{fill:#A5A5A5;}
	.st20{fill:#A9A9A9;}
	.st21{fill:#EBEBEB;}
	.st22{fill:#C7C7C7;}
	.st23{fill:#B3B3B3;}
	.st24{fill:#B8B8B8;}
	.st25{fill:#9F9F9F;}
	.st26{fill:#DADADA;}
	.st27{fill:#BFBFBF;}
	.st28{fill:#C4C4C4;}
	.st29{fill:#B7B7B7;}
	.st30{fill:#AAAAAA;}
	.st31{fill:#D1D1D1;}
	.st32{fill:#FAFAFA;}
	.st33{fill:#F6F6F6;}
	.st34{fill:#E8E8E8;}
	.st35{fill:#F7F7F7;}
	.st36{fill:#E3E3E3;}
</style>
<g>
	<path class="st0" d="M-2.9,120.1c0-40,0-80,0-120c70,0,140,0,210,0c0,40,0,80,0,120C137.1,120.1,67.1,120.1-2.9,120.1z M98.1,53.1
		c0.1,1.5,1.2,0.8,2,1c0.3,0,0.7,0,1,0s0.7,0,1,0c0.3,0.3,0.7,0.7,1,1c0.3-0.1,0.6-0.2,0.8-0.3c-0.3-0.2-0.6-0.4-0.8-0.7
		c-0.3-0.3-0.7-0.7-1-1c-0.3,0-0.7,0-1,0s-0.7,0-1,0c-0.3-0.3-0.7-0.7-1-1c-0.3,0-0.7,0-1,0s-0.7,0-1,0c-1-1.2-2-2.5-2.9-3.7
		c0-1,0-2,0-2.7c1.4-1.7,2.7-3.2,3.9-4.7c0.3-0.3,0.7-0.7,1-1c0.3,0,0.7,0,1,0c0.3-0.3,0.7-0.7,1-1c0.3,0,0.7,0,1,0
		c0.7-0.3,1.3-0.7,2-1c0.3-0.3,0.7-0.7,1-1c0.3,0,0.7,0,1,0s0.7,0,1,0c1.4-0.2,1.2-1,0.5-2.1c-0.2,0.5-0.4,0.8-0.5,1.1
		c-0.3,0-0.7,0-1,0s-0.7,0-1,0c-0.3,0.3-0.7,0.7-1,1c-0.8,0.2-1.9-0.5-2,1c-0.3,0-0.7,0-1,0c-0.3,0.3-0.7,0.7-1,1c-0.3,0-0.7,0-1,0
		c-0.3,0.3-0.7,0.7-1,1c-0.3,0-0.7,0-1,0c-3.7,1.4-6.1,4.2-7.8,7.4c1.3,3.8,4.6,4.6,7.8,5.6C97.4,53.1,97.8,53.1,98.1,53.1z
		 M119.1,72.1c-0.3-0.3-0.7-0.7-1-1c-1.3,0-2.7,0-4,0c-0.3,0-0.7,0-1,0c-0.7,0.3-1.3,0.7-2,1c-0.7-0.5-1.3-1-2.2-1.7
		c0-0.6,0-1.4,0-2.2c-1,0-1.7,0-2.5,0c-0.5,1.4-0.9,2.7-1.3,4c1.6,1.9,0.7,4.3,1,6.3c0.8,0.9,1.6,1.7,2.4,2.5c0.9,0,1.7,0,2.5,0
		c0.7,0,1.3,0,2,0c0.9,0,1.9,0.1,2.8,0c0.4-0.1,0.8-0.6,1.2-1c0.3,0,0.7,0,1,0c0.1,1.5,1.2,0.8,2,1c0.7,0,1.3,0,2,0
		c0.6,0,1.2,0,1.9,0c0-2.4,0-4.5,0-6.4c0.6-0.6,1-1,1.4-1.4c0.9,0,1.6,0,2.3,0c0.2,0.3,0.3,0.4,0.3,0.5c0,2.1,0,4.2,0,6.3
		c0.3,0.3,0.5,0.7,0.8,1c0.4-0.3,0.8-0.7,1.2-1c0-2.7,0-5.3,0-8c-0.3-0.3-0.7-0.7-1-1c-1,0-2,0-3,0c-0.3,0.3-0.7,0.7-1,1
		c-1-0.3-2-0.7-3-1c-0.3,0.3-0.7,0.5-1,0.8c-0.4,0.4-0.7,0.8-1,1.2C119.8,72.8,119.4,72.4,119.1,72.1z M50.1,72.1
		c-0.3,0.3-0.7,0.7-1,1c0,0.3,0,0.7,0,1c-1.4,1.3-1.4,2.7,0,4c0,0.3,0,0.7,0,1c0.3,0.3,0.7,0.7,1,1c0.1,1.5,1.2,0.8,2,1
		c0.3,0,0.7,0,1,0c0.8-0.2,1.9,0.5,2-1c0.7-0.7,1.3-1.3,2-2c0.7,0.3,1.3,0.7,2,1c1.4,2,3.4,2.2,5.6,1.9c0.9-1.3,2.8-1.9,2.4-3.9
		c0.3,0.3,0.9,0.5,1,0.8c0.1,1.8,0,3.6,0.1,5.5c0,0.3,0.3,0.5,0.4,0.6c0.9,0,1.7,0,2.5,0c0.1-1,0.2-1.7,0.3-2.7c1.1,0,2.3,0,3.3,0
		c1-1.4,3-2,2.6-4.1c0.7,0.3,1.3,0.7,2,1c0,0.3,0,0.7,0,1c0.3,0.3,0.7,0.7,1,1c0.3,0,0.7,0,1,0c0.3,0.3,0.7,0.7,1,1
		c1.7,0,3.5,0.3,5-1c0.3,0,0.7,0,1,0c1,1.4,2,1.4,3,0c0-1.7,0-3.3,0-5c0.3-0.3,0.7-0.7,1-1c1.3-0.4,2.1-1.1,2-2.6
		c-0.9-0.6-1.7-0.9-2,0.6c-0.7-0.3-1.3-0.7-2-1c-0.3,0-0.7,0-1,0c-1.9,0.5-0.6,2-1,3c-0.3,0-0.7,0-1,0c-0.3-0.3-0.7-0.7-1-1
		c-0.8-2.8-3.1-1.8-5-2c-0.3,0.3-0.7,0.7-1,1s-0.7,0.7-1,1c0,0.3,0,0.7,0,1c-0.7,0-1.3,0-2,0c-0.3-1-0.7-2-1.1-3.3
		c-1.6,0.3-2.8,0.8-4,0.8c-1.2,0-2.5-0.4-3.5-0.5c-1.1,1.4,0.7,3.3-1.5,4c0-0.8,0-1.7,0-2.5c-0.5-0.5-0.9-0.9-1.4-1.4
		c-1.8,0-3.6,0-5.2,0c-0.9,1-1.6,2-2.4,2.9c-0.3,0-0.7,0-1,0c-0.7-0.7-1.3-1.3-2-2c-0.3-0.3-0.7-0.7-1-1c-1,0-2,0-3,0
		C50.8,71.4,50.4,71.8,50.1,72.1z M143.1,80.1c0.3,0.3,0.7,0.7,1,1c0.3,0,0.7,0,1,0c0.8-0.2,1.9,0.5,2-1c0.8,0.4,1.6,0.8,2.8,1.3
		c0-3.3,0-6.2,0-9c-0.4-0.4-0.8-0.8-1-1c-2,0-3.9,0-5.9,0c0.2,0.7,0.3,1.2,0.4,1.6c1.7,0.1,3.2,0.3,4.7,0.4c0,0.3,0.1,0.5,0.1,0.8
		c-1,0.3-2,0.7-3,1c-0.3,0.3-0.7,0.7-1,1c-0.3,0-0.7,0-1,0c-1.5,0.1-0.8,1.2-1,2c0,0.3,0,0.7,0,1C142.4,79.4,142.8,79.8,143.1,80.1z
		 M106.1,60.1c0.3-0.3,0.7-0.7,1-1c0.7,0,1.3,0,2,0c0.3-0.3,0.7-0.7,1-1c2.3,0.4,2.9-1.6,3.9-2.5c0-1.6,0-2.9,0-3.9
		c-2.3-3.3-5.8-4.4-8.9-6c0-0.9,0-1.7,0-2.5c0.3-0.3,0.7-0.7,1-1c0.3-0.3,0.7-0.7,1-1c0.6-0.1,1.3-0.2,1.9-0.3c0-0.2,0-0.4-0.1-0.7
		c-0.6,0-1.2,0-1.8,0c-0.3,0.3-0.7,0.7-1,1c-0.3,0.3-0.7,0.7-1,1c-0.3,0-0.7,0-1,0c-2,0.5-1.9,2.5-2.7,3.4c0.4,1,0.7,1.7,0.9,2.2
		c2.8,1.6,6,2.3,7.7,5c0,1.1,0,2,0,3.1c-0.6,0.4-1.3,0.9-1.9,1.3c-0.3,0.3-0.7,0.7-1,1c-0.3,0-0.7,0-1,0c-0.3,0.3-0.7,0.7-1,1
		c-0.3,0-0.7,0-1,0s-0.7,0-1,0c-1.3,0.3-2.6,0.8-4,1c-1.3,0.2-2.6,0.1-4,0.2c2.9,0.7,5.7,0.7,8.6,0.6c0.1,0,0.2-0.5,0.3-0.8
		C104.8,60.1,105.4,60.1,106.1,60.1z M165.1,80.1c0.5,0.4,1,0.8,1.8,1.4c0-5.5,0-10.4,0-15.4c-0.6,0-1.1,0-1.8,0c0,1.7,0,3.3,0,4.9
		c-1.6,0-3.3,0-4.6,0c-3.3,4.9-3.4,5,0.1,9.9C162.2,81.3,163.7,81.2,165.1,80.1z M138.1,71.1c-1.3,0-2.5,0-3.8,0
		c0.2,0.3,0.3,0.5,0.5,0.8c-1,0.6-2,1.2-2.6,1.5c0,2.5,0,4.4,0,5.8c2.1,2.5,4.2,2,6.4,0.9c0.1-0.1,0.3,0,0.5,0
		c0.5,0.4,1,0.8,1.8,1.4c0-5.5,0-10.4,0-15.4c-0.9,0-1.7,0-2.8,0C138.1,67.9,138.1,69.5,138.1,71.1z M96.1,72.9
		c2,1.1,3.7,2.1,5.4,3.2c0.3,0.2,0.5,0.8,0.8,1.5c-0.7,0.5-1.3,1-2.2,1.6c-1.1-0.1-2.4-2-4.3-0.4c0.5,0.7,0.9,1.5,1.6,2.6
		c2.1-0.4,4.3-0.8,6.2-1.1c0.6-1.7,1.1-3,1.7-4.7c-2.6-1.7-5-3.3-7.4-4.9c1.7-2.6,3.8-1.5,5.9-0.9c0-0.8,0-1.6,0-2.5
		c-2.2,0-4.3,0-6.5,0c-0.4,0.4-0.8,0.8-1.3,1.3C96.1,69.9,96.1,71.2,96.1,72.9z M43.6,66.4c-2,0.7-3.7,1.4-5.2,1.9
		c-0.5,0.9-0.8,1.6-1.3,2.7c0,1.9,0,4.2,0,6.5c1.2,1.2,2.4,2.4,3.5,3.5c1.8,0,3.6,0,5.5,0c0.4-0.9,0.8-1.6,1.5-3.1
		c-1.9,0.4-3,0.6-4.1,0.8c-3.1-0.3-3.4-3-4.1-5c0.6-1.6,1.2-3,1.8-4.7c2.1,0.2,4,0.4,5.9,0.6c0-0.7,0-1.3,0-2
		C45.9,67.2,44.8,66.8,43.6,66.4z M155.1,74.8c1.2-0.9,2.1-1.5,2.9-2.2c0.2-0.2,0-0.9,0-1.8c-1.3,0.5-2.2,0.9-3,1.2
		c-0.9-0.4-1.7-0.7-2.7-1.1c0,3.7,0,6.9,0,10c1,0,1.8,0,2.7,0C155.1,78.7,155.1,76.6,155.1,74.8z"/>
	<path class="st1" d="M67.1,75.1c2.1-0.7,0.4-2.6,1.5-4c1,0.2,2.2,0.6,3.5,0.5c1.2,0,2.4-0.5,4-0.8c0.4,1.3,0.7,2.3,1.1,3.3
		c0,1,0,2,0,3c0.5,2.1-1.6,2.7-2.6,4.1c-1,0-2.1,0-3.3,0c-0.1,0.9-0.2,1.7-0.3,2.7c-0.8,0-1.6,0-2.5,0c0-0.1-0.4-0.3-0.4-0.6
		c0-1.8,0-3.6-0.1-5.5c0-0.3-0.6-0.5-1-0.8C67.1,76.4,67.1,75.8,67.1,75.1z M71.3,74.4c0,1.7,0,3.1,0,5.1c1.6-0.6,2.8-1.1,3.8-1.5
		c0-1.4,0-2.4,0-3.5c-0.6-0.5-1.3-1.1-2.1-1.7C72.3,73.4,71.9,73.9,71.3,74.4z"/>
	<path class="st2" d="M108.1,57.1c0.6-0.4,1.3-0.9,1.9-1.3c0-1.1,0-2,0-3.1c-1.7-2.8-4.9-3.4-7.7-5c-0.2-0.5-0.5-1.2-0.9-2.2
		c0.8-1,0.7-3,2.7-3.4c0.3,0.3,0.7,0.7,1,1c0,0.8,0,1.6,0,2.5c3.1,1.6,6.6,2.8,8.9,6c0,1,0,2.3,0,3.9c-1,0.9-1.6,2.9-3.9,2.5
		c-0.3,0.3-0.7,0.7-1,1c-0.7,0-1.3,0-2,0c-0.3,0-0.7,0-1,0c0-0.3,0-0.7,0-1c0.3,0,0.7,0,1,0C107.4,57.8,107.8,57.4,108.1,57.1z"/>
	<path class="st3" d="M96.1,72.9c0-1.7,0-3,0-4.3c0.5-0.5,1-1,1.3-1.3c2.2,0,4.3,0,6.5,0c0,0.9,0,1.7,0,2.5
		c-2.1-0.6-4.2-1.6-5.9,0.9c2.4,1.6,4.8,3.2,7.4,4.9c-0.6,1.7-1.1,3-1.7,4.7c-2,0.4-4.1,0.7-6.2,1.1c-0.7-1.1-1.2-1.9-1.6-2.6
		c1.9-1.7,3.1,0.3,4.3,0.4c0.9-0.6,1.5-1.1,2.2-1.6c-0.4-0.7-0.5-1.3-0.8-1.5C99.8,75,98.1,74,96.1,72.9z"/>
	<path class="st3" d="M43.6,66.4c1.2,0.4,2.3,0.8,3.5,1.2c0,0.7,0,1.4,0,2c-1.9-0.2-3.8-0.4-5.9-0.6c-0.6,1.7-1.2,3.1-1.8,4.7
		c0.7,2.1,1,4.8,4.1,5c1.1-0.2,2.2-0.4,4.1-0.8c-0.7,1.4-1.1,2.2-1.5,3.1c-1.9,0-3.7,0-5.5,0c-1.1-1.1-2.3-2.3-3.5-3.5
		c0-2.3,0-4.6,0-6.5c0.5-1,0.8-1.7,1.3-2.7C39.9,67.8,41.6,67.1,43.6,66.4z"/>
	<path class="st4" d="M67.1,75.1c0,0.7,0,1.3,0,2c0.4,2-1.5,2.6-2.4,3.9c-2.2,0.3-4.2,0.1-5.6-1.9c-0.3-1.7-0.7-3.3-1-5
		c0.8-0.9,1.5-1.8,2.4-2.9c1.7,0,3.5,0,5.2,0c0.5,0.4,0.9,0.9,1.4,1.4C67.1,73.4,67.1,74.3,67.1,75.1z M64.9,77.1c0-0.7,0-1.8,0-2.7
		c-1.2-1.4-2.4-2-3.7-1c0,1.6,0,3,0,4.4c0.7,0.6,1.3,1,2.2,1.8C64,78.7,64.4,78,64.9,77.1z"/>
	<path class="st3" d="M98.1,41.1c-1.2,1.5-2.5,3-3.9,4.7c0,0.6,0,1.6,0,2.7c0.9,1.2,1.9,2.4,2.9,3.7c0,0.3,0,0.7,0,1
		c-3.2-1-6.6-1.8-7.8-5.6c1.7-3.3,4.2-6,7.8-7.4C97.4,40.4,97.8,40.8,98.1,41.1z"/>
	<path class="st5" d="M139.1,80.1c-0.2,0-0.4-0.1-0.5,0c-2.2,1.1-4.4,1.6-6.4-0.9c0-1.4,0-3.3,0-5.8c0.6-0.4,1.6-0.9,2.6-1.5
		c-0.2-0.3-0.3-0.5-0.5-0.8c1.3,0,2.5,0,3.8,0c2.3-0.6,0-3,2-4.3c0,1.7,0,3.1,0,4.6c0,2.8-0.1,5.6-0.2,8.4
		C139.9,79.9,139.4,80,139.1,80.1z M138.1,78.1c1.4-1.6,1.4-3.4,0-5c-1.4,0-3-0.3-3.9,1.6c0,0.8,0,1.9,0,3.5
		c0.9,0.3,1.9,0.6,2.9,0.9C137.4,78.8,137.8,78.4,138.1,78.1z"/>
	<path class="st1" d="M111.1,81.1c-0.8,0-1.6,0-2.5,0c-0.8-0.8-1.6-1.6-2.4-2.5c-0.3-2.1,0.6-4.4-1-6.3c0.4-1.3,0.9-2.6,1.3-4
		c0.7,0,1.5,0,2.5,0c0,0.8,0,1.6,0,2.2c0.9,0.7,1.5,1.2,2.2,1.7c-0.7,0.5-1.3,1-1.8,1.4c0,1.9,0,3.6,0,5.3c0.7,0.2,1.3,0.4,1.8,0.6
		C111.1,80.1,111.1,80.6,111.1,81.1z"/>
	<path class="st6" d="M128.1,80.1c0-2.1,0-4.2,0-6.3c0-0.1-0.1-0.3-0.3-0.5c-0.7,0-1.5,0-2.3,0c-0.4,0.4-0.8,0.8-1.4,1.4
		c0,2,0,4,0,6.4c-0.7,0-1.3,0-1.9,0c0-3.3,0-6.7,0-10c1,0.3,2,0.7,3,1c0.3-0.3,0.7-0.7,1-1c1,0,2,0,3,0c0.3,0.3,0.7,0.7,1,1
		c0,2.7,0,5.3,0,8C129.4,80.1,128.8,80.1,128.1,80.1z"/>
	<path class="st4" d="M117.1,80.1c-0.4,0.3-0.7,0.9-1.2,1c-0.9,0.1-1.9,0-2.8,0c-1.1-2.1-2-4.3,0.6-6c1.1,0,2.2,0,3.4,0
		c0.3-0.3,0.7-0.5,1-0.8c-0.3-0.4-0.7-0.8-1-1.2c-0.3-0.3-0.5-0.7-0.8-1c-0.4,0.3-0.8,0.7-1.2,1c-0.8-0.2-1.9,0.5-2-1
		c0.3-0.3,0.7-0.7,1-1c1.3,0,2.7,0,4,0c0.3,0.3,0.7,0.7,1,1s0.7,0.7,1,1c0,2.3,0,4.7,0,7c-0.7,0-1.3,0-2,0c0-0.7,0-1.3,0-2
		c0-0.6,0-1.2,0-1.8c-3.2,0-4.6,1-3.6,2.8c0.4,0,1,0,1.6,0C116.4,79.4,116.8,79.8,117.1,80.1z"/>
	<path class="st7" d="M79.1,79.1c0-0.3,0-0.7,0-1c0-1.3,0-2.7,0-4c0-0.3,0-0.7,0-1c0.3-0.3,0.7-0.7,1-1s0.7-0.7,1-1
		c1.9,0.2,4.2-0.8,5,2c0.3,0.3,0.7,0.7,1,1c0,0.7,0,1.3,0,2c-2,0.1-4.1-0.3-6,0.3c0,0.8,0,1.2,0,1.7c0.3,0.3,0.7,0.7,1,1
		c0.3,0,0.7,0,1,0s0.7,0,1,0c0.8-0.2,1.9,0.5,2-1c1.5,0.1,0.8,1.2,1,2c-1.5,1.3-3.3,1-5,1c-0.3-0.3-0.7-0.7-1-1c-0.3,0-0.7,0-1,0
		C79.8,79.8,79.4,79.4,79.1,79.1z M84.1,73.1c-0.3-0.3-0.5-0.7-0.8-1c-0.4,0.3-0.8,0.7-1.2,1c-1.5,0.3-1.2,1.1-0.6,2
		c0.2,0,0.3,0.1,0.5,0c1-0.4,2.6,0.9,3.1-1C84.8,73.8,84.4,73.4,84.1,73.1z"/>
	<path class="st8" d="M165.1,80.1c-1.4,1.1-2.9,1.2-4.6,0.9c-3.4-5-3.3-5-0.1-9.9c1.4,0,3,0,4.6,0c-0.3,0.7-0.7,1.3-1,2
		c-1,0.3-2,0.6-2.9,0.9c0,1.5,0,2.6,0,4.1c0.9,0.3,1.9,0.6,2.9,0.9C164.4,79.4,164.8,79.8,165.1,80.1z"/>
	<path class="st9" d="M155.1,74.8c0,1.7,0,3.8,0,6.1c-1,0-1.7,0-2.7,0c0-3.1,0-6.4,0-10c1,0.4,1.8,0.8,2.7,1.1
		c0.8-0.3,1.8-0.7,3-1.2c0,0.9,0.2,1.6,0,1.8C157.2,73.4,156.3,74,155.1,74.8z"/>
	<path class="st7" d="M49.1,79.1c0-0.3,0-0.7,0-1c0-1.3,0-2.7,0-4c0-0.3,0-0.7,0-1c0.3-0.3,0.7-0.7,1-1s0.7-0.7,1-1c1,0,2,0,3,0
		c0.3,0.3,0.7,0.7,1,1c0.7,0.7,1.3,1.3,2,2c0,1.3,0,2.7,0,4c-0.7,0.7-1.3,1.3-2,2c-0.8,0.2-1.9-0.5-2,1c-0.3,0-0.7,0-1,0
		c-0.1-1.5-1.2-0.8-2-1C49.8,79.8,49.4,79.4,49.1,79.1z M51.1,78.1c0.3,0.3,0.7,0.7,1,1c0.7,0,1.3,0,2,0c0.3-0.3,0.7-0.7,1-1
		c-0.2-1.9,0.8-4.2-2-5c-0.1-0.3-0.2-0.6-0.3-0.8c-0.2,0.3-0.4,0.6-0.7,0.8c-0.3,0.3-0.7,0.7-1,1C49.7,75.4,49.7,76.8,51.1,78.1z"/>
	<path class="st10" d="M113.1,72.1c0.1,1.5,1.2,0.8,2,1c0.7,0,1.3,0,2,0c0,0.7,0,1.3,0,2c-1.1,0-2.2,0-3.4,0c-2.6,1.7-1.8,3.9-0.6,6
		c-0.7,0-1.3,0-2,0c0-0.5,0-1,0-1.6c-0.5-0.2-1.1-0.4-1.8-0.6c0-1.7,0-3.5,0-5.3c0.5-0.4,1.2-0.9,1.8-1.4c0.7-0.3,1.3-0.7,2-1
		C113.1,71.4,113.1,71.8,113.1,72.1z"/>
	<path class="st5" d="M145.1,75.1c1-0.3,2-0.7,3-1c0-0.3-0.1-0.5-0.1-0.8c-1.5-0.1-3-0.2-4.7-0.4c-0.1-0.4-0.2-0.9-0.4-1.6
		c2,0,3.9,0,5.9,0c0.3,0.3,0.6,0.6,1,1c0,2.9,0,5.8,0,9c-1.1-0.5-2-0.9-2.8-1.3c0-0.3,0-0.7,0-1c0.4-0.9,0.7-1.7,1.3-3
		c-1.1,0-1.7,0-2.3,0c-0.3,0-0.7,0-1,0C145.1,75.8,145.1,75.4,145.1,75.1z"/>
	<path class="st6" d="M165.1,80.1c-0.3-0.3-0.7-0.7-1-1c0.1-0.3,0.2-0.6,0.3-0.8c1-2,0.9-3.6-0.3-5.2c0.3-0.7,0.7-1.3,1-2
		c0-1.6,0-3.2,0-4.9c0.8,0,1.2,0,1.8,0c0,5,0,9.8,0,15.4C166.1,80.9,165.6,80.5,165.1,80.1z"/>
	<path class="st4" d="M139.1,80.1c0.3-0.1,0.8-0.2,0.8-0.3c0.1-2.8,0.1-5.6,0.2-8.4c0-1.4,0-2.8,0-4.6c-2,1.2,0.3,3.6-2,4.3
		c0-1.6,0-3.2,0-4.9c1.1,0,1.9,0,2.8,0c0,5,0,9.8,0,15.4C140.1,80.9,139.6,80.5,139.1,80.1z"/>
	<path class="st1" d="M91.1,75.1c0,1.7,0,3.3,0,5c-0.6,0-1.2,0-2,0c0-3.2,0-6.1,0-9c0.3,0,0.7,0,1,0c0,0.6,0,1.2,0,2.6
		c1-0.8,1.5-1.2,2-1.6c0.3-1.4,1-1.2,2-0.6c0.2,1.5-0.7,2.2-2,2.6C91.8,74.4,91.4,74.8,91.1,75.1z"/>
	<path class="st11" d="M120.1,80.1c0-2.3,0-4.7,0-7c0.3-0.4,0.6-0.9,1-1.2c0.3-0.3,0.7-0.5,1-0.8c0,3.3,0,6.7,0,10c-0.7,0-1.3,0-2,0
		C120.1,80.8,120.1,80.4,120.1,80.1z"/>
	<path class="st12" d="M87.1,80.1c-0.2-0.8,0.5-1.9-1-2c-0.8,0.2-1.9-0.5-2,1c-0.3,0-0.7,0-1,0c-0.3-0.3-0.7-0.7-1-1
		c0.2-1.7,1.5-0.7,2.3-1c0.9-0.3,2.4,0.9,2.7-1c0-0.7,0-1.3,0-2c0.3,0,0.7,0,1,0c0,2,0,4,0,6C87.8,80.1,87.4,80.1,87.1,80.1z"/>
	<path class="st13" d="M88.1,80.1c0-2,0-4,0-6c0.4-1-0.9-2.5,1-3c0,2.9,0,5.8,0,9c0.8,0,1.4,0,2,0C90.1,81.5,89.1,81.5,88.1,80.1z"
		/>
	<path class="st14" d="M104.1,60.1c-0.1,0.3-0.2,0.8-0.3,0.8c-2.9,0-5.7,0-8.6-0.6c1.3-0.1,2.7,0,4-0.2c1.3-0.2,2.7-0.6,4-1
		C103.4,59.4,103.8,59.8,104.1,60.1z"/>
	<path class="st15" d="M147.1,79.1c0,0.3,0,0.7,0,1c-0.8,0.2-1.9-0.5-2,1c-0.3,0-0.7,0-1,0c-0.3-0.3-0.7-0.7-1-1
		c-0.3-0.3-0.7-0.7-1-1c0-0.3,0-0.7,0-1c1.5-0.1,0.8-1.2,1-2c0.3,0,0.7,0,1,0s0.7,0,1,0c0,0.3,0,0.7,0,1c-0.3,0.3-0.7,0.5-1,0.8
		c0.3,0.4,0.7,0.8,1,1.2C145.8,79.1,146.4,79.1,147.1,79.1z"/>
	<path class="st16" d="M79.1,74.1c0,1.3,0,2.7,0,4c-0.7-0.3-1.3-0.7-2-1c0-1,0-2,0-3C77.8,74.1,78.4,74.1,79.1,74.1z"/>
	<path class="st17" d="M57.1,78.1c0-1.3,0-2.7,0-4c0.3,0,0.7,0,1,0c0.3,1.7,0.7,3.3,1,5C58.4,78.8,57.8,78.4,57.1,78.1z"/>
	<path class="st1" d="M49.1,74.1c0,1.3,0,2.7,0,4C47.7,76.8,47.7,75.4,49.1,74.1z"/>
	<path class="st14" d="M99.1,52.1c0.3,0.3,0.7,0.7,1,1c0,0.3,0,0.7,0,1c-0.8-0.2-1.9,0.5-2-1C98.4,52.8,98.8,52.4,99.1,52.1z"/>
	<path class="st9" d="M104.1,38.1c-0.7,0.3-1.3,0.7-2,1c0-0.3,0-0.7,0-1c0.1-1.5,1.2-0.8,2-1C104.1,37.4,104.1,37.8,104.1,38.1z"/>
	<path class="st13" d="M92.1,72.1c-0.5,0.4-1,0.8-2,1.6c0-1.4,0-2,0-2.6C90.8,71.4,91.4,71.8,92.1,72.1z"/>
	<path class="st18" d="M143.1,76.1c-0.2,0.8,0.5,1.9-1,2C142.3,77.3,141.6,76.2,143.1,76.1z"/>
	<path class="st19" d="M118.1,78.1c0,0.7,0,1.3,0,2c-0.3,0-0.7,0-1,0c0-0.3,0-0.7,0-1C117.4,78.8,117.8,78.4,118.1,78.1z"/>
	<path class="st1" d="M50.1,80.1c0.8,0.2,1.9-0.5,2,1C51.3,81,50.2,81.6,50.1,80.1z"/>
	<path class="st1" d="M53.1,81.1c0.1-1.5,1.2-0.8,2-1C55,81.6,53.9,81,53.1,81.1z"/>
	<path class="st19" d="M120.1,80.1c0,0.3,0,0.7,0,1c-0.8-0.2-1.9,0.5-2-1C118.8,80.1,119.4,80.1,120.1,80.1z"/>
	<path class="st20" d="M128.1,80.1c0.7,0,1.3,0,2,0c-0.4,0.3-0.8,0.7-1.2,1C128.6,80.8,128.4,80.4,128.1,80.1z"/>
	<path class="st18" d="M145.1,81.1c0.1-1.5,1.2-0.8,2-1C147,81.6,145.9,81,145.1,81.1z"/>
	<path class="st21" d="M107.1,36.1c0.1-0.3,0.3-0.6,0.5-1.1c0.6,1.1,0.9,1.9-0.5,2.1C107.1,36.8,107.1,36.4,107.1,36.1z"/>
	<path class="st22" d="M104.1,38.1c0-0.3,0-0.7,0-1c0.3-0.3,0.7-0.7,1-1c0,0.3,0,0.7,0,1C104.8,37.4,104.4,37.8,104.1,38.1z"/>
	<path class="st9" d="M106.1,42.1c-0.3,0.3-0.7,0.7-1,1c0-0.3,0-0.7,0-1c0.3-0.3,0.7-0.7,1-1C106.1,41.4,106.1,41.8,106.1,42.1z"/>
	<path class="st23" d="M100.1,39.1c0.3-0.3,0.7-0.7,1-1c0,0.3,0,0.7,0,1c-0.3,0.3-0.7,0.7-1,1C100.1,39.8,100.1,39.4,100.1,39.1z"/>
	<path class="st24" d="M107.1,40.1c0.6,0,1.2,0,1.8,0c0,0.2,0,0.4,0.1,0.7c-0.6,0.1-1.3,0.2-1.9,0.3
		C107.1,40.8,107.1,40.4,107.1,40.1z"/>
	<path class="st25" d="M99.1,40.1c-0.3,0.3-0.7,0.7-1,1c0-0.3,0-0.7,0-1c0.3-0.3,0.7-0.7,1-1C99.1,39.4,99.1,39.8,99.1,40.1z"/>
	<path class="st26" d="M103.1,55.1c-0.3-0.3-0.7-0.7-1-1c0-0.3,0-0.7,0-1c0.3,0.3,0.7,0.7,1,1C103.1,54.4,103.1,54.8,103.1,55.1z"/>
	<path class="st27" d="M107.1,40.1c0,0.3,0,0.7,0,1c-0.3,0.3-0.7,0.7-1,1c0-0.3,0-0.7,0-1C106.4,40.8,106.8,40.4,107.1,40.1z"/>
	<path class="st15" d="M104.1,59.1c0.3,0,0.7,0,1,0s0.7,0,1,0c0,0.3,0,0.7,0,1c-0.7,0-1.3,0-2,0C104.1,59.8,104.1,59.4,104.1,59.1z"
		/>
	<path class="st15" d="M105.1,42.1c0,0.3,0,0.7,0,1c-0.3-0.3-0.7-0.7-1-1C104.4,42.1,104.8,42.1,105.1,42.1z"/>
	<path class="st15" d="M98.1,40.1c0,0.3,0,0.7,0,1c-0.3-0.3-0.7-0.7-1-1C97.4,40.1,97.8,40.1,98.1,40.1z"/>
	<path class="st15" d="M99.1,40.1c0-0.3,0-0.7,0-1c0.3,0,0.7,0,1,0c0,0.3,0,0.7,0,1C99.8,40.1,99.4,40.1,99.1,40.1z"/>
	<path class="st1" d="M49.1,79.1c0.3,0.3,0.7,0.7,1,1C49.8,79.8,49.4,79.4,49.1,79.1z"/>
	<path class="st16" d="M79.1,79.1c0.3,0.3,0.7,0.7,1,1C79.8,79.8,79.4,79.4,79.1,79.1z"/>
	<path class="st18" d="M142.1,79.1c0.3,0.3,0.7,0.7,1,1C142.8,79.8,142.4,79.4,142.1,79.1z"/>
	<path class="st5" d="M101.1,39.1c0-0.3,0-0.7,0-1c0.3,0,0.7,0,1,0c0,0.3,0,0.7,0,1C101.8,39.1,101.4,39.1,101.1,39.1z"/>
	<path class="st16" d="M81.1,80.1c0.3,0.3,0.7,0.7,1,1C81.8,80.8,81.4,80.4,81.1,80.1z"/>
	<path class="st28" d="M107.1,36.1c0,0.3,0,0.7,0,1c-0.3,0-0.7,0-1,0c0-0.3,0-0.7,0-1C106.4,36.1,106.8,36.1,107.1,36.1z"/>
	<path class="st18" d="M143.1,80.1c0.3,0.3,0.7,0.7,1,1C143.8,80.8,143.4,80.4,143.1,80.1z"/>
	<path class="st29" d="M106.1,36.1c0,0.3,0,0.7,0,1c-0.3,0-0.7,0-1,0c0-0.3,0-0.7,0-1C105.4,36.1,105.8,36.1,106.1,36.1z"/>
	<path class="st16" d="M80.1,72.1c-0.3,0.3-0.7,0.7-1,1C79.4,72.8,79.8,72.4,80.1,72.1z"/>
	<path class="st1" d="M50.1,72.1c-0.3,0.3-0.7,0.7-1,1C49.4,72.8,49.8,72.4,50.1,72.1z"/>
	<path class="st20" d="M130.1,72.1c-0.3-0.3-0.7-0.7-1-1C129.4,71.4,129.8,71.8,130.1,72.1z"/>
	<path class="st19" d="M120.1,73.1c-0.3-0.3-0.7-0.7-1-1C119.4,72.4,119.8,72.8,120.1,73.1z"/>
	<path class="st20" d="M126.1,71.1c-0.3,0.3-0.7,0.7-1,1C125.4,71.8,125.8,71.4,126.1,71.1z"/>
	<path class="st19" d="M119.1,72.1c-0.3-0.3-0.7-0.7-1-1C118.4,71.4,118.8,71.8,119.1,72.1z"/>
	<path class="st19" d="M113.1,72.1c0-0.3,0-0.7,0-1c0.3,0,0.7,0,1,0C113.8,71.4,113.4,71.8,113.1,72.1z"/>
	<path class="st16" d="M81.1,71.1c-0.3,0.3-0.7,0.7-1,1C80.4,71.8,80.8,71.4,81.1,71.1z"/>
	<path class="st1" d="M55.1,72.1c-0.3-0.3-0.7-0.7-1-1C54.4,71.4,54.8,71.8,55.1,72.1z"/>
	<path class="st16" d="M87.1,74.1c-0.3-0.3-0.7-0.7-1-1C86.4,73.4,86.8,73.8,87.1,74.1z"/>
	<path class="st1" d="M51.1,71.1c-0.3,0.3-0.7,0.7-1,1C50.4,71.8,50.8,71.4,51.1,71.1z"/>
	<path class="st30" d="M106.1,60.1c0-0.3,0-0.7,0-1c0.3,0,0.7,0,1,0C106.8,59.4,106.4,59.8,106.1,60.1z"/>
	<path class="st5" d="M104.1,59.1c0,0.3,0,0.7,0,1c-0.3-0.3-0.7-0.7-1-1C103.4,59.1,103.8,59.1,104.1,59.1z"/>
	<path class="st30" d="M109.1,59.1c0.3-0.3,0.7-0.7,1-1C109.8,58.4,109.4,58.8,109.1,59.1z"/>
	<path class="st30" d="M106.1,59.1c-0.3,0-0.7,0-1,0c0.3-0.3,0.7-0.7,1-1C106.1,58.4,106.1,58.8,106.1,59.1z"/>
	<path class="st30" d="M108.1,57.1c-0.3,0.3-0.7,0.7-1,1C107.4,57.8,107.8,57.4,108.1,57.1z"/>
	<path class="st31" d="M103.1,55.1c0-0.3,0-0.7,0-1c0.3,0.2,0.6,0.4,0.8,0.7C103.7,54.9,103.4,55,103.1,55.1z"/>
	<path class="st13" d="M91.1,75.1c0.3-0.3,0.7-0.7,1-1C91.8,74.4,91.4,74.8,91.1,75.1z"/>
	<path class="st18" d="M145.1,76.1c-0.3,0-0.7,0-1,0c0.3-0.3,0.7-0.7,1-1C145.1,75.4,145.1,75.8,145.1,76.1z"/>
	<path class="st24" d="M102.1,53.1c0,0.3,0,0.7,0,1c-0.3,0-0.7,0-1,0c0-0.3,0-0.7,0-1C101.4,53.1,101.8,53.1,102.1,53.1z"/>
	<path class="st13" d="M101.1,53.1c0,0.3,0,0.7,0,1c-0.3,0-0.7,0-1,0c0-0.3,0-0.7,0-1C100.4,53.1,100.8,53.1,101.1,53.1z"/>
	<path class="st9" d="M99.1,52.1c-0.3,0.3-0.7,0.7-1,1c0-0.3,0-0.7,0-1C98.4,52.1,98.8,52.1,99.1,52.1z"/>
	<path class="st15" d="M98.1,52.1c0,0.3,0,0.7,0,1c-0.3,0-0.7,0-1,0c0-0.3,0-0.7,0-1C97.4,52.1,97.8,52.1,98.1,52.1z"/>
	<path class="st11" d="M71.3,74.4c0.6-0.5,1.1-1,1.8-1.6c0.8,0.6,1.4,1.2,2.1,1.7c0,1.1,0,2.1,0,3.5c-1.1,0.4-2.3,0.9-3.8,1.5
		C71.3,77.5,71.3,76.1,71.3,74.4z"/>
	<path class="st32" d="M64.9,77.1c-0.5,0.9-0.9,1.5-1.5,2.5c-0.9-0.7-1.5-1.2-2.2-1.8c0-1.4,0-2.8,0-4.4c1.3-1,2.5-0.4,3.7,1
		C64.9,75.4,64.9,76.5,64.9,77.1z"/>
	<path class="st33" d="M137.1,79.1c-1-0.3-2-0.6-2.9-0.9c0-1.5,0-2.6,0-3.5c0.9-1.9,2.5-1.6,3.9-1.6c0,1.7,0,3.3,0,5
		C137.8,78.4,137.4,78.8,137.1,79.1z"/>
	<path class="st4" d="M138.1,78.1c0-1.7,0-3.3,0-5C139.5,74.7,139.5,76.5,138.1,78.1z"/>
	<path class="st4" d="M137.1,79.1c0.3-0.3,0.7-0.7,1-1C137.8,78.4,137.4,78.8,137.1,79.1z"/>
	<path class="st34" d="M118.1,78.1c-0.3,0.3-0.7,0.7-1,1c-0.3,0-0.7,0-1,0c-0.6,0-1.2,0-1.6,0c-1-1.8,0.4-2.7,3.6-2.8
		C118.1,76.9,118.1,77.5,118.1,78.1z"/>
	<path class="st19" d="M117.1,73.1c-0.7,0-1.3,0-2,0c0.4-0.3,0.8-0.7,1.2-1C116.6,72.4,116.8,72.8,117.1,73.1z"/>
	<path class="st19" d="M117.1,75.1c0-0.7,0-1.3,0-2c0.3,0.4,0.7,0.8,1,1.2C117.8,74.6,117.4,74.8,117.1,75.1z"/>
	<path class="st15" d="M116.1,79.1c0.3,0,0.7,0,1,0c0,0.3,0,0.7,0,1C116.8,79.8,116.4,79.4,116.1,79.1z"/>
	<path class="st35" d="M87.1,76.1c-0.3,1.9-1.8,0.7-2.7,1c-0.8,0.3-2.1-0.6-2.3,1c-0.3,0-0.7,0-1,0c0-0.5,0-1,0-1.7
		C83,75.8,85.1,76.2,87.1,76.1z"/>
	<path class="st36" d="M85.1,74.1c-0.5,1.9-2.1,0.6-3.1,1c-0.1,0-0.3,0-0.5,0c-0.6-0.9-0.9-1.7,0.6-2c0.1,1.5,1.2,0.8,2,1
		C84.4,74.1,84.8,74.1,85.1,74.1z"/>
	<path class="st13" d="M82.1,73.1c0.4-0.3,0.8-0.7,1.2-1c0.3,0.3,0.5,0.7,0.8,1C83.4,73.1,82.8,73.1,82.1,73.1z"/>
	<path class="st35" d="M84.1,79.1c0.1-1.5,1.2-0.8,2-1C86,79.6,84.9,79,84.1,79.1z"/>
	<path class="st16" d="M81.1,78.1c0.3,0,0.7,0,1,0c0,0.3,0,0.7,0,1C81.8,78.8,81.4,78.4,81.1,78.1z"/>
	<path class="st35" d="M82.1,79.1c0-0.3,0-0.7,0-1c0.3,0.3,0.7,0.7,1,1C82.8,79.1,82.4,79.1,82.1,79.1z"/>
	<path class="st16" d="M85.1,74.1c-0.3,0-0.7,0-1,0c0-0.3,0-0.7,0-1C84.4,73.4,84.8,73.8,85.1,74.1z"/>
	<path class="st35" d="M164.1,73.1c1.3,1.6,1.4,3.2,0.3,5.2c-0.1,0.3-0.2,0.5-0.3,0.8c-1-0.3-2-0.6-2.9-0.9c0-1.5,0-2.6,0-4.1
		C162.1,73.7,163.1,73.4,164.1,73.1z"/>
	<path class="st11" d="M53.1,73.1c2.8,0.8,1.8,3.1,2,5c-0.3,0.3-0.7,0.7-1,1c-0.7,0-1.3,0-2,0c-0.3-0.3-0.7-0.7-1-1c0-1.3,0-2.7,0-4
		c0.3-0.3,0.7-0.7,1-1C52.4,73.1,52.8,73.1,53.1,73.1z"/>
	<path class="st1" d="M51.1,74.1c0,1.3,0,2.7,0,4C49.7,76.8,49.7,75.4,51.1,74.1z"/>
	<path class="st1" d="M51.1,78.1c0.3,0.3,0.7,0.7,1,1C51.8,78.8,51.4,78.4,51.1,78.1z"/>
	<path class="st1" d="M54.1,79.1c0.3-0.3,0.7-0.7,1-1C54.8,78.4,54.4,78.8,54.1,79.1z"/>
	<path class="st1" d="M53.1,73.1c-0.3,0-0.7,0-1,0c0.2-0.3,0.4-0.6,0.7-0.8C52.9,72.5,53,72.8,53.1,73.1z"/>
	<path class="st11" d="M147.1,79.1c-0.7,0-1.3,0-2,0c0-0.7,0-1.3,0-2c0.3-0.3,0.7-0.7,1-1c0.6,0,1.2,0,2.3,0
		C147.8,77.4,147.5,78.2,147.1,79.1z"/>
	<path class="st18" d="M146.1,76.1c-0.3,0.3-0.7,0.7-1,1c0-0.3,0-0.7,0-1C145.4,76.1,145.8,76.1,146.1,76.1z"/>
	<path class="st18" d="M145.1,77.1c0,0.7,0,1.3,0,2c-0.3-0.4-0.7-0.8-1-1.2C144.4,77.6,144.8,77.4,145.1,77.1z"/>
	<path class="st0" d="M84.1,73.1c0,0.3,0,0.7,0,1c-0.8-0.2-1.9,0.5-2-1C82.8,73.1,83.4,73.1,84.1,73.1z"/>
</g>
</svg>
