<?xml version="1.0" encoding="utf-8"?>
<!-- Generator: Adobe Illustrator 25.1.0, SVG Export Plug-In . SVG Version: 6.00 Build 0)  -->
<svg version="1.1" id="Warstwa_1" xmlns="http://www.w3.org/2000/svg" xmlns:xlink="http://www.w3.org/1999/xlink" x="0px" y="0px"
	 viewBox="0 0 210 120" style="enable-background:new 0 0 210 120;" xml:space="preserve">
<style type="text/css">
	.st0{fill:#9F9F9F;}
</style>
<g>
	<path class="st0" d="M36.93,84.47c-4.75,0-7.73-3.36-7.73-8.41c0-5.06,3.09-8.46,7.7-8.46c1.89,0,3.36,0.45,4.56,1.18l-0.45,2.95
		c-1.06-0.8-2.39-1.44-3.97-1.44c-2.88,0-4.65,2.2-4.65,5.74c0,3.59,1.89,5.72,4.77,5.72c1.51,0,2.88-0.54,4.14-1.37l0.43,2.69
		C40.43,83.9,38.77,84.47,36.93,84.47"/>
	<path class="st0" d="M47.85,84.42c-3.1,0-5.34-2.22-5.34-5.93c0-3.71,2.27-5.95,5.36-5.95c3.12,0,5.39,2.24,5.39,5.95
		C53.26,82.2,50.97,84.42,47.85,84.42 M47.85,74.88c-1.68,0-2.58,1.49-2.58,3.62c0,2.08,0.92,3.61,2.58,3.61
		c1.75,0,2.65-1.49,2.65-3.61C50.49,76.39,49.55,74.88,47.85,74.88"/>
	<path class="st0" d="M59.59,84.42c-3.1,0-5.34-2.22-5.34-5.93c0-3.71,2.27-5.95,5.36-5.95c3.12,0,5.39,2.24,5.39,5.95
		C65,82.2,62.71,84.42,59.59,84.42 M59.59,74.88c-1.68,0-2.58,1.49-2.58,3.62c0,2.08,0.92,3.61,2.58,3.61
		c1.75,0,2.65-1.49,2.65-3.61C62.24,76.39,61.29,74.88,59.59,74.88"/>
	<path class="st0" d="M71.59,84.3c-1.09,0-1.96-0.19-2.65-0.45v4.77l-2.84-0.05V72.77h2.41l0.26,1.56c0.8-0.92,1.91-1.8,3.5-1.8
		c2.39,0,4.3,1.8,4.3,5.62C76.58,82.41,74.22,84.3,71.59,84.3 M71.52,75.04c-1.02,0-1.82,0.64-2.58,1.61v4.89
		c0.69,0.33,1.23,0.5,2.2,0.5c1.46,0,2.57-1.21,2.57-3.71C73.72,76.13,72.8,75.04,71.52,75.04"/>
	<path class="st0" d="M83.17,84.42c-3.19,0-5.58-1.82-5.58-5.93c0-3.71,2.22-5.95,5.2-5.95c3.43,0,4.96,2.57,4.96,5.81
		c0,0.24-0.02,0.52-0.02,0.69h-7.35c0.14,2.24,1.35,3.19,3.1,3.19c1.47,0,2.67-0.54,3.92-1.42l0.33,2.22
		C86.5,83.88,85.01,84.42,83.17,84.42 M80.43,77.26h4.56c-0.19-1.77-0.9-2.76-2.27-2.76C81.59,74.5,80.64,75.42,80.43,77.26"/>
	<path class="st0" d="M92.17,77.64v6.54h-2.84V72.77h2.41l0.35,2.29c0.76-1.32,1.89-2.43,3.66-2.53l0.45,2.81
		C94.44,75.47,92.97,76.41,92.17,77.64"/>
	<path class="st0" d="M102.59,84.37c-1.98,0-3.69-0.45-5.13-1.13l0.47-2.86c1.37,0.8,3.07,1.44,4.7,1.44c1.44,0,2.43-0.68,2.43-1.98
		c0-1.21-0.57-1.7-2.93-2.72c-3.17-1.3-4.44-2.34-4.44-4.87c0-2.88,2.22-4.56,5.27-4.56c1.84,0,3.12,0.38,4.3,0.99l-0.47,2.84
		c-1.18-0.78-2.58-1.28-3.85-1.28c-1.56,0-2.24,0.76-2.24,1.75c0,1.04,0.52,1.54,2.79,2.48c3.35,1.37,4.58,2.53,4.58,5.06
		C108.07,82.72,105.73,84.37,102.59,84.37"/>
	<path class="st0" d="M113.91,84.37c-2.24,0-3.76-0.83-3.76-3.43v-5.86h-1.61v-2.32h1.61v-3.62l2.79,0.05v3.57h2.34l0.35,2.32h-2.69
		v5.39c0,0.92,0.43,1.42,1.51,1.42c0.33,0,0.64-0.02,0.9-0.09l0.35,2.39C115.25,84.28,114.73,84.37,113.91,84.37"/>
	<path class="st0" d="M123.59,84.18l-0.24-1.49c-0.92,0.97-2.1,1.73-3.8,1.73c-1.94,0-3.24-1.18-3.24-3.17
		c0-2.76,2.27-3.97,6.88-4.42v-0.33c0-1.23-0.71-1.7-1.96-1.7c-1.32,0-2.58,0.38-3.8,0.92l-0.35-2.27c1.32-0.52,2.72-0.92,4.54-0.92
		c2.95,0,4.42,1.09,4.42,3.83v7.82H123.59z M123.19,78.49c-3.28,0.4-4.06,1.37-4.06,2.46c0,0.83,0.52,1.32,1.39,1.32
		c0.97,0,1.89-0.45,2.67-1.23V78.49z"/>
	<path class="st0" d="M135.03,84.18v-7.47c0-0.99-0.43-1.68-1.46-1.68c-0.9,0-1.77,0.57-2.6,1.44v7.7h-2.84V72.77h2.41l0.26,1.61
		c1.06-1.02,2.27-1.84,3.8-1.84c2.13,0,3.26,1.3,3.26,3.43v8.22H135.03z"/>
	<path class="st0" d="M147.46,84.18l-0.24-1.58c-0.8,0.97-1.91,1.82-3.5,1.82c-2.39,0-4.3-1.77-4.3-5.62c0-4.25,2.34-6.14,4.99-6.14
		c1.09,0,1.96,0.19,2.65,0.42V67.1l2.84,0.02v17.06H147.46z M147.06,75.42c-0.71-0.33-1.25-0.5-2.22-0.5
		c-1.49,0-2.57,1.21-2.57,3.71c0,2.22,0.95,3.26,2.2,3.26c1.04,0,1.84-0.61,2.6-1.56V75.42z"/>
	<path class="st0" d="M158.71,84.18l-0.24-1.49c-0.92,0.97-2.1,1.73-3.8,1.73c-1.94,0-3.24-1.18-3.24-3.17
		c0-2.76,2.27-3.97,6.88-4.42v-0.33c0-1.23-0.71-1.7-1.96-1.7c-1.32,0-2.58,0.38-3.8,0.92l-0.35-2.27c1.32-0.52,2.72-0.92,4.54-0.92
		c2.95,0,4.42,1.09,4.42,3.83v7.82H158.71z M158.3,78.49c-3.28,0.4-4.06,1.37-4.06,2.46c0,0.83,0.52,1.32,1.39,1.32
		c0.97,0,1.89-0.45,2.67-1.23V78.49z"/>
	<path class="st0" d="M165.98,77.64v6.54h-2.84V72.77h2.41l0.35,2.29c0.76-1.32,1.89-2.43,3.66-2.53l0.45,2.81
		C168.25,75.47,166.79,76.41,165.98,77.64"/>
	<path class="st0" d="M178.36,84.18l-0.24-1.58c-0.8,0.97-1.91,1.82-3.5,1.82c-2.39,0-4.3-1.77-4.3-5.62c0-4.25,2.34-6.14,4.99-6.14
		c1.09,0,1.96,0.19,2.65,0.42V67.1l2.84,0.02v17.06H178.36z M177.96,75.42c-0.71-0.33-1.25-0.5-2.22-0.5
		c-1.49,0-2.57,1.21-2.57,3.71c0,2.22,0.94,3.26,2.2,3.26c1.04,0,1.84-0.61,2.6-1.56V75.42z"/>
	<path class="st0" d="M107.14,53.56c-0.01,0-0.03,0-0.04,0c-10.82-1.85-16.44-4.51-16.7-7.91c-0.52-6.82,20.59-13.96,21.49-14.26
		c0.11-0.04,0.24,0.02,0.29,0.13c0.04,0.11-0.01,0.24-0.12,0.29c-11.29,4.98-16.82,9.52-16.43,13.5c0.51,5.25,11.44,7.76,11.56,7.79
		c0.12,0.03,0.2,0.15,0.17,0.27C107.34,53.48,107.24,53.56,107.14,53.56"/>
	<path class="st0" d="M99.07,61.09c-0.86,0-1.61-0.04-2.19-0.11c-0.12-0.02-0.21-0.12-0.2-0.24c0.01-0.12,0.11-0.21,0.23-0.21h0
		h0.05c4.76,0,14.86-2.07,17.22-6.03c0.68-1.15,0.67-2.39-0.05-3.7c-1-1.84-3.39-2.89-5.51-3.82c-1.32-0.58-2.57-1.13-3.34-1.81
		c-0.85-0.75-1.15-1.68-0.86-2.7c0.71-2.5,5.02-5.3,9.22-6c0.12-0.02,0.24,0.06,0.26,0.18c0.03,0.12-0.05,0.24-0.17,0.27
		c-3.5,0.94-5.48,2.97-5.84,4.45c-0.18,0.73,0,1.37,0.52,1.84c0.42,0.38,1.64,0.95,3.05,1.6c2.7,1.25,6.06,2.81,6.9,4.46
		c1.03,2.01,1.04,3.86,0.05,5.48C115.58,59.37,105.05,61.09,99.07,61.09"/>
</g>
</svg>
