<?xml version="1.0" encoding="utf-8"?>
<!-- Generator: Adobe Illustrator 25.1.0, SVG Export Plug-In . SVG Version: 6.00 Build 0)  -->
<svg version="1.1" id="Warstwa_1" xmlns="http://www.w3.org/2000/svg" xmlns:xlink="http://www.w3.org/1999/xlink" x="0px" y="0px"
	 viewBox="0 0 210 120" style="enable-background:new 0 0 210 120;" xml:space="preserve">
<style type="text/css">
	.st0{fill:#9F9F9F;}
</style>
<g>
	<path class="st0" d="M96.32,63.79h-9.99v2.27l0.31-0.03l0.01-0.04c0.07-0.34,0.67-0.98,1.41-0.98h2.23l0,11.65h2.18l-0.01-11.64
		h2.28c0.75,0,1.25,0.41,1.33,0.8l0.01,0.04l0.32-0.01l-0.02-2.07H96.32z"/>
	<path class="st0" d="M31.48,63.01l0.04,0.04L31.48,63.01c-1.45,1.5-2.28,3.56-2.28,5.66c0,2.33,0.94,4.44,2.65,5.96
		c1.63,1.45,3.81,2.24,6.13,2.24c1.22,0,3.61-0.21,5.91-1.6l0.09-0.05l0.28-3.28l-0.43-0.06l-0.06,0.13
		c-1.69,3.54-4.36,3.54-5.36,3.54c-4.49,0-6.54-3.73-6.54-7.19c0-3.35,2.03-6.73,6.56-6.73c1.39,0,3.92,0.45,5.23,3.49l0.07,0.17
		l0.42-0.13l-0.28-3.42l-0.11-0.05c-2.11-0.92-3.81-1.33-5.52-1.33C35.48,60.37,33.14,61.28,31.48,63.01"/>
	<path class="st0" d="M46.41,63.79h-0.05l0,0.3l0.03,0.01c0.18,0.1,0.39,0.59,0.39,1.15v11.41h2.14l-0.01-5.87l0.94,0.02
		c0.84,0.05,1.17,0.6,1.59,1.31l0.05,0.09l0.27,0.45c0.46,0.77,1.08,1.83,1.74,2.8c0.47,0.7,1.05,1.1,1.79,1.22
		c0.52,0.09,1.57,0.06,1.96-0.07l0.47-0.12l0.18-0.05l-0.65-0.2c-0.26-0.08-0.68-0.26-1.23-0.9c-0.34-0.4-0.9-1.29-1.74-2.63
		l-0.84-1.33l-0.02-0.02c-0.22-0.33-0.6-0.85-1.22-1.19c1.21-0.39,2.39-1.49,2.39-3.13c0-0.47-0.12-1.36-0.92-2.11
		c-0.81-0.77-2.07-1.15-3.74-1.15H46.41z M50.07,64.95c2.2,0.09,2.26,1.95,2.26,2.16c0,1.87-1.38,2.53-2.56,2.53l-0.86-0.02v-4.65
		C49.13,64.95,49.54,64.93,50.07,64.95"/>
	<path class="st0" d="M68.31,63.79h-0.06l0.04,0.32l0.02,0.01c0.19,0.09,0.36,0.55,0.36,0.95l-0.01,11.59h3.67
		c2.42,0,4.43-0.75,5.8-2.18c1.14-1.18,1.79-2.81,1.79-4.46c0-1-0.34-2.5-1.28-3.74c-1.27-1.66-3.27-2.5-5.96-2.5H68.31z
		 M70.85,65.02l1.15,0c0.31,0.01,1.08,0.02,1.62,0.11c3.61,0.55,3.99,3.6,3.99,4.89c0,1.05-0.19,2.56-1.08,3.72
		c-0.88,1.14-2.26,1.72-4.1,1.72c-0.44,0-0.99,0-1.58-0.03V65.02z"/>
	<path class="st0" d="M84.36,63.79h-2.52l0.01,0.31l0.03,0.02c0.23,0.11,0.38,0.53,0.38,1.07l0,11.48h2.15l0-12.87H84.36z"/>
	<path class="st0" d="M127.6,63.79h-2.53l0.02,0.29l0.02,0.01c0.23,0.11,0.38,0.55,0.38,1.09v11.48h2.15l0-12.87H127.6z"/>
	<path class="st0" d="M65.54,63.79h-7.19l0.04,0.3l0.02,0.01c0.2,0.1,0.4,0.55,0.4,1.15l0,11.41h7.19l0.52-2.28l-0.29-0.1
		l-0.08,0.13c-0.59,0.94-1.2,1.06-3.28,1.06c-0.74,0.02-1.47-0.05-1.92-0.09v-5.25h3.64v-1.16h-3.64v-4l2.95,0.03
		c0.66,0,1.39,0.64,1.46,1.02l0.01,0.04l0.29-0.01l-0.06-2.26H65.54z"/>
	<path class="st0" d="M157.53,63.79h-7.17l0.01,0.33l0.03,0.01c0.19,0.1,0.4,0.52,0.4,1.12v11.41h7.18l0.52-2.28l-0.32-0.1
		l-0.08,0.13c-0.59,0.94-1.19,1.06-3.25,1.06c-0.74,0.02-1.47-0.05-1.92-0.09v-5.25h3.64v-1.16h-3.64v-4l2.95,0.03
		c0.81,0,1.43,0.62,1.43,1.02v0.06l0.33-0.02l-0.06-2.25H157.53z"/>
	<path class="st0" d="M102.57,61.38c-0.76,0.54-1.66,1.54-1.68,3.23v0.05c0,2.07,1.32,3.15,3.44,4.23l-0.01-0.02
		c0.05,0.04,0.24,0.14,0.81,0.43c1.77,0.89,3.05,1.53,3.05,3.34c0,0.62-0.23,1.51-0.89,2.16c-0.55,0.54-1.28,0.81-2.18,0.8
		c-2.7-0.03-3.66-2.4-3.94-3.42L101.12,72l-0.45,0.08l0.13,3.36l0.1,0.06c0.86,0.5,2.31,1.34,4.37,1.36
		c1.46,0.01,2.95-0.58,3.97-1.6c0.9-0.89,1.37-2.01,1.37-3.26c0-2.73-1.95-3.75-4.03-4.84l-0.39-0.2c-2.12-1.07-3.12-1.71-3.11-3.05
		c0.01-0.91,0.69-2.35,2.49-2.33c2.09,0.02,3.24,1.59,3.48,2.58l0.04,0.18l0.45-0.06l-0.15-2.91l-0.08-0.06
		c-1.24-0.83-2.79-0.94-3.4-0.94C104.7,60.36,103.48,60.73,102.57,61.38"/>
	<path class="st0" d="M131.07,67.04L131.07,67.04c-0.02,1.78,1.05,2.69,2.79,3.57l0.65,0.33c1.37,0.69,2.27,1.14,2.27,2.42
		c0,0.22-0.05,1-0.64,1.59c-0.41,0.41-0.99,0.61-1.7,0.61c-2.05-0.02-2.8-1.61-3.06-2.56l-0.05-0.18l-0.43,0.07l0.1,2.71l0.1,0.06
		c0.68,0.4,1.82,1.06,3.47,1.08c1.16,0.01,2.35-0.46,3.16-1.27c0.72-0.71,1.1-1.61,1.1-2.6c0-2.25-1.56-3.07-3.21-3.94l-0.29-0.15
		c-1.77-0.89-2.39-1.29-2.38-2.28c0.01-0.7,0.53-1.73,1.94-1.71c1.72,0.02,2.48,1.27,2.63,1.92l0.04,0.18l0.43-0.06l-0.12-2.36
		l-0.08-0.06c-0.99-0.66-2.22-0.75-2.7-0.75C133.14,63.65,131.09,64.82,131.07,67.04"/>
	<path class="st0" d="M140.71,67.04c-0.02,1.78,1.05,2.69,2.79,3.57l0.65,0.33c1.37,0.69,2.27,1.14,2.27,2.42
		c0,0.22-0.05,1-0.64,1.59c-0.41,0.41-0.99,0.61-1.7,0.61c-2.05-0.02-2.8-1.61-3.06-2.56l-0.05-0.18l-0.43,0.07l0.1,2.71l0.1,0.06
		c0.68,0.4,1.82,1.06,3.47,1.08c1.16,0.01,2.35-0.46,3.16-1.27c0.72-0.71,1.1-1.61,1.1-2.6c0-2.25-1.56-3.07-3.21-3.94l-0.29-0.15
		c-1.77-0.89-2.39-1.29-2.38-2.28c0-0.44,0.2-0.89,0.52-1.2c0.35-0.34,0.84-0.52,1.42-0.51c1.73,0.02,2.48,1.27,2.63,1.92l0.04,0.18
		l0.43-0.06l-0.12-2.36l-0.08-0.06c-0.99-0.66-2.22-0.75-2.7-0.75C142.78,63.65,140.73,64.82,140.71,67.04"/>
	<path class="st0" d="M122.26,63.78l-1.69,0.01l0.03,0.29l0.03,0.01c0.08,0.04,0.36,0.24,0.36,1.06l0.01,7.32
		c0,1.42-0.52,3.11-2.99,3.11c-2.34,0-2.82-1.4-2.82-3.5l0-8.28h-2.68l0.02,0.29l0.02,0.01c0.17,0.09,0.46,0.43,0.46,1.13v6.86
		c0,4.26,2.8,4.75,4.91,4.75c1.03,0,4.39-0.31,4.39-4.33l0.01-8.72H122.26z"/>
	<path class="st0" d="M175.99,60.11c1.51,0.49,3.12,1.17,4.8,2.11c-4.13-6.83-11.53-14.27-18.78-19.09
		c1.87,1.85,4.91,5.93,5.69,10.3C170.68,55.55,173.48,57.81,175.99,60.11"/>
	<path class="st0" d="M175.99,60.11c-3.55-1.14-6.57-1.2-8.81-0.97c0.79-1.85,0.87-3.8,0.53-5.7c-5.49-3.91-11.54-7.37-17.36-9.84
		c4.27,2.89,8.98,11.23,10.95,20.18c4.21-1.25,10.69-2.11,19.05,0.71C179.03,63.02,177.57,61.56,175.99,60.11"/>
</g>
</svg>
