<?xml version="1.0" encoding="utf-8"?>
<!-- Generator: Adobe Illustrator 19.0.0, SVG Export Plug-In . SVG Version: 6.00 Build 0)  -->
<svg version="1.1" id="Warstwa_1" xmlns="http://www.w3.org/2000/svg" xmlns:xlink="http://www.w3.org/1999/xlink" x="0px" y="0px"
	 viewBox="0 0 210.1 120.1" style="enable-background:new 0 0 210.1 120.1;" xml:space="preserve">
<style type="text/css">
	.st0{fill:#FEFEFE;}
	.st1{fill:#A0A0A0;}
	.st2{fill:#A3A3A3;}
	.st3{fill:#A4A4A4;}
	.st4{fill:#A7A7A7;}
	.st5{fill:#9F9F9F;}
	.st6{fill:#A9A9A9;}
	.st7{fill:#A5A5A5;}
	.st8{fill:#9E9E9E;}
	.st9{fill:#A1A1A1;}
	.st10{fill:#A8A8A8;}
	.st11{fill:#B5B5B5;}
	.st12{fill:#B8B8B8;}
	.st13{fill:#B0B0B0;}
	.st14{fill:#ABABAB;}
	.st15{fill:#BDBDBD;}
	.st16{fill:#AEAEAE;}
	.st17{fill:#A6A6A6;}
	.st18{fill:#B3B3B3;}
	.st19{fill:#BCBCBC;}
	.st20{fill:#BEBEBE;}
	.st21{fill:#AAAAAA;}
	.st22{fill:#E0E0E0;}
	.st23{fill:#ACACAC;}
	.st24{fill:#C4C4C4;}
	.st25{fill:#E9E9E9;}
	.st26{fill:#A2A2A2;}
	.st27{fill:#E5E5E5;}
	.st28{fill:#C6C6C6;}
	.st29{fill:#EDEDED;}
	.st30{fill:#B2B2B2;}
	.st31{fill:#B9B9B9;}
	.st32{fill:#9D9D9D;}
	.st33{fill:#D1D1D1;}
	.st34{fill:#DEDEDE;}
	.st35{fill:#C1C1C1;}
	.st36{fill:#BBBBBB;}
	.st37{fill:#BABABA;}
	.st38{fill:#F4F4F4;}
	.st39{fill:#F7F7F7;}
	.st40{fill:#FAFAFA;}
</style>
<g>
	<path class="st0" d="M-0.9,119.6c0-40,0-80,0-120c70,0,140,0,210,0c0,40,0,80,0,120C139.1,119.6,69.1,119.6-0.9,119.6z M42.1,61.6
		c0.3,0,0.7,0,1,0s0.7,0,1,0c0.3,0.3,0.7,0.7,1,1c0.1,0.6,0.2,1.3,0.3,1.9c0.2-1,1.8-2.4-0.3-2.9c-0.1-1.5-1.2-0.8-2-1
		c-1.6-1.4-3.4-1.4-5,0c-0.3,0-0.7,0-1,0c-0.7,0.3-1.3,0.7-2,1c-2,0.4-1.9,2.6-2.9,3.7c0,2,0,4,0,6c1,0.7,2,1.5,2.9,2.3
		c0.3,0.3,0.7,0.7,1,1c0.3,0,0.7,0,1,0c2.1,1.4,4.9,1.4,7,0c0.3,0,0.7,0,1,0c1.9-0.6,0.8-1.8,0.7-3.4c-0.8,1.1-1.2,1.7-1.7,2.4
		c-0.3,0-0.7,0-1,0c-1.5,1-3,1.8-4.6,0c-0.2-0.2-0.9,0-1.4,0c-0.3-0.3-0.7-0.7-1-1c-0.7-1.7-1.3-3.3-2-5c0.7-1.7,1.3-3.3,2-5
		c0.3-0.3,0.7-0.7,1-1c0.3,0,0.7,0,1,0s0.7,0,1,0s0.7,0,1,0s0.7,0,1,0S41.7,61.6,42.1,61.6z M139.1,68.6c0.3,0.3,0.7,0.7,1,1
		c0.3,0,0.7,0,1,0c0.3,0.3,0.7,0.7,1,1c0.3,0,0.7,0,1,0c0,1,0,2,0,3c-0.3,0.3-0.7,0.7-1,1c-0.3,0-0.7,0-1,0s-0.7,0-1,0
		c-0.3-0.3-0.7-0.7-1-1c-0.1-0.3-0.3-0.6-0.5-1.1c-0.6,1.1-0.9,1.9,0.5,2.1c0.3,0.3,0.7,0.7,1,1c0.3,0,0.7,0,1,0s0.7,0,1,0
		c0.8-0.2,1.9,0.5,2-1c1.4-1.6,1.4-3.4,0-5c-0.3-0.3-0.7-0.7-1-1c-0.3,0-0.7,0-1,0c-0.3-0.3-0.7-0.7-1-1s-0.7-0.7-1-1
		c0-0.7,0-1.3,0-2c1,0,2,0,3,0c0.5,0.7,1,1.3,1.7,2.4c0.1-1.6,1.1-2.8-0.7-3.4c-0.3,0-0.7,0-1,0c-0.2-0.3-0.7-1-0.7-1
		c-1.1,0.7-2.7,0.4-3.3,2c-0.3,0.3-0.7,0.7-1,1c0,0.7,0,1.3,0,2C138.4,67.9,138.7,68.2,139.1,68.6z M55.1,64.6c-0.3-0.3-0.7-0.7-1-1
		c-0.7,0-1.3,0-2,0c-1.1-1.8-2.6-0.8-4-0.8c0,4.1,0,7.8,0,11.6c0,0.4,0.6,0.8,1,1.3c0.3,0,0.7,0,1,0c1.7-0.2,0.7-1.5,1-2.3
		c0.3-0.9-0.9-2.4,1-2.7c0.3,0.3,0.7,0.7,1,1c0.3,0.3,0.7,0.7,1,1c0.6,1.5,1.7,2.5,3.1,3.1c0.4-0.3,0.7-0.5,0.8-0.6
		c-0.3-0.5-0.6-1-0.9-1.6c-0.3-0.3-0.7-0.7-1-1c-0.3-0.3-0.7-0.7-1-1c0-0.3,0-0.7,0-1c-0.3-0.3-0.7-0.7-1-1c0.3-0.7,0.7-1.3,1-2
		c0.3-0.3,0.7-0.7,1-1c0-0.3,0-0.7,0-1C55.7,65.2,55.4,64.9,55.1,64.6z M95.1,64.6c0.1,0.3,0.2,0.6,0.3,0.8c0.2-0.3,0.4-0.6,0.7-0.8
		c-0.3-0.3-0.7-0.7-1-1c-0.3-0.3-0.5-0.9-0.8-1c-2.1-0.1-4.3-0.1-6.4,0c-0.3,0-0.5,0.6-0.8,1c-1.4,0.2-1.2,1-0.5,2.1
		c0.2-0.5,0.4-0.8,0.5-1.1c0.3,0,0.7,0,1,0c0.7,0,1.3,0,2,0c0,3.6,0,7.2,0,10.9c0.8,0,1.2,0,2,0c0-3.7,0-7.3,0-10.9
		C93.1,64.6,94.1,64.6,95.1,64.6z M150.1,45.6c-0.3-0.3-0.7-0.7-1-1c-0.2-1.4-1-1.2-2.1-0.5c0.5,0.2,0.8,0.4,1.1,0.5
		c0.3,0.3,0.7,0.7,1,1c0.3,0.3,0.7,0.7,1,1c3.7,4.7,6.1,10,7.2,16c3,0,6-0.1,9,0c2.7,0.1,5.5-0.5,8.1,0.9c0.1,0,0.5-0.6,0.8-1
		c0-0.3,0-0.7,0-1c0.3-0.1,0.6-0.2,0.8-0.3c-0.3-0.2-0.6-0.4-0.8-0.7c0-0.5,0.2-1.2,0-1.5c-2-2.5-4-5-6.3-7.2
		c-2.4-2.3-5.1-4.2-7.7-6.3c-0.2-1.4-1-1.2-2.1-0.5c0.8,0.5,1.4,1,2.1,1.5c0.5,1.7,2.2,3,2,5c0,0.3,0,0.7,0,1c-3.9-2.5-7.8-5.1-12-7
		C150.7,45.6,150.4,45.6,150.1,45.6z M120.1,73.6c0-0.3,0-0.7,0-1c0.3-0.1,0.8-0.2,0.8-0.3c0-2.8,0-5.5,0-8.3c0-0.1-0.5-0.2-0.8-0.3
		c-0.2-0.3-0.3-0.6-1-2c0,1.8,0,2.4,0,3c0,2.7,0,5.3,0,8c0,0.3,0,0.7,0,1c-0.3,0.3-0.7,0.7-1,1c-1.4,0.1-2.8-0.1-4-1
		c-0.1-3.2-0.1-6.5-0.2-9.7c0-0.1-0.2-0.2-0.1-0.1c-1,0-1.8,0-2.4,0c0.3,1,0.6,1.8,0.7,2.7c0.1,2.3,0,4.6,0.1,6.9
		c0,0.4,0.6,0.8,1,1.3c1.9,1.4,4.1,1.4,6,0C119.4,74.2,119.7,73.9,120.1,73.6z M134.1,74.6c0.3-0.3,0.7-0.7,1-1
		c1.8-1.1,0.8-2.6,0.9-3.8c-1.9-1.6-4.7-2-4.9-5.2c1.1,0,2.1,0,3,0c0.1,0.3,0.3,0.6,0.5,1.1c0.6-1.1,0.9-1.9-0.5-2.1
		c-0.5-0.3-1-0.6-1.5-0.9c-1.1,0.7-2.3,1.5-3.3,2.1c0,1.4,0,2.5,0,3.8c1.6,0.9,3.3,1.7,4.9,2.6c0,0.8,0,1.6,0,2.5
		c-0.7,0.3-1.3,0.7-2,1c-0.7-0.3-1.3-0.7-2-1c0-0.3,0-0.7,0-1c-0.3-1.4-1.1-1.2-1.9-0.6c0.2,0.9-0.9,2.3,0.9,2.6c0.3,0,0.7,0,1,0
		c0.1,1.5,1.2,0.8,2,1C132.8,75.4,134,76.1,134.1,74.6z M77.1,74.6c0.3-0.3,0.7-0.7,1-1c3.1-2.8,2.3-5.9,0.7-8.7
		c-1.1-0.6-1.9-0.9-2.7-1.3c-0.7,0-1.3,0-2,0c-1.5-2.1-3.3-0.6-5-0.9c0,4.2,0,7.9,0,11.7c0,0.4,0.6,0.8,1,1.3c1,0,2,0,3,0
		c1-0.4,2.5,0.9,3-1C76.4,74.6,76.7,74.6,77.1,74.6z M150.1,69.6c0.9,0,1.9,0,2.9,0c0-0.8,0-1.2,0-2c-1,0-2,0-2.9,0c0-1,0-2,0-3
		c1,0,2,0,3,0c0,1.2,1,1.3,1.5,0.9c0.8-0.7,0.9-1.6-0.5-1.9c-1.9-1.4-4.1-1.4-6,0c-0.2,0-0.3,0-0.5,0c-0.1,0.1-0.3,0.3-0.3,0.3
		c1.3,1.5,0.7,3.3,0.8,5c0.1,2.2-0.3,4.5,0.2,6.7c2.1,0,3.9,0,5.8,0c1.2,0,1.3-1,0.9-1.5c-0.7-0.8-1.6-0.9-1.9,0.5c-1,0-2,0-3,0
		C150.1,72.9,150.1,71.2,150.1,69.6z M102.1,73.6c-0.5-0.7-1-1.3-1.6-2c-0.3,1.1-1.3,2.3,0.6,3c1.9,1.4,4.1,1.4,6,0
		c0.6-0.4,1.3-0.9,1.9-1.3c0-1.5,0-3,0-4.7c-1.1-0.7-2.3-1.4-3.5-2.1c-1.2-0.8-2.4-1.7-3.7-2.6c0.5-1,0.9-1.7,1.2-2.3
		c1.3,0,2.6,0,3.7,0c0.3,0.9,0.5,1.4,0.7,2.1c1.3-1.7,0.4-2.9-0.8-4c-1.1,0.3-2.8-1.2-3.6,0.9c-0.3,0-0.7,0-1,0
		c-1.6,1-2.1,2.5-2,4.7c2.3,1.9,4.7,3.9,7.1,5.8c-0.3,1,0.6,2.3-1.1,2.5c-0.7,0.4-1.3,0.7-2,1.1C103.4,74.3,102.7,73.9,102.1,73.6z
		 M66.1,63.6c-1.9-1.4-4.1-1.4-6,0c0,3.7,0,7.3,0,11c1.7,2.3,4.1,0.4,6.1,1c0.2,0.1,0.5-0.2,0.9-0.4c0-0.4,0-0.9-0.1-1.5
		c-0.7,0.4-1.3,0.8-2,0.9c-0.9,0.1-1.9,0-2.9,0c0-1.7,0-3.3,0-5c0.9,0,1.9,0,2.9,0c0-0.8,0-1.2,0-2c-1,0-2,0-2.9,0c0-1,0-2,0-3
		c1,0,2,0,3,0c0.6-0.1,1.3-0.2,2.4-0.4C66.6,63.8,66.3,63.7,66.1,63.6z M123.7,65.8c-1.3,2.9-0.4,5.7-0.7,8.3
		c0.8,0.6,1.3,1.1,1.8,1.4c0.2,0.1,0.6-0.1,1.1-0.2c0-3.8,0-7.7,0-11.6c-1,0-1.9,0-3.2,0C123.2,64.8,123.5,65.4,123.7,65.8z
		 M82.1,75.7c0.9-0.2,1.3-0.3,1.7-0.3c0-4.1,0-7.9,0-11.9c-0.7,0.1-1.2,0.2-1.7,0.3C82.1,67.7,82.1,71.5,82.1,75.7z"/>
	<path class="st1" d="M151.1,45.6c4.2,1.9,8.1,4.5,12,7c0.3,0.3,0.7,0.7,1,1c0,1.6,0.3,3.3-0.9,4.9c1.9,0,3.7,0,5.4,0
		c0,0.1-0.1,0.3-0.1,0.4c0.9,0.2,1.7,0.5,2.6,0.7c0.3,0.3,0.7,0.7,1,1c0.3,0,0.7,0,1,0c0.7,0.7,1.3,1.3,2,2c-0.3,0.3-0.7,1-0.8,1
		c-2.6-1.5-5.4-0.9-8.1-0.9c-3-0.1-5.9,0-9,0c-1.1-6-3.5-11.3-7.2-16C150.4,46.2,150.7,45.9,151.1,45.6z"/>
	<path class="st2" d="M172.1,60.6c-0.3-0.3-0.7-0.7-1-1c-1.5-3-4.8-3.8-7-6c-0.2-0.8,0.5-1.9-1-2c0.2-2-1.5-3.3-2-5c0-0.3,0-0.7,0-1
		c2.6,2.1,5.3,4,7.7,6.3c2.3,2.2,4.2,4.8,6.3,7.2c0.2,0.3,0,1,0,1.5c-0.7,0-1.3,0-2,0c-0.1-0.3-0.2-0.6-0.3-0.8
		C172.5,60,172.3,60.3,172.1,60.6z"/>
	<path class="st3" d="M106.1,73.6c1.6-0.2,0.7-1.5,1.1-2.5c-2.4-2-4.8-4-7.1-5.8c-0.1-2.1,0.4-3.7,2-4.7c0.3,0.3,0.7,0.7,1,1
		c-0.4,0.7-0.7,1.3-1.2,2.3c1.2,0.9,2.4,1.8,3.7,2.6c1.2,0.8,2.4,1.5,3.5,2.1c0,1.7,0,3.1,0,4.7c-0.6,0.4-1.3,0.8-1.9,1.3
		C106.7,74.2,106.4,73.9,106.1,73.6z"/>
	<path class="st4" d="M57.1,73.6c0.3,0.5,0.6,1,0.9,1.6c-0.1,0.1-0.4,0.3-0.8,0.6c-1.3-0.6-2.4-1.7-3.1-3.1c-0.3-0.3-0.7-0.7-1-1
		c-0.3-0.3-0.7-0.7-1-1c-0.5-0.4-1-0.8-2-1.6c0,2.7,0,4.6,0,6.6c-0.3,0-0.7,0-1,0c0-3.9,0-7.9,0-12.6c1,0.8,1.5,1.2,2,1.6
		c-1.4,1.3-1.4,2.7,0,4c2.2-0.2,2.8-0.8,3-3c0-0.3,0-0.7,0-1c0.3,0,0.7,0,1,0c0.3,0.3,0.7,0.7,1,1c0,0.3,0,0.7,0,1
		c-0.3,0.3-0.7,0.7-1,1c-0.3,0.7-0.7,1.3-1,2c0.3,0.3,0.7,0.7,1,1c0,0.3,0,0.7,0,1c0.3,0.3,0.7,0.7,1,1
		C56.4,72.9,56.7,73.2,57.1,73.6z"/>
	<path class="st5" d="M123.7,65.8c-0.2-0.4-0.5-1.1-1-2.1c1.3,0,2.2,0,3.2,0c0,3.9,0,7.8,0,11.6c-0.5,0.1-0.9,0.3-1.1,0.2
		c-0.5-0.3-1-0.8-1.8-1.4C123.3,71.6,122.5,68.7,123.7,65.8z"/>
	<path class="st6" d="M134.1,73.6c0-0.8,0-1.6,0-2.5c-1.6-0.9-3.2-1.7-4.9-2.6c0-1.3,0-2.4,0-3.8c1-0.6,2.2-1.4,3.3-2.1
		c0.5,0.3,1,0.6,1.5,0.9c0,0.3,0,0.7,0,1c-0.9,0-1.9,0-3,0c0.1,3.3,2.9,3.6,4.9,5.2c-0.1,1.2,0.9,2.7-0.9,3.8
		C134.7,73.6,134.4,73.6,134.1,73.6z"/>
	<path class="st7" d="M35.1,73.6c-1-0.8-2-1.5-2.9-2.3c0-2.1,0-4,0-6c1-1.1,0.9-3.3,2.9-3.7c0.3,0.3,0.7,0.7,1,1
		c-0.7,1.7-1.3,3.3-2,5c0.7,1.7,1.3,3.3,2,5C35.7,72.9,35.4,73.2,35.1,73.6z"/>
	<path class="st5" d="M92.1,64.6c0,3.6,0,7.2,0,10.9c-0.8,0-1.2,0-2,0c0-3.7,0-7.3,0-10.9c0.3-0.3,0.5-0.7,0.8-1
		C91.2,63.9,91.6,64.2,92.1,64.6z"/>
	<path class="st6" d="M150.1,64.6c0,1,0,2,0,3c0,0.7,0,1.3,0,2c-1.4,1.6-1.4,3.4,0,5c1,0,2,0,3,0c0.3,0.3,0.7,0.7,1,1
		c-1.8,0-3.6,0-5.8,0c-0.5-2.2-0.1-4.4-0.2-6.7c-0.1-1.7,0.5-3.5-0.8-5c0,0,0.2-0.3,0.3-0.3c0.1-0.1,0.3,0,0.5,0
		C148.8,63.7,150,63.1,150.1,64.6z"/>
	<path class="st5" d="M82.1,75.7c0-4.3,0-8,0-11.9c0.5-0.1,1-0.2,1.7-0.3c0,4,0,7.9,0,11.9C83.5,75.5,83,75.6,82.1,75.7z"/>
	<path class="st8" d="M62.1,64.6c0,1,0,2,0,3c0,0.7,0,1.3,0,2c0,1.7,0,3.3,0,5c-0.7,0-1.3,0-2,0c0-3.7,0-7.3,0-11
		C60.8,63.7,62,63.1,62.1,64.6z"/>
	<path class="st9" d="M113.1,74.6c-0.3-0.4-0.9-0.8-1-1.3c-0.1-2.3,0-4.6-0.1-6.9c0-0.9-0.4-1.7-0.7-2.7c0.6,0,1.3,0,2.4,0
		c-0.1-0.1,0.1,0,0.1,0.1c0.1,3.2,0.2,6.5,0.2,9.7C113.7,73.9,113.4,74.2,113.1,74.6z"/>
	<path class="st10" d="M76.1,63.6c0.8,0.4,1.6,0.8,2.7,1.3c1.6,2.8,2.4,5.8-0.7,8.7c-0.3-0.3-0.7-0.7-1-1c0.8-1.8,2-3.6,0-5.5
		c-0.6-0.6-0.7-1.6-1-2.5C76.1,64.2,76.1,63.9,76.1,63.6z"/>
	<path class="st11" d="M70.1,75.6c-0.3-0.4-0.9-0.8-1-1.3c-0.1-3.8,0-7.5,0-11.7c1.7,0.3,3.5-1.1,5,0.9c-0.3,0.3-0.7,0.7-1,1
		c-0.3,0-0.7,0-1,0c-0.5-0.4-1-0.8-2-1.6C70.1,67.7,70.1,71.6,70.1,75.6z"/>
	<path class="st12" d="M51.1,64.6c-0.5-0.4-1-0.8-2-1.6c0,4.7,0,8.6,0,12.6c-0.3-0.4-0.9-0.8-1-1.3c-0.1-3.8,0-7.5,0-11.6
		c1.4,0,2.9-1,4,0.8c0,0.3,0,0.7,0,1C51.7,64.6,51.4,64.6,51.1,64.6z"/>
	<path class="st13" d="M120.1,63.6c0.3,0.1,0.8,0.2,0.8,0.3c0,2.8,0,5.5,0,8.3c0,0.1-0.5,0.2-0.8,0.3c-0.3,0-0.7,0-1,0
		c0-2.7,0-5.3,0-8C119.4,64.2,119.7,63.9,120.1,63.6z"/>
	<path class="st4" d="M70.1,75.6c0-3.9,0-7.9,0-12.6c1,0.8,1.5,1.2,2,1.6c-0.2,0-0.5,0-0.5,0c-0.9,3.3-0.9,6.7,0,10c0,0,0.3,0,0.5,0
		c0.3,0,0.7,0,1,0c0,0.3,0,0.7,0,1C72.1,75.6,71.1,75.6,70.1,75.6z"/>
	<path class="st14" d="M92.1,64.6c-0.4-0.3-0.8-0.7-1.2-1c-0.3,0.3-0.5,0.7-0.8,1c-0.7,0-1.3,0-2,0c-0.3-0.3-0.7-0.7-1-1
		c0.3-0.3,0.5-0.9,0.8-1c2.1-0.1,4.3-0.1,6.4,0c0.3,0,0.5,0.6,0.8,1c0,0.3,0,0.7,0,1C94.1,64.6,93.1,64.6,92.1,64.6z"/>
	<path class="st5" d="M138.1,67.6c0-0.7,0-1.3,0-2c0.3-0.3,0.7-0.7,1-1c0.3,0,0.7,0,1,0c0,0.7,0,1.3,0,2c0.3,0.3,0.7,0.7,1,1
		c0.3,0.3,0.7,0.7,1,1c0.3,0,0.7,0,1,0c0.3,0.3,0.7,0.7,1,1c-0.3,0.3-0.7,0.7-1,1c-0.3,0-0.7,0-1,0c-0.3-0.3-0.7-0.7-1-1
		c-0.3,0-0.7,0-1,0c-0.3-0.3-0.7-0.7-1-1S138.4,67.9,138.1,67.6z"/>
	<path class="st15" d="M103.1,60.6c0.8-2.1,2.5-0.6,3.6-0.9c1.3,1.1,2.1,2.3,0.8,4c-0.2-0.7-0.4-1.2-0.7-2.1c-1.2,0-2.4,0-3.7,0
		C103.1,61.2,103.1,60.9,103.1,60.6z"/>
	<path class="st16" d="M37.1,73.6c0.5,0,1.2-0.2,1.4,0c1.6,1.8,3.1,0.9,4.6,0c0.3,0.3,0.7,0.7,1,1c-2.1,1.4-4.9,1.4-7,0
		C37.1,74.2,37.1,73.9,37.1,73.6z"/>
	<path class="st11" d="M150.1,64.6c-0.1-1.5-1.2-0.8-2-1c1.9-1.4,4.1-1.4,6,0c-0.3,0.3-0.7,0.7-1,1
		C152.1,64.6,151.1,64.6,150.1,64.6z"/>
	<path class="st11" d="M62.1,64.6c-0.1-1.5-1.2-0.8-2-1c1.9-1.4,4.1-1.4,6,0c-0.3,0.3-0.7,0.7-1,1C64.1,64.6,63.1,64.6,62.1,64.6z"
		/>
	<path class="st17" d="M143.1,70.6c0.3-0.3,0.7-0.7,1-1c1.4,1.6,1.4,3.4,0,5c-0.3-0.3-0.7-0.7-1-1C143.1,72.6,143.1,71.6,143.1,70.6
		z"/>
	<path class="st17" d="M60.1,74.6c0.7,0,1.3,0,2,0c1,0,2,0.1,2.9,0c0.6-0.1,1.2-0.5,2-0.9c0,0.6,0.1,1.1,0.1,1.5
		c-0.3,0.2-0.7,0.5-0.9,0.4C64.1,75,61.8,76.9,60.1,74.6z"/>
	<path class="st11" d="M106.1,73.6c0.3,0.3,0.7,0.7,1,1c-1.9,1.4-4.1,1.4-6,0c0.3-0.3,0.7-0.7,1-1c0.7,0.4,1.3,0.7,2,1.1
		C104.7,74.3,105.4,73.9,106.1,73.6z"/>
	<path class="st12" d="M50.1,75.6c0-1.9,0-3.9,0-6.6c1,0.8,1.5,1.2,2,1.6c-1.9,0.3-0.7,1.8-1,2.7C50.8,74.1,51.7,75.4,50.1,75.6z"/>
	<path class="st13" d="M119.1,74.6c-1.9,1.4-4.1,1.4-6,0c0.3-0.3,0.7-0.7,1-1c1.2,0.9,2.6,1.1,4,1C118.4,74.6,118.7,74.6,119.1,74.6
		z"/>
	<path class="st18" d="M140.1,64.6c-0.3,0-0.7,0-1,0c0.5-1.6,2.2-1.3,3.3-2c0,0,0.5,0.6,0.7,1c0,0.3,0,0.7,0,1
		C142.1,64.6,141.1,64.6,140.1,64.6z"/>
	<path class="st19" d="M62.1,69.6c0-0.7,0-1.3,0-2c0.9,0,1.9,0,2.9,0c0,0.8,0,1.2,0,2C63.9,69.6,63,69.6,62.1,69.6z"/>
	<path class="st15" d="M150.1,69.6c0-0.7,0-1.3,0-2c0.9,0,1.9,0,2.9,0c0,0.8,0,1.2,0,2C151.9,69.6,151,69.6,150.1,69.6z"/>
	<path class="st20" d="M41.1,61.6c-0.3,0-0.7,0-1,0c-0.3-0.3-0.7-0.7-1-1c-0.3,0-0.7,0-1,0c1.6-1.4,3.4-1.4,5,0c-0.3,0-0.7,0-1,0
		C41.7,60.9,41.4,61.2,41.1,61.6z"/>
	<path class="st16" d="M73.1,75.6c0-0.3,0-0.7,0-1c1-0.3,2-0.7,3-1c0,0.3,0,0.7,0,1C75.6,76.5,74,75.2,73.1,75.6z"/>
	<path class="st21" d="M150.1,74.6c-1.4-1.6-1.4-3.4,0-5C150.1,71.2,150.1,72.9,150.1,74.6z"/>
	<path class="st7" d="M102.1,73.6c-0.3,0.3-0.7,0.7-1,1c-1.9-0.7-0.9-1.9-0.6-3C101,72.3,101.5,72.9,102.1,73.6z"/>
	<path class="st22" d="M129.1,74.6c-1.8-0.3-0.7-1.7-0.9-2.6c0.9-0.6,1.7-0.9,1.9,0.6c-0.3,0.3-0.7,0.7-1,1
		C129.1,73.9,129.1,74.2,129.1,74.6z"/>
	<path class="st23" d="M44.1,73.6c0.5-0.7,1-1.3,1.7-2.4c0.1,1.6,1.1,2.8-0.7,3.4C44.7,74.2,44.4,73.9,44.1,73.6z"/>
	<path class="st24" d="M144.1,63.6c1.9,0.6,0.8,1.8,0.7,3.4c-0.8-1.1-1.2-1.7-1.7-2.4C143.4,64.2,143.7,63.9,144.1,63.6z"/>
	<path class="st8" d="M35.1,73.6c0.3-0.3,0.7-0.7,1-1c0.3,0.3,0.7,0.7,1,1c-0.3,0.3-0.7,0.7-1,1C35.7,74.2,35.4,73.9,35.1,73.6z"/>
	<path class="st8" d="M77.1,72.6c0.3,0.3,0.7,0.7,1,1c-0.3,0.3-0.7,0.7-1,1c-0.3-0.3-0.7-0.7-1-1C76.4,73.2,76.7,72.9,77.1,72.6z"/>
	<path class="st25" d="M154.1,63.6c1.4,0.3,1.3,1.2,0.5,1.9c-0.5,0.4-1.5,0.3-1.5-0.9C153.4,64.2,153.7,63.9,154.1,63.6z"/>
	<path class="st17" d="M130.1,73.6c0.7,0.3,1.3,0.7,2,1c0,0.3,0,0.7,0,1c-0.8-0.2-1.9,0.5-2-1C130.1,74.2,130.1,73.9,130.1,73.6z"/>
	<path class="st26" d="M132.1,75.6c0-0.3,0-0.7,0-1c0.7-0.3,1.3-0.7,2-1c0,0.3,0,0.7,0,1C134,76.1,132.8,75.4,132.1,75.6z"/>
	<path class="st13" d="M144.1,74.6c-0.1,1.5-1.2,0.8-2,1c0-0.3,0-0.7,0-1c0.3-0.3,0.7-0.7,1-1C143.4,73.9,143.7,74.2,144.1,74.6z"/>
	<path class="st21" d="M154.1,75.6c-0.3-0.3-0.7-0.7-1-1c0.3-1.4,1.2-1.3,1.9-0.5C155.3,74.6,155.2,75.5,154.1,75.6z"/>
	<path class="st5" d="M36.1,62.6c-0.3-0.3-0.7-0.7-1-1c0.7-0.3,1.3-0.7,2-1c0,0.3,0,0.7,0,1C36.7,61.9,36.4,62.2,36.1,62.6z"/>
	<path class="st17" d="M45.1,61.6c2,0.6,0.4,1.9,0.3,2.9c-0.1-0.6-0.2-1.3-0.3-1.9C45.1,62.2,45.1,61.9,45.1,61.6z"/>
	<path class="st27" d="M173.1,60.6c0.7,0,1.3,0,2,0c0,0.3,0,0.7,0,1s0,0.7,0,1C174.4,61.9,173.7,61.2,173.1,60.6z"/>
	<path class="st28" d="M161.1,45.6c0,0.3,0,0.7,0,1c-0.7-0.5-1.3-1-2.1-1.5C160,44.4,160.8,44.2,161.1,45.6z"/>
	<path class="st4" d="M73.1,64.6c0.3-0.3,0.7-0.7,1-1c0.7,0,1.3,0,2,0c0,0.3,0,0.7,0,1C75.1,64.6,74.1,64.6,73.1,64.6z"/>
	<path class="st8" d="M44.1,73.6c0.3,0.3,0.7,0.7,1,1c-0.3,0-0.7,0-1,0c-0.3-0.3-0.7-0.7-1-1C43.4,73.6,43.7,73.6,44.1,73.6z"/>
	<path class="st28" d="M163.1,51.6c1.5,0.1,0.8,1.2,1,2c-0.3-0.3-0.7-0.7-1-1C163.1,52.2,163.1,51.9,163.1,51.6z"/>
	<path class="st8" d="M134.1,64.6c0-0.3,0-0.7,0-1c1.4,0.2,1.2,1,0.5,2.1C134.3,65.2,134.2,64.9,134.1,64.6z"/>
	<path class="st14" d="M120.1,63.6c-0.3,0.3-0.7,0.7-1,1c0-0.6,0-1.2,0-3C119.7,63,119.9,63.3,120.1,63.6z"/>
	<path class="st21" d="M119.1,74.6c-0.3,0-0.7,0-1,0c0.3-0.3,0.7-0.7,1-1c0.3,0,0.7,0,1,0C119.7,73.9,119.4,74.2,119.1,74.6z"/>
	<path class="st8" d="M44.1,61.6c-0.3,0-0.7,0-1,0c0-0.3,0-0.7,0-1c0.8,0.2,1.9-0.5,2,1C44.7,61.6,44.4,61.6,44.1,61.6z"/>
	<path class="st8" d="M52.1,64.6c0-0.3,0-0.7,0-1c0.7,0,1.3,0,2,0c0,0.3,0,0.7,0,1c-0.3,0-0.7,0-1,0S52.4,64.6,52.1,64.6z"/>
	<path class="st29" d="M148.1,44.6c-0.3-0.1-0.6-0.3-1.1-0.5c1.1-0.6,1.9-0.9,2.1,0.5C148.7,44.6,148.4,44.6,148.1,44.6z"/>
	<path class="st24" d="M150.1,46.6c-0.3-0.3-0.7-0.7-1-1c0-0.3,0-0.7,0-1c0.3,0.3,0.7,0.7,1,1C150.1,45.9,150.1,46.2,150.1,46.6z"/>
	<path class="st8" d="M139.1,74.6c-1.4-0.2-1.2-1-0.5-2.1c0.2,0.5,0.4,0.8,0.5,1.1C139.1,73.9,139.1,74.2,139.1,74.6z"/>
	<path class="st26" d="M65.1,64.6c0.3-0.3,0.7-0.7,1-1c0.3,0.1,0.6,0.2,1.4,0.6C66.3,64.4,65.7,64.5,65.1,64.6z"/>
	<path class="st30" d="M139.1,74.6c0-0.3,0-0.7,0-1c0.3,0.3,0.7,0.7,1,1c0,0.3,0,0.7,0,1C139.7,75.2,139.4,74.9,139.1,74.6z"/>
	<path class="st13" d="M87.1,64.6c-0.1,0.3-0.3,0.6-0.5,1.1c-0.6-1.1-0.9-1.9,0.5-2.1C87.1,63.9,87.1,64.2,87.1,64.6z"/>
	<path class="st8" d="M36.1,74.6c0.3-0.3,0.7-0.7,1-1c0,0.3,0,0.7,0,1C36.7,74.6,36.4,74.6,36.1,74.6z"/>
	<path class="st4" d="M38.1,60.6c0.3,0,0.7,0,1,0c0,0.3,0,0.7,0,1c-0.3,0-0.7,0-1,0C38.1,61.2,38.1,60.9,38.1,60.6z"/>
	<path class="st8" d="M120.1,73.6c-0.3,0-0.7,0-1,0c0-0.3,0-0.7,0-1c0.3,0,0.7,0,1,0C120.1,72.9,120.1,73.2,120.1,73.6z"/>
	<path class="st31" d="M129.1,73.6c0.3-0.3,0.7-0.7,1-1c0,0.3,0,0.7,0,1C129.7,73.6,129.4,73.6,129.1,73.6z"/>
	<path class="st8" d="M38.1,60.6c0,0.3,0,0.7,0,1c-0.3,0-0.7,0-1,0c0-0.3,0-0.7,0-1C37.4,60.6,37.7,60.6,38.1,60.6z"/>
	<path class="st23" d="M57.1,73.6c-0.3-0.3-0.7-0.7-1-1C56.4,72.9,56.7,73.2,57.1,73.6z"/>
	<path class="st32" d="M76.1,73.6c0.3,0.3,0.7,0.7,1,1c-0.3,0-0.7,0-1,0C76.1,74.2,76.1,73.9,76.1,73.6z"/>
	<path class="st8" d="M150.1,46.6c0-0.3,0-0.7,0-1c0.3,0,0.7,0,1,0C150.7,45.9,150.4,46.2,150.1,46.6z"/>
	<path class="st32" d="M129.1,73.6c0.3,0,0.7,0,1,0c0,0.3,0,0.7,0,1c-0.3,0-0.7,0-1,0C129.1,74.2,129.1,73.9,129.1,73.6z"/>
	<path class="st8" d="M134.1,74.6c0-0.3,0-0.7,0-1c0.3,0,0.7,0,1,0C134.7,73.9,134.4,74.2,134.1,74.6z"/>
	<path class="st33" d="M149.1,44.6c0,0.3,0,0.7,0,1c-0.3-0.3-0.7-0.7-1-1C148.4,44.6,148.7,44.6,149.1,44.6z"/>
	<path class="st10" d="M140.1,75.6c0-0.3,0-0.7,0-1c0.3,0,0.7,0,1,0c0,0.3,0,0.7,0,1C140.7,75.6,140.4,75.6,140.1,75.6z"/>
	<path class="st9" d="M141.1,75.6c0-0.3,0-0.7,0-1c0.3,0,0.7,0,1,0c0,0.3,0,0.7,0,1C141.7,75.6,141.4,75.6,141.1,75.6z"/>
	<path class="st8" d="M144.1,63.6c-0.3,0.3-0.7,0.7-1,1c0-0.3,0-0.7,0-1C143.4,63.6,143.7,63.6,144.1,63.6z"/>
	<path class="st13" d="M95.1,64.6c0-0.3,0-0.7,0-1c0.3,0.3,0.7,0.7,1,1C95.7,64.6,95.4,64.6,95.1,64.6z"/>
	<path class="st10" d="M87.1,64.6c0-0.3,0-0.7,0-1c0.3,0.3,0.7,0.7,1,1C87.7,64.6,87.4,64.6,87.1,64.6z"/>
	<path class="st6" d="M56.1,65.6c-0.3-0.3-0.7-0.7-1-1C55.4,64.9,55.7,65.2,56.1,65.6z"/>
	<path class="st6" d="M54.1,64.6c0-0.3,0-0.7,0-1c0.3,0.3,0.7,0.7,1,1C54.7,64.6,54.4,64.6,54.1,64.6z"/>
	<path class="st34" d="M95.1,64.6c0.3,0,0.7,0,1,0c-0.2,0.3-0.4,0.6-0.7,0.8C95.3,65.1,95.2,64.9,95.1,64.6z"/>
	<path class="st18" d="M139.1,64.6c-0.3,0.3-0.7,0.7-1,1C138.4,65.2,138.7,64.9,139.1,64.6z"/>
	<path class="st6" d="M55.1,67.6c0.3-0.3,0.7-0.7,1-1C55.7,66.9,55.4,67.2,55.1,67.6z"/>
	<path class="st18" d="M141.1,67.6c-0.3-0.3-0.7-0.7-1-1C140.4,66.9,140.7,67.2,141.1,67.6z"/>
	<path class="st18" d="M138.1,67.6c0.3,0.3,0.7,0.7,1,1C138.7,68.2,138.4,67.9,138.1,67.6z"/>
	<path class="st17" d="M142.1,68.6c-0.3-0.3-0.7-0.7-1-1C141.4,67.9,141.7,68.2,142.1,68.6z"/>
	<path class="st18" d="M139.1,68.6c0.3,0.3,0.7,0.7,1,1C139.7,69.2,139.4,68.9,139.1,68.6z"/>
	<path class="st17" d="M144.1,69.6c-0.3-0.3-0.7-0.7-1-1C143.4,68.9,143.7,69.2,144.1,69.6z"/>
	<path class="st8" d="M44.1,61.6c0.3,0,0.7,0,1,0c0,0.3,0,0.7,0,1C44.7,62.2,44.4,61.9,44.1,61.6z"/>
	<path class="st23" d="M55.1,70.6c-0.3-0.3-0.7-0.7-1-1C54.4,69.9,54.7,70.2,55.1,70.6z"/>
	<path class="st17" d="M141.1,69.6c0.3,0.3,0.7,0.7,1,1C141.7,70.2,141.4,69.9,141.1,69.6z"/>
	<path class="st35" d="M175.1,61.6c0-0.3,0-0.7,0-1c0.3,0.2,0.6,0.4,0.8,0.7C175.6,61.4,175.3,61.5,175.1,61.6z"/>
	<path class="st8" d="M103.1,60.6c0,0.3,0,0.7,0,1c-0.3-0.3-0.7-0.7-1-1C102.4,60.6,102.7,60.6,103.1,60.6z"/>
	<path class="st23" d="M53.1,71.6c0.3,0.3,0.7,0.7,1,1C53.7,72.2,53.4,71.9,53.1,71.6z"/>
	<path class="st23" d="M56.1,72.6c-0.3-0.3-0.7-0.7-1-1C55.4,71.9,55.7,72.2,56.1,72.6z"/>
	<path class="st3" d="M43.1,60.6c0,0.3,0,0.7,0,1c-0.3,0-0.7,0-1,0c0-0.3,0-0.7,0-1C42.4,60.6,42.7,60.6,43.1,60.6z"/>
	<path class="st36" d="M42.1,60.6c0,0.3,0,0.7,0,1c-0.3,0-0.7,0-1,0C41.4,61.2,41.7,60.9,42.1,60.6z"/>
	<path class="st37" d="M39.1,61.6c0-0.3,0-0.7,0-1c0.3,0.3,0.7,0.7,1,1C39.7,61.6,39.4,61.6,39.1,61.6z"/>
	<path class="st38" d="M164.1,53.6c2.2,2.2,5.5,3,7,6c-0.9-0.2-1.7-0.5-2.6-0.7c0-0.1,0.1-0.3,0.1-0.4c-1.7,0-3.5,0-5.4,0
		C164.3,56.9,164,55.2,164.1,53.6z"/>
	<path class="st28" d="M172.1,60.6c0.2-0.3,0.4-0.6,0.7-0.8c0.1,0.3,0.2,0.6,0.3,0.8C172.7,60.6,172.4,60.6,172.1,60.6z"/>
	<path class="st39" d="M52.1,64.6c0.3,0,0.7,0,1,0c0.3,0.3,0.7,0.7,1,1c-0.2,2.2-0.8,2.8-3,3c0-1.3,0-2.7,0-4
		C51.4,64.6,51.7,64.6,52.1,64.6z"/>
	<path class="st12" d="M51.1,64.6c0,1.3,0,2.7,0,4C49.7,67.3,49.7,65.8,51.1,64.6z"/>
	<path class="st6" d="M54.1,65.6c-0.3-0.3-0.7-0.7-1-1c0.3,0,0.7,0,1,0C54.1,64.9,54.1,65.2,54.1,65.6z"/>
	<path class="st32" d="M114.1,73.6c-0.3,0.3-0.7,0.7-1,1C113.4,74.2,113.7,73.9,114.1,73.6z"/>
	<path class="st40" d="M73.1,64.6c1,0,2,0,3,0c0.3,0.8,0.5,1.9,1,2.5c1.9,1.9,0.7,3.7,0,5.5c-0.3,0.3-0.7,0.7-1,1c-1,0.3-2,0.7-3,1
		c-0.3,0-0.7,0-1,0c0-3.3,0-6.7,0-10C72.4,64.6,72.7,64.6,73.1,64.6z"/>
	<path class="st11" d="M72.1,64.6c0,3.3,0,6.7,0,10c-0.2,0-0.5,0-0.5,0c-0.9-3.3-0.9-6.7,0-10C71.6,64.5,71.9,64.6,72.1,64.6z"/>
	<path class="st5" d="M154.1,63.6c-0.3,0.3-0.7,0.7-1,1C153.4,64.2,153.7,63.9,154.1,63.6z"/>
	<path class="st5" d="M144.1,74.6c-0.3-0.3-0.7-0.7-1-1C143.4,73.9,143.7,74.2,144.1,74.6z"/>
</g>
</svg>
