<?xml version="1.0" encoding="utf-8"?>
<!-- Generator: Adobe Illustrator 25.1.0, SVG Export Plug-In . SVG Version: 6.00 Build 0)  -->
<svg version="1.1" id="Warstwa_1" xmlns="http://www.w3.org/2000/svg" xmlns:xlink="http://www.w3.org/1999/xlink" x="0px" y="0px"
	 viewBox="0 0 210 120" style="enable-background:new 0 0 210 120;" xml:space="preserve">
<style type="text/css">
	.st0{fill:#9F9F9F;}
</style>
<g>
	<path class="st0" d="M179.17,61.03l-14.02,13.19c-0.61,0.57-1.59,0.57-2.2,0l-14.02-13.19c-0.61-0.57-0.61-1.5,0-2.07l1.52-1.43
		l-0.02,0.01l2.01-1.89l-0.01,0.03l10.52-9.9c0.61-0.57,1.59-0.57,2.2,0l14.02,13.19C179.78,59.54,179.78,60.46,179.17,61.03
		 M179.67,58.47l-13.99-13.19c-0.43-0.41-1.01-0.63-1.62-0.63c-0.61,0-1.19,0.22-1.62,0.63l-13.99,13.19
		c-0.89,0.84-0.89,2.21,0,3.06l13.99,13.19c0.89,0.84,2.35,0.84,3.24,0l13.99-13.19c0.43-0.41,0.67-0.95,0.67-1.53
		C180.34,59.42,180.11,58.88,179.67,58.47z"/>
	<polyline class="st0" points="152.45,55.65 150.44,57.54 150.46,57.53 152.44,55.68 152.45,55.65 	"/>
	<path class="st0" d="M159.96,56.14c2.26-2.13,5.93-2.13,8.2,0c2.26,2.13,2.26,5.59,0,7.73c-2.27,2.13-5.94,2.13-8.2,0
		C157.69,61.73,157.69,58.27,159.96,56.14 M151.51,57.48l7.61,7.17c2.72,2.57,7.14,2.57,9.87,0c2.39-2.25,4.54-6.2,9.51-6.2
		l-8.81-4.85c0.91,1.3,1.44,3.14,1.2,5.08c-0.27-1.22-0.9-2.38-1.9-3.32c-2.73-2.57-7.15-2.57-9.87,0
		c-1.71,1.61-2.35,3.85-1.91,5.93l-4.78-4.5l-0.02-0.02c-0.3-0.29-0.03-0.94,0.03-1.08l-1.97,1.86
		C150.57,57.5,151.17,57.3,151.51,57.48z"/>
	<path class="st0" d="M33.22,63.6h3.54c2.96,0,3.95-2.84,3.95-5.55c0-4.89-2.45-5.28-4-5.28h-3.49V63.6 M29.66,49.91h7.68
		c5.86,0,7.07,4.75,7.07,7.88c0,3.55-1.48,8.67-7.22,8.67h-7.53V49.91z"/>
	<path class="st0" d="M55.08,59.11c-0.19-1.98-1.53-2.58-2.62-2.58c-1.6,0-2.45,0.97-2.64,2.58H55.08 M58.42,62.86
		c-0.9,2.95-3.46,3.92-5.67,3.92c-3.63,0-6.42-1.66-6.42-6.71c0-1.48,0.53-6.2,6.18-6.2c2.54,0,6.06,1.15,6.06,6.75v0.58h-8.84
		c0.1,0.92,0.29,3,3.03,3c0.94,0,1.91-0.46,2.18-1.34H58.42z"/>
	<path class="st0" d="M67.91,63.6h3.54c2.95,0,3.95-2.84,3.95-5.55c0-4.89-2.45-5.28-4-5.28h-3.49V63.6 M64.35,49.91h7.68
		c5.86,0,7.07,4.75,7.07,7.88c0,3.55-1.48,8.67-7.22,8.67h-7.53V49.91z"/>
	<path class="st0" d="M84.15,53.33h-3.39v-3h3.39V53.33z M84.15,66.46h-3.39V54.2h3.39V66.46z"/>
	<path class="st0" d="M94.18,59.11c-0.19-1.98-1.53-2.58-2.62-2.58c-1.6,0-2.45,0.97-2.64,2.58H94.18 M97.52,62.86
		c-0.9,2.95-3.46,3.92-5.67,3.92c-3.63,0-6.42-1.66-6.42-6.71c0-1.48,0.53-6.2,6.18-6.2c2.54,0,6.06,1.15,6.06,6.75v0.58h-8.84
		c0.1,0.92,0.29,3,3.03,3c0.94,0,1.91-0.46,2.18-1.34H97.52z"/>
	<path class="st0" d="M102.66,54.2h2.11v2.3h-2.11v6.66c0,0.72,0.02,0.99,1.41,0.99c0.22,0,0.46-0.02,0.7-0.05v2.44
		c-0.53,0.02-1.06,0.05-1.6,0.05h-0.44c-2.93,0-3.46-1.06-3.46-2.65V50.88h3.39V54.2"/>
	<path class="st0" d="M106.3,54.2h3.25v2.12h0.05c0.7-1.25,1.48-2.44,3.54-2.44c0.22,0,0.44,0.02,0.65,0.05v3.27
		c-0.29-0.05-0.65-0.05-0.97-0.05c-2.64,0-3.13,1.57-3.13,2.93v6.38h-3.39V54.2"/>
	<path class="st0" d="M118,53.33h-3.39v-3H118V53.33z M118,66.46h-3.39V54.2H118V66.46z"/>
	<path class="st0" d="M131.38,61.99c-0.12,1.27-1.16,4.79-5.89,4.79c-4.85,0-5.96-3.53-5.96-6.11c0-3.97,1.82-6.8,6.18-6.8
		c2.03,0,5.38,0.88,5.69,4.7h-3.44c-0.15-0.81-0.68-2.07-2.25-1.98c-2.13,0-2.69,2.03-2.69,3.55c0,1.34,0.05,3.99,2.62,3.99
		c1.72,0,2.3-1.57,2.3-2.14H131.38"/>
	<path class="st0" d="M144.38,66.46h-3.39v-7.44c0-0.9-0.05-2.42-2.2-2.42c-1.5,0-2.66,0.97-2.66,2.83v7.03h-3.39V49.91h3.39v5.88
		h0.05c0.43-1.01,1.89-1.91,3.73-1.91c2.52,0,4.48,1.41,4.48,4.1V66.46"/>
</g>
</svg>
