<?xml version="1.0" encoding="utf-8"?>
<!-- Generator: Adobe Illustrator 19.0.0, SVG Export Plug-In . SVG Version: 6.00 Build 0)  -->
<svg version="1.1" id="Warstwa_1" xmlns="http://www.w3.org/2000/svg" xmlns:xlink="http://www.w3.org/1999/xlink" x="0px" y="0px"
	 viewBox="0 0 210.1 120.1" style="enable-background:new 0 0 210.1 120.1;" xml:space="preserve">
<style type="text/css">
	.st0{fill:#FEFEFE;}
	.st1{fill:#9F9F9F;}
	.st2{fill:#A0A0A0;}
	.st3{fill:#FAFAFA;}
	.st4{fill:#F9F9F9;}
	.st5{fill:#F7F7F7;}
	.st6{fill:#F4F4F4;}
</style>
<g>
	<path class="st0" d="M-0.9,119.6c0-40,0-80,0-120c70,0,140,0,210,0c0,40,0,80,0,120C139.1,119.6,69.1,119.6-0.9,119.6z M117.3,54.4
		c3.8-2.1,7.6-1.8,11.3-1.8c1.6-1.9,3.7-0.8,5.6-0.9c1.9-0.1,3.5-1.4,5.6-1.1c3.2,0.4,6.3-1.6,9.6-0.9c2-1.6,4.6-0.3,6.5-1.1
		c2.4-1,4.7-0.6,7.1-1c0-3.7,0-7.2,0-10.9c-3.9,0.4-7.5,0.7-11.2,1c-1.6,1.9-3.7,0.7-5.6,1c-2,0.4-4,0.9-6.1,0.9
		c-3.4,0-6.8,0.8-10,1.3c-4.2,0.6-8.5,0.9-12.8,2.1C117.3,46.2,117.3,49.7,117.3,54.4z M62,80.1c1.9-3.4,1-7.1,1-10.6
		c0-3.7,1-7.5-1.2-10.6c-1.6-0.8-3-1.5-4.4-2.2c-4,0-8.1,0-12.4,0c0,8.5,0,16.8,0,25.1c0,0.1,0.1,0.3,0.2,0.4
		c0.1,0.1,0.2,0.2,0.4,0.3c4,0,8,0,11.6,0C58.9,81.7,60.3,81,62,80.1z M117.2,82.6c4.4,0,8.4,0,12.6,0c0.4-0.4,0.8-0.9,1.3-1.4
		c2.3-2,3.4-4.5,3.1-7.7c-0.2-1.8,0-3.6,0-5.5c-1.1-1.5-2.2-3.1-3.4-4.6c-2.6,0-5.1,0-7.6,0c0-2.6,0-5.1,0-7.6c-2.1,0-4,0-5.9,0
		C117.2,64.7,117.2,73.5,117.2,82.6z M98.1,77.8c2.7,6.7,8.1,4.2,12.8,4.9c1.5-2,3-3.9,4.2-5.5c0.3-4.6,0.6-8.8-3-12.9
		c-2.5-1.6-6.1-0.5-9.5-0.8c-1.7,1.3-3.2,2.4-4.5,3.4C98.1,70.8,98.1,74.3,98.1,77.8z M77.8,63.5c-3.9,0.4-7.6-0.8-10,1.1
		c-3.7,5-3.3,9.6-1.8,13.7c1.6,1.6,2.9,2.8,4.2,4.2c3,0,6.3,0,9.5,0c0.5-0.6,1-1.1,1.5-1.6c-0.6-1.1-1.1-2.2-1.8-3.5
		c-1.7,0.4-3.4,0.8-5.2,1.3c-1-0.5-2-1-2.9-1.4c0-1,0-1.7,0-2.7c3.3,0,6.4,0,9.7,0c0-2.3,0-4.4,0-6.5C80,66.5,79,65.1,77.8,63.5z
		 M151,65.9c-3.6-3.5-7.7-2-11.3-2.4c-3.4,3.5-3.5,3.8-3.5,8.1c0,2.2,0,4.3,0,6.5c1.3,4,4.4,4.7,8,4.5c1.9-0.1,3.9,0,5.4,0
		c2.1-1.5,1.7-3.2,1.4-5.2c-2.5,0.4-4.9,0.9-7.1,1.3c-1.6-1.2-2.3-2.4-1.2-4.2c3,0,6.1,0,9.8,0C151.9,71.5,151.4,68.8,151,65.9z
		 M96,63.6c-3.1,0-5.7,0-8.4,0c-3,0.4-3.7,3-4.1,5.2c-0.4,2.8-0.6,5.9,0.1,8.7c1,4.5,2.2,5.1,7.1,5.1c1.8,0,3.6,0,5.3,0
		c0-1.9,0-3.3,0-5.1c-2.4,0-4.6,0-6.7,0c0-3.1,0-5.9,0-8.5c1-0.5,1.9-0.9,2.6-1.3c1.4,0.4,2.7,0.7,4.2,1.1C96,66.8,96,65.4,96,63.6z
		 M154.1,58.7c0,7.4,0,14.4,0,21.4c0.8,0.8,1.6,1.6,2.4,2.3c2.1,0,4.2,0,6.3,0c0-1.7,0-3.3,0-5c-0.7,0.5-1.2,0.9-2.2,1.7
		c-0.4-0.9-0.7-1.7-1-2.5c-0.1,0.2-0.3,0.3-0.4,0.5c0-2.8,0-5.6,0-8.4c1.4-0.1,2.6-0.2,3.7-0.3c0-1.8,0-3.2,0-4.7
		c-1.4-0.1-2.6-0.3-4-0.4c0-1.7,0-3.2,0-4.7C157.3,58.7,155.9,58.7,154.1,58.7z"/>
	<path class="st1" d="M117.3,54.4c0-4.7,0-8.2,0-11.4c4.3-1.3,8.6-1.5,12.8-2.1c3.3-0.5,6.6-1.3,10-1.3c2,0,4.1-0.6,6.1-0.9
		c1.9-0.3,4,0.9,5.6-1c3.7-0.3,7.3-0.7,11.2-1c0,3.7,0,7.3,0,10.9c-2.4,0.4-4.8,0-7.1,1c-1.9,0.8-4.5-0.5-6.5,1.1
		c-3.3-0.7-6.4,1.3-9.6,0.9c-2.1-0.3-3.7,1-5.6,1.1c-1.9,0.1-4-1-5.6,0.9C124.8,52.5,121.1,52.3,117.3,54.4z"/>
	<path class="st1" d="M62,80.1c-1.7,0.9-3.1,1.6-4.8,2.4c-3.6,0-7.6,0-11.6,0c-0.1-0.1-0.3-0.2-0.4-0.3c-0.1-0.1-0.2-0.3-0.2-0.4
		c0-8.3,0-16.6,0-25.1c4.3,0,8.4,0,12.4,0c1.4,0.7,2.8,1.4,4.4,2.2c2.2,3.1,1.2,7,1.2,10.6C63,73.1,63.9,76.7,62,80.1z M50.2,76.1
		c2.3,2.9,4.6,1,6.9,0c0-4.4,0-8.8,0-13.2c-2-2.5-4.5-1-6.9-1.5C50.2,66.7,50.2,71.4,50.2,76.1z"/>
	<path class="st1" d="M117.2,82.6c0-9.1,0-17.9,0-26.8c1.9,0,3.8,0,5.9,0c0,2.6,0,5,0,7.6c2.6,0,5,0,7.6,0c1.1,1.6,2.3,3.1,3.4,4.6
		c0,1.8-0.1,3.7,0,5.5c0.3,3.2-0.8,5.6-3.1,7.7c-0.5,0.4-0.9,1-1.3,1.4C125.6,82.6,121.6,82.6,117.2,82.6z M123.2,77.4
		c1.5,0,2.6,0,3.6,0c0.5-0.5,0.9-0.9,1.2-1.2c0-2.4,0-4.8,0-7.4c-1.7,0-3.2,0-4.8,0C123.2,71.7,123.2,74.5,123.2,77.4z"/>
	<path class="st1" d="M98.1,77.8c0-3.5,0-7,0-10.9c1.3-1,2.8-2.1,4.5-3.4c3.4,0.3,7-0.8,9.5,0.8c3.5,4.1,3.2,8.3,3,12.9
		c-1.2,1.6-2.6,3.5-4.2,5.5C106.2,82,100.8,84.5,98.1,77.8z M106.6,78.4c0.8-0.4,1.6-0.8,2.4-1.3c0-2.7,0-5.5,0-8.2
		c-1.1-0.5-2.1-0.9-3.3-1.5c-0.8,0.9-1.6,1.9-2.4,2.9c0,1.9,0,4,0,6.2C104.5,77.2,105.6,77.8,106.6,78.4z"/>
	<path class="st1" d="M77.8,63.5c1.1,1.6,2.1,3,3.1,4.5c0,2.1,0,4.3,0,6.5c-3.2,0-6.3,0-9.7,0c0,0.9,0,1.7,0,2.7
		c0.8,0.4,1.9,1,2.9,1.4c1.9-0.5,3.5-0.9,5.2-1.3c0.7,1.3,1.2,2.4,1.8,3.5c-0.5,0.5-0.9,1-1.5,1.6c-3.2,0-6.5,0-9.5,0
		c-1.3-1.3-2.6-2.6-4.2-4.2c-1.5-4.1-1.8-8.7,1.8-13.7C70.2,62.6,73.9,63.9,77.8,63.5z M76.6,70.4c-1-2-1.7-3.2-3.5-2.8
		c-1.3,0.3-2.3,1-1.9,2.8C72.8,70.4,74.4,70.4,76.6,70.4z"/>
	<path class="st1" d="M151,65.9c0.4,2.8,0.9,5.6,1.4,8.6c-3.6,0-6.7,0-9.8,0c-1.1,1.8-0.4,2.9,1.2,4.2c2.2-0.4,4.6-0.8,7.1-1.3
		c0.3,2,0.7,3.6-1.4,5.2c-1.5,0-3.4-0.1-5.4,0c-3.6,0.2-6.7-0.5-8-4.5c0-2.2,0-4.3,0-6.5c0-4.3,0.1-4.6,3.5-8.1
		C143.3,63.9,147.4,62.4,151,65.9z M142.5,67.7c-0.4,1-0.8,1.9-1.3,3c1.8-0.1,3.4-0.2,4.7-0.2c0-1.1,0-1.9,0-2.7
		C144.7,67.7,143.6,67.7,142.5,67.7z"/>
	<path class="st2" d="M96,63.6c0,1.8,0,3.3,0,5.2c-1.5-0.4-2.8-0.8-4.2-1.1c-0.7,0.4-1.5,0.8-2.6,1.3c0,2.6,0,5.4,0,8.5
		c2.1,0,4.3,0,6.7,0c0,1.8,0,3.3,0,5.1c-1.7,0-3.5,0-5.3,0c-4.9,0-6.1-0.6-7.1-5.1c-0.6-2.8-0.5-5.8-0.1-8.7c0.3-2.2,1-4.8,4.1-5.2
		C90.3,63.6,92.9,63.6,96,63.6z"/>
	<path class="st1" d="M154.1,58.7c1.8,0,3.2,0,4.8,0c0,1.5,0,3,0,4.7c1.4,0.1,2.6,0.3,4,0.4c0,1.5,0,2.9,0,4.7
		c-1.1,0.1-2.4,0.2-3.7,0.3c0,2.9,0,5.7,0,8.4c0.1-0.2,0.3-0.3,0.4-0.5c0.3,0.8,0.7,1.6,1,2.5c1-0.8,1.5-1.1,2.2-1.7
		c0,1.7,0,3.3,0,5c-2.1,0-4.2,0-6.3,0c-0.8-0.8-1.6-1.6-2.4-2.3C154.1,73.1,154.1,66.1,154.1,58.7z"/>
	<path class="st3" d="M50.2,76.1c0-4.7,0-9.4,0-14.6c2.3,0.5,4.9-1,6.9,1.5c0,4.3,0,8.7,0,13.2C54.7,77.2,52.5,79,50.2,76.1z"/>
	<path class="st0" d="M123.2,77.4c0-3,0-5.7,0-8.7c1.6,0,3.2,0,4.8,0c0,2.6,0,5,0,7.4c-0.4,0.4-0.7,0.7-1.2,1.2
		C125.8,77.4,124.7,77.4,123.2,77.4z"/>
	<path class="st4" d="M106.6,78.4c-1-0.6-2-1.2-3.3-1.9c0-2.1,0-4.2,0-6.2c0.8-1,1.6-2,2.4-2.9c1.3,0.6,2.2,1,3.3,1.5
		c0,2.7,0,5.5,0,8.2C108.2,77.6,107.3,78,106.6,78.4z"/>
	<path class="st5" d="M76.6,70.4c-2.3,0-3.8,0-5.4,0c-0.4-1.8,0.5-2.5,1.9-2.8C74.9,67.2,75.6,68.4,76.6,70.4z"/>
	<path class="st6" d="M142.5,67.7c1.1,0,2.2,0,3.4,0c0,0.8,0,1.6,0,2.7c-1.4,0.1-2.9,0.1-4.7,0.2C141.7,69.5,142.1,68.6,142.5,67.7z
		"/>
</g>
</svg>
