<?xml version="1.0" encoding="utf-8"?>
<!-- Generator: Adobe Illustrator 25.1.0, SVG Export Plug-In . SVG Version: 6.00 Build 0)  -->
<svg version="1.1" id="Warstwa_1" xmlns="http://www.w3.org/2000/svg" xmlns:xlink="http://www.w3.org/1999/xlink" x="0px" y="0px"
	 viewBox="0 0 210 120" style="enable-background:new 0 0 210 120;" xml:space="preserve">
<style type="text/css">
	.st0{fill-rule:evenodd;clip-rule:evenodd;fill:#9F9F9F;}
</style>
<g>
	<polygon class="st0" points="75.57,39.36 81.87,39.36 81.87,59.71 75.57,59.71 75.57,39.36 	"/>
	<polygon class="st0" points="87.85,39.36 109.99,39.36 109.99,44.24 93.99,44.24 93.99,47.54 109.23,47.54 109.23,51.69 
		93.99,51.69 93.99,55.04 110.3,55.04 110.3,59.71 87.85,59.71 87.85,39.36 	"/>
	<polygon class="st0" points="146.23,39.36 152.52,39.36 152.52,54.7 166.56,54.7 166.56,59.71 146.23,59.71 146.23,39.36 	"/>
	<polygon class="st0" points="121.58,39.36 121.58,46.81 134.82,46.81 134.82,39.36 140.94,39.36 140.94,59.71 134.75,59.71 
		134.75,52.11 121.6,52.11 121.6,59.71 115.46,59.71 115.46,39.36 121.58,39.36 	"/>
	<path class="st0" d="M43.44,59.71h21.24c0.89,0,1.7-0.15,2.43-0.45c0.73-0.3,1.36-0.72,1.91-1.24c0.54-0.52,0.97-1.14,1.29-1.86
		c0.32-0.71,0.58-1.48,0.58-2.31v-8.33c0-0.95-0.15-1.81-0.46-2.57c-0.31-0.76-0.74-1.41-1.29-1.94c-0.55-0.53-1.21-0.94-1.97-1.22
		c-0.76-0.28-1.6-0.43-2.51-0.43l-21.21,0V59.71L43.44,59.71z M49.77,44.53h11.29c1.88,0,3.47,0.54,3.47,2.66v0.32v4.04
		c0,2.29-0.9,3.1-3.5,3.1H49.77V44.53L49.77,44.53z"/>
	<path class="st0" d="M53.61,80.17c-2.61,0.94-6.21,0.46-8.12-1.43c-1.27-1.25-1.91-2.89-1.91-4.92c0-2.19,0.72-3.95,2.15-5.3
		c2.12-1.99,5.26-2.29,7.91-1.23v1.83c-3.63-1.86-8.09,0.04-8.09,4.59c0,4.36,4.6,6.35,8.06,4.55V80.17L53.61,80.17z"/>
	<path class="st0" d="M60.43,71.73c-0.95,0-1.71,0.34-2.27,1.01c-0.56,0.67-0.84,1.6-0.84,2.79c0,1.14,0.28,2.04,0.85,2.7
		c0.56,0.66,1.32,0.99,2.26,0.99c0.96,0,1.71-0.32,2.22-0.97c0.52-0.65,0.78-1.56,0.78-2.76c0-1.2-0.26-2.13-0.78-2.78
		C62.14,72.06,61.4,71.73,60.43,71.73L60.43,71.73z M56.84,71.74c1.88-1.89,5.37-1.88,7.2,0.08c1.79,1.92,1.77,5.5-0.05,7.4
		c-0.91,0.94-2.12,1.41-3.65,1.41c-2.73,0-4.88-2.28-4.88-5.03C55.45,73.95,55.92,72.67,56.84,71.74L56.84,71.74z"/>
	<path class="st0" d="M99.59,71.73c-0.96,0-1.71,0.34-2.27,1.01c-0.56,0.67-0.84,1.6-0.84,2.79c0,1.14,0.28,2.04,0.85,2.7
		c0.56,0.66,1.32,0.99,2.26,0.99c0.96,0,1.71-0.32,2.22-0.97c0.52-0.65,0.78-1.56,0.78-2.76c0-1.2-0.26-2.13-0.78-2.78
		C101.29,72.06,100.55,71.73,99.59,71.73L99.59,71.73z M95.99,71.74c1.88-1.89,5.37-1.88,7.2,0.08c1.79,1.92,1.77,5.5-0.05,7.4
		c-0.91,0.94-2.12,1.41-3.65,1.41c-2.73,0-4.88-2.28-4.88-5.03C94.61,73.95,95.07,72.67,95.99,71.74L95.99,71.74z"/>
	<path class="st0" d="M76.6,80.21h-1.73v-5.67c0-2.11-0.73-3.02-2.34-3.02c-0.83,0-1.18,0.24-1.72,0.83
		c-0.97,1.06-1.06,1.88-1.06,3.23v4.63h-1.78v-9.94h1.78v1.65h0.04c0.78-1.26,1.81-1.88,3.3-1.88c1.14,0,2.01,0.35,2.61,1.05
		c0.6,0.7,0.91,1.72,0.91,3.04V80.21L76.6,80.21z"/>
	<path class="st0" d="M85.24,80.11c-0.41,0.2-0.96,0.3-1.63,0.3c-1.91,0-2.87-0.96-2.87-2.88v-5.82h-2.11v-1.4h2.11v-2.34l1.75-0.51
		v2.85h2.64v1.4h-2.64v5.54c0,0.66,0.12,1.01,0.37,1.29c0.25,0.28,0.66,0.42,1.23,0.42c0.44,0,0.82-0.11,1.14-0.32V80.11
		L85.24,80.11z"/>
	<path class="st0" d="M93.01,71.89c-1.39-0.64-2.38,0.17-2.96,0.94c-0.7,0.92-0.68,2.07-0.76,3.17v4.21h-1.7v-9.92h1.65v1.58h0.04
		c0.16-0.22,0.26-0.41,0.4-0.59c0.6-0.78,1.47-1.16,2.44-1.16c0.44,0,0.66,0.05,0.9,0.14V71.89L93.01,71.89z"/>
	<path class="st0" d="M111.9,80.03v-1.64c0.8,0.63,1.6,0.82,2.56,0.82c0.62,0,1.25-0.28,1.53-0.88c0.56-1.22-0.93-1.94-1.81-2.31
		c-0.41-0.17-0.62-0.35-0.93-0.53c-0.3-0.17-0.56-0.37-0.77-0.59c-0.2-0.22-0.36-0.47-0.46-0.76c-0.1-0.28-0.16-0.61-0.16-0.99
		c0-0.46,0.1-0.87,0.29-1.23c0.2-0.35,0.46-0.65,0.79-0.89c0.33-0.24,0.7-0.42,1.12-0.55c0.42-0.12,0.85-0.18,1.3-0.18
		c0.79,0,1.39,0.15,2.01,0.44v1.6c-0.71-0.43-1.01-0.63-1.88-0.63c-0.27,0-0.56,0.01-0.78,0.08c-0.22,0.07-0.41,0.16-0.57,0.28
		c-0.16,0.12-0.28,0.21-0.37,0.38c-0.09,0.17-0.13,0.36-0.13,0.57c0,0.26,0.04,0.47,0.13,0.64c0.09,0.17,0.21,0.33,0.38,0.46
		c0.17,0.13,0.37,0.26,0.61,0.36c0.24,0.11,0.51,0.23,0.81,0.35c0.4,0.17,0.77,0.34,1.09,0.52c1.19,0.65,1.57,2.52,0.94,3.66
		c-0.42,0.75-1.14,1.2-1.95,1.43c-0.44,0.11-0.89,0.17-1.37,0.17C113.35,80.61,112.59,80.42,111.9,80.03L111.9,80.03z"/>
	<polygon class="st0" points="107.41,65.65 109.23,65.65 109.23,80.2 107.41,80.2 107.41,65.65 	"/>
</g>
</svg>
