<?xml version="1.0" encoding="utf-8"?>
<!-- Generator: Adobe Illustrator 19.0.0, SVG Export Plug-In . SVG Version: 6.00 Build 0)  -->
<svg version="1.1" id="Warstwa_1" xmlns="http://www.w3.org/2000/svg" xmlns:xlink="http://www.w3.org/1999/xlink" x="0px" y="0px"
	 viewBox="0 0 210.1 120.1" style="enable-background:new 0 0 210.1 120.1;" xml:space="preserve">
<style type="text/css">
	.st0{fill:#FEFEFE;}
	.st1{fill:#A0A0A0;}
	.st2{fill:#A2A2A2;}
	.st3{fill:#A3A3A3;}
	.st4{fill:#A7A7A7;}
	.st5{fill:#E1E1E1;}
	.st6{fill:#A8A8A8;}
	.st7{fill:#9F9F9F;}
	.st8{fill:#B2B2B2;}
	.st9{fill:#ABABAB;}
	.st10{fill:#FDFDFD;}
	.st11{fill:#FCFCFC;}
	.st12{fill:#F3F3F3;}
	.st13{fill:#F1F1F1;}
</style>
<g>
	<path class="st0" d="M104.1,119.6c-34.3,0-68.7,0-103,0.1c-1.7,0-2.1-0.3-2.1-2.1c0.1-39,0.1-78,0-117c0-1.7,0.3-2.1,2.1-2.1
		c68.7,0.1,137.3,0.1,206,0c1.7,0,2.1,0.3,2.1,2.1c-0.1,39-0.1,78,0,117c0,1.7-0.3,2.1-2.1,2.1C172.7,119.5,138.4,119.6,104.1,119.6
		z M170.1,56.6c0.3-0.7,0.7-1.3,1-2c0.2-1.8,0.2-1.9,1.1-1.4c0.8,0.4,1.6,1,2.4,1.4c0.4,0.1,0.9-0.1,1.3-0.2
		c-0.1-0.2-0.2-0.5-0.3-0.7c-3-3.1-6.1-6.2-9.2-9.2c-1.3-1.3-3.3-1.1-4.7,0.1c-0.6,0.6-1.2,1.2-1.8,1.8c-1.6,1.6-3.2,3.5-5,4.9
		c-1.9,1.4-2.6,3.8-4.8,5c-1.5,0.8-1.5,3.3-0.2,4.7c4,4,8,8,12,12c1.1,1.1,3.3,1.1,4.4,0c4.5-4.4,9-8.9,13.4-13.4
		c0.3-0.3,0.3-1.2,0.1-1.6c-0.4-0.7-1.1-1.2-1.7-1.8c-0.1-0.1-0.9,0.2-0.9,0.2c0.3,1.9-1.6,1.5-2.3,1.9c-1.6,0.9-3,1.7-3.8,3.4
		c-0.3-0.3-0.7-0.7-1-1C170.1,59.2,170.1,57.9,170.1,56.6z M85.1,57.6c-0.3,0.3-0.7,0.5-1,0.8c0.3,0.4,0.7,0.8,1,1.2
		c0.3,1.4-0.7,3.1,0.7,4.2c1.5,1.2,3.1,1.9,5.2,1.9c1.8,0,3.2-0.2,4.3-1.7c0.5-0.7,1-1.4,1.5-2.1c-1-0.1-1.9-0.3-2.9-0.2
		c-0.9,0.1-1.7,0.7-2.6,0.9c-1.2,0.3-2.3-0.1-2.9-1.2c-0.2-0.4-0.3-0.9-0.2-1.3c0-0.2,0.5-0.4,0.8-0.4c2.3,0,4.6,0,7-0.1
		c0.4,0,1.1-0.7,1.1-1.1c0.1-1.3,0-2.4-1-3.6c-1.7-2-3.6-2.5-6-2.4C86.5,52.7,85.3,53.8,85.1,57.6z M28.1,56.4c0,0.8,0,1.7,0,2.5
		c0.1,2.1,0.1,4.3,0.2,6.4c2.1,0.1,4.2,0.3,6.3,0.3c4.8,0,6.1-1.1,7.9-5.8c1.1-3,1.2-6.1-0.5-8.7c-3.2-4.8-8.3-3.3-12.9-3.5
		c-1.9,2.1-0.5,4.6-0.9,6.8C28,55,28.1,55.7,28.1,56.4z M63.1,56.4c0,1,0,2,0,3c0,2,0.1,3.9,0.2,5.9c2.1,0.1,4.2,0.3,6.3,0.3
		c1.2,0,2.4-0.1,3.7-0.5c5.8-2,5.9-11.2,3-14.7c-1.2-1.4-2.8-2.4-4.4-2.6c-2.8-0.4-5.6-0.1-8.4-0.1c-0.2,2.3-0.3,4.5-0.4,6.8
		C63,55,63.1,55.7,63.1,56.4z M132.1,56.3c0,2.7,0,5.3,0,8c0,1.2,0.6,1.3,1.5,1.3c2.4,0.1,2.5,0.1,2.5-2.3c0-1.8-0.1-3.7,0-5.5
		c0.1-1.4,1.3-2.4,2.6-2.2c1.4,0.2,2.4,0.9,2.4,2.5c0,2.2-0.1,4.3,0.1,6.5c0,0.4,0.7,0.9,1.2,1c0.7,0.1,1.7,0.3,1.7-1
		c0-2.8,0-5.6,0-8.5c0-2.8-0.6-3.5-3.4-3.4c-1.4,0-3-0.7-4.1,0.9c-0.2-1.6-0.5-3.1-0.5-4.7c0-1.2-0.6-1.3-1.5-1.3
		c-2.4-0.1-2.5-0.1-2.5,2.3C132,52,132.1,54.1,132.1,56.3z M51.3,52.6c-1,0-2-0.1-3,0c-0.4,0-0.9,0.3-1.3,0.5
		c-1.9,1.5-2.8,7.6-1.5,9.4c2.3,3.2,5.5,4,9.3,2c0.7-0.4,1.3-0.8,2-1.3c0.2-0.2,0.3-0.7,0.2-0.9c-0.2-0.3-0.6-0.8-0.9-0.8
		c-1,0-1.9,0.1-2.9,0.3c-0.9,0.2-1.8,0.5-2.7,0.7c-1,0.2-1.5-0.1-1.5-1.3c0-1.2,0.2-1.9,1.6-1.7c1.3,0.1,2.7,0,4,0
		c2.4,0,2.9-0.6,2.4-2.8C56.4,53.5,55.1,52.6,51.3,52.6z M123.1,58.8c0-0.3,0-0.7,0-1c0-2.1,1.1-2.9,3.1-2.2
		c0.9,0.3,1.4,1.3,2.3,1.7c0.7,0.3,1.5,0.1,2.3,0.1c0-0.9,0.3-2.1-0.1-2.7c-0.9-1.3-2-2.7-4.1-2.2c-1.5,0.4-3.2-0.6-4.7,0.7
		c-2.9,2.5-4.6,8.4-0.3,11.4c1.9,1.3,7,1.3,8.5-0.6c0.6-0.8,0.7-2,1-3c-1.2-0.1-2.5-0.2-3.7-0.2c-0.1,0-0.2,0.5-0.3,0.9
		c-0.2,1.3-1.3,1-1.9,0.8c-0.8-0.3-1.6-1-2.1-1.8C122.8,60.3,123.1,59.4,123.1,58.8z M102.3,65.6c0.3-0.1,1.5-0.3,1.6-0.7
		c0.1-0.8,0.8-2-0.8-2.4c-0.4-0.1-1-0.7-1-1.2c-0.1-1.8-0.3-3.7,0-5.5c0.2-0.9,1.9-1.9,1.8-2.5c-0.3-1.1-2.3-1.1-1.9-3.1
		c0.3-1.6-1.5-2.3-2.8-1.2c-0.8,0.6-1.1,1.4-1.1,2.5c0.1,3.3,0,6.6,0,10C98.1,63.7,99.8,65.4,102.3,65.6z M118.1,59
		c0-1.7-0.1-3.3,0-5c0.1-1.5-0.7-1.6-1.8-1.5c-1.1,0.1-2.3-0.5-2.3,1.6c0.1,3.3,0.1,6.6,0,9.9c0,1,0.1,1.5,1.3,1.5
		c2.6,0.1,2.7,0.1,2.7-2.6C118.1,61.7,118.1,60.4,118.1,59z M106.1,59.1c0,1.8-0.1,3.7,0.1,5.5c0,0.3,0.8,0.8,1.3,0.9
		c0.8,0.2,1.7,0.2,1.7-1.1c0-1.7,0-3.3,0-5c0-2.8,0-2.9,3-3.8c1.3-0.4,0.9-1.1,1-1.9c0.1-1.2-0.7-1.3-1.6-1.2
		c-0.8,0.1-1.6,0.5-2.4,0.5c-0.8,0-1.6-0.6-2.3-0.4c-1.4,0.3-0.6,1.6-0.7,2.5C106,56.4,106.1,57.8,106.1,59.1z M83.1,59
		c0-1.8,0.1-3.7-0.1-5.5c0-0.4-0.8-0.9-1.2-1c-0.7-0.1-1.7-0.3-1.7,1c0,3.6,0,7.3,0.1,10.9c0,0.3,0.8,0.9,1.2,1
		c0.7,0.1,1.7,0.3,1.7-1C83,62.7,83.1,60.9,83.1,59z M116.1,51.6c1.2,0.2,2.1,0,2-1.7c-0.1-1.7-1.1-1.2-2-1.3
		c-1.3-0.1-2.1,0-2.1,1.7C114.1,52,115.1,51.5,116.1,51.6z M82.3,48.6c-1.6-0.2-2.4,0-2.3,1.5c0.1,0.9,0.2,1.5,1.3,1.5
		c1.1,0,2-0.1,1.7-1.5C82.9,49.4,82.5,48.9,82.3,48.6z"/>
	<path class="st1" d="M171.1,61.6c0.8-1.7,2.2-2.5,3.8-3.4c0.7-0.4,2.6,0,2.3-1.9c0,0,0.7-0.3,0.9-0.2c0.6,0.5,1.3,1.1,1.7,1.8
		c0.2,0.4,0.2,1.3-0.1,1.6c-4.4,4.5-8.9,9-13.4,13.4c-1.1,1.1-3.3,1.1-4.4,0c-4-4-8-8-12-12c-1.3-1.3-1.3-3.8,0.2-4.7
		c2.2-1.2,2.9-3.6,4.8-5c1.8-1.4,3.3-3.2,5-4.9c0.6-0.6,1.2-1.2,1.8-1.8c1.4-1.3,3.4-1.4,4.7-0.1c3.1,3,6.1,6.1,9.2,9.2
		c0.2,0.2,0.2,0.5,0.3,0.7c-0.5,0.1-1,0.4-1.3,0.2c-0.9-0.3-1.6-0.9-2.4-1.4c-0.8-0.4-0.9-0.4-1.1,1.4c-1.3-0.8-2.6-1.7-4-2.4
		c-2-1-4.2-1.2-5.9,0c-2,1.4-3.9,3.3-4.1,6.2c0,0.4-0.6,0.9-1.2,1.3c-0.1,0,0.1,0,0.2,0c-0.1-0.3-0.1-0.5-0.3-0.8
		c0-0.1-0.4,0.1-0.6,0.2c0.2,0.2,0.3,0.4,0.7,0.6c1.4,1.3,2.6,2.6,3.7,4c1.3,1.8,3,2.1,5.1,2C167.5,65.4,169.7,64.1,171.1,61.6z"/>
	<path class="st2" d="M28.1,56.4c0-0.7-0.1-1.3,0-2c0.4-2.3-1-4.8,0.9-6.8c4.6,0.2,9.8-1.3,12.9,3.5c1.7,2.6,1.7,5.7,0.5,8.7
		c-1.8,4.7-3.1,5.8-7.9,5.8c-2.1,0-4.2-0.2-6.3-0.3c-0.1-2.1-0.1-4.3-0.2-6.4C28,58,28.1,57.2,28.1,56.4z M32.1,56
		c0,1.8,0,3.7,0,5.5c0,0.3,0.4,0.9,0.8,1c3.3,0.8,5.7-0.8,6.2-4.2c0.1-1-0.1-2,0-3c0.4-2.5-1-3.4-3-4.2c-3.2-1.3-4-0.8-4.1,2.5
		C32,54.4,32.1,55.2,32.1,56z"/>
	<path class="st2" d="M63.1,56.4c0-0.7,0-1.3,0-2c0.1-2.3,0.3-4.5,0.4-6.8c2.8,0,5.7-0.3,8.4,0.1c1.6,0.2,3.2,1.2,4.4,2.6
		c2.9,3.5,2.8,12.7-3,14.7c-1.3,0.4-2.5,0.5-3.7,0.5c-2.1,0-4.2-0.2-6.3-0.3c-0.1-2-0.1-3.9-0.2-5.9C63,58.3,63.1,57.3,63.1,56.4z
		 M67.1,56.3c0,1.7,0,3.3,0,5c0,0.4,0.3,1,0.6,1.2c2.8,1.2,6.3-1,6.4-4c0.1-1.5,0.1-3,0-4.5c-0.2-2.3-2.3-3.6-5.5-3.5
		c-2.9,0.1-1,2.2-1.4,3.3C66.8,54.6,67.1,55.5,67.1,56.3z"/>
	<path class="st3" d="M132.1,56.3c0-2.2,0-4.3,0-6.5c0-2.4,0-2.4,2.5-2.3c1,0,1.5,0.2,1.5,1.3c0.1,1.6,0.3,3.1,0.5,4.7
		c1.1-1.6,2.7-0.9,4.1-0.9c2.8,0,3.3,0.6,3.4,3.4c0,2.8,0,5.6,0,8.5c0,1.3-1,1.1-1.7,1c-0.5-0.1-1.2-0.6-1.2-1
		c-0.1-2.2-0.1-4.3-0.1-6.5c0-1.6-1-2.3-2.4-2.5c-1.3-0.2-2.5,0.8-2.6,2.2c-0.1,1.8,0,3.7,0,5.5c0,2.4,0,2.4-2.5,2.3
		c-1,0-1.6-0.1-1.5-1.3C132.1,61.6,132.1,59,132.1,56.3z"/>
	<path class="st1" d="M51.3,52.6c3.8,0,5.2,1,5.8,4.2c0.4,2.3,0,2.8-2.4,2.8c-1.3,0-2.7,0.1-4,0c-1.4-0.1-1.6,0.5-1.6,1.7
		c0,1.1,0.5,1.5,1.5,1.3c0.9-0.2,1.8-0.5,2.7-0.7c0.9-0.2,1.9-0.3,2.9-0.3c0.3,0,0.7,0.5,0.9,0.8c0.1,0.2,0,0.7-0.2,0.9
		c-0.6,0.5-1.3,0.9-2,1.3c-3.8,2-7,1.2-9.3-2c-1.3-1.9-0.4-8,1.5-9.4c0.3-0.3,0.8-0.5,1.3-0.5C49.3,52.5,50.3,52.6,51.3,52.6z
		 M51.6,57.6c0.3,0,0.7,0,1,0c0.4-0.1,0.9-0.2,1.3-0.3c-0.2-0.3-0.4-0.7-0.7-1c-0.4-0.5-0.8-1.1-1.4-1.3c-0.4-0.2-1.3-0.2-1.6,0.1
		c-0.5,0.5-0.8,1.3-1.1,1.9c0.5,0.2,1.1,0.5,1.6,0.6C50.9,57.6,51.3,57.6,51.6,57.6z"/>
	<path class="st1" d="M85.1,57.6c0.3-3.8,1.4-4.8,4.9-5c2.5-0.1,4.4,0.4,6,2.4c1,1.2,1.1,2.3,1,3.6c0,0.4-0.7,1-1.1,1.1
		c-2.3,0.1-4.6,0-7,0.1c-0.3,0-0.8,0.2-0.8,0.4c-0.1,0.4,0,1,0.2,1.3c0.7,1.1,1.7,1.5,2.9,1.2c0.9-0.2,1.7-0.8,2.6-0.9
		c0.9-0.1,1.9,0.1,2.9,0.2c-0.5,0.7-1,1.4-1.5,2.1c-1.1,1.5-2.5,1.7-4.3,1.7c-2.1,0-3.7-0.7-5.2-1.9c-1.4-1.1-0.4-2.8-0.7-4.2
		C85.1,58.9,85.1,58.2,85.1,57.6z M90.3,57.6c0.6,0,1.3,0.1,1.9,0c0.3-0.1,0.8-0.9,0.7-0.9c-0.7-0.7-1.8-2.1-2.1-1.9
		c-1.1,0.5-1.9,1.6-2.8,2.4c0.3,0.1,0.5,0.4,0.8,0.4C89.4,57.6,89.9,57.6,90.3,57.6z"/>
	<path class="st1" d="M170.1,56.6c0,1.3,0,2.7,0,4c-0.3,0.3-0.8,0.5-1,0.8c-1.3,2-3.8,3.5-5.2,3.2c-2.9-0.7-4.8-3.2-4.8-6.2
		c0-2.7,2.1-5.1,4.8-5.8c1.5-0.3,4,1.2,5.2,3.2C169.3,56.1,169.7,56.3,170.1,56.6z"/>
	<path class="st3" d="M123.1,58.8c0,0.7-0.2,1.5,0.1,2c0.5,0.7,1.2,1.4,2.1,1.8c0.6,0.2,1.7,0.5,1.9-0.8c0-0.3,0.2-0.9,0.3-0.9
		c1.2,0,2.5,0.1,3.7,0.2c-0.3,1-0.4,2.2-1,3c-1.4,1.9-6.5,1.9-8.5,0.6c-4.3-3-2.6-8.9,0.3-11.4c1.5-1.3,3.2-0.3,4.7-0.7
		c2-0.5,3.1,0.9,4.1,2.2c0.4,0.6,0.1,1.8,0.1,2.7c-0.8,0-1.7,0.2-2.3-0.1c-0.9-0.4-1.4-1.4-2.3-1.7c-2-0.7-3,0.1-3.1,2.2
		C123,58.1,123.1,58.4,123.1,58.8z"/>
	<path class="st4" d="M102.3,65.6c-2.6-0.2-4.3-1.9-4.3-4.1c-0.1-3.3,0.1-6.6,0-10c0-1.1,0.3-1.9,1.1-2.5c1.4-1,3.1-0.4,2.8,1.2
		c-0.4,2,1.6,2.1,1.9,3.1c0.2,0.6-1.6,1.6-1.8,2.5c-0.3,1.8-0.2,3.6,0,5.5c0,0.4,0.6,1.1,1,1.2c1.6,0.4,0.9,1.6,0.8,2.4
		C103.9,65.3,102.7,65.5,102.3,65.6z"/>
	<path class="st5" d="M170.1,56.6c-0.3-0.3-0.8-0.5-1-0.8c-1.3-2-3.8-3.5-5.2-3.2c-2.7,0.6-4.7,3.1-4.8,5.8c0,3,1.9,5.6,4.8,6.2
		c1.5,0.3,4-1.2,5.2-3.2c0.2-0.3,0.6-0.5,1-0.8c0.3,0.3,0.7,0.7,1,1c-1.4,2.6-3.5,3.9-6.4,4c-2.1,0.1-3.8-0.2-5.1-2
		c-1-1.4-2.3-2.7-3.5-4c0.3-0.4,0.9-0.8,1-1.3c0.2-2.9,2.1-4.7,4.1-6.2c1.7-1.2,4-1,5.9,0c1.4,0.7,2.6,1.6,4,2.4
		C170.7,55.2,170.4,55.9,170.1,56.6z"/>
	<path class="st6" d="M118.1,59c0,1.3,0,2.7,0,4c0,2.7-0.1,2.7-2.7,2.6c-1.1-0.1-1.3-0.6-1.3-1.5c0-3.3,0.1-6.6,0-9.9
		c-0.1-2,1.2-1.5,2.3-1.6c1.1-0.1,1.9,0,1.8,1.5C117.9,55.7,118.1,57.4,118.1,59z"/>
	<path class="st7" d="M106.1,59.1c0-1.3-0.1-2.7,0-4c0.1-0.9-0.7-2.2,0.7-2.5c0.7-0.2,1.5,0.4,2.3,0.4c0.8,0,1.6-0.4,2.4-0.5
		c0.9-0.1,1.7,0,1.6,1.2c-0.1,0.7,0.3,1.5-1,1.9c-3,0.9-3,1-3,3.8c0,1.7,0,3.3,0,5c0,1.3-0.9,1.2-1.7,1.1c-0.5-0.1-1.3-0.6-1.3-0.9
		C106,62.8,106.1,60.9,106.1,59.1z"/>
	<path class="st8" d="M83.1,59c0,1.8,0,3.6,0,5.5c0,1.3-1,1.1-1.7,1c-0.5-0.1-1.2-0.6-1.2-1c-0.1-3.6-0.1-7.3-0.1-10.9
		c0-1.3,1-1.1,1.7-1c0.5,0.1,1.2,0.6,1.2,1C83.1,55.4,83.1,57.2,83.1,59z"/>
	<path class="st9" d="M116.1,51.6c-1-0.1-2,0.4-2.1-1.3c-0.1-1.7,0.8-1.9,2.1-1.7c0.9,0.1,2-0.4,2,1.3
		C118.2,51.5,117.3,51.7,116.1,51.6z"/>
	<path class="st1" d="M82.3,48.6c0.2,0.3,0.6,0.8,0.7,1.4c0.3,1.4-0.6,1.5-1.7,1.5c-1.1,0-1.2-0.6-1.3-1.5
		C79.9,48.6,80.7,48.4,82.3,48.6z"/>
	<path class="st8" d="M85.1,57.6c0,0.7,0,1.3,0,2c-0.3-0.4-0.7-0.8-1-1.2C84.4,58.1,84.7,57.8,85.1,57.6z"/>
	<path class="st5" d="M155.6,59.6c-0.2-0.2-0.3-0.4-0.5-0.6c0.2-0.1,0.6-0.2,0.6-0.2c0.2,0.2,0.2,0.5,0.3,0.8
		C155.9,59.6,155.8,59.6,155.6,59.6z"/>
	<path class="st10" d="M32.1,56c0-0.8,0-1.7,0-2.5c0-3.3,0.9-3.8,4.1-2.5c2,0.8,3.4,1.8,3,4.2c-0.2,1,0.1,2,0,3
		c-0.5,3.4-2.9,5-6.2,4.2c-0.3-0.1-0.7-0.6-0.8-1C32,59.7,32.1,57.9,32.1,56z"/>
	<path class="st11" d="M67.1,56.3c0-0.8-0.2-1.8,0.1-2.5c0.5-1.1-1.5-3.3,1.4-3.3c3.2-0.1,5.3,1.2,5.5,3.5c0.1,1.5,0.1,3,0,4.5
		c-0.1,3-3.6,5.2-6.4,4c-0.3-0.1-0.6-0.8-0.6-1.2C67,59.7,67.1,58,67.1,56.3z"/>
	<path class="st12" d="M51.6,57.6c-0.3,0-0.7,0.1-1,0c-0.5-0.2-1.1-0.4-1.6-0.6c0.4-0.7,0.6-1.4,1.1-1.9c0.3-0.3,1.2-0.3,1.6-0.1
		c0.6,0.2,1,0.8,1.4,1.3c0.3,0.3,0.5,0.7,0.7,1c-0.4,0.1-0.9,0.3-1.3,0.3C52.3,57.6,51.9,57.6,51.6,57.6z"/>
	<path class="st13" d="M90.3,57.6c-0.5,0-1,0.1-1.4,0c-0.3,0-0.5-0.3-0.8-0.4c0.9-0.9,1.7-2,2.8-2.4c0.4-0.2,1.4,1.2,2.1,1.9
		c0,0-0.4,0.8-0.7,0.9C91.7,57.7,91,57.6,90.3,57.6z"/>
</g>
</svg>
