<?xml version="1.0" encoding="utf-8"?>
<!-- Generator: Adobe Illustrator 25.1.0, SVG Export Plug-In . SVG Version: 6.00 Build 0)  -->
<svg version="1.1" id="Warstwa_1" xmlns="http://www.w3.org/2000/svg" xmlns:xlink="http://www.w3.org/1999/xlink" x="0px" y="0px"
	 viewBox="0 0 210 120" style="enable-background:new 0 0 210 120;" xml:space="preserve">
<style type="text/css">
	.st0{fill:#9F9F9F;}
</style>
<g>
	<path class="st0" d="M161.56,45.52c3.58-0.38,6.48,0.15,8.04,1.71c3.66,3.66-1.39,11.57-11.27,17.68c-8.17,5.05-17.09,7.29-22,5.85
		c4.54,0.16,11.06-1.85,17.12-5.59c8.82-5.46,13.33-12.52,10.06-15.78c-1.88-1.88-5.93-2.08-10.72-0.88l0.69,0.92
		c2.5-0.27,4.52,0.11,5.61,1.19c2.55,2.55-0.97,8.07-7.87,12.33c-6.83,4.22-14.41,5.62-17.02,3.16c2.84,0.84,8.01-0.45,12.74-3.38
		c5.73-3.54,8.65-8.12,6.53-10.24c-1.22-1.22-3.85-1.35-6.95-0.57l0.46,0.6c1.62-0.17,2.93,0.07,3.64,0.77
		c1.65,1.65-0.63,5.23-5.1,8c-4.47,2.76-9.44,3.67-11.09,2.01c-0.3-0.3,0.56-2.82,1.29-3.72l-0.57-1.34
		c-0.68,0.66-1.26,1.33-1.73,1.97c-0.13,0.16-0.26,0.31-0.38,0.47c-4.45,5.22-5.82,10.2-2.92,13.09
		c10.63,10.57,35.98-5.07,40.05-9.24c1.34-1.37-6.86,9.09-6.86,9.09c24.29-15.47,16.25-30.48,3.3-30.49c-1.94,0-3.99,0.34-6.06,1.06
		L161.56,45.52z"/>
	<path class="st0" d="M134.22,57.24v-2.67c3.65-0.01,5.93-1.87,5.93-4.65c0-2.73-2.31-4.63-5.93-4.63v-2.67c2.77,0,5.26,0.86,7,2.29
		l0,0c1.57,1.3,2.39,3.01,2.39,5.01c0,2.02-0.82,3.76-2.39,5.05C139.49,56.4,137.04,57.24,134.22,57.24z M134.22,42.62v2.67h0
		c-3.6,0-5.93,1.91-5.93,4.63c0,2.78,2.27,4.65,5.91,4.65l0,0l0.02,0v2.67l-0.02,0c-2.8,0-5.28-0.84-7-2.27
		c-0.98-0.81-1.66-1.8-2.03-2.91v-4.24c0.38-1.12,1.07-2.1,2.05-2.92C128.98,43.46,131.48,42.62,134.22,42.62L134.22,42.62
		L134.22,42.62z M125.18,56.84h0.33l-0.33-0.34V56.84z M125.18,47.82v4.24c-0.22-0.67-0.33-1.38-0.33-2.14
		C124.84,49.18,124.95,48.48,125.18,47.82L125.18,47.82z M125.18,56.51l-8-8.06l7.65-5.41l0,0h-4.61l-9.1,6.43v-6.43h-3.36v13.81
		h3.36V52.7l3.53-2.48l6.46,6.62h4.07V56.51L125.18,56.51z M96.95,53.9v-2.65h3.03l-3.03-5.66l0,0v-2.52h2.1l7.32,13.81h-3.39
		l-1.58-2.97H96.95z M82.93,52.89h-0.08l-9.36-9.88h-3.91v13.8h3.36v-9.86H73l9.36,9.86h3.93v-13.8h-3.36V52.89L82.93,52.89z
		 M96.95,43.07v2.52l-3.03,5.66l0,0h3.03v2.65h-4.4l-1.58,2.97h-3.39l7.34-13.81l0,0H96.95L96.95,43.07z M59.17,57.24v-2.67
		c3.65-0.01,5.93-1.87,5.93-4.65c0-2.73-2.31-4.63-5.93-4.63h0v-2.67h0c2.76,0,5.26,0.86,7,2.29l0,0c1.56,1.3,2.38,3.01,2.38,5.01
		c0,2.02-0.82,3.76-2.38,5.05C64.44,56.4,61.98,57.24,59.17,57.24z M59.17,42.62v2.67c-3.6,0-5.93,1.91-5.93,4.63
		c0,2.78,2.27,4.65,5.91,4.65l0,0l0.02,0v2.67l-0.02,0c-2.81,0-5.28-0.84-7-2.27c-1.56-1.3-2.36-3.03-2.36-5.05
		c0-2,0.82-3.72,2.38-5.01C53.93,43.46,56.42,42.62,59.17,42.62L59.17,42.62z M39.73,56.84v-2.65h0.77c1.45,0,2.88-0.69,3.74-1.77
		l0,0c0.55-0.71,0.86-1.54,0.86-2.38c0-2.52-1.91-4.35-4.62-4.35h-0.75v-2.65h0.54l0,0c5.13,0,8.35,2.82,8.35,7.06
		c0,2-0.82,3.7-2.46,5c-1.39,1.11-3.34,1.75-5.43,1.75H39.73z M39.73,43.04v2.65h-5.37v8.5h5.37v2.65H31V43.04H39.73z"/>
	<path class="st0" d="M33.73,68.81h-2.64c-0.06,0-0.08-0.03-0.08-0.08v-4.91c0-0.06,0.02-0.08,0.08-0.08h2.64
		c0.06,0,0.08,0.02,0.08,0.08v0.3c0,0.06-0.02,0.08-0.08,0.08h-2.11c-0.05,0-0.08,0.03-0.08,0.08v1.64c0,0.06,0.03,0.08,0.08,0.08
		h1.73c0.06,0,0.08,0.02,0.08,0.08v0.3c0,0.05-0.02,0.08-0.08,0.08h-1.73c-0.05,0-0.08,0.03-0.08,0.08v1.73
		c0,0.05,0.03,0.08,0.08,0.08h2.11c0.06,0,0.08,0.03,0.08,0.08v0.3C33.81,68.78,33.79,68.81,33.73,68.81z"/>
	<path class="st0" d="M37.51,68.81h-0.38c-0.06,0-0.08-0.03-0.08-0.08v-2.17c0-0.46-0.38-0.85-0.86-0.85
		c-0.49,0-0.86,0.38-0.86,0.85v2.17c0,0.06-0.03,0.08-0.08,0.08h-0.39c-0.06,0-0.08-0.03-0.08-0.08v-3.4c0-0.06,0.03-0.08,0.08-0.08
		h0.3c0.06,0,0.08,0.02,0.08,0.08v0.32c0,0.05,0.03,0.09,0.06,0.09c0.06,0,0.12-0.08,0.24-0.18c0.19-0.15,0.33-0.3,0.71-0.3
		c0.75,0,1.34,0.53,1.34,1.31v2.17C37.59,68.78,37.57,68.81,37.51,68.81z"/>
	<path class="st0" d="M41.18,67.05h-1.33v-0.38h0.78c0.06,0,0.08-0.02,0.08-0.08v-0.11l0,0c0-0.46-0.38-0.85-0.86-0.86v-0.46
		c0.78,0,1.41,0.62,1.41,1.31v0.49C41.26,67.03,41.23,67.05,41.18,67.05L41.18,67.05z M39.85,68.43c0.19,0,0.38-0.08,0.53-0.22
		c0.17-0.16,0.24-0.27,0.29-0.27c0.01,0,0.02,0,0.04,0.01l0.34,0.17c0.04,0.01,0.05,0.03,0.05,0.07c0,0.25-0.49,0.7-1.25,0.7V68.43z
		 M39.85,67.05h-0.78c-0.05,0-0.08,0.02-0.08,0.08v0.44c0,0.47,0.37,0.86,0.86,0.86h0v0.46h0c-0.86,0-1.39-0.52-1.39-1.32v-1.09
		c0-0.3,0.13-0.63,0.38-0.89c0.27-0.28,0.6-0.42,1.02-0.42h0v0.46h0c-0.49,0-0.86,0.38-0.86,0.86v0.11c0,0.06,0.03,0.08,0.08,0.08
		h0.78V67.05z"/>
	<path class="st0" d="M43.8,65.82c-0.06,0-0.17-0.02-0.31-0.02c-0.49,0-0.85,0.37-0.85,0.85v2.09c0,0.05-0.02,0.08-0.08,0.08h-0.39
		c-0.06,0-0.08-0.03-0.08-0.08v-3.4c0-0.06,0.02-0.08,0.08-0.08h0.3c0.06,0,0.08,0.02,0.08,0.08v0.4c0,0.05,0.03,0.09,0.06,0.09
		c0.09,0,0.22-0.2,0.51-0.43c0.09-0.07,0.25-0.13,0.37-0.13h0.3c0.06,0,0.08,0.02,0.08,0.08v0.41C43.87,65.8,43.85,65.82,43.8,65.82
		z"/>
	<path class="st0" d="M47.32,69.67c0,0.55-0.43,0.95-1.03,0.95h-0.76v-0.46h0.76c0.26,0,0.48-0.21,0.48-0.49l0,0
		c0-0.27-0.22-0.49-0.48-0.49h-0.76v-0.47h0.76C46.9,68.72,47.32,69.12,47.32,69.67L47.32,69.67z M45.53,65.25
		c0.16,0.01,0.29,0.04,0.37,0.09c0.29,0.19,0.42,0.41,0.51,0.41c0.03,0,0.07-0.03,0.07-0.09v-0.34c0-0.06,0.02-0.08,0.08-0.08h0.3
		c0.06,0,0.08,0.02,0.08,0.08v1.31c0,0.74-0.57,1.32-1.41,1.32V67.5c0.48,0,0.86-0.4,0.86-0.86v-0.08l0,0
		c0-0.46-0.37-0.85-0.86-0.85V65.25z M45.53,70.62h-0.38c-0.59,0-1.01-0.4-1.01-0.93c0-0.22,0.07-0.42,0.2-0.54
		c0.2-0.2,0.34-0.28,0.34-0.33c0-0.09-0.16-0.24-0.16-0.49c0-0.32,0.2-0.48,0.2-0.56c0-0.03-0.15-0.18-0.41-0.48
		c-0.09-0.09-0.17-0.34-0.17-0.64v-0.08c0-0.73,0.59-1.31,1.33-1.31c0.02,0,0.05,0,0.07,0v0.46h0c-0.49,0-0.85,0.37-0.85,0.85v0.08
		c0,0.47,0.37,0.86,0.85,0.86h0v0.46h0c-0.09,0-0.17-0.01-0.26-0.02c-0.2,0.1-0.3,0.24-0.3,0.39c0,0.18,0.09,0.3,0.29,0.38h0.27
		v0.47h-0.38c-0.26,0-0.47,0.2-0.47,0.49c0,0.29,0.21,0.49,0.47,0.49h0.38V70.62z"/>
	<path class="st0" d="M49.26,70.7c-0.75,0-1.24-0.45-1.24-0.71c0-0.03,0.01-0.05,0.05-0.07l0.33-0.17c0.02-0.01,0.03-0.01,0.04-0.01
		c0.03,0,0.04,0.02,0.06,0.04c0.22,0.25,0.4,0.45,0.76,0.45c0.5,0,0.87-0.39,0.87-0.86v-0.96c0-0.06-0.03-0.09-0.06-0.09
		c-0.05,0-0.11,0.08-0.23,0.18c-0.18,0.16-0.31,0.29-0.66,0.29c-0.72,0-1.3-0.54-1.3-1.33v-2.16c0-0.06,0.02-0.08,0.08-0.08h0.38
		c0.06,0,0.08,0.02,0.08,0.08v2.16c0,0.47,0.38,0.86,0.86,0.86c0.5,0,0.87-0.39,0.87-0.86v-2.16c0-0.06,0.02-0.08,0.08-0.08h0.38
		c0.05,0,0.08,0.02,0.08,0.08v3.96C50.67,70.17,50.14,70.7,49.26,70.7z"/>
	<path class="st0" d="M53.48,66.67c-0.2,0-0.39-0.18-0.39-0.4c0-0.22,0.18-0.39,0.39-0.39c0.23,0,0.4,0.17,0.4,0.39
		C53.88,66.48,53.7,66.67,53.48,66.67z"/>
	<path class="st0" d="M58.65,64.2h-0.97c-0.06,0-0.08,0.03-0.08,0.08v4.45c0,0.05-0.02,0.08-0.08,0.08h-0.38
		c-0.06,0-0.08-0.03-0.08-0.08v-4.45c0-0.06-0.02-0.08-0.08-0.08H56c-0.05,0-0.08-0.02-0.08-0.08v-0.3c0-0.06,0.02-0.08,0.08-0.08
		h2.65c0.06,0,0.08,0.02,0.08,0.08v0.3C58.73,64.18,58.7,64.2,58.65,64.2z"/>
	<path class="st0" d="M61.5,67.05h-1.32v-0.38h0.77c0.06,0,0.08-0.02,0.08-0.08v-0.11l0,0c0-0.46-0.37-0.85-0.86-0.86v-0.46
		c0.78,0,1.4,0.62,1.4,1.31v0.49C61.58,67.03,61.56,67.05,61.5,67.05L61.5,67.05z M60.18,68.43c0.19,0,0.38-0.08,0.52-0.22
		c0.17-0.16,0.25-0.27,0.29-0.27c0.01,0,0.03,0,0.04,0.01l0.34,0.17c0.04,0.01,0.05,0.03,0.05,0.07c0,0.25-0.49,0.7-1.24,0.7V68.43z
		 M60.18,67.05H59.4c-0.06,0-0.08,0.02-0.08,0.08v0.44c0,0.47,0.37,0.86,0.85,0.86h0.01v0.46h-0.01c-0.85,0-1.39-0.52-1.39-1.32
		v-1.09c0-0.3,0.14-0.63,0.38-0.89c0.26-0.28,0.6-0.42,1.01-0.42l0.01,0v0.46l-0.01,0c-0.49,0-0.85,0.38-0.85,0.86v0.11
		c0,0.06,0.02,0.08,0.08,0.08h0.78V67.05z"/>
	<path class="st0" d="M65,68.18c0,0.25-0.49,0.71-1.25,0.71c-0.86,0-1.4-0.52-1.4-1.32v-1.09c0-0.8,0.54-1.31,1.4-1.31
		c0.75,0,1.26,0.42,1.26,0.69c0,0.02-0.02,0.05-0.06,0.06l-0.34,0.17c-0.01,0.01-0.02,0.01-0.03,0.01c-0.02,0-0.04-0.01-0.06-0.03
		c-0.24-0.22-0.4-0.44-0.76-0.44c-0.49,0-0.86,0.38-0.86,0.86v1.09c0,0.47,0.37,0.86,0.86,0.86c0.19,0,0.38-0.08,0.53-0.22
		c0.17-0.16,0.24-0.27,0.29-0.27c0.01,0,0.03,0,0.04,0.01l0.34,0.17C64.99,68.13,65,68.15,65,68.18z"/>
	<path class="st0" d="M68.52,68.81h-0.38c-0.06,0-0.08-0.03-0.08-0.08v-2.17c0-0.46-0.38-0.85-0.86-0.85c-0.5,0-0.85,0.38-0.85,0.85
		v2.17c0,0.06-0.03,0.08-0.08,0.08h-0.39c-0.05,0-0.07-0.03-0.07-0.08v-4.91c0-0.06,0.02-0.08,0.07-0.08h0.39
		c0.05,0,0.08,0.02,0.08,0.08v1.82c0,0.06,0.02,0.09,0.05,0.09c0.06,0,0.12-0.08,0.24-0.18c0.18-0.15,0.32-0.3,0.69-0.3
		c0.71,0,1.28,0.56,1.28,1.31v2.17C68.6,68.78,68.58,68.81,68.52,68.81z"/>
	<path class="st0" d="M72.42,68.81h-0.39c-0.06,0-0.08-0.03-0.08-0.08v-2.17c0-0.46-0.38-0.85-0.86-0.85
		c-0.49,0-0.85,0.38-0.85,0.85v2.17c0,0.06-0.03,0.08-0.08,0.08h-0.38c-0.06,0-0.08-0.03-0.08-0.08v-3.4c0-0.06,0.02-0.08,0.08-0.08
		h0.3c0.05,0,0.08,0.02,0.08,0.08v0.32c0,0.05,0.03,0.09,0.06,0.09c0.06,0,0.12-0.08,0.25-0.18c0.18-0.15,0.32-0.3,0.7-0.3
		c0.76,0,1.34,0.53,1.34,1.31v2.17C72.5,68.78,72.48,68.81,72.42,68.81z"/>
	<path class="st0" d="M74.76,65.17c0.85,0,1.41,0.53,1.41,1.31v1.09c0,0.79-0.56,1.32-1.41,1.32v-0.46c0.48,0,0.86-0.4,0.86-0.86
		v-1.09l0,0c0-0.46-0.38-0.85-0.86-0.86V65.17z M74.76,68.89c-0.86,0-1.4-0.52-1.4-1.32v-1.09c0-0.8,0.54-1.31,1.4-1.31h0v0.46h0
		c-0.49,0-0.86,0.38-0.86,0.86v1.09c0,0.47,0.37,0.86,0.86,0.86h0L74.76,68.89L74.76,68.89z"/>
	<path class="st0" d="M77.51,68.81h-0.39c-0.05,0-0.08-0.03-0.08-0.08v-4.91c0-0.06,0.03-0.08,0.08-0.08h0.39
		c0.05,0,0.08,0.02,0.08,0.08v4.91C77.6,68.78,77.57,68.81,77.51,68.81z"/>
	<path class="st0" d="M79.88,65.17c0.85,0,1.41,0.53,1.41,1.31v1.09c0,0.79-0.56,1.32-1.41,1.32v-0.46c0.48,0,0.86-0.4,0.86-0.86
		v-1.09l0,0c0-0.46-0.38-0.85-0.86-0.86V65.17z M79.87,68.89c-0.85,0-1.39-0.52-1.39-1.32v-1.09c0-0.8,0.54-1.31,1.39-1.31h0.01
		v0.46l-0.01,0c-0.49,0-0.85,0.38-0.85,0.86v1.09c0,0.47,0.37,0.86,0.85,0.86l0.01,0L79.87,68.89L79.87,68.89z"/>
	<path class="st0" d="M85.2,69.67c0,0.55-0.43,0.95-1.03,0.95h-0.76v-0.46h0.76c0.27,0,0.49-0.21,0.49-0.49l0,0
		c0-0.27-0.22-0.49-0.49-0.49h-0.76v-0.47h0.76C84.78,68.72,85.2,69.12,85.2,69.67L85.2,69.67z M83.41,65.25
		c0.16,0.01,0.3,0.04,0.37,0.09c0.3,0.19,0.43,0.41,0.52,0.41c0.04,0,0.07-0.03,0.07-0.09v-0.34c0-0.06,0.02-0.08,0.08-0.08h0.29
		c0.06,0,0.08,0.02,0.08,0.08v1.31c0,0.74-0.58,1.32-1.41,1.32V67.5c0.48,0,0.86-0.4,0.86-0.86v-0.08l0,0
		c0-0.46-0.38-0.85-0.86-0.85V65.25z M83.41,70.62h-0.38c-0.58,0-1.01-0.4-1.01-0.93c0-0.22,0.07-0.42,0.2-0.54
		c0.2-0.2,0.34-0.28,0.34-0.33c0-0.09-0.16-0.24-0.16-0.49c0-0.32,0.2-0.48,0.2-0.56c0-0.03-0.14-0.18-0.41-0.48
		c-0.09-0.09-0.17-0.34-0.17-0.64v-0.08c0-0.73,0.59-1.31,1.33-1.31c0.02,0,0.05,0,0.07,0v0.46h0c-0.49,0-0.85,0.37-0.85,0.85v0.08
		c0,0.47,0.37,0.86,0.85,0.86h0v0.46h0c-0.09,0-0.17-0.01-0.26-0.02c-0.2,0.1-0.3,0.24-0.3,0.39c0,0.18,0.09,0.3,0.29,0.38h0.27
		v0.47h-0.38c-0.27,0-0.48,0.2-0.48,0.49c0,0.29,0.21,0.49,0.48,0.49h0.38V70.62z"/>
	<path class="st0" d="M87.14,70.7c-0.75,0-1.24-0.45-1.24-0.71c0-0.03,0.01-0.05,0.05-0.07l0.34-0.17c0.02-0.01,0.04-0.01,0.04-0.01
		c0.03,0,0.03,0.02,0.06,0.04c0.22,0.25,0.4,0.45,0.75,0.45c0.5,0,0.87-0.39,0.87-0.86v-0.96c0-0.06-0.03-0.09-0.06-0.09
		c-0.05,0-0.11,0.08-0.23,0.18c-0.18,0.16-0.31,0.29-0.66,0.29c-0.72,0-1.3-0.54-1.3-1.33v-2.16c0-0.06,0.02-0.08,0.08-0.08h0.38
		c0.05,0,0.08,0.02,0.08,0.08v2.16c0,0.47,0.38,0.86,0.85,0.86c0.5,0,0.87-0.39,0.87-0.86v-2.16c0-0.06,0.03-0.08,0.08-0.08h0.38
		c0.05,0,0.08,0.02,0.08,0.08v3.96C88.55,70.17,88.02,70.7,87.14,70.7z"/>
	<path class="st0" d="M91.36,66.67c-0.2,0-0.39-0.18-0.39-0.4c0-0.22,0.18-0.39,0.39-0.39c0.23,0,0.4,0.17,0.4,0.39
		C91.76,66.48,91.58,66.67,91.36,66.67z"/>
	<path class="st0" d="M96.99,68.81h-2.64c-0.05,0-0.08-0.03-0.08-0.08v-4.91c0-0.06,0.03-0.08,0.08-0.08h2.64
		c0.06,0,0.08,0.02,0.08,0.08v0.3c0,0.06-0.03,0.08-0.08,0.08h-2.11c-0.05,0-0.07,0.03-0.07,0.08v1.64c0,0.06,0.02,0.08,0.07,0.08
		h1.73c0.06,0,0.08,0.02,0.08,0.08v0.3c0,0.05-0.03,0.08-0.08,0.08h-1.73c-0.05,0-0.07,0.03-0.07,0.08v1.73
		c0,0.05,0.02,0.08,0.07,0.08h2.11c0.06,0,0.08,0.03,0.08,0.08v0.3C97.07,68.78,97.05,68.81,96.99,68.81z"/>
	<path class="st0" d="M100.56,68.74c0,0.03-0.03,0.07-0.08,0.07h-0.44l-0.08-0.04l-0.8-1.3c-0.02-0.02-0.04-0.04-0.06-0.04
		c-0.03,0-0.05,0.01-0.06,0.04l-0.81,1.3l-0.06,0.04H97.7c-0.05,0-0.09-0.04-0.09-0.07c0-0.01,0.01-0.03,0.03-0.06l1.06-1.63v-0.09
		l-1.05-1.6c-0.01-0.02-0.02-0.04-0.02-0.06c0-0.03,0.03-0.06,0.09-0.06h0.44l0.06,0.04l0.81,1.3c0.01,0.02,0.05,0.04,0.07,0.04
		c0.03,0,0.05-0.02,0.07-0.04l0.81-1.3l0.07-0.04h0.43c0.06,0,0.08,0.03,0.08,0.06c0,0.02,0,0.03-0.02,0.06l-1.04,1.61v0.08
		l1.06,1.63C100.56,68.71,100.56,68.73,100.56,68.74z"/>
	<path class="st0" d="M103.75,68.18c0,0.25-0.49,0.71-1.25,0.71c-0.85,0-1.39-0.52-1.39-1.32v-1.09c0-0.8,0.54-1.31,1.39-1.31
		c0.75,0,1.26,0.42,1.26,0.69c0,0.02-0.02,0.05-0.05,0.06l-0.34,0.17c-0.02,0.01-0.02,0.01-0.03,0.01c-0.03,0-0.04-0.01-0.06-0.03
		c-0.24-0.22-0.41-0.44-0.77-0.44c-0.49,0-0.85,0.38-0.85,0.86v1.09c0,0.47,0.37,0.86,0.85,0.86c0.2,0,0.39-0.08,0.53-0.22
		c0.17-0.16,0.24-0.27,0.3-0.27c0,0,0.02,0,0.04,0.01l0.34,0.17C103.75,68.13,103.75,68.15,103.75,68.18z"/>
	<path class="st0" d="M107.17,67.05h-1.33v-0.38h0.78c0.06,0,0.08-0.02,0.08-0.08v-0.11l0,0c0-0.46-0.38-0.85-0.86-0.86v-0.46
		c0.78,0,1.41,0.62,1.41,1.31v0.49C107.26,67.03,107.23,67.05,107.17,67.05L107.17,67.05z M105.85,68.43c0.19,0,0.38-0.08,0.53-0.22
		c0.17-0.16,0.24-0.27,0.29-0.27c0.01,0,0.03,0,0.04,0.01l0.33,0.17c0.04,0.01,0.05,0.03,0.05,0.07c0,0.25-0.49,0.7-1.25,0.7V68.43z
		 M105.85,67.05h-0.77c-0.06,0-0.09,0.02-0.09,0.08v0.44c0,0.47,0.37,0.86,0.86,0.86h0v0.46h0c-0.86,0-1.4-0.52-1.4-1.32v-1.09
		c0-0.3,0.14-0.63,0.38-0.89c0.26-0.28,0.61-0.42,1.02-0.42h0v0.46h0c-0.49,0-0.86,0.38-0.86,0.86v0.11c0,0.06,0.02,0.08,0.09,0.08
		h0.77V67.05z"/>
	<path class="st0" d="M108.56,68.81h-0.39c-0.05,0-0.08-0.03-0.08-0.08v-4.91c0-0.06,0.02-0.08,0.08-0.08h0.39
		c0.06,0,0.08,0.02,0.08,0.08v4.91C108.64,68.78,108.61,68.81,108.56,68.81z"/>
	<path class="st0" d="M110.24,68.81h-0.39c-0.06,0-0.08-0.03-0.08-0.08v-4.91c0-0.06,0.02-0.08,0.08-0.08h0.39
		c0.06,0,0.08,0.02,0.08,0.08v4.91C110.32,68.78,110.29,68.81,110.24,68.81z"/>
	<path class="st0" d="M113.92,67.05h-1.33v-0.38h0.78c0.05,0,0.08-0.02,0.08-0.08v-0.11l0,0c0-0.46-0.38-0.85-0.86-0.86v-0.46
		c0.78,0,1.4,0.62,1.4,1.31v0.49C114,67.03,113.97,67.05,113.92,67.05L113.92,67.05z M112.59,68.43c0.19,0,0.38-0.08,0.52-0.22
		c0.17-0.16,0.24-0.27,0.29-0.27c0.01,0,0.03,0,0.04,0.01l0.34,0.17c0.04,0.01,0.05,0.03,0.05,0.07c0,0.25-0.49,0.7-1.24,0.7V68.43z
		 M112.59,67.05h-0.78c-0.06,0-0.08,0.02-0.08,0.08v0.44c0,0.47,0.37,0.86,0.85,0.86h0v0.46h0c-0.85,0-1.4-0.52-1.4-1.32v-1.09
		c0-0.3,0.14-0.63,0.38-0.89c0.27-0.28,0.61-0.42,1.02-0.42h0v0.46h0c-0.49,0-0.85,0.38-0.85,0.86v0.11c0,0.06,0.03,0.08,0.08,0.08
		h0.78V67.05z"/>
	<path class="st0" d="M117.56,68.81h-0.39c-0.05,0-0.08-0.03-0.08-0.08v-2.17c0-0.46-0.38-0.85-0.86-0.85
		c-0.49,0-0.85,0.38-0.85,0.85v2.17c0,0.06-0.03,0.08-0.08,0.08h-0.38c-0.06,0-0.08-0.03-0.08-0.08v-3.4c0-0.06,0.02-0.08,0.08-0.08
		h0.3c0.06,0,0.08,0.02,0.08,0.08v0.32c0,0.05,0.03,0.09,0.06,0.09c0.06,0,0.12-0.08,0.24-0.18c0.19-0.15,0.32-0.3,0.71-0.3
		c0.75,0,1.33,0.53,1.33,1.31v2.17C117.64,68.78,117.62,68.81,117.56,68.81z"/>
	<path class="st0" d="M121.3,68.18c0,0.25-0.49,0.71-1.25,0.71c-0.85,0-1.4-0.52-1.4-1.32v-1.09c0-0.8,0.54-1.31,1.4-1.31
		c0.75,0,1.26,0.42,1.26,0.69c0,0.02-0.02,0.05-0.05,0.06l-0.34,0.17c-0.02,0.01-0.02,0.01-0.03,0.01c-0.03,0-0.04-0.01-0.07-0.03
		c-0.24-0.22-0.4-0.44-0.77-0.44c-0.49,0-0.85,0.38-0.85,0.86v1.09c0,0.47,0.37,0.86,0.85,0.86c0.19,0,0.39-0.08,0.53-0.22
		c0.18-0.16,0.24-0.27,0.29-0.27c0.01,0,0.03,0,0.04,0.01l0.34,0.17C121.29,68.13,121.3,68.15,121.3,68.18z"/>
	<path class="st0" d="M124.71,67.05h-1.32v-0.38h0.78c0.05,0,0.08-0.02,0.08-0.08v-0.11l0,0c0-0.46-0.38-0.85-0.86-0.86v-0.46
		c0.78,0,1.4,0.62,1.4,1.31v0.49C124.8,67.03,124.77,67.05,124.71,67.05L124.71,67.05z M123.39,68.43c0.19,0,0.39-0.08,0.53-0.22
		c0.17-0.16,0.24-0.27,0.29-0.27c0.01,0,0.02,0,0.04,0.01l0.34,0.17c0.04,0.01,0.05,0.03,0.05,0.07c0,0.25-0.49,0.7-1.24,0.7V68.43z
		 M123.39,67.05h-0.78c-0.06,0-0.08,0.02-0.08,0.08v0.44c0,0.47,0.37,0.86,0.85,0.86h0.01v0.46h-0.01c-0.85,0-1.39-0.52-1.39-1.32
		v-1.09c0-0.3,0.13-0.63,0.38-0.89c0.27-0.28,0.6-0.42,1.01-0.42h0.01v0.46h-0.01c-0.49,0-0.85,0.38-0.85,0.86v0.11
		c0,0.06,0.02,0.08,0.08,0.08h0.78V67.05z"/>
</g>
</svg>
