<?xml version="1.0" encoding="utf-8"?>
<!-- Generator: Adobe Illustrator 25.1.0, SVG Export Plug-In . SVG Version: 6.00 Build 0)  -->
<svg version="1.1" id="Warstwa_1" xmlns="http://www.w3.org/2000/svg" xmlns:xlink="http://www.w3.org/1999/xlink" x="0px" y="0px"
	 viewBox="0 0 210 120" style="enable-background:new 0 0 210 120;" xml:space="preserve">
<style type="text/css">
	.st0{fill:#9F9F9F;}
	.st1{fill-rule:evenodd;clip-rule:evenodd;fill:#9F9F9F;}
</style>
<g>
	<path class="st0" d="M152.41,52.22c-1.34,0.07-2.59,0.37-3.82,0.98c-0.98,0.49-1.93,1.12-2.83,1.89l-0.02,6.05
		c-1.13-0.04-2.27-0.08-3.41-0.11l0.04-12.11h3.41l-0.01,3.14c1.36-1.14,2.55-1.95,3.59-2.43c1-0.46,2.02-0.7,3.05-0.71V52.22z"/>
	<path class="st0" d="M139.95,59.67c0,0.44-0.02,0.87-0.06,1.29c-1.31-0.03-2.62-0.06-3.94-0.09c0.03-0.38,0.05-0.79,0.05-1.2
		c0.01-2.63-0.56-4.59-1.71-5.87c-1.15-1.28-2.75-1.92-4.8-1.92c-2.07,0-3.69,0.64-4.84,1.92c-1.15,1.28-1.74,3.24-1.75,5.87
		c0,0.38,0.01,0.75,0.04,1.1c-1.32,0.01-2.64,0.01-3.95,0.03c-0.02-0.37-0.04-0.74-0.03-1.13c0.01-3.32,0.97-5.94,2.87-7.87
		c1.9-1.92,4.46-2.89,7.67-2.89c3.19,0,5.74,0.96,7.63,2.89C139.02,53.74,139.97,56.36,139.95,59.67"/>
	<path class="st0" d="M116.62,59.59c0,0.42-0.02,0.83-0.05,1.24c-1.27,0.02-2.54,0.04-3.8,0.07c0.03-0.39,0.05-0.79,0.05-1.21
		c0.01-2.49-0.43-4.34-1.33-5.57c-0.9-1.23-2.5-1.87-4.36-1.91c-3.28-0.06-4.71,0.37-6.08,0.79l-0.03,8.26
		c-1.23,0.05-2.46,0.11-3.69,0.16l0.04-11.48c4.9-0.88,13.72-2.45,17.07,1.85C115.9,53.66,116.64,56.26,116.62,59.59"/>
	<path class="st0" d="M91.43,57.49c-0.01-1.82-0.48-3.23-1.41-4.22c-0.93-0.99-2.35-1.49-4.26-1.49c-1.92,0-3.45,0.55-4.59,1.64
		c-1.14,1.09-1.79,2.45-1.95,4.07H91.43z M94.92,60.15H79.21c0,0.89,0.09,1.7,0.28,2.42c-1.22,0.1-2.44,0.2-3.65,0.31
		c-0.19-0.91-0.29-1.91-0.28-2.97c0.01-3.37,0.97-6.04,2.88-8.02c1.91-1.98,4.42-2.97,7.52-2.97c2.88,0,5.09,0.81,6.65,2.44
		c1.55,1.62,2.33,3.93,2.31,6.91L94.92,60.15z"/>
	<path class="st0" d="M170.63,57.49c-0.01-1.82-0.48-3.23-1.41-4.22c-0.93-0.99-2.35-1.49-4.26-1.49c-1.92,0-3.45,0.55-4.59,1.64
		c-1.14,1.09-1.79,2.45-1.95,4.07H170.63z M174.11,60.15H158.4c0,0.57,0.04,1.1,0.11,1.6c-1.22-0.07-2.45-0.14-3.68-0.21
		c-0.05-0.52-0.08-1.07-0.08-1.64c0.01-3.37,0.97-6.04,2.88-8.02c1.91-1.98,4.42-2.97,7.52-2.97c2.88,0,5.09,0.81,6.64,2.44
		c1.55,1.62,2.33,3.93,2.31,6.91L174.11,60.15z"/>
	<path class="st0" d="M145.74,61.14l-0.03,9.07h-3.41l0.03-9.18C143.47,61.06,144.6,61.1,145.74,61.14"/>
	<path class="st0" d="M139.9,60.96c-0.23,2.72-1.17,4.91-2.82,6.57c-1.9,1.92-4.46,2.88-7.65,2.88c-3.21,0-5.76-0.96-7.65-2.88
		c-1.67-1.69-2.59-3.94-2.78-6.73c1.31-0.01,2.63-0.02,3.95-0.03c0.14,2.01,0.7,3.58,1.67,4.71c1.15,1.32,2.76,1.98,4.81,1.98
		c2.04,0,3.64-0.65,4.8-1.96c0.98-1.1,1.55-2.64,1.72-4.62C137.27,60.9,138.59,60.93,139.9,60.96"/>
	<path class="st0" d="M116.57,60.83c-0.1,1.2-0.34,2.31-0.73,3.35c-0.51,1.38-1.24,2.56-2.17,3.51c-0.87,0.91-1.89,1.61-3.06,2.11
		c-1.17,0.5-2.41,0.75-3.72,0.75c-1.14,0-2.17-0.12-3.09-0.35c-0.92-0.23-1.85-0.59-2.81-1.08l-0.03,8.63h-3.69l0.06-16.32
		c1.22-0.06,2.45-0.11,3.69-0.16L101,66.28c1.04,0.45,1.95,0.75,2.7,0.91c0.75,0.16,1.61,0.24,2.56,0.24c2.06,0,3.66-0.65,4.82-1.96
		c0.97-1.09,1.53-2.61,1.7-4.58C114.03,60.87,115.3,60.85,116.57,60.83"/>
	<path class="st0" d="M79.49,62.57c0.08,0.31,0.18,0.61,0.3,0.89c0.39,0.94,0.93,1.71,1.61,2.32c0.66,0.59,1.44,1.03,2.35,1.33
		c0.91,0.3,1.91,0.44,3.01,0.44c2.39,0,4.73-0.83,7.02-1.58v3.14c-0.99,0.37-2,0.7-3.02,0.97c-1.27,0.33-2.59,0.5-3.98,0.5
		c-3.54,0-6.29-0.93-8.27-2.78c-1.36-1.27-2.25-2.91-2.67-4.91C77.05,62.77,78.27,62.67,79.49,62.57"/>
	<path class="st0" d="M158.52,61.75c0.09,0.62,0.25,1.19,0.47,1.71c0.39,0.94,0.93,1.71,1.61,2.32c0.66,0.59,1.44,1.03,2.35,1.33
		c0.91,0.3,1.91,0.44,3.01,0.44c2.39,0,4.73-0.83,7.02-1.58v3.14c-0.99,0.37-2,0.7-3.02,0.97c-1.27,0.33-2.59,0.5-3.98,0.5
		c-3.54,0-6.29-0.93-8.27-2.78c-1.65-1.54-2.61-3.62-2.87-6.25C156.06,61.61,157.29,61.68,158.52,61.75"/>
	<path class="st1" d="M59.45,76.14c-1.65,0.61-3.41,0.98-5.26,1.07c-6.44,0.3-12.23-2.92-15.5-7.96c2.26-0.85,4.81-1.64,7.61-2.35
		c4.47,2.17,9.29,3.74,11.16,7.01c-1.75-4.23-5.42-5.82-9.34-7.45c2.59-0.6,5.36-1.14,8.28-1.59C58.2,67.06,59.38,70.5,59.45,76.14"
		/>
	<path class="st0" d="M48.12,66.45c3.92,1.63,7.59,3.22,9.34,7.45c-1.88-3.26-6.69-4.84-11.16-7.01c-2.8,0.71-5.35,1.5-7.61,2.35
		c3.27,5.04,9.06,8.26,15.5,7.96c1.85-0.09,3.61-0.46,5.26-1.07c-0.07-5.64-1.25-9.08-3.05-11.28
		C53.48,65.32,50.71,65.85,48.12,66.45"/>
	<path class="st1" d="M38.69,69.25c-1.63-2.51-2.64-5.48-2.79-8.68c-0.11-2.35,0.25-4.61,0.99-6.69c4,8.6,14.33,4.66,19.5,10.99
		c-2.92,0.46-5.7,0.99-8.28,1.59c-3.47-1.44-7.13-2.9-9.85-6.22c1.62,3.15,4.73,5.07,8.03,6.66C43.5,67.61,40.95,68.39,38.69,69.25"
		/>
	<path class="st0" d="M35.9,60.57c0.15,3.21,1.16,6.17,2.79,8.68c2.26-0.85,4.81-1.64,7.61-2.35c-3.3-1.6-6.41-3.51-8.03-6.66
		c2.72,3.32,6.38,4.78,9.85,6.22c2.59-0.6,5.36-1.14,8.28-1.59c-5.17-6.33-15.5-2.39-19.5-10.99C36.15,55.96,35.79,58.22,35.9,60.57
		"/>
	<path class="st1" d="M70.47,63.37c-1.2,5.65-5.14,10.34-10.43,12.53c0.01-5.53-1.11-8.95-2.87-11.16
		C61.35,64.11,65.81,63.65,70.47,63.37"/>
	<path class="st0" d="M57.17,64.74c1.76,2.22,2.88,5.64,2.87,11.16c5.29-2.19,9.23-6.88,10.43-12.53
		C65.81,63.65,61.35,64.11,57.17,64.74"/>
	<path class="st1" d="M52.55,42.28c9.64-0.45,17.83,7,18.28,16.64c0.07,1.53-0.06,3.02-0.36,4.45c-4.66,0.27-9.12,0.74-13.3,1.37
		c-5.22-6.57-16.11-2.56-20.08-11.4C39.55,47.13,45.45,42.61,52.55,42.28"/>
	<path class="st0" d="M52.55,42.28c-7.09,0.33-13,4.85-15.45,11.05c3.97,8.85,14.85,4.84,20.08,11.4c4.17-0.63,8.64-1.09,13.3-1.37
		c0.3-1.43,0.43-2.92,0.36-4.45c-0.44-9.36-8.17-16.66-17.45-16.66C53.1,42.26,52.82,42.27,52.55,42.28"/>
</g>
</svg>
