<?xml version="1.0" encoding="utf-8"?>
<!-- Generator: Adobe Illustrator 25.1.0, SVG Export Plug-In . SVG Version: 6.00 Build 0)  -->
<svg version="1.1" id="Warstwa_1" xmlns="http://www.w3.org/2000/svg" xmlns:xlink="http://www.w3.org/1999/xlink" x="0px" y="0px"
	 viewBox="0 0 210 120" style="enable-background:new 0 0 210 120;" xml:space="preserve">
<style type="text/css">
	.st0{fill-rule:evenodd;clip-rule:evenodd;fill:#9F9F9F;}
</style>
<g>
	<path class="st0" d="M44.84,63.72c2.53,4.38,8.52,6.26,13.31,3.5c4.83-2.79,6.16-8.9,3.63-13.28c-2.53-4.38-8.48-6.29-13.31-3.5
		C43.68,53.21,42.32,59.34,44.84,63.72"/>
	<path class="st0" d="M43.67,64.4c-2.89-5-1.33-11.97,4.13-15.12l1.17-4.36l-4.37-1.18l0,0l0,0c-5.6,3.23-8.73,9.11-8.72,15.14
		c0.01,2.95,0.76,5.93,2.34,8.67c4.81,8.33,15.48,11.19,23.81,6.37l-3.2-5.53C53.37,71.54,46.56,69.4,43.67,64.4"/>
	<path class="st0" d="M77.46,49.59c-1.72,0-2.8,1.2-2.8,3.1l0,3.07h3.92v4.27h-3.92v14.45h-5.36V60.03h-2.48v-4.27h2.48v-2.58
		c0-3.96,0.8-8.3,7.05-8.3c1.5,0,2.21,0.15,3.66,0.45v4.6C79.33,49.78,78.73,49.59,77.46,49.59 M174.12,74.47V63.62
		c0-3.12-0.24-4.62-0.91-5.76c-0.95-1.66-2.95-2.68-5.23-2.68c-2.8,0-4.73,1.38-6.04,4.38c-0.67-2.92-2.33-4.38-5.09-4.38
		c-2.84,0-4.55,1.34-5.97,4.26v-3.87h-5.18v18.9h5.38v-8.78c0-1.22,0.08-2.13,0.28-2.8c0.47-1.7,1.67-2.8,3.13-2.8
		c1.1,0,1.91,0.55,2.3,1.54c0.28,0.71,0.39,1.66,0.39,3.39l0,9.45h5.42v-9.1c0-3.43,1.16-5.29,3.4-5.29c1.3,0,2.18,0.58,2.5,1.84
		c0.12,0.55,0.2,1.59,0.2,2.81v9.73H174.12z M143.63,65.28v-9.71h-5.38v9.71c0,3.79-0.72,5.05-3.13,5.05
		c-2.49,0-3.33-1.26-3.33-4.73V55.58h-5.38v9.94c0,4.14,0.66,5.96,2.55,7.54c1.5,1.22,3.63,1.85,6.12,1.85
		c2.92,0,5.29-0.95,6.79-2.68C143.09,70.8,143.63,68.87,143.63,65.28L143.63,65.28z M124.64,74.47v-4.24
		c-0.87,0.2-1.42,0.24-2.21,0.24c-2.41,0-3.17-0.91-3.17-3.59l0-6.87h5.14v-4.29h-5.14v-6.18l-5.38,3.04v15.27
		c0,4.85,2.24,6.98,7.21,6.98C122.35,74.83,123.29,74.75,124.64,74.47z M112.14,60.76c-0.95-0.43-1.54-0.55-2.49-0.55
		c-3,0-4.72,2.25-4.72,5.88v8.39h-5.38v-18.9h5.18v4.3c0.67-2.88,2.71-4.58,5.71-4.58c0.51,0,1.03,0.08,1.7,0.2V60.76z"/>
	<path class="st0" d="M97.66,65c0-5.8-3.39-9.94-9.27-9.94c-5.6,0-9.35,4.26-9.35,9.87c0,6.16,3.67,10.06,9.47,10.06
		C93.87,74.99,97.66,70.84,97.66,65z M92.24,64.96c0,3.35-1.41,5.43-3.77,5.43c-2.45,0-4.01-2.2-4.01-5.47
		c0-3.24,1.52-5.35,3.93-5.35C90.79,59.57,92.24,61.61,92.24,64.96z"/>
</g>
</svg>
