<?xml version="1.0" encoding="utf-8"?>
<!-- Generator: Adobe Illustrator 25.1.0, SVG Export Plug-In . SVG Version: 6.00 Build 0)  -->
<svg version="1.1" id="Warstwa_1" xmlns="http://www.w3.org/2000/svg" xmlns:xlink="http://www.w3.org/1999/xlink" x="0px" y="0px"
	 viewBox="0 0 210 120" style="enable-background:new 0 0 210 120;" xml:space="preserve">
<style type="text/css">
	.st0{fill:#9F9F9F;}
	.st1{fill:none;stroke:#9F9F9F;stroke-width:0.75;stroke-miterlimit:10;}
</style>
<g>
	<path class="st0" d="M27.55,63.54c0.25,0.79,1.03,1.55,2.85,1.45c1.72-0.09,5.4-1.32,6.26-4.84C34.61,62.6,31.04,63.95,27.55,63.54
		z"/>
	<path class="st0" d="M28.04,67.03c-2.17-0.32-3.66-1.83-3.56-3.89c0.09-1.86,1.61-3.56,3.35-4.55c0.99-0.56,2.31-1.12,4.12-1.8
		c2.54-0.95,5.54-2.65,6.48-5.82c-2.27,3.16-6.88,4.04-11.23,5.77c-3.88,1.55-6,4.32-6.17,6.82c-0.12,1.78,0.59,3.45,2.47,4.53
		c1.32,0.76,3.09,1.07,4.88,0.91c2.25-0.15,6.29-1.06,7.52-4.81C34.13,66.37,30.91,67.45,28.04,67.03z"/>
	<path class="st0" d="M31.2,59.39c-1.3,0.44-2.73,1.33-3.32,2.11c4.05-0.02,8.84-2.15,9.67-5.97C36.25,57.51,33.68,58.55,31.2,59.39
		z"/>
	<polygon class="st0" points="82.21,57.08 85.27,57.08 85.75,54.76 82.68,54.76 	"/>
	<path class="st0" d="M95.32,56.74c-2.98,0-5.13,1.57-5.62,4.11c-0.46,2.36,0.82,3.96,3.16,3.96c0.52,0,0.83-0.04,1.26-0.15
		l0.37-1.93h-1.82l0.43-2.13h4.87c0,0-0.78,4.8-1.12,6.16c-1.25-0.34-2.95,0.26-4.44,0.26c-4.33,0-6.76-2.5-6.04-6.2
		c0.72-3.75,4.3-6.27,8.85-6.27c1.33,0,2.35,0.15,3.52,0.53l-0.41,2.14C97.27,56.86,96.47,56.74,95.32,56.74L95.32,56.74z"/>
	<path class="st0" d="M54.47,60.81c-0.71,3.7,1.72,6.2,6.04,6.2c1.49,0,3.19-0.61,4.44-0.26c0.56-2.76,1.18-6.16,1.18-6.16H61.2
		l-0.43,2.13h1.82l-0.37,1.92c-0.43,0.12-0.74,0.15-1.27,0.15c-2.34,0-3.61-1.59-3.16-3.96c0.49-2.53,2.65-4.11,5.62-4.11
		c1.15,0,2.15,0.16,3.24,0.56l0.43-2.15c-1.29-0.43-2.44-0.6-3.77-0.6C58.77,54.54,55.19,57.06,54.47,60.81L54.47,60.81z"/>
	<polygon class="st0" points="80.27,66.82 83.34,66.82 84.96,58.61 81.89,58.61 	"/>
	<path class="st0" d="M77.35,54.73h3.12l-2.33,12.09h-3.38c0,0-2.65-6.46-2.85-6.96c-0.26-0.63-0.35-1.37-0.35-1.37
		s-0.02,0.79-0.12,1.41c-0.1,0.62-1.18,6.92-1.18,6.92h-3.09l2.33-12.09h3.29c0,0,2.65,6.72,2.85,7.22c0.2,0.51,0.4,1.3,0.4,1.3
		s0-0.75,0.1-1.31C76.2,61.54,77.35,54.73,77.35,54.73L77.35,54.73z"/>
	<path class="st0" d="M52.27,55.33c-0.91-0.41-2.22-0.6-4.19-0.6h-3.6l-2.33,12.09h3.18l0.8-4.15h0.71c1.67,0,3.11-0.21,4.05-0.58
		c1.66-0.65,2.77-1.92,3.07-3.44C54.25,57.2,53.62,55.97,52.27,55.33z M50.81,58.76c-0.26,1.34-1.43,1.97-3.68,1.97h-0.62l0.77-3.99
		h0.78C50.24,56.74,51.09,57.35,50.81,58.76z"/>
	<line class="st1" x1="106.47" y1="54.73" x2="104.12" y2="66.82"/>
	<path class="st0" d="M150.46,60.41l0.43-2.14h1.03c0.88,0,1.52,0.15,1.36,0.98c-0.17,0.88-0.77,1.16-2.01,1.16H150.46L150.46,60.41
		z M154.91,59.19c0.19-1.04-0.52-1.77-1.04-1.95c-0.47-0.17-1.05-0.23-2.29-0.23h-2.04l-1.47,7.65h1.63l0.56-2.94h0.6
		c0.04,0,0.09,0,0.13,0l0,0h0.25c0.8,0,1.12,0.46,1.25,1.17l0.36,1.77h1.69l-0.45-2.17c-0.13-0.52-0.48-1.23-1.04-1.43
		C154.06,60.89,154.71,60.27,154.91,59.19z"/>
	<polygon class="st0" points="182.71,57 180.79,57 177.52,60.16 178.09,57 176.47,57 175.07,64.66 176.7,64.66 177.33,61.19 
		179.69,64.66 181.59,64.66 178.77,60.71 	"/>
	<path class="st0" d="M121.05,61.66l1.56-3.07l0.56,3.07H121.05L121.05,61.66z M123.71,64.66h1.63L123.87,57h-1.91l-4.11,7.65h1.67
		l0.93-1.75h2.94L123.71,64.66z"/>
	<polygon class="st0" points="169.74,57 168.27,64.66 173.56,64.66 173.82,63.38 170.2,63.38 170.56,61.41 173.74,61.41 174,60.11 
		170.82,60.11 171.16,58.26 174.6,58.26 174.85,57 	"/>
	<path class="st0" d="M116.45,58.23c0.72,0,1.24,0.12,1.87,0.39l0.27-1.3c-0.61-0.24-1.26-0.38-2.06-0.38
		c-2.77,0-4.78,1.59-5.24,3.96c-0.45,2.34,1.12,3.92,3.28,3.92c1.27,0,1.92-0.38,2.71-0.17c0.35-1.75,0.74-3.9,0.74-3.9h-2.78
		l-0.25,1.17h1.15l-0.27,1.45c-0.28,0.08-0.51,0.11-0.85,0.11c-1.66,0-2.22-1.08-1.94-2.57C113.4,59.31,114.78,58.23,116.45,58.23z"
		/>
	<path class="st0" d="M166.25,57.01l-0.96,4.92c-0.2,0.98-0.51,1.49-1.36,1.49c-0.22,0-0.43-0.06-0.72-0.2l-0.26,1.31
		c0.31,0.12,0.64,0.2,1.25,0.2c1.26,0,2.34-0.65,2.68-2.38l1.04-5.35h-1.67V57.01z"/>
	<polygon class="st0" points="132.9,58.34 133.15,57 127.49,57 127.23,58.34 130.84,58.34 126.14,63.3 125.88,64.66 132.08,64.66 
		132.34,63.3 128.26,63.3 	"/>
	<path class="st0" d="M160.79,62.34c0.35-0.64,0.62-1.66,0.62-2.46c0-0.48-0.13-0.93-0.33-1.22c-0.22-0.31-0.63-0.51-1.22-0.51
		c-0.9,0-1.5,0.46-1.97,1.25c-0.46,0.78-0.6,1.76-0.59,2.4c0.01,0.48,0.12,0.89,0.38,1.22c0.24,0.31,0.71,0.49,1.13,0.49
		C159.6,63.52,160.27,63.28,160.79,62.34L160.79,62.34z M155.56,61.62c0-2.67,1.95-4.73,4.52-4.73c1.9,0,3.06,1.28,3.06,3.07
		c0,2.72-1.68,4.83-4.51,4.82c-1.07,0-1.63-0.33-2.19-0.87C155.92,63.4,155.56,62.5,155.56,61.62z"/>
	<path class="st0" d="M138.35,62.34c0.35-0.64,0.62-1.66,0.62-2.46c0-0.48-0.13-0.93-0.33-1.22c-0.22-0.31-0.63-0.51-1.22-0.51
		c-0.9,0-1.5,0.46-1.97,1.25c-0.46,0.78-0.6,1.76-0.59,2.4c0.01,0.48,0.12,0.89,0.38,1.22c0.24,0.31,0.71,0.49,1.13,0.49
		C137.16,63.52,137.84,63.28,138.35,62.34L138.35,62.34z M133.12,61.62c0-2.67,1.95-4.73,4.52-4.73c1.9,0,3.06,1.28,3.06,3.07
		c0,2.72-1.68,4.83-4.51,4.82c-1.07,0-1.63-0.33-2.19-0.87C133.49,63.4,133.12,62.5,133.12,61.62z"/>
	<polygon class="st0" points="188.99,57 182.89,57 182.63,58.32 184.86,58.32 183.65,64.66 185.28,64.66 186.51,58.32 188.75,58.32 
			"/>
	<path class="st0" d="M146.39,59.55c-0.16,0.84-0.88,1.26-2.54,1.26h-0.39l0.49-2.57h0.63C145.95,58.24,146.56,58.66,146.39,59.55
		L146.39,59.55z M147.1,57.38c-0.57-0.26-1.41-0.38-2.65-0.38h-1.93l-1.47,7.65h1.67l0.52-2.69h0.45c0.92,0,1.87-0.12,2.48-0.33
		c1.11-0.39,1.69-1.18,1.88-2.15C148.22,58.57,147.95,57.79,147.1,57.38z"/>
</g>
</svg>
