<?xml version="1.0" encoding="utf-8"?>
<!-- Generator: Adobe Illustrator 25.1.0, SVG Export Plug-In . SVG Version: 6.00 Build 0)  -->
<svg version="1.1" id="Warstwa_1" xmlns="http://www.w3.org/2000/svg" xmlns:xlink="http://www.w3.org/1999/xlink" x="0px" y="0px"
	 viewBox="0 0 210 120" style="enable-background:new 0 0 210 120;" xml:space="preserve">
<style type="text/css">
	.st0{fill:#9F9F9F;}
	.st1{opacity:0.85;}
</style>
<g>
	<g id="Logotype">
		<g>
			<path class="st0" d="M101.97,63.33c-0.51,0.17-1.02,0.29-1.51,0.35c-0.58,0.07-1.08,0.11-1.49,0.11c-0.86,0-1.63-0.14-2.27-0.4
				c-0.63-0.26-1.17-0.64-1.6-1.1c-0.43-0.47-0.75-1.04-0.96-1.7c-0.22-0.67-0.33-1.41-0.33-2.2c0-0.79,0.11-1.53,0.34-2.2
				c0.22-0.67,0.55-1.25,0.97-1.73c0.42-0.48,0.94-0.86,1.55-1.12c0.62-0.27,1.33-0.41,2.12-0.41c0.48,0,0.94,0.04,1.37,0.1
				c0.36,0.06,0.75,0.17,1.18,0.34c-0.03,0.31-0.1,0.61-0.2,0.91c-0.09,0.27-0.18,0.5-0.27,0.71c-0.1-0.03-0.2-0.06-0.29-0.09
				c-0.18-0.06-0.36-0.1-0.52-0.13c-0.17-0.03-0.33-0.06-0.5-0.08c-0.17-0.02-0.34-0.02-0.53-0.02c-0.95,0-1.69,0.33-2.21,0.98
				c-0.51,0.63-0.76,1.55-0.76,2.75c0,1.19,0.25,2.1,0.75,2.7c0.51,0.63,1.27,0.94,2.26,0.94c0.22,0,0.42-0.02,0.6-0.05l0.28-0.06
				V58.2c0.16-0.02,0.3-0.04,0.44-0.05c0.4-0.04,0.7-0.04,1.18,0c0.14,0.01,0.28,0.03,0.42,0.05V63.33z M110.21,63.66
				c0.57,0.04,0.94,0.04,1.48,0c0.11-0.01,0.21-0.02,0.31-0.03l-2.34-4.62l0.23-0.17c0.15-0.11,0.31-0.25,0.47-0.42
				c0.15-0.16,0.29-0.34,0.42-0.56c0.13-0.21,0.23-0.46,0.31-0.74c0.08-0.27,0.12-0.59,0.12-0.94c0-0.65-0.13-1.19-0.37-1.6
				c-0.25-0.42-0.58-0.75-0.97-0.99c-0.41-0.25-0.88-0.42-1.41-0.52c-1.01-0.19-2.06-0.19-2.97-0.09c-0.34,0.04-0.71,0.08-1.1,0.12
				v10.51c0.4,0.06,0.75,0.09,1.04,0.09c0.27,0,0.61-0.03,1.01-0.09V54.8l0.18-0.1c0.07-0.04,0.15-0.05,0.25-0.07
				c0.09-0.01,0.19-0.02,0.32-0.02c0.5,0,0.94,0.15,1.29,0.44c0.37,0.31,0.56,0.78,0.56,1.4c0,0.31-0.05,0.61-0.15,0.89
				c-0.1,0.27-0.22,0.52-0.36,0.75c-0.14,0.22-0.3,0.42-0.47,0.58c-0.12,0.12-0.24,0.21-0.35,0.29l2.01,4.64
				C109.85,63.63,110.02,63.65,110.21,63.66z M120.66,62.59c0.29-0.39,0.5-0.87,0.62-1.43c0.12-0.59,0.19-1.26,0.19-2V53.1
				c-0.17-0.02-0.32-0.04-0.46-0.04c-0.41-0.03-0.72-0.03-1.14,0c-0.13,0.01-0.29,0.03-0.47,0.05v5.74c0,0.52-0.02,0.98-0.06,1.36
				c-0.04,0.4-0.12,0.74-0.25,1c-0.14,0.3-0.35,0.52-0.63,0.65c-0.25,0.12-0.56,0.18-0.94,0.18c-0.38,0-0.69-0.06-0.93-0.19
				c-0.26-0.13-0.47-0.35-0.62-0.65c-0.13-0.26-0.21-0.6-0.26-1c-0.04-0.38-0.06-0.82-0.06-1.36V53.1
				c-0.17-0.02-0.32-0.04-0.45-0.04c-0.43-0.03-0.76-0.03-1.16,0c-0.14,0.01-0.29,0.03-0.46,0.05v6.06c0,0.74,0.06,1.42,0.19,2
				c0.12,0.56,0.33,1.04,0.62,1.43c0.29,0.39,0.67,0.67,1.17,0.88c0.51,0.21,1.17,0.32,1.96,0.32c0.79,0,1.45-0.11,1.96-0.32
				C119.98,63.27,120.37,62.97,120.66,62.59z M123.96,53.1c0.21-0.03,0.48-0.06,0.79-0.09c0.48-0.06,1.09-0.08,1.82-0.08
				c0.52,0,1.06,0.05,1.6,0.15c0.52,0.1,0.99,0.28,1.4,0.54c0.4,0.25,0.73,0.61,0.98,1.08c0.25,0.47,0.38,1.09,0.38,1.86
				c0,0.68-0.1,1.25-0.3,1.69c-0.2,0.43-0.46,0.78-0.79,1.04c-0.33,0.26-0.71,0.45-1.14,0.56c-0.62,0.16-1.27,0.2-1.94,0.15
				c-0.18-0.01-0.3-0.03-0.37-0.05l-0.43-0.11v3.78c-0.15,0.02-0.29,0.04-0.42,0.05c-0.53,0.05-0.93,0.04-1.58-0.06V53.1z
				 M125.96,58.29l0.22,0.09c0.09,0.04,0.2,0.06,0.36,0.07c0.13,0.01,0.27,0.02,0.42,0.02c0.53,0,0.98-0.16,1.32-0.48
				c0.35-0.33,0.53-0.81,0.53-1.44c0-0.35-0.05-0.66-0.16-0.92c-0.11-0.26-0.27-0.48-0.46-0.65c-0.19-0.16-0.42-0.28-0.68-0.34
				c-0.23-0.06-0.48-0.09-0.74-0.09h-0.22c-0.1,0-0.19,0.01-0.29,0.02l-0.3,0.04V58.29z M136.91,53.1l3.25,10.53
				c-0.67,0.08-1.18,0.1-1.7,0.05c-0.14-0.01-0.28-0.03-0.43-0.06l-0.62-2.29l-0.34,0.1c-0.28,0.08-0.54,0.14-0.79,0.18
				c-0.47,0.07-0.94,0.08-1.41,0.01c-0.24-0.03-0.48-0.09-0.74-0.15l-0.33-0.09l-0.61,2.25c-0.15,0.02-0.29,0.04-0.42,0.05
				c-0.37,0.04-0.69,0.04-1.15-0.01c-0.13-0.01-0.26-0.03-0.41-0.05l3.3-10.52c0.18-0.02,0.36-0.04,0.52-0.05
				c0.41-0.04,0.8-0.04,1.29,0C136.51,53.06,136.7,53.08,136.91,53.1z M137.06,59.97l-1.4-5.66l-1.47,5.64l0.32,0.09
				c0.19,0.06,0.36,0.1,0.53,0.13c0.18,0.04,0.36,0.05,0.55,0.05c0.19,0,0.38-0.01,0.57-0.04c0.18-0.03,0.38-0.07,0.58-0.13
				L137.06,59.97z"/>
		</g>
		<g>
			<path class="st0" d="M103.85,87.42V79.2H97.7v8.21c-0.72,0.11-1.34,0.16-1.83,0.16c-0.52,0-1.15-0.05-1.86-0.16v-18.8
				c0.29-0.04,0.55-0.07,0.8-0.09c0.79-0.07,1.33-0.07,2.1,0c0.25,0.02,0.51,0.05,0.79,0.09v7.45h6.16v-7.45
				c0.28-0.04,0.55-0.07,0.79-0.09c0.75-0.07,1.32-0.07,2.11,0c0.25,0.02,0.51,0.05,0.79,0.09v18.8
				C106.06,87.64,105.24,87.62,103.85,87.42z M120.94,68.62l5.81,18.81c-1.19,0.15-2.11,0.18-3.03,0.09
				c-0.24-0.03-0.5-0.06-0.77-0.1l-1.12-4.09l-0.6,0.17c-0.5,0.14-0.97,0.25-1.41,0.32c-0.83,0.13-1.68,0.14-2.53,0.01
				c-0.42-0.06-0.87-0.15-1.32-0.28l-0.59-0.16l-1.09,4.02c-0.26,0.04-0.51,0.07-0.74,0.1c-0.66,0.07-1.24,0.07-2.05-0.01
				c-0.23-0.02-0.47-0.06-0.73-0.09l5.9-18.8c0.33-0.04,0.64-0.07,0.94-0.09c0.73-0.06,1.43-0.08,2.31,0
				C120.22,68.55,120.56,68.59,120.94,68.62z M121.2,80.89l-2.51-10.11l-2.63,10.07l0.57,0.17c0.33,0.1,0.65,0.18,0.94,0.24
				c0.32,0.06,0.65,0.1,0.98,0.1c0.35,0,0.69-0.03,1.03-0.08c0.33-0.05,0.67-0.12,1.03-0.23L121.2,80.89z M141.16,84.32
				c0.31-0.71,0.46-1.52,0.46-2.41c0-0.83-0.11-1.54-0.32-2.11c-0.21-0.56-0.51-1.04-0.89-1.43c-0.4-0.4-0.88-0.76-1.44-1.05
				c-0.61-0.32-1.29-0.63-2.05-0.94l-1.33-0.53c-0.53-0.2-1-0.45-1.39-0.74c-0.36-0.26-0.78-0.77-0.78-1.69
				c0-0.43,0.1-0.8,0.29-1.11c0.19-0.3,0.43-0.54,0.74-0.72c0.26-0.15,0.57-0.26,0.9-0.33c0.31-0.06,0.64-0.1,0.97-0.1
				c1.03,0,1.91,0.12,2.62,0.37c0.43,0.15,0.82,0.29,1.17,0.43c0.18-0.44,0.34-0.91,0.47-1.38c0.13-0.49,0.24-0.95,0.31-1.38
				c-0.79-0.26-1.55-0.47-2.27-0.62c-1.77-0.37-3.79-0.36-5.29,0.11c-0.77,0.24-1.43,0.6-1.96,1.07c-0.53,0.47-0.95,1.04-1.25,1.72
				c-0.3,0.68-0.45,1.48-0.45,2.37c0,0.72,0.1,1.35,0.28,1.88c0.19,0.52,0.45,0.98,0.79,1.38c0.35,0.41,0.77,0.76,1.26,1.06
				c0.51,0.31,1.09,0.58,1.71,0.81l1.57,0.59c0.26,0.1,0.5,0.2,0.74,0.3c0.28,0.12,0.54,0.28,0.76,0.46c0.25,0.2,0.45,0.45,0.6,0.74
				c0.16,0.3,0.24,0.66,0.24,1.05c0,1.18-0.61,1.75-1.11,2.03c-1.33,0.72-3.69,0.74-6.58-0.4c-0.17,0.53-0.32,1.06-0.45,1.57
				c-0.13,0.53-0.24,1.03-0.31,1.51c0.82,0.29,1.59,0.52,2.3,0.67c0.83,0.18,1.82,0.26,2.92,0.26c1.19,0,2.26-0.14,3.17-0.43
				c0.89-0.28,1.65-0.68,2.25-1.19C140.4,85.62,140.86,85.02,141.16,84.32z M157.43,87.27c0.31-0.09,0.64-0.19,0.98-0.31
				c-0.18-1-0.47-1.99-0.87-2.95c-0.56,0.18-1.04,0.31-1.47,0.4c-0.56,0.12-1.17,0.18-1.81,0.18c-2.54,0-5.57-1.13-5.57-6.51
				c0-2.14,0.46-3.79,1.38-4.91c0.94-1.16,2.28-1.74,3.97-1.74c0.34,0,0.65,0.01,0.95,0.04c0.3,0.03,0.6,0.07,0.89,0.13
				c0.3,0.06,0.61,0.14,0.93,0.24c0.16,0.05,0.33,0.1,0.51,0.16c0.17-0.4,0.34-0.84,0.5-1.31c0.17-0.52,0.29-1.06,0.35-1.6
				c-0.77-0.28-1.48-0.48-2.12-0.58c-0.76-0.12-1.58-0.19-2.43-0.19c-1.41,0-2.68,0.25-3.79,0.73c-1.1,0.48-2.03,1.15-2.77,2.01
				c-0.75,0.86-1.33,1.9-1.73,3.09c-0.4,1.2-0.61,2.52-0.61,3.94s0.2,2.73,0.58,3.93c0.38,1.17,0.95,2.2,1.7,3.04
				c0.74,0.84,1.68,1.5,2.79,1.97c1.11,0.48,2.43,0.72,3.92,0.72c0.43,0,0.85-0.01,1.25-0.04c0.4-0.03,0.8-0.07,1.21-0.13
				C156.57,87.48,156.99,87.39,157.43,87.27z M172.08,87.04c-1.01,0.47-2.24,0.71-3.66,0.71c-1.42,0-2.66-0.24-3.68-0.71
				c-1.01-0.47-1.85-1.13-2.5-1.96c-0.66-0.85-1.16-1.87-1.48-3.04c-0.33-1.19-0.49-2.51-0.49-3.94c0-1.43,0.17-2.76,0.49-3.97
				c0.32-1.18,0.82-2.22,1.48-3.08c0.65-0.84,1.49-1.52,2.5-2c1.02-0.49,2.25-0.73,3.67-0.73c1.42,0,2.65,0.25,3.65,0.73
				c1,0.48,1.84,1.16,2.49,2c0.66,0.86,1.16,1.9,1.48,3.08c0.33,1.21,0.49,2.54,0.49,3.97c0,1.42-0.17,2.75-0.49,3.94
				c-0.32,1.17-0.82,2.19-1.48,3.04C173.92,85.91,173.08,86.57,172.08,87.04z M172.6,78.1c0-4.43-1.4-6.68-4.15-6.68
				c-2.81,0-4.23,2.25-4.23,6.68c0,2.15,0.32,3.73,0.96,4.83c0.69,1.17,1.81,1.79,3.24,1.79C171.19,84.72,172.6,82.49,172.6,78.1z"
				/>
		</g>
	</g>
	<g>
		<g>
			<path class="st0" d="M61.16,90.01l-0.91-0.17c-2.06-0.38-4.51-1.03-7.27-1.94c-4.07-1.34-7.55-2.82-8.51-3.24l-0.22-0.1
				l-0.08-0.23c-0.02-0.05-2.04-5.52-3.17-13.76c-0.64-5.61-0.7-8.21-0.7-13.69c0.26-7.33,1.56-14.3,3.87-20.74l0.07-0.19l0.18-0.1
				c5.3-3.17,11.61-6.26,19.29-9.44l1.34-0.56l-0.6,1.32c-0.03,0.06-2.59,5.74-4.61,14.74l-0.09,0.41
				c-2.47,11.19-4.26,28.38,1.17,46.79L61.16,90.01z M45.15,83.71c1.19,0.51,4.43,1.87,8.19,3.1c2.31,0.76,4.4,1.34,6.21,1.72
				c-5.18-18.3-3.38-35.32-0.93-46.45l0.09-0.42c1.49-6.61,3.27-11.47,4.14-13.66c-6.97,2.94-12.76,5.8-17.68,8.73
				c-2.23,6.28-3.48,13.07-3.74,20.17c0.01,5.54,0.07,7.98,0.7,13.54C43.1,77.61,44.76,82.62,45.15,83.71z"/>
		</g>
		<g>
			<path class="st0" d="M42.88,85.4l-0.86-0.2c-0.03-0.01-2.95-0.7-6.59-2.05l-0.25-0.09l-0.09-0.25
				c-3.53-10.17-0.24-24.6-0.1-25.21l0.08-0.36l0.36-0.07c0.02-0.01,2.47-0.51,5.36-0.85l0.64-0.08l0,0.68
				c0.01,5.52,0.07,7.96,0.7,13.52c-0.62,7.8,0.58,14.04,0.59,14.1L42.88,85.4z M36.08,82.17c2.31,0.85,4.29,1.42,5.36,1.7
				c-0.31-2.02-0.95-7.27-0.46-13.42c-0.61-5.27-0.69-7.88-0.7-12.93c-1.92,0.25-3.56,0.55-4.26,0.69
				C35.54,60.5,33.09,73.2,36.08,82.17z"/>
		</g>
		<g>
			<path class="st0" d="M40.99,70.57c-0.63-5.6-0.7-8.19-0.7-13.67l0-0.51l0.5-0.08c1.44-0.17,2.74-0.28,3.89-0.31l0.87-0.03
				l-0.32,0.81c-1.66,4.22-2.71,8.85-3.1,13.77L40.99,70.57z M41.42,57.39c0.01,3.27,0.04,5.46,0.21,7.98
				c0.51-2.86,1.25-5.59,2.21-8.19C43.1,57.22,42.29,57.29,41.42,57.39z"/>
		</g>
		<g>
			<path class="st0" d="M80.2,89.9l-0.75-0.05c-7.22-0.44-8.51-0.88-8.63-0.93l-0.22-0.09l-0.09-0.22c-0.06-0.15-6.11-15-0.11-34.11
				l0.09-0.28l0.27-0.09c3.23-1.1,7.2-1.89,11.79-2.34l0.99-0.1l-0.41,0.9c-0.08,0.16-7.43,16.54-3.07,36.56L80.2,89.9z
				 M71.45,87.92c0.55,0.12,2.34,0.43,7.31,0.75c-3.55-17.39,1.47-31.94,2.93-35.64c-3.93,0.44-7.47,1.16-10.31,2.1
				C66.09,72.32,70.7,85.91,71.45,87.92z"/>
		</g>
		<g>
			<path class="st0" d="M68.41,94.14l-0.77-0.07c-7.31-0.63-13.62-2.45-13.68-2.47l-0.29-0.08l-0.09-0.28
				c-0.02-0.05-0.45-1.38-0.98-3.76l-0.14-0.64c-1.13-5.36-4.55-21.66,2.27-43.34l0.08-0.25l0.23-0.1c1.15-0.51,2.48-1.01,3.96-1.48
				c4.52-1.44,9.8-2.42,13.79-2.55l0.99-0.03l-0.47,0.87c-0.12,0.22-11.61,22.22-5.06,53.44L68.41,94.14z M54.58,90.59
				c1.26,0.34,6.41,1.69,12.4,2.27c-5.59-27.72,2.84-48.16,4.89-52.57c-3.76,0.24-8.45,1.15-12.53,2.45
				c-1.34,0.43-2.55,0.87-3.61,1.34c-6.63,21.28-3.27,37.26-2.16,42.52l0.12,0.55C54.09,88.91,54.42,90.09,54.58,90.59z"/>
		</g>
		<g class="st1">
			<path class="st0" d="M61.16,90.01l-0.91-0.17c-2.06-0.38-4.51-1.03-7.27-1.94l-0.31-0.1l-0.21-0.96
				c-1.13-5.36-4.55-21.66,2.27-43.34l0.08-0.25l0.23-0.1c1.15-0.51,2.48-1.01,3.96-1.48l0.94-0.3l-0.21,0.97
				c-2.47,11.19-4.26,28.38,1.17,46.79L61.16,90.01z M53.64,86.92c2.19,0.71,4.17,1.26,5.9,1.62c-5.03-17.77-3.48-34.34-1.14-45.48
				c-0.97,0.33-1.86,0.67-2.66,1.02c-6.63,21.28-3.27,37.26-2.16,42.52L53.64,86.92z"/>
		</g>
	</g>
</g>
</svg>
