<?xml version="1.0" encoding="utf-8"?>
<!-- Generator: Adobe Illustrator 19.0.0, SVG Export Plug-In . SVG Version: 6.00 Build 0)  -->
<svg version="1.1" id="Warstwa_1" xmlns="http://www.w3.org/2000/svg" xmlns:xlink="http://www.w3.org/1999/xlink" x="0px" y="0px"
	 viewBox="0 0 210.1 120.1" style="enable-background:new 0 0 210.1 120.1;" xml:space="preserve">
<style type="text/css">
	.st0{fill:#FEFEFE;}
	.st1{fill:#A0A0A0;}
	.st2{fill:#9F9F9F;}
	.st3{fill:#A1A1A1;}
	.st4{fill:#A2A2A2;}
	.st5{fill:#B3B3B3;}
	.st6{fill:#A6A6A6;}
	.st7{fill:#F9F9F9;}
	.st8{fill:#BCBCBC;}
	.st9{fill:#A4A4A4;}
	.st10{fill:#ACACAC;}
	.st11{fill:#A9A9A9;}
	.st12{fill:#9E9E9E;}
	.st13{fill:#BBBBBB;}
	.st14{fill:#C8C8C8;}
	.st15{fill:#DADADA;}
	.st16{fill:#CCCCCC;}
	.st17{fill:#C2C2C2;}
	.st18{fill:#BABABA;}
	.st19{fill:#B4B4B4;}
	.st20{fill:#ABABAB;}
	.st21{fill:#B0B0B0;}
	.st22{fill:#C5C5C5;}
	.st23{fill:#F8F8F8;}
	.st24{fill:#CACACA;}
	.st25{fill:#AEAEAE;}
	.st26{fill:#B1B1B1;}
	.st27{fill:#B6B6B6;}
	.st28{fill:#ADADAD;}
	.st29{fill:#AAAAAA;}
	.st30{fill:#9D9D9D;}
	.st31{fill:#BDBDBD;}
	.st32{fill:#C3C3C3;}
	.st33{fill:#C0C0C0;}
	.st34{fill:#B2B2B2;}
	.st35{fill:#B8B8B8;}
	.st36{fill:#AFAFAF;}
	.st37{fill:#A5A5A5;}
	.st38{fill:#A7A7A7;}
	.st39{fill:#B5B5B5;}
	.st40{fill:#A8A8A8;}
	.st41{fill:#B9B9B9;}
	.st42{fill:#BEBEBE;}
	.st43{fill:#FDFDFD;}
	.st44{fill:#F4F4F4;}
	.st45{fill:#FBFBFB;}
	.st46{fill:#A3A3A3;}
	.st47{fill:#F0F0F0;}
	.st48{fill:#EFEFEF;}
	.st49{fill:#FAFAFA;}
	.st50{fill:#F2F2F2;}
	.st51{fill:#C4C4C4;}
	.st52{fill:#C7C7C7;}
	.st53{fill:#F6F6F6;}
</style>
<g>
	<path class="st0" d="M-0.1,120c0-40,0-80,0-120c70,0,140,0,210,0c0,40,0,80,0,120C139.9,120,69.9,120-0.1,120z M83.9,54
		c0-0.3,0-0.7,0-1c0.2,0,0.4,0.1,0.5,0c0.2-0.2,0.3-0.4,0.6-0.9c-3.3-0.4-6.1,1.2-9,1.5c0,0,0,0.3,0,0.5c-0.7,0-1.3,0-2,0
		c-0.3,0-0.7,0-1,0c-1.5-0.1-0.8-1.2-1-2c0-0.3,0-0.7,0-1s0-0.7,0-1s0-0.7,0-1c0.3-0.3,0.7-0.7,1-1c0-0.3,0-0.7,0-1s0-0.7,0-1
		c1.5-0.1,0.8-1.2,1-2c1.5-0.1,0.8-1.2,1-2c0-0.3,0-0.7,0-1c0.3-0.2,0.6-0.3,1-0.5c-0.3-0.3-0.4-0.5-0.5-0.5c-1.5,0.4-3.4-1-4.5,1
		c-1,0-2,0-3,0c-1.7,0.3-3.3,0.7-5,1c0-0.3,0-0.7,0-1s0-0.7,0-1c0.3-0.3,0.7-0.7,1-1c0-0.3,0-0.7,0-1s0-0.7,0-1c1.5-0.1,0.8-1.2,1-2
		c0-0.3,0-0.7,0-1c1.5-0.1,0.8-1.2,1-2c0-0.3,0-0.7,0-1c0.3-0.3,0.7-0.7,1-1c-0.1-0.7-0.2-1.3-0.3-2c-0.7,0.4-1.2,0.7-1.7,1
		c-0.3,0.3-0.7,0.7-1,1c-1,0.4-2.5-0.9-3,1c-0.3,0-0.7,0-1,0c-0.3,0.3-0.7,0.7-1,1c-0.3,0-0.7,0-1,0c-0.3,0.3-0.7,0.7-1,1
		c-0.3,0-0.7,0-1,0s-0.7,0-1,0c-0.3,0.3-0.7,0.7-1,1c-0.3,0.3-0.7,0.7-1,1c-0.3,0-0.7,0-1,0c-0.3,0.3-0.7,0.7-1,1c-0.3,0-0.7,0-1,0
		c-1.6,0.9-3.2,1.8-3,4c0,0.3,0,0.7,0,1s0,0.7,0,1c-0.3,0.3-0.7,0.7-1,1c0,0.3,0,0.7,0,1s0,0.7,0,1s0,0.7,0,1c-1.5,0.1-0.8,1.2-1,2
		c0,0.3,0,0.7,0,1s0,0.7,0,1s0,0.7,0,1s0,0.7,0,1c-0.3,0.4-0.9,0.7-1,1.2c-0.1,0.9,0,1.9,0,2.8c0,0.3,0,0.7,0,1c-1.3,0-2.7,0-4,0
		c-0.2,0-0.5,0-0.5,0c-0.5,2.7-1,5.3-1.5,8c0,3.6-0.1,7.3,0,10.9c0,1,0.6,2,1,3.1c0,0.3,0,0.7,0,1c0.2,0.8-0.5,1.9,1,2
		c0.7,0,1.3,0,2,0c0.5,1.9,2,0.6,3,1c0.5,0.4,0.9,0.8,1.2,1.1c0.7-0.9,1.3-1.5,1.8-2.1c0.3,0.3,0.7,0.7,1,1s0.7,0.7,1,1
		c0.3,0,0.7,0,1,0c0.3,0.3,0.7,0.7,1,1c0.3,0,0.7,0,1,0s0.7,0,1,0c0.6,0.5,1.2,1,1.9,1.6c-0.1,1.4,0.1,2.9,2.1,3.4c0.3,0,0.7,0,1,0
		s0.7,0,1,0c0.1,1.5,1.2,0.8,2,1c0.3,0,0.7,0,1,0c0.3,0,0.7,0,1,0s0.7,0,1,0c0.5,1.9,2,0.6,3,1c0.7,0,1.3,0,2,0
		c0.3-0.3,0.7-0.5,1-0.8c-0.3-0.4-0.7-0.8-1-1.2c0-0.3,0-0.7,0-1s0-0.7,0-1c0-0.7,0-1.3,0-2c0-1,0-2,0-3c0.2-0.8-0.5-1.9,1-2
		c0,0.3,0,0.7,0,1c0.2,0.8-0.5,1.9,1,2c0,0.3,0,0.7,0,1c0.2,0.8-0.5,1.9,1,2c0.4,0.3,0.7,0.9,1.2,1c0.9,0.1,1.9,0,2.8,0
		c0.7,0,1.3,0,2,0c0.3,0,0.7,0,1,0s0.7,0,1,0c0.3-0.3,0.7-0.5,1-0.8c-0.3-0.4-0.7-0.8-1-1.2c0-0.3,0-0.7,0-1s0-0.7,0-1
		c0-0.7,0-1.3,0-2c0-0.3,0-0.7,0-1c0-4.3,0-8.7,0-13c-0.7-2.2,1-3.9,1-6c0-0.7,0-1.3,0-2c0.3-0.4,1-0.8,0.9-1.2
		c-0.1-1.4,0.2-2.7,1.1-3.8C83.9,54.7,83.9,54.3,83.9,54z M130.9,63c0.3-0.3,0.7-0.7,1-1c1.3,0,2.7,0,4,0c0,0.3,0,0.7,0,1
		c0.1,0.3,0.2,0.6,0.3,0.8c0.2-0.3,0.4-0.6,0.7-0.8c0.3-0.1,0.6-0.2,0.8-0.3c-0.3-0.2-0.6-0.4-0.8-0.7c0-0.7,0-1.3,0-2
		c-0.2-0.8,0.5-1.9-1-2c0.3-2-0.5-3.6-2-5.3c-0.4,0.5-0.7,0.9-1,1.3c-1.9,0.5-0.6,2-1,3c-0.3,0.3-0.7,0.7-1,1c0,0.7,0,1.3,0,2
		c-0.3,0.3-0.7,0.7-1,1c0,0.3,0,0.7,0,1C130.2,62.3,130.6,62.7,130.9,63z M109.9,59c0-0.3,0-0.7,0-1c1.4-1,1.4-2,0-3
		c-3.5-2.5-3.5-2.5-5.9-0.5c0,2.9,0,5.6,0,8.3c0.2-0.1,0.3-0.2,0.5-0.4c0.2,0.6,0.5,1.1,0.8,1.9c0.3-0.8,0.4-1.1,0.5-1.3
		c0.3-0.4,0.8-0.8,1-1.3c0.2-0.7-0.3-1.7,1-1.7c0.2,0.8-0.5,1.9,1,2c0.3,0.3,0.5,0.7,0.8,1c0.4-0.3,0.8-0.7,1.2-1
		c-0.3-0.3-0.7-0.7-1-1c0-0.3,0-0.7,0-1S109.9,59.3,109.9,59z M100.9,54c-1-1.4-2-1.4-3,0c-0.8,0.2-1.9-0.5-2,1
		c-0.3,0.3-0.7,0.7-1,1c0,0.3,0,0.7,0,1c-1.4,1-1.4,2,0,3c0,0.3,0,0.7,0,1c0.3,0.3,0.7,0.7,1,1c3.3,2.4,3.3,2.4,5.8,0.7
		c0-1.6,0-3.1,0-4.8c-0.7,0.1-1.1,0.2-1.7,0.2c-0.1,1.3-0.2,2.6-0.3,4.2c-1.2-0.6-2-1-2.8-1.3c0-0.3,0-0.7,0-1c0-1,0-2,0-3
		c0-0.3,0-0.7,0-1c1.2-0.9,2.6-1.1,4-1c0.3-0.1,0.6-0.2,0.8-0.3C101.5,54.4,101.2,54.2,100.9,54z M123.9,63c1.9-0.5,0.6-2,1-3
		c0.7,0,1.3,0,2,0c0.3-0.3,0.7-0.7,1-1c0.3-0.3,0.9-0.5,1-0.8c0-1.4-0.1-2.8-0.1-4.2c-0.8,0-1.3,0-1.8,0c-1.3-1.4-2.7-1.4-4,0
		c0,3,0,6,0,9c0.1,0.3,0.2,0.6,0.3,0.8C123.5,63.6,123.7,63.3,123.9,63z M114.9,63c1,1.4,2,1.4,3,0c0.3,0,0.7,0,1,0
		c0.3-0.3,0.7-0.7,1-1c-0.1-3,0.3-6-0.3-9.6c-0.4,1-0.5,1.3-0.7,1.6c-0.3,0.4-0.9,0.8-1,1.2c-0.1,1.9,0,3.9,0,5.8
		c-0.1,1.5-1.2,0.8-2,1c-0.3-0.3-0.7-0.7-1-1c-0.1-2.7,0.2-5.4-0.2-8.2c-0.9,0.2-1.3,0.4-1.8,0.5c0,2.9,0,5.6,0,8.4
		C113.6,62.1,114.3,62.6,114.9,63z M156.9,80.8c1.4,1.7,3,3.5,4.3,5.1c2.4,0,4.4,0,6.6,0c1.4-1.8,2.8-3.7,4-5.3c0-2.7,0-5,0-7.5
		c-1.4-1.7-2.9-3.5-4.3-5.1c-5.4,0-5.4,0-8.6,1.6C156.9,74.2,156.9,74.2,156.9,80.8z M106.7,85.9c0-6.2,0-12,0-17.8
		c-1,0-1.7,0-2.9,0c0,2.3,0,4.6,0,6.8c-2.1,0-3.9,0-6.1,0c0-2.4,0-4.6,0-6.7c-1.1,0-1.9,0-2.7,0c0,5.9,0,11.7,0,17.5
		c0,0.1,0.2,0.2,0.1,0.1c1,0,1.8,0,2.7,0c0-2.6,0-5.1,0-7.6c2.1,0,4,0,6.1,0c0,2.7,0,5.1,0,7.7C105,85.9,105.8,85.9,106.7,85.9z
		 M125.1,86.1c-1.5-6.5-3.2-12.3-5.5-17.9c-1.3,0-2.4,0-4,0c-1.5,5.9-4,11.5-4.9,17.8c1.3,0,2.1,0,2.7,0c0.5-1.4,1-2.7,1.5-3.9
		c1.2,0,2.1,0,2.9,0c1,0,1.9,0,2.8,0C121.4,85.6,121.4,85.6,125.1,86.1z M127.5,82.6c0.5,1.2,1,2.3,1.4,3.3c3.8,0.2,7.2,0.7,9.9-2.3
		c0-1.7,0-3.5,0-5.6c-2.3-1.5-4.7-3-6.9-4.4c0.1-1,0.1-1.8,0.1-2.7c2.1,0,3.9,0,5.7,0c-0.1-0.2-0.3-0.4-0.4-0.6
		c0.6-0.2,1.2-0.5,1.7-0.7c-0.7-0.7-1-1-1.4-1.4c-5.3-0.4-5.3-0.4-8.8,1.2c-0.4,1.6-0.8,3.3-1.2,4.7c1.4,1.4,2.6,2.6,3.7,3.8
		c0.7,0,1.4,0,2,0c0.5,0.5,0.9,0.9,1.4,1.4c0,1.2,0,2.3,0,3.7C132.5,82.9,130.3,82.8,127.5,82.6z M155.8,68.2c-3.5,0-5.9,0-8.6,0
		c-4,2.6-5.3,5.2-5.2,11.3c4.3,7,4.3,7,12.9,6.1c0-0.8,0-1.6,0-2.2c-2.7-0.5-5.3-1-7.6-1.4c-1.9-4.3-2.1-7.9,1.3-11.2
		c1.6,0,3.4,0,5.1,0C154.2,70.2,154.7,69.6,155.8,68.2z"/>
	<path class="st1" d="M156.9,80.8c0-6.6,0-6.6,2-11.3c3.2-1.6,3.2-1.6,8.6-1.6c1.4,1.6,2.9,3.4,4.3,5.1c0,2.6,0,4.9,0,7.5
		c-1.2,1.6-2.7,3.5-4,5.3c-2.2,0-4.2,0-6.6,0C159.9,84.4,158.4,82.6,156.9,80.8z M167.9,80.5c0-2.3,0.1-4.7-0.1-7
		c-0.1-0.8-0.9-1.6-1.5-2.5c-1.7,0.2-3.8-0.8-5.5,1.6c0.4,3.3-0.9,7.1,1.6,10.3c1,0,2,0,2.9,0C166.3,82.1,167.1,81.3,167.9,80.5z"/>
	<path class="st2" d="M106.7,85.9c-1,0-1.7,0-2.7,0c0-2.5,0-5,0-7.7c-2.1,0-4,0-6.1,0c0,2.5,0,4.9,0,7.6c-1,0-1.7,0-2.7,0
		c0.1,0.1-0.1,0-0.1-0.1c0-5.8,0-11.6,0-17.5c0.8,0,1.6,0,2.7,0c0,2.1,0,4.3,0,6.7c2.1,0,3.9,0,6.1,0c0-2.2,0-4.4,0-6.8
		c1.1,0,1.9,0,2.9,0C106.7,73.9,106.7,79.7,106.7,85.9z"/>
	<path class="st3" d="M125.1,86.1c-3.7-0.5-3.7-0.5-4.5-4.1c-0.9,0-1.9,0-2.8,0c-0.8,0-1.6,0-2.9,0c-0.4,1.2-0.9,2.5-1.5,3.9
		c-0.6,0-1.4,0-2.7,0c0.9-6.2,3.4-11.9,4.9-17.8c1.6,0,2.7,0,4,0C121.9,73.7,123.6,79.6,125.1,86.1z M117.8,71.1
		c-0.2,3-2.9,5.6-1.6,8.6c1.3,0,2.5,0,4.1,0C119.3,76.7,118.6,73.9,117.8,71.1z"/>
	<path class="st3" d="M127.5,82.6c2.8,0.2,4.9,0.4,7.2,0.5c0-1.5,0-2.6,0-3.7c-0.4-0.4-0.9-0.9-1.4-1.4c-0.7,0-1.3,0-2,0
		c-1.1-1.2-2.3-2.4-3.7-3.8c0.4-1.4,0.8-3.1,1.2-4.7c3.5-1.6,3.5-1.6,8.8-1.2c0.4,0.4,0.7,0.7,1.4,1.4c-0.6,0.2-1.2,0.5-1.7,0.7
		c0.1,0.2,0.3,0.4,0.4,0.6c-1.8,0-3.6,0-5.7,0c0,0.9-0.1,1.7-0.1,2.7c2.3,1.5,4.7,3,6.9,4.4c0,2.1,0,3.9,0,5.6
		c-2.7,3-6.1,2.5-9.9,2.3C128.5,84.9,128,83.8,127.5,82.6z"/>
	<path class="st4" d="M155.8,68.2c-1.1,1.4-1.6,2-2.1,2.7c-1.7,0-3.5,0-5.1,0c-3.3,3.3-3.2,6.9-1.3,11.2c2.3,0.4,4.9,0.9,7.6,1.4
		c0,0.6,0,1.4,0,2.2c-8.5,0.9-8.6,0.9-12.9-6.1c0-6.2,1.2-8.8,5.2-11.3C149.9,68.2,152.3,68.2,155.8,68.2z"/>
	<path class="st5" d="M57.9,90c-1.9-0.5-2.1-1.9-2.1-3.4c-0.7-0.6-1.3-1.1-1.9-1.6c0-0.3,0-0.7,0-1c2.1-0.7,1.2-3,0.8-3.5
		c-1.2-1.5-0.6-3-0.8-4.5c1.5-0.1,0.8-1.2,1-2c0-0.3,0-0.7,0-1c0.3,0.4,0.9,0.8,1,1.2c0.1,3.6-0.3,7.2,1.2,10.2
		c0.8,0.7,1.3,1.1,1.8,1.5c-0.3,0.3-0.7,0.7-1,1c0,0.3,0,0.7,0,1s0,0.7,0,1S57.9,89.7,57.9,90z"/>
	<path class="st4" d="M105.9,63c-0.1,0.3-0.2,0.6-0.5,1.3c-0.3-0.8-0.6-1.3-0.8-1.9c-0.2,0.1-0.3,0.2-0.5,0.4c0-2.7,0-5.5,0-8.3
		c2.4-2,2.4-2,5.9,0.5c0,1,0,2,0,3c-0.3,0-0.7,0-1,0c0-0.7,0-1.3,0-2c-0.3-0.3-0.7-0.7-1-1c-0.3,0-0.7,0-1,0c-0.3,0.4-0.9,0.8-1,1.2
		C105.9,58.5,105.9,60.7,105.9,63z"/>
	<path class="st6" d="M126.9,54c0.5,0,1,0,1.8,0c0.1,1.4,0.2,2.8,0.1,4.2c0,0.3-0.6,0.5-1,0.8c-0.3-0.3-0.7-0.7-1-1c0-0.9,0-1.8,0-3
		c-0.8,0-1.4,0-2,0c-1.8,1.1-0.9,2.6-0.8,4c1.1,0,2,0,2.8,0c0,0.3,0,0.7,0,1c-0.7,0-1.3,0-2,0c-1.9,0.5-0.6,2-1,3c-0.3,0-0.7,0-1,0
		c0-3,0-6,0-9C124.2,54,125.6,54,126.9,54z"/>
	<path class="st7" d="M70.9,81c-1.5,0.1-0.8,1.2-1,2c-0.3,0-0.7,0-1,0c0-1.3,0-2.7,0-4c0-4.7,0-9.3,0-14c0.3,0,0.7,0,1,0
		c0,0.3,0,0.7,0,1c0.2,4.7-0.7,9.4,1,14C70.9,80.3,70.9,80.7,70.9,81z"/>
	<path class="st8" d="M80.9,68c0,4.3,0,8.7,0,13c-0.3,0.3-0.7,0.7-1,1c-1.9-0.5-0.6-2-1-3c1.4-2.1,1.4-4.9,0-7c0-0.9-0.1-1.9,0-2.8
		c0.1-0.4,0.6-0.8,1-1.2C80.2,68,80.6,68,80.9,68z"/>
	<path class="st9" d="M114.9,63c-0.6-0.4-1.3-0.9-1.9-1.3c0-2.8,0-5.6,0-8.4c0.4-0.1,0.9-0.2,1.8-0.5c0.3,2.8,0.1,5.5,0.2,8.2
		c0,0.3,0,0.7,0,1S114.9,62.7,114.9,63z"/>
	<path class="st10" d="M96.9,61c0.8,0.4,1.6,0.8,2.8,1.3c0.1-1.6,0.2-2.8,0.3-4.2c0.5-0.1,1-0.1,1.7-0.2c0,1.6,0,3.2,0,4.8
		c-2.5,1.7-2.5,1.7-5.8-0.7C96.2,61.7,96.6,61.3,96.9,61z"/>
	<path class="st2" d="M135.9,63c0-0.3,0-0.7,0-1c-0.1-1.5-1.2-0.8-2-1c0-0.3,0-0.7,0-1c1.4-0.3,1.1-1,0.6-1.9
		c-0.3-0.6-0.4-1.4-0.6-2.1c-0.3-0.7-0.7-1.3-1-2c0.3-0.4,0.6-0.8,1-1.3c1.4,1.7,2.3,3.3,2,5.3c0.2,0.8-0.5,1.9,1,2c0,0.7,0,1.3,0,2
		c0,0.3,0,0.7,0,1C136.6,63,136.2,63,135.9,63z"/>
	<path class="st11" d="M38.9,79c-0.3-1-0.9-2-1-3.1c-0.1-3.6,0-7.3,0-10.9c0.3,0,0.7,0,1,0c0.2,4.7-0.7,9.4,1,14
		C39.6,79,39.2,79,38.9,79z"/>
	<path class="st12" d="M114.9,63c0-0.3,0-0.7,0-1c0.3,0,0.7,0,1,0c0.8-0.2,1.9,0.5,2-1c0.3-0.4,0.9-0.8,1-1.2c0.1-1.9,0-3.9,0-5.8
		c0.1-0.3,0.2-0.6,0.7-1.6c0.6,3.6,0.2,6.6,0.3,9.6c-0.3,0.3-0.7,0.7-1,1c-0.3,0-0.7,0-1,0C116.9,63,115.9,63,114.9,63z"/>
	<path class="st13" d="M75.9,54c0-0.2,0-0.5,0-0.5c3-0.3,5.7-1.8,9-1.5c-0.3,0.5-0.4,0.7-0.6,0.9c-0.1,0.1-0.3,0-0.5,0
		c-0.3,0.3-0.7,0.7-1,1c-1.2,0-2.3-0.1-3.5,0c-1.2,0.2-2.4,0.6-3.5,1C75.9,54.7,75.9,54.3,75.9,54z"/>
	<path class="st13" d="M38.9,65c-0.3,0-0.7,0-1,0c0.5-2.7,1-5.3,1.5-8c0,0,0.3,0,0.5,0c0.3,0.3,0.7,0.7,1,1c-1.2,1.4-1,3.2-1,4.8
		C39.8,63.6,40.5,64.9,38.9,65z"/>
	<path class="st14" d="M70.9,41c1.1-2,3-0.6,4.5-1c0.1,0,0.2,0.2,0.5,0.5c-0.4,0.2-0.7,0.3-1,0.5c-0.3,0.1-0.6,0.2-0.8,0.3
		c0.3,0.2,0.6,0.4,0.8,0.7c-0.2,0.8,0.5,1.9-1,2c-0.3-0.3-0.7-0.7-1-1s-0.7-0.7-1-1C71.6,41.7,71.2,41.3,70.9,41z"/>
	<path class="st15" d="M105.9,63c0-2.3-0.1-4.5,0-6.8c0-0.4,0.6-0.8,1-1.2c0,0.9-0.1,1.9,0,2.8c0.1,0.4,0.6,0.8,1,1.2
		c0,0.3,0,0.7,0,1c-1.3,0-0.8,1.1-1,1.7C106.7,62.2,106.2,62.6,105.9,63z"/>
	<path class="st5" d="M43.9,57c0-0.3,0-0.7,0-1c0.7,0,1.3,0,2,0c1,0.4,2.5-0.9,3,1c-0.3,0.1-0.6,0.2-0.8,0.3
		c0.3,0.2,0.6,0.4,0.8,0.7c-0.3,0.3-0.7,0.7-1,1c-0.3,0-0.7,0-1,0c-0.3-0.3-0.7-0.7-1-1C45.8,56.5,44.7,57.2,43.9,57z"/>
	<path class="st12" d="M96.9,61c-0.3,0.3-0.7,0.7-1,1c-0.3-0.3-0.7-0.7-1-1c0-0.3,0-0.7,0-1c0-1,0-2,0-3c0-0.3,0-0.7,0-1
		c0.3-0.3,0.7-0.7,1-1c0.3,0.3,0.7,0.7,1,1c0,0.3,0,0.7,0,1c-1.4,1-1.4,2,0,3C96.9,60.3,96.9,60.7,96.9,61z"/>
	<path class="st16" d="M76.9,88c-0.9,0-1.9,0.1-2.8,0c-0.4-0.1-0.8-0.6-1.2-1c0.3-0.3,0.7-0.7,1-1c1.3,0,2.5-0.1,3.8,0
		c0.4,0,0.8,0.6,1.2,1C78.1,87.2,77,86.5,76.9,88z"/>
	<path class="st17" d="M46.9,40c-0.2-2.2,1.4-3.1,3-4c0.3,0.3,0.7,0.7,1,1c-1,1-2,2-3,3C47.6,40,47.2,40,46.9,40z"/>
	<path class="st18" d="M62.9,42c1.7-0.3,3.3-0.7,5-1c0,0.3,0,0.7,0,1c-0.4,0.3-0.8,1-1.2,0.9c-1.4-0.1-2.7,0.2-3.8,1.1
		C62.9,43.3,62.9,42.7,62.9,42z"/>
	<path class="st19" d="M80.9,68c-0.3,0-0.7,0-1,0c0-1.6-0.1-3.2,0-4.8c0-0.4,0.6-0.8,1-1.2c0.3,0,0.7,0,1,0
		C81.9,64.1,80.2,65.8,80.9,68z"/>
	<path class="st18" d="M83.9,55c-0.8,1.1-1.1,2.4-1.1,3.8c0,0.4-0.6,0.8-0.9,1.2c-0.3,0-0.7,0-1,0c0.5-1.7,1-3.3,1.5-5
		c0,0,0.3,0,0.5,0C83.2,55,83.6,55,83.9,55z"/>
	<path class="st8" d="M66.9,30c-0.3,0.3-0.7,0.7-1,1c-0.3,0-0.7,0-1,0c-0.6,0.1-1.2,0.2-1.8,0.3c-0.7,0.2-1.5,0.4-2.2,0.7
		c0-0.3,0-0.7,0-1c0.5-1.9,2-0.6,3-1c0.3,0,0.7,0,1,0C65.6,30,66.2,30,66.9,30z"/>
	<path class="st13" d="M47.9,82c-0.5,0.6-1,1.2-1.8,2.1c-0.3-0.3-0.8-0.7-1.2-1.1c0.3-0.1,0.6-0.2,0.8-0.3c-0.3-0.2-0.6-0.4-0.8-0.7
		c0-0.3,0-0.7,0-1c0.3,0,0.7,0,1,0s0.7,0,1,0c0.3-0.3,0.7-0.7,1-1c1.5,0.1,0.8,1.2,1,2C48.6,82,48.2,82,47.9,82z"/>
	<path class="st14" d="M45.9,56c-0.7,0-1.3,0-2,0c0-0.9-0.1-1.9,0-2.8c0.1-0.4,0.6-0.8,1-1.2c0.3,0.3,0.7,0.7,1,1
		C45.9,54,45.9,55,45.9,56z"/>
	<path class="st20" d="M133.9,60c0,0.3,0,0.7,0,1c-0.8,0.2-1.9-0.5-2,1c-0.3,0-0.7,0-1,0s-0.7,0-1,0c0-0.3,0-0.7,0-1
		c0.3-0.3,0.7-0.7,1-1c0-0.7,0-1.3,0-2c0.3,0,0.7,0,1,0c0.2,0.8-0.5,1.9,1,2C133.2,60,133.6,60,133.9,60z"/>
	<path class="st21" d="M118.9,54c0,1.9,0.1,3.9,0,5.8c0,0.4-0.6,0.8-1,1.2c0-1.9-0.1-3.9,0-5.8C118,54.8,118.6,54.4,118.9,54z"/>
	<path class="st22" d="M67.9,92c-1-0.4-2.5,0.9-3-1c0-0.3,0-0.7,0-1c1.3,0,2.7,0,4,0c0,0.3,0,0.7,0,1C68.6,91.3,68.2,91.7,67.9,92z"
		/>
	<path class="st8" d="M72.9,54c0.3,0,0.7,0,1,0c0,0.3,0,0.7,0,1c-0.9,1.2-1.1,2.6-1,4c-0.3-0.3-0.7-0.7-1-1c0-0.3,0-0.7,0-1
		C72.2,56,72.6,55,72.9,54z"/>
	<path class="st23" d="M72.9,54c-0.3,1-0.7,2-1,3c-0.3,0-0.7,0-1,0c0-0.7,0-1.3,0-2c0-0.3,0-0.7,0-1s0-0.7,0-1c0.3-0.3,0.7-0.7,1-1
		C72.1,52.8,71.4,53.9,72.9,54z"/>
	<path class="st24" d="M68.9,83c0.3,0,0.7,0,1,0c0,1,0,2,0,3c-0.3,0.3-0.7,0.7-1,1c-1.9-0.5-0.6-2-1-3C68.2,83.7,68.6,83.3,68.9,83z
		"/>
	<path class="st25" d="M96.9,56c-0.3-0.3-0.7-0.7-1-1c0.1-1.5,1.2-0.8,2-1c1,0,2,0,3,0c0,0.3,0,0.7,0,1C99.5,54.9,98.1,55.1,96.9,56
		z"/>
	<path class="st21" d="M132.9,54c0.3,0.7,0.7,1.3,1,2c-1.5,0.1-0.8,1.2-1,2c-0.3,0-0.7,0-1,0c0-0.3,0-0.7,0-1
		C132.3,56,131,54.5,132.9,54z"/>
	<path class="st26" d="M44.9,82c0.3,0.2,0.6,0.4,0.8,0.7c-0.3,0.1-0.6,0.2-0.8,0.3c-1-0.4-2.5,0.9-3-1c0-0.3,0-0.7,0-1
		C42.9,81.3,43.9,81.7,44.9,82z"/>
	<path class="st12" d="M110.9,62c-0.4,0.3-0.8,0.7-1.2,1c-0.3-0.3-0.5-0.7-0.8-1c0-0.7,0-1.3,0-2c0.3,0,0.7,0,1,0c0,0.3,0,0.7,0,1
		C110.2,61.3,110.6,61.7,110.9,62z"/>
	<path class="st27" d="M72.9,43c0.3,0.3,0.7,0.7,1,1c-0.2,0.8,0.5,1.9-1,2c-0.3,0-0.7,0-1,0C72.2,45,72.6,44,72.9,43z"/>
	<path class="st6" d="M40.9,58c-0.3-0.3-0.7-0.7-1-1c1.3,0,2.7,0,4,0c0,0.3,0,0.7,0,1C42.9,58,41.9,58,40.9,58z"/>
	<path class="st28" d="M126.9,54c-1.3,0-2.7,0-4,0C124.2,52.6,125.6,52.6,126.9,54z"/>
	<path class="st29" d="M67.9,42c0-0.3,0-0.7,0-1c1,0,2,0,3,0c0.3,0.3,0.7,0.7,1,1C70.6,42,69.2,42,67.9,42z"/>
	<path class="st26" d="M131.9,62c0.1-1.5,1.2-0.8,2-1c0.8,0.2,1.9-0.5,2,1C134.6,62,133.2,62,131.9,62z"/>
	<path class="st28" d="M123.9,63c0.4-1-0.9-2.5,1-3C124.5,61,125.8,62.5,123.9,63z"/>
	<path class="st10" d="M109.9,58c0-1,0-2,0-3C111.3,56,111.3,57,109.9,58z"/>
	<path class="st25" d="M94.9,57c0,1,0,2,0,3C93.5,59,93.5,58,94.9,57z"/>
	<path class="st25" d="M96.9,60c-1.4-1-1.4-2,0-3C96.9,58,96.9,59,96.9,60z"/>
	<path class="st21" d="M114.9,63c1,0,2,0,3,0C116.9,64.4,115.9,64.4,114.9,63z"/>
	<path class="st30" d="M66.9,30c-0.7,0-1.3,0-2,0c0-0.3,0-0.7,0-1c0.5-0.3,1-0.6,1.7-1C66.7,28.7,66.8,29.3,66.9,30z"/>
	<path class="st13" d="M61.9,91c-0.8-0.2-1.9,0.5-2-1c0.3-0.3,0.7-0.7,1-1c0.3,0,0.7,0,1,0c0,0.3,0,0.7,0,1S61.9,90.7,61.9,91z"/>
	<path class="st27" d="M65.9,32c-0.2,0.8,0.5,1.9-1,2c-0.3-0.3-0.7-0.7-1-1c0.3-0.3,0.7-0.7,1-1C65.2,32,65.6,32,65.9,32z"/>
	<path class="st3" d="M54.9,33c0.3,0,0.7,0,1,0c0,0.3,0,0.7,0,1c-0.1,1.5-1.2,0.8-2,1c0-0.3,0-0.7,0-1C54.2,33.7,54.6,33.3,54.9,33z
		"/>
	<path class="st31" d="M80.9,86c0.3,0.4,0.7,0.8,1,1.2c-0.3,0.3-0.7,0.5-1,0.8c-0.3-0.3-0.7-0.7-1-1c0-0.3,0-0.7,0-1
		C80.2,86,80.6,86,80.9,86z"/>
	<path class="st27" d="M64.9,35c-0.2,0.8,0.5,1.9-1,2c-0.3-0.3-0.7-0.7-1-1c0.3-0.3,0.7-0.7,1-1C64.2,35,64.6,35,64.9,35z"/>
	<path class="st32" d="M63.9,39c-0.3,0.3-0.7,0.7-1,1c-0.3,0-0.7,0-1,0c0.2-0.8-0.5-1.9,1-2C63.2,38.3,63.6,38.7,63.9,39z"/>
	<path class="st33" d="M71.9,84c-1.5-0.1-0.8-1.2-1-2c0.3,0,0.7,0,1,0c0.3,0.3,0.7,0.7,1,1C72.6,83.3,72.2,83.7,71.9,84z"/>
	<path class="st12" d="M62.9,42c0,0.7,0,1.3,0,2c-0.3,0-0.7,0-1,0c0-0.3,0-0.7,0-1s0-0.7,0-1s0-0.7,0-1c0.3,0,0.7,0,1,0
		C62.9,41.3,62.9,41.7,62.9,42z"/>
	<path class="st17" d="M45.9,43c0.3-0.3,0.7-0.7,1-1c0.3,0,0.7,0,1,0c-0.2,0.8,0.5,1.9-1,2C46.6,43.7,46.2,43.3,45.9,43z"/>
	<path class="st34" d="M100.9,54c-1,0-2,0-3,0C98.9,52.6,99.9,52.6,100.9,54z"/>
	<path class="st31" d="M44.9,48c0.2-0.8-0.5-1.9,1-2c0.3,0.3,0.7,0.7,1,1c-0.3,0.3-0.7,0.7-1,1C45.6,48,45.2,48,44.9,48z"/>
	<path class="st20" d="M71.9,52c-0.3,0.3-0.7,0.7-1,1c-0.3,0-0.7,0-1,0c0.2-0.8-0.5-1.9,1-2c0.3,0,0.7,0,1,0
		C71.9,51.3,71.9,51.7,71.9,52z"/>
	<path class="st35" d="M72.9,48c-0.3,0.3-0.7,0.7-1,1c-0.3,0-0.7,0-1,0c0.2-0.8-0.5-1.9,1-2C72.2,47.3,72.6,47.7,72.9,48z"/>
	<path class="st2" d="M80.9,60c0.3,0,0.7,0,1,0c0,0.7,0,1.3,0,2c-0.3,0-0.7,0-1,0C80.9,61.3,80.9,60.7,80.9,60z"/>
	<path class="st36" d="M108.9,60c0,0.7,0,1.3,0,2c-1.5-0.1-0.8-1.2-1-2C108.2,60,108.6,60,108.9,60z"/>
	<path class="st37" d="M67.9,92c0.3-0.3,0.7-0.7,1-1c0.3,0,0.7,0,1,0c0,0.3,0,0.7,0,1C69.2,92,68.6,92,67.9,92z"/>
	<path class="st22" d="M69.9,92c0-0.3,0-0.7,0-1s0-0.7,0-1c0.3,0.4,0.7,0.8,1,1.2C70.6,91.5,70.2,91.7,69.9,92z"/>
	<path class="st38" d="M69.9,90c0,0.3,0,0.7,0,1c-0.3,0-0.7,0-1,0c0-0.3,0-0.7,0-1s0-0.7,0-1c0.3,0,0.7,0,1,0
		C69.9,89.3,69.9,89.7,69.9,90z"/>
	<path class="st25" d="M76.9,88c0.1-1.5,1.2-0.8,2-1c0,0.3,0,0.7,0,1C78.2,88,77.6,88,76.9,88z"/>
	<path class="st37" d="M68.9,87c0.3-0.3,0.7-0.7,1-1c0,0.7,0,1.3,0,2c-0.3,0-0.7,0-1,0C68.9,87.7,68.9,87.3,68.9,87z"/>
	<path class="st36" d="M72.9,87c-1.5-0.1-0.8-1.2-1-2c0.3,0,0.7,0,1,0c0,0.3,0,0.7,0,1S72.9,86.7,72.9,87z"/>
	<path class="st39" d="M51.9,85c-0.3-0.3-0.7-0.7-1-1c0-0.3,0-0.7,0-1c0.3,0.3,0.7,0.7,1,1C51.9,84.3,51.9,84.7,51.9,85z"/>
	<path class="st4" d="M80.9,82c0,0.7,0,1.3,0,2c-0.3,0-0.7,0-1,0c0-0.7,0-1.3,0-2C80.2,82,80.6,82,80.9,82z"/>
	<path class="st31" d="M49.9,84c-0.3-0.3-0.7-0.7-1-1c0-0.3,0-0.7,0-1c0.3,0.3,0.7,0.7,1,1C49.9,83.3,49.9,83.7,49.9,84z"/>
	<path class="st25" d="M39.9,82c-1.5-0.1-0.8-1.2-1-2c0.3,0,0.7,0,1,0c0,0.3,0,0.7,0,1S39.9,81.7,39.9,82z"/>
	<path class="st4" d="M39.9,82c0-0.3,0-0.7,0-1c0.7,0,1.3,0,2,0c0,0.3,0,0.7,0,1C41.2,82,40.6,82,39.9,82z"/>
	<path class="st39" d="M50.9,36c0.3-0.3,0.7-0.7,1-1c0,0.3,0,0.7,0,1c-0.3,0.3-0.7,0.7-1,1C50.9,36.7,50.9,36.3,50.9,36z"/>
	<path class="st2" d="M73.9,55c0-0.3,0-0.7,0-1c0.7,0,1.3,0,2,0c0,0.3,0,0.7,0,1C75.2,55,74.6,55,73.9,55z"/>
	<path class="st40" d="M45.9,53c-0.3-0.3-0.7-0.7-1-1c0-0.3,0-0.7,0-1c0.3,0,0.7,0,1,0C45.9,51.7,45.9,52.3,45.9,53z"/>
	<path class="st8" d="M53.9,34c0,0.3,0,0.7,0,1c-0.3,0.3-0.7,0.7-1,1c0-0.3,0-0.7,0-1C53.2,34.7,53.6,34.3,53.9,34z"/>
	<path class="st38" d="M108.9,58c0.3,0,0.7,0,1,0c0,0.3,0,0.7,0,1c-0.3,0-0.7,0-1,0s-0.7,0-1,0C108.2,58.7,108.6,58.3,108.9,58z"/>
	<path class="st20" d="M136.9,60c-1.5-0.1-0.8-1.2-1-2C137.4,58.1,136.8,59.2,136.9,60z"/>
	<path class="st41" d="M58.9,32c0.3-0.3,0.7-0.7,1-1c0,0.3,0,0.7,0,1c-0.3,0.3-0.7,0.7-1,1C58.9,32.7,58.9,32.3,58.9,32z"/>
	<path class="st42" d="M56.9,33c0.3-0.3,0.7-0.7,1-1c0,0.3,0,0.7,0,1c-0.3,0.3-0.7,0.7-1,1C56.9,33.7,56.9,33.3,56.9,33z"/>
	<path class="st38" d="M47.9,42c-0.3,0-0.7,0-1,0c0-0.3,0-0.7,0-1c0.3,0,0.7,0,1,0C47.9,41.3,47.9,41.7,47.9,42z"/>
	<path class="st3" d="M52.9,35c0,0.3,0,0.7,0,1c-0.3,0-0.7,0-1,0c0-0.3,0-0.7,0-1C52.2,35,52.6,35,52.9,35z"/>
	<path class="st1" d="M48.9,82c0,0.3,0,0.7,0,1c-0.3-0.3-0.7-0.7-1-1C48.2,82,48.6,82,48.9,82z"/>
	<path class="st30" d="M79.9,84c0.3,0,0.7,0,1,0c0,0.3,0,0.7,0,1c-0.3,0-0.7,0-1,0C79.9,84.7,79.9,84.3,79.9,84z"/>
	<path class="st2" d="M72.9,85c-0.3,0-0.7,0-1,0c0-0.3,0-0.7,0-1c0.3,0,0.7,0,1,0C72.9,84.3,72.9,84.7,72.9,85z"/>
	<path class="st3" d="M53.9,84c0,0.3,0,0.7,0,1c-0.3,0-0.7,0-1,0c0-0.3,0-0.7,0-1C53.2,84,53.6,84,53.9,84z"/>
	<path class="st12" d="M74.9,42c-0.3-0.2-0.6-0.4-0.8-0.7c0.3-0.1,0.6-0.2,0.8-0.3C74.9,41.3,74.9,41.7,74.9,42z"/>
	<path class="st28" d="M52.9,84c0,0.3,0,0.7,0,1c-0.3,0-0.7,0-1,0c0-0.3,0-0.7,0-1C52.2,84,52.6,84,52.9,84z"/>
	<path class="st6" d="M50.9,36c0,0.3,0,0.7,0,1c-0.3-0.3-0.7-0.7-1-1C50.2,36,50.6,36,50.9,36z"/>
	<path class="st11" d="M71.9,82c-0.3,0-0.7,0-1,0c0-0.3,0-0.7,0-1c0.3,0,0.7,0,1,0C71.9,81.3,71.9,81.7,71.9,82z"/>
	<path class="st8" d="M80.9,82c-0.3,0-0.7,0-1,0c0.3-0.3,0.7-0.7,1-1C80.9,81.3,80.9,81.7,80.9,82z"/>
	<path class="st2" d="M63.9,37c0,0.3,0,0.7,0,1c-0.3,0-0.7,0-1,0c0-0.3,0-0.7,0-1C63.2,37,63.6,37,63.9,37z"/>
	<path class="st3" d="M49.9,84c0-0.3,0-0.7,0-1c0.3,0,0.7,0,1,0c0,0.3,0,0.7,0,1C50.6,84,50.2,84,49.9,84z"/>
	<path class="st28" d="M62.9,38c0.3,0,0.7,0,1,0c0,0.3,0,0.7,0,1C63.6,38.7,63.2,38.3,62.9,38z"/>
	<path class="st3" d="M47.9,41c-0.3,0-0.7,0-1,0c0-0.3,0-0.7,0-1c0.3,0,0.7,0,1,0C47.9,40.3,47.9,40.7,47.9,41z"/>
	<path class="st20" d="M62.9,41c-0.3,0-0.7,0-1,0c0-0.3,0-0.7,0-1c0.3,0,0.7,0,1,0C62.9,40.3,62.9,40.7,62.9,41z"/>
	<path class="st39" d="M64.9,29c0,0.3,0,0.7,0,1c-0.3,0-0.7,0-1,0C64.2,29.7,64.6,29.3,64.9,29z"/>
	<path class="st4" d="M59.9,32c0-0.3,0-0.7,0-1c0.3,0,0.7,0,1,0c0,0.3,0,0.7,0,1C60.6,32,60.2,32,59.9,32z"/>
	<path class="st38" d="M64.9,90c0,0.3,0,0.7,0,1c-0.3,0-0.7,0-1,0c0-0.3,0-0.7,0-1C64.2,90,64.6,90,64.9,90z"/>
	<path class="st12" d="M63.9,90c0,0.3,0,0.7,0,1c-0.3,0-0.7,0-1,0c0-0.3,0-0.7,0-1C63.2,90,63.6,90,63.9,90z"/>
	<path class="st11" d="M62.9,90c0,0.3,0,0.7,0,1c-0.3,0-0.7,0-1,0c0-0.3,0-0.7,0-1C62.2,90,62.6,90,62.9,90z"/>
	<path class="st2" d="M65.9,32c-0.3,0-0.7,0-1,0c0-0.3,0-0.7,0-1c0.3,0,0.7,0,1,0C65.9,31.3,65.9,31.7,65.9,32z"/>
	<path class="st9" d="M59.9,90c-0.3,0-0.7,0-1,0c0-0.3,0-0.7,0-1c0.3,0,0.7,0,1,0C59.9,89.3,59.9,89.7,59.9,90z"/>
	<path class="st1" d="M58.9,89c0,0.3,0,0.7,0,1c-0.3,0-0.7,0-1,0c0-0.3,0-0.7,0-1C58.2,89,58.6,89,58.9,89z"/>
	<path class="st12" d="M68.9,88c0.3,0,0.7,0,1,0c0,0.3,0,0.7,0,1c-0.3,0-0.7,0-1,0C68.9,88.7,68.9,88.3,68.9,88z"/>
	<path class="st1" d="M57.9,33c0-0.3,0-0.7,0-1c0.3,0,0.7,0,1,0c0,0.3,0,0.7,0,1C58.6,33,58.2,33,57.9,33z"/>
	<path class="st43" d="M54.9,33c-0.3,0.3-0.7,0.7-1,1C54.2,33.7,54.6,33.3,54.9,33z"/>
	<path class="st1" d="M79.9,87c0.3,0.3,0.7,0.7,1,1c-0.3,0-0.7,0-1,0C79.9,87.7,79.9,87.3,79.9,87z"/>
	<path class="st38" d="M79.9,87c0,0.3,0,0.7,0,1c-0.3,0-0.7,0-1,0c0-0.3,0-0.7,0-1C79.2,87,79.6,87,79.9,87z"/>
	<path class="st2" d="M56.9,33c0,0.3,0,0.7,0,1c-0.3,0-0.7,0-1,0c0-0.3,0-0.7,0-1C56.2,33,56.6,33,56.9,33z"/>
	<path class="st2" d="M64.9,35c-0.3,0-0.7,0-1,0c0-0.3,0-0.7,0-1c0.3,0,0.7,0,1,0C64.9,34.3,64.9,34.7,64.9,35z"/>
	<path class="st29" d="M79.9,85c0.3,0,0.7,0,1,0c0,0.3,0,0.7,0,1c-0.3,0-0.7,0-1,0C79.9,85.7,79.9,85.3,79.9,85z"/>
	<path class="st34" d="M100.9,55c0-0.3,0-0.7,0-1c0.3,0.2,0.6,0.4,0.8,0.7C101.5,54.8,101.2,54.9,100.9,55z"/>
	<path class="st25" d="M95.9,55c-0.3,0.3-0.7,0.7-1,1C95.2,55.7,95.6,55.3,95.9,55z"/>
	<path class="st26" d="M131.9,57c0,0.3,0,0.7,0,1c-0.3,0-0.7,0-1,0C131.2,57.7,131.6,57.3,131.9,57z"/>
	<path class="st20" d="M135.9,63c0.3,0,0.7,0,1,0c-0.2,0.3-0.4,0.6-0.7,0.8C136.1,63.6,136,63.3,135.9,63z"/>
	<path class="st28" d="M122.9,63c0.3,0,0.7,0,1,0c-0.2,0.3-0.4,0.6-0.7,0.8C123.1,63.6,123,63.3,122.9,63z"/>
	<path class="st20" d="M136.9,63c0-0.3,0-0.7,0-1c0.3,0.2,0.6,0.4,0.8,0.7C137.5,62.8,137.2,62.9,136.9,63z"/>
	<path class="st26" d="M130.9,62c0.3,0,0.7,0,1,0c-0.3,0.3-0.7,0.7-1,1C130.9,62.7,130.9,62.3,130.9,62z"/>
	<path class="st12" d="M130.9,62c0,0.3,0,0.7,0,1c-0.3-0.3-0.7-0.7-1-1C130.2,62,130.6,62,130.9,62z"/>
	<path class="st21" d="M118.9,63c0.3-0.3,0.7-0.7,1-1C119.6,62.3,119.2,62.7,118.9,63z"/>
	<path class="st21" d="M115.9,62c-0.3,0-0.7,0-1,0c0-0.3,0-0.7,0-1C115.2,61.3,115.6,61.7,115.9,62z"/>
	<path class="st36" d="M110.9,62c-0.3-0.3-0.7-0.7-1-1C110.2,61.3,110.6,61.7,110.9,62z"/>
	<path class="st25" d="M94.9,61c0.3,0.3,0.7,0.7,1,1C95.6,61.7,95.2,61.3,94.9,61z"/>
	<path class="st26" d="M130.9,60c-0.3,0.3-0.7,0.7-1,1C130.2,60.7,130.6,60.3,130.9,60z"/>
	<path class="st36" d="M108.9,59c0.3,0,0.7,0,1,0c0,0.3,0,0.7,0,1c-0.3,0-0.7,0-1,0C108.9,59.7,108.9,59.3,108.9,59z"/>
	<path class="st28" d="M126.9,60c0-0.3,0-0.7,0-1c0.3,0,0.7,0,1,0C127.6,59.3,127.2,59.7,126.9,60z"/>
	<path class="st28" d="M45.9,43c0.3,0.3,0.7,0.7,1,1c-0.3,0-0.7,0-1,0C45.9,43.7,45.9,43.3,45.9,43z"/>
	<path class="st12" d="M45.9,44c0.3,0,0.7,0,1,0c0,0.3,0,0.7,0,1c-0.3,0-0.7,0-1,0C45.9,44.7,45.9,44.3,45.9,44z"/>
	<path class="st12" d="M39.9,80c-0.3,0-0.7,0-1,0c0-0.3,0-0.7,0-1c0.3,0,0.7,0,1,0C39.9,79.3,39.9,79.7,39.9,80z"/>
	<path class="st29" d="M45.9,45c0.3,0,0.7,0,1,0c0,0.3,0,0.7,0,1c-0.3,0-0.7,0-1,0C45.9,45.7,45.9,45.3,45.9,45z"/>
	<path class="st1" d="M71.9,46c0.3,0,0.7,0,1,0c0,0.3,0,0.7,0,1c-0.3,0-0.7,0-1,0C71.9,46.7,71.9,46.3,71.9,46z"/>
	<path class="st26" d="M71.9,47c0.3,0,0.7,0,1,0c0,0.3,0,0.7,0,1C72.6,47.7,72.2,47.3,71.9,47z"/>
	<path class="st28" d="M44.9,48c0.3,0,0.7,0,1,0c0,0.3,0,0.7,0,1c-0.3,0-0.7,0-1,0C44.9,48.7,44.9,48.3,44.9,48z"/>
	<path class="st3" d="M44.9,49c0.3,0,0.7,0,1,0c0,0.3,0,0.7,0,1c-0.3,0-0.7,0-1,0C44.9,49.7,44.9,49.3,44.9,49z"/>
	<path class="st1" d="M70.9,49c0.3,0,0.7,0,1,0c0,0.3,0,0.7,0,1c-0.3,0-0.7,0-1,0C70.9,49.7,70.9,49.3,70.9,49z"/>
	<path class="st30" d="M44.9,50c0.3,0,0.7,0,1,0c0,0.3,0,0.7,0,1c-0.3,0-0.7,0-1,0C44.9,50.7,44.9,50.3,44.9,50z"/>
	<path class="st29" d="M70.9,50c0.3,0,0.7,0,1,0c0,0.3,0,0.7,0,1c-0.3,0-0.7,0-1,0C70.9,50.7,70.9,50.3,70.9,50z"/>
	<path class="st2" d="M82.9,54c0.3-0.3,0.7-0.7,1-1c0,0.3,0,0.7,0,1C83.6,54,83.2,54,82.9,54z"/>
	<path class="st6" d="M82.9,54c0.3,0,0.7,0,1,0c0,0.3,0,0.7,0,1c-0.3,0-0.7,0-1,0C82.9,54.7,82.9,54.3,82.9,54z"/>
	<path class="st43" d="M167.9,80.5c-0.8,0.8-1.6,1.6-2.5,2.5c-0.9,0-1.9,0-2.9,0c-2.5-3.3-1.2-7.1-1.6-10.3c1.6-2.4,3.8-1.4,5.5-1.6
		c0.6,0.9,1.4,1.7,1.5,2.5C168,75.8,167.9,78.2,167.9,80.5z"/>
	<path class="st44" d="M117.8,71.1c0.8,2.8,1.6,5.6,2.4,8.6c-1.5,0-2.8,0-4.1,0C114.9,76.7,117.6,74.1,117.8,71.1z"/>
	<path class="st43" d="M45.9,51c0-0.3,0-0.7,0-1s0-0.7,0-1s0-0.7,0-1c0.3-0.3,0.7-0.7,1-1c0-0.3,0-0.7,0-1s0-0.7,0-1s0-0.7,0-1
		c1.5-0.1,0.8-1.2,1-2c0-0.3,0-0.7,0-1s0-0.7,0-1c1-1,2-2,3-3c0.3-0.3,0.7-0.7,1-1c0.3,0,0.7,0,1,0c0.3-0.3,0.7-0.7,1-1
		c0.8-0.2,1.9,0.5,2-1c0.3,0,0.7,0,1,0c0.3-0.3,0.7-0.7,1-1c0.3,0,0.7,0,1,0c0.3-0.3,0.7-0.7,1-1c0.3,0,0.7,0,1,0
		c0.7-0.2,1.4-0.5,2.2-0.7c0.6-0.2,1.2-0.2,1.8-0.3c0,0.3,0,0.7,0,1c-0.3,0.3-0.7,0.7-1,1c0,0.3,0,0.7,0,1s0,0.7,0,1
		c-0.3,0.3-0.7,0.7-1,1c0,0.3,0,0.7,0,1s0,0.7,0,1c-1.5,0.1-0.8,1.2-1,2c0,0.3,0,0.7,0,1s0,0.7,0,1c-0.3,0.3-0.7,0.7-1,1
		c-0.3,0-0.7,0-1,0c-0.3,0.3-0.7,0.7-1,1s-0.7,0.7-1,1c-0.6,0.6-1.8,3.6-2,5c0,1,0,2,0,3c-0.3,0.1-0.8,0.2-0.8,0.3
		c0.1,3.3-1.7,6.3-1.2,9.7c0,1,0,2,0,3c0,2.7,0,5.3,0,8c0,0.7,0,1.3,0,2c0.2,1.5-0.4,3,0.8,4.5c0.4,0.5,1.3,2.8-0.8,3.5
		c-0.3,0-0.7,0-1,0s-0.7,0-1,0c-0.3-0.3-0.7-0.7-1-1c-0.3,0-0.7,0-1,0c-0.3-0.3-0.7-0.7-1-1c-0.2-0.8,0.5-1.9-1-2c0-0.3,0-0.7,0-1
		c-0.3-1-0.7-2-1-3c0-0.3,0-0.7,0-1c0-0.8,0.3-1.9-0.1-2.4c-1.4-2.1-1.4-4,0-6.1c0.4-0.6,0.1-1.6,0.1-2.4c0-0.3,0-0.7,0-1
		c0-0.3,0-0.7,0-1c1.5-0.1,0.8-1.2,1-2c0-0.3,0-0.7,0-1c0.3-0.3,0.7-0.7,1-1c0-0.3,0-0.7,0-1c-0.5-1.9-2-0.6-3-1c0-1,0-2,0-3
		C45.9,52.3,45.9,51.7,45.9,51z"/>
	<path class="st45" d="M58.9,86c-0.5-0.4-1-0.9-1.8-1.5c-1.6-3-1.1-6.7-1.2-10.2c0-0.4-0.6-0.8-1-1.2c0-2.3,0-4.7,0-7
		c0-0.7,0-1.3,0-2c0.3-0.1,0.8-0.2,0.8-0.3c0.1-1.8,0-3.5,0.2-5.3c0.2-1.8,0.6-3.6,1-5.4c0-0.7,0-1.3,0-2c0.3-0.4,1-0.8,0.9-1.2
		c-0.1-1.4,0.2-2.7,1.1-3.8c0.3-0.3,0.7-0.7,1-1c0.3,0,0.7,0,1,0c0,0.7,0,1.3,0,2c-1.9,0.5-0.6,2-1,3c0,1.3,0,2.7,0,4
		c-0.3,0.4-0.9,0.8-1,1.2c-0.1,1.6,0,3.2,0,4.8c0,0.7,0,1.3,0,2c0,1,0,2,0,3s0,2,0,3c0,1.3-0.1,2.5,0,3.8c0,0.4,0.6,0.8,1,1.2
		c0,1,0,2,0,3c0,0.7,0,1.3,0,2c0.8,2.2,1.1,4.4,1.2,6.7c0,0.1,0.5,0.2,0.8,0.3c-0.1,1.5-1.2,0.8-2,1C59.6,86,59.2,86,58.9,86z"/>
	<path class="st2" d="M54.9,66c0,2.3,0,4.7,0,7c0,0.3,0,0.7,0,1c-0.3,0-0.7,0-1,0c0-2.7,0-5.3,0-8C54.2,66,54.6,66,54.9,66z"/>
	<path class="st37" d="M53.9,74c0.3,0,0.7,0,1,0c-0.2,0.8,0.5,1.9-1,2C53.9,75.3,53.9,74.7,53.9,74z"/>
	<path class="st46" d="M58.9,86c0.3,0,0.7,0,1,0c0,0.3,0,0.7,0,1c-0.3,0-0.7,0-1,0s-0.7,0-1,0C58.2,86.7,58.6,86.3,58.9,86z"/>
	<path class="st47" d="M58.9,89c-0.3,0-0.7,0-1,0c0-0.3,0-0.7,0-1c0.3,0,0.7,0,1,0C58.9,88.3,58.9,88.7,58.9,89z"/>
	<path class="st0" d="M58.9,88c-0.3,0-0.7,0-1,0c0-0.3,0-0.7,0-1c0.3,0,0.7,0,1,0C58.9,87.3,58.9,87.7,58.9,88z"/>
	<path class="st48" d="M108.9,58c-0.3,0.3-0.7,0.7-1,1c-0.3-0.4-0.9-0.7-1-1.2c-0.1-0.9,0-1.9,0-2.8c0.3,0,0.7,0,1,0
		c0.3,0.3,0.7,0.7,1,1C108.9,56.7,108.9,57.3,108.9,58z"/>
	<path class="st10" d="M108.9,56c-0.3-0.3-0.7-0.7-1-1C108.2,55.3,108.6,55.7,108.9,56z"/>
	<path class="st28" d="M126.9,59c-0.8,0-1.6,0-2.8,0c-0.1-1.4-1-2.9,0.8-4c0,0.9,0,1.8,0,3c0.8,0,1.4,0,2,0
		C126.9,58.3,126.9,58.7,126.9,59z"/>
	<path class="st49" d="M126.9,58c-0.6,0-1.2,0-2,0c0-1.2,0-2.1,0-3c0.6,0,1.2,0,2,0C126.9,56.2,126.9,57.1,126.9,58z"/>
	<path class="st30" d="M126.9,59c0-0.3,0-0.7,0-1c0.3,0.3,0.7,0.7,1,1C127.6,59,127.2,59,126.9,59z"/>
	<path class="st36" d="M70.9,80c-1.7-4.6-0.8-9.3-1-14c0.3,0.3,0.7,0.7,1,1c0,2.2,0.1,4.3,0,6.5c-0.1,2.3,1.7,4.2,1,6.5
		C71.6,80,71.2,80,70.9,80z"/>
	<path class="st29" d="M68.9,65c0,4.7,0,9.3,0,14c-0.3,0-0.7,0-1,0c0-0.3,0-0.7,0-1c0-3.3,0-6.7,0-10c0-1.7,0-3.3,0-5
		c0.3,0,0.7,0,1,0C68.9,63.7,68.9,64.3,68.9,65z"/>
	<path class="st50" d="M68.9,65c0-0.7,0-1.3,0-2c1.5-1.8,0.9-4,1-6c0.3,0,0.7,0,1,0s0.7,0,1,0c0,0.3,0,0.7,0,1c-1.5,0.1-0.8,1.2-1,2
		c0,0.7,0,1.3,0,2c0,0.3,0,0.7,0,1c-1.5,0.1-0.8,1.2-1,2C69.6,65,69.2,65,68.9,65z"/>
	<path class="st51" d="M69.9,65c0.2-0.8-0.5-1.9,1-2c0.3,0,0.7,0,1,0c0,0.9,0.1,1.9,0,2.8c-0.1,0.4-0.6,0.8-1,1.2
		c-0.3-0.3-0.7-0.7-1-1C69.9,65.7,69.9,65.3,69.9,65z"/>
	<path class="st37" d="M67.9,79c0.3,0,0.7,0,1,0c0,1.3,0,2.7,0,4c-0.3,0.3-0.7,0.7-1,1C67.9,82.3,67.9,80.7,67.9,79z"/>
	<path class="st2" d="M70.9,80c0.3,0,0.7,0,1,0c0,0.3,0,0.7,0,1c-0.3,0-0.7,0-1,0C70.9,80.7,70.9,80.3,70.9,80z"/>
	<path class="st43" d="M71.9,81c0-0.3,0-0.7,0-1c0.7-2.3-1.1-4.3-1-6.5c0.1-2.1,0-4.3,0-6.5c0.3-0.4,0.9-0.7,1-1.2
		c0.1-0.9,0-1.9,0-2.8c0-0.3,0-0.7,0-1c0-0.7,0-1.3,0-2c0.3-0.3,0.7-0.7,1-1c-0.1-1.4,0.1-2.8,1-4c0.7,0,1.3,0,2,0
		c1.2-0.3,2.3-0.8,3.5-1c1.1-0.2,2.3,0,3.5,0c0,0.3,0,0.7,0,1c-0.2,0-0.4,0-0.5,0c-0.5,1.7-1,3.3-1.5,5c0,0.7,0,1.3,0,2
		c-0.3,0.4-0.9,0.8-1,1.2c-0.1,1.6,0,3.2,0,4.8c-0.3,0.4-0.9,0.7-1,1.2c-0.1,0.9,0,1.9,0,2.8c0,2.3,0,4.7,0,7c0.4,1-0.9,2.5,1,3
		c0,0.7,0,1.3,0,2c0,0.3,0,0.7,0,1s0,0.7,0,1s0,0.7,0,1c-0.3,0-0.7,0-1,0c-0.4-0.3-0.8-0.9-1.2-1c-1.3-0.1-2.5,0-3.8,0
		c-0.3,0-0.7,0-1,0c0-0.3,0-0.7,0-1s0-0.7,0-1s0-0.7,0-1c-0.3-0.3-0.7-0.7-1-1C71.9,81.7,71.9,81.3,71.9,81z"/>
	<path class="st8" d="M78.9,79c0-2.3,0-4.7,0-7C80.3,74.1,80.3,76.9,78.9,79z"/>
	<path class="st0" d="M132.9,58c0.2-0.8-0.5-1.9,1-2c0.2,0.7,0.3,1.5,0.6,2.1c0.5,0.9,0.8,1.7-0.6,1.9c-0.3,0-0.7,0-1,0
		C132.9,59.3,132.9,58.7,132.9,58z"/>
	<path class="st7" d="M39.9,80c0-0.3,0-0.7,0-1c-1.7-4.6-0.8-9.3-1-14c1.6-0.1,0.9-1.4,1-2.2c0.1-1.7-0.1-3.4,1-4.8c1,0,2,0,3,0
		c0,2.9,0,5.8,0,8.8c0,0.4,0.6,0.8,1,1.2c0,3.7,0,7.3,0,11c0,0.3,0,0.7,0,1s0,0.7,0,1s0,0.7,0,1c-1-0.3-2-0.7-3-1c-0.7,0-1.3,0-2,0
		C39.9,80.7,39.9,80.3,39.9,80z"/>
	<path class="st43" d="M67.9,79c0,1.7,0,3.3,0,5c0.4,1-0.9,2.5,1,3c0,0.3,0,0.7,0,1s0,0.7,0,1s0,0.7,0,1c-1.3,0-2.7,0-4,0
		c-0.3,0-0.7,0-1,0c0-0.7,0-1.3,0-2c-0.3-1.7-0.7-3.3-1-5c-0.8-2.2-1.1-4.4-1.2-6.7c0-0.1-0.5-0.2-0.8-0.3c0-1.3,0-2.7,0-4
		c0-0.7,0-1.3,0-2c0-4.7,0-9.3,0-14c0-1.7,0-3.3,0-5c1.9-0.5,0.6-2,1-3c0-1,0-2,0-3c0.3-0.3,0.7-0.7,1-1c1.1-0.8,2.4-1.1,3.8-1.1
		c0.4,0,0.8-0.6,1.2-0.9c1.3,0,2.7,0,4,0c0.3,0.3,0.7,0.7,1,1c-0.3,1-0.7,2-1,3c0,0.3,0,0.7,0,1c-1.5,0.1-0.8,1.2-1,2
		c0,0.3,0,0.7,0,1s0,0.7,0,1c-1.5,0.1-0.8,1.2-1,2c0,0.3,0,0.7,0,1c-1.5,0.1-0.8,1.2-1,2c-0.3,2.3-0.7,4.7-1,7c0,1.7,0,3.3,0,5
		c-0.2,0-0.5,0-0.5,0c-0.9,3.3-0.9,6.7,0,10c0,0,0.3,0,0.5,0C67.9,78.3,67.9,78.7,67.9,79z"/>
	<path class="st30" d="M108.9,59c0,0.3,0,0.7,0,1c-0.3,0-0.7,0-1,0c0-0.3,0-0.7,0-1C108.2,59,108.6,59,108.9,59z"/>
	<path class="st2" d="M43.9,58c0-0.3,0-0.7,0-1c0.8,0.2,1.9-0.5,2,1c-0.3,0-0.7,0-1,0S44.2,58,43.9,58z"/>
	<path class="st25" d="M48.9,57c0,0.3,0,0.7,0,1c-0.3-0.2-0.6-0.4-0.8-0.7C48.4,57.2,48.6,57.1,48.9,57z"/>
	<path class="st0" d="M45.9,58c0.3,0.3,0.7,0.7,1,1c-0.3,0-0.7,0-1,0C45.9,58.7,45.9,58.3,45.9,58z"/>
	<path class="st12" d="M47.9,59c0,0.3,0,0.7,0,1c-0.3,0-0.7,0-1,0c0-0.3,0-0.7,0-1C47.2,59,47.6,59,47.9,59z"/>
	<path class="st9" d="M72.9,86c0.3,0,0.7,0,1,0c-0.3,0.3-0.7,0.7-1,1C72.9,86.7,72.9,86.3,72.9,86z"/>
	<path class="st43" d="M46.9,81c-0.3,0-0.7,0-1,0c0-0.3,0-0.7,0-1s0-0.7,0-1s0-0.7,0-1c0.3,0.3,0.7,0.7,1,1c0,0.3,0,0.7,0,1
		S46.9,80.7,46.9,81z"/>
	<path class="st26" d="M46.9,81c0-0.3,0-0.7,0-1c0.3,0,0.7,0,1,0C47.6,80.3,47.2,80.7,46.9,81z"/>
	<path class="st26" d="M45.9,80c0,0.3,0,0.7,0,1c-0.3,0-0.7,0-1,0c0-0.3,0-0.7,0-1C45.2,80,45.6,80,45.9,80z"/>
	<path class="st26" d="M132.9,58c0,0.7,0,1.3,0,2c-1.5-0.1-0.8-1.2-1-2C132.2,58,132.6,58,132.9,58z"/>
	<path class="st17" d="M72.9,59c-0.3,0.3-0.7,0.7-1,1c-0.3,0-0.7,0-1,0c0.2-0.8-0.5-1.9,1-2C72.2,58.3,72.6,58.7,72.9,59z"/>
	<path class="st17" d="M68.9,56c0.2-0.8-0.5-1.9,1-2c0.3,0.3,0.7,0.7,1,1c0,0.7,0,1.3,0,2c-0.3,0-0.7,0-1,0
		C69.6,56.7,69.2,56.3,68.9,56z"/>
	<path class="st12" d="M69.9,54c0-0.3,0-0.7,0-1c0.3,0,0.7,0,1,0c0,0.3,0,0.7,0,1C70.6,54,70.2,54,69.9,54z"/>
	<path class="st25" d="M69.9,54c0.3,0,0.7,0,1,0c0,0.3,0,0.7,0,1C70.6,54.7,70.2,54.3,69.9,54z"/>
	<path class="st43" d="M58.9,89c0-0.3,0-0.7,0-1c0.3,0,0.7,0,1,0c1,0,2,0,3,0c-0.3,0.3-0.7,0.7-1,1c-0.3,0-0.7,0-1,0s-0.7,0-1,0
		S59.2,89,58.9,89z"/>
	<path class="st47" d="M61.9,89c0.3-0.3,0.7-0.7,1-1c0.3,0,0.7,0,1,0c0,0.7,0,1.3,0,2c-0.3,0-0.7,0-1,0c-0.3,0-0.7,0-1,0
		C61.9,89.7,61.9,89.3,61.9,89z"/>
	<path class="st41" d="M59.9,89c0.3,0,0.7,0,1,0c-0.3,0.3-0.7,0.7-1,1C59.9,89.7,59.9,89.3,59.9,89z"/>
	<path class="st36" d="M63.9,34c0-0.3,0-0.7,0-1c0.3,0.3,0.7,0.7,1,1C64.6,34,64.2,34,63.9,34z"/>
	<path class="st19" d="M62.9,37c0-0.3,0-0.7,0-1c0.3,0.3,0.7,0.7,1,1C63.6,37,63.2,37,62.9,37z"/>
	<path class="st34" d="M72.9,83c0,0.3,0,0.7,0,1c-0.3,0-0.7,0-1,0C72.2,83.7,72.6,83.3,72.9,83z"/>
	<path class="st12" d="M61.9,45c0,1,0,2,0,3c-0.3-0.3-0.7-0.7-1-1c0-0.7,0-1.3,0-2c-0.3-0.3-0.7-0.7-1-1c0-0.3,0-0.7,0-1
		c0.3,0,0.7,0,1,0s0.7,0,1,0c0,0.3,0,0.7,0,1S61.9,44.7,61.9,45z"/>
	<path class="st18" d="M61.9,43c-0.3,0-0.7,0-1,0c0.3-0.3,0.7-0.7,1-1C61.9,42.3,61.9,42.7,61.9,43z"/>
	<path class="st18" d="M61.9,45c0-0.3,0-0.7,0-1c0.3,0,0.7,0,1,0C62.6,44.3,62.2,44.7,61.9,45z"/>
	<path class="st8" d="M46.9,46c0,0.3,0,0.7,0,1c-0.3-0.3-0.7-0.7-1-1C46.2,46,46.6,46,46.9,46z"/>
	<path class="st4" d="M45.9,78c0,0.3,0,0.7,0,1c-0.3,0-0.7,0-1,0c0-3.7,0-7.3,0-11c0-0.9-0.1-1.9,0-2.8c0.1-0.4,0.6-0.8,1-1.2
		c0.3,0,0.7,0,1,0c0,0.8,0.3,1.9-0.1,2.4c-1.4,2.1-1.4,4,0,6.1c0.4,0.6,0.1,1.6,0.1,2.4c-0.3,0.3-0.7,0.7-1,1
		C45.9,76.7,45.9,77.3,45.9,78z"/>
	<path class="st28" d="M56.9,53c-0.3,1.8-0.8,3.6-1,5.4c-0.2,1.7-0.1,3.5-0.2,5.3c0,0.1-0.5,0.2-0.8,0.3c-0.3-0.3-0.7-0.7-1-1
		c-0.5-3.3,1.3-6.4,1.2-9.7c0-0.1,0.5-0.2,0.8-0.3C56.2,53,56.6,53,56.9,53z"/>
	<path class="st46" d="M45.9,64c-0.3,0.4-0.9,0.7-1,1.2c-0.1,0.9,0,1.9,0,2.8c-0.3-0.4-0.9-0.8-1-1.2c-0.1-2.9,0-5.8,0-8.8
		c0.3,0,0.7,0,1,0c0.2,0.8-0.5,1.9,1,2c0,0.3,0,0.7,0,1c-0.3,0.2-0.6,0.3-2,1c1.8,0,2.4,0,3,0c0,0.3,0,0.7,0,1
		C46.6,63.3,46.2,63.7,45.9,64z"/>
	<path class="st19" d="M58.9,46c-0.8,1.1-1.1,2.4-1.1,3.8c0,0.4-0.6,0.8-0.9,1.2c-0.3-0.3-0.7-0.7-1-1c0.2-1.4,1.4-4.4,2-5
		C58.2,45.3,58.6,45.7,58.9,46z"/>
	<path class="st5" d="M46.9,62c-0.6,0-1.2,0-3,0c1.4-0.7,1.7-0.8,2-1c0.3-0.3,0.7-0.7,1-1c0.3,0,0.7,0,1,0
		C47.8,60.8,48.4,61.9,46.9,62z"/>
	<path class="st9" d="M45.9,78c0-0.7,0-1.3,0-2c0.3,0,0.7,0,1,0c0.3,1,0.7,2,1,3c-0.3,0-0.7,0-1,0C46.6,78.7,46.2,78.3,45.9,78z"/>
	<path class="st3" d="M53.9,63c0.3,0.3,0.7,0.7,1,1c0,0.7,0,1.3,0,2c-0.3,0-0.7,0-1,0C53.9,65,53.9,64,53.9,63z"/>
	<path class="st46" d="M58.9,46c-0.3-0.3-0.7-0.7-1-1c0.3-0.3,0.7-0.7,1-1c0.3,0,0.7,0,1,0c0,0.3,0,0.7,0,1
		C59.6,45.3,59.2,45.7,58.9,46z"/>
	<path class="st46" d="M55.9,50c0.3,0.3,0.7,0.7,1,1c0,0.7,0,1.3,0,2c-0.3,0-0.7,0-1,0C55.9,52,55.9,51,55.9,50z"/>
	<path class="st2" d="M45.9,64c0.3-0.3,0.7-0.7,1-1c0,0.3,0,0.7,0,1C46.6,64,46.2,64,45.9,64z"/>
	<path class="st34" d="M59.9,44c-0.3,0-0.7,0-1,0c0.3-0.3,0.7-0.7,1-1C59.9,43.3,59.9,43.7,59.9,44z"/>
	<path class="st12" d="M46.9,79c0.3,0,0.7,0,1,0c0,0.3,0,0.7,0,1c-0.3,0-0.7,0-1,0C46.9,79.7,46.9,79.3,46.9,79z"/>
	<path class="st12" d="M46.9,76c-0.3,0-0.7,0-1,0c0.3-0.3,0.7-0.7,1-1C46.9,75.3,46.9,75.7,46.9,76z"/>
	<path class="st21" d="M60.9,56c0,4.7,0,9.3,0,14c-1.5,0.1-0.8,1.2-1,2c0,0.3,0,0.7,0,1c-0.3-0.4-0.9-0.8-1-1.2
		c-0.1-1.3,0-2.5,0-3.8c1.9-0.5,0.6-2,1-3c0-1,0-2,0-3c-0.2-0.8,0.5-1.9-1-2c0-1.6-0.1-3.2,0-4.8c0-0.4,0.6-0.8,1-1.2
		C60.1,54.8,59.4,55.9,60.9,56z"/>
	<path class="st35" d="M60.9,76c0.3,0.1,0.8,0.2,0.8,0.3c0.2,2.3,0.4,4.5,1.2,6.7c-1.5,0.1-0.8,1.2-1,2c-0.3-0.1-0.8-0.2-0.8-0.3
		c-0.2-2.3-0.4-4.5-1.2-6.7C61.4,77.9,60.8,76.8,60.9,76z"/>
	<path class="st20" d="M61.9,85c0.2-0.8-0.5-1.9,1-2c0.3,1.7,0.7,3.3,1,5c-0.3,0-0.7,0-1,0c-1,0-2,0-3,0c0-0.3,0-0.7,0-1s0-0.7,0-1
		C60.7,85.8,61.8,86.5,61.9,85z"/>
	<path class="st9" d="M60.9,56c-1.5-0.1-0.8-1.2-1-2c0-1.3,0-2.7,0-4c0.3,0.3,0.7,0.7,1,1C60.9,52.7,60.9,54.3,60.9,56z"/>
	<path class="st34" d="M60.9,51c-0.3-0.3-0.7-0.7-1-1c0.4-1-0.9-2.5,1-3c0.3,0.3,0.7,0.7,1,1C61.5,49,62.8,50.5,60.9,51z"/>
	<path class="st4" d="M59.9,73c0-0.3,0-0.7,0-1c0.3,0,0.7,0,1,0c0,1.3,0,2.7,0,4c-0.3,0-0.7,0-1,0C59.9,75,59.9,74,59.9,73z"/>
	<path class="st20" d="M59.9,65c-0.4,1,0.9,2.5-1,3c0-1,0-2,0-3C59.2,65,59.6,65,59.9,65z"/>
	<path class="st38" d="M59.9,65c-0.3,0-0.7,0-1,0c0-1,0-2,0-3c0.3,0,0.7,0,1,0C59.9,63,59.9,64,59.9,65z"/>
	<path class="st46" d="M59.9,76c0.3,0,0.7,0,1,0c-0.2,0.8,0.5,1.9-1,2C59.9,77.3,59.9,76.7,59.9,76z"/>
	<path class="st29" d="M59.9,62c-0.3,0-0.7,0-1,0c0-0.7,0-1.3,0-2C60.4,60.1,59.8,61.2,59.9,62z"/>
	<path class="st34" d="M59.9,45c0-0.3,0-0.7,0-1c0.3,0.3,0.7,0.7,1,1C60.6,45,60.2,45,59.9,45z"/>
	<path class="st47" d="M59.9,87c0,0.3,0,0.7,0,1c-0.3,0-0.7,0-1,0c0-0.3,0-0.7,0-1C59.2,87,59.6,87,59.9,87z"/>
	<path class="st52" d="M67.9,78c-0.2,0-0.5,0-0.5,0c-0.9-3.3-0.9-6.7,0-10c0,0,0.3,0,0.5,0C67.9,71.3,67.9,74.7,67.9,78z"/>
	<path class="st27" d="M68.9,56c0.3,0.3,0.7,0.7,1,1c-0.1,2,0.5,4.2-1,6c-0.3,0-0.7,0-1,0C68.2,60.7,68.6,58.3,68.9,56z"/>
	<path class="st12" d="M70.9,60c0.3,0,0.7,0,1,0c0,0.7,0,1.3,0,2c-0.3,0-0.7,0-1,0C70.9,61.3,70.9,60.7,70.9,60z"/>
	<path class="st29" d="M70.9,62c0.3,0,0.7,0,1,0c0,0.3,0,0.7,0,1c-0.3,0-0.7,0-1,0C70.9,62.7,70.9,62.3,70.9,62z"/>
	<path class="st9" d="M44.9,79c0.3,0,0.7,0,1,0c0,0.3,0,0.7,0,1c-0.3,0-0.7,0-1,0C44.9,79.7,44.9,79.3,44.9,79z"/>
	<path class="st10" d="M60.9,72c-0.3,0-0.7,0-1,0c0.2-0.8-0.5-1.9,1-2C60.9,70.7,60.9,71.3,60.9,72z"/>
	<path class="st5" d="M45.9,60c-1.5-0.1-0.8-1.2-1-2c0.3,0,0.7,0,1,0c0,0.3,0,0.7,0,1S45.9,59.7,45.9,60z"/>
	<path class="st53" d="M45.9,60c0-0.3,0-0.7,0-1c0.3,0,0.7,0,1,0c0,0.3,0,0.7,0,1c-0.3,0.3-0.7,0.7-1,1C45.9,60.7,45.9,60.3,45.9,60
		z"/>
</g>
</svg>
