<?xml version="1.0" encoding="utf-8"?>
<!-- Generator: Adobe Illustrator 25.1.0, SVG Export Plug-In . SVG Version: 6.00 Build 0)  -->
<svg version="1.1" id="Warstwa_1" xmlns="http://www.w3.org/2000/svg" xmlns:xlink="http://www.w3.org/1999/xlink" x="0px" y="0px"
	 viewBox="0 0 210 120" style="enable-background:new 0 0 210 120;" xml:space="preserve">
<style type="text/css">
	.st0{fill:#9F9F9F;}
	.st1{clip-path:url(#SVGID_4_);}
	.st2{clip-path:url(#SVGID_5_);}
	.st3{filter:url(#Adobe_OpacityMaskFilter);}
	.st4{clip-path:url(#SVGID_6_);fill:url(#SVGID_8_);}
	.st5{clip-path:url(#SVGID_6_);mask:url(#SVGID_7_);fill:#9F9F9F;}
	.st6{clip-path:url(#SVGID_9_);}
	.st7{filter:url(#Adobe_OpacityMaskFilter_1_);}
	.st8{clip-path:url(#SVGID_10_);fill:url(#SVGID_12_);}
	.st9{clip-path:url(#SVGID_10_);mask:url(#SVGID_11_);fill:#9F9F9F;}
	.st10{clip-path:url(#SVGID_13_);}
</style>
<g>
	<path class="st0" d="M41.08,79.2v4.18c0,0.49,0.09,0.9,0.28,1.22c0.28,0.49,0.74,0.74,1.39,0.74c0.78,0,1.32-0.27,1.6-0.8
		c0.15-0.29,0.23-0.68,0.23-1.17V79.2h0.93V83c0,0.83-0.11,1.47-0.34,1.92c-0.41,0.82-1.19,1.23-2.34,1.23
		c-1.15,0-1.92-0.41-2.33-1.23c-0.23-0.45-0.34-1.09-0.34-1.92v-3.8H41.08z"/>
	<path class="st0" d="M51.63,79.2h2.93c0.8,0,1.36,0.24,1.7,0.71c0.2,0.28,0.3,0.6,0.3,0.97c0,0.43-0.12,0.78-0.36,1.05
		c-0.13,0.14-0.31,0.28-0.54,0.4c0.35,0.13,0.61,0.28,0.78,0.45c0.3,0.29,0.46,0.7,0.46,1.22c0,0.44-0.14,0.83-0.41,1.18
		c-0.41,0.53-1.06,0.79-1.96,0.79h-2.88V79.2z M54.21,82.06c0.39,0,0.7-0.05,0.91-0.16c0.34-0.17,0.51-0.47,0.51-0.91
		c0-0.44-0.18-0.74-0.54-0.89c-0.2-0.09-0.51-0.13-0.91-0.13h-1.65v2.1H54.21z M54.52,85.18c0.57,0,0.97-0.16,1.21-0.49
		c0.15-0.21,0.23-0.45,0.23-0.75c0-0.49-0.22-0.83-0.66-1c-0.24-0.1-0.55-0.14-0.93-0.14h-1.84v2.38H54.52z"/>
	<polygon class="st0" points="62.79,79.2 67.7,79.2 67.7,80.03 63.68,80.03 63.68,82.08 67.39,82.08 67.39,82.86 63.68,82.86 
		63.68,85.16 67.76,85.16 67.76,85.96 62.79,85.96 	"/>
	<polygon class="st0" points="73.24,85.2 77.4,80 73.54,80 73.54,79.2 78.58,79.2 78.58,79.98 74.4,85.16 78.58,85.16 78.58,85.96 
		73.24,85.96 	"/>
	<path class="st0" d="M84.34,79.2h3.03c0.6,0,1.08,0.17,1.45,0.51c0.37,0.34,0.55,0.82,0.55,1.43c0,0.53-0.16,0.99-0.49,1.38
		c-0.33,0.39-0.83,0.59-1.51,0.59h-2.11v2.86h-0.92V79.2z M87.9,80.13c-0.2-0.1-0.48-0.14-0.83-0.14h-1.81v2.34h1.81
		c0.41,0,0.74-0.09,0.99-0.26c0.25-0.18,0.38-0.48,0.38-0.93C88.45,80.64,88.27,80.31,87.9,80.13"/>
	<rect x="95.34" y="79.2" class="st0" width="0.93" height="6.77"/>
	<polygon class="st0" points="102.6,79.2 107.51,79.2 107.51,80.03 103.49,80.03 103.49,82.08 107.2,82.08 107.2,82.86 
		103.49,82.86 103.49,85.16 107.58,85.16 107.58,85.96 102.6,85.96 	"/>
	<path class="st0" d="M118.34,79.69c0.47,0.45,0.73,0.96,0.78,1.54h-0.89c-0.1-0.44-0.3-0.78-0.59-1.04
		c-0.3-0.25-0.71-0.38-1.25-0.38c-0.65,0-1.18,0.23-1.59,0.7c-0.4,0.47-0.6,1.19-0.6,2.16c0,0.79,0.18,1.44,0.55,1.93
		c0.36,0.49,0.91,0.74,1.63,0.74c0.66,0,1.17-0.26,1.52-0.78c0.18-0.27,0.32-0.63,0.41-1.08h0.89c-0.08,0.71-0.34,1.31-0.78,1.79
		c-0.53,0.58-1.25,0.87-2.15,0.87c-0.78,0-1.43-0.24-1.96-0.71c-0.7-0.63-1.04-1.6-1.04-2.92c0-1,0.26-1.82,0.78-2.46
		c0.56-0.69,1.34-1.04,2.34-1.04C117.21,79.01,117.87,79.24,118.34,79.69"/>
	<polygon class="st0" points="124.62,85.2 128.78,80 124.92,80 124.92,79.2 129.96,79.2 129.96,79.98 125.77,85.16 129.96,85.16 
		129.96,85.96 124.62,85.96 	"/>
	<polygon class="st0" points="135.72,79.2 140.63,79.2 140.63,80.03 136.61,80.03 136.61,82.08 140.33,82.08 140.33,82.86 
		136.61,82.86 136.61,85.16 140.7,85.16 140.7,85.96 135.72,85.96 	"/>
	<polygon class="st0" points="146.68,79.2 147.76,79.2 151.13,84.66 151.13,79.2 152.01,79.2 152.01,85.96 150.98,85.96 
		147.55,80.5 147.55,85.96 146.68,85.96 	"/>
	<rect x="158.45" y="79.2" class="st0" width="0.93" height="6.77"/>
	<path class="st0" d="M167.08,79.2h1.03l2.46,6.77h-1l-0.71-2.03h-2.65l-0.73,2.03h-0.94L167.08,79.2z M168.59,83.19l-1.04-2.99
		l-1.08,2.99H168.59z"/>
	<polygon class="st0" points="141.86,52.39 141.86,74.1 155.31,74.1 155.31,54.77 159.68,54.77 159.68,63.25 170.4,63.25 
		170.4,52.39 	"/>
	<g>
		<defs>
			<polygon id="SVGID_38_" points="141.85,52.41 141.85,74.12 155.29,74.12 155.29,54.79 159.66,54.79 159.66,63.27 170.38,63.27 
				170.38,52.41 			"/>
		</defs>
		<use xlink:href="#SVGID_38_"  style="overflow:visible;fill:#9F9F9F;"/>
		<clipPath id="SVGID_1_">
			<use xlink:href="#SVGID_38_"  style="overflow:visible;"/>
		</clipPath>
	</g>
	<g>
		<defs>
			<polygon id="SVGID_40_" points="141.85,52.41 141.85,74.12 155.29,74.12 155.29,54.79 159.66,54.79 159.66,63.27 170.38,63.27 
				170.38,52.41 			"/>
		</defs>
		<use xlink:href="#SVGID_40_"  style="overflow:visible;fill:#9F9F9F;"/>
		<clipPath id="SVGID_2_">
			<use xlink:href="#SVGID_40_"  style="overflow:visible;"/>
		</clipPath>
	</g>
	<path class="st0" d="M138.42,74.3H109.5V52.21h28.92v11.23h-15.1v8.12h15.1V74.3z M123.31,60.69h4.01v-5.74h-4.01V60.69z"/>
	<g>
		<defs>
			<polygon id="SVGID_49_" points="92.4,47.46 75.3,47.46 75.3,50.2 92.4,50.2 92.4,74.3 106.21,74.3 106.21,50.2 138.42,50.2 
				138.42,47.46 106.21,47.46 106.21,42.78 92.4,33.86 			"/>
		</defs>
		<use xlink:href="#SVGID_49_"  style="overflow:visible;fill:#9F9F9F;"/>
		<clipPath id="SVGID_3_">
			<use xlink:href="#SVGID_49_"  style="overflow:visible;"/>
		</clipPath>
	</g>
	<polygon class="st0" points="57.66,52.39 57.71,74.1 71.1,74.1 71.1,54.77 75.48,54.77 75.48,74.1 88.92,74.1 88.92,52.39 	"/>
	<g>
		<defs>
			<polygon id="SVGID_51_" points="57.48,52.22 57.52,74.3 71.28,74.3 71.28,54.96 75.3,54.96 75.3,74.3 89.11,74.3 89.11,52.22 			
				"/>
		</defs>
		<use xlink:href="#SVGID_51_"  style="overflow:visible;fill:#9F9F9F;"/>
		<clipPath id="SVGID_4_">
			<use xlink:href="#SVGID_51_"  style="overflow:visible;"/>
		</clipPath>
		<g class="st1">
			<defs>
				<rect id="SVGID_53_" x="67.94" y="53.39" width="12.13" height="19.59"/>
			</defs>
			<use xlink:href="#SVGID_53_"  style="overflow:visible;fill:#9F9F9F;"/>
			<clipPath id="SVGID_5_">
				<use xlink:href="#SVGID_53_"  style="overflow:visible;"/>
			</clipPath>
			<g class="st2">
				<defs>
					<path id="SVGID_55_" d="M79.92,70.07c-0.37,2.35-3.09,2.91-3.09,2.91s0.6-1.03,0.62-3.01c0.02-2.01,0.03-10.05-0.01-13.85
						c0,0,0-0.57-0.01-0.72c-0.02-0.44-0.05-0.78-0.28-0.99c-0.22-0.21-0.43-0.48-1.87-0.48c-1.06,0-2.13-0.01-3.98-0.01
						c-2.72,0-3.35-0.46-3.35-0.46s2.58,0,5.47-0.06c1.46-0.03,3-0.02,4.53,0.06c0.55,0.03,0.93,0.12,1.21,0.24
						c0.33,0.15,0.64,0.55,0.73,0.79c0.11,0.3,0.12,0.62,0.12,1.47C80,55.97,80.2,68.31,79.92,70.07"/>
				</defs>
				<use xlink:href="#SVGID_55_"  style="overflow:visible;fill-rule:evenodd;clip-rule:evenodd;fill:#9F9F9F;"/>
				<clipPath id="SVGID_6_">
					<use xlink:href="#SVGID_55_"  style="overflow:visible;"/>
				</clipPath>
				<defs>
					<filter id="Adobe_OpacityMaskFilter" filterUnits="userSpaceOnUse" x="67.94" y="53.38" width="12.25" height="19.61">
						<feColorMatrix  type="matrix" values="1 0 0 0 0  0 1 0 0 0  0 0 1 0 0  0 0 0 1 0"/>
					</filter>
				</defs>
				<mask maskUnits="userSpaceOnUse" x="67.94" y="53.38" width="12.25" height="19.61" id="SVGID_7_">
					<g class="st3">
						
							<linearGradient id="SVGID_8_" gradientUnits="userSpaceOnUse" x1="-9.0024" y1="116.0466" x2="-8.7702" y2="116.0466" gradientTransform="matrix(52.2183 0 0 -52.2183 538.0361 6122.9312)">
							<stop  offset="0" style="stop-color:#000000"/>
							<stop  offset="0.0254" style="stop-color:#252525"/>
							<stop  offset="0.0648" style="stop-color:#585858"/>
							<stop  offset="0.1061" style="stop-color:#848484"/>
							<stop  offset="0.1485" style="stop-color:#AAAAAA"/>
							<stop  offset="0.1923" style="stop-color:#C9C9C9"/>
							<stop  offset="0.238" style="stop-color:#E1E1E1"/>
							<stop  offset="0.2863" style="stop-color:#F2F2F2"/>
							<stop  offset="0.3392" style="stop-color:#FCFCFC"/>
							<stop  offset="0.4049" style="stop-color:#FFFFFF"/>
							<stop  offset="0.85" style="stop-color:#FFFFFF"/>
							<stop  offset="1" style="stop-color:#8C8C8C"/>
						</linearGradient>
						<rect x="67.94" y="53.38" class="st4" width="12.25" height="19.61"/>
					</g>
				</mask>
				<rect x="67.94" y="53.38" class="st5" width="12.25" height="19.61"/>
			</g>
		</g>
		<g class="st1">
			<defs>
				<rect id="SVGID_60_" x="58.96" y="53.43" width="7.93" height="19.56"/>
			</defs>
			<use xlink:href="#SVGID_60_"  style="overflow:visible;fill:#9F9F9F;"/>
			<clipPath id="SVGID_9_">
				<use xlink:href="#SVGID_60_"  style="overflow:visible;"/>
			</clipPath>
			<g class="st6">
				<defs>
					<path id="SVGID_62_" d="M61.24,71.68c-0.92,0.91-2.28,1.3-2.28,1.3s0.26-0.51,0.43-1.18c0.12-0.47,0.15-1.04,0.18-1.44
						c0.13-2.18-0.02-14.91,0-15.22c0.02-0.32,0.03-0.75,0.41-1.11c0.4-0.38,1.02-0.47,1.58-0.51c1.36-0.09,5.33-0.09,5.33-0.09
						s-3.38,0.09-4.29,1.01c-0.27,0.27-0.45,0.71-0.46,1.32c-0.02,3.5-0.04,11.84-0.06,13.96C62.08,70.44,61.75,71.18,61.24,71.68"
						/>
				</defs>
				<use xlink:href="#SVGID_62_"  style="overflow:visible;fill-rule:evenodd;clip-rule:evenodd;fill:#9F9F9F;"/>
				<clipPath id="SVGID_10_">
					<use xlink:href="#SVGID_62_"  style="overflow:visible;"/>
				</clipPath>
				<defs>
					<filter id="Adobe_OpacityMaskFilter_1_" filterUnits="userSpaceOnUse" x="58.96" y="53.43" width="7.93" height="19.56">
						<feColorMatrix  type="matrix" values="1 0 0 0 0  0 1 0 0 0  0 0 1 0 0  0 0 0 1 0"/>
					</filter>
				</defs>
				<mask maskUnits="userSpaceOnUse" x="58.96" y="53.43" width="7.93" height="19.56" id="SVGID_11_">
					<g class="st7">
						
							<linearGradient id="SVGID_12_" gradientUnits="userSpaceOnUse" x1="-8.6625" y1="115.5441" x2="-8.4303" y2="115.5441" gradientTransform="matrix(34.1582 0 0 -34.1582 354.854 4009.9824)">
							<stop  offset="0" style="stop-color:#FFFFFF"/>
							<stop  offset="0.1125" style="stop-color:#FAFAFA"/>
							<stop  offset="0.2365" style="stop-color:#EDEDED"/>
							<stop  offset="0.3661" style="stop-color:#D7D7D7"/>
							<stop  offset="0.4997" style="stop-color:#B8B8B8"/>
							<stop  offset="0.6361" style="stop-color:#909090"/>
							<stop  offset="0.7751" style="stop-color:#606060"/>
							<stop  offset="0.9135" style="stop-color:#272727"/>
							<stop  offset="1" style="stop-color:#000000"/>
						</linearGradient>
						<rect x="58.96" y="53.43" class="st8" width="7.93" height="19.56"/>
					</g>
				</mask>
				<rect x="58.96" y="53.43" class="st9" width="7.93" height="19.56"/>
			</g>
		</g>
	</g>
	<g>
		<defs>
			<rect id="SVGID_67_" x="40.41" y="52.42" width="13.43" height="21.71"/>
		</defs>
		<use xlink:href="#SVGID_67_"  style="overflow:visible;fill:#9F9F9F;"/>
		<clipPath id="SVGID_13_">
			<use xlink:href="#SVGID_67_"  style="overflow:visible;"/>
		</clipPath>
		<g class="st10">
			<defs>
				<rect id="SVGID_69_" x="31.69" y="43.69" width="30.65" height="38.96"/>
			</defs>
			<use xlink:href="#SVGID_69_"  style="overflow:visible;fill:#9F9F9F;"/>
			<clipPath id="SVGID_14_">
				<use xlink:href="#SVGID_69_"  style="overflow:visible;"/>
			</clipPath>
		</g>
	</g>
	<g>
		<defs>
			<rect id="SVGID_71_" x="40.41" y="52.39" width="13.43" height="21.71"/>
		</defs>
		<use xlink:href="#SVGID_71_"  style="overflow:visible;fill:#9F9F9F;"/>
		<clipPath id="SVGID_15_">
			<use xlink:href="#SVGID_71_"  style="overflow:visible;"/>
		</clipPath>
	</g>
	<g>
		<defs>
			<path id="SVGID_73_" d="M39.43,42.18c0,4.28,3.47,7.75,7.75,7.75c4.28,0,7.75-3.47,7.75-7.75c0-4.28-3.47-7.75-7.75-7.75
				C42.91,34.43,39.43,37.9,39.43,42.18"/>
		</defs>
		<use xlink:href="#SVGID_73_"  style="overflow:visible;fill:#9F9F9F;"/>
		<clipPath id="SVGID_16_">
			<use xlink:href="#SVGID_73_"  style="overflow:visible;"/>
		</clipPath>
	</g>
</g>
</svg>
