<?xml version="1.0" encoding="utf-8"?>
<!-- Generator: Adobe Illustrator 25.1.0, SVG Export Plug-In . SVG Version: 6.00 Build 0)  -->
<svg version="1.1" id="Warstwa_1" xmlns="http://www.w3.org/2000/svg" xmlns:xlink="http://www.w3.org/1999/xlink" x="0px" y="0px"
	 viewBox="0 0 210 120" style="enable-background:new 0 0 210 120;" xml:space="preserve">
<style type="text/css">
	.st0{fill:#9F9F9F;}
</style>
<g>
	<path class="st0" d="M31.82,52.22c4.75,0,8.6-3.85,8.6-8.6h-8.6V52.22z"/>
	<path class="st0" d="M99.69,60.41h8.6v-8.6C103.54,51.81,99.69,55.66,99.69,60.41"/>
	<path class="st0" d="M31.82,60.41v15.56h8.6V51.81C35.67,51.81,31.82,55.66,31.82,60.41"/>
	<rect x="90.27" y="51.81" class="st0" width="8.19" height="24.16"/>
	<path class="st0" d="M127.83,65.01c0,2.79-1.53,4.8-4.48,4.8c-2.9,0-3.76-2.12-3.76-4.7V51.81h-8.14v15.53
		c0,2.63,0.25,4.55,2.14,6.51c1.83,1.86,4.12,2.53,6.66,2.53c3.1,0,5.65-0.93,7.58-3.46v3.05h8.19V51.81h-8.19V65.01z"/>
	<path class="st0" d="M59.62,51.4c-3.1,0-5.65,0.93-7.58,3.46v-3.05h-8.19v24.16h8.19v-13.2c0-2.79,1.53-4.8,4.48-4.8
		c2.9,0,3.76,2.12,3.76,4.7v13.31h8.14V60.44c0-2.63-0.25-4.55-2.14-6.51C64.45,52.07,62.16,51.4,59.62,51.4"/>
	<path class="st0" d="M81.75,43.62h-7.78v8.19h-3.51v6.55h3.51l0,9.91c0,2.38,0.09,4.14,1.09,5.61c1.57,2.28,4.99,2.46,7.51,2.5
		c1.67,0.02,2.61-0.21,4.26-0.55l-0.01-5.65c0,0-1.84,0.14-3.19,0.14c-1.95,0-1.95-1.29-1.9-2.81v-9.13h5.1v-6.57h-5.09V43.62z"/>
	<path class="st0" d="M176.92,54.51c-1.41-2.09-3.97-3.11-6.43-3.11c-3.37,0-5.92,1.43-7.73,4.34c-1.81-3.06-4.27-4.34-7.73-4.34
		c-3.11,0-5.12,1.02-7.33,3.21v-2.81h-8.21v24.16h8.21V63.49c0-1.17,0-2.86,0.55-3.93c0.55-1.12,1.91-1.94,3.11-1.94
		c2.66,0,3.52,2.4,3.52,4.64v13.7h8.03V63.49c0-1.22,0-2.45,0.55-3.57c0.6-1.28,1.91-2.14,3.32-2.14c3.21,0,3.36,3.32,3.36,5.71
		v12.48h8.03v-16.1C178.18,58.03,177.97,56.09,176.92,54.51"/>
</g>
</svg>
