<?xml version="1.0" encoding="utf-8"?>
<!-- Generator: Adobe Illustrator 19.0.0, SVG Export Plug-In . SVG Version: 6.00 Build 0)  -->
<svg version="1.1" id="Warstwa_1" xmlns="http://www.w3.org/2000/svg" xmlns:xlink="http://www.w3.org/1999/xlink" x="0px" y="0px"
	 viewBox="0 0 210.1 120.1" style="enable-background:new 0 0 210.1 120.1;" xml:space="preserve">
<style type="text/css">
	.st0{fill:#FEFEFE;}
	.st1{fill:#A1A1A1;}
	.st2{fill:#A4A4A4;}
	.st3{fill:#A5A5A5;}
	.st4{fill:#A6A6A6;}
	.st5{fill:#A3A3A3;}
	.st6{fill:#A7A7A7;}
	.st7{fill:#ABABAB;}
	.st8{fill:#A8A8A8;}
	.st9{fill:#B4B4B4;}
	.st10{fill:#B1B1B1;}
	.st11{fill:#CDCDCD;}
	.st12{fill:#EEEEEE;}
	.st13{fill:#FBFBFB;}
	.st14{fill:#C4C4C4;}
	.st15{fill:#E3E3E3;}
	.st16{fill:#ADADAD;}
	.st17{fill:#E7E7E7;}
	.st18{fill:#B2B2B2;}
	.st19{fill:#DFDFDF;}
	.st20{fill:#AAAAAA;}
	.st21{fill:#BABABA;}
	.st22{fill:#BFBFBF;}
	.st23{fill:#C5C5C5;}
	.st24{fill:#9F9F9F;}
	.st25{fill:#F3F3F3;}
	.st26{fill:#AFAFAF;}
	.st27{fill:#9D9D9D;}
	.st28{fill:#AEAEAE;}
	.st29{fill:#F6F6F6;}
	.st30{fill:#CFCFCF;}
	.st31{fill:#F8F8F8;}
	.st32{fill:#FDFDFD;}
	.st33{fill:#F9F9F9;}
	.st34{fill:#EAEAEA;}
	.st35{fill:#F1F1F1;}
	.st36{fill:#ECECEC;}
	.st37{fill:#9E9E9E;}
	.st38{fill:#E1E1E1;}
</style>
<g>
	<path class="st0" d="M-1.4,119.6c0-40,0-80,0-120c70,0,140,0,210,0c0,40,0,80,0,120C138.6,119.6,68.6,119.6-1.4,119.6z M157.6,46.6
		c0.3,0,0.7,0,1,0c0.3,0.3,0.7,0.7,1,1c0.3,0,0.7,0,1,0s0.7,0,1,0c0.3,0.3,0.7,0.7,1,1c0.3,0,0.7,0,1,0c0.3,0.3,0.7,0.7,1,1
		c0.3,0,0.7,0,1,0c0.3,0.3,0.7,0.7,1,1c1,0.3,2,0.7,3,1c0.1,0.3,0.2,0.8,0.4,0.8c3.6,0.8,5.8,3.5,7.9,6.1c4.4,5.1,3.4,9.8-2.6,13.1
		c-1.2,0.7-2.4,1.3-3.7,2c-0.3-0.3-0.7-0.7-1-1c0-1,0-1.9,0-3c-1.3,0-2.3,0.1-3.3,0c-7.7-0.6-15.4,0.7-23.1,1
		c-0.9,0-1.7,0.2-2.6,0.3c2.5,0.7,4.9,0.6,7.4,0.8c2.5,0.2,5,0.8,7.6,0.9c3,0.2,6,0,9,0c0.8,0.2,1.9-0.5,2,1c-0.3,0.3-0.7,0.7-1,1
		c-0.3,0.3-0.7,0.7-1,1c-0.3,0.2-0.6,0.3-2,1c2.1,0,3,0,4,0c0.8-0.2,1.9,0.5,2-1c0.7,0,1.3,0,2,0c0.3-0.3,0.7-0.7,1-1
		c4.6-0.5,8.7-2.1,11.6-5.5c2.9-3.8,1-7.4-0.9-10c-3-4.2-7.4-7.2-12.7-8.5c-0.1-1.5-1.2-0.8-2-1c-0.3-0.3-0.7-0.7-1-1
		c-0.3,0-0.7,0-1,0c-0.3-0.3-0.7-0.7-1-1c-0.7,0-1.3,0-2,0c-0.3-0.3-0.7-0.7-1-1c-0.7,0-1.3,0-2,0c-0.1-1.5-1.2-0.8-2-1
		c-0.3,0-0.7,0-1,0c-0.1-1.5-1.2-0.8-2-1c-0.3,0-0.7,0-1,0s-0.7,0-1,0c-0.4-0.3-0.7-0.9-1.2-1c-0.9-0.1-1.9,0-2.8,0
		c-1.1-0.5-2.1-1.3-3.6-1c-1.5,0.2-3,0-4.4,0c-1.9,0.2-4-0.3-5.8,1c1.9,0,3.9,0,5.8,0c1.3,0,2.7-0.1,4,0c1.4,0.2,2.7,0.6,4,1
		c0.7,0.2,1.4,0.5,2.2,0.7c0.6,0.2,1.2,0.2,1.8,0.3c0.3,0,0.7,0,1,0s0.7,0,1,0c0.3,0.3,0.7,0.7,1,1
		C156.9,46.6,157.2,46.6,157.6,46.6z M89.6,70.6c0.3,0.3,0.7,0.7,1,1c0.1,1.5,1.2,0.8,2,1c0.3,0.3,0.7,0.7,1,1c0.2,0.8-0.5,1.9,1,2
		c0.3,0,0.7,0,1,0c0.3,0.3,0.5,0.7,0.8,1c0.4-0.3,0.8-0.7,1.2-1c0.4-0.5,0.8-1,1.6-2c-1.4,0-2,0-2.6,0c0.3-1,0.9-2,1-3.1
		c0.2-2,0-4,0-5.9c-0.3-0.3-0.7-0.7-1-1c-0.3,0-0.7,0-1,0c-1.6-1.4-3.4-1.4-5,0c-0.3,0.3-0.7,0.5-1,0.8c0.3,0.4,0.7,0.8,1,1.2
		c0.3,0.3,0.7,0.7,1,1c-0.3,0-0.7,0-1,0c-0.3,0.3-0.7,0.7-1,1c0,0.3,0,0.7,0,1c-0.3,0.3-0.7,0.5-1,0.8
		C88.9,69.7,89.2,70.2,89.6,70.6z M64.6,46.6c0-0.3,0-0.7,0-1c0-0.6,0-1.2,0-2.1c-1.2,0.1-2.1,0.2-3,0.3c0,0.8,0,1.3,0,1.8
		c0,0.3,0,0.7,0,1s0,0.7,0,1c0,3.3,0,6.5,0,9.7c-0.9,0.3-1.4,0.5-2,0.7c0,0.4,0,0.8,0,1.3c1.9,0.6,3.7,0.7,5-1.3c0-3.5,0-6.9,0-10.4
		C64.6,47.2,64.6,46.9,64.6,46.6z M121.6,61.6c0.6,0,1.2,0,1.7,0c0.8-2.3-0.6-2-1.7-2c-0.3,0.3-0.7,0.5-1,0.8
		C120.9,60.7,121.2,61.2,121.6,61.6z M139.6,52.6c2.6,0.6,5.1,1.7,7.4,0.4c0.6-0.2,1.1-0.5,1.9-0.8c-0.8-0.3-1.1-0.4-1.3-0.5
		c-0.4-0.3-0.8-0.9-1.3-1c-3.9-0.1-7.8-0.1-11.8,0c-0.6,0-1.2,0.2-2.9,0.5C135,51.7,137.3,52.2,139.6,52.6z M55.6,65.6
		c0.6,0,1.2,0,2.2,0c0,2.2,0,4.1,0,5.8c1.1,0,1.9,0,2.7,0c0-2.6,0-5,0-7.4c-1.9-1-3.8-2.4-5.9-0.4c-0.7-1.8-1.9-0.9-2.9-0.6
		c0,2.9,0,5.6,0,8.4c1,0,1.9,0,2.9,0c0-1.8,0-3.4,0-5C54.6,66.1,55.2,65.8,55.6,65.6z M78.6,61.6c1-0.8,2-1.7,3.2-2.6
		c-2.3-0.7-3.6-0.3-4.2,1.6c-1.4,1.6-2.8,3.3-4.1,4.9c2.3,2.7,2.3,2.7,5.2,3.9c-0.2,0.4-0.3,0.8-0.5,1.3c-1.6,0.1-3-2.4-4.8,0
		c1.3,1.6,3.1,2.2,5,1.9c1.2-0.2,2.2-0.9,3.3-1.3c0-1.2,0-2.2,0-2.9c-1-2.1-2.8-1.6-4.4-1.7c-0.2,0-0.4-0.4-0.6-0.8
		c0.1-0.4,0.3-0.8,0.5-1.4c1.5,0.4,2.9,0.8,4.3,1.2C82.2,62.6,78.9,63.3,78.6,61.6z M128.6,71.6c1.6,1.4,3.4,1.4,5,0
		c0.3,0,0.7,0,1,0c1.9-0.5,0.6-2,1-3c-0.3-1.6-0.7-3.3-1-4.9c-2-0.5-3.8-0.9-4.9-1.2c-1.7,1.5-3,2.6-4,3.5c0,1.2,0,2.2,0,3.3
		C126.6,70,127.6,70.8,128.6,71.6z M58.6,56.6c0.3-0.4,0.9-0.7,1-1.2c0.1-0.9,0-1.9,0-2.8c0-0.8,0-1.6,0-1.7
		c-1.1-1.5-1.9-2.6-2.4-3.2c-2.1,0-3.7,0-5.6,0c-0.8,1.5-1.5,3-2.3,4.4c0.6,1.3,1.2,2.4,1.6,3.2C53.4,57,56,56.5,58.6,56.6z
		 M75.6,53.6c0-0.3,0-0.7,0-1c0-1.3,0-2.6,0-3.5c-0.7-0.7-1-1-1.4-1.4c-2.1,0-4.3,0-6.7,0c-0.4,2.2-0.8,4.3-1,5.8
		c1.2,1.4,1.9,2.3,2.5,3c1.9,0,3.6,0,5.6,0C74.9,55.6,75.2,54.6,75.6,53.6z M32.6,69.1c0-2,0-4,0-6c-0.8-0.8-1.6-1.6-2.6-2.6
		c-2.7,1.1-5.7-3.2-8.3,0.5c0,3.4,0,6.9,0,10.5c2.9,0,5.7,0,8.5,0C30.9,70.7,31.7,69.9,32.6,69.1z M27.4,49.7c1.9-1.6,3.5-3.1,5.7-5
		c-2,0-3.1,0-4,0c-1.4,1.2-2.6,2.2-4.1,3.6c-0.3-1.7-0.5-2.7-0.7-3.5c-1.1,0-1.8,0-2.5,0c0,4,0,7.7,0,11.5c0,0.1,0.2,0.2,0.1,0.1
		c1,0,1.8,0,2.5,0c0.1-1.4,0.3-2.6,0.5-4.7c2.2,2,3.8,3.5,5.5,5c0.9-0.2,1.6-0.4,2.9-0.7C31,53.6,29.2,51.6,27.4,49.7z M113.5,65.6
		c0-2.1,0-4,0-5.9c-1.1,0-1.9,0-2.8,0c0,4,0,7.8,0,12c1.1-0.1,2-0.1,2.7-0.2c0.2-0.8,0.3-1.3,0.3-1.5c0.6,0.6,1.3,1.3,1.8,1.8
		c1.6-0.2,2.8-0.3,4.2-0.5c-1.6-1.6-2.9-2.9-4.6-4.6c1.4-1.3,2.8-2.5,4.2-3.8C116.5,61.4,115.8,64.7,113.5,65.6z M44.6,67.4
		c-0.9-1.3-2.1-3.2-3.2-4.7c-3-0.4-5.1,0.7-6.7,2.2c0,2,0,3.8,0,5.7c1.4,0.8,2.8,1.5,3.9,2.1C41.7,72.2,43.5,70.5,44.6,67.4z
		 M33.6,48.6c0,2.2,0,3.8,0,5.4c0.8,0.8,1.6,1.6,2.5,2.5c1.4,0,2.8,0,3.5,0c1.4-1.1,2.4-1.7,3-2.2c0-2.1,0-3.7,0-5.6
		c-1.5-0.6-3-1.3-4.3-1.8C36.6,47.4,35.2,47.9,33.6,48.6z M71.6,64.3c-3-2.4-5.5-2-7.9-0.4c-1.4,3.6-1.4,3.6,0.2,7.6
		c1.6,0.4,3.4,0.8,4.6,1.1c1.7-1.5,2.9-2.6,4.3-4C72.4,67.2,71.9,65.6,71.6,64.3z M102.1,72.9c1.8-0.5,3.6-0.9,5.1-1.3
		c0.5-1,0.8-1.7,1.2-2.7c-0.8-0.7-1.6-1.9-2.7-2.2c-1.3-0.3-2.4-0.4-3-1.8c1.3-0.7,2.4-0.4,3.5,0.6c0.2,0.2,0.9-0.1,1.8-0.3
		c-0.7-1.1-1.3-2-1.7-2.6c-1.7,0-3,0-4.2,0c-0.9,1-1.8,1.9-2.9,3.1c1.3,1.1,2.3,1.9,3.4,2.8c0.6,0.1,1.4,0.3,2.5,0.6
		c-0.5,0.8-0.7,1.2-0.9,1.5c-1.2-0.3-2.2-0.6-4.3-1.2C100.8,71.1,101.4,71.8,102.1,72.9z M49.4,71.3c0-4,0-7.7,0-11.5
		c-1.4,0-2.6,0-3.8,0c0,4,0,7.7,0,11.4c0.7,0.6,1.2,1.1,1.9,1.7C48.3,72.3,48.7,71.9,49.4,71.3z M47.4,56.5c0-4.3,0-8.5,0-12.8
		c-1,0-1.7,0-2.7,0c0,4.3,0,8.5,0,12.8C45.7,56.5,46.5,56.5,47.4,56.5z M83.7,59.7c0,4.2,0,7.9,0,11.8c0.8,0.4,1.6,0.8,2.7,1.4
		c0-4.7,0-8.9,0-13.2C85.5,59.7,84.7,59.7,83.7,59.7z M120.6,71.4c1,0.5,1.8,0.9,2.7,1.4c0.7-7.7,0.6-9.7-0.7-10.4
		c-0.6,0.5-1.3,1.1-2,1.6C120.6,66.4,120.6,68.7,120.6,71.4z"/>
	<path class="st1" d="M171.6,73.6c1.2-0.7,2.4-1.3,3.7-2c6.1-3.3,7.1-8,2.6-13.1c-2.2-2.5-4.4-5.2-7.9-6.1c-0.2,0-0.2-0.5-0.4-0.8
		c0.3-0.3,0.7-0.7,1-1c5.3,1.3,9.7,4.2,12.7,8.5c1.9,2.6,3.8,6.3,0.9,10c-2.9,3.4-7,5-11.6,5.5c-0.3,0-0.7,0-1,0
		C171.6,74.2,171.6,73.9,171.6,73.6z"/>
	<path class="st2" d="M32.6,69.1c-0.8,0.8-1.6,1.6-2.4,2.3c-2.8,0-5.6,0-8.5,0c0-3.6,0-7,0-10.5c2.7-3.7,5.7,0.7,8.3-0.5
		c0.9,0.9,1.8,1.8,2.6,2.6C32.6,65.1,32.6,67.1,32.6,69.1z M24.7,69.3c1.8,0.5,3.5,0.7,4.7-1c0-1.7,0-3.1,0-4.3
		c-1.4-1.8-3-1.4-4.7-1.2C24.7,64.9,24.7,67,24.7,69.3z"/>
	<path class="st3" d="M27.4,49.7c1.8,2,3.6,4,5.9,6.4c-1.3,0.3-2,0.5-2.9,0.7c-1.6-1.5-3.3-3-5.5-5c-0.2,2-0.3,3.2-0.5,4.7
		c-0.7,0-1.5,0-2.5,0c0.1,0.1-0.1,0-0.1-0.1c0-3.8,0-7.5,0-11.5c0.7,0,1.5,0,2.5,0c0.2,0.8,0.4,1.8,0.7,3.5c1.6-1.4,2.8-2.4,4.1-3.6
		c0.9,0,2,0,4,0C30.9,46.6,29.2,48,27.4,49.7z"/>
	<path class="st4" d="M165.6,72.6c-3,0-6,0.1-9,0c-2.5-0.1-5-0.8-7.6-0.9c-2.4-0.2-4.9,0-7.4-0.8c0.9-0.1,1.7-0.2,2.6-0.3
		c7.7-0.3,15.3-1.6,23.1-1c1,0.1,2,0,3.3,0c0,1.1,0,2,0,3c-0.3,0.3-0.7,0.5-1,0.8c0.3,0.4,0.7,0.8,1,1.2c0.3,0,0.7,0,1,0
		c0,0.3,0,0.7,0,1c-0.7,0-1.3,0-2,0c-0.8,0.2-1.9-0.5-2,1c-0.9,0-1.9,0-4,0c1.4-0.7,1.7-0.8,2-1c0.3-0.3,0.7-0.7,1-1
		c0.3-0.3,0.7-0.7,1-1c1.4-0.3,1.2-1.1,0.6-1.9C167.2,71.8,165.8,70.7,165.6,72.6z"/>
	<path class="st4" d="M113.5,65.6c2.2-0.9,2.9-4.2,5.8-2.7c-1.4,1.3-2.8,2.5-4.2,3.8c1.7,1.7,3,3,4.6,4.6c-1.4,0.2-2.6,0.3-4.2,0.5
		c-0.5-0.5-1.2-1.2-1.8-1.8c-0.1,0.3-0.1,0.7-0.3,1.5c-0.7,0.1-1.6,0.1-2.7,0.2c0-4.1,0-8,0-12c0.9,0,1.7,0,2.8,0
		C113.5,61.6,113.5,63.5,113.5,65.6z"/>
	<path class="st4" d="M44.6,67.4c-1.2,3.1-2.9,4.8-6,5.3c-1.1-0.6-2.5-1.3-3.9-2.1c0-1.9,0-3.7,0-5.7c1.6-1.6,3.7-2.7,6.7-2.2
		C42.5,64.2,43.7,66,44.6,67.4z M39.2,70.7c0.8-1.2,1.5-2.4,2.1-3.3c-0.9-0.8-1.8-1.6-2.7-2.3C37,67.6,37,67.9,39.2,70.7z"/>
	<path class="st5" d="M75.6,53.6c-0.3,1-0.7,2-1,3c-2.1,0-3.7,0-5.6,0c-0.6-0.7-1.3-1.6-2.5-3c0.3-1.5,0.7-3.6,1-5.8
		c2.5,0,4.6,0,6.7,0c0.3,0.3,0.7,0.7,1.4,1.4c0,0.9,0,2.2,0,3.5c-0.3,0-0.7,0-1,0c-1.3,0-2.7,0-4,0c-0.3,0.1-0.6,0.2-0.8,0.3
		c0.3,0.2,0.6,0.4,0.8,0.7c0.3,0.3,0.7,0.7,1,1c0.3,0,0.7,0,1,0c0.8-0.2,1.9,0.5,2-1C74.9,53.6,75.2,53.6,75.6,53.6z M71.4,48.9
		c-0.7,0.3-1.3,0.7-2,1c0.1,0.2,0.2,0.5,0.4,0.7c0.9-0.1,1.8-0.2,2.9-0.4C72,49.5,71.5,49,71.4,48.9z"/>
	<path class="st2" d="M33.6,48.6c1.7-0.6,3.1-1.2,4.6-1.8c1.3,0.6,2.9,1.2,4.3,1.8c0,1.9,0,3.6,0,5.6c-0.6,0.5-1.5,1.1-3,2.2
		c-0.6,0-2.1,0-3.5,0c-0.8-0.8-1.6-1.6-2.5-2.5C33.6,52.4,33.6,50.7,33.6,48.6z M36.9,49.7c-0.3,4-0.3,4,2.5,4.7c0-1.6,0-3.1,0-4.7
		C38.4,49.7,37.6,49.7,36.9,49.7z"/>
	<path class="st2" d="M58.6,56.6c-2.5-0.1-5.1,0.5-7.7-1.3c-0.4-0.8-0.9-1.9-1.6-3.2c0.8-1.4,1.5-2.9,2.3-4.4c1.8,0,3.4,0,5.6,0
		c0.5,0.7,1.3,1.7,2.4,3.2c0,0,0,0.8,0,1.7c-2,0-4,0-6,0c-0.3,0.1-0.6,0.2-0.8,0.3c0.3,0.2,0.6,0.4,0.8,0.7c0.3,0.3,0.7,0.7,1,1
		c0.3,0,0.7,0,1,0c0.8-0.2,1.9,0.5,2-1C59.5,54,58.2,55.6,58.6,56.6z M52.6,49.9c0.1,0.2,0.1,0.5,0.2,0.7c1.2-0.1,2.4-0.2,3.8-0.2
		c-0.7-0.9-1.1-1.3-1.5-1.8c-0.3,0.3-0.5,0.6-0.8,0.8C53.8,49.5,53.2,49.7,52.6,49.9z"/>
	<path class="st2" d="M71.6,64.3c0.3,1.2,0.8,2.9,1.2,4.4c-1.4,1.3-2.6,2.4-4.3,4c-1.2-0.3-3-0.7-4.6-1.1c-1.6-4-1.6-4-0.2-7.6
		C66.1,62.4,68.5,61.9,71.6,64.3z M68.2,64.3c-2.4,1-2.8,2.2-2.7,3.8c0.1,1.6,1.1,2.2,2.3,2.5c1.4-0.8,2.1-1.8,1.7-3.3
		C69.3,66.3,68.7,65.4,68.2,64.3z"/>
	<path class="st6" d="M134.6,71.6c-0.3,0-0.7,0-1,0c-1.7,0-3.3,0-5,0c-1-0.8-2-1.5-3-2.3c0-1.1,0-2.1,0-3.3c1.1-0.9,2.3-2,4-3.5
		c1.1,0.3,2.9,0.7,4.9,1.2c0.3,1.7,0.7,3.3,1,4.9c-2.3,0.1-4.6-0.3-7.6,0.4c1,0.4,1.3,0.5,1.6,0.6c0.3,0.3,0.7,0.7,1,1
		c0.7,0,1.3,0,2,0c0.3-0.3,0.7-0.7,1-1C135,69.7,134.4,70.8,134.6,71.6z M129,66.6c1-0.1,2.2-0.1,3.8-0.2c-1-1-1.6-1.5-2.7-2.5
		C129.7,64.9,129.4,65.7,129,66.6z"/>
	<path class="st7" d="M78.6,61.6c0.3,1.7,3.7,1,2.8,4c-1.4-0.4-2.8-0.8-4.3-1.2c-0.2,0.6-0.4,1-0.5,1.4c0.3,0.3,0.4,0.8,0.6,0.8
		c1.6,0.1,3.4-0.4,4.4,1.7c0,0.7,0,1.7,0,2.9c-1,0.4-2.1,1.2-3.3,1.3c-1.9,0.3-3.6-0.3-5-1.9c1.8-2.4,3.2,0.1,4.8,0
		c0.2-0.4,0.3-0.8,0.5-1.3c-2.9-1.2-2.9-1.2-5.2-3.9c1.4-1.6,2.7-3.2,4.1-4.9C77.9,60.9,78.2,61.2,78.6,61.6z"/>
	<path class="st8" d="M102.1,72.9c-0.7-1-1.2-1.8-2.4-3.5c2.1,0.6,3.1,0.9,4.3,1.2c0.2-0.3,0.4-0.7,0.9-1.5
		c-1.1-0.3-1.9-0.5-2.5-0.6c-1.1-0.9-2.1-1.7-3.4-2.8c1.1-1.2,2-2.1,2.9-3.1c1.3,0,2.6,0,4.2,0c0.4,0.6,1,1.5,1.7,2.6
		c-0.9,0.2-1.6,0.5-1.8,0.3c-1-1.1-2.1-1.3-3.5-0.6c0.6,1.4,1.7,1.5,3,1.8c1.1,0.2,1.9,1.5,2.7,2.2c-0.4,0.9-0.7,1.6-1.2,2.7
		C105.7,71.9,103.9,72.4,102.1,72.9z"/>
	<path class="st9" d="M49.4,71.3c-0.7,0.6-1.1,1-1.8,1.6c-0.7-0.6-1.2-1.1-1.9-1.7c0-3.7,0-7.5,0-11.4c1.2,0,2.4,0,3.8,0
		C49.4,63.6,49.4,67.3,49.4,71.3z"/>
	<path class="st1" d="M95.6,75.6c-0.3,0-0.7,0-1,0c0-0.7,0-1.3,0-2c0.3-0.7,0.7-1.3,1-2c-0.3-0.3-0.7-0.7-1-1c0-0.3,0-0.7,0-1
		c0.3-0.3,0.7-0.5,1-0.8c-0.3-0.4-0.7-0.8-1-1.2c-0.7,0-1.3,0-2,0c-0.3,0.3-0.7,0.7-1,1c0,0.3,0,0.7,0,1c0.3,0.3,0.7,0.7,1,1
		c0.7,0,1.3,0,2,0c0,0.3,0,0.7,0,1c-0.7,0-1.3,0-2,0s-1.3,0-2,0c-0.3-0.3-0.7-0.7-1-1c0-0.7,0-1.3,0-2c0-0.3,0-0.7,0-1
		c0.3-0.3,0.7-0.7,1-1c0.3,0,0.7,0,1,0c1,0,2,0,3,0c0.3-0.3,0.7-0.5,1-0.8c-0.3-0.4-0.7-0.8-1-1.2c-1.3,0-2.7,0-4,0c0-0.3,0-0.7,0-1
		c1.7,0,3.3,0,5,0c0.3,0,0.7,0,1,0c0.3,0.3,0.7,0.7,1,1c0,2,0.1,4,0,5.9c-0.1,1-0.6,2-1,3.1c0.3,0.7,0.7,1.3,1,2
		C96.9,75.6,96.2,75.6,95.6,75.6z"/>
	<path class="st7" d="M47.4,56.5c-0.9,0-1.7,0-2.7,0c0-4.3,0-8.5,0-12.8c0.9,0,1.7,0,2.7,0C47.4,47.9,47.4,52.2,47.4,56.5z"/>
	<path class="st5" d="M64.6,47.6c0,3.5,0,6.9,0,10.4c-1.3,2-3.1,1.9-5,1.3c0-0.5,0-0.9,0-1.3c0.5-0.2,1.1-0.4,2-0.7
		c0-3.2,0-6.4,0-9.7C62.6,47.6,63.6,47.6,64.6,47.6z"/>
	<path class="st7" d="M83.7,59.7c1,0,1.8,0,2.7,0c0,4.3,0,8.5,0,13.2c-1.1-0.6-1.9-1-2.7-1.4C83.7,67.6,83.7,63.8,83.7,59.7z"/>
	<path class="st6" d="M54.6,63.6c2.1-2,4-0.6,5.9,0.4c0,2.4,0,4.9,0,7.4c-0.9,0-1.6,0-2.7,0c0-1.7,0-3.6,0-5.8c-0.9,0-1.5,0-2.2,0
		C55.2,64.9,54.9,64.2,54.6,63.6z"/>
	<path class="st10" d="M120.6,71.4c0-2.7,0-5,0-7.4c0.7-0.5,1.4-1.1,2-1.6c1.2,0.6,1.3,2.6,0.7,10.4
		C122.3,72.3,121.5,71.9,120.6,71.4z"/>
	<path class="st3" d="M54.6,63.6c0.3,0.7,0.7,1.3,1,2c-0.3,0.3-0.9,0.5-1,0.8c-0.1,1.6,0,3.2,0,5c-1,0-1.9,0-2.9,0
		c0-2.8,0-5.6,0-8.4C52.6,62.7,53.8,61.7,54.6,63.6z"/>
	<path class="st11" d="M139.6,52.6c-2.3-0.4-4.6-0.8-7.9-1.5c1.7-0.3,2.3-0.5,2.9-0.5c3.9,0,7.8,0,11.8,0c0.4,0,0.8,0.6,1.3,1
		c-2.3,0-4.5-0.1-6.8,0C140.4,51.6,140,52.2,139.6,52.6z"/>
	<path class="st2" d="M139.6,52.6c0.4-0.3,0.8-0.9,1.2-1c2.3-0.1,4.5,0,6.8,0c0.3,0.1,0.6,0.2,1.3,0.5c-0.8,0.3-1.3,0.6-1.9,0.8
		C144.6,54.3,142.1,53.2,139.6,52.6z"/>
	<path class="st6" d="M170.6,50.6c-0.3,0.3-0.7,0.7-1,1c-1-0.3-2-0.7-3-1c-0.3-0.3-0.7-0.7-1-1c-0.3,0-0.7,0-1,0
		c-0.3-0.3-0.7-0.7-1-1c-0.3,0-0.7,0-1,0c0-0.3,0-0.7,0-1c0.3,0,0.7,0,1,0c0.7,0,1.3,0,2,0c0.3,0.3,0.7,0.7,1,1c0.3,0,0.7,0,1,0
		c0.3,0.3,0.7,0.7,1,1C169.3,49.7,170.5,49.1,170.6,50.6z"/>
	<path class="st12" d="M132.6,70.6c-0.7,0-1.3,0-2,0c-0.3-0.3-0.7-0.7-1-1c-0.3-0.1-0.6-0.2-1.6-0.6c2.9-0.6,5.3-0.2,7.6-0.4
		c-0.4,1,0.9,2.5-1,3c-0.2-0.8,0.5-1.9-1-2C133.2,69.9,132.9,70.2,132.6,70.6z"/>
	<path class="st13" d="M53.6,52.6c2,0,4,0,6,0c0,0.9,0.1,1.9,0,2.8c-0.1,0.4-0.6,0.8-1,1.2c-0.4-1,0.9-2.5-1-3c-0.8,0.2-1.9-0.5-2,1
		c-0.3,0-0.7,0-1,0c-0.3-0.3-0.7-0.7-1-1C53.6,53.2,53.6,52.9,53.6,52.6z"/>
	<path class="st14" d="M141.6,42.6c1.5,0,3,0.2,4.4,0c1.4-0.2,2.4,0.5,3.6,1c0,0.3,0,0.7,0,1c-1.3-0.3-2.7-0.8-4-1
		c-1.3-0.2-2.6,0-4,0C141.6,43.2,141.6,42.9,141.6,42.6z"/>
	<path class="st15" d="M94.6,66.6c-1,0-2,0-3,0c-0.3-0.3-0.7-0.7-1-1c0-0.3,0-0.7,0-1c1.3,0,2.7,0,4,0
		C94.6,65.2,94.6,65.9,94.6,66.6z"/>
	<path class="st16" d="M77.6,60.6c0.6-2,1.9-2.4,4.2-1.6c-1.2,1-2.2,1.8-3.2,2.6C78.2,61.2,77.9,60.9,77.6,60.6z"/>
	<path class="st14" d="M149.6,44.6c0-0.3,0-0.7,0-1c0.9,0,1.9-0.1,2.8,0c0.4,0.1,0.8,0.6,1.2,1c0,0.3,0,0.7,0,1
		c-0.6-0.1-1.2-0.2-1.8-0.3C151,45.1,150.3,44.8,149.6,44.6z"/>
	<path class="st5" d="M61.6,45.6c0-0.5,0-1,0-1.8c0.9-0.1,1.8-0.2,3-0.3c0,0.8,0,1.5,0,2.1C63.6,45.6,62.6,45.6,61.6,45.6z"/>
	<path class="st17" d="M141.6,42.6c0,0.3,0,0.7,0,1c-1.9,0-3.9,0-5.8,0C137.6,42.2,139.6,42.7,141.6,42.6z"/>
	<path class="st4" d="M95.6,63.6c-1.7,0-3.3,0-5,0C92.2,62.1,93.9,62.1,95.6,63.6z"/>
	<path class="st18" d="M128.6,71.6c1.7,0,3.3,0,5,0C131.9,73,130.2,73,128.6,71.6z"/>
	<path class="st19" d="M92.6,71.6c0.7,0,1.3,0,2,0c0.3,0,0.7,0,1,0c-0.3,0.7-0.7,1.3-1,2c-0.3,0-0.7,0-1,0c-0.3-0.3-0.7-0.7-1-1
		C92.6,72.2,92.6,71.9,92.6,71.6z"/>
	<path class="st8" d="M165.6,72.6c0.3-1.8,1.7-0.7,2.6-0.9c0.6,0.9,0.9,1.7-0.6,1.9C167.5,72.1,166.3,72.7,165.6,72.6z"/>
	<path class="st20" d="M121.6,59.6c1.1,0,2.5-0.3,1.7,2c-0.5,0-1.1,0-1.7,0C121.6,60.9,121.6,60.2,121.6,59.6z"/>
	<path class="st21" d="M97.6,75.6c-0.3-0.7-0.7-1.3-1-2c0.6,0,1.2,0,2.6,0C98.3,74.6,97.9,75.1,97.6,75.6z"/>
	<path class="st22" d="M156.6,46.6c-0.3-0.3-0.7-0.7-1-1c0-0.3,0-0.7,0-1c0.8,0.2,1.9-0.5,2,1C157.2,45.9,156.9,46.2,156.6,46.6z"/>
	<path class="st23" d="M61.6,45.6c1,0,2,0,3,0c0,0.3,0,0.7,0,1c-1,0-2,0-3,0C61.6,46.2,61.6,45.9,61.6,45.6z"/>
	<path class="st16" d="M158.6,45.6c0.8,0.2,1.9-0.5,2,1c-0.3,0.3-0.7,0.7-1,1c-0.3-0.3-0.7-0.7-1-1
		C158.6,46.2,158.6,45.9,158.6,45.6z"/>
	<path class="st17" d="M61.6,46.6c1,0,2,0,3,0c0,0.3,0,0.7,0,1c-1,0-2,0-3,0C61.6,47.2,61.6,46.9,61.6,46.6z"/>
	<path class="st8" d="M167.6,76.6c0.1-1.5,1.2-0.8,2-1C169.5,77.1,168.3,76.4,167.6,76.6z"/>
	<path class="st21" d="M95.6,75.6c0.7,0,1.3,0,2,0c-0.4,0.3-0.8,0.7-1.2,1C96.1,76.2,95.8,75.9,95.6,75.6z"/>
	<path class="st21" d="M93.6,73.6c0.3,0,0.7,0,1,0c0,0.7,0,1.3,0,2C93.1,75.5,93.7,74.3,93.6,73.6z"/>
	<path class="st4" d="M92.6,71.6c0,0.3,0,0.7,0,1c-0.8-0.2-1.9,0.5-2-1C91.2,71.6,91.9,71.6,92.6,71.6z"/>
	<path class="st4" d="M89.6,68.6c0,0.7,0,1.3,0,2c-0.3-0.4-0.7-0.8-1-1.2C88.9,69.1,89.2,68.8,89.6,68.6z"/>
	<path class="st24" d="M161.6,47.6c-0.3,0-0.7,0-1,0c0-0.3,0-0.7,0-1c0.7,0,1.3,0,2,0c0,0.3,0,0.7,0,1
		C162.2,47.6,161.9,47.6,161.6,47.6z"/>
	<path class="st10" d="M121.6,59.6c0,0.7,0,1.3,0,2c-0.3-0.4-0.7-0.8-1-1.2C120.9,60.1,121.2,59.8,121.6,59.6z"/>
	<path class="st4" d="M90.6,64.6c0,0.3,0,0.7,0,1c-0.3-0.4-0.7-0.8-1-1.2c0.3-0.3,0.7-0.5,1-0.8C90.6,63.9,90.6,64.2,90.6,64.6z"/>
	<path class="st4" d="M89.6,70.6c0.3,0.3,0.7,0.7,1,1C90.2,71.2,89.9,70.9,89.6,70.6z"/>
	<path class="st25" d="M74.6,52.6c0.3,0,0.7,0,1,0c0,0.3,0,0.7,0,1c-0.3,0-0.7,0-1,0C74.6,53.2,74.6,52.9,74.6,52.6z"/>
	<path class="st2" d="M155.6,44.6c0,0.3,0,0.7,0,1c-0.3,0-0.7,0-1,0c0-0.3,0-0.7,0-1C154.9,44.6,155.2,44.6,155.6,44.6z"/>
	<path class="st20" d="M154.6,44.6c0,0.3,0,0.7,0,1c-0.3,0-0.7,0-1,0c0-0.3,0-0.7,0-1C153.9,44.6,154.2,44.6,154.6,44.6z"/>
	<path class="st0" d="M170.6,72.6c0.3,0.3,0.7,0.7,1,1c-0.3,0-0.7,0-1,0C170.6,73.2,170.6,72.9,170.6,72.6z"/>
	<path class="st8" d="M167.6,73.6c-0.3,0.3-0.7,0.7-1,1C166.9,74.2,167.2,73.9,167.6,73.6z"/>
	<path class="st8" d="M166.6,74.6c-0.3,0.3-0.7,0.7-1,1C165.9,75.2,166.2,74.9,166.6,74.6z"/>
	<path class="st8" d="M171.6,75.6c0-0.3,0-0.7,0-1c0.3,0,0.7,0,1,0C172.2,74.9,171.9,75.2,171.6,75.6z"/>
	<path class="st4" d="M97.6,64.6c-0.3-0.3-0.7-0.7-1-1C96.9,63.9,97.2,64.2,97.6,64.6z"/>
	<path class="st18" d="M161.6,47.6c0.3,0,0.7,0,1,0c0,0.3,0,0.7,0,1C162.2,48.2,161.9,47.9,161.6,47.6z"/>
	<path class="st18" d="M162.6,47.6c0-0.3,0-0.7,0-1c0.3,0.3,0.7,0.7,1,1C163.2,47.6,162.9,47.6,162.6,47.6z"/>
	<path class="st26" d="M166.6,48.6c-0.3-0.3-0.7-0.7-1-1C165.9,47.9,166.2,48.2,166.6,48.6z"/>
	<path class="st6" d="M160.6,46.6c0,0.3,0,0.7,0,1c-0.3,0-0.7,0-1,0C159.9,47.2,160.2,46.9,160.6,46.6z"/>
	<path class="st4" d="M90.6,66.6c-0.3,0.3-0.7,0.7-1,1C89.9,67.2,90.2,66.9,90.6,66.6z"/>
	<path class="st18" d="M163.6,48.6c0.3,0.3,0.7,0.7,1,1C164.2,49.2,163.9,48.9,163.6,48.6z"/>
	<path class="st26" d="M168.6,49.6c-0.3-0.3-0.7-0.7-1-1C167.9,48.9,168.2,49.2,168.6,49.6z"/>
	<path class="st26" d="M165.6,49.6c0.3,0.3,0.7,0.7,1,1C166.2,50.2,165.9,49.9,165.6,49.6z"/>
	<path class="st27" d="M158.6,45.6c0,0.3,0,0.7,0,1c-0.3,0-0.7,0-1,0c0-0.3,0-0.7,0-1C157.9,45.6,158.2,45.6,158.6,45.6z"/>
	<path class="st28" d="M157.6,45.6c0,0.3,0,0.7,0,1c-0.3,0-0.7,0-1,0C156.9,46.2,157.2,45.9,157.6,45.6z"/>
	<path class="st8" d="M170.6,73.6c0.3,0,0.7,0,1,0c0,0.3,0,0.7,0,1c-0.3,0-0.7,0-1,0C170.6,74.2,170.6,73.9,170.6,73.6z"/>
	<path class="st29" d="M24.7,69.3c0-2.3,0-4.4,0-6.6c1.7-0.2,3.3-0.6,4.7,1.2c0,1.2,0,2.6,0,4.3C28.2,70,26.5,69.8,24.7,69.3z"/>
	<path class="st30" d="M170.6,73.6c0,0.3,0,0.7,0,1c-0.3-0.4-0.7-0.8-1-1.2c0.3-0.3,0.7-0.5,1-0.8C170.6,72.9,170.6,73.2,170.6,73.6
		z"/>
	<path class="st31" d="M39.2,70.7c-2.1-2.8-2.2-3.1-0.5-5.6c0.8,0.7,1.7,1.5,2.7,2.3C40.7,68.3,39.9,69.5,39.2,70.7z"/>
	<path class="st32" d="M74.6,52.6c0,0.3,0,0.7,0,1c-0.8,0.2-1.9-0.5-2,1c-0.3,0-0.7,0-1,0c-0.3-0.3-0.7-0.7-1-1c0-0.3,0-0.7,0-1
		C71.9,52.6,73.2,52.6,74.6,52.6z"/>
	<path class="st12" d="M71.4,48.9c0.2,0.2,0.6,0.6,1.4,1.4c-1.2,0.2-2,0.3-2.9,0.4c-0.1-0.2-0.2-0.5-0.4-0.7
		C70.1,49.6,70.7,49.2,71.4,48.9z"/>
	<path class="st25" d="M72.6,54.6c0.1-1.5,1.2-0.8,2-1C74.5,55.1,73.3,54.4,72.6,54.6z"/>
	<path class="st25" d="M70.6,53.6c0.3,0.3,0.7,0.7,1,1C71.2,54.2,70.9,53.9,70.6,53.6z"/>
	<path class="st25" d="M70.6,52.6c0,0.3,0,0.7,0,1c-0.3-0.2-0.6-0.4-0.8-0.7C70,52.8,70.3,52.7,70.6,52.6z"/>
	<path class="st33" d="M36.9,49.7c0.8,0,1.5,0,2.5,0c0,1.6,0,3.1,0,4.7C36.6,53.7,36.6,53.7,36.9,49.7z"/>
	<path class="st34" d="M52.6,49.9c0.6-0.2,1.1-0.3,1.7-0.6c0.3-0.1,0.5-0.4,0.8-0.8c0.4,0.5,0.8,1,1.5,1.8c-1.3,0.1-2.5,0.2-3.8,0.2
		C52.7,50.4,52.7,50.1,52.6,49.9z"/>
	<path class="st35" d="M55.6,54.6c0.1-1.5,1.2-0.8,2-1C57.5,55.1,56.3,54.4,55.6,54.6z"/>
	<path class="st35" d="M53.6,53.6c0.3,0.3,0.7,0.7,1,1C54.2,54.2,53.9,53.9,53.6,53.6z"/>
	<path class="st35" d="M53.6,52.6c0,0.3,0,0.7,0,1c-0.3-0.2-0.6-0.4-0.8-0.7C53,52.8,53.3,52.7,53.6,52.6z"/>
	<path class="st36" d="M68.2,64.3c0.5,1.1,1,2.1,1.3,3.1c0.4,1.4-0.3,2.5-1.7,3.3c-1.2-0.4-2.2-0.9-2.3-2.5
		C65.4,66.4,65.8,65.2,68.2,64.3z"/>
	<path class="st17" d="M129,66.6c0.4-0.9,0.7-1.7,1.2-2.8c1.1,1,1.6,1.6,2.7,2.5C131.2,66.4,130,66.5,129,66.6z"/>
	<path class="st18" d="M129.6,69.6c0.3,0.3,0.7,0.7,1,1C130.2,70.2,129.9,69.9,129.6,69.6z"/>
	<path class="st18" d="M132.6,70.6c0.3-0.3,0.7-0.7,1-1C133.2,69.9,132.9,70.2,132.6,70.6z"/>
	<path class="st37" d="M77.6,60.6c0.3,0.3,0.7,0.7,1,1C78.2,61.2,77.9,60.9,77.6,60.6z"/>
	<path class="st38" d="M94.6,69.6c0,0.3,0,0.7,0,1c-0.7,0-1.3,0-2,0c-0.3-0.3-0.7-0.7-1-1c0-0.3,0-0.7,0-1c0.3-0.3,0.7-0.7,1-1
		c0.7,0,1.3,0,2,0C94.6,68.2,94.6,68.9,94.6,69.6z"/>
	<path class="st4" d="M94.6,69.6c0-0.7,0-1.3,0-2c0.3,0.4,0.7,0.8,1,1.2C95.2,69.1,94.9,69.3,94.6,69.6z"/>
	<path class="st4" d="M94.6,66.6c0-0.7,0-1.3,0-2c0.3,0.4,0.7,0.8,1,1.2C95.2,66.1,94.9,66.3,94.6,66.6z"/>
	<path class="st4" d="M95.6,71.6c-0.3,0-0.7,0-1,0c0-0.3,0-0.7,0-1C94.9,70.9,95.2,71.2,95.6,71.6z"/>
	<path class="st4" d="M92.6,67.6c-0.3,0.3-0.7,0.7-1,1C91.9,68.2,92.2,67.9,92.6,67.6z"/>
	<path class="st4" d="M91.6,69.6c0.3,0.3,0.7,0.7,1,1C92.2,70.2,91.9,69.9,91.6,69.6z"/>
</g>
</svg>
