<?xml version="1.0" encoding="utf-8"?>
<!-- Generator: Adobe Illustrator 25.1.0, SVG Export Plug-In . SVG Version: 6.00 Build 0)  -->
<svg version="1.1" id="Warstwa_1" xmlns="http://www.w3.org/2000/svg" xmlns:xlink="http://www.w3.org/1999/xlink" x="0px" y="0px"
	 viewBox="0 0 210 120" style="enable-background:new 0 0 210 120;" xml:space="preserve">
<style type="text/css">
	.st0{fill-rule:evenodd;clip-rule:evenodd;fill:#9F9F9F;}
	.st1{fill:#9F9F9F;}
</style>
<g>
	<path class="st0" d="M31.82,46.39h2.72v3.89l3.93-3.89h3.16l-5.09,5.05l5.61,5.61h-3.41l-4.2-4.2v4.2h-2.72V46.39L31.82,46.39z
		 M46.45,50.69c-0.56,0-0.99,0.2-1.28,0.61c-0.29,0.41-0.44,0.99-0.44,1.76c0,0.77,0.15,1.36,0.44,1.76
		c0.29,0.41,0.72,0.61,1.28,0.61c0.55,0,0.97-0.2,1.27-0.61c0.29-0.41,0.44-0.99,0.44-1.76c0-0.77-0.15-1.35-0.44-1.76
		C47.43,50.89,47.01,50.69,46.45,50.69L46.45,50.69z M46.45,48.86c1.36,0,2.43,0.37,3.19,1.11c0.77,0.74,1.15,1.77,1.15,3.08
		c0,1.32-0.38,2.34-1.15,3.09c-0.77,0.74-1.83,1.11-3.19,1.11c-1.37,0-2.44-0.37-3.21-1.11c-0.77-0.74-1.16-1.77-1.16-3.09
		c0-1.31,0.39-2.34,1.16-3.08C44.02,49.23,45.09,48.86,46.45,48.86L46.45,48.86z M52.64,45.94h2.53v11.11h-2.53V45.94L52.64,45.94z
		 M65.51,53.03v0.73h-5.92c0.06,0.6,0.28,1.05,0.64,1.35c0.37,0.3,0.88,0.45,1.54,0.45c0.53,0,1.08-0.08,1.64-0.24
		c0.56-0.16,1.13-0.4,1.72-0.73v1.97c-0.6,0.23-1.2,0.4-1.8,0.52c-0.6,0.12-1.2,0.18-1.8,0.18c-1.43,0-2.55-0.37-3.34-1.1
		c-0.79-0.73-1.19-1.77-1.19-3.1c0-1.3,0.39-2.33,1.17-3.08c0.78-0.75,1.85-1.12,3.22-1.12c1.25,0,2.24,0.38,2.99,1.14
		C65.14,50.76,65.51,51.77,65.51,53.03L65.51,53.03z M62.91,52.18c0-0.49-0.14-0.88-0.42-1.18c-0.28-0.3-0.65-0.45-1.1-0.45
		c-0.49,0-0.89,0.14-1.2,0.42c-0.31,0.28-0.5,0.68-0.57,1.2H62.91L62.91,52.18z M67.43,49.05h2.53v7.86c0,1.07-0.25,1.89-0.76,2.45
		c-0.51,0.56-1.25,0.85-2.22,0.85h-1.25v-1.68h0.44c0.48,0,0.81-0.11,0.99-0.33c0.18-0.22,0.27-0.65,0.27-1.29V49.05L67.43,49.05z
		 M67.43,45.94h2.53v2.09h-2.53V45.94L67.43,45.94z M80.31,53.03v0.73h-5.92c0.06,0.6,0.28,1.05,0.64,1.35
		c0.37,0.3,0.88,0.45,1.54,0.45c0.53,0,1.08-0.08,1.64-0.24c0.56-0.16,1.13-0.4,1.72-0.73v1.97c-0.6,0.23-1.2,0.4-1.8,0.52
		c-0.6,0.12-1.2,0.18-1.8,0.18c-1.43,0-2.55-0.37-3.34-1.1c-0.79-0.73-1.19-1.77-1.19-3.1c0-1.3,0.39-2.33,1.17-3.08
		c0.78-0.75,1.85-1.12,3.22-1.12c1.25,0,2.24,0.38,2.99,1.14C79.93,50.76,80.31,51.77,80.31,53.03L80.31,53.03z M77.7,52.18
		c0-0.49-0.14-0.88-0.42-1.18c-0.28-0.3-0.65-0.45-1.1-0.45c-0.49,0-0.89,0.14-1.2,0.42c-0.31,0.28-0.5,0.68-0.57,1.2H77.7
		L77.7,52.18z M34.55,62.52v6.5h0.98c1.11,0,1.96-0.28,2.55-0.84c0.59-0.56,0.88-1.37,0.88-2.43c0-1.06-0.29-1.86-0.88-2.41
		c-0.58-0.55-1.44-0.83-2.55-0.83H34.55L34.55,62.52z M31.82,60.44h2.87c1.6,0,2.8,0.11,3.58,0.35c0.78,0.23,1.46,0.62,2.02,1.18
		c0.49,0.48,0.86,1.04,1.1,1.67c0.24,0.63,0.36,1.34,0.36,2.14c0,0.8-0.12,1.52-0.36,2.15c-0.24,0.63-0.61,1.19-1.1,1.67
		c-0.57,0.55-1.25,0.94-2.04,1.18c-0.79,0.23-1.98,0.35-3.56,0.35h-2.87V60.44L31.82,60.44z M47.51,64.74
		c-0.56,0-0.99,0.2-1.28,0.61c-0.29,0.41-0.44,0.99-0.44,1.76c0,0.77,0.15,1.36,0.44,1.76c0.29,0.41,0.72,0.61,1.28,0.61
		c0.55,0,0.97-0.2,1.27-0.61c0.29-0.41,0.44-0.99,0.44-1.76c0-0.77-0.15-1.35-0.44-1.76C48.48,64.94,48.06,64.74,47.51,64.74
		L47.51,64.74z M47.51,62.91c1.36,0,2.43,0.37,3.19,1.11c0.77,0.74,1.15,1.77,1.15,3.08c0,1.32-0.38,2.34-1.15,3.09
		c-0.77,0.74-1.83,1.11-3.19,1.11c-1.37,0-2.44-0.37-3.21-1.11c-0.77-0.74-1.16-1.77-1.16-3.09c0-1.31,0.39-2.34,1.16-3.08
		C45.07,63.28,46.14,62.91,47.51,62.91L47.51,62.91z M53.69,59.98h2.53V71.1h-2.53V59.98L53.69,59.98z M66.62,66.23v4.87h-2.55
		v-0.79v-2.94c0-0.69-0.01-1.17-0.05-1.43c-0.03-0.26-0.08-0.45-0.16-0.58c-0.1-0.17-0.23-0.3-0.4-0.39
		c-0.17-0.09-0.36-0.14-0.58-0.14c-0.53,0-0.94,0.2-1.25,0.62c-0.3,0.41-0.45,0.98-0.45,1.71v3.93h-2.53v-8h2.53v1.17
		c0.38-0.47,0.79-0.81,1.22-1.03c0.43-0.22,0.9-0.33,1.42-0.33c0.92,0,1.61,0.28,2.08,0.85C66.39,64.32,66.62,65.15,66.62,66.23
		L66.62,66.23z M72.74,64.74c-0.56,0-0.99,0.2-1.28,0.61c-0.29,0.41-0.44,0.99-0.44,1.76c0,0.77,0.15,1.36,0.44,1.76
		c0.29,0.41,0.72,0.61,1.28,0.61c0.55,0,0.97-0.2,1.27-0.61c0.29-0.41,0.44-0.99,0.44-1.76c0-0.77-0.15-1.35-0.44-1.76
		C73.71,64.94,73.29,64.74,72.74,64.74L72.74,64.74z M72.74,62.91c1.36,0,2.43,0.37,3.19,1.11c0.77,0.74,1.15,1.77,1.15,3.08
		c0,1.32-0.38,2.34-1.15,3.09c-0.77,0.74-1.83,1.11-3.19,1.11c-1.37,0-2.44-0.37-3.21-1.11c-0.77-0.74-1.16-1.77-1.16-3.09
		c0-1.31,0.39-2.34,1.16-3.08C70.3,63.28,71.37,62.91,72.74,62.91L72.74,62.91z M85.12,63.35v1.94c-0.54-0.23-1.06-0.4-1.57-0.51
		c-0.5-0.11-0.98-0.17-1.43-0.17c-0.48,0-0.84,0.06-1.07,0.18c-0.23,0.12-0.35,0.31-0.35,0.56c0,0.21,0.09,0.37,0.27,0.48
		c0.18,0.11,0.5,0.19,0.95,0.24l0.45,0.06c1.3,0.17,2.17,0.44,2.62,0.82c0.45,0.38,0.67,0.98,0.67,1.79c0,0.85-0.31,1.49-0.93,1.92
		c-0.62,0.43-1.55,0.64-2.79,0.64c-0.52,0-1.07-0.04-1.63-0.12c-0.56-0.08-1.13-0.21-1.72-0.38v-1.94c0.5,0.25,1.02,0.43,1.55,0.56
		c0.53,0.12,1.07,0.19,1.62,0.19c0.5,0,0.87-0.07,1.12-0.21c0.25-0.14,0.37-0.34,0.37-0.61c0-0.23-0.09-0.4-0.26-0.51
		c-0.17-0.11-0.51-0.2-1.03-0.26l-0.45-0.06c-1.13-0.14-1.92-0.41-2.37-0.79c-0.45-0.39-0.68-0.97-0.68-1.76
		c0-0.85,0.29-1.48,0.86-1.88c0.58-0.41,1.46-0.61,2.65-0.61c0.47,0,0.96,0.04,1.47,0.11C83.96,63.09,84.51,63.2,85.12,63.35
		L85.12,63.35z M87.55,59.98h2.53V71.1h-2.53V59.98L87.55,59.98z M96.07,67.5c-0.53,0-0.92,0.09-1.19,0.27
		c-0.27,0.18-0.4,0.45-0.4,0.8c0,0.32,0.11,0.58,0.32,0.76c0.21,0.18,0.51,0.28,0.89,0.28c0.48,0,0.88-0.17,1.2-0.52
		c0.33-0.34,0.49-0.78,0.49-1.3V67.5H96.07L96.07,67.5z M99.94,66.53v4.26l0,0.39c-0.38,0.1-0.96,0.57-1.25,1.05
		c-0.16,0.28-0.33,0.65,0.12,0.65c0.6,0,1.09-0.25,1.62-0.49l-0.37,1.91l-0.16,0.08c-0.47,0.24-0.96,0.36-1.48,0.36
		c-0.99,0-1.97-0.33-1.97-1.5c0-0.98,0.7-1.68,1.48-2.16h-0.54v-1.18c-0.34,0.49-0.72,0.84-1.14,1.06
		c-0.42,0.22-0.94,0.33-1.55,0.33c-0.82,0-1.49-0.24-2-0.72c-0.51-0.49-0.77-1.11-0.77-1.88c0-0.94,0.32-1.63,0.96-2.06
		c0.64-0.44,1.64-0.66,3.01-0.66h1.49v-0.2c0-0.4-0.16-0.7-0.47-0.89c-0.32-0.19-0.81-0.28-1.48-0.28c-0.54,0-1.05,0.05-1.51,0.16
		c-0.47,0.11-0.9,0.28-1.3,0.49v-1.95c0.54-0.13,1.09-0.23,1.63-0.3c0.55-0.07,1.09-0.1,1.64-0.1c1.43,0,2.46,0.29,3.1,0.85
		C99.62,64.33,99.94,65.25,99.94,66.53L99.94,66.53z M108.49,63.35v1.94c-0.54-0.23-1.06-0.4-1.57-0.51
		c-0.5-0.11-0.98-0.17-1.43-0.17c-0.48,0-0.84,0.06-1.07,0.18c-0.23,0.12-0.35,0.31-0.35,0.56c0,0.21,0.09,0.37,0.27,0.48
		c0.18,0.11,0.5,0.19,0.95,0.24l0.45,0.06c1.3,0.17,2.17,0.44,2.62,0.82c0.45,0.38,0.67,0.98,0.67,1.79c0,0.85-0.31,1.49-0.93,1.92
		c-0.62,0.43-1.55,0.64-2.79,0.64c-0.52,0-1.06-0.04-1.63-0.12c-0.56-0.08-1.13-0.21-1.72-0.38v-1.94c0.5,0.25,1.02,0.43,1.55,0.56
		c0.53,0.12,1.07,0.19,1.62,0.19c0.5,0,0.87-0.07,1.12-0.21c0.25-0.14,0.37-0.34,0.37-0.61c0-0.23-0.09-0.4-0.26-0.51
		c-0.17-0.11-0.51-0.2-1.03-0.26l-0.45-0.06c-1.13-0.14-1.92-0.41-2.37-0.79c-0.45-0.39-0.68-0.97-0.68-1.76
		c0-0.85,0.29-1.48,0.86-1.88c0.58-0.41,1.46-0.61,2.65-0.61c0.47,0,0.96,0.04,1.47,0.11C107.32,63.09,107.88,63.2,108.49,63.35
		L108.49,63.35z M110.92,59.98h2.53v6.05l2.91-2.94h2.94l-3.87,3.67l4.18,4.33h-3.07l-3.09-3.34v3.34h-2.53V59.98L110.92,59.98z
		 M120.55,63.1h2.53v8h-2.53V63.1L120.55,63.1z M120.55,59.98h2.53v2.09h-2.53V59.98L120.55,59.98z M133.43,67.08v0.73h-5.92
		c0.06,0.6,0.28,1.05,0.64,1.35c0.37,0.3,0.88,0.45,1.54,0.45c0.53,0,1.08-0.08,1.64-0.24c0.56-0.16,1.13-0.4,1.72-0.73v1.97
		c-0.6,0.23-1.2,0.4-1.8,0.52c-0.6,0.12-1.2,0.18-1.8,0.18c-1.43,0-2.55-0.37-3.34-1.1c-0.79-0.73-1.19-1.77-1.19-3.1
		c0-1.3,0.39-2.33,1.17-3.08c0.78-0.75,1.85-1.12,3.22-1.12c1.25,0,2.24,0.38,2.99,1.14C133.05,64.8,133.43,65.81,133.43,67.08
		L133.43,67.08z M130.83,66.23c0-0.49-0.14-0.88-0.42-1.18c-0.28-0.3-0.65-0.45-1.1-0.45c-0.49,0-0.89,0.14-1.2,0.42
		c-0.31,0.28-0.5,0.68-0.57,1.2H130.83L130.83,66.23z M85.23,59.13l-2.6,3.03h-1.97l2.18-3.03H85.23L85.23,59.13z"/>
	<path class="st1" d="M145.71,53.06c-0.07-0.24-2.92-0.67-6.02-0.71c-4.35-0.05-9.29,0.05-9.29,0.27c0,0.39,4.69-0.15,8.56,1.52
		C142.17,55.53,145.88,53.63,145.71,53.06L145.71,53.06z M177.96,63.25c-2.46-10.29-22.77-15.86-31.08-17.52
		c-0.95-0.19-3.28-0.58-3.84-0.66c-0.87-0.13-1.78-0.22-2.26-0.26c-3.69-0.35-6.06-0.17-6.24-0.15c-3.17,0.16-0.85,0.21-0.04,0.27
		c1.21,0.03,1.98,0.04,3.31,0.13c0.72,0.05,2.44,0.06,6.54,0.85c2.12,0.41,4.18,0.94,6.27,1.57c2.84,0.85,5.63,1.9,8.3,3.06
		c4.39,1.9,8.86,4.25,12.11,7.84c1.49,1.64,2.63,3.58,2.78,5.85c0.32,4.91-4.87,7.32-9.93,9.04c-0.04,0.01-0.22,0.1-0.2-0.01
		c0.01-0.04,0.43-0.67,0.57-0.84c1.11-1.33,1.84-3.23-0.78-3.55c-4.95-0.62-17.02,0.95-24.3,1.16c-1.14,0.03-2.62-0.12-3.01-0.02
		c-0.4,0.1,1.1,0.28,3.13,0.4c6.82,0.61,20.07,1.6,22.5,1.02c3.15-0.75-1.91,3-2.24,3.25c-0.33,0.25-1.72,0.77,0.01,0.77
		c1.73,0,4.43-0.76,4.43-0.76C168.33,73.22,179.91,71.42,177.96,63.25L177.96,63.25z"/>
</g>
</svg>
