<?xml version="1.0" encoding="utf-8"?>
<!-- Generator: Adobe Illustrator 19.0.0, SVG Export Plug-In . SVG Version: 6.00 Build 0)  -->
<svg version="1.1" id="Warstwa_1" xmlns="http://www.w3.org/2000/svg" xmlns:xlink="http://www.w3.org/1999/xlink" x="0px" y="0px"
	 viewBox="0 0 210.1 120.1" style="enable-background:new 0 0 210.1 120.1;" xml:space="preserve">
<style type="text/css">
	.st0{fill:#FEFEFE;}
	.st1{fill:#A0A0A0;}
	.st2{fill:#A2A2A2;}
	.st3{fill:#FDFDFD;}
	.st4{fill:#A1A1A1;}
	.st5{fill:#ACACAC;}
	.st6{fill:#B8B8B8;}
	.st7{fill:#B1B1B1;}
	.st8{fill:#A7A7A7;}
	.st9{fill:#B5B5B5;}
	.st10{fill:#A9A9A9;}
	.st11{fill:#9F9F9F;}
	.st12{fill:#ABABAB;}
	.st13{fill:#BDBDBD;}
	.st14{fill:#AAAAAA;}
	.st15{fill:#C0C0C0;}
	.st16{fill:#ADADAD;}
	.st17{fill:#BCBCBC;}
	.st18{fill:#9E9E9E;}
	.st19{fill:#B2B2B2;}
	.st20{fill:#BEBEBE;}
	.st21{fill:#C4C4C4;}
	.st22{fill:#DFDFDF;}
	.st23{fill:#EEEEEE;}
	.st24{fill:#E4E4E4;}
	.st25{fill:#CFCFCF;}
	.st26{fill:#FBFBFB;}
</style>
<g>
	<path class="st0" d="M2.1,120.1c0-40,0-80,0-120c70,0,140,0,210,0c0,40,0,80,0,120C142.1,120.1,72.1,120.1,2.1,120.1z M96.1,73.1
		c-0.3,0-0.7,0-1,0c-0.8,0.2-1.9-0.5-2,1c-1.2,0.1-1.2,0.9-0.8,1.6c0.4,0.6,1.2,0.9,1.8,1.4c0.1,1.2,0.9,1.2,1.6,0.8
		c0.6-0.4,0.9-1.2,1.4-1.8c0.3-0.3,0.7-0.5,1-0.8c-0.3-0.4-0.7-0.8-1-1.2C96.7,73.7,96.4,73.4,96.1,73.1z M119.1,77.1
		c0.1,0.3,0.2,0.6,0.3,0.8c0.2-0.3,0.4-0.6,0.7-0.8c-0.3-0.3-0.7-0.7-1-1c0.3-1,0.7-2,1-3c-0.1-0.3-0.2-0.6-0.3-0.8
		c-0.2,0.3-0.4,0.6-0.7,0.8c-0.5,0.3-1,0.6-1.6,0.9c-0.3-0.3-0.6-0.6-1.2-1.1c0,2.1,0,3.6,0,5.9c0.6-1.4,0.9-2,1.2-2.6
		C118,76.5,118.5,76.8,119.1,77.1z M151.1,76.1c0.3,0.3,0.7,0.7,1,1c0.4,1.9,1.7,0.8,2.8,0.8c0-1.9,0-3.8,0-6.3
		c-0.9,0.7-1.4,1.1-1.8,1.5c-0.8,0.2-1.9-0.5-2,1C151.1,74.7,151.1,75.4,151.1,76.1z M125.1,77.1c0.7,0,1.3,0,2,0
		c0,1.2,1,1.3,1.5,0.9c0.8-0.7,0.9-1.6-0.5-1.9c0-0.3,0-0.7,0-1c-0.3-0.3-0.7-0.7-1-1c-0.3-0.3-0.5-0.7-0.8-1
		c-0.4,0.3-0.8,0.7-1.2,1c-0.3,0.3-0.7,0.7-1,1c0,0.3,0,0.7,0,1c-1.2,0-1.3,1-0.9,1.5C123.9,78.4,124.8,78.5,125.1,77.1z
		 M161.1,73.1c-0.1-0.3-0.2-0.6-0.3-0.8c-0.2,0.3-0.4,0.6-0.7,0.8c-1.5,0.1-0.8,1.2-1,2c0,0.7,0,1.3,0,2c1,1.4,2,1.4,3,0
		c1.4-1.3,1.4-2.7,0-4C161.7,73.1,161.4,73.1,161.1,73.1z M169.1,75.1c1.5-0.1,0.8-1.2,1-2c0-0.6,0-1.2,0-2
		c-1.3,0.7-2.2,1.2-3.2,1.7c0.5,1,0.9,1.6,1.2,2.3c-1.5,0.1-0.8,1.2-1,2c0.6,1.9,1.8,0.8,3.4,0.7c-0.6-0.8-1-1.2-1.4-1.7
		C169.1,75.7,169.1,75.4,169.1,75.1z M104.1,76.1c-0.3,0-0.7,0-1,0c-0.4-1,0.9-2.5-1-3c-0.3,0.3-0.7,0.7-1,1c0,1,0,2,0,3
		c1,1.9,2.5,0.7,4.9,1.3C104.8,77,104.5,76.5,104.1,76.1z M111.1,77.1c0.3-0.3,0.7-0.5,1-0.8c-0.3-0.4-0.7-0.8-1-1.2
		c0.3-0.5,0.6-1,0.7-1.2c-0.3-0.7-0.7-1.3-1.1-2.2c-0.3,0.8-0.4,1.1-0.5,1.4c-0.6,0-1.2,0-2.6,0c0.8,1,1.2,1.5,1.6,2
		c0,0.3,0,0.7,0,1c-0.3,0.1-0.6,0.2-0.8,0.3c0.3,0.2,0.6,0.4,0.8,0.7c0.3,0.3,0.5,0.7,0.8,1C110.2,77.7,110.6,77.4,111.1,77.1z
		 M89.1,74.1c-0.9-0.7-1.7-1.3-2.5-1.9c-2.3,1.9-1.3,3.9-1.3,6.1c1.5-1.2,2.6-2.2,3.8-3.2C89.1,74.7,89.1,74.4,89.1,74.1z
		 M137.1,76.1c0.1,0.6,0.2,1.3,0.4,2.4c0.4-0.9,0.5-1.2,0.6-1.4c0.8-0.4,1.6-0.8,2.5-1.2c0.4,0.9,0.7,1.5,1.4,3
		c0.1-2.6,0.4-4.2-0.3-6.2c-0.9,0.5-1.6,0.9-2,1.1c-0.8-0.3-1.5-0.6-2.6-1.1C137.1,74.1,137.1,75.1,137.1,76.1z M90.1,60.1
		c0.3-0.3,0.7-0.7,1-1c2.2,2.6,4.3,5.3,6.5,7.9c1.8,0,3.5,0,5.8,0c-2.5-3.4-4.8-6.5-7-9.4c2.2-2.9,4.4-5.8,6.7-8.7
		c0.1-0.1-0.1-0.3-0.1-0.3c-1.8,0.3-3.6,0.5-5.7,0.8c-1.9,2.1-4,4.4-6.2,6.8c-0.3-0.3-0.7-0.7-1-1c0-2,0-3.9,0-6
		c-1.9,0.1-3.5,0.2-4.8,0.2c0,6.1,0,11.9,0,17.9c1.7-0.1,3.3-0.1,4.8-0.2C90.1,64.4,90.1,62.2,90.1,60.1z M73.1,57.1
		c0-2.3,0.1-4.5,0-6.8c0-0.4-0.6-0.8-1-1.2c-1.7-1.8-6.4-4.8-10.1-6.2c-5.9,3.4-12,6.9-17.9,10.2c0,3.7,0,6.8,0,9.9c0,0.3,0,0.7,0,1
		c0,2.6,0,5.2,0,7.4c3.7,2.1,7.1,4,10.5,6c6.4-3.7,12.5-7.2,18.5-10.6c0-3.2,0-6,0-8.8c0.3-0.1,0.6-0.2,0.8-0.3
		C73.6,57.5,73.3,57.3,73.1,57.1z M166.1,59.1c0,2.6,0,5.2,0,8c1.6-0.1,2.8-0.2,3.8-0.2c0-6.1,0-11.9,0-17.7c-1.6,0-3.1,0-4.6,0
		c-1.4,2-2.7,4.1-4.3,6.4c-1.6-2.4-2.9-4.4-4.2-6.3c-2,0-3.8,0-5.6,0c0,6,0,11.9,0,17.7c1.7,0,3.1,0,4.9,0c0-3.4,0-6.6,0-10.5
		c1.9,2.7,3.4,4.8,4.9,7c1.5-2,2.8-3.6,4-5.3C165.4,58.4,165.7,58.7,166.1,59.1z M145,49.2c-1.9,0-3.3,0-4.9,0c0,2,0,3.7,0,5.6
		c-2.4,0-4.6,0-6.5,0c0.2-2,0.4-3.8,0.6-5.5c-2.3,0-4.2,0-5.9,0c0,6,0,11.8,0,17.6c2,0,3.7,0,5.9,0c0-2.3,0-4.6,0-6.8
		c2.1,0,3.9,0,6.1,0c0,2.4,0,4.6,0,6.7c1.8,0,3.3,0,4.8,0C145,61,145,55.2,145,49.2z M105.1,56.3c0,0.9,0,2.6,0,3.5
		c2.8,7.6,8.5,7.8,14.7,7.1c1.1-0.7,2.3-1.5,3.1-2.1c0-2.5,0-4.6,0-6.7c-1.6,0-3.1,0-4.4,0c-0.5,1.8-1,3.4-1.4,4.9
		c-1.5,0-2.5,0-3.9,0c-1.1-1.6-2.3-3.4-3.5-5.3c1-1.8,1.8-3.3,2.7-5c2.5,0.4,4.9,0.7,6.7,0.9c1.2-0.8,2.2-1.6,3.6-2.5
		c-2.6-2.9-5.8-3.5-8.9-3.1C109.4,48.7,106.5,51.4,105.1,56.3z M146.2,78c2.6-1.1,1.7-3,1.8-4.8c-0.8,0-1.2,0-1.8,0
		C146.2,74.8,146.2,76.3,146.2,78z"/>
	<path class="st1" d="M73.1,58.1c0,2.8,0,5.6,0,8.8c-6,3.4-12.1,7-18.5,10.6c-3.5-2-6.8-3.9-10.5-6c0-2.2,0-4.8,0-7.4
		c0.3-0.3,0.7-0.7,1-1c3.2,1.8,6.4,3.5,9.7,5.3c5.6-3.4,11-6.7,16.5-10C71.7,58.1,72.4,58.2,73.1,58.1z"/>
	<path class="st1" d="M44.1,63.1c0-3.1,0-6.3,0-9.9C50,49.7,56.1,46.2,62,42.9c3.7,1.4,8.4,4.4,10.1,6.2c-0.1,2.3,0.3,4.7-0.2,7
		c-0.8,0-1.3,0-1.8,0c-2.7-1.4-5.5-2.7-8.2-4.1c-5.6,3.2-11.2,6.4-16.8,9.7c0,0.4,0,0.9,0,1.4C44.7,63.1,44.4,63.1,44.1,63.1z"/>
	<path class="st1" d="M165.1,58.1c-1.3,1.7-2.5,3.3-4,5.3c-1.5-2.2-3-4.2-4.9-7c0,3.9,0,7.2,0,10.5c-1.8,0-3.2,0-4.9,0
		c0-5.8,0-11.7,0-17.7c1.8,0,3.6,0,5.6,0c1.3,1.9,2.6,3.9,4.2,6.3c1.5-2.3,2.9-4.3,4.3-6.4c1.5,0,2.9,0,4.6,0c0,5.8,0,11.6,0,17.7
		c-1,0.1-2.3,0.1-3.8,0.2c0-2.8,0-5.4,0-8c0-0.3,0-0.7,0-1c-0.1-0.3-0.2-0.6-0.3-0.8C165.5,57.5,165.3,57.8,165.1,58.1z"/>
	<path class="st2" d="M145,49.2c0,6,0,11.7,0,17.7c-1.5,0-3,0-4.8,0c0-2.1,0-4.4,0-6.7c-2.1,0-3.9,0-6.1,0c0,2.2,0,4.4,0,6.8
		c-2.1,0-3.9,0-5.9,0c0-5.8,0-11.6,0-17.6c1.7,0,3.6,0,5.9,0c-0.2,1.8-0.4,3.6-0.6,5.5c1.8,0,4,0,6.5,0c0-1.9,0-3.7,0-5.6
		C141.6,49.2,143.1,49.2,145,49.2z"/>
	<path class="st3" d="M45.1,63.1c0-0.5,0-1,0-1.4c5.6-3.2,11.2-6.4,16.8-9.7c2.7,1.4,5.5,2.7,8.2,4.1c0.5,1.9,2,0.6,3,1
		c0.3,0.2,0.6,0.4,0.8,0.7c-0.3,0.1-0.6,0.2-0.8,0.3c-0.6,0.1-1.3,0.1-1.8,0.4c-5.4,3.2-10.8,6.5-16.5,10
		C51.5,66.6,48.3,64.8,45.1,63.1z"/>
	<path class="st4" d="M105.1,56.3c1.5-4.9,4.4-7.6,8.7-8.2c3.1-0.4,6.2,0.2,8.9,3.1c-1.3,0.9-2.4,1.7-3.6,2.5
		c-1.8-0.3-4.1-0.6-6.7-0.9c-0.9,1.7-1.7,3.2-2.7,5c1.2,1.8,2.5,3.7,3.5,5.3c1.4,0,2.4,0,3.9,0c0.4-1.5,0.9-3.1,1.4-4.9
		c1.3,0,2.7,0,4.4,0c0,2.1,0,4.2,0,6.7c-0.9,0.6-2,1.3-3.1,2.1c-6.1,0.7-11.9,0.5-14.7-7.1C105.1,58.9,105.1,57.2,105.1,56.3z"/>
	<path class="st4" d="M91.1,56.1c2.1-2.3,4.3-4.7,6.2-6.8c2.1-0.3,3.9-0.5,5.7-0.8c0,0,0.2,0.3,0.1,0.3c-2.2,2.9-4.4,5.8-6.7,8.7
		c2.2,2.9,4.5,6,7,9.4c-2.3,0-4.1,0-5.8,0c-2.1-2.6-4.3-5.2-6.5-7.9c-0.1-0.3-0.2-0.6-0.3-0.8c-0.2,0.3-0.4,0.6-0.7,0.8
		c-1.4-1-1.4-2,0-3c0.1,0.3,0.2,0.6,0.3,0.8C90.6,56.6,90.8,56.3,91.1,56.1z"/>
	<path class="st1" d="M90.1,56.1c-1.4,1-1.4,2,0,3c0,0.3,0,0.7,0,1c0,2.2,0,4.3,0,6.8c-1.5,0.1-3.1,0.1-4.8,0.2c0-6,0-11.7,0-17.9
		c1.4-0.1,2.9-0.1,4.8-0.2c0,2.1,0,4.1,0,6C90.1,55.4,90.1,55.7,90.1,56.1z"/>
	<path class="st5" d="M137.1,76.1c0-1,0-1.9,0-3.3c1.1,0.5,1.8,0.7,2.6,1.1c0.4-0.2,1-0.6,2-1.1c0.7,2,0.4,3.6,0.3,6.2
		c-0.7-1.5-1-2.1-1.4-3c-0.8,0.4-1.7,0.8-2.5,1.2C137.7,76.7,137.4,76.4,137.1,76.1z"/>
	<path class="st6" d="M153.1,73.1c0.5-0.4,1-0.8,1.8-1.5c0,2.5,0,4.4,0,6.3c-1.1,0-2.4,1-2.8-0.8c0.3-0.3,0.7-0.7,1-1
		C153.1,75.1,153.1,74.1,153.1,73.1z"/>
	<path class="st7" d="M89.1,75.1c-1.2,1-2.3,2-3.8,3.2c-0.1-2.2-1-4.2,1.3-6.1c0.8,0.6,1.7,1.3,2.5,1.9c-0.3,0-0.7,0-1,0s-0.7,0-1,0
		c-0.3,0.1-0.6,0.2-0.8,0.3c0.3,0.2,0.6,0.4,0.8,0.7c0.3,0,0.7,0,1,0S88.7,75.1,89.1,75.1z"/>
	<path class="st8" d="M119.1,77.1c-0.5-0.3-1-0.6-1.6-0.9c-0.3,0.6-0.6,1.3-1.2,2.6c0-2.2,0-3.8,0-5.9c0.5,0.5,0.9,0.8,1.2,1.1
		c0.5-0.3,1-0.6,1.6-0.9c0.3,0,0.7,0,1,0c-0.3,1-0.7,2-1,3C119.1,76.4,119.1,76.7,119.1,77.1z"/>
	<path class="st9" d="M110.1,73.1c0.1-0.3,0.2-0.5,0.5-1.4c0.4,0.9,0.8,1.5,1.1,2.2c-0.1,0.1-0.4,0.6-0.7,1.2c0,0.7,0,1.3,0,2
		c-0.4,0.3-0.8,0.7-1.2,1c-0.3-0.3-0.5-0.7-0.8-1c0-0.3,0-0.7,0-1s0-0.7,0-1C110.6,75,109.9,73.8,110.1,73.1z"/>
	<path class="st1" d="M73.1,57.1c-1-0.4-2.5,0.9-3-1c0.5,0,1,0,1.8,0c0.5-2.3,0.1-4.7,0.2-7c0.3,0.4,0.9,0.8,1,1.2
		C73.1,52.5,73.1,54.8,73.1,57.1z"/>
	<path class="st10" d="M146.2,78c0-1.6,0-3.2,0-4.8c0.6,0,1,0,1.8,0C147.9,74.9,148.8,76.9,146.2,78z"/>
	<path class="st11" d="M128.1,75.1c0,0.3,0,0.7,0,1c-0.3,0.3-0.7,0.7-1,1c-0.3-0.3-0.5-0.7-0.8-1c-0.4,0.3-0.8,0.7-1.2,1
		c-0.3-0.3-0.7-0.7-1-1c0-0.3,0-0.7,0-1c0.3-0.3,0.7-0.7,1-1c0.4-0.3,0.8-0.7,1.2-1c0.3,0.3,0.5,0.7,0.8,1c-0.3,0.2-0.6,0.3-2,1
		C126.8,75.1,127.5,75.1,128.1,75.1z"/>
	<path class="st8" d="M97.1,76.1c-0.5,0.6-0.8,1.4-1.4,1.8c-0.7,0.4-1.6,0.4-1.6-0.8c0-0.3,0-0.7,0-1c0.6,0,1.2,0,2,0
		c0-0.8,0-1.4,0-2c0.3,0,0.7,0,1,0C97.1,74.7,97.1,75.4,97.1,76.1z"/>
	<path class="st12" d="M168.1,75.1c-0.4-0.7-0.7-1.3-1.2-2.3c1-0.5,1.9-1,3.2-1.7c0,0.8,0,1.4,0,2c-1.5,0.1-0.8,1.2-1,2
		C168.7,75.1,168.4,75.1,168.1,75.1z"/>
	<path class="st8" d="M101.1,77.1c0-1,0-2,0-3c0.3-0.3,0.7-0.7,1-1c1.9,0.5,0.6,2,1,3c-0.3,0.3-0.7,0.7-1,1
		C101.7,77.1,101.4,77.1,101.1,77.1z"/>
	<path class="st13" d="M101.1,77.1c0.3,0,0.7,0,1,0s0.7,0,1,0c0.3-0.3,0.7-0.7,1-1c0.4,0.5,0.8,0.9,1.9,2.3
		C103.6,77.7,102.1,78.9,101.1,77.1z"/>
	<path class="st11" d="M159.1,77.1c0-0.7,0-1.3,0-2c0.3,0,0.7,0,1,0c0.1,1.5,1.2,0.8,2,1c0,0.3,0,0.7,0,1
		C161.1,77.1,160.1,77.1,159.1,77.1z"/>
	<path class="st14" d="M168.1,75.1c0.3,0,0.7,0,1,0c0,0.3,0,0.7,0,1c-0.1,1.5-1.2,0.8-2,1C167.2,76.3,166.6,75.1,168.1,75.1z"/>
	<path class="st1" d="M94.1,76.1c0,0.3,0,0.7,0,1c-0.6-0.5-1.4-0.8-1.8-1.4c-0.4-0.7-0.4-1.6,0.8-1.6c0.3,0.3,0.7,0.7,1,1
		C94.1,75.4,94.1,75.7,94.1,76.1z"/>
	<path class="st5" d="M162.1,77.1c0-0.3,0-0.7,0-1c0-0.7,0-1.3,0-2c0-0.3,0-0.7,0-1C163.4,74.3,163.4,75.8,162.1,77.1z"/>
	<path class="st11" d="M162.1,73.1c0,0.3,0,0.7,0,1c-0.8,0.2-1.9-0.5-2,1c-0.3,0-0.7,0-1,0c0.2-0.8-0.5-1.9,1-2c0.3,0,0.7,0,1,0
		S161.7,73.1,162.1,73.1z"/>
	<path class="st11" d="M153.1,73.1c0,1,0,2,0,3c-0.3,0-0.7,0-1,0c-0.2-0.8,0.5-1.9-1-2C151.1,72.6,152.3,73.2,153.1,73.1z"/>
	<path class="st15" d="M167.1,77.1c0.8-0.2,1.9,0.5,2-1c0.4,0.5,0.8,0.9,1.4,1.7C168.9,77.9,167.7,78.9,167.1,77.1z"/>
	<path class="st16" d="M110.1,73.1c-0.2,0.8,0.5,1.9-1,2c-0.4-0.5-0.8-1-1.6-2C108.8,73.1,109.5,73.1,110.1,73.1z"/>
	<path class="st7" d="M159.1,77.1c1,0,2,0,3,0C161.1,78.4,160.1,78.4,159.1,77.1z"/>
	<path class="st17" d="M127.1,77.1c0.3-0.3,0.7-0.7,1-1c1.4,0.3,1.3,1.2,0.5,1.9C128.1,78.3,127.1,78.2,127.1,77.1z"/>
	<path class="st6" d="M124.1,76.1c0.3,0.3,0.7,0.7,1,1c-0.3,1.4-1.2,1.3-1.9,0.5C122.8,77.1,122.9,76.1,124.1,76.1z"/>
	<path class="st1" d="M169.1,75.1c0.2-0.8-0.5-1.9,1-2C169.9,73.8,170.6,75,169.1,75.1z"/>
	<path class="st18" d="M152.1,76.1c0.3,0,0.7,0,1,0c-0.3,0.3-0.7,0.7-1,1c-0.3-0.3-0.7-0.7-1-1C151.4,76.1,151.7,76.1,152.1,76.1z"
		/>
	<path class="st1" d="M93.1,74.1c0.1-1.5,1.2-0.8,2-1c0,0.3,0,0.7,0,1C94.4,74.1,93.7,74.1,93.1,74.1z"/>
	<path class="st11" d="M137.1,76.1c0.3,0.3,0.7,0.7,1,1c-0.1,0.3-0.2,0.6-0.6,1.4C137.3,77.3,137.2,76.7,137.1,76.1z"/>
	<path class="st19" d="M97.1,76.1c0-0.7,0-1.3,0-2c0.3,0.4,0.7,0.8,1,1.2C97.7,75.5,97.4,75.8,97.1,76.1z"/>
	<path class="st11" d="M111.1,77.1c0-0.7,0-1.3,0-2c0.3,0.4,0.7,0.8,1,1.2C111.7,76.5,111.4,76.8,111.1,77.1z"/>
	<path class="st6" d="M128.1,75.1c-0.6,0-1.2,0-3,0c1.4-0.7,1.7-0.8,2-1C127.4,74.4,127.7,74.7,128.1,75.1z"/>
	<path class="st6" d="M152.1,76.1c-0.3,0-0.7,0-1,0c0-0.7,0-1.3,0-2C152.6,74.1,151.9,75.3,152.1,76.1z"/>
	<path class="st6" d="M125.1,77.1c0.4-0.3,0.8-0.7,1.2-1c0.3,0.3,0.5,0.7,0.8,1C126.4,77.1,125.7,77.1,125.1,77.1z"/>
	<path class="st20" d="M109.1,76.1c0,0.3,0,0.7,0,1c-0.3-0.2-0.6-0.4-0.8-0.7C108.5,76.3,108.8,76.2,109.1,76.1z"/>
	<path class="st1" d="M119.1,77.1c0-0.3,0-0.7,0-1c0.3,0.3,0.7,0.7,1,1C119.7,77.1,119.4,77.1,119.1,77.1z"/>
	<path class="st11" d="M95.1,74.1c0-0.3,0-0.7,0-1c0.3,0,0.7,0,1,0c0,0.3,0,0.7,0,1C95.7,74.1,95.4,74.1,95.1,74.1z"/>
	<path class="st19" d="M96.1,74.1c0-0.3,0-0.7,0-1c0.3,0.3,0.7,0.7,1,1C96.7,74.1,96.4,74.1,96.1,74.1z"/>
	<path class="st0" d="M90.1,56.1c0-0.3,0-0.7,0-1c0.3,0.3,0.7,0.7,1,1C90.7,56.1,90.4,56.1,90.1,56.1z"/>
	<path class="st21" d="M119.1,77.1c0.3,0,0.7,0,1,0c-0.2,0.3-0.4,0.6-0.7,0.8C119.3,77.6,119.2,77.3,119.1,77.1z"/>
	<path class="st11" d="M102.1,73.1c-0.3,0.3-0.7,0.7-1,1C101.4,73.7,101.7,73.4,102.1,73.1z"/>
	<path class="st5" d="M104.1,76.1c-0.3,0.3-0.7,0.7-1,1c0-0.3,0-0.7,0-1C103.4,76.1,103.7,76.1,104.1,76.1z"/>
	<path class="st0" d="M166.1,58.1c0,0.3,0,0.7,0,1c-0.3-0.3-0.7-0.7-1-1C165.4,58.1,165.7,58.1,166.1,58.1z"/>
	<path class="st0" d="M90.1,60.1c0-0.3,0-0.7,0-1c0.3,0,0.7,0,1,0C90.7,59.4,90.4,59.7,90.1,60.1z"/>
	<path class="st6" d="M125.1,74.1c-0.3,0.3-0.7,0.7-1,1C124.4,74.7,124.7,74.4,125.1,74.1z"/>
	<path class="st11" d="M44.1,63.1c0.3,0,0.7,0,1,0c-0.3,0.3-0.7,0.7-1,1C44.1,63.7,44.1,63.4,44.1,63.1z"/>
	<path class="st9" d="M120.1,73.1c-0.3,0-0.7,0-1,0c0.2-0.3,0.4-0.6,0.7-0.8C119.8,72.5,120,72.8,120.1,73.1z"/>
	<path class="st11" d="M89.1,75.1c-0.3,0-0.7,0-1,0c0-0.3,0-0.7,0-1c0.3,0,0.7,0,1,0C89.1,74.4,89.1,74.7,89.1,75.1z"/>
	<path class="st7" d="M161.1,73.1c-0.3,0-0.7,0-1,0c0.2-0.3,0.4-0.6,0.7-0.8C160.8,72.5,161,72.8,161.1,73.1z"/>
	<path class="st22" d="M166.1,58.1c-0.3,0-0.7,0-1,0c0.2-0.3,0.4-0.6,0.7-0.8C165.8,57.5,166,57.8,166.1,58.1z"/>
	<path class="st23" d="M90.1,56.1c0.3,0,0.7,0,1,0c-0.2,0.3-0.4,0.6-0.7,0.8C90.3,56.6,90.2,56.3,90.1,56.1z"/>
	<path class="st24" d="M91.1,59.1c-0.3,0-0.7,0-1,0c0.2-0.3,0.4-0.6,0.7-0.8C90.8,58.5,91,58.8,91.1,59.1z"/>
	<path class="st25" d="M88.1,74.1c0,0.3,0,0.7,0,1c-0.3,0-0.7,0-1,0c0-0.3,0-0.7,0-1C87.4,74.1,87.7,74.1,88.1,74.1z"/>
	<path class="st23" d="M87.1,74.1c0,0.3,0,0.7,0,1c-0.3-0.2-0.6-0.4-0.8-0.7C86.5,74.3,86.8,74.2,87.1,74.1z"/>
	<path class="st0" d="M95.1,74.1c0.3,0,0.7,0,1,0c0,0.6,0,1.2,0,2c-0.8,0-1.4,0-2,0c0-0.3,0-0.7,0-1C94.4,74.7,94.7,74.4,95.1,74.1z
		"/>
	<path class="st11" d="M103.1,76.1c0,0.3,0,0.7,0,1c-0.3,0-0.7,0-1,0C102.4,76.7,102.7,76.4,103.1,76.1z"/>
	<path class="st26" d="M160.1,75.1c0.1-1.5,1.2-0.8,2-1c0,0.7,0,1.3,0,2C161.3,75.9,160.1,76.5,160.1,75.1z"/>
	<path class="st11" d="M95.1,74.1c-0.3,0.3-0.7,0.7-1,1c-0.3-0.3-0.7-0.7-1-1C93.7,74.1,94.4,74.1,95.1,74.1z"/>
</g>
</svg>
