<?xml version="1.0" encoding="utf-8"?>
<!-- Generator: Adobe Illustrator 25.1.0, SVG Export Plug-In . SVG Version: 6.00 Build 0)  -->
<svg version="1.1" id="Warstwa_1" xmlns="http://www.w3.org/2000/svg" xmlns:xlink="http://www.w3.org/1999/xlink" x="0px" y="0px"
	 viewBox="0 0 210 120" style="enable-background:new 0 0 210 120;" xml:space="preserve">
<style type="text/css">
	.st0{fill:#9F9F9F;}
	.st1{fill-rule:evenodd;clip-rule:evenodd;fill:#9F9F9F;}
</style>
<g>
	<polygon class="st0" points="39.23,52.75 39.23,62.29 58.05,51.42 68.92,57.71 68.92,48.16 58.05,41.88 	"/>
	<polygon class="st0" points="50.1,78.12 39.23,71.84 39.23,62.29 50.1,68.58 68.92,57.71 68.92,67.25 	"/>
	<path class="st0" d="M150.45,67.25h5.18V56.34l4.85,7.42h0.11l4.88-7.47v10.97h5.26V48.16h-5.59l-4.56,7.39l-4.55-7.39h-5.59V67.25
		z M86.94,48.16h-5.29v19.09h5.29V48.16z M93.46,57.45l7.48,9.8H94.6l-7.5-9.78l7.34-9.31h6.21L93.46,57.45z M116.18,57.65v4.58
		c-0.79,0.52-1.77,0.79-3.06,0.79c-3.03,0-5.18-2.21-5.18-5.29v-0.05c0-2.92,2.13-5.24,4.88-5.24c1.88,0,3.25,0.65,4.61,1.8
		l3.11-3.74c-2.02-1.75-4.39-2.78-7.75-2.78c-5.92,0-10.28,4.36-10.28,9.93v0.05c0,5.78,4.45,9.87,10.39,9.87
		c3.46,0,6.27-1.28,8.29-2.95v-6.98H116.18z M126.73,67.25h5.29V60h6.79v7.26h5.29V48.16h-5.29v7.15h-6.79v-7.15h-5.29V67.25z"/>
	<path class="st1" d="M81.63,72.61h2.12c1.25,0,2.05,0.64,2.05,1.73v0.01c0,1.16-0.9,1.77-2.12,1.77H83v1.41h-1.37V72.61z
		 M83.65,75.06c0.49,0,0.78-0.25,0.78-0.64v-0.02c0-0.42-0.3-0.65-0.79-0.65H83v1.3H83.65z"/>
	<path class="st1" d="M89.35,75.09v-0.02c0-1.41,1.14-2.56,2.67-2.56c1.52,0,2.65,1.13,2.65,2.54v0.01c0,1.41-1.14,2.56-2.67,2.56
		C90.48,77.63,89.35,76.5,89.35,75.09 M93.27,75.09v-0.02c0-0.71-0.52-1.33-1.27-1.33c-0.75,0-1.25,0.61-1.25,1.31v0.01
		c0,0.71,0.52,1.33,1.26,1.33C92.77,76.4,93.27,75.8,93.27,75.09z"/>
	<polygon class="st1" points="98.52,72.61 99.89,72.61 99.89,76.34 102.28,76.34 102.28,77.54 98.52,77.54 	"/>
	<path class="st1" d="M105.63,76.8l0.76-0.91c0.49,0.39,1.03,0.59,1.6,0.59c0.37,0,0.57-0.13,0.57-0.34v-0.01
		c0-0.2-0.16-0.32-0.83-0.47c-1.05-0.24-1.86-0.53-1.86-1.55V74.1c0-0.91,0.73-1.57,1.91-1.57c0.84,0,1.5,0.23,2.03,0.65l-0.69,0.96
		c-0.45-0.32-0.94-0.49-1.38-0.49c-0.33,0-0.49,0.14-0.49,0.31v0.02c0,0.22,0.17,0.32,0.85,0.48c1.13,0.25,1.84,0.61,1.84,1.53v0.01
		c0,1-0.8,1.6-2,1.6C107.07,77.62,106.24,77.35,105.63,76.8"/>
	<polygon class="st1" points="113.74,72.61 115.11,72.61 115.11,74.61 116.81,72.61 118.43,72.61 116.56,74.73 118.49,77.54 
		116.85,77.54 115.61,75.71 115.11,76.26 115.11,77.54 113.74,77.54 	"/>
	<path class="st1" d="M123.59,72.58h1.32l2.1,4.96h-1.47l-0.36-0.88h-1.9l-0.35,0.88h-1.44L123.59,72.58z M124.79,75.6l-0.55-1.4
		l-0.56,1.4H124.79z"/>
	<polygon class="st1" points="135.73,72.61 137.17,72.61 138.35,74.52 139.53,72.61 140.97,72.61 140.97,77.54 139.61,77.54 
		139.61,74.71 138.35,76.64 138.32,76.64 137.07,74.72 137.07,77.54 135.73,77.54 	"/>
	<rect x="145.02" y="72.61" class="st1" width="1.38" height="4.92"/>
	<polygon class="st1" points="150.43,72.61 154.4,72.61 154.4,73.77 151.79,73.77 151.79,74.52 154.16,74.52 154.16,75.6 
		151.79,75.6 151.79,76.38 154.44,76.38 154.44,77.54 150.43,77.54 	"/>
	<path class="st1" d="M158.28,72.61h1.9c1.76,0,2.79,1.01,2.79,2.43v0.02c0,1.42-1.04,2.47-2.81,2.47h-1.88V72.61z M160.2,76.33
		c0.82,0,1.36-0.45,1.36-1.24l0-0.02c0-0.79-0.54-1.24-1.36-1.24h-0.56v2.5H160.2z"/>
	<path class="st1" d="M166.41,76.54l2.48-2.78h-2.39v-1.15h4.28v0.99l-2.48,2.78h2.48v1.15h-4.37V76.54z M168.88,71.14l1.28,0.39
		l-1.04,0.75h-1L168.88,71.14z"/>
</g>
</svg>
