<?xml version="1.0" encoding="utf-8"?>
<!-- Generator: Adobe Illustrator 19.0.0, SVG Export Plug-In . SVG Version: 6.00 Build 0)  -->
<svg version="1.1" id="Warstwa_1" xmlns="http://www.w3.org/2000/svg" xmlns:xlink="http://www.w3.org/1999/xlink" x="0px" y="0px"
	 viewBox="0 0 210.1 120.1" style="enable-background:new 0 0 210.1 120.1;" xml:space="preserve">
<style type="text/css">
	.st0{fill:#FEFEFE;}
	.st1{fill:#A0A0A0;}
	.st2{fill:#9F9F9F;}
	.st3{fill:#AAAAAA;}
	.st4{fill:#D4D4D4;}
	.st5{fill:#DDDDDD;}
	.st6{fill:#D3D3D3;}
	.st7{fill:#DADADA;}
	.st8{fill:#9E9E9E;}
	.st9{fill:#C7C7C7;}
	.st10{fill:#D6D6D6;}
	.st11{fill:#EDEDED;}
	.st12{fill:#F8F8F8;}
	.st13{fill:#E7E7E7;}
	.st14{fill:#E9E9E9;}
	.st15{fill:#E5E5E5;}
	.st16{fill:#E8E8E8;}
	.st17{fill:#9D9D9D;}
	.st18{fill:#EAEAEA;}
	.st19{fill:#CECECE;}
	.st20{fill:#E3E3E3;}
	.st21{fill:#E6E6E6;}
	.st22{fill:#A6A6A6;}
	.st23{fill:#A7A7A7;}
	.st24{fill:#B6B6B6;}
	.st25{fill:#B2B2B2;}
	.st26{fill:#B1B1B1;}
</style>
<g>
	<path class="st0" d="M-1.4,120.1c0-40,0-80,0-120c70,0,140,0,210,0c0,40,0,80,0,120C138.6,120.1,68.6,120.1-1.4,120.1z M160.9,32.2
		c-3.1-1.6-6.6-2.2-10.4-2.2c-31,0.1-62,0.1-93,0c-3.9,0-7.6,0.5-10.2,2.1c-1.2,1.6-2,2.6-2.7,3.6c0,16.3,0,32.6,0,48.5
		c1,1.5,1.8,2.6,2.2,3.3c3.7,2.3,7.3,2.5,11,2.5c31.2-0.1,62.3,0,93.5,0c1,0,2,0.2,3,0c2.4-0.6,4.7-1.4,6.6-1.9
		c1.1-1.6,1.9-2.8,2.6-3.7c0-16.5,0-32.8,0-48.6C162.5,34.5,161.9,33.6,160.9,32.2z"/>
	<path class="st1" d="M160.9,32.2c1,1.4,1.6,2.3,2.5,3.6c0,15.8,0,32.1,0,48.6c-0.7,1-1.4,2.1-2.6,3.7c-1.8,0.5-4.2,1.3-6.6,1.9
		c-0.9,0.2-2,0-3,0c-31.2,0-62.3,0-93.5,0c-3.7,0-7.3-0.2-11-2.5c-0.5-0.7-1.2-1.8-2.2-3.3c0-15.9,0-32.2,0-48.5
		c0.8-1,1.5-2,2.7-3.6C50,30.5,53.6,30,57.6,30c31,0.1,62,0.1,93,0C154.3,30,157.8,30.5,160.9,32.2z M52,87.1c33.4,0,66.7,0,100,0
		c3.5,0,6.4-0.7,8.5-3.7c0-15.5,0-31.2,0-47.2c-1.4-1-3-2.1-4.5-3.2c-33.4,0-66.7,0-100,0c-3.5,0-6.4,0.7-8.5,3.7
		c0,15.5,0,31.2,0,47.2C49,84.8,50.5,86,52,87.1z"/>
	<path class="st0" d="M52,87.1c-1.5-1.1-3.1-2.2-4.5-3.2c0-16,0-31.6,0-47.2c2.2-3,5.1-3.7,8.5-3.7c33.3,0.1,66.6,0,100,0
		c1.5,1.1,3.1,2.2,4.5,3.2c0,16,0,31.6,0,47.2c-2.2,3-5.1,3.7-8.5,3.7C118.7,87,85.4,87.1,52,87.1z M157.6,41.1
		c-0.3-0.3-0.7-0.7-1-1c-0.5-1.9-2-0.6-3-1c-13.2,0-26.4,0-39.7,0c-0.8,1-1.5,2-2.3,3c-0.3,0.3-0.7,0.7-1,1c-0.7,0.7-1.3,1.3-2,2
		c-1.3,1.2-3,1-4.6,1c-14.6,0-29.2,0-43.9,0c-1.6,0-3.2-0.1-4.6,1c-1.5,0.1-0.8,1.2-1,2c-0.3,0.3-0.7,0.7-1,1c-0.2,0-0.4-0.1-0.5,0
		c-0.2,0.2-0.2,0.4-0.5,1c6.9,0,13.7,0,20.4,0c11.4,0,22.9,0,34.3,0c0.8,0,2.1,0.7,2.3-1c0.3-0.3,0.7-0.7,1-1c0.3-0.3,0.7-0.7,1-1
		c0.3-0.3,0.7-0.7,1-1c0.3-0.3,0.7-0.7,1-1c0.3-0.3,0.7-0.7,1-1c1.3-1.2,3-1,4.6-1c9.3,0,18.6,0,27.9,0c1.6,0,3.2,0.1,4.6-1
		c1.5-0.1,0.8-1.2,1-2c0.3,0,0.7,0,1,0c-0.2,1.6,0.4,2.6,2,3c1.6,0.2,2.6-0.4,3-2C158.2,41.7,157.9,41.4,157.6,41.1z M108.6,78.1
		c0-1,0-2,0-3c4.1,5.4,4.1,5.4,13.4,5c1.2-1.2,2.4-2.3,3.3-3.3c2.3-6.8,0.7-13.6,1.3-20.1c-2.7-2-5.3-2.2-8.1-0.1
		c0,5.5,0,11.1,0,16.7c0,0.2-0.3,0.5-0.6,0.8c-0.4-0.1-0.9-0.2-1.5-0.4c0-5.9,0-11.7,0-17.4c-1.8-0.4-3.5-0.8-5.4-1.2
		c-0.7,0.4-1.6,0.9-2.6,1.4c0,6.2,0,12.3,0,18.5c-0.3,0-0.7,0-1,0c0-1.2,0.5-2.8-0.1-3.4c-1.3-1.3-0.3-3.2-1-4.1
		c-1.2-1.4-0.3-2.9-0.9-4.1c-1.3-2.7-0.5-6.4-3.5-8.3c-1.1,1.8-2-0.8-3.2-0.1c-1,0.6-2.2,1-2.8,1.3c-1.9,8-3.7,15.6-5.5,23.2
		c0.5,0.4,1,0.9,1.6,1.4c1.3,0,2.7,0,4.2,0c0.9-1.4,1.8-2.7,2.6-3.9c0.8,0,1.5,0,2.3,0c0.8,1.2,1.7,2.6,2.5,3.7c1.7,0,3.3,0,4.8,0
		C108.6,79.7,108.6,78.9,108.6,78.1z M89.4,81c0.8-4.6-3-7.4-3.9-11.4c3.1-2.2,3.4-5.5,2.9-9.2c-1-1.4-2.2-2.9-3-4.1
		c-2.1-0.5-3.6-0.8-5.1-1.3c-1.6-0.6-2.9,1.2-4.7,0.2c-0.9-0.5-2.8,0.7-4.1,1.2c0,8,0,15.6,0,23.2c0.5,0.5,1,1,1.3,1.3
		c1.9,0,3.7,0,5.9,0c0.4-1.6,0.8-3.2,1.2-5c1,1.9,1.8,3.5,2.6,5.1C85,81,87.1,81,89.4,81z M51.6,57.5c0,5.8,0.1,11.7,0,17.5
		c0,2.1,0.1,4.1,1.4,5.9c1.8,0,3.6,0,5.2,0c0.5-0.5,0.8-0.8,1.5-1.5c0-1.9,0-4.1,0-7.2c1.5,3.5,2.7,6.2,3.8,8.7c2.2,0,4,0,5.7,0
		c0.5-0.6,1-1.1,1.4-1.5c-1.7-4.2-3.4-8.4-5.1-12.4c0.9-1.7,1.8-3.4,2.6-5c0.9-1.8,1.8-3.6,2.6-5.3c-2.8-2-5.4-2.3-7.8-0.4
		c-1,2-1.9,3.8-3.4,6.7c0-3,0-4.9,0-6.6c-1.1-0.5-1.8-0.8-2.7-1.2c-0.8,1.6-1.8,0.9-2.9-0.1C53.2,55.9,52.4,56.7,51.6,57.5z
		 M156.5,56.2c-4.2,0-8,0-11.6,0c-0.5,0.5-0.9,0.9-1.2,1.2c0,7.1,0,14.3,0,21.2c0.8,0.8,1.5,1.5,2.3,2.3c3.1,0,6.2,0,9.2,0
		c0.5-0.5,0.8-0.8,1.3-1.3c0-1.3,0-2.8,0-3.8c-1-2.7-3.3-1.3-4.8-2c0-0.9,0-1.7,0-2.8c1.3,0,2.6,0,3.5,0c0.7-0.7,1.1-1.1,1.2-1.2
		c0-1.6,0-3.1,0-4.5c-1.7-0.1-3.3-0.2-4.6-0.4c0-1.2,0-1.9,0-2.6c1.7-0.4,3.6,0.5,4.7-1.8C156.5,59.3,156.5,57.8,156.5,56.2z
		 M137.9,55.1c-1.7-0.1-3.5,0.2-5.4,0.8c-2,0.6-3.5,1.5-3.8,3.2c-0.5,2.1-2.2,4.1-0.2,6.7c1.7,2.2,3.1,4.4,5.8,5.5
		c0.6,0.2,1.1,0.7,1.6,1c-0.8,0.8-1.3,1.3-2,2.1c-1.5-0.6-3.2-1.3-5-2.1c-0.2,0.2-0.6,0.6-1.1,1.1c0,1.3,0,2.7,0,4.3
		c0.7,0.7,1.5,1.5,2.3,2.4c1.9-0.9,3.3,2.1,5.5,0.6c1.6-1.1,3.7-1.5,5.2-2.1c2.5-3,1.7-6.2,1.9-9.4c-2.2-1.7-4.3-3.4-6.5-5.1
		c-0.3-0.3-0.5-0.8-0.8-1.3c0.7-0.6,1.3-1.1,2-1.7c0.8,0.3,1.8,0.7,2.9,0.9c0.4,0.1,0.9-0.2,1.2-0.3c0-1.6,0-3.1,0-4.6
		C140.2,56.5,139.1,55.8,137.9,55.1z"/>
	<path class="st2" d="M89.4,81c-2.3,0-4.4,0-6.8,0c-0.8-1.5-1.7-3.2-2.6-5.1c-0.4,1.8-0.8,3.4-1.2,5c-2.2,0-4,0-5.9,0
		c-0.4-0.4-0.8-0.8-1.3-1.3c0-7.6,0-15.2,0-23.2c1.3-0.4,3.1-1.6,4.1-1.2c1.8,1,3.1-0.8,4.7-0.2c1.5,0.5,3,0.8,5.1,1.3
		c0.8,1.1,1.9,2.6,3,4.1c0.4,3.6,0.1,6.9-2.9,9.2C86.4,73.5,90.3,76.4,89.4,81z M82.9,63.2c-1.5-1.1-2.2-1.6-3.5-2.5
		c0.1,1.8,0.2,3.1,0.3,3.8C80.5,64.1,81.2,63.8,82.9,63.2z"/>
	<path class="st2" d="M51.6,57.5c0.8-0.8,1.6-1.6,2.5-2.4c1,1,2,1.7,2.9,0.1c0.9,0.4,1.6,0.7,2.7,1.2c0,1.7,0,3.6,0,6.6
		c1.4-2.9,2.4-4.7,3.4-6.7c2.5-1.9,5.1-1.6,7.8,0.4c-0.8,1.7-1.7,3.5-2.6,5.3c-0.8,1.7-1.7,3.3-2.6,5c1.7,4.1,3.3,8.2,5.1,12.4
		c-0.4,0.4-0.8,0.9-1.4,1.5c-1.7,0-3.5,0-5.7,0c-1.1-2.5-2.3-5.2-3.8-8.7c0,3.1,0,5.3,0,7.2c-0.7,0.7-1.1,1.1-1.5,1.5
		c-1.7,0-3.4,0-5.2,0c-1.3-1.7-1.4-3.8-1.4-5.9C51.6,69.2,51.6,63.4,51.6,57.5z"/>
	<path class="st1" d="M108.6,75.1c0-6.2,0-12.3,0-18.5c0.9-0.5,1.9-1,2.6-1.4c1.9,0.4,3.6,0.8,5.4,1.2c0,5.7,0,11.5,0,17.4
		c0.6,0.1,1,0.3,1.5,0.4c0.2-0.3,0.6-0.6,0.6-0.8c0-5.6,0-11.3,0-16.7c2.8-2.1,5.4-1.9,8.1,0.1c-0.6,6.5,1,13.3-1.3,20.1
		c-0.9,0.9-2.1,2.1-3.3,3.3C112.6,80.4,112.6,80.4,108.6,75.1z"/>
	<path class="st2" d="M108.6,78.1c0,0.8,0,1.7,0,2.7c-1.5,0-3.1,0-4.8,0c-0.8-1.2-1.7-2.5-2.5-3.7c-0.8,0-1.5,0-2.3,0
		c-0.8,1.2-1.7,2.5-2.6,3.9c-1.5,0-2.9,0-4.2,0c-0.6-0.5-1.1-1-1.6-1.4c1.8-7.6,3.6-15.2,5.5-23.2c0.6-0.3,1.8-0.7,2.8-1.3
		c1.2-0.7,2.1,2,3.2,0.1c3,2,2.2,5.6,3.5,8.3c0.6,1.2-0.3,2.7,0.9,4.1c0.8,0.9-0.2,2.7,1,4.1c0.6,0.6,0.1,2.2,0.1,3.4
		C107.9,76,106.6,77.6,108.6,78.1z M100.6,69.1c-0.1-0.6-0.2-1.3-0.3-1.9c-0.2,0-0.4,0-0.7,0.1c0,0.6,0,1.2,0,1.8c0,0.3,0,0.7,0,1
		c0.1,0.6,0.2,1.3,0.3,1.9c0.2,0,0.4,0,0.7-0.1c0-0.6,0-1.2,0-1.8C100.6,69.7,100.6,69.4,100.6,69.1z"/>
	<path class="st1" d="M156.5,56.2c0,1.6,0,3.1,0,4.2c-1.1,2.3-3,1.3-4.7,1.8c0,0.7,0,1.5,0,2.6c1.3,0.1,2.9,0.2,4.6,0.4
		c0,1.4,0,2.9,0,4.5c-0.2,0.2-0.5,0.5-1.2,1.2c-0.9,0-2.1,0-3.5,0c0,1.1,0,1.9,0,2.8c1.5,0.7,3.8-0.7,4.8,2c0,1,0,2.5,0,3.8
		c-0.5,0.5-0.8,0.8-1.3,1.3c-3,0-6.1,0-9.2,0c-0.7-0.7-1.4-1.4-2.3-2.3c0-7,0-14.1,0-21.2c0.3-0.3,0.7-0.7,1.2-1.2
		C148.5,56.2,152.3,56.2,156.5,56.2z"/>
	<path class="st2" d="M137.9,55.1c1.2,0.7,2.3,1.4,3.5,2.1c0,1.5,0,2.9,0,4.6c-0.3,0.1-0.8,0.4-1.2,0.3c-1-0.2-2.1-0.6-2.9-0.9
		c-0.7,0.6-1.3,1.1-2,1.7c0.3,0.5,0.4,1.1,0.8,1.3c2.1,1.7,4.3,3.4,6.5,5.1c-0.2,3.2,0.6,6.4-1.9,9.4c-1.5,0.6-3.5,1.1-5.2,2.1
		c-2.2,1.4-3.5-1.5-5.5-0.6c-0.8-0.8-1.6-1.7-2.3-2.4c0-1.6,0-3,0-4.3c0.5-0.5,0.9-0.9,1.1-1.1c1.7,0.7,3.4,1.4,5,2.1
		c0.8-0.8,1.2-1.2,2-2.1c-0.5-0.3-1-0.8-1.6-1c-2.7-1.1-4.1-3.3-5.8-5.5c-2-2.6-0.2-4.6,0.2-6.7c0.4-1.7,1.8-2.6,3.8-3.2
		C134.4,55.3,136.2,55,137.9,55.1z"/>
	<path class="st2" d="M55.6,47.1c1.3-1.2,3-1,4.6-1c14.6,0,29.2,0,43.9,0c1.6,0,3.2,0.1,4.6-1c0.3,0.3,0.7,0.7,1,1c0,0.3,0,0.7,0,1
		c-0.3,0.3-0.7,0.7-1,1c-0.3,0-0.7,0-1,0c-4.3,0-8.6,0-12.9,0c-12.3,0-24.5,0-36.8,0C57,48,55.7,48.7,55.6,47.1z"/>
	<path class="st2" d="M111.6,42.1c0.8-1,1.6-2,2.3-3c13.3,0,26.5,0,39.7,0c0,0.7,0,1.3,0,2c-0.3,0-0.7,0-1,0c-11.9,0-23.8,0-35.7,0
		c-0.8,0-2.1-0.7-2.3,1c-0.3,0.3-0.7,0.7-1,1c-0.3,0-0.7,0-1,0C112.2,42.7,111.9,42.4,111.6,42.1z"/>
	<path class="st2" d="M151.6,43.1c-1.3,1.2-3,1-4.6,1c-9.3,0-18.6,0-27.9,0c-1.6,0-3.2-0.1-4.6,1c-0.3-0.3-0.7-0.7-1-1
		c0-0.3,0-0.7,0-1c0.3-0.3,0.7-0.7,1-1c11.6,0,23.2,0,34.7,0C150.1,42.1,151.4,41.4,151.6,43.1z"/>
	<path class="st2" d="M109.6,50.1c-0.2,1.7-1.5,1-2.3,1c-11.4,0-22.9,0-34.3,0c-6.7,0-13.5,0-20.4,0c0.3-0.5,0.3-0.8,0.5-1
		c0.1-0.1,0.3,0,0.5,0c18.3,0,36.7,0,55,0C108.9,50.1,109.2,50.1,109.6,50.1z"/>
	<path class="st3" d="M108.6,50.1c-18.3,0-36.7,0-55,0c0.3-0.3,0.7-0.7,1-1c17.7,0,35.3,0,53,0c0.3,0,0.7,0,1,0
		C108.6,49.4,108.6,49.7,108.6,50.1z"/>
	<path class="st4" d="M107.6,49.1c-17.7,0-35.3,0-53,0c0.2-0.8-0.5-1.9,1-2c0.2,1.7,1.5,1,2.3,1c12.3,0,24.5,0,36.8,0
		c4.3,0,8.6,0,12.9,0C107.6,48.4,107.6,48.7,107.6,49.1z"/>
	<path class="st5" d="M151.6,43.1c-0.2-1.7-1.5-1-2.3-1c-11.6,0-23.2,0-34.7,0c0.2-1.7,1.5-1,2.3-1c11.9,0,23.8,0,35.7,0
		C152.4,41.8,153,43,151.6,43.1z"/>
	<path class="st6" d="M153.6,41.1c0-0.7,0-1.3,0-2c1,0.4,2.5-0.9,3,1c0,0.3,0,0.7,0,1c-0.3,0-0.7,0-1,0.1c0,0,0.1-0.1,0.2-0.1
		c-0.2-0.3-0.5-0.5-0.7-0.8c-0.1,0.1-0.2,0.2-0.3,0.3c0.3,0.2,0.5,0.5,0.9,0.6c0,0.3,0,0.6,0,0.9s0,0.7,0,1s0,0.7,0,1
		C154,43.7,153.4,42.6,153.6,41.1z"/>
	<path class="st7" d="M155.6,44.1c0-0.3,0-0.7,0-1c0.3-0.3,0.7-0.7,1-1c0.3,0,0.7,0,1,0s0.7,0,1,0C158.2,43.6,157.1,44.2,155.6,44.1
		z"/>
	<path class="st2" d="M108.6,45.1c0.7-0.7,1.3-1.3,2-2c0,0.3,0,0.7,0,1s0,0.7,0,1c-0.3,0-0.7,0-1,0S108.9,45.1,108.6,45.1z"/>
	<path class="st1" d="M108.6,78.1c-1.9-0.5-0.6-2-1-3c0.3,0,0.7,0,1,0C108.6,76.1,108.6,77.1,108.6,78.1z"/>
	<path class="st8" d="M110.6,44.1c0-0.3,0-0.7,0-1c0.3-0.3,0.7-0.7,1-1c0,0.3,0,0.7,0,1s0,0.7,0,1C111.2,44.1,110.9,44.1,110.6,44.1
		z"/>
	<path class="st8" d="M108.6,50.1c0-0.3,0-0.7,0-1c0.3,0,0.7,0,1,0s0.7,0,1,0c-0.3,0.3-0.7,0.7-1,1
		C109.2,50.1,108.9,50.1,108.6,50.1z"/>
	<path class="st8" d="M110.6,49.1c-0.3,0-0.7,0-1,0c0-0.3,0-0.7,0-1c0.3,0,0.7,0,1,0s0.7,0,1,0C111.2,48.4,110.9,48.7,110.6,49.1z"
		/>
	<path class="st8" d="M111.6,48.1c-0.3,0-0.7,0-1,0c0-0.3,0-0.7,0-1c0.3,0,0.7,0,1,0s0.7,0,1,0C112.2,47.4,111.9,47.7,111.6,48.1z"
		/>
	<path class="st8" d="M112.6,47.1c-0.3,0-0.7,0-1,0c0-0.3,0-0.7,0-1c0.3,0,0.7,0,1,0s0.7,0,1,0C113.2,46.4,112.9,46.7,112.6,47.1z"
		/>
	<path class="st8" d="M113.6,46.1c-0.3,0-0.7,0-1,0c0-0.3,0-0.7,0-1c0.3,0,0.7,0,1,0s0.7,0,1,0C114.2,45.4,113.9,45.7,113.6,46.1z"
		/>
	<path class="st9" d="M156.6,41.1c0-0.3,0-0.7,0-1c0.3,0.3,0.7,0.7,1,1C157.2,41.1,156.9,41.1,156.6,41.1z"/>
	<path class="st10" d="M158.6,42.1c-0.3,0-0.7,0-1,0c0-0.3,0-0.7,0-1C157.9,41.4,158.2,41.7,158.6,42.1z"/>
	<path class="st11" d="M82.9,63.2c-1.7,0.6-2.5,0.9-3.2,1.2c0-0.7-0.1-1.9-0.3-3.8C80.7,61.6,81.4,62.1,82.9,63.2z"/>
	<path class="st12" d="M100.6,70.1c0,0.6,0,1.2,0,1.8c-0.2,0-0.4,0-0.7,0.1c-0.1-0.6-0.2-1.3-0.3-1.9
		C99.9,70.1,100.2,70.1,100.6,70.1z"/>
	<path class="st4" d="M99.6,69.1c0-0.6,0-1.2,0-1.8c0.2,0,0.4,0,0.7-0.1c0.1,0.6,0.2,1.3,0.3,1.9C100.2,69.1,99.9,69.1,99.6,69.1z"
		/>
	<path class="st13" d="M99.6,69.1c0.3,0,0.7,0,1,0c0,0.3,0,0.7,0,1c-0.3,0-0.7,0-1,0C99.6,69.7,99.6,69.4,99.6,69.1z"/>
	<path class="st8" d="M108.6,45.1c0.3,0,0.7,0,1,0c0,0.3,0,0.7,0,1C109.2,45.7,108.9,45.4,108.6,45.1z"/>
	<path class="st14" d="M107.6,49.1c0-0.3,0-0.7,0-1c0.3,0,0.7,0,1,0c0,0.3,0,0.7,0,1C108.2,49.1,107.9,49.1,107.6,49.1z"/>
	<path class="st15" d="M108.6,48.1c0.3-0.3,0.7-0.7,1-1c0,0.3,0,0.7,0,1C109.2,48.1,108.9,48.1,108.6,48.1z"/>
	<path class="st14" d="M109.6,47.1c0-0.3,0-0.7,0-1c0.3,0,0.7,0,1,0c0,0.3,0,0.7,0,1C110.2,47.1,109.9,47.1,109.6,47.1z"/>
	<path class="st16" d="M113.6,43.1c0,0.3,0,0.7,0,1c-0.3,0-0.7,0-1,0c0-0.3,0-0.7,0-1C112.9,43.1,113.2,43.1,113.6,43.1z"/>
	<path class="st17" d="M111.6,43.1c0-0.3,0-0.7,0-1c0.3,0.3,0.7,0.7,1,1C112.2,43.1,111.9,43.1,111.6,43.1z"/>
	<path class="st18" d="M114.6,42.1c-0.3,0.3-0.7,0.7-1,1C113.9,42.7,114.2,42.4,114.6,42.1z"/>
	<path class="st17" d="M114.6,45.1c-0.3,0-0.7,0-1,0c0-0.3,0-0.7,0-1C113.9,44.4,114.2,44.7,114.6,45.1z"/>
	<path class="st19" d="M155.5,41.2c-0.3-0.2-0.5-0.5-0.8-0.7c0.1-0.1,0.2-0.2,0.3-0.3c0.2,0.3,0.5,0.5,0.7,0.8
		C155.6,41,155.5,41.1,155.5,41.2z"/>
	<path class="st19" d="M155.6,42.1c0-0.3,0-0.7,0-1c0.3,0,0.7,0,1,0c0,0.3,0,0.7,0,1C156.2,42.1,155.9,42.1,155.6,42.1z"/>
	<path class="st20" d="M155.6,42.1c0.3,0,0.7,0,1,0c-0.3,0.3-0.7,0.7-1,1C155.6,42.7,155.6,42.4,155.6,42.1z"/>
	<path class="st21" d="M156.6,42.1c0-0.3,0-0.7,0-1c0.3,0,0.7,0,1,0c0,0.3,0,0.7,0,1C157.2,42.1,156.9,42.1,156.6,42.1z"/>
	<path class="st22" d="M110.6,44.1c0.3,0,0.7,0,1,0c0,0.3,0,0.7,0,1c-0.3,0-0.7,0-1,0C110.6,44.7,110.6,44.4,110.6,44.1z"/>
	<path class="st22" d="M110.6,46.1c-0.3,0-0.7,0-1,0c0-0.3,0-0.7,0-1c0.3,0,0.7,0,1,0C110.6,45.4,110.6,45.7,110.6,46.1z"/>
	<path class="st23" d="M111.6,43.1c0.3,0,0.7,0,1,0c0,0.3,0,0.7,0,1c-0.3,0-0.7,0-1,0C111.6,43.7,111.6,43.4,111.6,43.1z"/>
	<path class="st24" d="M108.6,48.1c0.3,0,0.7,0,1,0c0,0.3,0,0.7,0,1c-0.3,0-0.7,0-1,0C108.6,48.7,108.6,48.4,108.6,48.1z"/>
	<path class="st25" d="M109.6,47.1c0.3,0,0.7,0,1,0c0,0.3,0,0.7,0,1c-0.3,0-0.7,0-1,0C109.6,47.7,109.6,47.4,109.6,47.1z"/>
	<path class="st25" d="M110.6,47.1c0-0.3,0-0.7,0-1c0.3,0,0.7,0,1,0c0,0.3,0,0.7,0,1C111.2,47.1,110.9,47.1,110.6,47.1z"/>
	<path class="st26" d="M112.6,45.1c0,0.3,0,0.7,0,1c-0.3,0-0.7,0-1,0c0-0.3,0-0.7,0-1C111.9,45.1,112.2,45.1,112.6,45.1z"/>
	<path class="st25" d="M113.6,44.1c0,0.3,0,0.7,0,1c-0.3,0-0.7,0-1,0c0-0.3,0-0.7,0-1C112.9,44.1,113.2,44.1,113.6,44.1z"/>
	<path class="st14" d="M112.6,44.1c0,0.3,0,0.7,0,1c-0.3,0-0.7,0-1,0c0-0.3,0-0.7,0-1C111.9,44.1,112.2,44.1,112.6,44.1z"/>
	<path class="st14" d="M111.6,45.1c0,0.3,0,0.7,0,1c-0.3,0-0.7,0-1,0c0-0.3,0-0.7,0-1C110.9,45.1,111.2,45.1,111.6,45.1z"/>
</g>
</svg>
