<?xml version="1.0" encoding="utf-8"?>
<!-- Generator: Adobe Illustrator 25.1.0, SVG Export Plug-In . SVG Version: 6.00 Build 0)  -->
<svg version="1.1" id="Warstwa_1" xmlns="http://www.w3.org/2000/svg" xmlns:xlink="http://www.w3.org/1999/xlink" x="0px" y="0px"
	 viewBox="0 0 210 120" style="enable-background:new 0 0 210 120;" xml:space="preserve">
<style type="text/css">
	.st0{fill-rule:evenodd;clip-rule:evenodd;fill:#9F9F9F;}
	.st1{fill:#9F9F9F;}
</style>
<g>
	<path class="st0" d="M52.78,33.26h104.45c2.86,0,5.18,2.32,5.18,5.18v43.11c0,2.86-2.32,5.18-5.18,5.18H52.78
		c-2.86,0-5.18-2.32-5.18-5.18V38.44C47.6,35.58,49.92,33.26,52.78,33.26L52.78,33.26z M52.78,30.29h104.45
		c4.5,0,8.15,3.65,8.15,8.15v43.11c0,4.5-3.65,8.15-8.15,8.15H52.78c-4.5,0-8.15-3.65-8.15-8.15V38.44
		C44.63,33.94,48.28,30.29,52.78,30.29L52.78,30.29z"/>
	<g>
		<polygon class="st1" points="156.23,39.26 115.12,39.26 107.92,46.45 56.71,46.45 54.77,48.42 108.75,48.42 115.93,41.23 
			154.26,41.23 156.23,39.26 		"/>
		<polygon class="st1" points="153.98,41.97 116.39,41.97 109.18,49.16 54.44,49.16 52.43,51.13 110.01,51.13 117.2,43.93 
			152.01,43.93 153.98,41.97 		"/>
	</g>
	<path class="st0" d="M155.5,41.7c0,1.2,0.96,2.11,2.11,2.11c1.14,0,2.1-0.9,2.1-2.11c0-1.18-0.96-2.08-2.1-2.08
		C156.47,39.62,155.5,40.52,155.5,41.7L155.5,41.7z M155.88,41.7c0-1,0.75-1.78,1.73-1.78c0.97,0,1.72,0.77,1.72,1.78
		c0,1.02-0.75,1.8-1.72,1.8C156.63,43.5,155.88,42.72,155.88,41.7L155.88,41.7z M156.8,42.93h0.38v-1.05h0.4l0.67,1.05h0.41
		l-0.7-1.08c0.36-0.04,0.64-0.22,0.64-0.67c0-0.47-0.27-0.7-0.86-0.7h-0.95V42.93L156.8,42.93z M157.18,40.79h0.5
		c0.26,0,0.54,0.05,0.54,0.37c0,0.39-0.31,0.4-0.64,0.4h-0.4V40.79L157.18,40.79z"/>
	<g>
		<path class="st1" d="M53.66,55.54h4.92c0-0.01,1.41,0.04,1.41,1.52l0.01,6.06l2.71-6.06c0.51-1.46,1.33-1.46,1.48-1.52h5.27
			c0,0.04,1.28-0.05,1.28,1.52c0,0-4.76,10-4.75,10l-0.01,0.42c0,0,4.75,11.55,4.75,11.59c0,0,0.45,1.06-0.86,1.48H64.5
			c-1.1,0-1.47-1.41-1.52-1.48c-0.03-0.06-3.05-7.23-3.05-7.23c0,0.13,0,7.23,0,7.23c-0.04,0,0.23,1.48-1.52,1.48l-4.65,0
			c-1.53,0-1.53-1.47-1.52-1.48V57.05C52.25,55.54,53.66,55.54,53.66,55.54L53.66,55.54z"/>
		<path class="st1" d="M90.67,79.07c-0.01,0-4.21-8.95-4.25-8.97l-0.01-0.55c5.59-5.93,1.88-11.42,0.42-12.5
			c-2.1-1.54-3.34-1.5-3.35-1.54h-9.97c0,0-1.43,0.07-1.43,1.61l0.01,21.93c0,0.02,0.02,1.46,1.62,1.46h4.57
			c1.52,0,1.56-1.44,1.58-1.44c0.01,0,0-5.42,0-5.42s2.37,5.42,2.39,5.41c0.02,0.02,0.45,1.46,1.4,1.46h6.28
			C91.05,79.96,90.67,79.07,90.67,79.07z M80.41,65.62c0,0,0.03,0-0.54,0c-0.04-0.15,0.02-4.76,0-4.91c0.01-0.01,0.56-0.01,0.57,0
			C83.58,63.17,80.42,65.61,80.41,65.62z"/>
		<path class="st1" d="M109.85,79.07c0.02,0-5.1-21.77-5.1-22.01c-0.55-1.54-1.52-1.51-1.52-1.54h-5.26c0,0-0.83,0-1.33,1.49
			c-0.02,0.06-5.23,22.07-5.23,22.07c0,0-0.41,1.44,0.91,1.44c0,0,4.92,0,5,0c0.95,0,1.32-1.44,1.31-1.44
			c-0.01,0,0.41-1.48,0.41-1.51c0.04-0.34,0.36-0.26,0.36-0.29h3.1c0.34,0,0.41,0.39,0.41,0.39c-0.01-0.01,0.43,1.43,0.42,1.41
			c0,0,0.31,1.44,1.1,1.44c0,0,4.37,0,4.44,0C110.11,80.51,109.85,79.07,109.85,79.07z M99.89,71.33c-0.02,0.02,0.78-4.67,0.75-4.82
			c0.01-0.01,0.05-0.01,0.05,0c0.72,3.46,0.92,4.8,0.91,4.82C101.39,72.13,100.06,72.09,99.89,71.33z"/>
		<path class="st1" d="M125.92,55.51c0,0.03,1.52,0.06,1.52,1.69c0,0.19,0,15.44,0,15.44c0,7.86-8.33,7.87-8.33,7.87
			c-0.01,0.03-0.42,0-1.1,0c0,0-8.16-0.01-8.16-8.21l0-15.25c0-1.54,1.31-1.5,1.31-1.54h4.78c0,0.04,1.35,0,1.35,1.54
			c0,0-0.04,16.17,0,16.18c0,1.18,2.62,1.14,2.62,0.08V57.06c0-1.54,1.23-1.54,1.23-1.54C121.15,55.48,125.92,55.51,125.92,55.51
			L125.92,55.51z"/>
		<path class="st1" d="M136.22,55.35h1.57c1.18,0.06,2.1,0.26,2.1,0.26c2.64,0.66,2.81,2.46,2.83,2.53v3.4c0,0-0.01,0.7-0.37,0.83
			c0,0-0.29,0.18-0.82-0.04c-0.1-0.04-0.63-0.3-0.75-0.41c-0.01-0.01-0.6-0.43-1.47-0.57c0,0-1.58-0.32-2.16,0.74
			c-0.06,0.11-0.14,0.31-0.13,0.6c0,0-0.03,0.32,0.25,0.84c0.25,0.44,0.75,0.89,0.9,0.99c0.12,0.08,1.46,1.15,2.33,1.66
			c0.84,0.49,1.38,1.05,1.46,1.12c0.45,0.39,0.85,0.97,0.9,1.04c0.52,0.7,0.8,1.47,0.8,1.48c0.51,1.27,0.45,1.89,0.49,1.9v1.24
			c0,7.56-8.04,7.52-8.05,7.56l-1.06,0c-1.74-0.03-3.1-0.46-3.1-0.46c-1.05-0.37-1.33-0.64-1.34-0.64
			c-0.46-0.24-0.63-0.47-0.75-0.57c-0.11-0.15-0.11-0.15-0.17-0.26c-0.11-0.21-0.14-0.3-0.19-0.48c0,0-0.2-0.38-0.2-1.12V73.2
			c0.08-1.44,1.62-0.56,1.78-0.45c0.52,0.36,0.69,0.44,1.17,0.64c1.24,0.53,2.23,0.7,3.42,0.53c-0.01,0,0.9-0.2,1.03-0.92
			c0,0,0.25-0.95-1.34-1.84c0,0-2.01-1.48-2.09-1.54c-0.31-0.25-2.09-1.54-2.56-2.12c-0.05-0.06-0.46-0.42-0.89-1.22
			c-0.12-0.25-0.51-1.14-0.51-2.62v-2.03c0,0,0.02-0.98,0.56-2.18c0.04-0.09,0.42-0.85,0.85-1.43c0.11-0.15,0.84-1.01,1.73-1.57
			c0.09-0.06,1.21-0.88,2.81-1.09L136.22,55.35L136.22,55.35z"/>
		<path class="st1" d="M147.33,55.83h9.03c1.83,0,1.9,1.72,1.94,1.72v2.63c0,1.65-1.9,1.65-1.9,1.65h-2.24
			c-0.02,0-1.07-0.07-1.07,1.03v1.21c0,0.02,0.02,0.84,1.05,0.84l2.18,0c1.94,0,1.92,1.78,1.96,1.79v2.37c0,0-0.07,1.78-1.96,1.78
			h-2.19c-0.01,0-1.14-0.04-1.14,1.24v1.11c0.01,0.01-0.12,0.91,1.13,0.91h2.2c1.95,0,1.96,2.2,1.95,2.2c0,0,0.03,2.31-0.01,2.32
			c0,0-0.05,1.88-1.93,1.88h-9.02c-1.8,0-1.83-2.12-1.8-2.12l0.01-20.67C145.53,55.87,147.31,55.83,147.33,55.83L147.33,55.83z"/>
	</g>
</g>
</svg>
