<?xml version="1.0" encoding="utf-8"?>
<!-- Generator: Adobe Illustrator 25.1.0, SVG Export Plug-In . SVG Version: 6.00 Build 0)  -->
<svg version="1.1" id="Warstwa_1" xmlns="http://www.w3.org/2000/svg" xmlns:xlink="http://www.w3.org/1999/xlink" x="0px" y="0px"
	 viewBox="0 0 210 120" style="enable-background:new 0 0 210 120;" xml:space="preserve">
<style type="text/css">
	.st0{fill-rule:evenodd;clip-rule:evenodd;fill:#9F9F9F;}
	.st1{fill:none;stroke:#9F9F9F;stroke-width:1.1055;stroke-miterlimit:10;}
</style>
<g>
	<path class="st0" d="M43,50.63c0-1.13-0.27-1.95-0.8-2.43c-0.54-0.48-1.53-0.73-2.96-0.73l0-1.07l15.58,0.01l-0.01,1.07
		c-1.51,0-2.54,0.13-3.1,0.42c-0.91,0.45-1.38,1.41-1.39,2.89L50.3,70.29l0,0.72c0.03,0.45,0.08,0.9,0.14,1.34
		c0.06,0.44,0.18,0.74,0.35,0.91c0.57,0.45,1.72,0.68,3.44,0.68c1.48,0,2.81-0.14,3.99-0.42c1.17-0.29,2.25-0.84,3.24-1.67
		c0.71-0.57,1.35-1.25,1.91-2.02c0.69-0.97,1.43-2.39,2.24-4.28l1.34,0l-0.06,9.52L39.21,75.3l0-1.07c1.54,0,2.54-0.24,3.03-0.74
		c0.5-0.5,0.74-1.38,0.74-2.62L43,50.63z"/>
	<path class="st0" d="M137.62,47.19c1.57,0,2.62,0.2,3.15,0.61c0.54,0.39,0.82,1.22,0.82,2.48l-0.02,20.8
		c0,1.25-0.48,2.08-1.45,2.48c-0.18,0.09-1.02,0.21-2.53,0.39l0,1.07l15.17,0.01l0.01-1.07c-1.47,0-2.5-0.24-3.09-0.71
		c-0.59-0.47-0.88-1.19-0.87-2.16l0.01-8.6l1.25-0.99l8.54,10.19c0.48,0.55,0.71,1,0.72,1.33c0,0.62-1.2,0.94-3.6,0.95l0,1.06
		l15.07,0.02l0.01-1.07c-0.81,0-1.43-0.19-1.88-0.56c-0.52-0.55-1.01-1.09-1.48-1.63l-12.49-14.9c1.77-1.72,3.52-3.44,5.29-5.19
		c1.68-1.59,3.1-2.71,4.26-3.34c1.43-0.76,3.03-1.14,4.79-1.14l0-1.07l-13.04-0.01l0,1.07c0.65,0,1.29,0.04,1.94,0.11
		c0.65,0.07,1.14,0.19,1.45,0.37c0.37,0.11,0.54,0.42,0.55,0.94c0,0.37-0.23,0.84-0.68,1.41l-10.71,10.18l0.01-9.58
		c0-1.37,0.35-2.31,1.06-2.82c0.56-0.41,1.52-0.6,2.9-0.6l0-1.07l-15.17-0.01L137.62,47.19z"/>
	<path class="st0" d="M87.8,75.33l0.25,0l0-1.07c-0.08-0.01-0.17-0.02-0.25-0.03V75.33L87.8,75.33z M87.8,62.35
		c0.35-0.01,0.68-0.02,0.97-0.03c1.16-0.05,2.14-0.17,2.94-0.36c2.16-0.46,3.92-1.28,5.3-2.48c1.56-1.37,2.34-3.01,2.35-4.92
		c0-2.68-1.05-4.74-3.19-6.17c-1.93-1.31-4.72-1.96-8.37-1.97h0v1.75c0.05,0.01,0.09,0.01,0.13,0.02c0.26,0.05,0.5,0.13,0.71,0.21
		c0.11,0.05,0.22,0.1,0.33,0.16c0.98,0.5,1.64,1.38,2.01,2.64c0.23,0.82,0.35,1.96,0.35,3.44c0,1.09-0.12,2.05-0.35,2.86
		c-0.05,0.19-0.12,0.38-0.19,0.55c-0.32,0.78-0.78,1.36-1.39,1.72c-0.47,0.29-1,0.51-1.6,0.66V62.35z M76.85,70.24
		c-0.01,1.61-0.25,2.66-0.72,3.11c-0.48,0.44-1.49,0.75-3.05,0.89l0,1.07l14.72,0.01v-1.1c-1.45-0.2-2.38-0.42-2.77-0.69
		c-0.65-0.43-0.95-1.33-0.96-2.7l0.01-8.46c1.46,0,2.7-0.01,3.71-0.03v-1.92c-0.14,0.03-0.27,0.06-0.41,0.09
		c-0.68,0.12-1.61,0.19-2.79,0.21l-0.32,0l0.01-0.32l0-10.98c0-0.19,0.04-0.37,0.1-0.53c0.07-0.18,0.19-0.34,0.34-0.46
		c0.32-0.25,0.82-0.36,1.48-0.36c0.66,0,1.19,0.03,1.6,0.1v-1.75l-14.7-0.01l0,1.07c1.58,0,2.64,0.34,3.18,1.02
		c0.38,0.52,0.58,1.47,0.58,2.86L76.85,70.24z"/>
	<path class="st0" d="M100.52,56.62c-0.09,0.43-0.16,0.86-0.22,1.28c-0.16,0.89-0.23,1.59-0.23,2.15c0,3.42,1.06,6.5,3.17,9.24
		c1.99,2.6,4.45,4.28,7.37,5.06c2.06,0.46,4.11,0.69,6.13,0.69c3.99,0,9.25-3.35,11.72-2.59l0.01-5.95c0-0.48,0.07-0.99,0.2-1.52
		c0.13-0.51,0.37-0.9,0.69-1.15c0.33-0.24,0.63-0.4,0.91-0.47c0.27-0.07,0.96-0.17,2.07-0.28l0-1.07l-15.47-0.02l-0.01,1.07l0.49,0
		c1.05,0,1.86,0.1,2.43,0.29c0.95,0.35,1.48,0.94,1.57,1.78c0,0.2,0.04,0.58,0.1,1.14c0,0.53-0.01,1.07-0.01,1.62l0,2.69
		c0,1-0.38,1.74-1.1,2.24c-0.72,0.49-1.89,0.73-3.46,0.73c-1.94-0.01-3.49-0.43-4.7-1.31c-0.82-0.62-1.64-1.66-2.45-3.07
		c-0.5-1-0.91-2.39-1.24-4.18c-0.33-1.78-0.48-3.59-0.48-5.41l0.21-2.47c0.01-3.83,0.85-6.7,2.53-8.6c1.4-1.6,3.27-2.38,5.6-2.38
		c1.99,0,3.97,0.79,5.92,2.35c1.96,1.57,3.49,3.66,4.6,6.31l1.11,0l0.01-10.13l-1.22,0l-0.96,2.64c-3.11-1.27-6.76-2.82-10.08-2.65
		c-3.75,0-7.03,1.11-9.83,3.31C103.09,50.21,101.3,53.09,100.52,56.62z"/>
	<polyline class="st1" points="70.18,62.45 70.18,83.36 134.16,83.36 134.16,62.43 	"/>
	<polyline class="st1" points="70.05,57.55 70.05,36.64 134.03,36.64 134.03,57.57 	"/>
</g>
</svg>
