<?xml version="1.0" encoding="utf-8"?>
<!-- Generator: Adobe Illustrator 19.0.0, SVG Export Plug-In . SVG Version: 6.00 Build 0)  -->
<svg version="1.1" id="Warstwa_1" xmlns="http://www.w3.org/2000/svg" xmlns:xlink="http://www.w3.org/1999/xlink" x="0px" y="0px"
	 viewBox="0 0 210.1 120.1" style="enable-background:new 0 0 210.1 120.1;" xml:space="preserve">
<style type="text/css">
	.st0{fill:#FEFEFE;}
	.st1{fill:#A4A4A4;}
	.st2{fill:#A3A3A3;}
	.st3{fill:#A2A2A2;}
	.st4{fill:#A1A1A1;}
	.st5{fill:#FBFBFB;}
	.st6{fill:#A0A0A0;}
	.st7{fill:#A8A8A8;}
	.st8{fill:#B0B0B0;}
	.st9{fill:#ADADAD;}
	.st10{fill:#A9A9A9;}
	.st11{fill:#C1C1C1;}
	.st12{fill:#CFCFCF;}
	.st13{fill:#B4B4B4;}
	.st14{fill:#BBBBBB;}
	.st15{fill:#B7B7B7;}
	.st16{fill:#C0C0C0;}
	.st17{fill:#B8B8B8;}
	.st18{fill:#C8C8C8;}
	.st19{fill:#A7A7A7;}
	.st20{fill:#9E9E9E;}
	.st21{fill:#B6B6B6;}
	.st22{fill:#BFBFBF;}
	.st23{fill:#9F9F9F;}
	.st24{fill:#A6A6A6;}
	.st25{fill:#B5B5B5;}
	.st26{fill:#EEEEEE;}
	.st27{fill:#AEAEAE;}
	.st28{fill:#AFAFAF;}
	.st29{fill:#C7C7C7;}
	.st30{fill:#D7D7D7;}
	.st31{fill:#ABABAB;}
	.st32{fill:#BCBCBC;}
	.st33{fill:#B2B2B2;}
	.st34{fill:#D1D1D1;}
	.st35{fill:#CACACA;}
	.st36{fill:#D9D9D9;}
	.st37{fill:#ACACAC;}
	.st38{fill:#D0D0D0;}
	.st39{fill:#D5D5D5;}
	.st40{fill:#A5A5A5;}
	.st41{fill:#FDFDFD;}
	.st42{fill:#FCFCFC;}
	.st43{fill:#F7F7F7;}
	.st44{fill:#F9F9F9;}
	.st45{fill:#9D9D9D;}
	.st46{fill:#E0E0E0;}
	.st47{fill:#B1B1B1;}
	.st48{fill:#D8D8D8;}
</style>
<g>
	<path class="st0" d="M1.5,119.6c0-40,0-80,0-120c70,0,140,0,210,0c0,40,0,80,0,120C141.5,119.6,71.5,119.6,1.5,119.6z M95.5,74.6
		c0,0.3,0,0.7,0,1c-0.3,0-0.7,0-1,0c-0.3,0.1-0.6,0.2-0.8,0.3c0.3,0.2,0.6,0.4,0.8,0.7c0.8-0.2,1.9,0.5,2-1
		C96.1,75.2,95.8,74.9,95.5,74.6c0-0.3,0-0.7,0-1c0.3-0.2,0.6-0.3,1.7-0.8c-1.7,0-2.6,0-4.1,0c0.7,0.9,1.1,1.3,1.5,1.8
		C94.8,74.6,95.1,74.6,95.5,74.6z M148.5,72.6c-0.3,0.3-0.7,0.7-1,1c0.1,1,0.2,1.9,0.3,2.9c0.2,0,0.5,0,0.7-0.1c0-0.9,0-1.9,0-2.8
		c0.3-0.1,0.6-0.2,0.8-0.3C149,73,148.7,72.8,148.5,72.6z M141.5,75.6c-0.1-1-0.2-1.9-0.3-2.9c-0.2,0-0.5,0-0.7,0.1
		c0,0.9,0,1.9,0,2.8c0.3,0.3,0.7,0.7,1,1c0.3-0.1,0.6-0.2,0.8-0.3C142,76,141.7,75.8,141.5,75.6z M162.5,42.6c-0.3,0.3-0.7,0.7-1,1
		c-0.3,0.3-0.7,0.7-1,1c-0.3,0.3-0.7,0.7-1,1c-0.7,0.5-1.3,1-2.4,1.7c1.6,0.1,2.8,1.1,3.4-0.7c0.3-0.3,0.7-0.7,1-1
		c0.3-0.3,0.7-0.7,1-1c0.3-0.3,0.7-0.7,1-1c0.3,0,0.7,0,1,0c0.3-0.3,0.7-0.7,1-1c0.3,0,0.7,0,1,0c0.8-0.2,1.9,0.5,2-1
		c0.7,0,1.3,0,2,0c0,0.6,0,1.2,0,1.9c1.8,0,3.2,0,4.7,0c0.4-0.6,0.8-1.3,1.3-1.9c0.7,0,1.3,0,2,0c0.1,1.5,1.2,0.8,2,1
		c1.3,0.7,2.7,1.3,4,2c0.3,0.3,0.7,0.7,1,1c0.7,0.7,1.3,1.3,2,2c0.3,0.3,0.7,0.7,1,1c0.8,1.9,2.1,3.5,2.2,5.7c0,0.1,0.5,0.2,0.8,0.3
		c-0.1,0.6-0.2,1.7-0.3,1.7c-2.2,0.1-1.5,2.4-2.8,3.2c0.9,1.5,1.2,3.2,3,3.6c-0.3,1.5-0.6,3-0.9,4.5c-0.7,1-1.3,2-2,3
		c-0.3,0.3-0.7,0.7-1,1c-0.3,0.3-0.7,0.7-1,1c-0.3,0.3-0.7,0.7-1,1c-0.3,0.3-0.7,0.7-1,1c-1.3,0.7-2.7,1.3-4,2
		c-0.6,0.1-1.2,0.2-1.8,0.3c-0.7,0.2-1.5,0.4-2.2,0.7c-0.4-0.6-0.8-1.3-1.2-1.8c-1.7,0-3.2,0-4.6,0c-0.2,0.8-0.4,1.3-0.6,1.8
		c-0.7,0-1.2,0-1.6,0c-0.1-0.3-0.2-0.8-0.3-0.8c-2.2-0.1-3.8-1.4-5.7-2.2c-0.3-0.3-0.7-0.7-1-1c-0.6-1.9-1.8-0.8-3.4-0.7
		c1.1,0.8,1.7,1.2,2.4,1.7c0.3,0.3,0.7,0.7,1,1c0.9,2.3,2.9,2.6,5,3c0.3,0,0.7,0,1,0c0.1,1.5,1.2,0.8,2,1c0.5,0.7,1,1.3,1.4,1.8
		c1.9,0,3.6,0,5,0c0.7-0.8,1.1-1.3,1.5-1.8c1.7-0.5,3.3-1,5-1.5c0,0,0-0.3,0-0.5c1.6,0.2,2.6-0.4,3-2c0.3-0.3,0.7-0.7,1-1
		c0.3-0.3,0.7-0.7,1-1c0.3-0.3,0.7-0.7,1-1c0.3-0.3,0.7-0.7,1-1c0.7-1,1.3-2,2-3c1.9-0.5,0.6-2,1-3c1.5-0.1,0.8-1.2,1-2
		c0.7-0.5,1.3-1,1.8-1.4c0-1.9,0-3.6,0-5c-0.8-0.7-1.3-1.1-1.8-1.5c-0.2-0.8,0.5-1.9-1-2c0-0.3,0-0.7,0-1c-0.4-2.1-0.7-4.1-3-5
		c-0.3-0.3-0.7-0.7-1-1c-0.7-0.7-1.3-1.3-2-2c-0.3-0.3-0.7-0.7-1-1c-0.4-1.6-1.4-2.2-3-2c-0.3-0.3-0.7-0.7-1-1
		c-0.6-0.1-1.2-0.2-1.8-0.3c-0.7-0.2-1.5-0.4-2.2-0.7c-0.5-0.7-1-1.3-1.4-1.8c-1.9,0-3.6,0-5,0c-0.7,0.8-1.1,1.3-1.5,1.8
		c-0.7,0.2-1.4,0.5-2.2,0.7c-0.6,0.2-1.2,0.2-1.8,0.3c-0.3,0.3-0.7,0.7-1,1c-0.3,0-0.7,0-1,0C163.1,41.9,162.8,42.2,162.5,42.6z
		 M117.5,76.6c0.3-0.3,0.7-0.7,1-1c0.3-0.3,0.7-0.5,1-0.8c-0.3-0.4-0.7-0.8-1-1.2c-0.3-0.3-0.7-0.7-1-1c-0.6,0-1.2,0-1.7,0
		c-0.2,0.5-0.3,0.6-0.3,0.8c0.4,1.1-0.9,2.7,1,3.2C116.8,76.6,117.1,76.6,117.5,76.6z M104.5,75.6c-0.3-0.3-0.7-0.7-1-1
		c-0.3-0.3-0.7-0.7-1-1c0.6-0.1,1.3-0.2,1.9-0.3c0-0.2,0-0.4-0.1-0.7c-0.6,0-1.2,0-1.8,0c-0.3,0.3-0.7,0.7-1,1
		c-0.3,0.3-0.7,0.5-1,0.8c0.3,0.4,0.7,0.8,1,1.2c0.1,1.5,1.2,0.8,2,1C103.8,76.2,104.1,75.9,104.5,75.6z M91.5,75.6
		c-0.3,0-0.7,0-1,0c0-0.3,0-0.7,0-1c0.3-0.3,0.7-0.7,1-1c0.3-0.1,0.6-0.2,0.8-0.3c-0.3-0.2-0.6-0.4-0.8-0.7c-0.3,0-0.7,0-1,0
		c-0.3,0.3-0.7,0.7-1,1c0,0.7,0,1.3,0,2c0.3,0.3,0.7,0.7,1,1c0.3,0,0.7,0,1,0c0.3-0.1,0.6-0.2,0.8-0.3C92,76,91.7,75.8,91.5,75.6z
		 M113.5,73.6c0.3-0.1,0.6-0.2,0.8-0.3c-0.3-0.2-0.6-0.4-0.8-0.7c-0.3,0-0.7,0-1,0c-0.3,0.3-0.7,0.7-1,1c0,0.7,0,1.3,0,2
		c1.3,1.2,1.3,1.2,3.2,0c-1,0-1.6,0-2.2,0c0-0.3,0-0.7,0-1C112.8,74.2,113.1,73.9,113.5,73.6z M85.5,72.6c-0.3,0.3-0.7,0.7-1,1
		c0.4,1-0.9,2.5,1,3c0.8-0.2,1.9,0.5,2-1c0.3-0.3,0.7-0.5,1-0.8c-0.3-0.4-0.7-0.8-1-1.2C87.4,72.1,86.2,72.7,85.5,72.6z M152.5,72.6
		c-0.3,0.3-0.7,0.7-1,1c0,0.7,0,1.3,0,2c0.2,1.4,1,1.2,2.1,0.5c-0.5-0.2-0.8-0.4-1.1-0.5c0-0.3,0-0.7,0-1c0.3-0.3,0.7-0.7,1-1
		c0.3-0.1,0.6-0.2,0.8-0.3c-0.3-0.2-0.6-0.4-0.8-0.7C153.1,72.6,152.8,72.6,152.5,72.6z M130.5,73.6c-0.3-0.3-0.7-0.7-1-1
		c-0.6,0-1.2,0-1.7,0c-0.2,0.5-0.3,0.6-0.3,0.8c0.4,1.1-0.9,2.7,1,3.2c0.8-0.2,1.9,0.5,2-1c0.3-0.3,0.7-0.5,1-0.8
		C131.1,74.4,130.8,74,130.5,73.6z M135.5,73.6c-0.3-0.3-0.7-0.7-1-1c-0.6,0-1.2,0-2,0c0.1,1.5,0.2,2.7,0.3,4.9
		c0.5-1.4,0.6-1.6,0.7-1.9c0.3,0,0.7,0,1,0c0.2,0.3,0.3,0.6,1,2C135.5,75.5,135.5,74.5,135.5,73.6z M107.5,73.6
		c-0.1-0.3-0.2-0.6-0.3-0.8c-0.2,0.3-0.4,0.6-0.7,0.8c0.1,1,0.2,2,0.2,3c0.8-0.4,1.3-0.7,1.8-1c0.2,0.3,0.3,0.6,1,2c0-1.8,0-2.4,0-3
		c-0.1-0.7-0.2-1.3-0.3-2C108.5,73,108,73.3,107.5,73.6z M51.5,62.6c1.3,1,2.5,2,3.4,2.7c1.4,0.5,2.4,0.8,3.2,1
		c1.5-0.6,3-1.2,4.4-1.7c0.7-0.3,1.3-0.7,2-1c1.6,1.4,3.7,1.9,5.6,2.9c5.7-2.4,6.4-3.6,6.2-9.5c-1.9-1.8-3.6-4.2-7-4.4
		c-1.5,0.9-3.2,2-4.8,3.1c-0.7-0.3-1.3-0.7-2-1c-1.5-0.7-3-1.5-4.6-2.2c-1.9,0.9-3.6,1.8-5.8,2.9c-0.2,2-0.4,4.1-0.6,6.3
		c-0.3,0-0.7,0-1,0c-1.6-1.4-1.5-3.5-2.5-6.2c-1-1.9-3.9-1.9-6.3-3c-3.3,1.4-6,3.3-6.1,7.1c-0.1,4.1,2.9,5.9,6.5,6.9
		c1.4-0.5,2.9-1.1,4.5-1.8c1.5,1.2,3.1,1.4,4.6,0.7c-0.3-1-0.5-1.9-0.7-2.7C50.8,62.6,51.1,62.6,51.5,62.6z M132.6,65.5
		c0-3.2,0-6,0-8.8c0.2,0.2,0.5,0.4,0.7,0.6c0.2-0.6,0.3-1.2,0.5-1.9c0.8,0.8,1.1,1.1,1.8,1.8c0,2.6,0,5.5,0,8.2c1.5,0,2.6,0,3.9,0
		c0-3,0-5.7,0-8.6c0.9-0.5,1.6-1,2.4-1.4c2.5,3.2,1.1,6.8,1.8,10.1c0.9,0,1.7,0,2.6,0c0-2.9,0-5.7,0-8.6c-1.6-2.5-1.6-2.5-4.9-4.3
		c-1.2,0.6-2.4,1.2-3.4,1.7c-1.3-0.7-2.6-1.3-3.6-1.8c-4.3,1.7-5.7,3.3-5.8,7c-0.1,2,0,3.9,0,6C129.9,65.5,131,65.5,132.6,65.5z
		 M20.5,65.5c0-2.9,0-5.9,0-8.8c0.3,0.2,0.6,0.4,0.9,0.6c0.1-0.6,0.3-1.3,0.4-1.9c0.8,0.8,1.1,1.1,1.5,1.5c0.5,2.8-0.2,5.8,0.3,8.5
		c1.5,0,2.6,0,3.9,0c0-3,0-5.8,0-8.4c0.7-0.6,1.3-1.1,2-1.7c3.1,3.1,1.4,6.9,2.2,10.2c0.9,0,1.7,0,2.6,0c0-2.9,0-5.7,0-8.5
		c-0.2-3.1-2.9-3.4-5-4.4c-1.2,0.6-2.4,1.2-3.3,1.7c-1.5-0.7-2.7-1.3-4.1-2c-1.6,0.9-3.1,1.7-4.3,2.3c0,3.8,0,7.3,0,10.8
		C18.5,65.5,19.3,65.5,20.5,65.5z M80.4,65.6c3.4-0.2,6.4,0.5,8.7-1.3c0.5-0.9,0.8-1.6,1.3-2.6c0-1.6,0-3.6,0-5.4
		c-1.4-2.7-4.1-3.3-6.5-3.6c-2.2-0.3-4,1.7-5,2.8c-2.4,6-1.2,11.5-1.4,16.9c1.2,0,1.9,0,2.9,0C80.4,70.2,80.4,68,80.4,65.6z M164,66
		c-2.2-3-1.7-6-3.5-8c0.1-3.9-2.9-4.9-5.6-5.3c-3-0.4-5.2,1.4-6.5,4.4c-1.6,3.7-0.1,7.3,3.9,8.4c0.7,0.2,1.3,0.5,1.7,0.7
		c1.6-0.6,3.1-1.1,4.3-1.6C159.9,65.1,161.4,65.5,164,66z M117,55.7c-3.8-3.8-6.7-4.3-10.1-1.1c-3.6,3.4-3.3,6.5,0.8,10.6
		c1.4,0.4,2.4,0.7,3.4,1c1.4-0.5,3-1.1,4.6-1.7c1.5,1.2,3,1.3,4.5,0.8C119.1,62.1,118.2,59.2,117,55.7z M95.4,65.5
		c0-2.6,0-5.2,0-7.3c1.9-2.3,3.4-2,5.1,0.1c0,2.2,0,4.7,0,7.1c1.1,0,1.9,0,3,0c-0.5-4.1,1.1-8.3-2.7-11.9c-1.5,0-3.4,0-5.5,0
		c0-2.1,0-3.9,0-5.9c-1.1,0.1-2,0.1-2.9,0.2c0,6,0,11.6,0,17.3c0,0.1,0.2,0.2,0.4,0.5C93.5,65.5,94.3,65.5,95.4,65.5z M127.3,56.4
		c0-1.5,0-2.6,0-3.8c-2.1,1.3-4.9,1.1-5.7,3.4c0,3.3,0,6.3,0,9.5c1,0,1.9-0.1,3-0.1c0-3.1,0-5.9,0-8.7
		C125.5,56.6,126.3,56.5,127.3,56.4z M123.6,77.3c0.9-2.1,1.4-3.2,1.8-4.3c0-0.1-0.2-0.2-0.4-0.4c-0.4,0-0.8,0-1.4,0
		C123.6,74,123.6,75.2,123.6,77.3z M99.2,72.6c-0.2,0-0.3,0-0.5,0c0,1.3,0,2.7,0,4c0.2,0,0.3,0,0.5,0C99.2,75.2,99.2,73.9,99.2,72.6
		z M145.3,72.8c-0.3,0-0.6,0-0.9,0c0.1,1.2,0.2,2.4,0.2,3.7c0.2,0,0.4,0,0.6,0C145.3,75.2,145.3,74,145.3,72.8z"/>
	<path class="st1" d="M132.6,65.5c-1.6,0-2.8,0-4.2,0c0-2-0.1-4,0-6c0.2-3.8,1.5-5.4,5.8-7c1.1,0.5,2.3,1.2,3.6,1.8
		c1-0.5,2.2-1.1,3.4-1.7c3.4,1.8,3.4,1.8,4.9,4.3c0,3,0,5.7,0,8.6c-0.9,0-1.7,0-2.6,0c-0.7-3.3,0.7-6.9-1.8-10.1
		c-0.7,0.4-1.5,0.9-2.4,1.4c0,2.9,0,5.6,0,8.6c-1.3,0-2.4,0-3.9,0c0-2.7,0-5.6,0-8.2c-0.7-0.7-1.1-1.1-1.8-1.8
		c-0.2,0.6-0.3,1.2-0.5,1.9c-0.2-0.2-0.5-0.4-0.7-0.6C132.6,59.5,132.6,62.3,132.6,65.5z"/>
	<path class="st1" d="M20.5,65.5c-1.1,0-1.9,0-2.9,0c0-3.5,0-7,0-10.8c1.3-0.7,2.7-1.5,4.3-2.3c1.4,0.7,2.6,1.3,4.1,2
		c0.9-0.5,2.1-1.1,3.3-1.7c2.1,1,4.8,1.3,5,4.4c0,2.8,0,5.6,0,8.5c-0.9,0-1.7,0-2.6,0c-0.9-3.2,0.9-7.1-2.2-10.2
		c-0.6,0.5-1.2,1-2,1.7c0,2.7,0,5.5,0,8.4c-1.3,0-2.4,0-3.9,0c-0.6-2.7,0.1-5.6-0.3-8.5c-0.4-0.4-0.7-0.7-1.5-1.5
		c-0.1,0.6-0.3,1.2-0.4,1.9c-0.3-0.2-0.6-0.4-0.9-0.6C20.5,59.6,20.5,62.5,20.5,65.5z"/>
	<path class="st2" d="M80.4,65.6c0,2.4,0,4.5,0,6.8c-1,0-1.7,0-2.9,0c0.2-5.4-1-10.9,1.4-16.9c1-1.2,2.7-3.1,5-2.8
		c2.4,0.3,5.1,0.8,6.5,3.6c0,1.8,0,3.8,0,5.4c-0.5,1-0.8,1.7-1.3,2.6C86.8,66.1,83.8,65.5,80.4,65.6z M86.1,62.6
		c2-3.3,1.9-4.2,0-5.8c-1.6,0-3.1,0-4.6,0c0,1.6,0,3,0,4.4c0.5,0.5,1,1,1.4,1.4C83.9,62.6,84.9,62.6,86.1,62.6z"/>
	<path class="st3" d="M164,66c-2.6-0.6-4.1-0.9-5.8-1.3c-1.2,0.4-2.6,1-4.3,1.6c-0.4-0.2-1.1-0.5-1.7-0.7c-4-1.2-5.5-4.7-3.9-8.4
		c1.3-3,3.5-4.8,6.5-4.4c2.7,0.3,5.8,1.4,5.6,5.3C162.3,60.1,161.7,63,164,66z M157.4,58.7c-1-1.3-1.8-2.3-2.7-3.5
		c-2,1.3-4,2.1-4.2,4.6c0.5,1,1.1,1.9,1.6,2.8c1.8-0.3,4,0.7,5.4-1.7C157.4,60.1,157.4,59.1,157.4,58.7z"/>
	<path class="st2" d="M117,55.7c1.2,3.5,2.2,6.4,3.2,9.6c-1.5,0.6-3,0.5-4.5-0.8c-1.6,0.6-3.2,1.2-4.6,1.7c-1-0.3-2-0.6-3.4-1
		c-4.1-4.2-4.4-7.2-0.8-10.6C110.3,51.4,113.2,51.9,117,55.7z M108.8,62.3c1.2,0,2.7,0,4.4,0c1.7-1,1.2-2.7,0.4-3.5
		c-0.6-1.2-1.1-2.4-1.6-3.5c-1.5,0.8-2.5,1.2-3.3,1.6c-0.5,1-0.9,1.8-1.3,2.6C107.8,60.3,108.2,61.2,108.8,62.3z"/>
	<path class="st3" d="M50.5,62.6c0.2,0.9,0.4,1.7,0.7,2.7c-1.5,0.6-3.1,0.5-4.6-0.7c-1.6,0.6-3.2,1.2-4.5,1.8
		c-3.6-0.9-6.6-2.7-6.5-6.9c0.1-3.7,2.8-5.7,6.1-7.1c2.4,1.1,5.3,1.1,6.3,3c0.9,2.7,0.9,4.7,2.5,6.2C50.5,61.9,50.5,62.2,50.5,62.6z
		 M39.7,56.9c-0.4,0.7-0.9,1.8-1.3,2.7c0.5,1.1,1,1.9,1.4,2.8c1.3,0,2.8,0,4.7,0c0.4-1.4,0.8-2.8,0.9-3.2c-1.2-1.8-1.9-2.9-2.6-3.9
		C41.7,56,40.9,56.4,39.7,56.9z"/>
	<path class="st4" d="M95.4,65.5c-1.1,0-1.9,0-2.6,0c-0.2-0.2-0.4-0.3-0.4-0.5c0-5.6,0-11.3,0-17.3c0.9-0.1,1.8-0.1,2.9-0.2
		c0,2,0,3.8,0,5.9c2.1,0,4,0,5.5,0c3.8,3.7,2.2,7.9,2.7,11.9c-1.1,0-1.8,0-3,0c0-2.4,0-5,0-7.1c-1.8-2.1-3.3-2.4-5.1-0.1
		C95.4,60.3,95.4,62.9,95.4,65.5z"/>
	<path class="st4" d="M64.5,55.6c1.7-1.1,3.4-2.1,4.8-3.1c3.4,0.3,5.1,2.6,7,4.4c0.2,6-0.5,7.1-6.2,9.5c-1.9-0.9-4-1.4-5.6-2.9
		C62.9,60.9,62.9,58.2,64.5,55.6z M72.1,62.5c1.4-2,1.8-4,0.7-5.1c-0.7-0.4-1.7-1-2.8-1.6c-1.1,0.7-2.3,1.4-3.4,2.1
		c-0.1,1.8-0.6,3.5,1.4,4.7C69.2,62.5,70.7,62.5,72.1,62.5z"/>
	<path class="st3" d="M62.5,64.6c-1.4,0.6-2.9,1.1-4.4,1.7c-0.8-0.3-1.8-0.6-3.2-1c-0.9-0.7-2.1-1.7-3.4-2.7c0-0.3,0-0.7,0-1
		c0.2-2.2,0.4-4.3,0.6-6.3c2.2-1.1,4-2,5.8-2.9c1.6,0.8,3.1,1.5,4.6,2.2c-0.6,0.7-1.1,1.7-1.9,1.9c-0.9,0.2-1.9-0.4-2.9-0.6
		c-1.1,0.6-2.1,1.3-3.2,1.9c0,1.9-0.6,3.8,1.8,4.8c1.5,0,3.1,0,4.8,0C61.6,63.3,62,63.9,62.5,64.6z"/>
	<path class="st5" d="M62.5,64.6c-0.4-0.7-0.9-1.3-1.3-2c-1.7,0-3.4,0-4.8,0c-2.4-1-1.8-2.9-1.8-4.8c1-0.6,2.1-1.3,3.2-1.9
		c1,0.2,2,0.8,2.9,0.6c0.7-0.2,1.3-1.2,1.9-1.9c0.7,0.3,1.3,0.7,2,1c-1.5,2.7-1.5,5.3,0,8C63.8,63.9,63.1,64.2,62.5,64.6z"/>
	<path class="st4" d="M190.5,67.6c0.3-1.5,0.6-3,0.9-4.5c-1.8-0.4-2.2-2.1-3-3.6c1.3-0.8,0.6-3.1,2.8-3.2c0.1,0,0.2-1.1,0.3-1.7
		c0.2-0.8-0.5-1.9,1-2c0,0.3,0,0.7,0,1c0.2,0.8-0.5,1.9,1,2c0.5,0.4,1,0.9,1.8,1.5c0,1.4,0,3.2,0,5c-0.5,0.4-1.2,0.9-1.8,1.4
		c-1.5,0.1-0.8,1.2-1,2c-0.4,1,0.9,2.5-1,3C191.1,68.2,190.8,67.9,190.5,67.6z"/>
	<path class="st2" d="M127.3,56.4c-1,0.1-1.7,0.2-2.7,0.3c0,2.8,0,5.6,0,8.7c-1.1,0-2,0.1-3,0.1c0-3.2,0-6.2,0-9.5
		c0.8-2.4,3.6-2.1,5.7-3.4C127.3,53.8,127.3,54.9,127.3,56.4z"/>
	<path class="st6" d="M177.5,79.6c-0.4,0.5-0.9,1-1.5,1.8c-1.4,0-3.2,0-5,0c-0.4-0.5-0.9-1.2-1.4-1.8c-0.1-1.5-1.2-0.8-2-1
		c-0.3,0-0.7,0-1,0c0.1-1.5,1.2-0.8,2-1c0.5,0,1,0,1.6,0c0.2-0.5,0.3-1,0.6-1.8c1.4,0,2.9,0,4.6,0c0.4,0.5,0.8,1.2,1.2,1.8
		C176.8,78.2,177.1,78.9,177.5,79.6z"/>
	<path class="st6" d="M169.5,39.6c0.4-0.5,0.9-1,1.5-1.8c1.4,0,3.2,0,5,0c0.4,0.5,0.9,1.2,1.4,1.8c-0.3,0.7-0.7,1.3-1,2
		c-0.4,0.6-0.9,1.3-1.3,1.9c-1.5,0-3,0-4.7,0c0-0.7,0-1.3,0-1.9C170.1,40.9,169.8,40.2,169.5,39.6z"/>
	<path class="st7" d="M176.5,41.6c0.3-0.7,0.7-1.3,1-2c0.7,0.2,1.4,0.5,2.2,0.7c0.6,0.2,1.2,0.2,1.8,0.3c0.3,0.3,0.7,0.7,1,1
		c1.6-0.2,2.6,0.4,3,2c-0.3,0.3-0.7,0.7-1,1c-1.3-0.7-2.7-1.3-4-2c-0.1-1.5-1.2-0.8-2-1C177.8,41.6,177.1,41.6,176.5,41.6z"/>
	<path class="st8" d="M192.5,52.6c-1.5,0.1-0.8,1.2-1,2c-0.3-0.1-0.8-0.2-0.8-0.3c-0.1-2.2-1.4-3.8-2.2-5.7c0.3-0.3,0.7-0.7,1-1
		C191.7,48.5,192.1,50.5,192.5,52.6z"/>
	<path class="st9" d="M168.5,77.6c-0.8,0.2-1.9-0.5-2,1c-2.1-0.4-4.1-0.7-5-3c0.3-0.3,0.7-0.7,1-1c1.9,0.8,3.5,2.1,5.7,2.2
		C168.3,76.8,168.3,77.3,168.5,77.6z"/>
	<path class="st7" d="M169.5,39.6c0.3,0.7,0.7,1.3,1,2c-0.7,0-1.3,0-2,0c-0.8,0.2-1.9-0.5-2,1c-0.3,0-0.7,0-1,0
		c-0.3,0.3-0.7,0.7-1,1c-0.3,0-0.7,0-1,0s-0.7,0-1,0c0-0.3,0-0.7,0-1c0.3-0.3,0.7-0.7,1-1c0.3,0,0.7,0,1,0c0.3-0.3,0.7-0.7,1-1
		c0.6-0.1,1.2-0.2,1.8-0.3C168,40.1,168.7,39.8,169.5,39.6z"/>
	<path class="st10" d="M177.5,79.6c-0.3-0.7-0.7-1.3-1-2c0.7-0.2,1.4-0.5,2.2-0.7c0.6-0.2,1.2-0.2,1.8-0.3c0.1,1.5,1.2,0.8,2,1
		c0,0.2,0,0.4,0,0.5C180.8,78.6,179.1,79.1,177.5,79.6z"/>
	<path class="st7" d="M182.5,77.6c-0.8-0.2-1.9,0.5-2-1c1.3-0.7,2.7-1.3,4-2c0.3,0.3,0.7,0.7,1,1C185.1,77.2,184,77.7,182.5,77.6z"
		/>
	<path class="st8" d="M108.5,75.6c-0.5,0.3-1,0.6-1.8,1c-0.1-1-0.2-2-0.2-3c0.3,0,0.7,0,1,0c0.5-0.3,1-0.6,1.7-1
		c0.1,0.6,0.2,1.3,0.3,2C109.1,74.9,108.8,75.2,108.5,75.6z"/>
	<path class="st10" d="M190.5,67.6c0.3,0.3,0.7,0.7,1,1c-0.7,1-1.3,2-2,3c-0.3-0.3-0.7-0.7-1-1C189.1,69.6,189.8,68.6,190.5,67.6z"
		/>
	<path class="st11" d="M116.5,76.6c-1.9-0.6-0.6-2.2-1-3.2c0-0.1,0.1-0.3,0.3-0.8c0.5,0,1.1,0,1.7,0c0,0.3,0,0.7,0,1
		c-1.5,0.1-0.8,1.2-1,2C116.5,75.9,116.5,76.2,116.5,76.6z"/>
	<path class="st12" d="M101.5,75.6c-0.3-0.4-0.7-0.8-1-1.2c0.3-0.3,0.7-0.5,1-0.8c0.3,0,0.7,0,1,0c0.3,0.3,0.7,0.7,1,1
		c0,0.3,0,0.7,0,1C102.8,75.6,102.1,75.6,101.5,75.6z"/>
	<path class="st13" d="M123.6,77.3c0-2.1,0-3.4,0-4.7c0.6,0,1,0,1.4,0c0.2,0.2,0.4,0.3,0.4,0.4C125,74.2,124.5,75.3,123.6,77.3z"/>
	<path class="st14" d="M128.5,76.6c-1.9-0.6-0.6-2.2-1-3.2c0-0.1,0.1-0.3,0.3-0.8c0.5,0,1.1,0,1.7,0c0,0.3,0,0.7,0,1
		c-1.5,0.1-0.8,1.2-1,2C128.5,75.9,128.5,76.2,128.5,76.6z"/>
	<path class="st14" d="M133.5,75.6c-0.1,0.3-0.2,0.5-0.7,1.9c-0.1-2.2-0.2-3.4-0.3-4.9c0.9,0,1.4,0,2,0c0,0.3,0,0.7,0,1
		C133,73.7,133.6,74.8,133.5,75.6z"/>
	<path class="st6" d="M187.5,47.6c-0.7-0.7-1.3-1.3-2-2c0.3-0.3,0.7-0.7,1-1c0.7,0.7,1.3,1.3,2,2C188.1,46.9,187.8,47.2,187.5,47.6z
		"/>
	<path class="st15" d="M99.2,72.6c0,1.3,0,2.7,0,4c-0.2,0-0.3,0-0.5,0c0-1.3,0-2.7,0-4C98.9,72.6,99,72.6,99.2,72.6z"/>
	<path class="st16" d="M94.5,74.6c-0.4-0.5-0.8-1-1.5-1.8c1.5,0,2.4,0,4.1,0c-1,0.5-1.4,0.7-1.7,0.8C95.1,73.9,94.8,74.2,94.5,74.6z
		"/>
	<path class="st17" d="M145.3,72.8c0,1.2,0,2.4,0,3.7c-0.2,0-0.4,0-0.6,0c-0.1-1.2-0.2-2.4-0.2-3.7C144.7,72.8,145,72.8,145.3,72.8z
		"/>
	<path class="st2" d="M160.5,46.6c-0.6,1.9-1.8,0.8-3.4,0.7c1.1-0.8,1.7-1.2,2.4-1.7C159.8,45.9,160.1,46.2,160.5,46.6z"/>
	<path class="st6" d="M160.5,74.6c-0.7-0.5-1.3-1-2.4-1.7c1.6-0.1,2.8-1.1,3.4,0.7C161.1,73.9,160.8,74.2,160.5,74.6z"/>
	<path class="st18" d="M140.5,75.6c0-0.9,0-1.9,0-2.8c0.2,0,0.5,0,0.7-0.1c0.1,1,0.2,1.9,0.3,2.9C141.1,75.6,140.8,75.6,140.5,75.6z
		"/>
	<path class="st19" d="M85.5,76.6c-1.9-0.5-0.6-2-1-3c0.3,0,0.7,0,1,0c0,0.7,0,1.3,0,2C85.5,75.9,85.5,76.2,85.5,76.6z"/>
	<path class="st20" d="M185.5,73.6c0.3-0.3,0.7-0.7,1-1c0.3,0.3,0.7,0.7,1,1c-0.3,0.3-0.7,0.7-1,1C186.1,74.2,185.8,73.9,185.5,73.6
		z"/>
	<path class="st21" d="M135.5,73.6c0,0.9,0,1.9,0,4c-0.7-1.4-0.8-1.7-1-2c0-0.7,0-1.3,0-2C134.8,73.6,135.1,73.6,135.5,73.6z"/>
	<path class="st22" d="M148.5,73.6c0,0.9,0,1.9,0,2.8c-0.2,0-0.5,0-0.7,0.1c-0.1-1-0.2-1.9-0.3-2.9
		C147.8,73.6,148.1,73.6,148.5,73.6z"/>
	<path class="st23" d="M160.5,46.6c-0.3-0.3-0.7-0.7-1-1c0.3-0.3,0.7-0.7,1-1c0.3,0.3,0.7,0.7,1,1C161.1,45.9,160.8,46.2,160.5,46.6
		z"/>
	<path class="st20" d="M162.5,74.6c-0.3,0.3-0.7,0.7-1,1c-0.3-0.3-0.7-0.7-1-1c0.3-0.3,0.7-0.7,1-1
		C161.8,73.9,162.1,74.2,162.5,74.6z"/>
	<path class="st20" d="M186.5,72.6c0.3-0.3,0.7-0.7,1-1c0.3,0.3,0.7,0.7,1,1c-0.3,0.3-0.7,0.7-1,1C187.1,73.2,186.8,72.9,186.5,72.6
		z"/>
	<path class="st20" d="M187.5,47.6c0.3-0.3,0.7-0.7,1-1c0.3,0.3,0.7,0.7,1,1c-0.3,0.3-0.7,0.7-1,1C188.1,48.2,187.8,47.9,187.5,47.6
		z"/>
	<path class="st23" d="M188.5,72.6c-0.3-0.3-0.7-0.7-1-1c0.3-0.3,0.7-0.7,1-1c0.3,0.3,0.7,0.7,1,1C189.1,71.9,188.8,72.2,188.5,72.6
		z"/>
	<path class="st23" d="M185.5,73.6c0.3,0.3,0.7,0.7,1,1c-0.3,0.3-0.7,0.7-1,1c-0.3-0.3-0.7-0.7-1-1
		C184.8,74.2,185.1,73.9,185.5,73.6z"/>
	<path class="st20" d="M186.5,44.6c-0.3,0.3-0.7,0.7-1,1c-0.3-0.3-0.7-0.7-1-1c0.3-0.3,0.7-0.7,1-1
		C185.8,43.9,186.1,44.2,186.5,44.6z"/>
	<path class="st20" d="M161.5,45.6c-0.3-0.3-0.7-0.7-1-1c0.3-0.3,0.7-0.7,1-1c0.3,0.3,0.7,0.7,1,1C162.1,44.9,161.8,45.2,161.5,45.6
		z"/>
	<path class="st24" d="M112.5,75.6c0.6,0,1.2,0,2.2,0c-1.9,1.2-1.9,1.2-3.2,0C111.8,75.6,112.1,75.6,112.5,75.6z"/>
	<path class="st8" d="M85.5,76.6c0-0.3,0-0.7,0-1c0.3,0,0.7,0,1,0s0.7,0,1,0C87.4,77.1,86.2,76.4,85.5,76.6z"/>
	<path class="st25" d="M96.5,75.6c-0.1,1.5-1.2,0.8-2,1c0-0.3,0-0.7,0-1c0.3,0,0.7,0,1,0S96.1,75.6,96.5,75.6z"/>
	<path class="st26" d="M87.5,73.6c0.3,0.4,0.7,0.8,1,1.2c-0.3,0.3-0.7,0.5-1,0.8c0-0.3,0-0.7,0-1S87.5,73.9,87.5,73.6z"/>
	<path class="st27" d="M101.5,75.6c0.7,0,1.3,0,2,0c0,0.3,0,0.7,0,1C102.7,76.4,101.5,77.1,101.5,75.6z"/>
	<path class="st10" d="M89.5,75.6c0-0.7,0-1.3,0-2c0.3,0,0.7,0,1,0c0,0.3,0,0.7,0,1s0,0.7,0,1C90.1,75.6,89.8,75.6,89.5,75.6z"/>
	<path class="st28" d="M128.5,76.6c0-0.3,0-0.7,0-1c0.3,0,0.7,0,1,0s0.7,0,1,0C130.4,77.1,129.2,76.4,128.5,76.6z"/>
	<path class="st10" d="M152.5,75.6c0.3,0.1,0.6,0.3,1.1,0.5c-1.1,0.6-1.9,0.9-2.1-0.5C151.8,75.6,152.1,75.6,152.5,75.6z"/>
	<path class="st7" d="M112.5,75.6c-0.3,0-0.7,0-1,0c0-0.7,0-1.3,0-2c0.3,0,0.7,0,1,0c0,0.3,0,0.7,0,1S112.5,75.2,112.5,75.6z"/>
	<path class="st7" d="M167.5,78.6c0.8,0.2,1.9-0.5,2,1C168.7,79.4,167.5,80.1,167.5,78.6z"/>
	<path class="st29" d="M118.5,73.6c0.3,0.4,0.7,0.8,1,1.2c-0.3,0.3-0.7,0.5-1,0.8C118.5,74.9,118.5,74.2,118.5,73.6z"/>
	<path class="st24" d="M108.5,75.6c0.3-0.3,0.7-0.7,1-1c0,0.6,0,1.2,0,3C108.8,76.2,108.6,75.9,108.5,75.6z"/>
	<path class="st12" d="M130.5,73.6c0.3,0.4,0.7,0.8,1,1.2c-0.3,0.3-0.7,0.5-1,0.8C130.5,74.9,130.5,74.2,130.5,73.6z"/>
	<path class="st30" d="M134.5,73.6c0,0.7,0,1.3,0,2c-0.3,0-0.7,0-1,0C133.6,74.8,133,73.7,134.5,73.6z"/>
	<path class="st9" d="M152.5,75.6c-0.3,0-0.7,0-1,0c0-0.7,0-1.3,0-2c0.3,0,0.7,0,1,0c0,0.3,0,0.7,0,1S152.5,75.2,152.5,75.6z"/>
	<path class="st31" d="M193.5,55.6c-1.5-0.1-0.8-1.2-1-2C193.9,53.7,193.3,54.8,193.5,55.6z"/>
	<path class="st32" d="M152.5,74.6c0-0.3,0-0.7,0-1s0-0.7,0-1c0.3,0,0.7,0,1,0c0,0.3,0,0.7,0,1C153.1,73.9,152.8,74.2,152.5,74.6z"
		/>
	<path class="st33" d="M166.5,42.6c0.1-1.5,1.2-0.8,2-1C168.4,43.1,167.2,42.4,166.5,42.6z"/>
	<path class="st31" d="M192.5,65.6c0.2-0.8-0.5-1.9,1-2C193.3,64.3,193.9,65.5,192.5,65.6z"/>
	<path class="st33" d="M178.5,41.6c0.8,0.2,1.9-0.5,2,1C179.7,42.4,178.5,43.1,178.5,41.6z"/>
	<path class="st25" d="M85.5,72.6c0.8,0.2,1.9-0.5,2,1c-0.3,0-0.7,0-1,0s-0.7,0-1,0C85.5,73.2,85.5,72.9,85.5,72.6z"/>
	<path class="st14" d="M90.5,74.6c0-0.3,0-0.7,0-1s0-0.7,0-1c0.3,0,0.7,0,1,0c0,0.3,0,0.7,0,1C91.1,73.9,90.8,74.2,90.5,74.6z"/>
	<path class="st32" d="M112.5,74.6c0-0.3,0-0.7,0-1s0-0.7,0-1c0.3,0,0.7,0,1,0c0,0.3,0,0.7,0,1C113.1,73.9,112.8,74.2,112.5,74.6z"
		/>
	<path class="st16" d="M102.5,72.6c0.6,0,1.2,0,1.8,0c0,0.2,0,0.4,0.1,0.7c-0.6,0.1-1.3,0.2-1.9,0.3
		C102.5,73.2,102.5,72.9,102.5,72.6z"/>
	<path class="st19" d="M89.5,75.6c0.3,0,0.7,0,1,0c0,0.3,0,0.7,0,1C90.1,76.2,89.8,75.9,89.5,75.6z"/>
	<path class="st21" d="M90.5,76.6c0-0.3,0-0.7,0-1c0.3,0,0.7,0,1,0c0,0.3,0,0.7,0,1C91.1,76.6,90.8,76.6,90.5,76.6z"/>
	<path class="st34" d="M91.5,76.6c0-0.3,0-0.7,0-1c0.3,0.2,0.6,0.4,0.8,0.7C92,76.4,91.7,76.5,91.5,76.6z"/>
	<path class="st35" d="M94.5,75.6c0,0.3,0,0.7,0,1c-0.3-0.2-0.6-0.4-0.8-0.7C93.9,75.8,94.2,75.7,94.5,75.6z"/>
	<path class="st33" d="M162.5,43.6c0.3,0,0.7,0,1,0c-0.3,0.3-0.7,0.7-1,1C162.5,44.2,162.5,43.9,162.5,43.6z"/>
	<path class="st9" d="M103.5,76.6c0-0.3,0-0.7,0-1c0.3,0,0.7,0,1,0C104.1,75.9,103.8,76.2,103.5,76.6z"/>
	<path class="st33" d="M164.5,43.6c0.3-0.3,0.7-0.7,1-1C165.1,42.9,164.8,43.2,164.5,43.6z"/>
	<path class="st8" d="M116.5,76.6c0-0.3,0-0.7,0-1c0.3,0,0.7,0,1,0c0,0.3,0,0.7,0,1C117.1,76.6,116.8,76.6,116.5,76.6z"/>
	<path class="st25" d="M117.5,76.6c0-0.3,0-0.7,0-1c0.3,0,0.7,0,1,0C118.1,75.9,117.8,76.2,117.5,76.6z"/>
	<path class="st33" d="M162.5,42.6c0,0.3,0,0.7,0,1c-0.3,0-0.7,0-1,0C161.8,43.2,162.1,42.9,162.5,42.6z"/>
	<path class="st9" d="M140.5,75.6c0.3,0,0.7,0,1,0c0,0.3,0,0.7,0,1C141.1,76.2,140.8,75.9,140.5,75.6z"/>
	<path class="st21" d="M141.5,76.6c0-0.3,0-0.7,0-1c0.3,0.2,0.6,0.4,0.8,0.7C142,76.4,141.7,76.5,141.5,76.6z"/>
	<path class="st33" d="M163.5,41.6c-0.3,0.3-0.7,0.7-1,1C162.8,42.2,163.1,41.9,163.5,41.6z"/>
	<path class="st33" d="M182.5,41.6c-0.3-0.3-0.7-0.7-1-1C181.8,40.9,182.1,41.2,182.5,41.6z"/>
	<path class="st33" d="M165.5,40.6c-0.3,0.3-0.7,0.7-1,1C164.8,41.2,165.1,40.9,165.5,40.6z"/>
	<path class="st36" d="M153.5,73.6c0-0.3,0-0.7,0-1c0.3,0.2,0.6,0.4,0.8,0.7C154,73.4,153.7,73.5,153.5,73.6z"/>
	<path class="st19" d="M152.5,72.6c0,0.3,0,0.7,0,1c-0.3,0-0.7,0-1,0C151.8,73.2,152.1,72.9,152.5,72.6z"/>
	<path class="st32" d="M148.5,72.6c0.3,0.2,0.6,0.4,0.8,0.7c-0.3,0.1-0.6,0.2-0.8,0.3C148.5,73.2,148.5,72.9,148.5,72.6z"/>
	<path class="st37" d="M148.5,72.6c0,0.3,0,0.7,0,1c-0.3,0-0.7,0-1,0C147.8,73.2,148.1,72.9,148.5,72.6z"/>
	<path class="st37" d="M135.5,73.6c-0.3,0-0.7,0-1,0c0-0.3,0-0.7,0-1C134.8,72.9,135.1,73.2,135.5,73.6z"/>
	<path class="st27" d="M129.5,73.6c0-0.3,0-0.7,0-1c0.3,0.3,0.7,0.7,1,1C130.1,73.6,129.8,73.6,129.5,73.6z"/>
	<path class="st14" d="M94.5,74.6c0.3-0.3,0.7-0.7,1-1c0,0.3,0,0.7,0,1C95.1,74.6,94.8,74.6,94.5,74.6z"/>
	<path class="st31" d="M117.5,73.6c0-0.3,0-0.7,0-1c0.3,0.3,0.7,0.7,1,1C118.1,73.6,117.8,73.6,117.5,73.6z"/>
	<path class="st38" d="M113.5,73.6c0-0.3,0-0.7,0-1c0.3,0.2,0.6,0.4,0.8,0.7C114,73.4,113.7,73.5,113.5,73.6z"/>
	<path class="st2" d="M112.5,72.6c0,0.3,0,0.7,0,1c-0.3,0-0.7,0-1,0C111.8,73.2,112.1,72.9,112.5,72.6z"/>
	<path class="st2" d="M107.5,73.6c-0.3,0-0.7,0-1,0c0.2-0.3,0.4-0.6,0.7-0.8C107.2,73,107.3,73.3,107.5,73.6z"/>
	<path class="st8" d="M102.5,72.6c0,0.3,0,0.7,0,1c-0.3,0-0.7,0-1,0C101.8,73.2,102.1,72.9,102.5,72.6z"/>
	<path class="st39" d="M91.5,73.6c0-0.3,0-0.7,0-1c0.3,0.2,0.6,0.4,0.8,0.7C92,73.4,91.7,73.5,91.5,73.6z"/>
	<path class="st40" d="M90.5,72.6c0,0.3,0,0.7,0,1c-0.3,0-0.7,0-1,0C89.8,73.2,90.1,72.9,90.5,72.6z"/>
	<path class="st1" d="M85.5,72.6c0,0.3,0,0.7,0,1c-0.3,0-0.7,0-1,0C84.8,73.2,85.1,72.9,85.5,72.6z"/>
	<path class="st37" d="M96.5,75.6c-0.3,0-0.7,0-1,0c0-0.3,0-0.7,0-1C95.8,74.9,96.1,75.2,96.5,75.6z"/>
	<path class="st7" d="M104.5,75.6c-0.3,0-0.7,0-1,0c0-0.3,0-0.7,0-1C103.8,74.9,104.1,75.2,104.5,75.6z"/>
	<path class="st0" d="M51.5,61.6c0,0.3,0,0.7,0,1c-0.3,0-0.7,0-1,0c0-0.3,0-0.7,0-1C50.8,61.6,51.1,61.6,51.5,61.6z"/>
	<path class="st41" d="M86.1,62.6c-1.2,0-2.1,0-3.1,0c-0.5-0.5-0.9-0.9-1.4-1.4c0-1.4,0-2.8,0-4.4c1.5,0,2.9,0,4.6,0
		C88,58.4,88.1,59.3,86.1,62.6z"/>
	<path class="st5" d="M157.4,58.7c0,0.4,0,1.4,0,2.2c-1.3,2.4-3.5,1.4-5.4,1.7c-0.6-1-1.1-1.9-1.6-2.8c0.2-2.5,2.3-3.3,4.2-4.6
		C155.6,56.4,156.4,57.4,157.4,58.7z"/>
	<path class="st42" d="M108.8,62.3c-0.6-1.2-1-2-1.4-2.8c0.4-0.9,0.8-1.7,1.3-2.6c0.8-0.4,1.7-0.9,3.3-1.6c0.5,1.1,1.1,2.3,1.6,3.5
		c0.8,0.8,1.3,2.6-0.4,3.5C111.6,62.3,110,62.3,108.8,62.3z"/>
	<path class="st43" d="M39.7,56.9c1.1-0.6,1.9-1,3.1-1.5c0.7,1,1.4,2.1,2.6,3.9c-0.1,0.4-0.5,1.9-0.9,3.2c-2,0-3.4,0-4.7,0
		c-0.5-0.9-0.9-1.8-1.4-2.8C38.8,58.8,39.4,57.7,39.7,56.9z"/>
	<path class="st44" d="M72.1,62.5c-1.4,0-2.8,0-4.1,0c-2-1.2-1.5-2.9-1.4-4.7c1.1-0.7,2.3-1.4,3.4-2.1c1.1,0.6,2.1,1.3,2.8,1.6
		C73.9,58.5,73.5,60.5,72.1,62.5z"/>
	<path class="st45" d="M185.5,43.6c-0.3,0.3-0.7,0.7-1,1C184.8,44.2,185.1,43.9,185.5,43.6z"/>
	<path class="st45" d="M188.5,48.6c0.3-0.3,0.7-0.7,1-1C189.1,47.9,188.8,48.2,188.5,48.6z"/>
	<path class="st46" d="M117.5,73.6c0.3,0,0.7,0,1,0c0,0.7,0,1.3,0,2c-0.3,0-0.7,0-1,0s-0.7,0-1,0C116.6,74.8,116,73.7,117.5,73.6z"
		/>
	<path class="st42" d="M129.5,75.6c-0.3,0-0.7,0-1,0c0.2-0.8-0.5-1.9,1-2C129.5,74.2,129.5,74.9,129.5,75.6z"/>
	<path class="st20" d="M161.5,73.6c-0.3,0.3-0.7,0.7-1,1C160.8,74.2,161.1,73.9,161.5,73.6z"/>
	<path class="st0" d="M85.5,73.6c0.3,0,0.7,0,1,0c0,0.3,0,0.7,0,1s0,0.7,0,1c-0.3,0-0.7,0-1,0C85.5,74.9,85.5,74.2,85.5,73.6z"/>
	<path class="st45" d="M186.5,72.6c0.3,0.3,0.7,0.7,1,1C187.1,73.2,186.8,72.9,186.5,72.6z"/>
	<path class="st20" d="M161.5,43.6c0.3,0,0.7,0,1,0c0,0.3,0,0.7,0,1C162.1,44.2,161.8,43.9,161.5,43.6z"/>
	<path class="st37" d="M86.5,75.6c0-0.3,0-0.7,0-1c0.3,0,0.7,0,1,0c0,0.3,0,0.7,0,1C87.1,75.6,86.8,75.6,86.5,75.6z"/>
	<path class="st47" d="M87.5,74.6c-0.3,0-0.7,0-1,0c0-0.3,0-0.7,0-1c0.3,0,0.7,0,1,0C87.5,73.9,87.5,74.2,87.5,74.6z"/>
	<path class="st48" d="M129.5,75.6c0-0.7,0-1.3,0-2c0.3,0,0.7,0,1,0c0,0.7,0,1.3,0,2C130.1,75.6,129.8,75.6,129.5,75.6z"/>
</g>
</svg>
