<?xml version="1.0" encoding="utf-8"?>
<!-- Generator: Adobe Illustrator 25.1.0, SVG Export Plug-In . SVG Version: 6.00 Build 0)  -->
<svg version="1.1" id="Warstwa_1" xmlns="http://www.w3.org/2000/svg" xmlns:xlink="http://www.w3.org/1999/xlink" x="0px" y="0px"
	 viewBox="0 0 210 120" style="enable-background:new 0 0 210 120;" xml:space="preserve">
<style type="text/css">
	.st0{fill:#9F9F9F;}
</style>
<g>
	<path class="st0" d="M163.17,49.57c-4.95,0-8.85,3.82-8.85,8.81c0,4.99,3.89,8.81,8.85,8.81c4.95,0,8.84-3.82,8.84-8.81
		C172.01,53.39,168.12,49.57,163.17,49.57 M163.17,52.61c3.15,0,5.66,2.62,5.66,5.77c0,3.11-2.51,5.77-5.66,5.77
		c-3.15,0-5.66-2.65-5.66-5.77C157.51,55.23,160.02,52.61,163.17,52.61"/>
	<path class="st0" d="M122.24,64.15c-3.15,0-5.66-2.65-5.66-5.77c0-3.15,2.51-5.77,5.66-5.77c3.15,0,5.66,2.62,5.66,5.77
		C127.9,61.49,125.39,64.15,122.24,64.15 M127.84,50.06v1.89h-0.12c-1.29-1.45-3.39-2.38-5.58-2.38c-4.96,0-8.85,3.82-8.85,8.81
		c0,4.99,3.89,8.81,8.85,8.81c2.19,0,4.29-0.96,5.58-2.39h0.12v1.85h3.18v-16.6H127.84z"/>
	<path class="st0" d="M142.7,64.15c-3.15,0-5.66-2.65-5.66-5.77c0-3.15,2.51-5.77,5.66-5.77c3.15,0,5.67,2.62,5.67,5.77
		C148.37,61.49,145.85,64.15,142.7,64.15 M148.3,42.12v9.83h-0.12c-1.29-1.45-3.39-2.38-5.57-2.38c-4.95,0-8.84,3.82-8.84,8.81
		c0,4.99,3.89,8.81,8.84,8.81c2.19,0,4.29-0.96,5.57-2.38h0.12v1.85h3.19V42.12H148.3z"/>
	<path class="st0" d="M110.42,62.33c-1.04,1.12-2.49,1.84-4.12,1.84c-3.15,0-5.66-2.66-5.66-5.77c0-3.15,2.51-5.77,5.66-5.77
		c1.64,0,3.09,0.71,4.12,1.83l1.54-2.9c-1.52-1.24-3.48-1.98-5.66-1.98c-4.96,0-8.84,3.82-8.84,8.81c0,4.99,3.89,8.81,8.84,8.81
		c2.17,0,4.14-0.74,5.66-1.98L110.42,62.33z"/>
	<path class="st0" d="M86.17,49.57c-4.95,0-8.84,3.82-8.84,8.81c0,4.99,3.89,8.81,8.84,8.81c4.95,0,8.85-3.82,8.85-8.81
		C95.01,53.39,91.12,49.57,86.17,49.57 M86.17,52.61c3.15,0,5.67,2.62,5.67,5.77c0,3.11-2.51,5.77-5.67,5.77
		c-3.15,0-5.66-2.65-5.66-5.77C80.51,55.23,83.02,52.61,86.17,52.61"/>
	<polygon class="st0" points="86.85,71.6 84.77,71.6 84.77,70.87 89.81,70.87 89.81,71.6 87.73,71.6 87.73,77.76 86.85,77.76 	"/>
	<polygon class="st0" points="93.04,70.87 97.01,70.87 97.01,71.6 93.91,71.6 93.91,73.77 96.53,73.77 96.53,74.51 93.91,74.51 
		93.91,77.01 97.12,77.01 97.12,77.76 93.04,77.76 	"/>
	<path class="st0" d="M100.17,74.31c0-0.55,0.08-1.05,0.23-1.49c0.15-0.44,0.37-0.82,0.64-1.12c0.27-0.31,0.6-0.54,0.97-0.71
		c0.37-0.16,0.78-0.25,1.22-0.25c0.42,0,0.79,0.09,1.1,0.26c0.31,0.17,0.57,0.37,0.78,0.59l-0.49,0.56c-0.18-0.2-0.38-0.35-0.6-0.47
		c-0.22-0.12-0.48-0.17-0.77-0.17c-0.33,0-0.63,0.07-0.89,0.19c-0.27,0.13-0.49,0.31-0.68,0.56c-0.19,0.24-0.34,0.53-0.44,0.88
		c-0.1,0.34-0.16,0.73-0.16,1.15c0,0.43,0.05,0.82,0.15,1.17c0.1,0.35,0.24,0.64,0.43,0.89c0.18,0.25,0.4,0.43,0.67,0.57
		c0.26,0.13,0.56,0.2,0.89,0.2c0.34,0,0.63-0.07,0.88-0.2c0.25-0.13,0.48-0.32,0.71-0.57l0.49,0.54c-0.27,0.31-0.58,0.56-0.92,0.73
		c-0.34,0.18-0.73,0.26-1.18,0.26c-0.43,0-0.83-0.08-1.2-0.24c-0.37-0.16-0.69-0.39-0.96-0.7c-0.27-0.3-0.48-0.68-0.63-1.12
		C100.25,75.38,100.17,74.87,100.17,74.31"/>
	<polygon class="st0" points="108.56,70.87 109.43,70.87 109.43,73.76 112.63,73.76 112.63,70.87 113.52,70.87 113.52,77.76 
		112.63,77.76 112.63,74.51 109.43,74.51 109.43,77.76 108.56,77.76 	"/>
	<path class="st0" d="M117.4,70.87h0.9l2.49,4.33l0.75,1.43h0.04c-0.02-0.35-0.04-0.71-0.07-1.09c-0.02-0.37-0.04-0.74-0.04-1.11
		v-3.56h0.83v6.89h-0.9l-2.5-4.34L118.16,72h-0.04c0.03,0.35,0.05,0.71,0.08,1.07c0.02,0.36,0.04,0.72,0.04,1.09v3.6h-0.83V70.87z"
		/>
	<path class="st0" d="M128.73,77.88c-0.43,0-0.83-0.08-1.19-0.25c-0.36-0.17-0.67-0.41-0.93-0.72c-0.26-0.31-0.46-0.69-0.6-1.13
		c-0.14-0.44-0.22-0.94-0.22-1.5c0-0.55,0.07-1.05,0.22-1.49c0.14-0.44,0.34-0.81,0.6-1.11c0.26-0.3,0.57-0.54,0.93-0.7
		c0.36-0.16,0.76-0.24,1.19-0.24c0.43,0,0.83,0.08,1.19,0.25c0.36,0.16,0.67,0.4,0.93,0.7c0.26,0.3,0.47,0.68,0.61,1.11
		c0.14,0.44,0.22,0.93,0.22,1.48c0,0.55-0.07,1.05-0.22,1.5c-0.14,0.44-0.35,0.82-0.61,1.13c-0.26,0.31-0.57,0.55-0.93,0.72
		C129.56,77.8,129.16,77.88,128.73,77.88 M128.73,77.12c0.31,0,0.59-0.07,0.83-0.2c0.25-0.13,0.46-0.32,0.64-0.57
		c0.18-0.25,0.32-0.55,0.41-0.89c0.1-0.35,0.15-0.74,0.15-1.17c0-0.43-0.05-0.81-0.15-1.15c-0.1-0.34-0.24-0.63-0.41-0.87
		c-0.18-0.24-0.39-0.42-0.64-0.55c-0.25-0.13-0.53-0.19-0.83-0.19s-0.59,0.07-0.84,0.19c-0.25,0.13-0.46,0.31-0.64,0.55
		c-0.18,0.24-0.32,0.53-0.41,0.87c-0.1,0.34-0.15,0.73-0.15,1.15c0,0.43,0.05,0.82,0.15,1.17c0.1,0.35,0.24,0.64,0.41,0.89
		c0.18,0.25,0.39,0.44,0.64,0.57C128.14,77.05,128.42,77.12,128.73,77.12"/>
	<polygon class="st0" points="135.16,70.87 136.03,70.87 136.03,77.01 139.04,77.01 139.04,77.76 135.16,77.76 	"/>
	<path class="st0" d="M144.52,77.88c-0.43,0-0.83-0.08-1.19-0.25c-0.36-0.17-0.67-0.41-0.93-0.72c-0.26-0.31-0.46-0.69-0.6-1.13
		c-0.14-0.44-0.22-0.94-0.22-1.5c0-0.55,0.07-1.05,0.22-1.49c0.14-0.44,0.34-0.81,0.6-1.11c0.26-0.3,0.57-0.54,0.93-0.7
		c0.36-0.16,0.76-0.24,1.19-0.24c0.43,0,0.83,0.08,1.19,0.25c0.36,0.16,0.67,0.4,0.93,0.7c0.26,0.3,0.47,0.68,0.61,1.11
		c0.14,0.44,0.22,0.93,0.22,1.48c0,0.55-0.07,1.05-0.22,1.5c-0.14,0.44-0.35,0.82-0.61,1.13c-0.26,0.31-0.57,0.55-0.93,0.72
		C145.35,77.8,144.96,77.88,144.52,77.88 M144.52,77.12c0.31,0,0.59-0.07,0.83-0.2c0.25-0.13,0.46-0.32,0.64-0.57
		c0.18-0.25,0.32-0.55,0.41-0.89c0.1-0.35,0.15-0.74,0.15-1.17c0-0.43-0.05-0.81-0.15-1.15c-0.1-0.34-0.24-0.63-0.41-0.87
		c-0.18-0.24-0.39-0.42-0.64-0.55c-0.25-0.13-0.53-0.19-0.83-0.19c-0.31,0-0.59,0.07-0.83,0.19c-0.25,0.13-0.46,0.31-0.64,0.55
		c-0.18,0.24-0.32,0.53-0.41,0.87c-0.1,0.34-0.15,0.73-0.15,1.15c0,0.43,0.05,0.82,0.15,1.17c0.1,0.35,0.24,0.64,0.41,0.89
		c0.18,0.25,0.39,0.44,0.64,0.57C143.94,77.05,144.22,77.12,144.52,77.12"/>
	<path class="st0" d="M150.55,74.31c0-0.55,0.08-1.05,0.24-1.49c0.16-0.44,0.38-0.82,0.66-1.12c0.28-0.31,0.62-0.54,1-0.71
		c0.39-0.16,0.81-0.25,1.27-0.25c0.48,0,0.87,0.09,1.19,0.27c0.32,0.18,0.58,0.37,0.78,0.58l-0.49,0.56
		c-0.18-0.18-0.38-0.33-0.6-0.46c-0.23-0.12-0.52-0.18-0.87-0.18c-0.35,0-0.67,0.07-0.95,0.19c-0.28,0.13-0.52,0.31-0.71,0.56
		c-0.2,0.24-0.35,0.53-0.46,0.88c-0.11,0.34-0.16,0.73-0.16,1.15c0,0.43,0.05,0.82,0.15,1.17c0.1,0.35,0.25,0.64,0.44,0.89
		c0.19,0.25,0.43,0.43,0.71,0.57c0.28,0.13,0.61,0.2,0.98,0.2c0.24,0,0.48-0.04,0.7-0.11c0.22-0.07,0.4-0.17,0.54-0.3v-1.8h-1.46
		v-0.72h2.26v2.9c-0.22,0.23-0.52,0.42-0.89,0.57c-0.37,0.15-0.78,0.23-1.24,0.23c-0.45,0-0.87-0.08-1.25-0.24
		c-0.38-0.16-0.7-0.39-0.98-0.7c-0.27-0.3-0.49-0.68-0.64-1.12C150.63,75.38,150.55,74.87,150.55,74.31"/>
	<path class="st0" d="M160.54,75.09l-2.07-4.22h0.93l0.89,1.94c0.11,0.25,0.22,0.5,0.33,0.75c0.1,0.24,0.22,0.5,0.34,0.76H161
		c0.12-0.26,0.24-0.51,0.36-0.76c0.12-0.25,0.23-0.49,0.34-0.75l0.88-1.94h0.91l-2.07,4.22v2.67h-0.88V75.09z"/>
	<path class="st0" d="M69.87,69.43c-0.01,0-0.01,0.01-0.03,0.02c-0.01,0.01-0.01,0.01-0.02,0.02c-0.02,0.02-0.05,0.04-0.08,0.06
		c0,0-0.01,0.01-0.01,0.01c-0.04,0.03-0.08,0.06-0.13,0.1c0,0,0,0-0.01,0.01c-0.05,0.04-0.1,0.07-0.16,0.11
		c-0.01,0.01-0.02,0.01-0.03,0.02c-0.05,0.03-0.1,0.07-0.16,0.11c-0.03,0.02-0.06,0.04-0.09,0.06c-0.04,0.03-0.08,0.05-0.12,0.08
		c-0.06,0.04-0.13,0.08-0.19,0.12c-0.02,0.01-0.03,0.02-0.04,0.03c-0.9,0.51-2.33,1.11-4.11,1.15h-3.33l-11.03,0l0.01,0l-0.01,0
		c0,0,0.32,0.57,1.63,2.8c1.65,2.79,4.28,3.64,4.28,3.64h-2.2l0,0h3.6h5.1c1.44,0,2.78-0.77,3.5-2.02l2.56-4.44l1.08-1.88
		C69.88,69.42,69.88,69.42,69.87,69.43"/>
	<path class="st0" d="M73.17,59.72l-3.65-6.31l0,0.01c0.01,0.04,0.62,2.58-0.97,5.54l-1.65,2.79l-5.55,9.58h3.33
		c1.78-0.04,3.21-0.64,4.11-1.15c0.02-0.01,0.03-0.02,0.04-0.03c0.07-0.04,0.13-0.08,0.19-0.12c0.04-0.03,0.08-0.05,0.12-0.08
		c0.03-0.02,0.06-0.04,0.09-0.06c0.06-0.04,0.11-0.07,0.16-0.11c0.01-0.01,0.02-0.01,0.03-0.02c0.06-0.04,0.11-0.08,0.16-0.11
		c0,0,0.01,0,0.01-0.01c0.05-0.04,0.09-0.07,0.13-0.1c0,0,0.01-0.01,0.01-0.01c0.03-0.02,0.06-0.05,0.08-0.06
		c0.01-0.01,0.02-0.01,0.02-0.02c0.01-0.01,0.02-0.02,0.03-0.02c0,0,0.01-0.01,0.01-0.01l0.74-1.24l2.55-4.42
		C73.89,62.51,73.89,60.97,73.17,59.72"/>
	<path class="st0" d="M47.09,52.17c-3.09,0-5.14,1.78-5.31,1.93l0,0l-0.7,1.2l-2.55,4.42c-0.72,1.25-0.72,2.79,0,4.04l2.56,4.43
		l1.09,1.89c0,0-0.17-0.76-0.08-1.91c0.07-1.01,0.34-2.32,1.09-3.64l7.13-12.35l0-0.01L47.09,52.17z"/>
	<path class="st0" d="M51.95,74.12c-1.31-2.23-1.63-2.8-1.63-2.8l-5.52-9.57l-1.61,2.79c-0.75,1.33-1.02,2.63-1.09,3.64
		c-0.09,1.14,0.08,1.91,0.08,1.91l-1.09-1.89l0,0l1.8,3.12l2.55,4.42c0.72,1.25,2.06,2.02,3.5,2.02h5.09h2.2
		C56.23,77.75,53.6,76.91,51.95,74.12"/>
	<path class="st0" d="M69.52,53.41l-0.72-1.24l-2.55-4.42c-0.72-1.25-2.06-2.02-3.5-2.02l-7.25,0.01h-0.02
		c0.11,0.04,2.65,0.9,4.26,3.63c1.32,2.24,1.63,2.81,1.63,2.81l5.52,9.56l1.65-2.79C70.14,55.99,69.53,53.45,69.52,53.41"/>
	<path class="st0" d="M59.74,49.37c-1.61-2.73-4.15-3.59-4.26-3.63h-1.42h-5.1c-1.44,0-2.78,0.77-3.5,2.02l-2.56,4.43l-1.12,1.91
		c0.16-0.15,2.22-1.93,5.31-1.93l3.23,0.01l0,0.01c0.02,0,0.03,0,0.03,0l0.01-0.01l11.03,0C61.38,52.18,61.06,51.61,59.74,49.37"/>
</g>
</svg>
