<?xml version="1.0" encoding="utf-8"?>
<!-- Generator: Adobe Illustrator 19.0.0, SVG Export Plug-In . SVG Version: 6.00 Build 0)  -->
<svg version="1.1" id="Warstwa_1" xmlns="http://www.w3.org/2000/svg" xmlns:xlink="http://www.w3.org/1999/xlink" x="0px" y="0px"
	 viewBox="0 0 210.1 120.1" style="enable-background:new 0 0 210.1 120.1;" xml:space="preserve">
<style type="text/css">
	.st0{fill:#FEFEFE;}
	.st1{fill:#A0A0A0;}
	.st2{fill:#A1A1A1;}
	.st3{fill:#9F9F9F;}
	.st4{fill:#C7C7C7;}
	.st5{fill:#C3C3C3;}
	.st6{fill:#C0C0C0;}
	.st7{fill:#B4B4B4;}
	.st8{fill:#B2B2B2;}
	.st9{fill:#B9B9B9;}
	.st10{fill:#BABABA;}
	.st11{fill:#BEBEBE;}
	.st12{fill:#BBBBBB;}
	.st13{fill:#B8B8B8;}
	.st14{fill:#AFAFAF;}
	.st15{fill:#ADADAD;}
	.st16{fill:#DFDFDF;}
	.st17{fill:#A2A2A2;}
	.st18{fill:#B3B3B3;}
	.st19{fill:#A3A3A3;}
	.st20{fill:#ABABAB;}
	.st21{fill:#BCBCBC;}
	.st22{fill:#E8E8E8;}
	.st23{fill:#A9A9A9;}
	.st24{fill:#BDBDBD;}
	.st25{fill:#AAAAAA;}
	.st26{fill:#AEAEAE;}
	.st27{fill:#B5B5B5;}
	.st28{fill:#A4A4A4;}
	.st29{fill:#BFBFBF;}
	.st30{fill:#B1B1B1;}
	.st31{fill:#ACACAC;}
	.st32{fill:#A7A7A7;}
	.st33{fill:#A5A5A5;}
	.st34{fill:#A6A6A6;}
	.st35{fill:#FDFDFD;}
	.st36{fill:#DCDCDC;}
	.st37{fill:#DBDBDB;}
	.st38{fill:#9E9E9E;}
	.st39{fill:#CFCFCF;}
	.st40{fill:#D0D0D0;}
	.st41{fill:#E0E0E0;}
	.st42{fill:#E6E6E6;}
	.st43{fill:#ECECEC;}
	.st44{fill:#D7D7D7;}
	.st45{fill:#E1E1E1;}
	.st46{fill:#DEDEDE;}
	.st47{fill:#E4E4E4;}
	.st48{fill:#FCFCFC;}
	.st49{fill:#F0F0F0;}
</style>
<g>
	<path class="st0" d="M0.1,119.6c0-40,0-80,0-120c70,0,140,0,210,0c0,40,0,80,0,120C140.1,119.6,70.1,119.6,0.1,119.6z M169.1,73.6
		c0.3-0.3,0.7-0.7,1-1c-0.1-0.3-0.2-0.6-0.3-0.8c-0.2,0.3-0.4,0.6-0.7,0.8C169.1,72.9,169.1,73.2,169.1,73.6c-0.3,0.3-0.7,0.7-1,1
		c-0.3,0-0.7,0-1,0c0-0.3,0-0.7,0-1c-0.3-0.3-0.7-0.7-1-1c-0.1-0.3-0.2-0.6-0.3-0.8c-0.2,0.3-0.4,0.6-0.7,0.8c0.3,0.3,0.7,0.7,1,1
		c0,0.3,0,0.7,0,1c0.3,0.3,0.7,0.7,1,1c0.2,1.3-0.4,2.7,1,4.8c0-2.3,0-3.5,0-4.8c0.3-0.3,0.7-0.7,1-1
		C169.1,74.2,169.1,73.9,169.1,73.6z M133.1,72.6c-0.3-0.3-0.7-0.7-1-1c-0.3,0-0.7,0-1,0c-0.3,0.3-0.7,0.7-1,1c-0.3,0.3-0.7,0.7-1,1
		c-1.4,1.3-1.4,2.7,0,4c0.3,0.3,0.7,0.7,1,1s0.7,0.7,1,1c0.3,0,0.7,0,1,0c0.3-0.3,0.7-0.7,1-1c0.3-0.3,0.7-0.7,1-1
		c1.4-1.3,1.4-2.7,0-4C133.7,73.2,133.4,72.9,133.1,72.6z M119.1,72.6c0,0.3,0,0.7,0,1c0.1,2-0.3,4,0.6,6c0.4-1.4,0.3-2.8,0.4-4.2
		c0-0.3,0.6-0.5,1-0.8c0,0.3,0,0.7,0,1c0.3,0.3,0.7,0.7,1,1c0.2,0.8-0.5,1.9,1,2c0.3,0.3,0.7,0.7,1,1c0.2,0,0.5,0,0.5,0
		c0.1-2.5,0.3-5.1,0.4-7.6c0-0.1-0.2-0.2-0.3-0.4c-0.3,0-0.6,0-0.9,0c-1.6,0.9,0.7,3.4-1.6,4c-0.3-0.3-0.7-0.7-1-1
		c-0.2-0.8,0.5-1.9-1-2c-0.1-0.3-0.2-0.6-0.3-0.8C119.5,72,119.3,72.3,119.1,72.6z M160.1,78.6c-0.7,0-1.3,0-2,0c-1.3-1.5-1-3.3-1-5
		c0.3-0.3,0.7-0.7,1-1c0.7,0,1.3,0,2,0c0,1.2,1,1.3,1.5,0.9c0.8-0.7,0.9-1.6-0.5-1.9c-0.9,0-1.9-0.1-2.8,0c-0.4,0.1-0.8,0.6-1.2,1
		c-0.3,0.3-0.9,0.5-1,0.8c-0.1,1.6,0,3.2,0,4.9c0.7,0.5,1.4,0.9,2,1.3c0.7,0,1.3,0,2,0c0.3-0.3,0.7-0.7,1-1c0.3-0.1,0.5-0.2,1-0.4
		c0-0.8-0.1-1.7-0.1-2.7c-1.2,0.1-2,0.2-3.5,0.4c1.3,0.6,2,0.9,2.6,1.2c0,0.6,0,1,0,1.5C160.7,78.6,160.4,78.6,160.1,78.6z
		 M100.1,76.6c0,0.3,0,0.7,0,1c0.4,0.7,0.9,1.3,1.4,2.1c1.2-0.1,2.4-0.2,3.8-0.3c-0.2-0.8-0.3-1.2-0.5-1.7c-0.6,0.4-1.1,0.8-1.6,1.1
		c-0.8-0.4-1.4-0.8-2.1-1.1c0-0.3,0-0.7,0-1c0-1,0-2,0-3c0.7-0.4,1.3-0.7,2-1c0.7,0.3,1.2,0.6,2.1,1c-0.1-0.8-0.2-1.3-0.2-1.8
		c-1.2,0-2.3,0-3.6,0c-0.4,0.6-0.8,1.2-1.3,1.9C100.1,74.6,100.1,75.6,100.1,76.6z M152.1,76.6c0.3-0.2,1-0.7,1-0.7
		c-0.7-1.1-0.4-2.7-2-3.3c-0.8-2.1-2.4-0.5-3.7-1c-0.5,0.7-0.9,1.3-1.3,2c0,1.3,0,2.7,0,4c0.4,0.6,0.9,1.3,1.5,2.2
		c1.1-0.9,2.8,1,3.5-1.2C152.5,78.5,151.9,77.3,152.1,76.6z M85.1,72.6c0.1,2.3-0.3,4.6,1,6.8c0-2.3,0-4.6,0-6.8
		c0.6-0.1,1.3-0.2,1.9-0.3c-1-0.7-2-0.7-2.9-0.6c-1,0-1.9,0.2-2.9,0.3c0,0.2,0.1,0.5,0.1,0.7C83.2,72.6,84.1,72.6,85.1,72.6z
		 M140.1,78.6c-0.1-2.3,0.3-4.6-1-6.8c0,2.3,0,4.6,0,6.8c1.7,1.2,1.7,1.2,4.3,0C141.9,78.6,141,78.6,140.1,78.6z M110.1,74.6
		c-0.1-1-0.2-1.9-0.3-2.9c-0.5,2.6-1.1,5.2,0.3,7.7c0-1.3,0-2.6,0-3.9c1,0,2,0,3,0c0,1.3,0,2.6,0,3.9c0.8,0,1.2,0,1.8,0
		c0-2.6,0-5.2,0-7.8c-0.6,0-1.1,0-1.8,0c0,1,0,2,0,2.9C112.1,74.6,111.1,74.6,110.1,74.6z M93.1,78.6c0-1,0-2,0-3
		c1-0.1,1.9-0.2,2.9-0.3c0-0.2,0-0.5-0.1-0.7c-0.9,0-1.9,0-2.8,0c0-0.7,0-1.3,0-2c1-0.1,1.9-0.2,2.9-0.3c0-0.2,0-0.5-0.1-0.7
		c-1.3,0-2.6,0-3.8,0c-0.3,0.3-0.9,0.5-1,0.8c-0.1,2.1-0.1,4.3,0,6.4c0,0.3,0.6,0.5,1,0.8c1.3-0.2,2.7,0.4,4.8-1
		C94.9,78.6,94,78.6,93.1,78.6z M51.1,79.6c2.8,0,5.6,0,8.6,0c1.8-2.1,3.9-4,4.4-7c1.6-0.2,0.7-1.5,1.2-2.7c2-1.2,3-3.7,4.3-6.1
		c0.8-1.5,0.7-2.7,0.2-4c-0.4-1.1-0.8-2.5-1.7-3.2c-1-0.9-0.2-2.9-2.4-3c-1.4-0.1,0.6-2.7-1.5-2.9c-0.5-3-2.4-5-4.5-7
		c-2.4,0-4.8,0-7.3,0c-0.4,0-0.8,0.6-1.2,1c-1.7-0.3-3.3-0.8-5-1c-1.8-0.2-3.6,0-5.3,0c-2.6,1.7-3.3,4.6-4.6,7c-2,0.4-0.2,3-2.1,3.8
		c-1.1,0.5-1.8,2.1-2.4,3.3c-0.7,1.3-1,2.8-1.1,3.2c0.4,3.1,1.4,5,2.7,6.7c0.7,0.7,1.3,1.3,2,2c0.3,2.5,2.1,4.4,2.9,6.7
		c1,2.5,2.9,3.1,5.1,3.3c2,0.2,4,0,5.9,0C49.7,79.6,50.4,79.6,51.1,79.6z M153.2,39.7c-0.2,3.5-0.4,6.6-0.6,9.8
		c0,0.1-0.3,0.1-0.9,0.3c-2.7-3.6-6.1-2.1-10-0.6c-1.5,1.8-3.2,3.9-4.6,5.7c0,2.1,0,3.8,0,5c1.1,2.1,1.9,3.7,2.7,5.2
		c1.7,0.9,3.3,1.7,5,2.6c4.5,0,4.5,0,7.6-1.8c1.5,1.2,3,1,4.4,0.6c0-9,0-17.8,0-26.6C155.6,39.7,154.5,39.7,153.2,39.7z M134.1,48.6
		c-1.1,0-2.2-0.3-2.7,0.1c-1.5,1.1-3,0.4-4.2-0.2c-2.2-1-4.1-1.2-6.2,0.1c-0.4,0.2-1,0-0.9,0c-1.8,1.8-3.4,3.2-5,4.7
		c-1.7,6.7-0.6,10.8,6.5,14.3c2.9,0.1,5.8,0.4,8-2c1.4,1.6,3,0.9,4.5,0.8C134.1,60.4,134.1,54.8,134.1,48.6z M89.4,49.3
		c-4-2-7.2-1.8-10.8-0.1c-1.4,1.7-3.1,3.9-4.5,5.6c-0.6,6.4,1.8,10.6,8.1,12.7c1,0,2.7,0,3.7,0c6.5-2.3,8.7-6.6,8-13
		C92.4,52.8,90.8,50.8,89.4,49.3z M168.2,67.6c1,0,2.7,0,4.4,0c7.8-4.2,8.6-7.9,6.3-14.7c-1.4-1.4-2.8-2.8-3.7-3.7
		c-3.7-1.9-6.9-1.7-10.4,0.1c-1.4,1.7-3.1,3.9-4.5,5.6C159.6,61.3,161.9,65.4,168.2,67.6z M105.8,64.6c-0.6-0.4-1.1-0.7-1.7-1
		c-4.1-2.5-5.1-5.5-3-9.1c1.4-2.6,4.6-3.6,7.9-2.5c0.9,0.3,1.8,0.5,2.6,0.8c0.6-1.1,1-1.9,1.4-2.7c-5.9-2.7-6-2.7-9.9-1.4
		c-3.8,1.3-5.9,4.1-6,8.2c0,1.8,0,3.6,0,5.5c2.1,1.8,4.1,3.6,6,5.3c3.7-0.1,7.3,0.8,9.8-2.4c-0.5-0.9-1-1.7-1.5-2.6
		C109.6,63.2,107.9,63.8,105.8,64.6z"/>
	<path class="st1" d="M153.2,39.7c1.3,0,2.4,0,3.7,0c0,8.9,0,17.6,0,26.6c-1.4,0.4-2.9,0.6-4.4-0.6c-3.2,1.9-3.2,1.9-7.6,1.8
		c-1.8-0.9-3.3-1.7-5-2.6c-0.8-1.5-1.6-3.1-2.7-5.2c0-1.2,0-2.8,0-5c1.4-1.8,3.2-3.9,4.6-5.7c3.9-1.5,7.3-2.9,10,0.6
		c0.7-0.2,0.9-0.3,0.9-0.3C152.9,46.3,153,43.2,153.2,39.7z M149.6,51.6c-1.7,0-3.3,0-5,0c-1.2,1.2-2.3,2.3-3.5,3.5
		c0,1.6,0,3.3,0,5.3c1.8,1.4,3.8,2.9,5.8,4.4c1.5-1.8,4.2-0.7,5.3-3.2c1-2.2,0.8-4.4,0.9-6.5C151.9,53.9,150.7,52.7,149.6,51.6z"/>
	<path class="st1" d="M134.1,48.6c0,6.2,0,11.8,0,17.8c-1.5,0.2-3.1,0.8-4.5-0.8c-2.2,2.4-5.2,2-8,2c-7.1-3.5-8.2-7.6-6.5-14.3
		c1.6-1.5,3.1-3,5-4.7c0,0,0.6,0.2,0.9,0c2.1-1.3,4-1.1,6.2-0.1c1.1,0.5,2.6,1.2,4.2,0.2C131.9,48.3,132.9,48.6,134.1,48.6z
		 M121.6,51.6c-2.9,2.4-4.2,5.1-3.4,9c1.8,1.3,3.8,2.8,5.7,4.2c2.1-1.6,5-1.4,5.9-4c0.3-1,0.6-2,0.8-2.7c-0.3-1.2-0.6-2.2-0.6-2.4
		c-1.5-1.8-2.6-3-3.6-4.1C124.8,51.6,123.3,51.6,121.6,51.6z"/>
	<path class="st2" d="M89.4,49.3c1.3,1.5,3,3.5,4.5,5.2c0.7,6.5-1.6,10.8-8,13c-1,0-2.7,0-3.7,0c-6.3-2.2-8.6-6.3-8.1-12.7
		c1.4-1.7,3.1-3.9,4.5-5.6C82.2,47.5,85.4,47.2,89.4,49.3z M84,64.6c1.7-0.9,3.2-1.6,5.3-2.7c0.3-2,0.7-4.5,0.9-6.2
		c-1.6-1.8-2.7-3.1-3.7-4.1c-1.9,0-3.5,0-4.5,0c-1.6,1.4-2.8,2.5-4,3.5c0,2.7-0.4,5.3,1.1,6.9C81.1,63.1,82.4,63.8,84,64.6z"/>
	<path class="st2" d="M168.2,67.6c-6.3-2.2-8.6-6.3-8.1-12.7c1.4-1.7,3.1-3.9,4.5-5.6c3.6-1.8,6.7-2,10.4-0.1
		c0.9,0.9,2.3,2.3,3.7,3.7c2.3,6.8,1.5,10.5-6.3,14.7C170.9,67.6,169.2,67.6,168.2,67.6z M164,55.1c0,2.6-0.4,5.2,1.2,7.2
		c1.7,0.8,3.3,1.6,4.8,2.3c1.6-0.8,3.3-1.7,5.3-2.7c0.3-2.1,0.6-4.5,0.9-6.6c-1.4-1.4-2.6-2.6-3.8-3.7c-1.7,0-3.3,0-4.9,0
		C166.4,52.8,165.2,53.9,164,55.1z"/>
	<path class="st2" d="M105.8,64.6c2.1-0.8,3.8-1.4,5.7-2.1c0.5,0.9,1,1.8,1.5,2.6c-2.6,3.2-6.1,2.3-9.8,2.4c-1.9-1.7-4-3.5-6-5.3
		c0-1.9,0-3.7,0-5.5c0-4.1,2.1-6.9,6-8.2c3.9-1.3,4-1.3,9.9,1.4c-0.4,0.8-0.9,1.6-1.4,2.7c-0.8-0.2-1.7-0.5-2.6-0.8
		c-3.3-1-6.4,0-7.9,2.5c-2,3.6-1,6.6,3,9.1C104.6,63.9,105.2,64.2,105.8,64.6z"/>
	<path class="st2" d="M64.1,50.6c2.1,0.2,0.1,2.8,1.5,2.9c2.2,0.1,1.4,2.2,2.4,3c0.9,0.7,1.2,2.1,1.7,3.2c0.5,1.3,0.6,2.6-0.2,4
		c-1.2,2.4-2.2,4.8-4.3,6.1c-0.4,1.3,0.5,2.6-1.2,2.7c0-0.3,0-0.7,0-1c-1-1.4-2-1.4-3,0c-1.4-0.1-2.7-0.1-4.8-0.3
		c1.2-1.4,1.9-2,2.3-2.8c1.5-2.6,3-5.3,4.5-8c0.1-0.3,0-0.6,0-1c1.6-0.4,2.2-1.4,2-3c-0.2-0.8,0.5-1.9-1-2
		C64.1,53.2,64.1,51.9,64.1,50.6z"/>
	<path class="st1" d="M33.1,67.6c-1.3-1.7-2.3-3.6-2.7-6.7c0.1-0.4,0.4-1.9,1.1-3.2c0.6-1.2,1.3-2.8,2.4-3.3
		c1.9-0.8,0.1-3.4,2.1-3.8c0,0.3,0,0.7,0,1c0.1,0.3,0.2,0.6,0.3,0.8c0.2-0.3,0.4-0.6,0.7-0.8c0-0.3,0-0.7,0-1c0.7,0,1.3,0,2,0
		c0.3,0.3,0.5,0.9,0.8,1c1.1,0.2,2.2,0.2,3.7,0.3c-1.1,1.8-2,3-2.6,4.4c-1.2,2.5-3.4,4.5-3.9,7.3c-0.3,0.3-0.7,0.7-1,1
		c0,0.3,0,0.7,0,1c-1.5,0.1-0.8,1.2-1,2C34.4,67.6,33.7,67.6,33.1,67.6z"/>
	<path class="st2" d="M49.1,79.6c-2,0-4,0.1-5.9,0c-2.2-0.2-4.2-0.7-5.1-3.3c-0.9-2.3-2.6-4.2-2.9-6.7c0.3-0.4,0.9-0.7,1-1.2
		c0.1-0.9,0-1.9,0-2.8c0.3-0.3,0.7-0.7,1-1c0-0.3,0-0.7,0-1c0.5-0.3,1-0.6,1.5-0.9c2.1,3.6,3.9,7.5,6.5,10.9c0,0.3,0,0.7,0,1
		c0.3,0.3,0.7,0.7,1,1s0.7,0.7,1,1s0.7,0.7,1,1C48.4,78.2,48.7,78.9,49.1,79.6z"/>
	<path class="st1" d="M64.1,50.6c0,1.3,0,2.7,0,4c0,0.7,0,1.3,0,2c-0.7,1-1.3,2-2,3c-1.2-0.4-1.5-1.3-2.1-2.3
		c-1.5-2.6-2.5-5.7-4.9-7.7c-0.2-0.8,0.5-1.9-1-2c-0.3-0.3-0.7-0.7-1-1s-0.7-0.7-1-1c-0.3-0.3-0.7-0.7-1-1c0.4-0.3,0.8-0.9,1.2-1
		c2.4-0.1,4.9,0,7.3,0C61.6,45.6,63.6,47.6,64.1,50.6z"/>
	<path class="st1" d="M64.1,71.6c0,0.3,0,0.7,0,1c-0.5,3-2.7,4.9-4.4,7c-2.9,0-5.8,0-8.6,0c-0.4-1.6-1.4-2.2-3-2
		c-0.3-0.3-0.7-0.7-1-1c0-0.3,0-0.7,0-1c-0.3-0.3-0.7-0.7-1-1s-0.7-0.7-1-1c0-1.3,1-1,1.7-1c4.7,0,9.5,0,14.3,0c0.8-0.2,1.9,0.5,2-1
		C63.4,71.6,63.7,71.6,64.1,71.6z"/>
	<path class="st3" d="M39.1,50.6c-0.7,0-1.3,0-2,0c-0.3,0-0.7,0-1,0c1.3-2.4,2-5.3,4.6-7c1.7,0,3.5-0.1,5.3,0c1.7,0.2,3.4,0.6,5,1
		c0.3,0.3,0.7,0.7,1,1s0.7,0.7,1,1s0.7,0.7,1,1c0.2,0.8-0.5,1.9,1,2c0,1.3-1,1-1.7,1C48.6,50.6,43.8,50.6,39.1,50.6z"/>
	<path class="st4" d="M113.1,74.6c0-1,0-1.9,0-2.9c0.8,0,1.2,0,1.8,0c0,2.6,0,5.2,0,7.8c-0.6,0-1.1,0-1.8,0c0-1.4,0-2.6,0-3.9
		c0.3-0.1,0.6-0.2,0.8-0.3C113.6,75,113.3,74.8,113.1,74.6z"/>
	<path class="st5" d="M122.1,75.6c2.3-0.6,0-3.1,1.6-4c0.3,0,0.6,0,0.9,0c0.1,0.1,0.3,0.2,0.3,0.4c-0.1,2.5-0.2,5.1-0.4,7.6
		c0,0-0.3,0-0.5,0c0-0.3,0-0.7,0-1c-0.3-0.3-0.7-0.7-1-1s-0.7-0.7-1-1C122.1,76.2,122.1,75.9,122.1,75.6z"/>
	<path class="st6" d="M93.1,75.6c0,1,0,2,0,3c-0.3,0.3-0.7,0.7-1,1c-0.3-0.3-0.9-0.5-1-0.8c-0.1-2.1-0.1-4.3,0-6.4
		c0-0.3,0.6-0.5,1-0.8c0.3,0.3,0.7,0.7,1,1c0,0.7,0,1.3,0,2c-0.3,0.1-0.6,0.2-0.8,0.3C92.5,75.1,92.8,75.4,93.1,75.6z"/>
	<path class="st7" d="M157.1,73.6c0,1.7-0.3,3.5,1,5c0,0.3,0,0.7,0,1c-0.6-0.4-1.3-0.9-2-1.3c0-1.7,0-3.3,0-4.9c0-0.3,0.6-0.5,1-0.8
		C157.1,72.9,157.1,73.2,157.1,73.6z"/>
	<path class="st2" d="M110.1,75.6c0,1.3,0,2.6,0,3.9c-1.4-2.5-0.8-5.1-0.3-7.7c0.1,1,0.2,1.9,0.3,2.9
		C110.1,74.9,110.1,75.2,110.1,75.6z"/>
	<path class="st8" d="M121.1,74.6c-0.3,0.2-0.9,0.5-1,0.8c-0.1,1.4,0,2.8-0.4,4.2c-0.9-1.9-0.5-4-0.6-6c0.3-0.3,0.7-0.7,1-1
		C121.5,72.7,120.9,73.8,121.1,74.6z"/>
	<path class="st9" d="M151.1,78.6c-0.8,2.2-2.5,0.3-3.5,1.2c-0.6-0.9-1-1.5-1.5-2.2c0.3,0,0.7,0,1,0c0.7,0.4,1.3,0.7,2,1.1
		c0.7-0.4,1.3-0.7,2-1.1C151.1,77.9,151.1,78.2,151.1,78.6z"/>
	<path class="st10" d="M146.1,73.6c0.4-0.6,0.9-1.3,1.3-2c1.3,0.4,2.9-1.2,3.7,1c0,0.3,0,0.7,0,1c-0.7-0.4-1.3-0.7-2-1.1
		c-0.7,0.4-1.3,0.7-2,1.1C146.7,73.6,146.4,73.6,146.1,73.6z"/>
	<path class="st11" d="M139.1,78.6c0-2.3,0-4.6,0-6.8c1.3,2.2,0.9,4.6,1,6.8C139.7,78.6,139.4,78.6,139.1,78.6z"/>
	<path class="st12" d="M100.1,73.6c0.4-0.7,0.9-1.3,1.3-1.9c1.2,0,2.3,0,3.6,0c0.1,0.5,0.1,1,0.2,1.8c-0.8-0.4-1.4-0.7-2.1-1
		c-0.6,0.3-1.3,0.7-2,1C100.7,73.6,100.4,73.6,100.1,73.6z"/>
	<path class="st10" d="M101.1,77.6c0.7,0.4,1.3,0.7,2.1,1.1c0.5-0.3,1-0.7,1.6-1.1c0.1,0.5,0.3,0.9,0.5,1.7
		c-1.4,0.1-2.6,0.2-3.8,0.3c-0.5-0.8-0.9-1.4-1.4-2.1C100.4,77.6,100.7,77.6,101.1,77.6z"/>
	<path class="st13" d="M86.1,72.6c0,2.3,0,4.6,0,6.8c-1.3-2.2-0.9-4.6-1-6.8C85.4,72.6,85.7,72.6,86.1,72.6z"/>
	<path class="st14" d="M86.1,72.6c-0.3,0-0.7,0-1,0c-0.9,0-1.9,0-2.8,0c0-0.2-0.1-0.5-0.1-0.7c1-0.1,1.9-0.2,2.9-0.3
		c0.9,0,1.9,0,2.9,0.6C87.3,72.3,86.7,72.5,86.1,72.6z"/>
	<path class="st15" d="M151.1,73.6c0-0.3,0-0.7,0-1c1.6,0.5,1.3,2.2,2,3.3c0,0-0.6,0.5-1,0.7c-0.3,0-0.7,0-1,0
		C151.1,75.6,151.1,74.6,151.1,73.6z"/>
	<path class="st9" d="M129.1,77.6c-1.4-1.3-1.4-2.7,0-4c0.3,0,0.7,0,1,0c-0.4,0.7-0.7,1.3-1.1,2c0.4,0.7,0.7,1.3,1.1,2
		C129.7,77.6,129.4,77.6,129.1,77.6z"/>
	<path class="st9" d="M134.1,73.6c1.4,1.3,1.4,2.7,0,4c-0.3,0-0.7,0-1,0c0.4-0.7,0.7-1.3,1.1-2c-0.4-0.7-0.7-1.3-1.1-2
		C133.4,73.6,133.7,73.6,134.1,73.6z"/>
	<path class="st10" d="M161.1,78.6c0-0.5,0-1,0-1.5c-0.6-0.3-1.3-0.6-2.6-1.2c1.5-0.2,2.3-0.3,3.5-0.4c0.1,1,0.1,1.9,0.1,2.7
		C161.6,78.4,161.3,78.5,161.1,78.6z"/>
	<path class="st16" d="M48.1,77.6c1.6-0.2,2.6,0.4,3,2c-0.7,0-1.3,0-2,0C48.7,78.9,48.4,78.2,48.1,77.6z"/>
	<path class="st17" d="M168.1,75.6c0,1.3,0,2.6,0,4.8c-1.4-2.1-0.8-3.5-1-4.8C167.4,75.6,167.7,75.6,168.1,75.6z"/>
	<path class="st18" d="M157.1,72.6c0.4-0.3,0.7-0.9,1.2-1c0.9-0.1,1.9,0,2.8,0c-0.3,0.3-0.7,0.7-1,1c-0.7,0-1.3,0-2,0
		C157.7,72.6,157.4,72.6,157.1,72.6z"/>
	<path class="st19" d="M146.1,73.6c0.3,0,0.7,0,1,0c0,1.3,0,2.7,0,4c-0.3,0-0.7,0-1,0C146.1,76.2,146.1,74.9,146.1,73.6z"/>
	<path class="st20" d="M92.1,79.6c0.3-0.3,0.7-0.7,1-1c0.9,0,1.9,0,3.8,0C94.8,80,93.3,79.4,92.1,79.6z"/>
	<path class="st20" d="M93.1,72.6c-0.3-0.3-0.7-0.7-1-1c1.3,0,2.6,0,3.8,0c0,0.2,0,0.5,0.1,0.7C95,72.4,94,72.5,93.1,72.6z"/>
	<path class="st20" d="M139.1,78.6c0.3,0,0.7,0,1,0c0.9,0,1.8,0,3.3,0C140.7,79.8,140.7,79.8,139.1,78.6z"/>
	<path class="st21" d="M110.1,75.6c0-0.3,0-0.7,0-1c1,0,2,0,3,0c0,0.3,0,0.7,0,1C112.1,75.6,111.1,75.6,110.1,75.6z"/>
	<path class="st22" d="M160.1,72.6c0.3-0.3,0.7-0.7,1-1c1.4,0.3,1.3,1.2,0.5,1.9C161.1,73.9,160.1,73.8,160.1,72.6z"/>
	<path class="st5" d="M93.1,74.6c0.9,0,1.9,0,2.8,0c0,0.2,0,0.5,0.1,0.7c-1,0.1-1.9,0.2-2.9,0.3C93.1,75.2,93.1,74.9,93.1,74.6z"/>
	<path class="st2" d="M33.1,67.6c0.7,0,1.3,0,2,0c0,0.7,0,1.3,0,2C34.4,68.9,33.7,68.2,33.1,67.6z"/>
	<path class="st23" d="M100.1,73.6c0.3,0,0.7,0,1,0c0,1,0,2,0,3c-0.3,0-0.7,0-1,0C100.1,75.6,100.1,74.6,100.1,73.6z"/>
	<path class="st24" d="M168.1,75.6c-0.3,0-0.7,0-1,0c-0.3-0.3-0.7-0.7-1-1c0.3,0,0.7,0,1,0s0.7,0,1,0
		C168.1,74.9,168.1,75.2,168.1,75.6z"/>
	<path class="st19" d="M158.1,79.6c0-0.3,0-0.7,0-1c0.7,0,1.3,0,2,0c0,0.3,0,0.7,0,1C159.4,79.6,158.7,79.6,158.1,79.6z"/>
	<path class="st6" d="M166.1,73.6c-0.3-0.3-0.7-0.7-1-1c0.3,0,0.7,0,1,0c0.3,0.3,0.7,0.7,1,1C166.7,73.6,166.4,73.6,166.1,73.6z"/>
	<path class="st25" d="M122.1,76.6c0.3,0.3,0.7,0.7,1,1c0,0.3,0,0.7,0,1C121.6,78.5,122.2,77.3,122.1,76.6z"/>
	<path class="st25" d="M151.1,76.6c0.3,0,0.7,0,1,0c-0.2,0.8,0.5,1.9-1,2c0-0.3,0-0.7,0-1S151.1,76.9,151.1,76.6z"/>
	<path class="st19" d="M129.1,77.6c0.3,0,0.7,0,1,0c0,0.3,0,0.7,0,1C129.7,78.2,129.4,77.9,129.1,77.6z"/>
	<path class="st26" d="M160.1,79.6c0-0.3,0-0.7,0-1c0.3,0,0.7,0,1,0C160.7,78.9,160.4,79.2,160.1,79.6z"/>
	<path class="st27" d="M168.1,75.6c0-0.3,0-0.7,0-1c0.3,0,0.7,0,1,0C168.7,74.9,168.4,75.2,168.1,75.6z"/>
	<path class="st28" d="M133.1,77.6c0.3,0,0.7,0,1,0c-0.3,0.3-0.7,0.7-1,1C133.1,78.2,133.1,77.9,133.1,77.6z"/>
	<path class="st29" d="M122.1,75.6c0,0.3,0,0.7,0,1c-0.3-0.3-0.7-0.7-1-1C121.4,75.6,121.7,75.6,122.1,75.6z"/>
	<path class="st30" d="M124.1,78.6c0,0.3,0,0.7,0,1c-0.3-0.3-0.7-0.7-1-1C123.4,78.6,123.7,78.6,124.1,78.6z"/>
	<path class="st15" d="M133.1,78.6c-0.3,0.3-0.7,0.7-1,1c0-0.3,0-0.7,0-1C132.4,78.6,132.7,78.6,133.1,78.6z"/>
	<path class="st31" d="M131.1,79.6c-0.3-0.3-0.7-0.7-1-1c0.3,0,0.7,0,1,0C131.1,78.9,131.1,79.2,131.1,79.6z"/>
	<path class="st28" d="M131.1,79.6c0-0.3,0-0.7,0-1c0.3,0,0.7,0,1,0c0,0.3,0,0.7,0,1C131.7,79.6,131.4,79.6,131.1,79.6z"/>
	<path class="st32" d="M100.1,76.6c0.3,0,0.7,0,1,0c0,0.3,0,0.7,0,1c-0.3,0-0.7,0-1,0C100.1,77.2,100.1,76.9,100.1,76.6z"/>
	<path class="st25" d="M119.1,72.6c0.2-0.3,0.4-0.6,0.7-0.8c0.1,0.3,0.2,0.6,0.3,0.8C119.7,72.6,119.4,72.6,119.1,72.6z"/>
	<path class="st31" d="M130.1,72.6c0.3-0.3,0.7-0.7,1-1c0,0.3,0,0.7,0,1C130.7,72.6,130.4,72.6,130.1,72.6z"/>
	<path class="st33" d="M131.1,72.6c0-0.3,0-0.7,0-1c0.3,0,0.7,0,1,0c0,0.3,0,0.7,0,1C131.7,72.6,131.4,72.6,131.1,72.6z"/>
	<path class="st31" d="M132.1,72.6c0-0.3,0-0.7,0-1c0.3,0.3,0.7,0.7,1,1C132.7,72.6,132.4,72.6,132.1,72.6z"/>
	<path class="st26" d="M166.1,72.6c-0.3,0-0.7,0-1,0c0.2-0.3,0.4-0.6,0.7-0.8C165.8,72,165.9,72.3,166.1,72.6z"/>
	<path class="st8" d="M169.1,72.6c0.2-0.3,0.4-0.6,0.7-0.8c0.1,0.3,0.2,0.6,0.3,0.8C169.7,72.6,169.4,72.6,169.1,72.6z"/>
	<path class="st28" d="M119.1,72.6c0.3,0,0.7,0,1,0c-0.3,0.3-0.7,0.7-1,1C119.1,73.2,119.1,72.9,119.1,72.6z"/>
	<path class="st28" d="M130.1,73.6c-0.3,0-0.7,0-1,0c0.3-0.3,0.7-0.7,1-1C130.1,72.9,130.1,73.2,130.1,73.6z"/>
	<path class="st34" d="M134.1,73.6c-0.3,0-0.7,0-1,0c0-0.3,0-0.7,0-1C133.4,72.9,133.7,73.2,134.1,73.6z"/>
	<path class="st8" d="M157.1,72.6c0.3,0,0.7,0,1,0c-0.3,0.3-0.7,0.7-1,1C157.1,73.2,157.1,72.9,157.1,72.6z"/>
	<path class="st9" d="M169.1,72.6c0.3,0,0.7,0,1,0c-0.3,0.3-0.7,0.7-1,1C169.1,73.2,169.1,72.9,169.1,72.6z"/>
	<path class="st20" d="M166.1,73.6c0.3,0,0.7,0,1,0c0,0.3,0,0.7,0,1c-0.3,0-0.7,0-1,0C166.1,74.2,166.1,73.9,166.1,73.6z"/>
	<path class="st30" d="M169.1,74.6c-0.3,0-0.7,0-1,0c0.3-0.3,0.7-0.7,1-1C169.1,73.9,169.1,74.2,169.1,74.6z"/>
	<path class="st14" d="M122.1,75.6c-0.3,0-0.7,0-1,0c0-0.3,0-0.7,0-1C121.4,74.9,121.7,75.2,122.1,75.6z"/>
	<path class="st35" d="M149.6,51.6c1.1,1.2,2.3,2.3,3.5,3.6c-0.1,2.1,0.1,4.3-0.9,6.5c-1.1,2.5-3.7,1.4-5.3,3.2c-2-1.5-4-3-5.8-4.4
		c0-2,0-3.7,0-5.3c1.2-1.2,2.3-2.4,3.5-3.5C146.2,51.6,147.9,51.6,149.6,51.6z"/>
	<path class="st35" d="M121.6,51.6c1.7,0,3.2,0,4.8,0c1,1.1,2.1,2.4,3.6,4.1c0.1,0.2,0.3,1.2,0.6,2.4c-0.2,0.8-0.5,1.7-0.8,2.7
		c-0.9,2.6-3.8,2.3-5.9,4c-1.9-1.4-3.9-2.9-5.7-4.2C117.5,56.7,118.7,53.9,121.6,51.6z"/>
	<path class="st35" d="M84,64.6c-1.6-0.8-2.9-1.5-4.9-2.5c-1.5-1.6-1.1-4.2-1.1-6.9c1.2-1,2.4-2.1,4-3.5c1,0,2.7,0,4.5,0
		c1,1.1,2,2.3,3.7,4.1c-0.2,1.7-0.6,4.1-0.9,6.2C87.2,63,85.7,63.7,84,64.6z"/>
	<path class="st35" d="M164,55.1c1.2-1.2,2.4-2.3,3.5-3.5c1.6,0,3.3,0,4.9,0c1.2,1.2,2.3,2.3,3.8,3.7c-0.3,2.2-0.6,4.5-0.9,6.6
		c-2,1-3.6,1.8-5.3,2.7c-1.5-0.8-3.1-1.5-4.8-2.3C163.6,60.3,164.1,57.6,164,55.1z"/>
	<path class="st35" d="M39.1,50.6c4.8,0,9.5,0,14.3,0c0.7,0,1.7,0.4,1.7-1c2.5,2,3.4,5,4.9,7.7c0.6,1,0.9,2,2.1,2.3c0.3,0,0.7,0,1,0
		c0,0.3,0.1,0.7,0,1c-1.5,2.7-2.9,5.4-4.5,8c-0.5,0.8-1.2,1.4-2.3,2.8c2.1,0.1,3.5,0.2,4.8,0.3c0,0.3,0,0.7,0,1c-4.8,0-9.5,0-14.3,0
		c-0.7,0-1.7-0.4-1.7,1c-2.6-3.4-4.3-7.3-6.5-10.9c-0.5,0.3-1,0.6-1.5,0.9c0.5-2.9,2.7-4.8,3.9-7.3c0.6-1.4,1.6-2.7,2.6-4.4
		c-1.6-0.1-2.7-0.1-3.7-0.3C39.5,51.5,39.3,50.9,39.1,50.6z"/>
	<path class="st36" d="M63.1,59.6c-0.3,0-0.7,0-1,0c0.7-1,1.3-2,2-3c0.3,0,0.7,0,1,0C65.2,58.1,64.6,59.2,63.1,59.6z"/>
	<path class="st0" d="M64.1,71.6c-0.3,0-0.7,0-1,0c-0.7,0-1.3,0-2,0C62.1,70.2,63,70.2,64.1,71.6z"/>
	<path class="st0" d="M65.1,56.6c-0.3,0-0.7,0-1,0c0-0.7,0-1.3,0-2C65.5,54.7,64.9,55.8,65.1,56.6z"/>
	<path class="st37" d="M35.1,69.6c0-0.7,0-1.3,0-2c0.2-0.8-0.5-1.9,1-2c0,0.9,0.1,1.9,0,2.8C35.9,68.8,35.4,69.2,35.1,69.6z"/>
	<path class="st38" d="M36.1,50.6c0.3,0,0.7,0,1,0c0,0.3,0,0.7,0,1c-0.3,0-0.7,0-1,0C36.1,51.2,36.1,50.9,36.1,50.6z"/>
	<path class="st0" d="M36.1,51.6c0.3,0,0.7,0,1,0c-0.2,0.3-0.4,0.6-0.7,0.8C36.3,52.1,36.2,51.9,36.1,51.6z"/>
	<path class="st16" d="M37.1,63.6c0,0.3,0,0.7,0,1c-0.3,0-0.7,0-1,0C36.4,64.2,36.7,63.9,37.1,63.6z"/>
	<path class="st39" d="M36.1,64.6c0.3,0,0.7,0,1,0c-0.3,0.3-0.7,0.7-1,1C36.1,65.2,36.1,64.9,36.1,64.6z"/>
	<path class="st40" d="M46.1,74.6c0.3,0.3,0.7,0.7,1,1c-0.3,0-0.7,0-1,0c-0.3-0.3-0.7-0.7-1-1C45.4,74.6,45.7,74.6,46.1,74.6z"/>
	<path class="st41" d="M46.1,75.6c0.3,0,0.7,0,1,0c0,0.3,0,0.7,0,1C46.7,76.2,46.4,75.9,46.1,75.6z"/>
	<path class="st42" d="M47.1,76.6c0.3,0.3,0.7,0.7,1,1C47.7,77.2,47.4,76.9,47.1,76.6z"/>
	<path class="st43" d="M46.1,74.6c-0.3,0-0.7,0-1,0c0-0.3,0-0.7,0-1C45.4,73.9,45.7,74.2,46.1,74.6z"/>
	<path class="st44" d="M55.1,49.6c-1.5-0.1-0.8-1.2-1-2C55.5,47.7,54.9,48.8,55.1,49.6z"/>
	<path class="st45" d="M52.1,45.6c-0.3-0.3-0.7-0.7-1-1C51.4,44.9,51.7,45.2,52.1,45.6z"/>
	<path class="st46" d="M53.1,46.6c-0.3-0.3-0.7-0.7-1-1C52.4,45.9,52.7,46.2,53.1,46.6z"/>
	<path class="st47" d="M54.1,47.6c-0.3-0.3-0.7-0.7-1-1C53.4,46.9,53.7,47.2,54.1,47.6z"/>
	<path class="st2" d="M61.1,71.6c0.7,0,1.3,0,2,0c-0.1,1.5-1.2,0.8-2,1C61.1,72.2,61.1,71.9,61.1,71.6z"/>
	<path class="st26" d="M113.1,75.6c0-0.3,0-0.7,0-1c0.3,0.2,0.6,0.4,0.8,0.7C113.6,75.4,113.3,75.5,113.1,75.6z"/>
	<path class="st19" d="M124.1,78.6c-0.3,0-0.7,0-1,0c0-0.3,0-0.7,0-1C123.4,77.9,123.7,78.2,124.1,78.6z"/>
	<path class="st25" d="M93.1,74.6c0,0.3,0,0.7,0,1c-0.3-0.2-0.6-0.4-0.8-0.7C92.5,74.8,92.8,74.7,93.1,74.6z"/>
	<path class="st48" d="M151.1,76.6c0,0.3,0,0.7,0,1c-0.7,0.4-1.3,0.7-2,1.1c-0.7-0.4-1.3-0.7-2-1.1c0-1.3,0-2.7,0-4
		c0.7-0.4,1.3-0.7,2-1.1c0.7,0.4,1.3,0.7,2,1.1C151.1,74.6,151.1,75.6,151.1,76.6z"/>
	<path class="st49" d="M133.1,72.6c0,0.3,0,0.7,0,1c0.4,0.7,0.7,1.3,1.1,2c-0.4,0.7-0.7,1.3-1.1,2c0,0.3,0,0.7,0,1c-0.3,0-0.7,0-1,0
		s-0.7,0-1,0s-0.7,0-1,0c0-0.3,0-0.7,0-1c-0.4-0.7-0.7-1.3-1.1-2c0.4-0.7,0.7-1.3,1.1-2c0-0.3,0-0.7,0-1c0.3,0,0.7,0,1,0s0.7,0,1,0
		S132.7,72.6,133.1,72.6z"/>
</g>
</svg>
