<?xml version="1.0" encoding="utf-8"?>
<!-- Generator: Adobe Illustrator 19.0.0, SVG Export Plug-In . SVG Version: 6.00 Build 0)  -->
<svg version="1.1" id="Warstwa_1" xmlns="http://www.w3.org/2000/svg" xmlns:xlink="http://www.w3.org/1999/xlink" x="0px" y="0px"
	 viewBox="0 0 210.1 120.1" style="enable-background:new 0 0 210.1 120.1;" xml:space="preserve">
<style type="text/css">
	.st0{fill:#FEFEFE;}
	.st1{fill:#9F9F9F;}
	.st2{fill:#A5A5A5;}
</style>
<g>
	<path class="st0" d="M105.1,119.5c-34.3,0-68.7,0-103,0.1c-1.7,0-2.1-0.3-2.1-2.1c0.1-38.7,0.1-77.3,0-116c0-1.7,0.3-2.1,2.1-2.1
		c68.7,0.1,137.3,0.1,206,0c1.7,0,2.1,0.3,2.1,2.1c-0.1,38.7-0.1,77.3,0,116c0,1.7-0.3,2.1-2.1,2.1
		C173.7,119.5,139.4,119.5,105.1,119.5z M102.1,46.7c0,4.7,0,9.3,0,14c-0.1,5.2,2,9.4,6.1,12.4c2.2,1.7,4.6,3.2,7.5,3.5
		c5.5,0.5,10.4-0.9,14.3-5.2c1.9-2.1,3.5-4.4,3.9-6.8c0.6-3.8,1-8.1-1-11.4c-4.1-6.9-9.2-9.4-16.9-8.6c-2.7,0.3-5,0.6-6.9,2.6
		c-0.3,0.3-1.1,0.5-1.2,0.4c-0.3-0.5-0.7-1.1-0.7-1.6c-0.1-4.5,0-9,0-13.5c0-3.3,0.6-2.7-2.9-2.9c-1.9-0.1-2.2,0.5-2.2,2.2
		C102.1,36.7,102.1,41.7,102.1,46.7z M67.1,72.4c0,5.2,0,10.3,0,15.5c0,1.3,0.3,1.9,1.6,1.7c0.5-0.1,1-0.1,1.5,0
		c1.5,0.2,2-0.4,1.9-1.9c-0.1-4.5,0-9-0.1-13.5c-0.1-2.4,0.8-1.1,1.8-0.7c0.9,0.5,2,0.7,3,1.2c8.7,4.7,17-0.6,20.6-6.9
		c1.9-3.3,1.9-6.5,1.6-9.8c-0.4-4.9-2.6-9-7.1-11.6c-4.1-2.3-5.6-2.4-11.8-2.1c-4.2,0.2-7.5,2.5-9.6,5.5c-2.1,2.9-3.9,6.3-3.5,10.5
		C67.4,64.4,67.1,68.4,67.1,72.4z M142.1,60.3c0-5-0.1-10,0-15c0-1.7-0.7-2-2-1.8c-0.5,0.1-1,0.1-1.5,0c-1-0.1-1.5,0.1-1.5,1.3
		c0,10.1,0,20.3,0,30.4c0,1.2,0.5,1.4,1.5,1.3c0.5,0,1-0.1,1.5,0c1.4,0.2,2.1-0.1,2-1.8C142,69.9,142.1,65.1,142.1,60.3z
		 M143.1,35.9c0.1-2.2-1.7-4.4-3.5-4.4c-1.4,0-3.4,2-3.5,3.4c-0.1,1.4,1.9,3.5,3.3,3.6C141,38.7,143,37.3,143.1,35.9z"/>
	<path class="st1" d="M102.1,46.7c0-5,0.1-10,0-15c0-1.7,0.3-2.3,2.2-2.2c3.4,0.2,2.9-0.4,2.9,2.9c0,4.5,0,9,0,13.5
		c0,0.6,0.3,1.2,0.7,1.6c0.1,0.1,1-0.1,1.2-0.4c1.9-2,4.3-2.3,6.9-2.6c7.8-0.9,12.8,1.7,16.9,8.6c2,3.4,1.6,7.7,1,11.4
		c-0.4,2.5-2.1,4.8-3.9,6.8c-3.9,4.3-8.8,5.7-14.3,5.2c-2.9-0.2-5.3-1.8-7.5-3.5c-4-3-6.2-7.2-6.1-12.4
		C102.1,56,102.1,51.3,102.1,46.7z M128.1,61.4c-0.2-2.7,0-4.7-0.9-6.8c-1.9-4.4-4.8-6.4-9.6-6.1c-3.7,0.2-6,1.9-8,4.9
		c-1.9,2.9-1.6,5.8-1.5,8.9c0,3.4,1.7,6.2,4.4,8.1c1.2,0.8,2.9,1,4.4,1.5c1,0.3,5.7-0.4,6.5-1.1C126.3,68.1,128.9,65.3,128.1,61.4z"
		/>
	<path class="st1" d="M67.1,72.4c0-4,0.3-8-0.1-12c-0.4-4.2,1.4-7.6,3.5-10.5c2.1-2.9,5.3-5.3,9.6-5.5c6.2-0.3,7.7-0.2,11.8,2.1
		c4.5,2.5,6.7,6.7,7.1,11.6c0.3,3.3,0.3,6.5-1.6,9.8c-3.7,6.3-11.9,11.6-20.6,6.9c-0.9-0.5-2-0.7-3-1.2C72.9,73,72,71.8,72,74.2
		c0.1,4.5,0,9,0.1,13.5c0,1.5-0.4,2.1-1.9,1.9c-0.5-0.1-1-0.1-1.5,0c-1.3,0.2-1.7-0.4-1.6-1.7C67.1,82.7,67.1,77.6,67.1,72.4z
		 M93.1,60.7c0-8.8-3.7-12.5-11.8-12.1c-1.5,0.1-5.4,2.5-6.2,3.9c-2.9,5.1-2.9,10.2,0,15.3c1.3,2.3,6.7,5.2,8.7,4.5
		c3-1,5.9-2.2,8-4.9C93.4,65.3,93,62.8,93.1,60.7z"/>
	<path class="st1" d="M142.1,60.3c0,4.8-0.1,9.6,0,14.5c0,1.7-0.7,2-2,1.8c-0.5-0.1-1-0.1-1.5,0c-1,0.1-1.5-0.1-1.5-1.3
		c0-10.1,0-20.3,0-30.4c0-1.2,0.5-1.4,1.5-1.3c0.5,0.1,1,0.1,1.5,0c1.4-0.2,2.1,0.1,2,1.8C142,50.3,142.1,55.3,142.1,60.3z"/>
	<path class="st2" d="M143.1,35.9c0,1.3-2,2.7-3.7,2.6c-1.4-0.1-3.4-2.2-3.3-3.6c0.1-1.4,2.1-3.4,3.5-3.4
		C141.4,31.5,143.1,33.7,143.1,35.9z"/>
	<path class="st0" d="M128.1,61.4c0.8,3.8-1.8,6.7-4.8,9.4c-0.7,0.7-5.5,1.4-6.5,1.1c-1.5-0.5-3.2-0.6-4.4-1.5
		c-2.7-1.9-4.4-4.7-4.4-8.1c0-3-0.3-6,1.5-8.9c2-3,4.3-4.7,8-4.9c4.8-0.3,7.7,1.8,9.6,6.1C128.1,56.7,127.9,58.7,128.1,61.4z"/>
	<path class="st0" d="M93.1,60.7c-0.1,2.1,0.3,4.6-1.3,6.7c-2.1,2.7-5,3.9-8,4.9c-2,0.7-7.4-2.2-8.7-4.5c-2.9-5.1-2.9-10.2,0-15.3
		c0.8-1.4,4.6-3.8,6.2-3.9C89.3,48.2,93,51.9,93.1,60.7z"/>
</g>
</svg>
