<?xml version="1.0" encoding="utf-8"?>
<!-- Generator: Adobe Illustrator 25.1.0, SVG Export Plug-In . SVG Version: 6.00 Build 0)  -->
<svg version="1.1" id="Warstwa_1" xmlns="http://www.w3.org/2000/svg" xmlns:xlink="http://www.w3.org/1999/xlink" x="0px" y="0px"
	 viewBox="0 0 210 120" style="enable-background:new 0 0 210 120;" xml:space="preserve">
<style type="text/css">
	.st0{fill:#9F9F9F;}
</style>
<g>
	<path class="st0" d="M136.24,35.65c0,1.86,1.46,3.33,3.33,3.33c1.86,0,3.33-1.46,3.33-3.33c0-1.86-1.46-3.33-3.33-3.33
		C137.7,32.32,136.24,33.79,136.24,35.65"/>
	<path class="st0" d="M110.64,69.24c1.86,2.13,4.46,3.36,7.36,3.36c2.91,0,5.53-1.23,7.4-3.37c1.81-2.07,2.93-5,2.93-8.49
		c0-3.48-1.13-6.45-2.96-8.57c-1.87-2.16-4.48-3.43-7.37-3.43c-2.88,0-5.47,1.26-7.33,3.41c-1.83,2.12-2.97,5.1-3,8.58
		C107.71,64.24,108.83,67.17,110.64,69.24 M112.07,45.73c1.85-0.79,3.85-1.26,5.93-1.26c4.43,0,8.45,1.84,11.37,4.79
		c2.93,2.96,4.75,7.03,4.75,11.47c0,4.46-1.81,8.49-4.72,11.4c-2.92,2.92-6.96,4.73-11.4,4.73c-4.44,0-8.46-1.8-11.36-4.72
		c-2.9-2.91-4.69-6.94-4.69-11.4V30.45v-0.4h0.4h4.6h0.4v0.4v18.27C108.74,47.51,110.34,46.48,112.07,45.73z"/>
	<rect x="136.84" y="44.49" class="st0" width="5.39" height="32.37"/>
	<path class="st0" d="M90.57,52.11c-1.87-2.14-4.5-3.37-7.4-3.37c-2.9,0-5.5,1.23-7.36,3.36c-1.81,2.07-2.94,5.01-2.97,8.51
		c0.03,3.49,1.17,6.47,3,8.58c1.86,2.15,4.45,3.41,7.33,3.41c2.89,0,5.5-1.27,7.37-3.43c1.83-2.11,2.96-5.09,2.96-8.57
		C93.5,57.11,92.38,54.18,90.57,52.11 M94.53,72.07c-2.92,2.95-6.94,4.79-11.37,4.79c-2.08,0-4.09-0.46-5.93-1.26
		c-1.74-0.74-3.33-1.78-4.73-2.99v16.93v0.4h-0.4h-4.6h-0.4v-0.4V60.6c0-4.46,1.79-8.49,4.69-11.4c2.91-2.92,6.92-4.72,11.36-4.72
		c4.44,0,8.48,1.8,11.4,4.73c2.91,2.91,4.72,6.94,4.72,11.4C99.28,65.04,97.46,69.12,94.53,72.07z"/>
</g>
</svg>
