<?xml version="1.0" encoding="utf-8"?>
<!-- Generator: Adobe Illustrator 19.0.0, SVG Export Plug-In . SVG Version: 6.00 Build 0)  -->
<svg version="1.1" id="Warstwa_1" xmlns="http://www.w3.org/2000/svg" xmlns:xlink="http://www.w3.org/1999/xlink" x="0px" y="0px"
	 viewBox="0 0 210.1 120.1" style="enable-background:new 0 0 210.1 120.1;" xml:space="preserve">
<style type="text/css">
	.st0{fill:#FEFEFE;}
	.st1{fill:#9F9F9F;}
	.st2{fill:#A0A0A0;}
	.st3{fill:#A1A1A1;}
	.st4{fill:#A6A6A6;}
	.st5{fill:#A7A7A7;}
	.st6{fill:#AFAFAF;}
	.st7{fill:#B8B8B8;}
	.st8{fill:#C3C3C3;}
	.st9{fill:#DCDCDC;}
	.st10{fill:#A2A2A2;}
	.st11{fill:#9E9E9E;}
	.st12{fill:#C1C1C1;}
	.st13{fill:#FAFAFA;}
</style>
<g>
	<path class="st0" d="M-0.9,119.6c0-40,0-80,0-120c70,0,140,0,210,0c0,40,0,80,0,120C139.1,119.6,69.1,119.6-0.9,119.6z M59.9,61.5
		c0.1,0.1,0.1,0.1,0.2,0.2c0.3-0.2,0.5-0.5,0.8-0.7c-0.1-0.1-0.2-0.2-0.3-0.3c-0.2,0.3-0.5,0.5-0.6,0.9c-0.3,0.3-0.7,0.7-1,1
		c-0.3,0-0.7,0-1,0c-3.6,2.2-7.4,3.7-11.7,3c-0.2,0-0.4-0.1-0.5,0c-0.3,0.1-0.5,0.3-1,0.7c0.5,0.8,1,1.5,1.5,2.2
		c5.2,0.4,9.7-0.2,12.7-4.9c0.3-0.3,0.7-0.7,1-1C60.1,62.2,60.1,61.9,59.9,61.5z M62.1,46.6c0.3-0.3,0.7-0.7,1-1
		c1.4-0.2,1.2-1,0.5-2.1c-0.5,0.7-1,1.4-1.5,2.1c-0.3,0.3-0.7,0.7-1,1c-4.6,2.5-9.5,4.4-14.4,6c-4.1,1.4-8.6,2.6-11.3,6.3
		c-3.7,5.1-5.2,10.2,0.2,14.6c0.4,0.3,0.7,0.7,0.9,1c13.4,2.1,16.4,1.4,22.2-6.1c-2.6,2-5.5,3.3-8.5,4c-3.5,0.8-6.9-0.4-10-2.5
		c-2.1-5.4-1.1-9.6,3.5-12.4c2.2-1.3,4.8-1.9,7.2-3.1c4-1.9,8.4-3.3,11.3-7C62.1,47.2,62.1,46.9,62.1,46.6z M62.1,53.6
		c1.4-0.2,1.2-1,0.5-2.1c-0.2,0.5-0.4,0.8-0.5,1.1c-0.7,0.7-1.3,1.3-2,2c-3.2,1.5-6.3,3.3-9.8,4c-2.1,0.5-3.9,1.6-5.3,4.1
		c6.4-1.5,12.7-2,16.2-8.2C61.4,54.2,61.7,53.9,62.1,53.6z M123.8,70.3c0.6-4.1,1.1-7.9,1.7-12.7c2.2,5.2,4,9.5,5.9,13.9
		c2.2,0,4.3,0,6.6,0c1.5-7.2,2.9-14.4,4.4-21.8c-2,0-3.4,0-5.2,0c-0.3,0.7-0.9,1.5-1.1,2.3c-0.4,1.8-0.7,3.7-1,5.6
		c-0.4,2-0.8,4-1.3,6.6c-2.2-5.3-4-9.9-5.9-14.5c-1.9,0-3.7,0-5.7,0c-1.7,7.2-3.3,14.3-4.3,21.8c1.9,0,3.4,0,4.8,0
		C123,71.1,123.4,70.8,123.8,70.3z M114.2,71.2c-1-3.6,2.2-6.9,0.5-10.6c-2.8,0-5.5,0-8.4,0c0,1.3,0,2.6,0,3.8
		c1,0.1,1.8,0.2,2.5,0.3c0.8,2,0.1,3.2-1.9,4c-0.9-0.4-1.9-1-2.9-1.1c-1.7-0.1-2.3-1-3.1-2.4c-0.7-1.3-1.3-2.7-0.7-3.6
		c1-1.5,0.4-3.5,2-4.7c2.5-1.7,4.9-3.6,8.1-3.3c2.2,0.2,4.3,0.6,6.6,0.9c0-1.4,0-2.6,0-3.6c-1-0.5-1.6-0.8-2.7-1.3
		c-1.4,0-3.2-0.1-5,0c-5.5,0.4-10.4,2.5-13.4,7.1c-1.9,2.9-2.8,6.7-0.7,10.4c2.1,3.7,8.4,7,12.5,5.3
		C109.7,71.4,111.7,72.2,114.2,71.2z M154.4,56.8c-0.4,1.3-0.6,2.1-0.9,2.8c-1.4,4-0.2,9.2,3,10.8c2.9,1.5,6.3,3.2,9.5,2
		c2.4-0.9,4.8-0.3,6.9-1.1c0.6-1.8-0.2-3.5,1-5.3c0.8-1.3,0.2-3.5,0.2-5.3c-3,0-5.8,0-8.6,0c-0.1,0-0.2,0.2-0.2,0.2
		c0,1.3,0,2.4,0,3.5c1.1,0.2,2,0.3,3.3,0.6c-0.6,1.4-1.1,2.6-1.5,3.6c-4-0.1-5.7-0.9-7-2.8c-1.8-2.5-0.6-4.8,0-7.2
		c0.6-2.3,2.8-3.3,4.6-3.9c3.2-1.1,6.7-2.3,9.9,0.1c0.7-1.4,1.2-2.5,1.8-3.8c-0.7-0.2-1.2-0.2-1.6-0.4c-0.4-0.2-0.8-0.6-1.1-0.9
		C165.9,48.8,159.3,50.8,154.4,56.8z M79.5,64.7c5.3-0.3,10.8-0.5,13.4-6.6c0-1.4,0-2.9,0-4.2c-1.2-1.2-2.3-2.3-3.2-3.2
		c-4.5-0.5-8.8-1-12.9-1.4c-0.7,0.7-1.2,1.2-1.3,1.3c-1.4,7.2-2.7,14.1-4,20.8c1.9,0,3.7,0,5.3,0c0.5-0.5,0.9-0.9,1.2-1.2
		C78.5,68.4,77.1,66.1,79.5,64.7z M147.7,71.4c0.9-5,1.7-9.7,2.6-14.7c-2,0-3.4,0-4.7,0c-3.1,1.6-0.9,4.7-2.4,7.1
		c-1.3,2-0.9,5.1-1.2,7.6C144.3,71.4,146.1,71.4,147.7,71.4z M146.1,49.7c0,0.8,0.1,1.7,0,2.4c-0.2,0.8-0.7,1.5-1.1,2.4
		c2.3,0,4.1,0,5.8,0c0.4-1.6,2.2-2.9,1-4.8C149.9,49.7,148.2,49.7,146.1,49.7z"/>
	<path class="st1" d="M123.8,70.3c-0.4,0.4-0.8,0.8-1.1,1.1c-1.5,0-2.9,0-4.8,0c1-7.4,2.6-14.6,4.3-21.8c2,0,3.8,0,5.7,0
		c1.9,4.6,3.8,9.2,5.9,14.5c0.5-2.6,0.9-4.6,1.3-6.6c0.4-1.9,0.6-3.7,1-5.6c0.2-0.9,0.8-1.7,1.1-2.3c1.8,0,3.2,0,5.2,0
		c-1.5,7.4-2.9,14.5-4.4,21.8c-2.3,0-4.4,0-6.6,0c-1.8-4.3-3.7-8.7-5.9-13.9C124.8,62.5,124.3,66.2,123.8,70.3z"/>
	<path class="st1" d="M114.2,71.2c-2.5,1-4.5,0.2-6.7,1.1c-4.2,1.7-10.4-1.6-12.5-5.3c-2.1-3.7-1.2-7.5,0.7-10.4
		c3-4.5,7.9-6.7,13.4-7.1c1.8-0.1,3.6,0,5,0c1,0.5,1.7,0.9,2.7,1.3c0,1,0,2.2,0,3.6c-2.3-0.3-4.4-0.7-6.6-0.9
		c-3.2-0.3-5.6,1.6-8.1,3.3c-1.6,1.2-1,3.2-2,4.7c-0.6,0.8,0,2.3,0.7,3.6c0.8,1.4,1.3,2.3,3.1,2.4c1,0.1,2,0.7,2.9,1.1
		c2-0.8,2.7-2,1.9-4c-0.7-0.1-1.5-0.2-2.5-0.3c0-1.2,0-2.4,0-3.8c2.9,0,5.7,0,8.4,0C116.3,64.3,113.2,67.6,114.2,71.2z"/>
	<path class="st1" d="M154.4,56.8c4.9-6,11.6-8,19.3-7.1c0.3,0.3,0.7,0.6,1.1,0.9c0.4,0.2,0.9,0.2,1.6,0.4c-0.6,1.3-1.1,2.4-1.8,3.8
		c-3.2-2.3-6.7-1.1-9.9-0.1c-1.8,0.6-4,1.5-4.6,3.9c-0.6,2.4-1.8,4.7,0,7.2c1.3,1.8,3,2.7,7,2.8c0.4-1,0.9-2.1,1.5-3.6
		c-1.3-0.2-2.2-0.4-3.3-0.6c0-1.1,0-2.2,0-3.5c0,0,0.1-0.2,0.2-0.2c2.8,0,5.6,0,8.6,0c0,1.8,0.7,4.1-0.2,5.3c-1.2,1.8-0.3,3.5-1,5.3
		c-2.1,0.7-4.5,0.2-6.9,1.1c-3.2,1.2-6.6-0.5-9.5-2c-3.2-1.6-4.3-6.8-3-10.8C153.8,58.9,154,58.1,154.4,56.8z"/>
	<path class="st1" d="M79.5,64.7c-2.3,1.4-1,3.7-1.5,5.5c-0.4,0.4-0.7,0.7-1.2,1.2c-1.6,0-3.4,0-5.3,0c1.3-6.7,2.6-13.5,4-20.8
		c0.1-0.1,0.6-0.6,1.3-1.3c4.1,0.4,8.4,0.9,12.9,1.4c0.9,0.9,2,2,3.2,3.2c0,1.3,0,2.8,0,4.2C90.3,64.2,84.8,64.4,79.5,64.7z
		 M79.5,60.6c1.7,0,3.4,0,4,0c1.7-1.2,2.8-1.9,3.4-2.4c0-1.5,0-2.5,0-3.2c-2.3-1.1-4.5-2.8-6.6-0.2C80,56.6,79.8,58.5,79.5,60.6z"/>
	<path class="st2" d="M62.1,47.6c-2.9,3.7-7.3,5-11.3,7c-2.3,1.1-5,1.8-7.2,3.1C39,60.4,38,64.6,40.1,70c3.1,2.1,6.5,3.3,10,2.5
		c3-0.7,6-2,8.5-4c-5.8,7.5-8.8,8.3-22.2,6.1c-0.3-0.3-0.5-0.7-0.9-1c-5.4-4.4-3.9-9.5-0.2-14.6c2.7-3.7,7.2-4.9,11.3-6.3
		c5-1.7,9.8-3.6,14.4-6C61.4,46.9,61.7,47.2,62.1,47.6z"/>
	<path class="st3" d="M147.7,71.4c-1.7,0-3.4,0-5.7,0c0.3-2.6-0.1-5.6,1.2-7.6c1.5-2.3-0.7-5.5,2.4-7.1c1.3,0,2.7,0,4.7,0
		C149.4,61.7,148.6,66.5,147.7,71.4z"/>
	<path class="st4" d="M61.1,54.6c-3.5,6.2-9.7,6.7-16.2,8.2c1.4-2.5,3.2-3.7,5.3-4.1c3.5-0.8,6.6-2.5,9.8-4
		C60.4,54.6,60.7,54.6,61.1,54.6z"/>
	<path class="st5" d="M59.1,63.6c-3,4.7-7.6,5.4-12.7,4.9c-0.5-0.7-1-1.5-1.5-2.2c0.5-0.3,0.7-0.5,1-0.7c0.1-0.1,0.3,0,0.5,0
		c4.3,0.7,8.1-0.8,11.7-3C58.4,62.9,58.7,63.2,59.1,63.6z"/>
	<path class="st6" d="M146.1,49.7c2.1,0,3.9,0,5.6,0c1.3,1.9-0.5,3.2-1,4.8c-1.7,0-3.5,0-5.8,0c0.5-1,1-1.7,1.1-2.4
		C146.2,51.3,146.1,50.5,146.1,49.7z"/>
	<path class="st7" d="M61.1,54.6c-0.3,0-0.7,0-1,0c0.7-0.7,1.3-1.3,2-2c0,0.3,0,0.7,0,1C61.7,53.9,61.4,54.2,61.1,54.6z"/>
	<path class="st8" d="M62.1,45.6c0.5-0.7,1-1.4,1.5-2.1c0.7,1.1,0.9,1.9-0.5,2.1C62.7,45.6,62.4,45.6,62.1,45.6z"/>
	<path class="st9" d="M62.1,53.6c0-0.3,0-0.7,0-1c0.1-0.3,0.3-0.6,0.5-1.1C63.2,52.6,63.4,53.3,62.1,53.6z"/>
	<path class="st10" d="M62.1,45.6c0.3,0,0.7,0,1,0c-0.3,0.3-0.7,0.7-1,1c-0.3,0-0.7,0-1,0C61.4,46.2,61.7,45.9,62.1,45.6z"/>
	<path class="st11" d="M59.1,63.6c-0.3-0.3-0.7-0.7-1-1c0.3,0,0.7,0,1,0s0.7,0,1,0C59.7,62.9,59.4,63.2,59.1,63.6z"/>
	<path class="st12" d="M59.9,61.5c0.2-0.3,0.5-0.5,0.7-0.8c0.1,0.1,0.2,0.2,0.3,0.3c-0.3,0.2-0.5,0.5-0.8,0.7
		C60.1,61.6,60,61.6,59.9,61.5z"/>
	<path class="st11" d="M61.1,46.6c0.3,0,0.7,0,1,0c0,0.3,0,0.7,0,1C61.7,47.2,61.4,46.9,61.1,46.6z"/>
	<path class="st11" d="M60.1,62.6c-0.3,0-0.7,0-1,0c0.3-0.3,0.7-0.7,1-1C60.1,61.9,60.1,62.2,60.1,62.6z"/>
	<path class="st13" d="M79.5,60.6c0.3-2.1,0.6-3.9,0.8-5.8c2.1-2.6,4.3-0.9,6.6,0.2c0,0.7,0,1.7,0,3.2c-0.6,0.4-1.7,1.2-3.4,2.4
		C82.9,60.6,81.2,60.6,79.5,60.6z"/>
</g>
</svg>
