<?xml version="1.0" encoding="utf-8"?>
<!-- Generator: Adobe Illustrator 19.0.0, SVG Export Plug-In . SVG Version: 6.00 Build 0)  -->
<svg version="1.1" id="Warstwa_1" xmlns="http://www.w3.org/2000/svg" xmlns:xlink="http://www.w3.org/1999/xlink" x="0px" y="0px"
	 viewBox="0 0 210.1 120.1" style="enable-background:new 0 0 210.1 120.1;" xml:space="preserve">
<style type="text/css">
	.st0{fill:#FEFEFE;}
	.st1{fill:#9F9F9F;}
	.st2{fill:#A0A0A0;}
	.st3{fill:#A1A1A1;}
	.st4{fill:#A2A2A2;}
	.st5{fill:#FDFDFD;}
	.st6{fill:#F5F5F5;}
</style>
<g>
	<path class="st0" d="M0,119.6c0-40,0-80,0-120c70,0,140,0,210,0c0,40,0,80,0,120C140,119.6,70,119.6,0,119.6z M52.5,39.6
		c-0.5,0.5-0.7,0.8-1,0.9c-4.4,2.4-5.7,6.3-5.6,11.1c0.2,5.1,0,10.3,0,15.4c2,1.9,2,1.9,4.1,2.3c0-3.3,0-6.5,0-10
		c3.5,0.9,6.2,3,10.1,1.4c3.7-1.5,6-3.7,7.7-6.8c0-2.8,0-5.4,0-7.3c-1.3-3.7-3.6-5.6-6.8-7.1C58.6,39.6,55.6,39.6,52.5,39.6z
		 M99,47.1c3.2-5.8,7.8-6.4,14.1-0.2c0.9-0.5,1.9-1.1,3.1-1.8c-2.4-2.1-4.5-3.9-6-5.2c-6.6-1-11.9-0.4-15.2,5.7c0,1,0,2.3,0,3.1
		c1,1.2,1.7,2.1,2.5,3c4.9,0.4,9.7,0.8,14.5,1.2c-2.2,4.2-3.1,4.6-8.7,4.6c-1.7-1.3-3.5-2.6-5.7-4.3c-0.8,0.5-1.8,1-2.8,1.6
		c6.6,8.7,14.7,8.9,21,0c0-1.7,0-3.4,0-5c-2.3-1.9-5-1.4-7.5-1.4c-2.7,0-5.3,0-7.9,0C100,48.1,99.5,47.6,99,47.1z M71.2,54.4
		c3.9,7.9,14.5,10,20.8,1.5c2.4-8.4,0.2-12.9-5.5-16.3c-3,0-6,0-8.4,0C71,42.3,70.3,47.7,71.2,54.4z M149.6,39.6
		c-6.2,3.7-7.5,6.7-6.5,13.5c0.8,5.3,5.3,7.8,9.7,8.3C158.5,62,163.1,59,165,52c0-0.9,0-2.9,0-4.6c-0.9-1.8-1.4-3.5-2.5-4.8
		c-1.1-1.3-2.8-2-4.3-3.1C155.5,39.6,152.7,39.6,149.6,39.6z M118,47.4c0,1.6,0,3.6,0,5.6c3.8,7.9,8.8,9.6,16.6,7.4
		c2.1-2.5,5.7-4.4,5.4-9.2c-2.6,0.9-4.9,1.5-5.4,4.2c-7.3,3-8.9,2.6-12.4-3.3c-0.5-2.3-0.2-4.4,1.1-6.4c1.6-2.4,4.3-2.5,6.5-3.4
		c3.4,1.1,5.4,3.8,7.7,6c0.8,0,1.6,0,2.4,0c-0.1-4.3-1.3-5.8-6.4-8.8c-3.2,0-6.1,0-8.7,0C121.5,41.6,119.6,44.2,118,47.4z
		 M133.8,79.5c0.9-4.9,2.8-9.2,3.1-13.8c-1.2,0-1.9,0-2.4,0c-1.7,2.5-0.6,5.8-3.2,7.9c-0.6-2.8-1.1-5.4-1.7-8
		c-1.7-0.2-3.4-0.5-4.2,0.8c-0.6,2.6-1.2,4.9-1.9,7.9c-1.1-3.5-1.9-6.1-2.8-8.9c-1,0.1-1.9,0.2-2.7,0.3c1.2,4.7,2.3,9.1,3.4,13.6
		c0.9,0,2.1,0,3.4,0c0.8-2.9,1.7-5.8,2.7-9.5c1.1,3.6,2,6.7,2.8,9.6C131.6,79.5,132.6,79.5,133.8,79.5z M155.7,65.6
		c-1.3,1.2-2.5,2.4-3.7,3.4c0,2.4,0,4.8,0,6.8c1.3,1.3,2.4,2.6,3.4,3.7c2.1,0,4.1,0,6.5,0c1.1-1.7,2.2-3.5,3.7-5.9
		c-1.5-0.1-2.3-0.1-3-0.1c-0.9,1.7-1.9,3.3-3.3,4c-2.5,0.3-3.1-1.5-4.3-2.5c0-1.7,0-3.4,0-5.1c1.4-1.1,2.2-3,5.3-2.2
		c0.4,0.5,1.3,1.7,2.2,2.8c1-0.1,1.7-0.2,2.7-0.3c-1.3-1.8-2.5-3.4-3.5-4.7C159.4,65.6,157.5,65.6,155.7,65.6z M106.2,65.7
		c0,4.9,0,9.3,0,13.8c1,0,1.7,0,2.9,0c0-1.7,0-3.2,0-4.5c2.5-0.5,4.7-0.9,6.9-1.4c0.5-2.1,0.9-3.9,1.3-5.6c-0.3,0.1-0.6,0.2-0.9,0.4
		c-0.6-1-1.2-2-1.7-2.7C111.6,65.7,109,65.7,106.2,65.7z M139.2,65.7c0,4.9,0,9.3,0,13.8c1,0,1.7,0,2.9,0c0-1.7,0-3.2,0-4.5
		c2.5-0.5,4.7-0.9,6.9-1.4c0.5-2.1,0.9-3.8,1.3-5.6c-0.3,0.1-0.6,0.3-0.9,0.4c-0.6-1-1.2-2-1.7-2.7C144.6,65.7,142,65.7,139.2,65.7z
		"/>
	<path class="st1" d="M52.5,39.6c3.1,0,6.1,0,8.6,0c3.2,1.4,5.5,3.4,6.8,7.1c0,1.9,0,4.5,0,7.3c-1.6,3.1-4,5.3-7.7,6.8
		c-3.9,1.6-6.6-0.6-10.1-1.4c0,3.5,0,6.7,0,10C48,69,48,69,46,67c0-5.1,0.1-10.3,0-15.4c-0.2-4.8,1.1-8.7,5.6-11.1
		C51.8,40.4,52,40.1,52.5,39.6z M64,47.1c-1.9-2.2-3.6-4-6-4.5c-1.3-0.2-2.9,0.3-4,1c-3.4,1.8-4.4,4.9-3.8,8.6
		c4.5,7.8,9.3,6.4,13.9,0.9C64,51.1,64,49.2,64,47.1z"/>
	<path class="st2" d="M99,47.1c0.5,0.5,0.9,0.9,1.5,1.5c2.6,0,5.3,0,7.9,0c2.6,0,5.2-0.4,7.5,1.4c0,1.6,0,3.2,0,5
		c-6.3,8.9-14.3,8.7-21,0c1-0.6,2-1.2,2.8-1.6c2.2,1.6,3.9,3,5.7,4.3c5.6,0,6.4-0.4,8.7-4.6c-4.9-0.4-9.7-0.8-14.5-1.2
		c-0.8-0.9-1.5-1.8-2.5-3c0-0.9,0-2.2,0-3.1c3.3-6.1,8.6-6.7,15.2-5.7c1.5,1.3,3.6,3.1,6,5.2c-1.3,0.7-2.2,1.3-3.1,1.8
		C106.8,40.7,102.2,41.3,99,47.1z"/>
	<path class="st1" d="M71.2,54.4c-0.9-6.7-0.3-12.1,6.9-14.8c2.4,0,5.4,0,8.4,0c5.7,3.4,8,7.9,5.5,16.3
		C85.7,64.4,75.2,62.3,71.2,54.4z M88.9,52.2c0.5-3.6-0.4-6.7-3.9-8.5c-1.2-0.6-2.8-1.2-4-0.9c-2.6,0.6-4.4,2.5-6,4.5c0,2,0,4,0,6
		C81.4,59.4,84.6,59.2,88.9,52.2z"/>
	<path class="st2" d="M149.6,39.6c3.1,0,5.9,0,8.6,0c1.5,1.1,3.2,1.8,4.3,3.1c1.1,1.2,1.6,3,2.5,4.8c0,1.6,0,3.6,0,4.6
		c-1.9,7-6.5,10-12.2,9.3c-4.4-0.5-8.9-3-9.7-8.3C142,46.3,143.3,43.2,149.6,39.6z M147,53.1c4.3,4.3,6.3,5.3,8.8,4.1
		c1.5-0.8,3.1-1.8,4.1-3.2c1.3-1.7,1.3-3.9,1-6.1c-1.1-1.5-2.2-3-2.9-3.9c-2.1-0.7-3.4-1.1-5.2-1.7c-1.9,1.5-4,3.1-5.8,4.5
		C147,49.2,147,51.1,147,53.1z"/>
	<path class="st2" d="M118,47.4c1.6-3.2,3.5-5.8,6.7-7.8c2.6,0,5.5,0,8.7,0c5.1,2.9,6.3,4.5,6.4,8.8c-0.8,0-1.6,0-2.4,0
		c-2.3-2.2-4.2-4.9-7.7-6c-2.2,0.9-4.9,1-6.5,3.4c-1.3,2-1.6,4.1-1.1,6.4c3.5,5.9,5.2,6.3,12.4,3.3c0.5-2.7,2.8-3.3,5.4-4.2
		c0.3,4.8-3.2,6.7-5.4,9.2c-7.8,2.2-12.8,0.5-16.6-7.4C118,51.1,118,49.1,118,47.4z"/>
	<path class="st3" d="M133.8,79.5c-1.2,0-2.2,0-3.4,0c-0.9-2.9-1.8-6-2.8-9.6c-1,3.7-1.9,6.6-2.7,9.5c-1.4,0-2.5,0-3.4,0
		c-1.1-4.5-2.2-8.9-3.4-13.6c0.8-0.1,1.7-0.2,2.7-0.3c0.9,2.8,1.7,5.4,2.8,8.9c0.7-3.1,1.3-5.3,1.9-7.9c0.9-1.4,2.5-1,4.2-0.8
		c0.5,2.6,1.1,5.2,1.7,8c2.6-2.1,1.5-5.4,3.2-7.9c0.4,0,1.2,0,2.4,0C136.6,70.3,134.7,74.6,133.8,79.5z"/>
	<path class="st3" d="M155.7,65.6c1.8,0,3.8,0,6.1,0c1,1.4,2.1,2.9,3.5,4.7c-1,0.1-1.7,0.2-2.7,0.3c-0.9-1.1-1.8-2.3-2.2-2.8
		c-3.1-0.9-4,1.1-5.3,2.2c0,1.7,0,3.3,0,5.1c1.2,0.9,1.8,2.8,4.3,2.5c1.4-0.7,2.5-2.2,3.3-4c0.8,0,1.6,0.1,3,0.1
		c-1.5,2.4-2.7,4.2-3.7,5.9c-2.4,0-4.3,0-6.5,0c-1-1.1-2.2-2.3-3.4-3.7c0-2.1,0-4.4,0-6.8C153.1,68,154.4,66.8,155.7,65.6z"/>
	<path class="st4" d="M106.2,65.7c2.8,0,5.4,0,8.5,0c0.4,0.7,1.1,1.7,1.7,2.7c0.3-0.1,0.6-0.2,0.9-0.4c-0.4,1.8-0.8,3.6-1.3,5.6
		c-2.2,0.4-4.3,0.9-6.9,1.4c0,1.3,0,2.8,0,4.5c-1.1,0-1.9,0-2.9,0C106.2,75,106.2,70.5,106.2,65.7z M109.1,71.6
		c2.1-0.2,4.3,0.6,4.9-2.3c-1.2-2.3-3.1-1.9-4.9-1.5C109.1,69.1,109.1,70.2,109.1,71.6z"/>
	<path class="st4" d="M139.2,65.7c2.8,0,5.4,0,8.5,0c0.4,0.7,1,1.7,1.7,2.7c0.3-0.1,0.6-0.3,0.9-0.4c-0.4,1.8-0.8,3.6-1.3,5.6
		c-2.2,0.4-4.3,0.9-6.9,1.4c0,1.3,0,2.8,0,4.5c-1.1,0-1.9,0-2.9,0C139.2,75,139.2,70.5,139.2,65.7z M142.2,71.4
		c1,0.1,2.3,0.1,3.5,0.2c-0.2-0.2-0.4-0.5-0.5-0.7c0.8-0.3,1.6-0.6,2.4-0.8c0-0.3,0-0.6,0-0.9c-0.8-0.3-1.6-0.6-2.3-0.9
		c0.2-0.2,0.3-0.3,0.5-0.5c-1.1,0-2.2,0-3.4,0C142.2,68.9,142.2,70,142.2,71.4z"/>
	<path class="st5" d="M64,47.1c0,2,0,4,0,6c-4.5,5.5-9.4,6.9-13.9-0.9c-0.6-3.7,0.4-6.7,3.8-8.6c1.2-0.7,2.8-1.2,4-1
		C60.4,43.1,62.1,45,64,47.1z"/>
	<path class="st5" d="M88.9,52.2c-4.3,7-7.6,7.3-13.9,1c0-1.9,0-3.9,0-6c1.6-2,3.4-3.9,6-4.5c1.2-0.3,2.8,0.3,4,0.9
		C88.5,45.4,89.4,48.5,88.9,52.2z"/>
	<path class="st5" d="M147,53.1c0-2,0-3.8,0-6.3c1.8-1.4,3.9-3,5.8-4.5c1.8,0.6,3.2,1,5.2,1.7c0.7,0.9,1.8,2.4,2.9,3.9
		c0.3,2.2,0.3,4.4-1,6.1c-1,1.3-2.6,2.4-4.1,3.2C153.3,58.4,151.3,57.3,147,53.1z"/>
	<path class="st6" d="M109.1,71.6c0-1.4,0-2.5,0-3.8c1.9-0.4,3.7-0.7,4.9,1.5C113.4,72.2,111.2,71.4,109.1,71.6z"/>
	<path class="st6" d="M142.2,71.4c0-1.5,0-2.6,0-3.8c1.2,0,2.3,0,3.4,0c-0.2,0.2-0.3,0.3-0.5,0.5c0.8,0.3,1.6,0.6,2.3,0.9
		c0,0.3,0,0.6,0,0.9c-0.8,0.3-1.6,0.6-2.4,0.8c0.2,0.2,0.4,0.5,0.5,0.7C144.4,71.5,143.2,71.5,142.2,71.4z"/>
</g>
</svg>
