<?xml version="1.0" encoding="utf-8"?>
<!-- Generator: Adobe Illustrator 25.1.0, SVG Export Plug-In . SVG Version: 6.00 Build 0)  -->
<svg version="1.1" id="Warstwa_1" xmlns="http://www.w3.org/2000/svg" xmlns:xlink="http://www.w3.org/1999/xlink" x="0px" y="0px"
	 viewBox="0 0 210 120" style="enable-background:new 0 0 210 120;" xml:space="preserve">
<style type="text/css">
	.st0{fill:#9F9F9F;}
</style>
<g>
	<path class="st0" d="M105.21,78.12V65.17h4.2c1.59,0,2.63,0.06,3.11,0.2c0.74,0.19,1.36,0.62,1.87,1.27
		c0.5,0.65,0.75,1.49,0.75,2.52c0,0.8-0.14,1.46-0.43,2.01c-0.29,0.54-0.66,0.97-1.1,1.28c-0.44,0.31-0.9,0.51-1.36,0.61
		c-0.62,0.12-1.53,0.18-2.71,0.18h-1.71v4.89H105.21z M134.37,78.12V65.17h4.2c1.59,0,2.63,0.06,3.11,0.2
		c0.74,0.19,1.36,0.62,1.87,1.27c0.5,0.65,0.75,1.49,0.75,2.52c0,0.8-0.14,1.46-0.43,2.01c-0.29,0.54-0.65,0.97-1.1,1.28
		c-0.45,0.31-0.9,0.51-1.36,0.61c-0.63,0.12-1.53,0.18-2.71,0.18h-1.71v4.89H134.37z M84.13,45.06c3.54,0,6.34,2.97,6.34,6.5
		c0,3.51-2.8,6.5-6.34,6.5c-3.54,0-6.33-2.99-6.33-6.5C77.8,48.02,80.59,45.06,84.13,45.06z M62.28,41.65c-5.55,0-9.9,4.3-9.9,9.9
		v13.17c0,0-0.19,1.75,0.64,2.94c0.58,0.85,1.4,1.47,2.27,1.5c0.63-0.05,0.67-0.84,0.67-0.84v-9.04c1.69,1.39,3.9,2.21,6.32,2.21
		c5.58,0,9.94-4.29,9.94-9.93C72.22,45.96,67.86,41.65,62.28,41.65z M147.68,45.06c3.54,0,6.34,2.97,6.34,6.5
		c0,3.51-2.8,6.5-6.34,6.5c-3.54,0-6.37-2.99-6.37-6.5C141.3,48.02,144.14,45.06,147.68,45.06z M135.49,54.85
		c-1.48,4.11-4.96,6.63-9.42,6.63c-5.57,0-9.95-4.29-9.95-9.93c0-5.6,4.39-9.9,9.95-9.9c4.6,0,8.38,2.89,9.59,7.05
		c0.29,1.06-0.09,1.17-0.69,1.3c-0.63,0.14-1.53-0.08-2.14-0.44c-0.63-0.35-1.55-1.68-1.55-1.68c-1.15-1.72-3-2.83-5.2-2.83
		c-3.53,0-6.39,2.97-6.39,6.5c0,3.51,2.86,6.5,6.39,6.5c2.34,0,4.39-1.3,5.47-3.21c0,0,0.68-1.18,2.18-1.53
		c1.5-0.36,1.85,0.17,1.85,0.17S135.95,53.65,135.49,54.85z M62.28,58.03c-3.51,0-6.36-2.91-6.36-6.48c0-3.59,2.85-6.5,6.36-6.5
		c3.54,0,6.4,2.91,6.4,6.5C68.68,55.12,65.82,58.03,62.28,58.03z M109.52,53.38c1.15,0.05,1.45,0.6,1.04,1.61
		c-0.74,1.79-3.26,3.25-5.47,3.23c-2.69-0.06-4.05-1.42-5.08-2.5c-1.07-1.1-2.97-1.1-3.57-0.87c-0.63,0.21-0.33,1.17-0.09,1.65
		c1.64,3.19,5.2,4.95,8.58,4.98c3.6,0.05,6.8-1.68,8.66-4.7c1.87-3.05,1.08-6.75-3.22-6.78c0-0.03-9.69-0.14-9.69-0.14
		c-1.42,0-1.57-0.9-1.14-1.76c0.9-1.86,3.13-3.22,5.68-3.19c2.57,0.06,3.93,1.55,4.8,2.37c0.89,0.89,2.77,1.17,3.62,0.75
		c0.4-0.21,0.38-0.79,0-1.52c-1.61-3.11-5.08-4.82-8.58-4.87c-3-0.03-6.4,1.36-8.47,4.51c-1.68,2.65-1.61,7.02,4.41,7.11
		L109.52,53.38z M147.68,41.65c-5.58,0-9.94,4.3-9.94,9.9c0,5.64,4.36,9.93,9.94,9.93c5.55,0,9.93-4.29,9.93-9.93
		C157.6,45.96,153.23,41.65,147.68,41.65z M84.13,41.65c-5.55,0-9.94,4.3-9.94,9.9c0,5.64,4.39,9.93,9.94,9.93
		c5.55,0,9.94-4.29,9.94-9.93C94.07,45.96,89.68,41.65,84.13,41.65z M154.97,72.66h2.67c-0.39,2.22-0.92,3.46-2.31,4.65
		c-0.86,0.74-2.05,1.03-3.44,1.03c-1.72,0-3.14-0.59-4.24-1.76c-1.11-1.18-1.66-2.78-1.66-4.82c0-2.16,0.56-3.83,1.67-5.03
		c1.11-1.19,2.58-1.79,4.39-1.79c1.58,0,2.94,0.41,3.86,1.4c0.93,1,1.38,2.2,1.55,3.84h-2.55c-0.15-0.67-0.73-2.04-1.22-2.43
		c-0.49-0.39-1.08-0.58-1.77-0.58c-0.96,0-1.74,0.35-2.34,1.03c-0.6,0.69-0.9,1.81-0.9,3.35c0,1.64,0.29,2.81,0.88,3.5
		c0.59,0.7,1.36,1.04,2.3,1.04c0.69,0,1.29-0.22,1.79-0.66C154.16,75,154.75,73.61,154.97,72.66z M136.99,67.36v3.68h1.43
		c1.03,0,1.72-0.07,2.07-0.2c0.35-0.14,0.62-0.35,0.82-0.64c0.2-0.29,0.3-0.62,0.3-1.01c0-0.47-0.14-0.86-0.42-1.17
		c-0.28-0.31-0.63-0.5-1.05-0.57c-0.31-0.06-0.94-0.09-1.88-0.09H136.99z M119.13,78.12l-3.09-12.96h2.68l1.95,8.9l2.37-8.9h3.11
		l2.27,9.05l1.99-9.05h2.63l-3.15,12.96h-2.78l-2.58-9.69l-2.57,9.69H119.13z M107.83,67.36v3.68h1.43c1.03,0,1.72-0.07,2.07-0.2
		c0.35-0.14,0.62-0.35,0.82-0.64c0.2-0.29,0.3-0.62,0.3-1.01c0-0.47-0.14-0.86-0.42-1.17c-0.28-0.31-0.63-0.5-1.05-0.57
		c-0.31-0.06-0.94-0.09-1.88-0.09H107.83z"/>
</g>
</svg>
