<?xml version="1.0" encoding="utf-8"?>
<!-- Generator: Adobe Illustrator 25.1.0, SVG Export Plug-In . SVG Version: 6.00 Build 0)  -->
<svg version="1.1" id="Warstwa_1" xmlns="http://www.w3.org/2000/svg" xmlns:xlink="http://www.w3.org/1999/xlink" x="0px" y="0px"
	 viewBox="0 0 210 120" style="enable-background:new 0 0 210 120;" xml:space="preserve">
<style type="text/css">
	.st0{fill:#9F9F9F;}
	.st1{fill-rule:evenodd;clip-rule:evenodd;fill:#9F9F9F;}
</style>
<g>
	<g>
		<path class="st0" d="M96.8,73.09v0.47h-0.69v-0.32C96.33,73.18,96.57,73.13,96.8,73.09z"/>
	</g>
	<g>
		<g>
			<path class="st0" d="M110,46.06l-0.34,0.07l0.39-0.03L110,46.06z"/>
		</g>
	</g>
	<g>
		<polygon class="st1" points="93.91,81.01 94.64,81.07 95.57,81.12 96.57,81.12 97.47,81.12 97.86,81.12 98.21,81.12 98.9,81.12 
			99.25,81.12 99.56,81.1 100.4,81.01 100.4,84.11 99.42,84.06 98.25,84 98.26,85.41 98.27,86.69 98.28,88.84 98.29,90.68 
			98.29,93.59 96.04,93.59 96.04,88.9 96.05,87.12 96.06,84 93.91,84.11 		"/>
	</g>
	<g>
		<path class="st0" d="M93.31,90.4l-0.49-1.36l-0.94-2.64l-1.18-3.3l-0.6-1.69l-0.39-1.09h-0.1l-0.36,1.05l-0.3,0.91l-0.27,0.82
			l-0.24,0.76l-0.35,1.05l-0.4,1.25l-0.33,1.01l-0.34,1.05l-0.23,0.69l-0.24,0.75l-0.86,2.62l1.86,1.9l0.16-0.62l0.18-0.69
			l0.16-0.59l0.15-0.55l2.96-0.32l0.87,2.78l1.93-2.09L93.31,90.4z M88.79,89.07l0.27-1.07l0.21-0.8l0.18-0.66l0.18-0.64l0.82,2.99
			L88.79,89.07z"/>
	</g>
	<g>
		<polygon class="st1" points="82.39,80.94 84.67,80.94 84.64,83.49 84.61,86.85 84.64,90.64 84.67,93.59 82.39,93.59 82.41,87.9 		
			"/>
	</g>
	<g>
		<path class="st1" d="M76.25,82.37h0.1l1.96,5.25l1.26-6.67l1.98,1.46l-0.33,1.32l-0.5,1.96l-0.51,1.97l-0.3,1.21l-0.27,1.07
			l-0.35,1.33c-0.13,0.51-0.26,0.98-0.38,1.41c-0.12,0.43-0.25,0.9-0.4,1.41H78.4l-2.16-5.48l-0.61,1.64l-0.58,1.46l-0.53,1.39
			L74,94.5h-0.1c-0.13-0.61-0.26-1.21-0.4-1.81c-0.14-0.6-0.24-1.06-0.32-1.38l-0.82-3.47L71.7,85l-0.23-1.03l-0.21-0.96l-0.19-0.85
			l2.08-1.39l0.44,2.53c0.11,0.66,0.19,1.13,0.23,1.41c0.04,0.27,0.1,0.61,0.18,1l0.17,0.96l0.22,1.28c0.4-1.21,0.76-2.3,1.08-3.27
			C75.68,84.05,75.94,83.28,76.25,82.37z"/>
	</g>
	<g>
		<path class="st0" d="M70.47,85.07c-0.1-0.69-0.25-1.28-0.44-1.78c-0.1-0.28-0.2-0.53-0.32-0.75c-0.11-0.21-0.25-0.42-0.4-0.6
			c-0.3-0.38-0.65-0.68-1.05-0.91c-0.4-0.23-0.96-0.34-1.66-0.34c-0.6,0-1.2,0.25-1.79,0.75c-0.6,0.5-1.1,1.24-1.5,2.22
			c-0.4,0.98-0.64,2.16-0.73,3.54l-0.02,0.66c0,0.4,0.02,0.8,0.07,1.18c0.05,0.39,0.12,0.76,0.21,1.11
			c0.18,0.71,0.45,1.36,0.81,1.93c0.36,0.58,0.79,1.02,1.29,1.33c0.5,0.31,1.05,0.46,1.65,0.46c0.32,0,0.61-0.06,0.88-0.17
			c0.27-0.11,0.54-0.27,0.81-0.47c0.49-0.37,0.9-0.86,1.24-1.49c0.34-0.62,0.6-1.33,0.78-2.13c0.1-0.45,0.18-0.86,0.22-1.22
			c0.04-0.36,0.06-0.76,0.06-1.2C70.61,86.52,70.56,85.81,70.47,85.07z M68.17,88.13c-0.03,0.29-0.06,0.58-0.11,0.9
			c-0.1,0.56-0.26,1.03-0.5,1.43c-0.23,0.39-0.55,0.63-0.96,0.7h-0.14c-0.42,0-0.78-0.34-1.07-1.03c-0.29-0.69-0.43-1.66-0.43-2.92
			c0-0.38,0.02-0.73,0.06-1.05c0.04-0.32,0.1-0.61,0.18-0.87c0.14-0.53,0.33-0.97,0.58-1.32c0.14-0.18,0.27-0.31,0.39-0.39
			c0.13-0.08,0.27-0.12,0.42-0.12h0.1c0.46,0,0.83,0.31,1.1,0.95c0.27,0.67,0.4,1.61,0.4,2.83C68.21,87.54,68.2,87.85,68.17,88.13z"
			/>
	</g>
	<g>
		<path class="st0" d="M61.81,83.62c-0.08-0.34-0.2-0.65-0.35-0.93c-0.21-0.4-0.53-0.74-0.94-1c-0.41-0.27-0.83-0.44-1.27-0.53
			c-0.15-0.05-0.29-0.08-0.41-0.1c-0.12-0.02-0.24-0.03-0.35-0.03l-0.85-0.05h-0.51l-0.55-0.02l-0.36-0.02v1.9l0.01,1.05l0.01,1.05
			v0.75l0.01,0.89l0.01,0.68v2.13l-0.04,4.2h2.18v-3.13c0.19-0.05,0.38-0.11,0.57-0.2c0.18-0.08,0.37-0.2,0.57-0.34
			c0.39-0.25,0.77-0.62,1.14-1.11c0.38-0.49,0.68-1.09,0.9-1.8c0.23-0.71,0.34-1.47,0.34-2.29C61.94,84.33,61.9,83.96,61.81,83.62z
			 M59.48,86.78c-0.16,0.37-0.36,0.65-0.58,0.85c-0.22,0.2-0.39,0.3-0.48,0.3l-0.02-4.48c0.4,0.07,0.73,0.27,0.98,0.6
			c0.25,0.33,0.37,0.81,0.37,1.45C59.74,86,59.65,86.42,59.48,86.78z"/>
	</g>
	<g>
		<polygon class="st1" points="151.49,81.03 153.76,81.03 153.73,83.57 153.7,86.93 153.73,90.72 153.76,93.68 151.49,93.68 
			151.51,87.98 		"/>
	</g>
	<g>
		<polygon class="st1" points="145.95,87.84 145.93,88.75 145.96,90.58 145.98,91.43 146,92.32 146.01,93.85 143.73,93.85 
			143.74,91.97 143.74,91.42 143.74,90.69 143.75,89.94 143.76,88.71 143.77,87.75 143.78,85.72 143.77,82.97 143.73,80.85 
			146.01,80.85 145.98,82.93 145.96,85.03 145.95,85.65 145.95,86.24 145.95,86.68 145.99,86.68 146.1,86.42 146.27,86.03 
			146.42,85.67 146.71,84.99 147.03,84.26 147.34,83.57 147.61,82.95 147.8,82.5 148.03,82.01 148.32,81.35 148.58,80.74 
			150.2,83.36 148.14,87.22 148.45,87.82 148.65,88.2 149.11,89.09 149.68,90.21 150.29,91.38 148.56,94.12 148.16,93.14 
			147.68,92.02 147.38,91.29 147.17,90.78 146.99,90.33 146.75,89.74 145.99,87.84 		"/>
	</g>
	<g>
		<path class="st1" d="M138.29,83.11c0.28-0.52,0.7-1.02,1.27-1.49c0.57-0.47,1.26-0.77,2.08-0.92l0.27,2.99
			c-0.23,0-0.42,0.01-0.55,0.03c-0.13,0.02-0.27,0.04-0.41,0.08c-0.14,0.04-0.25,0.07-0.33,0.12c-0.08,0.04-0.17,0.1-0.28,0.19
			c-0.18,0.17-0.27,0.4-0.27,0.71c0,0.17,0.05,0.31,0.16,0.43c0.09,0.14,0.27,0.33,0.54,0.57l0.2,0.18l0.17,0.18l0.15,0.14
			c0.73,0.71,1.09,1.59,1.09,2.63l-0.01,0.27l-0.01,0.27c-0.05,0.57-0.18,1.1-0.4,1.59c-0.21,0.49-0.5,0.95-0.86,1.36
			c-0.36,0.42-0.78,0.75-1.26,1.01c-0.22,0.13-0.47,0.24-0.73,0.34c-0.27,0.09-0.54,0.17-0.81,0.21l-0.27-3.02
			c0.52,0,0.98-0.11,1.38-0.33c0.4-0.22,0.6-0.53,0.6-0.93c0-0.17-0.05-0.32-0.15-0.47c-0.1-0.15-0.19-0.27-0.28-0.36
			c-0.03-0.05-0.12-0.14-0.26-0.28l-0.56-0.61c-0.69-0.78-1.03-1.67-1.03-2.65c0-0.4,0.06-0.82,0.19-1.25
			C137.99,83.74,138.12,83.42,138.29,83.11z"/>
	</g>
	<g>
		<path class="st1" d="M132.25,82.45h0.1l1.96,5.25l1.26-6.67l1.98,1.46l-0.33,1.32l-0.5,1.96l-0.51,1.98l-0.3,1.21l-0.27,1.07
			l-0.35,1.33c-0.13,0.51-0.26,0.98-0.38,1.41c-0.12,0.43-0.25,0.9-0.4,1.41h-0.11l-2.16-5.48l-0.61,1.64l-0.58,1.46l-0.53,1.39
			l-0.53,1.42h-0.1c-0.13-0.6-0.26-1.21-0.4-1.81c-0.14-0.6-0.24-1.06-0.32-1.38l-0.82-3.47l-0.66-2.85l-0.23-1.03l-0.21-0.96
			l-0.19-0.85l2.08-1.39l0.44,2.53c0.11,0.66,0.19,1.13,0.23,1.41c0.04,0.27,0.1,0.6,0.18,1l0.17,0.96l0.22,1.28
			c0.4-1.21,0.76-2.3,1.08-3.27C131.68,84.13,131.94,83.36,132.25,82.45z"/>
	</g>
	<g>
		<path class="st0" d="M127.16,90.48l-0.49-1.36l-0.94-2.64l-1.18-3.3l-0.61-1.69l-0.39-1.09h-0.1l-0.36,1.05l-0.3,0.91l-0.27,0.82
			l-0.24,0.76l-0.35,1.05l-0.4,1.25l-0.33,1.01l-0.34,1.05L120.62,89l-0.24,0.75l-0.86,2.62l1.86,1.9l0.16-0.62l0.18-0.69l0.16-0.59
			l0.15-0.55l2.96-0.32l0.87,2.78l1.93-2.09L127.16,90.48z M122.64,89.16l0.27-1.07l0.21-0.8l0.18-0.66l0.18-0.64l0.82,2.99
			L122.64,89.16z"/>
	</g>
	<g>
		<path class="st0" d="M113.06,85.15c-0.1-0.69-0.25-1.28-0.44-1.78c-0.1-0.28-0.2-0.53-0.32-0.75c-0.11-0.21-0.25-0.42-0.4-0.6
			c-0.3-0.38-0.65-0.68-1.05-0.91c-0.4-0.23-0.96-0.34-1.66-0.34c-0.6,0-1.2,0.25-1.79,0.75c-0.6,0.5-1.1,1.24-1.5,2.22
			c-0.4,0.98-0.64,2.16-0.73,3.54l-0.02,0.66c0,0.4,0.02,0.8,0.07,1.18c0.05,0.39,0.12,0.76,0.21,1.11
			c0.18,0.71,0.45,1.36,0.81,1.93c0.36,0.58,0.79,1.02,1.29,1.33c0.5,0.31,1.05,0.46,1.65,0.46c0.32,0,0.61-0.06,0.88-0.17
			c0.27-0.11,0.54-0.27,0.81-0.47c0.49-0.37,0.9-0.86,1.24-1.49c0.34-0.62,0.6-1.33,0.78-2.13c0.1-0.45,0.18-0.86,0.22-1.22
			c0.04-0.36,0.06-0.76,0.06-1.2C113.2,86.6,113.15,85.89,113.06,85.15z M110.76,88.22c-0.03,0.29-0.06,0.58-0.11,0.9
			c-0.1,0.56-0.26,1.03-0.5,1.43c-0.23,0.39-0.55,0.63-0.96,0.7h-0.14c-0.42,0-0.78-0.34-1.07-1.03c-0.29-0.69-0.43-1.66-0.43-2.92
			c0-0.38,0.02-0.73,0.06-1.05c0.04-0.32,0.1-0.61,0.18-0.87c0.14-0.53,0.33-0.97,0.58-1.32c0.14-0.18,0.27-0.31,0.4-0.39
			c0.13-0.08,0.27-0.12,0.42-0.12h0.1c0.46,0,0.83,0.31,1.1,0.95c0.27,0.67,0.4,1.61,0.4,2.83
			C110.8,87.63,110.78,87.93,110.76,88.22z"/>
	</g>
	<g>
		<path class="st1" d="M119.13,91.32v2.42l-4.91-0.1c0.06-0.36,0.11-0.69,0.15-0.96c0.03-0.12,0.07-0.47,0.15-1.05l0.29-2.78
			l-0.37,0.03l-0.47,0.06l-0.01-1.69c0.28,0,0.65,0,0.96-0.06l-0.14-5.81c0-0.25,0.17-0.47,0.37-0.47l1.17-0.03
			c0.21-0.01,0.39,0.19,0.4,0.45l0.14,5.77c0.04-0.01,0.1-0.04,0.15-0.07l0.78-0.11l0.76-0.11l-0.04,1.82l-1.67,0.15
			c-0.15,0.76,0.01,1.86-0.21,2.6c0.15,0,0.28,0.07,0.96,0.01C118.28,91.35,118.79,91.32,119.13,91.32z"/>
	</g>
	<polygon class="st1" points="109.64,45.78 109.64,46.13 109.01,46.24 109.01,45.78 	"/>
	<path class="st0" d="M106.78,71.35v0.12h-0.67v-0.04C106.32,71.39,106.56,71.38,106.78,71.35z"/>
	<path class="st0" d="M116.68,57.33c-0.12-0.15-0.39-0.4-0.65-0.62l2.01-1.07l-0.96-5.55l-6.43-6.22l-2.26,0.41l-5.96-0.72
		l-1.13-1.95l-2.04-3.67l2.15-1.02h5.56l4.47,5.66l1.67-1.31l-5.11-6.47h-1.33v-0.67h-2.22v-5.77c0.73-0.1,1.29-0.72,1.29-1.47
		c0-0.81-0.67-1.47-1.5-1.47c-0.83,0-1.5,0.66-1.5,1.47c0,0.73,0.52,1.33,1.22,1.46v5.78h-2.12v0.67h-0.67l-4.2,1.97l0.87,1.83
		l0.22-0.11l2.77,6.61l0.01,0.07l-2.78,0.17l-3,2.79l-2.71,2.71l1.35,1.36l2.12,4.4l3.03-1.61l2.86-0.58l2.7-0.19h2.68l2.52,0.58
		l2.67,0.58l0.14,0.11l-1.47,0.15h-2.67l-3.21,0.12l-2.92,0.36l-2.63,0.48l-3.87,1.54l-2.89,2.74l3.33,1.42v10.94
		c-5.71,1.43-10.57,3.39-14.06,5.75l1.14,1.68c6.56-4.43,18.29-7.38,31.45-7.89v4.58l2.11-0.01l-0.04-9.56c0,0,0.03-2.16,0.12-2.88
		c0.07-0.47,0.45-1.84,0.45-1.84l0.25-1.62l0.07-1.14c0,0-0.08-1.31-0.22-1.72C117.26,58.25,116.91,57.6,116.68,57.33z M98.45,38.32
		l0.45-0.22l2.05,3.72l1.24,2.13l4.84,0.58l-2.2,0.4l-3.55,0.21l-0.06-0.18L98.45,38.32z M109.69,54.51l-2.56-0.58h-2.72l-2.72,0.19
		l-2.9,0.58l-2.81,1.5l-1.97-4.11l2.49-2.49l2.44-2.27l0.63-0.04v4.67h0.3v-4.68l5.22-0.33l3.92-0.7v5.71h0.63v-5.82h0.01l0.34-0.07
		l0.04,0.04l5.15,5l0.59,3.36l-2.19,0.92l-0.74,0.07l-0.39-0.32L109.69,54.51z M106.1,71.44c-3.28,0.4-6.4,0.95-9.3,1.65V62.32
		l0.7-1.65l-0.7-0.3v-0.48l3.21-1.31l2.46-0.44l2.78-0.36l0.85-0.03V71.44z M115.54,60.38l-0.04,0.84c0,0-0.15,1.09-0.22,1.44
		c-0.1,0.47-0.36,1.42-0.45,1.89c-0.19,0.88-0.18,1.58-0.18,1.58v4.61c-2.68,0.11-5.33,0.3-7.87,0.61V57.73l1.56-0.06l2.7-0.06
		c0,0,0.76-0.03,1.47-0.04l0.34,0.84l1.24-0.66c0.03,0,0.06,0.01,0.08,0.03c0.41,0.18,0.63,0.44,0.83,0.7
		c0.12,0.17,0.33,0.55,0.41,0.74C115.6,59.75,115.54,60.38,115.54,60.38z"/>
</g>
</svg>
