<?xml version="1.0" encoding="utf-8"?>
<!-- Generator: Adobe Illustrator 25.1.0, SVG Export Plug-In . SVG Version: 6.00 Build 0)  -->
<svg version="1.1" id="Warstwa_1" xmlns="http://www.w3.org/2000/svg" xmlns:xlink="http://www.w3.org/1999/xlink" x="0px" y="0px"
	 viewBox="0 0 210 120" style="enable-background:new 0 0 210 120;" xml:space="preserve">
<style type="text/css">
	.st0{fill:#9F9F9F;}
</style>
<g>
	<path class="st0" d="M76.84,52.35h-4.57l-6.54,13.18l-2.8-4.41l0.31-0.05c0.5-0.09,1.12-0.41,1.51-0.72
		c1.09-0.86,1.49-2.16,1.49-3.51c0-2.67-2-4.49-4.64-4.49H50.97v15.4h4.82v-5.65h3.06l3.51,5.63h1.93c1.71,0,3.56,0.01,5.24,0.01
		l1.35-2.59h7.31l1.36,2.59h4.91L76.84,52.35z M59.72,58.95H55.8V55.6h3.85c1.13,0,1.73,0.51,1.73,1.68
		C61.37,58.39,60.84,58.95,59.72,58.95z M72.04,62.32l2.53-5.22l2.49,5.22H72.04z"/>
	<path class="st0" d="M29.45,52.4h10.28c-1.85,1.09-3.44,2.82-3.44,5.61l-0.01,9.69h-6.83V52.4z"/>
	<path class="st0" d="M40.44,60.36c-0.51-0.61-0.79-1.39-0.79-2.2c0-1.89,1.54-3.43,3.43-3.43c0.63,0,1.27,0.19,1.8,0.51
		L40.44,60.36z M45.75,56.02c0.51,0.61,0.79,1.39,0.79,2.2c0,1.89-1.54,3.43-3.43,3.43c-0.65,0-1.31-0.2-1.85-0.55L45.75,56.02z
		 M37.41,58.19c0,3.13,2.56,5.69,5.69,5.69c3.14,0,5.69-2.56,5.69-5.69c0-3.12-2.54-5.68-5.66-5.69
		C40,52.49,37.41,55.04,37.41,58.19z"/>
	<polygon class="st0" points="107.88,52.34 99.95,52.33 96.35,59.54 91.94,52.41 87.58,59.54 83.97,52.33 79.19,52.33 86.66,67.76 
		88.42,67.76 91.88,60.78 95.5,67.76 97.27,67.76 103.65,54.57 103.65,67.74 111.56,67.74 113.49,63.94 107.88,63.94 	"/>
	<polygon class="st0" points="134.35,52.22 130.11,52.22 130.11,67.76 138.02,67.76 139.96,63.92 134.35,63.92 	"/>
	<path class="st0" d="M154.89,52.22h-4.37v8.17c0,2.07-0.44,3.49-2.67,3.48c-0.44,0-0.9-0.02-1.31-0.18
		c-1.22-0.48-1.36-2.04-1.36-3.17v-8.29h-4.52v8.16c0,1.21,0.02,2.76,0.34,3.93c0.18,0.64,0.49,1.22,0.95,1.7
		c0.56,0.59,1.35,1,2.11,1.29c1.12,0.42,2.75,0.47,3.94,0.47c1.12,0,2.4-0.09,3.47-0.46c0.73-0.26,1.57-0.59,2.13-1.14
		c0.53-0.53,0.83-1.25,1.01-1.96c0.29-1.14,0.29-2.77,0.29-3.94V52.22z"/>
	<path class="st0" d="M170.48,57.43v-3.85c-1.91-0.91-3.88-1.36-6.01-1.37c-4.46,0.01-8.66,3.17-8.68,7.86
		c0.11,5.35,3.42,7.47,8.52,7.68c2.3,0,4.61-0.54,6.13-2.38v-4.79h-4.25v2.69l-0.02,0.04c-0.19,0.41-0.58,0.58-1.01,0.64
		c-3.04,0.23-4.95-0.96-4.92-4.16c-0.01-0.76,0.18-1.48,0.62-2.1c0.87-1.25,2.43-1.7,3.88-1.74
		C166.71,55.89,168.73,56.55,170.48,57.43"/>
	<path class="st0" d="M123.98,52.31l-9.61,0.06v15.42h4.6v-5.25c4.01,0,9.9,0.99,9.96-5.55C128.93,54.38,126.65,52.31,123.98,52.31
		 M122.76,59.08H119v-3.63h3.72c0.98,0,1.93,0.3,1.93,1.79C124.64,58.56,123.93,59.08,122.76,59.08z"/>
	<path class="st0" d="M177.2,58.91c-1.84,0-3.35-1.5-3.35-3.34c0-1.85,1.5-3.35,3.35-3.35c1.85,0,3.35,1.5,3.35,3.35
		C180.55,57.41,179.05,58.91,177.2,58.91 M177.2,52.86c-1.49,0-2.7,1.21-2.7,2.71c0,1.49,1.21,2.7,2.7,2.7
		c1.49,0,2.71-1.21,2.71-2.7C179.91,54.07,178.7,52.86,177.2,52.86z"/>
	<path class="st0" d="M176.86,53.64c0.52,0,0.92,0.1,1.2,0.3c0.28,0.2,0.42,0.51,0.42,0.92c0,0.52-0.24,0.86-0.73,1.05
		c0.07,0.08,0.14,0.19,0.22,0.31c0.08,0.12,0.17,0.25,0.26,0.39c0.09,0.14,0.17,0.28,0.25,0.43c0.08,0.15,0.15,0.29,0.22,0.44h-0.74
		c-0.07-0.13-0.14-0.26-0.22-0.4c-0.08-0.13-0.15-0.26-0.23-0.39c-0.08-0.12-0.16-0.25-0.23-0.36c-0.08-0.11-0.15-0.21-0.21-0.3
		c-0.05,0-0.09,0-0.13,0h-0.1h-0.32v1.44h-0.66v-3.74c0.16-0.04,0.33-0.06,0.51-0.08C176.55,53.65,176.71,53.64,176.86,53.64
		 M176.9,54.24c-0.14,0-0.27,0.01-0.39,0.02v1.23h0.29c0.16,0,0.3-0.01,0.42-0.03c0.12-0.02,0.22-0.05,0.31-0.1
		c0.08-0.05,0.14-0.11,0.19-0.19c0.04-0.08,0.06-0.18,0.06-0.31c0-0.12-0.02-0.22-0.06-0.3c-0.04-0.08-0.1-0.14-0.18-0.19
		c-0.08-0.05-0.17-0.08-0.28-0.1C177.15,54.25,177.03,54.24,176.9,54.24z"/>
</g>
</svg>
