<?xml version="1.0" encoding="utf-8"?>
<!-- Generator: Adobe Illustrator 19.0.0, SVG Export Plug-In . SVG Version: 6.00 Build 0)  -->
<svg version="1.1" id="Warstwa_1" xmlns="http://www.w3.org/2000/svg" xmlns:xlink="http://www.w3.org/1999/xlink" x="0px" y="0px"
	 viewBox="0 0 210.1 120.1" style="enable-background:new 0 0 210.1 120.1;" xml:space="preserve">
<style type="text/css">
	.st0{fill:#FEFEFE;}
	.st1{fill:#9F9F9F;}
	.st2{fill:#A1A1A1;}
	.st3{fill:#C5C5C5;}
	.st4{fill:#E5E5E5;}
	.st5{fill:#DFDFDF;}
	.st6{fill:#DEDEDE;}
	.st7{fill:#FAFAFA;}
	.st8{fill:#EFEFEF;}
	.st9{fill:#CBCBCB;}
	.st10{fill:#CECECE;}
	.st11{fill:#F4F4F4;}
	.st12{fill:#D2D2D2;}
	.st13{fill:#C8C8C8;}
	.st14{fill:#E1E1E1;}
	.st15{fill:#CCCCCC;}
	.st16{fill:#ECECEC;}
	.st17{fill:#EBEBEB;}
	.st18{fill:#DADADA;}
	.st19{fill:#F8F8F8;}
	.st20{fill:#D3D3D3;}
	.st21{fill:#D8D8D8;}
	.st22{fill:#CACACA;}
	.st23{fill:#F0F0F0;}
	.st24{fill:#F7F7F7;}
	.st25{fill:#E9E9E9;}
	.st26{fill:#C7C7C7;}
	.st27{fill:#C9C9C9;}
	.st28{fill:#C4C4C4;}
	.st29{fill:#CDCDCD;}
	.st30{fill:#D4D4D4;}
	.st31{fill:#EDEDED;}
	.st32{fill:#E3E3E3;}
	.st33{fill:#F3F3F3;}
	.st34{fill:#E0E0E0;}
	.st35{fill:#E2E2E2;}
	.st36{fill:#CFCFCF;}
	.st37{fill:#D5D5D5;}
	.st38{fill:#C2C2C2;}
	.st39{fill:#C6C6C6;}
	.st40{fill:#AFAFAF;}
	.st41{fill:#D7D7D7;}
	.st42{fill:#B1B1B1;}
	.st43{fill:#C3C3C3;}
	.st44{fill:#D6D6D6;}
	.st45{fill:#C0C0C0;}
	.st46{fill:#C1C1C1;}
	.st47{fill:#B8B8B8;}
	.st48{fill:#BFBFBF;}
	.st49{fill:#B2B2B2;}
	.st50{fill:#B5B5B5;}
	.st51{fill:#BBBBBB;}
	.st52{fill:#BDBDBD;}
	.st53{fill:#BEBEBE;}
	.st54{fill:#D0D0D0;}
	.st55{fill:#B9B9B9;}
	.st56{fill:#BCBCBC;}
	.st57{fill:#FDFDFD;}
	.st58{fill:#F5F5F5;}
	.st59{fill:#FCFCFC;}
	.st60{fill:#E6E6E6;}
	.st61{fill:#F9F9F9;}
	.st62{fill:#F6F6F6;}
	.st63{fill:#F1F1F1;}
</style>
<g>
	<path class="st0" d="M-1.3,120.1c0-40.3,0-80.7,0-121c70,0,140,0,210,0c0,40.3,0,80.7,0,121C138.7,120.1,68.7,120.1-1.3,120.1z
		 M83.7,82.1c-0.3,0.3-0.7,0.7-1,1c0,0.3,0,0.7,0,1c-0.3,0.3-0.7,0.7-1,1c0.2,0.3,0.4,0.9,0.7,1c1.5,0.3,3,0,4.3-1c0.7,0,1.3,0,2,0
		c0.3,0,0.7,0,1,0c1.4-1.6,1.4-3.4,0-5c-0.7,0-1.3,0-2,0c-0.3,0-0.7,0-1,0s-0.7,0-1,0c-1-1.8-2.6-0.7-4-1c0.1,0.8,0.1,1.3,0.1,2
		c0.7,0,1.3,0,1.9,0C83.7,81.4,83.7,81.7,83.7,82.1z M149.7,85.1c0.3,0,0.7,0,1,0c0.6-0.1,1.3-0.2,1.9-0.3c0-0.2,0-0.4-0.1-0.7
		c-0.6,0-1.2,0-1.8,0c0-0.3,0-0.7,0-1c0.3,0,0.7,0,1,0s0.7,0,1,0s0.7,0,1,0c0.1,0.6,0.2,1.3,0.3,1.9c0.2,0,0.4,0,0.7-0.1
		c0-1.3,0-2.5,0-3.8c0.7,0,1.3,0,2,0c0.2,1.3-0.4,2.7,1,4.8c0-2.3,0-3.5,0-4.8c0.7,0,1.3,0,2,0c0.2,1.3-0.4,2.7,1,4.8
		c0-2.3,0-3.5,0-4.8c-0.3-0.3-0.7-0.7-1-1c-0.7,0-1.3,0-2,0c-0.3,0-0.7,0-1,0c-0.7,0-1.3,0-2,0c-0.3,0.3-0.7,0.7-1,1
		c-0.3,0-0.7,0-1,0c-0.3-0.3-0.7-0.7-1-1c-0.7,0-1.3,0-2,0c-0.3,0-0.7,0-1,0s-0.7,0-1,0c0-0.3,0-0.7,0-1c-0.1-0.3-0.2-0.6-0.3-0.8
		c-0.2,0.3-0.4,0.6-0.7,0.8c-0.3,0.3-0.7,0.7-1,1c-0.3,0.3-0.7,0.7-1,1c-0.3,0-0.7,0-1,0c-0.1-1-0.2-1.9-0.3-2.9
		c-0.5,2.3-1,4.6,0.3,6.7c0-0.6,0-1.2,0-1.8c0.3,0,0.7,0,1,0c0,0.3,0,0.7,0,1c0.5,1.9,2,0.6,3,1c0.3,0,0.7,0,1,0
		S149.3,85.1,149.7,85.1z M116.7,81.1c-0.1-0.3-0.2-0.6-0.3-0.8c-0.2,0.3-0.4,0.6-0.7,0.8c0,0.3,0,0.7,0,1c-0.7,0-1.3,0-2,0
		c0-0.7,0-1.3,0-2c-1.6-1.4-3.4-1.4-5,0c0.3,0.7,0.7,1.3,1,2c0,0.3,0,0.7,0,1c-0.3,0.3-0.7,0.7-1,1c-0.3,0-0.7,0-1,0
		c0-0.3,0-0.7,0-1c-0.1-1.5-1.2-0.8-2-1c0-0.3,0-0.7,0-1c0.6,0,1.2,0,2,0c-0.1-0.9-0.2-1.4-0.2-1.9c-1.7,0-1.7,0-2.8,0.9
		c-0.7,0-1.3,0-2,0s-1.3,0-2,0c-0.3,0-0.7,0-1,0c-0.7,0.3-1.3,0.7-2,1c-0.3-0.3-0.7-0.7-1-1c-0.7,0-1.3,0-2,0
		c-1.3,2.1-1.3,2.1,0,5.4c0-1.9,0-3.2,0-4.4c0.7,0,1.3,0,2,0c0,1.3,0,2.7,0,4c0,1.3,1,0.8,1.7,1c0.7,0.2,1.3,0.5,1.8,0.7
		c2.4-1.5,5-0.5,7.5-0.8c0.3,0,0.7,0,1,0c1.5,0.1,3.2,0.3,3.8-1.4c-0.6-0.5-1.2-1-1.8-1.6c0-0.3,0-0.7,0-1c0.3-0.3,0.7-0.7,1-1
		c0.3,0,0.7,0,1,0c0,0.3,0,0.7,0,1c0.3,0.3,0.7,0.7,1,1c0,1,0,2,0,3c-0.3,0.1-0.6,0.3-1.1,0.5c1.1,0.6,1.9,0.9,2.1-0.5
		c0.9-1.2,1.1-2.6,1-4C116,81.7,116.3,81.4,116.7,81.1z M121.7,80.1c-0.3,0-0.7,0-1,0c-0.7,0-1.3,0-2,0c-0.3,0.3-0.7,0.7-1,1
		c0.2,1.3-0.4,2.7,1,4.8c0-2.2,0-3.5,0-4.8c0.7,0,1.3,0,2,0c0.2,1.3-0.4,2.7,1,4.8c0-2.2,0-3.5,0-4.8c0.7,0,1.3,0,2,0
		c0.1,1.3,0.1,2.6,0.2,4c0.1-1.7,2-3.6-0.2-5C123,80.1,122.3,80.1,121.7,80.1z M71.7,81.1c0,0.7,0,1.3,0,2c0,0.6,0,1.2,0,2
		c1.2,0,2.1,0,3,0c0.3,0,0.7,0,1,0s0.7,0,1,0c0.1,0.6,0.2,1.3,0.4,2.4c0.4-0.9,0.5-1.2,0.6-1.4c0.3-0.4,0.9-0.8,1-1.2
		c0.1-1.6,0-3.2,0-4.8c0-0.3,0-0.7,0-1s0-0.7,0-1c-0.1-1.5-1.2-0.8-2-1c0-0.3,0-0.7,0-1c2-3.7,3.4-7.4,3-11.8
		c-0.2-1.6-0.5-3.6,0.3-4.8c1.1-1.8,1.1-3.9,0.5-5.2c-1.4-3.2-0.9-6.5-0.8-9.6c0.1-3.8-1.4-6.7-3.5-9.6c-1.4,0-2.8,0-4.1,0
		c-1.2,1.2-2.3,2.3-2.9,2.9c-1,2.9-2.4,5-2.4,7.3c-0.1,4.9-1.9,9.6-1.1,14.6c0.3,2.2,0.9,4.4,1,6.6c0.2,4.2,1.3,7.8,4.5,10.6
		c1.5,0,3,0,4.5,0c0.3,0,0.7,0,1,0c0,0.3,0,0.7,0,1s0,0.7,0,1s0,0.7,0,1c-0.3,0-0.7,0-1,0c-1-1.4-2-1.4-3,0c-0.3,0-0.7,0-1,0
		c-0.3-0.3-0.7-0.7-1-1c-0.3-0.3-0.7-0.7-1-1c-0.3,0.3-0.7,0.7-1,1s-0.7,0.7-1,1c0.1,1.5,1.2,0.8,2,1c0,0.3,0,0.7,0,1
		c-1.5,0.1-0.8,1.2-1,2c-0.3,0.1-0.6,0.2-0.8,0.3c0.3,0.2,0.6,0.4,0.8,0.7c0.7-0.1,1.3-0.2,1.7-0.2c-0.3-1.1-0.5-1.9-0.7-2.8
		c0.3-0.3,0.7-0.7,1-1C71,81.1,71.3,81.1,71.7,81.1z M133.7,80.1c-0.3,0-0.7,0-1,0s-0.7,0-1,0c-1-1.8-2.6-0.7-4-1
		c0.1,0.8,0.1,1.3,0.1,2c0.7,0,1.3,0,1.9,0c0,0.3,0,0.7,0,1c-0.3,0.3-0.7,0.7-1,1c0,0.3,0,0.7,0,1c-0.3,0.3-0.7,0.7-1,1
		c0.2,1.6,1.5,1.1,2.2,0.9c1.3-0.3,2.5-1,3.8-1.5c0-1.1,0-2.3,0-3.4c0.7,0,1.3,0,2,0c0.1,1.3,0.1,2.6,0.2,4.9
		c0.6-1.4,0.7-1.7,0.8-1.9c0.3,0,0.7,0,1,0c0.3,0.3,0.7,0.7,1,1c0.9,0,1.9,0,3,0c0-1.8,0-3.4,0-5c-1.3-1.4-2.7-1.4-4,0
		c0,0.3,0,0.7,0,1c-0.3,0-0.7,0-1,0c-0.3-0.3-0.7-0.7-1-1C135,80.1,134.3,80.1,133.7,80.1z M61.7,80.1c-0.1-0.6-0.2-1.3-0.4-2.4
		c-0.4,0.9-0.5,1.2-0.6,1.4c-0.8,0.2-1.9-0.5-2,1c-0.3,0.3-0.7,0.7-1,1c0,1,0,2,0,3c0.5,1.9,2,0.6,3,1c0.3-0.3,0.7-0.7,1-1
		c0-1,0-2,0-3C61.7,80.7,61.7,80.4,61.7,80.1z M66.7,81.1c-0.3-0.3-0.7-0.7-1-1c-0.9,0-1.9,0-3,0c0.1,1.9,0.2,3.5,0.2,5
		c1.2,0,2,0,2.8,0c0.2,0.3,0.3,0.6,1,2c0-1.8,0-2.4,0-3C66.7,83.1,66.7,82.1,66.7,81.1z M52.7,84.1c0.3,0.3,0.7,0.7,1,1
		c0.9,0,1.9,0,3,0c-0.1-1.9-0.2-3.5-0.2-5c-1.2,0-2,0-2.8,0c-0.3,0.3-0.7,0.7-1,1C52.7,82.1,52.7,83.1,52.7,84.1z M48.7,85.1
		c1-0.4,2.5,0.9,3-1c0-1.2,0-2.5,0-4c-1.2,0-2.1,0-3,0c-0.3,0.3-0.7,0.7-1,1c0,1,0,2,0,3c0.1,0.6,0.2,1.3,0.4,2.4
		C48.4,85.6,48.6,85.4,48.7,85.1z M123.7,58.1c1.4,0,1,1.1,1,1.8c0,4.8,0,9.6,0,14.4c0,0.7-0.4,1.8,1,1.8c1.3,0,2.6,0,3.8,0
		c0.6-14.6,0.4-36.8-0.3-40.8c-2.2-0.4-4.3-0.8-6.3-1.2c-0.8,3.1,0.3,5.7-1,8.5c-1.1,2.4,0.2,5.6-0.7,8.3c-0.7-3-1.1-6-1.5-9
		c-0.4-3-0.7-6-1.1-8.8c-2.2,0-3.9,0-5.7,0c0,14.4,0,28.6,0,42.7c1.4,0,2.5,0,3.9,0c-0.4-1-0.6-1.8-0.9-2.6
		c1.2-3.6,1.1-9.4-0.2-12.2c0.3-0.9,0.7-1.7,1-2.6c0.2-0.7,0.3-1.5,0.4-2.3c0.1,0,0.2,0.1,0.4,0.1c0.5,6.1,1,12.3,1.5,18.5
		c0.5,0.5,1,1,2.1,2c0.5-1.1,0.8-1.9,1.5-3.5C121.8,69,124.4,63.7,123.7,58.1z M108.4,71.8c0.5-2.5,1.2-4.8,1.2-7.2
		c0.2-7,0-14,0.1-20.9c0-2.4-0.9-4.7-1.3-7c-0.3-2.1-2.7-3.8-3.9-5.5c-1.4,0-2.4,0-3,0c-1.4,1.3-2.7,2.4-3.6,3.3
		c-0.8,3.4-1.8,6.4-2.1,9.5c-0.4,3.5-0.1,7-0.1,10.5c0,4.4,0.1,8.7,0.8,13.1c0.6,4,2,7.2,5,10c1.8-0.5,3.4-1,4.7-1.3
		C107.1,74.3,107.8,72.9,108.4,71.8z M57.4,62.2c0.5,4.5,1,8.6,1.5,12.7c1.9,1.1,1.9,1.1,4.7,1c0-1.4,0.6-3.3-0.1-4.2
		c-1.3-1.8-0.1-3.7-0.9-5.1c-1-1.9-0.9-3.7-0.9-5.6c0-1.1,0.4-2.1,0.7-3.2c1.6-5.1,2.2-10.3,0.1-15.3c-1.2-0.5-2.2-0.9-2.9-1.2
		c-3.1,1.5-6,3-8.8,4.4c0,10.1,0,20.2,0,30.4c1.7,0,3.3,0,4.8,0c0.3-4.7-0.3-9.3,0.3-13.8C56.6,62.1,57,62.1,57.4,62.2z M141.6,39.3
		c-2.2-0.8-4.4-1.6-6.9-2.4c0,2.5,0.1,4.5,0,6.5c-0.2,1.9-0.8,3.7-0.9,5.6c-0.4,5.5-0.7,11-1,16.6c0,0.3,0.1,0.8,0,1
		c-2,3-0.4,6.3-1.1,9.5c1.6,0,2.7,0,4.2,0c0-2.7,0-5.3,0-7.8c1.5,0,2.6,0,3.5,0c0.6,2.7,1.1,5.3,1.6,7.7c1.4,0,2.6,0,3.9,0
		c-0.4-3.9,0.2-7.5-0.9-11.3c-0.9-3.1,0.4-6.8-1.2-10C143.4,49.5,141.6,44.6,141.6,39.3z M90.8,76c0-12.5,0-24.6,0-36.7
		c1.4-0.1,2.6-0.3,3.6-0.4c0-2.5,0-4.6,0-7c-4.4,0.5-8.5,1-12.8,1.5c0.1,2.6-0.1,5.1,0.1,7.2c1.5-0.2,2.7-0.4,4-0.5
		c0,12.2,0,24,0,35.9C87.4,76,88.9,76,90.8,76z M158.5,50.3c0-1.8,0-2.9,0-4.4c-2.1-1-4.2-2.2-6.4-2.7c-2.2-0.5-3.8-3.1-6.3-1.8
		c0,1.9,0,3.7,0,5.3c1.5,0.6,2.7,1.1,4,1.6c0,9.5,0,18.6,0,27.6c1.7,0,3.3,0,5,0c0-9,0-17.8,0-26.5C156,49.6,157.1,49.9,158.5,50.3z
		"/>
	<path class="st1" d="M123.7,58.1c0.7,5.6-1.9,11-1.1,15.3c-0.7,1.6-1.1,2.4-1.5,3.5c-1.1-1-1.6-1.6-2.1-2c-0.5-6.2-1-12.4-1.5-18.5
		c-0.1,0-0.2-0.1-0.4-0.1c-0.1,0.8-0.2,1.5-0.4,2.3c-0.3,0.9-0.6,1.7-1,2.6c1.3,2.9,1.4,8.7,0.2,12.2c0.3,0.8,0.5,1.6,0.9,2.6
		c-1.4,0-2.5,0-3.9,0c0-14.1,0-28.3,0-42.7c1.7,0,3.5,0,5.7,0c0.4,2.8,0.7,5.8,1.1,8.8c0.4,3,0.8,6,1.5,9c0.9-2.8-0.3-5.9,0.7-8.3
		c1.3-2.8,0.2-5.5,1-8.5c2,0.4,4.1,0.8,6.3,1.2c0.7,4,0.9,26.2,0.3,40.8c-1.3,0-2.5,0-3.8,0c0-4.5,0.1-9,0-13.4
		c-0.1-4.5,0.4-9-0.7-13.5C124.5,52.1,124.1,55.1,123.7,58.1z"/>
	<path class="st1" d="M108.4,71.8c-0.6,1.2-1.3,2.5-2.2,4.3c-1.3,0.4-2.9,0.8-4.7,1.3c-3-2.8-4.4-6-5-10c-0.7-4.4-0.8-8.7-0.8-13.1
		c0-3.5-0.3-7,0.1-10.5c0.3-3.1,1.3-6.1,2.1-9.5c0.9-0.8,2.2-2,3.6-3.3c0.6,0,1.6,0,3,0c1.3,1.7,3.6,3.4,3.9,5.5
		c0.3,2.3,1.3,4.6,1.3,7c-0.1,7,0.1,14-0.1,20.9C109.6,66.9,108.8,69.3,108.4,71.8z M101.9,69.8c2.2-1.7,2.8-3.3,2.8-5.3
		c0-5.5,0-11,0-16.5c0-3.4,0.2-6.8-1.5-10.1c-1.7,2.1-2.5,4.3-2.5,6.9c0,5.3,0.2,10.7,0,16C100.5,63.8,102,66.3,101.9,69.8z"/>
	<path class="st1" d="M75.7,77.1c-1.5,0-3,0-4.5,0c-3.2-2.8-4.4-6.5-4.5-10.6c-0.1-2.2-0.6-4.4-1-6.6c-0.7-4.9,1-9.7,1.1-14.6
		c0.1-2.2,1.4-4.4,2.4-7.3c0.6-0.6,1.8-1.8,2.9-2.9c1.4,0,2.7,0,4.1,0c2.1,2.8,3.6,5.8,3.5,9.6c-0.1,3.2-0.6,6.4,0.8,9.6
		c0.5,1.3,0.6,3.4-0.5,5.2c-0.8,1.2-0.4,3.2-0.3,4.8c0.4,4.3-1.1,8.1-3,11.8C76.3,76.4,76,76.7,75.7,77.1z M71.7,68.5
		c0.2,0,0.5,0,0.7-0.1c0.2,0.6,0.4,1.2,0.6,1.8c1.1-1.2,1.6-2.3,1.6-3.3c0.1-8.1,0-16.2,0-24.3c0-0.2-0.5-0.4-1-0.7
		c-0.6,0.5-1.3,1.1-2,1.6C71.7,52,71.7,60.2,71.7,68.5z"/>
	<path class="st1" d="M57.4,62.2c-0.4,0-0.7-0.1-1.4-0.2c-0.6,4.5,0,9.1-0.3,13.8c-1.5,0-3.1,0-4.8,0c0-10.1,0-20.2,0-30.4
		c2.8-1.4,5.7-2.8,8.8-4.4c0.7,0.3,1.7,0.7,2.9,1.2c2.1,5,1.5,10.2-0.1,15.3c-0.3,1.1-0.7,2.1-0.7,3.2c0,1.9-0.1,3.7,0.9,5.6
		c0.8,1.5-0.4,3.4,0.9,5.1c0.7,1,0.1,2.8,0.1,4.2c-2.8,0.1-2.8,0.1-4.7-1C58.4,70.8,57.9,66.7,57.4,62.2z M58.7,55.7
		c0-2-0.1-3.9,0-5.7c0.2-2.5-1.2-2.1-3-1.7c0,2.7,0,5.4,0,8.2c0,0.2,0.5,0.4,1,0.7C57.2,56.8,57.8,56.4,58.7,55.7z"/>
	<path class="st1" d="M141.6,39.3c-0.1,5.3,1.8,10.2,1.1,15.3c1.6,3.2,0.2,6.9,1.2,10c1.1,3.8,0.5,7.4,0.9,11.3c-1.3,0-2.4,0-3.9,0
		c-0.5-2.3-1-4.9-1.6-7.7c-0.9,0-2,0-3.5,0c0,2.5,0,5.1,0,7.8c-1.5,0-2.6,0-4.2,0c0.7-3.2-0.9-6.4,1.1-9.5c0.2-0.2,0-0.7,0-1
		c0.3-5.5,0.6-11,1-16.6c0.1-1.9,0.8-3.7,0.9-5.6c0.2-2,0-4,0-6.5C137.2,37.8,139.5,38.6,141.6,39.3z M137.8,62.5
		c0.9-1,1.4-1.5,1.8-1.9c-1.9-1.9-0.7-4.1-0.9-6.2c-0.2-2.1,0-4.2,0-6.3C137.1,52.7,135.4,57.2,137.8,62.5z"/>
	<path class="st1" d="M90.8,76c-2,0-3.4,0-5.1,0c0-11.9,0-23.7,0-35.9c-1.4,0.2-2.5,0.3-4,0.5c-0.2-2.1,0-4.7-0.1-7.2
		c4.3-0.5,8.4-1,12.8-1.5c0,2.4,0,4.5,0,7c-1,0.1-2.2,0.2-3.6,0.4C90.8,51.3,90.8,63.5,90.8,76z"/>
	<path class="st2" d="M158.5,50.3c-1.4-0.4-2.5-0.6-3.7-0.9c0,8.7,0,17.5,0,26.5c-1.7,0-3.2,0-5,0c0-9,0-18.1,0-27.6
		c-1.3-0.5-2.5-1-4-1.6c0-1.5,0-3.3,0-5.3c2.5-1.3,4.2,1.3,6.3,1.8c2.2,0.5,4.2,1.8,6.4,2.7C158.5,47.3,158.5,48.5,158.5,50.3z"/>
	<path class="st3" d="M123.7,58.1c0.4-3,0.8-5.9,1.2-8.9c1.1,4.5,0.6,9,0.7,13.5c0.1,4.5,0,9,0,13.4c-1.4,0-1-1.1-1-1.8
		c0-4.8,0-9.6,0-14.4C124.7,59.1,125,58.1,123.7,58.1z"/>
	<path class="st0" d="M107.7,86.1c-2.5,0.3-5.1-0.7-7.5,0.8c-0.5-0.2-1.2-0.6-1.8-0.7c-0.7-0.2-1.7,0.3-1.7-1c1,0,2,0,3,0
		c0.7,0,1.3,0,2,0c0.3,0,0.7,0,1,0c2.1-0.2,0.2-2.4,1.4-2.9c0.6,0.3,1.1,0.6,1.6,0.9c0.3,0,0.7,0,1,0c0,0.3,0,0.7,0,1
		c-0.6,0.1-1.3,0.2-1.9,0.3c0,0.2,0,0.4,0.1,0.7c0.6,0,1.2,0,1.8,0c0.3,0,0.7,0,1,0C107.7,85.4,107.7,85.7,107.7,86.1z"/>
	<path class="st4" d="M133.7,81.1c0,1.1,0,2.3,0,3.4c-1.3,0.5-2.5,1.2-3.8,1.5c-0.7,0.2-2.1,0.7-2.2-0.9c0.3,0,0.7,0,1,0
		c0.3-0.3,0.7-0.7,1-1c0.6,0,1.2,0,2,0c0-1.2,0-2.1,0-3c0-0.3,0-0.7,0-1c0.3,0,0.7,0,1,0C133,80.4,133.3,80.7,133.7,81.1z"/>
	<path class="st5" d="M99.7,85.1c-1,0-2,0-3,0c0-1.3,0-2.7,0-4c0.3,0,0.7,0,1,0c0.7-0.3,1.3-0.7,2-1c0,0.3,0,0.7,0,1c0,1,0,2,0,3
		C99.7,84.4,99.7,84.7,99.7,85.1z"/>
	<path class="st6" d="M105.7,83.1c-0.5-0.3-1-0.6-1.6-0.9c-1.2,0.5,0.7,2.7-1.4,2.9c-0.3-0.3-0.7-0.7-1-1c0-1,0-2,0-3
		c0.3-0.3,0.7-0.7,1-1c0.7,0,1.3,0,2,0c0.3,0.3,0.7,0.7,1,1c0,0.3,0,0.7,0,1S105.7,82.7,105.7,83.1z"/>
	<path class="st7" d="M86.7,85.1c-1.3,0.9-2.7,1.3-4.3,1c-0.3-0.1-0.5-0.6-0.7-1c0.3,0,0.7,0,1,0c0.7-0.1,1.3-0.2,2-0.3
		c-0.4-0.7-0.7-1.2-1-1.7c0-0.3,0-0.7,0-1c0.3-0.3,0.7-0.7,1-1c0.3,0,0.7,0,1,0c0.4,1-0.9,2.5,1,3C86.7,84.4,86.7,84.7,86.7,85.1z"
		/>
	<path class="st8" d="M58.7,80.1c0.1-1.5,1.2-0.8,2-1c0,0.3,0,0.7,0,1s0,0.7,0,1c0,1,0,2,0,3c-0.7,0-1.3,0-2,0c0-1,0-2,0-3
		C58.7,80.7,58.7,80.4,58.7,80.1z"/>
	<path class="st9" d="M141.7,80.1c0,1.6,0,3.2,0,5c-1.1,0-2.1,0-3,0c0-0.3,0-0.7,0-1c0.6,0,1.2,0,2.1,0c-0.1-1.2-0.2-2.1-0.3-3
		c-0.8,0-1.3,0-1.8,0c0-0.3,0-0.7,0-1C139.7,80.1,140.7,80.1,141.7,80.1z"/>
	<path class="st10" d="M53.7,80.1c0.8,0,1.7,0,2.8,0c0.1,1.5,0.1,3.1,0.2,5c-1.2,0-2.1,0-3,0c0-0.3,0-0.7,0-1c0.6,0,1.2,0,2.1,0
		c-0.1-1.2-0.2-2.1-0.3-3c-0.8,0-1.3,0-1.8,0C53.7,80.7,53.7,80.4,53.7,80.1z"/>
	<path class="st9" d="M65.7,85.1c-0.8,0-1.7,0-2.8,0c-0.1-1.5-0.1-3.1-0.2-5c1.2,0,2.1,0,3,0c0,0.3,0,0.7,0,1c-0.6,0-1.2,0-2.1,0
		c0.1,1.2,0.2,2.1,0.3,3c0.8,0,1.3,0,1.8,0C65.7,84.4,65.7,84.7,65.7,85.1z"/>
	<path class="st11" d="M108.7,84.1c0.3-0.3,0.7-0.7,1-1c0.3,0,0.7,0,1,0c0.6,0.5,1.2,1,1.8,1.6c-0.7,1.7-2.3,1.5-3.8,1.4
		c0-0.3,0-0.7,0-1c0.3-0.1,0.6-0.2,0.8-0.3C109.2,84.5,108.9,84.3,108.7,84.1z"/>
	<path class="st12" d="M147.7,85.1c-1-0.4-2.5,0.9-3-1c0.3,0,0.7,0,1,0c1.9-0.5,0.6-2,1-3c0.3-0.3,0.7-0.7,1-1
		C147.7,81.7,147.7,83.4,147.7,85.1z"/>
	<path class="st13" d="M143.7,83.1c0,0.6,0,1.2,0,1.8c-1.3-2.2-0.8-4.4-0.3-6.7c0.1,1,0.2,1.9,0.3,2.9c0,0.3,0,0.7,0,1
		S143.7,82.7,143.7,83.1z"/>
	<path class="st12" d="M113.7,86.1c0-1,0-2,0-3c0-0.3,0-0.7,0-1c0.7,0,1.3,0,2,0c0.1,1.4-0.1,2.8-1,4
		C114.3,86.1,114,86.1,113.7,86.1z"/>
	<path class="st14" d="M78.7,80.1c0,1.6,0.1,3.2,0,4.8c0,0.4-0.6,0.8-1,1.2c0-0.3,0-0.7,0-1c0-1.7,0-3.3,0-5
		C78,80.1,78.3,80.1,78.7,80.1z"/>
	<path class="st15" d="M48.7,80.1c0.9,0,1.8,0,3,0c0,1.5,0,2.8,0,4c-0.3,0-0.7,0-1,0c0-0.9,0-1.8,0-3c-0.8,0-1.4,0-2,0
		C48.7,80.7,48.7,80.4,48.7,80.1z"/>
	<path class="st16" d="M129.7,81.1c-0.6,0-1.2,0-1.9,0c-0.1-0.7-0.1-1.2-0.1-2c1.4,0.3,3-0.8,4,1C130.9,80.2,129.8,79.6,129.7,81.1z
		"/>
	<path class="st11" d="M112.7,81.1c-0.3,0-0.7,0-1,0c-0.3-0.3-0.7-0.7-1-1c-0.7,0-1.3,0-2,0c1.6-1.4,3.4-1.4,5,0
		C113.3,80.4,113,80.7,112.7,81.1z"/>
	<path class="st17" d="M83.7,81.1c-0.6,0-1.2,0-1.9,0c-0.1-0.7-0.1-1.2-0.1-2c1.4,0.3,3-0.8,4,1c-0.3,0-0.7,0-1,0
		C84.3,80.4,84,80.7,83.7,81.1z"/>
	<path class="st18" d="M154.7,81.1c0,1.3,0,2.5,0,3.8c-0.2,0-0.4,0-0.7,0.1c-0.1-0.6-0.2-1.3-0.3-1.9c0-0.7,0-1.3,0-2
		c0.3-0.3,0.7-0.7,1-1C154.7,80.4,154.7,80.7,154.7,81.1z"/>
	<path class="st19" d="M147.7,85.1c0-1.7,0-3.3,0-5c0.3,0,0.7,0,1,0c0,0.3,0,0.7,0,1c0,1,0,2,0,3c0,0.3,0,0.7,0,1
		C148.3,85.1,148,85.1,147.7,85.1z"/>
	<path class="st20" d="M135.7,80.1c0.3,0.3,0.7,0.7,1,1c0,1,0,2,0,3c-0.1,0.3-0.2,0.6-0.8,1.9c-0.1-2.3-0.2-3.6-0.2-4.9
		C135.7,80.7,135.7,80.4,135.7,80.1z"/>
	<path class="st21" d="M123.7,80.1c2.2,1.4,0.3,3.3,0.2,5c-0.1-1.3-0.1-2.6-0.2-4C123.7,80.7,123.7,80.4,123.7,80.1z"/>
	<path class="st10" d="M94.7,81.1c0,1.3,0,2.5,0,4.4c-1.3-3.4-1.3-3.4,0-5.4C94.7,80.4,94.7,80.7,94.7,81.1z"/>
	<path class="st14" d="M89.7,80.1c1.4,1.6,1.4,3.4,0,5c0-0.3,0-0.7,0-1c0-1,0-2,0-3C89.7,80.7,89.7,80.4,89.7,80.1z"/>
	<path class="st22" d="M148.7,84.1c0-1,0-2,0-3c0.3,0,0.7,0,1,0c0.3,0.3,0.7,0.7,1,1c0.3,0,0.7,0,1,0c0,0.3,0,0.7,0,1
		c-0.3,0-0.7,0-1,0c-0.3,0.3-0.7,0.7-1,1C149.3,84.1,149,84.1,148.7,84.1z"/>
	<path class="st16" d="M75.7,80.1c0.3,0,0.7,0,1,0c0,1.7,0,3.3,0,5c-0.3,0-0.7,0-1,0c0-0.3,0-0.7,0-1c0-1,0-2,0-3
		C75.7,80.7,75.7,80.4,75.7,80.1z"/>
	<path class="st23" d="M104.7,80.1c1.1-0.9,1.1-0.9,2.8-0.9c0.1,0.5,0.1,1.1,0.2,1.9c-0.8,0-1.4,0-2,0
		C105.3,80.7,105,80.4,104.7,80.1z"/>
	<path class="st24" d="M141.7,80.1c-1,0-2,0-3,0c-0.3,0-0.7,0-1,0C138.9,78.7,140.4,78.7,141.7,80.1z"/>
	<path class="st13" d="M118.7,81.1c0,1.3,0,2.6,0,4.8c-1.4-2.1-0.8-3.5-1-4.8C118,81.1,118.3,81.1,118.7,81.1z"/>
	<path class="st13" d="M121.7,81.1c0,1.3,0,2.6,0,4.8c-1.4-2.1-0.8-3.5-1-4.8C121,81.1,121.3,81.1,121.7,81.1z"/>
	<path class="st6" d="M108.7,80.1c0.7,0,1.3,0,2,0c0.3,0.3,0.7,0.7,1,1c-0.3,0.3-0.7,0.7-1,1c-0.3,0-0.7,0-1,0
		C109.3,81.4,109,80.7,108.7,80.1z"/>
	<path class="st25" d="M67.7,80.1c0.3-0.3,0.7-0.7,1-1c0.3-0.3,0.7-0.7,1-1c0.3,0.3,0.7,0.7,1,1c0,0.3,0,0.7,0,1c-0.3,0-0.7,0-1,0
		C69,80.1,68.3,80.1,67.7,80.1z"/>
	<path class="st10" d="M157.7,81.1c0,1.3,0,2.6,0,4.8c-1.4-2.1-0.8-3.5-1-4.8C157,81.1,157.3,81.1,157.7,81.1z"/>
	<path class="st13" d="M160.7,81.1c0,1.3,0,2.6,0,4.8c-1.4-2.1-0.8-3.5-1-4.8C160,81.1,160.3,81.1,160.7,81.1z"/>
	<path class="st26" d="M68.7,84.1c0.2-0.8-0.5-1.9,1-2c0.2,0.8,0.4,1.7,0.7,2.8c-0.4,0.1-1.1,0.2-1.7,0.2
		C68.7,84.7,68.7,84.4,68.7,84.1z"/>
	<path class="st27" d="M74.7,85.1c-0.9,0-1.8,0-3,0c0-0.8,0-1.4,0-2c0.3,0,0.7,0,1,0c0.1,1.5,1.2,0.8,2,1
		C74.7,84.4,74.7,84.7,74.7,85.1z"/>
	<path class="st28" d="M58.7,84.1c0.7,0,1.3,0,2,0c0,0.3,0,0.7,0,1c-1-0.4-2.5,0.9-3-1C58,84.1,58.3,84.1,58.7,84.1z"/>
	<path class="st29" d="M47.7,84.1c0-1,0-2,0-3c0.3,0,0.7,0,1,0c0,1,0,2,0,3C48.3,84.1,48,84.1,47.7,84.1z"/>
	<path class="st30" d="M50.7,84.1c0.3,0,0.7,0,1,0c-0.5,1.9-2,0.6-3,1c0-0.3,0-0.7,0-1C49.3,84.1,50,84.1,50.7,84.1z"/>
	<path class="st13" d="M52.7,84.1c0-1,0-2,0-3c0.3,0,0.7,0,1,0c0,1,0,2,0,3C53.3,84.1,53,84.1,52.7,84.1z"/>
	<path class="st13" d="M58.7,84.1c-0.3,0-0.7,0-1,0c0-1,0-2,0-3c0.3,0,0.7,0,1,0C58.7,82.1,58.7,83.1,58.7,84.1z"/>
	<path class="st13" d="M60.7,84.1c0-1,0-2,0-3c0.3,0,0.7,0,1,0c0,1,0,2,0,3C61.3,84.1,61,84.1,60.7,84.1z"/>
	<path class="st19" d="M72.7,80.1c1-1.4,2-1.4,3,0c-0.3,0-0.7,0-1,0C74,80.1,73.3,80.1,72.7,80.1z"/>
	<path class="st13" d="M66.7,81.1c0,1,0,2,0,3c-0.3,0-0.7,0-1,0c0-1,0-2,0-3C66,81.1,66.3,81.1,66.7,81.1z"/>
	<path class="st27" d="M83.7,83.1c0.3,0.5,0.6,1,1,1.7c-0.6,0.1-1.3,0.2-2,0.3c0-0.3,0-0.7,0-1s0-0.7,0-1
		C83,83.1,83.3,83.1,83.7,83.1z"/>
	<path class="st31" d="M136.7,84.1c0-1,0-2,0-3c0.3,0,0.7,0,1,0c0,1,0,2,0,3C137.3,84.1,137,84.1,136.7,84.1z"/>
	<path class="st32" d="M153.7,81.1c0,0.7,0,1.3,0,2c-0.3,0-0.7,0-1,0c-0.3-0.3-0.7-0.7-1-1c0-0.3,0-0.7,0-1c0.3,0,0.7,0,1,0
		S153.3,81.1,153.7,81.1z"/>
	<path class="st33" d="M147.7,80.1c-0.3,0.3-0.7,0.7-1,1c-0.3,0-0.7,0-1,0c0-0.3,0-0.7,0-1c0.3-0.3,0.7-0.7,1-1c0.3,0,0.7,0,1,0
		C147.7,79.4,147.7,79.7,147.7,80.1z"/>
	<path class="st22" d="M72.7,80.1c0.7,0,1.3,0,2,0c0,0.3,0,0.7,0,1c-0.7,0-1.3,0-2,0c-0.3,0-0.7,0-1,0c0-0.3,0-0.7,0-1
		C72,80.1,72.3,80.1,72.7,80.1z"/>
	<path class="st34" d="M76.7,79.1c0-0.3,0-0.7,0-1c0.7,0,1.3,0,2,0c0,0.3,0,0.7,0,1C78,79.1,77.3,79.1,76.7,79.1z"/>
	<path class="st28" d="M112.7,81.1c0.3-0.3,0.7-0.7,1-1c0,0.7,0,1.3,0,2c-0.3,0-0.7,0-1,0C112.7,81.7,112.7,81.4,112.7,81.1z"/>
	<path class="st35" d="M67.7,80.1c0.7,0,1.3,0,2,0c0,0.3,0,0.7,0,1C68.9,80.9,67.8,81.6,67.7,80.1z"/>
	<path class="st36" d="M102.7,80.1c-0.3,0.3-0.7,0.7-1,1c-0.3,0-0.7,0-1,0c0-0.3,0-0.7,0-1C101.3,80.1,102,80.1,102.7,80.1z"/>
	<path class="st37" d="M143.7,82.1c0-0.3,0-0.7,0-1c0.3,0,0.7,0,1,0s0.7,0,1,0c-0.3,0.3-0.7,0.7-1,1C144.3,82.1,144,82.1,143.7,82.1
		z"/>
	<path class="st38" d="M69.7,81.1c0-0.3,0-0.7,0-1c0.3,0,0.7,0,1,0c0,0.3,0,0.7,0,1c-0.3,0.3-0.7,0.7-1,1
		C69.7,81.7,69.7,81.4,69.7,81.1z"/>
	<path class="st26" d="M94.7,81.1c0-0.3,0-0.7,0-1c0.7,0,1.3,0,2,0c0,0.3,0,0.7,0,1C96,81.1,95.3,81.1,94.7,81.1z"/>
	<path class="st13" d="M60.7,80.1c0-0.3,0-0.7,0-1c0.1-0.3,0.2-0.6,0.6-1.4c0.2,1.2,0.3,1.8,0.4,2.4C61.3,80.1,61,80.1,60.7,80.1z"
		/>
	<path class="st39" d="M105.7,83.1c0-0.3,0-0.7,0-1c0.8,0.2,1.9-0.5,2,1c-0.3,0-0.7,0-1,0S106,83.1,105.7,83.1z"/>
	<path class="st19" d="M78.7,78.1c-0.7,0-1.3,0-2,0c0-0.3,0-0.7,0-1C77.4,77.2,78.6,76.6,78.7,78.1z"/>
	<path class="st30" d="M128.7,83.1c0.3-0.3,0.7-0.7,1-1c0.3,0,0.7,0,1,0c-0.3,0.3-0.7,0.7-1,1C129.3,83.1,129,83.1,128.7,83.1z"/>
	<path class="st36" d="M89.7,80.1c0,0.3,0,0.7,0,1c-0.3,0-0.7,0-1,0s-0.7,0-1,0c0-0.3,0-0.7,0-1C88.3,80.1,89,80.1,89.7,80.1z"/>
	<path class="st3" d="M128.7,83.1c0.3,0,0.7,0,1,0c0,0.3,0,0.7,0,1c-0.3,0.3-0.7,0.7-1,1c0-0.3,0-0.7,0-1S128.7,83.4,128.7,83.1z"/>
	<path class="st40" d="M48.7,84.1c0,0.3,0,0.7,0,1c-0.1,0.3-0.2,0.6-0.6,1.4c-0.2-1.2-0.3-1.8-0.4-2.4C48,84.1,48.3,84.1,48.7,84.1z
		"/>
	<path class="st41" d="M84.7,80.1c0.3,0,0.7,0,1,0s0.7,0,1,0c0,0.3,0,0.7,0,1c-0.3,0-0.7,0-1,0s-0.7,0-1,0
		C84.7,80.7,84.7,80.4,84.7,80.1z"/>
	<path class="st42" d="M65.7,84.1c0.3,0,0.7,0,1,0c0,0.6,0,1.2,0,3c-0.7-1.4-0.8-1.7-1-2C65.7,84.7,65.7,84.4,65.7,84.1z"/>
	<path class="st43" d="M86.7,85.1c0-0.3,0-0.7,0-1c0.3,0,0.7,0,1,0s0.7,0,1,0c0,0.3,0,0.7,0,1C88,85.1,87.3,85.1,86.7,85.1z"/>
	<path class="st7" d="M108.7,85.1c0,0.3,0,0.7,0,1c-0.3,0-0.7,0-1,0c0-0.3,0-0.7,0-1s0-0.7,0-1c0.3,0,0.7,0,1,0
		C108.7,84.4,108.7,84.7,108.7,85.1z"/>
	<path class="st18" d="M150.7,84.1c0.6,0,1.2,0,1.8,0c0,0.2,0,0.4,0.1,0.7c-0.6,0.1-1.3,0.2-1.9,0.3
		C150.7,84.7,150.7,84.4,150.7,84.1z"/>
	<path class="st44" d="M77.7,85.1c0,0.3,0,0.7,0,1c-0.1,0.3-0.2,0.6-0.6,1.4c-0.2-1.2-0.3-1.8-0.4-2.4C77,85.1,77.3,85.1,77.7,85.1z
		"/>
	<path class="st41" d="M113.7,86.1c0.3,0,0.7,0,1,0c-0.2,1.4-1,1.2-2.1,0.5C113,86.4,113.4,86.2,113.7,86.1z"/>
	<path class="st22" d="M149.7,80.1c0.7,0,1.3,0,2,0c0,0.3,0,0.7,0,1c-0.3,0-0.7,0-1,0s-0.7,0-1,0C149.7,80.7,149.7,80.4,149.7,80.1z
		"/>
	<path class="st43" d="M154.7,81.1c0-0.3,0-0.7,0-1c0.7,0,1.3,0,2,0c0,0.3,0,0.7,0,1C156,81.1,155.3,81.1,154.7,81.1z"/>
	<path class="st13" d="M159.7,81.1c-0.7,0-1.3,0-2,0c0-0.3,0-0.7,0-1c0.7,0,1.3,0,2,0C159.7,80.4,159.7,80.7,159.7,81.1z"/>
	<path class="st19" d="M76.7,79.1c0.7,0,1.3,0,2,0c0,0.3,0,0.7,0,1c-0.3,0-0.7,0-1,0s-0.7,0-1,0C76.7,79.7,76.7,79.4,76.7,79.1z"/>
	<path class="st27" d="M135.7,80.1c0,0.3,0,0.7,0,1c-0.7,0-1.3,0-2,0c0-0.3,0-0.7,0-1C134.3,80.1,135,80.1,135.7,80.1z"/>
	<path class="st27" d="M71.7,81.1c0.3,0,0.7,0,1,0c0,0.7,0,1.3,0,2c-0.3,0-0.7,0-1,0C71.7,82.4,71.7,81.7,71.7,81.1z"/>
	<path class="st19" d="M70.7,81.1c0-0.3,0-0.7,0-1s0-0.7,0-1c0.3,0.3,0.7,0.7,1,1c0,0.3,0,0.7,0,1C71.3,81.1,71,81.1,70.7,81.1z"/>
	<path class="st9" d="M118.7,80.1c0.7,0,1.3,0,2,0c0,0.3,0,0.7,0,1c-0.7,0-1.3,0-2,0C118.7,80.7,118.7,80.4,118.7,80.1z"/>
	<path class="st3" d="M123.7,80.1c0,0.3,0,0.7,0,1c-0.7,0-1.3,0-2,0c0-0.3,0-0.7,0-1C122.3,80.1,123,80.1,123.7,80.1z"/>
	<path class="st26" d="M145.7,84.1c-0.3,0-0.7,0-1,0c0-0.3,0-0.7,0-1C145,83.4,145.3,83.7,145.7,84.1z"/>
	<path class="st11" d="M149.7,84.1c0.3-0.3,0.7-0.7,1-1c0,0.3,0,0.7,0,1C150.3,84.1,150,84.1,149.7,84.1z"/>
	<path class="st45" d="M53.7,81.1c-0.3,0-0.7,0-1,0c0.3-0.3,0.7-0.7,1-1C53.7,80.4,53.7,80.7,53.7,81.1z"/>
	<path class="st3" d="M145.7,81.1c-0.3,0-0.7,0-1,0c0.3-0.3,0.7-0.7,1-1C145.7,80.4,145.7,80.7,145.7,81.1z"/>
	<path class="st46" d="M52.7,84.1c0.3,0,0.7,0,1,0c0,0.3,0,0.7,0,1C53.3,84.7,53,84.4,52.7,84.1z"/>
	<path class="st47" d="M60.7,84.1c0.3,0,0.7,0,1,0c-0.3,0.3-0.7,0.7-1,1C60.7,84.7,60.7,84.4,60.7,84.1z"/>
	<path class="st48" d="M159.7,81.1c0-0.3,0-0.7,0-1c0.3,0.3,0.7,0.7,1,1C160.3,81.1,160,81.1,159.7,81.1z"/>
	<path class="st49" d="M68.7,84.1c0,0.3,0,0.7,0,1c-0.3-0.2-0.6-0.4-0.8-0.7C68.1,84.3,68.4,84.2,68.7,84.1z"/>
	<path class="st50" d="M74.7,85.1c0-0.3,0-0.7,0-1c0.3,0,0.7,0,1,0c0,0.3,0,0.7,0,1C75.3,85.1,75,85.1,74.7,85.1z"/>
	<path class="st51" d="M82.7,84.1c0,0.3,0,0.7,0,1c-0.3,0-0.7,0-1,0C82,84.7,82.3,84.4,82.7,84.1z"/>
	<path class="st38" d="M115.7,81.1c0.2-0.3,0.4-0.6,0.7-0.8c0.1,0.3,0.2,0.6,0.3,0.8C116.3,81.1,116,81.1,115.7,81.1z"/>
	<path class="st52" d="M88.7,85.1c0-0.3,0-0.7,0-1c0.3,0,0.7,0,1,0c0,0.3,0,0.7,0,1C89.3,85.1,89,85.1,88.7,85.1z"/>
	<path class="st51" d="M157.7,80.1c0,0.3,0,0.7,0,1c-0.3,0-0.7,0-1,0c0-0.3,0-0.7,0-1C157,80.1,157.3,80.1,157.7,80.1z"/>
	<path class="st42" d="M118.7,80.1c0,0.3,0,0.7,0,1c-0.3,0-0.7,0-1,0C118,80.7,118.3,80.4,118.7,80.1z"/>
	<path class="st40" d="M48.7,81.1c-0.3,0-0.7,0-1,0c0.3-0.3,0.7-0.7,1-1C48.7,80.4,48.7,80.7,48.7,81.1z"/>
	<path class="st46" d="M128.7,84.1c0,0.3,0,0.7,0,1c-0.3,0-0.7,0-1,0C128,84.7,128.3,84.4,128.7,84.1z"/>
	<path class="st53" d="M138.7,84.1c0,0.3,0,0.7,0,1c-0.3-0.3-0.7-0.7-1-1C138,84.1,138.3,84.1,138.7,84.1z"/>
	<path class="st44" d="M148.7,84.1c0.3,0,0.7,0,1,0c0,0.3,0,0.7,0,1c-0.3,0-0.7,0-1,0C148.7,84.7,148.7,84.4,148.7,84.1z"/>
	<path class="st13" d="M149.7,85.1c0-0.3,0-0.7,0-1c0.3,0,0.7,0,1,0c0,0.3,0,0.7,0,1C150.3,85.1,150,85.1,149.7,85.1z"/>
	<path class="st46" d="M151.7,81.1c0-0.3,0-0.7,0-1c0.3,0.3,0.7,0.7,1,1C152.3,81.1,152,81.1,151.7,81.1z"/>
	<path class="st44" d="M149.7,80.1c0,0.3,0,0.7,0,1c-0.3,0-0.7,0-1,0c0-0.3,0-0.7,0-1C149,80.1,149.3,80.1,149.7,80.1z"/>
	<path class="st51" d="M66.7,81.1c-0.3,0-0.7,0-1,0c0-0.3,0-0.7,0-1C66,80.4,66.3,80.7,66.7,81.1z"/>
	<path class="st10" d="M147.7,79.1c-0.3,0-0.7,0-1,0c0.2-0.3,0.4-0.6,0.7-0.8C147.5,78.5,147.6,78.8,147.7,79.1z"/>
	<path class="st28" d="M100.7,80.1c0,0.3,0,0.7,0,1c-0.3,0-0.7,0-1,0c0-0.3,0-0.7,0-1C100,80.1,100.3,80.1,100.7,80.1z"/>
	<path class="st45" d="M84.7,81.1c-0.3,0.3-0.7,0.7-1,1c0-0.3,0-0.7,0-1C84,81.1,84.3,81.1,84.7,81.1z"/>
	<path class="st52" d="M130.7,82.1c-0.3,0-0.7,0-1,0c0-0.3,0-0.7,0-1c0.3,0,0.7,0,1,0C130.7,81.4,130.7,81.7,130.7,82.1z"/>
	<path class="st34" d="M69.7,78.1c-0.3,0.3-0.7,0.7-1,1C69,78.7,69.3,78.4,69.7,78.1z"/>
	<path class="st45" d="M96.7,81.1c0-0.3,0-0.7,0-1c0.3,0.3,0.7,0.7,1,1C97.3,81.1,97,81.1,96.7,81.1z"/>
	<path class="st54" d="M83.7,83.1c-0.3,0-0.7,0-1,0c0.3-0.3,0.7-0.7,1-1C83.7,82.4,83.7,82.7,83.7,83.1z"/>
	<path class="st55" d="M60.7,80.1c0.3,0,0.7,0,1,0c0,0.3,0,0.7,0,1c-0.3,0-0.7,0-1,0C60.7,80.7,60.7,80.4,60.7,80.1z"/>
	<path class="st56" d="M133.7,80.1c0,0.3,0,0.7,0,1c-0.3-0.3-0.7-0.7-1-1C133,80.1,133.3,80.1,133.7,80.1z"/>
	<path class="st46" d="M109.7,82.1c0.3,0,0.7,0,1,0c0,0.3,0,0.7,0,1c-0.3,0-0.7,0-1,0C109.7,82.7,109.7,82.4,109.7,82.1z"/>
	<path class="st11" d="M112.7,82.1c0.3,0,0.7,0,1,0c0,0.3,0,0.7,0,1C113.3,82.7,113,82.4,112.7,82.1z"/>
	<path class="st29" d="M115.7,81.1c0.3,0,0.7,0,1,0c-0.3,0.3-0.7,0.7-1,1C115.7,81.7,115.7,81.4,115.7,81.1z"/>
	<path class="st43" d="M58.7,81.1c-0.3,0-0.7,0-1,0c0.3-0.3,0.7-0.7,1-1C58.7,80.4,58.7,80.7,58.7,81.1z"/>
	<path class="st38" d="M143.7,82.1c0.3,0,0.7,0,1,0c0,0.3,0,0.7,0,1c-0.3,0-0.7,0-1,0C143.7,82.7,143.7,82.4,143.7,82.1z"/>
	<path class="st28" d="M151.7,82.1c0.3,0.3,0.7,0.7,1,1c-0.3,0-0.7,0-1,0C151.7,82.7,151.7,82.4,151.7,82.1z"/>
	<path class="st55" d="M121.7,80.1c0,0.3,0,0.7,0,1c-0.3,0-0.7,0-1,0c0-0.3,0-0.7,0-1C121,80.1,121.3,80.1,121.7,80.1z"/>
	<path class="st28" d="M86.7,81.1c0-0.3,0-0.7,0-1c0.3,0,0.7,0,1,0c0,0.3,0,0.7,0,1C87.3,81.1,87,81.1,86.7,81.1z"/>
	<path class="st43" d="M106.7,83.1c0.3,0,0.7,0,1,0c0,0.3,0,0.7,0,1c-0.3,0-0.7,0-1,0C106.7,83.7,106.7,83.4,106.7,83.1z"/>
	<path class="st19" d="M75.7,77.1c0.3-0.3,0.7-0.7,1-1c0,0.3,0,0.7,0,1C76.3,77.1,76,77.1,75.7,77.1z"/>
	<path class="st53" d="M137.7,80.1c0.3,0,0.7,0,1,0c0,0.3,0,0.7,0,1c-0.3,0-0.7,0-1,0C137.7,80.7,137.7,80.4,137.7,80.1z"/>
	<path class="st19" d="M101.9,69.8c0.1-3.5-1.4-6-1.3-8.9c0.2-5.3,0.1-10.6,0-16c0-2.6,0.9-4.8,2.5-6.9c1.7,3.3,1.5,6.7,1.5,10.1
		c0,5.5,0,11,0,16.5C104.7,66.5,104.1,68.1,101.9,69.8z"/>
	<path class="st57" d="M71.7,68.5c0-8.3,0-16.5,0-25c0.6-0.5,1.3-1.1,2-1.6c0.5,0.4,1,0.6,1,0.7c0,8.1,0.1,16.2,0,24.3
		c0,1-0.5,2-1.6,3.3c-0.2-0.6-0.4-1.2-0.6-1.8C72.2,68.5,71.9,68.5,71.7,68.5z"/>
	<path class="st7" d="M58.7,55.7c-0.9,0.7-1.5,1.1-2,1.5c-0.5-0.4-1-0.5-1-0.7c0-2.8,0-5.5,0-8.2c1.8-0.4,3.2-0.7,3,1.7
		C58.5,51.9,58.7,53.7,58.7,55.7z"/>
	<path class="st25" d="M137.8,62.5c-2.4-5.2-0.7-9.8,0.9-14.4c0,2.1-0.1,4.2,0,6.3c0.2,2-1,4.3,0.9,6.2
		C139.2,61,138.8,61.5,137.8,62.5z"/>
	<path class="st43" d="M99.7,85.1c0-0.3,0-0.7,0-1c0.3,0,0.7,0,1,0s0.7,0,1,0c0,0.3,0,0.7,0,1C101,85.1,100.3,85.1,99.7,85.1z"/>
	<path class="st18" d="M106.7,85.1c-0.6,0-1.2,0-1.8,0c0-0.2,0-0.4-0.1-0.7c0.6-0.1,1.3-0.2,1.9-0.3
		C106.7,84.4,106.7,84.7,106.7,85.1z"/>
	<path class="st53" d="M101.7,85.1c0-0.3,0-0.7,0-1c0.3,0.3,0.7,0.7,1,1C102.3,85.1,102,85.1,101.7,85.1z"/>
	<path class="st52" d="M106.7,85.1c0-0.3,0-0.7,0-1c0.3,0,0.7,0,1,0c0,0.3,0,0.7,0,1C107.3,85.1,107,85.1,106.7,85.1z"/>
	<path class="st19" d="M130.7,82.1c0-0.3,0-0.7,0-1c0.3,0,0.7,0,1,0c0,0.9,0,1.8,0,3c-0.8,0-1.4,0-2,0c0-0.3,0-0.7,0-1
		C130,82.7,130.3,82.4,130.7,82.1z"/>
	<path class="st36" d="M131.7,81.1c-0.3,0-0.7,0-1,0s-0.7,0-1,0c0.1-1.5,1.2-0.8,2-1C131.7,80.4,131.7,80.7,131.7,81.1z"/>
	<path class="st16" d="M100.7,84.1c-0.3,0-0.7,0-1,0c0-1,0-2,0-3c0.3,0,0.7,0,1,0C100.7,82.1,100.7,83.1,100.7,84.1z"/>
	<path class="st58" d="M100.7,84.1c0-1,0-2,0-3c0.3,0,0.7,0,1,0c0,1,0,2,0,3C101.3,84.1,101,84.1,100.7,84.1z"/>
	<path class="st22" d="M104.7,80.1c0.3,0.3,0.7,0.7,1,1C105.3,80.7,105,80.4,104.7,80.1z"/>
	<path class="st37" d="M85.7,81.1c0.3,0,0.7,0,1,0c0,1,0,2,0,3C84.7,83.6,86.1,82.1,85.7,81.1z"/>
	<path class="st24" d="M138.7,81.1c0.5,0,1,0,1.8,0c0.1,0.9,0.2,1.8,0.3,3c-0.8,0-1.5,0-2.1,0C138.7,83.1,138.7,82.1,138.7,81.1z"/>
	<path class="st0" d="M53.7,84.1c0-1,0-2,0-3c0.5,0,1,0,1.8,0c0.1,0.9,0.2,1.8,0.3,3C54.9,84.1,54.3,84.1,53.7,84.1z"/>
	<path class="st0" d="M65.7,81.1c0,1,0,2,0,3c-0.5,0-1,0-1.8,0c-0.1-0.9-0.2-1.8-0.3-3C64.4,81.1,65.1,81.1,65.7,81.1z"/>
	<path class="st49" d="M108.7,85.1c0-0.3,0-0.7,0-1c0.3,0.2,0.6,0.4,0.8,0.7C109.2,84.9,108.9,85,108.7,85.1z"/>
	<path class="st59" d="M144.7,83.1c0-0.3,0-0.7,0-1c0.3-0.3,0.7-0.7,1-1c0.3,0,0.7,0,1,0c-0.4,1,0.9,2.5-1,3
		C145.3,83.7,145,83.4,144.7,83.1z"/>
	<path class="st60" d="M76.7,80.1c0.3,0,0.7,0,1,0c0,1.7,0,3.3,0,5c-0.3,0-0.7,0-1,0C76.7,83.4,76.7,81.7,76.7,80.1z"/>
	<path class="st0" d="M50.7,84.1c-0.7,0-1.3,0-2,0c0-1,0-2,0-3c0.6,0,1.2,0,2,0C50.7,82.3,50.7,83.2,50.7,84.1z"/>
	<path class="st50" d="M111.7,81.1c-0.3-0.3-0.7-0.7-1-1C111,80.4,111.3,80.7,111.7,81.1z"/>
	<path class="st22" d="M84.7,81.1c-0.3,0-0.7,0-1,0c0.3-0.3,0.7-0.7,1-1C84.7,80.4,84.7,80.7,84.7,81.1z"/>
	<path class="st60" d="M89.7,84.1c-0.3,0-0.7,0-1,0c0-1,0-2,0-3c0.3,0,0.7,0,1,0C89.7,82.1,89.7,83.1,89.7,84.1z"/>
	<path class="st19" d="M149.7,81.1c0.3,0,0.7,0,1,0c0,0.3,0,0.7,0,1C150.3,81.7,150,81.4,149.7,81.1z"/>
	<path class="st0" d="M150.7,82.1c0-0.3,0-0.7,0-1c0.3,0,0.7,0,1,0c0,0.3,0,0.7,0,1C151.3,82.1,151,82.1,150.7,82.1z"/>
	<path class="st18" d="M75.7,84.1c-0.3,0-0.7,0-1,0c0-1,0-2,0-3c0.3,0,0.7,0,1,0C75.7,82.1,75.7,83.1,75.7,84.1z"/>
	<path class="st39" d="M75.7,81.1c-0.3,0-0.7,0-1,0c0-0.3,0-0.7,0-1c0.3,0,0.7,0,1,0C75.7,80.4,75.7,80.7,75.7,81.1z"/>
	<path class="st61" d="M74.7,81.1c0,1,0,2,0,3c-0.8-0.2-1.9,0.5-2-1c0-0.7,0-1.3,0-2C73.3,81.1,74,81.1,74.7,81.1z"/>
	<path class="st21" d="M138.7,81.1c0,1,0,2,0,3c-0.3,0-0.7,0-1,0c0-1,0-2,0-3C138,81.1,138.3,81.1,138.7,81.1z"/>
	<path class="st62" d="M88.7,81.1c0,1,0,2,0,3c-0.3,0-0.7,0-1,0c0-1,0-2,0-3C88,81.1,88.3,81.1,88.7,81.1z"/>
	<path class="st63" d="M87.7,81.1c0,1,0,2,0,3c-0.3,0-0.7,0-1,0c0-1,0-2,0-3C87,81.1,87.3,81.1,87.7,81.1z"/>
</g>
</svg>
