<?xml version="1.0" encoding="utf-8"?>
<!-- Generator: Adobe Illustrator 25.1.0, SVG Export Plug-In . SVG Version: 6.00 Build 0)  -->
<svg version="1.1" id="Warstwa_1" xmlns="http://www.w3.org/2000/svg" xmlns:xlink="http://www.w3.org/1999/xlink" x="0px" y="0px"
	 viewBox="0 0 210 120" style="enable-background:new 0 0 210 120;" xml:space="preserve">
<style type="text/css">
	.st0{fill:#9F9F9F;}
</style>
<g>
	<path class="st0" d="M74.18,78.08c-1.51-0.12-2.67-0.79-3.66-2.09c-0.6-0.8-1.16-1.94-1.59-3.23c-1.14-3.45-1.66-8.58-1.61-15.81
		c0.01-1.98,0.02-2.42,0.1-3.76c0.16-2.79,0.5-5.39,0.99-7.6c1.11-5.03,2.95-8.16,5.36-9.11c0.78-0.31,1.72-0.38,2.56-0.2
		c2.21,0.48,3.59,2.7,4.29,6.91c0.46,2.75,0.63,5.9,0.68,12.2c0.04,6.47-0.19,10.78-0.76,14.2c-0.71,4.24-1.95,6.81-3.82,7.92
		c-0.41,0.24-0.98,0.44-1.47,0.51C74.99,78.07,74.39,78.1,74.18,78.08 M74.7,71.08c0.83-0.39,1.28-2.44,1.44-6.55
		c0.06-1.57,0.08-2.71,0.09-7.59c0.01-5.06,0-7.23-0.06-8.64c-0.11-2.62-0.35-4.12-0.79-4.96c-0.12-0.22-0.31-0.46-0.46-0.56
		c-0.11-0.07-0.32-0.13-0.43-0.13c-0.13,0-0.36,0.08-0.49,0.17c-0.63,0.43-1.06,1.9-1.29,4.38c-0.21,2.29-0.28,5.41-0.26,11.42
		c0.01,3.39,0.03,4.5,0.09,5.93c0.15,3.62,0.53,5.63,1.21,6.31C74.03,71.16,74.37,71.23,74.7,71.08 M103.24,77.97
		c-1.04-0.13-1.92-0.59-2.72-1.41c-0.55-0.57-0.94-1.14-1.39-2.05c-1.33-2.69-2.11-6.98-2.39-13.14c-0.19-4.23-0.16-10,0.07-14.13
		c0.27-4.73,0.84-8.2,1.75-10.65c0.98-2.63,2.4-4.08,4.23-4.31c0.38-0.05,1.13-0.02,1.51,0.06c0.6,0.13,1.15,0.35,1.62,0.66
		c2.64,1.74,4.06,6.37,4.51,14.71c0.13,2.32,0.16,3.84,0.16,7.59c0,3.38-0.01,4.17-0.1,6.18c-0.28,6.64-1.09,11.03-2.52,13.67
		c-0.2,0.37-0.6,0.96-0.85,1.26c-0.75,0.89-1.65,1.41-2.69,1.56C104.17,78,103.5,78.01,103.24,77.97 M103.98,70.37
		c0.72-0.36,1.14-1.98,1.36-5.17c0.16-2.28,0.19-4.46,0.17-11.61c-0.01-5.33-0.02-6.16-0.09-7.71c-0.15-3.4-0.49-5.29-1.09-6.09
		c-0.12-0.16-0.21-0.23-0.38-0.32c-0.09-0.05-0.14-0.06-0.32-0.06c-0.19,0-0.23,0.01-0.34,0.07c-0.75,0.42-1.18,2.08-1.39,5.34
		c-0.12,1.91-0.14,2.95-0.15,8.69c-0.02,7.05,0.02,9.4,0.19,11.72c0.21,2.95,0.61,4.55,1.26,5.04c0.16,0.12,0.28,0.16,0.47,0.17
		C103.8,70.45,103.86,70.44,103.98,70.37 M62.81,77.38c-1.12-0.02-2.04-0.04-2.05-0.05c-0.01-0.01-0.51-3.25-1.11-7.21
		c-0.61-3.96-1.1-7.21-1.11-7.21c-0.01-0.01-1.17,0.13-1.29,0.16l-0.07,0.01v7.06v7.06l-0.41,0c-0.23,0-1.27,0.02-2.31,0.04
		c-1.04,0.02-1.95,0.04-2.01,0.04l-0.11,0l0-15.19l0-15.19l0.83-0.44c0.94-0.5,1.77-0.94,2.32-1.24c0.4-0.22,1.12-0.6,2.78-1.49
		c1.58-0.85,1.75-0.92,2.27-1.04c0.32-0.07,0.82-0.1,1.11-0.06c0.95,0.14,1.77,0.74,2.42,1.77c0.19,0.3,0.49,0.92,0.64,1.32
		c0.7,1.88,0.92,4.47,0.6,7.06c-0.34,2.72-1.23,5.35-2.55,7.48c-0.1,0.17-0.11,0.18-0.09,0.29c0.05,0.28,2.76,16.86,2.76,16.88
		C65.41,77.43,65.56,77.43,62.81,77.38 M57.4,58.67c0.33-0.07,0.57-0.16,0.88-0.31c1.08-0.54,1.76-1.61,2.05-3.24
		c0.28-1.57,0.19-3.82-0.21-5.03c-0.26-0.79-0.62-1.21-1.14-1.32c-0.43-0.09-1.02,0.1-1.65,0.52l-0.24,0.16l-0.01,4.63
		c-0.01,4.63-0.01,4.63,0.04,4.63C57.17,58.71,57.29,58.69,57.4,58.67 M86.62,76.03c0-1.52-0.14-30.22-0.15-32.86
		c-0.01-1.02-0.02-1.85-0.02-1.86c-0.01-0.01-0.36,0.04-2.01,0.28c-1.59,0.24-1.83,0.27-1.84,0.26c0-0.01-0.01-1.57-0.02-3.47
		l-0.01-3.46l0.41-0.08c2.51-0.49,5.09-0.89,7.59-1.18c1.61-0.19,2.61-0.29,4.57-0.45l0.19-0.02v3.6v3.6l-0.1,0.01
		c-0.06,0.01-0.88,0.07-1.83,0.15c-0.95,0.07-1.77,0.14-1.81,0.15l-0.08,0.01V59v18.3h-2.44h-2.44V76.03z M113.22,55.48
		c0-20.7,0-21.75,0.04-21.75c0.13,0,6.12,0.74,6.14,0.76c0.01,0.01,0.5,4.6,1.08,10.19c1.08,10.32,1.09,10.38,1.1,10.37
		c0,0,0.49-4.46,1.08-9.91c0.59-5.45,1.08-9.91,1.08-9.91c0,0,2.66,0.65,5.27,1.3l1.08,0.27l0.01,20.22l0.01,20.22h-2.14h-2.14
		l0-14.77c0-8.55-0.01-14.72-0.02-14.65c-0.01,0.07-0.72,6.69-1.57,14.72c-0.85,8.03-1.56,14.62-1.56,14.65l-0.01,0.05h-1.36h-1.36
		l-0.01-0.13c-0.01-0.07-0.33-3.19-0.71-6.94c-1.81-17.68-2.34-22.83-2.35-22.84c-0.01-0.01-0.01,6.72-0.01,14.95v14.96h-1.82h-1.82
		V55.48z M131.92,77.15c0.01-0.04,0.63-6.88,1.38-15.2c2.03-22.43,2.15-23.77,2.17-23.78c0.01-0.01,1.47,0.48,3.26,1.07l3.25,1.08
		l0.01,0.1c0.01,0.06,0.29,3.12,0.63,6.82c0.34,3.7,1.09,11.93,1.67,18.31c0.58,6.37,1.06,11.61,1.06,11.63
		c0,0.05-0.03,0.05-2.22,0.05h-2.22l0-0.05c0-0.08-0.77-8.1-0.77-8.11c-0.01-0.01-3.58-0.16-3.59-0.15
		c-0.01,0.01-0.64,8.24-0.64,8.29c0,0.02-0.41,0.03-1.99,0.03h-1.99L131.92,77.15z M139.64,62.75c-0.01-0.08-0.32-3.82-0.7-8.31
		c-0.38-4.49-0.7-8.21-0.71-8.26c-0.01-0.06-0.24,2.79-0.64,8.08c-0.34,4.5-0.62,8.19-0.61,8.19c0.01,0.01,2.51,0.44,2.6,0.44
		l0.07,0L139.64,62.75z M149.65,62.95c0-13.58,0-14.28-0.04-14.3c-0.02-0.01-0.46-0.15-0.97-0.31c-0.51-0.16-1.4-0.44-1.97-0.62
		l-1.05-0.33l-0.01-2.88c0-2.07,0-2.88,0.02-2.88c0.05,0,2.34,0.85,3.94,1.46c2.88,1.1,5.51,2.18,8.31,3.41l0.49,0.21v2.47
		c0,1.36,0,2.47-0.01,2.47c-0.01,0-0.88-0.33-3.26-1.22c-0.4-0.15-0.74-0.28-0.75-0.28c-0.01,0-0.02,6.09-0.02,13.54v13.54h-2.34
		h-2.34V62.95z"/>
	<path class="st0" d="M49.59,87.71h-0.29c-0.07,0-0.1-0.04-0.1-0.11v-6.58c0-0.08,0.03-0.12,0.1-0.12h0.29
		c0.07,0,0.11,0.04,0.11,0.12v0.41h0.04c0.19-0.36,0.54-0.54,1.05-0.54h0.69c0.43,0,0.77,0.13,1.02,0.39
		c0.25,0.26,0.37,0.62,0.37,1.08v2.34c0,0.46-0.12,0.81-0.37,1.08c-0.25,0.26-0.59,0.39-1.02,0.39h-0.69
		c-0.51,0-0.86-0.18-1.05-0.54H49.7v1.97C49.7,87.67,49.66,87.71,49.59,87.71 M50.73,85.7h0.67c0.31,0,0.55-0.09,0.71-0.26
		c0.16-0.18,0.25-0.43,0.25-0.76v-2.3c0-0.33-0.08-0.58-0.25-0.76c-0.16-0.18-0.4-0.26-0.71-0.26h-0.67c-0.32,0-0.58,0.09-0.76,0.26
		c-0.18,0.18-0.28,0.43-0.28,0.75v2.32c0,0.32,0.09,0.57,0.28,0.75C50.16,85.61,50.41,85.7,50.73,85.7"/>
	<path class="st0" d="M56.45,86.16h-0.87c-0.44,0-0.78-0.13-1.03-0.39c-0.25-0.26-0.38-0.62-0.38-1.08v-2.34
		c0-0.46,0.13-0.81,0.38-1.08c0.25-0.26,0.6-0.39,1.03-0.39h0.87c0.44,0,0.78,0.13,1.04,0.39c0.26,0.26,0.38,0.62,0.38,1.08v2.34
		c0,0.46-0.13,0.81-0.38,1.08C57.23,86.03,56.89,86.16,56.45,86.16 M55.62,85.7h0.79c0.31,0,0.55-0.09,0.71-0.26
		c0.16-0.18,0.25-0.43,0.25-0.75v-2.32c0-0.32-0.08-0.57-0.25-0.75c-0.16-0.18-0.4-0.26-0.71-0.26h-0.79
		c-0.31,0-0.54,0.09-0.71,0.26c-0.16,0.18-0.24,0.43-0.24,0.75v2.32c0,0.32,0.08,0.57,0.24,0.75C55.08,85.61,55.31,85.7,55.62,85.7"
		/>
	<path class="st0" d="M61.24,86.16h-0.68c-0.43,0-0.77-0.13-1.02-0.39c-0.25-0.26-0.37-0.62-0.37-1.08v-2.34
		c0-0.46,0.12-0.81,0.37-1.08c0.25-0.26,0.59-0.39,1.02-0.39h0.68c0.52,0,0.87,0.18,1.06,0.54h0.04v-2.41c0-0.08,0.03-0.12,0.1-0.12
		h0.29c0.07,0,0.11,0.04,0.11,0.12v7.03c0,0.08-0.04,0.12-0.11,0.12h-0.29c-0.07,0-0.1-0.04-0.1-0.12v-0.41h-0.04
		C62.11,85.99,61.75,86.16,61.24,86.16 M62.33,84.68v-2.32c0-0.32-0.09-0.57-0.28-0.75c-0.18-0.18-0.44-0.26-0.76-0.26h-0.68
		c-0.31,0-0.54,0.09-0.71,0.27c-0.16,0.18-0.24,0.43-0.24,0.76v2.3c0,0.32,0.08,0.58,0.24,0.76c0.16,0.18,0.4,0.27,0.71,0.27h0.68
		c0.32,0,0.58-0.09,0.76-0.26C62.24,85.26,62.33,85.01,62.33,84.68"/>
	<path class="st0" d="M67.08,86.91l0.39-0.01c0.18-0.01,0.27,0.03,0.27,0.11c-0.01,0.08-0.08,0.15-0.23,0.21
		c-0.15,0.07-0.31,0.1-0.48,0.1c-0.17,0-0.28-0.06-0.31-0.18c-0.04-0.12-0.02-0.23,0.07-0.33l0.6-0.83v-0.36h-0.04
		c-0.17,0.36-0.52,0.54-1.05,0.54h-0.64c-0.44,0-0.78-0.13-1.03-0.39c-0.25-0.26-0.38-0.62-0.38-1.08v-2.34
		c0-0.46,0.13-0.81,0.38-1.08c0.25-0.26,0.6-0.39,1.03-0.39h2.14c0.07,0,0.1,0.04,0.1,0.12v5.03c0,0.08-0.03,0.12-0.1,0.12h-0.19
		c-0.03,0.03-0.07,0.09-0.13,0.18c-0.06,0.08-0.11,0.15-0.15,0.21C67.23,86.69,67.15,86.81,67.08,86.91 M65.7,85.7h0.66
		c0.32,0,0.58-0.09,0.76-0.26c0.18-0.18,0.28-0.43,0.28-0.75v-3.24c0-0.06-0.03-0.09-0.1-0.09H65.7c-0.31,0-0.54,0.09-0.71,0.27
		c-0.16,0.18-0.24,0.43-0.24,0.76v2.3c0,0.32,0.08,0.58,0.24,0.76C65.16,85.61,65.39,85.7,65.7,85.7"/>
	<path class="st0" d="M69,86.05v-0.14c0-0.08,0.02-0.14,0.06-0.2l2.64-4.31v-0.04h-2.52c-0.07,0-0.11-0.04-0.11-0.11V81
		c0-0.08,0.04-0.11,0.11-0.11h3.02c0.08,0,0.12,0.04,0.12,0.11v0.23c0,0.06-0.02,0.12-0.05,0.18l-2.6,4.25v0.04h2.6
		c0.08,0,0.12,0.04,0.12,0.11v0.24c0,0.08-0.04,0.11-0.12,0.11h-3.15C69.04,86.16,69,86.13,69,86.05 M70.63,80.07v-1.02
		c0-0.08,0.04-0.11,0.11-0.11h0.29c0.07,0,0.11,0.04,0.11,0.11v1.02c0,0.08-0.04,0.11-0.11,0.11h-0.29
		C70.67,80.18,70.63,80.15,70.63,80.07"/>
	<path class="st0" d="M75.45,86.16H74.8c-0.44,0-0.78-0.13-1.03-0.39c-0.25-0.26-0.38-0.62-0.38-1.08v-2.34
		c0-0.46,0.13-0.81,0.38-1.08c0.25-0.26,0.6-0.39,1.03-0.39h2.14c0.07,0,0.1,0.04,0.1,0.12v5.03c0,0.08-0.03,0.12-0.1,0.12h-0.29
		c-0.07,0-0.11-0.04-0.11-0.12v-0.41h-0.04C76.32,85.99,75.97,86.16,75.45,86.16 M76.53,84.68v-3.24c0-0.06-0.03-0.09-0.1-0.09
		h-1.59c-0.31,0-0.54,0.09-0.71,0.27c-0.16,0.18-0.24,0.43-0.24,0.76v2.3c0,0.32,0.08,0.58,0.24,0.76c0.16,0.18,0.4,0.27,0.71,0.27
		h0.66c0.32,0,0.58-0.09,0.76-0.26C76.44,85.26,76.53,85.01,76.53,84.68"/>
	<path class="st0" d="M77.68,87.61h-0.29c-0.08,0-0.12-0.04-0.12-0.11v-0.25c0-0.07,0.04-0.1,0.12-0.1h0.21c0.67,0,1-0.36,1-1.07
		v-5.07c0-0.08,0.03-0.12,0.1-0.12h0.29c0.07,0,0.11,0.04,0.11,0.12v5.13c0,0.46-0.13,0.81-0.38,1.08
		C78.47,87.48,78.12,87.61,77.68,87.61 M78.6,80.02v-0.99c0-0.08,0.03-0.11,0.1-0.11H79c0.07,0,0.1,0.04,0.1,0.11v0.99
		c0,0.08-0.03,0.12-0.1,0.12h-0.3C78.63,80.14,78.6,80.1,78.6,80.02"/>
	<path class="st0" d="M82.94,86.05v-0.14c0-0.08,0.02-0.14,0.06-0.2l2.64-4.31v-0.04h-2.52c-0.07,0-0.11-0.04-0.11-0.11V81
		c0-0.08,0.04-0.11,0.11-0.11h3.02c0.08,0,0.12,0.04,0.12,0.11v0.23c0,0.06-0.02,0.12-0.05,0.18l-2.6,4.25v0.04h2.6
		c0.08,0,0.12,0.04,0.12,0.11v0.24c0,0.08-0.04,0.11-0.12,0.11h-3.15C82.98,86.16,82.94,86.13,82.94,86.05"/>
	<path class="st0" d="M89.39,86.16h-0.65c-0.44,0-0.78-0.13-1.03-0.39c-0.25-0.26-0.38-0.62-0.38-1.08v-2.34
		c0-0.46,0.13-0.81,0.38-1.08c0.25-0.26,0.6-0.39,1.03-0.39h2.14c0.07,0,0.1,0.04,0.1,0.12v5.03c0,0.08-0.03,0.12-0.1,0.12h-0.29
		c-0.07,0-0.11-0.04-0.11-0.12v-0.41h-0.04C90.27,85.99,89.92,86.16,89.39,86.16 M90.48,84.68v-3.24c0-0.06-0.03-0.09-0.1-0.09
		h-1.59c-0.31,0-0.54,0.09-0.71,0.27c-0.16,0.18-0.24,0.43-0.24,0.76v2.3c0,0.32,0.08,0.58,0.24,0.76c0.16,0.18,0.4,0.27,0.71,0.27
		h0.66c0.32,0,0.58-0.09,0.76-0.26C90.39,85.26,90.48,85.01,90.48,84.68"/>
	<path class="st0" d="M95.58,86.16h-0.29c-0.07,0-0.1-0.04-0.1-0.12v-5.03c0-0.08,0.03-0.12,0.1-0.12h0.29
		c0.07,0,0.11,0.04,0.11,0.12v0.41h0.04c0.19-0.36,0.54-0.54,1.05-0.54h0.67c0.43,0,0.77,0.13,1.02,0.39
		c0.25,0.26,0.37,0.62,0.37,1.08v3.68c0,0.08-0.03,0.12-0.1,0.12h-0.29c-0.07,0-0.11-0.04-0.11-0.12v-3.66
		c0-0.32-0.08-0.58-0.24-0.76c-0.16-0.18-0.4-0.27-0.71-0.27h-0.66c-0.32,0-0.58,0.09-0.76,0.26c-0.19,0.18-0.28,0.43-0.28,0.75
		v3.67C95.69,86.12,95.66,86.16,95.58,86.16"/>
	<path class="st0" d="M102.25,86.16h-0.65c-0.44,0-0.78-0.13-1.03-0.39c-0.25-0.26-0.38-0.62-0.38-1.08v-2.34
		c0-0.46,0.13-0.81,0.38-1.08c0.25-0.26,0.6-0.39,1.03-0.39h2.14c0.07,0,0.1,0.04,0.1,0.12v5.03c0,0.08-0.03,0.12-0.1,0.12h-0.29
		c-0.07,0-0.11-0.04-0.11-0.12v-0.41h-0.04C103.13,85.99,102.78,86.16,102.25,86.16 M103.34,84.68v-3.24c0-0.06-0.03-0.09-0.1-0.09
		h-1.59c-0.31,0-0.54,0.09-0.71,0.27c-0.16,0.18-0.24,0.43-0.24,0.76v2.3c0,0.32,0.08,0.58,0.24,0.76c0.16,0.18,0.4,0.27,0.71,0.27
		h0.66c0.32,0,0.58-0.09,0.76-0.26C103.25,85.26,103.34,85.01,103.34,84.68"/>
	<path class="st0" d="M107.02,86.16h-1.75c-0.07,0-0.11-0.04-0.11-0.11v-0.24c0-0.07,0.04-0.1,0.11-0.1h1.7
		c0.6,0,0.91-0.24,0.91-0.72v-0.25c0-0.45-0.19-0.74-0.56-0.88l-1.26-0.5c-0.34-0.14-0.59-0.3-0.73-0.49
		c-0.14-0.19-0.22-0.44-0.22-0.78c0-0.81,0.43-1.21,1.3-1.21h1.63c0.07,0,0.11,0.04,0.11,0.11v0.24c0,0.07-0.04,0.1-0.11,0.1h-1.58
		c-0.28,0-0.48,0.06-0.62,0.19c-0.14,0.12-0.21,0.27-0.21,0.43v0.24c0,0.19,0.05,0.34,0.16,0.46c0.1,0.11,0.26,0.2,0.48,0.28
		l1.26,0.52c0.35,0.12,0.58,0.29,0.7,0.52c0.12,0.23,0.18,0.55,0.18,0.97c0,0.41-0.11,0.72-0.34,0.92
		C107.84,86.06,107.49,86.16,107.02,86.16"/>
	<path class="st0" d="M109.29,86.05v-0.14c0-0.08,0.02-0.14,0.06-0.2l2.64-4.31v-0.04h-2.52c-0.07,0-0.11-0.04-0.11-0.11V81
		c0-0.08,0.04-0.11,0.11-0.11h3.02c0.08,0,0.12,0.04,0.12,0.11v0.23c0,0.06-0.02,0.12-0.05,0.18l-2.6,4.25v0.04h2.6
		c0.08,0,0.12,0.04,0.12,0.11v0.24c0,0.08-0.04,0.11-0.12,0.11h-3.15C109.33,86.16,109.29,86.13,109.29,86.05"/>
	<path class="st0" d="M114.03,87.74h-0.37c-0.07,0-0.11-0.04-0.11-0.11v-0.25c0-0.08,0.04-0.11,0.11-0.11h0.27
		c0.2,0,0.37-0.03,0.51-0.09c0.14-0.06,0.27-0.17,0.37-0.33c0.11-0.16,0.18-0.28,0.21-0.37c0.09-0.21,0.17-0.41,0.23-0.59h-0.19
		c-0.07,0-0.12-0.04-0.14-0.12l-1.6-4.75c-0.03-0.08,0-0.12,0.08-0.12h0.31c0.07,0,0.11,0.04,0.13,0.12l1.48,4.44h0.04l1.48-4.44
		c0.02-0.08,0.06-0.12,0.13-0.12h0.3c0.08,0,0.11,0.04,0.09,0.12c-1.2,3.61-1.83,5.48-1.88,5.61c-0.05,0.12-0.14,0.29-0.28,0.51
		C114.96,87.53,114.56,87.74,114.03,87.74"/>
	<path class="st0" d="M118.8,86.16h-0.29c-0.07,0-0.1-0.04-0.1-0.12v-5.03c0-0.08,0.03-0.12,0.1-0.12h0.29
		c0.07,0,0.11,0.04,0.11,0.12v0.41h0.04c0.19-0.36,0.55-0.54,1.07-0.54h0.41c0.59,0,1,0.24,1.23,0.72c0.1-0.24,0.27-0.42,0.51-0.54
		c0.24-0.12,0.49-0.18,0.75-0.18h0.37c0.44,0,0.78,0.13,1.03,0.39c0.25,0.26,0.37,0.62,0.37,1.08v3.68c0,0.08-0.04,0.12-0.11,0.12
		h-0.29c-0.07,0-0.11-0.04-0.11-0.12v-3.66c0-0.33-0.08-0.58-0.24-0.76s-0.4-0.26-0.71-0.26h-0.37c-0.32,0-0.58,0.1-0.77,0.28
		c-0.19,0.19-0.28,0.45-0.28,0.77v3.63c0,0.08-0.04,0.12-0.11,0.12h-0.29c-0.07,0-0.11-0.04-0.11-0.12v-3.66
		c0-0.33-0.08-0.58-0.24-0.76c-0.16-0.18-0.4-0.26-0.71-0.26h-0.4c-0.32,0-0.58,0.09-0.76,0.26c-0.18,0.18-0.28,0.43-0.28,0.75v3.67
		C118.91,86.12,118.88,86.16,118.8,86.16"/>
	<path class="st0" d="M128.44,86.05v-0.14c0-0.08,0.02-0.14,0.06-0.2l2.64-4.31v-0.04h-2.52c-0.07,0-0.11-0.04-0.11-0.11V81
		c0-0.08,0.04-0.11,0.11-0.11h3.02c0.08,0,0.12,0.04,0.12,0.11v0.23c0,0.06-0.02,0.12-0.05,0.18l-2.6,4.25v0.04h2.6
		c0.08,0,0.12,0.04,0.12,0.11v0.24c0,0.08-0.04,0.11-0.12,0.11h-3.15C128.48,86.16,128.44,86.13,128.44,86.05"/>
	<path class="st0" d="M133.32,86.16h-0.29c-0.07,0-0.1-0.04-0.1-0.12v-5.03c0-0.08,0.03-0.12,0.1-0.12h0.29
		c0.07,0,0.11,0.04,0.11,0.12v0.41h0.04c0.19-0.36,0.54-0.54,1.05-0.54h0.67c0.43,0,0.77,0.13,1.02,0.39
		c0.25,0.26,0.37,0.62,0.37,1.08v3.68c0,0.08-0.03,0.12-0.1,0.12h-0.29c-0.07,0-0.11-0.04-0.11-0.12v-3.66
		c0-0.32-0.08-0.58-0.24-0.76c-0.16-0.18-0.4-0.27-0.71-0.27h-0.66c-0.32,0-0.58,0.09-0.76,0.26c-0.18,0.18-0.28,0.43-0.28,0.75
		v3.67C133.44,86.12,133.4,86.16,133.32,86.16"/>
	<path class="st0" d="M140,86.16h-0.65c-0.44,0-0.78-0.13-1.03-0.39c-0.25-0.26-0.38-0.62-0.38-1.08v-2.34
		c0-0.46,0.13-0.81,0.38-1.08c0.25-0.26,0.6-0.39,1.03-0.39h2.14c0.07,0,0.1,0.04,0.1,0.12v5.03c0,0.08-0.03,0.12-0.1,0.12h-0.29
		c-0.07,0-0.11-0.04-0.11-0.12v-0.41h-0.04C140.87,85.99,140.52,86.16,140,86.16 M141.08,84.68v-3.24c0-0.06-0.03-0.09-0.1-0.09
		h-1.59c-0.31,0-0.54,0.09-0.71,0.27c-0.16,0.18-0.24,0.43-0.24,0.76v2.3c0,0.32,0.08,0.58,0.24,0.76c0.16,0.18,0.4,0.27,0.71,0.27
		h0.66c0.32,0,0.58-0.09,0.76-0.26C140.99,85.26,141.08,85.01,141.08,84.68"/>
	<path class="st0" d="M143.49,86.16h-0.29c-0.07,0-0.1-0.04-0.1-0.12v-7.03c0-0.08,0.03-0.12,0.1-0.12h0.29
		c0.07,0,0.11,0.04,0.11,0.12v7.03C143.6,86.12,143.57,86.16,143.49,86.16 M145.99,80.89h0.31c0.04,0,0.07,0.01,0.08,0.04
		c0.01,0.02,0.01,0.05-0.02,0.09l-1.54,2.4v0.04l1.72,2.59c0.03,0.03,0.03,0.06,0.02,0.09c-0.01,0.02-0.04,0.04-0.08,0.04h-0.31
		c-0.1,0-0.18-0.04-0.23-0.12l-1.66-2.51c-0.03-0.06-0.03-0.11,0-0.17l1.51-2.37C145.83,80.92,145.9,80.89,145.99,80.89"/>
	<path class="st0" d="M147.49,80.02v-0.99c0-0.08,0.03-0.11,0.1-0.11h0.3c0.07,0,0.1,0.04,0.1,0.11v0.99c0,0.08-0.03,0.12-0.1,0.12
		h-0.3C147.53,80.14,147.49,80.1,147.49,80.02 M147.49,86.04v-5.03c0-0.08,0.03-0.12,0.1-0.12h0.29c0.07,0,0.11,0.04,0.11,0.12v5.03
		c0,0.08-0.03,0.12-0.1,0.12h-0.3C147.53,86.16,147.49,86.12,147.49,86.04"/>
	<path class="st0" d="M152.98,86.16h-2.11c-0.44,0-0.78-0.13-1.03-0.39c-0.25-0.26-0.38-0.62-0.38-1.08v-2.34
		c0-0.46,0.13-0.81,0.38-1.08c0.25-0.26,0.6-0.39,1.03-0.39h0.87c0.44,0,0.78,0.13,1.04,0.39c0.26,0.26,0.38,0.62,0.38,1.08v1.31
		c0,0.08-0.04,0.12-0.12,0.12h-2.98c-0.06,0-0.09,0.03-0.09,0.09v0.8c0,0.32,0.08,0.57,0.24,0.75c0.16,0.18,0.4,0.26,0.71,0.26h2.07
		c0.07,0,0.11,0.04,0.11,0.11v0.24C153.09,86.13,153.05,86.16,152.98,86.16 M150.05,83.38h2.51c0.06,0,0.09-0.03,0.09-0.09v-0.92
		c0-0.32-0.08-0.57-0.24-0.75c-0.16-0.18-0.4-0.26-0.71-0.26h-0.8c-0.31,0-0.54,0.09-0.71,0.26c-0.16,0.18-0.24,0.43-0.24,0.75v0.92
		C149.96,83.35,149.99,83.38,150.05,83.38"/>
	<path class="st0" d="M154.91,86.16h-0.29c-0.07,0-0.1-0.04-0.1-0.12v-5.03c0-0.08,0.03-0.12,0.1-0.12h0.29
		c0.07,0,0.11,0.04,0.11,0.12v0.41h0.04c0.19-0.36,0.55-0.54,1.07-0.54h0.41c0.59,0,1,0.24,1.23,0.72c0.1-0.24,0.27-0.42,0.51-0.54
		c0.24-0.12,0.49-0.18,0.75-0.18h0.37c0.44,0,0.78,0.13,1.03,0.39c0.25,0.26,0.37,0.62,0.37,1.08v3.68c0,0.08-0.04,0.12-0.11,0.12
		h-0.29c-0.07,0-0.11-0.04-0.11-0.12v-3.66c0-0.33-0.08-0.58-0.24-0.76c-0.16-0.18-0.4-0.26-0.71-0.26h-0.37
		c-0.32,0-0.58,0.1-0.77,0.28c-0.19,0.19-0.28,0.45-0.28,0.77v3.63c0,0.08-0.04,0.12-0.11,0.12h-0.29c-0.07,0-0.11-0.04-0.11-0.12
		v-3.66c0-0.33-0.08-0.58-0.24-0.76c-0.16-0.18-0.4-0.26-0.71-0.26h-0.4c-0.32,0-0.58,0.09-0.76,0.26
		c-0.18,0.18-0.28,0.43-0.28,0.75v3.67C155.02,86.12,154.99,86.16,154.91,86.16"/>
</g>
</svg>
