<?xml version="1.0" encoding="utf-8"?>
<!-- Generator: Adobe Illustrator 25.1.0, SVG Export Plug-In . SVG Version: 6.00 Build 0)  -->
<svg version="1.1" id="Warstwa_1" xmlns="http://www.w3.org/2000/svg" xmlns:xlink="http://www.w3.org/1999/xlink" x="0px" y="0px"
	 viewBox="0 0 210 120" style="enable-background:new 0 0 210 120;" xml:space="preserve">
<style type="text/css">
	.st0{fill-rule:evenodd;clip-rule:evenodd;fill:#9F9F9F;}
	.st1{fill:#9F9F9F;}
</style>
<g>
	<g>
		<path class="st0" d="M130.08,84.61c-0.16,0-0.27,0.12-0.27,0.28c0,0.16,0.12,0.28,0.27,0.28c0.15,0,0.27-0.12,0.27-0.28
			C130.35,84.74,130.23,84.61,130.08,84.61L130.08,84.61L130.08,84.61z"/>
		<g>
			<path class="st0" d="M114.32,81.98l0.19-0.4c-0.32-0.22-0.79-0.36-1.24-0.36c-0.81,0-1.35,0.39-1.35,1c0,1.4,2.2,0.85,2.19,1.89
				c0,0.38-0.35,0.61-0.91,0.61c-0.44,0-0.94-0.2-1.3-0.55l-0.2,0.38c0.37,0.35,0.93,0.6,1.49,0.6c0.84,0,1.41-0.42,1.41-1.06
				c0.01-1.42-2.19-0.89-2.19-1.9c0-0.33,0.33-0.53,0.83-0.53C113.55,81.66,113.96,81.75,114.32,81.98L114.32,81.98L114.32,81.98z"
				/>
			<path class="st0" d="M117.05,82.19c-0.51,0-0.91,0.24-1.13,0.65v-0.63h-0.43v4.01h0.43v-1.71c0.22,0.41,0.62,0.65,1.14,0.65
				c0.83,0,1.4-0.61,1.4-1.48C118.46,82.8,117.88,82.19,117.05,82.19L117.05,82.19L117.05,82.19z M116.97,84.77
				c-0.62,0-1.05-0.46-1.05-1.1c0-0.64,0.43-1.1,1.05-1.1c0.61,0,1.05,0.47,1.05,1.1C118.02,84.31,117.58,84.77,116.97,84.77
				L116.97,84.77L116.97,84.77z"/>
			<path class="st0" d="M119.25,84.61c-0.16,0-0.27,0.12-0.27,0.28c0,0.16,0.12,0.28,0.27,0.28c0.15,0,0.27-0.12,0.27-0.28
				C119.52,84.74,119.4,84.61,119.25,84.61L119.25,84.61L119.25,84.61z"/>
			<polygon class="st0" points="121.81,82.21 121.81,82.56 123.6,82.57 121.76,84.82 121.76,85.14 124.17,85.14 124.17,84.78 
				122.28,84.77 124.12,82.53 124.12,82.21 121.81,82.21 			"/>
			<path class="st0" d="M127.8,82.19c-0.87,0-1.49,0.61-1.49,1.48c0,0.87,0.61,1.49,1.49,1.49c0.87,0,1.49-0.61,1.49-1.49
				C129.29,82.8,128.67,82.19,127.8,82.19L127.8,82.19L127.8,82.19z M127.8,82.58c0.61,0,1.05,0.45,1.05,1.1
				c0,0.66-0.44,1.1-1.05,1.1c-0.62,0-1.05-0.45-1.05-1.1C126.75,83.03,127.18,82.58,127.8,82.58L127.8,82.58L127.8,82.58z"/>
			<path class="st0" d="M132.35,82.19c-0.87,0-1.49,0.61-1.49,1.48c0,0.87,0.61,1.49,1.49,1.49c0.87,0,1.49-0.61,1.49-1.49
				C133.84,82.8,133.22,82.19,132.35,82.19L132.35,82.19L132.35,82.19z M132.35,82.58c0.61,0,1.05,0.45,1.05,1.1
				c0,0.66-0.44,1.1-1.05,1.1c-0.62,0-1.05-0.45-1.05-1.1C131.3,83.03,131.74,82.58,132.35,82.58L132.35,82.58L132.35,82.58z"/>
			<path class="st0" d="M134.63,84.61c-0.16,0-0.27,0.12-0.27,0.28c0,0.16,0.12,0.28,0.27,0.28c0.15,0,0.27-0.12,0.27-0.28
				C134.9,84.74,134.78,84.61,134.63,84.61L134.63,84.61L134.63,84.61z"/>
		</g>
	</g>
	<g>
		<path class="st0" d="M79.58,74.77l0.67-1.29c-0.76-0.46-1.64-0.7-2.51-0.7c-1.42,0-2.48,0.69-2.48,1.95c0,2.09,3.11,1.67,3.11,2.5
			c0,0.25-0.27,0.37-0.64,0.37c-0.67,0-1.45-0.27-2.14-0.75l-0.62,1.28c0.74,0.57,1.71,0.86,2.72,0.86c1.47,0,2.55-0.7,2.55-1.94
			c0.01-2.1-3.16-1.72-3.16-2.51c0-0.26,0.23-0.38,0.57-0.38C78.16,74.16,78.84,74.38,79.58,74.77L79.58,74.77L79.58,74.77z"/>
		<path class="st0" d="M87.91,72.77c-0.99,0-1.86,0.23-2.81,0.66l0.55,1.34c0.65-0.31,1.3-0.48,1.81-0.48c0.76,0,1.15,0.33,1.15,0.9
			v0.07h-1.57c-1.49,0.02-2.31,0.68-2.31,1.83c0,1.1,0.77,1.89,2.06,1.89c0.81,0,1.43-0.27,1.82-0.77v0.68h1.95v-3.93
			C90.55,73.57,89.58,72.77,87.91,72.77L87.91,72.77L87.91,72.77z M87.4,77.62c-0.51,0-0.81-0.27-0.81-0.68
			c0-0.42,0.28-0.62,0.84-0.62h1.18v0.52C88.48,77.29,87.99,77.62,87.4,77.62L87.4,77.62L87.4,77.62z"/>
		<path class="st0" d="M99.02,74.77l0.67-1.29c-0.76-0.46-1.64-0.7-2.51-0.7c-1.42,0-2.48,0.69-2.48,1.95c0,2.09,3.11,1.67,3.11,2.5
			c0,0.25-0.27,0.37-0.64,0.37c-0.67,0-1.45-0.27-2.14-0.75l-0.62,1.28c0.74,0.57,1.71,0.86,2.72,0.86c1.47,0,2.55-0.7,2.55-1.94
			c0.01-2.1-3.16-1.72-3.16-2.51c0-0.26,0.23-0.38,0.57-0.38C97.59,74.16,98.27,74.38,99.02,74.77L99.02,74.77L99.02,74.77z"/>
		<path class="st0" d="M103.67,72.82c-1.89,0-3.15,1.24-3.15,3.11c0,1.84,1.22,3.06,3.19,3.06c1.12,0,2.02-0.38,2.63-1.07
			l-1.04-1.04c-0.4,0.4-0.9,0.61-1.42,0.61c-0.68,0-1.18-0.38-1.37-1.06l4.19,0C106.85,74.24,105.78,72.82,103.67,72.82
			L103.67,72.82L103.67,72.82z M102.48,75.38c0.13-0.69,0.56-1.16,1.2-1.16c0.67,0,1.12,0.47,1.12,1.16H102.48L102.48,75.38z"/>
		<path class="st0" d="M109.73,73.91v-1h-1.99v6.03h1.99v-3.08c0.1-0.84,0.84-1.33,1.94-1.22v-1.82
			C110.82,72.83,110.14,73.22,109.73,73.91L109.73,73.91L109.73,73.91z"/>
		<polygon class="st0" points="112.53,72.91 114.79,78.94 116.83,78.94 119.09,72.91 117.11,72.91 115.83,77.1 114.57,72.91 
			112.53,72.91 		"/>
		<path class="st0" d="M120.77,70.3c-0.52,0-0.9,0.38-0.9,0.91c0,0.52,0.38,0.9,0.9,0.9c0.52,0,0.9-0.38,0.9-0.9
			C121.68,70.68,121.3,70.3,120.77,70.3L120.77,70.3z M119.78,72.91v6.03h1.97v-6.03H119.78L119.78,72.91z"/>
		<path class="st0" d="M126.88,75.09l1.44-0.84c-0.52-0.9-1.48-1.43-2.7-1.43c-1.87,0-3.12,1.24-3.12,3.11
			c0,1.84,1.24,3.06,3.1,3.06c1.28,0,2.26-0.52,2.74-1.45l-1.46-0.84c-0.25,0.47-0.66,0.68-1.18,0.68c-0.71,0-1.2-0.58-1.2-1.46
			c0-0.87,0.49-1.46,1.2-1.46C126.21,74.46,126.61,74.69,126.88,75.09L126.88,75.09L126.88,75.09z"/>
		<path class="st0" d="M131.93,72.82c-1.89,0-3.15,1.24-3.15,3.11c0,1.84,1.22,3.06,3.19,3.06c1.12,0,2.02-0.38,2.63-1.07
			l-1.04-1.04c-0.4,0.4-0.9,0.61-1.42,0.61c-0.68,0-1.18-0.38-1.37-1.06l4.19,0C135.11,74.24,134.04,72.82,131.93,72.82
			L131.93,72.82L131.93,72.82z M130.74,75.38c0.13-0.69,0.56-1.16,1.2-1.16c0.67,0,1.12,0.47,1.12,1.16H130.74L130.74,75.38z"/>
		<path class="st0" d="M84.23,78.36c-0.2-0.18-0.38-0.36-0.55-0.52c0.13-0.19,0.24-0.41,0.33-0.64l-0.59-0.43
			c-0.06,0.22-0.14,0.41-0.24,0.58c-0.23-0.22-0.41-0.41-0.56-0.58c0.43-0.23,0.86-0.49,0.86-1.01c0-0.49-0.44-0.83-1.06-0.83
			c-0.65,0-1.06,0.35-1.06,0.89c0,0.26,0.08,0.51,0.31,0.82c-0.39,0.21-0.73,0.49-0.73,0.98c0,0.63,0.54,1.07,1.26,1.07
			c0.38,0,0.74-0.14,1.04-0.38c0.16,0.16,0.33,0.32,0.52,0.5L84.23,78.36L84.23,78.36z M82.08,75.82c0-0.21,0.13-0.36,0.34-0.36
			c0.19,0,0.32,0.13,0.32,0.31c0,0.25-0.21,0.41-0.48,0.55C82.14,76.13,82.08,75.98,82.08,75.82L82.08,75.82L82.08,75.82z
			 M82.24,78.04c-0.31,0-0.54-0.19-0.54-0.48c0-0.19,0.13-0.34,0.33-0.46c0.19,0.22,0.43,0.46,0.73,0.76
			C82.59,77.97,82.42,78.04,82.24,78.04L82.24,78.04L82.24,78.04z"/>
	</g>
	<path class="st0" d="M75.56,43.07c-1.19,5.86-0.06,11.32,3.37,14.72c3.63,3.6,10.44,5.85,13.99,3.5c2.6-1.73,1.51-4.41-1.12-5.54
		c-2.46-1.06-4.89-1.41-7.42-2.22C77.69,51.4,76.16,49.53,75.56,43.07L75.56,43.07z"/>
	<path class="st1" d="M119.88,33.78h-7.57l0,0l-18.43,0c0.46,0.13,0.93,0.26,1.39,0.42c2.34,0.8,4.38,1.93,6.12,3.4l-3.96,5.7
		c-3.04-2.3-6.19-3.45-9.43-3.45c-1.3,0-2.33,0.31-3.08,0.93c-0.75,0.62-1.13,1.43-1.13,2.45c0,1.02,0.46,1.82,1.38,2.42
		c0.92,0.6,3.04,1.31,6.37,2.12c3.33,0.82,5.91,2.04,7.75,3.67c1.84,1.63,2.76,4.02,2.76,7.15c0,3.13-1.18,5.67-3.54,7.62
		c-1.46,1.21-3.21,2.04-5.24,2.5h12.23l3.26-7.55h14.7l3.26,7.55h8.33L119.88,33.78z M111.7,54.33l4.41-10.15l4.36,10.15H111.7z"/>
</g>
</svg>
