<?xml version="1.0" encoding="utf-8"?>
<!-- Generator: Adobe Illustrator 25.1.0, SVG Export Plug-In . SVG Version: 6.00 Build 0)  -->
<svg version="1.1" id="Warstwa_1" xmlns="http://www.w3.org/2000/svg" xmlns:xlink="http://www.w3.org/1999/xlink" x="0px" y="0px"
	 viewBox="0 0 210 120" style="enable-background:new 0 0 210 120;" xml:space="preserve">
<style type="text/css">
	.st0{fill-rule:evenodd;clip-rule:evenodd;fill:#9F9F9F;}
</style>
<g>
	<g>
		<g>
			<path class="st0" d="M158.5,70.56v3.04h-18.44v-3.04l9.17-9.17L158.5,70.56z M164.73,57.18l-11.21-0.02l7.24-7.24l-2.6-2.54
				l-8.92,8.92l-8.97-9.07l-2.55,2.6l7.36,7.35h-11.18v3.38h11.13l-8.58,8.48v8.19h25.69v-8.19l-8.58-8.48h11.18V57.18z"/>
			<path class="st0" d="M152.94,46.27c0,2.01-1.63,3.64-3.64,3.64c-2.01,0-3.64-1.63-3.64-3.64c0-2.01,1.63-3.64,3.64-3.64
				C151.31,42.63,152.94,44.26,152.94,46.27"/>
			<path class="st0" d="M119.16,62.28c4.82,0,7.39,2.73,7.39,7.55c0,4.66-2.57,7.55-7.39,7.55c-4.82,0-7.39-2.89-7.39-7.55
				C111.77,65,114.34,62.28,119.16,62.28 M119.16,74.48c2.41,0,3.21-2.25,3.21-4.66c0-2.57-0.8-4.66-3.21-4.66
				c-2.41,0-3.37,2.09-3.37,4.66C115.78,72.23,116.75,74.48,119.16,74.48"/>
			<path class="st0" d="M104.71,62.28c1.44,0,2.89,0.32,4.33,0.64l-0.32,3.21c-1.28-0.64-2.57-0.97-3.86-0.97
				c-2.73,0-4.65,1.93-4.65,4.66c0,2.89,2.09,4.66,4.98,4.66c1.29,0,2.57-0.32,3.69-0.8l0.16,3.05c-1.13,0.32-2.41,0.64-4.33,0.64
				c-4.02,0-8.52-1.93-8.52-7.55C96.19,64.68,99.88,62.28,104.71,62.28"/>
			<polygon class="st0" points="82.69,62.43 92.97,62.43 92.97,65.16 86.39,65.16 86.39,68.22 92.49,68.22 92.49,71.11 86.39,71.11 
				86.39,74.32 93.13,74.32 93.13,77.21 82.69,77.21 			"/>
			<polygon class="st0" points="58.93,62.43 62.94,62.43 64.7,73.68 64.87,73.68 66.8,62.43 71.77,62.43 73.86,73.68 75.79,62.43 
				79.64,62.43 76.27,77.21 71.29,77.21 69.21,65.8 67.28,77.21 62.14,77.21 			"/>
			<path class="st0" d="M51.7,62.28c1.45,0,2.73,0.15,3.86,0.48l-0.32,3.05c-0.96-0.48-2.09-0.64-3.21-0.64
				c-0.96,0-2.73,0-2.73,1.29c0,2.41,7.07,0.8,7.07,6.1c0,3.86-3.21,4.82-6.59,4.82c-1.28,0-3.05-0.16-4.33-0.64l0.32-3.21
				c1.12,0.48,2.41,0.96,4.01,0.96c1.29,0,2.41-0.32,2.41-1.45c0-2.73-6.9-0.96-6.9-6.26C45.27,63.23,48.8,62.28,51.7,62.28"/>
		</g>
	</g>
</g>
</svg>
