<?xml version="1.0" encoding="utf-8"?>
<!-- Generator: Adobe Illustrator 25.1.0, SVG Export Plug-In . SVG Version: 6.00 Build 0)  -->
<svg version="1.1" id="Warstwa_1" xmlns="http://www.w3.org/2000/svg" xmlns:xlink="http://www.w3.org/1999/xlink" x="0px" y="0px"
	 viewBox="0 0 210 120" style="enable-background:new 0 0 210 120;" xml:space="preserve">
<style type="text/css">
	.st0{fill-rule:evenodd;clip-rule:evenodd;fill:#9F9F9F;}
	.st1{fill:#9F9F9F;}
</style>
<g>
	<path class="st0" d="M54.24,60.23h7.46c-0.39-0.66-0.86-1.17-1.38-1.53c-0.65-0.44-1.41-0.67-2.27-0.67
		c-0.95,0-1.76,0.22-2.43,0.67C55.07,59.06,54.61,59.57,54.24,60.23z M104.34,61.3c-0.02-0.06-0.05-0.13-0.07-0.19
		c-0.2-0.49-0.51-0.94-0.92-1.35c-0.41-0.41-0.86-0.72-1.36-0.92c-0.49-0.2-1.02-0.31-1.59-0.31c-1.12,0-2.09,0.41-2.92,1.22
		c-0.42,0.41-0.73,0.85-0.94,1.33c-0.2,0.47-0.31,0.98-0.31,1.53c0,1.2,0.41,2.22,1.22,3.05c0.41,0.42,0.86,0.73,1.35,0.94
		c0.49,0.21,1.02,0.31,1.6,0.31c0.57,0,1.11-0.1,1.6-0.31c0.49-0.21,0.94-0.52,1.35-0.93c0.41-0.42,0.72-0.87,0.93-1.36
		c0.03-0.06,0.05-0.13,0.07-0.19V61.3z M77.88,49.77v19.89h3.88v-6.32l5.76,6.18l0.12,0.14h4.86l-0.5-0.62l-6.58-6.74l5.46-6.45
		l0.6-0.64h-5.11l-0.11,0.12l-4.49,5.5V49.77H77.88z M42.22,49.98v5.22h-1.97v3.6h1.97v10.87h3.9V58.79h2.14v-3.56h-2.14v-5.25
		H42.22z M69.5,69.68h3.9V49.85h-3.9V69.68z M104.2,55.5v2.01c-0.12-0.14-0.24-0.27-0.36-0.4c-0.39-0.4-0.84-0.75-1.34-1.06l0,0
		c-0.5-0.31-1.02-0.54-1.55-0.69c-0.54-0.16-1.09-0.23-1.66-0.23c-0.91,0-1.76,0.19-2.56,0.57c-0.79,0.38-1.52,0.94-2.2,1.69v0
		c-0.67,0.75-1.17,1.56-1.5,2.43c-0.34,0.88-0.5,1.81-0.5,2.81c0,1.05,0.17,2.02,0.5,2.92c0.33,0.9,0.83,1.72,1.49,2.45h0
		c0.67,0.74,1.4,1.3,2.21,1.67c0.81,0.37,1.69,0.56,2.63,0.56c1.09,0,2.1-0.27,3.02-0.82c0.65-0.39,1.26-0.92,1.82-1.58v1.85h3.56
		V55.5H104.2z M65.78,63.34l0-0.36c0.01-1.24-0.17-2.36-0.54-3.37c-0.38-1.02-0.94-1.91-1.71-2.7c-0.76-0.78-1.6-1.37-2.51-1.76
		c-0.92-0.39-1.91-0.59-2.98-0.59c-1.08,0-2.08,0.19-3.01,0.58c-0.92,0.39-1.76,0.96-2.51,1.73c-0.75,0.77-1.31,1.61-1.69,2.52
		c-0.38,0.91-0.56,1.89-0.56,2.94c0,1.11,0.19,2.14,0.56,3.08c0.37,0.94,0.93,1.79,1.67,2.54c0.74,0.75,1.58,1.32,2.5,1.7
		c0.93,0.38,1.94,0.57,3.03,0.57c1.43,0,2.71-0.28,3.86-0.83c1.15-0.55,1.78-0.75,2.63-1.86l0.22-0.29l-0.29-0.22l-2.18-1.65
		l-0.28-0.21c-0.95,1.17-2.36,1.7-3.85,1.74c-1.09,0.03-2.04-0.5-2.82-1.06h0c-0.43-0.3-0.78-0.7-1.05-1.18
		c-0.22-0.39-0.39-0.84-0.52-1.35H65.78z M34.37,76.4h79.27V43.6H34.37V76.4z"/>
	<g>
		<path class="st1" d="M123.29,48.42h1.06v0.62c0.12-0.25,0.27-0.43,0.46-0.56c0.19-0.13,0.4-0.19,0.63-0.19
			c0.16,0,0.33,0.04,0.51,0.13l-0.39,1.07c-0.15-0.07-0.27-0.11-0.36-0.11c-0.19,0-0.35,0.12-0.49,0.35c-0.13,0.24-0.2,0.7-0.2,1.39
			l0,0.24v2h-1.23V48.42z"/>
		<path class="st1" d="M126.55,48.42h1.26v2.38c0,0.46,0.03,0.79,0.09,0.97c0.06,0.18,0.17,0.32,0.31,0.42
			c0.14,0.1,0.32,0.15,0.52,0.15c0.21,0,0.38-0.05,0.53-0.15c0.14-0.1,0.25-0.24,0.32-0.43c0.05-0.14,0.08-0.45,0.08-0.91v-2.43
			h1.24v2.1c0,0.86-0.07,1.46-0.21,1.78c-0.17,0.39-0.41,0.69-0.74,0.89c-0.32,0.21-0.74,0.31-1.24,0.31
			c-0.54,0-0.98-0.12-1.32-0.36c-0.34-0.24-0.57-0.58-0.71-1.02c-0.1-0.3-0.15-0.85-0.15-1.64V48.42z"/>
		<path class="st1" d="M135.18,49.11l-0.77,0.77c-0.31-0.31-0.6-0.46-0.85-0.46c-0.14,0-0.25,0.03-0.33,0.09
			c-0.08,0.06-0.12,0.13-0.12,0.22c0,0.07,0.03,0.13,0.08,0.18c0.05,0.06,0.17,0.13,0.37,0.23l0.46,0.23
			c0.48,0.24,0.81,0.48,0.99,0.72c0.18,0.25,0.27,0.53,0.27,0.86c0,0.44-0.16,0.81-0.48,1.1c-0.32,0.29-0.76,0.44-1.3,0.44
			c-0.72,0-1.3-0.28-1.73-0.85l0.76-0.83c0.15,0.17,0.32,0.31,0.51,0.41c0.19,0.1,0.37,0.16,0.52,0.16c0.16,0,0.3-0.04,0.4-0.12
			c0.1-0.08,0.15-0.17,0.15-0.27c0-0.19-0.18-0.38-0.54-0.56l-0.42-0.21c-0.8-0.4-1.2-0.91-1.2-1.52c0-0.39,0.15-0.73,0.45-1
			c0.3-0.28,0.69-0.42,1.16-0.42c0.32,0,0.62,0.07,0.91,0.21C134.74,48.64,134.98,48.85,135.18,49.11"/>
		<polygon class="st1" points="136.04,48.42 139.83,48.42 137.61,52.32 139.71,52.32 139.71,53.37 135.7,53.37 137.94,49.47 
			136.04,49.47 		"/>
		<polygon class="st1" points="140.69,46.59 141.93,46.59 141.93,48.42 142.67,48.42 142.67,49.49 141.93,49.49 141.93,53.37 
			140.69,53.37 140.69,49.49 140.05,49.49 140.05,48.42 140.69,48.42 		"/>
		<path class="st1" d="M145.66,48.29c0.47,0,0.91,0.12,1.32,0.35c0.41,0.23,0.73,0.55,0.96,0.95c0.23,0.4,0.35,0.83,0.35,1.3
			c0,0.47-0.12,0.9-0.35,1.31c-0.23,0.41-0.55,0.72-0.95,0.95c-0.4,0.23-0.84,0.34-1.32,0.34c-0.71,0-1.32-0.25-1.82-0.76
			c-0.5-0.5-0.75-1.12-0.75-1.84c0-0.77,0.28-1.42,0.85-1.93C144.44,48.52,145.01,48.29,145.66,48.29 M145.68,49.46
			c-0.39,0-0.71,0.13-0.96,0.4c-0.26,0.27-0.38,0.61-0.38,1.03c0,0.43,0.13,0.78,0.38,1.05c0.25,0.27,0.57,0.4,0.96,0.4
			c0.39,0,0.71-0.14,0.97-0.41c0.26-0.27,0.39-0.62,0.39-1.04c0-0.42-0.13-0.77-0.38-1.03C146.4,49.59,146.07,49.46,145.68,49.46"/>
		<polygon class="st1" points="148.75,48.42 149.97,48.42 150.96,51.23 152.03,48.42 152.78,48.42 153.83,51.2 154.83,48.42 
			156.05,48.42 154.24,53.37 153.46,53.37 152.4,50.55 151.31,53.37 150.53,53.37 		"/>
		<path class="st1" d="M160.41,48.42h1.24v4.95h-1.24v-0.52c-0.24,0.23-0.49,0.4-0.73,0.5c-0.24,0.1-0.51,0.15-0.79,0.15
			c-0.64,0-1.19-0.25-1.66-0.74c-0.47-0.5-0.7-1.11-0.7-1.85c0-0.76,0.23-1.39,0.68-1.88c0.45-0.49,1-0.73,1.64-0.73
			c0.3,0,0.58,0.06,0.84,0.17c0.26,0.11,0.5,0.28,0.72,0.5V48.42z M159.1,49.44c-0.38,0-0.7,0.14-0.96,0.41
			c-0.25,0.27-0.38,0.62-0.38,1.04c0,0.43,0.13,0.78,0.39,1.06c0.26,0.28,0.58,0.41,0.95,0.41c0.39,0,0.71-0.14,0.97-0.41
			c0.26-0.27,0.39-0.63,0.39-1.07c0-0.43-0.13-0.78-0.39-1.05C159.82,49.57,159.49,49.44,159.1,49.44"/>
		<path class="st1" d="M162.91,48.42h1.24v0.51c0.28-0.24,0.54-0.4,0.77-0.5c0.23-0.09,0.46-0.14,0.7-0.14
			c0.49,0,0.91,0.17,1.25,0.51c0.29,0.29,0.43,0.72,0.43,1.29v3.27h-1.23V51.2c0-0.59-0.03-0.98-0.08-1.18
			c-0.05-0.19-0.15-0.34-0.28-0.44c-0.13-0.1-0.29-0.15-0.49-0.15c-0.25,0-0.47,0.08-0.65,0.25c-0.18,0.17-0.31,0.4-0.37,0.7
			c-0.04,0.15-0.05,0.49-0.05,1v1.99h-1.24V48.42z"/>
		<path class="st1" d="M168.98,46.38c0.22,0,0.4,0.08,0.56,0.24c0.16,0.16,0.23,0.35,0.23,0.57c0,0.22-0.08,0.41-0.23,0.57
			c-0.15,0.16-0.34,0.23-0.55,0.23c-0.22,0-0.41-0.08-0.57-0.24c-0.16-0.16-0.23-0.35-0.23-0.58c0-0.22,0.08-0.4,0.23-0.56
			C168.58,46.46,168.76,46.38,168.98,46.38 M168.36,48.42h1.24v4.95h-1.24V48.42z"/>
		<path class="st1" d="M174.39,48.42h1.24v4.95h-1.24v-0.52c-0.24,0.23-0.49,0.4-0.73,0.5c-0.24,0.1-0.51,0.15-0.79,0.15
			c-0.64,0-1.19-0.25-1.66-0.74c-0.47-0.5-0.7-1.11-0.7-1.85c0-0.76,0.23-1.39,0.68-1.88c0.45-0.49,1-0.73,1.64-0.73
			c0.3,0,0.58,0.06,0.84,0.17c0.26,0.11,0.5,0.28,0.72,0.5V48.42z M173.08,49.44c-0.38,0-0.7,0.14-0.96,0.41
			c-0.25,0.27-0.38,0.62-0.38,1.04c0,0.43,0.13,0.78,0.39,1.06c0.26,0.28,0.58,0.41,0.95,0.41c0.39,0,0.71-0.14,0.97-0.41
			c0.26-0.27,0.39-0.63,0.39-1.07c0-0.43-0.13-0.78-0.39-1.05C173.8,49.57,173.47,49.44,173.08,49.44"/>
		<path class="st1" d="M125.13,66.6c0.47,0,0.91,0.12,1.32,0.35s0.73,0.55,0.96,0.95c0.23,0.4,0.35,0.83,0.35,1.3
			c0,0.47-0.12,0.9-0.35,1.31c-0.23,0.41-0.55,0.72-0.95,0.95c-0.4,0.23-0.84,0.34-1.33,0.34c-0.71,0-1.32-0.25-1.82-0.76
			c-0.5-0.51-0.75-1.12-0.75-1.84c0-0.77,0.28-1.42,0.85-1.93C123.91,66.83,124.48,66.6,125.13,66.6 M125.15,67.77
			c-0.39,0-0.71,0.13-0.96,0.4c-0.26,0.27-0.38,0.61-0.38,1.03c0,0.43,0.13,0.78,0.38,1.05c0.25,0.27,0.58,0.4,0.96,0.4
			c0.39,0,0.71-0.14,0.97-0.41c0.26-0.27,0.39-0.62,0.39-1.04c0-0.42-0.13-0.77-0.38-1.04C125.87,67.91,125.54,67.77,125.15,67.77"
			/>
		<path class="st1" d="M132.43,66.73h1.24v4.24c0,0.84-0.17,1.45-0.51,1.85c-0.45,0.53-1.13,0.8-2.04,0.8
			c-0.49,0-0.89-0.06-1.22-0.18c-0.33-0.12-0.61-0.3-0.84-0.53c-0.23-0.24-0.4-0.52-0.51-0.86h1.37c0.12,0.14,0.28,0.24,0.47,0.32
			c0.19,0.07,0.42,0.11,0.68,0.11c0.33,0,0.6-0.05,0.81-0.15c0.2-0.1,0.35-0.24,0.43-0.4c0.08-0.16,0.13-0.45,0.13-0.85
			c-0.22,0.22-0.45,0.38-0.69,0.47c-0.24,0.09-0.51,0.14-0.81,0.14c-0.66,0-1.23-0.24-1.68-0.72c-0.46-0.48-0.69-1.09-0.69-1.82
			c0-0.79,0.24-1.42,0.73-1.89c0.44-0.43,0.96-0.65,1.58-0.65c0.28,0,0.55,0.05,0.81,0.16c0.25,0.1,0.51,0.28,0.76,0.52V66.73z
			 M131.14,67.76c-0.39,0-0.71,0.13-0.97,0.39c-0.25,0.26-0.38,0.59-0.38,0.99c0,0.41,0.13,0.75,0.39,1.01
			c0.26,0.26,0.59,0.4,0.98,0.4c0.39,0,0.7-0.13,0.95-0.39c0.25-0.26,0.38-0.6,0.38-1.02c0-0.41-0.13-0.75-0.38-1.01
			C131.86,67.89,131.54,67.76,131.14,67.76"/>
		<path class="st1" d="M134.63,66.73h1.06v0.62c0.12-0.25,0.27-0.43,0.46-0.56c0.19-0.13,0.4-0.19,0.63-0.19
			c0.16,0,0.33,0.04,0.51,0.13l-0.39,1.07c-0.15-0.07-0.27-0.11-0.36-0.11c-0.19,0-0.35,0.12-0.48,0.36c-0.13,0.24-0.2,0.7-0.2,1.39
			l0.01,0.24v2h-1.23V66.73z"/>
		<path class="st1" d="M140.23,66.6c0.47,0,0.91,0.12,1.32,0.35c0.41,0.23,0.73,0.55,0.96,0.95c0.23,0.4,0.35,0.83,0.35,1.3
			c0,0.47-0.12,0.9-0.35,1.31c-0.23,0.41-0.55,0.72-0.95,0.95c-0.4,0.23-0.84,0.34-1.33,0.34c-0.71,0-1.32-0.25-1.82-0.76
			c-0.5-0.51-0.75-1.12-0.75-1.84c0-0.77,0.28-1.42,0.85-1.93C139.01,66.83,139.58,66.6,140.23,66.6 M140.25,67.77
			c-0.39,0-0.71,0.13-0.96,0.4c-0.26,0.27-0.38,0.61-0.38,1.03c0,0.43,0.13,0.78,0.38,1.05c0.25,0.27,0.58,0.4,0.96,0.4
			c0.39,0,0.71-0.14,0.97-0.41c0.26-0.27,0.39-0.62,0.39-1.04c0-0.42-0.13-0.77-0.38-1.04C140.97,67.91,140.64,67.77,140.25,67.77"
			/>
		<path class="st1" d="M147.52,64.82h1.24v6.86h-1.24v-0.52c-0.24,0.23-0.49,0.4-0.73,0.5c-0.24,0.1-0.51,0.15-0.79,0.15
			c-0.64,0-1.19-0.25-1.66-0.74c-0.47-0.5-0.7-1.11-0.7-1.85c0-0.76,0.23-1.39,0.68-1.88c0.45-0.49,1-0.73,1.64-0.73
			c0.3,0,0.58,0.06,0.84,0.17c0.26,0.11,0.5,0.28,0.72,0.5V64.82z M146.22,67.75c-0.38,0-0.7,0.14-0.96,0.41
			c-0.25,0.27-0.38,0.62-0.38,1.04c0,0.43,0.13,0.78,0.39,1.06c0.26,0.28,0.58,0.41,0.95,0.41c0.39,0,0.71-0.14,0.97-0.41
			c0.26-0.27,0.39-0.63,0.39-1.07c0-0.43-0.13-0.78-0.39-1.05C146.93,67.88,146.61,67.75,146.22,67.75"/>
		<polygon class="st1" points="149.81,66.73 153.6,66.73 151.38,70.63 153.47,70.63 153.47,71.68 149.47,71.68 151.7,67.78 
			149.81,67.78 		"/>
		<path class="st1" d="M159.27,69.57h-3.99c0.06,0.35,0.21,0.63,0.46,0.84c0.25,0.21,0.57,0.31,0.96,0.31c0.46,0,0.86-0.16,1.2-0.49
			l1.05,0.49c-0.26,0.37-0.57,0.64-0.94,0.82c-0.36,0.18-0.8,0.27-1.3,0.27c-0.78,0-1.41-0.25-1.9-0.73
			c-0.49-0.49-0.73-1.1-0.73-1.84c0-0.76,0.24-1.38,0.73-1.88c0.49-0.5,1.1-0.75,1.83-0.75c0.78,0,1.41,0.25,1.9,0.75
			c0.49,0.5,0.73,1.16,0.73,1.98L159.27,69.57z M158.02,68.59c-0.08-0.28-0.24-0.5-0.48-0.67c-0.24-0.17-0.52-0.26-0.84-0.26
			c-0.35,0-0.65,0.1-0.91,0.29c-0.16,0.12-0.32,0.34-0.46,0.64H158.02z"/>
		<path class="st1" d="M160.27,66.73h1.24v0.51c0.28-0.24,0.54-0.4,0.77-0.5c0.23-0.09,0.46-0.14,0.7-0.14
			c0.49,0,0.91,0.17,1.25,0.51c0.29,0.29,0.43,0.72,0.43,1.29v3.27h-1.23v-2.17c0-0.59-0.03-0.98-0.08-1.18
			c-0.05-0.19-0.14-0.34-0.28-0.44c-0.13-0.1-0.29-0.15-0.49-0.15c-0.25,0-0.47,0.08-0.65,0.25c-0.18,0.17-0.3,0.4-0.37,0.7
			c-0.04,0.15-0.05,0.49-0.05,1v1.99h-1.24V66.73z"/>
		<path class="st1" d="M166.35,64.69c0.22,0,0.4,0.08,0.56,0.24c0.16,0.16,0.23,0.35,0.23,0.57c0,0.22-0.08,0.41-0.23,0.57
			c-0.15,0.16-0.34,0.23-0.55,0.23c-0.22,0-0.41-0.08-0.57-0.24c-0.16-0.16-0.23-0.35-0.23-0.58c0-0.22,0.08-0.41,0.23-0.56
			C165.95,64.77,166.13,64.69,166.35,64.69 M165.73,66.73h1.24v4.95h-1.24V66.73z"/>
		<path class="st1" d="M171.75,66.73H173v4.95h-1.24v-0.52c-0.24,0.23-0.49,0.4-0.73,0.5c-0.24,0.1-0.51,0.15-0.79,0.15
			c-0.64,0-1.19-0.25-1.66-0.74c-0.47-0.5-0.7-1.11-0.7-1.85c0-0.76,0.23-1.39,0.68-1.88c0.45-0.49,1-0.73,1.64-0.73
			c0.3,0,0.58,0.06,0.84,0.17c0.26,0.11,0.5,0.28,0.72,0.5V66.73z M170.45,67.75c-0.38,0-0.7,0.14-0.96,0.41
			c-0.25,0.27-0.38,0.62-0.38,1.04c0,0.43,0.13,0.78,0.39,1.06c0.26,0.28,0.58,0.41,0.95,0.41c0.39,0,0.71-0.14,0.97-0.41
			c0.26-0.27,0.39-0.63,0.39-1.07c0-0.43-0.13-0.78-0.39-1.05C171.17,67.88,170.84,67.75,170.45,67.75"/>
		<path class="st1" d="M125.98,58.72l-0.77,0.77c-0.31-0.31-0.6-0.46-0.85-0.46c-0.14,0-0.25,0.03-0.33,0.09
			c-0.08,0.06-0.12,0.13-0.12,0.22c0,0.07,0.02,0.13,0.07,0.18c0.05,0.06,0.17,0.13,0.37,0.23l0.46,0.23
			c0.48,0.24,0.81,0.48,0.99,0.72c0.18,0.25,0.27,0.53,0.27,0.86c0,0.44-0.16,0.81-0.48,1.1c-0.32,0.29-0.76,0.44-1.3,0.44
			c-0.72,0-1.3-0.28-1.73-0.85l0.76-0.83c0.15,0.17,0.32,0.31,0.51,0.41c0.2,0.1,0.37,0.16,0.52,0.16c0.16,0,0.3-0.04,0.4-0.12
			c0.1-0.08,0.15-0.17,0.15-0.27c0-0.19-0.18-0.38-0.54-0.56l-0.42-0.21c-0.8-0.4-1.2-0.91-1.2-1.52c0-0.39,0.15-0.73,0.45-1
			c0.3-0.28,0.69-0.42,1.16-0.42c0.32,0,0.62,0.07,0.91,0.21C125.55,58.25,125.79,58.45,125.98,58.72"/>
		<polygon class="st1" points="126.84,58.03 130.63,58.03 128.41,61.93 130.51,61.93 130.51,62.98 126.5,62.98 128.74,59.08 
			126.84,59.08 		"/>
		<path class="st1" d="M134.99,58.03h1.24v4.95h-1.24v-0.52c-0.24,0.23-0.49,0.4-0.73,0.5c-0.24,0.1-0.51,0.15-0.79,0.15
			c-0.64,0-1.19-0.25-1.66-0.74c-0.47-0.5-0.7-1.11-0.7-1.85c0-0.76,0.23-1.39,0.68-1.88c0.45-0.49,1-0.73,1.64-0.73
			c0.3,0,0.58,0.06,0.84,0.17c0.26,0.11,0.5,0.28,0.72,0.5V58.03z M133.69,59.05c-0.38,0-0.7,0.14-0.96,0.41
			c-0.25,0.27-0.38,0.62-0.38,1.04c0,0.43,0.13,0.78,0.39,1.06c0.26,0.28,0.58,0.41,0.95,0.41c0.39,0,0.71-0.14,0.97-0.41
			c0.26-0.27,0.39-0.63,0.39-1.07c0-0.43-0.13-0.78-0.39-1.05C134.41,59.18,134.08,59.05,133.69,59.05"/>
		<rect x="137.35" y="56.12" class="st0" width="1.24" height="6.86"/>
		<path class="st1" d="M139.72,58.03h1.26v2.38c0,0.46,0.03,0.79,0.09,0.97c0.06,0.18,0.17,0.32,0.31,0.42
			c0.14,0.1,0.32,0.15,0.52,0.15c0.21,0,0.38-0.05,0.53-0.15c0.14-0.1,0.25-0.24,0.32-0.43c0.05-0.14,0.08-0.45,0.08-0.92v-2.43
			h1.24v2.1c0,0.86-0.07,1.46-0.21,1.78c-0.17,0.39-0.41,0.69-0.74,0.89c-0.32,0.21-0.74,0.31-1.24,0.31
			c-0.54,0-0.98-0.12-1.32-0.36c-0.34-0.24-0.57-0.58-0.71-1.01c-0.1-0.3-0.15-0.85-0.15-1.64V58.03z"/>
		<path class="st1" d="M145.32,58.03h1.24v0.51c0.28-0.24,0.54-0.4,0.77-0.5s0.46-0.14,0.7-0.14c0.49,0,0.91,0.17,1.25,0.51
			c0.29,0.29,0.43,0.72,0.43,1.29v3.27h-1.23v-2.17c0-0.59-0.03-0.98-0.08-1.18c-0.05-0.19-0.14-0.34-0.28-0.44
			c-0.13-0.1-0.29-0.15-0.49-0.15c-0.25,0-0.47,0.08-0.65,0.25c-0.18,0.17-0.3,0.4-0.37,0.7c-0.04,0.15-0.05,0.49-0.05,1v1.99h-1.24
			V58.03z"/>
		<polygon class="st1" points="150.92,56.12 152.16,56.12 152.16,60.07 153.99,58.03 155.55,58.03 153.42,60.4 155.81,62.98 
			154.27,62.98 152.16,60.7 152.16,62.98 150.92,62.98 		"/>
		<path class="st1" d="M156.8,55.99c0.22,0,0.4,0.08,0.56,0.24c0.16,0.16,0.23,0.35,0.23,0.57c0,0.22-0.08,0.41-0.23,0.57
			c-0.15,0.16-0.34,0.23-0.55,0.23c-0.22,0-0.41-0.08-0.57-0.24c-0.16-0.16-0.23-0.35-0.23-0.58c0-0.22,0.08-0.41,0.23-0.56
			C156.4,56.07,156.58,55.99,156.8,55.99 M156.18,58.03h1.24v4.95h-1.24V58.03z"/>
		<rect x="119.13" y="44.58" class="st0" width="0.65" height="30.84"/>
	</g>
</g>
</svg>
