<?xml version="1.0" encoding="utf-8"?>
<!-- Generator: Adobe Illustrator 25.1.0, SVG Export Plug-In . SVG Version: 6.00 Build 0)  -->
<svg version="1.1" id="Warstwa_1" xmlns="http://www.w3.org/2000/svg" xmlns:xlink="http://www.w3.org/1999/xlink" x="0px" y="0px"
	 viewBox="0 0 210 120" style="enable-background:new 0 0 210 120;" xml:space="preserve">
<style type="text/css">
	.st0{fill:#9F9F9F;}
</style>
<g>
	<path class="st0" d="M105.43,30.72L105.43,30.72H85.5l19.93,19.68v-6.44c10.67-0.74,18.49,3.04,14.94,11.86
		c-0.04,0.1,0.03,0.1,0.07,0.08c6.38-3.25,10.05-10.92,0.51-13.94c-3.6-1.14-7.95-1.17-11.4-0.73c-1.39,0.19-2.76,0.46-4.12,0.81
		V30.72z M104.2,61.52c-9.86,2.98-19.14,1.26-20.72-3.84c-1.36-4.38,3.29-9.02,7.25-11.54l0,0c1.5-0.99,3.17-1.72,4.47-2.1
		c0.13-0.04,0.25,0.09,0.12,0.21c-0.66,0.52-4.05,2.23-5.78,5.43c-0.52,1.15-0.73,2.41-0.26,3.72c1.94,5.33,10.79,6.68,20.32,3.57
		c3.68-1.2,6.86-2.96,9.26-4.97c0.08-0.07,0.12,0,0.07,0.06C115.22,56.63,109.77,59.84,104.2,61.52"/>
	<path class="st0" d="M75.92,72.24L75.92,72.24v6.42h-1.9v-6.42h-1.37v-1.32h4.65v1.32H75.92z M83.41,77.64L83.41,77.64
		c-0.25,0.36-0.56,0.64-0.95,0.84c-0.42,0.22-0.88,0.3-1.35,0.3c-0.47,0-0.93-0.09-1.35-0.3c-0.39-0.2-0.7-0.48-0.95-0.84
		c-0.26-0.38-0.44-0.81-0.56-1.27c-0.13-0.51-0.18-1.05-0.18-1.58c0-0.53,0.05-1.07,0.18-1.58c0.11-0.45,0.29-0.88,0.56-1.27
		c0.25-0.36,0.56-0.64,0.95-0.84c0.42-0.22,0.88-0.3,1.35-0.3c0.47,0,0.93,0.09,1.35,0.3c0.39,0.2,0.7,0.48,0.95,0.84
		c0.27,0.38,0.44,0.82,0.56,1.27c0.13,0.52,0.18,1.05,0.18,1.58c0,0.53-0.05,1.07-0.18,1.58C83.85,76.83,83.67,77.26,83.41,77.64
		 M82.23,74.76L82.23,74.76c0-0.36-0.01-0.71-0.05-1.07c-0.03-0.28-0.09-0.57-0.19-0.84c-0.08-0.2-0.18-0.4-0.35-0.54
		c-0.15-0.13-0.33-0.19-0.53-0.19c-0.2,0-0.38,0.06-0.53,0.19c-0.16,0.14-0.27,0.34-0.35,0.54c-0.1,0.27-0.15,0.56-0.19,0.84
		c-0.04,0.35-0.06,0.71-0.06,1.07c0,0.35,0.02,0.71,0.06,1.06c0.03,0.28,0.09,0.57,0.19,0.84c0.08,0.2,0.18,0.39,0.35,0.54
		c0.15,0.13,0.33,0.19,0.53,0.19c0.2,0,0.38-0.06,0.53-0.19c0.16-0.14,0.27-0.34,0.35-0.54c0.1-0.27,0.15-0.56,0.19-0.84
		C82.21,75.47,82.23,75.12,82.23,74.76 M88.19,72.24L88.19,72.24v6.42h-1.9v-6.42h-1.37v-1.32h4.65v1.32H88.19z M94.2,76.97
		L94.2,76.97h-2.22l-0.47,1.7h-1.83l2.52-7.73h1.95l2.51,7.73h-2L94.2,76.97z M93.9,75.83L93.9,75.83l-0.64-2.42
		c-0.05-0.18-0.09-0.36-0.12-0.55c-0.01-0.06-0.02-0.12-0.03-0.18c-0.01,0.06-0.02,0.13-0.03,0.19c-0.03,0.18-0.07,0.36-0.12,0.54
		l-0.67,2.41H93.9z M99.59,77.35L99.59,77.35h1.94v1.32h-3.84v-7.73h1.9V77.35z M104.79,78.66L104.79,78.66h-1.9v-7.73h1.9V78.66z
		 M108.4,72.24L108.4,72.24h-2.16v-1.32h4.56l-2.35,6.42h2.37v1.32h-4.85L108.4,72.24z M116.02,76.97L116.02,76.97h-2.22l-0.47,1.7
		h-1.83l2.52-7.73h1.95l2.51,7.73h-2L116.02,76.97z M115.72,75.83L115.72,75.83l-0.64-2.42c-0.05-0.18-0.09-0.36-0.12-0.55
		c-0.01-0.06-0.02-0.12-0.03-0.18c-0.01,0.06-0.02,0.13-0.03,0.19c-0.03,0.18-0.07,0.36-0.12,0.54l-0.67,2.41H115.72z M121.86,72.24
		L121.86,72.24v6.42h-1.9v-6.42h-1.37v-1.32h4.65v1.32H121.86z M129.34,77.64L129.34,77.64c-0.25,0.36-0.56,0.64-0.95,0.84
		c-0.42,0.22-0.88,0.3-1.35,0.3c-0.47,0-0.93-0.09-1.35-0.3c-0.39-0.2-0.7-0.48-0.95-0.84c-0.26-0.38-0.44-0.81-0.55-1.27
		c-0.13-0.51-0.18-1.05-0.18-1.58c0-0.53,0.05-1.07,0.18-1.58c0.11-0.45,0.29-0.88,0.55-1.27c0.25-0.36,0.56-0.64,0.95-0.84
		c0.42-0.22,0.88-0.3,1.35-0.3c0.47,0,0.93,0.09,1.35,0.3c0.39,0.2,0.7,0.48,0.95,0.84c0.27,0.38,0.44,0.82,0.56,1.27
		c0.13,0.52,0.18,1.05,0.18,1.58c0,0.53-0.05,1.07-0.18,1.58C129.78,76.83,129.61,77.26,129.34,77.64 M128.16,74.76L128.16,74.76
		c0-0.36-0.01-0.71-0.06-1.07c-0.03-0.28-0.09-0.57-0.19-0.84c-0.08-0.2-0.18-0.4-0.35-0.54c-0.15-0.13-0.33-0.19-0.53-0.19
		c-0.2,0-0.38,0.06-0.53,0.19c-0.16,0.14-0.27,0.34-0.35,0.54c-0.1,0.27-0.15,0.56-0.19,0.84c-0.04,0.35-0.06,0.71-0.05,1.07
		c0,0.35,0.02,0.71,0.05,1.06c0.03,0.28,0.09,0.57,0.19,0.84c0.08,0.2,0.18,0.39,0.35,0.54c0.15,0.13,0.33,0.19,0.53,0.19
		c0.2,0,0.38-0.06,0.53-0.19c0.16-0.14,0.27-0.34,0.35-0.54c0.1-0.27,0.15-0.56,0.19-0.84C128.15,75.47,128.16,75.12,128.16,74.76
		 M133.43,75.44L133.43,75.44v3.22h-1.86v-7.41l0.03-0.01c0.34-0.15,0.7-0.25,1.06-0.32c0.41-0.08,0.83-0.11,1.25-0.11
		c0.56,0,1.15,0.06,1.67,0.26c0.43,0.16,0.8,0.41,1.07,0.79c0.27,0.39,0.37,0.85,0.37,1.32c0,0.33-0.07,0.64-0.22,0.93
		c-0.15,0.28-0.36,0.51-0.62,0.69c-0.26,0.19-0.55,0.32-0.86,0.41c0.14,0.14,0.26,0.28,0.37,0.44c0.12,0.17,0.24,0.36,0.33,0.54
		l1.33,2.46h-2.11l-1.05-2.32c-0.09-0.21-0.21-0.4-0.36-0.57C133.72,75.64,133.58,75.52,133.43,75.44 M133.43,72.01v2.57
		c0.06,0.01,0.11,0.02,0.17,0.02c0.09,0.01,0.17,0.01,0.25,0.01c0.25,0,0.49-0.05,0.71-0.19c0.19-0.12,0.34-0.28,0.44-0.49
		c0.11-0.22,0.15-0.45,0.15-0.69c0-0.34-0.06-0.73-0.3-0.99c-0.23-0.25-0.57-0.32-0.9-0.32c-0.1,0-0.21,0.01-0.31,0.02
		C133.57,71.97,133.5,71.98,133.43,72.01"/>
	<path class="st0" d="M87.01,87.36L87.01,87.36c0,0.26-0.05,0.52-0.15,0.76c-0.1,0.23-0.25,0.44-0.44,0.61
		c-0.2,0.18-0.43,0.31-0.68,0.4c-0.29,0.1-0.59,0.14-0.89,0.14c-0.32,0-0.64-0.03-0.95-0.09c-0.27-0.05-0.53-0.14-0.77-0.27
		l-0.03-0.02l0.39-1.07l0.04,0.02c0.17,0.09,0.36,0.17,0.55,0.21c0.18,0.04,0.37,0.07,0.56,0.07c0.15,0,0.31-0.02,0.45-0.08
		c0.11-0.05,0.21-0.12,0.27-0.22c0.07-0.1,0.1-0.21,0.1-0.33c0-0.14-0.04-0.26-0.12-0.37c-0.09-0.11-0.19-0.21-0.32-0.28
		c-0.14-0.09-0.29-0.17-0.44-0.25c-0.17-0.08-0.33-0.17-0.49-0.27c-0.17-0.1-0.32-0.22-0.45-0.36c-0.15-0.15-0.26-0.32-0.34-0.51
		c-0.09-0.23-0.13-0.48-0.13-0.73c0-0.25,0.05-0.5,0.15-0.74c0.1-0.22,0.24-0.42,0.43-0.58c0.19-0.17,0.42-0.29,0.66-0.38
		c0.28-0.1,0.57-0.13,0.86-0.14c0.28,0,0.56,0.03,0.83,0.1c0.24,0.06,0.47,0.14,0.69,0.27l0.03,0.02l-0.35,0.96l-0.04-0.02
		c-0.07-0.04-0.15-0.08-0.23-0.11c-0.13-0.05-0.27-0.09-0.41-0.11c-0.11-0.02-0.22-0.03-0.33-0.03c-0.14,0-0.29,0.02-0.43,0.07
		c-0.11,0.05-0.21,0.11-0.27,0.21c-0.07,0.1-0.1,0.22-0.1,0.34c0,0.13,0.04,0.26,0.12,0.37c0.09,0.11,0.2,0.2,0.32,0.28
		c0.15,0.09,0.3,0.17,0.45,0.24c0.17,0.08,0.34,0.17,0.5,0.27c0.17,0.1,0.33,0.22,0.47,0.36c0.15,0.15,0.26,0.33,0.34,0.52
		C86.97,86.85,87,87.11,87.01,87.36 M89.66,86.88L89.66,86.88v2.3h-1.5v-5.93l0.03-0.01c0.27-0.12,0.56-0.2,0.85-0.26
		c0.34-0.06,0.68-0.09,1.03-0.09c0.37,0,0.75,0.04,1.1,0.15c0.28,0.09,0.54,0.23,0.75,0.43c0.19,0.18,0.34,0.39,0.43,0.64
		c0.1,0.25,0.14,0.51,0.14,0.78c0,0.27-0.04,0.54-0.15,0.79c-0.1,0.25-0.26,0.47-0.46,0.64c-0.22,0.2-0.49,0.34-0.77,0.43
		c-0.35,0.12-0.74,0.15-1.11,0.16c-0.04,0-0.08,0-0.13-0.01c-0.05,0-0.09-0.01-0.14-0.01C89.71,86.88,89.69,86.88,89.66,86.88
		 M89.66,83.85L89.66,83.85v2.01c0.04,0.05,0.07,0.08,0.11,0.12c0.08,0.01,0.15,0.01,0.23,0.01c0.2,0,0.42-0.03,0.6-0.14
		c0.15-0.09,0.26-0.22,0.32-0.38c0.08-0.19,0.1-0.39,0.1-0.59c0-0.2-0.02-0.41-0.09-0.59c-0.06-0.15-0.16-0.28-0.3-0.36
		c-0.16-0.1-0.37-0.13-0.56-0.13c-0.08,0-0.16,0.01-0.24,0.02C89.78,83.82,89.72,83.83,89.66,83.85 M98.26,86.08L98.26,86.08
		c0,0.42-0.04,0.85-0.14,1.27c-0.09,0.36-0.23,0.71-0.44,1.01c-0.2,0.29-0.45,0.51-0.76,0.67c-0.33,0.17-0.71,0.24-1.08,0.24
		c-0.37,0-0.75-0.07-1.08-0.24c-0.31-0.16-0.56-0.39-0.76-0.67c-0.21-0.31-0.35-0.65-0.44-1.01c-0.1-0.41-0.14-0.84-0.14-1.27
		c0-0.43,0.04-0.85,0.14-1.27c0.09-0.36,0.23-0.71,0.44-1.01c0.2-0.29,0.45-0.51,0.76-0.67c0.33-0.17,0.71-0.24,1.08-0.24
		c0.38,0,0.75,0.07,1.08,0.24c0.31,0.16,0.56,0.39,0.76,0.67c0.21,0.31,0.35,0.65,0.44,1.01C98.22,85.23,98.26,85.66,98.26,86.08
		 M96.73,86.05L96.73,86.05c0-0.28-0.01-0.57-0.04-0.85c-0.03-0.23-0.07-0.46-0.15-0.67c-0.06-0.16-0.15-0.32-0.28-0.44
		c-0.12-0.11-0.27-0.15-0.43-0.15c-0.16,0-0.31,0.05-0.43,0.15c-0.13,0.12-0.22,0.27-0.28,0.44c-0.08,0.22-0.12,0.45-0.15,0.67
		c-0.03,0.28-0.05,0.57-0.04,0.85c0,0.28,0.01,0.57,0.04,0.85c0.03,0.23,0.07,0.46,0.15,0.67c0.06,0.16,0.15,0.32,0.28,0.43
		c0.12,0.11,0.27,0.15,0.43,0.15c0.16,0,0.31-0.05,0.43-0.15c0.13-0.12,0.22-0.27,0.28-0.43c0.08-0.21,0.12-0.44,0.15-0.67
		C96.72,86.62,96.73,86.34,96.73,86.05 M100.95,86.6L100.95,86.6v2.58h-1.49v-5.93l0.03-0.01c0.11-0.05,0.22-0.1,0.33-0.13
		c0.49-0.15,1-0.22,1.51-0.22c0.45,0,0.92,0.05,1.34,0.21c0.34,0.13,0.64,0.33,0.86,0.63c0.22,0.31,0.3,0.68,0.3,1.06
		c0,0.26-0.05,0.52-0.18,0.75c-0.12,0.22-0.29,0.41-0.49,0.55c-0.21,0.15-0.44,0.26-0.69,0.33c0.11,0.11,0.21,0.23,0.3,0.35
		c0.1,0.14,0.19,0.29,0.27,0.44l1.06,1.97h-1.69l-0.84-1.85c-0.07-0.16-0.17-0.32-0.29-0.46C101.18,86.76,101.07,86.66,100.95,86.6
		 M100.95,83.85L100.95,83.85v2.06c0.04,0.01,0.09,0.01,0.13,0.02c0.07,0,0.14,0.01,0.2,0.01c0.2,0,0.4-0.04,0.57-0.15
		c0.24-0.15,0.39-0.38,0.45-0.69c0.01-0.06,0.02-0.12,0.02-0.17c0.01-0.29-0.03-0.64-0.24-0.87c-0.18-0.2-0.46-0.26-0.72-0.26
		c-0.08,0-0.17,0.01-0.25,0.02C101.06,83.82,101,83.83,100.95,83.85 M107.24,84.04L107.24,84.04v5.14h-1.52v-5.14h-1.1v-1.05h3.73
		v1.05H107.24z M113.83,86.08L113.83,86.08c0,0.42-0.04,0.85-0.14,1.27c-0.09,0.36-0.23,0.71-0.44,1.01
		c-0.2,0.29-0.45,0.51-0.76,0.67c-0.33,0.17-0.71,0.24-1.08,0.24c-0.37,0-0.75-0.07-1.08-0.24c-0.31-0.16-0.56-0.39-0.76-0.67
		c-0.21-0.31-0.35-0.65-0.44-1.01c-0.1-0.41-0.14-0.84-0.14-1.27c0-0.43,0.04-0.85,0.14-1.27c0.09-0.36,0.23-0.71,0.44-1.01
		c0.2-0.29,0.45-0.51,0.76-0.67c0.33-0.17,0.71-0.24,1.08-0.24c0.38,0,0.75,0.07,1.08,0.24c0.31,0.16,0.56,0.39,0.76,0.67
		c0.21,0.31,0.35,0.65,0.44,1.01C113.79,85.23,113.83,85.66,113.83,86.08 M112.29,86.05L112.29,86.05c0-0.28-0.01-0.57-0.04-0.85
		c-0.03-0.23-0.07-0.46-0.15-0.67c-0.06-0.16-0.15-0.32-0.28-0.44c-0.12-0.11-0.27-0.15-0.43-0.15c-0.16,0-0.3,0.05-0.43,0.15
		c-0.13,0.12-0.22,0.27-0.28,0.44c-0.08,0.22-0.12,0.45-0.15,0.67c-0.03,0.28-0.05,0.57-0.04,0.85c0,0.28,0.01,0.57,0.04,0.85
		c0.03,0.23,0.07,0.46,0.15,0.67c0.06,0.16,0.15,0.32,0.28,0.43c0.12,0.11,0.27,0.15,0.43,0.15c0.16,0,0.31-0.05,0.43-0.15
		c0.13-0.12,0.22-0.27,0.28-0.43c0.08-0.21,0.12-0.44,0.15-0.67C112.28,86.62,112.29,86.34,112.29,86.05 M118.1,85.56L118.1,85.56
		c0,0.03-0.01,0.07-0.01,0.1c-0.02,0.09-0.03,0.19-0.06,0.28l-0.79,3.25h-1.35l-1.4-6.2h1.51l0.65,3.61c0.02,0.1,0.03,0.2,0.04,0.3
		c0.01,0.04,0.01,0.08,0.01,0.12c0.01-0.04,0.01-0.09,0.02-0.13c0.02-0.09,0.04-0.19,0.06-0.28l0.82-3.6h1.09l0.79,3.6
		c0.02,0.09,0.04,0.19,0.06,0.28c0.01,0.04,0.01,0.09,0.02,0.14c0-0.02,0.01-0.04,0.01-0.07c0.01-0.12,0.03-0.23,0.05-0.35l0.67-3.6
		h1.39l-1.4,6.2h-1.34l-0.79-3.25c-0.02-0.09-0.04-0.19-0.06-0.28C118.11,85.62,118.11,85.59,118.1,85.56 M125.26,86.58v2.6h-1.53
		v-2.6l-1.65-3.6h1.61l0.86,2.26l0.9-2.26h1.46L125.26,86.58z"/>
</g>
</svg>
