<?xml version="1.0" encoding="utf-8"?>
<!-- Generator: Adobe Illustrator 25.1.0, SVG Export Plug-In . SVG Version: 6.00 Build 0)  -->
<svg version="1.1" id="Warstwa_1" xmlns="http://www.w3.org/2000/svg" xmlns:xlink="http://www.w3.org/1999/xlink" x="0px" y="0px"
	 viewBox="0 0 210 120" style="enable-background:new 0 0 210 120;" xml:space="preserve">
<style type="text/css">
	.st0{fill:#9F9F9F;}
</style>
<g>
	<path class="st0" d="M60.52,66.77c0,1.26-0.41,2.29-1.23,3.1c-0.82,0.81-1.88,1.21-3.16,1.21c-0.97,0-1.73-0.16-2.29-0.48
		c-0.56-0.32-0.98-0.72-1.27-1.19c-0.29-0.47-0.48-0.94-0.57-1.43c-0.09-0.48-0.13-0.89-0.13-1.21V53.54h-5.8V66.6
		c0,1.49,0.23,2.85,0.68,4.08c0.45,1.23,1.11,2.29,1.98,3.19c0.86,0.89,1.92,1.59,3.16,2.09c1.25,0.5,2.66,0.75,4.24,0.75
		c1.52,0,2.91-0.26,4.17-0.77c1.26-0.51,2.34-1.22,3.23-2.13c0.89-0.91,1.58-1.98,2.07-3.21c0.48-1.23,0.73-2.56,0.73-4V53.54h-5.8
		V66.77z"/>
	<path class="st0" d="M79.06,53.37c-1.48,0.41-2.73,1.07-3.76,1.98c-1.03,0.91-1.81,2.02-2.35,3.34c-0.54,1.32-0.81,2.78-0.81,4.39
		v13.1h5.8v-13.1c0-1.61,0.56-2.85,1.69-3.71c1.13-0.86,2.61-1.14,4.46-0.81V53.1C82.22,52.87,80.54,52.96,79.06,53.37z"/>
	<path class="st0" d="M94.84,70.02c-0.72-0.64-1.08-1.76-1.08-3.34v-8h4.09v-5.14h-4.09v-6.98l-5.8,1.63v18.44
		c0,1.55,0.22,2.95,0.66,4.2c0.44,1.25,1.08,2.29,1.93,3.14c0.85,0.85,1.9,1.47,3.16,1.85c1.26,0.38,2.72,0.48,4.39,0.31v-5.27
		C96.65,70.95,95.56,70.67,94.84,70.02z"/>
	<rect x="103.64" y="53.55" class="st0" width="5.8" height="22.63"/>
	<path class="st0" d="M129.14,70.57c-0.85,0.57-1.82,0.86-2.9,0.86c-0.79,0-1.54-0.17-2.24-0.5c-0.7-0.33-1.32-0.8-1.85-1.4
		c-0.53-0.6-0.94-1.29-1.25-2.07c-0.31-0.79-0.46-1.62-0.46-2.49c0-0.9,0.15-1.75,0.46-2.55c0.31-0.8,0.73-1.5,1.25-2.1
		c0.53-0.59,1.14-1.07,1.85-1.42c0.7-0.35,1.45-0.52,2.24-0.52c1.05,0,2,0.28,2.83,0.83c0.83,0.55,1.46,1.2,1.87,1.94h6.2
		c-0.67-2.58-1.97-4.58-3.89-6.02c-1.92-1.43-4.26-2.15-7.01-2.15c-1.7,0-3.26,0.32-4.69,0.95c-1.43,0.63-2.65,1.48-3.66,2.55
		c-1.01,1.07-1.8,2.33-2.38,3.78c-0.58,1.45-0.87,3-0.87,4.64c0,1.64,0.29,3.18,0.87,4.61c0.58,1.44,1.37,2.69,2.38,3.76
		c1.01,1.07,2.23,1.91,3.66,2.53c1.43,0.62,3,0.92,4.69,0.92c2.75,0,5.1-0.72,7.03-2.15c1.93-1.44,3.24-3.44,3.91-6.02h-6.2
		C130.6,69.32,129.99,70,129.14,70.57z"/>
	<path class="st0" d="M163.08,60.28c-0.57-1.45-1.37-2.7-2.39-3.77c-1.03-1.07-2.25-1.91-3.67-2.54c-1.42-0.63-2.98-0.94-4.68-0.94
		c-1.73,0-3.3,0.31-4.72,0.94c-1.42,0.63-2.64,1.48-3.67,2.54c-1.03,1.07-1.82,2.32-2.39,3.77c-0.57,1.45-0.86,2.99-0.86,4.63
		c0,1.64,0.29,3.16,0.86,4.58c0.57,1.42,1.35,2.66,2.33,3.73c0.98,1.07,2.13,1.91,3.45,2.52c1.32,0.61,2.72,0.92,4.22,0.92
		c1.38,0,2.66-0.24,3.84-0.73c1.19-0.48,2.2-1.19,3.05-2.13v2.37h5.49V64.9C163.93,63.27,163.65,61.72,163.08,60.28z M157.67,67.38
		c-0.31,0.77-0.73,1.44-1.26,2.01c-0.53,0.57-1.15,1.02-1.85,1.36c-0.71,0.34-1.46,0.5-2.25,0.5c-0.79,0-1.54-0.16-2.25-0.48
		c-0.71-0.32-1.32-0.76-1.85-1.34c-0.53-0.57-0.95-1.24-1.26-2.01c-0.31-0.77-0.46-1.61-0.46-2.52c0-0.93,0.15-1.8,0.46-2.58
		c0.31-0.79,0.73-1.47,1.26-2.06c0.53-0.58,1.15-1.04,1.85-1.36c0.71-0.32,1.46-0.48,2.25-0.48c0.79,0,1.54,0.17,2.25,0.5
		c0.71,0.34,1.32,0.8,1.85,1.38c0.53,0.58,0.95,1.27,1.26,2.06c0.31,0.79,0.46,1.64,0.46,2.54
		C158.13,65.78,157.98,66.6,157.67,67.38z"/>
	<path class="st0" d="M106.54,43.3c-1.91,0-3.46,1.55-3.46,3.46c0,1.91,1.55,3.46,3.46,3.46c1.91,0,3.46-1.55,3.46-3.46
		C110,44.84,108.45,43.3,106.54,43.3z"/>
</g>
</svg>
