<?xml version="1.0" encoding="utf-8"?>
<!-- Generator: Adobe Illustrator 25.1.0, SVG Export Plug-In . SVG Version: 6.00 Build 0)  -->
<svg version="1.1" id="Warstwa_1" xmlns="http://www.w3.org/2000/svg" xmlns:xlink="http://www.w3.org/1999/xlink" x="0px" y="0px"
	 viewBox="0 0 210 120" style="enable-background:new 0 0 210 120;" xml:space="preserve">
<style type="text/css">
	.st0{fill:#9F9F9F;}
</style>
<g>
	<path class="st0" d="M123.31,68.72h-0.93v7.83h4.67V75.7h-3.73V68.72z M117.14,72.97h3.3v-0.86h-3.3v-2.53h3.71v-0.86h-4.64v7.83
		h4.85V75.7h-3.92V72.97z M112.65,72.75c-0.32,0.87-0.62,1.73-0.89,2.59h-0.02c-0.28-0.85-0.58-1.72-0.9-2.59l-1.47-4.03h-0.93
		l2.9,7.83h0.81l2.9-7.83h-0.93L112.65,72.75z M100.52,70.28c-0.22-0.31-0.5-0.59-0.83-0.82c-0.33-0.23-0.72-0.41-1.17-0.54
		c-0.26-0.07-0.53-0.13-0.83-0.16c-0.3-0.03-0.62-0.04-0.97-0.04h-1.75v7.83h1.73c0.35,0,0.67-0.01,0.97-0.04
		c0.3-0.03,0.57-0.08,0.83-0.16c0.45-0.13,0.84-0.31,1.17-0.54c0.33-0.23,0.61-0.51,0.83-0.83c0.22-0.32,0.39-0.68,0.5-1.09
		c0.11-0.4,0.17-0.83,0.17-1.29c0-0.45-0.05-0.88-0.16-1.27C100.9,70.95,100.74,70.59,100.52,70.28 M99.76,74.48
		c-0.32,0.49-0.79,0.83-1.4,1.02c-0.23,0.07-0.49,0.12-0.78,0.15c-0.29,0.03-0.61,0.04-0.97,0.04h-0.71v-6.11h0.71
		c0.36,0,0.68,0.01,0.97,0.04c0.29,0.03,0.54,0.08,0.78,0.15c0.61,0.2,1.07,0.53,1.4,0.99c0.32,0.47,0.49,1.08,0.49,1.83
		C100.25,73.37,100.09,73.99,99.76,74.48 M103.65,72.97h3.3v-0.86h-3.3v-2.53h3.71v-0.86h-4.64v7.83h4.85V75.7h-3.92V72.97z
		 M163.86,72.89c0,0.79,0.03,1.57,0.07,2.33h-0.03c-0.46-0.73-0.92-1.44-1.39-2.13l-3-4.37h-0.93v7.83h0.93v-4
		c0-0.95-0.03-1.79-0.07-2.5h0.03c0.41,0.66,0.87,1.37,1.39,2.13l3,4.37h0.93v-7.83h-0.94V72.89z M165.93,68.72v0.86h2.56v6.97h0.93
		v-6.97h2.56v-0.86H165.93z M133.87,69.72c-0.31-0.36-0.68-0.64-1.12-0.84c-0.44-0.2-0.94-0.3-1.49-0.3c-0.54,0-1.04,0.1-1.47,0.3
		c-0.44,0.2-0.81,0.48-1.12,0.84c-0.31,0.36-0.55,0.79-0.71,1.29c-0.17,0.5-0.25,1.05-0.25,1.64c0,0.59,0.08,1.14,0.24,1.63
		c0.16,0.5,0.4,0.92,0.7,1.28c0.31,0.36,0.68,0.64,1.12,0.84c0.44,0.2,0.94,0.3,1.5,0.3c0.54,0,1.03-0.1,1.47-0.3
		c0.44-0.2,0.81-0.48,1.12-0.84c0.31-0.36,0.55-0.79,0.72-1.28c0.17-0.5,0.25-1.04,0.25-1.63c0-0.6-0.08-1.15-0.24-1.64
		C134.41,70.51,134.17,70.08,133.87,69.72 M133.68,74.04c-0.13,0.4-0.32,0.74-0.56,1c-0.24,0.27-0.51,0.47-0.83,0.61
		c-0.32,0.14-0.66,0.2-1.03,0.2c-0.37,0-0.72-0.07-1.04-0.2c-0.32-0.14-0.6-0.34-0.84-0.61c-0.24-0.27-0.42-0.6-0.56-1
		c-0.14-0.4-0.21-0.86-0.21-1.39c0-0.53,0.07-0.99,0.2-1.39c0.13-0.4,0.32-0.74,0.56-1.01c0.24-0.27,0.52-0.47,0.84-0.61
		c0.32-0.14,0.67-0.21,1.04-0.21c0.37,0,0.72,0.07,1.04,0.21c0.32,0.14,0.6,0.34,0.84,0.61c0.24,0.27,0.42,0.61,0.56,1.01
		c0.13,0.4,0.2,0.87,0.2,1.39C133.89,73.17,133.82,73.64,133.68,74.04 M153.34,72.97h3.3v-0.86h-3.3v-2.53h3.71v-0.86h-4.64v7.83
		h4.85V75.7h-3.92V72.97z M147.36,73.16c-0.18,0.43-0.41,1.04-0.68,1.83h-0.03c-0.25-0.71-0.47-1.33-0.68-1.83l-1.8-4.43h-1.34v7.83
		h0.93v-3.79c0-0.91-0.03-1.9-0.08-2.99h0.05c0.27,0.76,0.53,1.46,0.8,2.1l1.93,4.68h0.43l1.93-4.68c0.25-0.6,0.52-1.3,0.8-2.1h0.05
		c-0.05,1.11-0.08,2.11-0.08,2.99v3.79h0.93v-7.83h-1.34L147.36,73.16z M140.14,68.96c-0.22-0.08-0.47-0.14-0.74-0.18
		c-0.27-0.04-0.56-0.06-0.88-0.06h-2.12v7.83h0.93v-3.22c0.27,0.02,0.54,0.04,0.79,0.04c0.53,0,1.01-0.05,1.43-0.16
		c0.42-0.1,0.78-0.26,1.07-0.46c0.29-0.2,0.52-0.46,0.67-0.76c0.15-0.3,0.23-0.65,0.23-1.05c0-0.49-0.12-0.9-0.35-1.23
		C140.94,69.38,140.6,69.13,140.14,68.96 M140.42,71.61c-0.09,0.19-0.23,0.36-0.42,0.49c-0.19,0.13-0.45,0.24-0.75,0.31
		c-0.31,0.07-0.68,0.11-1.12,0.11c-0.12,0-0.25,0-0.39-0.01c-0.14-0.01-0.27-0.02-0.39-0.04v-2.88h1.08c0.28,0,0.53,0.01,0.74,0.04
		c0.21,0.03,0.4,0.07,0.57,0.13c0.26,0.1,0.47,0.25,0.61,0.44c0.14,0.2,0.21,0.45,0.21,0.75C140.55,71.19,140.51,71.41,140.42,71.61
		"/>
	<path class="st0" d="M107.41,50.5l-5.45,14.06h2.68l1.35-3.58h5.17l1.34,3.58h2.66l-5.45-14.06H107.41z M110.34,58.82h-3.55
		l0.47-1.25c0.38-0.99,0.8-2.22,1.29-3.69h0.04c0.48,1.46,0.91,2.69,1.28,3.69L110.34,58.82z M101.51,50.5l-2.55,6.99
		c-0.36,1.01-0.6,1.68-0.71,2c-0.11,0.33-0.3,0.87-0.55,1.63h-0.04c-0.25-0.76-0.44-1.31-0.55-1.63c-0.11-0.33-0.35-0.99-0.71-2
		l-2.55-6.99h-2.68l5.37,14.06h2.26l5.37-14.06H101.51z M125.19,56.86c0,0.83,0.04,2.16,0.12,3.99h-0.06
		c-0.62-1.11-1.42-2.39-2.4-3.83l-4.52-6.54h-2.64v14.06h2.51v-6.37c0-0.95-0.04-2.28-0.12-4h0.06c0.84,1.48,1.66,2.78,2.44,3.9
		l4.47,6.47h2.64V50.5h-2.51V56.86z M155.73,59.19h3.08v3.29c-0.23,0.05-0.5,0.09-0.81,0.12c-0.31,0.03-0.61,0.05-0.89,0.05
		c-1.55,0-2.74-0.42-3.58-1.25c-0.84-0.83-1.27-2.08-1.27-3.74c0-0.85,0.14-1.61,0.41-2.26c0.27-0.65,0.65-1.2,1.12-1.64
		c0.48-0.44,1.04-0.78,1.69-1.01c0.65-0.23,1.35-0.34,2.09-0.34c0.55,0,1.1,0.05,1.65,0.14c0.54,0.09,1.08,0.22,1.62,0.4v-2.19
		c-0.4-0.15-0.91-0.27-1.53-0.37c-0.62-0.1-1.28-0.15-1.97-0.15c-0.78,0-1.51,0.09-2.19,0.26c-0.68,0.17-1.31,0.42-1.88,0.74
		c-0.57,0.32-1.08,0.71-1.52,1.17c-0.44,0.46-0.82,0.97-1.13,1.53c-0.31,0.56-0.55,1.18-0.71,1.84c-0.16,0.66-0.24,1.36-0.24,2.09
		c0,1.03,0.15,1.97,0.46,2.82c0.3,0.85,0.76,1.59,1.37,2.2c0.61,0.62,1.38,1.09,2.3,1.43c0.92,0.34,2,0.51,3.23,0.51
		c0.41,0,0.82-0.02,1.24-0.06c0.42-0.04,0.82-0.1,1.22-0.16c0.39-0.07,0.75-0.14,1.07-0.23c0.32-0.08,0.58-0.16,0.78-0.24v-7.09
		h-5.59V59.19z M165.58,62.4v-3.96h5.48v-2.15h-5.48v-3.64h6.38V50.5h-8.9v14.06h9.27V62.4H165.58z M142.61,50.5l-5.45,14.06h2.68
		l1.34-3.58h5.17l1.34,3.58h2.66l-5.45-14.06H142.61z M145.54,58.82h-3.55l0.47-1.25c0.38-0.99,0.8-2.22,1.29-3.69h0.04
		c0.48,1.46,0.91,2.69,1.28,3.69L145.54,58.82z M139.63,50.5h-11.37v2.15h4.43v11.91h2.51V52.65h4.42V50.5z"/>
	<polygon class="st0" points="65.37,43.3 54.95,62.84 45.64,47.55 37.67,47.55 55.34,76.56 73.07,43.3 	"/>
	<path class="st0" d="M70.71,50.48l-3.45,6.46c2.89,0,5.42,0,5.42,0c3.77,0,6.83,2.93,6.83,6.55c0,3.62-3.06,6.55-6.83,6.55l-12.4,0
		l-3.49,6.54l15.92-0.01c7.53,0,13.63-5.85,13.63-13.06c0-8.85-8.26-13.04-12.59-13.04H70.71z M55.91,50.47v6.47h0.75l3.45-6.47
		H55.91z"/>
</g>
</svg>
