<?xml version="1.0" encoding="utf-8"?>
<!-- Generator: Adobe Illustrator 25.1.0, SVG Export Plug-In . SVG Version: 6.00 Build 0)  -->
<svg version="1.1" id="Warstwa_1" xmlns="http://www.w3.org/2000/svg" xmlns:xlink="http://www.w3.org/1999/xlink" x="0px" y="0px"
	 viewBox="0 0 210 120" style="enable-background:new 0 0 210 120;" xml:space="preserve">
<style type="text/css">
	.st0{fill:#9F9F9F;}
</style>
<g>
	<g>
		<g>
			<g>
				<path class="st0" d="M80.31,79.35l-2.81,7.84h-1.98l-2.81-7.84v-0.12h1.77l2.02,6.25h0.04l2-6.25h1.77V79.35z"/>
				<path class="st0" d="M86.26,84.37c0,0.41-0.06,0.8-0.19,1.16c-0.13,0.36-0.31,0.68-0.57,0.95c-0.25,0.27-0.57,0.48-0.94,0.64
					c-0.37,0.16-0.8,0.24-1.29,0.24c-0.48,0-0.91-0.08-1.28-0.24c-0.37-0.16-0.68-0.37-0.93-0.64c-0.25-0.27-0.44-0.59-0.57-0.95
					c-0.13-0.36-0.19-0.75-0.19-1.16c0-0.41,0.06-0.79,0.19-1.16c0.13-0.37,0.32-0.68,0.57-0.95c0.25-0.27,0.56-0.48,0.93-0.64
					c0.37-0.16,0.8-0.24,1.28-0.24c0.49,0,0.92,0.08,1.29,0.24c0.37,0.16,0.68,0.37,0.94,0.64c0.25,0.27,0.44,0.59,0.57,0.95
					C86.19,83.58,86.26,83.96,86.26,84.37z M81.91,84.37c0,0.28,0.03,0.53,0.1,0.74c0.07,0.21,0.16,0.39,0.27,0.53
					c0.12,0.14,0.26,0.25,0.43,0.32c0.17,0.07,0.35,0.11,0.56,0.11c0.21,0,0.4-0.04,0.57-0.11s0.31-0.18,0.43-0.32
					c0.12-0.14,0.21-0.32,0.28-0.53c0.07-0.21,0.1-0.46,0.1-0.74c0-0.28-0.03-0.53-0.1-0.74c-0.07-0.21-0.16-0.39-0.28-0.53
					c-0.12-0.14-0.26-0.25-0.43-0.32c-0.17-0.07-0.36-0.11-0.57-0.11c-0.2,0-0.39,0.03-0.56,0.11c-0.17,0.07-0.31,0.18-0.43,0.32
					c-0.12,0.14-0.21,0.32-0.27,0.53C81.95,83.84,81.91,84.09,81.91,84.37z"/>
				<path class="st0" d="M88.98,79v6.93c0,0.09,0.01,0.14,0.03,0.17c0.02,0.03,0.07,0.04,0.16,0.04h0.62v1.08
					c-0.12,0.02-0.27,0.04-0.43,0.06c-0.16,0.02-0.33,0.02-0.5,0.02c-0.54,0-0.91-0.13-1.13-0.4c-0.21-0.27-0.32-0.68-0.32-1.25V79
					H88.98z"/>
				<path class="st0" d="M92.4,84.58v2.61h-1.58V79h1.58v5.09h0.02l1.98-2.54h1.72v0.12l-2.14,2.62l2.25,2.79v0.12h-1.79l-2.01-2.61
					H92.4z"/>
				<path class="st0" d="M98.1,86.04c0.31,0.09,0.62,0.13,0.94,0.13c0.31,0,0.54-0.05,0.68-0.14c0.14-0.09,0.21-0.23,0.21-0.41
					c0-0.17-0.07-0.3-0.2-0.38c-0.13-0.08-0.32-0.15-0.57-0.22l-0.74-0.18c-0.2-0.05-0.38-0.11-0.57-0.19
					c-0.18-0.08-0.35-0.19-0.49-0.32c-0.14-0.13-0.26-0.29-0.35-0.48c-0.09-0.19-0.13-0.41-0.13-0.67c0-0.55,0.21-1,0.62-1.32
					c0.41-0.33,0.99-0.49,1.72-0.49c0.43,0,0.81,0.04,1.13,0.11c0.32,0.07,0.65,0.17,0.98,0.3l-0.43,1.12
					c-0.25-0.09-0.51-0.17-0.8-0.24c-0.28-0.07-0.56-0.1-0.83-0.1c-0.3,0-0.51,0.04-0.65,0.13c-0.14,0.09-0.2,0.21-0.2,0.39
					c0,0.16,0.06,0.28,0.19,0.36c0.12,0.08,0.3,0.15,0.54,0.21l0.71,0.18c0.23,0.05,0.44,0.13,0.63,0.22
					c0.19,0.09,0.36,0.2,0.51,0.33c0.14,0.13,0.26,0.29,0.34,0.48c0.08,0.19,0.12,0.41,0.12,0.66c0,0.3-0.06,0.56-0.17,0.78
					c-0.11,0.23-0.27,0.42-0.48,0.58c-0.21,0.16-0.46,0.28-0.75,0.36c-0.29,0.08-0.62,0.12-0.98,0.12c-0.48,0-0.91-0.05-1.28-0.14
					c-0.37-0.09-0.72-0.23-1.05-0.4l0.47-1.14C97.5,85.83,97.79,85.95,98.1,86.04z"/>
				<path class="st0" d="M111.48,81.66l-1.69,5.52h-1.72l-1.29-4.06h-0.02l-1.29,4.06h-1.72l-1.69-5.52v-0.12h1.58l1.04,3.91h0.02
					l1.21-3.91h1.71l1.21,3.91h0.02l1.04-3.91h1.58V81.66z"/>
				<path class="st0" d="M117.11,85.96c0,0.09,0.01,0.14,0.03,0.17c0.02,0.03,0.07,0.04,0.16,0.04h0.41v1.08
					c-0.12,0.02-0.25,0.04-0.37,0.06c-0.12,0.02-0.27,0.02-0.44,0.02c-0.3,0-0.54-0.06-0.71-0.17c-0.17-0.11-0.31-0.28-0.41-0.5
					h-0.02c-0.09,0.08-0.21,0.16-0.35,0.24c-0.14,0.08-0.28,0.16-0.44,0.23c-0.16,0.07-0.33,0.13-0.5,0.17
					c-0.18,0.04-0.35,0.06-0.52,0.06c-0.63,0-1.11-0.17-1.43-0.5c-0.32-0.34-0.48-0.76-0.48-1.28c0-0.31,0.05-0.59,0.16-0.82
					c0.11-0.23,0.27-0.43,0.49-0.58c0.22-0.15,0.51-0.27,0.86-0.34c0.35-0.07,0.78-0.11,1.28-0.11h0.76v-0.26
					c0-0.17-0.03-0.31-0.1-0.42c-0.07-0.11-0.15-0.19-0.25-0.25c-0.1-0.05-0.21-0.09-0.32-0.11c-0.11-0.02-0.21-0.03-0.29-0.03
					c-0.31,0-0.63,0.04-0.97,0.11c-0.33,0.07-0.63,0.17-0.91,0.3l-0.37-1.21c0.3-0.13,0.65-0.25,1.05-0.35
					c0.41-0.1,0.83-0.15,1.28-0.15c0.82,0,1.43,0.2,1.83,0.59c0.4,0.39,0.6,0.96,0.6,1.69V85.96z M114.97,84.75
					c-0.52,0-0.89,0.06-1.11,0.19c-0.22,0.12-0.33,0.29-0.33,0.5c0,0.45,0.25,0.68,0.75,0.68c0.2,0,0.43-0.04,0.67-0.11
					c0.25-0.07,0.45-0.16,0.61-0.28v-0.98H114.97z"/>
				<path class="st0" d="M124.12,86.83c0,0.48-0.06,0.89-0.19,1.25c-0.13,0.36-0.32,0.65-0.57,0.89c-0.25,0.24-0.56,0.42-0.92,0.54
					c-0.36,0.12-0.77,0.18-1.23,0.18c-0.46,0-0.88-0.05-1.25-0.16c-0.37-0.11-0.69-0.24-0.97-0.39l0.46-1.16
					c0.23,0.12,0.5,0.22,0.79,0.3c0.29,0.07,0.61,0.11,0.97,0.11c0.46,0,0.8-0.09,1.01-0.28c0.21-0.19,0.32-0.51,0.32-0.98V86.7
					h-0.02c-0.17,0.12-0.38,0.25-0.63,0.37c-0.25,0.12-0.57,0.19-0.97,0.19c-0.41,0-0.76-0.08-1.07-0.23
					c-0.31-0.15-0.56-0.36-0.77-0.62c-0.2-0.26-0.36-0.57-0.46-0.92c-0.11-0.36-0.16-0.74-0.16-1.15c0-0.41,0.05-0.79,0.16-1.15
					c0.11-0.36,0.26-0.68,0.46-0.94c0.2-0.27,0.46-0.48,0.77-0.63c0.31-0.16,0.67-0.23,1.07-0.23c0.21,0,0.4,0.02,0.57,0.06
					c0.17,0.04,0.32,0.1,0.46,0.17c0.14,0.07,0.27,0.15,0.39,0.23c0.12,0.08,0.23,0.16,0.33,0.23h0.02l0.21-0.51h1.23V86.83z
					 M122.54,83.02c-0.16-0.09-0.33-0.18-0.53-0.25c-0.2-0.07-0.4-0.11-0.6-0.11c-0.23,0-0.44,0.04-0.6,0.12
					c-0.17,0.08-0.31,0.19-0.42,0.33c-0.11,0.14-0.19,0.32-0.24,0.53c-0.05,0.21-0.08,0.43-0.08,0.68c0,0.25,0.03,0.48,0.08,0.68
					c0.05,0.2,0.13,0.37,0.24,0.51c0.11,0.14,0.25,0.25,0.42,0.32c0.17,0.07,0.37,0.11,0.6,0.11c0.2,0,0.4-0.03,0.6-0.09
					c0.2-0.06,0.38-0.14,0.53-0.22V83.02z"/>
				<path class="st0" d="M126.89,84.82c0.02,0.2,0.06,0.38,0.13,0.54c0.07,0.16,0.17,0.29,0.29,0.4c0.12,0.11,0.27,0.19,0.43,0.25
					c0.17,0.06,0.36,0.09,0.57,0.09c0.33,0,0.64-0.03,0.94-0.1c0.3-0.07,0.59-0.15,0.86-0.25l0.36,1.14
					c-0.28,0.13-0.62,0.25-1.01,0.34c-0.39,0.09-0.82,0.14-1.27,0.14c-0.49,0-0.92-0.08-1.28-0.23c-0.36-0.16-0.66-0.37-0.9-0.64
					c-0.24-0.27-0.42-0.59-0.54-0.96c-0.12-0.37-0.18-0.76-0.18-1.17c0-0.4,0.06-0.78,0.18-1.14c0.12-0.36,0.3-0.68,0.54-0.95
					c0.24-0.27,0.53-0.49,0.88-0.65c0.35-0.16,0.76-0.24,1.22-0.24c0.45,0,0.84,0.06,1.18,0.19c0.33,0.13,0.61,0.3,0.83,0.53
					c0.22,0.22,0.38,0.48,0.48,0.78c0.1,0.3,0.15,0.61,0.15,0.94c0,0.18-0.01,0.37-0.03,0.57c-0.02,0.2-0.04,0.35-0.05,0.45H126.89z
					 M129.29,83.84c0.01-0.03,0.01-0.06,0.01-0.09c0-0.03,0-0.06,0-0.09c0-0.16-0.02-0.3-0.06-0.44c-0.04-0.14-0.11-0.26-0.2-0.37
					c-0.09-0.11-0.22-0.19-0.37-0.25c-0.15-0.06-0.34-0.09-0.56-0.09c-0.2,0-0.38,0.04-0.53,0.11c-0.15,0.07-0.27,0.17-0.37,0.3
					c-0.1,0.13-0.18,0.27-0.23,0.42c-0.05,0.16-0.09,0.32-0.09,0.49H129.29z"/>
				<path class="st0" d="M133.16,81.55l0.21,0.55h0.02c0.08-0.07,0.18-0.15,0.29-0.23c0.12-0.09,0.25-0.17,0.4-0.24
					c0.15-0.07,0.32-0.13,0.5-0.18c0.19-0.05,0.39-0.07,0.61-0.07c0.66,0,1.18,0.21,1.54,0.62c0.36,0.41,0.54,0.96,0.54,1.64v3.56
					h-1.58v-3.39c0-0.37-0.08-0.65-0.25-0.84c-0.16-0.19-0.42-0.29-0.76-0.29c-0.13,0-0.26,0.02-0.38,0.05
					c-0.12,0.03-0.23,0.07-0.33,0.12c-0.1,0.05-0.2,0.1-0.28,0.16c-0.09,0.05-0.16,0.11-0.22,0.15v4.04h-1.58v-5.64H133.16z"/>
			</g>
		</g>
	</g>
	<path class="st0" d="M105,30.32c-11.16,0-20.21,9.08-20.21,20.27c0,11.2,9.05,20.27,20.21,20.27s20.21-9.08,20.21-20.27
		C125.21,39.4,116.16,30.32,105,30.32z M105,33.07c1.67,0,3.28,0.23,4.81,0.65l-4.99,11L99.94,33.8
		C101.55,33.33,103.24,33.07,105,33.07z M87.3,50.59c0-2.06,0.36-4.05,1.03-5.89l9.7,22C91.72,64.02,87.3,57.81,87.3,50.59z
		 M105,68.1c-1.78,0-3.49-0.26-5.11-0.74l4.93-11.04l5,11.1l0.02,0.02C108.3,67.87,106.68,68.1,105,68.1z M106.13,51.05h-2.68
		l-4.33,9.51l-8.84-19.69c1.64-2.43,3.88-4.44,6.52-5.8l6.73,15.1h2.58l6.84-15.23c2.71,1.35,4.91,3.21,6.6,5.69l-0.05,0.11
		L110.5,60.5L106.13,51.05z M111.51,66.88l9.93-22.38l0.08-0.2c0.79,1.98,1.18,4.03,1.18,6.29
		C122.7,57.99,118.06,64.31,111.51,66.88z"/>
</g>
</svg>
