<?xml version="1.0" encoding="utf-8"?>
<!-- Generator: Adobe Illustrator 19.0.0, SVG Export Plug-In . SVG Version: 6.00 Build 0)  -->
<svg version="1.1" id="Warstwa_1" xmlns="http://www.w3.org/2000/svg" xmlns:xlink="http://www.w3.org/1999/xlink" x="0px" y="0px"
	 viewBox="0 0 210.1 120.1" style="enable-background:new 0 0 210.1 120.1;" xml:space="preserve">
<style type="text/css">
	.st0{fill:#FEFEFE;}
	.st1{fill:#9F9F9F;}
	.st2{fill:#A8A8A8;}
	.st3{fill:#A5A5A5;}
	.st4{fill:#AEAEAE;}
	.st5{fill:#A1A1A1;}
	.st6{fill:#ACACAC;}
	.st7{fill:#A0A0A0;}
	.st8{fill:#A6A6A6;}
	.st9{fill:#ADADAD;}
	.st10{fill:#A4A4A4;}
	.st11{fill:#9E9E9E;}
	.st12{fill:#A7A7A7;}
	.st13{fill:#A3A3A3;}
	.st14{fill:#B2B2B2;}
	.st15{fill:#EBEBEB;}
	.st16{fill:#A9A9A9;}
	.st17{fill:#B7B7B7;}
	.st18{fill:#D5D5D5;}
	.st19{fill:#F9F9F9;}
	.st20{fill:#ABABAB;}
	.st21{fill:#DFDFDF;}
	.st22{fill:#B0B0B0;}
	.st23{fill:#B3B3B3;}
	.st24{fill:#BCBCBC;}
	.st25{fill:#F1F1F1;}
	.st26{fill:#FDFDFD;}
	.st27{fill:#FCFCFC;}
	.st28{fill:#FAFAFA;}
	.st29{fill:#FBFBFB;}
	.st30{fill:#EDEDED;}
	.st31{fill:#E4E4E4;}
	.st32{fill:#F7F7F7;}
	.st33{fill:#F2F2F2;}
	.st34{fill:#D6D6D6;}
	.st35{fill:#F5F5F5;}
	.st36{fill:#F0F0F0;}
</style>
<g>
	<path class="st0" d="M0,120.1c0-40.3,0-80.7,0-121c70,0,140,0,210,0c0,40.3,0,80.7,0,121C140,120.1,70,120.1,0,120.1z M114,88.1
		c-0.3,0.3-0.7,0.7-1,1c0.8,3.4,1.6,3.7,5,2c0.3,1.5,1.1,1.2,2,0.5c0-1.3,0.1-2.5,0-3.8c0-0.3-0.6-0.5-1-0.7c0-0.3,0-0.7,0-1
		c-0.3-0.3-0.7-0.7-1-1c-1.3,0-2.7,0-4,0c-0.3,0-0.7,0-1,0s-0.7,0-1,0c-0.3,0.3-0.7,0.7-1,1c-0.3,0.3-0.7,0.7-1,1c0,0.3,0,0.7,0,1
		c0,0.2,0.1,0.4,0,0.5c-0.2,0.2-0.4,0.3-0.7,0.4c-0.6-1.5,0-3.7-2.8-3.9c-0.5,0.9-1,2-1.5,3c-0.3,0-0.7,0-1,0c0-0.3,0-0.7,0-1
		c-0.2-0.8,0.5-1.9-1-2c-0.3,0-0.7,0-1,0s-0.7,0-1,0s-0.7,0-1,0c-0.9,0-1.9-0.1-2.8,0c-0.4,0.1-0.8,0.6-1.2,1
		c-0.3,0.3-0.7,0.5-1,0.8c0.3,0.4,0.7,0.8,1,1.2c0.3,0.3,0.7,0.7,1,1c0.3,0,0.7,0,1,0c0,0.3,0,0.7,0,1c-1,0.4-2.5-0.9-3,1
		c-0.3,0-0.7,0-1,0c-0.3-0.3-0.7-0.7-1-1c0-0.3,0-0.7,0-1c0-0.7,0-1.3,0-2c0.3-0.3,0.7-0.7,1-1c-0.3-1.4-1-1.2-1.9-0.6
		c-0.7,0.5-1.4,1.1-2.1,1.6c0-1.6,0-3.2,0-4.9c-0.8,0-1.2,0-1.8,0c0,3.3,0,6.5,0,9.8c0.6,0,1.1,0,1.8,0c0-1,0-2,0-2.9
		c0.3,0.3,0.7,0.7,1,1s0.7,0.7,1,1c0.1,1.5,1.2,0.8,2,1c0.7,0,1.3,0,2,0c1.2,0,2.5,0,3.5,0c0.7-0.7,1.2-1.3,1.7-1.8
		c-0.5-0.9-0.9-1.6-1.2-2.2c0.1-1.5,1.2-0.8,2-1c0.2,0.8-0.5,1.9,1,2c0,0.3,0,0.7,0,1c0,0.6,0,1.2,0,1.8c1.3,0,2.6,1,3-0.8
		c0-0.7,0-1.3,0-2c0.3-0.3,0.7-0.7,1-1c1.3,0,0.8,1.1,1,1.7c0.2,0.5,0.6,0.8,1,1.3c0.3,0.3,0.5,0.7,0.8,1c0.4-0.3,0.8-0.7,1.2-1
		c0-0.3,0-0.7,0-1c1.5-0.1,0.8-1.2,1-2c0-0.3,0-0.7,0-1c0.3-0.3,0.7-0.7,1-1c0.3,0,0.7,0,1,0c0,0.3,0,0.7,0,1S114,87.7,114,88.1z
		 M70,91.1c0.3,0.3,0.5,0.7,0.8,1c0.4-0.3,0.8-0.7,1.2-1c0.3-0.3,0.7-0.7,1-1c0-2.7,2.5-4.9,1.9-7.9c-0.7,0-1.1,0-1.7,0
		c-0.4,2-0.8,4-1.2,5.9c-0.7,0-1.3,0-2,0c0-0.7,0-1.3,0-2c-0.3-0.3-0.7-0.7-1-1c0-0.7,0-1.3,0-2c-0.3-0.3-0.7-0.7-1-1
		c-1.5,0.1-0.8,1.2-1,2c0.2,0.8-0.5,1.9,1,2c0,0.3,0,0.7,0,1c0.3,0.3,0.7,0.7,1,1c0,0.7,0,1.3,0,2C69.3,90.4,69.7,90.7,70,91.1z
		 M131,85.1c-0.3,0.3-0.7,0.7-1,1c0,0.3,0,0.7,0,1c-1.4,1-1.4,2,0,3c0.3,0.3,0.7,0.7,1,1c1.3,1.4,2.7,1.4,4,0c-0.3-0.3-0.7-0.7-1-1
		c-0.7,0-1.3,0-2,0c-0.3-0.2-0.6-0.3-2-1c2.4,0,3.7,0,5,0c1.4-1,1.4-2,0-3c-0.3-0.3-0.7-0.7-1-1C133,85.1,132,85.1,131,85.1z
		 M77,91.1c1.3,1.4,2.7,1.4,4,0c0.3-0.3,0.7-0.7,1-1c1.4-1,1.4-2,0-3c0-0.3,0-0.7,0-1c-0.3-0.3-0.7-0.7-1-1c-1.9,0.2-4.2-0.8-5,2
		c-0.3,0.3-0.7,0.5-1,0.8c0.3,0.4,0.7,0.8,1,1.2c0,0.3,0,0.7,0,1C76.3,90.4,76.7,90.7,77,91.1z M127,85.1c-1.3,0-2.5-0.1-3.8,0
		c-0.4,0-0.8,0.6-1.2,1c-0.3,0.2-0.9,0.4-1,0.7c-0.3,1.5,0,3,1,4.3c0,0.7,0,1.3,0,2c1.6,1.4,3.4,1.4,5,0c0.3-0.3,0.9-0.5,1-0.8
		c0.1-2.1,0.1-4.3,0-6.4C127.9,85.6,127.3,85.3,127,85.1z M143,86.1c-0.3-0.3-0.5-0.9-0.8-1c-1.7,0-3.5,0.1-5.1,0.1
		c0,2.5,0,4.6,0,7.3c0.9-0.7,1.4-1.1,1.8-1.5c0-1.3,0-2.7,0-4c0.5-0.3,1-0.6,1.5-0.9c0.5,0.3,1,0.6,1.5,0.9c0.2,1.6-0.3,3.3,1,4.8
		C143,90,143,88,143,86.1z M86,90.1c0-2.6,0-5.2,0-7.9c-0.8,0-1.2,0-2,0c0,3,0,6,0,8.9c0.6,1.9,1.8,0.8,3.4,0.7
		C86.8,91,86.4,90.5,86,90.1z M112.3,24.1c-3.5,0-7.3,0-11.2,0c-1,0-2,0-2.9,0.3c-3.9,1.3-7.5,3.1-10.4,6.3
		c-7.1,7.7-8.6,16.6-5.4,26.1c1.8,5.4,5.7,9.6,11,12.3c6.2,3.2,10,3.4,17.4,2.1c7.6-1.3,12.3-6,15.7-12.2c3.3-6,3.7-12.6,1.4-19
		c-2.3-6.2-5.9-11.6-12.6-14.1C114.3,25.5,113.4,24.8,112.3,24.1z"/>
	<path class="st1" d="M112.3,24.1c1.2,0.7,2.1,1.4,3.1,1.8c6.6,2.6,10.3,8,12.6,14.1c2.3,6.3,1.9,13-1.4,19
		c-3.4,6.2-8.1,10.9-15.7,12.2c-7.3,1.3-11.2,1.1-17.4-2.1c-5.3-2.7-9.2-7-11-12.3c-3.2-9.5-1.7-18.4,5.4-26.1
		c2.9-3.2,6.5-5,10.4-6.3c0.9-0.3,1.9-0.3,2.9-0.3C104.9,24.1,108.7,24.1,112.3,24.1z M114,65.1c-1.2,0-1.3,1-0.9,1.5
		c0.7,0.8,1.6,0.9,1.9-0.5c9.1-4.8,11.9-12.8,10.9-22.3c-0.5-1-0.9-1.8-1.5-2.9c-3.2,7.3-6.3,14.5-9.5,21.5
		C114.5,63.3,113.8,64,114,65.1z M103,48.1c1,0,2,0,3,0c1.8,3.6,3.7,7.3,5.6,11.2c3.6-7.8,7.1-15.3,10.5-22.5
		c-0.7-4.8-4.9-5.4-7.7-7.7c-2.5,6-4.9,11.6-7.3,17.2c-0.1,0.3-0.6,0.5-1,0.8c-1,0-2,0-3,0c-2.5-6.1-5.1-12.2-8.1-18
		c-1.9,0.8-2.6,2.5-4.4,3.2c-1.8,0.7-2.8,3.1-2.5,5.3c0.2,1.3,1.1,2.5,1.7,3.8c2.1,4.6,4.2,9.2,6.3,13.8c0.6,1.3,1,2.6,1.7,4.5
		C99.5,55.5,102.1,52.2,103,48.1z M84.2,43.4c-1,6.9,0.3,13,4.7,18.1c1.8,2.1,3.7,4.4,7.3,4.6c-3.6-8.2-7.1-16.1-10.6-24.1
		C85,42.6,84.7,42.9,84.2,43.4z M111,67.5c-3.1-3.6-3.3-8.8-6.3-12.4c-1.9,4.4-3.8,8.5-5.5,12.5C103.1,69.6,106.9,69.5,111,67.5z
		 M104.5,40.1c2.9-4,5.2-10,5.1-13c-1.8,0-3.6,0-5.4,0c-1.8,0-3.5,0.1-5.5,0.1C100.8,31.7,102.6,35.8,104.5,40.1z"/>
	<path class="st2" d="M68,87.1c0-0.3,0-0.7,0-1c-0.2-0.8,0.5-1.9-1-2c0.2-0.8-0.5-1.9,1-2c0.3,0.3,0.7,0.7,1,1c0,0.7,0,1.3,0,2
		c0.3,0.3,0.7,0.7,1,1c0,0.7,0,1.3,0,2c0.3,0.3,0.5,0.7,0.8,1c0.4-0.3,0.8-0.7,1.2-1c0.4-2,0.8-3.9,1.2-5.9c0.6,0,1,0,1.7,0
		c0.6,3-1.9,5.2-1.9,7.9c-0.3,0.3-0.7,0.7-1,1c-0.7,0-1.3,0-2,0c-0.3-0.3-0.7-0.7-1-1c0-0.7,0-1.3,0-2C68.7,87.7,68.3,87.4,68,87.1z
		"/>
	<path class="st3" d="M122,91.1c-0.9-1.3-1.3-2.7-1-4.3c0.1-0.3,0.6-0.5,1-0.7c0.3,0.3,0.7,0.7,1,1c0,0.3,0,0.7,0,1s0,0.7,0,1
		c0.3,0.3,0.7,0.7,1,1c0.6,0,1.2,0,2,0c0-1.2,0-2.1,0-3c0.3-0.3,0.7-0.7,1-1c0,2.3,0,4.7,0,7c-1.6,1.4-3.4,1.4-5,0c0.7,0,1.3,0,2,0
		c0.8-0.2,1.9,0.5,2-1c-0.5-1.9-2-0.6-3-1C122.7,91.1,122.3,91.1,122,91.1z"/>
	<path class="st4" d="M100,88.1c0.4,0.6,0.7,1.3,1.2,2.2c-0.5,0.5-1,1-1.7,1.8c-1.1,0-2.3,0-3.5,0c-0.3-0.3-0.7-0.7-1-1
		c0.5-1.9,2-0.6,3-1c0.3-0.1,0.6-0.2,0.8-0.3c-0.3-0.2-0.6-0.4-0.8-0.7c-0.3,0-0.7,0-1,0c-0.3-0.3-0.7-0.7-1-1c0-0.7,0-1.3,0-2
		c0.4-0.3,0.7-0.9,1.2-1c0.9-0.1,1.9,0,2.8,0c0,0.3,0,0.7,0,1c-0.7,0-1.3,0-2,0c-0.3,0.1-0.6,0.2-0.8,0.3c0.3,0.2,0.6,0.4,0.8,0.7
		c0.3,0.3,0.7,0.7,1,1C99.3,88.1,99.7,88.1,100,88.1z"/>
	<path class="st5" d="M90,89.1c0,0.9,0,1.9,0,2.9c-0.8,0-1.2,0-1.8,0c0-3.3,0-6.5,0-9.8c0.6,0,1.1,0,1.8,0c0,1.7,0,3.3,0,4.9
		C90,87.7,90,88.4,90,89.1z"/>
	<path class="st6" d="M119,86.1c0,0.3,0,0.7,0,1c0,0.9,0.1,1.9,0,2.8c-0.1,0.4-0.6,0.8-1,1.2c-3.4,1.7-4.2,1.4-5-2
		c0.3-0.3,0.7-0.7,1-1c0.3,0,0.7,0,1,0s0.7,0,1,0c0,0.3,0,0.7,0,1c-0.3,0.1-0.6,0.2-0.8,0.3c0.3,0.2,0.6,0.4,0.8,0.7
		c0.3,0,0.7,0,1,0c0.3-0.1,0.6-0.2,0.8-0.3c-0.3-0.2-0.6-0.4-0.8-0.7c0-0.3,0-0.7,0-1c1.5-0.1,0.8-1.2,1-2
		C118.3,86.1,118.7,86.1,119,86.1z"/>
	<path class="st1" d="M84,91.1c0-2.9,0-5.9,0-8.9c0.8,0,1.2,0,2,0c0,2.7,0,5.3,0,7.9C85.9,91.6,84.8,90.9,84,91.1z"/>
	<path class="st7" d="M111,90.1c0,0.3,0,0.7,0,1c-0.7,0-1.3,0-2,0c-0.3-0.4-0.8-0.8-1-1.3c-0.2-0.7,0.3-1.7-1-1.7c-0.3,0-0.7,0-1,0
		s-0.7,0-1,0c0.5-1,1-2.1,1.5-3c2.8,0.1,2.2,2.4,2.8,3.9c0.2-0.1,0.5-0.2,0.7-0.4c0.1-0.1,0-0.3,0-0.5c0.3,0,0.7,0,1,0
		C111,88.7,111,89.4,111,90.1z"/>
	<path class="st5" d="M76,87.1c0.8-2.8,3.1-1.8,5-2c0.3,0.3,0.7,0.7,1,1c0,0.3,0,0.7,0,1c0,1,0,2,0,3c-0.3,0.3-0.7,0.7-1,1
		c0-0.3,0-0.7,0-1s0-0.7,0-1s0-0.7,0-1c-0.3-0.3-0.7-0.7-1-1c-0.3-0.3-0.5-0.7-0.8-1c-0.4,0.3-0.8,0.7-1.2,1c-1.9,0.5-0.6,2-1,3
		c-0.3,0-0.7,0-1,0c0-0.3,0-0.7,0-1C76,88.4,76,87.7,76,87.1z"/>
	<path class="st8" d="M142,87.1c-0.5-0.3-1-0.6-1.5-0.9c-0.5,0.3-1,0.6-1.5,0.9c-0.2-0.3-0.3-0.6-0.5-1c-0.3,0.3-0.5,0.4-0.5,0.5
		c0.4,1.5-1,3.4,1,4.5c-0.5,0.4-1,0.8-1.8,1.5c0-2.7,0-4.8,0-7.3c1.6,0,3.3-0.1,5.1-0.1c0.3,0,0.5,0.6,0.8,1
		C142.7,86.4,142.3,86.7,142,87.1z"/>
	<path class="st9" d="M131,91.1c-0.3-0.3-0.7-0.7-1-1c0-1,0-2,0-3c0-0.3,0-0.7,0-1c0.3,0,0.7,0,1,0c0,0.3,0,0.7,0,1
		c0.7,1.8,1.9,0.9,3,0.6c0-0.6,0-1.1,0-1.6c0-0.3,0-0.7,0-1c0.3,0.3,0.7,0.7,1,1c0,1,0,2,0,3c-1.3,0-2.5,0-5,0c1.4,0.7,1.7,0.8,2,1
		C131.7,90.4,131.3,90.7,131,91.1z"/>
	<path class="st10" d="M90,89.1c0-0.7,0-1.3,0-2c0.7-0.5,1.4-1.1,2.1-1.6c0.9-0.6,1.6-0.8,1.9,0.6c-0.3,0.3-0.7,0.7-1,1
		c-0.3,0.3-0.7,0.5-1,0.8c0.3,0.4,0.7,0.8,1,1.2c0,0.3,0,0.7,0,1c-0.3,0-0.7,0-1,0s-0.7,0-1,0C90.7,89.7,90.3,89.4,90,89.1z"/>
	<path class="st9" d="M127,93.1c0-2.3,0-4.7,0-7c0-0.3,0-0.7,0-1c0.3,0.3,0.9,0.5,1,0.8c0.1,2.1,0.1,4.3,0,6.4
		C127.9,92.6,127.3,92.8,127,93.1z"/>
	<path class="st11" d="M105,88.1c0.3,0,0.7,0,1,0c0,0.3,0,0.7,0,1c0,0.7,0,1.3,0,2c-1-0.3-2-0.7-3-1c0-0.3,0-0.7,0-1
		c0-0.7,0-1.3,0-2c0.3,0,0.7,0,1,0c0,0.3,0,0.7,0,1c0.1,0.3,0.2,0.6,0.3,0.8C104.6,88.6,104.8,88.4,105,88.1z"/>
	<path class="st11" d="M81,91.1c-1.3,1.4-2.7,1.4-4,0c0-0.3,0-0.7,0-1c0.3,0,0.7,0,1,0c0.7,0,1.3,0,2,0C80.3,90.4,80.7,90.7,81,91.1
		z"/>
	<path class="st12" d="M127,85.1c0,0.3,0,0.7,0,1c-0.3,0.3-0.7,0.7-1,1c-0.3,0-0.7,0-1,0c-0.1-0.3-0.2-0.6-0.3-0.8
		c-0.2,0.3-0.4,0.6-0.7,0.8c-0.3,0-0.7,0-1,0c-0.3-0.3-0.7-0.7-1-1c0.4-0.3,0.8-0.9,1.2-1C124.5,85,125.7,85.1,127,85.1z"/>
	<path class="st4" d="M131,91.1c0.3-0.3,0.7-0.7,1-1c0.7,0,1.3,0,2,0c0.3,0.3,0.7,0.7,1,1C133.7,92.4,132.3,92.4,131,91.1z"/>
	<path class="st13" d="M142,87.1c0.3-0.3,0.7-0.7,1-1c0,1.9,0,3.9,0,5.8C141.7,90.4,142.2,88.7,142,87.1z"/>
	<path class="st14" d="M118,91.1c0.3-0.4,0.9-0.7,1-1.2c0.1-0.9,0-1.9,0-2.8c0.3,0.2,0.9,0.5,1,0.7c0.1,1.3,0,2.5,0,3.8
		C119.1,92.3,118.3,92.6,118,91.1z"/>
	<path class="st15" d="M100,88.1c-0.3,0-0.7,0-1,0c-0.3-0.3-0.7-0.7-1-1c0-0.3,0-0.7,0-1c0.7,0,1.3,0,2,0c0.3-0.3,0.7-0.7,1-1
		c0.3,0,0.7,0,1,0c0,0.7,0,1.3,0,2C101.2,87.2,100.1,86.6,100,88.1z"/>
	<path class="st11" d="M139,91.1c-2-1.1-0.6-3-1-4.5c0-0.1,0.2-0.2,0.5-0.5c0.2,0.4,0.3,0.7,0.5,1C139,88.4,139,89.7,139,91.1z"/>
	<path class="st8" d="M114,85.1c1.3,0,2.7,0,4,0c0,0.3,0,0.7,0,1c-0.3,0-0.7,0-1,0s-0.7,0-1,0c-0.7,0-1.3,0-2,0
		C114,85.7,114,85.4,114,85.1z"/>
	<path class="st16" d="M111,88.1c-0.3,0-0.7,0-1,0c0-0.3,0-0.7,0-1c0.3-0.3,0.7-0.7,1-1c0.3-0.3,0.7-0.7,1-1c0,0.3,0,0.7,0,1
		s0,0.7,0,1s0,0.7,0,1C111.7,88.1,111.3,88.1,111,88.1z"/>
	<path class="st17" d="M84,91.1c0.8-0.2,1.9,0.5,2-1c0.4,0.5,0.8,0.9,1.4,1.7C85.8,91.9,84.6,92.9,84,91.1z"/>
	<path class="st4" d="M103,90.1c1,0.3,2,0.7,3,1c-0.4,1.9-1.7,0.8-3,0.8C103,91.3,103,90.7,103,90.1z"/>
	<path class="st18" d="M114,86.1c0.7,0,1.3,0,2,0c0.3,0.3,0.7,0.7,1,1c0,0.3,0,0.7,0,1c-0.3,0-0.7,0-1,0s-0.7,0-1,0
		c-0.3-0.3-0.7-0.7-1-1C114,86.7,114,86.4,114,86.1z"/>
	<path class="st17" d="M82,90.1c0-1,0-2,0-3C83.4,88.1,83.4,89.1,82,90.1z"/>
	<path class="st4" d="M130,87.1c0,1,0,2,0,3C128.6,89.1,128.6,88.1,130,87.1z"/>
	<path class="st4" d="M135,89.1c0-1,0-2,0-3C136.4,87.1,136.4,88.1,135,89.1z"/>
	<path class="st19" d="M124,93.1c-0.7,0-1.3,0-2,0c0-0.7,0-1.3,0-2c0.3,0,0.7,0,1,0c0.3,0.3,0.7,0.7,1,1C124,92.4,124,92.7,124,93.1
		z"/>
	<path class="st11" d="M134,85.1c0,0.3,0,0.7,0,1c-0.3,0-0.7,0-1,0s-0.7,0-1,0s-0.7,0-1,0c0-0.3,0-0.7,0-1
		C132,85.1,133,85.1,134,85.1z"/>
	<path class="st14" d="M111,88.1c0.3,0,0.7,0,1,0c-0.2,0.8,0.5,1.9-1,2C111,89.4,111,88.7,111,88.1z"/>
	<path class="st20" d="M72,88.1c-0.4,0.3-0.8,0.7-1.2,1c-0.3-0.3-0.5-0.7-0.8-1C70.7,88.1,71.3,88.1,72,88.1z"/>
	<path class="st11" d="M102,87.1c0-0.7,0-1.3,0-2c0.3,0,0.7,0,1,0c0,0.7,0,1.3,0,2C102.7,87.1,102.3,87.1,102,87.1z"/>
	<path class="st4" d="M103,87.1c0-0.7,0-1.3,0-2c1.5,0.1,0.8,1.2,1,2C103.7,87.1,103.3,87.1,103,87.1z"/>
	<path class="st4" d="M102,87.1c0.3,0,0.7,0,1,0c0,0.7,0,1.3,0,2C101.5,89,102.2,87.8,102,87.1z"/>
	<path class="st16" d="M67,84.1c1.5,0.1,0.8,1.2,1,2C66.5,86,67.2,84.8,67,84.1z"/>
	<path class="st21" d="M93,89.1c-0.3-0.4-0.7-0.8-1-1.2c0.3-0.3,0.7-0.5,1-0.8C93,87.7,93,88.4,93,89.1z"/>
	<path class="st22" d="M76,87.1c0,0.7,0,1.3,0,2c-0.3-0.4-0.7-0.8-1-1.2C75.3,87.6,75.7,87.3,76,87.1z"/>
	<path class="st23" d="M96,86.1c0,0.7,0,1.3,0,2c-0.3-0.4-0.7-0.8-1-1.2C95.3,86.6,95.7,86.3,96,86.1z"/>
	<path class="st20" d="M70,91.1c0.7,0,1.3,0,2,0c-0.4,0.3-0.8,0.7-1.2,1C70.5,91.7,70.3,91.4,70,91.1z"/>
	<path class="st24" d="M94,92.1c-0.8-0.2-1.9,0.5-2-1c0.3,0,0.7,0,1,0s0.7,0,1,0C94,91.4,94,91.7,94,92.1z"/>
	<path class="st21" d="M94,92.1c0-0.3,0-0.7,0-1c0.3,0,0.7,0,1,0c0.3,0.3,0.7,0.7,1,1C95.3,92.1,94.7,92.1,94,92.1z"/>
	<path class="st16" d="M109,91.1c0.7,0,1.3,0,2,0c-0.4,0.3-0.8,0.7-1.2,1C109.5,91.7,109.3,91.4,109,91.1z"/>
	<path class="st25" d="M98,89.1c0.3,0.2,0.6,0.4,0.8,0.7c-0.3,0.1-0.6,0.2-0.8,0.3C98,89.7,98,89.4,98,89.1z"/>
	<path class="st16" d="M69,90.1c0.3,0.3,0.7,0.7,1,1C69.7,90.7,69.3,90.4,69,90.1z"/>
	<path class="st20" d="M72,91.1c0.3-0.3,0.7-0.7,1-1C72.7,90.4,72.3,90.7,72,91.1z"/>
	<path class="st22" d="M77,90.1c0,0.3,0,0.7,0,1c-0.3-0.3-0.7-0.7-1-1C76.3,90.1,76.7,90.1,77,90.1z"/>
	<path class="st16" d="M70,86.1c-0.3-0.3-0.7-0.7-1-1C69.3,85.4,69.7,85.7,70,86.1z"/>
	<path class="st21" d="M91,90.1c0.3,0,0.7,0,1,0c0,0.3,0,0.7,0,1C91.7,90.7,91.3,90.4,91,90.1z"/>
	<path class="st17" d="M94,91.1c-0.3,0-0.7,0-1,0c0-0.3,0-0.7,0-1C93.3,90.4,93.7,90.7,94,91.1z"/>
	<path class="st13" d="M135,91.1c-0.3-0.3-0.7-0.7-1-1C134.3,90.4,134.7,90.7,135,91.1z"/>
	<path class="st16" d="M69,83.1c-0.3-0.3-0.7-0.7-1-1C68.3,82.4,68.7,82.7,69,83.1z"/>
	<path class="st25" d="M112,87.1c0-0.3,0-0.7,0-1c0.3,0,0.7,0,1,0C112.7,86.4,112.3,86.7,112,87.1z"/>
	<path class="st14" d="M111,86.1c-0.3,0.3-0.7,0.7-1,1C110.3,86.7,110.7,86.4,111,86.1z"/>
	<path class="st21" d="M93,87.1c0.3-0.3,0.7-0.7,1-1C93.7,86.4,93.3,86.7,93,87.1z"/>
	<path class="st4" d="M131,85.1c0,0.3,0,0.7,0,1c-0.3,0-0.7,0-1,0C130.3,85.7,130.7,85.4,131,85.1z"/>
	<path class="st16" d="M68,87.1c0.3,0.3,0.7,0.7,1,1C68.7,87.7,68.3,87.4,68,87.1z"/>
	<path class="st14" d="M118,86.1c0-0.3,0-0.7,0-1c0.3,0.3,0.7,0.7,1,1C118.7,86.1,118.3,86.1,118,86.1z"/>
	<path class="st25" d="M114,85.1c0,0.3,0,0.7,0,1c-0.3,0-0.7,0-1,0c0-0.3,0-0.7,0-1C113.3,85.1,113.7,85.1,114,85.1z"/>
	<path class="st25" d="M114,87.1c0.3,0.3,0.7,0.7,1,1c-0.3,0-0.7,0-1,0C114,87.7,114,87.4,114,87.1z"/>
	<path class="st14" d="M113,85.1c0,0.3,0,0.7,0,1c-0.3,0-0.7,0-1,0c0-0.3,0-0.7,0-1C112.3,85.1,112.7,85.1,113,85.1z"/>
	<path class="st23" d="M96,88.1c0.3,0.3,0.7,0.7,1,1C96.7,88.7,96.3,88.4,96,88.1z"/>
	<path class="st4" d="M105,88.1c-0.2,0.3-0.4,0.6-0.7,0.8c-0.1-0.3-0.2-0.6-0.3-0.8C104.3,88.1,104.7,88.1,105,88.1z"/>
	<path class="st23" d="M101,85.1c-0.3,0.3-0.7,0.7-1,1c0-0.3,0-0.7,0-1C100.3,85.1,100.7,85.1,101,85.1z"/>
	<path class="st4" d="M106,89.1c0-0.3,0-0.7,0-1c0.3,0,0.7,0,1,0C106.7,88.4,106.3,88.7,106,89.1z"/>
	<path class="st17" d="M82,86.1c-0.3-0.3-0.7-0.7-1-1C81.3,85.4,81.7,85.7,82,86.1z"/>
	<path class="st25" d="M114,88.1c-0.3,0.3-0.7,0.7-1,1C113.3,88.7,113.7,88.4,114,88.1z"/>
	<path class="st26" d="M106,47.1c0.3-0.3,0.8-0.5,1-0.8c2.4-5.6,4.8-11.3,7.3-17.2c2.9,2.3,7,2.8,7.7,7.7
		c-3.4,7.3-6.9,14.8-10.5,22.5c-1.9-3.9-3.8-7.5-5.6-11.2C106,47.7,106,47.4,106,47.1z"/>
	<path class="st26" d="M103,48.1c-0.9,4.1-3.5,7.4-5.3,11.5c-0.7-1.9-1.1-3.2-1.7-4.5c-2.1-4.6-4.2-9.2-6.3-13.8
		c-0.6-1.3-1.5-2.5-1.7-3.8c-0.3-2.2,0.6-4.5,2.5-5.3c1.8-0.7,2.5-2.4,4.4-3.2c3,5.8,5.6,11.9,8.1,18C103,47.4,103,47.7,103,48.1z"
		/>
	<path class="st27" d="M114,65.1c-0.2-1.1,0.5-1.7,0.9-2.6c3.2-7.1,6.3-14.3,9.5-21.5c0.5,1.1,1,1.9,1.5,2.9
		c1,9.5-1.8,17.4-10.9,22.3C114.7,65.7,114.3,65.4,114,65.1z"/>
	<path class="st27" d="M84.2,43.4c0.4-0.4,0.8-0.8,1.4-1.4c3.5,8,7,15.8,10.6,24.1c-3.6-0.2-5.5-2.5-7.3-4.6
		C84.5,56.3,83.2,50.2,84.2,43.4z"/>
	<path class="st28" d="M111,67.5c-4.1,2-7.9,2.1-11.8,0c1.7-3.9,3.6-8.1,5.5-12.5C107.7,58.7,107.9,63.9,111,67.5z"/>
	<path class="st29" d="M104.5,40.1c-1.9-4.3-3.8-8.4-5.7-12.9c1.9-0.1,3.7-0.1,5.5-0.1c1.8,0,3.6,0,5.4,0
		C109.8,30.1,107.4,36.1,104.5,40.1z"/>
	<path class="st30" d="M103,48.1c0-0.3,0-0.7,0-1c1,0,2,0,3,0c0,0.3,0,0.7,0,1C105,48.1,104,48.1,103,48.1z"/>
	<path class="st31" d="M115,66.1c-0.3,1.4-1.2,1.3-1.9,0.5c-0.4-0.5-0.3-1.5,0.9-1.5C114.3,65.4,114.7,65.7,115,66.1z"/>
	<path class="st32" d="M125,87.1c0.3,0,0.7,0,1,0c0,0.9,0,1.8,0,3c-0.8,0-1.4,0-2,0c-0.3-0.3-0.7-0.7-1-1c0-0.3,0-0.7,0-1
		c0.3-0.3,0.7-0.7,1-1C124.3,87.1,124.7,87.1,125,87.1z"/>
	<path class="st9" d="M124,92.1c-0.3-0.3-0.7-0.7-1-1c1,0.4,2.5-0.9,3,1C125.3,92.1,124.7,92.1,124,92.1z"/>
	<path class="st0" d="M124,92.1c0.7,0,1.3,0,2,0c-0.1,1.5-1.2,0.8-2,1C124,92.7,124,92.4,124,92.1z"/>
	<path class="st33" d="M123,89.1c0.3,0.3,0.7,0.7,1,1C123.7,89.7,123.3,89.4,123,89.1z"/>
	<path class="st33" d="M124,87.1c-0.3,0.3-0.7,0.7-1,1c0-0.3,0-0.7,0-1C123.3,87.1,123.7,87.1,124,87.1z"/>
	<path class="st34" d="M98,86.1c0,0.3,0,0.7,0,1c-0.3-0.2-0.6-0.4-0.8-0.7C97.4,86.3,97.7,86.2,98,86.1z"/>
	<path class="st23" d="M98,87.1c0.3,0.3,0.7,0.7,1,1C98.7,87.7,98.3,87.4,98,87.1z"/>
	<path class="st14" d="M117,88.1c0-0.3,0-0.7,0-1s0-0.7,0-1c0.3,0,0.7,0,1,0C117.8,86.8,118.5,88,117,88.1z"/>
	<path class="st0" d="M116,90.1c-0.3-0.2-0.6-0.4-0.8-0.7c0.3-0.1,0.6-0.2,0.8-0.3C116,89.4,116,89.7,116,90.1z"/>
	<path class="st0" d="M116,90.1c0-0.3,0-0.7,0-1c0.3,0,0.7,0,1,0c0,0.3,0,0.7,0,1C116.7,90.1,116.3,90.1,116,90.1z"/>
	<path class="st14" d="M117,90.1c0-0.3,0-0.7,0-1c0.3,0.2,0.6,0.4,0.8,0.7C117.6,89.9,117.3,90,117,90.1z"/>
	<path class="st14" d="M117,89.1c-0.3,0-0.7,0-1,0c0-0.3,0-0.7,0-1c0.3,0,0.7,0,1,0C117,88.4,117,88.7,117,89.1z"/>
	<path class="st35" d="M80,90.1c-0.7,0-1.3,0-2,0c0-1,0-2,0-3c0.4-0.3,0.8-0.7,1.2-1c0.3,0.3,0.5,0.7,0.8,1c0.3,0.3,0.7,0.7,1,1
		c0,0.3,0,0.7,0,1C80.7,89.4,80.3,89.7,80,90.1z"/>
	<path class="st22" d="M78,87.1c0,1,0,2,0,3c-0.3,0-0.7,0-1,0C77.4,89.1,76.1,87.5,78,87.1z"/>
	<path class="st11" d="M81,91.1c-0.3-0.3-0.7-0.7-1-1c0.3,0,0.7,0,1,0C81,90.4,81,90.7,81,91.1z"/>
	<path class="st17" d="M81,88.1c-0.3-0.3-0.7-0.7-1-1C80.3,87.4,80.7,87.7,81,88.1z"/>
	<path class="st17" d="M81,90.1c-0.3,0-0.7,0-1,0c0.3-0.3,0.7-0.7,1-1C81,89.4,81,89.7,81,90.1z"/>
	<path class="st18" d="M133,86.1c0.3,0,0.7,0,1,0c0,0.5,0,1,0,1.6c-1.1,0.3-2.3,1.3-3-0.6c0.3,0,0.7,0,1,0
		C132.3,86.7,132.7,86.4,133,86.1z"/>
	<path class="st4" d="M132,87.1c-0.3,0-0.7,0-1,0c0-0.3,0-0.7,0-1c0.3,0,0.7,0,1,0C132,86.4,132,86.7,132,87.1z"/>
	<path class="st11" d="M93,90.1c0,0.3,0,0.7,0,1c-0.3,0-0.7,0-1,0c0-0.3,0-0.7,0-1C92.3,90.1,92.7,90.1,93,90.1z"/>
	<path class="st33" d="M125,87.1c-0.3,0-0.7,0-1,0c0.2-0.3,0.4-0.6,0.7-0.8C124.8,86.5,124.9,86.8,125,87.1z"/>
	<path class="st21" d="M117,86.1c0,0.3,0,0.7,0,1c-0.3-0.3-0.7-0.7-1-1C116.3,86.1,116.7,86.1,117,86.1z"/>
	<path class="st36" d="M132,87.1c0-0.3,0-0.7,0-1c0.3,0,0.7,0,1,0C132.7,86.4,132.3,86.7,132,87.1z"/>
	<path class="st0" d="M115,66.1c-0.3-0.3-0.7-0.7-1-1C114.3,65.4,114.7,65.7,115,66.1z"/>
</g>
</svg>
