<?xml version="1.0" encoding="utf-8"?>
<!-- Generator: Adobe Illustrator 19.0.0, SVG Export Plug-In . SVG Version: 6.00 Build 0)  -->
<svg version="1.1" id="Warstwa_1" xmlns="http://www.w3.org/2000/svg" xmlns:xlink="http://www.w3.org/1999/xlink" x="0px" y="0px"
	 viewBox="0 0 210.1 120.1" style="enable-background:new 0 0 210.1 120.1;" xml:space="preserve">
<style type="text/css">
	.st0{fill:#FEFEFE;}
	.st1{fill:#9F9F9F;}
	.st2{fill:#F3F3F3;}
	.st3{fill:#FAFAFA;}
	.st4{fill:#EBEBEB;}
</style>
<g>
	<path class="st0" d="M-1.4,120.1c0-40.3,0-80.7,0-121c70,0,140,0,210,0c0,40.3,0,80.7,0,121C138.6,120.1,68.6,120.1-1.4,120.1z
		 M69.5,70c1.1-7.5,3.4-14.4,4.2-21.8c-2.8,0-5.3,0-7.8,0c-0.4,0.7-0.8,1.5-1.2,2.3c-0.5,3.9-1,7.6-1.6,12.1
		c-0.7-0.9-1.2-1.5-1.1-1.5c-1-4.8-1.9-8.9-2.7-12.8c-4.2,0-8,0-11.6,0c-0.8,4.2-2.3,8.1-2.3,12.3c0,0.5-0.9,1-1.6,1.7
		c-0.7-5.1-0.8-9.8-2.5-14c-2.8,0-5.2,0-8.2,0c1.6,7.5,3.1,14.6,4.6,21.7c4.7,0,9.2,0,13.7,0c0.5-3.2,1-6.4,1.5-9.7
		c0.3-0.2,0.7-0.7,1.2-1.2c0.5,3.7,1,7.3,1.6,10.9C60.3,70,64.8,70,69.5,70z M100.7,48.2c0,7.5,0,14.6,0,21.8c6.9,0,13.7,0,20.1,0
		c1.1-1,2-1.7,2.7-2.3c0-2.6,0-4.9,0-7c-0.8-1-1.5-1.8-2.1-2.5c0.9-0.9,1.6-1.6,2-2c0-2.7,0-4.8,0-6.7c-0.5-0.5-0.9-0.9-1.3-1.3
		C115.1,48.2,108,48.2,100.7,48.2z M151.9,48.1c-1.9,2.1-2.6,4.1-2.4,6.5c0.2,2.5,0.2,5,0,7.5c-0.3,3.4,1.1,5.9,3.1,7.6
		c6.5,1.9,12.5,1.9,18.6,0.1c0.7-0.6,1.5-1.4,2.3-2.2c0-5.7,0-11.4,0-17c-0.8-0.8-1.6-1.6-2.8-2.8c-2.8-0.2-6-0.2-9.2-0.7
		C158.2,46.5,155.2,48.1,151.9,48.1z M98.4,70.1c0.6-4.1-1.7-7.4-2.8-11c-1.1-3.7-2.1-7.4-3-10.7c-5,0-9.5,0-13.6,0
		c-2.2,7.3-4.3,14.4-6.4,21.7c3.1,0,5.9,0,8.9,0c0.5-0.8,1.1-1.8,1.7-2.8c1.7,0,3.5,0,5.3,0c0.6,1,1.1,1.9,1.7,2.9
		C92.7,70.1,95.4,70.1,98.4,70.1z M128,70c2.6,0.3,5.5,0.6,8.3,1.1c3.2,0.5,5.9-1.2,8.2-1.2c1.4-1,2.4-1.7,3.1-2.3
		c-0.1-2.1-0.2-3.9-0.3-5.4c-3.1,0-5.9,0-8.6,0c-0.6,2.9-1.1,3.8-2.6,3.8c-0.3-0.5-0.8-1.2-1.4-2c0-3.6,0-7.7,0-11.8
		c0.8-0.5,1.4-1,2.5-1.7c0.7,1.8,1.3,3.1,1.8,4.4c3.1,0,6.3,0,9.7,0c-1.2-2.6-1.2-5.5-2.7-6.2c-6.8-1.7-12.3-2.4-18.6,0.1
		c-0.1,0.1-1.1,0.8-1.7,1.7c-0.5,0.9,0.2,2.3-1.1,3c1,0.7,0.5,1.3,0,2.2c-0.5,0.9,0,2.1,0.8,3c-1.2,0.8-1.3,2.2-0.7,3
		c1.3,1.5,0.5,3.1,0.8,4.7c0.1,0.5,0.1,0.9,0.1,1.3C126.4,68.5,127.2,69.2,128,70z"/>
	<path class="st1" d="M69.5,70c-4.7,0-9.2,0-13.8,0c-0.5-3.7-1-7.3-1.6-10.9c-0.5,0.5-1,0.9-1.2,1.2c-0.5,3.3-1,6.5-1.5,9.7
		c-4.5,0-9,0-13.7,0c-1.5-7-3-14.2-4.6-21.7c3,0,5.4,0,8.2,0c1.7,4.2,1.8,8.9,2.5,14c0.7-0.7,1.6-1.2,1.6-1.7
		c0-4.2,1.5-8.1,2.3-12.3c3.6,0,7.4,0,11.6,0c0.8,3.8,1.7,8,2.7,12.8c0-0.1,0.4,0.6,1.1,1.5c0.6-4.4,1.1-8.2,1.6-12.1
		c0.4-0.7,0.8-1.5,1.2-2.3c2.5,0,5,0,7.8,0C72.9,55.6,70.6,62.5,69.5,70z"/>
	<path class="st1" d="M100.7,48.2c7.3,0,14.4,0,21.4,0c0.4,0.4,0.8,0.8,1.3,1.3c0,2,0,4.1,0,6.7c-0.4,0.4-1.1,1.1-2,2
		c0.6,0.7,1.3,1.6,2.1,2.5c0,2.1,0,4.4,0,7c-0.7,0.6-1.6,1.3-2.7,2.3c-6.4,0-13.1,0-20.1,0C100.7,62.8,100.7,55.7,100.7,48.2z
		 M109.7,65.7c1.6,1,2.8,0.2,3.7-1c0-1.4,0-2.5,0-3.6c-1.3,0-2.4,0-3.7,0C109.7,62.7,109.7,64.1,109.7,65.7z M109.7,52.2
		c0,1.5,0,2.7,0,3.9c1.4-0.1,2.6-0.1,3.7-0.2c0-1.5,0-2.6,0-3.8C112.1,52.2,111,52.2,109.7,52.2z"/>
	<path class="st1" d="M151.9,48.1c3.3,0,6.3-1.6,9.6-1.1c3.2,0.5,6.4,0.5,9.2,0.7c1.2,1.2,2,2,2.8,2.8c0,5.6,0,11.3,0,17
		c-0.8,0.7-1.6,1.5-2.3,2.2c-6.1,1.8-12.2,1.8-18.6-0.1c-2-1.7-3.4-4.2-3.1-7.6c0.2-2.5,0.2-5,0-7.5
		C149.4,52.2,150.1,50.2,151.9,48.1z M159.8,51.1c-1.8,5.1-2.5,10.1,1.2,15.4c1.3-0.6,2.5-1.1,3.5-1.5c0-4.5,0-8.5,0-12.4
		c-0.5-0.5-1-1-1.4-1.5C162,51.1,161,51.1,159.8,51.1z"/>
	<path class="st1" d="M98.4,70.1c-3,0-5.6,0-8.3,0c-0.5-0.9-1.1-1.9-1.7-2.9c-1.9,0-3.7,0-5.3,0c-0.6,1-1.2,1.9-1.7,2.8
		c-3,0-5.8,0-8.9,0c2.2-7.3,4.3-14.3,6.4-21.7c4.1,0,8.6,0,13.6,0c0.9,3.4,1.9,7.1,3,10.7C96.6,62.7,99,66,98.4,70.1z M87.7,63
		c-0.5-2.7-1-5.2-1.6-9c-1.1,3.7-1.8,6.3-2.6,9C85,63,86.1,63,87.7,63z"/>
	<path class="st1" d="M128,70c-0.9-0.9-1.6-1.6-2.4-2.4c0-0.4,0-0.9-0.1-1.3c-0.2-1.5,0.5-3.2-0.8-4.7c-0.7-0.8-0.5-2.2,0.7-3
		c-0.9-0.8-1.4-2.1-0.8-3c0.5-0.9,1-1.4,0-2.2c1.3-0.7,0.6-2.1,1.1-3c0.6-1,1.6-1.7,1.7-1.7c6.3-2.5,11.9-1.7,18.6-0.1
		c1.6,0.8,1.6,3.6,2.7,6.2c-3.5,0-6.6,0-9.7,0c-0.5-1.2-1.1-2.6-1.8-4.4c-1.1,0.7-1.7,1.2-2.5,1.7c0,4.1,0,8.2,0,11.8
		c0.6,0.8,1,1.5,1.4,2c1.5,0,2.1-0.9,2.6-3.8c2.7,0,5.5,0,8.6,0c0.1,1.5,0.2,3.3,0.3,5.4c-0.8,0.6-1.7,1.2-3.1,2.3
		c-2.3,0-5,1.7-8.2,1.2C133.5,70.6,130.7,70.4,128,70z"/>
	<path class="st2" d="M109.7,65.7c0-1.6,0-3,0-4.6c1.3,0,2.4,0,3.7,0c0,1.1,0,2.2,0,3.6C112.5,65.9,111.3,66.8,109.7,65.7z"/>
	<path class="st3" d="M109.7,52.2c1.3,0,2.4,0,3.7,0c0,1.2,0,2.3,0,3.8c-1,0.1-2.3,0.1-3.7,0.2C109.7,54.8,109.7,53.7,109.7,52.2z"
		/>
	<path class="st3" d="M159.8,51.1c1.2,0,2.2,0,3.2,0c0.5,0.5,0.9,0.9,1.4,1.5c0,3.9,0,7.9,0,12.4c-1,0.4-2.2,0.9-3.5,1.5
		C157.4,61.2,158.1,56.2,159.8,51.1z"/>
	<path class="st4" d="M87.7,63c-1.6,0-2.7,0-4.2,0c0.8-2.7,1.5-5.3,2.6-9C86.8,57.8,87.2,60.3,87.7,63z"/>
</g>
</svg>
