<?xml version="1.0" encoding="utf-8"?>
<!-- Generator: Adobe Illustrator 25.1.0, SVG Export Plug-In . SVG Version: 6.00 Build 0)  -->
<svg version="1.1" id="Warstwa_1" xmlns="http://www.w3.org/2000/svg" xmlns:xlink="http://www.w3.org/1999/xlink" x="0px" y="0px"
	 viewBox="0 0 210 120" style="enable-background:new 0 0 210 120;" xml:space="preserve">
<style type="text/css">
	.st0{fill:#9F9F9F;}
</style>
<g>
	<path class="st0" d="M53.04,54.93l-1.16,4.11c0,0.02-0.01,0.05-0.03,0.1c-0.11,0.37-0.27,0.61-0.47,0.72
		c-0.42,0.24-0.99,0.44-1.7,0.6c-0.71,0.16-1.43,0.24-2.15,0.24c-2.02,0-3.6-0.56-4.76-1.7c-1.15-1.13-1.73-2.68-1.73-4.64
		c0-1.44,0.29-2.83,0.88-4.19c0.59-1.36,1.43-2.59,2.51-3.69c1.23-1.26,2.59-2.21,4.07-2.86c1.49-0.65,3.05-0.98,4.68-0.98
		c0.92,0,1.59,0.07,2,0.2c0.41,0.13,0.61,0.34,0.61,0.64c0,0.07-0.01,0.15-0.02,0.23c-0.01,0.08-0.03,0.18-0.06,0.28l-0.89,3.07
		c-0.07,0.28-0.16,0.48-0.27,0.59s-0.25,0.18-0.42,0.18c-0.2,0-0.35-0.08-0.45-0.24c-0.1-0.16-0.15-0.41-0.15-0.74
		c0-0.15,0.02-0.45,0.05-0.9c0.04-0.45,0.05-0.81,0.05-1.1c0-0.41-0.08-0.71-0.24-0.9c-0.16-0.19-0.42-0.28-0.77-0.28
		c-0.61,0-1.28,0.24-2,0.71c-0.73,0.47-1.47,1.15-2.22,2.03c-1.08,1.26-1.91,2.72-2.51,4.38c-0.6,1.65-0.9,3.32-0.9,4.99
		c0,1.2,0.19,2.16,0.58,2.86c0.38,0.71,0.89,1.06,1.52,1.06c0.24,0,0.42-0.06,0.54-0.19c0.12-0.13,0.26-0.46,0.42-1l1.07-3.76
		c0.05-0.15,0.08-0.3,0.1-0.44c0.02-0.14,0.03-0.28,0.03-0.41c0-0.23-0.25-0.41-0.76-0.57c-0.51-0.15-0.76-0.34-0.76-0.57
		c0-0.16,0.04-0.28,0.13-0.36c0.08-0.08,0.22-0.11,0.4-0.11c0.08,0,0.46,0.01,1.14,0.04c0.68,0.03,1.33,0.04,1.94,0.04
		c0.87,0,1.77-0.02,2.69-0.06c0.21-0.01,0.33-0.02,0.38-0.02c0.17,0,0.3,0.04,0.39,0.11c0.09,0.08,0.14,0.19,0.14,0.33
		c0,0.22-0.17,0.38-0.5,0.5c-0.33,0.12-0.54,0.21-0.63,0.27c-0.17,0.12-0.31,0.28-0.42,0.47C53.29,54.16,53.17,54.48,53.04,54.93"/>
	<path class="st0" d="M62.38,45.08l-1.94,6.65h0.12c0.41,0,0.82-0.07,1.21-0.21c0.39-0.14,0.76-0.34,1.1-0.61
		c0.69-0.56,1.26-1.28,1.69-2.18c0.44-0.89,0.65-1.77,0.65-2.63c0-0.68-0.17-1.21-0.5-1.58c-0.33-0.37-0.81-0.56-1.42-0.56
		c-0.41,0-0.7,0.28-0.85,0.82C62.43,44.92,62.4,45.02,62.38,45.08 M54.86,57.72l3.5-12.35c0-0.01,0.01-0.03,0.01-0.07
		c0.1-0.36,0.15-0.62,0.15-0.78c0-0.22-0.26-0.41-0.77-0.57c-0.51-0.16-0.77-0.34-0.77-0.56c0-0.15,0.04-0.26,0.12-0.34
		c0.08-0.07,0.21-0.11,0.4-0.11c0.01,0,0.39,0.01,1.15,0.04c0.76,0.03,1.51,0.04,2.24,0.04c0.47,0,1.08-0.01,1.84-0.04
		c0.76-0.03,1.3-0.04,1.6-0.04c1.62,0,2.84,0.32,3.68,0.96c0.84,0.64,1.26,1.57,1.26,2.79c0,1.21-0.44,2.26-1.32,3.13
		c-0.88,0.87-2.13,1.52-3.76,1.94c0.11,0.1,0.21,0.24,0.3,0.42c0.09,0.18,0.18,0.42,0.28,0.73l1.55,5.02c0,0.01,0,0.03,0.01,0.05
		c0.2,0.68,0.42,1.1,0.67,1.24c0.05,0.03,0.14,0.06,0.3,0.09c0.43,0.09,0.65,0.26,0.65,0.51c0,0.15-0.06,0.27-0.17,0.36
		c-0.12,0.09-0.28,0.13-0.47,0.13c-0.03,0-0.11,0-0.25-0.01c-0.64-0.04-1.26-0.06-1.86-0.06c-0.56,0-1.11,0.02-1.66,0.06
		c-0.09,0.01-0.14,0.01-0.16,0.01c-0.28,0-0.48-0.23-0.61-0.68c-0.03-0.11-0.05-0.19-0.07-0.25l-1.54-5.67
		c-0.01-0.04-0.02-0.09-0.04-0.15c-0.11-0.37-0.25-0.55-0.43-0.55c-0.13,0-0.23,0-0.32-0.01c-0.09-0.01-0.17-0.01-0.26-0.01
		l-1.32,4.86c-0.05,0.2-0.09,0.36-0.11,0.48c-0.02,0.12-0.03,0.21-0.03,0.27c0,0.3,0.25,0.52,0.76,0.68
		c0.51,0.16,0.76,0.35,0.76,0.59c0,0.15-0.04,0.26-0.12,0.34c-0.08,0.07-0.22,0.11-0.4,0.11c-0.15,0-0.58-0.01-1.28-0.04
		c-0.7-0.03-1.33-0.04-1.88-0.04c-0.71,0-1.44,0.01-2.21,0.04c-0.76,0.03-1.17,0.04-1.21,0.04c-0.16,0-0.28-0.03-0.34-0.09
		c-0.07-0.06-0.1-0.16-0.1-0.3c0-0.24,0.25-0.45,0.74-0.62c0.1-0.04,0.18-0.07,0.26-0.09c0.38-0.09,0.64-0.22,0.78-0.38
		C54.54,58.68,54.7,58.3,54.86,57.72"/>
	<path class="st0" d="M69.22,57.72l3.5-12.35c0-0.01,0.01-0.03,0.01-0.07c0.1-0.36,0.15-0.62,0.15-0.78c0-0.22-0.26-0.42-0.77-0.57
		c-0.51-0.16-0.77-0.35-0.77-0.56c0-0.15,0.04-0.26,0.12-0.34c0.08-0.07,0.22-0.11,0.4-0.11c0.04,0,0.2,0,0.46,0.01
		c1.92,0.04,3.94,0.07,6.06,0.07c1.05,0,2.12-0.02,3.22-0.07c0.22-0.01,0.36-0.01,0.42-0.01c0.26,0,0.44,0.03,0.52,0.1
		c0.09,0.07,0.14,0.2,0.14,0.4c0,0.08-0.01,0.16-0.02,0.25c-0.01,0.09-0.03,0.17-0.06,0.26L81.74,47c-0.1,0.31-0.2,0.53-0.31,0.65
		c-0.11,0.12-0.25,0.17-0.42,0.17c-0.31,0-0.48-0.36-0.54-1.08c-0.02-0.29-0.04-0.51-0.07-0.69c-0.09-0.7-0.31-1.19-0.67-1.46
		c-0.35-0.27-0.98-0.41-1.86-0.41c-0.39,0-0.64,0.04-0.76,0.13c-0.12,0.09-0.24,0.37-0.37,0.84l-1.42,5
		c-0.02,0.04-0.03,0.07-0.04,0.11c-0.01,0.04-0.01,0.08-0.01,0.11c0.01,0.07,0.02,0.12,0.05,0.13c0.02,0.02,0.1,0.03,0.23,0.03h1.11
		c0.44,0,0.8-0.08,1.08-0.24c0.28-0.16,0.52-0.42,0.74-0.79c0.08-0.13,0.17-0.33,0.28-0.62c0.21-0.56,0.48-0.83,0.79-0.83
		c0.13,0,0.25,0.05,0.34,0.15c0.09,0.1,0.13,0.23,0.13,0.4c0,0.13-0.11,0.53-0.34,1.2c-0.22,0.67-0.39,1.26-0.5,1.78
		c-0.04,0.26-0.11,0.62-0.19,1.08c-0.22,1.34-0.53,2.01-0.92,2.01c-0.18,0-0.31-0.07-0.4-0.19c-0.09-0.13-0.13-0.35-0.13-0.65
		c0-0.09,0.01-0.23,0.03-0.44c0.02-0.2,0.03-0.36,0.03-0.48c0-0.41-0.09-0.72-0.28-0.91c-0.18-0.2-0.47-0.3-0.86-0.3h-1.16
		c-0.19,0-0.32,0.03-0.38,0.08c-0.06,0.05-0.12,0.16-0.16,0.32l-1.47,5.14c-0.05,0.2-0.09,0.39-0.12,0.57
		c-0.03,0.18-0.04,0.34-0.04,0.48c0,0.3,0.1,0.5,0.29,0.62c0.19,0.12,0.56,0.17,1.11,0.17c0.82,0,1.52-0.11,2.12-0.34
		c0.59-0.23,1.09-0.58,1.5-1.06c0.17-0.19,0.36-0.53,0.56-1.04c0.2-0.5,0.37-0.86,0.49-1.06c0.08-0.12,0.18-0.22,0.3-0.3
		c0.12-0.08,0.23-0.12,0.33-0.12c0.15,0,0.26,0.04,0.34,0.12c0.07,0.08,0.11,0.2,0.11,0.35c0,0.11,0,0.21-0.01,0.3
		c-0.01,0.1-0.02,0.18-0.04,0.25l-0.88,3.37c-0.08,0.33-0.17,0.54-0.28,0.63c-0.1,0.09-0.3,0.13-0.57,0.13
		c-0.35,0-1.26-0.01-2.71-0.04c-1.46-0.03-2.75-0.04-3.86-0.04c-1.31,0-2.65,0.02-4.01,0.06c-0.28,0.01-0.44,0.01-0.5,0.01
		c-0.16,0-0.28-0.03-0.34-0.09c-0.07-0.06-0.1-0.16-0.1-0.3c0-0.25,0.23-0.45,0.7-0.61c0.14-0.05,0.25-0.08,0.32-0.11
		c0.34-0.12,0.59-0.27,0.75-0.46C68.92,58.57,69.08,58.22,69.22,57.72"/>
	<path class="st0" d="M81.01,57.72l3.5-12.35c0-0.01,0.01-0.03,0.01-0.07c0.1-0.36,0.15-0.62,0.15-0.78c0-0.22-0.26-0.42-0.77-0.57
		c-0.51-0.16-0.77-0.35-0.77-0.56c0-0.15,0.04-0.26,0.12-0.34c0.08-0.07,0.22-0.11,0.4-0.11c0.04,0,0.2,0,0.46,0.01
		c1.92,0.04,3.94,0.07,6.06,0.07c1.05,0,2.12-0.02,3.22-0.07c0.22-0.01,0.36-0.01,0.42-0.01c0.26,0,0.44,0.03,0.52,0.1
		c0.09,0.07,0.13,0.2,0.13,0.4c0,0.08-0.01,0.16-0.02,0.25c-0.01,0.09-0.03,0.17-0.06,0.26L93.53,47c-0.1,0.31-0.2,0.53-0.31,0.65
		c-0.11,0.12-0.25,0.17-0.42,0.17c-0.31,0-0.49-0.36-0.54-1.08c-0.02-0.29-0.04-0.51-0.07-0.69c-0.09-0.7-0.31-1.19-0.67-1.46
		c-0.35-0.27-0.97-0.41-1.86-0.41c-0.39,0-0.64,0.04-0.76,0.13c-0.12,0.09-0.24,0.37-0.37,0.84l-1.42,5
		c-0.02,0.04-0.03,0.07-0.04,0.11c-0.01,0.04-0.01,0.08-0.01,0.11c0.01,0.07,0.03,0.12,0.05,0.13c0.02,0.02,0.1,0.03,0.23,0.03h1.11
		c0.44,0,0.8-0.08,1.08-0.24c0.28-0.16,0.52-0.42,0.74-0.79c0.08-0.13,0.18-0.33,0.28-0.62c0.21-0.56,0.48-0.83,0.79-0.83
		c0.13,0,0.25,0.05,0.34,0.15c0.09,0.1,0.14,0.23,0.14,0.4c0,0.13-0.11,0.53-0.34,1.2c-0.22,0.67-0.39,1.26-0.5,1.78
		c-0.04,0.26-0.11,0.62-0.19,1.08c-0.22,1.34-0.53,2.01-0.92,2.01c-0.18,0-0.31-0.07-0.4-0.19c-0.08-0.13-0.13-0.35-0.13-0.65
		c0-0.09,0.01-0.23,0.03-0.44c0.02-0.2,0.03-0.36,0.03-0.48c0-0.41-0.09-0.72-0.28-0.91c-0.18-0.2-0.47-0.3-0.86-0.3h-1.16
		c-0.19,0-0.31,0.03-0.38,0.08c-0.06,0.05-0.12,0.16-0.16,0.32l-1.47,5.14c-0.05,0.2-0.09,0.39-0.12,0.57
		c-0.03,0.18-0.04,0.34-0.04,0.48c0,0.3,0.1,0.5,0.29,0.62c0.19,0.12,0.56,0.17,1.11,0.17c0.82,0,1.52-0.11,2.12-0.34
		c0.59-0.23,1.09-0.58,1.5-1.06c0.17-0.19,0.36-0.53,0.56-1.04c0.2-0.5,0.37-0.86,0.49-1.06c0.08-0.12,0.18-0.22,0.3-0.3
		c0.12-0.08,0.23-0.12,0.33-0.12c0.15,0,0.26,0.04,0.34,0.12c0.07,0.08,0.11,0.2,0.11,0.35c0,0.11-0.01,0.21-0.01,0.3
		c-0.01,0.1-0.02,0.18-0.04,0.25l-0.88,3.37c-0.08,0.33-0.17,0.54-0.28,0.63c-0.1,0.09-0.29,0.13-0.57,0.13
		c-0.35,0-1.25-0.01-2.71-0.04c-1.46-0.03-2.75-0.04-3.86-0.04c-1.31,0-2.65,0.02-4.01,0.06c-0.28,0.01-0.44,0.01-0.5,0.01
		c-0.16,0-0.28-0.03-0.34-0.09c-0.07-0.06-0.1-0.16-0.1-0.3c0-0.25,0.23-0.45,0.7-0.61c0.14-0.05,0.25-0.08,0.32-0.11
		c0.34-0.12,0.59-0.27,0.75-0.46C80.72,58.57,80.87,58.22,81.01,57.72"/>
	<path class="st0" d="M94.61,56.74c-0.08,0.3-0.14,0.58-0.19,0.84c-0.04,0.26-0.07,0.46-0.07,0.59c0,0.29,0.07,0.5,0.2,0.65
		c0.13,0.14,0.39,0.26,0.77,0.35c0.05,0.03,0.13,0.07,0.24,0.12c0.38,0.19,0.57,0.38,0.57,0.57c0,0.15-0.05,0.27-0.17,0.35
		c-0.11,0.08-0.27,0.12-0.48,0.12c-0.23,0-0.59-0.01-1.07-0.04c-0.48-0.03-0.85-0.04-1.1-0.04c-0.37,0-0.81,0.01-1.33,0.04
		c-0.52,0.03-0.85,0.04-0.99,0.04c-0.21,0-0.35-0.03-0.43-0.09c-0.08-0.06-0.12-0.16-0.12-0.3c0-0.26,0.38-0.49,1.13-0.69
		c0.13-0.04,0.23-0.06,0.3-0.08c0.31-0.18,0.55-0.41,0.74-0.69c0.19-0.28,0.35-0.64,0.47-1.08l3.28-12.04
		c0.05-0.23,0.09-0.41,0.11-0.53c0.02-0.12,0.03-0.23,0.03-0.31c0-0.22-0.25-0.41-0.75-0.57C95.25,43.79,95,43.6,95,43.39
		c0-0.16,0.04-0.28,0.12-0.34c0.08-0.07,0.21-0.1,0.39-0.1c0.17,0,0.55,0.01,1.12,0.04c0.58,0.03,1.08,0.04,1.5,0.04
		c0.25,0,0.54-0.01,0.87-0.04c0.33-0.03,0.54-0.04,0.63-0.04c0.33,0,0.57,0.25,0.71,0.75c0.05,0.19,0.1,0.34,0.14,0.46l3.5,10.39
		l2.07-8.05c0.08-0.33,0.15-0.63,0.19-0.88c0.05-0.25,0.07-0.44,0.07-0.55c0-0.28-0.07-0.49-0.2-0.63
		c-0.13-0.14-0.39-0.27-0.79-0.39c-0.05-0.03-0.13-0.06-0.21-0.09c-0.4-0.18-0.59-0.37-0.59-0.57c0-0.16,0.05-0.28,0.16-0.34
		c0.11-0.07,0.28-0.1,0.52-0.1c0.19,0,0.52,0.01,0.99,0.04c0.47,0.03,0.84,0.04,1.11,0.04c0.38,0,0.83-0.01,1.34-0.04
		c0.51-0.03,0.82-0.04,0.95-0.04c0.21,0,0.36,0.03,0.47,0.1c0.11,0.07,0.16,0.16,0.16,0.29c0,0.24-0.35,0.45-1.05,0.62
		c-0.16,0.04-0.29,0.07-0.39,0.09c-0.31,0.18-0.57,0.41-0.75,0.68c-0.19,0.27-0.35,0.64-0.48,1.11l-3.96,14.15
		c-0.01,0.02-0.02,0.04-0.03,0.08c-0.13,0.44-0.3,0.66-0.5,0.66h-0.44c-0.17,0-0.3-0.04-0.4-0.12c-0.09-0.08-0.18-0.25-0.26-0.51
		L97.25,46.3L94.61,56.74z"/>
	<path class="st0" d="M114.77,45.1l-1.52,5.33c1.32,0,2.37-0.42,3.14-1.26c0.77-0.84,1.16-1.97,1.16-3.39
		c0-0.66-0.12-1.14-0.38-1.43c-0.25-0.29-0.66-0.44-1.24-0.44c-0.33,0-0.57,0.07-0.72,0.21C115.06,44.27,114.91,44.59,114.77,45.1
		 M111.32,57.3c-0.12,0.43-0.19,0.73-0.23,0.91c-0.03,0.18-0.05,0.31-0.05,0.41c0,0.23,0.08,0.41,0.24,0.52
		c0.16,0.11,0.4,0.17,0.73,0.17c1.18,0,2.13-0.48,2.85-1.44c0.73-0.96,1.09-2.22,1.09-3.79c0-0.91-0.17-1.57-0.51-1.96
		c-0.34-0.39-0.91-0.59-1.7-0.59c-0.21,0-0.37,0-0.48,0.01c-0.12,0.01-0.23,0.02-0.35,0.04L111.32,57.3z M107.35,57.72l3.5-12.35
		c0-0.01,0.01-0.03,0.01-0.07c0.1-0.36,0.15-0.62,0.15-0.78c0-0.23-0.26-0.42-0.77-0.57c-0.51-0.16-0.77-0.34-0.77-0.56
		c0-0.15,0.04-0.26,0.12-0.34s0.22-0.11,0.4-0.11c0.01,0,0.39,0.01,1.15,0.04c0.76,0.03,1.51,0.04,2.24,0.04
		c0.38,0,0.95-0.01,1.71-0.04c0.76-0.03,1.34-0.04,1.74-0.04c1.55,0,2.72,0.27,3.51,0.81c0.79,0.54,1.18,1.36,1.18,2.44
		c0,1.23-0.51,2.26-1.53,3.09c-1.02,0.84-2.41,1.35-4.18,1.53c1.36,0.12,2.41,0.53,3.15,1.24c0.73,0.71,1.1,1.65,1.1,2.84
		c0,1.7-0.58,3.03-1.73,3.99c-1.15,0.95-2.77,1.43-4.87,1.43c-0.42,0-1.15-0.01-2.19-0.04c-1.04-0.03-1.88-0.04-2.52-0.04
		c-0.65,0-1.33,0.01-2.04,0.04c-0.71,0.03-1.1,0.04-1.15,0.04c-0.16,0-0.28-0.03-0.34-0.09c-0.07-0.06-0.1-0.16-0.1-0.3
		c0-0.25,0.26-0.46,0.78-0.62c0.09-0.03,0.16-0.05,0.22-0.07c0.38-0.11,0.63-0.25,0.77-0.4C107.02,58.7,107.17,58.32,107.35,57.72"
		/>
	<path class="st0" d="M128.69,45.08l-1.94,6.65h0.12c0.41,0,0.82-0.07,1.21-0.21c0.39-0.14,0.76-0.34,1.1-0.61
		c0.69-0.56,1.25-1.28,1.69-2.18c0.44-0.89,0.65-1.77,0.65-2.63c0-0.68-0.17-1.21-0.5-1.58c-0.33-0.37-0.81-0.56-1.42-0.56
		c-0.41,0-0.7,0.28-0.85,0.82C128.73,44.92,128.7,45.02,128.69,45.08 M121.16,57.72l3.5-12.35c0-0.01,0-0.03,0.01-0.07
		c0.1-0.36,0.15-0.62,0.15-0.78c0-0.22-0.26-0.41-0.77-0.57c-0.51-0.16-0.77-0.34-0.77-0.56c0-0.15,0.04-0.26,0.12-0.34
		c0.08-0.07,0.22-0.11,0.4-0.11c0.01,0,0.39,0.01,1.15,0.04c0.76,0.03,1.51,0.04,2.24,0.04c0.47,0,1.08-0.01,1.85-0.04
		c0.76-0.03,1.3-0.04,1.6-0.04c1.62,0,2.84,0.32,3.68,0.96c0.84,0.64,1.26,1.57,1.26,2.79c0,1.21-0.44,2.26-1.32,3.13
		c-0.88,0.87-2.13,1.52-3.76,1.94c0.11,0.1,0.21,0.24,0.3,0.42c0.09,0.18,0.18,0.42,0.28,0.73l1.55,5.02c0,0.01,0,0.03,0.01,0.05
		c0.2,0.68,0.42,1.1,0.67,1.24c0.05,0.03,0.14,0.06,0.3,0.09c0.43,0.09,0.65,0.26,0.65,0.51c0,0.15-0.06,0.27-0.17,0.36
		c-0.12,0.09-0.28,0.13-0.47,0.13c-0.03,0-0.11,0-0.25-0.01c-0.64-0.04-1.26-0.06-1.86-0.06c-0.56,0-1.11,0.02-1.65,0.06
		c-0.09,0.01-0.15,0.01-0.16,0.01c-0.28,0-0.48-0.23-0.61-0.68c-0.03-0.11-0.05-0.19-0.07-0.25l-1.53-5.67
		c-0.01-0.04-0.02-0.09-0.04-0.15c-0.11-0.37-0.25-0.55-0.43-0.55c-0.13,0-0.23,0-0.32-0.01c-0.09-0.01-0.18-0.01-0.26-0.01
		l-1.32,4.86c-0.06,0.2-0.09,0.36-0.12,0.48c-0.02,0.12-0.03,0.21-0.03,0.27c0,0.3,0.25,0.52,0.76,0.68
		c0.51,0.16,0.76,0.35,0.76,0.59c0,0.15-0.04,0.26-0.12,0.34c-0.08,0.07-0.22,0.11-0.4,0.11c-0.15,0-0.58-0.01-1.29-0.04
		c-0.71-0.03-1.33-0.04-1.88-0.04c-0.71,0-1.44,0.01-2.21,0.04c-0.76,0.03-1.17,0.04-1.21,0.04c-0.16,0-0.28-0.03-0.34-0.09
		c-0.07-0.06-0.1-0.16-0.1-0.3c0-0.24,0.25-0.45,0.74-0.62c0.1-0.04,0.18-0.07,0.25-0.09c0.38-0.09,0.64-0.22,0.78-0.38
		C120.85,58.68,121,58.3,121.16,57.72"/>
	<path class="st0" d="M139.52,57.87c-0.05,0.16-0.08,0.31-0.1,0.46c-0.02,0.14-0.04,0.27-0.05,0.38c0,0.23,0.25,0.43,0.76,0.59
		c0.51,0.16,0.76,0.36,0.76,0.6c0,0.16-0.04,0.28-0.12,0.34c-0.08,0.07-0.22,0.1-0.4,0.1c-0.17,0-0.65-0.01-1.44-0.04
		c-0.79-0.03-1.49-0.04-2.11-0.04c-0.92,0-1.83,0.02-2.72,0.07c-0.16,0.01-0.26,0.01-0.28,0.01c-0.16,0-0.28-0.03-0.36-0.09
		c-0.07-0.06-0.11-0.14-0.11-0.26c0-0.3,0.27-0.52,0.81-0.67c0.26-0.07,0.46-0.14,0.59-0.19c0.21-0.09,0.37-0.22,0.49-0.4
		c0.12-0.18,0.24-0.51,0.38-1l3.5-12.35c0.05-0.17,0.08-0.32,0.1-0.46c0.02-0.14,0.03-0.27,0.03-0.39c0-0.23-0.25-0.42-0.75-0.58
		c-0.5-0.16-0.75-0.34-0.75-0.56c0-0.16,0.04-0.28,0.12-0.34c0.08-0.07,0.21-0.1,0.39-0.1c0.08,0,0.47,0.01,1.16,0.04
		c0.7,0.03,1.35,0.04,1.96,0.04c0.87,0,1.76-0.02,2.67-0.07c0.2-0.01,0.32-0.01,0.36-0.01c0.17,0,0.3,0.04,0.39,0.11
		c0.09,0.07,0.14,0.19,0.14,0.34c0,0.22-0.17,0.38-0.51,0.48c-0.34,0.1-0.55,0.19-0.65,0.26c-0.14,0.11-0.27,0.28-0.4,0.53
		c-0.13,0.25-0.25,0.54-0.34,0.89L139.52,57.87z"/>
	<path class="st0" d="M142.74,57.72l3.5-12.35c0-0.01,0.01-0.03,0.01-0.07c0.1-0.36,0.15-0.62,0.15-0.78c0-0.22-0.26-0.42-0.77-0.57
		c-0.51-0.16-0.77-0.35-0.77-0.56c0-0.15,0.04-0.26,0.12-0.34c0.08-0.07,0.22-0.11,0.4-0.11c0.04,0,0.2,0,0.46,0.01
		c1.92,0.04,3.94,0.07,6.06,0.07c1.05,0,2.12-0.02,3.22-0.07c0.22-0.01,0.36-0.01,0.42-0.01c0.26,0,0.44,0.03,0.52,0.1
		c0.09,0.07,0.14,0.2,0.14,0.4c0,0.08-0.01,0.16-0.02,0.25c-0.01,0.09-0.03,0.17-0.06,0.26L155.26,47c-0.1,0.31-0.2,0.53-0.31,0.65
		c-0.11,0.12-0.25,0.17-0.42,0.17c-0.31,0-0.49-0.36-0.54-1.08c-0.02-0.29-0.04-0.51-0.07-0.69c-0.09-0.7-0.31-1.19-0.66-1.46
		c-0.35-0.27-0.98-0.41-1.86-0.41c-0.39,0-0.64,0.04-0.76,0.13c-0.12,0.09-0.24,0.37-0.37,0.84l-1.42,5
		c-0.02,0.04-0.03,0.07-0.04,0.11c-0.01,0.04-0.01,0.08-0.01,0.11c0.01,0.07,0.03,0.12,0.05,0.13c0.02,0.02,0.1,0.03,0.23,0.03h1.11
		c0.44,0,0.8-0.08,1.08-0.24c0.28-0.16,0.52-0.42,0.74-0.79c0.08-0.13,0.18-0.33,0.28-0.62c0.21-0.56,0.48-0.83,0.79-0.83
		c0.13,0,0.25,0.05,0.34,0.15c0.09,0.1,0.14,0.23,0.14,0.4c0,0.13-0.11,0.53-0.34,1.2c-0.22,0.67-0.39,1.26-0.5,1.78
		c-0.04,0.26-0.11,0.62-0.19,1.08c-0.23,1.34-0.53,2.01-0.92,2.01c-0.18,0-0.31-0.07-0.4-0.19c-0.09-0.13-0.13-0.35-0.13-0.65
		c0-0.09,0.01-0.23,0.03-0.44c0.02-0.2,0.03-0.36,0.03-0.48c0-0.41-0.09-0.72-0.28-0.91c-0.18-0.2-0.47-0.3-0.86-0.3h-1.16
		c-0.19,0-0.32,0.03-0.38,0.08c-0.06,0.05-0.12,0.16-0.16,0.32l-1.47,5.14c-0.05,0.2-0.09,0.39-0.12,0.57
		c-0.03,0.18-0.04,0.34-0.04,0.48c0,0.3,0.1,0.5,0.29,0.62c0.19,0.12,0.56,0.17,1.11,0.17c0.82,0,1.52-0.11,2.12-0.34
		c0.59-0.23,1.09-0.58,1.5-1.06c0.17-0.19,0.36-0.53,0.56-1.04c0.2-0.5,0.37-0.86,0.49-1.06c0.08-0.12,0.18-0.22,0.3-0.3
		c0.12-0.08,0.23-0.12,0.33-0.12c0.15,0,0.26,0.04,0.34,0.12c0.07,0.08,0.11,0.2,0.11,0.35c0,0.11,0,0.21-0.01,0.3
		c-0.01,0.1-0.02,0.18-0.04,0.25l-0.88,3.37c-0.08,0.33-0.17,0.54-0.28,0.63c-0.1,0.09-0.3,0.13-0.57,0.13
		c-0.35,0-1.26-0.01-2.71-0.04c-1.46-0.03-2.74-0.04-3.86-0.04c-1.31,0-2.65,0.02-4.01,0.06c-0.28,0.01-0.44,0.01-0.5,0.01
		c-0.16,0-0.28-0.03-0.35-0.09c-0.07-0.06-0.1-0.16-0.1-0.3c0-0.25,0.23-0.45,0.7-0.61c0.14-0.05,0.25-0.08,0.32-0.11
		c0.34-0.12,0.59-0.27,0.75-0.46C142.45,58.57,142.6,58.22,142.74,57.72"/>
	<path class="st0" d="M162.06,45.08l-1.94,6.65h0.12c0.41,0,0.82-0.07,1.21-0.21c0.39-0.14,0.76-0.34,1.1-0.61
		c0.69-0.56,1.26-1.28,1.69-2.18c0.43-0.89,0.65-1.77,0.65-2.63c0-0.68-0.17-1.21-0.5-1.58c-0.33-0.37-0.8-0.56-1.41-0.56
		c-0.41,0-0.7,0.28-0.85,0.82C162.1,44.92,162.07,45.02,162.06,45.08 M154.53,57.72l3.5-12.35c0-0.01,0-0.03,0.01-0.07
		c0.1-0.36,0.15-0.62,0.15-0.78c0-0.22-0.26-0.41-0.77-0.57c-0.51-0.16-0.77-0.34-0.77-0.56c0-0.15,0.04-0.26,0.12-0.34
		c0.08-0.07,0.21-0.11,0.4-0.11c0.01,0,0.39,0.01,1.15,0.04c0.76,0.03,1.51,0.04,2.24,0.04c0.47,0,1.08-0.01,1.84-0.04
		c0.76-0.03,1.3-0.04,1.6-0.04c1.62,0,2.84,0.32,3.68,0.96c0.84,0.64,1.26,1.57,1.26,2.79c0,1.21-0.44,2.26-1.32,3.13
		c-0.88,0.87-2.13,1.52-3.76,1.94c0.11,0.1,0.21,0.24,0.3,0.42c0.09,0.18,0.18,0.42,0.28,0.73l1.55,5.02c0,0.01,0,0.03,0.01,0.05
		c0.2,0.68,0.42,1.1,0.67,1.24c0.05,0.03,0.14,0.06,0.3,0.09c0.43,0.09,0.65,0.26,0.65,0.51c0,0.15-0.06,0.27-0.18,0.36
		c-0.12,0.09-0.27,0.13-0.47,0.13c-0.03,0-0.11,0-0.26-0.01c-0.64-0.04-1.26-0.06-1.86-0.06c-0.56,0-1.11,0.02-1.66,0.06
		c-0.09,0.01-0.14,0.01-0.16,0.01c-0.28,0-0.48-0.23-0.61-0.68c-0.03-0.11-0.05-0.19-0.07-0.25l-1.53-5.67
		c-0.01-0.04-0.02-0.09-0.04-0.15c-0.11-0.37-0.25-0.55-0.43-0.55c-0.13,0-0.23,0-0.32-0.01c-0.09-0.01-0.17-0.01-0.26-0.01
		l-1.32,4.86c-0.06,0.2-0.09,0.36-0.12,0.48c-0.02,0.12-0.03,0.21-0.03,0.27c0,0.3,0.25,0.52,0.76,0.68
		c0.51,0.16,0.76,0.35,0.76,0.59c0,0.15-0.04,0.26-0.12,0.34c-0.08,0.07-0.21,0.11-0.4,0.11c-0.15,0-0.58-0.01-1.28-0.04
		c-0.7-0.03-1.33-0.04-1.88-0.04c-0.71,0-1.44,0.01-2.21,0.04c-0.76,0.03-1.17,0.04-1.21,0.04c-0.16,0-0.28-0.03-0.34-0.09
		c-0.07-0.06-0.1-0.16-0.1-0.3c0-0.24,0.25-0.45,0.74-0.62c0.1-0.04,0.18-0.07,0.26-0.09c0.38-0.09,0.64-0.22,0.78-0.38
		C154.22,58.68,154.37,58.3,154.53,57.72"/>
	<path class="st0" d="M166.82,62.12H41.7c-0.27,0-0.5-0.22-0.5-0.5c0-0.27,0.22-0.5,0.5-0.5h125.12c0.27,0,0.5,0.22,0.5,0.5
		C167.32,61.9,167.09,62.12,166.82,62.12z"/>
	<path class="st0" d="M162.96,71.49c0,0.25,0.02,0.49,0.05,0.72c0.04,0.23,0.1,0.44,0.18,0.62c0.08,0.18,0.19,0.33,0.33,0.43
		c0.13,0.11,0.3,0.16,0.5,0.16c0.36,0,0.63-0.13,0.79-0.39c0.17-0.26,0.28-0.65,0.34-1.18h1.93c-0.04,0.97-0.3,1.71-0.78,2.22
		c-0.48,0.51-1.23,0.76-2.25,0.76c-0.78,0-1.38-0.13-1.82-0.39c-0.43-0.26-0.76-0.6-0.96-1.03c-0.21-0.42-0.33-0.9-0.38-1.43
		c-0.05-0.53-0.07-1.06-0.07-1.58c0-0.56,0.04-1.1,0.12-1.62c0.08-0.52,0.23-0.98,0.47-1.38c0.23-0.4,0.57-0.72,1-0.96
		c0.43-0.24,1.01-0.36,1.74-0.36c0.62,0,1.13,0.1,1.53,0.3c0.4,0.2,0.71,0.49,0.94,0.86c0.23,0.37,0.38,0.81,0.47,1.34
		c0.08,0.52,0.12,1.11,0.12,1.75v0.48h-4.24V71.49z M165.09,68.7c-0.03-0.24-0.09-0.45-0.16-0.62c-0.08-0.17-0.19-0.3-0.33-0.39
		c-0.14-0.09-0.32-0.13-0.54-0.13c-0.22,0-0.4,0.05-0.54,0.15c-0.14,0.1-0.25,0.23-0.33,0.39c-0.08,0.16-0.14,0.34-0.18,0.54
		c-0.04,0.2-0.05,0.39-0.05,0.59v0.33h2.19C165.14,69.23,165.12,68.94,165.09,68.7 M155.71,72.55c0.14,0.46,0.45,0.69,0.92,0.69
		c0.47,0,0.77-0.23,0.91-0.69c0.14-0.46,0.21-1.15,0.21-2.06c0-0.91-0.07-1.6-0.21-2.06c-0.14-0.46-0.44-0.69-0.91-0.69
		c-0.48,0-0.78,0.23-0.92,0.69c-0.14,0.46-0.21,1.15-0.21,2.06C155.5,71.41,155.57,72.09,155.71,72.55 M155.41,66.32v0.89h0.03
		c0.24-0.39,0.5-0.68,0.8-0.85c0.3-0.17,0.66-0.26,1.1-0.26c0.88,0,1.53,0.34,1.94,1.03c0.41,0.69,0.62,1.81,0.62,3.36
		c0,1.55-0.21,2.67-0.62,3.34c-0.41,0.67-1.06,1.01-1.94,1.01c-0.4,0-0.75-0.08-1.03-0.22c-0.29-0.15-0.54-0.39-0.77-0.72h-0.03
		v3.47h-2.15V66.32H155.41z M145.79,68.6c0.11-0.55,0.3-1.01,0.56-1.38c0.26-0.37,0.6-0.65,1.02-0.84c0.42-0.19,0.93-0.29,1.55-0.29
		c0.64-0.01,1.18,0.08,1.6,0.26c0.42,0.18,0.76,0.46,1.01,0.83c0.25,0.37,0.42,0.83,0.53,1.38c0.1,0.55,0.16,1.19,0.16,1.93
		c0,0.71-0.06,1.35-0.17,1.9s-0.3,1.01-0.56,1.38c-0.26,0.37-0.6,0.64-1.02,0.82c-0.42,0.18-0.93,0.26-1.55,0.26
		c-0.64,0.01-1.18-0.07-1.6-0.24c-0.43-0.17-0.76-0.44-1.01-0.81c-0.25-0.37-0.42-0.83-0.53-1.38c-0.1-0.55-0.16-1.19-0.16-1.92
		C145.62,69.78,145.68,69.15,145.79,68.6 M147.79,71.68c0.02,0.36,0.07,0.67,0.15,0.93c0.08,0.26,0.19,0.46,0.35,0.61
		c0.16,0.15,0.36,0.22,0.62,0.22c0.43,0,0.73-0.23,0.9-0.68c0.17-0.46,0.25-1.21,0.25-2.25c0-1.05-0.08-1.8-0.25-2.25
		c-0.17-0.46-0.47-0.68-0.9-0.68c-0.26,0-0.47,0.07-0.62,0.22c-0.16,0.14-0.27,0.35-0.35,0.61c-0.08,0.26-0.13,0.57-0.15,0.93
		c-0.02,0.36-0.03,0.76-0.03,1.18S147.77,71.31,147.79,71.68 M142.78,66.32v1.12h0.03c0.22-0.4,0.48-0.73,0.79-0.97
		c0.31-0.24,0.69-0.37,1.13-0.37c0.06,0,0.13,0,0.19,0.01c0.07,0.01,0.13,0.01,0.19,0.02v2.05c-0.11-0.01-0.23-0.02-0.33-0.02
		c-0.11-0.01-0.22-0.01-0.33-0.01c-0.19,0-0.37,0.03-0.56,0.08c-0.19,0.05-0.36,0.14-0.51,0.26c-0.16,0.12-0.28,0.27-0.37,0.47
		c-0.09,0.19-0.14,0.43-0.14,0.71v5.02h-2.14v-8.36H142.78z M137.21,73.7c-0.23,0.41-0.52,0.71-0.89,0.89
		c-0.36,0.18-0.78,0.26-1.24,0.26c-0.68,0-1.21-0.18-1.58-0.54c-0.37-0.36-0.55-0.96-0.55-1.79v-6.2h2.14v5.77
		c0,0.44,0.07,0.74,0.22,0.91c0.15,0.17,0.38,0.26,0.7,0.26c0.76,0,1.13-0.46,1.13-1.38v-5.55h2.15v8.36h-2.05V73.7H137.21z
		 M131.74,65.41h-3.96v2.61h3.73v1.83h-3.73v2.98h4.12v1.83h-6.36v-11.1h6.2V65.41z"/>
</g>
</svg>
