<?xml version="1.0" encoding="utf-8"?>
<!-- Generator: Adobe Illustrator 19.0.0, SVG Export Plug-In . SVG Version: 6.00 Build 0)  -->
<svg version="1.1" id="Warstwa_1" xmlns="http://www.w3.org/2000/svg" xmlns:xlink="http://www.w3.org/1999/xlink" x="0px" y="0px"
	 viewBox="0 0 210.1 120.1" style="enable-background:new 0 0 210.1 120.1;" xml:space="preserve">
<style type="text/css">
	.st0{fill:#FEFEFE;}
	.st1{fill:#9F9F9F;}
	.st2{fill:#A1A1A1;}
	.st3{fill:#A5A5A5;}
	.st4{fill:#A2A2A2;}
	.st5{fill:#C8C8C8;}
	.st6{fill:#C4C4C4;}
	.st7{fill:#C9C9C9;}
	.st8{fill:#C0C0C0;}
	.st9{fill:#F6F6F6;}
	.st10{fill:#B9B9B9;}
	.st11{fill:#B7B7B7;}
	.st12{fill:#B4B4B4;}
	.st13{fill:#B3B3B3;}
	.st14{fill:#D1D1D1;}
	.st15{fill:#AEAEAE;}
	.st16{fill:#B6B6B6;}
	.st17{fill:#DADADA;}
	.st18{fill:#B5B5B5;}
	.st19{fill:#C3C3C3;}
	.st20{fill:#B0B0B0;}
	.st21{fill:#C7C7C7;}
	.st22{fill:#F5F5F5;}
	.st23{fill:#B1B1B1;}
	.st24{fill:#BFBFBF;}
	.st25{fill:#A4A4A4;}
	.st26{fill:#B2B2B2;}
	.st27{fill:#BCBCBC;}
	.st28{fill:#AAAAAA;}
	.st29{fill:#AFAFAF;}
	.st30{fill:#BABABA;}
	.st31{fill:#ACACAC;}
	.st32{fill:#CDCDCD;}
	.st33{fill:#F8F8F8;}
	.st34{fill:#E7E7E7;}
	.st35{fill:#D4D4D4;}
	.st36{fill:#F2F2F2;}
	.st37{fill:#D3D3D3;}
</style>
<g>
	<path class="st0" d="M-1.4,119.6c0-40.3,0-80.7,0-121c70,0,140,0,210,0c0,40.3,0,80.7,0,121C138.6,119.6,68.6,119.6-1.4,119.6z
		 M114.6,88.4c-0.1,0.1-0.1,0.1-0.2,0.2c0.2,0.3,0.5,0.5,0.7,0.8c0.1-0.1,0.2-0.2,0.3-0.3c-0.3-0.2-0.5-0.5-0.9-0.6
		c-0.3-0.3-0.7-0.7-1-1c-1,0.4-2.5-0.9-3,1c0,0.3,0,0.7,0,1c-0.3,0.3-0.7,0.5-1,0.8c0.3,0.4,0.7,0.8,1,1.2c0,0.3,0,0.7,0,1
		c0.3,0.3,0.7,0.7,1,1c0.7,0,1.3,0,2,0c0.6,0,1.2,0,2.1,0c-0.1-1.2-0.2-2.1-0.3-3c-0.8,0-1.3,0-1.8,0c-0.3,0.1-0.6,0.2-0.8,0.3
		c0.3,0.2,0.6,0.4,0.8,0.7c0.3,0.1,0.6,0.2,0.8,0.3c-0.3,0.2-0.6,0.4-0.8,0.7c-0.7,0-1.3,0-2,0c0-0.3,0-0.7,0-1c0-0.7,0-1.3,0-2
		c0-0.3,0-0.7,0-1c0.7,0,1.3,0,2,0C113.9,88.6,114.2,88.6,114.6,88.4z M96.6,88.6c-0.3-0.3-0.7-0.7-1-1c-0.9,0-1.9,0-3,0
		c0,1.3,0,2.3,0,3.2c0,0.9,0.1,1.9,0.2,2.8c1.2,0,2,0,2.8,0c0.8-0.2,1.9,0.5,2-1c0-1,0-2,0-3C97.2,89.2,96.9,88.9,96.6,88.6z
		 M83.6,87.6c-0.3-0.3-0.5-0.7-0.8-1c-0.4,0.3-0.8,0.7-1.2,1c-0.3,0.3-0.7,0.7-1,1c-0.7-0.3-1.3-0.7-2-1c-1.5,0.1-0.8,1.2-1,2
		c-0.9,0-1.9,0-2.7,0c-0.3-0.8-0.5-1.3-1.1-2.6c0,2.8,0,4.7,0,7.3c0.6-1.3,0.9-2,1.2-2.7c0.9,0,1.7,0,2.5,0c0.2,0.8-0.5,1.9,1,2
		c0.7-0.3,1.3-0.7,2-1c0.3,0.3,0.7,0.7,1,1c0.7,0,1.3,0,2,0c0.3-0.3,0.7-0.7,1-1c1.4-1.3,1.4-2.7,0-4C84.2,88.2,83.9,87.9,83.6,87.6
		z M105.6,90.6c0.3,0.3,0.7,0.7,1,1c0.2,0.8-0.5,1.9,1,2c0.3-0.3,0.7-0.7,1-1c-0.2-1.6,0.3-3.3-1-4.9c0,1,0,1.9,0,2.9
		c-0.3,0-0.7,0-1,0c-0.3-0.3-0.7-0.7-1-1c-0.2-0.8,0.5-1.9-1-2c-0.3,0.3-0.7,0.7-1,1c0.2,1.6-0.4,3.4,0.4,5.1
		c1.6-1.1-0.7-3.4,1.6-4.1C105.6,89.9,105.6,90.2,105.6,90.6z M88.6,93.6c1-0.1,1.9-0.2,2.9-0.3c0-0.2,0-0.5-0.1-0.7
		c-0.9,0-1.9,0-2.8,0c-0.3-1.7,0.5-3.5-0.5-5.1c-0.6,0.2-1.1,0.3-1.5,0.5c0,1.7,0,3.3,0,4.9c0,0.3,0.6,0.5,1,0.8
		C87.9,93.6,88.2,93.6,88.6,93.6z M52.1,41.6c1.7,1.7,3.2,3.2,4.7,4.7c1.4,1.4,2.8,2.9,4.2,4.2c1.5,1.4,2.7,3.2,4.7,4.2
		c3.1-3.6,6.8-10.4,8.7-15.5c1.4-3.7,1.3-7.5,1.1-11.3c-1.9-1.5-3.1-3.6-5.1-4.5C64.3,29.5,58.5,35.3,52.1,41.6z M88.6,44
		c-3.4-2.9-6.1-7.1-10.6-9.4c-1.4,4.1-2.6,8.2-4.2,12.2c-1.7,4.2-4.1,8.1-7.2,11.5c0.3,2.6,1.6,4.1,3.5,4.2
		C76.4,56.2,82.3,50.2,88.6,44z M122.4,68.8c-1.4,0-3,0-4.6,0c-1.9,2.2-2.1,5-2.9,7.8c-0.8-2.6-1.6-5.3-2.4-7.8c-1.7,0-3.3,0-4.7,0
		c0,4.7,0,9.1,0,13.8c1.1-0.1,2-0.1,2.8-0.2c0.2-2.8-0.2-5.3,0.6-7.8c0.5,3,0.9,5.9,3.3,8.3c3.3-2.5,2.2-6.8,5.1-9.6
		c0,3.2,0,6.1,0,9.1c1.1,0,1.9,0,2.8,0C122.4,77.9,122.4,73.5,122.4,68.8z M82.9,76.7c-0.6-2.7-1.1-5.3-1.7-7.9c-3,0-3.1,0-3.7,2.3
		c-0.5,1.8-1,3.6-1.6,5.9c-1-3.1-1.9-5.8-2.8-8.5c-1.1,0.1-1.9,0.1-2.9,0.2c1.3,4.9,2.4,9.4,3.5,13.7c1.3,0,2.4,0,3.4,0
		c0.6-2.7,1.1-5.3,1.8-8.6c1.1,3.4,1.9,6,2.8,9.1c1.3-0.5,2.4-0.9,3.1-1.1c1.3-4.7,2.4-8.9,3.6-13.2c-1.2,0-2,0-3.1,0
		c-0.4,2.2-0.9,4.3-1.4,6.8C84,75.6,83.5,76.1,82.9,76.7z M151.9,68.6c-1.2,1.5-2.5,3.3-4.2,5.4c-0.1-1.6-0.2-2.9-0.3-4
		c-1.2-1.3-2.3-2.2-3.7-1c0,4.6,0,9,0,13.6c1.3,0,2.4,0,3.4,0c0.5-1.7,0.9-3.3,1.5-5.5c1.2,2.2,2.1,3.8,3.1,5.6
		c1-0.1,1.9-0.1,3.4-0.2c-1.4-3.3-2.6-6.1-3.7-8.6c1.2-1.8,2.1-3.4,3.1-4.9c-0.4-0.2-0.5-0.3-0.7-0.3
		C153.3,68.5,152.8,68.6,151.9,68.6z M100.1,82.5c4.5-3.9,3.4-8.2,0.9-13.1c-1.9-0.3-4-0.7-5.2-0.9c-1.9,1.6-3.2,2.7-4.3,3.7
		c0.1,3.6-0.8,7.4,2.4,10.3C95.8,82.5,97.8,82.5,100.1,82.5z M131.5,68.6c-1.5,4.5-3.1,9.1-4.7,13.7c2.8,0,2.8,0,4.2-2.7
		c1.1,0,2.2,0,3.4,0c0.5,1,1.1,1.9,1.6,2.8c1.1,0,2.3,0,3.3,0c-1.4-4.6-2.7-9.2-4.1-13.8C134.1,68.6,133,68.6,131.5,68.6z
		 M99.7,87.6c0,1.9,0,3.8,0,5.8c0.6,0,1,0,1.7,0c0-1.9,0-3.8,0-5.8C100.8,87.6,100.3,87.6,99.7,87.6z"/>
	<path class="st1" d="M52.1,41.6c6.3-6.3,12.2-12.2,18.3-18.2c2,0.9,3.2,3,5.1,4.5c0.1,3.8,0.3,7.6-1.1,11.3
		c-1.9,5.1-5.6,11.9-8.7,15.5c-1.9-1-3.1-2.8-4.7-4.2c-1.5-1.4-2.8-2.8-4.2-4.2C55.3,44.8,53.8,43.3,52.1,41.6z"/>
	<path class="st1" d="M88.6,44C82.3,50.2,76.4,56.2,70,62.6c-1.9-0.1-3.2-1.6-3.5-4.2c3.1-3.4,5.5-7.3,7.2-11.5
		c1.6-4,2.8-8.2,4.2-12.2C82.4,36.9,85.1,41.1,88.6,44z"/>
	<path class="st2" d="M122.4,68.8c0,4.7,0,9.1,0,13.7c-0.9,0-1.7,0-2.8,0c0-2.9,0-5.9,0-9.1c-2.9,2.7-1.8,7.1-5.1,9.6
		c-2.4-2.5-2.8-5.4-3.3-8.3c-0.9,2.5-0.4,5-0.6,7.8c-0.8,0.1-1.7,0.1-2.8,0.2c0-4.7,0-9.1,0-13.8c1.4,0,3,0,4.7,0
		c0.8,2.6,1.6,5.2,2.4,7.8c0.8-2.8,1-5.7,2.9-7.8C119.4,68.8,121,68.8,122.4,68.8z"/>
	<path class="st2" d="M82.9,76.7c0.6-0.6,1-1,1.2-1.2c0.5-2.5,0.9-4.6,1.4-6.8c1.1,0,1.9,0,3.1,0c-1.2,4.3-2.3,8.4-3.6,13.2
		c-0.7,0.2-1.8,0.6-3.1,1.1c-0.9-3-1.8-5.7-2.8-9.1c-0.7,3.3-1.2,5.9-1.8,8.6c-1,0-2.1,0-3.4,0c-1.1-4.3-2.3-8.8-3.5-13.7
		c1.1-0.1,1.8-0.1,2.9-0.2c0.9,2.7,1.8,5.4,2.8,8.5c0.6-2.3,1.1-4.1,1.6-5.9c0.6-2.3,0.7-2.3,3.7-2.3C81.8,71.4,82.4,74,82.9,76.7z"
		/>
	<path class="st3" d="M151.9,68.6c0.9,0,1.4,0,1.9,0c0.1,0,0.3,0.1,0.7,0.3c-1,1.5-1.9,3-3.1,4.9c1.1,2.5,2.3,5.4,3.7,8.6
		c-1.5,0.1-2.4,0.1-3.4,0.2c-1-1.8-1.9-3.4-3.1-5.6c-0.6,2.1-1,3.8-1.5,5.5c-1,0-2.2,0-3.4,0c0-4.5,0-9,0-13.6
		c1.4-1.1,2.5-0.3,3.7,1c0.1,1.1,0.2,2.4,0.3,4C149.4,71.8,150.7,70.1,151.9,68.6z"/>
	<path class="st4" d="M100.1,82.5c-2.3,0-4.3,0-6.2,0c-3.3-2.9-2.3-6.6-2.4-10.3c1.2-1,2.4-2.1,4.3-3.7c1.2,0.2,3.4,0.6,5.2,0.9
		C103.5,74.2,104.6,78.5,100.1,82.5z M94.3,77.2c1.3,1.6,2,2.5,2.5,3.2c1.1-0.6,1.9-1,2.5-1.3c0-2.2,0-4.3,0-6.9
		c-1.2-0.3-2.3-0.6-3.8-0.9C95.1,73.7,94.7,75.7,94.3,77.2z"/>
	<path class="st2" d="M131.5,68.6c1.6,0,2.7,0,3.8,0c1.4,4.6,2.7,9.1,4.1,13.8c-1.1,0-2.2,0-3.3,0c-0.5-0.9-1-1.8-1.6-2.8
		c-1.3,0-2.4,0-3.4,0c-1.3,2.6-1.3,2.6-4.2,2.7C128.3,77.7,129.9,73.1,131.5,68.6z M133.6,77.6c0.3-0.3,0.7-0.5,1-0.8
		c-0.3-0.4-0.7-0.8-1-1.2c-0.1-0.6-0.2-1.3-0.4-2.4c-0.4,0.9-0.5,1.2-0.6,1.4c-0.3,0.3-0.7,0.7-1,1c0,0.6,0,1.2,0,2
		C132.4,77.6,133,77.6,133.6,77.6z"/>
	<path class="st5" d="M99.7,87.6c0.6,0,1.1,0,1.7,0c0,2,0,3.9,0,5.8c-0.6,0-1.1,0-1.7,0C99.7,91.5,99.7,89.6,99.7,87.6z"/>
	<path class="st6" d="M77.6,91.6c-0.8,0-1.6,0-2.5,0c-0.3,0.7-0.6,1.3-1.2,2.7c0-2.5,0-4.4,0-7.3c0.5,1.3,0.7,1.8,1.1,2.6
		c0.8,0,1.7,0,2.7,0C77.6,90.2,77.6,90.9,77.6,91.6z"/>
	<path class="st7" d="M87.6,93.6c-0.3-0.3-0.9-0.5-1-0.8c-0.1-1.6,0-3.2,0-4.9c0.5-0.1,0.9-0.3,1.5-0.5c0.9,1.7,0.2,3.5,0.5,5.1
		C88.2,92.9,87.9,93.2,87.6,93.6z"/>
	<path class="st8" d="M95.6,93.6c-0.8,0-1.7,0-2.8,0c-0.1-0.9-0.1-1.8-0.2-2.8c0-1,0-1.9,0-3.2c1.1,0,2.1,0,3,0c0,0.3,0,0.7,0,1
		c-0.6,0-1.2,0-2,0c0.1,1.6,0.1,2.8,0.2,4c0.8,0,1.3,0,1.8,0C95.6,92.9,95.6,93.2,95.6,93.6z"/>
	<path class="st9" d="M80.6,92.6c-0.7,0.3-1.3,0.7-2,1c0-0.7,0-1.3,0-2s0-1.3,0-2s0-1.3,0-2c0.7,0.3,1.3,0.7,2,1c0,0.3,0,0.7,0,1
		c-0.3,0.3-0.7,0.5-1,0.8c0.3,0.4,0.7,0.8,1,1.2C80.6,91.9,80.6,92.2,80.6,92.6z"/>
	<path class="st10" d="M105.6,89.6c-2.3,0.6,0,3-1.6,4.1c-0.8-1.7-0.2-3.4-0.4-5.1c0.3-0.3,0.7-0.7,1-1
		C106,87.6,105.4,88.8,105.6,89.6z"/>
	<path class="st11" d="M107.6,90.6c0-1,0-1.9,0-2.9c1.3,1.5,0.8,3.3,1,4.9c-0.3,0.3-0.7,0.7-1,1c-1.5-0.1-0.8-1.2-1-2
		C106.9,91.2,107.2,90.9,107.6,90.6z"/>
	<path class="st12" d="M113.6,90.6c0.5,0,1,0,1.8,0c0.1,0.9,0.2,1.8,0.3,3c-0.8,0-1.5,0-2.1,0c0-0.3,0-0.7,0-1
		c0.3-0.2,0.6-0.4,0.8-0.7c-0.3-0.1-0.6-0.2-0.8-0.3C113.6,91.2,113.6,90.9,113.6,90.6z"/>
	<path class="st13" d="M84.6,88.6c1.4,1.3,1.4,2.7,0,4C84.6,91.2,84.6,89.9,84.6,88.6z"/>
	<path class="st14" d="M110.6,91.6c-0.3-0.4-0.7-0.8-1-1.2c0.3-0.3,0.7-0.5,1-0.8c0.3,0,0.7,0,1,0c0,0.7,0,1.3,0,2
		C111.2,91.6,110.9,91.6,110.6,91.6z"/>
	<path class="st15" d="M97.6,89.6c0,1,0,2,0,3c-0.3,0-0.7,0-1,0c0-1,0-2,0-3C96.9,89.6,97.2,89.6,97.6,89.6z"/>
	<path class="st16" d="M80.6,88.6c0.3-0.3,0.7-0.7,1-1c0.7,0,1.3,0,2,0c0,0.3,0,0.7,0,1c-0.7,0-1.3,0-2,0
		C81.2,88.6,80.9,88.6,80.6,88.6z"/>
	<path class="st17" d="M88.6,92.6c0.9,0,1.9,0,2.8,0c0,0.2,0,0.5,0.1,0.7c-1,0.1-1.9,0.2-2.9,0.3C88.6,93.2,88.6,92.9,88.6,92.6z"/>
	<path class="st18" d="M110.6,88.6c0.5-1.9,2-0.6,3-1c0,0.3,0,0.7,0,1c-0.7,0-1.3,0-2,0C111.2,88.6,110.9,88.6,110.6,88.6z"/>
	<path class="st19" d="M107.6,90.6c-0.3,0.3-0.7,0.7-1,1c-0.3-0.3-0.7-0.7-1-1c0.3,0,0.7,0,1,0S107.2,90.6,107.6,90.6z"/>
	<path class="st20" d="M78.6,91.6c0,0.7,0,1.3,0,2c-1.5-0.1-0.8-1.2-1-2C77.9,91.6,78.2,91.6,78.6,91.6z"/>
	<path class="st21" d="M83.6,93.6c-0.7,0-1.3,0-2,0c0-0.3,0-0.7,0-1c0.7,0,1.3,0,2,0C83.6,92.9,83.6,93.2,83.6,93.6z"/>
	<path class="st10" d="M96.6,92.6c0.3,0,0.7,0,1,0c-0.1,1.5-1.2,0.8-2,1c0-0.3,0-0.7,0-1C95.9,92.6,96.2,92.6,96.6,92.6z"/>
	<path class="st6" d="M113.6,92.6c0,0.3,0,0.7,0,1c-0.7,0-1.3,0-2,0c0-0.3,0-0.7,0-1C112.2,92.6,112.9,92.6,113.6,92.6z"/>
	<path class="st22" d="M83.6,87.6c-0.7,0-1.3,0-2,0c0.4-0.3,0.8-0.7,1.2-1C83,86.9,83.3,87.2,83.6,87.6z"/>
	<path class="st23" d="M78.6,87.6c0,0.7,0,1.3,0,2c-0.3,0-0.7,0-1,0C77.7,88.8,77.1,87.6,78.6,87.6z"/>
	<path class="st24" d="M111.6,92.6c0,0.3,0,0.7,0,1c-0.3-0.3-0.7-0.7-1-1C110.9,92.6,111.2,92.6,111.6,92.6z"/>
	<path class="st25" d="M107.6,93.6c0.3-0.3,0.7-0.7,1-1C108.2,92.9,107.9,93.2,107.6,93.6z"/>
	<path class="st18" d="M88.6,92.6c0,0.3,0,0.7,0,1c-0.3,0-0.7,0-1,0C87.9,93.2,88.2,92.9,88.6,92.6z"/>
	<path class="st26" d="M83.6,93.6c0-0.3,0-0.7,0-1c0.3,0,0.7,0,1,0C84.2,92.9,83.9,93.2,83.6,93.6z"/>
	<path class="st24" d="M81.6,92.6c0,0.3,0,0.7,0,1c-0.3-0.3-0.7-0.7-1-1C80.9,92.6,81.2,92.6,81.6,92.6z"/>
	<path class="st26" d="M111.6,92.6c-0.3,0-0.7,0-1,0c0-0.3,0-0.7,0-1c0.3,0,0.7,0,1,0C111.6,91.9,111.6,92.2,111.6,92.6z"/>
	<path class="st23" d="M83.6,88.6c0-0.3,0-0.7,0-1c0.3,0.3,0.7,0.7,1,1C84.2,88.6,83.9,88.6,83.6,88.6z"/>
	<path class="st20" d="M95.6,88.6c0-0.3,0-0.7,0-1c0.3,0.3,0.7,0.7,1,1C96.2,88.6,95.9,88.6,95.6,88.6z"/>
	<path class="st27" d="M113.6,90.6c0,0.3,0,0.7,0,1c-0.3-0.2-0.6-0.4-0.8-0.7C113,90.8,113.3,90.7,113.6,90.6z"/>
	<path class="st28" d="M104.6,87.6c-0.3,0.3-0.7,0.7-1,1C103.9,88.2,104.2,87.9,104.6,87.6z"/>
	<path class="st29" d="M113.6,88.6c0-0.3,0-0.7,0-1c0.3,0.3,0.7,0.7,1,1C114.2,88.6,113.9,88.6,113.6,88.6z"/>
	<path class="st30" d="M106.6,90.6c-0.3,0-0.7,0-1,0c0-0.3,0-0.7,0-1C105.9,89.9,106.2,90.2,106.6,90.6z"/>
	<path class="st31" d="M97.6,89.6c-0.3,0-0.7,0-1,0c0-0.3,0-0.7,0-1C96.9,88.9,97.2,89.2,97.6,89.6z"/>
	<path class="st31" d="M110.6,88.6c0.3,0,0.7,0,1,0c0,0.3,0,0.7,0,1c-0.3,0-0.7,0-1,0C110.6,89.2,110.6,88.9,110.6,88.6z"/>
	<path class="st32" d="M114.6,88.4c0.3,0.2,0.5,0.5,0.8,0.7c-0.1,0.1-0.2,0.2-0.3,0.3c-0.2-0.3-0.5-0.5-0.7-0.8
		C114.5,88.6,114.6,88.5,114.6,88.4z"/>
	<path class="st33" d="M94.3,77.2c0.3-1.5,0.8-3.5,1.3-5.9c1.4,0.3,2.6,0.6,3.8,0.9c0,2.5,0,4.6,0,6.9c-0.6,0.3-1.4,0.7-2.5,1.3
		C96.3,79.7,95.6,78.8,94.3,77.2z"/>
	<path class="st34" d="M132.6,74.6c0.1-0.3,0.2-0.6,0.6-1.4c0.2,1.2,0.3,1.8,0.4,2.4c0,0.7,0,1.3,0,2c-0.6,0-1.2,0-2,0
		c0-0.8,0-1.4,0-2C131.9,75.2,132.2,74.9,132.6,74.6z"/>
	<path class="st35" d="M133.6,77.6c0-0.7,0-1.3,0-2c0.3,0.4,0.7,0.8,1,1.2C134.2,77,133.9,77.3,133.6,77.6z"/>
	<path class="st35" d="M132.6,74.6c-0.3,0.3-0.7,0.7-1,1C131.9,75.2,132.2,74.9,132.6,74.6z"/>
	<path class="st28" d="M77.6,89.6c0.3,0,0.7,0,1,0c0,0.7,0,1.3,0,2c-0.3,0-0.7,0-1,0C77.6,90.9,77.6,90.2,77.6,89.6z"/>
	<path class="st36" d="M96.6,88.6c0,0.3,0,0.7,0,1c0,1,0,2,0,3c-0.3,0-0.7,0-1,0c-0.5,0-1,0-1.8,0c-0.1-1.2-0.1-2.4-0.2-4
		c0.8,0,1.4,0,2,0C95.9,88.6,96.2,88.6,96.6,88.6z"/>
	<path class="st37" d="M80.6,91.6c-0.3-0.4-0.7-0.8-1-1.2c0.3-0.3,0.7-0.5,1-0.8c0.3,0,0.7,0,1,0c0,0.7,0,1.3,0,2
		C81.2,91.6,80.9,91.6,80.6,91.6z"/>
	<path class="st26" d="M80.6,91.6c0.3,0,0.7,0,1,0c0,0.3,0,0.7,0,1c-0.3,0-0.7,0-1,0C80.6,92.2,80.6,91.9,80.6,91.6z"/>
	<path class="st31" d="M81.6,89.6c-0.3,0-0.7,0-1,0c0-0.3,0-0.7,0-1c0.3,0,0.7,0,1,0C81.6,88.9,81.6,89.2,81.6,89.6z"/>
	<path class="st22" d="M81.6,89.6c0-0.3,0-0.7,0-1c0.7,0,1.3,0,2,0c0.3,0,0.7,0,1,0c0,1.3,0,2.7,0,4c-0.3,0-0.7,0-1,0
		c-0.7,0-1.3,0-2,0c0-0.3,0-0.7,0-1C81.6,90.9,81.6,90.2,81.6,89.6z"/>
</g>
</svg>
