<?xml version="1.0" encoding="utf-8"?>
<!-- Generator: Adobe Illustrator 25.1.0, SVG Export Plug-In . SVG Version: 6.00 Build 0)  -->
<svg version="1.1" id="Warstwa_1" xmlns="http://www.w3.org/2000/svg" xmlns:xlink="http://www.w3.org/1999/xlink" x="0px" y="0px"
	 viewBox="0 0 210 120" style="enable-background:new 0 0 210 120;" xml:space="preserve">
<style type="text/css">
	.st0{fill:#9F9F9F;}
</style>
<g>
	<polygon class="st0" points="89.53,80.06 86.89,80.06 85.01,72.45 84.97,72.45 83.17,80.06 80.55,80.06 77.58,68.56 80.33,68.56 
		82.09,76.3 82.13,76.3 83.99,68.56 86.47,68.56 88.39,76.3 88.43,76.3 88.53,75.8 90.2,68.56 92.42,68.56 	"/>
	<g>
		<path class="st0" d="M98.03,71.9c-0.27,0.69-0.37,1.68-0.37,2.4c0,1.44,0.22,3.74,2.11,3.74c0.92,0,1.42-0.45,1.73-1.31
			c0.27-0.7,0.35-1.66,0.35-2.41c0-0.84-0.08-1.83-0.42-2.6c-0.34-0.77-0.82-1.12-1.66-1.12C98.85,70.59,98.35,71.06,98.03,71.9
			 M96.05,78.42c-0.84-1.19-1.21-2.68-1.21-4.12c0-3.05,1.52-5.9,4.93-5.9c1.52,0,2.73,0.5,3.65,1.76c0.82,1.12,1.24,2.75,1.24,4.14
			c0,1.31-0.35,2.9-1.09,3.99c-0.89,1.31-2.25,1.94-3.8,1.94S96.96,79.69,96.05,78.42"/>
	</g>
	<polygon class="st0" points="115.02,80.06 113.18,80.06 110.38,70.69 110.35,70.69 110.35,80.06 108.08,80.06 108.08,68.56 
		112.29,68.56 114.3,75.45 116.41,68.56 120.62,68.56 120.62,80.06 117.94,80.06 117.94,70.69 117.87,70.69 	"/>
	<path class="st0" d="M130.4,75.58l-1.22-4.04l-1.22,4.04H130.4z M134.63,80.06h-2.9l-0.7-2.36h-3.72l-0.72,2.36h-2.36l3.69-11.5
		h3.12L134.63,80.06z"/>
	<polygon class="st0" points="140.89,73.98 144.5,68.56 147.08,68.56 144.31,72.67 147.76,80.06 144.8,80.06 142.52,75.08 
		140.89,77.41 140.89,80.06 138.28,80.06 138.28,68.56 140.89,68.56 	"/>
	<path class="st0" d="M81.91,34.94l-4.36-4.36L62.24,45.89l11.32,11.32C78.82,50.69,82.41,42.74,81.91,34.94"/>
	<path class="st0" d="M74.03,60.39l3.52,3.52L92.86,48.6l-9.6-9.6C83.49,46.37,78.5,55.29,74.03,60.39"/>
	<g>
		<path class="st0" d="M83.71,89.34v-2.52h-2.46v2.52h-0.67v-5.31h0.67v2.2h2.46v-2.2h0.67v5.31H83.71z"/>
		<path class="st0" d="M85.71,86.73c0-1.32,0.65-2.77,2.18-2.77c1.49,0,2.18,1.36,2.18,2.67c0,1.3-0.67,2.79-2.17,2.79
			C86.38,89.42,85.71,88.06,85.71,86.73z M89.38,86.66c0-0.47-0.08-1.02-0.32-1.45c-0.24-0.42-0.65-0.71-1.14-0.71
			c-1.18,0-1.51,1.28-1.51,2.23c0,0.91,0.37,2.14,1.49,2.14C89.04,88.88,89.38,87.58,89.38,86.66z"/>
		<path class="st0" d="M94.69,89.34h-3.13v-5.31h0.67v4.72h2.47V89.34z"/>
		<path class="st0" d="M96.21,84.03h1.68c0.76,0,1.32,0.15,1.83,0.75c0.46,0.53,0.64,1.2,0.64,1.89c0,0.65-0.17,1.29-0.55,1.83
			c-0.43,0.6-0.97,0.84-1.7,0.84h-1.89V84.03z M97.85,88.78c0.61,0,1.1-0.14,1.45-0.67c0.26-0.4,0.39-0.95,0.39-1.43
			c0-0.54-0.14-1.11-0.49-1.54c-0.36-0.46-0.79-0.54-1.35-0.54h-0.97v4.18H97.85z"/>
		<path class="st0" d="M102.1,89.34v-5.31h0.67v5.31H102.1z"/>
		<path class="st0" d="M109.03,89.34h-0.65l-2.7-4.63v4.63h-0.56v-5.31h0.84l2.51,4.32v-4.32h0.56V89.34z"/>
		<path class="st0" d="M114.73,89.38h-0.41l-0.18-0.66c-0.33,0.49-0.89,0.7-1.47,0.7c-0.71,0-1.23-0.26-1.66-0.82
			c-0.4-0.55-0.56-1.18-0.56-1.86c0-1.39,0.73-2.78,2.3-2.78c1.01,0,1.67,0.57,1.92,1.52l-0.63,0.15c-0.13-0.67-0.64-1.12-1.34-1.12
			c-1.2,0-1.53,1.22-1.53,2.2c0,0.46,0.09,1,0.3,1.41c0.24,0.45,0.71,0.76,1.24,0.76c0.82,0,1.33-0.56,1.33-1.36v-0.29h-1.32v-0.56
			h2V89.38z"/>
	</g>
</g>
</svg>
