<?xml version="1.0" encoding="utf-8"?>
<!-- Generator: Adobe Illustrator 25.1.0, SVG Export Plug-In . SVG Version: 6.00 Build 0)  -->
<svg version="1.1" id="Warstwa_1" xmlns="http://www.w3.org/2000/svg" xmlns:xlink="http://www.w3.org/1999/xlink" x="0px" y="0px"
	 viewBox="0 0 210 120" style="enable-background:new 0 0 210 120;" xml:space="preserve">
<style type="text/css">
	.st0{fill:#9F9F9F;}
</style>
<g>
	<path class="st0" d="M99.99,85.55l-2.68-3.25l2.52-2.92h0.41v-0.74h-0.76l-4.12,4.77v-4.77h-0.75v8.07h0.75v-2.14l1.45-1.7
		l2.61,3.16c0.41,0.5,0.65,0.67,1.15,0.67h0.29v-0.75h-0.29C100.4,85.95,100.31,85.94,99.99,85.55"/>
	<polygon class="st0" points="103.7,76.03 104.43,76.03 104.43,75.72 107.97,75.72 107.97,86.71 108.7,86.71 108.7,75.72 
		112.24,75.72 112.24,76.03 112.97,76.03 112.97,74.97 103.7,74.97 	"/>
	<path class="st0" d="M118.03,78.49c-2.22,0-4.03,1.88-4.03,4.19c0,2.31,1.81,4.19,4.03,4.19c2.22,0,4.03-1.88,4.03-4.19
		C122.06,80.37,120.26,78.49,118.03,78.49 M118.03,86.11c-1.82,0-3.3-1.55-3.3-3.44c0-1.9,1.48-3.45,3.3-3.45
		c1.81,0,3.28,1.55,3.28,3.45C121.31,84.57,119.84,86.11,118.03,86.11"/>
	<path class="st0" d="M127.87,78.64h-3.57v0.73h0.29v7.33h0.75v-2.44h2.62c1.59,0,2.88-1.27,2.88-2.82
		C130.85,79.87,129.54,78.64,127.87,78.64 M127.86,83.51h-2.51v-4.14h2.51c1.24,0,2.24,0.93,2.24,2.07
		C130.1,82.59,129.09,83.51,127.86,83.51"/>
	<path class="st0" d="M135.33,78.49l-3.23,7.46h-0.25v0.75h0.74l0.79-1.83h4.39l0.85,1.97l0.69-0.3l-3.46-8.06H135.33z M133.7,84.13
		l1.88-4.36l1.88,4.36H133.7z"/>
	<path class="st0" d="M147.34,85.02c-0.67,0.7-1.56,1.09-2.51,1.09c-1.91,0-3.45-1.54-3.45-3.44c0-1.9,1.55-3.45,3.45-3.45
		c0.82,0,1.56,0.27,2.22,0.82v0.26h0.73v-0.6l-0.12-0.1c-0.79-0.72-1.8-1.11-2.83-1.11c-2.31,0-4.19,1.88-4.19,4.18
		c0,2.31,1.88,4.19,4.19,4.19c1.17,0,2.26-0.47,3.07-1.32l0.05-0.05l-0.56-0.52L147.34,85.02z"/>
	<polygon class="st0" points="155.21,85.65 155.21,85.95 150.72,85.95 155.8,79.15 155.81,79.13 155.81,78.64 149.88,78.64 
		149.88,79.69 150.62,79.69 150.62,79.38 154.69,79.38 149.58,86.26 149.58,86.71 155.97,86.71 155.97,85.65 	"/>
	<rect x="124.68" y="67.3" class="st0" width="31.34" height="0.5"/>
	<rect x="53.99" y="67.31" class="st0" width="28.37" height="0.49"/>
	<rect x="53.98" y="69.45" class="st0" width="102.04" height="1.03"/>
	<rect x="143.19" y="94.17" class="st0" width="7.52" height="0.33"/>
	<rect x="60.83" y="94.17" class="st0" width="7.62" height="0.33"/>
	<path class="st0" d="M77.18,95.68l-0.88-1.37c-0.12-0.19-0.23-0.32-0.34-0.41c1.2-0.1,1.75-0.91,1.75-1.65
		c0-0.87-0.69-1.75-2.01-1.75h-2.23v0.47h0.14v5.44h0.47v-2.42h0.67c0.75,0,0.81,0.02,1.16,0.58l0.88,1.36
		c0.25,0.4,0.48,0.48,0.79,0.48H78v-0.47h-0.43C77.39,95.94,77.32,95.91,77.18,95.68 M74.08,90.97h1.62c1.06,0,1.54,0.66,1.54,1.28
		c0,0.62-0.48,1.28-1.54,1.28h-1.62V90.97z"/>
	<polygon class="st0" points="81.59,95.94 79.63,95.94 79.63,94.59 81.15,94.59 81.15,94.13 79.63,94.13 79.63,92.78 81.28,92.78 
		81.28,92.93 81.75,92.93 81.75,92.32 79.02,92.32 79.02,92.78 79.17,92.78 79.17,96.4 82.05,96.4 82.05,95.79 81.59,95.79 	"/>
	<path class="st0" d="M84.82,94.06c-0.59-0.19-1.15-0.38-1.15-0.79c0-0.2,0.41-0.57,0.98-0.57c0.39,0,0.73,0.11,0.98,0.31v0.14h0.46
		v-0.34l-0.07-0.07c-0.43-0.42-0.98-0.51-1.38-0.51c-0.76,0-1.44,0.49-1.44,1.03c0,0.74,0.8,1,1.51,1.24
		c0.63,0.21,1.22,0.4,1.22,0.87c0,0.25-0.35,0.64-1.28,0.64c-0.75,0-1.12-0.26-1.28-0.43v-0.17h-0.46v0.33l0.04,0.06
		c0.16,0.2,0.65,0.67,1.7,0.67c1.04,0,1.75-0.44,1.75-1.1C86.4,94.58,85.56,94.3,84.82,94.06"/>
	<path class="st0" d="M89.3,92.24c-1.13,0-2.04,0.95-2.04,2.12c0,1.17,0.92,2.12,2.04,2.12c1.12,0,2.04-0.95,2.04-2.12
		C91.34,93.19,90.43,92.24,89.3,92.24 M89.3,96.01c-0.88,0-1.59-0.74-1.59-1.65c0-0.92,0.71-1.66,1.59-1.66
		c0.87,0,1.58,0.75,1.58,1.66C90.88,95.27,90.17,96.01,89.3,96.01"/>
	<path class="st0" d="M95.25,95.76l-0.62-0.75c-0.07-0.09-0.14-0.17-0.2-0.24c0.66-0.21,0.97-0.75,0.97-1.22
		c0-0.59-0.48-1.23-1.52-1.23h-1.51v0.46h0.14v3.63h0.46v-1.51h0.53c0.45,0,0.48,0.03,0.71,0.32l0.69,0.84
		c0.2,0.24,0.34,0.35,0.6,0.35h0.19v-0.47H95.5C95.41,95.94,95.39,95.92,95.25,95.76 M92.97,92.78h0.9c0.78,0,1.05,0.42,1.05,0.78
		c0,0.43-0.37,0.88-1.06,0.88h-0.89V92.78z"/>
	<polygon class="st0" points="96.55,92.93 97.01,92.93 97.01,92.78 98.06,92.78 98.06,96.41 98.52,96.41 98.52,92.78 99.57,92.78 
		99.57,92.93 100.04,92.93 100.04,92.32 96.55,92.32 	"/>
	<path class="st0" d="M106.8,94.73c0-0.53-0.41-0.97-0.92-0.97h-0.23v0.6h0.47V94.3c0.14,0.09,0.23,0.25,0.23,0.43
		c0,0.37-0.15,0.7-0.43,0.92l-0.95-1.02c-0.65-0.71-0.81-0.89-0.81-1.18c0-0.42,0.34-0.76,0.75-0.76c0.33,0,0.58,0.18,0.69,0.37
		h-0.1v0.46h0.62v-0.23c0-0.59-0.54-1.06-1.21-1.06c-0.67,0-1.21,0.55-1.21,1.21c0,0.19,0.05,0.36,0.16,0.55
		c-0.47,0.27-0.76,0.72-0.76,1.19c0,0.64,0.55,1.28,1.76,1.28c0.33,0,0.68-0.08,0.99-0.24c0.13,0.11,0.28,0.16,0.43,0.16h0.75v-0.47
		h-0.73C106.54,95.7,106.8,95.32,106.8,94.73 M104.09,94.37c0.13,0.16,0.3,0.36,0.52,0.58l0.88,0.94c-0.2,0.07-0.42,0.12-0.64,0.12
		c-0.96,0-1.31-0.44-1.31-0.82C103.54,94.89,103.75,94.57,104.09,94.37"/>
	<path class="st0" d="M127.87,93.11c-1.08-0.38-1.78-0.68-1.78-1.27c0-0.54,0.68-0.95,1.59-0.95c0.58,0,1.19,0.21,1.57,0.54v0.2
		h0.47v-0.39l-0.07-0.08c-0.55-0.54-1.4-0.73-1.96-0.73c-1.19,0-2.05,0.6-2.05,1.41c0,0.95,1.09,1.34,1.97,1.66l0.11,0.04
		c1.08,0.4,1.84,0.74,1.84,1.46c0,0.49-0.59,1.02-1.88,1.02c-0.79,0-1.56-0.4-1.89-0.67v-0.2h-0.46v0.39l0.07,0.07
		c0.37,0.37,1.33,0.88,2.28,0.88c1.4,0,2.34-0.6,2.34-1.49C130.02,93.88,128.83,93.46,127.87,93.11"/>
	<path class="st0" d="M132.85,92.32h-1.81v0.46h0.14v3.63h0.47V95.2h1.25c0.82,0,1.48-0.65,1.48-1.44
		C134.37,92.95,133.7,92.32,132.85,92.32 M131.65,92.78h1.2c0.59,0,1.06,0.44,1.06,0.97c0,0.54-0.47,0.98-1.06,0.98h-1.2V92.78z"/>
	<path class="st0" d="M136.51,92.24l-1.6,3.7h-0.14v0.47h0.45l0.39-0.9h2.11l0.42,0.99l0.43-0.18l-1.75-4.07H136.51z M137.52,95.03
		h-1.72l0.86-1.99L137.52,95.03z"/>
	<path class="st0" d="M125.64,47.46h-0.62c0-0.01,0-0.02,0-0.03l-1.42-9.82c-0.01-0.07-0.05-0.12-0.1-0.16c0,0-0.01,0-0.01,0
		c0,0-0.01,0-0.01,0c-0.01-0.01-0.02-0.01-0.03-0.01c-0.02,0-0.04-0.01-0.06-0.01c-0.05,0-0.1,0-0.14,0h-2.88v-1.72l12.95,0
		l-0.01,11.88h0.29l0.01-12.17l-13.53,0.01v2.01h-2.07c0.02-0.03,0.04-0.06,0.04-0.1c0.02-0.17,0.02-0.21-1.05-0.66l0.01-0.65
		c0-0.09-0.06-0.18-0.15-0.21c-0.74-0.25-0.87-1.15-0.87-1.16c-0.01-0.11-0.11-0.19-0.22-0.19h-1.09c-0.11,0-0.2,0.08-0.21,0.19
		c0,0.01-0.13,0.92-0.87,1.16c-0.09,0.03-0.15,0.12-0.15,0.21l0.01,0.65c-1.07,0.45-1.07,0.48-1.05,0.65
		c0.01,0.04,0.02,0.07,0.04,0.1h-6.1c0.04-0.03,0.06-0.08,0.07-0.13c0.02-0.17,0.02-0.21-1.05-0.66l0.01-0.65
		c0-0.1-0.06-0.18-0.15-0.21c-0.74-0.25-0.87-1.15-0.87-1.16c-0.01-0.11-0.11-0.19-0.22-0.19h-1.09c-0.11,0-0.2,0.08-0.22,0.19
		c0,0.01-0.13,0.92-0.87,1.16c-0.09,0.03-0.15,0.11-0.15,0.21l0.01,0.65c-1.07,0.45-1.07,0.48-1.05,0.66
		c0.01,0.05,0.03,0.1,0.07,0.13h-6.19c0.02-0.03,0.04-0.06,0.04-0.1c0.02-0.17,0.02-0.21-1.05-0.66l0.01-0.65
		c0-0.09-0.06-0.18-0.15-0.21c-0.74-0.25-0.87-1.15-0.87-1.16c-0.01-0.11-0.11-0.19-0.22-0.19H91.4c-0.11,0-0.2,0.08-0.22,0.19
		c0,0.01-0.13,0.92-0.87,1.16c-0.09,0.03-0.15,0.12-0.15,0.21l0.01,0.65c-1.07,0.45-1.07,0.48-1.05,0.65c0,0.04,0.02,0.07,0.04,0.1
		h-5.19c-0.06,0-0.12,0.03-0.15,0.06c-0.03,0.03-0.06,0.07-0.07,0.12c-0.01,0.02-0.02,0.05-0.02,0.07l-1.46,9.78h-0.67l-0.29,1.6
		h44.57L125.64,47.46z M124.23,47.46l-1.3-9.02c-0.01-0.08-0.08-0.13-0.16-0.12c-0.08,0.01-0.14,0.08-0.12,0.16l1.29,8.98H83.4
		l1.34-8.98c0.01-0.08-0.04-0.15-0.12-0.16c-0.08-0.01-0.15,0.04-0.16,0.12l-1.35,9.03h-0.39l1.43-9.6h5.24c0,0.04,0,0.07-0.01,0.1
		c-0.15,0.26-0.55,0.1-0.56,0.09c-0.08-0.04-0.18-0.02-0.24,0.05c-0.06,0.07-0.08,0.16-0.04,0.24c0.15,0.33,0.5,1.33,0.07,1.62
		c-0.2,0.13-0.51,0.16-0.69,0.06c-0.13-0.07-0.19-0.18-0.19-0.36c0-0.18,0.04-0.3,0.12-0.34c0.06-0.03,0.14-0.01,0.15,0l0.36-0.24
		c-0.1-0.17-0.36-0.25-0.59-0.19c-0.14,0.04-0.48,0.19-0.48,0.78c0,0.34,0.15,0.6,0.42,0.74c0.33,0.17,0.81,0.14,1.14-0.08
		c0.58-0.39,0.4-1.27,0.23-1.78c0.24,0,0.48-0.07,0.65-0.32c0.01-0.01,0.02-0.02,0.03-0.04c0.06-0.1,0.08-0.21,0.07-0.32
		c-0.01-0.18-0.07-0.35-0.11-0.43c0,0,0,0,0-0.01c-0.01-0.02-0.02-0.04-0.03-0.06c0.06-0.03,0.12-0.06,0.19-0.09
		c0.18-0.08,0.41-0.18,0.61-0.26c0.08-0.03,0.14-0.12,0.13-0.21l-0.01-0.65c0.65-0.29,0.89-0.95,0.97-1.27h0.73
		c0.08,0.33,0.32,0.98,0.97,1.27l-0.01,0.65c0,0.09,0.05,0.17,0.13,0.21c0.22,0.09,0.46,0.2,0.65,0.28c0.05,0.02,0.1,0.05,0.15,0.07
		c-0.01,0.02-0.02,0.04-0.03,0.06c0,0,0,0.01,0,0.01c-0.04,0.08-0.1,0.25-0.11,0.43c0,0.11,0.01,0.22,0.07,0.32
		c0.01,0.01,0.02,0.03,0.03,0.04c0.16,0.24,0.41,0.32,0.64,0.32h0.01c-0.17,0.51-0.36,1.39,0.23,1.79c0.19,0.13,0.43,0.19,0.66,0.19
		c0.17,0,0.34-0.04,0.48-0.11c0.27-0.14,0.42-0.41,0.42-0.74c0-0.58-0.33-0.74-0.48-0.78c-0.23-0.06-0.49,0.02-0.59,0.19l0.36,0.24
		c0.02-0.01,0.09-0.03,0.15,0c0.08,0.04,0.12,0.16,0.12,0.34c0,0.17-0.06,0.29-0.19,0.36c-0.19,0.1-0.49,0.07-0.69-0.06
		c-0.42-0.29-0.08-1.29,0.07-1.62c0.04-0.08,0.02-0.18-0.04-0.24c-0.06-0.06-0.16-0.08-0.24-0.05c0,0-0.4,0.17-0.56-0.09
		c-0.01-0.02-0.02-0.06-0.01-0.1h6.6c0,0.03,0,0.05-0.01,0.07c-0.16,0.26-0.55,0.1-0.56,0.09c-0.08-0.04-0.18-0.02-0.24,0.05
		c-0.06,0.07-0.08,0.16-0.04,0.24c0.15,0.33,0.5,1.33,0.07,1.62c-0.2,0.13-0.5,0.16-0.69,0.06c-0.13-0.07-0.19-0.18-0.19-0.36
		c0-0.18,0.04-0.3,0.12-0.34c0.06-0.03,0.14-0.01,0.15,0l0.36-0.24c-0.1-0.17-0.36-0.25-0.59-0.19C99.33,38.9,99,39.05,99,39.64
		c0,0.33,0.15,0.6,0.42,0.74c0.33,0.17,0.81,0.14,1.14-0.08c0.59-0.39,0.4-1.27,0.23-1.78c0.23,0,0.48-0.07,0.64-0.31
		c0.01-0.02,0.02-0.03,0.03-0.05c0.05-0.09,0.07-0.19,0.07-0.29c0-0.17-0.06-0.34-0.1-0.44c-0.01-0.01-0.01-0.02-0.01-0.03
		c-0.01-0.03-0.02-0.05-0.03-0.07c0.05-0.03,0.11-0.05,0.17-0.08c0.19-0.08,0.42-0.18,0.63-0.27c0.08-0.03,0.14-0.12,0.13-0.21
		l-0.01-0.65c0.65-0.29,0.89-0.95,0.97-1.27h0.73c0.08,0.32,0.32,0.98,0.97,1.27l-0.01,0.65c0,0.09,0.05,0.17,0.14,0.21
		c0.23,0.09,0.48,0.2,0.67,0.29c0.05,0.02,0.09,0.04,0.13,0.06c-0.01,0.02-0.02,0.04-0.03,0.07c0,0.01-0.01,0.02-0.01,0.03
		c-0.04,0.1-0.1,0.26-0.1,0.44c0,0.1,0.02,0.2,0.07,0.29c0.01,0.02,0.02,0.03,0.03,0.05c0.17,0.24,0.41,0.31,0.64,0.31
		c-0.17,0.51-0.35,1.39,0.23,1.78c0.19,0.13,0.43,0.19,0.66,0.19c0.17,0,0.34-0.03,0.48-0.11c0.27-0.14,0.42-0.41,0.42-0.74
		c0-0.58-0.33-0.74-0.47-0.78c-0.23-0.06-0.49,0.02-0.59,0.19l0.36,0.24c0.02-0.01,0.09-0.03,0.15,0c0.08,0.04,0.12,0.16,0.12,0.34
		c0,0.17-0.06,0.29-0.19,0.36c-0.19,0.1-0.49,0.07-0.69-0.06c-0.42-0.29-0.08-1.29,0.07-1.62c0.04-0.08,0.02-0.18-0.04-0.24
		c-0.06-0.06-0.16-0.08-0.24-0.05c0,0-0.4,0.17-0.56-0.09c-0.01-0.02-0.01-0.04-0.01-0.07h6.51c0,0.04,0,0.07-0.01,0.1
		c-0.16,0.26-0.55,0.1-0.56,0.09c-0.08-0.04-0.18-0.02-0.24,0.05c-0.06,0.07-0.08,0.16-0.04,0.24c0.15,0.33,0.5,1.33,0.07,1.62
		c-0.2,0.13-0.5,0.16-0.69,0.06c-0.12-0.07-0.18-0.18-0.18-0.36c0-0.18,0.04-0.3,0.12-0.34c0.06-0.03,0.13-0.01,0.15,0l0.36-0.24
		c-0.1-0.17-0.36-0.25-0.59-0.19c-0.14,0.04-0.48,0.19-0.48,0.78c0,0.34,0.15,0.6,0.42,0.74c0.33,0.17,0.81,0.14,1.14-0.08
		c0.59-0.39,0.4-1.27,0.23-1.78c0.25,0.01,0.51-0.08,0.67-0.36c0.16-0.26,0.03-0.61-0.04-0.75c-0.01-0.03-0.02-0.05-0.03-0.07
		c0.2-0.09,0.52-0.23,0.8-0.35c0.08-0.03,0.14-0.12,0.13-0.21l-0.01-0.65c0.65-0.29,0.89-0.95,0.97-1.27h0.73
		c0.08,0.33,0.32,0.98,0.97,1.27l-0.02,0.65c0,0.09,0.05,0.17,0.14,0.21c0.28,0.12,0.6,0.26,0.8,0.35
		c-0.01,0.02-0.02,0.05-0.03,0.07c-0.06,0.14-0.19,0.49-0.04,0.75c0.16,0.27,0.43,0.36,0.67,0.36h0.01
		c-0.17,0.51-0.35,1.39,0.23,1.79c0.19,0.13,0.43,0.19,0.66,0.19c0.17,0,0.34-0.04,0.48-0.11c0.27-0.14,0.42-0.41,0.42-0.74
		c0-0.58-0.33-0.74-0.48-0.78c-0.23-0.06-0.49,0.02-0.59,0.19c0,0,0.36,0.24,0.36,0.24c0.02-0.01,0.09-0.03,0.15,0
		c0.08,0.04,0.12,0.16,0.12,0.34c0,0.17-0.06,0.29-0.19,0.36c-0.19,0.1-0.49,0.07-0.69-0.06c-0.42-0.29-0.08-1.29,0.07-1.62
		c0.04-0.08,0.02-0.18-0.04-0.24c-0.06-0.06-0.16-0.08-0.24-0.05c0,0-0.4,0.17-0.56-0.09c-0.01-0.02-0.02-0.06-0.01-0.1h5.39
		l1.39,9.6H124.23z"/>
	<path class="st0" d="M126.95,49.94c0.03-0.03,0.04-0.08,0.03-0.12l-0.19-1.04l-0.3,0l0.15,0.94l-46.02,0l0.13-0.94h-0.29
		l-0.15,1.06c-0.01,0.04,0.01,0.08,0.04,0.12c0.03,0.03,0.07,0.05,0.11,0.05l46.37,0C126.88,50,126.92,49.98,126.95,49.94"/>
	<path class="st0" d="M109.82,60.27l0,6.71h13.62c0.2-0.01,0.32,0.03,0.32-0.21V51.47c0-0.08-0.06-0.15-0.15-0.15
		c-0.08,0-0.14,0.06-0.14,0.15v15.22h-13.36l0-6.55c-1.68-1.7-3.85-1.71-5.54-0.01l-0.01,6.55h-20.9V51.52
		c0-0.08-0.06-0.15-0.15-0.15c-0.08,0-0.14,0.06-0.14,0.15v15.31c0,0.08,0.06,0.14,0.14,0.14c0.01,0,0.02,0.01,0.03,0.01h21.31
		v-6.72C106.37,58.8,108.3,58.8,109.82,60.27"/>
	<path class="st0" d="M103.49,60c0.14,0.14,0.37,0.14,0.51,0c2.01-2.01,4.6-2.01,6.6,0c0.07,0.07,0.16,0.11,0.26,0.11
		s0.19-0.03,0.26-0.11c0.14-0.14,0.14-0.37,0-0.51c-2.28-2.28-5.35-2.28-7.63,0C103.35,59.63,103.35,59.86,103.49,60"/>
	<path class="st0" d="M127.03,37.05h-1.77v3.25h1.77V37.05z M126.74,40.01h-1.19v-2.67h1.19V40.01z"/>
	<path class="st0" d="M130.07,37.05h-1.77v3.25h1.77V37.05z M129.78,40.01h-1.19v-2.67h1.19V40.01z"/>
	<path class="st0" d="M125.25,44.98h1.77v-3.25h-1.77V44.98z M125.54,42.02h1.19v2.67h-1.19V42.02z"/>
	<path class="st0" d="M128.3,44.98h1.77v-3.25h-1.77V44.98z M128.59,42.02h1.19v2.67h-1.19V42.02z"/>
	<path class="st0" d="M125.25,54.47h1.77v-3.25h-1.77V54.47z M125.54,51.51h1.19v2.67h-1.19V51.51z"/>
	<path class="st0" d="M128.3,54.47h1.77v-3.25h-1.77V54.47z M129.78,54.18h-1.19v-2.67h1.19V54.18z"/>
	<path class="st0" d="M134,62.02h-9.64v-0.52h9.29v-12.5h-0.29v12.21h-9V50.81c0-0.08-0.06-0.14-0.15-0.14H82.94
		c-0.08,0-0.14,0.06-0.14,0.14v16.81c0,0.08,0.06,0.14,0.14,0.14h21.91v-0.29H83.08V50.95h40.99v16.52h-14.25v0.29h14.4
		c0.08,0,0.15-0.06,0.15-0.14v-5.31h9.93V49.02H134V62.02z"/>
	<rect x="127.1" y="48.02" class="st0" width="7.63" height="0.58"/>
	<path class="st0" d="M135.84,31.51l-0.22-0.08l-8.56-2.61c-0.04-0.01-0.09-0.01-0.13,0l-6.58,1.95v-3.95h0.76v-0.61h-8.86v0.61
		h0.77v8.32h0.29v-8.32h6.75v4.03l-2.19,0.65c-0.1,0.03-0.17,0.13-0.15,0.24c0.02,0.11,0.11,0.19,0.21,0.19h17.85
		c0.11,0,0.2-0.08,0.21-0.18C136,31.65,135.94,31.54,135.84,31.51 M119.42,31.5l7.57-2.24l7.34,2.24H119.42z"/>
	<path class="st0" d="M89.02,56.2v-3.53h-2.5v3.6h2.5V56.2z M87.76,56.13h-0.71V55h0.71V56.13z M87.76,54.87h-0.71v-0.85h0.71V54.87
		z M87.76,53.88h-0.71v-0.7h0.71V53.88z M88.88,56.13h-0.98V55h0.98V56.13z M88.88,54.87h-0.98v-0.85h0.98V54.87z M88.88,53.88
		h-0.98v-0.7h0.98V53.88z"/>
	<path class="st0" d="M86.52,62.68h2.5v-0.07v-3.53h-2.5V62.68z M87.89,59.59h0.98v0.7h-0.98V59.59z M87.89,60.43h0.98v0.85h-0.98
		V60.43z M87.89,61.42h0.98v1.12h-0.98V61.42z M87.04,59.59h0.71v0.7h-0.71V59.59z M87.04,60.43h0.71v0.85h-0.71V60.43z
		 M87.04,61.42h0.71v1.12h-0.71V61.42z"/>
	<path class="st0" d="M94,52.67h-2.5v3.6H94V56.2V52.67z M92.74,56.13h-0.71V55h0.71V56.13z M92.74,54.87h-0.71v-0.85h0.71V54.87z
		 M92.74,53.88h-0.71v-0.7h0.71V53.88z M93.86,56.13h-0.98V55h0.98V56.13z M93.86,54.87h-0.98v-0.85h0.98V54.87z M93.86,53.88h-0.98
		v-0.7h0.98V53.88z"/>
	<path class="st0" d="M91.51,62.68H94v-0.07v-3.53h-2.5V62.68z M92.88,59.59h0.98v0.7h-0.98V59.59z M92.88,60.43h0.98v0.85h-0.98
		V60.43z M92.88,61.42h0.98v1.12h-0.98V61.42z M92.03,59.59h0.71v0.7h-0.71V59.59z M92.03,60.43h0.71v0.85h-0.71V60.43z
		 M92.03,61.42h0.71v1.12h-0.71V61.42z"/>
	<path class="st0" d="M99.32,56.2v-3.53h-2.5v3.6h2.5V56.2z M98.06,56.13h-0.71V55h0.71V56.13z M98.06,54.87h-0.71v-0.85h0.71V54.87
		z M98.06,53.88h-0.71v-0.7h0.71V53.88z M99.18,56.13H98.2V55h0.98V56.13z M99.18,54.87H98.2v-0.85h0.98V54.87z M99.18,53.88H98.2
		v-0.7h0.98V53.88z"/>
	<path class="st0" d="M96.82,62.68h2.5v-0.07v-3.53h-2.5V62.68z M98.2,59.59h0.98v0.7H98.2V59.59z M98.2,60.43h0.98v0.85H98.2V60.43
		z M98.2,61.42h0.98v1.12H98.2V61.42z M97.34,59.59h0.71v0.7h-0.71V59.59z M97.34,60.43h0.71v0.85h-0.71V60.43z M97.34,61.42h0.71
		v1.12h-0.71V61.42z"/>
	<path class="st0" d="M116.97,56.2v-3.53h-2.5v3.6h2.5V56.2z M115.71,56.13h-0.71V55h0.71V56.13z M115.71,54.87h-0.71v-0.85h0.71
		V54.87z M115.71,53.88h-0.71v-0.7h0.71V53.88z M116.83,56.13h-0.98V55h0.98V56.13z M116.83,54.87h-0.98v-0.85h0.98V54.87z
		 M116.83,53.88h-0.98v-0.7h0.98V53.88z"/>
	<path class="st0" d="M114.47,62.68h2.5v-0.07v-3.53h-2.5V62.68z M115.84,59.59h0.98v0.7h-0.98V59.59z M115.84,60.43h0.98v0.85
		h-0.98V60.43z M115.84,61.42h0.98v1.12h-0.98V61.42z M114.99,59.59h0.71v0.7h-0.71V59.59z M114.99,60.43h0.71v0.85h-0.71V60.43z
		 M114.99,61.42h0.71v1.12h-0.71V61.42z"/>
	<path class="st0" d="M121.8,56.2v-3.53h-2.5v3.6h2.5V56.2z M120.55,56.13h-0.71V55h0.71V56.13z M120.55,54.87h-0.71v-0.85h0.71
		V54.87z M120.55,53.88h-0.71v-0.7h0.71V53.88z M121.67,56.13h-0.98V55h0.98V56.13z M121.67,54.87h-0.98v-0.85h0.98V54.87z
		 M121.67,53.88h-0.98v-0.7h0.98V53.88z"/>
	<path class="st0" d="M106.23,52.67h-2.5v3.6h2.5V56.2V52.67z M104.97,56.13h-0.71V55h0.71V56.13z M104.97,54.87h-0.71v-0.85h0.71
		V54.87z M104.97,53.88h-0.71v-0.7h0.71V53.88z M106.09,56.13h-0.98V55h0.98V56.13z M106.09,54.87h-0.98v-0.85h0.98V54.87z
		 M106.09,53.88h-0.98v-0.7h0.98V53.88z"/>
	<path class="st0" d="M110.91,52.67h-2.5v3.6h2.5V56.2V52.67z M109.65,56.13h-0.71V55h0.71V56.13z M109.65,54.87h-0.71v-0.85h0.71
		V54.87z M109.65,53.88h-0.71v-0.7h0.71V53.88z M110.77,56.13h-0.98V55h0.98V56.13z M110.77,54.87h-0.98v-0.85h0.98V54.87z
		 M110.77,53.88h-0.98v-0.7h0.98V53.88z"/>
	<path class="st0" d="M119.31,62.68h2.5v-0.07v-3.53h-2.5V62.68z M120.68,59.59h0.98v0.7h-0.98V59.59z M120.68,60.43h0.98v0.85
		h-0.98V60.43z M120.68,61.42h0.98v1.12h-0.98V61.42z M119.83,59.59h0.71v0.7h-0.71V59.59z M119.83,60.43h0.71v0.85h-0.71V60.43z
		 M119.83,61.42h0.71v1.12h-0.71V61.42z"/>
	<rect x="98.8" y="40.58" class="st0" width="9.63" height="0.73"/>
	<polygon class="st0" points="106.77,46.35 100.35,46.35 100.35,41.81 100.06,41.81 100.06,46.64 107.06,46.64 107.06,41.85 
		106.77,41.85 	"/>
	<rect x="87.07" y="40.62" class="st0" width="9.63" height="0.73"/>
	<polygon class="st0" points="95.04,46.35 88.62,46.35 88.62,41.85 88.33,41.85 88.33,46.64 95.33,46.64 95.33,41.89 95.04,41.89 	
		"/>
	<rect x="110.37" y="40.62" class="st0" width="9.63" height="0.73"/>
	<polygon class="st0" points="118.35,46.35 111.93,46.35 111.93,41.87 111.64,41.87 111.64,46.64 118.64,46.64 118.64,41.91 
		118.35,41.91 	"/>
	<path class="st0" d="M116.7,29.92c0.61,0,1.1-0.49,1.1-1.1c0-0.61-0.49-1.1-1.1-1.1c-0.61,0-1.1,0.5-1.1,1.1
		C115.6,29.42,116.1,29.92,116.7,29.92 M116.7,28c0.45,0,0.81,0.36,0.81,0.81c0,0.45-0.36,0.81-0.81,0.81
		c-0.45,0-0.81-0.37-0.81-0.81C115.89,28.37,116.26,28,116.7,28"/>
	<path class="st0" d="M133.63,35.13v-1.41h0.77v-1.15h-15.1v1.15h0.77v1.41H133.63z M120.35,33.72h12.98v1.12h-12.98V33.72z"/>
	<path class="st0" d="M121.12,24.76h-0.75v-1.25h-1.7v1.25h-1.15v-1.25h-1.7v1.25h-1.11v-1.25h-1.69v1.26l-0.77,0v1.08l8.87,0V24.76
		z M120.83,25.56h-8.29v-0.5h0.75V23.8h1.14v1.25h1.67V23.8h1.14v1.25h1.71v-1.23h1.15v1.22h0.74V25.56z"/>
	<path class="st0" d="M113.17,90.13h-0.33l-2.24,5.66h-0.14v0.45h0.45l0.62-1.56h2.98l0.65,1.63l0.41-0.15l-2.38-5.99L113.17,90.13z
		 M114.33,94.24h-2.63l1.3-3.3L114.33,94.24z"/>
	<path class="st0" d="M118.92,95.6l-0.64-0.77c-0.09-0.11-0.16-0.2-0.23-0.26c0.62-0.18,1.01-0.66,1.01-1.25
		c0-0.6-0.48-1.25-1.55-1.25h-1.54v0.44h0.15v3.73h0.45v-1.56h0.56c0.47,0,0.5,0.03,0.75,0.34l0.71,0.86
		c0.2,0.24,0.34,0.36,0.61,0.36h0.18v-0.45h-0.18C119.09,95.79,119.06,95.77,118.92,95.6 M116.56,92.51h0.94
		c0.81,0,1.1,0.44,1.1,0.82c0,0.44-0.39,0.92-1.11,0.92h-0.93V92.51z"/>
	<polygon class="st0" points="119.85,92.07 119.85,92.66 120.29,92.66 120.29,92.51 121.4,92.51 121.4,96.24 121.84,96.24 
		121.84,92.51 122.95,92.51 122.95,92.66 123.4,92.66 123.4,92.07 	"/>
	<polygon class="st0" points="61.94,85.95 55.09,85.95 62.37,75.49 62.38,75.47 62.38,74.97 54.32,74.97 54.32,76.03 55.05,76.03 
		55.05,75.72 61.29,75.72 54.02,86.21 54.01,86.23 54.01,86.71 62.69,86.71 62.69,85.65 61.94,85.65 	"/>
	<path class="st0" d="M67.79,78.49l-3.23,7.46h-0.25v0.75h0.74l0.79-1.83h4.39l0.85,1.97l0.69-0.3l-3.46-8.06H67.79z M66.16,84.13
		l1.88-4.36l1.88,4.36H66.16z"/>
	<polygon class="st0" points="82.28,78.49 78.65,85.85 75.04,78.53 75.02,78.49 74.44,78.49 73.48,85.95 73.25,85.95 73.25,86.71 
		74.13,86.71 75,80.11 78.32,86.86 78.98,86.86 82.31,80.11 83.17,86.78 83.92,86.66 82.86,78.49 	"/>
	<polygon class="st0" points="91.33,85.95 87.2,85.95 87.2,83.05 90.25,83.05 90.25,82.3 87.2,82.3 87.2,79.38 90.72,79.38 
		90.72,79.68 91.47,79.68 91.47,78.64 86.15,78.64 86.15,79.38 86.44,79.38 86.44,86.71 92.08,86.71 92.08,85.65 91.33,85.65 	"/>
</g>
</svg>
