<?xml version="1.0" encoding="utf-8"?>
<!-- Generator: Adobe Illustrator 25.1.0, SVG Export Plug-In . SVG Version: 6.00 Build 0)  -->
<svg version="1.1" id="Warstwa_1" xmlns="http://www.w3.org/2000/svg" xmlns:xlink="http://www.w3.org/1999/xlink" x="0px" y="0px"
	 viewBox="0 0 210 120" style="enable-background:new 0 0 210 120;" xml:space="preserve">
<style type="text/css">
	.st0{fill-rule:evenodd;clip-rule:evenodd;fill:#9F9F9F;}
	.st1{fill:#9F9F9F;}
</style>
<g>
	<path class="st0" d="M86.92,45.61h5.11l-6.15,28.68H75.65L86.92,45.61z M80.77,45.61h3.95L73.45,74.29h-10.1L80.77,45.61z
		 M73.59,45.61h4.79L60.95,74.29H49.01L73.59,45.61z"/>
	<path class="st1" d="M152.9,74.29V66.1h8.07v0.91h-7.08v2.57h6.78v0.91h-6.78v2.89h7.08v0.91H152.9z M144.9,74.39
		c-0.74,0-1.29-0.03-1.65-0.09c-0.48-0.08-0.86-0.24-1.14-0.48c-0.52-0.44-0.78-1.25-0.78-2.43v-2.23c0-1.29,0.26-2.15,0.78-2.58
		c0.3-0.25,0.74-0.43,1.32-0.51c0.32-0.04,0.8-0.07,1.45-0.07h2.58c1.28,0,2.16,0.15,2.64,0.45c0.52,0.32,0.78,0.94,0.78,1.86
		c0,0.19,0,0.33-0.01,0.44h-0.92v-0.12c0-0.65-0.14-1.1-0.43-1.35c-0.29-0.25-0.78-0.38-1.49-0.38h-3.55c-0.89,0-1.47,0.2-1.76,0.6
		c-0.19,0.28-0.29,0.81-0.29,1.59v2.17c0,0.78,0.1,1.31,0.29,1.59c0.28,0.4,0.87,0.6,1.76,0.6h3.54c0.76,0,1.28-0.12,1.57-0.37
		c0.29-0.24,0.43-0.7,0.43-1.37v-0.23h0.94c0,0.05,0,0.13,0.01,0.22c0,0.09,0,0.15,0,0.19c0,0.95-0.22,1.62-0.65,1.98
		c-0.25,0.21-0.62,0.35-1.1,0.43c-0.38,0.06-0.97,0.09-1.75,0.09H144.9z M139.22,74.29h-1.01V66.1h1.01V74.29z M131.15,74.29
		l-4.55-8.19h1.15l4.03,7.33l4.06-7.33H137l-4.55,8.19H131.15z M122.73,66.99h-5.16v3.15h5.16c0.73,0,1.21-0.09,1.46-0.27
		c0.24-0.18,0.36-0.55,0.36-1.1v-0.4c0-0.56-0.12-0.92-0.36-1.1C123.94,67.08,123.46,66.99,122.73,66.99z M117.57,74.29h-1.02V66.1
		h5.85c1.22,0,2.04,0.12,2.48,0.35c0.5,0.27,0.74,0.81,0.74,1.6v0.98c0,0.5-0.1,0.86-0.3,1.1c-0.2,0.24-0.58,0.42-1.14,0.53
		c0.9,0.1,1.35,0.64,1.35,1.6v2.03h-1.01v-1.82c0-0.6-0.16-0.99-0.46-1.17c-0.24-0.14-0.75-0.21-1.52-0.21h-4.97V74.29z
		 M106.79,74.29V66.1h8.07v0.91h-7.08v2.57h6.79v0.91h-6.79v2.89h7.08v0.91H106.79z M95.67,71.62h0.96c0,0.29,0,0.45,0,0.48
		c0,0.54,0.19,0.91,0.56,1.1c0.35,0.18,0.96,0.27,1.84,0.27h2.14c1.05,0,1.74-0.09,2.09-0.28c0.4-0.21,0.6-0.65,0.6-1.31
		c0-0.56-0.14-0.93-0.41-1.12c-0.24-0.16-0.7-0.24-1.38-0.24h-3.45c-1.07,0-1.83-0.17-2.28-0.5c-0.45-0.33-0.67-0.92-0.67-1.75
		c0-0.89,0.28-1.49,0.83-1.83c0.51-0.31,1.4-0.46,2.69-0.46h1.86c0.89,0,1.51,0.03,1.89,0.08c0.53,0.07,0.93,0.22,1.19,0.44
		c0.37,0.31,0.55,0.85,0.55,1.62v0.24h-0.98v-0.12c0-0.57-0.14-0.95-0.44-1.13c-0.26-0.16-0.79-0.25-1.59-0.25h-2.79
		c-0.82,0-1.39,0.09-1.7,0.28c-0.31,0.18-0.46,0.55-0.46,1.09c0,0.57,0.18,0.96,0.53,1.15c0.29,0.16,0.86,0.24,1.7,0.24h2.93
		c1.12,0,1.86,0.11,2.23,0.33c0.3,0.18,0.51,0.43,0.62,0.76c0.11,0.29,0.16,0.71,0.16,1.24c0,0.93-0.25,1.57-0.75,1.92
		c-0.5,0.35-1.38,0.53-2.63,0.53H98.7c-1.08,0-1.86-0.16-2.34-0.49c-0.48-0.33-0.72-0.88-0.72-1.66
		C95.65,72.14,95.65,71.93,95.67,71.62z"/>
	<path class="st0" d="M147.98,49.87h5.5c1.3,0,2.51,1,2.52,2.51v0.08h4.99v-1.93c0-2.95-2.38-4.9-4.91-4.9h-10.72
		c-2.7,0-4.85,2.21-4.85,4.8v7.73c0,2.94,2.38,4.88,4.86,4.88h10.8c2.37,0,4.82-1.92,4.82-4.89v-1.99H156v0.13
		c0,1.53-1.26,2.51-2.47,2.51h-5.54c-1.27,0-2.49-1-2.49-2.5v-3.96C145.49,51,146.6,49.87,147.98,49.87"/>
	<polygon class="st1" points="115.86,63.02 95.67,63.02 95.67,58.76 108.08,49.82 96.12,49.82 96.12,45.61 115.86,45.61 
		115.86,49.82 103.52,58.76 115.86,58.76 	"/>
	<polygon class="st1" points="137.95,49.85 124.25,49.85 124.25,52.48 133.84,52.48 133.84,56.15 124.25,56.15 124.25,58.8 
		137.95,58.8 137.95,63.02 118.94,63.02 118.94,45.61 137.95,45.61 	"/>
</g>
</svg>
