<?xml version="1.0" encoding="utf-8"?>
<!-- Generator: Adobe Illustrator 25.1.0, SVG Export Plug-In . SVG Version: 6.00 Build 0)  -->
<svg version="1.1" id="Warstwa_1" xmlns="http://www.w3.org/2000/svg" xmlns:xlink="http://www.w3.org/1999/xlink" x="0px" y="0px"
	 viewBox="0 0 210 120" style="enable-background:new 0 0 210 120;" xml:space="preserve">
<style type="text/css">
	.st0{fill:#9F9F9F;}
</style>
<g>
	<path class="st0" d="M134.88,60c0-16.5-13.38-29.88-29.88-29.88C88.5,30.12,75.12,43.5,75.12,60c0,16.5,13.38,29.88,29.88,29.88
		C121.5,89.88,134.88,76.5,134.88,60 M81.36,46.99H95.9L83.92,76.66h42.3c-4.94,6.28-12.61,10.32-21.22,10.32
		C90.1,86.98,78.02,74.9,78.02,60C78.02,55.28,79.23,50.85,81.36,46.99 M122.3,59.89v-3.65h-7.31v-9.24h13.64
		c2.13,3.86,3.34,8.29,3.34,13.01c0,4.72-1.21,9.15-3.34,13.01H94.09l11.98-29.66H83.78c4.94-6.28,12.61-10.32,21.22-10.32
		c8.61,0,16.28,4.04,21.22,10.32l-19.29,0l0,26.98h8.06V59.89H122.3z"/>
</g>
</svg>
