<?xml version="1.0" encoding="utf-8"?>
<!-- Generator: Adobe Illustrator 25.2.0, SVG Export Plug-In . SVG Version: 6.00 Build 0)  -->
<svg version="1.1" id="Capa_1" xmlns="http://www.w3.org/2000/svg" xmlns:xlink="http://www.w3.org/1999/xlink" x="0px" y="0px"
	 viewBox="0 0 40 40" style="enable-background:new 0 0 40 40;" xml:space="preserve">
<style type="text/css">
	.st0{fill:#FFFFFF;}
</style>
<g>
	<g>
		<g>
			<path class="st0" d="M37.3,34.4c1.5,0,2.7-1.2,2.7-2.7V3.9C40,1.8,38.2,0,36.1,0H3.9C1.8,0,0,1.8,0,3.9v27.8
				c0,1.5,1.2,2.7,2.7,2.7h0.9v4H0.8c-0.4,0-0.8,0.3-0.8,0.8S0.3,40,0.8,40h38.4c0.4,0,0.8-0.3,0.8-0.8s-0.3-0.8-0.8-0.8h-2.8v-4
				H37.3z M1.6,3.9c0-1.3,1.1-2.3,2.3-2.3h32.2c1.3,0,2.3,1.1,2.3,2.3v1.7H1.6c0,0-0.1,0-0.1,0V3.9z M8.6,38.4H5.2v-7h3.4V38.4z
				 M17.3,38.4h-3.4V22.8h3.4V38.4z M26.1,38.4h-3.4v-9.1h3.4V38.4z M35.6,20h-5c-0.4,0-0.8,0.3-0.8,0.8v3.9c0,0.4,0.3,0.8,0.8,0.8
				s0.8-0.3,0.8-0.8v-3.2h3.4v16.8h-3.4V30c0-0.4-0.3-0.8-0.8-0.8s-0.8,0.3-0.8,0.8v8.4h-2.2v-9.8c0-0.4-0.3-0.8-0.8-0.8h-5
				c-0.4,0-0.8,0.3-0.8,0.8v9.8h-2.2V22c0-0.4-0.3-0.8-0.8-0.8h-5c-0.4,0-0.8,0.3-0.8,0.8v16.5h-2.2v-7.8c0-0.4-0.3-0.8-0.8-0.8h-5
				c-0.4,0-0.8,0.3-0.8,0.8v2.2H2.7c-0.6,0-1.2-0.5-1.2-1.2V7.2c0,0,0.1,0,0.1,0h36.8v24.5c0,0.6-0.5,1.2-1.2,1.2h-0.9v-12
				C36.4,20.4,36.1,20,35.6,20z"/>
		</g>
	</g>
	<g>
		<g>
			<path class="st0" d="M35,2.8H17.3c-0.4,0-0.8,0.3-0.8,0.8s0.3,0.8,0.8,0.8H35c0.4,0,0.8-0.3,0.8-0.8S35.4,2.8,35,2.8z"/>
		</g>
	</g>
	<g>
		<g>
			<path class="st0" d="M8.7,3C8.5,2.9,8.3,2.8,8.1,2.8C7.9,2.8,7.7,2.9,7.6,3C7.4,3.2,7.3,3.4,7.3,3.6S7.4,4,7.6,4.1
				c0.1,0.1,0.3,0.2,0.6,0.2c0.2,0,0.4-0.1,0.6-0.2C8.8,4,8.9,3.8,8.9,3.6S8.8,3.2,8.7,3z"/>
		</g>
	</g>
	<g>
		<g>
			<path class="st0" d="M5.6,3C5.4,2.9,5.2,2.8,5,2.8S4.6,2.9,4.4,3C4.3,3.2,4.2,3.4,4.2,3.6S4.3,4,4.4,4.1C4.6,4.3,4.8,4.4,5,4.4
				c0.2,0,0.4-0.1,0.6-0.2C5.7,4,5.8,3.8,5.8,3.6S5.7,3.2,5.6,3z"/>
		</g>
	</g>
	<g>
		<g>
			<path class="st0" d="M11.8,3c-0.1-0.1-0.3-0.2-0.6-0.2c-0.2,0-0.4,0.1-0.6,0.2c-0.1,0.1-0.2,0.3-0.2,0.6s0.1,0.4,0.2,0.6
				c0.1,0.1,0.3,0.2,0.6,0.2s0.4-0.1,0.6-0.2C11.9,4,12,3.8,12,3.6S11.9,3.2,11.8,3z"/>
		</g>
	</g>
	<g>
		<g>
			<path class="st0" d="M31.2,27c-0.1-0.1-0.3-0.2-0.6-0.2s-0.4,0.1-0.6,0.2c-0.1,0.1-0.2,0.3-0.2,0.6s0.1,0.4,0.2,0.6
				c0.1,0.1,0.3,0.2,0.6,0.2s0.4-0.1,0.6-0.2c0.1-0.1,0.2-0.3,0.2-0.6C31.4,27.3,31.3,27.1,31.2,27z"/>
		</g>
	</g>
	<g>
		<g>
			<path class="st0" d="M33.1,10.6c-1.6,0-2.8,1.3-2.8,2.8c0,0.6,0.2,1.2,0.5,1.6l-5.2,5.2c-0.4-0.2-0.9-0.4-1.4-0.4
				c-0.4,0-0.9,0.1-1.2,0.3l-5.4-5.4c0.2-0.4,0.4-0.9,0.4-1.4c0-1.6-1.3-2.8-2.8-2.8s-2.8,1.3-2.8,2.8c0,0.5,0.2,1,0.4,1.5l-4.6,4.6
				c-0.4-0.2-0.9-0.4-1.4-0.4C5.3,19.2,4,20.4,4,22c0,1.6,1.3,2.8,2.8,2.8s2.8-1.3,2.8-2.8c0-0.5-0.1-1-0.4-1.4L14,16
				c0.4,0.2,0.8,0.3,1.2,0.3c0.5,0,1-0.1,1.4-0.4l5.4,5.4c-0.3,0.4-0.4,0.9-0.4,1.5c0,1.6,1.3,2.8,2.8,2.8c1.6,0,2.8-1.3,2.8-2.8
				c0-0.5-0.1-1-0.4-1.4l5.3-5.3c0.3,0.1,0.7,0.2,1,0.2c1.6,0,2.8-1.3,2.8-2.8C35.9,11.9,34.7,10.6,33.1,10.6z M6.8,23.2
				c-0.7,0-1.2-0.6-1.2-1.2s0.6-1.2,1.2-1.2s1.2,0.6,1.2,1.2S7.5,23.2,6.8,23.2z M15.2,14.7c-0.7,0-1.2-0.6-1.2-1.2
				c0-0.7,0.6-1.2,1.2-1.2c0.7,0,1.2,0.6,1.2,1.2C16.4,14.1,15.9,14.7,15.2,14.7z M24.3,24c-0.7,0-1.2-0.6-1.2-1.2s0.6-1.2,1.2-1.2
				s1.2,0.6,1.2,1.2C25.6,23.4,25,24,24.3,24z M33.1,14.7c-0.7,0-1.2-0.6-1.2-1.2c0-0.7,0.6-1.2,1.2-1.2s1.2,0.6,1.2,1.2
				C34.4,14.1,33.8,14.7,33.1,14.7z"/>
		</g>
	</g>
	<g>
		<g>
			<path class="st0" d="M11.6,10.1c-0.1-0.1-0.3-0.2-0.6-0.2c-0.2,0-0.4,0.1-0.6,0.2c-0.1,0.1-0.2,0.3-0.2,0.6s0.1,0.4,0.2,0.6
				c0.1,0.1,0.3,0.2,0.6,0.2c0.2,0,0.4-0.1,0.6-0.2c0.1-0.1,0.2-0.3,0.2-0.6S11.7,10.2,11.6,10.1z"/>
		</g>
	</g>
	<g>
		<g>
			<path class="st0" d="M8.1,9.8H4.4c-0.4,0-0.8,0.3-0.8,0.8c0,0.4,0.3,0.8,0.8,0.8h3.8c0.4,0,0.8-0.3,0.8-0.8S8.6,9.8,8.1,9.8z"/>
		</g>
	</g>
	<g>
		<g>
			<path class="st0" d="M8.1,13.6H4.4c-0.4,0-0.8,0.3-0.8,0.8s0.3,0.8,0.8,0.8h3.8c0.4,0,0.8-0.3,0.8-0.8S8.6,13.6,8.1,13.6z"/>
		</g>
	</g>
</g>
</svg>
