<?xml version="1.0" encoding="utf-8"?>
<!-- Generator: Adobe Illustrator 25.2.0, SVG Export Plug-In . SVG Version: 6.00 Build 0)  -->
<svg version="1.1" id="Capa_1" xmlns="http://www.w3.org/2000/svg" xmlns:xlink="http://www.w3.org/1999/xlink" x="0px" y="0px"
	 viewBox="0 0 40 40" style="enable-background:new 0 0 40 40;" xml:space="preserve">
<style type="text/css">
	.st0{fill:#FFFFFF;}
</style>
<g>
	<path class="st0" d="M38.5,24.2l-1.4-0.8c0.2-1.2,0.3-2.3,0.3-3.4c0-1.1-0.1-2.3-0.3-3.4l1.4-0.8c0.4-0.2,0.7-0.6,0.9-1.1
		c0.1-0.5,0.1-1-0.2-1.4l-3.8-6.5c-0.2-0.4-0.6-0.7-1.1-0.9c-0.5-0.1-1-0.1-1.4,0.2l-1.4,0.8c-1.7-1.5-3.8-2.7-6-3.4V1.8
		c0-1-0.8-1.8-1.8-1.8h-7.5c-1,0-1.8,0.8-1.8,1.8v1.6c-2.2,0.7-4.2,1.9-5.9,3.5L7.1,6.1C6.6,5.8,6.1,5.8,5.7,5.9
		C5.2,6,4.8,6.3,4.6,6.7l-3.8,6.5c-0.2,0.4-0.3,0.9-0.2,1.4s0.4,0.9,0.9,1.1l1.4,0.8c-0.2,1.2-0.3,2.3-0.3,3.4
		c0,1.1,0.1,2.3,0.3,3.4l-1.4,0.8c-0.9,0.5-1.2,1.6-0.7,2.5l3.8,6.5c0.5,0.9,1.6,1.2,2.5,0.7l1.4-0.8c1.7,1.5,3.8,2.7,6,3.4v1.6
		c0,1,0.8,1.8,1.8,1.8h7.5c1,0,1.8-0.8,1.8-1.8v-1.6c2.2-0.7,4.2-1.9,5.9-3.5l1.4,0.8c0.9,0.5,2,0.2,2.5-0.7l3.8-6.5
		C39.7,25.9,39.4,24.7,38.5,24.2z M38.2,26.2l-3.8,6.5c-0.2,0.3-0.6,0.4-0.9,0.2l-1.8-1c-0.2-0.1-0.5-0.1-0.7,0.1
		c-1.8,1.7-3.9,2.9-6.2,3.6c-0.2,0.1-0.4,0.3-0.4,0.6v2c0,0.4-0.3,0.7-0.7,0.7h-7.5c-0.4,0-0.7-0.3-0.7-0.7v-2
		c0-0.3-0.2-0.5-0.4-0.6c-2.3-0.7-4.5-2-6.2-3.6c-0.1-0.1-0.3-0.2-0.4-0.2c-0.1,0-0.2,0-0.3,0.1l-1.7,1c-0.3,0.2-0.7,0.1-0.9-0.2
		l-3.8-6.5c-0.2-0.3-0.1-0.7,0.2-0.9l1.7-1c0.2-0.1,0.3-0.4,0.3-0.6c-0.3-1.2-0.4-2.4-0.4-3.6c0-1.2,0.1-2.4,0.4-3.6
		c0.1-0.3-0.1-0.5-0.3-0.6l-1.7-1c-0.2-0.1-0.3-0.2-0.3-0.4c0-0.2,0-0.4,0.1-0.5l3.8-6.5C5.7,7.2,5.8,7.1,6,7c0.2,0,0.4,0,0.5,0.1
		l1.8,1C8.5,8.2,8.7,8.2,8.9,8c1.8-1.7,3.9-2.9,6.2-3.6c0.2-0.1,0.4-0.3,0.4-0.6v-2c0-0.4,0.3-0.7,0.7-0.7h7.5
		c0.4,0,0.7,0.3,0.7,0.7v2c0,0.3,0.2,0.5,0.4,0.6c2.3,0.7,4.5,2,6.2,3.6c0.2,0.2,0.5,0.2,0.7,0.1l1.7-1C33.7,7,33.8,7,34,7
		c0.2,0,0.3,0.2,0.4,0.3l3.8,6.5c0.1,0.2,0.1,0.3,0.1,0.5c0,0.2-0.2,0.3-0.3,0.4l-1.7,1c-0.2,0.1-0.3,0.4-0.3,0.6
		c0.3,1.2,0.4,2.4,0.4,3.6c0,1.2-0.1,2.4-0.4,3.6c-0.1,0.3,0.1,0.5,0.3,0.6l1.7,1C38.3,25.4,38.4,25.8,38.2,26.2z"/>
	<path class="st0" d="M20,8.1C13.5,8.1,8.1,13.5,8.1,20S13.5,31.9,20,31.9S31.9,26.5,31.9,20S26.5,8.1,20,8.1z M20,30.7
		c-5.9,0-10.7-4.8-10.7-10.7S14.1,9.3,20,9.3S30.7,14.1,30.7,20S25.9,30.7,20,30.7z"/>
	<path class="st0" d="M22.2,16.9H20c-0.3,0-0.6,0.3-0.6,0.6v5c0,0.3,0.3,0.6,0.6,0.6c0.3,0,0.6-0.3,0.6-0.6v-1.3h1.6
		c1.2,0,2.2-1,2.2-2.2S23.4,16.9,22.2,16.9z M22.2,20h-1.6v-2h1.6c0.5,0,1,0.4,1,1S22.7,20,22.2,20z"/>
	<path class="st0" d="M16.8,17.3c-0.1-0.2-0.3-0.4-0.5-0.4h-0.6c-0.2,0-0.5,0.2-0.5,0.4l-1.9,5c-0.1,0.3,0,0.6,0.3,0.8
		c0.3,0.1,0.6,0,0.8-0.3l0.3-0.9h2.6l0.3,0.9c0.1,0.2,0.3,0.4,0.5,0.4c0.1,0,0.1,0,0.2,0c0.3-0.1,0.5-0.5,0.3-0.8L16.8,17.3z
		 M15.1,20.7l0.9-2.3l0.9,2.3H15.1z"/>
	<path class="st0" d="M25.6,16.9c-0.3,0-0.6,0.3-0.6,0.6v5c0,0.3,0.3,0.6,0.6,0.6s0.6-0.3,0.6-0.6v-5C26.2,17.2,26,16.9,25.6,16.9z"
		/>
	<path class="st0" d="M24.2,6.8C24.6,7,25,7.1,25.4,7.3c0.1,0,0.2,0,0.2,0c0.2,0,0.4-0.1,0.5-0.4c0.1-0.3,0-0.6-0.3-0.8
		C25.4,6,25,5.9,24.6,5.7c-0.3-0.1-0.6,0.1-0.7,0.4C23.7,6.4,23.9,6.7,24.2,6.8z"/>
	<path class="st0" d="M7.9,26.6c-0.2-0.3-0.5-0.4-0.8-0.2c-0.3,0.2-0.4,0.5-0.2,0.8c0.2,0.4,0.5,0.9,0.8,1.3
		c0.1,0.2,0.3,0.3,0.5,0.3c0.1,0,0.2,0,0.3-0.1c0.3-0.2,0.3-0.5,0.2-0.8C8.3,27.4,8.1,27,7.9,26.6z"/>
	<path class="st0" d="M18.8,33.8c-3.1-0.3-6.1-1.6-8.4-3.8c-0.2-0.2-0.6-0.2-0.8,0c-0.2,0.2-0.2,0.6,0,0.8c2.5,2.4,5.7,3.9,9.1,4.2
		c0,0,0,0,0.1,0c0.3,0,0.6-0.2,0.6-0.5C19.4,34.1,19.1,33.8,18.8,33.8z"/>
	<path class="st0" d="M28.4,7.6c-0.3-0.2-0.6-0.1-0.8,0.2c-0.2,0.3-0.1,0.6,0.2,0.8c2.7,1.9,4.7,4.6,5.6,7.8
		c0.1,0.3,0.3,0.4,0.6,0.4c0.1,0,0.1,0,0.2,0c0.3-0.1,0.5-0.4,0.4-0.7C33.5,12.6,31.4,9.6,28.4,7.6z"/>
</g>
</svg>
