<?xml version="1.0" encoding="utf-8"?>
<!-- Generator: Adobe Illustrator 25.2.0, SVG Export Plug-In . SVG Version: 6.00 Build 0)  -->
<svg version="1.1" id="Capa_1" xmlns="http://www.w3.org/2000/svg" xmlns:xlink="http://www.w3.org/1999/xlink" x="0px" y="0px"
	 viewBox="0 0 40 40" style="enable-background:new 0 0 40 40;" xml:space="preserve">
<style type="text/css">
	.st0{fill:#FFFFFF;}
</style>
<g>
	<path class="st0" d="M38.4,23.9l-1.2-0.7c0.2-1.1,0.3-2.2,0.3-3.2c0-1-0.1-2.2-0.3-3.2l1.1-0.7c0.5-0.2,0.8-0.7,1.1-1.3
		c0.1-0.7,0.1-1.3-0.2-1.6l-3.7-6.4c-0.2-0.5-0.7-0.8-1.3-1.1c-0.7-0.1-1.2-0.1-1.6,0.2l-1.2,0.7c-1.6-1.4-3.6-2.5-5.6-3.2V2.1
		c0-1.2-1-2.1-2.1-2.1h-7.4c-1.2,0-2.1,1-2.1,2.1v1.3c-2,0.7-3.9,1.8-5.5,3.3L7.5,6.1C7,5.8,6.4,5.7,5.8,5.8c-0.6,0.1-1.1,0.5-1.3,1
		l-3.8,6.4c-0.3,0.5-0.3,1.1-0.2,1.6C0.6,15.5,1,16,1.6,16.2l1.2,0.7C2.5,18,2.5,19,2.5,20c0,1,0.1,2.2,0.3,3.2l-1.2,0.7
		c-0.5,0.3-0.9,0.8-1,1.3c-0.2,0.6-0.1,1.1,0.2,1.7l3.7,6.4c0.3,0.5,0.8,0.9,1.3,1c0.6,0.2,1.1,0.1,1.7-0.2l1.2-0.7
		c1.6,1.4,3.6,2.5,5.6,3.2v1.3c0,1.2,1,2.1,2.1,2.1h7.4c1.2,0,2.1-1,2.1-2.1v-1.3c2-0.7,3.9-1.8,5.5-3.3l1.1,0.7
		c1.1,0.6,2.4,0.2,3-0.8l3.7-6.4c0.3-0.3,0.4-0.8,0.3-1.3C39.4,24.8,39,24.2,38.4,23.9z M37.6,26l-3.7,6.4c0,0.1-0.1,0.1-0.2,0.1
		c-0.1,0-0.1,0-0.2,0l-1.8-1c-0.3-0.2-0.8-0.2-1.1,0.2c-1.7,1.6-3.7,2.8-6,3.5c-0.4,0.2-0.6,0.5-0.6,0.9v2c0,0.2-0.1,0.3-0.3,0.3
		h-7.4c-0.2,0-0.3-0.1-0.3-0.3v-2c0-0.4-0.2-0.7-0.7-0.9c-2.2-0.7-4.3-1.9-6-3.5c-0.2-0.2-0.4-0.3-0.7-0.3c-0.1,0-0.3,0-0.5,0.2
		l-1.7,1c-0.1,0-0.1,0-0.2,0c-0.1,0-0.1-0.1-0.2-0.1L2.3,26c0-0.1,0-0.1,0-0.2c0-0.1,0.1-0.1,0.1-0.2l1.7-1c0.4-0.2,0.5-0.6,0.5-1
		c-0.3-1-0.4-2.2-0.4-3.5c0-1.3,0.1-2.4,0.4-3.4c0.1-0.4,0-0.8-0.5-1l-1.7-1c-0.1,0-0.1-0.1-0.1-0.1c0-0.1,0-0.2,0-0.3l3.8-6.5
		c0.1-0.2,0.1-0.2,0.1-0.2c0.1,0,0.2,0,0.2,0l1.8,1c0.4,0.2,0.7,0.1,1-0.2C11,6.9,13,5.7,15.3,5c0.4-0.2,0.6-0.5,0.6-0.9v-2
		c0-0.2,0.1-0.3,0.3-0.3h7.4C23.8,1.8,24,2,24,2.1v2c0,0.4,0.2,0.7,0.7,0.9c2.2,0.7,4.3,1.9,6,3.5c0.3,0.3,0.8,0.3,1.1,0.2l1.6-1
		c0.2-0.1,0.3-0.1,0.4-0.1c0,0,0.1,0.1,0.1,0.1c0,0,0,0.1,0,0.1l3.7,6.4c0.1,0.1,0.1,0.1,0.1,0.3c0,0-0.1,0.1-0.1,0.1
		c0,0-0.1,0-0.1,0l-1.6,1c-0.4,0.2-0.5,0.6-0.5,1c0.3,1,0.4,2.2,0.4,3.5s-0.1,2.4-0.4,3.4c-0.1,0.4,0,0.8,0.5,1l1.6,1
		C37.6,25.6,37.7,25.8,37.6,26z"/>
	<path class="st0" d="M20,8C13.4,8,7.9,13.5,7.9,20.1S13.4,32.2,20,32.2s12.1-5.5,12.1-12.1S26.6,8,20,8z M20,30.3
		c-5.6,0-10.2-4.6-10.2-10.2c0-5.6,4.6-10.2,10.2-10.2c5.6,0,10.2,4.6,10.2,10.2C30.2,25.7,25.6,30.3,20,30.3z"/>
	<path class="st0" d="M25.5,16.7c-0.5,0-1,0.5-1,1v0.7c-0.3-1-1.3-1.6-2.4-1.6H20c-0.5,0-1,0.5-1,1v4.9c0-0.1,0-0.2-0.1-0.2l-1.8-5
		l0,0c-0.1-0.3-0.5-0.6-0.8-0.6h-0.6c-0.3,0-0.8,0.3-0.9,0.7L13,22.3c-0.2,0.5,0,0.9,0.4,1.2l0.1,0c0.5,0.2,0.9,0,1.2-0.4l0.3-0.7h2
		l0.2,0.7c0.1,0.3,0.5,0.6,0.8,0.6h0.3l0.1,0c0.3-0.1,0.5-0.3,0.6-0.6c0-0.1,0-0.2,0-0.3c0.1,0.5,0.5,0.8,0.9,0.8c0.5,0,1-0.5,1-1
		v-0.9h1.2c1.1,0,2-0.7,2.4-1.7v2.6c0,0.5,0.5,1,1,1c0.5,0,1-0.5,1-1v-4.9C26.5,17.2,26.1,16.7,25.5,16.7z M15.7,20.4l0.3-0.9
		l0.3,0.9H15.7z M22.2,19.7H21v-1.2h1.2c0.3,0,0.6,0.2,0.6,0.6S22.5,19.7,22.2,19.7z"/>
	<path class="st0" d="M24,7.4c0.2,0.1,0.4,0.2,0.6,0.3c0.2,0.1,0.4,0.1,0.5,0.2l0.4,0c0.4,0,0.7-0.2,0.8-0.6c0.2-0.5,0-0.9-0.5-1.2
		l-0.1,0c-0.4-0.1-0.7-0.2-1.2-0.4c-0.5-0.2-1,0.1-1.1,0.6c-0.1,0.2-0.2,0.4-0.1,0.7C23.5,7.1,23.7,7.3,24,7.4z"/>
	<path class="st0" d="M9.2,27.8L9.2,27.8c-0.4-0.6-0.6-0.9-0.8-1.3l0,0C8.2,26.2,8,26,7.7,26c-0.2,0-0.5,0-0.7,0.1
		c-0.2,0.2-0.4,0.4-0.5,0.6c0,0.2,0,0.4,0.1,0.6c0.2,0.5,0.5,1,0.8,1.3C7.7,29,8,29.1,8.4,29.1c0.1,0,0.4,0,0.5-0.2
		C9.1,28.8,9.4,28.5,9.2,27.8z"/>
	<path class="st0" d="M18.8,33.3c-3-0.3-5.9-1.6-8-3.6c-0.3-0.3-1-0.3-1.3,0c-0.3,0.3-0.3,1,0,1.3c2.5,2.4,5.8,3.9,9.2,4.2h0.1
		c0.5,0,1-0.3,1-0.9C19.8,33.8,19.3,33.4,18.8,33.3z"/>
	<path class="st0" d="M28.5,7.6c-0.4-0.3-1-0.2-1.3,0.3C27,8.1,27,8.3,27,8.5c0,0.2,0.2,0.5,0.4,0.6c2.7,1.9,4.5,4.5,5.4,7.5
		c0.1,0.4,0.5,0.6,0.9,0.6h0.3l0.1,0c0.5-0.2,0.8-0.7,0.6-1.2C33.6,12.5,31.4,9.5,28.5,7.6z"/>
</g>
</svg>
