<?xml version="1.0" encoding="utf-8"?>
<!-- Generator: Adobe Illustrator 25.2.0, SVG Export Plug-In . SVG Version: 6.00 Build 0)  -->
<svg version="1.1" id="Capa_1" xmlns="http://www.w3.org/2000/svg" xmlns:xlink="http://www.w3.org/1999/xlink" x="0px" y="0px"
	 viewBox="0 0 40 40" style="enable-background:new 0 0 40 40;" xml:space="preserve">
<style type="text/css">
	.st0{fill:#FFFFFF;}
</style>
<g>
	<path class="st0" d="M17.3,18.4c1,0,2-1,2-2s-1-2-2-2c-1,0-2,1-2,2C15.4,17.6,16.2,18.4,17.3,18.4z M17.3,15.6
		c0.5,0,0.9,0.4,0.9,0.9c0,0.5-0.4,0.9-0.9,0.9c-0.5,0-0.9-0.4-0.9-0.9C16.4,15.9,16.9,15.6,17.3,15.6z"/>
	<path class="st0" d="M15.6,36.4c0,0.9,0.8,1.7,1.7,1.7c0.9,0,1.7-0.8,1.7-1.7c0.1-0.9-0.7-1.7-1.7-1.7
		C16.4,34.7,15.6,35.5,15.6,36.4z M18.2,36.3c0,0.6-0.4,0.9-0.9,0.9c-0.5,0-0.9-0.4-0.9-0.9c0-0.5,0.4-0.9,0.9-0.9
		C17.8,35.4,18.2,35.8,18.2,36.3z"/>
	<path class="st0" d="M16,2.6c-0.3,0-0.6,0.3-0.6,0.6s0.3,0.6,0.6,0.6h2.6c0.4,0,0.7-0.3,0.7-0.6c0-0.2-0.1-0.6-0.7-0.6H16z"/>
	<path class="st0" d="M6.8,29.7h12.2c0.3,0,0.5-0.3,0.5-0.5c0-0.3-0.3-0.5-0.5-0.5H6.8c-0.3,0-0.5,0.3-0.5,0.5
		C6.3,29.4,6.6,29.7,6.8,29.7z"/>
	<path class="st0" d="M6.3,27.5c0,0.4,0.3,0.6,0.5,0.6h8.9c0.3,0,0.5-0.3,0.5-0.5c0-0.4-0.3-0.6-0.6-0.6H6.8
		C6.6,27,6.3,27.2,6.3,27.5z"/>
	<path class="st0" d="M21.9,27h-4.4c-0.3,0-0.5,0.3-0.5,0.5c0,0.3,0.3,0.5,0.5,0.5H22c0.2,0,0.5-0.2,0.5-0.6l0-0.1l0,0
		C22.4,27.2,22.2,27,21.9,27z"/>
	<path class="st0" d="M6.8,31.5h2.1c0.3,0,0.5-0.3,0.5-0.5c0-0.4-0.3-0.6-0.6-0.6h-2c-0.3,0-0.5,0.3-0.5,0.5
		C6.3,31.2,6.6,31.5,6.8,31.5z"/>
	<path class="st0" d="M15.6,30.3h-5.3c-0.3,0-0.5,0.3-0.5,0.5c0,0.3,0.3,0.5,0.5,0.5h5.4c0.2,0,0.5-0.2,0.5-0.6l0-0.1l0,0
		C16.1,30.6,15.9,30.3,15.6,30.3z"/>
	<path class="st0" d="M35.4,25.3c0.3,0,0.6-0.3,0.6-0.6V9.9c0-0.6-0.3-1.2-0.8-1.7c-0.5-0.5-1.1-0.7-1.8-0.6
		c-1.2,0.1-2.1,1.2-2.1,2.4v22.8l1.7,3.5c0.1,0.2,0.4,0.3,0.6,0.3c0.2,0,0.5-0.1,0.6-0.4l1.7-3.4l0-5.3c0-0.3-0.3-0.6-0.6-0.6
		c-0.3,0-0.6,0.3-0.6,0.6v4.9l-1,2.1l-1-2.1V15.2h2.1v9.3C34.7,24.9,35,25.3,35.4,25.3z M34.6,11.8h-0.4c-0.3,0-0.6,0.3-0.6,0.6
		c0,0.3,0.3,0.6,0.6,0.6h0.4v0.8h-1.9V13h0c0.3,0,0.6-0.3,0.6-0.6c0-0.3-0.3-0.6-0.6-0.6h-0.1V9.9c0-0.5,0.4-1,0.9-1
		c0.3,0,0.6,0,0.8,0.2c0.2,0.2,0.3,0.5,0.3,0.8V11.8z"/>
	<path class="st0" d="M26.6,0h-2.4c-0.3,0-0.6,0.3-0.6,0.6s0.3,0.6,0.6,0.6h2.4c1.5,0,2.7,1.2,2.7,2.7v0.5H5.4V4.1
		c0-1.5,1.2-2.7,2.7-2.7h14.1c0.3,0,0.6-0.3,0.6-0.6s-0.3-0.6-0.6-0.6L8.1,0C5.8,0,4,1.8,4,4.1V8c0,0.4,0.3,0.6,0.7,0.6
		c0.3,0,0.6-0.3,0.6-0.6v-2h23.9v0.4h-3.1c-0.3,0-0.6,0.3-0.6,0.6c0,0.4,0.3,0.7,0.6,0.7h3.1v0.4h-3.1c-0.3,0-0.6,0.3-0.6,0.6
		c0,0.4,0.3,0.7,0.6,0.7h3.1v0.4h-3.1c-0.3,0-0.6,0.3-0.6,0.6c0,0.4,0.3,0.7,0.6,0.7h3.1v0.4h-3.1c-0.3,0-0.6,0.3-0.6,0.6
		c0,0.4,0.3,0.7,0.6,0.7h3.1v20h-2.2c-0.3,0-0.6,0.3-0.6,0.6s0.3,0.6,0.6,0.6h2.2v1.8c0,1.5-1.2,2.7-2.7,2.7H8.1
		c-1.5,0-2.7-1.2-2.7-2.7v-1.8H25c0.3,0,0.6-0.3,0.6-0.6s-0.3-0.6-0.6-0.6H5.4v-22c0-0.3-0.3-0.6-0.6-0.6s-0.6,0.3-0.6,0.6V12
		c0,5,0,5.6,0,7.6c0,2,0,5.5,0,16.3C4,38.2,5.8,40,8.1,40h18.6c2.3,0,4.1-1.8,4.1-4.1l0-31.8C30.7,1.8,28.8,0,26.6,0z"/>
	<path class="st0" d="M9.7,15.2c-0.2,0-0.4,0.2-0.4,0.5v1.4c0,0.3,0.2,0.5,0.4,0.5c0,0,0,0,0,0l1.8,0.4c0.1,0.5,0.3,0.8,0.6,1.3
		l-1,1.5C11,21,11,21.1,11,21.2c0,0.1,0.1,0.2,0.2,0.3l1,1c0.1,0.1,0.5,0.3,0.6,0.1l1.5-1c0.4,0.2,0.8,0.4,1.3,0.5l0.4,1.8
		c0,0.3,0.3,0.4,0.5,0.4h1.6c0.3,0,0.5-0.2,0.5-0.4l0.4-1.8c0.5-0.1,0.8-0.3,1.3-0.6l1.5,1c0.2,0.1,0.3,0.1,0.4,0.1
		c0.1,0,0.2-0.1,0.2-0.2l1-1c0.1-0.1,0.3-0.5,0.1-0.6l-1-1.5v0c0-0.1,0.1-0.3,0-0.4c0-0.1-0.1-0.3-0.3-0.3c-0.3-0.1-0.5,0-0.8,0.3
		c-0.1,0.1-0.2,0.2-0.2,0.3c0,0.1-0.1,0.4,0,0.6l0.9,1.4l-0.4,0.4l-1.4-0.9c-0.1-0.1-0.4-0.1-0.5,0c-0.4,0.3-0.9,0.5-1.5,0.7
		c-0.2,0-0.4,0.2-0.4,0.4l-0.4,1.7h-0.5l-0.4-1.7c0-0.3-0.2-0.4-0.4-0.4c0,0,0,0,0,0c-0.6-0.1-1.1-0.3-1.5-0.7
		c-0.1-0.1-0.4-0.1-0.6,0L13,21.4l-0.4-0.4l0.9-1.4c0.1-0.1,0.1-0.4,0-0.5c-0.3-0.4-0.5-0.9-0.7-1.5c0-0.2-0.2-0.4-0.4-0.4
		c0,0,0,0,0,0l-1.7-0.4v-0.5l1.7-0.4c0.3,0,0.4-0.2,0.4-0.4c0.1-0.6,0.3-1.1,0.7-1.5c0.1-0.1,0.1-0.4,0-0.6l-0.9-1.4l0.4-0.4
		l1.4,0.9c0.1,0.1,0.4,0.1,0.5,0c0.5-0.3,1-0.5,1.5-0.7c0.2,0,0.4-0.2,0.4-0.4l0.4-1.7h0.5l0.4,1.7c0,0.3,0.2,0.4,0.4,0.4
		c0,0,0,0,0,0c0.6,0.1,1.1,0.4,1.5,0.7c0.1,0.1,0.4,0.1,0.6,0l1.4-0.9l0.4,0.4l-0.9,1.4c-0.1,0.1-0.1,0.4,0,0.5
		c0.3,0.5,0.5,1,0.7,1.5c0,0.2,0.2,0.4,0.4,0.4c0,0,0,0,0,0l1.7,0.4v0.5l-1.7,0.4c-0.3,0-0.4,0.2-0.4,0.4v0.1c0,0.1,0,0.2,0.1,0.4
		l0.3,0.1c0.2,0.1,0.3,0.1,0.4,0c0,0,0.1-0.1,0.1-0.1l1.8-0.4c0.2,0,0.4-0.2,0.4-0.5v-1.4c0-0.4-0.3-0.6-0.5-0.6l-1.8-0.4
		c-0.1-0.5-0.3-0.8-0.6-1.3l1-1.5c0.1-0.3,0.1-0.5-0.1-0.6l-1-1c-0.1-0.1-0.5-0.3-0.6-0.1l-1.5,1c-0.4-0.2-0.8-0.4-1.3-0.5l-0.4-1.8
		c0-0.2-0.2-0.4-0.5-0.4h-1.4c-0.3,0-0.5,0.2-0.5,0.4l-0.4,1.8c-0.5,0.1-0.8,0.3-1.3,0.6l-1.5-1c-0.1-0.1-0.2-0.1-0.4-0.1
		c-0.1,0-0.2,0.1-0.3,0.2l-1,1c-0.1,0.1-0.3,0.5-0.1,0.6l1,1.5c-0.2,0.4-0.4,0.8-0.5,1.3L9.7,15.2z"/>
	<path class="st0" d="M14.8,14.1c-0.1,0-0.2,0.1-0.3,0.2c-0.5,0.7-0.7,1.4-0.7,2.1c0,1.1,0.5,2.1,1.3,2.8c0.7,0.6,1.5,0.9,2.4,0.9
		c0.2,0,0.3,0,0.5,0c1.7-0.2,3.1-1.5,3.3-3.3c0-2.2-1.8-4.1-3.9-4.1c-0.6,0-1.3,0.2-1.7,0.4c-0.1,0.1-0.2,0.2-0.3,0.4
		c0,0.2,0,0.4,0.1,0.5c0.1,0.1,0.4,0.2,0.6,0.1c0.4-0.2,0.8-0.3,1.2-0.3c0.7,0,1.4,0.3,1.9,0.8c0.5,0.6,0.8,1.3,0.8,2.1
		c-0.1,1.2-1.1,2.2-2.3,2.3c-0.8,0.1-1.5-0.1-2-0.6c-0.6-0.5-0.9-1.2-0.9-2c0-0.5,0.2-1.1,0.5-1.5c0.1-0.2,0.1-0.5,0-0.6
		C15.2,14.1,15,14.1,14.8,14.1z"/>
</g>
</svg>
