<?xml version="1.0" encoding="utf-8"?>
<!-- Generator: Adobe Illustrator 25.2.0, SVG Export Plug-In . SVG Version: 6.00 Build 0)  -->
<svg version="1.1" id="Capa_1" xmlns="http://www.w3.org/2000/svg" xmlns:xlink="http://www.w3.org/1999/xlink" x="0px" y="0px"
	 viewBox="0 0 40 40" style="enable-background:new 0 0 40 40;" xml:space="preserve">
<style type="text/css">
	.st0{fill:#FFFFFF;}
</style>
<g>
</g>
<g>
	<path class="st0" d="M17.2,18.3c1,0,1.9-0.9,1.9-1.9c0-1-0.9-1.9-1.9-1.9c-1,0-1.9,0.9-1.9,1.9C15.4,17.5,16.2,18.3,17.2,18.3z
		 M17.2,15.4c0.6,0,1,0.5,1,1c0,0.6-0.5,1-1,1c-0.6,0-1-0.5-1-1C16.2,15.8,16.7,15.4,17.2,15.4z"/>
	<path class="st0" d="M17.2,34.9c-0.9,0-1.7,0.8-1.7,1.7c0,0.9,0.8,1.7,1.7,1.7c0.9,0,1.7-0.8,1.7-1.7C19,35.7,18.2,34.9,17.2,34.9z
		 M17.2,37.4c-0.5,0-0.9-0.4-0.9-0.9c0-0.5,0.4-0.9,0.9-0.9c0.5,0,0.9,0.4,0.9,0.9C18.1,37.1,17.7,37.4,17.2,37.4z"/>
	<path class="st0" d="M18.5,2.6h-2.6c-0.2,0-0.4,0.2-0.4,0.4s0.2,0.4,0.4,0.4h2.6C18.8,3.4,19,3.2,19,3C19,2.7,18.8,2.6,18.5,2.6z"
		/>
	<path class="st0" d="M19,28.9H6.6c-0.2,0-0.4,0.2-0.4,0.4c0,0.2,0.2,0.4,0.4,0.4H19c0.2,0,0.4-0.2,0.4-0.4
		C19.4,29.1,19.2,28.9,19,28.9z"/>
	<g>
		<path class="st0" d="M15.5,27.2H6.6c-0.2,0-0.4,0.2-0.4,0.4c0,0.3,0.2,0.5,0.4,0.5h9c0.2,0,0.4-0.2,0.4-0.4l0,0
			C16,27.4,15.8,27.2,15.5,27.2z"/>
		<path class="st0" d="M21.9,27.2h-4.5c-0.2,0-0.4,0.2-0.4,0.4l0,0c0,0.2,0.2,0.4,0.4,0.4h4.6c0.2,0,0.4-0.2,0.4-0.5
			C22.3,27.4,22.1,27.2,21.9,27.2z"/>
	</g>
	<g>
		<path class="st0" d="M8.6,30.6h-2c-0.2,0-0.4,0.2-0.4,0.4c0,0.3,0.2,0.5,0.4,0.5h2.1c0.2,0,0.4-0.2,0.4-0.4l0,0
			C9.1,30.8,8.9,30.6,8.6,30.6z"/>
		<path class="st0" d="M15.5,30.6h-5.4c-0.2,0-0.4,0.2-0.4,0.4l0,0c0,0.2,0.2,0.4,0.4,0.4h5.5c0.2,0,0.4-0.2,0.4-0.5
			C15.9,30.8,15.7,30.6,15.5,30.6z"/>
	</g>
	<path class="st0" d="M35.5,25.1c0.2,0,0.4-0.2,0.4-0.4V9.8c0-1.2-1.1-2.2-2.3-2.1c-1.1,0.1-1.9,1.1-1.9,2.2v22.9c0,0.1,0,0.1,0,0.2
		l1.7,3.4c0.2,0.3,0.6,0.3,0.8,0l1.7-3.4c0-0.1,0-0.1,0-0.2v-5.1c0-0.2-0.2-0.4-0.4-0.4l0,0c-0.2,0-0.4,0.2-0.4,0.4v5l-1.3,2.6
		l-1.3-2.6V14.9h2.6v9.7C35.1,24.9,35.3,25.1,35.5,25.1L35.5,25.1z M32.6,14v-1.3H33c0.2,0,0.4-0.2,0.4-0.4v0c0-0.2-0.2-0.4-0.4-0.4
		h-0.5V9.8c0-0.6,0.5-1.2,1.1-1.3c0.8-0.1,1.4,0.5,1.4,1.3v2.1h-0.9c-0.2,0-0.4,0.2-0.4,0.4v0c0,0.2,0.2,0.4,0.4,0.4h0.9V14H32.6z"
		/>
	<path class="st0" d="M26.6,0h-2.4c-0.2,0-0.4,0.2-0.4,0.4v0c0,0.2,0.2,0.4,0.4,0.4h2.4c1.7,0,3,1.3,3,3v0.8h0H4.9V3.9
		c0-1.7,1.4-3,3-3h14.3c0.2,0,0.4-0.2,0.4-0.4v0c0-0.2-0.2-0.4-0.4-0.4L7.9,0C5.8,0,4,1.7,4,3.9v3.9C4,8,4.2,8.2,4.5,8.2h0
		c0.2,0,0.4-0.2,0.4-0.4V5.5h1.3h5.7h1.7v0h16v0.9h0l-3.4,0c-0.2,0-0.4,0.2-0.4,0.4c0,0.3,0.2,0.5,0.4,0.5h3.4v0.9l-3.4,0
		c-0.2,0-0.4,0.2-0.4,0.4c0,0.3,0.2,0.5,0.4,0.5h3.4v0.9l-3.4,0c-0.2,0-0.4,0.2-0.4,0.4c0,0.3,0.2,0.5,0.4,0.5h3.4v0.9l-3.4,0
		c-0.2,0-0.4,0.2-0.4,0.4c0,0.3,0.2,0.5,0.4,0.5h3.4v13.1h0v7.7h0h-2.5c-0.2,0-0.4,0.2-0.4,0.4l0,0c0,0.2,0.2,0.4,0.4,0.4h2.5v2.1
		c0,1.7-1.3,3-3,3H7.9c-1.6,0-3-1.3-3-3l0-2.1H25c0.2,0,0.4-0.2,0.4-0.4l0,0c0-0.2-0.2-0.4-0.4-0.4h-3.8h-0.3h-16l0-8.5l0-10.1h0
		v-3.4v-0.5c0-0.2-0.2-0.4-0.4-0.4h0c-0.2,0-0.4,0.2-0.4,0.4v0.9C4,22,4.1,14.2,4,36.1C4,38.3,5.7,40,7.9,40h18.8
		c2.1,0,3.9-1.7,3.9-3.9V3.9C30.5,1.7,28.7,0,26.6,0z"/>
	<path class="st0" d="M24.7,15.3l-1.9-0.4c-0.1-0.5-0.3-0.9-0.6-1.4l1-1.6c0.1-0.2,0.1-0.4-0.1-0.5l-1-1c-0.1-0.1-0.4-0.2-0.5-0.1
		l-1.6,1c-0.4-0.2-0.9-0.4-1.4-0.6l-0.4-1.9c0-0.2-0.2-0.3-0.4-0.3h-1.4c-0.2,0-0.4,0.1-0.4,0.3l-0.4,1.9c-0.5,0.1-0.9,0.3-1.4,0.6
		l-1.6-1c-0.2-0.1-0.4-0.1-0.5,0.1l-1,1c-0.1,0.1-0.2,0.4-0.1,0.5l1,1.6c-0.2,0.4-0.4,0.9-0.6,1.4l-1.9,0.4c-0.2,0-0.3,0.2-0.3,0.4
		v1.4c0,0.2,0.1,0.4,0.3,0.4l1.9,0.4c0.1,0.5,0.3,0.9,0.6,1.4l-1,1.6c-0.1,0.2-0.1,0.4,0.1,0.5l1,1c0.1,0.1,0.4,0.2,0.5,0.1l1.6-1
		c0.4,0.2,0.9,0.4,1.4,0.6l0.4,1.9c0,0.2,0.2,0.3,0.4,0.3H18c0.2,0,0.4-0.1,0.4-0.3l0.4-1.9c0.5-0.1,0.9-0.3,1.4-0.6l1.6,1
		c0.2,0.1,0.4,0.1,0.5-0.1l1-1c0.1-0.1,0.2-0.4,0.1-0.5l-1-1.6c0,0,0-0.1,0-0.1c0.1-0.2,0-0.5-0.2-0.6l0,0c-0.2-0.1-0.5,0-0.6,0.2
		c0,0.1-0.1,0.2-0.2,0.3c-0.1,0.1-0.1,0.3,0,0.5l1,1.5l-0.5,0.5l-1.5-1c-0.1-0.1-0.3-0.1-0.4,0c-0.5,0.3-1,0.5-1.6,0.7
		c-0.2,0-0.3,0.2-0.3,0.3l-0.4,1.8h-0.7l-0.4-1.8c0-0.2-0.2-0.3-0.3-0.3c-0.6-0.1-1.1-0.3-1.6-0.7c-0.1-0.1-0.3-0.1-0.4,0l-1.5,1
		l-0.5-0.5l1-1.5c0.1-0.1,0.1-0.3,0-0.4c-0.3-0.5-0.5-1-0.7-1.6c0-0.2-0.2-0.3-0.3-0.3l-1.8-0.4v-0.7l1.8-0.4c0.2,0,0.3-0.2,0.3-0.3
		c0.1-0.6,0.3-1.1,0.7-1.6c0.1-0.1,0.1-0.3,0-0.4l-1-1.5l0.5-0.5l1.5,1c0.1,0.1,0.3,0.1,0.4,0c0.5-0.3,1-0.5,1.6-0.7
		c0.2,0,0.3-0.2,0.3-0.3l0.4-1.8h0.7l0.4,1.8c0,0.2,0.2,0.3,0.3,0.3c0.6,0.1,1.1,0.4,1.6,0.7c0.1,0.1,0.3,0.1,0.4,0l1.5-1l0.5,0.5
		l-1,1.5c-0.1,0.1-0.1,0.3,0,0.4c0.3,0.5,0.5,1,0.7,1.6c0,0.2,0.2,0.3,0.3,0.3l1.8,0.4v0.7l-1.8,0.4c-0.2,0-0.3,0.2-0.3,0.3
		c0,0,0,0.1,0,0.1c0,0.1,0,0.2,0.1,0.3l0.3,0.1c0.2,0.1,0.4,0,0.4-0.1l0,0l1.9-0.4c0.2,0,0.3-0.2,0.3-0.4v-1.4
		C25.1,15.5,24.9,15.3,24.7,15.3z"/>
	<path class="st0" d="M17.3,12.8c-0.6,0-1.2,0.2-1.7,0.4c-0.2,0.1-0.3,0.5-0.1,0.7h0c0.1,0.1,0.3,0.2,0.5,0.1
		c0.4-0.2,0.8-0.3,1.3-0.3c1.6,0,2.9,1.4,2.8,3.1c-0.1,1.3-1.2,2.3-2.4,2.4c-1.7,0.2-3.1-1.1-3.1-2.8c0-0.6,0.2-1.2,0.5-1.6
		c0.1-0.2,0.1-0.4,0-0.5l0,0c-0.2-0.2-0.5-0.2-0.6,0c-0.4,0.6-0.7,1.3-0.7,2.1c0,2.1,1.9,3.9,4.1,3.6c1.7-0.2,3-1.5,3.2-3.2
		C21.1,14.7,19.4,12.8,17.3,12.8z"/>
</g>
</svg>
