<?xml version="1.0" encoding="utf-8"?>
<!-- Generator: Adobe Illustrator 25.2.0, SVG Export Plug-In . SVG Version: 6.00 Build 0)  -->
<svg version="1.1" id="Capa_1" xmlns="http://www.w3.org/2000/svg" xmlns:xlink="http://www.w3.org/1999/xlink" x="0px" y="0px"
	 viewBox="0 0 40 40" style="enable-background:new 0 0 40 40;" xml:space="preserve">
<style type="text/css">
	.st0{fill:#FFFFFF;}
</style>
<g>
</g>
<g>
	<path class="st0" d="M21.2,16.5c0.2,0,0.4-0.2,0.4-0.4c0-0.2-0.2-0.4-0.4-0.4h-4.1c-0.2,0-0.4,0.2-0.4,0.4c0,0.2,0.2,0.4,0.4,0.4
		H21.2z"/>
	<path class="st0" d="M16,19.4c0,0.2,0.2,0.4,0.4,0.4h4.8c0.2,0,0.4-0.2,0.4-0.4c0-0.2-0.2-0.4-0.4-0.4h-4.8
		C16.2,19,16,19.1,16,19.4z"/>
	<path class="st0" d="M12.9,22.6c0,0.2,0.2,0.4,0.4,0.4h7.9c0.2,0,0.4-0.2,0.4-0.4c0-0.2-0.2-0.4-0.4-0.4h-7.9
		C13.1,22.2,12.9,22.4,12.9,22.6z"/>
	<path class="st0" d="M12.3,25.8c0,0.2,0.1,0.4,0.3,0.4h8.7c0.2,0,0.3-0.2,0.3-0.4c0-0.2-0.1-0.4-0.3-0.4h-8.7
		C12.5,25.4,12.3,25.6,12.3,25.8z"/>
	<path class="st0" d="M35,9.7V9.2c0-0.2-0.2-0.4-0.4-0.4c-0.2,0-0.4,0.2-0.4,0.4v0.5c0,0.2,0.2,0.4,0.4,0.4C34.9,10.1,35,9.9,35,9.7
		z"/>
	<path class="st0" d="M36.4,9.7V9.2c0-0.2-0.2-0.4-0.4-0.4c-0.2,0-0.4,0.2-0.4,0.4v0.5c0,0.2,0.2,0.4,0.4,0.4
		C36.2,10.1,36.4,9.9,36.4,9.7z"/>
	<path class="st0" d="M37.7,9.7V9.2c0-0.2-0.2-0.4-0.4-0.4c-0.2,0-0.4,0.2-0.4,0.4v0.5c0,0.2,0.2,0.4,0.4,0.4
		C37.5,10.1,37.7,9.9,37.7,9.7z"/>
	<path class="st0" d="M8.7,11.7c-1.7,0-3.1,1.4-3.1,3.1S7,18,8.7,18s3.1-1.4,3.1-3.1c0-0.1,0-0.1,0-0.2c0-0.1-0.1-0.2-0.2-0.2
		c-0.1,0-0.2,0.1-0.2,0.2c0,0.1,0,0.1,0,0.2c0,1.5-1.2,2.7-2.7,2.7c-1.5,0-2.7-1.2-2.7-2.7c0-1.5,1.2-2.7,2.7-2.7
		C8.9,12.1,9,12,9,11.9C9,11.8,8.9,11.7,8.7,11.7z"/>
	<path class="st0" d="M7.4,14.2c-0.1-0.1-0.2-0.1-0.3,0c-0.1,0.1-0.1,0.2,0,0.3l1.2,1.3c0,0,0.1,0.1,0.2,0.1c0,0,0,0,0,0
		c0.1,0,0.1,0,0.2-0.1l3.2-3.1c0.1-0.1,0.1-0.2,0-0.3c-0.1-0.1-0.2-0.1-0.3,0l-3,2.9L7.4,14.2z"/>
	<path class="st0" d="M38.7,6.2H12c-0.7,0-1.3,0.6-1.3,1.3v0.7c0,0.2,0.2,0.4,0.4,0.4s0.4-0.2,0.4-0.4V8.1c0-0.6,0.5-1,1-1h25.5
		c0.6,0,1,0.5,1,1l0,3.3H22.9c0,0-0.1,0-0.1,0h-9.1c-0.2-0.2-0.3-0.3-0.5-0.5C11,8.6,7.5,8.4,5.1,10.3c-0.2,0.1-0.2,0.4-0.1,0.6
		c0.1,0.1,0.4,0.2,0.5,0c2.4-1.8,5.9-1.4,7.8,1.2c1.5,2,1.5,4.6,0,6.6c-2.2,2.9-6.6,3-8.8,0.1c-1.8-2-1.2-5.5,0.1-6.9
		c0.1-0.1,0.1-0.4,0-0.5c-0.1-0.2-0.4-0.2-0.6,0c-1.7,2.1-1.8,5.1-0.4,7.4c-2.2,1.9-3.4,3.1-3.5,3.8c-0.2,0.7,0.9,1.7,1.5,1.6
		s2-1.3,3.8-3.5c0,0,0,0,0.1,0v11.9c0,0.6,0.5,1.2,1.2,1.2h4.3c0.2,0,0.4-0.2,0.4-0.4c0-0.2-0.2-0.4-0.4-0.4H6.7
		c-0.2,0-0.4-0.2-0.4-0.4V21.1c2.3,1,5.1,0.6,7-1.3c2-2,2.4-5.2,1-7.6h8.6c0.2,0,0.4,0.2,0.4,0.4v15.5h-4.5c-0.2,0-0.4,0.2-0.4,0.4
		V33H13c-0.2,0-0.4,0.2-0.4,0.4c0,0.2,0.2,0.4,0.4,0.4h5.8c0.1,0,0.2,0,0.3-0.1l4.9-4.9c0.1-0.1,0.1-0.2,0.1-0.3c0,0,0,0,0,0V12.6
		c0-0.1,0-0.3-0.1-0.4h15.2l0,8c0,0.2,0.2,0.4,0.4,0.4h0c0.2,0,0.4-0.2,0.4-0.4V7.6C40,6.8,39.4,6.2,38.7,6.2z M1.5,23.4
		c-0.2,0-0.8-0.5-0.7-0.7c0-0.3,0.9-1.4,3.2-3.3c0.1,0.2,0.3,0.3,0.4,0.5c0.2,0.2,0.3,0.3,0.5,0.4C2.9,22.5,1.8,23.4,1.5,23.4z
		 M19.1,32.5v-3.6h3.6L19.1,32.5z"/>
	<path class="st0" d="M39.6,21.9c-0.2,0-0.4,0.2-0.4,0.4l0,2.4c0,0.5,0,0.8-0.4,0.8H25.2c-0.2,0-0.4,0.2-0.4,0.4
		c0,0.2,0.2,0.4,0.4,0.4h3.5v5.2h-3.5c-0.2,0-0.4,0.2-0.4,0.4c0,0.2,0.2,0.4,0.4,0.4h9.6c0.2,0,0.4-0.2,0.4-0.4
		c0-0.2-0.2-0.4-0.4-0.4h-5.2v-5.2h9.1c0.7,0,1.3-0.6,1.3-1.3v-2.8C40,22.1,39.8,21.9,39.6,21.9z"/>
	<path class="st0" d="M11.2,25.4h-2c-0.2,0-0.4,0.2-0.4,0.4s0.2,0.4,0.4,0.4h2c0.2,0,0.4-0.2,0.4-0.4S11.4,25.4,11.2,25.4z"/>
	<path class="st0" d="M14.9,8.4h6.6h1.3c0.1,0,0.3-0.1,0.3-0.2c0-0.1-0.1-0.2-0.3-0.2h-1.3h-6.6c-0.9,0-1.7,0.6-1.7,1.3
		c0,0.7,0.7,1.3,1.7,1.3h12.6c0.9,0,1.7-0.6,1.7-1.3c0-0.7-0.8-1.3-1.7-1.3h-2.3c0,0,0,0,0,0h-1.3c-0.1,0-0.3,0.1-0.3,0.2
		c0,0.1,0.1,0.2,0.3,0.2H24v0h3.5c0.6,0,1.2,0.4,1.2,0.9c0,0.5-0.5,0.9-1.2,0.9H14.9c-0.6,0-1.2-0.4-1.2-0.9
		C13.8,8.8,14.3,8.4,14.9,8.4z"/>
	<circle class="st0" cx="10.3" cy="29.8" r="0.6"/>
	<circle class="st0" cx="12.5" cy="29.8" r="0.6"/>
	<circle class="st0" cx="14.6" cy="29.8" r="0.6"/>
</g>
</svg>
