<?xml version="1.0" encoding="utf-8"?>
<!-- Generator: Adobe Illustrator 25.2.0, SVG Export Plug-In . SVG Version: 6.00 Build 0)  -->
<svg version="1.1" id="Capa_1" xmlns="http://www.w3.org/2000/svg" xmlns:xlink="http://www.w3.org/1999/xlink" x="0px" y="0px"
	 viewBox="0 0 40 40" style="enable-background:new 0 0 40 40;" xml:space="preserve">
<style type="text/css">
	.st0{fill:#FFFFFF;}
</style>
<g>
	<path class="st0" d="M21.1,16.8c0.3,0,0.6-0.3,0.6-0.6c0-0.3-0.3-0.6-0.6-0.6h-4c-0.3,0-0.6,0.3-0.6,0.6c0,0.3,0.3,0.6,0.6,0.6
		H21.1z"/>
	<path class="st0" d="M15.8,19.4c0,0.3,0.3,0.6,0.6,0.6h4.7c0.3,0,0.6-0.3,0.6-0.6c0-0.3-0.3-0.6-0.6-0.6h-4.7
		C16,18.8,15.8,19,15.8,19.4z"/>
	<path class="st0" d="M12.7,22.6c0,0.3,0.3,0.6,0.6,0.6h7.8c0.3,0,0.6-0.3,0.6-0.6c0-0.3-0.3-0.6-0.6-0.6h-7.8
		C13,21.9,12.7,22.2,12.7,22.6z"/>
	<path class="st0" d="M12.1,25.7c0,0.4,0.2,0.6,0.5,0.6h8.6c0.3,0,0.5-0.3,0.5-0.6c0-0.4-0.2-0.6-0.5-0.6h-8.6
		C12.4,25.1,12.1,25.4,12.1,25.7z"/>
	<path class="st0" d="M34.8,9.9V9.4c0-0.3-0.3-0.5-0.5-0.5s-0.5,0.3-0.5,0.5v0.5c0,0.3,0.3,0.5,0.5,0.5
		C34.7,10.4,34.8,10.1,34.8,9.9z"/>
	<path class="st0" d="M36.2,9.9V9.4c0-0.3-0.3-0.5-0.5-0.5s-0.5,0.3-0.5,0.5v0.5c0,0.3,0.3,0.5,0.5,0.5S36.2,10.1,36.2,9.9z"/>
	<path class="st0" d="M37.5,9.9V9.4c0-0.3-0.3-0.5-0.5-0.5c-0.3,0-0.5,0.3-0.5,0.5v0.5c0,0.3,0.3,0.5,0.5,0.5
		C37.2,10.4,37.5,10.1,37.5,9.9z"/>
	<path class="st0" d="M8.8,11.5c-1.9,0-3.4,1.5-3.4,3.4c0,1.9,1.6,3.5,3.4,3.5c1.9,0,3.4-1.5,3.4-3.4v-0.2c0-0.3-0.3-0.6-0.6-0.6
		c-0.3,0-0.6,0.3-0.6,0.6V15c0,1.3-1,2.3-2.3,2.3s-2.3-1-2.3-2.3c0-1.3,1-2.3,2.3-2.3l0.2,0c0.1-0.1,0.5-0.2,0.5-0.6
		C9.5,11.8,9.3,11.5,8.8,11.5z"/>
	<path class="st0" d="M7.8,14c-0.1-0.1-0.3-0.2-0.4-0.2c-0.1,0-0.3,0-0.4,0.2c-0.2,0.1-0.2,0.3-0.2,0.4c0,0.1,0,0.3,0.2,0.4l1.2,1.3
		c0,0,0.2,0.2,0.5,0.2c0.2,0,0.3-0.1,0.5-0.2l3.2-3.1c0.2-0.2,0.2-0.6,0-0.8c-0.2-0.2-0.3-0.2-0.4-0.2c-0.1,0-0.3,0-0.4,0.2
		l-2.7,2.6L7.8,14z"/>
	<path class="st0" d="M39.2,21c0.4,0,0.8-0.4,0.8-0.8V7.8c0-1-0.7-1.7-1.6-1.7H12.1c-0.9,0-1.6,0.8-1.6,1.6v0.7
		c0,0.4,0.4,0.8,0.8,0.8c0.4,0,0.8-0.4,0.8-0.8V8.3c0-0.4,0.3-0.6,0.6-0.6h25.1c0.4,0,0.6,0.3,0.6,0.6v2.9H13.9l-0.4-0.4
		c-2.3-2.4-5.9-2.7-8.4-0.7c-0.3,0.3-0.3,0.7-0.2,1L5,11.2c0.2,0.2,0.6,0.3,1,0c1-0.8,2.3-1.1,3.6-0.9c1.4,0.2,2.6,1,3.4,2.1
		c1.4,1.8,1.4,4.2,0,6c-1,1.3-2.5,2-4.1,2c0,0,0,0,0,0c-1.6,0-3-0.7-4-2c-1.6-1.8-1.1-4.9,0-6.2c0.2-0.2,0.2-0.4,0.2-0.5
		c0-0.1,0-0.3-0.1-0.5c-0.1-0.2-0.3-0.3-0.4-0.3c-0.3,0-0.5,0.1-0.7,0.3c-1.6,2-1.8,4.9-0.5,7.3c-2.4,2-3.2,3-3.3,3.7
		c-0.1,0.4,0,0.9,0.4,1.3c0.4,0.4,1,0.8,1.5,0.7c0.7-0.1,1.9-1.2,3.4-2.9v10.8c0,0.7,0.6,1.5,1.5,1.5h4.2c0.4,0,0.8-0.4,0.8-0.8
		c0-0.4-0.4-0.8-0.8-0.8l-4.3,0V21.6c2.4,0.8,5,0.2,6.8-1.6c1.9-1.9,2.4-4.9,1.3-7.4l7.9,0v14.9h-4.1c-0.4,0-0.8,0.4-0.8,0.8v4.1
		h-4.9c-0.4,0-0.8,0.4-0.8,0.8c0,0.4,0.4,0.8,0.8,0.8h5.7c0.1,0,0.3,0,0.6-0.2l4.8-4.8c0.2-0.2,0.2-0.4,0.2-0.6V26
		c0.1,0.3,0.4,0.5,0.7,0.5h3.1v4.4h-3.1c-0.4,0-0.8,0.4-0.8,0.8c0,0.4,0.4,0.8,0.8,0.8h9.4c0.4,0,0.8-0.4,0.8-0.8
		c0-0.4-0.4-0.8-0.8-0.8h-4.7v-4.4h8.6c0.9,0,1.6-0.8,1.6-1.6v-2.8c0-0.3-0.4-0.7-0.8-0.7c-0.4,0-0.8,0.4-0.8,0.8v2.4
		c0,0.2,0,0.4,0,0.4H25.1c-0.3,0-0.6,0.2-0.7,0.5V12.7c0,0,0,0,0,0h14.1v7.5C38.5,20.6,38.8,21,39.2,21z M21.7,29.1l-2.3,2.3v-2.3
		H21.7z M1.4,22.7c0.1-0.2,0.7-1,2.7-2.7C4.2,20,4.3,20,4.3,20.1l0.1,0.1c0.1,0.1,0.1,0.1,0.2,0.2C2.9,22.2,2,22.8,1.8,23
		C1.7,22.9,1.5,22.8,1.4,22.7z"/>
	<path class="st0" d="M11.9,25.7c0-0.3-0.3-0.6-0.6-0.6h-2c-0.3,0-0.6,0.3-0.6,0.6c0,0.3,0.3,0.6,0.6,0.6h2
		C11.6,26.3,11.9,26,11.9,25.7z"/>
	<path class="st0" d="M14.9,8.7h7.8c0.1,0,0.4-0.1,0.4-0.3c0-0.2-0.1-0.3-0.4-0.3h-7.8c-1,0-1.8,0.7-1.8,1.4c0,0.8,0.8,1.4,1.8,1.4
		h12.4c1,0,1.8-0.7,1.8-1.4c0-0.7-0.8-1.4-1.8-1.4h-3.5c-0.1,0-0.4,0.1-0.4,0.3c0,0.2,0.1,0.3,0.4,0.3h3.5c0.6,0,1.1,0.4,1.1,0.8
		c0,0.4-0.5,0.8-1.1,0.8H14.9c-0.6,0-1.1-0.4-1.1-0.7C14,9.1,14.4,8.7,14.9,8.7z"/>
	<path class="st0" d="M9.6,29.6c0,0.5,0.4,0.8,0.8,0.8c0.5,0,0.8-0.4,0.8-0.8c0-0.5-0.4-0.8-0.8-0.8C10,28.8,9.6,29.2,9.6,29.6z"/>
	<path class="st0" d="M12.6,30.5c0.5,0,0.8-0.4,0.8-0.8c0-0.5-0.4-0.8-0.8-0.8c-0.5,0-0.8,0.4-0.8,0.8
		C11.8,30.1,12.1,30.5,12.6,30.5z"/>
	<path class="st0" d="M13.8,29.6c0,0.5,0.4,0.8,0.8,0.8s0.8-0.4,0.8-0.8c0-0.5-0.4-0.8-0.8-0.8S13.8,29.2,13.8,29.6z"/>
</g>
</svg>
