<?xml version="1.0" encoding="utf-8"?>
<!-- Generator: Adobe Illustrator 25.1.0, SVG Export Plug-In . SVG Version: 6.00 Build 0)  -->
<svg version="1.1" id="Warstwa_1" xmlns="http://www.w3.org/2000/svg" xmlns:xlink="http://www.w3.org/1999/xlink" x="0px" y="0px"
	 viewBox="0 0 40 40" style="enable-background:new 0 0 40 40;" xml:space="preserve">
<style type="text/css">
	.st0{fill:#FFFFFF;}
	.st1{fill:#FFFFFF;stroke:#FFFFFF;stroke-width:0.6585;stroke-miterlimit:10;}
</style>
<g>
	<path class="st0" d="M39.22,8.04h-2.63v-0.9c0.01-0.36-0.22-0.68-0.56-0.78c-1.82-0.48-3.7-0.72-5.59-0.71
		c-3.1,0-7.33,0.7-10.45,3.88c-3.1-3.21-7.36-3.88-10.45-3.88c-1.89,0-3.77,0.24-5.59,0.71C3.6,6.46,3.37,6.78,3.39,7.14v0.89H0.78
		C0.35,8.03,0,8.38,0,8.81v24.76c0,0.43,0.35,0.78,0.78,0.78c0.13,0,0.26-0.04,0.38-0.1c0.08-0.04,7.83-4.28,18.65-1.55h0.12H20
		c0.06,0.01,0.12,0.01,0.19,0c10.85-2.75,18.61,1.48,18.65,1.55c0.24,0.14,0.54,0.14,0.78,0c0.24-0.14,0.39-0.39,0.39-0.67V8.81
		C40,8.39,39.65,8.04,39.22,8.04C39.22,8.04,39.22,8.04,39.22,8.04L39.22,8.04z M1.55,32.34V9.59H3.4v19.45
		c0,0.43,0.34,0.78,0.77,0.78c0.04,0,0.08,0,0.13-0.01c1.6-0.24,3.22-0.37,4.85-0.39c2.25-0.04,4.49,0.3,6.62,1
		C10.94,29.84,6.05,30.5,1.55,32.34L1.55,32.34z M19.22,30.35c-1.61-1.05-4.76-2.47-10.08-2.47c-1.41,0-2.82,0.09-4.22,0.27V7.75
		c1.51-0.34,3.05-0.51,4.6-0.51c2.9,0,6.9,0.67,9.68,3.8L19.22,30.35z M20.77,11.04c2.78-3.1,6.78-3.8,9.68-3.8
		c1.55,0,3.09,0.18,4.6,0.51v20.4c-1.39-0.18-2.79-0.27-4.19-0.28c-5.29,0-8.44,1.42-10.08,2.47V11.04z M38.44,32.34
		c-4.51-1.84-9.41-2.5-14.24-1.92c2.15-0.7,4.39-1.04,6.65-1c1.63,0.01,3.26,0.14,4.88,0.38c0.42,0.06,0.82-0.23,0.88-0.65
		c0.01-0.04,0.01-0.08,0.01-0.13V9.59h1.85L38.44,32.34z"/>
	<path class="st1" d="M31.33,18.91c-0.1-0.72-0.45-1.38-0.99-1.89c-0.6-0.55-1.37-0.86-2.19-0.86s-1.59,0.31-2.19,0.86
		c-0.54,0.5-0.89,1.17-0.99,1.89c-1.16,0.51-1.93,1.66-1.93,2.94c0,1.77,1.44,3.21,3.21,3.21c0.55,0,1.08-0.14,1.55-0.4v3.27h0.69
		v-3.27c0.47,0.26,1,0.4,1.55,0.4c1.77,0,3.21-1.44,3.21-3.21C33.25,20.57,32.49,19.41,31.33,18.91z M30.04,24.37
		c-0.56,0-1.11-0.19-1.55-0.53v-2.11l1.55-0.81l-0.32-0.61l-1.23,0.64v-1.36H27.8v2.89l-1.23-0.64l-0.32,0.61l1.55,0.81v0.58
		c-0.44,0.34-0.99,0.53-1.55,0.53c-1.39,0-2.52-1.13-2.52-2.52c0-1.06,0.67-2.02,1.67-2.37l0.21-0.08l0.02-0.22
		c0.05-0.63,0.33-1.22,0.8-1.65c0.47-0.44,1.08-0.68,1.72-0.68s1.25,0.24,1.72,0.68c0.47,0.43,0.75,1.02,0.8,1.65l0.02,0.22
		l0.21,0.08c1,0.36,1.67,1.31,1.67,2.37C32.56,23.24,31.43,24.37,30.04,24.37z"/>
	<path class="st0" d="M8,11.17h8.15c0.44,0,0.8,0.36,0.8,0.8v0c0,0.44-0.36,0.8-0.8,0.8H8c-0.44,0-0.8-0.36-0.8-0.8v0
		C7.2,11.53,7.55,11.17,8,11.17z"/>
	<path class="st0" d="M8,13.9h8.15c0.44,0,0.8,0.36,0.8,0.8v0c0,0.44-0.36,0.8-0.8,0.8H8c-0.44,0-0.8-0.36-0.8-0.8v0
		C7.2,14.26,7.55,13.9,8,13.9z"/>
	<path class="st0" d="M8,16.63h8.15c0.44,0,0.8,0.36,0.8,0.8v0c0,0.44-0.36,0.8-0.8,0.8H8c-0.44,0-0.8-0.36-0.8-0.8v0
		C7.2,16.99,7.55,16.63,8,16.63z"/>
</g>
</svg>
