<?xml version="1.0" encoding="utf-8"?>
<!-- Generator: Adobe Illustrator 25.2.0, SVG Export Plug-In . SVG Version: 6.00 Build 0)  -->
<svg version="1.1" id="Out_line" xmlns="http://www.w3.org/2000/svg" xmlns:xlink="http://www.w3.org/1999/xlink" x="0px" y="0px"
	 viewBox="0 0 40 40" style="enable-background:new 0 0 40 40;" xml:space="preserve">
<style type="text/css">
	.st0{fill:#FFFFFF;}
</style>
<g>
	<path class="st0" d="M31.9,13.3h-2v1.4h2c1.1,0,1.9,0.9,1.9,1.9v15.3h-0.6V16.7c0-0.7-0.6-1.3-1.3-1.3h-0.7v1.4h0.7v15.1H8.1V16.7
		h2.7v-1.4H8c-0.7,0-1.3,0.6-1.3,1.3v15.2H6.1V16.7c0-1.1,0.9-1.9,1.9-1.9h8v-1.4H8c-1.8,0-3.3,1.5-3.3,3.3v15.9
		c0,1.8,1.5,3.3,3.3,3.3h9.2v0.6c0,1.1-0.9,1.9-1.9,1.9c-0.4,0-0.7,0.3-0.7,0.7c0,0.4,0.3,0.7,0.7,0.7h9.2c0.4,0,0.7-0.3,0.7-0.7
		c0-0.4-0.3-0.7-0.7-0.7c-1.1,0-1.9-0.9-1.9-1.9v-0.6h9.3c1.8,0,3.3-1.5,3.3-3.3V16.7C35.2,14.7,33.8,13.3,31.9,13.3z M21.9,38.5
		h-3.8c0.4-0.7,0.7-1.3,0.7-1.9v-0.6h2.6l0,0.6C21.2,37.2,21.4,37.8,21.9,38.5z M33.7,33.3c-0.3,0.6-0.9,1.2-1.8,1.2H8
		c-0.8,0-1.5-0.5-1.8-1.2H33.7z"/>
	<rect x="14.6" y="15.3" class="st0" width="1.4" height="1.4"/>
	<path class="st0" d="M23.1,8.8l-3.3-3.3c-0.2-0.2-0.4-0.3-0.6-0.2c-0.2,0-0.3,0.1-0.4,0.2l-3.3,3.3c-0.2,0.2-0.3,0.4-0.2,0.6
		c0,0.2,0.1,0.3,0.2,0.4c0.1,0.2,0.2,0.3,0.4,0.3h1.2v8h1.4V9.3c0-0.4-0.3-0.7-0.7-0.7h-0.3L19.2,7l1.6,1.6h-0.3l0,0
		c-0.2,0.1-0.5,0.4-0.5,0.7V18h1.4v-8h1.2c0.4,0,0.7-0.3,0.7-0.7c0-0.2-0.1-0.3-0.1-0.4C23.1,8.9,23.1,8.9,23.1,8.8z"/>
	<path class="st0" d="M13.2,20v6.7h1.4v-6H16c0.4,0,0.7-0.3,0.7-0.7c0-0.2-0.1-0.3-0.1-0.4c0,0,0-0.1-0.1-0.1l-3.3-3.3
		c-0.2-0.2-0.4-0.3-0.6-0.2c-0.2,0-0.3,0.1-0.4,0.2L9,19.4c-0.2,0.2-0.3,0.4-0.2,0.6c0,0.2,0.1,0.3,0.2,0.4c0.1,0.1,0.3,0.2,0.5,0.2
		h1.2v6h1.3V20c0-0.4-0.3-0.7-0.7-0.7H11l1.6-1.6l1.6,1.6H14C13.6,19.2,13.2,19.5,13.2,20z"/>
	<path class="st0" d="M26.6,16v9.3H28v-8.6h1.2c0.4,0,0.7-0.3,0.7-0.7c0-0.2-0.1-0.3-0.1-0.4c0,0-0.1-0.1-0.1-0.1l-3.3-3.3
		c-0.2-0.2-0.4-0.3-0.6-0.2c-0.2,0-0.3,0.1-0.4,0.2l-3.3,3.3C22,15.5,22,15.7,22,15.9c0,0.2,0.1,0.3,0.2,0.4
		c0.1,0.1,0.3,0.2,0.5,0.2h1.1v8.6h1.4V16c0-0.4-0.3-0.7-0.7-0.7h-0.3l1.6-1.6l1.6,1.6h-0.3C26.9,15.3,26.6,15.6,26.6,16z"/>
	<path class="st0" d="M38.1,11.6l-0.2-0.2c-1.2-1.3-2.7-2.2-4.4-2.6c-1.8-6.4-8.4-10.1-14.8-8.4c-2.9,0.8-5.3,2.6-6.9,5.1
		C10.7,5.2,9.4,5.3,8.4,6C7.3,6.6,6.5,7.6,6.2,8.8l0,0.1c-4.2,1-6.9,5.3-5.9,9.6c0.4,1.7,1.3,3.2,2.7,4.3l0,0l0.9-1.1l0,0
		c-2.8-2.3-3.1-6.4-0.9-9.3c1.2-1.5,3.1-2.4,5-2.4c0.4,0,0.8,0,1.2,0.1l0.1,0l0.2-1.4l0,0C9,8.7,8.5,8.7,8,8.7H7.7
		c0.5-1.2,1.7-1.9,3-1.9c0.1,0,0.3,0,0.4,0C11,7,11,7.1,10.9,7.3c-0.1,0.2-0.1,0.3-0.2,0.5l0,0.1L12,8.3l0,0
		c2.1-5.4,8.2-8.2,13.6-6.1c3.9,1.5,6.5,5.1,6.8,9.3l0,0l1.4-0.1v0c0-0.2,0-0.3,0-0.5c0-0.1,0-0.3,0-0.4c1.7,0.5,3,1.6,3.9,3.1
		c0.8,1.5,1,3.3,0.5,5c-0.4,1.3-1.1,2.4-2.2,3.3l0,0l0.9,1.1l0,0c1.8-1.4,2.8-3.4,3.1-5.5C40.1,15.3,39.4,13.2,38.1,11.6z"/>
</g>
</svg>
