<?xml version="1.0" encoding="utf-8"?>
<!-- Generator: Adobe Illustrator 25.2.0, SVG Export Plug-In . SVG Version: 6.00 Build 0)  -->
<svg version="1.1" id="Out_line" xmlns="http://www.w3.org/2000/svg" xmlns:xlink="http://www.w3.org/1999/xlink" x="0px" y="0px"
	 viewBox="0 0 40 40" style="enable-background:new 0 0 40 40;" xml:space="preserve">
<style type="text/css">
	.st0{fill:#FFFFFF;}
</style>
<g>
	<path class="st0" d="M32,13.3h-2v1.3h2c1.1,0,2,0.9,2,2V32h-0.7V16.7c0-0.7-0.6-1.3-1.3-1.3h-0.7v1.3H32V32H8V16.7h2.7v-1.3H8
		c-0.7,0-1.3,0.6-1.3,1.3V32H6V16.7c0-1.1,0.9-2,2-2h8v-1.3H8c-1.8,0-3.3,1.5-3.3,3.3v16C4.7,34.5,6.2,36,8,36h9.3v0.7
		c0,1.1-0.9,2-2,2c-0.4,0-0.7,0.3-0.7,0.7c0,0.4,0.3,0.7,0.7,0.7h9.3c0.4,0,0.7-0.3,0.7-0.7c0-0.4-0.3-0.7-0.7-0.7c-1.1,0-2-0.9-2-2
		V36H32c1.8,0,3.3-1.5,3.3-3.3v-16C35.3,14.8,33.9,13.3,32,13.3z M22,38.7h-4c0.4-0.6,0.7-1.3,0.7-2V36h2.7v0.7
		C21.3,37.4,21.6,38.1,22,38.7z M32,34.7H8c-0.8,0-1.6-0.5-1.9-1.3h27.8C33.6,34.1,32.9,34.7,32,34.7z"/>
	<rect x="14.7" y="15.3" class="st0" width="1.3" height="1.3"/>
	<path class="st0" d="M19.8,5.5c-0.3-0.3-0.7-0.3-0.9,0l-3.3,3.3c-0.3,0.3-0.3,0.7,0,0.9C15.7,9.9,15.8,10,16,10h1.3v8h1.3V9.3
		c0-0.4-0.3-0.7-0.7-0.7h-0.4l1.7-1.7l1.7,1.7h-0.4C20.3,8.7,20,9,20,9.3V18h1.3v-8h1.3c0.4,0,0.7-0.3,0.7-0.7
		c0-0.2-0.1-0.3-0.2-0.5L19.8,5.5z"/>
	<path class="st0" d="M13.3,20v6.7h1.3v-6H16c0.4,0,0.7-0.3,0.7-0.7c0-0.2-0.1-0.3-0.2-0.5l-3.3-3.3c-0.3-0.3-0.7-0.3-0.9,0
		l-3.3,3.3c-0.3,0.3-0.3,0.7,0,0.9c0.1,0.1,0.3,0.2,0.5,0.2h1.3v6H12V20c0-0.4-0.3-0.7-0.7-0.7h-0.4l1.7-1.7l1.7,1.7H14
		C13.6,19.3,13.3,19.6,13.3,20z"/>
	<path class="st0" d="M26.7,16v9.3H28v-8.7h1.3c0.4,0,0.7-0.3,0.7-0.7c0-0.2-0.1-0.3-0.2-0.5l-3.3-3.3c-0.3-0.3-0.7-0.3-0.9,0
		l-3.3,3.3c-0.3,0.3-0.3,0.7,0,0.9c0.1,0.1,0.3,0.2,0.5,0.2H24v8.7h1.3V16c0-0.4-0.3-0.7-0.7-0.7h-0.4l1.7-1.7l1.7,1.7h-0.4
		C27,15.3,26.7,15.6,26.7,16z"/>
	<path class="st0" d="M38,11.4c-1.2-1.3-2.7-2.2-4.4-2.6c-1.8-6.4-8.4-10.2-14.8-8.4C16,1.2,13.5,3,11.9,5.5
		C9.4,4.8,6.9,6.3,6.2,8.8c0,0,0,0.1,0,0.1c-4.3,1-6.9,5.3-5.9,9.6c0.4,1.7,1.3,3.2,2.7,4.3l0.8-1c-2.8-2.3-3.2-6.5-0.9-9.4
		C4.1,10.9,6,10,8,10c0.4,0,0.8,0,1.2,0.1l0.2-1.3C9,8.7,8.5,8.7,8,8.7c-0.1,0-0.3,0-0.4,0c0.6-1.4,2.1-2.2,3.6-2
		c-0.2,0.3-0.3,0.7-0.5,1.1L12,8.2c2.1-5.5,8.2-8.3,13.7-6.2c3.9,1.5,6.6,5.1,6.9,9.4l1.3-0.1c0-0.3-0.1-0.7-0.1-1
		c3.5,1,5.6,4.7,4.5,8.3c-0.4,1.3-1.1,2.4-2.2,3.3l0.8,1C40.5,20,41,15,38.2,11.6C38.1,11.5,38.1,11.5,38,11.4z"/>
</g>
</svg>
