<?xml version="1.0" encoding="utf-8"?>
<!-- Generator: Adobe Illustrator 25.2.0, SVG Export Plug-In . SVG Version: 6.00 Build 0)  -->
<svg version="1.1" id="Capa_1" xmlns="http://www.w3.org/2000/svg" xmlns:xlink="http://www.w3.org/1999/xlink" x="0px" y="0px"
	 viewBox="0 0 40 40" style="enable-background:new 0 0 40 40;" xml:space="preserve">
<style type="text/css">
	.st0{fill:#FFFFFF;}
</style>
<g>
	<g>
		<path class="st0" d="M27.1,4.8h9.1c0.3,0,0.6-0.3,0.6-0.6s-0.3-0.6-0.6-0.6h-9.1c-0.3,0-0.6,0.3-0.6,0.6S26.8,4.8,27.1,4.8z"/>
		<path class="st0" d="M27.1,7.5h9.1c0.3,0,0.6-0.3,0.6-0.6s-0.3-0.6-0.6-0.6h-9.1c-0.3,0-0.6,0.3-0.6,0.6S26.8,7.5,27.1,7.5z"/>
		<path class="st0" d="M22.7,30.1l-2.7-0.7l-0.8-1.2c-0.5-0.7-1.5-0.9-2.2-0.4v-1.4c1.1-0.7,1.9-1.8,2.4-3h1.9c1,0,1.8-0.8,1.8-1.8
			v-2.4c0-0.4-0.2-0.9-0.4-1.2v-2.6c0-4-3.3-7.3-7.3-7.3h-4.1c-4,0-7.3,3.3-7.3,7.3v2.6c-0.3,0.3-0.4,0.7-0.4,1.2v2.4
			c0,1,0.8,1.8,1.8,1.8h1.9c0.5,1.2,1.3,2.3,2.4,3v1.4c-0.7-0.5-1.7-0.3-2.2,0.4l-0.8,1.2c-2.7,0.7-2.7,0.7-3.1,0.9
			c-0.3,0.1-0.5,0.4-0.4,0.7c0.1,0.3,0.4,0.5,0.7,0.4c0,0,0.2-0.1,2.9-0.8L10,33c0.7,0.6,1.7,0.6,2.4,0l1.1-1l1.1,1
			c0.7,0.6,1.7,0.6,2.4,0l2.9-2.5l2.6,0.7c2,0.5,3.4,2.4,3.4,4.5v2.8c0,0.2-0.2,0.4-0.4,0.4h-2.1v-1.4c0-0.3-0.3-0.6-0.6-0.6
			c-0.3,0-0.6,0.3-0.6,0.6v1.4H4.9v-1.4c0-0.3-0.3-0.6-0.6-0.6S3.7,37,3.7,37.4v1.4H1.6c-0.2,0-0.4-0.2-0.4-0.4v-2.8
			c0-1.1,0.4-2.1,1.1-3c0.2-0.2,0.2-0.6-0.1-0.8c-0.2-0.2-0.6-0.2-0.8,0.1C0.5,33,0,34.3,0,35.7v2.8C0,39.3,0.7,40,1.6,40h23.9
			c0.9,0,1.6-0.7,1.6-1.6v-2.8C27,33.1,25.3,30.8,22.7,30.1L22.7,30.1z M22.1,19.1v2.4c0,0.4-0.3,0.6-0.6,0.6h-1.6
			c0.1-0.4,0.1-0.7,0.1-1.1v-2.6h1.5C21.8,18.4,22.1,18.7,22.1,19.1z M5.6,22.1c-0.4,0-0.6-0.3-0.6-0.6v-2.4c0-0.4,0.3-0.6,0.6-0.6
			h1.5V21c0,0.4,0,0.7,0.1,1.1L5.6,22.1L5.6,22.1z M6.4,15.3v2c-0.7,0-0.8,0-1,0v-2c0-3.4,2.7-6.1,6.1-6.1h4.1
			c3.4,0,6.1,2.7,6.1,6.1v2c-0.2,0-0.2,0-1,0v-2c0-2.8-2.3-5.2-5.2-5.2h-3.9C8.7,10.1,6.4,12.4,6.4,15.3L6.4,15.3z M7.7,17.3
			C7.7,17.3,7.7,17.3,7.7,17.3H7.5v-2c0-2.2,1.8-4,4-4h3.9c2.2,0,4,1.8,4,4v2h-0.1c-0.3,0-0.6-0.3-0.6-0.6v-0.9c0-1-0.8-1.8-1.8-1.8
			c-0.3,0-0.5,0.1-0.7,0.2c-1.7,0.8-3.7,0.8-5.4,0c-0.2-0.1-0.5-0.2-0.7-0.2c-1,0-1.8,0.8-1.8,1.8v0.9C8.3,17,8,17.3,7.7,17.3z
			 M8.3,21v-2.7c0.7-0.2,1.2-0.9,1.2-1.7v-0.9c0-0.3,0.3-0.6,0.6-0.6c0.1,0,0.2,0,0.2,0.1c2,0.9,4.4,0.9,6.4,0
			c0.1,0,0.2-0.1,0.2-0.1c0.3,0,0.6,0.3,0.6,0.6v0.9c0,0.8,0.5,1.4,1.2,1.7V21c0,2.9-2.3,5.2-5.2,5.2S8.3,23.9,8.3,21z M11.6,32.1
			c-0.2,0.2-0.6,0.2-0.8,0l-2.7-2.4l0.6-1c0.1-0.2,0.4-0.2,0.6-0.1l3.3,2.6L11.6,32.1z M11.1,28.7v-1.7c0.7,0.3,1.5,0.5,2.4,0.5
			s1.6-0.2,2.4-0.5v1.7l-2.4,1.9L11.1,28.7z M16.2,32.1c-0.2,0.2-0.6,0.2-0.8,0l-1-0.8l3.3-2.6c0.2-0.1,0.4-0.1,0.6,0.1l0.6,1
			L16.2,32.1z"/>
		<path class="st0" d="M37.7,0H25.5c-1.3,0-2.3,1-2.3,2.3v0.5c0,0.3,0.3,0.6,0.6,0.6c0.3,0,0.6-0.3,0.6-0.6V2.3
			c0-0.6,0.5-1.1,1.1-1.1h12.2c0.6,0,1.1,0.5,1.1,1.1v6.6c0,0.6-0.5,1.1-1.1,1.1h-7.3c-0.4,0-0.8,0.2-1.1,0.4l-2.7,2.7l0.4-2.1
			c0.1-0.6-0.3-1.1-0.9-1.1h-0.7c-0.6,0-1.1-0.5-1.1-1.1V5.6c0-0.3-0.3-0.6-0.6-0.6c-0.3,0-0.6,0.3-0.6,0.6v3.4c0,1.3,1,2.3,2.3,2.3
			h0.4l-0.7,3c-0.1,0.3,0.1,0.7,0.4,0.8c0.3,0.2,0.7,0.1,0.9-0.1l3.6-3.6c0.1-0.1,0.2-0.1,0.2-0.1h7.3c1.3,0,2.3-1,2.3-2.3V2.3
			C40,1,39,0,37.7,0z"/>
	</g>
</g>
</svg>
