<?xml version="1.0" encoding="utf-8"?>
<!-- Generator: Adobe Illustrator 25.2.0, SVG Export Plug-In . SVG Version: 6.00 Build 0)  -->
<svg version="1.1" id="Capa_1" xmlns="http://www.w3.org/2000/svg" xmlns:xlink="http://www.w3.org/1999/xlink" x="0px" y="0px"
	 viewBox="0 0 40 40" style="enable-background:new 0 0 40 40;" xml:space="preserve">
<style type="text/css">
	.st0{fill:#FFFFFF;}
</style>
<g>
	<path class="st0" d="M27.2,4.9h9.1c0.3,0,0.6-0.3,0.6-0.6c0-0.3-0.3-0.6-0.6-0.6h-9.1c-0.3,0-0.6,0.3-0.6,0.6
		C26.5,4.6,26.8,4.9,27.2,4.9z"/>
	<path class="st0" d="M27.2,7.6h9.1c0.3,0,0.6-0.3,0.6-0.6s-0.3-0.6-0.6-0.6h-9.1c-0.3,0-0.6,0.3-0.6,0.6S26.8,7.6,27.2,7.6z"/>
	<path class="st0" d="M22.8,30l-2.7-0.7l-0.8-1.2c-0.3-0.4-0.6-0.6-1.1-0.7c-0.4-0.1-0.8,0-1.1,0.2v-1.3c1-0.6,1.8-1.7,2.4-3h1.9
		c1,0,1.8-0.8,1.8-1.8v-2.4c0-0.4-0.2-0.9-0.4-1.2v-2.6c0-1.9-0.8-3.8-2.2-5.2s-3.2-2.2-5.2-2.2h-4.1c-1.9,0-3.8,0.8-5.2,2.2
		c-1.4,1.4-2.2,3.2-2.2,5.2V18c-0.3,0.3-0.4,0.7-0.4,1.2v2.4c0,1,0.8,1.8,1.8,1.8h1.9c0.5,1.3,1.4,2.3,2.4,3v1.3
		c-0.3-0.2-0.7-0.3-1.1-0.2c-0.4,0.1-0.8,0.3-1.1,0.7l-0.8,1.2C4.1,30,4.1,30,3.7,30.2c-0.2,0.1-0.3,0.2-0.4,0.3
		c-0.1,0.1-0.1,0.3,0,0.4c0.1,0.2,0.2,0.3,0.3,0.4c0.1,0.1,0.3,0.1,0.4,0c0,0,0.3-0.1,2.9-0.8l3.2,2.4c0.7,0.6,1.7,0.6,2.5,0l1.1-1
		l1.1,1c0.7,0.6,1.7,0.6,2.5,0l2.9-2.5l2.6,0.7c1.9,0.5,3.4,2.4,3.4,4.4v2.8c0,0.2-0.2,0.3-0.3,0.3h-2v-1.3c0-0.3-0.3-0.6-0.6-0.6
		c-0.3,0-0.6,0.3-0.6,0.6v1.3H5.1v-1.3c0-0.3-0.3-0.6-0.6-0.6c-0.4,0-0.6,0.2-0.6,0.5v1.3h-2c-0.2,0-0.3-0.2-0.3-0.3v-2.8
		c0-1,0.4-2,1.1-3c0.1-0.1,0.2-0.3,0.2-0.4c0-0.2-0.1-0.3-0.3-0.4c-0.1-0.1-0.3-0.2-0.4-0.2c-0.2,0-0.3,0.1-0.4,0.3
		c-0.9,1.1-1.4,2.4-1.4,3.8v2.8c0,0.9,0.7,1.5,1.6,1.5h23.8c0.9,0,1.6-0.7,1.6-1.6v-2.8C27.1,32.9,25.3,30.7,22.8,30z M7.3,22H5.7
		c-0.4,0-0.5-0.3-0.5-0.5v-2.4c0-0.4,0.3-0.5,0.5-0.5h1.4V21C7.2,21.4,7.2,21.7,7.3,22z M21.6,18.5c0.3,0,0.5,0.3,0.5,0.6v2.4
		c0,0.4-0.3,0.5-0.5,0.5h-1.5c0.1-0.4,0.1-0.7,0.1-1v-2.5H21.6z M17,14c-0.3,0-0.5,0.1-0.7,0.2c-1.7,0.8-3.7,0.8-5.3,0
		c-0.2-0.1-0.5-0.2-0.7-0.2c-1,0-1.8,0.8-1.8,1.8v0.9c0,0.3-0.3,0.5-0.5,0.5H7.7v-1.9c0-2.2,1.8-3.9,3.9-3.9h3.9
		c2.2,0,3.9,1.8,3.9,3.9v1.9h-0.1c-0.3,0-0.5-0.3-0.5-0.5v-0.9C18.8,14.8,18,14,17,14z M8.5,18.3c0.7-0.2,1.2-0.9,1.2-1.7v-0.9
		c0-0.3,0.3-0.5,0.5-0.5c0.1,0,0.1,0,0.1,0.1v0l0,0c2,0.9,4.4,0.9,6.4,0c0.1,0,0.2-0.1,0.2-0.1c0.3,0,0.5,0.3,0.5,0.5v0.9
		c0,0.8,0.4,1.4,1.2,1.7V21c0,2.9-2.3,5.1-5.1,5.1S8.5,23.9,8.5,21V18.3z M6.5,15.3v1.9H5.6v-1.9c0-3.4,2.7-6,6-6h4.1
		c3.4,0,6,2.7,6,6v1.9h-0.9v-1.9c0-2.9-2.3-5.2-5.2-5.2h-3.9C8.8,10.1,6.5,12.4,6.5,15.3z M11.3,27.1c0.8,0.3,1.5,0.5,2.3,0.5
		c0.9,0,1.5-0.2,2.3-0.5v1.6l-2.3,1.9l-2.3-1.9V27.1z M18.9,29.8L16.3,32l0,0c-0.1,0.1-0.2,0.1-0.4,0.1c-0.1,0-0.3,0-0.4-0.1
		l-0.9-0.8l3.2-2.5c0.2-0.1,0.4-0.1,0.5,0.1L18.9,29.8z M9.4,28.6l3.2,2.6l-1,0.9l0,0c-0.1,0.1-0.2,0.1-0.4,0.1
		c-0.1,0-0.3,0-0.4-0.1l-2.7-2.4l0.6-1c0-0.1,0.1-0.1,0.2-0.1C9.2,28.6,9.3,28.6,9.4,28.6z"/>
	<path class="st0" d="M39.4,0.7C39,0.3,38.4,0,37.7,0H25.6c-1.3,0-2.3,1-2.3,2.3v0.5c0,0.3,0.3,0.6,0.6,0.6c0.3,0,0.6-0.3,0.6-0.6
		V2.3c0-0.6,0.5-1,1-1h12.2c0.6,0,1,0.5,1,1v6.6c0,0.6-0.5,1-1,1h-7.3c-0.4,0-0.8,0.2-1.1,0.4L26.8,13l0.4-1.9
		c0.1-0.3,0-0.6-0.2-0.8c-0.2-0.2-0.4-0.3-0.7-0.3h-0.7c-0.6,0-1-0.5-1-1V5.6c0-0.3-0.3-0.6-0.6-0.6c-0.3,0-0.6,0.3-0.6,0.6V9
		c0,1.3,1,2.3,2.3,2.3h0.3l-0.7,2.9c-0.1,0.2,0,0.3,0.1,0.5c0.1,0.2,0.2,0.3,0.4,0.3c0.1,0.1,0.3,0.1,0.4,0.1c0.2,0,0.4-0.1,0.6-0.2
		l3.6-3.6c0.1-0.1,0.2-0.1,0.2-0.1h7.3c1.3,0,2.3-1,2.3-2.3l0-6.7C40,1.8,39.8,1.2,39.4,0.7z"/>
</g>
</svg>
