<?xml version="1.0" encoding="utf-8"?>
<!-- Generator: Adobe Illustrator 25.1.0, SVG Export Plug-In . SVG Version: 6.00 Build 0)  -->
<svg version="1.1" id="Warstwa_1" xmlns="http://www.w3.org/2000/svg" xmlns:xlink="http://www.w3.org/1999/xlink" x="0px" y="0px"
	 viewBox="0 0 40 40" style="enable-background:new 0 0 40 40;" xml:space="preserve">
<style type="text/css">
	.st0{fill:#FFFFFF;stroke:#FFFFFF;stroke-width:0.4704;stroke-miterlimit:10;}
	.st1{fill:#FFFFFF;}
</style>
<g>
	<g>
		<path class="st0" d="M22.45,29.78c-0.04,0.01-0.09,0.01-0.13,0.01c-0.09-0.01-0.18-0.06-0.24-0.13l-2.09-2.68l-1.16,1.75
			c-0.05,0.08-0.15,0.16-0.27,0.19c-0.25,0.07-0.51-0.08-0.57-0.33l-2.21-8.24c-0.07-0.25,0.08-0.51,0.33-0.57
			c0.11-0.03,0.22-0.02,0.32,0.03l7.58,4.44c0.12,0.09,0.19,0.18,0.21,0.28c0.07,0.25-0.08,0.51-0.33,0.57l-2.02,0.54l2.02,2.59
			c0.12,0.15,0.09,0.37-0.06,0.49l-1.25,0.99C22.54,29.74,22.5,29.76,22.45,29.78L22.45,29.78z M19.87,26.02
			c0.03-0.01,0.05-0.01,0.08-0.01c0.11,0,0.22,0.05,0.29,0.14l2.17,2.79l0.7-0.55l-2.13-2.73c-0.07-0.09-0.09-0.22-0.06-0.33
			c0.04-0.11,0.13-0.2,0.24-0.23l1.99-0.53l-6.55-3.84l1.92,7.17l1.13-1.71C19.72,26.1,19.79,26.04,19.87,26.02L19.87,26.02z
			 M18.25,28.32c-0.01,0.01-0.01,0.02-0.02,0.03L18.25,28.32z M23.62,24.82L23.62,24.82L23.62,24.82z M23.62,24.82"/>
	</g>
	<g>
		<g>
			<path class="st1" d="M0,32.86c0,1.57,1.19,2.85,2.65,2.85h34.7c1.46,0,2.65-1.28,2.65-2.85V7.14c0-1.57-1.19-2.85-2.65-2.85
				H22.88h-5.76H2.65C1.19,4.29,0,5.57,0,7.14L0,32.86L0,32.86z M38.42,32.86c0,0.7-0.48,1.26-1.06,1.26H2.65
				c-0.59,0-1.06-0.57-1.06-1.26V13.92h36.83V32.86z M1.58,7.14c0-0.7,0.48-1.26,1.06-1.26h34.7c0.59,0,1.06,0.57,1.06,1.26v5.2
				H1.58V7.14z M1.58,7.14"/>
			<g>
				
					<rect x="3.33" y="8.31" transform="matrix(-1 -1.224647e-16 1.224647e-16 -1 8.2538 18.2125)" class="st1" width="1.6" height="1.6"/>
				
					<rect x="9.02" y="8.31" transform="matrix(-1 -1.224647e-16 1.224647e-16 -1 19.6469 18.2125)" class="st1" width="1.6" height="1.6"/>
				
					<rect x="6.18" y="8.31" transform="matrix(-1 -1.224647e-16 1.224647e-16 -1 13.9504 18.2125)" class="st1" width="1.6" height="1.6"/>
			</g>
		</g>
		<g>
			
				<rect x="3.33" y="16.23" transform="matrix(-1 -1.224647e-16 1.224647e-16 -1 8.2538 34.0548)" class="st1" width="1.6" height="1.6"/>
			
				<rect x="9.02" y="16.23" transform="matrix(-1 -1.224647e-16 1.224647e-16 -1 19.6469 34.0548)" class="st1" width="1.6" height="1.6"/>
			
				<rect x="6.18" y="16.23" transform="matrix(-1 -1.224647e-16 1.224647e-16 -1 13.9504 34.0548)" class="st1" width="1.6" height="1.6"/>
		</g>
		<g>
			
				<rect x="29.39" y="30.22" transform="matrix(-1 -1.224647e-16 1.224647e-16 -1 60.3774 62.0414)" class="st1" width="1.6" height="1.6"/>
			
				<rect x="35.09" y="30.22" transform="matrix(-1 -1.224647e-16 1.224647e-16 -1 71.7704 62.0414)" class="st1" width="1.6" height="1.6"/>
			
				<rect x="32.24" y="30.22" transform="matrix(-1 -1.224647e-16 1.224647e-16 -1 66.0739 62.0414)" class="st1" width="1.6" height="1.6"/>
		</g>
	</g>
</g>
</svg>
