<?xml version="1.0" encoding="utf-8"?>
<!-- Generator: Adobe Illustrator 25.2.0, SVG Export Plug-In . SVG Version: 6.00 Build 0)  -->
<svg version="1.1" id="Capa_1" xmlns="http://www.w3.org/2000/svg" xmlns:xlink="http://www.w3.org/1999/xlink" x="0px" y="0px"
	 viewBox="0 0 40 40" style="enable-background:new 0 0 40 40;" xml:space="preserve">
<style type="text/css">
	.st0{fill:#FFFFFF;}
</style>
<g>
	<path class="st0" d="M36,0H3.9C1.8,0,0,1.8,0,3.9v32.1c0,2.1,1.8,3.9,3.9,3.9h22.5c0.4,0,0.8-0.3,0.8-0.8c0-0.5-0.3-0.8-0.8-0.8
		H3.9c-1,0-1.9-0.7-2.2-1.6h7.7c0.4,0,0.8-0.3,0.8-0.8c0-0.5-0.3-0.8-0.8-0.8H1.6V7.2h0.1h36.6v28.8c0,1.3-1.1,2.3-2.3,2.3h-3.2
		c-0.4,0-0.8,0.3-0.8,0.8c0,0.5,0.3,0.8,0.8,0.8h3.2c2.2,0,3.9-1.8,3.9-3.9V3.9C39.9,1.8,38.1,0,36,0z M1.6,5.6L1.6,5.6L1.5,3.9
		c0-1.3,1.1-2.3,2.3-2.3h32.1c1.3,0,2.3,1.1,2.3,2.3v1.7H1.6z"/>
	<path class="st0" d="M34.9,2.8H17.3c-0.4,0-0.8,0.3-0.8,0.8c0,0.5,0.3,0.8,0.8,0.8h17.6c0.4,0,0.8-0.3,0.8-0.8
		C35.7,3.1,35.3,2.8,34.9,2.8z"/>
	<path class="st0" d="M10.2,10.8c0-0.5-0.4-0.8-0.8-0.8H5c-0.4,0-0.8,0.3-0.8,0.8v4.4c0,0.4,0.3,0.8,0.8,0.8h4.4
		c0.4,0,0.8-0.3,0.8-0.8V10.8z M8.6,14.3H5.8v-2.8h2.8V14.3z"/>
	<path class="st0" d="M10.2,19.5c0-0.5-0.4-0.8-0.8-0.8H5c-0.4,0-0.8,0.3-0.8,0.8v4.4c0,0.4,0.3,0.8,0.8,0.8h4.4
		c0.4,0,0.8-0.3,0.8-0.8V19.5z M8.6,23H5.8v-2.8h2.8V23z"/>
	<path class="st0" d="M9.4,27.4H5c-0.4,0-0.8,0.3-0.8,0.8v4.4c0,0.4,0.3,0.8,0.8,0.8h4.4c0.4,0,0.8-0.3,0.8-0.8v-4.4
		C10.2,27.7,9.8,27.4,9.4,27.4z M8.6,31.8H5.8V29h2.8V31.8z"/>
	<path class="st0" d="M27.6,11.5c0.4,0,0.8-0.3,0.8-0.8c0-0.5-0.3-0.8-0.8-0.8h-2.2c-0.4,0-0.8,0.3-0.8,0.8V15
		c0,0.4,0.3,0.8,0.8,0.8h2.2c0.4,0,0.8-0.3,0.8-0.8c0-0.5-0.3-0.7-0.8-0.7h-1.4v-0.6H27c0.4,0,0.8-0.3,0.8-0.8
		c0-0.4-0.3-0.8-0.8-0.8h-0.8v-0.6H27.6z"/>
	<path class="st0" d="M32.6,15.9c0.4,0,0.8-0.3,0.8-0.8v-3.5h1c0.4,0,0.8-0.3,0.8-0.8c0-0.5-0.5-0.8-0.9-0.8h-3.5
		c-0.4,0-0.8,0.3-0.8,0.8c0,0.5,0.3,0.8,0.8,0.8h1v3.5C31.8,15.5,32.1,15.9,32.6,15.9z"/>
	<path class="st0" d="M17.7,15.8c0.4,0,0.8-0.3,0.8-0.8v-2.4l3,3c0.1,0.1,0.3,0.2,0.6,0.2c0.1,0,0.2,0,0.3-0.1
		c0.3-0.1,0.5-0.4,0.5-0.7v-4.3c0-0.4-0.3-0.7-0.8-0.7c-0.4,0-0.8,0.3-0.8,0.8v2.4l-3-3c-0.2-0.2-0.6-0.3-0.9-0.2
		c-0.3,0.1-0.5,0.4-0.5,0.7V15C16.9,15.4,17.2,15.8,17.7,15.8z"/>
	<path class="st0" d="M33.2,30.9l0.8-0.8v2.4c0,0.4,0.3,0.8,0.8,0.8c0.5,0,0.8-0.3,0.8-0.8v-4.3c0.1-0.3-0.1-0.6-0.4-0.7
		c-0.3-0.1-0.6-0.1-0.9,0.2l-1.6,1.6l-1.6-1.6c-0.2-0.2-0.6-0.3-0.9-0.2c-0.3,0.1-0.5,0.4-0.5,0.7v4.3c0,0.4,0.3,0.8,0.8,0.8
		c0.4,0,0.8-0.3,0.8-0.8v-2.4l0.8,0.8C32.4,31.2,32.9,31.2,33.2,30.9z"/>
	<path class="st0" d="M23,30.4c0,1.6,1.3,3,3,3c1.7,0,3-1.3,3-3c-0.1-1.7-1.4-3-3-3C24.4,27.4,23,28.7,23,30.4z M26,29
		c0.8,0,1.4,0.6,1.4,1.4s-0.7,1.4-1.4,1.4c-0.8,0-1.4-0.6-1.4-1.4S25.2,29,26,29z"/>
	<path class="st0" d="M20,29c0.4,0,0.7,0.1,1,0.4c0.3,0.3,0.8,0.3,1.1,0c0.3-0.3,0.3-0.8,0-1.1c-0.6-0.6-1.3-0.9-2.1-0.9
		c-0.8,0-1.5,0.3-2.1,0.9c-1.2,1.2-1.2,3,0,4.2c0.6,0.6,1.3,0.9,2.1,0.9c0.8,0,1.5-0.3,2.1-0.9c0.3-0.3,0.3-0.8,0-1.1
		c-0.3-0.3-0.8-0.3-1.1,0c-0.3,0.3-0.6,0.4-1,0.4c-0.4,0-0.7-0.1-1-0.4c-0.5-0.5-0.5-1.4,0-2C19.3,29.1,19.6,29,20,29z"/>
	<path class="st0" d="M20,18.7c-1.6,0-3,1.3-3,3c0,1.7,1.3,3,3,3c1.6,0,3-1.3,3-3C22.9,20,21.5,18.7,20,18.7z M20,23
		c-0.8,0-1.4-0.6-1.4-1.4s0.6-1.4,1.4-1.4s1.4,0.6,1.4,1.4S20.7,23,20,23z"/>
	<path class="st0" d="M24.1,19.5v4.3c0,0.4,0.3,0.8,0.8,0.8c0.5,0,0.8-0.3,0.8-0.8v-0.5l1.9,1.1c0.1,0.1,0.3,0.1,0.4,0.1
		c0.3,0,0.5-0.1,0.7-0.4c0.1-0.3,0-0.8-0.4-1l-0.9-0.5c0.7-0.3,1.3-1,1.3-1.9c0-1.1-0.9-2-2-2h-1.8C24.5,18.7,24.1,19,24.1,19.5z
		 M25.6,20.9v-0.7h1c0.3,0,0.5,0.2,0.5,0.5c0,0.3-0.2,0.4-0.5,0.4h-1V20.9z"/>
	<path class="st0" d="M32.7,24.6c1.6,0,3-1.3,3-3c0-0.4-0.3-0.8-0.8-0.8h-1.2c-0.4,0-0.8,0.3-0.8,0.8s0.3,0.8,0.8,0.8h0.2
		c-0.3,0.4-0.7,0.6-1.2,0.6c-0.8,0-1.4-0.6-1.4-1.4s0.6-1.4,1.4-1.4c0.4,0,0.8-0.3,0.8-0.8c0-0.5-0.3-0.8-0.8-0.8c-1.6,0-3,1.3-3,3
		C29.7,23.3,31,24.6,32.7,24.6z"/>
	<circle class="st0" cx="5" cy="3.7" r="0.7"/>
	<circle class="st0" cx="7.5" cy="3.7" r="0.7"/>
	<circle class="st0" cx="9.9" cy="3.7" r="0.7"/>
	<circle class="st0" cx="14.3" cy="14.9" r="0.9"/>
	<circle class="st0" cx="14.3" cy="23.7" r="0.9"/>
	<circle class="st0" cx="14.3" cy="32.3" r="0.9"/>
	<circle class="st0" cx="29.6" cy="39.1" r="0.9"/>
	<circle class="st0" cx="12.2" cy="35.8" r="0.9"/>
</g>
</svg>
