<?xml version="1.0" encoding="utf-8"?>
<!-- Generator: Adobe Illustrator 25.2.0, SVG Export Plug-In . SVG Version: 6.00 Build 0)  -->
<svg version="1.1" id="Capa_1" xmlns="http://www.w3.org/2000/svg" xmlns:xlink="http://www.w3.org/1999/xlink" x="0px" y="0px"
	 viewBox="0 0 40 40" style="enable-background:new 0 0 40 40;" xml:space="preserve">
<style type="text/css">
	.st0{fill:#FFFFFF;}
</style>
<g>
	<g>
		<g>
			<path class="st0" d="M36.1,0H3.9C1.8,0,0,1.8,0,3.9v32.2C0,38.2,1.8,40,3.9,40h22.6c0.4,0,0.8-0.3,0.8-0.8s-0.3-0.8-0.8-0.8H3.9
				c-1,0-1.9-0.7-2.2-1.6h7.7c0.4,0,0.8-0.3,0.8-0.8s-0.3-0.8-0.8-0.8H1.6V7.2c0,0,0.1,0,0.1,0h36.8v28.9c0,1.3-1.1,2.3-2.3,2.3
				h-3.2c-0.4,0-0.8,0.3-0.8,0.8s0.3,0.8,0.8,0.8h3.2c2.2,0,3.9-1.8,3.9-3.9V3.9C40,1.8,38.2,0,36.1,0z M38.4,5.6H1.6
				c0,0-0.1,0-0.1,0V3.9c0-1.3,1.1-2.3,2.3-2.3h32.2c1.3,0,2.3,1.1,2.3,2.3V5.6z"/>
		</g>
	</g>
	<g>
		<g>
			<path class="st0" d="M12.8,35.5c-0.1-0.1-0.3-0.2-0.6-0.2c-0.2,0-0.4,0.1-0.6,0.2c-0.1,0.1-0.2,0.3-0.2,0.6
				c0,0.2,0.1,0.4,0.2,0.6c0.1,0.1,0.3,0.2,0.6,0.2s0.4-0.1,0.6-0.2c0.1-0.1,0.2-0.3,0.2-0.6C13,35.9,12.9,35.7,12.8,35.5z"/>
		</g>
	</g>
	<g>
		<g>
			<path class="st0" d="M30.3,38.7c-0.1-0.1-0.3-0.2-0.6-0.2s-0.4,0.1-0.6,0.2C29.1,38.8,29,39,29,39.2s0.1,0.4,0.2,0.6
				c0.1,0.1,0.3,0.2,0.6,0.2s0.4-0.1,0.6-0.2c0.1-0.1,0.2-0.3,0.2-0.6S30.5,38.8,30.3,38.7z"/>
		</g>
	</g>
	<g>
		<g>
			<path class="st0" d="M35,2.8H17.3c-0.4,0-0.8,0.3-0.8,0.8s0.3,0.8,0.8,0.8H35c0.4,0,0.8-0.3,0.8-0.8S35.4,2.8,35,2.8z"/>
		</g>
	</g>
	<g>
		<g>
			<path class="st0" d="M8.7,3C8.5,2.9,8.3,2.8,8.1,2.8C7.9,2.8,7.7,2.9,7.6,3C7.4,3.2,7.3,3.4,7.3,3.6S7.4,4,7.6,4.1
				c0.1,0.1,0.3,0.2,0.6,0.2c0.2,0,0.4-0.1,0.6-0.2C8.8,4,8.9,3.8,8.9,3.6S8.8,3.2,8.7,3z"/>
		</g>
	</g>
	<g>
		<g>
			<path class="st0" d="M5.6,3C5.4,2.9,5.2,2.8,5,2.8S4.6,2.9,4.4,3C4.3,3.2,4.2,3.4,4.2,3.6S4.3,4,4.4,4.1C4.6,4.3,4.8,4.4,5,4.4
				c0.2,0,0.4-0.1,0.6-0.2C5.7,4,5.8,3.8,5.8,3.6S5.7,3.2,5.6,3z"/>
		</g>
	</g>
	<g>
		<g>
			<path class="st0" d="M11.8,3c-0.1-0.1-0.3-0.2-0.6-0.2S10.8,2.9,10.7,3c-0.1,0.1-0.2,0.3-0.2,0.6s0.1,0.4,0.2,0.6
				c0.1,0.1,0.3,0.2,0.6,0.2s0.4-0.1,0.6-0.2C11.9,4,12,3.8,12,3.6S11.9,3.2,11.8,3z"/>
		</g>
	</g>
	<g>
		<g>
			<path class="st0" d="M9.4,10H5c-0.4,0-0.8,0.3-0.8,0.8v4.4c0,0.4,0.3,0.8,0.8,0.8h4.4c0.4,0,0.8-0.3,0.8-0.8v-4.4
				C10.2,10.3,9.8,10,9.4,10z M8.6,14.4H5.8v-2.8h2.8V14.4z"/>
		</g>
	</g>
	<g>
		<g>
			<path class="st0" d="M9.4,18.8H5c-0.4,0-0.8,0.3-0.8,0.8v4.4c0,0.4,0.3,0.8,0.8,0.8h4.4c0.4,0,0.8-0.3,0.8-0.8v-4.4
				C10.2,19.1,9.8,18.8,9.4,18.8z M8.6,23.1H5.8v-2.8h2.8V23.1z"/>
		</g>
	</g>
	<g>
		<g>
			<path class="st0" d="M9.4,27.5H5c-0.4,0-0.8,0.3-0.8,0.8v4.4c0,0.4,0.3,0.8,0.8,0.8h4.4c0.4,0,0.8-0.3,0.8-0.8v-4.4
				C10.2,27.8,9.8,27.5,9.4,27.5z M8.6,31.9H5.8v-2.8h2.8V31.9z"/>
		</g>
	</g>
	<g>
		<g>
			<path class="st0" d="M14.3,14.4L14.3,14.4c-0.5,0-0.8,0.3-0.8,0.8s0.3,0.8,0.8,0.8h0c0.4,0,0.8-0.3,0.8-0.8S14.8,14.4,14.3,14.4z
				"/>
		</g>
	</g>
	<g>
		<g>
			<path class="st0" d="M14.3,23.1L14.3,23.1c-0.5,0-0.8,0.3-0.8,0.8s0.3,0.8,0.8,0.8h0c0.4,0,0.8-0.3,0.8-0.8S14.8,23.1,14.3,23.1z
				"/>
		</g>
	</g>
	<g>
		<g>
			<path class="st0" d="M14.8,32c-0.1-0.1-0.3-0.2-0.6-0.2c-0.2,0-0.4,0.1-0.6,0.2c-0.1,0.1-0.2,0.3-0.2,0.6c0,0.2,0.1,0.4,0.2,0.6
				c0.1,0.1,0.3,0.2,0.6,0.2s0.4-0.1,0.6-0.2c0.1-0.1,0.2-0.3,0.2-0.6C15.1,32.4,15,32.2,14.8,32z"/>
		</g>
	</g>
	<g>
		<g>
			<path class="st0" d="M27.7,14.4h-1.4v-0.6h0.8c0.4,0,0.8-0.3,0.8-0.8c0-0.4-0.3-0.8-0.8-0.8h-0.8v-0.6h1.4c0.4,0,0.8-0.3,0.8-0.8
				s-0.3-0.8-0.8-0.8h-2.2c-0.4,0-0.8,0.3-0.8,0.8v4.3c0,0.4,0.3,0.8,0.8,0.8h2.2c0.4,0,0.8-0.3,0.8-0.8S28.2,14.4,27.7,14.4z"/>
		</g>
	</g>
	<g>
		<g>
			<path class="st0" d="M34.4,10.1h-3.5c-0.4,0-0.8,0.3-0.8,0.8s0.3,0.8,0.8,0.8h1v3.5c0,0.4,0.3,0.8,0.8,0.8c0.4,0,0.8-0.3,0.8-0.8
				v-3.5h1c0.4,0,0.8-0.3,0.8-0.8S34.8,10.1,34.4,10.1z"/>
		</g>
	</g>
	<g>
		<g>
			<path class="st0" d="M22.1,10.1c-0.4,0-0.8,0.3-0.8,0.8v2.4l-3-3c-0.2-0.2-0.6-0.3-0.9-0.2c-0.3,0.1-0.5,0.4-0.5,0.7v4.3
				c0,0.4,0.3,0.8,0.8,0.8c0.4,0,0.8-0.3,0.8-0.8v-2.4l3,3c0.1,0.1,0.3,0.2,0.6,0.2c0.1,0,0.2,0,0.3-0.1c0.3-0.1,0.5-0.4,0.5-0.7
				v-4.3C22.9,10.4,22.6,10.1,22.1,10.1z"/>
		</g>
	</g>
	<g>
		<g>
			<path class="st0" d="M35.3,27.6c-0.3-0.1-0.6-0.1-0.9,0.2l-1.6,1.6l-1.6-1.6c-0.2-0.2-0.6-0.3-0.9-0.2c-0.3,0.1-0.5,0.4-0.5,0.7
				v4.3c0,0.4,0.3,0.8,0.8,0.8c0.4,0,0.8-0.3,0.8-0.8v-2.4l0.8,0.8c0.3,0.3,0.8,0.3,1.1,0l0.8-0.8v2.4c0,0.4,0.3,0.8,0.8,0.8
				s0.8-0.3,0.8-0.8v-4.3C35.8,28,35.6,27.7,35.3,27.6z"/>
		</g>
	</g>
	<g>
		<g>
			<path class="st0" d="M26.1,27.5c-1.6,0-3,1.3-3,3c0,1.6,1.3,3,3,3s3-1.3,3-3C29,28.8,27.7,27.5,26.1,27.5z M26.1,31.9
				c-0.8,0-1.4-0.6-1.4-1.4s0.6-1.4,1.4-1.4s1.4,0.6,1.4,1.4S26.8,31.9,26.1,31.9z"/>
		</g>
	</g>
	<g>
		<g>
			<path class="st0" d="M21,31.5c-0.3,0.3-0.6,0.4-1,0.4c-0.4,0-0.7-0.1-1-0.4c-0.5-0.5-0.5-1.4,0-2c0.3-0.3,0.6-0.4,1-0.4
				c0.4,0,0.7,0.1,1,0.4c0.3,0.3,0.8,0.3,1.1,0c0.3-0.3,0.3-0.8,0-1.1c-0.6-0.6-1.3-0.9-2.1-0.9s-1.5,0.3-2.1,0.9
				c-1.2,1.2-1.2,3,0,4.2c0.6,0.6,1.3,0.9,2.1,0.9s1.5-0.3,2.1-0.9c0.3-0.3,0.3-0.8,0-1.1C21.8,31.2,21.3,31.2,21,31.5z"/>
		</g>
	</g>
	<g>
		<g>
			<path class="st0" d="M20,18.8c-1.6,0-3,1.3-3,3s1.3,3,3,3c1.6,0,3-1.3,3-3S21.6,18.8,20,18.8z M20,23.1c-0.8,0-1.4-0.6-1.4-1.4
				s0.6-1.4,1.4-1.4s1.4,0.6,1.4,1.4S20.8,23.1,20,23.1z"/>
		</g>
	</g>
	<g>
		<g>
			<path class="st0" d="M28.4,23.2l-0.9-0.5c0.7-0.3,1.3-1,1.3-1.9c0-1.1-0.9-2-2-2h-1.8c-0.4,0-0.8,0.3-0.8,0.8v4.3
				c0,0.4,0.3,0.8,0.8,0.8s0.8-0.3,0.8-0.8v-0.5l1.9,1.1c0.1,0.1,0.3,0.1,0.4,0.1c0.3,0,0.5-0.1,0.7-0.4
				C28.9,23.9,28.8,23.4,28.4,23.2z M26.7,21.2h-1V21v-0.7h1c0.3,0,0.5,0.2,0.5,0.5S27,21.2,26.7,21.2z"/>
		</g>
	</g>
	<g>
		<g>
			<path class="st0" d="M35,20.9h-1.2c-0.4,0-0.8,0.3-0.8,0.8s0.3,0.8,0.8,0.8H34c-0.3,0.4-0.7,0.6-1.2,0.6c-0.8,0-1.4-0.6-1.4-1.4
				s0.6-1.4,1.4-1.4c0.4,0,0.8-0.3,0.8-0.8s-0.3-0.8-0.8-0.8c-1.6,0-3,1.3-3,3s1.3,3,3,3c1.6,0,3-1.3,3-3
				C35.8,21.3,35.5,20.9,35,20.9z"/>
		</g>
	</g>
</g>
</svg>
