<?xml version="1.0" encoding="utf-8"?>
<!-- Generator: Adobe Illustrator 25.1.0, SVG Export Plug-In . SVG Version: 6.00 Build 0)  -->
<svg version="1.1" id="Warstwa_1" xmlns="http://www.w3.org/2000/svg" xmlns:xlink="http://www.w3.org/1999/xlink" x="0px" y="0px"
	 viewBox="0 0 40 40" style="enable-background:new 0 0 40 40;" xml:space="preserve">
<style type="text/css">
	.st0{fill:#FFFFFF;}
	.st1{fill:#FFFFFF;stroke:#FFFFFF;stroke-width:0.2352;stroke-miterlimit:10;}
</style>
<g>
	<path class="st0" d="M23.98,28.73c0.43,0,0.78-0.35,0.78-0.78v-1.87h0.55c0.43,0,0.78-0.35,0.78-0.78v-1.87h13.14
		c0.43,0,0.78-0.35,0.78-0.78V2.77c0-0.43-0.35-0.78-0.78-0.78h-2.53V0.78c0-0.43-0.35-0.78-0.78-0.78h-5.3
		c-0.43,0-0.78,0.35-0.78,0.78v1.21h-6.39V0.78c0-0.43-0.35-0.78-0.78-0.78h-5.3c-0.43,0-0.78,0.35-0.78,0.78v1.21h-6.39V0.78
		C10.18,0.35,9.83,0,9.4,0h-5.3C3.66,0,3.31,0.35,3.31,0.78v1.21H0.78C0.35,1.99,0,2.34,0,2.77v19.88c0,0.43,0.35,0.78,0.78,0.78
		h13.14v1.87c0,0.43,0.35,0.78,0.78,0.78h0.55v1.87c0,0.43,0.35,0.78,0.78,0.78h1.87v9.71H0.78C0.35,38.44,0,38.79,0,39.22
		S0.35,40,0.78,40h17.89h2.65h17.89c0.43,0,0.78-0.35,0.78-0.78s-0.35-0.78-0.78-0.78H22.11v-9.71H23.98z M16.8,26.08h6.39v1.09
		h-1.87h-2.65H16.8V26.08z M15.48,23.43h9.04v1.09h-0.55h-7.95h-0.55V23.43z M4.87,2.77V1.56h3.74v1.21v1.21H4.87V2.77z M18.13,2.77
		V1.56h3.74v1.21v1.21h-3.74V2.77z M31.38,2.77V1.56h3.74v1.21v1.21h-3.74V2.77z M4.09,5.54h5.3c0.43,0,0.78-0.35,0.78-0.78V3.55
		h6.39v1.21c0,0.43,0.35,0.78,0.78,0.78h5.3c0.43,0,0.78-0.35,0.78-0.78V3.55h6.39v1.21c0,0.43,0.35,0.78,0.78,0.78h5.3
		c0.43,0,0.78-0.35,0.78-0.78V3.55h1.75v18.32H25.3H14.7H1.56V3.55h1.75v1.21C3.31,5.19,3.66,5.54,4.09,5.54z M20.55,38.44h-1.09
		v-9.71h1.09V38.44z"/>
	<g>
		<g>
			<path class="st1" d="M22.74,16.03h-1.19l-0.64-1.56h-1.86l-0.63,1.56h-1.17l2.34-5.43h0.8L22.74,16.03z M20.53,13.57l-0.54-1.27
				l-0.54,1.27H20.53z"/>
		</g>
		<path class="st1" d="M24.52,10.76l-0.88,0.56c0.41,0.66,0.65,1.44,0.65,2.28c0,2.37-1.93,4.29-4.29,4.29
			c-2.37,0-4.29-1.93-4.29-4.29c0-2.37,1.93-4.29,4.29-4.29c0.81,0,1.58,0.23,2.22,0.62l0.54-0.89C21.96,8.54,21.01,8.26,20,8.26
			c-2.94,0-5.33,2.39-5.33,5.33c0,2.94,2.39,5.33,5.33,5.33c2.94,0,5.33-2.39,5.33-5.33C25.33,12.55,25.03,11.58,24.52,10.76z"/>
	</g>
</g>
</svg>
