<?xml version="1.0" encoding="utf-8"?>
<!-- Generator: Adobe Illustrator 25.2.0, SVG Export Plug-In . SVG Version: 6.00 Build 0)  -->
<svg version="1.1" id="Warstwa_1" xmlns="http://www.w3.org/2000/svg" xmlns:xlink="http://www.w3.org/1999/xlink" x="0px" y="0px"
	 viewBox="0 0 40 40" style="enable-background:new 0 0 40 40;" xml:space="preserve">
<style type="text/css">
	.st0{fill:#FFFFFF;}
</style>
<g>
	<path class="st0" d="M37.6,3.9h-5.4V1.4c0-0.5-0.4-0.7-0.7-0.7l-23.1,0c-0.2,0-0.4,0-0.6,0.1C7.8,0.9,7.7,1.2,7.7,1.4v2.5H2.4
		C1.1,3.9,0,4.9,0,6.2v25.1c0,1.3,1.1,2.4,2.4,2.4h12.8L14.4,36h-1.4c-0.5,0-0.7,0.3-0.7,0.7v1.2H7.8c-0.5,0-0.7,0.3-0.7,0.7
		c0,0.4,0.3,0.7,0.7,0.7h24.4c0.5,0,0.7-0.3,0.7-0.7c0-0.4-0.3-0.7-0.7-0.7h-4.4v-1.2c0-0.5-0.4-0.7-0.7-0.7h-1.4l-0.8-2.4h12.8
		c1.3,0,2.4-1.1,2.4-2.4V6.2C40,4.9,38.9,3.9,37.6,3.9z M13.6,37.8v-0.4h12.7v0.4H13.6z M15.9,35.9l0.8-2.4h6.6l0.8,2.4H15.9z
		 M9.2,17.4V6l5.4,3.3l-4,8.1H9.2z M30.8,4.1L20,10.7L9.2,4.2V2.1h21.7V4.1z M19.6,12.3c0.2,0.1,0.6,0.1,0.8,0L24,10l3.8,7.3H12.2
		l3.7-7.3L19.6,12.3z M30.8,6v11.5h-1.3l-4.1-8.2L30.8,6z M8.5,18.7h10.8v3.8c0,0.5,0.4,0.7,0.7,0.7c0.4,0,0.7-0.3,0.7-0.7v-3.8
		h10.8c0.5,0,0.7-0.4,0.7-0.7V5.4h5.4c0.4,0,0.9,0.3,0.9,0.9V27H18.2v-7c0-0.5-0.4-0.7-0.7-0.7c-0.5,0-0.7,0.4-0.7,0.7v7H1.5V6.2
		c0-0.4,0.3-0.9,0.9-0.9h5.4V18C7.8,18.5,8.1,18.7,8.5,18.7z M1.5,28.5h37v2.8c0,0.4-0.3,0.9-0.9,0.9H2.4c-0.4,0-0.9-0.3-0.9-0.9
		V28.5z"/>
	<path class="st0" d="M20,25.9c0.5,0,0.7-0.3,0.7-0.7v-0.6c0-0.5-0.4-0.7-0.7-0.7c-0.4,0-0.7,0.3-0.7,0.7v0.6
		C19.3,25.5,19.5,25.9,20,25.9z"/>
	<path class="st0" d="M22.6,24c0.5,0,0.7-0.3,0.7-0.7V20c0-0.5-0.4-0.7-0.7-0.7c-0.5,0-0.7,0.4-0.7,0.7l0,3.2
		C21.9,23.9,22.3,24,22.6,24z"/>
	<path class="st0" d="M22.6,26.6c0.5,0,0.7-0.3,0.7-0.7v-0.6c0-0.5-0.4-0.7-0.7-0.7c-0.5,0-0.7,0.3-0.7,0.7v0.6
		C21.9,26.5,22.3,26.6,22.6,26.6z"/>
</g>
</svg>
