<?xml version="1.0" encoding="utf-8"?>
<!-- Generator: Adobe Illustrator 25.2.0, SVG Export Plug-In . SVG Version: 6.00 Build 0)  -->
<svg version="1.1" id="Warstwa_1" xmlns="http://www.w3.org/2000/svg" xmlns:xlink="http://www.w3.org/1999/xlink" x="0px" y="0px"
	 viewBox="0 0 40 40" style="enable-background:new 0 0 40 40;" xml:space="preserve">
<style type="text/css">
	.st0{fill:#FFFFFF;}
</style>
<g>
	<path class="st0" d="M37.7,3.9h-5.5V1.3c0-0.4-0.3-0.6-0.6-0.6H8.4C8,0.6,7.7,0.9,7.7,1.3v2.6H2.3C1,3.9,0,4.9,0,6.1v25.2
		c0,1.2,1,2.3,2.3,2.3h13l-0.9,2.6h-1.5c-0.4,0-0.6,0.3-0.6,0.6v1.3H7.7c-0.4,0-0.6,0.3-0.6,0.6s0.3,0.6,0.6,0.6h24.5
		c0.4,0,0.6-0.3,0.6-0.6s-0.3-0.6-0.6-0.6h-4.5v-1.3c0-0.4-0.3-0.6-0.6-0.6h-1.5l-0.9-2.6h13c1.2,0,2.3-1,2.3-2.3V6.1
		C40,4.9,39,3.9,37.7,3.9z M9,1.9H31v2.2l-11,6.7L9,4.2V1.9z M25.3,9.1L31,5.7v11.8h-1.5L25.3,9.1z M28,17.4H12l3.8-7.6l3.8,2.4
		c0.2,0.1,0.5,0.1,0.7,0l3.8-2.4L28,17.4z M9,5.7l5.7,3.5l-4.1,8.3H9V5.7z M26.5,37.4v0.6H13.5v-0.6H26.5z M15.7,36.1l0.9-2.6h6.8
		l0.9,2.6H15.7z M38.7,31.3c0,0.5-0.4,1-1,1H2.3c-0.5,0-1-0.4-1-1v-2.9h37.4V31.3z M38.7,27.1H18.1V20c0-0.4-0.3-0.6-0.6-0.6
		c-0.4,0-0.6,0.3-0.6,0.6v7.1H1.3v-21c0-0.5,0.4-1,1-1h5.5v12.9c0,0.4,0.3,0.6,0.6,0.6h11v3.9c0,0.4,0.3,0.6,0.6,0.6
		s0.6-0.3,0.6-0.6v-3.9h11c0.4,0,0.6-0.3,0.6-0.6V5.2h5.5c0.5,0,1,0.4,1,1V27.1z"/>
	<path class="st0" d="M20,25.8c0.4,0,0.6-0.3,0.6-0.6v-0.6c0-0.4-0.3-0.6-0.6-0.6s-0.6,0.3-0.6,0.6v0.6C19.4,25.5,19.6,25.8,20,25.8
		z"/>
	<path class="st0" d="M22.6,23.9c0.4,0,0.6-0.3,0.6-0.6V20c0-0.4-0.3-0.6-0.6-0.6c-0.4,0-0.6,0.3-0.6,0.6v3.2
		C21.9,23.6,22.2,23.9,22.6,23.9z"/>
	<path class="st0" d="M22.6,26.5c0.4,0,0.6-0.3,0.6-0.6v-0.6c0-0.4-0.3-0.6-0.6-0.6c-0.4,0-0.6,0.3-0.6,0.6v0.6
		C21.9,26.2,22.2,26.5,22.6,26.5z"/>
</g>
</svg>
