<?xml version="1.0" encoding="utf-8"?>
<!-- Generator: Adobe Illustrator 25.1.0, SVG Export Plug-In . SVG Version: 6.00 Build 0)  -->
<svg version="1.1" id="Warstwa_1" xmlns="http://www.w3.org/2000/svg" xmlns:xlink="http://www.w3.org/1999/xlink" x="0px" y="0px"
	 viewBox="0 0 40 40" style="enable-background:new 0 0 40 40;" xml:space="preserve">
<style type="text/css">
	.st0{fill:#FFFFFF;}
	.st1{fill:none;stroke:#FFFFFF;stroke-width:1.4958;stroke-miterlimit:10;}
	.st2{fill:none;stroke:#FFFFFF;stroke-width:1.4111;stroke-miterlimit:10;}
</style>
<g>
	<g>
		<path class="st0" d="M39.19,15.05H8.5L38.25,7.5c0.43-0.11,0.69-0.54,0.58-0.97c-0.03-0.13-1.21-4.79-1.19-4.71
			C37.31,0.53,36-0.25,34.7,0.07L1.83,8.42c-1.3,0.33-2.08,1.65-1.75,2.94l1.19,4.67v21.54c0,1.34,1.08,2.42,2.42,2.42h33.9
			c1.34,0,2.42-1.08,2.42-2.42V15.86C40,15.41,39.64,15.05,39.19,15.05L39.19,15.05z M28.23,21.51l4.84-4.84h4.11l-4.78,4.84H28.23z
			 M21.77,21.51l4.84-4.84h4.17l-4.84,4.84H21.77z M15.32,21.51l4.84-4.84h4.17l-4.84,4.84H15.32z M8.86,21.51l4.84-4.84h4.17
			l-4.84,4.84H8.86z M2.88,21.51v-4.84h8.54l-4.84,4.84H2.88z M38.39,17.74v3.76h-3.72L38.39,17.74z M11.31,7.68l5.88,3.5
			l-4.05,1.03l-5.88-3.5L11.31,7.68z M17.56,6.09l5.88,3.5l-4.04,1.03l-5.88-3.5L17.56,6.09z M23.82,4.5L29.71,8l-4.04,1.03
			l-5.89-3.5L23.82,4.5z M30.08,2.91l5.89,3.5l-4.05,1.03l-5.89-3.5L30.08,2.91z M35.1,1.64c0.43-0.11,0.87,0.15,0.98,0.58
			l0.71,2.81l-4.5-2.68L35.1,1.64z M2.22,9.99l2.82-0.72l5.88,3.5l-8.3,2.11l-0.99-3.91C1.53,10.54,1.79,10.1,2.22,9.99L2.22,9.99z
			 M37.58,38.39H3.68c-0.45,0-0.81-0.36-0.81-0.81V23.12h35.51v14.46C38.39,38.02,38.02,38.39,37.58,38.39L37.58,38.39z
			 M37.58,38.39"/>
	</g>
	<path class="st1" d="M21.83,30.35l-2.65-1.53c-0.14-0.08-0.32-0.08-0.47,0c-0.14,0.08-0.23,0.24-0.23,0.4v3.07
		c0,0.17,0.09,0.32,0.23,0.4c0.14,0.08,0.32,0.08,0.47,0l2.65-1.53c0.14-0.08,0.23-0.24,0.23-0.4
		C22.06,30.59,21.97,30.43,21.83,30.35L21.83,30.35z M21.83,30.35"/>
	<circle class="st2" cx="20" cy="30.72" r="5.33"/>
</g>
</svg>
