<?xml version="1.0" encoding="utf-8"?>
<!-- Generator: Adobe Illustrator 25.1.0, SVG Export Plug-In . SVG Version: 6.00 Build 0)  -->
<svg version="1.1" id="Warstwa_1" xmlns="http://www.w3.org/2000/svg" xmlns:xlink="http://www.w3.org/1999/xlink" x="0px" y="0px"
	 viewBox="0 0 40 40" style="enable-background:new 0 0 40 40;" xml:space="preserve">
<style type="text/css">
	.st0{fill:#FFFFFF;}
</style>
<g>
	<path class="st0" d="M20,1.44c2.29,0,4.48,0.9,6.09,2.52l0.94-0.94c-3.88-3.88-10.17-3.88-14.06,0l0.94,0.94
		C15.52,2.35,17.71,1.44,20,1.44L20,1.44z M20,1.44"/>
	<path class="st0" d="M25.15,4.9C23.79,3.54,21.93,2.77,20,2.77s-3.79,0.77-5.15,2.14l0.94,0.94c2.33-2.33,6.11-2.33,8.43,0
		L25.15,4.9z M25.15,4.9"/>
	<path class="st0" d="M23.28,6.78C22.41,5.91,21.23,5.42,20,5.42c-1.23,0-2.41,0.49-3.28,1.36l0.94,0.93
		c0.62-0.62,1.46-0.97,2.34-0.97c0.88,0,1.72,0.35,2.34,0.97L23.28,6.78z M23.28,6.78"/>
	<path class="st0" d="M18.01,10.06c0,0.8,0.48,1.53,1.23,1.84c0.74,0.31,1.6,0.14,2.17-0.43c0.57-0.57,0.74-1.42,0.43-2.17
		C21.53,8.55,20.8,8.07,20,8.07C18.9,8.07,18.01,8.96,18.01,10.06L18.01,10.06z M20.66,10.06c0,0.27-0.16,0.51-0.41,0.61
		c-0.25,0.1-0.53,0.05-0.72-0.14c-0.19-0.19-0.25-0.47-0.14-0.72C19.49,9.56,19.73,9.4,20,9.4C20.37,9.4,20.66,9.69,20.66,10.06
		L20.66,10.06z M20.66,10.06"/>
	<path class="st0" d="M20,38.56c-2.29,0-4.48-0.9-6.09-2.52l-0.93,0.94c3.88,3.88,10.18,3.88,14.06,0l-0.94-0.94
		C24.48,37.65,22.29,38.56,20,38.56L20,38.56z M20,38.56"/>
	<path class="st0" d="M14.85,35.1c1.37,1.37,3.22,2.14,5.15,2.14s3.79-0.77,5.15-2.14l-0.94-0.94c-2.33,2.33-6.11,2.33-8.43,0
		L14.85,35.1z M14.85,35.1"/>
	<path class="st0" d="M16.72,33.22c0.87,0.87,2.05,1.36,3.28,1.36c1.23,0,2.41-0.49,3.28-1.36l-0.94-0.93
		c-0.62,0.62-1.46,0.97-2.34,0.97s-1.72-0.35-2.34-0.97L16.72,33.22z M16.72,33.22"/>
	<path class="st0" d="M21.99,29.94c0-0.8-0.48-1.53-1.23-1.84c-0.74-0.31-1.6-0.14-2.17,0.43c-0.57,0.57-0.74,1.42-0.43,2.17
		c0.31,0.74,1.03,1.23,1.84,1.23C21.1,31.93,21.99,31.04,21.99,29.94L21.99,29.94z M19.34,29.94c0-0.27,0.16-0.51,0.41-0.61
		c0.25-0.1,0.53-0.05,0.72,0.14c0.19,0.19,0.25,0.47,0.14,0.72S20.27,30.6,20,30.6C19.63,30.6,19.34,30.31,19.34,29.94L19.34,29.94z
		 M19.34,29.94"/>
	<g>
		<path class="st0" d="M37.23,17.35h-1.33v-1.33c0-0.37-0.3-0.66-0.66-0.66h-1.99v-5.3h3.98V8.73h-9.28v1.33h3.98v5.3h-1.99
			c-0.37,0-0.66,0.3-0.66,0.66v1.33h-1.76l-3.13-2.51c-0.12-0.09-0.26-0.14-0.41-0.14h-7.95c-0.15,0-0.3,0.05-0.41,0.14l-3.13,2.51
			h-1.76v-1.33c0-0.37-0.3-0.66-0.66-0.66H8.07v-5.3h3.98V8.73H2.77v1.33h3.98v5.3H4.76c-0.37,0-0.66,0.3-0.66,0.66v1.33H2.77
			c-1.46,0-2.65,1.19-2.65,2.65c0,1.46,1.19,2.65,2.65,2.65h1.33v1.33c0,0.37,0.3,0.66,0.66,0.66h5.3c0.37,0,0.66-0.3,0.66-0.66
			v-1.33h1.58l1.14,2.28c0.11,0.22,0.34,0.37,0.59,0.37h11.93c0.25,0,0.48-0.14,0.6-0.37l1.14-2.28h1.58v1.33
			c0,0.37,0.3,0.66,0.66,0.66h5.3c0.37,0,0.66-0.3,0.66-0.66v-1.33h1.33c1.46,0,2.65-1.19,2.65-2.65
			C39.88,18.54,38.7,17.35,37.23,17.35L37.23,17.35z M2.77,21.33c-0.73,0-1.33-0.59-1.33-1.33c0-0.73,0.59-1.33,1.33-1.33h1.33v2.65
			H2.77z M9.4,23.31H5.42v-6.63H9.4V23.31z M10.72,18.67h1.33v2.65h-1.33V18.67z M25.56,23.98H14.44l-1.07-2.14v-3.5l2.88-2.31h7.49
			l2.88,2.31v3.5L25.56,23.98z M27.95,21.33v-2.65h1.33v2.65H27.95z M34.58,23.31H30.6v-6.63h3.98V23.31z M37.23,21.33h-1.33v-2.65
			h1.33c0.73,0,1.33,0.59,1.33,1.33C38.56,20.73,37.96,21.33,37.23,21.33L37.23,21.33z M37.23,21.33"/>
		<path class="st0" d="M25.97,25.42C25.97,25.42,25.97,25.42,25.97,25.42H14.04c-0.3,0-0.57-0.17-0.7-0.43l-1.11-2.22h-1.39v1.21
			c0,0.43-0.35,0.78-0.78,0.78h-5.3c-0.43,0-0.78-0.35-0.78-0.78v-1.21H2.77C1.24,22.77,0,21.53,0,20c0-1.53,1.24-2.77,2.77-2.77
			h1.21v-1.21c0-0.43,0.35-0.78,0.78-0.78h1.87v-5.07H2.65V8.62h9.51v1.56H8.19v5.07h1.87c0.43,0,0.78,0.35,0.78,0.78v1.21h1.6
			l3.1-2.48c0.14-0.11,0.31-0.17,0.49-0.17h7.95c0.18,0,0.35,0.06,0.49,0.17l3.1,2.48h1.6v-1.21c0-0.43,0.35-0.78,0.78-0.78h1.87
			v-5.07h-3.98V8.62h9.51v1.56h-3.98v5.07h1.87c0.43,0,0.78,0.35,0.78,0.78v1.21h1.21c1.53,0,2.77,1.24,2.77,2.77
			c0,1.53-1.24,2.77-2.77,2.77h-1.21v1.21c0,0.43-0.35,0.78-0.78,0.78h-5.3c-0.43,0-0.78-0.35-0.78-0.78v-1.21h-1.39l-1.11,2.22
			C26.53,25.25,26.27,25.42,25.97,25.42z M10.6,22.53h1.77l0.03,0.06l1.14,2.28c0.09,0.19,0.28,0.3,0.49,0.3h11.93c0,0,0,0,0,0
			c0.21,0,0.4-0.12,0.49-0.3l1.17-2.35h1.77v1.44c0,0.3,0.24,0.55,0.55,0.55h5.3c0.3,0,0.55-0.24,0.55-0.55v-1.44h1.44
			c1.4,0,2.53-1.14,2.53-2.53c0-1.4-1.14-2.53-2.53-2.53h-1.44v-1.44c0-0.3-0.24-0.55-0.55-0.55h-2.11V9.94h3.98V8.85h-9.04v1.09
			h3.98v5.54h-2.11c-0.3,0-0.55,0.25-0.55,0.55v1.44h-1.91l-3.16-2.53c-0.1-0.08-0.22-0.12-0.34-0.12h-7.95
			c-0.12,0-0.24,0.04-0.34,0.12l-3.16,2.53H10.6v-1.44c0-0.3-0.24-0.55-0.55-0.55H7.95V9.94h3.98V8.85H2.88v1.09h3.98v5.54H4.76
			c-0.3,0-0.55,0.25-0.55,0.55v1.44H2.77c-1.4,0-2.53,1.14-2.53,2.53c0,1.4,1.14,2.53,2.53,2.53h1.44v1.44
			c0,0.3,0.24,0.55,0.55,0.55h5.3c0.3,0,0.55-0.24,0.55-0.55V22.53z M25.63,24.09H14.37l-1.12-2.26v-3.56l2.96-2.37h7.57l2.96,2.37
			l-0.01,3.61L25.63,24.09z M14.52,23.86h10.97l1.03-2.05v-3.42l-2.81-2.25H16.3l-2.81,2.25v3.42L14.52,23.86z M34.7,23.43h-4.21
			v-6.86h4.21V23.43z M30.72,23.2h3.74V16.8h-3.74V23.2z M9.51,23.43H5.3v-6.86h4.21V23.43z M5.54,23.2h3.74V16.8H5.54V23.2z
			 M37.23,21.44h-1.44v-2.89h1.44c0.8,0,1.44,0.65,1.44,1.44C38.67,20.8,38.03,21.44,37.23,21.44z M36.02,21.21h1.21
			c0.67,0,1.21-0.54,1.21-1.21c0-0.67-0.54-1.21-1.21-1.21h-1.21V21.21z M29.4,21.44h-1.56v-2.89h1.56V21.44z M28.07,21.21h1.09
			v-2.42h-1.09V21.21z M12.16,21.44H10.6v-2.89h1.56V21.44z M10.84,21.21h1.09v-2.42h-1.09V21.21z M4.21,21.44H2.77
			c-0.8,0-1.44-0.65-1.44-1.44c0-0.8,0.65-1.44,1.44-1.44h1.44V21.44z M2.77,18.79c-0.67,0-1.21,0.54-1.21,1.21
			c0,0.67,0.54,1.21,1.21,1.21h1.21v-2.42H2.77z"/>
	</g>
	<path class="st0" d="M20,17.35c-1.07,0-2.04,0.65-2.45,1.64c-0.41,0.99-0.18,2.13,0.57,2.89c0.76,0.76,1.9,0.99,2.89,0.57
		c0.99-0.41,1.64-1.38,1.64-2.45C22.65,18.54,21.46,17.35,20,17.35L20,17.35z M20,21.33c-0.54,0-1.02-0.32-1.22-0.82
		c-0.21-0.5-0.09-1.07,0.29-1.44c0.38-0.38,0.95-0.49,1.44-0.29c0.5,0.21,0.82,0.69,0.82,1.22C21.33,20.73,20.73,21.33,20,21.33
		L20,21.33z M20,21.33"/>
</g>
</svg>
