<?xml version="1.0" encoding="utf-8"?>
<!-- Generator: Adobe Illustrator 25.1.0, SVG Export Plug-In . SVG Version: 6.00 Build 0)  -->
<svg version="1.1" id="Warstwa_1" xmlns="http://www.w3.org/2000/svg" xmlns:xlink="http://www.w3.org/1999/xlink" x="0px" y="0px"
	 viewBox="0 0 40 40" style="enable-background:new 0 0 40 40;" xml:space="preserve">
<style type="text/css">
	.st0{fill:#FFFFFF;}
	.st1{fill:#FFFFFF;stroke:#FFFFFF;stroke-width:0.2293;stroke-miterlimit:10;}
</style>
<g>
	<path class="st0" d="M22.98,0.5c-4.95,0-9.02,4.03-9.07,8.99v28.46h-2.22c-0.37,0-0.67,0.3-0.67,0.67v0.21
		c0,0.37,0.3,0.67,0.67,0.67h10.39c0.37,0,0.67-0.3,0.67-0.67v-0.21c0-0.37-0.3-0.67-0.67-0.67h-6.62l0-6.76h12.48h0.53h0.01v0
		c0.28,0,0.51-0.23,0.51-0.51V2.05V2.01V0.5H22.98z M27.43,29.64H15.46l0-20.08c0-4.15,3.37-7.52,7.52-7.52h4.45V29.64z"/>
	<g>
		<g>
			<path class="st1" d="M23.52,21.78h-0.87l-0.47-1.14h-1.36l-0.46,1.14h-0.86l1.71-3.97h0.59L23.52,21.78z M21.9,19.98l-0.4-0.93
				l-0.4,0.93H21.9z"/>
		</g>
		<path class="st1" d="M24.81,17.93l-0.64,0.41c0.3,0.48,0.48,1.05,0.48,1.66c0,1.73-1.41,3.14-3.14,3.14
			c-1.73,0-3.14-1.41-3.14-3.14c0-1.73,1.41-3.14,3.14-3.14c0.6,0,1.15,0.17,1.63,0.46l0.4-0.65c-0.59-0.36-1.28-0.57-2.02-0.57
			c-2.15,0-3.9,1.75-3.9,3.9c0,2.15,1.75,3.9,3.9,3.9c2.15,0,3.9-1.75,3.9-3.9C25.41,19.24,25.19,18.53,24.81,17.93z"/>
	</g>
</g>
</svg>
