<?xml version="1.0" encoding="utf-8"?>
<!-- Generator: Adobe Illustrator 25.2.0, SVG Export Plug-In . SVG Version: 6.00 Build 0)  -->
<svg version="1.1" id="Capa_1" xmlns="http://www.w3.org/2000/svg" xmlns:xlink="http://www.w3.org/1999/xlink" x="0px" y="0px"
	 viewBox="0 0 40 40" style="enable-background:new 0 0 40 40;" xml:space="preserve">
<style type="text/css">
	.st0{fill:#FFFFFF;}
	.st1{fill:none;}
</style>
<g>
	<g>
		<g>
			<path class="st0" d="M28,13.3c1.8,0,3.3-1.5,3.3-3.3S29.8,6.7,28,6.7s-3.3,1.5-3.3,3.3S26.2,13.3,28,13.3z M28,8c1.1,0,2,0.9,2,2
				s-0.9,2-2,2s-2-0.9-2-2S26.9,8,28,8z"/>
			<path class="st0" d="M11.3,37.3c2.6,0,4.7-2.1,4.7-4.7S13.9,28,11.3,28s-4.7,2.1-4.7,4.7C6.7,35.2,8.8,37.3,11.3,37.3z
				 M11.3,29.3c1.8,0,3.3,1.5,3.3,3.3c0,1.8-1.5,3.3-3.3,3.3S8,34.5,8,32.7C8,30.8,9.5,29.3,11.3,29.3z"/>
			<g>
				<path class="st0" d="M37.3,0H22.2h-1.6C20.3,0,20,0.3,20,0.7s0.3,0.7,0.7,0.7h1.6h15.1c0.7,0,1.3,0.6,1.3,1.3v5.1
					c0,0.4,0.3,0.7,0.7,0.7S40,8.2,40,7.8V2.7C40,1.2,38.8,0,37.3,0z"/>
				<path class="st0" d="M40,11.7v25.6c0,1.5-1.2,2.7-2.7,2.7H24.6c-0.3-0.1-0.5-0.3-0.5-0.7s0.3-0.7,0.7-0.7h12.6
					c0.7,0,1.3-0.6,1.3-1.3V11.7c0-0.4,0.3-0.7,0.7-0.7S40,11.3,40,11.7z"/>
			</g>
			<path class="st0" d="M20.7,26.8h-4.2l-1.2-2.9c-0.1-0.2-0.3-0.4-0.6-0.4H8c-0.3,0-0.5,0.1-0.6,0.4l-1.2,2.9H2c-1.1,0-2,0.9-2,2
				V38c0,1.1,0.9,2,2,2h11.1c0.4,0,0.7-0.3,0.7-0.7c0-0.4-0.3-0.7-0.7-0.7H2c-0.4,0-0.7-0.3-0.7-0.7v-9.3C1.3,28.3,1.6,28,2,28h4.7
				c0.2,0,0.5-0.2,0.6-0.5l1.2-2.9h5.7l1.2,2.9c0.1,0.2,0.3,0.4,0.6,0.4h4.7c0.4,0,0.7,0.3,0.7,0.7v9.3c0,0.4-0.3,0.7-0.7,0.7h-3.2
				H16h-0.1c-0.4,0-0.7,0.3-0.7,0.7s0.3,0.7,0.7,0.7H16h1.5h3.2c1.1,0,2-0.9,2-2v-9.3C22.7,27.5,21.8,26.7,20.7,26.8z"/>
			<path class="st0" d="M19.5,30.7H18c-0.4,0-0.7-0.3-0.7-0.7l0,0c0-0.4,0.3-0.7,0.7-0.7h1.6c0.4,0,0.7,0.3,0.7,0.7l0,0
				C20.2,30.4,19.9,30.7,19.5,30.7z"/>
			<circle class="st0" cx="36.7" cy="36.7" r="0.7"/>
			<circle class="st0" cx="19.3" cy="36.7" r="0.7"/>
			<circle class="st0" cx="4" cy="30" r="0.7"/>
			<circle class="st0" cx="36.7" cy="3.3" r="0.7"/>
			<path class="st0" d="M32.4,22.4c-2.7-2.5-7-2.2-9.4,0.5c-0.5,0.6-1,1.1-1.3,2.4c-0.2,0.7-0.1,1.1,0.4,1.2
				c0.3,0.1,0.7-0.1,0.8-0.4l0,0l0.3-0.8c1-2.4,3.5-3.8,6.1-3.2c2.9,0.7,4.7,3.5,4,6.4c-0.6,2.4-2.7,4.2-5.2,4.2
				c-0.8,0-1.7-0.2-2.4-0.6l0,0c-0.4-0.2-1.1-0.8-1.1-0.8c-0.1-0.1-0.8-0.2-1,0.2c-0.3,0.6,0.1,0.9,0.2,1c0.4,0.3,1.5,0.9,1.5,0.9
				c2.6,1.2,5.8,0.7,7.8-1.6C35.4,29,35.2,24.8,32.4,22.4z"/>
			<path class="st1" d="M15.3,10c-0.4,0-0.7,0.3-0.7,0.7V20c0,0.4,0.3,0.7,0.7,0.7S16,20.4,16,20v-9.3C16,10.3,15.7,10,15.3,10z"/>
			<path class="st1" d="M17.3,12.1v6.5c1.3-0.3,2.3-1.3,2.6-2.6C20.3,14.2,19.1,12.4,17.3,12.1z"/>
			<path class="st1" d="M15.3,10c-0.4,0-0.7,0.3-0.7,0.7V20c0,0.4,0.3,0.7,0.7,0.7S16,20.4,16,20v-9.3C16,10.3,15.7,10,15.3,10z"/>
			<path class="st1" d="M17.3,12.1v6.5c1.3-0.3,2.3-1.3,2.6-2.6C20.3,14.2,19.1,12.4,17.3,12.1z"/>
		</g>
		<g>
			<path class="st0" d="M28,13.3c1.8,0,3.3-1.5,3.3-3.3S29.8,6.7,28,6.7s-3.3,1.5-3.3,3.3S26.2,13.3,28,13.3z M28,8c1.1,0,2,0.9,2,2
				s-0.9,2-2,2s-2-0.9-2-2S26.9,8,28,8z"/>
			<path class="st0" d="M11.3,37.3c2.6,0,4.7-2.1,4.7-4.7S13.9,28,11.3,28s-4.7,2.1-4.7,4.7C6.7,35.2,8.8,37.3,11.3,37.3z
				 M11.3,29.3c1.8,0,3.3,1.5,3.3,3.3c0,1.8-1.5,3.3-3.3,3.3S8,34.5,8,32.7C8,30.8,9.5,29.3,11.3,29.3z"/>
			<g>
				<path class="st0" d="M37.3,0H22.2h-1.6C20.3,0,20,0.3,20,0.7s0.3,0.7,0.7,0.7h1.6h15.1c0.7,0,1.3,0.6,1.3,1.3v5.1
					c0,0.4,0.3,0.7,0.7,0.7S40,8.2,40,7.8V2.7C40,1.2,38.8,0,37.3,0z"/>
				<path class="st0" d="M40,11.7v25.6c0,1.5-1.2,2.7-2.7,2.7H24.6c-0.3-0.1-0.5-0.3-0.5-0.7s0.3-0.7,0.7-0.7h12.6
					c0.7,0,1.3-0.6,1.3-1.3V11.7c0-0.4,0.3-0.7,0.7-0.7S40,11.3,40,11.7z"/>
			</g>
			<path class="st0" d="M19.5,30.7H18c-0.4,0-0.7-0.3-0.7-0.7l0,0c0-0.4,0.3-0.7,0.7-0.7h1.6c0.4,0,0.7,0.3,0.7,0.7l0,0
				C20.2,30.4,20.2,30.7,19.5,30.7z"/>
			<circle class="st0" cx="36.7" cy="36.7" r="0.7"/>
			<circle class="st0" cx="19.3" cy="36.7" r="0.7"/>
			<circle class="st0" cx="4" cy="30" r="0.7"/>
			<circle class="st0" cx="36.7" cy="3.3" r="0.7"/>
			<path class="st1" d="M15.3,10c-0.4,0-0.7,0.3-0.7,0.7V20c0,0.4,0.3,0.7,0.7,0.7S16,20.4,16,20v-9.3C16,10.3,15.7,10,15.3,10z"/>
			<path class="st1" d="M17.3,12.1v6.5c1.3-0.3,2.3-1.3,2.6-2.6C20.3,14.2,19.1,12.4,17.3,12.1z"/>
			<path class="st1" d="M15.3,10c-0.4,0-0.7,0.3-0.7,0.7V20c0,0.4,0.3,0.7,0.7,0.7S16,20.4,16,20v-9.3C16,10.3,15.7,10,15.3,10z"/>
			<path class="st1" d="M17.3,12.1v6.5c1.3-0.3,2.3-1.3,2.6-2.6C20.3,14.2,19.1,12.4,17.3,12.1z"/>
		</g>
		<path class="st0" d="M34.5,19.9c-4-3.7-10.4-3.3-14,0.7c-0.4,0.4-1.4,1.8-1.9,3.6c-0.2,1-0.1,1.6,0.6,1.8c0.4,0.1,1-0.1,1.2-0.6
			l0.4-1.2c1.5-3.6,5.2-5.7,9.1-4.8c4.3,1,7,5.2,6,9.5c-0.9,3.6-4,6.3-7.7,6.3c-1.2,0-2.5-0.3-3.6-0.9c-0.6-0.3-1.6-1.2-1.6-1.2
			c0,0-0.1-0.1-0.2-0.1v2.5c0.6,0.4,1.2,0.7,1.2,0.7c3.9,1.8,8.6,1,11.6-2.4C38.9,29.8,38.7,23.5,34.5,19.9z"/>
		<path class="st0" d="M18.1,1.7c0,0-1.3-0.8-1.6-0.8c-0.2,0-0.5-0.2-0.8,0.2c-0.2,0.3,0,0.6,0.3,0.8l1,0.5c3.3,1.8,5.6,5.3,5.6,9.4
			v2.7h-1.3V12c0-5.1-4.2-9.3-9.3-9.3c-0.2,0-0.4,0-0.6,0c0,0-3.2,0.2-5.9,2.6c-1.7,1.7-2.8,4-2.8,6.6v2.7H1.3V12
			C1.3,6,6.1,1.2,12,1.2c1.3,0.1,2.3,0.3,2.3,0.3s0.6,0.2,0.9-0.4c0.2-0.6-0.3-0.8-0.4-0.8C13.9,0,13,0,12,0C5.4,0,0,5.4,0,12v3.3
			C0,15.7,0.3,16,0.7,16h2.1c0.3,2.1,1.9,3.7,3.9,4c0,1.1,0.9,2,2,2s2-0.9,2-2v-9.3c0-1.1-0.9-2-2-2s-2,0.9-2,2
			c-1,0.2-1.9,0.6-2.7,1.4V12c0-2.4,1-4.5,2.7-6l0.1-0.1c0,0,1.5-1.2,3.5-1.6c0,0,0.1,0,0.1,0c0.3-0.1,0.5-0.1,0.8-0.1
			c0,0,0,0,0.1,0c0.2,0,0.3,0,0.5,0c0.1,0,0.2,0,0.3,0c4.4,0,8,3.6,8,8v0.1c-0.7-0.7-1.7-1.2-2.7-1.4c0-1.1-0.9-2-2-2
			c-1.1,0-2,0.9-2,2V20c0,1.1,0.9,2,2,2c1.1,0,2-0.9,2-2c2-0.3,3.6-1.9,4-4h2c0.4,0,0.7-0.3,0.7-0.7V12C24,7.5,21.6,3.7,18.1,1.7z
			 M8,10.5C8,10.2,8.3,10,8.7,10s0.7,0.3,0.7,0.7V20c0,0.4-0.3,0.7-0.7,0.7S8,20.4,8,20V10.5z M6.7,12v6.5C6.7,18.5,4,18,4,15
			C4,12.5,6.7,12,6.7,12z M16,20c0,0.4-0.3,0.7-0.7,0.7c-0.4,0-0.7-0.3-0.7-0.7v-9.3c0-0.4,0.3-0.7,0.7-0.7c0.4,0,0.7,0.3,0.7,0.7
			V20z M19.9,16c-0.3,1.3-1.3,2.3-2.6,2.6V12C19.1,12.4,20.3,14.2,19.9,16z"/>
	</g>
	<path class="st0" d="M31.2,4.8c-0.9-0.5-2-0.8-3-0.8c-1.7,0-3.3,0.7-4.4,1.9c0,0,0,0-0.1,0.1c0,0,0,0,0,0l0,0
		c-0.1,0.1-0.1,0.2-0.1,0.4c0,0.4,0.3,0.7,0.7,0.7c0.2,0,0.4-0.1,0.5-0.2c1.7-1.9,4.7-2,6.6-0.4c1.9,1.7,2.1,4.7,0.4,6.6
		c-1.2,1.4-3.2,1.9-4.9,1.4c0,0-0.7-0.2-1-0.4c0,0-0.2-0.1-0.3-0.1c-0.4,0-0.7,0.3-0.7,0.7c0,0.2,0.1,0.4,0.3,0.5c0,0,0,0,0.1,0
		c0,0,0.1,0,0.1,0.1c0.3,0.2,0.7,0.3,1,0.4c0.1,0,0.3,0.1,0.4,0.1c2.5,0.5,5.2-0.6,6.5-2.9C34.8,10,33.9,6.5,31.2,4.8z"/>
</g>
</svg>
