<?xml version="1.0" encoding="utf-8"?>
<!-- Generator: Adobe Illustrator 25.2.0, SVG Export Plug-In . SVG Version: 6.00 Build 0)  -->
<svg version="1.1" id="Capa_1" xmlns="http://www.w3.org/2000/svg" xmlns:xlink="http://www.w3.org/1999/xlink" x="0px" y="0px"
	 viewBox="0 0 40 40" style="enable-background:new 0 0 40 40;" xml:space="preserve">
<style type="text/css">
	.st0{fill:#FFFFFF;}
</style>
<g>
	<path class="st0" d="M36.7,6.1H3.3C1.5,6.1,0,7.6,0,9.6v20.9c0,1.9,1.5,3.5,3.3,3.5h33.4c1.8,0,3.3-1.6,3.3-3.5V9.6
		C40,7.6,38.5,6.1,36.7,6.1z M38.9,30.4c0,1.3-1,2.3-2.2,2.3H3.3c-1.2,0-2.2-1-2.2-2.3V9.6c0-1.3,1-2.3,2.2-2.3h33.4
		c1.2,0,2.2,1,2.2,2.3V30.4z"/>
	<path class="st0" d="M34.8,8.4H20.1H18c-0.3,0-0.5,0.2-0.5,0.5c0,0.3,0.2,0.5,0.5,0.5h2.1h14.7c1.1,0,1.9,0.9,1.9,1.9v17.4
		c0,1.1-0.9,1.9-1.9,1.9H5.2c-1.1,0-1.9-0.9-1.9-1.9V11.3c0-1.1,0.9-1.9,1.9-1.9h4.2v2.1H9.3c-0.3,0-0.4,0.2-0.4,0.4v1
		c0,0.2,0.1,0.4,0.3,0.4l-1.3,3.9l0,0.4l3.3,5.1c-0.3,0.2-0.5,0.6-0.5,1c0,0.2,0,0.3,0.1,0.5l-0.6,0.5C10.1,24.8,10,24.9,10,25
		c0,0.1,0,0.2,0.1,0.3c0.1,0.1,0.2,0.1,0.3,0.1c0.1,0,0.2,0,0.3-0.1l0.6-0.5c0.2,0.1,0.4,0.2,0.6,0.2c0.4,0,0.8-0.2,1-0.5l6.9,2.2
		c0,0.7,0.5,1.2,1.2,1.2c0.7,0,1.2-0.5,1.2-1.2c0-0.1,0-0.2,0-0.3l0.8-0.5l0.9-0.6c0.2-0.1,0.2-0.4,0.1-0.5
		c-0.1-0.1-0.2-0.2-0.3-0.2c-0.1,0-0.1,0-0.2,0c0,0,0,0,0,0l-0.9,0.6c0,0-0.1,0-0.1,0.1l-0.7,0.5c-0.2-0.2-0.5-0.3-0.7-0.3
		c-0.4,0-0.8,0.2-1,0.5l-6.8-2.2c0-0.4-0.2-0.8-0.6-1l3.2-5c0.1-0.1,0.1-0.2,0.1-0.3c0-0.1,0-0.1-0.1-0.2l-0.8-2.3
		c-0.1-0.3-0.3-0.3-0.5-0.3l-0.1,0C14,14.8,14,15,14,15.1l0.8,2.1l-2.6,4.1v-3.3c0.5-0.2,0.9-0.6,0.9-1.2c0-0.7-0.5-1.3-1.3-1.3
		c-0.7,0-1.3,0.5-1.3,1.3c0,0.6,0.4,1.1,0.9,1.2v3.4l-2.7-4.1l1.3-4h3.3l0.3,0.9c0,0.1,0.1,0.2,0.2,0.3c0.1,0.1,0.2,0.1,0.4,0
		c0.1,0,0.2-0.1,0.3-0.2c0.1-0.1,0.1-0.3,0-0.4l-0.2-0.8c0.2,0,0.3-0.2,0.3-0.4v-0.9c0-0.3-0.2-0.4-0.4-0.4h0V9.3h0v-1h0v0H9.4v0
		H5.2c-1.6,0-2.9,1.3-2.9,2.9v17.4c0,1.6,1.3,2.9,2.9,2.9h29.5c1.6,0,2.9-1.3,2.9-2.9V11.3C37.7,9.7,36.4,8.4,34.8,8.4z M10.2,10.4
		h3v1.1h-3V10.4z M13.9,12.5H9.7v-0.2h4.2V12.5z M13.3,9.5h-3V9.3h3V9.5z"/>
	<path class="st0" d="M27.7,13.8c-0.1,0-0.1,0.1-0.1,0.1c0,0.1,0.1,0.1,0.1,0.1H29c0,0.3,0.1,0.6,0.3,0.8l-0.9,0.9
		c-0.1,0.1-0.1,0.1,0,0.2c0.1,0.1,0.1,0.1,0.2,0l0.9-0.9c0.2,0.2,0.5,0.3,0.8,0.3v1.3c0,0.1,0.1,0.1,0.1,0.1c0.1,0,0.1-0.1,0.1-0.1
		v-1.3c0.3,0,0.6-0.2,0.8-0.3l0.9,0.9c0.1,0.1,0.1,0.1,0.2,0c0.1-0.1,0.1-0.1,0-0.2l-0.9-0.9c0.2-0.2,0.3-0.5,0.3-0.8h1.3
		c0.1,0,0.1-0.1,0.1-0.1c0-0.1-0.1-0.1-0.1-0.1h-1.3c0-0.3-0.1-0.6-0.3-0.8l0.9-0.9c0.1-0.1,0.1-0.1,0-0.2c-0.1-0.1-0.1-0.1-0.2,0
		l-0.9,0.9c-0.2-0.2-0.5-0.3-0.8-0.3v-1.3c0-0.1-0.1-0.1-0.1-0.1c-0.1,0-0.1,0.1-0.1,0.1v1.3c-0.3,0-0.6,0.1-0.8,0.3l-0.9-0.9
		c-0.1-0.1-0.1-0.1-0.2,0c-0.1,0.1-0.1,0.1,0,0.2l0.9,0.9c-0.2,0.2-0.3,0.5-0.3,0.8H27.7z"/>
	<path class="st0" d="M8.8,27l0.8-0.7c0.2-0.1,0.2-0.4,0-0.5c-0.1-0.1-0.2-0.1-0.3-0.1c-0.1,0-0.2,0-0.2,0.1c0,0,0,0,0,0l-0.8,0.7
		l-1.7,1.5c-0.2-0.1-0.4-0.2-0.6-0.2c-0.7,0-1.2,0.5-1.2,1.2c0,0.7,0.5,1.2,1.2,1.2s1.2-0.5,1.2-1.2c0-0.2,0-0.3-0.1-0.5L8.8,27
		L8.8,27z"/>
	<path class="st0" d="M25.9,22.8L25,23.3l0,0c-0.2,0.1-0.2,0.3-0.1,0.5c0,0,0,0,0,0l0,0c0.1,0.2,0.3,0.2,0.5,0.1c0,0,0,0,0,0
		l0.9-0.6c0,0,0,0,0,0l2.7-1.8c0.2,0.2,0.5,0.3,0.7,0.3c0.1,0,0.2,0,0.3,0l3.9,5.8c-0.2,0.2-0.2,0.5-0.2,0.7c0,0.7,0.5,1.2,1.2,1.2
		c0.7,0,1.2-0.5,1.2-1.2c0-0.7-0.5-1.2-1.2-1.2c-0.1,0-0.2,0-0.3,0l-3.9-5.8c0.2-0.2,0.3-0.5,0.3-0.7c0-0.7-0.5-1.2-1.2-1.2
		c-0.7,0-1.2,0.5-1.2,1.2c0,0.1,0,0.2,0,0.3L25.9,22.8L25.9,22.8z"/>
</g>
</svg>
