<?xml version="1.0" encoding="utf-8"?>
<!-- Generator: Adobe Illustrator 25.2.0, SVG Export Plug-In . SVG Version: 6.00 Build 0)  -->
<svg version="1.1" id="Capa_1" xmlns="http://www.w3.org/2000/svg" xmlns:xlink="http://www.w3.org/1999/xlink" x="0px" y="0px"
	 viewBox="0 0 40 40" style="enable-background:new 0 0 40 40;" xml:space="preserve">
<style type="text/css">
	.st0{fill:#FFFFFF;}
</style>
<g>
	<path class="st0" d="M37.8,4.3H2.2C1,4.3,0,5.3,0,6.5v27c0,1.2,1,2.2,2.2,2.2h35.6c1.2,0,2.2-1,2.2-2.2v-27C40,5.3,39,4.3,37.8,4.3
		z M11,6.4h4.4v1.9H11V6.4z M16.2,8.9v0.7h-5.9V8.9H16.2z M15.4,5.8H11V4.9h4.4V5.8z M39.4,33.5c0,0.9-0.7,1.6-1.6,1.6H2.2
		c-0.9,0-1.6-0.7-1.6-1.6v-27c0-0.9,0.7-1.6,1.6-1.6h8.2v0.9H3.9c-1.1,0-2,0.9-2,2v24.4c0,1.1,0.9,2,2,2h3.8c0.1,0,0.3-0.1,0.3-0.3
		c0-0.2-0.1-0.3-0.3-0.3H3.9c-0.8,0-1.4-0.6-1.4-1.4V7.8c0-0.8,0.6-1.4,1.4-1.4h6.5v1.9H10c-0.2,0-0.3,0.1-0.3,0.3v1.3
		c0,0.2,0.1,0.3,0.3,0.3h0.2l-1.8,5.4c0,0.1,0,0.2,0,0.3L13,23c0,0,0,0,0,0.1c-0.4,0.1-0.6,0.4-0.6,0.8c0,0.1,0,0.2,0.1,0.3
		l-0.8,0.7c-0.1,0.1-0.1,0.3,0,0.4c0.2,0.2,0.4,0,0.4,0l0.7-0.7c0.1,0.1,0.3,0.2,0.5,0.2c0.3,0,0.5-0.1,0.7-0.3l5.1,2.9c0,0,0,0,0,0
		c0,0.5,0.4,0.9,0.9,0.9c0.5,0,0.9-0.4,0.9-0.9c0-0.2-0.1-0.3-0.1-0.5l1.8-1.8c0.1-0.1,0.1-0.3,0-0.4c-0.1-0.1-0.3-0.1-0.4,0
		l-1.8,1.8c-0.1,0-0.2-0.1-0.3-0.1c-0.3,0-0.5,0.1-0.7,0.3l-5.1-2.9c0-0.4-0.3-0.8-0.7-0.8c0,0,0,0,0,0l4.5-7.1
		c0.1-0.1,0.1-0.2,0-0.3l-1.1-3c-0.1-0.2-0.2-0.2-0.4-0.2c-0.2,0.1-0.2,0.2-0.2,0.4l1,2.8l-3.9,6.1v-5.3c0.6-0.1,1.1-0.7,1.1-1.3
		c0-0.8-0.6-1.4-1.4-1.4s-1.4,0.6-1.4,1.4c0,0.7,0.5,1.3,1.2,1.3v5.4l-4-6.1l1.8-5.5h4.7l0.4,1.4c0,0.2,0.2,0.3,0.4,0.2
		c0.2,0,0.3-0.2,0.2-0.4l-0.4-1.3h0.2c0.2,0,0.3-0.1,0.3-0.3V8.6c0-0.2-0.1-0.3-0.3-0.3H16V4.9h21.8c0.9,0,1.6,0.7,1.6,1.6V33.5z"/>
	<path class="st0" d="M36.1,5.8H20.3c-0.2,0-0.3,0.1-0.3,0.3c0,0.2,0.1,0.3,0.3,0.3H36c0.8,0,1.4,0.6,1.4,1.4v24.4
		c0,0.8-0.6,1.4-1.4,1.4H11.7c-0.2,0-0.3,0.1-0.3,0.3c0,0.2,0.1,0.3,0.3,0.3h24.4c1.1,0,2-0.9,2-2V7.8C38.1,6.7,37.2,5.8,36.1,5.8z"
		/>
	<path class="st0" d="M10.1,26.4l-5,4.8l0,0c-0.1,0-0.2-0.1-0.3-0.1c-0.5,0-0.9,0.4-0.9,0.9s0.4,0.9,0.9,0.9c0.5,0,0.9-0.4,0.9-0.9
		c0-0.2-0.1-0.3-0.1-0.5l4.9-4.7c0.1-0.1,0.1-0.3,0-0.4C10.4,26.3,10.2,26.3,10.1,26.4z"/>
	<path class="st0" d="M23.6,23.8c0.1,0.1,0.3,0.1,0.4,0l3.7-3.7c0.1,0.1,0.2,0.1,0.4,0.1c0.2,0,0.4-0.1,0.5-0.2l6.3,11.5
		c-0.1,0.1-0.1,0.3-0.1,0.4c0,0.5,0.4,0.9,0.9,0.9c0.5,0,0.9-0.4,0.9-0.9s-0.4-0.9-0.9-0.9c-0.1,0-0.2,0-0.3,0.1l0,0l-6.5-11.6
		c0-0.1,0.1-0.2,0.1-0.3c0-0.5-0.4-0.9-0.9-0.9s-0.9,0.4-0.9,0.9c0,0.2,0.1,0.3,0.1,0.5l-3.7,3.6C23.5,23.5,23.5,23.7,23.6,23.8z"/>
	<path class="st0" d="M29.1,11.4c0,1.1,0.9,1.9,1.9,1.9s1.9-0.9,1.9-1.9c0-1.1-0.9-1.9-1.9-1.9S29.1,10.3,29.1,11.4z"/>
	<path class="st0" d="M30.9,13.9v1.5c0,0.1,0.1,0.1,0.1,0.1s0.1-0.1,0.1-0.1v-1.5c0-0.1-0.1-0.1-0.1-0.1S30.9,13.8,30.9,13.9z"/>
	<path class="st0" d="M29.1,13.1l-1,1c0,0,0,0.1,0,0.2c0,0,0.1,0,0.1,0s0.1,0,0.1,0l1-1c0,0,0-0.1,0-0.2C29.3,13,29.2,13,29.1,13.1z
		"/>
	<path class="st0" d="M26.9,11.4c0,0.1,0.1,0.1,0.1,0.1h1.5c0.1,0,0.1-0.1,0.1-0.1s-0.1-0.1-0.1-0.1H27C27,11.3,26.9,11.3,26.9,11.4
		z"/>
	<path class="st0" d="M28.3,8.5c0,0-0.1,0-0.2,0c0,0,0,0.1,0,0.2l1,1c0,0,0.1,0,0.1,0s0.1,0,0.1,0c0,0,0-0.1,0-0.2L28.3,8.5z"/>
	<path class="st0" d="M31.1,8.9V7.4c0-0.1-0.1-0.1-0.1-0.1s-0.1,0.1-0.1,0.1v1.5C30.9,8.9,30.9,9,31,9S31.1,8.9,31.1,8.9z"/>
	<path class="st0" d="M33.7,8.5l-1,1c0,0,0,0.1,0,0.2c0,0,0.1,0,0.1,0s0.1,0,0.1,0l1-1c0,0,0-0.1,0-0.2C33.9,8.5,33.8,8.5,33.7,8.5z
		"/>
	<path class="st0" d="M35.1,11.4c0-0.1-0.1-0.1-0.1-0.1h-1.5c-0.1,0-0.1,0.1-0.1,0.1s0.1,0.1,0.1,0.1H35
		C35.1,11.5,35.1,11.5,35.1,11.4z"/>
	<path class="st0" d="M32.7,13.1c0,0,0,0.1,0,0.2l1,1c0,0,0.1,0,0.1,0s0.1,0,0.1,0c0,0,0-0.1,0-0.2l-1-1C32.8,13,32.8,13,32.7,13.1z
		"/>
</g>
</svg>
