<?xml version="1.0" encoding="utf-8"?>
<!-- Generator: Adobe Illustrator 25.1.0, SVG Export Plug-In . SVG Version: 6.00 Build 0)  -->
<svg version="1.1" id="Warstwa_1" xmlns="http://www.w3.org/2000/svg" xmlns:xlink="http://www.w3.org/1999/xlink" x="0px" y="0px"
	 viewBox="0 0 40 40" style="enable-background:new 0 0 40 40;" xml:space="preserve">
<style type="text/css">
	.st0{fill:#FFFFFF;}
</style>
<path class="st0" d="M39.18,1.51H14.42c-0.02,0-0.04,0-0.06,0l-0.05,0v0c-0.39,0.05-0.69,0.38-0.69,0.79v3.61l-12.81,0
	C0.37,5.91,0,6.28,0,6.73v3.26c0,0.44,0.36,0.81,0.8,0.82v22.14c0,0.45,0.37,0.82,0.82,0.82h4.14v3.91c0,0.45,0.37,0.82,0.82,0.82
	h27.7c0.45,0,0.82-0.37,0.82-0.82v-7.63h3.15c0.45,0,0.82-0.37,0.82-0.82V9.14h0.13c0.45,0,0.82-0.37,0.82-0.82v-6
	C40,1.87,39.63,1.51,39.18,1.51z M7.39,36.86V28h26.07v8.86H7.39z M21.93,5.91h-6.67V3.14h23.11v4.37H22.75V6.73
	C22.75,6.28,22.38,5.91,21.93,5.91z M35.09,28L35.09,28c0.45,0,0.82-0.37,0.82-0.82v-2.5c0-0.45-0.37-0.82-0.82-0.82H21.95V10.81
	c0.44-0.01,0.8-0.37,0.8-0.82V9.14h14.67v19.27h-2.33V28z M34.27,25.5v0.86H6.57V25.5H34.27z M4.93,24.69v2.5
	C4.93,27.63,5.3,28,5.75,28l0,4.13H2.43V10.81h17.88v13.06H5.75C5.3,23.87,4.93,24.24,4.93,24.69z M21.12,7.55v1.63H1.63V7.55H21.12
	z"/>
</svg>
