<?xml version="1.0" encoding="utf-8"?>
<!-- Generator: Adobe Illustrator 25.1.0, SVG Export Plug-In . SVG Version: 6.00 Build 0)  -->
<svg version="1.1" id="Warstwa_1" xmlns="http://www.w3.org/2000/svg" xmlns:xlink="http://www.w3.org/1999/xlink" x="0px" y="0px"
	 viewBox="0 0 40 40" style="enable-background:new 0 0 40 40;" xml:space="preserve">
<style type="text/css">
	.st0{fill:#FFFFFF;}
</style>
<g>
	<path class="st0" d="M34.99,7.43c0-0.05-0.02-0.1-0.03-0.14c-0.02-0.06-0.04-0.12-0.06-0.17c-0.02-0.05-0.05-0.1-0.08-0.14
		c-0.01-0.01-0.64-0.84-0.64-2.8c0-1.96,0.63-2.79,0.63-2.79c0.21-0.24,0.26-0.59,0.13-0.89C34.79,0.19,34.49,0,34.17,0h-25
		C6.87,0,5,1.87,5,4.17v31.67C5,38.13,6.87,40,9.17,40h25c0.46,0,0.83-0.37,0.83-0.83V7.5C35,7.47,34.99,7.45,34.99,7.43z
		 M9.17,1.67h23.68c-0.14,0.44-0.26,1-0.31,1.67c-0.01,0-0.02-0.01-0.04-0.01H9.17c-0.46,0-0.83,0.37-0.83,0.83
		C8.33,4.63,8.71,5,9.17,5H32.5c0.01,0,0.02-0.01,0.04-0.01c0.06,0.68,0.17,1.23,0.31,1.67H9.17c-1.38,0-2.5-1.12-2.5-2.5
		C6.67,2.79,7.79,1.67,9.17,1.67z M9.17,38.33c-1.38,0-2.5-1.12-2.5-2.5V7.48c0.7,0.53,1.56,0.85,2.5,0.85h24.17v30H9.17z"/>
	<path class="st0" d="M20.02,32.64c-0.41,0-0.83-0.03-1.24-0.08c-0.29-0.04-0.58-0.09-0.87-0.16l0.36-1.56
		c0.24,0.05,0.48,0.1,0.72,0.13c0.61,0.08,1.22,0.09,1.82,0.03l0.17,1.59C20.66,32.62,20.34,32.64,20.02,32.64z M23.94,31.76
		l-0.68-1.45c0.77-0.36,1.48-0.85,2.09-1.45l1.11,1.15C25.73,30.73,24.88,31.32,23.94,31.76z M15.98,31.71
		c-0.93-0.45-1.77-1.05-2.51-1.78l1.13-1.13c0.61,0.61,1.31,1.1,2.07,1.47L15.98,31.71z M28.29,27.53l-1.43-0.72
		c0.38-0.76,0.63-1.58,0.75-2.43l1.59,0.21C29.06,25.62,28.75,26.61,28.29,27.53z M11.68,27.44c-0.46-0.93-0.75-1.92-0.87-2.95
		l1.59-0.19c0.1,0.85,0.35,1.67,0.72,2.44L11.68,27.44z M27.59,22.2c-0.13-0.84-0.4-1.66-0.8-2.41l1.41-0.75
		c0.48,0.92,0.81,1.9,0.97,2.92L27.59,22.2z M12.51,21.75l-1.56-0.33c0.22-1.01,0.6-1.97,1.14-2.86l1.37,0.83
		C13.01,20.12,12.69,20.91,12.51,21.75z M25.83,18.38c-0.56-0.65-1.21-1.2-1.95-1.63l0.81-1.38c0.89,0.52,1.68,1.19,2.36,1.97
		L25.83,18.38z M14.49,18.04l-1.15-1.11c0.72-0.74,1.55-1.36,2.47-1.83l0.73,1.42C15.77,16.92,15.08,17.43,14.49,18.04z M21.5,15.85
		c-0.16-0.03-0.32-0.06-0.48-0.08c-0.34-0.05-0.7-0.07-1.03-0.07c-0.34,0-0.69,0.02-1.03,0.07l-0.22-1.58
		c0.42-0.06,0.85-0.07,1.25-0.08c0.41,0,0.82,0.03,1.23,0.08c0.2,0.03,0.39,0.06,0.59,0.1L21.5,15.85z"/>
	<g>
		<g>
			<path class="st0" d="M22.74,25.8h-1.19l-0.64-1.56h-1.86l-0.63,1.56h-1.17l2.34-5.43h0.8L22.74,25.8z M20.53,23.34l-0.54-1.27
				l-0.54,1.27H20.53z"/>
		</g>
		<path class="st0" d="M24.52,20.53l-0.88,0.56c0.41,0.66,0.65,1.44,0.65,2.28c0,2.37-1.93,4.29-4.29,4.29
			c-2.37,0-4.29-1.93-4.29-4.29c0-2.37,1.93-4.29,4.29-4.29c0.81,0,1.58,0.23,2.22,0.62l0.54-0.89c-0.81-0.49-1.75-0.78-2.77-0.78
			c-2.94,0-5.33,2.39-5.33,5.33c0,2.94,2.39,5.33,5.33,5.33c2.94,0,5.33-2.39,5.33-5.33C25.33,22.33,25.03,21.36,24.52,20.53z"/>
	</g>
</g>
</svg>
