<?xml version="1.0" encoding="utf-8"?>
<!-- Generator: Adobe Illustrator 25.1.0, SVG Export Plug-In . SVG Version: 6.00 Build 0)  -->
<svg version="1.1" id="Warstwa_1" xmlns="http://www.w3.org/2000/svg" xmlns:xlink="http://www.w3.org/1999/xlink" x="0px" y="0px"
	 viewBox="0 0 40 40" style="enable-background:new 0 0 40 40;" xml:space="preserve">
<style type="text/css">
	.st0{fill:#FFFFFF;}
</style>
<g>
	<g>
		
			<rect x="5.05" y="15.42" transform="matrix(-1 -1.224647e-16 1.224647e-16 -1 11.6956 32.4329)" class="st0" width="1.6" height="1.6"/>
		
			<rect x="33.35" y="15.42" transform="matrix(-1 -1.224647e-16 1.224647e-16 -1 68.3044 32.4329)" class="st0" width="1.6" height="1.6"/>
		
			<rect x="27.69" y="15.42" transform="matrix(-1 -1.224647e-16 1.224647e-16 -1 56.9826 32.4329)" class="st0" width="1.6" height="1.6"/>
		
			<rect x="16.37" y="15.42" transform="matrix(-1 -1.224647e-16 1.224647e-16 -1 34.3391 32.4329)" class="st0" width="1.6" height="1.6"/>
		
			<rect x="10.71" y="15.42" transform="matrix(-1 -1.224647e-16 1.224647e-16 -1 23.0174 32.4329)" class="st0" width="1.6" height="1.6"/>
		
			<rect x="22.03" y="15.42" transform="matrix(-1 -1.224647e-16 1.224647e-16 -1 45.6609 32.4329)" class="st0" width="1.6" height="1.6"/>
	</g>
	<g>
		<path class="st0" d="M34.24,30.2h-0.05V25.3c0-0.58-0.49-1.05-1.08-1.05h-0.44v-1.54c0-0.38-0.32-0.7-0.71-0.7h-0.05v-0.41
			c0-0.19-0.15-0.34-0.35-0.34c-0.19,0-0.35,0.15-0.35,0.34v0.41h-0.05c-0.39,0-0.71,0.31-0.71,0.7v1.54H29.6v-2.28
			c0-0.38-0.32-0.7-0.71-0.7h-0.05v-0.41c0-0.19-0.15-0.34-0.35-0.34c-0.19,0-0.35,0.15-0.35,0.34v0.41H28.1
			c-0.39,0-0.71,0.31-0.71,0.7v2.28h-0.84v-1.54c0-0.38-0.32-0.7-0.71-0.7h-0.05v-0.41c0-0.19-0.15-0.34-0.35-0.34
			c-0.19,0-0.35,0.15-0.35,0.34v0.41h-0.05c-0.39,0-0.71,0.31-0.71,0.7v1.54h-0.44c-0.6,0-1.08,0.47-1.08,1.05v4.89h-0.05
			c-0.39,0-0.71,0.31-0.71,0.7v1.13c0,0.19,0.15,0.34,0.35,0.34H34.6c0.19,0,0.35-0.15,0.35-0.34v-1.13
			C34.95,30.51,34.63,30.2,34.24,30.2L34.24,30.2z M31.13,22.71c0-0.01,0.01-0.02,0.02-0.02h0.79c0.01,0,0.02,0.01,0.02,0.02v1.54
			h-0.84V22.71z M28.07,21.97c0-0.01,0.01-0.02,0.02-0.02h0.79c0.01,0,0.02,0.01,0.02,0.02v2.28h-0.84V21.97z M25.02,22.71
			c0-0.01,0.01-0.02,0.02-0.02h0.79c0.01,0,0.02,0.01,0.02,0.02v1.54h-0.84V22.71z M23.49,25.3c0-0.21,0.18-0.38,0.39-0.38h9.22
			c0.22,0,0.39,0.17,0.39,0.38v0.77c0,0.53-0.44,0.96-0.99,0.96c-0.55,0-0.99-0.43-0.99-0.96c0-0.19-0.15-0.34-0.35-0.34
			c-0.19,0-0.35,0.15-0.35,0.34c0,0.53-0.44,0.96-0.99,0.96c-0.55,0-0.99-0.43-0.99-0.96c0-0.19-0.15-0.34-0.35-0.34
			c-0.19,0-0.35,0.15-0.35,0.34c0,0.53-0.44,0.96-0.99,0.96c-0.55,0-0.99-0.43-0.99-0.96c0-0.19-0.15-0.34-0.35-0.34
			c-0.19,0-0.35,0.15-0.35,0.34c0,0.53-0.44,0.96-0.99,0.96c-0.55,0-0.99-0.43-0.99-0.96L23.49,25.3L23.49,25.3z M23.49,29.38h1.18
			c0.19,0,0.35-0.15,0.35-0.34c0-0.19-0.15-0.34-0.35-0.34h-1.18V27.4c0.28,0.2,0.62,0.32,0.99,0.32c0.54,0,1.03-0.25,1.34-0.64
			c0.31,0.39,0.79,0.64,1.34,0.64c0.54,0,1.03-0.25,1.34-0.64c0.31,0.39,0.79,0.64,1.34,0.64c0.54,0,1.03-0.25,1.34-0.64
			c0.31,0.39,0.79,0.64,1.34,0.64c0.37,0,0.71-0.12,0.99-0.32v1.32h-1.18c-0.19,0-0.35,0.15-0.35,0.34c0,0.19,0.15,0.34,0.35,0.34
			h1.18v0.81H23.49V29.38z M34.26,31.69H22.72v-0.79c0-0.01,0.01-0.02,0.02-0.02h11.49c0.01,0,0.02,0.01,0.02,0.02V31.69z
			 M34.26,31.69"/>
		<path class="st0" d="M34.6,32.48H22.38c-0.26,0-0.46-0.2-0.46-0.45v-1.13c0-0.43,0.34-0.78,0.76-0.81V25.3
			c0-0.65,0.54-1.17,1.2-1.17h0.33v-1.42c0-0.43,0.34-0.78,0.76-0.81v-0.29c0-0.25,0.21-0.45,0.46-0.45s0.46,0.2,0.46,0.45v0.29
			c0.43,0.03,0.76,0.38,0.76,0.81v1.42h0.6v-2.16c0-0.43,0.34-0.78,0.76-0.81v-0.29c0-0.25,0.21-0.45,0.46-0.45s0.46,0.2,0.46,0.45
			v0.29c0.43,0.03,0.76,0.38,0.76,0.81v2.16h0.6v-1.42c0-0.43,0.34-0.78,0.76-0.81v-0.29c0-0.25,0.21-0.45,0.46-0.45
			s0.46,0.2,0.46,0.45v0.29c0.43,0.03,0.76,0.38,0.76,0.81v1.42h0.33c0.66,0,1.2,0.53,1.2,1.17v4.78c0.43,0.03,0.76,0.38,0.76,0.81
			v1.13C35.07,32.27,34.86,32.48,34.6,32.48z M22.75,30.31c-0.33,0-0.6,0.26-0.6,0.58v1.13c0,0.12,0.1,0.22,0.23,0.22H34.6
			c0.13,0,0.23-0.1,0.23-0.22v-1.13c0-0.32-0.27-0.58-0.6-0.58h-0.17V25.3c0-0.52-0.43-0.94-0.97-0.94h-0.56v-1.65
			c0-0.32-0.27-0.58-0.6-0.58h-0.17v-0.52c0-0.12-0.1-0.22-0.23-0.22s-0.23,0.1-0.23,0.22v0.52h-0.17c-0.33,0-0.6,0.26-0.6,0.58
			v1.65h-1.07v-2.4c0-0.32-0.27-0.58-0.6-0.58h-0.17v-0.52c0-0.12-0.1-0.22-0.23-0.22s-0.23,0.1-0.23,0.22v0.52H28.1
			c-0.33,0-0.6,0.26-0.6,0.58v2.4h-1.07v-1.65c0-0.32-0.27-0.58-0.6-0.58h-0.17v-0.52c0-0.12-0.1-0.22-0.23-0.22
			s-0.23,0.1-0.23,0.22v0.52h-0.17c-0.33,0-0.6,0.26-0.6,0.58v1.65h-0.56c-0.53,0-0.97,0.42-0.97,0.94v5.01H22.75z M34.38,31.8
			H22.61v-0.91c0-0.08,0.06-0.14,0.14-0.14h11.49c0.08,0,0.14,0.06,0.14,0.14V31.8z M22.84,31.57h11.3v-0.58h-11.3V31.57z
			 M33.61,30.31H23.37v-1.05h1.3c0.13,0,0.23-0.1,0.23-0.22c0-0.12-0.1-0.22-0.23-0.22h-1.3v-1.66l0.19,0.13
			c0.27,0.19,0.59,0.29,0.92,0.29c0.49,0,0.95-0.22,1.25-0.6l0.09-0.12l0.09,0.12c0.3,0.38,0.75,0.6,1.25,0.6
			c0.49,0,0.94-0.22,1.25-0.6l0.09-0.12l0.09,0.12c0.3,0.38,0.75,0.6,1.25,0.6c0.49,0,0.95-0.22,1.25-0.6l0.09-0.12l0.09,0.12
			c0.3,0.38,0.75,0.6,1.25,0.6c0.33,0,0.65-0.1,0.92-0.29l0.19-0.13v1.66h-1.3c-0.13,0-0.23,0.1-0.23,0.22
			c0,0.12,0.1,0.22,0.23,0.22h1.3V30.31z M23.61,30.08h9.77V29.5h-1.06c-0.26,0-0.46-0.2-0.46-0.45c0-0.25,0.21-0.45,0.46-0.45h1.06
			v-0.99c-0.27,0.15-0.56,0.22-0.87,0.22c-0.52,0-1-0.21-1.34-0.58c-0.34,0.37-0.82,0.58-1.34,0.58s-1-0.21-1.34-0.58
			c-0.34,0.37-0.82,0.58-1.34,0.58c-0.52,0-1-0.21-1.34-0.58c-0.34,0.37-0.82,0.58-1.34,0.58c-0.31,0-0.61-0.08-0.87-0.22v0.99h1.06
			c0.26,0,0.46,0.2,0.46,0.45c0,0.25-0.21,0.45-0.46,0.45h-1.06V30.08z M32.5,27.16c-0.61,0-1.11-0.49-1.11-1.08
			c0-0.12-0.1-0.22-0.23-0.22s-0.23,0.1-0.23,0.22c0,0.6-0.5,1.08-1.11,1.08s-1.11-0.49-1.11-1.08c0-0.12-0.1-0.22-0.23-0.22
			s-0.23,0.1-0.23,0.22c0,0.6-0.5,1.08-1.11,1.08c-0.61,0-1.11-0.49-1.11-1.08c0-0.12-0.1-0.22-0.23-0.22s-0.23,0.1-0.23,0.22
			c0,0.6-0.5,1.08-1.11,1.08s-1.11-0.49-1.11-1.08V25.3c0-0.27,0.23-0.5,0.51-0.5h9.22c0.28,0,0.51,0.22,0.51,0.5v0.77
			C33.61,26.67,33.11,27.16,32.5,27.16z M31.17,25.62c0.26,0,0.46,0.2,0.46,0.45c0,0.47,0.39,0.85,0.87,0.85
			c0.48,0,0.87-0.38,0.87-0.85V25.3c0-0.15-0.12-0.26-0.27-0.26h-9.22c-0.15,0-0.27,0.12-0.27,0.26v0.77c0,0.47,0.39,0.85,0.87,0.85
			s0.87-0.38,0.87-0.85c0-0.25,0.21-0.45,0.46-0.45s0.46,0.2,0.46,0.45c0,0.47,0.39,0.85,0.87,0.85c0.48,0,0.87-0.38,0.87-0.85
			c0-0.25,0.21-0.45,0.46-0.45s0.46,0.2,0.46,0.45c0,0.47,0.39,0.85,0.87,0.85s0.87-0.38,0.87-0.85
			C30.7,25.82,30.91,25.62,31.17,25.62z M32.08,24.37h-1.07v-1.65c0-0.08,0.06-0.14,0.14-0.14h0.79c0.08,0,0.14,0.06,0.14,0.14
			V24.37z M31.25,24.13h0.6v-1.32h-0.6V24.13z M29.03,24.37h-1.07v-2.4c0-0.08,0.06-0.14,0.14-0.14h0.79c0.08,0,0.14,0.06,0.14,0.14
			V24.37z M28.19,24.13h0.6v-2.07h-0.6V24.13z M25.97,24.37H24.9v-1.65c0-0.08,0.06-0.14,0.14-0.14h0.79c0.08,0,0.14,0.06,0.14,0.14
			V24.37z M25.13,24.13h0.6v-1.32h-0.6V24.13z"/>
	</g>
	<g>
		
			<rect x="5.05" y="20.53" transform="matrix(-1 -1.224647e-16 1.224647e-16 -1 11.6956 42.661)" class="st0" width="1.6" height="1.6"/>
		
			<rect x="16.37" y="20.53" transform="matrix(-1 -1.224647e-16 1.224647e-16 -1 34.3391 42.661)" class="st0" width="1.6" height="1.6"/>
		
			<rect x="10.71" y="20.53" transform="matrix(-1 -1.224647e-16 1.224647e-16 -1 23.0174 42.661)" class="st0" width="1.6" height="1.6"/>
	</g>
	<g>
		
			<rect x="5.05" y="30.76" transform="matrix(-1 -1.224647e-16 1.224647e-16 -1 11.6956 63.1171)" class="st0" width="1.6" height="1.6"/>
		
			<rect x="16.37" y="30.76" transform="matrix(-1 -1.224647e-16 1.224647e-16 -1 34.3391 63.1171)" class="st0" width="1.6" height="1.6"/>
		
			<rect x="10.71" y="30.76" transform="matrix(-1 -1.224647e-16 1.224647e-16 -1 23.0174 63.1171)" class="st0" width="1.6" height="1.6"/>
	</g>
	<g>
		
			<rect x="5.05" y="25.64" transform="matrix(-1 -1.224647e-16 1.224647e-16 -1 11.6956 52.889)" class="st0" width="1.6" height="1.6"/>
		
			<rect x="16.37" y="25.64" transform="matrix(-1 -1.224647e-16 1.224647e-16 -1 34.3391 52.889)" class="st0" width="1.6" height="1.6"/>
		
			<rect x="10.71" y="25.64" transform="matrix(-1 -1.224647e-16 1.224647e-16 -1 23.0174 52.889)" class="st0" width="1.6" height="1.6"/>
	</g>
	<path class="st0" d="M5.82,0l0.05,0C6.3,0,6.65,0.35,6.65,0.77l0,7.82c0,0.43-0.35,0.77-0.77,0.77H5.82
		c-0.43,0-0.77-0.35-0.77-0.77V0.77C5.05,0.35,5.4,0,5.82,0z"/>
	<path class="st0" d="M34.13,0.01h0.05c0.43,0,0.77,0.35,0.77,0.77v7.82c0,0.43-0.35,0.77-0.77,0.77h-0.05
		c-0.43,0-0.77-0.35-0.77-0.77V0.78C33.35,0.35,33.7,0.01,34.13,0.01z"/>
	<path class="st0" d="M35.63,40H4.37c-2.39,0-4.33-2.02-4.33-4.51V7.6c0-2.49,1.94-4.51,4.33-4.51h31.26c2.39,0,4.33,2.02,4.33,4.51
		v27.88C39.97,37.98,38.02,40,35.63,40z M4.37,4.69c-1.54,0-2.8,1.31-2.8,2.92v27.88c0,1.61,1.26,2.92,2.8,2.92h31.26
		c1.54,0,2.8-1.31,2.8-2.92V7.6c0-1.61-1.26-2.92-2.8-2.92H4.37z"/>
	<path class="st0" d="M19.98,0l0.05,0c0.43,0,0.77,0.35,0.77,0.77V8.6c0,0.43-0.35,0.77-0.77,0.77h-0.05
		c-0.43,0-0.77-0.35-0.77-0.77V0.77C19.2,0.35,19.55,0,19.98,0z"/>
</g>
</svg>
