<?xml version="1.0" encoding="utf-8"?>
<!-- Generator: Adobe Illustrator 25.1.0, SVG Export Plug-In . SVG Version: 6.00 Build 0)  -->
<svg version="1.1" id="Warstwa_1" xmlns="http://www.w3.org/2000/svg" xmlns:xlink="http://www.w3.org/1999/xlink" x="0px" y="0px"
	 viewBox="0 0 40 40" style="enable-background:new 0 0 40 40;" xml:space="preserve">
<style type="text/css">
	.st0{fill:#FFFFFF;}
</style>
<path class="st0" d="M37.93,8.45c-0.02-0.01-17.57-8.37-17.57-8.37c-0.23-0.11-0.49-0.11-0.72,0c0,0-17.55,8.36-17.57,8.37
	c-0.25,0.15-0.4,0.42-0.4,0.71v20c0,0.3,0.16,0.58,0.42,0.72l17.49,10c0,0,0,0,0,0s0,0,0,0l0,0l0,0C19.71,39.96,19.86,40,20,40
	c0.14,0,0.28-0.04,0.41-0.11l17.5-10c0.26-0.15,0.42-0.42,0.42-0.72v-20C38.33,8.88,38.18,8.6,37.93,8.45z M20,1.76l6.6,3.14
	L20,8.04L13.4,4.9L20,1.76z M10,32.49l-6.67-3.81v-8.14L10,24.04V32.49z M10,22.15l-6.67-3.49v-8.12L10,14.04V22.15z M4.36,9.2
	l7.09-3.38l6.6,3.14l-7.41,3.53L4.36,9.2z M19.17,37.73l-7.5-4.29v-8.54l7.5,3.93V37.73z M19.17,26.96l-7.5-3.93v-8.12l7.5,3.93
	V26.96z M20,17.39l-7.5-3.93L20,9.89l7.5,3.57L20,17.39z M28.33,23.03l-7.5,3.93v-8.12l7.5-3.93V23.03z M20.83,28.84l7.5-3.93v8.54
	l-7.5,4.29V28.84z M21.94,8.97l6.6-3.14l7.09,3.38l-6.29,3.29L21.94,8.97z M36.67,28.68L30,32.49v-8.46l6.67-3.49V28.68z
	 M36.67,18.66L30,22.15v-8.12l6.67-3.49V18.66z"/>
</svg>
