<?xml version="1.0" encoding="utf-8"?>
<!-- Generator: Adobe Illustrator 25.1.0, SVG Export Plug-In . SVG Version: 6.00 Build 0)  -->
<svg version="1.1" id="Warstwa_1" xmlns="http://www.w3.org/2000/svg" xmlns:xlink="http://www.w3.org/1999/xlink" x="0px" y="0px"
	 viewBox="0 0 40 40" style="enable-background:new 0 0 40 40;" xml:space="preserve">
<style type="text/css">
	.st0{fill:#FFFFFF;}
	.st1{fill:#FFFFFF;stroke:#FFFFFF;stroke-width:0.2352;stroke-miterlimit:10;}
</style>
<g>
	<path class="st0" d="M15.26,13.68L15.26,13.68c-0.44,0-0.8-0.36-0.8-0.8V8.66c0-0.44,0.36-0.8,0.8-0.8h0c0.44,0,0.8,0.36,0.8,0.8
		v4.23C16.06,13.32,15.71,13.68,15.26,13.68z"/>
	<path class="st0" d="M35.85,13.68L35.85,13.68c-0.44,0-0.8-0.36-0.8-0.8V8.66c0-0.44,0.36-0.8,0.8-0.8h0c0.44,0,0.8,0.36,0.8,0.8
		v4.23C36.65,13.32,36.29,13.68,35.85,13.68z"/>
	<g>
		<path class="st0" d="M0.42,9.7V9.44c0-0.37,0.3-0.67,0.67-0.67h38.25c0.37,0,0.67,0.3,0.67,0.67V9.7c0,0.37-0.3,0.67-0.67,0.67
			H1.09C0.72,10.37,0.42,10.07,0.42,9.7z"/>
		<path class="st0" d="M0.8,14.75L0.8,14.75c-0.44,0-0.8-0.36-0.8-0.8l0-8.75c0-0.44,0.36-0.8,0.8-0.8h0c0.44,0,0.8,0.36,0.8,0.8
			v8.75C1.6,14.39,1.24,14.75,0.8,14.75z"/>
	</g>
	<g>
		<g>
			<g>
				<path class="st1" d="M28.3,26.58h-1.19l-0.64-1.56H24.6l-0.63,1.56H22.8l2.34-5.43h0.8L28.3,26.58z M26.08,24.11l-0.54-1.27
					L25,24.11H26.08z"/>
			</g>
			<path class="st1" d="M30.07,21.31l-0.88,0.56c0.41,0.66,0.65,1.44,0.65,2.28c0,2.37-1.93,4.29-4.29,4.29
				c-2.37,0-4.29-1.93-4.29-4.29c0-2.37,1.93-4.29,4.29-4.29c0.81,0,1.58,0.23,2.22,0.62l0.54-0.89c-0.81-0.49-1.75-0.78-2.77-0.78
				c-2.94,0-5.33,2.39-5.33,5.33c0,2.94,2.39,5.33,5.33,5.33c2.94,0,5.33-2.39,5.33-5.33C30.89,23.1,30.59,22.13,30.07,21.31z"/>
		</g>
		<path class="st0" d="M38.26,12.67H8.83c-0.96,0-1.74,0.79-1.74,1.77v19.39c0,0.98,0.78,1.77,1.74,1.77h29.43
			c0.96,0,1.74-0.79,1.74-1.77V14.44C40,13.47,39.22,12.67,38.26,12.67z M8.66,33.83V14.44c0-0.09,0.08-0.17,0.17-0.17h2.25v19.74
			H8.83C8.74,34.01,8.66,33.93,8.66,33.83z M38.43,33.83c0,0.1-0.08,0.17-0.17,0.17H12.68V14.27h25.58c0.1,0,0.17,0.08,0.17,0.17
			V33.83z"/>
	</g>
</g>
</svg>
