<?xml version="1.0" encoding="utf-8"?>
<!-- Generator: Adobe Illustrator 25.1.0, SVG Export Plug-In . SVG Version: 6.00 Build 0)  -->
<svg version="1.1" id="Warstwa_1" xmlns="http://www.w3.org/2000/svg" xmlns:xlink="http://www.w3.org/1999/xlink" x="0px" y="0px"
	 viewBox="0 0 40 40" style="enable-background:new 0 0 40 40;" xml:space="preserve">
<style type="text/css">
	.st0{fill:#FFFFFF;}
</style>
<g>
	<g>
		<path class="st0" d="M28.71,27.58l-3.49,8.1h1.75l0.95-2.33h2.78l0.96,2.33h1.78l-3.52-8.1H28.71z M28.51,32l0.81-1.89L30.13,32
			H28.51z"/>
		<path class="st0" d="M36.08,27.81l-1.31,0.83c0.62,0.99,0.98,2.15,0.98,3.4c0,3.53-2.87,6.41-6.41,6.41
			c-3.53,0-6.41-2.87-6.41-6.41c0-3.53,2.87-6.41,6.41-6.41c1.21,0,2.35,0.34,3.32,0.93l0.81-1.32c-0.93-0.57-2-0.94-3.13-1.09V6.91
			c0-0.02-0.01-0.04-0.01-0.07c0-0.05-0.02-0.09-0.03-0.13c-0.02-0.06-0.03-0.11-0.06-0.16c-0.02-0.04-0.04-0.09-0.08-0.13
			c-0.01-0.01-0.59-0.78-0.59-2.58c0-1.8,0.58-2.57,0.58-2.57c0.2-0.23,0.24-0.55,0.12-0.82C30.15,0.17,29.87,0,29.58,0H6.54
			C4.42,0,2.7,1.72,2.7,3.84v29.18c0,2.12,1.72,3.84,3.84,3.84h16.49c1.46,1.9,3.74,3.14,6.32,3.14c4.39,0,7.96-3.57,7.96-7.96
			C37.3,30.49,36.85,29.04,36.08,27.81z M6.54,1.54h21.82c-0.13,0.41-0.24,0.92-0.29,1.54c-0.01,0-0.02-0.01-0.03-0.01H6.54
			c-0.42,0-0.77,0.34-0.77,0.77c0,0.42,0.34,0.77,0.77,0.77h21.5c0.01,0,0.02-0.01,0.03-0.01c0.05,0.62,0.16,1.14,0.29,1.54H6.54
			c-1.27,0-2.3-1.03-2.3-2.3C4.23,2.57,5.27,1.54,6.54,1.54z M6.54,35.32c-1.27,0-2.3-1.03-2.3-2.3V6.89
			c0.64,0.49,1.44,0.79,2.3,0.79h22.27v16.43c-4.14,0.28-7.42,3.72-7.42,7.93c0,1.17,0.26,2.28,0.72,3.28H6.54z"/>
	</g>
	<path class="st0" d="M22.9,19.72H10.14v-7.3H22.9V19.72z M11.74,18.13h9.56v-4.11h-9.56V18.13z"/>
</g>
</svg>
