<?xml version="1.0" encoding="utf-8"?>
<!-- Generator: Adobe Illustrator 25.1.0, SVG Export Plug-In . SVG Version: 6.00 Build 0)  -->
<svg version="1.1" id="Warstwa_1" xmlns="http://www.w3.org/2000/svg" xmlns:xlink="http://www.w3.org/1999/xlink" x="0px" y="0px"
	 viewBox="0 0 40 40" style="enable-background:new 0 0 40 40;" xml:space="preserve">
<style type="text/css">
	.st0{fill:#FFFFFF;}
</style>
<g>
	<path class="st0" d="M12.33,38.25C5.53,38.25,0,32.72,0,25.93S5.53,13.6,12.33,13.6s12.33,5.53,12.33,12.33
		S19.12,38.25,12.33,38.25z M12.33,15.15c-5.94,0-10.77,4.83-10.77,10.77S6.39,36.7,12.33,36.7S23.1,31.87,23.1,25.93
		S18.27,15.15,12.33,15.15z"/>
	<path class="st0" d="M27.67,38.25c-6.8,0-12.33-5.53-12.33-12.33S20.88,13.6,27.67,13.6S40,19.13,40,25.93S34.47,38.25,27.67,38.25
		z M27.67,15.15c-5.94,0-10.77,4.83-10.77,10.77S21.73,36.7,27.67,36.7s10.77-4.83,10.77-10.77S33.61,15.15,27.67,15.15z"/>
	<path class="st0" d="M19.68,26.4c-6.8,0-12.33-5.53-12.33-12.33S12.89,1.75,19.68,1.75s12.33,5.53,12.33,12.33
		S26.48,26.4,19.68,26.4z M19.68,3.3c-5.94,0-10.77,4.83-10.77,10.77s4.83,10.77,10.77,10.77s10.77-4.83,10.77-10.77
		S25.62,3.3,19.68,3.3z"/>
</g>
</svg>
