<?xml version="1.0" encoding="utf-8"?>
<!-- Generator: Adobe Illustrator 25.1.0, SVG Export Plug-In . SVG Version: 6.00 Build 0)  -->
<svg version="1.1" id="Warstwa_1" xmlns="http://www.w3.org/2000/svg" xmlns:xlink="http://www.w3.org/1999/xlink" x="0px" y="0px"
	 viewBox="0 0 40 40" style="enable-background:new 0 0 40 40;" xml:space="preserve">
<style type="text/css">
	.st0{fill:#FFFFFF;}
</style>
<g>
	<g>
		<g>
			<path class="st0" d="M24.99,24.44h-2.17l-1.17-2.85h-3.39l-1.16,2.85h-2.14l4.26-9.88h1.47L24.99,24.44z M20.96,19.95l-0.99-2.31
				l-0.99,2.31H20.96z"/>
		</g>
		<path class="st0" d="M28.22,14.84l-1.6,1.02c0.75,1.2,1.19,2.62,1.19,4.14c0,4.31-3.51,7.82-7.82,7.82
			c-4.31,0-7.82-3.51-7.82-7.82c0-4.31,3.51-7.82,7.82-7.82c1.48,0,2.87,0.41,4.05,1.13l0.99-1.62c-1.47-0.9-3.2-1.41-5.04-1.41
			c-5.36,0-9.71,4.36-9.71,9.71c0,5.36,4.36,9.71,9.71,9.71c5.36,0,9.71-4.36,9.71-9.71C29.71,18.1,29.17,16.33,28.22,14.84z"/>
	</g>
	<g>
		<rect y="8.69" class="st0" width="40" height="1.6"/>
		<rect y="29.71" class="st0" width="40" height="1.6"/>
	</g>
	<g>
		
			<rect x="10.51" y="19.2" transform="matrix(-1.836970e-16 1 -1 -1.836970e-16 50.5135 -10.5136)" class="st0" width="40" height="1.6"/>
		
			<rect x="-10.51" y="19.2" transform="matrix(-1.836970e-16 1 -1 -1.836970e-16 29.4864 10.5136)" class="st0" width="40" height="1.6"/>
	</g>
</g>
</svg>
