<?xml version="1.0" encoding="utf-8"?>
<!-- Generator: Adobe Illustrator 25.1.0, SVG Export Plug-In . SVG Version: 6.00 Build 0)  -->
<svg version="1.1" id="Warstwa_1" xmlns="http://www.w3.org/2000/svg" xmlns:xlink="http://www.w3.org/1999/xlink" x="0px" y="0px"
	 viewBox="0 0 40 40" style="enable-background:new 0 0 40 40;" xml:space="preserve">
<style type="text/css">
	.st0{fill:#FFFFFF;}
</style>
<path class="st0" d="M39.2,22.4h-11.5l5.82-11.64c0.12-0.25,0.11-0.54-0.04-0.78C33.33,9.74,33.08,9.6,32.8,9.6h-9.6
	c-0.19,0.02-0.37,0.08-0.52,0.19l-5.36,4.56L7.8,3.47C7.64,3.29,7.4,3.18,7.15,3.2C6.9,3.22,6.67,3.35,6.53,3.55l-6.4,9.6
	c-0.17,0.26-0.18,0.6-0.02,0.86c0.16,0.27,0.47,0.41,0.78,0.37l5.98-0.74L8,36.04c0.03,0.43,0.37,0.76,0.8,0.76h11.3
	c0.16,0,0.31-0.05,0.45-0.14l19.1-12.8c0.29-0.2,0.42-0.56,0.32-0.9C39.86,22.63,39.55,22.4,39.2,22.4L39.2,22.4z M21.37,31.46
	l2.53-20.26h7.6L21.37,31.46z M22.15,12.35l-2.73,21.85L9.31,23.27L22.15,12.35z M13.94,30.63l-4.42,3.72l-0.45-8.99L13.94,30.63z
	 M15.03,31.8l3.14,3.4h-7.18L15.03,31.8z M16.1,15.39l-7.22,6.15L8.12,6.26L16.1,15.39z M2.44,12.59l4.09-6.13
	c0,0.08,0.29,5.75,0.28,5.59L2.44,12.59z M22.02,33.75L26.89,24h9.68L22.02,33.75z M22.02,33.75"/>
</svg>
