<?xml version="1.0" encoding="utf-8"?>
<!-- Generator: Adobe Illustrator 25.1.0, SVG Export Plug-In . SVG Version: 6.00 Build 0)  -->
<svg version="1.1" id="Warstwa_1" xmlns="http://www.w3.org/2000/svg" xmlns:xlink="http://www.w3.org/1999/xlink" x="0px" y="0px"
	 viewBox="0 0 40 40" style="enable-background:new 0 0 40 40;" xml:space="preserve">
<style type="text/css">
	.st0{fill:#FFFFFF;stroke:#FFFFFF;stroke-width:0.2293;stroke-miterlimit:10;}
</style>
<g>
	<path class="st0" d="M38.97,26.93l-0.81-0.16c-0.35-0.06-0.62-0.29-0.75-0.62c-0.13-0.33-0.08-0.68,0.12-0.96l0.51-0.69
		c0.19-0.26,0.17-0.62-0.06-0.85l-1.1-1.1c-0.22-0.22-0.57-0.26-0.83-0.08l-0.69,0.46c-0.29,0.2-0.64,0.23-0.97,0.09
		c-0.32-0.14-0.54-0.42-0.59-0.77l-0.13-0.85c-0.04-0.27-0.24-0.47-0.49-0.53V5.05c0-0.36-0.29-0.66-0.65-0.66H1.16
		C0.79,4.4,0.5,4.69,0.5,5.05V29.7c0,0.36,0.29,0.66,0.66,0.66h12.51h1.49h11.39c0.09,0,0.18-0.02,0.26-0.05
		c0.04,0.06,0.08,0.12,0.12,0.19c0.14,0.32,0.11,0.68-0.09,0.97l-0.46,0.68c-0.18,0.26-0.14,0.61,0.08,0.83l1.1,1.1
		c0.23,0.23,0.59,0.26,0.85,0.06l0.69-0.51c0.29-0.21,0.64-0.25,0.96-0.12c0.33,0.13,0.55,0.4,0.62,0.75l0.16,0.81
		c0.06,0.31,0.33,0.53,0.64,0.53h1.55c0.32,0,0.6-0.24,0.65-0.55l0.09-0.6c0.06-0.35,0.28-0.64,0.61-0.78
		c0.33-0.14,0.7-0.09,0.98,0.12l0.49,0.36c0.27,0.19,0.62,0.17,0.85-0.07l1.1-1.1c0.22-0.22,0.26-0.57,0.08-0.83l-0.46-0.68
		c-0.2-0.29-0.23-0.65-0.09-0.97c0.14-0.32,0.42-0.54,0.77-0.59l0.85-0.13c0.32-0.05,0.56-0.33,0.56-0.65v-1.55
		C39.5,27.26,39.28,26.99,38.97,26.93z M30.2,18.62c-0.01-0.01-0.02-0.03-0.03-0.04l-6.72-6.16c-0.13-0.12-0.29-0.17-0.47-0.17
		c-0.18,0.01-0.34,0.09-0.45,0.21l-5.42,5.94l-2.59-2.59c-0.24-0.24-0.64-0.26-0.9-0.03l-9.16,8.07l-2.64,2.31V5.71h30.06v14.43
		L30.2,18.62z M36.12,29.98c-0.32,0.73-0.25,1.57,0.21,2.23l0.16,0.23l-0.32,0.32l-0.03-0.02c-0.66-0.48-1.5-0.59-2.26-0.27
		c-0.75,0.31-1.28,0.98-1.41,1.79l-0.01,0.04h-0.45l-0.05-0.28c-0.15-0.78-0.69-1.43-1.43-1.72c-0.75-0.29-1.58-0.18-2.22,0.29
		l-0.24,0.17l-0.32-0.32l0.16-0.23c0.45-0.66,0.53-1.5,0.21-2.23c-0.32-0.73-0.98-1.24-1.77-1.37l-0.29-0.04v-0.45l0.28-0.05
		c0.78-0.15,1.43-0.69,1.72-1.43c0.29-0.75,0.18-1.58-0.29-2.22l-0.17-0.24l0.32-0.32l0.43,0.29c0.64,0.44,1.46,0.52,2.19,0.22
		c0.72-0.3,1.24-0.94,1.39-1.71l0.1-0.51h0.45l0.05,0.29c0.12,0.79,0.63,1.45,1.36,1.77c0.73,0.32,1.57,0.25,2.23-0.21l0.23-0.16
		l0.32,0.32l-0.18,0.24c-0.47,0.64-0.58,1.47-0.29,2.22c0.29,0.75,0.94,1.28,1.72,1.43l0.28,0.05v0.45l-0.29,0.05
		C37.1,28.74,36.44,29.25,36.12,29.98z M13.67,29.04c0,0-0.01,0-0.01,0H1.81V27.9l3.14-2.75c0,0,0,0,0,0l0.09-0.08l1.19-1.04
		c0.01,0,0.01-0.01,0.01-0.02l7.78-6.85l4.04,4.04c0.26,0.25,0.67,0.25,0.93,0c0.12-0.12,0.19-0.29,0.19-0.46
		c0-0.18-0.07-0.34-0.19-0.46l-0.96-0.96l5.02-5.49l5.84,5.36c0.01,0.02,0.02,0.04,0.04,0.05l2.05,1.87
		c-0.07,0.08-0.12,0.17-0.14,0.28l-0.2,1.04c-0.06,0.34-0.29,0.61-0.6,0.74c-0.32,0.13-0.66,0.1-0.95-0.1l-0.88-0.59
		c-0.26-0.18-0.61-0.14-0.83,0.08l-1.1,1.1c-0.23,0.23-0.26,0.59-0.07,0.85l0.51,0.7c0.21,0.28,0.25,0.64,0.12,0.96
		c-0.13,0.33-0.4,0.56-0.75,0.62l-0.81,0.15c-0.31,0.06-0.53,0.33-0.53,0.64v1.47H13.67z"/>
	<path class="st0" d="M32.12,25.42c-1.54,0-2.8,1.26-2.8,2.8c0,1.54,1.26,2.8,2.8,2.8c1.55,0,2.8-1.26,2.8-2.8
		C34.92,26.68,33.67,25.42,32.12,25.42z M32.12,29.9c-0.93,0-1.68-0.75-1.68-1.68c0-0.93,0.75-1.68,1.68-1.68
		c0.93,0,1.68,0.76,1.68,1.68C33.8,29.15,33.05,29.9,32.12,29.9z"/>
	<path class="st0" d="M9.56,8.88c-1.77,0-3.22,1.44-3.22,3.22c0,1.77,1.44,3.21,3.22,3.21c1.77,0,3.21-1.44,3.21-3.21
		C12.77,10.32,11.33,8.88,9.56,8.88z M11.46,12.09c0,1.05-0.85,1.9-1.9,1.9s-1.9-0.85-1.9-1.9c0-1.05,0.85-1.9,1.9-1.9
		S11.46,11.04,11.46,12.09z"/>
</g>
</svg>
