<?xml version="1.0" encoding="utf-8"?>
<!-- Generator: Adobe Illustrator 25.1.0, SVG Export Plug-In . SVG Version: 6.00 Build 0)  -->
<svg version="1.1" id="Warstwa_1" xmlns="http://www.w3.org/2000/svg" xmlns:xlink="http://www.w3.org/1999/xlink" x="0px" y="0px"
	 viewBox="0 0 40 40" style="enable-background:new 0 0 40 40;" xml:space="preserve">
<style type="text/css">
	.st0{fill:#FFFFFF;}
</style>
<g>
	<path class="st0" d="M40,13.69c0-0.21-0.08-0.41-0.23-0.55L38,11.37l1.77-1.77C39.92,9.46,40,9.26,40,9.05
		c0-0.21-0.08-0.41-0.23-0.55l-2.32-2.32c-0.15-0.15-0.35-0.23-0.55-0.23s-0.41,0.08-0.55,0.23l-1.77,1.77l-1.77-1.77c0,0,0,0,0,0
		l-0.75-0.75l1.77-1.77c0.15-0.15,0.23-0.35,0.23-0.55c0-0.21-0.08-0.41-0.23-0.55L31.5,0.23C31.36,0.08,31.16,0,30.95,0
		s-0.41,0.08-0.55,0.23L28.63,2l-1.77-1.77C26.71,0.08,26.52,0,26.31,0c-0.21,0-0.41,0.08-0.55,0.23L23.99,2l-1.77-1.77
		C22.07,0.08,21.87,0,21.67,0c-0.21,0-0.41,0.08-0.55,0.23L19.35,2l-1.77-1.77C17.43,0.08,17.23,0,17.03,0
		c-0.21,0-0.41,0.08-0.55,0.23L14.71,2l-1.77-1.77C12.79,0.08,12.59,0,12.38,0c-0.21,0-0.41,0.08-0.55,0.23L10.06,2L8.3,0.23
		C8.15,0.08,7.95,0,7.74,0C7.54,0,7.34,0.08,7.19,0.23L5.42,2L3.65,0.23C3.51,0.08,3.31,0,3.1,0C2.89,0,2.7,0.08,2.55,0.23
		L0.23,2.55C0.08,2.7,0,2.89,0,3.1c0,0.21,0.08,0.41,0.23,0.55L2,5.42L0.23,7.19C0.08,7.34,0,7.54,0,7.74C0,7.95,0.08,8.15,0.23,8.3
		L2,10.06l-1.77,1.77C0.08,11.98,0,12.18,0,12.38c0,0.21,0.08,0.41,0.23,0.55L2,14.71l-1.77,1.77c-0.31,0.31-0.31,0.8,0,1.11
		L2,19.35l-1.77,1.77C0.08,21.26,0,21.46,0,21.67c0,0.21,0.08,0.41,0.23,0.55L2,23.99l-1.77,1.77C0.08,25.9,0,26.1,0,26.31
		c0,0.21,0.08,0.41,0.23,0.55L2,28.63L0.23,30.4C0.08,30.54,0,30.74,0,30.95c0,0.21,0.08,0.41,0.23,0.55l2.32,2.32
		c0.15,0.15,0.35,0.23,0.55,0.23c0.21,0,0.41-0.08,0.55-0.23l1.77-1.77l1.77,1.77c0,0,0,0,0,0l0.75,0.75l-1.77,1.77
		c-0.15,0.15-0.23,0.35-0.23,0.55c0,0.21,0.08,0.41,0.23,0.55l2.32,2.32C8.64,39.92,8.84,40,9.05,40c0.21,0,0.41-0.08,0.55-0.23
		L11.37,38l1.77,1.77c0.15,0.15,0.35,0.23,0.55,0.23c0.21,0,0.41-0.08,0.55-0.23L16.01,38l1.77,1.77c0.15,0.15,0.35,0.23,0.55,0.23
		c0.21,0,0.41-0.08,0.55-0.23L20.65,38l1.77,1.77c0.15,0.15,0.35,0.23,0.55,0.23c0.21,0,0.41-0.08,0.55-0.23L25.29,38l1.77,1.77
		c0.15,0.15,0.35,0.23,0.55,0.23c0.21,0,0.41-0.08,0.55-0.23L29.94,38l1.77,1.77c0.15,0.15,0.35,0.23,0.55,0.23
		c0.21,0,0.41-0.08,0.55-0.23L34.58,38l1.77,1.77C36.49,39.92,36.69,40,36.9,40c0.21,0,0.41-0.08,0.55-0.23l2.32-2.32
		C39.92,37.3,40,37.11,40,36.9c0-0.21-0.08-0.41-0.23-0.55L38,34.58l1.77-1.77c0.15-0.15,0.23-0.35,0.23-0.55
		c0-0.21-0.08-0.41-0.23-0.55L38,29.94l1.77-1.77c0.15-0.15,0.23-0.35,0.23-0.55c0-0.21-0.08-0.41-0.23-0.55L38,25.29l1.77-1.77
		c0.3-0.31,0.3-0.8,0-1.11L38,20.65l1.77-1.77c0.15-0.15,0.23-0.35,0.23-0.55c0-0.21-0.08-0.41-0.23-0.55L38,16.01l1.77-1.77
		C39.92,14.1,40,13.9,40,13.69L40,13.69z M4.87,30.4L3.1,32.17l-1.22-1.22l1.77-1.77c0.15-0.15,0.23-0.35,0.23-0.55
		c0-0.21-0.08-0.41-0.23-0.55l-1.77-1.77l1.77-1.77c0.15-0.15,0.23-0.35,0.23-0.55c0-0.21-0.08-0.41-0.23-0.55l-1.77-1.77l1.77-1.77
		c0.15-0.15,0.23-0.35,0.23-0.55c0-0.21-0.08-0.41-0.23-0.55l-0.99-0.99h3.87c0.43,0,0.78-0.35,0.78-0.78
		c0-0.43-0.35-0.78-0.78-0.78H2.67l0.99-0.99c0.15-0.15,0.23-0.35,0.23-0.55c0-0.21-0.08-0.41-0.23-0.55l-1.77-1.77l1.77-1.77
		c0.15-0.15,0.23-0.35,0.23-0.55c0-0.21-0.08-0.41-0.23-0.55L1.89,7.74l1.77-1.77C3.8,5.83,3.88,5.63,3.88,5.42
		c0-0.21-0.08-0.41-0.23-0.55L1.89,3.1L3.1,1.89l1.77,1.77C5.02,3.8,5.22,3.88,5.42,3.88c0.21,0,0.41-0.08,0.55-0.23l1.77-1.77
		l1.77,1.77c0.15,0.15,0.35,0.23,0.55,0.23c0.21,0,0.41-0.08,0.55-0.23l1.77-1.77l1.77,1.77c0.15,0.15,0.35,0.23,0.55,0.23
		c0.21,0,0.41-0.08,0.55-0.23l1.77-1.77l1.77,1.77c0.15,0.15,0.35,0.23,0.55,0.23c0.21,0,0.41-0.08,0.55-0.23l1.77-1.77l1.77,1.77
		c0.15,0.15,0.35,0.23,0.55,0.23s0.41-0.08,0.55-0.23l1.77-1.77l1.77,1.77c0.15,0.15,0.35,0.23,0.55,0.23
		c0.21,0,0.41-0.08,0.55-0.23l1.77-1.77l1.22,1.22L30.4,4.87c-0.15,0.15-0.23,0.35-0.23,0.55c0,0.21,0.08,0.41,0.23,0.55l1.77,1.77
		L30.4,9.51c-0.15,0.15-0.23,0.35-0.23,0.55c0,0.21,0.08,0.41,0.23,0.55l1.77,1.77l-1.77,1.77c-0.15,0.15-0.23,0.35-0.23,0.55
		c0,0.21,0.08,0.41,0.23,0.55l1.77,1.77l-1.77,1.77c-0.15,0.15-0.23,0.35-0.23,0.55c0,0.21,0.08,0.41,0.23,0.55l1.77,1.77
		l-1.77,1.77c-0.15,0.15-0.23,0.35-0.23,0.55c0,0.21,0.08,0.41,0.23,0.55l1.77,1.77l-1.77,1.77c-0.15,0.15-0.23,0.35-0.23,0.55
		c0,0.21,0.08,0.41,0.23,0.55l1.77,1.77l-1.22,1.22l-1.77-1.77c-0.15-0.15-0.35-0.23-0.55-0.23c-0.21,0-0.41,0.08-0.55,0.23
		l-1.77,1.77l-1.77-1.77c-0.15-0.15-0.35-0.23-0.55-0.23c-0.21,0-0.41,0.08-0.55,0.23l-1.77,1.77L19.9,30.4
		c-0.15-0.15-0.35-0.23-0.55-0.23c-0.21,0-0.41,0.08-0.55,0.23l-1.77,1.77l-1.77-1.77c-0.15-0.15-0.35-0.23-0.55-0.23
		c-0.21,0-0.41,0.08-0.55,0.23l-1.77,1.77l-1.77-1.77c-0.15-0.15-0.35-0.23-0.55-0.23c-0.21,0-0.41,0.08-0.55,0.23l-1.77,1.77
		L7.28,31.7h0L5.98,30.4c-0.15-0.15-0.35-0.23-0.55-0.23C5.22,30.17,5.02,30.25,4.87,30.4L4.87,30.4z M36.35,15.46
		c-0.15,0.15-0.23,0.35-0.23,0.55c0,0.21,0.08,0.41,0.23,0.55l1.77,1.77l-1.77,1.77c-0.15,0.15-0.23,0.35-0.23,0.55
		c0,0.21,0.08,0.41,0.23,0.55l1.77,1.77l-1.77,1.77c-0.15,0.15-0.23,0.35-0.23,0.55c0,0.21,0.08,0.41,0.23,0.55l1.77,1.77
		l-1.77,1.77c-0.15,0.15-0.23,0.35-0.23,0.55c0,0.21,0.08,0.41,0.23,0.55l1.77,1.77l-1.77,1.77c-0.15,0.15-0.23,0.35-0.23,0.55
		s0.08,0.41,0.23,0.55l1.77,1.77l-1.22,1.22l-1.77-1.77c-0.15-0.15-0.35-0.23-0.55-0.23c-0.21,0-0.41,0.08-0.55,0.23l-1.77,1.77
		l-1.77-1.77c-0.15-0.15-0.35-0.23-0.55-0.23c-0.21,0-0.41,0.08-0.55,0.23l-1.77,1.77l-1.77-1.77c-0.15-0.15-0.35-0.23-0.55-0.23
		c-0.21,0-0.41,0.08-0.55,0.23l-1.77,1.77l-1.77-1.77c-0.15-0.15-0.35-0.23-0.55-0.23c-0.21,0-0.41,0.08-0.55,0.23l-1.77,1.77
		l-1.77-1.77c-0.15-0.15-0.35-0.23-0.55-0.23c-0.21,0-0.41,0.08-0.55,0.23l-1.77,1.77l-1.77-1.77c-0.15-0.15-0.35-0.23-0.55-0.23
		c-0.21,0-0.41,0.08-0.55,0.23l-1.77,1.77L7.83,36.9l1.77-1.77c0.15-0.15,0.23-0.35,0.23-0.55s-0.08-0.41-0.23-0.55l-0.75-0.75
		l1.22-1.22l1.77,1.77c0.15,0.15,0.35,0.23,0.55,0.23c0.21,0,0.41-0.08,0.55-0.23l1.77-1.77l1.77,1.77
		c0.15,0.15,0.35,0.23,0.55,0.23c0.21,0,0.41-0.08,0.55-0.23l1.77-1.77l1.77,1.77c0.15,0.15,0.35,0.23,0.55,0.23
		c0.21,0,0.41-0.08,0.55-0.23l1.77-1.77l1.77,1.77c0.15,0.15,0.35,0.23,0.55,0.23c0.21,0,0.41-0.08,0.55-0.23l1.77-1.77l1.77,1.77
		c0.15,0.15,0.35,0.23,0.55,0.23s0.41-0.08,0.55-0.23l2.32-2.32c0.15-0.15,0.23-0.35,0.23-0.55c0-0.21-0.08-0.41-0.23-0.55
		l-1.77-1.77l1.77-1.77c0.15-0.15,0.23-0.35,0.23-0.55c0-0.21-0.08-0.41-0.23-0.55l-1.77-1.77l1.77-1.77
		c0.15-0.15,0.23-0.35,0.23-0.55c0-0.21-0.08-0.41-0.23-0.55l-1.77-1.77l1.77-1.77c0.31-0.31,0.31-0.8,0-1.11l-1.77-1.77l1.77-1.77
		c0.15-0.15,0.23-0.35,0.23-0.55c0-0.21-0.08-0.41-0.23-0.55l-1.77-1.77l1.22-1.22l0.75,0.75c0.15,0.15,0.35,0.23,0.55,0.23
		c0.21,0,0.41-0.08,0.55-0.23l1.77-1.77l1.22,1.22l-1.77,1.77c-0.15,0.15-0.23,0.35-0.23,0.55c0,0.21,0.08,0.41,0.23,0.55l1.77,1.77
		L36.35,15.46z M36.35,15.46"/>
	<path class="st0" d="M9.59,14.01c0.75,0,1.43-0.4,1.85-1.06c0.78-0.03,1.46-0.42,1.84-1.08c0.38-0.65,0.37-1.44,0.01-2.13
		c0.36-0.69,0.36-1.48-0.01-2.13c-0.38-0.65-1.06-1.04-1.84-1.08c-0.42-0.66-1.1-1.06-1.85-1.06c-0.75,0-1.43,0.4-1.85,1.06
		C6.96,6.57,6.28,6.96,5.9,7.61C5.52,8.27,5.53,9.06,5.89,9.75c-0.36,0.69-0.36,1.48,0.01,2.13c0.38,0.65,1.06,1.04,1.84,1.08
		C8.16,13.61,8.84,14.01,9.59,14.01L9.59,14.01z M7.25,11.1c-0.13-0.23-0.07-0.57,0.17-0.84c0.25-0.29,0.25-0.73,0-1.02
		C7.19,8.97,7.12,8.63,7.25,8.4c0.13-0.23,0.46-0.34,0.81-0.28c0.38,0.07,0.76-0.14,0.89-0.51c0.12-0.34,0.38-0.56,0.64-0.56
		c0.27,0,0.53,0.23,0.64,0.56c0.13,0.37,0.5,0.58,0.88,0.51c0.35-0.07,0.68,0.04,0.81,0.28c0.13,0.23,0.07,0.57-0.16,0.84
		c-0.25,0.29-0.25,0.73,0,1.02c0.23,0.27,0.3,0.61,0.17,0.84c-0.13,0.23-0.46,0.34-0.81,0.28c-0.38-0.07-0.76,0.14-0.89,0.51
		c-0.12,0.34-0.38,0.56-0.64,0.56c-0.27,0-0.53-0.23-0.64-0.56c-0.11-0.32-0.41-0.52-0.74-0.52c-0.05,0-0.1,0-0.15,0.01
		C7.71,11.44,7.39,11.33,7.25,11.1L7.25,11.1z M7.25,11.1"/>
	<path class="st0" d="M9.58,10.53c0.21,0,0.41-0.08,0.55-0.23c0.15-0.15,0.23-0.35,0.23-0.55c0-0.21-0.08-0.41-0.23-0.55
		C9.99,9.05,9.79,8.96,9.58,8.96c-0.21,0-0.41,0.08-0.55,0.23C8.88,9.34,8.8,9.54,8.8,9.75c0,0.21,0.08,0.41,0.23,0.55
		C9.18,10.44,9.38,10.53,9.58,10.53L9.58,10.53z M9.58,10.53"/>
	<path class="st0" d="M20.75,11.88c0.38,0.65,1.06,1.04,1.84,1.08c0.42,0.66,1.1,1.06,1.85,1.06c0.75,0,1.43-0.4,1.85-1.06
		c0.78-0.03,1.46-0.42,1.84-1.08c0.38-0.65,0.37-1.44,0.01-2.13c0.36-0.69,0.36-1.48-0.01-2.13c-0.38-0.65-1.06-1.04-1.84-1.08
		c-0.42-0.66-1.1-1.06-1.85-1.06c-0.75,0-1.43,0.4-1.85,1.06c-0.78,0.03-1.46,0.42-1.84,1.08c-0.38,0.65-0.37,1.44-0.01,2.13
		C20.38,10.44,20.37,11.23,20.75,11.88L20.75,11.88z M22.27,9.23c-0.23-0.27-0.3-0.61-0.16-0.84c0.13-0.23,0.46-0.34,0.81-0.28
		c0.38,0.07,0.76-0.14,0.89-0.51c0.12-0.34,0.38-0.56,0.64-0.56c0.27,0,0.53,0.23,0.64,0.56c0.13,0.37,0.5,0.58,0.89,0.51
		c0.35-0.07,0.68,0.04,0.81,0.28c0.13,0.23,0.07,0.57-0.17,0.84c-0.25,0.29-0.25,0.73,0,1.02c0.23,0.27,0.3,0.61,0.17,0.84
		c-0.13,0.23-0.46,0.34-0.81,0.28c-0.38-0.07-0.76,0.14-0.89,0.51c-0.12,0.34-0.38,0.56-0.64,0.56c-0.27,0-0.53-0.23-0.64-0.56
		c-0.11-0.32-0.41-0.52-0.74-0.52c-0.05,0-0.1,0-0.15,0.01c-0.35,0.07-0.68-0.04-0.81-0.28c-0.13-0.23-0.07-0.57,0.17-0.84
		C22.52,9.96,22.52,9.53,22.27,9.23L22.27,9.23z M22.27,9.23"/>
	<path class="st0" d="M24.43,10.53c0.21,0,0.41-0.08,0.55-0.23c0.15-0.15,0.23-0.35,0.23-0.55c0-0.21-0.08-0.41-0.23-0.55
		c-0.15-0.15-0.35-0.23-0.55-0.23c-0.21,0-0.41,0.08-0.55,0.23c-0.15,0.15-0.23,0.35-0.23,0.55c0,0.21,0.08,0.41,0.23,0.55
		C24.02,10.44,24.22,10.53,24.43,10.53L24.43,10.53z M24.43,10.53"/>
	<path class="st0" d="M7.74,27.51c0.42,0.66,1.1,1.06,1.85,1.06c0.75,0,1.43-0.4,1.85-1.06c0.78-0.03,1.46-0.42,1.84-1.08
		c0.38-0.65,0.37-1.44,0.01-2.13c0.36-0.69,0.36-1.48-0.01-2.13c-0.38-0.65-1.06-1.04-1.84-1.08c-0.42-0.66-1.1-1.06-1.85-1.06
		c-0.75,0-1.43,0.4-1.85,1.06c-0.78,0.03-1.46,0.42-1.84,1.08c-0.38,0.65-0.37,1.44-0.01,2.13C5.53,25,5.52,25.79,5.9,26.44
		C6.28,27.09,6.96,27.48,7.74,27.51L7.74,27.51z M7.42,23.8c-0.23-0.27-0.3-0.61-0.16-0.84c0.13-0.23,0.46-0.34,0.81-0.28
		c0.38,0.07,0.76-0.14,0.89-0.51c0.12-0.34,0.38-0.56,0.64-0.56c0.27,0,0.53,0.23,0.64,0.56c0.13,0.37,0.5,0.58,0.88,0.51
		c0.35-0.07,0.68,0.04,0.81,0.28c0.13,0.23,0.07,0.57-0.17,0.84c-0.25,0.29-0.25,0.73,0,1.02c0.23,0.27,0.3,0.61,0.17,0.84
		c-0.13,0.23-0.46,0.34-0.81,0.28c-0.38-0.07-0.76,0.14-0.88,0.51c-0.12,0.34-0.38,0.56-0.64,0.56c-0.27,0-0.53-0.23-0.64-0.56
		c-0.11-0.32-0.41-0.53-0.74-0.53c-0.05,0-0.1,0-0.15,0.01C7.71,26,7.39,25.89,7.25,25.66c-0.13-0.23-0.07-0.57,0.16-0.84
		C7.67,24.52,7.67,24.09,7.42,23.8L7.42,23.8z M7.42,23.8"/>
	<path class="st0" d="M9.58,25.09c0.21,0,0.41-0.08,0.55-0.23c0.15-0.15,0.23-0.35,0.23-0.55c0-0.21-0.08-0.41-0.23-0.55
		c-0.15-0.15-0.35-0.23-0.55-0.23c-0.21,0-0.41,0.08-0.55,0.23C8.88,23.9,8.8,24.1,8.8,24.31c0,0.21,0.08,0.41,0.23,0.55
		C9.18,25,9.38,25.09,9.58,25.09L9.58,25.09z M9.58,25.09"/>
	<path class="st0" d="M28.13,22.17c-0.38-0.65-1.06-1.04-1.84-1.08c-0.42-0.66-1.1-1.06-1.85-1.06c-0.75,0-1.43,0.4-1.85,1.06
		c-0.78,0.03-1.46,0.42-1.84,1.08c-0.38,0.65-0.37,1.44-0.01,2.13c-0.36,0.69-0.36,1.48,0.01,2.13c0.38,0.65,1.06,1.04,1.84,1.08
		c0.42,0.66,1.1,1.06,1.85,1.06c0.75,0,1.43-0.4,1.85-1.06c0.78-0.03,1.46-0.42,1.84-1.08c0.38-0.65,0.37-1.44,0.01-2.13
		C28.5,23.62,28.51,22.83,28.13,22.17L28.13,22.17z M26.78,25.66c-0.13,0.23-0.46,0.34-0.81,0.28c-0.38-0.07-0.76,0.14-0.88,0.51
		c-0.12,0.34-0.38,0.56-0.64,0.56c-0.27,0-0.53-0.23-0.64-0.56c-0.11-0.32-0.41-0.53-0.74-0.53c-0.05,0-0.1,0-0.15,0.01
		c-0.35,0.07-0.68-0.04-0.81-0.28c-0.13-0.23-0.07-0.57,0.17-0.84c0.25-0.29,0.25-0.73,0-1.02c-0.23-0.27-0.3-0.61-0.17-0.84
		c0.13-0.23,0.46-0.34,0.81-0.28c0.38,0.07,0.76-0.14,0.88-0.51c0.12-0.34,0.38-0.56,0.64-0.56c0.27,0,0.53,0.23,0.64,0.56
		c0.13,0.37,0.5,0.58,0.88,0.51c0.35-0.07,0.68,0.04,0.81,0.28c0.13,0.23,0.07,0.57-0.17,0.84c-0.25,0.29-0.25,0.73,0,1.02
		C26.85,25.09,26.91,25.42,26.78,25.66L26.78,25.66z M26.78,25.66"/>
	<path class="st0" d="M24.43,23.53c-0.21,0-0.41,0.08-0.55,0.23c-0.15,0.15-0.23,0.35-0.23,0.55c0,0.21,0.08,0.41,0.23,0.55
		c0.15,0.15,0.35,0.23,0.55,0.23c0.21,0,0.41-0.08,0.55-0.23c0.15-0.15,0.23-0.35,0.23-0.55c0-0.21-0.08-0.41-0.23-0.55
		C24.84,23.61,24.64,23.53,24.43,23.53L24.43,23.53z M24.43,23.53"/>
	<path class="st0" d="M13.32,17.03c-0.36,0.69-0.36,1.48,0.01,2.13c0.38,0.65,1.06,1.04,1.84,1.08c0.42,0.66,1.1,1.06,1.85,1.06
		c0.75,0,1.43-0.4,1.85-1.06c0.78-0.03,1.46-0.42,1.84-1.08c0.38-0.65,0.37-1.44,0.01-2.13c0.36-0.69,0.36-1.48-0.01-2.13
		c0,0,0,0,0,0c-0.38-0.65-1.06-1.04-1.84-1.08c-0.42-0.66-1.1-1.06-1.85-1.06c-0.75,0-1.43,0.4-1.85,1.06
		c-0.78,0.03-1.46,0.42-1.84,1.08C12.96,15.55,12.96,16.34,13.32,17.03L13.32,17.03z M14.85,16.52c-0.23-0.27-0.3-0.61-0.17-0.84
		c0.13-0.23,0.46-0.34,0.81-0.28c0.38,0.07,0.76-0.14,0.89-0.51c0.12-0.34,0.38-0.56,0.64-0.56c0.27,0,0.53,0.23,0.64,0.56
		c0.13,0.37,0.5,0.58,0.89,0.51c0.35-0.07,0.67,0.04,0.81,0.28c0.13,0.23,0.07,0.57-0.17,0.84c-0.25,0.29-0.25,0.73,0,1.02
		c0.23,0.27,0.3,0.61,0.17,0.84c-0.13,0.23-0.46,0.34-0.81,0.28c-0.38-0.07-0.76,0.14-0.89,0.51c-0.12,0.34-0.38,0.56-0.64,0.56
		c-0.27,0-0.53-0.23-0.64-0.56c-0.11-0.32-0.41-0.53-0.74-0.53c-0.05,0-0.1,0-0.15,0.01c-0.35,0.07-0.67-0.04-0.81-0.28
		c-0.13-0.23-0.07-0.57,0.17-0.84C15.11,17.24,15.11,16.81,14.85,16.52L14.85,16.52z M14.85,16.52"/>
	<path class="st0" d="M17.02,17.81c0.21,0,0.41-0.08,0.55-0.23c0.15-0.15,0.23-0.35,0.23-0.55c0-0.21-0.08-0.41-0.23-0.55
		c-0.15-0.15-0.35-0.23-0.55-0.23c-0.21,0-0.41,0.08-0.55,0.23c-0.15,0.15-0.23,0.35-0.23,0.55c0,0.21,0.08,0.41,0.23,0.55
		C16.61,17.72,16.81,17.81,17.02,17.81L17.02,17.81z M17.02,17.81"/>
	<path class="st0" d="M9.11,16.47c-0.15,0.15-0.23,0.35-0.23,0.55c0,0.21,0.08,0.41,0.23,0.55c0.15,0.15,0.35,0.23,0.55,0.23
		c0.21,0,0.41-0.08,0.55-0.23c0.15-0.15,0.23-0.35,0.23-0.55c0-0.21-0.08-0.41-0.23-0.55c-0.15-0.15-0.35-0.23-0.55-0.23
		C9.46,16.24,9.25,16.33,9.11,16.47L9.11,16.47z M9.11,16.47"/>
</g>
</svg>
