<?xml version="1.0" encoding="utf-8"?>
<!-- Generator: Adobe Illustrator 25.1.0, SVG Export Plug-In . SVG Version: 6.00 Build 0)  -->
<svg version="1.1" id="Warstwa_1" xmlns="http://www.w3.org/2000/svg" xmlns:xlink="http://www.w3.org/1999/xlink" x="0px" y="0px"
	 viewBox="0 0 40 40" style="enable-background:new 0 0 40 40;" xml:space="preserve">
<style type="text/css">
	.st0{fill:#FFFFFF;stroke:#FFFFFF;stroke-width:0.2293;stroke-miterlimit:10;}
</style>
<g>
	<path class="st0" d="M38.85,8.3h-5.92c0.94-0.91,1.43-2.19,1.36-3.49c-0.07-1.31-0.7-2.52-1.72-3.33c-1.03-0.81-2.35-1.14-3.64-0.9
		c-1.29,0.24-2.41,1.02-3.08,2.14c-0.67-1.12-1.79-1.9-3.08-2.14c-1.29-0.24-2.61,0.09-3.64,0.9c-1.03,0.81-1.66,2.02-1.72,3.33
		c-0.07,1.31,0.43,2.58,1.36,3.49h-5.92c-0.36,0-0.65,0.29-0.65,0.65v6.5c0,0.36,0.29,0.65,0.65,0.65h1.3v11.68l-1.95,0.49v-1.12
		c0-0.36-0.29-0.65-0.65-0.65h-5.2c-0.36,0-0.65,0.29-0.65,0.65v0.65H1.15c-0.36,0-0.65,0.29-0.65,0.65v9.1
		c0,0.36,0.29,0.65,0.65,0.65H5.7v0.65c0,0.36,0.29,0.65,0.65,0.65h5.2c0.36,0,0.65-0.29,0.65-0.65v-0.9l0.84,0.42
		c0.63,0.32,1.33,0.48,2.04,0.48h9.73c0.8,0,1.58-0.21,2.28-0.61L38,31.93c0.88-0.51,1.38-1.48,1.28-2.49
		c-0.1-1.01-0.77-1.87-1.73-2.21V16.1h1.3c0.36,0,0.65-0.29,0.65-0.65v-6.5C39.5,8.59,39.21,8.3,38.85,8.3L38.85,8.3z M29.75,1.8
		c1.8,0,3.25,1.45,3.25,3.25S31.55,8.3,29.75,8.3H26.5V5.05C26.5,3.26,27.96,1.8,29.75,1.8L29.75,1.8z M27.15,29.91l-2.6-0.7V9.6
		h2.6V29.91z M18.7,5.05c0-1.8,1.45-3.25,3.25-3.25c1.8,0,3.25,1.45,3.25,3.25V8.3h-3.25C20.16,8.3,18.7,6.84,18.7,5.05L18.7,5.05z
		 M13.5,9.6h9.75v5.2H13.5V9.6z M15.45,16.1h7.8v12.77l-5.36-1.43c-0.75-0.2-1.53-0.21-2.28-0.02l-0.16,0.04V16.1z M1.8,36.9v-7.8
		h3.9v7.8H1.8z M10.9,38.2H7V27.8h3.9V38.2z M37.82,29.03c0.36,0.62,0.15,1.42-0.47,1.78l-10.92,6.31
		c-0.49,0.29-1.05,0.44-1.63,0.44h-9.73c-0.5,0-1-0.12-1.45-0.34L12.2,36.5v-6.89l3.73-0.93c0.54-0.13,1.1-0.13,1.63,0.01l9.7,2.6
		c0.34,0.08,0.63,0.3,0.8,0.6c0.18,0.3,0.23,0.66,0.13,1c-0.09,0.34-0.31,0.62-0.61,0.79c-0.3,0.17-0.66,0.21-1,0.12l-7.75-2.08
		c-0.35-0.09-0.7,0.12-0.79,0.46c-0.09,0.35,0.11,0.7,0.46,0.8l7.75,2.08c0.22,0.06,0.45,0.09,0.68,0.09
		c0.73,0.01,1.42-0.3,1.91-0.83c0.49-0.53,0.73-1.25,0.67-1.97l6.55-3.78C36.67,28.22,37.45,28.43,37.82,29.03L37.82,29.03z
		 M36.25,27.13c-0.3,0.05-0.59,0.15-0.85,0.3l-6.34,3.66c-0.17-0.25-0.37-0.46-0.61-0.64V16.1h7.8V27.13z M38.2,14.8h-9.75V9.6h9.75
		V14.8z M38.2,14.8"/>
	<path class="st0" d="M8.95,36.9c0.36,0,0.65-0.29,0.65-0.65V35.6c0-0.36-0.29-0.65-0.65-0.65c-0.36,0-0.65,0.29-0.65,0.65v0.65
		C8.3,36.61,8.59,36.9,8.95,36.9L8.95,36.9z M8.95,36.9"/>
</g>
</svg>
