<?xml version="1.0" encoding="utf-8"?>
<!-- Generator: Adobe Illustrator 25.1.0, SVG Export Plug-In . SVG Version: 6.00 Build 0)  -->
<svg version="1.1" id="Warstwa_1" xmlns="http://www.w3.org/2000/svg" xmlns:xlink="http://www.w3.org/1999/xlink" x="0px" y="0px"
	 viewBox="0 0 40 40" style="enable-background:new 0 0 40 40;" xml:space="preserve">
<style type="text/css">
	.st0{fill:#FFFFFF;stroke:#FFFFFF;stroke-width:0.4586;stroke-miterlimit:10;}
</style>
<path class="st0" d="M39.36,1.41c-0.16-0.31-0.42-0.54-0.75-0.64c-0.33-0.11-0.68-0.07-0.98,0.09C37.32,1.02,37.1,1.29,37,1.62
	l-1.49,5.09l-0.79-0.25c-0.25-0.08-0.52,0.06-0.6,0.31L33.5,8.71c-0.04,0.12-0.03,0.25,0.03,0.37c0.06,0.11,0.16,0.2,0.28,0.24
	l0.17,0.06l-0.56,1.76c-1.53-2.24-3.55-4.11-5.89-5.47c-2.73-1.58-5.84-2.41-9.01-2.41C8.59,3.25,0.5,11.33,0.5,21.27
	c0,4.81,1.87,9.34,5.28,12.74c3.4,3.4,7.93,5.28,12.74,5.28c9.94,0,18.02-8.09,18.02-18.02c0-1.86-0.28-3.7-0.84-5.46l1.71-5.35
	l0.17,0.06c0.05,0.02,0.1,0.02,0.15,0.02c0.08,0,0.15-0.02,0.22-0.05c0.11-0.06,0.2-0.16,0.24-0.28l0.62-1.94
	c0.08-0.25-0.06-0.52-0.31-0.6L37.7,7.41l1.73-5.02C39.54,2.07,39.52,1.72,39.36,1.41L39.36,1.41z M31.1,19.86
	c-0.02,0.04-0.03,0.08-0.05,0.12c-0.11,0.35-0.08,0.71,0.09,1.04c0.17,0.32,0.45,0.56,0.79,0.67c0.14,0.04,0.28,0.06,0.41,0.06
	c0.57,0,1.11-0.37,1.29-0.94c0.01-0.04,0.02-0.08,0.03-0.13c0.37-0.22,0.65-0.57,0.79-1l0.7-2.2c0.28,1.23,0.42,2.5,0.42,3.78
	c0,1.36-0.16,2.68-0.46,3.95l-7.12-1.91c0.14-0.66,0.22-1.34,0.22-2.05c0-0.7-0.08-1.39-0.22-2.05l3.09-0.83l-0.06,0.2
	C30.9,19.02,30.93,19.46,31.1,19.86L31.1,19.86z M12.01,28.46c1.01,0.92,2.21,1.62,3.54,2.05l-1.91,7.12
	c-2.59-0.77-4.92-2.15-6.84-3.96L12.01,28.46z M9.78,21.27c0-4.82,3.92-8.74,8.74-8.74s8.74,3.92,8.74,8.74
	c0,4.82-3.92,8.74-8.74,8.74S9.78,26.09,9.78,21.27L9.78,21.27z M1.46,21.27c0-1.36,0.16-2.68,0.46-3.95l7.12,1.91
	c-0.14,0.66-0.22,1.34-0.22,2.05c0,0.7,0.08,1.39,0.22,2.05l-7.12,1.91C1.62,23.95,1.46,22.63,1.46,21.27L1.46,21.27z M9.29,18.3
	l-7.12-1.91c0.77-2.59,2.15-4.92,3.96-6.84l5.21,5.21C10.42,15.77,9.71,16.97,9.29,18.3L9.29,18.3z M12.01,14.08L6.81,8.87
	c1.92-1.81,4.25-3.19,6.84-3.96l1.91,7.12C14.23,12.46,13.02,13.17,12.01,14.08L12.01,14.08z M25.03,28.46l5.21,5.21
	c-1.92,1.81-4.25,3.19-6.84,3.96l-1.91-7.12C22.82,30.08,24.02,29.37,25.03,28.46L25.03,28.46z M25.71,27.78
	c0.92-1.01,1.62-2.21,2.05-3.54l7.12,1.91c-0.77,2.59-2.15,4.92-3.96,6.84L25.71,27.78z M31.45,17.31l-3.69,0.99
	c-0.43-1.33-1.13-2.53-2.05-3.54l5.21-5.21c0.8,0.84,1.51,1.77,2.12,2.76L31.45,17.31z M30.24,8.87l-5.21,5.21
	c-1.01-0.92-2.21-1.62-3.54-2.05l1.91-7.12c1.27,0.38,2.5,0.9,3.65,1.57C28.21,7.15,29.28,7.96,30.24,8.87L30.24,8.87z M22.48,4.67
	l-1.91,7.12c-0.66-0.14-1.34-0.22-2.05-0.22s-1.39,0.08-2.05,0.22l-1.91-7.12c1.27-0.3,2.59-0.46,3.95-0.46
	C19.86,4.2,21.19,4.36,22.48,4.67L22.48,4.67z M2.17,26.15l7.12-1.91c0.43,1.33,1.13,2.53,2.05,3.54l-5.21,5.21
	C4.32,31.07,2.94,28.74,2.17,26.15L2.17,26.15z M14.57,37.87l1.91-7.12c0.66,0.14,1.34,0.22,2.05,0.22c0.7,0,1.39-0.08,2.05-0.22
	l1.91,7.12c-1.27,0.3-2.59,0.46-3.95,0.46C17.16,38.33,15.84,38.17,14.57,37.87L14.57,37.87z M33.56,19.4
	c-0.08,0.24-0.26,0.44-0.5,0.53c-0.19,0.07-0.31,0.26-0.31,0.46c0,0.05,0,0.09-0.02,0.13c-0.07,0.21-0.29,0.33-0.5,0.26
	c-0.1-0.03-0.18-0.1-0.23-0.2c-0.05-0.09-0.06-0.2-0.03-0.31c0.01-0.04,0.03-0.08,0.06-0.12c0.12-0.16,0.13-0.38,0.02-0.55
	c-0.14-0.21-0.18-0.48-0.1-0.72l2.94-9.23l1.61,0.51L33.56,19.4z M37.42,9.46l-2.86-0.91l0.33-1.02l2.86,0.91L37.42,9.46z
	 M38.52,2.08l-1.74,5.04l-0.36-0.12l1.5-5.11C37.95,1.81,38,1.74,38.08,1.7c0.08-0.04,0.16-0.05,0.24-0.02
	c0.08,0.03,0.15,0.08,0.19,0.16C38.55,1.92,38.55,2,38.52,2.08L38.52,2.08z M38.52,2.08"/>
</svg>
