<?xml version="1.0" encoding="utf-8"?>
<!-- Generator: Adobe Illustrator 25.1.0, SVG Export Plug-In . SVG Version: 6.00 Build 0)  -->
<svg version="1.1" id="Warstwa_1" xmlns="http://www.w3.org/2000/svg" xmlns:xlink="http://www.w3.org/1999/xlink" x="0px" y="0px"
	 viewBox="0 0 40 40" style="enable-background:new 0 0 40 40;" xml:space="preserve">
<style type="text/css">
	.st0{fill:#FFFFFF;stroke:#FFFFFF;stroke-width:0.2822;stroke-miterlimit:10;}
	.st1{fill:#FFFFFF;}
	.st2{fill:#FFFFFF;stroke:#FFFFFF;stroke-width:0.2352;stroke-miterlimit:10;}
</style>
<g>
	<path class="st0" d="M5.6,36.8c0.97,0,1.85-0.58,2.22-1.48c0.37-0.9,0.17-1.93-0.52-2.62c-0.69-0.69-1.72-0.89-2.62-0.52
		c-0.9,0.37-1.48,1.25-1.48,2.22C3.2,35.73,4.27,36.8,5.6,36.8L5.6,36.8z M5.6,33.6c0.32,0,0.62,0.19,0.74,0.49
		c0.12,0.3,0.06,0.64-0.17,0.87c-0.23,0.23-0.57,0.3-0.87,0.17c-0.3-0.12-0.49-0.42-0.49-0.74C4.8,33.96,5.16,33.6,5.6,33.6
		L5.6,33.6z M5.6,33.6"/>
	<path class="st1" d="M37.6,28.8H26.5l9.61-5.55c0.55-0.32,0.95-0.84,1.12-1.46c0.17-0.62,0.08-1.27-0.24-1.82l-3.2-5.54
		c-0.66-1.15-2.13-1.54-3.28-0.88L20.9,19.1l5.55-9.61c0.32-0.55,0.41-1.21,0.24-1.82c-0.17-0.62-0.57-1.14-1.12-1.46l-5.54-3.2
		c-0.55-0.32-1.21-0.4-1.82-0.24c-0.62,0.17-1.14,0.57-1.46,1.12L11.2,13.5V2.4c0-1.33-1.07-2.4-2.4-2.4H2.4C1.07,0,0,1.07,0,2.4
		v35.2C0,38.93,1.07,40,2.4,40h35.2c1.33,0,2.4-1.07,2.4-2.4v-6.4C40,29.87,38.93,28.8,37.6,28.8L37.6,28.8z M9.6,37.6
		c0,0.44-0.36,0.8-0.8,0.8H2.4c-0.44,0-0.8-0.36-0.8-0.8v-7.2h8V37.6z M9.6,28.8h-8v-3.2h8V28.8z M9.6,24h-8v-3.2h8V24z M9.6,19.2
		h-8V16h8V19.2z M9.6,14.4h-8v-3.2h8V14.4z M9.6,9.6h-8V6.4h8V9.6z M9.6,4.8h-8V2.4c0-0.44,0.36-0.8,0.8-0.8h6.4
		c0.44,0,0.8,0.36,0.8,0.8V4.8z M31.31,14.94c0.38-0.22,0.87-0.09,1.09,0.29l3.2,5.54c0.22,0.38,0.09,0.87-0.29,1.09L11.3,35.73
		l8-13.86L31.31,14.94z M11.2,16.7l6.94-12.01c0.22-0.38,0.71-0.51,1.09-0.29l5.54,3.2c0.38,0.22,0.51,0.71,0.29,1.09L11.2,32.7
		V16.7z M38.4,37.6c0,0.44-0.36,0.8-0.8,0.8H11.05c0.09-0.25,0.14-0.5,0.14-0.76l12.53-7.24H37.6c0.44,0,0.8,0.36,0.8,0.8V37.6z
		 M38.4,37.6"/>
	<g>
		<g>
			<path class="st2" d="M21.6,10.36l-0.45,0.78l-1.27-0.17l-0.71,1.22l0.79,1.01l-0.45,0.77l-2.68-3.6l0.31-0.53L21.6,10.36z
				 M19.14,10.88l-1.04-0.13l0.63,0.84L19.14,10.88z"/>
		</g>
		<path class="st2" d="M18.81,7.18l0.03,0.79c0.59-0.02,1.2,0.12,1.75,0.44c1.56,0.9,2.09,2.9,1.19,4.46
			c-0.9,1.56-2.9,2.09-4.46,1.19c-1.56-0.9-2.09-2.9-1.19-4.46c0.31-0.54,0.75-0.95,1.26-1.23l-0.38-0.69
			c-0.63,0.34-1.18,0.86-1.56,1.53c-1.12,1.93-0.45,4.42,1.48,5.54c1.93,1.12,4.42,0.45,5.54-1.48c1.12-1.93,0.45-4.42-1.48-5.54
			C20.3,7.33,19.55,7.16,18.81,7.18z"/>
	</g>
</g>
</svg>
