<?xml version="1.0" encoding="utf-8"?>
<!-- Generator: Adobe Illustrator 25.1.0, SVG Export Plug-In . SVG Version: 6.00 Build 0)  -->
<svg version="1.1" id="Warstwa_1" xmlns="http://www.w3.org/2000/svg" xmlns:xlink="http://www.w3.org/1999/xlink" x="0px" y="0px"
	 viewBox="0 0 40 40" style="enable-background:new 0 0 40 40;" xml:space="preserve">
<style type="text/css">
	.st0{fill:#FFFFFF;}
</style>
<path class="st0" d="M34.32,24.83c-1.68-0.72-3.6-1.28-5.73-1.67c0.7-0.16,1.34-0.35,1.91-0.56c3.42-1.26,4.14-3.23,4.14-4.66
	c0-1.34-0.62-2.63-1.78-3.77c0,0-0.28-0.26-0.29-0.27c-0.54-0.48-1.19-0.92-1.88-1.3c-0.01-0.01-0.13-0.07-0.18-0.1
	c-0.1-0.05-0.29-0.14-0.29-0.14c-1.28-0.64-2.73-1.13-4.34-1.46c0.35-0.16,0.68-0.33,0.99-0.52c1.59-0.98,2.46-2.31,2.46-3.75
	c0-1.01-0.44-2.39-2.55-3.28c-1.33-0.56-3.21-0.86-5.43-0.86c-2.22,0-4.1,0.3-5.43,0.86c-2.11,0.89-2.55,2.27-2.55,3.28
	c0,1.44,0.87,2.77,2.46,3.75c0.31,0.19,0.64,0.36,0.99,0.52c-1.77,0.35-3.36,0.9-4.72,1.64c-2.61,1.41-4.05,3.32-4.05,5.4
	c0,1.61,0.86,2.92,2.58,3.93c0.03,0.01,0.05,0.02,0.08,0.03c-0.16,0.21-0.32,0.4-0.47,0.62c-1.08-1.57-2.32-2.85-3.7-3.8
	c-1.79-1.24-3.71-1.87-5.72-1.87C0.37,16.86,0,17.23,0,17.68c0,0.45,0.37,0.82,0.82,0.82c1.11,0,2.5,1.95,3.54,4.96
	c0.57,1.67,1.03,3.55,1.35,5.62c-1.32-1.81-3.04-2.8-4.9-2.8C0.37,26.28,0,26.65,0,27.1s0.37,0.82,0.82,0.82
	c0.2,0,0.82,0.56,1.39,2.21c0.6,1.75,0.93,4.02,0.93,6.39c0,0.45,0.37,0.82,0.82,0.82h12.55c0.01,0,0.02-0.01,0.03-0.01
	c1.53,0.1,3.16,0.15,4.8,0.15c5.31,0,9.78-0.48,12.91-1.4c3.82-1.12,5.75-2.86,5.75-5.2C40,28.54,37.98,26.4,34.32,24.83z
	 M16.52,9.26c-1.17-0.72-1.82-1.65-1.82-2.61c0-0.89,0.57-1.56,1.73-2.05c1.17-0.49,2.86-0.75,4.91-0.75c2.05,0,3.74,0.26,4.91,0.75
	s1.73,1.16,1.73,2.05c0,0.96-0.65,1.89-1.82,2.61c-1.28,0.79-2.99,1.22-4.82,1.22C19.51,10.48,17.79,10.05,16.52,9.26z M9.37,17.95
	c0-1.56,1.19-3.06,3.35-4.22c2.29-1.23,5.35-1.91,8.62-1.91c3.26,0,6.3,0.68,8.59,1.9c0.61,0.33,1.25,0.74,1.84,1.28
	c1,0.91,1.53,1.93,1.53,2.95c0,1.46-1.1,2.61-3.26,3.41c-2.09,0.77-5.1,1.17-8.7,1.17c-1.75,0-3.33-0.1-4.76-0.29
	c0.97-2.3,2.12-3.74,3.07-3.74c0.45,0,0.82-0.37,0.82-0.82c0-0.45-0.37-0.82-0.82-0.82c-1.85,0-3.64,0.54-5.32,1.61
	c-0.99,0.63-1.91,1.44-2.77,2.4C10.11,20.12,9.37,19.14,9.37,17.95z M4.76,35.69c-0.07-2.25-0.43-4.41-1.01-6.11
	c-0.06-0.16-0.11-0.32-0.17-0.47c0.36,0.33,0.69,0.73,1,1.19c0.96,1.44,1.55,3.34,1.68,5.38H4.76z M5.91,22.93
	c-0.51-1.47-1.07-2.69-1.7-3.65c1.92,0.9,3.66,2.54,5.07,4.79c-0.81,1.45-1.46,3.04-1.95,4.75C6.99,26.66,6.52,24.68,5.91,22.93z
	 M7.93,35.69c0.13-4.56,1.38-8.82,3.53-12.04c1.36-2.05,3.01-3.55,4.81-4.38c-0.62,0.96-1.2,2.19-1.7,3.66
	c-1.22,3.53-1.92,8.05-2,12.76H7.93z M16.72,29.59c-0.59,1.7-0.94,3.86-1.01,6.11h-1.49c0.12-2.04,0.72-3.94,1.68-5.38
	c0.31-0.46,0.64-0.86,1-1.19C16.83,29.27,16.77,29.43,16.72,29.59z M33.87,34.8c-3.01,0.88-7.35,1.35-12.54,1.35
	c-1.39,0-2.72-0.04-3.99-0.11c0.04-2.2,0.36-4.29,0.92-5.92c0.57-1.65,1.19-2.21,1.39-2.21c0.45,0,0.82-0.37,0.82-0.82
	s-0.37-0.82-0.82-0.82c-1.85,0-3.58,0.99-4.9,2.8c0.27-1.75,0.65-3.35,1.1-4.82c1.79-0.26,3.62-0.4,5.48-0.4
	c4.72,0,9.15,0.78,12.46,2.2c3.09,1.32,4.87,3.08,4.87,4.82C38.67,32.55,37.05,33.87,33.87,34.8z"/>
</svg>
