<?xml version="1.0" encoding="utf-8"?>
<!-- Generator: Adobe Illustrator 25.1.0, SVG Export Plug-In . SVG Version: 6.00 Build 0)  -->
<svg version="1.1" id="Warstwa_1" xmlns="http://www.w3.org/2000/svg" xmlns:xlink="http://www.w3.org/1999/xlink" x="0px" y="0px"
	 viewBox="0 0 40 40" style="enable-background:new 0 0 40 40;" xml:space="preserve">
<style type="text/css">
	.st0{fill:#FFFFFF;}
	.st1{fill:#FFFFFF;stroke:#FFFFFF;stroke-width:0.7056;stroke-miterlimit:10;}
	.st2{fill:#FFFFFF;stroke:#FFFFFF;stroke-width:0.4704;stroke-miterlimit:10;}
</style>
<g>
	<path class="st0" d="M11.26,40c0.45,0,0.75-0.3,0.75-0.75V26.42h16.6v12.83c0,0.45,0.3,0.75,0.75,0.75s0.75-0.3,0.75-0.75V23.4
		c0-1.66-1.36-3.02-3.02-3.02H15.03V3.02c0-1.66-1.36-3.02-3.02-3.02h-0.75c-0.45,0-0.75,0.3-0.75,0.75v38.49
		C10.5,39.7,10.81,40,11.26,40z M28.62,23.4v1.51h-16.6v-3.02h15.09C27.94,21.89,28.62,22.57,28.62,23.4z M12.01,1.51
		c0.83,0,1.51,0.68,1.51,1.51v17.36h-1.51V1.51z"/>
	<path class="st1" d="M32.02,23.42c-0.23-0.12-0.52-0.05-0.65,0.16c-0.13,0.21-0.05,0.48,0.18,0.6c2.65,1.39,4.12,3.19,4.12,5.06
		c0,3.63-5.58,6.8-12.98,7.37c-0.26,0.02-0.46,0.23-0.44,0.47c0.02,0.23,0.23,0.4,0.48,0.4c0.01,0,0.03,0,0.04,0
		c3.78-0.29,7.25-1.25,9.78-2.71c2.63-1.52,4.08-3.48,4.08-5.54C36.62,27.04,34.99,24.98,32.02,23.42L32.02,23.42z M32.02,23.42"/>
	<g>
		<path class="st1" d="M7.98,23.42c-2.97,1.56-4.6,3.62-4.6,5.82c0,2.05,1.45,4.02,4.08,5.54c2.53,1.46,6,2.42,9.78,2.71
			c0.01,0,0.03,0,0.04,0c0.25,0,0.46-0.17,0.48-0.4c0.02-0.24-0.17-0.45-0.44-0.47c-7.4-0.57-12.98-3.74-12.98-7.37
			c0-1.87,1.46-3.67,4.12-5.06c0.23-0.12,0.31-0.39,0.18-0.6C8.5,23.37,8.21,23.3,7.98,23.42L7.98,23.42z M7.98,23.42"/>
		<path class="st2" d="M17.48,39.32c-0.31,0-0.56-0.25-0.56-0.56c0-0.15,0.06-0.29,0.17-0.4l1.29-1.29l-1.29-1.29
			c-0.22-0.22-0.22-0.58,0-0.8c0.22-0.22,0.58-0.22,0.8,0l1.69,1.69c0.22,0.22,0.22,0.58,0,0.8c0,0,0,0,0,0l-1.69,1.69
			C17.77,39.26,17.63,39.32,17.48,39.32z"/>
	</g>
</g>
</svg>
