<?xml version="1.0" encoding="utf-8"?>
<!-- Generator: Adobe Illustrator 25.1.0, SVG Export Plug-In . SVG Version: 6.00 Build 0)  -->
<svg version="1.1" id="Warstwa_1" xmlns="http://www.w3.org/2000/svg" xmlns:xlink="http://www.w3.org/1999/xlink" x="0px" y="0px"
	 viewBox="0 0 40 40" style="enable-background:new 0 0 40 40;" xml:space="preserve">
<style type="text/css">
	.st0{fill:#FFFFFF;}
</style>
<g>
	<g>
		<path class="st0" d="M32.59,5.42h-1.47l-1.2-4.8c-0.07-0.3-0.34-0.5-0.64-0.5H10.72c-0.3,0-0.57,0.21-0.64,0.5l-1.2,4.8H7.41
			c-0.37,0-0.66,0.3-0.66,0.66v3.98c0,0.37,0.3,0.66,0.66,0.66h1.39l0.48,5.3h-0.6c-0.19,0-0.36,0.08-0.49,0.22
			C8.05,16.38,7.99,16.56,8,16.75l1.57,17.23c0.03,0.34,0.31,0.6,0.66,0.6h0.73l0.42,4.7c0.03,0.34,0.32,0.6,0.66,0.6h15.91
			c0.34,0,0.63-0.26,0.66-0.6l0.42-4.7h0.73c0.34,0,0.63-0.26,0.66-0.6L32,16.75c0.01-0.19-0.05-0.37-0.17-0.51
			c-0.13-0.14-0.3-0.22-0.49-0.22h-0.6l0.48-5.3h1.39c0.37,0,0.66-0.3,0.66-0.66V6.08C33.26,5.72,32.96,5.42,32.59,5.42L32.59,5.42z
			 M11.24,1.44h17.52l0.99,3.98H10.24L11.24,1.44z M27.35,38.56h-14.7l-0.36-3.98h15.42L27.35,38.56z M29.16,33.26H10.84L9.4,17.35
			H30.6L29.16,33.26z M10.12,10.72h19.75l-0.48,5.3H10.6L10.12,10.72z M31.93,9.4H8.07V6.74h23.86V9.4z M31.93,9.4"/>
		<path class="st0" d="M27.96,40C27.95,40,27.95,40,27.96,40H12.05c0,0,0,0,0,0c-0.41,0-0.74-0.3-0.78-0.71l-0.42-4.59h-0.62
			c-0.4,0-0.74-0.31-0.77-0.71L7.89,16.76c-0.02-0.22,0.06-0.44,0.2-0.6c0.15-0.16,0.36-0.25,0.57-0.25h0.48l-0.46-5.07H7.41
			c-0.43,0-0.78-0.35-0.78-0.78V6.08c0-0.43,0.35-0.78,0.78-0.78h1.38l1.18-4.71C10.05,0.24,10.36,0,10.72,0h18.56
			c0.36,0,0.67,0.24,0.76,0.59l1.18,4.71h1.38c0.43,0,0.78,0.35,0.78,0.78v3.98c0,0.43-0.35,0.78-0.78,0.78h-1.28l-0.46,5.07h0.48
			c0.22,0,0.43,0.09,0.57,0.26c0.15,0.16,0.22,0.37,0.2,0.59l-1.57,17.23c-0.04,0.4-0.37,0.71-0.77,0.71h-0.62l-0.42,4.59
			C28.7,39.7,28.36,40,27.96,40z M12.05,39.77h15.91c0,0,0,0,0,0c0.28,0,0.52-0.21,0.54-0.5l0.43-4.81h0.84
			c0.28,0,0.51-0.22,0.54-0.5l1.57-17.23c0.01-0.15-0.04-0.3-0.14-0.41c-0.1-0.11-0.25-0.18-0.4-0.18H30.6l0.01-0.13l0.49-5.41h1.49
			c0.3,0,0.55-0.24,0.55-0.55V6.08c0-0.3-0.24-0.55-0.55-0.55h-1.56l-1.22-4.89c-0.06-0.24-0.28-0.41-0.53-0.41H10.72
			c-0.25,0-0.47,0.17-0.53,0.41L8.97,5.54H7.41c-0.3,0-0.55,0.24-0.55,0.55v3.98c0,0.3,0.24,0.55,0.55,0.55H8.9l0.01,0.11l0.49,5.43
			H8.67c-0.15,0-0.3,0.07-0.4,0.18c-0.1,0.11-0.16,0.26-0.14,0.42l1.57,17.23c0.03,0.28,0.26,0.5,0.54,0.5h0.83l0.01,0.11l0.42,4.7
			C11.53,39.55,11.76,39.77,12.05,39.77C12.05,39.77,12.05,39.77,12.05,39.77z M27.46,38.67H12.54l-0.01-0.11l-0.37-4.1h15.67
			L27.46,38.67z M12.76,38.44h14.49l0.34-3.74H12.42L12.76,38.44z M29.27,33.37H10.73l-0.01-0.11L9.27,17.23h21.46l-0.01,0.13
			L29.27,33.37z M10.95,33.14h18.11l1.42-15.67H9.52L10.95,33.14z M29.5,16.14H10.5l-0.01-0.11L10,10.6H30l-0.01,0.13L29.5,16.14z
			 M10.71,15.91h18.58l0.46-5.07H10.25L10.71,15.91z M32.05,9.51H7.95V6.63h24.09V9.51z M8.19,9.28h23.63V6.86H8.19V9.28z
			 M29.91,5.54H10.09l1.05-4.21h17.71L29.91,5.54z M10.39,5.3h19.21l-0.94-3.74H11.33L10.39,5.3z"/>
	</g>
	<g>
		<path class="st0" d="M23.98,21.99h-1.33c-0.81,0-1.6,0.31-2.2,0.85c-0.47-1.3-1.71-2.18-3.1-2.18h-1.33
			c-0.37,0-0.66,0.3-0.66,0.66v1.33c0,1.83,1.48,3.31,3.31,3.31h0.66v3.98h1.33v-2.65h0.66c1.83,0,3.31-1.48,3.31-3.31v-1.33
			C24.64,22.29,24.34,21.99,23.98,21.99L23.98,21.99z M19.34,24.64h-0.66c-1.1,0-1.98-0.89-1.99-1.99v-0.66h0.66
			c1.1,0,1.98,0.89,1.99,1.99V24.64z M23.31,23.98c0,1.1-0.89,1.98-1.99,1.99h-0.66V25.3c0-1.1,0.89-1.98,1.99-1.99h0.66V23.98z
			 M23.31,23.98"/>
		<path class="st0" d="M20.78,30.06h-1.56v-3.98h-0.55c-1.89,0-3.43-1.54-3.43-3.43v-1.33c0-0.43,0.35-0.78,0.78-0.78h1.33
			c1.38,0,2.62,0.84,3.15,2.1c0.61-0.5,1.36-0.77,2.15-0.78h1.33c0.43,0,0.78,0.35,0.78,0.78v1.33c0,1.89-1.54,3.43-3.43,3.43h-0.55
			V30.06z M19.45,29.82h1.09v-2.65h0.78c1.76,0,3.2-1.43,3.2-3.2v-1.33c0-0.3-0.24-0.55-0.55-0.55h-1.33c-0.79,0-1.54,0.3-2.12,0.82
			l-0.13,0.12l-0.06-0.16c-0.46-1.25-1.66-2.1-2.99-2.1h-1.33c-0.3,0-0.55,0.24-0.55,0.55v1.33c0,1.76,1.43,3.2,3.2,3.2h0.78V29.82z
			 M21.33,26.08h-0.78V25.3c0-1.16,0.95-2.1,2.11-2.11h0.78v0.78C23.43,25.13,22.48,26.08,21.33,26.08z M20.78,25.85h0.55
			c1.03,0,1.87-0.84,1.87-1.87v-0.55h-0.55c-1.03,0-1.87,0.84-1.87,1.87V25.85z M19.45,24.76h-0.78c-1.16,0-2.1-0.95-2.11-2.11
			v-0.78h0.78c1.16,0,2.1,0.95,2.11,2.11V24.76z M16.8,22.11v0.55c0,1.03,0.84,1.87,1.87,1.87h0.55v-0.55
			c0-1.03-0.84-1.87-1.87-1.87H16.8z"/>
	</g>
</g>
</svg>
