<?xml version="1.0" encoding="utf-8"?>
<!-- Generator: Adobe Illustrator 25.2.0, SVG Export Plug-In . SVG Version: 6.00 Build 0)  -->
<svg version="1.1" id="Capa_1" xmlns="http://www.w3.org/2000/svg" xmlns:xlink="http://www.w3.org/1999/xlink" x="0px" y="0px"
	 viewBox="0 0 40 40" style="enable-background:new 0 0 40 40;" xml:space="preserve">
<style type="text/css">
	.st0{fill:#FFFFFF;}
	.st1{fill:none;stroke:#FFFFFF;stroke-width:0.3677;stroke-linecap:round;stroke-linejoin:round;stroke-miterlimit:10;}
	.st2{fill:none;stroke:#FFFFFF;stroke-width:0.6801;stroke-linecap:round;stroke-linejoin:round;stroke-miterlimit:10;}
</style>
<g>
	<path class="st0" d="M37.8,13.2h-2.2V5.6c0-1.7-1.4-3.1-3.1-3.1H5.3c-1.7,0-3.1,1.4-3.1,3.1v19.2c0,0.7,0.3,1.4,0.7,1.9H1
		c-0.6,0-1,0.5-1,1v1.5c0,1.4,1.2,2.6,2.6,2.6h14.5c0.3,0,0.6-0.3,0.6-0.6s-0.3-0.6-0.6-0.6H2.6c-0.8,0-1.4-0.6-1.4-1.4v-1.3h24.7
		v2.8h-6c-0.3,0-0.6,0.3-0.6,0.6s0.3,0.6,0.6,0.6h6v3.5c0,1.2,1,2.2,2.2,2.2h9.8c1.2,0,2.2-1,2.2-2.2c0-0.9,0-19.4,0-20.1
		C40,14.1,39,13.2,37.8,13.2L37.8,13.2z M25.9,26.8H4.9c-0.9-0.2-1.6-1-1.6-1.9V5.6c0-1.1,0.9-2,2-2h27.1c1.1,0,2,0.9,2,2v7.6h-1.1
		c0-0.8,0-6.5,0-7.4c0-0.6-0.5-1-1-1c-0.2,0-25.9,0-26.7,0c-0.6,0-1,0.5-1,1v18.8c0,0.6,0.5,1,1,1h20.4L25.9,26.8L25.9,26.8z
		 M32.1,5.9v1.6H8.6V5.9H32.1z M7.4,5.9v1.6H5.6V5.9H7.4z M25.9,15.3v9.1H5.6V8.6h26.5v4.5H28C26.8,13.2,25.9,14.1,25.9,15.3
		L25.9,15.3z M27,17.6h1.2v1.2H27V17.6z M38.8,35.4c0,0.6-0.5,1-1,1H28c-0.6,0-1-0.5-1-1v-1.7h11.8V35.4z M38.8,32.5H27
		c0-4.8,0-7.8,0-12.6h11.8V32.5z M38.8,18.8h-9.4v-1.2h9.4V18.8z M38.8,16.5c-0.6,0-11.3,0-11.8,0v-1.1c0-0.6,0.5-1,1-1h9.8
		c0.6,0,1,0.5,1,1L38.8,16.5L38.8,16.5z"/>
	<path class="st0" d="M32.3,35.5h1.2c0.3,0,0.6-0.3,0.6-0.6s-0.3-0.6-0.6-0.6h-1.2c-0.3,0-0.6,0.3-0.6,0.6S32,35.5,32.3,35.5z"/>
	<g>
		<path class="st0" d="M28.6,23.6c-0.1-0.1-0.1-0.2-0.1-0.2l-0.2-1.5c0-0.2,0-0.3,0.1-0.4c0.1-0.1,0.3-0.1,0.4-0.1l1.5,0.3
			c0.1,0,0.2,0.1,0.2,0.1c0.2,0.2,0.2,0.5,0,0.7l-1.3,1.2c-0.1,0.1-0.2,0.1-0.3,0.1C28.8,23.7,28.7,23.7,28.6,23.6
			C28.6,23.6,28.6,23.6,28.6,23.6z M30.2,21.9l-1.5-0.3c-0.1,0-0.1,0-0.1,0c0,0-0.1,0.1,0,0.1l0.2,1.6l0,0c0,0,0,0,0.1,0
			c0.1,0,0.1,0,0.2,0l1.3-1.2c0,0,0.1-0.1,0-0.2l0,0L30.2,21.9L30.2,21.9L30.2,21.9z"/>
		<path class="st0" d="M37.3,28.9c0.1,0.1,0.1,0.2,0.1,0.2l0.2,1.5c0,0.2,0,0.3-0.1,0.4c-0.1,0.1-0.3,0.1-0.4,0.1l-1.5-0.3
			c-0.1,0-0.2-0.1-0.2-0.1c-0.2-0.2-0.2-0.5,0-0.7l1.3-1.2c0.1-0.1,0.2-0.1,0.3-0.1C37.1,28.8,37.2,28.9,37.3,28.9
			C37.3,28.9,37.3,28.9,37.3,28.9z M35.6,30.6l1.5,0.3c0.1,0,0.1,0,0.1,0c0,0,0.1-0.1,0-0.1l-0.2-1.6l0,0c0,0,0,0-0.1,0
			c-0.1,0-0.1,0-0.2,0l-1.3,1.2c0,0-0.1,0.1,0,0.2l0,0L35.6,30.6L35.6,30.6L35.6,30.6z"/>
		<g>
			<line class="st1" x1="30.2" y1="23.3" x2="33.7" y2="27.1"/>
			<line class="st1" x1="34.3" y1="27.7" x2="35.7" y2="29.2"/>
		</g>
	</g>
	<g>
		<line class="st2" x1="10.6" y1="12.7" x2="21.5" y2="19.3"/>
		<line class="st2" x1="23" y1="20.3" x2="26.3" y2="22.3"/>
	</g>
	<path class="st0" d="M8.7,13.4c-0.1-0.1-0.2-0.2-0.2-0.3l-0.9-1.9c-0.1-0.2-0.1-0.4,0-0.6c0.1-0.2,0.3-0.3,0.5-0.3l2.1,0
		c0.1,0,0.3,0,0.4,0.1c0.3,0.2,0.4,0.5,0.2,0.8l-1.2,1.9c-0.1,0.1-0.2,0.2-0.4,0.3C9,13.6,8.8,13.5,8.7,13.4
		C8.7,13.4,8.7,13.4,8.7,13.4z M10.1,10.8l-2.1,0c-0.1,0-0.1,0-0.2,0.1c0,0.1,0,0.1,0,0.2l0.9,1.9l0.1,0c0,0,0.1,0,0.1,0
		c0.1,0,0.2,0,0.2-0.1l1.2-1.9c0-0.1,0-0.1,0-0.2l0,0l0,0L10.1,10.8L10.1,10.8z"/>
	<path class="st0" d="M8.7,13.4c-0.1-0.1-0.2-0.2-0.2-0.3l-0.9-1.9c-0.1-0.2-0.1-0.4,0-0.6c0.1-0.2,0.3-0.3,0.5-0.3l2.1,0
		c0.1,0,0.3,0,0.4,0.1c0.3,0.2,0.4,0.5,0.2,0.8l-1.2,1.9c-0.1,0.1-0.2,0.2-0.4,0.3C9,13.6,8.8,13.5,8.7,13.4
		C8.7,13.4,8.7,13.4,8.7,13.4z M10.1,10.8l-2.1,0c-0.1,0-0.1,0-0.2,0.1c0,0.1,0,0.1,0,0.2l0.9,1.9l0.1,0c0,0,0.1,0,0.1,0
		c0.1,0,0.2,0,0.2-0.1l1.2-1.9c0-0.1,0-0.1,0-0.2l0,0l0,0L10.1,10.8L10.1,10.8z"/>
</g>
</svg>
