<?xml version="1.0" encoding="utf-8"?>
<!-- Generator: Adobe Illustrator 25.2.0, SVG Export Plug-In . SVG Version: 6.00 Build 0)  -->
<svg version="1.1" id="Capa_1" xmlns="http://www.w3.org/2000/svg" xmlns:xlink="http://www.w3.org/1999/xlink" x="0px" y="0px"
	 viewBox="0 0 40 40" style="enable-background:new 0 0 40 40;" xml:space="preserve">
<style type="text/css">
	.st0{fill:#FFFFFF;}
</style>
<g>
	<path class="st0" d="M40.2,15.2c-0.1-1.3-1.2-2.3-2.5-2.3h-2V5.6c0-1.8-1.5-3.3-3.3-3.3H5.2C3.4,2.3,2,3.7,2,5.6v19.2
		c0,0.6,0.2,1.2,0.5,1.7H0.9c-0.7,0-1.2,0.6-1.2,1.2v1.5c0,1.5,1.3,2.8,2.8,2.8h14.5c0.4,0,0.8-0.4,0.8-0.8c0-0.4-0.4-0.8-0.8-0.8
		H2.6c-0.7,0-1.2-0.5-1.2-1.2V28h24.4v2.5h-5.8c-0.4,0-0.8,0.4-0.8,0.8c0,0.4,0.4,0.8,0.8,0.8h5.8v3.3c0,1.3,1.1,2.4,2.4,2.4h9.8
		c1.3,0,2.4-1.1,2.4-2.4L40.2,15.2z M38.6,33.8v1.5c0,0.5-0.4,0.8-0.8,0.8h-9.8c-0.5,0-0.8-0.4-0.8-0.8v-1.5H38.6z M27.1,18.6v-0.9
		H28v0.9H27.1z M38.6,20v12.3H27.1V20H38.6z M38.6,17.7v0.9h-9.1v-0.9H38.6z M27.9,14.5h9.8c0.5,0,0.8,0.4,0.8,0.8v0.9H27.1v-0.9
		C27.1,14.8,27.6,14.5,27.9,14.5z M25.7,15.2v6l-2.5-1.5c-0.1-0.1-0.3-0.1-0.4-0.1c-0.1,0-0.2,0.1-0.3,0.2c-0.1,0.2-0.1,0.6,0.2,0.7
		l3,1.8v1.7h-20V8.7h26.2v4.2l-3.9,0C26.6,13,25.7,14,25.7,15.2z M5.7,7.3V6h1.5v1.3H5.7z M31.9,6v1.3H8.7V6H31.9z M3.4,24.9V5.6
		c0-1,0.8-1.8,1.8-1.8h27.1c1,0,1.8,0.8,1.8,1.8V13h-0.8V5.7c0-0.7-0.6-1.2-1.2-1.2H5.6c-0.7,0-1.2,0.6-1.2,1.2v18.8
		c0,0.7,0.6,1.2,1.2,1.2h20.2l-0.1,0.9l-20.8,0C4.1,26.4,3.4,25.7,3.4,24.9z"/>
	<path class="st0" d="M32.2,35.6h1.2c0.4,0,0.8-0.4,0.8-0.8c0-0.4-0.4-0.8-0.8-0.8h-1.2c-0.4,0-0.8,0.4-0.8,0.8
		C31.5,35.2,31.9,35.6,32.2,35.6z"/>
	<path class="st0" d="M30.2,22.9L30.2,22.9C30.2,22.9,30.2,22.9,30.2,22.9c-0.1,0-0.2,0-0.3,0.1c-0.1,0.1-0.1,0.2-0.1,0.2
		s0,0.2,0.1,0.3l3.5,3.8c0.1,0.1,0.2,0.1,0.3,0.1c0.1,0,0.2,0,0.2-0.1c0.1-0.1,0.1-0.2,0.1-0.2s0-0.2-0.1-0.3L30.4,23
		C30.3,22.9,30.3,22.9,30.2,22.9z"/>
	<path class="st0" d="M33.9,27.6c0,0.1,0,0.2,0.1,0.3l1.4,1.5c0.1,0.1,0.2,0.1,0.3,0.1c0.1,0,0.2,0,0.2-0.1c0.1-0.1,0.1-0.2,0.1-0.2
		c0-0.1,0-0.2-0.1-0.3l-1.4-1.5c-0.1-0.1-0.4-0.2-0.5,0C33.9,27.5,33.9,27.5,33.9,27.6z"/>
	<path class="st0" d="M21.7,18.8l-10.9-6.6c-0.1-0.1-0.3-0.1-0.4-0.1c0,0,0,0,0,0l0.4-0.5c0.1-0.1,0.1-0.3,0.1-0.5s-0.2-0.3-0.4-0.3
		l-2-0.3c-0.2,0-0.3,0.1-0.4,0.2c-0.1,0.1-0.1,0.3-0.1,0.5l0.8,1.9c0.1,0.2,0.2,0.3,0.4,0.3c0,0,0,0,0.1,0c0.1,0,0.3-0.1,0.4-0.2
		l0.5-0.6c0,0.2,0.1,0.4,0.2,0.5l10.9,6.6c0.1,0,0.2,0.1,0.3,0.1c0.2,0,0.3-0.1,0.4-0.2c0.1-0.1,0.1-0.3,0.1-0.4
		C21.9,19,21.8,18.9,21.7,18.8z M10.1,11.5l-0.8,1.1l-0.5-1.3L10.1,11.5z"/>
	<path class="st0" d="M28.7,23.7c0,0,0.1,0,0.1,0c0.1,0,0.2,0,0.3-0.1l1.4-1.2c0.1-0.1,0.2-0.3,0.1-0.4c0-0.2-0.1-0.3-0.3-0.3
		l-1.7-0.6c-0.1-0.1-0.3,0-0.4,0.1c-0.1,0.1-0.2,0.3-0.1,0.4l0.4,1.8C28.5,23.5,28.6,23.7,28.7,23.7z M28.8,21.8l1.1,0.4L29,22.9
		L28.8,21.8z"/>
	<path class="st0" d="M35.1,30.5c0,0.2,0.1,0.3,0.3,0.3l1.7,0.6c0,0,0.1,0,0.1,0c0.1,0,0.2,0,0.3-0.1c0.1-0.1,0.2-0.3,0.1-0.4
		l-0.4-1.8c0-0.2-0.1-0.3-0.3-0.3c-0.2-0.1-0.3,0-0.4,0.1l-1.4,1.2C35.1,30.2,35,30.3,35.1,30.5z M35.9,30.3l0.9-0.8l0.2,1.1
		L35.9,30.3z"/>
</g>
</svg>
