<?xml version="1.0" encoding="utf-8"?>
<!-- Generator: Adobe Illustrator 25.1.0, SVG Export Plug-In . SVG Version: 6.00 Build 0)  -->
<svg version="1.1" id="Warstwa_1" xmlns="http://www.w3.org/2000/svg" xmlns:xlink="http://www.w3.org/1999/xlink" x="0px" y="0px"
	 viewBox="0 0 40 40" style="enable-background:new 0 0 40 40;" xml:space="preserve">
<style type="text/css">
	.st0{fill:#FFFFFF;stroke:#FFFFFF;stroke-width:0.2293;stroke-miterlimit:10;}
</style>
<g>
	<g>
		<g>
			<path class="st0" d="M22.01,22.4h-0.87l-0.47-1.14H19.3l-0.46,1.14h-0.86l1.71-3.97h0.59L22.01,22.4z M20.38,20.6l-0.4-0.93
				l-0.4,0.93H20.38z"/>
		</g>
		<path class="st0" d="M23.3,18.55l-0.64,0.41c0.3,0.48,0.48,1.05,0.48,1.66c0,1.73-1.41,3.14-3.14,3.14
			c-1.73,0-3.14-1.41-3.14-3.14c0-1.73,1.41-3.14,3.14-3.14c0.6,0,1.15,0.17,1.63,0.46l0.4-0.65c-0.59-0.36-1.28-0.57-2.02-0.57
			c-2.15,0-3.9,1.75-3.9,3.9c0,2.15,1.75,3.9,3.9,3.9c2.15,0,3.9-1.75,3.9-3.9C23.9,19.86,23.68,19.15,23.3,18.55z"/>
	</g>
	<path class="st0" d="M30.22,35.17h-0.03V0.5H9.81v34.67H9.78c-0.96,0-1.75,0.63-1.75,1.4v1.53c0,0.77,0.78,1.4,1.75,1.4h20.44
		c0.96,0,1.75-0.63,1.75-1.4v-1.53C31.97,35.8,31.18,35.17,30.22,35.17z M28.64,2.05V3.1H11.36V2.05H28.64z M11.36,4.66h17.28v30.51
		H11.36V4.66z M30.41,38.1c0,0.09-0.09,0.16-0.2,0.16H9.78c-0.11,0-0.19-0.07-0.19-0.16v-1.53c0-0.09,0.09-0.16,0.19-0.16h20.44
		c0.11,0,0.2,0.07,0.2,0.16V38.1z"/>
</g>
</svg>
