<?xml version="1.0" encoding="utf-8"?>
<!-- Generator: Adobe Illustrator 25.2.0, SVG Export Plug-In . SVG Version: 6.00 Build 0)  -->
<svg version="1.1" id="Warstwa_1" xmlns="http://www.w3.org/2000/svg" xmlns:xlink="http://www.w3.org/1999/xlink" x="0px" y="0px"
	 viewBox="0 0 40 40" style="enable-background:new 0 0 40 40;" xml:space="preserve">
<style type="text/css">
	.st0{fill:#FFFFFF;}
</style>
<g>
	<path class="st0" d="M37.1,25.2H16.8c-1.1,0-2,0.4-2.6,1.2L12,28.1L11.2,27c1.1-1,1.9-2.3,2.2-3.8c0.3-1.4,0.1-2.8-0.6-4.1
		c-0.1-0.2-0.1-0.4,0.1-0.6l7.8-7.8l1.8,1.8c0.4,0.4,0.9,0.6,1.5,0.6s1.1-0.2,1.5-0.6l0.9-0.9c0.8-0.8,0.8-2.1,0-2.9l-1.8-1.8
		l0.8-0.8L27,8c0.4,0.4,0.9,0.6,1.5,0.6h0c0.5,0,1.1-0.2,1.5-0.6l1-1.1c0.4-0.4,0.6-0.9,0.6-1.5s-0.2-1.1-0.6-1.5l-3.3-3.3
		C27.3,0.3,26.7,0,26.2,0h0c-0.5,0-1.1,0.2-1.5,0.6l-15,15c-0.2,0.2-0.4,0.2-0.6,0.1c-2-0.7-4.1-0.6-5.7,0.4c-1.8,1-3,2.7-3.3,4.7
		c-0.3,2,0.2,4,1.5,5.4c1.4,1.6,3.2,2.4,5.1,2.4c0.4,0,0.8,0,1.1-0.1c0.7-0.1,1.4-0.3,2.1-0.8l0.8,1.2c-1,1-1.6,2.3-1.5,3.6
		c0,1.4,0.7,2.7,1.8,3.6l3.1,2.5c0.6,0.8,1.6,1.2,2.6,1.2h20.5c1.5,0,2.8-1.2,2.8-2.8v-9.2C39.9,26.4,38.6,25.2,37.1,25.2z
		 M10.2,25.7l-0.7-0.9c1.4-1.5,1.5-3.9,0-5.4c-1.5-1.6-3.6-1.9-5.3-0.7c-1.7,1.2-2.2,3.6-1,5.4c1.1,1.7,3.4,2.4,5.2,1.6l0.6,0.9
		c-0.5,0.4-0.9,0.5-1.5,0.5l0,0c-1.4,0.2-2.8-0.1-3.9-0.9c-1.1-0.8-1.9-2-2.1-3.4c-0.2-1.4,0.1-2.7,0.9-3.9c0.8-1.1,2-1.9,3.4-2.1
		c0.2,0,0.3,0,0.5-0.1c0.1,0,0.3,0,0.4,0c0.7,0,1.3,0.1,1.8,0.4c0.7,0.3,1.7,0.1,2.2-0.4l15-14.9c0.1-0.1,0.3-0.2,0.5-0.2
		c0.1,0,0.2,0.1,0.3,0.2L29.8,5C29.9,5.1,30,5.2,30,5.4c0,0.1,0,0.2-0.1,0.3c0,0,0,0.1-0.1,0.1l-0.9,0.9c-0.1,0.1-0.3,0.2-0.5,0.2
		c-0.1,0-0.2-0.1-0.3-0.2l-1.9-1.9c-0.3-0.3-0.6-0.4-1-0.4c-0.4,0-0.8,0.1-1,0.4l-0.9,0.9c-0.3,0.3-0.4,0.6-0.4,1
		c0,0.4,0.1,0.8,0.4,1l1.9,1.9c0.1,0.1,0.2,0.3,0.2,0.4c0,0.1,0,0.2-0.1,0.3l0,0c0,0,0,0.1-0.1,0.1l-0.9,0.9
		c-0.1,0.1-0.3,0.2-0.4,0.2c-0.1,0-0.2,0-0.3-0.1c0,0-0.1,0-0.1-0.1l-1.9-1.9c-0.3-0.3-0.6-0.4-1-0.4c0,0,0,0,0,0
		c-0.4,0-0.8,0.1-1,0.4l-7.8,7.8c-0.6,0.6-0.8,1.5-0.4,2.4c0.5,0.9,0.6,2.1,0.4,3.2C11.5,23.9,11,24.9,10.2,25.7z M9.3,22
		c0,1.4-1.2,2.6-2.6,2.6c-1.4,0-2.6-1.2-2.6-2.6c0-1.4,1.2-2.6,2.6-2.6C8.2,19.4,9.3,20.6,9.3,22z M38.4,37.2c0,0.6-0.5,1.2-1.2,1.2
		H16.8c-0.5,0-1.1-0.3-1.4-0.7l-0.1-0.1l-3.2-2.5c-0.7-0.6-1.2-1.5-1.3-2.3c-0.1-0.8,0.2-1.7,0.9-2.4l0.7,1
		c-0.5,0.7-0.5,1.8,0.1,2.6c0.6,0.7,1.7,0.9,2.5,0.5c0.9-0.5,1.3-1.4,1-2.3c-0.2-0.9-1-1.6-2-1.6c-0.2,0-0.3,0-0.5,0.1l-0.7-1.1
		l2.3-1.8l0.1-0.1c0.4-0.5,0.9-0.8,1.4-0.8h20.5c0.6,0,1.2,0.5,1.2,1.2V37.2z M13.4,32.6c0-0.3,0.3-0.6,0.6-0.6
		c0.3,0,0.6,0.3,0.6,0.6c0,0.3-0.3,0.6-0.6,0.6C13.6,33.2,13.4,32.9,13.4,32.6z"/>
	<path class="st0" d="M21.9,30.7c0.3,0,0.6,0.3,0.6,0.6c0,0.5,0.3,0.8,0.8,0.8c0.5,0,0.8-0.3,0.8-0.8c0-1.2-0.9-2.1-2.1-2.1
		c-1.1,0-2.1,0.9-2.1,2.1c0,1.1,0.9,1.6,1.7,2c0.5,0.2,0.9,0.5,0.9,0.6c0,0.3-0.2,0.5-0.6,0.6c-0.3,0-0.6-0.3-0.6-0.6
		c0-0.5-0.3-0.8-0.8-0.8c-0.5,0-0.8,0.3-0.8,0.8c0,1.2,0.9,2.1,2.1,2.1s2.1-0.9,2.1-2.1c0-1.1-0.9-1.6-1.7-2
		c-0.5-0.2-0.9-0.5-0.9-0.6C21.4,30.9,21.6,30.7,21.9,30.7z"/>
	<path class="st0" d="M27.9,30.7c0.5,0,0.8-0.3,0.8-0.8s-0.3-0.8-0.8-0.8h-1.3c-0.8,0-1.4,0.6-1.4,1.4v4c0,0.8,0.6,1.4,1.4,1.4h1.3
		c0.5,0,0.8-0.3,0.8-0.8c0-0.5-0.3-0.8-0.8-0.8h-1.2v-1.1h1.2c0.5,0,0.8-0.3,0.8-0.8c0-0.5-0.3-0.8-0.8-0.8h-1.2v-1.1h1.1L27.9,30.7
		L27.9,30.7z"/>
	<path class="st0" d="M32.2,29.1c-1.3,0-2.4,1-2.4,2.4v2c0,1.3,1,2.4,2.4,2.4s2.4-1,2.4-2.4v-2c0-0.6-0.2-1.1-0.6-1.6
		C33.5,29.4,32.8,29.1,32.2,29.1z M33.1,33.6c0,0.5-0.4,0.9-0.9,0.9s-0.9-0.4-0.9-0.9v-2c0-0.5,0.4-0.9,0.9-0.9
		c0.5,0,0.9,0.4,0.9,0.9V33.6z"/>
</g>
</svg>
