<?xml version="1.0" encoding="utf-8"?>
<!-- Generator: Adobe Illustrator 25.2.0, SVG Export Plug-In . SVG Version: 6.00 Build 0)  -->
<svg version="1.1" id="Warstwa_1" xmlns="http://www.w3.org/2000/svg" xmlns:xlink="http://www.w3.org/1999/xlink" x="0px" y="0px"
	 viewBox="0 0 40 40" style="enable-background:new 0 0 40 40;" xml:space="preserve">
<style type="text/css">
	.st0{fill:#FFFFFF;}
</style>
<g>
	<path class="st0" d="M37.3,25.3H16.8c-1,0-1.9,0.4-2.5,1.2l-2.3,1.8L11.1,27c1.1-1,1.9-2.3,2.2-3.8c0.3-1.4,0.1-2.8-0.6-4.1
		c-0.1-0.2-0.1-0.5,0.1-0.7l7.9-7.9l1.9,1.9c0.8,0.8,2,0.8,2.8,0l0.9-0.9c0.8-0.8,0.8-2,0-2.8l-1.9-1.9l0.9-0.9l1.9,1.9
		c0.8,0.8,2,0.8,2.8,0L31,6.7c0.8-0.8,0.8-2,0-2.8l-3.3-3.3c-0.8-0.8-2-0.8-2.8,0L9.8,15.7c-0.2,0.2-0.5,0.2-0.7,0.1
		c-1.9-0.7-4-0.6-5.7,0.4c-1.8,1-3,2.7-3.3,4.7c-0.3,1.9,0.2,3.9,1.5,5.4c1.3,1.5,3.1,2.4,5.1,2.4c0.4,0,0.8,0,1.1-0.1
		c0.8-0.1,1.5-0.4,2.2-0.8l0.9,1.4c-1,0.9-1.6,2.2-1.5,3.6c0,1.4,0.7,2.7,1.8,3.5l3.1,2.5c0.6,0.8,1.6,1.2,2.5,1.2h20.6
		c1.5,0,2.7-1.2,2.7-2.7V28C40,26.5,38.8,25.3,37.3,25.3z M7.6,27.2c-2.9,0.5-5.7-1.5-6.2-4.4c-0.5-2.9,1.5-5.7,4.4-6.2
		c0.3,0,0.6-0.1,0.9-0.1c0.7,0,1.3,0.1,1.9,0.4c0.7,0.3,1.6,0.1,2.1-0.4L25.8,1.5c0.3-0.3,0.7-0.3,0.9,0l3.3,3.3
		c0.1,0.1,0.2,0.3,0.2,0.5c0,0.2-0.1,0.3-0.2,0.5l-0.9,0.9c-0.3,0.3-0.7,0.3-0.9,0l-1.9-1.9c-0.5-0.5-1.4-0.5-1.9,0l-0.9,0.9
		c-0.5,0.5-0.5,1.4,0,1.9l1.9,1.9c0.1,0.1,0.2,0.3,0.2,0.5c0,0.2-0.1,0.3-0.2,0.5l-0.9,0.9c-0.1,0.1-0.3,0.2-0.5,0.2
		c-0.2,0-0.3-0.1-0.5-0.2l-1.9-1.9c-0.5-0.5-1.4-0.5-1.9,0l-7.9,7.9c-0.6,0.6-0.7,1.5-0.4,2.3c0.5,1,0.6,2.2,0.4,3.3
		c-0.2,1.1-0.8,2.1-1.6,2.9l-0.8-1.1c1.5-1.5,1.5-3.9,0.1-5.4S6,17.5,4.3,18.7c-1.7,1.2-2.1,3.6-1,5.3s3.4,2.4,5.2,1.5l0.7,1.1
		C8.7,27,8.2,27.2,7.6,27.2z M6.7,24.7C5.2,24.7,4,23.5,4,22s1.2-2.7,2.7-2.7s2.7,1.2,2.7,2.7S8.1,24.7,6.7,24.7z M14,32
		c0.4,0,0.7,0.3,0.7,0.7c0,0.4-0.3,0.7-0.7,0.7c-0.4,0-0.7-0.3-0.7-0.7C13.3,32.3,13.6,32,14,32z M38.7,37.3c0,0.7-0.6,1.3-1.3,1.3
		H16.8c-0.6,0-1.2-0.3-1.5-0.7c0,0-0.1-0.1-0.1-0.1l-3.2-2.5c-0.7-0.6-1.2-1.5-1.3-2.4c-0.1-0.9,0.3-1.9,1-2.6l0.8,1.2
		c-0.6,0.7-0.5,1.8,0.1,2.5c0.6,0.7,1.6,0.9,2.4,0.5c0.8-0.4,1.3-1.3,1-2.2c-0.2-0.9-1-1.5-1.9-1.5c-0.2,0-0.3,0-0.5,0.1l-0.8-1.3
		l2.4-1.9c0,0,0.1-0.1,0.1-0.1c0.4-0.5,0.9-0.8,1.5-0.8h20.6c0.7,0,1.3,0.6,1.3,1.3V37.3z"/>
	<path class="st0" d="M22,30.7c0.4,0,0.7,0.3,0.7,0.7c0,0.4,0.3,0.7,0.7,0.7c0.4,0,0.7-0.3,0.7-0.7c0-1.1-0.9-2-2-2
		c-1.1,0-2,0.9-2,2c0,1.1,1,1.6,1.7,1.9c0.6,0.3,1,0.5,1,0.7c0,0.4-0.3,0.6-0.7,0.7c-0.4,0-0.7-0.3-0.7-0.7c0-0.4-0.3-0.7-0.7-0.7
		c-0.4,0-0.7,0.3-0.7,0.7c0,1.1,0.9,2,2,2c1.1,0,2-0.9,2-2c0-1.1-1-1.6-1.7-1.9c-0.6-0.3-1-0.5-1-0.7C21.4,31,21.6,30.7,22,30.7z"/>
	<path class="st0" d="M28,30.7c0.4,0,0.7-0.3,0.7-0.7c0-0.4-0.3-0.7-0.7-0.7h-1.3c-0.7,0-1.3,0.6-1.3,1.3v4c0,0.7,0.6,1.3,1.3,1.3
		H28c0.4,0,0.7-0.3,0.7-0.7c0-0.4-0.3-0.7-0.7-0.7h-1.3v-1.3H28c0.4,0,0.7-0.3,0.7-0.7c0-0.4-0.3-0.7-0.7-0.7h-1.3v-1.3H28z"/>
	<path class="st0" d="M32.3,29.3c-1.3,0-2.3,1-2.3,2.3v2c0,1.3,1,2.3,2.3,2.3c1.3,0,2.3-1,2.3-2.3v-2C34.7,30.4,33.6,29.3,32.3,29.3
		z M33.3,33.7c0,0.6-0.4,1-1,1c-0.6,0-1-0.4-1-1v-2c0-0.6,0.4-1,1-1c0.6,0,1,0.4,1,1V33.7z"/>
</g>
</svg>
