<?xml version="1.0" encoding="utf-8"?>
<!-- Generator: Adobe Illustrator 25.2.0, SVG Export Plug-In . SVG Version: 6.00 Build 0)  -->
<svg version="1.1" id="Capa_1" xmlns="http://www.w3.org/2000/svg" xmlns:xlink="http://www.w3.org/1999/xlink" x="0px" y="0px"
	 viewBox="0 0 40 40" style="enable-background:new 0 0 40 40;" xml:space="preserve">
<style type="text/css">
	.st0{fill:#FFFFFF;}
</style>
<g>
	<g>
		<g>
			<path class="st0" d="M9.3,12.7h-4c-0.4,0-0.7,0.3-0.7,0.7C4.7,13.7,5,14,5.3,14h4c0.4,0,0.7-0.3,0.7-0.7C10,13,9.7,12.7,9.3,12.7
				z"/>
			<path class="st0" d="M9.3,15.3h-4c-0.4,0-0.7,0.3-0.7,0.7c0,0.4,0.3,0.7,0.7,0.7h4c0.4,0,0.7-0.3,0.7-0.7
				C10,15.6,9.7,15.3,9.3,15.3z"/>
			<path class="st0" d="M7.3,19.3c-1.5,0-2.7,1.2-2.7,2.7c0,1.5,1.2,2.7,2.7,2.7c1.5,0,2.7-1.2,2.7-2.7C10,20.5,8.8,19.3,7.3,19.3z
				 M7.3,23.3C6.6,23.3,6,22.7,6,22c0-0.7,0.6-1.3,1.3-1.3s1.3,0.6,1.3,1.3C8.7,22.7,8.1,23.3,7.3,23.3z"/>
			<path class="st0" d="M8,6.7H3.3C3,6.7,2.7,7,2.7,7.3C2.7,7.7,3,8,3.3,8H8c0.4,0,0.7-0.3,0.7-0.7S8.4,6.7,8,6.7z"/>
			<path class="st0" d="M38,28.7c1.1,0,2-0.9,2-2V5.3c0-1.1-0.9-2-2-2h-9.3V2c0-1.1-0.9-2-2-2H13.3c-1.1,0-2,0.9-2,2v1.3H2
				c-1.1,0-2,0.9-2,2v21.3c0,1.1,0.9,2,2,2h4.7V36H5.3C4.6,36,4,36.6,4,37.3H0.7C0.3,37.3,0,37.6,0,38c0,0.4,0.3,0.7,0.7,0.7H4
				C4,39.4,4.6,40,5.3,40h4c0.7,0,1.3-0.6,1.3-1.3h6c0,0.7,0.6,1.3,1.3,1.3h4c0.7,0,1.3-0.6,1.3-1.3h6c0,0.7,0.6,1.3,1.3,1.3h4
				c0.7,0,1.3-0.6,1.3-1.3h3.3c0.4,0,0.7-0.3,0.7-0.7c0-0.4-0.3-0.7-0.7-0.7H36c0-0.7-0.6-1.3-1.3-1.3h-1.3v-7.3H38z M28.7,8h4.7
				C33.7,8,34,7.7,34,7.3c0-0.4-0.3-0.7-0.7-0.7h-4.7v-2H38c0.4,0,0.7,0.3,0.7,0.7V10h-10L28.7,8L28.7,8z M12.7,2
				c0-0.4,0.3-0.7,0.7-0.7h13.3c0.4,0,0.7,0.3,0.7,0.7v6H12.7V2z M12.7,9.3h14.7V30c0,0.4-0.3,0.7-0.7,0.7H13.3
				c-0.4,0-0.7-0.3-0.7-0.7L12.7,9.3L12.7,9.3z M1.3,5.3C1.3,5,1.6,4.7,2,4.7h9.3v2h-0.7C10.3,6.7,10,7,10,7.3C10,7.7,10.3,8,10.7,8
				h0.7v2h-10C1.3,10,1.3,5.3,1.3,5.3z M2,27.3c-0.4,0-0.7-0.3-0.7-0.7V11.3h10v16H2z M5.3,38.7v-1.3h4l0,0.7l0,0l0,0l0,0.7H5.3
				L5.3,38.7z M16.7,37.3h-6c0-0.7-0.6-1.3-1.3-1.3H8v-7.3h3.3V30c0,1.1,0.9,2,2,2h6v4H18C17.3,36,16.7,36.6,16.7,37.3z M18,38.7
				v-1.3h4l0,0.7l0,0l0,0l0,0.7H18z M29.3,37.3h-6c0-0.7-0.6-1.3-1.3-1.3h-1.3v-4h6c1.1,0,2-0.9,2-2v-1.3H32V36h-1.3
				C29.9,36,29.3,36.6,29.3,37.3z M34.7,37.3l0,0.7l0,0l0,0l0,0.7h-4v-1.3H34.7L34.7,37.3z M28.7,27.3v-16h10v15.3
				c0,0.4-0.3,0.7-0.7,0.7L28.7,27.3L28.7,27.3z"/>
			<path class="st0" d="M34.7,12.7h-4c-0.4,0-0.7,0.3-0.7,0.7c0,0.4,0.3,0.7,0.7,0.7h4c0.4,0,0.7-0.3,0.7-0.7
				C35.3,13,35,12.7,34.7,12.7z"/>
			<path class="st0" d="M34.7,15.3h-4c-0.4,0-0.7,0.3-0.7,0.7c0,0.4,0.3,0.7,0.7,0.7h4c0.4,0,0.7-0.3,0.7-0.7
				C35.3,15.6,35,15.3,34.7,15.3z"/>
			<path class="st0" d="M32.7,19.3c-1.5,0-2.7,1.2-2.7,2.7c0,1.5,1.2,2.7,2.7,2.7s2.7-1.2,2.7-2.7C35.3,20.5,34.1,19.3,32.7,19.3z
				 M32.7,23.3c-0.7,0-1.3-0.6-1.3-1.3s0.6-1.3,1.3-1.3c0.7,0,1.3,0.6,1.3,1.3C34,22.7,33.4,23.3,32.7,23.3z"/>
			<path class="st0" d="M20,22.7c-1.5,0-2.7,1.2-2.7,2.7S18.5,28,20,28s2.7-1.2,2.7-2.7C22.7,23.9,21.5,22.7,20,22.7z M20,26.7
				c-0.7,0-1.3-0.6-1.3-1.3S19.3,24,20,24s1.3,0.6,1.3,1.3C21.3,26.1,20.7,26.7,20,26.7z"/>
			<path class="st0" d="M36.7,6.7H36c-0.4,0-0.7,0.3-0.7,0.7C35.3,7.7,35.6,8,36,8h0.7c0.4,0,0.7-0.3,0.7-0.7
				C37.3,7,37,6.7,36.7,6.7z"/>
			<path class="st0" d="M22,4h-7.3C14.3,4,14,4.3,14,4.7c0,0.4,0.3,0.7,0.7,0.7H22c0.4,0,0.7-0.3,0.7-0.7S22.4,4,22,4z"/>
			<path class="st0" d="M25.3,4h-0.7C24.3,4,24,4.3,24,4.7c0,0.4,0.3,0.7,0.7,0.7h0.7C25.7,5.3,26,5,26,4.7S25.7,4,25.3,4z"/>
			<path class="st0" d="M16.7,12h6.7c0.4,0,0.7-0.3,0.7-0.7c0-0.4-0.3-0.7-0.7-0.7h-6.7c-0.4,0-0.7,0.3-0.7,0.7
				C16,11.7,16.3,12,16.7,12z"/>
			<path class="st0" d="M16.7,14.7h6.7c0.4,0,0.7-0.3,0.7-0.7c0-0.4-0.3-0.7-0.7-0.7h-6.7c-0.4,0-0.7,0.3-0.7,0.7
				C16,14.4,16.3,14.7,16.7,14.7z"/>
			<path class="st0" d="M16.7,17.3h6.7c0.4,0,0.7-0.3,0.7-0.7c0-0.4-0.3-0.7-0.7-0.7h-6.7c-0.4,0-0.7,0.3-0.7,0.7
				C16,17,16.3,17.3,16.7,17.3z"/>
		</g>
	</g>
</g>
</svg>
