<?xml version="1.0" encoding="utf-8"?>
<!-- Generator: Adobe Illustrator 25.2.0, SVG Export Plug-In . SVG Version: 6.00 Build 0)  -->
<svg version="1.1" id="Capa_1" xmlns="http://www.w3.org/2000/svg" xmlns:xlink="http://www.w3.org/1999/xlink" x="0px" y="0px"
	 viewBox="0 0 40 40" style="enable-background:new 0 0 40 40;" xml:space="preserve">
<style type="text/css">
	.st0{fill:#FFFFFF;}
</style>
<g>
	<path class="st0" d="M5.4,14.2h4c0.5,0,0.8-0.4,0.8-0.8c0-0.3-0.3-0.7-0.8-0.7h-4c-0.5,0-0.8,0.4-0.8,0.8l0,0
		C4.7,13.8,5,14.2,5.4,14.2z"/>
	<path class="st0" d="M5.4,16.8h4c0.5,0,0.8-0.4,0.8-0.8s-0.4-0.8-0.8-0.8h-4c-0.5,0-0.8,0.4-0.8,0.8S4.9,16.8,5.4,16.8z"/>
	<path class="st0" d="M7.4,24.8c1.5,0,2.8-1.3,2.8-2.8s-1.3-2.8-2.8-2.8S4.6,20.4,4.6,22S5.8,24.8,7.4,24.8z M6.2,22
		c0-0.6,0.5-1.2,1.2-1.2s1.2,0.5,1.2,1.2c0,0.3,0,0.5-0.2,0.7c-0.2,0.3-0.6,0.4-0.9,0.4C6.8,23.2,6.2,22.6,6.2,22z"/>
	<path class="st0" d="M3.4,8.2h4.7c0.5,0,0.8-0.4,0.8-0.8c0-0.4-0.3-0.7-0.8-0.7H3.4C3,6.7,2.7,7,2.7,7.4C2.7,7.8,3,8.2,3.4,8.2z"/>
	<path class="st0" d="M37.9,28.8c1.2,0,2.1-0.9,2.1-2.1V5.4c0-1.2-0.9-2.1-2.1-2.1h-9.1V2.1c0-1.2-0.9-2.1-2.1-2.1H13.3
		c-1.2,0-2.1,0.9-2.1,2.1v1.2H2.1C0.9,3.3,0,4.2,0,5.4v21.2c0,1.2,0.9,2.1,2.1,2.1h4.5v7.1H5.4c-0.7,0-1.3,0.6-1.4,1.3H0.8
		c-0.5,0-0.8,0.4-0.8,0.8s0.4,0.8,0.8,0.8H4C4,39.4,4.7,40,5.4,40h4c0.7,0,1.3-0.6,1.4-1.3h5.7c0.1,0.7,0.7,1.3,1.4,1.3h4
		c0.7,0,1.3-0.6,1.4-1.3H29c0.1,0.7,0.7,1.3,1.4,1.3h4c0.7,0,1.3-0.6,1.4-1.3H39c0.5,0,0.8-0.4,0.8-0.8s-0.4-0.8-0.8-0.8h-3
		c-0.1-0.7-0.7-1.3-1.4-1.3h-1.2v-7H37.9z M34.5,37.4v1h-3.7v-1H34.5z M21.9,37.4v1.1h-3.7v-1.1H21.9z M12.9,8V2.1
		c0-0.3,0.2-0.6,0.6-0.6h13.2c0.3,0,0.6,0.2,0.6,0.6V8H12.9z M28.8,8.2h4.5c0.4,0,0.7-0.4,0.7-0.8c0-0.5-0.4-0.8-0.8-0.8h-4.5V4.8
		h9.2c0.3,0,0.6,0.2,0.6,0.6v4.5h-9.7V8.2z M38.5,11.5v15.1c0,0.3-0.2,0.6-0.6,0.6h-9.1V11.5H38.5z M20.8,32h5.8
		c1.2,0,2.1-0.9,2.1-2.1v-1.2h3v7h-1.2c-0.8,0-1.4,0.6-1.5,1.3h-5.7c-0.1-0.7-0.7-1.3-1.4-1.3h-1.2V32z M26.7,30.5H13.3
		c-0.3,0-0.6-0.2-0.6-0.6l0.1-20.4h14.4v20.4C27.2,30.3,27,30.5,26.7,30.5z M8.2,28.8h3v1.2c0,1.2,0.9,2.1,2.1,2.1h5.8v3.7H18
		c-0.7,0-1.3,0.6-1.4,1.3h-5.7c-0.1-0.7-0.7-1.3-1.4-1.3H8.2V28.8z M11.2,11.5v15.7H2.1c-0.3,0-0.6-0.2-0.6-0.6V11.5H11.2z
		 M11.2,6.7h-0.6c-0.4,0-0.7,0.4-0.7,0.7c0,0.5,0.4,0.8,0.8,0.8h0.6v1.7H1.6C1.6,9.4,1.5,7,1.5,5.4c0-0.2,0.2-0.5,0.6-0.5h9.1V6.7z
		 M9.2,37.4v1.1H5.5v-1.1H9.2z"/>
	<path class="st0" d="M30.6,14.3h4c0.5,0,0.8-0.4,0.8-0.8c-0.1-0.5-0.5-0.8-0.8-0.8h-4c-0.5,0-0.8,0.4-0.8,0.8
		C29.8,13.9,30.2,14.3,30.6,14.3z"/>
	<path class="st0" d="M30.6,16.8h4c0.5,0,0.8-0.4,0.8-0.8c-0.1-0.5-0.5-0.8-0.8-0.8h-4c-0.5,0-0.8,0.4-0.8,0.8S30.2,16.8,30.6,16.8z
		"/>
	<path class="st0" d="M32.6,24.8c1.5,0,2.8-1.3,2.8-2.8c-0.1-1.5-1.4-2.8-2.8-2.8c-1.5,0-2.8,1.3-2.8,2.8S31.1,24.8,32.6,24.8z
		 M32.6,20.8c0.6,0,1.2,0.5,1.2,1.2c0,0.6-0.5,1.2-1.2,1.2c-0.6,0-1.2-0.5-1.2-1.2C31.5,21.4,32,20.8,32.6,20.8z"/>
	<path class="st0" d="M20,22.6c-1.5,0-2.8,1.3-2.8,2.8c0,1.5,1.2,2.7,2.8,2.7c1.5,0,2.8-1.3,2.8-2.8C22.8,23.8,21.5,22.6,20,22.6z
		 M21.2,25.3c0,0.7-0.5,1.3-1.2,1.3c-0.6,0-1.2-0.5-1.2-1.2c0-0.7,0.6-1.3,1.2-1.3C20.6,24.1,21.2,24.6,21.2,25.3z"/>
	<path class="st0" d="M36.6,6.7h-0.7c-0.5,0-0.8,0.4-0.8,0.8c0,0.3,0.3,0.7,0.8,0.7h0.7c0.5,0,0.8-0.4,0.8-0.8l0,0
		C37.3,7,37,6.7,36.6,6.7z"/>
	<path class="st0" d="M22,4h-7.3c-0.5,0-0.8,0.4-0.8,0.8s0.4,0.8,0.8,0.8H22c0.5,0,0.8-0.4,0.8-0.8S22.5,4,22,4z"/>
	<path class="st0" d="M25.3,4h-0.7c-0.3,0-0.7,0.3-0.7,0.8c0,0.5,0.4,0.8,0.8,0.8h0.7l0,0c0.3-0.1,0.7-0.4,0.7-0.8
		C26.1,4.4,25.7,4,25.3,4z"/>
	<path class="st0" d="M23.4,10.5h-6.7c-0.5,0-0.8,0.4-0.8,0.8c0,0.5,0.4,0.8,0.8,0.8h6.7c0.5,0,0.8-0.4,0.8-0.8
		C24.2,10.9,23.8,10.5,23.4,10.5z"/>
	<path class="st0" d="M23.4,13.2h-6.7c-0.5,0-0.8,0.4-0.8,0.8c0,0.5,0.4,0.8,0.8,0.8h6.7c0.5,0,0.8-0.4,0.8-0.8
		C24.2,13.6,23.8,13.2,23.4,13.2z"/>
	<path class="st0" d="M23.4,15.8h-6.7c-0.5,0-0.8,0.4-0.8,0.8s0.4,0.8,0.8,0.8h6.7c0.5,0,0.8-0.4,0.8-0.8S23.8,15.8,23.4,15.8z"/>
</g>
</svg>
