<?xml version="1.0" encoding="utf-8"?>
<!-- Generator: Adobe Illustrator 25.1.0, SVG Export Plug-In . SVG Version: 6.00 Build 0)  -->
<svg version="1.1" id="Warstwa_1" xmlns="http://www.w3.org/2000/svg" xmlns:xlink="http://www.w3.org/1999/xlink" x="0px" y="0px"
	 viewBox="0 0 40 40" style="enable-background:new 0 0 40 40;" xml:space="preserve">
<style type="text/css">
	.st0{fill:#FFFFFF;}
</style>
<g>
	<path class="st0" d="M37.16,10.25h-4.24L30.8,6.73c-0.14-0.23-0.39-0.38-0.66-0.38h-7.8c-0.27,0-0.53,0.15-0.67,0.38l-2.11,3.52
		H12.2V8.69c0-0.86-0.7-1.56-1.56-1.56h-3.9c-0.86,0-1.56,0.7-1.56,1.56v1.56H2.84c-1.3,0-2.34,1.04-2.34,2.34v18.72
		c0,1.3,1.04,2.34,2.34,2.34h34.32c1.3,0,2.34-1.04,2.34-2.34V12.59C39.5,11.29,38.46,10.25,37.16,10.25L37.16,10.25z M22.78,7.91
		h6.91l1.4,2.34h-9.72L22.78,7.91z M6.74,8.69h3.9v1.56h-3.9C6.74,10.25,6.74,8.69,6.74,8.69z M37.94,31.31
		c0,0.43-0.35,0.78-0.78,0.78H2.84c-0.43,0-0.78-0.35-0.78-0.78V12.59c0-0.43,0.35-0.78,0.78-0.78h34.32c0.43,0,0.78,0.35,0.78,0.78
		V31.31z"/>
	<path class="st0" d="M26.63,12.59c-3.78,0-7.2,2.28-8.65,5.78c-1.45,3.5-0.64,7.53,2.03,10.2c2.68,2.68,6.7,3.48,10.2,2.03
		s5.78-4.87,5.78-8.65C35.98,16.78,31.8,12.6,26.63,12.59L26.63,12.59z M26.63,29.75c-3.16,0-6-1.9-7.21-4.82s-0.54-6.27,1.69-8.5
		s5.59-2.9,8.5-1.69s4.82,4.06,4.82,7.21C34.43,26.26,30.94,29.75,26.63,29.75L26.63,29.75z"/>
	<path class="st0" d="M26.63,15.71c-2.53,0-4.8,1.52-5.76,3.85c-0.97,2.33-0.43,5.01,1.36,6.8c1.78,1.78,4.47,2.32,6.8,1.36
		s3.85-3.24,3.85-5.76C32.87,18.51,30.07,15.71,26.63,15.71L26.63,15.71z M26.63,26.63c-1.89,0-3.6-1.14-4.32-2.89
		c-0.72-1.75-0.32-3.76,1.01-5.1c1.34-1.34,3.35-1.74,5.1-1.01c1.75,0.72,2.89,2.43,2.89,4.32C31.31,24.53,29.21,26.63,26.63,26.63
		L26.63,26.63z"/>
	<path class="st0" d="M28.19,19.61h-3.12c-0.43,0-0.78,0.35-0.78,0.78v3.12c0,0.43,0.35,0.78,0.78,0.78h3.12
		c0.43,0,0.78-0.35,0.78-0.78v-3.12C28.97,19.96,28.62,19.61,28.19,19.61L28.19,19.61z M27.41,22.73h-1.56v-1.56h1.56V22.73z"/>
	<path class="st0" d="M12.2,13.37H5.18c-0.43,0-0.78,0.35-0.78,0.78v3.12c0,0.43,0.35,0.78,0.78,0.78h7.02
		c0.43,0,0.78-0.35,0.78-0.78v-3.12C12.98,13.72,12.63,13.37,12.2,13.37L12.2,13.37z M11.42,16.49H5.96v-1.56h5.46V16.49z"/>
</g>
</svg>
