<?xml version="1.0" encoding="utf-8"?>
<!-- Generator: Adobe Illustrator 25.2.0, SVG Export Plug-In . SVG Version: 6.00 Build 0)  -->
<svg version="1.1" id="Capa_1" xmlns="http://www.w3.org/2000/svg" xmlns:xlink="http://www.w3.org/1999/xlink" x="0px" y="0px"
	 viewBox="0 0 40 40" style="enable-background:new 0 0 40 40;" xml:space="preserve">
<style type="text/css">
	.st0{fill:#FFFFFF;}
</style>
<g>
	<path class="st0" d="M0.7,8.8c0.4,0,0.8-0.4,0.8-0.8V6.9h9.9c0,0,0,0.1,0,0.1v2.7l-0.3-0.3c-0.2-0.2-0.7-0.2-1-0.1
		c-0.1,0-0.2,0.1-0.3,0.2c-0.1,0.2-0.2,0.5,0,0.8l1.6,1.6c0.2,0.2,0.4,0.3,0.7,0.3c0.2,0,0.5-0.1,0.6-0.2l1.5-1.4
		c0.2-0.2,0.2-0.5,0.2-0.6c0-0.1,0-0.4-0.2-0.6c-0.2-0.2-0.4-0.2-0.6-0.2c-0.1,0-0.4,0-0.6,0.2l-0.3,0.3V7.1c0,0,0-0.1,0-0.1h21.7
		v4.5c0,0.4,0.4,0.8,0.8,0.8c0.4,0,0.6-0.4,0.7-0.6l0-7.4C36.1,1.9,34.2,0,32,0H4.2C1.9,0,0,1.8,0,4.1V8C0,8.5,0.3,8.8,0.7,8.8z
		 M1.6,5.3V4.1c0-1.4,1-2.4,2.4-2.4h28.1c1.4,0,2.5,1.1,2.5,2.5v1.1H1.6z"/>
	<path class="st0" d="M30.2,19.7c0.3,0.3,0.7,0.5,1.2,0.5h1.4c0.8,0,1.5-0.7,1.5-1.5v-1.4c0-0.8-0.7-1.5-1.5-1.5h-1.4
		c-0.8,0-1.5,0.7-1.5,1.5l0,1.3C29.9,19.1,30,19.4,30.2,19.7z M30.7,17.4c0-0.4,0.3-0.7,0.7-0.7h1.4c0.4,0,0.7,0.3,0.7,0.7v1.4
		c0,0.4-0.3,0.7-0.7,0.7h-1.4c-0.3,0-0.5-0.1-0.6-0.2c-0.1-0.1-0.1-0.2-0.1-0.5V17.4z"/>
	<path class="st0" d="M39.2,33.4c0.4,0,0.8-0.4,0.8-0.8V29c0-1.2-0.5-2.5-1.4-3.3l-2-1.9v-7.7c0-1.5-1.3-2.7-2.7-2.7h-9.3
		c-1.5,0-2.7,1.3-2.7,2.7v1.4c0,0.4,0.4,0.8,0.8,0.8c0.4,0,0.8-0.4,0.8-0.8v-1.4c0-0.8,0.7-1.3,1.3-1.3H34c0.8,0,1.3,0.7,1.3,1.3
		v12.3l-1.5-1.5c-0.4-0.5-1.1-0.8-1.9-0.8c-0.7,0-1.3,0.3-1.8,0.8c-0.5,0.4-0.8,1.1-0.8,1.9c0,0.7,0.3,1.3,0.8,1.8l2.3,2.3l-0.3,0.5
		l-7.4,0c-0.8,0-1.3-0.7-1.3-1.3V20c0-0.4-0.4-0.8-0.8-0.8c-0.4,0-0.8,0.4-0.8,0.8v12c0,1.5,1.3,2.7,2.7,2.7h6.9
		c-0.4,1.7,0,4,1.5,5.1l0.1,0.1h5.9c0.4,0,0.8-0.4,0.8-0.8v-4c0-0.4-0.4-0.8-0.8-0.8c-0.4,0-0.8,0.4-0.8,0.9v3.3h-4.8l0,0
		c-1.2-1.6-1.1-3.9,0.2-5.5c0.2-0.3,0.1-0.7-0.1-0.9l-2.8-2.8c-0.2-0.2-0.3-0.6-0.3-0.8c0.1-0.4,0.3-0.7,0.4-0.9
		c0.2-0.2,0.5-0.2,0.8-0.2c0.3,0,0.6,0.1,0.8,0.4l3,3c0.2,0.2,0.4,0.2,0.6,0.2c0.1,0,0.3,0,0.6-0.2c0.2-0.2,0.2-0.4,0.2-0.5
		c0-0.1,0-0.3-0.2-0.5v-3.8l0.7,0.8c0.6,0.6,1,1.4,1,2.3v3.6C38.4,33.1,38.9,33.4,39.2,33.4z"/>
	<path class="st0" d="M25.3,37.4h-1.5l-0.9-2.2c0-0.2-0.3-0.5-0.7-0.5h-0.1c-0.3,0-0.6,0.3-0.6,0.6v0.3l0.7,1.8h-8.5l2.1-5.2h2.8
		c0.4,0,0.8-0.4,0.8-0.8c0-0.4-0.4-0.8-0.8-0.8H3.4c-1.1,0-1.9-0.8-1.9-1.9v-1.3h18.6c0.4,0,0.8-0.4,0.8-0.8c0-0.4-0.4-0.8-0.8-0.8
		H1.6V10.7c0-0.4-0.4-0.8-0.8-0.8S0,10.3,0,10.7v17.9C0,30.5,1.6,32,3.5,32h10.9l-2.1,5.2h-1.5c-0.5,0-0.8,0.4-0.8,0.9
		c0,0.6,0.5,0.9,0.8,0.9h14.6c0.4,0,0.8-0.4,0.8-0.8C26.1,37.8,25.7,37.4,25.3,37.4z"/>
	<path class="st0" d="M28,20.4c0.6,0,1.1-0.5,1.1-1.1s-0.5-1.1-1.1-1.1c-0.6,0-1.1,0.5-1.1,1.1S27.4,20.4,28,20.4z"/>
	<path class="st0" d="M28,23.1c0.6,0,1.1-0.5,1.1-1.1S28.6,21,28,21c-0.6,0-1.1,0.5-1.1,1.1S27.4,23.1,28,23.1z"/>
	<path class="st0" d="M28,25.6c0.6,0,1.1-0.5,1.1-1.1c0-0.6-0.4-1-1.1-1c-0.6,0-1.1,0.5-1.1,1.1C26.9,25.2,27.3,25.6,28,25.6z"/>
	<path class="st0" d="M17.3,2.3H6.2c-0.6,0-1.3,0.5-1.3,1.3c0,0.7,0.4,1.3,1.3,1.3h11.1c0.4,0,0.8-0.2,1-0.5
		c0.2-0.3,0.3-0.5,0.3-0.8C18.6,3,18,2.3,17.3,2.3z M17.8,4.1c-0.1,0.1-0.4,0.2-0.6,0.2H6.2c-0.7,0-0.8-0.5-0.8-0.8
		c0-0.5,0.4-0.8,0.8-0.8h11.1c0.4,0,0.8,0.4,0.8,0.8C18,3.8,18,3.9,17.8,4.1z"/>
	<path class="st0" d="M32.2,2.3c-0.5,0-0.8,0.3-0.9,0.7c-0.1-0.4-0.5-0.7-1-0.7c-0.5,0-0.8,0.3-0.9,0.7c-0.1-0.4-0.5-0.7-1-0.7
		c-0.6,0-1.1,0.5-1.1,1.1v0.3c0,0.6,0.5,1.1,1.1,1.1c0.5,0,0.9-0.3,1-0.7c0.1,0.4,0.5,0.7,0.9,0.7c0.5,0,0.9-0.3,1-0.7
		c0.1,0.4,0.5,0.7,0.9,0.7c0.6,0,1.1-0.5,1.1-1.1V3.3C33.2,2.8,32.8,2.3,32.2,2.3z M28.7,3.6c0,0.2-0.2,0.4-0.4,0.4
		c-0.2,0-0.4-0.2-0.4-0.4V3.3c0-0.2,0.2-0.4,0.4-0.4c0.2,0,0.4,0.2,0.4,0.4V3.6z M30.7,3.6c0,0.2-0.2,0.4-0.4,0.4
		c-0.3,0-0.4-0.4-0.4-0.4V3.3c0-0.1,0-0.4,0.4-0.4c0.2,0,0.4,0.2,0.4,0.4V3.6z M32.6,3.6c0,0.2-0.2,0.4-0.4,0.4
		c-0.3,0-0.4-0.4-0.4-0.4V3.3c0-0.1,0-0.4,0.4-0.4c0.2,0,0.4,0.2,0.4,0.4V3.6z"/>
	<path class="st0" d="M24.3,28.7v2.2c0,1.2,1.1,2,2.1,2c1.1,0,2-0.9,2-2v-2.2c0-1.2-1.1-2-2.1-2C25.2,26.7,24.3,27.6,24.3,28.7z
		 M27.7,28.7v2.2c0,0.8-0.7,1.3-1.3,1.3c-0.7,0-1.4-0.5-1.4-1.3v-2.2c0-0.8,0.7-1.4,1.4-1.4C27,27.4,27.7,27.9,27.7,28.7z"/>
	<path class="st0" d="M17.1,24.9c1,0,1.8-0.9,1.8-1.8c0-1-0.9-1.8-1.8-1.8c-0.3,0-0.6,0.1-0.8,0.2H7.9c-0.3-0.1-0.7-0.3-1.4-0.1
		c-0.2-0.1-0.3-0.3-0.3-0.5c0-0.4,0.3-0.6,0.6-0.6h9.9c0.4,0,0.7-0.3,0.8-0.6l1.4-5.3l0-0.1c0-0.4-0.2-0.7-0.5-0.8l-11.9,0l-0.5-0.6
		c0.3-0.7,0.3-1.4-0.3-2.1c-0.5-0.5-0.9-0.7-1.4-0.7c-1,0-1.8,0.9-1.8,1.8s0.9,1.8,1.8,1.8c0.2,0,0.4,0,0.6-0.1l0.6,0.9l1,4.3
		c-1,0.1-1.8,1.1-1.8,2.4c0,0.5,0.2,1,0.7,1.4c-0.1,0.2-0.1,0.4-0.1,0.5c0,1,0.9,1.8,1.8,1.8S9,24,9,23c0-0.1,0-0.2,0-0.3h6.2
		c0,0.1,0,0.2,0,0.4C15.2,24.1,16.1,24.9,17.1,24.9z M8.7,14.7v1.2H7.4l-0.3-1.2H8.7z M10.1,15.9v-1.2h1.2v1.2H10.1z M12.9,15.9
		v-1.2h1.2v1.2H12.9z M15.5,15.9v-1.2h1.6l-0.3,1.2H15.5z M12.9,18.7v-1.2h1.2v1.2H12.9z M15.5,18.7v-1.2h1l-0.3,1.2H15.5z
		 M10.1,18.7v-1.2h1.2v1.2H10.1z M8.6,17.5v1.2H7.9l-0.3-1.2H8.6z"/>
</g>
</svg>
