<?xml version="1.0" encoding="utf-8"?>
<!-- Generator: Adobe Illustrator 25.2.0, SVG Export Plug-In . SVG Version: 6.00 Build 0)  -->
<svg version="1.1" id="Capa_1" xmlns="http://www.w3.org/2000/svg" xmlns:xlink="http://www.w3.org/1999/xlink" x="0px" y="0px"
	 viewBox="0 0 40 40" style="enable-background:new 0 0 40 40;" xml:space="preserve">
<style type="text/css">
	.st0{fill:#FFFFFF;}
</style>
<g>
	<path class="st0" d="M11.6,6.8v3.6l-0.9-0.9c-0.1-0.1-0.4-0.1-0.6,0C10,9.5,9.9,9.8,10,10l1.6,1.5c0.2,0.2,0.6,0.2,0.8,0l1.5-1.4
		C14,10,14,9.8,14,9.8c0-0.1,0-0.2-0.1-0.3c-0.1-0.1-0.2-0.1-0.3-0.1s-0.2,0-0.3,0.1l-0.9,0.9V6.8c0-0.2-0.2-0.4-0.4-0.4
		C11.8,6.3,11.6,6.5,11.6,6.8z"/>
	<path class="st0" d="M0.4,8.2c0.2,0,0.4-0.2,0.4-0.4V6.3H12h23.2v4.9c0,0.2,0.2,0.4,0.4,0.4s0.3-0.2,0.4-0.4V3.8
		C36,1.8,34.3,0,32.2,0H3.9C1.7,0,0.1,1.8,0.1,3.8v4C0.1,8,0.2,8.2,0.4,8.2z M0.9,3.8C0.9,2.2,2.1,1,3.7,1h28.6
		c1.6,0,2.9,1.3,2.9,2.9v1.5H0.9V3.8z"/>
	<path class="st0" d="M33,19.8c0.6,0,1.1-0.5,1.1-1.1v-1.4c0-0.6-0.5-1.1-1.1-1.1h-1.4c-0.6,0-1.1,0.5-1.1,1.1v1.4
		c-0.1,0.6,0.4,1.1,1.1,1.1H33z M31.2,17h2v2h-2V17z"/>
	<path class="st0" d="M39.5,33.2c0.2,0,0.4-0.2,0.4-0.4v-3.7c0-1.1-0.5-2.3-1.3-3.1L36.5,24v-8c0-1.3-1.1-2.4-2.4-2.4h-9.5
		c-1.3,0-2.4,1.1-2.4,2.4v1.4c0,0.2,0.2,0.4,0.4,0.4s0.4-0.2,0.4-0.4V16c0-1,0.8-1.7,1.7-1.7h9.5c1,0,1.7,0.8,1.7,1.7v13.4l-2.2-2.2
		c-0.4-0.5-1-0.7-1.6-0.7c-0.6,0-1.2,0.3-1.6,0.7c-0.5,0.4-0.7,1-0.7,1.6c0,0.6,0.3,1.2,0.7,1.6l2.6,2.6L33,33.1
		c-0.1,0.2-0.2,0.4-0.3,0.6L32.6,34h-7.8c-1,0-1.7-0.8-1.7-1.7V20c0-0.2-0.2-0.4-0.4-0.4c-0.2,0-0.4,0.2-0.4,0.4v12.2
		c0,1.3,1.1,2.4,2.4,2.4h7.5L32.1,35c-0.4,1.7,0.1,3.9,1.4,4.9c0.2,0,5.9,0,5.9,0c0.2,0,0.4-0.2,0.4-0.4v-4.1c0-0.2-0.2-0.4-0.4-0.4
		S39,35.2,39,35.5v3.7h-5.5L33.4,39c-1.3-1.8-1.2-4.3,0.2-6c0.1-0.2,0.1-0.4,0-0.5l-2.8-2.8c-0.3-0.3-0.4-0.8-0.4-1.2
		c0.1-0.4,0.3-0.8,0.6-1.1c0.3-0.2,0.6-0.3,1-0.3c0.4,0,0.8,0.2,1.1,0.5l3,3c0.1,0.1,0.2,0.1,0.3,0.1c0.1,0,0.2,0,0.3-0.1
		c0.1-0.1,0.1-0.4,0-0.5L36.6,30v-5l1.4,1.5c0.7,0.7,1.1,1.6,1.1,2.6v3.7C39.1,33,39.4,33.2,39.5,33.2z"/>
	<path class="st0" d="M25.4,38h-1.8l-1-2.5c0-0.1-0.1-0.2-0.3-0.2h-0.1c-0.1,0-0.2,0.1-0.2,0.2s0,0.2,0,0.3l0.9,2.2h-9.7l2.4-6h3.1
		c0.2,0,0.4-0.2,0.4-0.4c0-0.2-0.2-0.4-0.4-0.4H3.1c-1.3,0-2.3-1-2.3-2.3v-1.7h19.3c0.2,0,0.4-0.2,0.4-0.4s-0.2-0.4-0.4-0.4H0.9
		V10.5c0-0.2-0.2-0.4-0.4-0.4c-0.2,0-0.4,0.2-0.4,0.4v18.2c0,1.7,1.4,3.1,3.1,3.1h11.6l-2.4,6h-1.8c-0.3,0-0.4,0.3-0.4,0.5
		c0,0.5,0.4,0.5,0.4,0.5h14.8c0.2,0,0.4-0.2,0.4-0.4S25.6,38,25.4,38z"/>
	<circle class="st0" cx="28.1" cy="19.3" r="0.7"/>
	<circle class="st0" cx="28.1" cy="22" r="0.7"/>
	<path class="st0" d="M28.1,25.3c0.4,0,0.7-0.3,0.7-0.7S28.5,24,28.1,24s-0.7,0.3-0.7,0.7S27.7,25.3,28.1,25.3z"/>
	<path class="st0" d="M19.1,1.9h-15c-0.7,0-1.4,0.5-1.4,1.4c0,0.7,0.4,1.4,1.4,1.4h15c0.4,0,0.9-0.2,1.1-0.5
		c0.2-0.3,0.3-0.6,0.3-0.9C20.5,2.6,19.9,1.9,19.1,1.9z M19.6,3.6c-0.1,0.2-0.3,0.2-0.5,0.2h-15c-0.6,0-0.6-0.4-0.6-0.6
		c0-0.4,0.3-0.6,0.6-0.6h15c0.4,0,0.6,0.3,0.6,0.7C19.8,3.5,19.7,3.6,19.6,3.6z"/>
	<path class="st0" d="M28.1,2.1c-0.5,0-0.9,0.4-0.9,0.9v0.3c0,0.5,0.4,0.9,0.9,0.9S29,3.8,29,3.3V3C29,2.5,28.6,2.1,28.1,2.1z"/>
	<path class="st0" d="M30.4,2.1c-0.5,0-0.8,0.4-0.8,0.9v0.3c0,0.5,0.3,0.9,0.8,0.9s0.9-0.4,0.9-0.9V3C31.3,2.5,30.9,2.1,30.4,2.1z"
		/>
	<path class="st0" d="M32.7,2.1c-0.5,0-0.8,0.4-0.8,0.9v0.3c0,0.5,0.3,0.9,0.8,0.9s0.9-0.4,0.9-0.9V3C33.6,2.5,33.2,2.1,32.7,2.1z"
		/>
	<path class="st0" d="M23.9,28.8V31c0,1.4,1.1,2.5,2.5,2.5s2.5-1.1,2.5-2.5v-2.2c0-1.4-1.1-2.5-2.5-2.5S23.9,27.4,23.9,28.8z
		 M28.2,28.8V31c0,1-0.8,1.7-1.7,1.7S24.7,32,24.7,31v-2.2c0-1,0.8-1.7,1.7-1.7S28.2,27.8,28.2,28.8z"/>
	<path class="st0" d="M17.1,24.6c0.8,0,1.5-0.7,1.5-1.5s-0.7-1.5-1.5-1.5c-0.3,0-0.5,0.1-0.7,0.2H7.6c-0.2-0.1-0.4-0.2-0.7-0.2
		c-0.2,0-0.4,0-0.6,0.1c-0.4-0.1-0.7-0.5-0.7-0.9c0-0.6,0.5-1,1-1h10.1c0.2,0,0.4-0.1,0.4-0.3l1.4-5.4c0-0.2-0.1-0.4-0.3-0.5h-0.1
		h-12l-0.7-1l0.1-0.2c0.3-0.6,0.2-1.2-0.2-1.7c-0.3-0.3-0.7-0.6-1.2-0.6c-0.8,0-1.5,0.7-1.5,1.5c0,0.8,0.7,1.5,1.5,1.5
		c0.3,0,0.5-0.1,0.7-0.2l0.8,1.2L6.7,19H6.4c-0.9,0-1.6,0.9-1.6,2.1c0,0.5,0.3,0.9,0.7,1.2l0.1,0c-0.1,0.2-0.2,0.5-0.2,0.7
		c0,0.8,0.7,1.5,1.5,1.5s1.5-0.7,1.5-1.5c0-0.2-0.1-0.5-0.2-0.7h7.4c-0.1,0.2-0.2,0.4-0.2,0.7C15.5,23.9,16.2,24.6,17.1,24.6z
		 M8.8,19H7.4l-0.5-2h1.9V19z M15.1,14.2h2.5l-0.5,2h-2V14.2z M15.1,17H17l-0.5,2h-1.4V17z M12.4,14.2h2v2h-2V14.2z M12.4,17h2v2h-2
		V17z M9.6,14.2h2v2h-2V14.2z M9.6,17h2v2h-2V17z M6.4,14.2h2.5v2h-2L6.4,14.2z"/>
</g>
</svg>
