<?xml version="1.0" encoding="utf-8"?>
<!-- Generator: Adobe Illustrator 25.1.0, SVG Export Plug-In . SVG Version: 6.00 Build 0)  -->
<svg version="1.1" id="Warstwa_1" xmlns="http://www.w3.org/2000/svg" xmlns:xlink="http://www.w3.org/1999/xlink" x="0px" y="0px"
	 viewBox="0 0 40 40" style="enable-background:new 0 0 40 40;" xml:space="preserve">
<style type="text/css">
	.st0{fill:#FFFFFF;}
</style>
<g>
	<path class="st0" d="M13.37,29.16C13.37,29.16,13.37,29.16,13.37,29.16c-0.75,0-1.47,0.31-1.99,0.84
		c-0.76-0.78-1.94-1.05-2.97-0.66c-1.07,0.4-1.79,1.44-1.79,2.59c0,1.53,3.17,5.42,4.76,5.42s4.76-3.89,4.76-5.42
		C16.14,30.4,14.9,29.16,13.37,29.16z M10.6,31.93v0.18c0,0.43,0.35,0.78,0.78,0.78c0.43,0,0.78-0.35,0.78-0.78v-0.18
		c0-0.67,0.54-1.21,1.21-1.21c0.67,0,1.21,0.54,1.21,1.21c-0.01,0.77-2.46,3.73-3.19,3.86c-0.73-0.13-3.19-3.09-3.21-3.86
		c0-0.67,0.54-1.21,1.21-1.21C10.06,30.72,10.6,31.26,10.6,31.93z"/>
	<path class="st0" d="M23.31,29.16C23.31,29.16,23.31,29.16,23.31,29.16c-0.75,0-1.47,0.31-1.99,0.84
		c-0.76-0.78-1.94-1.05-2.97-0.66c-1.07,0.4-1.79,1.44-1.79,2.59c0,1.53,3.17,5.42,4.76,5.42s4.76-3.89,4.76-5.42
		C26.08,30.4,24.84,29.16,23.31,29.16z M21.32,32.89c0.43,0,0.78-0.35,0.78-0.78v-0.18c0-0.67,0.54-1.21,1.21-1.21
		c0.67,0,1.21,0.54,1.21,1.21c-0.01,0.77-2.46,3.73-3.19,3.86c-0.73-0.13-3.19-3.09-3.21-3.86c0-0.67,0.54-1.21,1.21-1.21
		c0.67,0,1.21,0.54,1.21,1.21v0.18C20.54,32.54,20.89,32.89,21.32,32.89z"/>
	<path class="st0" d="M33.91,29.16C33.91,29.16,33.91,29.16,33.91,29.16c-0.75,0-1.47,0.31-1.99,0.84
		c-0.76-0.78-1.94-1.05-2.97-0.66c-1.07,0.4-1.79,1.44-1.79,2.59c0,1.53,3.17,5.42,4.76,5.42s4.76-3.89,4.76-5.42
		C36.68,30.4,35.44,29.16,33.91,29.16z M31.93,32.89c0.43,0,0.78-0.35,0.78-0.78v-0.18c0-0.67,0.54-1.21,1.21-1.21
		c0.67,0,1.21,0.54,1.21,1.21c-0.01,0.77-2.46,3.73-3.19,3.86c-0.73-0.13-3.19-3.09-3.21-3.86c0-0.67,0.54-1.21,1.21-1.21
		c0.67,0,1.21,0.54,1.21,1.21v0.18C31.15,32.54,31.5,32.89,31.93,32.89z"/>
	<path class="st0" d="M35.34,0.63L35.34,0.63c-0.08-0.41-0.49-0.69-0.9-0.61L1.3,5.98C1.1,6.02,0.92,6.13,0.8,6.31
		C0.68,6.48,0.64,6.69,0.68,6.89l2.08,10.75c-0.07,0.11-0.1,0.24-0.11,0.37v21.21C2.65,39.65,3,40,3.43,40h34.46
		c0.43,0,0.78-0.35,0.78-0.78V21.44l0.04-0.01c0.42-0.09,0.69-0.5,0.61-0.92L35.34,0.63z M6.04,26.37l-2.15-11.1l11.82-2.36
		c0.71,1.1,2.12,1.53,3.32,1.04c-0.25,0.9-0.76,1.29-1.68,1.29c-0.43,0-0.78,0.35-0.78,0.78c0,0.43,0.35,0.78,0.78,0.78
		c1.69,0,2.77-0.85,3.21-2.52c1.01,1.09,2.42,1.86,3.42,1.86c0.43,0,0.78-0.35,0.78-0.78c0-0.43-0.35-0.78-0.75-0.78c0,0,0,0,0,0
		c-0.77-0.16-1.49-0.54-2.05-1.1c0.62,0.03,1.27-0.17,1.77-0.57c0.57-0.45,0.93-1.1,1-1.82l10.7-2.14l2.22,11.09L6.04,26.37z
		 M15.24,11.41L3.59,13.74L2.36,7.37l31.61-5.69l1.15,5.75L24.5,9.56c-0.42-0.92-1.3-1.53-2.32-1.6c-1.01-0.06-1.94,0.4-2.49,1.24
		c-0.48-0.37-1.07-0.58-1.68-0.58c-1.53,0-2.77,1.24-2.77,2.77C15.24,11.39,15.24,11.4,15.24,11.41z M18.01,10.18
		c0.67,0,1.21,0.54,1.21,1.21c0,0.67-0.54,1.21-1.21,1.21c-0.67,0-1.21-0.54-1.21-1.21C16.8,10.72,17.34,10.18,18.01,10.18z
		 M20.78,10.72c0-0.67,0.54-1.21,1.21-1.21c0.67,0,1.21,0.54,1.21,1.21c0,0.67-0.54,1.21-1.21,1.21
		C21.32,11.93,20.78,11.39,20.78,10.72z M31.94,26.51c-0.53-0.1-2.2-1.9-2.92-3.14l2.13-0.43c0.05,0.38,0.38,0.67,0.77,0.67
		c0.43,0,0.78-0.35,0.78-0.78v-0.18c0-0.01,0-0.02,0-0.02l2.3-0.46c0.07,0.15,0.11,0.32,0.12,0.48
		C35.11,23.43,32.66,26.38,31.94,26.51z M4.21,25.15l0.44,2.29c0.04,0.2,0.16,0.38,0.33,0.5c0.17,0.12,0.39,0.16,0.59,0.12
		l12.49-2.5c0.64,0.8,2.13,2.51,3.26,2.51c1.36,0,3.46-2.55,4.29-4.02l1.85-0.37c0.78,1.69,3.14,4.39,4.46,4.39
		c1.59,0,4.76-3.89,4.76-5.42c0-0.27-0.04-0.54-0.12-0.8l0.55-0.11v16.69H4.21V25.15z M21.35,26.51c-0.6-0.32-1.13-0.77-1.56-1.3
		l3.66-0.73C22.6,25.58,21.66,26.41,21.35,26.51z"/>
</g>
</svg>
