<?xml version="1.0" encoding="utf-8"?>
<!-- Generator: Adobe Illustrator 25.1.0, SVG Export Plug-In . SVG Version: 6.00 Build 0)  -->
<svg version="1.1" id="Warstwa_1" xmlns="http://www.w3.org/2000/svg" xmlns:xlink="http://www.w3.org/1999/xlink" x="0px" y="0px"
	 viewBox="0 0 40 40" style="enable-background:new 0 0 40 40;" xml:space="preserve">
<style type="text/css">
	.st0{fill:#FFFFFF;}
</style>
<g>
	<g>
		<path class="st0" d="M29.4,19.94v3.76c0,5.19-4.22,9.41-9.41,9.41s-9.41-4.22-9.41-9.41v-3.76H9.33v3.76
			c0,5.66,4.45,10.31,10.03,10.64v3.79h-5.65v1.25h12.55v-1.25h-5.65v-3.8C26.21,34,30.66,29.37,30.66,23.7v-3.75H29.4z"/>
		<path class="st0" d="M26.39,39.5H13.61v-1.47h5.65v-3.58C13.61,34.06,9.22,29.36,9.22,23.7v-3.88h1.48v3.88
			c0,5.13,4.17,9.29,9.29,9.29s9.29-4.17,9.29-9.29v-3.88h1.49v3.87c0,5.66-4.4,10.35-10.03,10.74v3.58h5.65V39.5z M13.84,39.28
			h12.31v-1.02h-5.65v-4.02l0.11-0.01c5.57-0.33,9.93-4.94,9.93-10.52v-3.65h-1.03v3.66c0,5.26-4.27,9.53-9.53,9.53
			s-9.53-4.27-9.53-9.53v-3.66h-1v3.66c0,5.57,4.36,10.19,9.93,10.52l0.11,0.01v4.02h-5.65C13.84,38.26,13.84,39.28,13.84,39.28z"/>
	</g>
	<path class="st0" d="M20,0.5c-4.49,0-8.15,3.78-8.15,8.44v1.83v0.01v4.37v0.01v4.37v0.01v3.88c0,4.65,3.66,8.44,8.15,8.44
		s8.15-3.78,8.15-8.44v-3.88v-0.01v-4.37v-0.01v-4.37v-0.01V8.94C28.15,4.28,24.49,0.5,20,0.5z M20,30.34
		c-3.69,0-6.69-3.11-6.69-6.93v-3.1h2.14c0.43,0,0.77-0.34,0.77-0.77v-0.01c0-0.43-0.34-0.77-0.77-0.77h-2.14v-2.82h2.14
		c0.43,0,0.77-0.34,0.77-0.77v-0.01c0-0.43-0.34-0.77-0.77-0.77h-2.14v-2.82h2.14c0.43,0,0.77-0.34,0.77-0.77V10.8
		c0-0.43-0.34-0.77-0.77-0.77h-2.14V8.94c0-2.72,1.52-5.07,3.72-6.2v2.24c0,0.43,0.34,0.77,0.77,0.77h0.01
		c0.43,0,0.77-0.34,0.77-0.77V2.18c0.46-0.1,0.93-0.16,1.41-0.16c0.49,0,0.96,0.06,1.41,0.16v2.81c0,0.43,0.34,0.77,0.77,0.77h0.01
		c0.43,0,0.77-0.34,0.77-0.77V2.74c2.2,1.13,3.72,3.48,3.72,6.2v1.06h-2.15c-0.43,0-0.77,0.34-0.77,0.77v0.01
		c0,0.43,0.34,0.77,0.77,0.77h2.15v2.82h-2.15c-0.43,0-0.77,0.34-0.77,0.77v0.01c0,0.43,0.34,0.77,0.77,0.77h2.15v2.82h-2.15
		c-0.43,0-0.77,0.34-0.77,0.77v0.01c0,0.43,0.34,0.77,0.77,0.77h2.15v3.1C26.69,27.23,23.69,30.34,20,30.34z"/>
</g>
</svg>
