<?xml version="1.0" encoding="utf-8"?>
<!-- Generator: Adobe Illustrator 25.2.0, SVG Export Plug-In . SVG Version: 6.00 Build 0)  -->
<svg version="1.1" id="Capa_1" xmlns="http://www.w3.org/2000/svg" xmlns:xlink="http://www.w3.org/1999/xlink" x="0px" y="0px"
	 viewBox="0 0 40 40" style="enable-background:new 0 0 40 40;" xml:space="preserve">
<style type="text/css">
	.st0{fill:#FFFFFF;}
</style>
<g>
	<g>
		<path class="st0" d="M29.1,8.9c-0.5,0-0.8-0.4-0.8-0.8V7.4c0-0.5,0.4-0.8,0.8-0.8c0.5,0,0.8,0.4,0.8,0.8v0.7
			C29.9,8.8,29.4,8.9,29.1,8.9z M29.1,7.1c-0.2,0-0.3,0.1-0.3,0.3v0.7c0,0.2,0.1,0.3,0.3,0.3c0.2,0,0.3-0.1,0.3-0.4l0-0.7
			C29.4,7.3,29.3,7.1,29.1,7.1z"/>
	</g>
	<g>
		<path class="st0" d="M31.3,8.9c-0.5,0-0.8-0.4-0.8-0.8V7.4c0-0.5,0.4-0.8,0.8-0.8c0.5,0,0.8,0.4,0.8,0.8v0.7
			C32.1,8.6,31.7,8.9,31.3,8.9z M31.3,7.1c-0.2,0-0.3,0.1-0.3,0.3v0.7c0,0.2,0.1,0.3,0.3,0.3c0.2,0,0.3-0.1,0.3-0.3V7.4
			C31.7,7.3,31.6,7.1,31.3,7.1z"/>
	</g>
	<g>
		<path class="st0" d="M33.5,8.9c-0.5,0-0.8-0.4-0.8-0.8V7.4c0-0.5,0.4-0.8,0.8-0.8c0.5,0,0.8,0.4,0.8,0.8v0.7
			C34.3,8.6,33.9,8.9,33.5,8.9z M33.5,7.1c-0.2,0-0.3,0.1-0.3,0.3v0.7c0,0.2,0.1,0.3,0.3,0.3c0.2,0,0.3-0.1,0.3-0.3V7.4
			C33.8,7.3,33.7,7.1,33.5,7.1z"/>
	</g>
	<g>
		<path class="st0" d="M13.3,21.9l0.5-0.8l2.4,5.6c0.1,0.2,0.3,0.3,0.5,0.3c0.1,0,0.1,0,0.2,0c0.3-0.1,0.4-0.4,0.3-0.7l-2.8-6.5
			c-0.1-0.2-0.3-0.3-0.4-0.3c-0.2,0-0.4,0.1-0.5,0.3l-1,1.8c-0.1,0.2,0,0.5,0.2,0.7C12.9,22.3,13.2,22.2,13.3,21.9z"/>
		<path class="st0" d="M17.1,27.4h-0.3c-0.4,0-0.8-0.2-0.9-0.6l-2.1-4.8l0,0c-0.1,0.2-0.3,0.4-0.5,0.5c-0.2,0.1-0.5,0.1-0.7,0
			l-0.1-0.1c-0.4-0.4-0.5-0.9-0.3-1.2l1-1.8c0.2-0.3,0.5-0.5,0.9-0.5c0.3,0,0.6,0.2,0.8,0.6l2.8,6.6c0.1,0.3,0.1,0.6,0,0.8
			C17.6,27.1,17.4,27.3,17.1,27.4L17.1,27.4z M13.9,20.1l2.8,6.4l0.1,0L14,19.9l-0.3,0.5L13.9,20.1z"/>
	</g>
	<g>
		<path class="st0" d="M5.6,26.7c0.1,0.1,0.2,0.1,0.3,0.1c0.2,0,0.3-0.1,0.4-0.2l2.2-3.3l2.3,2.4c0.1,0.1,0.3,0.2,0.4,0.2
			c0.2,0,0.3-0.1,0.4-0.3l0.7-1.5c0.1-0.2,0-0.5-0.2-0.7c-0.3-0.1-0.5,0-0.7,0.2L11,24.5L8.8,22c-0.1-0.1-0.3-0.2-0.4-0.2
			C8.2,21.9,8.1,22,8,22l-2.6,3.8C5.3,26.2,5.4,26.6,5.6,26.7z"/>
		<path class="st0" d="M5.9,27.3c-0.1,0-0.4,0-0.6-0.2c-0.4-0.3-0.5-0.9-0.4-1.4L5,25.6l2.6-3.8c0.2-0.2,0.4-0.4,0.8-0.4
			c0.3,0,0.6,0.2,0.7,0.3l1.8,2l0.2-0.3c0.1-0.1,0.5-0.5,1.2-0.3l0.1,0l0.1,0.1c0.4,0.4,0.5,0.9,0.3,1.2L12,25.9
			c-0.1,0.1-0.3,0.6-0.8,0.6c-0.3,0-0.6-0.2-0.7-0.3l-1.9-2l-1.9,2.8C6.5,27.1,6.2,27.3,5.9,27.3z M5.9,26.4L5.9,26.4
			C5.9,26.4,5.9,26.4,5.9,26.4z M5.8,26c0,0.1,0,0.2,0,0.3l0.1,0l2.5-3.7l2.8,2.9l0.7-1.5c0,0,0,0,0,0c0,0,0,0,0,0l-0.7,1.3
			l-2.7-2.9c0,0-0.1,0-0.1,0L5.8,26z"/>
	</g>
	<g>
		<path class="st0" d="M22.4,16.7h8.4c0.3,0,0.5-0.2,0.5-0.5c0-0.3-0.2-0.5-0.5-0.5h-8.4c-0.3,0-0.5,0.2-0.5,0.5
			C22,16.5,22.1,16.7,22.4,16.7z"/>
		<path class="st0" d="M30.8,16.9h-8.4c-0.4,0-0.7-0.3-0.7-0.7c0-0.4,0.3-0.7,0.7-0.7h8.4c0.4,0,0.7,0.3,0.7,0.7
			C31.6,16.6,31.3,16.9,30.8,16.9z M22.4,16c-0.2,0-0.2,0.1-0.2,0.2c0,0.2,0.1,0.2,0.2,0.2h8.4c0.2,0,0.2-0.1,0.2-0.2
			c0-0.2-0.1-0.2-0.2-0.2H22.4z"/>
	</g>
	<g>
		<path class="st0" d="M35.9,16.7c0.3,0,0.5-0.2,0.5-0.5c0-0.3-0.2-0.5-0.5-0.5h-3.2c-0.3,0-0.5,0.2-0.5,0.5c0,0.3,0.2,0.5,0.5,0.5
			H35.9z"/>
		<path class="st0" d="M35.9,16.9h-3.2c-0.4,0-0.7-0.3-0.7-0.7c0-0.4,0.3-0.7,0.7-0.7h3.2c0.4,0,0.7,0.3,0.7,0.7
			C36.6,16.6,36.3,16.9,35.9,16.9z M32.7,16c-0.2,0-0.2,0.1-0.2,0.2c0,0.2,0.1,0.2,0.2,0.2h3.2c0.2,0,0.2-0.1,0.2-0.2
			c0-0.2-0.1-0.2-0.2-0.2H32.7z"/>
	</g>
	<g>
		<path class="st0" d="M22.4,19.3h13.5c0.3,0,0.5-0.2,0.5-0.5c0-0.3-0.2-0.5-0.5-0.5H22.4c-0.3,0-0.5,0.2-0.5,0.5
			C22,19.1,22.1,19.3,22.4,19.3z"/>
		<path class="st0" d="M35.9,19.6H22.4c-0.4,0-0.7-0.3-0.7-0.7c0-0.4,0.3-0.7,0.7-0.7h13.5c0.4,0,0.7,0.3,0.7,0.7
			C36.6,19.3,36.3,19.6,35.9,19.6z M22.4,18.6c-0.2,0-0.2,0.1-0.2,0.2c0,0.2,0.1,0.2,0.2,0.2h13.5c0.2,0,0.2-0.1,0.2-0.2
			c0-0.2-0.1-0.2-0.2-0.2H22.4z"/>
	</g>
	<g>
		<path class="st0" d="M22.4,22h3.9c0.3,0,0.5-0.2,0.5-0.5S26.6,21,26.3,21h-3.9c-0.3,0-0.5,0.2-0.5,0.5S22.1,22,22.4,22z"/>
		<path class="st0" d="M26.3,22.2h-3.9c-0.4,0-0.7-0.3-0.7-0.7c0-0.4,0.3-0.7,0.7-0.7h3.9c0.4,0,0.7,0.3,0.7,0.7
			S26.8,22.2,26.3,22.2z M22.4,21.2c-0.2,0-0.2,0.1-0.2,0.2c0,0.2,0.1,0.2,0.2,0.2h3.9c0.2,0,0.2-0.1,0.2-0.2c0-0.2-0.1-0.2-0.2-0.2
			H22.4z"/>
	</g>
	<g>
		<path class="st0" d="M35.9,21h-7.8c-0.3,0-0.5,0.2-0.5,0.5s0.2,0.5,0.5,0.5h7.8c0.3,0,0.5-0.2,0.5-0.5S36.2,21,35.9,21z"/>
		<path class="st0" d="M35.9,22.2h-7.8c-0.4,0-0.7-0.3-0.7-0.7s0.3-0.7,0.7-0.7h7.8c0.4,0,0.7,0.3,0.7,0.7S36.3,22.2,35.9,22.2z
			 M28.1,21.2c-0.2,0-0.2,0.1-0.2,0.2c0,0.2,0.1,0.2,0.2,0.2h7.8c0.2,0,0.2-0.1,0.2-0.2c0-0.2-0.1-0.2-0.2-0.2H28.1z"/>
	</g>
	<g>
		<path class="st0" d="M22.4,24.5h13.5c0.3,0,0.5-0.2,0.5-0.5c0-0.3-0.2-0.5-0.5-0.5H22.4c-0.3,0-0.5,0.2-0.5,0.5
			C22,24.3,22.1,24.5,22.4,24.5z"/>
		<path class="st0" d="M35.9,24.7H22.4c-0.4,0-0.7-0.3-0.7-0.7c0-0.4,0.3-0.7,0.7-0.7h13.5c0.4,0,0.7,0.3,0.7,0.7
			S36.3,24.7,35.9,24.7z M22.4,23.8c-0.2,0-0.2,0.1-0.2,0.2c0,0.2,0.1,0.2,0.2,0.2h13.5c0.2,0,0.2-0.1,0.2-0.2
			c0-0.2-0.1-0.2-0.2-0.2H22.4z"/>
	</g>
	<g>
		<path class="st0" d="M22.4,27.1h6.9c0.3,0,0.5-0.2,0.5-0.5c0-0.3-0.2-0.5-0.5-0.5h-6.9c-0.3,0-0.5,0.2-0.5,0.5
			C22,26.9,22.1,27.1,22.4,27.1z"/>
		<path class="st0" d="M29.4,27.4h-6.9c-0.4,0-0.7-0.3-0.7-0.7c0-0.4,0.3-0.7,0.7-0.7h6.9c0.4,0,0.7,0.3,0.7,0.7
			C30.1,27.1,29.8,27.4,29.4,27.4z M22.4,26.4c-0.2,0-0.2,0.1-0.2,0.2c0,0.2,0.1,0.2,0.2,0.2h6.9c0.2,0,0.2-0.1,0.2-0.2
			c0-0.2-0.1-0.2-0.2-0.2H22.4z"/>
	</g>
	<g>
		<path class="st0" d="M35.9,26.1h-5.1c-0.3,0-0.5,0.2-0.5,0.5c0,0.3,0.2,0.5,0.5,0.5h5.1c0.3,0,0.5-0.2,0.5-0.5
			C36.4,26.3,36.2,26.1,35.9,26.1z"/>
		<path class="st0" d="M35.9,27.4h-5.1c-0.4,0-0.7-0.3-0.7-0.7s0.3-0.7,0.7-0.7h5.1c0.4,0,0.7,0.3,0.7,0.7S36.3,27.4,35.9,27.4z
			 M30.8,26.4c-0.2,0-0.2,0.1-0.2,0.2c0,0.2,0.1,0.2,0.2,0.2h5.1c0.2,0,0.2-0.1,0.2-0.2c0-0.2-0.1-0.2-0.2-0.2H30.8z"/>
	</g>
	<g>
		<path class="st0" d="M22.4,29.8h13.5c0.3,0,0.5-0.2,0.5-0.5s-0.2-0.5-0.5-0.5H22.4c-0.3,0-0.5,0.2-0.5,0.5S22.1,29.8,22.4,29.8z"
			/>
		<path class="st0" d="M35.9,30H22.4c-0.4,0-0.7-0.3-0.7-0.7c0-0.4,0.3-0.7,0.7-0.7h13.5c0.4,0,0.7,0.3,0.7,0.7S36.3,30,35.9,30z
			 M22.4,29c-0.2,0-0.2,0.1-0.2,0.2c0,0.2,0.1,0.2,0.2,0.2h13.5c0.2,0,0.2-0.1,0.2-0.2c0-0.2-0.1-0.2-0.2-0.2H22.4z"/>
	</g>
	<g>
		<path class="st0" d="M14.3,33.5h-7c-2.6,0-4.8-2.2-4.8-4.8V16.8c0-2.6,2.2-4.8,4.8-4.8h7c2.7,0,4.9,2.1,4.9,4.8V25
			c0,0.5-0.4,0.9-0.9,0.9c-0.5,0-0.9-0.4-0.9-0.9v-8.2c0-1.7-1.4-3.1-3.1-3.1h-7c-1.7,0-3.1,1.4-3.1,3.1v11.9c0,1.7,1.4,3.1,3.1,3.1
			h6.9c1.7,0,3.1-1.4,3.1-3.1v-1.3c0-0.5,0.4-0.9,0.9-0.9c0.5,0,0.9,0.4,0.9,0.9v1.2C19.1,31.3,16.9,33.5,14.3,33.5z"/>
	</g>
	<g>
		<path class="st0" d="M20,8.3H7.9c-0.2,0-0.4,0.2-0.4,0.4s0.2,0.4,0.4,0.4h1.3h10.9c0.8,0,1.4-0.6,1.4-1.4s-0.6-1.3-1.4-1.3H4.8
			C4,6.4,3.4,7,3.4,7.7S4,9.1,4.8,9.1h0.4h1.2c0.2,0,0.4-0.2,0.4-0.4c0-0.2-0.2-0.4-0.4-0.4H4.8C4.4,8.4,4.1,8.1,4.1,7.7
			s0.3-0.6,0.6-0.6H20c0.3,0,0.6,0.3,0.6,0.6S20.3,8.3,20,8.3z"/>
		<path class="st0" d="M20.1,9.3H7.9C7.6,9.3,7.3,9,7.3,8.7C7.3,8.4,7.6,8,7.9,8H20c0.2,0,0.3-0.2,0.3-0.3c0-0.2-0.2-0.3-0.3-0.3
			H4.7c-0.2,0-0.3,0.1-0.3,0.3c0,0.1,0,0.2,0.1,0.3c0.1,0.1,0.2,0.1,0.3,0l1.6,0C6.7,8,7,8.4,7,8.7C7,9,6.7,9.3,6.3,9.3H4.8
			c-1,0-1.6-0.8-1.6-1.6c0-0.8,0.7-1.5,1.6-1.5h15.3c0.9,0,1.6,0.6,1.6,1.5C21.7,8.6,21,9.3,20.1,9.3z M7.9,8.5
			c-0.1,0-0.1,0.1-0.1,0.1c0,0.1,0.1,0.1,0.1,0.1h12.2c0.7,0,1.1-0.5,1.1-1.1c0-0.6-0.5-1-1.1-1H4.8c-0.6,0-1.1,0.5-1.1,1
			c0,0.5,0.5,1.1,1.1,1.1h1.6c0.1,0,0.1-0.1,0.1-0.1c0-0.1-0.1-0.1-0.1-0.1H4.8c-0.2,0.1-0.4,0-0.6-0.1C4,8.2,3.9,8,3.9,7.7
			c0-0.5,0.4-0.8,0.8-0.8H20c0.4,0,0.8,0.4,0.8,0.8c0,0.4-0.4,0.8-0.8,0.8H7.9z"/>
	</g>
	<g>
		<path class="st0" d="M36.2,35.9H3.8c-2.1,0-3.8-1.7-3.8-3.8v-5.5c0-0.4,0.4-0.8,0.9-0.8c0.5,0,0.9,0.4,0.9,0.9v5.5
			c0,1.1,0.9,2,2,2h32.5c1.2,0,2.1-0.9,2.1-2V10.7c-0.6,0.5-1.4,0.7-2.1,0.7H3.7c-0.7,0-1.4-0.2-2-0.6v10.2c0,0.5-0.4,0.9-0.9,0.9
			C0.4,22,0,21.5,0,21V7.9c0-2.1,1.7-3.8,3.8-3.8h21.1c0.5,0,0.9,0.4,0.9,0.9s-0.4,0.9-0.9,0.9H3.8c-1.1,0-2,0.9-2,2
			c0.1,1,0.9,1.8,2,1.8h32.6c1.1,0,2-0.9,2-2c0-0.1,0-0.2,0.1-0.4c-0.2-0.8-1.1-1.5-2-1.5h-8c-0.4,0-1-0.4-1-0.9
			c0-0.5,0.4-0.9,0.9-0.9h8c2.1,0,3.8,1.7,3.8,3.8v24.2C40,34.2,38.3,35.9,36.2,35.9z"/>
	</g>
	<g>
		<path class="st0" d="M7.9,20c-1.3,0-2.4-1.1-2.4-2.4s1.1-2.4,2.4-2.4s2.4,1.1,2.4,2.4S9.2,20,7.9,20z M7.9,16.1
			c-0.8,0-1.5,0.7-1.5,1.5S7.1,19,7.9,19s1.5-0.7,1.5-1.5S8.7,16.1,7.9,16.1z"/>
	</g>
</g>
</svg>
