<?xml version="1.0" encoding="utf-8"?>
<!-- Generator: Adobe Illustrator 25.2.0, SVG Export Plug-In . SVG Version: 6.00 Build 0)  -->
<svg version="1.1" id="Capa_1" xmlns="http://www.w3.org/2000/svg" xmlns:xlink="http://www.w3.org/1999/xlink" x="0px" y="0px"
	 viewBox="0 0 40 40" style="enable-background:new 0 0 40 40;" xml:space="preserve">
<style type="text/css">
	.st0{fill:#FFFFFF;}
</style>
<g>
	<path class="st0" d="M29.3,6.5c-0.3,0-0.6,0.2-0.6,0.6v0.7c0,0.3,0.2,0.6,0.6,0.6c0.4,0,0.7-0.2,0.6-0.6V7.1
		C29.9,6.8,29.7,6.5,29.3,6.5z"/>
	<path class="st0" d="M32.2,7.8V7.1c0-0.3-0.2-0.6-0.6-0.6c-0.3,0-0.6,0.2-0.6,0.6v0.7c0,0.3,0.2,0.6,0.6,0.6
		C31.9,8.4,32.2,8.2,32.2,7.8z"/>
	<path class="st0" d="M34.4,7.8V7.1c0-0.3-0.2-0.6-0.6-0.6c-0.3,0-0.6,0.2-0.6,0.6v0.7c0,0.3,0.2,0.6,0.6,0.6
		C34.1,8.4,34.4,8.2,34.4,7.8z"/>
	<path class="st0" d="M13.1,22.3l0.6-1.2l2.5,5.7c0.1,0.2,0.3,0.3,0.5,0.3c0.1,0,0.1,0,0.2,0c0.3-0.1,0.4-0.4,0.3-0.7l-2.9-6.7
		c-0.1-0.2-0.3-0.3-0.4-0.3c-0.2,0-0.4,0.1-0.5,0.3l-1.1,2.2c-0.1,0.2,0,0.5,0.2,0.7C12.7,22.7,13,22.6,13.1,22.3z"/>
	<path class="st0" d="M5.2,26.9C5.3,27,5.4,27,5.5,27c0.2,0,0.3-0.1,0.4-0.2l2.3-3.4l2.4,2.5c0.1,0.1,0.3,0.2,0.4,0.2
		c0.2,0,0.3-0.1,0.4-0.3l1-2.1c0.1-0.2,0-0.5-0.2-0.7c-0.3-0.1-0.5,0-0.7,0.2l-0.7,1.4l-2.3-2.5c-0.1-0.1-0.3-0.2-0.4-0.2
		c-0.2,0-0.3,0.1-0.4,0.2l-2.7,3.9C4.9,26.4,5,26.8,5.2,26.9z"/>
	<path class="st0" d="M22.5,16.6h8.6c0.3,0,0.5-0.2,0.5-0.5s-0.2-0.5-0.5-0.5h-8.6c-0.3,0-0.5,0.2-0.5,0.5S22.2,16.6,22.5,16.6z"/>
	<path class="st0" d="M36.3,16.6c0.3,0,0.5-0.2,0.5-0.5s-0.2-0.5-0.5-0.5H33c-0.3,0-0.5,0.2-0.5,0.5s0.2,0.5,0.5,0.5H36.3z"/>
	<path class="st0" d="M22.5,19.3h13.8c0.3,0,0.5-0.2,0.5-0.5s-0.2-0.5-0.5-0.5H22.5c-0.3,0-0.5,0.2-0.5,0.5S22.2,19.3,22.5,19.3z"/>
	<path class="st0" d="M22.5,22h4c0.3,0,0.5-0.2,0.5-0.5S26.8,21,26.5,21h-4c-0.3,0-0.5,0.2-0.5,0.5S22.2,22,22.5,22z"/>
	<path class="st0" d="M36.3,21h-8c-0.3,0-0.5,0.2-0.5,0.5S28,22,28.3,22h8c0.3,0,0.5-0.2,0.5-0.5S36.6,21,36.3,21z"/>
	<path class="st0" d="M22.5,24.6h13.8c0.3,0,0.5-0.2,0.5-0.5s-0.2-0.5-0.5-0.5H22.5c-0.3,0-0.5,0.2-0.5,0.5S22.2,24.6,22.5,24.6z"/>
	<path class="st0" d="M22.5,27.3h7.1c0.3,0,0.5-0.2,0.5-0.5s-0.2-0.5-0.5-0.5h-7.1c-0.3,0-0.5,0.2-0.5,0.5S22.2,27.3,22.5,27.3z"/>
	<path class="st0" d="M36.3,26.3h-5.2c-0.3,0-0.5,0.2-0.5,0.5s0.2,0.5,0.5,0.5h5.2c0.3,0,0.5-0.2,0.5-0.5S36.6,26.3,36.3,26.3z"/>
	<path class="st0" d="M22.5,30h13.8c0.3,0,0.5-0.2,0.5-0.5S36.6,29,36.3,29H22.5c-0.3,0-0.5,0.2-0.5,0.5S22.2,30,22.5,30z"/>
	<path class="st0" d="M17.9,24.9v0.2c0,0.2,0.2,0.4,0.4,0.4s0.4-0.2,0.4-0.4v-0.2v-1.1v-7.1c0-2.5-2-4.4-4.5-4.4H7
		c-2.4,0-4.4,2-4.4,4.4v12.2c0,2.4,2,4.4,4.4,4.4h7.2c2.4,0,4.4-2,4.4-4.4v-0.1v-1.2c0-0.2-0.2-0.4-0.4-0.4c-0.2,0-0.4,0.2-0.4,0.4
		v1.2v0.1c0,2-1.7,3.7-3.7,3.7H7c-2,0-3.7-1.7-3.7-3.7V16.7C3.3,14.7,5,13,7,13h7.2c2,0,3.7,1.7,3.7,3.7v7.1V24.9z"/>
	<path class="st0" d="M20,8H7.6C7.4,8,7.2,8.2,7.2,8.4c0,0.2,0.2,0.4,0.4,0.4h1.3h11.2c0.8,0,1.4-0.6,1.4-1.4c0-0.8-0.6-1.3-1.4-1.3
		H4.4C3.6,6.1,3,6.7,3,7.4c0,0.7,0.6,1.4,1.4,1.4h0.4H6c0.2,0,0.4-0.2,0.4-0.4C6.4,8.2,6.2,8,6,8H4.4C4,8.1,3.7,7.8,3.7,7.4
		C3.7,7,4,6.8,4.3,6.8H20c0.3,0,0.6,0.3,0.6,0.6C20.6,7.7,20.3,8,20,8z"/>
	<path class="st0" d="M36.6,4.2h-6.5h-0.4h-0.9h-0.4c-0.2,0-0.4,0.2-0.4,0.4C28,4.8,28.3,5,28.5,5h0.4h0.9h0.4h6.5
		c1.3,0,2.4,0.9,2.6,2.1c-0.1,0.1-0.1,0.2-0.1,0.3c0,1.4-1.1,2.5-2.5,2.5H3.3c-1.3,0-2.4-1-2.5-2.3v0C0.8,6.2,1.9,5,3.4,5h20.3H25
		c0.2,0,0.4-0.2,0.4-0.4c0-0.2-0.2-0.4-0.4-0.4h-1.3H3.4C1.5,4.2,0,5.8,0,7.6v11.5V21c0,0.3,0.2,0.5,0.4,0.5s0.4-0.2,0.4-0.4v-1.9
		V9.5c0.6,0.7,1.5,1.2,2.5,1.2h33.4c1.1,0,2.1-0.6,2.7-1.4v23.2c0,1.5-1.2,2.6-2.7,2.6H3.4c-1.5,0-2.6-1.2-2.6-2.6v-3.5v-2.1
		c0-0.2-0.2-0.4-0.4-0.4S0,26.6,0,26.8v2.1v3.5c0,1.9,1.5,3.4,3.4,3.4h33.2c1.9,0,3.4-1.5,3.4-3.4V7.6C40,5.8,38.5,4.2,36.6,4.2z"/>
	<circle class="st0" cx="7.6" cy="17.5" r="2"/>
</g>
</svg>
