<?xml version="1.0" encoding="utf-8"?>
<!-- Generator: Adobe Illustrator 25.1.0, SVG Export Plug-In . SVG Version: 6.00 Build 0)  -->
<svg version="1.1" id="Warstwa_1" xmlns="http://www.w3.org/2000/svg" xmlns:xlink="http://www.w3.org/1999/xlink" x="0px" y="0px"
	 viewBox="0 0 40 40" style="enable-background:new 0 0 40 40;" xml:space="preserve">
<style type="text/css">
	.st0{fill:#FFFFFF;}
</style>
<g>
	<path class="st0" d="M40,4.76c0-1.57-1.19-2.85-2.65-2.85H2.65C1.19,1.91,0,3.19,0,4.76v25.73c0,1.57,1.19,2.85,2.65,2.85h14.47
		l-1.06,3.17h-2.04c-0.44,0-0.79,0.35-0.79,0.79s0.35,0.79,0.79,0.79h11.96c0.44,0,0.79-0.35,0.79-0.79s-0.35-0.79-0.79-0.79h-2.04
		l-1.06-3.17h14.47c1.46,0,2.65-1.28,2.65-2.85L40,4.76L40,4.76z M29.54,13.17l-0.98-1.47c-0.14-0.21-0.38-0.34-0.64-0.34h-2.22
		c0.58-0.57,1.36-0.9,2.17-0.91c0,0,0,0,0.01,0c1.02,0,1.99,0.48,2.58,1.28c0.52,0.72,1.36,1.16,2.25,1.18l5.17,0
		c0.17,0,0.35-0.03,0.54-0.08v1.56c-0.19-0.04-0.37-0.08-0.55-0.08H32.7c-0.89,0.01-1.73,0.45-2.24,1.17
		c-0.59,0.8-1.54,1.28-2.54,1.28h-0.04c-0.81-0.01-1.6-0.34-2.18-0.91l2.22,0c0.26,0,0.5-0.13,0.64-0.34l0.98-1.47
		C29.71,13.77,29.71,13.43,29.54,13.17z M17.73,36.5l1.06-3.17h2.42l1.06,3.17H17.73z M38.42,30.49c0,0.7-0.48,1.26-1.06,1.26H2.65
		c-0.59,0-1.06-0.57-1.06-1.26v-5.2h36.83V30.49z M1.58,23.7V4.76c0-0.7,0.48-1.26,1.06-1.26h34.7c0.59,0,1.06,0.57,1.06,1.26v6.44
		c-0.17,0.09-0.36,0.14-0.55,0.15l-5.17,0c-0.4-0.01-0.78-0.21-1.01-0.55c-1.01-1.37-2.69-2.08-4.37-1.87
		c-1.69,0.21-3.13,1.32-3.77,2.9c-0.1,0.24-0.07,0.51,0.07,0.72c0.14,0.21,0.38,0.34,0.64,0.34l3.23,0l0.47,0.7l-0.47,0.7h-3.23
		c-0.26,0-0.5,0.13-0.64,0.34c-0.15,0.21-0.17,0.48-0.08,0.72c0.64,1.58,2.08,2.69,3.77,2.91c0.19,0.02,0.39,0.04,0.59,0.04
		c1.49,0,2.91-0.72,3.79-1.92c0.23-0.33,0.6-0.53,0.99-0.54l5.17,0c0.19,0,0.38,0.06,0.55,0.15v7.71H1.58z"/>
	<path class="st0" d="M19.04,12.25l-0.75-0.15c-0.27-0.05-0.49-0.23-0.59-0.49c-0.1-0.26-0.07-0.53,0.1-0.76l0.47-0.64
		c0.22-0.3,0.19-0.71-0.07-0.99L17.16,8.2c-0.25-0.26-0.66-0.3-0.96-0.09l-0.64,0.43c-0.23,0.16-0.5,0.18-0.76,0.07
		c-0.25-0.11-0.42-0.33-0.47-0.61l-0.12-0.79c-0.05-0.37-0.38-0.65-0.75-0.65h-1.45c-0.36,0-0.68,0.26-0.74,0.62l-0.19,0.97
		c-0.05,0.27-0.23,0.48-0.48,0.58c-0.25,0.1-0.52,0.08-0.75-0.08L9.04,8.11c-0.3-0.2-0.7-0.17-0.96,0.09L7.06,9.23
		c-0.27,0.27-0.3,0.68-0.08,0.98l0.47,0.65c0.16,0.22,0.2,0.5,0.1,0.76c-0.1,0.26-0.32,0.44-0.59,0.49l-0.76,0.14
		C5.86,12.32,5.6,12.64,5.6,13v1.45c0,0.37,0.28,0.69,0.64,0.75l0.79,0.12c0.27,0.04,0.5,0.21,0.61,0.46
		c0.11,0.26,0.09,0.53-0.07,0.77l-0.43,0.64c-0.2,0.3-0.17,0.7,0.09,0.96l1.02,1.03c0.27,0.27,0.68,0.3,0.98,0.07l0.65-0.47
		c0.23-0.16,0.5-0.2,0.76-0.1c0.26,0.1,0.44,0.31,0.49,0.59l0.14,0.75c0.07,0.36,0.38,0.62,0.74,0.62h1.45
		c0.37,0,0.69-0.28,0.75-0.64l0.09-0.56c0.04-0.28,0.22-0.51,0.48-0.61c0.26-0.11,0.55-0.07,0.77,0.09l0.45,0.33
		c0.3,0.22,0.72,0.19,0.98-0.08l1.02-1.02c0.26-0.26,0.29-0.66,0.09-0.96l-0.43-0.64c-0.16-0.23-0.18-0.51-0.07-0.77
		c0.11-0.25,0.33-0.42,0.61-0.47l0.79-0.12c0.37-0.06,0.64-0.38,0.64-0.75V13C19.65,12.64,19.39,12.32,19.04,12.25z M18.14,13.79
		l-0.15,0.02c-0.79,0.12-1.45,0.63-1.76,1.36c-0.32,0.73-0.25,1.56,0.2,2.22l0.08,0.12l-0.12,0.12c-0.64-0.44-1.45-0.52-2.18-0.22
		c-0.72,0.3-1.24,0.93-1.39,1.7h-0.17l-0.03-0.14c-0.15-0.78-0.68-1.42-1.42-1.72c-0.74-0.29-1.57-0.18-2.21,0.29l-0.12,0.09
		l-0.12-0.12l0.08-0.12c0.45-0.66,0.52-1.49,0.2-2.22c-0.32-0.73-0.98-1.24-1.77-1.36l-0.15-0.02v-0.17l0.14-0.03
		c0.78-0.15,1.42-0.68,1.72-1.43c0.29-0.74,0.18-1.57-0.29-2.21L8.59,9.84l0.12-0.12l0.3,0.21c0.64,0.43,1.46,0.52,2.18,0.22
		c0.72-0.3,1.24-0.93,1.39-1.7l0.07-0.36h0.17l0.02,0.15c0.12,0.79,0.63,1.45,1.36,1.76c0.73,0.32,1.56,0.25,2.22-0.2l0.12-0.08
		l0.12,0.12l-0.09,0.12c-0.47,0.64-0.58,1.47-0.29,2.21c0.29,0.74,0.93,1.28,1.71,1.43l0.14,0.03V13.79z"/>
	<path class="st0" d="M12.62,10.75c-1.57,0-2.85,1.28-2.85,2.85s1.28,2.85,2.85,2.85s2.85-1.28,2.85-2.85S14.19,10.75,12.62,10.75z
		 M12.62,14.93c-0.73,0-1.33-0.6-1.33-1.33c0-0.74,0.6-1.33,1.33-1.33c0.74,0,1.33,0.6,1.33,1.33
		C13.96,14.33,13.36,14.93,12.62,14.93z"/>
</g>
</svg>
