<?xml version="1.0" encoding="utf-8"?>
<!-- Generator: Adobe Illustrator 25.1.0, SVG Export Plug-In . SVG Version: 6.00 Build 0)  -->
<svg version="1.1" id="Warstwa_1" xmlns="http://www.w3.org/2000/svg" xmlns:xlink="http://www.w3.org/1999/xlink" x="0px" y="0px"
	 viewBox="0 0 40 40" style="enable-background:new 0 0 40 40;" xml:space="preserve">
<style type="text/css">
	.st0{fill:#FFFFFF;stroke:#FFFFFF;stroke-width:0.2352;stroke-miterlimit:10;}
	.st1{fill:#FFFFFF;}
</style>
<g>
	<g>
		<g>
			<path class="st0" d="M22.06,31.99h-0.89l-0.48-1.17h-1.4l-0.48,1.17h-0.88l1.75-4.07h0.6L22.06,31.99z M20.39,30.14l-0.41-0.95
				l-0.41,0.95H20.39z"/>
		</g>
		<path class="st0" d="M23.39,28.03l-0.66,0.42c0.31,0.5,0.49,1.08,0.49,1.71c0,1.78-1.44,3.22-3.22,3.22
			c-1.78,0-3.22-1.44-3.22-3.22c0-1.78,1.44-3.22,3.22-3.22c0.61,0,1.18,0.17,1.67,0.47l0.41-0.67c-0.61-0.37-1.32-0.58-2.08-0.58
			c-2.21,0-4,1.79-4,4c0,2.21,1.79,4,4,4c2.21,0,4-1.79,4-4C24,29.38,23.77,28.65,23.39,28.03z"/>
	</g>
	<path class="st1" d="M39.3,2.73c-2.47,0.07-3.21,0.4-4.06,0.8c-1.31,0.6-3.1,1.43-15.24,1.43S6.07,4.13,4.76,3.52
		C3.91,3.13,3.17,2.79,0.7,2.73L0.05,2.71L0,2.71v31.31L0.7,34c2.47-0.06,3.2-0.4,4.05-0.8c1.03-0.48,2.4-1.1,9.06-1.33v3.87
		c-0.3,0.12-0.51,0.4-0.51,0.74c0,0.44,0.36,0.8,0.8,0.8h11.8c0.44,0,0.8-0.36,0.8-0.8c0-0.34-0.21-0.62-0.51-0.74v-3.87
		c6.54,0.23,7.96,0.85,9.02,1.33c0.87,0.39,1.61,0.73,4.09,0.79l0.65,0.02l0.05,0V2.71L39.3,2.73z M24.59,35.69h-9.18V24.63h9.18
		V35.69z M38.4,32.38c-1.45-0.1-1.99-0.34-2.63-0.63c-1.22-0.55-2.73-1.21-9.58-1.45v-5.73c0.3-0.12,0.51-0.4,0.51-0.74
		c0-0.44-0.36-0.8-0.8-0.8H14.1c-0.44,0-0.8,0.36-0.8,0.8c0,0.34,0.21,0.62,0.51,0.74v5.72c-6.99,0.24-8.44,0.9-9.64,1.46
		c-0.62,0.29-1.14,0.52-2.6,0.62V4.46c1.46,0.1,1.99,0.34,2.61,0.63C5.69,5.78,7.56,6.64,20,6.64c12.44,0,14.31-0.86,15.81-1.55
		c0.62-0.29,1.15-0.52,2.59-0.62V32.38z"/>
</g>
</svg>
