<?xml version="1.0" encoding="utf-8"?>
<!-- Generator: Adobe Illustrator 25.2.0, SVG Export Plug-In . SVG Version: 6.00 Build 0)  -->
<svg version="1.1" id="Capa_1" xmlns="http://www.w3.org/2000/svg" xmlns:xlink="http://www.w3.org/1999/xlink" x="0px" y="0px"
	 viewBox="0 0 40 40" style="enable-background:new 0 0 40 40;" xml:space="preserve">
<style type="text/css">
	.st0{fill:#FFFFFF;}
</style>
<g>
	<path class="st0" d="M20.6,10.1h6.9c0.3,0,0.5-0.3,0.5-0.5c0-0.3-0.3-0.5-0.5-0.5h-1.2C26.5,7.9,27.6,7,28.8,7
		c1.2,0,2.3,0.9,2.6,2.1h-1.2c-0.3,0-0.5,0.3-0.5,0.5c0,0.3,0.3,0.5,0.5,0.5h6.9c0.3,0,0.5-0.3,0.5-0.5V9.6l-0.1-0.1
		c-0.1-0.1-0.2-0.2-0.5-0.2h-0.9V8.4c0-0.3-0.3-0.5-0.5-0.5h-0.7c-0.1-0.4-0.3-0.9-0.5-1.2l0.4-0.4l0,0C34.9,6.2,35,6.1,35,6.1
		L35.1,6V5.9c0-0.2-0.1-0.3-0.2-0.4L33,3.6c-0.2-0.2-0.4-0.2-0.7,0l-0.5,0.5c-0.4-0.2-0.9-0.4-1.3-0.5V3c0-0.3-0.3-0.5-0.5-0.5h-2.7
		C27.2,2.5,27,2.8,27,3v0.7c-0.4,0.1-0.9,0.3-1.2,0.5l-0.4-0.4c-0.2-0.2-0.4-0.2-0.7,0l-1.9,1.9c-0.1,0.1-0.2,0.2-0.2,0.3
		c0,0.2,0.1,0.3,0.2,0.4l0.4,0.4c-0.2,0.4-0.4,0.8-0.5,1.2H22c-0.3,0-0.5,0.3-0.5,0.5v0.8h-0.9c-0.3,0-0.5,0.3-0.5,0.5
		C20.1,9.9,20.4,10.1,20.6,10.1z M23.5,8.5c0.1-0.5,0.3-1,0.6-1.6c0.2-0.2,0.2-0.5,0-0.6l-0.4-0.4L25,4.7l0.4,0.4
		c0.2,0.2,0.5,0.2,0.6,0c0.6-0.4,1.2-0.6,1.6-0.7C27.8,4.4,28,4.2,28,4V3.5h1.6v0.5c0,0.3,0.2,0.5,0.4,0.5c0.5,0.1,1,0.3,1.6,0.6
		c0.2,0.2,0.5,0.2,0.6,0l0.4-0.4l1.1,1.1l-0.4,0.4c-0.2,0.2-0.2,0.5,0,0.6c0.4,0.6,0.6,1.2,0.7,1.6c0,0.3,0.3,0.5,0.5,0.5h0.5v0.3
		h-2.7c-0.3-1.9-1.8-3.3-3.6-3.3c-1.8,0-3.3,1.3-3.6,3.1h-2.7V8.9h0.5C23.4,8.9,23.6,8.7,23.5,8.5z"/>
	<path class="st0" d="M23.7,12.2h0.7c0.3,0,0.5,0.2,0.5,0.5c0,0.3,0.3,0.5,0.5,0.5c0.3,0,0.5-0.3,0.5-0.5c0-0.9-0.7-1.6-1.6-1.6
		h-0.7c-0.9,0-1.6,0.7-1.6,1.6v2.6c0,0.9,0.7,1.6,1.6,1.6h0.7c0.9,0,1.6-0.7,1.6-1.6c0-0.3-0.3-0.5-0.5-0.5c-0.3,0-0.5,0.3-0.5,0.5
		c0,0.3-0.2,0.5-0.5,0.5h-0.7c-0.3,0-0.5-0.2-0.5-0.5l0-2.6c0-0.1,0-0.2,0.1-0.3C23.3,12.3,23.5,12.2,23.7,12.2z"/>
	<path class="st0" d="M30.9,16.8c0.2,0,0.5-0.3,0.5-0.5v-4.5c0.1-0.2,0-0.3,0-0.4c-0.1-0.1-0.2-0.1-0.3-0.1c-0.1,0-0.4,0-0.5,0.3
		L29,14.3l-1.5-2.8l0,0c-0.1-0.1-0.2-0.2-0.5-0.2c-0.2,0-0.5,0.3-0.5,0.5v4.6c0,0.3,0.3,0.5,0.5,0.5c0.2,0,0.5-0.3,0.5-0.5v-2.6
		l1.1,1.9l0,0c0.1,0.1,0.2,0.2,0.4,0.2c0.2,0,0.3-0.1,0.4-0.2l1.1-1.9v2.6C30.5,16.6,30.7,16.8,30.9,16.8z"/>
	<path class="st0" d="M33.8,15.9c-0.2,0-0.5-0.2-0.6-0.4c-0.1-0.3-0.4-0.3-0.7-0.2c-0.1,0.1-0.2,0.2-0.3,0.3c0,0.1,0,0.2,0.1,0.4
		c0.3,0.6,0.9,0.9,1.5,0.9c1,0,1.8-0.8,1.8-1.8s-0.8-1.8-1.8-1.8c-0.4,0-0.7-0.3-0.7-0.7s0.3-0.7,0.7-0.7c0.2,0,0.5,0,0.5,0.3
		c0.1,0.1,0.1,0.2,0.3,0.2c0.1,0,0.3,0,0.5-0.1c0.1-0.1,0.2-0.2,0.3-0.3c0-0.1,0-0.2-0.1-0.4c-0.3-0.5-0.9-0.8-1.4-0.8
		c-1,0-1.8,0.8-1.8,1.8s0.8,1.8,1.8,1.8c0.4,0,0.7,0.3,0.7,0.7C34.5,15.6,34.2,15.9,33.8,15.9z"/>
	<path class="st0" d="M28.9,10.2c0,0,0.1,0,0.1,0c0.2-0.1,0.3-0.3,0.3-0.5c0-0.3-0.3-0.5-0.5-0.5c-0.3,0-0.5,0.3-0.5,0.5
		c0,0.3,0.2,0.4,0.4,0.5C28.8,10.2,28.9,10.2,28.9,10.2z"/>
	<path class="st0" d="M4.1,19.4v-3.1c0-0.4-0.4-0.8-0.8-0.8c-0.4,0-0.8,0.4-0.8,0.8v3.1c0,0.4,0.4,0.8,0.8,0.8
		C3.7,20.1,4.1,19.8,4.1,19.4z"/>
	<path class="st0" d="M37.3,34.6h-1v-1c1.6-1,2.5-2.6,2.5-4.4v-3.1c0-1.2-0.7-2.1-1.9-2.5v-1.2c0-0.4-0.4-0.8-0.8-0.8H33
		c-2.5,0-4.5,2.1-4.5,4.5v3.1c0,1.7,0.9,3.4,2.5,4.4v1h-1c-1.5,0-2.7,1.2-2.7,2.7v1.9c0,0.4,0.4,0.8,0.8,0.8h11.1
		c0.4,0,0.8-0.4,0.8-0.8v-1.9C39.9,35.8,38.8,34.6,37.3,34.6z M33.6,32.5c0.7,0,1.3-0.1,1.9-0.3c-0.5,0.3-1.2,0.5-1.9,0.5
		c-0.7,0-1.3-0.2-1.9-0.6C32.3,32.4,32.9,32.5,33.6,32.5z M36.1,25c0.6,0,1,0.5,1,1v2.8l0,0c-0.3,0.5-1.4,1.9-3.5,1.9
		c-2.3,0-3.4-1.6-3.5-1.9V26c0-1.5,1.3-2.8,2.9-2.8h2.3v1C35.3,24.6,35.7,25,36.1,25z M34.6,34.2v0.4h-2.1v-0.4
		c0.4,0.1,0.8,0.2,1.1,0.2C34,34.3,34.3,34.3,34.6,34.2z M28.7,37.3c0.1-0.6,0.6-1,1.1-1h7.5c0.6,0,1,0.5,1,1v1h-9.6L28.7,37.3z"/>
	<path class="st0" d="M19.9,21.1c-3.5,0.1-6.2,2.9-6.2,6.3v6.2c0,0.4,0.4,0.8,0.8,0.8h3v0.2h-1c-1.5,0-2.7,1.2-2.7,2.7v1.9
		c0,0.4,0.4,0.8,0.8,0.8h6.3c0.4,0,0.8-0.4,0.8-0.8c0-0.4-0.4-0.8-0.8-0.8h-5.6v-1c0-0.6,0.5-1,1-1H18l1.8,0.6l0.5,0l1.8-0.6h1.8
		c0.6,0,1,0.5,1,1v1h-1.6c-0.4,0-0.8,0.4-0.8,0.8c0,0.4,0.4,0.8,0.8,0.8h2.4c0.4,0,0.8-0.4,0.8-0.8v-1.9c0-1.5-1.2-2.7-2.7-2.7h-1
		v-0.2h3c0.3,0,0.7-0.4,0.7-0.8v-6C26.3,24,23.4,21.1,19.9,21.1z M21,34.3C21,34.3,21,34.4,21,34.3l0,0.5l-1,0.3l-1-0.3v-0.5H21z
		 M24.8,27.4v5.4h-9.6v-5.4c0-2.6,2.2-4.8,4.8-4.8C22.7,22.6,24.8,24.7,24.8,27.4z"/>
	<path class="st0" d="M10.1,34.6H9v-1c1.6-1,2.5-2.6,2.5-4.4v-2.3c0-2.8-2.3-5.2-4.9-5.2c-2.1-0.1-4,1.2-4.9,3.2
		c-0.1,0.2-0.1,0.4,0,0.6c0.1,0.2,0.4,0.4,0.7,0.4c0.3,0,0.6-0.2,0.8-0.5c0.5-1.4,1.9-2.3,3.5-2.2c1.9,0.2,3.2,1.7,3.2,3.7V29l0,0
		c-0.3,0.5-1.4,1.9-3.5,1.9c-2.3,0-3.4-1.6-3.5-1.9v-1.4c0-0.4-0.4-0.8-0.8-0.8s-0.8,0.4-0.8,0.8v1.6c0,1.8,0.9,3.4,2.5,4.4v1H2.7
		c-1.5,0-2.7,1.2-2.7,2.7v1.9c0,0.4,0.4,0.8,0.8,0.8H12c0.4,0,0.8-0.4,0.8-0.8v-1.9C12.7,35.8,11.5,34.6,10.1,34.6z M4.5,32.2
		c0.5,0.2,1.2,0.3,1.9,0.3c0.7,0,1.3-0.1,1.9-0.3c-0.5,0.3-1.2,0.5-1.9,0.5C5.7,32.8,5.1,32.6,4.5,32.2z M7.5,34.2v0.4H5.4v-0.4
		c0.3,0.1,0.7,0.2,1,0.2C6.7,34.3,7.1,34.3,7.5,34.2z M11.1,37.3v1H1.6v-1c0-0.6,0.5-1,1-1h7.5C10.7,36.3,11.1,36.9,11.1,37.3z"/>
	<path class="st0" d="M9.5,14.3l0.4-0.4h5.2c1.5,0,2.7-1.2,2.7-2.7c0-0.2,0.1-0.4,0.4-0.4c0.1,0,0.2,0,0.3,0.1
		c0.1,0.1,0.2,0.2,0.2,0.4c0,1.9-1.6,3.5-3.5,3.5h-3.1c-0.4,0-0.8,0.4-0.8,0.8v3.7c0,0.4,0.3,0.8,0.6,0.8c0,0,0,0,0,0
		c0.2,0.1,0.4,0,0.6-0.1c0.2-0.1,0.3-0.4,0.3-0.6v-2.9h0.8v2.9c0,0.4,0.4,0.8,0.8,0.8h20.2c0.4,0,0.8-0.4,0.8-0.8
		c0-0.3-0.2-0.6-0.8-0.6H15.2v-2.1c2.7-0.1,4.9-2.3,5-4.9c0-1-0.7-2.2-1.8-2.2c0,0,0,0,0,0c-0.6,0-1.1,0.1-1.5,0.5
		c-0.4,0.4-0.7,1-0.7,1.6c0,0.5-0.4,0.9-0.8,1V1.5h3.6c0.4,0,0.8-0.4,0.8-0.8S19.3,0,18.9,0h-4.4c-0.4,0-0.8,0.4-0.8,0.8v11.5h-3.3
		v-0.4c1.6-1,2.5-2.6,2.5-4.4V5.4c0-1.4-0.5-2.6-1.4-3.6V1.7l-0.1-0.1c-1-0.8-2.5-1.7-4.4-1.6C4.2,0.1,1.9,2.5,1.9,5.5V6
		c0,0.1,0.1,0.2,0.2,0.3l0.1,0.1v0.1h0.3v1c0,1.8,0.9,3.4,2.5,4.4v0.4H3.3c-1.8,0-3.3,1.5-3.3,3.3v3.7c0,0.4,0.3,0.8,0.6,0.8
		c0.1,0,0.1,0,0.2,0c0.2,0,0.3,0,0.4-0.1c0.2-0.1,0.3-0.4,0.3-0.6v-4c0-0.5,0.2-0.9,0.5-1.1c0.3-0.3,0.7-0.4,1.2-0.3h2.1l0.3,0.3
		c0,0,0.2,0.2,0.3,0.2h0.3c0.1,0,0.3,0,0.4-0.1l0.9-0.4l0.9,0.5l0.1,0c0,0,0,0,0.1,0c0.1,0,0.1,0.1,0.2,0.1h0.3 M4.2,6.6
		c2.2,0.2,3.7-0.4,4.7-0.8c1.1-0.5,1.3-0.6,2.3,0.7v1c0,2-1.6,3.6-3.5,3.6c-1.9,0-3.5-1.6-3.5-3.5V6.6z M3.5,5
		c0.2-1.9,1.8-3.4,3.8-3.4c0.9,0,1.8,0.3,2.5,0.9L8.9,4.1c-0.1,0-0.2,0.1-0.3,0.1c-0.1,0-0.2,0.1-0.4,0.1C7.2,4.8,5.8,5.2,3.5,5z"/>
	<path class="st0" d="M39.2,0H22c-0.4,0-0.8,0.4-0.8,0.8s0.4,0.8,0.8,0.8h16.4v16.9h-0.6c-0.4,0-0.8,0.4-0.8,0.8
		c0,0.4,0.4,0.8,0.8,0.8h1.4c0.4,0,0.8-0.4,0.8-0.8V0.8C39.9,0.4,39.6,0,39.2,0z"/>
</g>
</svg>
