<?xml version="1.0" encoding="utf-8"?>
<!-- Generator: Adobe Illustrator 25.2.0, SVG Export Plug-In . SVG Version: 6.00 Build 0)  -->
<svg version="1.1" id="Capa_1" xmlns="http://www.w3.org/2000/svg" xmlns:xlink="http://www.w3.org/1999/xlink" x="0px" y="0px"
	 viewBox="0 0 40 40" style="enable-background:new 0 0 40 40;" xml:space="preserve">
<style type="text/css">
	.st0{fill-rule:evenodd;clip-rule:evenodd;fill:#FFFFFF;}
	.st1{fill:#FFFFFF;}
</style>
<g>
</g>
<g>
	<g>
		<path class="st0" d="M37.1,9.4H36v-1c0-0.2-0.2-0.3-0.3-0.3h-0.8c-0.1-0.5-0.3-1-0.6-1.4l0.5-0.5C34.9,6,35,5.9,35,5.9
			c0-0.1,0-0.2-0.1-0.2L33,3.7c-0.1-0.1-0.3-0.1-0.5,0L32,4.3C31.5,4,31,3.8,30.5,3.7V2.9c0-0.2-0.2-0.3-0.3-0.3h-2.7
			c-0.2,0-0.3,0.2-0.3,0.3v0.8c-0.5,0.1-1,0.3-1.4,0.6l-0.5-0.5c-0.1-0.1-0.3-0.1-0.5,0l-1.9,1.9c-0.1,0.1-0.1,0.1-0.1,0.2
			s0,0.2,0.1,0.2l0.5,0.5c-0.3,0.5-0.5,0.9-0.6,1.4h-0.8c-0.2,0-0.3,0.2-0.3,0.3v1h-1.1c-0.2,0-0.3,0.2-0.3,0.3
			c0,0.2,0.2,0.3,0.3,0.3h6.9c0.2,0,0.3-0.2,0.3-0.3c0-0.2-0.2-0.3-0.3-0.3h-1.4c0.2-1.4,1.4-2.5,2.8-2.5s2.6,1.1,2.8,2.5h-1.4
			c-0.2,0-0.3,0.2-0.3,0.3c0,0.2,0.2,0.3,0.3,0.3h6.9c0.2,0,0.3-0.2,0.3-0.3C37.4,9.5,37.3,9.4,37.1,9.4z M28.9,6.2
			c-1.8,0-3.3,1.4-3.5,3.1h-3V8.7h0.7c0.2,0,0.3-0.1,0.3-0.3c0.1-0.6,0.4-1.2,0.7-1.7c0.1-0.1,0.1-0.3,0-0.4l-0.5-0.5L25,4.4
			l0.5,0.5c0.1,0.1,0.3,0.1,0.4,0c0.5-0.3,1.1-0.6,1.7-0.7c0.2,0,0.3-0.2,0.3-0.3V3.3h2v0.7c0,0.2,0.1,0.3,0.3,0.3
			c0.6,0.1,1.2,0.4,1.7,0.7c0.1,0.1,0.3,0.1,0.4,0l0.5-0.5l1.4,1.4l-0.5,0.5c-0.1,0.1-0.1,0.3,0,0.4c0.3,0.5,0.6,1.1,0.7,1.7
			c0,0.2,0.2,0.3,0.3,0.3h0.7v0.7h-3C32.2,7.6,30.7,6.2,28.9,6.2z"/>
		<path class="st0" d="M23.7,12h0.7c0.4,0,0.7,0.3,0.7,0.7c0,0.2,0.2,0.3,0.3,0.3c0.2,0,0.3-0.2,0.3-0.3c0-0.8-0.6-1.4-1.4-1.4h-0.7
			c-0.8,0-1.4,0.6-1.4,1.4v2.6c0,0.8,0.6,1.4,1.4,1.4h0.7c0.8,0,1.4-0.6,1.4-1.4c0-0.2-0.2-0.3-0.3-0.3c-0.2,0-0.3,0.2-0.3,0.3
			c0,0.4-0.3,0.7-0.7,0.7h-0.7c-0.4,0-0.7-0.3-0.7-0.7v-2.6C22.9,12.3,23.3,12,23.7,12z"/>
		<path class="st0" d="M31.2,11.4c-0.1,0-0.3,0-0.4,0.2l-1.7,3.1l-1.7-3.1c-0.1-0.1-0.2-0.2-0.4-0.2c-0.1,0-0.3,0.2-0.3,0.3v4.6
			c0,0.2,0.2,0.3,0.3,0.3s0.3-0.2,0.3-0.3V13l1.4,2.5c0.1,0.1,0.2,0.2,0.3,0.2c0.1,0,0.2-0.1,0.3-0.2l1.4-2.5v3.3
			c0,0.2,0.2,0.3,0.3,0.3s0.3-0.2,0.3-0.3v-4.6C31.4,11.5,31.3,11.4,31.2,11.4z"/>
		<path class="st0" d="M33.9,13.6c-0.5,0-0.9-0.4-0.9-0.9c0-0.5,0.4-0.9,0.9-0.9c0.3,0,0.6,0.1,0.7,0.4c0.1,0.2,0.3,0.2,0.5,0.1
			c0.2-0.1,0.2-0.3,0.1-0.5c-0.3-0.4-0.8-0.7-1.3-0.7c-0.9,0-1.6,0.7-1.6,1.6c0,0.9,0.7,1.6,1.6,1.6c0.5,0,0.9,0.4,0.9,0.9
			c0,0.5-0.4,0.9-0.9,0.9c-0.3,0-0.6-0.2-0.8-0.5c-0.1-0.2-0.3-0.2-0.5-0.1c-0.2,0.1-0.2,0.3-0.1,0.5c0.3,0.5,0.8,0.8,1.4,0.8
			c0.9,0,1.6-0.7,1.6-1.6C35.5,14.3,34.8,13.6,33.9,13.6z"/>
		<path class="st0" d="M29.2,9.7c0-0.2-0.2-0.3-0.3-0.3c-0.2,0-0.3,0.2-0.3,0.3c0,0.2,0.2,0.3,0.3,0.3C29,10.1,29.2,9.9,29.2,9.7z"
			/>
	</g>
	<path class="st1" d="M3.8,19.4v-3.1c0-0.3-0.3-0.6-0.6-0.6s-0.6,0.3-0.6,0.6v3.1c0,0.3,0.3,0.6,0.6,0.6S3.8,19.7,3.8,19.4z"/>
	<path class="st1" d="M37.4,34.9C37.4,34.9,37.4,34.9,37.4,34.9l-1.2,0v-1.3c1.5-0.9,2.5-2.4,2.5-4.3c0,0,0,0,0,0c0,0,0,0,0,0
		c0,0,0,0,0,0v-3.1c0,0,0,0,0,0c0-1.2-0.8-2.1-1.9-2.4v-1.3c0-0.3-0.3-0.6-0.6-0.6h-3.1c-2.4,0-4.4,2-4.4,4.4v0v3.1v0c0,0,0,0,0,0
		c0,0,0,0,0,0c0,1.8,1,3.4,2.5,4.3v1.3H30c0,0,0,0,0,0c-1.4,0-2.5,1.1-2.5,2.5v1.9c0,0.3,0.3,0.6,0.6,0.6h11.2
		c0.3,0,0.6-0.3,0.6-0.6v-1.9C39.9,36.1,38.8,34.9,37.4,34.9L37.4,34.9z M33.1,23.1h2.5v1.2c0,0.3,0.3,0.6,0.6,0.6
		c0.7,0,1.2,0.6,1.2,1.2c0,0,0,0,0,0v2.9c-0.3,0.4-1.4,2-3.7,2c-2.3,0-3.5-1.6-3.7-2v-2.9C30,24.5,31.4,23.1,33.1,23.1z M30.8,31.7
		c0.7,0.4,1.7,0.8,2.9,0.8s2.2-0.3,2.9-0.8c-0.7,0.9-1.7,1.4-2.9,1.4C32.5,33.1,31.5,32.5,30.8,31.7z M33.7,34.3
		c0.4,0,0.8-0.1,1.2-0.2v0.8h-2.5v-0.8C32.8,34.2,33.3,34.3,33.7,34.3z M29.9,36.2C29.9,36.2,30,36.2,29.9,36.2l1.9,0c0,0,0,0,0,0
		h3.7c0,0,0,0,0,0h1.9c0,0,0,0,0,0c0.7,0,1.2,0.6,1.2,1.2v1.2h-10v-1.2C28.7,36.7,29.3,36.2,29.9,36.2z"/>
	<path class="st1" d="M26.2,33.7l0-6c0-3.5-2.8-6.4-6.3-6.4c-3.4,0.1-6.1,2.8-6.1,6.2v6.2c0,0.3,0.3,0.6,0.6,0.6h3.2
		c0,0.1,0,0.1,0,0.2v0.4h-1.2c0,0,0,0,0,0c-1.4,0-2.5,1.1-2.5,2.5v1.9c0,0.3,0.3,0.6,0.6,0.6h6.3c0.3,0,0.6-0.3,0.6-0.6v0
		c0-0.3-0.3-0.6-0.6-0.6H15v-1.2c0-0.7,0.6-1.2,1.2-1.2c0,0,0,0,0,0H18l1.8,0.6c0,0,0,0,0,0c0.1,0,0.1,0,0.2,0c0.1,0,0.1,0,0.2,0
		c0,0,0,0,0,0l1.8-0.6h1.8c0,0,0,0,0,0c0.7,0,1.2,0.6,1.2,1.2v1.2h-1.8c-0.3,0-0.6,0.3-0.6,0.6v0c0,0.3,0.3,0.6,0.6,0.6h2.4
		c0.3,0,0.6-0.3,0.6-0.6v-1.9c0-1.4-1.1-2.5-2.5-2.5c0,0,0,0,0,0h-1.2v-0.4c0-0.1,0-0.1,0-0.2h3.2C25.9,34.3,26.2,34,26.2,33.7z
		 M21.2,34.5v0.6L20,35.5l-1.2-0.4v-0.6c0-0.1,0-0.1,0-0.2h2.6C21.3,34.4,21.2,34.4,21.2,34.5z M25,33.1H15v-5.6c0-2.7,2.2-5,5-5
		s5,2.2,5,5V33.1z"/>
	<path class="st1" d="M10,34.9C10,34.9,10,34.9,10,34.9l-1.2,0v-1.3c1.5-0.9,2.5-2.4,2.5-4.3c0,0,0,0,0,0c0,0,0,0,0,0c0,0,0,0,0,0
		l0-2.3c0-2.7-2.1-5.1-4.8-5.1c-2.2-0.1-4,1.3-4.8,3.1c-0.2,0.4,0.2,0.8,0.6,0.8h0c0.3,0,0.5-0.2,0.6-0.4C3.4,24,4.9,23,6.6,23.1
		C8.6,23.3,10,25,10,27l0,2.2c-0.3,0.4-1.4,2-3.7,2c-2.3,0-3.5-1.6-3.7-2v-1.5c0-0.3-0.3-0.6-0.6-0.6h0c-0.3,0-0.6,0.3-0.6,0.6v1.6
		v0c0,0,0,0,0,0c0,0,0,0,0,0c0,1.8,1,3.4,2.5,4.3v1.3H2.6c0,0,0,0,0,0c-1.4,0-2.5,1.1-2.5,2.5v1.9c0,0.3,0.3,0.6,0.6,0.6h11.2
		c0.3,0,0.6-0.3,0.6-0.6v-1.9C12.5,36.1,11.4,34.9,10,34.9z M3.4,31.7c0.7,0.4,1.7,0.8,2.9,0.8s2.2-0.3,2.9-0.8
		c-0.7,0.9-1.7,1.4-2.9,1.4S4.1,32.5,3.4,31.7z M7.6,34.1v0.8H5.1v-0.8c0.4,0.1,0.8,0.2,1.2,0.2C6.7,34.3,7.2,34.2,7.6,34.1z
		 M11.3,38.7h-10v-1.2c0-0.7,0.6-1.2,1.2-1.2c0,0,0,0,0,0h1.9c0,0,0,0,0,0h3.7c0,0,0,0,0,0H10c0,0,0,0,0,0c0.7,0,1.2,0.6,1.2,1.2
		V38.7z"/>
	<g>
		<path class="st1" d="M34.7,18.8H15v-2.5c2.7,0,4.9-2.2,5-4.8c0-1-0.7-2-1.7-2c-1.1-0.1-2,0.8-2,1.9c0,0.7-0.6,1.2-1.2,1.2V1.3h3.8
			c0.3,0,0.6-0.3,0.6-0.6v0c0-0.3-0.3-0.6-0.6-0.6h-4.4c-0.3,0-0.6,0.3-0.6,0.6v11.8l-3.7,0v-0.7c1.5-0.9,2.5-2.5,2.5-4.3
			c0,0,0,0,0,0V5.4c0-1.4-0.5-2.6-1.4-3.6c0,0,0,0,0-0.1C10.1,0.7,8.6,0,7,0.1C4.1,0.2,2,2.7,2,5.5l0,0.2c0,0,0,0,0,0.1
			c0,0,0,0.1,0,0.1C2,5.9,2,6,2,6c0,0,0,0.1,0.1,0.1c0,0,0.1,0.1,0.1,0.1c0,0,0.1,0,0.1,0.1c0,0,0.1,0,0.1,0c0,0,0,0,0.1,0
			c0,0,0.1,0,0.1,0v1.2v0c0,1.8,1,3.4,2.5,4.3v0.7H3.2c0,0,0,0,0,0c-1.7,0-3.1,1.4-3.1,3.1l0,3.7c0,0.3,0.2,0.6,0.5,0.6
			c0.4,0.1,0.7-0.2,0.7-0.6v-4c0-1,0.8-1.8,1.9-1.6l0,0h2.2l0.4,0.4c0,0,0,0,0,0c0,0,0.1,0.1,0.2,0.1c0,0,0,0,0.1,0
			c0.1,0,0.1,0,0.2,0h0h0c0,0,0,0,0,0c0.1,0,0.2,0,0.3-0.1c0,0,0,0,0,0l1-0.5l1,0.5c0,0,0,0,0,0c0.1,0,0.2,0.1,0.3,0.1c0,0,0,0,0,0
			h0h0c0.1,0,0.1,0,0.2,0c0,0,0,0,0.1,0c0.1,0,0.1-0.1,0.2-0.1c0,0,0,0,0,0l0.4-0.4l4.7,0c0,0,0,0,0,0c0,0,0,0,0,0l0.6,0h0
			c1.4,0,2.5-1.1,2.5-2.5c0-0.3,0.2-0.6,0.5-0.6c0.4-0.1,0.7,0.2,0.7,0.6c0,2.1-1.7,3.7-3.7,3.7h-3.1c-0.3,0-0.6,0.3-0.6,0.6l0,3.7
			c0,0.3,0.2,0.6,0.5,0.6c0.4,0.1,0.7-0.2,0.7-0.6v-3.1h1.2v3.1c0,0.3,0.3,0.6,0.6,0.6h20.3c0.3,0,0.6-0.3,0.6-0.6v0
			C35.3,19,35.1,18.8,34.7,18.8z M10.8,3.4c0.2,0.4,0.4,0.8,0.4,1.2c-0.3-0.2-0.6-0.4-0.8-0.4L10.8,3.4z M7.2,1.3c1,0,2,0.4,2.7,1
			L9,4.2C8.7,4.3,8.5,4.4,8.2,4.5c-1,0.4-2.4,0.9-5,0.6C3.3,3,5.1,1.3,7.2,1.3z M8.8,12.9L8.7,13l-0.8-0.4c0,0,0,0,0,0
			c0,0-0.1,0-0.1,0c0,0-0.1,0-0.1,0c0,0-0.1,0-0.1,0c0,0-0.1,0-0.1,0c0,0,0,0,0,0L6.4,13l-0.1-0.1v-0.5c0.4,0.1,0.8,0.2,1.2,0.2
			s0.8-0.1,1.2-0.2V12.9z M7.6,11.3c-2.1,0-3.7-1.7-3.7-3.7V6.4C6.2,6.6,7.7,6,8.7,5.6c1.2-0.5,1.5-0.6,2.6,0.8v1.1
			C11.3,9.6,9.6,11.3,7.6,11.3z"/>
		<path class="st1" d="M39.3,0.1L39.3,0.1L22,0.1c-0.3,0-0.6,0.3-0.6,0.6v0c0,0.3,0.3,0.6,0.6,0.6h16.7v17.4h-0.8
			c-0.3,0-0.6,0.3-0.6,0.6v0c0,0.3,0.3,0.6,0.6,0.6h1.4c0.3,0,0.6-0.3,0.6-0.6V0.7C39.9,0.4,39.6,0.1,39.3,0.1z"/>
	</g>
</g>
</svg>
