<?xml version="1.0" encoding="utf-8"?>
<!-- Generator: Adobe Illustrator 25.2.0, SVG Export Plug-In . SVG Version: 6.00 Build 0)  -->
<svg version="1.1" id="Capa_1" xmlns="http://www.w3.org/2000/svg" xmlns:xlink="http://www.w3.org/1999/xlink" x="0px" y="0px"
	 viewBox="0 0 40 40" style="enable-background:new 0 0 40 40;" xml:space="preserve">
<style type="text/css">
	.st0{fill:#FFFFFF;}
</style>
<g>
	<path class="st0" d="M30.1,15.6c0-0.3-0.3-0.6-0.6-0.6H16.8c-0.3,0-0.6,0.3-0.6,0.6s0.3,0.6,0.6,0.6h12.7
		C29.8,16.2,30.1,16,30.1,15.6L30.1,15.6z"/>
	<path class="st0" d="M29.4,25H10.7c-0.3,0-0.6,0.3-0.6,0.6s0.3,0.6,0.6,0.6h18.7c0.3,0,0.6-0.3,0.6-0.6S29.8,25,29.4,25z"/>
	<path class="st0" d="M29.4,30H10.7c-0.3,0-0.6,0.3-0.6,0.6s0.3,0.6,0.6,0.6h18.7c0.3,0,0.6-0.3,0.6-0.6S29.8,30,29.4,30z"/>
	<path class="st0" d="M34.9,7.8c-0.1-0.1-7.6-7.6-7.6-7.6C27,0,28.1,0,8.1,0C6.4,0,5,1.4,5,3.1v0.7v1.4l0,0c0,0.3,0.3,0.6,0.6,0.6
		l0,0l0,0c0,0,0,0,0,0h0c0.3,0,0.6-0.3,0.6-0.6v0l0,0V3.8V3.1c0-1,0.8-1.9,1.9-1.9h18.1v6.9c0,0.3,0.3,0.6,0.6,0.6h6.9v28.1
		c0,1-0.8,1.9-1.9,1.9H8.1c-1,0-1.9-0.8-1.9-1.9V9.5V8.1h0c0-0.3-0.3-0.6-0.6-0.6h0C5.3,7.5,5,7.8,5,8.1h0v1.4v27.3
		C5,38.6,6.4,40,8.1,40h23.7c1.7,0,3.1-1.4,3.1-3.1C35,6.1,35.1,8,34.9,7.8z M27.5,7.5V2.1l5.4,5.4H27.5z"/>
	<g>
		<path class="st0" d="M29.4,20h-4.7c-0.3,0-0.6,0.3-0.6,0.6l0,0c0,0.3,0.3,0.6,0.6,0.6h4.7c0.3,0,0.6-0.3,0.6-0.6S29.8,20,29.4,20z
			"/>
		<path class="st0" d="M22.9,20.6c0-0.3-0.3-0.6-0.6-0.6H10.7c-0.3,0-0.6,0.3-0.6,0.6s0.3,0.6,0.6,0.6h11.5
			C22.6,21.3,22.9,21,22.9,20.6L22.9,20.6z"/>
	</g>
	<g>
		<path class="st0" d="M18.1,35.6c0-0.3-0.3-0.6-0.6-0.6h-6.8c-0.3,0-0.6,0.3-0.6,0.6c0,0.3,0.3,0.6,0.6,0.6h6.8
			C17.8,36.3,18.1,36,18.1,35.6L18.1,35.6z"/>
		<path class="st0" d="M24.4,35H20c-0.3,0-0.6,0.3-0.6,0.6v0c0,0.3,0.3,0.6,0.6,0.6h4.5c0.3,0,0.6-0.3,0.6-0.6
			C25.1,35.3,24.8,35,24.4,35z"/>
	</g>
	<path class="st0" d="M24,4.9l-2.6-2.6c-0.1-0.1-0.2-0.1-0.3-0.1c-0.1,0-0.2,0-0.3,0.1L10.2,13c-0.1,0.1-0.1,0.2-0.1,0.3v2.6
		c0,0.2,0.2,0.4,0.4,0.4h2.6c0.1,0,0.2,0,0.3-0.1l5.3-5.3l0.5-0.5c0.2-0.2,0.2-0.4,0-0.6c-0.1-0.1-0.2-0.1-0.3-0.1
		c-0.1,0-0.2,0-0.3,0.1L18,10.2l-3.9,3.9l-1.9-1.9l6.3-6.3c0,0,0,0,0,0l0,0l1.9,1.9L20,8.2c-0.2,0.2-0.2,0.4,0,0.6
		c0.2,0.2,0.4,0.2,0.6,0l0.5-0.5c0,0,0,0,0,0L24,5.4C24.1,5.3,24.1,5,24,4.9z M13.5,14.7l-0.7,0.6l-1.9,0l0-1.9l0.6-0.6c0,0,0,0,0,0
		l0,0L13.5,14.7z M21.1,7.1l-1.9-1.9l1.9-1.9c0,0,0,0,0,0l0,0L23,5.2L21.1,7.1z"/>
</g>
</svg>
