<?xml version="1.0" encoding="utf-8"?>
<!-- Generator: Adobe Illustrator 25.1.0, SVG Export Plug-In . SVG Version: 6.00 Build 0)  -->
<svg version="1.1" id="Warstwa_1" xmlns="http://www.w3.org/2000/svg" xmlns:xlink="http://www.w3.org/1999/xlink" x="0px" y="0px"
	 viewBox="0 0 40 40" style="enable-background:new 0 0 40 40;" xml:space="preserve">
<style type="text/css">
	.st0{fill:#FFFFFF;}
</style>
<g>
	<path class="st0" d="M0,32.86c0,1.57,1.19,2.85,2.65,2.85h34.7c1.46,0,2.65-1.28,2.65-2.85V7.14c0-1.57-1.19-2.85-2.65-2.85H22.88
		h-5.76H2.65C1.19,4.29,0,5.57,0,7.14L0,32.86L0,32.86z M38.42,32.86c0,0.7-0.48,1.26-1.06,1.26H2.65c-0.59,0-1.06-0.57-1.06-1.26
		V13.92h36.83V32.86z M1.58,7.14c0-0.7,0.48-1.26,1.06-1.26h34.7c0.59,0,1.06,0.57,1.06,1.26v5.2H1.58V7.14z M1.58,7.14"/>
	<g>
		
			<rect x="3.33" y="8.13" transform="matrix(-1 -1.224647e-16 1.224647e-16 -1 8.2538 17.8597)" class="st0" width="1.6" height="1.6"/>
		
			<rect x="9.02" y="8.13" transform="matrix(-1 -1.224647e-16 1.224647e-16 -1 19.6469 17.8597)" class="st0" width="1.6" height="1.6"/>
		
			<rect x="6.18" y="8.13" transform="matrix(-1 -1.224647e-16 1.224647e-16 -1 13.9504 17.8597)" class="st0" width="1.6" height="1.6"/>
	</g>
	<g>
		<path class="st0" d="M31.22,20.2h-4.73c-0.39,0-0.71,0.32-0.71,0.71v13.72h1.42V21.62h3.31v0.95h-0.47
			c-0.39,0-0.71,0.32-0.71,0.71s0.32,0.71,0.71,0.71h0.47v1.54h-0.47c-0.39,0-0.71,0.32-0.71,0.71s0.32,0.71,0.71,0.71h0.47v1.54
			h-0.47c-0.39,0-0.71,0.32-0.71,0.71s0.32,0.71,0.71,0.71h0.47v2.13h-0.47c-0.39,0-0.71,0.32-0.71,0.71c0,0.39,0.32,0.71,0.71,0.71
			h0.47v1.18h1.42V20.91C31.93,20.52,31.61,20.2,31.22,20.2z"/>
		<path class="st0" d="M23.34,24.06l-2.05-3.55c-0.13-0.22-0.36-0.35-0.61-0.35c-0.25,0-0.49,0.14-0.61,0.35l-2.05,3.55
			c-0.73,1.27-0.47,2.87,0.63,3.84c-0.14,0.8-0.38,2.43-0.49,4.81c-0.03,0.6-0.04,1.2-0.05,1.81l0,0.12h1.42l0-0.12
			c0-0.36,0.01-0.71,0.02-1.07h2.08c0.01,0.35,0.02,0.71,0.02,1.07l0,0.12h1.42l0-0.12c-0.01-0.61-0.02-1.22-0.05-1.8
			c-0.1-2.32-0.32-3.9-0.45-4.68C23.77,27.09,24.11,25.4,23.34,24.06z M22.11,26.43c-0.3,0.52-0.84,0.83-1.43,0.83
			c-0.6,0-1.13-0.31-1.43-0.83c-0.3-0.52-0.3-1.13,0-1.65l1.44-2.49l1.44,2.49C22.41,25.29,22.41,25.91,22.11,26.43z M21.55,32.03
			H19.6c0.09-1.53,0.24-2.7,0.36-3.44c0.41,0.1,0.83,0.11,1.26,0.04C21.32,29.35,21.46,30.5,21.55,32.03z"/>
		<path class="st0" d="M12.93,20.59c-0.12-0.24-0.36-0.39-0.63-0.39c-0.27,0-0.51,0.15-0.63,0.39l-2.37,4.74
			c-0.05,0.1-0.07,0.2-0.07,0.31v8.99h1.42v-8.28h0.95v8.28H13v-8.28h0.95v8.28h1.42v-8.99c0-0.11-0.02-0.21-0.07-0.3L12.93,20.59z
			 M13.51,24.93h-2.44l1.22-2.44L13.51,24.93z"/>
	</g>
</g>
</svg>
