<?xml version="1.0" encoding="utf-8"?>
<!-- Generator: Adobe Illustrator 25.1.0, SVG Export Plug-In . SVG Version: 6.00 Build 0)  -->
<svg version="1.1" id="Warstwa_1" xmlns="http://www.w3.org/2000/svg" xmlns:xlink="http://www.w3.org/1999/xlink" x="0px" y="0px"
	 viewBox="0 0 40 40" style="enable-background:new 0 0 40 40;" xml:space="preserve">
<style type="text/css">
	.st0{fill:#FFFFFF;}
</style>
<g>
	<path class="st0" d="M39.44,28.43l-0.87-0.86c-0.6-0.6-1.5-0.71-2.23-0.34V7.64c0-2.26-1.77-4.1-3.94-4.1h-0.62V1.46
		c0-0.4-0.33-0.73-0.73-0.73s-0.73,0.33-0.73,0.73v2.07H18.9V1.45c0-0.4-0.33-0.73-0.73-0.73c-0.4,0-0.73,0.33-0.73,0.73v2.08H6.02
		V1.45c0-0.4-0.33-0.73-0.73-0.73S4.57,1.05,4.57,1.45v2.08H3.94C1.77,3.53,0,5.37,0,7.64v25.34c0,2.26,1.77,4.1,3.94,4.1h24.29
		l-0.47,1.34c-0.08,0.23-0.02,0.49,0.15,0.66c0.12,0.12,0.28,0.19,0.45,0.19c0.07,0.01,0.13-0.01,0.21-0.03l3.97-1.32l0.37-0.21
		l6.51-6.56C40.19,30.4,40.19,29.18,39.44,28.43z M29.99,35.8l1.21,1.21l-1.82,0.61L29.99,35.8z M30.62,34.62l5.12-5.12l1.77,1.77
		l-5.12,5.12L30.62,34.62z M36.65,28.59l0.12-0.12c0.25-0.25,0.65-0.25,0.9,0l0.87,0.87c0.25,0.25,0.25,0.66,0,0.9l-0.11,0.11
		L36.65,28.59z M3.94,35.63c-1.4,0-2.55-1.19-2.55-2.65V7.64c0-1.46,1.14-2.65,2.55-2.65h0.62v3.53c0,0.4,0.33,0.73,0.73,0.73
		s0.73-0.33,0.73-0.73V4.99h11.43v3.53c0,0.4,0.33,0.73,0.73,0.73c0.4,0,0.73-0.33,0.73-0.73V4.99h11.43v3.54
		c0,0.4,0.33,0.73,0.73,0.73s0.73-0.33,0.73-0.73V4.99h0.62c1.4,0,2.55,1.19,2.55,2.65v20.84l-5.62,5.62l-0.06,0l-0.53,1.53H3.94z"
		/>
	<rect x="4.57" y="32.1" class="st0" width="1.45" height="1.45"/>
	<rect x="14.87" y="32.1" class="st0" width="1.45" height="1.45"/>
	<rect x="9.72" y="32.1" class="st0" width="1.45" height="1.45"/>
	<rect x="4.57" y="27.45" class="st0" width="1.45" height="1.45"/>
	<rect x="14.87" y="27.45" class="st0" width="1.45" height="1.45"/>
	<rect x="9.72" y="27.45" class="st0" width="1.45" height="1.45"/>
	<rect x="20.02" y="27.45" class="st0" width="1.45" height="1.45"/>
	<rect x="20.02" y="32.1" class="st0" width="1.45" height="1.45"/>
	<rect x="25.18" y="32.1" class="st0" width="1.45" height="1.45"/>
	<path class="st0" d="M11.84,14.66H10.7l-3,6.95H9.4l0.79-1.94h2.17l0.8,1.94h1.71l-3-6.89L11.84,14.66z M10.76,18.35l0.51-1.2
		l0.51,1.2H10.76z"/>
	<path class="st0" d="M16.94,14.82l-1.27,0.81l0.06,0.09c0.52,0.83,0.8,1.79,0.8,2.77c0,2.88-2.34,5.23-5.23,5.23
		s-5.23-2.34-5.23-5.23s2.34-5.23,5.23-5.23c0.96,0,1.89,0.26,2.71,0.76l0.09,0.06l0.78-1.28l-0.09-0.06
		c-1.05-0.64-2.26-0.98-3.49-0.98c-3.71,0-6.73,3.02-6.73,6.73s3.02,6.73,6.73,6.73s6.73-3.02,6.73-6.73c0-1.27-0.36-2.51-1.03-3.58
		L16.94,14.82z"/>
	<rect x="23.54" y="11.75" class="st0" width="1.45" height="1.45"/>
	<rect x="26.01" y="11.75" class="st0" width="5.78" height="1.45"/>
	<rect x="21.07" y="15.38" class="st0" width="10.71" height="1.45"/>
	<rect x="21.07" y="19.01" class="st0" width="10.71" height="1.45"/>
</g>
</svg>
