<?xml version="1.0" encoding="utf-8"?>
<!-- Generator: Adobe Illustrator 25.1.0, SVG Export Plug-In . SVG Version: 6.00 Build 0)  -->
<svg version="1.1" id="Warstwa_1" xmlns="http://www.w3.org/2000/svg" xmlns:xlink="http://www.w3.org/1999/xlink" x="0px" y="0px"
	 viewBox="0 0 40 40" style="enable-background:new 0 0 40 40;" xml:space="preserve">
<style type="text/css">
	.st0{fill:#FFFFFF;}
</style>
<g>
	<g>
		<path class="st0" d="M34.41,14.48c0.41,0,0.75-0.34,0.75-0.75c0-0.41-0.34-0.75-0.75-0.75c-0.41,0-0.75,0.34-0.75,0.75
			C33.66,14.15,34,14.48,34.41,14.48z"/>
		<path class="st0" d="M34.41,14.6c-0.48,0-0.87-0.39-0.87-0.87c0-0.48,0.39-0.87,0.87-0.87s0.87,0.39,0.87,0.87
			C35.28,14.21,34.89,14.6,34.41,14.6z M34.41,13.1c-0.35,0-0.63,0.28-0.63,0.63c0,0.35,0.28,0.63,0.63,0.63s0.63-0.28,0.63-0.63
			C35.05,13.38,34.76,13.1,34.41,13.1z"/>
	</g>
	<g>
		<path class="st0" d="M29.83,17.9c-0.41,0-0.75,0.34-0.75,0.75c0,0.41,0.34,0.75,0.75,0.75c0.41,0,0.75-0.34,0.75-0.75
			C30.58,18.23,30.25,17.9,29.83,17.9z"/>
		<path class="st0" d="M29.84,19.51c-0.48,0-0.87-0.39-0.87-0.87c0-0.48,0.39-0.87,0.87-0.87c0.48,0,0.87,0.39,0.87,0.87
			C30.7,19.12,30.31,19.51,29.84,19.51z M29.84,18.01c-0.35,0-0.63,0.28-0.63,0.63c0,0.35,0.28,0.63,0.63,0.63
			c0.35,0,0.63-0.28,0.63-0.63C30.47,18.3,30.18,18.01,29.84,18.01z"/>
	</g>
	<g>
		<path class="st0" d="M35.83,9.49c0.41,0,0.75-0.34,0.75-0.75c0-0.41-0.34-0.75-0.75-0.75c-0.41,0-0.75,0.34-0.75,0.75
			C35.08,9.15,35.42,9.49,35.83,9.49z"/>
		<path class="st0" d="M35.83,9.6c-0.48,0-0.87-0.39-0.87-0.87s0.39-0.87,0.87-0.87c0.48,0,0.87,0.39,0.87,0.87S36.31,9.6,35.83,9.6
			z M35.83,8.11c-0.35,0-0.63,0.28-0.63,0.63s0.28,0.63,0.63,0.63c0.35,0,0.63-0.28,0.63-0.63S36.18,8.11,35.83,8.11z"/>
	</g>
	<g>
		<path class="st0" d="M30.33,8.49c0.41,0,0.75-0.34,0.75-0.75c0-0.41-0.34-0.75-0.75-0.75c-0.41,0-0.75,0.34-0.75,0.75
			C29.59,8.15,29.92,8.49,30.33,8.49z"/>
		<path class="st0" d="M30.33,8.6c-0.48,0-0.87-0.39-0.87-0.87s0.39-0.87,0.87-0.87s0.87,0.39,0.87,0.87S30.81,8.6,30.33,8.6z
			 M30.33,7.11c-0.35,0-0.63,0.28-0.63,0.63s0.28,0.63,0.63,0.63s0.63-0.28,0.63-0.63S30.68,7.11,30.33,7.11z"/>
	</g>
	<g>
		<path class="st0" d="M20.01,6.66c-0.41,0-0.75,0.34-0.75,0.75c0,0.41,0.34,0.75,0.75,0.75c0.41,0,0.75-0.34,0.75-0.75
			C20.76,6.99,20.42,6.66,20.01,6.66z"/>
		<path class="st0" d="M20.01,8.27c-0.48,0-0.87-0.39-0.87-0.87s0.39-0.87,0.87-0.87c0.48,0,0.87,0.39,0.87,0.87
			S20.49,8.27,20.01,8.27z M20.01,6.77c-0.35,0-0.63,0.28-0.63,0.63s0.28,0.63,0.63,0.63c0.35,0,0.63-0.28,0.63-0.63
			S20.36,6.77,20.01,6.77z"/>
	</g>
	<g>
		<path class="st0" d="M25.67,9.74c0.41,0,0.75-0.34,0.75-0.75c0-0.41-0.34-0.75-0.75-0.75c-0.41,0-0.75,0.34-0.75,0.75
			C24.92,9.4,25.26,9.74,25.67,9.74z"/>
		<path class="st0" d="M25.67,9.85c-0.48,0-0.87-0.39-0.87-0.87c0-0.48,0.39-0.87,0.87-0.87c0.48,0,0.87,0.39,0.87,0.87
			C26.54,9.47,26.15,9.85,25.67,9.85z M25.67,8.36c-0.35,0-0.63,0.28-0.63,0.63s0.28,0.63,0.63,0.63c0.35,0,0.63-0.28,0.63-0.63
			S26.02,8.36,25.67,8.36z"/>
	</g>
	<g>
		<path class="st0" d="M28.84,14.07c0-0.41-0.34-0.75-0.75-0.75c-0.41,0-0.75,0.34-0.75,0.75c0,0.41,0.34,0.75,0.75,0.75
			C28.5,14.82,28.84,14.48,28.84,14.07z"/>
		<path class="st0" d="M28.09,14.93c-0.48,0-0.87-0.39-0.87-0.87s0.39-0.87,0.87-0.87c0.48,0,0.87,0.39,0.87,0.87
			S28.56,14.93,28.09,14.93z M28.09,13.43c-0.35,0-0.63,0.28-0.63,0.63s0.28,0.63,0.63,0.63c0.35,0,0.63-0.28,0.63-0.63
			S28.44,13.43,28.09,13.43z"/>
	</g>
	<g>
		<path class="st0" d="M34.58,19.81c0-0.41-0.34-0.75-0.75-0.75c-0.41,0-0.75,0.34-0.75,0.75c0,0.41,0.34,0.75,0.75,0.75
			C34.24,20.56,34.58,20.23,34.58,19.81z"/>
		<path class="st0" d="M33.83,20.68c-0.48,0-0.87-0.39-0.87-0.87c0-0.48,0.39-0.87,0.87-0.87c0.48,0,0.87,0.39,0.87,0.87
			C34.7,20.29,34.31,20.68,33.83,20.68z M33.83,19.18c-0.35,0-0.63,0.28-0.63,0.63c0,0.35,0.28,0.63,0.63,0.63
			c0.35,0,0.63-0.28,0.63-0.63C34.46,19.46,34.18,19.18,33.83,19.18z"/>
	</g>
	<g>
		<path class="st0" d="M29,22.89c-0.41,0-0.75,0.34-0.75,0.75c0,0.41,0.34,0.75,0.75,0.75c0.41,0,0.75-0.34,0.75-0.75
			C29.75,23.23,29.42,22.89,29,22.89z"/>
		<path class="st0" d="M29,24.51c-0.48,0-0.87-0.39-0.87-0.87s0.39-0.87,0.87-0.87c0.48,0,0.87,0.39,0.87,0.87S29.48,24.51,29,24.51
			z M29,23.01c-0.35,0-0.63,0.28-0.63,0.63s0.28,0.63,0.63,0.63c0.35,0,0.63-0.28,0.63-0.63S29.35,23.01,29,23.01z"/>
	</g>
	<g>
		<path class="st0" d="M24.42,16.81c-0.41,0-0.75,0.34-0.75,0.75c0,0.41,0.34,0.75,0.75,0.75c0.41,0,0.75-0.34,0.75-0.75
			C25.17,17.15,24.84,16.81,24.42,16.81z"/>
		<path class="st0" d="M24.42,18.43c-0.48,0-0.87-0.39-0.87-0.87c0-0.48,0.39-0.87,0.87-0.87c0.48,0,0.87,0.39,0.87,0.87
			C25.29,18.04,24.9,18.43,24.42,18.43z M24.42,16.93c-0.35,0-0.63,0.28-0.63,0.63c0,0.35,0.28,0.63,0.63,0.63
			c0.35,0,0.63-0.28,0.63-0.63C25.06,17.22,24.77,16.93,24.42,16.93z"/>
	</g>
	<g>
		<path class="st0" d="M35.08,24.22c-0.41,0-0.75,0.34-0.75,0.75c0,0.41,0.34,0.75,0.75,0.75c0.41,0,0.75-0.34,0.75-0.75
			C35.83,24.56,35.49,24.22,35.08,24.22z"/>
		<path class="st0" d="M35.08,25.84c-0.48,0-0.87-0.39-0.87-0.87c0-0.48,0.39-0.87,0.87-0.87s0.87,0.39,0.87,0.87
			C35.95,25.45,35.56,25.84,35.08,25.84z M35.08,24.34c-0.35,0-0.63,0.28-0.63,0.63c0,0.35,0.28,0.63,0.63,0.63
			c0.35,0,0.63-0.28,0.63-0.63C35.71,24.62,35.43,24.34,35.08,24.34z"/>
	</g>
	<path class="st0" d="M7.64,16.21c0-1.03-0.84-1.87-1.87-1.87c-1.03,0-1.87,0.84-1.87,1.87c0,1.03,0.84,1.87,1.87,1.87
		C6.8,18.09,7.64,17.25,7.64,16.21z M5.14,16.21c0-0.34,0.28-0.62,0.62-0.62c0.34,0,0.62,0.28,0.62,0.62c0,0.34-0.28,0.62-0.62,0.62
		C5.42,16.84,5.14,16.56,5.14,16.21z"/>
	<path class="st0" d="M17.43,17.85c1.03,0,1.87-0.84,1.87-1.87c0-1.03-0.84-1.87-1.87-1.87c-1.03,0-1.87,0.84-1.87,1.87
		C15.56,17.01,16.4,17.85,17.43,17.85z M17.43,15.36c0.34,0,0.62,0.28,0.62,0.62c0,0.34-0.28,0.62-0.62,0.62
		c-0.34,0-0.62-0.28-0.62-0.62C16.81,15.64,17.09,15.36,17.43,15.36z"/>
	<path class="st0" d="M12.18,21.68c1.03,0,1.87-0.84,1.87-1.87s-0.84-1.87-1.87-1.87s-1.87,0.84-1.87,1.87S11.15,21.68,12.18,21.68z
		 M12.18,19.19c0.34,0,0.62,0.28,0.62,0.62c0,0.34-0.28,0.62-0.62,0.62c-0.34,0-0.62-0.28-0.62-0.62
		C11.56,19.47,11.84,19.19,12.18,19.19z"/>
	<path class="st0" d="M8.9,23.89c0-1.03-0.84-1.87-1.87-1.87c-1.03,0-1.87,0.84-1.87,1.87c0,1.03,0.84,1.87,1.87,1.87
		C8.06,25.76,8.9,24.92,8.9,23.89z M6.4,23.89c0-0.34,0.28-0.62,0.62-0.62c0.34,0,0.62,0.28,0.62,0.62c0,0.34-0.28,0.62-0.62,0.62
		C6.68,24.52,6.4,24.24,6.4,23.89z"/>
	<path class="st0" d="M38.29,4.74h-8.89l0.22-0.09c0.74-0.31,1.27-0.97,1.43-1.76c0.15-0.79-0.09-1.6-0.66-2.17
		C29.82,0.14,29-0.11,28.22,0.05c-0.79,0.15-1.45,0.69-1.76,1.43l-0.87,2.05l-0.87-2.05c-0.31-0.74-0.97-1.27-1.76-1.43
		c-0.79-0.16-1.6,0.1-2.17,0.66c-0.57,0.57-0.82,1.38-0.66,2.17c0.15,0.79,0.69,1.45,1.43,1.76l0.22,0.09h-5.38
		c-0.55-0.45-1.27-0.63-1.97-0.49c-0.79,0.15-1.45,0.69-1.76,1.43l-0.87,2.05L10.9,5.67C10.59,4.93,9.93,4.4,9.14,4.25
		c-0.79-0.16-1.6,0.1-2.17,0.66C6.4,5.48,6.15,6.29,6.31,7.08c0.15,0.79,0.69,1.45,1.43,1.76l0.22,0.09H1.71
		c-0.43,0-0.78,0.35-0.78,0.78v3.11c0,0.42,0.34,0.77,0.76,0.78v21.11c0,0.43,0.35,0.78,0.78,0.78h3.94v3.73
		c0,0.43,0.35,0.78,0.78,0.78h26.41c0.43,0,0.78-0.35,0.78-0.78v-7.27h3c0.43,0,0.78-0.35,0.78-0.78V12.02h0.12
		c0.43,0,0.78-0.35,0.78-0.78V5.51C39.07,5.08,38.72,4.74,38.29,4.74z M27.89,2.08c0.11-0.27,0.34-0.45,0.63-0.51
		c0.05-0.01,0.11-0.02,0.17-0.02c0.23,0,0.44,0.09,0.6,0.25c0.21,0.2,0.29,0.49,0.24,0.77c-0.05,0.28-0.24,0.51-0.51,0.63
		l-1.96,0.83L27.89,2.08z M21.64,2.58c-0.05-0.28,0.03-0.57,0.24-0.77c0.2-0.2,0.48-0.29,0.77-0.24c0.28,0.05,0.51,0.24,0.63,0.51
		l0.83,1.96l-1.96-0.83C21.89,3.1,21.7,2.87,21.64,2.58z M14.08,6.28L14.08,6.28c0.11-0.27,0.34-0.45,0.63-0.51
		c0.06-0.01,0.11-0.02,0.17-0.02c0.23,0,0.44,0.09,0.6,0.25c0.2,0.21,0.29,0.49,0.24,0.77c-0.06,0.28-0.24,0.51-0.51,0.63
		l-1.96,0.83L14.08,6.28z M7.84,6.78C7.78,6.5,7.87,6.22,8.07,6.01c0.16-0.16,0.38-0.25,0.6-0.25c0.06,0,0.11,0.01,0.17,0.02
		c0.28,0.05,0.51,0.24,0.63,0.51l0.83,1.96L8.34,7.41C8.08,7.3,7.89,7.07,7.84,6.78z M2.49,10.49h18.58v1.56H2.49V10.49z M6.41,30
		l0,3.94H3.25V13.61H20.3v11.01l-0.77-1.82c-0.32-0.74-0.97-1.27-1.76-1.43c-0.79-0.16-1.6,0.09-2.17,0.66
		c-0.57,0.57-0.82,1.38-0.66,2.17c0.15,0.79,0.69,1.45,1.43,1.76l0.22,0.09H6.41c-0.43,0-0.78,0.35-0.78,0.78v2.38
		C5.64,29.65,5.98,30,6.41,30z M18.93,25.37l-1.96-0.83c-0.27-0.11-0.45-0.34-0.51-0.63c-0.05-0.28,0.03-0.57,0.24-0.77
		c0.16-0.16,0.38-0.25,0.6-0.25c0.06,0,0.11,0,0.17,0.02c0.28,0.05,0.51,0.24,0.63,0.51L18.93,25.37z M7.97,38.44V30h5.69
		l-5.63,8.45H7.97z M30.86,30l-5.63,8.45h-1.42L29.44,30H30.86z M21.9,38.44h-8.62L18.91,30h8.62L21.9,38.44z M11.37,38.44H9.95
		L15.58,30H17L11.37,38.44z M32.83,38.44h-5.68L32.77,30h0.06V38.44z M33.61,28.44H7.19v-0.82h26.42V28.44z M21.87,25.37l0.83-1.96
		c0.11-0.27,0.34-0.45,0.63-0.51c0.05-0.01,0.11-0.02,0.17-0.02c0.23,0,0.44,0.09,0.6,0.25c0.2,0.21,0.29,0.49,0.24,0.77
		c-0.06,0.28-0.24,0.51-0.51,0.63L21.87,25.37z M36.61,30.39h-2.22V30h0c0.43,0,0.78-0.35,0.78-0.78v-2.38
		c0-0.43-0.35-0.78-0.78-0.78H24.22l0.22-0.09c0.74-0.31,1.27-0.97,1.43-1.76c0.15-0.79-0.09-1.6-0.66-2.17
		c-0.57-0.57-1.38-0.82-2.17-0.66c-0.44,0.09-0.85,0.29-1.18,0.59v-8.36c0.42-0.01,0.76-0.36,0.76-0.78v-0.81h13.99V30.39z
		 M37.51,10.46H22.62V9.71c0-0.43-0.35-0.78-0.78-0.78H15.6l0.22-0.09c0.74-0.32,1.27-0.97,1.43-1.76c0.05-0.26,0.06-0.53,0.02-0.79
		h20.25V10.46z"/>
</g>
</svg>
