<?xml version="1.0" encoding="utf-8"?>
<!-- Generator: Adobe Illustrator 25.1.0, SVG Export Plug-In . SVG Version: 6.00 Build 0)  -->
<svg version="1.1" id="Warstwa_1" xmlns="http://www.w3.org/2000/svg" xmlns:xlink="http://www.w3.org/1999/xlink" x="0px" y="0px"
	 viewBox="0 0 40 40" style="enable-background:new 0 0 40 40;" xml:space="preserve">
<style type="text/css">
	.st0{fill:#FFFFFF;}
</style>
<path class="st0" d="M37.6,12.8h-0.8V12c0-1.33-1.07-2.4-2.4-2.4H5.6c-1.33,0-2.4,1.07-2.4,2.4v0.8H2.4c-1.33,0-2.4,1.07-2.4,2.4
	v9.6c0,1.33,1.07,2.4,2.4,2.4h0.8V28c0,1.33,1.07,2.4,2.4,2.4h10.54c1.5,0,2.02-1.19,3.3-2.3c0.15-0.15,0.35-0.24,0.57-0.24
	c0.21,0,0.42,0.09,0.57,0.24c1.29,1.12,1.83,2.3,3.3,2.3H34.4c1.33,0,2.4-1.07,2.4-2.4v-0.8h0.8c1.33,0,2.4-1.07,2.4-2.4v-9.6
	C40,13.87,38.93,12.8,37.6,12.8L37.6,12.8z M2.4,25.6c-0.44,0-0.8-0.36-0.8-0.8v-9.6c0-0.44,0.36-0.8,0.8-0.8h0.8v11.2H2.4z
	 M35.2,28c0,0.44-0.36,0.8-0.8,0.8H23.86c-0.57,0-0.7-0.46-2.17-1.83c-0.94-0.94-2.45-0.94-3.39,0c-1.46,1.37-1.6,1.83-2.17,1.83
	H5.6c-0.44,0-0.8-0.36-0.8-0.8V12c0-0.44,0.36-0.8,0.8-0.8h28.8c0.44,0,0.8,0.36,0.8,0.8V28z M38.4,24.8c0,0.44-0.36,0.8-0.8,0.8
	h-0.8V14.4h0.8c0.44,0,0.8,0.36,0.8,0.8V24.8z M13.6,16c-1.62,0-3.08,0.97-3.7,2.47c-0.62,1.49-0.28,3.22,0.87,4.36
	c1.14,1.14,2.86,1.49,4.36,0.87c1.49-0.62,2.47-2.08,2.47-3.7C17.6,17.79,15.81,16,13.6,16L13.6,16z M13.6,22.4
	c-0.97,0-1.85-0.58-2.22-1.48c-0.37-0.9-0.17-1.93,0.52-2.62c0.69-0.69,1.72-0.89,2.62-0.52C15.42,18.15,16,19.03,16,20
	C16,21.33,14.93,22.4,13.6,22.4L13.6,22.4z M26.4,16c-1.62,0-3.08,0.97-3.7,2.47c-0.62,1.49-0.28,3.22,0.87,4.36
	c1.14,1.14,2.86,1.49,4.36,0.87c1.49-0.62,2.47-2.08,2.47-3.7C30.4,17.79,28.61,16,26.4,16L26.4,16z M26.4,22.4
	c-0.97,0-1.85-0.58-2.22-1.48c-0.37-0.9-0.17-1.93,0.52-2.62c0.69-0.69,1.72-0.89,2.62-0.52c0.9,0.37,1.48,1.25,1.48,2.22
	C28.8,21.33,27.73,22.4,26.4,22.4L26.4,22.4z M26.4,22.4"/>
</svg>
