<?xml version="1.0" encoding="utf-8"?>
<!-- Generator: Adobe Illustrator 25.2.0, SVG Export Plug-In . SVG Version: 6.00 Build 0)  -->
<svg version="1.1" id="Capa_1" xmlns="http://www.w3.org/2000/svg" xmlns:xlink="http://www.w3.org/1999/xlink" x="0px" y="0px"
	 viewBox="0 0 40 40" style="enable-background:new 0 0 40 40;" xml:space="preserve">
<style type="text/css">
	.st0{fill:#FFFFFF;}
</style>
<g>
	<path class="st0" d="M35.7,0H4.3C1.9,0,0,1.9,0,4.3v25c0,2.4,1.9,4.3,4.3,4.3h9.5l-1,4.1h-2.2c-0.6,0-1.2,0.5-1.2,1.2
		S10,40,10.6,40h18.8c0.6,0,1.2-0.5,1.2-1.2s-0.5-1.2-1.2-1.2h-2.2l-1-4.1h9.5c2.4,0,4.3-1.9,4.3-4.3v-25C40,1.9,38.1,0,35.7,0z
		 M15.2,37.7l1-4.1h7.5l1,4.1H15.2z M37.7,29.3c0,1.1-0.9,2-2,2H4.3c-1.1,0-2-0.9-2-2v-0.4h35.3V29.3z M37.7,26.6H2.3V4.3
		c0-1.1,0.9-2,2-2h31.4c1.1,0,2,0.9,2,2V26.6z"/>
	<path class="st0" d="M19.9,21.9h-0.6l-0.6-3.7c-0.1-0.6-0.6-1-1.2-1h-5.5c-0.2,0-0.4-0.2-0.4-0.4v-2h3.5c0.6,0,1.2-0.5,1.2-1.2
		s-0.5-1.2-1.2-1.2h-3.5v-1c1.4-0.5,2.3-1.8,2.3-3.3c0-1.9-1.6-3.5-3.5-3.5S7,6.3,7,8.2c0,1.5,1,2.8,2.3,3.3v1.1
		c-2.7,0.5-4.7,2.9-4.7,5.7c0,3.2,2.6,5.9,5.9,5.9c2.8,0,5.2-2,5.7-4.7h0.3l0.6,3.7c0.1,0.6,0.6,1,1.2,1h1.6c0.6,0,1.2-0.5,1.2-1.2
		S20.6,21.9,19.9,21.9z M10.5,7c0.6,0,1.2,0.5,1.2,1.2s-0.5,1.2-1.2,1.2S9.4,8.8,9.4,8.2S9.9,7,10.5,7z M10.5,21.9
		c-1.9,0-3.5-1.6-3.5-3.5c0-1.5,1-2.8,2.3-3.3v1.8c0,1.5,1.2,2.7,2.7,2.7h1.8C13.4,20.9,12.1,21.9,10.5,21.9z"/>
	<path class="st0" d="M34.1,6.2H23c-0.6,0-1.2,0.5-1.2,1.2s0.5,1.2,1.2,1.2h11.1c0.6,0,1.2-0.5,1.2-1.2S34.8,6.2,34.1,6.2z"/>
	<path class="st0" d="M34.1,10.9H23c-0.6,0-1.2,0.5-1.2,1.2s0.5,1.2,1.2,1.2h11.1c0.6,0,1.2-0.5,1.2-1.2S34.8,10.9,34.1,10.9z"/>
	<path class="st0" d="M34.1,15.6H23c-0.6,0-1.2,0.5-1.2,1.2S22.4,18,23,18h11.1c0.6,0,1.2-0.5,1.2-1.2S34.8,15.6,34.1,15.6z"/>
	<path class="st0" d="M34.1,20.3h-8c-0.6,0-1.2,0.5-1.2,1.2s0.5,1.2,1.2,1.2h8c0.6,0,1.2-0.5,1.2-1.2S34.8,20.3,34.1,20.3z"/>
</g>
</svg>
