<?xml version="1.0" encoding="utf-8"?>
<!-- Generator: Adobe Illustrator 25.2.0, SVG Export Plug-In . SVG Version: 6.00 Build 0)  -->
<svg version="1.1" id="Capa_1" xmlns="http://www.w3.org/2000/svg" xmlns:xlink="http://www.w3.org/1999/xlink" x="0px" y="0px"
	 viewBox="0 0 40 40" style="enable-background:new 0 0 40 40;" xml:space="preserve">
<style type="text/css">
	.st0{fill:#FFFFFF;}
</style>
<g>
	<path class="st0" d="M36,0H4C1.8,0,0,1.8,0,4v25.5c0,2.2,1.8,4,4,4h10.2L13,38.4h-2.5c-0.4,0-0.8,0.3-0.8,0.8
		c0,0.5,0.4,0.7,0.8,0.7h19.2c0.4,0,0.8-0.3,0.8-0.8c0-0.5-0.3-0.8-0.8-0.8H27l-1.2-4.9H36c2.2,0,4-1.8,4-4V3.9C40,1.7,38.2,0,36,0z
		 M25.3,38.4H14.6l1.2-4.9h8.2L25.3,38.4z M38.4,29.1v0.4c0,1.3-1.1,2.4-2.4,2.4H4c-1.3,0-2.4-1.1-2.4-2.4v-0.8h36.7v0.4H38.4z
		 M38.4,4v23.1H1.6V4c0-1.3,1.1-2.4,2.4-2.4h32C37.3,1.6,38.4,2.7,38.4,4z"/>
	<path class="st0" d="M19.9,22.3H19l-0.7-4.1c-0.1-0.4-0.4-0.7-0.8-0.7h-5.6c-0.4,0-0.8-0.4-0.8-0.8v-2.4H15c0.4,0,0.8-0.3,0.8-0.8
		c0-0.5-0.3-0.8-0.8-0.8h-3.9V11l0.3-0.1c1.3-0.5,2.1-1.6,2.1-3c0-1.7-1.5-3.2-3.2-3.2C8.5,4.7,7.1,6.2,7.1,8c0,1.3,0.9,2.5,2.1,3
		l0.2,0.1v1.7l-0.3,0.1c-2.6,0.5-4.5,2.8-4.5,5.4c0,3.1,2.5,5.6,5.6,5.6c2.7,0,5-1.9,5.4-4.5l0.1-0.3h0.9l0.7,4.1
		c0.1,0.4,0.4,0.7,0.8,0.7h1.6c0.4,0,0.8-0.3,0.8-0.8C20.7,22.6,20.4,22.3,19.9,22.3z M11.8,19.2h2.3L14,19.7
		c-0.5,1.5-2,2.6-3.7,2.6c-2.1,0-3.9-1.8-3.9-3.9c0-1.6,1-3.1,2.6-3.7l0.5-0.2v2.4C9.5,18.2,10.5,19.2,11.8,19.2z M11.9,8
		c0,0.9-0.7,1.6-1.6,1.6C9.4,9.6,8.8,8.8,8.8,8c0-0.9,0.7-1.6,1.5-1.6C11.2,6.4,11.9,7.1,11.9,8z"/>
	<path class="st0" d="M34.4,6.3H23.1c-0.4,0-0.8,0.3-0.8,0.8c0,0.5,0.3,0.8,0.8,0.8h11.3c0.4,0,0.8-0.3,0.8-0.8
		C35.2,6.7,34.9,6.3,34.4,6.3z"/>
	<path class="st0" d="M34.4,11.1H23.1c-0.4,0-0.8,0.3-0.8,0.8c0,0.5,0.3,0.8,0.8,0.8h11.3c0.4,0,0.8-0.3,0.8-0.8
		C35.2,11.4,34.9,11.1,34.4,11.1z"/>
	<path class="st0" d="M34.4,15.9H23.1c-0.4,0-0.8,0.3-0.8,0.8c0,0.5,0.4,0.8,0.8,0.8h11.3c0.4,0,0.8-0.3,0.8-0.8
		C35.2,16.2,34.9,15.9,34.4,15.9z"/>
	<path class="st0" d="M34.4,20.7h-8.2c-0.4,0-0.8,0.3-0.8,0.8c0,0.5,0.3,0.8,0.8,0.8h8.2c0.4,0,0.8-0.3,0.8-0.8
		C35.2,21,34.9,20.7,34.4,20.7z"/>
</g>
</svg>
