<?xml version="1.0" encoding="utf-8"?>
<!-- Generator: Adobe Illustrator 25.1.0, SVG Export Plug-In . SVG Version: 6.00 Build 0)  -->
<svg version="1.1" id="Warstwa_1" xmlns="http://www.w3.org/2000/svg" xmlns:xlink="http://www.w3.org/1999/xlink" x="0px" y="0px"
	 viewBox="0 0 40 40" style="enable-background:new 0 0 40 40;" xml:space="preserve">
<style type="text/css">
	.st0{fill:#FFFFFF;}
</style>
<path class="st0" d="M34.59,7.49c-2.68-1.03-6.31-1.75-10.29-2.06c0.03-0.19,0.04-0.4,0.04-0.59c0-2.39-1.95-4.34-4.34-4.34
	s-4.34,1.95-4.34,4.34c0,0.2,0.02,0.4,0.04,0.59c-1.89,0.15-3.68,0.38-5.36,0.7l0,0c-0.12,0-4.2,0.98-6.1,1.86c0,0-0.01,0-0.02,0
	c-0.04,0.02-0.07,0.03-0.1,0.05C4.08,8.07,4.04,8.09,4,8.11l0,0c-2.88,1.42-3.5,2.97-3.5,4.03v21.33c0,0.95,0.51,2.36,2.9,3.71
	c1.72,0.97,4.16,1.76,7.09,2.31c0.05,0.01,0.1,0.01,0.15,0.01c0.18,0,0.35-0.06,0.49-0.18c0.18-0.15,0.27-0.36,0.27-0.58V28.8
	c1.61-0.27,3.32-0.47,5.11-0.58v2.26c0,0.04,0,0.09,0,0.13c0,1.04,0.85,1.88,1.88,1.88h3.22c0.04,0,0.07,0,0.11-0.01
	c0.98-0.06,1.77-0.88,1.77-1.87v-2.38c1.79,0.12,3.51,0.31,5.12,0.58v0.31v1.01v6.09v1.25v1.26c0,0.22,0.1,0.44,0.27,0.58
	c0.14,0.12,0.31,0.18,0.49,0.18c0.05,0,0.1,0,0.14-0.01c2.92-0.55,5.38-1.35,7.09-2.31c2.4-1.35,2.9-2.76,2.9-3.71V12.13
	C39.49,10.33,37.8,8.73,34.59,7.49z M20,2.03c1.55,0,2.82,1.26,2.82,2.82c0,1.55-1.26,2.82-2.82,2.82c-1.55,0-2.82-1.26-2.82-2.82
	C17.18,3.29,18.45,2.03,20,2.03z M9.87,37.81c-5.41-1.15-7.85-2.98-7.85-4.35V14.93c0.37,0.31,0.82,0.62,1.37,0.94
	c1.59,0.9,3.82,1.65,6.47,2.19C9.87,18.06,9.87,37.81,9.87,37.81z M11.39,27.25v-9.82c0-0.37-0.26-0.68-0.62-0.75
	c-6.04-1.13-8.74-3.09-8.74-4.53v-0.02c0-0.87,0.93-1.79,2.6-2.63c1.86-0.88,5.57-1.76,6-1.87c1.74-0.33,3.61-0.57,5.57-0.7
	c0.29,0.54,0.7,1,1.19,1.37l-3.15,1.8c-0.03,0.01-0.05,0.03-0.07,0.05c-0.56,0.35-0.89,0.97-0.87,1.63l0.27,11.63
	c0.01,0.77,0.5,1.47,1.23,1.74l1.71,0.63v0.92C14.73,26.8,13.01,26.99,11.39,27.25z M22.47,24.53c-0.3,0.11-0.5,0.39-0.5,0.71
	l-0.01,5.35c0,0.19-0.16,0.36-0.36,0.36c-0.03,0-0.06,0-0.08,0h-3.13c-0.19,0-0.36-0.17-0.36-0.36c0-0.01,0-0.02,0-0.03
	c0-0.02,0-0.05,0-0.07l-0.01-5.25c0-0.32-0.19-0.6-0.5-0.71l-2.2-0.82c-0.16-0.06-0.23-0.2-0.23-0.33v-0.01l-0.27-11.63
	c0-0.16,0.09-0.26,0.18-0.32c0.02-0.01,0.04-0.02,0.06-0.04l3.79-2.16c0.06-0.03,0.12-0.04,0.19-0.04l0,0c0.01,0,0.03,0,0.04,0h1.91
	c0.07,0,0.14,0.02,0.19,0.06c0.01,0.01,0.02,0.01,0.03,0.02l3.8,2.17c0.13,0.07,0.19,0.2,0.18,0.35c0,0.02,0,0.04,0,0.06L24.9,23.39
	c0,0.18-0.13,0.29-0.24,0.33c-0.01,0-0.01,0-0.02,0.01L22.47,24.53z M37.97,33.46c0,1.36-2.44,3.2-7.85,4.35v-0.32v-1.25v-6.1v-1.01
	v-0.96l0,0V18.06c2.65-0.55,4.87-1.3,6.47-2.19c0.56-0.31,1-0.62,1.37-0.94V33.46z M37.97,12.15c0,1.43-2.7,3.39-8.74,4.53
	c-0.36,0.07-0.62,0.38-0.62,0.75v9.84c-1.62-0.27-3.33-0.46-5.11-0.57v-0.93l1.68-0.62c0.74-0.26,1.24-0.96,1.26-1.74l0.27-11.53
	c0.06-0.73-0.31-1.42-0.95-1.79L22.6,8.3c0.49-0.37,0.9-0.84,1.19-1.37C27.78,7.2,31.4,7.9,34.04,8.92c2.5,0.97,3.93,2.13,3.93,3.22
	L37.97,12.15L37.97,12.15z"/>
</svg>
