<?xml version="1.0" encoding="utf-8"?>
<!-- Generator: Adobe Illustrator 25.2.0, SVG Export Plug-In . SVG Version: 6.00 Build 0)  -->
<svg version="1.1" id="Capa_1" xmlns="http://www.w3.org/2000/svg" xmlns:xlink="http://www.w3.org/1999/xlink" x="0px" y="0px"
	 viewBox="0 0 40 40" style="enable-background:new 0 0 40 40;" xml:space="preserve">
<style type="text/css">
	.st0{fill:#FFFFFF;}
</style>
<g>
	<path class="st0" d="M9.6,20.8c-0.2,0.1-0.3,0.3-0.3,0.6v4c0,0.3,0.2,0.5,0.4,0.6l3.3,1.3c0.1,0,0.2,0,0.2,0c0.1,0,0.2,0,0.2,0
		l3.3-1.3c0.3-0.1,0.4-0.3,0.4-0.6v-4c0-0.2-0.1-0.4-0.3-0.6c0,0-0.1,0-0.1-0.1l-3.3-1.3c-0.2-0.1-0.3-0.1-0.5,0l-3.3,1.3
		C9.7,20.7,9.7,20.8,9.6,20.8z M16,24.9l-2,0.8v-2.6l2-0.8V24.9z M13.3,20.7l1.5,0.6l-1.5,0.6l-1.5-0.6L13.3,20.7z M10.7,22.3l2,0.8
		v2.6l-2-0.8V22.3z"/>
	<path class="st0" d="M25,23.3l2.7,1.3c0.2,0.1,0.4,0.1,0.6,0l2.7-1.3c0.2-0.1,0.4-0.3,0.4-0.6V20c0-0.2-0.1-0.4-0.3-0.6
		c0,0-0.1,0-0.1,0l-2.7-1.3c-0.2-0.1-0.4-0.1-0.6,0L25,19.4c0,0,0,0-0.1,0c-0.2,0.1-0.3,0.3-0.3,0.6v2.7
		C24.7,22.9,24.8,23.1,25,23.3z M30,22.2l-1.3,0.7v-1.2l1.3-0.7V22.2z M28,19.4l1.2,0.6L28,20.6L26.8,20L28,19.4z M26,21.1l1.3,0.7
		v1.2L26,22.2V21.1z"/>
	<path class="st0" d="M32.7,26h-1.3c-0.4,0-0.7,0.3-0.7,0.7v0c0,0.4,0.3,0.7,0.7,0.7H34c0.4,0,0.7-0.3,0.7-0.7v-4
		c0-0.4-0.3-0.7-0.7-0.7h0c-0.4,0-0.7,0.3-0.7,0.7v2.7C33.3,25.7,33,26,32.7,26z"/>
	<path class="st0" d="M34,16v-2.7c0-0.4-0.3-0.7-0.7-0.7l0,0c-0.4,0-0.7,0.3-0.7,0.7v1.8c0,0.3-0.2,0.5-0.4,0.6l-1.9,0.8
		C30,16.6,29.9,17,30,17.3l0,0c0.1,0.3,0.5,0.5,0.9,0.4l2.7-1.1C33.8,16.5,34,16.3,34,16z"/>
	<path class="st0" d="M6.7,10L6.7,10C6.3,10,6,10.3,6,10.7v5.1c0,0.4,0.2,0.7,0.6,0.9l3.9,1.7c0.3,0.1,0.7,0,0.9-0.4h0
		c0.1-0.3,0-0.7-0.4-0.9l-3.1-1.3c-0.3-0.1-0.6-0.5-0.6-0.9v-4.3C7.3,10.3,7,10,6.7,10z"/>
	<path class="st0" d="M20,21.3L20,21.3c0.4,0,0.7,0.3,0.7,0.7v0c0,0.4-0.3,0.7-0.7,0.7l0,0c-0.4,0-0.7-0.3-0.7-0.7v0
		C19.3,21.6,19.6,21.3,20,21.3z"/>
	<path class="st0" d="M7.3,25.3L7.3,25.3C7.7,25.3,8,25.6,8,26v0c0,0.4-0.3,0.7-0.7,0.7h0c-0.4,0-0.7-0.3-0.7-0.7v0
		C6.7,25.6,7,25.3,7.3,25.3z"/>
	<path class="st0" d="M22,24L22,24c0.4,0,0.7,0.3,0.7,0.7v0c0,0.4-0.3,0.7-0.7,0.7l0,0c-0.4,0-0.7-0.3-0.7-0.7v0
		C21.3,24.3,21.6,24,22,24z"/>
	<path class="st0" d="M39.3,15c0.4,0,0.7-0.3,0.7-0.7V6.7c0-1.1-0.9-2.1-2.1-2.1h-6.6v-2c0-0.3-0.2-0.6-0.5-0.7L20.1,0
		C20,0,20,0,19.9,0L9.2,2C8.9,2.1,8.7,2.3,8.7,2.7v2H2.1C0.9,4.7,0,5.6,0,6.7v23.8c0,1.1,0.9,2.1,2.1,2.1H12v1.5L2.6,36
		C1.5,36.2,0,36.7,0,38.7v0.7C0,39.7,0.3,40,0.7,40c0,0,0.1,0,0.1,0l11.9-2h7.7c0.4,0,0.7-0.3,0.7-0.7c0-0.4-0.3-0.7-0.7-0.7h-7.7
		c0,0-0.1,0-0.1,0L1.3,38.5c0-0.7,0.3-1,1.5-1.2l9.9-2h14.5l9.9,2l0,0c1.2,0.2,1.4,0.6,1.4,1.2l-11.2-1.9c0,0-0.1,0-0.2,0h-3.6
		c-0.4,0-0.7,0.3-0.7,0.7c0,0.4,0.3,0.7,0.7,0.7h3.6l11.9,2c0,0,0.1,0,0.1,0c0.4,0,0.7-0.3,0.7-0.7v-0.7c0-2-1.4-2.5-2.5-2.7
		L28,34.1v-1.5h9.9c1.1,0,2.1-0.9,2.1-2.1V17.2c0-0.4-0.3-0.7-0.7-0.7c-0.4,0-0.7,0.3-0.7,0.7v12.1c0,1.1-0.9,2.1-2.1,2.1H3.4
		c-1.1,0-2.1-0.9-2.1-2.1V8.1C1.3,6.9,2.3,6,3.4,6h5.3v1.3H4.7c-1.1,0-2.1,0.9-2.1,2.1v18.5c0,1.1,0.9,2.1,2.1,2.1h30.5
		c1.1,0,2.1-0.9,2.1-2.1V9.4c0-1.1-0.9-2.1-2.1-2.1h-3.9V6h5.3c1.1,0,2.1,0.9,2.1,2.1v6.3C38.7,14.7,39,15,39.3,15z M13.3,32.7h13.3
		V34H13.3V32.7z M20,1.3l7.5,1.4L20,4.6l-7.5-1.9L20,1.3z M10,3.5l9.3,2.3v6.2c0,0.4,0.3,0.7,0.7,0.7l0,0c0.4,0,0.7-0.3,0.7-0.7V5.8
		L30,3.5v10.7l-9.3,3.5v-2.8c0-0.4-0.3-0.7-0.7-0.7l0,0c-0.4,0-0.7,0.3-0.7,0.7v2.8L10,14.2V3.5z M33.9,8.7c1.1,0,2.1,0.9,2.1,2.1
		v15.8c0,1.1-0.9,2.1-2.1,2.1H6.1c-1.1,0-2.1-0.9-2.1-2.1V10.7c0-1.1,0.9-2.1,2.1-2.1h2.6v6c0,0.3,0.2,0.5,0.4,0.6l10.7,4
		c0.1,0,0.2,0,0.2,0c0.1,0,0.2,0,0.2,0l10.7-4c0.3-0.1,0.4-0.3,0.4-0.6v-6H33.9z"/>
</g>
</svg>
