<?xml version="1.0" encoding="utf-8"?>
<!-- Generator: Adobe Illustrator 25.1.0, SVG Export Plug-In . SVG Version: 6.00 Build 0)  -->
<svg version="1.1" id="Warstwa_1" xmlns="http://www.w3.org/2000/svg" xmlns:xlink="http://www.w3.org/1999/xlink" x="0px" y="0px"
	 viewBox="0 0 40 40" style="enable-background:new 0 0 40 40;" xml:space="preserve">
<style type="text/css">
	.st0{fill:#FFFFFF;}
</style>
<g>
	<path class="st0" d="M38.93,7.39l-11-3.64V0.83C27.93,0.37,27.56,0,27.1,0H1.33C0.87,0,0.5,0.37,0.5,0.83v32.64
		c0,0.46,0.37,0.83,0.83,0.83h9.83c0.06,0.04,0.12,0.07,0.19,0.09l16.8,5.56c0.09,0.03,0.17,0.04,0.26,0.04
		c0.13,0,0.26-0.03,0.37-0.09c0.2-0.1,0.35-0.27,0.42-0.48L39.46,8.44C39.6,8.01,39.37,7.54,38.93,7.39L38.93,7.39z M2.16,32.64
		V1.67h24.1v30.97H2.16z M27.89,38.11L16.37,34.3H27.1c0.46,0,0.83-0.37,0.83-0.83V5.51l9.69,3.21L27.89,38.11z M27.89,38.11"/>
	<path class="st0" d="M22.98,27.29H5.45c-0.61,0-1.1-0.49-1.1-1.1V4.91c0-0.61,0.49-1.1,1.1-1.1h17.53c0.61,0,1.1,0.49,1.1,1.1
		v21.28C24.08,26.8,23.59,27.29,22.98,27.29z M5.9,25.74h16.62V5.36H5.9V25.74z"/>
	<g>
		<g>
			<g>
				<path class="st0" d="M21.09,14.98c0-0.79-0.21-1.62-1.79-1.84c-0.05-0.01-0.09-0.01-0.14,0c0.04-0.54,0.03-0.9,0.03-0.96
					c-0.01-0.29-0.26-0.53-0.55-0.53H7.89c-0.18,0-0.35,0.09-0.45,0.24c-0.07,0.1-0.1,0.23-0.09,0.35
					c-0.01,0.52-0.01,3.88,1.91,6.11H7.89c-0.3,0-0.55,0.24-0.55,0.55c0,0.3,0.24,0.55,0.55,0.55h10.75c0.3,0,0.55-0.24,0.55-0.55
					c0-0.3-0.24-0.55-0.55-0.55h-1.37c0.11-0.13,0.22-0.27,0.32-0.41C19.37,17.77,21.09,15.99,21.09,14.98L21.09,14.98z
					 M19.03,14.19c0.04,0.01,0.07,0.02,0.11,0.03c0.85,0.12,0.85,0.33,0.85,0.76c-0.01,0.3-0.74,1.18-1.65,1.63
					C18.7,15.77,18.91,14.92,19.03,14.19L19.03,14.19z M10.84,18.36c-2.05-1.5-2.36-4.42-2.41-5.61h9.64
					c-0.06,1.2-0.41,4.15-2.4,5.61H10.84z M10.84,18.36"/>
				<path class="st0" d="M18.64,19.56H7.89c-0.36,0-0.66-0.3-0.66-0.66s0.3-0.66,0.66-0.66h1.12c-1.77-2.24-1.79-5.38-1.78-6
					c-0.01-0.14,0.03-0.29,0.11-0.41c0.12-0.18,0.33-0.29,0.55-0.29h10.75c0.35,0,0.65,0.29,0.67,0.64c0,0.04,0.01,0.35-0.02,0.84
					c0.01,0,0.02,0,0.03,0c1.68,0.23,1.89,1.17,1.89,1.95c0,1.13-1.78,2.87-3.55,3.08c-0.05,0.06-0.09,0.12-0.14,0.18h1.13
					c0.36,0,0.66,0.3,0.66,0.66S19.01,19.56,18.64,19.56z M7.89,18.47c-0.24,0-0.43,0.19-0.43,0.43s0.19,0.43,0.43,0.43h10.75
					c0.24,0,0.43-0.19,0.43-0.43s-0.19-0.43-0.43-0.43h-1.62l0.16-0.19c0.11-0.13,0.21-0.26,0.31-0.4l0.03-0.04l0.05-0.01
					c1.75-0.18,3.39-1.92,3.39-2.86c0-0.77-0.21-1.52-1.69-1.73c-0.03,0-0.07,0-0.11,0l-0.14,0.02l0.01-0.14
					c0.04-0.55,0.03-0.91,0.03-0.94c-0.01-0.23-0.2-0.42-0.44-0.42H7.89c-0.14,0-0.28,0.07-0.36,0.19
					c-0.05,0.08-0.08,0.18-0.07,0.28c-0.01,0.64,0.01,3.87,1.88,6.05l0.16,0.19H7.89z M15.72,18.47h-4.91l-0.03-0.02
					c-2.09-1.53-2.41-4.5-2.45-5.7l0-0.12h9.88l-0.01,0.12c-0.06,1.22-0.42,4.21-2.45,5.7L15.72,18.47z M10.88,18.24h4.76
					c1.86-1.39,2.24-4.14,2.32-5.38h-9.4C8.62,14.09,8.97,16.82,10.88,18.24z M18.12,16.84l0.12-0.29c0.31-0.71,0.54-1.51,0.68-2.38
					l0.02-0.14l0.13,0.05c0.03,0.01,0.06,0.02,0.09,0.02c0.91,0.13,0.95,0.38,0.95,0.87c-0.01,0.4-0.82,1.29-1.71,1.73L18.12,16.84z
					 M19.12,14.33c-0.13,0.72-0.31,1.4-0.55,2.01c0.78-0.48,1.3-1.18,1.3-1.37C19.88,14.57,19.88,14.44,19.12,14.33
					C19.13,14.33,19.13,14.33,19.12,14.33z"/>
			</g>
		</g>
	</g>
</g>
</svg>
